<?xml version="1.0" encoding="UTF-8"?>
<!DOCTYPE svg PUBLIC "-//W3C//DTD SVG 1.1//EN" "http://www.w3.org/Graphics/SVG/1.1/DTD/svg11.dtd">
<!-- Creator: CorelDRAW -->
<svg xmlns="http://www.w3.org/2000/svg" xml:space="preserve" width="161.908mm" height="176.792mm" style="shape-rendering:geometricPrecision; text-rendering:geometricPrecision; image-rendering:optimizeQuality; fill-rule:evenodd; clip-rule:evenodd"
viewBox="0 0 7.90616 8.63294"
 xmlns:xlink="http://www.w3.org/1999/xlink">
 <defs>
  <style type="text/css">
   <![CDATA[
    .fil0 {fill:none}
    .fil1 {fill:#501D33}
    .fil4 {fill:#A0A4B0}
    .fil2 {fill:#CDD2D9}
    .fil3 {fill:white}
   ]]>
  </style>
 </defs>
 <g id="Layer_x0020_1">
  <metadata id="CorelCorpID_0Corel-Layer"/>
  <rect class="fil0" width="7.90616" height="8.63294"/>
  <g id="_85017752">
   <path id="_85018712" class="fil1" d="M0.766642 5.60723c0.0702923,-0.0262174 0.14412,-0.0248599 0.209651,-0.0013868 0.0315009,0.0692668 0.0641542,0.138026 0.0843752,0.172291 0.024606,0.0416919 0.0742037,0.0749019 0.117805,0.0977451 0.00750045,0.130286 -0.0696575,0.25585 -0.198293,0.303797 -0.158071,0.0589732 -0.334073,-0.0213685 -0.393041,-0.17942 -0.0589342,-0.158105 0.0214026,-0.334087 0.179503,-0.393026zm0.0750533 0.201223c0.0469462,-0.0175108 0.0992051,0.0063285 0.116735,0.0532893 0.0174864,0.046951 -0.00636757,0.0992198 -0.0533186,0.116726 -0.0469413,0.0175059 -0.0992051,-0.00633339 -0.116731,-0.0532942 -0.0174962,-0.0469559 0.00634804,-0.09921 0.0533137,-0.116721z"/>
   <path id="_85018640" class="fil1" d="M1.09165 6.07637c0,0 0.0530354,-0.091817 0.139916,-0.194157 -0.153564,-0.0662344 -0.256324,-0.27593 -0.318886,-0.419669 -0.0772068,0.0734468 -0.152983,0.159135 -0.225023,0.259371l0.00233412 0.0430592 0.165562 0.0096246 0.119084 0.0763766c0,0 0.0727778,0.217186 0.117014,0.225394zm1.12632 -0.608103c0.0493145,0.0442898 0.140262,0.141923 0.205647,0.237084 0,0 1.66531,0.0737935 2.23649,-1.22003 0.0106549,-0.0241372 0.0487871,-0.158139 0.0543782,-0.209637 -0.00565952,-0.00332539 -0.0370921,0.016373 -0.0618054,0.0323457 -0.343199,0.2218 -1.52888,0.872894 -2.24706,0.477709 -0.0876029,0.0982725 -0.329536,0.245576 -0.327988,0.247026l0.140345 0.435505z"/>
   <path id="_85018568" class="fil2" d="M0.816831 5.68919l0.0652383 0.00379417 0.161992 0.103898 0.00928278 0.0277116c0.00700237,0.0208509 0.0219105,0.0621619 0.038137,0.100851 0.012071,-0.0164561 -0.0199279,-0.12887 -0.0308124,-0.147313 -0.0223988,-0.0379466 -0.0827247,-0.137679 -0.121257,-0.224296 -0.0462967,0.0456766 -0.0812207,0.0840285 -0.122581,0.135355zm1.48671 -0.280822c0.0726704,0.0559311 0.109137,0.126673 0.163706,0.201096 0.0837989,0.0025441 0.173409,-0.00216322 0.25461,-0.00831593 0.227587,-0.0172276 0.456819,-0.0591783 0.674283,-0.128689 0.549584,-0.17566 0.969662,-0.511154 1.18976,-1.02552 -0.0627918,0.0373606 -0.126697,0.0730659 -0.190993,0.10734 -0.271178,0.144574 -0.564023,0.270846 -0.860486,0.352521 -0.353859,0.0974863 -0.768684,0.144447 -1.11216,-0.0139852 -0.0738911,0.067631 -0.157959,0.122668 -0.260455,0.176378 0.0312421,0.0685637 0.0639638,0.144003 0.141732,0.339176z"/>
   <path id="_85018496" class="fil3" d="M4.58589 4.44695c-0.0627918,0.0373509 -0.126687,0.073061 -0.190993,0.107336 -0.106388,0.0567221 -0.216136,0.110617 -0.328101,0.160117 -0.213748,0.157646 -0.656885,0.410142 -1.07274,0.509762 -0.207703,0.0497588 0.934768,0.101998 1.59184,-0.777214z"/>
   <path id="_85018424" class="fil1" d="M0.790286 5.59949c0,0 0.155737,-0.0264567 0.222601,0.164634l-0.0931794 -0.00158213 -0.0683049 0.016417c0,0 -0.0991856,-0.129749 -0.0611169,-0.179469z"/>
   <path id="_85018352" class="fil3" d="M3.69825 4.85712c-0.0544124,0.0179698 -0.109054,0.0345968 -0.163833,0.0496856 -0.353859,0.0974863 -0.768684,0.144447 -1.11216,-0.0139852 -0.0743501,0.0680509 -0.173326,0.131453 -0.262589,0.173658 0.0815283,-0.00485381 0.212615,-0.0476444 0.283337,-0.0753512 0.541307,0.158842 1.11994,-0.0738032 1.25524,-0.134007z"/>
   <path id="_85018280" class="fil4" d="M2.4654 5.60697l0.00184581 0.00250015c0.0837989,0.0025441 0.173409,-0.00216322 0.25461,-0.00831593 0.227587,-0.0172276 0.456819,-0.0591783 0.674283,-0.128689 0.538826,-0.172217 0.953128,-0.498111 1.17657,-0.995553 -0.188112,0.159892 -1.00948,0.858005 -2.06737,0.700247 -0.0723334,-0.00828174 -0.0789842,-0.0181896 -0.0848195,0.0649502 -0.00851125,0.121272 0.0251626,0.283171 0.0448806,0.364861z"/>
   <path id="_85018208" class="fil2" d="M0.791849 5.67477c0.116198,-0.0433375 0.210799,0.00503936 0.26882,0.103361 0.0260367,0.0441481 0.0518342,0.115666 0.0405346,0.166123 -0.0166709,0.0744429 -0.0694524,0.139256 -0.146239,0.167886 -0.120749,0.0450369 -0.255211,-0.0163437 -0.300267,-0.137118 -0.0450173,-0.120764 0.0163682,-0.25522 0.137152,-0.300252zm0.0323066 0.0866507c0.072895,-0.0271842 0.154096,0.00984922 0.181305,0.0827784 0.0271647,0.0729047 -0.00988829,0.154111 -0.0828077,0.18129 -0.072895,0.0271842 -0.154091,-0.00984434 -0.181305,-0.0827784 -0.0271745,-0.0729292 0.00986875,-0.154101 0.0828077,-0.18129z"/>
   <path id="_85018136" class="fil3" d="M0.791839 5.67477c0.161919,-0.0629188 0.291199,0.0729585 0.293094,0.214822 -0.11383,-0.299144 -0.357682,-0.187614 -0.413252,-0.113532 0.0261832,-0.0450564 0.0675236,-0.0816602 0.120159,-0.10129z"/>
   <path id="_85018064" class="fil4" d="M1.10596 5.91347c-0.00756393,0.0869583 -0.063788,0.166148 -0.150995,0.198674 -0.120754,0.045032 -0.255206,-0.0163486 -0.300267,-0.137118 -0.022516,-0.0603991 -0.0184142,-0.124226 0.0064164,-0.17857 0.0243569,0.0292254 0.0489287,0.053343 0.0733882,0.0731098 -0.00411157,0.0237661 -0.00218275,0.0489189 0.00684611,0.0731489 0.0272135,0.0729292 0.10841,0.109958 0.181305,0.0827686 0.0384593,-0.0143368 0.0669229,-0.0437135 0.0812695,-0.0789647 0.0447439,-0.00723676 0.080454,-0.0221546 0.102037,-0.0330488z"/>
   <path id="_85017992" class="fil1" d="M4.59974 4.42449c0,0 -0.364387,0.322988 -0.682912,0.492857 0,0 0.346466,-0.161304 0.684894,-0.394325l0.0619471 -0.0970517 -0.0639296 -0.00147958z"/>
   <polygon id="_85017920" class="fil1" points="3.0413,5.66398 3.08233,5.39253 3.17842,5.59349 "/>
   <polygon id="_85017848" class="fil1" points="4.03794,5.26571 3.84747,5.03532 3.9268,5.27944 "/>
   <polygon id="_85017776" class="fil1" points="3.88902,5.31592 3.77669,5.18004 3.82348,5.32401 "/>
  </g>
 </g>
</svg>
