<?xml version="1.0" encoding="UTF-8"?>
<!DOCTYPE svg PUBLIC "-//W3C//DTD SVG 1.1//EN" "http://www.w3.org/Graphics/SVG/1.1/DTD/svg11.dtd">
<!-- Creator: CorelDRAW -->
<svg xmlns="http://www.w3.org/2000/svg" xml:space="preserve" width="161.908mm" height="176.792mm" style="shape-rendering:geometricPrecision; text-rendering:geometricPrecision; image-rendering:optimizeQuality; fill-rule:evenodd; clip-rule:evenodd"
viewBox="0 0 12.3917 13.5308"
 xmlns:xlink="http://www.w3.org/1999/xlink">
 <defs>
  <style type="text/css">
   <![CDATA[
    .fil0 {fill:none}
    .fil1 {fill:#501D33}
    .fil9 {fill:#663F4D}
    .fil7 {fill:#846664}
    .fil5 {fill:#86909C}
    .fil6 {fill:#A0A4B0}
    .fil3 {fill:#B4BBC3}
    .fil8 {fill:#B7A697}
    .fil2 {fill:#CDD2D9}
    .fil4 {fill:white}
   ]]>
  </style>
 </defs>
 <g id="Layer_x0020_1">
  <metadata id="CorelCorpID_0Corel-Layer"/>
  <rect class="fil0" width="12.3917" height="13.5308"/>
  <g id="_85018784">
   <path id="_85033952" class="fil1" d="M7.74739 4.93955l-1.34085 0.624191c0,0 0.294493,0.986096 -3.06603,2.11134l0.378903 0.776573c0,0 0.251005,-0.14544 0.483412,0.177371l0.0196619 0.00836531c0,0 1.85019,-0.299911 2.88833,-1.43713l-0.0519445 -0.110104 0.121469 0.0402576c0.412395,-0.526662 0.688144,-1.27321 0.56705,-2.19087z"/>
   <path id="_85033880" class="fil2" d="M7.63757 5.13715l-1.08293 0.523394c-0.00013011,0.0443752 -0.0057478,0.0891254 -0.0140519,0.128227 -0.0412602,0.194009 -0.163097,0.373224 -0.294232,0.517907 -0.253294,0.279369 -0.605188,0.508378 -0.933004,0.689162 -0.264353,0.1458 -0.539505,0.274019 -0.817688,0.390942 -0.31916,0.134143 -0.644818,0.254289 -0.973016,0.364874l0.265004 0.543087c0.0327112,-0.00518909 0.0655602,-0.0068193 0.0961284,-0.00526563 0.15676,0.00829643 0.284581,0.0939395 0.382401,0.209447 0.0350149,-0.0060769 0.0700757,-0.0128732 0.104555,-0.0196849 0.145608,-0.0287849 0.290406,-0.0638228 0.43342,-0.103522 0.441555,-0.122548 0.880149,-0.294072 1.27852,-0.52119 0.363367,-0.207196 0.671483,-0.448352 0.915722,-0.72469l-0.0980341 -0.18171c0,0 0.0867834,0.0376477 0.184121,0.079436 0.411661,-0.513016 0.612887,-1.14062 0.553082,-1.89041z"/>
   <path id="_85033808" class="fil3" d="M3.72859 7.69144c-0.0955314,0.0341194 -0.109874,0.0278435 -0.205941,0.060218l0.265004 0.543087c0.0327112,-0.00518909 0.0655602,-0.0068193 0.0961284,-0.00526563 0.15676,0.00829643 0.284581,0.0939395 0.382401,0.209447 0.0350149,-0.0060769 0.0700757,-0.0128732 0.104555,-0.0196849 0.145608,-0.0287849 0.290406,-0.0638228 0.43342,-0.103522 0.144392,-0.0400815 0.288485,-0.0854211 0.430947,-0.136202 -0.0106078,-0.113647 -0.0523042,-0.226277 -0.134113,-0.334681 0,0 -1.00151,0.22506 -1.3724,-0.213396z"/>
   <path id="_85033736" class="fil4" d="M6.19028 6.36605c-0.24763,0.252612 -0.57266,0.461975 -0.876926,0.629786 -0.264361,0.1458 -0.539513,0.274019 -0.817719,0.390912 -0.319122,0.134166 -0.644802,0.254312 -0.973024,0.364874l0.056881 0.116556c0.0587638,-0.0169449 0.121569,-0.0364002 0.189846,-0.0593761 0.260174,-0.0875028 0.478522,-0.210036 0.69168,-0.304534 1.05764,-0.468901 1.57513,-0.955528 1.72926,-1.13822z"/>
   <path id="_85033664" class="fil5" d="M3.82905 7.76947c-0.0710784,0.0249811 -0.185246,0.0748362 -0.256569,0.0988836l0.215171 0.426394c0.0327112,-0.00518909 0.0655602,-0.0068193 0.0961284,-0.00526563 0.152979,0.00806682 0.278405,0.0898984 0.375314,0.201127 -0.109698,-0.313772 -0.282186,-0.573188 -0.430044,-0.721139z"/>
   <path id="_85033592" class="fil4" d="M7.51364 5.19704l-0.959003 0.463506 0.5588 -0.155359c0,0 0.20999,1.29026 -2.00909,2.39721 0,0 0.745485,-0.187014 0.785168,-0.203928 0.0396376,-0.0169679 1.44131,-1.34704 1.44943,-1.48179 0.00806682,-0.134779 0.185767,-0.904678 0.185767,-0.904678 0,0 -0.000566361,-0.0537354 -0.011067,-0.114956z"/>
   <path id="_85033520" class="fil6" d="M7.63757 5.13715l-0.387123 0.187075c0.0382064,0.227807 0.150958,1.5978 -2.38127,2.69627 0,0 -0.368717,0.166625 -0.605884,0.475039l0.00288538 0.00339051c0.0350149,-0.0060769 0.0700757,-0.0128732 0.104555,-0.0196849 0.145608,-0.0287849 0.290406,-0.0638228 0.43342,-0.103522 0.441555,-0.122548 0.880149,-0.294072 1.27852,-0.52119 0.363367,-0.207196 0.63274,-0.410872 0.87698,-0.687218l-0.0592919 -0.219182c0,0 0.0867834,0.0376477 0.184121,0.079436 0.411661,-0.513016 0.612887,-1.14062 0.553082,-1.89041z"/>
   <path id="_85033448" class="fil1" d="M3.22893 7.15063c0,0 -0.473914,0.14293 -0.376033,0.551957 0,0 0.549455,0.54735 0.624635,0.959921 0.0399208,0.219144 0.0732979,0.3052 0.108741,0.341393 0.0964804,0.0985316 0.244293,-0.0138223 0.286877,-0.0842195 0.0401198,-0.0662872 0.0494189,-0.159989 0.0352828,-0.264728 -0.0394846,-0.293146 -0.282117,-0.769739 -0.423569,-1.02535 -0.105106,-0.189984 -0.235713,-0.350004 -0.255934,-0.478973z"/>
   <path id="_85033376" class="fil7" d="M3.16999 7.28896c0,0 -0.229422,0.081602 -0.211429,0.359211 0,0 0.494058,0.499913 0.622753,0.98752 0,0 0.0400509,0.247117 0.123321,0.272359 0.0585725,0.0177638 0.0974907,-0.0532533 0.108328,-0.16573 0.0287314,-0.298151 -0.255222,-0.747643 -0.389251,-0.988699 -0.12153,-0.218524 -0.256845,-0.373462 -0.253722,-0.464661z"/>
   <path id="_85033304" class="fil8" d="M3.16999 7.28896c0,0 -0.229422,0.081602 -0.211429,0.359211l0.00284711 0.002916c0.0149397,-0.0267338 0.0576923,-0.0894086 0.154226,-0.146634 0,0 0.689843,0.81344 0.672309,1.34779 0.0122839,-0.0285094 0.020787,-0.0659964 0.0250194,-0.109928 0.0287314,-0.298151 -0.255222,-0.747643 -0.389251,-0.988699 -0.12153,-0.218524 -0.256845,-0.373462 -0.253722,-0.464661z"/>
   <path id="_85033232" class="fil1" d="M1.35396 8.32332c0,0 -0.133126,-0.0653535 -0.405285,0.0716371 -0.272206,0.136975 0.291339,0.924241 0.565734,0.883784 0.19802,-0.0291446 0.18269,-0.234412 0.115698,-0.366987 -0.0693487,-0.137297 -0.202956,-0.407153 -0.276147,-0.588434z"/>
   <path id="_85033160" class="fil7" d="M1.31561 8.43154c0,0 -0.101027,-0.0359793 -0.274892,0.0513629 -0.173865,0.0873574 0.249413,0.707546 0.45087,0.67785 0.145371,-0.0213993 0.0751347,-0.201694 0.0260067,-0.298985 -0.0508807,-0.100789 -0.148272,-0.29711 -0.201984,-0.430228z"/>
   <path id="_85033088" class="fil1" d="M3.73978 8.93329c0,0 0.10878,-0.238163 -0.172327,-0.770588 0,0 0.246099,0.329875 0.284068,0.643387l-0.0345557 0.0779436 -0.0771859 0.0492581z"/>
   <path id="_85033016" class="fil8" d="M1.28836 8.50672c0.142976,0.13295 0.217942,0.494671 -0.0916281,0.193152 -0.176284,-0.171707 -0.0346628,-0.310596 0.0916281,-0.193152z"/>
   <path id="_85032944" class="fil9" d="M1.5039 8.9008c0,0 -0.231803,0.0884519 -0.464011,-0.277831 0,0 0.153384,0.37888 0.379286,0.488793 0.225978,0.109912 0.0847246,-0.210962 0.0847246,-0.210962z"/>
   <polygon id="_85019288" class="fil1" points="6.93642,7.28015 6.65125,7.02985 6.85857,7.37323 "/>
   <path id="_85019216" class="fil1" d="M7.22784 5.31464c0,0 0.083546,0.568726 -0.233417,1.08827 0,0 0.384697,-0.393843 0.358537,-1.14638l-0.0610905 -0.0113961 -0.0640294 0.0695094z"/>
   <g>
    <polygon id="_85019144" class="fil6" points="5.73359,6.96785 6.14089,7.31812 6.26602,7.64064 6.09589,7.45529 "/>
    <polygon id="_85019072" class="fil2" points="6.27302,7.64637 5.98218,7.40036 5.84272,7.11246 "/>
   </g>
   <g>
    <polygon id="_85018976" class="fil6" points="6.23822,6.86062 6.44825,7.07239 6.46573,7.24452 6.38654,7.13661 "/>
    <polygon id="_85018904" class="fil2" points="6.4694,7.24801 6.31852,7.09884 6.28338,6.94265 "/>
   </g>
   <path id="_85018808" class="fil1" d="M4.46676 7.50136c0,0 -0.759468,0.275144 -0.921615,0.311637l0.0512787 0.109101c0,0 0.543875,-0.199489 0.870337,-0.420738z"/>
  </g>
 </g>
</svg>
