<?xml version="1.0" encoding="UTF-8"?>
<!DOCTYPE svg PUBLIC "-//W3C//DTD SVG 1.1//EN" "http://www.w3.org/Graphics/SVG/1.1/DTD/svg11.dtd">
<!-- Creator: CorelDRAW -->
<svg xmlns="http://www.w3.org/2000/svg" xml:space="preserve" width="161.908mm" height="176.792mm" style="shape-rendering:geometricPrecision; text-rendering:geometricPrecision; image-rendering:optimizeQuality; fill-rule:evenodd; clip-rule:evenodd"
viewBox="0 0 12.3917 13.5308"
 xmlns:xlink="http://www.w3.org/1999/xlink">
 <defs>
  <style type="text/css">
   <![CDATA[
    .fil10 {fill:none}
    .fil0 {fill:#501D33}
    .fil1 {fill:#845451}
    .fil4 {fill:#965F54}
    .fil9 {fill:#9893A0}
    .fil2 {fill:#AF8777}
    .fil3 {fill:#BE986E}
    .fil7 {fill:#C7C0C9}
    .fil5 {fill:#DBC593}
    .fil8 {fill:white}
    .fil6 {fill:#501D33;fill-rule:nonzero}
   ]]>
  </style>
 </defs>
 <g id="Layer_x0020_1">
  <metadata id="CorelCorpID_0Corel-Layer"/>
  <g id="_112977840">
   <g>
    <path id="_112981536" class="fil0" d="M3.98989 7.08882c-0.157885,0.425666 -0.320591,1.05749 -0.297179,1.81748 0,0 0.365112,0.397065 0.386519,0.405783 0.0213993,0.00870972 0.348703,-0.311108 0.348703,-0.311108 0,0 -0.0132176,-0.755878 0.162523,-1.68121l-0.600565 -0.230953z"/>
    <path id="_112981464" class="fil1" d="M4.52199 7.29345c-0.116709,0.547335 -0.198923,1.10395 -0.19854,1.66393 -0.0447732,0.0433573 -0.0900132,0.0863395 -0.135559,0.128817 -0.0317622,0.0296039 -0.0637769,0.0590929 -0.0964498,0.0876865 -0.00101792,0.000880156 -0.0020588,0.00180623 -0.00312264,0.00274762 -0.00425536,-0.00450793 -0.00839592,-0.00888575 -0.0123834,-0.013011 -0.0391555,-0.0406249 -0.0778517,-0.0817244 -0.116418,-0.122893 -0.0548222,-0.0585113 -0.109423,-0.11726 -0.163778,-0.176223 -0.0126742,-0.564486 0.106331,-1.14767 0.293421,-1.68033 0.00596975,-0.0169908 0.0117482,-0.0338286 0.0173735,-0.0504903l0.415457 0.15976z"/>
    <path id="_112981392" class="fil2" d="M4.32346 8.95214l-7.65353e-006 0.00524267c-0.0447732,0.0433573 -0.0900132,0.0863395 -0.135559,0.128817 -0.0317622,0.0296039 -0.0637769,0.0590929 -0.0964498,0.0876865 -0.00101792,0.000880156 -0.0020588,0.00180623 -0.00312264,0.00274762 -0.00425536,-0.00450793 -0.00839592,-0.00888575 -0.0123834,-0.013011 -0.0391555,-0.0406249 -0.0778517,-0.0817244 -0.116418,-0.122893 -0.0507046,-0.0541258 -0.101218,-0.108474 -0.151532,-0.162974 0.0169296,-0.0196925 0.0375023,-0.0377013 0.0622768,-0.0537201l0.225289 0.233616 0.227907 -0.105512z"/>
    <path id="_112981320" class="fil2" d="M3.94394 9.02407c-0.0495872,-0.053016 -0.0989984,-0.1062 -0.148203,-0.159568 -0.0126742,-0.564486 0.106331,-1.14767 0.293421,-1.68033 0.00597741,-0.0170061 0.0117329,-0.0338133 0.0173659,-0.050498l0.0173888 0.00668919c-0.145432,0.483114 -0.31469,1.2479 -0.179973,1.8837z"/>
    <path id="_112981248" class="fil0" d="M4.56745 7.31093c-0.0774614,0.373355 -0.173215,0.978711 -0.171983,1.68598 0,0 0.118392,0.205214 0.454459,0.538931 0,0 0.15568,-0.165875 0.326798,-0.361354 0,0 -0.0755939,-0.956117 -0.0606236,-1.65257l-0.548651 -0.210985z"/>
    <path id="_112981176" class="fil1" d="M4.84768 9.38539c-0.0930899,-0.0962585 -0.182958,-0.197109 -0.264498,-0.302475 -0.0274915,-0.0355277 -0.0583352,-0.0758082 -0.0835842,-0.115285 0.00110211,-0.480137 0.0174807,-0.972289 0.109093,-1.44342 0.0117558,-0.0604476 0.0298641,-0.119548 0.0497709,-0.178281l0.354282 0.136241c-0.0047758,0.171263 -0.00316856,0.343414 0.000512787,0.514042 0.00818928,0.379301 0.0271318,0.763723 0.0562611,1.1426 -0.0729382,0.0828801 -0.146925,0.165301 -0.221838,0.246574z"/>
    <path id="_112981104" class="fil2" d="M4.84768 9.38539c-0.0930899,-0.0962585 -0.182958,-0.197109 -0.264498,-0.302475 -0.0274915,-0.0355277 -0.0583352,-0.0758082 -0.0835842,-0.115285 0.0853905,0.0887044 0.228213,0.226644 0.318318,0.302682 0.0749051,-0.0812729 0.0929828,-0.100437 0.165921,-0.183317 -0.0291293,-0.37888 -0.0224478,-0.828204 0.0039033,-1.23324 -0.000459212,-0.0210778 -0.000122457,-0.213273 0.00319152,-0.379975l0.0218126 0.00839592c-0.0047758,0.171263 -0.00316856,0.343414 0.000512787,0.514042 0.00818928,0.379301 0.0271318,0.763723 0.0562611,1.1426 -0.0729382,0.0828801 -0.146925,0.165301 -0.221838,0.246574z"/>
    <polygon id="_112981032" class="fil2" points="4.5105,8.47208 4.83357,8.38736 4.50725,8.37707 "/>
    <polygon id="_112980960" class="fil0" points="4.42599,8.42502 4.84131,8.38816 4.46897,8.32544 "/>
   </g>
   <path id="_112980864" class="fil0" d="M7.84056 7.31091c0.0774614,0.373355 0.173215,0.978711 0.171983,1.68598 0,0 -0.118392,0.205214 -0.454459,0.538931 0,0 -0.15568,-0.165875 -0.326798,-0.361354 0,0 0.0755939,-0.956117 0.0606236,-1.65257l0.548651 -0.210985z"/>
   <path id="_112980792" class="fil1" d="M7.56033 9.38537c0.0930899,-0.0962585 0.182958,-0.197109 0.264498,-0.302475 0.0274915,-0.0355277 0.0583352,-0.0758082 0.0835842,-0.115285 -0.00110211,-0.480137 -0.0174807,-0.972289 -0.109093,-1.44342 -0.0117558,-0.0604476 -0.0298641,-0.119548 -0.0497709,-0.178281l-0.354282 0.136241c0.0047758,0.171263 0.00316856,0.343414 -0.000512787,0.514042 -0.00818928,0.379301 -0.0271318,0.763723 -0.0562611,1.1426 0.0729382,0.0828801 0.146925,0.165301 0.221838,0.246574z"/>
   <path id="_112980720" class="fil2" d="M7.56033 9.38537c0.0930899,-0.0962585 0.182958,-0.197109 0.264498,-0.302475 0.0274915,-0.0355277 0.0583352,-0.0758082 0.0835842,-0.115285 -0.0853905,0.0887044 -0.228213,0.226644 -0.318318,0.302682 -0.0749051,-0.0812729 -0.0929828,-0.100437 -0.165921,-0.183317 0.0291293,-0.37888 0.0224478,-0.828204 -0.0039033,-1.23324 0.000459212,-0.0210778 0.000122457,-0.213273 -0.00319152,-0.379975l-0.0218126 0.00839592c0.0047758,0.171263 0.00316856,0.343414 -0.000512787,0.514042 -0.00818928,0.379301 -0.0271318,0.763723 -0.0562611,1.1426 0.0729382,0.0828801 0.146925,0.165301 0.221838,0.246574z"/>
   <polygon id="_112980648" class="fil2" points="7.89751,8.47206 7.57445,8.38734 7.90076,8.37705 "/>
   <polygon id="_112980576" class="fil0" points="7.98202,8.425 7.5667,8.38815 7.93905,8.32542 "/>
   <polygon id="_112980504" class="fil2" points="8.08085,8.56333 7.71491,8.52192 8.06939,8.45913 "/>
   <polygon id="_112980432" class="fil0" points="8.16564,8.49862 7.70658,8.52402 8.10302,8.39674 "/>
   <path id="_112980360" class="fil0" d="M3.74891 7.18533c0,0 1.11168,1.25131 4.14258,1.7087 0.181174,0.0273384 0.369199,0.051845 0.564241,0.0730759l0.0381222 -0.719738c0,0 -0.231864,-0.0338822 -0.578255,-0.107976 -0.941009,-0.201265 -2.75525,-0.633873 -4.06117,-1.52381l-0.105519 0.569752z"/>
   <path id="_112980288" class="fil3" d="M3.87949 7.14283c0.0597358,0.0577689 0.128243,0.114405 0.18794,0.162523 0.246375,0.198601 0.520991,0.371273 0.79932,0.520968 1.05515,0.567525 2.29167,0.870321 3.47848,1.01025l0.0259378 -0.48975c-0.324961,-0.0522813 -0.647979,-0.116739 -0.96896,-0.189463 -0.745691,-0.168952 -1.49718,-0.387284 -2.20435,-0.67883 -0.399905,-0.164872 -0.895647,-0.431154 -1.26038,-0.665276l-0.0579832 0.329576z"/>
   <path id="_112980216" class="fil4" d="M4.72316 7.68516c0,0 0.823007,0.461056 1.21943,0.521382l0.185284 -0.435203c0,0 -0.814389,0.124959 -1.40471,-0.0861788z"/>
   <path id="_112980144" class="fil4" d="M7.67557 8.74027c0.223942,0.0382294 0.447678,0.0701217 0.669661,0.0962967l0.0259378 -0.48975c-0.158344,-0.025471 -0.316236,-0.0538503 -0.473654,-0.0846557 -0.0327801,0.127952 -0.0896382,0.278864 -0.188269,0.409739 -0.0173199,0.0229836 -0.0282645,0.0458064 -0.0336755,0.068369z"/>
   <path id="_112980072" class="fil5" d="M8.36909 8.38573l0.00206645 -0.0389029c-0.324931,-0.0522889 -0.647948,-0.116762 -0.968922,-0.189463 -0.745722,-0.168959 -1.49718,-0.387276 -2.20435,-0.67883 -0.207334,-0.0854593 -1.06331,-0.546669 -1.26442,-0.666271 -0.00286242,0.0101409 0.0149856,0.0569729 0.093044,0.112974 0.184879,0.132636 0.538579,0.332569 0.538579,0.332569 0,0 1.68793,0.81217 3.804,1.12792z"/>
   <path id="_112980000" class="fil5" d="M4.6233 7.46851c0.00962814,-0.00222718 0.229315,-0.145318 0.229315,-0.145318l-0.126727 -0.0767343c0,0 -0.0620472,0.152948 -0.102588,0.222052z"/>
   <path id="_112979928" class="fil4" d="M6.08454 8.34723c0.248885,0.0834005 0.50224,0.156316 0.757799,0.219679 0.30184,-0.132291 0.522767,-0.2824 0.657591,-0.387697 -0.0325964,-0.00719432 -0.0651622,-0.0144728 -0.0977203,-0.0218508 -0.208482,-0.0472376 -0.417439,-0.0983479 -0.62573,-0.153828 -0.225948,0.111964 -0.511585,0.253271 -0.691941,0.343697z"/>
   <path id="_112979856" class="fil6" d="M3.89365 7.0724c0.0204502,0.0185062 0.0411301,0.0364385 0.0618712,0.0539344 0.0251265,0.0211926 0.0433037,0.0427832 0.0704737,0.0646877 0.121905,0.0982637 0.336809,0.247553 0.468779,0.332768 0.132031,0.085245 0.268233,0.164582 0.406272,0.238821 0.486237,0.261529 1.00996,0.465978 1.5493,0.623924 0.599532,0.17558 1.35869,0.314591 1.96693,0.389771l0.0184067 -0.3476c-0.148264,-0.0245985 -0.436994,-0.0726856 -0.585602,-0.102106 -0.154487,-0.0305835 -0.309149,-0.0636315 -0.463858,-0.0986846 -0.376209,-0.0852297 -0.7516,-0.182238 -1.1221,-0.294699 -0.370745,-0.112522 -0.736691,-0.240558 -1.0938,-0.387781 -0.195226,-0.0804845 -0.388662,-0.167115 -0.577765,-0.261659 -0.182016,-0.0910005 -0.490423,-0.287245 -0.663094,-0.394961l-0.0358185 0.183585zm0.0309203 0.0907403c-0.0267721,-0.0225856 -0.0570877,-0.0530543 -0.0822142,-0.0762751l0.0499929 -0.275083c0.199099,0.12538 0.511225,0.323645 0.72172,0.428881 0.188445,0.0942226 0.380756,0.180363 0.57452,0.260243 0.355637,0.146619 0.720113,0.274134 1.0894,0.38622 0.369513,0.112155 0.743824,0.208888 1.11888,0.293857 0.153178,0.0347088 0.307328,0.0676266 0.462526,0.0983555 0.153966,0.0304687 0.449255,0.0796503 0.605425,0.105297l0.021338 0.00349766 -0.00114038 0.0215447 -0.0209171 0.394976 -0.00136233 0.0258154 -0.0255781 -0.00310733c-0.618719,-0.0752878 -1.38944,-0.215669 -2.0003,-0.39457 -0.542345,-0.158826 -1.06921,-0.364538 -1.55866,-0.627781 -0.138835,-0.0746755 -0.276101,-0.15464 -0.409533,-0.240795 -0.133478,-0.0861864 -0.344317,-0.239533 -0.467409,-0.338761 -0.0260373,-0.0209783 -0.0493576,-0.0392703 -0.0766807,-0.0623151z"/>
   <polygon id="_112979784" class="fil0" points="4.68768,7.16552 4.62757,7.46722 4.80856,7.21028 "/>
   <path id="_112979712" class="fil0" d="M5.42484 7.53335c-0.00243382,0.012016 -0.0889953,0.415388 -0.0889953,0.415388l0.225886 -0.365739 -0.136891 -0.0496485z"/>
   <g>
    <path id="_112979640" class="fil0" d="M8.41813 7.08881c0.157885,0.425666 0.320591,1.05749 0.297179,1.81748 0,0 -0.365112,0.397065 -0.386519,0.405783 -0.0213993,0.00870972 -0.348703,-0.311108 -0.348703,-0.311108 0,0 0.0132176,-0.755878 -0.162523,-1.68121l0.600565 -0.230953z"/>
    <path id="_112979568" class="fil1" d="M7.88602 7.29343c0.116709,0.547335 0.198923,1.10395 0.19854,1.66393 0.0447732,0.0433573 0.0900132,0.0863395 0.135559,0.128817 0.0317622,0.0296039 0.0637769,0.0590929 0.0964498,0.0876865 0.00101792,0.000880156 0.0020588,0.00180623 0.00312264,0.00274762 0.00425536,-0.00450793 0.00839592,-0.00888575 0.0123834,-0.013011 0.0391555,-0.0406249 0.0778517,-0.0817244 0.116418,-0.122893 0.0548222,-0.0585113 0.109423,-0.11726 0.163778,-0.176223 0.0126742,-0.564486 -0.106331,-1.14767 -0.293421,-1.68033 -0.00596975,-0.0169908 -0.0117482,-0.0338286 -0.0173735,-0.0504903l-0.415457 0.15976z"/>
    <path id="_112979496" class="fil2" d="M8.08456 8.95212l7.65353e-006 0.00524267c0.0447732,0.0433573 0.0900132,0.0863395 0.135559,0.128817 0.0317622,0.0296039 0.0637769,0.0590929 0.0964498,0.0876865 0.00101792,0.000880156 0.0020588,0.00180623 0.00312264,0.00274762 0.00425536,-0.00450793 0.00839592,-0.00888575 0.0123834,-0.013011 0.0391555,-0.0406249 0.0778517,-0.0817244 0.116418,-0.122893 0.0507046,-0.0541258 0.101218,-0.108474 0.151532,-0.162974 -0.0169296,-0.0196925 -0.0375023,-0.0377013 -0.0622768,-0.0537201l-0.225289 0.233616 -0.227907 -0.105512z"/>
    <path id="_112979424" class="fil2" d="M8.46407 9.02406c0.0495872,-0.053016 0.0989984,-0.1062 0.148203,-0.159568 0.0126742,-0.564486 -0.106331,-1.14767 -0.293421,-1.68033 -0.00597741,-0.0170061 -0.0117329,-0.0338133 -0.0173659,-0.050498l-0.0173888 0.00668919c0.145432,0.483114 0.31469,1.2479 0.179973,1.8837z"/>
   </g>
   <path id="_112979328" class="fil0" d="M8.54342 7.36239c-0.256768,0.222327 -0.91374,0.705365 -2.15663,1.09918 -0.201732,0.0282033 -0.698645,0.0834158 -0.84035,0.00859492 -0.0215447,-0.0633712 0.0165469,-0.490699 0.0716447,-0.578913 0.991775,-0.244393 2.07199,-0.672393 2.95162,-1.19895 0.0189501,0.154571 0.0248128,0.405668 -0.0262899,0.670082z"/>
   <path id="_112979256" class="fil3" d="M8.47388 6.85506c-0.319788,0.207457 -0.897997,0.503893 -1.27217,0.648935 -0.488104,0.189195 -0.979752,0.352147 -1.48892,0.479433 -0.0604859,0.121775 -0.0612053,0.37262 -0.0547457,0.408209 0.0488448,0.0240704 0.430993,0.0511179 0.736461,-0.0556259 0.410444,-0.132276 0.832521,-0.301511 1.22555,-0.50746 0.28501,-0.149343 0.592636,-0.323431 0.837817,-0.534117 0.0223254,-0.0191721 0.0251648,-0.399928 0.0160035,-0.439374z"/>
   <path id="_112979184" class="fil4" d="M5.65894 8.22617c-0.0102175,0.0820459 -0.00463039,0.144858 -0.00088781,0.165469 0.0106843,0.00525798 0.0373263,0.010669 0.0756169,0.0147866 0.136753,0.0147024 0.422199,0.0129804 0.660844,-0.0704125 0.410444,-0.132276 0.832521,-0.301511 1.22555,-0.50746 0.28501,-0.149343 0.592636,-0.323431 0.837817,-0.534117 0.00822755,-0.00706421 0.0137993,-0.0633024 0.0171056,-0.133424 -0.391455,0.253079 -1.54116,0.902681 -2.81605,1.06516z"/>
   <path id="_112979112" class="fil5" d="M8.46995 6.85226c-0.757179,0.493584 -1.77015,0.884442 -2.75715,1.13117 -0.00918424,0.0184833 -0.0169602,0.0399285 -0.0235729,0.0631493 1.07749,-0.22307 2.30573,-0.838911 2.30573,-0.838911 0.00554881,-0.0129651 0.365954,-0.194048 0.475483,-0.271035 0.0101639,-0.00122457 -0.00109446,-0.0714304 -0.000482173,-0.0843725z"/>
   <path id="_112979040" class="fil6" d="M8.51017 7.1722c-0.123903,0.095738 -0.447785,0.308675 -0.581485,0.391157 -0.133761,0.0825127 -0.271563,0.159033 -0.411102,0.23041 -0.49151,0.251472 -1.07596,0.458967 -1.61843,0.605785 -0.0343797,0.00930669 -0.0692798,0.0184603 -0.104631,0.0274991 0.0641443,0.00114803 0.139378,-0.00110211 0.218807,-0.00907709 0.509786,-0.143994 1.06226,-0.343965 1.52623,-0.581355 0.14035,-0.0717901 0.279239,-0.148915 0.414408,-0.232308 0.135215,-0.0834235 0.460482,-0.297317 0.585587,-0.393966l-0.0135621 -0.324724c-0.192647,0.114849 -0.536092,0.309348 -0.710753,0.392213 -0.190343,0.0903117 -0.384383,0.17248 -0.579747,0.248372 -0.358568,0.139271 -0.745752,0.27806 -1.11725,0.382516 -0.14446,0.0406173 -0.292625,0.0725937 -0.438195,0.108741 -0.006605,0.016524 -0.0123605,0.0347011 -0.0173582,0.0538809 0.155734,-0.0383595 0.314017,-0.0728234 0.468465,-0.116265 0.372972,-0.104853 0.761618,-0.24414 1.12167,-0.383985 0.196856,-0.0764511 0.392022,-0.159086 0.583031,-0.249712 0.16661,-0.079061 0.489688,-0.266465 0.678937,-0.378414l-0.00462273 0.229231z"/>
   <circle id="_112978968" class="fil0" transform="matrix(0.893099 0.120531 -0.120531 0.893099 7.00405 7.83899)" r="0.0827959"/>
   <circle id="_112978896" class="fil0" transform="matrix(0.791687 0.106845 -0.106845 0.791687 7.96328 7.38434)" r="0.0827959"/>
   <rect id="_112978824" class="fil0" transform="matrix(0.211486 0.678062 -0.678062 0.211486 6.628 7.52493)" width="1.21617" height="0.875763" rx="0.179345" ry="0.179345"/>
   <rect id="_112978752" class="fil7" transform="matrix(0.202624 0.64965 -0.64965 0.202624 6.56967 7.64385)" width="0.986747" height="0.646341" rx="0.0646341" ry="0.0646341"/>
   <path id="_112978680" class="fil8" d="M6.38247 8.40456c-0.0201211,0.00175266 -0.039607,-0.010669 -0.04586,-0.0306983l-0.173743 -0.557047c-0.00720963,-0.0230984 0.00578607,-0.0478881 0.0288921,-0.0550825l0.335914 -0.104777c0.017098,-0.00533451 0.0351374,0.000413291 0.0462656,0.0131258 -0.00308437,0.000267874 -0.00619171,0.000857196 -0.00926077,0.00181389l-0.335914 0.104777c-0.023106,0.00719432 -0.0361017,0.0319841 -0.0288921,0.0550825l0.173743 0.557047c0.00187512,0.00600037 0.00495184,0.0113043 0.00885514,0.0157586z"/>
   <path id="_112978608" class="fil9" d="M6.68479 8.01289l0.0717366 0.230019c0.00717901,0.0231137 -0.00582434,0.0478346 -0.0288844,0.0551437l-0.335936 0.104708c-0.0230677,0.00716371 -0.0478652,-0.00580903 -0.0550672,-0.0289074l-0.085666 -0.274632c0.157303,-0.0192563 0.311422,-0.0537508 0.433817,-0.0863318z"/>
   <polygon id="_112978536" class="fil0" points="6.52708,7.74761 6.67557,8.22372 6.39228,8.31211 6.24377,7.83593 "/>
   <rect id="_112978464" class="fil3" transform="matrix(0.190524 0.610855 -0.610855 0.190524 6.49469 7.81932)" width="0.595621" height="0.300371"/>
   <g>
    <path id="_112978392" class="fil0" d="M6.19005 8.00968l0.228864 -0.0648331c0.0169373,0.0123375 0.0840358,0.0703742 0.0600267,0.201066l-0.231711 0.0656367c-0.055335,0.0156821 -0.113211,-0.0166847 -0.128908,-0.072081l-0.00026022 -0.000933731c-0.0156821,-0.055335 0.0166617,-0.113173 0.0719891,-0.128855z"/>
    <path id="_112978320" class="fil7" d="M6.20432 8.06006l0.253095 -0.0716906c0.0140366,0.0234504 0.026244,0.0567203 0.0266419,0.101677l-0.251097 0.0711243c-0.0275298,0.0078066 -0.0564295,-0.0083347 -0.0642284,-0.0358721l-0.000283181 -0.00100261c-0.00779895,-0.0275374 0.00834235,-0.0564295 0.0358721,-0.0642361z"/>
   </g>
   <path id="_112978224" class="fil9" d="M6.22247 8.14444l0.246895 -0.0628967 -0.00998786 -0.0464799c0,0 -0.149818,0.0517073 -0.236907,0.109377z"/>
   <path id="_112978152" class="fil0" d="M8.32444 7.49698c0,0 0.156951,0.698339 0.185177,1.09866 0,0 0.00350532,-0.564609 -0.102213,-1.2179 0,0 -0.031479,0.0379309 -0.0356731,0.0433573 -0.00419414,0.00542635 -0.0472912,0.0758848 -0.0472912,0.0758848z"/>
   <rect id="_112978080" class="fil0" transform="matrix(1.21817 -0.526244 0.526244 1.21817 7.29911 7.27709)" width="0.232683" height="0.598942"/>
   <polygon id="_112978008" class="fil7" points="7.40011,7.31471 7.53678,7.25908 7.7929,7.83963 7.64948,7.902 "/>
   <path id="_112977936" class="fil8" d="M7.40011 7.31471l0.136677 -0.0556259 0.039209 0.0888881c-0.0511332,0.0163097 -0.0985698,0.0356961 -0.138789,0.0540952l-0.0370967 -0.0873574z"/>
   <path id="_112977864" class="fil9" d="M7.68091 7.58578l0.111986 0.253845 -0.14342 0.0623686 -0.103369 -0.243451c0.0523042,-0.0243688 0.0976361,-0.0497403 0.134802,-0.0727621z"/>
  </g>
  <rect class="fil10" width="12.3917" height="13.5308"/>
 </g>
</svg>
