<?xml version="1.0" encoding="UTF-8"?>
<!DOCTYPE svg PUBLIC "-//W3C//DTD SVG 1.1//EN" "http://www.w3.org/Graphics/SVG/1.1/DTD/svg11.dtd">
<!-- Creator: CorelDRAW -->
<svg xmlns="http://www.w3.org/2000/svg" xml:space="preserve" width="161.908mm" height="176.792mm" style="shape-rendering:geometricPrecision; text-rendering:geometricPrecision; image-rendering:optimizeQuality; fill-rule:evenodd; clip-rule:evenodd"
viewBox="0 0 10.4204 11.3783"
 xmlns:xlink="http://www.w3.org/1999/xlink">
 <defs>
  <style type="text/css">
   <![CDATA[
    .fil0 {fill:none}
    .fil1 {fill:#501D33}
    .fil8 {fill:#50404B}
    .fil3 {fill:#62545D}
    .fil9 {fill:#656575}
    .fil4 {fill:#9893A0}
    .fil2 {fill:#9A8D8E}
    .fil5 {fill:#B57366}
    .fil6 {fill:#C7C0C9}
    .fil7 {fill:white}
    .fil10 {fill:#501D33;fill-rule:nonzero}
   ]]>
  </style>
 </defs>
 <g id="Layer_x0020_1">
  <metadata id="CorelCorpID_0Corel-Layer"/>
  <rect class="fil0" width="10.4204" height="11.3783"/>
  <g id="_113880896">
   <path id="_113886968" class="fil1" d="M5.54035 6.26617c-0.00218822,0.0137408 -0.00641665,0.0288781 -0.0135606,0.0453027 -0.0245467,0.0564433 -0.0815178,0.171544 -0.122862,0.246465 -0.0644175,0.116735 -0.11176,0.127516 -0.258481,0.164735 -0.250635,0.0635872 -0.237339,0.296035 -0.267401,0.506896 0,0 -0.0309119,0.145607 -0.206395,0.180837 -0.202559,0.0406559 -1.08151,0.330435 -1.08151,0.330435 0,0 -0.313521,0.0454057 -0.592822,-0.11819 0,0 -0.0101302,-0.0550982 0.0580909,-0.116825l0.0320382 -0.00320511 0.0714906 -0.116961 0.0214446 -0.00225258c0,0 0.0914871,-0.209111 0.107152,-0.314976 0.0085212,-0.0575825 -0.00611416,-0.331767 -0.00711817,-0.590698 -0.00084311,-0.217008 0.00841823,-0.423331 0.0436744,-0.482388 0.00761373,-0.0127625 0.0155557,-0.0255186 0.0237165,-0.0382424 0.339928,0.149121 1.22324,0.47229 2.19254,0.309067z"/>
   <path id="_113886896" class="fil2" d="M5.18945 6.30546l-0.0855403 0.149044c0,0 -0.317235,0.0362409 -0.396152,0.34581 -0.0175766,0.0839699 -0.025068,0.243195 -0.0704029,0.316996 -0.0163023,0.0265226 -0.0436165,0.0509534 -0.0892538,0.0612059 -0.102267,0.0229635 -0.460357,0.121125 -0.797936,0.224441 -0.0893697,0.0273528 -0.175277,0.0628149 -0.269152,0.0688004 -0.0746506,0.00477548 -0.149739,-0.00223971 -0.22224,-0.021657l-0.0819683 0.134788 -0.00193079 -0.000102975c0.0762596,0.0292836 0.157082,0.0466285 0.238574,0.0533669 0.0493252,0.00408683 0.111265,0.00555423 0.161716,-0.00127432 0.181558,-0.0591142 0.363612,-0.117134 0.545891,-0.173977 0.102525,-0.0319674 0.205204,-0.0635937 0.308231,-0.0939006 0.0709886,-0.0208911 0.144989,-0.0433204 0.217259,-0.0590241 0.150035,-0.0326239 0.139737,-0.15911 0.156999,-0.285003 0.0474072,-0.345817 0.169903,-0.356088 0.346209,-0.411174 0.130882,-0.0408876 0.133108,-0.0918539 0.194289,-0.206382 0.0155557,-0.0290969 0.0318194,-0.0591915 0.0468216,-0.0894469 0.00581167,-0.0117263 0.0103876,-0.022262 0.0137858,-0.0319223 -0.0724045,0.00894598 -0.144198,0.0153304 -0.215199,0.0194108z"/>
   <path id="_113886824" class="fil3" d="M5.18831 6.30552l-0.075925 0.12805c0,0 -0.284926,0.0578721 -0.363857,0.367441 -0.0175702,0.0839699 -0.0308733,0.257805 -0.0762017,0.331587 -0.0162765,0.0265033 -0.0639219,0.0638318 -0.109546,0.0740907 -0.102248,0.0229892 -0.454552,0.124812 -0.792131,0.228103 -0.100562,0.0307639 -0.199875,0.0673008 -0.300012,0.0773473 -0.069534,0.00697657 -0.138914,-0.00195009 -0.211775,-0.0214575l-0.0820584 0.0942031 -0.00193079 -9.65393e-005c0.0762661,0.0292836 0.157082,0.0466221 0.238581,0.0533669 0.0493187,0.00408039 0.111258,0.00555423 0.16171,-0.00128719 0.181558,-0.0591078 0.363619,-0.117121 0.545891,-0.17397 0.102525,-0.0319609 0.205204,-0.0635872 0.308224,-0.0939006 0.070995,-0.0208911 0.144989,-0.0433204 0.217271,-0.0590241 0.150022,-0.0326239 0.139725,-0.15911 0.156986,-0.285003 0.0474137,-0.345817 0.169909,-0.356088 0.346216,-0.411174 0.130882,-0.0408876 0.133108,-0.0918539 0.194289,-0.206375 0.0155557,-0.0291034 0.0318194,-0.0591979 0.0468216,-0.0894533 0.00581167,-0.0117263 0.0103876,-0.0222555 0.0137858,-0.0319223 -0.0727971,0.00899746 -0.144963,0.0154012 -0.216338,0.0194752z"/>
   <path id="_113886752" class="fil4" d="M3.45887 6.0037c-0.0129041,0.0215283 -0.0223328,0.039742 -0.0284855,0.0547893 -0.0143136,0.035018 -0.0496727,0.206485 -0.0543838,0.401739 0.0186514,0.279925 0.0207946,0.594843 0.0207946,0.594843 0,0 -0.0339432,0.205597 -0.113904,0.344066 0.00441506,0.00227833 0.00848259,0.00402247 0.0121511,0.00509084 0.174434,0.0507797 0.340198,-0.0228348 0.504212,-0.0723466 0.14979,-0.0452319 0.300186,-0.0887969 0.450967,-0.130618 0.0941387,-0.0261171 0.1908,-0.053766 0.286091,-0.0751719 0.0302168,-0.00678993 0.0509921,-0.0225645 0.0624931,-0.0514619 0.0325788,-0.0818782 0.0385964,-0.200544 0.0565785,-0.286464l0.000296054 -0.00112629c0.036479,-0.143116 0.124735,-0.253667 0.254349,-0.323085 0.0450195,-0.0241026 0.105678,-0.0477097 0.160043,-0.0584578l0.0556517 -0.0969705c-0.710568,0.0274236 -1.33316,-0.17083 -1.66685,-0.304826z"/>
   <circle id="_113886680" class="fil5" cx="4.03131" cy="7.01841" r="0.22103"/>
   <path id="_113886608" class="fil6" d="M3.39656 7.03008c0.000193079,0.0160706 0.00023813,0.0249844 0.00023813,0.0249844 0,0 -0.0339432,0.205597 -0.113904,0.344066 0.00441506,0.00227833 0.00848259,0.00402247 0.0121511,0.00509084 0.174434,0.0507797 0.340198,-0.0228348 0.504212,-0.0723466 0.14979,-0.0452319 0.300186,-0.0887969 0.450967,-0.130618 0.0941387,-0.0261171 0.1908,-0.053766 0.286091,-0.0751719 0.0302168,-0.00678993 0.0509921,-0.0225645 0.0624931,-0.0514619 0.0124986,-0.0314139 0.0210713,-0.0682597 0.0279256,-0.106573 -0.626373,0.0553814 -1.05331,0.0621778 -1.23017,0.0620297z"/>
   <path id="_113886536" class="fil7" d="M3.39656 7.03008c0.000193079,0.0160706 0.00023813,0.0249844 0.00023813,0.0249844 0,0 -0.0339432,0.205597 -0.113904,0.344066 0.00441506,0.00227833 0.00848259,0.00402247 0.0121511,0.00509084l0.00483984 0.00135155c0.0159032,-0.0231759 0.111123,-0.163711 0.173945,-0.295964 0.0264389,-0.0246754 0.957908,-0.102583 1.15262,-0.140008l0.000283182 -0.00155106c-0.626373,0.0553814 -1.05331,0.0621778 -1.23017,0.0620297z"/>
   <path id="_113886464" class="fil6" d="M3.45888 6.0037c-0.0107674,0.0179756 -0.0191277,0.0336407 -0.0251646,0.047079 0.0865314,0.0285113 0.245725,0.0724946 0.490658,0.109701 -0.186578,-0.0515456 -0.34489,-0.108356 -0.465493,-0.15678z"/>
   <path id="_113886392" class="fil7" d="M3.45888 6.0037c-0.0107674,0.0179756 -0.0191277,0.0336407 -0.0251646,0.047079 0.0865314,0.0285113 0.245712,0.0724946 0.490645,0.109694 -0.186578,-0.051552 -0.344883,-0.108349 -0.46548,-0.156773z"/>
   <polygon id="_113886320" class="fil1" points="4.90828,6.50899 5.07124,6.67442 5.09388,6.64713 4.94492,6.46264 "/>
   <polygon id="_113886248" class="fil1" points="4.17335,7.24651 4.24622,7.46418 4.28012,7.4555 4.21448,7.23798 "/>
   <polygon id="_113886176" class="fil1" points="4.62224,7.03586 4.82204,7.14885 4.84143,7.11972 4.64709,7.002 "/>
   <polygon id="_113886104" class="fil1" points="3.65794,7.40046 3.69764,7.62675 3.73569,7.62333 3.70374,7.39827 "/>
   <g>
    <path id="_113886032" class="fil1" d="M5.27378 6.29965c-0.0171068,0.140722 -0.134248,0.252283 -0.28044,0.257902 -0.15427,0.00593395 -0.285364,-0.108259 -0.303127,-0.259021 0.185832,0.0153304 0.381761,0.0178726 0.583567,0.00111986z"/>
    <path id="_113885960" class="fil6" d="M5.20414 6.30462c-0.0185935,0.101778 -0.105749,0.180722 -0.213416,0.18486 -0.113974,0.00438288 -0.211466,-0.0765879 -0.230909,-0.1858 0.143181,0.00915836 0.291928,0.0103683 0.444325,0.000939649z"/>
    <path id="_113885888" class="fil4" d="M5.18919 6.30547c-0.0187351,0.0935402 -0.0994934,0.165674 -0.199013,0.16951 -0.078937,0.00303777 -0.149443,-0.0377211 -0.188129,-0.100555 0.0389826,0.033364 0.0901291,0.0527362 0.145414,0.0506059 0.079735,-0.00306995 0.147428,-0.0499881 0.180837,-0.116613 0.0202282,-0.000791622 0.0405208,-0.00177632 0.0608906,-0.00294767z"/>
    <path id="_113885816" class="fil7" d="M4.78644 6.30523c0.00254864,0.0503742 0.0214768,0.096121 0.0513975,0.132297 -0.0400059,-0.0332481 -0.0684528,-0.0801276 -0.0780295,-0.133849 0.008843,0.000566364 0.0177439,0.00104906 0.026632,0.00155106z"/>
    <path id="_113885744" class="fil1" d="M5.1129 6.30903c-0.0181043,0.0523694 -0.0668438,0.0908885 -0.125533,0.0931476 -0.0626926,0.00240705 -0.117237,-0.0373092 -0.136397,-0.0938491 0.0856626,0.00335957 0.173076,0.00379721 0.26193,0.000701519z"/>
   </g>
   <path id="_113885648" class="fil1" d="M3.27978 6.48566c0,0 -0.0479736,-0.37073 -0.0926777,-0.737174 -0.0283375,-0.0208074 -0.195872,-0.0680345 -0.19844,-0.0855918 -0.023015,-0.157411 0.016978,-0.331291 0.0255314,-0.381324 0.00534184,-0.0199515 0.0367622,-0.0266255 0.0813762,-0.01553 0.312369,0.077727 1.71465,0.849707 1.71465,0.849707l0.0724753 0.507655c0,0 -1.33455,-0.086969 -1.60292,-0.137742z"/>
   <path id="_113885576" class="fil4" d="M3.36926 6.39431c0.331941,0.100311 0.594393,0.184416 0.901761,0.210327 0.0745155,0.0179949 0.396564,-0.076723 0.619235,-0.124523 -0.461645,-0.302039 -1.35994,-0.642643 -1.61892,-0.737992 0.0299851,0.213815 0.056926,0.43814 0.097923,0.652187z"/>
   <path id="_113885504" class="fil3" d="M4.89026 6.48012c0.0213802,-0.00458884 0.0418788,-0.00874003 0.0611223,-0.0123249l-0.229924 -0.290796c-0.10201,-0.0562567 -0.179505,-0.124613 -0.283034,-0.182311 -0.426556,-0.237751 -0.908956,-0.464657 -1.33853,-0.642167 -0.0313431,0.0377726 -0.0314461,0.219035 -0.0216892,0.264891 0.00772958,0.00381008 0.189449,0.0753328 0.188091,0.0890929l0.00504579 0.035623c0.258983,0.0953487 1.15727,0.435952 1.61892,0.737992z"/>
   <path id="_113885432" class="fil8" d="M4.48659 6.19762c0,0 -0.692657,-0.339999 -1.07787,-0.493721 -0.385211,-0.153723 1.01638,0.341807 1.17914,0.415956 0.162765,0.0741486 -0.0614891,0.0813826 -0.101276,0.0777656z"/>
   <polygon id="_113885360" class="fil2" points="3.45575,5.75092 3.56426,5.58634 3.48468,5.55379 3.43404,5.74549 "/>
   <path id="_113885288" class="fil2" d="M4.29458 5.91606c-0.389079,-0.208821 -0.812752,-0.405716 -1.19469,-0.563539 -0.0313431,0.0377726 -0.0314461,0.219035 -0.0216892,0.264891 0.00054062,0.000263874 0.00198227,0.000888162 0.00410614,0.00177632 0.0105485,-0.0449809 0.036878,-0.152307 0.0497177,-0.159438 0.013715,-0.00762017 0.738841,0.268579 1.16255,0.456309z"/>
   <path id="_113885216" class="fil9" d="M4.79793 6.50107c0.0100916,-0.00238774 0.020093,-0.00473043 0.0299787,-0.00701519l0.0422392 -0.0844783c0,0 -1.16796,-0.558274 -1.59905,-0.669146 0.00958957,0.068279 0.0188702,0.137633 0.0283826,0.207392 0.20001,0.0596549 0.897783,0.27533 1.49844,0.553247z"/>
   <path id="_113885144" class="fil10" d="M3.18777 5.66521c0.00228476,0.000740135 0.771027,0.250938 1.68684,0.748823l-0.0306738 0.0563146c-0.910379,-0.494925 -1.65362,-0.730655 -1.65588,-0.731388l-0.000289618 -0.0737496z"/>
   <polygon id="_113885072" class="fil1" points="3.47012,5.49788 3.40156,5.75769 3.44365,5.77267 3.51984,5.51797 "/>
   <polygon id="_113885000" class="fil1" points="3.99627,5.72644 3.9132,5.97656 3.95348,5.9938 4.04372,5.74916 "/>
   <polygon id="_113884928" class="fil1" points="3.2749,5.97879 4.04894,6.19581 3.27309,5.87751 "/>
   <path id="_113884856" class="fil1" d="M4.88924 6.26617c0.00218822,0.0137408 0.00641665,0.0288781 0.0135606,0.0453027 0.0245467,0.0564433 0.0815178,0.171544 0.122862,0.246465 0.0644175,0.116735 0.11176,0.127516 0.258481,0.164735 0.250635,0.0635872 0.237339,0.296035 0.267401,0.506896 0,0 0.0309119,0.145607 0.206395,0.180837 0.202559,0.0406559 1.08151,0.330435 1.08151,0.330435 0,0 0.313521,0.0454057 0.592822,-0.11819 0,0 0.0101302,-0.0550982 -0.0580909,-0.116825l-0.0320382 -0.00320511 -0.0714906 -0.116961 -0.0214446 -0.00225258c0,0 -0.0914871,-0.209111 -0.107152,-0.314976 -0.0085212,-0.0575825 0.00611416,-0.331767 0.00711817,-0.590698 0.00084311,-0.217008 -0.00841823,-0.423331 -0.0436744,-0.482388 -0.00761373,-0.0127625 -0.0155557,-0.0255186 -0.0237165,-0.0382424 -0.339928,0.149121 -1.22324,0.47229 -2.19254,0.309067z"/>
   <path id="_113884784" class="fil2" d="M5.24014 6.30546l0.0855403 0.149044c0,0 0.317235,0.0362409 0.396152,0.34581 0.0175766,0.0839699 0.025068,0.243195 0.0704029,0.316996 0.0163023,0.0265226 0.0436165,0.0509534 0.0892538,0.0612059 0.102267,0.0229635 0.460357,0.121125 0.797936,0.224441 0.0893697,0.0273528 0.175277,0.0628149 0.269152,0.0688004 0.0746506,0.00477548 0.149739,-0.00223971 0.22224,-0.021657l0.0819683 0.134788 0.00193079 -0.000102975c-0.0762596,0.0292836 -0.157082,0.0466285 -0.238574,0.0533669 -0.0493252,0.00408683 -0.111265,0.00555423 -0.161716,-0.00127432 -0.181558,-0.0591142 -0.363612,-0.117134 -0.545891,-0.173977 -0.102525,-0.0319674 -0.205204,-0.0635937 -0.308231,-0.0939006 -0.0709886,-0.0208911 -0.144989,-0.0433204 -0.217259,-0.0590241 -0.150035,-0.0326239 -0.139737,-0.15911 -0.156999,-0.285003 -0.0474072,-0.345817 -0.169903,-0.356088 -0.346209,-0.411174 -0.130882,-0.0408876 -0.133108,-0.0918539 -0.194289,-0.206382 -0.0155557,-0.0290969 -0.0318194,-0.0591915 -0.0468216,-0.0894469 -0.00581167,-0.0117263 -0.0103876,-0.022262 -0.0137858,-0.0319223 0.0724045,0.00894598 0.144198,0.0153304 0.215199,0.0194108z"/>
   <path id="_113884712" class="fil3" d="M5.24128 6.30552l0.075925 0.12805c0,0 0.284926,0.0578721 0.363857,0.367441 0.0175702,0.0839699 0.0308733,0.257805 0.0762017,0.331587 0.0162765,0.0265033 0.0639219,0.0638318 0.109546,0.0740907 0.102248,0.0229892 0.454552,0.124812 0.792131,0.228103 0.100562,0.0307639 0.199875,0.0673008 0.300012,0.0773473 0.069534,0.00697657 0.138914,-0.00195009 0.211775,-0.0214575l0.0820584 0.0942031 0.00193079 -9.65393e-005c-0.0762661,0.0292836 -0.157082,0.0466221 -0.238581,0.0533669 -0.0493187,0.00408039 -0.111258,0.00555423 -0.16171,-0.00128719 -0.181558,-0.0591078 -0.363619,-0.117121 -0.545891,-0.17397 -0.102525,-0.0319609 -0.205204,-0.0635872 -0.308224,-0.0939006 -0.070995,-0.0208911 -0.144989,-0.0433204 -0.217271,-0.0590241 -0.150022,-0.0326239 -0.139725,-0.15911 -0.156986,-0.285003 -0.0474137,-0.345817 -0.169909,-0.356088 -0.346216,-0.411174 -0.130882,-0.0408876 -0.133108,-0.0918539 -0.194289,-0.206375 -0.0155557,-0.0291034 -0.0318194,-0.0591979 -0.0468216,-0.0894533 -0.00581167,-0.0117263 -0.0103876,-0.0222555 -0.0137858,-0.0319223 0.0727971,0.00899746 0.144963,0.0154012 0.216338,0.0194752z"/>
   <path id="_113884640" class="fil4" d="M6.97071 6.0037c0.0129041,0.0215283 0.0223328,0.039742 0.0284855,0.0547893 0.0143136,0.035018 0.0496727,0.206485 0.0543838,0.401739 -0.0186514,0.279925 -0.0207946,0.594843 -0.0207946,0.594843 0,0 0.0339432,0.205597 0.113904,0.344066 -0.00441506,0.00227833 -0.00848259,0.00402247 -0.0121511,0.00509084 -0.174434,0.0507797 -0.340198,-0.0228348 -0.504212,-0.0723466 -0.14979,-0.0452319 -0.300186,-0.0887969 -0.450967,-0.130618 -0.0941387,-0.0261171 -0.1908,-0.053766 -0.286091,-0.0751719 -0.0302168,-0.00678993 -0.0509921,-0.0225645 -0.0624931,-0.0514619 -0.0325788,-0.0818782 -0.0385964,-0.200544 -0.0565785,-0.286464l-0.000296054 -0.00112629c-0.036479,-0.143116 -0.124735,-0.253667 -0.254349,-0.323085 -0.0450195,-0.0241026 -0.105678,-0.0477097 -0.160043,-0.0584578l-0.0556517 -0.0969705c0.710568,0.0274236 1.33316,-0.17083 1.66685,-0.304826z"/>
   <path id="_113884568" class="fil6" d="M7.03302 7.03008c-0.000193079,0.0160706 -0.00023813,0.0249844 -0.00023813,0.0249844 0,0 0.0339432,0.205597 0.113904,0.344066 -0.00441506,0.00227833 -0.00848259,0.00402247 -0.0121511,0.00509084 -0.174434,0.0507797 -0.340198,-0.0228348 -0.504212,-0.0723466 -0.14979,-0.0452319 -0.300186,-0.0887969 -0.450967,-0.130618 -0.0941387,-0.0261171 -0.1908,-0.053766 -0.286091,-0.0751719 -0.0302168,-0.00678993 -0.0509921,-0.0225645 -0.0624931,-0.0514619 -0.0124986,-0.0314139 -0.0210713,-0.0682597 -0.0279256,-0.106573 0.626373,0.0553814 1.05331,0.0621778 1.23017,0.0620297z"/>
   <path id="_113884496" class="fil7" d="M7.03302 7.03008c-0.000193079,0.0160706 -0.00023813,0.0249844 -0.00023813,0.0249844 0,0 0.0339432,0.205597 0.113904,0.344066 -0.00315362,0.0016283 -0.00614634,0.00296054 -0.00892667,0.00399673 -0.0207109,-0.0303584 -0.111368,-0.165526 -0.171917,-0.293003 -0.026928,-0.0251324 -0.992611,-0.105479 -1.16264,-0.142042 0.626173,0.0553492 1.05299,0.0621456 1.22981,0.0619975z"/>
   <path id="_113884424" class="fil6" d="M6.9707 6.0037c0.0107674,0.0179756 0.0191277,0.0336407 0.0251646,0.047079 -0.0865314,0.0285113 -0.245725,0.0724946 -0.490658,0.109701 0.186578,-0.0515456 0.34489,-0.108356 0.465493,-0.15678z"/>
   <path id="_113884352" class="fil7" d="M6.9707 6.0037c0.0107674,0.0179756 0.0191277,0.0336407 0.0251646,0.047079 -0.0865314,0.0285113 -0.245712,0.0724946 -0.490645,0.109694 0.186578,-0.051552 0.344883,-0.108349 0.46548,-0.156773z"/>
   <polygon id="_113884280" class="fil1" points="5.52131,6.50899 5.35835,6.67442 5.3357,6.64713 5.48466,6.46264 "/>
   <polygon id="_113884208" class="fil1" points="6.25624,7.24651 6.18337,7.46418 6.14946,7.4555 6.21511,7.23798 "/>
   <polygon id="_113884136" class="fil1" points="5.80734,7.03586 5.60754,7.14885 5.58816,7.11972 5.78249,7.002 "/>
   <polygon id="_113884064" class="fil1" points="6.77165,7.40046 6.73194,7.62675 6.69389,7.62333 6.72584,7.39827 "/>
   <g>
    <path id="_113883992" class="fil1" d="M5.1558 6.29965c0.0171068,0.140722 0.134248,0.252283 0.28044,0.257902 0.15427,0.00593395 0.285364,-0.108259 0.303127,-0.259021 -0.185832,0.0153304 -0.381761,0.0178726 -0.583567,0.00111986z"/>
    <path id="_113883920" class="fil6" d="M5.22544 6.30462c0.0185935,0.101778 0.105749,0.180722 0.213416,0.18486 0.113974,0.00438288 0.211466,-0.0765879 0.230909,-0.1858 -0.143181,0.00915836 -0.291928,0.0103683 -0.444325,0.000939649z"/>
    <path id="_113883848" class="fil4" d="M5.24039 6.30547c0.0187351,0.0935402 0.0994934,0.165674 0.199013,0.16951 0.078937,0.00303777 0.149443,-0.0377211 0.188129,-0.100555 -0.0389826,0.033364 -0.0901291,0.0527362 -0.145414,0.0506059 -0.079735,-0.00306995 -0.147428,-0.0499881 -0.180837,-0.116613 -0.0202282,-0.000791622 -0.0405208,-0.00177632 -0.0608906,-0.00294767z"/>
    <path id="_113883776" class="fil7" d="M5.64314 6.30523c-0.00254864,0.0503742 -0.0214768,0.096121 -0.0513975,0.132297 0.0400059,-0.0332481 0.0684528,-0.0801276 0.0780295,-0.133849 -0.008843,0.000566364 -0.0177439,0.00104906 -0.026632,0.00155106z"/>
    <path id="_113883704" class="fil1" d="M5.31668 6.30903c0.0181043,0.0523694 0.0668438,0.0908885 0.125533,0.0931476 0.0626926,0.00240705 0.117237,-0.0373092 0.136397,-0.0938491 -0.0856626,0.00335957 -0.173076,0.00379721 -0.26193,0.000701519z"/>
   </g>
   <path id="_113883608" class="fil1" d="M7.1498 6.48566c0,0 0.0479736,-0.37073 0.0926777,-0.737174 0.0283375,-0.0208074 0.195872,-0.0680345 0.19844,-0.0855918 0.023015,-0.157411 -0.016978,-0.331291 -0.0255314,-0.381324 -0.00534184,-0.0199515 -0.0367622,-0.0266255 -0.0813762,-0.01553 -0.312369,0.077727 -1.71465,0.849707 -1.71465,0.849707l-0.0724753 0.507655c0,0 1.33455,-0.086969 1.60292,-0.137742z"/>
   <path id="_113883536" class="fil4" d="M7.06033 6.39431c-0.331941,0.100311 -0.594393,0.184416 -0.901761,0.210327 -0.0716901,0.0173127 -0.372526,-0.0697078 -0.593524,-0.118898 0.000688647,-0.000553492 0.00133868,-0.00102975 0.00202089,-0.00159612 0.337405,-0.27802 1.18542,-0.620329 1.59612,-0.77689 -0.0320253,0.22419 -0.0596291,0.461349 -0.102859,0.687057z"/>
   <circle id="_113883464" class="fil5" cx="6.1052" cy="6.30505" r="0.132021"/>
   <path id="_113883392" class="fil3" d="M5.56504 6.48574c-0.0307639,-0.00684786 -0.059996,-0.0129556 -0.0868339,-0.0179499l0.229924 -0.290796c0.10201,-0.0562567 0.179505,-0.124613 0.283034,-0.182311 0.426556,-0.237751 0.908956,-0.464657 1.33853,-0.642167 0.0313431,0.0377726 0.0314461,0.219035 0.0216892,0.264891 -0.00772958,0.00381008 -0.189449,0.0753328 -0.188091,0.0890929l-0.000109411 0.000753007c-0.410704,0.156561 -1.25872,0.49887 -1.59612,0.77689 -0.000682211,0.000566364 -0.00133224,0.00104262 -0.00202089,0.00159612z"/>
   <path id="_113883320" class="fil8" d="M5.94299 6.19762c0,0 0.692657,-0.339999 1.07787,-0.493721 0.385211,-0.153723 -1.01638,0.341807 -1.17914,0.415956 -0.162765,0.0741486 0.0614891,0.0813826 0.101276,0.0777656z"/>
   <polygon id="_113883248" class="fil2" points="6.97384,5.75092 6.86533,5.58634 6.9449,5.55379 6.99554,5.74549 "/>
   <path id="_113883176" class="fil2" d="M6.13501 5.91606c0.389079,-0.208821 0.812752,-0.405716 1.19469,-0.563539 0.0313431,0.0377726 0.0314461,0.219035 0.0216892,0.264891 -0.00054062,0.000263874 -0.00198227,0.000888162 -0.00410614,0.00177632 -0.0105485,-0.0449809 -0.036878,-0.152307 -0.0497177,-0.159438 -0.013715,-0.00762017 -0.738841,0.268579 -1.16255,0.456309z"/>
   <path id="_113883104" class="fil9" d="M5.63166 6.50107c-0.0100916,-0.00238774 -0.020093,-0.00473043 -0.0299787,-0.00701519l-0.0422392 -0.0844783c0,0 1.16796,-0.558274 1.59905,-0.669146 -0.00958957,0.068279 -0.0188702,0.137633 -0.0283826,0.207392 -0.20001,0.0596549 -0.897783,0.27533 -1.49844,0.553247z"/>
   <path id="_113883032" class="fil10" d="M7.24182 5.66521c-0.00228476,0.000740135 -0.771027,0.250938 -1.68684,0.748823l0.0306738 0.0563146c0.910379,-0.494925 1.65362,-0.730655 1.65588,-0.731388l0.000289618 -0.0737496z"/>
   <polygon id="_113882960" class="fil1" points="6.95947,5.49788 7.02802,5.75769 6.98593,5.77267 6.90974,5.51797 "/>
   <polygon id="_113882888" class="fil1" points="6.43332,5.72644 6.51639,5.97656 6.47611,5.9938 6.38587,5.74916 "/>
   <polygon id="_113882816" class="fil1" points="7.15469,5.97879 6.38065,6.19581 7.1565,5.87751 "/>
   <rect id="_113882744" class="fil1" transform="matrix(0.95766 -0.902801 0.95766 0.902801 4.52069 6.56495)" width="0.703572" height="0.703572" rx="0.0351789" ry="0.0351789"/>
   <rect id="_113882672" class="fil1" transform="matrix(0.95766 -0.902801 0.95766 0.902801 4.52069 6.2932)" width="0.703572" height="0.703572" rx="0.0351789" ry="0.0351789"/>
   <rect id="_113882600" class="fil2" transform="matrix(0.827809 -0.780388 0.827809 0.780388 4.61205 6.2932)" width="0.703572" height="0.703572" rx="0.0351789" ry="0.0351789"/>
   <rect id="_113882528" class="fil3" transform="matrix(0.827809 -0.780388 0.827809 0.780388 4.61385 6.34383)" width="0.703572" height="0.703572" rx="0.0351789" ry="0.0351789"/>
   <rect id="_113882456" class="fil8" transform="matrix(0.827809 -0.780388 0.827809 0.780388 4.61205 6.56495)" width="0.703572" height="0.703572" rx="0.0351789" ry="0.0351789"/>
   <path id="_113882384" class="fil3" d="M4.83925 6.7461l0.347233 0.318297 0.361701 -0.334573c0,0 -0.316488,0.258616 -0.708933,0.0162765z"/>
   <path id="_113882312" class="fil1" d="M5.75325 6.51962c0.00169909,0.0215669 -0.00557354,0.0425159 -0.0192564,0.0594553 -0.0199901,0.024772 -0.05542,0.0411386 -0.0954259,0.0519253 -0.0045116,0.0211099 -0.0179692,0.03859 -0.0365562,0.0497242 -0.0205178,0.0122862 -0.0428635,0.0208074 -0.0662581,0.0256795 -0.0257052,0.00535471 -0.0521312,0.00619782 -0.0782162,0.00362344 0.0203891,0.0434298 -0.00875933,0.0888677 -0.0411965,0.121086 -0.0277647,0.0275652 -0.0607168,0.0528134 -0.0922594,0.0759378 -0.0171196,0.0125565 -0.034471,0.0247913 -0.0519639,0.0368072l-0.000817366 0.000553492 -0.000830238 0.000534184c-0.0562438,0.0362666 -0.0929416,0.0353398 -0.14999,0.00125501l-0.00185355 -0.00110055 -0.00177632 -0.0012164c-0.0174994,-0.0120224 -0.0348571,-0.0242635 -0.0519832,-0.0368265 -0.0315426,-0.0231244 -0.0644883,-0.0483791 -0.092253,-0.0759443 -0.0324308,-0.0322248 -0.0615728,-0.0776627 -0.0411837,-0.121092 -0.0500846,0.00492994 -0.10033,-0.00285756 -0.144481,-0.0292965 -0.0185806,-0.0111342 -0.0320382,-0.0286143 -0.0365498,-0.0497242 -0.0400059,-0.0107867 -0.0754294,-0.0271533 -0.0954259,-0.0519253 -0.0136828,-0.0169394 -0.0209555,-0.0378885 -0.0192499,-0.0594553 -0.0477741,-0.0179113 -0.0882112,-0.0449551 -0.108774,-0.0850318l-0.008592 -0.0167399 0.0012357 -0.0187801c0.000392593,-0.00607554 0.00137729,-0.011707 0.002864,-0.0169201 -0.00731124,-0.00501361 -0.014423,-0.010246 -0.0213094,-0.015678 -0.0226867,-0.0178984 -0.0449744,-0.0396519 -0.0606589,-0.0640506 -0.0205371,-0.0319481 -0.0297019,-0.0709113 -0.00994999,-0.105949 0.00350116,-0.00619139 0.00757512,-0.0116813 0.0121318,-0.0165147 -0.0278548,-0.0220367 -0.0539977,-0.0458755 -0.0776691,-0.0715614 -0.0212966,-0.0231051 -0.0420461,-0.0492222 -0.0575567,-0.0766458 -0.00502004,-0.00888805 -0.00969898,-0.018291 -0.0130972,-0.0279256 -0.011855,-0.0336858 -0.00287044,-0.071452 0.0315362,-0.0896528 0.00375216,-0.00197584 0.00743996,-0.0035269 0.0110441,-0.00471112 -0.0445175,-0.0512559 -0.071748,-0.10815 -0.0629115,-0.168345l0.0112758 -0.0767938 0.729001 0.207309 -0.0399029 0.0743996c-0.0186964,0.0353141 -0.035269,0.0874968 -0.0372964,0.126994 -0.000727263,0.0141205 9.01034e-005,0.0294059 0.00460171,0.0429085 0.0111535,0.0334026 0.0476132,0.0458369 0.0824317,0.0504708 -0.000154463,-0.00196297 -0.000514876,-0.00395811 -0.00109411,-0.00595326l-0.00207881 -0.00715678 -0.000476261 -0.00742709c-0.0037586,-0.0582261 0.0070345,-0.118653 0.0429793,-0.16599 0.0314075,-0.0413639 0.0786795,-0.0670433 0.131017,-0.0670498 0.0523372,0 0.0996221,0.0256795 0.13103,0.0670433 0.0359448,0.0473429 0.0467443,0.10777 0.0429857,0.165996l-0.000476261 0.00742709 -0.00207881 0.00715678c-0.000579236,0.00200158 -0.000946085,0.00400316 -0.00108768,0.00597257 0.0337501,-0.00444081 0.0696756,-0.0162379 0.0801856,-0.0477483 0.0154141,-0.0462616 -0.0130779,-0.12711 -0.0355651,-0.167676l-0.0419817 -0.074818 0.736151 -0.212129 0.0113144 0.0770641c0.00883657,0.0601955 -0.018394,0.117089 -0.0629115,0.168345 0.00360413,0.00118422 0.00729194,0.00273528 0.0110441,0.00471112 0.0344066,0.0182009 0.0433912,0.0559671 0.0315362,0.0896528 -0.00339175,0.00963462 -0.00807712,0.0190376 -0.0130972,0.0279256 -0.0155042,0.0274236 -0.0362602,0.0535407 -0.0575567,0.0766458 -0.0236714,0.0256859 -0.0498143,0.0495247 -0.0776691,0.0715614 0.00455666,0.0048334 0.00863061,0.0103233 0.0121318,0.0165147 0.0197519,0.0350373 0.0105871,0.0740006 -0.00994999,0.105949 -0.0156844,0.0243987 -0.0379721,0.0461522 -0.0606589,0.0640506 -0.00688647,0.00543195 -0.0139982,0.0106644 -0.0213094,0.015678 0.00148671,0.00521312 0.00247141,0.0108446 0.002864,0.0169201l0.0012357 0.0187801 -0.008592 0.0167399c-0.0205629,0.0400767 -0.061,0.0671206 -0.108768,0.0850318z"/>
   <path id="_113882240" class="fil6" d="M4.92011 6.58321c-0.0984508,0.0134254 -0.114348,0.0299014 -0.0989206,0.039137 0.10452,0.0626025 0.260708,-0.0309248 0.283639,-0.0669597l0.0115011 0.0373157c0,0 -0.0907856,0.106039 -0.121382,0.142363 -0.0194301,0.0230793 0.0826505,0.0998152 0.159695,0.152719 0.0356552,0.0212966 0.0451289,0.0213159 0.078229,-2.57438e-005 0.0770448,-0.0529035 0.179125,-0.129614 0.159695,-0.152693 -0.0305901,-0.0363245 -0.121382,-0.142363 -0.121382,-0.142363l0.0115011 -0.0373157c0.0229313,0.0360349 0.179119,0.129562 0.283639,0.0669597 0.015427,-0.00923559 -0.000469825,-0.0257116 -0.0989206,-0.039137 0,0 0.177491,-0.00299272 0.212927,-0.0468795 0.0354299,-0.0438868 -0.154855,-0.0526075 -0.154855,-0.0526075 0,0 0.231257,0.00560572 0.275279,-0.0801984 -0.00169909,-0.0257889 -0.185336,-0.0193143 -0.185336,-0.0193143 0.194861,-0.0112758 0.35502,-0.16655 0.25581,-0.164484 -0.0381974,0.000785186 -0.106232,0.0146032 -0.159097,0.0202153 0.261943,-0.116973 0.328292,-0.268225 0.317859,-0.265663 -0.0529164,0.0129813 -0.281174,0.0715936 -0.311153,0.0845813 -0.0299787,0.0129878 0.350032,-0.158279 0.328066,-0.307864l-0.578785 0.166781c0,0 0.175901,0.31356 -0.141488,0.319301 0,0 -0.0439704,-0.036331 -0.0267671,-0.0955997 0.0138116,-0.214144 -0.226024,-0.214156 -0.212213,0 0.0172033,0.0592687 -0.0267671,0.0955997 -0.0267671,0.0955997 -0.317389,-0.00574087 -0.147222,-0.32313 -0.147222,-0.32313l-0.573051 -0.162952c-0.0219659,0.149584 0.358045,0.320852 0.328066,0.307864 -0.0299787,-0.0129878 -0.258236,-0.0716 -0.311153,-0.0845813 -0.0104327,-0.00256151 0.055922,0.14869 0.317859,0.265663 -0.0528649,-0.00561215 -0.120893,-0.0194301 -0.159097,-0.0202153 -0.0992102,-0.00206594 0.0375152,0.148703 0.25581,0.164484 0,0 -0.183637,-0.00647457 -0.185336,0.0193143 0.0440219,0.0858041 0.275279,0.0801984 0.275279,0.0801984 0,0 -0.190285,0.00872072 -0.154849,0.0526075 0.0354364,0.0438868 0.212921,0.0468795 0.212921,0.0468795z"/>
   <path id="_113882168" class="fil4" d="M4.92739 6.57315c-0.0942159,0.0128462 -0.100092,0.0326045 -0.0851412,0.0410871 0.0864091,0.0489969 0.246323,-0.0486751 0.268263,-0.083159l0.0182652 0.0606975c0,0 -0.0926906,0.115538 -0.116619,0.143959 -0.0239224,0.0284276 0.0659428,0.0782548 0.139673,0.128886 0.0341234,0.0203762 0.0431853,0.0203955 0.074863,-2.57438e-005 0.0737303,-0.0506252 0.16541,-0.110435 0.141488,-0.138856 -0.0239289,-0.0284276 -0.111632,-0.127155 -0.111632,-0.127155l0.0223521 -0.0693217c0.0219466,0.0344838 0.165983,0.143039 0.265998,0.0831461 0.0147512,-0.00883657 -0.0193658,-0.0183039 -0.0937654,-0.0392593 0,0 0.177072,-0.0127818 0.192062,-0.0403599 0.0149829,-0.0275845 -0.159908,-0.0521441 -0.159908,-0.0521441 0,0 0.242024,0.00626218 0.284154,-0.0758477 -0.0016283,-0.0246819 -0.197185,-0.0139789 -0.197185,-0.0139789 0.0913712,-0.00528392 0.184648,-0.0544546 0.247398,-0.089286 -0.536166,0.15779 -1.20136,0.0208718 -1.2478,0.0109733 0.0491771,0.0327333 0.12516,0.0636452 0.215888,0.0702034 0,0 -0.166659,-0.00210456 -0.168287,0.0225709 0.0421298,0.0821163 0.254362,0.0726619 0.254362,0.0726619 0,0 -0.168036,0.0101688 -0.134119,0.052157 0.033911,0.0419946 0.189693,0.0430501 0.189693,0.0430501z"/>
   <path id="_113882096" class="fil7" d="M5.29774 6.18292c-0.0019694,-0.0120932 -0.00163473,-0.0259948 0.00285113,-0.0414411 0.0138116,-0.214144 -0.226024,-0.214156 -0.212213,0 0.00227189,0.00781325 0.00345611,0.0152403 0.00383583,0.0222298 0.00450517,-0.0355973 0.0236907,-0.138006 0.0951813,-0.135773 0.0864992,0.0027031 0.109926,0.154978 0.109926,0.154978l0.000418337 6.43595e-006z"/>
   <path id="_113882024" class="fil7" d="M5.73492 6.05098c0.0699781,-0.03552 0.331014,-0.175283 0.312704,-0.299986l-0.560881 0.16162c0.127702,-0.0184648 0.38393,-0.0510049 0.403895,-0.0540749 0.0234269,-0.00360413 0.0243279,0.00720827 0.0243279,0.00720827 -0.0126145,0.0432496 -0.181108,0.185613 -0.181108,0.185613l0.00106193 -0.000379721zm-0.82108 -0.135972l0.00054062 -0.00106193 -0.573051 -0.162952c-0.0175058,0.119213 0.220322,0.252219 0.302438,0.294728 -0.0312401,-0.0267993 -0.16339,-0.141861 -0.174504,-0.179975 0,0 0.000901034,-0.0108124 0.0243279,-0.00720827 0.0208589,0.00321154 0.299607,0.0385835 0.420249,0.0564691z"/>
   <path id="_113881952" class="fil7" d="M5.60457 6.10092l0.371226 -0.0946085c0,0 -0.118936,0.122541 -0.371226,0.0946085z"/>
   <path id="_113881880" class="fil7" d="M5.58074 6.27982l0.295262 -0.0474523c0,0 -0.103555,0.106708 -0.295262,0.0474523z"/>
   <path id="_113881808" class="fil7" d="M4.80979 6.27982l-0.295262 -0.0474523c0,0 0.103555,0.106708 0.295262,0.0474523z"/>
   <path id="_113881736" class="fil7" d="M4.78399 6.10092l-0.371226 -0.0946085c0,0 0.118936,0.122541 0.371226,0.0946085z"/>
   <g>
    <polygon id="_113881664" class="fil1" points="5.05076,6.84607 5.14988,6.70821 5.11113,6.88662 "/>
    <polygon id="_113881592" class="fil1" points="5.33819,6.84607 5.23908,6.70821 5.27782,6.88662 "/>
   </g>
   <circle id="_113881496" class="fil5" cx="3.73413" cy="6.91687" r="0.0489133"/>
   <circle id="_113881424" class="fil5" cx="3.49721" cy="6.62751" r="0.0489133"/>
   <circle id="_113881352" class="fil5" cx="3.92053" cy="6.83706" r="0.0940454"/>
   <circle id="_113881280" class="fil5" cx="4.32821" cy="6.83346" r="0.0380429"/>
   <circle id="_113881208" class="fil5" cx="6.88865" cy="6.86243" r="0.111762"/>
   <circle id="_113881136" class="fil5" cx="6.78279" cy="6.83043" r="0.0590821"/>
   <circle id="_113881064" class="fil5" cx="6.35387" cy="6.90819" r="0.0388828"/>
   <circle id="_113880992" class="fil5" cx="6.8069" cy="6.69931" r="0.0379786"/>
   <circle id="_113880920" class="fil5" cx="6.38733" cy="6.32495" r="0.0542551"/>
  </g>
 </g>
</svg>
