<?xml version="1.0" encoding="UTF-8"?>
<!DOCTYPE svg PUBLIC "-//W3C//DTD SVG 1.1//EN" "http://www.w3.org/Graphics/SVG/1.1/DTD/svg11.dtd">
<!-- Creator: CorelDRAW -->
<svg xmlns="http://www.w3.org/2000/svg" xml:space="preserve" width="161.908mm" height="176.792mm" style="shape-rendering:geometricPrecision; text-rendering:geometricPrecision; image-rendering:optimizeQuality; fill-rule:evenodd; clip-rule:evenodd"
viewBox="0 0 7.90616 8.63294"
 xmlns:xlink="http://www.w3.org/1999/xlink">
 <defs>
  <style type="text/css">
   <![CDATA[
    .fil0 {fill:none}
    .fil12 {fill:#404358}
    .fil1 {fill:#501D33}
    .fil11 {fill:#545A6B}
    .fil6 {fill:#75414C}
    .fil9 {fill:#778790}
    .fil3 {fill:#7F777F}
    .fil13 {fill:#94B1B7}
    .fil5 {fill:#955B58}
    .fil7 {fill:#BB8778}
    .fil2 {fill:#BCB4AB}
    .fil14 {fill:#C8D8D3}
    .fil8 {fill:#C9DCD3}
    .fil4 {fill:#D9D4CA}
    .fil10 {fill:white}
   ]]>
  </style>
 </defs>
 <g id="Layer_x0020_1">
  <metadata id="CorelCorpID_0Corel-Layer"/>
  <rect class="fil0" width="7.90616" height="8.63294"/>
  <g id="_111488232">
   <g>
    <g>
     <path id="_111628200" class="fil1" d="M5.28723 5.13239c0,0 -0.00126961,0.0784666 0.0547298,0.20009 0,0 -0.0967294,-0.0483867 -0.12218,-0.150395 -0.0254556,-0.102008 0.0674503,-0.0496954 0.0674503,-0.0496954z"/>
     <path id="_111628128" class="fil1" d="M5.0375 5.27486c0,0 -0.028073,0.0729878 -0.0173155,0.207083 0,0 -0.0739595,-0.0802782 -0.0628456,-0.184962 0.0111139,-0.104684 0.080161,-0.0221205 0.080161,-0.0221205z"/>
     <path id="_111628056" class="fil1" d="M4.35243 5.28075c0,0 0.0292742,0.168701 -0.076362,0.294251 0,0 0.00636268,-0.124241 -0.0369065,-0.253711l0.0534553 -0.0340011 0.0598131 -0.00653848z"/>
     <path id="_111627984" class="fil1" d="M5.40617 4.85442c0,0 0.14201,0.138163 0.0663174,0.435172 0,0 -0.0928815,-0.0914508 -0.214212,-0.118689 0,0 -0.00372093,0.121858 -0.0912017,0.230312 0,0 -0.0672599,-0.0919781 -0.153242,-0.102472 0,0 -0.0886967,0.098043 -0.086138,0.229682 0,0 -0.146513,-0.0478544 -0.213372,-0.158354 0,0 -0.021471,0.0616883 -0.112927,0.135321 0,0 -0.0379906,-0.061283 -0.106154,-0.0950887 0,0 -0.0103766,0.0808984 -0.0963681,0.131473 0,0 -0.0700335,-0.192731 -0.163428,-0.310512 -0.0933942,-0.11778 0.900913,-0.509781 1.17072,-0.376844z"/>
     <path id="_111627912" class="fil2" d="M5.34938 4.87791c0,0 0.109113,0.0995909 0.0857522,0.305326 0,0 -0.0874222,-0.0540022 -0.176759,-0.0621717 0,0 -0.00243667,-0.0537044 -0.0271647,-0.100704 0,0 0.0182921,0.137738 -0.0710931,0.283137 0,0 -0.080957,-0.0707269 -0.254981,-0.0571323l0.0649062 0.028864c0,0 -0.0788426,0.0524104 -0.0830128,0.170157 0,0 -0.109035,-0.0277897 -0.172247,-0.171558 0,0 -0.023937,0.0840431 -0.111115,0.160669 0,0 -0.084634,-0.0917047 -0.168599,-0.130071 0,0 0.0464139,0.0680314 -0.0138192,0.15582l-0.074482 -0.143597 0.0116999 -0.141068 0.403925 -0.196101c0,0 0.542049,-0.113142 0.586988,-0.101569z"/>
     <path id="_111627840" class="fil3" d="M5.34938 4.87791c0,0 0.0797948,0.0526838 0.056434,0.258419 0,0 -0.0581041,-0.00709515 -0.14744,-0.0152646 0,0 -0.00243667,-0.0537044 -0.0271647,-0.100704 0,0 0.00260269,0.0736567 -0.0867874,0.219056 0,0 -0.0652627,-0.0066459 -0.239287,0.00694866l0.0649062 0.028864c0,0 -0.0821631,0.0333321 -0.100016,0.11654 0,0 -0.0933357,-0.0461014 -0.155244,-0.117942 0,0 -0.023937,0.0840431 -0.111115,0.160669 0,0 -0.084634,-0.0917047 -0.168599,-0.130071 0,0 0.0464139,0.0680314 -0.0138192,0.15582l-0.074482 -0.143597 0.0116999 -0.141068 0.403925 -0.196101c0,0 0.542049,-0.113142 0.586988,-0.101569z"/>
     <path id="_111494712" class="fil1" d="M4.54979 5.23654c0,0 0.0449587,0.0475663 0.0586412,0.131614 0,0 -0.0286687,-0.0547298 -0.114675,-0.101642l0.0149862 -0.0325801 0.0410474 0.00260758z"/>
    </g>
    <g>
     <path id="_111494616" class="fil1" d="M2.6484 5.13239c0,0 0.00126961,0.0784666 -0.0547298,0.20009 0,0 0.0967245,-0.0483867 0.12218,-0.150395 0.0254556,-0.102008 -0.0674503,-0.0496954 -0.0674503,-0.0496954z"/>
     <path id="_111494544" class="fil1" d="M2.89813 5.27486c0,0 0.0280681,0.0729878 0.0173155,0.207083 0,0 0.0739595,-0.0802782 0.0628456,-0.184962 -0.0111139,-0.104684 -0.080161,-0.0221205 -0.080161,-0.0221205z"/>
     <path id="_111494472" class="fil1" d="M3.5832 5.28075c0,0 -0.0292742,0.168701 0.076362,0.294251 0,0 -0.00636757,-0.124241 0.0369065,-0.253711l-0.0534553 -0.0340011 -0.0598131 -0.00653848z"/>
     <path id="_111494400" class="fil1" d="M2.52946 4.85442c0,0 -0.14201,0.138163 -0.0663174,0.435172 0,0 0.0928815,-0.0914508 0.214212,-0.118689 0,0 0.00372093,0.121858 0.0912017,0.230312 0,0 0.0672599,-0.0919781 0.153242,-0.102472 0,0 0.0886967,0.098043 0.086138,0.229682 0,0 0.146513,-0.0478544 0.213372,-0.158354 0,0 0.021471,0.0616883 0.112927,0.135321 0,0 0.0379906,-0.061283 0.106154,-0.0950887 0,0 0.0103766,0.0808984 0.0963681,0.131473 0,0 0.0700286,-0.192731 0.163428,-0.310512 0.0933942,-0.11778 -0.900913,-0.509781 -1.17072,-0.376844z"/>
     <path id="_111494328" class="fil2" d="M2.58625 4.87791c0,0 -0.109113,0.0995909 -0.0857522,0.305326 0,0 0.0874222,-0.0540022 0.176759,-0.0621717 0,0 0.00243667,-0.0537044 0.0271647,-0.100704 0,0 -0.0182921,0.137738 0.0710931,0.283137 0,0 0.080957,-0.0707269 0.254981,-0.0571323l-0.0649062 0.028864c0,0 0.0788426,0.0524104 0.0830128,0.170157 0,0 0.109035,-0.0277897 0.172247,-0.171558 0,0 0.023937,0.0840431 0.111115,0.160669 0,0 0.084634,-0.0917047 0.168599,-0.130071 0,0 -0.0464188,0.0680314 0.0138192,0.15582l0.074482 -0.143597 -0.0116999 -0.141068 -0.403925 -0.196101c0,0 -0.542049,-0.113142 -0.586988,-0.101569z"/>
     <path id="_111494256" class="fil3" d="M2.58625 4.87791c0,0 -0.0797948,0.0526838 -0.056434,0.258419 0,0 0.0581041,-0.00709515 0.14744,-0.0152646 0,0 0.00243667,-0.0537044 0.0271647,-0.100704 0,0 -0.00260269,0.0736567 0.0867874,0.219056 0,0 0.0652627,-0.0066459 0.239287,0.00694866l-0.0649062 0.028864c0,0 0.0821582,0.0333321 0.100016,0.11654 0,0 0.0933357,-0.0461014 0.155244,-0.117942 0,0 0.023937,0.0840431 0.111115,0.160669 0,0 0.084634,-0.0917047 0.168599,-0.130071 0,0 -0.0464188,0.0680314 0.0138192,0.15582l0.074482 -0.143597 -0.0116999 -0.141068 -0.403925 -0.196101c0,0 -0.542049,-0.113142 -0.586988,-0.101569z"/>
     <path id="_111494184" class="fil1" d="M3.38584 5.23654c0,0 -0.0449587,0.0475663 -0.0586412,0.131614 0,0 0.0286687,-0.0547298 0.114675,-0.101642l-0.0149862 -0.0325801 -0.0410474 0.00260758z"/>
    </g>
   </g>
   <g>
    <g>
     <path id="_111494064" class="fil1" d="M5.29198 4.15634c0,0 0.0266569,-0.170059 0.183361,-0.280705 0,0 -0.169927,0.0201233 -0.26025,0.208377l-0.00611365 0.0743013 0.083003 -0.00197277z"/>
     <path id="_111493992" class="fil1" d="M4.40696 4.16622c0,0 -0.0677287,-0.0982774 -0.0452371,-0.214402 0,0 -0.0641298,0.0523273 -0.0530891,0.176627 0.0110407,0.124299 0.086343,0.0555893 0.0983262,0.0377757z"/>
     <path id="_111493920" class="fil1" d="M4.97471 4.16408c0,0 0.0675968,-0.123269 0.00910211,-0.268322 0,0 0.015162,0.116408 -0.0944539,0.230424l0.0389428 0.0345773 0.046409 0.00332051z"/>
     <path id="_111493848" class="fil1" d="M4.69059 4.13658c0,0 -0.0492998,-0.114924 -0.0197082,-0.217181 0,0 -0.0531477,0.0389135 -0.0661026,0.141527 -0.0129549,0.102614 0.0828809,0.0992784 0.0858108,0.0756539z"/>
     <path id="_111493776" class="fil1" d="M5.48274 4.30878c0,0 0.0498663,-0.191276 0.204641,-0.336695 0,0 -0.267389,-0.0566489 -0.436125,0.12532 0,0 0.0303094,-0.112468 -0.116945,-0.248125 0,0 -0.0600817,0.145097 -0.17024,0.275505 0,0 -0.103981,-0.0607849 -0.168472,-0.193776 0,0 -0.0799169,0.0658096 -0.1082,0.203938 0,0 -0.0584312,-0.136248 -0.24687,-0.20948 0,0 0.00158701,0.125877 -0.0542708,0.226952 0,0 -0.0967587,-0.0483623 -0.156953,-0.249917 0,0 -0.157666,0.110793 -0.160825,0.347072l-0.0172129 0.308695 0.338604 0.0822901 0.423849 -0.0228334 0.669019 -0.308944z"/>
     <path id="_111493704" class="fil2" d="M5.40494 4.30277c0,0 0.0814892,-0.209759 0.141879,-0.268512 0,0 -0.157832,-0.0104498 -0.361237,0.19572l-0.00480986 0.00714886c0,0 0.0280583,-0.146059 -0.031833,-0.257598 0,0 -0.0494561,0.116257 -0.138011,0.183605 0,0 0.029616,0.0378196 0.0643251,0.0640224 0,0 -0.195065,-0.0427955 -0.279807,-0.175406 0,0 -0.0895317,0.106129 -0.0909234,0.267404 0,0 -0.0259732,-0.0495293 -0.0261197,-0.116775 0,0 -0.0546566,-0.102233 -0.192272,-0.180069 0,0 -0.0178331,0.145243 -0.112785,0.245039l0.00130379 -0.0671524c0,0 -0.128836,-0.0787498 -0.164624,-0.203635 0,0 -0.0931306,0.0939412 -0.0635487,0.294612 0.0295867,0.200676 0.261876,0.229501 0.261876,0.229501l0.475649 -0.00287615 0.520939 -0.215027z"/>
     <path id="_111493632" class="fil4" d="M4.67709 4.20003c-0.00906792,-0.0156552 -0.065585,-0.106808 -0.190959,-0.177721 0,0 -0.0155918,0.127107 -0.0953475,0.225204 0.102291,-0.0829932 0.127766,-0.163022 0.127766,-0.163022 0.0705364,0.0342013 0.136712,0.0946004 0.15854,0.115539z"/>
     <path id="_111493560" class="fil4" d="M5.06951 4.22577c-0.0328096,-0.00825733 -0.197937,-0.0549056 -0.274059,-0.174029 0,0 -0.0840675,0.099669 -0.0905328,0.252603 0.0156943,-0.0932624 0.0948055,-0.175401 0.0948055,-0.175401 0.121179,0.0945222 0.251333,0.0969736 0.269787,0.0968271z"/>
     <path id="_111493488" class="fil4" d="M5.18308 4.22217c0.00524934,-0.0400073 0.0142245,-0.152573 -0.0341378,-0.242641 0,0 -0.0468241,0.11006 -0.130931,0.178048 0.0736909,-0.0138143 0.121731,-0.0743941 0.121731,-0.0743941 0.0248452,0.0562338 0.0392309,0.146469 0.0392309,0.146469 0.0013575,-0.00229506 0.00272966,-0.00479033 0.00410669,-0.00748092z"/>
     <path id="_111493416" class="fil3" d="M5.40494 4.30277c0,0 0.00145517,-0.00375511 0.00410669,-0.0103473 -0.00589391,-0.0329854 -0.014454,-0.101261 0.00271501,-0.155625 0,0 -0.183092,0.0706243 -0.252403,0.234096 0,0 -0.244556,-0.0366184 -0.343946,-0.190939 0,0 -0.0313886,0.111164 0.0169981,0.202707 0,0 -0.0536165,-0.0104596 -0.0850051,-0.047078 0,0 -0.0261539,0.0523127 -0.064081,0.0614636 0,0 -0.05493,-0.120315 -0.146474,-0.204016 0,0 0.0183116,0.163477 -0.0863137,0.262867 0,0 -0.278151,-0.182916 -0.244018,-0.455408 -0.0166758,0.0196252 -0.0861526,0.113571 -0.0600378,0.290681 0.0295818,0.200676 0.261871,0.229501 0.261871,0.229501l0.475649 -0.00287615 0.520939 -0.215027z"/>
     <path id="_111493344" class="fil1" d="M4.50154 4.4559c0,0 0.0588512,-0.0941609 0.0379271,-0.256324 0,0 -0.00130867,0.121623 -0.117702,0.223632l0.0313886 0.0483867 0.0483867 -0.0156943z"/>
     <path id="_111493272" class="fil1" d="M4.81411 4.18257c0,0 -0.0392357,0.133392 0.0274626,0.247173l0.0601598 -0.013077c0,0 -0.0810839,-0.0993956 -0.0876224,-0.234096z"/>
    </g>
    <g>
     <path id="_111493176" class="fil1" d="M2.61418 4.15634c0,0 -0.0266569,-0.170059 -0.183361,-0.280705 0,0 0.169927,0.0201233 0.26025,0.208377l0.00611365 0.0743013 -0.083003 -0.00197277z"/>
     <path id="_111493104" class="fil1" d="M3.4992 4.16622c0,0 0.0677287,-0.0982774 0.0452371,-0.214402 0,0 0.0641298,0.0523273 0.0530891,0.176627 -0.0110407,0.124299 -0.086343,0.0555893 -0.0983262,0.0377757z"/>
     <path id="_111493032" class="fil1" d="M2.93145 4.16408c0,0 -0.0675968,-0.123269 -0.00910211,-0.268322 0,0 -0.015162,0.116408 0.0944539,0.230424l-0.0389428 0.0345773 -0.046409 0.00332051z"/>
     <path id="_111492960" class="fil1" d="M3.21557 4.13658c0,0 0.0492998,-0.114924 0.0197082,-0.217181 0,0 0.0531477,0.0389135 0.0661026,0.141527 0.0129549,0.102614 -0.0828809,0.0992784 -0.0858108,0.0756539z"/>
     <path id="_111492888" class="fil1" d="M2.42342 4.30878c0,0 -0.0498663,-0.191276 -0.204641,-0.336695 0,0 0.267384,-0.0566489 0.436125,0.12532 0,0 -0.0303094,-0.112468 0.116945,-0.248125 0,0 0.0600817,0.145097 0.170235,0.275505 0,0 0.103986,-0.0607849 0.168477,-0.193776 0,0 0.0799169,0.0658096 0.1082,0.203938 0,0 0.0584312,-0.136248 0.24687,-0.20948 0,0 -0.00158701,0.125877 0.0542708,0.226952 0,0 0.0967587,-0.0483623 0.156953,-0.249917 0,0 0.157666,0.110793 0.160825,0.347072l0.0172129 0.308695 -0.338604 0.0822901 -0.423849 -0.0228334 -0.669019 -0.308944z"/>
     <path id="_111492816" class="fil2" d="M2.50122 4.30277c0,0 -0.0814892,-0.209759 -0.141879,-0.268512 0,0 0.157832,-0.0104498 0.361237,0.19572l0.00480986 0.00714886c0,0 -0.0280583,-0.146059 0.031833,-0.257598 0,0 0.0494561,0.116257 0.138011,0.183605 0,0 -0.029616,0.0378196 -0.0643251,0.0640224 0,0 0.195065,-0.0427955 0.279807,-0.175406 0,0 0.0895317,0.106129 0.0909234,0.267404 0,0 0.0259732,-0.0495293 0.0261197,-0.116775 0,0 0.0546566,-0.102233 0.192272,-0.180069 0,0 0.0178331,0.145243 0.112785,0.245039l-0.00130379 -0.0671524c0,0 0.128836,-0.0787498 0.164624,-0.203635 0,0 0.0931306,0.0939412 0.0635487,0.294612 -0.0295867,0.200676 -0.261876,0.229501 -0.261876,0.229501l-0.475649 -0.00287615 -0.520939 -0.215027z"/>
     <path id="_111492744" class="fil4" d="M3.22907 4.20003c0.00906792,-0.0156552 0.065585,-0.106808 0.190959,-0.177721 0,0 0.0155918,0.127107 0.0953475,0.225204 -0.102291,-0.0829932 -0.127766,-0.163022 -0.127766,-0.163022 -0.0705364,0.0342013 -0.136712,0.0946004 -0.15854,0.115539z"/>
     <path id="_111492672" class="fil4" d="M2.83665 4.22577c0.0328096,-0.00825733 0.197937,-0.0549056 0.274059,-0.174029 0,0 0.0840675,0.099669 0.0905328,0.252603 -0.0156943,-0.0932624 -0.0948055,-0.175401 -0.0948055,-0.175401 -0.121179,0.0945222 -0.251333,0.0969736 -0.269787,0.0968271z"/>
     <path id="_111492600" class="fil4" d="M2.72308 4.22217c-0.00524934,-0.0400073 -0.0142245,-0.152573 0.0341378,-0.242641 0,0 0.0468241,0.11006 0.130931,0.178048 -0.0736909,-0.0138143 -0.121731,-0.0743941 -0.121731,-0.0743941 -0.0248452,0.0562338 -0.0392309,0.146469 -0.0392309,0.146469 -0.0013575,-0.00229506 -0.00272966,-0.00479033 -0.00410669,-0.00748092z"/>
     <path id="_111492528" class="fil3" d="M2.50122 4.30277c0,0 -0.00145517,-0.00375511 -0.00410669,-0.0103473 0.00589391,-0.0329854 0.014454,-0.101261 -0.00271501,-0.155625 0,0 0.183092,0.0706243 0.252403,0.234096 0,0 0.244556,-0.0366184 0.343946,-0.190939 0,0 0.0313886,0.111164 -0.0169981,0.202707 0,0 0.0536165,-0.0104596 0.0850051,-0.047078 0,0 0.0261539,0.0523127 0.064081,0.0614636 0,0 0.0549252,-0.120315 0.146474,-0.204016 0,0 -0.0183116,0.163477 0.0863137,0.262867 0,0 0.278151,-0.182916 0.244018,-0.455408 0.0166758,0.0196252 0.0861526,0.113571 0.0600378,0.290681 -0.0295818,0.200676 -0.261871,0.229501 -0.261871,0.229501l-0.475649 -0.00287615 -0.520939 -0.215027z"/>
     <path id="_111492456" class="fil1" d="M3.40462 4.4559c0,0 -0.0588512,-0.0941609 -0.0379271,-0.256324 0,0 0.00130867,0.121623 0.117702,0.223632l-0.0313886 0.0483867 -0.0483867 -0.0156943z"/>
     <path id="_111492384" class="fil1" d="M3.09205 4.18257c0,0 0.0392357,0.133392 -0.0274626,0.247173l-0.0601598 -0.013077c0,0 0.0810839,-0.0993956 0.0876224,-0.234096z"/>
    </g>
   </g>
   <g>
    <path id="_111492264" class="fil1" d="M5.49968 4.25626c-0.787581,0.301165 -2.30598,0.301165 -3.09356,0 0.00951717,0.253594 0.0197229,0.444602 0.0824659,0.680192 0.812822,0.4856 2.11581,0.4856 2.92863,0 0.0678458,-0.24083 0.0857034,-0.397778 0.0824659,-0.680192z"/>
    <path id="_111492192" class="fil5" d="M5.43195 4.35431c-0.000922907,0.0976621 -0.00580601,0.195065 -0.019967,0.291961 -0.0120857,0.0826368 -0.0306366,0.163413 -0.0525227,0.243711 -0.785159,0.454353 -2.02712,0.454461 -2.81251,0.0003467 -0.0218372,-0.0868118 -0.0378099,-0.174127 -0.0484648,-0.263351 -0.0107428,-0.0899565 -0.0163291,-0.180626 -0.0203674,-0.271256 0.793626,0.262657 2.16226,0.262184 2.95383,-0.00141122z"/>
    <path id="_111492120" class="fil6" d="M5.37719 4.67671c-0.0113581,0.0615125 -0.0262662,0.122097 -0.0432008,0.182413 -0.774524,0.454539 -1.99389,0.454148 -2.76155,0.000332051 -0.015372,-0.0593395 -0.02778,-0.118943 -0.0374339,-0.179269 0.794076,0.369338 2.02918,0.364524 2.84219,-0.00347677z"/>
    <g>
     <path id="_111492048" class="fil5" d="M2.49758 4.61933c0.0152695,0.0258023 0.0232143,0.0440309 0.00675333,0.0526594 -0.00210462,-0.0149618 -0.00404809,-0.029953 -0.00584996,-0.0450125l-0.000903374 -0.00764694zm0.0384203 0.225331c-0.00593297,-0.026066 -0.0113386,-0.0521955 -0.016251,-0.0784373l0.0326436 -0.00714398c0.033796,0.0230776 0.0340157,0.0520637 0.0971103,0.0548128l0.0105084 0.000459012c0.0411841,0.00177745 0.11215,-0.042527 0.1439,-0.0411255 0.0155332,0.000634804 0.0530793,0.0482304 0.0605749,0.0605407 -0.0609704,0.0114216 -0.149589,0.0567026 -0.202444,0.0544173l-0.0262613 -0.00113776c-0.0429957,-0.00186046 -0.0747896,-0.0190343 -0.0997813,-0.0423853zm-0.0180675 -0.0882963c-0.00443386,-0.0243276 -0.00842824,-0.048748 -0.0120124,-0.0732905 0.0246401,-0.00608435 0.0495244,-0.012491 0.0739107,-0.0127107l0.046575 0.0688127c-0.031081,-0.0013575 -0.0732173,0.0084966 -0.108473,0.0171885zm-0.0241469 -0.171739c-0.00125007,-0.0122224 -0.00241714,-0.0244644 -0.00350607,-0.0367063 0.0615564,-0.00372093 0.119753,-0.0359689 0.161699,-0.0341378l0.042024 0.00181651c0.0481962,0.0021095 0.120325,0.0578794 0.122019,0.100089 -0.0185265,0.00348654 -0.0414478,0.0192931 -0.05347,0.0187658 -0.0133016,-0.000595739 -0.0452957,-0.0440993 -0.0664688,-0.0450222l-0.0473075 -0.00207044c-0.0384691,-0.00164072 -0.0781687,0.0270182 -0.136126,0.0281706l-0.0188634 -0.0309052zm1.33068 0.233622c0.0557846,0.0409448 0.126858,0.0527082 0.189923,0.0864163 -0.00378441,0.0120124 -0.0383373,0.0562729 -0.0445437,0.0559848 -0.0402026,-0.00170909 -0.150458,-0.0691838 -0.192883,-0.0833204l0.0475028 -0.0590807zm0.0669767 -0.113786l0.0157627 0.000683635c0.0301873,0.00131356 0.0577183,0.0136532 0.0790135,0.0251431l-0.0352316 0.0564877 -0.057479 -0.00850148c-0.0732075,-0.012364 -0.132049,0.120701 -0.168374,0.119128 -0.0179503,-0.000795946 -0.0596862,-0.0236196 -0.0669669,-0.0345284 0.0209583,-0.0261002 0.0719623,-0.0577867 0.100958,-0.0935896 0.0275309,-0.0340157 0.0739741,-0.067382 0.132317,-0.0648232zm-0.0519025 0.290564c0.00929743,0.00593785 0.0389867,0.0143612 0.049207,0.0147909 0.0460184,0.00201672 0.081123,-0.0196643 0.100402,-0.0500909 0.0187511,-0.0294891 0.051673,-0.0557846 0.0693303,-0.087305l0.0827149 0.0219398c-0.0180626,0.024606 -0.0789403,0.0975595 -0.101217,0.120832 -0.036843,0.0384203 -0.0820117,0.0713763 -0.154409,0.0682267 -0.0374388,-0.00161142 -0.0694036,-0.0162754 -0.0934724,-0.030368l-0.00405298 -0.00385277 0.0514972 -0.0541732zm-0.262442 0.010484c0.012491,0.00805224 0.0260904,0.0182872 0.0425074,0.0190002l0.0367747 0.00159189c0.059818,0.00257828 0.129202,-0.115554 0.152382,-0.114587 0.0286248,0.00128426 0.0449392,0.0207337 0.0726313,0.0242544 -0.00933161,0.0298504 -0.0721527,0.0687248 -0.0945906,0.0950106 -0.0245376,0.028742 -0.0745748,0.071474 -0.123093,0.0693791l-0.0525617 -0.00229506c-0.0379515,-0.00163096 -0.0684758,-0.0265543 -0.094825,-0.0431764l0.0607751 -0.0491777zm-0.012115 -0.0571177l-0.00592321 0.0155283 0.00523469 0.000263688 0.000688518 -0.015792zm-0.0692229 0.0180577c0.0216419,0.000942439 0.0365647,0.0343917 0.0546908,0.0247134l-0.0434987 -0.0400268c0.0157871,-0.00675822 0.0168076,-0.000830128 0.0308905,-0.0103229 0.00592809,-0.00404809 0.01671,-0.0192248 0.0230336,-0.0189367 0.0140389,0.000610388 0.0152011,0.00824268 0.0210559,0.0173448l-0.0103033 0.0169834 0.0252408 -0.0167832 0.025939 0.0114802c-0.0063871,0.0202502 -0.0870853,0.0798973 -0.11403,0.079326 -0.00331563,0.0106305 -0.0163145,0.0308808 -0.0276433,0.030412 -0.0122859,-0.000537141 -0.0154013,-0.00434596 -0.015079,-0.0164609l0.00540071 0.000131844 -0.00287615 -0.0579869c0.000166026,-0.00553744 0.0162754,-0.020343 0.0271794,-0.0198742zm0.147577 -0.246431c0.0290838,0.00126472 0.0888285,0.0154843 0.0877201,0.0406714 -0.000561557,0.0130965 -0.0139901,0.0192199 -0.0236342,0.0320087l-0.0519758 -0.0479667 0.000244155 -0.00571323 -0.0164805 0.015079 0.00609411 -0.00112311 0.0532161 0.0493291 -0.00553744 0.0010108 -0.0631044 -0.0153867 2.92986e-005 -0.0129158 -0.0359201 -0.00971738c0.00275895,0.00435573 0.00993223,0.013453 0.00981992,0.0162412 -0.000507843,0.0114069 -0.0228822,0.0308954 -0.0275309,0.0292791l-0.0271696 0.000571323 0.0106403 0.0156357c-0.00947811,0.0128328 -0.0720453,0.0706097 -0.0872904,0.0699553 -0.0106598,-0.000468778 -0.060155,-0.0355441 -0.0664981,-0.0450369 0.0761618,-0.0168516 0.128152,-0.136654 0.237377,-0.131922zm-0.0228383 0.162329l-0.00592321 0.0155087 0.00522004 0.00021974 0.000703167 -0.0157285zm-0.0439382 -0.0421363l0.0542122 0.04783 0.00262711 -0.0196252 0.127674 0.0681486 -0.0450759 0.0499835c-0.0390014,-0.00258805 -0.131624,-0.073896 -0.148608,-0.102242l-0.0132381 0.00295428 -0.0187267 -0.0154501 0.0411353 -0.0315986zm-0.180211 -0.130867c0.0413062,0.00177745 0.0985362,0.0276286 0.114763,0.0536116l-0.0505694 0.0439333c-0.00487334,-0.0028322 -0.0428981,-0.0229066 -0.0463748,-0.0230776l-0.0315204 -0.00133309c-0.0363938,-0.00158701 -0.122507,0.0691496 -0.161391,0.0873441l-0.056102 -0.0493877c0.000781297,-0.000952205 0.094156,-0.0544027 0.108048,-0.063788 0.0333272,-0.0224769 0.0669278,-0.0497686 0.123147,-0.0473026zm0.0025441 0.30558c0.0160068,0.000712933 0.0210022,0.00598669 0.0310712,0.0118659 0.00304706,-0.0239419 0.00753951,-0.025441 0.032668,-0.0249185l-0.00113776 0.0262906c-0.000610388,0.0134774 -0.00179698,0.0126765 -0.00600133,0.0207044l0.00886772 0.0258853 -0.0178673 0.00781297 -0.0408862 -0.0418677 -0.0314423 -0.0211536 0.00369163 -0.00552279 0.0210364 0.000903374zm-0.0884086 -0.0248989c0.010235,0.000434596 0.0270231,0.0197522 0.052884,0.0263688l0.0194348 0.0275114 0.00475126 -0.00307147 -0.00347189 0.0302118 0.0147177 -0.015582 0.0231801 0.0342257 -0.063036 -0.0027443c-0.0361008,-0.00158213 -0.094322,-0.0367502 -0.108073,-0.0573716 0.00429225,-0.00538606 0.0546956,-0.0397631 0.0596129,-0.0395483zm0.0232192 -0.178443l0.171924 0.128933 -0.00370139 0.00514679c-0.0657949,-0.00285662 -0.0311493,0.0355051 -0.054139,0.0345235 -0.0162998,-0.000717816 -0.15541,-0.107458 -0.167403,-0.127444l0.0533186 -0.0411597zm-0.239829 -0.0411255l0.152558 0.144755 -0.06057 0.0376634 -0.154404 -0.145717 0.00133797 -0.00575718 0.0610779 -0.0309442zm-0.0392748 0.171597c0.000449246,2.44155e-005 0.0428053,0.0334688 0.0774265,0.0349484 0.0689738,0.00298846 0.132757,-0.0785008 0.171822,-0.0768015 0.00372581,0.000156259 0.0578013,0.0345138 0.066713,0.0397436 -0.00835987,0.0114265 -0.0873538,0.0529573 -0.107062,0.0649062 -0.0378538,0.0229359 -0.0696624,0.048582 -0.129383,0.0459793 -0.0642861,-0.00275895 -0.120408,-0.0356125 -0.144198,-0.074692 0.00824756,-0.0102936 0.0479326,-0.0348068 0.0646816,-0.0340841zm0.0906548 -0.269972l0.0104987 0.000473661c0.047537,0.00206555 0.100987,0.0345187 0.118362,0.0630946 -0.00820361,0.0111579 -0.0430592,0.0402368 -0.0596276,0.0395287 -0.00372581,-0.000166026 -0.022643,-0.0273259 -0.0619178,-0.0290203l-0.0157627 -0.000668985c-0.0224281,-0.00099127 -0.13432,0.0541536 -0.162153,0.0679728l-0.0539925 -0.0615466c0.0721869,0.00150888 0.13324,-0.0837745 0.224593,-0.0798339zm-0.265743 -0.0641835l0.0473173 0.00206555c0.0509552,0.00224134 0.0983848,0.0471806 0.117629,0.0787694l-0.0591149 0.0290984c-0.0229555,-0.0168516 -0.0414185,-0.0386595 -0.0824952,-0.0404223l-0.00526887 -0.000229506c-0.0161435,-0.000712933 -0.135692,0.0429908 -0.157143,0.0530256l-0.052801 -0.067421c0.0353732,-0.00665567 0.0669864,-0.01107 0.0986045,-0.0245376 0.0264908,-0.0112995 0.0596764,-0.0317939 0.0932722,-0.0303485zm-0.015162 0.0870902l0.132488 0.163857 -0.0690373 0.0280046 -0.136854 -0.157509 0.00447292 -0.00401879 0.0689299 -0.0303338zm-0.06976 0.172579c0.0160947,0.000727583 0.0328389,0.0383177 0.0929743,0.0409253l0.0210218 0.000893608c0.0167783,0.000737349 0.123753,-0.0521711 0.14538,-0.0627528l0.0600036 0.0611462c-0.0638759,0.00252945 -0.136961,0.0783006 -0.21909,0.0747603l-0.0157431 -0.000678751c-0.0593444,-0.0025441 -0.138768,-0.051756 -0.148534,-0.0959823 0.0199963,-0.00377952 0.0452664,-0.0191027 0.0639882,-0.0183116zm-0.162266 -0.265109c0.00152841,7.32466e-005 0.110182,0.153857 0.120671,0.17293l-0.0693108 0.022765 -0.115329 -0.177403c0.0122566,-0.00582066 0.046868,-0.0190295 0.0639687,-0.0182921z"/>
     <path id="_111491976" class="fil1" d="M2.4934 4.58084l0.0031496 0.00511749c0.0251529,0.0413648 0.0434792,0.0684514 0.0063285,0.0754781 -0.00155771,-0.0114606 -0.00301776,-0.0229408 -0.00439479,-0.0344649 -0.00183605,-0.0153525 -0.00353537,-0.0307391 -0.00508331,-0.0461307zm0.0353488 0.230688c-0.00398461,-0.0189367 -0.00769089,-0.0379027 -0.0111384,-0.056937l0.0452468 -0.00990294c0.0337911,0.0230776 0.0340108,0.0520637 0.0971054,0.0548128l0.0105084 0.000459012c0.0411841,0.00177745 0.112155,-0.042527 0.143905,-0.0411255 0.0155283,0.000634804 0.0530793,0.0482304 0.06057,0.0605407 -0.0609656,0.0114216 -0.149589,0.0567026 -0.202439,0.0544173l-0.0262613 -0.00113776c-0.0538704,-0.00232924 -0.0901421,-0.0286687 -0.117497,-0.0611267zm-0.0128426 -0.0664542c-0.00429713,-0.0243716 -0.00817432,-0.0488408 -0.0116267,-0.073437 0.0285759,-0.00676798 0.0576255,-0.0154062 0.086011,-0.015665l0.0465799 0.0688127c-0.0348556,-0.00152353 -0.083589,0.01107 -0.120964,0.0202893zm-0.0256851 -0.197824l-0.0011573 -0.0133846c0.0658389,0.000136727 0.128782,-0.0364231 0.173375,-0.0344747l0.0420289 0.00181651c0.0481962,0.0021095 0.120325,0.0578794 0.122019,0.100089 -0.0185265,0.00348654 -0.0414478,0.0192931 -0.05347,0.0187658 -0.0133016,-0.000595739 -0.0453006,-0.0440993 -0.0664688,-0.0450222l-0.0473075 -0.00207044c-0.038474,-0.00164072 -0.0781736,0.0270182 -0.136126,0.0281706l-0.0328926 -0.0538899zm1.34471 0.256607c0.0557846,0.0409448 0.126853,0.0527082 0.189923,0.0864163 -0.00378441,0.0120124 -0.0383373,0.0562729 -0.0445437,0.0559848 -0.0402026,-0.00170909 -0.150458,-0.0691838 -0.192883,-0.0833204l0.0475028 -0.0590807zm0.0669767 -0.113786l0.0157627 0.000683635c0.0301873,0.00131356 0.0577134,0.0136532 0.0790135,0.0251431l-0.0352316 0.0564877 -0.057479 -0.00850148c-0.0732075,-0.012364 -0.132049,0.120701 -0.168374,0.119128 -0.0179503,-0.000795946 -0.0596862,-0.0236196 -0.0669669,-0.0345284 0.0209583,-0.0261002 0.0719623,-0.0577867 0.100953,-0.0935945 0.0275358,-0.0340108 0.073979,-0.0673771 0.132322,-0.0648183zm-0.0519025 0.290564c0.00929255,0.00593785 0.0389867,0.0143612 0.049207,0.0147909 0.0460135,0.00201672 0.0811181,-0.0196643 0.100402,-0.0500909 0.0187511,-0.0294891 0.0516681,-0.0557846 0.0693254,-0.087305l0.0827198 0.0219398c-0.0180626,0.024606 -0.0789451,0.0975595 -0.101217,0.120832 -0.036843,0.0384203 -0.0820166,0.0713763 -0.154409,0.0682267 -0.0374436,-0.00161142 -0.0694084,-0.0162754 -0.0934724,-0.030368l-0.00405298 -0.00385277 0.0514972 -0.0541732zm-0.262442 0.010484c0.0124861,0.00805224 0.0260855,0.0182872 0.0425074,0.0190002l0.0367747 0.00159189c0.059818,0.00257828 0.129202,-0.115554 0.152377,-0.114587 0.0286296,0.00128426 0.0449392,0.0207337 0.0726362,0.0242544 -0.0093365,0.0298504 -0.0721576,0.0687248 -0.0945955,0.0950106 -0.0245327,0.028742 -0.0745748,0.071474 -0.123093,0.0693791l-0.0525568 -0.00229506c-0.0379564,-0.00163096 -0.0684758,-0.0265543 -0.094825,-0.0431764l0.0607751 -0.0491777zm-0.0121199 -0.0571177l-0.00591832 0.0155283 0.0052298 0.000263688 0.000688518 -0.015792zm-0.069218 0.0180577c0.0216419,0.000942439 0.0365598,0.0343917 0.0546908,0.0247134l-0.0434987 -0.0400268c0.0157871,-0.00675822 0.0168076,-0.000830128 0.0308905,-0.0103229 0.00592809,-0.00404809 0.0167051,-0.0192248 0.0230336,-0.0189367 0.0140389,0.000610388 0.0151962,0.00824268 0.0210511,0.0173448l-0.0103033 0.0169834 0.0252456 -0.0167832 0.0259342 0.0114802c-0.00638222,0.0202502 -0.0870853,0.0798973 -0.114025,0.079326 -0.00331563,0.0106305 -0.0163193,0.0308808 -0.0276481,0.030412 -0.012281,-0.000537141 -0.0154013,-0.00434596 -0.015079,-0.0164609l0.0054056 0.000131844 -0.00287615 -0.0579869c0.000161142,-0.00553744 0.0162754,-0.020343 0.0271794,-0.0198742zm0.147572 -0.246431c0.0290838,0.00126472 0.0888285,0.0154843 0.0877201,0.0406714 -0.000556674,0.0130965 -0.0139901,0.0192199 -0.0236342,0.0320087l-0.0519758 -0.0479667 0.000249038 -0.00571323 -0.0164805 0.015079 0.00609411 -0.00112311 0.0532112 0.0493291 -0.00553256 0.0010108 -0.0631092 -0.0153867 3.41817e-005 -0.0129158 -0.0359201 -0.00971738c0.00275895,0.00435573 0.00993223,0.013453 0.00981992,0.0162412 -0.000507843,0.0114069 -0.0228871,0.0308954 -0.0275358,0.0292791l-0.0271696 0.000571323 0.0106452 0.0156357c-0.00948299,0.0128328 -0.0720502,0.0706097 -0.0872904,0.0699553 -0.0106647,-0.000468778 -0.060155,-0.0355441 -0.0664981,-0.0450369 0.0761569,-0.0168516 0.128147,-0.136654 0.237373,-0.131922zm-0.0228334 0.162329l-0.00592809 0.0155087 0.00522492 0.00021974 0.000703167 -0.0157285zm-0.0439431 -0.0421363l0.0542122 0.04783 0.00263199 -0.0196252 0.127674 0.0681486 -0.0450808 0.0499835c-0.0390014,-0.00258805 -0.131619,-0.073896 -0.148603,-0.102242l-0.013243 0.00295428 -0.0187218 -0.0154501 0.0411304 -0.0315986zm-0.180206 -0.130867c0.0413013,0.00177745 0.0985362,0.0276286 0.114758,0.0536116l-0.0505645 0.0439333c-0.00487334,-0.0028322 -0.042903,-0.0229066 -0.0463797,-0.0230776l-0.0315156 -0.00133309c-0.0363938,-0.00158701 -0.122507,0.0691496 -0.161391,0.0873441l-0.056102 -0.0493877c0.000776414,-0.000952205 0.094156,-0.0544027 0.108048,-0.063788 0.0333272,-0.0224769 0.0669229,-0.0497686 0.123147,-0.0473026zm0.00253921 0.30558c0.0160117,0.000712933 0.0210022,0.00598669 0.0310761,0.0118659 0.00304217,-0.0239419 0.00753951,-0.025441 0.032668,-0.0249185l-0.00114265 0.0262906c-0.000610388,0.0134774 -0.00179698,0.0126765 -0.00599645,0.0207044l0.00886283 0.0258853 -0.0178673 0.00781297 -0.0408862 -0.0418677 -0.0314423 -0.0211536 0.00369163 -0.00552279 0.0210364 0.000903374zm-0.0884086 -0.0248989c0.0102399,0.000434596 0.027028,0.0197522 0.052884,0.0263688l0.0194348 0.0275114 0.00475126 -0.00307147 -0.00347189 0.0302118 0.0147226 -0.015582 0.0231752 0.0342257 -0.0630311 -0.0027443c-0.0361008,-0.00158213 -0.0943269,-0.0367502 -0.108078,-0.0573716 0.00429713,-0.00538606 0.0547005,-0.0397631 0.0596129,-0.0395483zm0.0232192 -0.178443l0.171924 0.128933 -0.00369651 0.00514679c-0.0657949,-0.00285662 -0.0311493,0.0355051 -0.0541439,0.0345235 -0.0162949,-0.000717816 -0.155405,-0.107458 -0.167398,-0.127444l0.0533137 -0.0411597zm-0.239829 -0.0411255l0.152563 0.144755 -0.0605749 0.0376634 -0.154404 -0.145717 0.00134285 -0.00575718 0.061073 -0.0309442zm-0.0392748 0.171597c0.000454129,2.44155e-005 0.0428102,0.0334688 0.0774314,0.0349484 0.0689738,0.00298846 0.132757,-0.0785008 0.171817,-0.0768015 0.00373069,0.000156259 0.0578062,0.0345138 0.0667179,0.0397436 -0.00835987,0.0114265 -0.0873587,0.0529573 -0.107062,0.0649062 -0.0378587,0.0229359 -0.0696624,0.048582 -0.129383,0.0459793 -0.0642861,-0.00275895 -0.120412,-0.0356125 -0.144203,-0.074692 0.00824756,-0.0102936 0.0479374,-0.0348068 0.0646816,-0.0340841zm0.0906597 -0.269972l0.0104987 0.000473661c0.047537,0.00206555 0.100987,0.0345187 0.118362,0.0630897 -0.0082085,0.0111628 -0.0430592,0.0402417 -0.0596276,0.0395336 -0.00373069,-0.000166026 -0.022643,-0.0273259 -0.0619178,-0.0290203l-0.0157627 -0.000668985c-0.0224281,-0.00099127 -0.134324,0.0541536 -0.162153,0.0679728l-0.0539974 -0.0615466c0.0721918,0.00150888 0.13324,-0.0837745 0.224598,-0.0798339zm-0.265743 -0.0641835l0.0473173 0.00206555c0.0509503,0.00224134 0.0983799,0.0471806 0.117624,0.0787694l-0.0591149 0.0290984c-0.0229506,-0.0168516 -0.0414136,-0.0386595 -0.0824903,-0.0404223l-0.00526887 -0.000229506c-0.0161435,-0.000712933 -0.135697,0.0429908 -0.157143,0.0530256l-0.052801 -0.067421c0.0353683,-0.00665567 0.0669864,-0.01107 0.0985996,-0.0245376 0.0264908,-0.0112995 0.0596813,-0.0317939 0.0932771,-0.0303485zm-0.015162 0.0870902l0.132483 0.163857 -0.0690373 0.0280046 -0.136849 -0.157509 0.00447292 -0.00401879 0.0689299 -0.0303338zm-0.06976 0.172579c0.0160947,0.000727583 0.0328389,0.0383177 0.0929743,0.0409253l0.0210218 0.000893608c0.0167783,0.000737349 0.123753,-0.0521711 0.14538,-0.0627528l0.0600036 0.0611462c-0.0638759,0.00252945 -0.136966,0.0783006 -0.219095,0.0747603l-0.0157382 -0.000678751c-0.0593444,-0.0025441 -0.138773,-0.051756 -0.148534,-0.0959823 0.0199914,-0.00377952 0.0452664,-0.0191027 0.0639882,-0.0183116zm-0.16227 -0.265109c0.00153329,7.32466e-005 0.110187,0.153857 0.120671,0.17293l-0.0693059 0.022765 -0.115334 -0.177403c0.0122615,-0.00582066 0.0468729,-0.0190295 0.0639687,-0.0182921z"/>
    </g>
    <g>
     <path id="_111491880" class="fil5" d="M5.41866 4.61933c-0.0152695,0.0258023 -0.0232143,0.0440309 -0.00675333,0.0526594 0.00210462,-0.0149618 0.00405298,-0.029953 0.00585484,-0.0450125l0.000898491 -0.00764694zm-0.0384154 0.225331c0.00593297,-0.026066 0.0113337,-0.0521955 0.0162461,-0.0784373l-0.0326436 -0.00714398c-0.033796,0.0230776 -0.0340108,0.0520637 -0.0971054,0.0548128l-0.0105084 0.000459012c-0.0411841,0.00177745 -0.112155,-0.042527 -0.143905,-0.0411255 -0.0155332,0.000634804 -0.0530793,0.0482304 -0.0605749,0.0605407 0.0609704,0.0114216 0.149594,0.0567026 0.202444,0.0544173l0.0262613 -0.00113776c0.0429957,-0.00186046 0.0747945,-0.0190343 0.0997862,-0.0423853zm0.0180675 -0.0882963c0.00442898,-0.0243276 0.00842824,-0.048748 0.0120076,-0.0732905 -0.0246401,-0.00608435 -0.0495196,-0.012491 -0.0739107,-0.0127107l-0.046575 0.0688127c0.0310858,-0.0013575 0.0732173,0.0084966 0.108478,0.0171885zm0.0241421 -0.171739c0.00125496,-0.0122224 0.00242202,-0.0244644 0.00351095,-0.0367063 -0.0615613,-0.00372093 -0.119753,-0.0359689 -0.161699,-0.0341378l-0.0420289 0.00181651c-0.0481962,0.0021095 -0.120325,0.0578794 -0.122019,0.100089 0.0185265,0.00348654 0.0414478,0.0192931 0.05347,0.0187658 0.0133016,-0.000595739 0.0453006,-0.0440993 0.0664688,-0.0450222l0.0473075 -0.00207044c0.038474,-0.00164072 0.0781687,0.0270182 0.136126,0.0281706l0.0188634 -0.0309052zm-1.33068 0.233622c-0.0557846,0.0409448 -0.126853,0.0527082 -0.189923,0.0864163 0.00378441,0.0120124 0.0383373,0.0562729 0.0445437,0.0559848 0.0402026,-0.00170909 0.150458,-0.0691838 0.192883,-0.0833204l-0.0475028 -0.0590807zm-0.0669767 -0.113786l-0.0157627 0.000683635c-0.0301873,0.00131356 -0.0577134,0.0136532 -0.0790135,0.0251431l0.0352316 0.0564877 0.057479 -0.00850148c0.0732075,-0.012364 0.132049,0.120701 0.168374,0.119128 0.0179503,-0.000795946 0.0596862,-0.0236196 0.0669669,-0.0345284 -0.0209583,-0.0261002 -0.0719623,-0.0577867 -0.100953,-0.0935896 -0.0275358,-0.0340157 -0.073979,-0.067382 -0.132322,-0.0648232zm0.0519025 0.290564c-0.00929255,0.00593785 -0.0389867,0.0143612 -0.049207,0.0147909 -0.0460135,0.00201672 -0.0811181,-0.0196643 -0.100402,-0.0500909 -0.0187511,-0.0294891 -0.0516681,-0.0557846 -0.0693254,-0.087305l-0.0827198 0.0219398c0.0180626,0.024606 0.0789451,0.0975595 0.101217,0.120832 0.036843,0.0384203 0.0820166,0.0713763 0.154409,0.0682267 0.0374436,-0.00161142 0.0694036,-0.0162754 0.0934724,-0.030368l0.00405298 -0.00385277 -0.0514972 -0.0541732zm0.262442 0.010484c-0.0124861,0.00805224 -0.0260855,0.0182872 -0.0425074,0.0190002l-0.0367747 0.00159189c-0.059818,0.00257828 -0.129202,-0.115554 -0.152377,-0.114587 -0.0286296,0.00128426 -0.0449392,0.0207337 -0.0726362,0.0242544 0.0093365,0.0298504 0.0721576,0.0687248 0.0945906,0.0950106 0.0245376,0.028742 0.0745796,0.071474 0.123098,0.0693791l0.0525568 -0.00229506c0.0379564,-0.00163096 0.0684758,-0.0265543 0.094825,-0.0431764l-0.0607751 -0.0491777zm0.0121199 -0.0571177l0.00591832 0.0155283 -0.0052298 0.000263688 -0.000688518 -0.015792zm0.069218 0.0180577c-0.0216419,0.000942439 -0.0365598,0.0343917 -0.0546908,0.0247134l0.0434987 -0.0400268c-0.0157871,-0.00675822 -0.0168076,-0.000830128 -0.0308905,-0.0103229 -0.00592809,-0.00404809 -0.0167051,-0.0192248 -0.0230336,-0.0189367 -0.0140389,0.000610388 -0.0151962,0.00824268 -0.0210511,0.0173448l0.0103033 0.0169834 -0.0252456 -0.0167832 -0.0259342 0.0114802c0.00638222,0.0202502 0.0870853,0.0798973 0.114025,0.079326 0.00331563,0.0106305 0.0163193,0.0308808 0.0276481,0.030412 0.012281,-0.000537141 0.0153964,-0.00434596 0.015079,-0.0164609l-0.0054056 0.000131844 0.00287615 -0.0579869c-0.000161142,-0.00553744 -0.0162754,-0.020343 -0.0271794,-0.0198742zm-0.147577 -0.246431c-0.0290789,0.00126472 -0.0888237,0.0154843 -0.0877152,0.0406714 0.000556674,0.0130965 0.0139901,0.0192199 0.0236293,0.0320087l0.0519806 -0.0479667 -0.000249038 -0.00571323 0.0164805 0.015079 -0.00609411 -0.00112311 -0.0532112 0.0493291 0.00553256 0.0010108 0.0631092 -0.0153867 -3.41817e-005 -0.0129158 0.0359201 -0.00971738c-0.00275895,0.00435573 -0.00993223,0.013453 -0.00981992,0.0162412 0.000507843,0.0114069 0.0228822,0.0308954 0.0275358,0.0292791l0.0271696 0.000571323 -0.0106452 0.0156357c0.00947811,0.0128328 0.0720502,0.0706097 0.0872904,0.0699553 0.0106647,-0.000468778 0.060155,-0.0355441 0.0664981,-0.0450369 -0.0761569,-0.0168516 -0.128147,-0.136654 -0.237377,-0.131922zm0.0228383 0.162329l0.00592809 0.0155087 -0.00522492 0.00021974 -0.000703167 -0.0157285zm0.0439382 -0.0421363l-0.0542073 0.04783 -0.00263199 -0.0196252 -0.127674 0.0681486 0.0450808 0.0499835c0.0390014,-0.00258805 0.131619,-0.073896 0.148603,-0.102242l0.013243 0.00295428 0.0187218 -0.0154501 -0.0411353 -0.0315986zm0.180211 -0.130867c-0.0413062,0.00177745 -0.0985362,0.0276286 -0.114758,0.0536116l0.0505645 0.0439333c0.00487334,-0.0028322 0.042903,-0.0229066 0.0463797,-0.0230776l0.0315156 -0.00133309c0.0363938,-0.00158701 0.122507,0.0691496 0.161391,0.0873441l0.056102 -0.0493877c-0.000776414,-0.000952205 -0.094156,-0.0544027 -0.108048,-0.063788 -0.0333272,-0.0224769 -0.0669278,-0.0497686 -0.123147,-0.0473026zm-0.00253921 0.30558c-0.0160117,0.000712933 -0.0210071,0.00598669 -0.0310761,0.0118659 -0.00304217,-0.0239419 -0.00753951,-0.025441 -0.032668,-0.0249185l0.00114265 0.0262906c0.000610388,0.0134774 0.00179698,0.0126765 0.00599645,0.0207044l-0.00886283 0.0258853 0.0178673 0.00781297 0.0408813 -0.0418677 0.0314472 -0.0211536 -0.00369163 -0.00552279 -0.0210364 0.000903374zm0.0884086 -0.0248989c-0.0102399,0.000434596 -0.027028,0.0197522 -0.052884,0.0263688l-0.0194348 0.0275114 -0.00475614 -0.00307147 0.00347189 0.0302118 -0.0147177 -0.015582 -0.0231801 0.0342257 0.063036 -0.0027443c0.0361008,-0.00158213 0.094322,-0.0367502 0.108078,-0.0573716 -0.00429713,-0.00538606 -0.0547005,-0.0397631 -0.0596129,-0.0395483zm-0.0232192 -0.178443l-0.171924 0.128933 0.00369651 0.00514679c0.0657949,-0.00285662 0.0311493,0.0355051 0.0541439,0.0345235 0.0162949,-0.000717816 0.155405,-0.107458 0.167398,-0.127444l-0.0533137 -0.0411597zm0.239824 -0.0411255l-0.152558 0.144755 0.0605749 0.0376634 0.154399 -0.145717 -0.00133797 -0.00575718 -0.0610779 -0.0309442zm0.0392797 0.171597c-0.000454129,2.44155e-005 -0.0428102,0.0334688 -0.0774314,0.0349484 -0.0689738,0.00298846 -0.132757,-0.0785008 -0.171817,-0.0768015 -0.00373069,0.000156259 -0.0578062,0.0345138 -0.0667179,0.0397436 0.00835987,0.0114265 0.0873587,0.0529573 0.107062,0.0649062 0.0378587,0.0229359 0.0696624,0.048582 0.129383,0.0459793 0.0642861,-0.00275895 0.120412,-0.0356125 0.144203,-0.074692 -0.00824756,-0.0102936 -0.0479374,-0.0348068 -0.0646816,-0.0340841zm-0.0906597 -0.269972l-0.0104987 0.000473661c-0.047537,0.00206555 -0.100987,0.0345187 -0.118362,0.0630946 0.00820361,0.0111579 0.0430592,0.0402368 0.0596276,0.0395287 0.00373069,-0.000166026 0.022643,-0.0273259 0.0619178,-0.0290203l0.0157627 -0.000668985c0.0224281,-0.00099127 0.13432,0.0541536 0.162153,0.0679728l0.0539974 -0.0615466c-0.0721918,0.00150888 -0.13324,-0.0837745 -0.224598,-0.0798339zm0.265743 -0.0641835l-0.0473173 0.00206555c-0.0509552,0.00224134 -0.0983848,0.0471806 -0.117629,0.0787694l0.0591197 0.0290984c0.0229506,-0.0168516 0.0414136,-0.0386595 0.0824903,-0.0404223l0.00526887 -0.000229506c0.0161435,-0.000712933 0.135692,0.0429908 0.157143,0.0530256l0.052801 -0.067421c-0.0353683,-0.00665567 -0.0669864,-0.01107 -0.0985996,-0.0245376 -0.0264908,-0.0112995 -0.0596813,-0.0317939 -0.0932771,-0.0303485zm0.015162 0.0870902l-0.132488 0.163857 0.0690422 0.0280046 0.136849 -0.157509 -0.00447292 -0.00401879 -0.0689299 -0.0303338zm0.06976 0.172579c-0.0160947,0.000727583 -0.0328389,0.0383177 -0.0929743,0.0409253l-0.0210218 0.000893608c-0.0167783,0.000737349 -0.123753,-0.0521711 -0.14538,-0.0627528l-0.0600036 0.0611462c0.0638759,0.00252945 0.136966,0.0783006 0.219095,0.0747603l0.0157382 -0.000678751c0.0593444,-0.0025441 0.138773,-0.051756 0.148534,-0.0959823 -0.0199914,-0.00377952 -0.0452664,-0.0191027 -0.0639882,-0.0183116zm0.16227 -0.265109c-0.00153329,7.32466e-005 -0.110187,0.153857 -0.120671,0.17293l0.0693059 0.022765 0.115334 -0.177403c-0.0122615,-0.00582066 -0.0468729,-0.0190295 -0.0639687,-0.0182921z"/>
     <path id="_111491808" class="fil1" d="M5.42284 4.58084l-0.0031496 0.00511749c-0.025148,0.0413648 -0.0434792,0.0684514 -0.00632362,0.0754781 0.00155283,-0.0114606 0.00301288,-0.0229408 0.00439479,-0.0344649 0.00183116,-0.0153525 0.00353048,-0.0307391 0.00507843,-0.0461307zm-0.0353439 0.230688c0.00397973,-0.0189367 0.00768601,-0.0379027 0.0111335,-0.056937l-0.0452468 -0.00990294c-0.0337911,0.0230776 -0.0340108,0.0520637 -0.0971054,0.0548128l-0.0105084 0.000459012c-0.0411841,0.00177745 -0.112155,-0.042527 -0.143905,-0.0411255 -0.0155283,0.000634804 -0.0530793,0.0482304 -0.06057,0.0605407 0.0609656,0.0114216 0.149589,0.0567026 0.202444,0.0544173l0.0262613 -0.00113776c0.0538655,-0.00232924 0.0901372,-0.0286687 0.117497,-0.0611267zm0.0128377 -0.0664542c0.00430201,-0.0243716 0.0081792,-0.0488408 0.0116267,-0.073437 -0.0285759,-0.00676798 -0.0576206,-0.0154062 -0.086011,-0.015665l-0.0465799 0.0688127c0.0348556,-0.00152353 0.0835939,0.01107 0.120964,0.0202893zm0.0256851 -0.197824l0.00116218 -0.0133846c-0.0658438,0.000136727 -0.128782,-0.0364231 -0.173379,-0.0344747l-0.042024 0.00181651c-0.0482011,0.0021095 -0.120329,0.0578794 -0.122024,0.100089 0.0185314,0.00348654 0.0414527,0.0192931 0.0534749,0.0187658 0.0132967,-0.000595739 0.0452957,-0.0440993 0.0664688,-0.0450222l0.0473075 -0.00207044c0.0384691,-0.00164072 0.0781687,0.0270182 0.136126,0.0281706l0.0328877 -0.0538899zm-1.34471 0.256607c-0.0557846,0.0409448 -0.126858,0.0527082 -0.189923,0.0864163 0.00378441,0.0120124 0.0383324,0.0562729 0.0445437,0.0559848 0.0402026,-0.00170909 0.150453,-0.0691838 0.192883,-0.0833204l-0.0475028 -0.0590807zm-0.0669767 -0.113786l-0.0157675 0.000683635c-0.0301825,0.00131356 -0.0577134,0.0136532 -0.0790086,0.0251431l0.0352316 0.0564877 0.0574741 -0.00850148c0.0732124,-0.012364 0.132054,0.120701 0.168374,0.119128 0.0179503,-0.000795946 0.0596911,-0.0236196 0.0669669,-0.0345284 -0.0209534,-0.0261002 -0.0719574,-0.0577867 -0.100953,-0.0935945 -0.0275358,-0.0340108 -0.0739741,-0.0673771 -0.132317,-0.0648183zm0.0518976 0.290564c-0.00929255,0.00593785 -0.0389867,0.0143612 -0.049207,0.0147909 -0.0460135,0.00201672 -0.0811181,-0.0196643 -0.100402,-0.0500909 -0.0187511,-0.0294891 -0.0516681,-0.0557846 -0.0693254,-0.087305l-0.0827149 0.0219398c0.0180626,0.024606 0.0789403,0.0975595 0.101217,0.120832 0.0368381,0.0384203 0.0820117,0.0713763 0.154404,0.0682267 0.0374436,-0.00161142 0.0694084,-0.0162754 0.0934724,-0.030368l0.00405298 -0.00385277 -0.0514972 -0.0541732zm0.262442 0.010484c-0.0124861,0.00805224 -0.0260855,0.0182872 -0.0425025,0.0190002l-0.0367795 0.00159189c-0.059818,0.00257828 -0.129197,-0.115554 -0.152377,-0.114587 -0.0286248,0.00128426 -0.0449392,0.0207337 -0.0726362,0.0242544 0.0093365,0.0298504 0.0721576,0.0687248 0.0945955,0.0950106 0.0245376,0.028742 0.0745748,0.071474 0.123093,0.0693791l0.0525617 -0.00229506c0.0379515,-0.00163096 0.0684709,-0.0265543 0.094825,-0.0431764l-0.06078 -0.0491777zm0.0121199 -0.0571177l0.00592321 0.0155283 -0.00523469 0.000263688 -0.000688518 -0.015792zm0.0692229 0.0180577c-0.0216419,0.000942439 -0.0365647,0.0343917 -0.0546908,0.0247134l0.0434938 -0.0400268c-0.0157871,-0.00675822 -0.0168028,-0.000830128 -0.0308856,-0.0103229 -0.00593297,-0.00404809 -0.01671,-0.0192248 -0.0230336,-0.0189367 -0.0140438,0.000610388 -0.0152011,0.00824268 -0.0210559,0.0173448l0.0103033 0.0169834 -0.0252408 -0.0167832 -0.025939 0.0114802c0.0063871,0.0202502 0.0870853,0.0798973 0.11403,0.079326 0.00331074,0.0106305 0.0163145,0.0308808 0.0276433,0.030412 0.012281,-0.000537141 0.0154013,-0.00434596 0.015079,-0.0164609l-0.00540071 0.000131844 0.00287615 -0.0579869c-0.000166026,-0.00553744 -0.0162754,-0.020343 -0.0271794,-0.0198742zm-0.147577 -0.246431c-0.0290838,0.00126472 -0.0888285,0.0154843 -0.0877201,0.0406714 0.000556674,0.0130965 0.0139901,0.0192199 0.0236342,0.0320087l0.0519758 -0.0479667 -0.000249038 -0.00571323 0.0164805 0.015079 -0.00608923 -0.00112311 -0.0532161 0.0493291 0.00553256 0.0010108 0.0631092 -0.0153867 -2.92986e-005 -0.0129158 0.0359201 -0.00971738c-0.00276384,0.00435573 -0.00993223,0.013453 -0.00981992,0.0162412 0.00050296,0.0114069 0.0228822,0.0308954 0.0275309,0.0292791l0.0271696 0.000571323 -0.0106452 0.0156357c0.00948299,0.0128328 0.0720502,0.0706097 0.0872953,0.0699553 0.0106598,-0.000468778 0.0601501,-0.0355441 0.0664932,-0.0450369 -0.0761569,-0.0168516 -0.128147,-0.136654 -0.237373,-0.131922zm0.0228383 0.162329l0.00592321 0.0155087 -0.00522004 0.00021974 -0.000703167 -0.0157285zm0.0439382 -0.0421363l-0.0542122 0.04783 -0.00262711 -0.0196252 -0.127674 0.0681486 0.0450759 0.0499835c0.0390014,-0.00258805 0.131624,-0.073896 0.148603,-0.102242l0.013243 0.00295428 0.0187218 -0.0154501 -0.0411304 -0.0315986zm0.180211 -0.130867c-0.0413062,0.00177745 -0.0985362,0.0276286 -0.114763,0.0536116l0.0505694 0.0439333c0.00486845,-0.0028322 0.0428981,-0.0229066 0.0463748,-0.0230776l0.0315156 -0.00133309c0.0363987,-0.00158701 0.122512,0.0691496 0.161396,0.0873441l0.0560971 -0.0493877c-0.000776414,-0.000952205 -0.094156,-0.0544027 -0.108048,-0.063788 -0.0333272,-0.0224769 -0.0669229,-0.0497686 -0.123142,-0.0473026zm-0.0025441 0.30558c-0.0160068,0.000712933 -0.0210022,0.00598669 -0.0310761,0.0118659 -0.00304217,-0.0239419 -0.00753951,-0.025441 -0.0326631,-0.0249185l0.00113776 0.0262906c0.000610388,0.0134774 0.00179698,0.0126765 0.00600133,0.0207044l-0.00886772 0.0258853 0.0178673 0.00781297 0.0408862 -0.0418677 0.0314423 -0.0211536 -0.00369163 -0.00552279 -0.0210364 0.000903374zm0.0884086 -0.0248989c-0.0102399,0.000434596 -0.0270231,0.0197522 -0.052884,0.0263688l-0.0194348 0.0275114 -0.00475126 -0.00307147 0.00347189 0.0302118 -0.0147226 -0.015582 -0.0231752 0.0342257 0.063036 -0.0027443c0.0361008,-0.00158213 0.094322,-0.0367502 0.108073,-0.0573716 -0.00429225,-0.00538606 -0.0546956,-0.0397631 -0.0596129,-0.0395483zm-0.0232192 -0.178443l-0.171924 0.128933 0.00370139 0.00514679c0.0657949,-0.00285662 0.0311493,0.0355051 0.054139,0.0345235 0.0162998,-0.000717816 0.15541,-0.107458 0.167403,-0.127444l-0.0533186 -0.0411597zm0.239829 -0.0411255l-0.152558 0.144755 0.06057 0.0376634 0.154404 -0.145717 -0.00134285 -0.00575718 -0.061073 -0.0309442zm0.0392748 0.171597c-0.000449246,2.44155e-005 -0.0428053,0.0334688 -0.0774314,0.0349484 -0.068969,0.00298846 -0.132752,-0.0785008 -0.171817,-0.0768015 -0.00372581,0.000156259 -0.0578013,0.0345138 -0.066713,0.0397436 0.00835499,0.0114265 0.0873538,0.0529573 0.107062,0.0649062 0.0378538,0.0229359 0.0696575,0.048582 0.129383,0.0459793 0.0642861,-0.00275895 0.120408,-0.0356125 0.144198,-0.074692 -0.00824756,-0.0102936 -0.0479374,-0.0348068 -0.0646816,-0.0340841zm-0.0906548 -0.269972l-0.0104987 0.000473661c-0.047537,0.00206555 -0.100992,0.0345187 -0.118362,0.0630897 0.00820361,0.0111628 0.0430592,0.0402417 0.0596276,0.0395336 0.00372581,-0.000166026 0.0226381,-0.0273259 0.0619178,-0.0290203l0.0157627 -0.000668985c0.0224281,-0.00099127 0.13432,0.0541536 0.162148,0.0679728l0.0539974 -0.0615466c-0.0721869,0.00150888 -0.13324,-0.0837745 -0.224593,-0.0798339zm0.265739 -0.0641835l-0.0473173 0.00206555c-0.0509503,0.00224134 -0.0983799,0.0471806 -0.117624,0.0787694l0.0591149 0.0290984c0.0229555,-0.0168516 0.0414185,-0.0386595 0.0824952,-0.0404223l0.00526887 -0.000229506c0.0161435,-0.000712933 0.135692,0.0429908 0.157143,0.0530256l0.0527961 -0.067421c-0.0353683,-0.00665567 -0.0669815,-0.01107 -0.0985996,-0.0245376 -0.0264908,-0.0112995 -0.0596764,-0.0317939 -0.0932771,-0.0303485zm0.0151669 0.0870902l-0.132488 0.163857 0.0690373 0.0280046 0.136854 -0.157509 -0.00447292 -0.00401879 -0.0689299 -0.0303338zm0.0697551 0.172579c-0.0160898,0.000727583 -0.0328389,0.0383177 -0.0929694,0.0409253l-0.0210266 0.000893608c-0.0167735,0.000737349 -0.123748,-0.0521711 -0.145375,-0.0627528l-0.0600085 0.0611462c0.0638808,0.00252945 0.136966,0.0783006 0.219095,0.0747603l0.0157431 -0.000678751c0.0593395,-0.0025441 0.138768,-0.051756 0.148534,-0.0959823 -0.0199963,-0.00377952 -0.0452664,-0.0191027 -0.0639931,-0.0183116zm0.16227 -0.265109c-0.00153329,7.32466e-005 -0.110182,0.153857 -0.120671,0.17293l0.0693108 0.022765 0.115329 -0.177403c-0.0122566,-0.00582066 -0.046868,-0.0190295 -0.0639687,-0.0182921z"/>
    </g>
    <path id="_111491712" class="fil7" d="M5.43195 4.35431c-0.000244155,0.0255875 -0.000747115,0.0511505 -0.00162607,0.0767038 -0.814277,0.244521 -2.13124,0.24522 -2.9483,0.00204114 -0.00147958,-0.0257681 -0.00276384,-0.0515509 -0.00391625,-0.0773337 0.793631,0.262657 2.16227,0.262184 2.95384,-0.00141122z"/>
    <path id="_111491640" class="fil1" d="M4.5253 4.63133c0,0 0.311703,-0.028698 0.592062,-0.125579 0,0 -0.319482,0.0656289 -0.595622,0.0655117l-0.00279314 0.030202 0.00635292 0.0298651z"/>
    <path id="_111491568" class="fil1" d="M3.44275 4.63769c0,0 -0.312074,-0.0243423 -0.593756,-0.117302 0,0 0.320366,0.0611658 0.596481,0.0571909l0.00321308 0.0301629 -0.00593785 0.0299481z"/>
   </g>
   <g>
    <ellipse id="_111491472" class="fil1" cx="3.9396" cy="4.86448" rx="0.694873" ry="0.695688"/>
    <ellipse id="_111491400" class="fil8" cx="3.9396" cy="4.86448" rx="0.626546" ry="0.627281"/>
    <path id="_111491328" class="fil9" d="M4.54011 4.9361c-0.0446413,0.288977 -0.273635,0.521076 -0.586793,0.533923l0 0.00124031c-0.327163,0 -0.568286,-0.237163 -0.614221,-0.534509 0.120959,0.304227 0.326567,0.435636 0.590792,0.447336 0.273586,-0.00603063 0.486313,-0.136336 0.610222,-0.447991z"/>
    <ellipse id="_111491256" class="fil1" cx="3.9396" cy="4.86448" rx="0.532951" ry="0.53346"/>
    <path id="_111491184" class="fil10" d="M3.93961 4.2372c0.345978,0 0.626541,0.280901 0.626541,0.627284 0,0.00613806 -0.000112311,0.0122468 -0.000292986,0.0183361 -0.00969296,-0.337901 -0.286404,-0.608933 -0.626248,-0.608933 -0.339849,0 -0.61656,0.271032 -0.626258,0.608933 -0.000175792,-0.00608923 -0.000292986,-0.012198 -0.000292986,-0.0183361 0,-0.346383 0.280573,-0.627284 0.626551,-0.627284z"/>
    <path id="_111491112" class="fil11" d="M3.9396 4.37401c0.270534,0 0.489902,0.219622 0.489902,0.490474 0,0.270851 -0.219369,0.490474 -0.489902,0.490474 -0.270529,0 -0.489897,-0.219622 -0.489897,-0.490474 0,-0.270851 0.219369,-0.490474 0.489897,-0.490474z"/>
    <path id="_111491040" class="fil12" d="M3.93961 4.374c0.270534,0 0.489897,0.219632 0.489897,0.490479 0,0.00746627 -0.000200207,0.0148837 -0.000527375,0.022267 -0.0116364,-0.260518 -0.226293,-0.468197 -0.48937,-0.468197 -0.263077,0 -0.477738,0.207678 -0.48937,0.468197 -0.000332051,-0.00738325 -0.000532258,-0.0148007 -0.000532258,-0.022267 0,-0.270846 0.219369,-0.490479 0.489902,-0.490479z"/>
    <ellipse id="_111490968" class="fil13" cx="3.9396" cy="4.90361" rx="0.369981" ry="0.37944"/>
    <ellipse id="_111490896" class="fil1" cx="3.9396" cy="4.87673" rx="0.430101" ry="0.441097"/>
    <ellipse id="_111490824" class="fil9" cx="3.9396" cy="4.87673" rx="0.388358" ry="0.398287"/>
    <path id="_111490752" class="fil11" d="M3.58102 4.83611c-0.00142098,0.0133406 -0.00217786,0.0268961 -0.00217786,0.0406225 0,0.204304 0.161553,0.369978 0.360759,0.369978 0.199206,0 0.360764,-0.165674 0.360764,-0.369978 0,-0.0137264 -0.000761764,-0.0272819 -0.00217786,-0.0406225 -0.0197277,0.185201 -0.172764,0.32937 -0.358586,0.32937 -0.185822,0 -0.338853,-0.144169 -0.358581,-0.32937z"/>
    <path id="_111490680" class="fil10" d="M3.9396 4.47845c-0.214446,0 -0.388358,0.178346 -0.388358,0.398286 0,0.00481474 0.000117194,0.0095953 0.000278337,0.014371 0.00738814,-0.213279 0.178331,-0.383905 0.38808,-0.383905 0.209754,0 0.380697,0.170625 0.38808,0.383905 0.000166026,-0.00477568 0.00028322,-0.00955623 0.00028322,-0.014371 0,-0.21994 -0.173917,-0.398286 -0.388363,-0.398286z"/>
    <path id="_111490608" class="fil8" d="M4.0467 4.88705c0,0 -0.11009,-0.072392 -0.228021,-0.00202161 0,0 0.0462576,-0.0573374 0.050169,-0.0612488 0.00391137,-0.00390648 0.0612488,-0.0579869 0.0658096,-0.0573374 0.00456082,0.000654336 0.106857,0.0964315 0.106857,0.0964315l0.00518586 0.0241762z"/>
    <path id="_111490536" class="fil8" d="M4.20217 5.15811c0.0133065,-0.0290642 0.0192199,-0.061239 0.0195324,-0.0961239 -0.000952205,-0.0515363 -0.016041,-0.100397 -0.0537239,-0.141815 -0.00683146,-0.00751021 -0.01086,-0.00828663 -0.0178966,-0.000722699 -0.00990782,0.0106598 -0.0254312,0.0188146 -0.0301483,0.0310224 -0.00515167,0.0133406 0.0123738,0.0234975 0.0188439,0.0356613 0.0214271,0.0402856 0.0257193,0.0837501 0.0135604,0.12426 -0.0422926,0.0116364 -0.0876761,0.00752486 -0.129739,-0.0129891 -0.0127107,-0.00620154 -0.0233071,-0.0229848 -0.0372386,-0.018048 -0.0127449,0.00451687 -0.0212562,0.019381 -0.0323945,0.0288738 -0.00790575,0.0067338 -0.0070805,0.0105915 0.000751998,0.0171348 0.0432545,0.036091 0.0942732,0.0505401 0.14808,0.0514533 0.036428,-0.000302752 0.0700237,-0.00596227 0.100372,-0.0187072zm-0.161606 -0.360886c-0.0358029,-0.0343917 -0.0715179,-0.0688615 -0.107609,-0.102965 -0.0360959,0.0341036 -0.0718109,0.0685783 -0.107609,0.102965 -0.0359103,0.0342892 -0.0719086,0.0684904 -0.107521,0.103058 0.0356125,0.0345675 0.0716107,0.0687736 0.107521,0.103063 0.035798,0.0343868 0.0715131,0.0688615 0.107609,0.102965 0.036091,-0.0341085 0.071806,-0.0685783 0.107609,-0.102965 0.0359055,-0.0342892 0.0719037,-0.0684953 0.107516,-0.103063 -0.0356125,-0.0345675 -0.0716107,-0.0687688 -0.107516,-0.103058zm-0.107609 -0.0199328c0.0214466,0.0204553 0.0428444,0.0409595 0.064164,0.0615466 0.0214857,0.0204114 0.042903,0.0409058 0.0642617,0.0614441 -0.0213636,0.0205432 -0.0427711,0.0410376 -0.0642617,0.0614539 -0.0213196,0.0205823 -0.0427174,0.0410816 -0.064164,0.0615418 -0.0214515,-0.0204602 -0.0428492,-0.0409595 -0.0641689,-0.0615418 -0.0214857,-0.0204163 -0.0428981,-0.0409106 -0.0642568,-0.0614539 0.0213587,-0.0205432 0.0427711,-0.0410327 0.0642568,-0.0614441 0.0213196,-0.0205872 0.0427174,-0.0410913 0.0641689,-0.0615466zm0.269215 -0.134837c-0.0303485,-0.01274 -0.0639442,-0.0183995 -0.100372,-0.0187072 -0.0538069,0.00091314 -0.104826,0.015372 -0.14808,0.0514582 -0.00783738,0.00653848 -0.00865774,0.010401 -0.000751998,0.0171348 0.0111384,0.00948787 0.0196496,0.0243569 0.0323945,0.0288738 0.0139266,0.00493682 0.0245327,-0.0118513 0.0372386,-0.018048 0.0420582,-0.0205139 0.0874466,-0.0246255 0.129739,-0.0129842 0.012154,0.0405053 0.00786668,0.0839699 -0.0135604,0.124251 -0.00647011,0.0121687 -0.0239956,0.0223256 -0.0188439,0.0356662 0.00471708,0.0122029 0.0202405,0.0203577 0.0301483,0.0310224 0.00703167,0.00756393 0.0110651,0.00678263 0.0178966,-0.000722699 0.0376829,-0.0414185 0.0527717,-0.0902837 0.0537239,-0.141815 -0.000317402,-0.0348898 -0.00622596,-0.0670646 -0.0195324,-0.0961288zm-0.538435 0c-0.0133016,0.0290642 -0.019215,0.0612439 -0.0195324,0.0961288 0.000952205,0.0515314 0.0160459,0.100397 0.0537288,0.141815 0.00683146,0.00750533 0.01086,0.00828663 0.0178917,0.000722699 0.00990782,-0.0106647 0.0254312,-0.0188195 0.0301483,-0.0310224 0.00515656,-0.0133406 -0.0123738,-0.0234975 -0.0188439,-0.0356662 -0.0214222,-0.0402856 -0.0257144,-0.0837452 -0.0135555,-0.124251 0.0422877,-0.0116413 0.0876761,-0.00752975 0.129734,0.0129842 0.0127107,0.00619666 0.0233119,0.0229848 0.0372434,0.018048 0.0127449,-0.00452175 0.0212562,-0.0193859 0.0323945,-0.0288738 0.00790086,-0.0067338 0.0070805,-0.0105963 -0.000751998,-0.0171348 -0.0432545,-0.0360861 -0.0942781,-0.0505401 -0.148085,-0.0514582 -0.0364231,0.000302752 -0.0700237,0.00596715 -0.100372,0.0187072zm0 0.515656c0.0303485,0.0127449 0.0639491,0.0184044 0.100372,0.0187072 0.0538069,-0.00091314 0.10483,-0.0153622 0.148085,-0.0514533 0.0078325,-0.00654336 0.00865286,-0.010401 0.000751998,-0.0171348 -0.0111384,-0.00949275 -0.0196496,-0.0243569 -0.0323945,-0.0288738 -0.0139315,-0.00493682 -0.0245327,0.0118513 -0.0372434,0.018048 -0.0420582,0.0205139 -0.0874417,0.0246255 -0.129734,0.0129891 -0.0121589,-0.0405102 -0.00786668,-0.0839747 0.0135555,-0.12426 0.00647011,-0.0121687 0.0240005,-0.0223207 0.0188439,-0.0356613 -0.00471708,-0.0122078 -0.0202405,-0.0203577 -0.0301483,-0.0310224 -0.00703167,-0.00756881 -0.0110602,-0.00678263 -0.0178917,0.000722699 -0.0376878,0.0414185 -0.0527717,0.0902837 -0.0537288,0.141815 0.000317402,0.0348849 0.00623084,0.0670597 0.0195324,0.0961239z"/>
    <g>
     <path id="_111490464" class="fil1" d="M3.26014 5.01334l-0.178932 -0.113483c-0.037053,-0.0218812 -0.0376048,-0.056854 -0.000971738,-0.0777439l0.176939 -0.107658c0.0223402,-0.0135946 0.0554721,-0.012491 0.0784275,0.0010694l0.179371 0.105885c0.0370628,0.0218763 0.03342,0.0642324 -0.00321797,0.0851125l-0.173184 0.107887c-0.0222132,0.013829 -0.0554769,0.012491 -0.0784324,-0.0010694z"/>
     <path id="_111490392" class="fil9" d="M3.27827 4.97216l-0.166553 -0.0983164c-0.0114509,-0.0067631 -0.0115583,-0.0175645 -0.000239272,-0.0240151l0.164644 -0.093824c0.0113239,-0.00645058 0.029953,-0.00619666 0.0414038,0.000561557l0.166553 0.0983213c0.011446,0.00675822 0.0115534,0.0175645 0.000234389,0.0240151l-0.164644 0.0938191c-0.011319,0.00645058 -0.0299481,0.00620154 -0.041399,-0.000561557z"/>
     <path id="_111490320" class="fil14" d="M3.10366 4.865c-0.00185558,-0.00539095 0.000737349,-0.0111432 0.00781785,-0.0151718l0.164639 -0.0938288c0.0113093,-0.0064457 0.029953,-0.00622107 0.0413843,0.000585972l0.166558 0.0983164c0.00483916,0.00283708 0.00764206,0.00643105 0.00842824,0.0100836l-0.388827 1.46493e-005z"/>
     <path id="_111490248" class="fil10" d="M3.1032 4.86006c0.000600622,-0.00376976 0.00335469,-0.0074272 0.00828174,-0.0102301l0.164639 -0.0938288c0.0113093,-0.0064457 0.029953,-0.00622107 0.0413843,0.000585972l0.166558 0.0983164c0.00321308,0.00188 0.00550326,0.00408228 0.00692424,0.00643593 -0.061366,-0.0292156 -0.185255,-0.0871292 -0.196403,-0.0840236 -0.0148642,0.00414087 -0.191247,0.0826807 -0.191247,0.0826807l-0.000136727 6.34804e-005z"/>
     <circle id="_111490176" class="fil10" transform="matrix(1.15858 -0.2537 0.265432 1.23948 3.21702 4.79651)" r="0.0270036"/>
     <circle id="_111490104" class="fil10" transform="matrix(1.15858 -0.2537 0.265432 1.23948 3.14717 4.83044)" r="0.0105963"/>
     <polygon id="_111490032" class="fil1" points="3.49997,4.88846 3.29256,4.86469 3.50307,4.86029 "/>
    </g>
    <g>
     <path id="_111489936" class="fil1" d="M3.75421 4.18123l0.151606 -0.176427c0.0292351,-0.0365354 0.0759518,-0.0370823 0.103864,-0.000961972l0.143822 0.174464c0.0181603,0.0220326 0.0166856,0.0547005 -0.00143075,0.0773337l-0.141454 0.176866c-0.0292303,0.0365452 -0.0858108,0.0329512 -0.113703,-0.00317402l-0.144135 -0.170767c-0.0184777,-0.0219007 -0.0166856,-0.0546956 0.00143075,-0.0773337z"/>
     <path id="_111489864" class="fil9" d="M3.80923 4.1991l0.131346 -0.164224c0.00903374,-0.0112897 0.0234682,-0.0113923 0.0320869,-0.000234389l0.125335 0.162344c0.00861868,0.0111628 0.00828174,0.0295281 -0.000747115,0.0408228l-0.131351 0.164219c-0.00902886,0.0112946 -0.0234633,0.0113972 -0.032082,0.000239272l-0.12534 -0.162344c-0.00861868,-0.0111628 -0.00828174,-0.0295281 0.000751998,-0.0408228z"/>
     <path id="_111489792" class="fil14" d="M3.95239 4.02694c0.00720258,-0.00182628 0.0148886,0.000727583 0.0202698,0.00771042l0.125354 0.162334c0.00860891,0.011153 0.00830616,0.029533 -0.00078618,0.0408081l-0.131346 0.164229c-0.00378929,0.00477079 -0.00858938,0.00753463 -0.0134725,0.00831104l-1.95324e-005 -0.383392z"/>
     <path id="_111489720" class="fil10" d="M3.95899 4.02649c0.00503448,0.000585972 0.00992247,0.00330586 0.0136678,0.00816455l0.125354 0.162334c0.00860891,0.011153 0.00830616,0.029533 -0.00078618,0.0408081l-0.131346 0.164229c-0.00250992,0.00316913 -0.00545443,0.00542513 -0.00859426,0.00682658 0.0390258,-0.0605065 0.116399,-0.182667 0.112248,-0.193654 -0.00553256,-0.0146591 -0.110461,-0.188576 -0.110461,-0.188576l-8.30128e-005 -0.000131844z"/>
     <circle id="_111489648" class="fil10" transform="matrix(0.338929 1.14238 -1.65588 0.261721 4.04388 4.13871)" r="0.0270036"/>
     <circle id="_111489576" class="fil10" transform="matrix(0.338929 1.14238 -1.65588 0.261721 3.99856 4.06984)" r="0.0105963"/>
     <polygon id="_111489504" class="fil1" points="3.92104,4.41772 3.9528,4.2132 3.95868,4.42076 "/>
    </g>
    <g>
     <path id="_111489408" class="fil1" d="M4.64602 5.01334l0.178932 -0.113483c0.037053,-0.0218812 0.0376048,-0.056854 0.000971738,-0.0777439l-0.176939 -0.107658c-0.0223402,-0.0135946 -0.0554721,-0.012491 -0.0784275,0.0010694l-0.179371 0.105885c-0.0370628,0.0218763 -0.03342,0.0642324 0.00321797,0.0851125l0.173184 0.107887c0.0222132,0.013829 0.0554769,0.012491 0.0784324,-0.0010694z"/>
     <path id="_111489336" class="fil9" d="M4.62789 4.97216l0.166553 -0.0983164c0.0114509,-0.0067631 0.0115583,-0.0175645 0.000239272,-0.0240151l-0.164644 -0.093824c-0.0113239,-0.00645058 -0.029953,-0.00619666 -0.0414038,0.000561557l-0.166553 0.0983213c-0.011446,0.00675822 -0.0115534,0.0175645 -0.000234389,0.0240151l0.164644 0.0938191c0.011319,0.00645058 0.0299481,0.00620154 0.041399,-0.000561557z"/>
     <path id="_111489264" class="fil14" d="M4.8025 4.865c0.00185558,-0.00539095 -0.000737349,-0.0111432 -0.00781785,-0.0151718l-0.164639 -0.0938288c-0.0113093,-0.0064457 -0.029953,-0.00622107 -0.0413843,0.000585972l-0.166558 0.0983164c-0.00483916,0.00283708 -0.00764206,0.00643105 -0.00842824,0.0100836l0.388827 1.46493e-005z"/>
     <path id="_111489192" class="fil10" d="M4.80296 4.86006c-0.000600622,-0.00376976 -0.00335469,-0.0074272 -0.00828174,-0.0102301l-0.164639 -0.0938288c-0.0113093,-0.0064457 -0.029953,-0.00622107 -0.0413843,0.000585972l-0.166558 0.0983164c-0.00321308,0.00188 -0.00550326,0.00408228 -0.00692424,0.00643593 0.061366,-0.0292156 0.185255,-0.0871292 0.196403,-0.0840236 0.0148642,0.00414087 0.191247,0.0826807 0.191247,0.0826807l0.000136727 6.34804e-005z"/>
     <circle id="_111489120" class="fil10" transform="matrix(-1.15858 -0.2537 -0.265432 1.23948 4.68914 4.79651)" r="0.0270036"/>
     <circle id="_111489048" class="fil10" transform="matrix(-1.15858 -0.2537 -0.265432 1.23948 4.75899 4.83044)" r="0.0105963"/>
     <polygon id="_111488976" class="fil1" points="4.40619,4.88846 4.6136,4.86469 4.40309,4.86029 "/>
    </g>
    <g>
     <path id="_111488880" class="fil1" d="M3.75421 5.54774l0.151606 0.176427c0.0292351,0.0365354 0.0759518,0.0370823 0.103864,0.000957088l0.143822 -0.174459c0.0181603,-0.0220326 0.0166856,-0.0547005 -0.00143075,-0.0773337l-0.141454 -0.176866c-0.0292303,-0.0365452 -0.0858108,-0.0329512 -0.113703,0.00317402l-0.144135 0.170762c-0.0184777,0.0219007 -0.0166856,0.0547005 0.00143075,0.0773386z"/>
     <path id="_111488808" class="fil9" d="M3.80923 5.52986l0.131346 0.164219c0.00903374,0.0112946 0.0234682,0.0113972 0.0320869,0.000239272l0.125335 -0.162344c0.00861868,-0.0111628 0.00828174,-0.0295281 -0.000747115,-0.0408228l-0.131351 -0.164224c-0.00902886,-0.0112897 -0.0234633,-0.0113923 -0.032082,-0.000234389l-0.12534 0.162344c-0.00861868,0.0111628 -0.00828174,0.0295281 0.000751998,0.0408228z"/>
     <path id="_111488736" class="fil14" d="M3.95239 5.70203c0.00720258,0.00182628 0.0148886,-0.000732466 0.0202698,-0.00771042l0.125354 -0.162334c0.00860891,-0.0111579 0.00830616,-0.029533 -0.00078618,-0.0408081l-0.131346 -0.164229c-0.00378929,-0.00477568 -0.00858938,-0.00753463 -0.0134725,-0.00831104l-1.95324e-005 0.383392z"/>
     <path id="_111488664" class="fil10" d="M3.95899 5.70248c0.00503448,-0.000590856 0.00992247,-0.00331074 0.0136678,-0.00816455l0.125354 -0.162334c0.00860891,-0.0111579 0.00830616,-0.029533 -0.00078618,-0.0408081l-0.131346 -0.164229c-0.00250992,-0.00316913 -0.00545443,-0.00543001 -0.00859426,-0.00683146 0.0390258,0.0605114 0.116399,0.182672 0.112248,0.193659 -0.00553256,0.0146591 -0.110461,0.188576 -0.110461,0.188576l-8.30128e-005 0.000131844z"/>
     <circle id="_111488592" class="fil10" transform="matrix(0.338929 -1.14238 -1.65588 -0.261721 4.04388 5.59025)" r="0.0270036"/>
     <circle id="_111488520" class="fil10" transform="matrix(0.338929 -1.14238 -1.65588 -0.261721 3.99856 5.65912)" r="0.0105963"/>
     <polygon id="_111488448" class="fil1" points="3.92104,5.31125 3.9528,5.51576 3.95868,5.30821 "/>
    </g>
    <path id="_111488352" class="fil1" d="M4.20217 5.13326c0.0133065,-0.0290642 0.0192199,-0.0612439 0.0195324,-0.0961288 -0.000952205,-0.0515314 -0.016041,-0.100397 -0.0537239,-0.141815 -0.00683146,-0.00750533 -0.01086,-0.00828663 -0.0178966,-0.000722699 -0.00990782,0.0106647 -0.0254312,0.0188195 -0.0301483,0.0310272 -0.00515167,0.0133406 0.0123738,0.0234926 0.0188439,0.0356613 0.0214271,0.0402807 0.0257193,0.0837501 0.0135604,0.124255 -0.0422926,0.0116364 -0.0876761,0.00752975 -0.129739,-0.0129891 -0.0127107,-0.00619666 -0.0233071,-0.0229848 -0.0372386,-0.018048 -0.0127449,0.00451687 -0.0212562,0.0193859 -0.0323945,0.0288787 -0.00790575,0.00672892 -0.0070805,0.0105915 0.000751998,0.0171299 0.0432545,0.036091 0.0942732,0.050545 0.14808,0.0514582 0.036428,-0.000307636 0.0700237,-0.00596715 0.100372,-0.0187072zm-0.161606 -0.360891c-0.0358029,-0.0343868 -0.0715179,-0.0688615 -0.107609,-0.102965 -0.0360959,0.0341036 -0.0718109,0.0685783 -0.107609,0.102965 -0.0359103,0.0342892 -0.0719086,0.0684953 -0.107521,0.103063 0.0356125,0.0345675 0.0716107,0.0687688 0.107521,0.103058 0.035798,0.0343868 0.0715131,0.0688615 0.107609,0.102965 0.036091,-0.0341036 0.071806,-0.0685783 0.107609,-0.102965 0.0359055,-0.0342892 0.0719037,-0.0684904 0.107516,-0.103058 -0.0356125,-0.0345675 -0.0716107,-0.0687688 -0.107516,-0.103063zm-0.107609 -0.0199328c0.0214466,0.0204553 0.0428444,0.0409595 0.064164,0.0615466 0.0214857,0.0204114 0.042903,0.0409058 0.0642617,0.061449 -0.0213636,0.0205383 -0.0427711,0.0410327 -0.0642617,0.061449 -0.0213196,0.0205823 -0.0427174,0.0410864 -0.064164,0.0615418 -0.0214515,-0.0204553 -0.0428492,-0.0409595 -0.0641689,-0.0615418 -0.0214857,-0.0204163 -0.0428981,-0.0409106 -0.0642568,-0.061449 0.0213587,-0.0205432 0.0427711,-0.0410327 0.0642568,-0.061449 0.0213196,-0.0205872 0.0427174,-0.0410864 0.0641689,-0.0615466zm0.269215 -0.134837c-0.0303485,-0.01274 -0.0639442,-0.0183995 -0.100372,-0.0187023 -0.0538069,0.00091314 -0.104826,0.0153671 -0.14808,0.0514533 -0.00783738,0.00654336 -0.00865774,0.0104059 -0.000751998,0.0171348 0.0111384,0.00949275 0.0196496,0.0243569 0.0323945,0.0288738 0.0139266,0.00493682 0.0245327,-0.0118513 0.0372386,-0.018048 0.0420582,-0.0205139 0.0874466,-0.0246206 0.129739,-0.0129842 0.012154,0.0405053 0.00786668,0.0839699 -0.0135604,0.124255 -0.00647011,0.0121638 -0.0239956,0.0223256 -0.0188439,0.0356613 0.00471708,0.0122029 0.0202405,0.0203625 0.0301483,0.0310224 0.00703167,0.00756393 0.0110651,0.00678751 0.0178966,-0.000722699 0.0376829,-0.0414185 0.0527717,-0.0902837 0.0537239,-0.141815 -0.000317402,-0.0348849 -0.00622596,-0.0670597 -0.0195324,-0.0961288zm-0.538435 0c-0.0133016,0.0290691 -0.019215,0.0612439 -0.0195324,0.0961288 0.000952205,0.0515314 0.0160459,0.100397 0.0537288,0.141815 0.00683146,0.00751021 0.01086,0.00828663 0.0178917,0.000722699 0.00990782,-0.0106647 0.0254312,-0.0188146 0.0301483,-0.0310224 0.00515656,-0.0133406 -0.0123738,-0.0234975 -0.0188439,-0.0356613 -0.0214222,-0.0402856 -0.0257144,-0.0837501 -0.0135555,-0.124255 0.0422877,-0.0116364 0.0876761,-0.00752975 0.129734,0.0129842 0.0127107,0.00619666 0.0233119,0.0229848 0.0372434,0.018048 0.0127449,-0.00451687 0.0212562,-0.019381 0.0323945,-0.0288738 0.00790086,-0.0067338 0.0070805,-0.0105915 -0.000751998,-0.0171348 -0.0432545,-0.0360861 -0.0942781,-0.0505401 -0.148085,-0.0514533 -0.0364231,0.000302752 -0.0700237,0.00596715 -0.100372,0.0187023zm0 0.515661c0.0303485,0.01274 0.0639491,0.0183995 0.100372,0.0187072 0.0538069,-0.00091314 0.10483,-0.0153671 0.148085,-0.0514582 0.0078325,-0.00653848 0.00865286,-0.0103961 0.000751998,-0.0171299 -0.0111384,-0.00949275 -0.0196496,-0.0243618 -0.0323945,-0.0288787 -0.0139315,-0.00493682 -0.0245327,0.0118513 -0.0372434,0.018048 -0.0420582,0.0205188 -0.0874417,0.0246255 -0.129734,0.0129891 -0.0121589,-0.0405053 -0.00786668,-0.0839747 0.0135555,-0.124255 0.00647011,-0.0121687 0.0240005,-0.0223207 0.0188439,-0.0356613 -0.00471708,-0.0122078 -0.0202405,-0.0203625 -0.0301483,-0.0310272 -0.00703167,-0.00756393 -0.0110602,-0.00678263 -0.0178917,0.000722699 -0.0376878,0.0414185 -0.0527717,0.0902837 -0.0537288,0.141815 0.000317402,0.0348849 0.00623084,0.0670646 0.0195324,0.0961288z"/>
    <path id="_111488280" class="fil11" d="M4.02327 4.90001c0,0 -0.0834034,0.0833985 -0.0886137,0.0833985 -0.00521516,0 -0.0957821,-0.0951278 -0.0957821,-0.0951278 0,0 0.0677628,0.0423512 0.184396,0.0117292z"/>
   </g>
  </g>
 </g>
</svg>
