<?xml version="1.0" encoding="UTF-8"?>
<!DOCTYPE svg PUBLIC "-//W3C//DTD SVG 1.1//EN" "http://www.w3.org/Graphics/SVG/1.1/DTD/svg11.dtd">
<!-- Creator: CorelDRAW -->
<svg xmlns="http://www.w3.org/2000/svg" xml:space="preserve" width="161.908mm" height="176.792mm" style="shape-rendering:geometricPrecision; text-rendering:geometricPrecision; image-rendering:optimizeQuality; fill-rule:evenodd; clip-rule:evenodd"
viewBox="0 0 8.99079 9.81728"
 xmlns:xlink="http://www.w3.org/1999/xlink">
 <defs>
  <style type="text/css">
   <![CDATA[
    .fil0 {fill:none}
    .fil1 {fill:#501D33}
    .fil4 {fill:#50404B}
    .fil2 {fill:#62545D}
    .fil7 {fill:#75414C}
    .fil6 {fill:#955B58}
    .fil3 {fill:#9A8D8E}
    .fil5 {fill:#9C5E58}
    .fil9 {fill:#BA9475}
    .fil8 {fill:#BB8778}
    .fil10 {fill:#D8C196}
    .fil11 {fill:#501D33;fill-rule:nonzero}
   ]]>
  </style>
 </defs>
 <g id="Layer_x0020_1">
  <metadata id="CorelCorpID_0Corel-Layer"/>
  <rect class="fil0" width="8.99079" height="9.81728"/>
  <g id="_114545168">
   <g>
    <g>
     <path id="_114552368" class="fil1" d="M4.54905 4.75309c0.323008,0.123266 0.644183,0.409457 0.80251,0.675796l0.0278817 0.0469063 -0.0255772 0.0478336c-0.145922,0.272864 -0.4847,0.544184 -0.799984,0.677934l-0.055519 0.0235559 -0.0566185 -0.0216123c-0.323008,-0.123266 -0.644183,-0.409457 -0.80251,-0.675796l-0.0278817 -0.0469063 0.0255772 -0.0478336c0.145922,-0.272864 0.4847,-0.544184 0.799984,-0.677934l0.055519 -0.0235559 0.0566185 0.0216123z"/>
     <path id="_114552296" class="fil2" d="M4.4954 4.80871c0.310541,0.118512 0.634071,0.402865 0.79262,0.669582 -0.140291,0.262335 -0.476893,0.535649 -0.79262,0.669582 -0.310541,-0.118512 -0.634071,-0.402865 -0.79262,-0.669582 0.140291,-0.262335 0.476893,-0.535649 0.79262,-0.669582z"/>
     <path id="_114552224" class="fil3" d="M4.4954 4.80871c0.286435,0.109305 0.60002,0.356975 0.768892,0.604495 -0.377338,-0.402788 -0.765316,-0.543301 -0.765316,-0.543301 -0.342776,0.120906 -0.739028,0.523077 -0.788511,0.580329 -0.00149376,-0.00245443 -0.00623048,0.0305138 -0.00768537,0.0280594 0.140291,-0.262335 0.476893,-0.535649 0.79262,-0.669582z"/>
     <path id="_114552152" class="fil4" d="M3.75692 5.4984c0,0 0.238091,0.395635 0.729971,0.605612 0,0 0.434323,-0.137037 0.753522,-0.618878 -0.0422917,0.00613053 -0.0846335,0.0117613 -0.126975,0.0169311 -0.380798,0.411711 -0.627907,0.414549 -0.627907,0.414549 -0.337162,-0.176502 -0.577319,-0.400722 -0.577319,-0.400722 0.000122166,0.000266545 0.000782975,0.000266545 0.00187137,6.66361e-005 -0.0510266,-0.00511988 -0.102059,-0.0109561 -0.153163,-0.0175586z"/>
     <path id="_114552080" class="fil5" d="M5.02588 5.50463c-0.33076,0.033568 -0.691733,0.0390099 -1.02544,0.0145822 0.0737551,0.0901143 0.257454,0.265129 0.478214,0.380426 0,0 0.227307,-0.0625769 0.547227,-0.395008z"/>
    </g>
    <g>
     <g>
      <path id="_114551984" class="fil1" d="M2.71034 5.82683c0,0 -0.0347119,-0.259548 0.0845835,-0.465987 0.0728666,-0.119951 0.113409,-0.131307 0.167645,-0.12577 0.325523,0.0332403 0.916269,0.140741 1.29294,0.343976l0.079247 0.247131c0,0 -0.180995,0.121805 -0.354204,0.301745l-1.20114 -0.255511 -0.0690628 -0.0455847z"/>
      <path id="_114551912" class="fil2" d="M2.79232 5.78017l0.0217067 0.0143323 0.615985 0.140352 0.521739 0.101665c0.0681466,-0.0677856 0.141024,-0.131723 0.216512,-0.191462 0.0215401,-0.0170533 0.0437133,-0.0342954 0.0662308,-0.0509711l-0.0506379 -0.157933c-0.147582,-0.0752988 -0.314673,-0.130152 -0.473883,-0.173398 -0.241456,-0.065681 -0.502686,-0.115564 -0.756231,-0.147449 -0.0246054,-0.00309303 -0.0707898,0.0636098 -0.0838671,0.0862438 -0.0471951,0.0816848 -0.0692183,0.178774 -0.0759985,0.271565 -0.00243222,0.0333014 -0.00353172,0.0713062 -0.00155484,0.107057z"/>
      <path id="_114551840" class="fil3" d="M2.79232 5.78017l0.0217067 0.0143323 0.615985 0.140352 0.521739 0.101665 0.000249886 -0.000244333c-0.214741,-0.0876265 -1.10156,-0.316899 -1.10156,-0.316899l-0.00966779 -0.174126c-0.000660808,0.000766316 -0.0123277,-0.000905141 -0.0264546,-0.00281538 -0.0108117,0.0431691 -0.0172865,0.0873822 -0.0204462,0.130679 -0.00243222,0.0333014 -0.00353172,0.0713062 -0.00155484,0.107057z"/>
      <path id="_114551768" class="fil4" d="M4.169 5.84446c0.0213014,-0.0168589 0.0432302,-0.0338845 0.0654867,-0.0503658l-0.0506379 -0.157933c-0.147582,-0.0752988 -0.314673,-0.130152 -0.473883,-0.173398 -0.241456,-0.065681 -0.502686,-0.115564 -0.756231,-0.147449 -0.0246054,-0.00309303 -0.0707898,0.0636098 -0.0838671,0.0862438 -0.0323685,0.0560243 -0.0529091,0.119301 -0.0647981,0.18346 0.109339,0.027343 0.832941,0.205234 1.36393,0.259442z"/>
      <path id="_114551696" class="fil1" d="M2.63826 6.26067c0,0 -0.0382325,-0.240462 0.0631877,-0.415959l0.0468397 -0.091236c0.00317632,-0.00618606 0.774234,0.167496 1.22292,0.290889l0.0496384 0.196543c0,0 -0.155495,0.12276 -0.302745,0.275729l-1.07984 -0.255966z"/>
      <path id="_114551624" class="fil2" d="M2.72077 6.20464l0.959638 0.224286c0.0732387,-0.0737329 0.162942,-0.151875 0.243694,-0.218339l-0.025405 -0.106696c-0.357581,-0.108933 -0.767532,-0.18004 -1.09273,-0.259953 -0.0097733,-0.0023989 -0.0117557,0.0106451 -0.0295753,0.0414866 -0.0472173,0.081707 -0.0615274,0.216556 -0.0556245,0.319215z"/>
      <path id="_114551552" class="fil3" d="M2.72077 6.20464l0.959638 0.224286 0.00648592 -0.00651368c-0.334125,-0.104524 -0.912099,-0.256755 -0.912099,-0.256755 0.00321519,-0.0923744 0.0241334,-0.203462 0.0547083,-0.30676 -0.000510877,0.000588619 -0.0171533,0.00116613 -0.0398429,0.00181028 -0.00327628,0.00637486 -0.00740772,0.0145711 -0.0132661,0.0247165 -0.0472173,0.081707 -0.0615274,0.216556 -0.0556245,0.319215z"/>
      <path id="_114551480" class="fil4" d="M3.91884 6.1885l-0.0201463 -0.0846112c-0.357581,-0.108933 -0.767532,-0.18004 -1.09273,-0.259953 -0.0097733,-0.0023989 -0.0117557,0.0106451 -0.0295753,0.0414866 -0.00598059,0.0103453 -0.0114281,0.0215457 -0.0163758,0.0334236 0.163009,0.0457846 0.698475,0.191957 1.15882,0.269654z"/>
      <path id="_114551408" class="fil1" d="M2.5325 6.66238c-0.0280149,-0.176219 0.0197687,-0.343804 0.111727,-0.467669 0,0 0.668088,0.113209 1.06732,0.277506l0.0288868 0.172893c0,0 -0.135849,0.107256 -0.264501,0.240901l-0.943435 -0.223631z"/>
      <path id="_114551336" class="fil2" d="M2.61223 6.59553l0.835723 0.198098c0.0614774,-0.0616218 0.128269,-0.122921 0.195744,-0.178763l-0.014299 -0.120534c-0.323829,-0.079136 -0.622743,-0.137609 -0.936393,-0.215407 -0.0602891,0.0997432 -0.0859273,0.197837 -0.0807741,0.316605z"/>
      <path id="_114551264" class="fil3" d="M2.61223 6.59553l0.835723 0.198098 0.00142157 -0.00142712 -0.75988 -0.251124c0.0144878,-0.135754 0.0386268,-0.226257 0.0386268,-0.226257 0,0 -0.0167923,-0.0132328 -0.0386823,-0.0299196 -0.0577402,0.0976997 -0.0822568,0.194233 -0.0772091,0.31063z"/>
      <path id="_114551192" class="fil4" d="M3.63921 6.57703l-0.00981217 -0.0826955c-0.323829,-0.079136 -0.622743,-0.137609 -0.936393,-0.215407 -0.0141324,0.0233837 -0.0263713,0.0466897 -0.0367498,0.070179 0.215385,0.0584843 0.615735,0.161893 0.982955,0.227923z"/>
      <path id="_114551120" class="fil1" d="M2.74333 5.06507c-0.0245554,-0.060489 -0.140141,-0.334136 -0.175092,-0.432246 -0.0162592,-0.0456458 0.0202629,-0.0506268 0.0641317,-0.0447184 0.289151,0.0388989 0.887288,0.0863827 1.39757,0.187475l0.319237 0.592562 -0.586876 0.108967c0,0 -1.03509,-0.350745 -1.01897,-0.412039z"/>
      <path id="_114551048" class="fil2" d="M2.83805 5.0843c-0.0207461,-0.0510933 -0.118374,-0.282221 -0.147893,-0.365088 -0.0137326,-0.0385546 0.0171144,-0.0427582 0.0541696,-0.0377771 0.244221,0.0328627 0.791349,0.0865826 1.22235,0.171971l0.269632 0.500493 -0.537609 0.0784196c0,0 -0.874272,-0.296248 -0.86065,-0.348018z"/>
      <path id="_114550976" class="fil4" d="M2.83804 5.08429c-0.00381492,-0.00940125 -0.0102286,-0.0249053 -0.0183527,-0.0444574 0.0470229,-0.00137159 0.105818,-0.000616384 0.178379,0.00270987 0.69391,0.0318188 0.895212,-0.111477 0.953441,-0.192106l0.0151653 0.00296531 0.269638 0.500493 -0.537615 0.0784196c0,0 -0.874272,-0.296248 -0.860656,-0.348024z"/>
      <path id="_114550904" class="fil3" d="M2.81532 5.02933c-0.0369997,-0.0890148 -0.10202,-0.245143 -0.125165,-0.310119 -0.0137382,-0.0385601 0.0171199,-0.0427526 0.0541696,-0.0377771 0.244221,0.0328627 0.791349,0.0865826 1.22235,0.171971l0.0572349 0.106235c-0.546988,-0.0967946 -1.21287,-0.157822 -1.21287,-0.157822l0.0354726 0.240729c0,0 -0.0118279,-0.00457568 -0.0311968,-0.0132162z"/>
      <path id="_114550832" class="fil1" d="M2.75736 5.4881c0,0 0.661963,0.173276 1.7079,0.30164l-0.0364111 -0.625769c0,0 -0.989663,-0.0353005 -1.70129,-0.157245 0,0 -0.0280705,0.250313 0.0298086,0.481374z"/>
      <path id="_114550760" class="fil6" d="M2.83377 5.42774c0.136882,0.035356 0.277806,0.0653478 0.415349,0.0939125 0.382453,0.0794303 0.769153,0.143579 1.15645,0.195177l-0.026499 -0.472328c-0.392187,-0.0190246 -0.784096,-0.0471562 -1.17416,-0.0929463 -0.131862,-0.0154818 -0.263768,-0.033046 -0.394936,-0.054314 -0.00346508,0.108461 0.00455902,0.227957 0.0237891,0.330499z"/>
      <path id="_114550688" class="fil7" d="M2.84974 5.39582c0,0 0.948032,0.218844 1.40914,0.237602l0 -0.240729c0,0 -0.664262,0.0750323 -1.40914,0.00312635z"/>
      <path id="_114550616" class="fil8" d="M4.38403 5.3327l-0.00494773 -0.0881874c-0.392193,-0.0190302 -0.784102,-0.0471617 -1.17416,-0.0929574 -0.131867,-0.0154818 -0.263768,-0.0330404 -0.394936,-0.0543085 -0.000533089,0.0167312 -0.000782975,0.0337401 -0.000771869,0.0508878 0.166296,0.0349173 0.720742,0.140569 1.51739,0.182039 0.0197465,0.00102731 0.0387489,0.00183249 0.0574237,0.00252662z"/>
      <path id="_114550544" class="fil1" d="M3.20441 5.00816c0,0 -0.107956,0.232916 -0.0386601,0.612764 0.0833174,0.0156317 0.166635,0.031269 0.249952,0.0469063 0.0667028,-0.159177 0.12923,-0.364683 0.104769,-0.62528 0,0 -0.209648,-0.0343898 -0.316061,-0.0343898z"/>
      <path id="_114550472" class="fil2" d="M3.23347 4.98002l-0.0355615 0.644544c-0.00182139,0.0330293 0.190429,0.0519984 0.193678,0.0296309l0.0933961 -0.642911c0,0 -0.19992,-0.0781586 -0.251513,-0.0312635z"/>
      <polygon id="_114550400" class="fil1" points="4.0559,4.97288 3.39764,4.86833 4.03176,4.90266 "/>
      <ellipse id="_114550328" class="fil1" cx="3.92071" cy="5.94188" rx="0.0514983" ry="0.0499293"/>
      <ellipse id="_114550256" class="fil1" cx="3.65032" cy="6.32574" rx="0.0514983" ry="0.0499293"/>
      <ellipse id="_114550184" class="fil1" cx="3.41493" cy="6.68839" rx="0.0514983" ry="0.0499293"/>
      <polygon id="_114550112" class="fil1" points="3.93359,6.21651 3.35419,6.06984 3.93841,6.15722 "/>
      <polygon id="_114550040" class="fil1" points="4.20167,5.86986 3.61401,5.7583 4.2027,5.81038 "/>
      <path id="_114549968" class="fil1" d="M3.66159 6.60661l-0.481218 -0.11859 0.495706 0.0592951c0,0 -0.0128774,0.0561743 -0.0144878,0.0592951z"/>
      <path id="_114549896" class="fil4" d="M3.23509 5.2912l-0.0193078 0.318321c0,0 0.0370164,0.0436911 0.156112,0.0265267l0.0273597 -0.299596c0,0 -0.0901254,0.0312079 -0.164164,-0.0452515z"/>
      <path id="_114549824" class="fil3" d="M3.24475 5.10246l0.189896 0.0195022 0.0161148 -0.0663863c0,0 -0.067458,-0.0530146 -0.20279,-0.0343287l-0.00322075 0.0812128z"/>
     </g>
     <g>
      <path id="_114549728" class="fil1" d="M6.28046 5.82683c0,0 0.0347119,-0.259548 -0.0845835,-0.465987 -0.0728666,-0.119951 -0.113409,-0.131307 -0.167645,-0.12577 -0.325523,0.0332403 -0.916269,0.140741 -1.29294,0.343976l-0.079247 0.247131c0,0 0.180995,0.121805 0.354204,0.301745l1.20114 -0.255511 0.0690628 -0.0455847z"/>
      <path id="_114549656" class="fil2" d="M6.19848 5.78017l-0.0217067 0.0143323 -0.615985 0.140352 -0.521739 0.101665c-0.0681466,-0.0677856 -0.141024,-0.131723 -0.216512,-0.191462 -0.0215401,-0.0170533 -0.0437133,-0.0342954 -0.0662308,-0.0509711l0.0506379 -0.157933c0.147582,-0.0752988 0.314673,-0.130152 0.473883,-0.173398 0.241456,-0.065681 0.502686,-0.115564 0.756231,-0.147449 0.0246054,-0.00309303 0.0707898,0.0636098 0.0838671,0.0862438 0.0471951,0.0816848 0.0692183,0.178774 0.0759985,0.271565 0.00243222,0.0333014 0.00353172,0.0713062 0.00155484,0.107057z"/>
      <path id="_114549584" class="fil3" d="M6.19848 5.78017l-0.0217067 0.0143323 -0.615985 0.140352 -0.521739 0.101665 -0.000249886 -0.000244333c0.214741,-0.0876265 1.10156,-0.316899 1.10156,-0.316899l0.00966779 -0.174126c0.000660808,0.000766316 0.0123277,-0.000905141 0.0264546,-0.00281538 0.0108117,0.0431691 0.0172865,0.0873822 0.0204462,0.130679 0.00243222,0.0333014 0.00353172,0.0713062 0.00155484,0.107057z"/>
      <path id="_114549512" class="fil4" d="M4.82179 5.84446c-0.0213014,-0.0168589 -0.0432302,-0.0338845 -0.0654867,-0.0503658l0.0506379 -0.157933c0.147582,-0.0752988 0.314673,-0.130152 0.473883,-0.173398 0.241456,-0.065681 0.502686,-0.115564 0.756231,-0.147449 0.0246054,-0.00309303 0.0707898,0.0636098 0.0838671,0.0862438 0.0323685,0.0560243 0.0529091,0.119301 0.0647981,0.18346 -0.109339,0.027343 -0.832941,0.205234 -1.36393,0.259442z"/>
      <path id="_114549440" class="fil1" d="M6.35253 6.26067c0,0 0.0382325,-0.240462 -0.0631877,-0.415959l-0.0468397 -0.091236c-0.00317632,-0.00618606 -0.774234,0.167496 -1.22292,0.290889l-0.0496384 0.196543c0,0 0.155495,0.12276 0.302745,0.275729l1.07984 -0.255966z"/>
      <path id="_114549368" class="fil2" d="M6.27002 6.20464l-0.959638 0.224286c-0.0732387,-0.0737329 -0.162942,-0.151875 -0.243694,-0.218339l0.025405 -0.106696c0.357581,-0.108933 0.767532,-0.18004 1.09273,-0.259953 0.0097733,-0.0023989 0.0117557,0.0106451 0.0295753,0.0414866 0.0472173,0.081707 0.0615274,0.216556 0.0556245,0.319215z"/>
      <path id="_114549296" class="fil3" d="M6.27002 6.20464l-0.959638 0.224286 -0.00648592 -0.00651368c0.334125,-0.104524 0.912099,-0.256755 0.912099,-0.256755 -0.00321519,-0.0923744 -0.0241334,-0.203462 -0.0547083,-0.30676 0.000510877,0.000588619 0.0171533,0.00116613 0.0398429,0.00181028 0.00327628,0.00637486 0.00740772,0.0145711 0.0132661,0.0247165 0.0472173,0.081707 0.0615274,0.216556 0.0556245,0.319215z"/>
      <path id="_114549224" class="fil4" d="M5.07195 6.1885l0.0201463 -0.0846112c0.357581,-0.108933 0.767532,-0.18004 1.09273,-0.259953 0.0097733,-0.0023989 0.0117557,0.0106451 0.0295753,0.0414866 0.00598059,0.0103453 0.0114281,0.0215457 0.0163758,0.0334236 -0.163009,0.0457846 -0.698475,0.191957 -1.15882,0.269654z"/>
      <path id="_114549152" class="fil1" d="M6.4583 6.66238c0.0280149,-0.176219 -0.0197687,-0.343804 -0.111727,-0.467669 0,0 -0.668088,0.113209 -1.06732,0.277506l-0.0288868 0.172893c0,0 0.135849,0.107256 0.264501,0.240901l0.943435 -0.223631z"/>
      <path id="_114549080" class="fil2" d="M6.37856 6.59553l-0.835723 0.198098c-0.0614774,-0.0616218 -0.128269,-0.122921 -0.195744,-0.178763l0.014299 -0.120534c0.323829,-0.079136 0.622743,-0.137609 0.936393,-0.215407 0.0602891,0.0997432 0.0859273,0.197837 0.0807741,0.316605z"/>
      <path id="_114549008" class="fil3" d="M6.37856 6.59553l-0.835723 0.198098 -0.00142157 -0.00142712 0.75988 -0.251124c-0.0144878,-0.135754 -0.0386268,-0.226257 -0.0386268,-0.226257 0,0 0.0167923,-0.0132328 0.0386823,-0.0299196 0.0577402,0.0976997 0.0822568,0.194233 0.0772091,0.31063z"/>
      <path id="_114548936" class="fil4" d="M5.35158 6.57703l0.00981217 -0.0826955c0.323829,-0.079136 0.622743,-0.137609 0.936393,-0.215407 0.0141324,0.0233837 0.0263713,0.0466897 0.0367498,0.070179 -0.215385,0.0584843 -0.615735,0.161893 -0.982955,0.227923z"/>
      <path id="_114548864" class="fil1" d="M6.24747 5.06507c0.0245554,-0.060489 0.140141,-0.334136 0.175092,-0.432246 0.0162592,-0.0456458 -0.0202629,-0.0506268 -0.0641317,-0.0447184 -0.289151,0.0388989 -0.887288,0.0863827 -1.39757,0.187475l-0.319237 0.592562 0.586876 0.108967c0,0 1.03509,-0.350745 1.01897,-0.412039z"/>
      <path id="_114548792" class="fil2" d="M6.15274 5.0843c0.0207461,-0.0510933 0.118374,-0.282221 0.147893,-0.365088 0.0137326,-0.0385546 -0.0171144,-0.0427582 -0.0541696,-0.0377771 -0.244221,0.0328627 -0.791349,0.0865826 -1.22235,0.171971l-0.269632 0.500493 0.537609 0.0784196c0,0 0.874272,-0.296248 0.86065,-0.348018z"/>
      <path id="_114548720" class="fil4" d="M6.15275 5.08429c0.00381492,-0.00940125 0.0102286,-0.0249053 0.0183527,-0.0444574 -0.0470229,-0.00137159 -0.105818,-0.000616384 -0.178379,0.00270987 -0.69391,0.0318188 -0.895212,-0.111477 -0.953441,-0.192106l-0.0151653 0.00296531 -0.269638 0.500493 0.537615 0.0784196c0,0 0.874272,-0.296248 0.860656,-0.348024z"/>
      <path id="_114548648" class="fil3" d="M6.17547 5.02933c0.0369997,-0.0890148 0.10202,-0.245143 0.125165,-0.310119 0.0137382,-0.0385601 -0.0171199,-0.0427526 -0.0541696,-0.0377771 -0.244221,0.0328627 -0.791349,0.0865826 -1.22235,0.171971l-0.0572349 0.106235c0.546988,-0.0967946 1.21287,-0.157822 1.21287,-0.157822l-0.0354726 0.240729c0,0 0.0118279,-0.00457568 0.0311968,-0.0132162z"/>
      <path id="_114548576" class="fil1" d="M6.23343 5.4881c0,0 -0.661963,0.173276 -1.7079,0.30164l0.0364111 -0.625769c0,0 0.989663,-0.0353005 1.70129,-0.157245 0,0 0.0280705,0.250313 -0.0298086,0.481374z"/>
      <path id="_114548504" class="fil6" d="M6.15702 5.42774c-0.136882,0.035356 -0.277806,0.0653478 -0.415349,0.0939125 -0.382453,0.0794303 -0.769153,0.143579 -1.15645,0.195177l0.026499 -0.472328c0.392187,-0.0190246 0.784096,-0.0471562 1.17416,-0.0929463 0.131862,-0.0154818 0.263768,-0.033046 0.394936,-0.054314 0.00346508,0.108461 -0.00455902,0.227957 -0.0237891,0.330499z"/>
      <path id="_114548432" class="fil7" d="M6.14105 5.39582c0,0 -0.948032,0.218844 -1.40914,0.237602l0 -0.240729c0,0 0.664262,0.0750323 1.40914,0.00312635z"/>
      <path id="_114548360" class="fil8" d="M4.60677 5.3327l0.00494773 -0.0881874c0.392193,-0.0190302 0.784102,-0.0471617 1.17416,-0.0929574 0.131867,-0.0154818 0.263768,-0.0330404 0.394936,-0.0543085 0.000533089,0.0167312 0.000782975,0.0337401 0.000771869,0.0508878 -0.166296,0.0349173 -0.720742,0.140569 -1.51739,0.182039 -0.0197465,0.00102731 -0.0387489,0.00183249 -0.0574237,0.00252662z"/>
      <path id="_114548288" class="fil1" d="M5.78638 5.00816c0,0 0.107956,0.232916 0.0386601,0.612764 -0.0833174,0.0156317 -0.166635,0.031269 -0.249952,0.0469063 -0.0667028,-0.159177 -0.12923,-0.364683 -0.104769,-0.62528 0,0 0.209648,-0.0343898 0.316061,-0.0343898z"/>
      <path id="_114548216" class="fil2" d="M5.75732 4.98002l0.0355615 0.644544c0.00182139,0.0330293 -0.190429,0.0519984 -0.193678,0.0296309l-0.0933961 -0.642911c0,0 0.19992,-0.0781586 0.251513,-0.0312635z"/>
      <polygon id="_114548144" class="fil1" points="4.93489,4.97288 5.59315,4.86833 4.95903,4.90266 "/>
      <ellipse id="_114548072" class="fil1" cx="5.07009" cy="5.94188" rx="0.0514983" ry="0.0499293"/>
      <ellipse id="_114548000" class="fil1" cx="5.34047" cy="6.32574" rx="0.0514983" ry="0.0499293"/>
      <ellipse id="_114547928" class="fil1" cx="5.57587" cy="6.68839" rx="0.0514983" ry="0.0499293"/>
      <polygon id="_114547856" class="fil1" points="5.05721,6.21651 5.6366,6.06984 5.05238,6.15722 "/>
      <polygon id="_114547784" class="fil1" points="4.78912,5.86986 5.37679,5.7583 4.7881,5.81038 "/>
      <path id="_114547712" class="fil1" d="M5.3292 6.60661l0.481218 -0.11859 -0.495706 0.0592951c0,0 0.0128774,0.0561743 0.0144878,0.0592951z"/>
      <path id="_114547640" class="fil4" d="M5.7557 5.2912l0.0193078 0.318321c0,0 -0.0370164,0.0436911 -0.156112,0.0265267l-0.0273597 -0.299596c0,0 0.0901254,0.0312079 0.164164,-0.0452515z"/>
      <path id="_114547568" class="fil3" d="M5.74605 5.10246l-0.189896 0.0195022 -0.0161148 -0.0663863c0,0 0.067458,-0.0530146 0.20279,-0.0343287l0.00322075 0.0812128z"/>
     </g>
    </g>
    <g>
     <path id="_114547448" class="fil1" d="M4.53076 4.92968c0.212908,0.0932517 0.424617,0.309758 0.528974,0.511244l0.0183805 0.0354837 -0.0168589 0.0361834c-0.0961837,0.206422 -0.319493,0.411678 -0.527308,0.51286l-0.0365999 0.0178196 -0.0373218 -0.0163481c-0.212908,-0.0932517 -0.424617,-0.309758 -0.528974,-0.511244l-0.0183805 -0.0354837 0.0168589 -0.0361834c0.0961837,-0.206422 0.319493,-0.411678 0.527308,-0.51286l0.0365999 -0.0178196 0.0373218 0.0163481z"/>
     <path id="_114547376" class="fil9" d="M4.4954 5.00559c0.191024,0.0836672 0.390038,0.284414 0.487566,0.472711 -0.0862938,0.185204 -0.293349,0.378155 -0.487566,0.472711 -0.191024,-0.0836672 -0.390038,-0.284414 -0.487566,-0.472711 0.0862938,-0.185204 0.293349,-0.378155 0.487566,-0.472711z"/>
     <path id="_114547304" class="fil10" d="M4.14897 5.48313c0,0 0.154507,-0.199731 0.34281,-0.269949 0,0 0.17984,0.0903642 0.367609,0.279122 0.013194,0.0132661 0.0240945,-0.0127941 0.0186526,-0.0325795 0,0 -0.239801,-0.318321 -0.374995,-0.343287 -0.135194,-0.0249663 -0.355682,0.305838 -0.376605,0.363572 -0.0209238,0.0577347 0.0257493,0.00624159 0.0225286,0.00312079z"/>
     <path id="_114547232" class="fil10" d="M4.4954 5.00559c0.176197,0.0771702 0.359174,0.253939 0.463049,0.428681 -0.242028,-0.280516 -0.461838,-0.374006 -0.461838,-0.374006 -0.213735,0.0685908 -0.455597,0.382808 -0.486039,0.423228 -0.000916247,-0.00173254 -0.0018436,-0.00345953 -0.00273764,-0.00519207 0.0862938,-0.185204 0.293349,-0.378155 0.487566,-0.472711z"/>
     <path id="_114547160" class="fil5" d="M4.04114 5.49249c0,0 0.146455,0.279311 0.449028,0.427549 0,0 0.267167,-0.0967446 0.463515,-0.436911 -0.0260103,0.0043258 -0.0520595,0.00830175 -0.0781031,0.0119501 -0.234243,0.290661 -0.392198,0.348435 -0.392198,0.348435 -0.207399,-0.12461 -0.349179,-0.338673 -0.349179,-0.338673 7.77422e-005,0.000188802 0.000483112,0.000188802 0.00115503,4.99771e-005 -0.0313912,-0.00361501 -0.0627824,-0.00773535 -0.094218,-0.0123999z"/>
     <path id="_114547088" class="fil5" d="M4.82171 5.49689c-0.203457,0.0237003 -0.425505,0.0275429 -0.630778,0.0102953 0.0453681,0.0636209 0.158366,0.187181 0.294165,0.268577 0,0 0.139819,-0.0441798 0.336612,-0.278872z"/>
     <g>
      <g>
       <g>
        <path id="_114547016" class="fil11" d="M4.4966 5.45054c-0.0312635,0.0302806 -0.096889,0.114536 -0.00297641,0.223453 0.0337623,-0.0327183 0.0969112,-0.116541 0.00297641,-0.223453zm-0.0234892 0.275679c-0.186831,-0.186925 0.005814,-0.327034 0.00635265,-0.327433l0.0107951 -0.008013 0.00996766 0.00324296 0.0114836 -0.000871823 0.00846279 0.00850721c0.185765,0.18687 -0.0128108,0.326795 -0.0133772,0.3272l-0.0180639 0.0129996 -0.0156206 -0.0156317z"/>
        <path id="_114546944" class="fil11" d="M4.49621 5.50605c-0.031269,-0.030275 -0.0968945,-0.114531 -0.00298197,-0.223453 0.0337623,0.0327239 0.0969112,0.116547 0.00298197,0.223453zm-0.0234948 -0.275679c-0.186826,0.186925 0.005814,0.327034 0.0063582,0.327439l0.0107951 0.008013 0.00996766 -0.00324851 0.0114836 0.000871823 0.00846279 -0.00850721c0.185765,-0.18687 -0.0128164,-0.326795 -0.0133828,-0.327195l-0.0180639 -0.0129996 -0.0156206 0.0156262z"/>
       </g>
       <g>
        <path id="_114546848" class="fil11" d="M4.46677 5.47713c0.0312301,0.0303139 0.118129,0.0939348 0.230472,0.00288757 -0.0337457,-0.032735 -0.120201,-0.0939625 -0.230472,-0.00288757zm0.284336 0.0227729c-0.192795,0.181134 -0.337307,-0.00563631 -0.337723,-0.00616384l-0.00826288 -0.0104619 0.00334847 -0.00966779 -0.000899588 -0.0111282 0.00877376 -0.00820735c0.19274,-0.180106 0.337062,0.0124221 0.337479,0.0129718l0.0134105 0.0175142 -0.0161259 0.0151431z"/>
        <path id="_114546776" class="fil11" d="M4.52403 5.4775c-0.0312357,0.0303139 -0.118135,0.0939403 -0.230472,0.00288757 0.0337457,-0.032735 0.120206,-0.093957 0.230472,-0.00288757zm-0.284342 0.0227785c0.192801,0.181134 0.337312,-0.00563631 0.337723,-0.00616384l0.00826288 -0.0104619 -0.00334291 -0.00966779 0.000894035 -0.0111338 -0.00876821 -0.00820735c-0.192745,-0.180106 -0.337062,0.0124276 -0.337479,0.0129718l-0.0134161 0.0175142 0.0161259 0.0151486z"/>
       </g>
      </g>
      <g>
       <g>
        <path id="_114546656" class="fil1" d="M4.66321 5.60885c0.0187025,0 0.0338789,0.0147099 0.0338789,0.0328405 0,0.0181361 -0.0151764,0.0328461 -0.0338789,0.0328461 -0.0187025,0 -0.0338734,-0.0147099 -0.0338734,-0.0328461 0,-0.0181306 0.0151708,-0.0328405 0.0338734,-0.0328405z"/>
        <path id="_114546584" class="fil1" d="M4.32758 5.60885c0.0187025,0 0.0338734,0.0147099 0.0338734,0.0328405 0,0.0181361 -0.0151708,0.0328461 -0.0338734,0.0328461 -0.0187025,0 -0.0338789,-0.0147099 -0.0338789,-0.0328461 0,-0.0181306 0.0151764,-0.0328405 0.0338789,-0.0328405z"/>
       </g>
       <g>
        <path id="_114546488" class="fil1" d="M4.66321 5.28205c0.0187025,0 0.0338789,0.0147099 0.0338789,0.0328461 0,0.0181361 -0.0151764,0.0328461 -0.0338789,0.0328461 -0.0187025,0 -0.0338734,-0.0147099 -0.0338734,-0.0328461 0,-0.0181361 0.0151708,-0.0328461 0.0338734,-0.0328461z"/>
        <path id="_114546416" class="fil1" d="M4.32758 5.28205c0.0187025,0 0.0338734,0.0147099 0.0338734,0.0328461 0,0.0181361 -0.0151708,0.0328461 -0.0338734,0.0328461 -0.0187025,0 -0.0338789,-0.0147099 -0.0338789,-0.0328461 0,-0.0181361 0.0151764,-0.0328461 0.0338789,-0.0328461z"/>
       </g>
      </g>
     </g>
     <path id="_114546272" class="fil11" d="M4.50714 5.08388c0.076415,0.0334569 0.153952,0.0894424 0.222237,0.15564 0.0706399,0.0684909 0.131967,0.148588 0.172271,0.226413l0.00611387 0.0118168 -0.00555301 0.011939c-0.0345064,0.0740827 -0.0922522,0.149259 -0.160532,0.215462 -0.0706399,0.0684909 -0.153258,0.127947 -0.233526,0.167024l-0.0121944 0.00593062 -0.0123055 -0.00538642c-0.076415,-0.0334569 -0.153952,-0.0894424 -0.222237,-0.15564 -0.0706399,-0.0684909 -0.131967,-0.148588 -0.172271,-0.226413l-0.00611942 -0.0118224 0.00555857 -0.0119334c0.0345064,-0.0740827 0.0922522,-0.149259 0.160532,-0.215462 0.0706399,-0.0684909 0.153258,-0.127947 0.233526,-0.167024l0.0121889 -0.00593617 0.012311 0.00539197zm0.181745 0.1949c-0.0600558,-0.0582178 -0.127114,-0.107695 -0.192984,-0.138786 -0.0706121,0.0362445 -0.143151,0.0894923 -0.206294,0.150714 -0.0600447,0.0582233 -0.111082,0.123227 -0.143146,0.187087 0.0373773,0.0684575 0.0923022,0.138803 0.155445,0.200025 0.0600558,0.0582178 0.127097,0.107673 0.192967,0.138764 0.0706121,-0.0362445 0.143168,-0.0894701 0.206311,-0.150692 0.0600447,-0.0582233 0.11106,-0.123244 0.143123,-0.187109 -0.0373829,-0.068452 -0.09228,-0.138781 -0.155423,-0.200003z"/>
    </g>
    <path id="_114546176" class="fil1" d="M5.19049 5.16886c0.0257937,0 0.051593,0 0.0773868,0 0.032002,0.152008 0.0499716,0.309686 0.0563298,0.472078 -0.0257937,0 -0.051593,0 -0.0773868,0 -0.00725779,-0.158489 -0.027704,-0.315689 -0.0563298,-0.472078z"/>
    <path id="_114546104" class="fil1" d="M3.79664 5.18138c-0.0257937,0 -0.051593,0 -0.0773868,0 -0.032002,0.152008 -0.0499716,0.309686 -0.0563298,0.472078 0.0257937,0 0.051593,0 0.0773868,0 0.00725779,-0.158489 0.027704,-0.315689 0.0563298,-0.472078z"/>
    <path id="_114546032" class="fil1" d="M5.96758 5.08853c0.0215013,0.00103841 0.042997,0.00207683 0.0644982,0.00310969 0.0201685,0.127975 0.0284092,0.260103 0.0267655,0.395702 -0.0215013,-0.00103841 -0.042997,-0.00207683 -0.0644982,-0.00311524 0.000727445,-0.132373 -0.00959005,-0.264207 -0.0267655,-0.395697z"/>
    <path id="_114545960" class="fil1" d="M3.01956 5.10105c-0.0215013,0.00103841 -0.042997,0.00207683 -0.0644982,0.00310969 -0.0201741,0.127975 -0.0284092,0.260103 -0.0267655,0.395702 0.0214957,-0.00103841 0.042997,-0.00207683 0.0644982,-0.00311524 -0.000727445,-0.132373 0.00959005,-0.264207 0.0267655,-0.395697z"/>
   </g>
   <g>
    <g>
     <g>
      <rect id="_114545864" class="fil1" transform="matrix(1.14457 -1.01632 0.529746 1.26094 3.15057 5.87307)" width="0.185687" height="0.185687"/>
      <rect id="_114545792" class="fil9" transform="matrix(0.657192 -0.583556 0.304171 0.724013 3.21677 5.88274)" width="0.185687" height="0.185687"/>
     </g>
     <g>
      <rect id="_114545696" class="fil1" transform="matrix(1.14457 -1.01632 0.529746 1.26094 3.01191 6.35137)" width="0.185687" height="0.185687"/>
      <rect id="_114545624" class="fil9" transform="matrix(0.657192 -0.583556 0.304171 0.724013 3.07811 6.36104)" width="0.185687" height="0.185687"/>
     </g>
    </g>
    <g>
     <g>
      <rect id="_114545504" class="fil1" transform="matrix(-1.14457 -1.01632 -0.529746 1.26094 5.84022 5.87307)" width="0.185687" height="0.185687"/>
      <rect id="_114545432" class="fil9" transform="matrix(-0.657192 -0.583556 -0.304171 0.724013 5.77403 5.88274)" width="0.185687" height="0.185687"/>
     </g>
     <g>
      <rect id="_114545336" class="fil1" transform="matrix(-1.14457 -1.01632 -0.529746 1.26094 5.97888 6.35137)" width="0.185687" height="0.185687"/>
      <rect id="_114545264" class="fil9" transform="matrix(-0.657192 -0.583556 -0.304171 0.724013 5.91269 6.36104)" width="0.185687" height="0.185687"/>
     </g>
    </g>
   </g>
  </g>
 </g>
</svg>
