<?xml version="1.0" encoding="UTF-8"?>
<!DOCTYPE svg PUBLIC "-//W3C//DTD SVG 1.1//EN" "http://www.w3.org/Graphics/SVG/1.1/DTD/svg11.dtd">
<!-- Creator: CorelDRAW -->
<svg xmlns="http://www.w3.org/2000/svg" xml:space="preserve" width="161.909mm" height="176.792mm" style="shape-rendering:geometricPrecision; text-rendering:geometricPrecision; image-rendering:optimizeQuality; fill-rule:evenodd; clip-rule:evenodd"
viewBox="0 0 22.9558 25.066"
 xmlns:xlink="http://www.w3.org/1999/xlink">
 <defs>
  <style type="text/css">
   <![CDATA[
    .fil0 {fill:none}
    .fil1 {fill:#501D33}
    .fil6 {fill:#75414C}
    .fil3 {fill:#955B58}
    .fil4 {fill:#BB8778}
    .fil2 {fill:#C8A79C}
    .fil5 {fill:#CFA88B}
   ]]>
  </style>
 </defs>
 <g id="Layer_x0020_1">
  <metadata id="CorelCorpID_0Corel-Layer"/>
  <rect class="fil0" width="22.9558" height="25.066"/>
  <g id="_123728096">
   <g>
    <polygon id="_123731024" class="fil1" points="14.9376,18.7803 13.091,19.2663 13.1766,19.3739 14.8778,19.4576 "/>
    <path id="_123730952" class="fil2" d="M13.3061 19.332l1.45419 -0.322711 -0.0675167 0.480075c0,0 -1.37472,-0.0896347 -1.38667,-0.157364z"/>
   </g>
   <g>
    <polygon id="_123730856" class="fil1" points="12.8599,18.8002 14.6786,19.2982 14.581,19.4018 12.8918,19.4934 "/>
    <path id="_123730784" class="fil2" d="M14.4515 19.3599l-1.45419 -0.322711 0.00796816 0.47809c0,0 1.43427,-0.0876498 1.44622,-0.155379z"/>
   </g>
   <polygon id="_123730688" class="fil1" points="14.8172,21.0178 15.7121,22.1006 15.6966,22.6115 12.6974,22.6275 12.7755,20.9497 "/>
   <polygon id="_123730616" class="fil3" points="14.5652,21.0497 15.4615,22.0932 15.4615,22.4206 12.9403,22.4341 13.006,21.0197 "/>
   <path id="_123730544" class="fil4" d="M14.5653 21.0497l0.898176 1.0332 -1.74649 -0.0280162c0,0 -0.531258,-0.341057 -0.734177,-0.535497l0.0231956 -0.49974 1.55929 0.0300578z"/>
   <polygon id="_123730472" class="fil5" points="14.7854,21.303 15.4634,22.0829 14.8358,22.0729 15.2445,21.9867 "/>
   <polygon id="_123730400" class="fil6" points="13.9154,22.4289 12.9403,22.4341 13.0006,21.0529 13.3851,21.0549 13.9197,22.0528 "/>
   <polygon id="_123730328" class="fil1" points="12.8352,22.1268 14.2534,22.065 12.8508,21.8713 "/>
   <path id="_123730256" class="fil1" d="M14.9451 20.5077c0.0100382,-0.0731313 -0.0130298,-0.145653 -0.0648087,-0.198892 -0.0471993,-0.0485179 -0.115042,-0.0759811 -0.181992,-0.079951l-0.00643691 -0.000368634 -1.95879 0.00832262 -0.0383379 0.153352c-0.0533385,0.213368 0.00218345,0.4748 0.131999,0.652907l0.0589814 0.0809293 1.85604 0.047809 0.057833 -0.11568c0.07669,-0.153323 0.12552,-0.375496 0.145511,-0.548428z"/>
   <path id="_123730184" class="fil3" d="M14.7783 20.4732c0,0 -0.0355732,0.312205 -0.130411,0.501895l-1.68748 -0.0434704c0,0 -0.169926,-0.233161 -0.10275,-0.501895l1.86136 -0.00789727c0,0 0.0671764,0.00394155 0.0592792,0.0513677z"/>
   <path id="_123730112" class="fil6" d="M14.6827 20.8937c-0.0105911,0.0286258 -0.0222031,0.0561458 -0.0348501,0.0814397l-1.68748 -0.0434704c0,0 -0.00578472,-0.00799652 -0.0148162,-0.022671l0.207144 -0.190484 1.53 0.175186z"/>
   <path id="_123730040" class="fil6" d="M13.4848 20.9451l-0.524438 -0.0135119c0,0 -0.169926,-0.233175 -0.10275,-0.501909l0.62085 -0.00263715c0.00297743,0.193575 0.00503327,0.365784 0.00633767,0.518058z"/>
   <path id="_123729968" class="fil1" d="M14.9969 19.5859c0.011853,-0.159959 -0.124669,-0.266551 -0.273342,-0.265275l-0.00467881 4.25347e-005 -1.84035 0.0981133c-0.148758,0.0197928 -0.183041,0.0212815 -0.237457,0.161391 -0.0509849,0.20998 -0.0128455,0.476147 0.0973052,0.663966l0.0623842 0.106351 2.02669 -0.0793414 0.0523035 -0.116914c0.0715292,-0.159874 0.108591,-0.390681 0.117141,-0.568334z"/>
   <path id="_123729896" class="fil3" d="M14.8472 19.5647c0,0 -0.0143909,0.316458 -0.10248,0.513706l-1.83183 0.0707919c0,0 -0.145355,-0.247835 -0.0775265,-0.527926l1.94362 -0.104238c0,0 0.0731029,-0.000581307 0.0682114,0.0476672z"/>
   <path id="_123729824" class="fil6" d="M13.4735 20.1276l-0.560536 0.0216502c0,0 -0.145341,-0.247807 -0.0775124,-0.527898l0.635057 -0.0340561c-0.0013044,0.169033 -0.000581307,0.342886 0.00266551,0.521773l0.000326099 0.0185309z"/>
   <path id="_123729752" class="fil4" d="M14.8472 19.5647c0,0 -0.0143625,0.316458 -0.102466,0.513706l-0.00287818 0.000113426c0.0371753,-0.19315 0.00974044,-0.426169 0.00974044,-0.426169 0.00489149,-0.0482485 -0.0682114,-0.0476672 -0.0682114,-0.0476672l-1.84932 0.0223165 0.00131858 -0.005728 1.94362 -0.104238c0,0 0.0731029,-0.000581307 0.0681973,0.0476672z"/>
   <polygon id="_123729680" class="fil1" points="13.5342,19.383 13.4914,19.8659 13.1846,19.8858 13.1448,19.4 13.1919,19.3245 13.4908,19.3196 "/>
   <polygon id="_123729608" class="fil6" points="13.3789,20.1045 14.7228,20.0568 13.3988,19.9457 "/>
   <g>
    <polygon id="_123729536" class="fil1" points="8.09337,18.8121 10.0404,19.2103 9.91001,19.3739 8.13242,19.4576 "/>
    <path id="_123729464" class="fil2" d="M9.77162 19.332l-1.5185 -0.314742 0.0363104 0.472107c0,0 1.46942,-0.0896347 1.48219,-0.157364z"/>
   </g>
   <g>
    <polygon id="_123729368" class="fil1" points="10.2494,18.816 8.20919,19.3817 8.40885,19.4018 10.2263,19.5412 "/>
    <path id="_123729296" class="fil2" d="M8.49419 19.4135l1.60741 -0.376304 -0.00852111 0.47809c0,0 -1.5861,-0.0340561 -1.59889,-0.101785z"/>
   </g>
   <polygon id="_123729200" class="fil1" points="8.15639,21.0178 7.1998,22.1006 7.21646,22.6115 10.4222,22.6275 10.3387,20.9497 "/>
   <polygon id="_123729128" class="fil3" points="8.42569,21.0497 7.46776,22.0932 7.46776,22.4206 10.1626,22.4341 10.0924,21.0197 "/>
   <path id="_123729056" class="fil4" d="M8.42568 21.0497l-0.96005 1.0332 1.86679 -0.0280162c0,0 0.567852,-0.341057 0.784765,-0.535497l-0.0247977 -0.49974 -1.66671 0.0300578z"/>
   <polygon id="_123728984" class="fil5" points="8.19035,21.303 7.46563,22.0829 8.13649,22.0729 7.69964,21.9867 "/>
   <polygon id="_123728912" class="fil6" points="9.12026,22.4289 10.1626,22.4341 10.0982,21.0529 9.68715,21.0549 9.11573,22.0528 "/>
   <polygon id="_123728840" class="fil1" points="10.2749,22.1268 8.75907,22.065 10.2582,21.8713 "/>
   <path id="_123728768" class="fil1" d="M8.01969 20.5077c-0.0107329,-0.0731313 0.013923,-0.145653 0.0692748,-0.198892 0.0504461,-0.0485179 0.122954,-0.0759811 0.194525,-0.079951l0.00687644 -0.000368634 2.09371 0.00832262 0.0409893 0.153352c0.0570107,0.213368 -0.00233941,0.4748 -0.141088,0.652907l-0.0630506 0.0809293 -1.9839 0.047809 -0.0618171 -0.11568c-0.0819643,-0.153323 -0.134154,-0.375496 -0.155521,-0.548428z"/>
   <path id="_123728696" class="fil3" d="M8.19798 20.4732c0,0 0.0380118,0.312205 0.1394,0.501895l1.80371 -0.0434704c0,0 0.181637,-0.233161 0.109825,-0.501895l-1.98957 -0.00789727c0,0 -0.0718127,0.00394155 -0.0633625,0.0513677z"/>
   <path id="_123728624" class="fil6" d="M8.30012 20.8937c0.0113284,0.0286258 0.0237344,0.0561458 0.0372604,0.0814397l1.80371 -0.0434704c0,0 0.00618171,-0.00799652 0.0158371,-0.022671l-0.221407 -0.190484 -1.6354 0.175186z"/>
   <path id="_123728552" class="fil6" d="M9.58053 20.9451l0.560565 -0.0135119c0,0 0.181637,-0.233175 0.109825,-0.501909l-0.663612 -0.00263715c-0.00317592,0.193575 -0.00537355,0.365784 -0.00677719,0.518058z"/>
   <path id="_123728480" class="fil1" d="M7.96856 19.6457c-0.0126612,-0.159959 0.133261,-0.266551 0.292171,-0.265275l0.00500491 4.25347e-005 1.96712 0.0981133c0.159009,0.0197928 0.195645,0.0212815 0.253819,0.161391 0.0545011,0.20998 0.0137387,0.476147 -0.104011,0.663966l-0.0666802 0.106351 -2.16631 -0.0793414 -0.0559047 -0.116914c-0.076449,-0.159874 -0.116063,-0.390681 -0.125208,-0.568334z"/>
   <path id="_123728408" class="fil3" d="M8.12855 19.6245c0,0 0.0153692,0.316458 0.109527,0.513706l1.95801 0.0707919c0,0 0.155379,-0.247835 0.0828717,-0.527926l-2.07751 -0.104238c0,0 -0.0781362,-0.000581307 -0.0729044,0.0476672z"/>
   <path id="_123728336" class="fil6" d="M9.59696 20.1873l0.599144 0.0216502c0,0 0.155351,-0.247807 0.0828576,-0.527898l-0.678811 -0.0340561c0.00140364,0.169033 0.000623842,0.342886 -0.00284982,0.521773l-0.000340277 0.0185309z"/>
   <path id="_123728264" class="fil4" d="M8.12855 19.6245c0,0 0.015355,0.316458 0.109527,0.513706l0.00307668 0.000113426c-0.0397274,-0.19315 -0.0104068,-0.426169 -0.0104068,-0.426169 -0.00523177,-0.0482485 0.0729044,-0.0476672 0.0729044,-0.0476672l1.97671 0.0223165 -0.00140364 -0.005728 -2.07751 -0.104238c0,0 -0.0781362,-0.000581307 -0.0729044,0.0476672z"/>
   <polygon id="_123728192" class="fil6" points="9.69798,20.1642 8.2616,20.1166 9.67677,20.0054 "/>
   <polygon id="_123728120" class="fil1" points="9.99133,19.4828 9.94554,19.9657 9.61764,19.9856 9.57508,19.4998 9.62544,19.4243 9.94488,19.4194 "/>
  </g>
 </g>
</svg>
