<?xml version="1.0" encoding="UTF-8"?>
<!DOCTYPE svg PUBLIC "-//W3C//DTD SVG 1.1//EN" "http://www.w3.org/Graphics/SVG/1.1/DTD/svg11.dtd">
<!-- Creator: CorelDRAW -->
<svg xmlns="http://www.w3.org/2000/svg" xml:space="preserve" width="129.436mm" height="197.989mm" style="shape-rendering:geometricPrecision; text-rendering:geometricPrecision; image-rendering:optimizeQuality; fill-rule:evenodd; clip-rule:evenodd"
viewBox="0 0 33.0459 50.5478"
 xmlns:xlink="http://www.w3.org/1999/xlink">
 <defs>
  <style type="text/css">
   <![CDATA[
    .fil0 {fill:none}
    .fil1 {fill:#501D33}
    .fil4 {fill:#CF6067}
    .fil2 {fill:#FF9E91}
    .fil5 {fill:#FFB8A7}
    .fil3 {fill:white}
   ]]>
  </style>
 </defs>
 <g id="Layer_x0020_1">
  <metadata id="CorelCorpID_0Corel-Layer"/>
  <g id="_114340216">
   <rect id="_89664592" class="fil0" width="33.0459" height="50.5478"/>
   <g id="_162521936">
    <g>
     <path id="_161809008" class="fil1" d="M7.53105 19.107c0,0 -0.932532,-1.02291 -1.96124,-0.809755 -1.02873,0.213155 -1.71464,1.84898 -1.71928,2.44479 -0.00298708,0.381657 0.639849,1.02557 1.10226,1.43906 0.544364,0.486767 0.595323,0.476095 0.503949,1.28205 -0.0818512,0.721649 -0.475533,1.49934 1.092,1.95447 1.5675,0.455109 1.80535,-2.6477 1.80535,-2.6477 0,0 -0.0452403,-2.84587 -0.823031,-3.6629z"/>
     <path id="_162522416" class="fil2" d="M4.4037 20.7526c0.0418447,0.159873 0.372696,0.519778 0.483499,0.633977 0.823465,0.84874 1.24411,0.736022 1.08903,2.10406 -0.0126887,0.111824 -0.031658,0.22255 -0.0505762,0.33343 -0.025403,0.14892 -0.0649244,0.352884 -0.0407979,0.502877 0.0495039,0.307542 0.554244,0.462819 0.797883,0.533539 0.10271,0.0298198 0.204526,0.0382704 0.303432,-0.00804215 0.512936,-0.240167 0.768804,-1.58737 0.814606,-2.1159 -0.015395,-0.761145 -0.183004,-2.71794 -0.666375,-3.22572l-0.00380406 -0.00398278 -0.00370194 -0.0040849c-0.325464,-0.351914 -0.945578,-0.741741 -1.4435,-0.638572 -0.328298,0.0680136 -0.620803,0.412396 -0.796377,0.677583 -0.181523,0.274173 -0.472649,0.86845 -0.48332,1.21084z"/>
     <path id="_102330456" class="fil3" d="M4.4037 20.7526l0.00148078 0.00525931c0.129619,-0.294904 0.636019,-1.36063 1.25912,-1.5457 0.501549,-0.148971 1.11293,0.100795 1.44189,0.268684 -0.330494,-0.34594 -0.935187,-0.717691 -1.4228,-0.616667 -0.328298,0.0680136 -0.620803,0.412396 -0.796377,0.677583 -0.181523,0.274173 -0.472649,0.86845 -0.48332,1.21084z"/>
     <path id="_162521960" class="fil4" d="M6.74578 19.1763c0.0787109,0.290998 0.156707,0.782284 -0.0986248,1.07617l0.711334 0.372849 0.0525931 -0.591723c-0.0779195,-0.226252 -0.169498,-0.410124 -0.276675,-0.522714l-0.00380406 -0.00398278 -0.00370194 -0.0040849c-0.10225,-0.110573 -0.233631,-0.224925 -0.381121,-0.326511z"/>
     <path id="_162120272" class="fil4" d="M5.99431 24.0332c0,0 0.0358705,0.552406 0.882415,0.695888 0,0 0.344357,-0.100437 0.573929,-0.552406 0.229571,-0.451969 -0.55958,0.667192 -1.45634,-0.143482z"/>
     <path id="_162522032" class="fil4" d="M5.01557 20.6684c1.31529,0.979304 0.976853,2.43212 2.66596,3.12548 1.21957,0.50063 -0.21507,-4.37615 -1.68857,-3.91553 -0.311142,0.0972972 -0.721904,0.465474 -0.977389,0.790045z"/>
     <path id="_162519008" class="fil2" d="M4.85036 20.6653c0,0 0.609799,-0.265442 1.83657,0.179353 0,0 -0.602625,-0.136308 -1.77918,0.15783l-0.12196 -0.107612 0.064567 -0.229571z"/>
     <path id="_162120200" class="fil2" d="M7.2906 21.4161c0,0 -0.353854,0.707709 -0.3753,0.864978 -0.0214457,0.157269 0.321686,0.907869 0.321686,0.907869 0,0 -0.611203,-0.629075 -0.654095,-0.875701 -0.0428915,-0.246626 0.621926,-1.12947 0.621926,-1.12947l0.0857829 0.232329z"/>
     <path id="_162524528" class="fil1" d="M7.35739 21.2425c0,0 -0.695888,0.825022 -0.638495,1.11199 0.0573929,0.286964 0.674366,1.03307 0.674366,1.03307 0,0 -0.652844,-0.451969 -0.982853,-0.96133 -0.330009,-0.509362 0.889589,-1.54243 0.889589,-1.54243l0.0573929 0.358705z"/>
     <path id="_163727400" class="fil1" d="M4.99711 20.7188c0,0 0.476504,-0.936617 1.17334,-0.947186 0.27065,-0.0256327 1.13895,0.48909 1.35042,0.760787 0.235929,0.303125 -0.15515,0.602753 -0.15515,0.602753 0,0 -1.32118,-1.70769 -2.3686,-0.416353z"/>
     <path id="_102488464" class="fil5" d="M6.06184 23.7267c0.0755196,-0.51628 0.574924,-0.584371 0.867684,-0.178204 0.399937,0.554908 -0.910575,0.471398 -0.867684,0.178204z"/>
    </g>
    <g>
     <path id="_162522272" class="fil1" d="M25.8024 19.1069c0,0 0.932532,-1.02291 1.96124,-0.809755 1.02873,0.213155 1.71464,1.84898 1.71928,2.44479 0.00298708,0.381657 -0.639849,1.02557 -1.10226,1.43906 -0.544364,0.486767 -0.595323,0.476095 -0.503949,1.28205 0.0818512,0.721649 0.475533,1.49934 -1.092,1.95447 -1.5675,0.455109 -1.80535,-2.6477 -1.80535,-2.6477 0,0 0.0452403,-2.84587 0.823031,-3.6629z"/>
     <path id="_162120632" class="fil2" d="M28.9297 20.7526c-0.0418447,0.159873 -0.372696,0.519778 -0.483499,0.633977 -0.823465,0.84874 -1.24411,0.736022 -1.08903,2.10406 0.0126887,0.111824 0.031658,0.22255 0.0505762,0.33343 0.025403,0.14892 0.0649244,0.352884 0.0407979,0.502877 -0.0495039,0.307542 -0.554244,0.462819 -0.797883,0.533539 -0.10271,0.0298198 -0.204526,0.0382704 -0.303432,-0.00804215 -0.512936,-0.240167 -0.768804,-1.58737 -0.814606,-2.1159 0.015395,-0.761145 0.183004,-2.71794 0.666375,-3.22572l0.00380406 -0.00398278 0.00370194 -0.0040849c0.325464,-0.351914 0.945578,-0.741741 1.4435,-0.638572 0.328298,0.0680136 0.620803,0.412396 0.796377,0.677583 0.181523,0.274173 0.472649,0.86845 0.48332,1.21084z"/>
     <path id="_162260312" class="fil3" d="M28.9297 20.7526l-0.00148078 0.00525931c-0.129619,-0.294904 -0.636019,-1.36063 -1.25912,-1.5457 -0.501549,-0.148971 -1.11293,0.100795 -1.44189,0.268684 0.330494,-0.34594 0.935187,-0.717691 1.4228,-0.616667 0.328298,0.0680136 0.620803,0.412396 0.796377,0.677583 0.181523,0.274173 0.472649,0.86845 0.48332,1.21084z"/>
     <path id="_162523088" class="fil4" d="M26.5877 19.1762c-0.0787109,0.290998 -0.156707,0.782284 0.0986248,1.07617l-0.711334 0.372849 -0.0525931 -0.591723c0.0779195,-0.226252 0.169498,-0.410124 0.276675,-0.522714l0.00380406 -0.00398278 0.00370194 -0.0040849c0.10225,-0.110573 0.233631,-0.224925 0.381121,-0.326511z"/>
     <path id="_162523472" class="fil4" d="M27.3391 24.0332c0,0 -0.0358705,0.552406 -0.882415,0.695888 0,0 -0.344357,-0.100437 -0.573929,-0.552406 -0.229571,-0.451969 0.55958,0.667192 1.45634,-0.143482z"/>
     <path id="_162523616" class="fil4" d="M28.3179 20.6684c-1.31529,0.979304 -0.976853,2.43212 -2.66596,3.12548 -1.21957,0.50063 0.21507,-4.37615 1.68857,-3.91553 0.311142,0.0972972 0.721904,0.465474 0.977389,0.790045z"/>
     <path id="_162524048" class="fil2" d="M28.4831 20.6653c0,0 -0.609799,-0.265442 -1.83657,0.179353 0,0 0.602625,-0.136308 1.77918,0.15783l0.12196 -0.107612 -0.064567 -0.229571z"/>
     <path id="_162523832" class="fil2" d="M26.0428 21.4161c0,0 0.353854,0.707709 0.3753,0.864978 0.0214457,0.157269 -0.321686,0.907869 -0.321686,0.907869 0,0 0.611203,-0.629075 0.654095,-0.875701 0.0428915,-0.246626 -0.621926,-1.12947 -0.621926,-1.12947l-0.0857829 0.232329z"/>
     <path id="_162523688" class="fil1" d="M25.976 21.2425c0,0 0.695888,0.825022 0.638495,1.11199 -0.0573929,0.286964 -0.674366,1.03307 -0.674366,1.03307 0,0 0.652844,-0.451969 0.982853,-0.96133 0.330009,-0.509362 -0.889589,-1.54243 -0.889589,-1.54243l-0.0573929 0.358705z"/>
     <path id="_162522344" class="fil1" d="M28.3363 20.7187c0,0 -0.476504,-0.936617 -1.17334,-0.947186 -0.27065,-0.0256327 -1.13895,0.48909 -1.35042,0.760787 -0.235929,0.303125 0.15515,0.602753 0.15515,0.602753 0,0 1.32118,-1.70769 2.3686,-0.416353z"/>
     <path id="_162120776" class="fil5" d="M27.2716 23.7266c-0.0755196,-0.51628 -0.574924,-0.584371 -0.867684,-0.178204 -0.399937,0.554908 0.910575,0.471398 0.867684,0.178204z"/>
    </g>
   </g>
  </g>
 </g>
</svg>
