<?xml version="1.0" encoding="UTF-8"?>
<!DOCTYPE svg PUBLIC "-//W3C//DTD SVG 1.1//EN" "http://www.w3.org/Graphics/SVG/1.1/DTD/svg11.dtd">
<!-- Creator: CorelDRAW -->
<svg xmlns="http://www.w3.org/2000/svg" xml:space="preserve" width="129.436mm" height="197.989mm" style="shape-rendering:geometricPrecision; text-rendering:geometricPrecision; image-rendering:optimizeQuality; fill-rule:evenodd; clip-rule:evenodd"
viewBox="0 0 5.85558 8.95682"
 xmlns:xlink="http://www.w3.org/1999/xlink">
 <defs>
  <style type="text/css">
   <![CDATA[
    .fil4 {fill:none}
    .fil0 {fill:#501D33}
    .fil2 {fill:#CF6067}
    .fil1 {fill:#FF9E91}
    .fil3 {fill:white}
   ]]>
  </style>
 </defs>
 <g id="Layer_x0020_1">
  <metadata id="CorelCorpID_0Corel-Layer"/>
  <g id="_113853448">
   <g id="_162382976">
    <path id="_162382520" class="fil0" d="M4.50644 3.31187c0,0 0.333484,-0.280355 0.524524,-0.232583 0.19104,0.0477724 0.283952,0.326097 -0.125629,0.965781 0,0 -0.00160599,0.408979 -0.401754,0.30131l-0.0163403 -0.0198328c0,0 -0.016458,-0.790833 0.0191994,-1.01468zm-3.1573 -4.5239e-006c0,0 -0.333484,-0.280355 -0.524524,-0.232583 -0.19104,0.0477724 -0.283952,0.326097 0.125629,0.965781 0,0 0.00160599,0.408979 0.401754,0.30131l0.0163403 -0.0198328c0,0 0.016458,-0.790833 -0.0191994,-1.01468z"/>
    <path id="_162382424" class="fil1" d="M4.47417 3.43412c0,0 0.16001,-0.130415 0.333638,-0.206231 0.236808,-0.103398 0.353606,-0.0637509 0.281527,0.227077 -0.0331014,0.133546 -0.118173,0.3235 -0.309526,0.585986l0.0398646 0.0140015c0,0 -0.0198328,0.298949 -0.343251,0.203119 0,0 -0.0149832,0.00347888 -0.0227009,-0.0121512 -0.00771778,-0.0156346 -0.0797609,-0.337343 0.020448,-0.811806l0 4.5239e-006zm-3.09276 -4.5239e-006c0,0 -0.16001,-0.130415 -0.333638,-0.206231 -0.236808,-0.103398 -0.353606,-0.0637509 -0.281527,0.227077 0.0331014,0.133546 0.118173,0.3235 0.309526,0.585986l-0.0398646 0.0140015c0,0 0.0198328,0.298949 0.343251,0.203119 0,0 0.0149832,0.00347888 0.0227009,-0.0121512 0.00771778,-0.0156346 0.0797609,-0.337343 -0.020448,-0.811806l0 4.5239e-006z"/>
    <path id="_162802080" class="fil2" d="M1.38141 3.43411c0,0 -0.16001,-0.130415 -0.333638,-0.206231 -0.0291701,-0.0127348 -0.0565081,-0.0232891 -0.0819143,-0.0314818 0.0393489,0.0640223 0.0959203,0.186977 0.0619956,0.32654l-0.0852484 -0.0650899c0,0 -0.0405523,0.176631 0.0124498,0.332163 0.0475915,0.139666 0.172858,0.178554 0.217541,0.303111 0.0168923,0.0470803 0.027062,0.086963 -0.00722015,0.164657 0.0498172,0.0224702 0.118657,0.0284735 0.213782,0.00028953 0,0 0.0149832,0.00347888 0.0227009,-0.0121512 0.00771778,-0.0156346 0.0797609,-0.337343 -0.020448,-0.811806zm3.09276 4.5239e-006c0,0 0.16001,-0.130415 0.333638,-0.206231 0.0291701,-0.0127348 0.0565081,-0.0232891 0.0819143,-0.0314818 -0.0393489,0.0640223 -0.0959203,0.186977 -0.0619956,0.32654l0.0852484 -0.0650899c0,0 0.0405523,0.176631 -0.0124498,0.332163 -0.0475915,0.139666 -0.172858,0.178554 -0.217541,0.303111 -0.0168923,0.0470803 -0.027062,0.086963 0.00722015,0.164657 -0.0498172,0.0224702 -0.118657,0.0284735 -0.213782,0.00028953 0,0 -0.0149832,0.00347888 -0.0227009,-0.0121512 -0.00771778,-0.0156346 -0.0797609,-0.337343 0.020448,-0.811806z"/>
    <path id="_102488056" class="fil3" d="M4.8522 3.20968c0.206711,-0.0789919 0.304554,-0.0267363 0.237134,0.245291 -0.0310928,0.125443 -0.108058,0.30065 -0.275863,0.538996 0.0704417,-0.125647 0.269294,-0.484845 0.2375,-0.672646 -0.0133908,-0.0791276 -0.0821858,-0.1211 -0.198771,-0.111641zm-3.84882 -4.5239e-006c-0.206711,-0.0789919 -0.304554,-0.0267363 -0.237134,0.245291 0.0310928,0.125443 0.108058,0.30065 0.275863,0.538996 -0.0704417,-0.125647 -0.269294,-0.484845 -0.2375,-0.672646 0.0133908,-0.0791276 0.0821858,-0.1211 0.198771,-0.111641z"/>
    <path id="_102488392" class="fil0" d="M4.49098 3.84273c0,0 0.276818,-0.327608 0.437778,-0.395566 0,0 -0.0696862,0.069926 -0.155767,0.164064 0.00638323,0.01259 0.0152094,0.0322826 0.0225879,0.0571188 0.0531694,-0.0176342 0.180341,-0.0593672 0.189258,-0.058001 0.008894,0.00136622 -0.122358,0.0753185 -0.178554,0.106692 0.00739206,0.0515816 0.00384079,0.114731 -0.0302378,0.179518 0,0 -0.0238681,0.042579 -0.0808648,0.0656283 0,0 0.11835,-0.110306 0.0274827,-0.295162 -0.0737034,0.0829051 -0.151601,0.176143 -0.204824,0.254963l-0.0133727 -0.0352819 -0.0134858 -0.0439723zm-3.12639 -4.5239e-006c0,0 -0.276818,-0.327608 -0.437778,-0.395566 0,0 0.0696862,0.0699305 0.155772,0.164068 -0.0063787,0.0125945 -0.0152139,0.0322871 -0.0225924,0.0571143 -0.0531694,-0.0176342 -0.180341,-0.0593672 -0.189258,-0.058001 -0.008894,0.00136622 0.122358,0.0753185 0.178554,0.106692 -0.00739206,0.0515906 -0.00384079,0.114731 0.0302378,0.179518 0,0 0.0238681,0.042579 0.0808648,0.0656283 0,0 -0.11835,-0.110306 -0.0274827,-0.295162 0.0737034,0.0829051 0.151601,0.176147 0.204824,0.254963l0.0133727 -0.0352819 0.0134858 -0.0439723z"/>
    <path id="_102489208" class="fil1" d="M4.7195 3.70451c0,0 0.061792,0.127538 -0.0228774,0.229018 0,0 -0.0106538,0.00844613 -0.0185525,0.00363269 -0.00790326,-0.00480891 0.00764992,-0.16728 0.0414299,-0.232651zm-3.58342 -4.5239e-006c0,0 -0.061792,0.127538 0.0228774,0.229018 0,0 0.0106538,0.00844613 0.0185525,0.00363269 0.00790326,-0.00480891 -0.00764992,-0.16728 -0.0414299,-0.232651z"/>
   </g>
   <rect id="_114008544" class="fil4" width="5.85558" height="8.95683"/>
  </g>
 </g>
</svg>
