<?xml version="1.0" encoding="UTF-8"?>
<!DOCTYPE svg PUBLIC "-//W3C//DTD SVG 1.1//EN" "http://www.w3.org/Graphics/SVG/1.1/DTD/svg11.dtd">
<!-- Creator: CorelDRAW -->
<svg xmlns="http://www.w3.org/2000/svg" xml:space="preserve" width="129.436mm" height="197.989mm" style="shape-rendering:geometricPrecision; text-rendering:geometricPrecision; image-rendering:optimizeQuality; fill-rule:evenodd; clip-rule:evenodd"
viewBox="0 0 11.6633 17.8405"
 xmlns:xlink="http://www.w3.org/1999/xlink">
 <defs>
  <style type="text/css">
   <![CDATA[
    .fil0 {fill:none}
    .fil1 {fill:#501D33}
    .fil3 {fill:#CF6067}
    .fil2 {fill:#FF9E91}
    .fil4 {fill:white}
   ]]>
  </style>
 </defs>
 <g id="Layer_x0020_1">
  <metadata id="CorelCorpID_0Corel-Layer"/>
  <g id="_113852848">
   <rect id="_114136136" class="fil0" width="11.6633" height="17.8405"/>
   <g id="_162383504">
    <path id="_162382904" class="fil1" d="M9.04544 6.61745c0,0 0.388819,-0.351793 0.890661,-0.435162 0.334664,-0.05557 0.471187,0.0316552 0.398055,0.370076 -0.100462,0.4646 -0.321949,1.01012 -0.577669,1.37464 0,0 -0.297836,0.592275 -0.803085,0.492732 -0.505248,-0.0995431 0.092037,-1.80228 0.092037,-1.80228l0 -9.01087e-006zm-6.43241 0.00253205c0,0 -0.387386,-0.350496 -0.887363,-0.433549 -0.33342,-0.0553628 -0.469439,0.031538 -0.396568,0.368698 0.100084,0.462879 0.320742,1.00637 0.575515,1.36954 0,0 0.296728,0.590077 0.800102,0.490912 0.503383,-0.0991826 -0.0916856,-1.7956 -0.0916856,-1.7956l0 -9.01087e-006z"/>
    <path id="_162382832" class="fil2" d="M9.09009 6.80018c0,0 0.455184,-0.396686 0.875532,-0.431134 0.206187,-0.0168683 0.222433,0.102697 0.173315,0.271678 -0.132135,0.454184 -0.54705,1.58928 -1.14869,1.63258l-0.0155257 -0.552105 0.115375 -0.921028 -9.01087e-006 9.01087e-006zm-6.51981 0c0,0 -0.455184,-0.396686 -0.875532,-0.431134 -0.206187,-0.0168683 -0.222433,0.102697 -0.173315,0.271678 0.132135,0.454184 0.54705,1.58928 1.14869,1.63258l0.0155257 -0.552105 -0.115375 -0.921028 9.01087e-006 9.01087e-006z"/>
    <path id="_162382496" class="fil3" d="M9.09008 6.80018c0,0 0.0849815,-0.0740243 0.215378,-0.160916 -0.0352235,0.146138 -0.0656262,0.414914 0.177145,0.443082l-0.0027393 0.014931c0.150707,-0.119601 0.314723,-0.246952 0.426584,-0.326022 0,0 -0.201961,0.835389 -0.605765,1.05558 -0.0476855,0.102354 -0.0960559,0.248141 -0.0552276,0.360642 -0.0807734,0.0487488 -0.165908,0.0794038 -0.255215,0.0858285l-0.0155257 -0.552096 0.115366 -0.921028zm-6.5198 0c0,0 -0.0849815,-0.0740243 -0.215378,-0.160916 0.0352235,0.146138 0.0656262,0.414914 -0.177145,0.443082l0.0027393 0.014931c-0.150707,-0.119601 -0.314723,-0.246952 -0.426584,-0.326022 0,0 0.201961,0.835389 0.605765,1.05558 0.0476855,0.102354 0.0960559,0.248141 0.0552276,0.360642 0.0807734,0.0487488 0.165908,0.0794038 0.255215,0.0858285l0.0155257 -0.552096 -0.115366 -0.921028z"/>
    <path id="_162382592" class="fil4" d="M2.57029 6.80018c0,0 -0.455193,-0.396686 -0.875541,-0.431134 -0.206187,-0.0168683 -0.222424,0.102697 -0.173324,0.271678 0.0891085,0.306261 0.306847,0.922055 0.623651,1.304 -0.313632,-0.522883 -0.529353,-1.25939 -0.53521,-1.34717 -0.00792055,-0.118898 0.0426575,-0.132748 0.140957,-0.129405 0.304252,0.0104256 0.659866,0.228155 0.820142,0.337484l-0.000675815 -0.00546059 0 9.01087e-006zm6.5198 0c0,0 0.455193,-0.396686 0.875541,-0.431134 0.206187,-0.0168683 0.222424,0.102697 0.173324,0.271678 -0.0891085,0.306261 -0.306847,0.922055 -0.623651,1.304 0.313632,-0.522883 0.529353,-1.25939 0.53521,-1.34717 0.00792055,-0.118898 -0.0426575,-0.132748 -0.140957,-0.129405 -0.304252,0.0104256 -0.659866,0.228155 -0.820142,0.337484l0.000675815 -0.00546059 0 9.01087e-006z"/>
    <path id="_162382760" class="fil2" d="M9.36472 7.26844c-0.0281319,0.00838912 -0.0364129,0.0579038 -0.0184813,0.110572 0.0179226,0.0526595 0.0552907,0.0885678 0.0834226,0.0801787 0.0281319,-0.00838912 0.0364129,-0.0579038 0.0184903,-0.110572 -0.0179316,-0.0526595 -0.0552907,-0.0885678 -0.0834316,-0.0801787zm-7.06907 0c0.0281319,0.00838912 0.0364129,0.0579038 0.0184813,0.110572 -0.0179226,0.0526595 -0.0552907,0.0885678 -0.0834226,0.0801787 -0.0281319,-0.00838912 -0.0364129,-0.0579038 -0.0184903,-0.110572 0.0179316,-0.0526595 0.0552907,-0.0885678 0.0834316,-0.0801787z"/>
    <path id="_162382688" class="fil1" d="M9.38203 7.21981c0.0293484,0.0262937 0.149319,0.149337 0.0764212,0.347585 0.149436,-0.110509 0.119196,-0.317111 0.0143994,-0.419582 0.230057,-0.18329 0.471485,-0.382583 0.443749,-0.390369 -0.0517494,-0.0145255 -0.885345,0.565 -0.885345,0.565l0.0517404 0.130766c0,0 0.136425,-0.104986 0.299035,-0.2334zm-6.75292 0.102634c0,0 -0.833596,-0.579525 -0.885345,-0.565 -0.0277355,0.00778539 0.213702,0.207079 0.443749,0.39036 -0.104796,0.102472 -0.135046,0.309082 0.0143994,0.419591 -0.0729069,-0.198275 0.0470998,-0.321301 0.0764302,-0.347576 0.162619,0.128414 0.299026,0.233391 0.299026,0.233391l0.0517404 -0.130766z"/>
   </g>
  </g>
 </g>
</svg>
