<?xml version="1.0" encoding="UTF-8"?>
<!DOCTYPE svg PUBLIC "-//W3C//DTD SVG 1.1//EN" "http://www.w3.org/Graphics/SVG/1.1/DTD/svg11.dtd">
<!-- Creator: CorelDRAW -->
<svg xmlns="http://www.w3.org/2000/svg" xml:space="preserve" width="129.436mm" height="197.989mm" style="shape-rendering:geometricPrecision; text-rendering:geometricPrecision; image-rendering:optimizeQuality; fill-rule:evenodd; clip-rule:evenodd"
viewBox="0 0 66.0939 101.099"
 xmlns:xlink="http://www.w3.org/1999/xlink">
 <defs>
  <style type="text/css">
   <![CDATA[
    .fil0 {fill:none}
    .fil1 {fill:#501D33}
    .fil3 {fill:#CF6067}
    .fil2 {fill:#FF9E91}
    .fil4 {fill:#FFCDC0}
   ]]>
  </style>
 </defs>
 <g id="Layer_x0020_1">
  <metadata id="CorelCorpID_0Corel-Layer"/>
  <g id="_114488344">
   <rect id="_114349552" class="fil0" width="66.0939" height="101.099"/>
   <g id="_162523376">
    <g>
     <g>
      <path id="_162518288" class="fil1" d="M16.8068 39.0164c0,0 -1.9939,-2.84251 -3.14353,-2.94821 -2.25422,-0.207264 -6.55713,4.42413 -6.58695,6.57316 -0.00781261,0.562559 0.321492,1.35623 1.86665,2.0443 1.45733,0.648855 2.66727,1.81002 3.19015,3.18913 0.493063,1.2994 2.13667,2.88781 4.03304,0.630677 0,0 0.579563,-1.5398 1.12466,-4.9463 0.545096,-3.4065 -0.484025,-4.5428 -0.484025,-4.5428l0 5.10628e-005z"/>
      <path id="_102488536" class="fil2" d="M13.536 37.0833c-0.381592,-0.0104168 -1.03142,0.353712 -1.31446,0.532228 -0.74613,0.470595 -1.44324,1.10137 -2.03148,1.73093 -0.646047,0.691391 -1.98997,2.37263 -2.00314,3.32388 -0.00679136,0.489693 0.839983,0.924237 1.2273,1.09673 1.60884,0.716309 3.10937,2.0565 3.57251,3.63782 0.403754,1.37773 1.39447,1.80083 2.5198,0.523956 0.184847,-0.292845 -0.310105,-0.825686 -0.189954,-1.13385 0.423158,-1.08488 0.692974,-2.25882 0.875523,-3.39976 0.149716,-0.935879 0.229783,-2.01652 0.0300249,-2.95792 -0.0448842,-0.21186 -0.151708,-0.606422 -0.287943,-0.800257l-0.0201698 -0.0222634 -0.037378 -0.0532585c-0.381797,-0.54336 -1.74165,-2.25703 -2.34062,-2.47823z"/>
      <path id="_162523400" class="fil3" d="M13.536 37.0833c-0.125666,-0.00347227 -0.280182,0.0335993 -0.441336,0.0914025 0.552142,1.08044 0.354325,2.67988 -3.07883,4.6003 0,0 1.54455,0.0843558 2.2101,1.54322 0,0 0.963147,2.82633 2.33863,3.38506 0.484484,0.196796 0.973972,-0.755117 1.39917,-2.09562 0.0887983,-0.404775 0.164065,-0.810571 0.228353,-1.21244 0.149716,-0.935879 0.229783,-2.01652 0.0300249,-2.95792 -0.0448842,-0.21186 -0.151708,-0.606422 -0.287943,-0.800257l-0.0201698 -0.0222634 -0.037378 -0.0532585c-0.381797,-0.54336 -1.74165,-2.25703 -2.34062,-2.47823z"/>
      <path id="_102488152" class="fil1" d="M10.0038 41.7944c0,0 2.87928,-1.66317 6.29645,-2.54441l-0.799031 -0.602541c0,0 -1.63355,-0.202464 -5.49742,3.14695z"/>
      <path id="_162120848" class="fil1" d="M12.6286 43.5426c0.186788,0.867302 1.98251,2.14193 1.98251,2.14193 -1.83836,-2.21153 -1.2586,-2.53261 0.527734,-4.37506l-0.127249 -0.833039c-0.96856,1.04786 -2.5946,2.08362 -2.383,3.06617z"/>
     </g>
     <path id="_102488776" class="fil4" d="M8.80415 41.5162c0,0 1.92777,-3.12867 3.55709,-3.56827 1.62931,-0.439651 -2.30697,3.35003 -3.55709,3.56827z"/>
    </g>
    <g>
     <g>
      <path id="_162522872" class="fil1" d="M49.2871 39.0164c0,0 1.9939,-2.84251 3.14353,-2.94821 2.25422,-0.207264 6.55713,4.42413 6.58695,6.57316 0.00781261,0.562559 -0.321492,1.35623 -1.86665,2.0443 -1.45733,0.648855 -2.66727,1.81002 -3.19015,3.18913 -0.493063,1.2994 -2.13667,2.88781 -4.03304,0.630677 0,0 -0.579563,-1.5398 -1.12466,-4.9463 -0.545096,-3.4065 0.484025,-4.5428 0.484025,-4.5428l0 5.10628e-005z"/>
      <path id="_162523304" class="fil2" d="M52.558 37.0833c0.381592,-0.0104168 1.03142,0.353712 1.31446,0.532228 0.74613,0.470595 1.44324,1.10137 2.03148,1.73093 0.646047,0.691391 1.98997,2.37263 2.00314,3.32388 0.00679136,0.489693 -0.839983,0.924237 -1.2273,1.09673 -1.60884,0.716309 -3.10937,2.0565 -3.57251,3.63782 -0.403754,1.37773 -1.39447,1.80083 -2.5198,0.523956 -0.184847,-0.292845 0.310105,-0.825686 0.189954,-1.13385 -0.423158,-1.08488 -0.692974,-2.25882 -0.875523,-3.39976 -0.149716,-0.935879 -0.229783,-2.01652 -0.0300249,-2.95792 0.0448842,-0.21186 0.151708,-0.606422 0.287943,-0.800257l0.0201698 -0.0222634 0.037378 -0.0532585c0.381797,-0.54336 1.74165,-2.25703 2.34062,-2.47823z"/>
      <path id="_162522248" class="fil3" d="M52.558 37.0833c0.125666,-0.00347227 0.280182,0.0335993 0.441336,0.0914025 -0.552142,1.08044 -0.354325,2.67988 3.07883,4.6003 0,0 -1.54455,0.0843558 -2.2101,1.54322 0,0 -0.963147,2.82633 -2.33863,3.38506 -0.484484,0.196796 -0.973972,-0.755117 -1.39917,-2.09562 -0.0887983,-0.404775 -0.164065,-0.810571 -0.228353,-1.21244 -0.149716,-0.935879 -0.229783,-2.01652 -0.0300249,-2.95792 0.0448842,-0.21186 0.151708,-0.606422 0.287943,-0.800257l0.0201698 -0.0222634 0.037378 -0.0532585c0.381797,-0.54336 1.74165,-2.25703 2.34062,-2.47823z"/>
      <path id="_162518936" class="fil1" d="M56.0902 41.7944c0,0 -2.87928,-1.66317 -6.29645,-2.54441l0.799031 -0.602541c0,0 1.63355,-0.202464 5.49742,3.14695z"/>
      <path id="_102488416" class="fil1" d="M53.4653 43.5426c-0.186788,0.867302 -1.98251,2.14193 -1.98251,2.14193 1.83836,-2.21153 1.2586,-2.53261 -0.527734,-4.37506l0.127249 -0.833039c0.96856,1.04786 2.5946,2.08362 2.383,3.06617z"/>
     </g>
     <path id="_102488920" class="fil4" d="M57.2897 41.5162c0,0 -1.92777,-3.12867 -3.55709,-3.56827 -1.62931,-0.439651 2.30697,3.35003 3.55709,3.56827z"/>
    </g>
   </g>
  </g>
 </g>
</svg>
