<?xml version="1.0" encoding="UTF-8"?>
<!DOCTYPE svg PUBLIC "-//W3C//DTD SVG 1.1//EN" "http://www.w3.org/Graphics/SVG/1.1/DTD/svg11.dtd">
<!-- Creator: CorelDRAW -->
<svg xmlns="http://www.w3.org/2000/svg" xml:space="preserve" width="129.436mm" height="197.989mm" style="shape-rendering:geometricPrecision; text-rendering:geometricPrecision; image-rendering:optimizeQuality; fill-rule:evenodd; clip-rule:evenodd"
viewBox="0 0 14.359 21.9639"
 xmlns:xlink="http://www.w3.org/1999/xlink">
 <defs>
  <style type="text/css">
   <![CDATA[
    .fil0 {fill:none}
    .fil1 {fill:#501D33}
    .fil3 {fill:#E37971}
    .fil2 {fill:#FFCFA5}
   ]]>
  </style>
 </defs>
 <g id="Layer_x0020_1">
  <metadata id="CorelCorpID_0Corel-Layer"/>
  <g id="_113851888">
   <rect id="_116673832" class="fil0" width="14.359" height="21.9639"/>
   <g id="_162382616">
    <path id="_102489856" class="fil1" d="M10.9964 8.46044c0,0 0.315255,-0.362624 0.621147,-0.605095 0.128851,-0.102127 0.170352,-0.0109937 0.240784,0.0877717l0.519409 1.09192 -0.0628779 0.17277 0.159402 -0.00667828 0.159613 0.317618c-0.270925,0.466459 -0.640128,1.04231 -1.76498,0.908269 -1.12485,-0.134043 0.127498,-1.96657 0.127498,-1.96657l0 -1.10935e-005zm-7.46587 -0.0968573c0,0 -1.03534,-1.0885 -1.57633,-0.656402 -0.540985,0.432092 -0.150206,2.83914 1.454,2.64795 1.60422,-0.191174 0.122328,-1.99156 0.122328,-1.99156l0 1.10935e-005z"/>
    <path id="_102489544" class="fil2" d="M3.30186 8.51083c0,0 -0.754624,-0.867012 -1.17207,-0.561952 -0.417448,0.30506 -0.112388,2.27991 1.13996,2.18357 1.25236,-0.0963248 0.0321157,-1.62163 0.0321157,-1.62163l0 1.10935e-005zm7.92325 0.0968573c0,0 0.224732,-0.258179 0.496767,-0.443196l0.495103 1.00961 -0.0698336 0.16262 0.138891 -0.0217987 0.085309 0.173957c-0.204919,0.43319 -0.570084,0.78228 -1.11412,0.740435 -1.25236,-0.0963248 -0.0321157,-1.62163 -0.0321157,-1.62163z"/>
    <path id="_102489784" class="fil3" d="M11.189 8.71782c0,0 0.270748,-0.311006 0.569229,-0.479272l0.458772 0.935537 -0.0698336 0.16262 0.138891 -0.0217987 0.0353106 0.0720079c-0.17348,0.470453 -0.532765,0.886415 -1.10243,0.842595 -1.16745,-0.0898018 -0.0299413,-1.51169 -0.0299413,-1.51169z"/>
    <path id="_102489712" class="fil3" d="M3.33798 8.62097c0,0 -0.26144,-0.300423 -0.553732,-0.470453 0.0395261,0.042122 0.0571759,0.0816925 0.0434754,0.108505 -0.0270238,0.0528938 -0.165781,0.036076 -0.309875,-0.0375293 -0.096469,-0.0492884 -0.170851,-0.111512 -0.201414,-0.163163 -0.0246054,0.00951822 -0.0483898,0.0222314 -0.0710649,0.038794 -0.389149,0.284371 -0.104767,2.12533 1.06267,2.03553 1.16745,-0.0898018 0.0299413,-1.51169 0.0299413,-1.51169zm-0.24419 0.539721c0,0 -0.206594,-0.10865 -0.23455,-0.0900237 -0.0279556,0.018626 -0.108683,0.152147 -0.0496656,0.316775 0.0590174,0.164627 -0.00931854,-0.298193 0.284215,-0.226751z"/>
    <path id="_102489640" class="fil1" d="M11.8309 8.9761c0.0453391,0.0675483 0.0913438,0.172104 0.0963359,0.321767 0.0101173,0.303485 -0.316497,0.492085 -0.316497,0.492085 0,0 0.304938,-0.294089 0.089469,-0.701209 -0.108383,0.0555119 -0.358741,0.189421 -0.56832,0.241128 0.159303,-0.14294 0.485607,-0.426046 0.832622,-0.670491l0.0591283 0.120564c-0.0533486,0.0544691 -0.111523,0.11271 -0.192738,0.196155zm-8.43593 0.256914c-0.22025,-0.197631 -0.759805,-0.663291 -1.23187,-0.924099 0.259399,0.301188 0.307478,0.338784 0.532854,0.570361 -0.0453391,0.0675372 -0.0913438,0.172071 -0.0963359,0.321734 -0.0101173,0.303485 0.316497,0.492085 0.316497,0.492085 0,0 -0.304916,-0.294077 -0.0894247,-0.701209 0.108383,0.0555008 0.358697,0.189421 0.568275,0.241128z"/>
   </g>
  </g>
 </g>
</svg>
