<?xml version="1.0" encoding="UTF-8"?>
<!DOCTYPE svg PUBLIC "-//W3C//DTD SVG 1.1//EN" "http://www.w3.org/Graphics/SVG/1.1/DTD/svg11.dtd">
<!-- Creator: CorelDRAW -->
<svg xmlns="http://www.w3.org/2000/svg" xml:space="preserve" width="129.436mm" height="197.988mm" style="shape-rendering:geometricPrecision; text-rendering:geometricPrecision; image-rendering:optimizeQuality; fill-rule:evenodd; clip-rule:evenodd"
viewBox="0 0 3.85509 5.89683"
 xmlns:xlink="http://www.w3.org/1999/xlink">
 <defs>
  <style type="text/css">
   <![CDATA[
    .fil0 {fill:none}
    .fil1 {fill:#501D33}
    .fil4 {fill:#C04D69}
    .fil2 {fill:#F7888D}
    .fil3 {fill:#FEB5AA}
    .fil5 {fill:white}
   ]]>
  </style>
 </defs>
 <g id="Layer_x0020_1">
  <metadata id="CorelCorpID_0Corel-Layer"/>
  <g id="_253784328">
   <rect id="_90566560" class="fil0" width="3.85509" height="5.89683"/>
   <g>
    <path id="_264506648" class="fil1" d="M1.03418 2.33132c0,0 -0.179912,-0.253043 -0.421262,-0.251098 -0.195212,0.00157258 -0.222517,0.232138 -0.20107,0.445351 0.0223616,0.222285 0.132302,0.396434 0.427862,0.30296 0.245198,-0.077545 0.238339,-0.405372 0.19447,-0.497213z"/>
    <path id="_260322168" class="fil2" d="M0.982227 2.36269c0,0 -0.165234,-0.211614 -0.359687,-0.209815 -0.139757,0.00129559 -0.158986,0.194536 -0.141708,0.366319 0.0180102,0.179093 0.10659,0.319395 0.344714,0.244084 0.197547,-0.0624744 0.192022,-0.326594 0.15668,-0.400589z"/>
    <path id="_260312208" class="fil3" d="M0.556247 2.38672c-0.0271151,0.00101265 -0.058948,0.0596956 -0.056199,0.133443 0.00275202,0.0737476 0.0390465,0.134691 0.0661646,0.133681 0.0271151,-0.00101265 0.0348113,-0.0635973 0.0320622,-0.137345 -0.00275202,-0.0737476 -0.0149127,-0.130789 -0.0420279,-0.12978z"/>
    <path id="_260322384" class="fil3" d="M0.627353 2.17637c-0.067767,0.0074102 -0.11095,0.0660395 -0.107784,0.0949894 0.00316601,0.0289498 0.0514842,0.0172805 0.119251,0.00987034 0.067767,-0.00741318 0.129381,-0.00776463 0.126215,-0.0367144 -0.00316601,-0.0289498 -0.0699144,-0.0755584 -0.137681,-0.0681452z"/>
    <path id="_260316552" class="fil4" d="M0.982239 2.36269c0,0 -0.0207146,-0.0265105 -0.0560918,-0.0606934 -0.0229037,0.0574469 -0.118679,0.260605 -0.376616,0.412639 0.0531849,0.0644193 0.140296,0.0915672 0.276024,0.0486458 0.197529,-0.0624923 0.192004,-0.326594 0.156683,-0.400592z"/>
    <path id="_260312304" class="fil5" d="M0.982239 2.36269c0,0 -0.165249,-0.211605 -0.359687,-0.209818 -0.139778,0.00129559 -0.158992,0.194536 -0.141723,0.366308 0.00693664,0.069003 0.0243721,0.132213 0.0567738,0.179584 -0.0491253,-0.155528 -0.0352729,-0.480984 0.0937533,-0.493261 0.160174,-0.00184064 0.347702,0.158515 0.347702,0.158515 0.00117646,-0.00023827 0.00226654,-0.000556956 0.00340726,-0.000827989l-0.000226357 -0.000500367z"/>
    <path id="_260320728" class="fil1" d="M0.943588 2.50423c0,0 -0.141461,-0.179876 -0.351159,-0.244971 0,0 0.187447,0.133902 0.332702,0.335455l0.0265939 -0.04917 -0.00813692 -0.0413131z"/>
    <path id="_260313288" class="fil2" d="M0.803673 2.498c0,0 -0.0292298,0.049453 -0.0435171,0.0783968 -0.00853007,0.0172746 -0.0207801,0.0814109 -0.0292268,0.0838353 -0.0168904,0.00485177 -0.020658,-0.11537 -0.020658,-0.11537 0,0 0.0824474,-0.0426593 0.0934019,-0.0468618z"/>
    <path id="_260322504" class="fil1" d="M0.77165 2.3967c0,0 -0.0955016,0.0640887 -0.105592,0.0820751 -0.0100937,0.0179864 0.00808033,0.117875 0.0607678,0.180829l-0.0112166 -0.151936 0.103183 -0.0595169 -0.0471417 -0.0514514z"/>
    <polygon id="_260319648" class="fil1" points="0.441255,2.36182 0.620977,2.48742 0.435037,2.46871 "/>
   </g>
   <g>
    <path id="_249430312" class="fil1" d="M2.82091 2.33132c0,0 0.179912,-0.253043 0.421262,-0.251098 0.195212,0.00157258 0.222517,0.232138 0.20107,0.445351 -0.0223616,0.222285 -0.132302,0.396434 -0.427862,0.30296 -0.245198,-0.077545 -0.238339,-0.405372 -0.19447,-0.497213z"/>
    <path id="_249430648" class="fil2" d="M2.87286 2.36269c0,0 0.165234,-0.211614 0.359687,-0.209815 0.139757,0.00129559 0.158986,0.194536 0.141708,0.366319 -0.0180102,0.179093 -0.10659,0.319395 -0.344714,0.244084 -0.197547,-0.0624744 -0.192022,-0.326594 -0.15668,-0.400589z"/>
    <path id="_253784448" class="fil3" d="M3.29884 2.38672c0.0271151,0.00101265 0.058948,0.0596956 0.056199,0.133443 -0.00275202,0.0737476 -0.0390465,0.134691 -0.0661646,0.133681 -0.0271151,-0.00101265 -0.0348113,-0.0635973 -0.0320622,-0.137345 0.00275202,-0.0737476 0.0149127,-0.130789 0.0420279,-0.12978z"/>
    <path id="_253785312" class="fil3" d="M3.22773 2.17637c0.067767,0.0074102 0.11095,0.0660395 0.107784,0.0949894 -0.00316601,0.0289498 -0.0514842,0.0172805 -0.119251,0.00987034 -0.067767,-0.00741318 -0.129381,-0.00776463 -0.126215,-0.0367144 0.00316601,-0.0289498 0.0699144,-0.0755584 0.137681,-0.0681452z"/>
    <path id="_260331096" class="fil4" d="M2.87285 2.36269c0,0 0.0207146,-0.0265105 0.0560918,-0.0606934 0.0229037,0.0574469 0.118679,0.260605 0.376616,0.412639 -0.0531849,0.0644193 -0.140296,0.0915672 -0.276024,0.0486458 -0.197529,-0.0624923 -0.192004,-0.326594 -0.156683,-0.400592z"/>
    <path id="_260315928" class="fil5" d="M2.87285 2.36269c0,0 0.165249,-0.211605 0.359687,-0.209818 0.139778,0.00129559 0.158992,0.194536 0.141723,0.366308 -0.00693664,0.069003 -0.0243721,0.132213 -0.0567738,0.179584 0.0491253,-0.155528 0.0352729,-0.480984 -0.0937533,-0.493261 -0.160174,-0.00184064 -0.347702,0.158515 -0.347702,0.158515 -0.00117646,-0.00023827 -0.00226654,-0.000556956 -0.00340726,-0.000827989l0.000226357 -0.000500367z"/>
    <path id="_253783008" class="fil1" d="M2.9115 2.50423c0,0 0.141461,-0.179876 0.351159,-0.244971 0,0 -0.187447,0.133902 -0.332702,0.335455l-0.0265939 -0.04917 0.00813692 -0.0413131z"/>
    <path id="_284057216" class="fil2" d="M3.05141 2.498c0,0 0.0292298,0.049453 0.0435171,0.0783968 0.00853007,0.0172746 0.0207801,0.0814109 0.0292268,0.0838353 0.0168904,0.00485177 0.020658,-0.11537 0.020658,-0.11537 0,0 -0.0824474,-0.0426593 -0.0934019,-0.0468618z"/>
    <path id="_253784544" class="fil1" d="M3.08344 2.3967c0,0 0.0955016,0.0640887 0.105592,0.0820751 0.0100937,0.0179864 -0.00808033,0.117875 -0.0607678,0.180829l0.0112166 -0.151936 -0.103183 -0.0595169 0.0471417 -0.0514514z"/>
   </g>
  </g>
 </g>
</svg>
