<?xml version="1.0" encoding="UTF-8"?>
<!DOCTYPE svg PUBLIC "-//W3C//DTD SVG 1.1//EN" "http://www.w3.org/Graphics/SVG/1.1/DTD/svg11.dtd">
<!-- Creator: CorelDRAW -->
<svg xmlns="http://www.w3.org/2000/svg" xml:space="preserve" width="129.436mm" height="197.988mm" style="shape-rendering:geometricPrecision; text-rendering:geometricPrecision; image-rendering:optimizeQuality; fill-rule:evenodd; clip-rule:evenodd"
viewBox="0 0 3.48462 5.33015"
 xmlns:xlink="http://www.w3.org/1999/xlink">
 <defs>
  <style type="text/css">
   <![CDATA[
    .fil0 {fill:none}
    .fil1 {fill:#501D33}
    .fil3 {fill:#C9646C}
    .fil2 {fill:#F59787}
    .fil4 {fill:#FCD0B0}
   ]]>
  </style>
 </defs>
 <g id="Layer_x0020_1">
  <metadata id="CorelCorpID_0Corel-Layer"/>
  <g id="_284050040">
   <rect id="_90566560" class="fil0" width="3.48462" height="5.33015"/>
   <g>
    <path id="_249426040" class="fil1" d="M2.58907 2.02841c0,0 0.171517,-0.180894 0.437693,-0.128413 0.0769391,0.0151676 0.128004,0.0550815 0.143061,0.0988237 0.0370333,0.107592 -0.0662082,0.26108 -0.0662082,0.26108 -0.0579298,0.116075 -0.277933,0.425075 -0.430374,0.438262 -0.0487146,0.00421053 -0.078794,-0.0263051 -0.115111,-0.100851 -0.071221,-0.146206 0.0309383,-0.568901 0.0309383,-0.568901z"/>
    <path id="_260334312" class="fil2" d="M2.61999 2.07057c0,0 0.162297,-0.146502 0.366058,-0.11523 0.158358,0.0243021 0.166114,0.0938163 0.0856994,0.246445 -0.0425872,0.0808239 -0.395055,0.625706 -0.474253,0.373028 -0.0393647,-0.125594 -0.0524863,-0.434888 0.0224957,-0.504244z"/>
    <path id="_249437080" class="fil3" d="M2.77083 2.58937c-0.0756873,0.0628295 -0.143675,0.0800728 -0.173334,-0.0145565 -0.0149684,-0.0477642 -0.0261328,-0.122103 -0.0301091,-0.199701 0.0489703,-0.036896 0.0987752,-0.0624392 0.134185,-0.0548042 0,0 -0.0596528,0.193297 0.0692584,0.269062z"/>
    <path id="_249432904" class="fil3" d="M2.90489 2.13809c0,0 0.0767641,0.205021 -0.0973618,0.300512 0,0 0.0627219,-0.0861302 -0.00374479,-0.213448l-0.0121712 -0.020595 0.113278 -0.0664693z"/>
    <path id="_249423952" class="fil1" d="M3.0956 1.9659c0.0482677,0.0215184 0.0610554,0.0672501 0.0515413,0.118027 -0.0314605,-0.0117486 -0.133644,-0.0475623 -0.269409,-0.0366429l0.189108 -0.0655298c0,0 0.0126666,-0.0077561 0.0287603,-0.0158541z"/>
    <path id="_249424648" class="fil4" d="M2.75323 2.39006c0.0008238,0.0720313 0.0608508,0.0336116 0.0608508,-0.0492826 0,-0.0479096 -0.0187132,-0.0658663 -0.0297133,-0.0677616 -0.0209988,-0.00362364 -0.0317809,0.060867 -0.0311375,0.117044z"/>
    <path id="_249433264" class="fil4" d="M2.61999 2.07057c0,0 0.162297,-0.146502 0.366058,-0.11523 0.0810743,0.0124431 0.122657,0.0367479 0.133159,0.0779783 -0.0562338,-0.00716652 -0.281917,-0.0214834 -0.54535,0.158124 0.00815723,-0.0549092 0.0229156,-0.0993971 0.0461328,-0.120872z"/>
    <path id="_253785744" class="fil1" d="M2.63123 2.30765c0,0 0.13684,-0.178078 0.344911,-0.202447 0,0 -0.1912,0.0843533 -0.316791,0.286801 -0.0338835,-0.0150599 -0.0208373,-0.0524971 -0.0281196,-0.0843533z"/>
    <path id="_260313648" class="fil1" d="M2.7662 2.22142c0,0 0.101225,0.0731055 0.0356145,0.22119 0,0 0.109641,-0.056293 0.0262458,-0.24931l-0.0234756 -0.00237717 -0.0383848 0.0304967z"/>
    <path id="_224427712" class="fil1" d="M2.56869 2.22129c0,0 0.180789,-0.140304 0.30062,-0.167452 0,0 -0.16535,0.0123543 -0.289811,0.0645471l-0.00527663 0.0372029 -0.00553238 0.0657021z"/>
   </g>
   <g>
    <path id="_252092472" class="fil1" d="M0.895554 2.02841c0,0 -0.171517,-0.180894 -0.437693,-0.128413 -0.0769391,0.0151676 -0.128004,0.0550815 -0.143061,0.0988237 -0.0370333,0.107592 0.0662082,0.26108 0.0662082,0.26108 0.0579298,0.116075 0.277933,0.425075 0.430374,0.438262 0.0487146,0.00421053 0.078794,-0.0263051 0.115111,-0.100851 0.071221,-0.146206 -0.0309383,-0.568901 -0.0309383,-0.568901z"/>
    <path id="_252095904" class="fil2" d="M0.864632 2.07057c0,0 -0.162297,-0.146502 -0.366058,-0.11523 -0.158358,0.0243021 -0.166114,0.0938163 -0.0856994,0.246445 0.0425872,0.0808239 0.395055,0.625706 0.474253,0.373028 0.0393647,-0.125594 0.0524863,-0.434888 -0.0224957,-0.504244z"/>
    <path id="_252091128" class="fil3" d="M0.713793 2.58937c0.0756873,0.0628295 0.143675,0.0800728 0.173334,-0.0145565 0.0149684,-0.0477642 0.0261328,-0.122103 0.0301091,-0.199701 -0.0489703,-0.036896 -0.0987752,-0.0624392 -0.134185,-0.0548042 0,0 0.0596528,0.193297 -0.0692584,0.269062z"/>
    <path id="_260324904" class="fil3" d="M0.579734 2.13809c0,0 -0.0767641,0.205021 0.0973618,0.300512 0,0 -0.0627219,-0.0861302 0.00374479,-0.213448l0.0121712 -0.020595 -0.113278 -0.0664693z"/>
    <path id="_252117960" class="fil1" d="M0.389017 1.9659c-0.0482677,0.0215184 -0.0610554,0.0672501 -0.0515413,0.118027 0.0314605,-0.0117486 0.133644,-0.0475623 0.269409,-0.0366429l-0.189108 -0.0655298c0,0 -0.0126666,-0.0077561 -0.0287603,-0.0158541z"/>
    <path id="_249421096" class="fil4" d="M0.731394 2.39006c-0.0008238,0.0720313 -0.0608508,0.0336116 -0.0608508,-0.0492826 0,-0.0479096 0.0187132,-0.0658663 0.0297133,-0.0677616 0.0209988,-0.00362364 0.0317809,0.060867 0.0311375,0.117044z"/>
    <path id="_249447496" class="fil4" d="M0.864632 2.07057c0,0 -0.162297,-0.146502 -0.366058,-0.11523 -0.0810743,0.0124431 -0.122657,0.0367479 -0.133159,0.0779783 0.0562338,-0.00716652 0.281917,-0.0214834 0.54535,0.158124 -0.00815723,-0.0549092 -0.0229156,-0.0993971 -0.0461328,-0.120872z"/>
    <path id="_284072120" class="fil1" d="M0.853387 2.30765c0,0 -0.13684,-0.178078 -0.344911,-0.202447 0,0 0.1912,0.0843533 0.316791,0.286801 0.0338835,-0.0150599 0.0208373,-0.0524971 0.0281196,-0.0843533z"/>
    <path id="_253784952" class="fil1" d="M0.718421 2.22142c0,0 -0.101225,0.0731055 -0.0356145,0.22119 0,0 -0.109641,-0.056293 -0.0262458,-0.24931l0.0234756 -0.00237717 0.0383848 0.0304967z"/>
    <path id="_249449512" class="fil1" d="M0.915928 2.22129c0,0 -0.180789,-0.140304 -0.30062,-0.167452 0,0 0.16535,0.0123543 0.289811,0.0645471l0.00527663 0.0372029 0.00553238 0.0657021z"/>
   </g>
  </g>
 </g>
</svg>
