<?xml version="1.0" encoding="UTF-8"?>
<!DOCTYPE svg PUBLIC "-//W3C//DTD SVG 1.1//EN" "http://www.w3.org/Graphics/SVG/1.1/DTD/svg11.dtd">
<!-- Creator: CorelDRAW -->
<svg xmlns="http://www.w3.org/2000/svg" xml:space="preserve" width="129.436mm" height="197.989mm" style="shape-rendering:geometricPrecision; text-rendering:geometricPrecision; image-rendering:optimizeQuality; fill-rule:evenodd; clip-rule:evenodd"
viewBox="0 0 157.942 241.592"
 xmlns:xlink="http://www.w3.org/1999/xlink">
 <defs>
  <style type="text/css">
   <![CDATA[
    .fil0 {fill:none}
    .fil1 {fill:#501D33}
    .fil4 {fill:#CF6067}
    .fil2 {fill:#FF9E91}
    .fil3 {fill:#FFCDC0}
   ]]>
  </style>
 </defs>
 <g id="Layer_x0020_1">
  <metadata id="CorelCorpID_0Corel-Layer"/>
  <g id="_86911136">
   <rect id="_90125944" class="fil0" width="157.942" height="241.592"/>
   <g id="_162523160">
    <g>
     <path id="_162522560" class="fil1" d="M114.552 98.4172c0,0 0.564845,-8.2778 2.78542,-9.91486 4.35439,-3.21006 18.8789,0.944336 21.5959,5.30263 0.608529,0.976306 0.132395,3.22116 -1.23792,5.7496l-4.46824 1.42706 3.32635 1.18582c-1.20083,2.68573 -1.84011,6.04282 -1.9027,8.19214 -0.0877345,3.00872 -0.519818,5.07652 -1.67562,6.38388 -1.6888,1.91088 -4.92363,2.04364 -10.8882,-0.166927 0,0 2.41484,-1.97665 -2.91025,-8.26999 -5.32496,-6.29334 -4.62479,-9.88936 -4.62479,-9.88936l0.000122023 0z"/>
     <path id="_163722552" class="fil2" d="M118.852 90.4206c0.767525,-0.492973 2.54662,-0.551178 3.34612,-0.535925 2.1077,0.0402676 4.31303,0.468812 6.29431,1.02926 2.17567,0.615606 7.00229,2.39312 8.20495,4.3223 0.619145,0.993145 -0.387667,2.26218 -0.966788,3.09365 -0.0733358,0.105306 -5.8349,1.59777 -6.98789,2.46206l4.87592 2.34126c-1.07649,2.40556 -1.31858,3.73354 -1.49588,6.28126 -0.299078,4.29253 0.830611,8.0656 -7.0489,5.58646 -0.74007,-0.370462 -1.57764,-0.991437 -2.20422,-1.47318 -2.2063,-1.69588 0.134835,-4.8071 -1.64877,-6.91504 -1.46281,-1.72894 -2.96223,-3.84019 -3.71719,-6.01244 -0.169978,-0.488824 -0.439161,-1.42767 -0.400113,-1.99251l0.0136666 -0.0705293 0.010616 -0.155213c0.109333,-1.583 0.772528,-6.76862 1.72419,-7.96139z"/>
     <path id="_166342032" class="fil3" d="M135.686 94.8863c0,0 -6.35227,-4.25348 -9.49058,-3.26216 -3.13831,0.991315 7.20302,4.27056 9.49058,3.26216z"/>
     <path id="_166342416" class="fil4" d="M125.028 90.1638c0.274186,2.12332 -0.449045,6.28406 8.331,7.07904 0,0 -4.95621,0.760569 -4.58257,4.24225 0,0 1.29698,7.95993 -0.13813,9.88191 -1.43511,1.92198 -3.95586,3.23166 -6.48223,1.0156 -0.681865,-0.718105 -0.306888,-5.02735 -0.935062,-5.76986 -1.46281,-1.72894 -2.96223,-3.84019 -3.71719,-6.01244 -0.169978,-0.488824 -0.439161,-1.42767 -0.400113,-1.99251l0.0136666 -0.0705293 0.010616 -0.155213c0.135201,-1.95896 3.81883,-7.94382 7.90001,-8.21825z"/>
     <path id="_163727088" class="fil1" d="M135.945 97.302c0,0 -4.73376,0.158996 -10.2875,1.6334 -1.80911,0.480283 -3.77856,0.358504 -5.73484,0.944702l0.958003 -1.80838c0,0 5.28506,-2.26157 15.0644,-0.769721z"/>
     <path id="_162523904" class="fil1" d="M128.344 105.251c-0.512131,2.77236 -4.01346,4.82284 -4.01346,4.82284 3.89876,-5.10569 2.75137,-5.92751 -0.715055,-10.4969l0.874295 -2.66388c1.87562,2.59421 4.36623,5.56559 3.85422,8.33795z"/>
    </g>
    <g>
     <path id="_162524120" class="fil1" d="M43.3905 98.4172c0,0 -0.564845,-8.2778 -2.78542,-9.91486 -4.35439,-3.21006 -18.8789,0.944092 -21.5959,5.30263 -0.711272,1.14079 -1.01865,3.17113 1.29113,6.48809 2.31002,3.31707 2.90927,7.25549 2.99139,10.0665 0.0876125,3.00884 0.519818,5.07652 1.67562,6.38388 1.6888,1.91088 4.92363,2.04364 10.8882,-0.166927 0,0 -2.41484,-1.97665 2.91025,-8.26999 5.32496,-6.29334 4.62479,-9.88936 4.62479,-9.88936l-0.000122023 0z"/>
     <path id="_162523976" class="fil2" d="M39.0901 90.4206c-0.767525,-0.492973 -2.54662,-0.551178 -3.34612,-0.535925 -2.1077,0.0402676 -4.31303,0.468812 -6.29431,1.02926 -2.17567,0.615606 -7.00229,2.39312 -8.20495,4.3223 -0.619145,0.993145 0.575583,2.92843 1.1547,3.7599 2.17225,3.11927 3.1693,6.8173 3.41994,10.4183 0.299078,4.29253 -0.830611,8.0656 7.0489,5.58646 0.74007,-0.370462 1.57764,-0.991437 2.20422,-1.47318 2.2063,-1.69588 -0.134835,-4.8071 1.64877,-6.91504 1.46281,-1.72894 2.96223,-3.84019 3.71719,-6.01244 0.169978,-0.488824 0.439161,-1.42767 0.400113,-1.99251l-0.0136666 -0.0705293 -0.010616 -0.155213c-0.109333,-1.583 -0.772528,-6.76862 -1.72419,-7.96139z"/>
     <path id="_162119840" class="fil3" d="M22.2558 94.8863c0,0 6.35227,-4.25348 9.49058,-3.26216 3.13831,0.991315 -7.20302,4.27056 -9.49058,3.26216z"/>
     <path id="_162119768" class="fil4" d="M32.9142 90.1638c-0.274186,2.12332 0.449045,6.28406 -8.331,7.07904 0,0 4.56329,0.504321 4.12133,4.31058 0,0 -0.835736,7.89159 0.599377,9.81358 1.43523,1.92211 3.95586,3.23166 6.48223,1.0156 0.681865,-0.718105 0.306888,-5.02735 0.935062,-5.76986 1.46281,-1.72894 2.96223,-3.84019 3.71719,-6.01244 0.169978,-0.488824 0.439161,-1.42767 0.400113,-1.99251l-0.0136666 -0.0705293 -0.010616 -0.155213c-0.135201,-1.95896 -3.81883,-7.94382 -7.90001,-8.21825z"/>
     <path id="_162119696" class="fil1" d="M21.9973 97.302c0,0 4.73376,0.158996 10.2875,1.6334 1.80911,0.480283 3.77856,0.358504 5.73484,0.944702l-0.958003 -1.80838c0,0 -5.28506,-2.26157 -15.0644,-0.769721z"/>
     <path id="_162119624" class="fil1" d="M29.5981 105.251c0.512131,2.77236 4.01346,4.82284 4.01346,4.82284 -3.89876,-5.10569 -2.75137,-5.92751 0.715055,-10.4969l-0.942872 -2.04669c-1.87562,2.59433 -4.29765,4.9484 -3.78564,7.72076z"/>
    </g>
   </g>
   <polygon id="_117115352" class="fil1" points="135.168,106.157 130.162,104.168 134.894,104.1 "/>
  </g>
 </g>
</svg>
