<?xml version="1.0" encoding="UTF-8"?>
<!DOCTYPE svg PUBLIC "-//W3C//DTD SVG 1.1//EN" "http://www.w3.org/Graphics/SVG/1.1/DTD/svg11.dtd">
<!-- Creator: CorelDRAW -->
<svg xmlns="http://www.w3.org/2000/svg" xml:space="preserve" width="129.436mm" height="197.988mm" style="shape-rendering:geometricPrecision; text-rendering:geometricPrecision; image-rendering:optimizeQuality; fill-rule:evenodd; clip-rule:evenodd"
viewBox="0 0 4.38131 6.70175"
 xmlns:xlink="http://www.w3.org/1999/xlink">
 <defs>
  <style type="text/css">
   <![CDATA[
    .fil0 {fill:none}
    .fil1 {fill:#501D33}
    .fil3 {fill:#D56165}
    .fil2 {fill:#F78A7E}
    .fil4 {fill:#FBB49A}
   ]]>
  </style>
 </defs>
 <g id="Layer_x0020_1">
  <metadata id="CorelCorpID_0Corel-Layer"/>
  <g id="_253788816">
   <rect id="_90566560" class="fil0" width="4.38131" height="6.70175"/>
   <g>
    <g>
     <path id="_253786320" class="fil1" d="M3.32708 2.45333c0,0 0.0920497,-0.101338 0.272612,-0.19287 0,0 0.0247878,-0.0147109 0.0531061,0.00490137 0.0283183,0.0196123 0.178792,0.189603 0.26199,0.379203 0,0 0.00531095,0.0179807 -0.0265547,0.0686497l-0.11152 0.201044c0,0 0.0221306,0.11196 0.0539896,0.231278 0,0 0.015046,0.0220697 -0.00796473,0.0580278 -0.0230141,0.0359581 -0.157548,0.166721 -0.214195,0.192873 0,0 -0.0814312,0.042491 -0.254909,-0.0997064 -0.173481,-0.142197 -0.115064,-0.753505 -0.0265547,-0.843402z"/>
     <path id="_253784856" class="fil2" d="M3.35187 2.51544c0,0 0.106212,-0.122585 0.26199,-0.201044 0,0 0.120371,0.0849955 0.240746,0.339979 0,0 -0.102672,0.212485 -0.238976,0.357956l0.100901 -0.0686497c0,0 0.0531061,0.169988 0.0601874,0.215755 0,0 -0.0318657,0.0686463 -0.191184,0.191235 0,0 -0.0495655,0.0326916 -0.238976,-0.120954 -0.189414,-0.153642 -0.24124,-0.484914 0.00531095,-0.714277z"/>
     <path id="_253787208" class="fil3" d="M3.35187 2.51544c0,0 0.0073419,-0.00847247 0.0209832,-0.0223777 0.0105373,0.0448841 0.0365335,0.116492 0.099439,0.164132l-0.0526288 0.0860516c-0.0508382,0.211175 -0.00586608,0.509793 0.152961,0.610268 -0.0245475,0.00112041 -0.0883195,-0.0120571 -0.226066,-0.123797 -0.189414,-0.153642 -0.24124,-0.484914 0.00531095,-0.714277z"/>
     <path id="_253787928" class="fil4" d="M3.47119 2.69668l0.0120605 0.195385 -0.0449518 0.172096c0,0 0.117311,-0.13363 0.120602,-0.159948 0.00329015,-0.0263212 -0.0613992,-0.200445 -0.0877102,-0.207533z"/>
     <path id="_260324904" class="fil4" d="M3.35187 2.51544c0,0 0.106212,-0.122585 0.26199,-0.201044 0,0 0.11505,0.0812653 0.232673,0.323155 -0.0445862,-0.0562101 -0.158401,-0.194142 -0.24644,-0.253118 0,0 -0.0878016,0.0233966 -0.290041,0.174073 0.0128593,-0.0146906 0.0267714,-0.0290697 0.0418174,-0.0430664z"/>
     <path id="_275991648" class="fil3" d="M3.62423 2.54047c0,0 0.069127,0.154965 0.088878,0.300872 -0.0335615,0.0757072 -0.150964,0.165266 -0.282012,0.236146l0.120706 -0.178331 -0.0570631 -0.257363c0,0 0.0614533,-0.0729553 0.12949,-0.101324z"/>
     <path id="_260337048" class="fil1" d="M3.3425 2.78949c0,0 0.0872532,-0.131846 0.271356,-0.288758 0,0 0.0690356,0.0359614 0.107983,0.163451 0,0 -0.0362932,-0.052314 -0.107099,-0.0997131 -0.100055,0.0810622 -0.191888,0.215718 -0.250153,0.307304 -0.00177032,-0.00980613 -0.0203163,-0.0724746 -0.0220866,-0.0822842z"/>
     <path id="_260325528" class="fil1" d="M3.4687 2.6838c0,0 0.0495655,0.152007 0.063728,0.219022l-0.0955903 0.169988c0,0 0.0902794,-0.0817256 0.150467,-0.171622 0,0 -0.00885158,-0.075186 -0.0743465,-0.256618l-0.0177032 0.0081746 -0.0265547 0.0310567z"/>
     <path id="_260334432" class="fil4" d="M3.76502 3.15628c-0.00219005,-0.00607256 -0.050432,-0.185257 -0.058109,-0.185257 -0.00767363,0 -0.25104,0.155835 -0.25104,0.161904 0,0.00607256 0.132642,0.0516573 0.309149,0.0233526z"/>
    </g>
    <g>
     <path id="_253784376" class="fil1" d="M1.05423 2.45333c0,0 -0.0920497,-0.101338 -0.272612,-0.19287 0,0 -0.0247878,-0.0147109 -0.0531061,0.00490137 -0.0283183,0.0196123 -0.178792,0.189603 -0.26199,0.379203 0,0 -0.00531095,0.0179807 0.0265547,0.0686497l0.11152 0.201044c0,0 -0.0221306,0.11196 -0.0539896,0.231278 0,0 -0.015046,0.0220697 0.00796473,0.0580278 0.0230141,0.0359581 0.157548,0.166721 0.214195,0.192873 0,0 0.0814312,0.042491 0.254909,-0.0997064 0.173481,-0.142197 0.115064,-0.753505 0.0265547,-0.843402z"/>
     <path id="_224427712" class="fil2" d="M1.02944 2.51544c0,0 -0.106212,-0.122585 -0.26199,-0.201044 0,0 -0.120371,0.0849955 -0.240746,0.339979 0,0 0.102672,0.212485 0.238976,0.357956l-0.100901 -0.0686497c0,0 -0.0531061,0.169988 -0.0601874,0.215755 0,0 0.0318657,0.0686463 0.191184,0.191235 0,0 0.0495655,0.0326916 0.238976,-0.120954 0.189414,-0.153642 0.24124,-0.484914 -0.00531095,-0.714277z"/>
     <path id="_260313648" class="fil3" d="M1.02944 2.51544c0,0 -0.0073419,-0.00847247 -0.0209832,-0.0223777 -0.0105373,0.0448841 -0.0365335,0.116492 -0.099439,0.164132l0.0526288 0.0860516c0.0508382,0.211175 0.00586608,0.509793 -0.152961,0.610268 0.0245475,0.00112041 0.0883195,-0.0120571 0.226066,-0.123797 0.189414,-0.153642 0.24124,-0.484914 -0.00531095,-0.714277z"/>
     <path id="_253785744" class="fil4" d="M0.910118 2.69667l-0.0120605 0.195385 0.0449518 0.172096c0,0 -0.117311,-0.13363 -0.120602,-0.159948 -0.00329015,-0.0263212 0.0613992,-0.200445 0.0877102,-0.207533z"/>
     <path id="_249433264" class="fil4" d="M1.02944 2.51544c0,0 -0.106212,-0.122585 -0.26199,-0.201044 0,0 -0.11505,0.0812653 -0.232673,0.323155 0.0445862,-0.0562101 0.158401,-0.194142 0.24644,-0.253118 0,0 0.0878016,0.0233966 0.290041,0.174073 -0.0128593,-0.0146906 -0.0267714,-0.0290697 -0.0418174,-0.0430664z"/>
     <path id="_249424648" class="fil3" d="M0.757079 2.54047c0,0 -0.069127,0.154965 -0.088878,0.300872 0.0335615,0.0757072 0.150964,0.165266 0.282012,0.236146l-0.120706 -0.178331 0.0570631 -0.257363c0,0 -0.0614533,-0.0729553 -0.12949,-0.101324z"/>
     <path id="_249423952" class="fil1" d="M1.03881 2.78948c0,0 -0.0872532,-0.131846 -0.271356,-0.288758 0,0 -0.0690356,0.0359614 -0.107983,0.163451 0,0 0.0362932,-0.052314 0.107099,-0.0997131 0.100055,0.0810622 0.191888,0.215718 0.250153,0.307304 0.00177032,-0.00980613 0.0203163,-0.0724746 0.0220866,-0.0822842z"/>
     <path id="_249432904" class="fil1" d="M0.912613 2.68379c0,0 -0.0495655,0.152007 -0.063728,0.219022l0.0955903 0.169988c0,0 -0.0902794,-0.0817256 -0.150467,-0.171622 0,0 0.00885158,-0.075186 0.0743465,-0.256618l0.0177032 0.0081746 0.0265547 0.0310567z"/>
     <path id="_249437080" class="fil4" d="M0.616287 3.15628c0.00219005,-0.00607256 0.050432,-0.185257 0.058109,-0.185257 0.00767363,0 0.25104,0.155835 0.25104,0.161904 0,0.00607256 -0.132642,0.0516573 -0.309149,0.0233526z"/>
    </g>
   </g>
  </g>
 </g>
</svg>
