<?xml version="1.0" encoding="UTF-8"?>
<!DOCTYPE svg PUBLIC "-//W3C//DTD SVG 1.1//EN" "http://www.w3.org/Graphics/SVG/1.1/DTD/svg11.dtd">
<!-- Creator: CorelDRAW -->
<svg xmlns="http://www.w3.org/2000/svg" xml:space="preserve" width="129.436mm" height="197.989mm" style="shape-rendering:geometricPrecision; text-rendering:geometricPrecision; image-rendering:optimizeQuality; fill-rule:evenodd; clip-rule:evenodd"
viewBox="0 0 19.3742 29.6352"
 xmlns:xlink="http://www.w3.org/1999/xlink">
 <defs>
  <style type="text/css">
   <![CDATA[
    .fil0 {fill:none}
    .fil1 {fill:#501D33}
    .fil4 {fill:#CF6067}
    .fil2 {fill:#FF9E91}
    .fil3 {fill:white}
   ]]>
  </style>
 </defs>
 <g id="Layer_x0020_1">
  <metadata id="CorelCorpID_0Corel-Layer"/>
  <g id="_89227552">
   <rect id="_86911112" class="fil0" width="19.3742" height="29.6352"/>
   <g id="_102489568">
    <g>
     <path id="_102302152" class="fil1" d="M4.94509 11.8642c0,0 0.082175,-0.874797 -0.885724,-1.07778 -0.967899,-0.202968 -1.89362,0.220989 -1.98621,1.29636 -0.0926078,1.07537 0.881997,1.28705 0.881997,1.28705 -0.0165248,0.827124 0.46934,1.13577 0.950925,1.02596 0.667908,-0.152316 1.34478,-1.16443 1.03903,-2.53159l-1.49681e-005 0z"/>
     <path id="_162518264" class="fil2" d="M4.68637 11.9409c0,0 0.0658897,-0.701466 -0.710222,-0.864215 -0.776097,-0.162748 -1.48997,0.155893 -1.56424,1.01818 -0.0742569,0.862284 0.836688,1.12926 0.836688,1.12926 -0.0132767,0.663208 0.274201,0.968497 0.660304,0.88047 0.53553,-0.12208 1.02264,-1.06745 0.777474,-2.16367l0 -1.49681e-005z"/>
     <path id="_166341528" class="fil3" d="M4.24339 11.1676c-0.075619,-0.0378244 -0.163901,-0.0691527 -0.267211,-0.0908116 -0.776097,-0.162748 -1.49002,0.155893 -1.56423,1.01818 -0.0658448,0.764317 0.642297,1.06085 0.804073,1.11839 -0.416817,-0.208865 -0.572366,-0.53309 -0.623123,-0.807306 -0.179468,-0.96971 0.735878,-1.42 1.65049,-1.23845z"/>
     <path id="_162633992" class="fil4" d="M4.28525 12.1991c0,0 -0.283406,-0.417536 -1.34686,-0.507 0,0 -0.344417,0.649602 0.375565,1.30684 0,0 0.197594,0.782444 0.81922,0.747224l0.112411 -0.347006 0.0396655 -1.20005z"/>
     <path id="_102349272" class="fil1" d="M4.28687 12.3728c0,0 -0.856716,0.303254 -0.217562,1.13804 -1.02949,-0.731118 -0.0418359,-1.51579 0.241391,-1.43384l-0.0238293 0.2958z"/>
     <path id="_102489136" class="fil1" d="M4.41027 12.4707c0,0 -0.463114,-0.600835 -1.56137,-0.771996 0,0 0.725864,-0.155668 1.34613,0.11747 0.620264,0.273123 0.215242,0.654526 0.215242,0.654526z"/>
     <path id="_102488848" class="fil1" d="M3.89872 11.908c0,0 -0.574956,0.151627 -0.799852,0.769646 0,0 0.0186952,-0.730968 0.572157,-0.910002l0.102801 0.0085468 0.124894 0.131809z"/>
    </g>
    <g>
     <path id="_164630288" class="fil1" d="M14.4291 11.8642c0,0 -0.082175,-0.874797 0.885724,-1.07778 0.967899,-0.202968 1.89362,0.220989 1.98621,1.29636 0.0926078,1.07537 -0.881997,1.28705 -0.881997,1.28705 0.0165248,0.827124 -0.46934,1.13577 -0.950925,1.02596 -0.667908,-0.152316 -1.34478,-1.16443 -1.03903,-2.53159l1.49681e-005 0z"/>
     <path id="_102488176" class="fil2" d="M14.6878 11.9409c0,0 -0.0658897,-0.701466 0.710222,-0.864215 0.776097,-0.162748 1.48997,0.155893 1.56424,1.01818 0.0742569,0.862284 -0.836688,1.12926 -0.836688,1.12926 0.0132767,0.663208 -0.274201,0.968497 -0.660304,0.88047 -0.53553,-0.12208 -1.02264,-1.06745 -0.777474,-2.16367l0 -1.49681e-005z"/>
     <path id="_102488080" class="fil3" d="M15.1308 11.1676c0.075619,-0.0378244 0.163901,-0.0691527 0.267211,-0.0908116 0.776097,-0.162748 1.49002,0.155893 1.56423,1.01818 0.0658448,0.764317 -0.642297,1.06085 -0.804073,1.11839 0.416817,-0.208865 0.572366,-0.53309 0.623123,-0.807306 0.179468,-0.96971 -0.735878,-1.42 -1.65049,-1.23845z"/>
     <path id="_165740272" class="fil4" d="M15.0889 12.1991c0,0 0.283406,-0.417536 1.34686,-0.507 0,0 0.344417,0.649602 -0.375565,1.30684 0,0 -0.197594,0.782444 -0.81922,0.747224l-0.112411 -0.347006 -0.0396655 -1.20005z"/>
     <path id="_161682416" class="fil1" d="M15.0873 12.3728c0,0 0.856716,0.303254 0.217562,1.13804 1.02949,-0.731118 0.0418359,-1.51579 -0.241391,-1.43384l0.0238293 0.2958z"/>
     <path id="_163720248" class="fil1" d="M14.9639 12.4707c0,0 0.463114,-0.600835 1.56137,-0.771996 0,0 -0.725864,-0.155668 -1.34613,0.11747 -0.620264,0.273123 -0.215242,0.654526 -0.215242,0.654526z"/>
     <path id="_162379352" class="fil1" d="M15.4755 11.908c0,0 0.574956,0.151627 0.799852,0.769646 0,0 -0.0186952,-0.730968 -0.572157,-0.910002l-0.102801 0.0085468 -0.124894 0.131809z"/>
    </g>
    <ellipse id="_102488248" class="fil2" cx="4.0024" cy="12.9399" rx="0.10304" ry="0.237634"/>
    <ellipse id="_163721760" class="fil2" cx="15.4059" cy="12.9399" rx="0.10304" ry="0.237634"/>
   </g>
  </g>
 </g>
</svg>
