<?xml version="1.0" encoding="UTF-8"?>
<!DOCTYPE svg PUBLIC "-//W3C//DTD SVG 1.1//EN" "http://www.w3.org/Graphics/SVG/1.1/DTD/svg11.dtd">
<!-- Creator: CorelDRAW -->
<svg xmlns="http://www.w3.org/2000/svg" xml:space="preserve" width="129.436mm" height="197.989mm" style="shape-rendering:geometricPrecision; text-rendering:geometricPrecision; image-rendering:optimizeQuality; fill-rule:evenodd; clip-rule:evenodd"
viewBox="0 0 5.13163 7.84945"
 xmlns:xlink="http://www.w3.org/1999/xlink">
 <defs>
  <style type="text/css">
   <![CDATA[
    .fil0 {fill:none}
    .fil1 {fill:#501D33}
    .fil5 {fill:#CF6067}
    .fil4 {fill:#FCC9BF}
    .fil3 {fill:#FF9E91}
    .fil2 {fill:white}
   ]]>
  </style>
 </defs>
 <g id="Layer_x0020_1">
  <metadata id="CorelCorpID_0Corel-Layer"/>
  <g id="_113840416">
   <rect id="_90566560" class="fil0" width="5.13163" height="7.84945"/>
   <g id="_102487768">
    <path id="_162383432" class="fil1" d="M3.74687 2.7443c0,0 0.315942,-0.052285 0.72219,0.120282 0,0 0.0482729,0.0151289 0.0461122,0.140307 -0.00207745,0.120682 0.0126312,0.326829 -0.154591,0.805736 -0.0321568,0.0920895 -0.351687,0.0931283 -0.462561,0.0167464l-0.166029 -1.05687 0.0148751 -0.026202 3.96459e-006 0zm-2.36212 -3.96459e-006c0,0 -0.315942,-0.052285 -0.72219,0.120282 0,0 -0.0482729,0.0151289 -0.0461122,0.140307 0.00207745,0.120682 -0.0126312,0.326829 0.154591,0.805736 0.0321568,0.0920895 0.351687,0.0931283 0.462561,0.0167464l0.166029 -1.05687 -0.0148751 -0.026202 -3.96459e-006 0z"/>
    <path id="_162383336" class="fil2" d="M3.82831 2.84167c0,0 0.24906,-0.0412159 0.569315,0.0948211 0,0 0.0380561,0.0119215 0.0363513,0.110604 -0.0016017,0.0931084 -0.010637,0.288583 -0.136013,0.654407 -0.0261703,0.076358 -0.169926,0.0413507 -0.271539,-0.0286481l-0.0662245 -0.441418 -0.143617 -0.369115 0.0117273 -0.0206516zm-2.525 -3.96459e-006c0,0 -0.24906,-0.0412159 -0.569315,0.0948211 0,0 -0.0380561,0.0119215 -0.0363513,0.110604 0.0016017,0.0931084 0.010637,0.288583 0.136013,0.654407 0.0261703,0.076358 0.169926,0.0413507 0.271539,-0.0286481l0.0662245 -0.441418 0.143617 -0.369115 -0.0117273 -0.0206516z"/>
    <path id="_162383240" class="fil3" d="M3.82831 2.84167c0,0 0.21008,-0.00989562 0.530332,0.126141 0,0 0.0380561,0.0119295 0.0363553,0.110608 -0.0016017,0.0931005 0.0104784,0.29968 -0.114894,0.665492 -0.0261623,0.0763462 -0.249187,0.0580932 -0.344103,0.0171072l0.0241959 -0.529582 -0.143617 -0.369115 0.0117273 -0.0206516 3.96459e-006 0zm-2.525 -3.96459e-006c0,0 -0.21008,-0.00989562 -0.530332,0.126141 0,0 -0.0380561,0.0119295 -0.0363553,0.110608 0.0016017,0.0931005 -0.0104745,0.299676 0.114894,0.665492 0.0261663,0.0763501 0.261441,0.0569752 0.356357,0.0159932l-0.0364505 -0.528468 0.143617 -0.369115 -0.0117273 -0.0206516 -3.96459e-006 0z"/>
    <path id="_162382376" class="fil4" d="M4.12681 2.89925c-0.101799,-0.0251434 -0.179465,-0.023292 -0.173447,0.00413507 0.00603014,0.027431 0.0934653,0.0700543 0.195264,0.0951978 0.101803,0.0251395 0.179469,0.023284 0.173443,-0.004143 -0.00602222,-0.027427 -0.0934613,-0.0700543 -0.19526,-0.0951899zm-3.12199 -3.96459e-006c0.101799,-0.0251434 0.179465,-0.023292 0.173447,0.00413507 -0.00603014,0.027431 -0.0934653,0.0700543 -0.195264,0.0951978 -0.101803,0.0251395 -0.179469,0.023284 -0.173443,-0.004143 0.00602222,-0.027427 0.0934613,-0.0700543 0.19526,-0.0951899z"/>
    <path id="_162383120" class="fil5" d="M3.82831 2.84167c0,0 0.0290961,-0.00136778 0.0821384,0.00392495 0.0113942,0.105248 0.059453,0.31802 0.262004,0.300219l0.17709 -0.146999c0,0 -0.0168971,0.660485 -0.413915,0.767299l-0.119049 -0.903784 0.0117312 -0.0206555 0 -3.96459e-006zm-2.525 -3.96459e-006c0,0 -0.0290961,-0.00136778 -0.0821384,0.00392495 -0.0113942,0.105248 -0.059453,0.31802 -0.262004,0.300219l-0.17709 -0.146999c0,0 0.0168971,0.660485 0.413915,0.767299l0.119049 -0.903784 -0.0117312 -0.0206555 0 -3.96459e-006z"/>
    <path id="_162382400" class="fil3" d="M4.11103 3.34354c-0.0181459,0.00706094 -0.0222096,0.0482293 -0.00907495,0.091931 0.0131268,0.0436977 0.0384922,0.0734163 0.0566382,0.0663554 0.0181459,-0.00706094 0.0222096,-0.0482293 0.00908288,-0.091927 -0.0131347,-0.0437017 -0.0384962,-0.0734203 -0.0566461,-0.0663593zm-3.08598 -0.0100304c0.0181459,0.00706094 0.0222096,0.0482293 0.00907495,0.091931 -0.0131268,0.0436977 -0.0384922,0.0734163 -0.0566382,0.0663554 -0.0181459,-0.00706094 -0.0222096,-0.0482293 -0.00908288,-0.091927 0.0131347,-0.0437017 0.0384962,-0.0734203 0.0566461,-0.0663593z"/>
    <path id="_162383048" class="fil1" d="M4.16829 3.21671c0.035051,0.0566738 0.120286,0.223678 -0.00442845,0.343952 0,0 0.0693288,-0.131795 -0.0424608,-0.282953 -0.0416243,0.0552862 -0.0863171,0.117721 -0.132029,0.18649l-0.0327237 -0.0488953 -0.000808777 -0.0539145c0,0 0.0799539,-0.168309 0.405253,-0.368969 0,0 -0.0804535,0.0811711 -0.192802,0.224289zm-2.9925 0.144676c0,0 -0.0799539,-0.168309 -0.405253,-0.368969 0,0 0.0804614,0.081175 0.192806,0.224293 -0.035051,0.0566659 -0.120294,0.223674 0.00442448,0.343948 0,0 -0.0693169,-0.131799 0.0424766,-0.282957 0.0416282,0.0552823 0.0863012,0.117725 0.132013,0.186494l0.0327237 -0.0488953 0.000808777 -0.0539145z"/>
   </g>
  </g>
 </g>
</svg>
