<?xml version="1.0" encoding="UTF-8"?>
<!DOCTYPE svg PUBLIC "-//W3C//DTD SVG 1.1//EN" "http://www.w3.org/Graphics/SVG/1.1/DTD/svg11.dtd">
<!-- Creator: CorelDRAW -->
<svg xmlns="http://www.w3.org/2000/svg" xml:space="preserve" width="129.436mm" height="197.989mm" style="shape-rendering:geometricPrecision; text-rendering:geometricPrecision; image-rendering:optimizeQuality; fill-rule:evenodd; clip-rule:evenodd"
viewBox="0 0 9.1814 14.0441"
 xmlns:xlink="http://www.w3.org/1999/xlink">
 <defs>
  <style type="text/css">
   <![CDATA[
    .fil0 {fill:none}
    .fil1 {fill:#501D33}
    .fil5 {fill:#D56853}
    .fil3 {fill:#E37971}
    .fil4 {fill:#F8C578}
    .fil2 {fill:#FFCFA5}
    .fil6 {fill:white}
   ]]>
  </style>
 </defs>
 <g id="Layer_x0020_1">
  <metadata id="CorelCorpID_0Corel-Layer"/>
  <g id="_113853256">
   <rect id="_90525712" class="fil0" width="9.1814" height="14.0441"/>
   <g id="_162383216">
    <path id="_162380552" class="fil1" d="M2.20133 5.23093c0,0 -0.662017,-0.696001 -1.00793,-0.419715 -0.345915,0.276287 -0.0960442,1.81539 0.929714,1.69314 1.02577,-0.12224 0.0782186,-1.27344 0.0782186,-1.27344l0 7.09337e-006zm4.77875 0c0,0 0.662017,-0.696001 1.00793,-0.419715 0.345915,0.276287 0.0960442,1.81539 -0.929714,1.69314 -1.02577,-0.12224 -0.0782186,-1.27344 -0.0782186,-1.27344l0 7.09337e-006z"/>
    <path id="_162380096" class="fil2" d="M2.0551 5.32508c0,0 -0.482519,-0.554382 -0.749443,-0.359322 -0.266923,0.195061 -0.0718629,1.45782 0.728908,1.39621 0.800778,-0.0615917 0.0205353,-1.03689 0.0205353,-1.03689l0 7.09337e-006zm5.0712 0c0,0 0.482519,-0.554382 0.749443,-0.359322 0.266923,0.195061 0.0718629,1.45782 -0.728908,1.39621 -0.800778,-0.0615917 -0.0205353,-1.03689 -0.0205353,-1.03689l0 7.09337e-006z"/>
    <path id="_162384080" class="fil3" d="M7.1032 5.39551c0,0 0.167169,-0.192096 0.354066,-0.300816 -0.0252737,0.0269335 -0.0365592,0.0522356 -0.0277989,0.0693802 0.0172794,0.0338212 0.106003,0.0230676 0.198139,-0.0239969 0.0616839,-0.0315158 0.109245,-0.0713025 0.128787,-0.104329 0.0157331,0.00608611 0.0309413,0.0142151 0.0454401,0.0248055 0.248828,0.181831 0.0669898,1.35897 -0.679488,1.30156 -0.746485,-0.0574208 -0.019145,-0.966599 -0.019145,-0.966599zm-5.025 0c0,0 -0.167169,-0.192096 -0.354066,-0.300816 0.0252737,0.0269335 0.0365592,0.0522356 0.0277989,0.0693802 -0.0172794,0.0338212 -0.106003,0.0230676 -0.198139,-0.0239969 -0.0616839,-0.0315158 -0.109245,-0.0713025 -0.128787,-0.104329 -0.0157331,0.00608611 -0.0309413,0.0142151 -0.0454401,0.0248055 -0.248828,0.181831 -0.0669898,1.35897 0.679488,1.30156 0.746485,-0.0574208 0.019145,-0.966599 0.019145,-0.966599z"/>
    <path id="_162383864" class="fil1" d="M1.86039 6.05706c0.169319,0.0287211 0.296723,0.163821 0.296723,0.363173 0,0.199352 -0.154692,0.387376 -0.345447,0.387376 -0.190748,0 -0.34544,-0.173468 -0.34544,-0.387376 0,-0.067692 0.0155203,-0.131334 0.0427376,-0.186712 0.0512851,0.0487811 0.150599,0.118268 0.306384,0.127205 0,0 -0.0703166,-0.153862 0.0450429,-0.303667z"/>
    <path id="_162383792" class="fil4" d="M1.81166 6.68669c-0.131199,0 -0.237614,-0.119332 -0.237614,-0.266462 0,-0.0113494 0.000645497,-0.0225144 0.00187974,-0.0334878 0.0472277,0.0255929 0.111501,0.0501076 0.191791,0.0573712 0.0814035,0.00736292 0.0829286,-0.0286856 0.0587757,-0.0716998l0.0037453 0.000226988c0,0 0.0356938,-0.0226349 0.0457168,-0.0736646 -0.00688766,-0.0361691 -8.51204e-005,-0.0989241 0.0266072,-0.141279 0.251673,0.103946 0.182527,0.528995 -0.0909015,0.528995z"/>
    <path id="_162383720" class="fil5" d="M1.81166 6.68669c-0.0641241,0 -0.122304,-0.0284941 -0.165056,-0.0748209 0.256645,0.0327501 0.361783,-0.137994 0.404655,-0.272173 0.0346653,0.157005 -0.0567824,0.346993 -0.2396,0.346993z"/>
    <path id="_162383648" class="fil1" d="M1.81166 6.28199c0.0680538,0 0.123276,0.0618967 0.123276,0.138243 0,0.0763459 -0.0552219,0.138243 -0.123276,0.138243 -0.0680396,0 -0.123269,-0.0618967 -0.123269,-0.138243 0,-0.0282174 0.00756153,-0.05447 0.020514,-0.0763459 0.0320407,0.00854751 0.0674508,0.0146052 0.106436,0.0168397 0,0 -0.0140094,-0.0313243 -0.0196274,-0.0776015 0.00522781,-0.000758991 0.0105407,-0.00113494 0.0159459,-0.00113494z"/>
    <ellipse id="_162383312" class="fil6" transform="matrix(0.969266 -0.246011 0.542175 0.894096 1.95261 6.26785)" rx="0.0392263" ry="0.0769631"/>
    <path id="_162383408" class="fil1" d="M7.51369 5.56064c0.0289906,0.0431915 0.0584139,0.110047 0.0616059,0.20575 0.00646915,0.194053 -0.202374,0.314648 -0.202374,0.314648 0,0 0.194983,-0.188045 0.057208,-0.448365 -0.0693022,0.0354952 -0.229385,0.121119 -0.363393,0.154181 0.140832,-0.126368 0.485832,-0.42412 0.787676,-0.590885 -0.165871,0.192585 -0.196607,0.216589 -0.340723,0.36467zm-5.39901 0.226215c-0.140832,-0.126368 -0.485832,-0.42412 -0.787676,-0.590885 0.165871,0.192592 0.196614,0.216596 0.340723,0.364677 -0.0289977,0.0431915 -0.0584139,0.110039 -0.0616059,0.205743 -0.00646915,0.194053 0.202374,0.314648 0.202374,0.314648 0,0 -0.194961,-0.188045 -0.0571867,-0.448365 0.0692951,0.0354952 0.229357,0.121119 0.363372,0.154181z"/>
    <path id="_162383576" class="fil2" d="M7.25933 5.74062c0,0 0.1321,-0.0694725 0.149975,-0.0575627 0.0178753,0.0119098 0.0694937,0.0972856 0.031757,0.202551 -0.0377367,0.105266 0.00595843,-0.19067 -0.181732,-0.144988zm-5.33727 0c0,0 -0.1321,-0.0694725 -0.149975,-0.0575627 -0.0178753,0.0119098 -0.0694937,0.0972856 -0.031757,0.202551 0.0377367,0.105266 -0.00595843,-0.19067 0.181732,-0.144988z"/>
   </g>
  </g>
 </g>
</svg>
