<?xml version="1.0" encoding="UTF-8"?>
<!DOCTYPE svg PUBLIC "-//W3C//DTD SVG 1.1//EN" "http://www.w3.org/Graphics/SVG/1.1/DTD/svg11.dtd">
<!-- Creator: CorelDRAW -->
<svg xmlns="http://www.w3.org/2000/svg" xml:space="preserve" width="129.436mm" height="197.989mm" style="shape-rendering:geometricPrecision; text-rendering:geometricPrecision; image-rendering:optimizeQuality; fill-rule:evenodd; clip-rule:evenodd"
viewBox="0 0 7.4287 11.3631"
 xmlns:xlink="http://www.w3.org/1999/xlink">
 <defs>
  <style type="text/css">
   <![CDATA[
    .fil0 {fill:none}
    .fil1 {fill:#501D33}
    .fil2 {fill:#E37971}
    .fil3 {fill:#FFCFA5}
   ]]>
  </style>
 </defs>
 <g id="Layer_x0020_1">
  <metadata id="CorelCorpID_0Corel-Layer"/>
  <g id="_113851960">
   <rect id="_90799728" class="fil0" width="7.4287" height="11.3631"/>
   <g id="_102489928">
    <path id="_102489232" class="fil1" d="M5.84757 4.0258c0.0908641,-0.0586496 0.378901,-0.112231 0.408636,-0.0850846 0.14483,0.132204 0.303636,0.615077 0.273631,0.681446 -0.0299992,0.0663632 -0.274079,0.362297 -0.295722,0.43363 -0.00792593,0.0261137 0.00615823,0.105453 0.0199956,0.169859 0.0214821,0.100007 0.0376094,0.133696 -0.0808663,0.210218 -0.115658,0.0746966 -0.445017,0.202797 -0.445017,0.202797 -0.0959032,-0.313324 -0.109488,-1.09764 0.119342,-1.61287zm-4.25865 -0.00864334c-0.0918972,-0.0593153 -0.383211,-0.113506 -0.413279,-0.0860546 -0.146478,0.133708 -0.307091,0.622074 -0.276742,0.6892 0.0303435,0.0671207 0.277195,0.366418 0.299079,0.438566 0.00801776,0.0264064 -0.00622711,0.106647 -0.0202194,0.171788 -0.0217289,0.101143 -0.0380399,0.135211 0.0817903,0.212611 0.116966,0.0755402 0.450073,0.205098 0.450073,0.205098 0.0969936,-0.316888 0.110733,-1.11012 -0.120703,-1.63121z"/>
    <path id="_102489472" class="fil2" d="M5.81072 4.16682c0.0687564,-0.0326679 0.374866,-0.0997255 0.396905,-0.0820543 0.0613126,0.0335231 0.188036,0.415741 0.197035,0.506938 0,0 -0.161537,0.280851 -0.254496,0.374872 -0.00516534,0.00522273 -0.0327483,-0.0860718 -0.0359852,-0.0822035 -0.0161905,0.0891653 0.0154845,0.251782 0.0468095,0.354119 0.0320423,0.104713 -0.123486,0.158117 -0.35995,0.253653 -0.00422984,-0.0551544 -0.0911625,-0.0884823 -0.090933,-0.174847 0.000820715,-0.308445 -0.0735659,-0.795411 0.100615,-1.15048zm-4.18779 0c-0.0687564,-0.0326679 -0.374866,-0.0997255 -0.396905,-0.0820543 -0.0613126,0.0335231 -0.188036,0.415741 -0.197035,0.506938 0,0 0.161537,0.280851 0.254496,0.374872 0.00516534,0.00522273 0.0327483,-0.0860718 0.0359852,-0.0822035 0.0161905,0.0891653 -0.0154845,0.251782 -0.0468095,0.354119 -0.0320423,0.104713 0.123486,0.158117 0.35995,0.253653 0.00422984,-0.0551544 0.0911625,-0.0884823 0.090933,-0.174847 -0.000820715,-0.308445 0.0735659,-0.795411 -0.100615,-1.15048z"/>
    <path id="_102489400" class="fil1" d="M5.91352 4.70535c0.00836211,0.0384531 0.0405307,0.190831 0.028989,0.209426 -0.00536622,0.00864334 -0.0954211,0.0758272 -0.130689,0.114716 -0.0515558,0.0568532 -0.0319849,0.0891308 -0.0319849,0.0891308 0,0 0.168643,-0.0937624 0.221633,-0.149806 0.0452541,-0.0478655 -0.0151115,-0.258129 -0.0336838,-0.318472 0.124364,-0.127245 0.259111,-0.272059 0.259111,-0.272059 -0.0357384,0.0046775 -0.410059,0.283623 -0.410059,0.283623 0,0 -0.108105,0.208898 -0.0465742,0.174944 0.0202596,-0.0111744 0.0766881,-0.0647217 0.143258,-0.131504zm-4.29671 -0.0434405c0,0 -0.374321,-0.278946 -0.410059,-0.283623 0,0 0.134747,0.144813 0.259111,0.272059 -0.0185723,0.0603369 -0.0789379,0.270601 -0.0336838,0.318472 0.0529907,0.056044 0.221633,0.149806 0.221633,0.149806 0,0 0.0195709,-0.0322776 -0.0319849,-0.0891308 -0.0352678,-0.0388893 -0.125323,-0.106073 -0.130689,-0.114716 -0.0115417,-0.0185952 0.0206269,-0.170979 0.028989,-0.209426 0.0665812,0.0667936 0.122998,0.120329 0.143258,0.131504 0.0615307,0.0339535 -0.0465742,-0.174944 -0.0465742,-0.174944z"/>
    <path id="_102489328" class="fil3" d="M1.26869 5.2698c0.0054523,0.085033 0.15224,0.136813 0.363921,0.222339 0.0015783,-0.0206155 0.0147097,-0.0381948 0.0305329,-0.0566179 -0.00898769,-0.0566753 -0.0166841,-0.103927 -0.0166841,-0.103927 0,0 -0.155333,0.0299934 -0.37777,-0.0617947zm0.120479 -1.15913c-0.054282,-0.0224405 -0.14805,-0.0380169 -0.163144,-0.0259128 -0.0613126,0.0335231 -0.188036,0.415741 -0.197035,0.506938 0,0 0.161537,0.280851 0.254496,0.374872 0.000172178,0.000172178 0.000378792,0.000218092 0.000608362,0.000189396 0.0036387,-0.0226988 -0.182509,-0.374757 -0.182509,-0.374757 0,0 0.128864,-0.411471 0.142684,-0.442033 0.0138202,-0.0305673 0.119916,-0.0371445 0.144899,-0.0392968zm4.65531 0c0.054282,-0.0224405 0.14805,-0.0380169 0.163144,-0.0259128 0.0613126,0.0335231 0.188036,0.415741 0.197035,0.506938 0,0 -0.161537,0.280851 -0.254496,0.374872 -0.000172178,0.000172178 -0.000378792,0.000218092 -0.000608362,0.000189396 -0.0036387,-0.0226988 0.182509,-0.374757 0.182509,-0.374757 0,0 -0.128864,-0.411471 -0.142684,-0.442033 -0.0138202,-0.0305673 -0.119916,-0.0371445 -0.144899,-0.0392968zm0.120479 1.15913c-0.0054523,0.085033 -0.15224,0.136813 -0.363921,0.222339 -0.0015783,-0.0206155 -0.0147097,-0.0381948 -0.0305329,-0.0566179 0.00898769,-0.0566753 0.0166841,-0.103927 0.0166841,-0.103927 0,0 0.155333,0.0299934 0.37777,-0.0617947z"/>
   </g>
  </g>
 </g>
</svg>
