<?xml version="1.0" encoding="UTF-8"?>
<!DOCTYPE svg PUBLIC "-//W3C//DTD SVG 1.1//EN" "http://www.w3.org/Graphics/SVG/1.1/DTD/svg11.dtd">
<!-- Creator: CorelDRAW 2020 (64-Bit) -->
<svg xmlns="http://www.w3.org/2000/svg" xml:space="preserve" width="129.436mm" height="197.989mm" version="1.1" style="shape-rendering:geometricPrecision; text-rendering:geometricPrecision; image-rendering:optimizeQuality; fill-rule:evenodd; clip-rule:evenodd"
viewBox="0 0 628.11 960.77"
 xmlns:xlink="http://www.w3.org/1999/xlink"
 xmlns:xodm="http://www.corel.com/coreldraw/odm/2003">
 <defs>
  <style type="text/css">
   <![CDATA[
    .fil0 {fill:none}
    .fil1 {fill:#501D33}
    .fil5 {fill:#88958A}
    .fil6 {fill:#9B6858}
    .fil2 {fill:#AFC0A6}
    .fil3 {fill:#BE9A7D}
    .fil4 {fill:#D6E6C6}
   ]]>
  </style>
 </defs>
 <g id="Слой_x0020_1">
  <metadata id="CorelCorpID_0Corel-Layer"/>
  <g id="_2674612071664">
   <rect id="_285630640" class="fil0" y="0" width="628.11" height="960.77"/>
   <path id="_283861528" class="fil1" d="M286.63 465.02c-6.52,-7 -15.12,-12.89 -23.46,-17.6 -9.57,-5.41 -9.31,-4.29 -4.17,-14.56 4.23,-8.44 7.71,-20.18 21.18,-25.52 4.89,-7.26 15.95,-18.37 22.07,-20.22 0.5,-0.15 18.99,-2.19 23.71,-0.62 5.69,1.89 18.16,13.73 23.06,19.77 8.58,2.45 20.24,23.24 23.2,32.96 1,3.28 -0.44,4.4 -7.39,8.39 -8.12,4.66 -16.37,10.57 -22.74,17.41 -16.4,17.61 -39.13,17.53 -55.45,0z"/>
   <path id="_283861456" class="fil2" d="M329.18 472.38c0,0 9.88,-18.46 36.76,-32.22 0,0 -9.8,-21.12 -14.71,-25.19 -4.9,-4.07 -18.18,3.87 -18.18,3.87 0,0 4.07,-6.14 10.39,-10.88 0,0 -11.18,-20.24 -17.81,-23.53 -5.58,-1.54 -16.86,-1.2 -22.44,0.34 -6.63,3.29 -17.94,23.19 -17.94,23.19 6.32,4.74 10.39,10.88 10.39,10.88 0,0 -13.28,-7.94 -18.18,-3.87 -4.9,4.07 -14.71,25.19 -14.71,25.19 26.88,13.76 36.76,32.22 36.76,32.22 10.04,8.96 19.6,8.96 29.64,0z"/>
   <path id="_283861456_0" class="fil3" d="M342.09 456.78c5.71,-5.36 13.53,-11.34 23.85,-16.63 0,0 -9.8,-21.12 -14.71,-25.19 -4.9,-4.07 -18.18,3.87 -18.18,3.87 0,0 4.07,-6.14 10.39,-10.88 0,0 -0.29,-0.52 -0.8,-1.41 -8.63,5.11 -14.43,14.52 -14.43,25.29 0,10.53 5.54,19.76 13.86,24.94zm-22 -19.57c3.1,0 5.19,2.52 4.67,5.62 -0.52,3.1 -3.46,5.62 -6.57,5.62 -3.1,0 -5.19,-2.52 -4.67,-5.62 0.52,-3.1 3.46,-5.62 6.57,-5.62z"/>
   <path id="_283861456_1" class="fil4" d="M338.79 412.03c1.36,-1.36 2.93,-2.76 4.66,-4.07 0,0 -11.18,-20.24 -17.81,-23.53 -5.58,-1.54 -16.86,-1.2 -22.44,0.34 -6.63,3.29 -17.94,23.19 -17.94,23.19 1.57,1.18 3.01,2.45 4.28,3.69 20.21,14.51 31.24,10.7 49.25,0.38z"/>
   <path id="_283861384" class="fil5" d="M296.82 416.2c0,0 9.23,7.93 17.86,7.63 8.63,-0.3 19.29,-9.07 19.29,-9.07 0,0 -18.98,6.86 -37.15,1.45z"/>
   <path id="_283861312" class="fil5" d="M329.18 472.38c0,0 9.88,-18.46 36.76,-32.22 0,0 -0.54,-1.17 -1.44,-3.01 -4.96,-7.18 -14.46,-17.5 -19.73,-17.5 -7.23,0 -19.13,16.12 -30.47,15.44 -11.34,-0.68 -23.21,-13.8 -31.53,-13.93 -7.47,-0.12 -17.91,15.71 -19.96,18.93l-0.04 0.08c26.88,13.76 36.76,32.22 36.76,32.22 10.04,8.96 19.6,8.96 29.64,0z"/>
   <path id="_283861312_2" class="fil6" d="M342.09 456.78c5.71,-5.36 13.53,-11.34 23.85,-16.63 0,0 -0.54,-1.17 -1.44,-3.01 -4.96,-7.18 -14.46,-17.5 -19.73,-17.5 -4.24,0 -10.07,5.53 -16.46,9.98 -0.05,0.73 -0.08,1.47 -0.08,2.22 0,10.53 5.54,19.76 13.86,24.94zm-22 -19.57c3.1,0 5.19,2.52 4.67,5.62 -0.52,3.1 -3.46,5.62 -6.57,5.62 -3.1,0 -5.19,-2.52 -4.67,-5.62 0.52,-3.1 3.46,-5.62 6.57,-5.62z"/>
   <path id="_283861240" class="fil1" d="M340.35 433.04c0,0 5.79,1.23 10.56,5.83 -8.14,5.23 -21.3,17.02 -30.58,32.05 -1.7,-5.27 1.95,-29.11 20.02,-37.88z"/>
   <path id="_283861168" class="fil1" d="M288.37 433.04c0,0 -5.79,1.23 -10.56,5.83 8.14,5.23 21.3,17.02 30.58,32.05 1.7,-5.27 -1.94,-29.11 -20.02,-37.88z"/>
   <path id="_283861096" class="fil1" d="M365.85 442.4c0,0 -7.15,-11.29 -14.1,-19.43 0,0 9.8,6.56 15.18,13.76l0.6 3.19c0,0 -1.69,2.75 -1.68,2.48z"/>
   <path id="_283861024" class="fil1" d="M262.74 442.4c0,0 7.15,-11.29 14.1,-19.43 0,0 -9.8,6.56 -15.18,13.76l-0.6 3.19c0,0 1.69,2.75 1.68,2.48z"/>
   <path class="fil3" d="M301.73 385.72c1.14,1.94 1.79,4.22 1.79,6.71 0,7.71 -6.25,14.41 -13.96,14.97 -1.32,0.1 -2.6,0 -3.81,-0.25 2.03,-3.47 10.16,-17.01 15.99,-21.43zm9.17 13.4c3.1,-0.22 5.62,2.11 5.62,5.21 0,3.1 -2.52,5.8 -5.62,6.02 -3.1,0.22 -5.62,-2.11 -5.62,-5.21 0,-3.1 2.52,-5.8 5.62,-6.02z"/>
  </g>
 </g>
</svg>
