<?xml version="1.0" encoding="UTF-8"?>
<!DOCTYPE svg PUBLIC "-//W3C//DTD SVG 1.1//EN" "http://www.w3.org/Graphics/SVG/1.1/DTD/svg11.dtd">
<!-- Creator: CorelDRAW 2020 (64-Bit) -->
<svg xmlns="http://www.w3.org/2000/svg" xml:space="preserve" width="129.436mm" height="197.988mm" version="1.1" style="shape-rendering:geometricPrecision; text-rendering:geometricPrecision; image-rendering:optimizeQuality; fill-rule:evenodd; clip-rule:evenodd"
viewBox="0 0 432.58 661.69"
 xmlns:xlink="http://www.w3.org/1999/xlink"
 xmlns:xodm="http://www.corel.com/coreldraw/odm/2003">
 <defs>
  <style type="text/css">
   <![CDATA[
    .fil0 {fill:none}
    .fil6 {fill:#343546}
    .fil1 {fill:#501D33}
    .fil5 {fill:#51645C}
    .fil3 {fill:#AD8D60}
    .fil2 {fill:#DEDA81}
    .fil4 {fill:white}
   ]]>
  </style>
 </defs>
 <g id="Слой_x0020_1">
  <metadata id="CorelCorpID_0Corel-Layer"/>
  <g id="_2674686343248">
   <rect id="_283858840" class="fil0" y="0" width="432.58" height="661.69"/>
   <path id="_282341344" class="fil1" d="M189.03 265.43l4.99 17.67 -3.27 5.76c0,0 -2.88,-1.82 -3.94,-1.54 -1.06,0.29 -6.53,3.55 -11.62,13.45 0,0 -1.44,3.46 2.11,7.88 3.55,4.42 12.49,11.72 24.59,14.12 0,0 3.75,4.23 9.51,5.28 3.7,0.71 6.07,0.71 9.77,0 5.76,-1.06 9.51,-5.28 9.51,-5.28 12.1,-2.4 21.03,-9.7 24.59,-14.12 3.55,-4.42 2.11,-7.88 2.11,-7.88 -5.09,-9.89 -10.56,-13.16 -11.62,-13.45 -1.06,-0.29 -3.94,0.77 -3.94,0.77l-4.17 -4.52 5.9 -18.15c1.11,-4.15 -0.85,-3 -1.41,-2.02 -13.84,-5.83 -36.56,-5.64 -50.8,0.06 -1.59,-3.1 -3.53,-2.64 -2.32,1.95z"/>
   <path id="_282341272" class="fil2" d="M191.33 263.41l7.3 18.92 -3.75 8.07c0,0 5.9,7.98 5.81,8.88 -0.1,0.91 -11.72,-7.18 -11.72,-7.18 0,0 -5.7,2.52 -9.35,11.35 0,0 4.61,9.8 19.5,13.16l3.27 0.58c0,0 5.86,8.36 14.79,7.01 8.93,-1.34 14.12,-8.55 14.12,-8.55l2.02 1.54c0,0 12.2,-2.79 18.34,-13.06 0,0 0.96,-5.19 -7.3,-11.91 0,0 -4.13,1.15 -11.14,7.78 0,0 -0.07,-4.4 4.62,-9.86l-5.64 -6.02 9.96 -20.52c0.95,-1.96 -23.86,-15.74 -50.81,-0.19z"/>
   <path id="_282340840" class="fil3" d="M231.72 315.99l1.58 1.2c0,0 12.2,-2.79 18.34,-13.06 0,0 0.88,-4.75 -6.28,-11.04 1.09,2.83 2.11,8.09 -3.06,11.85 -7.4,5.38 -10.28,8.93 -10.28,8.93 0,0 -0.13,0.86 -0.32,2.12zm-35.28 -9.13c4.73,7.67 10.22,13.96 16.51,15.51 6.51,1.61 17.45,-4.42 18.11,-11.66 0,0 -18.7,11.04 -34.62,-3.85zm-16.76 -3.57l-0.07 0.17c0,0 4.61,9.8 19.5,13.16l1 0.18c-2.5,-3.22 -6.6,-8.28 -8.03,-8.84 0,0 -5.65,-4.96 -12.4,-4.67z"/>
   <path id="_282341056" class="fil4" d="M200.1 299.21c-2.38,-1.02 -11.13,-7.1 -11.13,-7.1 0,0 -5.7,2.52 -9.35,11.35l0.01 0.02 0.02 0.03c0,0 6.27,-7.8 8.85,-8.66 0,0 6.69,3.55 11.6,4.36z"/>
   <path class="fil5" d="M209.73 291.97c0.43,-1.45 1.06,-2.33 2,-3.44 1,-1.19 3.16,-4.38 2.39,-6.33 -5.44,3.05 -11.72,2.75 -15.69,-0.41l0.21 0.53 -3.19 6.87c4.29,3.77 8.13,10.36 3.86,15.77 -2.46,3.12 -8.34,2.6 -9.2,-3.04 -1.13,-7.4 4.46,-4.79 7.21,-4.24 0.04,0.01 0.07,0.01 0.1,0.02 -3.47,-2.14 -8.44,-5.6 -8.44,-5.6 0,0 -2.83,1.25 -5.78,5.08 2.6,2.98 1.4,6.16 -0.41,7.42 -0.59,0.41 -1.14,0.81 -1.65,1.21 2.09,2.76 6.54,7.29 14.66,9.89 0.24,-1.04 0.8,-1.8 2.09,-1.75 16.59,-2.7 10.39,-17.1 11.85,-21.99zm-15.2 -20.27c0.08,-0.92 0.24,-1.89 0.49,-2.9 0.63,-2.11 2,-4.17 5.36,-4.43 5.28,-0.41 7.08,5.57 5.37,7.74 -2.52,3.19 -5.43,1.43 -5.54,-0.95 -0.06,-1.21 0.25,-2.14 0.66,-3.18 -2.72,0.37 -4.53,6.36 -0.49,9.45 4.57,3.51 8.49,-0.22 9.62,-1.74 0.84,2.86 -0.42,4.89 -1.04,5.59 6.68,-2.43 8.86,-13.77 -0.39,-19.45 -1.88,-1.15 -2.99,-2.66 -3.32,-4.13 -4.48,1.14 -9.16,2.97 -13.91,5.71l3.2 8.29zm41.11 44.78c3.51,-1.24 10.22,-4.27 14.77,-10.48 -0.58,-0.45 -1.21,-0.92 -1.89,-1.39 -1.93,-1.35 -3.17,-4.89 0.19,-8.04 -1.05,-1.34 -2.46,-2.8 -4.36,-4.35 0,0 -2.9,0.81 -7.98,4.98 0.24,-0.15 0.52,-0.3 0.85,-0.42 1.75,-0.64 4.58,1.15 3.97,5.14 -0.86,5.64 -6.73,6.16 -9.2,3.04 -4.47,-5.66 -0.05,-12.61 4.46,-16.28l-4.28 -4.57 1.46 -3c-3.89,3.78 -10.66,4.34 -16.46,1.09 -0.77,1.94 1.39,5.13 2.39,6.33 0.93,1.11 1.56,1.99 2,3.44 1.46,4.89 -4.74,19.29 11.85,21.99 1.59,-0.06 2.07,1.1 2.22,2.52zm1.08 -41.7l5.42 -11.18c0.49,-1.01 -5.93,-5.2 -15.98,-6.84 0.02,1.74 -1.14,3.67 -3.42,5.07 -9.25,5.68 -7.24,16.41 -0.28,18.95 -0.62,-0.7 -1.99,-2.23 -1.15,-5.1 1.13,1.52 5.05,5.24 9.62,1.74 4.03,-3.09 2.23,-9.08 -0.49,-9.45 0.41,1.04 0.72,1.97 0.66,3.18 -0.11,2.38 -3.02,4.14 -5.54,0.95 -1.71,-2.16 0.1,-8.14 5.37,-7.74 3.35,0.26 4.72,2.31 5.36,4.43 0.55,2.22 0.67,4.21 0.44,5.98z"/>
   <path class="fil6" d="M183.72 303.7c-0.28,0.36 -0.6,0.67 -0.94,0.91 -0.59,0.41 -1.14,0.81 -1.65,1.21l0.2 0.26 0.11 0.14 0 0 0.1 0.12 0.02 0.02c0.11,0.14 0.22,0.27 0.34,0.41l0.12 0.15c0.17,0.2 0.35,0.4 0.54,0.6l0.14 0.16 0.11 0.12 0.09 0.09 0.1 0.1 0.16 0.16 0.15 0.15 0.01 0.01 0.16 0.16 0.11 0.11 0.1 0.1 0.12 0.12 0.18 0.16 0.02 0.02 0.13 0.12 0.03 0.03 0.18 0.17 0.14 0.12 0.07 0.06 0.17 0.15 0.2 0.17 0 0 0.16 0.14 0.11 0.09 0.24 0.19 0.16 0.13 0.14 0.11 0.01 0.01 0.22 0.17 0.01 0.01 0.13 0.1 0.17 0.13 0.23 0.17 0.16 0.12 0.18 0.13 0.02 0.02 0.24 0.17 0.01 0 0.12 0.09 0.24 0.16 0.11 0.08c0.11,0.07 0.21,0.14 0.32,0.21l0.13 0.09 0.25 0.16 0.24 0.15 0.21 0.13 0.14 0.08 0.35 0.2 0.18 0.1 0.22 0.12 0.26 0.14 0.24 0.13 0.18 0.1 0.36 0.19 0.16 0.08 0.31 0.15 0.18 0.09 0.35 0.16 0.18 0.08 0.39 0.18 0.2 0.09 0.27 0.12 0.23 0.1 0.39 0.16 0.17 0.07c0.15,0.06 0.3,0.12 0.45,0.17l0.15 0.05 0.36 0.13 0.2 0.07c0.14,0.05 0.29,0.1 0.44,0.15l0.21 0.07 0.38 0.13 0.09 0.03c0.24,-1.04 0.8,-1.79 2.08,-1.75 -2.24,-2.76 -4.73,-5.6 -5.78,-6 0,0 -3.54,-3.11 -8.37,-4.26zm17.17 9.57c1.17,-0.36 2.19,-0.79 3.07,-1.28 -2.46,-1.28 -4.98,-2.96 -7.52,-5.14 1.41,2.29 2.9,4.46 4.45,6.42zm44.77 -19.93l-0.27 -0.24 -0.02 -0.01c1.09,2.83 2.11,8.09 -3.06,11.85 -6.53,4.75 -9.54,8.07 -10.15,8.79 0.4,0.09 0.82,0.17 1.25,0.24 1.59,-0.06 2.07,1.1 2.22,2.52 2.41,-0.85 6.34,-2.55 10.03,-5.54l0.01 -0.01 0.24 -0.2 0.04 -0.04c0.15,-0.12 0.3,-0.25 0.44,-0.38l0.03 -0.03c0.24,-0.21 0.48,-0.42 0.72,-0.64l0.03 -0.02 0.23 -0.21 0.04 -0.04c0.14,-0.14 0.29,-0.28 0.43,-0.42l0.04 -0.04 0.21 -0.22 0.06 -0.06c0.14,-0.14 0.27,-0.29 0.41,-0.43l0.04 -0.04c0.22,-0.24 0.44,-0.49 0.65,-0.74l0.04 -0.05c0.21,-0.25 0.42,-0.5 0.62,-0.77l0.05 -0.07 0.19 -0.25 0.06 -0.08 0.17 -0.22c-0.58,-0.45 -1.21,-0.92 -1.89,-1.39 -1.93,-1.35 -3.17,-4.89 0.19,-8.04l0 -0 -0.05 -0.06 -0.05 -0.06 -0 -0 -0.05 -0.06 -0.05 -0.06 -0.05 -0.06 -0 -0 -0.1 -0.12 -0 -0 -0.05 -0.06 -0.05 -0.06 -0.05 -0.06 -0.02 -0.02 -0.04 -0.05 -0.06 -0.06 -0.06 -0.06 -0.06 -0.07 -0.08 -0.09 -0.1 -0.11 -0.06 -0.07 -0.06 -0.07 -0.06 -0.07 -0.06 -0.07 -0.06 -0.07 -0 -0.01 -0.11 -0.12 -0.01 -0.01 -0.06 -0.07 -0.06 -0.07 -0.01 -0.02 -0.11 -0.11 -0.14 -0.14 -0.07 -0.07 -0.01 -0.01 -0.06 -0.06 -0.2 -0.2 -0 -0 -0.02 -0.02 -0.05 -0.05 -0.21 -0.21 -0.03 -0.03 -0.04 -0.04 -0.07 -0.07 -0.07 -0.07 -0.07 -0.07 -0.04 -0.04 -0.03 -0.03 -0.01 -0.01 -0.26 -0.23 -0.02 -0.02 -0.02 -0.02 -0.02 -0.02z"/>
   <path id="_282340624" class="fil1" d="M202.52 317.31c0,0 -9.57,-13.81 -15.34,-13.24 -5.76,0.58 13.93,14.5 13.93,14.5l1.41 -1.27z"/>
   <path id="_282340624_0" class="fil1" d="M228.35 318.86c0,0 9.57,-13.81 15.34,-13.24 5.76,0.58 -13.93,14.5 -13.93,14.5l-1.41 -1.27z"/>
  </g>
 </g>
</svg>
