<?xml version="1.0" encoding="UTF-8"?>
<!DOCTYPE svg PUBLIC "-//W3C//DTD SVG 1.1//EN" "http://www.w3.org/Graphics/SVG/1.1/DTD/svg11.dtd">
<!-- Creator: CorelDRAW 2020 (64-Bit) -->
<svg xmlns="http://www.w3.org/2000/svg" xml:space="preserve" width="129.436mm" height="197.988mm" version="1.1" style="shape-rendering:geometricPrecision; text-rendering:geometricPrecision; image-rendering:optimizeQuality; fill-rule:evenodd; clip-rule:evenodd"
viewBox="0 0 917.39 1403.26"
 xmlns:xlink="http://www.w3.org/1999/xlink"
 xmlns:xodm="http://www.corel.com/coreldraw/odm/2003">
 <defs>
  <style type="text/css">
   <![CDATA[
    .fil0 {fill:none}
    .fil1 {fill:#501D33}
    .fil7 {fill:#88958A}
    .fil3 {fill:#AD8D60}
    .fil6 {fill:#AFC0A6}
    .fil2 {fill:#DEDA81}
    .fil4 {fill:#E4F6A3}
    .fil5 {fill:white}
   ]]>
  </style>
 </defs>
 <g id="Слой_x0020_1">
  <metadata id="CorelCorpID_0Corel-Layer"/>
  <g id="_2674555173488">
   <g id="_124017664">
    <rect id="_285633832" class="fil0" y="0" width="917.39" height="1403.26"/>
    <g>
     <path id="_271072488" class="fil1" d="M395.25 544.78l20.61 52.48c0,0 -5.78,6.77 -8.76,12.75 0,0 -4.58,-1.29 -7.57,0.89 -2.24,1.64 -15.87,19.24 -22.4,27.24 -4.19,5.13 -6.9,8.35 -2,15.38 3.72,5.34 34.26,34.53 60.95,51.56 21.92,13.99 25.66,12.15 48.4,-3.18 25.54,-17.22 52.44,-43.73 55.96,-48.78 4.89,-7.02 2.18,-10.25 -2,-15.38 -6.52,-8 -20.25,-26 -22.49,-27.64 -2.99,-2.19 -6.97,-0.4 -6.97,-0.4 -2.99,-5.97 -8.76,-12.75 -8.76,-12.75l20.11 -52.18c2.06,-4.05 -0.07,-8.77 -3.39,-4.94 -43.52,-26.86 -74.77,-26.86 -118.29,0 -3.32,-3.84 -5.45,0.88 -3.39,4.94z"/>
     <path id="_271072584" class="fil2" d="M398.03 539.4l39.69 75.21 -16.29 -10.18 -5.38 8.36c-0.34,0.53 9.69,11.69 16.83,20.11l-25.39 -13.84c0,0 -3.64,1.61 -19.37,20.52 -4.38,5.26 -4.91,7.39 1.01,13.32 2.73,2.73 29.73,27.21 48.39,41.13 16.76,12.5 23.01,12.93 39.81,0.51 18.69,-13.82 46.31,-38.87 49.08,-41.64 5.93,-5.93 5.39,-8.05 1.01,-13.32 -15.73,-18.91 -19.37,-20.52 -19.37,-20.52l-25.39 13.84c7.14,-8.42 17.17,-19.58 16.83,-20.11l-5.38 -8.36 -16.29 10.18 39.69 -75.21c-41.41,-27.86 -77.03,-27.86 -119.51,0z"/>
     <path id="_271072704" class="fil3" d="M392.31 651.62c0,0 34.66,32.31 48.83,42.28 5.3,3.73 11,6.72 16.59,6.74 4.35,0.01 8.53,-2.17 13.17,-4.67 15.14,-8.16 53.18,-44.41 53.18,-44.41 0,0 -63.33,41.82 -131.78,0.06z"/>
     <path id="_271072800" class="fil4" d="M450.4 694.18c0,0 3.78,-32.86 -33.06,-49.99 0,0 -0.4,8.56 -0.4,9.96 0,1.39 28.68,34.65 33.46,40.03z"/>
     <path id="_271072920" class="fil4" d="M465.7 694.27c0,0 -3.78,-32.86 33.06,-49.99 0,0 0.4,8.56 0.4,9.96 0,1.39 -28.68,34.65 -33.46,40.03z"/>
     <path id="_271073016" class="fil4" d="M407.13 556.64l12.88 24.41c21.14,4.1 51.07,9.43 57.87,9.56 3.01,0.06 8.45,-1.56 14.71,-3.93l15.51 -29.39c-11.33,5.49 -29.53,12.03 -50.93,11.21 -30.07,-1.16 -45.62,-9.17 -50.04,-11.86z"/>
     <path id="_271073160" class="fil5" d="M430.24 629.8c0.91,1.06 1.8,2.1 2.65,3.1l-25.39 -13.84c0,0 -3.64,1.61 -19.37,20.52 -2.27,2.73 -3.51,4.62 -3.34,6.64 4.16,-3.45 21.34,-17.57 23.79,-17.57 2.79,0 21.91,14.14 46.21,16.33 24.3,2.19 52.38,-18.12 52.38,-18.12 0,0 14.05,9.87 23.53,17.99 -0.35,-1.55 -1.48,-3.16 -3.24,-5.27 -15.73,-18.91 -19.37,-20.52 -19.37,-20.52l-25.39 13.84c0.56,-0.66 1.14,-1.34 1.73,-2.03l-42.18 1.77 -11.35 -2.39 -0.64 -0.45z"/>
     <path id="_271073256" class="fil3" d="M421.68 604.59l-0.24 -0.15 -5.38 8.36c-0.34,0.53 9.69,11.69 16.83,20.11l-0.92 -0.5c17.97,13.97 33,12.23 51.1,0.04 7.11,-8.37 16.78,-19.13 16.45,-19.65l-5.38 -8.36 -0.92 0.58c-15.29,27.34 -55.24,30.58 -71.53,-0.43z"/>
     <path id="_271073376" class="fil3" d="M412.45 566.72l24.47 46.37c16.16,7.25 41.29,0.88 41.29,0.88l25.18 -47.74c-43.71,14.72 -80.88,4 -90.94,0.5z"/>
     <path id="_271073472" class="fil1" d="M466.44 690.26c4.04,-12.24 13.93,-33.13 32.36,-45.89 5.37,2.63 10.34,8.64 12.9,14.21 0,0 -20.9,16.63 -41.42,34.86 -3.58,3.18 -6.23,4.06 -3.84,-3.18z"/>
     <path id="_271073592" class="fil1" d="M493.93 651.15c0,0 59.05,32.86 63.03,40.83 3.98,7.97 -88.03,-3.39 -88.03,-3.39 0,0 9.27,-30.18 25,-37.44z"/>
     <path id="_271073736" class="fil6" d="M492.04 660.51c0,0 51.78,27.29 50.79,27.88 -1,0.6 -64.62,-6.77 -64.62,-6.77 0,0 2.48,-11.75 13.83,-21.11z"/>
     <path id="_271073856" class="fil7" d="M526.2 686.96c-19.15,-2 -47.99,-5.34 -47.99,-5.34 0,0 1.83,-8.63 9.5,-17 4.78,5.81 15.63,15.38 38.49,22.33z"/>
     <path id="_271073976" class="fil1" d="M449.55 690.26c-4.04,-12.24 -13.93,-33.13 -32.36,-45.89 -5.37,2.63 -10.34,8.64 -12.9,14.21 0,0 20.9,16.63 41.42,34.86 3.58,3.18 6.23,4.06 3.84,-3.18z"/>
     <path id="_271074096" class="fil1" d="M420.67 649.56c0,0 -61.66,36.74 -67.04,43.71 -5.38,6.97 94.32,-5.09 94.32,-5.09 0,0 -11.55,-31.36 -27.28,-38.62z"/>
     <path id="_271074192" class="fil6" d="M423.55 660.51c0,0 -51.78,27.29 -50.79,27.88 1,0.6 64.62,-6.77 64.62,-6.77 0,0 -2.48,-11.75 -13.83,-21.11z"/>
     <path id="_271074336" class="fil7" d="M377.21 688.15c14.61,-1.26 60.17,-6.54 60.17,-6.54 0,0 -1.89,-8.9 -9.86,-17.38 -4.94,9.61 -19.85,19.39 -50.32,23.92z"/>
     <path id="_271074432" class="fil1" d="M436.07 672.36c0,0 -28.48,9.53 -27.58,9.82 0.89,0.3 29.07,-4.27 29.07,-4.27l-1.49 -5.56z"/>
     <path id="_271074576" class="fil1" d="M477.16 673.95c0,0 29.06,7.56 28.19,7.92 -0.87,0.36 -29.3,-2.27 -29.3,-2.27l1.11 -5.65z"/>
    </g>
   </g>
  </g>
 </g>
</svg>
