<?xml version="1.0" encoding="UTF-8"?>
<!DOCTYPE svg PUBLIC "-//W3C//DTD SVG 1.1//EN" "http://www.w3.org/Graphics/SVG/1.1/DTD/svg11.dtd">
<!-- Creator: CorelDRAW 2020 (64-Bit) -->
<svg xmlns="http://www.w3.org/2000/svg" xml:space="preserve" width="129.436mm" height="197.989mm" version="1.1" style="shape-rendering:geometricPrecision; text-rendering:geometricPrecision; image-rendering:optimizeQuality; fill-rule:evenodd; clip-rule:evenodd"
viewBox="0 0 1165.2 1782.33"
 xmlns:xlink="http://www.w3.org/1999/xlink"
 xmlns:xodm="http://www.corel.com/coreldraw/odm/2003">
 <defs>
  <style type="text/css">
   <![CDATA[
    .fil0 {fill:none}
    .fil1 {fill:#501D33}
    .fil3 {fill:#AD8D60}
    .fil6 {fill:#B1A97A}
    .fil5 {fill:#D6D6A2}
    .fil2 {fill:#DEDA81}
    .fil7 {fill:#EEF698}
    .fil4 {fill:white}
   ]]>
  </style>
 </defs>
 <g id="Слой_x0020_1">
  <metadata id="CorelCorpID_0Corel-Layer"/>
  <g id="_2674215595936">
   <g id="_265723440">
    <rect id="_263936248" class="fil0" y="0" width="1165.2" height="1782.33"/>
    <g>
     <path id="_265725576" class="fil1" d="M522.09 702.39l-11.73 48.34c0,0 -42.22,10.46 -40.82,59.19 1.4,48.73 64.26,68.78 112.96,63.24 48.7,5.54 106.4,-11.06 111.56,-63.24 5.16,-52.18 -39.41,-59.19 -39.41,-59.19l-11.73 -48.34c-47.5,-5.9 -74.72,-5.73 -120.84,0l0 0z"/>
     <path id="_265725336" class="fil2" d="M528.4 698.43l-4.21 50.96c0,0 32.55,-2.95 47.3,20.19 -20.51,-11.04 -58.75,-15.7 -75.39,5.26 -4.66,5.87 -9.17,14.98 -10.1,28.67 -1.34,19.85 3.25,32.62 16.25,47.27 13.66,15.39 38.24,38.91 80.25,26.32 41.08,12.35 66.59,-10.93 80.25,-26.32 13,-14.65 17.59,-27.42 16.25,-47.27 -0.25,-3.78 -0.78,-7.2 -1.51,-10.31 -9.17,-39.12 -55.54,-38.93 -83.97,-23.62 14.75,-23.14 47.3,-20.19 47.3,-20.19l-4.22 -50.96c-33.64,-9 -74.57,-9 -108.21,0z"/>
     <path id="_265725288" class="fil3" d="M525.87 729.01l-1.69 20.37c0,0 32.22,-2.92 47.07,19.84 11.91,4.2 19.99,0.94 22.93,-0.67 15.04,-22.04 46.64,-19.18 46.64,-19.18l-1.65 -19.98c-8.74,5 -29.44,14.9 -56.9,15.38 -30.42,0.53 -50.39,-11.56 -56.4,-15.77z"/>
     <path id="_265725120" class="fil4" d="M676.71 790.26c-10.42,-34.99 -52.62,-35.6 -80.45,-22.09 8.89,-2.25 52.82,-11.24 80.45,22.09z"/>
     <path id="_265725192" class="fil4" d="M569.8 768.7c-20.86,-10.4 -57.51,-14.26 -73.7,6.13 -3.28,4.12 -6.48,9.85 -8.41,17.64 27.79,-35.75 73.73,-25.94 82.12,-23.78z"/>
     <path id="_265725264" class="fil3" d="M487.51 793.18c-0.73,3.11 -1.26,6.54 -1.51,10.32 -1.34,19.85 3.25,32.62 16.25,47.27 13.66,15.39 38.24,38.91 80.25,26.32 41.08,12.35 66.59,-10.93 80.25,-26.32 13,-14.65 17.59,-27.42 16.25,-47.27 -0.25,-3.78 -0.78,-7.21 -1.51,-10.32 -37.04,-46.68 -55.57,63.98 -97.25,65.87 -30.82,1.4 -64.8,-101.08 -92.74,-65.87z"/>
     <path id="_265725072" class="fil1" d="M551.32 865.82c0,0 -15.45,-57.11 -35.36,-56.62 -19.9,0.49 -9.83,32.49 -9.83,32.49 0,0 17.8,-13.54 45.19,24.12z"/>
     <g>
      <path id="_265722144" class="fil1" d="M523.86 815.47c0,0 -67.15,16.22 -47.64,78.02 0,0 27.6,-35.46 72.21,-31.42 -2.04,-14.92 -14.3,-35.48 -24.56,-46.61z"/>
      <path id="_265722216" class="fil5" d="M520.21 826.82c0,0 -39.46,14.67 -37.69,48.57 0,0 13.41,-21 52.11,-24.28 0,0 -0.78,-16.98 -14.42,-24.28z"/>
      <path id="_265722288" class="fil6" d="M482.51 875.2l0.01 0.19c0,0 13.41,-21 52.11,-24.28 0,0 -0.29,-6.23 -3.54,-12.76 -11,2.1 -41.14,10.23 -48.57,36.85z"/>
      <path id="_265722360" class="fil1" d="M537.5 840.93c0,0 -13.23,-1.76 -38.57,11.34 0,0 12.86,-15.12 37.18,-19.16l2.9 3.4 -1.51 4.41z"/>
     </g>
     <path id="_265722840" class="fil1" d="M610.59 865.82c0,0 15.45,-57.11 35.36,-56.62 19.9,0.49 9.83,32.49 9.83,32.49 0,0 -17.8,-13.54 -45.19,24.12z"/>
     <g>
      <path id="_265722912" class="fil1" d="M638.12 815.47c0,0 67.15,16.22 47.64,78.02 0,0 -27.6,-35.46 -72.21,-31.42 2.04,-14.92 14.3,-35.48 24.56,-46.61z"/>
      <path id="_265722984" class="fil5" d="M641.77 826.82c0,0 39.46,14.67 37.69,48.57 0,0 -13.41,-21 -52.11,-24.28 0,0 0.78,-16.98 14.42,-24.28z"/>
      <path id="_265723056" class="fil6" d="M679.47 875.2l-0.01 0.19c0,0 -13.41,-21 -52.11,-24.28 0,0 0.29,-6.23 3.54,-12.76 11,2.1 41.14,10.23 48.57,36.85z"/>
      <path id="_265723200" class="fil1" d="M624.48 840.93c0,0 13.23,-1.76 38.57,11.34 0,0 -12.86,-15.12 -37.18,-19.16l-2.9 3.4 1.51 4.41z"/>
     </g>
    </g>
   </g>
   <path class="fil7" d="M531.5 799.79c0,0 29.48,50.91 49.42,49.72 19.95,-1.19 47.34,-43.18 44.36,-48.23 -1.85,-3.15 -21.69,10.4 -46.75,11.02 -20.85,0.51 -39.66,-18.5 -47.03,-12.51z"/>
   <path class="fil7" d="M539.84 700.34c0.89,2.08 16.37,23.22 39,23.52 22.63,0.3 41.68,-22.92 41.68,-22.92 0,0 -19.35,-9.82 -80.69,-0.6z"/>
  </g>
 </g>
</svg>
