<?xml version="1.0" encoding="UTF-8"?>
<!DOCTYPE svg PUBLIC "-//W3C//DTD SVG 1.1//EN" "http://www.w3.org/Graphics/SVG/1.1/DTD/svg11.dtd">
<!-- Creator: CorelDRAW 2020 (64-Bit) -->
<svg xmlns="http://www.w3.org/2000/svg" xml:space="preserve" width="129.436mm" height="197.988mm" version="1.1" style="shape-rendering:geometricPrecision; text-rendering:geometricPrecision; image-rendering:optimizeQuality; fill-rule:evenodd; clip-rule:evenodd"
viewBox="0 0 1029.56 1574.83"
 xmlns:xlink="http://www.w3.org/1999/xlink"
 xmlns:xodm="http://www.corel.com/coreldraw/odm/2003">
 <defs>
  <style type="text/css">
   <![CDATA[
    .fil0 {fill:none}
    .fil1 {fill:#501D33}
    .fil4 {fill:#AD8D60}
    .fil2 {fill:#DEDA81}
    .fil3 {fill:#EEF698}
   ]]>
  </style>
 </defs>
 <g id="Слой_x0020_1">
  <metadata id="CorelCorpID_0Corel-Layer"/>
  <g id="_2674457930560">
   <g id="_124018024">
    <rect id="_285633088" class="fil0" width="1029.56" height="1574.83"/>
    <g>
     <path id="_271077000" class="fil1" d="M492.27 592.78c-5.81,4.25 -37.73,52.06 -46.23,77.59 0,0 -25.63,8.62 -36.38,38.62 0,0 -0.25,30.56 49.81,52.02 31.29,76.92 78.45,74.46 109.3,0 50.07,-21.46 50.71,-52.24 50.71,-52.24 -10.75,-30 -36.83,-39.52 -36.83,-39.52 -8.51,-25.53 -39.98,-72.22 -45.79,-76.47 -3.3,-3.74 -4.94,-3.53 -5.66,-1.62 -6.95,-1.21 -13.75,0.09 -16.63,0.79 -2.88,-0.7 -9.68,-1.99 -16.63,-0.79 -0.72,-1.92 -2.36,-2.13 -5.66,1.62z"/>
     <path id="_271077120" class="fil2" d="M498.81 589.13c-18.15,33.11 -37.8,69.89 -46.91,106.73 0,0 -3.57,-7.23 -4.57,-12.13 0,0 -18.93,7.55 -23.4,27.66 0,0 2.68,21.68 29.95,33.75 0,0 -20.34,-23.02 -16.09,-28.39 4.25,-5.36 19.22,4.47 24.81,20.34 31.53,89.54 72.4,89.54 103.93,0 5.59,-15.87 20.56,-25.7 24.81,-20.34 4.25,5.36 -16.09,28.39 -16.09,28.39 27.27,-12.07 29.95,-33.75 29.95,-33.75 -4.47,-20.12 -23.4,-27.66 -23.4,-27.66 -1,4.9 -4.57,12.13 -4.57,12.13 -9.11,-36.83 -28.76,-73.61 -46.91,-106.73 -7.45,-3.76 -12.48,-4.33 -15.76,-3.81 -3.28,-0.52 -8.3,0.06 -15.75,3.81z"/>
     <path id="_271077216" class="fil3" d="M498.99 597.7c-2.24,0.9 -42.99,84.64 -38.96,110.61 4.03,25.97 60.9,-49.26 38.96,-110.61z"/>
     <path id="_271077336" class="fil4" d="M426.09 704.74c-0.88,2.04 -1.62,4.26 -2.15,6.65 0,0 2.68,21.68 29.95,33.75 0,0 -17.6,-19.92 -16.63,-27.02 -5.96,-4.78 -9.54,-10.41 -11.16,-13.38z"/>
     <path id="_271077432" class="fil4" d="M507.23 796.13c20.21,5.94 41.67,-12.09 59.3,-59.04 5.92,-15.75 20.56,-25.7 24.81,-20.34 4.25,5.36 -16.09,28.39 -16.09,28.39 27.27,-12.07 29.95,-33.75 29.95,-33.75 -4.47,-20.12 -23.4,-27.66 -23.4,-27.66 -1,4.9 -4.57,12.13 -4.57,12.13 -10.49,-42.4 -49.71,-112.71 -45.39,-22.68 1.92,40 -2.52,85.74 -24.61,122.95z"/>
     <g>
      <g>
       <circle id="_271077552" class="fil4" transform="matrix(1.03732 -0.23835 0.23835 1.03732 483.175 666.4)" r="24.21"/>
       <circle id="_271077648" class="fil1" transform="matrix(0.950738 -0.218455 0.218455 0.950738 478.828 662.595)" r="24.21"/>
       <circle id="_271077792" class="fil2" transform="matrix(0.778621 -0.178907 0.178907 0.778621 484.073 664.968)" r="24.21"/>
       <path id="_271077888" class="fil4" d="M491.05 649.14c4.82,2.13 8.62,6.43 9.89,11.96 2.14,9.31 -3.68,18.59 -12.99,20.73 -6.5,1.49 -12.98,-0.89 -17.03,-5.63 3.29,1.46 7.07,1.9 10.85,1.03 9.31,-2.14 15.12,-11.42 12.99,-20.73 -0.65,-2.81 -1.95,-5.31 -3.7,-7.36z"/>
       <circle id="_271078032" class="fil3" transform="matrix(0.390107 -0.422834 0.292652 0.270001 478.83 660.102)" r="24.21"/>
      </g>
      <circle id="_271078224" class="fil3" transform="matrix(1.00357 -0.230594 0.230594 1.00357 481.555 704.813)" r="8.6"/>
      <circle id="_271078320" class="fil3" transform="matrix(1.33017 -0.305637 0.305637 1.33017 506.826 701.906)" r="3.8"/>
     </g>
     <path id="_271078464" class="fil2" d="M582.74 686.16c0,0 20.16,13.03 20.27,25.28 0.11,12.25 -21.05,-11.47 -20.27,-25.28z"/>
     <path id="_271078584" class="fil3" d="M445.77 685.61c0,0 -12.03,6.24 -17.59,18.6 0,0 6.9,-0.11 11.36,-3.01 4.45,-2.9 6.24,-15.59 6.24,-15.59z"/>
     <circle id="_271078680" class="fil4" cx="526.75" cy="753.63" r="11.62"/>
     <circle id="_271078800" class="fil4" cx="502.94" cy="766.04" r="6.59"/>
    </g>
   </g>
  </g>
 </g>
</svg>
