<?xml version="1.0" encoding="UTF-8"?>
<!DOCTYPE svg PUBLIC "-//W3C//DTD SVG 1.1//EN" "http://www.w3.org/Graphics/SVG/1.1/DTD/svg11.dtd">
<!-- Creator: CorelDRAW 2020 (64-Bit) -->
<svg xmlns="http://www.w3.org/2000/svg" xml:space="preserve" width="129.436mm" height="197.988mm" version="1.1" style="shape-rendering:geometricPrecision; text-rendering:geometricPrecision; image-rendering:optimizeQuality; fill-rule:evenodd; clip-rule:evenodd"
viewBox="0 0 1684.82 2577.14"
 xmlns:xlink="http://www.w3.org/1999/xlink"
 xmlns:xodm="http://www.corel.com/coreldraw/odm/2003">
 <defs>
  <style type="text/css">
   <![CDATA[
    .fil0 {fill:none}
    .fil1 {fill:#501D33}
    .fil4 {fill:#AD8D60}
    .fil2 {fill:#DEDA81}
    .fil3 {fill:#EFFABB}
   ]]>
  </style>
 </defs>
 <g id="Слой_x0020_1">
  <metadata id="CorelCorpID_0Corel-Layer"/>
  <g id="_2674459531232">
   <g id="_282325576">
    <rect id="_92440368" class="fil0" width="1684.82" height="2577.14"/>
    <g>
     <g>
      <path id="_282338944" class="fil1" d="M754.9 1134.52c0,0 1.84,-13.97 4.36,-32.94l18.44 -14.5 -10.66 -43.28c1.9,-13.86 3.63,-26.27 4.84,-34.49 3.57,-16.76 13.69,-13.87 14.89,-0.15 35.88,-0.34 70.84,-1.78 106.72,-2.12 1.95,-15.47 14.35,-10.46 16.86,0.95 9.36,36.27 29.51,140.25 29.51,140.25 0.49,0.57 -50.47,41.06 -72.42,69.9 -25.42,33.39 -13.31,34.92 -35.3,5.6 -21.36,-28.49 -77.75,-88.62 -77.23,-89.23z"/>
      <path id="_282338872" class="fil1" d="M891.89 1290c0,0 11.74,-0.74 25.94,-9.34 25.32,-15.34 61.75,-47.75 76.69,-63.87 3.82,-4.12 11.33,-11.78 13.14,-18.99 1.71,-6.77 -0.13,-14.42 -4.69,-19.41 -18.26,-19.98 -36.63,-36.83 -54.66,-47.74 -11.97,-7.24 -17.7,-9.12 -28.29,0.23 -26.15,23.11 -50.29,53.78 -70.29,84.11l-4.34 0c-20,-30.32 -44.14,-61.44 -70.29,-84.55 -10.59,-9.35 -16.31,-7.47 -28.29,-0.23 -18.04,10.91 -36.4,27.76 -54.66,47.74 -4.56,4.99 -6.4,12.63 -4.69,19.41 1.81,7.21 7.45,13.54 11.27,17.66 14.76,15.92 47.54,43.4 69.62,61.43 14.08,11.49 27.66,5.13 37.07,12.25 33.05,25 54.02,21.15 86.48,1.3z"/>
      <path id="_282338800" class="fil2" d="M847.57 1215.25c-3.08,-2.78 -14.56,-7.05 -27.07,-18.04 -18,-15.81 -39.33,-40.14 -50.98,-48.34 -4.74,-3.34 -7.96,-5.19 -14.61,-0.41 -4.24,3.05 -22.38,13.88 -44.2,40.98 -6,7.85 7.41,20.43 12.33,25.12 11.86,11.31 30.34,28.45 47.71,40.38 17.78,12.21 16.86,5.92 3.34,-9.48 -10.12,-11.53 -21.46,-29.02 -21.23,-33.77 0.28,-5.77 36.98,30.99 54.45,48.76 29.44,29.97 50.73,27.13 79.39,-1.85 18.06,-18.26 55.32,-52.53 55.6,-46.91 0.24,4.74 -10.55,22.46 -20.67,33.99 -13.52,15.4 -15,21.48 2.78,9.26 17.37,-11.93 35.85,-29.07 47.71,-40.38 4.91,-4.69 18.33,-17.27 12.33,-25.12 -21.82,-27.1 -40.28,-37.68 -44.38,-40.98 -5.82,-4.68 -10.29,-2.57 -15.4,1.1 -20.41,14.66 -69.69,59.01 -77.08,65.69z"/>
      <path id="_282338728" class="fil3" d="M759.34 1214.64c11.39,8.93 34.98,32.62 47.96,45.83 29.44,29.97 50.73,27.13 79.39,-1.85 14.71,-14.87 42.14,-40.35 51.97,-46.27l0.12 -0.17c0,0 -69.99,45.55 -94.7,46.44 -24.7,0.89 -86.84,-46.88 -86.84,-46.88 0.68,0.97 1.38,1.93 2.09,2.9z"/>
      <path id="_282338656" class="fil4" d="M709.88 1197.71c2.3,6.61 9.76,13.62 13.15,16.86 11.86,11.31 30.34,28.45 47.71,40.38 17.78,12.21 16.86,5.92 3.34,-9.48 -9.97,-11.36 -21.14,-28.52 -21.23,-33.55 -15.77,-9.45 -36.15,-13.18 -42.97,-14.21zm232.4 14.31c-0.21,5.17 -10.76,22.38 -20.67,33.67 -13.52,15.4 -15,21.48 2.78,9.26 17.37,-11.93 35.85,-29.07 47.71,-40.38 4.02,-3.84 13.74,-12.96 13.84,-20.45 -20.36,5.68 -38.53,15.12 -43.66,17.91z"/>
      <path id="_282338584" class="fil2" d="M786.63 1008.92l-9.71 75.03 0.77 3.12 -1.31 1.03 -6.98 53.95c4.15,6.86 10.84,18.19 18.98,30.28 17.26,25.66 41.01,54.76 60.74,51.98 9.35,-1.32 67.39,-84.65 67.39,-84.65 -7.09,-47.95 -13.43,-84.66 -22.76,-132.61 -1.88,-34.82 -89.97,-43.34 -107.13,1.87z"/>
      <polygon id="_282338512" class="fil3" points="775.96,1091.46 772.88,1115.85 811.55,1126.93 909.92,1090.67 "/>
      <polygon id="_282338440" class="fil4" points="781.78,1046.44 776.93,1083.95 777.7,1087.07 776.39,1088.1 772.84,1115.49 910.19,1091.55 909.42,1087.53 "/>
      <polygon id="_282338368" class="fil1" points="917.19,1091.13 847.96,1102.16 908.61,1071.08 "/>
      <path id="_282338296" class="fil1" d="M781.8 1045.74l17.97 51.52 -26.92 17.89c0,0 -0.06,-11.24 0.52,-24.67l4.33 -3.4 -3.27 -13.26c1.24,-14.04 3.44,-26.59 7.37,-28.08z"/>
     </g>
     <polygon id="_282338200" class="fil1" points="779.67,1085.33 835.87,1096.53 789.02,1100.17 "/>
    </g>
   </g>
  </g>
 </g>
</svg>
