<?xml version="1.0" encoding="UTF-8"?>
<!DOCTYPE svg PUBLIC "-//W3C//DTD SVG 1.1//EN" "http://www.w3.org/Graphics/SVG/1.1/DTD/svg11.dtd">
<!-- Creator: CorelDRAW 2020 (64-Bit) -->
<svg xmlns="http://www.w3.org/2000/svg" xml:space="preserve" width="129.436mm" height="197.988mm" version="1.1" style="shape-rendering:geometricPrecision; text-rendering:geometricPrecision; image-rendering:optimizeQuality; fill-rule:evenodd; clip-rule:evenodd"
viewBox="0 0 392.29 600.05"
 xmlns:xlink="http://www.w3.org/1999/xlink"
 xmlns:xodm="http://www.corel.com/coreldraw/odm/2003">
 <defs>
  <style type="text/css">
   <![CDATA[
    .fil0 {fill:none}
    .fil1 {fill:#501D33}
    .fil4 {fill:#AD8D60}
    .fil2 {fill:#DEDA81}
    .fil3 {fill:white}
   ]]>
  </style>
 </defs>
 <g id="Слой_x0020_1">
  <metadata id="CorelCorpID_0Corel-Layer"/>
  <g id="_2674539253024">
   <g id="_282325936">
    <rect id="_283858840" class="fil0" x="-0" y="0" width="392.29" height="600.05"/>
    <g>
     <path id="_282341344" class="fil1" d="M220.87 240.71l-4.53 16.03 2.96 5.23c0,0 2.61,-1.65 3.57,-1.39 0.96,0.26 5.92,3.22 10.54,12.19 0,0 1.31,3.14 -1.92,7.14 -3.22,4.01 -11.32,10.63 -22.3,12.8 0,0 -3.4,3.83 -8.62,4.79 -3.36,0.64 -5.5,0.64 -8.86,0 -5.23,-0.96 -8.62,-4.79 -8.62,-4.79 -10.97,-2.18 -19.07,-8.8 -22.3,-12.8 -3.22,-4.01 -1.92,-7.14 -1.92,-7.14 4.62,-8.97 9.58,-11.93 10.54,-12.19 0.96,-0.26 3.57,0.7 3.57,0.7l3.79 -4.1 -5.35 -16.46c-1.01,-3.76 0.77,-2.72 1.28,-1.83 12.55,-5.29 33.15,-5.12 46.07,0.06 1.44,-2.82 3.2,-2.4 2.1,1.77z"/>
     <path id="_282341272" class="fil2" d="M218.78 238.88l-6.62 17.16 3.4 7.32c0,0 -5.35,7.23 -5.27,8.06 0.09,0.82 10.63,-6.51 10.63,-6.51 0,0 5.17,2.28 8.48,10.3 0,0 -4.18,8.88 -17.68,11.93l-2.96 0.52c0,0 -5.31,7.58 -13.41,6.36 -8.1,-1.22 -12.8,-7.75 -12.8,-7.75l-1.83 1.39c0,0 -11.06,-2.53 -16.64,-11.85 0,0 -0.87,-4.7 6.62,-10.8 0,0 3.75,1.04 10.1,7.05 0,0 0.06,-3.99 -4.19,-8.94l5.12 -5.46 -9.03 -18.61c-0.86,-1.78 21.64,-14.27 46.07,-0.17z"/>
     <path id="_282341200" class="fil3" d="M200.91 250.03l-11.9 8.59 -8.72 0.27c0,0 11.08,-6.91 20.62,-8.86z"/>
     <path id="_282341128" class="fil4" d="M212.19 255.71l-19.96 11.42 -11.67 12.45c0,0 2.57,-0.21 6.15,-2.62 8.47,-5.69 23.03,-17.27 25.49,-21.26z"/>
     <path id="_282341056" class="fil3" d="M210.82 271.34c2.16,-0.92 10.09,-6.44 10.09,-6.44 0,0 5.17,2.28 8.48,10.3l-0.01 0.02 -0.02 0.02c0,0 -5.68,-7.07 -8.03,-7.85 0,0 -6.07,3.22 -10.52,3.95z"/>
     <path id="_282340984" class="fil4" d="M229.34 275.04l0.06 0.15c0,0 -4.18,8.88 -17.68,11.93l-0.91 0.16c2.27,-2.92 5.99,-7.51 7.28,-8.01 0,0 5.12,-4.5 11.25,-4.23z"/>
     <path id="_282340912" class="fil3" d="M212.89 257.49l-10.8 14.8 -18.56 10.26c0,0 29.26,-25.26 29.37,-25.05z"/>
     <path id="_282340840" class="fil4" d="M182.15 286.56l-1.43 1.09c0,0 -11.06,-2.53 -16.64,-11.85 0,0 -0.8,-4.3 5.69,-10.01 -0.98,2.56 -1.92,7.34 2.77,10.75 6.71,4.88 9.32,8.1 9.32,8.1 0,0 0.12,0.78 0.29,1.92z"/>
     <path id="_282340768" class="fil1" d="M185.58 289.43c0,0 -2.98,-4.11 -0.17,-7.25 6.21,-6.95 21.54,-18.89 28.11,-24.93 4.46,-4.11 2.28,-3.96 -1.44,-1.39 -13.71,9.44 -25.2,22.25 -31.38,23.34 -2.35,0.42 -9.81,-5.37 -11.31,-6.52 -2.24,4.49 2.56,7.94 6.55,8.29 2.22,1.59 4.04,4.62 4.69,7.28l2.26 0.82 2.7 0.36z"/>
     <polygon id="_282340696" class="fil1" points="180.02,259.17 201.1,250.03 178.75,255.29 "/>
     <path id="_282340624" class="fil1" d="M208.63 287.76c0,0 8.68,-12.53 13.91,-12 5.23,0.52 -12.63,13.15 -12.63,13.15l-1.28 -1.15z"/>
     <path id="_282340552" class="fil4" d="M214.14 278.28c-4.29,6.95 -9.27,12.66 -14.97,14.07 -5.9,1.46 -13.47,-2.31 -14.32,-7.52 0,0 14.45,6.21 29.29,-6.55z"/>
     <path id="_282340480" class="fil1" d="M211.43 267.4c0,0 -7.88,-1.08 -9.39,-2.02 -1.5,-0.94 -6.87,-5.4 -6.87,-5.4 0,0 3.37,-0.17 8.49,1.77 1.45,0.55 5.15,4.11 7.76,5.65z"/>
     <path id="_282340408" class="fil1" d="M197.51 281.43c0,0 -6.11,-5.09 -6.89,-6.69 -0.78,-1.59 -2.96,-8.22 -2.96,-8.22 0,0 2.95,1.64 6.27,6 0.94,1.23 2.19,6.22 3.59,8.9z"/>
    </g>
   </g>
  </g>
 </g>
</svg>
