<?xml version="1.0" encoding="UTF-8"?>
<!DOCTYPE svg PUBLIC "-//W3C//DTD SVG 1.1//EN" "http://www.w3.org/Graphics/SVG/1.1/DTD/svg11.dtd">
<!-- Creator: CorelDRAW 2020 (64-Bit) -->
<svg xmlns="http://www.w3.org/2000/svg" xml:space="preserve" width="129.436mm" height="197.988mm" version="1.1" style="shape-rendering:geometricPrecision; text-rendering:geometricPrecision; image-rendering:optimizeQuality; fill-rule:evenodd; clip-rule:evenodd"
viewBox="0 0 1413.95 2162.8"
 xmlns:xlink="http://www.w3.org/1999/xlink"
 xmlns:xodm="http://www.corel.com/coreldraw/odm/2003">
 <defs>
  <style type="text/css">
   <![CDATA[
    .fil0 {fill:none}
    .fil2 {fill:#501D33}
    .fil3 {fill:#AD8D60}
    .fil5 {fill:#AFC0A6}
    .fil1 {fill:#DEDA81}
    .fil6 {fill:#EFFABB}
    .fil4 {fill:white}
   ]]>
  </style>
 </defs>
 <g id="Слой_x0020_1">
  <metadata id="CorelCorpID_0Corel-Layer"/>
  <g id="_2674457941024">
   <g id="_124017592">
    <rect id="_284318456" class="fil0" width="1413.95" height="2162.8"/>
    <g>
     <path id="_124515520" class="fil1" d="M636.78 907.13c0,0 15.96,-35.61 45.12,-43.59 14.71,-4.03 31.58,-4.03 46.28,0 29.16,7.98 45.12,43.59 45.12,43.59 -3.54,16.63 -56.44,15.58 -68.27,15.14 -11.82,0.44 -64.72,1.48 -68.26,-15.14z"/>
     <path id="_124515280" class="fil2" d="M668.99 916.23c0,0 -34.44,-23.99 -41.82,-23.37 -7.38,0.62 -42.74,19.07 -61.81,44.9 0,0 -10.14,24.45 -7.68,53.97 0,0 7.57,20.39 37.96,28.99 22.44,47.06 70.25,66.91 106.98,67.05 39.18,0.15 85.46,-18.46 111.89,-67.05 30.39,-8.59 40.12,-28.53 40.12,-28.53 2.46,-29.52 -9.22,-54.12 -9.22,-54.12 -19.07,-25.83 -55.04,-44.59 -62.42,-45.2 -7.38,-0.62 -41.82,23.37 -41.82,23.37l-36.09 3.01 -36.09 -3.01z"/>
     <path id="_124515064" class="fil1" d="M739.31 916.04l42.67 -9.82c0,0 25.78,11.36 46.04,36.22 0,0 21.18,50.65 -12.28,59.24 0,0 -0.61,-41.44 -30.39,-58.63 0,0 18.72,25.78 12.59,70.91 0,0 -11.14,29.69 -52.47,46.3 -31.22,12.54 -45.15,12.76 -75.8,1.88 -45.42,-16.12 -57.45,-48.18 -57.45,-48.18 -6.14,-45.12 12.59,-70.91 12.59,-70.91 -29.78,17.19 -30.39,58.63 -30.39,58.63 -22.48,-5.77 -19.74,-30.53 -15.52,-46.16 4.32,-16.01 17.38,-27.5 47.45,-47.16l44.51 7.67c15.65,-6.41 52.81,-6.41 68.45,0z"/>
     <path id="_124514920" class="fil3" d="M778.61 906.98l3.36 -0.77c0,0 25.78,11.36 46.04,36.22 0,0 21.18,50.65 -12.28,59.24 0,0 -0.52,-34.43 -23.16,-53.54 -3.87,-20.33 -14.09,-40.99 -14.09,-40.99l0.12 -0.16z"/>
     <path id="_124514728" class="fil3" d="M612.71 952.82c-17.85,19.55 -18.29,48.85 -18.29,48.85 -15.81,-4.06 -19.15,-17.52 -18.26,-30.59 7,-0.5 28.14,-8.16 36.55,-18.27z"/>
     <path id="_124514560" class="fil4" d="M578.66 956.44c2.59,-16.14 22.59,-39.98 47.69,-48.08l34.26 5.91c-41.93,-0.67 -72.52,31.03 -81.95,42.17z"/>
     <polygon id="_124514368" class="fil2" points="769.31,912.99 809.68,878.88 836.92,908.94 796.34,940.22 "/>
     <polygon id="_124514200" class="fil2" points="799.69,943.42 843.71,914.19 867.31,947.18 823.4,973.58 "/>
     <polygon id="_124514008" class="fil5" points="782.89,912.75 808.93,891.6 823.3,907.26 797.52,926.47 "/>
     <polygon id="_124513864" class="fil4" points="782.89,912.75 808.93,891.6 823.3,907.26 807.61,899.86 "/>
     <polygon id="_124513624" class="fil5" points="813.2,944.76 841.51,926.74 853.98,943.95 826.15,960.07 "/>
     <polygon id="_124513432" class="fil4" points="813.2,944.76 841.51,926.74 853.98,943.95 839.39,933.47 "/>
     <path id="_124513216" class="fil3" d="M615.81 1005.06c13.91,34.86 54.23,56.9 88.4,56.89 32.39,-0.02 69.19,-20.19 89.33,-55.66 -58.32,17.04 -122.8,19.44 -177.73,-1.23z"/>
     <path id="_124513072" class="fil6" d="M649.79 922.47c13.76,-5.66 100.99,8.99 102.61,15.83 1.3,5.49 -37.01,23.33 -88.57,25.1 -27.42,0.94 -57.14,-15.57 -14.04,-40.93z"/>
     <ellipse id="_124512832" class="fil3" cx="753.78" cy="1013.97" rx="18.57" ry="16.27"/>
     <ellipse id="_124512688" class="fil3" cx="722.3" cy="1008.14" rx="7.83" ry="6.45"/>
     <ellipse id="_124512520" class="fil1" transform="matrix(1.42866 0.389561 -0 1.42866 648.184 1040.59)" rx="7.83" ry="6.45"/>
     <ellipse id="_124512376" class="fil1" transform="matrix(0.746247 0.102709 0.0938004 0.72067 668.47 1044.82)" rx="7.83" ry="6.45"/>
    </g>
   </g>
  </g>
 </g>
</svg>
