<?xml version="1.0" encoding="UTF-8"?>
<!DOCTYPE svg PUBLIC "-//W3C//DTD SVG 1.1//EN" "http://www.w3.org/Graphics/SVG/1.1/DTD/svg11.dtd">
<!-- Creator: CorelDRAW 2020 (64-Bit) -->
<svg xmlns="http://www.w3.org/2000/svg" xml:space="preserve" width="129.436mm" height="197.988mm" version="1.1" style="shape-rendering:geometricPrecision; text-rendering:geometricPrecision; image-rendering:optimizeQuality; fill-rule:evenodd; clip-rule:evenodd"
viewBox="0 0 2209.91 3380.33"
 xmlns:xlink="http://www.w3.org/1999/xlink"
 xmlns:xodm="http://www.corel.com/coreldraw/odm/2003">
 <defs>
  <style type="text/css">
   <![CDATA[
    .fil0 {fill:none}
    .fil1 {fill:#501D33}
    .fil3 {fill:#AD8D60}
    .fil2 {fill:#DEDA81}
    .fil4 {fill:#EEF698}
   ]]>
  </style>
 </defs>
 <g id="Слой_x0020_1">
  <metadata id="CorelCorpID_0Corel-Layer"/>
  <g id="_2674527004992">
   <rect id="_283858840" class="fil0" y="0" width="2209.91" height="3380.33"/>
   <path id="_282341344" class="fil1" d="M972.45 1355.99l25.51 90.28 -16.68 29.44c0,0 -14.72,-9.32 -20.12,-7.85 -5.4,1.47 -33.36,18.15 -59.37,68.69 0,0 -7.36,17.66 10.79,40.23 18.15,22.57 63.79,59.86 125.61,72.13 0,0 19.14,21.59 48.58,26.99 18.92,3.63 30.99,3.62 49.92,0 29.44,-5.4 48.57,-26.99 48.57,-26.99 61.82,-12.27 107.45,-49.56 125.61,-72.13 18.15,-22.57 10.79,-40.23 10.79,-40.23 -26,-50.54 -53.97,-67.22 -59.37,-68.69 -5.4,-1.47 -20.12,3.94 -20.12,3.94l-21.33 -23.08 30.16 -92.72c5.69,-21.19 -4.34,-15.34 -7.2,-10.3 -70.69,-29.78 -186.77,-28.82 -259.52,0.33 -8.14,-15.86 -18.04,-13.51 -11.84,9.97z"/>
   <path id="_282341272" class="fil2" d="M984.22 1345.68l37.29 96.66 -19.13 41.21c0,0 30.15,40.74 29.66,45.39 -0.49,4.65 -59.89,-36.67 -59.89,-36.67 0,0 -29.14,12.87 -47.79,58.01 0,0 23.55,50.05 99.6,67.22l16.68 2.94c0,0 29.93,42.69 75.56,35.82 45.63,-6.87 72.13,-43.67 72.13,-43.67l10.3 7.85c0,0 62.31,-14.23 93.71,-66.73 0,0 4.91,-26.5 -37.29,-60.84 0,0 -21.1,5.89 -56.91,39.74 0,0 -0.37,-22.5 23.59,-50.37l-28.82 -30.75 50.86 -104.84c4.85,-10.01 -121.9,-80.38 -259.56,-0.98z"/>
   <path id="_282340984" class="fil3" d="M924.72 1549.44l-0.36 0.85c0,0 23.55,50.05 99.6,67.22l5.12 0.9c-12.77,-16.43 -33.72,-42.32 -41,-45.14 0,0 -28.85,-25.34 -63.36,-23.84z"/>
   <path id="_282340840" class="fil3" d="M1190.57 1614.3l8.07 6.15c0,0 62.31,-14.23 93.71,-66.73 0,0 4.48,-24.25 -32.06,-56.41 5.55,14.44 10.8,41.32 -15.62,60.53 -37.78,27.48 -45.72,47.61 -45.72,47.61 0,0 -7.44,2.42 -8.39,8.85z"/>
   <path id="_282340624" class="fil1" d="M1041.39 1621.04c0,0 -48.91,-70.56 -78.35,-67.62 -29.44,2.94 71.14,74.09 71.14,74.09l7.2 -6.47z"/>
   <path id="_282340552" class="fil3" d="M1010.33 1567.65c24.17,39.17 52.22,71.29 84.33,79.26 33.24,8.24 88.59,-13.57 104.68,-70.58 0,0 -104.84,74.2 -189,-8.68z"/>
   <path id="_282340624_0" class="fil1" d="M1173.35 1630.08c0,0 48.91,-70.56 78.35,-67.62 29.44,2.94 -71.14,74.09 -71.14,74.09l-7.2 -6.47z"/>
   <path class="fil4" d="M1010.04 1484.63c0,0 20.61,-42.07 23.43,-42.35 2.82,-0.28 153.59,12.42 150.77,28.8 -2.82,16.38 -144.56,29.36 -174.2,13.55z"/>
   <path class="fil4" d="M1252.08 1507.11c8.16,7 -2.18,24.58 -11.27,35.17 -9.09,10.59 -42.7,12.73 -47.91,8.26 -7.31,-6.27 51.02,-50.43 59.17,-43.43z"/>
   <path class="fil4" d="M965.99 1505.98c-8.16,7 2.18,24.58 11.27,35.17 9.09,10.59 42.7,12.73 47.91,8.26 7.31,-6.27 -51.02,-50.43 -59.17,-43.43z"/>
  </g>
 </g>
</svg>
