<?xml version="1.0" encoding="UTF-8"?>
<!DOCTYPE svg PUBLIC "-//W3C//DTD SVG 1.1//EN" "http://www.w3.org/Graphics/SVG/1.1/DTD/svg11.dtd">
<!-- Creator: CorelDRAW 2020 (64-Bit) -->
<svg xmlns="http://www.w3.org/2000/svg" xml:space="preserve" width="129.436mm" height="197.989mm" version="1.1" style="shape-rendering:geometricPrecision; text-rendering:geometricPrecision; image-rendering:optimizeQuality; fill-rule:evenodd; clip-rule:evenodd"
viewBox="0 0 473.21 723.83"
 xmlns:xlink="http://www.w3.org/1999/xlink"
 xmlns:xodm="http://www.corel.com/coreldraw/odm/2003">
 <defs>
  <style type="text/css">
   <![CDATA[
    .fil0 {fill:none}
    .fil1 {fill:#501D33}
    .fil5 {fill:#9F5655}
    .fil3 {fill:#B76E60}
    .fil2 {fill:#D3956E}
    .fil4 {fill:#E8C391}
   ]]>
  </style>
 </defs>
 <g id="Слой_x0020_1">
  <metadata id="CorelCorpID_0Corel-Layer"/>
  <g id="_2674590327440">
   <rect id="_263936248" class="fil0" y="0" width="473.21" height="723.83"/>
   <path id="_265725576" class="fil1" d="M212.03 285.25l-4.76 19.63c0,0 -17.15,4.25 -16.58,24.04 0.57,19.79 26.1,27.93 45.88,25.68 19.78,2.25 43.21,-4.49 45.31,-25.68 2.09,-21.19 -16,-24.04 -16,-24.04l-4.76 -19.63c-1.12,-4.13 -2.48,-2.52 -2.57,-1.66 -16.77,-2.05 -27.38,-1.63 -43.69,0.28 -0.65,-0.68 -1.45,-2.31 -2.82,1.38z"/>
   <path id="_265725336" class="fil2" d="M214.59 283.64l-1.71 20.69c0,0 13.22,-1.2 19.21,8.2 -8.33,-4.48 -23.86,-6.38 -30.62,2.14 -1.89,2.38 -3.73,6.08 -4.1,11.64 -0.54,8.06 1.32,13.25 6.6,19.2 5.55,6.25 15.53,15.8 32.59,10.69 16.68,5.01 27.04,-4.44 32.59,-10.69 5.28,-5.95 7.14,-11.14 6.6,-19.2 -0.1,-1.53 -0.32,-2.93 -0.61,-4.19 -3.73,-15.89 -22.55,-15.81 -34.1,-9.59 5.99,-9.4 19.21,-8.2 19.21,-8.2l-1.71 -20.69c-13.66,-3.66 -30.28,-3.66 -43.95,0z"/>
   <path id="_265725288" class="fil3" d="M213.56 296.06l-0.68 8.27c0,0 13.08,-1.19 19.12,8.06 4.84,1.71 8.12,0.38 9.31,-0.27 6.11,-8.95 18.94,-7.79 18.94,-7.79l-0.67 -8.12c-3.55,2.03 -11.96,6.05 -23.11,6.25 -12.35,0.22 -20.46,-4.7 -22.9,-6.41z"/>
   <path id="_265725120" class="fil4" d="M274.82 320.94c-4.23,-14.21 -21.37,-14.46 -32.67,-8.97 3.61,-0.91 21.45,-4.57 32.67,8.97z"/>
   <path id="_265725192" class="fil4" d="M231.4 312.18c-8.47,-4.22 -23.36,-5.79 -29.93,2.49 -1.33,1.68 -2.63,4 -3.42,7.16 11.29,-14.52 29.94,-10.53 33.35,-9.66z"/>
   <path id="_265725264" class="fil5" d="M197.99 322.12c-0.3,1.26 -0.51,2.66 -0.61,4.19 -0.54,8.06 1.32,13.25 6.6,19.2 5.55,6.25 15.53,15.8 32.59,10.69 16.68,5.01 27.04,-4.44 32.59,-10.69 5.28,-5.95 7.14,-11.14 6.6,-19.2 -0.1,-1.54 -0.32,-2.93 -0.61,-4.19 -15.04,-18.96 -22.57,25.98 -39.49,26.75 -12.52,0.57 -26.32,-41.05 -37.66,-26.75z"/>
   <path id="_265725072" class="fil1" d="M223.9 351.62c0,0 -6.28,-23.19 -14.36,-22.99 -8.08,0.2 -3.99,13.2 -3.99,13.2 0,0 7.23,-5.5 18.35,9.8z"/>
   <g>
    <circle id="_265724928" class="fil3" transform="matrix(0.976142 -0.424258 0.424258 0.976142 222.508 307.387)" r="11.13"/>
    <circle id="_265721520" class="fil1" transform="matrix(0.894665 -0.388845 0.388845 0.894665 220.223 306.033)" r="11.13"/>
    <circle id="_265721592" class="fil2" transform="matrix(0.732698 -0.318451 0.318451 0.732698 222.792 306.664)" r="11.13"/>
    <path id="_265721664" class="fil3" d="M224.61 298.93c2.36,0.56 4.43,2.18 5.47,4.57 1.75,4.03 -0.1,8.71 -4.12,10.46 -2.81,1.22 -5.94,0.69 -8.17,-1.11 1.61,0.38 3.35,0.26 4.99,-0.45 4.03,-1.75 5.87,-6.43 4.12,-10.46 -0.53,-1.22 -1.33,-2.23 -2.29,-3.01z"/>
    <circle id="_265721736" class="fil4" transform="matrix(0.306089 -0.487115 0.337143 0.211851 220.014 304.907)" r="11.13"/>
   </g>
   <circle id="_265721832" class="fil3" transform="matrix(0.690555 -0.859127 1.29839 0.685989 221.093 324.361)" r="3.95"/>
   <circle id="_265721904" class="fil3" transform="matrix(1.25171 -0.544029 0.544029 1.25171 244.042 321.199)" r="1.75"/>
   <circle id="_265722000" class="fil3" transform="matrix(1.08602 -0.38675 0.472013 0.889844 253.565 297.904)" r="3.95"/>
   <circle id="_265722072" class="fil3" transform="matrix(2.00525 -0.714106 0.871539 1.64304 241.734 296.513)" r="1.75"/>
   <circle id="_265722456" class="fil5" cx="260.37" cy="323.42" r="5.25"/>
   <g>
    <circle id="_265722528" class="fil5" transform="matrix(0.743966 -0.163554 0.177329 0.686174 259.022 321.241)" r="11.13"/>
    <circle id="_265722600" class="fil2" transform="matrix(0.629665 -0.138426 0.150085 0.580751 257.06 319.943)" r="11.13"/>
    <path id="_265722672" class="fil3" d="M259.61 314.48c1.8,0.72 3.23,2.18 3.72,4.08 0.82,3.19 -1.31,6.4 -4.77,7.16 -2.41,0.53 -4.84,-0.27 -6.36,-1.89 1.23,0.49 2.64,0.63 4.04,0.32 3.46,-0.76 5.6,-3.97 4.77,-7.16 -0.25,-0.96 -0.74,-1.82 -1.4,-2.52z"/>
    <circle id="_265722744" class="fil4" transform="matrix(0.31328 -0.318343 0.238889 0.199984 255.093 318.285)" r="11.13"/>
   </g>
   <path id="_265722840" class="fil1" d="M247.97 351.62c0,0 6.28,-23.19 14.36,-22.99 8.08,0.2 3.99,13.2 3.99,13.2 0,0 -7.23,-5.5 -18.35,9.8z"/>
   <circle id="_265723296" class="fil3" transform="matrix(1 -0 -0.150165 1 246.713 329.62)" r="4.04"/>
   <ellipse class="fil4" cx="236.16" cy="286.53" rx="18.38" ry="5.02"/>
  </g>
 </g>
</svg>
