<?xml version="1.0" encoding="UTF-8"?>
<!DOCTYPE svg PUBLIC "-//W3C//DTD SVG 1.1//EN" "http://www.w3.org/Graphics/SVG/1.1/DTD/svg11.dtd">
<!-- Creator: CorelDRAW 2020 (64-Bit) -->
<svg xmlns="http://www.w3.org/2000/svg" xml:space="preserve" width="129.436mm" height="197.989mm" version="1.1" style="shape-rendering:geometricPrecision; text-rendering:geometricPrecision; image-rendering:optimizeQuality; fill-rule:evenodd; clip-rule:evenodd"
viewBox="0 0 5319.66 8137.1"
 xmlns:xlink="http://www.w3.org/1999/xlink"
 xmlns:xodm="http://www.corel.com/coreldraw/odm/2003">
 <defs>
  <style type="text/css">
   <![CDATA[
    .fil0 {fill:none}
    .fil1 {fill:#501D33}
    .fil3 {fill:#AD8D60}
    .fil2 {fill:#DEDA81}
   ]]>
  </style>
 </defs>
 <g id="Слой_x0020_1">
  <metadata id="CorelCorpID_0Corel-Layer"/>
  <g id="_2674549579008">
   <g id="_124018168">
    <rect id="_285630640" class="fil0" y="0" width="5319.66" height="8137.1"/>
    <g>
     <path id="_283861528" class="fil1" d="M2427.6 3938.45c-55.22,-59.28 -128.04,-109.18 -198.69,-149.09 -81.07,-45.8 -78.83,-36.35 -35.28,-123.28 35.8,-71.48 65.3,-170.89 179.37,-216.14 41.42,-61.52 135.09,-155.56 186.88,-171.28 4.25,-1.29 160.82,-18.52 200.78,-5.26 48.23,16 153.82,116.31 195.27,167.42 72.7,20.71 171.45,196.83 196.46,279.18 8.44,27.8 -3.72,37.28 -62.58,71.04 -68.76,39.43 -138.65,89.53 -192.57,147.43 -138.86,149.12 -331.44,148.44 -469.66,0z"/>
     <path id="_283861456" class="fil2" d="M2787.94 4000.73c0,0 83.71,-156.36 311.37,-272.92 0,0 -83.04,-178.85 -124.55,-213.31 -41.51,-34.46 -153.95,32.82 -153.95,32.82 0,0 34.5,-52.03 88.03,-92.16 0,0 -94.69,-171.43 -150.81,-199.27 -47.29,-13.04 -142.75,-10.16 -190.04,2.87 -56.12,27.85 -151.98,196.4 -151.98,196.4 53.53,40.13 88.03,92.16 88.03,92.16 0,0 -112.44,-67.27 -153.96,-32.82 -41.52,34.46 -124.55,213.31 -124.55,213.31 227.66,116.56 311.37,272.92 311.37,272.92 84.99,75.88 166.03,75.87 251.03,0z"/>
     <path id="_283861384" class="fil3" d="M2513.86 3510.68c0,0 78.18,67.13 151.27,64.59 73.08,-2.55 164.01,-81.58 164.01,-81.58 0,0 -161.46,62.89 -315.28,16.99z"/>
     <path id="_283861312" class="fil3" d="M2787.94 4000.73c0,0 83.71,-156.36 311.37,-272.92 0,0 -4.61,-9.91 -12.19,-25.52 -42.03,-60.78 -122.44,-148.22 -167.14,-148.22 -61.27,0 -161.98,136.53 -258.03,130.75 -96.05,-5.78 -196.6,-116.86 -267.05,-118.01 -63.28,-1.04 -151.71,133.04 -169.04,160.33l-0.32 0.67c227.66,116.56 311.37,272.92 311.37,272.92 84.99,75.88 166.03,75.87 251.03,0z"/>
     <path id="_283861240" class="fil1" d="M2882.51 3667.6c0,0 49.06,10.45 89.45,49.41 -68.91,44.28 -180.43,144.17 -258.99,271.4 -14.43,-44.65 16.48,-246.57 169.54,-320.81z"/>
     <path id="_283861168" class="fil1" d="M2442.34 3667.6c0,0 -49.06,10.45 -89.45,49.41 68.91,44.28 180.44,144.17 258.99,271.4 14.43,-44.65 -16.47,-246.57 -169.54,-320.81z"/>
     <path id="_283861096" class="fil1" d="M3098.48 3746.84c0,0 -60.52,-95.65 -119.42,-164.55 0,0 82.98,55.52 128.53,116.56l5.08 26.98c0,0 -14.35,23.32 -14.19,21.01z"/>
     <path id="_283861024" class="fil1" d="M2225.22 3746.84c0,0 60.52,-95.65 119.42,-164.55 0,0 -82.98,55.52 -128.53,116.56l-5.08 26.98c0,0 14.35,23.32 14.19,21.01z"/>
    </g>
   </g>
  </g>
 </g>
</svg>
