<?xml version="1.0" encoding="UTF-8"?>
<!DOCTYPE svg PUBLIC "-//W3C//DTD SVG 1.1//EN" "http://www.w3.org/Graphics/SVG/1.1/DTD/svg11.dtd">
<!-- Creator: CorelDRAW 2020 (64-Bit) -->
<svg xmlns="http://www.w3.org/2000/svg" xml:space="preserve" width="129.436mm" height="197.988mm" version="1.1" style="shape-rendering:geometricPrecision; text-rendering:geometricPrecision; image-rendering:optimizeQuality; fill-rule:evenodd; clip-rule:evenodd"
viewBox="0 0 540.97 827.48"
 xmlns:xlink="http://www.w3.org/1999/xlink"
 xmlns:xodm="http://www.corel.com/coreldraw/odm/2003">
 <defs>
  <style type="text/css">
   <![CDATA[
    .fil0 {fill:none}
    .fil1 {fill:#501D33}
    .fil4 {fill:#AD8D60}
    .fil5 {fill:#BFCAB7}
    .fil3 {fill:#DEDA81}
    .fil2 {fill:white}
   ]]>
  </style>
 </defs>
 <g id="Слой_x0020_1">
  <metadata id="CorelCorpID_0Corel-Layer"/>
  <g id="_2674593372752">
   <rect id="_285632320" class="fil0" width="540.97" height="827.48"/>
   <path id="_92444088" class="fil1" d="M256.31 324.01c0,0 -14.13,14.06 -14.13,15.52 0,1.45 -3.76,23.28 -3.76,23.28 -3.14,4.48 -13.21,13.27 -17.35,21.55 -2.16,4.34 -2.11,8.54 0.14,11.9 6.06,9.06 17.03,10.29 26.2,9.7 0,0 9.49,6.75 13.24,6.99 2.7,0.17 7.22,-1.59 9.55,-2.6 2.33,1.01 6.85,2.77 9.55,2.6 3.75,-0.24 13.24,-6.99 13.24,-6.99 9.17,0.6 22,0.62 26.67,-9.32 5.6,-11.9 -12.88,-27.01 -17.67,-33.83 0,0 -3.76,-21.82 -3.76,-23.28 0,-1.45 -14.13,-15.52 -14.13,-15.52 -4.8,-3.47 -11.08,-1.85 -13.9,-0.84 -2.82,-1.01 -9.1,-2.62 -13.9,0.84z"/>
   <path id="_92444016" class="fil2" d="M259.32 321.34l-12.68 19.85 -1.53 21.3c0,0 15.97,8.23 16.68,10.29l-18.32 -4.84c0,0 -8.93,7.74 -14.92,16.34 0,0 -2.7,3.51 -1.88,7.26 0.41,1.88 1.3,4.9 4.11,6.62 2.82,1.72 7.92,2.39 13.03,2.45l-7.19 -5.26c-6.21,-4.54 -1.78,-5.89 4.56,-1.74 7,4.59 14.21,11.48 18.72,12.2 5.03,0.8 8.7,-1.77 10.31,-5.57 1.61,3.8 5.27,6.37 10.31,5.57 4.51,-0.72 11.71,-7.61 18.72,-12.2 6.34,-4.15 10.77,-2.8 4.56,1.74l-7.19 5.26c5.11,-0.06 10.21,-0.73 13.03,-2.45 2.82,-1.72 3.7,-4.75 4.11,-6.62 0.82,-3.75 -1.88,-7.26 -1.88,-7.26 -5.99,-8.59 -14.92,-16.34 -14.92,-16.34l-18.32 4.84c0.7,-2.06 16.68,-10.29 16.68,-10.29l-1.53 -21.3 -12.68 -19.85c-6.57,-3.35 -15.21,-3.35 -21.79,0z"/>
   <path id="_92444016_0" class="fil3" d="M280.57 405.8c4.51,-0.76 11.69,-7.62 18.66,-12.19 6.34,-4.15 10.77,-2.8 4.56,1.74l-7.19 5.26c5.11,-0.06 10.21,-0.73 13.03,-2.45 2.82,-1.72 3.7,-4.75 4.11,-6.62 0.82,-3.75 -1.88,-7.26 -1.88,-7.26 -2.77,-3.98 -6.17,-7.77 -9.03,-10.7 -12.76,2.68 -22.4,14.81 -22.4,29.37 0,0.96 0.04,1.92 0.13,2.86z"/>
   <path id="_92444016_1" class="fil3" d="M258.26 323l-11.62 18.19 -1.34 18.69c9.67,-3.6 16.56,-12.92 16.56,-23.84 0,-4.77 -1.31,-9.23 -3.59,-13.04z"/>
   <path id="_92443800" class="fil2" d="M243.24 368.13c-1.43,1.27 -9.26,8.35 -14.69,16.14 0,0 -2.7,3.51 -1.88,7.26 0.37,1.68 1.12,4.29 3.31,6.05 -2.41,-11.17 13.65,-29.57 13.65,-29.57l-0.4 0.12z"/>
   <path id="_92443584" class="fil4" d="M306.67 391.53c0.42,0.63 -0.34,1.96 -2.87,3.81l-7.19 5.26c5.11,-0.06 10.21,-0.73 13.03,-2.45 2.82,-1.72 3.7,-4.75 4.11,-6.62 0.12,-0.54 0.16,-1.08 0.15,-1.6 -2.01,-0.47 -4.63,0.33 -7.24,1.6z"/>
   <path id="_92443584_2" class="fil5" d="M229.01 396.66c0.48,0.55 1.07,1.06 1.77,1.49 2.82,1.72 7.92,2.39 13.03,2.45l-7.19 -5.26c-2.28,-1.67 -3.12,-2.9 -2.96,-3.59 -3.01,0.32 -4.19,2.88 -4.65,4.9z"/>
   <path id="_92443512" class="fil5" d="M246.63 341.3l-1.52 21.18c0,0 15.19,7.82 16.59,10.12 1.14,0.18 8.26,2.64 17.09,-0.1 1.76,-2.41 16.53,-10.02 16.53,-10.02l-1.52 -21.19c-3.75,2.28 -11.7,6.03 -23.27,5.7 -11.56,-0.33 -19.91,-3.69 -23.9,-5.69z"/>
   <path id="_92443512_3" class="fil4" d="M246.63 341.3l-1.33 18.58c6.61,-2.46 11.93,-7.6 14.62,-14.1 -6.11,-1.24 -10.65,-3.16 -13.29,-4.48z"/>
   <circle id="_92443440" class="fil5" cx="286.56" cy="344.82" r="5.46"/>
   <circle id="_92443368" class="fil5" cx="274.93" cy="341.41" r="2.29"/>
   <circle class="fil4" transform="matrix(1 -0.409101 -0 1 257.811 359.047)" r="4.67"/>
   <circle class="fil3" cx="284.59" cy="385.32" r="7.88"/>
   <circle class="fil3" transform="matrix(0.508779 -0 0.131041 0.508779 273.952 393.405)" r="7.88"/>
  </g>
 </g>
</svg>
