<?xml version="1.0" encoding="UTF-8"?>
<!DOCTYPE svg PUBLIC "-//W3C//DTD SVG 1.1//EN" "http://www.w3.org/Graphics/SVG/1.1/DTD/svg11.dtd">
<!-- Creator: CorelDRAW 2020 (64-Bit) -->
<svg xmlns="http://www.w3.org/2000/svg" xml:space="preserve" width="129.436mm" height="197.988mm" version="1.1" style="shape-rendering:geometricPrecision; text-rendering:geometricPrecision; image-rendering:optimizeQuality; fill-rule:evenodd; clip-rule:evenodd"
viewBox="0 0 3143.54 4808.44"
 xmlns:xlink="http://www.w3.org/1999/xlink"
 xmlns:xodm="http://www.corel.com/coreldraw/odm/2003">
 <defs>
  <style type="text/css">
   <![CDATA[
    .fil0 {fill:none}
    .fil1 {fill:#501D33}
    .fil3 {fill:#AD8D60}
    .fil2 {fill:#DEDA81}
    .fil5 {fill:#EFFABB}
    .fil4 {fill:white}
   ]]>
  </style>
 </defs>
 <g id="Слой_x0020_1">
  <metadata id="CorelCorpID_0Corel-Layer"/>
  <g id="_2674549382112">
   <g id="_124531456">
    <rect id="_283862968" class="fil0" y="0" width="3143.54" height="4808.44"/>
    <g>
     <path id="_282346120" class="fil1" d="M1408.51 1894.93l-31.65 130.4c0,0 -113.91,28.22 -110.12,159.67 3.79,131.46 173.37,185.55 304.76,170.6 131.39,14.94 287.05,-29.83 300.96,-170.6 13.92,-140.77 -106.32,-159.67 -106.32,-159.67l-31.64 -130.4c-128.15,-15.92 -201.58,-15.46 -326,0z"/>
     <path id="_282346048" class="fil2" d="M1425.53 1884.24l-11.37 137.48c0,0 87.81,-7.97 127.61,54.46 -55.34,-29.78 -158.5,-42.35 -203.39,14.2 -12.58,15.83 -24.75,40.42 -27.24,77.35 -3.61,53.56 8.77,88.01 43.85,127.53 36.86,41.53 103.15,104.98 216.5,71 110.82,33.31 179.65,-29.47 216.51,-71 35.08,-39.52 47.46,-73.97 43.85,-127.53 -0.68,-10.19 -2.11,-19.44 -4.08,-27.82 -24.75,-105.53 -149.83,-105.02 -226.55,-63.72 39.8,-62.43 127.61,-54.46 127.61,-54.46l-11.37 -137.48c-90.75,-24.29 -201.18,-24.29 -291.94,0z"/>
     <path id="_282345976" class="fil3" d="M1418.71 1966.75l-4.55 54.97c0,0 86.92,-7.88 127,53.53 32.14,11.33 53.94,2.54 61.86,-1.79 40.58,-59.47 125.82,-51.73 125.82,-51.73l-4.46 -53.91c-23.58,13.48 -79.43,40.2 -153.52,41.5 -82.07,1.43 -135.94,-31.19 -152.15,-42.55z"/>
     <path id="_282345904" class="fil4" d="M1825.66 2131.99c-28.1,-94.4 -141.97,-96.04 -217.03,-59.6 23.98,-6.06 142.51,-30.33 217.03,59.6z"/>
     <path id="_282345832" class="fil4" d="M1537.22 2073.83c-56.28,-28.06 -155.15,-38.48 -198.84,16.55 -8.84,11.13 -17.47,26.57 -22.69,47.59 74.97,-96.45 198.91,-69.97 221.53,-64.14z"/>
     <path id="_282345760" class="fil5" d="M1429.89 2128.36c0,0 84.99,46.21 144.84,42.82 59.85,-3.39 118.98,-28.12 151.05,-47.91 0,0 -8.87,92.81 -107.83,111.92 -98.96,19.11 -146.04,-23.89 -188.07,-106.83z"/>
     <path id="_282345688" class="fil3" d="M1315.24 2139.87c-1.97,8.39 -3.4,17.65 -4.08,27.85 -3.61,53.56 8.77,88.01 43.85,127.53 36.86,41.53 103.15,104.98 216.5,71 110.82,33.31 179.65,-29.47 216.51,-71 35.08,-39.52 47.46,-73.97 43.85,-127.53 -0.69,-10.2 -2.12,-19.46 -4.08,-27.85 -12.88,-16.23 -36.8,-31.73 -80.1,-23.19 -50.48,9.96 -69.17,39.12 -98.33,60.24 -21.77,15.77 -50.6,27.14 -79.14,27.12 -22.19,-0.02 -44.21,-8.25 -62.59,-18.25 -38.23,-20.8 -54.25,-57.65 -112.3,-69.1 -43.3,-8.55 -67.22,6.96 -80.09,23.19z"/>
     <path id="_282345616" class="fil1" d="M1647.28 2335.85c0,0 41.69,-154.08 95.39,-152.75 53.7,1.33 26.53,87.66 26.53,87.66 0,0 -48.01,-36.53 -121.93,65.09z"/>
     <path id="_282345544" class="fil1" d="M1487.37 2335.85c0,0 -41.69,-154.08 -95.39,-152.75 -53.7,1.33 -26.53,87.66 -26.53,87.66 0,0 48.01,-36.53 121.93,65.09z"/>
    </g>
   </g>
  </g>
 </g>
</svg>
