<?xml version="1.0" encoding="UTF-8"?>
<!DOCTYPE svg PUBLIC "-//W3C//DTD SVG 1.1//EN" "http://www.w3.org/Graphics/SVG/1.1/DTD/svg11.dtd">
<!-- Creator: CorelDRAW 2020 (64-Bit) -->
<svg xmlns="http://www.w3.org/2000/svg" xml:space="preserve" width="129.436mm" height="197.988mm" version="1.1" style="shape-rendering:geometricPrecision; text-rendering:geometricPrecision; image-rendering:optimizeQuality; fill-rule:evenodd; clip-rule:evenodd"
viewBox="0 0 807.84 1235.69"
 xmlns:xlink="http://www.w3.org/1999/xlink"
 xmlns:xodm="http://www.corel.com/coreldraw/odm/2003">
 <defs>
  <style type="text/css">
   <![CDATA[
    .fil0 {fill:none}
    .fil1 {fill:#501D33}
    .fil6 {fill:#88958A}
    .fil2 {fill:#AD8D60}
    .fil5 {fill:#AFC0A6}
    .fil3 {fill:#DEDA81}
    .fil4 {fill:white}
   ]]>
  </style>
 </defs>
 <g id="Слой_x0020_1">
  <metadata id="CorelCorpID_0Corel-Layer"/>
  <g id="_2674543808864">
   <g id="_124017880">
    <rect id="_118462872" class="fil0" y="0" width="807.84" height="1235.69"/>
    <g>
     <path id="_271070616" class="fil1" d="M368.58 531.44c0,0 16.05,-28.24 22.71,-38.76l24.11 -0.35c6.66,10.52 24.2,39.98 24.2,39.98 0.23,0.23 -16.09,16.28 -26.38,27.72 -11.91,13.24 -6.24,13.85 -16.54,2.22 -10.01,-11.3 -28.35,-30.58 -28.11,-30.82z"/>
     <path id="_271070736" class="fil2" d="M393.96 492.5l-17.02 42.62 3.86 23.33c0,0 11.4,14.03 15.78,13.5 4.38,-0.53 34.55,-33.5 34.55,-33.5l-17.8 -46.48c0,0 -10.34,-1.76 -19.38,0.52z"/>
     <polygon id="_271070832" class="fil3" points="426.12,522.44 415.81,530.65 395.45,532.31 422.97,521.3 "/>
     <path id="_271071000" class="fil1" d="M424.69 588.53c0,0 5.5,-0.29 12.15,-3.71 11.87,-6.08 28.93,-18.94 35.93,-25.33 1.79,-1.63 5.31,-4.67 6.16,-7.53 0.8,-2.69 -0.06,-5.72 -2.2,-7.7 -8.56,-7.92 -17.16,-14.61 -25.61,-18.93 -5.61,-2.87 -8.29,-3.62 -13.25,0.09 -12.25,9.16 -23.56,21.33 -32.93,33.35l-2.04 0c-9.37,-12.02 -20.68,-24.37 -32.93,-33.53 -4.96,-3.71 -7.64,-2.96 -13.25,-0.09 -8.45,4.33 -17.06,11.01 -25.61,18.93 -2.14,1.98 -3,5.01 -2.2,7.7 0.85,2.86 3.49,5.37 5.28,7 10.93,9.98 42.94,31.39 42.94,31.39 2.4,0.63 5.34,-3.27 7.05,-2.18 15.49,9.91 25.31,8.39 40.52,0.52z"/>
     <path id="_271071096" class="fil3" d="M403.92 558.88c-3.52,-2.69 -27.31,-20.81 -36.57,-26.32 -2.22,-1.32 -3.73,-2.06 -6.85,-0.16 -1.99,1.21 -10.49,5.5 -20.71,16.25 -2.81,3.11 3.47,8.1 5.78,9.96 5.56,4.49 14.22,11.28 22.36,16.01 8.33,4.84 7.9,2.35 1.56,-3.76 -4.74,-4.57 -10.06,-11.51 -9.95,-13.39 0.13,-2.29 17.33,12.29 25.51,19.34 13.79,11.89 23.77,10.76 37.2,-0.73 8.46,-7.24 25.92,-20.83 26.05,-18.6 0.11,1.88 -4.95,8.91 -9.69,13.48 -6.33,6.11 -7.03,8.52 1.3,3.67 8.14,-4.73 16.8,-11.53 22.36,-16.01 2.3,-1.86 8.59,-6.85 5.78,-9.96 -10.22,-10.75 -18.87,-14.94 -20.8,-16.25 -2.72,-1.86 -4.82,-1.02 -7.22,0.44 -9.56,5.81 -32.65,23.4 -36.12,26.05z"/>
     <path id="_271071216" class="fil2" d="M339.4 551.92c1.08,2.62 4.57,5.4 6.16,6.68 5.56,4.49 14.22,11.28 22.36,16.01 8.33,4.84 7.9,2.35 1.56,-3.76 -4.67,-4.51 -9.9,-11.31 -9.95,-13.31 -7.39,-3.75 -16.94,-5.23 -20.13,-5.63zm108.89 5.68c-0.1,2.05 -5.04,8.88 -9.68,13.35 -6.33,6.11 -7.03,8.52 1.3,3.67 8.14,-4.73 16.8,-11.53 22.36,-16.01 1.88,-1.52 6.44,-5.14 6.48,-8.11 -9.54,2.25 -18.05,6 -20.46,7.1z"/>
     <path id="_271071312" class="fil4" d="M367.35 532.56c-2.22,-1.32 -3.73,-2.06 -6.85,-0.16 -1.99,1.21 -10.49,5.5 -20.71,16.25 -0.37,0.41 -0.58,0.86 -0.67,1.33 3.34,-2 20.65,-12.34 23.47,-12.43 2.83,-0.08 41.4,21.25 41.4,21.25 -12.19,-8.56 -23.8,-18.6 -36.65,-26.25zm100.68 16.07c-10.21,-10.73 -18.85,-14.92 -20.77,-16.23 -2.72,-1.86 -4.82,-1.02 -7.22,0.44 -9.08,5.52 -30.35,21.65 -35.44,25.54 5.96,-3.46 36.33,-20.97 39.17,-20.97 1.92,0 14.61,6.3 24.26,11.23z"/>
     <path id="_271071432" class="fil1" d="M436.15 565.88c11.91,8.72 20.59,22.17 20.59,37.26 0.53,27.69 -22.48,49.36 -53.17,49.36 -29.81,0.18 -53.87,-22.02 -53,-49.36 0,-15.18 9.31,-28.71 21.36,-37.43l21.07 16.96c-7.76,4.12 -13.42,11.39 -13.42,20.21 0,13.16 9.95,20.94 24.25,20.94 14.31,0 23.55,-6.73 23.55,-19.89 0,-8.74 -3.29,-17.35 -10.92,-21.5l19.69 -16.55z"/>
     <path id="_271071528" class="fil5" d="M437.36 574.13c7.77,7.57 12.54,17.78 12.54,29.02 0,23.35 -20.59,42.29 -45.98,42.29 -25.39,0 -45.98,-18.94 -45.98,-42.29 0,-11.71 5.18,-22.32 13.55,-29.97 2.84,-2.6 13.34,7.09 9.67,10.76 -5.05,5.06 -8.14,11.81 -8.14,19.22 0,15.7 13.83,28.42 30.9,28.42 17.06,0 30.9,-12.72 30.9,-28.42 0,-7.39 -3.08,-14.13 -8.11,-19.19 -5.05,-5.07 5.58,-14.78 10.66,-9.83z"/>
     <path id="_271071672" class="fil6" d="M376.17 574.05c3.65,2.4 7.41,7.45 4.99,9.88 -5.05,5.06 -8.14,11.81 -8.14,19.22 0,9.23 4.79,17.43 12.2,22.62 -8.34,-3.88 -25.23,-15.68 -13.18,-44.52 1.19,-2.84 2.58,-5.22 4.14,-7.19zm43.67 53.45c8.97,-4.97 14.98,-14.02 14.98,-24.36 0,-7.39 -3.08,-14.13 -8.11,-19.19 -1.88,-1.89 -1.58,-4.43 -0.2,-6.61 7.12,4.39 11.93,8.36 11.93,8.36 0,0 11.07,30.9 -18.6,41.8z"/>
     <path id="_271071768" class="fil4" d="M449.85 601.11c0.03,0.67 0.05,1.35 0.05,2.03 0,23.35 -20.59,42.29 -45.98,42.29 -25.39,0 -45.98,-18.94 -45.98,-42.29 0,-0.68 0.02,-1.36 0.05,-2.03 1.14,22.42 21.27,40.29 45.93,40.29 24.66,0 44.79,-17.87 45.93,-40.29z"/>
     <path id="_271071888" class="fil6" d="M437.36 574.13c3.14,3.06 5.78,6.55 7.83,10.36 -4.89,1.65 -9.3,4.21 -13.09,6.98 -1.36,-2.77 -3.19,-5.3 -5.39,-7.51 -5.05,-5.07 5.58,-14.78 10.66,-9.83zm-75.99 12.96c2.35,-5.25 5.81,-9.97 10.12,-13.91 2.84,-2.6 13.34,7.09 9.67,10.76 -2.18,2.19 -4,4.69 -5.36,7.42 -5.49,-3.38 -10.51,-4.3 -14.43,-4.27z"/>
     <polygon id="_271071984" class="fil1" points="426.03,514.14 394.75,532.48 427.08,522.35 "/>
     <path id="_271072104" class="fil2" d="M373.79 563c7.75,7.58 19.84,18.94 29.77,19.39 7.27,0.33 24.48,-13.18 30.56,-19.74 0,0 -29.11,15.42 -60.33,0.35z"/>
     <circle id="_271072200" class="fil4" cx="395.93" cy="641.4" r="6.42"/>
     <circle id="_271072344" class="fil4" cx="410.22" cy="642.32" r="4.02"/>
    </g>
   </g>
  </g>
 </g>
</svg>
