<?xml version="1.0" encoding="UTF-8"?>
<!DOCTYPE svg PUBLIC "-//W3C//DTD SVG 1.1//EN" "http://www.w3.org/Graphics/SVG/1.1/DTD/svg11.dtd">
<!-- Creator: CorelDRAW 2020 (64-Bit) -->
<svg xmlns="http://www.w3.org/2000/svg" xml:space="preserve" width="129.436mm" height="197.988mm" version="1.1" style="shape-rendering:geometricPrecision; text-rendering:geometricPrecision; image-rendering:optimizeQuality; fill-rule:evenodd; clip-rule:evenodd"
viewBox="0 0 12605.75 19282.02"
 xmlns:xlink="http://www.w3.org/1999/xlink"
 xmlns:xodm="http://www.corel.com/coreldraw/odm/2003">
 <defs>
  <style type="text/css">
   <![CDATA[
    .fil0 {fill:none}
    .fil1 {fill:#501D33}
    .fil4 {fill:#AD8D60}
    .fil2 {fill:#DEDA81}
    .fil3 {fill:#EFFABB}
   ]]>
  </style>
 </defs>
 <g id="Слой_x0020_1">
  <metadata id="CorelCorpID_0Corel-Layer"/>
  <g id="_2674549600608">
   <g id="_124018096">
    <rect id="_285632320" class="fil0" width="12605.75" height="19282.02"/>
    <g>
     <path id="_92444088" class="fil1" d="M5972.52 7550.11c0,0 -329.22,327.7 -329.22,361.57 0,33.87 -87.65,542.43 -87.65,542.43 -73.28,104.37 -307.87,309.29 -404.19,502.26 -50.45,101.09 -49.08,198.92 3.33,277.29 141.1,211.01 396.85,239.85 610.62,225.96 0,0 221.05,157.2 308.5,162.84 62.91,4.06 168.34,-37.13 222.55,-60.57 54.22,23.43 159.66,64.63 222.57,60.57 87.46,-5.64 308.5,-162.84 308.5,-162.84 213.77,13.89 512.54,14.41 621.58,-217.1 130.57,-277.27 -300.14,-629.36 -411.81,-788.41 0,0 -87.65,-508.56 -87.65,-542.43 0,-33.87 -329.22,-361.57 -329.22,-361.57 -111.84,-80.75 -258.29,-43.18 -323.98,-19.62 -65.69,-23.56 -212.11,-61.12 -323.95,19.62z"/>
     <path id="_92444016" class="fil2" d="M6042.61 7487.98l-295.56 462.44 -35.58 496.27c0,0 372.19,191.74 388.61,239.68l-426.92 -112.79c0,0 -207.99,180.46 -347.56,380.67 0,0 -62.93,81.77 -43.79,169.18 9.57,43.7 30.18,114.13 95.85,154.3 65.67,40.18 184.63,55.76 303.67,57.16l-167.43 -122.49c-144.63,-105.79 -41.36,-137.27 106.27,-40.52 163.17,106.91 331.11,267.56 436.11,284.28 117.27,18.67 202.65,-41.29 240.16,-129.79 37.51,88.5 122.92,148.46 240.18,129.79 105.01,-16.72 272.94,-177.37 436.11,-284.28 147.63,-96.75 250.91,-65.27 106.27,40.52l-167.43 122.49c119.04,-1.4 238,-16.98 303.67,-57.16 65.67,-40.17 86.28,-110.61 95.85,-154.3 19.15,-87.41 -43.79,-169.18 -43.79,-169.18 -139.57,-200.2 -347.56,-380.67 -347.56,-380.67l-426.92 112.79c16.42,-47.94 388.61,-239.68 388.61,-239.68l-35.58 -496.27 -295.56 -462.44c-153.18,-78.17 -354.54,-78.17 -507.71,0z"/>
     <path id="_92443944" class="fil3" d="M6042.61 7487.98l-280.28 438.54 116.68 35.27 170.43 -475.85c-0.78,-0.12 -1.6,-0.12 -2.4,-0.19l-4.44 2.22z"/>
     <path id="_92443872" class="fil3" d="M7212.08 9279.56l3.17 -1.87c65.67,-40.17 86.28,-110.61 95.85,-154.3 19.15,-87.41 -43.79,-169.18 -43.79,-169.18 -139.57,-200.2 -347.56,-380.67 -347.56,-380.67l-0.63 0.17c75.09,91.11 351.08,445.33 298.96,670.39 -2.91,12.58 -4.89,24.37 -6.01,35.46z"/>
     <path id="_92443800" class="fil3" d="M5667.87 8578.21c-33.29,29.53 -215.85,194.67 -342.26,376 0,0 -62.93,81.77 -43.79,169.18 8.6,39.24 26.13,99.99 77.15,141.08 -56.18,-260.33 318.14,-688.96 318.14,-688.96l-9.25 2.7z"/>
     <path id="_92443728" class="fil3" d="M5794.68 7877.66c0,0 281.99,175.16 659.65,199.79 0,0 -314.72,90.31 -703.32,-95.78l-4.83 -30.85 48.5 -73.15z"/>
     <path id="_92443656" class="fil3" d="M5622.61 9173.41c162.41,106.9 329.21,266.05 433.7,282.69 117.27,18.67 202.65,-41.29 240.16,-129.79 37.51,88.5 122.92,148.46 240.18,129.79 105.01,-16.72 272.94,-177.37 436.11,-284.28 39.91,-26.15 76.54,-42.94 105.94,-51.41 -42.91,-4.27 -421.16,218.35 -577.14,218.31 -155.98,-0.04 -194.39,-124.08 -212.9,-117.91 -18.51,6.17 -79.73,126.06 -206.48,131.66 -126.74,5.6 -313.8,-108.31 -459.57,-179.06z"/>
     <path id="_92443584" class="fil4" d="M5336.46 9242.87c11.3,12.89 24.85,24.8 41.23,34.81 65.67,40.18 184.63,55.76 303.67,57.16l-167.43 -122.49c-53.04,-38.8 -72.68,-67.61 -69.08,-83.76 -70.17,7.38 -97.65,67.2 -108.39,114.28zm1809.53 -119.34c9.83,14.73 -7.84,45.57 -66.97,88.82l-167.43 122.49c119.04,-1.4 238,-16.98 303.67,-57.16 65.67,-40.17 86.28,-110.61 95.85,-154.3 2.76,-12.58 3.78,-25.06 3.57,-37.18 -46.78,-10.97 -107.89,7.78 -168.7,37.34z"/>
     <path id="_92443512" class="fil4" d="M5746.86 7953.08l-35.38 493.55c0,0 353.85,182.29 386.66,235.8 26.51,4.08 192.56,61.44 398.18,-2.31 41.02,-56.23 385.15,-233.49 385.15,-233.49l-35.4 -493.82c-87.28,53.24 -272.65,140.46 -542.25,132.81 -269.32,-7.65 -463.94,-85.95 -556.95,-132.55z"/>
     <circle id="_92443440" class="fil4" cx="6677.39" cy="8035.01" r="127.25"/>
     <circle id="_92443368" class="fil4" cx="6406.44" cy="7955.62" r="53.36"/>
     <circle id="_92443296" class="fil4" transform="matrix(1.12296 0.393306 -0.619784 1.04363 6831.33 8761.57)" r="95.78"/>
     <circle id="_92443224" class="fil4" transform="matrix(1.2092 0.200089 -0.443961 1.16885 6563.42 8783.85)" r="56.1"/>
    </g>
   </g>
  </g>
 </g>
</svg>
