<?xml version="1.0" encoding="UTF-8"?>
<!DOCTYPE svg PUBLIC "-//W3C//DTD SVG 1.1//EN" "http://www.w3.org/Graphics/SVG/1.1/DTD/svg11.dtd">
<!-- Creator: CorelDRAW -->
<svg xmlns="http://www.w3.org/2000/svg" xml:space="preserve" width="129.436mm" height="197.989mm" style="shape-rendering:geometricPrecision; text-rendering:geometricPrecision; image-rendering:optimizeQuality; fill-rule:evenodd; clip-rule:evenodd"
viewBox="0 0 6.43142 9.83765"
 xmlns:xlink="http://www.w3.org/1999/xlink">
 <defs>
  <style type="text/css">
   <![CDATA[
    .fil0 {fill:none}
    .fil5 {fill:#4B3446}
    .fil1 {fill:#501D33}
    .fil3 {fill:#634C54}
    .fil4 {fill:#896E6B}
    .fil7 {fill:#D56853}
    .fil6 {fill:#F8C578}
    .fil2 {fill:#FFCFA5}
    .fil8 {fill:white}
   ]]>
  </style>
 </defs>
 <g id="Layer_x0020_1">
  <metadata id="CorelCorpID_0Corel-Layer"/>
  <g id="_283290104">
   <rect id="_284049800" class="fil0" width="6.43142" height="9.83765"/>
   <g id="_161808936">
    <g>
     <path id="_163712448" class="fil1" d="M3.01051 5.5736c0,0 0.0573299,-0.142793 0.219432,-0.142793 0.162102,0 0.225359,0.157714 0.225359,0.157714 0,0 -0.162102,-0.121482 -0.444791,-0.0149213z"/>
     <path id="_161804400" class="fil2" d="M3.21946 5.28049c0.112096,0.000894382 0.203512,0.0967771 0.144512,0.114734 -0.0285705,0.00869538 -0.0880221,-0.00355268 -0.147911,-0.0015602 -0.0965187,0.00320487 -0.164452,0.0275172 -0.172596,0.00667308 -0.0135747,-0.0347517 0.0639036,-0.120737 0.175995,-0.119847z"/>
    </g>
    <path id="_162379328" class="fil1" d="M4.44442 5.35046c0,0 0.374736,0.139638 0.372933,0.74425 0,0 -0.676461,0.18222 -0.892598,-0.519656l0.149168 -0.179155c0,0 0.366264,-0.0485004 0.370498,-0.0454396z"/>
    <path id="_161804328" class="fil1" d="M1.987 5.35046c0,0 -0.374736,0.139638 -0.372933,0.74425 0,0 0.676461,0.18222 0.892598,-0.519656l-0.149168 -0.179155c0,0 -0.366264,-0.0485004 -0.370498,-0.0454396z"/>
    <path id="_161683280" class="fil1" d="M3.74747 4.66524c0,0 0.495746,0.0517549 0.681947,0.781978 0,0 -0.591992,0.335632 -1.06065,-0.122143 -0.0622092,-0.0607633 -0.284503,-0.278188 -0.298734,-0.470261 0.228823,-0.167553 0.426556,-0.214378 0.67744,-0.189574z"/>
    <path id="_161683520" class="fil1" d="M2.68395 4.66524c0,0 -0.495746,0.0517549 -0.681947,0.781978 0,0 0.591992,0.335632 1.06065,-0.122143 0.0622092,-0.0607633 0.284503,-0.278188 0.298734,-0.470261 -0.228823,-0.167553 -0.426556,-0.214378 -0.67744,-0.189574z"/>
    <path id="_161683448" class="fil3" d="M4.41158 5.42382c0,0 0.283917,0.152944 0.315717,0.586605 0,0 0.00411416,0.013858 -0.00175895,0.0165411 -0.00587311,0.00268315 -0.536808,0.098064 -0.710915,-0.457606l0.078169 -0.0939499c-0.228495,0.0296587 -0.57469,-0.0104841 -0.827761,-0.417488 -0.0211124,-0.0535238 -0.0368436,-0.0864669 -0.0493103,-0.11623 -0.0124617,0.0297631 -0.0282128,0.0627012 -0.0493252,0.116225 -0.253085,0.407013 -0.599266,0.447146 -0.827766,0.417483l0.078174 0.0939548c-0.174106,0.55567 -0.705041,0.460289 -0.710915,0.457606 -0.00587311,-0.00268315 -0.00175895,-0.0165411 -0.00175895,-0.0165411 0.0318003,-0.433661 0.315717,-0.586605 0.315717,-0.586605 0.000795006,0.00159001 0.0696972,0.00628055 0.140393,0.0107028 -0.0374299,-0.0126058 -0.0593671,-0.0229956 -0.0605596,-0.0239645 -0.00666315,-0.00540604 0.00322971,-0.0218676 0.00322971,-0.0218676 0.184968,-0.547412 0.601079,-0.649893 0.601079,-0.649893 0.212729,-0.00254899 0.426819,0.0472681 0.511736,0.118337 0.0849266,-0.0710636 0.298987,-0.120881 0.511711,-0.118332 0,0 0.416116,0.102481 0.601079,0.649893 0,0 0.00989286,0.0164616 0.00322971,0.0218676 -0.00119251,0.000968914 -0.0231049,0.0113537 -0.0605298,0.0239595 0.070686,-0.00442222 0.139568,-0.00910779 0.140363,-0.0106978z"/>
    <path id="_161683376" class="fil4" d="M4.41158 5.42382c0,0 0.283917,0.152944 0.315717,0.586605 0,0 0.000879476,0.0107226 -0.00480979,0.0133213 -0.00568926,0.00259371 -0.451678,0.0675904 -0.65358,-0.379387 0.0181411,-0.013843 0.0224341,-0.00483463 0.0487339,-0.0169138 0,0 0.201708,0.275788 0.54923,0.336198 0,0 -0.0209037,-0.334012 -0.237528,-0.510215 -0.0142406,-0.0115822 -0.022136,-0.0210528 -0.0247446,-0.0284463 0.00435266,-0.000481973 0.00683209,-0.000874507 0.00698115,-0.0011627zm-2.19331 -0.073707c0.0286202,-0.0330772 0.129035,-0.143166 0.362906,-0.347229 0,0 -0.215775,0.12332 -0.340854,0.232539 0.071327,-0.155473 0.203159,-0.339329 0.463673,-0.496631 0,0 -0.416116,0.102481 -0.601079,0.649893 0,0 -0.00469054,0.0135052 0.00176392,0.0187323 0.00645446,0.00522717 0.558711,0.237011 0.966961,-0.271028 -0.0187423,-0.0238403 -0.0272588,-0.0136741 -0.0570864,-0.0379566 0,0 -0.340119,0.278819 -0.796283,0.251679zm-0.198424 0.0737021c0,0 -0.283917,0.152944 -0.315717,0.586605 0,0 -0.000879476,0.0107226 0.00480979,0.0133213 0.00568926,0.00259371 0.451678,0.0675904 0.65358,-0.379387 -0.0181411,-0.013843 -0.0224341,-0.00483463 -0.0487339,-0.0169138 0,0 -0.201708,0.275788 -0.54923,0.336198 0,0 0.0209037,-0.334012 0.237528,-0.510215 0.0142406,-0.0115822 0.022136,-0.0210528 0.0247446,-0.0284463 -0.00435266,-0.000481973 -0.00683209,-0.000874507 -0.00698115,-0.0011627zm2.19334 -0.0736971c-0.0286202,-0.0330822 -0.129059,-0.143166 -0.36293,-0.347229 0,0 0.215809,0.123335 0.340884,0.232559 -0.071327,-0.155473 -0.203184,-0.339344 -0.463702,-0.49665 0,0 0.416116,0.102481 0.601079,0.649893 0,0 0.00469054,0.0135052 -0.00176392,0.0187323 -0.00645446,0.00522717 -0.558711,0.237011 -0.966961,-0.271028 0.0187423,-0.0238403 0.0272588,-0.0136741 0.0570864,-0.0379566 0,0 0.340143,0.278824 0.796308,0.251679z"/>
    <path id="_161683208" class="fil5" d="M4.41158 5.42382c0,0 0.00669793,0.00360734 0.0181212,0.0112692 -0.0569175,0.0280786 -0.180491,0.097269 -0.256136,0.20057 0.16956,0.313203 0.510797,0.377986 0.555083,0.385171 -0.000178876,0.00271296 -0.000988789,0.00516754 -0.00311543,0.00613646 -0.00583833,0.00266824 -0.530294,0.0967871 -0.707625,-0.447633l-4.96879e-006 -1.49064e-005 -0.00121238 -0.00369181 -2.48439e-005 -6.95631e-005 -7.45318e-005 -0.000223596 -3.47815e-005 -0.000109313 -6.45943e-005 -0.000188814 -2.48439e-005 -6.45943e-005 -4.47191e-005 -0.00016397 -2.48439e-005 -6.45943e-005 -0.000183845 -0.000546567 -4.47191e-005 -0.000149064 -0.00020372 -0.00061613 -9.93758e-006 -2.48439e-005 -7.95006e-005 -0.000243471 -3.97503e-005 -0.000114282 -5.46567e-005 -0.000178876 -2.98127e-005 -6.95631e-005 -4.47191e-005 -0.00016397 -2.48439e-005 -6.45943e-005 -6.45943e-005 -0.000193783 -3.47815e-005 -9.93758e-005 -0.000188814 -0.000571411 -4.47191e-005 -0.000149064 -0.00020372 -0.000621099 -9.93758e-006 -1.49064e-005 -8.94382e-005 -0.000278252 -1.98752e-005 -5.46567e-005 -0.000402472 -0.00122729 0.0781591 -0.0939399c-0.135146,0.0175398 -0.311444,0.010673 -0.485317,-0.0820844 -0.138604,-0.0739406 -0.323602,-0.243138 -0.391744,-0.412012 -0.068142,0.168869 -0.253165,0.338067 -0.391769,0.412007 -0.173878,0.0927623 -0.35017,0.0996242 -0.485317,0.0820844l0.0781591 0.0939399c-0.000993758,0.00317506 -0.00205211,0.00622092 -0.00307568,0.00934132l0 4.96879e-006 -4.47191e-005 0.000149064 -5.96255e-005 0.00016397 -4.47191e-005 0.000149064 -5.96255e-005 0.00016397c-0.177341,0.544425 -0.701787,0.450302 -0.707625,0.447633 -0.00212664,-0.000968914 -0.00293655,-0.0034235 -0.00311543,-0.00613646 0.0442918,-0.00718487 0.385548,-0.0719729 0.555103,-0.385176 -0.0756399,-0.103301 -0.199239,-0.172487 -0.256156,-0.200565 0.0114232,-0.00766187 0.0181212,-0.0112692 0.0181212,-0.0112692 0.000799975,0.00158504 0.0696773,0.00628055 0.140353,0.0106978 -0.0374299,-0.0126108 -0.0593224,-0.0229956 -0.0605149,-0.0239595 -0.00241483,-0.0019577 -0.0026434,-0.0053812 -0.00197261,-0.00893885 0.0653446,0.00602217 0.616691,0.0418173 0.934649,-0.427574 0.0207944,-0.0306972 0.0877041,-0.141765 0.10589,-0.162102 0.0357206,0.0127698 0.0565945,0.0262601 0.0774783,0.0414546 0.0208888,-0.0151946 0.0417329,-0.0286799 0.0774535,-0.0414496 0.0181858,0.0203373 0.0850955,0.131405 0.10589,0.162102 0.317958,0.469392 0.869305,0.433596 0.934649,0.427574 0.000670787,0.00355765 0.000442222,0.00698115 -0.00197261,0.00893885 -0.00119251,0.000963945 -0.0230651,0.0113487 -0.06049,0.0239595 0.0706761,-0.00442222 0.139529,-0.00911276 0.140329,-0.0106978z"/>
    <path id="_161683112" class="fil1" d="M4.14945 5.52355c0,0 0.0212714,0.133631 0.10912,0.23401 0,0 -0.113209,-0.0422198 -0.185177,-0.189361l0.0188218 -0.0386721 0.0572355 -0.00597745z"/>
    <path id="_161683040" class="fil1" d="M4.49561 5.41593c0,0 -0.351959,0.00820347 -0.501604,0.312621 0,0 -0.147439,-0.0368784 -0.183174,-0.188789 0,0 0.130793,-0.430546 0.554964,-0.318897 0.0652203,0.0257234 0.131742,0.124225 0.129815,0.195065z"/>
    <path id="_161682056" class="fil6" d="M4.40016 5.35297c-0.0426869,0.00822335 -0.0849017,0.0200988 -0.125472,0.035348 -0.129725,0.0487637 -0.237906,0.130381 -0.311916,0.244489 -0.00307568,-0.00196764 -0.00599236,-0.00393528 -0.00869041,-0.00586814 -0.0307916,-0.0220217 -0.0528431,-0.050314 -0.0650812,-0.0850508 0.0684004,-0.201663 0.239396,-0.298316 0.44891,-0.267112 0.0197907,0.0094407 0.0462247,0.0513276 0.062249,0.0781938z"/>
    <path id="_161682224" class="fil7" d="M4.17503 5.43473c-0.0857265,0.04855 -0.158142,0.114635 -0.212272,0.198081 -0.00307071,-0.00196267 -0.00597745,-0.00394025 -0.00868048,-0.00586317 -0.0307916,-0.0220266 -0.0528431,-0.0503239 -0.0650862,-0.0850508 0.0212217,-0.062567 0.0523363,-0.115018 0.091391,-0.156686 0.040595,0.0204317 0.102203,0.0403615 0.194647,0.049519z"/>
    <path id="_161682944" class="fil8" d="M4.30111 5.28208c-0.0516804,-0.00252911 -0.150311,-0.000223596 -0.228276,0.0439241 -0.0981932,0.0556057 0.0622341,0.00722462 0.227615,0.0107326 0.0963896,0.00205211 0.059541,-0.0517698 0.000660849,-0.0546567z"/>
    <path id="_161682872" class="fil1" d="M2.84497 5.17528c0.151046,-0.0675606 0.29287,-0.209852 0.34307,-0.378751l-0.109989 -0.0328387c-0.0392485,0.149739 -0.113413,0.297054 -0.233081,0.41159z"/>
    <path id="_161682632" class="fil1" d="M2.28198 5.52355c0,0 -0.0212714,0.133631 -0.10912,0.23401 0,0 0.113209,-0.0422198 0.185177,-0.189361l-0.0188218 -0.0386721 -0.0572355 -0.00597745z"/>
    <path id="_161682800" class="fil1" d="M1.93581 5.41593c0,0 0.351959,0.00820347 0.501604,0.312621 0,0 0.147439,-0.0368784 0.183174,-0.188789 0,0 -0.130793,-0.430546 -0.554964,-0.318897 -0.0652203,0.0257234 -0.131742,0.124225 -0.129815,0.195065z"/>
    <path id="_161682728" class="fil6" d="M2.03127 5.35297c0.0426869,0.00822335 0.0849017,0.0200988 0.125472,0.035348 0.129725,0.0487637 0.237906,0.130381 0.311916,0.244489 0.00307568,-0.00196764 0.00599236,-0.00393528 0.00869041,-0.00586814 0.0307916,-0.0220217 0.0528431,-0.050314 0.0650812,-0.0850508 -0.0684004,-0.201663 -0.239396,-0.298316 -0.44891,-0.267112 -0.0197907,0.0094407 -0.0462247,0.0513276 -0.062249,0.0781938z"/>
    <path id="_161682656" class="fil7" d="M2.25639 5.43472c0.0857265,0.04855 0.158142,0.114635 0.212272,0.198081 0.00307071,-0.00196267 0.00597745,-0.00394025 0.00868048,-0.00586317 0.0307916,-0.0220266 0.0528431,-0.0503239 0.0650862,-0.0850508 -0.0212217,-0.062567 -0.0523363,-0.115018 -0.091391,-0.156686 -0.040595,0.0204317 -0.102203,0.0403615 -0.194647,0.049519z"/>
    <path id="_161682320" class="fil8" d="M2.13032 5.28207c0.0516804,-0.00252911 0.150311,-0.000223596 0.228276,0.0439241 0.0981932,0.0556057 -0.0622341,0.00722462 -0.227615,0.0107326 -0.0963896,0.00205211 -0.059541,-0.0517698 -0.000660849,-0.0546567z"/>
    <path id="_161683304" class="fil1" d="M3.58645 5.17528c-0.151046,-0.0675606 -0.29287,-0.209852 -0.34307,-0.378751l0.109989 -0.0328387c0.0392485,0.149739 0.113413,0.297054 0.233081,0.41159z"/>
   </g>
  </g>
 </g>
</svg>
