<?xml version="1.0" encoding="UTF-8"?>
<!DOCTYPE svg PUBLIC "-//W3C//DTD SVG 1.1//EN" "http://www.w3.org/Graphics/SVG/1.1/DTD/svg11.dtd">
<!-- Creator: CorelDRAW -->
<svg xmlns="http://www.w3.org/2000/svg" xml:space="preserve" width="129.436mm" height="197.988mm" style="shape-rendering:geometricPrecision; text-rendering:geometricPrecision; image-rendering:optimizeQuality; fill-rule:evenodd; clip-rule:evenodd"
viewBox="0 0 15.636 23.9171"
 xmlns:xlink="http://www.w3.org/1999/xlink">
 <defs>
  <style type="text/css">
   <![CDATA[
    .fil0 {fill:none}
    .fil4 {fill:#4B3446}
    .fil1 {fill:#501D33}
    .fil2 {fill:#634C54}
    .fil3 {fill:#896E6B}
   ]]>
  </style>
 </defs>
 <g id="Layer_x0020_1">
  <metadata id="CorelCorpID_0Corel-Layer"/>
  <g id="_282140736">
   <rect id="_279795360" class="fil0" width="15.636" height="23.9171"/>
   <g id="_245073144">
    <path id="_245059176" class="fil1" d="M7.23554 14.1026c0,0 0.163794,-0.326875 0.626956,-0.326875 0.46315,0 0.643904,0.361025 0.643904,0.361025 0,0 -0.463162,-0.278083 -1.27086,-0.0341504z"/>
    <path id="_245053944" class="fil1" d="M6.82819 11.2705c-0.563487,0.237035 -1.95666,1.0091 -2.01694,2.86611 0,0 0.0271077,0.460662 0.529119,0.0334014 0,0 0.320859,0.217502 0.569648,-0.182566 0,0 0.433059,0.254853 0.679589,-0.286866 0,0 0.248221,0.268758 0.540656,-0.137797 0.110376,0.1176 0.451577,0.167092 0.687731,-0.0919777 0.236141,0.259069 0.577379,0.209589 0.687755,0.0919656 0.29241,0.406567 0.540668,0.13781 0.540668,0.13781 0.246506,0.541719 0.679589,0.286866 0.679589,0.286866 0.248813,0.400068 0.569648,0.182566 0.569648,0.182566 0.501988,0.427272 0.529107,-0.0334135 0.529107,-0.0334135 -0.0549644,-1.69371 -1.21875,-2.4849 -1.8505,-2.79078 -0.681099,-0.329738 -1.44421,-0.370472 -2.14604,-0.0753193l-3.62402e-005 0z"/>
    <path id="_245059128" class="fil2" d="M10.3332 13.8729c-0.31105,0.209662 -0.358972,0.067274 -0.514792,-0.201109 -0.339535,0.258562 -0.580194,0.0507242 -0.677874,-0.301797 -0.256653,0.242942 -0.447241,0.188244 -0.580061,-0.114761 -0.182155,0.191965 -0.384666,0.160242 -0.494691,0.117624 -0.157875,-0.0611977 -0.205627,-0.243595 -0.247847,-0.456869 -0.0422078,0.213274 -0.0900207,0.395671 -0.247895,0.456869 -0.110025,0.0426185 -0.312536,0.0743408 -0.494691,-0.117624 -0.13282,0.303005 -0.323408,0.357703 -0.580061,0.114761 -0.0976795,0.352521 -0.338339,0.560359 -0.677874,0.301797 -0.155821,0.268383 -0.203743,0.410771 -0.514792,0.201109 -0.274991,0.229666 -0.315326,0.276803 -0.234064,-0.181781 0.121042,-0.683056 0.470181,-1.2443 1.00954,-1.6757 0.218819,-0.175028 0.460795,-0.321874 0.711263,-0.43661 0.10024,-0.0459405 0.214723,-0.0945749 0.320714,-0.125174l0.613837 -0.138957c0.00190865,0.0315773 0.186782,0.0198476 0.18799,0l0.613837 0.138957c0.105991,0.0305988 0.220473,0.0792332 0.320714,0.125174 0.250468,0.114737 0.492444,0.261582 0.711263,0.43661 0.539363,0.431416 0.888502,0.992656 1.00954,1.6757 0.0812627,0.458584 0.0409273,0.411447 -0.234064,0.181781z"/>
    <path id="_245057208" class="fil3" d="M7.85026 11.6113c0.0303814,-0.0925092 0.0551818,-0.18892 0.0617292,-0.296675l0.613837 0.138957c0.105991,0.0305988 0.220486,0.0792332 0.320726,0.125162 0.250456,0.114761 0.492444,0.261594 0.711239,0.436634 0.539375,0.431392 0.888526,0.992656 1.00956,1.67569 0.00468707,0.0264433 0.00893926,0.0511833 0.0128049,0.0743408l-0.00488035 0.000676484c0,0 -0.512715,-1.8041 -2.56362,-2.12518 -0.0596997,-0.0093379 -0.113009,-0.0192436 -0.161378,-0.0296083l-1.20801e-005 0zm-0.0645318 0c-0.0303814,-0.0925092 -0.0551818,-0.18892 -0.0617292,-0.296675l-0.613837 0.138957c-0.105991,0.0305988 -0.220486,0.0792332 -0.320726,0.125162 -0.250456,0.114761 -0.492444,0.261594 -0.711239,0.436634 -0.539375,0.431392 -0.888526,0.992656 -1.00956,1.67569 -0.00468707,0.0264433 -0.00893926,0.0511833 -0.0128049,0.0743408l0.00488035 0.000676484c0,0 0.512715,-1.8041 2.56362,-2.12518 0.0596997,-0.0093379 0.113009,-0.0192436 0.161378,-0.0296083l1.20801e-005 0z"/>
    <path id="_245050560" class="fil4" d="M5.30269 13.8729c0.31105,0.209674 0.358972,0.067274 0.514805,-0.201097 0.339523,0.258562 0.580158,0.0507122 0.677861,-0.301797 0.256665,0.242942 0.447253,0.188244 0.580073,-0.114761 0.182143,0.191965 0.384666,0.160254 0.494679,0.117624 0.157887,-0.0611856 0.205639,-0.243583 0.247847,-0.456844 0.0421957,0.213262 0.0900087,0.395659 0.247895,0.456844 0.110013,0.0426306 0.312536,0.0743408 0.494679,-0.117624 0.13282,0.303005 0.323408,0.357703 0.580073,0.114761 0.0977037,0.352509 0.338339,0.560359 0.677861,0.301797 0.155833,0.268371 0.203755,0.410771 0.514805,0.201097 0.26738,0.223312 0.31291,0.274024 0.240502,-0.144888 -0.0355758,0.0124304 -0.113843,-0.0561724 -0.24804,-0.168263 -0.187978,0.209686 -0.454235,0.0710913 -0.514792,-0.201085 -0.339535,0.25855 -0.58017,0.0507122 -0.677861,-0.301809 -0.256677,0.242942 -0.447253,0.188244 -0.580073,-0.114761 -0.182155,0.191965 -0.384678,0.160266 -0.494691,0.117624 -0.092316,-0.0357812 -0.147015,-0.113009 -0.184958,-0.213624 -0.0442372,-0.117418 -0.0624298,-0.131745 -0.1086,-0.00596756 -0.0380039,0.103514 -0.0929924,0.18311 -0.187108,0.219592 -0.110013,0.0426185 -0.312536,0.0743408 -0.494691,-0.117624 -0.13282,0.303005 -0.323396,0.357703 -0.580073,0.114761 -0.0976916,0.352521 -0.338327,0.560359 -0.677861,0.301809 -0.155833,0.268359 -0.203743,0.410771 -0.514792,0.201085 -0.134198,0.112091 -0.212464,0.180694 -0.24804,0.168263 -0.072408,0.418913 -0.0268782,0.368201 0.240502,0.144888z"/>
    <path id="_245063760" class="fil1" d="M10.3045 14.0463c0,0 -0.00794869,-0.404791 -0.294283,-1.07691 0,0 0.334062,0.397157 0.501082,1.06165l-0.132301 0.0711758 -0.0744978 -0.0559066zm-4.86732 -0.0306109c0,0 0.00794869,-0.404803 0.294295,-1.07693 0,0 -0.334062,0.397169 -0.501094,1.06165l0.132301 0.0711879 0.0744978 -0.0559066z"/>
   </g>
  </g>
 </g>
</svg>
