<?xml version="1.0" encoding="UTF-8"?>
<!DOCTYPE svg PUBLIC "-//W3C//DTD SVG 1.1//EN" "http://www.w3.org/Graphics/SVG/1.1/DTD/svg11.dtd">
<!-- Creator: CorelDRAW -->
<svg xmlns="http://www.w3.org/2000/svg" xml:space="preserve" width="129.436mm" height="197.989mm" style="shape-rendering:geometricPrecision; text-rendering:geometricPrecision; image-rendering:optimizeQuality; fill-rule:evenodd; clip-rule:evenodd"
viewBox="0 0 64.7191 98.9957"
 xmlns:xlink="http://www.w3.org/1999/xlink">
 <defs>
  <style type="text/css">
   <![CDATA[
    .fil0 {fill:none}
    .fil4 {fill:#4B3446}
    .fil1 {fill:#501D33}
    .fil3 {fill:#634C54}
    .fil5 {fill:#896E6B}
    .fil2 {fill:#FFCFA5}
   ]]>
  </style>
 </defs>
 <g id="Layer_x0020_1">
  <metadata id="CorelCorpID_0Corel-Layer"/>
  <g id="_277846608">
   <rect id="_254763072" class="fil0" width="64.719" height="98.9957"/>
   <g>
    <path id="_102352272" class="fil1" d="M30.0878 55.35c0,0 0.621958,-1.43692 2.38053,-1.43692 1.75862,0 2.44488,1.58707 2.44488,1.58707 0,0 -1.75857,-1.22247 -4.82541,-0.150152z"/>
    <path id="_102352200" class="fil2" d="M32.3548 52.4005c1.21607,0.00900012 2.20788,0.973863 1.56777,1.15457 -0.309954,0.0875011 -0.954913,-0.0357505 -1.60467,-0.0157002 -1.04706,0.0322504 -1.78407,0.276904 -1.87242,0.0671509 -0.147252,-0.349705 0.693259,-1.21497 1.90933,-1.20602z"/>
   </g>
   <g>
    <path id="_260325768" class="fil1" d="M34.3453 44.9851c4.36836,0.265053 7.85965,3.32669 7.56385,8.26466 -0.123152,2.05543 -0.810461,4.74276 -0.455056,9.27832 -4.62031,-1.17527 -5.84353,-6.06308 -5.37157,-9.08907 -1.50877,-0.285104 -2.97094,-0.842011 -3.9316,-2.21463 -1.34367,1.95173 -3.5687,2.70734 -3.5687,2.70734 0.814261,1.45247 1.78897,8.30481 -4.80641,8.98157 1.52757,-1.87747 -1.20012,-9.60233 -0.116052,-12.7264 0.860911,-2.48073 3.42279,-4.68291 6.09793,-5.12307l4.58761 -0.078751z"/>
    <path id="_260325624" class="fil3" d="M30.5326 46.0129c-2.92314,0.198353 -5.09177,2.16593 -6.03803,4.48801 -1.15732,2.83969 1.52667,7.6922 0.362155,11.3785 5.08962,-1.49687 3.05129,-6.95459 2.63583,-8.27261 0,0 3.57035,-1.57862 4.48661,-3.5992 0,0 1.90488,2.62058 5.40317,2.93469 0,0 -0.301654,0.402805 -0.520307,0.444906 -0.564457,4.87391 3.01154,7.57775 3.68715,7.7101 -0.286804,-2.36108 -0.109951,-4.79591 0.225803,-6.55554 0.876012,-4.59091 -1.93163,-8.29071 -6.03318,-8.84327l-1.67147 -0.427706 -2.53773 0.74206z"/>
    <path id="_260327424" class="fil4" d="M24.8764 61.8135c-0.00665009,0.0219503 -0.0127502,0.0440506 -0.0197003,0.0659509 4.92961,-1.44977 3.17254,-6.61529 2.67969,-8.13631 0.0712009,0.883162 0.304704,5.64617 -2.65998,8.07036z"/>
    <path id="_260325288" class="fil4" d="M32.054 48.7507c0,0 -1.03076,3.71625 -5.27927,4.53666 0,0 3.4807,-2.25668 4.1185,-5.97553l1.08621 0.0622508 0.074551 1.37662z"/>
    <path id="_260325144" class="fil4" d="M31.8398 49.1191c0,0 1.78907,3.36144 6.09798,3.10494 0,0 -3.8652,-1.33227 -5.27237,-4.79376l-1.04416 0.330304 0.218553 1.35852z"/>
    <path id="_260325024" class="fil5" d="M30.095 46.0565c-2.70164,0.354855 -4.70211,2.23978 -5.60052,4.44441 -1.14081,2.79929 1.45097,7.5545 0.409355,11.2205 3.14134,-4.66296 -4.43411,-11.4468 5.19117,-15.6649z"/>
    <path id="_260324400" class="fil4" d="M30.5326 46.0129c-0.716509,0.0486006 -1.38742,0.203603 -2.00638,0.444006 0.717859,0.582958 2.30968,1.68012 4.1213,1.67602 1.99353,-0.00450006 2.67429,-1.29517 3.8262,-1.98763 -0.543807,-0.213203 -1.12341,-0.364805 -1.73192,-0.446756l-1.67147 -0.427706 -2.53773 0.74206z"/>
    <path id="_260323752" class="fil4" d="M37.3378 53.3928c0,0 -0.73366,4.37586 2.82829,7.04249 -0.679009,-6.39743 1.25087,-6.90919 0.0122002,-9.79053 -0.106901,2.27233 -0.993413,2.63508 -2.84049,2.74804z"/>
    <path id="_260323608" class="fil5" d="M35.539 47.6349c0,0 2.72684,0.76821 4.0842,2.96619 0,0 -0.179352,-1.71337 -1.15522,-2.76739 -0.975813,-1.05396 -2.92899,-0.198803 -2.92899,-0.198803z"/>
    <path id="_260322528" class="fil1" d="M27.1913 58.0573c0,0 -1.01611,2.67694 -2.60883,3.5018l0.0721509 0.79776c0,0 2.07923,-0.842811 2.53668,-4.29956z"/>
    <path id="_260323368" class="fil1" d="M39.2443 56.136c0,0 -0.238103,3.45485 1.46547,5.57582l0.397555 -1.37942c0,0 -1.60067,-1.85177 -1.86302,-4.19641z"/>
   </g>
  </g>
 </g>
</svg>
