<?xml version="1.0" encoding="UTF-8"?>
<!DOCTYPE svg PUBLIC "-//W3C//DTD SVG 1.1//EN" "http://www.w3.org/Graphics/SVG/1.1/DTD/svg11.dtd">
<!-- Creator: CorelDRAW -->
<svg xmlns="http://www.w3.org/2000/svg" xml:space="preserve" width="129.436mm" height="197.989mm" style="shape-rendering:geometricPrecision; text-rendering:geometricPrecision; image-rendering:optimizeQuality; fill-rule:evenodd; clip-rule:evenodd"
viewBox="0 0 8.25062 12.6203"
 xmlns:xlink="http://www.w3.org/1999/xlink">
 <defs>
  <style type="text/css">
   <![CDATA[
    .fil0 {fill:none}
    .fil3 {fill:#4B3446}
    .fil1 {fill:#501D33}
    .fil2 {fill:#634C54}
    .fil4 {fill:#896E6B}
    .fil5 {fill:#FFCFA5}
   ]]>
  </style>
 </defs>
 <g id="Layer_x0020_1">
  <metadata id="CorelCorpID_0Corel-Layer"/>
  <g id="_283268912">
   <rect id="_283296368" class="fil0" width="8.25062" height="12.6203"/>
   <g id="_161808864">
    <path id="_166336656" class="fil1" d="M5.71288 7.33894c0.176491,1.19901 -0.436032,2.59267 -0.0850328,3.6629 -1.3307,-1.01739 0.145059,-3.09234 -1.58079,-4.45364l0.039922 -0.717979c0.736394,-0.277357 1.48702,0.565283 1.62589,1.50873l6.37427e-006 -6.37427e-006z"/>
    <path id="_161682344" class="fil1" d="M2.53775 7.33894c-0.176491,1.19901 0.436032,2.59267 0.0850328,3.6629 1.3307,-1.01739 -0.139042,-3.09638 1.57778,-4.45768l-0.0369198 -0.713944c-0.736394,-0.277357 -1.48702,0.565283 -1.62589,1.50873z"/>
    <path id="_161809944" class="fil2" d="M2.78782 10.6909c0.143816,-0.158318 0.236224,-0.309681 0.302089,-0.56267 0.0704357,-0.27053 0.0668852,-0.568604 0.072979,-0.853005 0.00691608,-0.322991 0.00319351,-0.645012 0.0316737,-0.966652 0.0313232,-0.353638 0.0938994,-0.676055 0.231443,-0.983346 0.157075,-0.350929 0.437817,-0.636056 0.693081,-0.85261l0.0039648 -0.192796 0.0114992 0.198833c0.25527,0.216553 0.53301,0.495644 0.690085,0.846573 0.137544,0.307291 0.20012,0.629708 0.231443,0.983346 0.0284802,0.321639 0.0247577,0.643661 0.0316801,0.966652 0.0060938,0.284407 0.00253696,0.582481 0.0729726,0.853005 0.0658653,0.252988 0.158273,0.404352 0.302089,0.56267 -0.106106,-0.604663 -0.0119581,-1.22555 0.0629714,-1.82047 0.0584521,-0.464117 0.143619,-0.972981 0.0800417,-1.44075 -0.116369,-0.856185 -0.816416,-1.63786 -1.48953,-1.51448 -0.672868,-0.123374 -1.35511,0.658296 -1.47148,1.51448 -0.063577,0.467776 0.0215897,0.97664 0.0800417,1.44075 0.0749295,0.59493 0.169077,1.21582 0.0629714,1.82047l-1.27485e-005 0z"/>
    <path id="_161809800" class="fil3" d="M5.31629 9.11983c0.0361549,-0.261262 0.0994768,-0.752795 0.118453,-1.11749 0,0 -0.0390105,0.298048 -0.112723,0.611095 -0.000382456,-0.148565 -0.00280468,-0.307813 -0.00850328,-0.479237 -0.0358043,-1.07773 -0.576304,-1.6169 -0.938987,-1.84571 -0.259611,-0.163793 -0.260491,-0.187875 -0.534986,0.000152982 -0.359942,0.246569 -0.867666,0.798626 -0.90245,1.84556 -0.00569222,0.171436 -0.00811445,0.330691 -0.0084969,0.479262 -0.0737184,-0.313059 -0.112729,-0.61112 -0.112729,-0.61112 0.0189762,0.364723 0.0823173,0.856268 0.118466,1.11752 0.0171085,0.743074 0.0544235,1.16423 -0.145187,1.5632l-0.0013386 0.0078531c0.143816,-0.158318 0.236224,-0.309681 0.302089,-0.56267 0.0704357,-0.27053 0.0668852,-0.568604 0.072979,-0.853005 0.00691608,-0.322991 0.00319351,-0.645012 0.0316737,-0.966652 0.0313232,-0.353638 0.0938994,-0.676055 0.231443,-0.983346 0.155424,-0.347245 0.445166,-0.628089 0.698543,-0.843743 0.253415,0.215661 0.544662,0.496498 0.700086,0.843743 0.137544,0.307291 0.20012,0.629708 0.231443,0.983346 0.0284802,0.321639 0.0247577,0.643661 0.0316801,0.966652 0.0060938,0.284407 0.00253696,0.582481 0.0729726,0.853005 0.0658653,0.252988 0.158273,0.404352 0.302089,0.56267l-0.0013386 -0.0078531c-0.19961,-0.398978 -0.162276,-0.820139 -0.145174,-1.56324l-6.37427e-006 0z"/>
    <path id="_163721400" class="fil4" d="M4.06804 5.93703l-0.000694795 -0.0192949c-0.677445,-0.137098 -1.30535,0.64971 -1.42253,1.51191 -0.063577,0.467776 0.0215897,0.97664 0.0800417,1.44075 0.0715575,0.568171 0.160619,1.16003 0.0760705,1.7388 0.0107661,-0.0300228 0.0203977,-0.0660438 0.0289328,-0.111964 0.191872,-1.03197 -0.463524,-2.88264 0.202364,-3.90423 -0.194332,0.460496 -0.197156,0.99916 -0.197156,0.99916 0.0994705,-0.846739 0.379014,-1.4688 1.23297,-1.65512zm0.114558 0l0.000694795 -0.0192949c0.677445,-0.137098 1.30535,0.64971 1.42253,1.51191 0.063577,0.467776 -0.0215897,0.97664 -0.0800417,1.44075 -0.0715575,0.568171 -0.160619,1.16003 -0.0760705,1.7388 -0.0107661,-0.0300228 -0.0203977,-0.0660438 -0.0289328,-0.111964 -0.191866,-1.03197 0.463524,-2.88264 -0.202364,-3.90423 0.194332,0.460496 0.197156,0.99916 0.197156,0.99916 -0.0994705,-0.846745 -0.379001,-1.4688 -1.23297,-1.65512z"/>
    <path id="_161806992" class="fil1" d="M2.71765 10.7321c0,0 0.325049,-0.621536 0.210676,-1.61438 0,0 0.25884,1.04128 -0.0722268,1.57401l-0.0763064 0.06867 -0.0621428 -0.0283081 0 6.37427e-006z"/>
    <path id="_161809656" class="fil1" d="M5.53298 10.7321c0,0 -0.325049,-0.621536 -0.210676,-1.61438 0,0 -0.25884,1.04128 0.0722332,1.57401l0.0763 0.06867 0.0621428 -0.0283081 0 6.37427e-006z"/>
    <path id="_161809584" class="fil1" d="M3.84626 7.13868c0,0 0.0792895,-0.183184 0.303479,-0.183184 0.224196,0 0.311683,0.202326 0.311683,0.202326 0,0 -0.224189,-0.155845 -0.615162,-0.0191419z"/>
    <path id="_102350952" class="fil5" d="M4.13525 6.76267c0.155029,0.00114737 0.281469,0.124152 0.199865,0.147188 -0.0395141,0.011155 -0.121736,-0.0045576 -0.204569,-0.00200152 -0.133484,0.0041114 -0.22744,0.0353007 -0.238704,0.00856064 -0.0187722,-0.0445816 0.0883792,-0.154888 0.243408,-0.153747z"/>
   </g>
  </g>
 </g>
</svg>
