<?xml version="1.0" encoding="UTF-8"?>
<!DOCTYPE svg PUBLIC "-//W3C//DTD SVG 1.1//EN" "http://www.w3.org/Graphics/SVG/1.1/DTD/svg11.dtd">
<!-- Creator: CorelDRAW -->
<svg xmlns="http://www.w3.org/2000/svg" xml:space="preserve" width="129.436mm" height="197.988mm" style="shape-rendering:geometricPrecision; text-rendering:geometricPrecision; image-rendering:optimizeQuality; fill-rule:evenodd; clip-rule:evenodd"
viewBox="0 0 20.5265 31.3979"
 xmlns:xlink="http://www.w3.org/1999/xlink">
 <defs>
  <style type="text/css">
   <![CDATA[
    .fil0 {fill:none}
    .fil5 {fill:#4B3446}
    .fil1 {fill:#501D33}
    .fil3 {fill:#634C54}
    .fil4 {fill:#896E6B}
    .fil2 {fill:#FFCFA5}
   ]]>
  </style>
 </defs>
 <g id="Layer_x0020_1">
  <metadata id="CorelCorpID_0Corel-Layer"/>
  <g id="_279109072">
   <rect id="_261223248" class="fil0" width="20.5265" height="31.3979"/>
   <g id="_243969408">
    <path id="_243960480" class="fil1" d="M9.52771 17.746c0,0 0.197263,-0.45574 0.755037,-0.45574 0.557774,0 0.775431,0.503363 0.775431,0.503363 0,0 -0.557758,-0.387723 -1.53047,-0.0476229z"/>
    <path id="_243968352" class="fil2" d="M10.2735 16.8016c0.385693,0.00285452 0.700262,0.308875 0.497242,0.366188 -0.0983066,0.0277523 -0.302865,-0.0113388 -0.508945,-0.00497955 -0.332108,0.0102287 -0.565861,0.0878241 -0.593883,0.0212979 -0.0467031,-0.110914 0.219877,-0.385345 0.605587,-0.382506z"/>
    <g>
     <g>
      <path id="_122472064" class="fil1" d="M10.3053 15.6505c0,0 -0.165562,-0.757225 -1.30466,-0.818122 -1.13911,-0.0608965 -1.81936,1.2021 -2.58285,1.02514 -0.596484,-0.138238 -0.585288,-0.737704 -0.416887,-1.08773 0.0666372,-0.138571 0.103698,-0.212059 -0.093216,-0.0814966 -0.2057,0.136414 -0.443402,0.388627 -0.532892,0.784787 -0.169574,0.750914 0.240953,1.54687 1.0268,1.64547 0,0 0.582481,0.401647 1.22077,0.274177 0,0 0.636162,0.379509 1.42707,0.19896 0.894322,-0.204178 1.32432,-0.96616 1.25588,-1.94119l-1.58585e-005 0z"/>
      <path id="_122469304" class="fil3" d="M5.69637 15.3516c0.00229948,0.259587 0.523773,1.24611 1.72234,0.405279 0,0 -0.671003,0.837279 -1.13298,1.01201 -0.521331,-0.00537602 -0.983446,-0.969316 -0.589364,-1.41729zm4.25747 0.0270704c-0.0542676,-0.0554412 -0.388627,-0.329919 -1.01935,-0.35534 -1.04277,-0.0420249 -1.5406,1.38127 -2.44087,1.84737 0.33926,0.377051 1.08494,0.266834 1.07728,0.263805 0.941199,-0.180644 1.0776,-2.02524 2.38294,-1.75583zm0.112088 0.148102c-0.732074,-0.0911385 -1.08973,0.388088 -1.39458,0.866205 -0.252498,0.396208 -0.468903,0.79167 -0.831871,0.861336 0,0 1.03927,0.421882 1.72933,-0.183213 0.690065,-0.605143 0.497115,-1.54433 0.497115,-1.54433z"/>
      <path id="_122458072" class="fil4" d="M5.69637 15.3516c0.0022519,0.255067 0.505774,1.21176 1.66028,0.447446 -0.179375,0.176267 -0.600385,0.518952 -1.06696,0.401473 -0.548639,-0.138143 -0.600813,-0.706225 -0.605571,-0.834266 0.00402805,-0.00491612 0.00802438,-0.0098481 0.0122427,-0.0146532z"/>
      <path id="_122473240" class="fil4" d="M10.0661 15.5277c-0.965431,0.0410575 -1.21576,1.34469 -1.95896,1.60362 0.215881,-0.16228 0.380476,-0.450095 0.564212,-0.738401 0.304847,-0.478117 0.662503,-0.957343 1.39458,-0.866205l0.000126868 0.000681914 4.75754e-005 0.000301311z"/>
      <path id="_122469592" class="fil4" d="M6.78429 16.6797c1.30333,-0.549971 1.36368,-2.06249 3.11654,-1.31081 0.017476,0.00291796 0.0350948,0.00607379 0.0530148,0.00976881 -0.0542676,-0.0554412 -0.388627,-0.329919 -1.01935,-0.35534 -0.925103,-0.0372832 -1.42139,1.0786 -2.15022,1.65638l1.58585e-005 0z"/>
      <path id="_122459944" class="fil4" d="M9.84176 15.34c0,0 -0.749978,-0.312491 -1.49996,0.52677 0,0 0.232136,-0.616053 1.02676,-0.758906l0.200911 0.0899491 0.27229 0.142187z"/>
      <path id="_122461144" class="fil5" d="M6.81108 16.6506c0,0 0.788752,0.142599 1.41262,-0.574853 0,0 -0.178249,0.530291 -0.614959,0.766471 -0.43671,0.23618 -0.797664,-0.191618 -0.797664,-0.191618z"/>
      <path id="_122461360" class="fil5" d="M6.60722 16.5766c-0.111025,0.0850647 -0.221162,0.154303 -0.321483,0.192252 -0.515542,-0.00531258 -0.973027,-0.947939 -0.60205,-1.40209 -0.0289258,0.185306 -0.104031,1.03762 0.923533,1.20984zm3.44875 -0.973186c0.0995911,0.532495 -0.0569636,1.09043 -0.487156,1.46767 -0.690017,0.605095 -1.72933,0.187669 -1.72933,0.187669 1.14996,-0.141124 2.03393,-1.2437 2.21647,-1.65534l1.58585e-005 0zm-3.23524 1.04682c0.257018,0.108773 0.888898,0.281139 1.58412,-0.237274 -0.23396,0.342669 -0.475595,0.652734 -0.833948,0.721512 0.00765963,0.00302896 -0.738021,0.113245 -1.07728,-0.263805 0.114958,-0.0595168 0.223303,-0.134733 0.327112,-0.220433z"/>
      <path id="_122465200" class="fil1" d="M10.0507 15.4741c0,0 -0.247186,0.628217 -0.797585,1.12049 0,0 0.866633,-0.521363 0.964939,-0.957708l-0.0158426 -0.1004c0,0 -0.160424,-0.0712996 -0.151512,-0.0623872z"/>
     </g>
     <g>
      <path id="_122465992" class="fil1" d="M10.2212 15.6505c0,0 0.165562,-0.757225 1.30466,-0.818122 1.13911,-0.0608965 1.81936,1.2021 2.58285,1.02514 0.596484,-0.138238 0.585288,-0.737704 0.416887,-1.08773 -0.0666372,-0.138571 -0.103698,-0.212059 0.093216,-0.0814966 0.2057,0.136414 0.443402,0.388627 0.532892,0.784787 0.169574,0.750914 -0.240953,1.54687 -1.0268,1.64547 0,0 -0.582481,0.401647 -1.22077,0.274177 0,0 -0.636162,0.379509 -1.42707,0.19896 -0.894322,-0.204178 -1.32432,-0.96616 -1.25588,-1.94119l1.58585e-005 0z"/>
      <path id="_122471584" class="fil3" d="M14.8302 15.3516c-0.00229948,0.259587 -0.523773,1.24611 -1.72234,0.405279 0,0 0.671003,0.837279 1.13298,1.01201 0.521331,-0.00537602 0.983446,-0.969316 0.589364,-1.41729zm-4.25747 0.0270704c0.0542676,-0.0554412 0.388627,-0.329919 1.01935,-0.35534 1.04277,-0.0420249 1.5406,1.38127 2.44087,1.84737 -0.33926,0.377051 -1.08494,0.266834 -1.07728,0.263805 -0.941199,-0.180644 -1.0776,-2.02524 -2.38294,-1.75583zm-0.112088 0.148102c0.732074,-0.0911385 1.08973,0.388088 1.39458,0.866205 0.252498,0.396208 0.468903,0.79167 0.831871,0.861336 0,0 -1.03927,0.421882 -1.72933,-0.183213 -0.690065,-0.605143 -0.497115,-1.54433 -0.497115,-1.54433z"/>
      <path id="_122473336" class="fil4" d="M14.8302 15.3516c-0.0022519,0.255067 -0.505774,1.21176 -1.66028,0.447446 0.179375,0.176267 0.600385,0.518952 1.06696,0.401473 0.548639,-0.138143 0.600813,-0.706225 0.605571,-0.834266 -0.00402805,-0.00491612 -0.00802438,-0.0098481 -0.0122427,-0.0146532z"/>
      <path id="_122473024" class="fil4" d="M10.4604 15.5277c0.965431,0.0410575 1.21576,1.34469 1.95896,1.60362 -0.215881,-0.16228 -0.380476,-0.450095 -0.564212,-0.738401 -0.304847,-0.478117 -0.662503,-0.957343 -1.39458,-0.866205l-0.000126868 0.000681914 -4.75754e-005 0.000301311z"/>
      <path id="_122464888" class="fil4" d="M13.7423 16.6797c-1.30333,-0.549971 -1.36368,-2.06249 -3.11654,-1.31081 -0.017476,0.00291796 -0.0350948,0.00607379 -0.0530148,0.00976881 0.0542676,-0.0554412 0.388627,-0.329919 1.01935,-0.35534 0.925103,-0.0372832 1.42139,1.0786 2.15022,1.65638l-1.58585e-005 0z"/>
      <path id="_122466808" class="fil4" d="M10.6848 15.34c0,0 0.749978,-0.312491 1.49996,0.52677 0,0 -0.232136,-0.616053 -1.02676,-0.758906l-0.200911 0.0899491 -0.27229 0.142187z"/>
      <path id="_122467288" class="fil5" d="M13.7155 16.6506c0,0 -0.788752,0.142599 -1.41262,-0.574853 0,0 0.178249,0.530291 0.614959,0.766471 0.43671,0.23618 0.797664,-0.191618 0.797664,-0.191618z"/>
      <path id="_122468152" class="fil5" d="M13.9193 16.5766c0.111025,0.0850647 0.221162,0.154303 0.321483,0.192252 0.515542,-0.00531258 0.973027,-0.947939 0.60205,-1.40209 0.0289258,0.185306 0.104031,1.03762 -0.923533,1.20984zm-3.44875 -0.973186c-0.0995911,0.532495 0.0569636,1.09043 0.487156,1.46767 0.690017,0.605095 1.72933,0.187669 1.72933,0.187669 -1.14996,-0.141124 -2.03393,-1.2437 -2.21647,-1.65534l-1.58585e-005 0zm3.23524 1.04682c-0.257018,0.108773 -0.888898,0.281139 -1.58412,-0.237274 0.23396,0.342669 0.475595,0.652734 0.833948,0.721512 -0.00765963,0.00302896 0.738021,0.113245 1.07728,-0.263805 -0.114958,-0.0595168 -0.223303,-0.134733 -0.327112,-0.220433z"/>
      <path id="_122462008" class="fil1" d="M10.4758 15.4741c0,0 0.247186,0.628217 0.797585,1.12049 0,0 -0.866633,-0.521363 -0.964939,-0.957708l0.0158426 -0.1004c0,0 0.160424,-0.0712996 0.151512,-0.0623872z"/>
     </g>
    </g>
   </g>
  </g>
 </g>
</svg>
