<?xml version="1.0" encoding="UTF-8"?>
<!DOCTYPE svg PUBLIC "-//W3C//DTD SVG 1.1//EN" "http://www.w3.org/Graphics/SVG/1.1/DTD/svg11.dtd">
<!-- Creator: CorelDRAW -->
<svg xmlns="http://www.w3.org/2000/svg" xml:space="preserve" width="129.436mm" height="197.989mm" style="shape-rendering:geometricPrecision; text-rendering:geometricPrecision; image-rendering:optimizeQuality; fill-rule:evenodd; clip-rule:evenodd"
viewBox="0 0 30.6166 46.8319"
 xmlns:xlink="http://www.w3.org/1999/xlink">
 <defs>
  <style type="text/css">
   <![CDATA[
    .fil2 {fill:none}
    .fil4 {fill:#4B3446}
    .fil0 {fill:#501D33}
    .fil3 {fill:#634C54}
    .fil5 {fill:#896E6B}
    .fil1 {fill:#FFCFA5}
   ]]>
  </style>
 </defs>
 <g id="Layer_x0020_1">
  <metadata id="CorelCorpID_0Corel-Layer"/>
  <g id="_284073200">
   <g>
    <path id="_161809584" class="fil0" d="M14.3005 26.5914c0,0 0.29423,-0.679764 1.12618,-0.679764 0.831953,0 1.1566,0.750797 1.1566,0.750797 0,0 -0.831929,-0.578313 -2.28278,-0.0710325z"/>
    <path id="_102350952" class="fil1" d="M15.4202 25.3222c0.575285,0.00425769 1.04448,0.460706 0.741666,0.546191 -0.14663,0.0413942 -0.451741,-0.0169125 -0.759123,-0.00742731 -0.495359,0.0152567 -0.844016,0.130995 -0.885813,0.0317671 -0.0696606,-0.165435 0.327961,-0.574765 0.903269,-0.570531z"/>
   </g>
   <rect id="_264498992" class="fil2" y="3.28172e-005" width="30.6166" height="46.8319"/>
   <g>
    <path id="_264505424" class="fil0" d="M14.4458 21.6401c0,0 -2.29227,0.274314 -3.43844,2.14886 0,0 -0.537983,0.777242 -0.573062,2.16028 -0.0350786,1.38304 -1.14175,1.62916 -1.14175,1.62916 0,0 0.725936,0.83245 2.12937,-0.150557 0,0 1.14035,0.135797 2.08305,-1.33869 0,0 1.27712,-0.146607 1.8007,-1.20665 0.0890331,-0.180266 0.0310811,-0.210448 0.124064,0.00484904 0.481876,1.11559 1.78811,1.17758 1.78811,1.17758 0.924534,1.48054 2.05881,1.32655 2.05881,1.32655 1.40345,0.982983 2.11122,0.180834 2.11122,0.180834 0,0 -1.06426,-0.240039 -1.09936,-1.62308 -0.0350786,-1.38304 -0.573062,-2.16028 -0.573062,-2.16028 -1.14617,-1.87454 -3.43844,-2.14886 -3.43844,-2.14886 -0.805744,-0.0639836 -1.04439,-0.0698971 -1.83121,0z"/>
    <path id="_264528344" class="fil3" d="M11.5921 23.629c-0.99313,1.07098 -0.302675,2.98646 -1.50732,3.89619 0,0 1.35425,0.0570531 2.00802,-1.70575 0,0 -0.0875429,0.701691 -0.402778,1.21515 0,0 1.51773,-0.376522 1.87379,-2.09942 0,0 0.110913,0.18256 0.0466927,0.787294 0,0 1.12573,-0.255225 1.75083,-1.52139 0.625124,1.26617 1.75088,1.52139 1.75088,1.52139 -0.0642202,-0.604734 0.0466927,-0.787294 0.0466927,-0.787294 0.356061,1.7229 1.87376,2.09942 1.87376,2.09942 -0.315235,-0.513454 -0.402778,-1.21515 -0.402778,-1.21515 0.653769,1.7628 2.00805,1.70575 2.00805,1.70575 -0.642131,-0.484904 -0.770524,-1.59874 -0.770524,-1.59874 -0.0584486,-1.56593 -0.736794,-2.29745 -0.736794,-2.29745 -1.87525,-2.25785 -5.67943,-2.25828 -7.53853,0z"/>
    <path id="_264499232" class="fil4" d="M10.1693 27.5226c0.305797,-0.0212648 1.36769,-0.204487 1.92351,-1.70317 0,0 -0.0875429,0.701691 -0.402778,1.21515 0,0 1.51773,-0.376522 1.87379,-2.09942 0,0 0.110913,0.18256 0.0466927,0.787294 0,0 1.12573,-0.255225 1.75083,-1.52139 0.625124,1.26617 1.75088,1.52139 1.75088,1.52139 -0.0642202,-0.604734 0.0466927,-0.787294 0.0466927,-0.787294 0.356061,1.7229 1.87376,2.09942 1.87376,2.09942 -0.315235,-0.513454 -0.402778,-1.21515 -0.402778,-1.21515 0.653769,1.7628 2.00805,1.70575 2.00805,1.70575 -0.642131,-0.484904 -0.770524,-1.59874 -0.770524,-1.59874 -0.0584486,-1.56593 -0.736794,-2.29745 -0.736794,-2.29745 -0.806762,-0.961694 -1.79552,-1.37384 -2.55577,-1.54836 -0.00633923,0.338557 -0.171774,1.07859 -1.63167,1.63519 0,0 -0.101333,0.622995 -1.41781,0.703276 0,0 -0.450416,0.817075 -1.51129,1.11431 0,0 -0.0826938,0.152331 -0.19997,0.374275 -0.264213,0.499995 -0.800186,1.3534 -1.64482,1.61492z"/>
    <path id="_284050520" class="fil3" d="M17.2092 22.5395c0.668789,0.214351 1.85952,0.810452 2.29307,2.3937 0,0 0.0948756,1.063 0.284603,1.52021 0,0 -0.652207,-0.537226 -1.04351,-1.68023 0,0 -0.355754,0.400034 -0.391329,1.13158 0,0 -0.841935,-0.537226 -1.07909,-2.2403 0,0 -0.343903,0.44578 -0.355754,0.971558 0,0 -0.675909,-0.537226 -0.533631,-1.40591 0.0500752,-0.30575 0.463734,-0.806596 0.825637,-0.690598z"/>
    <path id="_284061200" class="fil5" d="M14.037 22.1074c-0.743771,0.188521 -1.6768,0.606035 -2.44486,1.5216 -0.99313,1.07098 -0.302675,2.98646 -1.50732,3.89619 0,0 0.0193962,0.000756923 0.0543329,-0.000804231 1.09229,-0.533796 0.993272,-1.84635 1.4536,-3.08891 0.335719,-0.906226 1.22818,-1.73953 2.44295,-2.32546l0.00130096 -0.00262558z"/>
    <path id="_284060984" class="fil4" d="M13.6125 23.5618c0,0 0.00591346,0.735918 -0.455715,1.3064l0.455715 -0.0456283c0,0 0.325524,-0.313768 0,-1.26077z"/>
    <path id="_284073152" class="fil4" d="M12.2132 24.5308c0,0 0.000851538,0.766101 -0.382057,1.35423l0.444125 -0.0948519c0,0 0.309723,-0.328315 -0.0620677,-1.25938z"/>
   </g>
  </g>
 </g>
</svg>
