<?xml version="1.0" encoding="UTF-8"?>
<!DOCTYPE svg PUBLIC "-//W3C//DTD SVG 1.1//EN" "http://www.w3.org/Graphics/SVG/1.1/DTD/svg11.dtd">
<!-- Creator: CorelDRAW -->
<svg xmlns="http://www.w3.org/2000/svg" xml:space="preserve" width="129.436mm" height="197.989mm" style="shape-rendering:geometricPrecision; text-rendering:geometricPrecision; image-rendering:optimizeQuality; fill-rule:evenodd; clip-rule:evenodd"
viewBox="0 0 10.5658 16.1618"
 xmlns:xlink="http://www.w3.org/1999/xlink">
 <defs>
  <style type="text/css">
   <![CDATA[
    .fil0 {fill:none}
    .fil3 {fill:#4B3446}
    .fil1 {fill:#501D33}
    .fil2 {fill:#634C54}
    .fil8 {fill:#896E6B}
    .fil4 {fill:#97695D}
    .fil6 {fill:#D7734D}
    .fil5 {fill:#F6D476}
    .fil7 {fill:#FFCFA5}
   ]]>
  </style>
 </defs>
 <g id="Layer_x0020_1">
  <metadata id="CorelCorpID_0Corel-Layer"/>
  <g id="_283269416">
   <rect id="_277842000" class="fil0" width="10.5658" height="16.1618"/>
   <g id="_166341432">
    <path id="_162633920" class="fil1" d="M5.79042 7.38587c-0.489313,-0.0292316 -0.734218,0.532748 -0.64636,0.874196 0.0699729,0.27199 0.811472,0.634164 1.27969,0.635242 0.132167,0.000285704 0.332282,0.0824378 0.459167,-0.0607651 0.178565,-0.201535 0.0395496,-0.470472 -0.076487,-0.661233 -0.219771,-0.361252 -0.701337,-0.762633 -1.016,-0.78744l-8.16296e-006 0z"/>
    <path id="_162633848" class="fil1" d="M4.77542 7.38587c0.489313,-0.0292316 0.734218,0.532748 0.64636,0.874196 -0.0699729,0.27199 -0.811472,0.634164 -1.27969,0.635242 -0.114649,0.000253052 -0.311466,0.075287 -0.42476,-0.0194768 -0.19898,-0.166443 -0.132534,-0.397194 -0.0420066,-0.57944 0.196997,-0.396565 0.782681,-0.903354 1.1001,-0.910522z"/>
    <path id="_162633776" class="fil1" d="M3.87209 10.9946c-0.491206,0.29345 -0.306103,0.721418 0.0272153,0.984764 0.0387169,0.0305866 0.0545041,0.043329 0.0813848,0.0608386 0.449959,-0.182206 0.583946,-0.776469 0.13344,-1.0456l-0.121024 0.0287173 -0.121016 -0.0287173zm0.0926741 -2.08165c0.00541205,-0.00648139 0.0108323,-0.0130444 0.0164076,-0.0192809 0.0199013,-0.0222522 0.0412556,-0.0435086 0.0646915,-0.0620467 0.117506,-0.0929272 0.241901,-0.0714423 0.313376,0.0665363 0.0220645,0.0425943 0.0304234,0.089213 0.0217788,0.136591 -0.0139015,0.0762502 -0.0717851,0.142199 -0.14268,0.194883 0.0550021,0.0133464 0.0946904,0.0518675 0.120322,0.101335 0.0223747,0.0431902 0.0308968,0.0905763 0.0225788,0.138672 -0.0133791,0.0773686 -0.0666996,0.140378 -0.125791,0.188891 0.0402434,0.0185626 0.0760217,0.0545613 0.103792,0.108167 0.0220645,0.0425943 0.0304234,0.089213 0.0217788,0.136591 -0.0139015,0.0762502 -0.0717851,0.142199 -0.14268,0.194883 0.0550021,0.0133464 0.0946904,0.0518675 0.120322,0.101335 0.0223747,0.0431902 0.0308968,0.0905763 0.0225788,0.138672 -0.0137301,0.0794093 -0.0695403,0.143693 -0.130477,0.192695 -0.0587162,0.0472146 -0.138983,0.093319 -0.209592,0.121481l-0.058055 0.0231583 -0.000399985 -0.000530593 -0.0816215 -0.0292969c-0.132183,-0.0474431 -0.330527,-0.157774 -0.357938,-0.308127 -0.00864458,-0.0473778 -0.000285704,-0.0939965 0.0217788,-0.136591 0.0277704,-0.0536062 0.0635487,-0.0896049 0.103792,-0.108167 -0.0590917,-0.0485125 -0.112412,-0.111522 -0.125791,-0.188891 -0.00831806,-0.0480962 0.000204074,-0.0954822 0.0225788,-0.138672 0.0256317,-0.0494676 0.06532,-0.0879886 0.120322,-0.101335 -0.0708953,-0.0526838 -0.128779,-0.118632 -0.14268,-0.194883 -0.00864458,-0.0473778 -0.000285704,-0.0939965 0.0217788,-0.136591 0.0277704,-0.0536062 0.0635487,-0.0896049 0.103792,-0.108167 -0.0590917,-0.0485125 -0.112412,-0.111522 -0.125791,-0.188891 -0.00831806,-0.0480962 0.000204074,-0.0954822 0.0225788,-0.138672 0.0261052,-0.05039 0.0667812,-0.0894253 0.123383,-0.102062 0.0872539,-0.019485 0.173422,0.0324151 0.238228,0.0854499 0.0128648,0.0105302 0.025395,0.0215339 0.0376394,0.0328641z"/>
    <path id="_162633224" class="fil2" d="M3.89732 11.1209c-0.361668,0.216065 -0.225379,0.531164 0.0200401,0.725075 0.0570265,0.0450514 0.0736952,0.0500226 0.131856,0.00490594 0.249346,-0.19347 0.391039,-0.512087 0.0263174,-0.729981l-0.0891069 0.0211421 -0.0891069 -0.0211421zm0.0982005 -1.85486c0,0 0.389879,-0.139962 0.291255,-0.330339 -0.0534103,-0.103115 -0.142321,-0.0821113 -0.195511,-0.0377782 -0.0886661,0.073883 -0.127097,0.257452 -0.0957434,0.368117zm-0.0824459 0.00760788c-0.00821194,-0.003306 -0.372582,-0.151162 -0.275067,-0.339408 0.0517124,-0.0998249 0.203029,-0.0465942 0.276463,0.0680301 -0.0266684,0.0851316 -0.0221951,0.188671 -0.00139587,0.271378zm0.0156076 0.426662c0,0 -0.389879,-0.139962 -0.291255,-0.330339 0.0534103,-0.103115 0.142321,-0.0821113 0.195511,-0.0377782 0.0886661,0.073883 0.127097,0.257452 0.0957434,0.368117zm0.0824459 0.00760788c0.00821194,-0.003306 0.372582,-0.151162 0.275067,-0.339408 -0.0517124,-0.0998249 -0.203029,-0.0465942 -0.276463,0.0680301 0.0266684,0.0851316 0.0221951,0.188671 0.00139587,0.271378zm-0.0980535 0.43427c-0.00821194,-0.003306 -0.372582,-0.151162 -0.275067,-0.339408 0.0517124,-0.0998249 0.203029,-0.0465942 0.276463,0.0680301 -0.0266684,0.0851316 -0.0221951,0.188671 -0.00139587,0.271378zm0.0824459 -0.00760788c0,0 0.389879,-0.139962 0.291255,-0.330339 -0.0534103,-0.103115 -0.142321,-0.0821113 -0.195511,-0.0377782 -0.0886661,0.073883 -0.127097,0.257452 -0.0957434,0.368117zm-0.0668384 0.43427c0,0 -0.389879,-0.139962 -0.291255,-0.330339 0.0534103,-0.103115 0.142321,-0.0821113 0.195511,-0.0377782 0.0886661,0.073883 0.127097,0.257452 0.0957434,0.368117zm0.0824459 0.00760788c0.00821194,-0.003306 0.372582,-0.151162 0.275067,-0.339408 -0.0517124,-0.0998249 -0.203029,-0.0465942 -0.276463,0.0680301 0.0266684,0.0851316 0.0221951,0.188671 0.00139587,0.271378z"/>
    <g>
     <path id="_162633536" class="fil1" d="M6.69409 10.9902c0.491206,0.29345 0.306103,0.721418 -0.0272153,0.984764 -0.0387169,0.0305866 -0.0545041,0.043329 -0.0813848,0.0608386 -0.449959,-0.182206 -0.583946,-0.776469 -0.13344,-1.0456l0.121024 0.0287173 0.121016 -0.0287173zm-0.0926741 -2.08165c-0.00541205,-0.00648139 -0.0108323,-0.0130444 -0.0164076,-0.0192809 -0.0199013,-0.0222522 -0.0412556,-0.0435086 -0.0646915,-0.0620467 -0.117506,-0.0929272 -0.241901,-0.0714423 -0.313376,0.0665363 -0.0220645,0.0425943 -0.0304234,0.089213 -0.0217788,0.136591 0.0139015,0.0762502 0.0717851,0.142199 0.14268,0.194883 -0.0550021,0.0133464 -0.0946904,0.0518675 -0.120322,0.101335 -0.0223747,0.0431902 -0.0308968,0.0905763 -0.0225788,0.138672 0.0133791,0.0773686 0.0666996,0.140378 0.125791,0.188891 -0.0402434,0.0185626 -0.0760217,0.0545613 -0.103792,0.108167 -0.0220645,0.0425943 -0.0304234,0.089213 -0.0217788,0.136591 0.0139015,0.0762502 0.0717851,0.142199 0.14268,0.194883 -0.0550021,0.0133464 -0.0946904,0.0518675 -0.120322,0.101335 -0.0223747,0.0431902 -0.0308968,0.0905763 -0.0225788,0.138672 0.0137301,0.0794093 0.0695403,0.143693 0.130477,0.192695 0.0587162,0.0472146 0.138983,0.093319 0.209592,0.121481l0.058055 0.0231583 0.000399985 -0.000530593 0.0816215 -0.0292969c0.132183,-0.0474431 0.330527,-0.157774 0.357938,-0.308127 0.00864458,-0.0473778 0.000285704,-0.0939965 -0.0217788,-0.136591 -0.0277704,-0.0536062 -0.0635487,-0.0896049 -0.103792,-0.108167 0.0590917,-0.0485125 0.112412,-0.111522 0.125791,-0.188891 0.00831806,-0.0480962 -0.000204074,-0.0954822 -0.0225788,-0.138672 -0.0256317,-0.0494676 -0.06532,-0.0879886 -0.120322,-0.101335 0.0708953,-0.0526838 0.128779,-0.118632 0.14268,-0.194883 0.00864458,-0.0473778 0.000285704,-0.0939965 -0.0217788,-0.136591 -0.0277704,-0.0536062 -0.0635487,-0.0896049 -0.103792,-0.108167 0.0590917,-0.0485125 0.112412,-0.111522 0.125791,-0.188891 0.00831806,-0.0480962 -0.000204074,-0.0954822 -0.0225788,-0.138672 -0.0261052,-0.05039 -0.0667812,-0.0894253 -0.123383,-0.102062 -0.0872539,-0.019485 -0.173422,0.0324151 -0.238228,0.0854499 -0.0128648,0.0105302 -0.025395,0.0215339 -0.0376394,0.0328641z"/>
     <path id="_162633464" class="fil2" d="M6.66887 11.1165c0.361668,0.216065 0.225379,0.531164 -0.0200401,0.725075 -0.0570265,0.0450514 -0.0736952,0.0500226 -0.131856,0.00490594 -0.249346,-0.19347 -0.391039,-0.512087 -0.0263174,-0.729981l0.0891069 0.0211421 0.0891069 -0.0211421zm-0.0982005 -1.85486c0,0 -0.389879,-0.139962 -0.291255,-0.330339 0.0534103,-0.103115 0.142321,-0.0821113 0.195511,-0.0377782 0.0886661,0.073883 0.127097,0.257452 0.0957434,0.368117zm0.0824459 0.00760788c0.00821194,-0.003306 0.372582,-0.151162 0.275067,-0.339408 -0.0517124,-0.0998249 -0.203029,-0.0465942 -0.276463,0.0680301 0.0266684,0.0851316 0.0221951,0.188671 0.00139587,0.271378zm-0.0156076 0.426654c0,0 0.389879,-0.139962 0.291255,-0.330339 -0.0534103,-0.103115 -0.142321,-0.0821113 -0.195511,-0.0377782 -0.0886661,0.073883 -0.127097,0.257452 -0.0957434,0.368117zm-0.0824459 0.00760788c-0.00821194,-0.003306 -0.372582,-0.151162 -0.275067,-0.339408 0.0517124,-0.0998249 0.203029,-0.0465942 0.276463,0.0680301 -0.0266684,0.0851316 -0.0221951,0.188671 -0.00139587,0.271378zm0.0980535 0.43427c0.00821194,-0.003306 0.372582,-0.151162 0.275067,-0.339408 -0.0517124,-0.0998249 -0.203029,-0.0465942 -0.276463,0.0680301 0.0266684,0.0851316 0.0221951,0.188671 0.00139587,0.271378zm-0.0824459 -0.00760788c0,0 -0.389879,-0.139962 -0.291255,-0.330339 0.0534103,-0.103115 0.142321,-0.0821113 0.195511,-0.0377782 0.0886661,0.073883 0.127097,0.257452 0.0957434,0.368117zm0.0668384 0.43427c0,0 0.389879,-0.139962 0.291255,-0.330339 -0.0534103,-0.103115 -0.142321,-0.0821113 -0.195511,-0.0377782 -0.0886661,0.073883 -0.127097,0.257452 -0.0957434,0.368117zm-0.0824459 0.00760788c-0.00821194,-0.003306 -0.372582,-0.151162 -0.275067,-0.339408 0.0517124,-0.0998249 0.203029,-0.0465942 0.276463,0.0680301 -0.0266684,0.0851316 -0.0221951,0.188671 -0.00139587,0.271378z"/>
    </g>
    <path id="_162633608" class="fil3" d="M3.89732 11.1209c-0.0105057,0.00627732 -0.020538,0.0126363 -0.0302193,0.0190768 0.0951638,0.0531246 0.412515,0.273378 0.148892,0.733459 0.0096323,-0.00517532 0.0204319,-0.0126608 0.0332069,-0.0225788 0.24937,-0.19343 0.391055,-0.512063 0.0263174,-0.729957l-0.0890906 0.0211421 -0.0891069 -0.0211421z"/>
    <path id="_162633392" class="fil1" d="M3.94162 11.9198c0,0 0.154223,-0.204515 0.160933,-0.499549 0,0 0.0838173,0.154223 -0.0134118,0.46937l-0.117343 0.110641 -0.0301785 -0.0804623z"/>
    <path id="_162633320" class="fil4" d="M3.75101 10.561c0,0 -0.112739,0.18925 0.0040325,0.3342 0.116771,0.144958 0.384125,0.19303 0.384125,0.19303 0,0 0.136909,-0.0442922 0.100666,-0.213413 -0.0362354,-0.16912 -0.307621,-0.277582 -0.488823,-0.313817z"/>
    <path id="_264960536" class="fil1" d="M3.78868 10.7476l0.378655 0c0.135677,-1.63259e-005 0.245697,0.0964944 0.245697,0.215494l-8.16296e-006 1.63259e-005c8.16296e-006,0.118983 -0.110012,0.215494 -0.245681,0.215494l-0.378664 1.63259e-005c-0.13566,-1.63259e-005 -0.245681,-0.0965271 -0.245681,-0.215527l-8.16296e-006 1.63259e-005c8.16296e-006,-0.119016 0.110029,-0.215527 0.245697,-0.215527z"/>
    <path id="_264960392" class="fil5" d="M3.74709 10.8676l0.461836 0c0.0455249,-1.63259e-005 0.0824378,0.0368966 0.0824378,0.0824133l-8.16296e-006 0.0262766c8.16296e-006,0.0455004 -0.0369048,0.0824133 -0.0824214,0.0824133l-0.461844 1.63259e-005c-0.0455085,-1.63259e-005 -0.0824214,-0.0369292 -0.0824214,-0.0824459l-8.16296e-006 -0.0262439c8.16296e-006,-0.045533 0.0369211,-0.0824459 0.0824378,-0.0824459z"/>
    <path id="_264959696" class="fil6" d="M3.75771 10.9652l0.437853 0c0.0232073,-1.63259e-005 0.0420229,0.016481 0.0420229,0.0368313l-8.16296e-006 1.63259e-005c8.16296e-006,0.0203339 -0.0188075,0.0368313 -0.0420066,0.0368313l-0.437861 1.63259e-005c-0.023191,-1.63259e-005 -0.0420066,-0.0165137 -0.0420066,-0.0368639l-8.16296e-006 1.63259e-005c8.16296e-006,-0.0203666 0.0188238,-0.0368639 0.0420229,-0.0368639z"/>
    <path id="_264958832" class="fil1" d="M3.77669 10.4362l0.378647 0c0.135677,-1.63259e-005 0.245697,0.0964944 0.245697,0.215494l-8.16296e-006 1.63259e-005c8.16296e-006,0.118983 -0.110012,0.215494 -0.245681,0.215494l-0.378655 1.63259e-005c-0.13566,-1.63259e-005 -0.245681,-0.0965271 -0.245681,-0.215527l-8.16296e-006 1.63259e-005c8.16296e-006,-0.119016 0.110029,-0.215527 0.245697,-0.215527z"/>
    <path id="_264957728" class="fil5" d="M3.7351 10.5561l0.461836 0c0.0455249,-1.63259e-005 0.0824378,0.0368966 0.0824378,0.0824133l-8.16296e-006 0.0262684c8.16296e-006,0.0455004 -0.0369048,0.0824133 -0.0824214,0.0824133l-0.461844 1.63259e-005c-0.0455085,-1.63259e-005 -0.0824214,-0.0369292 -0.0824214,-0.0824459l-8.16296e-006 -0.0262358c8.16296e-006,-0.045533 0.0369211,-0.0824459 0.0824378,-0.0824459z"/>
    <path id="_264956816" class="fil6" d="M3.74571 10.6537l0.437853 0c0.0232073,-1.63259e-005 0.0420229,0.016481 0.0420229,0.0368313l-8.16296e-006 1.63259e-005c8.16296e-006,0.0203339 -0.0188075,0.0368313 -0.0420066,0.0368313l-0.437861 2.44889e-005c-0.023191,-2.44889e-005 -0.0420066,-0.0165218 -0.0420066,-0.0368721l-8.16296e-006 1.63259e-005c8.16296e-006,-0.0203666 0.0188238,-0.0368639 0.0420229,-0.0368639z"/>
    <path id="_102413880" class="fil2" d="M5.78535 7.53514c-0.243354,-0.0182932 -0.439355,0.197895 -0.502398,0.425266 -0.0630344,-0.227371 -0.25848,-0.431437 -0.502439,-0.425266 -0.513622,0.0129954 -1.62446,1.36311 -0.716276,1.27791 0.424523,-0.0398189 1.12071,-0.335498 1.2187,-0.571114 0.092666,0.222808 0.721516,0.487631 1.14739,0.560494 0.131097,0.0224318 0.215347,0.0283092 0.316862,-0.0610345 0.0898253,-0.0790501 0.0865437,-0.188769 0.022138,-0.345971 -0.107408,-0.342771 -0.711304,-0.839798 -0.983972,-0.860295l-8.16296e-006 8.16296e-006z"/>
    <path id="_102413808" class="fil3" d="M5.30216 7.9114c0,0 -0.183961,0.516936 1.15106,0.850181 -0.199184,-0.0911395 -0.393953,-0.264137 -0.555775,-0.449477 0.280749,0.12953 0.539025,0.198613 0.539025,0.198613 -0.565253,-0.271565 -0.839414,-0.638352 -0.898326,-0.724504 -0.0257868,-0.0540307 -0.0424719,-0.0995882 -0.0483247,-0.132567 -0.0828786,0.064969 -0.172647,0.199519 -0.187667,0.257754l8.16296e-006 0zm-0.0472636 0c0,0 0.183961,0.516936 -1.15106,0.850181 0.199184,-0.0911395 0.393953,-0.264137 0.555775,-0.449477 -0.280749,0.12953 -0.539025,0.198613 -0.539025,0.198613 0.565253,-0.271565 0.839414,-0.638352 0.898326,-0.724504 0.0257868,-0.0540307 0.0424719,-0.0995882 0.0483247,-0.132567 0.0828786,0.064969 0.172647,0.199519 0.187667,0.257754l-8.16296e-006 0z"/>
    <path id="_102413736" class="fil3" d="M6.66853 11.1209c0.0105057,0.00627732 0.020538,0.0126363 0.0302193,0.0190768 -0.0951638,0.0531246 -0.412515,0.273378 -0.148892,0.733459 -0.0096323,-0.00517532 -0.0204319,-0.0126608 -0.0332069,-0.0225788 -0.24937,-0.19343 -0.391055,-0.512063 -0.0263174,-0.729957l0.0890906 0.0211421 0.0891069 -0.0211421z"/>
    <path id="_102413664" class="fil1" d="M6.62422 11.9198c0,0 -0.154223,-0.204515 -0.160933,-0.499549 0,0 -0.0838173,0.154223 0.0134118,0.46937l0.117343 0.110641 0.0301785 -0.0804623z"/>
    <path id="_102413592" class="fil4" d="M6.81483 10.561c0,0 0.112739,0.18925 -0.0040325,0.3342 -0.116771,0.144958 -0.384125,0.19303 -0.384125,0.19303 0,0 -0.136909,-0.0442922 -0.100666,-0.213413 0.0362354,-0.16912 0.307621,-0.277582 0.488823,-0.313817z"/>
    <path id="_264952808" class="fil1" d="M6.39851 10.7476l0.378647 0c0.135668,-1.63259e-005 0.245689,0.0964944 0.245689,0.215494l0 1.63259e-005c0,0.118983 -0.11002,0.215494 -0.245689,0.215494l-0.378647 1.63259e-005c-0.135668,-1.63259e-005 -0.245689,-0.0965271 -0.245689,-0.215527l0 1.63259e-005c0,-0.119016 0.11002,-0.215527 0.245689,-0.215527z"/>
    <path id="_264951896" class="fil5" d="M6.35692 10.8676l0.461836 0c0.0455167,-1.63259e-005 0.0824296,0.0368966 0.0824296,0.0824133l0 0.0262766c0,0.0455004 -0.0369129,0.0824133 -0.0824296,0.0824133l-0.461836 1.63259e-005c-0.0455167,-1.63259e-005 -0.0824296,-0.0369292 -0.0824296,-0.0824459l0 -0.0262439c0,-0.045533 0.0369129,-0.0824459 0.0824296,-0.0824459z"/>
    <path id="_264950696" class="fil6" d="M6.37029 10.9652l0.437853 0c0.0231991,-1.63259e-005 0.0420148,0.016481 0.0420148,0.0368313l0 1.63259e-005c0,0.0203339 -0.0188156,0.0368313 -0.0420148,0.0368313l-0.437853 1.63259e-005c-0.0231991,-1.63259e-005 -0.0420148,-0.0165137 -0.0420148,-0.0368639l0 1.63259e-005c0,-0.0203666 0.0188156,-0.0368639 0.0420148,-0.0368639z"/>
    <path id="_264949928" class="fil1" d="M6.41051 10.4362l0.378655 0c0.135668,-1.63259e-005 0.245689,0.0964944 0.245689,0.215494l0 1.63259e-005c0,0.118983 -0.11002,0.215494 -0.245689,0.215494l-0.378655 1.63259e-005c-0.135668,-1.63259e-005 -0.245689,-0.0965271 -0.245689,-0.215527l8.16296e-006 1.63259e-005c-8.16296e-006,-0.119016 0.110012,-0.215527 0.245681,-0.215527z"/>
    <path id="_264948560" class="fil5" d="M6.36892 10.5561l0.461836 0c0.0455167,-1.63259e-005 0.0824296,0.0368966 0.0824296,0.0824133l0 0.0262684c0,0.0455004 -0.0369129,0.0824133 -0.0824296,0.0824133l-0.461836 1.63259e-005c-0.0455167,-1.63259e-005 -0.0824296,-0.0369292 -0.0824296,-0.0824459l0 -0.0262358c0,-0.045533 0.0369129,-0.0824459 0.0824296,-0.0824459z"/>
    <path id="_264958928" class="fil6" d="M6.38228 10.6537l0.437853 0c0.0231991,-1.63259e-005 0.0420148,0.016481 0.0420148,0.0368313l0 1.63259e-005c0,0.0203339 -0.0188156,0.0368313 -0.0420148,0.0368313l-0.437853 2.44889e-005c-0.0231991,-2.44889e-005 -0.0420148,-0.0165218 -0.0420148,-0.0368721l0 1.63259e-005c0,-0.0203666 0.0188156,-0.0368639 0.0420148,-0.0368639z"/>
    <path id="_102413088" class="fil1" d="M5.40048 7.98952c0,0 0.0689362,0.353873 0.70315,0.625022 0,0 -0.79966,-0.202213 -0.923737,-0.61583l0.105694 -0.0413617 0.114894 0.0321702z"/>
    <path id="_102352344" class="fil1" d="M5.16537 7.98952c0,0 -0.0689362,0.353873 -0.70315,0.625022 0,0 0.79966,-0.202213 0.923737,-0.61583l-0.105702 -0.0413617 -0.114886 0.0321702z"/>
    <path id="_102352272" class="fil1" d="M4.93037 9.10955c0,0 0.101539,-0.234587 0.388639,-0.234587 0.287108,0 0.399144,0.259101 0.399144,0.259101 0,0 -0.2871,-0.199576 -0.787783,-0.0245134z"/>
    <path id="_102352200" class="fil7" d="M5.30047 8.62803c0.198531,0.00146933 0.360452,0.15899 0.25595,0.188491 -0.0506022,0.0142852 -0.155896,-0.00583652 -0.261974,-0.00256317 -0.170941,0.00526511 -0.291263,0.0452065 -0.305687,0.0109629 -0.0240399,-0.0570918 0.113179,-0.198352 0.311711,-0.196891z"/>
    <path id="_102352128" class="fil8" d="M4.78051 7.53514c0.109702,-0.00824459 0.209739,0.0311907 0.292373,0.0977923 -0.0328723,0.0109465 -0.0706341,0.0211339 -0.114314,0.0302846 -0.76749,0.160851 -1.13055,0.712341 -1.13055,0.712341 -0.0079997,-0.00124893 -0.0156158,-0.00294683 -0.023044,-0.00487329 0.127514,-0.341432 0.70937,-0.815537 0.975531,-0.835545zm-0.952063 3.63269c-0.273035,0.212833 -0.139285,0.497884 0.0889273,0.678179 0.00284887,0.00225298 0.00558347,0.00439167 0.00824459,0.00644058 -0.171243,-0.232587 -0.137326,-0.521417 -0.0971719,-0.68462zm0.0556469 -2.14618c0,0 -0.137456,-0.188883 -0.210996,-0.0989188 -0.0735401,0.089964 0.188344,0.123318 0.210996,0.0989188zm0.133718 0.112714c0,0 0.0183503,-0.24773 0.183503,-0.24773 0.165153,0 -0.135334,0.245436 -0.183503,0.24773zm-0.111424 0.43427c0,0 -0.0183503,-0.24773 -0.183503,-0.24773 -0.165153,0 0.135334,0.245436 0.183503,0.24773zm0.133718 -0.112722c0,0 0.137456,-0.188883 0.210996,-0.0989188 0.0735401,0.089964 -0.188352,0.123318 -0.210996,0.0989188zm-0.156011 0.43427c0,0 -0.137456,-0.188883 -0.210996,-0.0989188 -0.0735401,0.089964 0.188344,0.123318 0.210996,0.0989188zm0.133718 0.112722c0,0 0.0183503,-0.24773 0.183503,-0.24773 0.165153,0 -0.135334,0.245436 -0.183503,0.24773zm-0.111424 0.43427c0,0 -0.0183503,-0.24773 -0.183503,-0.24773 -0.165153,0 0.135334,0.245436 0.183503,0.24773zm0.133718 -0.112722c0,0 0.137456,-0.188883 0.210996,-0.0989188 0.0735401,0.089964 -0.188352,0.123318 -0.210996,0.0989188zm2.6973 0.843389c0.273035,0.212833 0.139285,0.497884 -0.0889273,0.678179 -0.00284887,0.00225298 -0.00558347,0.00439167 -0.00824459,0.00644058 0.171243,-0.232587 0.137326,-0.521417 0.0971719,-0.68462zm-0.189364 -2.03347c0,0 -0.0183503,-0.24773 -0.183503,-0.24773 -0.165153,0 0.135334,0.245436 0.183503,0.24773zm0.133718 -0.112722c0,0 0.137456,-0.188883 0.210996,-0.0989188 0.0735401,0.089964 -0.188344,0.123318 -0.210996,0.0989188zm-0.156011 0.434262c0,0 -0.137456,-0.188883 -0.210996,-0.0989188 -0.0735401,0.089964 0.188352,0.123318 0.210996,0.0989188zm0.133718 0.112722c0,0 0.0183503,-0.24773 0.183503,-0.24773 0.165153,0 -0.135334,0.245436 -0.183503,0.24773zm-0.111424 0.43427c0,0 -0.0183503,-0.24773 -0.183503,-0.24773 -0.165153,0 0.135334,0.245436 0.183503,0.24773zm0.133718 -0.112722c0,0 0.137456,-0.188883 0.210996,-0.0989188 0.0735401,0.089964 -0.188344,0.123318 -0.210996,0.0989188zm-0.156011 0.43427c0,0 -0.137456,-0.188883 -0.210996,-0.0989188 -0.0735401,0.089964 0.188352,0.123318 0.210996,0.0989188zm0.133718 0.112722c0,0 0.0183503,-0.24773 0.183503,-0.24773 0.165153,0 -0.135334,0.245436 -0.183503,0.24773zm-0.874115 -2.90203c-0.109702,-0.00824459 -0.209739,0.0311907 -0.292373,0.0977923 0.0328723,0.0109465 0.0706341,0.0211339 0.114314,0.0302846 0.76749,0.160851 1.13055,0.712341 1.13055,0.712341 0.0079997,-0.00124893 0.0156158,-0.00294683 0.023044,-0.00487329 -0.127514,-0.341432 -0.70937,-0.815537 -0.975531,-0.835545z"/>
   </g>
  </g>
 </g>
</svg>
