<?xml version="1.0" encoding="UTF-8"?>
<!DOCTYPE svg PUBLIC "-//W3C//DTD SVG 1.1//EN" "http://www.w3.org/Graphics/SVG/1.1/DTD/svg11.dtd">
<!-- Creator: CorelDRAW -->
<svg xmlns="http://www.w3.org/2000/svg" xml:space="preserve" width="129.436mm" height="197.989mm" style="shape-rendering:geometricPrecision; text-rendering:geometricPrecision; image-rendering:optimizeQuality; fill-rule:evenodd; clip-rule:evenodd"
viewBox="0 0 7.19902 11.0118"
 xmlns:xlink="http://www.w3.org/1999/xlink">
 <defs>
  <style type="text/css">
   <![CDATA[
    .fil0 {fill:none}
    .fil4 {fill:#4B3446}
    .fil1 {fill:#501D33}
    .fil2 {fill:#634C54}
    .fil3 {fill:#896E6B}
    .fil7 {fill:#D56853}
    .fil5 {fill:#F8C578}
    .fil8 {fill:#FFCFA5}
    .fil6 {fill:white}
   ]]>
  </style>
 </defs>
 <g id="Layer_x0020_1">
  <metadata id="CorelCorpID_0Corel-Layer"/>
  <g id="_283268456">
   <rect id="_284267736" class="fil0" width="7.19902" height="11.0118"/>
   <g id="_166336104">
    <path id="_161682248" class="fil1" d="M4.99593 6.36456c0.0339327,0.329109 -0.0361796,0.676823 -0.100585,1.01895l-0.00230259 0c0.309042,0.551966 -0.284126,0.554914 -0.284782,1.04741 0,0 -0.701646,-0.460858 -0.269654,-1.09186l0.00521699 -0.000817587c-0.00475535,-0.27531 -0.0107844,-0.556404 -0.111642,-0.826764 -0.0377314,0.10469 -0.0898512,0.1629 -0.0898512,0.1629 0.0334432,-0.208641 -0.0339382,-0.386224 -0.0917867,-0.493255 -0.105363,-0.139107 -0.249359,-0.27313 -0.446697,-0.399478 -0.202767,0.127638 -0.349966,0.262607 -0.456998,0.40257 -0.0574703,0.107338 -0.123294,0.283503 -0.0901682,0.490163 0,0 -0.052765,-0.0589219 -0.0905464,-0.164852 -0.101809,0.27016 -0.106309,0.551326 -0.110947,0.828711l0.00521699 0.000817587c0.431998,0.631005 -0.269654,1.09186 -0.269654,1.09186 -0.000656295,-0.492505 -0.593819,-0.495452 -0.284776,-1.04741l-0.00230815 0c-0.0644059,-0.342124 -0.134518,-0.689827 -0.100585,-1.01894 -0.0761802,0.0438104 -0.143912,0.0449284 -0.143912,0.0449284 0.0752514,-0.0902405 0.141415,-0.198118 0.193885,-0.295533 0.0437882,-0.139869 0.114479,-0.273853 0.205237,-0.393588 -0.0906187,-0.0100001 -0.147166,-0.0531432 -0.147166,-0.0531432 0.14746,-0.0309682 0.26417,-0.0984942 0.337936,-0.151526 0.0250838,-0.0219358 0.0509407,-0.0429206 0.0775039,-0.0628486 0.0072248,-0.00671868 0.0109679,-0.0106008 0.0109679,-0.0106008l-0.000394889 0.00268636c0.247901,-0.182105 0.55527,-0.273113 0.862238,-0.200465 0.307079,-0.0727653 0.614536,0.0183151 0.862516,0.200515l-0.000411575 -0.00273641c0,0 0.00381541,0.00393777 0.0111459,0.010751 0.0265354,0.0199169 0.0523812,0.040846 0.0774372,0.0627651 0.0737664,0.0530208 0.190431,0.120508 0.337825,0.151459 0,0 -0.0565359,0.0431486 -0.147171,0.0531432 0.0907578,0.119724 0.161465,0.253691 0.205248,0.393549 0.0524758,0.0974208 0.118617,0.20532 0.193879,0.295572 0,0 -0.0677318,-0.00112349 -0.143912,-0.0449339l0 5.56182e-006zm-1.65381 -0.131042c0,0 0.0691835,-0.159836 0.264798,-0.159836 0.19562,0 0.271956,0.176538 0.271956,0.176538 0,0 -0.195615,-0.135981 -0.536754,-0.0167021z"/>
    <path id="_161682152" class="fil1" d="M2.56677 7.38348c-0.0315967,-0.170642 -0.0858189,-0.485814 -0.102176,-0.720233 0,0 0.0784828,0.447337 0.222362,0.695856l-0.00217467 0.0243775 -0.118011 0z"/>
    <path id="_161682080" class="fil2" d="M4.53985 8.25483c-0.0597562,-0.0583713 -0.114668,-0.125714 -0.152444,-0.186994 -0.134134,-0.217623 -0.124651,-0.43301 0.00637941,-0.64338l0.129251 -0.0203118 0.297112 0.0393221c0.0546894,0.100079 0.0972929,0.216972 0.0445669,0.325455 -0.041252,0.0848956 -0.1334,0.169997 -0.19339,0.245065 -0.0615415,0.0770034 -0.106114,0.15468 -0.131476,0.240843zm-1.77096 -0.871326c0.0032926,-0.174168 0.00453288,-0.347947 0.025145,-0.521554 0.0217801,-0.183379 0.060952,-0.353798 0.136899,-0.516632 -0.00746952,-0.0909969 0.0026363,-0.19854 0.0472755,-0.319704l0.15255 0.0193106c0.134724,-0.147505 0.30694,-0.272423 0.467577,-0.374049l0.00117354 -0.042598 0.00117354 0.042598c0.160642,0.10162 0.332875,0.226544 0.467599,0.374043l0.152533 -0.0193051c0.0446392,0.121153 0.0547617,0.228691 0.0472921,0.319682 0.0759522,0.162839 0.115102,0.33327 0.136882,0.516654 0.0206121,0.173607 0.0218524,0.347386 0.025145,0.521554l0.356652 0c0.00893228,-0.0526037 0.0180425,-0.104985 0.0268302,-0.157044 0.0508517,-0.3011 0.124946,-0.631227 0.069634,-0.934691 -0.101436,-0.556593 -0.697196,-1.06465 -1.28374,-0.982039 -0.586533,-0.0826153 -1.18229,0.425446 -1.28373,0.982039 -0.0553123,0.30347 0.0187823,0.633597 0.069634,0.934691 0.00878767,0.0520586 0.0178979,0.10444 0.0268302,0.157044l0.356652 0zm-0.109718 0.871326c0.0597562,-0.0583713 0.114668,-0.125714 0.152444,-0.186994 0.134134,-0.217623 0.124651,-0.43301 -0.00637941,-0.64338l-0.129251 -0.0203118 -0.297112 0.0393221c-0.0546894,0.100079 -0.0972929,0.216972 -0.0445669,0.325455 0.041252,0.0848956 0.1334,0.169997 0.19339,0.245065 0.0615415,0.0770034 0.106114,0.15468 0.131476,0.240843z"/>
    <path id="_162633752" class="fil3" d="M4.75133 7.43436l0.0688164 0.0091047c0.0546838,0.100085 0.0972929,0.216978 0.0445613,0.325461 -0.0412464,0.0848956 -0.133395,0.169997 -0.193384,0.245065 -0.0573813,0.0717975 -0.100013,0.144185 -0.12607,0.223491 -0.0374144,-0.164246 0.0846231,-0.306239 0.175214,-0.47484 0.0941783,-0.175275 -0.0156955,-0.292991 -0.0156955,-0.292991 0,0 0.0179091,-0.0141048 0.046558,-0.0352897zm-2.27005 -1.03716c0,0 0.00245276,-0.349277 0.171387,-0.647974 -0.366624,0.419645 -0.272635,1.05479 -0.196655,1.63428l-0.0437771 0c-0.00893228,-0.0526148 -0.0180425,-0.104979 -0.0268302,-0.157044 -0.0508517,-0.3011 -0.124946,-0.631227 -0.069634,-0.934691 0.101943,-0.559358 0.648202,-1.06979 1.23754,-0.98086l0.000606238 0.0125197c-0.595482,0.112288 -0.948657,0.41524 -1.07264,1.07376zm1.16381 -1.07377l0.000606238 -0.0125197c0.589347,-0.088939 1.13561,0.421502 1.23754,0.98086 0.0553123,0.30347 -0.0187823,0.633597 -0.069634,0.934691 -0.00878767,0.0520642 -0.0178979,0.104429 -0.0268302,0.157044l-0.0437771 0c0.0759856,-0.579503 0.169997,-1.21468 -0.196666,-1.63432 0.168962,0.298714 0.171399,0.648019 0.171399,0.648019 -0.145614,-0.664971 -0.514224,-0.971822 -1.07264,-1.07376l0 -5.56182e-006zm-1.1974 2.11093l-0.0688164 0.0091047c-0.0546838,0.100085 -0.0972929,0.216978 -0.0445613,0.325461 0.0412464,0.0848956 0.133395,0.169997 0.193384,0.245065 0.0573813,0.0717975 0.100013,0.144185 0.12607,0.223491 0.0374144,-0.164246 -0.0846231,-0.306239 -0.175214,-0.47484 -0.0941783,-0.175275 0.0156955,-0.292991 0.0156955,-0.292991 0,0 -0.0179091,-0.0141048 -0.046558,-0.0352897z"/>
    <path id="_162635000" class="fil4" d="M4.35218 7.49983l0.000728598 -0.00151838 0.000739722 -0.00151838 0.00297001 -0.00604013 0.000750846 -0.00150169 0.0017186 -0.00342052 0.00185765 -0.00363743 0.00370417 -0.00711357 0.00130147 -0.00245276 0.000800902 -0.00150169 0.00325366 -0.00602345 0.000634047 -0.00116798 0.000194664 -0.000344833 0.000834273 -0.00150169 0.00335934 -0.00602345 0.000850958 -0.00151838 0.000272529 -0.00048944 0.000578429 -0.00101225c0.00145163,-0.00255287 0.00292552,-0.00510575 0.00441608,-0.00765862l0.00133484 -0.00228035 0.00394333 -0.00663525 0.000901015 -0.00150169 0.000867644 -0.00144051c0.00182984,-0.00303119 0.00369861,-0.00607351 0.00558963,-0.00909914l0.12503 -0.0196499 0.00422698 -0.000661856 0.297107 0.0393165c0.0222862,0.0407959 0.042559,0.0843895 0.0551955,0.129062 -0.084078,-0.018671 -0.227217,-0.0445446 -0.396869,-0.050924 -0.103055,0.37356 0.0499785,0.689454 0.065457,0.719944l-0.00112905 0.00357069 -0.00870425 0.004049c-0.0575148,-0.0570364 -0.110141,-0.122021 -0.146693,-0.181326 -0.118155,-0.191694 -0.124863,-0.381652 -0.035223,-0.567978zm-0.129379 -1.46878c5.00564e-005,0.0386658 -0.00201338,0.181866 -0.033382,0.300611 0,0 -0.0228702,-0.164836 -0.134913,-0.298714 -0.0231761,-0.0240827 -0.0474034,-0.0475369 -0.0724316,-0.0703793 -0.0029867,-0.00233596 -0.00601789,-0.00466637 -0.00908801,-0.00694671l0.00147388 3.33709e-005c-0.11716,-0.105697 -0.250933,-0.197917 -0.37495,-0.276778 -0.124017,0.0788499 -0.25774,0.171087 -0.374894,0.276778l0.0014127 -3.33709e-005c-0.00294776,0.00219136 -0.00584547,0.00442165 -0.00871537,0.00666306 -0.0251728,0.0229703 -0.0495558,0.0465413 -0.0728598,0.0707686 -0.111971,0.133867 -0.134857,0.298608 -0.134857,0.298608 -0.0313631,-0.118734 -0.0334321,-0.261906 -0.033382,-0.300594 -0.0429372,0.118928 -0.0526426,0.224603 -0.0452843,0.314226 -0.0759466,0.162833 -0.115119,0.333253 -0.136899,0.516632 -0.0206121,0.173607 -0.0218524,0.347386 -0.025145,0.521554l-0.20141 0c-0.00547839,-0.179402 -0.00842616,-0.387625 0.00258068,-0.634692 0.037926,-0.85127 0.722096,-1.19815 0.989486,-1.28267 0.0525258,-0.016602 0.0389327,-0.0140714 0.0991561,0.00628486 0.279465,0.0945454 0.933206,0.444806 0.970259,1.27639 0.0110013,0.247067 0.00805908,0.45529 0.00258068,0.634692l-0.20141 0c-0.0032926,-0.174168 -0.00453288,-0.347947 -0.025145,-0.521554 -0.0217801,-0.183384 -0.0609297,-0.353815 -0.136882,-0.516654 0.00735829,-0.0896176 -0.00235821,-0.195303 -0.045301,-0.314221zm-1.38988 1.44132c-0.00143495,-0.00270304 -0.00289215,-0.0053894 -0.00436603,-0.00808688l-0.00018354 -0.000344833 -0.000194664 -0.000350395 -0.000834273 -0.00150169 -0.00335934 -0.00602345 -0.000850958 -0.00151838 -0.000272529 -0.00048944 -0.000578429 -0.00101225c-0.00145163,-0.00255287 -0.00293108,-0.00510575 -0.00441608,-0.00765862l-0.00133484 -0.00228035 -0.00394333 -0.00663525 -0.000901015 -0.00150169 -0.000867644 -0.00144051c-0.00182984,-0.00303119 -0.00369861,-0.00607351 -0.00558963,-0.00909914l-0.12503 -0.0196499 -0.00422698 -0.000661856 -0.297107 0.0393165c-0.0222862,0.0407959 -0.042559,0.0843895 -0.0551955,0.129062 0.084078,-0.018671 0.227217,-0.0445224 0.396869,-0.0509018 0.103044,0.373548 -0.0499785,0.689426 -0.065457,0.719922l0.00112905 0.00357069 0.00870425 0.004049c0.0575148,-0.0570364 0.110141,-0.122021 0.146693,-0.181326 0.118155,-0.191699 0.124868,-0.381652 0.035223,-0.567978l-0.000728598 -0.00151838 -5.56182e-005 -0.000116798 -0.00365411 -0.00744171 -0.000750846 -0.00150169 -0.000756407 -0.00151838 -0.000761969 -0.00150725 -0.00213574 -0.00418249 -0.00372086 -0.00714694 -0.00134596 -0.00252507z"/>
    <path id="_162634928" class="fil1" d="M4.63224 7.38348c0.0315967,-0.170642 0.0858189,-0.485814 0.102176,-0.720233 0,0 -0.0784828,0.447337 -0.222362,0.695856l0.00217467 0.0243775 0.118011 0z"/>
    <path id="_162634856" class="fil1" d="M2.41838 6.7267c0,0 -0.00784773,-0.0941727 0.0575537,-0.306067 0,0 -0.00784773,0.196199 0.0235432,0.397631 0.0313909,0.201432 -0.0810969,-0.0915642 -0.0810969,-0.0915642z"/>
    <path id="_162634784" class="fil1" d="M4.78063 6.7267c0,0 0.00784773,-0.0941727 -0.0575537,-0.306067 0,0 0.00784773,0.196199 -0.0235432,0.397631 -0.0313909,0.201432 0.0810969,-0.0915642 0.0810969,-0.0915642z"/>
    <path id="_162634712" class="fil1" d="M2.56189 6.71848c0,0 0.0157121,-0.565559 0.455591,-0.921643 0,0 -0.356095,0.434639 -0.356095,0.947828l-0.0755796 0.0160792 -0.0239158 -0.0422587 0 -5.56182e-006z"/>
    <path id="_162634640" class="fil1" d="M4.63713 6.71848c0,0 -0.0157121,-0.565559 -0.455591,-0.921643 0,0 0.356095,0.434639 0.356095,0.947828l0.0755796 0.0160792 0.0239158 -0.0422587 0 -5.56182e-006z"/>
    <path id="_162634568" class="fil1" d="M2.89474 6.83431l0.0279315 0.45949c0,0 -0.58685,0.0402564 -0.679376,0.0521587 0,0 -0.0602512,-0.340723 -0.0651456,-0.477515l0.356585 -0.0520086 0.360005 0.0178757z"/>
    <path id="_162634496" class="fil5" d="M2.80061 6.86909c0,0 -0.227929,-0.0358125 -0.534391,0.0141215 0,0 0.0169302,0.281662 0.0535937,0.430835 0,0 0.289721,-0.0673703 0.506654,-0.0459184l-0.0236933 -0.375022c0,0 -0.00192439,-0.0230426 -0.00216355,-0.0240159z"/>
    <path id="_162634424" class="fil6" d="M2.31189 6.87632c-0.0150169,0.00209681 -0.030234,0.00437715 -0.0456681,0.00689109 0,0 0.0169302,0.281662 0.0535937,0.430835 0,0 0.020156,-0.00469974 0.0537995,-0.0112015 -0.0390607,-0.113394 -0.0589998,-0.38688 -0.0617251,-0.426525z"/>
    <path id="_162634352" class="fil7" d="M2.76539 6.86481c-0.0275421,-0.00283097 -0.0703125,-0.00626261 -0.124996,-0.00758632 0.005128,0.0888445 0.0208401,0.368126 0.0180592,0.407909l0.00277535 0.000817587c0.0405345,-0.00217467 0.0815251,-0.00277535 0.12102,-0.000967756l-0.00242495 -0.00288658 -0.0144329 -0.397286z"/>
    <path id="_162634280" class="fil7" d="M2.80061 6.86909c0,0 -0.227929,-0.0358125 -0.534391,0.0141215 0,0 0.000895453,0.0146665 0.00268636,0.0390162 0.0880603,-0.0149724 0.341407,-0.0505458 0.535481,-0.00362074l-0.00161293 -0.0255009c0,0 -0.00192439,-0.0230426 -0.00216355,-0.0240159z"/>
    <path id="_161810376" class="fil1" d="M2.84156 7.23708c-0.109735,-0.0188991 -0.296284,-0.0241439 -0.525186,0.0425479 -0.0608407,0.0177255 -0.108433,0.0217022 -0.10494,0.0847899 0.00505569,0.0914307 0.0335433,0.129969 0.116426,0.118472 0.129101,-0.0179091 0.29897,-0.0484657 0.492199,-0.0395167 0.111592,0.00516693 0.142811,-0.0260071 0.137004,-0.116186 -0.0043549,-0.0675872 -0.0434934,-0.0776986 -0.115502,-0.090107z"/>
    <path id="_166335024" class="fil5" d="M2.87752 7.38137l-0.0100725 -0.0701345c0,0 -0.218201,-0.0491609 -0.57289,0.0375645l-0.00109012 0.0636995c0,0 0.2911,-0.0511409 0.584052,-0.0311295z"/>
    <path id="_161807136" class="fil7" d="M2.7991 7.30183c-0.028699,-0.00260849 -0.0660466,-0.00467749 -0.11122,-0.00444389l-0.000750846 0.0798232c0.0362686,-0.000706351 0.0736663,-0.000656295 0.111526,0.000411575l0.000444945 -0.0757909z"/>
    <path id="_161807928" class="fil6" d="M2.84829 7.30781c-0.0604013,-0.0094829 -0.260388,-0.0307124 -0.553729,0.0410129l-0.00109012 0.0636995c0,0 0.0197333,-0.00345945 0.0540164,-0.00822593l0.00223585 -0.0388938c0,0 0.202367,-0.079039 0.498567,-0.0575926z"/>
    <path id="_161807856" class="fil1" d="M2.86587 6.70888c-0.11563,-0.0216688 -0.36332,-0.0481097 -0.66298,0.0377203 -0.141593,0.0405512 -0.0683714,0.21482 0.0531432,0.180626 0.10721,-0.0301673 0.317952,-0.0769255 0.567773,-0.0465079 0.113489,0.0138211 0.18092,-0.145809 0.042064,-0.171838z"/>
    <path id="_161806848" class="fil5" d="M2.82572 6.82537c0.0355956,-0.0101893 0.0407348,-0.0277368 0.0154118,-0.0526537 0,0 -0.30451,-0.0629042 -0.632195,0.0323698 -0.0112738,0.0353009 0.00244164,0.0503678 0.0275143,0.0562244 0,0 0.280321,-0.0841114 0.589269,-0.0359405z"/>
    <path id="_161682032" class="fil6" d="M2.74514 6.7595c-0.115474,-0.0112682 -0.320834,-0.0169858 -0.536209,0.0456347 -0.0120803,0.0257957 -0.0089879,0.0465635 0.0275143,0.0562244 0,0 0.0127254,-0.00326479 0.0357124,-0.00792559 -0.0324476,-0.0804016 0.364438,-0.0937166 0.420585,-0.0925932 0.0195998,0.000389327 0.0369583,-0.000111236 0.0523979,-0.0013404z"/>
    <path id="_161807568" class="fil1" d="M4.30428 6.83431l-0.0279315 0.45949c0,0 0.58685,0.0402564 0.679376,0.0521587 0,0 0.0602512,-0.340723 0.0651456,-0.477515l-0.356585 -0.0520086 -0.360005 0.0178757z"/>
    <path id="_161807424" class="fil5" d="M4.3984 6.86909c0,0 0.227929,-0.0358125 0.534391,0.0141215 0,0 -0.0169302,0.281662 -0.0535937,0.430835 0,0 -0.289721,-0.0673703 -0.506654,-0.0459184l0.0236933 -0.375022c0,0 0.00192439,-0.0230426 0.00216355,-0.0240159z"/>
    <path id="_161807784" class="fil6" d="M4.88713 6.87632c0.0150169,0.00209681 0.030234,0.00437715 0.0456681,0.00689109 0,0 -0.0169302,0.281662 -0.0535937,0.430835 0,0 -0.020156,-0.00469974 -0.0537995,-0.0112015 0.0390607,-0.113394 0.0589998,-0.38688 0.0617251,-0.426525z"/>
    <path id="_161807712" class="fil7" d="M4.43362 6.86481c0.0275421,-0.00283097 0.0703125,-0.00626261 0.124996,-0.00758632 -0.005128,0.0888445 -0.0208401,0.368126 -0.0180592,0.407909l-0.00277535 0.000817587c-0.0405345,-0.00217467 -0.0815251,-0.00277535 -0.12102,-0.000967756l0.00242495 -0.00288658 0.0144329 -0.397286z"/>
    <path id="_161808144" class="fil7" d="M4.3984 6.86909c0,0 0.227929,-0.0358125 0.534391,0.0141215 0,0 -0.000895453,0.0146665 -0.00268636,0.0390162 -0.0880603,-0.0149724 -0.341407,-0.0505458 -0.535481,-0.00362074l0.00161293 -0.0255009c0,0 0.00192439,-0.0230426 0.00216355,-0.0240159z"/>
    <path id="_166333848" class="fil1" d="M4.35746 7.23708c0.109735,-0.0188991 0.296284,-0.0241439 0.525186,0.0425479 0.0608407,0.0177255 0.108433,0.0217022 0.10494,0.0847899 -0.00505569,0.0914307 -0.0335433,0.129969 -0.116426,0.118472 -0.129101,-0.0179091 -0.29897,-0.0484657 -0.492199,-0.0395167 -0.111592,0.00516693 -0.142811,-0.0260071 -0.137004,-0.116186 0.0043549,-0.0675872 0.0434934,-0.0776986 0.115502,-0.090107z"/>
    <path id="_161808072" class="fil5" d="M4.32149 7.38137l0.0100725 -0.0701345c0,0 0.218201,-0.0491609 0.57289,0.0375645l0.00109012 0.0636995c0,0 -0.2911,-0.0511409 -0.584052,-0.0311295z"/>
    <path id="_161808000" class="fil7" d="M4.39992 7.30183c0.028699,-0.00260849 0.0660466,-0.00467749 0.11122,-0.00444389l0.000750846 0.0798232c-0.0362686,-0.000706351 -0.0736663,-0.000656295 -0.111526,0.000411575l-0.000444945 -0.0757909z"/>
    <path id="_161683016" class="fil6" d="M4.35073 7.30781c0.0604013,-0.0094829 0.260388,-0.0307124 0.553729,0.0410129l0.00109012 0.0636995c0,0 -0.0197333,-0.00345945 -0.0540164,-0.00822593l-0.00223585 -0.0388938c0,0 -0.202367,-0.079039 -0.498567,-0.0575926z"/>
    <path id="_161683184" class="fil1" d="M4.33315 6.70888c0.11563,-0.0216688 0.36332,-0.0481097 0.66298,0.0377203 0.141593,0.0405512 0.0683714,0.21482 -0.0531432,0.180626 -0.10721,-0.0301673 -0.317952,-0.0769255 -0.567773,-0.0465079 -0.113489,0.0138211 -0.18092,-0.145809 -0.042064,-0.171838z"/>
    <path id="_161806752" class="fil5" d="M4.3733 6.82537c-0.0355956,-0.0101893 -0.0407348,-0.0277368 -0.0154118,-0.0526537 0,0 0.30451,-0.0629042 0.632195,0.0323698 0.0112738,0.0353009 -0.00244164,0.0503678 -0.0275143,0.0562244 0,0 -0.280321,-0.0841114 -0.589269,-0.0359405z"/>
    <path id="_161804544" class="fil6" d="M4.45388 6.7595c0.115474,-0.0112682 0.320834,-0.0169858 0.536209,0.0456347 0.0120803,0.0257957 0.0089879,0.0465635 -0.0275143,0.0562244 0,0 -0.0127254,-0.00326479 -0.0357124,-0.00792559 0.0324476,-0.0804016 -0.364438,-0.0937166 -0.420585,-0.0925932 -0.0195998,0.000389327 -0.0369583,-0.000111236 -0.0523979,-0.0013404z"/>
    <path id="_166349832" class="fil1" d="M2.66167 7.40688c0,0 0.125569,0.258986 0.0784828,0.551977 0,0 0.0967923,-0.198813 0.0418582,-0.533662l-0.0601733 -0.0183151 -0.0601678 0z"/>
    <path id="_166340088" class="fil1" d="M4.53734 7.40688c0,0 -0.125569,0.258986 -0.0784828,0.551977 0,0 -0.0967923,-0.198813 -0.0418582,-0.533662l0.0601733 -0.0183151 0.0601678 0z"/>
    <circle id="_161810088" class="fil6" cx="2.35943" cy="6.77284" r="0.0554847"/>
    <circle id="_161806920" class="fil6" cx="4.83958" cy="6.77284" r="0.0554847"/>
    <path id="_161804616" class="fil1" d="M2.87618 6.99353c0,0 -0.0994064,-0.0287768 -0.43687,-0.00261405 0,0 0.219742,-0.0784828 0.405479,-0.0863305l0.0209291 0.05232 0.0104618 0.0366246z"/>
    <polygon id="_161807208" class="fil6" points="4.90519,7.10869 4.49573,7.09561 4.90121,7.0093 4.90516,7.06163 "/>
    <path id="_161807352" class="fil8" d="M3.59428 5.90543c0.135269,0.00100113 0.245593,0.108328 0.174391,0.128428 -0.0344777,0.00973318 -0.10622,-0.0039767 -0.178495,-0.00174641 -0.11647,0.00358737 -0.198451,0.0308014 -0.208279,0.00746952 -0.0163796,-0.0388994 0.0771146,-0.135147 0.212384,-0.134151z"/>
   </g>
  </g>
 </g>
</svg>
