<?xml version="1.0" encoding="UTF-8"?>
<!DOCTYPE svg PUBLIC "-//W3C//DTD SVG 1.1//EN" "http://www.w3.org/Graphics/SVG/1.1/DTD/svg11.dtd">
<!-- Creator: CorelDRAW -->
<svg xmlns="http://www.w3.org/2000/svg" xml:space="preserve" width="129.436mm" height="197.989mm" style="shape-rendering:geometricPrecision; text-rendering:geometricPrecision; image-rendering:optimizeQuality; fill-rule:evenodd; clip-rule:evenodd"
viewBox="0 0 12.4921 19.1081"
 xmlns:xlink="http://www.w3.org/1999/xlink">
 <defs>
  <style type="text/css">
   <![CDATA[
    .fil0 {fill:none}
    .fil4 {fill:#4B3446}
    .fil1 {fill:#501D33}
    .fil3 {fill:#634C54}
    .fil5 {fill:#896E6B}
    .fil2 {fill:#FFCFA5}
   ]]>
  </style>
 </defs>
 <g id="Layer_x0020_1">
  <metadata id="CorelCorpID_0Corel-Layer"/>
  <g id="_282591032">
   <rect id="_284821936" class="fil0" width="12.4921" height="19.1081"/>
   <g id="_161807496">
    <path id="_102351984" class="fil1" d="M5.96021 10.8891c0,0 0.0802201,-0.204623 0.307022,-0.204623 0.226821,0 0.315331,0.226 0.315331,0.226 0,0 -0.226811,-0.174077 -0.622353,-0.0213772z"/>
    <path id="_102351912" class="fil2" d="M6.25259 10.4321c0.15684,0.00149592 0.284756,0.162438 0.20221,0.192588 -0.0399846,0.0145925 -0.123168,-0.00596439 -0.206968,-0.00262511 -0.135039,0.00537568 -0.230102,0.0461903 -0.24149,0.011205 -0.0189934,-0.0583314 0.0894177,-0.202664 0.246248,-0.201168z"/>
    <path id="_102351840" class="fil1" d="M4.86213 11.4629c-1.33549,0.283434 -2.10673,-0.632293 -2.25357,-0.951157 0,0 -0.0565749,-0.0491918 0.0110312,-0.0589684 1.14292,-0.165401 1.58152,-0.833529 1.89925,-1.40751 0.186267,-0.336486 0.381972,-0.472027 0.781297,-0.391247 0.252068,0.0509869 0.451692,0.226763 0.811322,0.45201 0.179897,0.112677 0.318757,0.220026 0.31122,0.459316 -0.035989,1.14303 -0.925929,1.76287 -1.56056,1.89757l0 -9.65112e-006z"/>
    <path id="_102351768" class="fil1" d="M7.62996 11.4651c1.33548,0.283425 2.10672,-0.632293 2.25356,-0.951167 0,0 0.0565749,-0.0491821 -0.0110312,-0.0589684 -1.10775,-0.160305 -1.55387,-0.792888 -1.86956,-1.35427 -0.206814,-0.367775 -0.467491,-0.541032 -0.944305,-0.439348 -0.273744,0.0583797 -1.00001,0.563597 -0.989221,0.906202 0.035989,1.14303 0.925929,1.76287 1.56057,1.89757l-9.65112e-006 -9.65112e-006z"/>
    <path id="_102351696" class="fil3" d="M6.24302 9.82677c-0.417179,1.71598 -2.40048,2.0428 -3.47926,0.726517 1.13313,-0.0535348 1.58605,-0.762883 1.93111,-1.41208 0.137432,-0.258573 0.358481,-0.287546 0.591681,-0.235246 0.212856,0.0477441 0.413145,0.14799 0.792888,0.357661 0.084264,0.0465281 0.136843,0.0993197 0.167129,0.158713 0.0304589,-0.0585148 0.0828356,-0.110573 0.166067,-0.156532 0.771559,-0.426001 0.991972,-0.378604 0.991972,-0.378604 0.129219,-0.000492207 0.321112,0.120494 0.359591,0.193708 0.349622,0.665349 0.794509,1.41933 1.96411,1.47458 -1.07878,1.31628 -3.06208,0.989472 -3.47926,-0.726527l-0.00328138 -0.0135791 -0.00274092 0.011398 -9.65112e-006 0z"/>
    <path id="_102351624" class="fil4" d="M9.65636 10.5736c0,0 -0.760402,0.315553 -1.85557,-0.306664 0,0 0.504464,0.484216 1.38721,0.523139 -0.019891,0.0072673 -0.0395986,0.0141196 -0.0592772,0.020914 -0.441182,0.063128 -1.89916,0.161145 -2.73802,-1.11418 0,0 0.26529,0.725166 0.999895,1.11675 -0.653101,-0.274565 -1.01559,-0.82023 -1.13965,-1.0287 0.00297255,-0.0114076 0.00615742,-0.0226415 0.0089852,-0.0341746 -0.0043237,0.00748927 -0.00925543,0.0159437 -0.0145153,0.024842 -0.00481591,-0.0081359 -0.00924578,-0.0157313 -0.0132413,-0.0226512 0.00257685,0.0105197 0.00542393,0.0208271 0.00820346,0.0311828 -0.124905,0.209613 -0.487507,0.753753 -1.13953,1.02769 0.735145,-0.391498 1.00055,-1.11712 1.00055,-1.11712 -0.838885,1.27539 -2.29704,1.17726 -2.73821,1.11414 -0.0193698,-0.00668823 -0.0388265,-0.013637 -0.0584086,-0.0207692 0.882422,-0.039116 1.38653,-0.523245 1.38653,-0.523245 -1.09518,0.622218 -1.85557,0.306664 -1.85557,0.306664l0.0308257 0.0266371c-0.0150171,-0.00752788 -0.0301212,-0.0151426 -0.0452541,-0.0229311 -0.00440091,-0.000443952 -0.00684265,-0.000733485 -0.00684265,-0.000733485 1.04007,1.21055 2.98903,0.868785 3.43129,-0.769832 0.441124,1.64048 2.39133,1.9831 3.43185,0.772022 0,0 -0.00244173,0.000279883 -0.006833,0.000733485 -0.0148917,0.00766299 -0.0295131,0.0146987 -0.0442987,0.0221107l0.0298702 -0.0258168 9.65112e-006 0z"/>
    <path id="_102351552" class="fil5" d="M7.65914 9.23556c0.0827005,0.228857 0.225566,0.551021 0.435401,0.781065 0,0 -0.453612,-0.341119 -0.633027,-0.988449 -0.0624717,0.0102109 -0.139584,0.0278435 -0.224234,0.049877 0.0239251,0.15713 0.0944556,0.518941 0.266207,0.795967 0,0 -0.225614,-0.286793 -0.323235,-0.548676 -0.0355547,-0.0953628 -0.0584279,-0.163567 -0.0731941,-0.211746 -0.0611013,0.0173527 -0.124036,0.0360469 -0.186614,0.0551465 0.0252184,0.137229 0.080751,0.364591 0.192511,0.544845 0,0 -0.172002,-0.218627 -0.246432,-0.418289 -0.0150751,-0.0404382 -0.0271583,-0.0727502 -0.0368866,-0.0984994 -0.29019,0.0906627 -0.548464,0.180302 -0.54526,0.172031 0.00637939,-0.0164938 0.0408436,-0.0551562 0.0749796,-0.0744102 0.473146,-0.266931 0.77486,-0.389809 0.99477,-0.427931 0.0527144,-0.00913961 0.11009,-0.00331999 0.165469,0.0143416l2.89534e-005 -1.93022e-005 1.93022e-005 2.89534e-005c0.0998698,0.031868 0.193264,0.102369 0.241278,0.193824 0.350123,0.666854 0.794123,1.4254 1.96738,1.48083 -0.00431405,0.00526951 -0.00877287,0.0102688 -0.0131255,0.0154901 -1.21837,0.0429861 -1.83583,-0.898346 -2.05604,-1.33543zm-2.89678 0.177368c-0.0850747,0.199566 -0.205685,0.427033 -0.364832,0.601516 0,0 0.441761,-0.332201 0.625808,-0.963076 0.0615452,0.00784636 0.140472,0.0238769 0.228326,0.0447812 -0.0266854,0.166279 -0.098345,0.509975 -0.26308,0.77568 0,0 0.225614,-0.286793 0.323235,-0.548666 0.0315978,-0.0847465 0.053226,-0.148 0.0680018,-0.194856 0.0617768,0.0161753 0.125667,0.0337403 0.189316,0.0517783 -0.0263186,0.138291 -0.0818608,0.35686 -0.190021,0.531323 0,0 0.172002,-0.218637 0.246432,-0.418289 0.0130001,-0.0348792 0.0238286,-0.0636395 0.0327945,-0.0874199 0.290943,0.0844956 0.552604,0.169358 0.549352,0.160942 -0.00637939,-0.0164745 -0.0408436,-0.0551465 -0.0749796,-0.0744102 -0.429562,-0.24234 -0.722667,-0.37788 -0.946563,-0.423829 -0.241568,-0.0495585 -0.376153,0.0559572 -0.488636,0.267819 -0.345394,0.650563 -0.797723,1.36341 -1.93376,1.41708 0.00431405,0.00527916 0.00877287,0.0102688 0.0131255,0.0154901 1.08726,0.0383536 1.70493,-0.693153 1.98548,-1.15587z"/>
    <path id="_102415992" class="fil1" d="M2.74424 10.5009c0,0 0.379579,0.328534 1.01076,0.327829 0,0 -0.50209,0.178054 -0.903258,-0.0727019l-0.121218 -0.126073 0.0137142 -0.129055z"/>
    <path id="_102417096" class="fil1" d="M9.74784 10.5031c0,0 -0.379588,0.328534 -1.01077,0.32782 0,0 0.50209,0.178054 0.903258,-0.0726923l0.121228 -0.126073 -0.0137142 -0.129055z"/>
    <path id="_102487072" class="fil1" d="M4.67638 11.0265c0,0 -0.226724,0.241876 -0.992715,0.304686l-0.468475 -0.191922 -0.17316 -0.293018c-0.0896879,-0.151745 0.473204,0.635314 1.63434,0.180254l9.65112e-006 0z"/>
    <path id="_102487168" class="fil1" d="M7.8157 11.0287c0,0 0.226724,0.241876 0.992715,0.304686l0.468475 -0.191932 0.17316 -0.293008c0.0896879,-0.151754 -0.473204,0.635314 -1.63434,0.180254l-9.65112e-006 0z"/>
    <path id="_102487984" class="fil1" d="M5.49513 8.94598c0,0 -0.13085,0.566753 -0.507196,0.931777 0,0 0.288154,-0.385977 0.397617,-0.991045l0.0350529 0.00262511 0.074526 0.0566424z"/>
    <path id="_102487912" class="fil1" d="M6.99694 8.94817c0,0 0.13085,0.566753 0.507196,0.931787 0,0 -0.288154,-0.385987 -0.397617,-0.991045l-0.0350529 0.00262511 -0.074526 0.0566328z"/>
    <path id="_102487336" class="fil1" d="M5.76529 9.00556c0,0 -0.0997637,0.432081 -0.386672,0.710361 0,0 0.219679,-0.294253 0.303142,-0.755538l0.0267143 0.00200743 0.0568162 0.0431695z"/>
    <path id="_102487672" class="fil1" d="M6.72678 9.00774c0,0 0.0997637,0.43209 0.386672,0.710371 0,0 -0.219679,-0.294263 -0.303132,-0.755548l-0.026724 0.00200743 -0.0568162 0.0431695z"/>
   </g>
  </g>
 </g>
</svg>
