<?xml version="1.0" encoding="UTF-8"?>
<!DOCTYPE svg PUBLIC "-//W3C//DTD SVG 1.1//EN" "http://www.w3.org/Graphics/SVG/1.1/DTD/svg11.dtd">
<!-- Creator: CorelDRAW -->
<svg xmlns="http://www.w3.org/2000/svg" xml:space="preserve" width="129.436mm" height="197.989mm" style="shape-rendering:geometricPrecision; text-rendering:geometricPrecision; image-rendering:optimizeQuality; fill-rule:evenodd; clip-rule:evenodd"
viewBox="0 0 9.17232 14.0302"
 xmlns:xlink="http://www.w3.org/1999/xlink">
 <defs>
  <style type="text/css">
   <![CDATA[
    .fil0 {fill:none}
    .fil4 {fill:#4B3446}
    .fil1 {fill:#501D33}
    .fil2 {fill:#634C54}
    .fil3 {fill:#896E6B}
    .fil5 {fill:#FFCFA5}
   ]]>
  </style>
 </defs>
 <g id="Layer_x0020_1">
  <metadata id="CorelCorpID_0Corel-Layer"/>
  <g id="_283269488">
   <rect id="_271012072" class="fil0" width="9.17232" height="14.0302"/>
   <g id="_166338312">
    <path id="_166346976" class="fil1" d="M5.33669 6.57185c0,0 0.707019,0.0738114 0.972573,1.11524 0,0 -0.844282,0.478669 -1.51267,-0.174197 -0.0887211,-0.086659 -0.40575,-0.396743 -0.426046,-0.670673 0.326341,-0.238959 0.608342,-0.305741 0.966146,-0.270365z"/>
    <path id="_166324824" class="fil1" d="M3.83561 6.57185c0,0 -0.707019,0.0738114 -0.972573,1.11524 0,0 0.844282,0.478669 1.51267,-0.174197 0.0887211,-0.086659 0.40575,-0.396743 0.426046,-0.670673 -0.326341,-0.238959 -0.608342,-0.305741 -0.966146,-0.270365z"/>
    <path id="_166323672" class="fil2" d="M3.86419 6.67674c0,0 -0.593453,0.146156 -0.857243,0.926859 0,0 -0.0141089,0.0234771 -0.00460613,0.031187 0.00950279,0.00770286 0.93858,0.434259 1.52133,-0.502918 0.025851,-0.0655346 0.0460329,-0.109449 0.0624803,-0.147424 0.0164545,0.0379757 0.0366506,0.0818899 0.0625016,0.147424 0.582739,0.937177 1.51182,0.510621 1.52133,0.502918 0.00950279,-0.00770995 -0.00460613,-0.031187 -0.00460613,-0.031187 -0.263796,-0.780703 -0.857243,-0.926859 -0.857243,-0.926859 -0.297031,-0.00355735 -0.595927,0.0644433 -0.721979,0.162412 -0.126045,-0.0979688 -0.424912,-0.165969 -0.721943,-0.162412l-1.41727e-005 0z"/>
    <path id="_166346376" class="fil3" d="M5.30812 6.67674c0,0 0.593453,0.146156 0.857243,0.926859 0,0 0.00668951,0.0192607 -0.00251565,0.0267155 -0.00920517,0.00745484 -0.796818,0.338019 -1.37905,-0.386532 0.0267297,-0.0340003 0.0388757,-0.0195016 0.0814151,-0.0541326 0,0 0.482417,0.395397 1.13029,0.359186 -0.0405056,-0.0468337 -0.183614,-0.20386 -0.517807,-0.495456 0,0 0.318701,0.182119 0.495442,0.339847 -0.100832,-0.223461 -0.288861,-0.489362 -0.665011,-0.716487zm-2.13665 0.871819c0.0408174,-0.0471597 0.184004,-0.204136 0.517573,-0.495187 0,0 -0.307732,0.175834 -0.486117,0.331599 0.101725,-0.221732 0.289747,-0.483898 0.661277,-0.708238 0,0 -0.593453,0.146156 -0.857243,0.926859 0,0 -0.00668951,0.0192607 0.00251565,0.0267155 0.00920517,0.00745484 0.796818,0.338019 1.37905,-0.386532 -0.0267297,-0.0340003 -0.0388757,-0.0195016 -0.0814151,-0.0541326 0,0 -0.485075,0.397629 -1.13564,0.358917z"/>
    <path id="_166335672" class="fil4" d="M6.17278 7.62204c0.000956657,0.00507383 0.000630685,0.00995632 -0.00281328,0.0127483 -0.00709344,0.00574703 -0.527288,0.245195 -1.03294,-0.0245613 -0.192572,-0.102731 -0.447942,-0.334398 -0.55085,-0.568963 -0.102901,0.234565 -0.358314,0.466232 -0.550886,0.568963 -0.505661,0.269756 -1.02586,0.0303083 -1.03294,0.0245613 -0.00344397,-0.00279202 -0.00376994,-0.00767452 -0.00281328,-0.0127483 0.0931926,0.00858866 0.879508,0.0596387 1.33297,-0.609795 0.0296564,-0.0437795 0.125081,-0.202181 0.151017,-0.231185 0.0464794,0.0166175 0.0753421,0.0340853 0.102653,0.0534807 0.0273179,-0.0193953 0.0561381,-0.0368632 0.102617,-0.0534807 0.025936,0.0290044 0.121361,0.187406 0.151017,0.231185 0.453463,0.669433 1.23978,0.618383 1.33297,0.609795z"/>
    <path id="_164640344" class="fil1" d="M4.06526 7.29925c0.215418,-0.0963531 0.417684,-0.299285 0.489277,-0.540164l-0.156863 -0.0468337c-0.0559751,0.213554 -0.161746,0.42365 -0.332414,0.586998z"/>
    <path id="_166335048" class="fil1" d="M5.10705 7.29925c-0.215418,-0.0963531 -0.417684,-0.299285 -0.489277,-0.540164l0.156863 -0.0468337c0.0559751,0.213554 0.161746,0.42365 0.332414,0.586998z"/>
    <path id="_166335000" class="fil1" d="M4.27743 7.91904c0,0 0.0881471,-0.203648 0.337381,-0.203648 0.249241,0 0.346501,0.224928 0.346501,0.224928 0,0 -0.249234,-0.173254 -0.683882,-0.0212803z"/>
    <path id="_162634064" class="fil5" d="M4.59871 7.50102c0.172347,0.00127554 0.312912,0.138021 0.222192,0.163631 -0.0439283,0.0124011 -0.135335,-0.00506674 -0.227422,-0.00222511 -0.148395,0.0045707 -0.252848,0.0392442 -0.26537,0.00951697 -0.0208693,-0.0495619 0.0982522,-0.172191 0.270599,-0.170923z"/>
   </g>
  </g>
 </g>
</svg>
