<?xml version="1.0" encoding="UTF-8"?>
<!DOCTYPE svg PUBLIC "-//W3C//DTD SVG 1.1//EN" "http://www.w3.org/Graphics/SVG/1.1/DTD/svg11.dtd">
<!-- Creator: CorelDRAW -->
<svg xmlns="http://www.w3.org/2000/svg" xml:space="preserve" width="129.436mm" height="197.989mm" style="shape-rendering:geometricPrecision; text-rendering:geometricPrecision; image-rendering:optimizeQuality; fill-rule:evenodd; clip-rule:evenodd"
viewBox="0 0 282.475 432.081"
 xmlns:xlink="http://www.w3.org/1999/xlink">
 <defs>
  <style type="text/css">
   <![CDATA[
    .fil0 {fill:none}
    .fil4 {fill:#4B3446}
    .fil1 {fill:#501D33}
    .fil2 {fill:#634C54}
    .fil3 {fill:#896E6B}
    .fil5 {fill:#FFCFA5}
   ]]>
  </style>
 </defs>
 <g id="Layer_x0020_1">
  <metadata id="CorelCorpID_0Corel-Layer"/>
  <g id="_261217560">
   <rect id="_260330976" class="fil0" width="282.475" height="432.081"/>
   <g>
    <path id="_260319024" class="fil1" d="M124.814 198.482c-2.80017,-0.565228 -5.94472,-1.34476 -9.41116,-0.604729 -10.8995,2.32747 -12.064,17.1491 -20.089,19.0478 -8.02493,1.89864 -13.7804,-3.73574 -13.7804,-3.73574 -3.44156,15.6178 9.03187,27.6848 22.9072,25.8473 0,0 16.1705,5.26732 24.6826,-6.43138 0,0 6.38533,0.953905 12.2366,-2.70895 5.85153,3.66285 12.2373,2.70873 12.2373,2.70873 8.51181,11.6989 24.6826,6.43138 24.6826,6.43138 13.8752,1.83797 26.3486,-10.2293 22.907,-25.8473 0,0 -5.75573,5.63461 -13.7802,3.73574 -8.02471,-1.89755 -9.18943,-16.7203 -20.089,-19.0475 -2.5623,-0.546897 -4.99518,-0.44018 -7.18626,0.0113482 -13.2034,2.72139 -20.7624,3.53148 -35.3174,0.593381z"/>
    <path id="_260320968" class="fil2" d="M148.356 207.521c10.8389,-9.54537 19.9133,-8.76169 26.222,-0.491028 3.79969,4.98165 4.35553,10.1673 11.1154,12.6519 3.138,1.15337 7.32985,1.36419 12.6755,-0.980311 0,0 1.65313,11.884 -12.6792,16.049 0,0 -10.1261,2.79057 -16.8517,-7.41998 0,0 0.978347,5.625 5.80854,9.23221 0,0 -16.8137,3.11814 -24.1505,-15.8353 0,0 -0.489283,4.58555 1.65073,8.4985 0,0 -12.3503,1.16166 -16.1411,-12.7783l8.80425 -6.05296 3.5461 -2.87372z"/>
    <path id="_260313768" class="fil3" d="M154.77 202.941c8.01751,-4.33131 14.7891,-2.49159 19.8087,4.08928 3.79969,4.98165 4.35553,10.1673 11.1154,12.6519 3.07886,1.13177 7.17272,1.35524 12.3757,-0.851552 -0.0530311,0.0272794 -0.103007,0.0554317 -0.156256,0.0829292 -13.134,6.76048 -18.938,1.13329 -22.6927,-4.97139 -5.20075,-8.45551 -8.73049,-13.2272 -20.4565,-10.6265 0,0 0.000218235,-0.133778 0.00567411,-0.374709z"/>
    <path id="_260315784" class="fil4" d="M198.228 218.763l1.10776 -0.168696c-1.76072,15.8312 -21.8311,17.4658 -30.497,8.7366 0,0 0.978347,5.625 5.80854,9.23221 0,0 -16.3857,0.6726 -24.1505,-15.8353 0,0 -0.489283,4.58555 1.65073,8.4985 0,0 -12.3503,1.16166 -16.1411,-12.7783l7.61705 -5.23676c2.53327,1.09074 6.65005,-1.17301 6.45015,-1.17301 0,0 0.311421,13.2835 12.4376,15.1217l-0.702716 -4.30817c-0.0578322,-0.356159 25.4536,16.5309 36.4195,-2.08873z"/>
    <path id="_260320944" class="fil1" d="M198.187 217.672c0,0 -4.76887,9.72127 -16.5079,10.0881 0,0 13.512,3.36278 18.6479,-7.7648l-0.489283 -2.62908 -1.65073 0.305747z"/>
    <path id="_260317440" class="fil3" d="M177.399 217.122c0,0 -3.79074,-5.74721 -13.5733,-8.25386 0,0 6.66446,-0.733706 9.41574,0.55017 2.75129,1.28409 4.15759,7.70369 4.15759,7.70369z"/>
    <path id="_275989920" class="fil2" d="M134.364 207.521c-10.8389,-9.54537 -19.9133,-8.76169 -26.222,-0.491028 -3.79969,4.98165 -4.35553,10.1673 -11.1154,12.6519 -3.138,1.15337 -7.32985,1.36419 -12.6755,-0.980311 0,0 -1.65313,11.884 12.6792,16.049 0,0 10.1261,2.79057 16.8517,-7.41998 0,0 -0.978347,5.625 -5.80854,9.23221 0,0 16.8137,3.11814 24.1505,-15.8353 0,0 0.489283,4.58555 -1.65073,8.4985 0,0 12.3503,1.16166 16.1411,-12.7783l-8.80425 -6.05296 -3.5461 -2.87372z"/>
    <path id="_272239376" class="fil3" d="M127.951 202.941c-8.01751,-4.33131 -14.7891,-2.49159 -19.8087,4.08928 -3.79969,4.98165 -4.35553,10.1673 -11.1154,12.6519 -3.07886,1.13177 -7.17272,1.35524 -12.3757,-0.851552 0.0530311,0.0272794 0.103007,0.0554317 0.156256,0.0829292 13.134,6.76048 18.938,1.13329 22.6927,-4.97139 5.20075,-8.45551 8.73049,-13.2272 20.4565,-10.6265 0,0 -0.000218235,-0.133778 -0.00567411,-0.374709z"/>
    <path id="_222572312" class="fil4" d="M162.179 200.621c-8.92755,2.43616 -12.4075,6.61295 -11.0542,14.6881 0.522454,3.11792 -3.59193,5.14227 -6.72556,6.61099 -0.300291,0.486009 -0.614331,0.940592 -0.939065,1.36484 -0.743526,-0.0774734 -1.441,-0.193138 -2.10095,-0.340446 -0.659287,0.146872 -1.35742,0.262755 -2.10007,0.34001 -0.324515,-0.42403 -0.637682,-0.878177 -0.937973,-1.36397 -2.91518,-1.36615 -8.11179,-2.48635 -7.31611,-5.31227 2.57648,-9.15168 -1.99074,-13.6984 -10.5255,-15.9872 1.17672,0.035354 2.2655,0.142726 3.36562,0.352668 15.3777,2.9357 21.1101,2.31918 38.3338,-0.352668z"/>
    <path id="_260321568" class="fil4" d="M84.4927 218.763l-1.10776 -0.168696c1.76072,15.8312 21.8311,17.4658 30.497,8.7366 0,0 -0.978347,5.625 -5.80854,9.23221 0,0 16.3857,0.6726 24.1505,-15.8353 0,0 0.489283,4.58555 -1.65073,8.4985 0,0 12.3503,1.16166 16.1411,-12.7783l-7.61705 -5.23676c-2.53327,1.09074 -6.65005,-1.17301 -6.45015,-1.17301 0,0 -0.311421,13.2835 -12.4376,15.1217l0.702716 -4.30817c0.0578322,-0.356159 -25.4536,16.5309 -36.4195,-2.08873z"/>
    <path id="_253785912" class="fil1" d="M84.5335 217.672c0,0 4.76887,9.72127 16.5079,10.0881 0,0 -13.512,3.36278 -18.6479,-7.7648l0.489283 -2.62908 1.65073 0.305747z"/>
    <path id="_260330832" class="fil3" d="M105.321 217.122c0,0 3.79074,-5.74721 13.5733,-8.25386 0,0 -6.66446,-0.733706 -9.41574,0.55017 -2.75129,1.28409 -4.15759,7.70369 -4.15759,7.70369z"/>
   </g>
   <g>
    <path id="_102352272" class="fil1" d="M131.935 244.215c0,0 2.71462,-6.27163 10.3902,-6.27163 7.67576,0 10.671,6.92699 10.671,6.92699 0,0 -7.67554,-5.33562 -21.0612,-0.655359z"/>
    <path id="_102352200" class="fil5" d="M141.829 231.342c5.30769,0.0392823 9.6366,4.25056 6.84275,5.03926 -1.35284,0.381911 -4.16785,-0.156038 -7.00381,-0.0685257 -4.57006,0.140761 -7.78684,1.20858 -8.17246,0.293089 -0.642702,-1.52633 3.02583,-5.30289 8.33352,-5.26382z"/>
   </g>
  </g>
 </g>
</svg>
