<?xml version="1.0" encoding="UTF-8"?>
<!DOCTYPE svg PUBLIC "-//W3C//DTD SVG 1.1//EN" "http://www.w3.org/Graphics/SVG/1.1/DTD/svg11.dtd">
<!-- Creator: CorelDRAW 2020 (64-Bit) -->
<svg xmlns="http://www.w3.org/2000/svg" xml:space="preserve" width="129.436mm" height="197.988mm" version="1.1" style="shape-rendering:geometricPrecision; text-rendering:geometricPrecision; image-rendering:optimizeQuality; fill-rule:evenodd; clip-rule:evenodd"
viewBox="0 0 4544.68 6951.64"
 xmlns:xlink="http://www.w3.org/1999/xlink"
 xmlns:xodm="http://www.corel.com/coreldraw/odm/2003">
 <defs>
  <style type="text/css">
   <![CDATA[
    .fil0 {fill:none}
    .fil1 {fill:#501D33}
    .fil5 {fill:#B3495A}
    .fil2 {fill:#F26D70}
    .fil3 {fill:#F7AA96}
    .fil4 {fill:#FBC8B0}
   ]]>
  </style>
 </defs>
 <g id="Слой_x0020_1">
  <metadata id="CorelCorpID_0Corel-Layer"/>
  <rect id="_166536576" class="fil0" width="4544.68" height="6951.64"/>
  <g id="_790591968">
   <path class="fil1" d="M1925.42 3482.36c0,0 66.81,-14.1 265.38,-166.28 198.57,-152.18 428.7,6.68 428.7,6.68 0,0 -66.92,268.58 -336.01,285.29 -269.09,16.7 -384.05,-118.26 -384.05,-118.26l25.98 -7.42z"/>
   <path class="fil2" d="M1978.31 3497.21c0,0 73.51,-20.93 229.92,-142.23 156.41,-121.3 333.33,-31.29 333.33,-31.29 0,0 -180.94,51.96 -245.9,82.59 -64.96,30.62 -232.91,104.85 -317.35,90.93z"/>
   <ellipse class="fil3" transform="matrix(0.883606 -0.33118 0.33118 0.883606 2305.94 3334.87)" rx="79.43" ry="23.22"/>
   <path class="fil4" d="M2037.92 3469.8c37.92,-20.66 94.34,-55.9 170.31,-114.82 156.4,-121.3 333.33,-31.29 333.33,-31.29l-4.63 1.34c-101.63,-30.34 -176.69,-26.79 -235.63,-3.38 -84.72,33.64 -143.62,105.04 -263.38,148.15z"/>
   <path class="fil5" d="M1978.31 3497.21c0,0 19.02,-5.42 58.25,-26.68 203.58,-0.59 286.68,-167.78 491.69,-142.96 -42.93,12.6 -178.29,53.11 -232.59,78.71 -64.96,30.62 -232.91,104.85 -317.35,90.94z"/>
   <path class="fil5" d="M2029.34 3533.4c0,0 113.21,51.03 270.03,34.33 156.82,-16.7 260.74,-148.47 268.17,-208.78 7.11,-57.81 -463.21,159.28 -538.19,174.45z"/>
   <path class="fil1" d="M2627.83 3365.45c0,0 -63.1,-105.78 -48.25,-109.49 14.85,-3.71 65.88,38.05 69.59,51.96 3.71,13.92 19.48,135.47 -21.34,57.53z"/>
   <path class="fil1" d="M1961.57 3424.99c-6.53,-3.48 -60.32,45.47 -64.03,59.38 -2.72,10.23 -20.29,86.13 -10.25,89.78 9.59,3.48 80.81,-145.68 74.28,-149.16z"/>
   <path class="fil2" d="M2356.76 3435.53c70.41,-27.21 131.13,-48.49 141.31,-22.15 10.18,26.34 -38.08,85.62 -108.48,112.83 -70.4,27.21 -153.49,18.66 -163.66,-7.68 -10.18,-26.34 60.43,-55.8 130.84,-83.01z"/>
  </g>
 </g>
</svg>
