<?xml version="1.0" encoding="UTF-8"?>
<!DOCTYPE svg PUBLIC "-//W3C//DTD SVG 1.1//EN" "http://www.w3.org/Graphics/SVG/1.1/DTD/svg11.dtd">
<!-- Creator: CorelDRAW 2020 (64-Bit) -->
<svg xmlns="http://www.w3.org/2000/svg" xml:space="preserve" width="129.436mm" height="197.988mm" version="1.1" style="shape-rendering:geometricPrecision; text-rendering:geometricPrecision; image-rendering:optimizeQuality; fill-rule:evenodd; clip-rule:evenodd"
viewBox="0 0 772.54 1181.7"
 xmlns:xlink="http://www.w3.org/1999/xlink"
 xmlns:xodm="http://www.corel.com/coreldraw/odm/2003">
 <defs>
  <style type="text/css">
   <![CDATA[
    .fil0 {fill:none}
    .fil1 {fill:#501D33}
    .fil5 {fill:#B3495A}
    .fil2 {fill:#F26D70}
    .fil3 {fill:#F7AA96}
    .fil4 {fill:#FBC8B0}
   ]]>
  </style>
 </defs>
 <g id="Слой_x0020_1">
  <metadata id="CorelCorpID_0Corel-Layer"/>
  <rect id="_166536576" class="fil0" width="772.54" height="1181.7"/>
  <g id="_792140992">
   <path class="fil1" d="M386.57 557.85c6.33,-2.45 18.61,-7 23.35,-6.83 10.23,0.36 23.92,14.31 32.65,25.06 0.95,1.17 0.73,2.93 1.58,3.98l-11.92 4.31 -32.52 14.9 -0.57 0.11c-11.95,2.31 -27.58,2.48 -39.36,-0.05 -8.92,-1.92 -15.79,-5.81 -22.05,-12.64l-3.37 -4.98c6.72,-10.29 22.41,-33.73 36.63,-29.36 5.2,1.6 10.48,3.47 15.57,5.5z"/>
   <path class="fil2" d="M341.25 583.23c0,0 16.74,-27.08 29.06,-23.29 8.5,2.61 16.74,6 16.74,6 0,0 18.48,-7.26 22.9,-7.11 4.42,0.16 15.16,7.11 25.35,19.19l-5.13 1.66 -32.06 14.69c0,0 -39.64,7.66 -56.85,-11.13z"/>
   <ellipse class="fil3" cx="367.67" cy="565.71" rx="8.05" ry="3.24"/>
   <path class="fil4" d="M342.01 582.06c3.39,-5.16 17.54,-25.43 28.3,-22.12 8.5,2.61 16.74,6 16.74,6 0,0 18.48,-7.26 22.9,-7.11 4.42,0.16 15.16,7.11 25.35,19.19l-0.1 0.03c-9.56,-9.36 -20.84,-15.61 -24.62,-15.74 -4.42,-0.16 -22.9,7.11 -22.9,7.11 0,0 -8.24,-3.39 -16.74,-6 -8.62,-2.65 -21.8,10.5 -28.93,18.65z"/>
   <path class="fil1" d="M371.53 585.95l18.07 4.02 14.92 -3.29 20.09 -8.56 15.68 2.31c-3.9,7.46 -7.02,17.96 -11.49,23.39 -4.06,4.94 -9.47,7.15 -15.65,8.16 -7.8,1.27 -16.01,1.7 -23.9,1.7 -7.89,0 -16.1,-0.43 -23.9,-1.7 -6.25,-1.02 -13.64,-2.29 -18.31,-6.84 -4.03,-3.93 -7.48,-13.7 -10.41,-18.55l5.96 -4.1 12.76 -1.5 16.18 4.96z"/>
   <path class="fil2" d="M341.4 584.05c7.7,12.76 7.87,17.72 24.16,20.37 13.45,2.19 32.98,2.19 46.43,0 16.29,-2.65 15.36,-12.98 23.06,-25.74l-18.08 0.56 -28.98 12.21 -36.09 -11.76 -10.5 4.36z"/>
   <path class="fil5" d="M341.4 584.05c1.43,2.37 2.6,4.48 3.67,6.35 3.27,-2.11 13.73,-6.5 37.95,0.78l3.48 -0.21 -34.6 -11.27 -10.5 4.36zm89.49 2.76c1.15,-2.55 2.44,-5.28 4.15,-8.13l-18.08 0.56 -27.39 11.54 9.23 -0.55c0,0 17.33,-6.54 32.08,-3.42z"/>
   <path class="fil3" d="M388.87 595.29c19.45,0 34.58,-4.12 34.58,-0.24 0,3.88 -15.77,9.08 -35.22,9.08 -19.45,0 -36.01,-4.41 -36.01,-8.29 0,-3.88 17.19,-0.55 36.64,-0.55z"/>
   <path class="fil1" d="M341.88 585.91c8.32,-5.59 22.02,-1.19 32.46,3.02 11.65,4.7 18.54,5.87 29.99,-0.66 7.78,-4.44 14.51,-10.11 30.49,-7.1 7.13,4.01 8.14,-1.8 -0.4,-4.42 -16.57,-3.63 -26.12,3.22 -31.95,6.93 -10.03,6.4 -16.88,4.4 -26.97,0.27 -8.84,-3.62 -21.59,-8.39 -32.68,-3.09 -10.84,5.6 -7.29,7.37 -0.95,5.05z"/>
   <path class="fil1" d="M434.75 579.34c0,0 9.25,-8.97 10.5,-6.8 1.25,2.17 -1.21,12.06 -4.66,12.27 -3.44,0.21 -5.85,-5.48 -5.85,-5.48z"/>
   <path class="fil1" d="M341.12 583.53c0,0 -9.25,-8.24 -10.5,-6.24 -1.25,1.99 1.21,11.08 4.66,11.28 3.44,0.2 5.85,-5.03 5.85,-5.03z"/>
   <path class="fil5" d="M347.72 577.44c17.95,-7.21 28.21,10.1 43.66,8.05 12.08,-0.47 18.48,-15.16 38.06,-10.58 0,0 -4.26,-4.66 -11.13,-5.29 -7.08,-0.65 -20.6,7.77 -29.06,7.97 -11.92,0.28 -28.19,-11.33 -41.53,-0.15z"/>
  </g>
 </g>
</svg>
