<?xml version="1.0" encoding="UTF-8"?>
<!DOCTYPE svg PUBLIC "-//W3C//DTD SVG 1.1//EN" "http://www.w3.org/Graphics/SVG/1.1/DTD/svg11.dtd">
<!-- Creator: CorelDRAW 2020 (64-Bit) -->
<svg xmlns="http://www.w3.org/2000/svg" xml:space="preserve" width="129.436mm" height="197.988mm" version="1.1" style="shape-rendering:geometricPrecision; text-rendering:geometricPrecision; image-rendering:optimizeQuality; fill-rule:evenodd; clip-rule:evenodd"
viewBox="0 0 2946.25 4506.65"
 xmlns:xlink="http://www.w3.org/1999/xlink"
 xmlns:xodm="http://www.corel.com/coreldraw/odm/2003">
 <defs>
  <style type="text/css">
   <![CDATA[
    .fil0 {fill:none}
    .fil1 {fill:#501D33}
    .fil3 {fill:#B3495A}
    .fil2 {fill:#F26D70}
    .fil4 {fill:#F7AA96}
   ]]>
  </style>
 </defs>
 <g id="Слой_x0020_1">
  <metadata id="CorelCorpID_0Corel-Layer"/>
  <rect id="_166536576" class="fil0" width="2946.25" height="4506.65"/>
  <g id="_794125648">
   <g>
    <path class="fil1" d="M1467.13 2123.45c68.19,-14.59 147.85,-13.93 207.8,28.78 -20.96,124.12 -109.35,154.11 -210.54,151.11 -96.8,-2.87 -180.23,-37.65 -200.84,-151.11 57.15,-47.59 137.1,-44.04 203.59,-28.78z"/>
    <path class="fil2" d="M1291.54 2161.83c85.22,-60.71 270.77,-60.71 356,0 -9.37,51.57 -53.09,114.59 -118.67,134.06 -40.99,12.18 -77.67,12.18 -118.66,0 -65.58,-19.48 -109.3,-82.5 -118.67,-134.06z"/>
    <path class="fil3" d="M1636.47 2154.64c3.84,2.3 7.55,4.69 11.06,7.2 -9.37,51.57 -53.09,114.59 -118.66,134.06 -5.81,1.73 -11.54,3.21 -17.2,4.44 97.53,-35.59 6.91,-82.01 6.91,-82.01 -69.75,23.49 -115.44,-16.56 -115.44,-16.56 -56.9,7.23 -104.77,-22.89 -104.77,-22.89 -6.84,-19.88 59.36,-13.25 63.74,-15.06 4.38,-1.81 141.7,12.65 175.07,13.85 21.37,0.77 68.29,-13.02 99.29,-23.04z"/>
    <path class="fil3" d="M1291.54 2161.83c85.22,-45.01 270.77,-44.3 356,0l-0.2 1.02c-35.9,12.23 -105.99,21.16 -105.99,21.16 -93.01,39.75 -136.23,-3.61 -136.23,-3.61 -41.47,4.93 -87.78,-7.26 -112.99,-15.49 -0.21,-1.03 -0.42,-2.05 -0.6,-3.07z"/>
    <path class="fil1" d="M1235.64 2149.7c0,0 25.71,-13.85 35.56,-10.84 9.85,3.01 44.86,41.56 138.41,30.72 30.95,27.26 84.26,33.89 122.32,0 93.55,10.84 123.09,-27.7 132.94,-30.72 9.85,-3.01 35.56,10.84 35.56,10.84 0,0 6.56,6.02 -50.88,26.5 -57.45,20.47 -119.27,16.86 -119.27,16.86 -27.01,20.47 -96.95,22.28 -128.89,-4.82 0,0 -57.44,8.43 -114.89,-12.05 -57.44,-20.47 -50.88,-26.5 -50.88,-26.5z"/>
    <path class="fil4" d="M1340.22 2221.68c17.24,-36.19 116.7,21.74 101.28,54.13 -17.69,37.13 -112.59,-30.39 -101.28,-54.13z"/>
   </g>
   <ellipse class="fil4" transform="matrix(0.98719 -0.159547 0.512123 0.930208 1459.38 2251.22)" rx="15.05" ry="17.77"/>
  </g>
 </g>
</svg>
