<?xml version="1.0" encoding="UTF-8"?>
<!DOCTYPE svg PUBLIC "-//W3C//DTD SVG 1.1//EN" "http://www.w3.org/Graphics/SVG/1.1/DTD/svg11.dtd">
<!-- Creator: CorelDRAW 2020 (64-Bit) -->
<svg xmlns="http://www.w3.org/2000/svg" xml:space="preserve" width="129.436mm" height="197.988mm" version="1.1" style="shape-rendering:geometricPrecision; text-rendering:geometricPrecision; image-rendering:optimizeQuality; fill-rule:evenodd; clip-rule:evenodd"
viewBox="0 0 2179.64 3334.03"
 xmlns:xlink="http://www.w3.org/1999/xlink"
 xmlns:xodm="http://www.corel.com/coreldraw/odm/2003">
 <defs>
  <style type="text/css">
   <![CDATA[
    .fil0 {fill:none}
    .fil1 {fill:#501D33}
    .fil6 {fill:#ADA5B7}
    .fil4 {fill:#B3495A}
    .fil2 {fill:#F26D70}
    .fil3 {fill:#F7AA96}
    .fil5 {fill:white}
   ]]>
  </style>
 </defs>
 <g id="Слой_x0020_1">
  <metadata id="CorelCorpID_0Corel-Layer"/>
  <rect id="_166536576" class="fil0" width="2179.64" height="3334.03"/>
  <g id="_794117824">
   <path class="fil1" d="M937.32 1630.71c19.89,-17.14 70.98,-14.32 95.22,-13.72 31.16,0.77 63.45,3.27 94.47,7.34l0.34 0.04 120.26 17.75 5.73 18.09c-17.53,33.42 -63.38,54.19 -88.98,56.42 -40.21,4.54 -80.38,-9.87 -120.52,-8.37 -42.34,1.58 -86.9,-26.44 -116.39,-60.27l9.89 -17.29z"/>
   <path class="fil1" d="M1194.09 1654.37c-2.69,-0.06 -5.5,-0.29 -8.16,-0.43 -7.1,-0.37 -14.2,-0.76 -21.3,-1.15 -21.14,-1.15 -42.28,-2.31 -63.42,-3.48 -30.74,-1.7 -61.48,-3.39 -92.22,-5.12l-61.23 2.61 -20.32 1.39c6.19,-19.6 47.96,-83.38 61.75,-93.31 7.7,-5.54 83.59,7.8 101.19,3.47 29.92,-7.36 50.49,-25.97 85.57,-52.27 6.66,-3.72 12.58,-8.3 18.82,-3.72 42.61,31.28 59.75,99.11 58.11,158.79l-9.11 7.39 -8.96 3.24c-7.21,-3.21 -14.41,-6.42 -21.65,-9.55 -4.22,-1.82 -8.44,-3.63 -12.69,-5.37 -1.94,-0.79 -4.32,-1.86 -6.39,-2.48z"/>
   <path class="fil2" d="M946.21 1644.29c0,0 46.09,-69.51 54.13,-75.3 8.04,-5.79 89.59,1.33 185.32,-52.13 0,0 52.07,36.09 48.25,136.78 0,0 -35.61,-12.48 -38.67,-12.48 -3.06,0 -186.99,-10.25 -186.99,-10.25l-62.03 13.37z"/>
   <path class="fil3" d="M1047.18 1581.06c67.79,-3.51 54.49,-23.36 1.31,-15.53 -56.3,8.29 -55.07,18.31 -1.31,15.53z"/>
   <path class="fil4" d="M1148.76 1534.97c11.97,-5.1 24.31,-11.08 36.9,-18.11 0,0 52.07,36.09 48.25,136.78 0,0 -35.61,-12.48 -38.67,-12.48 -1.23,0 -31.48,-1.64 -67.3,-3.62 -56.67,-15.55 -118.42,-35.91 -69.41,-38.88 58.33,-3.54 81.73,-42.38 90.23,-63.7z"/>
   <path class="fil2" d="M943.34 1644.9c0,0 54.32,68.45 96.82,76.47 25.32,4.78 67.1,5.13 96.72,4.63 29.8,-0.5 32.17,1.1 55.67,-18.1 12.32,-10.06 27.84,-23.02 44.88,-46.9l-111.9 -21.61c0,0 -152.72,-19.89 -182.2,5.51z"/>
   <path class="fil4" d="M1055.7 1723.59c24.81,2.66 57.03,2.82 81.19,2.41 29.8,-0.5 32.17,1.1 55.67,-18.1 12.32,-10.06 27.84,-23.02 44.88,-46.9l-93.42 -18.04c-11.29,5.03 -20.25,10.95 -25.77,17.64 0,0 60.31,51.73 -62.56,62.99z"/>
   <path class="fil1" d="M935.45 1646.97l65.47 -52.13c0,0 103.38,15.15 184.93,-43.66 0,0 29.48,29.41 53.99,111.39 0,0 -197.19,17.82 -304.39,-15.6z"/>
   <path class="fil5" d="M989.43 1616c0,0 16.6,20.12 56.01,36.73 46.84,2.63 131.48,5.13 166.83,-36.5 0,0 -5.74,-20.5 -27.95,-45.45 0,0 -76.58,51.91 -182.25,34.08l-12.63 11.14z"/>
   <path class="fil6" d="M989.43 1616c0,0 5.48,6.63 17.6,15.43 24.96,-7.08 114.9,-28.8 179.26,4.6 10.13,-5.11 19.02,-11.6 25.99,-19.8 0,0 -5.74,-20.5 -27.95,-45.45 0,0 -76.58,51.91 -182.25,34.08l-12.63 11.14z"/>
   <path class="fil3" d="M1028.13 1666.6c27.44,2.53 48.45,4.16 47.97,11.25 -0.48,7.09 -23.05,18.09 -50.49,15.56 -27.44,-2.54 -49.36,-17.64 -48.88,-24.74 0.48,-7.09 23.96,-4.61 51.4,-2.07z"/>
   <ellipse class="fil3" transform="matrix(0.880087 -0.0529201 -0.146906 0.98528 1053.01 1699.85)" rx="12.59" ry="5.68"/>
  </g>
 </g>
</svg>
