<?xml version="1.0" encoding="UTF-8"?>
<!DOCTYPE svg PUBLIC "-//W3C//DTD SVG 1.1//EN" "http://www.w3.org/Graphics/SVG/1.1/DTD/svg11.dtd">
<!-- Creator: CorelDRAW 2020 (64-Bit) -->
<svg xmlns="http://www.w3.org/2000/svg" xml:space="preserve" width="129.436mm" height="197.988mm" version="1.1" style="shape-rendering:geometricPrecision; text-rendering:geometricPrecision; image-rendering:optimizeQuality; fill-rule:evenodd; clip-rule:evenodd"
viewBox="0 0 1729.6 2645.64"
 xmlns:xlink="http://www.w3.org/1999/xlink"
 xmlns:xodm="http://www.corel.com/coreldraw/odm/2003">
 <defs>
  <style type="text/css">
   <![CDATA[
    .fil0 {fill:none}
    .fil1 {fill:#501D33}
    .fil3 {fill:#ADA5B7}
    .fil4 {fill:#B3495A}
    .fil5 {fill:#F26D70}
    .fil2 {fill:white}
   ]]>
  </style>
 </defs>
 <g id="Слой_x0020_1">
  <metadata id="CorelCorpID_0Corel-Layer"/>
  <rect id="_166536576" class="fil0" width="1729.6" height="2645.64"/>
  <g id="_794062672">
   <path class="fil1" d="M717.15 1238.63c40.61,-10.89 93.96,-14.79 146.78,-14.28 52.82,-0.51 106.17,3.39 146.78,14.28 1.76,-2 -12,-13.2 -9.39,-14.4 14.58,-6.67 40.71,27.71 29.95,33.82 -2.46,1.4 -5.9,-7.49 -12.48,-8.46l-0.24 0.31c-4.76,7.89 -43.28,71.02 -70.26,91.46 -13.27,10.06 -49.41,13.75 -84.38,13.13 -34.97,0.61 -71.11,-3.08 -84.38,-13.13 -26.97,-20.44 -65.5,-83.57 -70.26,-91.46l-0.24 -0.31c-4.73,0.7 -9.66,12.61 -11.49,10.7 -1.22,-1.27 -4.84,-10.62 3.93,-22.41 9.83,-13.21 19.74,-15.35 21.09,-14.65 2.34,1.22 -7.78,12.74 -5.44,15.41z"/>
   <path class="fil2" d="M750.36 1245.86c16.29,23.1 24.74,29.84 57.35,34.71 0,0 -23.75,5.53 -42.31,0.78l-4.06 8.23c45.68,31.39 159.51,31.39 205.19,0l-4.06 -8.23c-18.57,4.75 -42.31,-0.78 -42.31,-0.78 32.61,-4.87 41.05,-11.6 57.34,-34.71 -72.67,-11.47 -155.59,-11.29 -227.15,0z"/>
   <path class="fil3" d="M750.36 1245.86c9.56,13.55 16.41,21.47 27.02,26.68 16.35,-10.68 85.02,-48.56 177.54,-2.47 8.24,-5.18 14.43,-12.65 22.58,-24.21 -72.67,-11.47 -155.59,-11.29 -227.15,0z"/>
   <path class="fil4" d="M763.17 1302.49c0,0 20.09,28.51 33.49,34.76 20.71,9.66 113.04,9.66 133.75,0 13.4,-6.25 33.49,-34.76 33.49,-34.76 -48.18,29.3 -152.55,29.3 -200.73,0z"/>
   <ellipse class="fil5" cx="864.83" cy="1333.79" rx="58.16" ry="8.31"/>
  </g>
 </g>
</svg>
