<?xml version="1.0" encoding="UTF-8"?>
<!DOCTYPE svg PUBLIC "-//W3C//DTD SVG 1.1//EN" "http://www.w3.org/Graphics/SVG/1.1/DTD/svg11.dtd">
<!-- Creator: CorelDRAW 2020 (64-Bit) -->
<svg xmlns="http://www.w3.org/2000/svg" xml:space="preserve" width="129.436mm" height="197.988mm" version="1.1" style="shape-rendering:geometricPrecision; text-rendering:geometricPrecision; image-rendering:optimizeQuality; fill-rule:evenodd; clip-rule:evenodd"
viewBox="0 0 1433.6 2192.87"
 xmlns:xlink="http://www.w3.org/1999/xlink"
 xmlns:xodm="http://www.corel.com/coreldraw/odm/2003">
 <defs>
  <style type="text/css">
   <![CDATA[
    .fil0 {fill:none}
    .fil4 {fill:#501D33}
    .fil3 {fill:#B3495A}
    .fil1 {fill:#F26D70}
    .fil2 {fill:#F7AA96}
   ]]>
  </style>
 </defs>
 <g id="Слой_x0020_1">
  <metadata id="CorelCorpID_0Corel-Layer"/>
  <rect id="_166536576" class="fil0" width="1433.6" height="2192.87"/>
  <g id="_794289216">
   <path class="fil1" d="M616.25 1060.25c0,0 18.2,47.05 90.68,47.05 72.47,0 94.18,-34.66 94.18,-34.66 0,0 -12.08,-37.79 -83.53,-47.77l-13.05 0.34c0,0 -68.01,7.56 -88.27,35.03z"/>
   <path class="fil2" d="M684.94 1033.57c12.34,-1.44 22.65,-0.02 23.02,3.16 0.37,3.18 -8.91,8.21 -21.25,9.64 -12.34,1.44 -23.07,-1.27 -23.44,-4.44 -0.37,-3.18 9.33,-6.92 21.68,-8.36z"/>
   <path class="fil2" d="M769.59 1038.11c-12.5,-5.03 -29.33,-9.74 -52.02,-13.25l-13.05 0.34c0,0 -60.48,6.72 -84.36,30.54l0.11 0.36c0,0 58.83,-30.66 149.32,-18z"/>
   <path class="fil3" d="M796.44 1077.69c1.97,-1.78 3.24,-3.61 3.91,-5.46 -9.87,-21.66 -41.62,-38.25 -50.84,-40.75 3.56,4.77 10.86,20.86 -55.72,17.93l54.1 8.76c0,0 27.68,13.76 48.55,19.52z"/>
   <path class="fil3" d="M641.68 1089.38c13.96,9.62 34.82,17.92 65.25,17.92 61.36,0 89.48,-28.32 96.66,-37 -14.6,-3.26 -64.39,-14.04 -80.59,-13.16 0,0 17.52,48.6 -70.93,33.83 -3.74,-0.62 -7.19,-1.15 -10.39,-1.59z"/>
   <path class="fil4" d="M619.57 1057.44c-9.46,-23.98 -22.49,-4.31 -2.27,8.98 0,0 34.91,-10.29 86.26,-8.38 24.82,0.92 55.56,4.58 84.1,13.87 0,0 13.05,4.81 16.83,1.03 10.47,-10.48 8.41,-14.19 6.48,-15.03 -3.01,-1.3 -11.2,2.64 -12.88,7.91 0,0 -38.21,-15.03 -94.5,-16.43 -23.6,-0.59 -51.95,1.13 -84.02,8.03z"/>
   <path class="fil4" d="M623.13 1071.92c0,0 23.73,41.4 79.03,44.15 55.3,2.75 91.13,-33.99 91.13,-33.99 0,0 -44.16,22.4 -93.95,19.57 -25.22,-1.43 -52.19,-9.29 -76.2,-29.73z"/>
   <path class="fil4" d="M615.06 1062.26c35.35,-23.74 65.87,-38.06 104.5,-33.78 30.11,3.34 53.84,13.73 81.39,41.83 -4.39,-10.55 -23.25,-48.33 -79.77,-54.51 -56.51,-6.18 -100.85,34.58 -106.13,46.45z"/>
   <ellipse class="fil2" cx="675.75" cy="1070.37" rx="35.55" ry="10.99"/>
  </g>
 </g>
</svg>
