<?xml version="1.0" encoding="UTF-8"?>
<!DOCTYPE svg PUBLIC "-//W3C//DTD SVG 1.1//EN" "http://www.w3.org/Graphics/SVG/1.1/DTD/svg11.dtd">
<!-- Creator: CorelDRAW 2020 (64-Bit) -->
<svg xmlns="http://www.w3.org/2000/svg" xml:space="preserve" width="129.436mm" height="197.988mm" version="1.1" style="shape-rendering:geometricPrecision; text-rendering:geometricPrecision; image-rendering:optimizeQuality; fill-rule:evenodd; clip-rule:evenodd"
viewBox="0 0 1224.11 1872.42"
 xmlns:xlink="http://www.w3.org/1999/xlink"
 xmlns:xodm="http://www.corel.com/coreldraw/odm/2003">
 <defs>
  <style type="text/css">
   <![CDATA[
    .fil0 {fill:none}
    .fil1 {fill:#501D33}
    .fil5 {fill:#ADA5B7}
    .fil2 {fill:#B3495A}
    .fil3 {fill:#F26D70}
    .fil6 {fill:#F7AA96}
    .fil4 {fill:white}
   ]]>
  </style>
 </defs>
 <g id="Слой_x0020_1">
  <metadata id="CorelCorpID_0Corel-Layer"/>
  <rect id="_166536576" class="fil0" width="1224.11" height="1872.42"/>
  <g id="_634294224">
   <path class="fil1" d="M505.66 863.82c0,0 97.01,-0.11 204.09,27.78 -26.31,49.82 -68.54,63.98 -112.27,58.59 -42.79,-5.27 -84.69,-35.63 -91.82,-86.38z"/>
   <path class="fil2" d="M520.43 877.57c0,0 24.41,34.39 78.19,41.04 53.78,6.65 94.58,-18.67 94.58,-18.67 0,0 -34.86,50.22 -97.5,40.6 -62.64,-9.62 -75.27,-62.97 -75.27,-62.97z"/>
   <path class="fil3" d="M548.68 901.77c12.35,7.38 28.9,14.23 49.95,16.83 21.53,2.66 40.98,0.2 56.56,-3.71 5.08,3.23 8.82,6.69 10.86,10.21 -16.49,10.82 -40.2,20.06 -70.35,15.43 -29.4,-4.51 -47.79,-18.66 -59.02,-32.41 2.82,-2.52 6.91,-4.66 11.99,-6.35z"/>
   <path class="fil4" d="M531.18 877.3c33.08,36.26 105.7,44.09 147.14,19.2 0,0 -70.37,-18.03 -147.14,-19.2z"/>
   <path class="fil5" d="M531.18 877.3c4.9,5.37 10.67,10.11 17.08,14.22 11.43,-2.78 63.74,-13.28 105.27,15.2 8.99,-2.38 17.38,-5.78 24.79,-10.22 0,0 -70.37,-18.03 -147.14,-19.2z"/>
   <path class="fil1" d="M509.78 867.83c-6.17,7.5 -8.5,16.52 -13.11,15.39 -2.1,-0.51 -3.49,-13.79 4.71,-22.49 8.82,-9.36 19.75,-10.09 21.73,-8.06 1.49,1.52 -1.88,1.27 -13.33,15.16z"/>
   <path class="fil1" d="M703.88 895.53c4.16,8.77 4.22,18.09 8.97,18.12 2.17,0.01 6.74,-12.53 0.91,-22.96 -6.27,-11.23 -16.69,-14.6 -19.11,-13.11 -1.81,1.12 1.51,1.69 9.23,17.95z"/>
   <path class="fil6" d="M600.76 923.54c13.69,1.69 24.83,2.68 24.36,6.49 -0.47,3.82 -12.38,9.01 -26.07,7.32 -13.69,-1.69 -23.97,-9.64 -23.5,-13.45 0.47,-3.81 11.52,-2.05 25.21,-0.36z"/>
  </g>
 </g>
</svg>
