<?xml version="1.0" encoding="UTF-8"?>
<!DOCTYPE svg PUBLIC "-//W3C//DTD SVG 1.1//EN" "http://www.w3.org/Graphics/SVG/1.1/DTD/svg11.dtd">
<!-- Creator: CorelDRAW 2020 (64-Bit) -->
<svg xmlns="http://www.w3.org/2000/svg" xml:space="preserve" width="129.436mm" height="197.988mm" version="1.1" style="shape-rendering:geometricPrecision; text-rendering:geometricPrecision; image-rendering:optimizeQuality; fill-rule:evenodd; clip-rule:evenodd"
viewBox="0 0 1068.04 1633.69"
 xmlns:xlink="http://www.w3.org/1999/xlink"
 xmlns:xodm="http://www.corel.com/coreldraw/odm/2003">
 <defs>
  <style type="text/css">
   <![CDATA[
    .fil0 {fill:none}
    .fil1 {fill:#501D33}
    .fil4 {fill:#B3495A}
    .fil3 {fill:#F26D70}
    .fil5 {fill:#F7AA96}
    .fil2 {fill:white}
   ]]>
  </style>
 </defs>
 <g id="Слой_x0020_1">
  <metadata id="CorelCorpID_0Corel-Layer"/>
  <rect id="_166536576" class="fil0" width="1068.04" height="1633.69"/>
  <g id="_634299072">
   <path class="fil1" d="M610.17 782.46c-2.19,1.08 -1.03,4.42 1.82,9.24 -11.59,6.78 -24.99,5.79 -24.99,5.79l4.31 11.27c10.08,-3.12 19.25,-8.65 23.85,-11.1 2.1,4.04 4.39,6.09 6.43,5.09 2.04,-1.01 4.09,-8.23 0.94,-13.83 -3.15,-5.6 -10.17,-7.55 -12.36,-6.47z"/>
   <polygon class="fil2" points="536.66,784.87 503.65,785.34 485.89,805.71 507.9,826.07 565.41,826.07 584.67,803.83 564.41,784.64 "/>
   <path class="fil1" d="M463.86 799.55c0,0 19.57,28.65 38.35,42.56 6.61,6.65 59.24,6.65 65.85,0 18.78,-13.91 37.26,-42.45 37.26,-42.45l-19.8 -2.15 -13.56 1.08c-9.43,9.15 -22.22,11.48 -36.3,11.51 -14.26,0.04 -32.96,-3.36 -37.95,-9.24l-12.96 -3.36 -18.91 2.04 -1.98 0z"/>
   <path class="fil3" d="M594.64 800.18l-12.15 0.4 -7.92 1.95c-9.57,9.14 -27.66,13.03 -40.89,13.06 -11.34,0.03 -34.86,-4.02 -42.01,-13.41l-6.37 -1.6 -10.16 0.16c7.44,10.03 16.35,22.74 26.06,31.66 5.29,4.86 6.46,5.59 14.69,6.7 11.74,1.59 24.52,1.7 36.26,0.11 8.13,-1.1 9.02,-1.68 14.23,-6.21 10.53,-9.14 20.51,-22.37 28.26,-32.82z"/>
   <path class="fil4" d="M493.94 824.94c2.36,2.66 4.79,5.18 7.26,7.46 5.29,4.86 6.46,5.59 14.69,6.7 11.74,1.59 24.52,1.7 36.26,0.11 8.13,-1.1 9.02,-1.68 14.23,-6.21 3.01,-2.61 5.97,-5.55 8.85,-8.67 -5.33,3.63 -10.84,6.75 -14.64,8.78 -9.15,4.9 -40.64,4.27 -48.88,1.67 -7.72,-2.44 -12.11,-6.1 -17.78,-9.84z"/>
   <path class="fil4" d="M594.64 800.18l-12.15 0.4 -7.92 1.95c-2.7,2.58 -6.08,4.74 -9.84,6.51 6.37,1.27 12.73,3.04 18.96,5.42 3.96,-4.91 7.66,-9.85 10.95,-14.29zm-93.23 8.9c-4.17,-1.86 -7.65,-4.15 -9.74,-6.89l-6.37 -1.6 -10.16 0.16c2.77,3.74 5.75,7.85 8.89,11.99 4.26,-1.09 10.22,-2.46 17.38,-3.65z"/>
   <path class="fil1" d="M458.07 798.83c30.49,-0.79 23.89,-30.22 52.39,-40.38 6.12,-2.18 14.83,-3.32 23.67,-3.39 9.98,-0.08 20.14,1.2 26.95,3.86 27.1,10.61 19.96,38.76 47.85,39.98 -23.13,7.92 -32.19,6.18 -32.19,6.18 -28.19,-16.23 -55.01,-16.23 -83.21,0 0,0 -12.34,1.67 -35.47,-6.25z"/>
   <path class="fil3" d="M480.83 798.78c15.9,4.8 24.35,-12.23 53.98,-12.39 29.43,-0.16 35.82,13.62 50.1,12.44 -10.15,-9.96 -12.58,-27.04 -27.6,-32.92 -12.49,-4.89 -31.76,-4.91 -44.52,-0.36 -15.45,5.51 -17.5,25.97 -31.96,33.23z"/>
   <path class="fil4" d="M480.83 798.78c15.9,4.8 24.35,-12.23 53.98,-12.39 29.43,-0.16 35.82,13.62 50.1,12.44 -13.19,-9.41 -13.98,-23.87 -29,-29.76 -12.49,-4.89 -29.31,-4.91 -42.07,-0.36 -15.45,5.51 -15.69,23.3 -33.01,30.06z"/>
   <path class="fil1" d="M458.52 782.46c2.19,1.08 0.04,3.43 -2.8,8.26 11.59,6.78 24.67,7.97 24.67,7.97l-2.34 9.64c-10.08,-3.12 -21.11,-8.44 -25.71,-10.88 -2.1,4.04 -3.19,6.31 -5.23,5.31 -2.04,-1.01 -4.09,-8.23 -0.94,-13.83 3.15,-5.6 10.17,-7.55 12.36,-6.47z"/>
   <path class="fil5" d="M534.36 821.14c14.49,0 26.01,1.15 26.01,5.68 0,4.52 -11.75,8.19 -26.24,8.19 -14.49,0 -22.16,-2.9 -22.16,-7.42 0,-4.52 7.9,-6.44 22.39,-6.44z"/>
   <ellipse class="fil5" transform="matrix(1.00656 -0.33549 0.358465 0.942044 506.518 822.666)" rx="5.89" ry="2.78"/>
  </g>
 </g>
</svg>
