<?xml version="1.0" encoding="UTF-8"?>
<!DOCTYPE svg PUBLIC "-//W3C//DTD SVG 1.1//EN" "http://www.w3.org/Graphics/SVG/1.1/DTD/svg11.dtd">
<!-- Creator: CorelDRAW 2020 (64-Bit) -->
<svg xmlns="http://www.w3.org/2000/svg" xml:space="preserve" width="129.436mm" height="197.988mm" version="1.1" style="shape-rendering:geometricPrecision; text-rendering:geometricPrecision; image-rendering:optimizeQuality; fill-rule:evenodd; clip-rule:evenodd"
viewBox="0 0 947.26 1448.95"
 xmlns:xlink="http://www.w3.org/1999/xlink"
 xmlns:xodm="http://www.corel.com/coreldraw/odm/2003">
 <defs>
  <style type="text/css">
   <![CDATA[
    .fil0 {fill:none}
    .fil1 {fill:#501D33}
    .fil5 {fill:#ADA5B7}
    .fil3 {fill:#B3495A}
    .fil2 {fill:#F26D70}
    .fil6 {fill:#F7AA96}
    .fil4 {fill:white}
   ]]>
  </style>
 </defs>
 <g id="Слой_x0020_1">
  <metadata id="CorelCorpID_0Corel-Layer"/>
  <rect id="_166536576" class="fil0" width="947.26" height="1448.95"/>
  <g id="_634273056">
   <path class="fil1" d="M372.35 676.74c9.25,-5.3 19.53,3.05 20.14,3.39 16.26,9.1 31.56,69.71 82.68,69.32 70.88,-4.95 60.05,-67.22 79.39,-80.74 9.97,-6.97 14.13,0.58 14.91,-0.78 0,0 3.1,-6.62 -2.13,-9.88 -6.39,-3.97 -22.75,4.84 -22.75,4.84 0,0 -29.14,-2.71 -71.64,12.59 -15.29,-4.31 -43.19,-6.01 -72.48,-3.59 -4.61,0.38 -8.63,-0.97 -12.51,-2.3 -8.1,-2.79 -14.3,-5.48 -22.58,2.02 0,0 -0.67,10.94 6.97,5.13z"/>
   <path class="fil2" d="M517.12 725.3c4.57,-4.72 8.5,-10.54 11.84,-17.62 4.04,-8.56 6.66,-17.51 9.84,-26.38 1.08,-3 2.27,-6.18 3.75,-9.23 -5.88,0.25 -12.09,0.99 -17.79,1.78 -16.47,2.27 -32.91,6.08 -48.68,11.34l-1.43 0.48 -1.5 -0.14c-12.77,-1.17 -25.74,-1.37 -38.56,-2.02 -8.83,-0.44 -18.49,-1.02 -27.91,-2.35 2.03,2.73 3.83,5.58 5.4,8.08 9.39,14.93 21.07,35.94 36.06,45.42 20.83,13.17 52.08,8.09 68.97,-9.35z"/>
   <path class="fil3" d="M529.57 706.36c3.7,-8.16 6.21,-16.64 9.23,-25.07 1.08,-3 2.27,-6.18 3.75,-9.23 -5.88,0.25 -12.09,0.99 -17.79,1.78 -16.47,2.27 -32.91,6.08 -48.68,11.34l-1.43 0.48 -1.5 -0.14c-12.77,-1.17 -25.74,-1.37 -38.56,-2.02 -8.83,-0.44 -18.49,-1.02 -27.91,-2.35 2.03,2.73 3.83,5.58 5.4,8.08 4.19,6.66 8.83,14.53 14.02,22.05 5.11,-3.18 15.07,-5.99 34.43,-3.76 36.98,4.26 51.31,-2.52 51.31,-2.52 0,0 13.07,-6 17.72,1.36z"/>
   <path class="fil1" d="M411.25 687.97c0,0 26.92,31.95 42.21,35.05 11.92,2.41 33.13,5.06 52.95,-5.62 10.19,-5.49 26.92,-17.96 36.51,-42.21l3.49 -4.65 -5.23 -1.74c0,0 -42.4,5.81 -66.03,12.59l-74.36 -5.62c0,0 5.62,9.3 10.46,12.2z"/>
   <path class="fil4" d="M418.41 684.87c4.36,5.23 8.71,10.46 13.07,15.68 -0.97,-0.06 -1.94,-0.13 -2.91,-0.19 0,0 8.37,8.56 18.95,14.42 10.8,5.98 38.1,7.34 55.07,-1.21 10.03,-5.05 18.18,-11.88 24.73,-19.5 -0.74,-1.06 -1.48,-2.13 -2.23,-3.19 1.48,-5.29 2.97,-10.59 4.45,-15.88 -18.59,4.58 -37.18,9.16 -55.77,13.75 -18.46,-1.29 -36.92,-2.58 -55.38,-3.87z"/>
   <path class="fil5" d="M419.66 686.38l11.39 13.67c12,6.78 30.24,11.62 48.88,9.7 17.71,-1.83 35.02,-10.11 45.45,-19.9l4.17 -14.85c-18.59,4.58 -37.18,9.16 -55.77,13.75l-54.78 -3.83c0.2,0.47 0.42,0.96 0.66,1.47z"/>
   <path class="fil1" d="M473.58 680.8c21.5,-8.36 43.55,-11.72 66.47,-13.26l12.94 -0.87 -11.85 6.26c-13.17,6.15 -32.85,20.36 -43.71,24.15 -13.56,4.73 -30.11,5.53 -44.13,3.45 -16.28,-2.42 -37.28,-14.23 -52.66,-20.59l-11.15 -4.6 12.06 -0.06c24.09,-0.12 48.35,0.67 72.02,5.52z"/>
   <path class="fil2" d="M401.57 677.71c0,0 37.37,15.49 51.7,17.62 14.33,2.13 31.37,0.97 46.47,-4.84 15.88,-9.1 40.47,-20.53 40.47,-20.53 -22.14,1.49 -44.28,4.63 -66.42,13.36 -24.06,-5.02 -48.72,-5.73 -72.23,-5.62z"/>
   <path class="fil3" d="M453.56 695.37c14.27,2.07 31.18,0.89 46.18,-4.88 15.88,-9.1 40.47,-20.53 40.47,-20.53 -16.1,1.08 -32.2,3.04 -48.3,7.39 -0.65,5.76 -6.26,16.44 -38.35,18.02z"/>
   <polygon class="fil1" points="526.68,685.16 511.29,699.97 528.81,692.52 "/>
   <polygon class="fil1" points="426.38,695.03 442.64,704.81 426.67,701.81 "/>
   <path class="fil6" d="M475.54 727.83c11.22,0 20.22,1.55 20.22,5.28 0,3.74 -9.1,6.76 -20.33,6.76 -11.22,0 -20.33,-3.03 -20.33,-6.76 0,-3.73 9.2,-5.28 20.43,-5.28z"/>
   <ellipse class="fil6" transform="matrix(1 -0.236329 -0 1 452.221 728.418)" rx="4.67" ry="3.17"/>
   <ellipse class="fil6" transform="matrix(0.867019 0.0590342 -0 0.867019 441.252 683.724)" rx="18.1" ry="4.26"/>
  </g>
 </g>
</svg>
