<?xml version="1.0" encoding="UTF-8"?>
<!DOCTYPE svg PUBLIC "-//W3C//DTD SVG 1.1//EN" "http://www.w3.org/Graphics/SVG/1.1/DTD/svg11.dtd">
<!-- Creator: CorelDRAW 2020 (64-Bit) -->
<svg xmlns="http://www.w3.org/2000/svg" xml:space="preserve" width="129.436mm" height="197.988mm" version="1.1" style="shape-rendering:geometricPrecision; text-rendering:geometricPrecision; image-rendering:optimizeQuality; fill-rule:evenodd; clip-rule:evenodd"
viewBox="0 0 851.03 1301.75"
 xmlns:xlink="http://www.w3.org/1999/xlink"
 xmlns:xodm="http://www.corel.com/coreldraw/odm/2003">
 <defs>
  <style type="text/css">
   <![CDATA[
    .fil0 {fill:none}
    .fil1 {fill:#501D33}
    .fil4 {fill:#B3495A}
    .fil2 {fill:#F26D70}
    .fil3 {fill:#F7AA96}
   ]]>
  </style>
 </defs>
 <g id="Слой_x0020_1">
  <metadata id="CorelCorpID_0Corel-Layer"/>
  <rect id="_166536576" class="fil0" width="851.03" height="1301.75"/>
  <g id="_798822832">
   <path class="fil1" d="M367.48 611.82c0,0 18.1,-7.46 22.57,-6.05 4.47,1.41 10.65,9.05 10.65,9.05 0,0 18,-7.99 24.38,-5.64 6.39,2.35 44.72,32.8 44.72,32.8 0,0 -43.1,21.61 -89.95,10.8 -46.85,-10.81 -16.11,-38.62 -16.11,-38.62l3.73 -2.33z"/>
   <path class="fil2" d="M369.27 617.99c0,0 -14.37,11.08 -5.64,21.19 8.73,10.11 45.12,17.85 90.61,2.91l1.49 -1.65c0,0 -20.23,-19.28 -31.73,-24.22 0,0 -4.47,-3.41 -25.13,4.94 0,0 -6.5,-8.35 -9.69,-9.05 -3.19,-0.71 -12.99,2.94 -19.91,5.88z"/>
   <path class="fil3" d="M398.67 620.9c-1.12,-1.41 -6.63,-8.16 -9.49,-8.8 -2.93,-0.65 -11.42,2.37 -18.14,5.14 1.16,0.49 2.55,0.86 4.21,1.08 0,0 14.19,-5.56 23.42,2.58z"/>
   <path class="fil4" d="M369.27 617.99c0,0 -3.7,2.85 -6.2,6.98 2.58,-0.91 13.08,-3.61 26.27,6.94l-18.53 -14.56c-0.52,0.22 -1.04,0.43 -1.53,0.64z"/>
   <path class="fil4" d="M407.2 650.4c13.67,-0.23 29.69,-2.62 47.04,-8.32l1.49 -1.65c0,0 -19.52,-18.6 -31.11,-23.94 4.27,7.69 9.07,23.84 -17.43,33.9z"/>
   <path class="fil1" d="M484.41 637.27c9.87,0.23 11.67,7.08 3.31,8.29 -37.33,5.41 -52.28,-18.58 -95.07,-9.48 -16.36,-19.6 -21.78,-7.24 -37.2,-28.1 0,0 -0.97,7.9 -6.86,6.45 -3.01,-0.74 -1.99,-5.33 0.58,-9.48 2.47,-3.98 6.4,-7.54 7.65,-7.54 1.18,0 3.73,8.02 7.09,11.92 9.59,11.13 20.24,9.01 30.75,20.57 18.3,-3.11 38.24,-1.7 65.57,8.02 10.6,3.77 14,-0.89 24.18,-0.65z"/>
   <path class="fil3" d="M363.1 630.73c1.44,-3.41 25.66,5.56 22.68,12.59 -1.1,2.59 -8.02,1.93 -14.13,-0.65 -6.11,-2.58 -9.99,-8.53 -8.55,-11.94z"/>
   <ellipse class="fil3" transform="matrix(0.744868 0.196425 -0.241287 0.987529 373.968 628.321)" rx="5.52" ry="2.26"/>
   <ellipse class="fil3" transform="matrix(0.973281 -0.229619 0.229619 0.973281 413.622 619.763)" rx="7.37" ry="2.65"/>
  </g>
 </g>
</svg>
