<?xml version="1.0" encoding="UTF-8"?>
<!DOCTYPE svg PUBLIC "-//W3C//DTD SVG 1.1//EN" "http://www.w3.org/Graphics/SVG/1.1/DTD/svg11.dtd">
<!-- Creator: CorelDRAW 2020 (64-Bit) -->
<svg xmlns="http://www.w3.org/2000/svg" xml:space="preserve" width="129.436mm" height="197.988mm" version="1.1" style="shape-rendering:geometricPrecision; text-rendering:geometricPrecision; image-rendering:optimizeQuality; fill-rule:evenodd; clip-rule:evenodd"
viewBox="0 0 4544.68 6951.64"
 xmlns:xlink="http://www.w3.org/1999/xlink"
 xmlns:xodm="http://www.corel.com/coreldraw/odm/2003">
 <defs>
  <style type="text/css">
   <![CDATA[
    .fil0 {fill:none}
    .fil1 {fill:#501D33}
    .fil11 {fill:#703D43}
    .fil6 {fill:#784258}
    .fil10 {fill:#845451}
    .fil14 {fill:#965F54}
    .fil16 {fill:#9893A0}
    .fil5 {fill:#9A6C73}
    .fil7 {fill:#AD8489}
    .fil9 {fill:#ADA5B7}
    .fil12 {fill:#AF8777}
    .fil13 {fill:#BE986E}
    .fil15 {fill:#C7C0C9}
    .fil3 {fill:#D77D75}
    .fil18 {fill:#DFDCE3}
    .fil8 {fill:#F9F9F9}
    .fil2 {fill:#FFCFA5}
    .fil4 {fill:#FFE0B3}
    .fil17 {fill:white}
   ]]>
  </style>
 </defs>
 <g id="Слой_x0020_1">
  <metadata id="CorelCorpID_0Corel-Layer"/>
  <rect id="_166536576" class="fil0" width="4544.68" height="6951.64"/>
  <g id="_994133856">
   <ellipse class="fil1" cx="2420.64" cy="5780.33" rx="1674.28" ry="95.56"/>
   <path class="fil1" d="M1712.18 3997.42c0,0 -206.24,406.9 -213.67,462.63 -7.43,55.74 -50.16,139.35 209.95,971.73l327 -14.87c0,0 126.34,-810.08 156.07,-973.58 29.73,-163.5 -130.06,-468.21 -130.06,-468.21 0,0 -334.43,-26.01 -349.3,22.3z"/>
   <path class="fil1" d="M2438.64 3980.7c0,0 -23.22,125.41 17.65,203.44 40.87,78.03 411.54,980.09 485.86,1214.19l297.28 0c0,0 137.49,-687.45 22.29,-973.58 -115.19,-286.13 -415.25,-477.5 -415.25,-477.5 0,0 -355.81,-107.76 -407.83,33.45z"/>
   <path class="fil1" d="M1650.93 861.17c0,0 78.04,118.91 -48.31,594.55 0,0 1.86,117.05 113.34,237.82 293.73,696.3 -331.32,1017.82 -301.22,1609.02 10.02,196.9 75.23,459.75 282.63,724.6l371.58 3.71 199.2 -861.31 169.47 881.75 416.17 -20.43c207.4,-264.86 261.47,-531.42 271.49,-728.32 30.09,-591.2 -594.96,-912.72 -301.22,-1609.02 111.48,-120.77 113.34,-237.82 113.34,-237.82 -126.34,-475.64 -55.74,-566.68 -55.74,-566.68 -398.83,-330.05 -781.6,-406.19 -1230.72,-27.87z"/>
   <path class="fil2" d="M1759.74 4035.14l269.48 6.69 -2.65 -64.04 200.27 -824.51 41.93 -124.29 44.48 136.44 171.76 818.98 331.16 -9.19c148.54,-196.49 243.91,-427.72 256.51,-675.33 7.17,-140.8 -25.47,-269 -79.07,-398.05 -29.25,-70.42 -63.52,-138.67 -97.97,-206.65 -42.71,-84.28 -85.87,-168.43 -121.29,-256.11 -106.82,-264.44 -110.7,-500.79 1.18,-766l3.58 -8.49 6.25 -6.77c37.42,-40.54 68.07,-88.2 85.84,-140.62 5.36,-15.82 11.47,-37.99 13.14,-56.11 -24.82,-94.15 -46.84,-190.25 -61.24,-286.53 -8.86,-59.21 -15.36,-120.99 -14.14,-180.94 0.48,-23.67 2.63,-57.55 9.98,-87.69 -153.31,-122.26 -334.73,-229.68 -533.43,-243.66 -216.32,-15.22 -407.98,83.81 -571.85,215.49 9.07,34.1 12.55,73.74 13.64,100.97 6.14,153.87 -32.45,333.81 -71.63,482.48 1.51,16.37 7.33,38.11 11.93,52.23 17.54,53.87 48.8,102.9 87.09,144.38l6.25 6.77 3.58 8.49c111.88,265.21 108,501.56 1.18,766 -35.42,87.69 -78.58,171.84 -121.29,256.11 -97.66,192.69 -188.38,382 -177.04,604.7 12.59,247.41 144.06,538.87 292.4,735.26z"/>
   <path class="fil3" d="M1759.74 4035.14l62.81 1.56c-0.37,-0.49 -297.25,-392.28 -248.97,-785.92 48.31,-393.89 178.37,-575.97 178.37,-575.97 0,0 -27.64,-27.18 -65.81,-62.39 -13.77,27.66 -27.79,55.21 -41.76,82.77 -97.66,192.69 -188.38,382 -177.04,604.7 12.59,247.41 144.06,538.87 292.4,735.26z"/>
   <path class="fil3" d="M2763.33 3976.68l52.83 -1.47c148.54,-196.49 243.91,-427.72 256.51,-675.33 7.17,-140.8 -25.47,-269 -79.07,-398.05 -29.25,-70.42 -63.52,-138.67 -97.97,-206.65 -30.67,-60.51 -61.56,-120.95 -89.66,-182.69 -21.02,35.95 -30.06,79.97 -2.92,127.54 78.8,138.15 129.55,350.44 125.18,599.6 -4.7,267.88 -67.86,567.78 -164.9,737.04z"/>
   <path class="fil2" d="M2483.41 3974.34c-1.67,52.97 -10.09,122.62 13.04,166.79 40.27,76.89 82.39,202.72 118.83,288.81 54.76,129.4 108.43,259.32 161.29,389.51 43.98,108.34 87.46,216.96 129.55,326.05 25.38,65.78 51.49,132.96 74.19,200.17l215.54 0c7.57,-41.79 14.15,-83.99 20.32,-125.74 17.92,-121.28 31.48,-244.4 36.81,-366.9 5.26,-120.71 5.4,-295.58 -40.11,-408.61 -49.87,-123.88 -141.28,-233.16 -240.32,-321.23 -45.31,-40.29 -116.81,-107.95 -157.61,-147.56 -57.67,-11.66 -34.67,-228.94 -92.13,-227.43 -36.45,0.95 -217.46,187.31 -239.4,226.14z"/>
   <path class="fil3" d="M3108.54 5345.67l87.32 0c7.57,-41.79 14.15,-83.99 20.32,-125.74 17.92,-121.28 31.48,-244.4 36.81,-366.9 5.26,-120.71 5.4,-295.58 -40.11,-408.61 -49.87,-123.88 -141.28,-233.16 -240.32,-321.23 -45.31,-40.29 -116.81,-107.95 -157.61,-147.56 -14.14,-2.86 -23.42,-18.09 -30.24,-39.42 -17.81,36.49 -36.97,68.54 -57.3,94.93 0,0 522.09,354.87 403.18,1116.64 -11.78,75.5 -18.83,140.96 -22.06,197.88z"/>
   <path class="fil4" d="M2428.19 3540.65c38.26,191.55 91.82,401.85 143.18,406.88 42.83,4.2 107.47,-99.58 134.88,-222.72 107.45,-482.61 -405.62,-822.72 -278.06,-184.17z"/>
   <path class="fil4" d="M2107.94 3553.65c-38.26,191.55 -91.82,401.85 -143.18,406.88 -42.83,4.2 -107.47,-99.58 -134.88,-222.72 -107.45,-482.61 405.62,-822.72 278.06,-184.17z"/>
   <path class="fil3" d="M2082.8 3746.27l113.19 -465.99c-57.45,-66.39 -105.59,-112.86 -105.59,-112.86 0,0 -428.13,141.1 -592.22,326.82 20.87,82.08 50.94,165.02 87.05,244.49 113.07,8.36 296.86,17.16 497.57,7.53z"/>
   <path class="fil3" d="M2391.32 3537.72l39.51 188.4c71.79,3.89 288.59,12.51 538.58,-7.56 59.32,-131.29 95.79,-272.11 103.25,-418.68 1.67,-32.9 1.17,-65.11 -1.26,-96.81 -41.36,-41.17 -71.24,-67.46 -71.24,-67.46 0,0 -493.05,188.3 -608.85,402.1z"/>
   <path class="fil5" d="M2105.02 3654.77l121.82 -501.5 41.93 -124.29 44.48 136.44 104.54 498.47c114.22,0.47 385.46,-3.9 593.47,-50.48 34.62,-100.37 55.91,-205.39 61.41,-313.53 7.17,-140.8 -25.47,-269 -79.07,-398.05 -29.25,-70.42 -63.52,-138.67 -97.97,-206.65 -42.71,-84.28 -85.87,-168.43 -121.29,-256.11 -73.67,-182.38 -98.36,-351.39 -69.91,-525.73 -379.86,-98.72 -758.92,-186.57 -920.41,-191.13 91.47,245.56 81.83,468.86 -18.35,716.86 -35.42,87.69 -78.58,171.84 -121.29,256.11 -97.66,192.69 -188.38,382 -177.04,604.7 5.73,112.57 36.08,234.26 81.42,351.97 157.72,25.42 349.98,36.13 556.26,2.92z"/>
   <path class="fil6" d="M1686.14 2612.41c-13.77,27.66 -27.79,55.21 -41.76,82.77 -97.66,192.69 -188.38,382 -177.04,604.7 5.73,112.57 36.08,234.26 81.42,351.97 25.46,4.1 51.82,7.82 78.99,11.03 -43.3,-124.43 -71.83,-268.13 -54.17,-412.11 48.31,-393.89 178.37,-575.97 178.37,-575.97 0,0 -27.64,-27.18 -65.81,-62.39z"/>
   <path class="fil6" d="M2882.32 3636.35c44.31,-6.19 87.86,-13.74 128.94,-22.93 34.62,-100.37 55.91,-205.39 61.41,-313.53 7.17,-140.8 -25.47,-269 -79.07,-398.05 -29.25,-70.42 -63.52,-138.67 -97.97,-206.65 -30.67,-60.51 -61.56,-120.95 -89.66,-182.69 -21.02,35.95 -30.06,79.97 -2.92,127.54 78.8,138.15 129.55,350.44 125.18,599.6 -2.3,130.92 -18.56,269.48 -45.91,396.71z"/>
   <path class="fil7" d="M2454.65 3663.86c65.85,-0.37 160.86,-2.55 263.16,-10.23 46.13,-442.95 -410.8,-719.6 -289.62,-112.98 8.18,40.94 17.06,82.74 26.46,123.21z"/>
   <path class="fil7" d="M2081.47 3676.87c-65.85,-0.37 -160.86,-2.55 -263.16,-10.23 -46.13,-442.95 410.8,-719.6 289.62,-112.98 -8.18,40.94 -17.06,82.74 -26.46,123.21z"/>
   <path class="fil6" d="M2897.07 2698.04l-1.45 -2.85c-35.39,-69.83 -71.08,-139.57 -102.43,-211.3 -120.87,-54.83 -249.6,-109.23 -284.62,-109.23 -70.61,0 -462.64,-52.02 -535.1,-20.44 -28.74,12.53 -109.22,13.97 -188.46,34.08 -6.03,16.82 -12.46,33.74 -19.35,50.77 -35.42,87.69 -78.58,171.84 -121.29,256.11 -4.55,8.98 -9.09,17.95 -13.6,26.92 335.98,203.04 918.98,185.92 1266.29,-24.07z"/>
   <path class="fil1" d="M2153.26 3620.03c-7.68,19.9 -2.12,35.4 -11.23,55.73 -70.99,15.99 -257.79,44.9 -680.11,-10.22l-5.26 -51.93c153.38,28.54 524.05,56.42 696.59,6.42z"/>
   <path class="fil8" d="M2867.91 2640.43c-33.32,-66.12 -65.82,-132.65 -93.57,-201.36 -106.82,-264.44 -110.7,-500.79 1.18,-766l3.58 -8.49 6.25 -6.77c37.42,-40.54 68.07,-88.2 85.84,-140.62 5.36,-15.82 11.47,-37.99 13.14,-56.11 -24.82,-94.15 -46.84,-190.25 -61.24,-286.53 -8.86,-59.21 -15.36,-120.99 -14.14,-180.94 0.48,-23.67 2.63,-57.55 9.98,-87.69 -153.31,-122.26 -334.73,-229.68 -533.43,-243.66 -216.32,-15.22 -407.98,83.81 -571.85,215.49 9.07,34.1 12.55,73.74 13.64,100.97 6.14,153.87 -32.45,333.81 -71.63,482.48 1.51,16.37 7.33,38.11 11.93,52.23 17.54,53.87 48.8,102.9 87.09,144.38l6.25 6.77 3.58 8.49c111.88,265.21 108,501.56 1.18,766 -30.7,76.01 -67.22,149.36 -104.22,222.43 202.49,74.53 688.66,203.9 1206.45,-21.08z"/>
   <path class="fil9" d="M2808.81 1006.42c0.01,-4.28 0.06,-8.55 0.14,-12.81 0.48,-23.67 2.63,-57.55 9.98,-87.69 -153.31,-122.26 -334.73,-229.68 -533.43,-243.66 -216.32,-15.22 -407.98,83.81 -571.85,215.49 8.18,30.74 11.81,65.96 13.24,92.56 102.56,52.98 239.75,107.79 385.8,139.73 171.84,37.57 215.01,37.47 386.99,-0.37 112.25,-24.7 219.19,-62.86 309.13,-103.25z"/>
   <path class="fil1" d="M1796.16 749.44c0,0 34.68,578.72 468.21,586.59 433.53,7.87 472.55,-586.59 472.55,-586.59l-940.76 0z"/>
   <path class="fil2" d="M1860.7 789.69c0,0 29.93,499.31 403.97,506.1 374.04,6.79 407.71,-506.1 407.71,-506.1l-811.68 0z"/>
   <path class="fil3" d="M1860.7 789.69c0,0 8.23,136.77 69.67,268.12 57.73,20.35 119.19,38.43 182.31,52.24 171.84,37.57 215.01,37.47 386.99,-0.37 30.18,-6.64 59.97,-14.26 89.15,-22.63 73.14,-139.43 83.55,-297.36 83.55,-297.36l-811.68 0z"/>
   <path class="fil2" d="M1746.67 5377.32l243.4 -11.07c23.9,-153.06 48.02,-306.09 72.33,-459.09 15.03,-94.65 30.15,-189.3 45.54,-283.9 10.27,-63.1 20.35,-126.47 31.79,-189.36 18.89,-103.87 -58.43,-299.71 -111.74,-408.35 -47.04,-3.02 -94.65,-4.69 -141.48,-4.8 -24.32,-0.06 -102.45,0.58 -131.86,9.38 -37.05,73.18 -73.37,146.92 -108.85,220.85 -22.14,46.14 -44.1,92.54 -64.73,139.37 -7.56,17.16 -15.02,34.47 -21.79,51.96 -2.77,7.17 -7.2,17.89 -8.55,24.69 -2.47,18.51 -5.82,34.07 -6.48,53.14 -1.41,41.1 4.52,85.81 10.94,126.28 14.69,92.75 37.25,186.16 60.7,277.03 39.29,152.25 84.17,303.6 130.79,453.86z"/>
   <path class="fil3" d="M1812.39 4022.67c-22.84,1.35 -44.93,3.64 -57.75,7.47 -37.05,73.18 -73.37,146.92 -108.85,220.85 -22.14,46.14 -44.1,92.54 -64.73,139.37 -7.56,17.16 -15.02,34.47 -21.79,51.96 -2.77,7.17 -7.2,17.89 -8.55,24.69 -2.47,18.51 -5.82,34.07 -6.48,53.14 -1.41,41.1 4.52,85.81 10.94,126.28 14.69,92.75 37.25,186.16 60.7,277.03 29.97,116.13 63.19,231.73 97.95,346.73 8,-71.32 10.55,-149.75 6.53,-235.74 0,0 -94.76,-206.24 -113.34,-542.53 0,0 76.17,-219.24 215.52,-455.21 0,0 -3.69,-4.88 -10.16,-14.04z"/>
   <path class="fil3" d="M1808.73 4113.37c0,0 28.8,89.18 103.12,96.61 74.32,7.43 105.9,-104.05 105.9,-104.05 0,0 -71.53,51.09 -209.02,7.43z"/>
   <path class="fil3" d="M2523.13 4101.29c37.42,103.81 177.44,134.15 177.44,-15.79 0,0 -39.95,59.45 -177.44,15.79z"/>
   <g>
    <path class="fil1" d="M3367.97 4984.19l-47.2 608.44 -8.37 145.8 -430.29 -246.33c-32.85,-163.29 -65.67,-324.89 -98.52,-488.17 172.66,-41.22 403.46,-62.17 584.38,-19.73z"/>
    <path class="fil10" d="M2835.07 5038.54l81.38 425.6 357.45 209.36c11.7,-196.52 29.66,-446.97 41.37,-643.49 -25.63,-15.31 -236.06,-38.09 -480.2,8.54z"/>
    <path class="fil11" d="M3235.15 5444.02c-5,9.78 -15.44,16.95 -27.63,17.74l-91.66 5.88c-13.38,0.85 -25.16,-6.2 -30.2,-16.83l-39.71 1.8 -69.77 -78.77 50.51 -89.03 56.06 -2.04c5.37,-8.69 15.15,-14.88 26.48,-15.6l91.64 -5.88c13.08,-0.83 24.64,5.88 29.84,16.12l60.11 -2.19c-3.68,55.59 -7.42,111.7 -11.04,166.79l-44.63 2.03z"/>
    <path class="fil12" d="M2858.43 5160.7l58.03 303.44 44.82 26.25c32.24,3.97 58.19,6.88 58.19,6.88l-40.03 -65.84 -54.73 -389.72c-4.22,-3.17 -53.59,-0.38 -60.16,26.51 -6.57,26.89 -15.35,33.79 -6.11,92.47z"/>
    <path class="fil12" d="M2835.07 5038.54l29.28 140.94 10.77 8.52c5.1,-7.77 8.14,-12.66 8.14,-12.66l-3.52 -100.67c0,0 164.19,-47.99 411.34,-51.93 -66.59,-13.38 -249.18,-23.7 -456.01,15.8z"/>
    <path class="fil11" d="M2855.49 5145.34l8.95 46.79c56.07,-11.76 234.69,-42.85 441.54,-13.5 1.5,-23.24 2.97,-46.14 4.38,-68.59 -84.5,-6.93 -225.87,-3.87 -454.86,35.3z"/>
    <path class="fil11" d="M3162.34 5608.15l111.56 65.34c13.5,-215.02 27,-430.04 40.5,-645.07 -39.04,-13.68 -102.37,-18.74 -152.22,-18.87 3.34,96.58 -5.25,426.45 0.16,598.6z"/>
    <path class="fil1" d="M2897.52 5428.48c-9.61,0.08 -274.51,299.61 -281.88,335.96l1.75 34.41c0,0 330.21,2.5 697.1,-20.63l0.08 -141.1c0,0 -417.08,-212.1 -417.05,-208.65z"/>
    <path class="fil10" d="M2915.83 5487.36c0,0 -130.08,124.08 -228.62,256.27 0,0 178.05,13.32 593.02,-10.79l-1.78 -172.65 -362.61 -72.83z"/>
    <path class="fil11" d="M3021.7 5691.41c69.19,2.64 153.91,4.66 258.96,-1.44l0.18 -139.85 -119.7 -31.73 -139.44 173.02z"/>
    <path class="fil12" d="M2915.83 5487.36c0,0 -83.42,83.22 -195.8,213.45 0,0 46.55,-0.34 172.66,-2.16l138.25 -189.82 -115.11 -21.48z"/>
    <path class="fil1" d="M2702.96 5676.72c6.28,-0.06 242.67,25.89 240.57,25.07 -2.1,-0.82 -252.04,3.5 -252.04,3.5l11.47 -28.57z"/>
    <path class="fil1" d="M3326.55 5136.51c0,0 -109.65,-24.73 -304.28,-14.77 0,0 181.36,-37.88 308.73,-25.03l3.62 21.22 -8.06 18.58z"/>
    <path class="fil1" d="M2841.56 5165.49c0,0 88.66,-25.57 162.25,-40.95 0,0 -107.2,-1.58 -170.8,4.29l-4.26 15.66 12.81 21z"/>
    <g>
     <polygon class="fil1" points="3372.65,5212 3022.38,5224.74 2965.35,5325.25 3044.14,5414.21 3358.68,5399.94 "/>
     <polygon class="fil13" points="3331.32,5366.19 3339.08,5245.4 3039.83,5255.4 3000.43,5323.46 3052.46,5381.46 "/>
     <path class="fil14" d="M3011.41 5320.61l44.09 55.19 266.08 -20.28 4.29 -61.6c0,0 -180.42,22.37 -314.46,26.69z"/>
     <g>
      <path class="fil1" d="M3256.08 5229.24l5.29 159.62c0.61,18.36 -15.05,34.42 -34.79,35.69l-103.49 6.64c-19.75,1.27 -36.4,-12.72 -37.01,-31.08l-5.29 -159.62c-0.61,-18.36 15.05,-34.42 34.79,-35.69l103.5 -6.64c19.74,-1.27 36.4,12.72 37.01,31.08z"/>
      <path class="fil15" d="M3228.45 5237.03l4.89 147.61c0.2,6.12 -5.02,11.47 -11.59,11.9l-95.71 6.14c-6.58,0.42 -12.13,-4.23 -12.33,-10.36l-4.89 -147.61c-0.2,-6.12 5.02,-11.47 11.6,-11.9l95.71 -6.14c6.58,-0.42 12.13,4.24 12.33,10.36z"/>
      <path class="fil16" d="M3231.32 5323.69l2.02 60.95c0.19,6.12 -5.02,11.46 -11.6,11.91l-95.71 6.13c-6.57,0.42 -12.12,-4.24 -12.32,-10.36l-2.42 -72.78c42.64,4.48 85.57,5.01 120.03,4.15z"/>
      <polygon class="fil1" points="3204.78,5256.82 3208.47,5367.96 3137.36,5372.53 3133.68,5261.38 "/>
      <rect class="fil1" transform="matrix(-0.0282119 -0.851331 -0.850457 0.0546002 3196.65 5357.58)" width="104.43" height="56.68"/>
     </g>
    </g>
    <path class="fil1" d="M3299.91 5656.14c0,0 -286.22,42.05 -281.17,42.84 5.05,0.8 278.17,-1.64 278.17,-1.64l3 -41.21z"/>
   </g>
   <g>
    <path class="fil1" d="M1540.14 5032.37l75.58 601.87 6.32 182.04 424.47 -302.56c24.9,-163.68 49.87,-325.67 74.78,-489.34 -173.37,-32.78 -403.51,-42.69 -581.14,7.99z"/>
    <path class="fil10" d="M2071.8 5061.17l-60.72 426.41 -345.02 224.73c-20.89,-194.57 -50.55,-442.39 -71.44,-636.95 24.73,-16.41 232.58,-48.97 477.18,-14.19z"/>
    <path class="fil11" d="M1693.71 5482.65c5.42,9.47 16.13,16.1 28.27,16.31l91.28 1.51c13.33,0.21 24.69,-7.34 29.2,-18.14l39.51 -0.09 65.56 -81.5 -54.35 -86.01 -55.76 0.62c-5.74,-8.37 -15.75,-14.06 -27.03,-14.24l-91.27 -1.52c-13.03,-0.2 -24.18,7 -28.87,17.41l-59.79 0.67c6.28,55.02 12.65,110.56 18.84,165.08l44.41 -0.09z"/>
    <path class="fil12" d="M2054.37 5183.57l-43.29 304.02 -43.26 28.18c-31.82,5.47 -57.45,9.58 -57.45,9.58l36.65 -67.26 35.94 -389.52c4.04,-3.35 53.19,-2.91 60.98,23.48 7.79,26.39 16.83,32.83 10.43,91.52z"/>
    <path class="fil12" d="M2071.8 5061.18l-22.42 141.32 -10.28 8.97c-5.43,-7.48 -8.68,-12.19 -8.68,-12.19l-1.26 -100.11c0,0 -165.29,-39.9 -410.86,-32.15 65.48,-16.43 246.29,-35.29 453.5,-5.83z"/>
    <path class="fil11" d="M2056.56 5168.18l-6.67 46.87c-56.23,-9.03 -235.04,-31.47 -439.02,7.44 -2.59,-23 -5.12,-45.67 -7.59,-67.89 83.57,-10.87 224.07,-14.5 453.28,13.58z"/>
    <path class="fil11" d="M1773.74 5642.17l-107.68 70.14c-23.55,-212.85 -47.1,-425.7 -70.65,-638.56 38.12,-15.42 100.76,-23.43 150.25,-25.92 1.25,96.05 25.34,423.16 28.09,594.34z"/>
    <path class="fil1" d="M2028.2 5451.29c9.55,-0.37 286.7,284.52 295.73,320.26l-0.12 34.25c0,0 -335.93,16.75 -701.3,11.1l1.47 -138.77c0,0 404.1,-230.27 404.23,-226.84z"/>
    <path class="fil10" d="M2012.8 5510.61c0,0 135.01,117.05 239.08,243.66 0,0 -176.15,21.63 -589.3,17.27l-6.38 -171.51 356.59 -89.43z"/>
    <path class="fil11" d="M1917.32 5718.2c-68.57,5.9 -152.59,11.9 -257.18,10.79l-6.78 -138.84 117.35 -37.15 146.61 165.2z"/>
    <path class="fil12" d="M2012.8 5510.61c0,0 86.75,78.69 204.47,202.68 0,0 -46.23,1.86 -171.53,6.01l-146.22 -181.94 113.28 -26.75z"/>
    <path class="fil1" d="M2233.09 5688.57c-6.24,0.24 -239.72,37.16 -237.67,36.25 2.05,-0.91 250.41,-8.42 250.41,-8.42l-12.73 -27.83z"/>
    <path class="fil1" d="M1588.45 5181.64c0,0 107.7,-29.73 301.41,-29.02 0,0 -181.86,-29.05 -307.71,-10.29l-2.59 21.24 8.88 18.07z"/>
    <path class="fil1" d="M2071.35 5187.53c0,0 -89.24,-21.21 -163.03,-33 0,0 106.36,-6.63 169.78,-3.8l4.97 15.35 -11.73 21.45z"/>
    <g>
     <polygon class="fil1" points="1546.24,5258.77 1894.61,5254.9 1955.98,5352 1881.96,5444.04 1568.98,5444.72 "/>
     <polygon class="fil13" points="1594.56,5409.91 1581.14,5290.35 1878.73,5286.16 1921.07,5351.88 1872.15,5411.91 "/>
     <path class="fil14" d="M1910.04 5349.56l-41.18 56.88 -265.14 -7.57 -7.17 -60.96c0,0 180.18,13.7 313.48,11.65z"/>
     <g>
      <path class="fil1" d="M1662.8 5270.39l2.28 158.73c0.26,18.26 16.56,33.47 36.23,33.79l103.07 1.71c19.67,0.33 35.54,-14.34 35.28,-32.6l-2.28 -158.73c-0.26,-18.26 -16.57,-33.46 -36.23,-33.79l-103.07 -1.71c-19.66,-0.33 -35.54,14.34 -35.27,32.6z"/>
      <path class="fil15" d="M1690.6 5276.82l2.11 146.79c0.09,6.09 5.52,11.15 12.07,11.27l95.32 1.58c6.56,0.11 11.84,-4.78 11.76,-10.87l-2.11 -146.79c-0.09,-6.09 -5.52,-11.15 -12.08,-11.27l-95.32 -1.58c-6.55,-0.11 -11.84,4.78 -11.76,10.87z"/>
      <path class="fil16" d="M1691.83 5363l0.87 60.62c0.09,6.09 5.52,11.14 12.08,11.27l95.32 1.57c6.54,0.11 11.84,-4.78 11.75,-10.87l-1.04 -72.37c-42.13,6.46 -84.72,9.01 -118.98,9.78z"/>
      <polygon class="fil1" points="1715.03,5295.35 1716.62,5405.87 1787.43,5407.05 1785.84,5296.52 "/>
      <rect class="fil1" transform="matrix(-0.0121685 -0.846592 0.846969 0.0140729 1727.86 5395.01)" width="104.43" height="56.68"/>
     </g>
    </g>
    <path class="fil1" d="M1639.43 5696.31c0,0 286.16,28.24 281.18,29.27 -4.98,1.03 -276.26,11.5 -276.26,11.5l-4.92 -40.77z"/>
   </g>
   <path class="fil1" d="M2052.2 3112.72c130.99,89.81 283.22,114.22 430.79,-9.29 0,0 -172.58,-53.51 -430.79,9.29z"/>
   <path class="fil1" d="M1659.01 2636.89c0,0 620.57,271.26 1216.98,-29.73l26.01 39.02c0,0 -526.74,315.86 -1262.5,37.15l2.79 -39.01 16.72 -7.43z"/>
   <g>
    <path class="fil1" d="M1644.83 860.19c-645.38,507.98 -1036.2,1677.48 -515.01,2431.22 0,0 282.4,-80.58 434.17,-200.51 -18.63,-23.98 -36.43,-54.01 -86.45,-157.78 -86.18,-238.3 -207.89,-823.08 182.31,-1346.52 -41.4,-78.35 -42.36,-130.88 -42.36,-130.88 126.34,-475.64 39.25,-603.84 39.25,-603.84l-11.91 8.31z"/>
    <path class="fil2" d="M1666.47 909.59c-299.03,239.38 -518.57,611.17 -629.34,959.57 -142.22,447.33 -128.87,991.61 139.14,1376.27 30.34,-7.93 241.04,-103.43 328.2,-147.21 -63.48,-96.15 -83.66,-165.1 -93.73,-195.82 -45.42,-138.59 -72.77,-284.82 -79.39,-430.51 -16.03,-352.82 90.11,-666.83 289.16,-933.65 -17.35,-49.3 -17.87,-82.51 -17.87,-82.51 84.25,-317.18 77.62,-475.7 63.84,-546.13z"/>
    <path class="fil17" d="M1666.47 909.59c-299.03,239.38 -518.57,611.17 -629.34,959.57 -142.22,447.33 -128.87,991.61 139.14,1376.27 2.92,-0.77 7.55,-2.35 13.55,-4.62 -246.85,-382.39 -255.65,-908.9 -117.39,-1343.78 107.2,-337.16 316.26,-696.21 600.63,-935.98 -1.52,-20.81 -3.92,-37.8 -6.59,-51.47z"/>
    <path class="fil3" d="M1485.29 3067.89c-48.56,-80.34 -65.58,-138.11 -74.56,-165.5 -45.42,-138.59 -72.77,-284.82 -79.39,-430.51 -16.03,-352.82 90.11,-666.83 289.16,-933.65 -9.79,-27.83 -14.22,-50.53 -16.22,-65.03 -677.38,742.7 -184.13,1596.8 -192.73,1596.8l73.74 -2.1z"/>
    <path class="fil1" d="M1124.22 3282.13c0,0 71.54,311.21 294.49,448.7 0,0 76.63,25.08 143.52,23.23 0,0 42.27,-14.86 75.72,-73.39 0,0 90.11,0 138.42,-90.11 0,0 92.9,-52.02 111.48,-116.12l-82.68 -113.34c0,0 24.16,-78.05 28.81,-149.58 0,0 3.72,-62.24 -2.78,-65.03 -6.5,-2.79 -128.2,-94.77 -334.44,-111.49 0,0 -86.4,26.01 -198.8,100.33 -112.41,74.32 -173.73,146.79 -173.73,146.79z"/>
    <path class="fil2" d="M1169.49 3233.78c0,0 62.24,303.77 269.41,452.41 0,0 104.05,22.3 123.56,20.44 0,0 32.51,-31.59 35.3,-63.17 0,0 98.48,-4.64 139.35,-89.18 0,0 78.96,-22.3 104.05,-82.68 0,0 -169.08,-234.11 -161.65,-235.97 7.43,-1.86 97.55,79.9 97.55,79.9 0,0 16.72,-54.82 11.15,-133.78 0,0 -125.41,-104.05 -387.39,-116.12 -78.13,3.72 -203.76,71.04 -231.32,168.15z"/>
    <path class="fil3" d="M1445.24 3687.53c22.86,4.79 100.62,20.68 117.21,19.1 0,0 32.51,-31.59 35.3,-63.17 0,0 98.48,-4.64 139.35,-89.18 0,0 78.96,-22.3 104.05,-82.68 0,0 -27.53,-38.05 -53.56,-74.59 -127.14,113.26 -260.46,235.21 -342.34,290.52z"/>
   </g>
   <path class="fil5" d="M2031.5 3108.4c190.83,33.99 292.74,41.18 481.22,-13.93 0,0 -98.47,-106.83 -105.9,-107.76 -7.43,-0.93 -156.07,-36.23 -170.94,-28.8 -14.86,7.43 -204.38,150.49 -204.38,150.49z"/>
   <path class="fil1" d="M3082.76 3560.78c-5.74,20.55 -12.15,41.4 -19.27,62.51 -69.13,22.72 -252.3,69.39 -677.96,54.98l-10.21 -51.19c155.41,13.71 564.04,2.4 707.43,-66.3z"/>
   <path class="fil1" d="M2520.8 4100.4c0,0 92.37,31.83 180.38,-16.73 -43.58,93.36 -138.57,86.56 -180.38,16.73z"/>
   <path class="fil1" d="M1806.39 4110.05c0,0 108.94,37.81 216.97,-9.07 -57.23,96.08 -170.64,84.45 -216.97,9.07z"/>
   <path class="fil18" d="M1989.89 1762.46c0,0 276.84,-79.9 618.71,3.71 -168.46,-142.2 -458.52,-171.91 -618.71,-3.71z"/>
   <path class="fil1" d="M2866.29 1570.15c0,0 -71.53,128.2 -295.42,126.34 0,0 102.2,31.59 222.96,9.29l42.73 -46.45 29.73 -89.18z"/>
   <path class="fil1" d="M1686.48 1570.15c0,0 71.53,128.2 295.42,126.34 0,0 -102.2,31.59 -222.96,9.29l-42.73 -46.45 -29.73 -89.18z"/>
   <g>
    <path class="fil1" d="M2889.62 893.63c645.38,507.98 1036.2,1677.48 515.01,2431.22 0,0 -282.4,-80.58 -434.17,-200.51 18.63,-23.98 36.43,-54.01 86.45,-157.78 86.18,-238.3 207.89,-823.08 -182.31,-1346.52 41.4,-78.35 42.36,-130.88 42.36,-130.88 -126.34,-475.64 -39.25,-603.84 -39.25,-603.84l11.91 8.31z"/>
    <path class="fil2" d="M2867.98 943.03c299.03,239.38 518.57,611.17 629.34,959.57 142.22,447.33 128.87,991.61 -139.14,1376.27 -30.34,-7.93 -241.04,-103.43 -328.2,-147.21 63.48,-96.15 83.66,-165.1 93.73,-195.82 45.42,-138.59 72.77,-284.82 79.39,-430.51 16.03,-352.82 -90.11,-666.83 -289.16,-933.65 17.35,-49.3 17.87,-82.51 17.87,-82.51 -84.25,-317.18 -77.62,-475.7 -63.84,-546.13z"/>
    <path class="fil17" d="M2867.98 943.03c299.03,239.38 518.57,611.17 629.34,959.57 142.22,447.33 128.87,991.61 -139.14,1376.27 -2.92,-0.77 -7.55,-2.35 -13.55,-4.62 246.85,-382.39 255.65,-908.9 117.39,-1343.78 -107.2,-337.16 -316.26,-696.21 -600.63,-935.98 1.52,-20.81 3.92,-37.8 6.59,-51.47z"/>
    <path class="fil3" d="M3049.16 3101.34c48.56,-80.34 65.58,-138.11 74.56,-165.5 45.42,-138.59 72.77,-284.82 79.39,-430.51 16.03,-352.82 -90.11,-666.83 -289.16,-933.65 9.79,-27.83 14.22,-50.53 16.22,-65.03 677.38,742.7 184.13,1596.8 192.73,1596.8l-73.74 -2.1z"/>
    <path class="fil1" d="M3410.23 3315.57c0,0 -71.54,311.21 -294.49,448.7 0,0 -76.63,25.08 -143.52,23.23 0,0 -42.27,-14.86 -75.72,-73.39 0,0 -90.11,0 -138.42,-90.11 0,0 -92.9,-52.02 -111.48,-116.12l82.68 -113.34c0,0 -24.16,-78.05 -28.81,-149.58 0,0 -3.72,-62.24 2.78,-65.03 6.5,-2.79 128.2,-94.77 334.44,-111.49 0,0 86.4,26.01 198.8,100.33 112.41,74.32 173.73,146.79 173.73,146.79z"/>
    <path class="fil2" d="M3364.96 3267.22c0,0 -62.24,303.77 -269.41,452.41 0,0 -104.05,22.3 -123.56,20.44 0,0 -32.51,-31.59 -35.3,-63.17 0,0 -98.48,-4.64 -139.35,-89.18 0,0 -78.96,-22.3 -104.05,-82.68 0,0 169.08,-234.11 161.65,-235.97 -7.43,-1.86 -97.55,79.9 -97.55,79.9 0,0 -16.72,-54.82 -11.15,-133.78 0,0 125.41,-104.05 387.39,-116.12 78.13,3.72 203.76,71.04 231.32,168.15z"/>
    <path class="fil3" d="M3089.2 3720.98c-22.86,4.79 -100.62,20.68 -117.21,19.1 0,0 -32.51,-31.59 -35.3,-63.17 0,0 -98.48,-4.64 -139.35,-89.18 0,0 -78.96,-22.3 -104.05,-82.68 0,0 27.53,-38.05 53.56,-74.59 127.14,113.26 260.46,235.21 342.34,290.52z"/>
   </g>
  </g>
 </g>
</svg>
