<?xml version="1.0" encoding="UTF-8"?>
<!DOCTYPE svg PUBLIC "-//W3C//DTD SVG 1.1//EN" "http://www.w3.org/Graphics/SVG/1.1/DTD/svg11.dtd">
<!-- Creator: CorelDRAW 2020 (64-Bit) -->
<svg xmlns="http://www.w3.org/2000/svg" xml:space="preserve" width="129.436mm" height="197.988mm" version="1.1" style="shape-rendering:geometricPrecision; text-rendering:geometricPrecision; image-rendering:optimizeQuality; fill-rule:evenodd; clip-rule:evenodd"
viewBox="0 0 2946.25 4506.65"
 xmlns:xlink="http://www.w3.org/1999/xlink"
 xmlns:xodm="http://www.corel.com/coreldraw/odm/2003">
 <defs>
  <style type="text/css">
   <![CDATA[
    .fil0 {fill:none}
    .fil1 {fill:#501D33}
    .fil9 {fill:#703D43}
    .fil17 {fill:#7B7C7B}
    .fil8 {fill:#845451}
    .fil23 {fill:#885054}
    .fil12 {fill:#965F54}
    .fil14 {fill:#9893A0}
    .fil27 {fill:#9BA4A2}
    .fil22 {fill:#9C7760}
    .fil16 {fill:#A2B093}
    .fil10 {fill:#AF8777}
    .fil11 {fill:#BE986E}
    .fil13 {fill:#C7C0C9}
    .fil24 {fill:#C7CEC4}
    .fil18 {fill:#CBC57A}
    .fil19 {fill:#D3D9B1}
    .fil3 {fill:#D77D75}
    .fil25 {fill:#D7DCD5}
    .fil6 {fill:#DD765F}
    .fil28 {fill:#FBEDAD}
    .fil5 {fill:#FFC57B}
    .fil2 {fill:#FFCFA5}
    .fil7 {fill:#FFD992}
    .fil4 {fill:#FFE0B3}
    .fil20 {fill:#FFE38A}
    .fil21 {fill:#FFFFAC}
    .fil26 {fill:white}
    .fil15 {fill:white}
   ]]>
  </style>
 </defs>
 <g id="Слой_x0020_1">
  <metadata id="CorelCorpID_0Corel-Layer"/>
  <rect id="_166536576" class="fil0" width="2946.25" height="4506.65"/>
  <g id="_994159776">
   <path class="fil1" d="M1060.64 558.28c0,0 166.71,137.23 16.4,332.32 -64.68,83.95 -49.05,126.25 25.76,207.3 190.42,451.4 -214.79,659.84 -195.28,1043.1 6.5,127.65 48.77,298.05 183.23,469.75l240.89 2.41 129.14 -558.38 109.86 571.63 269.8 -13.25c134.45,-171.7 169.51,-344.51 176,-472.16 19.5,-383.27 -385.7,-591.7 -195.28,-1043.1 72.27,-78.29 73.48,-154.18 73.48,-154.18 -81.91,-308.35 -36.13,-367.37 -36.13,-367.37 -258.56,-213.97 -506.7,-263.32 -797.86,-18.07z"/>
   <ellipse class="fil1" cx="1559.63" cy="3747.3" rx="1085.41" ry="61.95"/>
   <path class="fil1" d="M1100.35 2591.47c0,0 -133.7,263.78 -138.52,299.92 -4.82,36.14 -32.52,90.34 136.11,629.96l211.99 -9.64c0,0 81.91,-525.17 101.18,-631.16 19.27,-105.99 -84.32,-303.53 -84.32,-303.53 0,0 -216.81,-16.86 -226.45,14.45z"/>
   <path class="fil1" d="M1571.3 2580.63c0,0 -15.05,81.3 11.44,131.89 26.5,50.59 266.8,635.38 314.98,787.15l192.72 0c0,0 89.13,-445.67 14.45,-631.16 -74.68,-185.49 -269.2,-309.56 -269.2,-309.56 0,0 -230.67,-69.86 -264.39,21.68z"/>
   <path class="fil2" d="M1131.18 2615.92l174.7 4.33 -1.72 -41.52 129.83 -534.52 27.18 -80.57 28.84 88.45 111.35 530.93 214.68 -5.96c96.29,-127.38 158.12,-277.29 166.29,-437.81 4.65,-91.28 -16.51,-174.39 -51.26,-258.05 -18.96,-45.65 -41.18,-89.9 -63.51,-133.97 -27.69,-54.64 -55.67,-109.19 -78.63,-166.03 -69.25,-171.43 -71.76,-324.66 0.76,-496.59l2.32 -5.5 4.05 -4.39c24.26,-26.28 44.13,-57.18 55.65,-91.17 3.48,-10.26 7.44,-24.63 8.52,-36.37 -16.09,-61.04 -30.36,-123.33 -39.7,-185.75 -5.74,-38.38 -9.96,-78.44 -9.16,-117.3 0.31,-15.34 1.7,-37.31 6.47,-56.85 -99.39,-79.26 -217,-148.9 -345.82,-157.96 -140.24,-9.87 -264.49,54.33 -370.72,139.7 5.88,22.11 8.14,47.8 8.84,65.46 3.98,99.75 -21.04,216.41 -46.44,312.78 0.98,10.61 4.75,24.71 7.73,33.86 11.37,34.92 31.63,66.71 56.46,93.6l4.05 4.39 2.32 5.5c72.53,171.93 70.01,325.15 0.76,496.59 -22.96,56.85 -50.94,111.4 -78.63,166.03 -63.31,124.92 -122.12,247.65 -114.77,392.02 8.16,160.39 93.39,349.34 189.56,476.66z"/>
   <path class="fil3" d="M1131.18 2615.92l40.72 1.01c-0.24,-0.32 -192.7,-254.31 -161.4,-509.5 31.32,-255.35 115.63,-373.39 115.63,-373.39 0,0 -17.92,-17.62 -42.66,-40.45 -8.93,17.93 -18.02,35.79 -27.07,53.66 -63.31,124.92 -122.12,247.65 -114.77,392.02 8.16,160.39 93.39,349.34 189.56,476.66z"/>
   <path class="fil3" d="M1781.79 2578.02l34.25 -0.95c96.29,-127.38 158.12,-277.29 166.29,-437.81 4.65,-91.28 -16.51,-174.39 -51.26,-258.05 -18.96,-45.65 -41.18,-89.9 -63.51,-133.97 -19.88,-39.23 -39.91,-78.41 -58.12,-118.43 -13.63,23.31 -19.48,51.85 -1.89,82.68 51.09,89.56 83.99,227.19 81.15,388.71 -3.05,173.66 -43.99,368.08 -106.9,477.81z"/>
   <path class="fil2" d="M1600.32 2576.51c-1.08,34.34 -6.54,79.49 8.45,108.13 26.11,49.84 53.41,131.42 77.03,187.23 35.5,83.89 70.3,168.11 104.56,252.51 28.51,70.24 56.7,140.65 83.98,211.37 16.45,42.65 33.38,86.19 48.1,129.77l139.73 0c4.91,-27.09 9.18,-54.45 13.17,-81.51 11.62,-78.62 20.41,-158.44 23.86,-237.85 3.41,-78.25 3.5,-191.62 -26,-264.9 -32.33,-80.31 -91.59,-151.15 -155.79,-208.25 -29.37,-26.12 -75.73,-69.98 -102.18,-95.66 -37.39,-7.56 -22.47,-148.42 -59.73,-147.44 -23.63,0.62 -140.98,121.43 -155.2,146.6z"/>
   <path class="fil3" d="M2005.58 3465.52l56.61 0c4.91,-27.09 9.18,-54.45 13.17,-81.51 11.62,-78.62 20.41,-158.44 23.86,-237.85 3.41,-78.25 3.5,-191.62 -26,-264.9 -32.33,-80.31 -91.59,-151.15 -155.79,-208.25 -29.37,-26.12 -75.73,-69.98 -102.18,-95.66 -9.17,-1.85 -15.18,-11.73 -19.6,-25.56 -11.55,23.66 -23.97,44.43 -37.15,61.54 0,0 338.47,230.06 261.38,723.9 -7.64,48.94 -12.21,91.38 -14.3,128.28z"/>
   <path class="fil4" d="M1564.52 2295.35c24.81,124.18 59.53,260.51 92.82,263.78 27.77,2.72 69.67,-64.56 87.44,-144.38 69.66,-312.87 -262.96,-533.36 -180.27,-119.39z"/>
   <path class="fil4" d="M1356.91 2303.78c-24.81,124.18 -59.53,260.51 -92.82,263.78 -27.77,2.72 -69.67,-64.56 -87.44,-144.38 -69.66,-312.87 262.96,-533.36 180.27,-119.39z"/>
   <path class="fil3" d="M1340.61 2428.65l73.38 -302.09c-37.24,-43.04 -68.45,-73.17 -68.45,-73.17 0,0 -277.55,91.47 -383.93,211.88 13.53,53.21 33.02,106.98 56.43,158.5 73.3,5.42 192.45,11.12 322.57,4.88z"/>
   <path class="fil3" d="M1540.62 2293.45l25.62 122.14c46.54,2.52 187.09,8.11 349.16,-4.9 38.46,-85.11 62.1,-176.41 66.93,-271.42 1.09,-21.33 0.76,-42.21 -0.81,-62.76 -26.81,-26.69 -46.18,-43.74 -46.18,-43.74 0,0 -319.64,122.07 -394.71,260.68z"/>
   <path class="fil5" d="M1355.02 2369.34l78.97 -325.12 27.18 -80.57 28.84 88.45 67.77 323.15c74.05,0.31 249.89,-2.53 384.74,-32.72 22.44,-65.07 36.24,-133.15 39.81,-203.26 4.65,-91.28 -16.51,-174.39 -51.26,-258.05 -18.96,-45.65 -41.18,-89.9 -63.51,-133.97 -27.69,-54.64 -55.67,-109.19 -78.63,-166.03 -47.76,-118.23 -63.77,-227.8 -45.32,-340.82 -246.26,-64 -491.99,-120.95 -596.69,-123.9 59.3,159.19 53.05,303.95 -11.89,464.73 -22.96,56.85 -50.94,111.4 -78.63,166.03 -63.31,124.92 -122.12,247.65 -114.77,392.02 3.71,72.98 23.39,151.87 52.78,228.18 102.25,16.48 226.89,23.42 360.62,1.89z"/>
   <path class="fil6" d="M1083.46 1693.59c-8.93,17.93 -18.02,35.79 -27.07,53.66 -63.31,124.92 -122.12,247.65 -114.77,392.02 3.71,72.98 23.39,151.87 52.78,228.18 16.5,2.66 33.59,5.07 51.21,7.15 -28.07,-80.66 -46.56,-173.83 -35.12,-267.16 31.32,-255.35 115.63,-373.39 115.63,-373.39 0,0 -17.92,-17.62 -42.66,-40.45z"/>
   <path class="fil6" d="M1858.93 2357.39c28.73,-4.02 56.96,-8.91 83.59,-14.87 22.44,-65.07 36.24,-133.15 39.81,-203.26 4.65,-91.28 -16.51,-174.39 -51.26,-258.05 -18.96,-45.65 -41.18,-89.9 -63.51,-133.97 -19.88,-39.23 -39.91,-78.41 -58.12,-118.43 -13.63,23.31 -19.48,51.85 -1.89,82.68 51.09,89.56 83.99,227.19 81.15,388.71 -1.49,84.87 -12.03,174.7 -29.76,257.18z"/>
   <path class="fil7" d="M1581.68 2375.23c42.69,-0.24 104.29,-1.65 170.6,-6.64 29.9,-287.16 -266.32,-466.51 -187.76,-73.24 5.3,26.54 11.06,53.64 17.16,79.88z"/>
   <path class="fil7" d="M1339.75 2383.66c-42.69,-0.24 -104.29,-1.65 -170.6,-6.64 -29.9,-287.16 266.32,-466.51 187.76,-73.24 -5.3,26.54 -11.06,53.64 -17.16,79.88z"/>
   <path class="fil0" d="M1868.49 1749.1l-0.94 -1.85c-22.94,-45.27 -46.08,-90.48 -66.4,-136.98 -78.36,-35.55 -161.81,-70.81 -184.52,-70.81 -45.77,0 -299.92,-33.73 -346.9,-13.25 -18.63,8.12 -70.81,9.06 -122.18,22.1 -3.91,10.91 -8.08,21.87 -12.54,32.92 -22.96,56.85 -50.94,111.4 -78.63,166.03 -2.95,5.82 -5.89,11.64 -8.82,17.45 217.81,131.63 595.76,120.53 820.92,-15.6z"/>
   <path class="fil1" d="M1386.29 2346.81c-4.98,12.9 -1.37,22.95 -7.28,36.13 -46.02,10.37 -167.12,29.11 -440.9,-6.63l-3.41 -33.67c99.44,18.5 339.74,36.58 451.59,4.16z"/>
   <path class="fil2" d="M1122.7 3486.04l157.79 -7.17c15.49,-99.23 31.13,-198.44 46.89,-297.62 9.75,-61.36 19.54,-122.72 29.52,-184.05 6.66,-40.91 13.2,-81.99 20.61,-122.76 12.24,-67.34 -37.88,-194.3 -72.44,-264.73 -30.49,-1.96 -61.36,-3.04 -91.72,-3.11 -15.77,-0.04 -66.42,0.38 -85.48,6.08 -24.02,47.44 -47.56,95.25 -70.57,143.17 -14.36,29.91 -28.59,59.99 -41.96,90.35 -4.9,11.12 -9.74,22.35 -14.13,33.68 -1.8,4.65 -4.67,11.6 -5.54,16.01 -1.6,12 -3.77,22.09 -4.2,34.45 -0.92,26.65 2.93,55.63 7.09,81.86 9.53,60.13 24.15,120.69 39.35,179.59 25.47,98.7 54.57,196.82 84.79,294.23z"/>
   <path class="fil3" d="M1165.31 2607.84c-14.81,0.88 -29.13,2.36 -37.44,4.84 -24.02,47.44 -47.56,95.25 -70.57,143.17 -14.36,29.91 -28.59,59.99 -41.96,90.35 -4.9,11.12 -9.74,22.35 -14.13,33.68 -1.8,4.65 -4.67,11.6 -5.54,16.01 -1.6,12 -3.77,22.09 -4.2,34.45 -0.92,26.65 2.93,55.63 7.09,81.86 9.53,60.13 24.15,120.69 39.35,179.59 19.43,75.28 40.97,150.23 63.5,224.78 5.19,-46.24 6.84,-97.08 4.24,-152.83 0,0 -61.43,-133.7 -73.47,-351.72 0,0 49.38,-142.13 139.72,-295.1 0,0 -2.39,-3.16 -6.59,-9.1z"/>
   <path class="fil3" d="M1162.94 2666.64c0,0 18.67,57.81 66.85,62.63 48.18,4.82 68.66,-67.45 68.66,-67.45 0,0 -46.37,33.12 -135.51,4.82z"/>
   <path class="fil3" d="M1626.07 2658.81c24.26,67.3 115.03,86.97 115.03,-10.24 0,0 -25.9,38.54 -115.03,10.24z"/>
   <g>
    <path class="fil1" d="M2173.77 3231.18l-30.6 394.44 -5.42 94.52 -278.95 -159.7c-21.29,-105.86 -42.57,-210.62 -63.87,-316.48 111.93,-26.72 261.56,-40.31 378.84,-12.79z"/>
    <path class="fil8" d="M1828.3 3266.41l52.76 275.91 231.73 135.72c7.59,-127.4 19.23,-289.77 26.82,-417.17 -16.62,-9.93 -153.04,-24.69 -311.31,5.53z"/>
    <path class="fil9" d="M2087.67 3529.28c-3.24,6.34 -10.01,10.99 -17.91,11.5l-59.42 3.81c-8.68,0.55 -16.31,-4.02 -19.58,-10.91l-25.74 1.17 -45.23 -51.07 32.75 -57.72 36.34 -1.32c3.48,-5.63 9.82,-9.65 17.16,-10.12l59.41 -3.81c8.48,-0.53 15.97,3.81 19.35,10.45l38.97 -1.42c-2.39,36.04 -4.81,72.42 -7.16,108.13l-28.94 1.31z"/>
    <path class="fil10" d="M1843.44 3345.61l37.62 196.72 29.05 17.02c20.9,2.57 37.72,4.46 37.72,4.46l-25.95 -42.68 -35.48 -252.65c-2.74,-2.06 -34.74,-0.25 -39,17.19 -4.26,17.43 -9.95,21.91 -3.96,59.95z"/>
    <path class="fil10" d="M1828.3 3266.41l18.98 91.37 6.98 5.52c3.31,-5.04 5.28,-8.21 5.28,-8.21l-2.28 -65.26c0,0 106.44,-31.11 266.67,-33.67 -43.17,-8.68 -161.54,-15.37 -295.62,10.24z"/>
    <path class="fil9" d="M1841.54 3335.65l5.8 30.33c36.35,-7.62 152.15,-27.78 286.24,-8.75 0.97,-15.06 1.92,-29.91 2.84,-44.46 -54.78,-4.5 -146.43,-2.51 -294.88,22.88z"/>
    <path class="fil9" d="M2040.47 3635.69l72.32 42.36c8.75,-139.4 17.5,-278.79 26.25,-418.19 -25.31,-8.87 -66.37,-12.15 -98.68,-12.23 2.16,62.61 -3.4,276.46 0.1,388.06z"/>
    <path class="fil1" d="M1868.78 3519.21c-6.23,0.05 -177.96,194.23 -182.74,217.8l1.14 22.31c0,0 214.07,1.62 451.92,-13.37l0.05 -91.47c0,0 -270.39,-137.5 -270.37,-135.26z"/>
    <path class="fil8" d="M1880.65 3557.38c0,0 -84.33,80.44 -148.21,166.14 0,0 115.43,8.64 384.44,-6.99l-1.16 -111.93 -235.08 -47.22z"/>
    <path class="fil9" d="M1949.29 3689.66c44.85,1.71 99.78,3.02 167.88,-0.93l0.11 -90.66 -77.6 -20.57 -90.4 112.17z"/>
    <path class="fil10" d="M1880.65 3557.38c0,0 -54.08,53.95 -126.93,138.38 0,0 30.18,-0.22 111.93,-1.4l89.63 -123.05 -74.63 -13.92z"/>
    <path class="fil1" d="M1742.66 3680.14c4.07,-0.04 157.32,16.78 155.96,16.25 -1.36,-0.53 -163.4,2.27 -163.4,2.27l7.44 -18.52z"/>
    <path class="fil1" d="M2146.92 3329.93c0,0 -71.09,-16.03 -197.26,-9.58 0,0 117.58,-24.56 200.14,-16.23l2.34 13.76 -5.23 12.05z"/>
    <path class="fil1" d="M1832.51 3348.71c0,0 57.48,-16.58 105.18,-26.55 0,0 -69.49,-1.02 -110.73,2.78l-2.76 10.15 8.31 13.61z"/>
    <g>
     <polygon class="fil1" points="2176.8,3378.87 1949.73,3387.13 1912.76,3452.29 1963.83,3509.96 2167.75,3500.71 "/>
     <polygon class="fil11" points="2150.01,3478.83 2155.04,3400.52 1961.04,3407 1935.5,3451.13 1969.23,3488.73 "/>
     <path class="fil12" d="M1942.62 3449.28l28.58 35.78 172.49 -13.15 2.78 -39.93c0,0 -116.96,14.5 -203.86,17.3z"/>
     <g>
      <path class="fil1" d="M2101.23 3390.04l3.43 103.48c0.39,11.9 -9.75,22.32 -22.56,23.14l-67.09 4.31c-12.8,0.82 -23.6,-8.24 -23.99,-20.15l-3.43 -103.48c-0.4,-11.9 9.75,-22.32 22.55,-23.14l67.1 -4.31c12.8,-0.82 23.6,8.24 23.99,20.15z"/>
      <path class="fil13" d="M2083.32 3395.09l3.17 95.69c0.13,3.97 -3.25,7.44 -7.52,7.71l-62.05 3.98c-4.27,0.28 -7.86,-2.75 -7.99,-6.71l-3.17 -95.69c-0.13,-3.97 3.25,-7.44 7.52,-7.71l62.05 -3.98c4.26,-0.28 7.86,2.75 7.99,6.71z"/>
      <path class="fil14" d="M2085.18 3451.28l1.31 39.52c0.13,3.97 -3.25,7.43 -7.52,7.72l-62.05 3.97c-4.26,0.27 -7.86,-2.75 -7.99,-6.71l-1.57 -47.18c27.64,2.9 55.47,3.25 77.81,2.69z"/>
      <polygon class="fil1" points="2067.98,3407.92 2070.37,3479.97 2024.27,3482.94 2021.88,3410.88 "/>
      <rect class="fil1" transform="matrix(-0.0282119 -0.851331 -0.850457 0.0546002 2062.71 3473.24)" width="67.7" height="36.75"/>
     </g>
    </g>
    <path class="fil1" d="M2129.65 3666.79c0,0 -185.55,27.26 -182.28,27.77 3.27,0.52 180.34,-1.06 180.34,-1.06l1.94 -26.71z"/>
   </g>
   <g>
    <path class="fil1" d="M988.81 3262.41l49 390.18 4.09 118.02 275.17 -196.15c16.15,-106.11 32.33,-211.13 48.48,-317.23 -112.39,-21.25 -261.59,-27.67 -376.74,5.18z"/>
    <path class="fil8" d="M1333.48 3281.09l-39.36 276.43 -223.67 145.69c-13.55,-126.13 -32.77,-286.79 -46.31,-412.93 16.03,-10.64 150.78,-31.74 309.35,-9.2z"/>
    <path class="fil9" d="M1088.37 3554.32c3.52,6.14 10.45,10.44 18.33,10.57l59.18 0.98c8.64,0.14 16.01,-4.76 18.93,-11.76l25.61 -0.06 42.5 -52.84 -35.24 -55.76 -36.15 0.4c-3.72,-5.43 -10.21,-9.12 -17.52,-9.23l-59.17 -0.98c-8.45,-0.13 -15.68,4.54 -18.72,11.29l-38.76 0.43c4.07,35.67 8.2,71.67 12.21,107.02l28.79 -0.06z"/>
    <path class="fil10" d="M1322.18 3360.43l-28.07 197.09 -28.04 18.27c-20.63,3.54 -37.24,6.21 -37.24,6.21l23.76 -43.6 23.3 -252.52c2.62,-2.17 34.48,-1.89 39.54,15.22 5.05,17.11 10.91,21.28 6.76,59.33z"/>
    <path class="fil10" d="M1333.48 3281.09l-14.53 91.61 -6.67 5.81c-3.52,-4.85 -5.62,-7.9 -5.62,-7.9l-0.82 -64.9c0,0 -107.15,-25.87 -266.35,-20.84 42.45,-10.65 159.66,-22.88 294,-3.78z"/>
    <path class="fil9" d="M1323.6 3350.46l-4.33 30.39c-36.45,-5.85 -152.37,-20.4 -284.61,4.82 -1.68,-14.91 -3.32,-29.6 -4.92,-44.01 54.17,-7.05 145.26,-9.4 293.86,8.8z"/>
    <path class="fil9" d="M1140.26 3657.74l-69.81 45.47c-15.27,-137.99 -30.54,-275.98 -45.8,-413.97 24.71,-10 65.32,-15.19 97.4,-16.81 0.81,62.27 16.43,274.33 18.21,385.3z"/>
    <path class="fil1" d="M1305.22 3533.99c6.19,-0.24 185.86,184.45 191.71,207.62l-0.08 22.2c0,0 -217.78,10.86 -454.64,7.2l0.95 -89.97c0,0 261.97,-149.28 262.05,-147.06z"/>
    <path class="fil8" d="M1295.23 3572.45c0,0 87.52,75.88 154.99,157.96 0,0 -114.2,14.02 -382.03,11.2l-4.13 -111.18 231.17 -57.97z"/>
    <path class="fil9" d="M1233.33 3707.03c-44.45,3.82 -98.92,7.71 -166.73,7l-4.4 -90.01 76.08 -24.08 95.05 107.1z"/>
    <path class="fil10" d="M1295.23 3572.45c0,0 56.24,51.01 132.56,131.4 0,0 -29.97,1.2 -111.2,3.89l-94.8 -117.95 73.44 -17.34z"/>
    <path class="fil1" d="M1438.04 3687.82c-4.04,0.16 -155.41,24.09 -154.08,23.5 1.33,-0.59 162.34,-5.46 162.34,-5.46l-8.26 -18.04z"/>
    <path class="fil1" d="M1020.13 3359.18c0,0 69.82,-19.27 195.4,-18.82 0,0 -117.89,-18.83 -199.48,-6.67l-1.68 13.77 5.76 11.71z"/>
    <path class="fil1" d="M1333.19 3363c0,0 -57.85,-13.75 -105.69,-21.39 0,0 68.95,-4.3 110.07,-2.47l3.22 9.95 -7.6 13.91z"/>
    <g>
     <polygon class="fil1" points="992.77,3409.19 1218.61,3406.67 1258.4,3469.62 1210.41,3529.29 1007.51,3529.73 "/>
     <polygon class="fil11" points="1024.09,3507.17 1015.4,3429.66 1208.32,3426.94 1235.76,3469.55 1204.05,3508.47 "/>
     <path class="fil12" d="M1228.61 3468.04l-26.69 36.87 -171.89 -4.91 -4.65 -39.52c0,0 116.81,8.88 203.23,7.55z"/>
     <g>
      <path class="fil1" d="M1068.33 3416.72l1.48 102.9c0.17,11.84 10.74,21.7 23.49,21.91l66.82 1.11c12.75,0.21 23.04,-9.3 22.87,-21.14l-1.48 -102.9c-0.17,-11.84 -10.74,-21.69 -23.49,-21.91l-66.82 -1.11c-12.75,-0.21 -23.04,9.3 -22.87,21.14z"/>
      <path class="fil13" d="M1086.35 3420.89l1.37 95.16c0.06,3.95 3.58,7.23 7.83,7.3l61.79 1.02c4.25,0.07 7.68,-3.1 7.62,-7.04l-1.37 -95.16c-0.06,-3.95 -3.58,-7.23 -7.83,-7.3l-61.79 -1.02c-4.25,-0.07 -7.68,3.1 -7.62,7.04z"/>
      <path class="fil14" d="M1087.15 3476.76l0.56 39.3c0.06,3.95 3.58,7.22 7.83,7.31l61.79 1.02c4.24,0.07 7.68,-3.1 7.62,-7.04l-0.67 -46.92c-27.31,4.19 -54.92,5.84 -77.13,6.34z"/>
      <polygon class="fil1" points="1102.19,3432.9 1103.22,3504.55 1149.13,3505.32 1148.1,3433.66 "/>
      <rect class="fil1" transform="matrix(-0.0121685 -0.846592 0.846969 0.0140729 1110.51 3497.51)" width="67.7" height="36.75"/>
     </g>
    </g>
    <path class="fil1" d="M1053.18 3692.84c0,0 185.51,18.31 182.29,18.97 -3.23,0.67 -179.1,7.46 -179.1,7.46l-3.19 -26.43z"/>
   </g>
   <path class="fil1" d="M1320.77 2017.93c84.92,58.22 183.6,74.05 279.28,-6.02 0,0 -111.88,-34.69 -279.28,6.02z"/>
   <g>
    <path class="fil1" d="M1056.68 557.65c-418.39,329.31 -671.76,1087.48 -333.87,1576.13 0,0 183.07,-52.24 281.47,-129.99 -12.08,-15.55 -23.62,-35.01 -56.05,-102.29 -55.87,-154.49 -134.77,-533.59 118.19,-872.93 -26.84,-50.8 -27.46,-84.85 -27.46,-84.85 81.91,-308.35 25.45,-391.46 25.45,-391.46l-7.72 5.39z"/>
    <path class="fil2" d="M1070.71 589.67c-193.85,155.19 -336.18,396.21 -407.99,622.08 -92.2,290 -83.54,642.85 90.2,892.21 19.67,-5.14 156.26,-67.06 212.77,-95.43 -41.15,-62.33 -54.24,-107.03 -60.76,-126.95 -29.45,-89.85 -47.18,-184.64 -51.47,-279.1 -10.39,-228.73 58.41,-432.3 187.46,-605.27 -11.24,-31.96 -11.59,-53.49 -11.59,-53.49 54.62,-205.62 50.32,-308.39 41.39,-354.05z"/>
    <path class="fil15" d="M1070.71 589.67c-193.85,155.19 -336.18,396.21 -407.99,622.08 -92.2,290 -83.54,642.85 90.2,892.21 1.9,-0.5 4.89,-1.53 8.79,-3 -160.03,-247.9 -165.74,-589.23 -76.1,-871.15 69.5,-218.58 205.02,-451.34 389.38,-606.78 -0.99,-13.49 -2.54,-24.51 -4.27,-33.36z"/>
    <path class="fil3" d="M953.25 1988.87c-31.48,-52.08 -42.52,-89.54 -48.33,-107.29 -29.45,-89.85 -47.18,-184.64 -51.47,-279.1 -10.39,-228.73 58.41,-432.3 187.46,-605.27 -6.35,-18.04 -9.22,-32.76 -10.52,-42.16 -439.14,481.48 -119.37,1035.18 -124.94,1035.18l47.81 -1.36z"/>
    <path class="fil1" d="M719.18 2127.76c0,0 46.38,201.76 190.92,290.89 0,0 49.68,16.26 93.05,15.06 0,0 27.41,-9.64 49.09,-47.58 0,0 58.42,0 89.73,-58.42 0,0 60.23,-33.73 72.27,-75.28l-53.6 -73.47c0,0 15.66,-50.6 18.67,-96.97 0,0 2.41,-40.35 -1.81,-42.16 -4.22,-1.81 -83.11,-61.44 -216.81,-72.27 0,0 -56.01,16.86 -128.88,65.05 -72.87,48.18 -112.63,95.16 -112.63,95.16z"/>
    <path class="fil2" d="M748.52 2096.41c0,0 40.35,196.93 174.65,293.29 0,0 67.45,14.46 80.1,13.25 0,0 21.08,-20.48 22.88,-40.95 0,0 63.84,-3.01 90.34,-57.82 0,0 51.19,-14.46 67.45,-53.6 0,0 -109.61,-151.77 -104.79,-152.97 4.82,-1.2 63.24,51.8 63.24,51.8 0,0 10.84,-35.54 7.23,-86.73 0,0 -81.3,-67.45 -251.14,-75.28 -50.65,2.41 -132.1,46.06 -149.96,109.01z"/>
    <path class="fil3" d="M927.29 2390.58c14.82,3.1 65.23,13.41 75.98,12.38 0,0 21.08,-20.48 22.88,-40.95 0,0 63.84,-3.01 90.34,-57.82 0,0 51.19,-14.46 67.45,-53.6 0,0 -17.85,-24.67 -34.72,-48.35 -82.42,73.42 -168.85,152.48 -221.94,188.34z"/>
   </g>
   <path class="fil5" d="M1307.36 2015.13c123.71,22.04 189.78,26.69 311.97,-9.03 0,0 -63.84,-69.26 -68.66,-69.86 -4.82,-0.6 -101.18,-23.49 -110.82,-18.67 -9.64,4.82 -132.49,97.56 -132.49,97.56z"/>
   <path class="fil1" d="M1988.87 2308.41c-3.72,13.32 -7.88,26.84 -12.49,40.52 -44.82,14.73 -163.56,44.98 -439.51,35.64l-6.62 -33.19c100.75,8.89 365.66,1.56 458.62,-42.98z"/>
   <path class="fil1" d="M1624.56 2658.23c0,0 59.88,20.63 116.94,-10.84 -28.25,60.52 -89.83,56.12 -116.94,10.84z"/>
   <path class="fil1" d="M1161.42 2664.49c0,0 70.62,24.51 140.66,-5.88 -37.1,62.29 -110.63,54.75 -140.66,5.88z"/>
   <g>
    <path class="fil1" d="M1863.66 579.33c418.39,329.31 671.76,1087.48 333.87,1576.13 0,0 -183.07,-52.24 -281.47,-129.99 12.08,-15.55 23.62,-35.01 56.05,-102.29 55.87,-154.49 134.77,-533.59 -118.19,-872.93 26.84,-50.8 27.46,-84.85 27.46,-84.85 -81.91,-308.35 -25.45,-391.46 -25.45,-391.46l7.72 5.39z"/>
    <path class="fil2" d="M1849.63 611.35c193.85,155.19 336.18,396.21 407.99,622.08 92.2,290 83.54,642.85 -90.2,892.21 -19.67,-5.14 -156.26,-67.06 -212.77,-95.43 41.15,-62.33 54.24,-107.03 60.76,-126.95 29.45,-89.85 47.18,-184.64 51.47,-279.1 10.39,-228.73 -58.41,-432.3 -187.46,-605.27 11.24,-31.96 11.59,-53.49 11.59,-53.49 -54.62,-205.62 -50.32,-308.39 -41.39,-354.05z"/>
    <path class="fil15" d="M1849.63 611.35c193.85,155.19 336.18,396.21 407.99,622.08 92.2,290 83.54,642.85 -90.2,892.21 -1.9,-0.5 -4.89,-1.53 -8.79,-3 160.03,-247.9 165.74,-589.23 76.1,-871.15 -69.5,-218.58 -205.02,-451.34 -389.38,-606.78 0.99,-13.49 2.54,-24.51 4.27,-33.36z"/>
    <path class="fil3" d="M1967.09 2010.55c31.48,-52.08 42.52,-89.54 48.33,-107.29 29.45,-89.85 47.18,-184.64 51.47,-279.1 10.39,-228.73 -58.41,-432.3 -187.46,-605.27 6.35,-18.04 9.22,-32.76 10.52,-42.16 439.14,481.48 119.37,1035.18 124.94,1035.18l-47.81 -1.36z"/>
    <path class="fil1" d="M2201.17 2149.44c0,0 -46.38,201.76 -190.92,290.89 0,0 -49.68,16.26 -93.05,15.06 0,0 -27.41,-9.64 -49.09,-47.58 0,0 -58.42,0 -89.73,-58.42 0,0 -60.23,-33.73 -72.27,-75.28l53.6 -73.47c0,0 -15.66,-50.6 -18.67,-96.97 0,0 -2.41,-40.35 1.81,-42.16 4.22,-1.81 83.11,-61.44 216.81,-72.27 0,0 56.01,16.86 128.88,65.05 72.87,48.18 112.63,95.16 112.63,95.16z"/>
    <path class="fil2" d="M2171.82 2118.09c0,0 -40.35,196.93 -174.65,293.29 0,0 -67.45,14.46 -80.1,13.25 0,0 -21.08,-20.48 -22.88,-40.95 0,0 -63.84,-3.01 -90.34,-57.82 0,0 -51.19,-14.46 -67.45,-53.6 0,0 109.61,-151.77 104.79,-152.97 -4.82,-1.2 -63.24,51.8 -63.24,51.8 0,0 -10.84,-35.54 -7.23,-86.73 0,0 81.3,-67.45 251.14,-75.28 50.65,2.41 132.1,46.06 149.96,109.01z"/>
    <path class="fil3" d="M1993.05 2412.26c-14.82,3.1 -65.23,13.41 -75.98,12.38 0,0 -21.08,-20.48 -22.88,-40.95 0,0 -63.84,-3.01 -90.34,-57.82 0,0 -51.19,-14.46 -67.45,-53.6 0,0 17.85,-24.67 34.72,-48.35 82.42,73.42 168.85,152.48 221.94,188.34z"/>
   </g>
   <path class="fil1" d="M2365.36 1555.52c0,0 -85.28,-33.35 -146.46,-84.88 -8.66,-23.17 -23.04,-86.05 -32.41,-107.24 0,0 -5.8,46.84 -15.77,101.13 -28.78,32.13 -79.07,88.71 -152.25,84.96 0,0 -9.64,-436.03 -310.76,-655.25 -301.13,-219.22 -389.05,-387.85 -324.01,-411.94 38.32,-14.19 48.35,-103.83 190.88,-76 173.31,33.84 336.87,156.49 452.13,289.42 188.07,216.92 344.9,473.74 338.66,859.79z"/>
   <path class="fil1" d="M552.13 1555.52c0,0 85.28,-33.35 146.46,-84.88 8.66,-23.17 23.04,-86.05 32.41,-107.24 0,0 5.8,46.84 15.77,101.13 28.78,32.13 79.07,88.71 152.25,84.96 0,0 9.64,-436.03 310.76,-655.25 301.13,-219.22 389.05,-387.85 324.01,-411.94 -38.32,-14.19 -48.35,-103.83 -190.88,-76 -173.31,33.84 -336.87,156.49 -452.13,289.42 -188.07,216.92 -344.9,473.74 -338.66,859.79z"/>
   <path class="fil16" d="M587.44 1501.03c28.93,-14.83 57.87,-32.72 81.3,-51.29 27.03,-82.96 34.54,-104.62 74.36,-169.17 10.64,69.79 17.63,111.31 31.3,166.66 24.24,26.51 57.33,54.5 91.79,63.87 6.58,-73.38 20.9,-147.44 41.68,-218.04 49.22,-167.22 138.29,-323.06 281.28,-427.17 82.14,-59.8 174.33,-153.46 157.6,-264.85 -4.69,-31.25 -17.85,-61.16 -37.06,-86.19 -41.4,-53.17 132.04,-67.2 111.38,-71.52 -184.88,1.97 -401.37,161.56 -504.6,278.17 -66.04,74.61 -126.76,153.61 -177.57,240.59 -98.47,168.58 -146.62,346.62 -151.44,538.94z"/>
   <path class="fil17" d="M810.41 1480.99c17.25,13.56 36.29,24.81 55.76,30.11 6.58,-73.38 20.9,-147.44 41.68,-218.04 32.17,-109.29 81.36,-213.71 151.5,-302.01 -0.15,-23.85 0.92,-47.95 3.71,-71.45 0,0 -242.13,165.2 -252.65,561.4z"/>
   <path class="fil16" d="M2330.05 1501.03c-28.93,-14.83 -57.87,-32.72 -81.3,-51.29 -27.03,-82.96 -34.54,-104.62 -74.36,-169.17 -10.64,69.79 -17.63,111.31 -31.3,166.66 -24.24,26.51 -57.33,54.5 -91.79,63.87 -6.58,-73.38 -20.9,-147.44 -41.68,-218.04 -49.22,-167.22 -138.29,-323.06 -281.28,-427.17 -82.14,-59.8 -174.33,-153.46 -157.6,-264.85 4.69,-31.25 17.85,-61.16 37.06,-86.19 41.4,-53.17 -132.04,-67.2 -111.38,-71.52 184.88,1.97 401.37,161.56 504.6,278.17 66.04,74.61 126.76,153.61 177.57,240.59 98.47,168.58 146.62,346.62 151.44,538.94z"/>
   <path class="fil17" d="M2107.07 1480.99c-17.25,13.56 -36.29,24.81 -55.76,30.11 -6.58,-73.38 -20.9,-147.44 -41.68,-218.04 -32.17,-109.29 -81.36,-213.71 -151.5,-302.01 0.15,-23.85 -0.92,-47.95 -3.71,-71.45 0,0 242.13,165.2 252.65,561.4z"/>
   <path class="fil1" d="M1095.57 545.03c0,0 131.78,150.49 -18.53,345.57 -64.68,83.95 -49.05,126.25 25.76,207.3 110.37,261.63 20.65,441.64 -70.5,621.37 60.3,30.39 418.73,192.65 859.88,1.03 -91.32,-180.08 -181.6,-360.28 -71.02,-622.4 25.04,-27.12 41.55,-53.96 52.43,-77.44 31.1,-67.12 2.93,-92.42 -31.77,-149.11 -120.75,-197.24 -29.08,-307.04 -29.08,-307.04 -258.56,-213.97 -405.52,-229.6 -717.16,-19.27z"/>
   <path class="fil16" d="M1849.59 1711.75c-21.6,-42.87 -42.67,-86 -60.66,-130.54 -69.25,-171.43 -71.76,-324.66 0.76,-496.59l2.32 -5.5 4.05 -4.39c24.26,-26.28 42.92,-52.36 54.44,-86.35 17.48,-51.58 -20.88,-166.12 -29.98,-226.94 -5.74,-38.38 -9.96,-78.44 -9.16,-117.3 0.31,-15.34 1.7,-37.31 6.47,-56.85 -99.39,-79.26 -217,-148.9 -345.82,-157.96 -140.24,-9.87 -264.49,54.33 -370.72,139.7 5.88,22.11 8.14,47.8 8.84,65.46 3.21,80.35 -12.41,171.68 -31.87,254.53 -19.33,82.28 -16.72,118.32 51.43,178.33l2.24 11.77 2.32 5.5c72.53,171.93 70.01,325.15 0.76,496.59 -19.9,49.28 -43.58,96.83 -67.56,144.2 131.27,48.32 446.45,132.18 782.13,-13.66z"/>
   <path class="fil18" d="M1849.59 1711.75c-4.77,-9.47 -9.52,-18.96 -14.21,-28.47 -405.64,131.39 -735.72,32.42 -759.28,25.02 -2.87,5.71 -5.75,11.41 -8.64,17.11 131.27,48.32 446.45,132.18 782.13,-13.66z"/>
   <path class="fil19" d="M1078.36 888.96c-15.26,169.85 189.24,184.15 310.16,158.39 101.78,-21.68 119.25,-21.08 228.86,6.63 155.09,39.2 216.05,-44.91 229.1,-170.53 7.94,40.89 12.42,80.18 4.03,104.95 -10.3,30.4 -26.32,54.47 -46.95,78.02 -35.25,21.94 -86.05,38.57 -155.46,34.54 -145.14,-8.43 -193.93,-17.47 -193.93,-17.47 0,0 -207.78,19.28 -211.39,21.08 -1.71,0.85 -60.32,-3.14 -111.4,-28.36l-1.68 -8.84c-68.08,-59.94 -70.76,-95.97 -51.5,-178.06l0.16 -0.34z"/>
   <path class="fil19" d="M1847.29 584.6c73.9,62.65 406.68,372.15 446.47,896.16 11.82,7.18 24.05,14 36.28,20.27 -4.83,-192.32 -52.97,-370.36 -151.44,-538.94 -50.81,-86.98 -111.53,-165.98 -177.57,-240.59 -38.19,-43.14 -91.89,-92.16 -153.74,-136.9z"/>
   <path class="fil17" d="M1056.19 594.9c90.54,59.86 250.26,148.27 406.85,150.65 118.32,1.8 289.95,-56.9 435,-121.88 -81.54,-66.78 -184.35,-130.7 -286.53,-161.4 -44.68,-17.67 -91.3,-29.54 -139.49,-32.93 -118.94,-8.37 -226.39,36.55 -321.09,102.47 -33.11,19.38 -64.97,40.81 -94.73,63.09z"/>
   <path class="fil1" d="M1837.39 567.3c-94.44,-71.74 -246.19,-129.57 -365.38,-137.96 -134.46,-9.46 -299.4,46.16 -402.68,126.26 68.41,48.01 281.63,218.49 395.98,470.62 0,0 129.35,-315 372.08,-458.92z"/>
   <path class="fil17" d="M1795.23 569.7c-94.44,-71.74 -204.03,-131.98 -323.22,-140.36 -134.46,-9.46 -257.24,46.16 -360.52,126.26 68.41,48.01 238.86,187.77 353.22,439.9 0,0 110.68,-289.7 330.52,-425.79z"/>
   <path class="fil1" d="M1065.88 1709.46c0,0 402.3,175.86 788.95,-19.27l16.86 25.3c0,0 -341.48,204.76 -818.46,24.09l1.81 -25.29 10.84 -4.82z"/>
   <path class="fil1" d="M1848.54 1017.91c0,0 -46.37,83.11 -191.51,81.91 0,0 66.25,20.48 144.54,6.02l27.7 -30.11 19.27 -57.82z"/>
   <path class="fil1" d="M1083.68 1017.91c0,0 46.37,83.11 191.51,81.91 0,0 -66.25,20.48 -144.54,6.02l-27.7 -30.11 -19.27 -57.82z"/>
   <path class="fil1" d="M1166.05 515.93c86.03,75.11 239.18,233.67 295.95,457.48 1.41,5.56 1.93,9.94 2.39,9.88 0.53,-0.07 0.97,-5.36 2.18,-10.12 53.09,-209.41 186.22,-360.83 274.68,-441.88 -81.37,-53.86 -172.12,-95.12 -269.24,-101.95 -111.41,-7.84 -215.74,27.46 -305.96,86.59z"/>
   <path class="fil2" d="M1183.63 502.37c224.47,173.92 279.27,440.36 281,432.43 41.22,-189.06 173.72,-341.62 258.45,-414.08 -152.8,-126.85 -383.9,-120.3 -539.44,-18.35z"/>
   <path class="fil3" d="M1183.63 502.37c91.83,71.15 155.26,157.79 198.28,234.79 26.89,4.96 54.06,7.97 81.13,8.38 24.42,0.37 51.13,-1.87 79.39,-6.17 56.29,-97.01 127.77,-173.43 180.65,-218.66 -152.8,-126.85 -383.9,-120.3 -539.44,-18.35z"/>
   <path class="fil1" d="M1305.91 940.37c0,0 113.57,-70.67 331.86,-119.42 0,0 -119.52,74.17 -331.86,119.42z"/>
   <path class="fil1" d="M1605.81 933.74c0,0 -103.4,-64.65 -328.95,-112.79 0,0 107.9,71.16 328.95,112.79z"/>
   <path class="fil17" d="M1280.38 1142.58c0,0 179.47,-51.8 401.1,2.41 -109.21,-77.52 -297.25,-95.6 -401.1,-2.41z"/>
   <path class="fil19" d="M1070.19 584.6c-73.9,62.65 -406.68,372.15 -446.47,896.16 -11.82,7.18 -24.05,14 -36.28,20.27 4.83,-192.32 52.97,-370.36 151.44,-538.94 50.81,-86.98 111.53,-165.98 177.57,-240.59 38.19,-43.14 91.89,-92.16 153.74,-136.9z"/>
   <path class="fil1" d="M1841.33 1012.49c0,0 -53.9,88.53 -199.04,87.33 0,0 66.25,20.48 144.54,6.02l60.22 -46.37 -5.72 -46.97z"/>
   <g>
    <path class="fil1" d="M1997.34 1944.98c-17.87,4.79 -46.87,10.54 -48.42,-7.88 -7.04,-83.58 120.35,-80.75 162.63,-71.39 66.83,14.8 117.52,52.07 149.48,107.92 15.15,26.48 50.59,127.18 -7.8,147.65 -17.45,6.12 -23.53,-20.11 -28.56,-37.9 -19.53,-69.15 -59.9,-123.48 -132.48,-139.6 -28.66,-6.37 -66.15,-6.49 -94.85,1.2z"/>
    <path class="fil5" d="M1993.03 1928.87c-9.05,2.43 -17.54,8.86 -19.97,-0.19 2.5,-23.22 23.26,-33.35 45.04,-37.8 104.09,-21.27 213.21,41.45 242.17,144.74 5.82,20.74 9.38,48.19 -5.2,57.11 -9.03,2.53 -11.81,-4.85 -14.34,-13.88 -72.63,-183.49 -255.3,-139.31 -247.7,-149.98z"/>
    <ellipse class="fil20" transform="matrix(0.422608 -0.0283617 0.0283617 0.422608 2045.27 1903.12)" rx="93.95" ry="34.33"/>
    <path class="fil21" d="M1993.03 1928.87c-9.05,2.43 -17.54,8.86 -19.97,-0.19 2.5,-23.22 23.26,-33.35 45.04,-37.8 5.69,-1.16 11.4,-2.06 17.11,-2.73 -60.36,20.9 -7.2,32.9 25.85,37.01 -39.43,-3.14 -68.73,4.46 -68.03,3.71z"/>
    <path class="fil6" d="M2191.66 1946.15c29.66,23.27 52.48,55.33 63.19,93.53 5.27,18.78 8.49,43.64 -4.71,51.72 -8.18,2.29 -10.7,-4.39 -12.99,-12.57 -14.04,-44.83 -35.09,-75.64 -58.75,-96.68 19.45,-10.06 18.57,-24.49 13.26,-36z"/>
    <path class="fil1" d="M1959.07 2002.61c-17.87,4.78 -33.01,-5.05 -32.86,-23.53 0.2,-22.93 15.61,-39.16 34.23,-48.77 58.92,-30.42 112.36,-2.34 163.17,20.78 83.99,38.23 131.11,105.53 131.07,156.33 -0.02,20.59 -5.02,42.74 -22.31,47.63 -17.79,5.04 -37.94,-3.78 -42.95,-21.56 -19.52,-69.15 -56.29,-121.08 -128.86,-137.19 -28.65,-6.36 -72.77,-1.37 -101.48,6.32z"/>
    <path class="fil5" d="M1945.93 1972.15c4.34,-40.27 102.84,-63.8 191.66,-17.53 51.73,26.94 85.75,78.92 97.75,135.5 3.93,18.52 4.74,38.66 -7.4,46.09 -9.03,2.53 -11.81,-4.85 -14.34,-13.88 -49.06,-173.87 -194.7,-160.21 -236.42,-152.46 -5.73,1.06 -15.5,3.18 -23.38,5.37 -4.69,1.3 -8.24,0.05 -7.86,-3.08z"/>
    <ellipse class="fil20" transform="matrix(0.422608 -0.0283617 0.0283617 0.422608 2028.49 1946.33)" rx="93.95" ry="34.33"/>
    <path class="fil21" d="M1945.93 1972.15c2.98,-27.64 50.33,-47.4 108.46,-42.1 -84.07,7.59 -81.81,28.91 -49.29,36.39 -11.5,0.74 -21.11,2.16 -27.92,3.42 -5.73,1.06 -15.5,3.18 -23.38,5.37 -4.69,1.3 -8.24,0.05 -7.86,-3.08z"/>
    <path class="fil6" d="M2184.32 1999.45c23.14,22.3 40.17,58.21 46.91,90.01 3.1,14.62 4.85,33.42 -4.74,39.29 -7.13,2 -9.33,-3.83 -11.33,-10.96 -9.16,-32.44 -24.82,-67.6 -40.41,-85.51 19.34,-6.37 14.29,-22.32 9.57,-32.83z"/>
   </g>
   <g>
    <path class="fil1" d="M1017.37 1679.85c0,0 421.52,109.99 879.58,-23.38 21.52,41.94 19.29,90.77 18.27,126.5 0,0 -497.05,172.55 -907.61,6.18 -3.99,-36.44 -1.7,-72.87 9.75,-109.3z"/>
    <path class="fil22" d="M1033.21 1704.6c0,0 403.25,105.18 851.57,-21.31 10.97,31.18 12.97,55.46 8.53,83.19 0,0 -465.99,161.57 -866.8,8.95 -3.29,-22.34 0.5,-51 6.7,-70.82z"/>
    <path class="fil23" d="M1727.35 1709.02c16.86,-1.68 33.93,-3.64 51.16,-5.88 8.12,17.69 15.5,45.66 15.22,88.75 -17.86,2.9 -36.6,5.65 -56.08,8.16 -6.05,-42.21 -12.27,-85.56 -10.91,-89.66 0.13,-0.4 0.34,-0.86 0.61,-1.37z"/>
    <path class="fil23" d="M1203.92 1736.01c17.41,2.26 36.18,4.44 56.2,6.41 -1.86,22.52 -4.04,55.46 -4.54,90.84 -18.27,-2.78 -36.59,-6.03 -54.9,-9.79 1.25,-32.11 1.95,-63.99 3.24,-87.46z"/>
    <path class="fil23" d="M1033.21 1704.6c0,0 26.84,6.99 74.29,15.19 -7.69,17.65 -22.13,44.11 -46.67,67.86 -11.48,-3.84 -22.93,-7.89 -34.32,-12.23 -3.29,-22.34 0.5,-51 6.7,-70.82z"/>
    <path class="fil23" d="M1730.59 1718.6c50.51,-8.98 101.88,-20.55 154.18,-35.31 10.97,31.18 12.97,55.46 8.53,83.19 0,0 -53.53,18.54 -139.83,37.12 -12.22,-23.02 -21.45,-54.16 -22.88,-85z"/>
    <g>
     <path class="fil5" d="M1239.48 1702.77c0,0 -20.47,95.77 -13.37,191.54 0,0 -64.95,6.2 -82.42,-17.91 0,0 -5.46,-113.69 11.46,-188.78 0,0 51.58,-6.89 84.32,15.16z"/>
     <path class="fil1" d="M1159.37 1673.61c0,0 -12.36,98.02 -14.58,212.24 -24.39,-69.7 -21.55,-145.22 14.58,-212.24z"/>
     <path class="fil1" d="M1244.85 1684.36c0,0 -14.19,97.62 -18.55,211.74 -23.08,-70.41 -18.82,-145.82 18.55,-211.74z"/>
    </g>
    <g>
     <path class="fil5" d="M1668.82 1682.88c0,0 19.69,95.98 11.82,191.67 0,0 64.9,6.87 82.56,-17.07 0,0 6.37,-113.62 -9.94,-188.89 0,0 -51.52,-7.42 -84.44,14.29z"/>
     <path class="fil1" d="M1749.16 1654.54c0,0 11.56,98.14 12.87,212.37 24.96,-69.45 22.72,-144.99 -12.87,-212.37z"/>
     <path class="fil1" d="M1663.6 1664.41c0,0 13.4,97.76 16.84,211.92 23.65,-70.16 19.99,-145.62 -16.84,-211.92z"/>
    </g>
    <g>
     <path class="fil1" d="M1376.65 1696.79c56.71,-3.01 112.49,-2.82 167.5,0 14,0 25.46,12.93 25.46,28.73 0,44.69 0,89.39 0,134.08 0,15.8 -11.46,28.73 -25.46,28.73 -55.41,4.32 -111.23,4.45 -167.5,0 -14,0 -25.46,-12.93 -25.46,-28.73 0,-44.69 0,-89.39 0,-134.08 0,-15.8 11.46,-28.73 25.46,-28.73z"/>
     <path class="fil24" d="M1389.94 1719.21c46.4,-2.46 93.98,-4.3 138.98,-1.98 11.46,0 20.83,7.65 20.83,20.58 0,36.57 0,73.14 0,109.7 0,12.93 -8.08,21.31 -19.54,21.31 -45.34,3.53 -95.53,4.37 -141.57,0.73 -11.46,0 -17.6,-9.12 -17.6,-22.05 0,-36.57 0,-69.69 0,-106.26 0,-12.93 7.43,-22.05 18.89,-22.05z"/>
     <path class="fil25" d="M1389.94 1719.21c46.4,-2.47 93.98,-4.3 138.98,-1.98 11.46,0 20.83,7.65 20.83,20.58l0 17.87c-45.2,33.44 -175.15,34.57 -175.15,34.57 0.05,0.1 -1.28,-0.82 -3.55,-2.57l0 -46.43c0,-12.93 7.43,-22.04 18.89,-22.04z"/>
     <path class="fil26" d="M1389.94 1719.21c46.4,-2.47 93.98,-4.3 138.98,-1.98 2.21,0 3.71,0.07 4.55,0.2 12.72,1.98 -118.87,10.22 -129.22,14.18 -11.46,0 -22.09,12.22 -22.09,25.15 0,10.79 -7.15,105.87 -9.89,100.38 -0.39,-0.78 -1.22,-4.28 -1.22,-9.62 0,-36.57 0,-69.69 0,-106.26 0,-12.93 7.43,-22.04 18.89,-22.04z"/>
     <path class="fil27" d="M1387.48 1863.96c0,0 98.44,2.6 138.16,0 0,0 12.95,-4.88 14.1,-12.69 1.15,-7.81 -32.52,-24.08 -77.43,-24.41 -44.9,-0.33 -91.25,21.48 -74.84,37.11z"/>
    </g>
    <path class="fil28" d="M1669.84 1663.99c0,0 20.79,28.81 33.11,88.19l46.33 -2.28c0,0 -3.07,-73.07 -9.61,-92.43 0,0 -34.09,-3.8 -69.82,6.52z"/>
    <path class="fil28" d="M1164.89 1686.95c0,0 -6.7,39.27 -8.53,97.83l46.92 7.58c0,0 5.49,-61.32 31.69,-101.28 0,0 -34.12,-13.78 -70.07,-4.13z"/>
   </g>
  </g>
 </g>
</svg>
