<?xml version="1.0" encoding="UTF-8"?>
<!DOCTYPE svg PUBLIC "-//W3C//DTD SVG 1.1//EN" "http://www.w3.org/Graphics/SVG/1.1/DTD/svg11.dtd">
<!-- Creator: CorelDRAW 2020 (64-Bit) -->
<svg xmlns="http://www.w3.org/2000/svg" xml:space="preserve" width="129.436mm" height="197.988mm" version="1.1" style="shape-rendering:geometricPrecision; text-rendering:geometricPrecision; image-rendering:optimizeQuality; fill-rule:evenodd; clip-rule:evenodd"
viewBox="0 0 1729.6 2645.64"
 xmlns:xlink="http://www.w3.org/1999/xlink"
 xmlns:xodm="http://www.corel.com/coreldraw/odm/2003">
 <defs>
  <style type="text/css">
   <![CDATA[
    .fil0 {fill:none}
    .fil1 {fill:#501D33}
    .fil30 {fill:#621A40}
    .fil6 {fill:#625B6D}
    .fil15 {fill:#703D43}
    .fil14 {fill:#845451}
    .fil5 {fill:#878490}
    .fil23 {fill:#8C4C4F}
    .fil31 {fill:#8D8790}
    .fil7 {fill:#93909B}
    .fil24 {fill:#955B58}
    .fil18 {fill:#965F54}
    .fil20 {fill:#9893A0}
    .fil27 {fill:#9A98A1}
    .fil11 {fill:#A9364B}
    .fil22 {fill:#AE7966}
    .fil16 {fill:#AF8777}
    .fil25 {fill:#BB927D}
    .fil17 {fill:#BE986E}
    .fil26 {fill:#C3C3B8}
    .fil19 {fill:#C7C0C9}
    .fil29 {fill:#CEAE85}
    .fil10 {fill:#D2714F}
    .fil3 {fill:#D77D75}
    .fil12 {fill:#DB6056}
    .fil9 {fill:#DD765F}
    .fil21 {fill:#FBEDAD}
    .fil8 {fill:#FFC57B}
    .fil2 {fill:#FFCFA5}
    .fil4 {fill:#FFE0B3}
    .fil28 {fill:white}
    .fil13 {fill:#501D33;fill-rule:nonzero}
   ]]>
  </style>
 </defs>
 <g id="Слой_x0020_1">
  <metadata id="CorelCorpID_0Corel-Layer"/>
  <rect id="_166536576" class="fil0" width="1729.6" height="2645.64"/>
  <g id="_994137648">
   <ellipse class="fil1" cx="921.24" cy="2199.86" rx="637.19" ry="36.37"/>
   <path class="fil1" d="M651.62 1521.33c0,0 -78.49,154.86 -81.32,176.07 -2.83,21.21 -19.09,53.03 79.9,369.82l124.45 -5.66c0,0 48.08,-308.3 59.4,-370.52 11.31,-62.22 -49.5,-178.19 -49.5,-178.19 0,0 -127.28,-9.9 -132.94,8.49z"/>
   <path class="fil1" d="M928.09 1514.96c0,0 -8.84,47.73 6.72,77.43 15.56,29.7 156.62,373 184.91,462.09l113.14 0c0,0 52.32,-261.63 8.48,-370.52 -43.84,-108.89 -158.04,-181.73 -158.04,-181.73 0,0 -135.41,-41.01 -155.21,12.73z"/>
   <path class="fil1" d="M1173.23 1355.15c-2.18,7.82 -4.62,15.75 -7.33,23.79 -26.31,8.65 -96.02,26.41 -258.02,20.92l-3.88 -19.48c59.15,5.22 214.66,0.91 269.23,-25.23z"/>
   <path class="fil1" d="M628.31 327.74c0,0 29.7,45.25 -18.38,226.27 0,0 0.71,44.55 43.13,90.51 111.79,265 -126.09,387.36 -114.64,612.36 3.81,74.94 28.63,174.97 107.56,275.77l141.41 1.41 75.81 -327.8 64.49 335.57 158.38 -7.78c78.93,-100.8 99.51,-202.25 103.32,-277.18 11.45,-225 -226.43,-347.36 -114.64,-612.36 42.43,-45.96 43.13,-90.51 43.13,-90.51 -48.08,-181.02 -21.21,-215.67 -21.21,-215.67 -151.79,-125.61 -297.46,-154.59 -468.38,-10.61z"/>
   <path class="fil2" d="M669.72 1535.68l102.56 2.54 -1.01 -24.37 76.22 -313.79 15.96 -47.3 16.93 51.92 65.37 311.69 126.03 -3.5c56.53,-74.78 92.83,-162.78 97.62,-257.01 2.73,-53.58 -9.69,-102.37 -30.09,-151.49 -11.13,-26.8 -24.17,-52.77 -37.28,-78.65 -16.26,-32.07 -32.68,-64.1 -46.16,-97.47 -40.65,-100.64 -42.13,-190.59 0.45,-291.52l1.36 -3.23 2.38 -2.57c14.24,-15.43 25.9,-33.57 32.67,-53.52 2.04,-6.02 4.37,-14.46 5,-21.35 -9.45,-35.83 -17.83,-72.4 -23.31,-109.05 -3.37,-22.53 -5.85,-46.05 -5.38,-68.86 0.18,-9.01 1,-21.9 3.8,-33.37 -58.35,-46.53 -127.39,-87.41 -203.01,-92.73 -82.33,-5.79 -155.27,31.9 -217.63,82.01 3.45,12.98 4.78,28.06 5.19,38.43 2.34,58.56 -12.35,127.04 -27.26,183.62 0.58,6.23 2.79,14.51 4.54,19.88 6.67,20.5 18.57,39.16 33.14,54.95l2.38 2.57 1.36 3.23c42.58,100.93 41.1,190.88 0.45,291.52 -13.48,33.37 -29.9,65.4 -46.16,97.47 -37.17,73.34 -71.69,145.38 -67.38,230.13 4.79,94.16 54.83,205.08 111.28,279.82z"/>
   <path class="fil3" d="M669.72 1535.68l23.9 0.59c-0.14,-0.19 -113.13,-149.29 -94.75,-299.1 18.39,-149.91 67.88,-219.2 67.88,-219.2 0,0 -10.52,-10.34 -25.04,-23.74 -5.24,10.53 -10.58,21.01 -15.89,31.5 -37.17,73.34 -71.69,145.38 -67.38,230.13 4.79,94.16 54.83,205.08 111.28,279.82z"/>
   <path class="fil3" d="M1051.66 1513.43l20.11 -0.56c56.53,-74.78 92.83,-162.78 97.62,-257.01 2.73,-53.58 -9.69,-102.37 -30.09,-151.49 -11.13,-26.8 -24.17,-52.77 -37.28,-78.65 -11.67,-23.03 -23.43,-46.03 -34.12,-69.53 -8,13.68 -11.44,30.44 -1.11,48.54 29.99,52.58 49.31,133.37 47.64,228.19 -1.79,101.95 -25.82,216.08 -62.76,280.5z"/>
   <path class="fil2" d="M945.13 1512.54c-0.63,20.16 -3.84,46.67 4.96,63.48 15.33,29.26 31.36,77.15 45.22,109.91 20.84,49.25 41.27,98.69 61.38,148.24 16.74,41.23 33.28,82.57 49.3,124.09 9.66,25.03 19.59,50.6 28.24,76.18l82.03 0c2.88,-15.9 5.39,-31.97 7.73,-47.85 6.82,-46.16 11.98,-93.01 14.01,-139.63 2,-45.94 2.06,-112.49 -15.26,-155.51 -18.98,-47.15 -53.77,-88.74 -91.46,-122.25 -17.24,-15.33 -44.46,-41.08 -59.98,-56.16 -21.95,-4.44 -13.19,-87.13 -35.06,-86.56 -13.87,0.36 -82.76,71.28 -91.11,86.06z"/>
   <path class="fil3" d="M1183.04 2034.44l33.23 0c2.88,-15.9 5.39,-31.97 7.73,-47.85 6.82,-46.16 11.98,-93.01 14.01,-139.63 2,-45.94 2.06,-112.49 -15.26,-155.51 -18.98,-47.15 -53.77,-88.74 -91.46,-122.25 -17.24,-15.33 -44.46,-41.08 -59.98,-56.16 -5.38,-1.09 -8.91,-6.89 -11.51,-15 -6.78,13.89 -14.07,26.09 -21.81,36.13 0,0 198.7,135.06 153.44,424.97 -4.48,28.73 -7.17,53.65 -8.39,75.31z"/>
   <path class="fil4" d="M924.11 1347.49c14.56,72.9 34.95,152.93 54.49,154.85 16.3,1.6 40.9,-37.9 51.33,-84.76 40.89,-183.67 -154.37,-313.11 -105.83,-70.09z"/>
   <path class="fil4" d="M802.23 1352.44c-14.56,72.9 -34.95,152.93 -54.49,154.85 -16.3,1.6 -40.9,-37.9 -51.33,-84.76 -40.89,-183.67 154.37,-313.11 105.83,-70.09z"/>
   <path class="fil3" d="M792.67 1425.75l43.08 -177.34c-21.86,-25.27 -40.18,-42.95 -40.18,-42.95 0,0 -162.94,53.7 -225.39,124.38 7.94,31.24 19.39,62.8 33.13,93.05 43.03,3.18 112.98,6.53 189.36,2.87z"/>
   <path class="fil3" d="M910.08 1346.37l15.04 71.7c27.32,1.48 109.83,4.76 204.97,-2.88 22.58,-49.96 36.46,-103.56 39.29,-159.34 0.64,-12.52 0.45,-24.78 -0.48,-36.84 -15.74,-15.67 -27.11,-25.67 -27.11,-25.67 0,0 -187.64,71.66 -231.71,153.03z"/>
   <path class="fil5" d="M801.12 1390.92l46.36 -190.86 15.96 -47.3 16.93 51.92 39.78 189.7c43.47,0.18 146.7,-1.49 225.86,-19.21 13.17,-38.2 21.28,-78.17 23.37,-119.32 2.73,-53.58 -9.69,-102.37 -30.09,-151.49 -11.13,-26.8 -24.17,-52.77 -37.28,-78.65 -16.26,-32.07 -32.68,-64.1 -46.16,-97.47 -28.04,-69.41 -37.44,-133.73 -26.6,-200.08 -144.57,-37.57 -288.83,-71 -350.29,-72.74 34.81,93.46 31.14,178.44 -6.98,272.82 -13.48,33.37 -29.9,65.4 -46.16,97.47 -37.17,73.34 -71.69,145.38 -67.38,230.13 2.18,42.84 13.73,89.16 30.99,133.95 60.02,9.67 133.2,13.75 211.7,1.11z"/>
   <path class="fil6" d="M641.71 994.23c-5.24,10.53 -10.58,21.01 -15.89,31.5 -37.17,73.34 -71.69,145.38 -67.38,230.13 2.18,42.84 13.73,89.16 30.99,133.95 9.69,1.56 19.72,2.98 30.06,4.2 -16.48,-47.35 -27.34,-102.04 -20.62,-156.84 18.39,-149.91 67.88,-219.2 67.88,-219.2 0,0 -10.52,-10.34 -25.04,-23.74z"/>
   <path class="fil6" d="M1096.95 1383.91c16.86,-2.36 33.44,-5.23 49.07,-8.73 13.17,-38.2 21.28,-78.17 23.37,-119.32 2.73,-53.58 -9.69,-102.37 -30.09,-151.49 -11.13,-26.8 -24.17,-52.77 -37.28,-78.65 -11.67,-23.03 -23.43,-46.03 -34.12,-69.53 -8,13.68 -11.44,30.44 -1.11,48.54 29.99,52.58 49.31,133.37 47.64,228.19 -0.88,49.82 -7.06,102.56 -17.47,150.98z"/>
   <path class="fil7" d="M934.18 1394.38c25.06,-0.14 61.22,-0.97 100.15,-3.9 17.55,-168.58 -156.34,-273.87 -110.22,-43 3.11,15.58 6.49,31.49 10.07,46.89z"/>
   <path class="fil7" d="M792.16 1399.33c-25.06,-0.14 -61.22,-0.97 -100.15,-3.9 -17.55,-168.58 156.34,-273.87 110.22,-43 -3.11,15.58 -6.49,31.49 -10.07,46.89z"/>
   <path class="fil6" d="M1102.56 1026.81l-0.55 -1.09c-13.47,-26.57 -27.05,-53.12 -38.98,-80.42 -46,-20.87 -94.99,-41.57 -108.32,-41.57 -26.87,0 -176.07,-19.8 -203.65,-7.78 -10.94,4.77 -41.57,5.32 -71.72,12.97 -2.29,6.4 -4.74,12.84 -7.36,19.32 -13.48,33.37 -29.9,65.4 -46.16,97.47 -1.73,3.42 -3.46,6.83 -5.18,10.25 127.87,77.27 349.74,70.76 481.92,-9.16z"/>
   <path class="fil1" d="M819.48 1377.7c-2.92,7.57 -0.81,13.47 -4.27,21.21 -27.02,6.09 -98.11,17.09 -258.83,-3.89l-2 -19.76c58.37,10.86 199.44,21.47 265.11,2.44z"/>
   <path class="fil1" d="M1174.45 1384.77c-2.92,7.57 -0.81,13.47 -4.27,21.21 -27.02,6.09 -98.11,17.09 -258.83,-3.89l-2 -19.76c58.37,10.86 199.44,21.47 265.11,2.44z"/>
   <path class="fil8" d="M1091.46 1004.89c-12.68,-25.16 -25.05,-50.49 -35.61,-76.63 -40.65,-100.64 -42.13,-190.59 0.45,-291.52l1.36 -3.23 2.38 -2.57c14.24,-15.43 25.9,-33.57 32.67,-53.52 2.04,-6.02 4.37,-14.46 5,-21.35 -9.45,-35.83 -17.83,-72.4 -23.31,-109.05 -3.37,-22.53 -5.85,-46.05 -5.38,-68.86 0.18,-9.01 1,-21.9 3.8,-33.37 -58.35,-46.53 -127.39,-87.41 -203.01,-92.73 -82.33,-5.79 -155.27,31.9 -217.63,82.01 3.45,12.98 4.78,28.06 5.19,38.43 2.34,58.56 -12.35,127.04 -27.26,183.62 0.58,6.23 2.79,14.51 4.54,19.88 6.67,20.5 18.57,39.16 33.14,54.95l2.38 2.57 1.36 3.23c42.58,100.93 41.1,190.88 0.45,291.52 -11.68,28.93 -25.58,56.84 -39.66,84.65 77.06,28.36 262.09,77.6 459.15,-8.02z"/>
   <path class="fil9" d="M757.31 670.75c0,0 105.36,-30.41 235.47,1.41 -64.11,-54.12 -174.5,-65.43 -235.47,-1.41z"/>
   <path class="fil10" d="M1068.97 383.02c0,-1.63 0.02,-3.25 0.05,-4.87 0.18,-9.01 1,-21.9 3.8,-33.37 -58.35,-46.53 -127.39,-87.41 -203.01,-92.73 -82.33,-5.79 -155.27,31.9 -217.63,82.01 3.11,11.7 4.5,25.1 5.04,35.23 39.03,20.16 91.24,41.02 146.83,53.18 65.4,14.3 81.83,14.26 147.28,-0.14 42.72,-9.4 83.42,-23.92 117.65,-39.3z"/>
   <g>
    <path class="fil9" d="M812.95 510.96l0 108.18 13.19 13.52 37.93 4.95 36.61 -3.63c0,0 12.53,-2.31 14.18,-13.19l0 -111.81c0,0 -95.65,-1.65 -101.91,1.98z"/>
    <path class="fil9" d="M798.55 514.12c-13.89,-0.51 -27.79,-1.13 -41.65,-2.29 -10.47,-0.88 -23.48,-1.74 -33.09,-6.34 -14.07,-6.73 -21.94,-24.71 -27.94,-38.83 -6.84,-16.08 -12.71,-32.58 -18.4,-49.15 -8.12,-23.65 -15.79,-47.47 -23,-71.45l-1.24 -4.14c19.35,-9.99 84.31,-36.17 232.45,-35.1 105.41,0.76 160.84,18.41 188.9,33.22l-2.08 6.92c-7.13,23.68 -14.7,47.21 -22.73,70.56 -5.69,16.56 -11.57,33.07 -18.4,49.15 -6.01,14.12 -13.88,32.1 -27.94,38.83 -9.6,4.6 -22.61,5.46 -33.08,6.34 -13.86,1.17 -27.76,1.79 -41.65,2.29 -43.39,1.58 -86.75,1.58 -130.14,0z"/>
    <path class="fil1" d="M837.1 474.64l53.61 0c11.15,0 20.28,9.12 20.28,20.28l0 115.01c0,11.15 -9.12,20.28 -20.28,20.28l-53.61 0c-11.15,0 -20.28,-9.12 -20.28,-20.28l0 -115.01c0,-11.15 9.12,-20.28 20.28,-20.28z"/>
    <path class="fil1" d="M679.76 321.43c32.37,-8.31 194.98,-45.39 369.54,-2.04 3.51,1.14 6.82,2.29 9.94,3.46l-82.87 27.22 -301.76 -27.01c1.64,-0.54 3.36,-1.08 5.14,-1.63l0 0z"/>
    <path class="fil1" d="M796.96 505.87c-14.23,-0.51 -28.47,-1.13 -42.66,-2.29 -10.73,-0.88 -24.06,-1.74 -33.89,-6.34 -14.41,-6.73 -22.47,-24.71 -28.62,-38.83 -7,-16.08 -13.02,-32.58 -18.85,-49.15 -8.32,-23.65 -16.17,-47.47 -23.56,-71.45l-1.27 -4.14c19.82,-9.99 86.37,-36.17 238.11,-35.1 107.98,0.76 164.76,18.41 193.51,33.22l-2.13 6.92c-7.3,23.68 -15.06,47.21 -23.28,70.56 -5.83,16.56 -11.85,33.07 -18.85,49.15 -6.15,14.12 -14.21,32.1 -28.62,38.83 -9.84,4.6 -23.16,5.46 -33.89,6.34 -14.2,1.17 -28.43,1.79 -42.66,2.29 -44.45,1.58 -88.86,1.58 -133.31,0z"/>
    <path class="fil11" d="M798.25 498.22c-13.91,-0.49 -27.82,-1.1 -41.7,-2.24 -9.6,-0.79 -22.75,-1.67 -31.44,-5.73 -12.46,-5.82 -19.95,-22.94 -25.32,-35.25 -6.83,-15.68 -12.7,-31.78 -18.38,-47.93 -8.16,-23.18 -15.86,-46.54 -23.09,-70.04 66.27,-22.54 328.9,-30.82 410.31,0.87 -7.16,23.21 -14.76,46.28 -22.82,69.17 -5.68,16.15 -11.55,32.26 -18.38,47.93 -5.36,12.31 -12.85,29.43 -25.31,35.25 -8.69,4.06 -21.84,4.94 -31.44,5.73 -13.88,1.14 -27.79,1.75 -41.7,2.24 -8.97,0.32 -17.89,0.57 -26.77,0.76l0 111.15c0,6.21 -5.17,11.28 -11.49,11.28l-53.61 0c-6.32,0 -11.49,-5.08 -11.49,-11.28l0 -111.13c-9.08,-0.19 -18.19,-0.45 -27.36,-0.77l0 0z"/>
    <path class="fil12" d="M755.56 491.7c-9.6,-0.79 -21.76,-0.68 -30.45,-4.74 -12.46,-5.82 -19.95,-22.94 -25.32,-35.25 -6.83,-15.68 -12.7,-28.49 -18.38,-44.63 -8.16,-23.18 -15.86,-46.54 -23.09,-70.04 66.27,-22.54 328.9,-30.81 410.31,0.87 -7.16,23.21 -14.76,46.28 -22.82,69.17 -5.68,16.15 -11.55,32.25 -18.38,47.93 -5.36,12.31 -15.16,25.47 -27.62,31.29 -8.69,4.06 -21.84,4.94 -31.44,5.73 -23.29,1.91 -46.18,1.68 -69.46,2.18l-0.65 111.32c-0.03,6.2 -5.17,11.22 -11.49,11.28l-46.04 0.49c-6.31,0.07 -11.46,-5.08 -11.49,-11.28l-0.49 -112.13c-23.94,-0.5 -49.21,-0.22 -73.18,-2.19l-0 0z"/>
    <path class="fil1" d="M1055.11 333.46c-7.09,22.99 -14.67,45.97 -22.64,68.61 -5.54,15.73 -11.34,31.66 -17.99,46.93 -3.39,7.79 -10.33,24.23 -18.22,27.92 -6.32,2.95 -19.72,3.9 -26.72,4.48 -13.64,1.12 -27.39,1.72 -41.06,2.2 -43.86,1.56 -85.88,1.56 -129.74,0 -13.68,-0.49 -27.42,-1.08 -41.06,-2.2 -7,-0.58 -20.4,-1.52 -26.72,-4.48 -7.89,-3.69 -14.83,-20.13 -18.23,-27.92 -6.65,-15.27 -12.45,-31.19 -17.99,-46.93 -8.07,-22.92 -15.74,-46.2 -22.91,-69.48 45.15,-9.79 233.65,-45.67 383.27,0.87z"/>
    <path class="fil2" d="M680.23 330.83c7.77,24.98 41.75,132.25 54.23,138.08 12.74,5.95 108.76,7.07 127.55,7.24l0 0.03 1.6 -0.01 1.6 0.01 0 -0.03c18.79,-0.16 114.8,-1.29 127.55,-7.24 12.45,-5.82 46.3,-112.59 54.17,-137.9 -140.19,-40.47 -311.07,-11.57 -366.69,-0.18z"/>
    <path class="fil3" d="M680.77 331.21c0,0 37.63,116.52 177.6,117.84 139.96,1.32 187.83,-118.84 187.83,-118.84 0,0 -156.24,-48.52 -365.43,0.99l0 0z"/>
    <path class="fil3" d="M680.23 330.83c7.77,24.98 41.75,132.25 54.23,138.08 12.74,5.95 108.76,7.07 127.55,7.24l0 0.03 1.6 -0.01 1.6 0.01 0 -0.03c18.79,-0.16 114.8,-1.29 127.55,-7.24 12.45,-5.82 46.3,-112.59 54.17,-137.9 -1.4,-0.4 -2.8,-0.79 -4.2,-1.18 -11.99,37.65 -39.11,119.48 -49.97,124.55 -12.74,5.95 -108.76,7.07 -127.55,7.24l0 0.03 -1.6 -0.01 -1.6 0.01 0 -0.03c-18.79,-0.16 -114.8,-1.29 -127.55,-7.24 -10.85,-5.07 -37.92,-86.72 -49.93,-124.42 -1.49,0.3 -2.94,0.59 -4.3,0.87z"/>
    <path class="fil1" d="M863.86 478.81l0.09 0c2.52,0 4.58,2.06 4.58,4.57l0 114.31c0,2.52 -2.06,4.58 -4.58,4.58l-0.09 0c-2.52,0 -4.58,-2.06 -4.58,-4.58l0 -114.31c0,-2.52 2.06,-4.57 4.58,-4.57z"/>
    <path id="_123965536" class="fil13" d="M888.24 533.02c-0.08,-1.75 1.29,-3.24 3.04,-3.31 1.76,-0.08 3.24,1.29 3.32,3.04 0.11,2.63 -0.86,5.07 -2.52,6.88 -1.66,1.81 -4,2.98 -6.63,3.09l-0.01 0 0 0c-2.63,0.11 -5.07,-0.86 -6.88,-2.52 -1.81,-1.66 -2.99,-4 -3.1,-6.64 -0.3,-6.97 3.99,-8.4 8.28,-9.82 2.02,-0.67 4.04,-1.34 3.94,-3.52l-0 -0.1c-0.06,-0.85 -0.45,-1.6 -1.03,-2.14 -0.6,-0.55 -1.42,-0.87 -2.32,-0.84l-0.01 0c-0.89,0.04 -1.68,0.43 -2.23,1.04 -0.55,0.6 -0.87,1.42 -0.84,2.32 0.08,1.76 -1.29,3.24 -3.04,3.32 -1.75,0.07 -3.24,-1.29 -3.31,-3.04 -0.11,-2.63 0.86,-5.07 2.52,-6.88 1.66,-1.81 4,-2.99 6.64,-3.1l0 0c2.63,-0.11 5.07,0.86 6.88,2.52 1.76,1.62 2.92,3.89 3.09,6.44 0.01,0.06 0.01,0.13 0.01,0.19 0.3,6.97 -3.99,8.4 -8.28,9.82 -2.02,0.67 -4.04,1.34 -3.94,3.52 0.04,0.89 0.43,1.68 1.04,2.24 0.6,0.55 1.42,0.87 2.32,0.84l0 0c0.89,-0.04 1.68,-0.44 2.24,-1.04 0.55,-0.6 0.87,-1.42 0.84,-2.32z"/>
    <path id="_123965464" class="fil13" d="M888.24 582.04c-0.08,-1.75 1.29,-3.24 3.04,-3.32 1.76,-0.07 3.24,1.29 3.32,3.04 0.11,2.63 -0.86,5.07 -2.52,6.88 -1.66,1.81 -4,2.98 -6.63,3.09l-0.01 0 0 0c-2.63,0.11 -5.07,-0.86 -6.88,-2.52 -1.81,-1.66 -2.99,-4 -3.1,-6.64 -0.3,-6.97 3.99,-8.4 8.28,-9.82 2.02,-0.67 4.04,-1.34 3.94,-3.52l-0 -0.1c-0.06,-0.85 -0.45,-1.61 -1.03,-2.14 -0.6,-0.55 -1.42,-0.87 -2.32,-0.84l-0.01 0c-0.89,0.04 -1.68,0.43 -2.23,1.04 -0.55,0.6 -0.87,1.42 -0.84,2.32 0.08,1.75 -1.29,3.24 -3.04,3.32 -1.75,0.07 -3.24,-1.29 -3.31,-3.04 -0.11,-2.63 0.86,-5.07 2.52,-6.88 1.66,-1.81 4,-2.99 6.64,-3.1l0 0c2.63,-0.11 5.07,0.86 6.88,2.52 1.76,1.62 2.93,3.89 3.09,6.44 0.01,0.07 0.01,0.13 0.01,0.2 0.3,6.97 -3.99,8.4 -8.28,9.82 -2.02,0.67 -4.04,1.34 -3.94,3.52 0.04,0.89 0.43,1.68 1.04,2.24 0.6,0.55 1.42,0.87 2.32,0.84l0 0c0.89,-0.04 1.68,-0.44 2.24,-1.04 0.55,-0.6 0.87,-1.42 0.84,-2.32z"/>
    <path id="_123965392" class="fil1" d="M881.83 500.23c1.45,-1.61 3.92,-1.74 5.53,-0.3 1.61,1.45 1.74,3.92 0.3,5.53 -1.45,1.61 -3.92,1.74 -5.53,0.3 -1.61,-1.45 -1.74,-3.92 -0.3,-5.53z"/>
    <path id="_123965320" class="fil1" d="M881.83 548.16c1.45,-1.61 3.92,-1.74 5.53,-0.3 1.61,1.45 1.74,3.92 0.3,5.53 -1.45,1.61 -3.92,1.74 -5.53,0.3 -1.61,-1.45 -1.74,-3.92 -0.3,-5.53z"/>
    <path id="_123965248" class="fil1" d="M881.83 601.26c1.45,-1.61 3.92,-1.74 5.53,-0.3 1.61,1.45 1.74,3.92 0.3,5.53 -1.45,1.61 -3.92,1.74 -5.53,0.3 -1.61,-1.45 -1.74,-3.92 -0.3,-5.53z"/>
    <path id="_123964768" class="fil13" d="M839.53 533.02c0.08,-1.75 -1.29,-3.24 -3.04,-3.32 -1.76,-0.08 -3.24,1.29 -3.32,3.04 -0.11,2.63 0.86,5.07 2.52,6.88 1.66,1.81 4,2.98 6.63,3.1l0.01 0 0 0c2.63,0.11 5.07,-0.86 6.88,-2.52 1.81,-1.66 2.99,-4 3.1,-6.64 0.3,-6.97 -3.99,-8.4 -8.28,-9.82 -2.02,-0.67 -4.04,-1.34 -3.94,-3.52l0 -0.1c0.06,-0.85 0.45,-1.6 1.03,-2.14 0.6,-0.55 1.42,-0.87 2.32,-0.83l0.01 0c0.89,0.04 1.68,0.43 2.23,1.04 0.55,0.6 0.87,1.42 0.84,2.32 -0.08,1.75 1.29,3.24 3.04,3.32 1.75,0.08 3.24,-1.29 3.31,-3.04 0.11,-2.63 -0.86,-5.07 -2.52,-6.88 -1.66,-1.81 -4,-2.99 -6.64,-3.1l-0 0c-2.63,-0.11 -5.07,0.86 -6.88,2.52 -1.76,1.62 -2.92,3.89 -3.09,6.44 -0.01,0.07 -0.01,0.13 -0.01,0.19 -0.3,6.97 3.99,8.4 8.28,9.82 2.02,0.67 4.04,1.34 3.94,3.52 -0.04,0.89 -0.43,1.68 -1.04,2.24 -0.6,0.55 -1.42,0.87 -2.32,0.84l0 0c-0.89,-0.04 -1.68,-0.44 -2.24,-1.04 -0.55,-0.6 -0.87,-1.42 -0.84,-2.32z"/>
    <path id="_123964696" class="fil13" d="M839.53 582.04c0.08,-1.75 -1.29,-3.24 -3.04,-3.32 -1.76,-0.08 -3.24,1.29 -3.32,3.04 -0.11,2.63 0.86,5.07 2.52,6.88 1.66,1.81 4,2.98 6.63,3.09l0.01 0 0 0c2.63,0.11 5.07,-0.86 6.88,-2.52 1.81,-1.66 2.99,-4 3.1,-6.64 0.3,-6.97 -3.99,-8.4 -8.28,-9.82 -2.02,-0.67 -4.04,-1.34 -3.94,-3.52l0 -0.1c0.06,-0.85 0.45,-1.6 1.03,-2.14 0.6,-0.55 1.42,-0.87 2.32,-0.83l0.01 0c0.89,0.04 1.68,0.43 2.23,1.04 0.55,0.6 0.87,1.42 0.84,2.32 -0.08,1.75 1.29,3.24 3.04,3.32 1.75,0.07 3.24,-1.29 3.31,-3.04 0.11,-2.63 -0.86,-5.07 -2.52,-6.88 -1.66,-1.81 -4,-2.99 -6.64,-3.1l-0 0c-2.63,-0.11 -5.07,0.86 -6.88,2.52 -1.76,1.62 -2.92,3.89 -3.09,6.44 -0.01,0.06 -0.01,0.13 -0.01,0.19 -0.3,6.97 3.99,8.4 8.28,9.82 2.02,0.67 4.04,1.34 3.94,3.52 -0.04,0.89 -0.43,1.68 -1.04,2.24 -0.6,0.55 -1.42,0.87 -2.32,0.84l0 0c-0.89,-0.04 -1.68,-0.44 -2.24,-1.04 -0.55,-0.6 -0.87,-1.42 -0.84,-2.32z"/>
    <path id="_123964624" class="fil1" d="M845.94 500.23c-1.45,-1.61 -3.92,-1.74 -5.53,-0.3 -1.61,1.45 -1.74,3.92 -0.3,5.53 1.45,1.61 3.93,1.74 5.53,0.3 1.61,-1.45 1.74,-3.92 0.29,-5.53z"/>
    <path id="_123964552" class="fil1" d="M845.94 548.16c-1.45,-1.61 -3.92,-1.74 -5.53,-0.3 -1.61,1.45 -1.74,3.92 -0.29,5.53 1.45,1.61 3.92,1.74 5.53,0.3 1.61,-1.45 1.74,-3.92 0.29,-5.53z"/>
    <path id="_123964480" class="fil1" d="M845.94 601.26c-1.45,-1.61 -3.92,-1.74 -5.53,-0.3 -1.61,1.45 -1.74,3.92 -0.29,5.53 1.45,1.61 3.92,1.74 5.53,0.3 1.61,-1.45 1.74,-3.92 0.29,-5.53z"/>
   </g>
   <path class="fil2" d="M664.74 2046.49l92.63 -4.21c9.1,-58.25 18.27,-116.49 27.53,-174.72 5.72,-36.02 11.47,-72.04 17.33,-108.04 3.91,-24.01 7.75,-48.13 12.1,-72.07 7.19,-39.53 -22.24,-114.06 -42.53,-155.41 -17.9,-1.15 -36.02,-1.79 -53.84,-1.83 -9.25,-0.02 -38.99,0.22 -50.18,3.57 -14.1,27.85 -27.92,55.92 -41.43,84.05 -8.43,17.56 -16.78,35.22 -24.64,53.04 -2.88,6.53 -5.72,13.12 -8.29,19.77 -1.06,2.73 -2.74,6.81 -3.25,9.4 -0.94,7.04 -2.22,12.97 -2.47,20.23 -0.54,15.64 1.72,32.66 4.16,48.06 5.59,35.3 14.18,70.85 23.1,105.43 14.95,57.94 32.03,115.55 49.78,172.73z"/>
   <path class="fil3" d="M689.75 1530.94c-8.69,0.51 -17.1,1.38 -21.98,2.84 -14.1,27.85 -27.92,55.92 -41.43,84.05 -8.43,17.56 -16.78,35.22 -24.64,53.04 -2.88,6.53 -5.72,13.12 -8.29,19.77 -1.06,2.73 -2.74,6.81 -3.25,9.4 -0.94,7.04 -2.22,12.97 -2.47,20.23 -0.54,15.64 1.72,32.66 4.16,48.06 5.59,35.3 14.18,70.85 23.1,105.43 11.4,44.2 24.05,88.19 37.28,131.96 3.05,-27.14 4.02,-56.99 2.49,-89.72 0,0 -36.06,-78.49 -43.13,-206.47 0,0 28.99,-83.44 82.02,-173.24 0,0 -1.41,-1.86 -3.87,-5.34z"/>
   <path class="fil3" d="M688.36 1565.45c0,0 10.96,33.94 39.24,36.77 28.28,2.83 40.3,-39.6 40.3,-39.6 0,0 -27.22,19.45 -79.55,2.83z"/>
   <path class="fil3" d="M960.24 1560.86c14.24,39.51 67.53,51.05 67.53,-6.01 0,0 -15.2,22.63 -67.53,6.01z"/>
   <g>
    <path class="fil1" d="M1281.77 1896.87l-17.96 231.56 -3.18 55.49 -163.76 -93.75c-12.5,-62.14 -24.99,-123.64 -37.49,-185.79 65.71,-15.69 153.55,-23.66 222.4,-7.51z"/>
    <path class="fil14" d="M1078.96 1917.55l30.97 161.97 136.04 79.68c4.45,-74.79 11.29,-170.11 15.74,-244.9 -9.76,-5.83 -89.84,-14.5 -182.75,3.25z"/>
    <path class="fil15" d="M1231.23 2071.87c-1.9,3.72 -5.88,6.45 -10.52,6.75l-34.88 2.24c-5.09,0.32 -9.58,-2.36 -11.49,-6.41l-15.11 0.68 -26.55 -29.98 19.22 -33.88 21.34 -0.78c2.04,-3.31 5.77,-5.66 10.08,-5.94l34.88 -2.24c4.98,-0.31 9.38,2.24 11.36,6.13l22.88 -0.83c-1.4,21.16 -2.82,42.51 -4.2,63.48l-16.99 0.77z"/>
    <path class="fil16" d="M1087.85 1964.04l22.08 115.48 17.06 9.99c12.27,1.51 22.14,2.62 22.14,2.62l-15.24 -25.06 -20.83 -148.32c-1.61,-1.21 -20.4,-0.15 -22.9,10.09 -2.5,10.23 -5.84,12.86 -2.32,35.19z"/>
    <path class="fil16" d="M1078.96 1917.55l11.14 53.64 4.1 3.24c1.94,-2.96 3.1,-4.82 3.1,-4.82l-1.34 -38.31c0,0 62.49,-18.26 156.55,-19.76 -25.34,-5.09 -94.83,-9.02 -173.55,6.01z"/>
    <path class="fil15" d="M1086.74 1958.2l3.4 17.81c21.34,-4.48 89.32,-16.31 168.04,-5.14 0.57,-8.84 1.13,-17.56 1.67,-26.1 -32.16,-2.64 -85.96,-1.47 -173.11,13.43z"/>
    <path class="fil15" d="M1203.52 2134.33l42.46 24.87c5.14,-81.83 10.27,-163.67 15.41,-245.5 -14.86,-5.2 -38.96,-7.13 -57.93,-7.18 1.27,36.76 -2,162.3 0.06,227.81z"/>
    <path class="fil1" d="M1102.73 2065.96c-3.66,0.03 -104.47,114.02 -107.28,127.86l0.67 13.1c0,0 125.67,0.95 265.3,-7.85l0.03 -53.7c0,0 -158.73,-80.72 -158.72,-79.41z"/>
    <path class="fil14" d="M1109.7 2088.36c0,0 -49.51,47.22 -87.01,97.53 0,0 67.76,5.07 225.69,-4.11l-0.68 -65.71 -138 -27.72z"/>
    <path class="fil15" d="M1149.99 2166.02c26.33,1.01 58.57,1.77 98.56,-0.55l0.07 -53.22 -45.55 -12.07 -53.07 65.85z"/>
    <path class="fil16" d="M1109.7 2088.36c0,0 -31.75,31.67 -74.52,81.23 0,0 17.71,-0.13 65.71,-0.82l52.62 -72.24 -43.81 -8.17z"/>
    <path class="fil1" d="M1028.69 2160.43c2.39,-0.02 92.36,9.85 91.56,9.54 -0.8,-0.31 -95.92,1.33 -95.92,1.33l4.37 -10.87z"/>
    <path class="fil1" d="M1266.01 1954.84c0,0 -41.73,-9.41 -115.8,-5.62 0,0 69.02,-14.42 117.49,-9.53l1.38 8.08 -3.07 7.07z"/>
    <path class="fil1" d="M1081.43 1965.87c0,0 33.74,-9.73 61.75,-15.58 0,0 -40.8,-0.6 -65,1.63l-1.62 5.96 4.88 7.99z"/>
    <g>
     <polygon class="fil1" points="1283.55,1983.57 1150.25,1988.42 1128.55,2026.67 1158.53,2060.53 1278.24,2055.1 "/>
     <polygon class="fil17" points="1267.82,2042.25 1270.78,1996.28 1156.89,2000.09 1141.9,2025.99 1161.7,2048.06 "/>
     <path class="fil18" d="M1146.07 2024.9l16.78 21 101.26 -7.72 1.63 -23.44c0,0 -68.66,8.51 -119.68,10.16z"/>
     <g>
      <path class="fil1" d="M1239.19 1990.13l2.01 60.75c0.23,6.99 -5.73,13.1 -13.24,13.58l-39.39 2.53c-7.52,0.48 -13.85,-4.84 -14.08,-11.83l-2.01 -60.75c-0.23,-6.99 5.73,-13.1 13.24,-13.58l39.39 -2.53c7.51,-0.48 13.85,4.84 14.08,11.83z"/>
      <path class="fil19" d="M1228.67 1993.09l1.86 56.18c0.08,2.33 -1.91,4.37 -4.41,4.53l-36.43 2.34c-2.5,0.16 -4.62,-1.61 -4.69,-3.94l-1.86 -56.18c-0.08,-2.33 1.91,-4.37 4.41,-4.53l36.43 -2.34c2.5,-0.16 4.62,1.61 4.69,3.94z"/>
      <path class="fil20" d="M1229.77 2026.08l0.77 23.2c0.07,2.33 -1.91,4.36 -4.41,4.53l-36.43 2.33c-2.5,0.16 -4.61,-1.61 -4.69,-3.94l-0.92 -27.7c16.23,1.7 32.56,1.91 45.68,1.58z"/>
      <polygon class="fil1" points="1219.67,2000.63 1221.07,2042.92 1194.01,2044.66 1192.61,2002.36 "/>
      <rect class="fil1" transform="matrix(-0.0282119 -0.851331 -0.850457 0.0546002 1216.57 2038.97)" width="39.74" height="21.57"/>
     </g>
    </g>
    <path class="fil1" d="M1255.87 2152.6c0,0 -108.93,16 -107.01,16.31 1.92,0.3 105.87,-0.62 105.87,-0.62l1.14 -15.68z"/>
   </g>
   <g>
    <path class="fil1" d="M586.14 1915.2l28.76 229.06 2.4 69.28 161.54 -115.15c9.48,-62.29 18.98,-123.94 28.46,-186.23 -65.98,-12.48 -153.57,-16.25 -221.17,3.04z"/>
    <path class="fil14" d="M788.48 1926.17l-23.11 162.28 -131.31 85.53c-7.95,-74.05 -19.24,-168.36 -27.19,-242.41 9.41,-6.25 88.51,-18.64 181.6,-5.4z"/>
    <path class="fil15" d="M644.59 2086.57c2.06,3.6 6.14,6.13 10.76,6.21l34.74 0.57c5.07,0.08 9.4,-2.79 11.11,-6.9l15.04 -0.03 24.95 -31.02 -20.69 -32.73 -21.22 0.24c-2.19,-3.19 -5.99,-5.35 -10.29,-5.42l-34.73 -0.58c-4.96,-0.08 -9.2,2.66 -10.99,6.63l-22.76 0.25c2.39,20.94 4.81,42.08 7.17,62.82l16.9 -0.03z"/>
    <path class="fil16" d="M781.85 1972.75l-16.48 115.7 -16.46 10.72c-12.11,2.08 -21.86,3.65 -21.86,3.65l13.95 -25.6 13.68 -148.24c1.54,-1.27 20.24,-1.11 23.21,8.94 2.97,10.04 6.4,12.49 3.97,34.83z"/>
    <path class="fil16" d="M788.48 1926.17l-8.53 53.78 -3.91 3.41c-2.07,-2.85 -3.3,-4.64 -3.3,-4.64l-0.48 -38.1c0,0 -62.9,-15.19 -156.36,-12.24 24.92,-6.25 93.73,-13.43 172.59,-2.22z"/>
    <path class="fil15" d="M782.68 1966.89l-2.54 17.84c-21.4,-3.44 -89.45,-11.98 -167.08,2.83 -0.99,-8.75 -1.95,-17.38 -2.89,-25.84 31.8,-4.14 85.28,-5.52 172.51,5.17z"/>
    <path class="fil15" d="M675.05 2147.28l-40.98 26.69c-8.96,-81.01 -17.93,-162.01 -26.89,-243.02 14.51,-5.87 38.35,-8.92 57.18,-9.87 0.47,36.55 9.64,161.05 10.69,226.19z"/>
    <path class="fil1" d="M771.89 2074.64c3.63,-0.14 109.11,108.28 112.55,121.88l-0.05 13.04c0,0 -127.85,6.38 -266.9,4.23l0.56 -52.81c0,0 153.79,-87.64 153.84,-86.33z"/>
    <path class="fil14" d="M766.03 2097.21c0,0 51.38,44.55 90.99,92.73 0,0 -67.04,8.23 -224.27,6.57l-2.43 -65.27 135.71 -34.03z"/>
    <path class="fil15" d="M729.69 2176.22c-26.1,2.24 -58.07,4.53 -97.88,4.11l-2.58 -52.84 44.66 -14.14 55.8 62.87z"/>
    <path class="fil16" d="M766.03 2097.21c0,0 33.02,29.95 77.82,77.14 0,0 -17.59,0.71 -65.28,2.29l-55.65 -69.24 43.11 -10.18z"/>
    <path class="fil1" d="M849.86 2164.94c-2.37,0.09 -91.23,14.14 -90.45,13.8 0.78,-0.35 95.3,-3.2 95.3,-3.2l-4.85 -10.59z"/>
    <path class="fil1" d="M604.53 1972.01c0,0 40.99,-11.31 114.71,-11.05 0,0 -69.21,-11.06 -117.11,-3.92l-0.99 8.08 3.38 6.88z"/>
    <path class="fil1" d="M788.31 1974.25c0,0 -33.96,-8.07 -62.04,-12.56 0,0 40.48,-2.52 64.62,-1.45l1.89 5.84 -4.46 8.16z"/>
    <g>
     <polygon class="fil1" points="588.46,2001.37 721.05,1999.89 744.4,2036.85 716.23,2071.88 597.12,2072.14 "/>
     <polygon class="fil17" points="606.85,2058.89 601.75,2013.39 715,2011.79 731.11,2036.8 712.5,2059.65 "/>
     <path class="fil18" d="M726.92 2035.92l-15.67 21.65 -100.91 -2.88 -2.73 -23.2c0,0 68.57,5.21 119.3,4.44z"/>
     <g>
      <path class="fil1" d="M632.82 2005.79l0.87 60.41c0.1,6.95 6.3,12.74 13.79,12.86l39.23 0.65c7.48,0.13 13.52,-5.46 13.43,-12.41l-0.87 -60.41c-0.1,-6.95 -6.3,-12.74 -13.79,-12.86l-39.23 -0.65c-7.48,-0.12 -13.52,5.46 -13.42,12.41z"/>
      <path class="fil19" d="M643.4 2008.24l0.8 55.86c0.03,2.32 2.1,4.25 4.6,4.29l36.28 0.6c2.49,0.04 4.51,-1.82 4.48,-4.14l-0.8 -55.86c-0.03,-2.32 -2.1,-4.25 -4.6,-4.29l-36.28 -0.6c-2.49,-0.04 -4.51,1.82 -4.47,4.14z"/>
      <path class="fil20" d="M643.87 2041.03l0.33 23.07c0.04,2.32 2.1,4.24 4.6,4.29l36.28 0.6c2.49,0.04 4.51,-1.82 4.47,-4.14l-0.4 -27.54c-16.03,2.46 -32.24,3.43 -45.28,3.72z"/>
      <polygon class="fil1" points="652.7,2015.29 653.31,2057.35 680.26,2057.8 679.65,2015.73 "/>
      <rect class="fil1" transform="matrix(-0.0121685 -0.846592 0.846969 0.0140729 657.583 2053.22)" width="39.74" height="21.57"/>
     </g>
    </g>
    <path class="fil1" d="M623.93 2167.89c0,0 108.91,10.75 107.01,11.14 -1.89,0.39 -105.14,4.38 -105.14,4.38l-1.87 -15.52z"/>
   </g>
   <path class="fil1" d="M781.02 1184.63c49.85,34.18 107.79,43.47 163.95,-3.54 0,0 -65.68,-20.37 -163.95,3.54z"/>
   <path class="fil5" d="M773.14 1182.99c72.63,12.94 111.41,15.67 183.14,-5.3 0,0 -37.48,-40.66 -40.3,-41.01 -2.83,-0.35 -59.4,-13.79 -65.05,-10.96 -5.66,2.83 -77.78,57.27 -77.78,57.27z"/>
   <path class="fil1" d="M624.73 1005.9c0,0 242.91,106.18 476.37,-11.64l10.18 15.27c0,0 -206.19,123.64 -494.19,14.54l1.09 -15.27 6.55 -2.91z"/>
   <g>
    <path class="fil1" d="M625.98 327.37c-245.62,193.32 -394.36,638.41 -196,925.27 0,0 107.47,-30.67 165.24,-76.31 -7.09,-9.13 -13.87,-20.55 -32.9,-60.05 -32.8,-90.69 -79.12,-313.25 69.38,-512.45 -15.76,-29.82 -16.12,-49.81 -16.12,-49.81 48.08,-181.02 14.94,-229.81 14.94,-229.81l-4.53 3.16z"/>
    <path class="fil8" d="M634.22 346.17c-113.8,91.1 -197.35,232.6 -239.51,365.19 -54.13,170.24 -49.04,377.39 52.95,523.78 11.55,-3.02 91.73,-39.36 124.9,-56.02 -24.16,-36.59 -31.84,-62.83 -35.67,-74.53 -17.29,-52.74 -27.7,-108.39 -30.21,-163.84 -6.1,-134.27 34.29,-253.78 110.05,-355.32 -6.6,-18.76 -6.8,-31.4 -6.8,-31.4 108.43,-85.36 40.85,-183.16 24.3,-207.85z"/>
    <path class="fil21" d="M634.22 346.17c-113.8,91.1 -197.35,232.6 -239.51,365.19 -54.13,170.24 -49.04,377.39 52.95,523.78 1.11,-0.29 2.87,-0.9 5.16,-1.76 -93.94,-145.53 -97.3,-345.91 -44.68,-511.41 40.8,-128.32 120.36,-264.96 228.59,-356.21 -0.58,-7.92 -1.49,-14.39 -2.51,-19.59z"/>
    <path class="fil9" d="M565.27 1167.57c-18.48,-30.57 -24.96,-52.56 -28.37,-62.99 -17.29,-52.74 -27.7,-108.39 -30.21,-163.84 -6.1,-134.27 34.29,-253.78 110.05,-355.32 -3.73,-10.59 -5.41,-19.23 -6.17,-24.75 -257.8,282.65 -70.08,607.7 -73.35,607.7l28.07 -0.8z"/>
    <path class="fil1" d="M427.85 1249.1c0,0 27.22,118.44 112.08,170.77 0,0 29.17,9.55 54.62,8.84 0,0 16.09,-5.66 28.82,-27.93 0,0 34.29,0 52.68,-34.3 0,0 35.36,-19.8 42.43,-44.19l-31.47 -43.13c0,0 9.19,-29.7 10.96,-56.93 0,0 1.42,-23.69 -1.06,-24.75 -2.47,-1.06 -48.79,-36.07 -127.28,-42.43 0,0 -32.88,9.9 -75.66,38.18 -42.78,28.28 -66.12,55.87 -66.12,55.87z"/>
    <path class="fil2" d="M445.08 1230.7c0,0 23.69,115.61 102.53,172.18 0,0 39.6,8.49 47.02,7.78 0,0 12.37,-12.02 13.43,-24.04 0,0 37.48,-1.77 53.03,-33.94 0,0 30.05,-8.49 39.6,-31.47 0,0 -64.35,-89.1 -61.52,-89.8 2.83,-0.71 37.12,30.41 37.12,30.41 0,0 6.36,-20.86 4.24,-50.91 0,0 -47.73,-39.6 -147.43,-44.19 -29.73,1.42 -77.55,27.04 -88.04,63.99z"/>
    <path class="fil3" d="M550.03 1403.39c8.7,1.82 38.29,7.87 44.61,7.27 0,0 12.37,-12.02 13.43,-24.04 0,0 37.48,-1.77 53.03,-33.94 0,0 30.05,-8.49 39.6,-31.47 0,0 -10.48,-14.48 -20.38,-28.39 -48.39,43.1 -99.13,89.52 -130.29,110.57z"/>
   </g>
   <path class="fil1" d="M959.36 1560.52c0,0 35.15,12.11 68.65,-6.37 -16.59,35.53 -52.74,32.94 -68.65,6.37z"/>
   <path class="fil1" d="M687.47 1564.19c0,0 41.46,14.39 82.58,-3.45 -21.78,36.57 -64.94,32.14 -82.58,3.45z"/>
   <path class="fil1" d="M1090.85 597.56c0,0 -27.22,48.79 -112.43,48.08 0,0 38.89,12.02 84.85,3.54l16.26 -17.68 11.31 -33.94z"/>
   <path class="fil1" d="M641.84 597.56c0,0 27.22,48.79 112.43,48.08 0,0 -38.89,12.02 -84.85,3.54l-16.26 -17.68 -11.31 -33.94z"/>
   <g>
    <path class="fil1" d="M1099.72 340.1c245.62,193.32 394.36,638.41 196,925.27 0,0 -107.47,-30.67 -165.24,-76.31 7.09,-9.13 13.87,-20.55 32.9,-60.05 32.8,-90.69 79.12,-313.25 -69.38,-512.45 15.76,-29.82 16.12,-49.81 16.12,-49.81 -48.08,-181.02 -14.94,-229.81 -14.94,-229.81l4.53 3.16z"/>
    <path class="fil8" d="M1091.49 358.9c113.8,91.1 197.35,232.6 239.51,365.19 54.13,170.24 49.04,377.39 -52.95,523.78 -11.55,-3.02 -91.73,-39.36 -124.9,-56.02 24.16,-36.59 31.84,-62.83 35.67,-74.53 17.29,-52.74 27.7,-108.39 30.21,-163.84 6.1,-134.27 -34.29,-253.78 -110.05,-355.32 6.6,-18.76 6.8,-31.4 6.8,-31.4 -95.7,-125.66 -55.7,-188.82 -24.3,-207.85z"/>
    <path class="fil21" d="M1091.49 358.9c113.8,91.1 197.35,232.6 239.51,365.19 54.13,170.24 49.04,377.39 -52.95,523.78 -1.11,-0.29 -2.87,-0.9 -5.16,-1.76 93.94,-145.53 97.3,-345.91 44.68,-511.41 -40.8,-128.32 -120.36,-264.96 -228.59,-356.21 0.58,-7.92 1.49,-14.39 2.51,-19.59z"/>
    <path class="fil9" d="M1160.44 1180.3c18.48,-30.57 24.96,-52.56 28.37,-62.99 17.29,-52.74 27.7,-108.39 30.21,-163.84 6.1,-134.27 -34.29,-253.78 -110.05,-355.32 3.73,-10.59 5.41,-19.23 6.17,-24.75 257.8,282.65 70.08,607.7 73.35,607.7l-28.07 -0.8z"/>
    <path class="fil1" d="M1297.86 1261.83c0,0 -27.22,118.44 -112.08,170.77 0,0 -29.17,9.55 -54.62,8.84 0,0 -16.09,-5.66 -28.82,-27.93 0,0 -34.29,0 -52.68,-34.3 0,0 -35.36,-19.8 -42.43,-44.19l31.47 -43.13c0,0 -9.19,-29.7 -10.96,-56.93 0,0 -1.42,-23.69 1.06,-24.75 2.47,-1.06 48.79,-36.07 127.28,-42.43 0,0 32.88,9.9 75.66,38.18 42.78,28.28 66.12,55.87 66.12,55.87z"/>
    <path class="fil2" d="M1280.63 1243.43c0,0 -23.69,115.61 -102.53,172.18 0,0 -39.6,8.49 -47.02,7.78 0,0 -12.37,-12.02 -13.43,-24.04 0,0 -37.48,-1.77 -53.03,-33.94 0,0 -30.05,-8.49 -39.6,-31.47 0,0 64.35,-89.1 61.52,-89.8 -2.83,-0.71 -37.12,30.41 -37.12,30.41 0,0 -6.36,-20.86 -4.24,-50.91 0,0 47.73,-39.6 147.43,-44.19 29.73,1.42 77.55,27.04 88.04,63.99z"/>
    <path class="fil3" d="M1175.68 1416.12c-8.7,1.82 -38.29,7.87 -44.61,7.27 0,0 -12.37,-12.02 -13.43,-24.04 0,0 -37.48,-1.77 -53.03,-33.94 0,0 -30.05,-8.49 -39.6,-31.47 0,0 10.48,-14.48 20.38,-28.39 48.39,43.1 99.13,89.52 130.29,110.57z"/>
   </g>
   <g>
    <path class="fil1" d="M590.81 1036.13c0,0 124.36,47.04 273.5,40.2l0 -311.36c-74.52,2.08 -90.2,67.17 -201.03,79.11 -13.37,72.58 -40.27,125.34 -72.47,192.04z"/>
    <path class="fil1" d="M1137.95 1033.58c0,0 -133.45,49.59 -282.59,42.75l0 -311.36c76.42,2.14 93.65,70.41 207.91,79.8 11.56,61.68 43.88,137.63 74.68,188.81z"/>
    <path class="fil22" d="M817.93 793.93c-10.3,5.3 -20.02,11.74 -29.77,17.86 -12.31,7.73 -24.63,14.95 -37.98,21.09 -26.02,11.96 -41.37,18.73 -69.51,22.15 -8.99,38.05 -46.64,134.74 -63.22,170.72 5.6,1.77 18.15,5.96 23.6,7.52 131.82,37.69 305.74,37.69 437.56,0 5.45,-1.56 22,-5.75 27.6,-7.52 -17.96,-35.33 -58.1,-131.79 -67.61,-171.62 -31.08,-3.06 -40.54,-8.1 -69.12,-21.24 -13.35,-6.14 -25.67,-13.36 -37.98,-21.09 -9.74,-6.12 -19.47,-12.56 -29.77,-17.86 -13.17,-6.77 -25.48,-10.48 -37.42,-11.4l0 -0.17c-1.49,-0.06 -2.98,-0.07 -4.48,-0.05 -1.5,-0.03 -2.99,-0.01 -4.48,0.05l0 0.17c-11.94,0.91 -24.25,4.62 -37.42,11.4z"/>
    <path class="fil23" d="M619.54 1020.58c21.54,5.3 55.82,11.54 87.57,15.61 91.48,11.74 213.97,11.74 305.45,0 31.75,-4.07 68.94,-10.86 90.48,-16.16 -20.67,-49.74 -30.7,-62.01 -47.14,-113.1 -0.44,-1.17 -98.69,-19.52 -141.28,-64.23 0,0 -22.92,-14.81 -50.31,-16.43l0 -0.03c-1.5,-0.08 -2.99,-0.12 -4.48,-0.11 -1.48,-0.01 -2.98,0.03 -4.48,0.11l0 0.03c-27.39,1.61 -50.31,16.43 -50.31,16.43 -46.12,48.42 -106.1,58.12 -136.77,59.87 -16.2,44.67 -29.45,71.56 -48.74,118z"/>
    <path class="fil23" d="M668.1 913.57c135.94,-7.59 119.16,-72.41 196.21,-74.89l0 -8.75c-82.58,0.73 -61.99,65.21 -192.63,74.19 -1.17,3.16 -2.36,6.31 -3.59,9.44z"/>
    <path class="fil1" d="M652.47 907.6c131.16,-7.79 135.97,-69.89 207.36,-75.23 72.86,5.46 76.36,70.05 215.65,75.65 -1.17,-3.11 -2.31,-6.23 -3.42,-9.36 -132.01,-6.81 -133.84,-69.09 -207.76,-74.9l0 -0.42c-1.52,0.02 -3.01,0.07 -4.48,0.14 -1.47,-0.07 -2.96,-0.12 -4.48,-0.14l0 0.42c-72.34,5.69 -75.61,65.47 -199.45,74.4 -1.11,3.16 -2.26,6.31 -3.44,9.44z"/>
   </g>
   <g>
    <g>
     <path class="fil1" d="M868.85 916.75c-68.01,4.07 -150.13,3.94 -233.94,-7.99l-23.77 68.86c0,0 102.59,33.12 257.71,20.44l0 -81.3z"/>
     <path class="fil24" d="M645.78 926.25c0,0 73.26,17.05 223.06,7.59l0 49.63c-62.54,4.72 -138.67,4.55 -218.2,-9.31l-16.08 -5.81c0,0 11.66,-42.13 11.22,-42.1z"/>
    </g>
    <g>
     <path class="fil1" d="M850.24 916.75c68.01,4.07 150.13,3.94 233.94,-7.99l21.28 74.55c0,0 -100.1,27.42 -255.22,14.75l0 -81.3z"/>
     <path class="fil24" d="M1072.24 926.25c0,0 -72.19,17.05 -222,7.59l0 49.63c62.54,4.72 138.67,4.55 218.2,-9.31l14.3 -1.19c0,0 -10.94,-46.75 -10.51,-46.72z"/>
    </g>
    <path class="fil25" d="M645.78 926.25c0,0 79.55,18.52 242.4,6.24 -106.12,28.31 -231.24,6.49 -231.24,6.49 -3.36,4.83 -21.48,30.93 -24.52,30.08 0,0 13.79,-42.84 13.35,-42.81z"/>
    <g>
     <path class="fil1" d="M899.16 897.42l-78.56 1.06c-12.89,0.17 -23.27,12.36 -23.12,27.13l0.71 69.59c0.15,14.77 10.78,26.67 23.67,26.5l78.56 -1.06c12.89,-0.17 23.27,-12.36 23.12,-27.13l-0.71 -69.59c-0.15,-14.77 -10.78,-26.67 -23.67,-26.5zm-14.53 44.18l0.36 35.25 -48.6 0.65 -0.36 -35.25 48.6 -0.65z"/>
     <path class="fil26" d="M899.28 909.32l-78.56 1.06c-7.16,0.1 -12.94,6.89 -12.86,15.09l0.71 69.59c0.08,8.2 6.01,14.83 13.16,14.74l78.56 -1.06c7.16,-0.1 12.94,-6.89 12.86,-15.09l-0.71 -69.59c-0.08,-8.2 -6.01,-14.83 -13.16,-14.74zm-4.39 20.24l-69.36 0.93 0.61 59.05 69.36 -0.93 -0.61 -59.05z"/>
     <path class="fil27" d="M808.24 961.6l0.34 33.46c0.08,8.2 6.01,14.83 13.16,14.74l78.56 -1.06c7.16,-0.1 12.94,-6.88 12.86,-15.09l-0.26 -25.55c-4.4,0.47 -10.42,0.96 -17.6,1.28l0.2 19.23 -69.36 0.93 -0.25 -24.14c-5.92,-1.04 -11.83,-2.3 -17.65,-3.82z"/>
     <path class="fil28" d="M899.28 909.32l-78.56 1.06c-5.43,0.07 -10.07,4 -11.95,9.47 2.23,-2.16 5.09,-3.48 8.22,-3.52l78.56 -1.06c7.16,-0.1 13.08,6.53 13.16,14.74l0.71 69.59c0.02,1.98 -0.3,3.88 -0.91,5.62 2.87,-2.78 4.68,-6.95 4.64,-11.56l-0.71 -69.59c-0.08,-8.2 -6.01,-14.84 -13.16,-14.74zm-73.69 27.07l0.54 53.16 65.57 -0.88 4.38 0.2 -73.68 6.63 3.19 -59.11z"/>
     <circle class="fil28" transform="matrix(-0.687239 0.0448716 0.0391494 0.787689 897.973 912.246)" r="10.7"/>
     <circle class="fil28" transform="matrix(-0.687239 0.0448716 0.0391494 0.787689 842.257 990.133)" r="10.7"/>
     <rect class="fil1" transform="matrix(-0.629771 0.00741292 0.00646758 0.721821 908.267 949.059)" width="94.62" height="25.16" rx="12.45" ry="12.45"/>
    </g>
    <g>
     <path class="fil1" d="M969.52 911.65c18.36,-5.72 37.94,-9.07 56.84,-7.81 6.54,0.44 15.23,1.55 21.5,4.12l6.61 2.71 6.01 87.87 -96.09 8.32 -3.59 -92.49 8.74 -2.72z"/>
     <path class="fil22" d="M972.06 924.38l2.66 68.42 74.01 -6.41 -4.51 -65.97c0,0 -25.64,-10.52 -72.16,3.96z"/>
     <path class="fil29" d="M972.06 924.38l1.6 41.28 0.29 0.19c0.18,-1.34 4.56,-34.1 4.56,-34.1 0,0 24.25,-9.21 56.49,-4.64l10.93 18.5 -1.72 -25.19c0,0 -25.64,-10.52 -72.16,3.96z"/>
     <path class="fil23" d="M976.45 959.69l1.53 28.03 66.24 -4.02 -1.63 -27.22c0,0 -24.79,16.81 -66.14,3.22z"/>
     <g>
      <circle class="fil30" transform="matrix(0.715584 0.125754 -0.107284 0.801989 1010.03 953.06)" r="25.34"/>
      <circle class="fil26" transform="matrix(0.463019 0.0813694 -0.0694183 0.518927 1010.03 953.06)" r="25.34"/>
      <path class="fil31" d="M1017.56 946.25c1.66,2.31 2.49,5.35 2.07,8.5 -0.8,5.94 -5.74,10.01 -11.04,9.07 -4.28,-0.75 -7.49,-4.54 -8.14,-9.09 1.47,2.05 3.6,3.51 6.09,3.95 5.3,0.93 10.25,-3.13 11.04,-9.07 0.15,-1.14 0.14,-2.27 -0.02,-3.36z"/>
      <circle class="fil28" transform="matrix(0.116096 0.176296 -0.202076 0.166798 1007.68 947.866)" r="25.34"/>
     </g>
    </g>
    <g>
     <path class="fil1" d="M759.63 913.25c-18.36,-5.72 -37.94,-9.07 -56.84,-7.81 -6.54,0.44 -15.24,1.55 -21.5,4.12l-6.61 2.71 -6.01 87.87 96.09 8.32 3.59 -92.49 -8.74 -2.72z"/>
     <path class="fil22" d="M757.09 925.98l-2.66 68.42 -74.01 -6.41 4.51 -65.97c0,0 25.64,-10.52 72.16,3.96z"/>
     <path class="fil29" d="M757.09 925.98l-1.6 41.28 -0.29 0.19c-0.18,-1.34 -4.56,-34.1 -4.56,-34.1 0,0 -24.25,-9.21 -56.49,-4.64l-10.93 18.5 1.72 -25.19c0,0 25.64,-10.52 72.16,3.96z"/>
     <path class="fil23" d="M752.7 961.3l-1.53 28.03 -66.24 -4.03 1.63 -27.22c0,0 24.79,16.81 66.14,3.22z"/>
     <g>
      <circle class="fil1" transform="matrix(-0.715584 0.125754 0.107284 0.801989 719.124 954.664)" r="25.34"/>
      <circle class="fil26" transform="matrix(-0.463019 0.0813694 0.0694183 0.518927 719.124 954.664)" r="25.34"/>
      <path class="fil31" d="M711.59 947.85c-1.66,2.31 -2.49,5.35 -2.07,8.5 0.8,5.94 5.74,10.01 11.04,9.07 4.28,-0.75 7.49,-4.54 8.14,-9.09 -1.47,2.05 -3.6,3.52 -6.09,3.95 -5.3,0.93 -10.25,-3.13 -11.04,-9.07 -0.15,-1.14 -0.14,-2.27 0.02,-3.36z"/>
      <circle class="fil28" transform="matrix(-0.116096 0.176296 0.202076 0.166798 721.473 949.47)" r="25.34"/>
     </g>
    </g>
   </g>
  </g>
 </g>
</svg>
