<?xml version="1.0" encoding="UTF-8"?>
<!DOCTYPE svg PUBLIC "-//W3C//DTD SVG 1.1//EN" "http://www.w3.org/Graphics/SVG/1.1/DTD/svg11.dtd">
<!-- Creator: CorelDRAW 2020 (64-Bit) -->
<svg xmlns="http://www.w3.org/2000/svg" xml:space="preserve" width="129.436mm" height="197.988mm" version="1.1" style="shape-rendering:geometricPrecision; text-rendering:geometricPrecision; image-rendering:optimizeQuality; fill-rule:evenodd; clip-rule:evenodd"
viewBox="0 0 1433.6 2192.87"
 xmlns:xlink="http://www.w3.org/1999/xlink"
 xmlns:xodm="http://www.corel.com/coreldraw/odm/2003">
 <defs>
  <style type="text/css">
   <![CDATA[
    .fil0 {fill:none}
    .fil1 {fill:#501D33}
    .fil18 {fill:#5F6C99}
    .fil11 {fill:#703D43}
    .fil6 {fill:#784258}
    .fil8 {fill:#7E8AAE}
    .fil10 {fill:#845451}
    .fil14 {fill:#965F54}
    .fil16 {fill:#9893A0}
    .fil5 {fill:#9A6C73}
    .fil7 {fill:#AD8489}
    .fil12 {fill:#AF8777}
    .fil13 {fill:#BE986E}
    .fil15 {fill:#C7C0C9}
    .fil3 {fill:#D77D75}
    .fil9 {fill:#FFC57B}
    .fil2 {fill:#FFCFA5}
    .fil4 {fill:#FFE0B3}
    .fil17 {fill:white}
   ]]>
  </style>
 </defs>
 <g id="Слой_x0020_1">
  <metadata id="CorelCorpID_0Corel-Layer"/>
  <rect id="_166536576" class="fil0" width="1433.6" height="2192.87"/>
  <g id="_994181904">
   <ellipse class="fil1" cx="763.58" cy="1823.38" rx="528.14" ry="30.14"/>
   <path class="fil1" d="M540.1 1260.97c0,0 -65.06,128.35 -67.4,145.94 -2.34,17.58 -15.82,43.96 66.23,306.53l103.15 -4.69c0,0 39.85,-255.54 49.23,-307.11 9.38,-51.58 -41.03,-147.69 -41.03,-147.69 0,0 -105.5,-8.21 -110.18,7.03z"/>
   <path class="fil1" d="M769.26 1255.69c0,0 -7.32,39.56 5.57,64.18 12.89,24.61 129.82,309.17 153.26,383.01l93.78 0c0,0 43.37,-216.85 7.03,-307.11 -36.34,-90.26 -130.99,-150.63 -130.99,-150.63 0,0 -112.24,-33.99 -128.65,10.55z"/>
   <path class="fil1" d="M520.78 271.65c0,0 24.62,37.51 -15.24,187.55 0,0 0.59,36.92 35.75,75.02 92.66,219.64 -104.51,321.07 -95.02,507.56 3.16,62.11 23.73,145.02 89.16,228.57l117.21 1.17 62.84 -271.7 53.46 278.14 131.28 -6.44c65.42,-83.55 82.48,-167.63 85.64,-229.74 9.49,-186.49 -187.68,-287.91 -95.02,-507.56 35.17,-38.1 35.75,-75.02 35.75,-75.02 -39.85,-150.04 -17.58,-178.76 -17.58,-178.76 -125.81,-104.11 -246.55,-128.13 -388.22,-8.79z"/>
   <path class="fil2" d="M555.1 1272.87l85.01 2.11 -0.84 -20.2 63.17 -260.09 13.23 -39.21 14.03 43.04 54.18 258.34 104.46 -2.9c46.85,-61.98 76.94,-134.92 80.91,-213.03 2.26,-44.41 -8.03,-84.85 -24.94,-125.56 -9.23,-22.21 -20.04,-43.74 -30.9,-65.19 -13.47,-26.59 -27.09,-53.13 -38.26,-80.79 -33.7,-83.42 -34.92,-157.97 0.37,-241.63l1.13 -2.68 1.97 -2.13c11.8,-12.79 21.47,-27.82 27.08,-44.36 1.69,-4.99 3.62,-11.98 4.14,-17.7 -7.83,-29.7 -14.78,-60.01 -19.32,-90.38 -2.79,-18.68 -4.85,-38.17 -4.46,-57.08 0.15,-7.47 0.83,-18.15 3.15,-27.66 -48.36,-38.57 -105.59,-72.45 -168.27,-76.86 -68.24,-4.8 -128.7,26.44 -180.39,67.98 2.86,10.76 3.96,23.26 4.3,31.85 1.94,48.54 -10.24,105.3 -22.6,152.2 0.48,5.16 2.31,12.02 3.76,16.48 5.53,16.99 15.39,32.46 27.47,45.54l1.97 2.13 1.13 2.68c35.29,83.66 34.07,158.21 0.37,241.63 -11.17,27.66 -24.79,54.2 -38.26,80.79 -30.81,60.78 -59.42,120.5 -55.85,190.75 3.97,78.05 45.44,169.98 92.24,231.93z"/>
   <path class="fil3" d="M555.1 1272.87l19.81 0.49c-0.12,-0.15 -93.77,-123.74 -78.54,-247.92 15.24,-124.25 56.26,-181.69 56.26,-181.69 0,0 -8.72,-8.57 -20.76,-19.68 -4.35,8.73 -8.77,17.42 -13.17,26.11 -30.81,60.78 -59.42,120.5 -55.85,190.75 3.97,78.05 45.44,169.98 92.24,231.93z"/>
   <path class="fil3" d="M871.68 1254.43l16.67 -0.46c46.85,-61.98 76.94,-134.92 80.91,-213.03 2.26,-44.41 -8.03,-84.85 -24.94,-125.56 -9.23,-22.21 -20.04,-43.74 -30.9,-65.19 -9.67,-19.09 -19.42,-38.15 -28.28,-57.63 -6.63,11.34 -9.48,25.23 -0.92,40.23 24.86,43.58 40.87,110.55 39.49,189.14 -1.48,84.5 -21.4,179.1 -52.02,232.5z"/>
   <path class="fil2" d="M783.38 1253.69c-0.53,16.71 -3.18,38.68 4.11,52.61 12.7,24.25 25.99,63.95 37.48,91.1 17.27,40.82 34.21,81.8 50.88,122.87 13.87,34.18 27.59,68.44 40.87,102.85 8,20.75 16.24,41.94 23.4,63.14l67.99 0c2.39,-13.18 4.46,-26.5 6.41,-39.66 5.65,-38.26 9.93,-77.1 11.61,-115.74 1.66,-38.08 1.7,-93.24 -12.65,-128.9 -15.73,-39.08 -44.57,-73.55 -75.81,-101.33 -14.29,-12.71 -36.85,-34.05 -49.72,-46.55 -18.19,-3.68 -10.94,-72.22 -29.06,-71.74 -11.5,0.3 -68.6,59.08 -75.52,71.34z"/>
   <path class="fil3" d="M980.57 1686.27l27.54 0c2.39,-13.18 4.46,-26.5 6.41,-39.66 5.65,-38.26 9.93,-77.1 11.61,-115.74 1.66,-38.08 1.7,-93.24 -12.65,-128.9 -15.73,-39.08 -44.57,-73.55 -75.81,-101.33 -14.29,-12.71 -36.85,-34.05 -49.72,-46.55 -4.46,-0.9 -7.39,-5.71 -9.54,-12.43 -5.62,11.51 -11.66,21.62 -18.07,29.95 0,0 164.69,111.94 127.18,352.24 -3.72,23.82 -5.94,44.46 -6.96,62.42z"/>
   <path class="fil4" d="M765.96 1116.88c12.07,60.42 28.97,126.76 45.17,128.35 13.51,1.32 33.9,-31.41 42.55,-70.25 33.89,-152.24 -127.95,-259.52 -87.71,-58.1z"/>
   <path class="fil4" d="M664.94 1120.98c-12.07,60.42 -28.97,126.76 -45.17,128.35 -13.51,1.32 -33.9,-31.41 -42.55,-70.25 -33.89,-152.24 127.95,-259.52 87.71,-58.1z"/>
   <path class="fil3" d="M657.01 1181.75l35.7 -146.99c-18.12,-20.94 -33.31,-35.6 -33.31,-35.6 0,0 -135.05,44.51 -186.81,103.1 6.58,25.89 16.07,52.05 27.46,77.12 35.67,2.64 93.64,5.41 156.96,2.38z"/>
   <path class="fil3" d="M754.33 1115.96l12.46 59.43c22.64,1.23 91.03,3.95 169.89,-2.38 18.71,-41.41 30.22,-85.84 32.57,-132.07 0.53,-10.38 0.37,-20.54 -0.4,-30.54 -13.05,-12.99 -22.47,-21.28 -22.47,-21.28 0,0 -155.53,59.4 -192.06,126.84z"/>
   <path class="fil5" d="M664.02 1152.88l38.43 -158.2 13.23 -39.21 14.03 43.04 32.98 157.24c36.03,0.15 121.59,-1.23 187.21,-15.92 10.92,-31.66 17.64,-64.79 19.37,-98.9 2.26,-44.41 -8.03,-84.85 -24.94,-125.56 -9.23,-22.21 -20.04,-43.74 -30.9,-65.19 -13.47,-26.59 -27.09,-53.13 -38.26,-80.79 -23.24,-57.53 -31.03,-110.85 -22.05,-165.84 -119.83,-31.14 -239.4,-58.85 -290.34,-60.29 28.85,77.46 25.81,147.9 -5.79,226.13 -11.17,27.66 -24.79,54.2 -38.26,80.79 -30.81,60.78 -59.42,120.5 -55.85,190.75 1.81,35.51 11.38,73.9 25.68,111.03 49.75,8.02 110.4,11.4 175.47,0.92z"/>
   <path class="fil6" d="M531.89 824.08c-4.35,8.73 -8.77,17.42 -13.17,26.11 -30.81,60.78 -59.42,120.5 -55.85,190.75 1.81,35.51 11.38,73.9 25.68,111.03 8.03,1.29 16.35,2.47 24.92,3.48 -13.66,-39.25 -22.66,-84.58 -17.09,-130 15.24,-124.25 56.26,-181.69 56.26,-181.69 0,0 -8.72,-8.57 -20.76,-19.68z"/>
   <path class="fil6" d="M909.22 1147.07c13.98,-1.95 27.71,-4.33 40.67,-7.23 10.92,-31.66 17.64,-64.79 19.37,-98.9 2.26,-44.41 -8.03,-84.85 -24.94,-125.56 -9.23,-22.21 -20.04,-43.74 -30.9,-65.19 -9.67,-19.09 -19.42,-38.15 -28.28,-57.63 -6.63,11.34 -9.48,25.23 -0.92,40.23 24.86,43.58 40.87,110.55 39.49,189.14 -0.73,41.3 -5.85,85.01 -14.48,125.14z"/>
   <path class="fil7" d="M774.31 1155.75c20.77,-0.12 50.74,-0.8 83.01,-3.23 14.55,-139.73 -129.59,-227 -91.36,-35.64 2.58,12.92 5.38,26.1 8.35,38.87z"/>
   <path class="fil7" d="M656.59 1159.85c-20.77,-0.12 -50.74,-0.8 -83.01,-3.23 -14.55,-139.73 129.59,-227 91.36,-35.64 -2.58,12.92 -5.38,26.1 -8.35,38.87z"/>
   <path class="fil6" d="M913.87 851.08l-0.46 -0.9c-11.16,-22.03 -22.42,-44.03 -32.31,-66.65 -38.13,-17.3 -78.73,-34.46 -89.78,-34.46 -22.27,0 -145.94,-16.41 -168.8,-6.45 -9.07,3.95 -34.45,4.41 -59.45,10.75 -1.9,5.31 -3.93,10.64 -6.1,16.02 -11.17,27.66 -24.79,54.2 -38.26,80.79 -1.44,2.83 -2.87,5.66 -4.29,8.49 105.98,64.05 289.89,58.65 399.45,-7.59z"/>
   <path class="fil1" d="M679.24 1141.92c-2.42,6.28 -0.67,11.17 -3.54,17.58 -22.39,5.05 -81.32,14.16 -214.54,-3.23l-1.66 -16.38c48.38,9 165.31,17.8 219.74,2.03z"/>
   <path class="fil8" d="M904.67 832.91c-10.51,-20.86 -20.76,-41.85 -29.52,-63.52 -33.7,-83.42 -34.92,-157.97 0.37,-241.63l1.13 -2.68 1.97 -2.13c11.8,-12.79 21.47,-27.82 27.08,-44.36 1.69,-4.99 3.62,-11.98 4.14,-17.7 -7.83,-29.7 -14.78,-60.01 -19.32,-90.38 -2.79,-18.68 -4.85,-38.17 -4.46,-57.08 0.15,-7.47 0.83,-18.15 3.15,-27.66 -48.36,-38.57 -105.59,-72.45 -168.27,-76.86 -68.24,-4.8 -128.7,26.44 -180.39,67.98 2.86,10.76 3.96,23.26 4.3,31.85 1.94,48.54 -10.24,105.3 -22.6,152.2 0.48,5.16 2.31,12.02 3.76,16.48 5.53,16.99 15.39,32.46 27.47,45.54l1.97 2.13 1.13 2.68c35.29,83.66 34.07,158.21 0.37,241.63 -9.68,23.98 -21.2,47.11 -32.88,70.17 63.88,23.51 217.24,64.32 380.57,-6.65z"/>
   <path class="fil9" d="M813.25 434.84c-0.01,-0.09 0.11,-0.25 0.13,-0.21l0.81 -2.46c0.3,-0.89 0.6,-1.75 0.87,-2.65 0.56,-1.85 1.1,-3.35 1.67,-5.37 2.42,-8.65 5.82,-27.06 5.58,-36.44 -0.14,-5.54 0.12,-7.93 -0.17,-13.91 -0.45,-9.2 -0.91,-16.42 3.97,-23.9 0.77,-1.18 2.15,-2.99 3.26,-3.92 7.44,-6.18 15.67,1.15 16.02,8.13 0.24,4.88 -7.15,8.52 -4.87,14.05 1.48,3.61 5.75,2.97 8.56,1.57 1.26,-0.63 1.81,-1.6 3.18,-1.78 0.82,2.55 10.06,8.5 12.6,5.03 2.87,-3.93 -7.52,-6.55 -7.75,-11.2 -0.12,-2.38 0.85,-3.69 0.56,-9.56 -0.33,-6.66 -6.04,-13.55 -11.4,-16.96 -3.82,-2.43 -8.26,-3.46 -13.3,-3.21 -0.05,-2.02 0.58,-4.24 0.69,-6.25 0.14,-2.71 0.01,-4.47 -0.31,-6.9 -1.19,-9.2 -9.36,-11.48 -11.69,-2.49 -0.71,2.73 -0.16,6.73 -0.5,9.61 -0.54,4.49 -1.78,7.82 -3.21,11.83 -0.38,1.07 -1.13,3 -2.05,3.3 -0.23,-1.77 -3.92,-8.13 -4.86,-9.81 -1.69,-3.02 -4,-6.01 -6.1,-8.72 -1.08,-1.39 -2.24,-2.44 -3.42,-3.81 -2.12,-2.45 -6.71,-6.44 -9.51,-8.48 -0.83,-0.6 -1.4,-1.12 -2.18,-1.66 -7.5,-5.25 -15.59,-8.57 -24.9,-10.73 -3.64,-0.85 -7.5,-1.31 -10.04,-4.1 -2.78,-3.04 -2.69,-13.34 0.32,-16.77 6.96,-7.9 16.69,-3.8 22.11,3.66 2.8,3.86 5.31,11.55 11.16,11.26 1.87,-0.09 2.72,-2.38 2.63,-4.25 -0.29,-5.95 -3.67,-11.19 -7.19,-15.37 -4.82,-5.72 -11.27,-9.75 -19.28,-9.35l-4.37 0.21c-0.24,-4.82 -3.34,-9.86 -7.53,-11.75 -2.3,-1.04 -4.84,-1.38 -7.78,-0.9 -5.78,0.93 -8.57,5.17 -1.39,6.41 4,0.69 8.19,-0.27 9.28,4.69 0.87,3.93 -5.77,8.84 -7.82,13.04 -3.47,7.1 -3.64,12.32 -1.52,19.74 -7.7,-0.09 -13.65,0.48 -21,2.58 -1.87,-3.45 -1.87,-11.91 4.35,-13.99 11.55,-3.87 8.05,-10.59 1.42,-10.26 -8.61,0.42 -9.54,3.89 -12.14,4.72 -1.84,-1.1 -3.51,-2.35 -5.59,-3.04 -2.19,-0.73 -5.42,-0.93 -6.97,0.75 -1.89,2.05 1.33,3.94 2.81,4.66 1.86,0.92 5.04,1.28 5.17,3.78 0.15,3.01 -0.77,5.26 -0.62,8.27 0.34,6.98 1.32,6.17 1.75,9.45 -1.67,0.48 -6.85,4.72 -7.24,4.74 -0.72,0.04 -4.59,-1.51 -5.42,-1.88 -8.06,-3.55 -16.84,-8.63 -21.35,-16.55 -5.08,-8.95 -5.52,-18.09 1.46,-25.87 4.84,-5.39 11.88,-7.14 19.55,-5.99 2.01,0.3 3.9,0.65 6.14,0.54 7.68,-0.38 7.99,-9.06 -6.2,-10.78 -9.68,-1.17 -21.06,1.9 -27.58,9.16 -5.6,6.24 -8.16,13.47 -7.72,22.48 -3.49,0.17 -9.57,1.03 -10.81,-2.71 -0.84,-2.51 -0.5,-6.78 -4.34,-6.6 -1.47,0.07 -1.94,1.16 -2.39,2.26 -0.97,2.36 -0.69,5.28 0.4,7.53 0.59,1.21 1.22,1.59 1.58,2.86 -7.98,4.74 -8.93,16.93 -3.3,16.66 3.95,-0.19 4.92,-2.31 6.82,-5.12 2.45,-3.64 3.97,-4.69 8.41,-4.9 3.78,-0.19 6.03,1.11 7.75,3.91 2.3,3.76 3.83,6.07 6.87,9.22 0.53,0.54 0.43,0.62 0.99,1.08 5.77,4.74 11.29,8.69 18.38,11.43 0.97,0.38 1.77,0.94 2.89,1.14 -2.57,5.49 -4.14,5.31 -7.21,15.08 -2.74,8.71 -5.95,18.95 -14.25,23.43 -6.68,3.6 -17.63,2.76 -24.17,-1.17 -10.28,-6.18 -15.35,-20.45 -9.88,-28.95 1.38,-2.14 5.33,-5.33 8.37,-3.53 1.73,1.02 2.95,3.13 3.06,5.3 0.17,3.45 -4.96,5.28 -4.07,8.57 1.13,4.15 11.77,1.21 11.19,-10.47l2.79 2.07c1.93,1.26 4.74,2.39 6.5,0.2 1.78,-2.22 0.03,-5.2 -0.26,-7.36 9.95,-7.4 4.32,-14.51 -1,-8.52 -3.66,4.12 -5.22,1.97 -9.72,0.02 -6.17,-2.67 -15.07,-0.52 -19.81,2.94 -1.88,1.37 -2.65,2.21 -4.15,3.86 -4.36,4.81 -6.85,10.21 -5.73,17.57 1.35,8.82 4.55,16.43 11.04,22.24 3.86,3.46 7.52,5.46 12.29,7.58 0.9,0.4 2.03,0.72 2.86,1.18 2.34,1.31 0.96,3.43 -0.64,4.76 -1.95,1.61 -3.02,1.91 -6.19,2.25 -4.4,0.48 -7.44,4.13 -2.19,5.93 5.57,1.92 8.43,-0.5 10.92,-1.21 0.51,1.79 2.91,4.43 4.39,5.46 2.19,1.52 7.02,4.35 9.93,1.62 2.27,-2.12 -0.42,-6.16 -1.72,-7.71 -2.36,-2.81 -6.45,-4.8 0.49,-9.12 5.55,-3.46 11.76,-5.07 17.41,-9.28 1.31,4.6 1.25,10.05 3.5,15.65 0.75,1.87 2.08,3.43 2.17,5.2 0.09,1.83 -5.48,3.79 -5.31,7.22 0.17,3.45 6.08,2.23 8.8,-0.14 1.16,-1 2.8,-2.65 3.1,-4.32 1.61,0.05 8.66,3.4 14.92,-0.23 5.09,-2.95 2.78,-7.03 -2.16,-8.17 -6.34,-1.47 -9.12,2.36 -11.55,-7.31 -3.58,-14.29 -1.71,-32.85 7.22,-44.17 1.53,-1.93 3.11,-3.7 5.02,-5.28l4.6 -3.2c0.67,-0.36 1.11,-0.57 1.71,-0.91 5.94,-3.34 14.21,-4.31 21.68,-4.67 5.31,-0.26 10.67,0.59 15.12,1.47 8.8,1.75 17.01,4.51 24.36,9.43 5.18,3.46 7.19,5.53 11.72,9.83 2.18,2.07 4.3,4.82 5.84,7.38 2.49,4.14 4.16,6.63 6.14,11.39 9.47,22.77 7.46,48.66 0.86,71.08l-6.27 17.65c-0.63,1.43 -1.18,2.68 -1.78,4.04 -0.67,1.52 -1.23,2.58 -2.01,4.07l-2.18 3.92c-1.47,2.46 -2.99,4.98 -4.78,7.21l-8.93 9.59c-2.13,1.94 -4.58,3.61 -6.98,5.22 -2.48,1.66 -5.23,3.14 -8.09,4.46 -18.87,8.68 -48.96,12.08 -70.84,8.02l-8.22 -1.77c-2.66,-0.61 -5.23,-1.52 -7.67,-2.38 -7.16,-2.53 -13.94,-6.2 -20.33,-10.09l-14.93 -10.63c-0.55,-0.42 -0.83,-0.78 -1.36,-1.21 -0.62,-0.49 -0.84,-0.53 -1.47,-1.08l-11.03 -9.51c-1.86,-1.69 -3.53,-3.2 -5.4,-4.89l-2.58 -2.58c-0.84,-0.87 -1.78,-1.62 -2.69,-2.45 -1.94,-1.75 -3.47,-3.4 -5.41,-5.14 -1.03,-0.93 -1.57,-1.68 -2.57,-2.58 -0.96,-0.86 -1.84,-1.56 -2.64,-2.51l-15.63 -15.27c-1.86,-1.69 -3.53,-3.2 -5.39,-4.89l-17.52 -13.47c-8.34,-5.67 -17.24,-10.2 -26.68,-13.92 -0.59,-0.23 -1.19,-0.45 -1.79,-0.65 -0.57,3.86 -1.19,7.72 -1.85,11.57 0.67,0.24 1.3,0.49 1.93,0.72 7.03,2.51 13.74,5.88 20.04,9.87 6.98,4.43 13.26,9.7 19.37,15.21 3.06,2.75 5.74,5.99 8.8,8.72l2.04 2.09c0.42,0.41 0.67,0.57 1.06,1l22.81 23.08c3.14,2.81 6.06,5.47 9.17,8.31 0.91,0.83 1.29,1.09 2.27,1.83l7.13 5.95c3.05,2.75 6.7,4.94 10.01,7.38 3.27,2.41 6.87,4.73 10.44,6.63 3.76,2.01 7.5,4.12 11.37,5.88 8.43,3.81 17.15,5.87 26.35,7.51 4.79,0.85 10.19,1.22 15.11,1.48 4.2,0.22 17.09,0.53 21.48,-0.35 1.66,-0.34 3.3,-0.16 4.95,-0.43 3,-0.49 6.28,-0.76 9.36,-1.34 28.22,-5.35 41.01,-12.92 62.25,-31.27 4.81,-4.16 17.39,-16.58 20.26,-20.69 1.85,-2.66 4.87,-5.46 6.88,-8.26l25.25 -30.91 6.24 -6.62c0.58,-0.63 0.76,-0.69 1.35,-1.23 2.61,-2.42 5.11,-5.05 7.88,-7.34 1.97,-1.62 3.76,-3.1 5.77,-4.59 0.98,-0.72 2,-1.53 3,-2.2 1.08,-0.72 1.99,-1.31 3.12,-2.08 2.14,-1.45 4.32,-2.79 6.52,-4.02l-0.23 -1.52c-0.51,-3.41 -1,-6.85 -1.45,-10.31 -7.69,3.78 -14.83,8.39 -21.61,13.91 -1.17,0.96 -2.27,1.82 -3.39,2.82 -3.6,3.2 -7.85,6.58 -11.07,10.1 -0.54,0.59 -0.89,1.07 -1.49,1.6 -3.4,3 -8.64,9.34 -11.6,12.58 -1.05,1.15 -1.63,2.09 -2.68,3.22l-11.99 15.16c-0.48,0.63 -0.88,1.15 -1.32,1.75l-10.68 13.49zm-280.89 57.91c3.42,-1.61 6.69,-3.51 9.8,-5.73 1.43,-1.02 2.59,-1.99 3.97,-3.03 9.33,-7.05 14.78,-18.29 19.28,-21.08 4.04,-2.5 9.33,-3.21 14.35,-3.46 4.24,-0.21 8.57,1.14 11.89,3.13 9.31,5.59 19.24,22.13 0.99,23.03 -7.98,0.39 -7.15,-5.37 -11.56,-9.2 -4.35,-3.78 -9.33,-1.59 -9.03,4.54 0.06,1.3 0.33,1.39 0.4,2.81 -9.08,0.45 -14.41,9.47 -7.8,9.15 1.18,-0.06 2.99,-0.71 3.88,-1.15 8.9,-4.36 9.32,2.61 16.99,4.13 9.03,1.79 18.43,0.37 24.63,-6.45 0.89,-0.98 2.78,-3.29 3.06,-4.6 2.41,0.52 9.67,7.51 17.62,7.12 2.19,-0.11 5.08,-1.53 4.98,-3.6 -0.1,-2.09 -0.84,-3.58 -2.36,-4.98 -1.17,-1.07 -2.2,-1.79 -3.67,-2.46 -5.51,-2.51 -8.08,-4.43 -12.47,-8.46l-9.9 -11.56c-0.46,-0.56 -0.88,-1.13 -1.44,-1.67l-4.87 -4.38c-7.08,-5.46 -17.28,-6.7 -26.26,-6.26 -2.13,0.11 -3.35,0.53 -5.12,0.77 0.56,-3.08 2.11,-10.31 -2.42,-11.44 -0.98,-0.25 -1.86,-0.02 -2.92,0.46 -1.1,0.5 -1.54,1.24 -2.6,1.58 -1.28,-4.5 -3.39,-8.4 -6.42,-11.34l-3.1 -2.81c-0.76,-0.65 -1.35,-1.06 -2.23,-1.6 -0.95,-0.59 -1.61,-1.05 -2.5,-1.58 -3.19,-1.9 -6.76,-3.59 -9.74,-5.78 -1.71,-1.25 -3.06,-2.45 -4.08,-3.87 -0.9,4.3 -1.84,8.57 -2.8,12.81 3.14,0.44 5.96,1.46 8.77,3.34 3.3,2.2 6.12,4.8 8.16,8.35 4.68,8.17 3.76,18.57 0.09,26.29 -3.47,7.3 -8.89,12.92 -16,16.94 -1.27,0.72 -2.61,1.39 -4.02,2.01 1.32,3.41 2.8,6.76 4.45,10.04zm-9.74 -29.04c0.97,-1.43 1.01,-2.87 -0.05,-3.95l-0.31 1.18c0.08,0.88 0.2,1.81 0.36,2.77zm387.19 -2.48c-2.54,-1.28 -4.97,-2.78 -7.35,-4.5 -11.03,-7.97 -18.05,-25.72 -9.25,-39.89 1.12,-1.8 2.81,-3.63 4.81,-5.23 -0.71,-3.33 -1.39,-6.66 -2.05,-10 -1.92,1.4 -3.95,2.68 -5.81,4.11 -4.61,3.57 -8.49,7.17 -10.77,12.59 -0.57,1.36 -1.62,4.49 -1.67,6.1 -1.92,-0.35 -2.62,-1.68 -5.49,-1.54 -2.87,0.14 -2.89,4.1 -2.78,6.32 0.1,2.08 0.89,3.29 1.02,5.1l-8.75 0.17c-3.5,0.17 -7.77,1.09 -10.43,2.09 -20.34,7.68 -18.51,23.11 -33.8,33.22 -3.18,2.1 -9.19,4.91 -8.96,9.57 0.14,2.9 3.44,3.44 5.83,3.32 4.07,-0.2 8.08,-2.34 10.86,-4.4 0.63,-0.47 1.17,-0.76 1.85,-1.27 0.66,-0.5 1.07,-0.88 1.7,-1.4 0.64,-0.53 1.1,-1.03 1.66,-1.44 1.92,1.27 1.66,3.93 7.94,7.23 6.54,3.44 18.31,3.66 24.75,-0.7 2.46,-1.67 4.62,-5.02 7.84,-5.18 3.12,-0.15 5.96,2.03 8.85,1.88 7.59,-0.37 -0.45,-8.56 -8.4,-8.35 -0.17,-3.49 0.03,-7.92 -4.04,-8.85 -2.4,-0.55 -4.86,1.47 -5.94,3 -4.29,6.12 -2.05,9.27 -11.48,9.74 -4.29,0.21 -8.65,-1.99 -9.3,-5.74 -0.7,-4.08 1.33,-7.89 3.43,-11.12 4.14,-6.39 10.96,-10.18 21.27,-10.69 13.16,-0.65 14.43,6.11 21.15,12.17 4.22,3.81 8.5,7.19 13.27,10.29 0.72,0.47 1.36,0.76 2.1,1.21 1.81,1.1 3.76,2.1 5.81,3.02 0.96,-3.58 1.78,-7.41 2.13,-10.82zm-22.73 -119.49c-0.35,-4.18 -0.63,-8.36 -0.81,-12.54 -8.33,-3.84 -16.2,-9.09 -23.31,-14.81l-8.34 -7.06c-1.82,-1.65 -3.44,-3.12 -5.26,-4.76 -0.5,-0.45 -0.88,-0.76 -1.35,-1.22l-6.36 -6.26c-3.55,-3.18 -6.85,-6.78 -10.17,-10.19l-10.24 -10.11c-3.16,-3.7 -20.09,-18.65 -24.15,-21.6l-8.67 -6.43c-1.1,-0.76 -2.01,-1.29 -3.08,-2.02 -3.06,-2.09 -6.21,-3.71 -9.41,-5.61 -2.17,-1.28 -4.52,-2.24 -6.79,-3.35 -3.43,-1.67 -6.92,-3.04 -10.59,-4.31 -12.87,-4.45 -31.46,-7.37 -46.01,-5.87 -1.14,0.12 -1.23,0.31 -2.55,0.4 -2.16,0.14 -3.28,-0.11 -5.42,-0 -4.49,0.22 -9.04,0.86 -13.09,1.4 -13.19,1.76 -26.19,6.32 -37.66,12.78 -1.64,0.93 -2.81,1.71 -4.42,2.62 -3.01,1.71 -5.69,3.86 -8.56,5.75 -4.84,3.17 -11.34,8.89 -15.36,12.85 -3.49,3.43 -7.15,6.79 -10.43,10.44l-9.89 11.18c-0.56,0.62 -1.08,1.12 -1.59,1.76 -0.64,0.81 -0.83,1.2 -1.58,2.01 -3.35,3.64 -9.05,11.02 -12.65,15.31 -2.15,2.56 -4.05,5.33 -6.31,7.79 -0.56,0.61 -1.08,1.12 -1.59,1.75l-4.77 5.75c-2.88,4 -13.78,14.63 -17.39,17.89 -4.83,4.36 -9.94,8.36 -15.43,11.7 -0.33,3.91 -0.72,7.85 -1.16,11.79l0.5 -0.25c1.52,-0.77 2.67,-1.47 4.11,-2.17 4.09,-1.99 7.48,-4.33 11.19,-6.8 6.53,-4.36 12.37,-9.5 18.2,-14.7l4.66 -4.38c1,-1.02 1.79,-2.14 2.82,-3.09 3.08,-2.84 5.62,-6.23 8.42,-9.32l2.67 -3.23c4.4,-4.79 8.93,-11.64 12.96,-16.75l10.36 -13.45 -3.72 12.84c-2.41,8.54 -4.24,19.24 -4.57,28.27 -0.09,2.42 -0.36,5.26 -0.38,7.76 -0.01,2.28 0.12,5.99 -0.06,8.05 -0.64,7.4 1.89,16.1 -1.24,23.19 -2.83,6.41 -9.31,15.12 -17.06,8.79 -2.58,-2.11 -4.39,-4.78 -4.58,-8.5 -0.21,-4.35 5.36,-6.38 5.02,-13.13 -0.04,-0.89 -0.9,-2.09 -1.39,-2.54 -1.92,-1.76 -5,-0.9 -6.98,0.11 -1.13,0.57 -2.28,1.62 -3.51,1.98 -0.28,-0.88 -0.24,-0.58 -0.89,-1.19 -2.65,-2.5 -5.23,-5.21 -9.47,-5 -3.97,0.2 -3.77,3.72 1.5,7.29 9.03,6.1 -1.27,9.38 5.87,21.99 4.19,7.4 11.66,13.34 20.73,12.89 0.97,-0.05 0.48,-0.19 1.53,-0.33 -0.05,1.44 -0.46,2.75 -0.64,4.33l-0.09 7.04c0.48,9.73 8.98,14.76 11.93,4.67 1.39,-4.74 -0.89,-8.49 2.36,-18 0.46,-1.36 0.96,-2.28 1.44,-3.6 0.48,-1.3 1.3,-2.38 1.55,-3.76 0.04,0.05 0.09,0.07 0.1,0.16l2.85 5.8c2.88,5.49 6.63,11.63 10.96,16.09 2.16,2.23 4.23,4.51 6.62,6.51 4.53,3.8 9.65,6.63 15,9.2l4.57 2.01c4.63,1.81 11.59,4.12 16.49,5.11 1.29,0.26 2.21,0.64 3.26,1.27 4.63,2.8 5.23,15.34 0.34,19.43 -2.29,1.92 -4.43,2.79 -7.85,2.96 -9.92,0.49 -13.27,-8.32 -17.67,-14.65 -4.06,-5.83 -9.62,-5.79 -9.36,-0.52 0.23,4.62 1.76,8.36 4.04,11.8 2.77,4.18 6.05,7.54 10.28,10.06 6.71,4.01 9.07,3.52 16.54,3.15 0.18,3.7 1.68,7.27 3.87,9.29 7.28,6.72 20.98,1.41 16.25,-1.94 -3.16,-2.24 -8.13,-0.45 -10.81,-2.7 -4.6,-3.87 -0.59,-7.92 2.06,-10.81 0.83,-0.9 1.7,-2.05 2.37,-3.01 2.18,-3.13 4.18,-7.98 4.31,-12.06 0.16,-5.01 -0.73,-5.93 -1.27,-9.99 5.7,-0.28 10.92,-0.55 16.17,-1.56 1.48,-0.28 3.32,-0.92 4.83,-1.03 0.99,3.47 1.69,7.02 -0.2,10.38 -2.02,3.59 -5.62,3.3 -8.71,5.37 -8.13,5.43 1.53,12.77 12.87,5.28l2.15 -1.74c1.2,0.72 2.14,1.74 3.42,2.46 2.22,1.26 9.97,2.55 9.77,-1.57 -0.25,-5.13 -9.37,-1.92 -8.45,-9.12 0.57,-4.44 1.37,-6.97 0.11,-11.49 -1.14,-4.11 -2.17,-3.09 1.46,-5.51l3.8 -2.71c1.56,-1.19 2.54,0.02 4.67,0.78 4,1.43 8.45,3.88 11.74,6.01 0.85,0.55 1.63,1.21 2.49,1.86 5.9,4.48 11.82,11.39 12.22,19.58l0.14 2.83c0.29,5.92 -3.18,11.08 -6.57,14.18 -4.85,4.43 -12.03,5.31 -18.46,4.51 -3.39,-0.43 -9.86,-1.92 -11.05,2.67 -0.32,1.25 0.12,2.22 0.87,3.14 0.74,0.91 1.33,1.41 2.36,2.01 9.94,5.82 27.29,2.19 35.08,-6.32 5.9,-6.45 8.68,-13.37 8.21,-22.76 3.82,-0.19 10.09,-1.43 11.15,3.41 0.35,1.6 0.29,2.55 0.98,3.8 2.39,4.35 6.32,1.04 6.11,-3.22 -0.19,-3.95 -0.79,-4.15 -2.68,-7.34 7.81,-4.64 9.76,-17.23 2.77,-16.89 -4.26,0.21 -5.37,4.67 -7.65,7.31 -2.23,2.58 -4.3,2.56 -7.57,2.72 -1.27,0.06 -2.33,-0.08 -3.31,-0.41 -1.83,-0.61 -2.94,-2.18 -3.93,-3.79 -0.59,-0.96 -1.07,-1.71 -1.59,-2.58 -4.18,-6.94 -14.46,-14.48 -21.92,-17.82 -0.97,-0.43 -1.66,-0.75 -2.63,-1.16 -0.75,-0.32 -2.28,-0.93 -2.98,-1.05 2.85,-4.75 3.94,-5.68 6.03,-11.49 3.53,-9.83 6.31,-22.82 16.86,-27.45 8.04,-3.52 19.52,-1.88 25.96,4 1.15,1.05 2.16,1.85 3.14,3.04 1.06,1.29 1.63,2.25 2.58,3.65 1.97,2.89 3.16,7.56 3.35,11.48 0.26,5.28 -4.19,12.32 -8.92,12.55 -3.31,0.16 -5.87,-5.35 -4.09,-8.13 1.28,-1.99 3.27,-3.28 3.14,-6 -0.22,-4.37 -8.42,-1.51 -10.34,4.63 -0.59,1.87 -0.61,3.18 -0.49,5.7 -2.7,-1.62 -3.51,-3.69 -7.39,-3.5 -1.98,0.1 -2.98,2.26 -2.88,4.26 0.09,1.82 0.83,2.85 1.24,4.32 -1.28,0.41 -2.3,1.55 -3.2,2.5l-0.48 0.55c-4.24,5.19 -0.33,10.69 4.34,5.66 1.02,-1.1 1.73,-2.64 3.75,-2.74 1.83,-0.09 4.59,1.73 6.07,2.24 3.74,1.3 5.16,1.58 9.31,1.38 4.93,-0.24 11.19,-3.79 14.39,-7.35 5.66,-6.28 6.38,-10.4 5.96,-18.91 -0.21,-4.28 -1.81,-7.98 -3.51,-11.57 -7.94,-16.74 -23.67,-17.17 -23.83,-20.32 -0.12,-2.36 3.18,-4.41 5.1,-4.96 1.19,-0.34 3.07,-0.41 4.56,-0.78 6,-1.49 3.46,-5.74 -1.79,-6.21 -3.82,-0.35 -5.03,0.71 -8.38,1.67 -2.14,-3.6 -3.32,-5.25 -7.32,-7.1 -3.74,-1.73 -8.97,-1.44 -7.77,3.94 1.23,5.51 10.5,7.35 2.5,12.62 -0.83,0.55 -1.33,0.91 -2.25,1.41 -4.11,2.21 -8.55,3.77 -12.59,6.03 -1.13,0.63 -1.24,0.69 -2.19,1.5 -1.16,0.98 -1.11,0.48 -1.23,-1.13 -0.32,-4.17 -1.28,-8.56 -2.75,-12.42 -1.65,-4.34 -4.71,-6.03 -0.31,-9.3 8.77,-6.52 -4.02,-10.66 -9.06,0.14 -2.08,-0.38 -9.19,-3.72 -14.84,0.06 -4.8,3.21 -3.02,7.1 2.62,8.29 5.38,1.13 11.71,-3.16 12.63,15.6 0.72,14.56 -1.58,27.53 -10.42,38.2l-2.95 2.73c-2.27,1.87 -4.08,3.01 -6.81,4.39 -17.85,8.96 -43.35,4.07 -59.71,-5.67 -0.65,-0.39 -0.93,-0.6 -1.55,-1 -4.2,-2.73 -8.1,-5.86 -11.52,-9.51l-3.74 -4.27c-3.1,-4.22 -5.61,-8.72 -7.81,-13.61 -1.99,-4.42 -4.07,-11.38 -4.98,-16.73 -3.27,-19.21 -1.68,-36.3 3.58,-55.12 2.18,-7.78 4.6,-15.57 8.27,-22.72 2.56,-4.99 5.51,-10.06 9.01,-14.43 15.96,-19.95 39.26,-27.38 65.65,-28.68 18.03,-0.89 31.54,0.77 44.53,5.61 12.04,4.48 22.64,11.08 32.98,18.62l40.77 37.13c0.6,0.54 1.04,0.91 1.62,1.46l5.07 4.97c2.29,2.72 10.38,9.51 13.56,12.41 5.99,5.44 15.46,12.5 22.3,16.59 5.64,3.37 11.14,6.14 16.78,8.34zm0.01 -43.72c0.43,-3.64 1.02,-7.37 1.83,-10.96 -0.81,-0.78 -1.59,-1.62 -2.33,-2.53 -0.53,-0.65 -1.02,-1.32 -1.47,-2 -10.02,-7.85 -20.4,-15.47 -31.12,-22.65 -0.53,0.04 -1.08,0.07 -1.63,0.1 -8.49,0.42 -19.45,-7.16 -22.17,-14.91 -10.53,-6.05 -21.33,-11.57 -32.4,-16.39 -1.98,1.64 -1.97,4.37 0.59,6.84 1.23,1.19 2.02,1.71 3.59,2.54 2.75,1.46 5.35,2.53 7.92,4.27l3.4 2.76c3.77,3.44 6.73,7.55 10,11.46 6.31,7.55 10.25,10.42 20.37,13.29 3.32,0.94 8.04,1.25 12.07,1.05 2.66,-0.13 4.6,-0.74 6.92,-0.86 -1.4,3.34 -2.15,16.45 7.67,9.16 0.76,2.66 3.86,8.75 5.49,10.48l4.17 3.8c2.08,1.68 4.59,3.12 7.13,4.56zm-291.18 -58.71c-4.12,2.27 -8.2,4.63 -12.24,7.09 1.46,0.13 2.85,0.47 4.03,1 1.9,0.85 3.11,1.87 3.7,4.04 2.22,8.1 -6.76,16.99 -13.28,20.12 -6.19,2.98 -14.8,2.94 -20.93,0.55 -2.27,-0.88 -4.02,-2.27 -5.58,-3.85 -3.68,2.78 -7.31,5.61 -10.91,8.5 1.65,3.92 2.54,8.3 2.37,12.63 1.05,7.05 1.56,13.96 1.78,19.34 0.03,0.77 0.06,1.54 0.08,2.31 2.52,-2.33 4.74,-4.88 6.48,-7.92 1.18,-2.05 3.13,-6.04 3.21,-8.39 1.51,0.71 3.12,1.91 5.24,1.8 2.21,-0.11 3.19,-3.33 3.07,-5.56 -0.11,-2.29 -0.8,-4.27 -1.33,-6.12 0.91,-0.05 2.2,0.07 3.31,0.14 6.75,0.39 13.74,-1.14 19.7,-3.85 4.08,-1.85 7.42,-4.8 10.36,-8.05l5.36 -6.94c1.63,-2.41 3.11,-4.85 4.8,-7.19 4.87,-6.76 6.66,-7.25 12.89,-11.41 1.11,-0.74 2.6,-1.76 3.53,-2.7 3.86,-3.93 2.38,-8.69 -4.09,-8.37 -4.5,0.22 -9.1,3.74 -12.58,6.04 -0.79,0.52 -1,0.74 -1.69,1.42 -0.49,0.48 -1.14,1.11 -1.8,1.32 -0.59,-2.05 -3.2,-4.35 -5.51,-5.96zm-23.71 14.37c-2.64,1.75 -5.26,3.53 -7.86,5.35 2.87,0.85 6.33,-2.02 7.55,-4.66l0.31 -0.69z"/>
   <path class="fil1" d="M566.59 236.41c0,0 10.94,182.55 147.7,185.04 117.22,2.13 145.34,-135.13 147.98,-174.66 0.24,-3.62 -26.47,-13.01 -26.47,-13.01l-269.21 2.64z"/>
   <path class="fil2" d="M586.95 249.1c0,0 9.44,157.5 127.43,159.65 117.99,2.14 128.61,-159.65 128.61,-159.65l-256.04 0z"/>
   <path class="fil3" d="M586.95 249.1c0,0 2.6,43.14 21.98,84.58 18.21,6.42 37.6,12.12 57.51,16.48 54.2,11.85 67.82,11.82 122.07,-0.12 9.52,-2.09 18.92,-4.5 28.12,-7.14 23.07,-43.98 26.36,-93.8 26.36,-93.8l-256.04 0z"/>
   <path class="fil2" d="M550.98 1696.25l76.78 -3.49c7.54,-48.28 15.15,-96.56 22.81,-144.82 4.74,-29.86 9.51,-59.71 14.37,-89.55 3.24,-19.9 6.42,-39.89 10.03,-59.73 5.96,-32.77 -18.43,-94.54 -35.25,-128.81 -14.84,-0.95 -29.86,-1.48 -44.63,-1.51 -7.67,-0.02 -32.32,0.18 -41.59,2.96 -11.69,23.08 -23.14,46.35 -34.34,69.67 -6.99,14.55 -13.91,29.19 -20.42,43.97 -2.38,5.41 -4.74,10.87 -6.87,16.39 -0.87,2.26 -2.27,5.64 -2.7,7.79 -0.78,5.84 -1.84,10.75 -2.04,16.76 -0.45,12.97 1.43,27.07 3.45,39.83 4.64,29.26 11.75,58.72 19.15,87.39 12.39,48.03 26.55,95.77 41.26,143.17z"/>
   <path class="fil3" d="M571.71 1268.93c-7.21,0.43 -14.17,1.15 -18.22,2.36 -11.69,23.08 -23.14,46.35 -34.34,69.67 -6.99,14.55 -13.91,29.19 -20.42,43.97 -2.38,5.41 -4.74,10.87 -6.87,16.39 -0.87,2.26 -2.27,5.64 -2.7,7.79 -0.78,5.84 -1.84,10.75 -2.04,16.76 -0.45,12.97 1.43,27.07 3.45,39.83 4.64,29.26 11.75,58.72 19.15,87.39 9.45,36.63 19.93,73.1 30.9,109.37 2.52,-22.5 3.33,-47.24 2.06,-74.36 0,0 -29.89,-65.06 -35.75,-171.14 0,0 24.03,-69.16 67.99,-143.59 0,0 -1.17,-1.54 -3.21,-4.43z"/>
   <path class="fil3" d="M570.56 1297.54c0,0 9.08,28.13 32.53,30.48 23.44,2.34 33.41,-32.82 33.41,-32.82 0,0 -22.56,16.12 -65.94,2.34z"/>
   <path class="fil3" d="M795.91 1293.74c11.8,32.75 55.97,42.32 55.97,-4.98 0,0 -12.6,18.75 -55.97,4.98z"/>
   <g>
    <path class="fil1" d="M1062.41 1572.24l-14.89 191.93 -2.64 45.99 -135.73 -77.71c-10.36,-51.51 -20.72,-102.48 -31.08,-153.99 54.46,-13 127.27,-19.61 184.34,-6.22z"/>
    <path class="fil10" d="M894.31 1589.39l25.67 134.25 112.76 66.04c3.69,-61.99 9.36,-141 13.05,-202.99 -8.09,-4.83 -74.46,-12.02 -151.48,2.69z"/>
    <path class="fil11" d="M1020.52 1717.29c-1.58,3.08 -4.87,5.35 -8.72,5.6l-28.91 1.85c-4.22,0.27 -7.94,-1.96 -9.53,-5.31l-12.53 0.57 -22.01 -24.85 15.93 -28.08 17.68 -0.64c1.69,-2.74 4.78,-4.69 8.35,-4.92l28.91 -1.86c4.13,-0.26 7.77,1.85 9.41,5.08l18.96 -0.69c-1.16,17.54 -2.34,35.24 -3.48,52.61l-14.08 0.64z"/>
    <path class="fil12" d="M901.68 1627.92l18.3 95.72 14.14 8.28c10.17,1.25 18.35,2.17 18.35,2.17l-12.63 -20.77 -17.26 -122.93c-1.33,-1 -16.91,-0.12 -18.98,8.36 -2.07,8.48 -4.84,10.66 -1.93,29.17z"/>
    <path class="fil12" d="M894.31 1589.39l9.23 44.46 3.4 2.69c1.61,-2.45 2.57,-3.99 2.57,-3.99l-1.11 -31.76c0,0 51.79,-15.14 129.76,-16.38 -21,-4.22 -78.6,-7.48 -143.85,4.98z"/>
    <path class="fil11" d="M900.75 1623.08l2.82 14.76c17.69,-3.71 74.03,-13.52 139.28,-4.26 0.47,-7.33 0.94,-14.55 1.38,-21.64 -26.65,-2.19 -71.25,-1.22 -143.49,11.13z"/>
    <path class="fil11" d="M997.55 1769.07l35.19 20.61c4.26,-67.83 8.52,-135.66 12.77,-203.48 -12.32,-4.31 -32.29,-5.91 -48.02,-5.95 1.05,30.47 -1.65,134.52 0.05,188.82z"/>
    <path class="fil1" d="M914.01 1712.39c-3.03,0.03 -86.59,94.51 -88.92,105.98l0.55 10.86c0,0 104.16,0.79 219.9,-6.51l0.02 -44.51c0,0 -131.57,-66.91 -131.56,-65.82z"/>
    <path class="fil10" d="M919.79 1730.96c0,0 -41.03,39.14 -72.12,80.84 0,0 56.17,4.2 187.06,-3.4l-0.56 -54.46 -114.38 -22.97z"/>
    <path class="fil11" d="M953.18 1795.33c21.82,0.83 48.55,1.47 81.69,-0.45l0.06 -44.12 -37.76 -10.01 -43.99 54.58z"/>
    <path class="fil12" d="M919.79 1730.96c0,0 -26.31,26.25 -61.76,67.33 0,0 14.68,-0.11 54.46,-0.68l43.61 -59.88 -36.31 -6.78z"/>
    <path class="fil1" d="M852.64 1790.7c1.98,-0.02 76.55,8.17 75.89,7.91 -0.66,-0.26 -79.51,1.1 -79.51,1.1l3.62 -9.01z"/>
    <path class="fil1" d="M1049.35 1620.29c0,0 -34.59,-7.8 -95.98,-4.66 0,0 57.21,-11.95 97.39,-7.9l1.14 6.69 -2.54 5.86z"/>
    <path class="fil1" d="M896.36 1629.43c0,0 27.97,-8.07 51.18,-12.92 0,0 -33.81,-0.5 -53.88,1.35l-1.34 4.94 4.04 6.62z"/>
    <g>
     <polygon class="fil1" points="1063.89,1644.1 953.4,1648.12 935.41,1679.83 960.26,1707.89 1059.48,1703.39 "/>
     <polygon class="fil13" points="1050.85,1692.74 1053.3,1654.64 958.9,1657.8 946.47,1679.26 962.89,1697.56 "/>
     <path class="fil14" d="M949.94 1678.37l13.91 17.41 83.93 -6.4 1.35 -19.43c0,0 -56.91,7.06 -99.2,8.42z"/>
     <g>
      <path class="fil1" d="M1027.12 1649.54l1.67 50.35c0.19,5.79 -4.75,10.86 -10.97,11.26l-32.65 2.1c-6.23,0.4 -11.48,-4.01 -11.67,-9.8l-1.67 -50.35c-0.19,-5.79 4.75,-10.86 10.97,-11.26l32.65 -2.1c6.23,-0.4 11.48,4.01 11.67,9.8z"/>
      <path class="fil15" d="M1018.4 1652l1.54 46.56c0.06,1.93 -1.58,3.62 -3.66,3.75l-30.19 1.94c-2.08,0.13 -3.83,-1.34 -3.89,-3.27l-1.54 -46.56c-0.06,-1.93 1.58,-3.62 3.66,-3.75l30.19 -1.94c2.07,-0.13 3.83,1.34 3.89,3.27z"/>
      <path class="fil16" d="M1019.31 1679.34l0.64 19.23c0.06,1.93 -1.58,3.61 -3.66,3.76l-30.19 1.93c-2.07,0.13 -3.82,-1.34 -3.89,-3.27l-0.76 -22.96c13.45,1.41 26.99,1.58 37.86,1.31z"/>
      <polygon class="fil1" points="1010.94,1658.24 1012.1,1693.3 989.67,1694.74 988.51,1659.68 "/>
      <rect class="fil1" transform="matrix(-0.0282119 -0.851331 -0.850457 0.0546002 1008.37 1690.03)" width="32.94" height="17.88"/>
     </g>
    </g>
    <path class="fil1" d="M1040.94 1784.2c0,0 -90.29,13.26 -88.69,13.51 1.59,0.25 87.75,-0.52 87.75,-0.52l0.94 -13z"/>
   </g>
   <g>
    <path class="fil1" d="M485.83 1587.44l23.84 189.86 1.99 57.42 133.9 -95.44c7.86,-51.63 15.73,-102.73 23.59,-154.36 -54.69,-10.34 -127.29,-13.47 -183.32,2.52z"/>
    <path class="fil10" d="M653.54 1596.53l-19.15 134.51 -108.84 70.89c-6.59,-61.38 -15.94,-139.55 -22.54,-200.92 7.8,-5.18 73.37,-15.45 150.52,-4.48z"/>
    <path class="fil11" d="M534.27 1729.48c1.71,2.99 5.09,5.08 8.92,5.14l28.79 0.48c4.2,0.07 7.79,-2.32 9.21,-5.72l12.46 -0.03 20.68 -25.71 -17.15 -27.13 -17.59 0.2c-1.81,-2.64 -4.97,-4.44 -8.53,-4.49l-28.79 -0.48c-4.11,-0.06 -7.63,2.21 -9.11,5.49l-18.86 0.21c1.98,17.36 3.99,34.88 5.94,52.07l14.01 -0.03z"/>
    <path class="fil12" d="M648.04 1635.13l-13.66 95.9 -13.65 8.89c-10.04,1.72 -18.12,3.02 -18.12,3.02l11.56 -21.22 11.34 -122.87c1.27,-1.06 16.78,-0.92 19.24,7.41 2.46,8.32 5.31,10.36 3.29,28.87z"/>
    <path class="fil12" d="M653.54 1596.53l-7.07 44.58 -3.24 2.83c-1.71,-2.36 -2.74,-3.84 -2.74,-3.84l-0.4 -31.58c0,0 -52.14,-12.59 -129.6,-10.14 20.65,-5.18 77.69,-11.13 143.05,-1.84z"/>
    <path class="fil11" d="M648.73 1630.28l-2.11 14.79c-17.74,-2.85 -74.14,-9.93 -138.49,2.35 -0.82,-7.25 -1.62,-14.41 -2.39,-21.42 26.36,-3.43 70.68,-4.57 142.99,4.28z"/>
    <path class="fil11" d="M559.52 1779.8l-33.97 22.13c-7.43,-67.14 -14.86,-134.29 -22.29,-201.43 12.02,-4.86 31.79,-7.39 47.39,-8.18 0.39,30.3 7.99,133.48 8.86,187.48z"/>
    <path class="fil1" d="M639.79 1719.59c3.01,-0.12 90.44,89.75 93.29,101.03l-0.04 10.8c0,0 -105.97,5.28 -221.22,3.5l0.46 -43.78c0,0 127.47,-72.64 127.51,-71.56z"/>
    <path class="fil10" d="M634.93 1738.3c0,0 42.59,36.92 75.42,76.86 0,0 -55.57,6.82 -185.89,5.45l-2.01 -54.1 112.49 -28.21z"/>
    <path class="fil11" d="M604.81 1803.78c-21.63,1.86 -48.14,3.75 -81.13,3.4l-2.14 -43.8 37.02 -11.72 46.25 52.11z"/>
    <path class="fil12" d="M634.93 1738.3c0,0 27.37,24.82 64.5,63.94 0,0 -14.58,0.59 -54.11,1.9l-46.13 -57.39 35.73 -8.44z"/>
    <path class="fil1" d="M704.42 1794.43c-1.97,0.08 -75.62,11.72 -74.97,11.43 0.65,-0.29 78.99,-2.65 78.99,-2.65l-4.02 -8.78z"/>
    <path class="fil1" d="M501.07 1634.53c0,0 33.97,-9.38 95.08,-9.16 0,0 -57.37,-9.16 -97.06,-3.25l-0.82 6.7 2.8 5.7z"/>
    <path class="fil1" d="M653.4 1636.38c0,0 -28.15,-6.69 -51.43,-10.41 0,0 33.55,-2.09 53.56,-1.2l1.57 4.84 -3.7 6.77z"/>
    <g>
     <polygon class="fil1" points="487.76,1658.86 597.65,1657.63 617.01,1688.26 593.66,1717.3 494.93,1717.51 "/>
     <polygon class="fil13" points="503,1706.53 498.77,1668.82 592.64,1667.5 605.99,1688.23 590.56,1707.17 "/>
     <path class="fil14" d="M602.51 1687.5l-12.99 17.94 -83.64 -2.39 -2.26 -19.23c0,0 56.84,4.32 98.89,3.68z"/>
     <g>
      <path class="fil1" d="M524.52 1662.52l0.72 50.07c0.08,5.76 5.22,10.56 11.43,10.66l32.51 0.54c6.2,0.1 11.21,-4.52 11.13,-10.28l-0.72 -50.07c-0.08,-5.76 -5.23,-10.56 -11.43,-10.66l-32.51 -0.54c-6.2,-0.1 -11.21,4.52 -11.13,10.28z"/>
      <path class="fil15" d="M533.29 1664.55l0.67 46.3c0.03,1.92 1.74,3.52 3.81,3.55l30.07 0.5c2.07,0.04 3.74,-1.51 3.71,-3.43l-0.67 -46.3c-0.03,-1.92 -1.74,-3.52 -3.81,-3.55l-30.07 -0.5c-2.07,-0.04 -3.74,1.51 -3.71,3.43z"/>
      <path class="fil16" d="M533.68 1691.73l0.27 19.12c0.03,1.92 1.74,3.51 3.81,3.56l30.07 0.49c2.06,0.03 3.73,-1.51 3.71,-3.43l-0.33 -22.83c-13.29,2.04 -26.72,2.84 -37.53,3.09z"/>
      <polygon class="fil1" points="541,1670.4 541.5,1705.26 563.84,1705.63 563.34,1670.76 "/>
      <rect class="fil1" transform="matrix(-0.0121685 -0.846592 0.846969 0.0140729 545.045 1701.83)" width="32.94" height="17.88"/>
     </g>
    </g>
    <path class="fil1" d="M517.15 1796.88c0,0 90.27,8.91 88.7,9.23 -1.57,0.32 -87.15,3.63 -87.15,3.63l-1.55 -12.86z"/>
   </g>
   <path class="fil1" d="M647.36 981.89c41.32,28.33 89.34,36.03 135.89,-2.93 0,0 -54.44,-16.88 -135.89,2.93z"/>
   <g>
    <path class="fil1" d="M518.85 271.34c-203.58,160.24 -326.87,529.15 -162.46,766.92 0,0 89.08,-25.42 136.96,-63.25 -5.88,-7.57 -11.49,-17.04 -27.27,-49.77 -27.19,-75.17 -65.58,-259.64 57.51,-424.75 -13.06,-24.72 -13.36,-41.28 -13.36,-41.28 39.85,-150.04 12.38,-190.48 12.38,-190.48l-3.76 2.62z"/>
    <path class="fil2" d="M525.68 286.92c-94.33,75.51 -163.58,192.79 -198.52,302.69 -44.86,141.11 -40.65,312.8 43.89,434.14 9.57,-2.5 76.03,-32.63 103.53,-46.44 -20.02,-30.33 -26.39,-52.08 -29.57,-61.77 -14.33,-43.72 -22.96,-89.84 -25.04,-135.8 -5.06,-111.29 28.42,-210.35 91.21,-294.52 -5.47,-15.55 -5.64,-26.03 -5.64,-26.03 26.58,-100.05 24.48,-150.06 20.14,-172.28z"/>
    <path class="fil17" d="M525.68 286.92c-94.33,75.51 -163.58,192.79 -198.52,302.69 -44.86,141.11 -40.65,312.8 43.89,434.14 0.92,-0.24 2.38,-0.74 4.28,-1.46 -77.87,-120.62 -80.64,-286.71 -37.03,-423.89 33.82,-106.36 99.76,-219.62 189.47,-295.25 -0.48,-6.56 -1.24,-11.93 -2.08,-16.23z"/>
    <path class="fil3" d="M468.53 967.75c-15.32,-25.34 -20.69,-43.57 -23.52,-52.21 -14.33,-43.72 -22.96,-89.84 -25.04,-135.8 -5.06,-111.29 28.42,-210.35 91.21,-294.52 -3.09,-8.78 -4.49,-15.94 -5.12,-20.51 -213.68,234.28 -58.08,503.7 -60.8,503.7l23.26 -0.66z"/>
    <path class="fil1" d="M354.63 1035.33c0,0 22.57,98.17 92.9,141.54 0,0 24.17,7.91 45.27,7.33 0,0 13.34,-4.69 23.88,-23.15 0,0 28.42,0 43.66,-28.43 0,0 29.31,-16.41 35.17,-36.63l-26.08 -35.75c0,0 7.62,-24.62 9.09,-47.18 0,0 1.17,-19.63 -0.88,-20.51 -2.05,-0.88 -40.44,-29.89 -105.5,-35.17 0,0 -27.25,8.21 -62.71,31.65 -35.46,23.44 -54.8,46.3 -54.8,46.3z"/>
    <path class="fil2" d="M368.91 1020.08c0,0 19.63,95.82 84.98,142.71 0,0 32.82,7.03 38.98,6.45 0,0 10.26,-9.96 11.13,-19.93 0,0 31.07,-1.46 43.96,-28.13 0,0 24.91,-7.03 32.82,-26.08 0,0 -53.34,-73.85 -50.99,-74.43 2.34,-0.59 30.77,25.2 30.77,25.2 0,0 5.28,-17.29 3.52,-42.2 0,0 -39.56,-32.82 -122.2,-36.63 -24.64,1.17 -64.28,22.41 -72.97,53.04z"/>
    <path class="fil3" d="M455.9 1163.22c7.21,1.51 31.74,6.52 36.97,6.03 0,0 10.26,-9.96 11.13,-19.93 0,0 31.07,-1.46 43.96,-28.13 0,0 24.91,-7.03 32.82,-26.08 0,0 -8.68,-12 -16.9,-23.53 -40.11,35.73 -82.16,74.2 -107.99,91.64z"/>
   </g>
   <path class="fil5" d="M640.83 980.53c60.2,10.72 92.34,12.99 151.8,-4.39 0,0 -31.06,-33.7 -33.41,-33.99 -2.34,-0.29 -49.23,-11.43 -53.92,-9.08 -4.69,2.34 -64.47,47.47 -64.47,47.47z"/>
   <path class="fil1" d="M972.44 1123.23c-1.81,6.48 -3.83,13.06 -6.08,19.72 -21.81,7.17 -79.59,21.89 -213.86,17.34l-3.22 -16.15c49.02,4.33 177.92,0.76 223.16,-20.91z"/>
   <path class="fil1" d="M795.18 1293.45c0,0 29.14,10.04 56.9,-5.28 -13.75,29.45 -43.71,27.31 -56.9,5.28z"/>
   <path class="fil1" d="M569.82 1296.5c0,0 34.36,11.93 68.44,-2.86 -18.05,30.31 -53.83,26.64 -68.44,2.86z"/>
   <path class="fil18" d="M627.7 555.96c0,0 87.33,-25.2 195.17,1.17 -53.14,-44.86 -144.64,-54.23 -195.17,-1.17z"/>
   <path class="fil1" d="M904.16 495.3c0,0 -22.56,40.44 -93.19,39.85 0,0 32.24,9.96 70.33,2.93l13.48 -14.65 9.38 -28.13z"/>
   <path class="fil1" d="M531.99 495.3c0,0 22.56,40.44 93.19,39.85 0,0 -32.24,9.96 -70.33,2.93l-13.48 -14.65 -9.38 -28.13z"/>
   <g>
    <path class="fil1" d="M911.52 281.89c203.58,160.24 326.87,529.15 162.46,766.92 0,0 -89.08,-25.42 -136.96,-63.25 5.88,-7.57 11.49,-17.04 27.27,-49.77 27.19,-75.17 65.58,-259.64 -57.51,-424.75 13.06,-24.72 13.36,-41.28 13.36,-41.28 -39.85,-150.04 -12.38,-190.48 -12.38,-190.48l3.76 2.62z"/>
    <path class="fil2" d="M904.69 297.47c94.33,75.51 163.58,192.79 198.52,302.69 44.86,141.11 40.65,312.8 -43.89,434.14 -9.57,-2.5 -76.03,-32.63 -103.53,-46.44 20.02,-30.33 26.39,-52.08 29.57,-61.77 14.33,-43.72 22.96,-89.84 25.04,-135.8 5.06,-111.29 -28.42,-210.35 -91.21,-294.52 5.47,-15.55 5.64,-26.03 5.64,-26.03 -26.58,-100.05 -24.48,-150.06 -20.14,-172.28z"/>
    <path class="fil17" d="M904.69 297.47c94.33,75.51 163.58,192.79 198.52,302.69 44.86,141.11 40.65,312.8 -43.89,434.14 -0.92,-0.24 -2.38,-0.74 -4.28,-1.46 77.87,-120.62 80.64,-286.71 37.03,-423.89 -33.82,-106.36 -99.76,-219.62 -189.47,-295.25 0.48,-6.56 1.24,-11.93 2.08,-16.23z"/>
    <path class="fil3" d="M961.85 978.3c15.32,-25.34 20.69,-43.57 23.52,-52.21 14.33,-43.72 22.96,-89.84 25.04,-135.8 5.06,-111.29 -28.42,-210.35 -91.21,-294.52 3.09,-8.78 4.49,-15.94 5.12,-20.51 213.68,234.28 58.08,503.7 60.8,503.7l-23.26 -0.66z"/>
    <path class="fil1" d="M1075.74 1045.88c0,0 -22.57,98.17 -92.9,141.54 0,0 -24.17,7.91 -45.27,7.33 0,0 -13.34,-4.69 -23.88,-23.15 0,0 -28.42,0 -43.66,-28.43 0,0 -29.31,-16.41 -35.17,-36.63l26.08 -35.75c0,0 -7.62,-24.62 -9.09,-47.18 0,0 -1.17,-19.63 0.88,-20.51 2.05,-0.88 40.44,-29.89 105.5,-35.17 0,0 27.25,8.21 62.71,31.65 35.46,23.44 54.8,46.3 54.8,46.3z"/>
    <path class="fil2" d="M1061.46 1030.63c0,0 -19.63,95.82 -84.98,142.71 0,0 -32.82,7.03 -38.98,6.45 0,0 -10.26,-9.96 -11.13,-19.93 0,0 -31.07,-1.46 -43.96,-28.13 0,0 -24.91,-7.03 -32.82,-26.08 0,0 53.34,-73.85 50.99,-74.43 -2.34,-0.59 -30.77,25.2 -30.77,25.2 0,0 -5.28,-17.29 -3.52,-42.2 0,0 39.56,-32.82 122.2,-36.63 24.64,1.17 64.28,22.41 72.97,53.04z"/>
    <path class="fil3" d="M974.48 1173.77c-7.21,1.51 -31.74,6.52 -36.97,6.03 0,0 -10.26,-9.96 -11.13,-19.93 0,0 -31.07,-1.46 -43.96,-28.13 0,0 -24.91,-7.03 -32.82,-26.08 0,0 8.68,-12 16.9,-23.53 40.11,35.73 82.16,74.2 107.99,91.64z"/>
   </g>
   <path class="fil9" d="M802.68 864.23l-0 -0.06c-0.12,-4.52 0.1,-6.47 -0.14,-11.34 -0.37,-7.5 -0.74,-13.38 3.24,-19.49 0.63,-0.96 1.75,-2.44 2.66,-3.2 6.06,-5.04 12.77,0.94 13.06,6.62 0.19,3.98 -5.82,6.94 -3.97,11.45 1.21,2.95 4.69,2.42 6.97,1.28 1.03,-0.52 1.48,-1.3 2.59,-1.45 0.67,2.08 8.2,6.93 10.27,4.1 2.34,-3.21 -6.13,-5.34 -6.32,-9.13 -0.1,-1.94 0.69,-3.01 0.46,-7.79 -0.27,-5.43 -4.93,-11.05 -9.29,-13.83 -3.11,-1.98 -6.73,-2.82 -10.84,-2.61 -0.04,-1.65 0.47,-3.46 0.56,-5.1 0.12,-2.21 0.01,-3.64 -0.25,-5.63 -0.97,-7.5 -7.63,-9.36 -9.53,-2.03 -0.58,2.23 -0.13,5.48 -0.41,7.83 -0.44,3.66 -1.45,6.38 -2.62,9.64 -0.31,0.88 -0.92,2.45 -1.67,2.69 -0.19,-1.44 -3.2,-6.63 -3.96,-8 -1.37,-2.46 -3.26,-4.9 -4.98,-7.1 -0.88,-1.13 -1.83,-1.99 -2.79,-3.1 -1.73,-2 -5.47,-5.25 -7.75,-6.91 -0.68,-0.49 -1.14,-0.91 -1.78,-1.35 -6.11,-4.28 -12.71,-6.99 -20.3,-8.75 -2.97,-0.69 -6.11,-1.07 -8.18,-3.34 -2.26,-2.48 -2.2,-10.87 0.26,-13.67 5.67,-6.44 13.61,-3.1 18.02,2.99 2.28,3.15 4.33,9.41 9.1,9.18 1.52,-0.08 2.22,-1.94 2.14,-3.47 -0.24,-4.85 -2.99,-9.12 -5.86,-12.53 -3.93,-4.66 -9.19,-7.95 -15.71,-7.62l-3.56 0.17c-0.19,-3.93 -2.73,-8.04 -6.14,-9.58 -1.88,-0.85 -3.94,-1.12 -6.35,-0.74 -4.71,0.76 -6.98,4.22 -1.13,5.23 3.26,0.56 6.68,-0.22 7.57,3.82 0.71,3.2 -4.7,7.21 -6.38,10.63 -2.83,5.79 -2.96,10.05 -1.24,16.09 -6.27,-0.07 -11.13,0.39 -17.12,2.1 -1.52,-2.81 -1.52,-9.71 3.54,-11.4 9.42,-3.16 6.56,-8.63 1.15,-8.36 -7.02,0.34 -7.78,3.17 -9.89,3.85 -1.5,-0.9 -2.86,-1.92 -4.56,-2.48 -1.79,-0.59 -4.42,-0.76 -5.69,0.61 -1.54,1.67 1.09,3.21 2.29,3.8 1.52,0.75 4.11,1.04 4.21,3.08 0.12,2.46 -0.63,4.29 -0.51,6.75 0.28,5.69 1.07,5.03 1.43,7.7 -1.36,0.39 -5.58,3.85 -5.9,3.86 -0.59,0.03 -3.74,-1.23 -4.42,-1.53 -6.57,-2.9 -13.73,-7.03 -17.4,-13.49 -4.14,-7.29 -4.5,-14.75 1.19,-21.08 3.95,-4.4 9.68,-5.82 15.94,-4.88 1.63,0.24 3.18,0.53 5.01,0.44 6.26,-0.31 6.51,-7.38 -5.05,-8.79 -7.89,-0.96 -17.17,1.55 -22.48,7.46 -4.57,5.09 -6.65,10.98 -6.29,18.32 -2.85,0.14 -7.8,0.84 -8.81,-2.21 -0.68,-2.05 -0.41,-5.53 -3.54,-5.38 -1.2,0.06 -1.58,0.94 -1.95,1.84 -0.79,1.93 -0.56,4.3 0.32,6.14 0.48,0.99 1,1.3 1.29,2.33 -6.5,3.86 -7.28,13.8 -2.69,13.58 3.22,-0.16 4.01,-1.88 5.56,-4.18 1.99,-2.96 3.23,-3.82 6.85,-4 3.08,-0.15 4.92,0.9 6.32,3.19 1.88,3.07 3.13,4.94 5.6,7.51 0.43,0.44 0.35,0.51 0.81,0.88 4.7,3.86 9.2,7.08 14.98,9.32 0.79,0.31 1.45,0.77 2.36,0.93 -2.09,4.47 -3.37,4.33 -5.87,12.29 -2.23,7.1 -4.85,15.45 -11.62,19.1 -5.44,2.93 -14.37,2.25 -19.7,-0.95 -8.38,-5.04 -12.52,-16.67 -8.06,-23.6 1.12,-1.74 4.34,-4.34 6.83,-2.88 1.41,0.83 2.41,2.55 2.49,4.32 0.14,2.81 -4.04,4.31 -3.32,6.98 0.92,3.39 9.59,0.99 9.12,-8.53l2.27 1.69c1.57,1.03 3.87,1.95 5.3,0.16 1.45,-1.81 0.02,-4.24 -0.21,-6 8.11,-6.03 3.52,-11.83 -0.82,-6.94 -2.99,3.36 -4.25,1.61 -7.92,0.02 -5.03,-2.18 -12.28,-0.43 -16.15,2.39 -1.53,1.12 -2.16,1.8 -3.38,3.14 -3.56,3.92 -5.59,8.32 -4.67,14.32 1.1,7.19 3.71,13.4 9,18.13 3.15,2.82 6.13,4.45 10.02,6.18 0.73,0.33 1.65,0.58 2.33,0.96 1.91,1.06 0.78,2.8 -0.52,3.88 -1.59,1.31 -2.46,1.56 -5.04,1.84 -3.59,0.39 -6.07,3.36 -1.78,4.83 4.54,1.56 6.87,-0.41 8.9,-0.99 0.42,1.46 2.37,3.61 3.58,4.45 1.78,1.24 5.72,3.54 8.1,1.32 1.85,-1.73 -0.34,-5.03 -1.4,-6.28 -1.93,-2.29 -5.25,-3.91 0.4,-7.44 4.52,-2.82 9.58,-4.14 14.19,-7.56 1.07,3.75 1.02,8.19 2.85,12.76 0.61,1.52 1.69,2.8 1.77,4.24 0.07,1.49 -4.47,3.09 -4.33,5.89 0.14,2.81 4.95,1.81 7.17,-0.11 0.94,-0.82 2.28,-2.16 2.52,-3.52 1.31,0.04 7.06,2.77 12.17,-0.19 4.15,-2.41 2.26,-5.73 -1.76,-6.66 -5.17,-1.2 -7.43,1.92 -9.41,-5.96 -2.92,-11.65 -1.4,-26.78 5.89,-36.01 1.25,-1.58 2.54,-3.02 4.09,-4.3l3.75 -2.6c0.55,-0.29 0.9,-0.46 1.39,-0.74 4.84,-2.72 11.59,-3.51 17.67,-3.81 4.33,-0.21 8.7,0.48 12.33,1.2 7.17,1.42 13.86,3.68 19.86,7.69 4.22,2.82 5.86,4.51 9.55,8.02 1.78,1.69 3.51,3.93 4.76,6.01 2.03,3.37 3.39,5.4 5,9.28 4.74,11.4 5.95,23.76 4.93,35.84 3.13,-0.53 6.28,-1.09 9.43,-1.69zm-229 -9.22c-1.81,-0.66 -3.69,-1.16 -5.56,-1.74 -2.43,-0.75 -4.92,-1.35 -7.44,-1.81 4.17,1.19 8.51,2.38 13,3.55zm292.21 -7.21c2.28,-0.94 4.59,-1.73 6.92,-2.38 8.95,-3.15 17.96,-6.63 26.99,-10.44 -4.69,-0.96 -9.46,-1.39 -14.17,-1.16 -4.79,0.24 -12.8,1.76 -17.19,3.25 -10.77,3.65 -20.22,8.91 -28.95,16.01 -0.96,0.78 -1.85,1.49 -2.77,2.3 -0.61,0.54 -1.25,1.1 -1.9,1.65 10.27,-2.68 20.63,-5.74 31.06,-9.23zm36.53 -19.37c-1.33,-2.66 -2.66,-5.32 -3.98,-7.99l-1.11 0.37c-13.16,4.33 -29.09,1.55 -41.32,-3.8 -7.23,-3.16 -14.07,-7.67 -20.2,-12.61l-6.8 -5.75c-1.48,-1.34 -2.8,-2.54 -4.29,-3.88 -0.41,-0.37 -0.72,-0.62 -1.1,-0.99l-5.18 -5.1c-2.9,-2.6 -5.58,-5.52 -8.29,-8.31l-8.35 -8.24c-2.57,-3.01 -16.38,-15.21 -19.68,-17.6l-7.07 -5.24c-0.9,-0.62 -1.64,-1.05 -2.51,-1.64 -2.49,-1.7 -5.06,-3.02 -7.67,-4.57 -1.77,-1.05 -3.69,-1.82 -5.54,-2.73 -2.79,-1.37 -5.64,-2.48 -8.63,-3.51 -10.49,-3.62 -25.64,-6.01 -37.51,-4.78 -0.92,0.1 -1,0.25 -2.08,0.32 -1.76,0.12 -2.67,-0.09 -4.42,-0 -3.66,0.18 -7.37,0.7 -10.67,1.14 -10.76,1.44 -21.35,5.15 -30.7,10.42 -1.34,0.76 -2.29,1.39 -3.61,2.14 -2.46,1.39 -4.64,3.15 -6.98,4.69 -3.95,2.59 -9.24,7.25 -12.52,10.47 -2.85,2.8 -5.83,5.54 -8.51,8.51l-8.06 9.11c-0.46,0.5 -0.88,0.91 -1.29,1.43 -0.52,0.66 -0.68,0.98 -1.28,1.64 -2.73,2.97 -7.38,8.98 -10.31,12.48 -1.75,2.09 -3.31,4.34 -5.15,6.35 -0.46,0.5 -0.88,0.91 -1.29,1.43l-3.89 4.69c-2.35,3.26 -11.24,11.93 -14.18,14.58 -8.58,7.75 -18.23,14.07 -29.87,16.58 -11.67,2.51 -22.73,2.09 -32.79,-1.4l-1.5 2.96c7.21,2.65 15.57,5.53 24.95,8.44 5.37,-0.48 8.86,-1.29 15.6,-3.32 3.66,-1.1 7.12,-2.61 10.49,-4.31 1.24,-0.63 2.17,-1.2 3.35,-1.77 3.34,-1.62 6.1,-3.53 9.12,-5.55 5.32,-3.56 10.08,-7.75 14.83,-11.98l3.79 -3.57c0.81,-0.83 1.46,-1.74 2.3,-2.52 2.51,-2.31 4.58,-5.08 6.86,-7.59l2.18 -2.63c3.59,-3.9 7.28,-9.49 10.56,-13.65l8.45 -10.96 -3.03 10.47c-1.97,6.96 -3.46,15.68 -3.73,23.05 -0.07,1.97 -0.29,4.29 -0.31,6.33 -0.01,1.86 0.1,4.89 -0.05,6.56 -0.53,6.03 1.54,13.12 -1.01,18.9 -2.31,5.23 -7.59,12.33 -13.9,7.17 -2.1,-1.72 -3.58,-3.9 -3.73,-6.93 -0.17,-3.54 4.37,-5.2 4.09,-10.7 -0.04,-0.72 -0.74,-1.7 -1.13,-2.07 -1.57,-1.44 -4.07,-0.73 -5.69,0.09 -0.92,0.47 -1.86,1.32 -2.86,1.61 -0.23,-0.72 -0.2,-0.47 -0.73,-0.97 -2.16,-2.03 -4.26,-4.25 -7.72,-4.08 -3.24,0.16 -3.08,3.03 1.22,5.94 7.36,4.97 -1.04,7.65 4.78,17.92 3.42,6.04 9.5,10.88 16.9,10.51 0.79,-0.04 0.39,-0.16 1.25,-0.27 -0.02,0.48 -0.08,0.95 -0.17,1.42 3.3,0.56 6.64,1.1 10.03,1.61 0.22,-1.34 0.59,-2.86 1.19,-4.62 0.38,-1.11 0.78,-1.86 1.17,-2.94 0.39,-1.06 1.06,-1.94 1.26,-3.06 0.03,0.04 0.07,0.06 0.08,0.13l2.32 4.72c1.23,2.35 2.67,4.85 4.26,7.22 4.78,0.63 9.66,1.2 14.61,1.71 -0.71,-0.67 -1.4,-1.36 -2.07,-2.07l-3.05 -3.48c-2.53,-3.44 -4.57,-7.11 -6.37,-11.09 -1.62,-3.6 -3.31,-9.27 -4.06,-13.64 -2.67,-15.66 -1.37,-29.59 2.92,-44.93 1.77,-6.34 3.75,-12.69 6.74,-18.52 2.08,-4.06 4.49,-8.2 7.34,-11.77 13.01,-16.26 32,-22.32 53.51,-23.38 14.7,-0.72 25.71,0.63 36.3,4.57 9.82,3.66 18.46,9.04 26.88,15.18l33.23 30.27c0.49,0.44 0.85,0.74 1.32,1.19l4.13 4.05c1.87,2.22 8.46,7.76 11.05,10.12 4.88,4.43 12.6,10.19 18.18,13.52 11.25,6.72 21.86,10.52 34.96,11.79 2.54,0.25 7.33,0.57 9.69,0.09 5.04,-1.02 5.53,-0 13.9,-2.62 0.75,-0.23 1.41,-0.48 2.07,-0.72zm-15.58 -32.16c-1.86,-4.03 -3.69,-8.08 -5.47,-12.15 -8.6,5.93 -19.27,4.51 -26.3,-4.06 -6.13,-7.48 -5.44,-17.67 -0.7,-25.6 1.5,-2.51 3.2,-5.14 5.45,-7.07 2.04,-1.75 3.88,-3.15 5.71,-4.3 -0.92,-2.81 -1.8,-5.62 -2.65,-8.42 -5.58,3.1 -10.56,7 -14.9,11.8 -1.83,2.02 -3.3,3.97 -4.82,6.25 -3.8,5.69 -8.82,6.98 -15.99,7.33 -7.82,0.39 -18.23,-7.56 -18.58,-14.63 -0.11,-2.2 0.38,-3.97 2.06,-5.14 2.38,-1.66 9.62,-3.04 12.23,1.08 0.37,0.58 0.7,1.07 1.07,1.69 1.37,2.27 2.78,4.83 5.97,4.68 4.23,-0.21 3.52,-5.2 3.4,-7.73 2.2,-0.11 4.39,-0.82 5.92,-1.85 2.15,-1.44 5.02,-5.63 0.24,-5.39 -4.73,0.23 -6.01,4.44 -11.38,0.19 -3.39,-2.69 -6.78,-2.97 -10.95,-3.38 -1.53,-0.15 -1.56,0.1 -2.81,0.23 -7.29,0.72 -12.03,4.4 -14.44,9.54 -1.45,-0.87 -2.64,-1.79 -4.21,-2.65 -2.76,-1.51 -7.06,-3.86 -10.46,-3.25 -3.84,0.7 -4.94,3.88 -2.05,6.67 1,0.97 1.65,1.4 2.93,2.07 2.25,1.19 4.36,2.07 6.46,3.48l2.77 2.25c3.07,2.8 5.49,6.16 8.15,9.34 5.15,6.15 8.35,8.49 16.61,10.84 2.71,0.77 6.56,1.02 9.84,0.86 2.17,-0.11 3.75,-0.6 5.64,-0.7 -1.14,2.72 -1.75,13.41 6.25,7.46 0.62,2.17 3.15,7.13 4.47,8.54l3.4 3.1c6.98,5.63 19.75,8 16.57,20.11 -0.15,0.55 -0.26,1.12 -0.44,1.8 -0.2,0.78 -0.41,1.16 -0.57,1.88 -0.33,1.45 -0.68,2.34 -0.22,3.9 1.35,4.57 6.71,1.51 8.38,-2.31 1.77,-4.03 2.15,-8.7 1.25,-13.17 -0.16,-0.81 -0.59,-1.91 -0.71,-2.75 1.76,-0.13 4.19,-0.69 5.85,-1.11 1.56,-0.4 3.93,-1.09 5.14,-1.74 0.49,0.82 1.16,1.6 1.92,2.32zm-323.11 -44.71c-0.98,2.77 -1.99,5.56 -3.05,8.35 3.76,2.25 6.83,5 9.69,8.91 4.15,5.67 6.15,14.04 3.54,21.19 -0.44,1.2 -0.93,2.18 -1.55,3.21 -6.21,10.32 -18.28,12.97 -28.18,6.27l-0.29 -0.2c-2.99,6.41 -6.07,12.77 -9.19,19.11 3.81,-1.7 6.53,-3.73 8.87,-7.63 2.62,1.1 8.42,1.9 11.22,1.76 -0.91,5.03 -0.96,7.25 0.56,12.2 0.89,2.9 3.57,7.76 6.93,7.59 1.1,-0.05 2.08,-0.31 2.67,-1.39 1.91,-3.49 -2.03,-7.04 -2.35,-13.54 -0.27,-5.46 4.39,-8.32 7.99,-10.98 1.3,-0.96 2.55,-1.81 3.76,-2.8 2.97,-2.42 5.6,-5.05 7.53,-8.4 0.96,-1.67 2.55,-4.93 2.61,-6.84 1.23,0.58 2.54,1.56 4.27,1.47 1.8,-0.09 2.6,-2.72 2.51,-4.54 -0.09,-1.87 -0.65,-3.48 -1.08,-4.99 0.75,-0.04 1.79,0.06 2.7,0.11 5.5,0.32 11.2,-0.93 16.06,-3.13 3.33,-1.51 6.05,-3.92 8.44,-6.56l4.37 -5.65c1.33,-1.96 2.54,-3.95 3.91,-5.86 3.97,-5.51 5.43,-5.91 10.51,-9.3 0.91,-0.61 2.12,-1.43 2.88,-2.2 3.15,-3.2 1.94,-7.09 -3.33,-6.82 -3.67,0.18 -7.42,3.05 -10.25,4.93 -0.64,0.43 -0.82,0.61 -1.37,1.16 -0.4,0.39 -0.93,0.9 -1.46,1.07 -0.65,-2.28 -4.38,-4.93 -6.35,-6.03 -5.21,-2.92 -13.99,-2.91 -19.15,0.14 -1.2,0.71 -2.25,1.54 -3.27,2.45 -5.08,4.51 -6.02,0.54 -11.69,0.82 -1.05,0.05 -2.21,0.91 -1.89,2.06 0.72,2.59 5.44,4.69 8.1,4.56l1.26 -0.06c-0.13,1.87 -0.11,4.35 0.92,5.84 2.4,3.5 6.72,0.42 8.01,-2.35 0.84,-1.82 1.61,-4.12 3.31,-5.21 2.61,-1.68 6.82,-1.71 9.58,-0.47 1.55,0.7 2.53,1.52 3.02,3.3 1.81,6.6 -5.51,13.85 -10.82,16.4 -5.05,2.43 -12.06,2.4 -17.06,0.45 -4.7,-1.83 -6.68,-6.29 -10.23,-9.47l-4.7 -3.87c-2.5,-1.91 -5.15,-3.59 -7.91,-5.04zm159.16 121.04c3.93,-0.09 7.9,-0.24 11.9,-0.43 0.39,-0.84 0.79,-1.84 1.25,-3.13 2.87,-8.01 5.15,-18.6 13.75,-22.38 6.55,-2.87 15.91,-1.53 21.16,3.26 0.94,0.86 1.76,1.51 2.56,2.48 0.87,1.05 1.33,1.83 2.11,2.98 1.6,2.36 2.57,6.16 2.73,9.36 0.06,1.12 -0.15,2.34 -0.55,3.53 3.02,-0.41 6.05,-0.85 9.09,-1.32 0.07,-1.35 0.04,-2.82 -0.04,-4.52 -0.17,-3.49 -1.47,-6.5 -2.86,-9.43 -6.47,-13.64 -19.3,-13.99 -19.42,-16.56 -0.09,-1.92 2.59,-3.6 4.16,-4.04 0.97,-0.28 2.51,-0.33 3.72,-0.63 4.89,-1.21 2.82,-4.68 -1.46,-5.07 -3.11,-0.28 -4.1,0.58 -6.83,1.36 -1.75,-2.94 -2.71,-4.28 -5.97,-5.79 -3.05,-1.41 -7.31,-1.17 -6.33,3.21 1.01,4.49 8.56,5.99 2.04,10.29 -0.68,0.45 -1.09,0.75 -1.83,1.15 -3.35,1.81 -6.97,3.07 -10.26,4.91 -0.92,0.52 -1.01,0.56 -1.79,1.22 -0.95,0.8 -0.9,0.39 -1.01,-0.92 -0.26,-3.4 -1.05,-6.97 -2.25,-10.12 -1.35,-3.53 -3.84,-4.92 -0.26,-7.58 7.15,-5.31 -3.27,-8.69 -7.39,0.11 -1.69,-0.31 -7.49,-3.03 -12.1,0.05 -3.91,2.61 -2.46,5.79 2.13,6.75 4.39,0.92 9.55,-2.58 10.3,12.72 0.53,10.71 -0.95,20.38 -6.54,28.56zm30.41 -1.65c2.05,-0.17 4.12,-0.36 6.19,-0.56 -1.02,-0.82 -2.02,-1.47 -4.03,-1.37 -1.1,0.05 -1.83,0.88 -2.16,1.93zm8.13 -0.75c1.96,-0.2 3.92,-0.41 5.88,-0.63 0.06,-0.44 0.2,-0.86 0.44,-1.22 1.04,-1.62 2.67,-2.67 2.56,-4.89 -0.18,-3.57 -6.86,-1.23 -8.43,3.77 -0.33,1.05 -0.44,1.88 -0.45,2.97z"/>
   <path class="fil1" d="M709.76 412.01c0,0 5.45,123.08 8.94,122.49 3.5,-0.59 5.76,-120.73 5.76,-120.73l-14.71 -1.76z"/>
   <path class="fil1" d="M523.33 831.8c0,0 195.75,85.57 383.89,-9.38l8.2 12.31c0,0 -166.16,99.64 -398.25,11.72l0.88 -12.31 5.28 -2.34z"/>
  </g>
 </g>
</svg>
