<?xml version="1.0" encoding="UTF-8"?>
<!DOCTYPE svg PUBLIC "-//W3C//DTD SVG 1.1//EN" "http://www.w3.org/Graphics/SVG/1.1/DTD/svg11.dtd">
<!-- Creator: CorelDRAW 2020 (64-Bit) -->
<svg xmlns="http://www.w3.org/2000/svg" xml:space="preserve" width="95.3695mm" height="150.032mm" version="1.1" style="shape-rendering:geometricPrecision; text-rendering:geometricPrecision; image-rendering:optimizeQuality; fill-rule:evenodd; clip-rule:evenodd"
viewBox="0 0 644.53 1013.96"
 xmlns:xlink="http://www.w3.org/1999/xlink"
 xmlns:xodm="http://www.corel.com/coreldraw/odm/2003">
 <defs>
  <style type="text/css">
   <![CDATA[
    .fil0 {fill:#501D33}
    .fil16 {fill:#646180}
    .fil10 {fill:#703D43}
    .fil9 {fill:#845451}
    .fil8 {fill:#89859B}
    .fil5 {fill:#926156}
    .fil13 {fill:#965F54}
    .fil14 {fill:#9893A0}
    .fil17 {fill:#AAA6B6}
    .fil4 {fill:#AE8567}
    .fil11 {fill:#AF8777}
    .fil12 {fill:#BE986E}
    .fil6 {fill:#C6A784}
    .fil7 {fill:#C7C0C9}
    .fil2 {fill:#D77D75}
    .fil15 {fill:#D7D1D7}
    .fil1 {fill:#FFCFA5}
    .fil3 {fill:#FFE0B3}
   ]]>
  </style>
 </defs>
 <g id="Слой_x0020_1">
  <metadata id="CorelCorpID_0Corel-Layer"/>
  <g id="_1063485744">
   <ellipse class="fil0" cx="322.27" cy="995.56" rx="322.27" ry="18.39"/>
   <path class="fil0" d="M185.9 652.39c0,0 -39.7,78.32 -41.13,89.05 -1.43,10.73 -9.66,26.82 40.41,187.04l62.94 -2.86c0,0 24.32,-155.92 30.04,-187.4 5.72,-31.47 -25.03,-90.12 -25.03,-90.12 0,0 -64.37,-5.01 -67.23,4.29z"/>
   <path class="fil0" d="M325.73 649.17c0,0 -4.47,24.14 3.4,39.16 7.87,15.02 79.21,188.65 93.52,233.71l57.22 0c0,0 26.46,-132.32 4.29,-187.4 -22.17,-55.07 -79.93,-91.91 -79.93,-91.91 0,0 -68.49,-20.74 -78.5,6.44z"/>
   <path class="fil0" d="M449.71 568.34c-1.1,3.95 -2.34,7.97 -3.71,12.03 -13.31,4.37 -48.56,13.36 -130.49,10.58l-1.96 -9.85c29.91,2.64 108.57,0.46 136.17,-12.76z"/>
   <path class="fil0" d="M174.11 48.72c0,0 15.02,22.89 -9.3,114.44 0,0 0.36,22.53 21.82,45.78 56.54,134.02 -63.77,195.91 -57.98,309.7 1.93,37.9 14.48,88.49 54.4,139.47l71.52 0.71 38.34 -165.79 32.62 169.72 80.1 -3.93c39.92,-50.98 50.33,-102.29 52.26,-140.19 5.79,-113.79 -114.52,-175.68 -57.98,-309.7 21.46,-23.25 21.82,-45.78 21.82,-45.78 -24.32,-91.55 -10.73,-109.08 -10.73,-109.08 -76.77,-63.53 -150.44,-78.18 -236.89,-5.36z"/>
   <path class="fil1" d="M195.06 659.65l51.87 1.29 -0.51 -12.33 38.55 -158.7 8.07 -23.92 8.56 26.26 33.06 157.64 63.74 -1.77c28.59,-37.82 46.95,-82.33 49.37,-129.99 1.38,-27.1 -4.9,-51.78 -15.22,-76.62 -5.63,-13.55 -12.23,-26.69 -18.86,-39.78 -8.22,-16.22 -16.53,-32.42 -23.35,-49.3 -20.56,-50.9 -21.31,-96.39 0.23,-147.44l0.69 -1.63 1.2 -1.3c7.2,-7.8 13.1,-16.98 16.52,-27.07 1.03,-3.05 2.21,-7.31 2.53,-10.8 -4.78,-18.12 -9.02,-36.62 -11.79,-55.15 -1.7,-11.4 -2.96,-23.29 -2.72,-34.83 0.09,-4.56 0.51,-11.08 1.92,-16.88 -29.51,-23.53 -64.43,-44.21 -102.68,-46.9 -41.64,-2.93 -78.53,16.13 -110.07,41.48 1.75,6.56 2.42,14.19 2.63,19.44 1.18,29.62 -6.25,64.25 -13.79,92.87 0.29,3.15 1.41,7.34 2.3,10.05 3.38,10.37 9.39,19.81 16.76,27.79l1.2 1.3 0.69 1.63c21.53,51.05 20.79,96.54 0.23,147.44 -6.82,16.88 -15.12,33.07 -23.35,49.3 -18.8,37.09 -36.26,73.53 -34.08,116.39 2.42,47.62 27.73,103.72 56.28,141.52z"/>
   <path class="fil2" d="M195.06 659.65l12.09 0.3c-0.07,-0.09 -57.21,-75.51 -47.92,-151.27 9.3,-75.82 34.33,-110.86 34.33,-110.86 0,0 -5.32,-5.23 -12.67,-12.01 -2.65,5.32 -5.35,10.63 -8.04,15.93 -18.8,37.09 -36.26,73.53 -34.08,116.39 2.42,47.62 27.73,103.72 56.28,141.52z"/>
   <path class="fil2" d="M388.23 648.4l10.17 -0.28c28.59,-37.82 46.95,-82.33 49.37,-129.99 1.38,-27.1 -4.9,-51.78 -15.22,-76.62 -5.63,-13.55 -12.23,-26.69 -18.86,-39.78 -5.9,-11.65 -11.85,-23.28 -17.26,-35.16 -4.05,6.92 -5.79,15.39 -0.56,24.55 15.17,26.59 24.94,67.45 24.09,115.41 -0.91,51.56 -13.06,109.29 -31.74,141.87z"/>
   <path class="fil1" d="M334.35 647.95c-0.32,10.2 -1.94,23.6 2.51,32.1 7.75,14.8 15.86,39.02 22.87,55.59 10.54,24.91 20.87,49.91 31.05,74.97 8.47,20.85 16.83,41.76 24.94,62.76 4.88,12.66 9.91,25.59 14.28,38.53l41.49 0c1.46,-8.04 2.72,-16.17 3.91,-24.2 3.45,-23.34 6.06,-47.04 7.08,-70.62 1.01,-23.23 1.04,-56.89 -7.72,-78.65 -9.6,-23.85 -27.19,-44.88 -46.26,-61.83 -8.72,-7.75 -22.48,-20.78 -30.34,-28.4 -11.1,-2.25 -6.67,-44.07 -17.73,-43.78 -7.02,0.18 -41.86,36.05 -46.08,43.53z"/>
   <path class="fil2" d="M454.67 911.9l16.81 0c1.46,-8.04 2.72,-16.17 3.91,-24.2 3.45,-23.34 6.06,-47.04 7.08,-70.62 1.01,-23.23 1.04,-56.89 -7.72,-78.65 -9.6,-23.85 -27.19,-44.88 -46.26,-61.83 -8.72,-7.75 -22.48,-20.78 -30.34,-28.4 -2.72,-0.55 -4.51,-3.48 -5.82,-7.59 -3.43,7.02 -7.12,13.19 -11.03,18.27 0,0 100.49,68.31 77.6,214.93 -2.27,14.53 -3.63,27.13 -4.25,38.09z"/>
   <path class="fil3" d="M323.72 564.47c7.37,36.87 17.67,77.35 27.56,78.32 8.24,0.81 20.68,-19.17 25.96,-42.87 20.68,-92.89 -78.07,-158.36 -53.52,-35.45z"/>
   <path class="fil3" d="M262.08 566.97c-7.37,36.87 -17.67,77.35 -27.56,78.32 -8.24,0.81 -20.68,-19.17 -25.96,-42.87 -20.68,-92.89 78.07,-158.36 53.52,-35.45z"/>
   <path class="fil2" d="M257.24 604.05l21.79 -89.69c-11.06,-12.78 -20.32,-21.72 -20.32,-21.72 0,0 -82.41,27.16 -113.99,62.91 4.02,15.8 9.8,31.76 16.76,47.06 21.76,1.61 57.14,3.3 95.77,1.45z"/>
   <path class="fil2" d="M316.62 563.9l7.61 36.26c13.82,0.75 55.55,2.41 103.67,-1.46 11.42,-25.27 18.44,-52.38 19.87,-80.59 0.32,-6.33 0.23,-12.53 -0.24,-18.63 -7.96,-7.92 -13.71,-12.99 -13.71,-12.99 0,0 -94.9,36.24 -117.19,77.4z"/>
   <path class="fil4" d="M261.52 586.44l23.45 -96.53 8.07 -23.92 8.56 26.26 20.12 95.94c21.99,0.09 72.58,8.55 112.62,-0.42 6.66,-19.32 12.37,-48.83 13.43,-69.65 1.38,-27.1 -4.9,-51.78 -15.22,-76.62 -5.63,-13.55 -12.23,-26.69 -18.86,-39.78 -8.22,-16.22 -16.53,-32.42 -23.35,-49.3 -14.18,-35.1 -18.93,-67.64 -13.46,-101.19 -73.12,-19 -146.08,-35.91 -177.16,-36.79 17.61,47.27 15.75,90.25 -3.53,137.98 -6.82,16.88 -15.12,33.07 -23.35,49.3 -18.8,37.09 -36.26,73.53 -34.08,116.39 1.1,21.67 6.94,45.09 15.67,67.75 30.36,4.89 67.36,6.95 107.07,0.56z"/>
   <path class="fil5" d="M179.3 415.43c0,0 40.77,14.3 112.65,16.81 71.88,2.5 121.23,-21.46 121.23,-21.46l-8.58 -16.45c0,0 -75.1,45.78 -218.15,5.72l-8.58 3.58 1.43 11.8z"/>
   <path class="fil5" d="M180.89 385.8c-2.65,5.32 -5.35,10.63 -8.04,15.93 -18.8,37.09 -36.26,73.53 -34.08,116.39 1.1,21.67 6.94,45.09 15.67,67.75 4.9,0.79 9.97,1.51 15.2,2.12 -8.33,-23.95 -13.83,-51.61 -10.43,-79.32 9.3,-75.82 34.33,-110.86 34.33,-110.86 0,0 -5.32,-5.23 -12.67,-12.01z"/>
   <path class="fil5" d="M411.13 582.89c8.53,-1.19 16.91,-2.64 24.82,-4.41 6.66,-19.32 10.76,-39.53 11.82,-60.35 1.38,-27.1 -4.9,-51.78 -15.22,-76.62 -5.63,-13.55 -12.23,-26.69 -18.86,-39.78 -5.9,-11.65 -11.85,-23.28 -17.26,-35.16 -4.05,6.92 -5.79,15.39 -0.56,24.55 15.17,26.59 24.94,67.45 24.09,115.41 -0.44,25.2 -3.57,51.87 -8.84,76.36z"/>
   <path class="fil6" d="M328.81 588.19c12.68,-0.07 30.96,-0.49 50.65,-1.97 8.88,-85.26 -79.07,-138.51 -55.75,-21.75 1.57,7.88 3.28,15.93 5.09,23.72z"/>
   <path class="fil6" d="M256.98 590.69c-12.68,-0.07 -30.96,-0.49 -50.65,-1.97 -8.88,-85.26 79.07,-138.51 55.75,-21.75 -1.57,7.88 -3.28,15.93 -5.09,23.72z"/>
   <path class="fil0" d="M270.8 579.75c-1.48,3.83 -0.41,6.81 -2.16,10.73 -13.66,3.08 -49.62,8.64 -130.91,-1.97l-1.01 -10c29.52,5.49 100.87,10.86 134.08,1.24z"/>
   <path class="fil0" d="M450.33 583.32c-1.48,3.83 -0.41,6.81 -2.16,10.73 -13.66,3.08 -49.62,8.64 -130.91,-1.97l-1.01 -10c29.52,5.49 100.87,10.86 134.08,1.24z"/>
   <path class="fil7" d="M408.36 391.19c-6.41,-12.73 -12.67,-25.53 -18.01,-38.76 -20.56,-50.9 -21.31,-96.39 0.23,-147.44l0.69 -1.63 1.2 -1.3c7.2,-7.8 13.1,-16.98 16.52,-27.07 1.03,-3.05 2.21,-7.31 2.53,-10.8 -4.78,-18.12 -9.02,-36.62 -11.79,-55.15 -1.7,-11.4 -2.96,-23.29 -2.72,-34.83 0.09,-4.56 0.51,-11.08 1.92,-16.88 -29.51,-23.53 -64.43,-44.21 -102.68,-46.9 -41.64,-2.93 -78.53,16.13 -110.07,41.48 1.75,6.56 2.42,14.19 2.63,19.44 1.18,29.62 -6.25,64.25 -13.79,92.87 0.29,3.15 1.41,7.34 2.3,10.05 3.38,10.37 9.39,19.81 16.76,27.79l1.2 1.3 0.69 1.63c21.53,51.05 20.79,96.54 0.23,147.44 -5.91,14.63 -12.94,28.75 -20.06,42.81 38.98,14.35 132.55,39.25 232.22,-4.06z"/>
   <path class="fil8" d="M239.36 222.2c0,0 53.29,-15.38 119.09,0.72 -32.42,-27.37 -88.26,-33.09 -119.09,-0.72z"/>
   <path class="fil8" d="M396.98 76.68c0,-0.82 0.01,-1.64 0.03,-2.47 0.09,-4.56 0.51,-11.08 1.92,-16.88 -29.51,-23.53 -64.43,-44.21 -102.68,-46.9 -41.64,-2.93 -78.53,16.13 -110.07,41.48 1.57,5.92 2.27,12.7 2.55,17.82 19.74,10.2 46.15,20.75 74.26,26.9 33.07,7.23 41.39,7.21 74.49,-0.07 21.61,-4.75 42.19,-12.1 59.5,-19.87z"/>
   <path class="fil1" d="M192.54 917.99l46.85 -2.13c4.6,-29.46 9.24,-58.92 13.92,-88.37 2.89,-18.22 5.8,-36.44 8.77,-54.64 1.98,-12.15 3.92,-24.34 6.12,-36.45 3.64,-19.99 -11.25,-57.69 -21.51,-78.6 -9.05,-0.58 -18.22,-0.9 -27.23,-0.92 -4.68,-0.01 -19.72,0.11 -25.38,1.81 -7.13,14.08 -14.12,28.28 -20.95,42.51 -4.26,8.88 -8.49,17.81 -12.46,26.83 -1.46,3.3 -2.89,6.63 -4.19,10 -0.53,1.38 -1.39,3.44 -1.64,4.75 -0.48,3.56 -1.12,6.56 -1.25,10.23 -0.27,7.91 0.87,16.52 2.11,24.31 2.83,17.85 7.17,35.83 11.68,53.32 7.56,29.31 16.2,58.44 25.17,87.36z"/>
   <path class="fil2" d="M205.19 657.25c-4.4,0.26 -8.65,0.7 -11.12,1.44 -7.13,14.08 -14.12,28.28 -20.95,42.51 -4.26,8.88 -8.49,17.81 -12.46,26.83 -1.46,3.3 -2.89,6.63 -4.19,10 -0.53,1.38 -1.39,3.44 -1.64,4.75 -0.48,3.56 -1.12,6.56 -1.25,10.23 -0.27,7.91 0.87,16.52 2.11,24.31 2.83,17.85 7.17,35.83 11.68,53.32 5.77,22.35 12.16,44.6 18.85,66.74 1.54,-13.73 2.03,-28.82 1.26,-45.38 0,0 -18.24,-39.7 -21.81,-104.43 0,0 14.66,-42.2 41.48,-87.62 0,0 -0.71,-0.94 -1.96,-2.7z"/>
   <path class="fil2" d="M204.49 674.71c0,0 5.54,17.17 19.85,18.6 14.31,1.43 20.38,-20.03 20.38,-20.03 0,0 -13.77,9.83 -40.23,1.43z"/>
   <path class="fil2" d="M341.99 672.38c7.2,19.98 34.15,25.82 34.15,-3.04 0,0 -7.69,11.44 -34.15,3.04z"/>
   <g>
    <path class="fil0" d="M504.61 842.32l-9.09 117.11 -1.61 28.06 -82.82 -47.41c-6.32,-31.43 -12.64,-62.53 -18.96,-93.96 33.23,-7.93 77.66,-11.97 112.48,-3.8z"/>
    <path class="fil9" d="M402.04 852.78l15.66 81.92 68.8 40.3c2.25,-37.83 5.71,-86.03 7.96,-123.86 -4.93,-2.95 -45.44,-7.33 -92.43,1.64z"/>
    <path class="fil10" d="M479.04 930.83c-0.96,1.88 -2.97,3.26 -5.32,3.41l-17.64 1.13c-2.58,0.16 -4.84,-1.19 -5.81,-3.24l-7.64 0.35 -13.43 -15.16 9.72 -17.14 10.79 -0.39c1.03,-1.67 2.92,-2.86 5.1,-3l17.64 -1.13c2.52,-0.16 4.74,1.13 5.74,3.1l11.57 -0.42c-0.71,10.7 -1.43,21.5 -2.13,32.1l-8.59 0.39z"/>
    <path class="fil11" d="M406.53 876.3l11.17 58.41 8.63 5.05c6.21,0.76 11.2,1.32 11.2,1.32l-7.71 -12.67 -10.53 -75.01c-0.81,-0.61 -10.32,-0.07 -11.58,5.1 -1.26,5.18 -2.95,6.5 -1.18,17.8z"/>
    <path class="fil11" d="M402.04 852.78l5.64 27.13 2.07 1.64c0.98,-1.5 1.57,-2.44 1.57,-2.44l-0.68 -19.38c0,0 31.6,-9.24 79.18,-10 -12.82,-2.58 -47.96,-4.56 -87.77,3.04z"/>
    <path class="fil10" d="M405.97 873.34l1.72 9.01c10.79,-2.26 45.17,-8.25 84.99,-2.6 0.29,-4.47 0.57,-8.88 0.84,-13.2 -16.26,-1.33 -43.48,-0.74 -87.55,6.79z"/>
    <path class="fil10" d="M465.03 962.42l21.47 12.58c2.6,-41.39 5.2,-82.77 7.79,-124.16 -7.51,-2.63 -19.71,-3.61 -29.3,-3.63 0.64,18.59 -1.01,82.08 0.03,115.22z"/>
    <path class="fil0" d="M414.05 927.84c-1.85,0.02 -52.84,57.67 -54.26,64.67l0.34 6.62c0,0 63.56,0.48 134.18,-3.97l0.01 -27.16c0,0 -80.28,-40.83 -80.27,-40.16z"/>
    <path class="fil9" d="M417.58 939.17c0,0 -25.04,23.88 -44,49.33 0,0 34.27,2.56 114.14,-2.08l-0.34 -33.23 -69.8 -14.02z"/>
    <path class="fil10" d="M437.96 978.45c13.32,0.51 29.62,0.9 49.85,-0.28l0.03 -26.92 -23.04 -6.11 -26.84 33.3z"/>
    <path class="fil11" d="M417.58 939.17c0,0 -16.06,16.02 -37.69,41.08 0,0 8.96,-0.07 33.23,-0.41l26.61 -36.54 -22.16 -4.13z"/>
    <path class="fil0" d="M376.61 975.62c1.21,-0.01 46.71,4.98 46.31,4.83 -0.4,-0.16 -48.51,0.67 -48.51,0.67l2.21 -5.5z"/>
    <path class="fil0" d="M496.64 871.64c0,0 -21.11,-4.76 -58.57,-2.84 0,0 34.91,-7.29 59.42,-4.82l0.7 4.08 -1.55 3.58z"/>
    <path class="fil0" d="M403.28 877.22c0,0 17.07,-4.92 31.23,-7.88 0,0 -20.63,-0.3 -32.88,0.83l-0.82 3.01 2.47 4.04z"/>
    <g>
     <polygon class="fil0" points="505.51,886.17 438.09,888.62 427.11,907.97 442.28,925.09 502.82,922.35 "/>
     <polygon class="fil12" points="497.55,915.85 499.05,892.6 441.45,894.53 433.86,907.63 443.88,918.79 "/>
     <path class="fil13" d="M435.98 907.08l8.49 10.62 51.21 -3.9 0.83 -11.86c0,0 -34.73,4.31 -60.53,5.14z"/>
     <g>
      <path class="fil0" d="M483.07 889.49l1.02 30.72c0.12,3.53 -2.9,6.63 -6.7,6.87l-19.92 1.28c-3.8,0.24 -7.01,-2.45 -7.12,-5.98l-1.02 -30.72c-0.12,-3.53 2.9,-6.63 6.7,-6.87l19.92 -1.28c3.8,-0.24 7.01,2.45 7.12,5.98z"/>
      <path class="fil7" d="M477.75 890.99l0.94 28.41c0.04,1.18 -0.97,2.21 -2.23,2.29l-18.42 1.18c-1.27,0.08 -2.33,-0.82 -2.37,-1.99l-0.94 -28.41c-0.04,-1.18 0.97,-2.21 2.23,-2.29l18.42 -1.18c1.27,-0.08 2.33,0.82 2.37,1.99z"/>
      <path class="fil14" d="M478.31 907.67l0.39 11.73c0.04,1.18 -0.97,2.21 -2.23,2.29l-18.42 1.18c-1.26,0.08 -2.33,-0.82 -2.37,-1.99l-0.46 -14.01c8.21,0.86 16.47,0.96 23.1,0.8z"/>
      <polygon class="fil0" points="473.2,894.8 473.91,916.19 460.22,917.07 459.51,895.68 "/>
      <rect class="fil0" transform="matrix(-0.0282119 -0.851331 -0.850457 0.0546002 471.632 914.192)" width="20.1" height="10.91"/>
     </g>
    </g>
    <path class="fil0" d="M491.51 971.66c0,0 -55.09,8.09 -54.12,8.25 0.97,0.15 53.54,-0.31 53.54,-0.31l0.58 -7.93z"/>
   </g>
   <g>
    <path class="fil0" d="M152.79 851.6l14.55 115.85 1.22 35.04 81.7 -58.24c4.79,-31.5 9.6,-62.69 14.39,-94.19 -33.37,-6.31 -77.67,-8.22 -111.86,1.54z"/>
    <path class="fil9" d="M255.12 857.14l-11.69 82.07 -66.41 43.26c-4.02,-37.45 -9.73,-85.15 -13.75,-122.6 4.76,-3.16 44.77,-9.43 91.85,-2.73z"/>
    <path class="fil10" d="M182.35 938.27c1.04,1.82 3.1,3.1 5.44,3.14l17.57 0.29c2.57,0.04 4.75,-1.41 5.62,-3.49l7.61 -0.02 12.62 -15.69 -10.46 -16.55 -10.73 0.12c-1.11,-1.61 -3.03,-2.71 -5.2,-2.74l-17.57 -0.29c-2.51,-0.04 -4.66,1.35 -5.56,3.35l-11.51 0.13c1.21,10.59 2.43,21.28 3.63,31.77l8.55 -0.02z"/>
    <path class="fil11" d="M251.77 880.7l-8.33 58.52 -8.33 5.42c-6.12,1.05 -11.06,1.84 -11.06,1.84l7.05 -12.95 6.92 -74.97c0.78,-0.64 10.24,-0.56 11.74,4.52 1.5,5.08 3.24,6.32 2.01,17.62z"/>
    <path class="fil11" d="M255.12 857.14l-4.32 27.2 -1.98 1.73c-1.05,-1.44 -1.67,-2.35 -1.67,-2.35l-0.24 -19.27c0,0 -31.81,-7.68 -79.08,-6.19 12.6,-3.16 47.41,-6.79 87.29,-1.12z"/>
    <path class="fil10" d="M252.19 877.74l-1.28 9.02c-10.82,-1.74 -45.24,-6.06 -84.5,1.43 -0.5,-4.43 -0.99,-8.79 -1.46,-13.07 16.08,-2.09 43.13,-2.79 87.25,2.61z"/>
    <path class="fil10" d="M197.75 968.97l-20.73 13.5c-4.53,-40.97 -9.07,-81.94 -13.6,-122.91 7.34,-2.97 19.39,-4.51 28.92,-4.99 0.24,18.49 4.88,81.45 5.41,114.4z"/>
    <path class="fil0" d="M246.73 932.23c1.84,-0.07 55.18,54.76 56.92,61.64l-0.02 6.59c0,0 -64.66,3.22 -134.99,2.14l0.28 -26.71c0,0 77.78,-44.32 77.81,-43.66z"/>
    <path class="fil9" d="M243.76 943.65c0,0 25.99,22.53 46.02,46.9 0,0 -33.91,4.16 -113.43,3.33l-1.23 -33.01 68.64 -17.21z"/>
    <path class="fil10" d="M225.39 983.6c-13.2,1.13 -29.37,2.29 -49.5,2.08l-1.31 -26.72 22.59 -7.15 28.22 31.8z"/>
    <path class="fil11" d="M243.76 943.65c0,0 16.7,15.15 39.36,39.01 0,0 -8.9,0.36 -33.02,1.16l-28.15 -35.02 21.8 -5.15z"/>
    <path class="fil0" d="M286.17 977.9c-1.2,0.05 -46.14,7.15 -45.75,6.98 0.39,-0.18 48.2,-1.62 48.2,-1.62l-2.45 -5.36z"/>
    <path class="fil0" d="M162.09 880.33c0,0 20.73,-5.72 58.02,-5.59 0,0 -35,-5.59 -59.23,-1.98l-0.5 4.09 1.71 3.48z"/>
    <path class="fil0" d="M255.03 881.46c0,0 -17.18,-4.08 -31.38,-6.35 0,0 20.47,-1.28 32.68,-0.73l0.96 2.95 -2.26 4.13z"/>
    <g>
     <polygon class="fil0" points="153.96,895.17 221.02,894.43 232.83,913.12 218.58,930.83 158.34,930.96 "/>
     <polygon class="fil12" points="163.26,924.27 160.68,901.25 217.96,900.45 226.11,913.09 216.69,924.65 "/>
     <path class="fil13" d="M223.98 912.65l-7.93 10.95 -51.03 -1.46 -1.38 -11.73c0,0 34.68,2.64 60.34,2.24z"/>
     <g>
      <path class="fil0" d="M176.4 897.41l0.44 30.55c0.05,3.51 3.19,6.44 6.97,6.5l19.84 0.33c3.79,0.06 6.84,-2.76 6.79,-6.28l-0.44 -30.55c-0.05,-3.51 -3.19,-6.44 -6.97,-6.5l-19.84 -0.33c-3.78,-0.06 -6.84,2.76 -6.79,6.28z"/>
      <path class="fil7" d="M181.75 898.65l0.41 28.25c0.02,1.17 1.06,2.15 2.32,2.17l18.35 0.3c1.26,0.02 2.28,-0.92 2.26,-2.09l-0.41 -28.25c-0.02,-1.17 -1.06,-2.15 -2.32,-2.17l-18.35 -0.3c-1.26,-0.02 -2.28,0.92 -2.26,2.09z"/>
      <path class="fil14" d="M181.98 915.23l0.17 11.67c0.02,1.17 1.06,2.14 2.32,2.17l18.35 0.3c1.26,0.02 2.28,-0.92 2.26,-2.09l-0.2 -13.93c-8.11,1.24 -16.31,1.73 -22.9,1.88z"/>
      <polygon class="fil0" points="186.45,902.21 186.76,923.49 200.39,923.72 200.08,902.44 "/>
      <rect class="fil0" transform="matrix(-0.0121685 -0.846592 0.846969 0.0140729 188.919 921.396)" width="20.1" height="10.91"/>
     </g>
    </g>
    <path class="fil0" d="M171.9 979.39c0,0 55.08,5.44 54.12,5.63 -0.96,0.2 -53.18,2.21 -53.18,2.21l-0.95 -7.85z"/>
   </g>
   <path class="fil0" d="M251.35 482.1c25.21,17.29 54.51,21.99 82.92,-1.79 0,0 -33.22,-10.3 -82.92,1.79z"/>
   <path class="fil4" d="M247.36 481.27c36.73,6.54 56.35,7.93 92.62,-2.68 0,0 -18.95,-20.56 -20.38,-20.74 -1.43,-0.18 -30.04,-6.97 -32.9,-5.54 -2.86,1.43 -39.34,28.97 -39.34,28.97z"/>
   <path class="fil0" d="M172.94 48.53c-124.22,97.78 -199.45,322.88 -99.13,467.96 0,0 54.36,-15.51 83.57,-38.59 -3.59,-4.62 -7.01,-10.4 -16.64,-30.37 -16.59,-45.87 -40.01,-158.43 35.09,-259.18 -7.97,-15.08 -8.15,-25.19 -8.15,-25.19 24.32,-91.55 7.56,-116.23 7.56,-116.23l-2.29 1.6z"/>
   <path class="fil7" d="M177.1 58.04c-57.56,46.08 -99.81,117.64 -121.14,184.7 -27.37,86.1 -24.8,190.87 26.78,264.9 5.84,-1.53 46.39,-19.91 63.17,-28.33 -12.22,-18.51 -16.1,-31.78 -18.04,-37.69 -8.74,-26.68 -14.01,-54.82 -15.28,-82.87 -3.09,-67.91 17.34,-128.35 55.66,-179.71 -3.34,-9.49 -3.44,-15.88 -3.44,-15.88 54.84,-43.17 20.66,-92.64 12.29,-105.12z"/>
   <path class="fil15" d="M177.1 58.04c-57.56,46.08 -99.81,117.64 -121.14,184.7 -27.37,86.1 -24.8,190.87 26.78,264.9 0.56,-0.15 1.45,-0.45 2.61,-0.89 -47.51,-73.6 -49.21,-174.94 -22.59,-258.65 20.63,-64.9 60.87,-134.01 115.61,-180.16 -0.29,-4 -0.75,-7.28 -1.27,-9.91z"/>
   <path class="fil8" d="M142.23 473.47c-9.35,-15.46 -12.62,-26.58 -14.35,-31.86 -8.74,-26.68 -14.01,-54.82 -15.28,-82.87 -3.09,-67.91 17.34,-128.35 55.66,-179.71 -1.88,-5.36 -2.74,-9.73 -3.12,-12.52 -130.38,142.95 -35.44,307.35 -37.1,307.35l14.19 -0.4z"/>
   <path class="fil0" d="M341.54 672.21c0,0 17.78,6.13 34.72,-3.22 -8.39,17.97 -26.67,16.66 -34.72,3.22z"/>
   <path class="fil0" d="M204.04 674.07c0,0 20.97,7.28 41.76,-1.74 -11.02,18.49 -32.85,16.25 -41.76,1.74z"/>
   <path class="fil0" d="M412.53 54.97c124.22,97.78 199.45,322.88 99.13,467.96 0,0 -54.36,-15.51 -83.57,-38.59 3.59,-4.62 7.01,-10.4 16.64,-30.37 16.59,-45.87 40.01,-158.43 -35.09,-259.18 7.97,-15.08 8.15,-25.19 8.15,-25.19 -24.32,-91.55 -7.56,-116.23 -7.56,-116.23l2.29 1.6z"/>
   <path class="fil7" d="M408.37 64.48c57.56,46.08 99.81,117.64 121.14,184.7 27.37,86.1 24.8,190.87 -26.78,264.9 -5.84,-1.53 -46.39,-19.91 -63.17,-28.33 12.22,-18.51 16.1,-31.78 18.04,-37.69 8.74,-26.68 14.01,-54.82 15.28,-82.87 3.09,-67.91 -17.34,-128.35 -55.66,-179.71 3.34,-9.49 3.44,-15.88 3.44,-15.88 -48.4,-63.55 -28.17,-95.5 -12.29,-105.12z"/>
   <path class="fil15" d="M408.37 64.48c57.56,46.08 99.81,117.64 121.14,184.7 27.37,86.1 24.8,190.87 -26.78,264.9 -0.56,-0.15 -1.45,-0.45 -2.61,-0.89 47.51,-73.6 49.21,-174.94 22.59,-258.65 -20.63,-64.9 -60.87,-134.01 -115.61,-180.16 0.29,-4 0.75,-7.28 1.27,-9.91z"/>
   <path class="fil8" d="M443.24 479.91c9.35,-15.46 12.62,-26.58 14.35,-31.86 8.74,-26.68 14.01,-54.82 15.28,-82.87 3.09,-67.91 -17.34,-128.35 -55.66,-179.71 1.88,-5.36 2.74,-9.73 3.12,-12.52 130.38,142.95 35.44,307.35 37.1,307.35l-14.19 -0.4z"/>
   <path class="fil16" d="M178.06 395.95c-0.58,-0.32 -1.15,-0.69 -1.71,-1.11 0.93,-1.83 1.85,-3.66 2.77,-5.49 4.37,1.98 9.62,1.57 15.34,-4.62 -3.44,-0.67 -6.91,-2.84 -9.7,-6.79 0.72,-1.49 1.44,-2.98 2.15,-4.48 5.01,4.62 12.15,7.23 20.16,-1.82 -5.02,-1.81 -9.74,-6.99 -11.97,-16.52l0.63 -1.53c3.68,6.2 14.32,20.06 27.05,3.94 -6.09,-0.23 -12.51,-5.29 -15.21,-16.95 -0.28,-0.06 -0.59,-0.11 -0.87,-0.14 -0.51,7.24 -5.25,12.01 -10.83,12.8l0.32 -0.8c1.04,-2.59 2.04,-5.16 2.98,-7.72 1.85,-0.98 3.78,-2.53 5.76,-4.79 -1.17,-0.41 -2.32,-1.01 -3.44,-1.81 0.68,-2.02 1.32,-4.03 1.93,-6.03 4.55,2.27 10.2,1.96 16.36,-5.31 -4.56,-0.53 -9.18,-3.79 -12.18,-10.55 0.32,-1.44 0.62,-2.87 0.9,-4.31 4.71,6.15 13.51,13.24 23.79,0.83 -5.11,-1.55 -9.97,-6.76 -12.09,-16.84 -0.25,0 -0.46,0 -0.71,-0.03 -0.24,7.6 -4.97,12.85 -10.6,13.98 0.49,-2.61 0.91,-5.22 1.28,-7.83 2.5,-0.96 5.14,-2.92 7.89,-6.29 -2.34,-0.41 -4.69,-1.54 -6.79,-3.52 0.19,-2.26 0.33,-4.52 0.43,-6.78 4.95,3.99 11.86,5.64 19.58,-3.78 -5.07,-1.46 -9.9,-6.59 -12.06,-16.53 -0.24,0.03 -0.49,0.06 -0.73,0.08 -0.27,5.57 -2.97,9.87 -6.64,12.16 -0.01,-2.5 -0.08,-5 -0.21,-7.51 1.65,-1.08 3.36,-2.62 5.11,-4.74 -1.89,-0.19 -3.8,-0.85 -5.6,-2.05 -0.24,-2.62 -0.55,-5.25 -0.92,-7.88 4.91,3.65 11.59,4.82 19.04,-4.35 -5.12,-1.41 -10.33,-9.59 -12.46,-19.86l-0.15 -0.01c-0.33,6.24 -3.6,12.7 -7.82,15.78 -0.47,-2.5 -1.01,-5 -1.59,-7.51 2.29,-1.35 4.75,-3.6 7.38,-6.92l1.24 -1.45c-6.38,-1 -13.18,-7.26 -15.6,-18.56 -0.25,0 -0.5,-0.03 -0.77,-0.03 -0.02,0.44 -0.06,0.87 -0.11,1.29 -1.07,-2.85 -2.21,-5.71 -3.43,-8.59l-0.32 -0.76c4.25,1.66 9.29,0.99 14.74,-5.04 -5.14,-1.94 -10.02,-7.43 -12.14,-17.54 -0.25,-0.03 -0.47,-0.06 -0.72,-0.08 -0.24,7.09 -4.59,11.71 -9.91,12.63 -1.69,-2.34 -3.27,-4.77 -4.69,-7.28 3.91,0.87 8.38,-0.35 13.16,-5.64 -5.57,-1.46 -11.13,-6.95 -13.59,-17.57 -0.28,-0.09 -0.6,-0.14 -0.88,-0.2 -0.31,4.23 -2.12,7.5 -4.7,9.52 -0.58,-1.92 -1.19,-4.28 -1.58,-6.47 1.48,-0.83 2.99,-2.01 4.55,-3.61 -1.34,-0.56 -2.66,-1.35 -3.92,-2.4 0.51,-1.98 1.02,-3.98 1.52,-6 4.71,3.05 10.71,3.62 17.32,-3.53 -5.14,-1 -10.34,-5.35 -13.25,-13.98 0.24,-1.1 0.47,-2.2 0.7,-3.31 4.3,6.54 13.86,16.96 25.16,4.2 -5.32,-1.92 -10.31,-7.63 -12.35,-18.3 -0.19,0 -0.34,0 -0.49,0 0.1,8.72 -5.73,14.03 -12.28,13.94 0.5,-2.43 0.99,-4.88 1.45,-7.34 3.09,-0.51 6.43,-2.46 9.94,-6.63 -2.75,-0.28 -5.58,-1.53 -8.1,-3.89 0.33,-2.1 0.65,-4.2 0.94,-6.31 4.89,3.79 11.46,5.18 18.77,-3.18 -5.1,-1.8 -9.94,-7.12 -12.07,-17.04 -0.28,0 -0.52,0 -0.77,0 -0.21,4.48 -2.05,8 -4.71,10.21 0.28,-2.73 0.52,-5.45 0.71,-8.15 0.75,-0.64 1.5,-1.38 2.27,-2.23 -0.7,-0.12 -1.4,-0.31 -2.09,-0.56 0.13,-2.37 0.23,-4.73 0.27,-7.07 4.18,1.37 9.1,0.41 14.41,-5.69 -5.13,-1.8 -10,-7.15 -12.14,-17.21 -0.22,0 -0.43,0 -0.68,-0.03 -0.09,2.84 -0.84,5.31 -2.03,7.32 -0.17,-1.96 -0.4,-4.04 -0.72,-6.14 0.43,-0.44 0.87,-0.91 1.31,-1.41 -0.54,-0.12 -1.08,-0.28 -1.61,-0.48 -0.34,-1.98 -0.75,-3.96 -1.25,-5.85 0.52,-0.42 1.04,-0.83 1.56,-1.24 4.21,1.41 9.19,0.46 14.58,-5.78 -1.37,-0.46 -2.73,-1.18 -4.02,-2.18 2.15,-1.54 4.33,-3.04 6.52,-4.51 3.69,0.3 7.86,-1.4 12.3,-6.77 -0.39,-0.04 -0.78,-0.1 -1.17,-0.18 4.48,-2.6 9.04,-5.02 13.69,-7.23 -1.91,3.79 -5.17,6.39 -8.8,7.23 3.95,6.14 13.81,17.26 25.59,2.45 -4.88,-0.29 -9.84,-3.78 -12.78,-11.52 0.96,-0.43 1.93,-0.84 2.9,-1.25 4.92,5.37 13.02,9.79 22.31,-2.24 -2.1,-0.51 -4.16,-1.65 -6,-3.53 6.67,-1.92 13.5,-3.34 20.47,-4.17 -2.24,4.35 -6.11,7.27 -10.26,7.95 4.21,5.94 13.65,15.12 24.86,0.17 -3.86,-0.53 -7.62,-3.18 -10.24,-8.56 2,-0.17 4.01,-0.29 6.03,-0.35 3.04,1.75 6.7,2.36 10.77,0.12 0.59,0.03 1.17,0.07 1.76,0.11 1.78,0.13 3.55,0.29 5.31,0.49 -2.13,4.11 -5.66,6.99 -9.48,7.91 4.14,5.86 13.64,14.98 24.86,-0.68 -3.36,-0.33 -6.65,-2.3 -9.17,-6.37 5.86,0.96 11.63,2.33 17.31,4.04 -1.25,0.88 -2.59,1.55 -3.97,1.97 3.54,4.82 10.92,11.85 19.96,3.8 1.53,0.65 3.06,1.31 4.58,2 -2.07,4.15 -5.45,7.22 -9.13,8.47 3.92,5.5 13.16,14.31 24.2,-0.83 0.75,0.42 1.5,0.85 2.25,1.28 -1.36,7.13 -6.31,12.59 -11.76,14.16 4.23,5.46 13.55,13.29 24.51,-3.27 -4.02,-0.35 -7.88,-3.18 -10.29,-9.46 5.26,3.11 10.4,6.43 15.42,9.9 1.65,1.87 3.88,3.78 6.56,4.67 2.89,2.11 5.74,4.27 8.54,6.46 -0.28,0.15 -0.55,0.28 -0.83,0.41 0.85,1.15 2,2.51 3.42,3.7 -0.39,1.91 -0.69,3.87 -0.91,5.78 -1.53,-2.17 -2.79,-5.15 -3.61,-9.06 -0.21,0.06 -0.42,0.14 -0.63,0.2 -0.17,8.42 -5.42,15.66 -11.4,18.08 2.85,3.66 8.26,8.47 15.03,5.18 0.04,2.46 0.13,4.92 0.28,7.39l-0.03 0.01 0.03 0.04c0.12,2 0.27,4 0.45,6 -0.71,-1.56 -1.32,-3.39 -1.8,-5.51 -0.27,0.06 -0.51,0.14 -0.78,0.23 -0.41,8.47 -5.91,15.71 -12.04,17.85 3.17,3.92 9.19,8.9 16.62,3.77 0.34,2.3 0.71,4.6 1.1,6.91 -0.69,0.52 -1.41,0.97 -2.14,1.35 0.69,1.01 1.71,2.32 3,3.54 0.51,2.82 1.05,5.65 1.62,8.47 -2.36,-2.27 -4.28,-6.06 -5.34,-11.7 -0.15,0.06 -0.3,0.11 -0.45,0.2 0.2,8.84 -5.19,16.64 -11.41,19.23 3.42,4.35 10.52,10.25 19.22,1.79 0.47,2.12 0.95,4.23 1.45,6.35 -1.62,1.81 -3.47,3.25 -5.4,4.2 1.69,2.14 4.38,4.76 7.78,5.63 0.65,2.6 1.32,5.18 1.99,7.77 -4.69,-0.21 -9.05,-3.93 -11.09,-12.86 -0.24,0.11 -0.51,0.2 -0.75,0.25 -0.41,8.5 -5.9,15.83 -12.02,18.08 4.14,5.13 13.23,11.96 24.01,-4.93l0.23 0.87c-0.29,3.12 -1.26,6.86 -2.2,9.79 -1.94,2.78 -4.4,4.98 -7.02,6.29 0.78,1.03 1.82,2.23 3.08,3.3 -0.63,1.26 -1.31,2.51 -2.01,3.74 -0.89,-1.78 -1.63,-3.94 -2.18,-6.53 -0.21,0.08 -0.42,0.17 -0.63,0.22 -0.17,8.45 -5.41,15.85 -11.38,18.44 0.78,0.99 1.75,2.06 2.89,3.02l-0.82 0.89 -0.69 1.63c-0.2,0.47 -0.39,0.93 -0.58,1.4 -0.92,-1.74 -1.71,-3.85 -2.3,-6.37 -0.27,0.08 -0.57,0.14 -0.85,0.2 -0.48,7.97 -5.43,14.78 -11.11,17.12 1.03,1.37 4.31,4.97 7.42,7.76 -0.52,1.65 -1.01,3.29 -1.48,4.93 -2.03,-2.95 -6.6,-9.3 -7.26,-12.24 -0.25,0.03 -0.51,0.14 -0.76,0.2 -0.28,5.85 -4.78,11.46 -10.15,14.04 3.02,3.98 8.91,9.38 16.23,5.27 -0.85,3.48 -1.59,6.93 -2.23,10.38 -0.16,-0.56 -0.31,-1.14 -0.46,-1.74 -0.3,0.06 -0.58,0.11 -0.88,0.17 -0.49,7.88 -5.42,14.39 -11.11,16.67 2.01,2.71 5.45,6.28 9.84,6.88 -0.13,2.47 -0.2,4.93 -0.22,7.4 -4.62,-0.73 -8.94,-4.86 -10.94,-13.88 -0.27,0.08 -0.51,0.17 -0.79,0.2 -0.41,8.5 -5.94,15.26 -12.1,17.04 4.14,5.35 13.16,12.96 23.83,-2.27 -0,2.4 0.04,4.8 0.15,7.21 -2.08,3.98 -5.32,7.02 -8.85,8.43 1.96,2.77 5.57,6.75 10.25,7.33 0.34,2.5 0.73,5 1.18,7.51 -5.27,0.02 -10.35,-4.13 -12.51,-14.45 -0.21,0.06 -0.42,0.11 -0.63,0.17 -0.17,8.42 -5.45,15.29 -11.49,17.4 4.1,5.48 13.52,13.74 24.65,-3.04 0.28,1.57 0.59,3.15 0.91,4.73 -1.77,5.62 -5.77,10.06 -10.2,11.88 2.73,3.66 8.06,8.79 14.77,6.09 0.66,2.18 1.36,4.37 2.1,6.57 -0.73,0.41 -1.48,0.76 -2.24,1.03 1.02,1.26 2.33,2.63 3.9,3.74 1.1,3.05 2.26,6.13 3.51,9.22 -3.84,-1.23 -7.25,-5.1 -9.04,-12.53 -0.3,0.06 -0.61,0.11 -0.91,0.14 -0.51,7.63 -5.17,14.08 -10.6,16.53 2.96,4.56 11.86,14.84 22.87,1.48 0.68,1.59 1.37,3.18 2.06,4.77 -2.13,3.94 -5.33,6.99 -8.78,8.43 2.84,3.61 8.22,8.3 14.95,4.93 0.94,1.96 1.89,3.91 2.84,5.85 -0.82,0.61 -1.67,1.13 -2.53,1.55 1.33,1.68 3.28,3.67 5.71,4.86l1.63 3.24c-1.46,0.63 -2.91,1.25 -4.36,1.85 -1.82,-2.07 -3.32,-5.15 -4.29,-9.41 -0.24,0.11 -0.51,0.2 -0.75,0.25 -0.25,5.12 -2.33,9.81 -5.29,13.22 -4.72,1.76 -9.43,3.36 -14.11,4.83 -3.66,-1.53 -6.88,-5.62 -8.55,-13.05 -0.27,0.11 -0.51,0.17 -0.79,0.2 -0.41,8.48 -5.94,15.38 -12.08,17.29 0.3,0.38 0.63,0.78 0.97,1.17 -0.75,0.18 -1.51,0.35 -2.26,0.52 -0.13,-0.45 -0.25,-0.91 -0.36,-1.39 -0.31,0.03 -0.61,0.06 -0.92,0.09 -0.04,0.55 -0.1,1.09 -0.17,1.63 -1.14,0.25 -2.27,0.5 -3.4,0.74 0.6,-0.74 1.2,-1.56 1.81,-2.45 -4.92,-0.68 -9.56,-4.96 -11.69,-14.5 -0.24,0.08 -0.51,0.14 -0.76,0.17 -0.41,8.45 -5.97,14.98 -12.15,16.44 0.9,1.21 2.03,2.54 3.37,3.73 -1.28,0.18 -2.55,0.35 -3.82,0.51 -0.45,-1.21 -0.85,-2.54 -1.19,-3.99 -0.31,0 -0.61,0.03 -0.92,0.03 -0.11,1.51 -0.38,2.96 -0.79,4.32 -1.85,0.22 -3.7,0.41 -5.54,0.6 1.48,-1.28 3,-2.96 4.56,-5.11 -4.94,-0.87 -9.6,-5.46 -11.74,-15.09 -0.24,0.06 -0.52,0.08 -0.77,0.08 -0.42,8.39 -5.99,14.62 -12.2,15.74 1.31,1.83 3.11,3.92 5.3,5.49 -1.72,0.09 -3.44,0.15 -5.15,0.21 -0.65,-1.48 -1.21,-3.15 -1.68,-5.02 -0.17,1.84 -0.59,3.55 -1.22,5.11 -2.21,0.05 -4.4,0.08 -6.58,0.08 1.92,-1.24 3.93,-3.13 5.99,-5.84 -5.23,-0.73 -10.33,-5.32 -12.67,-15.21 -0.63,8.03 -6.13,13.69 -12.21,14.42 1.47,2.13 3.57,4.64 6.16,6.41 -1.94,-0.07 -3.86,-0.16 -5.76,-0.27 -0.79,-1.76 -1.46,-3.77 -2,-6.06 -0.28,0 -0.59,-0.03 -0.87,-0.08 -0.14,2.15 -0.64,4.13 -1.4,5.88 -2.19,-0.15 -4.37,-0.32 -6.51,-0.51 1.99,-1.16 4.06,-2.99 6.2,-5.68 -5.09,-1.32 -9.91,-6.34 -12.05,-16.3 -0.24,0.03 -0.49,0.08 -0.73,0.11 -0.4,8.25 -6.05,13.83 -12.31,14.28 1.33,1.98 3.19,4.31 5.47,6.14 -1.82,-0.24 -3.62,-0.48 -5.4,-0.74 -0.65,-1.6 -1.21,-3.38 -1.67,-5.36 -0.28,-0.03 -0.59,-0.06 -0.87,-0.11 -0.12,1.79 -0.49,3.44 -1.06,4.93 -1.84,-0.29 -3.66,-0.59 -5.45,-0.9 1.54,-1.03 3.14,-2.47 4.76,-4.4 -5.09,-1.66 -9.92,-6.93 -12.06,-16.9 -0.28,0 -0.52,0.06 -0.77,0.06 -0.37,8.17 -6.05,13.46 -12.33,13.54 0.87,1.34 1.97,2.84 3.27,4.26 -1.33,-0.3 -2.65,-0.61 -3.94,-0.92 -0.35,-1.07 -0.67,-2.2 -0.94,-3.4 -0.31,-0.06 -0.59,-0.11 -0.91,-0.2 -0.07,1.07 -0.23,2.08 -0.48,3.03 -1.3,-0.32 -2.59,-0.64 -3.85,-0.97 0.85,-0.72 1.72,-1.56 2.59,-2.54 -5.1,-1.86 -9.95,-7.29 -12.12,-17.23 -0.25,0 -0.49,0.03 -0.74,0.03 -0.41,8.05 -6.09,12.87 -12.43,12.62l0.31 0.48c-2.12,-0.71 -4.13,-1.42 -6.02,-2.1zm40.68 -164.97c4.29,6.77 14.06,19.55 25.4,5.37 -5.81,-1.08 -11.77,-7.12 -14.38,-19.16 -0.25,0.03 -0.49,0 -0.74,0 -0.43,8.71 -4.92,13.26 -10.27,13.78zm27.02 5.55c-0.39,8.31 -6.02,14.08 -12.25,14.73 4.22,6.14 13.73,15.74 25,1.16 -5.03,-1.21 -9.81,-6.07 -11.98,-15.89 -0.26,0.01 -0.51,0.02 -0.77,0.01zm2.15 -0.17c3.89,5.78 12.99,15.42 23.9,2.7 -5.18,-1.43 -10.24,-7.15 -12.7,-18.47 -0.25,0.03 -0.49,0.03 -0.74,0.06 -0.44,9.13 -5.01,14.69 -10.46,15.72zm29.81 2.51c4.27,5.3 12.15,11.29 21.46,1 -4.68,-1.43 -9.16,-6.55 -11.61,-16.76 -0.66,8.31 -4.82,14.02 -9.85,15.75zm25.09 1.39c-1.46,6.41 -6.01,11.07 -11.08,12.3 4.14,5.86 13.64,14.98 24.86,-0.68 -4.64,-0.45 -9.17,-4.05 -11.7,-12.02 -0.68,0.21 -1.38,0.34 -2.08,0.4zm4.46 -1.43c4.37,5.01 12.06,9.94 21.06,-0.63 -4.91,-0.9 -9.56,-5.51 -11.75,-15.5 -0.27,0.06 -0.52,0.08 -0.79,0.11 -0.38,7.52 -3.95,13.41 -8.52,16.02zm24.61 -0.61c-1.35,6.68 -5.95,11.73 -11.12,13.29 4.15,5.66 13.59,14.36 24.8,-1.83 -4.72,-0.21 -9.31,-3.77 -11.81,-11.93 -0.62,0.21 -1.24,0.36 -1.87,0.46zm4.13 -1.48c4.57,5.23 13,10.53 22.83,-3.3 -5.57,0.64 -11.09,-2.5 -13.26,-12.17 -0.27,0.06 -0.51,0.11 -0.79,0.17 -0.32,6.94 -4.06,12.65 -8.78,15.31zm25.1 -3.77c-0.62,7.88 -5.66,14.2 -11.4,16.13 4.11,5.52 13.55,13.83 24.7,-2.84 -5.1,-0.07 -10.07,-3.97 -12.35,-13.6 -0.31,0.11 -0.63,0.22 -0.95,0.31zm-85.61 6.4c-0.26,0.03 -0.52,0.04 -0.79,0.05 -1.16,7.2 -6.33,12.33 -11.99,13.25 4.21,5.94 13.65,15.12 24.86,0.17 -4.89,-0.68 -9.62,-4.75 -12.09,-13.47zm121.31 -121.26c-6.04,2.03 -12.59,-1.01 -15.33,-12.39 -0.3,0.06 -0.61,0.11 -0.91,0.14 -0.51,7.63 -5.17,14.08 -10.6,16.53 3.31,5.1 14.04,17.35 26.84,-4.28zm-27.56 4.59c-0.15,0.03 -0.3,0.09 -0.45,0.14 0.2,8.87 -5.22,16.25 -11.47,18.5 4.11,5.44 13.54,13.6 24.66,-3.38 -5.42,0.11 -10.68,-4.22 -12.74,-15.26zm-1.2 0.37c-6.08,1.58 -12.62,-1.8 -15.37,-13.38 -0.31,0.03 -0.61,0.06 -0.92,0.06 -0.54,7.63 -5.2,13.74 -10.68,15.88 3.35,5.27 14.11,18.28 26.97,-2.56zm-27.69 2.82c-0.15,0.06 -0.3,0.09 -0.45,0.14 0.24,8.9 -5.25,15.94 -11.52,17.8 4.16,5.69 13.6,14.39 24.8,-1.86 -5.48,-0.28 -10.76,-4.93 -12.83,-16.08zm-1.18 0.34c-6.1,1.27 -12.68,-2.53 -15.46,-14.22 -0.31,0 -0.62,0.03 -0.93,0 -0.51,7.57 -5.22,13.46 -10.69,15.26 3.34,5.49 14.16,18.98 27.08,-1.04zm-27.8 1.3c-0.15,0.03 -0.3,0.06 -0.46,0.08 0.2,8.87 -5.27,15.57 -11.57,17.09 4.14,5.89 13.65,15.09 24.87,-0.48 -5.47,-0.53 -10.77,-5.46 -12.85,-16.7zm-1.18 0.25c-6.04,0.87 -12.56,-3.1 -15.39,-14.45 -0.72,7.69 -5.81,13.29 -11.58,14.47 3.61,5.77 14.27,18.81 26.97,-0.03zm-28.53 0.25c-6.02,0.34 -12.4,-4.17 -15.09,-15.8 -0.31,0 -0.59,-0.03 -0.9,-0.06 -0.48,7.6 -5.37,13.04 -11.02,14.25 3.49,5.8 14.2,19.54 27,1.6zm-27.83 -1.46c-0.19,0 -0.34,0.03 -0.49,0.06 0.12,8.93 -5.75,15.01 -12.3,15.55 4.23,6.25 13.76,16.08 25.04,1.77 -5.25,-1.38 -10.21,-6.67 -12.25,-17.37zm-1.38 0.11c-6.07,0 -12.48,-4.79 -15.14,-16.42 -0.31,-0.03 -0.62,-0.06 -0.9,-0.09 -0.51,7.52 -5.4,12.67 -11.1,13.52 3.53,5.94 14.28,20.19 27.14,2.99zm-27.93 -2.87c-0.19,0 -0.37,0 -0.52,0 0.11,8.87 -5.78,14.64 -12.36,14.87 4.24,6.39 13.82,16.56 25.17,3.04 -5.27,-1.63 -10.28,-7.21 -12.29,-17.91zm-1.38 0.03c-6.09,-0.23 -12.51,-5.29 -15.21,-16.95 -0.28,-0.06 -0.59,-0.11 -0.87,-0.14 -0.53,7.38 -5.44,12.19 -11.15,12.84 3.5,6.03 14.28,20.64 27.23,4.25zm96.48 -105.71c-0.31,0.03 -0.58,0.08 -0.86,0.08 -0.52,7.86 -5.49,13.91 -11.22,15.63 4.01,5.8 13.71,15.43 25.2,-1.13 -5.4,-0.09 -10.74,-4.25 -13.12,-14.59zm-29.03 1.01c-0.31,0.03 -0.58,0.06 -0.86,0.08 -0.49,7.8 -5.51,13.66 -11.26,15.09 4.02,5.94 13.74,15.88 25.28,0.03 -5.42,-0.37 -10.78,-4.84 -13.17,-15.21zm44.59 13.32c-0.24,0.06 -0.52,0.11 -0.76,0.14 -0.41,8.42 -5.96,15.01 -12.14,16.5 4.22,5.69 13.59,13.88 24.6,-2.08 -4.92,-0.65 -9.56,-5.01 -11.7,-14.56zm-28.98 1.69c-0.27,0.06 -0.52,0.09 -0.79,0.11 -0.39,8.42 -5.96,14.64 -12.16,15.85 4.23,5.86 13.61,14.5 24.68,-0.96 -4.94,-0.9 -9.59,-5.41 -11.73,-15.01zm-44.72 -15.06c-0.28,0 -0.59,-0.03 -0.86,-0.03 -0.5,7.32 -5.08,12.76 -10.52,14.25 3.93,6 13.78,16.87 25.5,1.32 -5.74,-0.08 -11.57,-4.59 -14.12,-15.54zm-12.6 14.47c-0.24,0.06 -0.48,0.11 -0.76,0.14 -0.36,8.31 -6.01,14.05 -12.25,14.64 4.23,6.2 13.74,15.85 25.04,1.35 -5.09,-1.29 -9.9,-6.2 -12.03,-16.13zm-29.29 -2.11c-0.24,0.03 -0.49,0.06 -0.73,0.08 -0.4,8.19 -6.04,13.63 -12.33,13.99 4.23,6.28 13.8,16.28 25.13,2.45 -5.07,-1.46 -9.9,-6.59 -12.06,-16.53zm57.69 3.77c-0.63,8 -6.12,13.77 -12.19,14.67 4.21,6 13.66,15.21 24.84,0.31 -5.23,-0.62 -10.31,-5.12 -12.66,-14.98zm-13.78 14.81c-0.28,0 -0.59,-0.03 -0.87,-0.09 -0.52,7.86 -5.68,13.4 -11.55,14.5 3.9,6.03 13.94,17.29 25.86,1.18 -5.52,-0.45 -10.98,-5.07 -13.44,-15.6zm114.92 -6.68c-0.31,0.03 -0.61,0.09 -0.92,0.09 -0.55,7.86 -5.49,14.36 -11.17,16.64 3.79,5.38 13.82,15.26 25.74,-3.77 -5.54,0.9 -11.17,-2.59 -13.64,-12.95zm-28.86 3.69c-0.31,0.03 -0.61,0.06 -0.92,0.06 -0.52,7.86 -5.51,14.14 -11.19,16.05 3.81,5.58 13.88,16.05 25.82,-2.31 -5.57,0.51 -11.19,-3.29 -13.71,-13.8zm-28.93 2.28c-0.31,0.03 -0.61,0.03 -0.92,0.03 -0.55,7.83 -5.53,13.8 -11.23,15.52 3.82,5.72 13.89,16.64 25.9,-1.13 -5.59,0.28 -11.26,-3.8 -13.75,-14.42zm-28.93 1.49c-0.73,7.94 -6.12,13.69 -12.12,14.7 3.99,5.97 13.98,16.56 25.79,-0.2 -5.49,-0.03 -11.08,-4.22 -13.67,-14.5zm-57.43 -2.42c-0.28,-0.03 -0.59,-0.03 -0.87,-0.11 -0.53,7.77 -5.7,13.12 -11.63,13.86 3.95,6.19 14.01,17.8 25.99,2.42 -5.54,-0.73 -11.06,-5.63 -13.48,-16.16zm15.58 16.19c-0.21,0.03 -0.46,0.06 -0.68,0.03 -0.26,8.45 -5.96,14.25 -12.3,14.84 4.23,6.2 13.77,15.91 25.05,1.49 -5.12,-1.29 -9.94,-6.31 -12.08,-16.36zm-44.9 -19.06c-0.31,-0.03 -0.59,-0.08 -0.91,-0.14 -0.54,7.63 -5.74,12.59 -11.66,13.09 3.95,6.28 14.01,18.3 26.04,3.58 -5.53,-0.96 -11.05,-5.97 -13.48,-16.53zm160.29 14.95c-0.21,0.06 -0.42,0.11 -0.63,0.17 -0.17,8.42 -5.45,15.29 -11.49,17.4 4.11,5.49 13.55,13.77 24.71,-3.13 -5.3,0.06 -10.42,-4.08 -12.58,-14.45zm-144.67 1.75c-0.25,0 -0.46,0 -0.71,-0.03 -0.27,8.36 -5.96,13.88 -12.31,14.19 4.24,6.34 13.78,16.36 25.11,2.67 -5.11,-1.55 -9.97,-6.76 -12.09,-16.84zm115.77 1.27c-0.21,0.03 -0.43,0.06 -0.64,0.11 -0.17,8.39 -5.47,15.04 -11.5,16.87 4.13,5.72 13.6,14.42 24.77,-1.8 -5.29,-0.28 -10.44,-4.73 -12.64,-15.18zm-28.98 1.63c-0.21,0.03 -0.43,0.06 -0.64,0.11 -0.17,8.39 -5.49,14.7 -11.55,16.19 4.14,5.88 13.62,15.06 24.87,-0.59 -5.34,-0.53 -10.5,-5.18 -12.68,-15.71zm73.1 9.46c-0.27,0.09 -0.58,0.14 -0.85,0.17 -0.48,7.91 -5.44,14.53 -11.13,16.87 4.01,5.38 13.63,13.94 25.02,-3.86 -5.35,0.53 -10.68,-3.07 -13.04,-13.18zm-28.81 3.89c-0.3,0.06 -0.58,0.08 -0.85,0.11 -0.51,7.91 -5.47,14.22 -11.18,16.19 4,5.6 13.66,14.81 25.1,-2.36 -5.38,0.2 -10.7,-3.72 -13.07,-13.94zm-28.96 2.34c-0.28,0.03 -0.55,0.03 -0.86,0.06 -0.49,7.86 -5.46,13.91 -11.19,15.63 4.01,5.77 13.7,15.4 25.2,-1.07 -5.4,-0.11 -10.74,-4.31 -13.15,-14.62zm-29.03 0.9c-0.28,0.03 -0.55,0.03 -0.83,0.03 -0.52,7.83 -5.51,13.63 -11.3,14.98 4.05,5.97 13.78,16.02 25.3,0.23 -5.43,-0.42 -10.78,-4.84 -13.17,-15.23zm-2.66 -0.06c-5.27,-0.76 -10.4,-5.52 -12.63,-15.85 -0.35,8.45 -5.97,14.53 -12.22,15.43 4.18,6.03 13.66,15.26 24.85,0.42zm76.16 10.42c-0.24,0.06 -0.52,0.11 -0.76,0.17 -0.41,8.47 -5.94,15.32 -12.09,17.12 4.2,5.46 13.54,13.21 24.49,-3.49 -4.9,-0.34 -9.52,-4.39 -11.64,-13.8zm-28.87 3.07c-0.27,0.06 -0.52,0.11 -0.79,0.17 -0.38,8.42 -5.96,15.01 -12.11,16.45 4.22,5.69 13.56,13.94 24.6,-2.08 -4.92,-0.68 -9.56,-5.01 -11.7,-14.53zm-29.01 1.63c-0.24,0.06 -0.52,0.08 -0.76,0.11 -0.42,8.39 -5.99,14.61 -12.2,15.77 4.23,5.86 13.64,14.56 24.69,-0.82 -4.94,-0.9 -9.6,-5.43 -11.74,-15.07zm-44.72 -15.46c-0.31,0 -0.59,-0.03 -0.9,-0.06 -0.46,7.38 -5.06,12.7 -10.5,14.16 3.94,6.03 13.79,16.98 25.49,1.58 -5.71,-0.11 -11.57,-4.7 -14.09,-15.68zm-29.27 -1.83c-0.28,0 -0.59,-0.06 -0.87,-0.08 -0.5,7.29 -5.11,12.36 -10.58,13.52 3.98,6.22 13.83,17.52 25.62,2.87 -5.74,-0.45 -11.62,-5.32 -14.17,-16.3zm16.63 16.22c-0.25,0.03 -0.49,0.03 -0.73,0.08 -0.4,8.28 -6.01,13.91 -12.29,14.47 4.23,6.2 13.78,15.99 25.06,1.6 -5.06,-1.3 -9.87,-6.25 -12.04,-16.16zm-45.97 -19.4c-0.31,0 -0.59,-0.08 -0.87,-0.11 -0.51,7.18 -5.15,11.94 -10.63,12.84 3.96,6.31 13.87,18.02 25.71,4.05 -5.78,-0.68 -11.68,-5.74 -14.21,-16.78zm16.68 16.81c-0.24,0.03 -0.49,0.03 -0.74,0.06 -0.4,8.17 -6.07,13.54 -12.34,13.8 4.24,6.36 13.82,16.47 25.15,2.84 -5.11,-1.55 -9.91,-6.76 -12.08,-16.7zm57.71 4.48c-0.63,8.03 -6.09,13.74 -12.16,14.59 4.18,6.03 13.64,15.32 24.83,0.53 -5.2,-0.68 -10.29,-5.21 -12.67,-15.12zm104.31 39.96c-0.3,0.09 -0.57,0.17 -0.88,0.23 -0.48,7.94 -5.4,14.64 -11.09,17.01 3.98,5.35 13.58,13.8 24.96,-4.22 -5.35,0.65 -10.64,-2.93 -13,-13.01zm-28.82 4.22c-0.28,0.03 -0.55,0.09 -0.85,0.11 -0.48,7.91 -5.44,14.22 -11.14,16.28 3.99,5.55 13.65,14.73 25.09,-2.53 -5.38,0.23 -10.69,-3.63 -13.09,-13.85zm-28.93 2.37c-0.27,0.06 -0.58,0.08 -0.86,0.11 -0.52,7.83 -5.49,13.91 -11.22,15.57 4.05,5.83 13.74,15.46 25.2,-1.01 -5.4,-0.11 -10.75,-4.34 -13.13,-14.67zm-29.04 0.82c-0.27,0.06 -0.58,0.06 -0.86,0.06 -0.49,7.8 -5.52,13.52 -11.28,14.87 4.03,5.97 13.76,16.16 25.31,0.37 -5.42,-0.4 -10.79,-4.9 -13.17,-15.29zm-2.66 -0.06c-5.3,-0.82 -10.41,-5.63 -12.66,-15.91 -0.33,8.42 -5.95,14.45 -12.23,15.26 4.22,6.08 13.68,15.43 24.9,0.65zm76.15 10.31c-0.27,0.11 -0.51,0.17 -0.79,0.2 -0.41,8.48 -5.94,15.38 -12.08,17.29 4.23,5.41 13.53,13.04 24.47,-3.75 -4.86,-0.25 -9.48,-4.31 -11.61,-13.74zm-28.89 3.29c-0.24,0.08 -0.51,0.14 -0.76,0.17 -0.41,8.45 -5.97,14.98 -12.15,16.44 4.22,5.69 13.6,13.97 24.6,-2.11 -4.92,-0.68 -9.56,-4.96 -11.69,-14.5zm-28.98 1.61c-0.24,0.06 -0.52,0.08 -0.77,0.08 -0.42,8.39 -5.99,14.62 -12.2,15.74 4.24,5.91 13.61,14.61 24.7,-0.73 -4.94,-0.87 -9.6,-5.46 -11.74,-15.09zm-44.78 -15.8c-0.28,0 -0.59,-0.03 -0.87,-0.03 -0.5,7.32 -5.09,12.64 -10.54,14.05 3.97,6.08 13.8,17.06 25.54,1.83 -5.75,-0.17 -11.58,-4.84 -14.14,-15.85zm-29.26 -2.11c-0.31,-0.03 -0.59,-0.06 -0.9,-0.08 -0.47,7.27 -5.09,12.28 -10.56,13.35 3.95,6.25 13.84,17.68 25.64,3.15 -5.77,-0.51 -11.66,-5.41 -14.18,-16.42zm16.64 16.36c-0.24,0.03 -0.49,0.08 -0.73,0.11 -0.4,8.25 -6.05,13.83 -12.31,14.28 4.23,6.28 13.79,16.17 25.08,1.92 -5.09,-1.32 -9.91,-6.34 -12.05,-16.3zm-46.02 -19.99c-0.31,-0.03 -0.59,-0.08 -0.9,-0.14 -0.48,7.15 -5.12,11.85 -10.61,12.7 3.96,6.36 13.88,18.19 25.7,4.42 -5.76,-0.73 -11.67,-5.91 -14.19,-16.98zm16.69 17.04c-0.28,0 -0.52,0.06 -0.77,0.06 -0.37,8.17 -6.05,13.46 -12.33,13.54 4.22,6.48 13.8,16.73 25.16,3.3 -5.09,-1.66 -9.92,-6.93 -12.06,-16.9zm-29.46 -4.37c-0.25,0 -0.49,0.03 -0.74,0.03 -0.41,8.05 -6.09,12.87 -12.43,12.62 4.26,6.62 13.88,17.35 25.29,4.59 -5.1,-1.86 -9.95,-7.29 -12.12,-17.23zm87.22 9.52c-0.63,8.03 -6.13,13.69 -12.21,14.42 4.22,6.11 13.68,15.49 24.88,0.79 -5.23,-0.73 -10.33,-5.32 -12.67,-15.21zm-13.8 14.5c-0.28,0 -0.59,-0.03 -0.87,-0.08 -0.52,7.83 -5.69,13.32 -11.57,14.25 3.94,6.14 13.95,17.51 25.9,1.72 -5.5,-0.56 -11.01,-5.32 -13.46,-15.88zm114.94 -6.5c-0.3,0.06 -0.61,0.11 -0.91,0.14 -0.55,7.88 -5.47,14.61 -11.15,16.92 3.79,5.35 13.8,14.98 25.69,-4.45 -5.53,1.07 -11.15,-2.31 -13.62,-12.62zm-28.81 4.25c-0.31,0.03 -0.61,0.06 -0.92,0.09 -0.52,7.86 -5.48,14.11 -11.18,16.14 3.8,5.52 13.87,15.97 25.79,-2.65 -5.56,0.65 -11.17,-3.04 -13.69,-13.57zm-28.93 2.37c-0.31,0 -0.61,0.03 -0.92,0.03 -0.55,7.83 -5.53,13.83 -11.24,15.4 3.83,5.8 13.93,16.73 25.92,-0.99 -5.59,0.25 -11.27,-3.86 -13.76,-14.45zm-28.92 1.24c-0.73,7.91 -6.17,13.55 -12.14,14.45 3.97,6.03 13.96,16.78 25.81,0.14 -5.52,-0.06 -11.11,-4.28 -13.67,-14.59zm-57.55 -3.63c-0.28,-0.03 -0.59,-0.06 -0.87,-0.11 -0.53,7.77 -5.72,12.84 -11.66,13.4 3.96,6.31 14.04,18.22 26.04,3.13 -5.55,-0.87 -11.07,-5.83 -13.5,-16.42zm15.61 16.53c-0.21,0.03 -0.46,0.03 -0.68,0.03 -0.26,8.42 -5.97,14.05 -12.32,14.5 4.23,6.28 13.8,16.22 25.1,2.08 -5.1,-1.38 -9.95,-6.51 -12.1,-16.61zm-45 -20.36c-0.31,-0.06 -0.59,-0.11 -0.91,-0.2 -0.51,7.63 -5.76,12.42 -11.68,12.73 3.96,6.36 14.07,18.7 26.11,4.42 -5.54,-1.07 -11.08,-6.34 -13.51,-16.95zm160.45 17.04c-0.21,0.08 -0.42,0.14 -0.64,0.17 -0.17,8.45 -5.44,15.46 -11.47,17.68 4.14,5.46 13.53,13.52 24.67,-3.58 -5.29,0.2 -10.4,-3.89 -12.57,-14.28zm-144.79 0.14c-0.25,0 -0.46,0 -0.68,-0.03 -0.3,8.31 -6,13.68 -12.38,13.71 4.25,6.48 13.84,16.81 25.2,3.49 -5.15,-1.72 -10.03,-7.07 -12.14,-17.18zm115.94 3.24c-0.21,0.06 -0.42,0.08 -0.64,0.14 -0.2,8.42 -5.47,15.01 -11.53,16.78 4.13,5.71 13.61,14.5 24.77,-1.83 -5.29,-0.28 -10.43,-4.62 -12.6,-15.09zm-29.02 1.49c-0.21,0.03 -0.43,0.06 -0.64,0.08 -0.17,8.36 -5.5,14.67 -11.55,16.11 4.15,5.94 13.66,15.18 24.88,-0.34 -5.35,-0.56 -10.51,-5.29 -12.69,-15.85zm44.29 13.35c-0.3,0.09 -0.58,0.11 -0.85,0.14 -0.51,7.94 -5.47,14.25 -11.17,16.33 4.02,5.55 13.65,14.67 25.08,-2.65 -5.37,0.31 -10.69,-3.58 -13.06,-13.83zm-28.92 2.39c-0.3,0.08 -0.58,0.08 -0.89,0.08 -0.49,7.86 -5.46,13.97 -11.2,15.54 4.02,5.86 13.71,15.52 25.21,-0.9 -5.41,-0.14 -10.75,-4.39 -13.13,-14.73zm-29.08 0.65c-0.28,0.03 -0.55,0.06 -0.83,0.06 -0.53,7.8 -5.52,13.46 -11.32,14.76 4.06,6 13.8,16.25 25.35,0.56 -5.43,-0.42 -10.82,-4.93 -13.21,-15.38zm-2.66 -0.09c-5.28,-0.87 -10.42,-5.69 -12.64,-15.99 -0.35,8.42 -5.98,14.36 -12.25,15.07 4.19,6.14 13.69,15.57 24.89,0.93zm-26.48 -0.84c-0.31,-0.03 -0.59,-0.03 -0.9,-0.06 -0.47,7.35 -5.07,12.62 -10.52,13.91 3.95,6.17 13.81,17.21 25.54,2.17 -5.72,-0.28 -11.6,-5.01 -14.12,-16.02zm-29.32 -2.48c-0.28,-0.03 -0.59,-0.06 -0.87,-0.08 -0.5,7.24 -5.13,12.11 -10.58,13.09 3.96,6.31 13.86,17.94 25.64,3.55 -5.75,-0.59 -11.64,-5.52 -14.19,-16.56zm-29.42 -4.17c-0.28,-0.06 -0.59,-0.11 -0.87,-0.14 -0.51,7.12 -5.16,11.77 -10.65,12.53 3.96,6.39 13.89,18.33 25.77,4.84 -5.8,-0.82 -11.71,-6.14 -14.24,-17.23zm155.86 156.55c-0.15,0.03 -0.3,0.09 -0.45,0.14 0.2,8.87 -5.22,16.25 -11.47,18.5 4.11,5.44 13.54,13.6 24.66,-3.38 -5.42,0.11 -10.68,-4.22 -12.74,-15.26zm-1.2 0.37c-6.08,1.58 -12.62,-1.8 -15.37,-13.38 -0.31,0.03 -0.61,0.06 -0.92,0.06 -0.54,7.63 -5.2,13.74 -10.68,15.88 3.35,5.27 14.11,18.28 26.97,-2.56zm-27.69 2.82c-0.15,0.06 -0.3,0.09 -0.45,0.14 0.24,8.9 -5.25,15.94 -11.52,17.8 4.16,5.69 13.6,14.39 24.8,-1.86 -5.48,-0.28 -10.76,-4.93 -12.83,-16.08zm-1.18 0.34c-6.1,1.27 -12.68,-2.53 -15.46,-14.22 -0.31,0 -0.62,0.03 -0.93,0 -0.51,7.57 -5.22,13.46 -10.69,15.26 3.34,5.49 14.16,18.98 27.08,-1.04zm-27.8 1.3c-0.15,0.03 -0.3,0.06 -0.46,0.08 0.2,8.87 -5.27,15.57 -11.57,17.09 4.14,5.89 13.65,15.09 24.87,-0.48 -5.47,-0.53 -10.77,-5.46 -12.85,-16.7zm-1.18 0.25c-6.04,0.87 -12.56,-3.1 -15.39,-14.45 -0.72,7.69 -5.81,13.29 -11.58,14.47 3.61,5.77 14.27,18.81 26.97,-0.03zm-28.53 0.25c-6.02,0.34 -12.4,-4.17 -15.09,-15.8 -0.31,0 -0.59,-0.03 -0.9,-0.06 -0.48,7.6 -5.37,13.04 -11.02,14.25 3.49,5.8 14.2,19.54 27,1.6zm-27.83 -1.46c-0.19,0 -0.34,0.03 -0.49,0.06 0.12,8.93 -5.75,15.01 -12.3,15.55 4.23,6.25 13.76,16.08 25.04,1.77 -5.25,-1.38 -10.21,-6.67 -12.25,-17.37zm-1.38 0.11c-6.07,0 -12.48,-4.79 -15.14,-16.42 -0.31,-0.03 -0.62,-0.06 -0.9,-0.09 -0.51,7.52 -5.4,12.67 -11.1,13.52 3.53,5.94 14.28,20.19 27.14,2.99zm-27.93 -2.87c-0.19,0 -0.37,0 -0.52,0 0.11,8.87 -5.78,14.64 -12.36,14.87 4.24,6.39 13.82,16.56 25.17,3.04 -5.27,-1.63 -10.28,-7.21 -12.29,-17.91zm124.02 -108.02c-0.27,0.06 -0.58,0.11 -0.85,0.14 -0.48,7.91 -5.47,14.22 -11.18,16.16 4.03,5.66 13.69,14.81 25.15,-2.17 -5.39,0.09 -10.74,-3.91 -13.12,-14.14zm-28.93 2.34c-0.31,0.03 -0.58,0.08 -0.86,0.08 -0.52,7.86 -5.49,13.91 -11.22,15.63 4.01,5.8 13.71,15.43 25.2,-1.13 -5.4,-0.09 -10.74,-4.25 -13.12,-14.59zm-29.03 1.01c-0.31,0.03 -0.58,0.06 -0.86,0.08 -0.49,7.8 -5.51,13.66 -11.26,15.09 4.02,5.94 13.74,15.88 25.28,0.03 -5.42,-0.37 -10.78,-4.84 -13.17,-15.21zm44.59 13.32c-0.24,0.06 -0.52,0.11 -0.76,0.14 -0.41,8.42 -5.96,15.01 -12.14,16.5 4.22,5.69 13.59,13.88 24.6,-2.08 -4.92,-0.65 -9.56,-5.01 -11.7,-14.56zm-28.98 1.69c-0.27,0.06 -0.52,0.09 -0.79,0.11 -0.39,8.42 -5.96,14.64 -12.16,15.85 4.23,5.86 13.61,14.5 24.68,-0.96 -4.94,-0.9 -9.59,-5.41 -11.73,-15.01zm-44.72 -15.06c-0.28,0 -0.59,-0.03 -0.86,-0.03 -0.5,7.32 -5.08,12.76 -10.52,14.25 3.93,6 13.78,16.87 25.5,1.32 -5.74,-0.08 -11.57,-4.59 -14.12,-15.54zm-29.21 -1.49c-0.31,-0.03 -0.59,-0.06 -0.9,-0.06 -0.47,7.27 -5.08,12.48 -10.53,13.74 3.95,6.14 13.81,17.26 25.59,2.45 -5.76,-0.34 -11.64,-5.15 -14.16,-16.13zm16.61 15.97c-0.24,0.06 -0.48,0.11 -0.76,0.14 -0.36,8.31 -6.01,14.05 -12.25,14.64 4.23,6.2 13.74,15.85 25.04,1.35 -5.09,-1.29 -9.9,-6.2 -12.03,-16.13zm28.4 1.66c-0.63,8 -6.12,13.77 -12.19,14.67 4.21,6 13.66,15.21 24.84,0.31 -5.23,-0.62 -10.31,-5.12 -12.66,-14.98zm-13.78 14.81c-0.28,0 -0.59,-0.03 -0.87,-0.09 -0.52,7.86 -5.68,13.4 -11.55,14.5 3.9,6.03 13.94,17.29 25.86,1.18 -5.52,-0.45 -10.98,-5.07 -13.44,-15.6zm86.07 -2.99c-0.31,0.03 -0.61,0.06 -0.92,0.06 -0.52,7.86 -5.51,14.14 -11.19,16.05 3.81,5.58 13.88,16.05 25.82,-2.31 -5.57,0.51 -11.19,-3.29 -13.71,-13.8zm-28.93 2.28c-0.31,0.03 -0.61,0.03 -0.92,0.03 -0.55,7.83 -5.53,13.8 -11.23,15.52 3.82,5.72 13.89,16.64 25.9,-1.13 -5.59,0.28 -11.26,-3.8 -13.75,-14.42zm-28.93 1.49c-0.73,7.94 -6.12,13.69 -12.12,14.7 3.99,5.97 13.98,16.56 25.79,-0.2 -5.49,-0.03 -11.08,-4.22 -13.67,-14.5zm-57.43 -2.42c-0.28,-0.03 -0.59,-0.03 -0.87,-0.11 -0.53,7.77 -5.7,13.12 -11.63,13.86 3.95,6.19 14.01,17.8 25.99,2.42 -5.54,-0.73 -11.06,-5.63 -13.48,-16.16zm15.58 16.19c-0.21,0.03 -0.46,0.06 -0.68,0.03 -0.26,8.45 -5.96,14.25 -12.3,14.84 4.23,6.2 13.77,15.91 25.05,1.49 -5.12,-1.29 -9.94,-6.31 -12.08,-16.36zm86.49 -1.1c-0.21,0.03 -0.43,0.06 -0.64,0.11 -0.17,8.39 -5.47,15.04 -11.5,16.87 4.13,5.72 13.6,14.42 24.77,-1.8 -5.29,-0.28 -10.44,-4.73 -12.64,-15.18zm-28.98 1.63c-0.21,0.03 -0.43,0.06 -0.64,0.11 -0.17,8.39 -5.49,14.7 -11.55,16.19 4.14,5.88 13.62,15.06 24.87,-0.59 -5.34,-0.53 -10.5,-5.18 -12.68,-15.71zm44.29 13.35c-0.3,0.06 -0.58,0.08 -0.85,0.11 -0.51,7.91 -5.47,14.22 -11.18,16.19 4,5.6 13.66,14.81 25.1,-2.36 -5.38,0.2 -10.7,-3.72 -13.07,-13.94zm-28.96 2.34c-0.28,0.03 -0.55,0.03 -0.86,0.06 -0.49,7.86 -5.46,13.91 -11.19,15.63 4.01,5.77 13.7,15.4 25.2,-1.07 -5.4,-0.11 -10.74,-4.31 -13.15,-14.62zm-29.03 0.9c-0.28,0.03 -0.55,0.03 -0.83,0.03 -0.52,7.83 -5.51,13.63 -11.3,14.98 4.05,5.97 13.78,16.02 25.3,0.23 -5.43,-0.42 -10.78,-4.84 -13.17,-15.23zm-2.66 -0.06c-5.27,-0.76 -10.4,-5.52 -12.63,-15.85 -0.35,8.45 -5.97,14.53 -12.22,15.43 4.18,6.03 13.66,15.26 24.85,0.42zm76.16 10.42c-0.24,0.06 -0.52,0.11 -0.76,0.17 -0.41,8.47 -5.94,15.32 -12.09,17.12 4.2,5.46 13.54,13.21 24.49,-3.49 -4.9,-0.34 -9.52,-4.39 -11.64,-13.8zm-28.87 3.07c-0.27,0.06 -0.52,0.11 -0.79,0.17 -0.38,8.42 -5.96,15.01 -12.11,16.45 4.22,5.69 13.56,13.94 24.6,-2.08 -4.92,-0.68 -9.56,-5.01 -11.7,-14.53zm-29.01 1.63c-0.24,0.06 -0.52,0.08 -0.76,0.11 -0.42,8.39 -5.99,14.61 -12.2,15.77 4.23,5.86 13.64,14.56 24.69,-0.82 -4.94,-0.9 -9.6,-5.43 -11.74,-15.07zm-44.72 -15.46c-0.31,0 -0.59,-0.03 -0.9,-0.06 -0.46,7.38 -5.06,12.7 -10.5,14.16 3.94,6.03 13.79,16.98 25.49,1.58 -5.71,-0.11 -11.57,-4.7 -14.09,-15.68zm-29.27 -1.83c-0.28,0 -0.59,-0.06 -0.87,-0.08 -0.5,7.29 -5.11,12.36 -10.58,13.52 3.98,6.22 13.83,17.52 25.62,2.87 -5.74,-0.45 -11.62,-5.32 -14.17,-16.3zm16.63 16.22c-0.25,0.03 -0.49,0.03 -0.73,0.08 -0.4,8.28 -6.01,13.91 -12.29,14.47 4.23,6.2 13.78,15.99 25.06,1.6 -5.06,-1.3 -9.87,-6.25 -12.04,-16.16zm-29.3 -2.59c-0.24,0.03 -0.49,0.03 -0.74,0.06 -0.4,8.17 -6.07,13.54 -12.34,13.8 4.24,6.36 13.82,16.47 25.15,2.84 -5.11,-1.55 -9.91,-6.76 -12.08,-16.7zm57.71 4.48c-0.63,8.03 -6.09,13.74 -12.16,14.59 4.18,6.03 13.64,15.32 24.83,0.53 -5.2,-0.68 -10.29,-5.21 -12.67,-15.12zm104.31 39.96c-0.3,0.09 -0.57,0.17 -0.88,0.23 -0.48,7.94 -5.4,14.64 -11.09,17.01 3.98,5.35 13.58,13.8 24.96,-4.22 -5.35,0.65 -10.64,-2.93 -13,-13.01zm-28.82 4.22c-0.28,0.03 -0.55,0.09 -0.85,0.11 -0.48,7.91 -5.44,14.22 -11.14,16.28 3.99,5.55 13.65,14.73 25.09,-2.53 -5.38,0.23 -10.69,-3.63 -13.09,-13.85zm-28.93 2.37c-0.27,0.06 -0.58,0.08 -0.86,0.11 -0.52,7.83 -5.49,13.91 -11.22,15.57 4.05,5.83 13.74,15.46 25.2,-1.01 -5.4,-0.11 -10.75,-4.34 -13.13,-14.67zm-29.04 0.82c-0.27,0.06 -0.58,0.06 -0.86,0.06 -0.49,7.8 -5.52,13.52 -11.28,14.87 4.03,5.97 13.76,16.16 25.31,0.37 -5.42,-0.4 -10.79,-4.9 -13.17,-15.29zm-2.66 -0.06c-5.3,-0.82 -10.41,-5.63 -12.66,-15.91 -0.33,8.42 -5.95,14.45 -12.23,15.26 4.22,6.08 13.68,15.43 24.9,0.65zm-26.5 -0.59c-0.28,0 -0.59,-0.03 -0.87,-0.03 -0.5,7.32 -5.09,12.64 -10.54,14.05 3.97,6.08 13.8,17.06 25.54,1.83 -5.75,-0.17 -11.58,-4.84 -14.14,-15.85zm-29.26 -2.11c-0.31,-0.03 -0.59,-0.06 -0.9,-0.08 -0.47,7.27 -5.09,12.28 -10.56,13.35 3.95,6.25 13.84,17.68 25.64,3.15 -5.77,-0.51 -11.66,-5.41 -14.18,-16.42zm-29.38 -3.63c-0.31,-0.03 -0.59,-0.08 -0.9,-0.14 -0.48,7.15 -5.12,11.85 -10.61,12.7 3.96,6.36 13.88,18.19 25.7,4.42 -5.76,-0.73 -11.67,-5.91 -14.19,-16.98z"/>
   <path class="fil16" d="M155.5 77.19l0.5 6.3c-1.06,-1 -2.03,-2.32 -2.87,-3.96 0.79,-0.79 1.58,-1.57 2.38,-2.34zm-15.04 15.69c3.36,3.77 9.28,7.81 16.47,2.32l0.57 7.18c-1.15,1.58 -2.43,2.18 -5.25,2.62 -0.48,7.91 -5.39,14.81 -11.05,17.43 3.14,4.07 9.82,9.91 18.12,2.89l0.57 7.19c-1.3,1.11 -2.7,2 -4.14,2.62 1.17,1.36 2.75,2.85 4.65,3.88l0.6 7.63c-2.93,-1.59 -5.43,-5.05 -6.88,-10.95 -0.3,0.08 -0.6,0.17 -0.91,0.2 -0.53,7.66 -5.15,14.33 -10.58,17.18 2.61,3.83 9.89,11.87 19.17,3.71l0.57 7.21c-1.16,1.02 -2.39,1.88 -3.65,2.52 1.05,1.25 2.45,2.62 4.14,3.64l0.6 7.63c-2.67,-1.72 -4.92,-5.1 -6.24,-10.62 -0.27,0.11 -0.57,0.23 -0.84,0.28 -0.48,7.94 -5.41,14.95 -11.06,17.71 2.82,3.57 8.44,8.49 15.49,4.33 -2.04,2.99 -4.02,6 -5.95,9.05 -4.6,-0.32 -8.85,-4.06 -10.86,-12.85 -0.24,0.11 -0.51,0.2 -0.75,0.25 -0.41,8.5 -5.9,15.83 -12.02,18.08 3.62,4.49 11.04,10.28 20.06,0.33 -5.66,9.46 -10.76,19.19 -15.25,29.19 -0.93,0.68 -1.91,1.25 -2.9,1.68 0.42,0.54 0.9,1.1 1.43,1.65 -0.5,1.16 -1,2.32 -1.48,3.48 -0.56,-1.34 -1.05,-2.86 -1.45,-4.57 -0.27,0.08 -0.57,0.14 -0.85,0.2 -0.48,7.97 -5.43,14.78 -11.11,17.12 0.89,1.19 3.48,4.06 6.18,6.62 -0.48,1.46 -0.95,2.93 -1.41,4.4 -2.25,-3.25 -5.55,-8.1 -6.1,-10.57 -0.25,0.03 -0.51,0.14 -0.76,0.2 -0.28,5.85 -4.78,11.46 -10.15,14.04 2.73,3.59 7.79,8.34 14.14,6.21 -1.44,5.35 -2.71,10.76 -3.82,16.23 -2.07,3.92 -5.28,6.91 -8.76,8.3 1.43,1.93 3.59,4.3 6.3,5.72 -0.34,2.25 -0.64,4.52 -0.92,6.79 -2.89,-2.07 -5.34,-5.95 -6.7,-12.11 -0.27,0.08 -0.51,0.17 -0.79,0.2 -0.41,8.5 -5.94,15.26 -12.1,17.04 3.46,4.46 10.3,10.49 18.66,3.55 -0.25,2.74 -0.46,5.49 -0.63,8.25 -0.93,0.65 -1.91,1.18 -2.91,1.58 0.69,0.98 1.58,2.1 2.66,3.17 -0.09,2.11 -0.16,4.22 -0.21,6.35 -1.49,-2.24 -2.72,-5.25 -3.53,-9.13 -0.21,0.06 -0.42,0.11 -0.63,0.17 -0.17,8.42 -5.45,15.29 -11.49,17.4 2.94,3.93 8.61,9.29 15.69,5.82 0.05,1.8 0.11,3.61 0.19,5.43 0.03,0.68 0.06,1.36 0.1,2.05 -0.21,0.1 -0.42,0.19 -0.63,0.28 0.21,0.29 0.45,0.59 0.69,0.89 0.12,2.16 0.27,4.32 0.43,6.48 -0.99,-1.88 -1.83,-4.17 -2.45,-6.92 -0.24,0.06 -0.52,0.11 -0.76,0.17 -0.41,8.47 -5.94,15.32 -12.09,17.12 3.18,4.14 9.31,9.58 16.86,4.72 0.3,2.36 0.63,4.72 0.99,7.08 -0.71,0.48 -1.44,0.9 -2.19,1.24 0.69,1.06 1.7,2.44 2.99,3.75 0.48,2.85 1,5.7 1.56,8.54 -2.32,-2.44 -4.21,-6.33 -5.26,-11.97 -0.15,0.03 -0.3,0.09 -0.45,0.14 0.2,8.87 -5.22,16.25 -11.47,18.5 3.43,4.53 10.55,10.96 19.27,3.13 0.49,2.15 1.01,4.29 1.55,6.42 -1.63,1.73 -3.51,3.07 -5.47,3.88 1.76,2.36 4.61,5.33 8.23,6.35 1.06,3.67 2.18,7.33 3.37,10.95 -1.46,6.47 -5.79,11.74 -10.68,13.73 2.92,4.12 9.51,10.76 17.81,4.76 0.82,1.73 1.73,3.56 2.74,5.48 -1.51,1.49 -3.2,2.66 -4.95,3.42 2.16,2.75 5.78,6.08 10.34,6 0.88,1.43 1.82,2.89 2.8,4.39 -1.64,0.82 -3.51,1.74 -5.55,2.73 -3.88,-1.17 -7.32,-5.01 -9.1,-12.55 -0.27,0.08 -0.57,0.14 -0.85,0.2 -0.48,7.97 -5.43,14.78 -11.11,17.12 0.87,1.15 1.99,2.45 3.34,3.59l-3.26 1.5c-0.54,-1.37 -1.02,-2.91 -1.4,-4.64 -0.25,0.03 -0.51,0.14 -0.76,0.2 -0.1,2.1 -0.52,4.1 -1.17,5.96 -7.42,3.38 -14.75,6.65 -20.7,9.21 -2.67,-2.26 -4.91,-6.1 -6.21,-11.91 -0.27,0.06 -0.51,0.11 -0.79,0.17 -0.28,6.17 -3.34,11.31 -7.38,14.17 -1.26,-1.87 -2.49,-3.76 -3.7,-5.67 2.93,-1.11 6.1,-3.67 9.42,-8.42 -5.41,-0.14 -10.75,-4.39 -13.13,-14.73 -0.3,0.08 -0.58,0.08 -0.89,0.08 -0.23,3.67 -1.44,6.96 -3.24,9.59 -0.88,-1.64 -1.73,-3.29 -2.56,-4.95 1.31,-1.21 2.65,-2.73 4.02,-4.62 -3.45,-0.36 -6.82,-2.46 -9.37,-6.74 -0.88,-2 -1.73,-4.02 -2.56,-6.05 -0.28,-0.96 -0.54,-1.98 -0.76,-3.06l-0.43 0.06c-0.96,-2.44 -1.87,-4.9 -2.75,-7.37 4.02,0.46 8.72,-1.54 13.77,-8.54 -4.94,-0.87 -9.6,-5.46 -11.74,-15.09 -0.24,0.06 -0.52,0.08 -0.77,0.08 -0.24,4.9 -2.24,9.05 -5.1,11.89 -0.63,-2.07 -1.24,-4.16 -1.82,-6.25 1.69,-1.31 3.44,-3.14 5.22,-5.58 -2.68,-0.2 -5.34,-1.39 -7.64,-3.81 -0.73,-3.05 -1.4,-6.11 -2.03,-9.19 4.79,5.4 13.19,10.4 22.87,-3.03 -5.47,-0.53 -10.77,-5.46 -12.85,-16.7 -0.15,0.03 -0.3,0.06 -0.46,0.08 0.19,8.2 -4.48,14.55 -10.16,16.66 -0.46,-2.36 -0.88,-4.72 -1.28,-7.1 3.3,-0.98 6.91,-3.76 10.71,-9.39 -4.77,0.69 -9.83,-1.64 -13.15,-8.23 -0.25,-2.27 -0.47,-4.54 -0.66,-6.82 4.26,5.86 13.63,14.42 24.64,-0.89 -4.94,-0.9 -9.6,-5.43 -11.74,-15.07 -0.24,0.06 -0.52,0.08 -0.76,0.11 -0.42,8.37 -5.97,14.58 -12.15,15.76 -0.21,-2.45 -0.4,-4.91 -0.56,-7.37 3.36,-0.56 7.08,-2.94 11.01,-8.33 -4.49,-0.35 -8.93,-3.44 -11.68,-10.38 -0.03,-4.22 0.01,-8.44 0.13,-12.66 3.12,-0.95 6.53,-3.51 10.1,-8.58 -3.35,-0.02 -6.73,-1.58 -9.45,-5.13 0.14,-2.14 0.3,-4.28 0.48,-6.42 4.92,4.71 12.68,7.74 21.54,-4.61 -4.94,-0.9 -9.59,-5.41 -11.73,-15.01 -0.27,0.06 -0.52,0.09 -0.79,0.11 -0.31,6.74 -3.94,12.07 -8.55,14.55 0.27,-2.76 0.57,-5.52 0.91,-8.27 1.92,-1.36 3.93,-3.36 5.99,-6.19 -1.69,-0.11 -3.37,-0.63 -4.95,-1.59 0.33,-2.3 0.68,-4.59 1.05,-6.87 4.64,2.12 10.57,1.38 17.09,-7.7 -4.64,-0.45 -9.17,-4.05 -11.7,-12.02 -0.57,0.17 -1.14,0.29 -1.72,0.36 0.72,-3.31 1.49,-6.6 2.29,-9.88 2.72,-1.09 5.63,-3.42 8.66,-7.54 -2.08,-0.16 -4.16,-0.93 -6.07,-2.4 0.57,-2.08 1.17,-4.16 1.77,-6.22 4.7,2.41 10.79,1.98 17.5,-7.29 -4.52,-0.48 -8.9,-3.93 -11.47,-11.35 0.36,-1.03 0.72,-2.05 1.09,-3.08 4.48,5.87 13.82,13.44 24.72,-2.67 -5.59,0.25 -11.27,-3.86 -13.76,-14.45 -0.31,0 -0.61,0.03 -0.92,0.03 -0.48,6.85 -4.36,12.3 -9.15,14.61 1.35,-3.67 2.75,-7.34 4.22,-11.02 1.03,-1.06 2.09,-2.31 3.16,-3.79 -0.49,-0.09 -0.99,-0.21 -1.47,-0.38 0.94,-2.29 1.9,-4.58 2.89,-6.86 3.94,0.14 8.5,-2.14 13.38,-9.15 -2.7,-0.06 -5.38,-1.14 -7.69,-3.5 0.85,-1.8 1.7,-3.6 2.57,-5.4 4.79,2.62 11.18,2.35 18.28,-7.95 -3.85,-0.2 -7.61,-2.56 -10.22,-7.82 0.66,-1.23 1.33,-2.46 2.01,-3.69 5.05,4.86 13.47,8.16 23.07,-7.39 -5.14,1.33 -10.61,-0.88 -13.84,-8.58 0.62,-1.02 1.25,-2.05 1.88,-3.07 4.75,4.93 13.11,9.09 22.72,-5.56 -4.58,-0.32 -8.91,-3.88 -11.2,-12.03 0.41,-0.59 0.81,-1.18 1.22,-1.76 4.2,5.38 13.59,12.99 24.67,-4.31 -5.11,0.51 -10.2,-2.76 -12.71,-11.86 0.43,-0.55 0.86,-1.1 1.29,-1.65 4.16,5.26 13.47,12.57 24.45,-4.69 -4.69,0.3 -9.24,-2.71 -11.7,-10.55 0.56,-0.63 1.12,-1.26 1.68,-1.88zm-4.05 4.59c-3.46,3.99 -6.83,8.07 -10.13,12.22 4.43,-1.95 8.4,-6.52 10.13,-12.22zm-13.32 16.31c-3.31,4.3 -6.54,8.69 -9.67,13.13 4.47,-2.26 8.33,-7.15 9.67,-13.13zm-13.42 18.54c-2.35,3.45 -4.65,6.94 -6.89,10.47 3.14,-2.36 5.71,-6.05 6.89,-10.47zm-58.46 142.26c4.37,5.01 12.06,9.94 21.06,-0.63 -4.91,-0.9 -9.56,-5.51 -11.75,-15.5 -0.27,0.06 -0.52,0.08 -0.79,0.11 -0.38,7.52 -3.95,13.41 -8.52,16.02zm24.61 -0.61c-1.35,6.68 -5.95,11.73 -11.12,13.29 4.15,5.66 13.59,14.36 24.8,-1.83 -4.72,-0.21 -9.31,-3.77 -11.81,-11.93 -0.62,0.21 -1.24,0.36 -1.87,0.46zm4.13 -1.48c4.57,5.23 13,10.53 22.83,-3.3 -5.57,0.64 -11.09,-2.5 -13.26,-12.17 -0.27,0.06 -0.51,0.11 -0.79,0.17 -0.32,6.94 -4.06,12.65 -8.78,15.31zm25.1 -3.77c-0.62,7.88 -5.66,14.2 -11.4,16.13 4.11,5.52 13.55,13.83 24.7,-2.84 -5.1,-0.07 -10.07,-3.97 -12.35,-13.6 -0.31,0.11 -0.63,0.22 -0.95,0.31zm36.87 -115.33c-0.15,0.06 -0.3,0.11 -0.45,0.2 0.2,8.84 -5.19,16.64 -11.41,19.23 4.09,5.21 13.47,12.64 24.53,-5.01 -5.39,0.42 -10.63,-3.55 -12.67,-14.42zm-1.17 0.48c-6.04,2.03 -12.59,-1.01 -15.33,-12.39 -0.3,0.06 -0.61,0.11 -0.91,0.14 -0.51,7.63 -5.17,14.08 -10.6,16.53 3.31,5.1 14.04,17.35 26.84,-4.28zm-27.56 4.59c-0.15,0.03 -0.3,0.09 -0.45,0.14 0.2,8.87 -5.22,16.25 -11.47,18.5 4.11,5.44 13.54,13.6 24.66,-3.38 -5.42,0.11 -10.68,-4.22 -12.74,-15.26zm26.69 -35.48c-0.27,0.06 -0.51,0.14 -0.78,0.23 -0.41,8.47 -5.91,15.71 -12.04,17.85 4.21,5.21 13.47,12.31 24.38,-5.01 -4.88,-0.06 -9.48,-3.83 -11.56,-13.07zm-11.3 50.32c-0.3,0.09 -0.57,0.17 -0.88,0.23 -0.48,7.94 -5.4,14.64 -11.09,17.01 3.98,5.35 13.58,13.8 24.96,-4.22 -5.35,0.65 -10.64,-2.93 -13,-13.01zm-28.82 4.22c-0.28,0.03 -0.55,0.09 -0.85,0.11 -0.48,7.91 -5.44,14.22 -11.14,16.28 3.99,5.55 13.65,14.73 25.09,-2.53 -5.38,0.23 -10.69,-3.63 -13.09,-13.85zm15.53 13.43c-0.27,0.11 -0.51,0.17 -0.79,0.2 -0.41,8.48 -5.94,15.38 -12.08,17.29 4.23,5.41 13.53,13.04 24.47,-3.75 -4.86,-0.25 -9.48,-4.31 -11.61,-13.74zm-28.89 3.29c-0.24,0.08 -0.51,0.14 -0.76,0.17 -0.41,8.45 -5.97,14.98 -12.15,16.44 4.22,5.69 13.6,13.97 24.6,-2.11 -4.92,-0.68 -9.56,-4.96 -11.69,-14.5zm43.19 10.25c-0.3,0.06 -0.61,0.11 -0.91,0.14 -0.55,7.88 -5.47,14.61 -11.15,16.92 3.79,5.35 13.8,14.98 25.69,-4.45 -5.53,1.07 -11.15,-2.31 -13.62,-12.62zm-28.81 4.25c-0.31,0.03 -0.61,0.06 -0.92,0.09 -0.52,7.86 -5.48,14.11 -11.18,16.14 3.8,5.52 13.87,15.97 25.79,-2.65 -5.56,0.65 -11.17,-3.04 -13.69,-13.57zm15.66 13.18c-0.21,0.08 -0.42,0.14 -0.64,0.17 -0.17,8.45 -5.44,15.46 -11.47,17.68 4.14,5.46 13.53,13.52 24.67,-3.58 -5.29,0.2 -10.4,-3.89 -12.57,-14.28zm-28.85 3.38c-0.21,0.06 -0.42,0.08 -0.64,0.14 -0.2,8.42 -5.47,15.01 -11.53,16.78 4.13,5.71 13.61,14.5 24.77,-1.83 -5.29,-0.28 -10.43,-4.62 -12.6,-15.09zm15.27 14.84c-0.3,0.09 -0.58,0.11 -0.85,0.14 -0.51,7.94 -5.47,14.25 -11.17,16.33 4.02,5.55 13.65,14.67 25.08,-2.65 -5.37,0.31 -10.69,-3.58 -13.06,-13.83zm-28.92 2.39c-0.3,0.08 -0.58,0.08 -0.89,0.08 -0.49,7.86 -5.46,13.97 -11.2,15.54 4.02,5.86 13.71,15.52 25.21,-0.9 -5.41,-0.14 -10.75,-4.39 -13.13,-14.73zm37.69 149.99c-6.08,1.58 -12.62,-1.8 -15.37,-13.38 -0.31,0.03 -0.61,0.06 -0.92,0.06 -0.54,7.63 -5.2,13.74 -10.68,15.88 3.35,5.27 14.11,18.28 26.97,-2.56zm-27.69 2.82c-0.15,0.06 -0.3,0.09 -0.45,0.14 0.24,8.9 -5.25,15.94 -11.52,17.8 4.16,5.69 13.6,14.39 24.8,-1.86 -5.48,-0.28 -10.76,-4.93 -12.83,-16.08zm-1.18 0.34c-6.1,1.27 -12.68,-2.53 -15.46,-14.22 -0.31,0 -0.62,0.03 -0.93,0 -0.51,7.57 -5.22,13.46 -10.69,15.26 3.34,5.49 14.16,18.98 27.08,-1.04zm9.37 -110.44c-0.27,0.06 -0.58,0.11 -0.85,0.14 -0.48,7.91 -5.47,14.22 -11.18,16.16 4.03,5.66 13.69,14.81 25.15,-2.17 -5.39,0.09 -10.74,-3.91 -13.12,-14.14zm-28.93 2.34c-0.31,0.03 -0.58,0.08 -0.86,0.08 -0.52,7.86 -5.49,13.91 -11.22,15.63 4.01,5.8 13.71,15.43 25.2,-1.13 -5.4,-0.09 -10.74,-4.25 -13.12,-14.59zm15.57 14.33c-0.24,0.06 -0.52,0.11 -0.76,0.14 -0.41,8.42 -5.96,15.01 -12.14,16.5 4.22,5.69 13.59,13.88 24.6,-2.08 -4.92,-0.65 -9.56,-5.01 -11.7,-14.56zm14.38 14.59c-0.31,0.03 -0.61,0.06 -0.92,0.06 -0.52,7.86 -5.51,14.14 -11.19,16.05 3.81,5.58 13.88,16.05 25.82,-2.31 -5.57,0.51 -11.19,-3.29 -13.71,-13.8zm-28.93 2.28c-0.31,0.03 -0.61,0.03 -0.92,0.03 -0.55,7.83 -5.53,13.8 -11.23,15.52 3.82,5.72 13.89,16.64 25.9,-1.13 -5.59,0.28 -11.26,-3.8 -13.75,-14.42zm15.71 14.16c-0.21,0.03 -0.43,0.06 -0.64,0.11 -0.17,8.39 -5.47,15.04 -11.5,16.87 4.13,5.72 13.6,14.42 24.77,-1.8 -5.29,-0.28 -10.44,-4.73 -12.64,-15.18zm-28.98 1.63c-0.21,0.03 -0.43,0.06 -0.64,0.11 -0.17,8.39 -5.49,14.7 -11.55,16.19 4.14,5.88 13.62,15.06 24.87,-0.59 -5.34,-0.53 -10.5,-5.18 -12.68,-15.71zm44.29 13.35c-0.3,0.06 -0.58,0.08 -0.85,0.11 -0.51,7.91 -5.47,14.22 -11.18,16.19 4,5.6 13.66,14.81 25.1,-2.36 -5.38,0.2 -10.7,-3.72 -13.07,-13.94zm-28.96 2.34c-0.28,0.03 -0.55,0.03 -0.86,0.06 -0.49,7.86 -5.46,13.91 -11.19,15.63 4.01,5.77 13.7,15.4 25.2,-1.07 -5.4,-0.11 -10.74,-4.31 -13.15,-14.62zm15.6 14.33c-0.27,0.06 -0.52,0.11 -0.79,0.17 -0.38,8.42 -5.96,15.01 -12.11,16.45 4.22,5.69 13.56,13.94 24.6,-2.08 -4.92,-0.68 -9.56,-5.01 -11.7,-14.53zm17.53 46.63c-0.28,0.03 -0.55,0.09 -0.85,0.11 -0.48,7.91 -5.44,14.22 -11.14,16.28 3.99,5.55 13.65,14.73 25.09,-2.53 -5.38,0.23 -10.69,-3.63 -13.09,-13.85zm-28.93 2.37c-0.27,0.06 -0.58,0.08 -0.86,0.11 -0.52,7.83 -5.49,13.91 -11.22,15.57 4.05,5.83 13.74,15.46 25.2,-1.01 -5.4,-0.11 -10.75,-4.34 -13.13,-14.67zm44.45 11.07c-0.27,0.11 -0.51,0.17 -0.79,0.2 -0.41,8.48 -5.94,15.38 -12.08,17.29 4.23,5.41 13.53,13.04 24.47,-3.75 -4.86,-0.25 -9.48,-4.31 -11.61,-13.74zm-28.89 3.29c-0.24,0.08 -0.51,0.14 -0.76,0.17 -0.41,8.45 -5.97,14.98 -12.15,16.44 4.22,5.69 13.6,13.97 24.6,-2.11 -4.92,-0.68 -9.56,-4.96 -11.69,-14.5zm14.38 14.5c-0.31,0.03 -0.61,0.06 -0.92,0.09 -0.52,7.86 -5.48,14.11 -11.18,16.14 3.8,5.52 13.87,15.97 25.79,-2.65 -5.56,0.65 -11.17,-3.04 -13.69,-13.57zm-28.93 2.37c-0.31,0 -0.61,0.03 -0.92,0.03 -0.55,7.83 -5.53,13.83 -11.24,15.4 3.83,5.8 13.93,16.73 25.92,-0.99 -5.59,0.25 -11.27,-3.86 -13.76,-14.45zm44.59 10.81c-0.21,0.08 -0.42,0.14 -0.64,0.17 -0.17,8.45 -5.44,15.46 -11.47,17.68 4.14,5.46 13.53,13.52 24.67,-3.58 -5.29,0.2 -10.4,-3.89 -12.57,-14.28zm-28.85 3.38c-0.21,0.06 -0.42,0.08 -0.64,0.14 -0.2,8.42 -5.47,15.01 -11.53,16.78 4.13,5.71 13.61,14.5 24.77,-1.83 -5.29,-0.28 -10.43,-4.62 -12.6,-15.09zm15.27 14.84c-0.3,0.09 -0.58,0.11 -0.85,0.14 -0.51,7.94 -5.47,14.25 -11.17,16.33 4.02,5.55 13.65,14.67 25.08,-2.65 -5.37,0.31 -10.69,-3.58 -13.06,-13.83z"/>
   <path class="fil16" d="M419.1 73.52c-1.63,2.27 -2.84,4.62 -3.57,7.02l0.06 0.86c3.18,-1.98 6.91,-2.81 10.98,-1.04 -2.46,-2.33 -4.95,-4.61 -7.47,-6.84zm12.2 11.41c-4.83,2.55 -9.24,8.22 -11.25,17.7 -0.22,0.03 -0.47,0.08 -0.69,0.14 -0.12,-3.3 -1.14,-6.02 -2.76,-8.02l0.58 7.64c0.25,0.23 0.49,0.47 0.74,0.72 -0.22,0.07 -0.44,0.14 -0.67,0.22l0.52 6.87c3.98,-1.22 8.58,-0.37 13.53,4.73 -4.97,2.06 -9.66,7.42 -11.91,16.72l0.63 8.31c2.89,0.31 6.01,1.85 9.29,5.27 -3.03,1.22 -5.97,3.71 -8.31,7.61l0.44 5.86c5.1,-6.25 13.74,-12.2 23.66,-0.4 -6.09,0.62 -12.57,6 -15.23,17.66 -0.31,0.06 -0.59,0.08 -0.91,0.2 -0.37,-5.47 -3.24,-9.4 -7.04,-11.12l0.59 7.82c1.53,0.87 3.1,2.12 4.72,3.83 -1.45,0.56 -2.88,1.41 -4.23,2.58l0.51 6.68c4.88,-3.74 11.4,-5.06 18.63,2.93 -5.06,0.89 -10.23,5.12 -13.13,13.55 0.49,0.76 0.98,1.53 1.46,2.29 4.63,-6.44 13.68,-14.67 24.26,-2.52 -5.13,1.8 -10,7.15 -12.14,17.21 -0.22,0 -0.43,0 -0.68,0.03 -0.25,-7.4 -4.9,-12.29 -10.46,-13.15 2.2,3.53 4.32,7.1 6.36,10.71 0.88,0.75 1.77,1.64 2.67,2.67 -0.34,0.08 -0.68,0.17 -1.02,0.27 1.23,2.23 2.42,4.48 3.58,6.73 3.28,0.15 6.9,1.92 10.71,6.34 -2.01,0.67 -3.98,1.9 -5.76,3.76 0.8,1.72 1.58,3.44 2.34,5.17 4.83,-3.28 11.19,-3.98 18.23,4.53 -4.54,0.45 -9.18,3.64 -12.18,10.4 0.46,1.24 0.92,2.49 1.36,3.74 4.81,-5.92 13.4,-12.12 23.34,0.13 -5.12,1.41 -10.33,9.59 -12.46,19.86l-0.15 0.01c-0.38,-7.12 -4.58,-14.51 -9.65,-16.87 1.24,3.65 2.41,7.33 3.49,11.04 1.32,1.2 2.69,2.68 4.12,4.48l1.24 1.45c-1.14,0.18 -2.29,0.52 -3.42,1.03 0.6,2.26 1.16,4.53 1.7,6.82 3.88,-0.78 8.34,0.53 13.11,5.95 -3.7,0.52 -7.44,2.88 -10.33,7.39 0.33,1.82 0.65,3.65 0.94,5.48 5,-5.49 12.92,-9.87 21.96,0.73 -5.15,1.72 -10.03,7.07 -12.14,17.18 -0.25,0 -0.46,0 -0.68,0.03 -0.24,-6.51 -3.79,-11.22 -8.38,-12.97 0.38,2.67 0.72,5.36 1.02,8.06 1.9,1.05 3.87,2.7 5.89,5.1 -1.75,0.34 -3.5,1.1 -5.16,2.31 0.19,2.28 0.36,4.57 0.49,6.87 4.78,-3.16 11.02,-3.73 17.92,4.42 -5.09,1.66 -9.92,6.93 -12.06,16.9 -0.28,0 -0.52,-0.06 -0.77,-0.06 -0.2,-4.49 -2.02,-8.12 -4.65,-10.48 0.06,2.56 0.08,5.14 0.07,7.72 0.94,0.8 1.89,1.75 2.85,2.87 -0.96,0.12 -1.93,0.37 -2.89,0.75 -0.04,2.42 -0.11,4.85 -0.21,7.3 4.42,-1.86 9.81,-1.19 15.66,5.78 -5.27,1.63 -10.28,7.21 -12.29,17.91 -0.19,0 -0.37,0 -0.52,0 0.06,-4.44 -1.39,-8.1 -3.67,-10.68 -0.2,2.31 -0.42,4.61 -0.67,6.92 1.14,1.01 2.3,2.24 3.48,3.74 -1.34,0.05 -2.69,0.33 -4.02,0.87 -0.32,2.57 -0.67,5.13 -1.05,7.69 4.59,-2.35 10.34,-2.09 16.62,5.46 -5.11,1.55 -9.91,6.76 -12.08,16.7 -0.24,-0.03 -0.49,-0.03 -0.74,-0.06 -0.25,-5.01 -2.48,-8.97 -5.61,-11.34 -0.42,2.26 -0.86,4.51 -1.33,6.76 1.68,1.04 3.42,2.56 5.2,4.67 -2.37,0.28 -4.76,1.29 -6.93,3.16 -0.73,3.12 -1.51,6.23 -2.33,9.32 4.98,-5.28 12.82,-9.27 21.78,1.54 -5.11,1.55 -9.97,6.76 -12.09,16.84 -0.25,0 -0.46,0 -0.71,0.03 -0.24,-7.43 -4.76,-12.62 -10.22,-13.9 -0.67,2.36 -1.36,4.71 -2.08,7.05 3.33,0.28 7,2.24 10.87,6.99 -5.53,0.96 -11.05,5.97 -13.48,16.53 -0.31,0.03 -0.59,0.08 -0.91,0.14 -0.19,-2.7 -0.97,-5.07 -2.15,-7.03 -0.62,1.54 -1.31,3.18 -2.1,4.93 0.83,0.73 1.67,1.59 2.52,2.57 -1.86,0.62 -3.69,1.72 -5.36,3.35 -1.67,3.28 -3.64,6.85 -5.98,10.67 -0.28,0.92 -0.53,1.88 -0.75,2.9 -0.24,-0.03 -0.49,-0.06 -0.73,-0.09l-0.03 -0.4c-0.54,0.85 -1.1,1.72 -1.68,2.6 3.55,1.78 8.17,4.01 13.3,6.44 -1.72,-4.64 -5.42,-7.65 -9.6,-8.41 3.96,-6.28 13.86,-17.85 25.64,-3.6 -5.15,0.51 -10.42,4.54 -13.29,13.31l2.29 1.07c4.77,-5.99 13.46,-12.51 23.53,-0.1 -3.11,0.85 -6.13,3.1 -8.49,7.01 1.58,0.72 3.15,1.42 4.68,2.11 5.23,-3.51 12.37,-3.98 20.25,7.55 0.65,-9.55 -5.43,-16.36 -12.22,-17.07 4.22,-6.14 13.73,-15.74 25,-1.16 -5.61,1.35 -10.91,7.24 -12.62,19.48l0.02 0.01c0.47,-1.09 5.81,-11.26 13.65,-12.31 1.4,-2.39 2.76,-4.8 4.08,-7.24 -0.3,-0.07 -0.61,-0.14 -0.92,-0.19 0.77,-1.09 1.72,-2.29 2.83,-3.43 1.92,-3.72 3.73,-7.49 5.45,-11.31 -4.19,1.81 -7.95,6.4 -9.87,14.63 -0.28,0 -0.59,0.03 -0.86,0.03 -0.5,-7.32 -5.08,-12.76 -10.52,-14.25 3.65,-5.56 12.38,-15.3 22.97,-4.32 0.7,-1.63 1.38,-3.26 2.04,-4.91 -2.27,-4.06 -6.01,-6.77 -10.01,-7.36 2.98,-4.24 8.58,-10.09 15.56,-7.87 0.74,-2.24 1.44,-4.49 2.11,-6.75 -1.03,-0.48 -2.09,-0.82 -3.18,-1.01 1.2,-1.79 2.94,-4.01 5.11,-5.77 0.8,-2.96 1.55,-5.93 2.26,-8.93 -3.7,2.18 -6.94,6.77 -8.58,14.41 -0.35,-8.45 -5.97,-14.53 -12.22,-15.43 3.81,-5.49 12.01,-13.64 21.9,-3.83 0.46,-2.1 0.89,-4.21 1.3,-6.33 -2.06,-2.74 -4.84,-4.63 -7.83,-5.33 2.07,-3.05 5.62,-7.17 10.14,-8.35 0.37,-2.53 0.71,-5.06 1.01,-7.59 -5.09,0.81 -10.02,5.36 -12.35,15.07 -0.63,-8.03 -6.09,-13.74 -12.16,-14.59 4.15,-5.98 13.48,-15.16 24.56,-0.88 0.23,-1.97 0.45,-3.94 0.64,-5.91 -2.04,-4.71 -5.92,-7.96 -10.15,-8.83 1.98,-3.16 6.07,-8.51 11.47,-9.59 0.11,-2.48 0.18,-4.97 0.24,-7.45 -5.2,0.94 -10.17,5.76 -12.38,15.86 -0.33,-8.42 -5.95,-14.45 -12.23,-15.26 4.18,-6.03 13.52,-15.28 24.63,-1 0.05,-2.35 0.07,-4.7 0.07,-7.05 -2.08,-3.96 -5.52,-6.7 -9.28,-7.58 1.87,-2.77 4.97,-6.45 8.91,-8.02 -0.11,-2.4 -0.24,-4.8 -0.4,-7.2 -4.11,1.83 -7.81,6.36 -9.71,14.35 -0.63,-8.03 -6.13,-13.69 -12.21,-14.42 3.8,-5.5 11.85,-13.65 21.58,-4.49 -0.22,-2.84 -0.48,-5.68 -0.77,-8.51 -1.87,-1.54 -4.03,-2.54 -6.27,-2.88 1.22,-1.86 3.02,-4.16 5.26,-5.98 -0.27,-2.13 -0.55,-4.26 -0.86,-6.39 -2.43,2.61 -4.45,6.55 -5.64,12.06 -0.35,-8.42 -5.98,-14.36 -12.25,-15.07 3.04,-4.45 8.86,-10.63 16.1,-8.11 -0.54,-3.09 -1.12,-6.17 -1.74,-9.24l-0.16 0.65c-0.66,-8.31 -4.82,-14.02 -9.85,-15.75 1.42,-1.77 3.25,-3.62 5.4,-4.91 -0.54,-2.06 -1.08,-4.11 -1.65,-6.15 -2.46,2.19 -4.58,5.63 -5.97,10.56 -0.26,-0.03 -0.52,-0.04 -0.79,-0.05 -1.16,-7.2 -6.33,-12.33 -11.99,-13.25 2.99,-4.22 8.62,-10.07 15.64,-7.75 -0.21,-0.67 -0.41,-1.34 -0.63,-2.01 -1.87,-5.89 -3.91,-11.81 -6.1,-17.75 -2,-1.84 -4.4,-3.04 -6.9,-3.41 1.01,-1.44 2.33,-3.07 3.89,-4.5 -0.61,-1.56 -1.24,-3.13 -1.87,-4.69 -1.5,2.32 -2.74,5.31 -3.61,9.05 -0.28,0 -0.59,0.03 -0.87,0.09 -0.52,-7.86 -5.68,-13.4 -11.55,-14.5 1.96,-3.02 5.45,-7.35 9.95,-8.9 -0.89,-2 -1.8,-3.99 -2.73,-5.98 -3.66,2.41 -6.82,7.13 -8.44,14.74 -0.21,-0.03 -0.46,-0.06 -0.68,-0.03 -0.26,-8.45 -5.96,-14.25 -12.3,-14.84 3.25,-4.76 9.64,-11.6 17.54,-7.97 -3.58,-7.3 -7.4,-14.55 -11.43,-21.71 -1.3,-0.62 -2.68,-1 -4.1,-1.13 0.56,-0.83 1.23,-1.72 1.97,-2.61 -0.58,-1.01 -1.17,-2.02 -1.76,-3.03 -0.7,1.66 -1.3,3.54 -1.78,5.64 -0.31,0.03 -0.62,0.06 -0.9,0.09 -0.51,-7.52 -5.4,-12.67 -11.1,-13.52 1.06,-1.78 2.77,-4.31 4.99,-6.52 -0.78,-1.21 -1.56,-2.42 -2.35,-3.62 -1.47,2.65 -2.67,5.97 -3.43,10.02 -0.19,0 -0.37,0 -0.52,0 0.11,-8.87 -5.78,-14.64 -12.36,-14.87 1.73,-2.61 4.35,-5.84 7.62,-7.84 -1.07,-1.5 -2.16,-2.99 -3.25,-4.48 -2.54,2.77 -4.67,6.85 -5.95,12.43 -0.31,0.03 -0.59,0.08 -0.9,0.14 -0.48,-7.15 -5.12,-11.85 -10.61,-12.7 1.98,-3.19 5.46,-7.75 9.93,-9.77 -1.24,-1.58 -2.5,-3.14 -3.77,-4.7 -3.21,2.88 -5.94,7.57 -7.42,14.36 -0.25,0 -0.49,-0.03 -0.74,-0.03 -0.41,-8.05 -6.09,-12.87 -12.43,-12.62 2.64,-4.1 7.33,-9.77 13.23,-10.47 -1.59,-1.83 -3.2,-3.65 -4.83,-5.44 -4.25,2.55 -8.09,7.72 -10.02,16.05 -0.28,0.09 -0.6,0.14 -0.88,0.2 -0.55,-7.49 -5.79,-11.97 -11.75,-11.83 2.74,-4.57 8.45,-12.09 15.73,-11.82 -1.88,-1.96 -3.79,-3.89 -5.72,-5.79zm39.2 195.69c4.29,-6.77 14.06,-19.55 25.4,-5.37 -5.81,1.08 -11.77,7.12 -14.38,19.16 -0.25,-0.03 -0.49,0 -0.74,0 -0.43,-8.71 -4.92,-13.26 -10.27,-13.78zm27.02 -5.55c-0.39,-8.31 -6.02,-14.08 -12.25,-14.73 4.22,-6.14 13.73,-15.74 25,-1.16 -5.03,1.21 -9.81,6.07 -11.98,15.89 -0.26,-0.01 -0.51,-0.02 -0.77,-0.01zm2.15 0.17c3.89,-5.78 12.99,-15.42 23.9,-2.7 -5.18,1.43 -10.24,7.15 -12.7,18.47 -0.25,-0.03 -0.49,-0.03 -0.74,-0.06 -0.44,-9.13 -5.01,-14.69 -10.46,-15.72zm33.75 108.34c-6.02,-0.34 -12.4,4.17 -15.09,15.8 -0.31,0 -0.59,0.03 -0.9,0.06 -0.48,-7.6 -5.37,-13.04 -11.02,-14.25 3.49,-5.8 14.2,-19.54 27,-1.6zm-27.83 1.46c-0.19,0 -0.34,-0.03 -0.49,-0.06 0.12,-8.93 -5.75,-15.01 -12.3,-15.55 4.23,-6.25 13.76,-16.08 25.04,-1.77 -5.25,1.38 -10.21,6.67 -12.25,17.37zm-1.38 -0.11c-6.07,0 -12.48,4.79 -15.14,16.42 -0.31,0.03 -0.62,0.06 -0.9,0.09 -0.51,-7.52 -5.4,-12.67 -11.1,-13.52 3.53,-5.94 14.28,-20.19 27.14,-2.99zm-20.18 109.09c-0.31,0.03 -0.59,0.06 -0.9,0.06 -0.47,-7.27 -5.08,-12.48 -10.53,-13.74 3.95,-6.14 13.81,-17.26 25.59,-2.45 -5.76,0.34 -11.64,5.15 -14.16,16.13zm16.61 -15.97c-0.24,-0.06 -0.48,-0.11 -0.76,-0.14 -0.36,-8.31 -6.01,-14.05 -12.25,-14.64 4.23,-6.2 13.74,-15.85 25.04,-1.35 -5.09,1.29 -9.9,6.2 -12.03,16.13zm-29.29 2.11c-0.24,-0.03 -0.49,-0.06 -0.73,-0.08 -0.4,-8.19 -6.04,-13.63 -12.33,-13.99 4.23,-6.28 13.8,-16.28 25.13,-2.45 -5.07,1.46 -9.9,6.59 -12.06,16.53zm43.91 -18.59c-0.28,0 -0.59,0.03 -0.87,0.09 -0.52,-7.86 -5.68,-13.4 -11.55,-14.5 3.9,-6.03 13.94,-17.29 25.86,-1.18 -5.52,0.45 -10.98,5.07 -13.44,15.6zm-29.23 1.63c-0.28,0.03 -0.59,0.03 -0.87,0.11 -0.53,-7.77 -5.7,-13.12 -11.63,-13.86 3.95,-6.19 14.01,-17.8 25.99,-2.42 -5.54,0.73 -11.06,5.63 -13.48,16.16zm15.58 -16.19c-0.21,-0.03 -0.46,-0.06 -0.68,-0.03 -0.26,-8.45 -5.96,-14.25 -12.3,-14.84 4.23,-6.2 13.77,-15.91 25.05,-1.49 -5.12,1.29 -9.94,6.31 -12.08,16.36zm14.7 -16.73c-0.31,0 -0.59,0.03 -0.9,0.06 -0.46,-7.38 -5.06,-12.7 -10.5,-14.16 3.94,-6.03 13.79,-16.98 25.49,-1.58 -5.71,0.11 -11.57,4.7 -14.09,15.68zm-29.27 1.83c-0.28,0 -0.59,0.06 -0.87,0.08 -0.5,-7.29 -5.11,-12.36 -10.58,-13.52 3.98,-6.22 13.83,-17.52 25.62,-2.87 -5.74,0.45 -11.62,5.32 -14.17,16.3zm16.63 -16.22c-0.25,-0.03 -0.49,-0.03 -0.73,-0.08 -0.4,-8.28 -6.01,-13.91 -12.29,-14.47 4.23,-6.2 13.78,-15.99 25.06,-1.6 -5.06,1.3 -9.87,6.25 -12.04,16.16zm16.78 -48.6c-0.28,0 -0.59,0.03 -0.87,0.03 -0.5,-7.32 -5.09,-12.64 -10.54,-14.05 3.97,-6.08 13.8,-17.06 25.54,-1.83 -5.75,0.17 -11.58,4.84 -14.14,15.85zm-29.26 2.11c-0.31,0.03 -0.59,0.06 -0.9,0.08 -0.47,-7.27 -5.09,-12.28 -10.56,-13.35 3.95,-6.25 13.84,-17.68 25.64,-3.15 -5.77,0.51 -11.66,5.41 -14.18,16.42zm16.64 -16.36c-0.24,-0.03 -0.49,-0.08 -0.73,-0.11 -0.4,-8.25 -6.05,-13.83 -12.31,-14.28 4.23,-6.28 13.79,-16.17 25.08,-1.92 -5.09,1.32 -9.91,6.34 -12.05,16.3zm14.63 -16.7c-0.28,0 -0.59,0.03 -0.87,0.08 -0.52,-7.83 -5.69,-13.32 -11.57,-14.25 3.94,-6.14 13.95,-17.51 25.9,-1.72 -5.5,0.56 -11.01,5.32 -13.46,15.88zm-29.27 2.28c-0.28,0.03 -0.59,0.06 -0.87,0.11 -0.53,-7.77 -5.72,-12.84 -11.66,-13.4 3.96,-6.31 14.04,-18.22 26.04,-3.13 -5.55,0.87 -11.07,5.83 -13.5,16.42zm15.61 -16.53c-0.21,-0.03 -0.46,-0.03 -0.68,-0.03 -0.26,-8.42 -5.97,-14.05 -12.32,-14.5 4.23,-6.28 13.8,-16.22 25.1,-2.08 -5.1,1.38 -9.95,6.51 -12.1,16.61zm14.72 -17.01c-0.31,0.03 -0.59,0.03 -0.9,0.06 -0.47,-7.35 -5.07,-12.62 -10.52,-13.91 3.95,-6.17 13.81,-17.21 25.54,-2.17 -5.72,0.28 -11.6,5.01 -14.12,16.02zm-29.32 2.48c-0.28,0.03 -0.59,0.06 -0.87,0.08 -0.5,-7.24 -5.13,-12.11 -10.58,-13.09 3.96,-6.31 13.86,-17.94 25.64,-3.55 -5.75,0.59 -11.64,5.52 -14.19,16.56zm-19.67 -153.51c-6.09,0.23 -12.51,5.29 -15.21,16.95 -0.28,0.06 -0.59,0.11 -0.87,0.14 -0.53,-7.38 -5.44,-12.19 -11.15,-12.84 3.5,-6.03 14.28,-20.64 27.23,-4.25zm-28.06 4.2c-0.19,0 -0.34,0 -0.49,0 0.11,-8.79 -5.82,-14.11 -12.43,-13.94 4.25,-6.53 13.87,-17.23 25.27,-4.36 -5.32,1.92 -10.31,7.63 -12.35,18.3zm66.41 100.56c-0.28,0 -0.59,0.03 -0.86,0.03 -0.5,-7.32 -5.08,-12.76 -10.52,-14.25 3.93,-6 13.78,-16.87 25.5,-1.32 -5.74,0.08 -11.57,4.59 -14.12,15.54zm-29.21 1.49c-0.31,0.03 -0.59,0.06 -0.9,0.06 -0.47,-7.27 -5.08,-12.48 -10.53,-13.74 3.95,-6.14 13.81,-17.26 25.59,-2.45 -5.76,0.34 -11.64,5.15 -14.16,16.13zm16.61 -15.97c-0.24,-0.06 -0.48,-0.11 -0.76,-0.14 -0.36,-8.31 -6.01,-14.05 -12.25,-14.64 4.23,-6.2 13.74,-15.85 25.04,-1.35 -5.09,1.29 -9.9,6.2 -12.03,16.13zm-29.29 2.11c-0.24,-0.03 -0.49,-0.06 -0.73,-0.08 -0.4,-8.19 -6.04,-13.63 -12.33,-13.99 4.23,-6.28 13.8,-16.28 25.13,-2.45 -5.07,1.46 -9.9,6.59 -12.06,16.53zm14.68 -16.95c-0.28,0.03 -0.59,0.03 -0.87,0.11 -0.53,-7.77 -5.7,-13.12 -11.63,-13.86 3.95,-6.19 14.01,-17.8 25.99,-2.42 -5.54,0.73 -11.06,5.63 -13.48,16.16zm-29.32 2.87c-0.31,0.03 -0.59,0.08 -0.91,0.14 -0.54,-7.63 -5.74,-12.59 -11.66,-13.09 3.95,-6.28 14.01,-18.3 26.04,-3.58 -5.53,0.96 -11.05,5.97 -13.48,16.53zm15.62 -16.7c-0.25,0 -0.46,0 -0.71,0.03 -0.27,-8.36 -5.96,-13.88 -12.31,-14.19 4.24,-6.34 13.78,-16.36 25.11,-2.67 -5.11,1.55 -9.97,6.76 -12.09,16.84zm14.71 -17.26c-0.28,0 -0.59,0.06 -0.87,0.08 -0.5,-7.29 -5.11,-12.36 -10.58,-13.52 3.98,-6.22 13.83,-17.52 25.62,-2.87 -5.74,0.45 -11.62,5.32 -14.17,16.3zm-29.34 3.18c-0.31,0 -0.59,0.08 -0.87,0.11 -0.51,-7.18 -5.15,-11.94 -10.63,-12.84 3.96,-6.31 13.87,-18.02 25.71,-4.05 -5.78,0.68 -11.68,5.74 -14.21,16.78zm16.68 -16.81c-0.24,-0.03 -0.49,-0.03 -0.74,-0.06 -0.4,-8.17 -6.07,-13.54 -12.34,-13.8 4.24,-6.36 13.82,-16.47 25.15,-2.84 -5.11,1.55 -9.91,6.76 -12.08,16.7zm-29.4 3.92c-0.28,0 -0.52,0 -0.77,0 -0.38,-8.11 -6.08,-13.04 -12.38,-12.9 4.25,-6.53 13.83,-17.15 25.22,-4.14 -5.1,1.8 -9.94,7.12 -12.07,17.04zm-12.68 -44.21c-0.28,0.06 -0.59,0.11 -0.88,0.17 -0.52,-7.04 -5.18,-11.49 -10.7,-11.88 4.01,-6.62 13.93,-18.81 25.85,-5.91 -5.82,1.13 -11.71,6.56 -14.27,17.63z"/>
   <g>
    <path class="fil0" d="M143.24 77.24c0,0 19.67,60.8 21.46,111.94l16.45 -6.08c0,0 18.6,-95.84 6.8,-136.61l-13.59 5.72 -31.11 25.03z"/>
    <path class="fil0" d="M436.52 80.1c0,0 -18.95,58.65 -20.74,109.79l-16.45 -6.08c0,0 -18.95,-97.27 -7.15,-138.04l13.95 7.15 30.4 27.18z"/>
   </g>
   <g>
    <g>
     <path class="fil8" d="M427.99 78.76l-24.66 -21.18 -4.54 -1.76c-1.35,6.54 -1.99,13.45 -2.35,19.94 -0.59,10.49 -0.44,21.1 0.03,31.59 0.78,17.29 2.48,34.63 4.69,51.8 0.89,6.89 1.84,13.83 2.95,20.7l6.66 2.46c0.35,-5.97 0.87,-11.93 1.51,-17.87 2.19,-20.46 5.75,-40.94 10.03,-61.07 1.74,-8.2 3.59,-16.47 5.68,-24.62z"/>
    </g>
    <g>
     <path class="fil8" d="M152.49 78.05c2.08,8.14 3.94,16.42 5.68,24.62 4.28,20.13 7.84,40.61 10.03,61.07 0.64,5.94 1.15,11.9 1.51,17.87l6.66 -2.46c1.11,-6.87 2.06,-13.81 2.95,-20.7 2.21,-17.17 3.91,-34.51 4.69,-51.8 0.47,-10.49 0.62,-21.1 0.03,-31.59 -0.36,-6.49 -1,-13.4 -2.35,-19.94l-4.54 1.76 -24.66 21.18z"/>
    </g>
   </g>
   <g>
    <path class="fil17" d="M427.99 78.76l-24.66 -21.18 -4.54 -1.76c-1.35,6.54 -1.99,13.45 -2.35,19.94 -0.49,8.86 -0.47,17.79 -0.16,26.67 7.83,3.61 15.74,7.66 23.74,12.18 0.74,-3.75 1.51,-7.5 2.3,-11.23 1.74,-8.2 3.59,-16.47 5.68,-24.62z"/>
    <path class="fil17" d="M152.49 78.05c2.08,8.14 3.94,16.42 5.68,24.62 0.23,1.08 0.46,2.17 0.68,3.26 6.62,-3.44 15.22,-7.48 25.54,-11.46 0.1,-6.48 0.01,-12.97 -0.35,-19.41 -0.36,-6.49 -1,-13.4 -2.35,-19.94l-4.54 1.76 -24.66 21.18z"/>
   </g>
   <path class="fil0" d="M512.74 521.15c0,0 -13.77,59.9 -56.68,86.37 0,0 -14.75,4.83 -27.63,4.47 0,0 -8.14,-2.86 -14.57,-14.13 0,0 -17.34,0 -26.64,-17.35 0,0 -17.88,-10.01 -21.46,-22.35l15.91 -21.81c0,0 -4.65,-15.02 -5.54,-28.79 0,0 -0.72,-11.98 0.54,-12.52 1.25,-0.54 24.68,-18.24 64.37,-21.46 0,0 16.63,5.01 38.27,19.31 21.64,14.31 33.44,28.25 33.44,28.25z"/>
   <path class="fil1" d="M504.03 511.84c0,0 -11.98,58.47 -51.86,87.08 0,0 -20.03,4.29 -23.78,3.93 0,0 -6.26,-6.08 -6.79,-12.16 0,0 -18.96,-0.89 -26.82,-17.17 0,0 -15.2,-4.29 -20.03,-15.91 0,0 32.54,-45.06 31.11,-45.42 -1.43,-0.36 -18.78,15.38 -18.78,15.38 0,0 -3.22,-10.55 -2.15,-25.75 0,0 24.14,-20.03 74.57,-22.35 15.04,0.72 39.22,13.67 44.52,32.37z"/>
   <path class="fil2" d="M450.95 599.18c-4.4,0.92 -19.37,3.98 -22.56,3.68 0,0 -6.26,-6.08 -6.79,-12.16 0,0 -18.96,-0.89 -26.82,-17.17 0,0 -15.2,-4.29 -20.03,-15.91 0,0 5.3,-7.32 10.31,-14.36 24.47,21.8 50.13,45.27 65.89,55.92z"/>
   <path class="fil0" d="M72.73 514.71c0,0 13.77,59.9 56.68,86.37 0,0 14.75,4.83 27.63,4.47 0,0 8.14,-2.86 14.57,-14.13 0,0 17.34,0 26.64,-17.35 0,0 17.88,-10.01 21.46,-22.35l-15.91 -21.81c0,0 4.65,-15.02 5.54,-28.79 0,0 0.72,-11.98 -0.54,-12.52 -1.25,-0.54 -24.68,-18.24 -64.37,-21.46 0,0 -16.63,5.01 -38.27,19.31 -21.64,14.31 -33.44,28.25 -33.44,28.25z"/>
   <path class="fil1" d="M81.44 505.4c0,0 11.98,58.47 51.86,87.08 0,0 20.03,4.29 23.78,3.93 0,0 6.26,-6.08 6.79,-12.16 0,0 18.96,-0.89 26.82,-17.17 0,0 15.2,-4.29 20.03,-15.91 0,0 -32.54,-45.06 -31.11,-45.42 1.43,-0.36 18.78,15.38 18.78,15.38 0,0 3.22,-10.55 2.15,-25.75 0,0 -24.14,-20.03 -74.57,-22.35 -15.04,0.72 -39.22,13.67 -44.52,32.37z"/>
   <path class="fil2" d="M134.52 592.74c4.4,0.92 19.37,3.98 22.56,3.68 0,0 6.26,-6.08 6.79,-12.16 0,0 18.96,-0.89 26.82,-17.17 0,0 15.2,-4.29 20.03,-15.91 0,0 -5.3,-7.32 -10.31,-14.36 -24.47,21.8 -50.13,45.27 -65.89,55.92z"/>
   <path class="fil0" d="M175.67 390.51c0,0 119.45,52.21 234.24,-5.72l5.01 7.51c0,0 -101.39,60.8 -243.01,7.15l0.54 -7.51 3.22 -1.43z"/>
   <path class="fil0" d="M180.95 185.19c0,0 13.77,24.68 56.86,24.32 0,0 -19.67,6.08 -42.92,1.79l-8.22 -8.94 -5.72 -17.17z"/>
   <path class="fil0" d="M408.05 185.19c0,0 -13.77,24.68 -56.86,24.32 0,0 19.67,6.08 42.92,1.79l8.22 -8.94 5.72 -17.17z"/>
  </g>
 </g>
</svg>
