<?xml version="1.0" encoding="UTF-8"?>
<!DOCTYPE svg PUBLIC "-//W3C//DTD SVG 1.1//EN" "http://www.w3.org/Graphics/SVG/1.1/DTD/svg11.dtd">
<!-- Creator: CorelDRAW 2020 (64-Bit) -->
<svg xmlns="http://www.w3.org/2000/svg" xml:space="preserve" width="129.436mm" height="197.988mm" version="1.1" style="shape-rendering:geometricPrecision; text-rendering:geometricPrecision; image-rendering:optimizeQuality; fill-rule:evenodd; clip-rule:evenodd"
viewBox="0 0 7602.29 11628.63"
 xmlns:xlink="http://www.w3.org/1999/xlink"
 xmlns:xodm="http://www.corel.com/coreldraw/odm/2003">
 <defs>
  <style type="text/css">
   <![CDATA[
    .fil0 {fill:none}
    .fil3 {fill:#501D33}
    .fil6 {fill:#623448}
    .fil2 {fill:#8E7A5D}
    .fil4 {fill:#D6D6A2}
    .fil1 {fill:#EEF698}
    .fil5 {fill:white}
   ]]>
  </style>
 </defs>
 <g id="Слой_x0020_1">
  <metadata id="CorelCorpID_0Corel-Layer"/>
  <g id="_2674531376400">
   <rect id="_124533568" class="fil0" width="7602.29" height="11628.63"/>
   <path id="_272797312" class="fil1" d="M5427.88 5055.62l-242.73 -29.65 -128.5 -127.41 42.83 -62.6c0,0 330.6,216.37 328.4,219.67z"/>
   <path id="_272802736" class="fil1" d="M2725.77 4971.51l160.1 66.43 -567.57 244.12c0,0 403.06,-312.76 407.47,-310.56z"/>
   <path id="_118809240" class="fil2" d="M2386.12 4908.21c-165.85,-183.89 -161.69,-393.76 -124.52,-523.57 -222.68,224.6 -124.01,467.36 124.52,523.57z"/>
   <circle id="_118809000" class="fil2" transform="matrix(1 -0 -0.068977 1 4742.72 4542.96)" r="496.23"/>
   <path id="_118808688" class="fil2" d="M4355.91 3952.13c0,0 -341.26,437.68 -35.5,876.21l132.15 -107.92c0,0 -193.83,-380.8 -96.65,-768.29z"/>
   <path id="_118808400" class="fil3" d="M5035.98 4544.46c-76.49,-254.44 -382.11,-286.74 -547.4,-150.02 -74.08,61.28 -119.99,168.95 -104.42,284.33 29.81,220.91 231.89,290.15 391.67,269.13 186.86,-24.58 328.51,-175.98 260.16,-403.44z"/>
   <path id="_118814712" class="fil4" d="M4515.34 4789.99c174.22,176.94 508.97,43.46 436.39,-210.59 -58.82,-205.92 -287.16,-229.71 -413.32,-115.68 -89.15,80.58 -124.69,223.08 -23.07,326.27z"/>
   <ellipse id="_118814472" class="fil5" cx="4715.12" cy="4721.75" rx="179.13" ry="123.94"/>
   <circle id="_118812168" class="fil2" transform="matrix(-1 -0 0.068977 1 2873.45 4542.96)" r="496.23"/>
   <path id="_118811928" class="fil2" d="M3260.24 3946.31c0,0 321.83,507.61 35.5,882.04l-172.95 -131.24c0,0 250.18,-320.58 137.45,-750.8z"/>
   <path id="_118811592" class="fil3" d="M2580.18 4544.46c51.1,-169.99 212.26,-237.77 357.74,-220.69 169.85,19.94 321.18,154.19 294.09,355.01 -29.81,220.91 -231.89,290.15 -391.67,269.13 -186.86,-24.58 -328.51,-175.98 -260.16,-403.44z"/>
   <path id="_118811376" class="fil4" d="M3100.8 4789.99c-174.22,176.94 -508.97,43.46 -436.39,-210.59 58.82,-205.92 287.16,-229.71 413.32,-115.68 89.15,80.58 124.69,223.08 23.07,326.27z"/>
   <ellipse id="_118811064" class="fil5" cx="2901.03" cy="4721.75" rx="179.13" ry="123.94"/>
   <polygon id="_288388008" class="fil1" points="4828.66,4923.3 4838.74,5273.27 5216.53,5304.3 5437.05,5504.39 5276.49,5221.16 4928.24,5159.73 "/>
   <path id="_288387936" class="fil3" d="M4821.33 4900.31l64.57 315.3 365.24 57.43 210.51 272.48 -176.8 -358.71 -310.29 -48.28 -38.95 -308.87c0,0 -97.99,71.78 -114.28,70.65z"/>
   <polygon id="_288387864" class="fil2" points="2648.69,4876.8 2309.5,5290.86 2750.01,4975.93 "/>
   <path id="_288387792" class="fil2" d="M5003.9 4880.06l426.44 179.04 -319.67 -291.73c0,0 -101.76,120.26 -106.77,112.68z"/>
   <g>
    <g>
     <ellipse id="_137794656" class="fil3" cx="2909.5" cy="4635.16" rx="162.68" ry="160.48"/>
     <path id="_137794752" class="fil6" d="M2998.61 4542.49c24.86,23.28 40.38,56.21 40.38,92.68 0,70.55 -57.98,127.77 -129.5,127.77 -56.23,0 -104.08,-35.39 -121.97,-84.81 23.22,21.74 54.58,35.09 89.12,35.09 71.52,0 129.5,-57.22 129.5,-127.76 0,-15.07 -2.67,-29.55 -7.52,-42.98z"/>
     <circle id="_137794920" class="fil5" transform="matrix(1.00003 -0.75939 0.702596 0.682274 2867.76 4576.81)" r="64.38"/>
    </g>
    <ellipse id="_137795088" class="fil5" transform="matrix(0.689038 -0.340904 0.340904 0.689038 2973.38 4731.37)" rx="51.39" ry="29.19"/>
   </g>
   <g>
    <g>
     <ellipse id="_137794656_0" class="fil3" cx="4706.67" cy="4635.16" rx="162.68" ry="160.48"/>
     <path id="_137794752_1" class="fil6" d="M4795.78 4542.49c24.86,23.28 40.38,56.21 40.38,92.68 0,70.55 -57.98,127.77 -129.5,127.77 -56.23,0 -104.08,-35.39 -121.97,-84.81 23.22,21.74 54.58,35.09 89.12,35.09 71.52,0 129.5,-57.22 129.5,-127.76 0,-15.07 -2.67,-29.55 -7.52,-42.98z"/>
     <circle id="_137794920_2" class="fil5" transform="matrix(1.00003 -0.75939 0.702596 0.682274 4664.93 4576.81)" r="64.38"/>
    </g>
    <ellipse id="_137795088_3" class="fil5" transform="matrix(0.689038 -0.340904 0.340904 0.689038 4770.55 4731.37)" rx="51.39" ry="29.19"/>
   </g>
   <path class="fil3" d="M4243.75 4681.04c0,0 128.2,310.81 407.92,351.6 -259.29,8.09 -426.03,-58.71 -407.92,-351.6z"/>
   <path class="fil3" d="M3377.99 4681.04c0,0 -128.2,310.81 -407.92,351.6 259.29,8.09 426.03,-58.71 407.92,-351.6z"/>
  </g>
 </g>
</svg>
