<?xml version="1.0" encoding="UTF-8"?>
<!DOCTYPE svg PUBLIC "-//W3C//DTD SVG 1.1//EN" "http://www.w3.org/Graphics/SVG/1.1/DTD/svg11.dtd">
<!-- Creator: CorelDRAW 2020 (64-Bit) -->
<svg xmlns="http://www.w3.org/2000/svg" xml:space="preserve" width="129.436mm" height="197.989mm" version="1.1" style="shape-rendering:geometricPrecision; text-rendering:geometricPrecision; image-rendering:optimizeQuality; fill-rule:evenodd; clip-rule:evenodd"
viewBox="0 0 995.13 1522.18"
 xmlns:xlink="http://www.w3.org/1999/xlink"
 xmlns:xodm="http://www.corel.com/coreldraw/odm/2003">
 <defs>
  <style type="text/css">
   <![CDATA[
    .fil0 {fill:none}
    .fil2 {fill:#501D33}
    .fil5 {fill:#623448}
    .fil1 {fill:#8E7A5D}
    .fil6 {fill:#C3C077}
    .fil3 {fill:#CBD6C5}
    .fil7 {fill:#EEF698}
    .fil4 {fill:white}
   ]]>
  </style>
 </defs>
 <g id="Слой_x0020_1">
  <metadata id="CorelCorpID_0Corel-Layer"/>
  <g id="_2674458151520">
   <rect id="_135982752" class="fil0" width="995.13" height="1522.18"/>
   <g>
    <path id="_137793336" class="fil1" d="M307.31 596.48c0,0 -20.32,27.94 -7.93,49.43 12.4,21.48 50.74,15.42 50.74,15.42 -0.92,2.52 -49.54,-10.4 -42.81,-64.85z"/>
    <circle id="_137794080" class="fil1" transform="matrix(-1 -0 0.068977 1 379.359 596.145)" r="64.96"/>
    <path id="_137794200" class="fil1" d="M441.43 617.65c0,0 -15.57,59.97 -86.49,66.02 0,0 37.48,-6.34 68.91,-66.31l6.05 -5.48 11.53 5.77z"/>
    <path id="_137794296" class="fil2" d="M340.97 596.34c6.34,-21.1 27.04,-33.75 45.16,-32.68 23.3,1.38 43.86,22.81 40.16,50.26 -3.9,28.91 -28.77,39.71 -50.69,36.67 -24.43,-3.39 -43.58,-24.47 -34.63,-54.25z"/>
    <path id="_137794416" class="fil3" d="M409.12 628.48c-22.8,23.16 -66.62,5.69 -57.12,-27.57 7.7,-26.95 37.59,-30.07 54.1,-15.14 11.67,10.55 16.32,29.2 3.02,42.71z"/>
    <ellipse id="_137794512" class="fil4" cx="382.97" cy="619.55" rx="23.45" ry="16.22"/>
    <g>
     <g>
      <ellipse id="_137794656" class="fil2" cx="384.8" cy="607.8" rx="21.29" ry="21.01"/>
      <path id="_137794752" class="fil5" d="M373.14 595.67c-3.25,3.05 -5.29,7.36 -5.29,12.13 0,9.23 7.59,16.72 16.95,16.72 7.36,0 13.62,-4.63 15.97,-11.1 -3.04,2.85 -7.14,4.59 -11.67,4.59 -9.36,0 -16.95,-7.49 -16.95,-16.72 0,-1.97 0.35,-3.87 0.98,-5.63z"/>
      <circle id="_137794920" class="fil4" transform="matrix(-1.00003 -0.75939 -0.702596 0.682274 390.265 600.165)" r="8.43"/>
     </g>
     <ellipse id="_137795088" class="fil4" transform="matrix(-0.689038 -0.340904 -0.340904 0.689038 376.439 620.397)" rx="6.73" ry="3.82"/>
    </g>
   </g>
   <path id="_137793336_0" class="fil1" d="M687.83 596.48c0,0 20.32,27.94 7.93,49.43 -12.4,21.48 -50.74,15.42 -50.74,15.42 1.83,1.6 51.39,-12.22 42.81,-64.85z"/>
   <circle id="_137794080_1" class="fil1" transform="matrix(1 -0 -0.068977 1 615.775 596.145)" r="64.96"/>
   <path id="_137794200_2" class="fil1" d="M553.71 617.65c0,0 15.57,59.97 86.49,66.02 0,0 -37.48,-6.34 -68.91,-66.31l-6.05 -5.48 -11.53 5.77z"/>
   <path id="_282344296" class="fil2" d="M573.77 555.04c0,0 -30.27,34.02 -6.05,76.4l15.57 -6.63c0,0 -24.22,-36.62 -9.51,-69.77z"/>
   <path id="_282344296_3" class="fil2" d="M417.06 564.2c0,0 30.27,34.02 6.05,76.4l-15.57 -6.63c0,0 24.22,-36.62 9.51,-69.77z"/>
   <path id="_137794296_4" class="fil2" d="M654.16 596.34c-6.34,-21.1 -27.04,-33.75 -45.16,-32.68 -23.3,1.38 -43.86,22.81 -40.16,50.26 3.9,28.91 28.77,39.71 50.69,36.67 24.43,-3.39 43.58,-24.47 34.63,-54.25z"/>
   <path id="_137794416_5" class="fil3" d="M586.02 628.48c22.8,23.16 66.62,5.69 57.12,-27.57 -7.7,-26.95 -37.59,-30.07 -54.1,-15.14 -11.67,10.55 -16.32,29.2 -3.02,42.71z"/>
   <ellipse id="_137794512_6" class="fil4" cx="612.17" cy="619.55" rx="23.45" ry="16.22"/>
   <g>
    <g>
     <ellipse id="_137794656_7" class="fil2" cx="610.33" cy="607.8" rx="21.29" ry="21.01"/>
     <path id="_137794752_8" class="fil5" d="M622 595.67c3.25,3.05 5.29,7.36 5.29,12.13 0,9.23 -7.59,16.72 -16.95,16.72 -7.36,0 -13.62,-4.63 -15.97,-11.1 3.04,2.85 7.14,4.59 11.67,4.59 9.36,0 16.95,-7.49 16.95,-16.72 0,-1.97 -0.35,-3.87 -0.98,-5.63z"/>
     <circle id="_137794920_9" class="fil4" transform="matrix(1.00003 -0.75939 0.702596 0.682274 604.868 600.165)" r="8.43"/>
    </g>
    <ellipse id="_137795088_10" class="fil4" transform="matrix(0.689038 -0.340904 0.340904 0.689038 618.694 620.397)" rx="6.73" ry="3.82"/>
   </g>
   <g>
    <g>
     <path id="_282333136" class="fil2" d="M565.18 632.28c10.5,-4.84 29.6,-12.48 47.91,-17.05 16.06,-4.01 35.21,-3.37 47.96,-3.43 12.11,-0.06 18.64,0.19 1.92,4.72 -18.35,4.97 -53.73,13.29 -95.96,19.79 -6.82,1.05 -10.67,0.05 -1.83,-4.02z"/>
     <path id="_282333424" class="fil6" d="M568.03 636.04c0,0 92.82,-19.64 95.98,-19.64 3.17,0 -4.12,39.28 -38.96,44.67 -34.85,5.39 -57.02,-25.03 -57.02,-25.03z"/>
     <path id="_282333496" class="fil7" d="M575.92 637.08c0,0 78.7,-17.86 83.64,-16.95 4.95,0.91 -28.07,26.65 -83.64,16.95z"/>
    </g>
    <g>
     <path id="_282333136_11" class="fil2" d="M428.88 632.79c-10.5,-4.84 -29.6,-12.48 -47.91,-17.05 -16.06,-4.01 -35.21,-3.37 -47.96,-3.43 -12.11,-0.06 -18.64,0.19 -1.92,4.72 18.35,4.97 53.73,13.29 95.96,19.79 6.82,1.05 10.67,0.05 1.83,-4.02z"/>
     <path id="_282333424_12" class="fil6" d="M426.03 636.55c0,0 -92.82,-19.64 -95.98,-19.64 -3.17,0 4.12,39.28 38.96,44.67 34.85,5.39 57.02,-25.03 57.02,-25.03z"/>
     <path id="_282333496_13" class="fil7" d="M418.13 637.59c0,0 -78.7,-17.86 -83.64,-16.95 -4.95,0.91 28.07,26.65 83.64,16.95z"/>
    </g>
   </g>
  </g>
 </g>
</svg>
