<?xml version="1.0" encoding="UTF-8"?>
<!DOCTYPE svg PUBLIC "-//W3C//DTD SVG 1.1//EN" "http://www.w3.org/Graphics/SVG/1.1/DTD/svg11.dtd">
<!-- Creator: CorelDRAW 2020 (64-Bit) -->
<svg xmlns="http://www.w3.org/2000/svg" xml:space="preserve" width="129.436mm" height="197.989mm" version="1.1" style="shape-rendering:geometricPrecision; text-rendering:geometricPrecision; image-rendering:optimizeQuality; fill-rule:evenodd; clip-rule:evenodd"
viewBox="0 0 1472.9 2252.99"
 xmlns:xlink="http://www.w3.org/1999/xlink"
 xmlns:xodm="http://www.corel.com/coreldraw/odm/2003">
 <defs>
  <style type="text/css">
   <![CDATA[
    .fil0 {fill:none}
    .fil2 {fill:#501D33}
    .fil5 {fill:#623448}
    .fil1 {fill:#8E7A5D}
    .fil6 {fill:#C3C077}
    .fil3 {fill:#CBD6C5}
    .fil7 {fill:#E4F6A3}
    .fil4 {fill:white}
   ]]>
  </style>
 </defs>
 <g id="Слой_x0020_1">
  <metadata id="CorelCorpID_0Corel-Layer"/>
  <g id="_2674301620176">
   <rect id="_135982752" class="fil0" width="1472.9" height="2252.99"/>
   <g>
    <g>
     <path id="_288389448" class="fil1" d="M602.34 1005.48c14.05,-13.19 24.39,-31.32 30.92,-51.64 -34.31,57.83 -127.03,55.38 -179.15,-4.38 31.05,17.43 62.72,17.91 62.72,17.91 -57.01,-16.01 -68.87,-70.25 -70.66,-98.84 83.63,-74.17 166.57,-47.48 183.4,-0.1 2.28,-12.91 3.54,-24.03 0.4,-31.68 61.77,46.01 39.27,134.98 -27.63,168.74z"/>
     <path id="_137794296" class="fil2" d="M504.44 882.65c9.39,-31.23 40.02,-49.95 66.84,-48.37 34.49,2.04 64.92,33.76 59.45,74.39 -5.77,42.8 -42.59,58.77 -75.03,54.27 -36.17,-5.01 -64.5,-36.23 -51.25,-80.29z"/>
     <path id="_137794416" class="fil3" d="M605.31 930.22c-33.75,34.28 -98.61,8.42 -84.55,-40.8 11.4,-39.89 55.63,-44.51 80.08,-22.41 17.27,15.61 24.16,43.22 4.47,63.21z"/>
     <ellipse id="_137794512" class="fil4" cx="566.6" cy="917" rx="34.71" ry="24.01"/>
     <g>
      <g>
       <ellipse id="_137794656" class="fil2" cx="569.32" cy="899.61" rx="31.52" ry="31.09"/>
       <path id="_137794752" class="fil5" d="M552.05 881.66c-4.82,4.51 -7.82,10.89 -7.82,17.96 0,13.67 11.23,24.75 25.09,24.75 10.89,0 20.16,-6.86 23.63,-16.43 -4.5,4.21 -10.57,6.8 -17.27,6.8 -13.86,0 -25.09,-11.09 -25.09,-24.75 0,-2.92 0.52,-5.72 1.46,-8.33z"/>
       <circle id="_137794920" class="fil4" transform="matrix(-1.00003 -0.75939 -0.702596 0.682274 577.403 888.307)" r="12.47"/>
      </g>
      <ellipse id="_137795088" class="fil4" transform="matrix(-0.689038 -0.340904 -0.340904 0.689038 556.94 918.252)" rx="9.96" ry="5.66"/>
     </g>
     <g>
      <path id="_288388632" class="fil6" d="M638.91 907.75l-143.09 -39.84c0,0 26.59,-46.88 83.35,-34.95 56.76,11.93 59.74,74.79 59.74,74.79z"/>
      <path id="_288388560" class="fil2" d="M651.71 912.62c0,0 -171.74,-41.45 -173.81,-43.94 -2.08,-2.49 1.37,-4.43 5.76,-4.52 4.39,-0.1 61.52,2.07 91.42,10.77 29.9,8.7 72.97,27.33 78.37,33.71 0,0 4.41,4.24 -1.75,3.99z"/>
      <path id="_288388488" class="fil7" d="M629.56 889.21c0,0 -6.48,-45.62 -52.43,-52.34 -45.94,-6.72 30.05,47.51 52.43,52.34z"/>
     </g>
    </g>
    <g>
     <path id="_288389448_0" class="fil1" d="M870.57 1005.48c-14.05,-13.19 -24.39,-31.32 -30.92,-51.64 34.31,57.83 127.03,55.38 179.15,-4.38 -31.05,17.43 -62.72,17.91 -62.72,17.91 57.01,-16.01 68.87,-70.25 70.66,-98.84 -83.63,-74.17 -166.57,-47.48 -183.4,-0.1 -2.28,-12.91 -3.54,-24.03 -0.4,-31.68 -61.77,46.01 -39.27,134.98 27.63,168.74z"/>
     <path id="_137794296_1" class="fil2" d="M968.46 882.65c-9.39,-31.23 -40.02,-49.95 -66.84,-48.37 -34.49,2.04 -64.92,33.76 -59.45,74.39 5.77,42.8 42.59,58.77 75.03,54.27 36.17,-5.01 64.5,-36.23 51.25,-80.29z"/>
     <path id="_137794416_2" class="fil3" d="M867.59 930.22c33.75,34.28 98.61,8.42 84.55,-40.8 -11.4,-39.89 -55.63,-44.51 -80.08,-22.41 -17.27,15.61 -24.16,43.22 -4.47,63.21z"/>
     <ellipse id="_137794512_3" class="fil4" cx="906.3" cy="917" rx="34.71" ry="24.01"/>
     <g>
      <g>
       <ellipse id="_137794656_4" class="fil2" cx="903.58" cy="899.61" rx="31.52" ry="31.09"/>
       <path id="_137794752_5" class="fil5" d="M920.85 881.66c4.82,4.51 7.82,10.89 7.82,17.96 0,13.67 -11.23,24.75 -25.09,24.75 -10.89,0 -20.16,-6.86 -23.63,-16.43 4.5,4.21 10.57,6.8 17.27,6.8 13.86,0 25.09,-11.09 25.09,-24.75 0,-2.92 -0.52,-5.72 -1.46,-8.33z"/>
       <circle id="_137794920_6" class="fil4" transform="matrix(1.00003 -0.75939 0.702596 0.682274 895.497 888.307)" r="12.47"/>
      </g>
      <ellipse id="_137795088_7" class="fil4" transform="matrix(0.689038 -0.340904 0.340904 0.689038 915.961 918.252)" rx="9.96" ry="5.66"/>
     </g>
     <g>
      <path id="_288388632_8" class="fil6" d="M835.73 907.21l143.59 -37.99c0,0 -25.98,-47.22 -82.89,-36.02 -56.91,11.2 -60.7,74.02 -60.7,74.02z"/>
      <path id="_288388560_9" class="fil2" d="M822.88 911.92c0,0 172.26,-39.24 174.36,-41.7 2.11,-2.46 -1.31,-4.44 -5.71,-4.6 -4.39,-0.15 -61.55,1.28 -91.55,9.59 -30.01,8.31 -73.31,26.39 -78.8,32.7 0,0 -4.46,4.18 1.7,4.01z"/>
      <path id="_288388488_10" class="fil7" d="M845.32 888.79c0,0 7.07,-45.53 53.1,-51.66 46.03,-6.13 -30.66,47.12 -53.1,51.66z"/>
     </g>
    </g>
   </g>
  </g>
 </g>
</svg>
