<?xml version="1.0" encoding="UTF-8"?>
<!DOCTYPE svg PUBLIC "-//W3C//DTD SVG 1.1//EN" "http://www.w3.org/Graphics/SVG/1.1/DTD/svg11.dtd">
<!-- Creator: CorelDRAW 2020 (64-Bit) -->
<svg xmlns="http://www.w3.org/2000/svg" xml:space="preserve" width="129.436mm" height="197.988mm" version="1.1" style="shape-rendering:geometricPrecision; text-rendering:geometricPrecision; image-rendering:optimizeQuality; fill-rule:evenodd; clip-rule:evenodd"
viewBox="0 0 3826.77 5853.52"
 xmlns:xlink="http://www.w3.org/1999/xlink"
 xmlns:xodm="http://www.corel.com/coreldraw/odm/2003">
 <defs>
  <style type="text/css">
   <![CDATA[
    .fil0 {fill:none}
    .fil2 {fill:#501D33}
    .fil5 {fill:#623448}
    .fil1 {fill:#8E7A5D}
    .fil6 {fill:#C3C077}
    .fil3 {fill:#D6D6A2}
    .fil7 {fill:#E4F6A3}
    .fil4 {fill:white}
   ]]>
  </style>
 </defs>
 <g id="Слой_x0020_1">
  <metadata id="CorelCorpID_0Corel-Layer"/>
  <g id="_2674524846800">
   <rect id="_124534360" class="fil0" y="0" width="3826.77" height="5853.52"/>
   <path id="_229814600" class="fil1" d="M2151.66 2259.57c0,0 1.66,352.87 331.24,341.22 112.28,-3.97 167.36,-58.73 194.96,-130.27 -81.44,46.65 -165.41,47.94 -165.41,47.94 301.82,-84.76 156.3,-488.03 -177.87,-393.97 -80.54,22.67 -151.6,84.76 -182.91,135.08z"/>
   <path id="_229810496" class="fil1" d="M2290.26 2617.47c0,0 -112.39,-121.61 -91.88,-349.23l9.01 -73.66c-160.49,119.55 -90.94,335.16 82.86,422.89z"/>
   <path id="_229811312" class="fil2" d="M2221.05 2295.81c0,0 -29.99,253.39 207.22,280.02 0,0 -158.99,-44.1 -144.01,-240.52l-63.21 -39.5z"/>
   <path id="_229807400" class="fil2" d="M2492.41 2436.98c86.52,-77.51 45.9,-231.01 -80.14,-251.04 -104.46,-16.6 -192.15,32.08 -193.57,132.06 -2.11,148.99 173.74,208.52 273.71,118.97z"/>
   <path id="_229809728" class="fil3" d="M2279.9 2397.12c38.74,39.35 96.27,44.2 139.09,24.25 45.02,-20.98 77.27,-64.96 61.27,-120.94 -27.01,-94.55 -131.84,-105.47 -189.77,-53.11 -40.93,36.99 -57.25,102.42 -10.59,149.8z"/>
   <ellipse id="_229809320" class="fil4" cx="2371.62" cy="2365.79" rx="82.25" ry="56.91"/>
   <g>
    <g>
     <ellipse id="_137794656" class="fil2" cx="2367.64" cy="2320.24" rx="81.89" ry="80.78"/>
     <path id="_137794752" class="fil5" d="M2412.49 2273.59c12.51,11.72 20.33,28.29 20.33,46.65 0,35.51 -29.19,64.32 -65.19,64.32 -28.31,0 -52.39,-17.81 -61.4,-42.69 11.69,10.94 27.47,17.67 44.86,17.67 36,0 65.19,-28.8 65.19,-64.31 0,-7.59 -1.34,-14.87 -3.79,-21.63z"/>
     <circle id="_137794920" class="fil4" transform="matrix(1.00003 -0.75939 0.702596 0.682274 2346.63 2290.87)" r="32.41"/>
    </g>
    <ellipse id="_137795088" class="fil4" transform="matrix(0.689038 -0.340904 0.340904 0.689038 2399.79 2368.67)" rx="25.87" ry="14.69"/>
   </g>
   <path id="_229807208" class="fil2" d="M2178.32 2239.63c124.71,65.31 274.83,99.33 413.59,117.85 0,0 -55.9,-71.64 -151.49,-106.54 -73.35,-26.78 -180.09,-20.54 -262.1,-11.31z"/>
   <path id="_229813592" class="fil6" d="M2176.4 2238.77c159.19,-1.5 295.18,42.9 415.31,118.73 0,0 56.44,-184.75 -139.58,-247.49 -196.01,-62.75 -275.73,128.76 -275.73,128.76z"/>
   <path id="_229809896" class="fil7" d="M2236.36 2181.63c0,0 114.85,-108.19 249.68,-36.62 134.83,71.57 -196.41,44.94 -249.68,36.62z"/>
   <circle id="_229807304" class="fil1" cx="2661.66" cy="2298.19" r="53.26"/>
   <circle id="_229809560" class="fil1" cx="2695.09" cy="2202.84" r="20.78"/>
   <circle id="_229809560_0" class="fil1" cx="2767.44" cy="2318.23" r="20.78"/>
   <circle id="_229809560_1" class="fil1" cx="1049.45" cy="2315.29" r="20.78"/>
   <circle id="_229807736" class="fil1" cx="2725.91" cy="2399.14" r="40.81"/>
   <path id="_229808864" class="fil1" d="M1675.11 2259.57c0,0 -1.66,352.87 -331.24,341.22 -112.28,-3.97 -167.36,-58.73 -194.96,-130.27 81.44,46.65 165.41,47.94 165.41,47.94 -301.82,-84.76 -156.3,-488.03 177.87,-393.97 80.54,22.67 151.6,84.76 182.91,135.08z"/>
   <path id="_229814096" class="fil1" d="M1536.5 2617.47c0,0 112.39,-121.61 91.88,-349.23l-9.01 -73.66c160.49,119.55 90.94,335.16 -82.86,422.89z"/>
   <path id="_229815176" class="fil2" d="M1605.72 2295.81c0,0 29.99,253.39 -207.22,280.02 0,0 158.99,-44.1 144.01,-240.52l63.21 -39.5z"/>
   <path id="_229807568" class="fil2" d="M1334.35 2436.98c-86.52,-77.51 -45.9,-231.01 80.14,-251.04 104.46,-16.6 192.15,32.08 193.57,132.06 2.11,148.99 -173.74,208.52 -273.71,118.97z"/>
   <path id="_229810088" class="fil3" d="M1546.87 2397.12c-38.74,39.35 -96.27,44.2 -139.09,24.25 -45.02,-20.98 -77.27,-64.96 -61.27,-120.94 27.01,-94.55 131.84,-105.47 189.77,-53.11 40.93,36.99 57.25,102.42 10.59,149.8z"/>
   <ellipse id="_229807184" class="fil4" cx="1455.15" cy="2365.79" rx="82.25" ry="56.91"/>
   <g>
    <g>
     <ellipse id="_137794656_2" class="fil2" cx="1459.13" cy="2320.24" rx="81.89" ry="80.78"/>
     <path id="_137794752_3" class="fil5" d="M1414.28 2273.59c-12.51,11.72 -20.33,28.29 -20.33,46.65 0,35.51 29.19,64.32 65.19,64.32 28.31,0 52.39,-17.81 61.4,-42.69 -11.69,10.94 -27.47,17.67 -44.86,17.67 -36,0 -65.19,-28.8 -65.19,-64.31 0,-7.59 1.34,-14.87 3.79,-21.63z"/>
     <circle id="_137794920_4" class="fil4" transform="matrix(-1.00003 -0.75939 -0.702596 0.682274 1480.14 2290.87)" r="32.41"/>
    </g>
    <ellipse id="_137795088_5" class="fil4" transform="matrix(-0.689038 -0.340904 -0.340904 0.689038 1426.98 2368.67)" rx="25.87" ry="14.69"/>
   </g>
   <path id="_229808384" class="fil2" d="M1648.43 2239.63c-124.71,65.31 -274.83,99.33 -413.59,117.85 0,0 55.9,-71.64 151.49,-106.54 73.35,-26.78 180.09,-20.54 262.1,-11.31z"/>
   <path id="_229814744" class="fil6" d="M1650.38 2238.77c-159.19,-1.5 -295.18,42.9 -415.31,118.73 0,0 -56.44,-184.75 139.58,-247.49 196.01,-62.75 275.73,128.76 275.73,128.76z"/>
   <path id="_229812056" class="fil7" d="M1594.56 2176.7c0,0 -114.85,-108.19 -249.68,-36.62 -134.83,71.57 196.41,44.94 249.68,36.62z"/>
   <circle id="_229815488" class="fil1" cx="1165.1" cy="2298.19" r="53.26"/>
   <circle id="_229809056" class="fil1" cx="1141.82" cy="2192.46" r="17.48"/>
   <circle id="_229807640" class="fil1" cx="1090.8" cy="2395.5" r="37.16"/>
  </g>
 </g>
</svg>
