<?xml version="1.0" encoding="UTF-8"?>
<!DOCTYPE svg PUBLIC "-//W3C//DTD SVG 1.1//EN" "http://www.w3.org/Graphics/SVG/1.1/DTD/svg11.dtd">
<!-- Creator: CorelDRAW 2020 (64-Bit) -->
<svg xmlns="http://www.w3.org/2000/svg" xml:space="preserve" width="129.436mm" height="197.989mm" version="1.1" style="shape-rendering:geometricPrecision; text-rendering:geometricPrecision; image-rendering:optimizeQuality; fill-rule:evenodd; clip-rule:evenodd"
viewBox="0 0 432.58 661.69"
 xmlns:xlink="http://www.w3.org/1999/xlink"
 xmlns:xodm="http://www.corel.com/coreldraw/odm/2003">
 <defs>
  <style type="text/css">
   <![CDATA[
    .fil0 {fill:none}
    .fil2 {fill:#343546}
    .fil3 {fill:#501D33}
    .fil1 {fill:#51645C}
    .fil4 {fill:#CBD6C5}
    .fil5 {fill:white}
   ]]>
  </style>
 </defs>
 <g id="Слой_x0020_1">
  <metadata id="CorelCorpID_0Corel-Layer"/>
  <g id="_2674674703104">
   <rect id="_285630640" class="fil0" y="0" width="432.58" height="661.69"/>
   <g>
    <g>
     <path class="fil1" d="M279.48 249.12c1.27,1.08 2.68,1.82 3.65,3.18 4.14,-3.18 13.36,-3.1 15.74,0.15 -4.39,0.11 -10.97,2.81 -12.26,8 0.89,5 -0.46,13.66 -4.46,16.83 0.75,6.19 3.8,12.3 10.81,13.14 5.15,0.62 10.12,-5.26 5.72,-11.28 -3.11,-4.26 -7.55,-3.31 -8.58,-1.11 -0.76,1.63 -0.24,2.47 -0.27,3.31 -2.43,-0.52 -4.19,-8.31 0.22,-15.19 2.5,-3.91 11.76,-5.91 14.28,-2.58 -5.82,1.82 -6,7.78 -2.36,10.64 8.2,6.46 11.16,-3.63 8.13,-6.47 1.16,0.17 3.47,1.6 4.34,2.73 3.07,3.95 1.84,10.84 -4,13.96 -1.35,0.72 -1.99,1.33 -2.33,1.97 -1.61,19.53 -20.12,17.89 -25.28,13.08 -4.95,3.4 -15.02,4.04 -18.91,-3.23 1.36,0.58 6.3,1.42 8.84,-2.44 1.97,-2.99 0.25,-4.91 -1.42,-5.82 -1.62,-0.88 -3.25,-0.83 -4.99,-0.96 -0.59,0.05 -1.19,0.08 -1.79,0.08 -15.72,0 -23.23,-14.23 -19.88,-28.1 1.01,-4.17 -0.27,-7.52 -2.74,-8.74 -0.87,-0.43 -1.89,-0.6 -3.01,-0.44 -3.31,0.7 -3.83,3.3 -4.06,4.82 -2.57,-1.52 -1.36,-11.13 7.26,-11.75 4.98,-0.36 10.6,2.24 13.15,-0.49 -0.47,-5.06 -5.35,-4.8 -6.86,-4.61 1.23,-1.93 4.72,-2.54 6.93,-2.67 7.51,-0.46 11.19,5.38 13.01,6.86 3,2.45 5.4,2.41 6.6,1.52 2.94,-2.18 0.05,-4.58 -3.08,-5.23 3.07,-1.65 5.05,-0.32 7.28,0.43 3.39,1.14 6.4,-1.29 13.68,1.15 1.48,0.5 5.21,2.26 5.55,3.54 -0.67,0.08 -2.26,-0.37 -3.16,-0.51 -7.51,-1.2 -13.67,2.29 -15.76,6.25z"/>
     <path class="fil2" d="M279.48 249.12c1.27,1.08 2.68,1.82 3.65,3.18 0.47,-0.36 1.02,-0.69 1.61,-0.96 1.43,1.79 2.62,3.78 3.51,5.92 -0.77,0.93 -1.34,1.99 -1.64,3.19 0.89,5 -0.46,13.66 -4.46,16.83 0.24,2.02 0.74,4.04 1.53,5.86 -2.8,3.05 -6.37,5.38 -10.39,6.7 -0.43,-0.83 -1.2,-1.45 -1.95,-1.86 -1.62,-0.88 -3.25,-0.83 -4.99,-0.96 -0.59,0.05 -1.19,0.08 -1.79,0.08 -15.72,0 -23.23,-14.23 -19.88,-28.1 0.45,-1.86 0.44,-3.56 0.08,-4.98 4.28,-7.09 12.05,-11.82 20.93,-11.82 1.1,0 2.19,0.07 3.25,0.22 2.34,1.71 4.26,1.89 5.48,1.39 2.28,0.87 4.41,2.08 6.3,3.56 -0.5,0.57 -0.91,1.16 -1.23,1.76zm8.06 28.4c-0.54,-3.01 -0.08,-7.35 2.5,-11.37l0.06 -0.08c0,0.18 0.01,0.36 0.01,0.55 0,3.92 -0.92,7.62 -2.57,10.91z"/>
     <g>
      <path id="_137794296" class="fil3" d="M283.97 259.23c-2.76,-9.17 -11.75,-14.67 -19.63,-14.2 -10.13,0.6 -19.07,9.92 -17.46,21.85 1.7,12.57 12.51,17.26 22.04,15.94 10.62,-1.47 18.94,-10.64 15.05,-23.58z"/>
      <path id="_137794416" class="fil4" d="M254.34 273.2c9.91,10.07 28.96,2.47 24.83,-11.98 -3.35,-11.72 -16.34,-13.07 -23.52,-6.58 -5.07,4.58 -7.1,12.69 -1.31,18.57z"/>
      <ellipse id="_137794512" class="fil5" cx="265.71" cy="269.32" rx="10.19" ry="7.05"/>
      <g>
       <g>
        <ellipse id="_137794656" class="fil3" cx="264.91" cy="264.21" rx="9.26" ry="9.13"/>
        <path id="_137794752" class="fil1" d="M269.98 258.94c1.41,1.32 2.3,3.2 2.3,5.27 0,4.01 -3.3,7.27 -7.37,7.27 -3.2,0 -5.92,-2.01 -6.94,-4.83 1.32,1.24 3.11,2 5.07,2 4.07,0 7.37,-3.26 7.37,-7.27 0,-0.86 -0.15,-1.68 -0.43,-2.45z"/>
        <circle id="_137794920" class="fil5" transform="matrix(1.00003 -0.75939 0.702596 0.682274 262.537 260.89)" r="3.66"/>
       </g>
       <ellipse id="_137795088" class="fil5" transform="matrix(0.689038 -0.340904 0.340904 0.689038 268.547 269.684)" rx="2.92" ry="1.66"/>
      </g>
     </g>
    </g>
    <g>
     <path class="fil1" d="M153.1 249.12c-1.27,1.08 -2.68,1.82 -3.65,3.18 -4.14,-3.18 -13.36,-3.1 -15.74,0.15 4.39,0.11 10.97,2.81 12.26,8 -0.89,5 0.46,13.66 4.46,16.83 -0.75,6.19 -3.8,12.3 -10.81,13.14 -5.15,0.62 -10.12,-5.26 -5.72,-11.28 3.11,-4.26 7.55,-3.31 8.58,-1.11 0.76,1.63 0.24,2.47 0.27,3.31 2.43,-0.52 4.19,-8.31 -0.22,-15.19 -2.5,-3.91 -11.76,-5.91 -14.28,-2.58 5.82,1.82 6,7.78 2.36,10.64 -8.2,6.46 -11.16,-3.63 -8.13,-6.47 -1.16,0.17 -3.47,1.6 -4.34,2.73 -3.07,3.95 -1.84,10.84 4,13.96 1.35,0.72 1.99,1.33 2.33,1.97 1.61,19.53 20.12,17.89 25.28,13.08 4.95,3.4 15.02,4.04 18.91,-3.23 -1.36,0.58 -6.3,1.42 -8.84,-2.44 -1.97,-2.99 -0.25,-4.91 1.42,-5.82 1.62,-0.88 3.25,-0.83 4.99,-0.96 0.59,0.05 1.19,0.08 1.79,0.08 15.72,0 23.23,-14.23 19.88,-28.1 -1.01,-4.17 0.27,-7.52 2.74,-8.74 0.87,-0.43 1.89,-0.6 3.01,-0.44 3.31,0.7 3.83,3.3 4.06,4.82 2.57,-1.52 1.36,-11.13 -7.26,-11.75 -4.98,-0.36 -10.6,2.24 -13.15,-0.49 0.47,-5.06 5.35,-4.8 6.86,-4.61 -1.23,-1.93 -4.72,-2.54 -6.93,-2.67 -7.51,-0.46 -11.19,5.38 -13.01,6.86 -3,2.45 -5.4,2.41 -6.6,1.52 -2.94,-2.18 -0.05,-4.58 3.08,-5.23 -3.07,-1.65 -5.05,-0.32 -7.28,0.43 -3.39,1.14 -6.4,-1.29 -13.68,1.15 -1.48,0.5 -5.21,2.26 -5.55,3.54 0.67,0.08 2.26,-0.37 3.16,-0.51 7.51,-1.2 13.67,2.29 15.76,6.25z"/>
     <path class="fil2" d="M153.1 249.12c-1.27,1.08 -2.68,1.82 -3.65,3.18 -0.47,-0.36 -1.02,-0.69 -1.61,-0.96 -1.43,1.79 -2.62,3.78 -3.51,5.92 0.77,0.93 1.34,1.99 1.64,3.19 -0.89,5 0.46,13.66 4.46,16.83 -0.24,2.02 -0.74,4.04 -1.53,5.86 2.8,3.05 6.37,5.38 10.39,6.7 0.43,-0.83 1.2,-1.45 1.95,-1.86 1.62,-0.88 3.25,-0.83 4.99,-0.96 0.59,0.05 1.19,0.08 1.79,0.08 15.72,0 23.23,-14.23 19.88,-28.1 -0.45,-1.86 -0.44,-3.56 -0.08,-4.98 -4.28,-7.09 -12.05,-11.82 -20.93,-11.82 -1.1,0 -2.19,0.07 -3.25,0.22 -2.34,1.71 -4.26,1.89 -5.48,1.39 -2.28,0.87 -4.41,2.08 -6.3,3.56 0.5,0.57 0.91,1.16 1.23,1.76zm-8.06 28.4c0.54,-3.01 0.08,-7.35 -2.5,-11.37l-0.06 -0.08c-0,0.18 -0.01,0.36 -0.01,0.55 0,3.92 0.92,7.62 2.57,10.91z"/>
     <g>
      <path id="_137794296_0" class="fil3" d="M148.61 259.23c2.76,-9.17 11.75,-14.67 19.63,-14.2 10.13,0.6 19.07,9.92 17.46,21.85 -1.7,12.57 -12.51,17.26 -22.04,15.94 -10.62,-1.47 -18.94,-10.64 -15.05,-23.58z"/>
      <path id="_137794416_1" class="fil4" d="M178.24 273.2c-9.91,10.07 -28.96,2.47 -24.83,-11.98 3.35,-11.72 16.34,-13.07 23.52,-6.58 5.07,4.58 7.1,12.69 1.31,18.57z"/>
      <ellipse id="_137794512_2" class="fil5" cx="166.87" cy="269.32" rx="10.19" ry="7.05"/>
      <g>
       <g>
        <ellipse id="_137794656_3" class="fil3" cx="167.67" cy="264.21" rx="9.26" ry="9.13"/>
        <path id="_137794752_4" class="fil1" d="M162.6 258.94c-1.41,1.32 -2.3,3.2 -2.3,5.27 0,4.01 3.3,7.27 7.37,7.27 3.2,0 5.92,-2.01 6.94,-4.83 -1.32,1.24 -3.11,2 -5.07,2 -4.07,0 -7.37,-3.26 -7.37,-7.27 0,-0.86 0.15,-1.68 0.43,-2.45z"/>
        <circle id="_137794920_5" class="fil5" transform="matrix(-1.00003 -0.75939 -0.702596 0.682274 170.043 260.89)" r="3.66"/>
       </g>
       <ellipse id="_137795088_6" class="fil5" transform="matrix(-0.689038 -0.340904 -0.340904 0.689038 164.033 269.684)" rx="2.92" ry="1.66"/>
      </g>
     </g>
    </g>
   </g>
  </g>
 </g>
</svg>
