<?xml version="1.0" encoding="UTF-8"?>
<!DOCTYPE svg PUBLIC "-//W3C//DTD SVG 1.1//EN" "http://www.w3.org/Graphics/SVG/1.1/DTD/svg11.dtd">
<!-- Creator: CorelDRAW 2020 (64-Bit) -->
<svg xmlns="http://www.w3.org/2000/svg" xml:space="preserve" width="129.436mm" height="197.988mm" version="1.1" style="shape-rendering:geometricPrecision; text-rendering:geometricPrecision; image-rendering:optimizeQuality; fill-rule:evenodd; clip-rule:evenodd"
viewBox="0 0 392.29 600.05"
 xmlns:xlink="http://www.w3.org/1999/xlink"
 xmlns:xodm="http://www.corel.com/coreldraw/odm/2003">
 <defs>
  <style type="text/css">
   <![CDATA[
    .fil0 {fill:none}
    .fil2 {fill:#501D33}
    .fil6 {fill:#623448}
    .fil1 {fill:#8E7A5D}
    .fil3 {fill:#C3C077}
    .fil4 {fill:#D6D6A2}
    .fil7 {fill:#EEF698}
    .fil5 {fill:white}
   ]]>
  </style>
 </defs>
 <g id="Слой_x0020_1">
  <metadata id="CorelCorpID_0Corel-Layer"/>
  <g id="_2674610600912">
   <rect id="_273426120" class="fil0" width="392.29" height="600.05"/>
   <g>
    <path id="_137793240" class="fil1" d="M276.51 240.51c0,0 7.84,7.73 2.95,17.16 -4.89,9.43 -19.43,6.02 -19.43,6.02 0,0 18.98,-6.59 16.48,-23.19z"/>
    <path id="_137793456" class="fil1" d="M246.49 208.82c14.14,0 24.02,11.01 24.75,25.83 0.73,14.82 -7.89,26.4 -25.55,25.72 -17.66,-0.68 -27.54,-11.81 -26.57,-25.95 0.02,-0.26 0.04,-0.51 0.06,-0.76 0.05,0.04 0.07,0.07 0.07,0.07 0,0 3.06,-16.83 29.24,-19.61 0,0 -7.69,-2.11 -16.94,-0.72 4.34,-2.89 9.5,-4.58 14.93,-4.58z"/>
    <path id="_137797104" class="fil2" d="M268.73 261.73c-0.38,-0.11 2.09,-6.31 3.4,-8.13 1.32,-1.82 6.01,-5.53 6.06,-5.08 0,0 -0.19,3.64 -2.62,7.5 -0.69,1.09 -5.85,5.99 -6.85,5.72z"/>
    <path id="_137793552" class="fil3" d="M261.45 237.68c-4.21,-19.36 -38.18,-16.57 -34.77,2.56 2.92,16.42 39.61,19.7 34.77,-2.56z"/>
    <path id="_137793696" class="fil1" d="M231.9 244.32c0,0 2.59,7.34 14.81,7.38 12.22,0.04 12.9,-9.38 12.9,-9.38 0,0 -8.44,6.79 -27.71,1.99z"/>
    <polygon id="_137793984" class="fil3" points="255.64,236.74 267.87,227.84 255.32,231.72 "/>
    <path id="_137794080" class="fil1" d="M122.67 234.42c-0.98,-14.14 9.7,-25.61 23.84,-25.61 5.42,0 10.57,1.69 14.91,4.57 -9.21,-1.36 -16.84,0.74 -16.84,0.74 25.42,2.7 29.05,18.64 29.24,19.57 0.02,0.24 0.05,0.49 0.06,0.74 0.98,14.14 -9.7,25.61 -23.84,25.61 -14.14,0 -26.4,-11.46 -27.37,-25.61z"/>
    <path id="_137794200" class="fil1" d="M172.74 242.9c0,0 -6.14,23.64 -34.1,26.03 0,0 14.77,-2.5 27.16,-26.14l2.39 -2.16 4.55 2.27z"/>
    <path id="_137794296" class="fil2" d="M133.14 234.5c2.5,-8.32 10.66,-13.3 17.8,-12.88 9.19,0.54 17.29,8.99 15.83,19.81 -1.54,11.4 -11.34,15.65 -19.98,14.45 -9.63,-1.34 -17.18,-9.65 -13.65,-21.38z"/>
    <path id="_137794416" class="fil4" d="M160.01 247.17c-8.99,9.13 -26.26,2.24 -22.52,-10.87 3.04,-10.63 14.82,-11.85 21.33,-5.97 4.6,4.16 6.43,11.51 1.19,16.84z"/>
    <ellipse id="_137794512" class="fil5" cx="149.7" cy="243.65" rx="9.24" ry="6.4"/>
    <g>
     <g>
      <ellipse id="_137794656" class="fil2" cx="150.42" cy="239.02" rx="8.39" ry="8.28"/>
      <path id="_137794752" class="fil6" d="M145.82 234.24c-1.28,1.2 -2.08,2.9 -2.08,4.78 0,3.64 2.99,6.59 6.68,6.59 2.9,0 5.37,-1.83 6.29,-4.38 -1.2,1.12 -2.82,1.81 -4.6,1.81 -3.69,0 -6.68,-2.95 -6.68,-6.59 0,-0.78 0.14,-1.52 0.39,-2.22z"/>
      <circle id="_137794920" class="fil5" transform="matrix(-1.00003 -0.75939 -0.702596 0.682274 152.573 236.006)" r="3.32"/>
     </g>
     <ellipse id="_137795088" class="fil5" transform="matrix(-0.689038 -0.340904 -0.340904 0.689038 147.123 243.982)" rx="2.65" ry="1.51"/>
    </g>
    <polygon id="_137795232" class="fil3" points="255.16,251.01 266.04,259.74 259.29,248.29 "/>
    <path id="_137795328" class="fil2" d="M259.51 263.89c11.77,-6.13 16.51,-16.51 17.08,-23.72 6.66,12.93 -2.67,22.77 -17.08,23.72z"/>
    <path id="_137797224" class="fil2" d="M259.44 238.5c-3.75,-0.16 -9.5,-0.61 -15.56,-0.58 -6.64,0.03 -13.49,-0.52 -15.68,0.68 -3.35,1.84 5.22,4.06 15.77,3.8 4.88,-0.12 10.43,-0.96 15.29,-2.14 2.97,-0.72 4.9,-1.56 0.18,-1.77z"/>
    <path id="_137797320" class="fil7" d="M228.51 234.47c0,0 3.52,-8.95 15.23,-7.93 11.71,1.02 -2.29,8.95 -15.23,7.93z"/>
    <path id="_137797440" class="fil2" d="M246.56 239.01c0,0 9.23,-8.36 10.03,-7.93 0.79,0.42 -4.77,8.44 -4.77,8.44 0,0 -5.5,-0.42 -5.26,-0.51z"/>
    <path id="_137797656" class="fil2" d="M243.36 241.45c0,0 -8.33,6.89 -9.15,6.5 -0.81,-0.39 3.97,-7.1 3.97,-7.1 0,0 5.41,0.53 5.18,0.59z"/>
    <path id="_137797776" class="fil2" d="M246.4 241.19c0,0 5.48,6.89 6.45,6.5 0.97,-0.39 -1.03,-7.1 -1.03,-7.1 0,0 -5.63,0.53 -5.43,0.59z"/>
    <path id="_137797896" class="fil2" d="M242.61 238.93c0,0 -9.23,-8.36 -10.03,-7.93 -0.79,0.42 4.77,8.44 4.77,8.44 0,0 5.5,-0.42 5.26,-0.51z"/>
    <path class="fil2" d="M138.34 248l-24.06 28.55c-2.93,4.06 -3.02,5.01 0.9,1.66l28.87 -24.8 -5.71 -5.41z"/>
   </g>
  </g>
 </g>
</svg>
