<?xml version="1.0" encoding="UTF-8"?>
<!DOCTYPE svg PUBLIC "-//W3C//DTD SVG 1.1//EN" "http://www.w3.org/Graphics/SVG/1.1/DTD/svg11.dtd">
<!-- Creator: CorelDRAW 2020 (64-Bit) -->
<svg xmlns="http://www.w3.org/2000/svg" xml:space="preserve" width="129.436mm" height="197.989mm" version="1.1" style="shape-rendering:geometricPrecision; text-rendering:geometricPrecision; image-rendering:optimizeQuality; fill-rule:evenodd; clip-rule:evenodd"
viewBox="0 0 540.97 827.49"
 xmlns:xlink="http://www.w3.org/1999/xlink"
 xmlns:xodm="http://www.corel.com/coreldraw/odm/2003">
 <defs>
  <style type="text/css">
   <![CDATA[
    .fil0 {fill:none}
    .fil3 {fill:#501D33}
    .fil6 {fill:#623448}
    .fil2 {fill:#BFCAB7}
    .fil4 {fill:#D6D6A2}
    .fil5 {fill:white}
    .fil1 {fill:white}
   ]]>
  </style>
 </defs>
 <g id="Слой_x0020_1">
  <metadata id="CorelCorpID_0Corel-Layer"/>
  <g id="_2674579414832">
   <rect id="_122515064" class="fil0" y="0" width="540.97" height="827.49"/>
   <g>
    <path class="fil1" d="M370.39 343.54c-4.81,14.36 -18.37,24.71 -34.35,24.71 -3.29,0 -6.48,-0.44 -9.51,-1.27 -0.53,-2.09 -2.43,-3.64 -4.69,-3.64 -0.96,0 -1.86,0.28 -2.61,0.77 -11.53,-6.06 -19.4,-18.15 -19.4,-32.08 0,-34.27 70.76,-34.66 72.39,-1.18 -2.76,1.05 -4.73,3.72 -4.73,6.85 0,2.38 1.14,4.5 2.9,5.84z"/>
    <circle class="fil1" cx="313.23" cy="355.67" r="10.37"/>
    <circle class="fil1" cx="366.31" cy="350.97" r="8.57"/>
    <circle class="fil1" cx="360.85" cy="367.63" r="5.32"/>
    <circle class="fil1" cx="320.98" cy="370.25" r="3.66"/>
    <circle class="fil1" cx="371.91" cy="325.68" r="6.5"/>
    <path class="fil1" d="M172.45 343.54c4.81,14.36 18.37,24.71 34.35,24.71 3.29,0 6.48,-0.44 9.51,-1.27 0.53,-2.09 2.43,-3.64 4.69,-3.64 0.96,0 1.86,0.28 2.61,0.77 11.53,-6.06 19.4,-18.15 19.4,-32.08 0,-34.27 -70.76,-34.66 -72.39,-1.18 2.76,1.05 4.73,3.72 4.73,6.85 0,2.38 -1.14,4.5 -2.9,5.84z"/>
    <circle class="fil1" cx="176.73" cy="320.01" r="5.53"/>
    <circle class="fil1" cx="229.61" cy="355.67" r="10.37"/>
    <g>
     <path class="fil2" d="M233.96 337.84c0,0 -4.01,24.74 -30.55,25.16 0,0 14.65,-4.15 15.62,-23.08 0,0 4.01,-4.15 4.84,-4.15 0.83,0 10.09,2.07 10.09,2.07z"/>
     <ellipse class="fil2" cx="207.7" cy="332.52" rx="26.65" ry="25.77"/>
     <g>
      <path id="_137794296" class="fil3" d="M183.97 324.74c3.45,-11.47 15.39,-13.37 25.24,-12.79 12.67,0.75 23.15,7.42 21.14,22.35 -2.12,15.72 -15.64,21.58 -27.56,19.93 -13.28,-1.84 -23.69,-13.3 -18.83,-29.49z"/>
      <path id="_137794416" class="fil4" d="M221.01 342.21c-12.4,12.59 -36.22,3.09 -31.05,-14.99 4.19,-14.65 20.43,-16.35 29.41,-8.23 6.34,5.73 8.87,15.87 1.64,23.22z"/>
      <ellipse id="_137794512" class="fil5" cx="206.8" cy="337.36" rx="12.75" ry="8.82"/>
      <g>
       <g>
        <ellipse id="_137794656" class="fil3" cx="207.8" cy="330.97" rx="11.58" ry="11.42"/>
        <path id="_137794752" class="fil6" d="M201.45 324.38c-1.77,1.66 -2.87,4 -2.87,6.6 0,5.02 4.13,9.09 9.22,9.09 4,0 7.41,-2.52 8.68,-6.03 -1.65,1.55 -3.88,2.5 -6.34,2.5 -5.09,0 -9.22,-4.07 -9.22,-9.09 0,-1.07 0.19,-2.1 0.54,-3.06z"/>
        <circle id="_137794920" class="fil5" transform="matrix(-1.00003 -0.75939 -0.702596 0.682274 210.766 326.82)" r="4.58"/>
       </g>
       <ellipse id="_137795088" class="fil5" transform="matrix(-0.689038 -0.340904 -0.340904 0.689038 203.25 337.819)" rx="3.66" ry="2.08"/>
      </g>
     </g>
     <g>
      <path id="_288389784" class="fil2" d="M233.42 333.42l-50.38 -7.46c0,0 3.56,-18.36 27.6,-16.05 20.86,1.96 22.79,23.5 22.79,23.5z"/>
      <path id="_288389712" class="fil3" d="M237.87 334.6c0,0 -58.92,-7.74 -59.7,-8.49 -0.78,-0.76 0.3,-1.53 1.77,-1.72 1.47,-0.19 20.65,-1.5 30.96,0.34 10.31,1.84 25.38,6.54 27.42,8.48 0,0 1.63,1.26 -0.44,1.4z"/>
      <path id="_288389640" class="fil1" d="M229.63 327.55c0,0 -3.8,-15.03 -19.4,-15.63 -15.61,-0.61 11.75,14.82 19.4,15.63z"/>
     </g>
    </g>
    <g>
     <path class="fil2" d="M309.62 337.84c0,0 4.01,24.74 30.55,25.16 0,0 -14.65,-4.15 -15.62,-23.08 0,0 -4.01,-4.15 -4.84,-4.15 -0.83,0 -10.09,2.07 -10.09,2.07z"/>
     <ellipse class="fil2" cx="335.88" cy="332.52" rx="26.65" ry="25.77"/>
     <g>
      <path id="_137794296_0" class="fil3" d="M359.61 324.74c-4.91,-16.35 -50.16,-15.17 -46.38,9.56 2.12,15.72 15.64,21.58 27.56,19.93 13.28,-1.84 23.69,-13.3 18.83,-29.49z"/>
      <path id="_137794416_1" class="fil4" d="M322.56 342.21c12.4,12.59 36.22,3.09 31.05,-14.99 -4.19,-14.65 -20.43,-16.35 -29.41,-8.23 -6.34,5.73 -8.87,15.87 -1.64,23.22z"/>
      <ellipse id="_137794512_2" class="fil5" cx="336.78" cy="337.36" rx="12.75" ry="8.82"/>
      <g>
       <g>
        <ellipse id="_137794656_3" class="fil3" cx="335.78" cy="330.97" rx="11.58" ry="11.42"/>
        <path id="_137794752_4" class="fil6" d="M342.12 324.38c1.77,1.66 2.87,4 2.87,6.6 0,5.02 -4.13,9.09 -9.22,9.09 -4,0 -7.41,-2.52 -8.68,-6.03 1.65,1.55 3.88,2.5 6.34,2.5 5.09,0 9.22,-4.07 9.22,-9.09 0,-1.07 -0.19,-2.1 -0.54,-3.06z"/>
        <circle id="_137794920_5" class="fil5" transform="matrix(1.00003 -0.75939 0.702596 0.682274 332.811 326.82)" r="4.58"/>
       </g>
       <ellipse id="_137795088_6" class="fil5" transform="matrix(0.689038 -0.340904 0.340904 0.689038 340.327 337.819)" rx="3.66" ry="2.08"/>
      </g>
     </g>
     <g>
      <path id="_288389784_7" class="fil2" d="M310.85 332.8l49.28 -8.22c0,0 -7.22,-18.01 -26.63,-16.05 -19.41,1.96 -22.65,24.27 -22.65,24.27z"/>
      <path id="_288389712_8" class="fil3" d="M306.4 333.97c0,0 58.92,-7.74 59.7,-8.49 0.78,-0.76 -0.3,-1.53 -1.77,-1.72 -1.47,-0.19 -20.65,-1.5 -30.96,0.34 -10.31,1.84 -25.38,6.54 -27.42,8.48 0,0 -1.63,1.26 0.44,1.4z"/>
      <path id="_288389640_9" class="fil1" d="M314.64 326.93c0,0 3.8,-15.03 19.4,-15.63 15.61,-0.61 -11.75,14.82 -19.4,15.63z"/>
     </g>
    </g>
    <circle class="fil1" cx="176.53" cy="350.97" r="8.57"/>
    <circle class="fil1" cx="165.68" cy="337.91" r="5.32"/>
    <circle class="fil1" cx="221.86" cy="370.25" r="3.66"/>
    <circle class="fil1" cx="238.52" cy="319.73" r="5.53"/>
    <circle class="fil1" cx="191.66" cy="361.8" r="6.22"/>
    <circle class="fil1" cx="196.74" cy="371.58" r="3.01"/>
   </g>
  </g>
 </g>
</svg>
