<?xml version="1.0" encoding="UTF-8"?>
<!DOCTYPE svg PUBLIC "-//W3C//DTD SVG 1.1//EN" "http://www.w3.org/Graphics/SVG/1.1/DTD/svg11.dtd">
<!-- Creator: CorelDRAW 2020 (64-Bit) -->
<svg xmlns="http://www.w3.org/2000/svg" xml:space="preserve" width="129.436mm" height="197.989mm" version="1.1" style="shape-rendering:geometricPrecision; text-rendering:geometricPrecision; image-rendering:optimizeQuality; fill-rule:evenodd; clip-rule:evenodd"
viewBox="0 0 800.42 1224.34"
 xmlns:xlink="http://www.w3.org/1999/xlink"
 xmlns:xodm="http://www.corel.com/coreldraw/odm/2003">
 <defs>
  <style type="text/css">
   <![CDATA[
    .fil0 {fill:none}
    .fil2 {fill:#501D33}
    .fil5 {fill:#623448}
    .fil1 {fill:#8E7A5D}
    .fil3 {fill:#CBD6C5}
    .fil4 {fill:white}
   ]]>
  </style>
 </defs>
 <g id="Слой_x0020_1">
  <metadata id="CorelCorpID_0Corel-Layer"/>
  <g id="_2674461159984">
   <rect id="_135982752" class="fil0" width="800.42" height="1224.34"/>
   <g>
    <g>
     <path id="_137793336" class="fil1" d="M247.18 479.77c0,0 -16.35,22.48 -6.38,39.76 9.97,17.28 40.81,12.41 40.81,12.41 0,0 -38.38,-12.41 -34.43,-52.16z"/>
     <circle id="_137794080" class="fil1" transform="matrix(-1 -0 0.068977 1 305.131 479.5)" r="52.25"/>
     <path id="_137794200" class="fil1" d="M355.06 496.79c0,0 -12.52,48.23 -69.57,53.1 0,0 30.15,-5.1 55.42,-53.34l4.87 -4.41 9.28 4.64z"/>
     <path id="_137794296" class="fil2" d="M274.25 479.66c5.1,-16.97 21.75,-27.15 36.32,-26.28 18.74,1.11 35.28,18.35 32.31,40.42 -3.14,23.26 -23.14,31.94 -40.77,29.49 -19.65,-2.72 -35.05,-19.69 -27.85,-43.63z"/>
     <path id="_137794416" class="fil3" d="M329.07 505.51c-18.34,18.63 -53.59,4.58 -45.95,-22.17 6.19,-21.68 30.23,-24.19 43.52,-12.18 9.39,8.48 13.13,23.49 2.43,34.35z"/>
     <ellipse id="_137794512" class="fil4" cx="308.03" cy="498.32" rx="18.86" ry="13.05"/>
     <g>
      <g>
       <ellipse id="_137794656" class="fil2" cx="309.51" cy="488.88" rx="17.13" ry="16.9"/>
       <path id="_137794752" class="fil5" d="M300.13 479.12c-2.62,2.45 -4.25,5.92 -4.25,9.76 0,7.43 6.1,13.45 13.63,13.45 5.92,0 10.96,-3.73 12.84,-8.93 -2.45,2.29 -5.75,3.69 -9.38,3.69 -7.53,0 -13.63,-6.02 -13.63,-13.45 0,-1.59 0.28,-3.11 0.79,-4.52z"/>
       <circle id="_137794920" class="fil4" transform="matrix(-1.00003 -0.75939 -0.702596 0.682274 313.904 482.734)" r="6.78"/>
      </g>
      <ellipse id="_137795088" class="fil4" transform="matrix(-0.689038 -0.340904 -0.340904 0.689038 302.783 499.007)" rx="5.41" ry="3.07"/>
     </g>
     <path id="_137795448" class="fil2" d="M282.56 532.27c-27.67,-12.83 -34.27,-29.35 -35.18,-53.22 -15.12,34.86 3.25,53.62 35.18,53.22z"/>
    </g>
    <g>
     <path id="_137793336_0" class="fil1" d="M553.24 479.77c0,0 16.35,22.48 6.38,39.76 -9.97,17.28 -40.81,12.41 -40.81,12.41 0,0 38.38,-12.41 34.43,-52.16z"/>
     <circle id="_137794080_1" class="fil1" transform="matrix(1 -0 -0.068977 1 495.289 479.5)" r="52.25"/>
     <path id="_137794200_2" class="fil1" d="M445.36 496.79c0,0 12.52,48.23 69.57,53.1 0,0 -30.15,-5.1 -55.42,-53.34l-4.87 -4.41 -9.28 4.64z"/>
     <path id="_137794296_3" class="fil2" d="M526.17 479.66c-5.1,-16.97 -21.75,-27.15 -36.32,-26.28 -18.74,1.11 -35.28,18.35 -32.31,40.42 3.14,23.26 23.14,31.94 40.77,29.49 19.65,-2.72 35.05,-19.69 27.85,-43.63z"/>
     <path id="_137794416_4" class="fil3" d="M471.35 505.51c18.34,18.63 53.59,4.58 45.95,-22.17 -6.19,-21.68 -30.23,-24.19 -43.52,-12.18 -9.39,8.48 -13.13,23.49 -2.43,34.35z"/>
     <ellipse id="_137794512_5" class="fil4" cx="492.39" cy="498.32" rx="18.86" ry="13.05"/>
     <g>
      <g>
       <ellipse id="_137794656_6" class="fil2" cx="490.91" cy="488.88" rx="17.13" ry="16.9"/>
       <path id="_137794752_7" class="fil5" d="M500.29 479.12c2.62,2.45 4.25,5.92 4.25,9.76 0,7.43 -6.1,13.45 -13.63,13.45 -5.92,0 -10.96,-3.73 -12.84,-8.93 2.45,2.29 5.75,3.69 9.38,3.69 7.53,0 13.63,-6.02 13.63,-13.45 0,-1.59 -0.28,-3.11 -0.79,-4.52z"/>
       <circle id="_137794920_8" class="fil4" transform="matrix(1.00003 -0.75939 0.702596 0.682274 486.517 482.734)" r="6.78"/>
      </g>
      <ellipse id="_137795088_9" class="fil4" transform="matrix(0.689038 -0.340904 0.340904 0.689038 497.637 499.007)" rx="5.41" ry="3.07"/>
     </g>
     <path id="_137795448_10" class="fil2" d="M517.86 532.27c27.67,-12.83 34.27,-29.35 35.18,-53.22 15.12,34.86 -3.25,53.62 -35.18,53.22z"/>
    </g>
   </g>
  </g>
 </g>
</svg>
