<?xml version="1.0" encoding="UTF-8"?>
<!DOCTYPE svg PUBLIC "-//W3C//DTD SVG 1.1//EN" "http://www.w3.org/Graphics/SVG/1.1/DTD/svg11.dtd">
<!-- Creator: CorelDRAW 2020 (64-Bit) -->
<svg xmlns="http://www.w3.org/2000/svg" xml:space="preserve" width="129.436mm" height="197.989mm" version="1.1" style="shape-rendering:geometricPrecision; text-rendering:geometricPrecision; image-rendering:optimizeQuality; fill-rule:evenodd; clip-rule:evenodd"
viewBox="0 0 628.11 960.77"
 xmlns:xlink="http://www.w3.org/1999/xlink"
 xmlns:xodm="http://www.corel.com/coreldraw/odm/2003">
 <defs>
  <style type="text/css">
   <![CDATA[
    .fil6 {fill:none}
    .fil1 {fill:#501D33}
    .fil5 {fill:#88958A}
    .fil0 {fill:#8E7A5D}
    .fil4 {fill:#AFC0A6}
    .fil2 {fill:#CBD6C5}
    .fil3 {fill:white}
   ]]>
  </style>
 </defs>
 <g id="Слой_x0020_1">
  <metadata id="CorelCorpID_0Corel-Layer"/>
  <g id="_2674601121200">
   <g>
    <g>
     <path id="_137793336" class="fil0" d="M193.97 376.49c0,0 -12.83,17.64 -5,31.2 7.82,13.56 32.03,9.74 32.03,9.74 0,0 -30.12,-9.74 -27.02,-40.93z"/>
     <circle id="_137794080" class="fil0" transform="matrix(-1 -0 0.068977 1 239.444 376.275)" r="41"/>
     <path id="_137794200" class="fil0" d="M278.62 389.85c0,0 -9.83,37.85 -54.59,41.67 0,0 23.66,-4 43.49,-41.85l3.82 -3.46 7.28 3.64z"/>
     <path id="_137794296" class="fil1" d="M215.21 376.4c4,-13.32 17.06,-21.3 28.5,-20.63 14.71,0.87 27.69,14.4 25.35,31.72 -2.46,18.25 -18.16,25.06 -32,23.14 -15.42,-2.14 -27.5,-15.45 -21.86,-34.24z"/>
     <path id="_137794416" class="fil2" d="M258.23 396.69c-14.39,14.62 -42.05,3.59 -36.06,-17.4 4.86,-17.01 23.73,-18.98 34.15,-9.56 7.37,6.66 10.3,18.43 1.91,26.96z"/>
     <ellipse id="_137794512" class="fil3" cx="241.72" cy="391.05" rx="14.8" ry="10.24"/>
     <g>
      <g>
       <ellipse id="_137794656" class="fil4" cx="242.88" cy="383.63" rx="13.44" ry="13.26"/>
       <path id="_137794752" class="fil5" d="M235.52 375.98c-2.05,1.92 -3.34,4.64 -3.34,7.66 0,5.83 4.79,10.56 10.7,10.56 4.65,0 8.6,-2.92 10.08,-7.01 -1.92,1.8 -4.51,2.9 -7.36,2.9 -5.91,0 -10.7,-4.73 -10.7,-10.56 0,-1.25 0.22,-2.44 0.62,-3.55z"/>
       <circle id="_137794920" class="fil3" transform="matrix(-1.00003 -0.75939 -0.702596 0.682274 246.328 378.813)" r="5.32"/>
      </g>
      <ellipse id="_137795088" class="fil3" transform="matrix(-0.689038 -0.340904 -0.340904 0.689038 237.601 391.583)" rx="4.25" ry="2.41"/>
     </g>
     <path id="_137795448" class="fil1" d="M221.73 417.69c-21.71,-10.07 -26.89,-23.03 -27.6,-41.76 -11.86,27.35 2.55,42.08 27.6,41.76z"/>
    </g>
    <g>
     <path id="_137793336_0" class="fil0" d="M434.14 376.49c0,0 12.83,17.64 5,31.2 -7.82,13.56 -32.03,9.74 -32.03,9.74 0,0 30.12,-9.74 27.02,-40.93z"/>
     <circle id="_137794080_1" class="fil0" transform="matrix(1 -0 -0.068977 1 388.665 376.275)" r="41"/>
     <path id="_137794200_2" class="fil0" d="M349.49 389.85c0,0 9.83,37.85 54.59,41.67 0,0 -23.66,-4 -43.49,-41.85l-3.82 -3.46 -7.28 3.64z"/>
     <path id="_137794296_3" class="fil1" d="M412.9 376.4c-4,-13.32 -17.06,-21.3 -28.5,-20.63 -14.71,0.87 -27.69,14.4 -25.35,31.72 2.46,18.25 18.16,25.06 32,23.14 15.42,-2.14 27.5,-15.45 21.86,-34.24z"/>
     <path id="_137794416_4" class="fil2" d="M369.88 396.69c14.39,14.62 42.05,3.59 36.06,-17.4 -4.86,-17.01 -23.73,-18.98 -34.15,-9.56 -7.37,6.66 -10.3,18.43 -1.91,26.96z"/>
     <ellipse id="_137794512_5" class="fil3" cx="386.39" cy="391.05" rx="14.8" ry="10.24"/>
     <g>
      <g>
       <ellipse id="_137794656_6" class="fil4" cx="385.23" cy="383.63" rx="13.44" ry="13.26"/>
       <path id="_137794752_7" class="fil5" d="M392.59 375.98c2.05,1.92 3.34,4.64 3.34,7.66 0,5.83 -4.79,10.56 -10.7,10.56 -4.65,0 -8.6,-2.92 -10.08,-7.01 1.92,1.8 4.51,2.9 7.36,2.9 5.91,0 10.7,-4.73 10.7,-10.56 0,-1.25 -0.22,-2.44 -0.62,-3.55z"/>
       <circle id="_137794920_8" class="fil3" transform="matrix(1.00003 -0.75939 0.702596 0.682274 381.781 378.813)" r="5.32"/>
      </g>
      <ellipse id="_137795088_9" class="fil3" transform="matrix(0.689038 -0.340904 0.340904 0.689038 390.508 391.583)" rx="4.25" ry="2.41"/>
     </g>
     <path id="_137795448_10" class="fil1" d="M406.38 417.69c21.71,-10.07 26.89,-23.03 27.6,-41.76 11.86,27.35 -2.55,42.08 -27.6,41.76z"/>
    </g>
   </g>
   <rect id="_135982752" class="fil6" width="628.11" height="960.77"/>
  </g>
 </g>
</svg>
