<?xml version="1.0" encoding="UTF-8"?>
<!DOCTYPE svg PUBLIC "-//W3C//DTD SVG 1.1//EN" "http://www.w3.org/Graphics/SVG/1.1/DTD/svg11.dtd">
<!-- Creator: CorelDRAW 2020 (64-Bit) -->
<svg xmlns="http://www.w3.org/2000/svg" xml:space="preserve" width="129.436mm" height="197.989mm" version="1.1" style="shape-rendering:geometricPrecision; text-rendering:geometricPrecision; image-rendering:optimizeQuality; fill-rule:evenodd; clip-rule:evenodd"
viewBox="0 0 2486.59 3803.57"
 xmlns:xlink="http://www.w3.org/1999/xlink"
 xmlns:xodm="http://www.corel.com/coreldraw/odm/2003">
 <defs>
  <style type="text/css">
   <![CDATA[
    .fil0 {fill:none}
    .fil2 {fill:#501D33}
    .fil5 {fill:#623448}
    .fil1 {fill:#8E7A5D}
    .fil3 {fill:#D6D6A2}
    .fil4 {fill:white}
   ]]>
  </style>
 </defs>
 <g id="Слой_x0020_1">
  <metadata id="CorelCorpID_0Corel-Layer"/>
  <g id="_2674301118864">
   <g>
    <g id="_271690008">
     <rect id="_124534360" class="fil0" width="2486.59" height="3803.57"/>
     <g>
      <path id="_285104424" class="fil1" d="M1088.3 1473.12c0,0 -1.08,229.29 -215.23,221.72 -72.96,-2.58 -108.75,-38.16 -126.68,-84.65 52.92,30.31 107.48,31.15 107.48,31.15 -93.87,-26.36 -119.45,-117.74 -126.42,-163.49 -0.82,-104.52 138.72,-121.58 242,-92.51 52.34,14.73 98.51,55.08 118.85,87.78z"/>
      <path id="_123378168" class="fil1" d="M998.24 1705.68c0,0 73.03,-79.02 59.7,-226.92l-5.86 -47.86c104.28,77.68 59.09,217.79 -53.84,274.79z"/>
      <path id="_123378576" class="fil2" d="M1039.98 1493.43c0,0 31.91,168.97 -131.41,185.19 0,0 104.39,-26.5 93.58,-156.29l29.83 -18.88 8 -10.02z"/>
      <path id="_123360816" class="fil2" d="M866.88 1588.39c-41.95,-37.58 -37.9,-103.99 0.88,-140.67 58.25,-55.11 173.68,-29.19 175,64 1.37,96.81 -110.93,134.86 -175.89,76.67l0 0z"/>
      <path id="_123361176" class="fil3" d="M1004.98 1562.49c-25.18,25.57 -62.55,28.72 -90.38,15.75 -29.25,-13.63 -50.21,-42.21 -39.81,-78.58 17.55,-61.43 85.67,-68.53 123.31,-34.51 26.6,24.04 37.2,66.55 6.88,97.34z"/>
      <ellipse id="_123361488" class="fil4" cx="945.37" cy="1542.13" rx="53.44" ry="36.98"/>
      <ellipse id="_123361944" class="fil2" cx="950.3" cy="1518.14" rx="47.86" ry="47.21"/>
      <path id="_123373992" class="fil5" d="M924.08 1490.87c-7.31,6.85 -11.88,16.53 -11.88,27.26 0,20.76 17.06,37.59 38.1,37.59 16.54,0 30.62,-10.41 35.88,-24.95 -6.83,6.4 -16.06,10.33 -26.22,10.33 -21.04,0 -38.1,-16.83 -38.1,-37.59 0,-4.43 0.79,-8.69 2.22,-12.64z"/>
      <circle id="_123374544" class="fil4" transform="matrix(-0.899439 -0.683003 -0.631922 0.613645 962.569 1500.97)" r="21.06"/>
      <ellipse id="_123373584" class="fil4" transform="matrix(-0.619728 -0.306613 -0.306613 0.619728 931.497 1546.44)" rx="16.81" ry="9.55"/>
      <path id="_123364944" class="fil2" d="M806.27 1484.46c5.25,-0.31 -16.28,74.21 38.7,118.1 0,0 -50.2,-10.09 -61.53,-45.69 -11.33,-35.6 22.83,-72.41 22.83,-72.41z"/>
      <path id="_123379824" class="fil1" d="M696.06 1538.06c0,0 -9.59,98.87 85.6,152.59 0,0 -76.9,-9.39 -98.63,-55.62 -21.73,-46.23 13.03,-96.97 13.03,-96.97z"/>
      <path id="_285104568" class="fil1" d="M1399.37 1473.09c0,0 1.08,229.29 215.23,221.72 72.96,-2.58 108.75,-38.16 126.68,-84.65 -52.92,30.31 -107.48,31.15 -107.48,31.15 93.87,-26.36 119.45,-117.74 126.42,-163.49 0.82,-104.52 -138.72,-121.58 -242,-92.51 -52.34,14.73 -98.51,55.08 -118.85,87.78z"/>
      <path id="_118465296" class="fil1" d="M1489.44 1705.65c0,0 -73.03,-79.02 -59.7,-226.92l5.86 -47.86c-104.28,77.68 -59.09,217.79 53.84,274.79z"/>
      <path id="_118465512" class="fil2" d="M1447.7 1493.4c0,0 -31.91,168.97 131.41,185.19 0,0 -104.39,-26.5 -93.58,-156.29l-29.83 -18.88 -8 -10.02z"/>
      <path id="_118465944" class="fil2" d="M1620.79 1588.37c56.22,-50.37 28.24,-152.01 -53.66,-165.03 -70.42,-15.87 -121.62,30.05 -122.54,95.03 -1.37,96.81 111.25,128.19 176.2,70l-0 0z"/>
      <path id="_118466160" class="fil3" d="M1482.7 1562.46c25.18,25.57 62.55,28.72 90.38,15.75 29.25,-13.63 50.21,-42.21 39.81,-78.58 -17.55,-61.43 -85.67,-68.53 -123.31,-34.51 -26.6,24.04 -37.2,66.55 -6.88,97.34z"/>
      <ellipse id="_118461576" class="fil4" cx="1542.3" cy="1542.11" rx="53.44" ry="36.98"/>
      <ellipse id="_118461816" class="fil2" cx="1537.38" cy="1518.12" rx="47.86" ry="47.21"/>
      <path id="_118462128" class="fil5" d="M1563.6 1490.85c7.31,6.85 11.88,16.53 11.88,27.26 0,20.76 -17.06,37.59 -38.1,37.59 -16.54,0 -30.62,-10.41 -35.88,-24.95 6.83,6.4 16.06,10.33 26.22,10.33 21.04,0 38.1,-16.83 38.1,-37.59 0,-4.43 -0.79,-8.69 -2.22,-12.64z"/>
      <circle id="_118462368" class="fil4" transform="matrix(0.899439 -0.683003 0.631922 0.613645 1525.11 1500.94)" r="21.06"/>
      <ellipse id="_118462800" class="fil4" transform="matrix(0.619728 -0.306613 0.306613 0.619728 1556.18 1546.42)" rx="16.81" ry="9.55"/>
      <path id="_118463328" class="fil2" d="M1673.48 1493.26c-5.26,0 20.68,73.11 -31.59,120.19 0,0 45.19,-10.91 57.98,-52.16 12.79,-41.25 -26.39,-68.04 -26.39,-68.04z"/>
      <path id="_118463880" class="fil1" d="M1791.63 1538.03c0,0 9.59,98.87 -85.6,152.59 0,0 76.9,-9.39 98.63,-55.62 21.73,-46.23 -13.03,-96.97 -13.03,-96.97z"/>
     </g>
    </g>
   </g>
   <circle class="fil2" cx="697.63" cy="1478.89" r="20.33"/>
   <circle class="fil2" cx="793.57" cy="1451.57" r="14.61"/>
   <circle class="fil2" cx="737.97" cy="1559.26" r="12.39"/>
   <circle class="fil2" cx="826.29" cy="1653.3" r="10.48"/>
   <circle class="fil2" cx="1671.01" cy="1434.41" r="15.88"/>
   <circle class="fil2" cx="1756.15" cy="1480.79" r="16.52"/>
   <circle class="fil2" cx="1612.24" cy="1660.92" r="16.84"/>
   <circle class="fil2" cx="1630.03" cy="1420.75" r="9.21"/>
   <circle class="fil2" cx="1826.04" cy="1514.47" r="12.71"/>
   <circle class="fil2" cx="1732.64" cy="1584.99" r="12.71"/>
   <circle class="fil2" cx="1414.32" cy="1508.75" r="12.7"/>
   <circle class="fil2" cx="1425.75" cy="1443.31" r="13.34"/>
   <circle class="fil2" cx="1098.86" cy="1568.15" r="17.47"/>
   <circle class="fil2" cx="1389.86" cy="1594.84" r="17.47"/>
   <circle class="fil2" cx="1066.14" cy="1463.64" r="12.71"/>
   <circle class="fil2" cx="1075.67" cy="1607.87" r="11.44"/>
   <circle class="fil2" cx="656.96" cy="1563.39" r="11.44"/>
  </g>
 </g>
</svg>
