<?xml version="1.0" encoding="UTF-8"?>
<!DOCTYPE svg PUBLIC "-//W3C//DTD SVG 1.1//EN" "http://www.w3.org/Graphics/SVG/1.1/DTD/svg11.dtd">
<!-- Creator: CorelDRAW 2020 (64-Bit) -->
<svg xmlns="http://www.w3.org/2000/svg" xml:space="preserve" width="129.436mm" height="197.988mm" version="1.1" style="shape-rendering:geometricPrecision; text-rendering:geometricPrecision; image-rendering:optimizeQuality; fill-rule:evenodd; clip-rule:evenodd"
viewBox="0 0 1854.96 2837.4"
 xmlns:xlink="http://www.w3.org/1999/xlink"
 xmlns:xodm="http://www.corel.com/coreldraw/odm/2003">
 <defs>
  <style type="text/css">
   <![CDATA[
    .fil0 {fill:none}
    .fil2 {fill:#501D33}
    .fil5 {fill:#623448}
    .fil1 {fill:#8E7A5D}
    .fil6 {fill:#C3C077}
    .fil3 {fill:#D6D6A2}
    .fil7 {fill:#EEF698}
    .fil4 {fill:white}
   ]]>
  </style>
 </defs>
 <g id="Слой_x0020_1">
  <metadata id="CorelCorpID_0Corel-Layer"/>
  <g id="_2674453850272">
   <g id="_288384312">
    <rect id="_285619528" class="fil0" y="0" width="1854.97" height="2837.4"/>
    <path id="_272797672" class="fil1" d="M598.21 1197.46c0,0 43.09,54.28 109.15,51.05 66.07,-3.22 107.43,-50.52 107.43,-50.52 -48.17,98.58 -172.42,104.45 -216.58,-0.54z"/>
    <circle id="_118818072" class="fil1" transform="matrix(1 -0 -0.0439414 1 1154.19 1108.48)" r="121.08"/>
    <path id="_118816512" class="fil1" d="M1063.32 969.07c0,0 -79,117.69 -9.14,209.06l32.25 -26.33c0,0 -55.35,-100.5 -23.11,-182.72z"/>
    <path id="_118816296" class="fil2" d="M1228.78 1108.86c-27.03,-89.91 -171.32,-58.19 -159.05,32.77 7.27,53.9 56.58,70.8 95.57,65.67 45.59,-6 80.16,-42.94 63.48,-98.44z"/>
    <path id="_118812696" class="fil3" d="M1101.75 1168.77c42.51,43.17 124.19,10.61 106.48,-51.38 -14.35,-50.24 -70.07,-56.05 -100.85,-28.23 -21.75,19.66 -30.43,54.43 -5.63,79.61z"/>
    <ellipse id="_118812408" class="fil4" cx="1150.5" cy="1152.11" rx="43.71" ry="30.24"/>
    <path id="_272318128" class="fil1" d="M704.06 982.03c-66.86,0 -128.63,59.59 -124.02,126.45 4.61,66.86 62.57,121.08 129.43,121.08 66.86,0 117.34,-54.22 112.73,-121.08 -4.61,-66.86 -51.29,-126.45 -118.14,-126.45z"/>
    <path id="_272301880" class="fil1" d="M795.03 969.07c0,0 79,117.69 9.14,209.06l-32.25 -26.33c0,0 55.35,-100.5 23.11,-182.72z"/>
    <path id="_272317816" class="fil2" d="M629.57 1108.86c27.03,-89.91 171.32,-58.19 159.05,32.77 -7.27,53.9 -56.58,70.8 -95.57,65.67 -45.59,-6 -80.16,-42.94 -63.48,-98.44z"/>
    <path id="_272301520" class="fil3" d="M756.6 1168.77c-42.51,43.17 -124.19,10.61 -106.48,-51.38 14.35,-50.24 70.07,-56.05 100.85,-28.23 21.75,19.66 30.43,54.43 5.63,79.61z"/>
    <ellipse id="_272301304" class="fil4" cx="707.85" cy="1152.11" rx="43.71" ry="30.24"/>
    <g>
     <ellipse id="_288387720" class="fil2" cx="1146.74" cy="1132.64" rx="38.6" ry="38.08"/>
     <path id="_288387648" class="fil5" d="M1125.59 1110.65c-5.9,5.52 -9.58,13.34 -9.58,21.99 0,16.74 13.76,30.32 30.73,30.32 13.34,0 24.7,-8.4 28.94,-20.12 -5.51,5.16 -12.95,8.33 -21.15,8.33 -16.97,0 -30.73,-13.58 -30.73,-30.32 0,-3.58 0.63,-7.01 1.79,-10.2z"/>
     <circle id="_288387576" class="fil4" transform="matrix(-0.972551 -0.738522 -0.683289 0.663525 1156.64 1118.8)" r="15.71"/>
    </g>
    <g>
     <ellipse id="_288387480" class="fil2" cx="710.6" cy="1130.49" rx="38.6" ry="38.08"/>
     <path id="_288387408" class="fil5" d="M689.45 1108.5c-5.9,5.52 -9.58,13.34 -9.58,21.99 0,16.74 13.76,30.32 30.73,30.32 13.34,0 24.7,-8.4 28.94,-20.12 -5.51,5.16 -12.95,8.33 -21.15,8.33 -16.97,0 -30.73,-13.58 -30.73,-30.32 0,-3.58 0.63,-7.01 1.79,-10.2z"/>
     <circle id="_288387336" class="fil4" transform="matrix(-0.972551 -0.738522 -0.683289 0.663525 720.495 1116.64)" r="15.71"/>
    </g>
    <polygon id="_288387240" class="fil1" points="1256.61,1094.29 1360.86,1088.76 1259.83,1125.28 "/>
    <polygon id="_288387168" class="fil1" points="590.07,1092.41 513.91,1088.37 587.71,1115.05 "/>
    <polygon id="_288387096" class="fil1" points="1253.65,1127.64 1380.22,1157.96 1247.82,1163.9 "/>
    <polygon id="_288387024" class="fil1" points="603.45,1139.32 511.21,1179.56 612.81,1166.13 "/>
    <g>
     <g>
      <g>
       <path id="_288386952" class="fil2" d="M1046.89 1117.97c6.47,-77.13 54.48,-107.38 102.15,-107.86 46.88,-0.47 107.38,28.88 105.85,110.94 -0.19,10.28 -120.66,-77.02 -208,-3.08z"/>
       <path id="_288386880" class="fil1" d="M1064.22 1091.09c16.09,-47.22 52.02,-87.49 92.18,-84.97 34.96,2.2 68.31,40.47 78.55,83.56 0,0 -94.96,-74.18 -170.74,1.41z"/>
      </g>
      <g>
       <path id="_288386784" class="fil2" d="M1047.14 1113.21c12.77,-53.18 58.06,-77.26 103.52,-77.63 49.46,-2.53 104.35,31.41 103.7,86.06 -0.12,10.47 -13.18,4.82 -25.72,0.69 -35.31,-11.62 -94.35,-27.55 -154.73,-0.32 -14.96,6.75 -33.21,18.04 -26.77,-8.8z"/>
       <path id="_288386712" class="fil6" d="M1057.97 1114.62c13.92,-47.95 53.55,-66.41 95.94,-63.84 36.91,2.25 74.64,23.92 89.07,65.8 -29.12,-14.26 -106.98,-51.37 -185.01,-1.96z"/>
      </g>
     </g>
     <path id="_288386592" class="fil7" d="M1072.81 1093c0,0 20.45,-37.04 73.13,-38 52.68,-0.95 72.02,36.36 72.02,36.36 0,0 -67.2,-45.23 -145.15,1.63z"/>
    </g>
    <g>
     <g>
      <g>
       <path id="_288386496" class="fil2" d="M599.95 1117.97c6.47,-77.13 53.4,-110.07 101.07,-110.55 46.88,-0.47 103.08,31.57 101.55,113.63 -0.19,10.28 -115.29,-77.02 -202.62,-3.08z"/>
       <path id="_288386424" class="fil1" d="M617.28 1091.09c16.09,-47.22 48.26,-91.25 88.42,-88.73 34.96,2.2 69.38,45.84 82.31,87.32 0,0 -94.96,-74.18 -170.74,1.41z"/>
      </g>
      <g>
       <path id="_288386328" class="fil2" d="M600.19 1113.21c12.77,-53.18 58.06,-77.26 103.52,-77.63 46.77,-0.38 93.69,28.43 98.87,82.84 1.48,15.57 -8.35,8.03 -20.89,3.91 -35.31,-11.62 -94.35,-27.55 -154.73,-0.32 -14.96,6.75 -33.21,18.04 -26.77,-8.8z"/>
       <path id="_288386256" class="fil6" d="M611.02 1114.62c13.92,-47.95 53.55,-66.41 95.94,-63.84 36.91,2.25 74.64,23.92 89.07,65.8 -29.12,-14.26 -106.98,-51.37 -185.01,-1.96z"/>
      </g>
     </g>
     <path id="_288386136" class="fil7" d="M625.87 1093c0,0 20.45,-37.04 73.13,-38 52.68,-0.95 72.02,36.36 72.02,36.36 0,0 -67.2,-45.23 -145.15,1.63z"/>
    </g>
    <path id="_288384672" class="fil1" d="M587.23 1118.34l-115.24 5.9 122.2 17.69c0,0 -6.43,-23.58 -6.97,-23.58z"/>
    <path id="_288384600" class="fil1" d="M1050.24 1202.31c0,0 43.09,54.28 109.15,51.05 66.07,-3.22 107.43,-50.52 107.43,-50.52 -48.17,98.58 -172.42,104.45 -216.58,-0.54z"/>
   </g>
  </g>
 </g>
</svg>
