<?xml version="1.0" encoding="UTF-8"?>
<!DOCTYPE svg PUBLIC "-//W3C//DTD SVG 1.1//EN" "http://www.w3.org/Graphics/SVG/1.1/DTD/svg11.dtd">
<!-- Creator: CorelDRAW 2020 (64-Bit) -->
<svg xmlns="http://www.w3.org/2000/svg" xml:space="preserve" width="129.436mm" height="197.989mm" version="1.1" style="shape-rendering:geometricPrecision; text-rendering:geometricPrecision; image-rendering:optimizeQuality; fill-rule:evenodd; clip-rule:evenodd"
viewBox="0 0 884.98 1353.69"
 xmlns:xlink="http://www.w3.org/1999/xlink"
 xmlns:xodm="http://www.corel.com/coreldraw/odm/2003">
 <defs>
  <style type="text/css">
   <![CDATA[
    .fil0 {fill:none}
    .fil2 {fill:#501D33}
    .fil5 {fill:#623448}
    .fil9 {fill:#6F4168}
    .fil8 {fill:#8D5C7A}
    .fil1 {fill:#8E7A5D}
    .fil7 {fill:#937284}
    .fil3 {fill:#ADA5B7}
    .fil10 {fill:#B37D97}
    .fil6 {fill:#C3C077}
    .fil4 {fill:white}
   ]]>
  </style>
 </defs>
 <g id="Слой_x0020_1">
  <metadata id="CorelCorpID_0Corel-Layer"/>
  <g id="_2674297595760">
   <rect id="_135982752" class="fil0" width="884.98" height="1353.69"/>
   <g>
    <g>
     <path class="fil1" d="M387.72 559.54c0,0 -2.91,40.35 -32.03,51.38 0,0 17.06,-15.81 19.55,-45.55 2.5,-29.74 5.82,-10.19 5.82,-10.19l6.66 4.37z"/>
     <g>
      <circle class="fil1" transform="matrix(-1.02303 -0.210969 -0.210969 1.02303 335.193 545.55)" r="52.54"/>
      <circle class="fil2" transform="matrix(-0.85112 -0.175518 -0.175518 0.851121 338.43 539.42)" r="42.92"/>
      <circle class="fil3" transform="matrix(-0.632395 -0.130413 -0.130412 0.632395 338.43 539.42)" r="42.92"/>
      <circle class="fil4" transform="matrix(-0.452029 -0.0932175 -0.0717832 0.34809 336.741 549.669)" r="42.92"/>
      <ellipse class="fil2" transform="matrix(-1.16144 -0.239513 -0.205675 0.997357 339.002 539.584)" rx="16.14" ry="18.54"/>
      <path class="fil5" d="M330.94 526.79c-3.42,2.09 -5.99,5.52 -6.85,9.72 -1.68,8.13 3.64,16.1 11.89,17.8 6.48,1.34 12.83,-1.6 16.07,-6.87 -3.19,1.95 -7.12,2.75 -11.1,1.93 -8.24,-1.7 -13.56,-9.67 -11.89,-17.8 0.36,-1.74 1.01,-3.34 1.89,-4.77z"/>
      <circle class="fil4" transform="matrix(-0.834803 -0.955739 -0.834669 0.531888 345.195 533.851)" r="7.49"/>
      <ellipse class="fil4" transform="matrix(-0.612407 -0.478057 -0.478057 0.612407 329.353 549.151)" rx="5.98" ry="3.4"/>
      <path class="fil2" d="M380.64 566.19c-4.47,13.41 -18.4,41.29 -55.88,33.39 -34.85,-7.34 -41.67,-35.85 -42.79,-50.88 -0.6,-8.07 3.99,-7.59 8.93,-5.64 16.3,6.43 52.19,18.66 85.55,16.86 3.69,-0.2 5.43,2.57 4.2,6.27z"/>
      <path class="fil6" d="M368.69 574.33c-0.29,1.43 -15.02,33.65 -45.17,27.43 -30.15,-6.22 -31.26,-39.48 -31.26,-39.48 0,0 36.37,18.86 76.43,12.05z"/>
      <path class="fil7" d="M368.69 574.33c-0.29,1.43 -21.26,23.66 -45.17,19.53 -23.91,-4.14 -31.26,-31.57 -31.26,-31.57 0,0 36.37,18.86 76.43,12.05z"/>
      <path class="fil2" d="M380.46 561.33c-0.36,1.74 -8.93,34.1 -54.27,25.61 -45.34,-8.48 -40.36,-40.73 -40.03,-42.31 0.32,-1.54 38.11,14.75 88.94,14.72 1.54,-0 3.81,1.96 5.37,1.98z"/>
      <path class="fil8" d="M370.48 568.19c-6.16,8.27 -22.1,24.52 -45.42,19.71 -19.79,-4.08 -27.7,-18.86 -30.8,-28.54 -1.27,-3.96 -1.9,-8.57 3.62,-6.33 11.6,4.71 39.73,14.43 68.64,11.58 3.38,-0.33 6.94,-0.44 3.95,3.58z"/>
      <path class="fil9" d="M360.26 574.88c0,0 -12.54,14.3 -34.72,10.88 -22.18,-3.42 -27.36,-25.91 -27.36,-25.91 0,0 20.73,26.32 62.08,15.03z"/>
      <path class="fil10" d="M356.94 569.49c0,0 -17.72,4.77 -41.45,-4.87 -23.73,-9.64 33.47,2.69 41.45,4.87z"/>
     </g>
    </g>
    <g>
     <path class="fil1" d="M497.26 559.54c0,0 2.91,40.35 32.03,51.38 0,0 -17.06,-15.81 -19.55,-45.55 -2.5,-29.74 -5.82,-10.19 -5.82,-10.19l-6.66 4.37z"/>
     <g>
      <circle class="fil1" transform="matrix(1.02303 -0.210969 0.210969 1.02303 549.788 545.551)" r="52.54"/>
      <circle class="fil2" transform="matrix(0.85112 -0.175518 0.175518 0.851121 546.551 539.42)" r="42.92"/>
      <circle class="fil3" transform="matrix(0.632395 -0.130413 0.130412 0.632395 546.551 539.42)" r="42.92"/>
      <circle class="fil4" transform="matrix(0.452029 -0.0932175 0.0717832 0.34809 548.24 549.67)" r="42.92"/>
      <ellipse class="fil2" transform="matrix(1.16144 -0.239513 0.205675 0.997357 545.979 539.584)" rx="16.14" ry="18.54"/>
      <path class="fil5" d="M554.05 526.79c3.42,2.09 5.99,5.52 6.85,9.72 1.68,8.13 -3.64,16.1 -11.89,17.8 -6.48,1.34 -12.83,-1.6 -16.07,-6.87 3.19,1.95 7.12,2.75 11.1,1.93 8.24,-1.7 13.56,-9.67 11.89,-17.8 -0.36,-1.74 -1.01,-3.34 -1.89,-4.77z"/>
      <circle class="fil4" transform="matrix(0.834803 -0.955739 0.834669 0.531888 539.785 533.852)" r="7.49"/>
      <ellipse class="fil4" transform="matrix(0.612407 -0.478057 0.478057 0.612407 555.627 549.152)" rx="5.98" ry="3.4"/>
      <path class="fil2" d="M504.34 566.19c4.47,13.41 18.4,41.29 55.88,33.39 34.85,-7.34 41.67,-35.85 42.79,-50.88 0.6,-8.07 -3.99,-7.59 -8.93,-5.64 -16.3,6.43 -52.19,18.66 -85.55,16.86 -3.69,-0.2 -5.43,2.57 -4.2,6.27z"/>
      <path class="fil6" d="M516.29 574.33c0.29,1.43 15.02,33.65 45.17,27.43 30.15,-6.22 31.26,-39.48 31.26,-39.48 0,0 -36.37,18.86 -76.43,12.05z"/>
      <path class="fil7" d="M516.29 574.33c0.29,1.43 21.26,23.66 45.17,19.53 23.91,-4.14 31.26,-31.57 31.26,-31.57 0,0 -36.37,18.86 -76.43,12.05z"/>
      <path class="fil2" d="M504.52 561.33c0.36,1.74 8.93,34.1 54.27,25.61 45.34,-8.48 40.36,-40.73 40.03,-42.31 -0.32,-1.54 -38.11,14.75 -88.94,14.72 -1.54,-0 -3.81,1.96 -5.37,1.98z"/>
      <path class="fil8" d="M514.5 568.19c6.16,8.27 22.1,24.52 45.42,19.71 19.79,-4.08 27.7,-18.86 30.8,-28.54 1.27,-3.96 1.9,-8.57 -3.62,-6.33 -11.6,4.71 -39.73,14.43 -68.64,11.58 -3.38,-0.33 -6.94,-0.44 -3.95,3.58z"/>
      <path class="fil9" d="M524.72 574.88c0,0 12.54,14.3 34.72,10.88 22.18,-3.42 27.36,-25.91 27.36,-25.91 0,0 -20.73,26.32 -62.08,15.03z"/>
      <path class="fil10" d="M556.23 570.24c4.19,-1.09 10.24,-3.48 15.07,-5.45 5.18,-2.1 6.74,-4.55 4.91,-4.81 -2.81,-0.4 -12.61,2.37 -21.9,3.92 -8.27,1.38 -18.69,1.85 -24.59,3.19 -14.34,3.25 16.49,5.76 26.51,3.15z"/>
     </g>
    </g>
   </g>
  </g>
 </g>
</svg>
