<?xml version="1.0" encoding="UTF-8"?>
<!DOCTYPE svg PUBLIC "-//W3C//DTD SVG 1.1//EN" "http://www.w3.org/Graphics/SVG/1.1/DTD/svg11.dtd">
<!-- Creator: CorelDRAW 2020 (64-Bit) -->
<svg xmlns="http://www.w3.org/2000/svg" xml:space="preserve" width="129.436mm" height="197.989mm" version="1.1" style="shape-rendering:geometricPrecision; text-rendering:geometricPrecision; image-rendering:optimizeQuality; fill-rule:evenodd; clip-rule:evenodd"
viewBox="0 0 1183.72 1810.66"
 xmlns:xlink="http://www.w3.org/1999/xlink"
 xmlns:xodm="http://www.corel.com/coreldraw/odm/2003">
 <defs>
  <style type="text/css">
   <![CDATA[
    .fil0 {fill:none}
    .fil2 {fill:#501D33}
    .fil5 {fill:#623448}
    .fil1 {fill:#8E7A5D}
    .fil6 {fill:#AB9676}
    .fil7 {fill:#C3C077}
    .fil3 {fill:#D6D6A2}
    .fil4 {fill:white}
   ]]>
  </style>
 </defs>
 <g id="Слой_x0020_1">
  <metadata id="CorelCorpID_0Corel-Layer"/>
  <g id="_2674455381232">
   <rect id="_135982752" class="fil0" width="1183.72" height="1810.66"/>
   <g>
    <path id="_137793336" class="fil1" d="M365.55 709.52c0,0 -24.18,33.24 -9.43,58.8 14.75,25.56 60.35,18.35 60.35,18.35 0,0 -56.76,-18.35 -50.92,-77.14z"/>
    <circle id="_137794080" class="fil1" transform="matrix(-1 -0 0.068977 1 451.252 709.122)" r="77.27"/>
    <path id="_137794200" class="fil1" d="M525.08 734.7c0,0 -18.52,71.33 -102.88,78.53 0,0 44.58,-7.54 81.96,-78.88l7.2 -6.52 13.72 6.86z"/>
    <path id="_137794296" class="fil2" d="M405.59 709.36c7.54,-25.1 32.16,-40.15 53.72,-38.87 27.72,1.64 52.18,27.14 47.78,59.78 -4.64,34.39 -34.23,47.23 -60.3,43.61 -29.07,-4.03 -51.83,-29.11 -41.19,-64.53z"/>
    <path id="_137794416" class="fil3" d="M486.65 747.59c-27.13,27.55 -79.25,6.77 -67.95,-32.79 9.16,-32.06 44.71,-35.77 64.36,-18.01 13.88,12.55 19.42,34.73 3.59,50.8z"/>
    <ellipse id="_137794512" class="fil4" cx="455.54" cy="736.96" rx="27.89" ry="19.3"/>
    <g>
     <g>
      <ellipse id="_137794656" class="fil2" cx="457.73" cy="722.99" rx="25.33" ry="24.99"/>
      <path id="_137794752" class="fil5" d="M443.85 708.56c-3.87,3.62 -6.29,8.75 -6.29,14.43 0,10.98 9.03,19.89 20.16,19.89 8.76,0 16.21,-5.51 18.99,-13.2 -3.62,3.39 -8.5,5.46 -13.88,5.46 -11.14,0 -20.16,-8.91 -20.16,-19.89 0,-2.35 0.42,-4.6 1.17,-6.69z"/>
      <circle id="_137794920" class="fil4" transform="matrix(-1.00003 -0.75939 -0.702596 0.682274 464.226 713.904)" r="10.02"/>
     </g>
     <ellipse id="_137795088" class="fil4" transform="matrix(-0.689038 -0.340904 -0.340904 0.689038 447.78 737.97)" rx="8" ry="4.55"/>
    </g>
    <path id="_137795448" class="fil2" d="M417.87 787.17c-40.92,-18.97 -50.69,-43.4 -52.02,-78.71 -22.36,51.55 4.81,79.3 52.02,78.71z"/>
   </g>
   <circle id="_137794080_0" class="fil1" transform="matrix(1 -0 -0.068977 1 732.472 709.122)" r="77.27"/>
   <path id="_137794200_1" class="fil1" d="M658.64 734.7c0,0 18.52,71.33 102.88,78.53 0,0 -44.58,-7.54 -81.96,-78.88l-7.2 -6.52 -13.72 6.86z"/>
   <g>
    <g>
     <path id="_281947744" class="fil2" d="M761.31 758.1c30.07,-22.12 21.84,-76.4 -17.85,-86.7 -32.9,-8.54 -63.85,9.55 -67.39,41.48 -5.28,47.59 50.5,70.77 85.24,45.22z"/>
     <path id="_281947816" class="fil3" d="M694.88 741.24c11.41,14.6 30.11,18.07 44.81,12.65 15.45,-5.7 27.47,-19.62 24.06,-39.15 -5.75,-32.98 -39.77,-40.02 -60.48,-24.06 -14.64,11.27 -22.14,32.99 -8.39,50.57z"/>
     <path id="_281947912" class="fil6" d="M699.15 738.25c9.85,12.61 26.01,15.6 38.7,10.92 13.34,-4.92 23.72,-16.95 20.78,-33.82 -1.43,-8.22 -4.9,-14.56 -9.53,-19.11 0.22,0.92 0.43,1.86 0.6,2.83 2.94,16.87 -7.44,28.89 -20.78,33.82 -11.44,4.22 -25.68,2.2 -35.6,-7.46 0.77,4.37 2.63,8.72 5.83,12.82z"/>
     <ellipse id="_281947960" class="fil4" transform="matrix(0.927772 -0.415756 0.415756 0.927772 739.924 743.896)" rx="10.09" ry="6.5"/>
     <ellipse id="_281930320" class="fil4" transform="matrix(1.22137 -0.0610113 -0.116406 1.20422 719.598 704.714)" rx="17.1" ry="14.28"/>
    </g>
    <path id="_288391320" class="fil7" d="M776.7 736.64c0.97,0.61 51.81,10.15 51.81,10.15l38.83 -14.62 -69.07 -5.3c0,0 -21.55,9.6 -21.56,9.77z"/>
    <polygon id="_288391248" class="fil2" points="775.08,718.43 868.83,732.32 771.9,737.07 "/>
    <path id="_288391176" class="fil2" d="M807.21 708.16c-1.26,0.42 7.52,20.79 12.06,26.73 4.54,5.94 20.48,17.86 20.62,16.34 0,0 -0.96,-12.08 -9.39,-24.68 -2.39,-3.57 -20.01,-19.39 -23.29,-18.39z"/>
   </g>
  </g>
 </g>
</svg>
