<?xml version="1.0" encoding="UTF-8"?>
<!DOCTYPE svg PUBLIC "-//W3C//DTD SVG 1.1//EN" "http://www.w3.org/Graphics/SVG/1.1/DTD/svg11.dtd">
<!-- Creator: CorelDRAW 2020 (64-Bit) -->
<svg xmlns="http://www.w3.org/2000/svg" xml:space="preserve" width="129.436mm" height="197.989mm" version="1.1" style="shape-rendering:geometricPrecision; text-rendering:geometricPrecision; image-rendering:optimizeQuality; fill-rule:evenodd; clip-rule:evenodd"
viewBox="0 0 473.21 723.83"
 xmlns:xlink="http://www.w3.org/1999/xlink"
 xmlns:xodm="http://www.corel.com/coreldraw/odm/2003">
 <defs>
  <style type="text/css">
   <![CDATA[
    .fil0 {fill:none}
    .fil2 {fill:#501D33}
    .fil1 {fill:#9F5655}
    .fil3 {fill:#BB765A}
    .fil5 {fill:#CBD6C5}
    .fil4 {fill:#D79A6E}
    .fil6 {fill:white}
   ]]>
  </style>
 </defs>
 <g id="Слой_x0020_1">
  <metadata id="CorelCorpID_0Corel-Layer"/>
  <g id="_2674672342608">
   <rect id="_285630640" class="fil0" y="0" width="473.21" height="723.83"/>
   <circle class="fil1" cx="199.5" cy="304.52" r="14.45"/>
   <circle id="_137794080" class="fil1" transform="matrix(-1 -0 0.068977 1 180.393 283.48)" r="30.89"/>
   <circle class="fil1" cx="156.94" cy="301.01" r="9.61"/>
   <circle class="fil1" cx="158.64" cy="264.86" r="8.77"/>
   <g>
    <circle id="_123939848" class="fil2" transform="matrix(1.19526 -0.634246 0.634246 1.19526 150.071 280.594)" r="7.95"/>
    <circle id="_123939776" class="fil3" transform="matrix(1.19526 -0.634246 0.634246 1.19526 152.66 281.02)" r="6.51"/>
    <path id="_123939704" class="fil1" d="M153.86 273.23c2.37,0.37 4.55,1.81 5.76,4.1 2.04,3.85 0.58,8.62 -3.27,10.66 -2.68,1.42 -5.82,1.14 -8.16,-0.47 1.62,0.25 3.33,0 4.9,-0.83 3.84,-2.04 5.31,-6.81 3.27,-10.66 -0.62,-1.16 -1.48,-2.11 -2.5,-2.8z"/>
    <circle id="_123939632" class="fil4" transform="matrix(0.264979 -0.505073 0.349572 0.183399 149.778 279.496)" r="11.13"/>
   </g>
   <g>
    <circle id="_123939848_0" class="fil2" transform="matrix(0.0438455 -0.909288 0.909288 0.0438455 154.465 302.289)" r="7.95"/>
    <circle id="_123939776_1" class="fil3" transform="matrix(0.0438455 -0.909288 0.909288 0.0438455 155.6 300.938)" r="6.51"/>
    <path id="_123939704_2" class="fil1" d="M151.51 297.57c1.03,-1.25 2.61,-2.01 4.35,-1.93 2.93,0.14 5.18,2.63 5.04,5.55 -0.1,2.04 -1.34,3.76 -3.07,4.56 0.7,-0.85 1.15,-1.93 1.2,-3.12 0.14,-2.93 -2.12,-5.41 -5.04,-5.55 -0.88,-0.04 -1.73,0.13 -2.48,0.48z"/>
    <circle id="_123939632_3" class="fil4" transform="matrix(-0.201092 -0.326816 0.226197 -0.13918 153.729 302.081)" r="11.13"/>
   </g>
   <path id="_137794296" class="fil2" d="M162.14 283.57c3.02,-10.03 12.86,-16.05 21.47,-15.54 11.08,0.66 20.86,10.85 19.1,23.9 -1.85,13.75 -13.68,18.88 -24.11,17.44 -11.62,-1.61 -20.72,-11.64 -16.47,-25.8z"/>
   <path id="_137794416" class="fil5" d="M194.54 298.86c-10.84,11.01 -31.68,2.71 -27.16,-13.11 3.66,-12.82 17.87,-14.3 25.73,-7.2 5.55,5.02 7.76,13.89 1.44,20.31z"/>
   <ellipse id="_137794512" class="fil6" cx="182.11" cy="294.61" rx="11.15" ry="7.71"/>
   <g>
    <g>
     <ellipse id="_137794656" class="fil2" cx="182.98" cy="289.02" rx="10.13" ry="9.99"/>
     <path id="_137794752" class="fil1" d="M177.43 283.26c-1.55,1.45 -2.51,3.5 -2.51,5.77 0,4.39 3.61,7.95 8.06,7.95 3.5,0 6.48,-2.2 7.59,-5.28 -1.45,1.35 -3.4,2.18 -5.55,2.18 -4.45,0 -8.06,-3.56 -8.06,-7.95 0,-0.94 0.17,-1.84 0.47,-2.68z"/>
     <circle id="_137794920" class="fil6" transform="matrix(-1.00003 -0.75939 -0.702596 0.682274 185.579 285.392)" r="4.01"/>
    </g>
    <ellipse id="_137795088" class="fil6" transform="matrix(-0.689038 -0.340904 -0.340904 0.689038 179.005 295.013)" rx="3.2" ry="1.82"/>
   </g>
   <circle class="fil1" cx="269.99" cy="303.92" r="9.13"/>
   <circle class="fil1" cx="276.04" cy="319.15" r="4.18"/>
   <circle class="fil1" cx="292.54" cy="314.14" r="9.43"/>
   <circle class="fil1" cx="308.5" cy="322.84" r="4.49"/>
   <circle id="_137794080_4" class="fil1" transform="matrix(1 -0 -0.068977 1 292.814 283.48)" r="30.89"/>
   <g>
    <circle id="_123939848_5" class="fil2" transform="matrix(-0.636943 -0.568432 0.650408 -0.556664 289.539 316.616)" r="7.95"/>
    <circle id="_123939776_6" class="fil3" transform="matrix(-0.636943 -0.568432 0.650408 -0.556664 289.32 315.086)" r="6.51"/>
    <path id="_123939704_7" class="fil1" d="M284.06 315.71c-0.21,-1.4 0.3,-2.87 1.54,-3.93 2.09,-1.79 5.45,-1.76 7.5,0.07 1.43,1.28 1.84,3.09 1.25,4.68 -0.15,-0.96 -0.63,-1.88 -1.47,-2.62 -2.05,-1.83 -5.41,-1.86 -7.5,-0.07 -0.63,0.54 -1.08,1.19 -1.33,1.88z"/>
    <circle id="_123939632_8" class="fil4" transform="matrix(-0.376375 -0.0653364 0.0517426 -0.227665 288.886 316.965)" r="11.13"/>
   </g>
   <circle class="fil1" cx="317.68" cy="299.14" r="13.65"/>
   <g>
    <path id="_123939464" class="fil2" d="M313.07 306.34c2.8,4.99 9.11,6.22 14.1,2.73 4.99,-3.48 6.76,-10.35 3.96,-15.35 -2.8,-4.99 -8.78,-5.48 -13.77,-2 -4.99,3.48 -7.09,9.62 -4.29,14.61z"/>
    <circle id="_123939392" class="fil3" transform="matrix(-0.677308 0.481497 -0.385829 -0.648162 320.291 299.527)" r="11.13"/>
    <path id="_123939320" class="fil1" d="M319.34 307.56c-2.35,-0.01 -4.53,-1.13 -5.79,-3.24 -2.12,-3.56 -0.82,-8.6 2.9,-11.24 2.6,-1.85 5.69,-2.04 8.04,-0.78 -1.6,-0 -3.28,0.51 -4.79,1.58 -3.72,2.65 -5.02,7.68 -2.9,11.24 0.64,1.08 1.52,1.89 2.54,2.44z"/>
    <circle id="_123939248" class="fil4" transform="matrix(-0.245775 0.54967 -0.349279 -0.131203 323.171 300.62)" r="11.13"/>
   </g>
   <path id="_137794296_9" class="fil2" d="M311.07 283.57c-3.02,-10.03 -12.86,-16.05 -21.47,-15.54 -11.08,0.66 -20.86,10.85 -19.1,23.9 1.85,13.75 13.68,18.88 24.11,17.44 11.62,-1.61 20.72,-11.64 16.47,-25.8z"/>
   <path id="_137794416_10" class="fil5" d="M278.66 298.86c10.84,11.01 31.68,2.71 27.16,-13.11 -3.66,-12.82 -17.87,-14.3 -25.73,-7.2 -5.55,5.02 -7.76,13.89 -1.44,20.31z"/>
   <ellipse id="_137794512_11" class="fil6" cx="291.1" cy="294.61" rx="11.15" ry="7.71"/>
   <g>
    <g>
     <ellipse id="_137794656_12" class="fil2" cx="290.23" cy="289.02" rx="10.13" ry="9.99"/>
     <path id="_137794752_13" class="fil1" d="M295.77 283.26c1.55,1.45 2.51,3.5 2.51,5.77 0,4.39 -3.61,7.95 -8.06,7.95 -3.5,0 -6.48,-2.2 -7.59,-5.28 1.45,1.35 3.4,2.18 5.55,2.18 4.45,0 8.06,-3.56 8.06,-7.95 0,-0.94 -0.17,-1.84 -0.47,-2.68z"/>
     <circle id="_137794920_14" class="fil6" transform="matrix(1.00003 -0.75939 0.702596 0.682274 287.628 285.392)" r="4.01"/>
    </g>
    <ellipse id="_137795088_15" class="fil6" transform="matrix(0.689038 -0.340904 0.340904 0.689038 294.203 295.013)" rx="3.2" ry="1.82"/>
   </g>
   <circle class="fil1" cx="164.68" cy="319.27" r="6.11"/>
   <circle class="fil1" cx="332.27" cy="279.73" r="5.5"/>
   <circle class="fil1" cx="143.76" cy="295.45" r="3.57"/>
  </g>
 </g>
</svg>
