<?xml version="1.0" encoding="UTF-8"?>
<!DOCTYPE svg PUBLIC "-//W3C//DTD SVG 1.1//EN" "http://www.w3.org/Graphics/SVG/1.1/DTD/svg11.dtd">
<!-- Creator: CorelDRAW -->
<svg xmlns="http://www.w3.org/2000/svg" xml:space="preserve" width="129.436mm" height="197.988mm" style="shape-rendering:geometricPrecision; text-rendering:geometricPrecision; image-rendering:optimizeQuality; fill-rule:evenodd; clip-rule:evenodd"
viewBox="0 0 52.9497 80.9932"
 xmlns:xlink="http://www.w3.org/1999/xlink">
 <defs>
  <style type="text/css">
   <![CDATA[
    .fil0 {fill:none}
    .fil5 {fill:#4B3446}
    .fil2 {fill:#501D33}
    .fil3 {fill:#634C54}
    .fil4 {fill:#896E6B}
    .fil7 {fill:#D56853}
    .fil1 {fill:#D77D75}
    .fil6 {fill:#F8C578}
    .fil8 {fill:white}
    .fil9 {fill:#501D33;fill-rule:nonzero}
   ]]>
  </style>
 </defs>
 <g id="Layer_x0020_1">
  <metadata id="CorelCorpID_0Corel-Layer"/>
  <g id="_223645576">
   <rect id="_233890368" class="fil0" width="52.9497" height="80.9932"/>
   <g id="_243981552">
    <path id="_243977688" class="fil1" d="M11.8679 33.5528c0,0 1.91756,1.33581 2.65456,3.6159 0,0 0.385926,0.0355491 0.627202,-0.103784 0,0 0.795171,0.667374 1.32448,1.80809 0,0 0.484147,-0.253753 0.92174,-0.196481 0,0 1.35835,2.63779 4.90516,3.62813l-4.74443 1.75037 -3.86908 -3.28373 -1.81963 -7.21851z"/>
    <path id="_243984312" class="fil1" d="M40.6183 33.5528c0,0 -2.01587,1.16428 -2.75287,3.44438 -0.467906,0.0161178 -1.8085,0.911104 -1.99083,1.93884 0,0 -0.403272,-0.105338 -0.588871,-0.569849 0,0 -1.81865,0.422621 -3.38731,2.34289 -0.453507,0.555163 -0.854283,1.35577 -1.71327,1.59562l4.74443 1.75037 3.86908 -3.28373 1.81963 -7.21851z"/>
    <g>
     <path id="_243982632" class="fil2" d="M41.6782 52.6496c0,0 -1.40028,1.52918 -1.82413,3.5914 0,0 -0.669092,-0.824297 0.0460216,-2.57921 0.715154,-1.75487 1.77811,-1.01219 1.77811,-1.01219z"/>
     <path id="_243977136" class="fil2" d="M9.13378 49.0745c0,0 0.783471,1.8553 0.8758,3.76694 0,0 0.828756,-0.718509 0.506932,-2.43125 -0.321824,-1.71274 -1.38273,-1.33569 -1.38273,-1.33569z"/>
     <path id="_243982776" class="fil2" d="M11.4157 34.0283c-0.459684,1.61337 -1.69781,5.42375 -3.41218,6.54582 0,0 0.775576,0.146287 1.5795,0.026713 0,0 -0.945549,1.69678 -1.04311,4.90442 -0.0975248,3.2076 1.31667,5.79287 4.19373,8.80897 0,0 1.01501,1.16252 1.33168,3.19541 0,0 0.706441,-0.406585 1.26676,-1.41104 0,0 2.19243,4.66364 6.13878,5.62032l5.16047 0.0159541 4.85161 -0.0637756c0,0 3.02069,-0.574022 5.79777,-5.5486 0,0 0.267948,0.932744 1.12059,1.36322 0,0 0.0243403,-1.55455 0.755163,-2.43943 0.730822,-0.884923 7.273,-4.4184 4.1034,-13.9455 0,0 1.10971,0.265411 1.96232,-0.236817 0,0 -3.42523,-2.30055 -3.96166,-7.99769 0,0 -2.44786,1.34395 -2.93507,5.33797 0,0 -0.474329,-0.65686 -0.474329,-1.08738 0,0 -1.2254,0.695028 -1.78568,3.03881 0,0 -0.550172,-0.34915 -0.769399,-1.13839 0,0 -1.09216,0.00666801 -2.91044,1.49228 -3.92157,-3.39349 -10.4034,-2.12525 -13.5199,0.445039 0,0 -0.795171,-0.386417 -1.57471,-2.03661 0,0 -0.402412,0.24688 -1.15009,0.846837 0,0 -0.218163,-1.59488 -0.990506,-2.58952 -0.054735,0.0519532 -0.097443,0.296092 -0.766167,0.821311 -0.216485,-0.840497 -1.38085,-3.5682 -2.70239,-4.98211 -0.064962,0.290447 -0.183104,0.722395 -0.266148,1.01382l0 -4.0908e-005z"/>
     <path id="_243979704" class="fil3" d="M12.0921 34.5261c0,0 -0.706441,3.58743 -2.19243,5.16591 0,0 1.18237,0.307997 2.36174,-0.169482 0,0 -0.522805,0.704314 -1.95753,0.943053 0,0 -1.47608,3.50741 -0.940149,6.78394 0.535936,3.27657 3.62969,6.19434 3.62969,6.19434 0,0 1.21804,1.24365 1.41292,2.51122 0,0 1.65649,-1.36326 0.925708,-5.02244 0,0 1.33982,2.05682 0.389731,4.66368 0,0 2.53348,5.26155 7.06449,5.52467l8.91591 0.0478215c0,0 4.87207,-2.98952 5.96828,-8.17932 0,0 0.184659,1.69294 -0.143628,2.50468 0,0 0.133769,0.656533 0.607934,0.954957 0,0 0.0486397,-1.14596 0.595785,-1.86218 0.547145,-0.716218 6.54034,-3.05636 4.1043,-13.3643 0,0 -1.18625,-0.41088 -1.66046,-1.43747 0,0 0.802493,1.07433 2.97884,0.835588 0,0 -2.90181,-2.53114 -3.24286,-6.35772 0,0 -1.63215,0.813129 -2.09498,4.97458l-0.0119042 0.44013c0,0 -0.790303,-0.393944 -1.10644,-1.36081 0,0 -0.559295,0.393904 -1.24017,2.47093l-0.0972384 0.346164c0,0 -0.924072,-0.453588 -1.31315,-1.38466 0,0 -1.6391,0.444875 -2.51609,1.71245 -3.36141,-3.30017 -10.052,-2.54374 -13.4116,0.316792 0,0 -0.948371,-0.190959 -1.99398,-2.02924 0,0 -0.59558,0.262384 -1.53176,1.7903 0.0261402,-0.931231 0.0595621,-2.22728 -0.54735,-3.46148 0,0 -0.863037,0.78208 -1.73847,1.04471 0,0 0.358886,-0.412067 0.431825,-0.555286 0.072939,-0.14326 -0.845447,-3.25878 -1.647,-4.04151l0 -4.0908e-005z"/>
     <path id="_243979104" class="fil4" d="M42.0572 40.8307c0,0 0.783062,4.97475 -0.875187,8.86702 0,0 1.474,-2.48737 1.81947,-5.43537l-0.3685 -2.5795 -0.575781 -0.852155z"/>
     <path id="_243976680" class="fil5" d="M40.9286 45.2297c0,0 -0.575781,3.04012 -4.16865,5.73478 0,0 2.55647,-0.690937 3.96137,-3.27043l0.138187 -0.783062 0.0690937 -1.68128z"/>
     <path id="_243983856" class="fil4" d="M40.8354 34.3088c-0.325014,0.218326 -1.6166,1.30153 -2.02004,4.92881l-0.0119042 0.44013c0,0 -0.790303,-0.393944 -1.10644,-1.36081 0,0 -0.559295,0.393904 -1.24017,2.47093l-0.0972384 0.346164c0,0 -0.924072,-0.453588 -1.31315,-1.38466 0,0 -1.60601,0.435998 -2.48913,1.67428 0.19685,-0.15631 1.11282,-0.846592 2.19087,-1.06017 0,0 0.574758,1.20699 1.93119,1.60932 0,0 0.0574758,-1.10354 0.862137,-2.50595 0,0 1.01211,0.736099 1.81677,0.908527 0,0 -0.180159,-4.40355 1.47711,-6.06658zm-8.31427 7.14414l-0.00368172 -0.00347718 0.000736345 0.00601348 0.00294538 -0.0025363z"/>
     <path id="_243978456" class="fil4" d="M19.0352 41.7529c-0.253221,-0.0924522 -1.04868,-0.488483 -1.91041,-2.00347 0,0 -0.59558,0.262384 -1.53176,1.7903 0.0261402,-0.931231 0.0595621,-2.22728 -0.54735,-3.46148 0,0 -0.790139,0.715809 -1.62519,1.00773 0.257353,-0.00511351 0.861933,-0.0273675 1.2342,-0.124851 0,0 0.778398,1.17864 0.43293,4.08058 0,0 0.877518,-1.51716 1.8661,-2.27584 0,0 1.01014,0.943503 2.08148,0.987029z"/>
     <path id="_243977808" class="fil4" d="M12.0921 34.5261c0,0 -0.608957,3.09179 -1.88529,4.79765 1.81243,-1.26402 2.05616,-3.36473 2.00953,-4.65906 -0.0416444,-0.0517896 -0.0830433,-0.0983838 -0.124238,-0.138596z"/>
     <path id="_243980640" class="fil4" d="M44.0787 40.5527c-0.453016,-0.424094 -2.83378,-2.80232 -3.16281,-6.23443 -0.153078,0.915604 -0.587317,4.90594 3.16281,6.23443z"/>
     <path id="_243980520" class="fil4" d="M39.3841 54.0707c1.64201,-1.18965 5.48483,-4.24073 3.45068,-12.8481 0,0 -0.359991,-0.12481 -0.762526,-0.408303 0.44148,1.43898 2.29016,8.55882 -2.68815,13.2564l0 -4.0908e-005z"/>
     <path id="_243982320" class="fil5" d="M14.3621 55.734c0.0178768,0.0734708 0.0328901,0.14731 0.0442625,0.22119 0,0 1.65653,-1.36326 0.925708,-5.02244 0,0 1.33982,2.05682 0.389772,4.66368 0,0 2.53348,5.26155 7.06449,5.52467l8.91591 0.0478215c0,0 4.87207,-2.98952 5.96828,-8.17932 0,0 0.184659,1.69294 -0.143587,2.50468 0,0 0.133687,0.656533 0.607934,0.954957 -0.861483,-2.72051 3.46393,-4.96845 2.83149,-11.344 0,0 -0.184904,4.69076 -4.09657,7.37621 -0.539741,0.370586 -1.37615,0.668192 -1.7928,-0.0510123 -1.00532,-1.73561 0.126938,-7.02551 0.126938,-7.02551 0,0 -2.07486,8.27594 -5.25595,8.92131 -3.18109,0.645406 -3.48087,-4.95642 -3.48087,-4.95642 -2.30517,11.8946 -7.32021,2.37271 -7.32021,2.37271 -0.806625,1.31896 -1.74056,1.3282 -2.41599,0.941908 -0.893677,-0.511064 -1.16252,-1.32153 -1.54657,-2.17623 -1.00605,-2.23816 -2.34104,-3.74329 -2.34104,-3.74329 2.34718,5.09219 1.73168,8.20988 1.51879,8.96917l0 -4.0908e-005z"/>
     <path id="_243982224" class="fil4" d="M10.3583 40.4561c-0.0179995,0.00319083 -0.0361218,0.00642256 -0.0544077,0.00944976 0,0 -1.47608,3.50741 -0.940149,6.78394 0.535936,3.27657 3.62973,6.19434 3.62973,6.19434 0,0 1.21796,1.24365 1.41288,2.51122 -0.310288,-4.77565 -6.2964,-5.41782 -4.04806,-15.4989l0 -4.0908e-005z"/>
     <path id="_243977784" class="fil2" d="M19.1322 51.6499c0,0 1.14277,6.36717 3.96043,8.47247 0.435343,0.325219 1.07322,0.541868 1.71818,0.47392 1.7433,-0.183554 1.48738,-4.77008 1.6902,-6.82976 0.270443,1.27874 -0.259807,6.27358 1.48018,6.80473 2.40907,0.735363 4.59209,-6.61598 5.08516,-8.13207 0,0 -1.19366,5.57249 -2.46041,7.62931 0,0 -0.0215994,0.450888 0.634934,0.188259 0.656574,-0.262589 2.60196,-2.99615 2.80862,-3.78399 0,0 -0.875391,2.51871 -2.4074,4.04662 0,0 -0.182368,0.477479 0.899732,0.0835342 0,0 -0.510655,0.596848 -1.15504,0.740108 -0.644424,0.143219 -8.72982,0.0596848 -8.72982,0.0596848 0,0 -3.32983,-0.234076 -4.49911,-2.17128 1.00916,0.714909 4.05031,1.82249 2.93372,-0.37345 -0.663692,-1.30529 -1.721,-3.85456 -1.95933,-7.208l-4.0908e-005 -8.18161e-005z"/>
     <path id="_243975168" class="fil2" d="M14.3276 56.423c0,0 0.460625,-3.80015 -0.483656,-6.72508 0,0 1.12853,2.16494 1.28975,5.98812l-0.375536 0.63297 -0.430557 0.104029 0 -4.0908e-005z"/>
     <path id="_243978024" class="fil4" d="M11.0914 43.0304c0,0 -1.47514,4.54055 0.714745,8.73661l1.15136 0.613621c0,0 -2.10754,-4.24908 -1.8661,-9.35027l0 4.0908e-005z"/>
     <path id="_243962832" class="fil5" d="M19.6311 44.6208c0,0 -0.893145,1.82029 -0.713559,4.06957 0.126897,1.58956 0.902022,3.39345 2.41149,4.92058 -0.672937,-0.96498 -1.76821,-4.35106 -1.69793,-8.99012l0 -4.0908e-005z"/>
     <path id="_243974040" class="fil4" d="M37.336 39.2301c0,0 1.05944,1.75037 0.852155,4.88262 0,0 0.621843,-1.81947 0.0921249,-4.49109l-0.428389 -0.373122 -0.515891 -0.0184086z"/>
     <path id="_243981792" class="fil4" d="M16.8963 40.49c0,0 -0.979502,1.10075 -1.11769,4.39422 0,0 0.3685,-2.00372 1.86553,-3.89228l-0.242053 -0.249048 -0.505787 -0.252894z"/>
     <g>
      <path id="_243984216" class="fil2" d="M21.1604 62.1015c0.523459,3.6834 3.10676,5.50549 5.23431,5.54999 2.17463,0.0454897 4.77016,-1.83325 5.29837,-5.54999 -0.145101,-0.281202 -10.3876,-0.281243 -10.5327,0z"/>
      <path id="_243975552" class="fil6" d="M22.1599 62.6354c0.200531,0.963712 0.596603,1.88488 1.23481,2.64147l6.08495 0c0.626179,-0.759008 1.01583,-1.68271 1.21423,-2.64143 -0.0472488,-0.0030681 -0.0912249,-0.00564531 -0.127919,-0.00818161 -0.363509,-0.024913 -0.729186,-0.0385763 -1.09339,-0.0499078 -1.01415,-0.031581 -2.03121,-0.040499 -3.04581,-0.040499 -1.0146,0 -2.03166,0.00891795 -3.04577,0.040499 -0.364245,0.0112906 -0.729881,0.0249948 -1.09343,0.0499078 -0.0365718,0.0025363 -0.0804661,0.0050726 -0.127674,0.0081407z"/>
      <path id="_243976800" class="fil7" d="M22.16 62.6349c0.0739208,0.355368 0.174391,0.704846 0.303865,1.0425l7.92925 0c0.127919,-0.33835 0.227531,-0.68791 0.300838,-1.04242 -0.0472488,-0.0030272 -0.0912658,-0.00556349 -0.127919,-0.00805888 -0.363509,-0.0250357 -0.729145,-0.0386172 -1.09343,-0.0500714 -1.01407,-0.0314583 -2.03117,-0.0402944 -3.04577,-0.0402944 -1.0146,0 -2.03174,0.00883614 -3.04585,0.0402944 -0.364123,0.0114133 -0.729759,0.0250357 -1.09327,0.0500714 -0.0366536,0.00249539 -0.0805888,0.00499078 -0.127715,0.00797707z"/>
      <path id="_243978648" class="fil6" d="M23.743 65.7279l0.0405399 0.038699c0.697891,0.658129 1.64258,1.13998 2.62454,1.16052 0.990916,0.0207404 1.94473,-0.457066 2.64741,-1.1183 0.0283493,-0.0266311 0.0561667,-0.0536714 0.0837797,-0.0809161l-5.39626 0z"/>
      <path id="_243977232" class="fil7" d="M24.4612 66.0077l0.0294947 0.0254448c0.507669,0.432643 1.19488,0.749435 1.90918,0.762935 0.720882,0.0136224 1.41472,-0.30047 1.92591,-0.735158 0.0205767,-0.0175496 0.0408262,-0.0353036 0.0609121,-0.0532214l-3.9255 0z"/>
      <path id="_233893752" class="fil2" d="M21.6197 60.6232l9.61441 0c0.660501,-4.0908e-005 1.19611,0.535568 1.19611,1.19607l0 0.0743299c0,0.66046 -0.535609,1.19607 -1.19611,1.19607l-9.61441 4.0908e-005c-0.660419,-4.0908e-005 -1.19603,-0.53565 -1.19603,-1.19615l-8.18161e-005 -0.0742481c8.18161e-005,-0.660542 0.535691,-1.19615 1.19619,-1.19615z"/>
      <path id="_233893872" class="fil6" d="M21.8314 61.1854l9.19089 0c0.3739,-4.0908e-005 0.67711,0.300429 0.67711,0.670974l0 4.0908e-005c0,0.370504 -0.30321,0.670974 -0.67711,0.670974l-9.19089 8.18161e-005c-0.373818,-8.18161e-005 -0.677028,-0.300551 -0.677028,-0.671096l-8.18161e-005 4.0908e-005c8.18161e-005,-0.370586 0.303292,-0.671056 0.677192,-0.671056z"/>
      <path id="_243979920" class="fil8" d="M21.8309 61.186l9.19183 0c0.372181,0 0.676619,0.298874 0.676619,0.664306l0 0.0133769c0,0.0388626 -0.003559,0.0768662 -0.0101452,0.113929 -0.0554713,-0.311597 -0.333851,-0.550213 -0.666474,-0.550213l-9.19183 0c-0.332664,0 -0.611003,0.238617 -0.666474,0.550213 -0.0065862,-0.0370627 -0.0101452,-0.0750663 -0.0101452,-0.113929l0 -0.0133769c0,-0.365432 0.304397,-0.664306 0.676619,-0.664306z"/>
      <path id="_233894424" class="fil7" d="M21.7452 61.8708l9.38623 0c0.169687,-4.0908e-005 0.30726,0.113193 0.30726,0.252853l0 4.0908e-005c0,0.139619 -0.137574,0.252853 -0.30726,0.252853l-9.38623 4.0908e-005c-0.169605,-4.0908e-005 -0.307179,-0.113274 -0.307179,-0.252934l-8.18161e-005 4.0908e-005c8.18161e-005,-0.139701 0.137656,-0.252934 0.307342,-0.252934z"/>
      <g>
       <path id="_243984144" class="fil9" d="M26.3305 65.3157c0.080098,0.080098 0.0801389,0.209981 4.0908e-005,0.290079 -0.080098,0.0801389 -0.210022,0.0801389 -0.29012,4.0908e-005 -0.130292,-0.130865 -0.236776,-0.259234 -0.321742,-0.384045 -0.216608,-0.318019 -0.30002,-0.620411 -0.28562,-0.890282 0.0149314,-0.280588 0.134669,-0.521087 0.321005,-0.706605l0.000531805 -0.000531805 -0.00020454 -0.00020454c0.0540804,-0.0537532 0.114297,-0.10317 0.1793,-0.147433 0.45457,-0.309715 0.886355,-0.287952 1.20126,-0.10542 0.122765,0.07118 0.226835,0.166414 0.306729,0.27572 0.080057,0.109511 0.137165,0.234935 0.165882,0.365922 0.0697482,0.317896 -0.0247494,0.663079 -0.353446,0.9001 -0.0521578,0.0376354 -0.106197,0.068071 -0.160605,0.0915113 -0.151482,0.0653711 -0.308856,0.0788298 -0.446716,0.0515441 -0.149887,-0.0296583 -0.279811,-0.107793 -0.362241,-0.221844 -0.020904,-0.0290038 -0.0387399,-0.0602166 -0.0528941,-0.092984 -0.0478624,-0.110779 -0.0770708,-0.272529 -0.0184904,-0.432357 0.043158,-0.117447 0.130988,-0.229371 0.288647,-0.311597 0.100307,-0.0525259 0.224381,-0.0136633 0.276907,0.0866841 0.052485,0.100307 0.0136224,0.224381 -0.0866841,0.276907 -0.0539168,0.0281038 -0.0816115,0.0598894 -0.0929022,0.0905295 -0.0155451,0.0422989 -0.00511351,0.0915522 0.0103088,0.127101 0.00229085,0.00535895 0.00519532,0.0104725 0.00842706,0.0149314 0.0206586,0.0285947 0.0598485,0.0494987 0.108652,0.0591939 0.0607894,0.0120679 0.132583,0.0050726 0.204254,-0.0258539 0.0278993,-0.0120679 0.0557577,-0.0276538 0.0825524,-0.0470443 0.177745,-0.128206 0.229617,-0.311147 0.193045,-0.478011 -0.0163223,-0.0743708 -0.0497442,-0.146942 -0.0971566,-0.211781 -0.0475761,-0.0651256 -0.108488,-0.121211 -0.1793,-0.162282 -0.191122,-0.110779 -0.463529,-0.117038 -0.765185,0.088525 -0.0434853,0.0296583 -0.0842297,0.0630393 -0.120883,0.0994884l-0.00020454 -0.00020454c-0.116752,0.116547 -0.191695,0.265943 -0.200981,0.438534 -0.00981793,0.183554 0.0533032,0.398567 0.215504,0.636734 0.0717936,0.105379 0.161914,0.214072 0.272325,0.324933z"/>
       <path id="_243982128" class="fil9" d="M24.1901 63.0496c-0.0857433,-0.0740436 -0.0952339,-0.203599 -0.0211904,-0.289343 0.0740436,-0.0857433 0.203599,-0.0952339 0.289343,-0.0211904 0.139496,0.121047 0.255021,0.241317 0.348864,0.359582 0.23923,0.30141 0.344487,0.596889 0.349805,0.867087 0.00556349,0.280916 -0.0963384,0.529555 -0.268643,0.728122l-0.000531805 0.000572713 0.000245448 0.00020454c-0.0499896,0.0575576 -0.106484,0.111229 -0.168091,0.160114 -0.430762,0.342032 -0.862996,0.351768 -1.19034,0.192677 -0.127674,-0.0620166 -0.238371,-0.149396 -0.326037,-0.252566 -0.0878296,-0.103416 -0.153937,-0.22434 -0.192145,-0.352873 -0.0926976,-0.311965 -0.0236449,-0.663119 0.286929,-0.923499 0.0492533,-0.0413171 0.10092,-0.0755981 0.153487,-0.102925 0.146287,-0.0762526 0.30227,-0.101166 0.441807,-0.0840251 0.151605,0.018695 0.286888,0.0870932 0.377418,0.194886 0.0229494,0.0274084 0.0430353,0.0571894 0.0595212,0.0888523 0.0558395,0.106975 0.0967475,0.266189 0.0499487,0.429862 -0.0344855,0.12027 -0.113888,0.23833 -0.265125,0.331805 -0.0962566,0.0596848 -0.222826,0.0299856 -0.282511,-0.0662301 -0.0596439,-0.0962566 -0.0299447,-0.222826 0.066271,-0.282511 0.0517078,-0.0319492 0.0770298,-0.0656983 0.0860296,-0.0970339 0.012436,-0.0433625 -0.00155451,-0.0917158 -0.0195131,-0.126038 -0.00269993,-0.00519532 -0.00593167,-0.0100634 -0.00949067,-0.0142769 -0.022704,-0.0269993 -0.0632847,-0.0450398 -0.112702,-0.0511351 -0.0614848,-0.00756799 -0.132583,0.00462261 -0.20184,0.0407035 -0.0269175,0.0140724 -0.0535895,0.0316628 -0.0788707,0.052935 -0.167928,0.140805 -0.206299,0.32706 -0.15766,0.490815 0.0216813,0.07298 0.0602985,0.142933 0.112293,0.204131 0.0521987,0.0614848 0.117038,0.112988 0.190631,0.148742 0.198731,0.0965839 0.470852,0.0829615 0.756758,-0.144037 0.0411944,-0.0327673 0.0793616,-0.0690528 0.113274,-0.108038l0.000245448 0.00020454c0.107956,-0.12477 0.171814,-0.279238 0.168418,-0.452034 -0.003559,-0.1838 -0.0821843,-0.393658 -0.261321,-0.619348 -0.0792798,-0.0998565 -0.177091,-0.201677 -0.295274,-0.304192z"/>
       <path id="_243979752" class="fil9" d="M29.0356 62.9943c-0.0857433,-0.0740436 -0.0952339,-0.203558 -0.0211904,-0.289302 0.0740436,-0.0857433 0.203599,-0.0952339 0.289343,-0.0211904 0.139496,0.121047 0.255021,0.241317 0.348864,0.359541 0.239271,0.30141 0.344487,0.59693 0.349805,0.867128 0.00556349,0.280916 -0.0963384,0.529514 -0.268643,0.728122l-0.000531805 0.000572713 0.000245448 0.00020454c-0.0499896,0.0575576 -0.106484,0.111188 -0.168091,0.160114 -0.430762,0.342032 -0.862996,0.351768 -1.19034,0.192677 -0.127674,-0.0620166 -0.238371,-0.149437 -0.326037,-0.252607 -0.0878296,-0.103416 -0.153896,-0.224299 -0.192145,-0.352873 -0.0926976,-0.311965 -0.0236039,-0.663119 0.286929,-0.923458 0.0492942,-0.041358 0.100961,-0.075639 0.153487,-0.102966 0.146287,-0.0762526 0.30227,-0.101166 0.441807,-0.0839842 0.151605,0.0186541 0.286888,0.0870932 0.377418,0.194845 0.0229494,0.0274084 0.0430353,0.0572304 0.0595212,0.0888523 0.0558395,0.107015 0.0967475,0.266189 0.0499896,0.429903 -0.0345264,0.12027 -0.113929,0.238289 -0.265166,0.331805 -0.0962157,0.0596848 -0.222826,0.0299447 -0.28247,-0.066271 -0.0596848,-0.0962157 -0.0299856,-0.222826 0.066271,-0.28247 0.0516669,-0.0319492 0.0769889,-0.0656983 0.0859887,-0.0970748 0.012436,-0.0433625 -0.00155451,-0.0916749 -0.0195131,-0.126038 -0.00269993,-0.00515441 -0.00593167,-0.0100225 -0.00949067,-0.0142769 -0.022704,-0.0269993 -0.0632847,-0.0449988 -0.112702,-0.0510941 -0.0614848,-0.0076089 -0.132583,0.00462261 -0.201799,0.0407035 -0.0269584,0.0140315 -0.0536304,0.0316219 -0.0789116,0.0528941 -0.167928,0.140846 -0.206299,0.32706 -0.15766,0.490815 0.0216813,0.07298 0.0602985,0.142933 0.112293,0.204131 0.0522396,0.0614848 0.117038,0.112988 0.190672,0.148783 0.19869,0.096543 0.470811,0.0829206 0.756717,-0.144078 0.0411944,-0.0327264 0.0793616,-0.0690119 0.113274,-0.108038l0.000245448 0.00020454c0.107956,-0.124729 0.171814,-0.279238 0.168459,-0.452034 -0.00359991,-0.183759 -0.0822252,-0.393617 -0.261361,-0.619307 -0.0792798,-0.0998974 -0.17705,-0.201718 -0.295274,-0.304233z"/>
      </g>
      <circle id="_243979128" class="fil8" cx="21.7472" cy="61.3304" r="0.459806"/>
      <circle id="_243976944" class="fil8" cx="22.8623" cy="61.2731" r="0.310369"/>
     </g>
    </g>
   </g>
  </g>
 </g>
</svg>
