<?xml version="1.0" encoding="UTF-8"?>
<!DOCTYPE svg PUBLIC "-//W3C//DTD SVG 1.1//EN" "http://www.w3.org/Graphics/SVG/1.1/DTD/svg11.dtd">
<!-- Creator: CorelDRAW -->
<svg xmlns="http://www.w3.org/2000/svg" xml:space="preserve" width="129.436mm" height="197.989mm" style="shape-rendering:geometricPrecision; text-rendering:geometricPrecision; image-rendering:optimizeQuality; fill-rule:evenodd; clip-rule:evenodd"
viewBox="0 0 7.15201 10.9399"
 xmlns:xlink="http://www.w3.org/1999/xlink">
 <defs>
  <style type="text/css">
   <![CDATA[
    .fil0 {fill:none}
    .fil8 {fill:#4B3446}
    .fil2 {fill:#501D33}
    .fil6 {fill:#634C54}
    .fil7 {fill:#896E6B}
    .fil4 {fill:#D56853}
    .fil1 {fill:#D77D75}
    .fil3 {fill:#F8C578}
    .fil5 {fill:white}
   ]]>
  </style>
 </defs>
 <g id="Layer_x0020_1">
  <metadata id="CorelCorpID_0Corel-Layer"/>
  <g id="_223646656">
   <rect id="_223644904" class="fil0" width="7.15201" height="10.9399"/>
   <g id="_162634136">
    <polygon id="_161806032" class="fil1" points="5.53894,4.41389 4.26235,5.9707 4.86017,6.07656 "/>
    <polygon id="_102349488" class="fil1" points="1.6637,4.93332 1.66632,5.13486 1.92473,6.08164 3.09321,6.1275 1.65186,4.46136 "/>
    <path id="_162114944" class="fil2" d="M3.38647 8.89991c-0.340586,0.267965 -0.172152,0.625951 0.114671,0.852579 0.0359213,0.028379 0.0505749,0.0402035 0.075506,0.0564485 0.354019,-0.143354 0.497157,-0.561595 0.277678,-0.837732 0.0293625,-0.0380817 0.0518071,-0.0942429 0.039651,-0.174037 -0.00649799,-0.0426624 -0.0276109,-0.08233 -0.0589626,-0.118688 0.0537023,-0.0347222 0.133485,-0.115649 0.0983981,-0.279375 -0.0106808,-0.0498511 -0.0342249,-0.0941932 -0.0670409,-0.133678 0.0577636,-0.0468839 0.149023,-0.153504 0.0996745,-0.335497 -0.0136038,-0.050166 -0.0407892,-0.0938064 -0.0777825,-0.131689 0.069439,-0.0380265 0.137259,-0.0775393 0.203421,-0.118207 -0.0192232,0.118958 0.0483758,0.184126 0.0483758,0.184126 0.039651,-0.184375 0.146592,-0.299598 0.20477,-0.350582 0.0844794,-0.0592665 0.165754,-0.119997 0.243581,-0.181518 0.00463589,0.150918 0.117671,0.20472 0.117671,0.20472 0.00566916,-0.242453 0.169257,-0.440863 0.197631,-0.473491 0.0636151,-0.0583438 0.124119,-0.116406 0.181314,-0.173578 0.0314511,0.125534 0.131645,0.167771 0.131645,0.167771 -0.00442593,-0.201167 0.0908171,-0.379381 0.150968,-0.47132 0.248018,-0.286895 0.389586,-0.511551 0.405903,-0.569403 -0.00793462,-0.188856 -0.0234281,-0.41065 -0.0427508,-0.632045 0.0782853,0.0738649 0.153355,0.109615 0.153355,0.109615 -0.13164,-0.245984 -0.194724,-0.576862 -0.220362,-0.749396 -0.00467457,-0.0373579 -0.00934362,-0.0733234 -0.0139906,-0.107653 -0.000547025,-0.00518292 -0.000806723,-0.0079733 -0.000806723,-0.0079733l-0.000182342 0.000624382c-0.00534868,-0.0392918 -0.0106532,-0.0763348 -0.0158803,-0.110781 -0.00857005,0.0099238 -0.0781582,-0.204289 -0.0928395,-0.154239l-0.438283 0.864746 -0.687975 0.739616c-0.545969,-0.433061 -0.686173,-0.615375 -0.826388,-0.615375 -0.140199,0 -0.280408,0.182314 -0.826372,0.615375l-0.601357 -0.585493 -0.543582 -1.00641c-0.0146813,-0.05005 -0.0655877,0.151708 -0.0741577,0.141784 -0.00902314,0.0594654 -0.0182839,0.126783 -0.0275778,0.199786 -0.038673,0.179557 -0.116096,0.469518 -0.24652,0.686742 0,0 0.09458,-0.0394189 0.185718,-0.126401 -0.0236989,0.255483 -0.0430381,0.518596 -0.0522381,0.737477 0.0170185,0.0603219 0.143884,0.270622 0.382453,0.539886 0.0338989,0.0505362 0.168854,0.269468 0.149465,0.525326 0,0 0.114925,-0.0726327 0.153592,-0.214086l0.00301692 0.00281801c0.039441,0.0744837 0.0806281,0.187331 0.0756441,0.328568 0,0 0.0864796,-0.049503 0.0926903,-0.177766 0.248272,0.212605 0.55087,0.43037 0.908343,0.622746 -0.01982,0.103443 -0.0380707,0.304654 0.0765116,0.447831 -0.0271136,0.0946629 -0.043226,0.242901 0.0588411,0.369606 0.00538736,0.00668586 0.0109626,0.0131949 0.016676,0.0195216 -0.0327441,0.0760806 -0.0820316,0.240337 0.0258759,0.374292 0.0130457,0.0161952 0.0271634,0.0309373 0.0420049,0.044414l5.5255e-006 -5.5255e-006z"/>
    <path id="_164954584" class="fil3" d="M3.41928 8.55333c0,0 -0.0878831,0.147514 0.00313848,0.260505 0.0910216,0.112991 0.299416,0.150454 0.299416,0.150454 0,0 0.106714,-0.0345233 0.0784676,-0.166345 -0.0282464,-0.131822 -0.239785,-0.216368 -0.381022,-0.244614z"/>
    <path id="_162115232" class="fil4" d="M3.41212 8.74442c0,0 0.00931599,0.110239 0.304317,0.206505 0,0 0.0590013,-0.0217373 0.055896,-0.11645 -0.0885019,0.00621066 -0.228236,-0.00776333 -0.360213,-0.0900546z"/>
    <ellipse id="_163719048" class="fil5" transform="matrix(0.999999 0.237331 0 0.999999 3.53555 8.66898)" rx="0.117223" ry="0.0458009"/>
    <path id="_164952592" class="fil6" d="M3.48242 8.9664c-0.314307,0.200078 -0.188353,0.485531 0.0354516,0.662358 0.0196211,0.015499 0.0340758,0.0258704 0.0472762,0.0306721 0.0412423,-0.0683118 0.119981,-0.22428 0.124561,-0.425778 0,0 0.0622006,0.114533 0.010725,0.34804 0.164356,-0.15551 0.2471,-0.370391 0.0713011,-0.544433 -0.00404467,0.00185657 -0.00638195,0.00273512 -0.00638195,0.00273512 0,0 -0.146973,-0.00202233 -0.282933,-0.0735997l0 5.5255e-006zm-0.126523 -0.84843c0,0 -0.0720249,0.17623 0.0347941,0.308831 0.00874134,0.0108466 0.0183778,0.0210798 0.028705,0.030766 0.113389,0.0304068 0.234629,0.0789649 0.32648,0.142718 0.0263566,-0.0116367 0.112936,-0.0605595 0.0847114,-0.192271 -0.0331475,-0.154697 -0.308936,-0.256892 -0.47469,-0.290045zm-0.0915465 -0.40887c0,0 -0.0388332,0.153349 0.0221462,0.287807 0.166389,0.0337166 0.368949,0.0935633 0.504003,0.196758 0.0414191,-0.0320203 0.113759,-0.110068 0.0766884,-0.246785 -0.0506412,-0.186751 -0.394421,-0.231419 -0.602838,-0.237779zm-0.493488 -1.61412l-0.707165 -0.636698 -0.43379 -0.851225c-0.0295614,0.168843 -0.0992877,1.06079 -0.11519,1.23143 -0.00312191,0.0335066 -0.0114488,0.116864 -0.00433752,0.149183 0.00589571,0.0187701 0.0232237,0.0479006 0.0330812,0.0648417 0.0278043,0.0477458 0.0591229,0.094254 0.091215,0.139325 0.0880378,0.12365 0.187116,0.242376 0.290752,0.354721 0.0755612,0.0151288 0.154642,0.0593826 0.170451,0.175413 0.350085,0.342244 0.757264,0.635433 1.19354,0.861569 0.180711,0.0164107 0.3881,0.062405 0.527227,0.155814 0.437863,-0.235127 0.911597,-0.662552 1.27142,-1.0292 0.0268097,-0.104758 0.0980832,-0.153338 0.167301,-0.175252 0.0997463,-0.108891 0.19505,-0.223683 0.280049,-0.343067 0.0320866,-0.0450715 0.0634106,-0.0915796 0.091215,-0.139325 0.00985749,-0.0169412 0.0271855,-0.0460716 0.0330756,-0.0648417 0.00711684,-0.0323187 -0.00121561,-0.115676 -0.00433199,-0.149183l-0.112085 -1.23143 -0.369479 0.713176 -0.739235 0.801706c-1.10853,-0.86626 -0.582332,-0.87288 -1.66371,-0.0269644l0 5.5255e-006z"/>
    <path id="_165298944" class="fil7" d="M4.67059 5.86273l0.498472 -0.544201 0.372535 -0.710336 -0.307549 0.783781 -0.563457 0.470756zm-1.36585 1.87531c0.0263953,-0.0170738 0.394372,0.0295006 0.478215,0.131977 0.0838439,0.102476 -0.624741,-0.0371977 -0.478215,-0.131977zm0.12029 0.428188c0.100481,0.0158803 0.274988,0.0981937 0.337868,0.175042 0.0700799,0.0856618 -0.244111,0.0402864 -0.363434,-0.0841313 -0.0407782,-0.0425187 -0.0518789,-0.10315 0.0255665,-0.0909111zm-0.0735831 1.09887c0.0310533,0.156819 0.136635,-0.113345 0.409898,-0.100923 0,0 0.0295062,0.00621066 0.0388166,-0.013974 0.0142668,-0.0309152 -0.19447,-0.151929 -0.331613,-0.104924 -0.0669856,0.0229585 -0.141724,0.0954641 -0.117102,0.219821zm-0.801468 -3.36528l-0.490272 -0.440178 -0.432072 -0.864122 0.335547 0.948651 0.586797 0.355649zm0.626647 1.52639c0,0 -0.304864,-0.566176 -0.320418,-0.572398 -0.0155543,-0.00622171 -0.301753,-0.233314 -0.301753,-0.233314 0,0 0.404411,0.451074 0.622171,0.805712zm0.519508 -0.637726c0,0.0466628 0.00311086,0.815044 0.00311086,0.815044 0,0 0.0901154,-0.506605 0.077672,-0.52216 -0.0124434,-0.0155543 -0.0807828,-0.292885 -0.0807828,-0.292885zm0.183728 0.89728c0,0 0.660076,-1.01332 0.658209,-1.02996 -0.00186762,-0.0166483 -0.260649,0.23153 -0.260649,0.23153 0,0 -0.1879,0.438951 -0.39756,0.798435z"/>
    <path id="_161806440" class="fil8" d="M5.46884 5.72947c-0.0935301,0.14784 -0.298233,0.462451 -0.671116,0.816453 0,0 0.267622,-0.192519 0.491526,-0.36996 -0.213472,0.301162 -0.623741,0.838743 -1.16145,1.34949 0.181601,-0.107714 0.357561,-0.244669 0.525028,-0.393051 -0.00461932,0.0975638 0.0299482,0.141635 0.0299482,0.141635 0.0328657,-0.15509 0.166572,-0.317213 0.256311,-0.41186 0.0202675,-0.0201681 0.0403638,-0.0403472 0.0602832,-0.0605098 0.014941,-0.0142171 0.0238425,-0.0220688 0.0238425,-0.0220688 0,0 -0.000535974,-0.000204444 -0.00156372,-0.000535974 0.0222954,-0.0226877 0.0443477,-0.0453257 0.0661844,-0.0678697 0.0105482,-0.041817 0.0281801,-0.0747434 0.0499174,-0.100614 -0.00117693,0.110477 0.040082,0.158433 0.040082,0.158433 0.0159632,-0.0967902 0.0667922,-0.197603 0.124948,-0.286685 0.0745666,-0.0841202 0.146011,-0.171517 0.211809,-0.261627 0.00878002,-0.00894578 0.0137861,-0.0137806 0.0137861,-0.0137806 0,0 -0.00109957,-0.000353632 -0.00314954,-0.000878555 0.00341476,-0.00473535 0.00681294,-0.00947623 0.0101945,-0.0142282 0.0320921,-0.0450715 0.0634106,-0.0915796 0.091215,-0.139325 0.00985749,-0.0169412 0.0271855,-0.0460716 0.0330812,-0.0648417 0.00711132,-0.0323187 -0.00121561,-0.115676 -0.00433752,-0.149183 -0.0159024,-0.170644 -0.0700799,-0.953707 -0.0996413,-1.12256 -0.0043983,0.0178474 -0.0091668,0.0388829 -0.0142613,0.0623332l-0.0726272 0.951226 -1.1051e-005 5.5255e-006zm-2.20969 2.17688c0.00521607,0.0298543 0.0138248,0.0606589 0.0273678,0.0905353 0.166384,0.0337166 0.368921,0.0935578 0.503975,0.196746 0.0278209,-0.0215163 0.0695881,-0.0637974 0.0827775,-0.130689 -0.254991,-0.155007 -0.498566,-0.163715 -0.614121,-0.156593zm0.104857 0.479973c0.00731024,0.013764 0.0161179,0.0273291 0.0266882,0.0404522 0.00874134,0.0108466 0.0183778,0.0210798 0.028705,0.030766 0.113383,0.0304068 0.234618,0.0789649 0.326474,0.142718 0.0168915,-0.007476 0.058515,-0.0302742 0.0787936,-0.0803518 -0.178391,-0.101155 -0.361605,-0.127252 -0.460661,-0.133584zm-0.0394134 0.923046c0,0 0.0628305,0.207836 0.238298,0.35377 0.0314235,-0.0513374 0.0874852,-0.157803 0.113306,-0.298626 -0.126136,0.0365678 -0.272103,0.0147807 -0.351604,-0.0551445zm0.377635 0.264014c0.0550119,-0.0616591 0.110847,-0.157167 0.129374,-0.29978 -0.0314843,0.0332525 -0.0705993,0.0584985 -0.113444,0.0762298 0.00532658,0.0548572 0.00401151,0.129275 -0.01593,0.223551zm-1.82116 -3.07566c0.0573436,0.0960221 0.107493,0.205886 0.118876,0.309146 0,0 0.0540173,-0.0563325 0.0485636,-0.1951 0.0234779,0.0264616 0.040839,0.062195 0.0473756,0.110217 0.282215,0.275877 0.601561,0.519883 0.943302,0.722586 -0.449638,-0.350571 -0.792401,-0.72157 -1.02519,-1.00887 -0.00664165,-0.0111947 -0.0165544,-0.0227872 -0.0274452,-0.0341034 -0.0123826,-0.015488 -0.0244338,-0.0307163 -0.0361312,-0.0456517 0.222186,0.145033 0.458119,0.286508 0.458119,0.286508 -0.435675,-0.349399 -0.669735,-0.669033 -0.761381,-0.790135l-0.018527 -1.07407c-0.00509451,-0.0234502 -0.00986302,-0.0444858 -0.0142613,-0.0623332 -0.0295614,0.168843 -0.083739,0.951911 -0.0996413,1.12256 -0.00312191,0.0335066 -0.0114488,0.116864 -0.00433752,0.149183 0.00589571,0.0187701 0.0232237,0.0479006 0.0330812,0.0648417 0.0278043,0.0477458 0.0591229,0.094254 0.091215,0.139325 0.0753955,0.105891 0.15888,0.208151 0.246388,0.305903l-5.5255e-006 -5.5255e-006zm1.0155 0.320661c0.117649,0.240205 0.326049,0.617453 0.409163,0.766696 0.0415241,0.00414965 0.084286,0.00985197 0.127169,0.017339 -0.154708,-0.228822 -0.524049,-0.7742 -0.536333,-0.784035zm0.748545 -0.0109018l-0.0964973 0.819752c0.0415462,0.0107084 0.082225,0.0233176 0.120953,0.0380431 -0.000541499,-0.268832 -0.00406124,-0.852126 -0.0244559,-0.857795zm0.163759 0.926726c0.0435078,-0.0776664 0.30204,-0.540676 0.438509,-0.819288 -0.0120622,0.00964752 -0.36823,0.535471 -0.527613,0.771183 0.031744,0.0143552 0.0616646,0.0303516 0.0891042,0.0481105l0 -5.5255e-006z"/>
   </g>
  </g>
 </g>
</svg>
