<?xml version="1.0" encoding="UTF-8"?>
<!DOCTYPE svg PUBLIC "-//W3C//DTD SVG 1.1//EN" "http://www.w3.org/Graphics/SVG/1.1/DTD/svg11.dtd">
<!-- Creator: CorelDRAW -->
<svg xmlns="http://www.w3.org/2000/svg" xml:space="preserve" width="129.436mm" height="197.989mm" style="shape-rendering:geometricPrecision; text-rendering:geometricPrecision; image-rendering:optimizeQuality; fill-rule:evenodd; clip-rule:evenodd"
viewBox="0 0 25.2551 38.6307"
 xmlns:xlink="http://www.w3.org/1999/xlink">
 <defs>
  <style type="text/css">
   <![CDATA[
    .fil0 {fill:none}
    .fil3 {fill:#4B3446}
    .fil1 {fill:#501D33}
    .fil2 {fill:#634C54}
    .fil4 {fill:#896E6B}
   ]]>
  </style>
 </defs>
 <g id="Layer_x0020_1">
  <metadata id="CorelCorpID_0Corel-Layer"/>
  <g id="_170919520">
   <rect id="_233889768" class="fil0" width="25.2551" height="38.6307"/>
   <g id="_162384248">
    <path id="_162802152" class="fil1" d="M19.8808 16.453c0.0618321,0.36791 0.2325,1.07175 0.660564,1.38091 0,0 -0.294215,0.0707684 -0.567982,-0.0254431 0.115567,0.673442 0.383402,1.39582 1.01661,2.01968 0,0 -0.380866,0.331911 -1.017,0.442171 0.11346,0.210744 0.290527,0.469995 0.548665,0.67592 0,0 -0.436688,-0.0269845 -0.802237,-0.211857 0.134513,0.291873 0.369627,0.675432 0.756112,0.960827 0,0 -0.94873,0.245573 -1.88064,-0.190491 0.454776,0.643726 0.836988,0.723196 0.836988,0.723196 -1.60847,-0.214471 -1.81951,-1.49117 -1.82866,-1.55193l-0.005912 -0.00794121c0,0 0.466209,-0.33195 0.886898,-1.27061 -0.265279,0.0154141 -0.467419,-0.0578128 -0.467419,-0.0578128 0.374954,-0.170082 0.591727,-0.395421 0.742669,-0.684602 0.205574,-0.677793 0.361861,-1.55851 0.383285,-2.68856l0.719723 0c0.0130923,0.137986 0.016019,0.302371 0.0183409,0.48654zm-14.4443 -0.481058c0.00126825,0.116601 0.00144386,0.242021 -0.00117069,0.374583 -0.0432962,0.31357 -0.200637,1.14829 -0.677734,1.49287 0,0 0.24887,0.0597834 0.501818,-0.00544373 -0.15818,0.661423 -0.452493,1.36072 -0.994387,1.99968 0,0 0.372964,0.354252 1.0552,0.452844 -0.113655,0.208774 -0.289142,0.462775 -0.542929,0.665247 0,0 0.425255,-0.0262431 0.787721,-0.20454 -0.145673,0.303366 -0.394934,0.703509 -0.785458,0.99189 0,0 0.961745,0.217925 1.9038,-0.199701 -0.445566,0.616975 -0.816286,0.694026 -0.816286,0.694026 1.51429,-0.201906 1.81321,-1.34074 1.85171,-1.52393 0.00891678,-0.0119801 0.0179116,-0.0237066 0.0267308,-0.0359403 0,0 -0.469156,-0.331638 -0.90241,-1.26931 0.25125,0.0089363 0.439069,-0.05912 0.439069,-0.05912 -0.341726,-0.155 -0.551904,-0.35591 -0.700758,-0.60919 -0.226685,-0.68749 -0.407304,-1.59142 -0.447166,-2.76397l-0.697753 0z"/>
    <path id="_162382352" class="fil2" d="M5.79289 16.2521c0,0 0.085207,2.67484 -0.925414,3.45478 0,0 0.714026,0.35152 1.65874,0.274625 0,0 -0.37349,0.230685 -0.527281,0.28561 0,0 -0.010985,0.922741 -0.46137,1.21934 0,0 0.944711,-0.032955 1.70268,-0.735996 0,0 -1.18872,-0.892478 -1.38645,-4.49556l-0.0608956 -0.00279015zm13.7133 -0.00548275c0,0 -0.085207,2.67484 0.925414,3.45478 0,0 -0.714026,0.35152 -1.65874,0.274625 0,0 0.37349,0.230685 0.527281,0.28561 0,0 0.010985,0.922741 0.46137,1.21934 0,0 -0.944711,-0.032955 -1.70268,-0.735996 0,0 1.18872,-0.892478 1.38645,-4.49556l0.0608956 -0.00279015z"/>
    <path id="_162383192" class="fil3" d="M18.8501 20.0227c0.117752,0.0703977 0.340009,0.199603 0.449995,0.23888 0,0 0.010985,0.922741 0.46137,1.21934l-0.010907 -0.000565835c-0.774609,-0.323404 -0.886098,-1.2761 -0.900459,-1.45765zm-12.4012 0.00548275c-0.117752,0.0703977 -0.340009,0.199603 -0.449995,0.23888 0,0 -0.010985,0.922741 -0.46137,1.21934l0.010907 -0.000565835c0.774609,-0.323404 0.886098,-1.2761 0.900459,-1.45765z"/>
    <path id="_162383936" class="fil4" d="M19.5059 16.2569c-0.00440961,0.177984 -0.0489935,2.69228 0.925668,3.44449 0,0 -0.00550226,0.00267308 -0.0159409,0.00743391 -1.27639,-0.56287 -1.02032,-2.77665 -0.909727,-3.45191l0 -1.95116e-005zm-13.7127 0.00548275c0.00440961,0.177984 0.0489935,2.69228 -0.925668,3.44449 0,0 0.00550226,0.00267308 0.0159409,0.00743391 1.27639,-0.56287 1.02032,-2.77665 0.909727,-3.45191l0 -1.95116e-005z"/>
   </g>
  </g>
 </g>
</svg>
