<?xml version="1.0" encoding="UTF-8"?>
<!DOCTYPE svg PUBLIC "-//W3C//DTD SVG 1.1//EN" "http://www.w3.org/Graphics/SVG/1.1/DTD/svg11.dtd">
<!-- Creator: CorelDRAW -->
<svg xmlns="http://www.w3.org/2000/svg" xml:space="preserve" width="129.436mm" height="197.988mm" style="shape-rendering:geometricPrecision; text-rendering:geometricPrecision; image-rendering:optimizeQuality; fill-rule:evenodd; clip-rule:evenodd"
viewBox="0 0 14.6755 22.448"
 xmlns:xlink="http://www.w3.org/1999/xlink">
 <defs>
  <style type="text/css">
   <![CDATA[
    .fil0 {fill:none}
    .fil5 {fill:#4B3446}
    .fil2 {fill:#501D33}
    .fil3 {fill:#634C54}
    .fil4 {fill:#896E6B}
    .fil1 {fill:#D77D75}
   ]]>
  </style>
 </defs>
 <g id="Layer_x0020_1">
  <metadata id="CorelCorpID_0Corel-Layer"/>
  <g id="_170942200">
   <rect id="_167461528" class="fil0" y="1.1338e-005" width="14.6755" height="22.448"/>
   <g id="_123368280">
    <path id="_123365832" class="fil1" d="M3.39254 9.20194c0,0 0.0439349,1.7468 0.96778,2.2001 0.435369,0.213608 1.3478,-0.621777 2.32858,-0.596369l0.493703 0.119151c0,0 -0.0765997,0.427682 -0.172349,0.459598 -0.0957496,0.0319165 -2.58523,0.983018 -2.71929,1.03408 -0.13405,0.0510665 -0.657481,0.236182 -0.689397,0.0574498 -0.0319165,-0.178733 -0.376615,-2.82778 -0.351082,-2.89163 0.0255332,-0.0638331 0.142043,-0.382398 0.142043,-0.382398l1.1338e-005 1.1338e-005z"/>
    <path id="_123364416" class="fil1" d="M11.2815 9.20194c0,0 -0.0311682,1.81064 -0.955013,2.26393 -0.435369,0.213608 -1.36056,-0.685611 -2.34135,-0.660202l-0.493703 0.119151c0,0 0.0765997,0.427682 0.172349,0.459598 0.0957496,0.0319165 2.58523,0.983018 2.71929,1.03408 0.13405,0.0510665 0.657481,0.236182 0.689397,0.0574498 0.0319165,-0.178733 0.376615,-2.82778 0.351082,-2.89163 -0.0255332,-0.0638331 -0.142043,-0.382398 -0.142043,-0.382398l-1.1338e-005 1.1338e-005z"/>
    <path id="_123369504" class="fil1" d="M3.74083 12.213c0.208574,0.392613 0.510109,0.743695 0.910988,1.03775 0.273144,0.200377 0.24845,0.226205 0.569679,0.350765 0.678014,-0.189118 0.73145,-0.600677 1.03945,-1.08799 0.657662,-1.04045 1.43908,-1.04198 2.09721,-0.00344676 0.110421,0.174254 0.520858,0.843368 1.08034,1.0768 0.195298,-0.0966113 0.381559,-0.208529 0.555518,-0.336139 0.393724,-0.288836 0.691676,-0.632639 0.899797,-1.01681 -0.080568,-0.131771 -0.21896,-0.24252 -0.448634,-0.316002 -0.88728,-0.283848 -2.18308,-0.756949 -2.34266,-0.756949 -0.560677,0 -1.02308,0 -1.58375,0 -0.159583,0 -1.45539,0.473102 -2.34266,0.756949 -0.217407,0.0695475 -0.353021,0.172519 -0.435244,0.295072l-2.26761e-005 0z"/>
    <g>
     <path id="_123367896" class="fil2" d="M3.12842 9.20835c0,0 -0.184628,1.03391 -0.285922,1.8272 -0.0425176,0.332941 -0.0942644,0.602718 -0.0250457,0.835238 0.172701,0.580008 0.656064,1.46439 0.940886,1.9754 0.528783,0.227464 0.910727,0.241749 1.2496,0.288031 0.284403,-0.323293 0.557616,-0.7667 0.818753,-1.20355 0.381649,-0.638501 0.781031,-1.24094 1.51108,-1.25143 1.22954,0.0176873 1.53399,1.63968 2.32983,2.45498 0.338871,-0.0462818 0.720815,-0.0605677 1.2496,-0.288031 0.284823,-0.511028 0.768185,-1.39541 0.940886,-1.9754 0.0692073,-0.23252 0.0174719,-0.502297 -0.0250457,-0.835238 -0.101294,-0.793288 -0.285922,-1.8272 -0.285922,-1.8272l-0.280628 0.0293882c0.00714296,0.628331 -0.212803,2.0692 -0.815363,2.44467 -0.273904,0.17066 -0.444553,0.110909 -1.02929,-0.327204 -0.486753,-0.364699 -1.25834,-0.569611 -2.02978,-0.587355l0 -0.00124718c-0.0180842,0 -0.036191,0.000136056 -0.0542978,0.000340141 -0.0180955,-0.000204084 -0.0361796,-0.000340141 -0.0542638,-0.000340141l0 0.00124718c-0.771462,0.017744 -1.54303,0.222656 -2.02978,0.587355 -0.584736,0.438113 -0.755385,0.497864 -1.02929,0.327204 -0.602559,-0.37547 -0.822506,-1.81635 -0.815363,-2.44467l-0.280628 -0.0293882 -1.1338e-005 1.1338e-005z"/>
     <path id="_123366864" class="fil3" d="M3.21926 9.81838c-0.0423589,0.256534 -0.0824955,0.513545 -0.120285,0.770249 -0.0286172,0.19447 -0.0562933,0.389971 -0.079695,0.585609 -0.0263609,0.220264 -0.0542525,0.412761 -0.0341842,0.585054 0.0227441,0.195275 0.101713,0.368361 0.214969,0.594124 0.135047,0.269153 0.284811,0.534452 0.448204,0.786825 0.136533,0.210876 1.19604,0.783945 1.26824,0.714738 0.12033,-0.115364 0.245854,-0.316218 0.445131,-0.630632 0.475562,-0.750283 0.995887,-1.7099 1.97609,-1.75881 0.980207,0.0489236 1.50057,1.00854 1.97612,1.75881 0.199277,0.314415 0.3248,0.515268 0.445131,0.630632 0.0722006,0.0692073 1.13171,-0.503862 1.26824,-0.714738 0.163392,-0.252373 0.313156,-0.517672 0.448204,-0.786825 0.113256,-0.225763 0.192225,-0.398849 0.214969,-0.594124 0.0200683,-0.172293 -0.00782324,-0.36479 -0.0341842,-0.585054 -0.0234017,-0.195638 -0.0510778,-0.391139 -0.079695,-0.585609 -0.0377896,-0.256704 -0.0779263,-0.513715 -0.120285,-0.770249 -0.162871,0.926283 -0.340005,1.73109 -0.88389,2.05776 -0.485188,0.29141 -0.867189,-0.0650349 -1.2648,-0.362953 -0.454564,-0.340583 -1.18563,-0.531561 -1.9155,-0.548953l0 -0.00126986c-0.0180842,0 -0.0362023,0.000136056 -0.0542978,0.000351479 -0.0180955,-0.000215423 -0.0361796,-0.000351479 -0.0542638,-0.000351479l0 0.00126986c-0.729908,0.0173812 -1.46094,0.20837 -1.9155,0.548953 -0.397613,0.297918 -0.779614,0.654363 -1.2648,0.362953 -0.543885,-0.326671 -0.721019,-1.13148 -0.88389,-2.05776l-1.1338e-005 0z"/>
     <path id="_123363984" class="fil4" d="M3.21926 9.81838c-0.00463725,0.0280616 -0.00920648,0.0561119 -0.013787,0.0841962 0.00535155,0.366763 0.05796,1.32297 0.44555,1.87519 0.78949,1.12489 1.74179,-0.397931 2.46071,-0.627265 -0.286149,0.0901033 -0.542207,0.211647 -0.743809,0.362692 -0.397613,0.297918 -0.779614,0.654363 -1.2648,0.362953 -0.543885,-0.326671 -0.721019,-1.13148 -0.88389,-2.05776l2.26761e-005 0z"/>
     <path id="_123366288" class="fil5" d="M3.7528 13.2949c0.0794569,0.178461 0.152145,0.311002 0.211443,0.392919 0.0440709,0.0621551 0.770204,0.229323 0.903289,0.213506 0.861554,-0.699602 0.99498,-2.41618 2.52451,-2.43761l0 -0.0117575c-0.0310662,-0.000260775 -0.0553976,0.000532887 -0.0723593,0.00143993 -0.135875,-0.00731303 -0.744897,-0.00773253 -1.49719,0.489349 -0.737799,0.487524 -1.06731,1.61764 -2.06969,1.35215l-1.1338e-005 0z"/>
     <path id="_123365952" class="fil2" d="M3.49871 12.9388c0,0 0.481084,0.509077 1.23298,0.107008 0,0 -0.337714,0.460437 -1.08005,0.236704l-0.159299 -0.139435 0.00637197 -0.204277z"/>
     <path id="_123365712" class="fil2" d="M7.06771 11.6374c0,0 -0.721314,-0.084457 -1.58943,0.610666 0,0 0.644714,-0.85754 1.90861,-0.812064l-0.0127666 0.103947 -0.306399 0.0974503 -1.1338e-005 0z"/>
     <path id="_123364944" class="fil2" d="M3.15476 9.80541c0,0 -0.0638331,1.01996 0.338315,1.73456 0,0 -0.217033,-0.948494 -0.153199,-1.68909l-0.0893663 -0.168914 -0.0957496 0.123437 0 1.1338e-005z"/>
     <path id="_123364224" class="fil4" d="M5.0059 11.9103c0,0 -0.619181,0.578194 -1.35964,0.175411 0,0 0.250695,0.110591 0.887892,-0.0709874l0.245321 -0.0518828 0.226432 -0.0525404z"/>
     <path id="_123363912" class="fil5" d="M3.36491 12.5367c0.275559,0.650417 0.861361,0.818753 1.49741,0.324256 0,0 -0.46834,0.175093 -0.82517,0.0972689 -0.35683,-0.0778129 -0.672243,-0.421525 -0.672243,-0.421525z"/>
     <path id="_123362976" class="fil4" d="M11.4562 9.81838c0.00463725,0.0280616 0.00920648,0.0561119 0.013787,0.0841962 -0.00535155,0.366763 -0.05796,1.32297 -0.44555,1.87519 -0.78949,1.12489 -1.74179,-0.397931 -2.46071,-0.627265 0.286149,0.0901033 0.542207,0.211647 0.743809,0.362692 0.397613,0.297918 0.779614,0.654363 1.2648,0.362953 0.543885,-0.326671 0.721019,-1.13148 0.88389,-2.05776l-2.26761e-005 0z"/>
     <path id="_123369360" class="fil5" d="M10.9227 13.2949c-0.0794569,0.178461 -0.152145,0.311002 -0.211443,0.392919 -0.0440709,0.0621551 -0.770204,0.229323 -0.903289,0.213506 -0.861554,-0.699602 -0.99498,-2.41618 -2.52451,-2.43761l0 -0.0117575c0.0310662,-0.000260775 0.0553976,0.000532887 0.0723593,0.00143993 0.135875,-0.00731303 0.744897,-0.00773253 1.49719,0.489349 0.737799,0.487524 1.06731,1.61764 2.06969,1.35215l1.1338e-005 0z"/>
     <path id="_123368520" class="fil2" d="M11.1768 12.9388c0,0 -0.481084,0.509077 -1.23298,0.107008 0,0 0.337714,0.460437 1.08005,0.236704l0.159299 -0.139435 -0.00637197 -0.204277z"/>
     <path id="_123367776" class="fil2" d="M7.60781 11.6374c0,0 0.721314,-0.084457 1.58943,0.610666 0,0 -0.644714,-0.85754 -1.90861,-0.812064l0.0127666 0.103947 0.306399 0.0974503 1.1338e-005 0z"/>
     <path id="_123366720" class="fil2" d="M11.5208 9.80541c0,0 0.0638331,1.01996 -0.338315,1.73456 0,0 0.217033,-0.948494 0.153199,-1.68909l0.0893663 -0.168914 0.0957496 0.123437 0 1.1338e-005z"/>
     <path id="_123365496" class="fil4" d="M9.66959 11.9103c0,0 0.619181,0.578194 1.35964,0.175411 0,0 -0.250695,0.110591 -0.887892,-0.0709874l-0.245321 -0.0518828 -0.226432 -0.0525404z"/>
     <path id="_123364152" class="fil5" d="M11.3106 12.5367c-0.275559,0.650417 -0.861361,0.818753 -1.49741,0.324256 0,0 0.46834,0.175093 0.82517,0.0972689 0.35683,-0.0778129 0.672243,-0.421525 0.672243,-0.421525z"/>
    </g>
    <ellipse id="_123368544" class="fil1" transform="matrix(0.84062 -0.0949891 0 1.21285 4.43321 11.0982)" rx="0.248949" ry="0.105319"/>
    <ellipse id="_123365904" class="fil1" transform="matrix(1.36667 -0.154432 0 1.65757 4.78505 11.1902)" rx="0.071679" ry="0.0477898"/>
   </g>
  </g>
 </g>
</svg>
