<?xml version="1.0" encoding="UTF-8"?>
<!DOCTYPE svg PUBLIC "-//W3C//DTD SVG 1.1//EN" "http://www.w3.org/Graphics/SVG/1.1/DTD/svg11.dtd">
<!-- Creator: CorelDRAW -->
<svg xmlns="http://www.w3.org/2000/svg" xml:space="preserve" width="129.436mm" height="197.988mm" style="shape-rendering:geometricPrecision; text-rendering:geometricPrecision; image-rendering:optimizeQuality; fill-rule:evenodd; clip-rule:evenodd"
viewBox="0 0 22.1618 33.8992"
 xmlns:xlink="http://www.w3.org/1999/xlink">
 <defs>
  <style type="text/css">
   <![CDATA[
    .fil0 {fill:none}
    .fil5 {fill:#4B3446}
    .fil2 {fill:#501D33}
    .fil3 {fill:#634C54}
    .fil4 {fill:#896E6B}
    .fil1 {fill:#D77D75}
   ]]>
  </style>
 </defs>
 <g id="Layer_x0020_1">
  <metadata id="CorelCorpID_0Corel-Layer"/>
  <g id="_170942440">
   <rect id="_254783568" class="fil0" y="1.71218e-005" width="22.1618" height="33.8992"/>
   <g id="_122458216">
    <path id="_122466448" class="fil1" d="M5.11866 15.2996c0,0 0.318107,0.797314 0.780808,0.563309 0,0 0.110864,0.610942 0.795276,0.472272 0,0 0.190977,0.810429 1.26027,0.515385 0.413698,-0.114117 2.02647,-0.59644 2.59074,-0.564559 0.209178,0.0118141 -1.38764,1.89536 -1.38764,1.89536 0,0 -2.04541,0.0173444 -2.72078,-0.572486 -0.675372,-0.589848 -1.19637,-1.21438 -1.31867,-2.30928z"/>
    <path id="_122472352" class="fil1" d="M16.9758 15.2996c0,0 -0.202432,0.736651 -0.665133,0.502646 0,0 -0.101224,0.506944 -0.785636,0.368274 0,0 -0.167657,0.685713 -0.981853,0.625633 -0.370072,-0.0273094 -1.66053,-0.437703 -2.51828,-0.486261 -2.13944,-0.121086 0.814333,1.71169 0.911448,1.87147 0,0 2.04541,0.0173444 2.72078,-0.572486 0.675372,-0.589848 1.19637,-1.21438 1.31867,-2.30928z"/>
    <path id="_122472400" class="fil2" d="M7.04657 17.5355c-0.00963961,-0.0606627 -0.0867565,-0.64998 0.347026,-1.10064 0,0 -0.255338,0.684172 0.115846,1.1698l-0.00981082 0.242839 -0.453061 -0.311994z"/>
    <path id="_122472496" class="fil2" d="M14.7968 17.5095c0,0 0.298828,-0.823322 0.163873,-1.69864 0,0 0.337386,0.753995 0.298828,1.44731 -0.0385584,0.693315 -0.404863,0.467992 -0.462701,0.251332z"/>
    <path id="_122472592" class="fil2" d="M16.2429 17.3012c0,0 0.209435,-0.577623 -0.0993068,-1.96549 0,0 0.494531,0.682854 0.619845,1.5755l-0.260663 0.344235 -0.259876 0.0457496z"/>
    <path id="_122472688" class="fil2" d="M6.26299 17.2899c0,0 -0.310111,-0.539784 -0.253814,-1.95424 0,0 -0.36586,0.745503 -0.32975,1.64464l0.318877 0.302047 0.264687 0.00755074z"/>
    <path id="_122472784" class="fil2" d="M4.94036 19.5073c0,0 -0.134954,0.71066 -0.935042,1.01397 0,0 0.838646,0.0780072 1.05072,-0.363976 0.212071,-0.442001 -0.115675,-0.649997 -0.115675,-0.649997z"/>
    <path id="_122472880" class="fil2" d="M9.13883 27.0724c0,0 0.385927,0.485747 0.135074,1.71749 0,0 0.722388,-0.49929 0.568155,-1.4006 -0.154234,-0.901312 -0.703229,-0.316891 -0.703229,-0.316891z"/>
    <path id="_122472976" class="fil2" d="M7.58971 24.7569c0,0 0.111926,0.8714 -0.405,1.34467 0,0 0.20423,-0.621232 0.0172075,-1.07423l0.129458 -0.298759 0.258335 0.0283196z"/>
    <path id="_122472376" class="fil2" d="M16.2524 22.822c0,0 -0.269909,0.51131 0.106036,1.60329 0,0 -0.404863,-0.0779901 -0.626574,-0.814641 -0.221711,-0.736651 0.520539,-0.78865 0.520539,-0.78865z"/>
    <path id="_122473096" class="fil2" d="M17.3706 19.7194c0,0 0.0963961,1.00531 0.501259,1.56864 0,0 -0.539818,-0.164661 -0.645854,-0.632653 -0.106036,-0.467992 0.144594,-0.935983 0.144594,-0.935983z"/>
    <path id="_122473192" class="fil2" d="M4.14755 16.9076c-0.1047,1.12794 0.443405,2.21908 -0.140725,2.88717 0,0 0.399556,0.119511 0.972932,-0.105813 -0.665133,1.54263 0.509649,2.02795 0.0692579,3.11991 0,0 0.491466,0.0693264 0.931737,-0.121325 0,0 0.465081,1.7392 0.178136,2.53724 0,0 0.600018,0.227361 1.20411,-0.29263 0.0236795,0.961992 1.49621,1.51962 1.01664,2.68659 0,0 0.502903,0.155997 0.922697,-0.363994 0,0 1.07089,0.901312 1.11184,2.5046 0,0 1.59182,-0.329322 2.46212,-2.4006 0,0 0.302372,0.21666 0.71191,0.277323 0,0 -0.0511944,-0.476655 0.337883,-1.1353 0.389077,-0.658661 0.671571,-0.563566 0.85587,-1.5862 0,0 0.438816,0.243045 1.23878,0.2213 0,0 -0.466057,-1.10944 0.230186,-2.27075 0,0 0.163206,0.264396 0.582999,0.403066 -0.179009,-1.04169 0.947489,-1.49541 0.529442,-3.51008 0,0 0.197295,0.16925 0.754594,0.251554 -1.13205,-2.20994 0.922817,-2.34135 -0.862291,-5.9745 -0.102491,0 -0.0700113,0 -0.172486,0 0,0 -0.136632,2.14391 -0.710009,2.89789 0,0 -0.1843,-0.398665 -0.839587,-0.779986 0,0 -0.0716721,0.719323 -0.583616,1.24798 -2.93936,-1.49607 -4.80819,-1.64543 -7.56654,0.199367 0,0 -0.465851,-0.164849 -0.670629,-1.30881 -0.329288,0.175585 -0.644878,0.377845 -0.798598,0.654415 0,0 -0.70138,-0.584951 -0.814007,-2.74289 -0.0648405,-0.00868078 -0.074463,0.00426334 -0.139303,-0.00441744 -0.383204,0.829931 -0.730076,1.81153 -0.813357,2.70888l0 1.71219e-005z"/>
    <path id="_122473288" class="fil3" d="M4.9978 15.6158c-1.00082,1.86055 -0.0409555,2.74724 -0.460732,3.83923 0,0 0.330041,0.0433183 1.1082,-0.519991 -0.214297,0.6081 -0.600001,1.0238 -0.51922,1.75506 0.0744287,0.673694 0.530367,1.13854 0.312525,1.84159 0,0 0.859569,-0.130075 1.3408,-0.710728 0,0 -0.0593786,0.361323 -0.498862,0.698709 0,0 0.488624,1.52857 0.294085,2.41256 0,0 0.297321,0.0616901 0.695918,-0.288675 0,0 -0.0429759,-0.668985 0.461074,-1.07197 -0.660938,1.82899 1.07626,2.44735 1.0546,3.6399 0,0 0.499188,-0.106772 0.550296,-0.833458 0,0 0.183974,0.194641 0.143087,0.527713 0,0 1.1189,1.18105 1.23152,2.40304 0,0 1.843,-0.987983 2.1604,-3.38857 0,0 0.149542,0.544355 0.113758,1.03746 0,0 0.0868763,0.155706 0.337283,0.237891 0,0 0.040887,-0.380636 0.337283,-0.834828 0.296396,-0.454174 1.09561,-1.07318 0.911311,-2.67649 0,0 0.243627,0.422893 0.238525,0.859774 0,0 0.214622,0.324408 0.8432,0.337386 0,0 -0.334287,-0.9805 0.546256,-2.54046 0,0 0.164661,0.291037 0.379301,0.425136 0.192141,-1.36341 0.897391,-1.22142 0.398854,-3.7444 0,0 0.25979,0.348995 0.602176,0.439826 0,0 -0.342009,-0.569815 0.0315385,-1.86978 0.37353,-1.29996 -0.346752,-2.29989 -0.346752,-2.29989 0,0 -0.145964,1.58059 -0.911533,2.1959 0,0 -0.188803,-0.496089 -0.602741,-0.859432 0,0 -0.260629,0.856452 -0.894309,1.1679 -2.166,-1.15268 -4.07392,-2.09503 -7.38,0.211506 0,0 -0.604093,-0.225307 -0.931737,-1.27395 0,0 -0.345125,0.132455 -0.610874,0.768309 0,0 -0.715437,-0.83517 -0.935196,-1.88628l-3.42437e-005 0z"/>
    <path id="_122473384" class="fil4" d="M16.3397 17.4562c-0.0488829,-0.114545 -0.237977,-0.519118 -0.589762,-0.82791 0,0 -0.260629,0.856452 -0.894309,1.1679 0,0 -1.63423,-0.993033 -2.86533,-1.16175 0.655836,0.226026 1.97213,0.793958 2.67157,1.58572 0,0 0.819366,-0.407312 1.14711,-1.02262 0,0 0.298828,0.0693264 0.530178,0.259995l0.000547899 -0.0013355 -1.71219e-005 0z"/>
    <path id="_122473480" class="fil4" d="M10.7802 16.6101c-1.28878,0.16199 -2.1241,0.486072 -3.30454,1.39755 0,0 -0.604093,-0.225307 -0.931737,-1.27395 0,0 -0.341564,0.131153 -0.606747,0.758567l0.000171219 0.00101019c0,0 0.226128,-0.246555 0.495558,-0.32874 0,0 0.29566,0.991955 1.13446,1.15081 0,0 1.42421,-1.24243 3.21283,-1.70525z"/>
    <path id="_122473576" class="fil4" d="M4.99453 15.622c-0.995294,1.85628 -0.0381646,2.74227 -0.457462,3.83302 0,0 0.00565021,0.000701996 0.0170876,0.00073624 0.837259,-0.928878 -0.157555,-2.21637 0.440374,-3.83376z"/>
    <path id="_122473672" class="fil5" d="M5.90832 19.1276c-1.03952,1.6018 0.00376681,2.18685 -0.469772,3.40403 0,0 0.859569,-0.130075 1.3408,-0.710728 0,0 -0.0593786,0.361323 -0.498862,0.698709 0,0 0.488624,1.52857 0.294085,2.41256 0,0 0.297321,0.0616901 0.695918,-0.288675 0,0 -0.0429759,-0.668985 0.461074,-1.07197 -0.660938,1.82899 1.07626,2.44735 1.0546,3.6399 0,0 0.499188,-0.106772 0.550296,-0.833458 0,0 0.183974,0.194641 0.143087,0.527713 0,0 1.25844,0.6827 1.58314,1.88734 0,0 1.23111,-0.844947 1.80879,-2.87289 0,0 0.149542,0.544355 0.113758,1.03746 0,0 0.0868763,0.155706 0.337283,0.237891 -0.0297235,-0.614366 0.125623,-1.02483 0.404778,-1.42824 0.32648,-0.471776 0.790499,-0.956221 0.843816,-2.08308 0,0 0.243627,0.422893 0.238525,0.859774 0,0 0.214622,0.324408 0.8432,0.337386 0,0 -0.334287,-0.9805 0.546256,-2.54046 0,0 0.164661,0.291037 0.379301,0.425136 -0.125966,-1.51075 0.694959,-1.23009 0.398854,-3.7444 0,0 0.25979,0.348995 0.602176,0.439826 0,0 -0.342009,-0.569815 0.0315385,-1.86978 0.292852,-1.01916 -0.0865852,-1.85378 -0.26419,-2.16686 0.0928861,0.456571 0.248096,2.02197 -1.5766,3.34017 0,0 0.363634,2.07012 -0.707612,3.63158 0,0 -0.366254,-0.355741 -0.269926,-1.42223 0,0 -1.09931,1.66532 -1.35095,3.24386 0,0 -0.553858,-0.426112 -0.539732,-1.55651 0,0 -0.502064,3.01405 -1.77562,4.05494 0,0 -0.0192963,-2.09916 -0.559594,-3.55642 0,0 -0.173667,1.05825 -0.906928,1.94302 0,0 -0.11095,-1.40887 -0.573873,-2.08566 0,0 -0.298605,0.376869 -0.448832,0.975364 0,0 -0.515008,-0.591646 -0.424519,-2.16853 0,0 -0.36663,0.624537 -0.868335,1.02354 0,0 0.57889,-0.711276 0.463112,-2.70633 0,0 -0.36663,0.607192 -1.21567,1.0062 0,0 -0.524562,-0.438114 -0.683368,-2.02026l0 6.84874e-005z"/>
    <path id="_122473072" class="fil3" d="M15.6451 18.7488c0,0 0.549458,0.927303 0.472341,2.29661 0,0 0.703691,-1.50796 0.269909,-3.06791l-0.404863 0.35533 -0.337386 0.415993 0 -1.71219e-005z"/>
    <path id="_122473840" class="fil5" d="M6.55495 19.6674c0,0 -0.279549,0.901312 -0.115675,1.87197l0.501259 -0.0519991c0,0 -0.366305,-0.57199 -0.385584,-1.81997z"/>
    <path id="_122463592" class="fil5" d="M11.0373 26.8953c0,0 0.520539,-1.32597 0.539818,-2.72128 0,0 0.279549,1.44731 0.0963961,2.29662 -0.183153,0.849313 -0.636214,0.424656 -0.636214,0.424656z"/>
    <path id="_122466472" class="fil3" d="M14.7968 20.9587c0,0 -0.607295,1.02264 -0.530178,2.01062 0,0 -0.298828,-0.251332 -0.298828,-1.05731 0,-0.805994 0.829006,-0.953311 0.829006,-0.953311z"/>
    <path id="_122466568" class="fil4" d="M6.34618 17.0174c0,0 -0.350313,0.994797 0.0641898,2.06077 0,0 -0.125315,-0.987983 0.231351,-1.81993l-0.125315 -0.329322 -0.170226 0.0884858z"/>
    <path id="_122466664" class="fil4" d="M4.88733 15.9496c0,0 -0.0963961,1.00531 0.626574,2.0626 0,0 -0.73261,-0.476638 -0.838646,-1.03128 -0.106036,-0.554663 0.212071,-1.03132 0.212071,-1.03132z"/>
    <path id="_122466760" class="fil2" d="M17.2549 15.1436c0,0 0.25063,1.24796 -0.298828,2.37461 0,0 0.684412,-0.701996 0.780808,-2.03663l-0.221711 -0.277323 -0.260269 -0.0606627z"/>
    <path id="_122466856" class="fil5" d="M8.27472 20.0609c0,0 0.41125,1.49726 0.277682,2.81019 0,0 0.81637,-0.621575 0.931155,-1.51123 0,0 -0.301944,0.417362 -0.547437,0.560056 -0.0302372,0.00390378 0.00999916,-0.755142 -0.6614,-1.85904l0 1.71219e-005z"/>
    <path id="_122466952" class="fil5" d="M12.7341 20.5953c0,0 0.674772,0.71066 0.74225,2.04529 0,0 1.03144,-0.944647 0.713331,-2.59127 0,0 -0.212071,0.831985 -0.559097,1.2913 0,0 -0.202432,-0.424656 -0.896483,-0.745314z"/>
    <path id="_122467048" class="fil2" d="M10.5458 29.4865c0,0 1.08928,-1.22197 1.15675,-2.69525 0,0 0.0963961,1.36929 -0.404863,2.36593l-0.751889 0.329322z"/>
    <path id="_122467144" class="fil2" d="M13.2696 27.3944c0,0 -0.198288,-0.92381 0.58252,-1.79913 0,0 -0.443422,0.641316 -0.298828,1.48197l-0.0671862 0.308519 -0.216506 0.00864654z"/>
    <path id="_122467240" class="fil2" d="M8.66107 27.3425c0,0 0.308913,-0.711584 -0.149303,-2.12421 0,0 0.716481,1.23063 0.458215,2.08861 0,0 -0.0802159,0.0918416 -0.125966,0.0918416 -0.0457325,0 -0.182947,-0.0562453 -0.182947,-0.0562453z"/>
   </g>
  </g>
 </g>
</svg>
