<?xml version="1.0" encoding="UTF-8"?>
<!DOCTYPE svg PUBLIC "-//W3C//DTD SVG 1.1//EN" "http://www.w3.org/Graphics/SVG/1.1/DTD/svg11.dtd">
<!-- Creator: CorelDRAW -->
<svg xmlns="http://www.w3.org/2000/svg" xml:space="preserve" width="129.436mm" height="197.988mm" style="shape-rendering:geometricPrecision; text-rendering:geometricPrecision; image-rendering:optimizeQuality; fill-rule:evenodd; clip-rule:evenodd"
viewBox="0 0 8.07541 12.3523"
 xmlns:xlink="http://www.w3.org/1999/xlink">
 <defs>
  <style type="text/css">
   <![CDATA[
    .fil0 {fill:none}
    .fil5 {fill:#4B3446}
    .fil2 {fill:#501D33}
    .fil3 {fill:#634C54}
    .fil4 {fill:#896E6B}
    .fil1 {fill:#D77D75}
   ]]>
  </style>
 </defs>
 <g id="Layer_x0020_1">
  <metadata id="CorelCorpID_0Corel-Layer"/>
  <g id="_223643968">
   <rect id="_170939200" class="fil0" width="8.07541" height="12.3523"/>
   <g id="_118368568">
    <path id="_123360744" class="fil1" d="M1.97078 5.85777c0.015903,0.54799 0.228095,1.03453 0.666036,1.38127 0.392859,0.31106 0.905018,0.45755 1.40187,0.45755 0.496855,0 1.00901,-0.146496 1.40187,-0.457563 0.437922,-0.346772 0.650121,-0.833314 0.666011,-1.38132 -0.0949377,0.376581 -0.299194,0.708623 -0.624136,0.965935 -0.4046,0.320356 -0.932058,0.471232 -1.44374,0.471232 -0.51171,0 -1.03917,-0.15087 -1.44376,-0.47122 -0.324948,-0.257287 -0.529204,-0.589316 -0.624148,-0.965885l-6.23892e-006 0z"/>
    <path id="_123359040" class="fil2" d="M6.34402 6.96183c0,0 -0.689064,0.843752 -0.94219,1.26563 0,0 0.0281251,-0.323438 0.182813,-0.562501 0.154688,-0.239063 0.759377,-0.703127 0.759377,-0.703127z"/>
    <path id="_123352080" class="fil2" d="M6.51814 6.6651c0,0 -0.161576,0.291539 -0.175626,0.597127 0,0 -0.1124,-0.136988 -0.0878128,-0.372326 0.0245876,-0.235338 0.263439,-0.224801 0.263439,-0.224801z"/>
    <path id="_123353640" class="fil2" d="M3.77487 8.61454c0,0 0.333689,0.161576 0.417989,0.305589 0,0 0.19053,-0.201018 0.390744,-0.35205 0.200213,-0.151032 -0.808733,0.0464613 -0.808733,0.0464613z"/>
    <path id="_123361392" class="fil1" d="M1.87848 5.44407c0.00186544,0.119694 0.00295725,0.201798 0.00295725,0.227571 0,0.392971 0.0941079,0.757811 0.291776,1.06901l1.12249 0.157258c-0.414845,-0.66797 -1.31808,-1.50861 -1.31808,-1.50861 -0.0381011,0.0121597 -0.0708929,0.0308265 -0.0991302,0.0547715l-6.23892e-006 0z"/>
    <path id="_123360576" class="fil1" d="M6.20799 5.43c-0.00186544,0.119694 -0.00295725,0.201798 -0.00295725,0.227571 0,0.392971 -0.0941079,0.757811 -0.291776,1.06901l-1.12249 0.157258c0.414845,-0.66797 1.31808,-1.50861 1.31808,-1.50861 0.0381011,0.0121597 0.0708929,0.0308265 0.0991302,0.0547715l6.23892e-006 0z"/>
    <path id="_123360096" class="fil2" d="M1.70991 5.20203c-0.0436662,0.20274 -0.131086,0.53014 -0.27835,0.775411 0,0 0.106792,-0.0445085 0.209696,-0.142722 -0.0267587,0.288469 -0.048595,0.585554 -0.0589828,0.832703 0.0420379,0.149042 0.678227,1.10917 1.92962,1.80292 0.31665,0.175545 0.512359,0.284289 0.690586,0.273939 0.130057,-0.0075491 0.229511,-0.0802014 0.465318,-0.228438 1.12592,-0.707787 1.81179,-1.70874 1.85119,-1.84842 -0.00895909,-0.21324 -0.026453,-0.463671 -0.0482705,-0.713652 0.0883931,0.0834019 0.173155,0.123768 0.173155,0.123768 -0.148636,-0.277744 -0.219866,-0.651344 -0.248814,-0.846154 -0.00527813,-0.0421814 -0.01055,-0.0827905 -0.015797,-0.121553 -0.000617653,-0.00585211 -0.000910883,-0.00900277 -0.000910883,-0.00900277l-0.000205884 0.000704998c-0.00603928,-0.044365 -0.0120286,-0.0861907 -0.0179307,-0.125084 -0.0728394,0.0127711 -0.166068,0.0541788 -0.188546,0.149347 -0.0526004,0.222642 -0.0980946,0.445309 -0.148686,0.640188 -0.0847932,0.0838075 -0.271462,0.264905 -0.483666,0.448759 0,0 0.24733,-0.140263 0.424821,-0.246949 -0.012272,0.0363854 -0.0248184,0.0697636 -0.0377392,0.0995358 -0.457432,0.370935 -0.942683,0.546473 -0.942683,0.546473l-0.922256 -0.731539 0 -0.0174253 -0.0108245 0.00858476 -0.0108245 -0.00858476 0 0.0174253 -0.922256 0.731539c0,0 -0.485251,-0.175538 -0.942683,-0.546473 -0.00605176,-0.0139565 -0.0120349,-0.028749 -0.0179431,-0.0442277 0.178215,0.108002 0.44967,0.261922 0.44967,0.261922 -0.250387,-0.21694 -0.465255,-0.429999 -0.519103,-0.483978 -0.053349,-0.199028 -0.103398,-0.443625 -0.158363,-0.677123 -0.0151231,-0.0642547 -0.143895,-0.169299 -0.188079,-0.147476 -0.0101882,0.0671433 -0.0206446,0.143152 -0.0311385,0.225581z"/>
    <path id="_123359376" class="fil3" d="M4.05511 6.03764l-0.00432357 -0.00343141 -0.00285743 0.00226473 -0.00285743 -0.00226473 -0.00432981 0.00343141 0 0.0045357 -0.895922 0.710651 -0.0652903 -0.0199271c-0.0515522,-0.0157346 -0.104471,-0.0365476 -0.154195,-0.0568803 -0.126781,-0.0518517 -0.25063,-0.112762 -0.369475,-0.180174 -0.164177,-0.0931284 -0.320805,-0.200132 -0.465548,-0.320518 -0.105625,-0.0878503 -0.21213,-0.751865 -0.267519,-0.976735 -0.0333782,0.190643 -0.0945509,1.07481 -0.112506,1.26749 -0.00352499,0.0378328 -0.012927,0.131953 -0.00489755,0.168445 0.00665693,0.0211936 0.0262222,0.0540852 0.0373524,0.0732138 0.0313943,0.0539105 0.0667565,0.106424 0.102992,0.157314 0.116449,0.16356 0.249994,0.319508 0.388897,0.465155 0.427254,0.447986 0.940468,0.828972 1.49468,1.1141 0.240068,0.121073 0.355475,0.211855 0.461786,0.248945 0.0720596,-0.0547965 0.183674,-0.126008 0.379383,-0.251622 0.467164,-0.29988 0.933592,-0.736948 1.29075,-1.11143 0.138897,-0.145648 0.272448,-0.301596 0.388897,-0.465155 0.0362294,-0.0508909 0.0715979,-0.103404 0.102992,-0.157314 0.0111302,-0.0191285 0.0306955,-0.0520201 0.0373462,-0.0732138 0.00803573,-0.0364915 -0.00137256,-0.130612 -0.00489132,-0.168445 -0.0179556,-0.192677 -0.0791283,-1.07684 -0.112506,-1.26749 -0.0553954,0.224869 -0.161894,0.888884 -0.267519,0.976735 -0.144749,0.120386 -0.301371,0.22739 -0.465555,0.320518 -0.118839,0.0674116 -0.242688,0.128322 -0.369469,0.180174 -0.0497242,0.0203326 -0.102643,0.0411457 -0.154195,0.0568803l-0.0652903 0.0199271 -0.895928 -0.710651 0 -0.0045357 0 6.23892e-006z"/>
    <path id="_123358488" class="fil4" d="M5.38602 6.57426c0.0517768,-0.0259414 0.102842,-0.0532118 0.152997,-0.0816613 0.164177,-0.0931284 0.320805,-0.200132 0.465548,-0.320518 0.102861,-0.0855543 0.206546,-0.717457 0.263058,-0.958136 -0.0084475,0.0654089 -0.131067,1.00962 -0.175145,1.05709 -0.0283185,0.0305021 -0.416036,0.187985 -0.706458,0.303224l0 6.23892e-006zm0.88539 0.134174c-1.03503,0.692814 -2.16421,1.2575 -2.16421,1.2575 -0.875321,-0.33143 -1.68251,-0.815596 -2.18429,-1.14687 0.711661,0.361452 1.42955,0.737085 2.21106,0.912424 0.733654,-0.288313 1.43921,-0.658219 2.13746,-1.02305l-1.24778e-005 -6.23892e-006zm-3.56257 -0.130924c-0.0517768,-0.0259414 -0.102842,-0.0532118 -0.152997,-0.0816613 -0.164177,-0.0931284 -0.320805,-0.200132 -0.465548,-0.320518 -0.102861,-0.0855543 -0.206546,-0.717457 -0.263058,-0.958136 0.0084475,0.0654089 0.131067,1.00962 0.175145,1.05709 0.0283185,0.0305021 0.416036,0.187985 0.706458,0.303224l0 6.23892e-006z"/>
    <path id="_123354696" class="fil5" d="M1.73336 6.69157c0.00342517,0.00596441 0.00665693,0.0114921 0.00938334,0.0161838 0.0313943,0.0539105 0.0667565,0.106424 0.102992,0.157314 0.116449,0.16356 0.249994,0.319508 0.388897,0.465155 0.427254,0.447986 0.940468,0.748184 1.49468,1.03332 0.445341,0.224601 0.416585,0.269852 0.841169,-0.0026765 0.467164,-0.29988 0.933592,-0.65616 1.29075,-1.03065 0.138897,-0.145648 0.272448,-0.301596 0.388897,-0.465155 0.0362294,-0.0508909 0.0715979,-0.103404 0.102992,-0.157314 0.0111302,-0.0191285 0.0306955,-0.0520201 0.0373462,-0.0732138 0.000499114,-0.00227097 0.000923361,-0.00478525 0.00129146,-0.00747423 -1.06576,0.729436 -2.28454,1.33888 -2.28454,1.33888 -0.995982,-0.377118 -1.90383,-0.95201 -2.37385,-1.27437l-6.23892e-006 0z"/>
    <path id="_243973944" class="fil4" d="M6.11069 6.22253c0,0 -0.175626,0.242363 -0.417989,0.410964l0.312614 -0.446089 0.105375 0.0351251z"/>
    <path id="_243990024" class="fil4" d="M5.98424 6.85127c0,0 -0.846516,0.347739 -1.46119,0.484727 0,0 0.65684,-0.0983504 1.02214,-0.214263l0.172113 -0.0878128 0.266951 -0.182651 -6.23892e-006 0z"/>
    <path id="_243963960" class="fil4" d="M2.48227 7.10767c0,0 0.846516,0.347739 1.46119,0.484727 0,0 -0.65684,-0.0983504 -1.02214,-0.214263l-0.172113 -0.0878128 -0.266951 -0.182651 6.23892e-006 0z"/>
    <path id="_243985104" class="fil2" d="M2.13933 7.39075c0,0 0.478126,0.527345 0.618751,0.907033 0,0 0.0281251,-0.161719 -0.00703127,-0.393751 -0.0351563,-0.232032 -0.61172,-0.513282 -0.61172,-0.513282z"/>
    <path id="_243973848" class="fil2" d="M2.76679 7.91556c0,0 0.235338,0.256413 0.291539,0.551465 0,0 0.0386376,-0.238851 0,-0.393402 -0.0386376,-0.154551 -0.291539,-0.158063 -0.291539,-0.158063z"/>
    <path id="_243962688" class="fil2" d="M1.66035 5.94153c0,0 -0.0386376,0.449602 -0.221288,0.730603 0,0 0.122938,-0.0175626 0.214263,-0.165088 0.0913254,-0.147526 0.00702503,-0.565515 0.00702503,-0.565515z"/>
    <path id="_243972696" class="fil4" d="M2.09132 6.91467c0,0 0.391549,0.149017 0.90022,0.17882 0,0 -0.257143,0.0596067 -0.550697,0.0105188l-0.156516 -0.0736318 -0.193007 -0.115707z"/>
   </g>
  </g>
 </g>
</svg>
