<?xml version="1.0" encoding="UTF-8"?>
<!DOCTYPE svg PUBLIC "-//W3C//DTD SVG 1.1//EN" "http://www.w3.org/Graphics/SVG/1.1/DTD/svg11.dtd">
<!-- Creator: CorelDRAW -->
<svg xmlns="http://www.w3.org/2000/svg" xml:space="preserve" width="129.436mm" height="197.989mm" style="shape-rendering:geometricPrecision; text-rendering:geometricPrecision; image-rendering:optimizeQuality; fill-rule:evenodd; clip-rule:evenodd"
viewBox="0 0 11.8714 18.1588"
 xmlns:xlink="http://www.w3.org/1999/xlink">
 <defs>
  <style type="text/css">
   <![CDATA[
    .fil0 {fill:none}
    .fil1 {fill:#501D33}
    .fil3 {fill:#877379}
    .fil2 {fill:#B99995}
   ]]>
  </style>
 </defs>
 <g id="Layer_x0020_1">
  <metadata id="CorelCorpID_0Corel-Layer"/>
  <g id="_169662800">
   <rect id="_170936776" class="fil0" width="11.8714" height="18.1588"/>
   <g id="_162517592">
    <path id="_162384416" class="fil1" d="M8.90759 10.0777l0.228603 0.100723 0.0388969 -0.0847551 -0.203785 -0.124285c0.243544,-0.430801 0.386603,-0.948907 0.386603,-1.55541 0,-0.0228741 0.0054021,-0.347807 0.0131246,-0.798666l-0.26363 0 -0.729833 2.39352 -2.5877 0.677867 -2.51126 -1.38605 -0.473734 -1.68533 -0.248515 0c0.00837371,0.448145 0.0144086,0.774609 0.0144086,0.798666 0,0.262859 0.0266528,0.509283 0.0769501,0.739023l-0.278974 0.087846 0.0173894 0.0916155 0.293245 -0.0510493c0.0110793,0.0420978 0.0233143,0.0833519 0.0359437,0.124303l-0.18867 0.083893 0.0238921 0.0769592 0.198062 -0.0581757c0.218597,0.624561 0.623809,1.10654 1.13081,1.4451l-0.160201 0.237839 0.0611015 0.0525352 0.200529 -0.226136c0.0510127,0.0313762 0.102695,0.0617893 0.155496,0.0903498l-0.0612024 0.183882 0.0729512 0.0342194 0.0827098 -0.169492c0.899692,0.452116 2.02169,0.51872 2.98653,0.199226l0.123248 0.247185 0.0840856 -0.0403369 -0.0855347 -0.249808c0.074437,-0.0275791 0.147608,-0.0579189 0.219743,-0.0902306l0.1188 0.188817 0.0796832 -0.0484446 -0.0877909 -0.191962c0.394812,-0.193696 0.74759,-0.461379 1.02761,-0.80217l0.158192 0.155074 0.0662926 -0.0655864 -0.147031 -0.188395c0.0466561,-0.0619086 0.0912945,-0.12578 0.13297,-0.192348l-9.17164e-006 -9.17164e-006z"/>
    <path id="_162384344" class="fil2" d="M8.98977 7.61525c-0.0282762,0.432819 -0.277635,2.66957 -2.38423,1.38689l-0.640859 -0.0206729 -1.83433e-005 0 -0.64085 0.0206729c-2.1066,1.28269 -2.35592,-0.954071 -2.3842,-1.38689l-0.17594 0c0.0070163,0.416732 0.0118222,0.726972 0.0118222,0.792228 0,0.886723 0.325722,1.67614 1.02813,2.23229 0.605512,0.479447 1.39491,0.705226 2.16073,0.705226 0.765814,-9.17164e-006 1.5552,-0.225797 2.1607,-0.705244 0.702383,-0.556159 1.0281,-1.34558 1.0281,-2.23229 0,-0.0652562 0.00487014,-0.375524 0.0119048,-0.792228l-0.175288 0 -9.17164e-006 9.17164e-006z"/>
    <path id="_162384272" class="fil3" d="M2.9244 8.48835c0.0233785,0.805582 0.335315,1.52082 0.979118,2.03056 0.577529,0.45728 1.33043,0.67263 2.06086,0.67263 0.730411,0 1.4833,-0.215359 2.06084,-0.672648 0.643776,-0.509778 0.955722,-1.22502 0.979082,-2.03063 -0.139565,0.5536 -0.439835,1.04172 -0.917522,1.41998 -0.59479,0.470945 -1.37019,0.692743 -2.12242,0.692743 -0.75224,0 -1.52764,-0.221789 -2.12242,-0.692725 -0.477696,-0.378229 -0.777966,-0.866335 -0.91754,-1.41991z"/>
    <path id="_162384176" class="fil1" d="M3.39178 9.52189c0.0142527,0 0.0258182,0.0115654 0.0258182,0.0258182 0,0.0142527 -0.0115654,0.0258182 -0.0258182,0.0258182 -0.0142527,0 -0.0258182,-0.0115654 -0.0258182,-0.0258182 0,-0.0142527 0.0115654,-0.0258182 0.0258182,-0.0258182zm4.67822 0.222036c0.0142527,0 0.0258182,0.0115654 0.0258182,0.0258182 0,0.0142527 -0.0115654,0.0258182 -0.0258182,0.0258182 -0.0142527,0 -0.0258182,-0.0115654 -0.0258182,-0.0258182 0,-0.0142527 0.0115654,-0.0258182 0.0258182,-0.0258182zm-4.76859 -0.0154909c0.027093,0 0.0490591,0.0219661 0.0490591,0.0490499 0,0.027093 -0.0219661,0.0490591 -0.0490591,0.0490591 -0.0270839,0 -0.0490499,-0.0219661 -0.0490499,-0.0490591 0,-0.0270839 0.0219661,-0.0490499 0.0490499,-0.0490499zm2.04479 0.919127c0.0185359,0 0.0335682,0.0150323 0.0335682,0.033559 0,0.0185359 -0.0150323,0.0335682 -0.0335682,0.0335682 -0.0185267,0 -0.033559,-0.0150323 -0.033559,-0.0335682 0,-0.0185267 0.0150323,-0.033559 0.033559,-0.033559zm2.94584 -0.81069c0.0370626,0 0.0671272,0.0300646 0.0671272,0.0671272 0,0.0370626 -0.0300646,0.0671272 -0.0671272,0.0671272 -0.0370626,0 -0.0671272,-0.0300646 -0.0671272,-0.0671272 0,-0.0370626 0.0300646,-0.0671272 0.0671272,-0.0671272zm0.625304 -1.17772c0.0313945,0 0.056855,0.0254605 0.056855,0.0568458 0,0.0313945 -0.0254605,0.056855 -0.056855,0.056855 -0.0313854,0 -0.0568458,-0.0254605 -0.0568458,-0.056855 0,-0.0313854 0.0254605,-0.0568458 0.0568458,-0.0568458zm-2.27509 0.671694c0.0185359,0 0.0335682,0.0150323 0.0335682,0.033559 0,0.0185359 -0.0150323,0.0335682 -0.0335682,0.0335682 -0.0185267,0 -0.033559,-0.0150323 -0.033559,-0.0335682 0,-0.0185267 0.0150323,-0.033559 0.033559,-0.033559zm-0.557672 1.58006c0.0213883,0 0.0387318,0.0173436 0.0387318,0.0387227 0,0.0213883 -0.0173436,0.0387318 -0.0387318,0.0387318 -0.0213791,0 -0.0387227,-0.0173436 -0.0387227,-0.0387318 0,-0.0213791 0.0173436,-0.0387227 0.0387227,-0.0387227zm1.49745 -0.232363c0.0185359,0 0.0335682,0.0150323 0.0335682,0.033559 0,0.0185359 -0.0150323,0.0335682 -0.0335682,0.0335682 -0.0185267,0 -0.033559,-0.0150323 -0.033559,-0.0335682 0,-0.0185267 0.0150323,-0.033559 0.033559,-0.033559zm-0.482795 -0.129091c0.0285146,0 0.0516363,0.0231217 0.0516363,0.0516363 0,0.0285146 -0.0231217,0.0516363 -0.0516363,0.0516363 -0.0285146,0 -0.0516363,-0.0231217 -0.0516363,-0.0516363 0,-0.0285146 0.0231217,-0.0516363 0.0516363,-0.0516363zm0.627377 -0.418254c0.0299454,0 0.0542227,0.0242773 0.0542227,0.0542136 0,0.0299454 -0.0242773,0.0542227 -0.0542227,0.0542227 -0.0299362,0 -0.0542136,-0.0242773 -0.0542136,-0.0542227 0,-0.0299362 0.0242773,-0.0542136 0.0542136,-0.0542136zm-0.498286 -0.526691c0.031367,0 0.0568,0.025433 0.0568,0.0568 0,0.031367 -0.025433,0.0568 -0.0568,0.0568 -0.031367,0 -0.0568,-0.025433 -0.0568,-0.0568 0,-0.031367 0.025433,-0.0568 0.0568,-0.0568zm1.36836 -0.123927c0.0285146,0 0.0516363,0.0231217 0.0516363,0.0516363 0,0.0285146 -0.0231217,0.0516363 -0.0516363,0.0516363 -0.0285146,0 -0.0516363,-0.0231217 -0.0516363,-0.0516363 0,-0.0285146 0.0231217,-0.0516363 0.0516363,-0.0516363zm-5.63866 -0.413091c0.0171051,0 0.0309818,0.0138767 0.0309818,0.0309818 0,0.0171051 -0.0138767,0.0309818 -0.0309818,0.0309818 -0.0171051,0 -0.0309818,-0.0138767 -0.0309818,-0.0309818 0,-0.0171051 0.0138767,-0.0309818 0.0309818,-0.0309818zm0.0129045 -0.325309c0.0128311,0 0.0232409,0.0104098 0.0232409,0.0232318 0,0.0128311 -0.0104098,0.0232409 -0.0232409,0.0232409 -0.012822,0 -0.0232318,-0.0104098 -0.0232318,-0.0232409 0,-0.012822 0.0104098,-0.0232318 0.0232318,-0.0232318zm2.0293 0.913963c0.0185359,0 0.0335682,0.0150323 0.0335682,0.033559 0,0.0185359 -0.0150323,0.0335682 -0.0335682,0.0335682 -0.0185267,0 -0.033559,-0.0150323 -0.033559,-0.0335682 0,-0.0185267 0.0150323,-0.033559 0.033559,-0.033559zm-0.418254 0.970763c0.0128311,0 0.0232409,0.0104098 0.0232409,0.0232318 0,0.0128311 -0.0104098,0.0232409 -0.0232409,0.0232409 -0.012822,0 -0.0232318,-0.0104098 -0.0232318,-0.0232409 0,-0.012822 0.0104098,-0.0232318 0.0232318,-0.0232318zm-0.464727 -0.304654c0.0185359,0 0.0335682,0.0150323 0.0335682,0.033559 0,0.0185359 -0.0150323,0.0335682 -0.0335682,0.0335682 -0.0185267,0 -0.033559,-0.0150323 -0.033559,-0.0335682 0,-0.0185267 0.0150323,-0.033559 0.033559,-0.033559zm0.0232409 -0.583491c0.0256622,0 0.0464727,0.0208105 0.0464727,0.0464727 0,0.0256622 -0.0208105,0.0464727 -0.0464727,0.0464727 -0.0256622,0 -0.0464727,-0.0208105 -0.0464727,-0.0464727 0,-0.0256622 0.0208105,-0.0464727 0.0464727,-0.0464727zm-0.436332 0.1136c0.0185359,0 0.0335682,0.0150323 0.0335682,0.033559 0,0.0185359 -0.0150323,0.0335682 -0.0335682,0.0335682 -0.0185267,0 -0.033559,-0.0150323 -0.033559,-0.0335682 0,-0.0185267 0.0150323,-0.033559 0.033559,-0.033559z"/>
   </g>
  </g>
 </g>
</svg>
