<?xml version="1.0" encoding="UTF-8"?>
<!DOCTYPE svg PUBLIC "-//W3C//DTD SVG 1.1//EN" "http://www.w3.org/Graphics/SVG/1.1/DTD/svg11.dtd">
<!-- Creator: CorelDRAW -->
<svg xmlns="http://www.w3.org/2000/svg" xml:space="preserve" width="129.436mm" height="197.988mm" style="shape-rendering:geometricPrecision; text-rendering:geometricPrecision; image-rendering:optimizeQuality; fill-rule:evenodd; clip-rule:evenodd"
viewBox="0 0 172.564 263.957"
 xmlns:xlink="http://www.w3.org/1999/xlink">
 <defs>
  <style type="text/css">
   <![CDATA[
    .fil0 {fill:none}
    .fil5 {fill:#4B3446}
    .fil2 {fill:#501D33}
    .fil3 {fill:#634C54}
    .fil4 {fill:#896E6B}
    .fil6 {fill:#D56853}
    .fil1 {fill:#D77D75}
    .fil7 {fill:#F8C578}
   ]]>
  </style>
 </defs>
 <g id="Layer_x0020_1">
  <metadata id="CorelCorpID_0Corel-Layer"/>
  <g id="_223644448">
   <rect id="_233895072" class="fil0" width="172.564" height="263.957"/>
   <g id="_243976656">
    <path id="_122459488" class="fil1" d="M42.0724 123.903c0.339832,11.71 4.87417,22.1067 14.2326,29.5164 8.39502,6.64706 19.3394,9.77741 29.957,9.77741 10.6173,0 21.5616,-3.13048 29.9566,-9.77768 9.35799,-7.41019 13.8925,-17.8071 14.232,-29.5176 -2.02873,8.04719 -6.39349,15.1426 -13.3372,20.6411 -8.64593,6.84571 -19.9171,10.0698 -30.8516,10.0698 -10.9348,0 -22.2062,-3.22394 -30.8518,-10.0695 -6.94383,-5.49798 -11.3086,-12.5931 -13.3375,-20.6399l-0.00013332 0z"/>
    <path id="_122459392" class="fil2" d="M55.1468 163.28c0,0 4.27837,3.22754 6.90544,10.208 0,0 0.600473,-3.07742 0,-6.6052 -0.600473,-3.52778 -6.90544,-3.60284 -6.90544,-3.60284z"/>
    <path id="_122459248" class="fil2" d="M67.4103 170.684c0,0 3.17501,2.71453 5.38932,6.3055 0,0 -0.0831916,-3.43765 -1.17628,-5.89101 -1.09309,-2.45335 -4.21304,-0.414491 -4.21304,-0.414491z"/>
    <path id="_122459080" class="fil2" d="M116.317 163.767c0,0 -3.97813,1.80142 -6.90544,9.30733 0,0 -1.12589,-3.15248 0.375295,-6.30496 1.50118,-3.15248 6.53014,-3.00236 6.53014,-3.00236z"/>
    <path id="_122458984" class="fil2" d="M100.171 173.287c0,0 -4.78472,1.44825 -9.96899,7.43192 0,0 0.0610605,-3.69323 2.58787,-6.45628 2.52668,-2.76319 7.38112,-0.975635 7.38112,-0.975635z"/>
    <path id="_122458888" class="fil2" d="M71.2201 172.612c0,0 4.78472,1.44825 9.96899,7.43192 0,0 -0.0610605,-3.69323 -2.58787,-6.45628 -2.52668,-2.76319 -7.38112,-0.975635 -7.38112,-0.975635z"/>
    <path id="_122458792" class="fil2" d="M82.171 176.088c0,0 3.85868,2.21031 5.02003,4.79525 0,0 2.39762,-3.67136 5.09495,-5.2448 2.69733,-1.57344 -9.55304,-1.6109 -10.115,0.449555z"/>
    <path id="_122458696" class="fil2" d="M47.4253 156.618c0,0 10.5617,12.3166 30.0712,18.5483 7.61057,2.43055 11.1447,2.19445 18.8125,-0.402893 18.7268,-6.34376 28.8471,-18.1454 28.8471,-18.1454l3.85214 -20.9985c-19.4414,-1.0279 -21.7699,-12.0355 -43.5551,-12.0355 -21.7847,0 -22.2989,12.714 -42.0475,12.0355l4.01973 20.9985 -0.00013332 0z"/>
    <path id="_122458600" class="fil3" d="M51.121 155.9c0,0 9.59623,11.3713 27.3222,17.1245 6.9149,2.24391 10.126,2.02593 17.0928,-0.371962 17.0148,-5.85688 26.2098,-16.7526 26.2098,-16.7526l3.50005 -19.3866c-17.6642,-0.948971 -19.7797,-11.1114 -39.5732,-11.1114 -19.7933,0 -20.2606,11.738 -38.2036,11.1114l3.6523 19.3866 -0.00026664 0z"/>
    <path id="_122458480" class="fil4" d="M61.8531 164.973c4.30543,2.87358 9.86154,5.86701 16.5899,8.05079 6.91504,2.24431 10.1259,2.02593 17.0928,-0.372096 8.33756,-2.86998 14.796,-6.94943 19.2163,-10.3644l0.139053 -0.247175c0,0 -19.6653,10.133 -29.4981,9.23227 -9.83274,-0.900709 -22.9681,-6.68026 -22.9681,-6.68026 -0.207579,0.119321 -0.394627,0.247842 -0.571809,0.380895l-0.00013332 0z"/>
    <path id="_122458456" class="fil5" d="M51.121 155.899c0,0 4.55194,5.39346 13.1764,10.6308 13.6176,-8.2953 5.54131,-24.8152 8.99869,-39.3659 -0.0110655,-0.0102656 -24.5851,9.39239 -25.8274,9.34906l3.6523 19.3862 0 -0.00013332zm57.3706 10.6769c8.67392,-5.25187 13.2539,-10.6769 13.2539,-10.6769l3.50018 -19.3862c-13.2544,-0.712461 -16.0285,-6.31136 -25.8109,-9.21254 1.64023,13.8383 -5.84021,30.2759 9.05695,39.2755l-0.00013332 0.00013332z"/>
    <g>
     <g>
      <path id="_117964944" class="fil2" d="M32.3395 164.616c0,0 -9.56943,4.34929 -14.1799,17.4513l30.2741 13.6493c0,0 11.7524,-3.81761 4.17158,-25.2666l-7.74882 -4.21344 -12.517 -1.62037 0 -0.00013332z"/>
      <path id="_122466040" class="fil3" d="M33.9906 165.885c0,0 -9.27493,4.47075 -13.3523,16.0576l26.2442 12.6345c0,0 10.5195,-4.73619 3.32673,-24.2226l-5.9294 -3.43312 -10.2894 -1.0363 0.00013332 0z"/>
      <path id="_122465944" class="fil4" d="M32.4202 166.802c-2.82318,1.82688 -8.74445,6.50881 -11.7817,15.1406l1.6437 0.791387c0.793253,-0.921107 1.51025,-2.07472 2.10512,-3.50991 3.04316,-7.34179 6.43615,-10.994 8.03292,-12.4221z"/>
      <polygon id="_122472304" class="fil4" points="34.9731,173.488 33.1012,179.338 30.669,178.784 "/>
      <path id="_122472208" class="fil4" d="M21.6283 179.476c-0.354631,0.783654 -0.686997,1.60504 -0.990033,2.46628l24.5901 11.8383c0.970702,0.0115988 1.9642,0.0214645 2.84465,0.0294637 0.772455,-0.602473 1.79715,-1.59957 2.68853,-3.12875 -2.29124,-9.52597 -20.4541,-15.0558 -29.1332,-11.2053z"/>
      <path id="_122472112" class="fil5" d="M33.9906 165.885c0,0 -1.46919,0.708595 -3.49458,2.29124 3.50778,-0.0245309 15.5408,0.480751 21.5101,8.2241 -0.401026,-1.83768 -0.985101,-3.84681 -1.79689,-6.04592l-5.9294 -3.43312 -10.2894 -1.0363 0.00013332 0z"/>
      <path id="_122472016" class="fil2" d="M48.3449 169.779c0,0 0.656867,5.40852 -0.516081,11.9544 0,0 2.26924,-4.36929 2.41856,-11.0677l-0.116522 -0.568876 -1.78595 -0.317835z"/>
      <path id="_122471920" class="fil2" d="M37.5123 181.791c6.08312,2.27297 11.4964,5.90994 13.1332,9.02122 0.690997,1.31373 -0.0293304,2.57014 -0.462487,3.53191 -0.793387,1.76089 -3.76975,2.38549 -7.71042,2.06992l-1.29174 -1.34266 0.111455 1.22361c-3.05569,-0.369029 -6.5768,-1.24494 -10.067,-2.54921 -8.65233,-3.23314 -14.4853,-8.48248 -13.0259,-11.7224 0.364896,-0.809785 1.15188,-1.76649 2.35496,-2.19258 3.6091,-1.27854 10.4691,-0.464353 16.9579,1.9602z"/>
      <path id="_122471824" class="fil5" d="M37.8015 181.768c7.42058,2.77279 11.9463,8.79471 10.6944,11.5735 -1.25201,2.77879 -8.99029,1.70089 -16.4111,-1.07203 -7.42072,-2.77305 -13.1436,-7.00676 -11.8917,-9.78541 1.25187,-2.77879 10.188,-3.48885 17.6085,-0.716061z"/>
      <path id="_122471728" class="fil3" d="M45.5538 194.89c-3.19781,0.372096 -8.40675,-0.729793 -13.4689,-2.62147 -7.42072,-2.77292 -13.1436,-7.00676 -11.8917,-9.78541 0.677798,-1.50438 3.60857,-2.40189 7.33126,-2.46922 -3.01383,0.248375 -5.2872,1.09589 -5.87367,2.39776 -1.25187,2.77865 4.47102,7.01236 11.8916,9.78541 4.35263,1.6265 8.81338,2.66906 12.0115,2.69293z"/>
      <path id="_122471632" class="fil2" d="M37.928 115.525c0,0 0.467286,6.40922 -7.38992,16.1382 0,0 3.17541,-0.765123 6.77278,-3.9884 3.5975,-3.22327 0.617138,-12.1498 0.617138,-12.1498z"/>
      <path id="_122471536" class="fil2" d="M37.7493 115.145c-0.192914,3.16181 -0.6566,7.16341 -2.44335,11.9692 -5.03043,13.5289 -9.44305,19.0314 2.81505,30.3571 0,0 14.4932,4.84604 16.0019,4.9075 3.95347,0.16105 7.02582,-1.16108 9.38372,-3.2962 10.6603,-9.65289 -0.885111,-26.9897 10.5099,-33.3253 0,0 -5.9426,-1.55504 -15.5384,4.94163 0,0 -0.154518,-2.36429 1.38066,-5.01256 0,0 -4.04106,0.474485 -7.15474,4.14798 0,0 -0.0910575,-2.35016 -2.56481,-6.5804 0,0 -1.59544,2.85425 -4.99163,4.71352 0,0 0.139853,-13.5994 -7.19581,-21.4996 0.0381295,2.90571 -0.0249308,5.76622 -0.20238,8.67712z"/>
      <path id="_122471440" class="fil3" d="M40.1465 113.916c0,0 1.14082,6.45482 -6.14965,22.9266 0,0 -5.84541,9.49491 6.69132,20.6608l10.2052 2.88598c4.77405,1.35 8.71872,-0.205979 11.6023,-3.19541 8.24677,-8.54914 3.10969,-20.5897 8.8983,-29.9723 0,0 -4.03066,-0.616738 -13.0256,5.13002l-0.977235 0.487284c0,0 -1.04616,-2.51695 -0.404226,-4.0016 -2.54948,1.26187 -4.34529,3.07836 -5.94473,4.88751 0,0 1.12309,-4.14398 -1.27467,-7.70989 0,0 -1.52958,2.17018 -7.2974,4.85244 0,0 0.977635,-0.994166 1.19508,-1.61304 0.217445,-0.619004 -0.962836,-11.1198 -3.51871,-15.3386l0 0.00013332z"/>
      <path id="_122471344" class="fil5" d="M54.7558 138.681c-1.82782,4.80458 -3.9992,8.76698 -7.23194,11.4404 -2.59547,2.14618 -5.79022,3.52964 -10.6809,3.3398 1.03256,1.31187 2.29843,2.66413 3.84508,4.04173l10.2052 2.88598c4.77405,1.35 7.44285,-2.08246 10.3263,-5.07175 8.24663,-8.549 4.38569,-18.7134 10.1743,-28.096 -7.32073,3.16901 -10.1995,5.42412 -13.1269,13.5402 -1.41652,3.9272 -3.54298,6.75972 -6.14205,8.74085 1.04696,-2.6184 2.09925,-6.20777 2.63093,-10.8212l0 -0.00013332z"/>
      <path id="_122471248" class="fil4" d="M40.2065 114.724c0.0579941,2.18445 -0.381428,8.95043 -6.20977,22.1186 0,0 -5.05376,8.21437 4.32716,18.3472 -5.67369,-10.0171 -4.48915,-14.0503 -0.29797,-23.8937 3.15661,-7.41378 2.66466,-13.7362 2.18058,-16.5722l0 0.00013332z"/>
      <path id="_122471152" class="fil2" d="M37.8607 137.4c-0.0745258,0.486484 -2.93384,8.05185 1.09269,18.7l2.50441 0.0455954c0,0 -4.32823,-7.28886 -3.5971,-18.7456z"/>
      <path id="_122471056" class="fil2" d="M64.9528 150.028c0,0 -4.28237,6.33696 -13.2432,9.37185l1.40706 1.92567c0,0 7.13715,-1.77462 11.8361,-11.2975z"/>
      <path id="_122470960" class="fil2" d="M59.3197 143.03c0,0 -2.90531,8.13851 -10.4305,14.9602l2.81878 0.947371c0,0 6.42548,-8.11331 7.61176,-15.9076z"/>
      <path id="_122470864" class="fil2" d="M51.8466 129.326c0,0 -0.168916,-2.83038 3.60604,-5.58384 0,0 -1.2876,1.88794 -1.57624,6.16018l-1.56771 0.617538 -0.462087 -1.19388z"/>
      <path id="_122470768" class="fil2" d="M43.6401 128.816c0,0 2.594,-2.33123 3.05423,-9.13974 0,0 0.851114,4.99896 -0.0106656,8.18931l-1.56158 0.89511 -1.48198 0.0553277z"/>
      <g>
       <path id="_122470480" class="fil2" d="M35.1123 156.753l-2.58427 7.13355 19.8596 6.43682 3.16061 -7.01009c0,0 -2.73999,-2.3399 -6.57227,-3.80855 -5.25187,-2.01286 -12.7783,-3.52738 -13.8637,-2.75172z"/>
       <path id="_122470384" class="fil6" d="M36.7315 157.157l-2.52441 6.78372 17.0135 5.41719 2.89917 -6.66893c0,0 -2.09592,-1.98113 -5.45278,-3.28967 -4.60007,-1.79329 -10.9562,-2.9953 -11.9355,-2.24231z"/>
       <path id="_122470288" class="fil2" d="M35.5885 154.345c2.21658,-0.337033 10.0186,-0.919107 19.5431,4.9807 1.21348,0.751524 2.89291,2.92957 1.38359,4.47475 -0.697396,0.713928 -1.25334,0.651668 -1.86821,0.213978 -2.03113,-1.44559 -8.73192,-5.63983 -18.5743,-6.02286 -1.20948,-0.0470619 -2.28617,-0.3301 -2.15032,-1.63757 0.109056,-1.05083 0.715261,-1.86461 1.66597,-2.009l0.00013332 0z"/>
       <path id="_122470192" class="fil7" d="M54.8074 160.873c-2.31617,-1.40666 -4.6002,-2.74799 -7.35179,-3.72029 -3.21794,-1.13735 -6.95423,-1.78569 -10.2859,-1.6701 -0.933372,0.0323967 -1.79742,0.175849 -1.80315,0.818717 -0.00253308,0.286238 0.354764,0.537812 1.18868,0.592474 4.71459,0.309169 9.36545,1.45692 13.6214,3.34393 1.3524,0.599806 2.67786,1.27787 3.92974,2.03713 1.71209,1.03856 1.99527,-0.616071 0.700996,-1.40186z"/>
       <path id="_122470096" class="fil6" d="M36.1955 155.943c-0.0633269,0.0779921 -0.0971902,0.172916 -0.0934572,0.288238 0.00813251,0.239976 0.347698,0.461553 1.12149,0.53248 4.37436,0.40076 8.71979,1.50251 12.726,3.21274 1.2732,0.543412 2.52441,1.15215 3.71029,1.82635 0.897509,0.510348 1.36,0.315568 1.38666,-0.0779921 -0.150251,-0.0538612 -0.317035,-0.130387 -0.501149,-0.235043 -1.286,-0.731126 -2.6428,-1.39119 -4.02359,-1.9806 -4.34409,-1.85448 -9.05642,-3.04929 -13.7999,-3.48378 -0.202513,-0.0185315 -0.377162,-0.046662 -0.526347,-0.0823917z"/>
       <path id="_122470000" class="fil2" d="M32.7746 162.698c2.19045,-0.318635 9.86834,-0.814184 19.321,4.98616 3.15328,1.93474 1.94234,6.08685 -1.45599,3.96613 -2.82638,-1.76422 -9.2216,-4.94643 -17.5884,-5.30653 -2.60174,-0.112255 -2.84318,-3.27234 -0.276639,-3.64577z"/>
       <path id="_122469904" class="fil7" d="M51.9276 169.043c-4.02799,-2.44642 -8.58367,-4.30903 -13.3793,-4.99243 -1.41732,-0.20198 -2.87864,-0.304503 -4.3109,-0.254908 -0.933506,0.0323967 -1.74516,0.0326634 -1.75062,0.675665 -0.0026664,0.286371 0.354631,0.537812 1.18868,0.592607 4.71459,0.309035 9.36545,1.45692 13.6213,3.3438 1.3524,0.599806 2.678,1.278 3.92974,2.03713 1.71209,1.03856 1.99553,-0.616071 0.701129,-1.40186z"/>
       <path id="_122469808" class="fil6" d="M32.9233 164.208c-0.0142652,0.0483951 -0.0222644,0.10199 -0.0227977,0.16105 -0.00226644,0.274239 0.339832,0.515015 1.13829,0.567543 4.51434,0.296103 8.96736,1.39493 13.0427,3.20194 1.2948,0.574075 2.56427,1.22348 3.76269,1.95047 0.971502,0.589274 1.46212,0.272506 1.44319,-0.239576 -4.35396,-2.6324 -9.27133,-4.63487 -14.4469,-5.37199 -1.53878,-0.219578 -3.12555,-0.330767 -4.68086,-0.277172l-0.236243 0.00773255z"/>
       <g>
        <rect id="_122469520" class="fil2" transform="matrix(1.167 -0.51846 0.58892 1.05665 41.1009 160.792)" width="3.6779" height="3.6779"/>
        <rect id="_122469424" class="fil7" transform="matrix(0.706794 -0.314005 0.356679 0.639962 42.3744 161.183)" width="3.6779" height="3.6779"/>
       </g>
       <g>
        <path id="_122469232" class="fil2" d="M49.75 164.096l4.13892 -1.61144c0.151451,0.12972 0.23091,0.204246 0.23091,0.204246l-2.44682 5.6273 -0.337833 0.131587 -1.58517 -4.35169z"/>
        <polygon id="_122469136" class="fil7" points="50.9766,164.599 53.7608,163.514 52.0879,167.361 "/>
       </g>
       <g>
        <polygon id="_122468944" class="fil2" points="38.5894,161.117 36.9488,157.077 36.3323,157.134 34.2159,163.494 "/>
        <polygon id="_122468848" class="fil7" points="37.4839,160.697 36.3301,158.228 36.2642,158.412 34.9006,162.104 "/>
       </g>
       <polygon id="_122469040" class="fil6" points="42.6857,161.343 43.7557,163.263 45.8876,162.289 "/>
      </g>
      <polygon id="_122470576" class="fil2" points="35.0105,173.422 29.0887,179.806 31.0889,185.598 31.1399,180.112 "/>
      <path id="_122468752" class="fil2" d="M41.3169 183.429c4.43382,2.17565 8.04425,4.94083 9.32866,7.38232 0.690997,1.31373 -0.0293304,2.57014 -0.462487,3.53191 -0.793387,1.76089 -3.76949,2.38549 -7.71042,2.06992l-1.29174 -1.34266 0.111855 1.22361c-3.05569,-0.369029 -6.5772,-1.24494 -10.0674,-2.54921 -8.65233,-3.23314 -14.4853,-8.48248 -13.0259,-11.7224 0.364896,-0.809785 1.15188,-1.76649 2.35496,-2.19258 3.02023,-1.06989 8.31716,-0.673799 13.7679,0.904575 -6.49574,-1.47372 -13.0689,-0.605006 -14.1294,1.74862 -1.25187,2.77865 4.47102,7.01249 11.8917,9.78541 7.42072,2.77305 15.1593,3.85068 16.4111,1.07216 1.03923,-2.30697 -1.90407,-6.84904 -7.17901,-9.91167z"/>
      <path id="_122468656" class="fil5" d="M33.8906 167.008c0,0 -3.05982,2.78599 -5.49318,9.02202 0,0 3.39406,-5.40452 7.36379,-8.573l-0.644602 -0.610472 -1.22601 0.16145z"/>
      <polygon id="_122468560" class="fil2" points="33.7565,180.599 36.3519,176.586 35.5124,181.02 33.4132,184.637 "/>
      <polygon id="_122468464" class="fil2" points="40.2427,195.571 39.0877,189.937 43.2444,195.694 41.7201,195.631 41.1809,195.071 41.2302,195.612 "/>
      <path id="_122468368" class="fil5" d="M45.5439 170.457c0,0 0.056261,3.34286 -0.22691,7.17541 0,0 0.92724,-2.71519 1.55158,-6.49694l-0.975502 -1.0335 -0.349165 0.355031z"/>
      <path id="_122468272" class="fil4" d="M48.506 128.683c-0.275039,0.352098 -7.72509,7.42058 -8.06012,17.2545 -1.29587,-7.10262 0.00599939,-14.1892 8.06012,-17.2545z"/>
      <path id="_122468176" class="fil3" d="M71.1042 127.371c0,0 -5.39839,2.22831 -8.51967,13.0114 0,0 -0.3281,-5.11268 1.91474,-10.3594l1.86488 -1.17281 4.74005 -1.47918z"/>
     </g>
     <g>
      <path id="_122467984" class="fil2" d="M140.225 164.616c0,0 9.56943,4.34929 14.1799,17.4513l-30.2741 13.6493c0,0 -11.7524,-3.81761 -4.17158,-25.2666l7.74882 -4.21344 12.517 -1.62037 0 -0.00013332z"/>
      <path id="_122467888" class="fil3" d="M138.574 165.885c0,0 9.27493,4.47075 13.3523,16.0576l-26.2442 12.6345c0,0 -10.5195,-4.73619 -3.32673,-24.2226l5.9294 -3.43312 10.2894 -1.0363 -0.00013332 0z"/>
      <path id="_122467792" class="fil4" d="M140.144 166.802c2.82318,1.82688 8.74445,6.50881 11.7817,15.1406l-1.6437 0.791387c-0.793253,-0.921107 -1.51025,-2.07472 -2.10512,-3.50991 -3.04316,-7.34179 -6.43615,-10.994 -8.03292,-12.4221z"/>
      <polygon id="_122467696" class="fil4" points="137.591,173.488 139.463,179.338 141.895,178.784 "/>
      <path id="_122467600" class="fil4" d="M150.936 179.477c0.354631,0.783654 0.686997,1.60504 0.990033,2.46628l-24.5901 11.8383c-0.970702,0.0115988 -1.9642,0.0214645 -2.84465,0.0294637 -0.772455,-0.602473 -1.79715,-1.59957 -2.68853,-3.12875 2.29124,-9.52597 20.4541,-15.0558 29.1332,-11.2053z"/>
      <path id="_122467504" class="fil5" d="M138.574 165.885c0,0 1.46919,0.708595 3.49458,2.29124 -3.50778,-0.0245309 -15.5408,0.480751 -21.5101,8.2241 0.401026,-1.83768 0.985101,-3.84681 1.79689,-6.04592l5.9294 -3.43312 10.2894 -1.0363 -0.00013332 0z"/>
      <path id="_122467408" class="fil2" d="M124.219 169.78c0,0 -0.656867,5.40852 0.516081,11.9544 0,0 -2.26924,-4.36929 -2.41856,-11.0677l0.116522 -0.568876 1.78595 -0.317835z"/>
      <path id="_122467312" class="fil2" d="M135.052 181.791c-6.08312,2.27297 -11.4964,5.90994 -13.1332,9.02122 -0.690997,1.31373 0.0293304,2.57014 0.462487,3.53191 0.793387,1.76089 3.76975,2.38549 7.71042,2.06992l1.29174 -1.34266 -0.111455 1.22361c3.05569,-0.369029 6.5768,-1.24494 10.067,-2.54921 8.65233,-3.23314 14.4853,-8.48248 13.0259,-11.7224 -0.364896,-0.809785 -1.15188,-1.76649 -2.35496,-2.19258 -3.6091,-1.27854 -10.4691,-0.464353 -16.9579,1.9602z"/>
      <path id="_122467216" class="fil5" d="M134.763 181.768c-7.42058,2.77279 -11.9463,8.79471 -10.6944,11.5735 1.25201,2.77879 8.99029,1.70089 16.4111,-1.07203 7.42072,-2.77305 13.1436,-7.00676 11.8917,-9.78541 -1.25187,-2.77879 -10.188,-3.48885 -17.6085,-0.716061z"/>
      <path id="_122467120" class="fil3" d="M127.011 194.89c3.19781,0.372096 8.40675,-0.729793 13.4689,-2.62147 7.42072,-2.77292 13.1436,-7.00676 11.8917,-9.78541 -0.677798,-1.50438 -3.60857,-2.40189 -7.33126,-2.46922 3.01383,0.248375 5.2872,1.09589 5.87367,2.39776 1.25187,2.77865 -4.47102,7.01236 -11.8916,9.78541 -4.35263,1.6265 -8.81338,2.66906 -12.0115,2.69293z"/>
      <path id="_122467024" class="fil2" d="M134.636 115.525c0,0 -0.467286,6.40922 7.38992,16.1382 0,0 -3.17541,-0.765123 -6.77278,-3.9884 -3.5975,-3.22327 -0.617138,-12.1498 -0.617138,-12.1498z"/>
      <path id="_122466928" class="fil2" d="M134.815 115.145c0.192914,3.16181 0.6566,7.16341 2.44335,11.9692 5.03043,13.5289 9.44305,19.0314 -2.81505,30.3571 0,0 -14.4932,4.84604 -16.0019,4.9075 -3.95347,0.16105 -6.98396,-1.19921 -9.38372,-3.2962 -10.9606,-9.57783 2.011,-23.0117 -10.5099,-33.3253 0,0 5.9426,-1.55504 15.5384,4.94163 0,0 0.154518,-2.36429 -1.38066,-5.01256 0,0 4.04106,0.474485 7.15474,4.14798 0,0 0.0910575,-2.35016 2.56481,-6.5804 0,0 1.59544,2.85425 4.99163,4.71352 0,0 -0.139853,-13.5994 7.19581,-21.4996 -0.0381295,2.90571 0.0249308,5.76622 0.20238,8.67712z"/>
      <path id="_122466832" class="fil3" d="M132.418 113.916c0,0 -1.14082,6.45482 6.14965,22.9266 0,0 5.84541,9.49491 -6.69132,20.6608l-10.2052 2.88598c-4.77405,1.35 -8.71872,-0.205979 -11.6023,-3.19541 -8.24677,-8.54914 -3.10969,-20.5897 -8.8983,-29.9723 0,0 4.03066,-0.616738 13.0256,5.13002l0.977235 0.487284c0,0 1.04616,-2.51695 0.404226,-4.0016 2.54948,1.26187 4.34529,3.07836 5.94473,4.88751 0,0 -1.12309,-4.14398 1.27467,-7.70989 0,0 1.52958,2.17018 7.2974,4.85244 0,0 -0.977635,-0.994166 -1.19508,-1.61304 -0.217445,-0.619004 0.962836,-11.1198 3.51871,-15.3386l0 0.00013332z"/>
      <path id="_122466736" class="fil5" d="M117.809 138.681c1.82782,4.80458 3.9992,8.76698 7.23194,11.4404 2.59547,2.14618 5.79022,3.52964 10.6809,3.3398 -1.03256,1.31187 -2.29843,2.66413 -3.84508,4.04173l-10.2052 2.88598c-4.77405,1.35 -7.74322,-2.45802 -10.6267,-5.44732 -8.24663,-8.54887 -2.3591,-16.0862 -9.87394,-27.7205 7.32073,3.16901 10.1995,5.42412 13.1269,13.5402 1.41652,3.9272 3.54298,6.75972 6.14205,8.74085 -1.04696,-2.6184 -2.09925,-6.20777 -2.63093,-10.8212z"/>
      <path id="_122466640" class="fil4" d="M132.358 114.724c-0.0579941,2.18445 0.381428,8.95043 6.20977,22.1186 0,0 5.05376,8.21437 -4.32716,18.3472 5.67369,-10.0171 4.48915,-14.0503 0.29797,-23.8937 -3.15661,-7.41378 -2.66466,-13.7362 -2.18058,-16.5722l0 0.00013332z"/>
      <path id="_122466544" class="fil2" d="M134.703 137.401c0.0745258,0.486484 2.93384,8.05185 -1.09269,18.7l-2.50441 0.0455954c0,0 4.32823,-7.28886 3.5971,-18.7456z"/>
      <path id="_122473912" class="fil2" d="M107.612 150.029c0,0 4.28237,6.33696 13.2432,9.37185l-1.40706 1.92567c0,0 -7.13715,-1.77462 -11.8361,-11.2975z"/>
      <path id="_122473816" class="fil2" d="M113.244 143.031c0,0 2.90531,8.13851 10.4305,14.9602l-2.81878 0.947371c0,0 -6.42548,-8.11331 -7.61176,-15.9076z"/>
      <path id="_122473744" class="fil2" d="M120.718 129.326c0,0 0.168916,-2.83038 -3.60604,-5.58384 0,0 1.2876,1.88794 1.57624,6.16018l1.56771 0.617538 0.462087 -1.19388z"/>
      <path id="_122473648" class="fil2" d="M128.924 128.816c0,0 -2.594,-2.33123 -3.05423,-9.13974 0,0 -0.851114,4.99896 0.0106656,8.18931l1.56158 0.89511 1.48198 0.0553277z"/>
      <g>
       <path id="_122473360" class="fil2" d="M137.452 156.754l2.58427 7.13355 -19.8596 6.43682 -3.16061 -7.01009c0,0 2.73999,-2.3399 6.57227,-3.80855 5.25187,-2.01286 12.7783,-3.52738 13.8637,-2.75172z"/>
       <path id="_122473264" class="fil6" d="M135.833 157.157l2.52441 6.78372 -17.0135 5.41719 -2.89917 -6.66893c0,0 2.09592,-1.98113 5.45278,-3.28967 4.60007,-1.79329 10.9562,-2.9953 11.9355,-2.24231z"/>
       <path id="_122473168" class="fil2" d="M136.976 154.346c-2.21658,-0.337033 -10.0186,-0.919107 -19.5431,4.9807 -1.21348,0.751524 -2.89291,2.92957 -1.38359,4.47475 0.697396,0.713928 1.25334,0.651668 1.86821,0.213978 2.03113,-1.44559 8.73192,-5.63983 18.5743,-6.02286 1.20948,-0.0470619 2.28617,-0.3301 2.15032,-1.63757 -0.109056,-1.05083 -0.715261,-1.86461 -1.66597,-2.009l-0.00013332 0z"/>
       <path id="_122473048" class="fil7" d="M117.757 160.873c2.31617,-1.40666 4.6002,-2.74799 7.35179,-3.72029 3.21794,-1.13735 6.95423,-1.78569 10.2859,-1.6701 0.933372,0.0323967 1.79742,0.175849 1.80315,0.818717 0.00253308,0.286238 -0.354764,0.537812 -1.18868,0.592474 -4.71459,0.309169 -9.36545,1.45692 -13.6214,3.34393 -1.3524,0.599806 -2.67786,1.27787 -3.92974,2.03713 -1.71209,1.03856 -1.99527,-0.616071 -0.700996,-1.40186z"/>
       <path id="_122472952" class="fil6" d="M136.369 155.943c0.0633269,0.0779921 0.0971902,0.172916 0.0934572,0.288238 -0.00813251,0.239976 -0.347698,0.461553 -1.12149,0.53248 -4.37436,0.40076 -8.71979,1.50251 -12.726,3.21274 -1.2732,0.543412 -2.52441,1.15215 -3.71029,1.82635 -0.897509,0.510348 -1.36,0.315568 -1.38666,-0.0779921 0.150251,-0.0538612 0.317035,-0.130387 0.501149,-0.235043 1.286,-0.731126 2.6428,-1.39119 4.02359,-1.9806 4.34409,-1.85448 9.05642,-3.04929 13.7999,-3.48378 0.202513,-0.0185315 0.377162,-0.046662 0.526347,-0.0823917z"/>
       <path id="_122472856" class="fil2" d="M139.789 162.698c-2.19045,-0.318635 -9.86834,-0.814184 -19.321,4.98616 -3.15328,1.93474 -1.94234,6.08685 1.45599,3.96613 2.82638,-1.76422 9.2216,-4.94643 17.5884,-5.30653 2.60174,-0.112255 2.84318,-3.27234 0.276639,-3.64577z"/>
       <path id="_122472760" class="fil7" d="M120.636 169.043c4.02799,-2.44642 8.58367,-4.30903 13.3793,-4.99243 1.41732,-0.20198 2.87864,-0.304503 4.3109,-0.254908 0.933506,0.0323967 1.74516,0.0326634 1.75062,0.675665 0.0026664,0.286371 -0.354631,0.537812 -1.18868,0.592607 -4.71459,0.309035 -9.36545,1.45692 -13.6213,3.3438 -1.3524,0.599806 -2.678,1.278 -3.92974,2.03713 -1.71209,1.03856 -1.99553,-0.616071 -0.701129,-1.40186z"/>
       <path id="_122472664" class="fil6" d="M139.641 164.208c0.0142652,0.0483951 0.0222644,0.10199 0.0227977,0.16105 0.00226644,0.274239 -0.339832,0.515015 -1.13829,0.567543 -4.51434,0.296103 -8.96736,1.39493 -13.0427,3.20194 -1.2948,0.574075 -2.56427,1.22348 -3.76269,1.95047 -0.971502,0.589274 -1.46212,0.272506 -1.44319,-0.239576 4.35396,-2.6324 9.27133,-4.63487 14.4469,-5.37199 1.53878,-0.219578 3.12555,-0.330767 4.68086,-0.277172l0.236243 0.00773255z"/>
       <g>
        <rect id="_243990192" class="fil2" transform="matrix(-1.167 -0.51846 -0.58892 1.05665 131.463 160.793)" width="3.6779" height="3.6779"/>
        <rect id="_243968088" class="fil7" transform="matrix(-0.706794 -0.314005 -0.356679 0.639962 130.19 161.183)" width="3.6779" height="3.6779"/>
       </g>
       <g>
        <path id="_243970584" class="fil2" d="M122.814 164.096l-4.13892 -1.61144c-0.151451,0.12972 -0.23091,0.204246 -0.23091,0.204246l2.44682 5.6273 0.337833 0.131587 1.58517 -4.35169z"/>
        <polygon id="_243972192" class="fil7" points="121.587,164.599 118.803,163.514 120.476,167.361 "/>
       </g>
       <g>
        <polygon id="_243978600" class="fil2" points="133.975,161.118 135.616,157.078 136.232,157.135 138.348,163.494 "/>
        <polygon id="_243989640" class="fil7" points="135.08,160.697 136.234,158.228 136.3,158.413 137.664,162.104 "/>
       </g>
       <polygon id="_243964488" class="fil6" points="129.878,161.344 128.808,163.264 126.677,162.29 "/>
      </g>
      <polygon id="_122473456" class="fil2" points="137.554,173.422 143.476,179.806 141.475,185.598 141.424,180.112 "/>
      <path id="_243978960" class="fil2" d="M131.247 183.43c-4.43382,2.17565 -8.04425,4.94083 -9.32866,7.38232 -0.690997,1.31373 0.0293304,2.57014 0.462487,3.53191 0.793387,1.76089 3.76949,2.38549 7.71042,2.06992l1.29174 -1.34266 -0.111855 1.22361c3.05569,-0.369029 6.5772,-1.24494 10.0674,-2.54921 8.65233,-3.23314 14.4853,-8.48248 13.0259,-11.7224 -0.364896,-0.809785 -1.15188,-1.76649 -2.35496,-2.19258 -3.02023,-1.06989 -8.31716,-0.673799 -13.7679,0.904575 6.49574,-1.47372 13.0689,-0.605006 14.1294,1.74862 1.25187,2.77865 -4.47102,7.01249 -11.8917,9.78541 -7.42072,2.77305 -15.1593,3.85068 -16.4111,1.07216 -1.03923,-2.30697 1.90407,-6.84904 7.17901,-9.91167z"/>
      <path id="_243964992" class="fil5" d="M138.673 167.008c0,0 3.05982,2.78599 5.49318,9.02202 0,0 -3.39406,-5.40452 -7.36379,-8.573l0.644602 -0.610472 1.22601 0.16145z"/>
      <polygon id="_243967752" class="fil2" points="138.808,180.599 136.212,176.586 137.052,181.02 139.151,184.637 "/>
      <polygon id="_243986472" class="fil2" points="132.321,195.571 133.477,189.938 129.32,195.694 130.844,195.631 131.383,195.071 131.334,195.612 "/>
      <path id="_243971136" class="fil5" d="M127.02 170.457c0,0 -0.056261,3.34286 0.22691,7.17541 0,0 -0.92724,-2.71519 -1.55158,-6.49694l0.975502 -1.0335 0.349165 0.355031z"/>
      <path id="_243967440" class="fil4" d="M124.058 128.683c0.275039,0.352098 7.72509,7.42058 8.06012,17.2545 1.29587,-7.10262 -0.00599939,-14.1892 -8.06012,-17.2545z"/>
      <path id="_243969648" class="fil3" d="M101.46 127.371c0,0 5.39839,2.22831 8.51967,13.0114 0,0 0.3281,-5.11268 -1.91474,-10.3594l-1.86488 -1.17281 -4.74005 -1.47918z"/>
     </g>
    </g>
    <path id="_122466424" class="fil4" d="M99.9659 160.506c0,0 1.34693,5.23787 4.93857,7.48271l-2.34456 1.29694c0,0 -2.04526,-0.69833 -2.594,-8.77965z"/>
    <path id="_122468080" class="fil4" d="M73.3557 155.961c0,0 -2.0266,7.8812 -7.43085,11.2589l3.52778 1.95154c0,0 3.07742,-1.05083 3.90307,-13.2104z"/>
    <path id="_243967608" class="fil4" d="M78.8159 173.129c0,0 5.73182,1.49852 8.16691,3.55897 0,0 1.38613,-1.79822 7.90467,-3.82121l-4.9451 -0.487018 -11.1265 0.749258z"/>
   </g>
  </g>
 </g>
</svg>
