<?xml version="1.0" encoding="UTF-8"?>
<!DOCTYPE svg PUBLIC "-//W3C//DTD SVG 1.1//EN" "http://www.w3.org/Graphics/SVG/1.1/DTD/svg11.dtd">
<!-- Creator: CorelDRAW -->
<svg xmlns="http://www.w3.org/2000/svg" xml:space="preserve" width="129.436mm" height="197.988mm" style="shape-rendering:geometricPrecision; text-rendering:geometricPrecision; image-rendering:optimizeQuality; fill-rule:evenodd; clip-rule:evenodd"
viewBox="0 0 36.6884 56.1193"
 xmlns:xlink="http://www.w3.org/1999/xlink">
 <defs>
  <style type="text/css">
   <![CDATA[
    .fil0 {fill:none}
    .fil6 {fill:#4B3446}
    .fil3 {fill:#501D33}
    .fil4 {fill:#634C54}
    .fil5 {fill:#896E6B}
    .fil1 {fill:#D77D75}
    .fil2 {fill:white}
   ]]>
  </style>
 </defs>
 <g id="Layer_x0020_1">
  <metadata id="CorelCorpID_0Corel-Layer"/>
  <g id="_224430592">
   <rect id="_233912184" class="fil0" y="2.83448e-005" width="36.6884" height="56.1193"/>
   <g id="_243975960">
    <path id="_122463880" class="fil1" d="M19.2043 31.7907c0,0 1.19474,1.14695 3.41694,0.692947 0,0 -1.42572,0.780561 -3.3373,0.0716842 -1.91158,-0.708877 -0.0796491,-0.764631 -0.0796491,-0.764631z"/>
    <path id="_122463784" class="fil1" d="M17.517 31.7907c0,0 -1.19474,1.14695 -3.41694,0.692947 0,0 1.42572,0.780561 3.3373,0.0716842 1.91158,-0.708877 0.0796491,-0.764631 0.0796491,-0.764631z"/>
    <path id="_122463568" class="fil1" d="M8.42582 23.3206c0,0 -0.208533,8.55533 6.59616,9.68927 0,0 1.38099,0.260319 2.70552,-1.49508 0,0 0.86174,0.319163 0.86174,0.398954 0,0.0797908 -0.622368,2.77672 -0.622368,2.77672 0,0 -3.8074,1.29026 -5.75602,-0.306975 -1.94862,-1.59723 -3.64169,-5.94168 -3.64169,-5.94168l-0.367236 -5.0898 0.223868 -0.0314345 2.83449e-005 2.83449e-005z"/>
    <path id="_122463472" class="fil1" d="M28.1724 23.3206c0,0 0.208533,8.55533 -6.59616,9.68927 0,0 -1.38099,0.260319 -2.70552,-1.49508 0,0 -0.86174,0.319163 -0.86174,0.398954 0,0.0797908 0.622368,2.77672 0.622368,2.77672 0,0 3.8074,1.29026 5.75602,-0.306975 1.94862,-1.59723 3.64169,-5.94168 3.64169,-5.94168l0.367236 -5.0898 -0.223868 -0.0314345 -2.83449e-005 2.83449e-005z"/>
    <path id="_243976248" class="fil2" d="M12.243 26.9879c0,0 0.0166951,0.0461738 -0.140279,0.189259 -0.617266,0.56256 -1.92275,1.69046 -1.95449,1.69046 -0.0398245,0 -1.13898,0.326561 -1.09916,0.326561 0.0398245,0 2.1107,-1.62484 3.19393,-2.20628z"/>
    <path id="_245047104" class="fil3" d="M8.8394 29.4878c1.14346,-0.840368 3.48965,-2.44537 3.43044,-2.52113 -0.541047,0.20601 -1.50627,0.746859 -2.81422,1.4688 -0.205415,0.350796 -0.410802,0.701564 -0.616217,1.05233z"/>
    <path id="_245048280" class="fil3" d="M8.42038 23.3154c0.0159582,0 -0.596319,10.4201 7.38942,10.5792 0,0 1.15605,-0.493314 1.89012,-2.50404 0.493541,-0.0422905 0.90661,-0.0422905 1.40015,0 0.734075,2.01073 1.77861,2.50404 1.77861,2.50404 7.98574,-0.159128 7.37349,-10.5792 7.38942,-10.5792l0.558535 -0.0159582c0,0 -0.0638326,3.92571 -0.17554,6.35135 -0.111707,2.42561 -0.808934,3.5411 -0.808934,3.5411 -1.69049,3.00532 -5.00358,4.18353 -7.09752,4.63923 -1.37838,0.299974 -2.88619,0.356833 -4.27732,0.104451 -2.02056,-0.366612 -5.78147,-1.47339 -7.62105,-4.74368 0,0 -0.697227,-1.11548 -0.808934,-3.5411 -0.111707,-2.42564 -0.17554,-6.35135 -0.17554,-6.35135l0.558535 0.0159582 5.66897e-005 0z"/>
    <path id="_245049624" class="fil4" d="M8.45204 27.9512c0.0190477,0.559868 0.041015,1.1192 0.0667238,1.67751 0.0385207,0.836514 0.156038,1.70667 0.408648,2.50773 0.0766162,0.242944 0.194644,0.580985 0.32863,0.801848l0.00481863 0.00773815 0.00547056 0.00972229c1.47648,2.62485 4.43376,3.98809 7.28707,4.50581 1.33056,0.241385 2.76966,0.185914 4.0888,-0.101163 2.68599,-0.584584 5.38547,-1.92549 6.77998,-4.40465l0.00547056 -0.00972229 0.00481863 -0.00773815c0.133986,-0.220863 0.252014,-0.558904 0.32863,-0.801848 0.252609,-0.801054 0.370127,-1.67121 0.408648,-2.50773 0.0257088,-0.558309 0.0476761,-1.11764 0.0667238,-1.67751 -0.0775232,0.298018 -0.164712,0.592833 -0.262218,0.883112 -1.12382,3.34543 -3.43392,5.4694 -7.08596,5.54221l-0.113096 0.00223924 -0.102297 -0.0482996c-0.263494,-0.124462 -0.563297,-0.395467 -0.759132,-0.603405 -0.500088,-0.530956 -0.876026,-1.19712 -1.15259,-1.87626 -0.242377,-0.0116497 -0.480757,-0.0116497 -0.723162,5.66897e-005 -0.28668,0.694874 -0.685294,1.36279 -1.22036,1.8893 -0.213862,0.210461 -0.537362,0.477724 -0.818741,0.597793l-0.0952104 0.0406182 -0.103515 -0.00204083c-3.65207,-0.0727896 -5.96214,-2.19678 -7.08596,-5.54221 -0.0975063,-0.29028 -0.184695,-0.585095 -0.262218,-0.883112l2.83449e-005 0z"/>
    <path id="_245049720" class="fil5" d="M8.45204 27.9512l0.00161566 0.0479878c0.107569,0.785635 0.624607,4.26176 3.62038,5.37141 -1.57365,-0.947229 -2.68233,-2.51966 -3.35977,-4.53625 -0.0975063,-0.29028 -0.184695,-0.585095 -0.262218,-0.883112l0 -2.83449e-005z"/>
    <path id="_245049816" class="fil5" d="M28.2317 27.9512l-0.00161566 0.0479878c-0.107569,0.785635 -0.624607,4.26176 -3.62038,5.37141 1.57365,-0.947229 2.68233,-2.51966 3.35977,-4.53625 0.0975063,-0.29028 0.184695,-0.585095 0.262218,-0.883112l0 -2.83449e-005z"/>
    <path id="_245049912" class="fil6" d="M20.2091 34.0103c-0.110091,-0.0951254 -0.212105,-0.194899 -0.295382,-0.283335 -0.500088,-0.530956 -0.876026,-1.19712 -1.15259,-1.87626 -0.242377,-0.0116497 -0.480757,-0.0116497 -0.723162,5.66897e-005 -0.28668,0.694874 -0.685294,1.36279 -1.22036,1.8893 -0.0927444,0.0912705 -0.206181,0.193142 -0.32778,0.289118 0.907461,0.0636059 2.52303,0.138465 3.71927,-0.0188777z"/>
    <path id="_245050008" class="fil6" d="M8.51273 29.4973l0.00603746 0.13135c0.0385207,0.836514 0.156038,1.70667 0.408648,2.50773 0.0766162,0.242944 0.194644,0.580985 0.32863,0.801848l0.00481863 0.00773815 0.00547056 0.00972229c1.47648,2.62485 4.43376,3.98809 7.28707,4.50581 1.33056,0.241385 2.76966,0.185914 4.0888,-0.101163 2.68599,-0.584584 5.38547,-1.92549 6.77998,-4.40465l0.00547056 -0.00972229 0.00481863 -0.00773815c0.133986,-0.220863 0.252014,-0.558904 0.32863,-0.801848 0.252609,-0.801054 0.370127,-1.67121 0.408648,-2.50773 0.00425173,-0.092631 0.00830504,-0.185347 0.0123867,-0.278035 -1.43368,9.38796 -17.9933,9.84865 -19.6694,0.146685l2.83449e-005 0z"/>
    <path id="_245050104" class="fil4" d="M26.5358 33.0791c0,0 -1.13306,1.97068 -3.10379,2.88029 0,0 1.10111,-0.893657 1.45219,-1.89902l0.638326 -0.845782 1.01327 -0.135488z"/>
    <path id="_245050200" class="fil4" d="M10.1297 33.128c0,0 1.0851,1.92059 2.96844,2.89398 0,0 -1.07047,-0.930137 -1.38759,-1.9467l-0.609556 -0.866757 -0.971293 -0.0805277z"/>
    <path id="_245050296" class="fil5" d="M26.2005 32.6167c-2.46546,2.57091 -11.2253,2.96479 -14.2421,0.897909 -0.0398529,-0.0123867 -0.0794223,-0.0239514 -0.11936,-0.0366216 0,0 1.56393,2.48947 7.05348,2.37777 5.48955,-0.111707 7.30881,-3.23951 7.30881,-3.23951l-0.000850346 0.000453518z"/>
    <path id="_245050392" class="fil4" d="M26.1853 32.6638c0,0 -2.07456,2.48947 -6.23964,2.68097 0,0 2.58522,0.111707 4.54807,-0.813866 1.96285,-0.925573 1.69156,-1.8671 1.69156,-1.8671z"/>
    <path id="_245050488" class="fil4" d="M11.789 33.3836c0,0 1.8213,1.46636 4.10332,1.68978 0,0 -2.15435,0.111707 -3.79804,-0.925573 -1.64369,-1.03728 -0.305274,-0.764206 -0.305274,-0.764206z"/>
    <path id="_245050584" class="fil3" d="M20.7575 34.3872c0,0 -0.469929,-0.246912 -1.45758,-0.294702 0,0 0.756666,-0.215052 1.27438,-0.119474 0.517719,0.0955789 0.183193,0.414175 0.183193,0.414175z"/>
    <path id="_245050680" class="fil3" d="M15.9206 34.3872c0,0 0.469929,-0.246912 1.45758,-0.294702 0,0 -0.756666,-0.215052 -1.27438,-0.119474 -0.517719,0.0955789 -0.183193,0.414175 -0.183193,0.414175z"/>
    <path id="_245050776" class="fil3" d="M9.7978 27.7445c0,0 -0.135403,0.995613 0.684982,1.34607 -0.183448,-0.500967 -0.37265,-0.912279 -0.684982,-1.34607z"/>
    <path id="_245050872" class="fil3" d="M11.7653 28.1241c0,0 -0.361737,-0.817494 -1.14678,-0.70043 0.372622,0.294021 0.7078,0.517435 1.14678,0.70043z"/>
   </g>
  </g>
 </g>
</svg>
