<?xml version="1.0" encoding="UTF-8"?>
<!DOCTYPE svg PUBLIC "-//W3C//DTD SVG 1.1//EN" "http://www.w3.org/Graphics/SVG/1.1/DTD/svg11.dtd">
<!-- Creator: CorelDRAW -->
<svg xmlns="http://www.w3.org/2000/svg" xml:space="preserve" width="129.436mm" height="197.989mm" style="shape-rendering:geometricPrecision; text-rendering:geometricPrecision; image-rendering:optimizeQuality; fill-rule:evenodd; clip-rule:evenodd"
viewBox="0 0 9.77867 14.9577"
 xmlns:xlink="http://www.w3.org/1999/xlink">
 <defs>
  <style type="text/css">
   <![CDATA[
    .fil0 {fill:none}
    .fil3 {fill:#4B3446}
    .fil2 {fill:#501D33}
    .fil4 {fill:#634C54}
    .fil5 {fill:#896E6B}
    .fil6 {fill:#97695D}
    .fil8 {fill:#D7734D}
    .fil1 {fill:#D77D75}
    .fil7 {fill:#F6D476}
   ]]>
  </style>
 </defs>
 <g id="Layer_x0020_1">
  <metadata id="CorelCorpID_0Corel-Layer"/>
  <g id="_223645672">
   <rect id="_224429392" class="fil0" width="9.77867" height="14.9577"/>
   <g id="_162518648">
    <path id="_162518312" class="fil1" d="M2.33977 6.2398c0,0 0.2384,1.29416 2.5713,1.01319 0,0 1.94125,0.536399 2.55427,-1.02171l0.0510856 1.31971 -1.45593 1.54108 -2.26478 0c0,0 -0.766284,-0.0766284 -0.808856,-0.136228 -0.0425713,-0.0595999 -0.374628,-0.93657 -0.374628,-0.93657 0,0 -0.391656,-1.16645 -0.272457,-1.77948l0 1.51096e-005z"/>
    <path id="_162518408" class="fil2" d="M4.88934 11.3831c-0.212192,0.00374719 -0.426152,-0.101574 -0.507245,-0.318269 -0.748886,-0.091383 -0.777941,-0.532818 -0.777941,-0.532818 -0.738316,0.172008 -0.807352,-0.469675 -0.807352,-0.469675 -0.760195,-0.198888 -0.743794,-0.897693 -0.743794,-0.897693 -0.574241,-0.360145 -0.262507,-0.924557 -0.262507,-0.924557 -0.43206,-0.274141 -0.0328181,-0.725677 -0.0328181,-0.725677 -0.230301,-0.666659 0.345776,-1.28941 0.345776,-1.28941 0.0236617,-0.0250064 0.241852,-0.00483508 0.241852,-0.00483508 0.25944,1.3497 1.33173,1.37901 2.51877,1.02433l0.0252406 0.00343744 0.0252557 -0.00343744c1.18705,0.354668 2.25933,0.325363 2.51877,-1.02433 0,0 0.21819,-0.00955683 0.241852,0.00483508 0,0 0.576077,0.622758 0.345776,1.28941 0,0 0.399241,0.451536 -0.0328181,0.725677 0,0 0.311734,0.56442 -0.262507,0.924557 0,0 0.0164015,0.698805 -0.743794,0.897693 0,0 -0.0690358,0.641683 -0.807352,0.469675 0,0 -0.0290558,0.441435 -0.777941,0.532818 -0.0810933,0.216695 -0.295045,0.322016 -0.507245,0.318269l1.51096e-005 0z"/>
    <path id="_162518504" class="fil3" d="M4.88934 11.2141c-0.229606,0.00469909 -0.461652,-0.177591 -0.503679,-0.547202 -0.0380762,0.107633 -0.0148528,0.219769 -0.0148528,0.219769 -0.782066,-0.0534352 -0.764086,-0.785587 -0.764086,-0.785587 -0.0382198,0.170701 -0.0299699,0.301392 -0.0299699,0.301392 -0.846191,0.141358 -0.685206,-0.86149 -0.685206,-0.86149 -0.090076,0.125357 -0.116624,0.327765 -0.116624,0.327765 -0.748379,-0.203066 -0.549408,-1.15724 -0.549408,-1.15724 -0.103728,0.133357 -0.131023,0.309392 -0.131023,0.309392 -0.513175,-0.378738 -0.0955381,-1.00018 -0.0955381,-1.00018 -0.0982654,0.0480033 -0.147402,0.104015 -0.147402,0.104015 -0.300266,-0.28805 -0.0191061,-0.546764 -0.0191061,-0.546764 0.0436743,0.045344 0.165873,0.105178 0.165873,0.105178 -0.437522,-0.710719 0.148286,-1.30476 0.148286,-1.30476 0,0 0.103826,0.00403427 0.139182,0.0173232 0.105692,0.919677 0.899166,1.48404 2.59487,0.950795l0 -7.55481e-006 7.55481e-006 0 7.55481e-006 0 0 7.55481e-006c3.02192e-005,1.51096e-005 0.00301437,0.000944351 0.00867292,0.00262152 0.00565855,-0.00167717 0.00860493,-0.00260641 0.00863515,-0.00262152l0 -7.55481e-006 7.55481e-006 0 7.55481e-006 0 0 7.55481e-006c1.69571,0.533249 2.48919,-0.0311183 2.59488,-0.950795 0.0353565,-0.0132889 0.139182,-0.0173232 0.139182,-0.0173232 0,0 0.585807,0.59405 0.148286,1.30476 0,0 0.122199,-0.0598341 0.165873,-0.105178 0,0 0.28116,0.258714 -0.0191061,0.546764 0,0 -0.0491365,-0.0560114 -0.147402,-0.104015 0,0 0.417637,0.621443 -0.0955381,1.00018 0,0 -0.0272955,-0.176035 -0.131023,-0.309392 0,0 0.198971,0.95418 -0.549408,1.15724 0,0 -0.0265476,-0.202408 -0.116624,-0.327765 0,0 0.160985,1.00284 -0.685206,0.86149 0,0 0.00824985,-0.130691 -0.0299699,-0.301392 0,0 0.0179804,0.732152 -0.764086,0.785587 0,0 0.0232235,-0.112136 -0.0148528,-0.219769 -0.0420274,0.369611 -0.274066,0.551901 -0.503679,0.547202l1.51096e-005 0z"/>
    <path id="_102487264" class="fil2" d="M2.45783 11.7976c-0.52132,0.311439 -0.324864,0.76565 0.0288896,1.04515 0.0410906,0.032463 0.0578472,0.0459861 0.0863741,0.0645634 0.477547,-0.193373 0.619751,-0.824071 0.141622,-1.10972l-0.128439 0.0304761 -0.128447 -0.0304761 0 7.55481e-006zm-0.215818 -1.87887c-0.0627125,-0.051486 -0.119321,-0.118361 -0.133516,-0.200474 -0.00882402,-0.0510478 0.000219089,-0.101333 0.0239639,-0.147175 0.027711,-0.0534805 0.0708792,-0.0949035 0.130947,-0.108321 0.0926068,-0.0206775 0.184058,0.0344046 0.252837,0.0906879 0.0136591,0.0111811 0.0269404,0.0228533 0.0399423,0.0348806 0.00574921,-0.00688243 0.0114984,-0.0138404 0.0174214,-0.0204584 0.0211157,-0.0236163 0.0437801,-0.046175 0.0686581,-0.0658553 0.124707,-0.0986205 0.256728,-0.0758201 0.332585,0.0706148 0.0234199,0.045208 0.0322893,0.0946844 0.0231177,0.144969 -0.0147545,0.0809196 -0.0761827,0.150915 -0.151421,0.206828 0.0583685,0.0141577 0.100494,0.0550443 0.127691,0.10755 0.0237448,0.045835 0.0327879,0.0961274 0.0239639,0.147175 -0.0141955,0.0821132 -0.0708037,0.148988 -0.133516,0.200474 0.0427149,0.0196954 0.0806854,0.0579001 0.110164,0.114795 0.0234199,0.045208 0.0322893,0.0946844 0.0231177,0.144969 -0.0147545,0.0809196 -0.0761827,0.150915 -0.151421,0.206828 0.0583685,0.0141577 0.100494,0.0550443 0.127691,0.10755 0.0237448,0.045835 0.0327879,0.0961274 0.0239639,0.147175 -0.0145732,0.0842739 -0.0738029,0.152501 -0.13848,0.204509 -0.0623121,0.050111 -0.1475,0.0990435 -0.222444,0.12893l-0.0616095 0.0245758 -0.000415514 -0.000559056 -0.0866385 -0.0310956c-0.140285,-0.0503528 -0.350792,-0.167445 -0.379886,-0.327017 -0.00917154,-0.0502848 -0.000302192,-0.0997612 0.0231177,-0.144969 0.0294789,-0.0568953 0.0674493,-0.0950924 0.110164,-0.114795 -0.0627125,-0.051486 -0.119321,-0.118369 -0.133516,-0.200474 -0.00882402,-0.0510478 0.000219089,-0.10134 0.0239639,-0.147175 0.0272049,-0.0525059 0.0693229,-0.0933925 0.127691,-0.10755 -0.0752383,-0.0559131 -0.136666,-0.125908 -0.151421,-0.206828 -0.00917154,-0.0502848 -0.000302192,-0.0997612 0.0231177,-0.144969 0.0294789,-0.0568953 0.0674493,-0.0950999 0.110164,-0.114795z"/>
    <path id="_162254984" class="fil2" d="M7.12363 11.7976c-0.52132,0.311439 -0.324864,0.76565 0.0288896,1.04515 0.0410906,0.032463 0.0578472,0.0459861 0.0863741,0.0645634 0.477547,-0.193373 0.619751,-0.824071 0.141622,-1.10972l-0.128439 0.0304761 -0.128447 -0.0304761 0 7.55481e-006zm-0.215818 -1.87887c-0.0627125,-0.051486 -0.119321,-0.118361 -0.133516,-0.200474 -0.00882402,-0.0510478 0.000219089,-0.101333 0.0239639,-0.147175 0.027711,-0.0534805 0.0708792,-0.0949035 0.130947,-0.108321 0.0926068,-0.0206775 0.184058,0.0344046 0.252837,0.0906879 0.0136591,0.0111811 0.0269404,0.0228533 0.0399423,0.0348806 0.00574921,-0.00688243 0.0114984,-0.0138404 0.0174214,-0.0204584 0.0211157,-0.0236163 0.0437801,-0.046175 0.0686581,-0.0658553 0.124707,-0.0986205 0.256728,-0.0758201 0.332585,0.0706148 0.0234199,0.045208 0.0322893,0.0946844 0.0231177,0.144969 -0.0147545,0.0809196 -0.0761827,0.150915 -0.151421,0.206828 0.0583685,0.0141577 0.100494,0.0550443 0.127691,0.10755 0.0237448,0.045835 0.0327879,0.0961274 0.0239639,0.147175 -0.0141955,0.0821132 -0.0708037,0.148988 -0.133516,0.200474 0.0427149,0.0196954 0.0806854,0.0579001 0.110164,0.114795 0.0234199,0.045208 0.0322893,0.0946844 0.0231177,0.144969 -0.0147545,0.0809196 -0.0761827,0.150915 -0.151421,0.206828 0.0583685,0.0141577 0.100494,0.0550443 0.127691,0.10755 0.0237448,0.045835 0.0327879,0.0961274 0.0239639,0.147175 -0.0145732,0.0842739 -0.0738029,0.152501 -0.13848,0.204509 -0.0623121,0.050111 -0.1475,0.0990435 -0.222444,0.12893l-0.0616095 0.0245758 -0.000415514 -0.000559056 -0.0866385 -0.0310956c-0.140285,-0.0503528 -0.350792,-0.167445 -0.379886,-0.327017 -0.00917154,-0.0502848 -0.000302192,-0.0997612 0.0231177,-0.144969 0.0294789,-0.0568953 0.0674493,-0.0950924 0.110164,-0.114795 -0.0627125,-0.051486 -0.119321,-0.118369 -0.133516,-0.200474 -0.00882402,-0.0510478 0.000219089,-0.10134 0.0239639,-0.147175 0.0272049,-0.0525059 0.0693229,-0.0933925 0.127691,-0.10755 -0.0752383,-0.0559131 -0.136666,-0.125908 -0.151421,-0.206828 -0.00917154,-0.0502848 -0.000302192,-0.0997612 0.0231177,-0.144969 0.0294789,-0.0568953 0.0674493,-0.0950999 0.110164,-0.114795z"/>
    <path id="_102302080" class="fil4" d="M7.1504 11.9316c-0.383837,0.229311 -0.239193,0.563732 0.0212743,0.769533 0.0605216,0.0478144 0.0782149,0.0530876 0.139938,0.00520526 0.26463,-0.205332 0.415016,-0.543485 0.0279301,-0.774738l-0.0945711 0.0224378 -0.0945711 -0.0224378zm-2.26097 -1.31136l-0.000173761 0c-0.00284061,0.000120877 -0.00571899,0.000241754 -0.00858982,0.000317302 -0.345104,-0.00862759 -0.483153,-0.301973 -0.483153,-0.301973 -0.595319,-0.0345104 -0.759251,-0.405512 -0.759251,-0.405512 -0.569444,-0.00862759 -0.69023,-0.517671 -0.69023,-0.517671 -0.628537,-0.209072 -0.723131,-0.831127 -0.757694,-0.802729 -0.0292069,-0.0408942 -0.0374794,-0.0920478 -0.0459559,-0.141267 0.219256,0.121844 0.449405,0.107037 0.449405,0.107037 -0.404114,-0.0972908 -0.483644,-0.389246 -0.497635,-0.464998 0.0159558,-0.138804 0.0647674,-0.260437 0.104619,-0.340601 0.156113,0.043493 0.419571,0.0487738 0.419571,0.0487738 -0.285821,-0.0891165 -0.418151,-0.239608 -0.470574,-0.318601 -0.232628,-0.494145 0.121768,-1.08371 0.136425,-1.08105 0.0852258,0.689935 0.691945,1.54297 2.59446,0.944427l0 -7.55481e-006 7.55481e-006 0 2.26644e-005 0 0 7.55481e-006c3.02192e-005,1.51096e-005 0.00301437,0.000944351 0.00866537,0.00262152 0.005651,-0.00167717 0.00859737,-0.00260641 0.00862759,-0.00262152l0 -7.55481e-006 2.26644e-005 0 7.55481e-006 0 0 7.55481e-006c1.90252,0.598545 2.50924,-0.254491 2.59447,-0.944427 0.0146563,-0.00265929 0.369052,0.586903 0.136425,1.08105 -0.0524228,0.0789931 -0.184753,0.229485 -0.470574,0.318601 0,0 0.263459,-0.00528081 0.419571,-0.0487738 0.0398516,0.0801641 0.0886632,0.201796 0.104619,0.340601 -0.0139915,0.0757521 -0.093521,0.367708 -0.497635,0.464998 0,0 0.23015,0.0148074 0.449405,-0.107037 -0.0084765,0.0492196 -0.016749,0.100373 -0.0459559,0.141267 -0.0345632,-0.0283985 -0.129157,0.593657 -0.757694,0.802729 0,0 -0.120786,0.509043 -0.69023,0.517671 0,0 -0.163932,0.371002 -0.759251,0.405512 0,0 -0.138049,0.293346 -0.48316,0.301973 -0.00288594,-7.55481e-005 -0.00571899,-0.000196425 -0.00857471,-0.000317302zm-2.40484 1.31136c-0.383837,0.229311 -0.239193,0.563732 0.0212743,0.769533 0.0605216,0.0478144 0.0782149,0.0530876 0.139938,0.00520526 0.26463,-0.205332 0.415016,-0.543485 0.0279301,-0.774738l-0.0945711 0.0224378 -0.0945711 -0.0224378zm0.0332865 -0.585906c0,0 -0.413784,-0.148543 -0.309113,-0.350596 0.0566837,-0.109431 0.151043,-0.0871447 0.2075,-0.0400934 0.0941027,0.0784114 0.134884,0.273235 0.101612,0.390689zm0.0875073 0.00806854c0.00893734,-0.00359609 0.395388,-0.160487 0.291925,-0.360213 -0.0548857,-0.105949 -0.215493,-0.0494613 -0.293429,0.0721938 0.0283003,0.0903404 0.023571,0.200233 0.00150341,0.28802zm-0.0165753 -0.468965c0,0 0.413784,-0.148543 0.309113,-0.350596 -0.0566837,-0.109431 -0.151043,-0.0871447 -0.207493,-0.0400934 -0.0941027,0.0784114 -0.134891,0.273235 -0.10162,0.390689zm-0.0874998 0.00806854c-0.00893734,-0.00359609 -0.395396,-0.160487 -0.291933,-0.360213 0.0548857,-0.105949 0.215493,-0.0494613 0.293429,0.0721938 -0.0282928,0.0903404 -0.023571,0.200233 -0.00149585,0.28802zm0.0165677 -0.468965c0,0 -0.413784,-0.148543 -0.309113,-0.350596 0.0566837,-0.109431 0.151043,-0.0871447 0.2075,-0.0400934 0.0941027,0.0784114 0.134884,0.273235 0.101612,0.390689zm0.0875073 0.00806854c0.00893734,-0.00359609 0.395388,-0.160487 0.291925,-0.360213 -0.0548857,-0.105949 -0.215493,-0.0494613 -0.293429,0.0721938 0.0283003,0.090348 0.023571,0.20024 0.00150341,0.28802zm-0.0165753 -0.468965c0,0 0.413784,-0.148543 0.309113,-0.350596 -0.0566837,-0.109431 -0.151043,-0.0871447 -0.207493,-0.0400934 -0.0941027,0.0784114 -0.134891,0.273242 -0.10162,0.390689zm-0.0874998 0.00806854c-0.00893734,-0.00359609 -0.395396,-0.160487 -0.291933,-0.360213 0.0548857,-0.105949 0.215493,-0.0494613 0.293429,0.0721938 -0.0282928,0.090348 -0.023571,0.20024 -0.00149585,0.28802zm4.68238 1.37462c0,0 -0.413784,-0.148543 -0.309113,-0.350596 0.0566837,-0.109431 0.151043,-0.0871447 0.2075,-0.0400934 0.0941027,0.0784114 0.134884,0.273235 0.101612,0.390689zm0.0875073 0.00806854c0.00893734,-0.00359609 0.395388,-0.160487 0.291925,-0.360213 -0.0548857,-0.105949 -0.215493,-0.0494613 -0.293429,0.0721938 0.0283003,0.0903404 0.023571,0.200233 0.00150341,0.28802zm-0.0165753 -0.468965c0,0 0.413784,-0.148543 0.309113,-0.350596 -0.0566837,-0.109431 -0.151043,-0.0871447 -0.207493,-0.0400934 -0.0941027,0.0784114 -0.134891,0.273235 -0.10162,0.390689zm-0.0874998 0.00806854c-0.00893734,-0.00359609 -0.395396,-0.160487 -0.291933,-0.360213 0.0548857,-0.105949 0.215493,-0.0494613 0.293429,0.0721938 -0.0282928,0.0903404 -0.023571,0.200233 -0.00149585,0.28802zm0.0165677 -0.468965c0,0 -0.413784,-0.148543 -0.309113,-0.350596 0.0566837,-0.109431 0.151043,-0.0871447 0.2075,-0.0400934 0.0941027,0.0784114 0.134884,0.273235 0.101612,0.390689zm0.0875073 0.00806854c0.00893734,-0.00359609 0.395388,-0.160487 0.291925,-0.360213 -0.0548857,-0.105949 -0.215493,-0.0494613 -0.293429,0.0721938 0.0283003,0.090348 0.023571,0.20024 0.00150341,0.28802zm-0.0165753 -0.468965c0,0 0.413784,-0.148543 0.309113,-0.350596 -0.0566837,-0.109431 -0.151043,-0.0871447 -0.207493,-0.0400934 -0.0941027,0.0784114 -0.134891,0.273242 -0.10162,0.390689zm-0.0874998 0.00806854c-0.00893734,-0.00359609 -0.395396,-0.160487 -0.291933,-0.360213 0.0548857,-0.105949 0.215493,-0.0494613 0.293429,0.0721938 -0.0282928,0.090348 -0.023571,0.20024 -0.00149585,0.28802z"/>
    <path id="_162384848" class="fil3" d="M7.1504 11.9316c-0.0111433,0.00666334 -0.0217956,0.0134098 -0.0320702,0.0202469 0.101,0.0563815 0.437809,0.290135 0.158016,0.778432 0.0102292,-0.0054999 0.0216899,-0.0134476 0.0352432,-0.0239714 0.26466,-0.205287 0.415039,-0.543455 0.0279377,-0.774708l-0.0945484 0.0224378 -0.0945786 -0.0224378z"/>
    <path id="_162517184" class="fil2" d="M7.19744 12.7795c0,0 0.163682,-0.21705 0.170799,-0.530181 0,0 0.0889503,0.163682 -0.0142333,0.498157l-0.124541 0.117424 -0.0320248 -0.0853996z"/>
    <path id="_161806272" class="fil5" d="M7.07731 11.9815c-0.289772,0.225881 -0.147825,0.528414 0.0943822,0.719762 0.00302192,0.00238732 0.00592297,0.00466132 0.00874847,0.0068371 -0.181738,-0.246853 -0.145747,-0.55339 -0.103131,-0.726599zm-2.18788 -1.36113l-0.000173761 0c-0.00284061,0.000120877 -0.00571899,0.000241754 -0.00858982,0.000317302 -0.228654,-0.0057341 -0.36637,-0.136455 -0.433306,-0.224008 -0.0245833,-0.0228306 -0.0463261,-0.0496729 -0.065606,-0.0790309 -0.537472,-0.0370186 -0.716083,-0.35015 -0.740447,-0.398259l-0.000702597 -6.04385e-005c-0.00171494,-0.00203224 -0.003377,-0.00412493 -0.00503906,-0.00621761 -0.567094,-0.0102141 -0.687533,-0.517595 -0.687533,-0.517595 -0.672967,-0.172559 -0.80424,-0.939161 -0.80424,-0.939161 -0.0226115,-0.0316622 0.263708,0.609726 0.80424,0.78403 0,0 0.10987,0.462883 0.613866,0.513311 -0.0406373,-0.156551 -0.0244776,-0.329443 -0.0244776,-0.329443 0.0190759,0.213182 0.135601,0.388113 0.194755,0.464515 0.0944351,0.100509 0.270334,0.228359 0.572073,0.266269 -0.057477,-0.165012 -0.0679631,-0.332283 -0.0679631,-0.332283 0.0716574,0.286599 0.283283,0.491251 0.352628,0.552143 0.0733496,0.0488041 0.169545,0.087598 0.291752,0.0906577l0.00336189 -8.31029e-005 0 -0.000445734 0.00531859 0.000249309 0.00529592 -0.000249309 0 0.000445734 0.00336189 8.31029e-005c0.122214,-0.0030597 0.21841,-0.0418536 0.291759,-0.0906577 0.0693456,-0.0608918 0.280971,-0.265544 0.352628,-0.552143 0,0 -0.0104861,0.167271 -0.0679631,0.332283 0.301739,-0.03791 0.477638,-0.16576 0.572073,-0.266269 0.0591542,-0.0764018 0.17568,-0.251333 0.194755,-0.464515 0,0 0.0161597,0.172892 -0.0244776,0.329443 0.503996,-0.0504283 0.613866,-0.513311 0.613866,-0.513311 0.540531,-0.174305 0.826851,-0.815693 0.80424,-0.78403 0,0 -0.131272,0.766602 -0.80424,0.939161 0,0 -0.120439,0.507381 -0.687533,0.517595 -0.00166206,0.00209268 -0.00332412,0.00418536 -0.00503906,0.00621761l-0.000702597 6.04385e-005c-0.0243643,0.048109 -0.202975,0.361241 -0.740447,0.398259 -0.0192799,0.029358 -0.0410226,0.0562002 -0.065606,0.0790309 -0.0669356,0.0875527 -0.204652,0.218274 -0.433314,0.224008 -0.00288594,-7.55481e-005 -0.00571899,-0.000196425 -0.00857471,-0.000317302zm-2.62212 -4.19394c0.0102292,-0.0160766 0.0171041,-0.0246513 0.0188946,-0.0243265 0.0547799,0.443452 0.325099,0.95418 1.01635,1.10364 -1.03277,0.00580209 -1.04559,-0.878919 -1.03524,-1.07932l-7.55481e-006 7.55481e-006zm5.24406 0c-0.0102292,-0.0160766 -0.0171041,-0.0246513 -0.0188946,-0.0243265 -0.0547799,0.443452 -0.325099,0.95418 -1.01635,1.10364 1.03277,0.00580209 1.04559,-0.878919 1.03524,-1.07932l7.55481e-006 7.55481e-006zm-5.09987 5.55507c-0.289772,0.225881 -0.147825,0.528414 0.0943822,0.719762 0.00302192,0.00238732 0.00592297,0.00466132 0.00874847,0.0068371 -0.181738,-0.246853 -0.145747,-0.55339 -0.103131,-0.726599zm0.200973 -2.15814c0,0 0.0194763,-0.262915 0.194755,-0.262915 0.175279,0 -0.143632,0.260482 -0.194755,0.262915zm-0.14191 -0.11963c0,0 -0.145891,-0.200467 -0.22394,-0.104989 -0.0780487,0.0954852 0.199893,0.13088 0.22394,0.104989zm0.165571 0.460896c0,0 0.145883,-0.200467 0.223932,-0.104989 0.0780487,0.0954852 -0.1999,0.13088 -0.223932,0.104989zm-0.141917 0.119623c0,0 -0.0194763,-0.262915 -0.194755,-0.262915 -0.175279,0 0.143632,0.260482 0.194755,0.262915zm0.118255 0.460896c0,0 0.0194763,-0.262922 0.194755,-0.262922 0.175279,0 -0.143632,0.26049 -0.194755,0.262922zm-0.14191 -0.11963c0,0 -0.145891,-0.200467 -0.22394,-0.104989 -0.0780487,0.0954852 0.199893,0.13088 0.22394,0.104989zm0.165571 0.460889c0,0 0.145883,-0.200459 0.223932,-0.104982 0.0780487,0.0954777 -0.1999,0.13088 -0.223932,0.104982zm-0.141917 0.119638c0,0 -0.0194763,-0.262922 -0.194755,-0.262922 -0.175279,0 0.143632,0.26049 0.194755,0.262922zm4.78407 -1.38269c0,0 0.0194763,-0.262915 0.194755,-0.262915 0.175279,0 -0.143632,0.260482 -0.194755,0.262915zm-0.14191 -0.11963c0,0 -0.145891,-0.200467 -0.22394,-0.104989 -0.0780487,0.0954852 0.199893,0.13088 0.22394,0.104989zm0.165571 0.460896c0,0 0.145883,-0.200467 0.223932,-0.104989 0.0780487,0.0954852 -0.1999,0.13088 -0.223932,0.104989zm-0.141917 0.11963c0,0 -0.0194763,-0.262915 -0.194755,-0.262915 -0.175279,0 0.143632,0.260482 0.194755,0.262915zm0.118255 0.460896c0,0 0.0194763,-0.262922 0.194755,-0.262922 0.175279,0 -0.143632,0.26049 -0.194755,0.262922zm-0.14191 -0.11963c0,0 -0.145891,-0.200467 -0.22394,-0.104989 -0.0780487,0.0954852 0.199893,0.13088 0.22394,0.104989zm0.165571 0.460889c0,0 0.145883,-0.200459 0.223932,-0.104982 0.0780487,0.0954777 -0.1999,0.13088 -0.223932,0.104982zm-0.141917 0.119638c0,0 -0.0194763,-0.262922 -0.194755,-0.262922 -0.175279,0 0.143632,0.26049 0.194755,0.262922z"/>
    <path id="_161805264" class="fil6" d="M2.32933 11.3375c0,0 -0.119661,0.200852 0.00426847,0.354698 0.123937,0.153839 0.407688,0.204856 0.407688,0.204856 0,0 0.145294,-0.0470136 0.106833,-0.226493 -0.0384615,-0.179487 -0.326489,-0.2946 -0.518789,-0.333061z"/>
    <path id="_102487456" class="fil3" d="M2.48459 11.9316c-0.0111433,0.00666334 -0.0217956,0.0134098 -0.0320702,0.0202469 0.101,0.0563815 0.437809,0.290135 0.158016,0.778432 0.0102292,-0.0054999 0.0216899,-0.0134476 0.0352432,-0.0239714 0.26466,-0.205287 0.415039,-0.543455 0.0279377,-0.774708l-0.0945484 0.0224378 -0.0945786 -0.0224378z"/>
    <path id="_166324848" class="fil2" d="M2.53162 12.7795c0,0 0.163682,-0.21705 0.170799,-0.530181 0,0 0.0889503,0.163682 -0.0142333,0.498157l-0.124541 0.117424 -0.0320248 -0.0853996z"/>
    <path id="_170914528" class="fil2" d="M2.33593 11.5355l0.468602 0c0.125568,-1.51096e-005 0.227392,0.101809 0.227392,0.22737l-7.55481e-006 0.00269707c7.55481e-006,0.125546 -0.101816,0.22737 -0.227377,0.22737l-0.46861 7.55481e-006c-0.125553,-7.55481e-006 -0.227377,-0.101831 -0.227377,-0.227392l-7.55481e-006 -0.00266685c7.55481e-006,-0.125576 0.101831,-0.2274 0.227392,-0.2274z"/>
    <path id="_224430088" class="fil7" d="M2.31396 11.6628l0.512548 0c0.0421332,-1.51096e-005 0.076296,0.0341477 0.076296,0.0762733l-7.55481e-006 0.0502773c7.55481e-006,0.0421105 -0.0341553,0.0762733 -0.0762809,0.0762733l-0.512556 1.51096e-005c-0.0421181,-1.51096e-005 -0.0762809,-0.034178 -0.0762809,-0.0763036l-7.55481e-006 -0.050247c7.55481e-006,-0.0421407 0.0341704,-0.0763036 0.076296,-0.0763036z"/>
    <path id="_222575240" class="fil8" d="M2.33072 11.7664l0.476112 0c0.0214783,-1.51096e-005 0.0388922,0.0173987 0.0388922,0.0388695l-7.55481e-006 0.000468398c7.55481e-006,0.0214557 -0.0174063,0.0388695 -0.038877,0.0388695l-0.476119 1.51096e-005c-0.0214632,-1.51096e-005 -0.038877,-0.0174289 -0.038877,-0.0388997l-7.55481e-006 -0.000438179c7.55481e-006,-0.0214859 0.0174214,-0.0388997 0.0388922,-0.0388997z"/>
    <path id="_170920744" class="fil2" d="M2.3232 11.2049l0.468602 0c0.125568,-1.51096e-005 0.227392,0.101809 0.227392,0.22737l-7.55481e-006 0.00268951c7.55481e-006,0.125546 -0.101816,0.22737 -0.227377,0.22737l-0.46861 1.51096e-005c-0.125553,-1.51096e-005 -0.227377,-0.101839 -0.227377,-0.2274l-7.55481e-006 -0.00265929c7.55481e-006,-0.125576 0.101831,-0.2274 0.227392,-0.2274z"/>
    <path id="_170797688" class="fil7" d="M2.30123 11.3322l0.512541 0c0.0421332,-1.51096e-005 0.076296,0.0341477 0.076296,0.0762733l-7.55481e-006 0.0502773c7.55481e-006,0.0421105 -0.0341553,0.0762733 -0.0762809,0.0762733l-0.512548 1.51096e-005c-0.0421181,-1.51096e-005 -0.0762809,-0.034178 -0.0762809,-0.0763036l-7.55481e-006 -0.050247c7.55481e-006,-0.0421407 0.0341704,-0.0763036 0.076296,-0.0763036z"/>
    <path id="_290728728" class="fil8" d="M2.31798 11.4358l0.476112 0c0.0214783,-1.51096e-005 0.0388922,0.0173987 0.0388922,0.0388695l-7.55481e-006 0.000460843c7.55481e-006,0.0214557 -0.0174063,0.0388695 -0.038877,0.0388695l-0.476119 1.51096e-005c-0.0214632,-1.51096e-005 -0.038877,-0.0174289 -0.038877,-0.0388997l-7.55481e-006 -0.000430624c7.55481e-006,-0.0214859 0.0174214,-0.0388997 0.0388922,-0.0388997z"/>
    <path id="_162517112" class="fil6" d="M6.99514 11.3375c0,0 -0.119661,0.200852 0.00426847,0.354698 0.123937,0.153839 0.407688,0.204856 0.407688,0.204856 0,0 0.145294,-0.0470136 0.106833,-0.226493 -0.0384615,-0.179487 -0.326489,-0.2946 -0.518789,-0.333061z"/>
    <path id="_233887008" class="fil2" d="M7.00174 11.5355l0.46861 0c0.125561,-1.51096e-005 0.227385,0.101809 0.227385,0.22737l0 0.00269707c0,0.125546 -0.101824,0.22737 -0.227385,0.22737l-0.46861 7.55481e-006c-0.125561,-7.55481e-006 -0.227385,-0.101831 -0.227385,-0.227392l0 -0.00266685c0,-0.125576 0.101824,-0.2274 0.227385,-0.2274z"/>
    <path id="_233888616" class="fil7" d="M6.97977 11.6628l0.512548 0c0.0421256,-1.51096e-005 0.0762885,0.0341477 0.0762885,0.0762733l0 0.0502773c0,0.0421105 -0.0341628,0.0762733 -0.0762885,0.0762733l-0.512548 1.51096e-005c-0.0421256,-1.51096e-005 -0.0762885,-0.034178 -0.0762885,-0.0763036l0 -0.050247c0,-0.0421407 0.0341628,-0.0763036 0.0762885,-0.0763036z"/>
    <path id="_233888544" class="fil8" d="M6.99653 11.7664l0.476112 0c0.0214708,-1.51096e-005 0.0388846,0.0173987 0.0388846,0.0388695l0 0.000468398c0,0.0214557 -0.0174138,0.0388695 -0.0388846,0.0388695l-0.476112 1.51096e-005c-0.0214708,-1.51096e-005 -0.0388846,-0.0174289 -0.0388846,-0.0388997l0 -0.000438179c0,-0.0214859 0.0174138,-0.0388997 0.0388846,-0.0388997z"/>
    <path id="_233888256" class="fil2" d="M6.98901 11.2049l0.468602 0c0.125561,-1.51096e-005 0.227385,0.101809 0.227385,0.22737l0 0.00268951c0,0.125546 -0.101824,0.22737 -0.227385,0.22737l-0.468602 1.51096e-005c-0.125561,-1.51096e-005 -0.227385,-0.101839 -0.227385,-0.2274l0 -0.00265929c0,-0.125576 0.101824,-0.2274 0.227385,-0.2274z"/>
    <path id="_233888136" class="fil7" d="M6.96704 11.3322l0.512548 0c0.0421256,-1.51096e-005 0.0762885,0.0341477 0.0762885,0.0762733l0 0.0502773c0,0.0421105 -0.0341628,0.0762733 -0.0762885,0.0762733l-0.512548 1.51096e-005c-0.0421256,-1.51096e-005 -0.0762885,-0.034178 -0.0762885,-0.0763036l0 -0.050247c0,-0.0421407 0.0341628,-0.0763036 0.0762885,-0.0763036z"/>
    <path id="_233888448" class="fil8" d="M6.98379 11.4358l0.476119 0c0.0214708,-1.51096e-005 0.0388846,0.0173987 0.0388846,0.0388695l0 0.000460843c0,0.0214557 -0.0174138,0.0388695 -0.0388846,0.0388695l-0.476119 1.51096e-005c-0.0214708,-1.51096e-005 -0.0388846,-0.0174289 -0.0388846,-0.0388997l7.55481e-006 -0.000430624c-7.55481e-006,-0.0214859 0.0174063,-0.0388997 0.038877,-0.0388997z"/>
   </g>
  </g>
 </g>
</svg>
