<?xml version="1.0" encoding="UTF-8"?>
<!DOCTYPE svg PUBLIC "-//W3C//DTD SVG 1.1//EN" "http://www.w3.org/Graphics/SVG/1.1/DTD/svg11.dtd">
<!-- Creator: CorelDRAW -->
<svg xmlns="http://www.w3.org/2000/svg" xml:space="preserve" width="129.436mm" height="197.989mm" style="shape-rendering:geometricPrecision; text-rendering:geometricPrecision; image-rendering:optimizeQuality; fill-rule:evenodd; clip-rule:evenodd"
viewBox="0 0 6.47607 9.90594"
 xmlns:xlink="http://www.w3.org/1999/xlink">
 <defs>
  <style type="text/css">
   <![CDATA[
    .fil0 {fill:none}
    .fil5 {fill:#4B3446}
    .fil2 {fill:#501D33}
    .fil3 {fill:#634C54}
    .fil4 {fill:#896E6B}
    .fil1 {fill:#D77D75}
   ]]>
  </style>
 </defs>
 <g id="Layer_x0020_1">
  <metadata id="CorelCorpID_0Corel-Layer"/>
  <g id="_224428432">
   <rect id="_171445856" class="fil0" width="6.47607" height="9.90594"/>
   <g id="_166337232">
    <path id="_161809080" class="fil1" d="M1.479 4.14598c0,0 0.80069,0.383432 0.687921,1.11646l-0.507483 0.0056387 -0.180438 -1.1221z"/>
    <path id="_162518864" class="fil1" d="M4.98019 4.14598c0,0 -0.80069,0.383432 -0.687921,1.11646l0.507483 0.0056387 0.180438 -1.1221z"/>
    <path id="_162518792" class="fil2" d="M5.13976 5.30876c-0.0448694,0.11358 -0.100586,0.294038 -0.0812083,0.476683 0,0 -0.0500378,-0.0421427 -0.0724375,-0.185352 -0.0688802,0.127874 -0.149153,0.286423 -0.23581,0.507458 0,0 -0.0877676,-0.0445442 -0.155637,-0.147072 -0.00844554,0.0636468 -0.0326314,0.14419 -0.0931111,0.207791l-0.0478014 -0.0592839c-0.0138141,0.0691454 -0.0530398,0.19826 -0.128895,0.284126 0,0 0.0303499,-0.0740086 0.0521742,-0.224057 -0.04565,0.100071 -0.133743,0.246132 -0.281415,0.322417 0,0 -0.0744389,-0.140697 -0.105194,-0.158284 0,0 -0.0112774,0.280824 -0.361067,0.398066 0,0 -0.00800025,-0.0432234 -0.103663,-0.102447 -0.112764,0.180604 -0.193427,0.245186 -0.287113,0.302253 -0.0035073,0.00255668 -0.00616905,-0.00104068 -0.00739485,0 -0.0936815,-0.0570675 -0.174339,-0.12165 -0.287108,-0.302253 -0.0956628,0.0592239 -0.103658,0.102447 -0.103658,0.102447 -0.34979,-0.117242 -0.35822,-0.383982 -0.35822,-0.383982 -0.0307502,0.0175865 -0.105189,0.158284 -0.105189,0.158284 -0.145025,-0.0749192 -0.231522,-0.222356 -0.277027,-0.326304 0.0216892,0.143204 0.0506382,0.21386 0.0506382,0.21386 -0.0758648,-0.0858764 -0.115066,-0.215016 -0.128875,-0.284151l-0.0478214 0.0593089c-0.0604797,-0.0636017 -0.0846656,-0.144145 -0.0931111,-0.207791 -0.0678695,0.102527 -0.155637,0.147072 -0.155637,0.147072 -0.0866569,-0.221035 -0.1669,-0.379579 -0.235785,-0.507453 -0.0224047,0.143209 -0.0724626,0.185347 -0.0724626,0.185347 0.0193777,-0.182655 -0.0363288,-0.363123 -0.0812033,-0.476703 -0.111513,-0.245366 -0.110007,-0.535221 0.0547059,-1.24279l0.0888883 0.000120079 0.100506 0.440174c0.0173714,-0.0641171 0.0339373,-0.15267 0.0239407,-0.234669 0,0 0.0486719,0.10719 0.0362038,0.300792 0.0903143,-0.0932162 0.110913,-0.173749 0.110913,-0.173749 0.0653429,0.114315 0.0614954,0.4045 0.0614954,0.4045 0.0307552,-0.0967285 0.0615054,-0.196389 0.0615054,-0.196389 0,0 0.178992,0.230321 0.242844,0.524684 0.010732,-0.0969536 0.0154301,-0.215041 -0.0088308,-0.298876 0.0947072,0.135284 0.118283,0.299186 0.0933963,0.450646 0.374106,-0.109002 0.619091,-0.581342 1.04182,-0.574992 0.408383,0.00613903 0.483302,0.432874 1.00291,0.555034 -0.0197079,-0.145806 0.00577379,-0.301343 0.0963482,-0.430713 -0.0261322,0.0902943 -0.0186472,0.2203 -0.00623909,0.320861 0.0582782,-0.295064 0.265454,-0.546644 0.265454,-0.546644 0,0 0.0307502,0.0996604 0.0615054,0.196389 0,0 -0.00384753,-0.290185 0.0614954,-0.4045 0,0 0.0206235,0.0805228 0.110923,0.173729 -0.0124632,-0.193587 0.0361938,-0.300772 0.0361938,-0.300772 -0.00999656,0.0819738 0.00658432,0.170502 0.0239507,0.234619l0.100496 -0.440124 0.0902943 -0.000120079c0.164718,0.707584 0.164828,0.99744 0.053305,1.24281l5.00328e-006 -5.00328e-006z"/>
    <path id="_162518720" class="fil3" d="M2.35245 6.38489c0.0423778,-0.0712017 0.0665737,-0.11398 0.116987,-0.14458 -0.00120079,-0.074724 0.0122731,-0.164288 0.0571475,-0.261952 0,0 -0.01531,0.135609 0.0215541,0.299031 0.0413621,0.160901 0.102357,0.272414 0.268957,0.349524 0.047171,-0.0523844 0.0668889,-0.0638719 0.105754,-0.0850958 -0.0187223,-0.0681147 -0.030425,-0.153391 -0.024356,-0.257004 0,0 0.0202483,0.111888 0.0875775,0.240553 0.0733531,0.118793 0.137645,0.19764 0.249194,0.284177l0.00247663 -0.00280684 0.00248163 0.00280684c0.111553,-0.0865368 0.175845,-0.165384 0.249199,-0.284177 0.0673292,-0.128664 0.0875775,-0.240553 0.0875775,-0.240553 0.00606898,0.103613 -0.0056337,0.188889 -0.024356,0.257004 0.0388655,0.0212239 0.0585834,0.0327115 0.105754,0.0850958 0.166624,-0.0771256 0.227589,-0.188664 0.268957,-0.349604 0.0368442,-0.163382 0.0215541,-0.298951 0.0215541,-0.298951 0.0448694,0.0976591 0.0583183,0.187213 0.0571225,0.261942 0.0504231,0.0306001 0.074629,0.0733832 0.117012,0.14459 0.0642722,-0.0495375 0.115276,-0.116592 0.154186,-0.186322 0.0254417,-0.0455849 0.0524544,-0.103978 0.0664836,-0.154636l0.0391107 -0.143424 0.113414 0.140652c0.0462554,-0.0690603 0.0689603,-0.173324 0.0476313,-0.30473 0.0498677,0.114355 0.0939016,0.189509 0.17508,0.246542 0.0645123,-0.153871 0.136349,-0.301333 0.216912,-0.449295 0.0575728,-0.105734 0.124362,-0.216907 0.165043,-0.330032 0.0438088,-0.12181 0.0514087,-0.239672 0.0438738,-0.368002 -0.00567873,-0.0967485 -0.0195328,-0.193872 -0.0360186,-0.289345 -0.0204284,-0.118313 -0.0383452,-0.229155 -0.0651327,-0.346312l-0.127824 0.586675c-0.0569674,-0.0589587 -0.117782,-0.116001 -0.166419,-0.1821 -0.0432184,0.143164 -0.044134,0.281825 -0.0405166,0.419941 -0.0489171,-0.082254 -0.106335,-0.160761 -0.135109,-0.252025 -0.142704,0.214065 -0.15256,0.380315 -0.177101,0.615389 -0.795547,-0.169456 -0.73974,-0.591853 -1.16273,-0.591143 -0.46456,0.000785516 -0.508234,0.456885 -1.15508,0.591143 -0.0245411,-0.235079 -0.0343976,-0.401328 -0.177101,-0.615389 -0.0287739,0.0912649 -0.0861916,0.169771 -0.135109,0.252025 0.00361737,-0.138116 0.00270177,-0.276777 -0.0405166,-0.419941 -0.0486369,0.0660984 -0.109452,0.123141 -0.166419,0.1821l-0.127824 -0.586675c-0.0267876,0.117157 -0.0447043,0.228 -0.0651327,0.346312 -0.0164858,0.0954727 -0.0303399,0.192596 -0.0360186,0.289345 -0.00753495,0.128329 6.50427e-005,0.246192 0.0438738,0.368002 0.0406817,0.113124 0.107471,0.224297 0.165043,0.330032 0.0805629,0.147962 0.1524,0.295424 0.216912,0.449295 0.0811783,-0.0570324 0.125212,-0.132187 0.17508,-0.246542 -0.021329,0.131406 0.0013759,0.23567 0.0476313,0.30473l0.113414 -0.140652 0.0391107 0.143424c0.0140292,0.0506582 0.0410419,0.109052 0.0664836,0.154636 0.0389105,0.0697308 0.089914,0.136785 0.154186,0.186322l-5.00328e-006 0z"/>
    <path id="_162518384" class="fil4" d="M2.07949 5.3868l-0.00065543 0.00108071c-0.0245411,-0.235079 -0.0343976,-0.401328 -0.177101,-0.615389 -0.0285187,0.0904444 -0.0851559,0.168365 -0.133783,0.249819 0.0172263,-0.00782013 0.0986898,-0.0462403 0.140577,-0.09135 0,0 0.135289,0.202453 0.170892,0.461143l7.0046e-005 -0.00529848 0 -5.00328e-006zm2.3165 0l0.00065543 0.00108071c0.0245411,-0.235079 0.0343976,-0.401328 0.177101,-0.615389 0.0285187,0.0904444 0.0851559,0.168365 0.133783,0.249819 -0.0172263,-0.00782013 -0.0986898,-0.0462403 -0.140577,-0.09135 0,0 -0.135289,0.202453 -0.170892,0.461143l-7.0046e-005 -0.00529848 0 -5.00328e-006zm0.312815 -0.363919l-0.000125082 -0.00478314c0.00070046,0.00250665 0.00141093,0.00443291 0.00210638,0.00564871l-0.0019813 -0.000865568zm-2.94213 0l0.000125082 -0.00478314c-0.00070046,0.00250665 -0.00141093,0.00443291 -0.00210638,0.00564871l0.0019813 -0.000865568z"/>
    <path id="_162518480" class="fil5" d="M2.9176 6.11895c0,0 -0.00856062,0.369007 0.31956,0.625335 0,0 0.291031,-0.219714 0.348093,-0.71548 0,0 -0.15978,0.315487 -0.336681,0.436612 0,0 -0.182605,-0.0901392 -0.330972,-0.346472l0 5.00328e-006zm2.13646 -1.8715c0.0212489,0.0999806 0.0370393,0.196639 0.0546959,0.298881 0.0164858,0.0954727 0.0303399,0.192596 0.0360186,0.289345 0.00753495,0.128329 -6.50427e-005,0.246192 -0.0438738,0.368002 -0.0406817,0.113124 -0.107471,0.224297 -0.165043,0.330032 -0.0805329,0.147902 -0.152345,0.295309 -0.216832,0.449115 -0.00067044,-0.0232102 -0.000510335,-0.0453448 0.000225148,-0.0667038 -0.0165308,-0.107461 -0.0580531,-0.447509 0.0370043,-0.670385 0,0 -0.0174965,0.192271 0.0318159,0.366811 0.131321,-0.295654 0.392022,-0.470139 0.26599,-1.36509l0 -1.00066e-005zm-3.63262 0c-0.0212489,0.0999806 -0.0370393,0.196639 -0.0546959,0.298881 -0.0164858,0.0954727 -0.0303399,0.192596 -0.0360186,0.289345 -0.00753495,0.128329 6.50427e-005,0.246192 0.0438738,0.368002 0.0406817,0.113124 0.107471,0.224297 0.165043,0.330032 0.0805329,0.147902 0.152345,0.295309 0.216832,0.449115 0.00067044,-0.0232052 0.000530348,-0.0453348 -0.000205135,-0.0666838 0.0165258,-0.107436 0.0580381,-0.447519 -0.0370243,-0.67041 0,0 0.0175065,0.192276 -0.0318109,0.366816 -0.131321,-0.295654 -0.392027,-0.470134 -0.265995,-1.36509l0 -5.00328e-006zm0.554019 1.78788c0.00125082,0.0019813 0.00251665,0.00392758 0.0038075,0.00585384l0.113414 -0.140652 0.0018262 0.00669439c0.0284237,-0.197465 -0.0527846,-0.379939 -0.0527846,-0.379939 0,0.330372 -0.0491473,0.469588 -0.0662635,0.508043zm0.376997 0.349584c0.0423778,-0.0712117 0.0665837,-0.114 0.117017,-0.1446 -0.00115076,-0.071637 0.0111723,-0.156878 0.0517239,-0.249849 -0.0311054,0.0224647 -0.185837,0.141043 -0.247212,0.318679 0.0235705,0.0278883 0.0496826,0.0535802 0.0784715,0.0757697zm0.195678 -0.107636c0.0413621,0.160961 0.102332,0.272529 0.268967,0.349659 0.047171,-0.0523844 0.0668889,-0.0638719 0.105754,-0.0850958 -0.00275181,-0.0100066 -0.00535852,-0.0203984 -0.0077751,-0.0311454 -0.351866,-0.169166 -0.38837,-0.524144 -0.38837,-0.524144l-0.000920604 0.000645424c-0.00260671,0.0325013 -0.00896588,0.151214 0.0223447,0.29008zm1.37923 0c-0.0413621,0.160961 -0.102332,0.272529 -0.268967,0.349659 -0.047171,-0.0523844 -0.0668889,-0.0638719 -0.105754,-0.0850958 0.00275181,-0.0100066 0.00535852,-0.0203984 0.0077751,-0.0311454 0.351866,-0.169166 0.38837,-0.524144 0.38837,-0.524144l0.000920604 0.000645424c0.00260671,0.0325013 0.00896588,0.151214 -0.0223447,0.29008zm0.0269377 -0.286813c0.0311054,0.0224647 0.185837,0.141043 0.247212,0.318679 -0.0235705,0.0278883 -0.0496826,0.0535802 -0.0784715,0.0757697 -0.0423828,-0.0712117 -0.0665837,-0.114 -0.117017,-0.1446 0.00114575,-0.071637 -0.0111673,-0.156878 -0.0517239,-0.249849zm0.545743 0.0448644c-0.00125082,0.0019813 -0.00251665,0.00392758 -0.0038075,0.00585384l-0.113414 -0.140652 -0.0018262 0.00669439c-0.0284237,-0.197465 0.0527846,-0.379939 0.0527846,-0.379939 0,0.330372 0.0491473,0.469588 0.0662635,0.508043z"/>
   </g>
  </g>
 </g>
</svg>
