<?xml version="1.0" encoding="UTF-8"?>
<!DOCTYPE svg PUBLIC "-//W3C//DTD SVG 1.1//EN" "http://www.w3.org/Graphics/SVG/1.1/DTD/svg11.dtd">
<!-- Creator: CorelDRAW 2020 (64-Bit) -->
<svg xmlns="http://www.w3.org/2000/svg" xml:space="preserve" width="156mm" height="224mm" version="1.1" style="shape-rendering:geometricPrecision; text-rendering:geometricPrecision; image-rendering:optimizeQuality; fill-rule:evenodd; clip-rule:evenodd"
viewBox="0 0 860.07 1234.96"
 xmlns:xlink="http://www.w3.org/1999/xlink"
 xmlns:xodm="http://www.corel.com/coreldraw/odm/2003">
 <defs>
  <style type="text/css">
   <![CDATA[
    .fil0 {fill:#473044}
    .fil1 {fill:#5C4559}
    .fil2 {fill:#645361}
    .fil3 {fill:#736670}
    .fil4 {fill:#8B8088}
   ]]>
  </style>
 </defs>
 <g id="Слой_x0020_1">
  <metadata id="CorelCorpID_0Corel-Layer"/>
  <g id="_912638080">
   <polygon id="_123021328" class="fil0" points="-0,0 860.07,0 860.07,1234.96 -0,1234.96 "/>
   <path id="_88452848" class="fil1" d="M860.07 220.55c-120.05,-91.48 -269.9,-145.84 -432.45,-145.84 -160.36,0 -308.39,52.88 -427.62,142.14l0 1018.12 860.07 0 0 -1014.41z"/>
   <path id="_123036688" class="fil2" d="M860.07 438.84c-109.78,-110.42 -261.79,-178.8 -429.76,-178.8 -168.25,0 -320.48,68.61 -430.31,179.36l0 795.56 860.07 0 0 -796.12z"/>
   <path id="_119801488" class="fil3" d="M860.07 659.85c-95.83,-131.59 -251.06,-217.15 -426.26,-217.15 -179.88,0 -338.71,90.19 -433.8,227.78l0 564.48 860.07 0 0 -575.12z"/>
   <path id="_123037312" class="fil4" d="M793.85 1234.96c28.85,-55.91 45.16,-119.34 45.16,-186.57 0,-225 -182.47,-407.47 -407.47,-407.47 -225,0 -407.47,182.47 -407.47,407.47 0,67.23 16.3,130.67 45.16,186.57l724.64 0z"/>
   <path id="_123011392" class="fil0" d="M843.17 181.74c0,-24.27 -19.68,-43.95 -43.95,-43.95 -24.27,0 -43.95,19.68 -43.95,43.95 0,24.27 19.68,43.95 43.95,43.95 24.27,0 43.95,-19.68 43.95,-43.95z"/>
   <path id="_123037168" class="fil1" d="M823.35 181.74c0,-13.32 -10.8,-24.12 -24.12,-24.12 -13.32,0 -24.12,10.8 -24.12,24.12 0,13.32 10.8,24.12 24.12,24.12 13.32,0 24.12,-10.8 24.12,-24.12z"/>
   <path id="_123023224" class="fil2" d="M113.77 599.79c0,-26.67 -21.62,-48.29 -48.29,-48.29 -26.67,0 -48.29,21.62 -48.29,48.29 0,26.67 21.62,48.29 48.29,48.29 26.67,0 48.29,-21.62 48.29,-48.29z"/>
   <path id="_123036016" class="fil3" d="M92.71 599.79c0,-15.04 -12.19,-27.23 -27.23,-27.23 -15.04,0 -27.23,12.19 -27.23,27.23 0,15.04 12.19,27.23 27.23,27.23 15.04,0 27.23,-12.19 27.23,-27.23z"/>
  </g>
 </g>
</svg>
