<?xml version="1.0" encoding="UTF-8" standalone="no"?>
<!DOCTYPE svg PUBLIC "-//W3C//DTD SVG 1.1//EN" "http://www.w3.org/Graphics/SVG/1.1/DTD/svg11.dtd">
<svg width="100%" height="100%" viewBox="0 0 443 635" version="1.1" xmlns="http://www.w3.org/2000/svg" xmlns:xlink="http://www.w3.org/1999/xlink" xml:space="preserve" xmlns:serif="http://www.serif.com/" style="fill-rule:evenodd;clip-rule:evenodd;stroke-linejoin:round;stroke-miterlimit:2;">
    <g id="Слой_x0020_1">
        <g>
            <path d="M0,0L442.205,0L442.205,634.958L0,634.958L0,0Z" style="fill-opacity:0;"/>
        </g>
        <g>
            <clipPath id="_clip1">
                <rect x="0" y="0" width="442.205" height="634.958"/>
            </clipPath>
            <g clip-path="url(#_clip1)">
                <g id="_88510920">
                    <path id="_1230213281" d="M218.476,738.508C451.991,738.508 641.364,549.134 641.364,315.62C641.364,82.105 451.991,-107.268 218.476,-107.268C-15.039,-107.268 -204.413,82.106 -204.413,315.62C-204.413,549.135 -15.038,738.508 218.476,738.508Z" style="fill:rgb(109,131,20);"/>
                    <path id="_88452848" d="M219.86,772.903C422.649,772.903 587.107,608.447 587.107,405.656C587.107,202.867 422.65,38.41 219.86,38.41C17.071,38.41 -147.384,202.866 -147.384,405.656C-147.384,608.445 17.072,772.903 219.86,772.903Z" style="fill:rgb(123,167,50);"/>
                    <path id="_123036688" d="M221.242,756.903C393.305,756.903 532.845,617.365 532.845,445.303C532.845,273.24 393.306,133.702 221.242,133.702C49.179,133.702 -90.358,273.241 -90.358,445.303C-90.358,617.366 49.181,756.903 221.242,756.903Z" style="fill:rgb(138,193,80);"/>
                    <path id="_119801488" d="M223.041,769.53C372.662,769.53 494.001,648.192 494.001,498.572C494.001,348.951 372.664,227.612 223.041,227.612C73.421,227.612 -47.917,348.95 -47.917,498.572C-47.917,648.193 73.421,769.53 223.041,769.53Z" style="fill:rgb(159,218,121);"/>
                    <path id="_123037312" d="M221.87,748.535C337.556,748.535 431.374,654.717 431.374,539.031C431.374,423.345 337.557,329.527 221.87,329.527C106.185,329.527 12.367,423.345 12.367,539.031C12.367,654.717 106.185,748.535 221.87,748.535Z" style="fill:rgb(200,251,218);"/>
                    <circle id="_123011392" cx="410.924" cy="93.442" r="22.595" style="fill:rgb(109,131,20);"/>
                    <circle id="_123037168" cx="410.924" cy="93.442" r="12.402" style="fill:rgb(123,167,50);"/>
                    <circle id="_123023224" cx="33.666" cy="308.383" r="24.829" style="fill:rgb(138,193,80);"/>
                    <circle id="_123036016" cx="33.666" cy="308.383" r="14.001" style="fill:rgb(159,218,121);"/>
                </g>
            </g>
        </g>
        <path d="M0,0L442.205,0L442.205,634.958L0,634.958L0,0Z" style="fill:none;"/>
    </g>
</svg>
