<?xml version="1.0" encoding="UTF-8"?>
<!DOCTYPE svg PUBLIC "-//W3C//DTD SVG 1.1//EN" "http://www.w3.org/Graphics/SVG/1.1/DTD/svg11.dtd">
<!-- Creator: CorelDRAW -->
<svg xmlns="http://www.w3.org/2000/svg" xml:space="preserve" width="156mm" height="224mm" style="shape-rendering:geometricPrecision; text-rendering:geometricPrecision; image-rendering:optimizeQuality; fill-rule:evenodd; clip-rule:evenodd"
viewBox="0 0 15.5551 22.3355"
 xmlns:xlink="http://www.w3.org/1999/xlink">
 <defs>
  <style type="text/css">
   <![CDATA[
    .fil0 {fill:#BC437B}
    .fil1 {fill:#D76087}
    .fil2 {fill:#E37E92}
    .fil3 {fill:#ECA2A8}
    .fil4 {fill:#F4C4B6}
   ]]>
  </style>
 </defs>
 <g id="Layer_x0020_1">
  <metadata id="CorelCorpID_0Corel-Layer"/>
  <g id="_166592776">
   <polygon id="_123021328" class="fil0" points="0,0 15.5551,0 15.5551,22.3355 0,22.3355 "/>
   <path id="_88452848" class="fil1" d="M15.5551 3.98886c-2.17123,-1.65451 -4.88143,-2.63773 -7.82123,-2.63773 -2.90028,0 -5.57758,0.956392 -7.73388,2.5708l0 18.4136 15.5551 0 0 -18.3467z"/>
   <path id="_123036688" class="fil2" d="M15.5551 7.93682c-1.98544,-1.99702 -4.7348,-3.23374 -7.77261,-3.23374 -3.04291,0 -5.7963,1.24096 -7.7825,3.2439l0 14.3886 15.5551 0 0 -14.3987z"/>
   <path id="_119801488" class="fil3" d="M15.5551 11.934c-1.73312,-2.37988 -4.54063,-3.92742 -7.70932,-3.92742 -3.25327,0 -6.12584,1.63124 -7.84578,4.11977l0 10.2092 15.5551 0 0 -10.4016z"/>
   <path id="_123037312" class="fil4" d="M14.3575 22.3355c0.521815,-1.0111 0.816735,-2.15834 0.816735,-3.37434 0,-4.06942 -3.30017,-7.3696 -7.3696,-7.3696 -4.06941,0 -7.36959,3.30017 -7.36959,7.3696 0,1.216 0.29491,2.36324 0.816735,3.37434l13.1057 0z"/>
   <path id="_123011392" class="fil0" d="M15.2496 3.28695c0,-0.438884 -0.355914,-0.794798 -0.794798,-0.794798 -0.438884,0 -0.794798,0.355914 -0.794798,0.794798 0,0.438884 0.355914,0.794798 0.794798,0.794798 0.438884,0 0.794798,-0.355914 0.794798,-0.794798z"/>
   <path id="_123037168" class="fil1" d="M14.8911 3.28695c0,-0.240895 -0.195357,-0.436252 -0.436252,-0.436252 -0.240885,0 -0.436242,0.195357 -0.436242,0.436252 0,0.240885 0.195357,0.436242 0.436242,0.436242 0.240895,0 0.436252,-0.195357 0.436252,-0.436242z"/>
   <path id="_123023224" class="fil2" d="M2.05764 10.8478c0,-0.482269 -0.391112,-0.873381 -0.873381,-0.873381 -0.482269,0 -0.873381,0.391112 -0.873381,0.873381 0,0.482269 0.391112,0.873381 0.873381,0.873381 0.482269,0 0.873381,-0.391112 0.873381,-0.873381z"/>
   <path id="_123036016" class="fil3" d="M1.67677 10.8478c0,-0.271966 -0.220554,-0.49252 -0.49252,-0.49252 -0.271956,0 -0.49251,0.220554 -0.49251,0.49252 0,0.271956 0.220554,0.49251 0.49251,0.49251 0.271966,0 0.49252,-0.220554 0.49252,-0.49251z"/>
  </g>
 </g>
</svg>
