<?xml version="1.0" encoding="UTF-8"?>
<!DOCTYPE svg PUBLIC "-//W3C//DTD SVG 1.1//EN" "http://www.w3.org/Graphics/SVG/1.1/DTD/svg11.dtd">
<!-- Creator: CorelDRAW 2020 (64-Bit) -->
<svg xmlns="http://www.w3.org/2000/svg" xml:space="preserve" width="156mm" height="223.999mm" version="1.1" style="shape-rendering:geometricPrecision; text-rendering:geometricPrecision; image-rendering:optimizeQuality; fill-rule:evenodd; clip-rule:evenodd"
viewBox="0 0 1115.75 1602.1"
 xmlns:xlink="http://www.w3.org/1999/xlink"
 xmlns:xodm="http://www.corel.com/coreldraw/odm/2003">
 <defs>
  <style type="text/css">
   <![CDATA[
    .fil0 {fill:#4293A1}
    .fil1 {fill:#5AC9B6}
    .fil2 {fill:#92E9C7}
    .fil3 {fill:#CEF8D3}
    .fil4 {fill:#E8FBE4}
   ]]>
  </style>
 </defs>
 <g id="Слой_x0020_1">
  <metadata id="CorelCorpID_0Corel-Layer"/>
  <g id="_1953122154016">
   <polygon id="_123021328" class="fil0" points="-0,0 1115.75,0 1115.75,1602.1 -0,1602.1 "/>
   <path id="_88452848" class="fil1" d="M1115.75 286.11c-155.74,-118.68 -350.14,-189.2 -561.01,-189.2 -208.03,0 -400.07,68.6 -554.74,184.4l0 1320.79 1115.75 0 0 -1315.98z"/>
   <path id="_123036688" class="fil2" d="M1115.75 569.3c-142.41,-143.24 -339.62,-231.95 -557.52,-231.95 -218.26,0 -415.76,89.01 -558.23,232.68l0 1032.07 1115.75 0 0 -1032.8z"/>
   <path id="_119801488" class="fil3" d="M1115.75 856.01c-124.31,-170.71 -325.7,-281.71 -552.98,-281.71 -233.35,0 -439.4,117 -562.77,295.5l0 732.3 1115.75 0 0 -746.09z"/>
   <path id="_123037312" class="fil4" d="M1029.84 1602.1c37.43,-72.53 58.58,-154.81 58.58,-242.04 0,-291.89 -236.72,-528.61 -528.61,-528.61 -291.89,0 -528.61,236.72 -528.61,528.61 0,87.22 21.15,169.51 58.58,242.04l940.06 0z"/>
   <path id="_123011392" class="fil0" d="M1093.84 235.77c0,-31.49 -25.52,-57.01 -57.01,-57.01 -31.49,0 -57.01,25.52 -57.01,57.01 0,31.49 25.52,57.01 57.01,57.01 31.49,0 57.01,-25.52 57.01,-57.01z"/>
   <path id="_123037168" class="fil1" d="M1068.12 235.77c0,-17.28 -14.01,-31.29 -31.29,-31.29 -17.28,0 -31.29,14.01 -31.29,31.29 0,17.28 14.01,31.29 31.29,31.29 17.28,0 31.29,-14.01 31.29,-31.29z"/>
   <path id="_123023224" class="fil2" d="M147.59 778.1c0,-34.6 -28.05,-62.65 -62.65,-62.65 -34.6,0 -62.65,28.05 -62.65,62.65 0,34.6 28.05,62.65 62.65,62.65 34.6,0 62.65,-28.05 62.65,-62.65z"/>
   <path id="_123036016" class="fil3" d="M120.27 778.1c0,-19.51 -15.82,-35.33 -35.33,-35.33 -19.51,0 -35.33,15.82 -35.33,35.33 0,19.51 15.82,35.33 35.33,35.33 19.51,0 35.33,-15.82 35.33,-35.33z"/>
  </g>
 </g>
</svg>
