<?xml version="1.0" encoding="UTF-8"?>
<!DOCTYPE svg PUBLIC "-//W3C//DTD SVG 1.1//EN" "http://www.w3.org/Graphics/SVG/1.1/DTD/svg11.dtd">
<!-- Creator: CorelDRAW -->
<svg xmlns="http://www.w3.org/2000/svg" xml:space="preserve" width="156.076mm" height="224.076mm" style="shape-rendering:geometricPrecision; text-rendering:geometricPrecision; image-rendering:optimizeQuality; fill-rule:evenodd; clip-rule:evenodd"
viewBox="0 0 2.61168 3.74955"
 xmlns:xlink="http://www.w3.org/1999/xlink">
 <defs>
  <style type="text/css">
   <![CDATA[
    .str0 {stroke:#CCFFCC;stroke-width:0.00127508}
    .fil5 {fill:none}
    .fil0 {fill:#63A1CF}
    .fil1 {fill:#7AC0E1}
    .fil2 {fill:#A1DAEE}
    .fil3 {fill:#CFF6FF}
    .fil4 {fill:white}
   ]]>
  </style>
   <clipPath id="id0">
    <path d="M0.000637541 0.000637541l2.61041 0 0 3.74827 -2.61041 0 0 -3.74827z"/>
   </clipPath>
 </defs>
 <g id="Layer_x0020_1">
  <metadata id="CorelCorpID_0Corel-Layer"/>
  <g>
  </g>
  <g style="clip-path:url(#id0)">
   <g>
    <g id="_120673488">
     <path id="_123021328" class="fil0" d="M1.29034 4.36018c1.37848,0 2.49639,-1.11791 2.49639,-2.49639 0,-1.37848 -1.1179,-2.49639 -2.49639,-2.49639 -1.37848,0 -2.49639,1.11791 -2.49639,2.49639 0,1.37848 1.11791,2.49639 2.49639,2.49639z"/>
     <path id="_88452848" class="fil1" d="M1.29851 4.56322c1.1971,0 2.16792,-0.970815 2.16792,-2.16792 0,-1.1971 -0.970815,-2.16792 -2.16792,-2.16792 -1.1971,0 -2.16791,0.970815 -2.16791,2.16792 0,1.1971 0.970813,2.16792 2.16791,2.16792z"/>
     <path id="_123036688" class="fil2" d="M1.30667 4.46877c1.01572,0 1.83944,-0.82372 1.83944,-1.83944 0,-1.01572 -0.82372,-1.83944 -1.83944,-1.83944 -1.01572,0 -1.83944,0.823722 -1.83944,1.83944 0,1.01572 0.823722,1.83944 1.83944,1.83944z"/>
     <path id="_119801488" class="fil3" d="M1.31729 4.54331c0.883239,0 1.59952,-0.716278 1.59952,-1.59952 0,-0.883239 -0.716278,-1.59952 -1.59952,-1.59952 -0.883239,0 -1.59952,0.71628 -1.59952,1.59952 0,0.883239 0.716278,1.59952 1.59952,1.59952z"/>
     <path id="_123037312" class="fil4" d="M1.31038 4.41938c0.682914,0 1.23674,-0.553823 1.23674,-1.23674 0,-0.682916 -0.553823,-1.23674 -1.23674,-1.23674 -0.682916,0 -1.23674,0.553823 -1.23674,1.23674 0,0.682914 0.553823,1.23674 1.23674,1.23674z"/>
     <circle id="_123011392" class="fil0" cx="2.4264" cy="0.552242" r="0.13338"/>
     <circle id="_123037168" class="fil1" cx="2.4264" cy="0.552242" r="0.0732091"/>
     <circle id="_123023224" class="fil2" cx="0.199375" cy="1.82108" r="0.146568"/>
     <circle id="_123036016" class="fil3" cx="0.199375" cy="1.82108" r="0.0826517"/>
    </g>
   </g>
  </g>
  <polygon class="fil5 str0" points="0.000637541,0.000637541 2.61104,0.000637541 2.61104,3.74891 0.000637541,3.74891 "/>
 </g>
</svg>
