<?xml version="1.0" encoding="UTF-8"?>
<!DOCTYPE svg PUBLIC "-//W3C//DTD SVG 1.1//EN" "http://www.w3.org/Graphics/SVG/1.1/DTD/svg11.dtd">
<!-- Creator: CorelDRAW -->
<svg xmlns="http://www.w3.org/2000/svg" xml:space="preserve" width="156mm" height="223.999mm" style="shape-rendering:geometricPrecision; text-rendering:geometricPrecision; image-rendering:optimizeQuality; fill-rule:evenodd; clip-rule:evenodd"
viewBox="0 0 19.626 28.1808"
 xmlns:xlink="http://www.w3.org/1999/xlink">
 <defs>
  <style type="text/css">
   <![CDATA[
    .fil6 {fill:none}
    .fil1 {fill:#359199}
    .fil2 {fill:#47BAB6}
    .fil3 {fill:#62D7BF}
    .fil4 {fill:#81F0C8}
    .fil5 {fill:#C8FBDA}
    .fil0 {fill:black;fill-opacity:0.000000}
   ]]>
  </style>
   <clipPath id="id0">
    <path d="M0 0l19.626 0 0 28.1808 -19.626 0 0 -28.1808z"/>
   </clipPath>
   <clipPath id="id1">
    <path d="M0 0l19.626 0 0 28.1808 -19.626 0 0 -28.1808z"/>
   </clipPath>
 </defs>
 <g id="Слой_x0020_1">
  <metadata id="CorelCorpID_0Corel-Layer"/>
  <g style="clip-path:url(#id0)">
   <polygon class="fil0" points="0,0 19.626,0 19.626,28.1808 0,28.1808 "/>
  </g>
  <g style="clip-path:url(#id1)">
   <g id="_88510920">
    <path id="_1230213281" class="fil1" d="M9.69642 32.7766c10.3639,0 18.7687,-8.40483 18.7687,-18.7687 0,-10.3639 -8.40477,-18.7687 -18.7687,-18.7687 -10.3639,0 -18.7687,8.40485 -18.7687,18.7687 0,10.3639 8.40485,18.7687 18.7687,18.7687z"/>
    <path id="_88452848" class="fil2" d="M9.75786 34.3031c9.00022,0 16.2992,-7.29891 16.2992,-16.2992 0,-9.00021 -7.29892,-16.2992 -16.2992,-16.2992 -9.00021,0 -16.2991,7.29892 -16.2991,16.2992 0,9.00022 7.29891,16.2992 16.2991,16.2992z"/>
    <path id="_123036688" class="fil3" d="M9.8192 33.593c7.63654,0 13.8296,-6.193 13.8296,-13.8295 0,-7.63654 -6.19301,-13.8295 -13.8296,-13.8295 -7.63653,0 -13.8295,6.19303 -13.8295,13.8295 0,7.63654 6.19304,13.8295 13.8295,13.8295z"/>
    <path id="_119801488" class="fil4" d="M9.89905 34.1534c6.6405,0 12.0258,-5.38522 12.0258,-12.0257 0,-6.6405 -5.38523,-12.0258 -12.0258,-12.0258 -6.64049,0 -12.0257,5.38524 -12.0257,12.0258 0,6.6405 5.38523,12.0257 12.0257,12.0257z"/>
    <path id="_123037312" class="fil5" d="M9.84709 33.2216c5.13439,0 9.29824,-4.16384 9.29824,-9.29823 0,-5.13441 -4.16384,-9.29824 -9.29824,-9.29824 -5.13439,0 -9.29823,4.16384 -9.29823,9.29824 0,5.13438 4.16384,9.29823 9.29823,9.29823z"/>
    <circle id="_123011392" class="fil1" cx="18.2377" cy="4.14715" r="1.0028"/>
    <circle id="_123037168" class="fil2" cx="18.2377" cy="4.14715" r="0.550407"/>
    <circle id="_123023224" class="fil3" cx="1.49418" cy="13.6867" r="1.10195"/>
    <circle id="_123036016" class="fil4" cx="1.49418" cy="13.6867" r="0.621401"/>
    <g>
     <path id="_87844912" class="fil1" d="M45.5723 29.4662c8.49085,0 15.3767,-6.88582 15.3767,-15.3767 0,-8.49085 -6.88581,-15.3767 -15.3767,-15.3767 -8.49085,0 -15.3767,6.88581 -15.3767,15.3767 0,8.49084 6.88581,15.3767 15.3767,15.3767z"/>
     <path id="_88272752" class="fil2" d="M45.6226 30.7168c7.37363,0 13.3534,-5.97979 13.3534,-13.3534 0,-7.37362 -5.97978,-13.3534 -13.3534,-13.3534 -7.37363,0 -13.3534,5.97979 -13.3534,13.3534 0,7.37363 5.97978,13.3534 13.3534,13.3534z"/>
     <path id="_88272560" class="fil3" d="M45.6729 30.1351c6.25642,0 11.3302,-5.07375 11.3302,-11.3302 0,-6.25641 -5.07375,-11.3302 -11.3302,-11.3302 -6.25639,0 -11.3302,5.07377 -11.3302,11.3302 0,6.25642 5.07377,11.3302 11.3302,11.3302z"/>
     <path id="_88272944" class="fil4" d="M45.7383 30.5942c5.44037,0 9.85234,-4.41197 9.85234,-9.85234 0,-5.44036 -4.41197,-9.85233 -9.85234,-9.85233 -5.44036,0 -9.85233,4.41197 -9.85233,9.85233 0,5.44037 4.41197,9.85234 9.85233,9.85234z"/>
     <path id="_88355776" class="fil5" d="M45.6957 29.8308c4.20646,0 7.61777,-3.41131 7.61777,-7.61777 0,-4.20645 -3.41131,-7.61776 -7.61777,-7.61776 -4.20645,0 -7.61776,3.41131 -7.61776,7.61776 0,4.20646 3.41131,7.61777 7.61776,7.61777z"/>
     <circle id="_88565704" class="fil1" cx="52.5699" cy="6.01094" r="0.821563"/>
     <circle id="_88565776" class="fil2" cx="52.5699" cy="6.01094" r="0.450936"/>
     <circle id="_88565896" class="fil3" cx="38.8524" cy="13.8264" r="0.902796"/>
     <circle id="_88565224" class="fil4" cx="38.8524" cy="13.8264" r="0.509098"/>
    </g>
   </g>
  </g>
  <polygon class="fil6" points="0,0 19.626,0 19.626,28.1808 0,28.1808 "/>
 </g>
</svg>
