<?xml version="1.0" encoding="UTF-8"?>
<!DOCTYPE svg PUBLIC "-//W3C//DTD SVG 1.1//EN" "http://www.w3.org/Graphics/SVG/1.1/DTD/svg11.dtd">
<!-- Creator: CorelDRAW 2020 (64-Bit) -->
<svg xmlns="http://www.w3.org/2000/svg" xml:space="preserve" width="156.002mm" height="224mm" version="1.1" style="shape-rendering:geometricPrecision; text-rendering:geometricPrecision; image-rendering:optimizeQuality; fill-rule:evenodd; clip-rule:evenodd"
viewBox="0 0 1856.47 2665.67"
 xmlns:xlink="http://www.w3.org/1999/xlink"
 xmlns:xodm="http://www.corel.com/coreldraw/odm/2003">
 <defs>
  <style type="text/css">
   <![CDATA[
    .fil0 {fill:#684351}
    .fil1 {fill:#815A5C}
    .fil2 {fill:#A47D6E}
    .fil3 {fill:#BC9C83}
    .fil4 {fill:#D3BE9C}
   ]]>
  </style>
 </defs>
 <g id="Слой_x0020_1">
  <metadata id="CorelCorpID_0Corel-Layer"/>
  <g id="_1953184845824">
   <g id="_912638080">
    <polygon id="_123021328" class="fil0" points="-0,0 1856.45,0 1856.45,2665.65 -0,2665.65 "/>
    <path id="_88452848" class="fil1" d="M1856.45 476.05c-259.13,-197.46 -582.58,-314.79 -933.44,-314.79 -346.13,0 -665.66,114.14 -923.01,306.81l0 2197.6 1856.45 0 0 -2189.59 0 -0.02z"/>
    <path id="_123036688" class="fil2" d="M1856.45 947.23c-236.96,-238.34 -565.07,-385.94 -927.63,-385.94 -363.16,0 -691.75,148.09 -928.82,387.15l0 1717.21 1856.45 0 0 -1718.42z"/>
    <path id="_119801488" class="fil3" d="M1856.45 1424.28c-206.85,-284.04 -541.91,-468.72 -920.08,-468.72 -388.27,0 -731.1,194.67 -936.35,491.66l0 1218.42 1856.45 0 0 -1241.39 -0.02 0.02z"/>
    <path id="_123037312" class="fil4" d="M1713.52 2665.65c62.27,-120.68 97.48,-257.59 97.48,-402.71 0,-485.66 -393.86,-879.52 -879.52,-879.52 -485.66,0 -879.52,393.86 -879.52,879.52 0,145.11 35.18,282.05 97.48,402.71l1564.13 0 -0.04 0z"/>
    <path id="_123011392" class="fil0" d="M1819.97 392.28c0,-52.39 -42.48,-94.87 -94.87,-94.87 -52.39,0 -94.87,42.48 -94.87,94.87 0,52.39 42.48,94.87 94.87,94.87 52.39,0 94.87,-42.48 94.87,-94.87z"/>
    <path id="_123037168" class="fil1" d="M1777.19 392.28c0,-28.75 -23.31,-52.06 -52.06,-52.06 -28.75,0 -52.06,23.31 -52.06,52.06 0,28.75 23.31,52.06 52.06,52.06 28.75,0 52.06,-23.31 52.06,-52.06z"/>
    <path id="_123023224" class="fil2" d="M245.57 1294.64c0,-57.57 -46.67,-104.23 -104.23,-104.23 -57.57,0 -104.23,46.67 -104.23,104.23 0,57.57 46.67,104.23 104.23,104.23 57.57,0 104.23,-46.67 104.23,-104.23z"/>
    <path id="_123036016" class="fil3" d="M200.11 1294.64c0,-32.46 -26.31,-58.78 -58.78,-58.78 -32.46,0 -58.78,26.31 -58.78,58.78 0,32.46 26.31,58.78 58.78,58.78 32.46,0 58.78,-26.31 58.78,-58.78z"/>
   </g>
  </g>
 </g>
</svg>
