<?xml version="1.0" encoding="UTF-8"?>
<!DOCTYPE svg PUBLIC "-//W3C//DTD SVG 1.1//EN" "http://www.w3.org/Graphics/SVG/1.1/DTD/svg11.dtd">
<!-- Creator: CorelDRAW 2020 (64-Bit) -->
<svg xmlns="http://www.w3.org/2000/svg" xml:space="preserve" width="156mm" height="224mm" version="1.1" style="shape-rendering:geometricPrecision; text-rendering:geometricPrecision; image-rendering:optimizeQuality; fill-rule:evenodd; clip-rule:evenodd"
viewBox="0 0 1770.89 2542.81"
 xmlns:xlink="http://www.w3.org/1999/xlink"
 xmlns:xodm="http://www.corel.com/coreldraw/odm/2003">
 <defs>
  <style type="text/css">
   <![CDATA[
    .fil0 {fill:#FA7543}
    .fil1 {fill:#FF9E46}
    .fil2 {fill:#FFBF62}
    .fil3 {fill:#FFD884}
    .fil4 {fill:#FFF1B0}
   ]]>
  </style>
 </defs>
 <g id="Слой_x0020_1">
  <metadata id="CorelCorpID_0Corel-Layer"/>
  <g id="_653430256">
   <g id="_166592776">
    <polygon id="_123021328" class="fil0" points="0,0 1770.89,0 1770.89,2542.81 0,2542.81 "/>
    <path id="_88452848" class="fil1" d="M1770.89 454.12c-247.19,-188.36 -555.73,-300.29 -890.42,-300.29 -330.18,0 -634.98,108.88 -880.47,292.68l0 2096.31 1770.88 0 0 -2088.7 0 0z"/>
    <path id="_123036688" class="fil2" d="M1770.89 903.57c-226.03,-227.35 -539.04,-368.15 -884.88,-368.15 -346.42,0 -659.88,141.28 -886,369.3l0 1638.08 1770.88 0 0 -1639.23 0 -0.01z"/>
    <path id="_119801488" class="fil3" d="M1770.89 1358.64c-197.31,-270.94 -516.93,-447.12 -877.67,-447.12 -370.37,0 -697.4,185.71 -893.21,469.02l0 1162.28 1770.88 0 0 -1184.18 0 0.01z"/>
    <path id="_123037312" class="fil4" d="M1634.54 2542.81c59.41,-115.11 92.98,-245.72 92.98,-384.15 0,-463.29 -375.71,-839 -839,-839 -463.29,0 -839,375.71 -839,839 0,138.44 33.57,269.05 92.98,384.15l1492.03 0 0 0z"/>
    <path id="_123011392" class="fil0" d="M1736.11 374.21c0,-49.97 -40.52,-90.48 -90.48,-90.48 -49.97,0 -90.48,40.52 -90.48,90.48 0,49.97 40.52,90.48 90.48,90.48 49.97,0 90.48,-40.52 90.48,-90.48z"/>
    <path id="_123037168" class="fil1" d="M1695.29 374.21c0,-27.42 -22.24,-49.67 -49.67,-49.67 -27.42,0 -49.66,22.24 -49.66,49.67 0,27.42 22.24,49.66 49.66,49.66 27.42,0 49.67,-22.24 49.67,-49.66z"/>
    <path id="_123023224" class="fil2" d="M234.26 1234.98c0,-54.9 -44.53,-99.43 -99.43,-99.43 -54.9,0 -99.43,44.53 -99.43,99.43 0,54.9 44.53,99.43 99.43,99.43 54.9,0 99.43,-44.53 99.43,-99.43z"/>
    <path id="_123036016" class="fil3" d="M190.89 1234.98c0,-30.96 -25.11,-56.07 -56.07,-56.07 -30.96,0 -56.07,25.11 -56.07,56.07 0,30.96 25.11,56.07 56.07,56.07 30.96,0 56.07,-25.11 56.07,-56.07z"/>
   </g>
  </g>
 </g>
</svg>
