<?xml version="1.0" encoding="UTF-8"?>
<!DOCTYPE svg PUBLIC "-//W3C//DTD SVG 1.1//EN" "http://www.w3.org/Graphics/SVG/1.1/DTD/svg11.dtd">
<!-- Creator: CorelDRAW -->
<svg xmlns="http://www.w3.org/2000/svg" xml:space="preserve" width="129.436mm" height="197.989mm" style="shape-rendering:geometricPrecision; text-rendering:geometricPrecision; image-rendering:optimizeQuality; fill-rule:evenodd; clip-rule:evenodd"
viewBox="0 0 5.72605 8.75869"
 xmlns:xlink="http://www.w3.org/1999/xlink">
 <defs>
  <style type="text/css">
   <![CDATA[
    .fil0 {fill:none}
    .fil2 {fill:#501D33}
    .fil5 {fill:#623448}
    .fil3 {fill:#ADA5B7}
    .fil1 {fill:#D1716A}
    .fil4 {fill:white}
   ]]>
  </style>
 </defs>
 <g id="Layer_x0020_1">
  <metadata id="CorelCorpID_0Corel-Layer"/>
  <g id="_284244552">
   <rect id="_286474768" class="fil0" width="5.72605" height="8.7587"/>
   <g id="_162254984">
    <g>
     <path id="_166341936" class="fil1" d="M3.5786 3.24217c-0.299701,0 -0.430063,0.380591 -0.179962,0.568967 0,0 -0.0922104,-0.019978 -0.145349,-0.116771 0.0498301,0.257056 0.337764,0.376083 0.546622,0.224518 -0.0961653,0.0270385 -0.228062,0.0202435 -0.299051,-0.0420264 0.0248973,0.00617567 0.0509272,0.0094847 0.0777356,0.0094847 0.177851,0 0.322086,-0.144235 0.322086,-0.322086 0,-0.177851 -0.144235,-0.322086 -0.322086,-0.322086l4.42383e-006 0z"/>
     <g>
      <path id="_166347840" class="fil2" d="M3.35814 3.57463c0,0 0.0164301,0.249102 0.287279,0.261829 0,0 -0.162266,-0.0209911 -0.190415,-0.242231l-0.0639377 -0.0335017 -0.0329266 0.0139041z"/>
      <circle id="_166327368" class="fil2" cx="3.57833" cy="3.54116" r="0.222908"/>
      <circle id="_166331256" class="fil3" cx="3.57833" cy="3.54116" r="0.165624"/>
      <ellipse id="_166341432" class="fil4" cx="3.57584" cy="3.60319" rx="0.118386" ry="0.0911619"/>
      <g>
       <g>
        <ellipse id="_166343352" class="fil2" cx="3.57478" cy="3.54143" rx="0.114374" ry="0.11283"/>
        <path id="_166336056" class="fil5" d="M3.63744 3.47627c0.0174786,0.0163682 0.0283922,0.0395181 0.0283922,0.0651631 0,0.0496 -0.0407656,0.0898304 -0.0910513,0.0898304 -0.0395358,0 -0.0731746,-0.0248796 -0.0857516,-0.0596244 0.0163239,0.0152888 0.0383723,0.0246761 0.0626547,0.0246761 0.0502813,0 0.0910469,-0.0402303 0.0910469,-0.0898304 0,-0.0105951 -0.00187571,-0.0207743 -0.0052909,-0.0302148z"/>
        <circle id="_166327584" class="fil4" transform="matrix(0.933479 -0.708851 0.655837 0.636869 3.54545 3.5004)" r="0.0484896"/>
       </g>
       <ellipse id="_166322904" class="fil4" transform="matrix(0.643182 -0.318217 0.318217 0.643182 3.61971 3.60908)" rx="0.0387085" ry="0.0219865"/>
      </g>
      <path id="_166352376" class="fil2" d="M3.88524 3.59971c0,0 -0.0156294,0.204107 -0.196259,0.252756 0.150238,0.032586 0.292703,-0.0625884 0.196259,-0.252756z"/>
     </g>
    </g>
    <g>
     <path id="_166322784" class="fil1" d="M2.14745 3.24465c0.299701,0 0.430063,0.380591 0.179962,0.568967 0,0 0.0922104,-0.019978 0.145349,-0.116771 -0.0498301,0.257056 -0.337764,0.376083 -0.546622,0.224518 0.0961653,0.0270385 0.228062,0.0202435 0.299051,-0.0420264 -0.0248973,0.00617567 -0.0509272,0.0094847 -0.0777356,0.0094847 -0.177851,0 -0.322086,-0.144235 -0.322086,-0.322086 0,-0.177851 0.144235,-0.322086 0.322086,-0.322086l-4.42383e-006 0z"/>
     <g>
      <path id="_166323096" class="fil2" d="M2.36792 3.57711c0,0 -0.0164301,0.249102 -0.287279,0.261829 0,0 0.162266,-0.0209911 0.190415,-0.242231l0.0639377 -0.0335017 0.0329266 0.0139041z"/>
      <circle id="_166354752" class="fil2" cx="2.14773" cy="3.54365" r="0.222908"/>
      <circle id="_166344552" class="fil3" cx="2.14773" cy="3.54365" r="0.165624"/>
      <ellipse id="_166353024" class="fil4" cx="2.15022" cy="3.60568" rx="0.118386" ry="0.0911619"/>
      <g>
       <g>
        <ellipse id="_166322616" class="fil2" cx="2.15127" cy="3.54392" rx="0.114374" ry="0.11283"/>
        <path id="_166327056" class="fil5" d="M2.08862 3.47875c-0.0174786,0.0163682 -0.0283922,0.0395181 -0.0283922,0.0651631 0,0.0496 0.0407656,0.0898304 0.0910513,0.0898304 0.0395358,0 0.0731746,-0.0248796 0.0857516,-0.0596244 -0.0163239,0.0152888 -0.0383723,0.0246761 -0.0626547,0.0246761 -0.0502813,0 -0.0910469,-0.0402303 -0.0910469,-0.0898304 0,-0.0105951 0.00187571,-0.0207743 0.0052909,-0.0302148z"/>
        <circle id="_166332936" class="fil4" transform="matrix(-0.933479 -0.708851 -0.655837 0.636869 2.18061 3.50289)" r="0.0484896"/>
       </g>
       <ellipse id="_166330248" class="fil4" transform="matrix(-0.643182 -0.318217 -0.318217 0.643182 2.10635 3.61156)" rx="0.0387085" ry="0.0219865"/>
      </g>
      <path id="_166324872" class="fil2" d="M1.84082 3.60219c0,0 0.0156294,0.204107 0.196259,0.252756 -0.150238,0.032586 -0.292703,-0.0625884 -0.196259,-0.252756z"/>
     </g>
    </g>
   </g>
  </g>
 </g>
</svg>
