<?xml version="1.0" encoding="UTF-8"?>
<!DOCTYPE svg PUBLIC "-//W3C//DTD SVG 1.1//EN" "http://www.w3.org/Graphics/SVG/1.1/DTD/svg11.dtd">
<!-- Creator: CorelDRAW -->
<svg xmlns="http://www.w3.org/2000/svg" xml:space="preserve" width="129.436mm" height="197.989mm" style="shape-rendering:geometricPrecision; text-rendering:geometricPrecision; image-rendering:optimizeQuality; fill-rule:evenodd; clip-rule:evenodd"
viewBox="0 0 22.0832 33.779"
 xmlns:xlink="http://www.w3.org/1999/xlink">
 <defs>
  <style type="text/css">
   <![CDATA[
    .fil0 {fill:none}
    .fil2 {fill:#501D33}
    .fil5 {fill:#542C51}
    .fil6 {fill:#88496E}
    .fil3 {fill:#ADA5B7}
    .fil1 {fill:#D77D75}
    .fil7 {fill:#FFCFA5}
    .fil4 {fill:white}
   ]]>
  </style>
 </defs>
 <g id="Layer_x0020_1">
  <metadata id="CorelCorpID_0Corel-Layer"/>
  <g id="_254785440">
   <rect id="_289774056" class="fil0" width="22.0832" height="33.779"/>
   <g id="_162380768">
    <circle id="_162380984" class="fil1" cx="13.9138" cy="13.6887" r="1.26308"/>
    <path id="_163720176" class="fil1" d="M12.7033 14.0244c0,0 0.129442,1.05471 1.34716,1.18895 0,0 -0.771859,-0.249296 -0.886918,-1.12183 -0.11506,-0.872536 -0.460239,-0.0671181 -0.460239,-0.0671181z"/>
    <path id="_161413872" class="fil2" d="M14.6568 13.2625c0.0361694,0.133093 0.0734819,0.289168 0.0549195,0.433095 -0.0513537,0.397983 -0.339225,0.767099 -0.797365,0.79054 -0.474058,0.0242608 -0.878217,-0.340573 -0.902478,-0.814614 -0.00322454,-0.0628188 0.000477709,-0.12446 0.0102878,-0.184106l1.63464 -0.224916z"/>
    <path id="_161413800" class="fil3" d="M14.4436 13.3176c0.0203197,0.0570862 0.0541347,0.069302 0.0647808,0.277225 0.00472591,0.0925903 -0.0162592,0.260812 -0.103919,0.388685 -0.109174,0.159316 -0.30599,0.271936 -0.501356,0.281934 -0.352225,0.0180335 -0.652551,-0.253066 -0.670567,-0.605275 -0.00325866,-0.0636206 0.00298568,-0.125603 0.0173681,-0.184464l1.19369 -0.158105z"/>
    <path id="_161413728" class="fil4" d="M13.8551 13.5158c0.251787,-0.0128811 0.464043,0.134049 0.473956,0.327811 0.00992953,0.193848 -0.186221,0.361609 -0.437991,0.37449 -0.251804,0.0128981 -0.464043,-0.133946 -0.473973,-0.327811 -0.00991247,-0.193762 0.186238,-0.361592 0.438008,-0.37449z"/>
    <path id="_161413656" class="fil5" d="M14.2417 13.3889c0.0294132,0.0545442 0.0478221,0.0649514 0.0556531,0.217835 0.00305393,0.0597307 -0.0062614,0.164537 -0.0536399,0.241687 -0.0738914,0.120417 -0.216419,0.207872 -0.364646,0.215447 -0.243273,0.0124546 -0.45048,-0.172044 -0.462781,-0.412024 -0.00337809,-0.0658044 0.00834285,-0.128999 0.0320236,-0.186272l0.79339 -0.0766723z"/>
    <path id="_161413584" class="fil6" d="M14.1443 13.43c0.0367836,0.0515926 0.0597648,0.113746 0.0632282,0.181393 0.00977598,0.191032 -0.139303,0.354017 -0.332997,0.363929 -0.152253,0.0077969 -0.286728,-0.0813982 -0.342023,-0.212734 0.0658897,0.0556702 0.152662,0.087472 0.246191,0.0826949 0.19366,-0.00992953 0.342722,-0.172897 0.332963,-0.363946 -0.000835991,-0.0168051 -0.00296862,-0.0333032 -0.00614198,-0.0493405l0.0387798 -0.00199614z"/>
    <path id="_161413512" class="fil4" d="M13.9468 13.4401c-0.00228618,0.0508419 -0.0305222,0.105864 -0.082439,0.149642 -0.092522,0.0780543 -0.22512,0.0908671 -0.296129,0.0286455 -0.0447852,-0.0392233 -0.0543394,-0.098954 -0.0321259,-0.157269l0.410693 -0.0210192z"/>
    <path id="_161413440" class="fil4" d="M14.0135 13.8279c0.0516267,-0.0289185 0.106802,-0.0285772 0.123215,0.000733625 0.0164127,0.0293109 -0.0120792,0.0765358 -0.063723,0.10542 -0.0516267,0.0289355 -0.106785,0.0285943 -0.123198,-0.000716564 -0.0164298,-0.0293109 0.0121133,-0.0765188 0.0637059,-0.105437z"/>
    <path id="_162382064" class="fil7" d="M14.7454 12.6374c-0.00552778,0.0252162 0.379813,0.521522 0.110692,1.24646 0,0 0.38459,-0.445242 0.351782,-0.885298 -0.0328084,-0.440055 -0.462474,-0.361165 -0.462474,-0.361165z"/>
    <path id="_161413368" class="fil2" d="M13.0601 13.7276c0,0 1.88927,-0.484499 1.95305,-0.560012 0.0637912,-0.0754951 -1.73601,0.211523 -1.98033,0.287052 -0.244297,0.0755292 -0.0934092,0.305563 0.0272806,0.27296z"/>
    <path id="_164636024" class="fil2" d="M14.1415 14.915c0,0 1.0901,0.0628358 1.019,-1.11777 -0.214918,0.48409 -0.484312,0.852609 -1.019,1.11777z"/>
    <path id="_163721040" class="fil7" d="M13.1426 13.1373c0,0 0.335591,-0.359561 1.13621,-0.263678 0.800624,0.0958831 -1.00677,0.316414 -1.13621,0.263678z"/>
    <path id="_163721112" class="fil2" d="M13.0094 13.6378c-0.00479415,0.0335591 -0.134236,0.594475 0.297237,1.09307 0,0 -0.206149,-0.340385 -0.11506,-0.963625l-0.0910889 -0.206149 -0.0910889 0.0767064z"/>
    <circle id="_163720392" class="fil1" cx="8.16938" cy="13.6887" r="1.26308"/>
    <path id="_163720464" class="fil1" d="M9.37989 14.0244c0,0 -0.129442,1.05471 -1.34716,1.18895 0,0 0.771859,-0.249296 0.886918,-1.12183 0.11506,-0.872536 0.460239,-0.0671181 0.460239,-0.0671181z"/>
    <path id="_163720320" class="fil2" d="M7.42638 13.2625c-0.0361694,0.133093 -0.0734819,0.289168 -0.0549195,0.433095 0.0513537,0.397983 0.339225,0.767099 0.797365,0.79054 0.474058,0.0242608 0.878217,-0.340573 0.902478,-0.814614 0.00322454,-0.0628188 -0.000477709,-0.12446 -0.0102878,-0.184106l-1.63464 -0.224916z"/>
    <path id="_164631152" class="fil3" d="M7.63961 13.3176c-0.0203197,0.0570862 -0.0541347,0.069302 -0.0647808,0.277225 -0.00472591,0.0925903 0.0162592,0.260812 0.103919,0.388685 0.109174,0.159316 0.30599,0.271936 0.501356,0.281934 0.352225,0.0180335 0.652551,-0.253066 0.670567,-0.605275 0.00325866,-0.0636206 -0.00298568,-0.125603 -0.0173681,-0.184464l-1.19369 -0.158105z"/>
    <path id="_166047440" class="fil4" d="M8.22808 13.5158c-0.251787,-0.0128811 -0.464043,0.134049 -0.473956,0.327811 -0.00992953,0.193848 0.186221,0.361609 0.437991,0.37449 0.251804,0.0128981 0.464043,-0.133946 0.473973,-0.327811 0.00991247,-0.193762 -0.186238,-0.361592 -0.438008,-0.37449z"/>
    <path id="_163721328" class="fil5" d="M7.84148 13.3889c-0.0294132,0.0545442 -0.0478221,0.0649514 -0.0556531,0.217835 -0.00305393,0.0597307 0.0062614,0.164537 0.0536399,0.241687 0.0738914,0.120417 0.216419,0.207872 0.364646,0.215447 0.243273,0.0124546 0.45048,-0.172044 0.462781,-0.412024 0.00337809,-0.0658044 -0.00834285,-0.128999 -0.0320236,-0.186272l-0.79339 -0.0766723z"/>
    <path id="_162115664" class="fil6" d="M7.9389 13.43c-0.0367836,0.0515926 -0.0597648,0.113746 -0.0632282,0.181393 -0.00977598,0.191032 0.139303,0.354017 0.332997,0.363929 0.152253,0.0077969 0.286728,-0.0813982 0.342023,-0.212734 -0.0658897,0.0556702 -0.152662,0.087472 -0.246191,0.0826949 -0.19366,-0.00992953 -0.342722,-0.172897 -0.332963,-0.363946 0.000835991,-0.0168051 0.00296862,-0.0333032 0.00614198,-0.0493405l-0.0387798 -0.00199614z"/>
    <path id="_163720824" class="fil4" d="M8.13641 13.4401c0.00228618,0.0508419 0.0305222,0.105864 0.082439,0.149642 0.092522,0.0780543 0.22512,0.0908671 0.296129,0.0286455 0.0447852,-0.0392233 0.0543394,-0.098954 0.0321259,-0.157269l-0.410693 -0.0210192z"/>
    <path id="_166050560" class="fil4" d="M8.06975 13.8279c-0.0516267,-0.0289185 -0.106802,-0.0285772 -0.123215,0.000733625 -0.0164127,0.0293109 0.0120792,0.0765358 0.063723,0.10542 0.0516267,0.0289355 0.106785,0.0285943 0.123198,-0.000716564 0.0164298,-0.0293109 -0.0121133,-0.0765188 -0.0637059,-0.105437z"/>
    <path id="_102349056" class="fil7" d="M7.33785 12.6374c0.00552778,0.0252162 -0.379813,0.521522 -0.110692,1.24646 0,0 -0.38459,-0.445242 -0.351782,-0.885298 0.0328084,-0.440055 0.462474,-0.361165 0.462474,-0.361165z"/>
    <path id="_102266720" class="fil2" d="M9.02311 13.7276c0,0 -1.88927,-0.484499 -1.95305,-0.560012 -0.0637912,-0.0754951 1.73601,0.211523 1.98033,0.287052 0.244297,0.0755292 0.0934092,0.305563 -0.0272806,0.27296z"/>
    <path id="_164956672" class="fil2" d="M7.94168 14.915c0,0 -1.0901,0.0628358 -1.019,-1.11777 0.214918,0.48409 0.484312,0.852609 1.019,1.11777z"/>
    <path id="_164956000" class="fil7" d="M8.94065 13.1373c0,0 -0.335591,-0.359561 -1.13621,-0.263678 -0.800624,0.0958831 1.00677,0.316414 1.13621,0.263678z"/>
    <path id="_164955304" class="fil2" d="M9.07386 13.6378c0.00479415,0.0335591 0.134236,0.594475 -0.297237,1.09307 0,0 0.206149,-0.340385 0.11506,-0.963625l0.0910889 -0.206149 0.0910889 0.0767064z"/>
   </g>
  </g>
 </g>
</svg>
