<?xml version="1.0" encoding="UTF-8"?>
<!DOCTYPE svg PUBLIC "-//W3C//DTD SVG 1.1//EN" "http://www.w3.org/Graphics/SVG/1.1/DTD/svg11.dtd">
<!-- Creator: CorelDRAW -->
<svg xmlns="http://www.w3.org/2000/svg" xml:space="preserve" width="129.436mm" height="197.989mm" style="shape-rendering:geometricPrecision; text-rendering:geometricPrecision; image-rendering:optimizeQuality; fill-rule:evenodd; clip-rule:evenodd"
viewBox="0 0 10.2633 15.699"
 xmlns:xlink="http://www.w3.org/1999/xlink">
 <defs>
  <style type="text/css">
   <![CDATA[
    .fil0 {fill:none}
    .fil6 {fill:#337887}
    .fil5 {fill:#353B54}
    .fil2 {fill:#501D33}
    .fil3 {fill:#ADA5B7}
    .fil1 {fill:#D77D75}
    .fil7 {fill:#FFCFA5}
    .fil4 {fill:white}
   ]]>
  </style>
 </defs>
 <g id="Layer_x0020_1">
  <metadata id="CorelCorpID_0Corel-Layer"/>
  <g id="_250104616">
   <rect id="_286012768" class="fil0" width="10.2633" height="15.699"/>
   <g id="_162382280">
    <g>
     <g>
      <g>
       <circle id="_164952784" class="fil1" cx="6.4826" cy="6.36007" r="0.587024"/>
       <path id="_164626784" class="fil1" d="M5.92 6.51611c0,0 0.060159,0.490185 0.626099,0.552572 0,0 -0.358726,-0.115862 -0.412201,-0.521378 -0.0534747,-0.405516 -0.213899,-0.0311936 -0.213899,-0.0311936z"/>
       <g>
        <g>
         <path id="_102301576" class="fil2" d="M6.84795 6.2266c0.00736625,0.02711 0.0119969,0.0554332 0.0134955,0.0846286 0.0112754,0.220321 -0.158259,0.408173 -0.378604,0.419448 -0.220321,0.0112754 -0.408157,-0.158283 -0.419432,-0.378597 -0.00149862,-0.0291954 0.000222018,-0.0578437 0.00478132,-0.0855642l0.77976 -0.0399157z"/>
         <path id="_102301504" class="fil3" d="M6.74212 6.23201c0.0094437,0.0265391 0.0152796,0.0548861 0.0167941,0.0844462 0.00837326,0.163707 -0.11759,0.303293 -0.281305,0.311674 -0.163707,0.00838119 -0.303277,-0.117614 -0.31165,-0.281305 -0.00151448,-0.0295681 0.00138761,-0.0583749 0.00807195,-0.0857307l0.568089 -0.0290844z"/>
         <path id="_102301432" class="fil4" d="M6.45531 6.27971c0.117019,-0.00598656 0.215667,0.0622999 0.220274,0.152352 0.00461481,0.0900918 -0.0865475,0.16806 -0.203559,0.174046 -0.117027,0.00599449 -0.215667,-0.0622523 -0.220282,-0.152352 -0.00460688,-0.0900522 0.0865554,-0.168052 0.203567,-0.174046z"/>
        </g>
        <g>
         <path id="_100988424" class="fil5" d="M6.63721 6.2374c0.013662,0.0253497 0.0220829,0.0540059 0.0236449,0.0845889 0.00570904,0.11154 -0.0813459,0.206675 -0.194401,0.212456 -0.113063,0.00578833 -0.209363,-0.0799583 -0.21508,-0.191491 -0.00156999,-0.030583 0.00387739,-0.0599528 0.0148831,-0.0865712l0.370953 -0.0189826z"/>
         <path id="_102301288" class="fil6" d="M6.58971 6.23982c0.0170954,0.023978 0.0277761,0.0528641 0.0293857,0.0843035 0.00454344,0.0887835 -0.0647421,0.164531 -0.154763,0.169138 -0.0707604,0.00362365 -0.133259,-0.0378303 -0.158957,-0.0988695 0.0306227,0.0258731 0.0709507,0.0406531 0.114419,0.0384329 0.0900046,-0.00461481 0.159282,-0.0803547 0.154747,-0.169146 -0.000388532,-0.00781028 -0.00137968,-0.0154778 -0.00285452,-0.0229313l0.0180231 -0.000927719z"/>
         <path id="_102301216" class="fil4" d="M6.49792 6.24452c-0.00106252,0.0236291 -0.0141854,0.0492008 -0.038314,0.0695472 -0.0430002,0.0362762 -0.104626,0.042231 -0.137628,0.0133132 -0.0208142,-0.0182293 -0.0252546,-0.0459895 -0.0149307,-0.0730916l0.190872 -0.0097688z"/>
         <path id="_164627936" class="fil4" d="M6.52891 6.42476c0.0239938,-0.01344 0.0496369,-0.0132814 0.0572648,0.000340957 0.00762791,0.0136224 -0.00561389,0.0355705 -0.0296156,0.0489947 -0.0239938,0.013448 -0.049629,0.0132894 -0.0572569,-0.000333027 -0.00763584,-0.0136224 0.00562975,-0.0355626 0.0296077,-0.0490026z"/>
        </g>
       </g>
       <path id="_102301792" class="fil7" d="M7.03972 6.14496c-0.0068112,0.00987981 0.0716326,0.291169 -0.171676,0.555672 0,0 0.243776,-0.123878 0.307083,-0.318945 0.063299,-0.195075 -0.135407,-0.236727 -0.135407,-0.236727z"/>
       <path id="_102301360" class="fil2" d="M6.04206 6.279c0,0 0.90585,-0.03339 0.942269,-0.0613722 0.0364268,-0.0279902 -0.80928,-0.0754465 -0.927687,-0.0652813 -0.118415,0.0101653 -0.0726158,0.12954 -0.0145818,0.126653z"/>
      </g>
      <path id="_164952688" class="fil2" d="M6.11569 6.72768c0,0 0.331814,0.35427 0.712092,-0.0155968 0,0 -0.268436,0.0623871 -0.397056,0.0646152 -0.128628,0.00222811 -0.315036,-0.0490185 -0.315036,-0.0490185z"/>
     </g>
     <path id="_164956288" class="fil7" d="M6.12414 6.1038c0,0 0.155968,-0.167108 0.528062,-0.122546 0.372095,0.0445622 -0.467903,0.147055 -0.528062,0.122546z"/>
    </g>
    <g>
     <g>
      <g>
       <circle id="_102300784" class="fil1" cx="3.78071" cy="6.36007" r="0.587024"/>
       <path id="_102266744" class="fil1" d="M4.34329 6.51611c0,0 -0.060159,0.490185 -0.626099,0.552572 0,0 0.358726,-0.115862 0.412201,-0.521378 0.0534747,-0.405516 0.213899,-0.0311936 0.213899,-0.0311936z"/>
       <g>
        <g>
         <path id="_102267488" class="fil2" d="M3.41535 6.2266c-0.00736625,0.02711 -0.0119969,0.0554332 -0.0134955,0.0846286 -0.0112754,0.220321 0.158259,0.408173 0.378604,0.419448 0.220321,0.0112754 0.408157,-0.158283 0.419432,-0.378597 0.00149862,-0.0291954 -0.000222018,-0.0578437 -0.00478132,-0.0855642l-0.77976 -0.0399157z"/>
         <path id="_102267416" class="fil3" d="M3.52119 6.23201c-0.0094437,0.0265391 -0.0152796,0.0548861 -0.0167941,0.0844462 -0.00837326,0.163707 0.11759,0.303293 0.281305,0.311674 0.163707,0.00838119 0.303277,-0.117614 0.31165,-0.281305 0.00151448,-0.0295681 -0.00138761,-0.0583749 -0.00807195,-0.0857307l-0.568089 -0.0290844z"/>
         <path id="_102267344" class="fil4" d="M3.80799 6.27971c-0.117019,-0.00598656 -0.215667,0.0622999 -0.220274,0.152352 -0.00461481,0.0900918 0.0865475,0.16806 0.203559,0.174046 0.117027,0.00599449 0.215667,-0.0622523 0.220282,-0.152352 0.00460688,-0.0900522 -0.0865554,-0.168052 -0.203567,-0.174046z"/>
        </g>
        <g>
         <path id="_162116456" class="fil5" d="M3.6261 6.2374c-0.013662,0.0253497 -0.0220829,0.0540059 -0.0236449,0.0845889 -0.00570904,0.11154 0.0813459,0.206675 0.194401,0.212456 0.113063,0.00578833 0.209363,-0.0799583 0.21508,-0.191491 0.00156999,-0.030583 -0.00387739,-0.0599528 -0.0148831,-0.0865712l-0.370953 -0.0189826z"/>
         <path id="_102267200" class="fil6" d="M3.67359 6.23982c-0.0170954,0.023978 -0.0277761,0.0528641 -0.0293857,0.0843035 -0.00454344,0.0887835 0.0647421,0.164531 0.154763,0.169138 0.0707604,0.00362365 0.133259,-0.0378303 0.158957,-0.0988695 -0.0306227,0.0258731 -0.0709507,0.0406531 -0.114419,0.0384329 -0.0900046,-0.00461481 -0.159282,-0.0803547 -0.154747,-0.169146 0.000388532,-0.00781028 0.00137968,-0.0154778 0.00285452,-0.0229313l-0.0180231 -0.000927719z"/>
         <path id="_102267128" class="fil4" d="M3.76539 6.24452c0.00106252,0.0236291 0.0141854,0.0492008 0.038314,0.0695472 0.0430002,0.0362762 0.104626,0.042231 0.137628,0.0133132 0.0208142,-0.0182293 0.0252546,-0.0459895 0.0149307,-0.0730916l-0.190872 -0.0097688z"/>
         <path id="_164955112" class="fil4" d="M3.7344 6.42476c-0.0239938,-0.01344 -0.0496369,-0.0132814 -0.0572648,0.000340957 -0.00762791,0.0136224 0.00561389,0.0355705 0.0296156,0.0489947 0.0239938,0.013448 0.049629,0.0132894 0.0572569,-0.000333027 0.00763584,-0.0136224 -0.00562975,-0.0355626 -0.0296077,-0.0490026z"/>
        </g>
       </g>
       <path id="_102300616" class="fil7" d="M3.22358 6.14496c0.0068112,0.00987981 -0.0716326,0.291169 0.171676,0.555672 0,0 -0.243776,-0.123878 -0.307083,-0.318945 -0.063299,-0.195075 0.135407,-0.236727 0.135407,-0.236727z"/>
       <path id="_102267272" class="fil2" d="M4.22125 6.279c0,0 -0.90585,-0.03339 -0.942269,-0.0613722 -0.0364268,-0.0279902 0.80928,-0.0754465 0.927687,-0.0652813 0.118415,0.0101653 0.0726158,0.12954 0.0145818,0.126653z"/>
      </g>
      <path id="_102300856" class="fil2" d="M4.14763 6.72768c0,0 -0.331814,0.35427 -0.712092,-0.0155968 0,0 0.268436,0.0623871 0.397056,0.0646152 0.128628,0.00222811 0.315036,-0.0490185 0.315036,-0.0490185z"/>
     </g>
     <path id="_102301000" class="fil7" d="M4.13916 6.1038c0,0 -0.155968,-0.167108 -0.528062,-0.122546 -0.372095,0.0445622 0.467903,0.147055 0.528062,0.122546z"/>
    </g>
   </g>
  </g>
 </g>
</svg>
