<?xml version="1.0" encoding="UTF-8"?>
<!DOCTYPE svg PUBLIC "-//W3C//DTD SVG 1.1//EN" "http://www.w3.org/Graphics/SVG/1.1/DTD/svg11.dtd">
<!-- Creator: CorelDRAW -->
<svg xmlns="http://www.w3.org/2000/svg" xml:space="preserve" width="129.436mm" height="197.989mm" style="shape-rendering:geometricPrecision; text-rendering:geometricPrecision; image-rendering:optimizeQuality; fill-rule:evenodd; clip-rule:evenodd"
viewBox="0 0 8.85003 13.5372"
 xmlns:xlink="http://www.w3.org/1999/xlink">
 <defs>
  <style type="text/css">
   <![CDATA[
    .fil0 {fill:none}
    .fil5 {fill:#383A47}
    .fil6 {fill:#3C7F76}
    .fil2 {fill:#501D33}
    .fil3 {fill:#ADA5B7}
    .fil1 {fill:#D77D75}
    .fil7 {fill:#FFCFA5}
    .fil4 {fill:white}
   ]]>
  </style>
 </defs>
 <g id="Layer_x0020_1">
  <metadata id="CorelCorpID_0Corel-Layer"/>
  <g id="_250102360">
   <rect id="_286029448" class="fil0" width="8.85003" height="13.5372"/>
   <g id="_102301144">
    <g>
     <g>
      <circle id="_164637032" class="fil1" cx="5.56163" cy="5.5393" r="0.50619"/>
      <path id="_166054016" class="fil1" d="M5.07651 5.67384c0,0 0.051875,0.422685 0.539885,0.476482 0,0 -0.309329,-0.0999075 -0.35544,-0.449584 -0.0461111,-0.349676 -0.184445,-0.0268982 -0.184445,-0.0268982z"/>
      <g>
       <circle id="_162116888" class="fil2" cx="5.55117" cy="5.51463" r="0.34452"/>
       <circle id="_164951632" class="fil3" cx="5.55117" cy="5.51463" r="0.255984"/>
       <ellipse id="_164634248" class="fil4" cx="5.54733" cy="5.6105" rx="0.182974" ry="0.140897"/>
      </g>
      <g>
       <ellipse id="_163714464" class="fil5" cx="5.5457" cy="5.51504" rx="0.176773" ry="0.174387"/>
       <path id="_164953072" class="fil6" d="M5.64254 5.41432c0.0270144,0.0252982 0.0438822,0.0610781 0.0438822,0.100714 0,0.0766605 -0.0630062,0.138839 -0.140726,0.138839 -0.0611055,0 -0.113097,-0.0384533 -0.132535,-0.0921539 0.0252298,0.0236299 0.0593072,0.0381388 0.0968375,0.0381388 0.0777134,0 0.14072,-0.0621789 0.14072,-0.138839 0,-0.0163755 -0.00289904,-0.0321082 -0.00817748,-0.0466992z"/>
       <circle id="_164637872" class="fil4" transform="matrix(0.933479 -0.708851 0.655837 0.636869 5.50036 5.45163)" r="0.0749443"/>
       <ellipse id="_164951440" class="fil4" transform="matrix(0.643182 -0.318217 0.318217 0.643182 5.61513 5.61959)" rx="0.0598269" ry="0.0339817"/>
      </g>
      <path id="_162116096" class="fil7" d="M6.07116 5.59699c-0.00960649,0.00384259 -0.0134491,0.197894 -0.37081,0.315093 0,0 0.201736,0.051875 0.372732,-0.0826158 0.170995,-0.134491 -0.0019213,-0.232477 -0.0019213,-0.232477z"/>
     </g>
     <polygon id="_164630696" class="fil1" points="5.98155,5.44859 6.01735,5.36348 6.53934,5.28678 6.49908,5.32591 6.04833,5.46836 "/>
     <polygon id="_164630192" class="fil1" points="6.45268,5.61475 6.39517,5.65212 5.96946,5.61473 5.99174,5.50571 "/>
    </g>
    <g>
     <g>
      <circle id="_164634632" class="fil1" cx="3.27671" cy="5.5393" r="0.50619"/>
      <path id="_162117176" class="fil1" d="M3.76184 5.67384c0,0 -0.051875,0.422685 -0.539885,0.476482 0,0 0.309329,-0.0999075 0.35544,-0.449584 0.0461111,-0.349676 0.184445,-0.0268982 0.184445,-0.0268982z"/>
      <g>
       <circle id="_164627744" class="fil2" cx="3.28717" cy="5.51463" r="0.34452"/>
       <circle id="_162116312" class="fil3" cx="3.28717" cy="5.51463" r="0.255984"/>
       <ellipse id="_164631464" class="fil4" cx="3.29102" cy="5.6105" rx="0.182974" ry="0.140897"/>
      </g>
      <g>
       <ellipse id="_164640728" class="fil5" cx="3.29265" cy="5.51504" rx="0.176773" ry="0.174387"/>
       <path id="_164639936" class="fil6" d="M3.19581 5.41432c-0.0270144,0.0252982 -0.0438822,0.0610781 -0.0438822,0.100714 0,0.0766605 0.0630062,0.138839 0.140726,0.138839 0.0611055,0 0.113097,-0.0384533 0.132535,-0.0921539 -0.0252298,0.0236299 -0.0593072,0.0381388 -0.0968375,0.0381388 -0.0777134,0 -0.14072,-0.0621789 -0.14072,-0.138839 0,-0.0163755 0.00289904,-0.0321082 0.00817748,-0.0466992z"/>
       <circle id="_163723200" class="fil4" transform="matrix(-0.933479 -0.708851 -0.655837 0.636869 3.33799 5.45163)" r="0.0749443"/>
       <ellipse id="_102350088" class="fil4" transform="matrix(-0.643182 -0.318217 -0.318217 0.643182 3.22321 5.61959)" rx="0.0598269" ry="0.0339817"/>
      </g>
      <path id="_164637920" class="fil7" d="M2.76718 5.59699c0.00960649,0.00384259 0.0134491,0.197894 0.37081,0.315093 0,0 -0.201736,0.051875 -0.372732,-0.0826158 -0.170995,-0.134491 0.0019213,-0.232477 0.0019213,-0.232477z"/>
     </g>
     <polygon id="_161958504" class="fil1" points="2.87793,5.34869 2.44954,5.3133 2.42429,5.33693 2.84188,5.46643 "/>
     <polygon id="_102350016" class="fil1" points="2.43754,5.58402 2.44126,5.60793 2.85928,5.61857 2.84853,5.49226 "/>
    </g>
   </g>
  </g>
 </g>
</svg>
