<?xml version="1.0" encoding="UTF-8"?>
<!DOCTYPE svg PUBLIC "-//W3C//DTD SVG 1.1//EN" "http://www.w3.org/Graphics/SVG/1.1/DTD/svg11.dtd">
<!-- Creator: CorelDRAW -->
<svg xmlns="http://www.w3.org/2000/svg" xml:space="preserve" width="129.436mm" height="197.989mm" style="shape-rendering:geometricPrecision; text-rendering:geometricPrecision; image-rendering:optimizeQuality; fill-rule:evenodd; clip-rule:evenodd"
viewBox="0 0 15.7417 24.0789"
 xmlns:xlink="http://www.w3.org/1999/xlink">
 <defs>
  <style type="text/css">
   <![CDATA[
    .fil0 {fill:none}
    .fil2 {fill:#501D33}
    .fil5 {fill:#623448}
    .fil6 {fill:#ABAEBF}
    .fil3 {fill:#ADA5B7}
    .fil1 {fill:#D77D75}
    .fil4 {fill:white}
   ]]>
  </style>
 </defs>
 <g id="Layer_x0020_1">
  <metadata id="CorelCorpID_0Corel-Layer"/>
  <g id="_284248392">
   <rect id="_289791624" class="fil0" width="15.7417" height="24.0789"/>
   <g id="_162256064">
    <g>
     <path id="_166497832" class="fil1" d="M10.0125 8.90735c-0.823921,0 -1.1823,1.0463 -0.494739,1.56417 0,0 -0.253499,-0.0549224 -0.399586,-0.321021 0.13699,0.706682 0.92856,1.03391 1.50274,0.617232 -0.264372,0.0743325 -0.626974,0.0556521 -0.822133,-0.115536 0.0684462,0.0169778 0.140006,0.0260748 0.213706,0.0260748 0.488938,0 0.885459,-0.396521 0.885459,-0.885459 0,-0.488938 -0.396521,-0.885459 -0.885459,-0.885459l1.21617e-005 0z"/>
     <g>
      <path id="_166503976" class="fil2" d="M9.40641 9.82133c0,0 0.0451687,0.684815 0.789771,0.719804 0,0 -0.446092,-0.0577074 -0.523477,-0.665928l-0.175774 -0.0921008 -0.0905198 0.0382243z"/>
      <circle id="_166485280" class="fil2" cx="10.0117" cy="9.72933" r="0.612805"/>
      <circle id="_166485184" class="fil3" cx="10.0117" cy="9.72933" r="0.455323"/>
      <ellipse id="_166475104" class="fil4" cx="10.0049" cy="9.89986" rx="0.32546" ry="0.250617"/>
      <g>
       <g>
        <ellipse id="_166500712" class="fil2" cx="10.002" cy="9.73007" rx="0.314429" ry="0.310185"/>
        <path id="_166481968" class="fil5" d="M10.1743 9.55093c0.048051,0.0449984 0.078054,0.108641 0.078054,0.179142 0,0.136357 -0.11207,0.246956 -0.250313,0.246956 -0.108689,0 -0.201167,-0.0683976 -0.235743,-0.163916 0.0448768,0.0420309 0.105491,0.0678381 0.172247,0.0678381 0.13823,0 0.250301,-0.110599 0.250301,-0.246956 0,-0.0291274 -0.00515657,-0.0571115 -0.0145454,-0.0830646z"/>
        <circle id="_166487560" class="fil4" transform="matrix(0.933479 -0.708851 0.655837 0.636869 9.92136 9.61728)" r="0.133305"/>
       </g>
       <ellipse id="_166505560" class="fil4" transform="matrix(0.643182 -0.318217 0.318217 0.643182 10.1255 9.91604)" rx="0.106415" ry="0.0604438"/>
      </g>
      <path id="_166486528" class="fil2" d="M10.8555 9.8903c0,0 -0.0429674,0.561118 -0.539543,0.694861 0.413025,0.0895833 0.804681,-0.172064 0.539543,-0.694861z"/>
     </g>
    </g>
    <path id="_166476064" class="fil1" d="M5.73023 8.90735c0.823921,0 1.1823,1.0463 0.494739,1.56417 0,0 0.253499,-0.0549224 0.399586,-0.321021 -0.13699,0.706682 -0.92856,1.03391 -1.50274,0.617232 0.264372,0.0743325 0.626974,0.0556521 0.822133,-0.115536 -0.0684462,0.0169778 -0.140006,0.0260748 -0.213706,0.0260748 -0.488938,0 -0.885459,-0.396521 -0.885459,-0.885459 0,-0.488938 0.396521,-0.885459 0.885459,-0.885459l-1.21617e-005 0z"/>
    <path id="_166479232" class="fil2" d="M6.33632 9.82133c0,0 -0.0451687,0.684815 -0.789771,0.719804 0,0 0.446092,-0.0577074 0.523477,-0.665928l0.175774 -0.0921008 0.0905198 0.0382243z"/>
    <path id="_166477408" class="fil4" d="M6.09663 9.28107l0.161423 -0.206372 -0.0185466 -0.614009c0,0 -0.19623,0.806226 -0.142876,0.820382z"/>
    <polygon id="_166491904" class="fil2" points="6.09409,9.34411 6.25052,8.43655 5.82546,9.23416 "/>
    <circle id="_166488832" class="fil2" cx="5.73098" cy="9.72933" r="0.612805"/>
    <circle id="_166493080" class="fil4" cx="5.73098" cy="9.72933" r="0.455323"/>
    <path id="_166491040" class="fil6" d="M5.56705 9.39766c-0.122031,0.0604681 -0.205983,0.186293 -0.205983,0.331663 0,0.204268 0.165667,0.369936 0.369936,0.369936 0.147984,0 0.27567,-0.0869929 0.334813,-0.212599 -0.0494253,0.0244937 -0.105053,0.0383095 -0.16394,0.0383095 -0.204268,0 -0.369936,-0.165667 -0.369936,-0.369936 0,-0.0562723 0.0126239,-0.109614 0.0351109,-0.157373z"/>
    <circle id="_166497904" class="fil4" transform="matrix(-0.151133 -0.0778073 -0.0540503 0.104987 5.52556 9.97125)" r="0.763441"/>
    <polygon id="_166502728" class="fil4" points="5.5133,10.2928 5.22624,10.8157 4.6487,11.3283 5.39712,10.2176 "/>
    <polygon id="_166483672" class="fil2" points="5.51122,10.2991 4.6348,11.3414 5.34005,10.0404 "/>
   </g>
  </g>
 </g>
</svg>
