<?xml version="1.0" encoding="UTF-8"?>
<!DOCTYPE svg PUBLIC "-//W3C//DTD SVG 1.1//EN" "http://www.w3.org/Graphics/SVG/1.1/DTD/svg11.dtd">
<!-- Creator: CorelDRAW -->
<svg xmlns="http://www.w3.org/2000/svg" xml:space="preserve" width="129.436mm" height="197.989mm" style="shape-rendering:geometricPrecision; text-rendering:geometricPrecision; image-rendering:optimizeQuality; fill-rule:evenodd; clip-rule:evenodd"
viewBox="0 0 30.959 47.3556"
 xmlns:xlink="http://www.w3.org/1999/xlink">
 <defs>
  <style type="text/css">
   <![CDATA[
    .fil0 {fill:none}
    .fil5 {fill:#2F425A}
    .fil8 {fill:#337887}
    .fil7 {fill:#353B54}
    .fil6 {fill:#387F84}
    .fil1 {fill:#501D33}
    .fil9 {fill:#623448}
    .fil3 {fill:#ADA5B7}
    .fil2 {fill:#D77D75}
    .fil4 {fill:white}
   ]]>
  </style>
 </defs>
 <g id="Layer_x0020_1">
  <metadata id="CorelCorpID_0Corel-Layer"/>
  <g id="_284062208">
   <rect id="_287001992" class="fil0" width="30.959" height="47.3556"/>
   <path id="_222575528" class="fil1" d="M18.1551 16.626c0,0 0.112775,1.02478 0.623312,1.41927 0.0658711,-0.377455 -0.185104,-1.13712 -0.623312,-1.41927z"/>
   <path id="_275323704" class="fil1" d="M17.1834 17.4661c0,0 0.665623,0.787319 1.30941,0.829631 -0.156043,-0.349949 -0.788324,-0.840131 -1.30941,-0.829631z"/>
   <g id="_102414888">
    <g>
     <g>
      <path id="_102266840" class="fil2" d="M19.3111 17.4218c1.41917,0 2.65852,1.50628 1.95585,2.72815 -0.918272,1.59681 -3.60688,1.01964 -3.60688,-0.928988 0,-1.03066 0.62037,-1.79916 1.65103,-1.79916z"/>
      <path id="_102266768" class="fil2" d="M17.6856 19.5351c0,0 -0.0929466,1.48681 1.55067,1.98508 0,0 -0.999571,-0.542133 -0.933676,-1.77419 0.065895,-1.23206 -0.616997,-0.210888 -0.616997,-0.210888z"/>
      <g>
       <path id="_102348912" class="fil1" d="M20.6012 19.0072c0,0 0.175489,1.3383 -1.24741,1.69131 0,0 0.838361,-0.28238 0.754408,-1.48528l0.303739 -0.245043 0.189266 0.0390108z"/>
       <circle id="_102348840" class="fil1" cx="19.3942" cy="19.0994" r="1.2052"/>
       <circle id="_102348768" class="fil3" cx="19.3942" cy="19.0994" r="0.895477"/>
       <ellipse id="_101959712" class="fil4" cx="19.3808" cy="19.4347" rx="0.640078" ry="0.492885"/>
      </g>
      <g>
       <ellipse id="_164641304" class="fil5" cx="19.375" cy="19.1008" rx="0.618384" ry="0.610036"/>
       <path id="_161959176" class="fil6" d="M19.7138 18.7485c0.0945013,0.0884978 0.153508,0.213662 0.153508,0.352317 0,0.268172 -0.220407,0.485685 -0.492287,0.485685 -0.213758,0 -0.395633,-0.134517 -0.463633,-0.322371 0.0882586,0.0826617 0.207468,0.133416 0.338755,0.133416 0.271856,0 0.492263,-0.217513 0.492263,-0.485685 0,-0.0572844 -0.0101414,-0.11232 -0.0286063,-0.163362z"/>
       <circle id="_163718976" class="fil4" transform="matrix(0.933479 -0.708851 0.655837 0.636869 19.2164 18.879)" r="0.262169"/>
       <ellipse id="_162115448" class="fil4" transform="matrix(0.643182 -0.318217 0.318217 0.643182 19.6179 19.4666)" rx="0.209285" ry="0.118874"/>
      </g>
     </g>
     <g>
      <circle id="_164957056" class="fil2" cx="11.465" cy="19.1857" r="1.77074"/>
      <path id="_166050008" class="fil2" d="M13.162 19.6564c0,0 -0.181468,1.47863 -1.88861,1.66682 0,0 1.08209,-0.349495 1.24339,-1.57273 0.161305,-1.22323 0.645221,-0.0940947 0.645221,-0.0940947z"/>
      <g>
       <path id="_166047080" class="fil1" d="M10.2946 19.0072c0,0 -0.175489,1.3383 1.24741,1.69131 0,0 -0.838361,-0.28238 -0.754408,-1.48528l-0.303739 -0.245043 -0.189266 0.0390108z"/>
       <circle id="_164953408" class="fil1" cx="11.5016" cy="19.0994" r="1.2052"/>
       <circle id="_164634440" class="fil3" cx="11.5016" cy="19.0994" r="0.895477"/>
       <ellipse id="_163724592" class="fil4" cx="11.515" cy="19.4347" rx="0.640078" ry="0.492885"/>
      </g>
      <g>
       <ellipse id="_164630072" class="fil7" cx="11.5207" cy="19.1008" rx="0.618384" ry="0.610036"/>
       <path id="_164629568" class="fil8" d="M11.182 18.7485c-0.0945013,0.0884978 -0.153508,0.213662 -0.153508,0.352317 0,0.268172 0.220407,0.485685 0.492287,0.485685 0.213758,0 0.395633,-0.134517 0.463633,-0.322371 -0.0882586,0.0826617 -0.207468,0.133416 -0.338755,0.133416 -0.271856,0 -0.492263,-0.217513 -0.492263,-0.485685 0,-0.0572844 0.0101414,-0.11232 0.0286063,-0.163362z"/>
       <circle id="_164627360" class="fil4" transform="matrix(-0.933479 -0.708851 -0.655837 0.636869 11.6793 18.879)" r="0.262169"/>
       <ellipse id="_164641256" class="fil4" transform="matrix(-0.643182 -0.318217 -0.318217 0.643182 11.2778 19.4666)" rx="0.209285" ry="0.118874"/>
      </g>
     </g>
    </g>
    <path id="_163719576" class="fil1" d="M21.5799 19.2021c-0.320888,1.4074 -1.38638,1.77637 -2.45572,1.53254 -1.06934,-0.243823 -1.66118,-1.34631 -1.41735,-2.41566 0.489225,-2.14564 4.19393,-0.52429 3.87305,0.883112l2.39183e-005 0z"/>
    <path id="_164639216" class="fil9" d="M18.6943 17.6713c0.460356,-0.192255 1.55926,-0.0655123 2.3063,0.762755 0.904447,1.0028 -1.21967,0.521467 -1.56483,0.424981 -0.616877,-0.172403 -1.85499,-0.722692 -0.741468,-1.18774z"/>
   </g>
   <path id="_222576176" class="fil1" d="M20.5096 19.7374c0,0 0.58265,0.850536 1.21888,0.95769 -0.119879,-0.363917 -0.699396,-0.915498 -1.21888,-0.95769z"/>
   <path id="_283285976" class="fil1" d="M20.7124 19.3712c0,0 0.934632,0.435122 1.5367,0.203258 -0.288527,-0.252099 -1.06819,-0.431558 -1.5367,-0.203258z"/>
  </g>
 </g>
</svg>
