<?xml version="1.0" encoding="UTF-8"?>
<!DOCTYPE svg PUBLIC "-//W3C//DTD SVG 1.1//EN" "http://www.w3.org/Graphics/SVG/1.1/DTD/svg11.dtd">
<!-- Creator: CorelDRAW -->
<svg xmlns="http://www.w3.org/2000/svg" xml:space="preserve" width="129.436mm" height="197.989mm" style="shape-rendering:geometricPrecision; text-rendering:geometricPrecision; image-rendering:optimizeQuality; fill-rule:evenodd; clip-rule:evenodd"
viewBox="0 0 12.4254 19.0062"
 xmlns:xlink="http://www.w3.org/1999/xlink">
 <defs>
  <style type="text/css">
   <![CDATA[
    .fil0 {fill:none}
    .fil2 {fill:#501D33}
    .fil5 {fill:#876574}
    .fil6 {fill:#A88F9B}
    .fil3 {fill:#ADA5B7}
    .fil1 {fill:#D77D75}
    .fil7 {fill:#F9F9F9}
    .fil8 {fill:#FDFDFD}
    .fil4 {fill:white}
   ]]>
  </style>
 </defs>
 <g id="Layer_x0020_1">
  <metadata id="CorelCorpID_0Corel-Layer"/>
  <g id="_233911488">
   <rect id="_281514696" class="fil0" width="12.4254" height="19.0062"/>
   <g id="_102537416">
    <g>
     <path id="_162255128" class="fil1" d="M4.58851 7.01437c0.650348,0 0.93323,0.825877 0.390514,1.23465 0,0 0.200095,-0.043352 0.315406,-0.253392 -0.10813,0.557807 -0.732943,0.816095 -1.18616,0.487202 0.208677,0.0586731 0.494891,0.043928 0.648936,-0.0911967 -0.0540268,0.0134011 -0.110511,0.0205817 -0.168685,0.0205817 -0.385935,0 -0.698922,-0.312987 -0.698922,-0.698922 0,-0.385935 0.312987,-0.698922 0.698922,-0.698922l-9.59965e-006 0z"/>
     <g>
      <path id="_164955016" class="fil2" d="M5.06693 7.7358c0,0 -0.0356531,0.540547 -0.623392,0.568165 0,0 0.352115,-0.0455503 0.413198,-0.525639l0.138744 -0.0726982 0.0714502 0.0301717z"/>
      <circle id="_162254912" class="fil2" cx="4.58912" cy="7.66318" r="0.483707"/>
      <circle id="_162254840" class="fil3" cx="4.58911" cy="7.66318" r="0.359401"/>
      <ellipse id="_164638256" class="fil4" cx="4.59451" cy="7.79779" rx="0.256896" ry="0.19782"/>
      <g>
       <g>
        <ellipse id="_162254480" class="fil5" cx="4.5968" cy="7.66376" rx="0.248189" ry="0.244839"/>
        <path id="_162254408" class="fil6" d="M4.46084 7.52236c-0.0379282,0.0355187 -0.0616106,0.0857537 -0.0616106,0.141403 0,0.107631 0.0884608,0.194931 0.19758,0.194931 0.0857921,0 0.158788,-0.0539884 0.18608,-0.129384 -0.0354227,0.0331764 -0.0832674,0.0535469 -0.13596,0.0535469 -0.10911,0 -0.19757,-0.0872992 -0.19757,-0.194931 0,-0.0229912 0.00407025,-0.04508 0.0114812,-0.0655656z"/>
        <circle id="_164952976" class="fil4" transform="matrix(-0.933479 -0.708851 -0.655837 0.636869 4.66046 7.57473)" r="0.105222"/>
       </g>
       <ellipse id="_162254552" class="fil4" transform="matrix(-0.643182 -0.318217 -0.318217 0.643182 4.49932 7.81056)" rx="0.0839969" ry="0.0477103"/>
      </g>
      <path id="_162254696" class="fil2" d="M3.92313 7.79024c0,0 0.0339156,0.442909 0.425879,0.548476 -0.326014,0.070711 -0.635161,-0.135816 -0.425879,-0.548476z"/>
     </g>
    </g>
    <g>
     <g>
      <path id="_162254192" class="fil1" d="M7.86046 7.01437c-0.650348,0 -0.93323,0.825877 -0.390514,1.23465 0,0 -0.200095,-0.043352 -0.315406,-0.253392 0.10813,0.557807 0.732943,0.816095 1.18616,0.487202 -0.208677,0.0586731 -0.494891,0.043928 -0.648936,-0.0911967 0.0540268,0.0134011 0.110511,0.0205817 0.168685,0.0205817 0.385935,0 0.698922,-0.312987 0.698922,-0.698922 0,-0.385935 -0.312987,-0.698922 -0.698922,-0.698922l9.59965e-006 0z"/>
      <g>
       <path id="_162254048" class="fil2" d="M7.38206 7.7358c0,0 0.0356531,0.540547 0.623392,0.568165 0,0 -0.352115,-0.0455503 -0.413198,-0.525639l-0.138744 -0.0726982 -0.0714502 0.0301717z"/>
       <circle id="_162253976" class="fil2" cx="7.85987" cy="7.66318" r="0.483707"/>
       <circle id="_162253904" class="fil3" cx="7.85987" cy="7.66318" r="0.359401"/>
       <ellipse id="_162253832" class="fil4" cx="7.85447" cy="7.79779" rx="0.256896" ry="0.19782"/>
       <g>
        <g>
         <ellipse id="_166478968" class="fil5" cx="7.85217" cy="7.66376" rx="0.248189" ry="0.244839"/>
         <path id="_166486792" class="fil6" d="M7.98815 7.52236c0.0379282,0.0355187 0.0616106,0.0857537 0.0616106,0.141403 0,0.107631 -0.0884608,0.194931 -0.19758,0.194931 -0.0857921,0 -0.158788,-0.0539884 -0.18608,-0.129384 0.0354227,0.0331764 0.0832674,0.0535469 0.13596,0.0535469 0.10911,0 0.19757,-0.0872992 0.19757,-0.194931 0,-0.0229912 -0.00407025,-0.04508 -0.0114812,-0.0655656z"/>
         <circle id="_166486864" class="fil7" transform="matrix(0.933479 -0.708851 0.655837 0.636869 7.78852 7.57473)" r="0.105222"/>
        </g>
        <ellipse id="_162122912" class="fil8" transform="matrix(0.643182 -0.318217 0.318217 0.643182 7.94966 7.81056)" rx="0.0839969" ry="0.0477103"/>
       </g>
      </g>
     </g>
     <polygon id="_162254264" class="fil4" points="8.03344,8.12073 8.13593,8.39319 8.71321,8.92728 8.11167,8.07218 "/>
     <polygon id="_162254120" class="fil2" points="8.03333,8.11288 8.72512,8.93561 8.16845,7.90874 "/>
     <polygon id="_162122984" class="fil2" points="8.15773,8.52342 8.58643,8.3443 8.44691,8.52352 "/>
    </g>
   </g>
  </g>
 </g>
</svg>
