<?xml version="1.0" encoding="UTF-8"?>
<!DOCTYPE svg PUBLIC "-//W3C//DTD SVG 1.1//EN" "http://www.w3.org/Graphics/SVG/1.1/DTD/svg11.dtd">
<!-- Creator: CorelDRAW -->
<svg xmlns="http://www.w3.org/2000/svg" xml:space="preserve" width="129.436mm" height="197.989mm" style="shape-rendering:geometricPrecision; text-rendering:geometricPrecision; image-rendering:optimizeQuality; fill-rule:evenodd; clip-rule:evenodd"
viewBox="0 0 6.98844 10.6897"
 xmlns:xlink="http://www.w3.org/1999/xlink">
 <defs>
  <style type="text/css">
   <![CDATA[
    .fil0 {fill:none}
    .fil2 {fill:#501D33}
    .fil5 {fill:#623448}
    .fil7 {fill:#937284}
    .fil3 {fill:#ADA5B7}
    .fil8 {fill:#D49A9E}
    .fil1 {fill:#D77D75}
    .fil9 {fill:#EDC3C4}
    .fil6 {fill:#FFCFA5}
    .fil4 {fill:white}
   ]]>
  </style>
 </defs>
 <g id="Layer_x0020_1">
  <metadata id="CorelCorpID_0Corel-Layer"/>
  <g id="_233888904">
   <rect id="_284240880" class="fil0" width="6.98844" height="10.6897"/>
   <g id="_163721184">
    <path id="_164639168" class="fil1" d="M2.98289 4.46796c0,0 -0.0212402,0.294328 -0.233642,0.374738 0,0 0.124407,-0.115304 0.142613,-0.332257 0.0182059,-0.216953 0.0424804,-0.0743407 0.0424804,-0.0743407l0.048549 0.0318603z"/>
    <path id="_102349512" class="fil1" d="M4.00419 4.46796c0,0 0.0212402,0.294328 0.233642,0.374738 0,0 -0.124407,-0.115304 -0.142613,-0.332257 -0.0182059,-0.216953 -0.0424804,-0.0743407 -0.0424804,-0.0743407l-0.048549 0.0318603z"/>
    <g>
     <g>
      <circle id="_162115304" class="fil1" transform="matrix(0.94493 -0.194864 0.194864 0.94493 4.38868 4.36593)" r="0.414913"/>
      <circle id="_164630096" class="fil2" transform="matrix(0.786146 -0.162119 0.162119 0.786146 4.36507 4.32122)" r="0.338925"/>
      <circle id="_164950960" class="fil3" transform="matrix(0.584118 -0.120457 0.120457 0.584118 4.36507 4.32122)" r="0.338925"/>
      <circle id="_164953984" class="fil4" transform="matrix(0.417522 -0.0861012 0.0663032 0.321517 4.37739 4.39598)" r="0.338925"/>
      <ellipse id="_102330528" class="fil2" transform="matrix(1.07278 -0.221229 0.189974 0.921219 4.3609 4.32241)" rx="0.127441" ry="0.146403"/>
      <path id="_102415656" class="fil5" d="M4.41974 4.22908c0.0249278,0.0152525 0.043679,0.0402343 0.0500014,0.0708906 0.0122236,0.0592879 -0.0265853,0.11742 -0.0866939,0.129817 -0.0472532,0.00974543 -0.0935994,-0.0116999 -0.117199,-0.0501309 0.0232811,0.0142483 0.0519505,0.0200362 0.0809762,0.0140485 0.0601031,-0.012391 0.0989175,-0.0705289 0.0866885,-0.129817 -0.00260778,-0.012661 -0.00735902,-0.0243663 -0.0137732,-0.0348082z"/>
      <circle id="_102348624" class="fil4" transform="matrix(0.771074 -0.882778 0.77095 0.491284 4.31573 4.2806)" r="0.0591799"/>
      <ellipse id="_166048880" class="fil4" transform="matrix(0.565657 -0.441562 0.441562 0.565657 4.43128 4.3922)" rx="0.0472424" ry="0.0268337"/>
      <path id="_102330672" class="fil2" d="M4.05722 4.51649c0.0326162,0.0977945 0.134228,0.301153 0.407586,0.24356 0.254218,-0.0535648 0.303955,-0.261464 0.312129,-0.371147 0.00438949,-0.0588667 -0.0290905,-0.0553465 -0.0651351,-0.0411306 -0.1189,0.0468969 -0.380687,0.136112 -0.623962,0.123003 -0.0269471,-0.00144157 -0.0396134,0.0187296 -0.0306185,0.0457145z"/>
      <path id="_164626472" class="fil6" d="M4.14435 4.57586c0.00214346,0.0104041 0.109554,0.245428 0.329466,0.200076 0.219907,-0.0453473 0.228022,-0.287936 0.228022,-0.287936 0,0 -0.265303,0.137591 -0.557487,0.0878601z"/>
      <path id="_162260384" class="fil7" d="M4.14435 4.57586c0.00214346,0.0104041 0.150517,0.161985 0.324909,0.131809 0.174397,-0.0301758 0.232578,-0.219669 0.232578,-0.219669 0,0 -0.265303,0.137591 -0.557487,0.0878601z"/>
      <path id="_166051448" class="fil2" d="M4.0585 4.48104c0.00262398,0.0127204 0.0651027,0.248689 0.395816,0.186821 0.330713,-0.0618741 0.294393,-0.297066 0.292007,-0.308641 -0.00231623,-0.0112302 -0.278001,0.107572 -0.648684,0.107367 -0.0111978,-1.07983e-005 -0.0277677,0.0142699 -0.0391329,0.0144535l-5.39913e-006 0z"/>
      <path id="_102330600" class="fil8" d="M4.13131 4.53107c0.0449424,0.0603245 0.161197,0.178862 0.33128,0.14379 0.144313,-0.02976 0.202003,-0.137591 0.224615,-0.208201 0.00924332,-0.0288746 0.0138326,-0.0624896 -0.0264288,-0.046141 -0.0845882,0.0343655 -0.289777,0.105256 -0.500651,0.084464 -0.02462,-0.00242421 -0.0506115,-0.00318009 -0.0288152,0.0260886z"/>
      <path id="_163719432" class="fil7" d="M4.20584 4.57986c0,0 0.0914613,0.104311 0.253219,0.0793673 0.161758,-0.024944 0.199552,-0.18897 0.199552,-0.18897 0,0 -0.151176,0.191993 -0.452771,0.109602z"/>
      <path id="_163727424" class="fil9" d="M4.23003 4.54056c0,0 0.129255,0.0347704 0.302351,-0.0355263 0.173096,-0.0702967 -0.244149,0.0196528 -0.302351,0.0355263z"/>
     </g>
     <g>
      <circle id="_164955688" class="fil1" transform="matrix(-0.94493 -0.194864 -0.194864 0.94493 2.59975 4.36593)" r="0.414913"/>
      <circle id="_102349800" class="fil2" transform="matrix(-0.786146 -0.162119 -0.162119 0.786146 2.62337 4.32121)" r="0.338925"/>
      <circle id="_164953168" class="fil3" transform="matrix(-0.584118 -0.120457 -0.120457 0.584118 2.62337 4.32121)" r="0.338925"/>
      <circle id="_162381920" class="fil4" transform="matrix(-0.417522 -0.0861012 -0.0663032 0.321517 2.61105 4.39597)" r="0.338925"/>
      <ellipse id="_102350592" class="fil2" transform="matrix(-1.07278 -0.221229 -0.189974 0.921219 2.62754 4.32241)" rx="0.127441" ry="0.146403"/>
      <path id="_102415344" class="fil5" d="M2.56871 4.22908c-0.0249278,0.0152525 -0.043679,0.0402343 -0.0500014,0.0708906 -0.0122236,0.0592879 0.0265853,0.11742 0.0866939,0.129817 0.0472532,0.00974543 0.0935994,-0.0116999 0.117199,-0.0501309 -0.0232811,0.0142483 -0.0519505,0.0200362 -0.0809762,0.0140485 -0.0601031,-0.012391 -0.0989175,-0.0705289 -0.0866885,-0.129817 0.00260778,-0.012661 0.00735902,-0.0243663 0.0137732,-0.0348082z"/>
      <circle id="_162381344" class="fil4" transform="matrix(-0.771074 -0.882778 -0.77095 0.491284 2.67271 4.2806)" r="0.0591799"/>
      <ellipse id="_165299544" class="fil4" transform="matrix(-0.565657 -0.441562 -0.441562 0.565657 2.55716 4.39219)" rx="0.0472424" ry="0.0268337"/>
      <path id="_102349728" class="fil2" d="M2.93122 4.51649c-0.0326162,0.0977945 -0.134228,0.301153 -0.407586,0.24356 -0.254218,-0.0535648 -0.303955,-0.261464 -0.312129,-0.371147 -0.00438949,-0.0588667 0.0290905,-0.0553465 0.0651351,-0.0411306 0.1189,0.0468969 0.380687,0.136112 0.623962,0.123003 0.0269471,-0.00144157 0.0396134,0.0187296 0.0306185,0.0457145z"/>
      <path id="_161413008" class="fil6" d="M2.8441 4.57586c-0.00214346,0.0104041 -0.109554,0.245428 -0.329466,0.200076 -0.219907,-0.0453473 -0.228022,-0.287936 -0.228022,-0.287936 0,0 0.265303,0.137591 0.557487,0.0878601z"/>
      <path id="_162380264" class="fil7" d="M2.8441 4.57586c-0.00214346,0.0104041 -0.155063,0.172605 -0.32946,0.142429 -0.174397,-0.0301758 -0.228027,-0.230289 -0.228027,-0.230289 0,0 0.265303,0.137591 0.557487,0.0878601z"/>
      <path id="_100590560" class="fil2" d="M2.92995 4.48103c-0.00262398,0.0127204 -0.0651027,0.248689 -0.395816,0.186821 -0.330713,-0.0618741 -0.294393,-0.297066 -0.292007,-0.308641 0.00231623,-0.0112302 0.278001,0.107572 0.648684,0.107367 0.0111978,-1.07983e-005 0.0277677,0.0142699 0.0391329,0.0144535l5.39913e-006 0z"/>
      <path id="_164630792" class="fil8" d="M2.85713 4.53107c-0.0449424,0.0603245 -0.161197,0.178862 -0.33128,0.14379 -0.144313,-0.02976 -0.202003,-0.137591 -0.224615,-0.208201 -0.00924332,-0.0288746 -0.0138326,-0.0624896 0.0264288,-0.046141 0.0845882,0.0343655 0.289777,0.105256 0.500651,0.084464 0.02462,-0.00242421 0.0506115,-0.00318009 0.0288152,0.0260886z"/>
      <path id="_162260528" class="fil7" d="M2.78261 4.57986c0,0 -0.0914613,0.104311 -0.253219,0.0793673 -0.161758,-0.024944 -0.199552,-0.18897 -0.199552,-0.18897 0,0 0.151176,0.191993 0.452771,0.109602z"/>
      <path id="_162380696" class="fil9" d="M2.75842 4.54055c0,0 -0.129255,0.0347704 -0.302351,-0.0355263 -0.173096,-0.0702967 0.244149,0.0196528 0.302351,0.0355263z"/>
     </g>
    </g>
   </g>
  </g>
 </g>
</svg>
