<?xml version="1.0" encoding="UTF-8"?>
<!DOCTYPE svg PUBLIC "-//W3C//DTD SVG 1.1//EN" "http://www.w3.org/Graphics/SVG/1.1/DTD/svg11.dtd">
<!-- Creator: CorelDRAW -->
<svg xmlns="http://www.w3.org/2000/svg" xml:space="preserve" width="129.436mm" height="197.989mm" style="shape-rendering:geometricPrecision; text-rendering:geometricPrecision; image-rendering:optimizeQuality; fill-rule:evenodd; clip-rule:evenodd"
viewBox="0 0 5.27254 8.065"
 xmlns:xlink="http://www.w3.org/1999/xlink">
 <defs>
  <style type="text/css">
   <![CDATA[
    .fil0 {fill:none}
    .fil2 {fill:#501D33}
    .fil5 {fill:#623448}
    .fil3 {fill:#ADA5B7}
    .fil1 {fill:#D77D75}
    .fil4 {fill:white}
   ]]>
  </style>
 </defs>
 <g id="Layer_x0020_1">
  <metadata id="CorelCorpID_0Corel-Layer"/>
  <g id="_224426752">
   <rect id="_284246928" class="fil0" width="5.27254" height="8.065"/>
   <g id="_164630048">
    <g>
     <g>
      <path id="_166335456" class="fil1" d="M3.31467 2.97678c-0.275965,0 -0.396002,0.350448 -0.165708,0.523904 0,0 -0.0849073,-0.0183958 -0.133838,-0.107523 0.0458835,0.236697 0.311013,0.346297 0.503329,0.206736 -0.0885489,0.024897 -0.209999,0.0186402 -0.275366,-0.0386979 0.0229254,0.00568655 0.0468937,0.0087335 0.0715789,0.0087335 0.163765,0 0.296577,-0.132811 0.296577,-0.296577 0,-0.163765 -0.132811,-0.296577 -0.296577,-0.296577l4.07346e-006 0z"/>
      <g>
       <path id="_166322256" class="fil2" d="M3.11166 3.2829c0,0 0.0151288,0.229373 0.264527,0.241092 0,0 -0.149415,-0.0193286 -0.175334,-0.223047l-0.0588738 -0.0308483 -0.0303188 0.0128029z"/>
       <circle id="_166346304" class="fil2" cx="3.31442" cy="3.25209" r="0.205253"/>
       <circle id="_166332552" class="fil3" cx="3.31442" cy="3.25209" r="0.152506"/>
       <ellipse id="_166339728" class="fil4" cx="3.31212" cy="3.30921" rx="0.10901" ry="0.0839418"/>
       <g>
        <g>
         <ellipse id="_166352232" class="fil2" cx="3.31115" cy="3.25234" rx="0.105315" ry="0.103894"/>
         <path id="_166333704" class="fil5" d="M3.36884 3.19234c0.0160943,0.0150718 0.0261435,0.0363882 0.0261435,0.0600021 0,0.0456717 -0.037537,0.0827157 -0.08384,0.0827157 -0.0364045,0 -0.0673791,-0.0229092 -0.07896,-0.0549021 0.0150311,0.0140779 0.0353332,0.0227218 0.0576925,0.0227218 0.046299,0 0.0838359,-0.0370441 0.0838359,-0.0827157 0,-0.00975594 -0.00172715,-0.019129 -0.00487186,-0.0278218z"/>
         <circle id="_166342320" class="fil4" transform="matrix(0.933479 -0.708851 0.655837 0.636869 3.28414 3.21456)" r="0.0446492"/>
        </g>
        <ellipse id="_166340040" class="fil4" transform="matrix(0.643182 -0.318217 0.318217 0.643182 3.35251 3.31463)" rx="0.0356428" ry="0.0202451"/>
       </g>
       <path id="_166346400" class="fil2" d="M3.59701 3.306c0,0 -0.0143915,0.187941 -0.180715,0.232737 0.138339,0.0300051 0.269521,-0.0576314 0.180715,-0.232737z"/>
      </g>
     </g>
     <g>
      <path id="_166336896" class="fil1" d="M1.95788 2.97677c0.275965,0 0.396002,0.350448 0.165708,0.523904 0,0 0.0849073,-0.0183958 0.133838,-0.107523 -0.0458835,0.236697 -0.311013,0.346297 -0.503329,0.206736 0.0885489,0.024897 0.209999,0.0186402 0.275366,-0.0386979 -0.0229254,0.00568655 -0.0468937,0.0087335 -0.0715789,0.0087335 -0.163765,0 -0.296577,-0.132811 -0.296577,-0.296577 0,-0.163765 0.132811,-0.296577 0.296577,-0.296577l-4.07346e-006 0z"/>
      <g>
       <path id="_166336440" class="fil2" d="M2.16088 3.2829c0,0 -0.0151288,0.229373 -0.264527,0.241092 0,0 0.149415,-0.0193286 0.175334,-0.223047l0.0588738 -0.0308483 0.0303188 0.0128029z"/>
       <circle id="_166332696" class="fil2" cx="1.95813" cy="3.25209" r="0.205253"/>
       <circle id="_166323456" class="fil3" cx="1.95813" cy="3.25209" r="0.152506"/>
       <ellipse id="_166349424" class="fil4" cx="1.96042" cy="3.3092" rx="0.10901" ry="0.0839418"/>
       <g>
        <g>
         <ellipse id="_166342368" class="fil2" cx="1.9614" cy="3.25234" rx="0.105315" ry="0.103894"/>
         <path id="_166327776" class="fil5" d="M1.9037 3.19233c-0.0160943,0.0150718 -0.0261435,0.0363882 -0.0261435,0.0600021 0,0.0456717 0.037537,0.0827157 0.08384,0.0827157 0.0364045,0 0.0673791,-0.0229092 0.07896,-0.0549021 -0.0150311,0.0140779 -0.0353332,0.0227218 -0.0576925,0.0227218 -0.046299,0 -0.0838359,-0.0370441 -0.0838359,-0.0827157 0,-0.00975594 0.00172715,-0.019129 0.00487186,-0.0278218z"/>
         <circle id="_166334664" class="fil4" transform="matrix(-0.933479 -0.708851 -0.655837 0.636869 1.98841 3.21456)" r="0.0446492"/>
        </g>
        <ellipse id="_166331376" class="fil4" transform="matrix(-0.643182 -0.318217 -0.318217 0.643182 1.92003 3.31462)" rx="0.0356428" ry="0.0202451"/>
       </g>
       <path id="_166341744" class="fil2" d="M1.67553 3.306c0,0 0.0143915,0.187941 0.180715,0.232737 -0.138339,0.0300051 -0.269521,-0.0576314 -0.180715,-0.232737z"/>
      </g>
     </g>
    </g>
    <path id="_166335576" class="fil2" d="M2.22299 3.53733c0.0126644,0 0.0229336,0.0102692 0.0229336,0.0229336 0,0.0126644 -0.0102692,0.0229336 -0.0229336,0.0229336 -0.0126644,0 -0.0229336,-0.0102692 -0.0229336,-0.0229336 0,-0.0126644 0.0102692,-0.0229336 0.0229336,-0.0229336zm1.33129 0.0848543c0.0132999,0 0.0240823,0.0107825 0.0240823,0.0240782 0,0.0132999 -0.0107825,0.0240823 -0.0240823,0.0240823 -0.0132958,0 -0.0240782,-0.0107825 -0.0240782,-0.0240823 0,-0.0132958 0.0107825,-0.0240782 0.0240782,-0.0240782zm-0.17544 0.00229336c0.0113975,0 0.0206402,0.00924269 0.0206402,0.0206402 0,0.0113975 -0.00924269,0.0206402 -0.0206402,0.0206402 -0.0113975,0 -0.0206402,-0.00924269 -0.0206402,-0.0206402 0,-0.0113975 0.00924269,-0.0206402 0.0206402,-0.0206402zm-0.115817 0.032107c0.0170963,0 0.0309624,0.0138661 0.0309624,0.0309583 0,0.0170963 -0.0138661,0.0309624 -0.0309624,0.0309624 -0.0170923,0 -0.0309583,-0.0138661 -0.0309583,-0.0309624 0,-0.0170923 0.0138661,-0.0309583 0.0309583,-0.0309583zm-0.149068 -0.0733875c0.012033,0 0.021789,0.00975594 0.021789,0.0217849 0,0.012033 -0.00975594,0.021789 -0.021789,0.021789 -0.0120289,0 -0.0217849,-0.00975594 -0.0217849,-0.021789 0,-0.0120289 0.00975594,-0.0217849 0.0217849,-0.0217849zm-1.31982 0.0504539c0.0164609,0 0.0298137,0.0133528 0.0298137,0.0298137 0,0.0164609 -0.0133528,0.0298137 -0.0298137,0.0298137 -0.0164609,0 -0.0298137,-0.0133528 -0.0298137,-0.0298137 0,-0.0164609 0.0133528,-0.0298137 0.0298137,-0.0298137zm0.213282 -0.0642141c0.0151981,0 0.0275203,0.0123222 0.0275203,0.0275203 0,0.0151981 -0.0123222,0.0275203 -0.0275203,0.0275203 -0.0151981,0 -0.0275203,-0.0123222 -0.0275203,-0.0275203 0,-0.0151981 0.0123222,-0.0275203 0.0275203,-0.0275203zm0.302723 -0.112375c0.0126644,0 0.0229336,0.0102692 0.0229336,0.0229336 0,0.0126644 -0.0102692,0.0229336 -0.0229336,0.0229336 -0.0126644,0 -0.0229336,-0.0102692 -0.0229336,-0.0229336 0,-0.0126644 0.0102692,-0.0229336 0.0229336,-0.0229336z"/>
   </g>
  </g>
 </g>
</svg>
