<?xml version="1.0" encoding="UTF-8"?>
<!DOCTYPE svg PUBLIC "-//W3C//DTD SVG 1.1//EN" "http://www.w3.org/Graphics/SVG/1.1/DTD/svg11.dtd">
<!-- Creator: CorelDRAW -->
<svg xmlns="http://www.w3.org/2000/svg" xml:space="preserve" width="129.436mm" height="197.989mm" style="shape-rendering:geometricPrecision; text-rendering:geometricPrecision; image-rendering:optimizeQuality; fill-rule:evenodd; clip-rule:evenodd"
viewBox="0 0 7.84434 11.9989"
 xmlns:xlink="http://www.w3.org/1999/xlink">
 <defs>
  <style type="text/css">
   <![CDATA[
    .fil0 {fill:none}
    .fil2 {fill:#501D33}
    .fil5 {fill:#5A2131}
    .fil6 {fill:#98444C}
    .fil3 {fill:#ADA5B7}
    .fil1 {fill:#D77D75}
    .fil7 {fill:#FFCFA5}
    .fil4 {fill:white}
   ]]>
  </style>
 </defs>
 <g id="Layer_x0020_1">
  <metadata id="CorelCorpID_0Corel-Layer"/>
  <g id="_284238696">
   <rect id="_233890296" class="fil0" width="7.84434" height="11.9989"/>
   <g id="_102414960">
    <g>
     <circle id="_102415512" class="fil1" cx="2.89795" cy="4.89888" r="0.448668"/>
     <path id="_161959104" class="fil1" d="M3.32795 5.01814c0,0 -0.0459801,0.374653 -0.478534,0.422336 0,0 0.274178,-0.0885543 0.315049,-0.398494 0.0408712,-0.30994 0.163485,-0.0238415 0.163485,-0.0238415z"/>
     <g>
      <circle id="_164625464" class="fil2" cx="2.90722" cy="4.87701" r="0.30537"/>
      <circle id="_164636288" class="fil3" cx="2.90722" cy="4.87701" r="0.226894"/>
      <ellipse id="_163719120" class="fil4" cx="2.91063" cy="4.96199" rx="0.162182" ry="0.124886"/>
     </g>
     <g>
      <ellipse id="_164640560" class="fil5" cx="2.91208" cy="4.87738" rx="0.156685" ry="0.15457"/>
      <path id="_164629952" class="fil6" d="M2.82624 4.78811c-0.0239446,0.0224234 -0.0388955,0.0541374 -0.0388955,0.0892694 0,0.067949 0.0558464,0.123062 0.124735,0.123062 0.0541616,0 0.100245,-0.0340836 0.117474,-0.0816818 -0.0223628,0.0209447 -0.0525677,0.0338048 -0.0858331,0.0338048 -0.0688823,0 -0.124729,-0.0551131 -0.124729,-0.123062 0,-0.0145146 0.0025696,-0.0284595 0.00724821,-0.0413924z"/>
      <circle id="_162115952" class="fil4" transform="matrix(-0.933479 -0.708851 -0.655837 0.636869 2.95226 4.82118)" r="0.0664278"/>
      <ellipse id="_164639456" class="fil4" transform="matrix(-0.643182 -0.318217 -0.318217 0.643182 2.85053 4.97005)" rx="0.0530283" ry="0.0301201"/>
     </g>
     <path id="_163718928" class="fil2" d="M3.21095 5.1118c0,0 -0.103881,-0.144758 -0.316752,-0.146455 -0.212871,-0.00169691 -0.298019,0.13794 -0.298019,0.13794 0,0 0.350811,0.051089 0.614771,0.00851483z"/>
     <path id="_164627840" class="fil1" d="M3.21943 5.11521c0,0 -0.317582,-0.159243 -0.658175,-0.0076785 0.0568403,0.253203 0.559549,0.223058 0.658175,0.0076785z"/>
     <ellipse id="_163718856" class="fil7" cx="2.88394" cy="5.11625" rx="0.192399" ry="0.0493314"/>
     <path id="_102415200" class="fil1" d="M2.57164 4.93443c0.00281202,0.00873301 -0.127371,0.121189 -0.00503011,0.431281 0,0 -0.19215,-0.135492 -0.117165,-0.4764 0.074979,-0.340914 0.122195,0.0451195 0.122195,0.0451195z"/>
    </g>
    <g>
     <circle id="_161958648" class="fil1" cx="4.94639" cy="4.89888" r="0.448668"/>
     <path id="_164641208" class="fil1" d="M4.51639 5.01814c0,0 0.0459801,0.374653 0.478534,0.422336 0,0 -0.274178,-0.0885543 -0.315049,-0.398494 -0.0408712,-0.30994 -0.163485,-0.0238415 -0.163485,-0.0238415z"/>
     <g>
      <circle id="_164638808" class="fil2" cx="4.93712" cy="4.87701" r="0.30537"/>
      <circle id="_164629760" class="fil3" cx="4.93712" cy="4.87701" r="0.226894"/>
      <ellipse id="_102414816" class="fil4" cx="4.93371" cy="4.96199" rx="0.162182" ry="0.124886"/>
     </g>
     <g>
      <ellipse id="_164633192" class="fil5" cx="4.93226" cy="4.87738" rx="0.156685" ry="0.15457"/>
      <path id="_164953648" class="fil6" d="M5.0181 4.78811c0.0239446,0.0224234 0.0388955,0.0541374 0.0388955,0.0892694 0,0.067949 -0.0558464,0.123062 -0.124735,0.123062 -0.0541616,0 -0.100245,-0.0340836 -0.117474,-0.0816818 0.0223628,0.0209447 0.0525677,0.0338048 0.0858331,0.0338048 0.0688823,0 0.124729,-0.0551131 0.124729,-0.123062 0,-0.0145146 -0.0025696,-0.0284595 -0.00724821,-0.0413924z"/>
      <circle id="_163725264" class="fil4" transform="matrix(0.933479 -0.708851 0.655837 0.636869 4.89208 4.82118)" r="0.0664278"/>
      <ellipse id="_163718952" class="fil4" transform="matrix(0.643182 -0.318217 0.318217 0.643182 4.9938 4.97005)" rx="0.0530283" ry="0.0301201"/>
     </g>
     <path id="_163719144" class="fil2" d="M4.63338 5.1118c0,0 0.103881,-0.144758 0.316752,-0.146455 0.212871,-0.00169691 0.298019,0.13794 0.298019,0.13794 0,0 -0.350811,0.051089 -0.614771,0.00851483z"/>
     <path id="_163718832" class="fil1" d="M4.62491 5.11521c0,0 0.317582,-0.159243 0.658175,-0.0076785 -0.0568403,0.253203 -0.559549,0.223058 -0.658175,0.0076785z"/>
     <ellipse id="_161412864" class="fil7" cx="4.96039" cy="5.11625" rx="0.192399" ry="0.0493314"/>
     <path id="_102537776" class="fil1" d="M5.27269 4.93443c-0.00281202,0.00873301 0.127371,0.121189 0.00503011,0.431281 0,0 0.19215,-0.135492 0.117165,-0.4764 -0.074979,-0.340914 -0.122195,0.0451195 -0.122195,0.0451195z"/>
    </g>
   </g>
  </g>
 </g>
</svg>
