<?xml version="1.0" encoding="UTF-8"?>
<!DOCTYPE svg PUBLIC "-//W3C//DTD SVG 1.1//EN" "http://www.w3.org/Graphics/SVG/1.1/DTD/svg11.dtd">
<!-- Creator: CorelDRAW -->
<svg xmlns="http://www.w3.org/2000/svg" xml:space="preserve" width="129.436mm" height="197.989mm" style="shape-rendering:geometricPrecision; text-rendering:geometricPrecision; image-rendering:optimizeQuality; fill-rule:evenodd; clip-rule:evenodd"
viewBox="0 0 6.39166 9.77682"
 xmlns:xlink="http://www.w3.org/1999/xlink">
 <defs>
  <style type="text/css">
   <![CDATA[
    .fil0 {fill:none}
    .fil2 {fill:#501D33}
    .fil6 {fill:#623448}
    .fil4 {fill:#ADA5B7}
    .fil1 {fill:#D1716A}
    .fil3 {fill:#FFCFA5}
    .fil5 {fill:white}
   ]]>
  </style>
 </defs>
 <g id="Layer_x0020_1">
  <metadata id="CorelCorpID_0Corel-Layer"/>
  <g id="_233887896">
   <rect id="_280212296" class="fil0" width="6.39166" height="9.77683"/>
   <g id="_162116528">
    <g>
     <path id="_162256352" class="fil1" d="M2.82285 3.97464c0.00348134,0.0980849 -0.0234015,0.200841 -0.0749451,0.286225 -0.107462,0.177998 -0.35798,0.254192 -0.563888,0.111635 0.107344,0.0301815 0.254572,0.0225966 0.333813,-0.0469117 -0.0277915,0.00689354 -0.056847,0.0105872 -0.0867717,0.0105872 -0.198525,0 -0.359526,-0.161001 -0.359526,-0.359526 0,-0.521401 0.735027,-0.460658 0.751312,-0.00200979l4.93807e-006 0z"/>
     <g>
      <ellipse id="_162256208" class="fil2" transform="matrix(-0.91047 0.730515 0.730515 0.91047 2.41688 3.9879)" rx="0.236311" ry="0.0375293"/>
      <ellipse id="_164635832" class="fil2" transform="matrix(0.897936 0.745868 -0.745868 0.897936 2.41689 3.9879)" rx="0.236311" ry="0.0375293"/>
     </g>
     <path id="_162256280" class="fil3" d="M2.53524 4.15809c0,0 -0.0977343,-0.0794634 -0.122109,-0.0756265 -0.0213818,0.00336776 -0.0479141,0.0208535 -0.118237,0.0816016 0.0649504,-0.0369516 0.172195,-0.0338554 0.240346,-0.00597506z"/>
     <path id="_162256136" class="fil1" d="M2.51831 4.32639c0,0 -0.328861,0.0915814 -0.49676,-0.141535 0,0 0.133209,0.106845 0.406566,0.0568915l0.0888062 0.0180388 0.0013876 0.0666047z"/>
    </g>
    <g>
     <path id="_162255992" class="fil1" d="M3.99277 3.60813c-0.334539,0 -0.480054,0.424832 -0.200881,0.635105 0,0 -0.102929,-0.0223003 -0.162245,-0.130345 0.0556224,0.286936 0.377026,0.4198 0.610163,0.250617 -0.107344,0.0301815 -0.254572,0.0225966 -0.333813,-0.0469117 0.0277915,0.00689354 0.056847,0.0105872 0.0867717,0.0105872 0.198525,0 0.359526,-0.161001 0.359526,-0.359526 0,-0.198525 -0.161001,-0.359526 -0.359526,-0.359526l4.93807e-006 0z"/>
     <g>
      <path id="_162255776" class="fil2" d="M3.74668 3.97924c0,0 0.01834,0.278058 0.320673,0.292265 0,0 -0.181128,-0.0234311 -0.212549,-0.270389l-0.0713699 -0.037396 -0.036754 0.0155203z"/>
      <circle id="_164626304" class="fil2" cx="3.99246" cy="3.94188" r="0.248819"/>
      <circle id="_162255704" class="fil4" cx="3.99246" cy="3.94188" r="0.184876"/>
      <ellipse id="_162255632" class="fil5" cx="3.98969" cy="4.01113" rx="0.132148" ry="0.101759"/>
      <g>
       <g>
        <ellipse id="_164633480" class="fil2" cx="3.98851" cy="3.94219" rx="0.127669" ry="0.125945"/>
        <path id="_162255272" class="fil6" d="M4.05845 3.86945c0.0195103,0.0182709 0.0316925,0.0441118 0.0316925,0.0727378 0,0.0553656 -0.0455043,0.100272 -0.101635,0.100272 -0.0441315,0 -0.0816806,-0.0277717 -0.0957195,-0.0665553 0.0182215,0.017066 0.0428328,0.0275445 0.0699379,0.0275445 0.0561261,0 0.10163,-0.0449068 0.10163,-0.100272 0,-0.0118267 -0.00209374,-0.0231892 -0.00590593,-0.033727z"/>
        <circle id="_162255200" class="fil5" transform="matrix(0.933479 -0.708851 0.655837 0.636869 3.95577 3.89639)" r="0.0541262"/>
       </g>
       <ellipse id="_162255344" class="fil5" transform="matrix(0.643182 -0.318217 0.318217 0.643182 4.03866 4.0177)" rx="0.0432081" ry="0.0245422"/>
      </g>
      <path id="_162255488" class="fil2" d="M4.33505 4.00724c0,0 -0.0174462,0.227833 -0.219072,0.282137 0.167702,0.0363738 0.326727,-0.0698638 0.219072,-0.282137z"/>
     </g>
    </g>
   </g>
  </g>
 </g>
</svg>
