<?xml version="1.0" encoding="UTF-8"?>
<!DOCTYPE svg PUBLIC "-//W3C//DTD SVG 1.1//EN" "http://www.w3.org/Graphics/SVG/1.1/DTD/svg11.dtd">
<!-- Creator: CorelDRAW 2020 (64-Bit) -->
<svg xmlns="http://www.w3.org/2000/svg" xml:space="preserve" width="161.909mm" height="176.791mm" version="1.1" style="shape-rendering:geometricPrecision; text-rendering:geometricPrecision; image-rendering:optimizeQuality; fill-rule:evenodd; clip-rule:evenodd"
viewBox="0 0 1343.63 1467.14"
 xmlns:xlink="http://www.w3.org/1999/xlink"
 xmlns:xodm="http://www.corel.com/coreldraw/odm/2003">
 <defs>
  <style type="text/css">
   <![CDATA[
    .fil0 {fill:none}
    .fil1 {fill:#501D33}
    .fil9 {fill:#525B75}
    .fil7 {fill:#65798E}
    .fil11 {fill:#86555D}
    .fil10 {fill:#A57E72}
    .fil12 {fill:#C6AC93}
    .fil13 {fill:#C8B99F}
    .fil6 {fill:#D77D75}
    .fil3 {fill:#E67C40}
    .fil2 {fill:#FCB249}
    .fil4 {fill:#FFCE78}
    .fil5 {fill:#FFCFA5}
    .fil8 {fill:white}
   ]]>
  </style>
 </defs>
 <g id="Слой_x0020_1">
  <metadata id="CorelCorpID_0Corel-Layer"/>
  <g id="_560913568">
   <g>
    <g id="_209642856">
     <rect id="_135244968" class="fil0" width="1343.63" height="1467.14"/>
     <path id="_123309408" class="fil1" d="M978.21 152.19c138.56,62.17 252.13,302.51 262.25,429.1 11.6,145.03 9.8,233.29 -74.79,410.47 0,0 -19.33,37.07 -82.19,21.78 -27.65,1.94 -54.83,-6.3 -68.29,-25.6 -0.33,-0.47 -36.07,-5.94 -52.93,-22.35 -7.65,-7.45 -12.51,-14.07 -9.76,-27.61 3.6,-17.74 8.91,-39.45 8.91,-39.45 0,0 -31.27,-31.17 -26.15,-44.43 5.12,-13.26 69.05,-68.67 69.16,-69.2 43.87,-201.17 0.85,-372.77 -114.08,-511.38l-92.34 -122.27c46.39,-13.7 131,-21.13 180.2,0.95l0 -0 0 0 -0 -0z"/>
     <path id="_123309336" class="fil1" d="M367.19 152.19c-138.56,62.17 -252.13,302.51 -262.25,429.1 -11.6,145.03 -9.8,233.29 74.79,410.47 0,0 18.63,37.54 81.49,22.25 28.12,2.63 55.76,-8.87 69.22,-28.17 0.33,-0.47 35.83,-3.84 52.69,-20.25 7.65,-7.45 12.51,-14.07 9.76,-27.61 -3.6,-17.74 -8.91,-39.45 -8.91,-39.45 0,0 31.27,-31.17 26.15,-44.43 -5.12,-13.26 -69.05,-68.67 -69.16,-69.2 -43.87,-201.17 -0.85,-372.77 114.08,-511.38l92.34 -122.27c-46.39,-13.7 -131,-21.13 -180.2,0.95l0 -0 -0 0 0 -0z"/>
     <path id="_123309264" class="fil1" d="M419.5 762.02c-24.55,-149.24 -36,-404.72 -50.91,-521.65 26.34,-108.44 233.48,-75.19 304.04,-60.52 70.56,-14.67 277.7,-47.92 304.04,60.52 -14.92,116.93 -29.17,371.94 -53.72,521.18 -131.39,51.09 -372.06,51.56 -503.45,0.47l-0 0 0 -0 0 0z"/>
     <path id="_123309192" class="fil2" d="M440.94 751.35c-24.28,-158.34 -42.13,-335.79 -52.21,-493.73 20.39,-83.94 149.74,-126.71 280.15,-127.7l7.49 0c130.41,0.99 259.77,43.76 280.15,127.7 -10.08,157.95 -27.93,335.39 -52.21,493.73 -127.61,41 -335.77,41 -463.38,0l-0 -0 0 0z"/>
     <path id="_123309120" class="fil3" d="M440.94 751.35c-19.66,-128.2 -35.1,-268.92 -45.61,-401.68 1.27,-5.92 2.41,-9.39 3.37,-9.76l63.6 386.26c0,0 156.75,70.36 422.48,1.12l63.62 -394.86c0,0 0.7,4.59 1.9,12.62 -10.52,134.11 -26.1,276.6 -45.98,406.29 -127.61,40.99 -335.77,41 -463.38,0l0 0 0 0 0 -0z"/>
     <polygon id="_123309024" class="fil3" points="416.21,534.03 594.63,626.03 439.93,608.38 "/>
     <polygon id="_123308952" class="fil3" points="898.77,637.08 686.45,702.08 905.32,676.36 905.26,653.47 "/>
     <polygon id="_123308880" class="fil4" points="553.92,638.03 678.19,690.38 884.7,631.04 678.33,652.4 "/>
     <path id="_123308808" class="fil5" d="M964.27 341.11l-134.97 -186.75c91.92,-4.06 144.76,-0.07 211.66,68.55 95.16,97.6 163.58,244.82 180.61,381.08 17.14,137.16 -9.03,257.43 -72.52,381.79 0,0 -7.71,22.7 -56.28,17.08 0,0 14.13,-24.99 13.17,-27.15 -0.96,-2.16 -24.62,25.11 -24.62,25.11 0,0 -29.89,0.11 -54.29,-20.95 0,0 -0.1,-33.76 -2.22,-33.68 -2.12,0.08 -8.91,25 -8.91,25l-31.91 -8.43c-14.58,-6.85 -19.14,-7.94 -15.18,-26 3.02,-13.79 8.07,-37.06 19.18,-76.12 -3.06,-3.61 -10.48,13.35 -15.91,22.67 0,0 -17.47,-19.29 -16.72,-25.87 0.74,-6.58 61.93,-54.14 61.93,-54.14 49.44,-155.13 16,-340.44 -53.03,-462.2l0 -0 -0 0z"/>
     <path id="_123308736" class="fil6" d="M964.27 341.11l-3.37 -4.67c0.89,-0.5 1.76,-1.05 2.66,-1.49 0,0 147.01,166.81 98.59,409.31 17.84,-0.24 41.09,2.46 56.51,3.27 19.07,1 63.78,22.85 98.44,43.93 -4.87,26.75 -11.57,53.19 -20.04,79.52 -48.73,-37.5 -111.98,-54.49 -152.16,-61.94 -15.71,47.15 -39.06,96.61 -72.33,147.83 -5.25,-3.67 -6.35,-8.19 -3.74,-20.12 3.02,-13.79 8.07,-37.06 19.18,-76.12 -3.06,-3.61 -10.48,13.35 -15.91,22.67 0,0 -17.47,-19.29 -16.72,-25.87 0.67,-5.93 50.51,-45.21 60.27,-52.85l0.14 -0.11 1.51 -1.18c0.74,-2.33 1.47,-4.68 2.17,-7.02l0.16 -0.53c0.65,-2.18 1.29,-4.37 1.91,-6.56l0.3 -1.06c0.56,-1.98 1.1,-3.97 1.63,-5.96l0.47 -1.77c0.44,-1.69 0.88,-3.39 1.3,-5.08 0.25,-1.01 0.5,-2.02 0.75,-3.03 0.3,-1.23 0.6,-2.47 0.89,-3.71 0.41,-1.74 0.81,-3.48 1.2,-5.22l0.26 -1.15 0.17 -0.79c0.41,-1.88 0.81,-3.75 1.2,-5.64l0.3 -1.45 0.16 -0.79 0 0c29.14,-143.59 -4.12,-303.46 -65.9,-412.44l0 -0z"/>
     <path id="_123308664" class="fil7" d="M1199.45 863.4l-1.4 1.51 -0.48 -0.44 0.22 1.19c0.31,0.03 0.62,0.06 0.93,0.09 0.24,-0.78 0.49,-1.57 0.73,-2.35zm-14.04 -405.12c8.07,21.93 15.04,44.12 20.81,66.34 -22.13,13.22 -36.97,45.85 -32.54,70.48l1.92 10.7c0.68,3.8 2.01,4.31 2.69,8.11 2.7,2.79 4.4,7.89 8.49,11.74 2.76,2.6 7.8,5.4 11.75,6.3 9.39,2.14 24.6,-0.84 22.66,-11.64l-0.43 -2.38c-0.29,-1.6 -0.58,-1.59 -1.13,-2.86 -2.4,1.12 -3.59,4.33 -7.68,5.06 -3.31,0.6 -7.21,-2.53 -7.94,-6.55 -1,-5.58 2.57,-9.66 7.91,-10.63 3.62,-0.65 6.92,0.06 9.73,1.73 1.42,11.47 2.54,22.82 3.36,34.06 -4.01,4.51 -9.68,7.77 -16.1,8.93l-1.78 0.32c-6.05,1.09 -12.19,1.13 -16.59,-0.08 3.68,7.85 23.03,13.02 35.64,11.35 0.38,9.38 0.55,18.7 0.52,27.95 -11.68,-2.14 -24.6,-3.34 -32.5,-1.92 2.59,14.4 19.36,32.55 19.71,34.5 0.13,0.7 -5.07,12.03 -4.14,17.93 -4.92,0.47 -13.61,-12.28 -18.62,-11.38l-1.19 0.22c-3.89,0.7 -3.09,10.14 -2.3,14.53 3.07,17.08 16.27,30.71 32.3,33.31 -0.71,4.67 -1.47,9.34 -2.3,13.99 -6.87,-1.3 -13.48,-3.64 -15.93,-3.2 -1.39,0.25 -2.2,1.41 -1.95,2.8 1.31,7.29 7.14,13.2 14.71,16.97 -3.71,18.02 -8.25,35.91 -13.6,53.74 -7.56,8.37 -18.61,16.5 -33.43,19.16l-0.6 0.11c-35.98,6.47 -46,-29.16 -63.01,-26.09l-4.16 0.75c-3.3,0.59 -7.69,5 -7.04,8.63l0.64 3.57c0.61,3.39 6.31,6.84 9.71,6.23l0.6 -0.1c2.17,-0.39 4.46,-2.5 4.11,-4.42l-0.43 -2.38c-2.74,1.28 -1.56,2.74 -3.73,3.13l-0.59 0.11c-1.43,0.26 -3.95,-1.49 -4.21,-2.92l-0.64 -3.57c-0.34,-1.89 2.28,-4.7 4.6,-5.12l3.57 -0.64c3.36,-0.61 8.18,4.49 8.95,8.82l0.11 0.59c1.27,7.04 -2.63,12.13 -9.86,13.43l-1.19 0.21c-9.09,1.64 -18.81,-5.64 -20.45,-14.73l-0.21 -1.19c-1.56,-8.7 4.06,-16.07 12.79,-17.64l5.94 -1.07c5.02,-0.9 12.7,1.9 16.14,3.74 3.96,2.11 10.71,8.95 12.05,9.6 2.19,-6.85 4.44,-13.11 14.51,-14.15 7.71,-0.79 15.22,1.98 16.73,10.37 0.9,5.05 -0.95,9.37 -6.13,10.3l-2.38 0.43c-1.84,0.34 -5.39,-2.64 -5.82,-5.08 -0.58,-3.21 1.4,-5.52 4.39,-6.31 -1.09,-2.52 -3.01,-4.37 -6.21,-3.79 -4.72,0.85 -6.74,6.9 -5.92,11.5 1.61,8.94 11.4,9.72 19.79,9.7 7.9,-0.02 18.79,-6.12 23.64,-9.17 10.91,-6.84 21.78,-23.59 18.95,-39.36l-0.32 -1.79c-1.36,-7.57 -11.5,-18.79 -18.5,-17.53 -5.73,1.03 -11.89,15.79 -10.96,20.99l0.75 4.16c2.17,12.08 10.98,17.48 17.19,23.9l-7.67 7.74c-5.01,-2.3 -10.43,-7.94 -14.34,-12 -2.98,-3.1 -9.21,-13.62 -13.46,-12.06l-16.07 5.79 -3.72 0.22c-15.74,2.83 -35.33,-2.5 -44.75,-8.97 -6.1,-4.19 -11.24,-7.42 -16.52,-12.9 -6.35,-6.58 -7.78,-11.16 -12.84,-18.18l5.46 -0.23 8.91 -1.74c7.39,17.13 33.97,33.78 56.3,29.76l2.97 -0.53c8.87,-1.59 16.09,-6.79 20.91,-11.48 3.17,-3.08 9.42,-14.45 8.49,-19.58l-0.53 -2.97c-0.24,-1.37 -0.73,-1.71 -2.1,-1.46 -3.71,0.67 -15.8,11.43 -25.26,13.13l-1.78 0.32c0.2,-2.4 4.58,-10.6 5.62,-14.3 1.31,-4.67 6.83,-7.97 10.07,-11.21 5.36,-5.37 11.18,-19.67 9.34,-29.92l-1.39 -7.73c-0.54,-3.03 -3.52,-9.8 -6.57,-9.25 -5.18,0.93 -15.96,22.53 -20.49,27.37 -4.47,4.77 -19.45,21.54 -26.35,22.78 -2.96,0.53 -9.26,-8.81 -10.19,-12.28 17.7,-8.31 43.45,-51.95 39.27,-75.17 -18.32,3.3 -39.17,18.4 -50.08,27.62 -12.59,10.63 -20.83,28.63 -16.86,50.7 -3.95,2.24 -5.49,4.56 -13.07,5.38l-1.64 -7.62c-1.64,-5.58 0.24,-21.22 1.14,-25.39 1.86,-8.61 5.11,-13.2 7.39,-20.35 -20.87,5.57 -36.17,37.83 -31.68,62.76 0.91,5.09 3.24,9.93 4.78,13.44 7.49,17.1 28.55,29.66 47.78,26.2l13.8 8.59c-2.82,0.73 -3.5,1.83 -6.9,2.45l-10.11 1.82c-7.93,1.42 -20.41,-0.98 -25.77,-3.34 -2.36,-1.04 -10.08,-4.95 -14.88,-8.42 -5.47,-3.96 -13,-14.54 -16.04,-19.98 -1.37,-2.44 -2.62,-5.04 -3.73,-7.9 8.51,-26.94 14.52,-54.78 18.29,-83.03 7.28,-7.59 16.05,-13.92 27.72,-18.94 -0.83,-4.08 -4.45,-4.14 -7.73,-5.34 -3.39,-1.24 -4.79,-2.58 -7.72,-4.61 -3.14,-2.18 -6.17,-4.3 -8.66,-7.14 0.82,-12.22 1.24,-24.47 1.3,-36.72 1.98,-1.38 4.33,-2.38 7.09,-2.87l2.38 -0.43c7.89,-1.42 17.35,4.28 18.73,11.97l0.32 1.78c0.95,5.3 -2.54,11.5 -7.59,12.41l-2.38 0.43c-3.11,0.56 -7.02,-1.48 -7.61,-4.77l-0.32 -1.78c-0.52,-2.87 1.03,-5.09 3.9,-5.61l2.38 -0.43c3.41,-0.61 2.88,1.18 5.78,1.42 -2.78,-3.85 -3.72,-7.31 -10.91,-6.01l-0.59 0.1c-5.65,1.01 -8.45,7.64 -7.49,13.01l0.43 2.38c2.26,12.59 25.01,20.04 38.76,17.57l6.54 -1.18c16.1,-2.89 28.9,-13.57 33.66,-24.46 -4.68,2.01 -7.31,4.38 -14.33,5.64l-2.38 0.43c-14.07,2.52 -28.34,-3.97 -30.71,-17.18l-0.64 -3.56c-1.59,-8.82 3.11,-18.35 11.77,-19.91l1.78 -0.32c4.42,-0.79 9.21,3.43 10.04,8.02 0.61,3.4 -2.89,7.88 -6.45,8.52 -2.61,0.47 -5.96,-1.49 -7.77,-2.28 -2.13,7.7 5.32,14.38 12.78,13.04l5.35 -0.96c7.42,-1.33 14.01,-9.9 16.29,-15.2 3.18,-7.34 4.33,-13.5 2.37,-24.36 -6.35,-35.31 -38.53,-67.93 -72.51,-61.82 -4.85,0.87 -10.23,2.14 -15.08,4.3 -0.63,-4.39 -1.29,-8.78 -2,-13.14 2.87,-1.36 7.64,-4.05 14.95,-6.17 2.35,-0.68 3.74,-1.23 7.09,-1.83l4.16 -0.75c-1.14,-6.32 -6.32,-11.23 -7.26,-16.49l-0.96 -5.35c-0.53,-2.95 8.54,-4.6 11.95,-5.22l2.97 -0.54c1.95,10.87 13.23,19.71 24.06,17.76l1.78 -0.32c3.83,-0.69 5.95,-4.46 5.26,-8.31 -1.7,-9.43 -17.53,-14.03 -27.97,-12.15l-6.54 1.18c-13.26,2.38 -27.44,10.81 -32.45,21.46 -0.96,-5.07 -1.97,-10.12 -3.04,-15.13 9.22,-9.24 20.76,-15.95 33.35,-18.21l11.89 -2.14c5.4,-0.97 10.34,-0.45 14.81,-0.35 3.78,0.08 11.48,1.76 13.61,1.38 3.72,-0.67 8.62,-7.65 9.8,-10.36l14.31 4.02c-2.57,5.93 -8.61,10.63 -6.85,20.41l0.64 3.56c1.05,5.85 8.93,12.51 15.54,11.32 5.57,-1 9.38,-9.31 8.35,-15l-0.75 -4.16c-1.79,-9.93 -11.32,-15.48 -18.32,-18.55 -4.68,-2.05 -21.08,-6.27 -27.08,-5.19l-8.33 1.5c-4.1,0.74 -11.69,5.1 -14.28,7.24 -2.58,2.14 -12.65,3.73 -17.36,4.58 5.02,-11.48 19.55,-21.31 36.74,-24.4l3.57 -0.64c27.65,-4.97 51.13,17.19 58.11,15.94 4.75,-0.86 15.96,-8.39 25.2,-10.06 3.32,1.45 7.39,5.68 8.57,10.12 -10.7,1.92 -24.32,11.51 -22.57,21.24 0.69,3.85 3.99,6.64 7.82,5.95l1.79 -0.32c8.93,-1.61 17.72,-14.07 16.31,-21.96l-0.75 -4.16c-2.01,-11.21 -17.94,-18.86 -29.42,-16.8l-4.76 0.85c-7.01,1.26 -10.12,4.36 -16.12,5.97l-14.29 -6.2c7.13,-3.46 11.11,-7.96 21.24,-9.78l7.73 -1.39c9.87,-1.78 20.98,0.07 30.42,4.63zm40.73 252.54c-0.88,20.29 -2.78,40.31 -5.67,60.12 -3.45,-3.49 -6.02,-10.55 -6.8,-14.91l-1.5 -8.32c-2.45,-13.6 3.21,-29.29 13.97,-36.89zm-186.95 -112.58c-0.25,-3.49 -0.55,-6.97 -0.86,-10.44 2.68,-1.15 3.94,-3.1 3.25,-6.97 -1.64,0.77 -2.31,1.97 -3.63,2.76 -0.51,-5.32 -1.08,-10.62 -1.73,-15.91l1.12 -0.2c6.37,-1.15 13.75,4.77 14.94,11.42 1.36,7.56 -5.07,16.58 -13.09,19.34zm80.49 194.95c-12.58,-0.64 -26.8,-12.48 -29.56,-27.82l-0.32 -1.78c-1.47,-8.2 0.85,-17.95 8.79,-19.38 5.34,-0.96 11.42,2.69 15.45,3.97 1.27,-1.23 7.32,-10.47 7.1,-11.71 -0.81,-4.48 -17.32,-6.7 -24.31,-5.45 -21.52,3.87 -25.4,28.21 -17.69,48.06 5.99,15.44 19.64,28.3 33.43,25.81 1.74,-0.31 6.48,-9.75 7.1,-11.71zm-34.28 0.64c-2.7,-4.53 -5.4,-9.06 -8.09,-13.58 -12.8,3.75 -33.79,4.42 -47.21,-1 0.23,2.61 0.47,5.23 0.7,7.84 0.4,2.18 0.78,4.36 1.18,6.54 1.74,9.68 43.98,2.52 51.17,1.22 0.94,-0.17 1.58,-0.61 2.25,-1.02zm54.43 -25.13l-1.82 -10.11c-0.4,-2.27 0.15,-0.25 -0.91,-1.68 -0.8,0.77 -11.2,13.49 -11.34,13.97 -1.59,5.75 0.6,12.46 -2.41,20.17 -3.78,9.69 -13.02,23.01 -23.01,27.7 1.55,3.3 9.96,5.65 13.49,6.78 13.15,-10.3 29.89,-35.19 26,-56.83z"/>
     <path id="_123308592" class="fil8" d="M986.48 178.98c14.63,8.48 29.22,19.57 44.41,33.98 3.33,3.16 6.69,6.47 10.08,9.95 95.16,97.6 163.58,244.82 180.61,381.08 8.19,65.59 6.48,127.32 -4.48,187.48 -6.62,-4.02 -13.6,-8.08 -20.7,-12.01 41.52,-234.67 -52.75,-461.72 -209.92,-600.48l0 -0zm230.61 612.57c-2.41,13.24 -5.28,26.41 -8.58,39.53 3.3,-13.12 6.17,-26.28 8.58,-39.53zm-8.9 40.81c-1.92,7.54 -3.98,15.06 -6.18,22.57 2.21,-7.51 4.27,-15.03 6.18,-22.57zm-6.55 23.81c-0.39,1.3 -0.78,2.61 -1.17,3.91 0.4,-1.3 0.79,-2.61 1.17,-3.91zm-1.72 5.73c-0.39,1.28 -0.79,2.56 -1.19,3.83 0.4,-1.28 0.79,-2.56 1.19,-3.83zm-1.7 5.46c-0.38,1.2 -0.76,2.41 -1.15,3.61 0.39,-1.2 0.77,-2.4 1.15,-3.61zm-1.16 3.64c-12.31,38.29 -28.37,76.34 -48,114.79 0,0 -0.66,1.92 -2.78,4.5 -14.03,-1.96 -28.22,-5.14 -42.14,-9.09 1.28,-2.81 2.05,-4.91 1.8,-5.47 -0.28,-0.64 -2.57,1.31 -5.64,4.37 -27.06,-7.98 -52.91,-18.72 -74.26,-28.77 -0.31,-3.09 -0.7,-5.14 -1.23,-5.12 -0.47,0.02 -1.11,1.45 -1.81,3.68 -14.1,-6.73 -26.07,-13.07 -34.91,-17.97 0.75,-1.26 1.49,-2.51 2.23,-3.77 62.48,17.59 148.9,26.39 148.9,26.39 15.64,-32.18 28.36,-64.6 38.33,-97.04 6.69,4.18 13.21,8.67 19.5,13.51l-0 0zm-225.07 51.59l-0 -0 0.03 -0.12 0 0 -0.03 0.12z"/>
     <g>
      <path id="_123308520" class="fil9" d="M1048.05 494.51c1.2,3.75 2.37,7.57 3.51,11.43 -9.65,3.9 -18.36,10.56 -22.06,18.43l-0.41 -2.14 -0.04 -0.24 -0.01 -0.03 -0.44 -2.25c-0.27,-1.37 -0.54,-2.74 -0.82,-4.11l-0.05 -0.24 -0.05 -0.24 -0.05 -0.24 -0 -0.02 -0.26 -1.26c-0.3,-1.46 -0.6,-2.91 -0.91,-4.37 6.26,-6.28 13.59,-11.38 21.59,-14.72zm4.16 13.63c2.02,6.99 3.92,14.17 5.69,21.5 -1.83,-5.07 -5.72,-9.3 -6.52,-13.79l-0.96 -5.35c-0.16,-0.91 0.58,-1.69 1.79,-2.36zm6.36 24.22c1.32,5.58 2.56,11.27 3.72,17.04 -4.19,-0.39 -8.46,-0.24 -12.76,0.53 -4.85,0.87 -10.23,2.14 -15.08,4.3 -0.26,-1.82 -0.53,-3.63 -0.8,-5.44l-0.3 -1.96 -0.03 -0.21 -0.03 -0.2 -0.03 -0.21c-0.19,-1.23 -0.39,-2.46 -0.58,-3.69l-0.03 -0.2 -0.03 -0.2 -0.03 -0.2 -0.13 -0.82c2.87,-1.36 7.64,-4.05 14.95,-6.17 2.35,-0.68 3.74,-1.23 7.09,-1.83l4.09 -0.73zm11.78 152.95c-1.52,19.1 -4.17,38.76 -8.2,58.96 2.22,-0.03 4.53,-0.01 6.89,0.04 -3.3,8.71 -4.46,18.93 -2.44,30.21 -3.95,2.24 -5.49,4.56 -13.07,5.38l-1.64 -7.62c-1.64,-5.58 0.24,-21.22 1.14,-25.39 1.86,-8.61 5.11,-13.2 7.39,-20.35 -20.87,5.57 -36.17,37.83 -31.68,62.76 0.91,5.09 3.24,9.93 4.78,13.44 2.09,4.77 5.24,9.19 9.11,13 -1.65,4.75 -3.37,9.51 -5.18,14.31l-0.02 -0.01c-5.47,-3.96 -13,-14.54 -16.04,-19.98 -1.37,-2.44 -2.61,-5.04 -3.73,-7.89 0.61,-1.95 1.22,-3.91 1.81,-5.87l0.16 -0.53c0.5,-1.67 0.99,-3.35 1.47,-5.02l0 -0 0.44 -1.53 0.3 -1.06 0.27 -0.97 0.03 -0.1 0.01 -0.04 0.02 -0.09 0.01 -0.02 0.01 -0.02 0.14 -0.49 0.01 -0.03 0.18 -0.64 0.02 -0.09 0 -0 0.01 -0.03 0.2 -0.71 0.02 -0.09 0.02 -0.09 0.08 -0.28 0.02 -0.07 0.08 -0.3 0 -0 0.02 -0.09 0.02 -0.09 0.02 -0.09 0.01 -0.02 0.1 -0.35 0.02 -0.09 0.02 -0.09 0.02 -0.09 0.01 -0.04 0.01 -0.05 0.03 -0.09 0.02 -0.09 0.02 -0.09 0.02 -0.09 0.02 -0.09 0.02 -0.09 0.02 -0.09 0.02 -0.09 0 -0.01 0.02 -0.08 0.47 -1.77 0.04 -0.15 0.04 -0.14 0.01 -0.03 0.02 -0.08 0.23 -0.87 0.02 -0.08 0.14 -0.56 0.02 -0.08 0.06 -0.24 0 -0 0.02 -0.08 0.05 -0.21 0.03 -0.11 0.02 -0.08 0.02 -0.08 45.7 -92.33zm8.36 59.38c5.33,0.28 10.77,0.68 16.07,1.09 -4.85,3.39 -6.18,11.12 -4.98,17.81l0.32 1.78c2.76,15.34 16.98,27.18 29.56,27.82 -0.63,1.96 -5.36,11.39 -7.1,11.71 -13.79,2.48 -27.43,-10.38 -33.43,-25.81 -4.5,-11.59 -5.05,-24.72 -0.44,-34.4zm32.37 2.36c1.26,0.09 2.5,0.18 3.7,0.26 -0.31,0.41 -0.56,0.71 -0.73,0.88 -0.9,-0.29 -1.9,-0.69 -2.97,-1.13zm6.22 0.41l1.36 0.08c4.72,0.25 11.02,1.78 18.35,4.26 -2.47,3.97 -4.68,7.46 -6.2,9.08 -4.47,4.77 -19.45,21.54 -26.35,22.78 -2.96,0.53 -9.26,-8.81 -10.19,-12.28 7.2,-3.38 15.72,-12.6 23.02,-23.91zm41.75 13.16c15.69,7.05 33.12,16.2 49.15,25.55 -2.89,-0.71 -5.22,-1.21 -6.47,-0.99 -1.39,0.25 -2.2,1.41 -1.95,2.8 1.31,7.29 7.14,13.2 14.7,16.96 -3.71,18.03 -8.25,35.93 -13.61,53.77 -2.61,2.88 -5.63,5.74 -9.07,8.35 -2.94,-2.13 -5.93,-4.2 -8.96,-6.19l0.31 -0.19c10.91,-6.84 21.78,-23.59 18.95,-39.36l-0.32 -1.79c-1.36,-7.57 -11.5,-18.79 -18.5,-17.53 -5.73,1.03 -11.89,15.79 -10.96,20.99l0.75 4.16c2.17,12.08 10.98,17.48 17.19,23.9l-7.67 7.74c-5.01,-2.3 -10.43,-7.94 -14.34,-12 -2.98,-3.1 -9.21,-13.62 -13.46,-12.06l-11.88 4.28c-8.7,-3.95 -17.44,-7.47 -26.07,-10.6 4.95,0.84 9.93,0.93 14.72,0.07l2.97 -0.53c8.87,-1.59 16.09,-6.79 20.91,-11.48 3.17,-3.08 9.42,-14.45 8.49,-19.58l-0.53 -2.97c-0.24,-1.37 -0.73,-1.71 -2.1,-1.46 -3.71,0.67 -15.8,11.43 -25.26,13.13l-1.78 0.32c0.2,-2.4 4.58,-10.6 5.62,-14.3 1.31,-4.67 6.83,-7.97 10.07,-11.21 3.73,-3.73 7.67,-11.78 9.11,-19.78zm40.39 102.8l-0.72 2.33c-0.3,-0.04 -0.61,-0.07 -0.93,-0.09l-0.22 -1.19 0.48 0.44 1.38 -1.5zm-40.83 -16.75c-2.44,-1.28 -4.9,-2.51 -7.37,-3.72 2.87,0.53 5.45,1.73 7.37,3.72zm-58.63 -23.96c-10.49,-3.31 -20.64,-6.06 -30.15,-8.35 -3.37,-4.44 -5.12,-8.35 -8.95,-13.66l5.46 -0.23 8.91 -1.74c3.95,9.16 13.38,18.18 24.73,23.98zm-74.75 -47.34l0.01 -0.03 0 -0.01c4.63,-18.45 8.17,-37.22 10.71,-56.19 7.28,-7.59 16.05,-13.92 27.72,-18.94 -0.83,-4.08 -4.45,-4.14 -7.73,-5.34 -3.39,-1.24 -4.79,-2.58 -7.72,-4.61 -3.14,-2.18 -6.17,-4.3 -8.66,-7.14 0.82,-12.22 1.24,-24.47 1.3,-36.72 1.98,-1.38 4.33,-2.38 7.09,-2.87l2.38 -0.43c7.89,-1.42 17.35,4.28 18.73,11.97l0.32 1.78c0.95,5.3 -2.54,11.5 -7.59,12.41l-2.38 0.43c-3.11,0.56 -7.02,-1.48 -7.61,-4.77l-0.32 -1.78c-0.52,-2.87 1.03,-5.09 3.9,-5.61l2.38 -0.43c3.41,-0.61 2.88,1.18 5.78,1.42 -2.78,-3.85 -3.72,-7.31 -10.91,-6.01l-0.59 0.1c-5.65,1.01 -8.45,7.64 -7.49,13.01l0.43 2.38c1.61,8.97 13.62,15.33 25.37,17.35l-45.12 90.05zm13.2 -186.52l-0.03 -0.33 -0.06 -0.71c2.68,-1.15 3.94,-3.1 3.25,-6.97 -1.64,0.77 -2.31,1.97 -3.63,2.76 -0.51,-5.32 -1.08,-10.62 -1.73,-15.91l1.12 -0.2c6.37,-1.15 13.75,4.77 14.94,11.42 1.36,7.56 -5.07,16.58 -13.09,19.34 -0.23,-3.14 -0.49,-6.27 -0.77,-9.4zm46.98 204.99c-2.7,-4.53 -5.4,-9.06 -8.09,-13.58 -12.8,3.75 -33.79,4.42 -47.21,-1 0.23,2.61 0.47,5.23 0.7,7.84 0.4,2.18 0.78,4.36 1.18,6.54 1.74,9.68 43.98,2.52 51.17,1.22 0.94,-0.17 1.58,-0.61 2.25,-1.02zm54.43 -25.13l-1.82 -10.11c-0.4,-2.27 0.15,-0.25 -0.91,-1.68 -0.8,0.77 -11.2,13.49 -11.34,13.97 -1.59,5.75 0.6,12.46 -2.41,20.17 -3.78,9.69 -13.02,23.01 -23.01,27.7 1.55,3.3 9.96,5.65 13.49,6.78 13.15,-10.3 29.89,-35.19 26,-56.83z"/>
     </g>
     <path id="_123308448" class="fil5" d="M966.83 857.73c0,0 10.03,-20.75 35.68,-33.81 25.65,-13.06 -17.72,34.28 -35.68,33.81z"/>
     <path id="_123308376" class="fil6" d="M1151.79 980.34c-0.9,1.81 -1.81,3.63 -2.74,5.44 0,0 -7.71,22.7 -56.28,17.08 0,0 14.12,-24.99 13.17,-27.15 -0.96,-2.16 -24.62,25.12 -24.62,25.12 0,0 -29.89,0.1 -54.29,-20.95 0,0 -0.1,-33.76 -2.22,-33.69 -2.12,0.08 -7.28,27.57 -7.28,27.57 -16.46,-2.19 -35.36,-8.19 -46.45,-18.02 -3.97,-3.52 -4.62,-8.26 -2.27,-18.98 1.01,-4.6 2.24,-10.25 3.85,-17.19 92.13,41.39 151.02,55.8 179.12,60.78z"/>
     <path id="_123308304" class="fil6" d="M1146.7 545.7c0,0 0,30.84 41.58,47.66 0,0 -27.57,-0.93 -39.25,-12.15 -11.68,-11.21 -2.34,-35.51 -2.34,-35.51z"/>
     <path id="_123308232" class="fil2" d="M1219.38 667.9c0,0 1.87,76.18 -25.47,181.3 -56.02,-44.16 -132.85,-58.55 -172.37,-63.17 16.1,-58.85 52.17,-245.37 -63.6,-449.59l-134.97 -186.75c91.92,-4.06 144.76,-0.07 211.66,68.55 111.42,114.27 186.21,296.57 184.74,449.67l0 -0 0 -0 -0 0z"/>
     <path id="_123308160" class="fil4" d="M1200.8 573.46c0,0 -75.09,-2.1 -73.69,-2.1 1.4,0 71.12,-13.53 71.12,-13.53l2.57 15.62z"/>
     <polygon id="_123308088" class="fil4" points="1051.5,490.87 1164.56,443.68 1160.36,430.13 1052.9,483.86 "/>
     <path id="_123308016" class="fil4" d="M1228.25 669.77c0,0 3.27,78.52 -24.06,183.63 -5.2,-4.1 -20.86,-12.14 -26.37,-15.75 21.68,-85.21 30.15,-185.98 8.62,-291.54 -22.08,-108.28 -80.06,-232.54 -188.11,-359.9 11.85,8.67 25.01,17.93 37.49,30.74 120.77,108.66 193.91,299.73 192.44,452.83l0 -0 -0 0z"/>
     <path id="_123307944" class="fil3" d="M1210.7 826.46c-1.84,8.08 -3.85,16.36 -6.06,24.84 -56.03,-44.16 -143.58,-60.65 -183.1,-65.27 1.92,-7.02 4.12,-15.85 6.32,-26.31 92.48,8.69 158.58,46.72 182.84,66.75l0 0 0 0z"/>
     <path id="_123307872" class="fil3" d="M1021.54 786.02c16.1,-58.85 52.18,-245.37 -63.6,-449.59l-2.81 -3.89c135.74,138.6 135.5,320.7 100.32,458.74 -12.91,-2.49 -24.47,-4.15 -33.91,-5.26l0 0 0 -0z"/>
     <path id="_123307800" class="fil1" d="M1206.53 858.08l4.37 -10.73c1.76,-4.32 -82.21,-59.43 -191.54,-71.94l-2.36 10.11c38.43,4.09 131.12,25.14 189.53,72.56l0 0z"/>
     <path id="_123307728" class="fil4" d="M1200.07 772.61c0,0 -22.43,-24.3 -99.05,-44.39 0,0 56.53,-2.34 100.92,13.08 0,0 0.47,6.54 0.47,10.28 0,3.74 -3.27,20.09 -2.34,21.02z"/>
     <path id="_123307656" class="fil1" d="M1022.06 731.49c0,0 57.93,-6.07 124.75,8.88 0,0 -34.57,-21.49 -119.61,-24.3l-5.14 15.42z"/>
     <path id="_123307584" class="fil1" d="M1212.96 833.47c0,0 -54.23,-38.04 -118.29,-62.21 0,0 63.16,12.76 124.77,48.02l-6.48 14.19z"/>
     <polygon id="_123307512" class="fil1" points="1005.39,501.46 1176.55,415.42 1178.81,423.59 1012.25,510.5 "/>
     <path id="_123307440" class="fil1" d="M1152.99 455.69c0,0 -17.12,-18.39 -45.5,-22.83 12.51,13.59 26.56,22.07 45.5,22.83z"/>
     <path id="_123307368" class="fil1" d="M1076.97 497.26c0,0 9.77,-21.91 3.07,-48.51 -7.27,16.07 -9.48,31.58 -3.07,48.51z"/>
     <polygon id="_123307272" class="fil1" points="1217.82,548.81 1124.85,571.7 1219.23,561.89 "/>
     <path id="_123307176" class="fil5" d="M381.13 341.11l134.97 -186.75c-91.92,-4.06 -144.76,-0.07 -211.66,68.55 -95.16,97.6 -163.58,244.82 -180.61,381.08 -17.14,137.16 9.03,257.43 72.52,381.79 0,0 7.71,22.7 56.28,17.08 0,0 -14.13,-24.99 -13.17,-27.15 0.96,-2.16 24.62,25.11 24.62,25.11 0,0 29.89,0.11 54.29,-20.95 0,0 0.1,-33.76 2.22,-33.68 2.12,0.08 8.91,25 8.91,25l31.91 -8.43c14.58,-6.85 19.14,-7.94 15.18,-26 -3.02,-13.79 -8.07,-37.06 -19.18,-76.12 3.06,-3.61 10.48,13.35 15.91,22.67 0,0 17.47,-19.29 16.72,-25.87 -0.74,-6.58 -61.93,-54.14 -61.93,-54.14 -49.44,-155.13 -16,-340.44 53.03,-462.2l0 -0 0 0z"/>
     <path id="_123307104" class="fil8" d="M358.92 178.98c-17.84,10.34 -35.6,24.56 -54.49,43.93 -95.16,97.6 -163.58,244.82 -180.61,381.08 -4.42,35.36 -5.96,69.6 -4.72,103.08 3.56,96.37 30.12,186.42 77.24,278.71 0,0 0.66,1.92 2.78,4.5 14.03,-1.96 28.22,-5.14 42.14,-9.09 -1.28,-2.81 -2.05,-4.91 -1.8,-5.47 0.28,-0.64 2.57,1.31 5.64,4.37 27.06,-7.98 52.91,-18.72 74.26,-28.77 0.31,-3.09 0.7,-5.14 1.23,-5.12 0.47,0.02 1.11,1.45 1.81,3.68 28.12,-13.42 47.8,-25.31 51.03,-27.29l-0.03 -0.12c-62.2,21.37 -167.22,32.06 -167.22,32.06 -141.69,-291.48 -43.46,-602.31 152.75,-775.54l0 0 0 0z"/>
     <path id="_123307032" class="fil7" d="M162.71 760.02l-8.04 12.22c3.84,6.37 7.58,15.31 3.97,23.76l-1.66 3.89c-2.27,5.31 -10.02,10.16 -15.22,7.94 -2.72,-1.16 -4.81,-3.73 -6.09,-6.71l-4.21 6.41c4.56,21.68 10.33,43.19 17.27,64.62l0.42 0.27c17.93,-16.07 44.93,-25.15 64.78,-16.66l5.56 2.37c24.05,10.28 27.14,21.72 23.16,29.54 -6.3,12.41 -31.46,16.73 -26.78,0.44 15.63,11.46 20.73,-6.24 8.79,-11.35l-0.55 -0.23c-5.88,-2.52 -14.35,-0.25 -16.74,5.32l-1.66 3.88c-2.26,5.28 4.84,17.84 8.74,19.51l5 2.14c9.21,3.94 20.08,-0.43 26.68,-8.43 4.03,-4.88 6.88,-11.52 8.98,-17.37 9.9,-27.62 -4.49,-67.47 -28.3,-80.15l-1.34 11.96c5.12,6.33 8.94,7.82 12.12,15.85 2.14,5.4 4.52,12.86 1.4,20.15 -0.48,1.12 -2.73,2.77 -3.64,2.38 -4.3,-1.84 -7.75,-6 -11.66,-8.22 -2.4,-1.36 -13.95,-5.66 -12.87,-8.19l0.24 -0.56c1.55,-3.62 7.75,-7.36 10.54,-13.89l0.95 -2.22c8.29,-19.39 -7.13,-45.09 -27.02,-53.59l-7.22 -3.09c-9.46,-4.05 -15.26,-2.47 -23.12,-3.51l8.53 13.03c5.89,1.96 10.2,1.08 16.74,3.88l4.44 1.9c10.72,4.59 19.82,19.72 15.34,30.2l-1.66 3.89c-3.15,7.36 -17.35,12.94 -25.69,9.37l-1.67 -0.72c-3.58,-1.53 -4.8,-5.67 -3.26,-9.27 3.89,-9.09 20.54,-9.61 30.54,-5.33 1.45,-4.36 0.38,-10.12 -1.6,-13.17 -8.64,-3.69 -22.14,-3.55 -26.58,-5.45 -4.08,-1.74 -8.52,-14.69 -17.58,-26.84z"/>
     <path id="_123306960" class="fil6" d="M381.13 341.11l3.37 -4.67c-0.89,-0.5 -1.76,-1.05 -2.66,-1.49 0,0 -147.01,166.81 -98.59,409.31 -17.84,-0.24 -41.09,2.46 -56.51,3.27 -19.07,1 -63.78,22.85 -98.44,43.93 4.87,26.75 11.57,53.19 20.04,79.52 48.73,-37.5 111.98,-54.49 152.16,-61.94 15.71,47.15 39.06,96.61 72.33,147.83 5.25,-3.67 6.35,-8.19 3.74,-20.12 -3.02,-13.79 -8.07,-37.06 -19.18,-76.12 3.06,-3.61 10.48,13.35 15.91,22.67 0,0 17.47,-19.29 16.72,-25.87 -0.67,-5.93 -50.51,-45.21 -60.27,-52.85l-0.14 -0.11 -1.51 -1.18c-0.74,-2.33 -1.47,-4.68 -2.17,-7.02l-0.16 -0.53c-0.65,-2.18 -1.29,-4.37 -1.91,-6.56l-0.3 -1.06c-0.56,-1.98 -1.1,-3.97 -1.63,-5.96l-0.47 -1.77c-0.44,-1.69 -0.88,-3.39 -1.3,-5.08 -0.25,-1.01 -0.5,-2.02 -0.75,-3.03 -0.3,-1.23 -0.6,-2.47 -0.89,-3.71 -0.41,-1.74 -0.81,-3.48 -1.2,-5.22l-0.26 -1.15 -0.17 -0.79c-0.41,-1.88 -0.81,-3.75 -1.2,-5.64l-0.3 -1.45 -0.16 -0.79 -0 0c-29.14,-143.59 4.12,-303.46 65.9,-412.44l-0 -0z"/>
     <path id="_123306888" class="fil9" d="M185.54 760.98c-4.65,2.1 -9.46,4.39 -14.32,6.8l2.47 3.78c5.89,1.96 10.2,1.08 16.74,3.88l4.44 1.9c10.72,4.59 19.82,19.72 15.34,30.2l-1.66 3.89c-3.15,7.36 -17.35,12.94 -25.69,9.37l-1.67 -0.72c-3.58,-1.53 -4.8,-5.67 -3.26,-9.27 3.89,-9.09 20.54,-9.61 30.54,-5.33 1.45,-4.36 0.38,-10.12 -1.6,-13.17 -8.64,-3.69 -22.14,-3.55 -26.58,-5.45 -3.07,-1.31 -6.33,-8.94 -11.61,-17.81 -4.06,2.04 -8.15,4.17 -12.24,6.36 3.06,5.99 5.25,13.47 2.2,20.59l-1.66 3.89c-2.27,5.31 -10.02,10.16 -15.22,7.94 -2.72,-1.16 -4.81,-3.73 -6.09,-6.71l-4.21 6.4c0.21,1.02 0.43,2.03 0.65,3.05l0.19 0.9 0.03 0.12 0.02 0.09 0.43 1.94 0.08 0.35 0.15 0.67 0.13 0.58 0.21 0.94 0.07 0.3 0.05 0.2 0.23 1.01 0.01 0.03 0.23 0.99 0.06 0.26 0.17 0.76 0.11 0.49 0.58 2.49 0.02 0.06 0.24 1.01 0.04 0.17 0.2 0.84 0.1 0.4 0.15 0.61 0.46 1.87 0.04 0.15c0.98,3.97 1.99,7.93 3.05,11.89l0.06 0.24 0.04 0.14c1.43,5.34 2.93,10.67 4.5,15.99l0.03 0.1c1.46,4.95 2.99,9.89 4.58,14.82 19.32,-14.86 40.91,-26.51 62.45,-35.61l0 -0 0.24 -0.56c1.55,-3.62 7.75,-7.36 10.54,-13.89l0.95 -2.22c8.29,-19.39 -7.13,-45.09 -27.02,-53.59l-7.22 -3.09c-0.95,-0.41 -1.86,-0.76 -2.74,-1.06zm50.42 64.82c3.77,-1.29 7.51,-2.5 11.21,-3.65 -5.33,-9 -12.31,-16.42 -20.38,-20.71l-1.34 11.96c4.29,5.3 7.66,7.2 10.51,12.4z"/>
     <path id="_123306816" class="fil5" d="M378.56 857.73c0,0 -10.03,-20.75 -35.68,-33.81 -25.65,-13.06 17.72,34.28 35.68,33.81z"/>
     <path id="_123306744" class="fil6" d="M193.6 980.34c0.9,1.81 1.81,3.63 2.74,5.44 0,0 7.71,22.7 56.28,17.08 0,0 -14.12,-24.99 -13.17,-27.15 0.96,-2.16 24.62,25.12 24.62,25.12 0,0 29.89,0.1 54.29,-20.95 0,0 0.1,-33.76 2.22,-33.69 2.12,0.08 7.28,27.57 7.28,27.57 16.46,-2.19 35.36,-8.19 46.45,-18.02 3.97,-3.52 4.62,-8.26 2.27,-18.98 -1.01,-4.6 -2.24,-10.25 -3.85,-17.19 -92.13,41.39 -151.02,55.8 -179.12,60.78z"/>
     <path id="_123306672" class="fil6" d="M198.7 545.7c0,0 0,30.84 -41.58,47.66 0,0 27.57,-0.93 39.25,-12.15 11.68,-11.21 2.34,-35.51 2.34,-35.51z"/>
     <path id="_123306600" class="fil2" d="M126.02 667.9c0,0 -1.87,76.18 25.47,181.3 56.02,-44.16 132.85,-58.55 172.37,-63.17 -16.1,-58.85 -52.17,-245.37 63.6,-449.59l134.97 -186.75c-91.92,-4.06 -144.76,-0.07 -211.66,68.55 -111.42,114.27 -186.21,296.57 -184.74,449.67l0 -0 0 -0 0 0z"/>
     <path id="_123306528" class="fil4" d="M141.22 853.4c5.2,-4.1 20.86,-12.14 26.37,-15.75 -21.68,-85.21 -30.15,-185.98 -8.62,-291.54 22.08,-108.28 80.06,-232.54 188.11,-359.9 -11.85,8.67 -24.31,15.03 -36.79,27.83 -99.07,89.13 -164.84,237.05 -184.63,370.33 -13.13,88.43 -9.11,183.51 15.56,269.03z"/>
     <path id="_123306456" class="fil3" d="M134.7 826.46c1.84,8.08 3.85,16.36 6.06,24.84 56.03,-44.16 143.58,-60.65 183.1,-65.27 -1.92,-7.02 -4.12,-15.85 -6.32,-26.31 -92.48,8.69 -158.58,46.72 -182.84,66.75l-0 0 -0 0z"/>
     <path id="_123306384" class="fil3" d="M323.86 786.02c-16.1,-58.85 -52.18,-245.37 63.6,-449.59l2.81 -3.89c-135.74,138.6 -135.5,320.7 -100.32,458.74 12.91,-2.49 24.47,-4.15 33.91,-5.26l0 0 0 -0z"/>
     <path id="_123306312" class="fil1" d="M138.87 858.08l-4.37 -10.73c-1.76,-4.32 82.21,-59.43 191.54,-71.94l2.36 10.11c-38.43,4.09 -131.12,25.14 -189.53,72.56l-0 0z"/>
     <path id="_123306240" class="fil4" d="M145.33 772.61c0,0 22.43,-24.3 99.05,-44.39 0,0 -56.53,-2.34 -100.92,13.08 0,0 -0.47,6.54 -0.47,10.28 0,3.74 3.27,20.09 2.34,21.02z"/>
     <path id="_123306168" class="fil1" d="M323.34 731.49c0,0 -57.93,-6.07 -124.75,8.88 0,0 34.57,-21.49 119.61,-24.3l5.14 15.42z"/>
     <path id="_123306096" class="fil1" d="M132.44 833.47c0,0 54.23,-38.04 118.29,-62.21 0,0 -63.16,12.76 -124.77,48.02l6.48 14.19z"/>
     <polygon id="_123306024" class="fil4" points="141.36,606.27 269.84,588.99 146.5,585.25 "/>
     <polygon id="_123305952" class="fil1" points="199,335.32 364.74,418.24 359.71,424.72 195.97,345.87 "/>
     <path id="_123305880" class="fil1" d="M319.88 423.28c0,0 4.36,-23.91 -8.62,-48.48 -3.3,17.57 -1.75,33.36 8.62,48.48z"/>
     <path id="_121761480" class="fil1" d="M243.68 388.39c0,0 22.64,-5.1 39.38,-25.69 -16.67,3.66 -29.97,10.93 -39.38,25.69z"/>
     <polygon id="_121761384" class="fil1" points="121.16,582.16 313.76,579.45 312.23,587.52 123.4,592.92 "/>
     <path id="_121761312" class="fil1" d="M234.68 609.05c0,0 -2.87,-24.22 -23.16,-44.28 2.01,17.82 8.31,32.59 23.16,44.28z"/>
     <path id="_121761240" class="fil1" d="M264.76 607.5c0,0 16.15,-18.28 17.59,-46.77 -11.95,13.37 -18.77,27.91 -17.59,46.77z"/>
     <path id="_121761168" class="fil1" d="M158.64 609.16c0,0 18.45,-14.95 24.05,-40.93 -13.63,10.93 -22.43,23.5 -24.05,40.93z"/>
     <polygon id="_121761096" class="fil3" points="706.69,411.91 681.97,450.71 683.8,415.18 "/>
     <path id="_121761024" class="fil3" d="M371.79 156.16c44.02,-41.47 559.78,-40.3 603.79,1.16 -11.51,179.52 -161.31,265.49 -300.89,264.64 -142.21,-0.86 -269.53,-91.84 -302.9,-265.8l-0 0 0 -0z"/>
     <path id="_121760952" class="fil1" d="M369.46 154.82c44.02,-39.64 564.68,-38.53 608.68,1.11 -11.51,171.62 -163.88,253.81 -303.45,253 -142.21,-0.82 -271.87,-87.8 -305.23,-254.11l0 0 0 0 0 -0z"/>
     <path id="_121760880" class="fil10" d="M969.77 169.44c-24.03,153.83 -165.32,227.63 -295.32,226.86 -134.15,-0.79 -256.93,-80.97 -295.56,-234.49 8.38,-3.53 19.08,-7.78 46.36,-6.64 147.52,-15.15 551.18,-28.49 544.52,14.26l0 0 -0 0 -0 0z"/>
     <path id="_121760808" class="fil11" d="M968.36 164.3c-22.5,144.05 -147.83,217.92 -270.43,226.1l0.22 -7.24c238.99,-37.34 250.05,-209.77 246.91,-216.05l18.85 -4.5c2.96,0.74 4.51,1.32 4.45,1.68l-0 0 0 0z"/>
     <path id="_121760736" class="fil11" d="M384.18 160.33c34.64,151.53 155.75,222.81 278.35,231l2.12 -7.24c-236.66,-27.53 -261.01,-219.79 -264.17,-226.77 -2.79,-0.67 -12.04,0.78 -16.3,3.02l-0 -0 -0 0 0 0z"/>
     <path id="_121760664" class="fil12" d="M419.82 149.06c5.43,-5.11 19.58,-9.45 39.87,-13.01 116.38,-20.42 434.63,-15.36 465.76,13.97 -9.56,149.13 -136.13,220.54 -252.07,219.84 -118.13,-0.71 -225.84,-76.29 -253.55,-220.81l0 -0 0 0z"/>
     <path id="_121760520" class="fil13" d="M432.44 194.12c53.07,-42.03 144.49,-63.5 236.45,-64.21l7.49 0c94.59,0.72 188.6,23.43 240.9,67.87 -31.33,112.09 -141.74,165.98 -243.91,165.38 -104.57,-0.61 -200.95,-58.3 -240.94,-169.04l0 0z"/>
     <path id="_121760448" class="fil1" d="M419.82 148.37c5.43,-4.97 19.58,-9.19 39.87,-12.65 116.38,-19.86 434.63,-14.94 465.76,13.59 -9.56,145.07 -136.13,214.54 -252.07,213.86 -118.13,-0.69 -225.84,-74.21 -253.55,-214.8l0 -0z"/>
     <path id="_121760376" class="fil6" d="M912.58 138.16c-10.49,143.1 -129.84,211.66 -239.25,210.98 -111.37,-0.69 -212.98,-73.12 -240.25,-211.63 121.18,-33.31 364.41,-33.45 479.5,0.65l-0 0 0 0 -0 0z"/>
     <path id="_121760304" class="fil3" d="M921.03 324.23c0,0 -41.58,81.3 -191.56,108.39 0,0 99.05,-1.87 136.43,-25.7 37.38,-23.83 55.13,-82.7 55.13,-82.7l-0 0z"/>
     <path id="_121760232" class="fil3" d="M424.37 324.23c0,0 41.58,81.3 191.56,108.39 0,0 -99.05,-1.87 -136.43,-25.7 -37.38,-23.83 -55.13,-82.7 -55.13,-82.7l0 0z"/>
     <path id="_121760592" class="fil1" d="M671.65 357.25c3.89,72.74 8.24,85.86 9.82,92.38 6.38,-2.55 3.91,-19.19 9.81,-93.79 -6.54,0.47 -13.08,0.93 -19.62,1.4z"/>
    </g>
   </g>
   <path class="fil8" d="M652.37 603.06l45.02 44.31c15.02,14.63 -3.46,30.97 -18.99,15.72l-42.6 -39.22c0,0 -6.38,-3.49 -11.88,1.74 -5.51,5.23 -58.83,63.04 -58.83,63.04 0,0 -4.93,5.52 -0.87,10.75 4.01,5.17 85.16,89.37 213.83,11.26 10.76,-6.53 11.43,-16.8 2.58,-25.43l-82.56 -80.58 -44.79 -44.09c-15.02,-14.63 3.46,-30.97 18.99,-15.72l42.6 39.22c0,0 6.38,3.49 11.88,-1.74 5.51,-5.23 58.83,-63.04 58.83,-63.04 0,0 4.93,-5.52 0.87,-10.75 -4.01,-5.17 -85.16,-89.37 -213.83,-11.26 -10.76,6.53 -11.43,16.8 -2.58,25.43l82.33 80.35z"/>
  </g>
 </g>
</svg>
