<?xml version="1.0" encoding="UTF-8"?>
<!DOCTYPE svg PUBLIC "-//W3C//DTD SVG 1.1//EN" "http://www.w3.org/Graphics/SVG/1.1/DTD/svg11.dtd">
<!-- Creator: CorelDRAW 2020 (64-Bit) -->
<svg xmlns="http://www.w3.org/2000/svg" xml:space="preserve" width="161.908mm" height="176.792mm" version="1.1" style="shape-rendering:geometricPrecision; text-rendering:geometricPrecision; image-rendering:optimizeQuality; fill-rule:evenodd; clip-rule:evenodd"
viewBox="0 0 1112.98 1215.3"
 xmlns:xlink="http://www.w3.org/1999/xlink"
 xmlns:xodm="http://www.corel.com/coreldraw/odm/2003">
 <defs>
  <style type="text/css">
   <![CDATA[
    .fil0 {fill:none}
    .fil1 {fill:#501D33}
    .fil9 {fill:#86555D}
    .fil8 {fill:#A57E72}
    .fil10 {fill:#C6AC93}
    .fil11 {fill:#C8B99F}
    .fil4 {fill:#D77D75}
    .fil6 {fill:#E67C40}
    .fil5 {fill:#FCB249}
    .fil7 {fill:#FFCE78}
    .fil2 {fill:#FFCFA5}
    .fil3 {fill:white}
   ]]>
  </style>
 </defs>
 <g id="Слой_x0020_1">
  <metadata id="CorelCorpID_0Corel-Layer"/>
  <g id="_577237840">
   <g>
    <g id="_167147624">
     <g>
      <rect id="_119545328" class="fil0" width="1112.98" height="1215.3"/>
      <path id="_119679368" class="fil1" d="M257.23 527.49l32.85 -5.59 -1.42 -6.4 -32.65 2.82c0,0 -1.21,4.45 1.23,9.17zm-121.72 88.99c0.5,2 -0.71,4.03 -2.71,4.54 -2,0.5 -4.03,-0.71 -4.53,-2.71 -0.5,-2 0.71,-4.03 2.71,-4.53 2,-0.5 4.03,0.71 4.54,2.71zm-23.34 -110.01l-32.85 -5.59 1.42 -6.4 32.65 2.82c0,0 1.21,4.45 -1.23,9.17zm-10.91 53.04l-22.22 1.49 -0.07 -4.38 21.67 -3.26c0,0 1.48,2.71 0.63,6.15zm6.14 57.21l-25.21 7.55 -1.24 -5.03 24.1 -9.44c0,0 2.42,2.73 2.34,6.92zm7.05 -71.21l-37.34 -3.77 1.11 -7.3 36.91 0.67c0,0 1.7,4.91 -0.68,10.4zm140.48 21.02l37.34 -3.77 -1.11 -7.3 -36.91 0.67c0,0 -1.7,4.91 0.68,10.4zm8.83 16.75l26.31 0.64 -0.13 -5.17 -25.74 -2.75c0,0 -1.61,3.27 -0.44,7.29z"/>
      <path id="_119679440" class="fil1" d="M307.79 126.53c-114.21,51.25 -207.83,249.35 -216.17,353.7 -9.56,119.55 -8.08,192.3 61.65,338.34 0,0 15.16,31.14 66.98,18.53 23.37,1.98 46.54,-6.16 57.64,-22.07 0.27,-0.39 29.15,-4.51 43.05,-18.04 6.3,-6.14 10.31,-11.59 8.04,-22.76 -2.97,-14.62 -7.35,-32.52 -7.35,-32.52 0,0 25.77,-25.69 21.55,-36.62 -4.22,-10.93 -56.92,-56.6 -57.01,-57.04 -36.16,-165.82 -0.7,-307.27 94.03,-421.52l76.11 -100.78c-38.24,-11.29 -107.98,-17.41 -148.53,0.78l-0 0z"/>
      <path id="_119679512" class="fil2" d="M319.28 282.25l111.25 -153.94c-75.77,-3.34 -119.32,-0.06 -174.47,56.5 -78.44,80.45 -134.84,201.8 -148.87,314.12 -14.13,113.06 7.45,212.2 59.78,314.71 0,0 6.35,18.71 46.39,14.08 0,0 -11.64,-20.6 -10.86,-22.38 0.79,-1.78 20.29,20.7 20.29,20.7 0,0 24.64,0.09 44.75,-17.27 0,0 0.08,-27.83 1.83,-27.77 1.75,0.06 7.34,20.61 7.34,20.61l26.3 -6.95c12.02,-5.65 15.77,-6.55 12.51,-21.43 -2.49,-11.37 -6.65,-30.55 -15.81,-62.74 2.53,-2.98 8.64,11 13.12,18.69 0,0 14.4,-15.9 13.78,-21.32 -0.61,-5.42 -51.05,-44.63 -51.05,-44.63 -40.75,-127.87 -13.19,-280.62 43.71,-380.99l0 -0 0 0z"/>
      <path id="_119679584" class="fil3" d="M148.23 350.51c-20.66,48.42 -34.91,99.29 -41.05,148.43 -14.13,113.06 7.45,212.2 59.78,314.71 0,0 0.54,1.58 2.29,3.71 11.56,-1.61 23.26,-4.24 34.73,-7.5 -1.05,-2.32 -1.69,-4.05 -1.49,-4.51 0.23,-0.53 2.12,1.08 4.65,3.6 22.31,-6.58 43.62,-15.43 61.21,-23.71 0.25,-2.55 0.58,-4.23 1.01,-4.22 0.39,0.01 0.91,1.2 1.49,3.03 23.18,-11.07 39.4,-20.86 42.07,-22.49l-0.02 -0.1c-51.27,17.61 -137.83,26.43 -137.83,26.43 -72.74,-149.64 -68.77,-305.46 -16.36,-436.22 20.25,-50.51 54.6,-98.67 46.69,-86.72 -4.29,6.48 -27.8,16.73 -57.17,85.58l0 0z"/>
      <path id="_119542160" class="fil4" d="M172.35 300.49c-15.93,29.48 -29.5,60.56 -40.25,92.15 24.78,2.67 84.49,12.39 132.4,46.17 7.99,-44.75 21.36,-87.37 38.58,-124.83 -3.77,-1.81 -7.7,-3.09 -11.75,-3.67 -22.72,-3.28 -81.16,-8.9 -118.98,-9.81z"/>
      <path id="_88446104" class="fil4" d="M319.28 282.25l2.78 -3.85c-0.73,-0.41 -1.45,-0.87 -2.19,-1.23 0,0 -196.04,222.35 -7.42,512.65 4.33,-3.03 5.24,-6.75 3.08,-16.59 -2.49,-11.37 -6.65,-30.55 -15.81,-62.74 2.53,-2.98 8.64,11 13.12,18.69 0,0 14.4,-15.9 13.78,-21.32 -0.61,-5.42 -51.05,-44.63 -51.05,-44.63 -40.75,-127.87 -13.19,-280.62 43.71,-380.99l0 0z"/>
      <path id="_119679704" class="fil1" d="M137.01 425.89c-51.07,-5.76 -64.24,50.55 -19.19,69.4l19.19 -69.4z"/>
      <path id="_119679776" class="fil2" d="M117.83 495.58c-16.65,-25.96 -17.08,-54.64 19.17,-70.1 0,0 10.31,50.9 -19.17,70.1z"/>
      <path id="_119679680" class="fil3" d="M119.57 497.72c-20.17,-25.7 -20.39,-57.44 18.75,-73 -15.56,10.4 -28.39,43.4 -18.06,70.87l-0.69 2.12z"/>
      <path id="_119679872" class="fil3" d="M134.98 435.5c4.46,2.77 4.41,10.9 -0.11,18.16 -4.51,7.26 -11.79,10.9 -16.24,8.13 -4.45,-2.77 -4.41,-10.9 0.11,-18.16 4.51,-7.26 11.79,-10.9 16.24,-8.13z"/>
      <path id="_119679944" class="fil2" d="M317.16 708.09c0,0 -8.27,-17.11 -29.41,-27.87 -21.14,-10.76 14.61,28.26 29.41,27.87z"/>
      <path id="_119680016" class="fil4" d="M164.7 809.16c0.75,1.49 1.5,2.99 2.26,4.48 0,0 6.35,18.71 46.39,14.08 0,0 -11.64,-20.6 -10.85,-22.38 0.79,-1.78 20.29,20.7 20.29,20.7 0,0 24.63,0.09 44.75,-17.27 0,0 0.08,-27.83 1.83,-27.77 1.75,0.06 6,22.73 6,22.73 13.57,-1.81 29.15,-6.75 38.29,-14.85 3.27,-2.9 3.81,-6.81 1.87,-15.65 -0.83,-3.79 -1.85,-8.45 -3.17,-14.17 -75.94,34.12 -124.49,46 -147.65,50.1l-0 0z"/>
      <path id="_119680088" class="fil4" d="M168.91 450.89c0,0 0,25.42 -34.28,39.28 0,0 22.72,-0.77 32.35,-10.01 9.63,-9.24 1.93,-29.27 1.93,-29.27z"/>
      <path id="_119684744" class="fil1" d="M353.48 625.83c-20.08,-123.1 -32.18,-330.61 -44.43,-426.62 21.71,-89.38 192.45,-61.97 250.62,-49.88 58.17,-12.09 228.91,-39.5 250.62,49.88 -12.25,96.01 -24.74,303.13 -44.82,426.23 -109.25,41.55 -302.74,41.93 -411.99,0.38l0 0 0 0 -0 0z"/>
      <path id="_119684648" class="fil1" d="M865.02 534.81l-32.85 -5.59 1.42 -6.4 32.65 2.82c0,0 1.21,4.45 -1.23,9.17zm121.72 88.99c-0.5,2 0.71,4.03 2.71,4.54 2,0.5 4.03,-0.71 4.54,-2.71 0.5,-2 -0.71,-4.03 -2.71,-4.54 -2,-0.5 -4.03,0.71 -4.54,2.71zm23.34 -110.01l32.85 -5.59 -1.42 -6.4 -32.65 2.82c0,0 -1.21,4.45 1.23,9.17zm10.91 53.04l22.22 1.49 0.07 -4.38 -21.67 -3.26c0,0 -1.48,2.7 -0.63,6.15zm-6.14 57.2l25.21 7.55 1.24 -5.03 -24.1 -9.44c0,0 -2.42,2.73 -2.35,6.92zm-7.05 -71.21l37.34 -3.77 -1.11 -7.3 -36.91 0.67c0,0 -1.7,4.91 0.68,10.4zm-140.48 21.02l-37.34 -3.77 1.11 -7.3 36.91 0.67c0,0 1.7,4.91 -0.68,10.4zm-8.83 16.75l-26.31 0.64 0.13 -5.17 25.74 -2.75c0,0 1.61,3.27 0.44,7.29z"/>
      <path id="_119684816" class="fil1" d="M811.77 126.15c114.21,51.25 207.83,249.35 216.17,353.7 9.56,119.54 6.92,193.45 -62.8,339.5 0,0 -15.74,29.41 -67.56,16.8 -24.14,2.27 -45.58,-7.21 -56.67,-21.68 -0.29,-0.37 -28.38,-4.32 -42.28,-17.85 -6.3,-6.14 -10.31,-11.59 -8.04,-22.76 2.97,-14.62 7.35,-32.52 7.35,-32.52 0,0 -25.77,-25.69 -21.55,-36.62 4.22,-10.93 56.92,-56.6 57.01,-57.04 36.16,-165.82 0.7,-307.27 -94.04,-421.52l-76.11 -100.78c38.24,-11.29 107.98,-17.41 148.53,0.78l0 0 0 0z"/>
      <path id="_119684888" class="fil2" d="M800.28 281.87l-111.25 -153.94c75.77,-3.34 119.32,-0.06 174.47,56.5 78.44,80.45 134.84,201.8 148.88,314.12 14.13,113.06 -7.45,212.2 -59.78,314.71 0,0 -6.35,18.71 -46.39,14.08 0,0 11.64,-20.6 10.86,-22.38 -0.79,-1.78 -20.29,20.7 -20.29,20.7 0,0 -24.64,0.09 -44.75,-17.27 0,0 -0.08,-27.83 -1.83,-27.77 -1.75,0.06 -7.34,20.6 -7.34,20.6l-26.31 -6.95c-12.02,-5.65 -15.77,-6.55 -12.51,-21.43 2.49,-11.37 6.65,-30.55 15.81,-62.74 -2.53,-2.98 -8.64,11.01 -13.12,18.69 0,0 -14.4,-15.9 -13.78,-21.32 0.61,-5.42 51.05,-44.63 51.05,-44.63 40.75,-127.87 13.19,-280.62 -43.71,-380.99l0 -0z"/>
      <path id="_119544248" class="fil4" d="M937.78 283.32c19.8,33.92 36.43,70.34 49.19,107.49 -67.19,10.42 -125.66,40.59 -125.66,40.59 0,0 -3.54,-3.04 -9.17,-8.14 -10.1,-48.6 -26.49,-94.23 -47.14,-132.83 3.54,-1.37 7.51,-3.13 11.96,-5.57 25.15,-13.78 70.93,-5.4 120.82,-1.53l-0 -0z"/>
      <path id="_119684432" class="fil4" d="M800.28 281.87l-2.78 -3.85c0.73,-0.41 1.45,-0.87 2.19,-1.23 0,0 196.04,222.35 7.42,512.65 -4.33,-3.03 -5.24,-6.75 -3.08,-16.59 2.49,-11.37 6.65,-30.55 15.81,-62.74 -2.53,-2.98 -8.64,11.01 -13.12,18.69 0,0 -14.4,-15.9 -13.78,-21.32 0.61,-5.42 51.05,-44.63 51.05,-44.63 40.75,-127.87 13.19,-280.62 -43.71,-380.99l0 0z"/>
      <path id="_119684504" class="fil5" d="M847.51 408.82c-10.32,-41.38 -26.91,-85.56 -52.56,-130.81l-111.25 -153.94c75.77,-3.34 119.32,-0.06 174.47,56.5 49.15,50.41 89.65,116.89 116.5,187.14 -44.04,10.33 -92.37,27.58 -127.16,41.1l0 0z"/>
      <path id="_119684576" class="fil6" d="M847.51 408.82c-10.32,-41.38 -26.91,-85.56 -52.56,-130.81l-2.32 -3.21c37.77,38.57 62.75,81.22 78.18,125.18 -8.25,3.04 -16.07,6.01 -23.31,8.83z"/>
      <path id="_135238464" class="fil5" d="M368.46 618.86c-19.89,-130.13 -34.53,-275.75 -42.8,-405.43 16.96,-69.83 125.38,-105.09 233.87,-105.29l0 -0 0.14 0 0.14 -0 0 0c108.49,0.19 216.92,35.46 233.87,105.29 -8.27,129.68 -22.91,275.31 -42.8,405.43 -105.86,33.38 -276.57,33.38 -382.43,0l0 -0 -0 0 0 0z"/>
      <polygon id="_119683208" class="fil7" points="469.35,535.46 377.61,493.49 652.45,530.86 "/>
      <polygon id="_124547344" class="fil7" points="630.09,434.5 718.75,439.89 758.07,408.28 "/>
      <path id="_135244848" class="fil6" d="M368.45 618.86c-16.09,-105.26 -28.74,-220.65 -37.36,-329.55 1.05,-4.88 1.98,-7.74 2.78,-8.04l48.57 327.64c2.32,-5.53 137.47,44.41 352.11,-2.16l54.75 -335.3c0,0 -0.01,7.63 -0.74,14.05 -8.63,110.01 -21.38,226.87 -37.66,333.35 -105.86,33.38 -276.58,33.39 -382.44,0l-0 0 -0 0 0 -0z"/>
      <polygon id="_119545832" class="fil6" points="350.88,417.51 724.14,523.93 359.36,482.29 "/>
      <path id="_119545904" class="fil1" d="M756.72 589.41c0,0 -33.98,19.64 -62.17,25.42 0,0 26.26,-0.77 65.64,-11.17l5.02 -10.78 -8.49 -3.47z"/>
      <path id="_119545976" class="fil1" d="M364.34 592.87c0,0 33.98,19.64 62.17,25.42 0,0 -26.26,-0.77 -65.64,-11.17l-5.02 -10.78 8.5 -3.47z"/>
      <path id="_119546048" class="fil5" d="M272.05 409.2c10.32,-41.38 26.91,-85.56 52.56,-130.81l111.25 -153.94c-75.77,-3.34 -119.32,-0.06 -174.47,56.5 -49.15,50.41 -89.65,116.89 -116.5,187.14 44.04,10.34 92.37,27.58 127.16,41.1l0 0z"/>
      <path id="_119546120" class="fil7" d="M163.65 360.6c26.15,-64.55 68.32,-136.07 127.68,-206.04 -31.16,20.65 -55.25,47.33 -78.34,78.57 -29.03,39.29 -51.88,84.49 -69.12,123.47 3.34,11.04 20.16,2.34 20.16,2.34 0.25,-0.35 -0.65,2 -0.38,1.65l0 0z"/>
      <path id="_119546192" class="fil6" d="M272.05 409.2c10.32,-41.38 26.91,-85.56 52.56,-130.81l2.32 -3.21c-37.77,38.57 -62.75,81.22 -78.18,125.19 8.25,3.04 16.07,6.01 23.31,8.83z"/>
      <path id="_119546288" class="fil6" d="M780.75 342.68c0,0 -117.85,66.62 -113.61,68.16 4.24,1.54 108.6,-23.49 108.6,-23.49l5.01 -44.67z"/>
      <path id="_130621488" class="fil3" d="M982.51 378.31c-6.35,-17.24 -6.35,-17.24 0,0zm0.3 0.81c0.52,1.41 1.03,2.83 1.54,4.25 -0.51,-1.42 -1.02,-2.83 -1.54,-4.25zm2.1 5.82c0.44,1.25 0.88,2.49 1.31,3.74 -0.43,-1.25 -0.87,-2.49 -1.31,-3.74zm1.9 5.42c12.36,35.91 21.1,72.5 25.56,108.19 14.13,113.06 -7.45,212.2 -59.78,314.71 0,0 -0.54,1.58 -2.29,3.71 -11.56,-1.61 -23.26,-4.24 -34.73,-7.5 1.05,-2.31 1.69,-4.05 1.49,-4.51 -0.23,-0.53 -2.12,1.08 -4.65,3.6 -22.31,-6.58 -43.62,-15.43 -61.21,-23.71 -0.25,-2.55 -0.58,-4.23 -1.01,-4.22 -0.39,0.02 -0.91,1.2 -1.49,3.03 -23.18,-11.06 -39.4,-20.86 -42.07,-22.49l0.02 -0.1c51.27,17.62 137.83,26.43 137.83,26.43 65.19,-134.1 68.75,-273.17 31.06,-394.71 3.77,-0.71 7.58,-1.37 11.41,-1.97l-0.15 -0.44 0 0z"/>
      <path id="_119546432" class="fil1" d="M982.55 425.51c51.07,-5.76 64.24,50.55 19.19,69.4l-19.19 -69.4z"/>
      <path id="_119546504" class="fil2" d="M1001.72 495.2c16.66,-25.96 17.08,-54.64 -19.17,-70.1 0,0 -10.31,50.9 19.17,70.1z"/>
      <path id="_119546576" class="fil3" d="M999.99 497.34c20.16,-25.7 20.39,-57.44 -18.75,-73 15.56,10.4 28.39,43.4 18.06,70.87l0.69 2.12z"/>
      <path id="_119546648" class="fil3" d="M984.58 435.11c-4.46,2.77 -4.41,10.9 0.11,18.16 4.51,7.26 11.79,10.9 16.24,8.13 4.45,-2.77 4.41,-10.9 -0.11,-18.16 -4.51,-7.26 -11.79,-10.9 -16.24,-8.13z"/>
      <path id="_119546720" class="fil2" d="M802.39 707.71c0,0 8.27,-17.11 29.41,-27.87 21.14,-10.76 -14.61,28.26 -29.41,27.87z"/>
      <path id="_119546792" class="fil4" d="M954.86 808.78c-0.75,1.5 -1.5,2.99 -2.26,4.48 0,0 -6.35,18.71 -46.39,14.08 0,0 11.64,-20.6 10.85,-22.38 -0.79,-1.78 -20.29,20.7 -20.29,20.7 0,0 -24.63,0.09 -44.75,-17.27 0,0 -0.08,-27.83 -1.83,-27.77 -1.75,0.06 -6,22.73 -6,22.73 -13.57,-1.81 -29.15,-6.75 -38.29,-14.85 -3.27,-2.9 -3.81,-6.81 -1.87,-15.65 0.83,-3.79 1.85,-8.45 3.17,-14.17 75.94,34.12 124.48,46 147.65,50.1l0 0z"/>
      <path id="_119546864" class="fil4" d="M950.66 450.51c0,0 0,25.42 34.28,39.28 0,0 -22.72,-0.77 -32.35,-10.01 -9.63,-9.24 -1.93,-29.27 -1.93,-29.27z"/>
      <path id="_119546936" class="fil1" d="M974.81 526.53c2.51,1.83 3.06,5.36 1.23,7.87 -1.84,2.51 -5.36,3.06 -7.87,1.23 -2.51,-1.83 -3.06,-5.36 -1.22,-7.87 1.83,-2.51 5.36,-3.06 7.87,-1.23zm-45 63.26c-0.68,1.95 0.34,4.08 2.28,4.77 1.95,0.68 4.08,-0.34 4.77,-2.28 0.69,-1.95 -0.34,-4.08 -2.28,-4.77 -1.95,-0.69 -4.08,0.34 -4.77,2.28zm35.88 -9.38c-0.46,1.3 0.22,2.72 1.52,3.18 1.3,0.46 2.72,-0.22 3.18,-1.52 0.46,-1.3 -0.22,-2.72 -1.52,-3.18 -1.3,-0.46 -2.72,0.23 -3.18,1.52zm-6.84 53.85c-0.46,1.3 0.22,2.72 1.52,3.18 1.3,0.46 2.72,-0.22 3.18,-1.52 0.46,-1.3 -0.22,-2.72 -1.52,-3.18 -1.3,-0.46 -2.72,0.22 -3.18,1.52zm16.94 -17.28c-0.57,1.62 0.28,3.4 1.9,3.97 1.62,0.57 3.4,-0.28 3.97,-1.9 0.57,-1.62 -0.28,-3.4 -1.9,-3.97 -1.62,-0.57 -3.4,0.28 -3.97,1.9zm-58.06 23.36c-0.8,2.27 0.39,4.76 2.66,5.56 2.27,0.8 4.76,-0.39 5.56,-2.66 0.8,-2.27 -0.39,-4.76 -2.67,-5.56 -2.27,-0.8 -4.76,0.39 -5.56,2.66zm15.98 -151.37c2.15,1.57 2.62,4.59 1.05,6.74 -1.57,2.15 -4.59,2.62 -6.74,1.05 -2.15,-1.57 -2.62,-4.59 -1.05,-6.74 1.57,-2.15 4.59,-2.62 6.74,-1.05zm-45.06 16.23c1.43,1.05 1.75,3.06 0.7,4.5 -1.05,1.43 -3.06,1.75 -4.5,0.7 -1.43,-1.05 -1.75,-3.06 -0.7,-4.5 1.05,-1.43 3.06,-1.75 4.5,-0.7zm49.91 46.39c1.43,1.05 1.75,3.06 0.7,4.5 -1.05,1.44 -3.06,1.75 -4.5,0.7 -1.43,-1.05 -1.75,-3.06 -0.7,-4.5 1.05,-1.43 3.06,-1.75 4.5,-0.7zm-51.3 42.83c2.15,1.57 2.62,4.59 1.05,6.74 -1.57,2.15 -4.59,2.62 -6.74,1.05 -2.15,-1.57 -2.62,-4.59 -1.05,-6.74 1.57,-2.15 4.59,-2.62 6.74,-1.05zm17.35 -42.9c1.79,1.31 2.19,3.83 0.88,5.62 -1.31,1.79 -3.83,2.18 -5.62,0.88 -1.79,-1.31 -2.18,-3.83 -0.87,-5.62 1.31,-1.79 3.83,-2.19 5.62,-0.88zm89.83 -50.13c1.28,0.93 1.55,2.72 0.62,3.99 -0.93,1.27 -2.72,1.55 -3.99,0.62 -1.27,-0.93 -1.55,-2.72 -0.62,-3.99 0.93,-1.27 2.72,-1.55 3.99,-0.62z"/>
      <path id="_119547008" class="fil7" d="M955.52 362.13c-26.15,-64.55 -67.94,-137.98 -127.3,-207.95 58.12,42.53 101.9,105.54 132.64,170.41 2.32,4.91 11.47,25.72 13.46,33.13 -2.11,6.99 -14.4,10.17 -18.8,4.4l0 0z"/>
      <path id="_119547224" class="fil1" d="M157.2 512.52c-2.67,1.6 -3.54,5.05 -1.95,7.72 1.6,2.67 5.05,3.54 7.72,1.95 2.67,-1.59 3.54,-5.05 1.94,-7.72 -1.59,-2.67 -5.05,-3.54 -7.72,-1.95zm38.98 67.14c0.5,2 -0.71,4.03 -2.71,4.54 -2,0.5 -4.03,-0.71 -4.53,-2.71 -0.5,-2 0.71,-4.03 2.71,-4.54 2,-0.5 4.03,0.71 4.54,2.71zm-34.86 -12.64c0.34,1.33 -0.47,2.69 -1.81,3.02 -1.33,0.34 -2.69,-0.47 -3.02,-1.81 -0.34,-1.33 0.47,-2.69 1.81,-3.02 1.33,-0.33 2.69,0.48 3.02,1.81zm1.85 54.25c0.34,1.33 -0.47,2.69 -1.81,3.02 -1.33,0.34 -2.69,-0.47 -3.02,-1.81 -0.34,-1.33 0.47,-2.69 1.81,-3.02 1.33,-0.34 2.69,0.47 3.02,1.81zm-15.28 -18.77c0.42,1.67 -0.59,3.36 -2.26,3.78 -1.67,0.42 -3.36,-0.59 -3.78,-2.26 -0.42,-1.67 0.59,-3.36 2.26,-3.78 1.67,-0.42 3.36,0.59 3.78,2.26zm55.66 28.61c0.59,2.34 -0.83,4.7 -3.16,5.29 -2.34,0.59 -4.7,-0.83 -5.29,-3.17 -0.59,-2.33 0.83,-4.7 3.17,-5.29 2.33,-0.59 4.7,0.83 5.29,3.16zm-1.96 -152.19c-2.29,1.37 -3.03,4.33 -1.67,6.62 1.37,2.29 4.33,3.03 6.62,1.67 2.29,-1.37 3.03,-4.33 1.67,-6.62 -1.37,-2.29 -4.33,-3.03 -6.62,-1.67zm43.37 20.31c-1.52,0.91 -2.02,2.89 -1.11,4.41 0.91,1.52 2.89,2.02 4.41,1.11 1.53,-0.91 2.02,-2.89 1.11,-4.41 -0.91,-1.53 -2.89,-2.02 -4.41,-1.11zm-53.97 41.6c-1.53,0.91 -2.02,2.89 -1.11,4.41 0.91,1.53 2.89,2.02 4.41,1.11 1.53,-0.91 2.02,-2.89 1.11,-4.41 -0.91,-1.52 -2.89,-2.02 -4.41,-1.11zm47.13 47.37c-2.29,1.37 -3.03,4.33 -1.67,6.62 1.37,2.29 4.33,3.03 6.62,1.67 2.29,-1.37 3.03,-4.33 1.67,-6.62 -1.37,-2.29 -4.33,-3.03 -6.62,-1.67zm-13.32 -44.32c-1.9,1.14 -2.53,3.61 -1.39,5.51 1.14,1.91 3.61,2.53 5.52,1.39 1.9,-1.14 2.53,-3.61 1.39,-5.52 -1.14,-1.91 -3.61,-2.53 -5.51,-1.39zm-84.83 -58.19c-1.35,0.81 -1.8,2.56 -0.99,3.92 0.81,1.35 2.56,1.8 3.92,0.99 1.35,-0.81 1.8,-2.56 0.99,-3.92 -0.81,-1.35 -2.56,-1.8 -3.92,-0.99z"/>
      <path id="_121761024" class="fil6" d="M310.73 130.26c36.29,-34.18 461.42,-33.22 497.69,0.96 -9.49,147.97 -132.97,218.84 -248.02,218.14 -117.22,-0.71 -222.17,-75.7 -249.67,-219.1l-0 0 -0 0z"/>
      <path id="_121760952" class="fil1" d="M308.81 129.16c36.29,-32.68 465.46,-31.76 501.73,0.91 -9.49,141.47 -135.08,209.21 -250.13,208.55 -117.22,-0.68 -224.1,-72.37 -251.6,-209.46l0 0z"/>
      <path id="_121760880" class="fil8" d="M803.63 141.21c-19.8,126.8 -136.27,187.63 -243.43,187 -110.58,-0.65 -211.79,-66.74 -243.63,-193.29 6.9,-2.91 15.73,-6.41 38.22,-5.47 121.6,-12.49 454.33,-23.49 448.84,11.76l0 0 0 0 0 -0z"/>
      <path id="_121760808" class="fil9" d="M802.48 136.97c-18.27,117.01 -118.85,177.83 -218.48,186.04l0.07 0.41 -33.68 0.69c-101.06,-6.75 -200.89,-65.51 -229.44,-190.41l0 0c3.51,-1.84 11.14,-3.04 13.44,-2.49 2.28,5.03 17.93,127 152.49,172.61 59.06,20.02 118.1,15.22 175.07,-9.34 117.46,-50.63 123.49,-150.87 121.33,-155.2l15.54 -3.71c2.44,0.61 3.71,1.09 3.67,1.39l-0 0 0 -0z"/>
      <path id="_121760664" class="fil10" d="M350.32 124.41c4.47,-4.22 16.14,-7.79 32.86,-10.72 95.93,-16.83 358.26,-12.66 383.92,11.51 -7.88,122.92 -112.21,181.79 -207.78,181.21 -97.37,-0.59 -186.16,-62.88 -209,-182.01l0 -0 -0 0 0 -0z"/>
      <path id="_121760520" class="fil11" d="M360.72 161.55c43.75,-34.64 119.1,-52.35 194.9,-52.92l6.18 0c77.97,0.59 155.46,19.31 198.58,55.95 -25.82,92.39 -116.83,136.81 -201.06,136.32 -86.19,-0.51 -165.64,-48.06 -198.6,-139.34l0 0z"/>
      <path id="_121760448" class="fil1" d="M350.32 123.84c4.47,-4.1 16.14,-7.57 32.86,-10.43 95.93,-16.37 358.26,-12.32 383.92,11.2 -7.88,119.58 -112.21,176.84 -207.78,176.28 -97.37,-0.57 -186.16,-61.17 -209,-177.05l0 -0 -0 0 0 -0z"/>
      <path id="_121760376" class="fil4" d="M756.5 115.42c-8.65,117.95 -107.03,174.47 -197.21,173.91 -91.8,-0.57 -175.56,-60.27 -198.03,-174.44 99.89,-27.46 300.38,-27.57 395.24,0.53l-0 0 -0 0 -0 0z"/>
      <path id="_121760304" class="fil6" d="M763.46 268.81c0,0 -34.28,67.01 -157.9,89.35 0,0 81.65,-1.54 112.46,-21.18 30.81,-19.64 45.44,-68.17 45.44,-68.17l-0 0z"/>
      <path id="_121760232" class="fil6" d="M354.07 268.81c0,0 34.28,67.01 157.9,89.35 0,0 -81.65,-1.54 -112.46,-21.18 -30.81,-19.64 -45.44,-68.17 -45.44,-68.17l0 0z"/>
      <path id="_119684072" class="fil1" d="M841.36 414.9c0,0 75.6,-31.47 150.43,-47.97l-4.03 -14.39c0,0 -63.9,12.85 -153.31,46.62l3.84 8.44 3.07 7.29 -0 0z"/>
      <path id="_119683568" class="fil1" d="M278.55 414.9c0,0 -75.6,-31.47 -150.43,-47.97l4.03 -14.39c0,0 63.9,12.85 153.31,46.62l-3.84 8.44 -3.07 7.29 0 0z"/>
      <path id="_119683712" class="fil3" d="M903.94 227.47c1.46,1.96 2.91,3.94 4.35,5.93 -9.87,5.67 -16.52,16.32 -16.52,28.51 0,18.15 14.72,32.86 32.86,32.86 7,0 13.49,-2.19 18.82,-5.92 1.19,2.14 2.37,4.29 3.54,6.45 -6.39,4.29 -14.08,6.79 -22.36,6.79 -22.19,0 -40.18,-17.99 -40.18,-40.18 0,-14.62 7.82,-27.41 19.49,-34.44zm54.37 89.88l0.05 0.1c-9.83,5.99 -21.38,9.44 -33.73,9.44 -35.88,0 -64.97,-29.09 -64.97,-64.97 0,-10.8 2.64,-20.98 7.31,-29.94 1.93,2.14 4.38,3.81 7.14,4.81 -3.77,7.57 -5.9,16.1 -5.9,25.13 0,31.16 25.27,56.42 56.42,56.42 10.61,0 20.54,-2.93 29.02,-8.03 0.97,2.72 2.59,5.12 4.67,7.04zm-76.59 -110.3c6.94,0 12.56,5.63 12.56,12.56 0,6.94 -5.63,12.57 -12.56,12.57 -6.94,0 -12.56,-5.63 -12.56,-12.57 0,-6.94 5.63,-12.56 12.56,-12.56z"/>
      <path id="_119683424" class="fil1" d="M148.25 336.15c0,0 68.26,10.03 137.67,48.59l3.09 -9.64c0,0 -63.63,-36.64 -136.13,-48.98l-7.33 3.47 2.7 6.56 -0 0z"/>
      <path id="_119542952" class="fil1" d="M975.88 342.37c0,0 -68.56,7.68 -139.26,43.85l-2.75 -9.74c0,0 64.85,-34.43 137.73,-44.28l7.2 3.72 -2.92 6.46 -0 0z"/>
     </g>
    </g>
   </g>
   <path class="fil3" d="M547.65 494.09l37.29 36.71c12.44,12.12 -2.86,25.65 -15.73,13.02l-35.29 -32.49c0,0 -5.28,-2.89 -9.84,1.44 -4.56,4.33 -48.73,52.22 -48.73,52.22 0,0 -4.08,4.57 -0.72,8.9 3.32,4.28 70.54,74.03 177.13,9.33 8.92,-5.41 9.47,-13.92 2.14,-21.07l-68.39 -66.75 -37.1 -36.52c-12.44,-12.12 2.86,-25.65 15.73,-13.02l35.29 32.49c0,0 5.28,2.89 9.84,-1.44 4.56,-4.33 48.73,-52.22 48.73,-52.22 0,0 4.08,-4.57 0.72,-8.9 -3.32,-4.28 -70.54,-74.03 -177.13,-9.33 -8.92,5.41 -9.47,13.92 -2.14,21.07l68.2 66.56z"/>
  </g>
 </g>
</svg>
