<?xml version="1.0" encoding="UTF-8"?>
<!DOCTYPE svg PUBLIC "-//W3C//DTD SVG 1.1//EN" "http://www.w3.org/Graphics/SVG/1.1/DTD/svg11.dtd">
<!-- Creator: CorelDRAW 2020 (64-Bit) -->
<svg xmlns="http://www.w3.org/2000/svg" xml:space="preserve" width="161.907mm" height="176.791mm" version="1.1" style="shape-rendering:geometricPrecision; text-rendering:geometricPrecision; image-rendering:optimizeQuality; fill-rule:evenodd; clip-rule:evenodd"
viewBox="0 0 966.23 1055.05"
 xmlns:xlink="http://www.w3.org/1999/xlink"
 xmlns:xodm="http://www.corel.com/coreldraw/odm/2003">
 <defs>
  <style type="text/css">
   <![CDATA[
    .fil0 {fill:none}
    .fil1 {fill:#501D33}
    .fil12 {fill:#86555D}
    .fil10 {fill:#A57E72}
    .fil9 {fill:#B1C884}
    .fil11 {fill:#C6AC93}
    .fil8 {fill:#D49293}
    .fil7 {fill:#D77D75}
    .fil3 {fill:#E67C40}
    .fil2 {fill:#FCB249}
    .fil4 {fill:#FFCE78}
    .fil5 {fill:#FFCFA5}
    .fil6 {fill:white}
    .fil13 {fill:#501D33;fill-rule:nonzero}
   ]]>
  </style>
 </defs>
 <g id="Слой_x0020_1">
  <metadata id="CorelCorpID_0Corel-Layer"/>
  <g id="_560905216">
   <g>
    <g id="_241242312">
     <rect id="_133936424" class="fil0" width="966.23" height="1055.05"/>
     <path id="_205121040" class="fil1" d="M264 110.18c-99.64,44.71 -181.31,217.54 -188.59,308.58 -8.34,104.29 -7.05,167.76 53.78,295.17 0,0 13.73,25.65 58.94,14.66 21.06,3.4 39.76,-5.03 49.44,-18.92 0.24,-0.34 25.77,-2.76 37.89,-14.56 5.5,-5.35 8.99,-10.11 7.02,-19.86 -2.59,-12.75 -6.41,-28.37 -6.41,-28.37 0,0 22.48,-22.41 18.8,-31.95 -3.68,-9.54 -49.66,-49.38 -49.73,-49.76 -31.55,-144.66 -0.61,-268.07 82.04,-367.74l66.4 -87.92c-33.36,-9.85 -94.21,-15.19 -129.58,0.68l0 -0 -0 0 -0 0z"/>
     <path id="_201721816" class="fil1" d="M703.5 110.18c99.64,44.71 181.31,217.54 188.59,308.58 8.34,104.29 7.05,167.76 -53.78,295.17 0,0 -13.73,25.65 -58.94,14.66 -21.06,3.4 -39.76,-5.03 -49.44,-18.92 -0.24,-0.34 -25.77,-2.76 -37.89,-14.56 -5.5,-5.35 -8.99,-10.11 -7.02,-19.86 2.59,-12.75 6.41,-28.37 6.41,-28.37 0,0 -22.48,-22.41 -18.8,-31.95 3.68,-9.54 49.66,-49.38 49.73,-49.76 31.55,-144.66 0.61,-268.07 -82.04,-367.74l-66.4 -87.92c33.36,-9.85 94.21,-15.19 129.58,0.68l-0 -0 0 0 0 0z"/>
     <path id="_201723160" class="fil1" d="M303.84 546.15c-18.02,-107.11 -27.31,-287.64 -38.15,-372.55 18.94,-77.98 167.9,-54.07 218.64,-43.52 50.74,-10.55 199.7,-34.46 218.64,43.52 -10.69,83.79 -18.56,262.22 -36.09,369.61 -65.84,20.91 -128.76,28.06 -183.33,27.95 -41.4,-0.08 -137.5,-8.32 -179.72,-25.01l0 -0 -0 0z"/>
     <path id="_208906640" class="fil2" d="M317.98 542.69c-17.59,-114.28 -30.52,-242.57 -37.8,-356.7 14.79,-60.92 109.39,-91.69 204.03,-91.85l0 -0 0.12 0 0.12 -0 0 0c94.65,0.17 189.24,30.94 204.03,91.85 -7.21,113.08 -19.97,240.06 -37.31,353.54 -139.23,43.05 -283.73,15.17 -333.21,3.16l-0 0 0 -0 0 0z"/>
     <path id="_208908320" class="fil3" d="M311.19 241.61c0,0 36.32,82.05 102.9,135.19 0,0 -44.39,-25.56 -59.19,-41.7 -14.8,-16.14 -43.72,-93.49 -43.72,-93.49l0 0 0 -0z"/>
     <path id="_208911776" class="fil3" d="M671.01 335.77c0,0 -34.97,65.24 -123.08,110.3 0,0 65.91,-14.12 116.35,-47.75l2.02 -25.56 4.71 -36.99 -0 0 0 0z"/>
     <path id="_208912112" class="fil4" d="M650.11 245.41c0,0 -35.2,81.56 -130.23,154.2 -16.66,12.73 -46.66,35.29 -0.99,13.07 25.85,-12.58 56.09,-29.56 78.32,-48.9 47.44,-41.26 52.89,-118.37 52.89,-118.37l0 0z"/>
     <path id="_208911440" class="fil3" d="M316.92 491.16c6.28,19.59 99.81,2.85 110.86,2.85 5.47,0 -29.85,22.93 -99.76,36.14l-11.1 -38.99 -0 0 -0 0z"/>
     <path id="_208910096" class="fil3" d="M317.98 542.69c-14.26,-92.63 -25.45,-194.46 -33.06,-290.5 0.91,-4.26 0.22,-6.75 0.91,-7.02 12.18,82.18 26.38,176.15 42.67,253.77 11.21,53.43 59.16,55.62 158.42,52.53 92.42,-2.88 151.91,-8.23 160,-85.81l36.89 -228.38c0,0 0.5,-2.23 1.37,3.54 -7.53,95.92 -19.82,205.86 -34.01,298.71 -139.23,43.05 -283.73,15.18 -333.21,3.16l0 0 0 0 -0 0z"/>
     <path id="_208908704" class="fil5" d="M603.7 121.82l-7.29 -10.08c5.04,-0.22 9.92,-0.41 14.66,-0.55 -2.42,3.29 -4.9,6.85 -7.37,10.63zm206.88 120.62c37.16,60.37 59.57,125.75 67.93,192.63 12.32,98.64 -6.5,185.12 -52.15,274.55 0,0 -5.54,16.32 -40.47,12.28 0,0 10.16,-17.97 9.47,-19.52 -0.69,-1.55 -17.7,18.06 -17.7,18.06 0,0 -21.49,0.08 -39.04,-15.06 0,0 -0.07,-24.28 -1.59,-24.22 -1.52,0.06 -6.41,17.98 -6.41,17.98l-22.95 -6.06c-10.48,-4.93 -13.76,-5.71 -10.91,-18.7 2.17,-9.92 5.81,-26.65 13.79,-54.74 -2.2,-2.6 -7.54,9.6 -11.44,16.3 0,0 -12.56,-13.87 -12.03,-18.6 0.54,-4.73 44.53,-38.93 44.53,-38.93 28.76,-90.24 18.52,-194.68 -12.72,-277.64 18.61,6.51 29.28,15.8 29.28,15.8 5.04,-16.46 7.05,-32.26 7.05,-32.26 17.81,9.07 25.2,15.12 25.2,15.12 5.37,-22.35 3.35,-33.44 3.35,-33.44 14.62,6.05 22.69,14.28 22.69,14.28 2.99,-16.63 5.11,-27.36 4.13,-37.84l0 0z"/>
     <path id="_208906856" class="fil6" d="M810.66 242.19c37.16,60.37 59.48,126 67.84,192.89 12.32,98.64 -6.5,185.12 -52.15,274.55 0,0 -0.47,1.38 -2,3.24 -10.09,-1.41 -20.29,-3.7 -30.3,-6.54 0.92,-2.02 1.48,-3.53 1.3,-3.94 -0.2,-0.46 -1.85,0.94 -4.05,3.14 -19.46,-5.74 -38.05,-13.46 -53.4,-20.69 -0.22,-2.22 -0.51,-3.69 -0.88,-3.68 -0.34,0.01 -0.8,1.05 -1.3,2.64 -20.22,-9.65 -34.37,-18.2 -36.7,-19.62l0.02 -0.09c44.73,15.37 120.25,23.06 120.25,23.06 73.75,-151.72 60.69,-304.29 -7.64,-427.79 0.06,-5.87 -0.56,-12.65 -0.98,-17.17l0 -0 0 0 0 0z"/>
     <path id="_208907888" class="fil7" d="M818.16 255.61c-0.24,10.45 -1.58,24.8 -6.17,38.77l-18.82 -10.75c0,0 0,14.11 -9.41,32.59l-9.07 -6.05c0,0 -3.32,7.64 -8.52,14.69l-2.85 -10.73c0,0 -12.07,17.61 -22.97,22.3l-20.11 -32.01c-0.45,-1.22 -0.9,-2.44 -1.35,-3.65 18.61,6.51 29.28,15.8 29.28,15.8 5.04,-16.46 7.05,-32.26 7.05,-32.26 17.81,9.07 25.2,15.12 25.2,15.12 5.37,-22.35 3.35,-33.44 3.35,-33.44 14.62,6.05 22.69,14.28 22.69,14.28 2.99,-16.63 4.12,-28.35 3.97,-38.99 3.7,6.02 4.27,8.11 7.74,14.32z"/>
     <path id="_208907696" class="fil7" d="M734.26 307.49c37.42,77.6 71.98,216.98 -34.82,381.36 -3.78,-2.64 -4.57,-5.89 -2.69,-14.47 2.17,-9.92 5.81,-26.65 13.79,-54.74 -2.2,-2.6 -7.54,9.6 -11.44,16.3 0,0 -12.56,-13.87 -12.03,-18.6 0.54,-4.73 44.53,-38.93 44.53,-38.93 28.76,-90.24 18.52,-194.68 -12.72,-277.64 5.97,2.09 11.13,4.46 15.37,6.73l0 -0 0 0z"/>
     <path id="_208906352" class="fil2" d="M693.48 246.03l-97.06 -134.3c66.11,-2.92 104.1,-0.05 152.21,49.29 19.42,19.91 37.28,42.7 53.2,67.37 0.47,9.65 0.15,21.7 -2.26,35.07 0,0 -13.1,-11.76 -27.89,-16.8 0,0 4.03,13.44 2.69,37.29 0,0 -10.42,-8.4 -28.22,-17.47 0,0 1.01,18.14 -4.03,34.61 0,0 -10.72,-9.34 -29.41,-15.85 -5.85,-13.84 -12.28,-26.98 -19.22,-39.22l-0 0 0 -0 0 0z"/>
     <path id="_208908416" class="fil4" d="M709.44 129.44c12.83,7.44 25.6,17.66 39.18,31.59 19.42,19.91 37.28,42.7 53.2,67.36 0.2,4.16 -1.76,30.93 -1.95,35.89 -23.1,-49.12 -48.42,-90.32 -90.43,-134.84l-0 -0 -0 -0z"/>
     <path id="_208907912" class="fil3" d="M693.48 246.03c-2.04,-2.82 -8.22,-11.02 -8.03,-11.11 1.85,-1.85 44.05,21.03 56.13,66.34 -3.74,-1.87 -24.01,-14.32 -28.88,-16.02 -5.85,-13.84 -12.28,-26.98 -19.22,-39.22l0 0z"/>
     <path id="_208907216" class="fil1" d="M852.48 371.35c44.55,-5.03 56.05,44.1 16.74,60.54l-16.74 -60.54z"/>
     <path id="_208906712" class="fil5" d="M869.21 432.15c14.53,-22.64 14.9,-47.67 -16.72,-61.15 0,0 -9,44.41 16.72,61.15z"/>
     <path id="_208907576" class="fil6" d="M867.71 434.02c17.59,-22.42 17.79,-50.11 -16.36,-63.68 13.57,9.08 24.77,37.86 15.75,61.83l0.61 1.85z"/>
     <path id="_208907096" class="fil6" d="M854.25 379.73c-3.89,2.42 -3.85,9.51 0.09,15.84 3.94,6.33 10.28,9.51 14.17,7.09 3.89,-2.42 3.84,-9.51 -0.09,-15.85 -3.94,-6.33 -10.28,-9.51 -14.17,-7.09z"/>
     <path id="_208910360" class="fil5" d="M695.32 617.55c0,0 7.21,-14.92 25.66,-24.32 18.45,-9.39 -12.74,24.65 -25.66,24.32z"/>
     <path id="_208910024" class="fil7" d="M828.33 705.72c-0.65,1.3 -1.3,2.61 -1.97,3.91 0,0 -5.54,16.32 -40.47,12.28 0,0 10.16,-17.97 9.47,-19.52 -0.69,-1.55 -17.7,18.06 -17.7,18.06 0,0 -21.49,0.08 -39.04,-15.07 0,0 -0.07,-24.28 -1.6,-24.22 -1.52,0.06 -5.23,19.83 -5.23,19.83 -11.84,-1.57 -25.43,-5.89 -33.4,-12.96 -2.85,-2.53 -3.32,-5.94 -1.63,-13.65 0.73,-3.31 1.61,-7.37 2.77,-12.36 66.25,29.76 108.6,40.13 128.81,43.71l-0 0 0 0 0 0z"/>
     <path id="_208909208" class="fil7" d="M824.66 393.16c0,0 0,22.18 29.9,34.27 0,0 -19.82,-0.67 -28.22,-8.74 -8.4,-8.06 -1.68,-25.53 -1.68,-25.53z"/>
     <path id="_208906880" class="fil1" d="M749.94 281.87c0,0 6.4,13.89 7.37,29.62 0,0 6.82,-19.59 5.91,-28.24 -0.91,-8.65 -12.56,-10.34 -13.28,-1.38z"/>
     <path id="_208907600" class="fil5" d="M363.8 121.82l7.29 -10.08c-5.04,-0.22 -9.92,-0.41 -14.66,-0.55 2.42,3.29 4.9,6.85 7.37,10.63zm-207.63 122.46c-37.16,60.37 -58.81,123.91 -67.17,190.8 -12.32,98.64 6.5,185.12 52.15,274.55 0,0 5.54,16.32 40.47,12.28 0,0 -10.16,-17.97 -9.47,-19.52 0.69,-1.55 17.7,18.06 17.7,18.06 0,0 21.49,0.08 39.04,-15.06 0,0 0.07,-24.28 1.59,-24.22 1.52,0.06 6.41,17.98 6.41,17.98l22.95 -6.06c10.48,-4.93 13.76,-5.71 10.91,-18.7 -2.17,-9.92 -5.81,-26.65 -13.79,-54.74 2.2,-2.6 7.54,9.6 11.44,16.3 0,0 12.56,-13.87 12.03,-18.6 -0.54,-4.73 -44.53,-38.93 -44.53,-38.93 -28.76,-90.24 -18.52,-194.68 12.72,-277.64 -18.61,6.51 -29.28,15.8 -29.28,15.8 -5.04,-16.46 -7.05,-32.26 -7.05,-32.26 -17.81,9.07 -25.2,15.12 -25.2,15.12 -5.37,-22.35 -3.35,-33.44 -3.35,-33.44 -14.62,6.05 -22.69,14.28 -22.69,14.28 -3.33,-13.61 -5.86,-25.52 -4.88,-36l0 0z"/>
     <path id="_208910240" class="fil6" d="M156 244.11c-37.16,60.37 -58.65,124.08 -67.01,190.96 -12.32,98.64 6.5,185.12 52.15,274.55 0,0 0.47,1.38 2,3.24 10.09,-1.41 20.29,-3.7 30.3,-6.54 -0.92,-2.02 -1.48,-3.53 -1.3,-3.94 0.2,-0.46 1.85,0.94 4.05,3.14 19.46,-5.74 38.05,-13.46 53.4,-20.69 0.22,-2.22 0.51,-3.69 0.88,-3.68 0.34,0.01 0.8,1.05 1.3,2.64 20.22,-9.65 34.37,-18.2 36.7,-19.62l-0.02 -0.09c-44.73,15.37 -120.25,23.06 -120.25,23.06 -73.75,-151.72 -60.02,-305.3 8.31,-428.79 -0.06,-5.87 -0.95,-9.73 -0.52,-14.24l-0 0 0 -0z"/>
     <path id="_208906784" class="fil7" d="M148.99 256.32c-0.19,11.67 0.96,29.45 8.16,43.44 0,0 6.38,-8.74 14.78,-12.43 0,0 -0.34,19.49 10.42,31.25l12.43 -10.08c0,0 1.34,14.78 6.72,22.51l13.78 -8.74 11.09 17.47 11.76 -7.61c3.16,-10.73 6.67,-21.21 10.49,-31.36 -18.61,6.51 -29.28,15.8 -29.28,15.8 -5.04,-16.46 -7.05,-32.26 -7.05,-32.26 -17.81,9.07 -25.2,15.12 -25.2,15.12 -5.37,-22.35 -3.35,-33.44 -3.35,-33.44 -14.62,6.05 -22.69,14.28 -22.69,14.28 -3.33,-13.61 -5.86,-25.52 -4.88,-36 -2.46,4 -4.85,8.01 -7.18,12.04z"/>
     <path id="_208905848" class="fil7" d="M233.24 307.49c-37.42,77.6 -71.98,216.98 34.82,381.36 3.78,-2.64 4.57,-5.89 2.69,-14.47 -2.17,-9.92 -5.81,-26.65 -13.79,-54.74 2.2,-2.6 7.54,9.6 11.44,16.3 0,0 12.56,-13.87 12.03,-18.6 -0.54,-4.73 -44.53,-38.93 -44.53,-38.93 -28.76,-90.24 -18.52,-194.68 12.72,-277.64 -5.97,2.09 -11.13,4.46 -15.37,6.73l0 -0 0 0z"/>
     <path id="_208908536" class="fil2" d="M274.03 246.03l97.06 -134.3c-66.11,-2.92 -104.1,-0.05 -152.21,49.29 -19.42,19.91 -37.28,42.7 -53.2,67.37 -0.47,9.65 -0.15,21.7 2.26,35.07 0,0 13.1,-11.76 27.89,-16.8 0,0 -4.03,13.44 -2.69,37.29 0,0 10.42,-8.4 28.22,-17.47 0,0 -1.01,18.14 4.03,34.61 0,0 10.72,-9.34 29.41,-15.85 5.85,-13.84 12.28,-26.98 19.22,-39.22l0 0 -0 -0 -0 0z"/>
     <path id="_208909184" class="fil4" d="M281.09 236.26l3 -4.15c6.08,-46.64 -13.16,-95.6 -18,-106.96 -4.31,2.11 -8.59,4.51 -12.88,7.24 6.93,16.86 23.86,61.44 27.88,103.87l0 0 0 -0z"/>
     <path id="_208907864" class="fil4" d="M685.43 240.81c-12.87,-36.59 -1.64,-82.38 13.15,-117.15 4.31,2.11 8.59,4.51 12.88,7.24 -6.93,16.86 -22.01,67.48 -26.03,109.91l0 -0z"/>
     <path id="_208909952" class="fil8" d="M306.02 110.48c2.54,-0.64 5.16,-1.63 7.86,-3.26 34.97,122.66 134.81,222.1 155.57,241.8l-1.55 6.25c-121.59,-86.13 -158.04,-228.46 -161.88,-244.79l0 -0 0 0z"/>
     <path id="_208910000" class="fil4" d="M258.06 129.44c-12.83,7.44 -25.6,17.66 -39.18,31.59 -19.42,19.91 -37.28,42.7 -53.2,67.36 -0.2,4.16 0.08,28.21 2.45,35.34 11.81,-41.09 43.42,-93.24 89.93,-134.29l0 -0z"/>
     <path id="_208908392" class="fil3" d="M274.03 246.03l2.42 -3.36c-0.64,-0.36 -1.27,-0.76 -1.91,-1.07 0,0 -35.29,13.58 -46.43,49.93 3.74,-1.87 21.83,-4.59 26.7,-6.29 5.85,-13.84 12.28,-26.98 19.22,-39.22z"/>
     <path id="_208906736" class="fil1" d="M115.02 371.35c-44.55,-5.03 -56.05,44.1 -16.74,60.54l16.74 -60.54z"/>
     <path id="_208907720" class="fil5" d="M98.29 432.15c-14.53,-22.64 -14.9,-47.67 16.72,-61.15 0,0 9,44.41 -16.72,61.15z"/>
     <path id="_208909976" class="fil6" d="M99.8 434.02c-17.59,-22.42 -17.79,-50.11 16.36,-63.68 -13.57,9.08 -24.77,37.86 -15.75,61.83l-0.61 1.85z"/>
     <path id="_208907288" class="fil6" d="M113.25 379.73c3.89,2.42 3.85,9.51 -0.09,15.84 -3.94,6.33 -10.28,9.51 -14.17,7.09 -3.89,-2.42 -3.84,-9.51 0.09,-15.85 3.94,-6.33 10.28,-9.51 14.17,-7.09z"/>
     <path id="_208906592" class="fil5" d="M272.18 617.55c0,0 -7.21,-14.92 -25.66,-24.32 -18.45,-9.39 12.74,24.65 25.66,24.32z"/>
     <path id="_208907480" class="fil7" d="M139.17 705.72c0.65,1.3 1.3,2.61 1.97,3.91 0,0 5.54,16.32 40.47,12.28 0,0 -10.16,-17.97 -9.47,-19.52 0.69,-1.55 17.7,18.06 17.7,18.06 0,0 21.49,0.08 39.04,-15.07 0,0 0.07,-24.28 1.6,-24.22 1.52,0.06 5.23,19.83 5.23,19.83 11.84,-1.57 25.43,-5.89 33.4,-12.96 2.85,-2.53 3.32,-5.94 1.63,-13.65 -0.73,-3.31 -1.61,-7.37 -2.77,-12.36 -66.25,29.76 -108.6,40.13 -128.81,43.71l0 0 -0 0 -0 0z"/>
     <path id="_208908752" class="fil7" d="M142.84 393.16c0,0 0,22.18 -29.9,34.27 0,0 19.82,-0.67 28.22,-8.74 8.4,-8.06 1.68,-25.53 1.68,-25.53z"/>
     <path id="_208905896" class="fil1" d="M217.56 281.87c0,0 -6.4,13.89 -7.37,29.62 0,0 -6.82,-19.59 -5.91,-28.24 0.91,-8.65 12.56,-10.34 13.28,-1.38z"/>
     <path id="_208908152" class="fil3" d="M434.92 376.66c-18.16,-16.11 -34.82,-34.07 -50.13,-52.89 -48.7,-59.89 -84.04,-130.26 -103.5,-204.93 183.2,-51.75 356.62,-12.04 416.64,5.18l-9 19.35c-13.69,29.45 -30.88,57.95 -48.59,85.16 -37.96,58.32 -83.6,114.04 -137.21,158.66 -6.48,5.39 -16.25,13.95 -24.86,14.42 -15.07,0.81 -32.73,-15.52 -43.35,-24.94l0 0 0 0 0 0z"/>
     <path id="_208908968" class="fil1" d="M434.92 364.9c-18.16,-16.11 -34.82,-34.07 -50.13,-52.89 -48.7,-59.89 -84.04,-130.26 -103.5,-204.93 183.2,-51.75 356.62,-12.04 416.64,5.18l-9 19.35c-13.69,29.45 -30.88,57.95 -48.59,85.16 -37.96,58.32 -83.6,114.04 -137.21,158.66 -6.48,5.39 -16.25,13.95 -24.86,14.42 -15.07,0.81 -32.73,-15.52 -43.35,-24.94l0 0 0 0 0 0z"/>
     <path id="_208909544" class="fil2" d="M440.46 358.65c-17.75,-15.75 -34.24,-33.52 -49.19,-51.91 -47.97,-59 -79.43,-119.63 -98.59,-193.19 158.38,-33.52 290.13,-16.37 365.39,-0.04l27.96 4.5 -4.69 10.08c-13.19,28.38 -31.01,58 -48.01,84.12 -37.4,57.48 -82.74,112.84 -135.55,156.79 -4.45,3.7 -14.15,12.18 -19.97,12.5 -10.39,0.56 -24.31,-11.28 -37.36,-22.85l0 0 -0 0 0 0z"/>
     <polygon id="_208910456" class="fil9" points="605.21,253.77 586.41,246.92 590.75,238.57 "/>
     <path id="_208912136" class="fil4" d="M311.89 110.71c46.79,170.4 159.35,257.59 163.94,257.59 2.83,-2.32 6.21,-4.5 8.98,-6.88 41.23,-35.42 78.41,-76.05 106.03,-114.67 48.22,-67.43 72.12,-126.69 72.12,-126.69 -89.5,-13.9 -355.29,-24.72 -351.07,-9.35l0 0 0 0z"/>
     <path id="_208911176" class="fil1" d="M311.89 110.48c46.79,165.12 159.35,249.6 163.94,249.6 2.83,-2.25 6.21,-4.36 8.98,-6.66 113.22,-94.24 181.15,-240.23 181.15,-240.23 -89.5,-13.47 -358.29,-17.61 -354.07,-2.71l0 0 0 0z"/>
     <path id="_208909424" class="fil5" d="M323.22 105.41c13.75,53.75 35.5,97.02 58.37,132.94 32.42,10.47 110.26,28.76 195.3,-0.95 44.55,-60.68 68.56,-112.06 68.56,-112.06 0,0 -128.98,-24.83 -165.67,-28.5 -36.69,-3.67 -156.56,8.56 -156.56,8.56l-0 0 -0 0 -0 0z"/>
     <path id="_208908728" class="fil7" d="M350.43 181.71c9.64,20.77 20.28,39.54 31.17,56.65 3.67,1.19 7.93,2.47 12.71,3.78 -15.87,-22.79 -25.82,-40.48 -25.82,-40.48 -6.92,-9.36 -12.88,-15.73 -18.06,-19.94zm217.56 58.64c2.96,-0.93 5.93,-1.9 8.91,-2.94 19.24,-26.2 34.64,-50.66 45.94,-70.01 -5.74,3.25 -13.08,11.51 -22.44,26.46 -10.9,17.41 -21.82,32.85 -32.41,46.49l0 -0z"/>
     <path id="_208912376" class="fil7" d="M323.22 105.41c9.25,36.17 22.13,67.59 36.53,95.22 71.65,43.28 170.34,43.45 242.22,0.55 28.42,-43.57 50.53,-89.92 50.53,-89.92 -115.1,-22.16 -208.87,-23.17 -329.27,-5.85l0 0 -0 -0z"/>
     <path id="_208911320" class="fil10" d="M387.66 249.31c42.52,63.4 86.79,95.89 89.49,95.89 36.31,-28.88 67.26,-63.31 92.36,-96.25 -77.25,24.63 -147.57,10.58 -181.85,0.36l0 -0z"/>
     <path id="_208906520" class="fil11" d="M557.37 252.52c-65.58,17.73 -124.92,8.66 -159.66,-0.41 23.33,11.47 87.29,35.61 159.66,0.41z"/>
     <path id="_208913168" class="fil12" d="M387.66 249.31c42.52,63.4 86.79,95.89 89.49,95.89 36.31,-28.88 67.26,-63.31 92.36,-96.25 -3.69,1.18 -7.37,2.26 -11.03,3.27 -45.35,54.94 -82.47,76.09 -82.47,76.09 -27.46,-17.04 -53.94,-48 -73.75,-75.05 -5.4,-1.32 -10.28,-2.67 -14.6,-3.95l0 -0 0 0 -0 0z"/>
     <path id="_208912832" class="fil1" d="M565.38 261.45c0,0 -22.51,17.81 -90.38,23.86 0,0 43.68,3.7 83.66,-9.41l1.68 -4.37 5.04 -10.08 -0 0z"/>
     <path id="_208912448" class="fil1" d="M389.99 261.12c0,0 17.32,17.81 69.55,23.86 0,0 -33.61,3.7 -64.38,-9.41l-1.29 -4.37 -3.88 -10.08 -0 0z"/>
     <path id="_208909688" class="fil1" d="M716.01 126.33c0,0 -22.99,39.31 -24.15,115.05 -0.06,4.18 -6.51,-1.91 -7.32,2.18 0,0 -3.11,-71.58 24.06,-124.91l8.47 3.29 -1.06 4.38 0 0z"/>
     <path id="_208908944" class="fil1" d="M717.08 177.11c0,0 -14.33,-18.04 -40.02,-20.73 10.47,13.34 22.72,21.24 40.02,20.73z"/>
     <path id="_208913096" class="fil1" d="M710.97 201.07c0,0 -22.9,-2.59 -42.93,13.71 16.84,2 31.08,-1.1 42.93,-13.71z"/>
     <path id="_208912424" class="fil1" d="M247.18 134.74c0,0 27.35,38.98 28.52,114.71 0.06,4.18 6.51,-1.91 7.32,2.18 0,0 4.46,-70.58 -26.74,-124.57l-5.78 2.96 -3.31 4.72 0 0z"/>
     <path id="_208911680" class="fil1" d="M248.22 180.66c0,0 6.8,-22.02 29.75,-33.85 -4.91,16.23 -13.45,28.04 -29.75,33.85z"/>
     <path id="_208911152" class="fil1" d="M256.92 213.17c0,0 22.9,-2.59 42.93,13.71 -16.84,2 -31.08,-1.1 -42.93,-13.71z"/>
     <path id="_208908584" class="fil1" d="M592.93 216.77c0,0 -17.47,13.44 -68.2,22.85 0,0 40.32,-1.68 64.84,-10.08l4.03 -4.37 -0.67 -8.4z"/>
     <path id="_208910672" class="fil1" d="M367.48 216.77c0,0 17.47,13.44 68.2,22.85 0,0 -40.32,-1.68 -64.84,-10.08l-4.03 -4.37 0.67 -8.4z"/>
     <path id="_208910216" class="fil13" d="M133.69 469.27c-1.15,0.68 -2.63,0.3 -3.31,-0.85 -0.68,-1.15 -0.3,-2.63 0.85,-3.31 3.45,-2.05 7.78,-2.14 11.68,-0.77 2.39,0.84 4.64,2.23 6.43,4.06 1.84,1.88 3.21,4.21 3.77,6.87 0.79,3.69 0.04,7.95 -3.1,12.41 -3.53,5 -7.59,6.36 -11.24,5.63 -2.37,-0.47 -4.49,-1.85 -6.13,-3.7 -1.57,-1.77 -2.73,-4 -3.24,-6.26 -0.88,-3.92 0.08,-7.93 3.9,-10.19 3.73,-2.21 6.76,-2.1 9.01,-0.82 0.06,0.03 0.12,0.07 0.17,0.11 1.03,0.63 1.84,1.49 2.45,2.49 0.6,0.98 1,2.1 1.2,3.22 0.53,2.94 -0.32,6.15 -2.49,7.73 -1.08,0.78 -2.6,0.54 -3.38,-0.54 -0.78,-1.08 -0.54,-2.6 0.54,-3.38 0.61,-0.44 0.78,-1.68 0.56,-2.94 -0.1,-0.57 -0.29,-1.11 -0.57,-1.57 -0.22,-0.36 -0.49,-0.66 -0.8,-0.86l-0.08 -0.04c-0.84,-0.48 -2.2,-0.39 -4.17,0.78 -1.7,1 -2.09,2.98 -1.64,4.96 0.33,1.47 1.1,2.94 2.14,4.11 0.98,1.1 2.18,1.91 3.46,2.17 1.88,0.38 4.13,-0.54 6.34,-3.67 2.27,-3.22 2.84,-6.15 2.32,-8.6 -0.37,-1.73 -1.27,-3.26 -2.49,-4.5 -1.27,-1.29 -2.87,-2.28 -4.58,-2.88 -2.63,-0.92 -5.46,-0.91 -7.62,0.37zm13.7 197.28c0.01,-1.14 31.39,4.78 65.53,-20.82 2.83,-2.12 3.54,-0.92 1.31,1.6 -33.49,37.73 -68.08,20.9 -66.84,19.22zm-3.81 -17.44c0,-1.14 31.39,4.78 65.53,-20.82 2.83,-2.12 3.55,-0.92 1.32,1.6 -33.49,37.73 -68.08,20.91 -66.85,19.23zm-1.51 -198.47c1.19,0.86 1.46,2.53 0.6,3.72 -0.86,1.19 -2.53,1.46 -3.72,0.6 -5.48,-3.96 -6.63,-9.29 -5.33,-14.07 0.63,-2.31 1.85,-4.48 3.43,-6.26 1.61,-1.81 3.59,-3.25 5.71,-4.07 4.09,-1.59 8.62,-1.05 12.13,3.04 0.33,0.38 0.66,0.81 0.97,1.28 1.5,2.19 2.45,4.8 2.62,7.23 0.19,2.78 -0.58,5.39 -2.62,7.14 -0.04,0.03 -0.08,0.07 -0.12,0.1 -0.15,0.12 -0.32,0.25 -0.49,0.37 -3.55,2.43 -7.02,2.1 -9.6,0.56 -0.96,-0.57 -1.78,-1.31 -2.44,-2.14 -0.67,-0.85 -1.17,-1.8 -1.46,-2.78 -0.7,-2.38 -0.22,-4.84 1.9,-6.48 1.16,-0.9 2.84,-0.69 3.74,0.47 0.9,1.16 0.69,2.84 -0.47,3.74 -0.15,0.11 -0.15,0.41 -0.05,0.75 0.09,0.32 0.28,0.66 0.53,0.99 0.27,0.34 0.6,0.64 0.98,0.87 0.98,0.58 2.34,0.65 3.85,-0.37 0.03,-0.02 0.07,-0.05 0.1,-0.08l0.05 -0.04c0.63,-0.54 0.86,-1.55 0.78,-2.71 -0.11,-1.51 -0.72,-3.18 -1.69,-4.59 -0.18,-0.26 -0.39,-0.53 -0.63,-0.82 -1.78,-2.07 -4.07,-2.34 -6.14,-1.54 -1.34,0.52 -2.61,1.44 -3.65,2.61 -1.06,1.19 -1.88,2.63 -2.29,4.14 -0.75,2.79 -0.03,5.94 3.3,8.35zm55.66 105.37c0.86,0.61 1.05,1.81 0.43,2.67 -0.62,0.86 -1.81,1.05 -2.67,0.43 -3.93,-2.84 -4.75,-6.66 -3.82,-10.09 0.45,-1.66 1.33,-3.21 2.46,-4.49 1.15,-1.3 2.58,-2.33 4.1,-2.92 2.93,-1.14 6.18,-0.76 8.7,2.18 0.23,0.27 0.47,0.58 0.7,0.92 1.07,1.57 1.75,3.44 1.88,5.18 0.14,1.99 -0.42,3.87 -1.88,5.12 -0.03,0.02 -0.06,0.05 -0.09,0.07 -0.11,0.09 -0.23,0.18 -0.36,0.26 -2.55,1.74 -5.03,1.5 -6.88,0.4 -0.68,-0.41 -1.28,-0.94 -1.75,-1.53 -0.48,-0.61 -0.84,-1.29 -1.05,-1.99 -0.5,-1.7 -0.16,-3.47 1.36,-4.65 0.83,-0.65 2.03,-0.49 2.68,0.34 0.65,0.84 0.49,2.04 -0.34,2.69 -0.11,0.08 -0.11,0.29 -0.03,0.54 0.07,0.23 0.2,0.47 0.38,0.71 0.19,0.24 0.43,0.46 0.71,0.62 0.7,0.41 1.68,0.47 2.76,-0.27 0.02,-0.02 0.05,-0.04 0.07,-0.06l0.04 -0.03c0.45,-0.39 0.62,-1.11 0.56,-1.94 -0.08,-1.09 -0.51,-2.28 -1.21,-3.29 -0.13,-0.18 -0.28,-0.38 -0.45,-0.59 -1.28,-1.48 -2.92,-1.68 -4.4,-1.1 -0.96,0.38 -1.87,1.03 -2.62,1.87 -0.76,0.86 -1.34,1.88 -1.64,2.97 -0.54,2 -0.02,4.26 2.37,5.98zm-72.9 -4.87c1.12,-0.3 2.27,0.36 2.57,1.47 0.3,1.12 -0.36,2.27 -1.47,2.57 -7.83,2.13 -13.65,-0.8 -17.11,-5.58 -1.71,-2.36 -2.82,-5.17 -3.3,-8.03 -0.48,-2.87 -0.32,-5.82 0.52,-8.45 1.56,-4.9 5.39,-8.64 11.72,-8.83 0.63,-0.02 1.28,0 1.95,0.06 3.19,0.25 6.37,1.34 8.77,3.02 2.63,1.84 4.4,4.39 4.49,7.4 0,0.05 0,0.09 0,0.14 0,0.24 -0.01,0.48 -0.03,0.73 -0.39,4.93 -3.17,7.79 -6.39,8.98 -1.21,0.45 -2.47,0.65 -3.67,0.64 -1.22,-0.02 -2.42,-0.26 -3.48,-0.69 -2.48,-1.02 -4.24,-3.08 -4.17,-5.93 0.03,-1.16 0.99,-2.08 2.15,-2.05 1.16,0.02 2.07,0.99 2.05,2.15 -0.02,0.88 0.63,1.56 1.56,1.94 0.57,0.23 1.24,0.36 1.95,0.37 0.72,0.01 1.47,-0.11 2.16,-0.37 1.83,-0.68 3.43,-2.38 3.67,-5.39 0.01,-0.1 0.01,-0.2 0.01,-0.31l-0 -0.09c-0.04,-1.56 -1.11,-2.98 -2.7,-4.09 -1.81,-1.26 -4.24,-2.09 -6.71,-2.29 -0.47,-0.04 -0.97,-0.05 -1.49,-0.04 -4.23,0.12 -6.79,2.63 -7.84,5.91 -0.63,1.98 -0.74,4.24 -0.37,6.48 0.37,2.25 1.24,4.44 2.55,6.25 2.52,3.48 6.8,5.59 12.61,4.01zm98.98 -59.3c-0.32,-1.24 0.43,-2.51 1.67,-2.82 1.24,-0.32 2.51,0.43 2.83,1.67 2.24,8.71 -1.09,15.11 -6.44,18.87 -2.64,1.86 -5.77,3.05 -8.94,3.53 -3.19,0.48 -6.46,0.26 -9.35,-0.71 -5.4,-1.81 -9.49,-6.1 -9.6,-13.11 -0.01,-0.69 0.02,-1.42 0.09,-2.16 0.33,-3.53 1.58,-7.03 3.48,-9.66 2.07,-2.88 4.93,-4.81 8.27,-4.86 0.05,-0.01 0.1,-0 0.15,-0 0.27,0 0.53,0.01 0.81,0.04 5.46,0.51 8.58,3.62 9.85,7.21 0.48,1.35 0.68,2.74 0.65,4.08 -0.04,1.36 -0.32,2.68 -0.82,3.85 -1.17,2.73 -3.48,4.65 -6.62,4.53 -1.29,-0.05 -2.29,-1.13 -2.24,-2.42 0.05,-1.28 1.13,-2.28 2.41,-2.23 0.98,0.03 1.74,-0.68 2.18,-1.69 0.26,-0.63 0.42,-1.37 0.44,-2.15 0.02,-0.8 -0.1,-1.63 -0.37,-2.4 -0.72,-2.04 -2.59,-3.83 -5.91,-4.14 -0.11,-0.01 -0.23,-0.01 -0.34,-0.01l-0.1 -0c-1.72,0.03 -3.32,1.19 -4.56,2.93 -1.43,1.99 -2.38,4.67 -2.64,7.39 -0.04,0.52 -0.07,1.07 -0.06,1.65 0.07,4.69 2.8,7.56 6.41,8.78 2.19,0.72 4.69,0.88 7.18,0.5 2.5,-0.38 4.93,-1.3 6.96,-2.73 3.89,-2.74 6.29,-7.44 4.63,-13.9zm-60.32 18.82c1.03,0.54 1.42,1.81 0.88,2.83 -0.54,1.02 -1.81,1.42 -2.83,0.88 -7.19,-3.77 -9.45,-9.87 -8.74,-15.74 0.36,-2.89 1.45,-5.71 3.06,-8.13 1.6,-2.42 3.73,-4.48 6.13,-5.83 4.48,-2.52 9.83,-2.66 14.59,1.51 0.47,0.41 0.94,0.87 1.39,1.37 2.17,2.36 3.75,5.32 4.37,8.18 0.68,3.14 0.24,6.21 -1.75,8.48 -0.03,0.03 -0.06,0.07 -0.09,0.1 -0.16,0.18 -0.33,0.35 -0.51,0.52 -3.65,3.35 -7.63,3.55 -10.79,2.23 -1.19,-0.49 -2.25,-1.2 -3.13,-2.03 -0.89,-0.84 -1.6,-1.83 -2.08,-2.88 -1.12,-2.44 -1.01,-5.14 0.98,-7.18 0.81,-0.83 2.14,-0.85 2.97,-0.03 0.83,0.81 0.85,2.14 0.04,2.97 -0.62,0.63 -0.6,1.58 -0.18,2.48 0.26,0.56 0.66,1.11 1.18,1.6 0.52,0.5 1.15,0.92 1.83,1.2 1.8,0.75 4.13,0.59 6.35,-1.45 0.07,-0.07 0.14,-0.14 0.22,-0.22l0.06 -0.07c1.02,-1.17 1.21,-2.93 0.81,-4.82 -0.47,-2.16 -1.68,-4.42 -3.35,-6.24 -0.32,-0.35 -0.68,-0.7 -1.07,-1.04 -3.18,-2.79 -6.77,-2.7 -9.76,-1.01 -1.81,1.02 -3.43,2.6 -4.68,4.5 -1.26,1.9 -2.12,4.09 -2.39,6.32 -0.52,4.26 1.17,8.72 6.51,11.52zm23.86 -46.04c1.03,0.54 1.42,1.81 0.88,2.83 -0.54,1.02 -1.81,1.42 -2.83,0.88 -7.19,-3.77 -9.45,-9.87 -8.74,-15.74 0.36,-2.89 1.45,-5.71 3.06,-8.13 1.6,-2.42 3.73,-4.48 6.13,-5.83 4.48,-2.52 9.83,-2.66 14.59,1.51 0.47,0.41 0.94,0.87 1.39,1.37 2.17,2.36 3.75,5.32 4.37,8.18 0.68,3.14 0.24,6.21 -1.75,8.48 -0.03,0.03 -0.06,0.07 -0.09,0.1 -0.16,0.18 -0.33,0.35 -0.51,0.52 -3.65,3.35 -7.63,3.55 -10.79,2.23 -1.19,-0.49 -2.25,-1.2 -3.13,-2.03 -0.89,-0.84 -1.6,-1.83 -2.08,-2.88 -1.12,-2.44 -1.01,-5.14 0.98,-7.18 0.81,-0.83 2.14,-0.85 2.97,-0.03 0.83,0.81 0.85,2.14 0.04,2.97 -0.62,0.63 -0.6,1.58 -0.18,2.48 0.26,0.56 0.66,1.11 1.18,1.6 0.52,0.5 1.15,0.92 1.83,1.2 1.8,0.75 4.13,0.59 6.35,-1.45 0.07,-0.07 0.14,-0.14 0.22,-0.22l0.06 -0.07c1.02,-1.17 1.21,-2.93 0.81,-4.82 -0.47,-2.16 -1.68,-4.42 -3.35,-6.24 -0.32,-0.35 -0.68,-0.7 -1.07,-1.04 -3.18,-2.79 -6.77,-2.7 -9.76,-1.01 -1.81,1.02 -3.43,2.6 -4.68,4.5 -1.26,1.9 -2.12,4.09 -2.39,6.32 -0.52,4.26 1.17,8.72 6.51,11.52zm-74.42 -2.01c-0.41,-1.27 0.29,-2.64 1.56,-3.05 1.27,-0.41 2.64,0.29 3.05,1.56 1.24,3.82 0.37,8.07 -1.82,11.58 -1.35,2.15 -3.2,4.04 -5.38,5.38 -2.24,1.38 -4.82,2.21 -7.54,2.17 -3.78,-0.05 -7.78,-1.71 -11.44,-5.76 -4.11,-4.55 -4.54,-8.82 -3.02,-12.22 0.99,-2.21 2.8,-3.98 4.96,-5.17 2.07,-1.15 4.5,-1.78 6.82,-1.78 4.02,0 7.73,1.83 9.1,6.06 1.33,4.13 0.56,7.07 -1.19,8.98 -0.05,0.05 -0.09,0.1 -0.15,0.15 -0.84,0.86 -1.86,1.48 -2.97,1.85 -1.09,0.37 -2.27,0.52 -3.41,0.46 -2.99,-0.13 -5.94,-1.67 -7,-4.14 -0.52,-1.23 0.05,-2.65 1.28,-3.18 1.23,-0.52 2.65,0.05 3.18,1.28 0.29,0.69 1.47,1.14 2.75,1.19 0.58,0.02 1.15,-0.04 1.66,-0.21 0.39,-0.13 0.75,-0.33 1.02,-0.6l0.06 -0.07c0.66,-0.72 0.87,-2.06 0.16,-4.24 -0.6,-1.88 -2.45,-2.69 -4.48,-2.69 -1.51,-0 -3.11,0.42 -4.49,1.18 -1.29,0.71 -2.35,1.71 -2.88,2.9 -0.78,1.76 -0.39,4.15 2.19,7 2.64,2.93 5.38,4.13 7.89,4.16 1.77,0.02 3.46,-0.52 4.94,-1.44 1.54,-0.95 2.86,-2.3 3.82,-3.83 1.48,-2.36 2.1,-5.14 1.32,-7.52zm65.85 66.53c-0.41,-1.27 0.29,-2.64 1.56,-3.05 1.27,-0.41 2.64,0.29 3.05,1.56 1.24,3.82 0.37,8.07 -1.82,11.58 -1.35,2.15 -3.2,4.04 -5.38,5.38 -2.24,1.38 -4.82,2.21 -7.54,2.17 -3.78,-0.05 -7.78,-1.71 -11.44,-5.76 -4.11,-4.55 -4.54,-8.82 -3.02,-12.22 0.99,-2.21 2.8,-3.98 4.96,-5.17 2.07,-1.15 4.5,-1.78 6.82,-1.78 4.02,0 7.73,1.83 9.1,6.06 1.33,4.13 0.56,7.07 -1.19,8.98 -0.05,0.05 -0.09,0.1 -0.15,0.15 -0.84,0.86 -1.86,1.48 -2.97,1.85 -1.09,0.37 -2.27,0.52 -3.41,0.46 -2.99,-0.13 -5.94,-1.67 -7,-4.14 -0.52,-1.23 0.05,-2.65 1.28,-3.18 1.23,-0.52 2.65,0.05 3.18,1.28 0.29,0.69 1.47,1.14 2.75,1.19 0.58,0.02 1.15,-0.04 1.66,-0.21 0.39,-0.13 0.75,-0.33 1.02,-0.6l0.06 -0.07c0.66,-0.72 0.87,-2.06 0.16,-4.24 -0.6,-1.88 -2.45,-2.69 -4.48,-2.69 -1.51,-0 -3.11,0.42 -4.49,1.18 -1.29,0.71 -2.35,1.71 -2.88,2.9 -0.78,1.76 -0.39,4.15 2.19,7 2.64,2.93 5.38,4.13 7.89,4.16 1.77,0.02 3.46,-0.52 4.94,-1.44 1.54,-0.95 2.86,-2.3 3.82,-3.83 1.48,-2.36 2.1,-5.14 1.32,-7.52zm-69.7 59.96c-0.38,1.28 -1.72,2.01 -3,1.63 -1.28,-0.38 -2.01,-1.72 -1.64,-3 1.13,-3.85 4.24,-6.86 8.03,-8.52 2.32,-1.01 4.92,-1.52 7.47,-1.41 2.63,0.12 5.21,0.9 7.44,2.46 3.09,2.17 5.45,5.79 6.18,11.2 0.82,6.07 -1.23,9.82 -4.4,11.78 -2.06,1.27 -4.55,1.7 -7,1.47 -2.35,-0.23 -4.72,-1.07 -6.63,-2.38 -3.31,-2.27 -5.34,-5.87 -4.08,-10.12 1.23,-4.16 3.52,-6.14 6.04,-6.73 0.07,-0.02 0.13,-0.03 0.2,-0.04 1.18,-0.24 2.37,-0.16 3.49,0.15 1.11,0.31 2.16,0.85 3.07,1.54 2.39,1.8 3.96,4.73 3.44,7.36 -0.26,1.31 -1.53,2.16 -2.84,1.9 -1.31,-0.26 -2.16,-1.53 -1.9,-2.84 0.15,-0.74 -0.57,-1.77 -1.59,-2.54 -0.46,-0.35 -0.97,-0.62 -1.49,-0.76 -0.4,-0.11 -0.8,-0.15 -1.17,-0.08l-0.09 0.02c-0.94,0.22 -1.88,1.21 -2.52,3.41 -0.56,1.89 0.5,3.6 2.18,4.75 1.24,0.85 2.8,1.41 4.37,1.56 1.47,0.14 2.9,-0.08 4.01,-0.77 1.64,-1.01 2.66,-3.2 2.14,-7.01 -0.53,-3.9 -2.11,-6.44 -4.16,-7.88 -1.45,-1.02 -3.15,-1.52 -4.88,-1.6 -1.81,-0.08 -3.65,0.28 -5.31,1.01 -2.55,1.12 -4.62,3.05 -5.33,5.45zm39.31 -23.52c-0.38,1.28 -1.72,2.01 -3,1.63 -1.28,-0.38 -2.01,-1.72 -1.64,-3 1.13,-3.85 4.24,-6.86 8.03,-8.52 2.32,-1.01 4.92,-1.52 7.47,-1.41 2.63,0.12 5.21,0.9 7.44,2.46 3.09,2.17 5.45,5.79 6.18,11.2 0.82,6.07 -1.23,9.82 -4.4,11.78 -2.06,1.27 -4.55,1.7 -7,1.47 -2.35,-0.23 -4.72,-1.07 -6.63,-2.38 -3.31,-2.27 -5.34,-5.87 -4.08,-10.12 1.23,-4.16 3.52,-6.14 6.04,-6.73 0.07,-0.02 0.13,-0.03 0.2,-0.04 1.18,-0.24 2.37,-0.16 3.49,0.15 1.11,0.31 2.16,0.85 3.07,1.54 2.39,1.8 3.96,4.73 3.44,7.36 -0.26,1.31 -1.53,2.16 -2.84,1.9 -1.31,-0.26 -2.16,-1.53 -1.9,-2.84 0.15,-0.74 -0.57,-1.77 -1.59,-2.54 -0.46,-0.35 -0.97,-0.62 -1.49,-0.76 -0.4,-0.11 -0.8,-0.15 -1.17,-0.08l-0.09 0.02c-0.94,0.22 -1.88,1.21 -2.52,3.41 -0.56,1.89 0.5,3.6 2.18,4.75 1.24,0.85 2.8,1.41 4.37,1.56 1.47,0.14 2.9,-0.08 4.01,-0.77 1.64,-1.01 2.66,-3.2 2.14,-7.01 -0.53,-3.9 -2.11,-6.44 -4.16,-7.88 -1.45,-1.02 -3.15,-1.52 -4.88,-1.6 -1.81,-0.08 -3.65,0.28 -5.31,1.01 -2.55,1.12 -4.62,3.05 -5.33,5.45zm-39.59 -72.48c-1.15,0.68 -2.63,0.3 -3.31,-0.85 -0.68,-1.15 -0.3,-2.63 0.85,-3.31 3.45,-2.05 7.78,-2.14 11.68,-0.77 2.39,0.84 4.64,2.23 6.43,4.06 1.84,1.88 3.21,4.21 3.77,6.87 0.79,3.69 0.04,7.95 -3.1,12.41 -3.53,5 -7.59,6.36 -11.24,5.63 -2.37,-0.47 -4.49,-1.85 -6.13,-3.7 -1.57,-1.77 -2.73,-4 -3.24,-6.26 -0.88,-3.92 0.08,-7.93 3.9,-10.19 3.73,-2.21 6.76,-2.1 9.01,-0.82 0.06,0.03 0.12,0.07 0.17,0.11 1.03,0.63 1.84,1.49 2.45,2.49 0.6,0.98 1,2.1 1.2,3.22 0.53,2.94 -0.32,6.15 -2.49,7.73 -1.08,0.78 -2.6,0.54 -3.38,-0.54 -0.78,-1.08 -0.54,-2.6 0.54,-3.38 0.61,-0.44 0.78,-1.68 0.56,-2.94 -0.1,-0.57 -0.29,-1.11 -0.57,-1.57 -0.22,-0.36 -0.49,-0.66 -0.8,-0.86l-0.08 -0.04c-0.84,-0.48 -2.2,-0.39 -4.17,0.78 -1.7,1 -2.09,2.98 -1.64,4.96 0.33,1.47 1.1,2.94 2.14,4.11 0.98,1.1 2.18,1.91 3.46,2.17 1.88,0.38 4.13,-0.54 6.34,-3.67 2.27,-3.22 2.84,-6.15 2.32,-8.6 -0.37,-1.73 -1.27,-3.26 -2.49,-4.5 -1.27,-1.29 -2.87,-2.28 -4.58,-2.88 -2.63,-0.92 -5.46,-0.91 -7.62,0.37z"/>
     <path id="_208912664" class="fil13" d="M834.21 469.27c1.15,0.68 2.63,0.3 3.31,-0.85 0.68,-1.15 0.3,-2.63 -0.85,-3.31 -3.45,-2.05 -7.78,-2.14 -11.68,-0.77 -2.39,0.84 -4.64,2.23 -6.43,4.06 -1.84,1.88 -3.21,4.21 -3.77,6.87 -0.79,3.69 -0.04,7.95 3.1,12.41 3.53,5 7.59,6.36 11.24,5.63 2.37,-0.47 4.49,-1.85 6.13,-3.7 1.57,-1.77 2.73,-4 3.24,-6.26 0.88,-3.92 -0.08,-7.93 -3.9,-10.19 -3.73,-2.21 -6.76,-2.1 -9.01,-0.82 -0.06,0.03 -0.12,0.07 -0.17,0.11 -1.03,0.63 -1.84,1.49 -2.45,2.49 -0.6,0.98 -1,2.1 -1.2,3.22 -0.53,2.94 0.32,6.15 2.49,7.73 1.08,0.78 2.6,0.54 3.38,-0.54 0.78,-1.08 0.54,-2.6 -0.54,-3.38 -0.61,-0.44 -0.78,-1.68 -0.56,-2.94 0.1,-0.57 0.29,-1.11 0.57,-1.57 0.22,-0.36 0.49,-0.66 0.8,-0.86l0.08 -0.04c0.84,-0.48 2.2,-0.39 4.17,0.78 1.7,1 2.09,2.98 1.64,4.96 -0.33,1.47 -1.1,2.94 -2.14,4.11 -0.98,1.1 -2.18,1.91 -3.46,2.17 -1.88,0.38 -4.13,-0.54 -6.34,-3.67 -2.27,-3.22 -2.84,-6.15 -2.32,-8.6 0.37,-1.73 1.27,-3.26 2.49,-4.5 1.27,-1.29 2.87,-2.28 4.58,-2.88 2.63,-0.92 5.46,-0.91 7.62,0.37zm-13.7 197.28c-0.01,-1.14 -31.39,4.78 -65.53,-20.82 -2.83,-2.12 -3.54,-0.92 -1.31,1.6 33.49,37.73 68.08,20.9 66.84,19.22zm3.81 -17.44c-0,-1.14 -31.39,4.78 -65.53,-20.82 -2.83,-2.12 -3.55,-0.92 -1.32,1.6 33.49,37.73 68.08,20.91 66.85,19.23zm1.51 -198.47c-1.19,0.86 -1.46,2.53 -0.6,3.72 0.86,1.19 2.53,1.46 3.72,0.6 5.48,-3.96 6.63,-9.29 5.33,-14.07 -0.63,-2.31 -1.85,-4.48 -3.43,-6.26 -1.61,-1.81 -3.59,-3.25 -5.71,-4.07 -4.09,-1.59 -8.62,-1.05 -12.13,3.04 -0.33,0.38 -0.66,0.81 -0.97,1.28 -1.5,2.19 -2.45,4.8 -2.62,7.23 -0.19,2.78 0.58,5.39 2.62,7.14 0.04,0.03 0.08,0.07 0.12,0.1 0.15,0.12 0.32,0.25 0.49,0.37 3.55,2.43 7.02,2.1 9.6,0.56 0.96,-0.57 1.78,-1.31 2.44,-2.14 0.67,-0.85 1.17,-1.8 1.46,-2.78 0.7,-2.38 0.22,-4.84 -1.9,-6.48 -1.16,-0.9 -2.84,-0.69 -3.74,0.47 -0.9,1.16 -0.69,2.84 0.47,3.74 0.15,0.11 0.15,0.41 0.05,0.75 -0.09,0.32 -0.28,0.66 -0.53,0.99 -0.27,0.34 -0.6,0.64 -0.98,0.87 -0.98,0.58 -2.34,0.65 -3.85,-0.37 -0.03,-0.02 -0.07,-0.05 -0.1,-0.08l-0.05 -0.04c-0.63,-0.54 -0.86,-1.55 -0.78,-2.71 0.11,-1.51 0.72,-3.18 1.69,-4.59 0.18,-0.26 0.39,-0.53 0.63,-0.82 1.78,-2.07 4.07,-2.34 6.14,-1.54 1.34,0.52 2.61,1.44 3.65,2.61 1.06,1.19 1.88,2.63 2.29,4.14 0.75,2.79 0.03,5.94 -3.3,8.35zm-55.66 105.37c-0.86,0.61 -1.05,1.81 -0.43,2.67 0.62,0.86 1.81,1.05 2.67,0.43 3.93,-2.84 4.75,-6.66 3.82,-10.09 -0.45,-1.66 -1.33,-3.21 -2.46,-4.49 -1.15,-1.3 -2.58,-2.33 -4.1,-2.92 -2.93,-1.14 -6.18,-0.76 -8.7,2.18 -0.23,0.27 -0.47,0.58 -0.7,0.92 -1.07,1.57 -1.75,3.44 -1.88,5.18 -0.14,1.99 0.42,3.87 1.88,5.12 0.03,0.02 0.06,0.05 0.09,0.07 0.11,0.09 0.23,0.18 0.36,0.26 2.55,1.74 5.03,1.5 6.88,0.4 0.68,-0.41 1.28,-0.94 1.75,-1.53 0.48,-0.61 0.84,-1.29 1.05,-1.99 0.5,-1.7 0.16,-3.47 -1.36,-4.65 -0.83,-0.65 -2.03,-0.49 -2.68,0.34 -0.65,0.84 -0.49,2.04 0.34,2.69 0.11,0.08 0.11,0.29 0.03,0.54 -0.07,0.23 -0.2,0.47 -0.38,0.71 -0.19,0.24 -0.43,0.46 -0.71,0.62 -0.7,0.41 -1.68,0.47 -2.76,-0.27 -0.02,-0.02 -0.05,-0.04 -0.07,-0.06l-0.04 -0.03c-0.45,-0.39 -0.62,-1.11 -0.56,-1.94 0.08,-1.09 0.51,-2.28 1.21,-3.29 0.13,-0.18 0.28,-0.38 0.45,-0.59 1.28,-1.48 2.92,-1.68 4.4,-1.1 0.96,0.38 1.87,1.03 2.62,1.87 0.76,0.86 1.34,1.88 1.64,2.97 0.54,2 0.02,4.26 -2.37,5.98zm72.9 -4.87c-1.12,-0.3 -2.27,0.36 -2.57,1.47 -0.3,1.12 0.36,2.27 1.47,2.57 7.83,2.13 13.65,-0.8 17.11,-5.58 1.71,-2.36 2.82,-5.17 3.3,-8.03 0.48,-2.87 0.32,-5.82 -0.52,-8.45 -1.56,-4.9 -5.39,-8.64 -11.72,-8.83 -0.63,-0.02 -1.28,0 -1.95,0.06 -3.19,0.25 -6.37,1.34 -8.77,3.02 -2.63,1.84 -4.4,4.39 -4.49,7.4 -0,0.05 -0,0.09 -0,0.14 -0,0.24 0.01,0.48 0.03,0.73 0.39,4.93 3.17,7.79 6.39,8.98 1.21,0.45 2.47,0.65 3.67,0.64 1.22,-0.02 2.42,-0.26 3.48,-0.69 2.48,-1.02 4.24,-3.08 4.17,-5.93 -0.03,-1.16 -0.99,-2.08 -2.15,-2.05 -1.16,0.02 -2.07,0.99 -2.05,2.15 0.02,0.88 -0.63,1.56 -1.56,1.94 -0.57,0.23 -1.24,0.36 -1.95,0.37 -0.72,0.01 -1.47,-0.11 -2.16,-0.37 -1.83,-0.68 -3.43,-2.38 -3.67,-5.39 -0.01,-0.1 -0.01,-0.2 -0.01,-0.31l0 -0.09c0.04,-1.56 1.11,-2.98 2.7,-4.09 1.81,-1.26 4.24,-2.09 6.71,-2.29 0.47,-0.04 0.97,-0.05 1.49,-0.04 4.23,0.12 6.79,2.63 7.84,5.91 0.63,1.98 0.74,4.24 0.37,6.48 -0.37,2.25 -1.24,4.44 -2.55,6.25 -2.52,3.48 -6.8,5.59 -12.61,4.01zm-98.98 -59.3c0.32,-1.24 -0.43,-2.51 -1.67,-2.82 -1.24,-0.32 -2.51,0.43 -2.83,1.67 -2.24,8.71 1.09,15.11 6.44,18.87 2.64,1.86 5.77,3.05 8.94,3.53 3.19,0.48 6.46,0.26 9.35,-0.71 5.4,-1.81 9.49,-6.1 9.6,-13.11 0.01,-0.69 -0.02,-1.42 -0.09,-2.16 -0.33,-3.53 -1.58,-7.03 -3.48,-9.66 -2.07,-2.88 -4.93,-4.81 -8.27,-4.86 -0.05,-0.01 -0.1,-0 -0.15,-0 -0.27,0 -0.53,0.01 -0.81,0.04 -5.46,0.51 -8.58,3.62 -9.85,7.21 -0.48,1.35 -0.68,2.74 -0.65,4.08 0.04,1.36 0.32,2.68 0.82,3.85 1.17,2.73 3.48,4.65 6.62,4.53 1.29,-0.05 2.29,-1.13 2.24,-2.42 -0.05,-1.28 -1.13,-2.28 -2.41,-2.23 -0.98,0.03 -1.74,-0.68 -2.18,-1.69 -0.26,-0.63 -0.42,-1.37 -0.44,-2.15 -0.02,-0.8 0.1,-1.63 0.37,-2.4 0.72,-2.04 2.59,-3.83 5.91,-4.14 0.11,-0.01 0.23,-0.01 0.34,-0.01l0.1 -0c1.72,0.03 3.32,1.19 4.56,2.93 1.43,1.99 2.38,4.67 2.64,7.39 0.04,0.52 0.07,1.07 0.06,1.65 -0.07,4.69 -2.8,7.56 -6.41,8.78 -2.19,0.72 -4.69,0.88 -7.18,0.5 -2.5,-0.38 -4.93,-1.3 -6.96,-2.73 -3.89,-2.74 -6.29,-7.44 -4.63,-13.9zm60.32 18.82c-1.03,0.54 -1.42,1.81 -0.88,2.83 0.54,1.02 1.81,1.42 2.83,0.88 7.19,-3.77 9.45,-9.87 8.74,-15.74 -0.36,-2.89 -1.45,-5.71 -3.06,-8.13 -1.6,-2.42 -3.73,-4.48 -6.13,-5.83 -4.48,-2.52 -9.83,-2.66 -14.59,1.51 -0.47,0.41 -0.94,0.87 -1.39,1.37 -2.17,2.36 -3.75,5.32 -4.37,8.18 -0.68,3.14 -0.24,6.21 1.75,8.48 0.03,0.03 0.06,0.07 0.09,0.1 0.16,0.18 0.33,0.35 0.51,0.52 3.65,3.35 7.63,3.55 10.79,2.23 1.19,-0.49 2.25,-1.2 3.13,-2.03 0.89,-0.84 1.6,-1.83 2.08,-2.88 1.12,-2.44 1.01,-5.14 -0.98,-7.18 -0.81,-0.83 -2.14,-0.85 -2.97,-0.03 -0.83,0.81 -0.85,2.14 -0.04,2.97 0.62,0.63 0.6,1.58 0.18,2.48 -0.26,0.56 -0.66,1.11 -1.18,1.6 -0.52,0.5 -1.15,0.92 -1.83,1.2 -1.8,0.75 -4.13,0.59 -6.35,-1.45 -0.07,-0.07 -0.14,-0.14 -0.22,-0.22l-0.06 -0.07c-1.02,-1.17 -1.21,-2.93 -0.81,-4.82 0.47,-2.16 1.68,-4.42 3.35,-6.24 0.32,-0.35 0.68,-0.7 1.07,-1.04 3.18,-2.79 6.77,-2.7 9.76,-1.01 1.81,1.02 3.43,2.6 4.68,4.5 1.26,1.9 2.12,4.09 2.39,6.32 0.52,4.26 -1.17,8.72 -6.51,11.52zm-23.86 -46.04c-1.03,0.54 -1.42,1.81 -0.88,2.83 0.54,1.02 1.81,1.42 2.83,0.88 7.19,-3.77 9.45,-9.87 8.74,-15.74 -0.36,-2.89 -1.45,-5.71 -3.06,-8.13 -1.6,-2.42 -3.73,-4.48 -6.13,-5.83 -4.48,-2.52 -9.83,-2.66 -14.59,1.51 -0.47,0.41 -0.94,0.87 -1.39,1.37 -2.17,2.36 -3.75,5.32 -4.37,8.18 -0.68,3.14 -0.24,6.21 1.75,8.48 0.03,0.03 0.06,0.07 0.09,0.1 0.16,0.18 0.33,0.35 0.51,0.52 3.65,3.35 7.63,3.55 10.79,2.23 1.19,-0.49 2.25,-1.2 3.13,-2.03 0.89,-0.84 1.6,-1.83 2.08,-2.88 1.12,-2.44 1.01,-5.14 -0.98,-7.18 -0.81,-0.83 -2.14,-0.85 -2.97,-0.03 -0.83,0.81 -0.85,2.14 -0.04,2.97 0.62,0.63 0.6,1.58 0.18,2.48 -0.26,0.56 -0.66,1.11 -1.18,1.6 -0.52,0.5 -1.15,0.92 -1.83,1.2 -1.8,0.75 -4.13,0.59 -6.35,-1.45 -0.07,-0.07 -0.14,-0.14 -0.22,-0.22l-0.06 -0.07c-1.02,-1.17 -1.21,-2.93 -0.81,-4.82 0.47,-2.16 1.68,-4.42 3.35,-6.24 0.32,-0.35 0.68,-0.7 1.07,-1.04 3.18,-2.79 6.77,-2.7 9.76,-1.01 1.81,1.02 3.43,2.6 4.68,4.5 1.26,1.9 2.12,4.09 2.39,6.32 0.52,4.26 -1.17,8.72 -6.51,11.52zm74.42 -2.01c0.41,-1.27 -0.29,-2.64 -1.56,-3.05 -1.27,-0.41 -2.64,0.29 -3.05,1.56 -1.24,3.82 -0.37,8.07 1.82,11.58 1.35,2.15 3.2,4.04 5.38,5.38 2.24,1.38 4.82,2.21 7.54,2.17 3.78,-0.05 7.78,-1.71 11.44,-5.76 4.11,-4.55 4.54,-8.82 3.02,-12.22 -0.99,-2.21 -2.8,-3.98 -4.96,-5.17 -2.07,-1.15 -4.5,-1.78 -6.82,-1.78 -4.02,0 -7.73,1.83 -9.1,6.06 -1.33,4.13 -0.56,7.07 1.19,8.98 0.05,0.05 0.09,0.1 0.15,0.15 0.84,0.86 1.86,1.48 2.97,1.85 1.09,0.37 2.27,0.52 3.41,0.46 2.99,-0.13 5.94,-1.67 7,-4.14 0.52,-1.23 -0.05,-2.65 -1.28,-3.18 -1.23,-0.52 -2.65,0.05 -3.18,1.28 -0.29,0.69 -1.47,1.14 -2.75,1.19 -0.58,0.02 -1.15,-0.04 -1.66,-0.21 -0.39,-0.13 -0.75,-0.33 -1.02,-0.6l-0.06 -0.07c-0.66,-0.72 -0.87,-2.06 -0.16,-4.24 0.6,-1.88 2.45,-2.69 4.48,-2.69 1.51,-0 3.11,0.42 4.49,1.18 1.29,0.71 2.35,1.71 2.88,2.9 0.78,1.76 0.39,4.15 -2.19,7 -2.64,2.93 -5.38,4.13 -7.89,4.16 -1.77,0.02 -3.46,-0.52 -4.94,-1.44 -1.54,-0.95 -2.86,-2.3 -3.82,-3.83 -1.48,-2.36 -2.1,-5.14 -1.32,-7.52zm-65.85 66.53c0.41,-1.27 -0.29,-2.64 -1.56,-3.05 -1.27,-0.41 -2.64,0.29 -3.05,1.56 -1.24,3.82 -0.37,8.07 1.82,11.58 1.35,2.15 3.2,4.04 5.38,5.38 2.24,1.38 4.82,2.21 7.54,2.17 3.78,-0.05 7.78,-1.71 11.44,-5.76 4.11,-4.55 4.54,-8.82 3.02,-12.22 -0.99,-2.21 -2.8,-3.98 -4.96,-5.17 -2.07,-1.15 -4.5,-1.78 -6.82,-1.78 -4.02,0 -7.73,1.83 -9.1,6.06 -1.33,4.13 -0.56,7.07 1.19,8.98 0.05,0.05 0.09,0.1 0.15,0.15 0.84,0.86 1.86,1.48 2.97,1.85 1.09,0.37 2.27,0.52 3.41,0.46 2.99,-0.13 5.94,-1.67 7,-4.14 0.52,-1.23 -0.05,-2.65 -1.28,-3.18 -1.23,-0.52 -2.65,0.05 -3.18,1.28 -0.29,0.69 -1.47,1.14 -2.75,1.19 -0.58,0.02 -1.15,-0.04 -1.66,-0.21 -0.39,-0.13 -0.75,-0.33 -1.02,-0.6l-0.06 -0.07c-0.66,-0.72 -0.87,-2.06 -0.16,-4.24 0.6,-1.88 2.45,-2.69 4.48,-2.69 1.51,-0 3.11,0.42 4.49,1.18 1.29,0.71 2.35,1.71 2.88,2.9 0.78,1.76 0.39,4.15 -2.19,7 -2.64,2.93 -5.38,4.13 -7.89,4.16 -1.77,0.02 -3.46,-0.52 -4.94,-1.44 -1.54,-0.95 -2.86,-2.3 -3.82,-3.83 -1.48,-2.36 -2.1,-5.14 -1.32,-7.52zm69.7 59.96c0.38,1.28 1.72,2.01 3,1.63 1.28,-0.38 2.01,-1.72 1.64,-3 -1.13,-3.85 -4.24,-6.86 -8.03,-8.52 -2.32,-1.01 -4.92,-1.52 -7.47,-1.41 -2.63,0.12 -5.21,0.9 -7.44,2.46 -3.09,2.17 -5.45,5.79 -6.18,11.2 -0.82,6.07 1.23,9.82 4.4,11.78 2.06,1.27 4.55,1.7 7,1.47 2.35,-0.23 4.72,-1.07 6.63,-2.38 3.31,-2.27 5.34,-5.87 4.08,-10.12 -1.23,-4.16 -3.52,-6.14 -6.04,-6.73 -0.07,-0.02 -0.13,-0.03 -0.2,-0.04 -1.18,-0.24 -2.37,-0.16 -3.49,0.15 -1.11,0.31 -2.16,0.85 -3.07,1.54 -2.39,1.8 -3.96,4.73 -3.44,7.36 0.26,1.31 1.53,2.16 2.84,1.9 1.31,-0.26 2.16,-1.53 1.9,-2.84 -0.15,-0.74 0.57,-1.77 1.59,-2.54 0.46,-0.35 0.97,-0.62 1.49,-0.76 0.4,-0.11 0.8,-0.15 1.17,-0.08l0.09 0.02c0.94,0.22 1.88,1.21 2.52,3.41 0.56,1.89 -0.5,3.6 -2.18,4.75 -1.24,0.85 -2.8,1.41 -4.37,1.56 -1.47,0.14 -2.9,-0.08 -4.01,-0.77 -1.64,-1.01 -2.66,-3.2 -2.14,-7.01 0.53,-3.9 2.11,-6.44 4.16,-7.88 1.45,-1.02 3.15,-1.52 4.88,-1.6 1.81,-0.08 3.65,0.28 5.31,1.01 2.55,1.12 4.62,3.05 5.33,5.45zm-39.31 -23.52c0.38,1.28 1.72,2.01 3,1.63 1.28,-0.38 2.01,-1.72 1.64,-3 -1.13,-3.85 -4.24,-6.86 -8.03,-8.52 -2.32,-1.01 -4.92,-1.52 -7.47,-1.41 -2.63,0.12 -5.21,0.9 -7.44,2.46 -3.09,2.17 -5.45,5.79 -6.18,11.2 -0.82,6.07 1.23,9.82 4.4,11.78 2.06,1.27 4.55,1.7 7,1.47 2.35,-0.23 4.72,-1.07 6.63,-2.38 3.31,-2.27 5.34,-5.87 4.08,-10.12 -1.23,-4.16 -3.52,-6.14 -6.04,-6.73 -0.07,-0.02 -0.13,-0.03 -0.2,-0.04 -1.18,-0.24 -2.37,-0.16 -3.49,0.15 -1.11,0.31 -2.16,0.85 -3.07,1.54 -2.39,1.8 -3.96,4.73 -3.44,7.36 0.26,1.31 1.53,2.16 2.84,1.9 1.31,-0.26 2.16,-1.53 1.9,-2.84 -0.15,-0.74 0.57,-1.77 1.59,-2.54 0.46,-0.35 0.97,-0.62 1.49,-0.76 0.4,-0.11 0.8,-0.15 1.17,-0.08l0.09 0.02c0.94,0.22 1.88,1.21 2.52,3.41 0.56,1.89 -0.5,3.6 -2.18,4.75 -1.24,0.85 -2.8,1.41 -4.37,1.56 -1.47,0.14 -2.9,-0.08 -4.01,-0.77 -1.64,-1.01 -2.66,-3.2 -2.14,-7.01 0.53,-3.9 2.11,-6.44 4.16,-7.88 1.45,-1.02 3.15,-1.52 4.88,-1.6 1.81,-0.08 3.65,0.28 5.31,1.01 2.55,1.12 4.62,3.05 5.33,5.45zm39.59 -72.48c1.15,0.68 2.63,0.3 3.31,-0.85 0.68,-1.15 0.3,-2.63 -0.85,-3.31 -3.45,-2.05 -7.78,-2.14 -11.68,-0.77 -2.39,0.84 -4.64,2.23 -6.43,4.06 -1.84,1.88 -3.21,4.21 -3.77,6.87 -0.79,3.69 -0.04,7.95 3.1,12.41 3.53,5 7.59,6.36 11.24,5.63 2.37,-0.47 4.49,-1.85 6.13,-3.7 1.57,-1.77 2.73,-4 3.24,-6.26 0.88,-3.92 -0.08,-7.93 -3.9,-10.19 -3.73,-2.21 -6.76,-2.1 -9.01,-0.82 -0.06,0.03 -0.12,0.07 -0.17,0.11 -1.03,0.63 -1.84,1.49 -2.45,2.49 -0.6,0.98 -1,2.1 -1.2,3.22 -0.53,2.94 0.32,6.15 2.49,7.73 1.08,0.78 2.6,0.54 3.38,-0.54 0.78,-1.08 0.54,-2.6 -0.54,-3.38 -0.61,-0.44 -0.78,-1.68 -0.56,-2.94 0.1,-0.57 0.29,-1.11 0.57,-1.57 0.22,-0.36 0.49,-0.66 0.8,-0.86l0.08 -0.04c0.84,-0.48 2.2,-0.39 4.17,0.78 1.7,1 2.09,2.98 1.64,4.96 -0.33,1.47 -1.1,2.94 -2.14,4.11 -0.98,1.1 -2.18,1.91 -3.46,2.17 -1.88,0.38 -4.13,-0.54 -6.34,-3.67 -2.27,-3.22 -2.84,-6.15 -2.32,-8.6 0.37,-1.73 1.27,-3.26 2.49,-4.5 1.27,-1.29 2.87,-2.28 4.58,-2.88 2.63,-0.92 5.46,-0.91 7.62,0.37z"/>
     <polygon id="_208911728" class="fil1" points="293.03,415.8 367.82,432.96 295.05,431.94 "/>
     <polygon id="_208914848" class="fil1" points="585.2,238.61 605.55,254.27 613.42,274.89 613.1,248.49 593.6,228.19 "/>
     <path id="_208914944" class="fil1" d="M602.5 213.34l23.81 19.45 -16.77 -27.33c0,0 -7.21,7.71 -7.04,7.88z"/>
    </g>
   </g>
   <path class="fil6" d="M471.9 476.1l26.17 25.75c8.73,8.51 -2.01,18 -11.04,9.14l-24.76 -22.79c0,0 -3.71,-2.03 -6.91,1.01 -3.2,3.04 -34.19,36.64 -34.19,36.64 0,0 -2.86,3.21 -0.51,6.25 2.33,3.01 49.49,51.94 124.27,6.55 6.26,-3.8 6.64,-9.76 1.5,-14.78l-47.98 -46.83 -26.03 -25.62c-8.73,-8.51 2.01,-18 11.04,-9.14l24.76 22.79c0,0 3.71,2.03 6.91,-1.01 3.2,-3.04 34.19,-36.64 34.19,-36.64 0,0 2.87,-3.21 0.51,-6.25 -2.33,-3.01 -49.49,-51.94 -124.27,-6.55 -6.26,3.8 -6.64,9.76 -1.5,14.78l47.85 46.7z"/>
  </g>
 </g>
</svg>
