<?xml version="1.0" encoding="UTF-8"?>
<!DOCTYPE svg PUBLIC "-//W3C//DTD SVG 1.1//EN" "http://www.w3.org/Graphics/SVG/1.1/DTD/svg11.dtd">
<!-- Creator: CorelDRAW 2020 (64-Bit) -->
<svg xmlns="http://www.w3.org/2000/svg" xml:space="preserve" width="161.909mm" height="176.792mm" version="1.1" style="shape-rendering:geometricPrecision; text-rendering:geometricPrecision; image-rendering:optimizeQuality; fill-rule:evenodd; clip-rule:evenodd"
viewBox="0 0 818.7 893.96"
 xmlns:xlink="http://www.w3.org/1999/xlink"
 xmlns:xodm="http://www.corel.com/coreldraw/odm/2003">
 <defs>
  <style type="text/css">
   <![CDATA[
    .fil0 {fill:none}
    .fil1 {fill:#501D33}
    .fil12 {fill:#525B75}
    .fil11 {fill:#65798E}
    .fil8 {fill:#86555D}
    .fil9 {fill:#A57E72}
    .fil4 {fill:#D77D75}
    .fil6 {fill:#E67C40}
    .fil5 {fill:#FCB249}
    .fil7 {fill:#FFCE78}
    .fil2 {fill:#FFCFA5}
    .fil3 {fill:white}
    .fil10 {fill:#501D33;fill-rule:nonzero}
   ]]>
  </style>
 </defs>
 <g id="Слой_x0020_1">
  <metadata id="CorelCorpID_0Corel-Layer"/>
  <g id="_577234144">
   <g>
    <g id="_167412432">
     <rect id="_119805880" class="fil0" width="818.7" height="893.96"/>
     <path id="_119805808" class="fil1" d="M186.28 389.13l24.28 -4.13 -1.05 -4.73 -24.13 2.09c0,0 -0.89,3.29 0.91,6.78zm-89.97 65.78c0.37,1.48 -0.53,2.98 -2.01,3.35 -1.48,0.37 -2.98,-0.53 -3.35,-2.01 -0.37,-1.48 0.53,-2.98 2.01,-3.35 1.48,-0.37 2.98,0.53 3.35,2zm-17.25 -81.32l-24.28 -4.14 1.05 -4.73 24.13 2.09c0,0 0.89,3.29 -0.91,6.78zm-8.06 39.21l-16.43 1.1 -0.05 -3.24 16.02 -2.41c0,0 1.09,2 0.47,4.55zm4.54 42.29l-18.63 5.58 -0.91 -3.72 17.81 -6.98c0,0 1.79,2.02 1.73,5.11zm5.21 -52.64l-27.61 -2.79 0.82 -5.4 27.29 0.5c0,0 1.26,3.63 -0.5,7.69zm103.84 15.54l27.61 -2.79 -0.82 -5.4 -27.29 0.5c0,0 -1.26,3.63 0.5,7.69zm6.53 12.38l19.45 0.47 -0.1 -3.83 -19.02 -2.04c0,0 -1.19,2.42 -0.32,5.39z"/>
     <path id="_119543888" class="fil1" d="M223.65 92.73c-84.43,37.88 -153.63,184.32 -159.8,261.46 -7.07,88.37 -5.97,142.15 45.57,250.1 0,0 11.21,23.02 49.51,13.7 17.27,1.46 34.4,-4.55 42.6,-16.31 0.2,-0.29 21.55,-3.33 31.82,-13.34 4.66,-4.54 7.62,-8.57 5.95,-16.82 -2.19,-10.81 -5.43,-24.04 -5.43,-24.04 0,0 19.05,-18.99 15.93,-27.07 -3.12,-8.08 -42.08,-41.84 -42.14,-42.16 -26.73,-122.57 -0.52,-227.14 69.51,-311.59l56.26 -74.5c-28.26,-8.35 -79.82,-12.87 -109.8,0.58l-0 0z"/>
     <path id="_119543816" class="fil2" d="M232.15 207.84l82.24 -113.79c-56.01,-2.47 -88.2,-0.04 -128.97,41.77 -57.98,59.47 -99.67,149.17 -110.05,232.2 -10.44,83.58 5.51,156.86 44.19,232.63 0,0 4.7,13.83 34.29,10.41 0,0 -8.61,-15.23 -8.02,-16.54 0.58,-1.32 15,15.3 15,15.3 0,0 18.21,0.07 33.08,-12.76 0,0 0.06,-20.57 1.35,-20.52 1.29,0.05 5.43,15.23 5.43,15.23l19.44 -5.13c8.88,-4.18 11.66,-4.84 9.25,-15.84 -1.84,-8.4 -4.92,-22.58 -11.69,-46.38 1.87,-2.2 6.39,8.13 9.7,13.81 0,0 10.65,-11.75 10.19,-15.76 -0.45,-4.01 -37.73,-32.99 -37.73,-32.99 -30.13,-94.52 -9.75,-207.43 32.31,-281.63l0 -0z"/>
     <path id="_119543744" class="fil3" d="M215.21 119.84c-10.87,6.3 -21.69,14.96 -33.2,26.76 -57.98,59.47 -96.26,138.38 -106.64,221.41 -10.44,83.58 5.51,156.86 44.19,232.63 0,0 0.4,1.17 1.69,2.74 8.55,-1.19 17.2,-3.13 25.68,-5.54 -0.78,-1.71 -1.25,-2.99 -1.1,-3.34 0.17,-0.39 1.56,0.8 3.43,2.66 16.49,-4.86 32.24,-11.4 45.25,-17.53 0.19,-1.88 0.43,-3.13 0.75,-3.12 0.29,0.01 0.68,0.89 1.1,2.24 17.14,-8.18 29.12,-15.42 31.1,-16.63l-0.02 -0.08c-37.9,13.02 -101.89,19.54 -101.89,19.54 -86.33,-177.61 -29.89,-356.21 89.66,-461.76l0 -0 0 -0 0 0z"/>
     <path id="_119544464" class="fil4" d="M232.15 207.84l2.05 -2.84c-0.54,-0.3 -1.08,-0.64 -1.62,-0.91 0,0 -144.91,164.37 -5.49,378.95 3.2,-2.24 3.87,-4.99 2.28,-12.26 -1.84,-8.4 -4.92,-22.58 -11.69,-46.38 1.87,-2.2 6.39,8.13 9.7,13.81 0,0 10.65,-11.75 10.19,-15.76 -0.45,-4.01 -37.73,-32.99 -37.73,-32.99 -30.13,-94.52 -9.75,-207.43 32.31,-281.63l0 -0z"/>
     <path id="_119543312" class="fil1" d="M97.41 314.02c-37.75,-4.26 -47.49,37.37 -14.18,51.3l14.18 -51.3z"/>
     <path id="_119543600" class="fil2" d="M83.24 365.54c-12.31,-19.19 -12.63,-40.39 14.17,-51.82 0,0 7.62,37.63 -14.17,51.82z"/>
     <path id="_119543528" class="fil3" d="M84.52 367.12c-14.91,-19 -15.08,-42.46 13.86,-53.96 -11.5,7.69 -20.99,32.08 -13.35,52.39l-0.51 1.57z"/>
     <path id="_119543456" class="fil3" d="M95.91 321.12c3.29,2.05 3.26,8.06 -0.08,13.43 -3.34,5.37 -8.71,8.06 -12.01,6.01 -3.29,-2.05 -3.26,-8.06 0.08,-13.43 3.34,-5.36 8.71,-8.06 12.01,-6.01z"/>
     <path id="_119543096" class="fil2" d="M230.58 522.63c0,0 -6.11,-12.65 -21.74,-20.6 -15.63,-7.96 10.8,20.89 21.74,20.6z"/>
     <path id="_119543024" class="fil4" d="M117.88 597.34c0.55,1.1 1.11,2.21 1.67,3.31 0,0 4.7,13.83 34.29,10.41 0,0 -8.61,-15.23 -8.02,-16.54 0.58,-1.32 15,15.3 15,15.3 0,0 18.21,0.06 33.08,-12.77 0,0 0.06,-20.57 1.35,-20.53 1.29,0.05 4.43,16.8 4.43,16.8 10.03,-1.33 21.54,-4.99 28.3,-10.98 2.42,-2.14 2.82,-5.03 1.38,-11.57 -0.61,-2.8 -1.37,-6.25 -2.35,-10.48 -56.14,25.22 -92.02,34 -109.14,37.03z"/>
     <path id="_88446128" class="fil4" d="M120.99 332.5c0,0 0,18.79 -25.34,29.04 0,0 16.8,-0.57 23.91,-7.4 7.12,-6.83 1.42,-21.64 1.42,-21.64z"/>
     <path id="_119541680" class="fil1" d="M257.43 461.82c-14.84,-91 -23.79,-244.39 -32.84,-315.36 16.05,-66.07 142.26,-45.81 185.26,-36.87 43,-8.94 169.21,-29.2 185.26,36.87 -9.05,70.97 -18.29,224.08 -33.13,315.07 -80.75,30.71 -223.79,30.99 -304.55,0.28l0 0 0 -0z"/>
     <path id="_119542880" class="fil1" d="M635.56 394.54l-24.28 -4.13 1.05 -4.73 24.13 2.09c0,0 0.89,3.29 -0.91,6.78zm89.97 65.78c-0.37,1.48 0.53,2.98 2.01,3.35 1.48,0.37 2.98,-0.53 3.35,-2.01 0.37,-1.48 -0.53,-2.98 -2.01,-3.35 -1.48,-0.37 -2.98,0.53 -3.35,2zm17.25 -81.32l24.28 -4.14 -1.05 -4.73 -24.13 2.09c0,0 -0.89,3.29 0.91,6.78zm8.06 39.21l16.43 1.1 0.05 -3.24 -16.02 -2.41c0,0 -1.09,2 -0.47,4.55zm-4.54 42.29l18.63 5.58 0.91 -3.72 -17.81 -6.98c0,0 -1.79,2.02 -1.73,5.11zm-5.21 -52.64l27.61 -2.79 -0.82 -5.4 -27.29 0.5c0,0 -1.26,3.63 0.5,7.69zm-103.84 15.54l-27.61 -2.79 0.82 -5.4 27.29 0.5c0,0 1.26,3.63 -0.5,7.69zm-6.53 12.38l-19.45 0.47 0.1 -3.83 19.02 -2.04c0,0 1.19,2.42 0.32,5.39z"/>
     <path id="_119542808" class="fil1" d="M596.2 92.45c84.43,37.88 153.63,184.32 159.8,261.46 7.07,88.37 5.12,143 -46.43,250.96 0,0 -11.64,21.74 -49.94,12.42 -17.84,1.68 -33.69,-5.33 -41.89,-16.03 -0.21,-0.28 -20.98,-3.19 -31.25,-13.19 -4.66,-4.54 -7.62,-8.57 -5.95,-16.82 2.19,-10.81 5.43,-24.04 5.43,-24.04 0,0 -19.05,-18.99 -15.93,-27.07 3.12,-8.08 42.08,-41.84 42.14,-42.16 26.73,-122.57 0.52,-227.14 -69.51,-311.59l-56.26 -74.5c28.26,-8.35 79.82,-12.87 109.8,0.58l0 0z"/>
     <path id="_119542736" class="fil2" d="M587.71 207.56l-82.24 -113.79c56.01,-2.47 88.2,-0.04 128.97,41.77 57.98,59.47 99.67,149.17 110.05,232.2 10.44,83.58 -5.51,156.86 -44.19,232.63 0,0 -4.7,13.83 -34.29,10.41 0,0 8.61,-15.23 8.02,-16.54 -0.58,-1.32 -15,15.3 -15,15.3 0,0 -18.21,0.07 -33.08,-12.76 0,0 -0.06,-20.57 -1.35,-20.52 -1.29,0.05 -5.43,15.23 -5.43,15.23l-19.44 -5.13c-8.88,-4.18 -11.66,-4.84 -9.25,-15.84 1.84,-8.4 4.92,-22.58 11.69,-46.38 -1.87,-2.2 -6.39,8.13 -9.7,13.81 0,0 -10.65,-11.75 -10.19,-15.76 0.45,-4.01 37.73,-32.99 37.73,-32.99 30.13,-94.52 9.75,-207.43 -32.31,-281.63l0 -0z"/>
     <path id="_119543168" class="fil4" d="M587.71 207.56l-2.05 -2.84c0.54,-0.3 1.08,-0.64 1.62,-0.91 0,0 144.91,164.37 5.49,378.95 -3.2,-2.24 -3.87,-4.99 -2.28,-12.26 1.84,-8.4 4.92,-22.58 11.69,-46.38 -1.87,-2.2 -6.39,8.13 -9.7,13.81 0,0 -10.65,-11.75 -10.19,-15.76 0.45,-4.01 37.73,-32.99 37.73,-32.99 30.13,-94.52 9.75,-207.43 -32.31,-281.63l0 -0z"/>
     <path id="_119542664" class="fil5" d="M622.62 301.4c-7.63,-30.59 -19.89,-63.25 -38.85,-96.69l-82.24 -113.79c56.01,-2.47 88.2,-0.04 128.97,41.77 36.33,37.26 66.27,86.41 86.12,138.34 -32.56,7.64 -68.28,20.38 -94,30.38z"/>
     <path id="_119542592" class="fil6" d="M622.62 301.4c-7.63,-30.59 -19.89,-63.25 -38.85,-96.69l-1.71 -2.37c27.92,28.51 46.39,60.04 57.79,92.54 -6.1,2.25 -11.88,4.44 -17.23,6.52z"/>
     <path id="_119542520" class="fil5" d="M268.5 456.67c-14.7,-96.19 -25.52,-203.84 -31.64,-299.7 12.54,-51.62 92.68,-77.69 172.88,-77.83l0 -0 0.11 0 0.11 -0 0 0c80.2,0.14 160.34,26.21 172.88,77.83 -6.12,95.86 -16.93,203.51 -31.64,299.7 -78.25,24.68 -204.44,24.68 -282.7,0l0 -0 0 0z"/>
     <polygon id="_119541704" class="fil7" points="343.08,395.02 275.27,363.99 478.43,391.62 "/>
     <path id="_119541992" class="fil6" d="M364.99 248.98l0 93.38 11.39 11.67 32.74 4.27 31.6 -3.13c0,0 10.82,-1.99 12.24,-11.39l0 -96.51c0,0 -82.56,-1.42 -87.97,1.71z"/>
     <polygon id="_121124376" class="fil7" points="461.9,320.39 527.44,324.37 556.5,301.01 "/>
     <path id="_119542376" class="fil6" d="M268.5 456.67c-11.89,-77.81 -21.24,-163.11 -27.62,-243.6 0.77,-3.61 1.47,-5.72 2.05,-5.94l35.9 242.2c1.72,-4.09 101.62,32.83 260.28,-1.6l40.47 -247.85c0,0 -0.01,5.64 -0.55,10.39 -6.38,81.32 -15.81,167.7 -27.84,246.41 -78.25,24.68 -204.45,24.68 -282.7,0l-0 0 -0 0z"/>
     <polygon id="_119542304" class="fil6" points="255.51,307.83 531.42,386.49 261.78,355.71 "/>
     <path id="_119542232" class="fil1" d="M555.51 434.9c0,0 -25.12,14.52 -45.95,18.79 0,0 19.41,-0.57 48.52,-8.26l3.71 -7.97 -6.28 -2.56z"/>
     <path id="_119544176" class="fil1" d="M265.46 437.46c0,0 25.12,14.52 45.95,18.79 0,0 -19.41,-0.57 -48.52,-8.26l-3.71 -7.97 6.28 -2.56z"/>
     <path id="_119681384" class="fil4" d="M187.25 337.18c1.7,-12.05 4.08,-24.57 7.29,-37.47 -22.89,-8.47 -59.17,-20.38 -96.07,-26.43 -5.02,13.51 -9.21,27.19 -12.79,40.88 40.51,-0 80.32,15.98 101.57,23.02z"/>
     <path id="_122988168" class="fil5" d="M197.24 301.69c7.63,-30.59 19.89,-63.25 38.85,-96.69l82.24 -113.79c-56.01,-2.47 -88.2,-0.04 -128.97,41.77 -36.33,37.26 -66.27,86.41 -86.12,138.34 32.56,7.64 68.28,20.38 94,30.38z"/>
     <path id="_119682560" class="fil7" d="M117.96 263.77c19.33,-47.72 49.65,-98.6 93.53,-150.32 -46.21,29.43 -80.16,85.15 -103.04,136.87 2.47,8.16 8.94,14.21 8.94,14.21 0.18,-0.26 0.37,-0.51 0.57,-0.76z"/>
     <path id="_119544032" class="fil6" d="M197.58 300.32c1.77,-7 3.79,-14.11 6.08,-21.31 -17.19,-13.6 -51.03,-32.98 -90.45,-39.08 -4.86,10.29 -9.34,20.77 -13.39,31.37 31.81,7.46 70.04,19.8 95.61,29.68 0.72,-0.22 1.43,-0.44 2.14,-0.67z"/>
     <path id="_119680376" class="fil6" d="M197.24 301.69c7.63,-30.59 19.89,-63.25 38.85,-96.69l1.71 -2.37c-27.92,28.51 -46.39,60.04 -57.79,92.54 6.1,2.25 11.88,4.44 17.23,6.52z"/>
     <path id="_123967888" class="fil1" d="M201.68 339.34c0,0 -57.36,-36.6 -129.14,-36.66 0,0 -1.08,-30.69 18.23,-55.34 0,0 66.1,3.3 123.24,55.65 0,0 -3.67,18.27 -12.33,36.35z"/>
     <path id="_123967816" class="fil5" d="M194.64 325.51c-0.95,-0.52 -1.9,-1.02 -2.84,-1.52 -8.61,-4.55 -17.51,-8.57 -26.52,-12.11 -25.66,-10.08 -53.03,-16.46 -80.44,-17.5 0.32,-2.92 0.81,-5.84 1.32,-8.37 2.03,-9.9 5.75,-19.4 11.37,-27.57 2.18,0.25 4.37,0.58 6.46,0.92 8.83,1.43 17.62,3.58 26.18,6.27 25.86,8.12 50.24,21.41 71.11,39.63 -1.65,6.69 -4.02,13.78 -6.65,20.26z"/>
     <path id="_123967744" class="fil7" d="M85.47 294.4l-0.63 -0.03c0.32,-2.92 0.81,-5.84 1.32,-8.37 2.03,-9.9 5.75,-19.4 11.37,-27.57 2.18,0.25 4.37,0.58 6.46,0.92 8.83,1.43 17.62,3.58 26.18,6.27 22.71,7.13 44.28,18.25 63.33,33.2 -0.47,0.66 -0.96,1.32 -1.51,1.98 0,0 -48.06,-29.89 -88.64,-31.03 0,0 -9.41,8.89 -17.89,24.64z"/>
     <path id="_123967672" class="fil6" d="M194.64 325.51c-0.95,-0.52 -1.9,-1.02 -2.84,-1.52 -8.61,-4.55 -17.51,-8.57 -26.52,-12.11 -1.26,-0.49 -2.52,-0.98 -3.78,-1.45 5.1,-9.63 8.71,-19.26 10.94,-26.01 10.17,6.01 19.84,12.96 28.86,20.84 -1.65,6.69 -4.01,13.78 -6.65,20.26z"/>
     <path id="_123967600" class="fil1" d="M205.92 313.84c0,0 -26.85,-18.18 -58.24,-22.45 0,0 23.49,7.96 55.8,33.02l2.44 -10.58z"/>
     <path id="_120416080" class="fil6" d="M351.19 251.71c-12.28,-0.44 -24.57,-0.97 -36.82,-1.98 -9.26,-0.76 -20.76,-1.5 -29.25,-5.47 -12.44,-5.81 -19.4,-21.33 -24.71,-33.52 -6.05,-13.88 -11.24,-28.13 -16.27,-42.42 -7.18,-20.41 -13.96,-40.98 -20.33,-61.67l-1.1 -3.58c17.11,-8.63 74.55,-31.22 205.53,-30.3 93.2,0.66 142.22,15.89 167.03,28.68l-1.84 5.97c-6.3,20.44 -13,40.75 -20.1,60.91 -5.03,14.3 -10.23,28.54 -16.27,42.42 -5.31,12.18 -12.27,27.71 -24.71,33.51 -8.49,3.97 -19.99,4.71 -29.25,5.47 -12.26,1.01 -24.54,1.54 -36.83,1.98 -38.37,1.36 -76.7,1.36 -115.07,0z"/>
     <path id="_119804728" class="fil1" d="M385.84 217.63l46.27 0c9.63,0 17.5,7.88 17.5,17.5l0 99.27c0,9.63 -7.88,17.5 -17.5,17.5l-46.27 0c-9.63,0 -17.5,-7.88 -17.5,-17.5l0 -99.27c0,-9.63 7.88,-17.5 17.5,-17.5z"/>
     <path id="_119804656" class="fil1" d="M250.03 85.39c27.94,-7.17 168.3,-39.18 318.98,-1.76 3.03,0.98 5.88,1.98 8.58,2.98l-71.53 23.5 -260.47 -23.31c1.42,-0.46 2.9,-0.93 4.44,-1.41l0 0z"/>
     <path id="_122970936" class="fil1" d="M351.19 244.59c-12.28,-0.44 -24.57,-0.97 -36.82,-1.98 -9.26,-0.76 -20.76,-1.5 -29.25,-5.47 -12.44,-5.81 -19.4,-21.33 -24.71,-33.52 -6.05,-13.88 -11.24,-28.13 -16.27,-42.42 -7.18,-20.41 -13.96,-40.98 -20.33,-61.67l-1.1 -3.58c17.11,-8.63 74.55,-31.22 205.53,-30.3 93.2,0.66 142.22,15.89 167.03,28.68l-1.84 5.97c-6.3,20.44 -13,40.75 -20.1,60.91 -5.03,14.3 -10.23,28.54 -16.27,42.42 -5.31,12.18 -12.27,27.71 -24.71,33.51 -8.49,3.97 -19.99,4.71 -29.25,5.47 -12.26,1.01 -24.54,1.54 -36.83,1.98 -38.37,1.36 -76.7,1.36 -115.07,0z"/>
     <path id="_129326824" class="fil8" d="M352.3 237.99c-12.01,-0.43 -24.02,-0.95 -35.99,-1.93 -8.29,-0.68 -19.64,-1.44 -27.14,-4.95 -10.75,-5.02 -17.22,-19.8 -21.85,-30.43 -5.89,-13.53 -10.96,-27.43 -15.87,-41.37 -7.04,-20.01 -13.69,-40.17 -19.93,-60.46 57.2,-19.46 283.9,-26.6 354.16,0.75 -6.18,20.03 -12.75,39.94 -19.7,59.71 -4.91,13.94 -9.97,27.84 -15.87,41.37 -4.63,10.63 -11.1,25.4 -21.85,30.43 -7.5,3.5 -18.85,4.27 -27.14,4.95 -11.98,0.98 -23.99,1.51 -36,1.93 -7.74,0.27 -15.44,0.49 -23.1,0.65l0 95.94c0,5.36 -4.46,9.74 -9.92,9.74l-46.27 0c-5.45,0 -9.92,-4.38 -9.92,-9.74l0 -95.93c-7.84,-0.16 -15.7,-0.38 -23.62,-0.67l-0 0 0 0 0 0z"/>
     <path id="_119804944" class="fil9" d="M315.45 232.36c-8.29,-0.68 -18.79,-0.59 -26.29,-4.09 -10.75,-5.02 -17.22,-19.8 -21.85,-30.43 -5.89,-13.53 -10.96,-24.59 -15.87,-38.53 -7.04,-20.01 -13.69,-40.17 -19.93,-60.46 57.2,-19.46 283.9,-26.6 354.16,0.75 -6.18,20.03 -12.75,39.94 -19.7,59.71 -4.91,13.94 -9.97,27.84 -15.87,41.37 -4.63,10.63 -13.09,21.99 -23.84,27.01 -7.5,3.5 -18.85,4.27 -27.14,4.95 -20.1,1.65 -39.86,1.45 -59.95,1.88l-0.56 96.09c-0.03,5.35 -4.47,9.68 -9.92,9.74l-39.74 0.43c-5.45,0.06 -9.89,-4.38 -9.92,-9.74l-0.42 -96.79c-20.66,-0.43 -42.48,-0.19 -63.17,-1.89l-0 0 0 0 0 0z"/>
     <path id="_119804872" class="fil1" d="M574.01 95.77c-6.12,19.84 -12.66,39.68 -19.54,59.22 -4.78,13.58 -9.78,27.33 -15.53,40.51 -2.93,6.72 -8.92,20.91 -15.73,24.1 -5.45,2.55 -17.02,3.37 -23.06,3.86 -11.77,0.97 -23.64,1.48 -35.44,1.9 -37.86,1.34 -74.13,1.34 -111.99,0 -11.8,-0.42 -23.67,-0.93 -35.44,-1.9 -6.04,-0.5 -17.61,-1.32 -23.06,-3.86 -6.81,-3.18 -12.8,-17.37 -15.73,-24.1 -5.74,-13.18 -10.75,-26.93 -15.53,-40.51 -6.96,-19.79 -13.59,-39.88 -19.77,-59.97 38.98,-8.45 201.68,-39.43 330.83,0.75z"/>
     <path id="_119804800" class="fil2" d="M250.43 93.49c6.7,21.56 36.03,114.15 46.81,119.19 11,5.14 93.88,6.11 110.09,6.25l0 0.02 1.38 -0.01 1.38 0.01 0 -0.02c16.22,-0.14 99.09,-1.11 110.09,-6.25 10.75,-5.02 39.96,-97.18 46.76,-119.03 -121.01,-34.94 -268.5,-9.99 -316.52,-0.16l0 0z"/>
     <path id="_129341680" class="fil4" d="M250.9 93.83c0,0 32.48,100.58 153.3,101.72 120.81,1.14 162.13,-102.58 162.13,-102.58 0,0 -134.86,-41.88 -315.43,0.86l0 0z"/>
     <path id="_119805160" class="fil4" d="M250.43 93.49c6.7,21.56 36.03,114.15 46.81,119.19 11,5.14 93.88,6.11 110.09,6.25l0 0.02 1.38 -0.01 1.38 0.01 0 -0.02c16.22,-0.14 99.09,-1.11 110.09,-6.25 10.75,-5.02 39.96,-97.18 46.76,-119.03 -1.21,-0.35 -2.42,-0.68 -3.63,-1.02 -10.35,32.5 -33.76,103.13 -43.13,107.51 -11,5.14 -93.87,6.11 -110.09,6.25l0 0.02 -1.38 -0.01 -1.38 0.01 0 -0.02c-16.22,-0.14 -99.09,-1.11 -110.09,-6.25 -9.36,-4.37 -32.73,-74.85 -43.1,-107.4 -1.29,0.26 -2.54,0.51 -3.71,0.75z"/>
     <path id="_119805088" class="fil1" d="M408.93 221.23l0.08 0c2.17,0 3.95,1.78 3.95,3.95l0 98.67c0,2.17 -1.78,3.95 -3.95,3.95l-0.08 0c-2.17,0 -3.95,-1.78 -3.95,-3.95l0 -98.67c0,-2.17 1.78,-3.95 3.95,-3.95z"/>
     <path id="_123965536" class="fil10" d="M429.98 268.02c-0.07,-1.51 1.11,-2.8 2.63,-2.86 1.51,-0.07 2.8,1.11 2.86,2.63 0.1,2.27 -0.74,4.38 -2.17,5.94 -1.43,1.56 -3.45,2.57 -5.72,2.67l-0.01 0 0 0c-2.27,0.1 -4.38,-0.74 -5.94,-2.17 -1.56,-1.43 -2.58,-3.46 -2.68,-5.73 -0.26,-6.02 3.44,-7.25 7.15,-8.48 1.74,-0.58 3.49,-1.16 3.4,-3.04l-0 -0.08c-0.06,-0.73 -0.39,-1.38 -0.89,-1.85 -0.52,-0.48 -1.23,-0.75 -2,-0.72l-0.01 0c-0.77,0.03 -1.45,0.37 -1.93,0.89 -0.48,0.52 -0.75,1.23 -0.72,2 0.07,1.51 -1.11,2.8 -2.63,2.86 -1.51,0.07 -2.8,-1.11 -2.86,-2.63 -0.1,-2.27 0.74,-4.38 2.17,-5.94 1.43,-1.56 3.46,-2.58 5.73,-2.68l0 0c2.27,-0.1 4.38,0.74 5.94,2.17 1.52,1.4 2.52,3.36 2.66,5.56 0.01,0.06 0.01,0.11 0.01,0.17 0.26,6.02 -3.44,7.25 -7.15,8.48 -1.74,0.58 -3.49,1.16 -3.4,3.03 0.03,0.77 0.37,1.45 0.89,1.93 0.52,0.48 1.23,0.75 2,0.72l0 0c0.77,-0.04 1.45,-0.38 1.93,-0.9 0.48,-0.52 0.75,-1.23 0.72,-2z"/>
     <path id="_123965464" class="fil10" d="M429.98 310.33c-0.07,-1.51 1.11,-2.8 2.63,-2.86 1.51,-0.07 2.8,1.11 2.86,2.63 0.1,2.27 -0.74,4.38 -2.17,5.94 -1.43,1.56 -3.45,2.57 -5.72,2.67l-0.01 0 0 0c-2.27,0.1 -4.38,-0.74 -5.94,-2.17 -1.56,-1.43 -2.58,-3.46 -2.68,-5.73 -0.26,-6.02 3.44,-7.25 7.15,-8.48 1.74,-0.58 3.49,-1.16 3.4,-3.04l-0 -0.08c-0.06,-0.74 -0.39,-1.39 -0.89,-1.85 -0.52,-0.48 -1.23,-0.75 -2,-0.72l-0.01 0c-0.77,0.03 -1.45,0.37 -1.93,0.89 -0.48,0.52 -0.75,1.23 -0.72,2 0.07,1.51 -1.11,2.8 -2.63,2.86 -1.51,0.07 -2.8,-1.11 -2.86,-2.63 -0.1,-2.27 0.74,-4.38 2.17,-5.94 1.43,-1.56 3.46,-2.58 5.73,-2.68l0 0c2.27,-0.1 4.38,0.74 5.94,2.17 1.52,1.4 2.52,3.36 2.66,5.56 0.01,0.06 0.01,0.11 0.01,0.17 0.26,6.02 -3.44,7.25 -7.15,8.48 -1.74,0.58 -3.49,1.16 -3.4,3.04 0.03,0.77 0.37,1.45 0.89,1.93 0.52,0.48 1.23,0.75 2,0.72l0 0c0.77,-0.04 1.45,-0.38 1.93,-0.9 0.48,-0.52 0.75,-1.23 0.72,-2z"/>
     <path id="_123965392" class="fil1" d="M424.45 239.72c1.25,-1.39 3.39,-1.5 4.78,-0.25 1.39,1.25 1.5,3.39 0.25,4.78 -1.25,1.39 -3.39,1.5 -4.78,0.25 -1.39,-1.25 -1.5,-3.39 -0.25,-4.78z"/>
     <path id="_123965320" class="fil1" d="M424.45 281.09c1.25,-1.39 3.39,-1.5 4.78,-0.25 1.39,1.25 1.5,3.39 0.25,4.78 -1.25,1.39 -3.39,1.5 -4.78,0.25 -1.39,-1.25 -1.5,-3.39 -0.25,-4.78z"/>
     <path id="_123965248" class="fil1" d="M424.45 326.92c1.25,-1.39 3.39,-1.5 4.78,-0.25 1.39,1.25 1.5,3.39 0.25,4.78 -1.25,1.39 -3.39,1.5 -4.78,0.25 -1.39,-1.25 -1.5,-3.39 -0.25,-4.78z"/>
     <path id="_123964768" class="fil10" d="M387.94 268.03c0.07,-1.51 -1.11,-2.8 -2.63,-2.86 -1.51,-0.07 -2.8,1.11 -2.86,2.63 -0.1,2.27 0.74,4.38 2.17,5.94 1.43,1.56 3.45,2.57 5.72,2.67l0.01 0 0 0c2.27,0.1 4.38,-0.74 5.94,-2.17 1.56,-1.43 2.58,-3.46 2.68,-5.73 0.26,-6.02 -3.44,-7.25 -7.15,-8.48 -1.74,-0.58 -3.49,-1.16 -3.4,-3.04l0 -0.08c0.06,-0.73 0.39,-1.38 0.89,-1.85 0.52,-0.48 1.23,-0.75 2,-0.72l0.01 0c0.77,0.03 1.45,0.37 1.93,0.89 0.48,0.52 0.75,1.23 0.72,2 -0.07,1.51 1.11,2.8 2.63,2.86 1.51,0.07 2.8,-1.11 2.86,-2.63 0.1,-2.27 -0.74,-4.38 -2.17,-5.94 -1.43,-1.56 -3.46,-2.58 -5.73,-2.68l-0 0c-2.27,-0.1 -4.38,0.74 -5.94,2.17 -1.52,1.4 -2.52,3.36 -2.66,5.56 -0.01,0.06 -0.01,0.11 -0.01,0.17 -0.26,6.02 3.44,7.25 7.15,8.48 1.74,0.58 3.49,1.16 3.4,3.03 -0.03,0.77 -0.37,1.45 -0.89,1.93 -0.52,0.48 -1.23,0.75 -2,0.72l0 0c-0.77,-0.04 -1.45,-0.38 -1.93,-0.9 -0.48,-0.52 -0.75,-1.23 -0.72,-2z"/>
     <path id="_123964696" class="fil10" d="M387.94 310.34c0.07,-1.51 -1.11,-2.8 -2.63,-2.86 -1.51,-0.07 -2.8,1.11 -2.86,2.63 -0.1,2.27 0.74,4.38 2.17,5.94 1.43,1.56 3.45,2.57 5.72,2.67l0.01 0 0 0c2.27,0.1 4.38,-0.74 5.94,-2.17 1.56,-1.43 2.58,-3.46 2.68,-5.73 0.26,-6.02 -3.44,-7.25 -7.15,-8.48 -1.74,-0.58 -3.49,-1.16 -3.4,-3.04l0 -0.08c0.06,-0.74 0.39,-1.39 0.89,-1.85 0.52,-0.48 1.23,-0.75 2,-0.72l0.01 0c0.77,0.03 1.45,0.37 1.93,0.89 0.48,0.52 0.75,1.23 0.72,2 -0.07,1.51 1.11,2.8 2.63,2.86 1.51,0.07 2.8,-1.11 2.86,-2.63 0.1,-2.27 -0.74,-4.38 -2.17,-5.94 -1.43,-1.56 -3.46,-2.58 -5.73,-2.68l-0 0c-2.27,-0.1 -4.38,0.74 -5.94,2.17 -1.52,1.4 -2.52,3.36 -2.66,5.56 -0.01,0.06 -0.01,0.11 -0.01,0.17 -0.26,6.02 3.44,7.25 7.15,8.48 1.74,0.58 3.49,1.16 3.4,3.04 -0.03,0.77 -0.37,1.45 -0.89,1.93 -0.52,0.48 -1.23,0.75 -2,0.72l0 0c-0.77,-0.04 -1.45,-0.38 -1.93,-0.9 -0.48,-0.52 -0.75,-1.23 -0.72,-2z"/>
     <path id="_123964624" class="fil1" d="M393.46 239.72c-1.25,-1.39 -3.39,-1.5 -4.78,-0.25 -1.39,1.25 -1.5,3.39 -0.25,4.78 1.25,1.39 3.39,1.5 4.78,0.25 1.39,-1.25 1.5,-3.39 0.25,-4.78z"/>
     <path id="_123964552" class="fil1" d="M393.46 281.09c-1.25,-1.39 -3.39,-1.5 -4.78,-0.25 -1.39,1.25 -1.5,3.39 -0.25,4.78 1.25,1.39 3.39,1.5 4.78,0.25 1.39,-1.25 1.5,-3.39 0.25,-4.78z"/>
     <path id="_123964480" class="fil1" d="M393.46 326.92c-1.25,-1.39 -3.39,-1.5 -4.78,-0.25 -1.39,1.25 -1.5,3.39 -0.25,4.78 1.25,1.39 3.39,1.5 4.78,0.25 1.39,-1.25 1.5,-3.39 0.25,-4.78z"/>
     <path id="_129335416" class="fil6" d="M573.27 252.51c0,0 -87.11,49.24 -83.98,50.38 3.13,1.14 80.28,-17.37 80.28,-17.37l3.7 -33.02z"/>
     <path id="_129334696" class="fil1" d="M206.31 285.25c-1.42,0.57 -18.5,-19.36 -60.64,-38.15 0,0 38.43,9.11 65.48,25.34l0.28 7.4 -5.12 5.41z"/>
     <path id="_129333232" class="fil3" d="M715.76 261.86c14.4,34.63 24.35,70.85 28.73,105.88 10.44,83.58 -5.51,156.86 -44.19,232.63 0,0 -0.4,1.17 -1.69,2.74 -8.55,-1.19 -17.2,-3.13 -25.68,-5.54 0.78,-1.71 1.25,-2.99 1.1,-3.34 -0.17,-0.39 -1.56,0.8 -3.43,2.66 -16.49,-4.86 -32.24,-11.4 -45.25,-17.53 -0.19,-1.88 -0.43,-3.13 -0.75,-3.12 -0.29,0.01 -0.68,0.89 -1.1,2.24 -17.14,-8.18 -29.12,-15.42 -31.1,-16.63l0.02 -0.08c37.9,13.02 101.89,19.54 101.89,19.54 53.06,-109.15 50.9,-222.76 13.61,-318.62 -32.73,-84.12 -2.97,-26.86 7.85,-0.84z"/>
     <path id="_129327424" class="fil1" d="M722.44 313.74c37.75,-4.26 47.49,37.37 14.18,51.3l-14.18 -51.3z"/>
     <path id="_129891224" class="fil2" d="M736.61 365.26c12.31,-19.19 12.63,-40.39 -14.17,-51.82 0,0 -7.62,37.63 14.17,51.82z"/>
     <path id="_129886616" class="fil3" d="M735.34 366.84c14.91,-19 15.08,-42.46 -13.86,-53.96 11.5,7.69 20.99,32.08 13.35,52.39l0.51 1.57z"/>
     <path id="_129886112" class="fil3" d="M723.94 320.84c-3.29,2.05 -3.26,8.06 0.08,13.43 3.34,5.37 8.71,8.06 12.01,6.01 3.29,-2.05 3.26,-8.06 -0.08,-13.43 -3.34,-5.36 -8.71,-8.06 -12.01,-6.01z"/>
     <path id="_129330544" class="fil2" d="M589.27 522.35c0,0 6.11,-12.65 21.74,-20.6 15.63,-7.96 -10.8,20.89 -21.74,20.6z"/>
     <path id="_129330424" class="fil4" d="M701.97 597.06c-0.55,1.1 -1.11,2.21 -1.67,3.31 0,0 -4.7,13.83 -34.29,10.41 0,0 8.61,-15.23 8.02,-16.54 -0.58,-1.32 -15,15.3 -15,15.3 0,0 -18.21,0.06 -33.08,-12.77 0,0 -0.06,-20.57 -1.35,-20.53 -1.29,0.05 -4.43,16.8 -4.43,16.8 -10.03,-1.33 -21.54,-4.99 -28.3,-10.98 -2.42,-2.14 -2.82,-5.03 -1.38,-11.57 0.61,-2.8 1.37,-6.25 2.35,-10.48 56.14,25.22 92.02,34 109.14,37.03z"/>
     <path id="_129331048" class="fil4" d="M698.86 332.22c0,0 0,18.79 25.34,29.04 0,0 -16.8,-0.57 -23.91,-7.4 -7.12,-6.83 -1.42,-21.64 -1.42,-21.64z"/>
     <path id="_119546360" class="fil1" d="M716.72 388.42c1.86,1.36 2.26,3.96 0.91,5.82 -1.36,1.86 -3.96,2.26 -5.82,0.91 -1.86,-1.36 -2.26,-3.96 -0.91,-5.82 1.36,-1.86 3.96,-2.26 5.82,-0.91zm-33.26 46.76c-0.51,1.44 0.25,3.02 1.69,3.52 1.44,0.51 3.02,-0.25 3.52,-1.69 0.51,-1.44 -0.25,-3.02 -1.69,-3.52 -1.44,-0.51 -3.02,0.25 -3.52,1.69zm26.52 -6.93c-0.34,0.96 0.17,2.01 1.13,2.35 0.96,0.34 2.01,-0.17 2.35,-1.13 0.34,-0.96 -0.17,-2.01 -1.13,-2.35 -0.96,-0.34 -2.01,0.17 -2.35,1.13zm-5.06 39.8c-0.34,0.96 0.17,2.01 1.12,2.35 0.96,0.34 2.01,-0.17 2.35,-1.12 0.34,-0.96 -0.17,-2.01 -1.13,-2.35 -0.96,-0.34 -2.01,0.17 -2.35,1.13zm12.52 -12.77c-0.42,1.2 0.21,2.51 1.41,2.94 1.2,0.42 2.52,-0.21 2.94,-1.41 0.42,-1.2 -0.21,-2.51 -1.41,-2.94 -1.2,-0.42 -2.51,0.21 -2.94,1.41zm-42.92 17.27c-0.59,1.68 0.29,3.52 1.97,4.11 1.68,0.59 3.52,-0.29 4.11,-1.97 0.59,-1.68 -0.29,-3.52 -1.97,-4.11 -1.68,-0.59 -3.52,0.29 -4.11,1.97zm11.81 -111.89c1.59,1.16 1.94,3.39 0.78,4.98 -1.16,1.59 -3.39,1.94 -4.98,0.78 -1.59,-1.16 -1.94,-3.39 -0.78,-4.98 1.16,-1.59 3.39,-1.94 4.99,-0.78zm-33.3 12c1.06,0.77 1.29,2.26 0.52,3.32 -0.77,1.06 -2.26,1.29 -3.32,0.52 -1.06,-0.77 -1.29,-2.26 -0.52,-3.32 0.78,-1.06 2.26,-1.29 3.32,-0.52zm36.9 34.29c1.06,0.77 1.29,2.26 0.52,3.32 -0.77,1.06 -2.26,1.29 -3.32,0.52 -1.06,-0.77 -1.29,-2.26 -0.52,-3.32 0.77,-1.06 2.26,-1.29 3.32,-0.52zm-37.92 31.66c1.59,1.16 1.94,3.39 0.78,4.99 -1.16,1.59 -3.39,1.94 -4.98,0.78 -1.59,-1.16 -1.94,-3.39 -0.78,-4.99 1.16,-1.59 3.39,-1.94 4.99,-0.78zm12.82 -31.71c1.32,0.97 1.62,2.83 0.65,4.15 -0.97,1.32 -2.83,1.62 -4.15,0.65 -1.32,-0.97 -1.61,-2.83 -0.65,-4.15 0.97,-1.32 2.83,-1.62 4.15,-0.65zm66.41 -37.05c0.94,0.69 1.15,2.01 0.46,2.95 -0.69,0.94 -2.01,1.15 -2.95,0.46 -0.94,-0.69 -1.15,-2.01 -0.46,-2.95 0.69,-0.94 2.01,-1.15 2.95,-0.46z"/>
     <path id="_119682776" class="fil4" d="M632.6 336.9c-1.7,-12.05 -4.08,-24.57 -7.29,-37.47 22.89,-8.47 59.17,-20.38 96.07,-26.43 5.02,13.51 9.21,27.19 12.79,40.88 -40.51,-0 -80.32,15.98 -101.57,23.02z"/>
     <path id="_130621128" class="fil7" d="M701.9 263.49c-19.33,-47.72 -49.65,-98.6 -93.53,-150.32 46.21,33.81 80.16,85.15 103.04,136.87 -2.47,8.16 -8.94,14.21 -8.94,14.21 -0.18,-0.26 -0.37,-0.51 -0.57,-0.76z"/>
     <path id="_7125608" class="fil6" d="M622.27 300.04c-1.77,-7 -3.79,-14.11 -6.08,-21.31 17.19,-13.6 51.03,-32.98 90.45,-39.08 4.86,10.29 9.34,20.77 13.39,31.37 -31.81,7.46 -70.04,19.8 -95.61,29.68 -0.72,-0.22 -1.43,-0.44 -2.14,-0.67z"/>
     <path id="_123310440" class="fil1" d="M618.17 339.06c0,0 57.36,-36.6 129.14,-36.66 0,0 1.08,-30.69 -18.23,-55.34 0,0 -66.1,3.3 -123.24,55.65 0,0 3.67,18.27 12.33,36.35z"/>
     <path id="_123310368" class="fil6" d="M625.21 325.23c0.95,-0.52 1.9,-1.02 2.84,-1.52 8.61,-4.55 17.51,-8.57 26.52,-12.11 25.66,-10.08 53.03,-16.46 80.44,-17.5 -0.32,-2.92 -0.81,-5.84 -1.32,-8.37 -2.03,-9.9 -5.75,-19.4 -11.37,-27.57 -2.18,0.25 -4.37,0.58 -6.46,0.92 -8.83,1.43 -17.62,3.58 -26.18,6.27 -25.86,8.12 -50.24,21.41 -71.11,39.63 1.65,6.69 4.02,13.78 6.65,20.26z"/>
     <path id="_123310296" class="fil5" d="M734.38 294.12l0.63 -0.03c-0.32,-2.92 -0.81,-5.84 -1.32,-8.37 -2.03,-9.9 -5.75,-19.4 -11.37,-27.57 -2.18,0.25 -4.37,0.58 -6.46,0.92 -8.83,1.43 -17.62,3.58 -26.18,6.27 -22.71,7.13 -44.28,18.25 -63.33,33.2 0.47,0.66 0.96,1.32 1.51,1.98 0,0 48.06,-29.89 88.64,-31.03 0,0 9.41,8.89 17.89,24.64z"/>
     <path id="_123310224" class="fil6" d="M625.21 325.23c0.95,-0.52 1.9,-1.02 2.84,-1.52 8.61,-4.55 17.51,-8.57 26.52,-12.11 1.26,-0.49 2.52,-0.98 3.78,-1.45 -5.1,-9.63 -8.71,-19.26 -10.94,-26.01 -10.17,6.01 -19.84,12.96 -28.86,20.84 1.65,6.69 4.01,13.78 6.65,20.26z"/>
     <path id="_123310152" class="fil1" d="M613.93 313.56c0,0 26.85,-18.18 58.24,-22.45 0,0 -23.49,7.96 -55.8,33.02l-2.44 -10.58z"/>
     <path id="_119547512" class="fil1" d="M613.54 284.96c1.42,0.57 18.5,-19.36 60.64,-38.15 0,0 -38.43,9.11 -65.48,25.34l-0.28 7.4 5.12 5.41z"/>
     <path id="_119541920" class="fil5" d="M730.13 285.25c0,0 -13.95,-5.41 -48.68,3.13 0,0 25.34,-13.1 42.42,-13.66l2.85 5.69 3.42 4.84z"/>
     <path id="_119542448" class="fil1" d="M627.07 344.75c0,0 22.21,-11.1 61.78,-25.05 0,0 -33.88,4.84 -61.21,14.8l-2.85 3.13 2.28 7.12z"/>
     <path id="_125772112" class="fil1" d="M191.21 343.33c0,0 -22.21,-11.1 -61.78,-25.05 0,0 33.88,4.84 61.21,14.8l2.85 3.13 -2.28 7.12z"/>
     <path id="_119547824" class="fil1" d="M112.34 378.06c-1.97,1.18 -2.62,3.73 -1.44,5.71 1.18,1.97 3.73,2.62 5.71,1.44 1.97,-1.18 2.62,-3.73 1.44,-5.71 -1.18,-1.97 -3.73,-2.62 -5.71,-1.44zm28.81 49.63c0.37,1.48 -0.53,2.98 -2.01,3.35 -1.48,0.37 -2.98,-0.53 -3.35,-2.01 -0.37,-1.48 0.53,-2.98 2.01,-3.35 1.48,-0.37 2.98,0.53 3.35,2zm-25.77 -9.34c0.25,0.99 -0.35,1.99 -1.34,2.23 -0.99,0.25 -1.99,-0.35 -2.23,-1.34 -0.25,-0.99 0.35,-1.99 1.34,-2.24 0.99,-0.25 1.99,0.35 2.23,1.34zm1.37 40.1c0.25,0.99 -0.35,1.99 -1.34,2.23 -0.99,0.25 -1.99,-0.35 -2.23,-1.34 -0.25,-0.99 0.35,-1.99 1.34,-2.23 0.99,-0.25 1.99,0.35 2.23,1.34zm-11.29 -13.87c0.31,1.23 -0.44,2.48 -1.67,2.79 -1.23,0.31 -2.49,-0.44 -2.79,-1.67 -0.31,-1.23 0.44,-2.48 1.67,-2.79 1.23,-0.31 2.48,0.44 2.79,1.67zm41.14 21.15c0.43,1.73 -0.61,3.48 -2.34,3.91 -1.73,0.43 -3.48,-0.61 -3.91,-2.34 -0.43,-1.73 0.61,-3.48 2.34,-3.91 1.73,-0.43 3.48,0.61 3.91,2.34zm-1.45 -112.5c-1.69,1.01 -2.24,3.2 -1.23,4.89 1.01,1.69 3.2,2.24 4.89,1.23 1.69,-1.01 2.24,-3.2 1.23,-4.89 -1.01,-1.69 -3.2,-2.24 -4.89,-1.23zm32.06 15.01c-1.13,0.67 -1.5,2.13 -0.82,3.26 0.67,1.13 2.13,1.5 3.26,0.82 1.13,-0.67 1.5,-2.13 0.82,-3.26 -0.67,-1.13 -2.13,-1.5 -3.26,-0.82zm-39.9 30.75c-1.13,0.67 -1.5,2.13 -0.82,3.26 0.67,1.13 2.13,1.5 3.26,0.82 1.13,-0.67 1.5,-2.13 0.82,-3.26 -0.67,-1.13 -2.13,-1.5 -3.26,-0.82zm34.84 35.02c-1.69,1.01 -2.24,3.2 -1.23,4.89 1.01,1.69 3.2,2.24 4.89,1.23 1.69,-1.01 2.24,-3.2 1.23,-4.89 -1.01,-1.69 -3.2,-2.24 -4.89,-1.23zm-9.85 -32.76c-1.41,0.84 -1.87,2.67 -1.03,4.08 0.84,1.41 2.67,1.87 4.08,1.03 1.41,-0.84 1.87,-2.67 1.03,-4.08 -0.84,-1.41 -2.67,-1.87 -4.08,-1.03zm-62.71 -43.01c-1,0.6 -1.33,1.9 -0.73,2.9 0.6,1 1.9,1.33 2.9,0.73 1,-0.6 1.33,-1.89 0.73,-2.9 -0.6,-1 -1.9,-1.33 -2.9,-0.73z"/>
     <path id="_122253232" class="fil11" d="M433.04 218.6c2.81,-0.05 5.76,-0.11 8.82,-0.18 2.31,-6.09 6.63,-11.44 11.99,-14.46 2.03,-1.15 4.83,-2.85 7.86,-3.71 14.84,-4.23 35.33,3.08 39.98,15.4 -4.48,-0.95 -7.45,-2.64 -12.79,-3.25 -2.58,-0.29 -12.18,-0.49 -15.46,0.85l-4.51 1.46c0.25,1.17 0.53,2.1 0.84,2.86 19.55,-0.77 38.24,-1.96 46.79,-3.81 -5.73,-9.36 -12.8,-14.96 -21.43,-19.51 -6.99,-3.68 -22.35,-6.34 -33,-3.31l-0.71 0.2c-5.39,1.54 -9.35,3.55 -12.73,5.9 -3.12,2.18 -9.07,7.38 -11.14,10.94 -1.81,3.12 -3.71,8.04 -4.2,9.53 -0.1,0.32 -0.2,0.68 -0.3,1.08zm24.97 -0.62c3.06,-0.1 6.15,-0.2 9.23,-0.32 -0.82,-5.93 -0.79,-12.28 0.65,-17.21 -1.57,0.3 -3.14,0.6 -4.71,0.9 -1.3,0.37 -2.6,0.74 -3.9,1.11 -3.01,0.86 -2.56,8.14 -1.27,15.51zm62.3 -5.37c2.4,-1.24 5.7,-6.7 9.44,-14.68 -3.39,2.03 -5.05,4.99 -6.79,8.11 -1.06,1.9 -1.78,2.83 -2.33,4.96 -0.14,0.54 -0.23,1.08 -0.32,1.61zm-56.37 -23.34c4.03,-1.15 7,-0.46 9.6,-1.21 0.08,-0.02 8.06,-10.71 15.12,-12.73l2.12 -0.61c3.81,-1.09 7.91,0.9 9,4.71l0.2 0.71c0.76,2.68 -0.99,4.88 -4.1,5.76 0.41,-1.1 1.99,-2.41 1.47,-4.25 -0.49,-1.73 -3.01,-2.97 -4.9,-2.43l-0.71 0.2c-2.12,0.61 -3.64,3.33 -3.04,5.46l0.61 2.12c0.94,3.31 5.04,4.69 8.69,3.65l0.71 -0.2c5.47,-1.56 8.37,-6.85 6.83,-12.29l-0.1 -0.35c-1.05,-3.68 -2.54,-4.51 -3.89,-6.93 6.91,-0.34 16.72,3.63 18.85,11.09l0.4 1.42c2.83,9.94 -4.58,13.87 -7.28,9.35l1.06 -0.3c1.46,-0.41 3.04,-2.74 2.73,-3.84l-0.4 -1.41c-0.4,-1.41 -3.52,-2.45 -5.15,-1.98 -2.89,0.82 -4.66,3.79 -3.8,6.82l0.3 1.06c1.43,5.03 7.96,7.3 13.14,5.83 6.45,-1.84 9.48,-8.37 7.64,-14.81l-0.91 -3.19c-2.05,-7.17 -8.86,-12.5 -13.6,-15.16 -4.17,-2.34 -14.14,-4.87 -20.31,-3.11l-5.31 1.51c-10.37,2.96 -26.52,18.21 -26.4,25.52l1.42 -0.41z"/>
     <path id="_122253160" class="fil11" d="M286.91 196.26c4.13,9.02 7.76,15.22 10.33,16.42 0.7,0.33 1.69,0.64 2.94,0.93 -0.23,-0.81 -0.32,-1.72 -0.55,-2.61 -0.54,-2.13 -1.27,-3.06 -2.33,-4.96 -1.83,-3.29 -3.58,-6.39 -7.34,-8.43 -0.99,-0.54 -2.02,-0.99 -3.06,-1.36zm16.51 17.99c9.86,1.65 28.25,2.73 47.03,3.43 0.33,-0.78 0.63,-1.74 0.89,-2.97l-4.52 -1.46c-3.29,-1.33 -12.88,-1.14 -15.46,-0.85 -5.34,0.61 -8.31,2.3 -12.79,3.25 4.65,-12.32 25.13,-19.63 39.97,-15.4 3.03,0.86 5.82,2.56 7.86,3.71 5.38,3.03 9.71,8.41 12.02,14.52 3.08,0.07 6.03,0.12 8.81,0.17 -0.1,-0.41 -0.2,-0.79 -0.31,-1.13 -0.49,-1.49 -2.39,-6.41 -4.2,-9.53 -2.07,-3.56 -8.02,-8.77 -11.14,-10.94 -3.37,-2.36 -7.34,-4.36 -12.73,-5.9l-0.71 -0.2c-10.65,-3.03 -26.01,-0.37 -33,3.31 -8.78,4.62 -15.94,10.34 -21.73,19.99zm49.59 3.52c3.09,0.11 6.18,0.21 9.23,0.3 1.3,-7.4 1.77,-14.74 -1.26,-15.6 -1.3,-0.37 -2.6,-0.74 -3.9,-1.11 -1.57,-0.3 -3.14,-0.6 -4.71,-0.9 1.44,4.95 1.47,11.34 0.63,17.31zm3.32 -28.49c-4.03,-1.15 -7,-0.46 -9.6,-1.21 -0.08,-0.02 -8.06,-10.72 -15.12,-12.73l-2.12 -0.61c-3.81,-1.09 -7.91,0.9 -8.99,4.71l-0.2 0.71c-0.77,2.68 0.99,4.87 4.09,5.76 -0.41,-1.1 -1.99,-2.41 -1.47,-4.25 0.49,-1.72 3.01,-2.97 4.9,-2.43l0.71 0.2c2.13,0.6 3.64,3.33 3.04,5.46l-0.61 2.12c-0.94,3.31 -5.04,4.69 -8.69,3.65l-0.71 -0.2c-5.47,-1.56 -8.38,-6.85 -6.83,-12.29l0.1 -0.35c1.05,-3.68 2.54,-4.51 3.89,-6.93 -6.91,-0.34 -16.72,3.63 -18.85,11.09l-0.41 1.42c-2.83,9.95 4.58,13.87 7.28,9.35l-1.06 -0.31c-1.46,-0.41 -3.04,-2.74 -2.73,-3.84l0.4 -1.41c0.4,-1.41 3.52,-2.44 5.15,-1.98 2.89,0.82 4.66,3.79 3.79,6.82l-0.3 1.06c-1.43,5.03 -7.96,7.3 -13.14,5.83 -6.45,-1.84 -9.48,-8.37 -7.64,-14.81l0.91 -3.19c2.05,-7.17 8.86,-12.5 13.6,-15.16 4.17,-2.34 14.14,-4.87 20.31,-3.11l5.31 1.51c10.37,2.96 26.52,18.21 26.4,25.52l-1.42 -0.41z"/>
     <path id="_122252896" class="fil12" d="M463.12 186.79c6.59,-2.16 12.81,-4.65 18.68,-7.41 2.18,-1.82 4.57,-3.39 6.86,-4.04l2.12 -0.61c0.11,-0.03 0.23,-0.06 0.34,-0.09 6.3,-3.46 12.16,-7.21 17.58,-11.14 -4.63,-1.3 -10.39,-2.02 -14.48,-0.85l-5.31 1.51c-9.15,2.61 -22.78,14.77 -25.79,22.62z"/>
     <path id="_122252824" class="fil12" d="M306.2 165.51c2.69,1.93 5.5,3.82 8.44,5.64 1.41,-0.23 2.79,-0.32 4.08,-0.25 -0.42,0.76 -0.85,1.36 -1.28,1.94 1.78,1.05 3.6,2.08 5.47,3.08 1.79,-1.36 4.24,-1.85 6.58,-1.19l2.12 0.61c4.86,1.39 10.15,6.88 13.01,10.18 4.2,1.49 8.58,2.84 13.13,4.04 -0.05,-7.36 -16.08,-22.46 -26.39,-25.4l-5.31 -1.51c-5.95,-1.7 -15.43,0.6 -19.84,2.86z"/>
     <path id="_122252560" class="fil12" d="M433.04 218.6l0.39 -0.01 0.01 0 0.13 -0 0.13 -0 0.13 -0c2.57,-0.05 5.26,-0.11 8.03,-0.17 1.93,-5.08 5.25,-9.64 9.42,-12.77 -4.23,0.12 -8.36,0.22 -12.29,0.3 -0.58,0.72 -1.08,1.41 -1.45,2.04 -1.81,3.12 -3.71,8.04 -4.2,9.53 -0.1,0.32 -0.2,0.68 -0.3,1.08zm57.43 -14.6c5.27,2.89 9.42,6.89 11.22,11.64 -4.48,-0.95 -7.45,-2.64 -12.79,-3.25 -2.58,-0.29 -12.18,-0.49 -15.46,0.85l-4.51 1.46c0.25,1.17 0.53,2.1 0.84,2.86 11.3,-0.45 22.32,-1.03 31.25,-1.8l0.72 -0.06c5.71,-0.51 10.52,-1.09 13.96,-1.76l0.1 -0.02c0.26,-0.05 0.51,-0.1 0.76,-0.16 -2.75,-4.48 -5.8,-8.1 -9.18,-11.16 -4.8,0.54 -10.58,1 -16.9,1.4zm29.84 8.6c0.09,-0.05 0.18,-0.1 0.27,-0.16 0.08,-0.05 0.17,-0.11 0.26,-0.17 0.1,-0.07 0.19,-0.14 0.29,-0.23 0.08,-0.07 0.17,-0.14 0.25,-0.22 0.1,-0.09 0.19,-0.18 0.29,-0.28 0.1,-0.1 0.21,-0.21 0.31,-0.32 0.09,-0.1 0.19,-0.21 0.28,-0.32 0.11,-0.12 0.21,-0.25 0.32,-0.39 0.09,-0.11 0.18,-0.23 0.28,-0.35 0.1,-0.13 0.2,-0.26 0.31,-0.4 0.11,-0.15 0.23,-0.31 0.35,-0.48l0.3 -0.44c0.12,-0.18 0.24,-0.36 0.36,-0.55l0.27 -0.42c0.13,-0.21 0.26,-0.42 0.4,-0.64l0.3 -0.5c0.15,-0.24 0.29,-0.49 0.44,-0.75l0.23 -0.39c0.16,-0.28 0.33,-0.58 0.49,-0.88l0.24 -0.43c0.18,-0.33 0.36,-0.67 0.54,-1.01l0.14 -0.27c0.19,-0.36 0.37,-0.72 0.56,-1.09l0.24 -0.48c0.19,-0.37 0.38,-0.75 0.57,-1.14l0.14 -0.29c0.21,-0.43 0.43,-0.88 0.64,-1.33l0.14 -0.3 0.21 -0.46c-3.39,2.03 -5.05,4.98 -6.79,8.11 -1.06,1.9 -1.78,2.83 -2.33,4.96 -0.14,0.54 -0.23,1.08 -0.32,1.61l0.01 -0.01zm9.14 -26.58c-2.85,6.01 -5.42,10.5 -7.53,12.74 5.47,-1.83 8.31,-7.14 7.53,-12.74zm-62.48 19.12c-3.23,0.12 -6.48,0.23 -9.69,0.33 -0.59,2.98 -0.1,7.73 0.73,12.51l2.73 -0.09 0.14 -0 0.14 -0 0.38 -0.01 0.05 -0 0.14 -0 0.14 -0 0.14 -0 0.05 -0 0.24 -0.01 0.14 -0 0.14 -0 0.01 -0 0.43 -0.01 0.14 -0 0.05 -0 0.24 -0.01 0.14 -0 0.25 -0.01 0.04 -0 0.14 -0 0.67 -0.02 0.05 -0 0.14 -0 0.06 -0 0.23 -0.01 0.01 0 0.14 -0.01 0.04 -0 0.21 -0.01 0.07 -0 0.22 -0.01 0.07 -0 0.23 -0.01 0.05 -0 0.25 -0.01 0.04 -0 0.26 -0.01 0.02 -0 0.27 -0.01 0.01 -0 0.14 -0.01 0.01 0 0.14 -0.01c-0.58,-4.19 -0.74,-8.57 -0.28,-12.53z"/>
     <path id="_122252488" class="fil12" d="M286.95 196.34l0.34 0.73 0.52 1.11 0.28 0.59c0.19,0.39 0.37,0.78 0.56,1.16l0.16 0.34c0.19,0.39 0.38,0.76 0.56,1.14l0.27 0.53 0.45 0.88 0.32 0.61c0.15,0.29 0.3,0.57 0.45,0.84l0.24 0.44c0.17,0.3 0.33,0.6 0.5,0.89l0.19 0.33c0.2,0.34 0.39,0.67 0.58,0.99l0.09 0.15c0.21,0.34 0.41,0.67 0.61,0.98l0.05 0.07c0.21,0.33 0.42,0.64 0.62,0.93l0.04 0.05c0.21,0.3 0.41,0.58 0.61,0.85l0.03 0.04c0.2,0.26 0.39,0.51 0.59,0.74l0.03 0.04c0.2,0.23 0.39,0.44 0.57,0.64l0.01 0.01c0.19,0.2 0.38,0.38 0.56,0.53l0.01 0.01c0.37,0.32 0.72,0.56 1.06,0.72 0.17,0.08 0.36,0.16 0.57,0.24l0 0 0.01 0 0.04 0.01c0.17,0.06 0.36,0.13 0.56,0.19l0.05 0.02 0.04 0.01 0 0 0.05 0.01c0.15,0.05 0.32,0.1 0.49,0.14l0.05 0.02 0.02 0 0.24 0.07 0.05 0.01 0.05 0.01 0 0 0.44 0.11 0.06 0.01 0.06 0.01 0.17 0.04c-0.23,-0.81 -0.32,-1.72 -0.55,-2.61 -0.54,-2.13 -1.27,-3.06 -2.33,-4.96 -1.83,-3.29 -3.58,-6.39 -7.34,-8.43 -0.99,-0.54 -2.02,-0.99 -3.06,-1.36l0.03 0.08zm94.37 9.67c-3.88,-0.08 -7.99,-0.17 -12.23,-0.28 4.13,3.14 7.43,7.7 9.34,12.76l0.03 0c3.05,0.07 5.98,0.12 8.74,0.17l0.04 0c-0.1,-0.41 -0.2,-0.79 -0.31,-1.13 -0.49,-1.49 -2.39,-6.41 -4.2,-9.53 -0.36,-0.62 -0.84,-1.29 -1.4,-1.99zm-18.32 -0.45c-3.2,-0.09 -6.45,-0.2 -9.69,-0.31 0.45,3.96 0.29,8.35 -0.3,12.53l0.14 0c2.99,0.11 5.98,0.2 8.94,0.29l0.14 0c0.84,-4.77 1.33,-9.51 0.76,-12.51zm-33.49 -1.4c-6.22,-0.37 -11.98,-0.79 -16.92,-1.28 -3.38,3.11 -6.43,6.8 -9.18,11.37l0.47 0.08 0.1 0.02c1.08,0.17 2.25,0.34 3.51,0.5l0 0 0.56 0.07c1.27,0.16 2.63,0.31 4.06,0.46l0.59 0.06 0.87 0.08 0.66 0.06c2.22,0.21 4.59,0.4 7.08,0.59l0.75 0.06 1.33 0.09 0.27 0.02 1.45 0.1 0.01 0 0.78 0.05 0.74 0.05 0.04 0 0.79 0.05 0.8 0.05 1.07 0.06 0.79 0.05c1.55,0.09 3.12,0.18 4.72,0.26l0.84 0.04 0.85 0.04 0.08 0 1.26 0.06 0.72 0.03c1.59,0.08 3.19,0.15 4.8,0.22l0.02 0 0.13 0.01 0.74 0.03 0.87 0.04 0.01 0 1.37 0.06 1.17 0.05 0.09 0 0.25 0.01 0.63 0.02 0.88 0.03 0.75 0.03 0.13 0c0.33,-0.78 0.63,-1.74 0.89,-2.97l-4.52 -1.46c-3.29,-1.33 -12.88,-1.14 -15.46,-0.85 -5.34,0.61 -8.31,2.3 -12.79,3.25 1.76,-4.67 5.79,-8.62 10.93,-11.49z"/>
    </g>
   </g>
   <path class="fil3" d="M499.72 301.89l15.22 14.98c5.08,4.95 -1.17,10.47 -6.42,5.32l-14.4 -13.26c0,0 -2.16,-1.18 -4.02,0.59 -1.86,1.77 -19.89,21.31 -19.89,21.31 0,0 -1.67,1.87 -0.29,3.63 1.36,1.75 28.79,30.22 72.3,3.81 3.64,-2.21 3.86,-5.68 0.87,-8.6l-27.92 -27.25 -15.15 -14.91c-5.08,-4.95 1.17,-10.47 6.42,-5.32l14.4 13.26c0,0 2.16,1.18 4.02,-0.59 1.86,-1.77 19.89,-21.31 19.89,-21.31 0,0 1.67,-1.87 0.29,-3.63 -1.36,-1.75 -28.79,-30.22 -72.3,-3.81 -3.64,2.21 -3.86,5.68 -0.87,8.6l27.84 27.17z"/>
  </g>
 </g>
</svg>
