<?xml version="1.0" encoding="UTF-8"?>
<!DOCTYPE svg PUBLIC "-//W3C//DTD SVG 1.1//EN" "http://www.w3.org/Graphics/SVG/1.1/DTD/svg11.dtd">
<!-- Creator: CorelDRAW -->
<svg xmlns="http://www.w3.org/2000/svg" xml:space="preserve" width="161.908mm" height="176.792mm" style="shape-rendering:geometricPrecision; text-rendering:geometricPrecision; image-rendering:optimizeQuality; fill-rule:evenodd; clip-rule:evenodd"
viewBox="0 0 7.90616 8.63294"
 xmlns:xlink="http://www.w3.org/1999/xlink">
 <defs>
  <style type="text/css">
   <![CDATA[
    .fil0 {fill:none}
    .fil1 {fill:#501D33}
    .fil15 {fill:#545A6B}
    .fil11 {fill:#6C7A8C}
    .fil5 {fill:#75414C}
    .fil14 {fill:#778790}
    .fil12 {fill:#79534F}
    .fil8 {fill:#878087}
    .fil13 {fill:#94B1B7}
    .fil2 {fill:#955B58}
    .fil18 {fill:#9E7A65}
    .fil9 {fill:#A7B1B7}
    .fil3 {fill:#BB8778}
    .fil6 {fill:#BCB4AB}
    .fil17 {fill:#C8D8D3}
    .fil16 {fill:#C9DCD3}
    .fil4 {fill:#CFA88B}
    .fil7 {fill:#D9D4CA}
    .fil10 {fill:white}
   ]]>
  </style>
 </defs>
 <g id="Layer_x0020_1">
  <metadata id="CorelCorpID_0Corel-Layer"/>
  <rect class="fil0" width="7.90616" height="8.63294"/>
  <g id="_112098928">
   <g>
    <polygon id="_112107424" class="fil1" points="2.78119,7.23403 2.47852,7.59188 2.48401,7.76784 3.54064,7.77335 3.51312,7.1955 "/>
    <polygon id="_112107352" class="fil2" points="2.88258,7.22994 2.56684,7.58933 2.56684,7.70209 3.45506,7.70672 3.43193,7.21959 "/>
    <path id="_112107280" class="fil3" d="M2.88258 7.22994l-0.31644 0.355842 0.615305 -0.00964901c0,0 0.187169,-0.117463 0.258663,-0.18443l-0.00817432 -0.172115 -0.549354 0.0103522z"/>
    <polygon id="_112107208" class="fil4" points="2.80501,7.31717 2.56614,7.58579 2.78726,7.58232 2.64327,7.55263 "/>
    <polygon id="_112107136" class="fil5" points="3.11151,7.70493 3.45506,7.70672 3.43384,7.23104 3.29837,7.23172 3.11002,7.57542 "/>
    <path id="_112107064" class="fil1" d="M2.69127 6.16883c0,0 -0.0252945,-0.0936579 -0.109382,-0.125105 0,0 0.100494,0.00341817 0.162705,0.0704144l0.00136727 0.0396508 -0.0546908 0.01504z"/>
    <path id="_112106992" class="fil1" d="M2.56637 6.21101c0,0 -0.00478544,-0.0701702 -0.05702,-0.116906 0,0 0.127801,-0.0123347 0.180064,0.0351291 0,0 0.015792,-0.0825928 -0.00135262,-0.134725 0,0 0.126448,0.025397 0.167686,0.127205 0,0 0.012408,-0.0352902 0.0777195,-0.0971542 0,0 0.0233901,0.0654873 0.102345,0.114304 0,0 0.0687932,-0.0399926 0.104533,-0.155459 0,0 0.0700774,0.0261881 0.0790086,0.139691 0,0 0.0508673,-0.0427516 0.145678,-0.0695745 0,0 -0.00206555,0.0633485 0.0254263,0.0935896 0,0 0.0632313,-0.0192443 0.118215,-0.0742281 0,0 0.0494854,0.0549838 0.0577329,0.159453 0,0 0.0577329,-0.00824756 0.118215,-0.0604821 0,0 0.0515949,0.170494 -0.131189,0.295604 -0.182784,0.12511 -0.644081,0.06454 -0.644081,0.06454l-0.195192 -0.0508819c-0.068339,-0.0178136 -0.138597,-0.0369749 -0.209256,-0.0403003 0.0160117,-0.0406958 0.0417457,-0.0789305 0.0639735,-0.098336 -0.0373069,-0.0244302 -0.07895,-0.0367258 -0.121389,-0.046912 0.0314765,-0.0503643 0.076777,-0.0811181 0.118884,-0.0845558z"/>
    <path id="_112106920" class="fil6" d="M2.7203 6.19518c0,0 0.0267545,-0.0644863 0.0178624,-0.131712 0,0 0.0782127,0.0466532 0.126238,0.144076 0.00319843,0.00594274 0.00640175,0.0118904 0.00960507,0.017838 0,0 0.0192101,-0.0672355 0.0493975,-0.113889 0,0 0.0411646,0.0535139 0.115261,0.080957 0,0 0.090562,-0.0535139 0.112516,-0.122122 0.0298944,0.0366868 0.0273503,0.088184 0.0315595,0.133099 0,0 0.0891899,-0.0672355 0.142704,-0.090562 0,0 0.00823291,0.0617469 0.0521418,0.104284 0,0 0.0754684,-0.035676 0.112516,-0.0699798 0,0 0.0315595,0.0473319 0.017838,0.1228 0,0 0.0541976,0.0137459 0.134471,-0.021261 0,0 0.00137215,0.12761 -0.192101,0.196218 -0.193473,0.0686076 -0.635306,0.00823291 -0.635306,0.00823291 -0.0805029,-0.0150937 -0.160996,-0.0301873 -0.241499,-0.045281 0.0131795,-0.0247964 0.0319453,-0.0531233 0.0651797,-0.0651504 0,0 -0.0452761,-0.0549203 -0.118664,-0.0631532 0,0 0.0506866,-0.0438845 0.106442,-0.0260611 0,0 0.000590856,-0.0699846 -0.0255142,-0.102228 0,0 0.0701311,0.00355978 0.119353,0.0438942z"/>
    <path id="_112106848" class="fil7" d="M2.7205 6.19467c0.00246597,-0.00617224 0.0260953,-0.0674454 0.0176622,-0.131194 0,0 0.0782127,0.0466532 0.126238,0.144076l0.00615759 0.0114411c-0.0555453,-0.0717426 -0.107336,-0.0939509 -0.107336,-0.0939509 -0.0191418,0.0533235 -0.0423853,0.0704144 -0.0423853,0.0704144l-0.000336934 -0.00078618zm0.157177 0.018839c0.00693889,-0.021388 0.0233071,-0.0673624 0.0457254,-0.102008 0,0 0.0411646,0.0535139 0.115261,0.080957 0,0 0.090562,-0.0535139 0.112516,-0.122122 0.028029,0.0344015 0.0275309,0.0818213 0.0308319,0.124631l-0.00108893 0.00459012c-0.0123054,-0.0375999 -0.0362326,-0.0608435 -0.0362326,-0.0608435 -0.035549,0.035549 -0.108698,0.0546908 -0.108698,0.0546908 -0.0601598,0 -0.106647,-0.0300799 -0.106647,-0.0300799 -0.0196398,0.0125886 -0.0415162,0.0377806 -0.0516681,0.0501837z"/>
    <path id="_112106776" class="fil8" d="M3.54351 6.39887c-0.0183507,0.0125007 -0.0401098,0.0245132 -0.0658975,0.0354465 -0.154042,0.00935114 -0.540481,-0.0178136 -0.540481,-0.0178136l-0.221927 -0.0754c0,0 -0.00683635,-0.0499053 -0.0519562,-0.0772507 0,0 0.0827198,-0.0211927 0.166807,0.0273454 0,0 0.00273454,-0.0451199 -0.0109382,-0.0847707 0,0 0.0526399,0.0259781 0.0751998,0.0772507 0,0 0.121687,0.0020509 0.213294,-0.0834034 0,0 0.0116218,0.0471708 -0.0143563,0.0875052 0,0 0.140829,-0.0116218 0.191418,-0.0806689 0,0 0.00546908,0.0293963 -0.00478544,0.0799852 0,0 0.114851,0.00751998 0.174327,-0.0478544 0,0 -0.00751998,0.0717816 -0.0704144,0.125105 0,0 0.106041,-7.32466e-005 0.146996,-0.0307391 0,0 0.0140633,0.0329463 0.0127156,0.0652627z"/>
    <path id="_112106704" class="fil1" d="M2.77409 7.20444c0,0 -0.208821,0.273092 0.0936531,0.312191 0.302474,0.039099 0.491128,-0.301024 0.491128,-0.314985 0,-0.0139657 -0.584781,0.00279314 -0.584781,0.00279314z"/>
    <path id="_112106632" class="fil9" d="M2.81561 7.21247c0,0 -0.188883,0.232333 0.0621619,0.263609 0.25105,0.0312763 0.423199,-0.254673 0.423199,-0.265841 0,-0.0111725 -0.485361,0.00223158 -0.485361,0.00223158z"/>
    <path id="_112106560" class="fil10" d="M2.8095 7.22043c-0.0253677,0.0343233 -0.116745,0.170713 -0.0150888,0.230629 -0.0323359,-0.11593 0.0470536,-0.209187 0.0470536,-0.209187 0,0 -0.0129646,-0.00889702 -0.0319648,-0.0214417z"/>
    <path id="_112106488" class="fil11" d="M2.81559 7.21247c0,0 -0.0200793,0.0247232 -0.0384496,0.0591295 0.0771042,0.0175645 0.232934,0.0442849 0.452918,0.0395336 0.045491,-0.0518049 0.0709124,-0.0966024 0.0709124,-0.1009 0,-0.0111677 -0.485381,0.00223646 -0.485381,0.00223646z"/>
    <path id="_112106416" class="fil11" d="M2.79162 7.44937c0.0200403,0.0125252 0.0479814,0.0219593 0.0861477,0.0267155 0.251036,0.0312665 0.423199,-0.254669 0.423199,-0.265856 0,-0.00264176 -0.0272673,-0.00389183 -0.0688274,-0.00429225 -0.0386009,0.0643691 -0.196765,0.274914 -0.414048,0.247847 -0.00946834,-0.00118171 -0.0182189,-0.00268571 -0.0264713,-0.00441433z"/>
    <path id="_112106344" class="fil1" d="M3.29916 6.39179c0,0 0.1084,-0.0439089 0.150937,-0.142704 0,0 -0.00137215,0.109772 -0.0727241,0.164658 -0.0713519,0.0548861 -0.0782127,-0.0219544 -0.0782127,-0.0219544z"/>
    <path id="_112106272" class="fil1" d="M2.63772 6.315l0.128318 0.925959c0,0 0.387289,0.0440309 0.749615,-0.00549838l0.048792 -0.832496 -0.247876 -0.0137215 -0.00209485 -0.0754 -0.676754 0.0011573z"/>
    <path id="_112106200" class="fil9" d="M2.7045 6.36809l0.114353 0.828897c0,0 0.23227,0.0234145 0.478495,0.00867728l-0.0291375 -0.840192 -0.56371 0.00261734z"/>
    <polygon id="_112106128" class="fil10" points="2.7045,6.36809 2.81865,7.19557 2.82412,7.19675 2.77189,6.41598 3.17902,6.36418 "/>
    <path id="_112106056" class="fil11" d="M3.24325 7.20831c0.0178966,-0.000698284 0.0359641,-0.00156259 0.0540999,-0.00264664l-0.0291375 -0.840192 -0.10005 0.000463895 0.0750875 0.842375z"/>
    <path id="_112105984" class="fil2" d="M3.3386 7.20279c0.0348019,-0.0027736 0.0699456,-0.00645546 0.104894,-0.0112946l0.0459305 -0.734936c0,0 -0.0710638,-0.000776414 -0.178258,-0.00448757 0.00912164,0.186539 0.0257144,0.549003 0.0274333,0.750719z"/>
    <path id="_112105912" class="fil5" d="M3.3386 7.20279c0.0348019,-0.0027736 0.0699456,-0.00645546 0.104894,-0.0112946l0.0116267 -0.697888 -0.143954 -0.0415357c0.00912164,0.186539 0.0257144,0.549003 0.0274333,0.750719z"/>
    <polygon id="_112105840" class="fil1" points="3.2294,6.58665 3.58616,6.58116 3.56832,6.75053 3.2294,6.74642 "/>
    <polygon id="_112105768" class="fil1" points="3.25271,6.92069 3.59576,6.92206 3.582,7.08457 3.26502,7.08046 "/>
    <polygon id="_112105696" class="fil2" points="3.26507,6.61899 3.54225,6.61899 3.53401,6.71407 3.26507,6.71407 "/>
    <path id="_112105624" class="fil12" d="M3.31902 6.61899l0.134012 0 -0.00158213 0.0950789 -0.128245 0c-0.00139657,-0.0326387 -0.0028029,-0.0645253 -0.00418482,-0.0950789z"/>
    <polygon id="_112105552" class="fil2" points="3.29088,6.95303 3.55982,6.95303 3.55205,7.05223 3.2982,7.04811 "/>
    <path id="_112105480" class="fil12" d="M3.3325 6.95303l0.114968 0 -0.00162607 0.0974716 -0.110344 -0.00178722c-0.000869193,-0.0308466 -0.00188488,-0.0629286 -0.00299823,-0.0956844z"/>
    <path id="_112105408" class="fil1" d="M3.0147 6.15218c0,0 -0.0264176,-0.0736665 0.010318,-0.16439 0,0 -0.00211438,0.0579136 0.0531233,0.142367l-0.0303436 0.0205432 -0.0330977 0.00147958z"/>
    <path id="_112105336" class="fil1" d="M3.54114 6.25636c0,0 0.0182335,-0.10588 0.0862844,-0.132298 0,0 -0.0341134,0.0408276 -0.0245669,0.13808l-0.0299285 0.00885795 -0.031789 -0.0146395z"/>
    <polygon id="_112105264" class="fil1" points="3.14853,6.33626 3.21451,6.91359 3.20076,6.34725 "/>
    <g>
     <circle id="_112105192" class="fil11" transform="matrix(0.805546 0 0.0321193 0.946913 2.95326 6.84152)" r="0.310658"/>
     <circle id="_112105120" class="fil13" transform="matrix(0.692946 0 0.0276296 0.814552 2.93003 6.85945)" r="0.310658"/>
     <circle id="_112105048" class="fil1" transform="matrix(0.846448 0 0.0337502 0.994993 2.92943 6.84152)" r="0.310658"/>
     <circle id="_112104976" class="fil14" transform="matrix(0.727365 0 0.029002 0.855011 2.92943 6.84152)" r="0.310658"/>
     <path id="_112104904" class="fil15" d="M3.13715 6.81444c0.001128,0.00889702 0.00187511,0.0179356 0.00218275,0.0270866 0.0046243,0.136253 -0.0856252,0.246738 -0.201531,0.246738 -0.11591,0 -0.213655,-0.110485 -0.21828,-0.246738 -0.000307636,-0.00915094 -0.000170909,-0.0181896 0.000351583,-0.0270866 0.0156699,0.123508 0.10797,0.219657 0.216087,0.219657 0.108122,0 0.193898,-0.0961483 0.201189,-0.219657z"/>
     <path id="_112104832" class="fil10" d="M2.92042 6.57591c0.124768,0 0.229994,0.118938 0.23497,0.265612 0.000107428,0.00321308 0.000146493,0.00640175 0.000161142,0.00958553 -0.00912164,-0.142235 -0.112443,-0.256021 -0.234482,-0.256021 -0.122043,0 -0.217645,0.113786 -0.217117,0.256021 -0.00020509,-0.00318378 -0.000380882,-0.00637245 -0.00048831,-0.00958553 -0.00497588,-0.146674 0.0921784,-0.265612 0.216956,-0.265612z"/>
     <path id="_112104760" class="fil16" d="M2.86734 6.8484c0,0 0.0624158,-0.0482744 0.132625,-0.00134285 0,0 -0.0282097,-0.0382396 -0.0305731,-0.0408472 -0.00236342,-0.00260758 -0.0369504,-0.0386742 -0.0395873,-0.0382396 -0.00264176,0.000434596 -0.0599938,0.0643105 -0.0599938,0.0643105l-0.00247085 0.0161191z"/>
     <path id="_112104688" class="fil16" d="M2.78302 7.02917c-0.00839406,-0.0193859 -0.0125642,-0.0408423 -0.013536,-0.0641054 -0.000610388,-0.0343722 0.00706097,-0.0669571 0.0280534,-0.0945808 0.00380394,-0.00500518 0.0061283,-0.00552279 0.0103912,-0.000478544 0.00600622,0.0071098 0.0152255,0.0125496 0.0182433,0.0206897 0.00330098,0.00889702 -0.00666544,0.0156699 -0.0101569,0.0237807 -0.0115534,0.0268668 -0.0130672,0.0558529 -0.00507843,0.0828663 0.0248696,0.00776414 0.0511847,0.00502471 0.0751949,-0.00865774 0.00725141,-0.00413599 0.0130428,-0.0153329 0.021261,-0.0120369 0.0075151,0.00300799 0.0128035,0.0129256 0.0194982,0.0192541 0.00475126,0.00449246 0.00436061,0.00706585 -4.8831e-005,0.0114265 -0.024352,0.0240688 -0.0537093,0.0337081 -0.0849953,0.0343185 -0.0212024,-0.00020509 -0.0408765,-0.00397973 -0.0588268,-0.0124763zm0.0858694 -0.240678c0.02005,-0.0229311 0.0400512,-0.0459207 0.0602819,-0.0686662 0.0217738,0.0227455 0.0433327,0.0457352 0.0649404,0.0686662 0.0216663,0.0228676 0.0433864,0.0456814 0.0648867,0.0687297 -0.0199377,0.023058 -0.0401098,0.045867 -0.0602233,0.0687346 -0.0200549,0.0229311 -0.0400512,0.0459207 -0.0602819,0.0686662 -0.0217738,-0.0227455 -0.0433327,-0.0457352 -0.0649404,-0.0686662 -0.0216712,-0.0228676 -0.0433864,-0.0456766 -0.0648916,-0.0687346 0.0199377,-0.0230483 0.0401098,-0.0458572 0.0602282,-0.0687297zm0.062157 -0.0132918c-0.0120124,0.0136434 -0.0240005,0.0273161 -0.0359396,0.0410474 -0.0120417,0.0136092 -0.0240346,0.027277 -0.0359982,0.0409741 0.0128914,0.013702 0.0258121,0.0273698 0.0387767,0.0409839 0.0128719,0.0137264 0.0257877,0.0273991 0.0387279,0.0410425 0.0120173,-0.0136434 0.0240053,-0.0273161 0.0359445,-0.0410425 0.0120369,-0.0136141 0.0240346,-0.0272819 0.0359982,-0.0409839 -0.0128914,-0.0136971 -0.025817,-0.0273649 -0.0387816,-0.0409741 -0.012867,-0.0137313 -0.0257828,-0.027404 -0.0387279,-0.0410474zm-0.159687 -0.0899224c0.0173692,-0.0084966 0.0367893,-0.0122712 0.0579771,-0.0124714 0.0313251,0.000605505 0.0613416,0.0102496 0.0873246,0.0343136 0.00470731,0.00436061 0.00526887,0.00693889 0.000825245,0.0114265 -0.00626991,0.0063285 -0.0108844,0.0162461 -0.0181993,0.0192541 -0.00798876,0.0032961 -0.0145419,-0.00790086 -0.0220716,-0.012032 -0.024938,-0.0136825 -0.0514386,-0.0164219 -0.0757858,-0.00866263 -0.00615271,0.0270133 -0.00267594,0.0559994 0.0107038,0.0828663 0.00403833,0.00811084 0.0144686,0.0148886 0.0117683,0.0237807 -0.00246597,0.00814013 -0.0113142,0.0135799 -0.0168369,0.0206897 -0.00392113,0.00504425 -0.00628456,0.00452664 -0.0104303,-0.000478544 -0.0228627,-0.0276237 -0.0327461,-0.0602087 -0.0344649,-0.0945808 -0.000605505,-0.0232631 0.00210462,-0.0447195 0.00919,-0.0641054zm0.31328 0c0.00839894,0.0193859 0.0125691,0.0408423 0.0135408,0.0641054 0.000610388,0.0343673 -0.00706585,0.0669571 -0.0280534,0.0945808 -0.00380394,0.00500518 -0.00613318,0.00552279 -0.0103961,0.000478544 -0.00600133,-0.0071098 -0.0152206,-0.0125496 -0.0182433,-0.0206897 -0.00330098,-0.00889213 0.00667032,-0.015665 0.0101569,-0.0237807 0.0115583,-0.0268668 0.0130672,-0.0558529 0.00507843,-0.0828663 -0.0248696,-0.00775925 -0.0511847,-0.00501983 -0.07519,0.00866263 -0.00725629,0.00413111 -0.0130428,0.0153281 -0.021261,0.012032 -0.0075151,-0.00301288 -0.0128084,-0.0129256 -0.0195031,-0.0192541 -0.00475126,-0.00448757 -0.00436061,-0.00706585 5.37141e-005,-0.0114265 0.0243472,-0.0240688 0.0537093,-0.0337081 0.0849953,-0.0343136 0.0211976,0.000200207 0.0408765,0.00397485 0.0588219,0.0124714zm0.0116657 0.343893c-0.0173692,0.0084966 -0.0367893,0.0122712 -0.0579771,0.0124763 -0.03133,-0.000610388 -0.0613416,-0.0102496 -0.0873246,-0.0343185 -0.00470731,-0.00436061 -0.00527375,-0.00693401 -0.000825245,-0.0114265 0.00626502,-0.0063285 0.0108796,-0.0162412 0.0181944,-0.0192541 0.00799364,-0.0032961 0.0145419,0.00790086 0.0220765,0.0120369 0.024938,0.0136776 0.0514386,0.0164219 0.0757809,0.00865774 0.00615759,-0.0270133 0.00267594,-0.0559994 -0.0106989,-0.0828663 -0.00403833,-0.00811572 -0.0144686,-0.0148837 -0.0117732,-0.0237807 0.00247085,-0.00814013 0.011319,-0.0135799 0.0168418,-0.0206897 0.00392113,-0.00504425 0.00628456,-0.00452664 0.0104254,0.000478544 0.0228627,0.0276237 0.032751,0.0602136 0.0344698,0.0945808 0.000605505,0.0232631 -0.00210462,0.0447195 -0.00919,0.0641054z"/>
     <path id="_112104616" class="fil1" d="M2.78246 7.0126c-0.00839894,-0.019381 -0.0125642,-0.0408423 -0.013536,-0.0641054 -0.000610388,-0.0343673 0.00706097,-0.0669522 0.0280486,-0.094576 0.00380882,-0.00500518 0.00613318,-0.00552767 0.0103961,-0.000483427 0.00600622,0.00711468 0.0152255,0.0125496 0.0182433,0.0206897 0.00330098,0.00889702 -0.00666544,0.0156699 -0.0101569,0.0237856 -0.0115534,0.026862 -0.0130672,0.0558529 -0.00507843,0.0828663 0.0248696,0.00775925 0.0511847,0.00501983 0.0751949,-0.00866263 0.00725141,-0.00413599 0.0130428,-0.0153281 0.0212562,-0.0120369 0.00751998,0.00301288 0.0128084,0.0129256 0.0195031,0.019259 0.00475126,0.00448757 0.00436061,0.00706097 -4.8831e-005,0.0114265 -0.024352,0.0240688 -0.0537093,0.0337032 -0.0849953,0.0343136 -0.0212024,-0.000200207 -0.0408813,-0.00397973 -0.0588268,-0.0124763zm0.0858694 -0.240674c0.02005,-0.0229359 0.0400512,-0.0459256 0.0602819,-0.0686662 0.0217738,0.0227406 0.0433327,0.0457352 0.0649404,0.0686662 0.0216663,0.0228676 0.0433864,0.0456766 0.0648867,0.0687297 -0.0199377,0.0230531 -0.0401098,0.0458621 -0.0602233,0.0687297 -0.0200549,0.0229359 -0.0400561,0.0459256 -0.0602819,0.0686662 -0.0217738,-0.0227406 -0.0433327,-0.0457303 -0.0649453,-0.0686662 -0.0216663,-0.0228676 -0.0433864,-0.0456766 -0.0648867,-0.0687297 0.0199377,-0.0230531 0.0401098,-0.0458621 0.0602282,-0.0687297zm0.062157 -0.0132918c-0.0120124,0.0136385 -0.0240005,0.0273161 -0.0359396,0.0410425 -0.0120417,0.0136141 -0.0240346,0.0272819 -0.0359982,0.040979 0.0128914,0.0136971 0.0258121,0.0273649 0.0387767,0.0409839 0.0128719,0.0137215 0.0257828,0.0273991 0.0387279,0.0410376 0.0120173,-0.0136385 0.0240053,-0.0273161 0.0359396,-0.0410376 0.0120417,-0.013619 0.0240395,-0.0272868 0.0360031,-0.0409839 -0.0128963,-0.013702 -0.025817,-0.0273649 -0.0387816,-0.040979 -0.012867,-0.0137313 -0.0257828,-0.027404 -0.0387279,-0.0410425zm-0.159687 -0.0899224c0.0173692,-0.00850148 0.0367893,-0.0122761 0.0579771,-0.0124763 0.0313251,0.000610388 0.0613367,0.0102496 0.0873197,0.0343136 0.00470731,0.0043655 0.00527375,0.00693889 0.000825245,0.0114265 -0.00626502,0.00633339 -0.0108796,0.0162461 -0.0181944,0.019259 -0.00799364,0.00329121 -0.0145419,-0.00790575 -0.0220765,-0.0120369 -0.0249331,-0.0136825 -0.0514337,-0.0164219 -0.0757809,-0.00865774 -0.00615271,0.0270133 -0.00267594,0.0559994 0.0107038,0.0828614 0.00403833,0.00811572 0.0144686,0.0148886 0.0117683,0.0237856 -0.00246597,0.00814013 -0.0113142,0.013575 -0.0168369,0.0206897 -0.00392113,0.00504425 -0.00628456,0.00452175 -0.0104303,-0.000483427 -0.0228627,-0.0276237 -0.0327461,-0.0602087 -0.0344698,-0.094576 -0.000600622,-0.023268 0.0021095,-0.0447244 0.00919489,-0.0641054zm0.31328 0c0.00839894,0.019381 0.0125642,0.0408423 0.0135408,0.0641054 0.000610388,0.0343673 -0.00706585,0.0669522 -0.0280534,0.094576 -0.00380394,0.00500518 -0.00613318,0.00552767 -0.0103961,0.000483427 -0.00600133,-0.00711468 -0.0152206,-0.0125496 -0.0182433,-0.0206897 -0.00330098,-0.00889702 0.00667032,-0.0156699 0.0101569,-0.0237856 0.0115534,-0.0268668 0.0130672,-0.0558481 0.00507843,-0.0828614 -0.0248696,-0.00776414 -0.0511847,-0.00501983 -0.07519,0.00865774 -0.00725629,0.00413111 -0.0130428,0.0153281 -0.021261,0.0120369 -0.00751998,-0.00301288 -0.0128084,-0.0129256 -0.0195031,-0.019259 -0.00475126,-0.00448757 -0.00436061,-0.00706097 4.8831e-005,-0.0114265 0.024352,-0.0240639 0.0537141,-0.0337032 0.0850002,-0.0343136 0.0211976,0.000200207 0.0408765,0.00397973 0.0588219,0.0124763zm0.0116657 0.343888c-0.0173692,0.0084966 -0.0367893,0.0122761 -0.0579771,0.0124763 -0.03133,-0.000610388 -0.0613416,-0.0102448 -0.0873246,-0.0343136 -0.00470731,-0.0043655 -0.00527375,-0.00693889 -0.000825245,-0.0114265 0.00626502,-0.00633339 0.0108796,-0.0162461 0.0181944,-0.019259 0.00799364,-0.00329121 0.0145419,0.00790575 0.0220765,0.0120369 0.024938,0.0136825 0.0514386,0.0164219 0.0757809,0.00866263 0.00615759,-0.0270133 0.00267594,-0.0560043 -0.0106989,-0.0828663 -0.00404321,-0.00811572 -0.0144686,-0.0148886 -0.0117732,-0.0237856 0.00247085,-0.00814013 0.011319,-0.013575 0.0168418,-0.0206897 0.00392113,-0.00504425 0.00627967,-0.00452175 0.0104254,0.000483427 0.0228627,0.0276237 0.032751,0.0602087 0.0344698,0.094576 0.000605505,0.0232631 -0.0021095,0.0447244 -0.00919,0.0641054z"/>
     <path id="_112104544" class="fil15" d="M2.88127 6.85705c0,0 0.0504132,0.0556186 0.0534456,0.0556186 0.00303241,0 0.0535774,-0.0634364 0.0535774,-0.0634364 0,0 -0.0384691,0.0282439 -0.107023,0.00781785z"/>
    </g>
    <g>
     <path id="_112104448" class="fil1" d="M3.30072 7.09763l0.0982578 -0.0747847c0.0203479,-0.0144198 0.0206506,-0.0374632 0.000532258,-0.0512286l-0.097164 -0.0709417c-0.0122712,-0.0089605 -0.0304608,-0.00823291 -0.043069,0.000703167l-0.098502 0.0697747c-0.0203528,0.0144149 -0.0183507,0.0423267 0.00176768,0.0560825l0.0951033 0.071098c0.012198,0.00911187 0.0304657,0.00822803 0.0430739,-0.000703167z"/>
     <path id="_112104376" class="fil14" d="M3.29076 7.07049l0.0914605 -0.064789c0.00628456,-0.00445339 0.00634804,-0.011573 0.000131844,-0.0158261l-0.0904156 -0.061825c-0.00621619,-0.0042483 -0.0164463,-0.00408228 -0.0227357,0.000371116l-0.0914605 0.064789c-0.00628944,0.00445339 -0.00634804,0.011573 -0.000131844,0.0158261l0.0904156 0.061825c0.00621619,0.0042483 0.0164463,0.00408228 0.0227357,-0.000371116z"/>
     <path id="_112104304" class="fil17" d="M3.38665 6.99987c0.00101569,-0.0035549 -0.000410181,-0.00734419 -0.00429713,-0.00999571l-0.0904107 -0.0618347c-0.00621131,-0.00424342 -0.0164463,-0.00409692 -0.022726,0.000390648l-0.0914605 0.0647841c-0.00266129,0.00187023 -0.00419947,0.00423853 -0.00463407,0.0066459l0.213528 9.76621e-006z"/>
     <path id="_112104232" class="fil10" d="M3.3869 6.99661c-0.000327168,-0.0024855 -0.00184093,-0.00489287 -0.00454617,-0.00673868l-0.0904107 -0.0618347c-0.00621131,-0.00424342 -0.0164463,-0.00409692 -0.022726,0.000390648l-0.0914605 0.0647841c-0.00176768,0.00124031 -0.00302752,0.00269059 -0.00380394,0.00423853 0.0336983,-0.0192492 0.101735,-0.0574155 0.107853,-0.0553646 0.00816455,0.00272966 0.105021,0.0544857 0.105021,0.0544857l7.32466e-005 3.90648e-005z"/>
     <circle id="_112104160" class="fil10" transform="matrix(-0.636227 -0.167179 -0.145761 0.816776 3.32439 6.95474)" r="0.0270036"/>
     <circle id="_112104088" class="fil10" transform="matrix(-0.636227 -0.167179 -0.145761 0.816776 3.36275 6.9771)" r="0.0105963"/>
     <polygon id="_112104016" class="fil1" points="3.16901,7.01533 3.28291,6.99967 3.16731,6.99677 "/>
    </g>
    <g>
     <path id="_112103920" class="fil1" d="M3.29523 6.76282l0.0982578 -0.0747847c0.0203479,-0.0144198 0.0206506,-0.0374632 0.000532258,-0.0512286l-0.097164 -0.0709417c-0.0122712,-0.0089605 -0.0304608,-0.00823291 -0.043069,0.000703167l-0.098502 0.0697747c-0.0203528,0.0144149 -0.0183507,0.0423267 0.00176768,0.0560825l0.0951033 0.071098c0.012198,0.00911187 0.0304657,0.00822803 0.0430739,-0.000703167z"/>
     <path id="_112103848" class="fil14" d="M3.28527 6.73568l0.0914605 -0.064789c0.00628456,-0.00445339 0.00634804,-0.011573 0.000131844,-0.0158261l-0.0904156 -0.061825c-0.00621619,-0.0042483 -0.0164463,-0.00408228 -0.0227357,0.000371116l-0.0914605 0.064789c-0.00628944,0.00445339 -0.00634804,0.011573 -0.000131844,0.0158261l0.0904156 0.061825c0.00621619,0.0042483 0.0164463,0.00408228 0.0227357,-0.000371116z"/>
     <path id="_112103776" class="fil17" d="M3.38116 6.66507c0.00101569,-0.0035549 -0.000410181,-0.00734419 -0.00429713,-0.00999571l-0.0904107 -0.0618347c-0.00621131,-0.00424342 -0.0164463,-0.00409692 -0.022726,0.000390648l-0.0914605 0.0647841c-0.00266129,0.00187023 -0.00419947,0.00423853 -0.00463407,0.0066459l0.213528 9.76621e-006z"/>
     <path id="_112103704" class="fil10" d="M3.38141 6.66181c-0.000327168,-0.0024855 -0.00184093,-0.00489287 -0.00454617,-0.00673868l-0.0904107 -0.0618347c-0.00621131,-0.00424342 -0.0164463,-0.00409692 -0.022726,0.000390648l-0.0914605 0.0647841c-0.00176768,0.00124031 -0.00302752,0.00269059 -0.00380394,0.00423853 0.0336983,-0.0192492 0.101735,-0.0574155 0.107853,-0.0553646 0.00816455,0.00272966 0.105021,0.0544857 0.105021,0.0544857l7.32466e-005 3.90648e-005z"/>
     <circle id="_112103632" class="fil10" transform="matrix(-0.636227 -0.167179 -0.145761 0.816776 3.31891 6.61994)" r="0.0270036"/>
     <circle id="_112103560" class="fil10" transform="matrix(-0.636227 -0.167179 -0.145761 0.816776 3.35726 6.64229)" r="0.0105963"/>
     <polygon id="_112103488" class="fil1" points="3.16352,6.68053 3.27742,6.66486 3.16182,6.66196 "/>
    </g>
    <polygon id="_112103392" class="fil1" points="3.4921,7.60088 2.99246,7.57961 3.4866,7.5129 "/>
    <ellipse id="_112103320" class="fil10" transform="matrix(1.08726 0 -0.0906052 1.01588 2.81371 7.35568)" rx="0.0396508" ry="0.067338"/>
    <path id="_112103248" class="fil1" d="M3.16513 7.25255c0,0 -0.028991,0.0729194 -0.118186,0.145145 0,0 0.100348,-0.0493047 0.157578,-0.133338 0.0572349,-0.0840382 -0.039392,-0.0118073 -0.039392,-0.0118073z"/>
   </g>
   <g>
    <polygon id="_112103152" class="fil1" points="5.12497,7.23403 5.42763,7.59188 5.42215,7.76784 4.36552,7.77335 4.39304,7.1955 "/>
    <polygon id="_112103080" class="fil2" points="5.02358,7.22994 5.33932,7.58933 5.33932,7.70209 4.45109,7.70672 4.47422,7.21959 "/>
    <path id="_112103008" class="fil3" d="M5.02358 7.22994l0.31644 0.355842 -0.615305 -0.00964901c0,0 -0.187169,-0.117463 -0.258663,-0.18443l0.00817432 -0.172115 0.549354 0.0103522z"/>
    <polygon id="_112102936" class="fil4" points="5.10114,7.31717 5.34002,7.58579 5.1189,7.58232 5.26289,7.55263 "/>
    <polygon id="_112102864" class="fil5" points="4.79464,7.70493 4.45109,7.70672 4.47231,7.23104 4.60779,7.23172 4.79613,7.57542 "/>
    <path id="_112102792" class="fil1" d="M5.21488 6.16883c0,0 0.0252945,-0.0936579 0.109382,-0.125105 0,0 -0.100494,0.00341817 -0.162705,0.0704144l-0.00136727 0.0396508 0.0546908 0.01504z"/>
    <path id="_112102720" class="fil1" d="M5.33979 6.21101c0,0 0.00478544,-0.0701702 0.05702,-0.116906 0,0 -0.127801,-0.0123347 -0.180064,0.0351291 0,0 -0.015792,-0.0825928 0.00135262,-0.134725 0,0 -0.126448,0.025397 -0.167686,0.127205 0,0 -0.012408,-0.0352902 -0.0777195,-0.0971542 0,0 -0.0233901,0.0654873 -0.102345,0.114304 0,0 -0.0687932,-0.0399926 -0.104533,-0.155459 0,0 -0.0700774,0.0261881 -0.0790086,0.139691 0,0 -0.0508673,-0.0427516 -0.145678,-0.0695745 0,0 0.00206555,0.0633485 -0.0254263,0.0935896 0,0 -0.0632313,-0.0192443 -0.118215,-0.0742281 0,0 -0.0494854,0.0549838 -0.0577329,0.159453 0,0 -0.0577329,-0.00824756 -0.118215,-0.0604821 0,0 -0.0515949,0.170494 0.131189,0.295604 0.182784,0.12511 0.644081,0.06454 0.644081,0.06454l0.195192 -0.0508819c0.068339,-0.0178136 0.138597,-0.0369749 0.209256,-0.0403003 -0.0160117,-0.0406958 -0.0417457,-0.0789305 -0.0639735,-0.098336 0.0373069,-0.0244302 0.07895,-0.0367258 0.121389,-0.046912 -0.0314765,-0.0503643 -0.076777,-0.0811181 -0.118884,-0.0845558z"/>
    <path id="_112102648" class="fil6" d="M5.18585 6.19518c0,0 -0.0267545,-0.0644863 -0.0178624,-0.131712 0,0 -0.0782127,0.0466532 -0.126238,0.144076 -0.00319843,0.00594274 -0.00640175,0.0118904 -0.00960507,0.017838 0,0 -0.0192101,-0.0672355 -0.0493975,-0.113889 0,0 -0.0411646,0.0535139 -0.115261,0.080957 0,0 -0.090562,-0.0535139 -0.112516,-0.122122 -0.0298944,0.0366868 -0.0273503,0.088184 -0.0315595,0.133099 0,0 -0.0891899,-0.0672355 -0.142704,-0.090562 0,0 -0.00823291,0.0617469 -0.0521418,0.104284 0,0 -0.0754684,-0.035676 -0.112516,-0.0699798 0,0 -0.0315595,0.0473319 -0.017838,0.1228 0,0 -0.0541976,0.0137459 -0.134471,-0.021261 0,0 -0.00137215,0.12761 0.192101,0.196218 0.193473,0.0686076 0.635306,0.00823291 0.635306,0.00823291 0.0805029,-0.0150937 0.160996,-0.0301873 0.241499,-0.045281 -0.0131795,-0.0247964 -0.0319453,-0.0531233 -0.0651797,-0.0651504 0,0 0.0452761,-0.0549203 0.118664,-0.0631532 0,0 -0.0506866,-0.0438845 -0.106442,-0.0260611 0,0 -0.000590856,-0.0699846 0.0255142,-0.102228 0,0 -0.0701311,0.00355978 -0.119353,0.0438942z"/>
    <path id="_112102576" class="fil7" d="M5.18565 6.19467c-0.00246597,-0.00617224 -0.0260953,-0.0674454 -0.0176622,-0.131194 0,0 -0.0782127,0.0466532 -0.126238,0.144076l-0.00615759 0.0114411c0.0555453,-0.0717426 0.107336,-0.0939509 0.107336,-0.0939509 0.0191418,0.0533235 0.0423853,0.0704144 0.0423853,0.0704144l0.000336934 -0.00078618zm-0.157177 0.018839c-0.00693889,-0.021388 -0.0233071,-0.0673624 -0.0457254,-0.102008 0,0 -0.0411646,0.0535139 -0.115261,0.080957 0,0 -0.090562,-0.0535139 -0.112516,-0.122122 -0.028029,0.0344015 -0.0275309,0.0818213 -0.0308319,0.124631l0.00108893 0.00459012c0.0123054,-0.0375999 0.0362326,-0.0608435 0.0362326,-0.0608435 0.035549,0.035549 0.108698,0.0546908 0.108698,0.0546908 0.0601598,0 0.106647,-0.0300799 0.106647,-0.0300799 0.0196398,0.0125886 0.0415162,0.0377806 0.0516681,0.0501837z"/>
    <path id="_112102504" class="fil8" d="M4.36265 6.39887c0.0183507,0.0125007 0.0401098,0.0245132 0.0658975,0.0354465 0.154042,0.00935114 0.540481,-0.0178136 0.540481,-0.0178136l0.221927 -0.0754c0,0 0.00683635,-0.0499053 0.0519562,-0.0772507 0,0 -0.0827198,-0.0211927 -0.166807,0.0273454 0,0 -0.00273454,-0.0451199 0.0109382,-0.0847707 0,0 -0.0526399,0.0259781 -0.0751998,0.0772507 0,0 -0.121687,0.0020509 -0.213294,-0.0834034 0,0 -0.0116218,0.0471708 0.0143563,0.0875052 0,0 -0.140829,-0.0116218 -0.191418,-0.0806689 0,0 -0.00546908,0.0293963 0.00478544,0.0799852 0,0 -0.114851,0.00751998 -0.174327,-0.0478544 0,0 0.00751998,0.0717816 0.0704144,0.125105 0,0 -0.106041,-7.32466e-005 -0.146996,-0.0307391 0,0 -0.0140633,0.0329463 -0.0127156,0.0652627z"/>
    <path id="_112102432" class="fil1" d="M5.13207 7.20444c0,0 0.208821,0.273092 -0.0936531,0.312191 -0.302474,0.039099 -0.491128,-0.301024 -0.491128,-0.314985 0,-0.0139657 0.584781,0.00279314 0.584781,0.00279314z"/>
    <path id="_112102360" class="fil9" d="M5.09055 7.21247c0,0 0.188883,0.232333 -0.0621619,0.263609 -0.25105,0.0312763 -0.423199,-0.254673 -0.423199,-0.265841 0,-0.0111725 0.485361,0.00223158 0.485361,0.00223158z"/>
    <path id="_112102288" class="fil10" d="M5.09666 7.22043c0.0253677,0.0343233 0.116745,0.170713 0.0150888,0.230629 0.0323359,-0.11593 -0.0470536,-0.209187 -0.0470536,-0.209187 0,0 0.0129646,-0.00889702 0.0319648,-0.0214417z"/>
    <path id="_112102216" class="fil11" d="M5.09057 7.21247c0,0 0.0200793,0.0247232 0.0384496,0.0591295 -0.0771042,0.0175645 -0.232934,0.0442849 -0.452918,0.0395336 -0.045491,-0.0518049 -0.0709124,-0.0966024 -0.0709124,-0.1009 0,-0.0111677 0.485381,0.00223646 0.485381,0.00223646z"/>
    <path id="_112102144" class="fil11" d="M5.11453 7.44937c-0.0200403,0.0125252 -0.0479814,0.0219593 -0.0861477,0.0267155 -0.251036,0.0312665 -0.423199,-0.254669 -0.423199,-0.265856 0,-0.00264176 0.0272673,-0.00389183 0.0688274,-0.00429225 0.0386009,0.0643691 0.196765,0.274914 0.414048,0.247847 0.00946834,-0.00118171 0.0182189,-0.00268571 0.0264713,-0.00441433z"/>
    <path id="_112102072" class="fil1" d="M4.607 6.39179c0,0 -0.1084,-0.0439089 -0.150937,-0.142704 0,0 0.00137215,0.109772 0.0727241,0.164658 0.0713519,0.0548861 0.0782127,-0.0219544 0.0782127,-0.0219544z"/>
    <path id="_112102000" class="fil1" d="M5.26844 6.315l-0.128318 0.925959c0,0 -0.387289,0.0440309 -0.749615,-0.00549838l-0.048792 -0.832496 0.247876 -0.0137215 0.00209485 -0.0754 0.676754 0.0011573z"/>
    <path id="_112101928" class="fil9" d="M5.20166 6.36809l-0.114353 0.828897c0,0 -0.23227,0.0234145 -0.478495,0.00867728l0.0291375 -0.840192 0.56371 0.00261734z"/>
    <polygon id="_112101856" class="fil10" points="5.20166,6.36809 5.0875,7.19557 5.08203,7.19675 5.13427,6.41598 4.72713,6.36418 "/>
    <path id="_112101784" class="fil11" d="M4.66291 7.20831c-0.0178966,-0.000698284 -0.0359641,-0.00156259 -0.0540999,-0.00264664l0.0291375 -0.840192 0.10005 0.000463895 -0.0750875 0.842375z"/>
    <path id="_112101712" class="fil2" d="M4.56755 7.20279c-0.0348019,-0.0027736 -0.0699456,-0.00645546 -0.104894,-0.0112946l-0.0459305 -0.734936c0,0 0.0710638,-0.000776414 0.178258,-0.00448757 -0.00912164,0.186539 -0.0257144,0.549003 -0.0274333,0.750719z"/>
    <path id="_112101640" class="fil5" d="M4.56755 7.20279c-0.0348019,-0.0027736 -0.0699456,-0.00645546 -0.104894,-0.0112946l-0.0116267 -0.697888 0.143954 -0.0415357c-0.00912164,0.186539 -0.0257144,0.549003 -0.0274333,0.750719z"/>
    <polygon id="_112101568" class="fil1" points="4.67676,6.58665 4.32,6.58116 4.33784,6.75053 4.67676,6.74642 "/>
    <polygon id="_112101496" class="fil1" points="4.65344,6.92069 4.31039,6.92206 4.32416,7.08457 4.64114,7.08046 "/>
    <polygon id="_112101424" class="fil18" points="4.64108,6.61899 4.36391,6.61899 4.37214,6.71407 4.64108,6.71407 "/>
    <path id="_112101352" class="fil12" d="M4.58713 6.61899l-0.134012 0 0.00158213 0.0950789 0.128245 0c0.00139657,-0.0326387 0.0028029,-0.0645253 0.00418482,-0.0950789z"/>
    <polygon id="_112101280" class="fil18" points="4.61528,6.95303 4.34633,6.95303 4.35411,7.05223 4.60796,7.04811 "/>
    <path id="_112101208" class="fil12" d="M4.57365 6.95303l-0.114968 0 0.00162607 0.0974716 0.110344 -0.00178722c0.000869193,-0.0308466 0.00188488,-0.0629286 0.00299823,-0.0956844z"/>
    <path id="_112101136" class="fil1" d="M4.89146 6.15218c0,0 0.0264176,-0.0736665 -0.010318,-0.16439 0,0 0.00211438,0.0579136 -0.0531233,0.142367l0.0303436 0.0205432 0.0330977 0.00147958z"/>
    <path id="_112101064" class="fil1" d="M4.36502 6.25636c0,0 -0.0182335,-0.10588 -0.0862844,-0.132298 0,0 0.0341134,0.0408276 0.0245669,0.13808l0.0299285 0.00885795 0.031789 -0.0146395z"/>
    <polygon id="_112100992" class="fil1" points="4.75763,6.33626 4.69165,6.91359 4.70539,6.34725 "/>
    <g>
     <circle id="_112100920" class="fil11" transform="matrix(-0.805546 0 -0.0321193 0.946913 4.9529 6.84152)" r="0.310658"/>
     <circle id="_112100848" class="fil13" transform="matrix(-0.692946 0 -0.0276296 0.814552 4.97612 6.85945)" r="0.310658"/>
     <circle id="_112100776" class="fil1" transform="matrix(-0.846448 0 -0.0337502 0.994993 4.97673 6.84152)" r="0.310658"/>
     <circle id="_112100704" class="fil14" transform="matrix(-0.727365 0 -0.029002 0.855011 4.97673 6.84152)" r="0.310658"/>
     <path id="_112100632" class="fil15" d="M4.76901 6.81444c-0.001128,0.00889702 -0.00187511,0.0179356 -0.00218275,0.0270866 -0.0046243,0.136253 0.0856252,0.246738 0.201531,0.246738 0.11591,0 0.213655,-0.110485 0.21828,-0.246738 0.000307636,-0.00915094 0.000170909,-0.0181896 -0.000351583,-0.0270866 -0.0156699,0.123508 -0.10797,0.219657 -0.216087,0.219657 -0.108122,0 -0.193898,-0.0961483 -0.201189,-0.219657z"/>
     <path id="_112100560" class="fil10" d="M4.98574 6.57591c-0.124768,0 -0.229994,0.118938 -0.23497,0.265612 -0.000107428,0.00321308 -0.000146493,0.00640175 -0.000161142,0.00958553 0.00912164,-0.142235 0.112443,-0.256021 0.234482,-0.256021 0.122043,0 0.217645,0.113786 0.217117,0.256021 0.00020509,-0.00318378 0.000380882,-0.00637245 0.00048831,-0.00958553 0.00497588,-0.146674 -0.0921784,-0.265612 -0.216956,-0.265612z"/>
     <path id="_112100488" class="fil16" d="M5.03881 6.8484c0,0 -0.0624158,-0.0482744 -0.132625,-0.00134285 0,0 0.0282097,-0.0382396 0.0305731,-0.0408472 0.00236342,-0.00260758 0.0369504,-0.0386742 0.0395873,-0.0382396 0.00264176,0.000434596 0.0599938,0.0643105 0.0599938,0.0643105l0.00247085 0.0161191z"/>
     <path id="_112100416" class="fil16" d="M5.12314 7.02917c0.00839406,-0.0193859 0.0125642,-0.0408423 0.013536,-0.0641054 0.000610388,-0.0343722 -0.00706097,-0.0669571 -0.0280534,-0.0945808 -0.00380394,-0.00500518 -0.0061283,-0.00552279 -0.0103912,-0.000478544 -0.00600622,0.0071098 -0.0152255,0.0125496 -0.0182433,0.0206897 -0.00330098,0.00889702 0.00666544,0.0156699 0.0101569,0.0237807 0.0115534,0.0268668 0.0130672,0.0558529 0.00507843,0.0828663 -0.0248696,0.00776414 -0.0511847,0.00502471 -0.0751949,-0.00865774 -0.00725141,-0.00413599 -0.0130428,-0.0153329 -0.021261,-0.0120369 -0.0075151,0.00300799 -0.0128035,0.0129256 -0.0194982,0.0192541 -0.00475126,0.00449246 -0.00436061,0.00706585 4.8831e-005,0.0114265 0.024352,0.0240688 0.0537093,0.0337081 0.0849953,0.0343185 0.0212024,-0.00020509 0.0408765,-0.00397973 0.0588268,-0.0124763zm-0.0858694 -0.240678c-0.02005,-0.0229311 -0.0400512,-0.0459207 -0.0602819,-0.0686662 -0.0217738,0.0227455 -0.0433327,0.0457352 -0.0649404,0.0686662 -0.0216663,0.0228676 -0.0433864,0.0456814 -0.0648867,0.0687297 0.0199377,0.023058 0.0401098,0.045867 0.0602233,0.0687346 0.0200549,0.0229311 0.0400512,0.0459207 0.0602819,0.0686662 0.0217738,-0.0227455 0.0433327,-0.0457352 0.0649404,-0.0686662 0.0216712,-0.0228676 0.0433864,-0.0456766 0.0648916,-0.0687346 -0.0199377,-0.0230483 -0.0401098,-0.0458572 -0.0602282,-0.0687297zm-0.062157 -0.0132918c0.0120124,0.0136434 0.0240005,0.0273161 0.0359396,0.0410474 0.0120417,0.0136092 0.0240346,0.027277 0.0359982,0.0409741 -0.0128914,0.013702 -0.0258121,0.0273698 -0.0387767,0.0409839 -0.0128719,0.0137264 -0.0257877,0.0273991 -0.0387279,0.0410425 -0.0120173,-0.0136434 -0.0240053,-0.0273161 -0.0359445,-0.0410425 -0.0120369,-0.0136141 -0.0240346,-0.0272819 -0.0359982,-0.0409839 0.0128914,-0.0136971 0.025817,-0.0273649 0.0387816,-0.0409741 0.012867,-0.0137313 0.0257828,-0.027404 0.0387279,-0.0410474zm0.159687 -0.0899224c-0.0173692,-0.0084966 -0.0367893,-0.0122712 -0.0579771,-0.0124714 -0.0313251,0.000605505 -0.0613416,0.0102496 -0.0873246,0.0343136 -0.00470731,0.00436061 -0.00526887,0.00693889 -0.000825245,0.0114265 0.00626991,0.0063285 0.0108844,0.0162461 0.0181993,0.0192541 0.00798876,0.0032961 0.0145419,-0.00790086 0.0220716,-0.012032 0.024938,-0.0136825 0.0514386,-0.0164219 0.0757858,-0.00866263 0.00615271,0.0270133 0.00267594,0.0559994 -0.0107038,0.0828663 -0.00403833,0.00811084 -0.0144686,0.0148886 -0.0117683,0.0237807 0.00246597,0.00814013 0.0113142,0.0135799 0.0168369,0.0206897 0.00392113,0.00504425 0.00628456,0.00452664 0.0104303,-0.000478544 0.0228627,-0.0276237 0.0327461,-0.0602087 0.0344649,-0.0945808 0.000605505,-0.0232631 -0.00210462,-0.0447195 -0.00919,-0.0641054zm-0.31328 0c-0.00839894,0.0193859 -0.0125691,0.0408423 -0.0135408,0.0641054 -0.000610388,0.0343673 0.00706585,0.0669571 0.0280534,0.0945808 0.00380394,0.00500518 0.00613318,0.00552279 0.0103961,0.000478544 0.00600133,-0.0071098 0.0152206,-0.0125496 0.0182433,-0.0206897 0.00330098,-0.00889213 -0.00667032,-0.015665 -0.0101569,-0.0237807 -0.0115583,-0.0268668 -0.0130672,-0.0558529 -0.00507843,-0.0828663 0.0248696,-0.00775925 0.0511847,-0.00501983 0.07519,0.00866263 0.00725629,0.00413111 0.0130428,0.0153281 0.021261,0.012032 0.0075151,-0.00301288 0.0128084,-0.0129256 0.0195031,-0.0192541 0.00475126,-0.00448757 0.00436061,-0.00706585 -5.37141e-005,-0.0114265 -0.0243472,-0.0240688 -0.0537093,-0.0337081 -0.0849953,-0.0343136 -0.0211976,0.000200207 -0.0408765,0.00397485 -0.0588219,0.0124714zm-0.0116657 0.343893c0.0173692,0.0084966 0.0367893,0.0122712 0.0579771,0.0124763 0.03133,-0.000610388 0.0613416,-0.0102496 0.0873246,-0.0343185 0.00470731,-0.00436061 0.00527375,-0.00693401 0.000825245,-0.0114265 -0.00626502,-0.0063285 -0.0108796,-0.0162412 -0.0181944,-0.0192541 -0.00799364,-0.0032961 -0.0145419,0.00790086 -0.0220765,0.0120369 -0.024938,0.0136776 -0.0514386,0.0164219 -0.0757809,0.00865774 -0.00615759,-0.0270133 -0.00267594,-0.0559994 0.0106989,-0.0828663 0.00403833,-0.00811572 0.0144686,-0.0148837 0.0117732,-0.0237807 -0.00247085,-0.00814013 -0.011319,-0.0135799 -0.0168418,-0.0206897 -0.00392113,-0.00504425 -0.00628456,-0.00452664 -0.0104254,0.000478544 -0.0228627,0.0276237 -0.032751,0.0602136 -0.0344698,0.0945808 -0.000605505,0.0232631 0.00210462,0.0447195 0.00919,0.0641054z"/>
     <path id="_112100344" class="fil1" d="M5.1237 7.0126c0.00839894,-0.019381 0.0125642,-0.0408423 0.013536,-0.0641054 0.000610388,-0.0343673 -0.00706097,-0.0669522 -0.0280486,-0.094576 -0.00380882,-0.00500518 -0.00613318,-0.00552767 -0.0103961,-0.000483427 -0.00600622,0.00711468 -0.0152255,0.0125496 -0.0182433,0.0206897 -0.00330098,0.00889702 0.00666544,0.0156699 0.0101569,0.0237856 0.0115534,0.026862 0.0130672,0.0558529 0.00507843,0.0828663 -0.0248696,0.00775925 -0.0511847,0.00501983 -0.0751949,-0.00866263 -0.00725141,-0.00413599 -0.0130428,-0.0153281 -0.0212562,-0.0120369 -0.00751998,0.00301288 -0.0128084,0.0129256 -0.0195031,0.019259 -0.00475126,0.00448757 -0.00436061,0.00706097 4.8831e-005,0.0114265 0.024352,0.0240688 0.0537093,0.0337032 0.0849953,0.0343136 0.0212024,-0.000200207 0.0408813,-0.00397973 0.0588268,-0.0124763zm-0.0858694 -0.240674c-0.02005,-0.0229359 -0.0400512,-0.0459256 -0.0602819,-0.0686662 -0.0217738,0.0227406 -0.0433327,0.0457352 -0.0649404,0.0686662 -0.0216663,0.0228676 -0.0433864,0.0456766 -0.0648867,0.0687297 0.0199377,0.0230531 0.0401098,0.0458621 0.0602233,0.0687297 0.0200549,0.0229359 0.0400561,0.0459256 0.0602819,0.0686662 0.0217738,-0.0227406 0.0433327,-0.0457303 0.0649453,-0.0686662 0.0216663,-0.0228676 0.0433864,-0.0456766 0.0648867,-0.0687297 -0.0199377,-0.0230531 -0.0401098,-0.0458621 -0.0602282,-0.0687297zm-0.062157 -0.0132918c0.0120124,0.0136385 0.0240005,0.0273161 0.0359396,0.0410425 0.0120417,0.0136141 0.0240346,0.0272819 0.0359982,0.040979 -0.0128914,0.0136971 -0.0258121,0.0273649 -0.0387767,0.0409839 -0.0128719,0.0137215 -0.0257828,0.0273991 -0.0387279,0.0410376 -0.0120173,-0.0136385 -0.0240053,-0.0273161 -0.0359396,-0.0410376 -0.0120417,-0.013619 -0.0240395,-0.0272868 -0.0360031,-0.0409839 0.0128963,-0.013702 0.025817,-0.0273649 0.0387816,-0.040979 0.012867,-0.0137313 0.0257828,-0.027404 0.0387279,-0.0410425zm0.159687 -0.0899224c-0.0173692,-0.00850148 -0.0367893,-0.0122761 -0.0579771,-0.0124763 -0.0313251,0.000610388 -0.0613367,0.0102496 -0.0873197,0.0343136 -0.00470731,0.0043655 -0.00527375,0.00693889 -0.000825245,0.0114265 0.00626502,0.00633339 0.0108796,0.0162461 0.0181944,0.019259 0.00799364,0.00329121 0.0145419,-0.00790575 0.0220765,-0.0120369 0.0249331,-0.0136825 0.0514337,-0.0164219 0.0757809,-0.00865774 0.00615271,0.0270133 0.00267594,0.0559994 -0.0107038,0.0828614 -0.00403833,0.00811572 -0.0144686,0.0148886 -0.0117683,0.0237856 0.00246597,0.00814013 0.0113142,0.013575 0.0168369,0.0206897 0.00392113,0.00504425 0.00628456,0.00452175 0.0104303,-0.000483427 0.0228627,-0.0276237 0.0327461,-0.0602087 0.0344698,-0.094576 0.000600622,-0.023268 -0.0021095,-0.0447244 -0.00919489,-0.0641054zm-0.31328 0c-0.00839894,0.019381 -0.0125642,0.0408423 -0.0135408,0.0641054 -0.000610388,0.0343673 0.00706585,0.0669522 0.0280534,0.094576 0.00380394,0.00500518 0.00613318,0.00552767 0.0103961,0.000483427 0.00600133,-0.00711468 0.0152206,-0.0125496 0.0182433,-0.0206897 0.00330098,-0.00889702 -0.00667032,-0.0156699 -0.0101569,-0.0237856 -0.0115534,-0.0268668 -0.0130672,-0.0558481 -0.00507843,-0.0828614 0.0248696,-0.00776414 0.0511847,-0.00501983 0.07519,0.00865774 0.00725629,0.00413111 0.0130428,0.0153281 0.021261,0.0120369 0.00751998,-0.00301288 0.0128084,-0.0129256 0.0195031,-0.019259 0.00475126,-0.00448757 0.00436061,-0.00706097 -4.8831e-005,-0.0114265 -0.024352,-0.0240639 -0.0537141,-0.0337032 -0.0850002,-0.0343136 -0.0211976,0.000200207 -0.0408765,0.00397973 -0.0588219,0.0124763zm-0.0116657 0.343888c0.0173692,0.0084966 0.0367893,0.0122761 0.0579771,0.0124763 0.03133,-0.000610388 0.0613416,-0.0102448 0.0873246,-0.0343136 0.00470731,-0.0043655 0.00527375,-0.00693889 0.000825245,-0.0114265 -0.00626502,-0.00633339 -0.0108796,-0.0162461 -0.0181944,-0.019259 -0.00799364,-0.00329121 -0.0145419,0.00790575 -0.0220765,0.0120369 -0.024938,0.0136825 -0.0514386,0.0164219 -0.0757809,0.00866263 -0.00615759,-0.0270133 -0.00267594,-0.0560043 0.0106989,-0.0828663 0.00404321,-0.00811572 0.0144686,-0.0148886 0.0117732,-0.0237856 -0.00247085,-0.00814013 -0.011319,-0.013575 -0.0168418,-0.0206897 -0.00392113,-0.00504425 -0.00627967,-0.00452175 -0.0104254,0.000483427 -0.0228627,0.0276237 -0.032751,0.0602087 -0.0344698,0.094576 -0.000605505,0.0232631 0.0021095,0.0447244 0.00919,0.0641054z"/>
     <path id="_112100272" class="fil15" d="M5.02489 6.85705c0,0 -0.0504132,0.0556186 -0.0534456,0.0556186 -0.00303241,0 -0.0535774,-0.0634364 -0.0535774,-0.0634364 0,0 0.0384691,0.0282439 0.107023,0.00781785z"/>
    </g>
    <g>
     <path id="_112100176" class="fil1" d="M4.60544 7.09763l-0.0982578 -0.0747847c-0.0203479,-0.0144198 -0.0206506,-0.0374632 -0.000532258,-0.0512286l0.097164 -0.0709417c0.0122712,-0.0089605 0.0304608,-0.00823291 0.043069,0.000703167l0.098502 0.0697747c0.0203528,0.0144149 0.0183507,0.0423267 -0.00176768,0.0560825l-0.0951033 0.071098c-0.012198,0.00911187 -0.0304657,0.00822803 -0.0430739,-0.000703167z"/>
     <path id="_112100104" class="fil14" d="M4.61539 7.07049l-0.0914605 -0.064789c-0.00628456,-0.00445339 -0.00634804,-0.011573 -0.000131844,-0.0158261l0.0904156 -0.061825c0.00621619,-0.0042483 0.0164463,-0.00408228 0.0227357,0.000371116l0.0914605 0.064789c0.00628944,0.00445339 0.00634804,0.011573 0.000131844,0.0158261l-0.0904156 0.061825c-0.00621619,0.0042483 -0.0164463,0.00408228 -0.0227357,-0.000371116z"/>
     <path id="_112100032" class="fil17" d="M4.51951 6.99987c-0.00101569,-0.0035549 0.000410181,-0.00734419 0.00429713,-0.00999571l0.0904107 -0.0618347c0.00621131,-0.00424342 0.0164463,-0.00409692 0.022726,0.000390648l0.0914605 0.0647841c0.00266129,0.00187023 0.00419947,0.00423853 0.00463407,0.0066459l-0.213528 9.76621e-006z"/>
     <path id="_112099960" class="fil10" d="M4.51926 6.99661c0.000327168,-0.0024855 0.00184093,-0.00489287 0.00454617,-0.00673868l0.0904107 -0.0618347c0.00621131,-0.00424342 0.0164463,-0.00409692 0.022726,0.000390648l0.0914605 0.0647841c0.00176768,0.00124031 0.00302752,0.00269059 0.00380394,0.00423853 -0.0336983,-0.0192492 -0.101735,-0.0574155 -0.107853,-0.0553646 -0.00816455,0.00272966 -0.105021,0.0544857 -0.105021,0.0544857l-7.32466e-005 3.90648e-005z"/>
     <circle id="_112099888" class="fil10" transform="matrix(0.636227 -0.167179 0.145761 0.816776 4.58176 6.95474)" r="0.0270036"/>
     <circle id="_112099816" class="fil10" transform="matrix(0.636227 -0.167179 0.145761 0.816776 4.5434 6.9771)" r="0.0105963"/>
     <polygon id="_112099744" class="fil1" points="4.73714,7.01533 4.62324,6.99967 4.73884,6.99677 "/>
    </g>
    <g>
     <path id="_112099648" class="fil1" d="M4.61092 6.76282l-0.0982578 -0.0747847c-0.0203479,-0.0144198 -0.0206506,-0.0374632 -0.000532258,-0.0512286l0.097164 -0.0709417c0.0122712,-0.0089605 0.0304608,-0.00823291 0.043069,0.000703167l0.098502 0.0697747c0.0203528,0.0144149 0.0183507,0.0423267 -0.00176768,0.0560825l-0.0951033 0.071098c-0.012198,0.00911187 -0.0304657,0.00822803 -0.0430739,-0.000703167z"/>
     <path id="_112099576" class="fil14" d="M4.62088 6.73568l-0.0914605 -0.064789c-0.00628456,-0.00445339 -0.00634804,-0.011573 -0.000131844,-0.0158261l0.0904156 -0.061825c0.00621619,-0.0042483 0.0164463,-0.00408228 0.0227357,0.000371116l0.0914605 0.064789c0.00628944,0.00445339 0.00634804,0.011573 0.000131844,0.0158261l-0.0904156 0.061825c-0.00621619,0.0042483 -0.0164463,0.00408228 -0.0227357,-0.000371116z"/>
     <path id="_112099504" class="fil17" d="M4.525 6.66507c-0.00101569,-0.0035549 0.000410181,-0.00734419 0.00429713,-0.00999571l0.0904107 -0.0618347c0.00621131,-0.00424342 0.0164463,-0.00409692 0.022726,0.000390648l0.0914605 0.0647841c0.00266129,0.00187023 0.00419947,0.00423853 0.00463407,0.0066459l-0.213528 9.76621e-006z"/>
     <path id="_112099432" class="fil10" d="M4.52475 6.66181c0.000327168,-0.0024855 0.00184093,-0.00489287 0.00454617,-0.00673868l0.0904107 -0.0618347c0.00621131,-0.00424342 0.0164463,-0.00409692 0.022726,0.000390648l0.0914605 0.0647841c0.00176768,0.00124031 0.00302752,0.00269059 0.00380394,0.00423853 -0.0336983,-0.0192492 -0.101735,-0.0574155 -0.107853,-0.0553646 -0.00816455,0.00272966 -0.105021,0.0544857 -0.105021,0.0544857l-7.32466e-005 3.90648e-005z"/>
     <circle id="_112099360" class="fil10" transform="matrix(0.636227 -0.167179 0.145761 0.816776 4.58725 6.61994)" r="0.0270036"/>
     <circle id="_112099288" class="fil10" transform="matrix(0.636227 -0.167179 0.145761 0.816776 4.54889 6.64229)" r="0.0105963"/>
     <polygon id="_112099216" class="fil1" points="4.74263,6.68053 4.62873,6.66486 4.74433,6.66196 "/>
    </g>
    <polygon id="_112099120" class="fil1" points="4.41405,7.60088 4.91369,7.57961 4.41955,7.5129 "/>
    <ellipse id="_112099048" class="fil10" transform="matrix(-1.08726 0 0.0906052 1.01588 5.09245 7.35568)" rx="0.0396508" ry="0.067338"/>
    <path id="_112098976" class="fil1" d="M4.74103 7.25255c0,0 0.028991,0.0729194 0.118186,0.145145 0,0 -0.100348,-0.0493047 -0.157578,-0.133338 -0.0572349,-0.0840382 0.039392,-0.0118073 0.039392,-0.0118073z"/>
   </g>
  </g>
 </g>
</svg>
