<?xml version="1.0" encoding="UTF-8"?>
<!DOCTYPE svg PUBLIC "-//W3C//DTD SVG 1.1//EN" "http://www.w3.org/Graphics/SVG/1.1/DTD/svg11.dtd">
<!-- Creator: CorelDRAW -->
<svg xmlns="http://www.w3.org/2000/svg" xml:space="preserve" width="161.908mm" height="176.792mm" style="shape-rendering:geometricPrecision; text-rendering:geometricPrecision; image-rendering:optimizeQuality; fill-rule:evenodd; clip-rule:evenodd"
viewBox="0 0 8.99079 9.81728"
 xmlns:xlink="http://www.w3.org/1999/xlink">
 <defs>
  <style type="text/css">
   <![CDATA[
    .fil0 {fill:none}
    .fil1 {fill:#501D33}
    .fil4 {fill:#50404B}
    .fil2 {fill:#62545D}
    .fil6 {fill:#75414C}
    .fil5 {fill:#955B58}
    .fil3 {fill:#9A8D8E}
    .fil11 {fill:#9C5E58}
    .fil9 {fill:#BA9475}
    .fil7 {fill:#BB8778}
    .fil10 {fill:#D8C196}
    .fil8 {fill:#501D33;fill-rule:nonzero}
   ]]>
  </style>
 </defs>
 <g id="Layer_x0020_1">
  <metadata id="CorelCorpID_0Corel-Layer"/>
  <rect class="fil0" width="8.99079" height="9.81728"/>
  <g id="_115094720">
   <g>
    <polygon id="_115097168" class="fil1" points="3.81086,7.30514 4.10349,7.50405 4.00357,8.78413 3.21491,8.30931 3.04005,7.39818 "/>
    <polygon id="_115097096" class="fil2" points="3.12569,7.50084 3.27914,8.25798 3.93933,8.65259 4.01427,7.55859 3.75019,7.37251 "/>
    <path id="_115097024" class="fil3" d="M3.1257 7.50084l0.153446 0.757137 0.0388322 0.0232116 -0.0132162 -0.108045 0.181739 0.0803354 -0.19817 -0.134194 -0.030375 -0.198887 0.212941 0.102142 -0.223137 -0.166962 -0.0452515 -0.273069c0,0 -0.0158261,-0.0537587 -0.0316966,-0.0909361l-0.0451127 0.00926798z"/>
    <path id="_115096952" class="fil4" d="M3.73328 8.52943l0.20605 0.12316 0.0749323 -1.094 -0.210526 -0.148343c-0.0110338,0.166862 -0.052637,0.799478 -0.0704566,1.11918z"/>
    <path id="_115096880" class="fil1" d="M3.24456 8.19146c-0.0178418,0 -0.514625,0.551731 -0.528897,0.6191l0.00268766 0.0639207c0,0 0.613025,0.0101065 1.29459,-0.0267711l0.0024822 -0.261969c0,0 -0.770864,-0.400694 -0.770864,-0.394281z"/>
    <path id="_115096808" class="fil5" d="M3.27759 8.30109c0,0 -0.243561,0.228218 -0.428698,0.472028 0,0 0.302217,0.021418 1.07306,-0.0164813l-0.000466453 -0.136127 -0.643894 -0.31942z"/>
    <path id="_115096736" class="fil6" d="M3.42397 8.77531c0.137776,-0.00330404 0.302845,-0.00907917 0.497989,-0.0186748l-0.000466453 -0.136127 -0.36847 -0.182789 -0.140452 0.234992 0.0114003 0.102597z"/>
    <path id="_115096664" class="fil7" d="M3.27759 8.30109c0,0 -0.156256,0.153135 -0.367049,0.393059 0,0 0.17693,0.00169367 0.411101,0.000410923l0.194283 -0.275235 -0.238335 -0.118235z"/>
    <polygon id="_115096592" class="fil8" points="3.17209,7.78033 3.4646,7.97001 4.00452,7.51009 4.04335,7.54958 3.47128,8.02757 3.14302,7.81707 "/>
    <polygon id="_115096520" class="fil8" points="3.22123,8.05564 3.48216,8.19829 4.02264,7.78505 4.04668,7.83241 3.48579,8.25085 3.20044,8.08802 "/>
    <line id="_115096448" class="fil0" x1="3.99544" y1="8.17994" x2="3.6214" y2= "8.48418" />
    <polygon id="_115096376" class="fil8" points="4.04149,8.17604 3.64041,8.44363 3.60969,8.39758 4.01076,8.12999 "/>
    <path id="_115096304" class="fil1" d="M2.95103 7.38322c0,0 0.377827,0.403082 0.42847,0.414455 0.0506435,0.0113781 0.491791,-0.447551 0.482285,-0.474494 -0.00950676,-0.0269432 -0.441637,-0.453637 -0.494224,-0.456891 -0.052587,-0.00325407 -0.343071,0.368265 -0.416531,0.51693z"/>
    <path id="_115096232" class="fil9" d="M3.05678 7.37621c0,0 0.280144,0.306821 0.319959,0.315772 0.0398151,0.0089459 0.385368,-0.359235 0.385368,-0.359235 0,0 -0.349768,-0.357747 -0.391099,-0.360302 -0.0413366,-0.00255994 -0.256483,0.286913 -0.314228,0.403765z"/>
    <path id="_115096160" class="fil10" d="M3.05679 7.37621l0.00542529 0.00592506c0.0219899,-0.028076 0.250452,-0.31866 0.299452,-0.337962 0.0408757,-0.0161037 0.295087,0.200825 0.39819,0.290961l0.00226008 -0.0023989c0,0 -0.349779,-0.357714 -0.39111,-0.360296 -0.0413477,-0.00254883 -0.256477,0.286913 -0.314217,0.403771z"/>
    <path id="_115096088" class="fil1" d="M2.87925 8.64913c0.0116613,0 0.450127,0.0520873 0.44624,0.0505324 -0.00388711,-0.00155484 -0.468008,0.00233227 -0.468008,0.00233227l0.0217678 -0.0528647z"/>
    <path id="_115096016" class="fil11" d="M3.08548 7.36874c0,0 0.27619,0.288673 0.293355,0.290234 0.0171644,0.0015604 0.341727,-0.321442 0.341727,-0.321442 0,0 -0.216895,0.135754 -0.635081,0.0312079z"/>
   </g>
   <g>
    <polygon id="_115095920" class="fil1" points="5.17993,7.30514 4.88731,7.50405 4.98723,8.78413 5.77589,8.30931 5.95075,7.39818 "/>
    <polygon id="_115095848" class="fil2" points="5.8651,7.50084 5.71165,8.25798 5.05146,8.65259 4.97652,7.55859 5.2406,7.37251 "/>
    <path id="_115095776" class="fil3" d="M5.8651 7.50084l-0.153446 0.757137 -0.0388322 0.0232116 0.0132162 -0.108045 -0.181739 0.0803354 0.19817 -0.134194 0.030375 -0.198887 -0.212941 0.102142 0.223137 -0.166962 0.0452515 -0.273069c0,0 0.0158261,-0.0537587 0.0316966,-0.0909361l0.0451127 0.00926798z"/>
    <path id="_115095704" class="fil4" d="M5.25751 8.52943l-0.20605 0.12316 -0.0749323 -1.094 0.210526 -0.148343c0.0110338,0.166862 0.052637,0.799478 0.0704566,1.11918z"/>
    <path id="_115095632" class="fil1" d="M5.74623 8.19146c0.0178418,0 0.514625,0.551731 0.528897,0.6191l-0.00268766 0.0639207c0,0 -0.613025,0.0101065 -1.29459,-0.0267711l-0.0024822 -0.261969c0,0 0.770864,-0.400694 0.770864,-0.394281z"/>
    <path id="_115095560" class="fil5" d="M5.7132 8.30109c0,0 0.243561,0.228218 0.428698,0.472028 0,0 -0.302217,0.021418 -1.07306,-0.0164813l0.000466453 -0.136127 0.643894 -0.31942z"/>
    <path id="_115095488" class="fil6" d="M5.56683 8.77531c-0.137776,-0.00330404 -0.302845,-0.00907917 -0.497989,-0.0186748l0.000466453 -0.136127 0.36847 -0.182789 0.140452 0.234992 -0.0114003 0.102597z"/>
    <path id="_115095416" class="fil7" d="M5.7132 8.30109c0,0 0.156256,0.153135 0.367049,0.393059 0,0 -0.17693,0.00169367 -0.411101,0.000410923l-0.194283 -0.275235 0.238335 -0.118235z"/>
    <polygon id="_115095344" class="fil8" points="5.8187,7.78033 5.5262,7.97001 4.98627,7.51009 4.94745,7.54958 5.51951,8.02757 5.84777,7.81707 "/>
    <polygon id="_115095272" class="fil8" points="5.76956,8.05564 5.50863,8.19829 4.96816,7.78505 4.94411,7.83241 5.50501,8.25085 5.79035,8.08802 "/>
    <line id="_115095200" class="fil0" x1="4.99535" y1="8.17994" x2="5.36939" y2= "8.48418" />
    <polygon id="_115095128" class="fil8" points="4.94931,8.17604 5.35038,8.44363 5.38111,8.39758 4.98003,8.12999 "/>
    <path id="_115095056" class="fil1" d="M6.03977 7.38322c0,0 -0.377827,0.403082 -0.42847,0.414455 -0.0506435,0.0113781 -0.491791,-0.447551 -0.482285,-0.474494 0.00950676,-0.0269432 0.441637,-0.453637 0.494224,-0.456891 0.052587,-0.00325407 0.343071,0.368265 0.416531,0.51693z"/>
    <path id="_115094984" class="fil9" d="M5.93401 7.37621c0,0 -0.280144,0.306821 -0.319959,0.315772 -0.0398151,0.0089459 -0.385368,-0.359235 -0.385368,-0.359235 0,0 0.349768,-0.357747 0.391099,-0.360302 0.0413366,-0.00255994 0.256483,0.286913 0.314228,0.403765z"/>
    <path id="_115094912" class="fil10" d="M5.934 7.37621l-0.00542529 0.00592506c-0.0219899,-0.028076 -0.250452,-0.31866 -0.299452,-0.337962 -0.0408757,-0.0161037 -0.295087,0.200825 -0.39819,0.290961l-0.00226008 -0.0023989c0,0 0.349779,-0.357714 0.39111,-0.360296 0.0413477,-0.00254883 0.256477,0.286913 0.314217,0.403771z"/>
    <path id="_115094840" class="fil1" d="M6.11155 8.64913c-0.0116613,0 -0.450127,0.0520873 -0.44624,0.0505324 0.00388711,-0.00155484 0.468008,0.00233227 0.468008,0.00233227l-0.0217678 -0.0528647z"/>
    <path id="_115094768" class="fil11" d="M5.90532 7.36874c0,0 -0.27619,0.288673 -0.293355,0.290234 -0.0171644,0.0015604 -0.341727,-0.321442 -0.341727,-0.321442 0,0 0.216895,0.135754 0.635081,0.0312079z"/>
   </g>
  </g>
 </g>
</svg>
