<?xml version="1.0" encoding="UTF-8"?>
<!DOCTYPE svg PUBLIC "-//W3C//DTD SVG 1.1//EN" "http://www.w3.org/Graphics/SVG/1.1/DTD/svg11.dtd">
<!-- Creator: CorelDRAW -->
<svg xmlns="http://www.w3.org/2000/svg" xml:space="preserve" width="161.908mm" height="176.792mm" style="shape-rendering:geometricPrecision; text-rendering:geometricPrecision; image-rendering:optimizeQuality; fill-rule:evenodd; clip-rule:evenodd"
viewBox="0 0 12.3917 13.5308"
 xmlns:xlink="http://www.w3.org/1999/xlink">
 <defs>
  <style type="text/css">
   <![CDATA[
    .fil8 {fill:none}
    .fil0 {fill:#501D33}
    .fil2 {fill:#703D43}
    .fil1 {fill:#845451}
    .fil5 {fill:#965F54}
    .fil7 {fill:#9893A0}
    .fil3 {fill:#AF8777}
    .fil4 {fill:#BE986E}
    .fil6 {fill:#C7C0C9}
   ]]>
  </style>
 </defs>
 <g id="Layer_x0020_1">
  <metadata id="CorelCorpID_0Corel-Layer"/>
  <g id="_112417216">
   <g>
    <path id="_112420624" class="fil0" d="M5.68999 10.1638l-0.134656 1.55588 0.0227999 0.387162 -1.143 -0.654423c-0.0803238,-0.418602 -0.16064,-0.832865 -0.240979,-1.25146 0.442764,-0.101547 1.03385,-0.149894 1.49584,-0.0371579z"/>
    <path id="_112420552" class="fil1" d="M4.3251 10.2908l0.198563 1.09093 0.909913 0.543875c0.0344332,-0.502615 0.0861022,-1.1431 0.120528,-1.64571 -0.0652464,-0.0397678 -0.60319,-0.102863 -1.229,0.0108986z"/>
    <path id="_112420480" class="fil2" d="M5.33965 11.3375c-0.0130187,0.0248969 -0.0398902,0.0430205 -0.071109,0.0447579l-0.234688 0.0129498c-0.0342649,0.00187512 -0.0642514,-0.0164398 -0.0769027,-0.0437552l-0.101662 0.003689 -0.176735 -0.203163 0.131281 -0.226667 0.143504 -0.00394157c0.0139524,-0.0221034 0.0391172,-0.0377396 0.0681088,-0.0393315l0.234642 -0.0129651c0.0334995,-0.00181389 0.062912,0.0155979 0.0760072,0.041926l0.153882 -0.00422475c-0.010692,0.142172 -0.0215523,0.285676 -0.0320606,0.426554l-0.114267 0.00417117z"/>
    <path id="_112420408" class="fil3" d="M4.3821 10.6039l0.141567 0.777805 0.114084 0.068193c0.0824132,0.0108986 0.148746,0.0189348 0.148746,0.0189348l-0.10095 -0.169388 -0.131159 -0.998503c-0.0107303,-0.00820459 -0.137136,-0.00219656 -0.154555,0.0664709 -0.0174194,0.0686598 -0.0400356,0.0861252 -0.0177332,0.236486z"/>
    <path id="_112420336" class="fil3" d="M4.3251 10.2908l0.0717059 0.361331 0.0273537 0.0220422c0.0132253,-0.0197767 0.0211084,-0.0322137 0.0211084,-0.0322137l-0.00670449 -0.257679c0,0 0.42125,-0.119066 1.05378,-0.12352 -0.170077,-0.035765 -0.637095,-0.0663332 -1.16725,0.0300401z"/>
    <path id="_112420264" class="fil2" d="M4.37493 10.5645l0.0218279 0.119923c0.143749,-0.0288155 0.601522,-0.104302 1.13017,-0.024476 0.00437782,-0.059422 0.00864084,-0.117995 0.0127737,-0.175411 -0.216059,-0.0196696 -0.577895,-0.0150392 -1.16477,0.0799641z"/>
    <path id="_112420192" class="fil2" d="M5.14959 11.7558l0.283992 0.169748c0.0394386,-0.549922 0.078885,-1.09984 0.118331,-1.64976 -0.0995878,-0.0358874 -0.261544,-0.0502761 -0.38909,-0.0517608 0.00633712,0.247217 -0.0231443,1.09114 -0.013233,1.53178z"/>
    <path id="_112420120" class="fil0" d="M4.47601 11.29c-0.0245908,0 -0.709291,0.760432 -0.728961,0.853285l0.00370431 0.0880998c0,0 0.844912,0.0139294 1.78429,-0.0368977l0.00342113 -0.361063c0,0 -1.06246,-0.552264 -1.06246,-0.543424z"/>
    <path id="_112420048" class="fil1" d="M4.52153 11.4411c0,0 -0.335692,0.314545 -0.59086,0.650581 0,0 0.455309,0.0381375 1.51774,-0.0140978l-0.000635243 -0.441846 -0.926246 -0.194637z"/>
    <path id="_112419976" class="fil2" d="M4.78779 11.9657c0.176988,0.00835 0.393744,0.0154448 0.662704,0.00221952l0.00364308 -0.357864 -0.305583 -0.083921 -0.360765 0.439565z"/>
    <path id="_112419904" class="fil3" d="M4.52153 11.4411c0,0 -0.215363,0.211061 -0.505891,0.54174 0,0 0.11912,0.000183685 0.441869,-0.00158428l0.358101 -0.482578 -0.294079 -0.0575775z"/>
    <path id="_112419832" class="fil0" d="M3.9725 11.9208c0.0160724,0 0.620395,0.0717901 0.615038,0.0696471 -0.00535747,-0.00214299 -0.64504,0.00321448 -0.64504,0.00321448l0.0300018 -0.0728616z"/>
    <path id="_112419760" class="fil0" d="M5.58053 10.5527c0,0 -0.280035,-0.0657821 -0.778303,-0.0447272 0,0 0.46496,-0.0927991 0.790587,-0.0570341l0.00877095 0.0543937 -0.0210549 0.0473677z"/>
    <path id="_112419688" class="fil0" d="M4.33882 10.6158c0,0 0.227463,-0.0634172 0.416123,-0.101088 0,0 -0.274272,-0.0064902 -0.43717,0.00708717l-0.0112583 0.0399744 0.0323056 0.0540263z"/>
    <g>
     <polygon id="_112419616" class="fil0" points="5.69678,10.7469 4.80017,10.7715 4.65195,11.0274 4.85153,11.2568 5.65676,11.2275 "/>
     <polygon id="_112419544" class="fil4" points="5.5875,11.1405 5.61012,10.8316 4.84413,10.8504 4.74175,11.0236 4.87357,11.1732 "/>
     <path id="_112419472" class="fil5" d="M4.7699 11.0166l0.111581 0.142233 0.68134 -0.0458217 0.0123834 -0.157533c0,0 -0.462189,0.0531385 -0.805305,0.0611211z"/>
     <g>
      <rect id="_112419400" class="fil0" transform="matrix(0.011543 0.476489 -0.512488 0.0283217 5.39601 10.7029)" width="1.21617" height="0.875763" rx="0.179345" ry="0.179345"/>
      <rect id="_112419328" class="fil6" transform="matrix(0.0106748 0.440646 -0.473937 0.0261913 5.32651 10.7792)" width="0.986747" height="0.646341" rx="0.0646341" ry="0.0646341"/>
      <path id="_112419256" class="fil7" d="M5.33259 11.0295l0.00378084 0.156017c0.000352062,0.0156744 -0.0131028,0.0292059 -0.0299559,0.0302085l-0.245058 0.0135008c-0.0168225,0.000918424 -0.0309279,-0.0111282 -0.0313106,-0.026795l-0.00451558 -0.186279c0.109025,0.0124293 0.218845,0.0147637 0.30706,0.0133478z"/>
      <polygon id="_112419184" class="fil0" points="5.2662,10.8578 5.27308,11.1422 5.09102,11.1523 5.08414,10.8678 "/>
      <rect id="_112419112" class="fil0" transform="matrix(0.0092556 0.382065 -0.41093 0.0227093 5.23758 10.8878)" width="0.595621" height="0.300371"/>
     </g>
    </g>
    <path id="_112418992" class="fil0" d="M5.50051 11.8817c0,0 -0.733369,0.10108 -0.720465,0.103231 0.0129039,0.00215064 0.711863,0.00215064 0.711863,0.00215064l0.00860257 -0.105381z"/>
   </g>
   <g>
    <path id="_112418896" class="fil0" d="M6.71803 10.1638l0.134656 1.55588 -0.0227999 0.387162 1.143 -0.654423c0.0803238,-0.418602 0.16064,-0.832865 0.240979,-1.25146 -0.442764,-0.101547 -1.03385,-0.149894 -1.49584,-0.0371579z"/>
    <path id="_112418824" class="fil1" d="M8.08291 10.2908l-0.198563 1.09093 -0.909913 0.543875c-0.0344332,-0.502615 -0.0861022,-1.1431 -0.120528,-1.64571 0.0652464,-0.0397678 0.60319,-0.102863 1.229,0.0108986z"/>
    <path id="_112418752" class="fil2" d="M7.06837 11.3375c0.0130187,0.0248969 0.0398902,0.0430205 0.071109,0.0447579l0.234688 0.0129498c0.0342649,0.00187512 0.0642514,-0.0164398 0.0769027,-0.0437552l0.101662 0.003689 0.176735 -0.203163 -0.131281 -0.226667 -0.143504 -0.00394157c-0.0139524,-0.0221034 -0.0391172,-0.0377396 -0.0681088,-0.0393315l-0.234642 -0.0129651c-0.0334995,-0.00181389 -0.062912,0.0155979 -0.0760072,0.041926l-0.153882 -0.00422475c0.010692,0.142172 0.0215523,0.285676 0.0320606,0.426554l0.114267 0.00417117z"/>
    <path id="_112418680" class="fil3" d="M8.02591 10.6039l-0.141567 0.777805 -0.114084 0.068193c-0.0824132,0.0108986 -0.148746,0.0189348 -0.148746,0.0189348l0.10095 -0.169388 0.131159 -0.998503c0.0107303,-0.00820459 0.137136,-0.00219656 0.154555,0.0664709 0.0174194,0.0686598 0.0400356,0.0861252 0.0177332,0.236486z"/>
    <path id="_112418608" class="fil3" d="M8.08291 10.2908l-0.0717059 0.361331 -0.0273537 0.0220422c-0.0132253,-0.0197767 -0.0211084,-0.0322137 -0.0211084,-0.0322137l0.00670449 -0.257679c0,0 -0.42125,-0.119066 -1.05378,-0.12352 0.170077,-0.035765 0.637095,-0.0663332 1.16725,0.0300401z"/>
    <path id="_112418536" class="fil2" d="M8.03308 10.5645l-0.0218279 0.119923c-0.143749,-0.0288155 -0.601522,-0.104302 -1.13017,-0.024476 -0.00437782,-0.059422 -0.00864084,-0.117995 -0.0127737,-0.175411 0.216059,-0.0196696 0.577895,-0.0150392 1.16477,0.0799641z"/>
    <path id="_112418464" class="fil2" d="M7.25842 11.7558l-0.283992 0.169748c-0.0394386,-0.549922 -0.078885,-1.09984 -0.118331,-1.64976 0.0995878,-0.0358874 0.261544,-0.0502761 0.38909,-0.0517608 -0.00633712,0.247217 0.0231443,1.09114 0.013233,1.53178z"/>
    <path id="_112418392" class="fil0" d="M7.93201 11.29c0.0245908,0 0.709291,0.760432 0.728961,0.853285l-0.00370431 0.0880998c0,0 -0.844912,0.0139294 -1.78429,-0.0368977l-0.00342113 -0.361063c0,0 1.06246,-0.552264 1.06246,-0.543424z"/>
    <path id="_112418320" class="fil1" d="M7.88648 11.4411c0,0 0.335692,0.314545 0.59086,0.650581 0,0 -0.455309,0.0381375 -1.51774,-0.0140978l0.000635243 -0.441846 0.926246 -0.194637z"/>
    <path id="_112418248" class="fil2" d="M7.62022 11.9657c-0.176988,0.00835 -0.393744,0.0154448 -0.662704,0.00221952l-0.00364308 -0.357864 0.305583 -0.083921 0.360765 0.439565z"/>
    <path id="_112418176" class="fil3" d="M7.88648 11.4411c0,0 0.215363,0.211061 0.505891,0.54174 0,0 -0.11912,0.000183685 -0.441869,-0.00158428l-0.358101 -0.482578 0.294079 -0.0575775z"/>
    <path id="_112418104" class="fil0" d="M8.43551 11.9208c-0.0160724,0 -0.620395,0.0717901 -0.615038,0.0696471 0.00535747,-0.00214299 0.64504,0.00321448 0.64504,0.00321448l-0.0300018 -0.0728616z"/>
    <path id="_112418032" class="fil0" d="M6.82748 10.5527c0,0 0.280035,-0.0657821 0.778303,-0.0447272 0,0 -0.46496,-0.0927991 -0.790587,-0.0570341l-0.00877095 0.0543937 0.0210549 0.0473677z"/>
    <path id="_112417960" class="fil0" d="M8.0692 10.6158c0,0 -0.227463,-0.0634172 -0.416123,-0.101088 0,0 0.274272,-0.0064902 0.43717,0.00708717l0.0112583 0.0399744 -0.0323056 0.0540263z"/>
    <g>
     <polygon id="_112417888" class="fil0" points="6.71124,10.7469 7.60784,10.7715 7.75606,11.0274 7.55649,11.2568 6.75125,11.2275 "/>
     <polygon id="_112417816" class="fil4" points="6.82051,11.1405 6.79789,10.8316 7.56388,10.8504 7.66626,11.0236 7.53444,11.1732 "/>
     <path id="_112417744" class="fil5" d="M7.63811 11.0166l-0.111581 0.142233 -0.68134 -0.0458217 -0.0123834 -0.157533c0,0 0.462189,0.0531385 0.805305,0.0611211z"/>
     <g>
      <rect id="_112417672" class="fil0" transform="matrix(-0.011543 0.476489 0.512488 0.0283217 7.012 10.7029)" width="1.21617" height="0.875763" rx="0.179345" ry="0.179345"/>
      <rect id="_112417600" class="fil6" transform="matrix(-0.0106748 0.440646 0.473937 0.0261913 7.0815 10.7792)" width="0.986747" height="0.646341" rx="0.0646341" ry="0.0646341"/>
      <path id="_112417528" class="fil7" d="M7.07542 11.0295l-0.00378084 0.156017c-0.000352062,0.0156744 0.0131028,0.0292059 0.0299559,0.0302085l0.245058 0.0135008c0.0168225,0.000918424 0.0309279,-0.0111282 0.0313106,-0.026795l0.00451558 -0.186279c-0.109025,0.0124293 -0.218845,0.0147637 -0.30706,0.0133478z"/>
      <polygon id="_112417456" class="fil0" points="7.14182,10.8578 7.13493,11.1422 7.31699,11.1523 7.32387,10.8678 "/>
      <rect id="_112417384" class="fil0" transform="matrix(-0.0092556 0.382065 0.41093 0.0227093 7.17044 10.8878)" width="0.595621" height="0.300371"/>
     </g>
    </g>
    <path id="_112417264" class="fil0" d="M6.9075 11.8817c0,0 0.733369,0.10108 0.720465,0.103231 -0.0129039,0.00215064 -0.711863,0.00215064 -0.711863,0.00215064l-0.00860257 -0.105381z"/>
   </g>
  </g>
  <rect class="fil8" width="12.3917" height="13.5308"/>
 </g>
</svg>
