<?xml version="1.0" encoding="UTF-8"?>
<!DOCTYPE svg PUBLIC "-//W3C//DTD SVG 1.1//EN" "http://www.w3.org/Graphics/SVG/1.1/DTD/svg11.dtd">
<!-- Creator: CorelDRAW -->
<svg xmlns="http://www.w3.org/2000/svg" xml:space="preserve" width="161.908mm" height="176.792mm" style="shape-rendering:geometricPrecision; text-rendering:geometricPrecision; image-rendering:optimizeQuality; fill-rule:evenodd; clip-rule:evenodd"
viewBox="0 0 10.4204 11.3783"
 xmlns:xlink="http://www.w3.org/1999/xlink">
 <defs>
  <style type="text/css">
   <![CDATA[
    .fil0 {fill:none}
    .fil1 {fill:#501D33}
    .fil8 {fill:#50404B}
    .fil7 {fill:#62545D}
    .fil3 {fill:#656575}
    .fil2 {fill:#9893A0}
    .fil9 {fill:#9A8D8E}
    .fil6 {fill:#B57366}
    .fil4 {fill:#C7C0C9}
    .fil5 {fill:white}
   ]]>
  </style>
 </defs>
 <g id="Layer_x0020_1">
  <metadata id="CorelCorpID_0Corel-Layer"/>
  <rect class="fil0" width="10.4204" height="11.3783"/>
  <g id="_113870672">
   <g>
    <path id="_113875712" class="fil1" d="M3.74639 9.45401c0,0 -0.43119,0.2319 -0.543516,0.731935 0,0 0.847885,0.184796 1.38053,-0.0434813 0,0 0.0905861,-0.0398579 0.101456,-0.0688454 0.0108703,-0.0289875 -0.0854566,-0.663045 -0.0854566,-0.663045l-0.853015 0.0434363z"/>
    <path id="_113875640" class="fil2" d="M3.32404 10.1108c0.0631946,0.0105807 0.127458,0.0189346 0.189423,0.0260399 0.204271,0.0234076 0.417166,0.0322377 0.621983,0.0124664 0.137852,-0.0133096 0.281599,-0.0406752 0.409417,-0.0953615 0.0103361,-0.00458884 0.0282731,-0.0131873 0.0429343,-0.0217728 -0.00221397,-0.0260013 -0.00651962,-0.0545898 -0.00919698,-0.0767294 -0.00807712,-0.0668503 -0.0171904,-0.133643 -0.0265033,-0.200332 -0.0113273,-0.0811509 -0.0228026,-0.162527 -0.0349344,-0.243691l-0.742915 0.0378305c-0.0676998,0.0404757 -0.141314,0.103535 -0.194121,0.156323 -0.115448,0.115397 -0.204412,0.251903 -0.256087,0.405227z"/>
    <path id="_113875568" class="fil3" d="M4.06306 10.1551c0.0242185,-0.0015575 0.0483662,-0.00346254 0.0723852,-0.00577949 0.137852,-0.0133096 0.281599,-0.0406752 0.409417,-0.0953615 0.0103361,-0.00458884 0.0282731,-0.0131873 0.0429343,-0.0217728 -0.00221397,-0.0260013 -0.00651962,-0.0545898 -0.00919698,-0.0767294 -0.00807712,-0.0668503 -0.0171904,-0.133643 -0.0265033,-0.200332 -0.00388088,-0.0278226 -0.00780038,-0.0556453 -0.0117392,-0.0835065 -0.215759,-0.0565913 -0.368227,-0.0980646 -0.379194,-0.0925812 0,0 -0.0177117,0.380378 -0.0981033,0.576063z"/>
    <path id="_113875496" class="fil4" d="M3.79349 9.52286c0,0 -0.250018,0.177549 -0.380461,0.525399 0,0 0.474671,-0.032611 0.677584,-0.434813l-0.0978329 -0.0434813 -0.199289 -0.0471047z"/>
    <path id="_113875424" class="fil1" d="M3.51141 8.3806l0.195125 1.16762 0.500035 0.108703 0.333357 -0.00724688 0.0760923 -0.10508 0.10508 -1.13776c0,0 -0.358721,-0.11595 -1.20969,-0.0262329z"/>
    <path id="_113875352" class="fil4" d="M3.62365 8.46654l0.167316 1.00124 0.424934 0.0923753 0.273966 -0.00595326 0.0324501 -0.0448135 0.094911 -1.02766c-0.0664641,-0.0125952 -0.134492,-0.0206916 -0.201793,-0.0265161 -0.259485,-0.0224422 -0.530484,-0.0125565 -0.791783,0.0113273z"/>
    <path id="_113875280" class="fil5" d="M3.63758 8.54988l0.12032 0.720029c0.0314718,-0.0020402 0.0554071,-0.0043314 0.0554071,-0.0043314l-0.0922337 -0.566061c0,0 -0.0524466,-0.128404 -0.0669146,-0.142872 -0.00292836,-0.00292836 -0.0089138,-0.00513589 -0.016579,-0.00676419z"/>
    <path id="_113875208" class="fil2" d="M4.33259 9.55762l0.157275 -0.00341749 0.0324501 -0.0448135 0.094911 -1.02766c-0.0664641,-0.0125952 -0.134492,-0.0206916 -0.201793,-0.0265161 -0.0614312,-0.00530966 -0.123525,-0.00879151 -0.18596,-0.0107287l-0.240312 0.10004 0.0217407 0.934848 0.321688 0.0782483z"/>
    <circle id="_113875136" class="fil6" cx="4.07413" cy="9.2525" r="0.117958"/>
    <path id="_113875064" class="fil3" d="M4.52354 9.49605l0.0936818 -1.01432c-0.00341749,-0.000650031 -0.00685429,-0.00126145 -0.0102847,-0.00189217 -0.102892,0.0720956 -0.214999,0.154012 -0.214999,0.154012l-0.0404371 0.805666c0,0 0.0839506,0.0312594 0.172039,0.0565334z"/>
    <circle id="_113874992" class="fil6" cx="4.32366" cy="9.73797" r="0.120262"/>
    <path id="_113874920" class="fil3" d="M3.6255 8.47758l0.0371934 0.222575c0.0628793,0.0369038 0.207881,0.117862 0.340507,0.161613 0,0 0.316488,-0.0962175 0.601736,-0.246928l0.0122927 -0.133108c-0.0664641,-0.0125952 -0.134492,-0.0206916 -0.201793,-0.0265161 -0.0712718,-0.00616564 -0.143432,-0.00987275 -0.216003,-0.0115332 -0.193587,0.00877221 -0.401809,0.0117392 -0.500363,0.0164052 -0.0182459,0.00145453 -0.0364532,0.00299915 -0.0546155,0.00460171 -0.00136442,0.000328234 -0.00242635,0.000662903 -0.0029541,0.00101688 -0.00534828,0.00356552 -0.010806,0.00745927 -0.0159998,0.0118743z"/>
    <path id="_113874848" class="fil1" d="M3.57246 9.58446c0,0 0.713818,-0.0108703 1.06167,0.293499l-0.0289875 -0.429484c0,0 -0.253628,-0.255411 -0.963836,-0.237229 0,0 -0.0778879,0.128693 -0.0688454,0.373215z"/>
    <path id="_113874776" class="fil7" d="M3.6364 9.52054c0.059185,0.00157681 0.119535,0.00609485 0.176912,0.0115397 0.169864,0.0161092 0.344291,0.0473107 0.505905,0.102589 0.0828693,0.0283504 0.165629,0.0643145 0.241445,0.110505l-0.0179563 -0.266017c-0.0506896,-0.0405336 -0.134203,-0.0795613 -0.186804,-0.100272 -0.208165,-0.0819619 -0.450002,-0.106624 -0.673896,-0.104031 -0.00747214,0.0185999 -0.0137858,0.0387444 -0.0183746,0.0550338 -0.0173063,0.0614183 -0.0255829,0.126312 -0.0272305,0.190652z"/>
    <path id="_113874704" class="fil8" d="M4.25267 9.61343c0.0223907,0.0066419 0.0445947,0.0137279 0.0665542,0.0212386 0.0828693,0.0283504 0.165629,0.0643145 0.241445,0.110505l-0.0179563 -0.266017c-0.0506896,-0.0405336 -0.134203,-0.0795613 -0.186804,-0.100272 -0.0176924,-0.0069637 -0.0356488,-0.0134898 -0.0537981,-0.0196425 -0.00408683,0.0642694 -0.0161285,0.157134 -0.049441,0.254188z"/>
    <path id="_113874632" class="fil9" d="M3.6364 9.52054c0.0137215,0.000366849 0.0274944,0.00087529 0.0412931,0.00153176 0.00673201,-0.0373736 0.0225258,-0.115564 0.0451804,-0.170199 0,0 0.378646,-0.0418466 0.820578,0.138354l-0.000746571 -0.0110698c-0.0506896,-0.0405336 -0.134203,-0.0795613 -0.186804,-0.100272 -0.208165,-0.0819619 -0.450002,-0.106624 -0.673896,-0.104031 -0.00747214,0.0185999 -0.0137858,0.0387444 -0.0183746,0.0550338 -0.0173063,0.0614183 -0.0255829,0.126312 -0.0272305,0.190652z"/>
    <path id="_113874560" class="fil1" d="M4.50415 9.49294c-0.00904252,0.0018085 -0.227871,-0.117553 -0.576913,-0.139255 0,0 0.296595,-0.0126595 0.578721,0.0759571l0.0379786 0.0397871 -0.0397871 0.0235105z"/>
    <path id="_113874488" class="fil1" d="M3.60352 8.3789c0,0 0.113331,-0.282126 0.339999,-0.4467 0,0 0.337978,0.12117 0.509998,0.484679l-0.400715 0.206169c0,0 -0.329875,-0.00904252 -0.449281,-0.244148z"/>
    <path id="_113874416" class="fil2" d="M3.69191 8.39974c0.0422649,0.0592623 0.137594,0.0716644 0.212464,0.0968611 0.0357002,0.0120159 0.0820198,0.0230922 0.123673,0.0277776l0.319217 -0.12664c-0.0834743,-0.138135 -0.233561,-0.285711 -0.386164,-0.365916 -0.0970864,0.0868017 -0.240743,0.257721 -0.26919,0.367918z"/>
    <path id="_113874344" class="fil4" d="M3.69191 8.39974c0.00155106,0.00217535 0.00316649,0.0042606 0.00485271,0.00631367 0.019044,0.00189217 0.0375602,0.0027932 0.0375602,0.0027932 0,0 0.0666765,-0.154978 0.188316,-0.276617 0,0 0.201832,0.0864992 0.345096,0.257696 0,0 0.0153176,-0.0666765 0.00450517,-0.0883013 -0.0108124,-0.0216248 -0.227961,-0.215347 -0.2613,-0.228863 -0.0134254,-0.00544482 -0.0414797,-0.0139403 -0.0701776,-0.0221654 -0.0957026,0.0909207 -0.22233,0.246413 -0.248853,0.349144z"/>
    <path id="_113874272" class="fil3" d="M4.28062 8.42417l0.0666379 -0.0264325c-0.0834743,-0.138135 -0.233561,-0.285711 -0.386164,-0.365916 -0.0135863,0.0121511 -0.0280994,0.0259691 -0.0430694,0.0410163 0.143947,0.0818267 0.282892,0.220586 0.362595,0.351332z"/>
    <path id="_113874200" class="fil1" d="M3.52715 8.57704c0.164265,0.0946858 0.294168,0.155029 0.476518,0.218964 0.268688,-0.101656 0.493972,-0.177999 0.724688,-0.290506 0.0296955,-0.0941709 0.0369424,-0.219923 0.00623,-0.291555 -0.239147,0.0907598 -0.495414,0.192345 -0.734561,0.283105 -0.136667,-0.0528263 -0.273348,-0.105665 -0.410022,-0.158505 -0.016328,-0.00630724 -0.0326625,-0.0126273 -0.0489905,-0.018941 -0.0185098,-0.00715678 -0.0370132,-0.01432 -0.0555165,-0.0214639 -0.010851,0.0759636 -0.0017892,0.22818 0.0416535,0.278902z"/>
    <path id="_113874128" class="fil7" d="M4.00298 8.72748c0.225258,-0.0847293 0.453748,-0.163724 0.671206,-0.267317 0.0113466,-0.0464483 0.0191405,-0.107944 0.0147705,-0.159953 -0.222279,0.085019 -0.443585,0.172567 -0.666089,0.257007l-0.0230472 0.00874646 -0.0229892 -0.00888805c-0.13668,-0.0528263 -0.273348,-0.105665 -0.410015,-0.158498 -0.00691865,-0.00267092 -0.0138373,-0.00534828 -0.020756,-0.00802563 0.000456953,0.0109669 0.00117778,0.0217342 0.00208525,0.0320189 0.00200158,0.0226353 0.00960888,0.0804172 0.0232788,0.105672 0.0673716,0.0385192 0.135734,0.0748952 0.206144,0.107654 0.0737239,0.0343036 0.148941,0.064218 0.225413,0.0915836z"/>
    <path id="_113874056" class="fil9" d="M3.99555 8.56431l-0.0187222 -0.00724045c-0.13668,-0.0528263 -0.273348,-0.105665 -0.410015,-0.158498 -0.00691865,-0.00267092 -0.0138373,-0.00534828 -0.020756,-0.00802563 0.000456953,0.0109669 0.00117778,0.0217342 0.00208525,0.0320189 0.00200158,0.0226353 0.00960888,0.0804172 0.0232788,0.105672 0.0101109,0.00577949 0.0202604,0.0115332 0.0304228,0.0172097l-0.0152918 -0.0978522 0.411772 0.12164c0,0 -0.000971829,-0.00176989 -0.0027739,-0.00492351z"/>
    <path id="_113873984" class="fil8" d="M4.00298 8.72748c0.225258,-0.0847293 0.453748,-0.163724 0.671206,-0.267317 0.0113466,-0.0464483 0.0191405,-0.107944 0.0147705,-0.159953 -0.222279,0.085019 -0.443585,0.172567 -0.666089,0.257007l-0.0151824 0.00576018 -0.00666121 0.163808 0.00195653 0.000695083z"/>
    <rect id="_113873912" class="fil1" transform="matrix(0.989592 -0.21448 0.155901 0.976728 4.48909 8.34635)" width="0.0415956" height="0.238722"/>
    <rect id="_113873840" class="fil1" transform="matrix(0.997374 -0.21448 0.120461 0.976728 4.19755 8.44858)" width="0.0415956" height="0.238722"/>
    <rect id="_113873768" class="fil1" transform="matrix(-1.00079 -0.21448 -0.104893 0.976728 3.79834 8.44584)" width="0.0415956" height="0.238722"/>
    <path id="_113873696" class="fil1" d="M4.60877 9.84901c0,0 -0.181005,0.133997 -0.775384,0.179286 0,0 0.40031,0.056173 0.78805,-0.0615856l0.00750432 -0.0614312 -0.0201703 -0.0562695z"/>
    <ellipse id="_113873624" class="fil1" cx="4.56292" cy="9.6123" rx="0.133163" ry="0.241625"/>
    <ellipse id="_113873552" class="fil2" cx="4.57152" cy="9.61015" rx="0.0744275" ry="0.15439"/>
    <ellipse id="_113873480" class="fil1" cx="4.57751" cy="9.60741" rx="0.0461645" ry="0.0957619"/>
    <path id="_113873408" class="fil1" d="M4.01313 8.13494c0,0 0.17455,0.182215 0.243594,0.297302l0.0422006 -0.023015c0,0 -0.124677,-0.155364 -0.285795,-0.274287z"/>
    <polygon id="_113873336" class="fil1" points="4.35947,8.63751 4.37032,9.07879 4.4517,8.60134 "/>
    <circle id="_113873264" class="fil6" cx="4.02098" cy="9.13194" r="0.0544385"/>
    <circle id="_113873192" class="fil6" cx="4.14109" cy="9.00701" r="0.0488855"/>
   </g>
   <g>
    <path id="_113873096" class="fil1" d="M6.67396 9.45401c0,0 0.43119,0.2319 0.543516,0.731935 0,0 -0.847885,0.184796 -1.38053,-0.0434813 0,0 -0.0905861,-0.0398579 -0.101456,-0.0688454 -0.0108703,-0.0289875 0.0854566,-0.663045 0.0854566,-0.663045l0.853015 0.0434363z"/>
    <path id="_113873024" class="fil2" d="M7.09632 10.1108c-0.0631946,0.0105807 -0.127458,0.0189346 -0.189423,0.0260399 -0.204271,0.0234076 -0.417166,0.0322377 -0.621983,0.0124664 -0.137852,-0.0133096 -0.281599,-0.0406752 -0.409417,-0.0953615 -0.0103361,-0.00458884 -0.0282731,-0.0131873 -0.0429343,-0.0217728 0.00221397,-0.0260013 0.00651962,-0.0545898 0.00919698,-0.0767294 0.00807712,-0.0668503 0.0171904,-0.133643 0.0265033,-0.200332 0.0113273,-0.0811509 0.0228026,-0.162527 0.0349344,-0.243691l0.742915 0.0378305c0.0676998,0.0404757 0.141314,0.103535 0.194121,0.156323 0.115448,0.115397 0.204412,0.251903 0.256087,0.405227z"/>
    <path id="_113872952" class="fil3" d="M6.35729 10.1551c-0.0242185,-0.0015575 -0.0483662,-0.00346254 -0.0723852,-0.00577949 -0.137852,-0.0133096 -0.281599,-0.0406752 -0.409417,-0.0953615 -0.0103361,-0.00458884 -0.0282731,-0.0131873 -0.0429343,-0.0217728 0.00221397,-0.0260013 0.00651962,-0.0545898 0.00919698,-0.0767294 0.00807712,-0.0668503 0.0171904,-0.133643 0.0265033,-0.200332 0.00388088,-0.0278226 0.00780038,-0.0556453 0.0117392,-0.0835065 0.215759,-0.0565913 0.368227,-0.0980646 0.379194,-0.0925812 0,0 0.0177117,0.380378 0.0981033,0.576063z"/>
    <path id="_113872880" class="fil4" d="M6.62686 9.52286c0,0 0.250018,0.177549 0.380461,0.525399 0,0 -0.474671,-0.032611 -0.677584,-0.434813l0.0978329 -0.0434813 0.199289 -0.0471047z"/>
    <path id="_113872808" class="fil1" d="M6.90895 8.3806l-0.195125 1.16762 -0.500035 0.108703 -0.333357 -0.00724688 -0.0760923 -0.10508 -0.10508 -1.13776c0,0 0.358721,-0.11595 1.20969,-0.0262329z"/>
    <path id="_113872736" class="fil4" d="M6.7967 8.46654l-0.167316 1.00124 -0.424934 0.0923753 -0.273966 -0.00595326 -0.0324501 -0.0448135 -0.094911 -1.02766c0.0664641,-0.0125952 0.134492,-0.0206916 0.201793,-0.0265161 0.259485,-0.0224422 0.530484,-0.0125565 0.791783,0.0113273z"/>
    <path id="_113872664" class="fil2" d="M6.08776 9.55762l-0.157275 -0.00341749 -0.0324501 -0.0448135 -0.094911 -1.02766c0.0664641,-0.0125952 0.134492,-0.0206916 0.201793,-0.0265161 0.0614312,-0.00530966 0.123525,-0.00879151 0.18596,-0.0107287l0.240312 0.10004 -0.0217407 0.934848 -0.321688 0.0782483z"/>
    <circle id="_113872592" class="fil6" cx="6.31175" cy="8.92467" r="0.0479221"/>
    <path id="_113872520" class="fil3" d="M5.89681 9.49605l-0.0936818 -1.01432c0.00341749,-0.000650031 0.00685429,-0.00126145 0.0102847,-0.00189217 0.102892,0.0720956 0.214999,0.154012 0.214999,0.154012l0.0404371 0.805666c0,0 -0.0839506,0.0312594 -0.172039,0.0565334z"/>
    <path id="_113872448" class="fil3" d="M6.79486 8.47758l-0.0371934 0.222575c-0.0628793,0.0369038 -0.207881,0.117862 -0.340507,0.161613 0,0 -0.316488,-0.0962175 -0.601736,-0.246928l-0.0122927 -0.133108c0.0664641,-0.0125952 0.134492,-0.0206916 0.201793,-0.0265161 0.0712718,-0.00616564 0.143432,-0.00987275 0.216003,-0.0115332 0.193587,0.00877221 0.401809,0.0117392 0.500363,0.0164052 0.0182459,0.00145453 0.0364532,0.00299915 0.0546155,0.00460171 0.00136442,0.000328234 0.00242635,0.000662903 0.0029541,0.00101688 0.00534828,0.00356552 0.010806,0.00745927 0.0159998,0.0118743z"/>
    <circle id="_113872376" class="fil6" cx="6.20053" cy="8.74111" r="0.104893"/>
    <path id="_113872304" class="fil1" d="M6.84789 9.58446c0,0 -0.713818,-0.0108703 -1.06167,0.293499l0.0289875 -0.429484c0,0 0.253628,-0.255411 0.963836,-0.237229 0,0 0.0778879,0.128693 0.0688454,0.373215z"/>
    <path id="_113872232" class="fil7" d="M6.78395 9.52054c-0.059185,0.00157681 -0.119535,0.00609485 -0.176912,0.0115397 -0.169864,0.0161092 -0.344291,0.0473107 -0.505905,0.102589 -0.0828693,0.0283504 -0.165629,0.0643145 -0.241445,0.110505l0.0179563 -0.266017c0.0506896,-0.0405336 0.134203,-0.0795613 0.186804,-0.100272 0.208165,-0.0819619 0.450002,-0.106624 0.673896,-0.104031 0.00747214,0.0185999 0.0137858,0.0387444 0.0183746,0.0550338 0.0173063,0.0614183 0.0255829,0.126312 0.0272305,0.190652z"/>
    <path id="_113872160" class="fil8" d="M6.16768 9.61343c-0.0223907,0.0066419 -0.0445947,0.0137279 -0.0665542,0.0212386 -0.0828693,0.0283504 -0.165629,0.0643145 -0.241445,0.110505l0.0179563 -0.266017c0.0506896,-0.0405336 0.134203,-0.0795613 0.186804,-0.100272 0.0176924,-0.0069637 0.0356488,-0.0134898 0.0537981,-0.0196425 0.00408683,0.0642694 0.0161285,0.157134 0.049441,0.254188z"/>
    <path id="_113872088" class="fil9" d="M6.78395 9.52054c-0.0137215,0.000366849 -0.0274944,0.00087529 -0.0412931,0.00153176 -0.00673201,-0.0373736 -0.0225258,-0.115564 -0.0451804,-0.170199 0,0 -0.378646,-0.0418466 -0.820578,0.138354l0.000746571 -0.0110698c0.0506896,-0.0405336 0.134203,-0.0795613 0.186804,-0.100272 0.208165,-0.0819619 0.450002,-0.106624 0.673896,-0.104031 0.00747214,0.0185999 0.0137858,0.0387444 0.0183746,0.0550338 0.0173063,0.0614183 0.0255829,0.126312 0.0272305,0.190652z"/>
    <path id="_113872016" class="fil1" d="M5.9162 9.49294c0.00904252,0.0018085 0.227871,-0.117553 0.576913,-0.139255 0,0 -0.296595,-0.0126595 -0.578721,0.0759571l-0.0379786 0.0397871 0.0397871 0.0235105z"/>
    <path id="_113871944" class="fil1" d="M6.81683 8.3789c0,0 -0.113331,-0.282126 -0.339999,-0.4467 0,0 -0.337978,0.12117 -0.509998,0.484679l0.400715 0.206169c0,0 0.329875,-0.00904252 0.449281,-0.244148z"/>
    <path id="_113871872" class="fil2" d="M6.72844 8.39974c-0.0422649,0.0592623 -0.137594,0.0716644 -0.212464,0.0968611 -0.0357002,0.0120159 -0.0820198,0.0230922 -0.123673,0.0277776l-0.319217 -0.12664c0.0834743,-0.138135 0.233561,-0.285711 0.386164,-0.365916 0.0970864,0.0868017 0.240743,0.257721 0.26919,0.367918z"/>
    <path id="_113871800" class="fil4" d="M6.72844 8.39974c-0.00155106,0.00217535 -0.00316649,0.0042606 -0.00485271,0.00631367 -0.019044,0.00189217 -0.0375602,0.0027932 -0.0375602,0.0027932 0,0 -0.0666765,-0.154978 -0.188316,-0.276617 0,0 -0.201832,0.0864992 -0.345096,0.257696 0,0 -0.0153176,-0.0666765 -0.00450517,-0.0883013 0.0108124,-0.0216248 0.227961,-0.215347 0.2613,-0.228863 0.0134254,-0.00544482 0.0414797,-0.0139403 0.0701776,-0.0221654 0.0957026,0.0909207 0.22233,0.246413 0.248853,0.349144z"/>
    <path id="_113871728" class="fil3" d="M6.13973 8.42417l-0.0666379 -0.0264325c0.0834743,-0.138135 0.233561,-0.285711 0.386164,-0.365916 0.0135863,0.0121511 0.0280994,0.0259691 0.0430694,0.0410163 -0.143947,0.0818267 -0.282892,0.220586 -0.362595,0.351332z"/>
    <path id="_113871656" class="fil1" d="M6.8932 8.57704c-0.164265,0.0946858 -0.294168,0.155029 -0.476518,0.218964 -0.268688,-0.101656 -0.493972,-0.177999 -0.724688,-0.290506 -0.0296955,-0.0941709 -0.0369424,-0.219923 -0.00623,-0.291555 0.239147,0.0907598 0.495414,0.192345 0.734561,0.283105 0.136667,-0.0528263 0.273348,-0.105665 0.410022,-0.158505 0.016328,-0.00630724 0.0326625,-0.0126273 0.0489905,-0.018941 0.0185098,-0.00715678 0.0370132,-0.01432 0.0555165,-0.0214639 0.010851,0.0759636 0.0017892,0.22818 -0.0416535,0.278902z"/>
    <path id="_113871584" class="fil7" d="M6.41737 8.72748c-0.225258,-0.0847293 -0.453748,-0.163724 -0.671206,-0.267317 -0.0113466,-0.0464483 -0.0191405,-0.107944 -0.0147705,-0.159953 0.222279,0.085019 0.443585,0.172567 0.666089,0.257007l0.0230472 0.00874646 0.0229892 -0.00888805c0.13668,-0.0528263 0.273348,-0.105665 0.410015,-0.158498 0.00691865,-0.00267092 0.0138373,-0.00534828 0.020756,-0.00802563 -0.000456953,0.0109669 -0.00117778,0.0217342 -0.00208525,0.0320189 -0.00200158,0.0226353 -0.00960888,0.0804172 -0.0232788,0.105672 -0.0673716,0.0385192 -0.135734,0.0748952 -0.206144,0.107654 -0.0737239,0.0343036 -0.148941,0.064218 -0.225413,0.0915836z"/>
    <path id="_113871512" class="fil9" d="M6.4248 8.56431l0.0187222 -0.00724045c0.13668,-0.0528263 0.273348,-0.105665 0.410015,-0.158498 0.00691865,-0.00267092 0.0138373,-0.00534828 0.020756,-0.00802563 -0.000456953,0.0109669 -0.00117778,0.0217342 -0.00208525,0.0320189 -0.00200158,0.0226353 -0.00960888,0.0804172 -0.0232788,0.105672 -0.0101109,0.00577949 -0.0202604,0.0115332 -0.0304228,0.0172097l0.0152918 -0.0978522 -0.411772 0.12164c0,0 0.000971829,-0.00176989 0.0027739,-0.00492351z"/>
    <path id="_113871440" class="fil8" d="M6.41737 8.72748c-0.225258,-0.0847293 -0.453748,-0.163724 -0.671206,-0.267317 -0.0113466,-0.0464483 -0.0191405,-0.107944 -0.0147705,-0.159953 0.222279,0.085019 0.443585,0.172567 0.666089,0.257007l0.0151824 0.00576018 0.00666121 0.163808 -0.00195653 0.000695083z"/>
    <rect id="_113871368" class="fil1" transform="matrix(-0.989592 -0.21448 -0.155901 0.976728 5.93126 8.34635)" width="0.0415956" height="0.238722"/>
    <rect id="_113871296" class="fil1" transform="matrix(-0.997374 -0.21448 -0.120461 0.976728 6.2228 8.44858)" width="0.0415956" height="0.238722"/>
    <rect id="_113871224" class="fil1" transform="matrix(1.00079 -0.21448 0.104893 0.976728 6.62201 8.44584)" width="0.0415956" height="0.238722"/>
    <path id="_113871152" class="fil1" d="M5.81158 9.84901c0,0 0.181005,0.133997 0.775384,0.179286 0,0 -0.40031,0.056173 -0.78805,-0.0615856l-0.00750432 -0.0614312 0.0201703 -0.0562695z"/>
    <ellipse id="_113871080" class="fil1" cx="5.85743" cy="9.6123" rx="0.133163" ry="0.241625"/>
    <ellipse id="_113871008" class="fil2" cx="5.84883" cy="9.61015" rx="0.0744275" ry="0.15439"/>
    <ellipse id="_113870936" class="fil1" cx="5.84284" cy="9.60741" rx="0.0461645" ry="0.0957619"/>
    <path id="_113870864" class="fil1" d="M6.40722 8.13494c0,0 -0.17455,0.182215 -0.243594,0.297302l-0.0422006 -0.023015c0,0 0.124677,-0.155364 0.285795,-0.274287z"/>
    <polygon id="_113870792" class="fil1" points="6.06088,8.63751 6.05003,9.07879 5.96865,8.60134 "/>
    <path id="_113870720" class="fil6" d="M6.6201 9.08834c0.016978,0 0.0307446,0.0137665 0.0307446,0.0307446 0,0.016978 -0.0137665,0.0307446 -0.0307446,0.0307446 -0.016978,0 -0.0307446,-0.0137665 -0.0307446,-0.0307446 0,-0.016978 0.0137665,-0.0307446 0.0307446,-0.0307446zm0.118486 -0.274024l-0.0398965 0.238755c-0.0125694,-0.00846972 -0.0235942,-0.0190376 -0.032611,-0.0311886 -0.00892023,0.00545769 -0.0193851,0.00858556 -0.0306094,0.00858556 -0.0324501,0 -0.0587731,-0.0263231 -0.0587731,-0.0587796 0,-0.0324501 0.0263231,-0.0587731 0.0587731,-0.0587731 0.00263874,0 0.00521956,0.000186643 0.0077682,0.000521312 0.010851,-0.048186 0.0478706,-0.086467 0.0953487,-0.0991201z"/>
   </g>
  </g>
 </g>
</svg>
