<?xml version="1.0" encoding="UTF-8"?>
<!DOCTYPE svg PUBLIC "-//W3C//DTD SVG 1.1//EN" "http://www.w3.org/Graphics/SVG/1.1/DTD/svg11.dtd">
<!-- Creator: CorelDRAW 2020 (64-Bit) -->
<svg xmlns="http://www.w3.org/2000/svg" xml:space="preserve" width="129.436mm" height="197.988mm" version="1.1" style="shape-rendering:geometricPrecision; text-rendering:geometricPrecision; image-rendering:optimizeQuality; fill-rule:evenodd; clip-rule:evenodd"
viewBox="0 0 4544.68 6951.64"
 xmlns:xlink="http://www.w3.org/1999/xlink"
 xmlns:xodm="http://www.corel.com/coreldraw/odm/2003">
 <defs>
  <style type="text/css">
   <![CDATA[
    .fil0 {fill:none}
    .fil1 {fill:#501D33}
    .fil2 {fill:#D77D75}
    .fil3 {fill:white}
   ]]>
  </style>
 </defs>
 <g id="Слой_x0020_1">
  <metadata id="CorelCorpID_0Corel-Layer"/>
  <rect id="_166536576" class="fil0" width="4544.68" height="6951.64"/>
  <g id="_843365408">
   <path class="fil1" d="M2134.67 2625.09c0,0 85.26,162.17 35.11,322.67 6.97,-0.28 25.78,-3.71 32.74,-4 54.84,-127.94 7.1,-263.66 -67.85,-318.67z"/>
   <path class="fil1" d="M2076.15 3034.68c0,0 67.58,-210.71 274.6,-103.37 0,0 -194.35,-0.28 -274.6,103.37z"/>
   <path class="fil1" d="M2081.15 3064.77c0,0 41.17,108.67 171,112.02 129.83,3.34 175.75,-103.66 175.75,-103.66 0,0 -194.75,118.7 -346.75,-8.36z"/>
   <path class="fil2" d="M2084.73 3053.91c0,0 67.92,60.81 177.68,58.44 109.77,-2.37 163.48,-84.5 163.48,-84.5 0,0 -157.16,52.12 -341.16,26.06z"/>
   <ellipse class="fil3" transform="matrix(0.627587 -0.16258 0.16258 0.627587 2225.66 2982.81)" rx="132.38" ry="38.09"/>
   <path class="fil2" d="M2405.71 2816.73c12.21,0 22.11,9.9 22.11,22.11 0,12.21 -9.9,22.11 -22.11,22.11 -12.21,0 -22.11,-9.9 -22.11,-22.11 0,-12.21 9.9,-22.11 22.11,-22.11zm93.19 173.74c5.24,0 9.48,4.24 9.48,9.48 0,5.24 -4.24,9.48 -9.48,9.48 -5.24,0 -9.48,-4.24 -9.48,-9.48 0,-5.24 4.24,-9.48 9.48,-9.48zm-75.02 -46.59c4.36,0 7.9,3.54 7.9,7.9 0,4.36 -3.54,7.9 -7.9,7.9 -4.36,0 -7.9,-3.54 -7.9,-7.9 0,-4.36 3.54,-7.9 7.9,-7.9zm-98.72 -62.39c4.36,0 7.9,3.54 7.9,7.9 0,4.36 -3.54,7.9 -7.9,7.9 -4.36,0 -7.9,-3.54 -7.9,-7.9 0,-4.36 3.54,-7.9 7.9,-7.9zm-202.96 -39.48c5.67,0 10.27,4.6 10.27,10.27 0,5.67 -4.6,10.27 -10.27,10.27 -5.67,0 -10.27,-4.6 -10.27,-10.27 0,-5.67 4.6,-10.27 10.27,-10.27zm35.54 47.38c5.24,0 9.48,4.24 9.48,9.48 0,5.24 -4.24,9.48 -9.48,9.48 -5.24,0 -9.48,-4.24 -9.48,-9.48 0,-5.24 4.24,-9.48 9.48,-9.48zm-118.46 96.34c7.42,0 13.43,6.01 13.43,13.42 0,7.42 -6.01,13.43 -13.43,13.43 -7.42,0 -13.43,-6.01 -13.43,-13.43 0,-7.41 6.01,-13.42 13.43,-13.42zm-100.29 30.01c6.54,0 11.85,5.31 11.85,11.85 0,6.54 -5.31,11.85 -11.85,11.85 -6.54,0 -11.85,-5.3 -11.85,-11.85 0,-6.54 5.3,-11.85 11.85,-11.85zm90.03 -86.08c5.67,0 10.26,4.6 10.26,10.26 0,5.67 -4.6,10.27 -10.26,10.27 -5.67,0 -10.27,-4.6 -10.27,-10.27 0,-5.67 4.6,-10.26 10.27,-10.26zm519.63 62.39c3.49,0 6.32,2.83 6.32,6.32 0,3.49 -2.83,6.32 -6.32,6.32 -3.49,0 -6.32,-2.83 -6.32,-6.32 0,-3.49 2.83,-6.32 6.32,-6.32zm-95.56 -79.76c6.54,0 11.85,5.3 11.85,11.84 0,6.54 -5.31,11.84 -11.85,11.84 -6.54,0 -11.84,-5.31 -11.84,-11.84 0,-6.54 5.31,-11.84 11.84,-11.84z"/>
  </g>
 </g>
</svg>
