<?xml version="1.0" encoding="UTF-8"?>
<!DOCTYPE svg PUBLIC "-//W3C//DTD SVG 1.1//EN" "http://www.w3.org/Graphics/SVG/1.1/DTD/svg11.dtd">
<!-- Creator: CorelDRAW 2020 (64-Bit) -->
<svg xmlns="http://www.w3.org/2000/svg" xml:space="preserve" width="129.436mm" height="197.988mm" version="1.1" style="shape-rendering:geometricPrecision; text-rendering:geometricPrecision; image-rendering:optimizeQuality; fill-rule:evenodd; clip-rule:evenodd"
viewBox="0 0 772.54 1181.7"
 xmlns:xlink="http://www.w3.org/1999/xlink"
 xmlns:xodm="http://www.corel.com/coreldraw/odm/2003">
 <defs>
  <style type="text/css">
   <![CDATA[
    .fil0 {fill:none}
    .fil4 {fill:#501D33}
    .fil2 {fill:#D96B74}
    .fil1 {fill:#FFB8A2}
    .fil3 {fill:#FFC9B7}
   ]]>
  </style>
 </defs>
 <g id="Слой_x0020_1">
  <metadata id="CorelCorpID_0Corel-Layer"/>
  <rect id="_166536576" class="fil0" width="772.54" height="1181.7"/>
  <g id="_800707344">
   <path class="fil1" d="M364.73 528.28c8.97,11.98 29.81,11.23 35.13,4.87 6.08,-7.26 0.03,2.44 2.53,0.04 13.95,3.85 20.09,-6.71 20.09,-6.71 2.74,-10.74 -6.28,-18.73 -11.56,-19.34l-0.06 -0.52c-1.43,-13.14 -6.65,-30.66 -18.68,-37.28 -24.25,-13.35 -36.23,47.22 -27.45,58.93z"/>
   <path class="fil2" d="M401.49 531.3c3.21,-3.39 -1.31,4.01 0.91,1.89 13.95,3.85 20.09,-6.71 20.09,-6.71 2.01,-7.89 -2.32,-14.3 -6.86,-17.39 -0.43,-0.12 -0.87,-0.24 -1.33,-0.35 0,0 6.71,10.97 -6.47,10.19 0,0 -3.49,6.68 -6.34,12.37z"/>
   <ellipse class="fil3" transform="matrix(-0.460429 -1.07716 1.07716 -0.460429 382.295 507.142)" rx="7.61" ry="12.87"/>
   <g>
    <path class="fil1" d="M349.52 525.04c0,0 4.94,11.17 19.23,8.88 0,0 -4.82,-13.29 -2.52,-22.69 2.3,-9.4 -18.91,-1.93 -16.71,13.81z"/>
    <path class="fil2" d="M352.16 528.81c2.79,3 8,6.48 16.59,5.11 0,0 -4.52,-9.17 -4.23,-17.75 -1.78,-0.71 -2.17,-1.15 -3.12,-0.56 0,0 3.27,9.13 -9.23,13.2z"/>
    <path class="fil4" d="M363.69 502.84c0,0 -13.64,1.03 -17.31,11.52 -3.67,10.49 6.38,17.07 10.44,18.17 0,0 -6.76,-4.77 -4.78,-13.71 1.25,-5.66 7.31,-8.54 11.25,-7.65l0.4 -8.33z"/>
   </g>
   <path class="fil4" d="M361.67 531.37c4.15,6.26 11.75,10.63 20.11,11.41 10.24,0.95 23.09,-5.38 26.95,-18.7 1.28,-4.42 0.47,-8.86 -2.99,-2.45 -3.66,6.77 -10.23,14.51 -21.22,14.01 -7.4,-0.33 -14.7,-5.26 -17.31,-11.66 -7.24,-17.73 9.27,-27.63 19.44,-27.39 -11.62,-3.99 -26.13,1.44 -28.88,14.97 -1.38,6.78 0.44,14.58 3.91,19.81z"/>
   <path class="fil4" d="M426.94 516.3c2.35,9.82 -8.61,16.21 -12.77,16.85 0,0 7.18,-4.87 6.09,-13.01 -1.16,-8.67 -8,-11.97 -12.09,-12.76 6.35,-2.94 16.42,-0.9 18.77,8.92z"/>
   <path class="fil2" d="M368.78 522.24c8.06,17.83 29.49,14.7 36.08,-4.34 -4.9,5.13 -21.71,15 -36.08,4.34z"/>
  </g>
 </g>
</svg>
