<?xml version="1.0" encoding="UTF-8"?>
<!DOCTYPE svg PUBLIC "-//W3C//DTD SVG 1.1//EN" "http://www.w3.org/Graphics/SVG/1.1/DTD/svg11.dtd">
<!-- Creator: CorelDRAW 2020 (64-Bit) -->
<svg xmlns="http://www.w3.org/2000/svg" xml:space="preserve" width="129.436mm" height="197.988mm" version="1.1" style="shape-rendering:geometricPrecision; text-rendering:geometricPrecision; image-rendering:optimizeQuality; fill-rule:evenodd; clip-rule:evenodd"
viewBox="0 0 2179.64 3334.03"
 xmlns:xlink="http://www.w3.org/1999/xlink"
 xmlns:xodm="http://www.corel.com/coreldraw/odm/2003">
 <defs>
  <style type="text/css">
   <![CDATA[
    .fil0 {fill:none}
    .fil4 {fill:#501D33}
    .fil3 {fill:#D77D75}
    .fil2 {fill:#FFE6B8}
    .fil1 {fill:white}
   ]]>
  </style>
 </defs>
 <g id="Слой_x0020_1">
  <metadata id="CorelCorpID_0Corel-Layer"/>
  <rect id="_166536576" class="fil0" width="2179.64" height="3334.03"/>
  <g id="_843368576">
   <path class="fil1" d="M1133.47 1391.14c0,0 -67.61,20.32 -59.41,28.95 8.2,8.63 87.91,10.65 87.91,10.65l-134.75 22.42 -17.23 -20.56c0,0 59.3,-41.99 123.49,-41.45z"/>
   <path class="fil2" d="M1042.31 1186.25c0,0 69.29,108.19 56.63,204.11l-28.14 0.72c0,0 7.64,-71.61 -28.49,-204.83z"/>
   <path class="fil3" d="M1011.51 1441.32c0,0 32.75,55.43 66.59,63.96 38.22,9.64 88.38,-33.29 89.21,-74.08 0,0 -101.53,4.51 -144.54,2.39l-11.13 0.19 -0.14 7.54z"/>
   <path class="fil4" d="M1031.5 1175.71c0,0 47.61,124.37 16.02,230.39l31.69 -6.17c0,0 14.12,-118.55 -47.71,-224.22z"/>
   <path class="fil4" d="M999.31 1439.93c0,0 -5.51,-21.46 2.81,-28.16 8.32,-6.71 77.94,-32.49 132.66,-19.42 0,0 -81.84,15.26 -114.36,38.06 0,0 17.22,55.29 67.63,76.65 -30.48,5.53 -80.92,-27.93 -88.75,-67.12z"/>
   <path class="fil4" d="M1016.02 1421.18c0,0 34.88,14.75 98.97,12.32 0,0 -56.95,18.45 -97.44,11.63l-4.98 -16.54 3.45 -7.41z"/>
  </g>
 </g>
</svg>
