<?xml version="1.0" encoding="UTF-8"?>
<!DOCTYPE svg PUBLIC "-//W3C//DTD SVG 1.1//EN" "http://www.w3.org/Graphics/SVG/1.1/DTD/svg11.dtd">
<!-- Creator: CorelDRAW 2020 (64-Bit) -->
<svg xmlns="http://www.w3.org/2000/svg" xml:space="preserve" width="129.436mm" height="197.988mm" version="1.1" style="shape-rendering:geometricPrecision; text-rendering:geometricPrecision; image-rendering:optimizeQuality; fill-rule:evenodd; clip-rule:evenodd"
viewBox="0 0 1729.6 2645.64"
 xmlns:xlink="http://www.w3.org/1999/xlink"
 xmlns:xodm="http://www.corel.com/coreldraw/odm/2003">
 <defs>
  <style type="text/css">
   <![CDATA[
    .fil0 {fill:none}
    .fil3 {fill:#501D33}
    .fil5 {fill:#D56853}
    .fil2 {fill:#D77D75}
    .fil4 {fill:#F8C578}
    .fil1 {fill:#FFCFA5}
    .fil7 {fill:#FFE0B3}
    .fil6 {fill:#FFEBBA}
    .fil8 {fill:#FFFF99}
   ]]>
  </style>
 </defs>
 <g id="Слой_x0020_1">
  <metadata id="CorelCorpID_0Corel-Layer"/>
  <rect id="_166536576" class="fil0" width="1729.6" height="2645.64"/>
  <g id="_843365984">
   <path class="fil1" d="M791.73 1184.24c18.58,26.46 137.05,25.84 152.74,-12.02 10.25,-24.75 -7.43,-57.98 -14.14,-58.69 -6.72,-0.71 -79.19,-41.72 -135.76,3.18 0,0 -19.09,15.91 -17.68,32.88l14.85 34.65z"/>
   <path class="fil2" d="M791.73 1184.24c18.58,26.46 137.05,25.84 152.74,-12.02l0.01 -0.02c-10.5,-22.77 -37.15,-25.53 -52.63,-12.72 -21.57,17.84 -33.14,21.39 -52.89,5.98 -15.98,-12.47 -45.34,-14.96 -50.17,11.9l2.95 6.89z"/>
   <path class="fil2" d="M863.72 1093.43c64.68,-15.51 75.12,12.17 82.27,33.07 0.07,0.2 -27.72,-29.1 -82.27,-33.07z"/>
   <path class="fil3" d="M797.84 1171.15c0,0 30.05,1.77 40.3,27.58 7.51,-35.41 -21.73,-37.76 -40.3,-27.58z"/>
   <path class="fil3" d="M923.54 1171.15c0,0 -30.05,1.77 -40.3,27.58 -5.91,-34.85 22.95,-37.37 40.3,-27.58z"/>
   <path class="fil3" d="M813.39 1103.98c-40.03,3.29 -70.76,47.27 -20.86,81.32 0,0 -27.93,-46.31 20.86,-81.32z"/>
   <path class="fil3" d="M915.92 1103.98c39.93,6.21 70.62,48.83 16.97,81.32 0,0 29.7,-45.26 -16.97,-81.32z"/>
   <path class="fil3" d="M911.69 1167.45c38,43.6 7.77,104.86 -49.7,106.09 -58.01,1.23 -87.25,-66.47 -52.29,-105.14l29.29 19.49c-9.69,21.34 -2.07,43 23.17,43 25.24,0 31.79,-24.65 20.7,-42.46l28.82 -20.97z"/>
   <path class="fil4" d="M902.98 1172.24c8.06,9.47 12.93,21.74 12.93,35.15 0,29.97 -24.3,54.27 -54.27,54.27 -29.97,0 -54.27,-24.3 -54.27,-54.27 0,-13.09 4.64,-25.1 12.36,-34.47 6.65,-1.45 9.98,2.03 11.21,8.59 -16.88,24.57 -2.87,61.57 30.88,60.71 32.86,-0.83 49.7,-35.24 31.24,-60.7 -0.25,-6.53 3.34,-9.35 9.92,-9.28z"/>
   <path class="fil5" d="M902.98 1172.24c8.06,9.47 12.93,21.74 12.93,35.15l-0.01 0.45c-8.57,-4.28 -13.47,0 -15.95,3.83 1.98,-9.82 0.02,-20.61 -6.89,-30.15 -0.25,-6.53 3.34,-9.35 9.92,-9.28zm-95.59 36.69c-0.01,-0.51 -0.02,-1.02 -0.02,-1.54 0,-13.09 4.64,-25.1 12.36,-34.47 6.65,-1.45 9.98,2.03 11.21,8.59 -6.16,8.97 -8.2,19.59 -6.67,29.43 -7.87,-5.76 -13.43,-4.44 -16.87,-2.01z"/>
   <ellipse class="fil6" transform="matrix(0.708231 -0.20307 0.20307 0.708231 837.303 1113.19)" rx="42.43" ry="17.68"/>
   <ellipse class="fil6" transform="matrix(0.277813 -0.0404209 0.0796568 0.387181 812.563 1137.89)" rx="42.43" ry="17.68"/>
   <path class="fil7" d="M808.97 1102.94c1.96,1.2 38.76,-25.42 39.24,-62.6 0.21,-16.37 -11.5,-37.9 -35,-45.59 0,0 21.21,49.43 -4.24,108.19z"/>
   <path class="fil8" d="M860.83 1244.91c14.45,0 25.97,-5.3 25.97,1.94 0,7.24 -11.71,13.12 -26.16,13.12 -14.45,0 -26.16,-5.87 -26.16,-13.12 0,-7.25 11.9,-1.94 26.35,-1.94z"/>
   <path class="fil3" d="M943.22 1171.21c0,0 -10.08,-21.39 -43.49,-16.26 0,0 23.51,-15.73 48.61,0.18l0.18 7.43 -5.3 8.66z"/>
  </g>
  <path class="fil2" d="M918.11 1036.57c4.46,0 8.08,3.62 8.08,8.08 0,4.46 -3.62,8.08 -8.08,8.08 -4.46,0 -8.08,-3.62 -8.08,-8.08 0,-4.46 3.62,-8.08 8.08,-8.08zm34.03 63.45c1.91,0 3.46,1.55 3.46,3.46 0,1.91 -1.55,3.46 -3.46,3.46 -1.91,0 -3.46,-1.55 -3.46,-3.46 0,-1.91 1.55,-3.46 3.46,-3.46zm-27.4 -17.02c1.59,0 2.88,1.29 2.88,2.88 0,1.59 -1.29,2.88 -2.88,2.88 -1.59,0 -2.88,-1.29 -2.88,-2.88 0,-1.59 1.29,-2.88 2.88,-2.88zm-36.05 -22.79c1.59,0 2.88,1.29 2.88,2.88 0,1.59 -1.29,2.88 -2.88,2.88 -1.59,0 -2.88,-1.29 -2.88,-2.88 0,-1.59 1.29,-2.88 2.88,-2.88zm-74.13 -14.42c2.07,0 3.75,1.68 3.75,3.75 0,2.07 -1.68,3.75 -3.75,3.75 -2.07,0 -3.75,-1.68 -3.75,-3.75 0,-2.07 1.68,-3.75 3.75,-3.75zm12.98 17.31c1.91,0 3.46,1.55 3.46,3.46 0,1.91 -1.55,3.46 -3.46,3.46 -1.91,0 -3.46,-1.55 -3.46,-3.46 0,-1.91 1.55,-3.46 3.46,-3.46zm-43.26 35.19c2.71,0 4.9,2.2 4.9,4.9 0,2.71 -2.2,4.9 -4.9,4.9 -2.71,0 -4.9,-2.2 -4.9,-4.9 0,-2.71 2.2,-4.9 4.9,-4.9zm-36.63 10.96c2.39,0 4.33,1.94 4.33,4.33 0,2.39 -1.94,4.33 -4.33,4.33 -2.39,0 -4.33,-1.94 -4.33,-4.33 0,-2.39 1.94,-4.33 4.33,-4.33zm32.88 -31.44c2.07,0 3.75,1.68 3.75,3.75 0,2.07 -1.68,3.75 -3.75,3.75 -2.07,0 -3.75,-1.68 -3.75,-3.75 0,-2.07 1.68,-3.75 3.75,-3.75zm189.79 22.79c1.27,0 2.31,1.03 2.31,2.31 0,1.27 -1.03,2.31 -2.31,2.31 -1.27,0 -2.31,-1.03 -2.31,-2.31 0,-1.27 1.03,-2.31 2.31,-2.31zm-34.9 -29.13c2.39,0 4.33,1.94 4.33,4.33 0,2.39 -1.94,4.33 -4.33,4.33 -2.39,0 -4.33,-1.94 -4.33,-4.33 0,-2.39 1.94,-4.33 4.33,-4.33z"/>
 </g>
</svg>
