<?xml version="1.0" encoding="UTF-8"?>
<!DOCTYPE svg PUBLIC "-//W3C//DTD SVG 1.1//EN" "http://www.w3.org/Graphics/SVG/1.1/DTD/svg11.dtd">
<!-- Creator: CorelDRAW 2020 (64-Bit) -->
<svg xmlns="http://www.w3.org/2000/svg" xml:space="preserve" width="129.436mm" height="197.988mm" version="1.1" style="shape-rendering:geometricPrecision; text-rendering:geometricPrecision; image-rendering:optimizeQuality; fill-rule:evenodd; clip-rule:evenodd"
viewBox="0 0 1433.6 2192.87"
 xmlns:xlink="http://www.w3.org/1999/xlink"
 xmlns:xodm="http://www.corel.com/coreldraw/odm/2003">
 <defs>
  <style type="text/css">
   <![CDATA[
    .fil0 {fill:none}
    .fil4 {fill:#501D33}
    .fil3 {fill:#D77D75}
    .fil2 {fill:#FFE6B8}
    .fil1 {fill:white}
   ]]>
  </style>
 </defs>
 <g id="Слой_x0020_1">
  <metadata id="CorelCorpID_0Corel-Layer"/>
  <rect id="_166536576" class="fil0" width="1433.6" height="2192.87"/>
  <g id="_843346880">
   <path class="fil1" d="M745.51 914.98c0,0 -44.47,13.36 -39.08,19.04 5.39,5.68 57.82,7 57.82,7l-88.63 14.74 -11.33 -13.53c0,0 39,-27.62 81.22,-27.26z"/>
   <path class="fil2" d="M685.55 780.22c0,0 45.57,71.16 37.25,134.25l-18.51 0.47c0,0 5.03,-47.1 -18.74,-134.72z"/>
   <path class="fil3" d="M665.29 947.99c0,0 21.54,36.46 43.8,42.07 25.14,6.34 58.13,-21.89 58.68,-48.72 0,0 -66.78,2.97 -95.07,1.57l-7.32 0.12 -0.09 4.96z"/>
   <path class="fil4" d="M678.44 773.29c0,0 31.31,81.8 10.54,151.53l20.84 -4.06c0,0 9.29,-77.97 -31.38,-147.47z"/>
   <path class="fil4" d="M657.27 947.08c0,0 -3.62,-14.11 1.85,-18.52 5.47,-4.41 51.26,-21.37 87.25,-12.77 0,0 -53.83,10.04 -75.22,25.03 0,0 11.33,36.36 44.48,50.41 -20.05,3.63 -53.23,-18.37 -58.37,-44.15z"/>
   <path class="fil4" d="M668.26 934.74c0,0 22.94,9.7 65.09,8.1 0,0 -37.46,12.14 -64.09,7.65l-3.27 -10.88 2.27 -4.87z"/>
  </g>
 </g>
</svg>
