<?xml version="1.0" encoding="UTF-8"?>
<!DOCTYPE svg PUBLIC "-//W3C//DTD SVG 1.1//EN" "http://www.w3.org/Graphics/SVG/1.1/DTD/svg11.dtd">
<!-- Creator: CorelDRAW 2020 (64-Bit) -->
<svg xmlns="http://www.w3.org/2000/svg" xml:space="preserve" width="129.436mm" height="197.988mm" version="1.1" style="shape-rendering:geometricPrecision; text-rendering:geometricPrecision; image-rendering:optimizeQuality; fill-rule:evenodd; clip-rule:evenodd"
viewBox="0 0 1224.11 1872.42"
 xmlns:xlink="http://www.w3.org/1999/xlink"
 xmlns:xodm="http://www.corel.com/coreldraw/odm/2003">
 <defs>
  <style type="text/css">
   <![CDATA[
    .fil0 {fill:none}
    .fil3 {fill:#501D33}
    .fil1 {fill:#D77D75}
    .fil2 {fill:#F9F9F9}
    .fil4 {fill:#FFE0B3}
   ]]>
  </style>
 </defs>
 <g id="Слой_x0020_1">
  <metadata id="CorelCorpID_0Corel-Layer"/>
  <rect id="_166536576" class="fil0" width="1224.11" height="1872.42"/>
  <g id="_801466688">
   <path class="fil1" d="M568.84 809.75c0,0 3.89,12.15 34.91,11.89 10.56,-0.09 18.9,-4.31 25.83,-8.02 6.26,-3.35 11.38,-6.3 15.95,-5.41 7.06,1.36 16.29,10.92 13.47,18.5 -4.63,12.41 -33.18,18.35 -45.98,17.2 -23.64,-2.12 -48.67,-18.39 -44.16,-34.15z"/>
   <path class="fil2" d="M570.36 810.37c44.84,-23.57 58.05,-109.11 1.25,-140.63 0,0 43.79,55.55 -1.25,140.63z"/>
   <path class="fil3" d="M568.88 666.32c0,0 51.85,76.92 -18.89,142.46 0,0 18.22,44.15 74.14,34.77 0,0 -47.73,-5.9 -53.21,-32.76 0,0 67.61,-70.58 -2.04,-144.48z"/>
   <path class="fil3" d="M624.24 837.89c-0.36,-18.45 19.57,-34.12 31.97,-13.74 0,0 -20.68,3.98 -31.97,13.74z"/>
   <path class="fil1" d="M643.79 698.52c0,0 -15.51,54.55 11.01,100.09 -34.3,-36.02 -35.61,-57.8 -11.01,-100.09z"/>
   <path class="fil4" d="M592.73 817.54c11.73,1.47 26.71,0.52 39.54,-9.3 20.15,-15.41 -21.41,-10.23 -46.06,-2.67 -8.15,2.5 -11.64,4.63 -11.16,6.4 0.73,2.72 9.78,4.57 17.68,5.56z"/>
  </g>
 </g>
</svg>
