<?xml version="1.0" encoding="UTF-8"?>
<!DOCTYPE svg PUBLIC "-//W3C//DTD SVG 1.1//EN" "http://www.w3.org/Graphics/SVG/1.1/DTD/svg11.dtd">
<!-- Creator: CorelDRAW 2020 (64-Bit) -->
<svg xmlns="http://www.w3.org/2000/svg" xml:space="preserve" width="129.436mm" height="197.988mm" version="1.1" style="shape-rendering:geometricPrecision; text-rendering:geometricPrecision; image-rendering:optimizeQuality; fill-rule:evenodd; clip-rule:evenodd"
viewBox="0 0 1068.04 1633.69"
 xmlns:xlink="http://www.w3.org/1999/xlink"
 xmlns:xodm="http://www.corel.com/coreldraw/odm/2003">
 <defs>
  <style type="text/css">
   <![CDATA[
    .fil0 {fill:none}
    .fil4 {fill:#501D33}
    .fil3 {fill:#D77D75}
    .fil1 {fill:#FFE0B3}
    .fil2 {fill:white}
   ]]>
  </style>
 </defs>
 <g id="Слой_x0020_1">
  <metadata id="CorelCorpID_0Corel-Layer"/>
  <rect id="_166536576" class="fil0" width="1068.04" height="1633.69"/>
  <g id="_800726688">
   <ellipse class="fil1" cx="532.06" cy="708.03" rx="21.23" ry="7.7"/>
   <path class="fil2" d="M499.38 705.57c0,0 18.89,6.11 33.29,6.66 14.41,0.55 28.71,-3.06 28.71,-3.06 0,0 -15.06,18.56 -29.47,19.1 -14.41,0.55 -34.82,-11.79 -32.53,-22.71z"/>
   <path class="fil3" d="M499.56 706.5c0,0 19.21,12.55 33.4,12.66 14.19,0.11 34.28,-14.41 34.28,-14.41 0,0 6.33,13.32 -27.51,33.84 0,0 -8.08,6.55 -18.78,-2.62 -10.7,-9.17 -21.61,-18.34 -21.61,-18.34 0,0 -5.02,-6.22 0.22,-11.13z"/>
   <path class="fil4" d="M509.61 687.7c-7.44,5.31 -21.73,13.86 -22.26,22.29 -0.51,8.08 21.13,22.97 33.96,27.64 5.72,2.08 6.41,2.11 1.72,-1.89 -12.67,-10.81 -24.2,-18.26 -23.24,-27.49 0.58,-5.62 3.79,-8.65 11.44,-18.35 4.26,-5.41 1.14,-4.17 -1.63,-2.2zm45.34 0c7.44,5.31 22.5,14.31 23.13,21.64 0.8,9.39 -22,23.63 -34.84,28.3 -5.72,2.08 -6.41,2.11 -1.72,-1.89 12.67,-10.81 24.2,-18.26 23.24,-27.49 -0.58,-5.62 -3.79,-8.65 -11.44,-18.35 -4.26,-5.41 -1.14,-4.17 1.63,-2.2z"/>
   <path class="fil1" d="M469.89 571.96c0,0 43.23,39.09 42.35,108.23 0,0 10.48,-22.22 -0.44,-62.14 -10.92,-39.92 -41.92,-46.09 -41.92,-46.09z"/>
   <path class="fil3" d="M592.53 571.96c0,0 -43.23,39.09 -42.35,108.23 0,0 -10.48,-22.22 0.44,-62.14 10.92,-39.92 41.92,-46.09 41.92,-46.09z"/>
   <path class="fil3" d="M516.73 684.39c0,0 15.06,-6.77 32.42,0.66 0,0 -7.1,-12.99 -17.68,-12.55 -10.59,0.44 -14.74,11.9 -14.74,11.9z"/>
  </g>
 </g>
</svg>
