<?xml version="1.0" encoding="UTF-8"?>
<!DOCTYPE svg PUBLIC "-//W3C//DTD SVG 1.1//EN" "http://www.w3.org/Graphics/SVG/1.1/DTD/svg11.dtd">
<!-- Creator: CorelDRAW 2020 (64-Bit) -->
<svg xmlns="http://www.w3.org/2000/svg" xml:space="preserve" width="129.436mm" height="197.988mm" version="1.1" style="shape-rendering:geometricPrecision; text-rendering:geometricPrecision; image-rendering:optimizeQuality; fill-rule:evenodd; clip-rule:evenodd"
viewBox="0 0 947.26 1448.95"
 xmlns:xlink="http://www.w3.org/1999/xlink"
 xmlns:xodm="http://www.corel.com/coreldraw/odm/2003">
 <defs>
  <style type="text/css">
   <![CDATA[
    .fil0 {fill:none}
    .fil2 {fill:#501D33}
    .fil1 {fill:#D77D75}
    .fil3 {fill:#FFE0B3}
    .fil4 {fill:white}
   ]]>
  </style>
 </defs>
 <g id="Слой_x0020_1">
  <metadata id="CorelCorpID_0Corel-Layer"/>
  <rect id="_166536576" class="fil0" width="947.26" height="1448.95"/>
  <g id="_800723472">
   <path class="fil1" d="M434.14 625.63c0,0 -0.19,12.39 11.72,7.94 0,0 8.52,20.04 27.5,19.07 18.98,-0.97 24.88,-19.46 24.88,-19.46 0,0 9,4.16 12.2,-7.94 0,0 8.33,14.43 -19.46,22.75l-13.84 8.13 -18.59 -2.32 -5.03 -3.58c0,0 -24.3,-8.23 -19.36,-24.59z"/>
   <path class="fil2" d="M445.48 632.53c0,0 -0.03,5.77 4.77,11.28 -24.53,-8.62 -13.77,-25.02 -6.22,-35.56 -8.52,3.49 -19.8,16.33 -17.81,26.53 1.99,10.2 18,17.3 30.63,20.27 8.82,7.04 20.41,6.65 29.23,-0.39 9.33,-1.62 29.41,-7.36 32.37,-19.3 2.96,-11.94 -12.78,-25.37 -18.01,-27.11 7.55,10.53 17.92,26.93 -6.61,35.56 4.22,-6.09 4.77,-11.28 4.77,-11.28 -17.38,22.34 -35.91,22.12 -53.12,0z"/>
   <path class="fil1" d="M449.26 605.07c0,0 18.25,-10.96 44.35,-0.58 0,0 -7.12,-13.32 -23.17,-12.09 -16.05,1.23 -21.18,12.67 -21.18,12.67z"/>
   <ellipse class="fil3" cx="471.71" cy="615.17" rx="26.53" ry="13.07"/>
   <ellipse class="fil4" transform="matrix(0.81057 0.758824 -0.758824 0.81057 450.956 612.949)" rx="5.42" ry="9.49"/>
   <ellipse class="fil4" transform="matrix(0.604622 0.360677 -0.317273 0.385273 465.32 610.378)" rx="5.42" ry="9.49"/>
   <path class="fil1" d="M449.05 632.7c0,0 8.48,14.04 22.95,14.33 14.47,0.29 23.04,-15.1 23.04,-15.1 0,0 -21.57,16.56 -45.99,0.78z"/>
  </g>
 </g>
</svg>
