<?xml version="1.0" encoding="UTF-8"?>
<!DOCTYPE svg PUBLIC "-//W3C//DTD SVG 1.1//EN" "http://www.w3.org/Graphics/SVG/1.1/DTD/svg11.dtd">
<!-- Creator: CorelDRAW 2020 (64-Bit) -->
<svg xmlns="http://www.w3.org/2000/svg" xml:space="preserve" width="129.436mm" height="197.988mm" version="1.1" style="shape-rendering:geometricPrecision; text-rendering:geometricPrecision; image-rendering:optimizeQuality; fill-rule:evenodd; clip-rule:evenodd"
viewBox="0 0 851.03 1301.75"
 xmlns:xlink="http://www.w3.org/1999/xlink"
 xmlns:xodm="http://www.corel.com/coreldraw/odm/2003">
 <defs>
  <style type="text/css">
   <![CDATA[
    .fil0 {fill:none}
    .fil3 {fill:#501D33}
    .fil2 {fill:#D96B74}
    .fil1 {fill:#FFB8A2}
    .fil4 {fill:#FFC9B7}
    .fil5 {fill:white}
   ]]>
  </style>
 </defs>
 <g id="Слой_x0020_1">
  <metadata id="CorelCorpID_0Corel-Layer"/>
  <rect id="_166536576" class="fil0" width="851.03" height="1301.75"/>
  <g id="_800737008">
   <path class="fil1" d="M394.8 554.36c0,0 11.48,-49.75 30.97,-48.36 19.48,1.39 31.31,51.84 31.31,51.84 0,0 -33.05,8.7 -62.28,-3.48z"/>
   <path class="fil1" d="M420.23 540.01c0,0 -23.66,8.52 -30.1,20.88 0,0 -6.61,16.53 8.35,27.31 0,0 37.05,16.53 64.02,-7.83l0.52 -17.4c0,0 -22.79,-19.66 -27.31,-20.53 -4.52,-0.87 -9.05,-4.7 -15.48,-2.44z"/>
   <path class="fil2" d="M397.59 587.53c0.29,0.23 0.58,0.45 0.89,0.67 0,0 25.03,14.42 55.18,-0.71 4.13,-8.91 -7.27,-11.73 -7.27,-11.73 0,0 -14.79,10.61 -15.31,10.96 -0.52,0.35 -7.57,1.57 -10.61,0.78 -3.04,-0.78 -13.57,-10.7 -13.57,-10.7l-4.7 -0.78c-6.52,2.87 -4.61,11.48 -4.61,11.48l-0 0.03z"/>
   <path class="fil3" d="M399.16 580.94c0,0 4.21,-4.95 9.57,0.35 7.21,7.13 11.89,11.1 16.91,10.96 5.81,-0.16 10.05,-5.2 17.35,-11.19 5.83,-4.78 8.87,-0.96 8.87,-0.96 3.38,1.65 1.64,-7.78 -4.53,-8.43 -1.74,-0.19 -4.03,2.52 -6.16,4.43 -11.44,10.24 -17.94,14.66 -30.92,0.79 -2.28,-2.44 -4.57,-4.83 -6.57,-4.72 -5.9,0.31 -7.9,10.44 -4.53,8.78z"/>
   <path class="fil3" d="M397.77 553.24c0,0 -14.96,3.48 -15.31,17.74 -0.35,14.26 16.7,17.57 16.7,17.57 0,0 -9.38,-7.29 -9.32,-18.27 0.03,-5.02 2.58,-10.94 7.93,-17.05z"/>
   <path class="fil3" d="M453.26 553.18c0,0 15.31,3.31 15.66,17.57 0.35,14.26 -17.05,17.74 -17.05,17.74 0,0 9.38,-7.29 9.32,-18.27 -0.03,-5.02 -2.58,-10.94 -7.93,-17.05z"/>
   <path class="fil3" d="M404.19 547.02c0,0 22.03,-11.77 44.2,1.99 -12.25,-16.87 -30.49,-18.17 -44.2,-1.99z"/>
   <path class="fil4" d="M433.7 547.1c3.66,10.73 -30.65,27.18 -35.51,12.95 -1.69,-4.96 4.24,-11.81 12.6,-14.67 8.37,-2.86 21.22,-3.24 22.91,1.71z"/>
   <path class="fil2" d="M408.98 571.67c0,0 7.55,12.26 16.28,12.18 8.73,-0.09 17.29,-12.53 17.29,-12.53 0,0 -16.87,11.22 -33.58,0.35z"/>
   <ellipse class="fil5" transform="matrix(0.971141 -0.238507 0.238507 0.971141 415.811 548.748)" rx="9.92" ry="4.74"/>
   <ellipse class="fil5" transform="matrix(0.409364 -0.0789746 0.0247878 0.547573 406.934 558.055)" rx="9.92" ry="4.74"/>
  </g>
 </g>
</svg>
