<?xml version="1.0" encoding="UTF-8"?>
<!DOCTYPE svg PUBLIC "-//W3C//DTD SVG 1.1//EN" "http://www.w3.org/Graphics/SVG/1.1/DTD/svg11.dtd">
<!-- Creator: CorelDRAW -->
<svg xmlns="http://www.w3.org/2000/svg" xml:space="preserve" width="161.909mm" height="176.792mm" style="shape-rendering:geometricPrecision; text-rendering:geometricPrecision; image-rendering:optimizeQuality; fill-rule:evenodd; clip-rule:evenodd"
viewBox="0 0 22.9558 25.066"
 xmlns:xlink="http://www.w3.org/1999/xlink">
 <defs>
  <style type="text/css">
   <![CDATA[
    .fil0 {fill:none}
    .fil1 {fill:#501D33}
    .fil9 {fill:#525B75}
    .fil7 {fill:#65798E}
    .fil3 {fill:#947B70}
    .fil2 {fill:#C8B99F}
    .fil6 {fill:#D77D75}
    .fil4 {fill:#E7DFCA}
    .fil5 {fill:#FFCFA5}
    .fil8 {fill:white}
   ]]>
  </style>
 </defs>
 <g id="Layer_x0020_1">
  <metadata id="CorelCorpID_0Corel-Layer"/>
  <rect class="fil0" width="22.9558" height="25.066"/>
  <g id="_121760208">
   <path id="_123309408" class="fil1" d="M16.7126 2.60022c2.36724,1.0622 4.30764,5.1683 4.48059,7.33118 0.198127,2.47779 0.167431,3.98568 -1.27778,7.01278 0,0 -0.330239,0.633412 -1.40428,0.372079 -0.472376,0.0330636 -0.93677,-0.107655 -1.16673,-0.437441 -0.00558622,-0.0080107 -0.616186,-0.101459 -0.904259,-0.381876 -0.130667,-0.127207 -0.21368,-0.240307 -0.166708,-0.471752 0.061491,-0.303017 0.152274,-0.674061 0.152274,-0.674061 0,0 -0.534165,-0.532506 -0.446699,-0.759046 0.0874655,-0.22654 1.17977,-1.17318 1.18159,-1.18225 0.749532,-3.43692 0.0145327,-6.36876 -1.94904,-8.73689l-1.57758 -2.08889c0.79252,-0.233997 2.23816,-0.360949 3.07863,0.0161774z"/>
   <path id="_123309336" class="fil1" d="M6.27338 2.60022c-2.36724,1.0622 -4.30764,5.1683 -4.48059,7.33118 -0.198127,2.47779 -0.167431,3.98568 1.27778,7.01278 0,0 0.318273,0.641437 1.39232,0.380104 0.480344,0.0450159 0.952706,-0.151537 1.18268,-0.481322 0.00558622,-0.00802488 0.612202,-0.0655885 0.900275,-0.34602 0.130681,-0.127207 0.21368,-0.240307 0.166708,-0.471752 -0.061491,-0.303017 -0.152274,-0.674061 -0.152274,-0.674061 0,0 0.534165,-0.532506 0.446699,-0.759046 -0.0874655,-0.22654 -1.17977,-1.17318 -1.18159,-1.18225 -0.749532,-3.43692 -0.0145327,-6.36876 1.94904,-8.73689l1.57758 -2.08889c-0.79252,-0.233997 -2.23816,-0.360949 -3.07863,0.0161774z"/>
   <g>
    <path id="_123309264" class="fil1" d="M7.16719 13.0191c-0.419477,-2.54985 -0.614981,-6.91461 -0.869834,-8.91233 0.449932,-1.85263 3.98893,-1.28453 5.19451,-1.03395 1.20557,-0.250586 4.74457,-0.818679 5.19451,1.03395 -0.254854,1.99773 -0.498336,6.3545 -0.917813,8.90435 -2.24471,0.872868 -6.35665,0.880879 -8.60136,0.00798234z"/>
    <path id="_123309192" class="fil2" d="M7.53343 12.8368c-0.414798,-2.70521 -0.719814,-5.73688 -0.891981,-8.43538 0.348302,-1.43416 2.55829,-2.16483 4.7864,-2.18182l0.128029 0c2.22811,0.0169855 4.4381,0.74766 4.7864,2.18182 -0.172166,2.6985 -0.477182,5.73016 -0.891981,8.43536 -2.18023,0.700404 -5.73662,0.700419 -7.91687,1.41782e-005z"/>
    <path id="_123309120" class="fil3" d="M7.53342 12.8368c-0.33584,-2.19024 -0.599654,-4.59441 -0.779306,-6.86259 0.0217069,-0.101105 0.0411169,-0.160384 0.0575494,-0.166665l1.08656 6.59927c0,0 2.67811,1.20213 7.21812,0.019169l1.08702 -6.74613c0,0 0.0119097,0.0784198 0.0324823,0.215552 -0.179752,2.29122 -0.445834,4.72576 -0.785545,6.94139 -2.18023,0.70039 -5.73661,0.700404 -7.91688,0z"/>
   </g>
   <polygon id="_123309024" class="fil3" points="7.11095,9.12382 10.1592,10.6957 7.51622,10.3941 "/>
   <polygon id="_123308952" class="fil3" points="15.3554,10.8844 11.7279,11.9949 15.4673,11.5555 15.4662,11.1644 "/>
   <polygon id="_123308880" class="fil4" points="9.4636,10.9007 11.5868,11.795 15.115,10.7812 11.5892,11.1461 "/>
   <path id="_123308808" class="fil5" d="M16.4745 5.82775l-2.30593 -3.19061c1.57052,-0.0693032 2.47312,-0.00124768 3.61623,1.17111 1.62577,1.66742 2.79473,4.18265 3.08571,6.51077 0.29278,2.34341 -0.154358,4.3982 -1.23895,6.52284 0,0 -0.131687,0.387775 -0.961539,0.291845 0,0 0.241342,-0.426991 0.224994,-0.463841 -0.0163617,-0.0368917 -0.420555,0.429019 -0.420555,0.429019 0,0 -0.510615,0.00185735 -0.927554,-0.357887 0,0 -0.00170139,-0.576813 -0.0378842,-0.575494 -0.0361828,0.00131858 -0.152203,0.427077 -0.152203,0.427077l-0.545224 -0.14398c-0.249083,-0.117112 -0.326936,-0.135714 -0.259291,-0.444218 0.0516371,-0.23567 0.13794,-0.633157 0.327701,-1.30044 -0.0523602,-0.0617178 -0.179099,0.228099 -0.271896,0.387349 0,0 -0.298494,-0.329601 -0.285705,-0.441921 0.0127179,-0.112362 1.05804,-0.925002 1.05804,-0.925002 0.84471,-2.65042 0.273385,-5.81635 -0.905932,-7.89661z"/>
   <path id="_123308736" class="fil6" d="M16.4745 5.82775l-0.0576061 -0.07971c0.0151565,-0.00852111 0.0301429,-0.0179496 0.0454412,-0.0254357 0,0 2.51162,2.84991 1.68437,6.99307 0.304832,-0.00402662 0.702092,0.0419817 0.965523,0.055848 0.325844,0.0171557 1.08964,0.390426 1.68175,0.750496 -0.0832545,0.457035 -0.197687,0.908768 -0.342418,1.35866 -0.832531,-0.6407 -1.91321,-0.931013 -2.59959,-1.05816 -0.268337,0.805635 -0.667256,1.65063 -1.23582,2.52567 -0.0897482,-0.0627528 -0.108549,-0.139982 -0.0638587,-0.343808 0.0516371,-0.23567 0.13794,-0.633157 0.327701,-1.30044 -0.0523602,-0.0617178 -0.179099,0.228099 -0.271896,0.387349 0,0 -0.298494,-0.329601 -0.285705,-0.441921 0.0114702,-0.101346 0.862929,-0.772359 1.02974,-0.90294l0.00243866 -0.00191406 0.0258611 -0.0201473c0.0127037,-0.0398692 0.0250387,-0.0798801 0.0371044,-0.11999l0.00269386 -0.008989c0.0111724,-0.0372746 0.0220471,-0.0746484 0.0326666,-0.112107l0.00510416 -0.0181198c0.00951359,-0.0338718 0.018772,-0.0678286 0.027846,-0.101842l0.00798234 -0.0301571c0.00758535,-0.0288952 0.0150006,-0.0578472 0.022274,-0.0868416 0.00432436,-0.0172549 0.00859201,-0.0345382 0.0128029,-0.0518214 0.0051467,-0.0210972 0.01018,-0.0422511 0.0151565,-0.0633909 0.00698987,-0.0296892 0.0137954,-0.0594351 0.0204734,-0.0892236l0.00438107 -0.0196652 0.00297743 -0.0134268c0.00704658,-0.0320428 0.0138947,-0.0641423 0.0205726,-0.0962843l0.00513252 -0.0248403 0.00276475 -0.0134551 1.41782e-005 0c0.497897,-2.45323 -0.0703524,-5.18462 -1.12588,-7.04645z"/>
   <path id="_123308664" class="fil7" d="M20.4925 14.751l-0.0238761 0.0258469 -0.00828008 -0.00759953 0.0037147 0.0203458c0.00535937,0.000439525 0.0106762,0.000949941 0.015908,0.00158796 0.00418258,-0.0133984 0.00840769,-0.0267827 0.0125336,-0.0401811zm-0.239796 -6.92141c0.137912,0.374645 0.256995,0.753856 0.355505,1.13341 -0.378133,0.22593 -0.631683,0.783418 -0.556013,1.20416l0.0328651 0.1828c0.0116545,0.0648796 0.034283,0.0735992 0.0458949,0.138479 0.0461076,0.0477239 0.0751021,0.134821 0.144987,0.200565 0.047171,0.0444487 0.133233,0.0922152 0.200693,0.107599 0.160455,0.0364806 0.420314,-0.0142775 0.387179,-0.198821l-0.0073585 -0.0406348c-0.00489149,-0.0274207 -0.00985387,-0.0270804 -0.0192682,-0.0489291 -0.0409184,0.0191831 -0.0613917,0.0739253 -0.131219,0.0864588 -0.0566137,0.0102225 -0.12318,-0.0431585 -0.135572,-0.111909 -0.0171131,-0.0953769 0.0438816,-0.165091 0.135189,-0.181538 0.0618312,-0.0111157 0.118289,0.00103501 0.166296,0.0295191 0.0242873,0.195929 0.0433428,0.389845 0.0573226,0.581974 -0.0685234,0.0770728 -0.165417,0.132807 -0.275001,0.152529l-0.0304265 0.0054728c-0.10343,0.018616 -0.208307,0.0193391 -0.283479,-0.00138947 0.0629513,0.134083 0.393446,0.222414 0.608898,0.193958 0.00652198,0.160327 0.00947106,0.31945 0.00881886,0.477509 -0.199601,-0.0365089 -0.420299,-0.0570248 -0.555262,-0.0327659 0.0442361,0.245964 0.330735,0.556113 0.336719,0.589375 0.00214091,0.012009 -0.0865439,0.205584 -0.0707635,0.306278 -0.0841336,0.00802488 -0.232523,-0.209724 -0.318117,-0.194398l-0.0203174 0.00368634c-0.0664675,0.0119239 -0.052743,0.173187 -0.039302,0.248176 0.0524878,0.291745 0.277992,0.524736 0.551845,0.569029 -0.0121649,0.079866 -0.0251947,0.159562 -0.0392453,0.239073 -0.117424,-0.0221747 -0.230254,-0.0621573 -0.272194,-0.0546145 -0.0237769,0.00425347 -0.0375865,0.0240888 -0.033333,0.0479224 0.02243,0.124612 0.122046,0.225604 0.251337,0.289916 -0.0633767,0.307894 -0.140946,0.613577 -0.232438,0.918225 -0.12922,0.143072 -0.317947,0.281849 -0.571227,0.327389l-0.0102083 0.00185735c-0.614697,0.110491 -0.785842,-0.498152 -1.07652,-0.44582l-0.071118 0.0127604c-0.0564152,0.0101091 -0.131432,0.0853813 -0.120316,0.147425l0.0109598 0.0609238c0.0103926,0.0578613 0.107755,0.116871 0.165942,0.106379l0.0101941 -0.00178646c0.0371328,-0.00664959 0.0762505,-0.0426765 0.0702956,-0.0754849l-0.00730179 -0.040649c-0.0468307,0.0219195 -0.0266551,0.0467456 -0.063802,0.0533952l-0.0101374 0.00182899c-0.0244433,0.00442361 -0.0675025,-0.0254783 -0.0719261,-0.0499641l-0.0109314 -0.0609664c-0.00584143,-0.0323547 0.0389334,-0.080348 0.0786608,-0.0875222l0.0609238 -0.0109314c0.0574644,-0.0103501 0.139684,0.0767042 0.152955,0.150729l0.00185735 0.0101233c0.0216218,0.120345 -0.044945,0.207286 -0.168508,0.229489l-0.0203741 0.0036438c-0.155379,0.0279736 -0.321364,-0.0962985 -0.34938,-0.251649l-0.00361545 -0.0203174c-0.026726,-0.148673 0.0693882,-0.274561 0.218486,-0.301344l0.10153 -0.0183041c0.0857925,-0.0153976 0.216998,0.0324823 0.275696,0.0638162 0.0677294,0.0361119 0.182984,0.152941 0.205811,0.16407 0.037388,-0.116999 0.0759244,-0.224044 0.24792,-0.241682 0.131801,-0.013441 0.260057,0.0337442 0.28589,0.177171 0.0154259,0.0862178 -0.0162057,0.160143 -0.104678,0.176051l-0.0406915 0.00727343c-0.031504,0.00575636 -0.0920025,-0.0451293 -0.0994744,-0.08687 -0.0098964,-0.0547988 0.0239754,-0.0942852 0.0750312,-0.107882 -0.0186018,-0.0429884 -0.0514811,-0.0746058 -0.106096,-0.0648229 -0.0806741,0.0145894 -0.115198,0.117892 -0.101062,0.196439 0.0275058,0.152799 0.194766,0.165985 0.338151,0.165673 0.134991,-0.000269386 0.321066,-0.104593 0.403966,-0.156613 0.18633,-0.116814 0.372193,-0.403044 0.323717,-0.672459l-0.00554369 -0.0305257c-0.0232098,-0.12932 -0.196468,-0.321009 -0.316033,-0.299572 -0.0978439,0.0176094 -0.203174,0.269712 -0.187181,0.358695l0.0128313 0.0711038c0.0370477,0.206307 0.187606,0.298608 0.293674,0.408404l-0.131049 0.132155c-0.0855514,-0.0392595 -0.178192,-0.135714 -0.244957,-0.205003 -0.0508857,-0.0528848 -0.157322,-0.232736 -0.230013,-0.206052l-0.274604 0.0989215 -0.0635185 0.00379976c-0.268933,0.0483619 -0.60361,-0.0426906 -0.764518,-0.153238 -0.104153,-0.0716 -0.192002,-0.12681 -0.282274,-0.220372 -0.10852,-0.112476 -0.132836,-0.190711 -0.219451,-0.310673l0.0933353 -0.00395573 0.152303 -0.0297459c0.126172,0.292724 0.580386,0.577054 0.961893,0.508417l0.0508006 -0.0091166c0.151594,-0.0272222 0.274831,-0.11602 0.357263,-0.196127 0.0541325,-0.0526012 0.160866,-0.246928 0.1451,-0.334606l-0.0091166 -0.0507439c-0.00415422,-0.0233799 -0.0125194,-0.0291788 -0.035956,-0.0249679 -0.0634476,0.0114277 -0.269982,0.195348 -0.431599,0.224399l-0.030469 0.00548697c0.00336024,-0.0410885 0.0782213,-0.181155 0.0959724,-0.244348 0.0223732,-0.07971 0.116715,-0.136125 0.171996,-0.191463 0.0915913,-0.0916764 0.191009,-0.336095 0.159548,-0.511182l-0.0237769 -0.132013c-0.00925838,-0.0517363 -0.0601866,-0.167388 -0.112263,-0.158031 -0.0885288,0.0159647 -0.272591,0.384868 -0.350103,0.467626 -0.0764206,0.0814681 -0.332338,0.367953 -0.450258,0.389192 -0.0505454,0.00905989 -0.158215,-0.150474 -0.174066,-0.209838 0.302379,-0.141924 0.742329,-0.887543 0.67097,-1.28429 -0.312984,0.0563159 -0.669198,0.314416 -0.855628,0.471851 -0.21507,0.181637 -0.355888,0.48922 -0.28813,0.866134 -0.0674884,0.0382812 -0.093874,0.0778526 -0.223236,0.0918324l-0.0281012 -0.130128c-0.0279736,-0.0953911 0.00415422,-0.362481 0.0195518,-0.433769 0.0318443,-0.147156 0.0872953,-0.225462 0.1263,-0.347678 -0.356611,0.0952068 -0.617944,0.646314 -0.541311,1.07226 0.0156244,0.0869125 0.0553234,0.169614 0.0815957,0.22956 0.127973,0.292128 0.487802,0.506701 0.816311,0.447592l0.23577 0.146745c-0.0481634,0.0124627 -0.059747,0.0312913 -0.117949,0.0418116l-0.172748 0.031022c-0.135459,0.024344 -0.348728,-0.0168154 -0.440305,-0.057039 -0.0403371,-0.0177653 -0.172209,-0.0845022 -0.254244,-0.143781 -0.093477,-0.0676727 -0.22213,-0.248374 -0.274093,-0.341369 -0.0233374,-0.0417691 -0.0447039,-0.0861753 -0.0637453,-0.134906 0.145313,-0.460254 0.248076,-0.935862 0.312502,-1.41853 0.124343,-0.129731 0.274235,-0.237755 0.473581,-0.323646 -0.0141924,-0.0697994 -0.0759811,-0.0706926 -0.132113,-0.0911802 -0.0578897,-0.0211964 -0.0817942,-0.0440659 -0.131872,-0.0788451 -0.0536221,-0.0373029 -0.105344,-0.0735141 -0.147964,-0.121975 0.0140223,-0.208718 0.021239,-0.418073 0.0221747,-0.627415 0.0337584,-0.0236067 0.0740529,-0.0406348 0.121153,-0.0490992l0.0406348 -0.0073585c0.134835,-0.0242164 0.296382,0.0731738 0.319988,0.204563l0.0054728 0.030469c0.0162482,0.0904854 -0.0433854,0.196468 -0.129702,0.212007l-0.0406206 0.00731597c-0.05314,0.00952777 -0.119905,-0.0252798 -0.129943,-0.0814397l-0.00554369 -0.0304832c-0.00883304,-0.0491134 0.0176094,-0.0870118 0.0666518,-0.095859l0.0406632 -0.00737268c0.0583292,-0.0104068 0.0491984,0.0201614 0.0987372,0.0242589 -0.047412,-0.0657019 -0.0636035,-0.124868 -0.186344,-0.102764l-0.0101091 0.0017581c-0.0965395,0.01734 -0.14432,0.130581 -0.127888,0.222244l0.0073585 0.0406206c0.038664,0.215098 0.427275,0.342461 0.662265,0.300196l0.111795 -0.0201614c0.275015,-0.0494253 0.493672,-0.231899 0.575026,-0.417847 -0.0799652,0.0344247 -0.124825,0.0748327 -0.244844,0.0964403l-0.0406206 0.00730179c-0.240335,0.0431302 -0.484172,-0.0678995 -0.52475,-0.293574l-0.0109314 -0.0608671c-0.0271371,-0.150672 0.0530549,-0.31358 0.201047,-0.340136l0.0304265 -0.00551533c0.0755558,-0.0135686 0.157364,0.0585561 0.171486,0.136947 0.010421,0.0580598 -0.0493261,0.134622 -0.110207,0.145568 -0.0446614,0.00802488 -0.101814,-0.0254925 -0.132822,-0.0389901 -0.036353,0.131517 0.0908541,0.245737 0.218316,0.222782l0.0914637 -0.0164326c0.126838,-0.0227844 0.2393,-0.169175 0.278389,-0.259745 0.0542601,-0.125449 0.0738969,-0.23068 0.0405072,-0.416145 -0.108478,-0.603241 -0.658253,-1.16057 -1.23875,-1.05614 -0.0828859,0.0149013 -0.174803,0.0364948 -0.257689,0.0735283 -0.0106904,-0.0750737 -0.0221039,-0.149921 -0.0342404,-0.224526 0.0490425,-0.0232098 0.130511,-0.0692465 0.255477,-0.105415 0.0402236,-0.0116545 0.0639013,-0.0210547 0.121082,-0.0313339l0.0711322 -0.0127888c-0.0194525,-0.107967 -0.107925,-0.191803 -0.124102,-0.281721l-0.0164184 -0.0914212c-0.00908824,-0.0503752 0.145965,-0.0786608 0.204209,-0.0891243l0.0508148 -0.00914496c0.0333755,0.185692 0.226114,0.336733 0.41114,0.303471l0.0304548 -0.0054728c0.0654609,-0.0118105 0.1017,-0.0761938 0.08989,-0.142009 -0.0290228,-0.161164 -0.299558,-0.23964 -0.477877,-0.207569l-0.111724 0.0200905c-0.226483,0.0407199 -0.468775,0.184756 -0.554326,0.366606 -0.0163759,-0.0866148 -0.0337158,-0.172818 -0.0520057,-0.258568 0.157534,-0.157931 0.354626,-0.27242 0.56978,-0.311127l0.203217 -0.0365515c0.0922861,-0.0165602 0.176647,-0.00764206 0.253025,-0.00598321 0.0646527,0.00144618 0.196198,0.0301146 0.232509,0.0235075 0.0636035,-0.0114844 0.147283,-0.130695 0.167502,-0.176916l0.244475 0.0686226c-0.0439525,0.101318 -0.147028,0.181694 -0.116956,0.348784l0.0109031 0.0608529c0.017978,0.0998714 0.152544,0.21368 0.265544,0.193391 0.0951359,-0.0170848 0.160214,-0.159094 0.142704,-0.256257l-0.0127888 -0.0710613c-0.0305541,-0.169699 -0.19332,-0.264537 -0.312928,-0.316954 -0.0799085,-0.0351053 -0.360169,-0.107202 -0.462721,-0.0887132l-0.142236 0.0256059c-0.0700972,0.0125761 -0.199672,0.0871819 -0.243894,0.123776 -0.0441226,0.0365231 -0.216076,0.063802 -0.296637,0.0781929 0.0858208,-0.196071 0.334025,-0.364097 0.627727,-0.416868l0.0609664 -0.0109739c0.472333,-0.0849701 0.873606,0.293702 0.992873,0.272264 0.0811845,-0.0146745 0.272591,-0.14337 0.430579,-0.17184 0.0567271,0.0248403 0.126172,0.0969791 0.146419,0.172875 -0.182885,0.032851 -0.415564,0.196609 -0.38569,0.362892 0.0118246,0.0658437 0.0681831,0.113497 0.133672,0.101715l0.0304974 -0.0054728c0.152586,-0.0274349 0.302819,-0.240406 0.278645,-0.375099l-0.0128171 -0.0710755c-0.0344247,-0.191605 -0.306491,-0.322229 -0.502618,-0.286996l-0.0812412 0.0146036c-0.119721,0.0215367 -0.172875,0.0745633 -0.275341,0.101956l-0.244163 -0.105911c0.12189,-0.0590665 0.18979,-0.135927 0.362878,-0.167048l0.132099 -0.0237485c0.168707,-0.0303414 0.35844,0.00120515 0.51976,0.0790578zm0.695839 4.31459c-0.0149864,0.346658 -0.047412,0.688608 -0.0969082,1.0272 -0.0589105,-0.0596053 -0.102792,-0.180319 -0.116134,-0.254726l-0.0256059 -0.142208c-0.0417832,-0.232395 0.0547988,-0.500378 0.238648,-0.630265zm-3.19403 -1.92347c-0.00435272,-0.0595627 -0.00932927,-0.11904 -0.0146603,-0.178447 0.0457957,-0.019566 0.0673608,-0.0530266 0.0554936,-0.119111 -0.0281012,0.0131858 -0.0394155,0.0336449 -0.0620865,0.0471851 -0.00873379,-0.0908257 -0.0185168,-0.181467 -0.0294765,-0.271797l0.0190981 -0.00341695c0.108818,-0.0196368 0.234877,0.0814256 0.255322,0.195092 0.0232239,0.129135 -0.0866006,0.283352 -0.22369,0.330494zm1.37513 3.33073c-0.214942,-0.0109739 -0.457886,-0.213255 -0.505028,-0.475325l-0.0054728 -0.0304123c-0.0251947,-0.140081 0.0146036,-0.306618 0.150232,-0.331076 0.0912652,-0.0164042 0.195163,0.0459658 0.263956,0.0678854 0.0216927,-0.020998 0.125123,-0.178873 0.121337,-0.200012 -0.0138096,-0.0764915 -0.295942,-0.114532 -0.41528,-0.0930801 -0.367613,0.0661556 -0.43401,0.48189 -0.302237,0.821019 0.102409,0.263729 0.335485,0.483435 0.571113,0.441014 0.0298026,-0.00533101 0.110689,-0.16658 0.12138,-0.200012zm-0.58566 0.0109314c-0.0460792,-0.077328 -0.0921868,-0.154713 -0.138224,-0.232098 -0.218671,0.0641139 -0.577281,0.0755132 -0.806614,-0.0170422 0.00395573,0.0446189 0.00798234,0.0892945 0.0119522,0.133871 0.00674884,0.0373029 0.0133984,0.0745349 0.0201047,0.111781 0.0297317,0.165361 0.751432,0.0430167 0.874272,0.0209271 0.015993,-0.00287818 0.0270237,-0.0103501 0.0385081,-0.0174392zm0.929907 -0.42926l-0.0310787 -0.172648c-0.00691897,-0.0388483 0.00252372,-0.00432436 -0.0156102,-0.0286684 -0.0136395,0.0132283 -0.191392,0.23041 -0.19366,0.238634 -0.0271088,0.0981984 0.0101941,0.212943 -0.0411452,0.344644 -0.0645676,0.16563 -0.222428,0.393063 -0.393205,0.47317 0.0264707,0.0564293 0.170125,0.0964828 0.23051,0.115808 0.224583,-0.175895 0.510714,-0.601143 0.44419,-0.970939z"/>
   <path id="_123308592" class="fil8" d="M16.8539 3.05779c0.304761,0.176703 0.608274,0.419548 0.930928,0.750454 1.62577,1.66742 2.79473,4.18265 3.08571,6.51077 0.14001,1.12062 0.110675,2.17518 -0.0765199,3.203 -0.113043,-0.0687502 -0.232409,-0.137983 -0.353733,-0.205131 0.709337,-4.00938 -0.901211,-7.88851 -3.58638,-10.2591zm3.93985 10.4657c-0.0412445,0.22627 -0.0901593,0.451222 -0.146589,0.675337 0.0564293,-0.224101 0.105344,-0.449067 0.146589,-0.675337zm-0.152118 0.697186c-0.0327233,0.128781 -0.0679562,0.257278 -0.105628,0.385577 0.0376857,-0.128299 0.0729186,-0.256782 0.105628,-0.385577zm-0.111852 0.406717c-0.00659288,0.0222882 -0.0132708,0.0445763 -0.0200055,0.0668645 0.00674884,-0.0222882 0.0134126,-0.0445622 0.0200055,-0.0668645zm-0.0294482 0.0978723c-0.00667794,0.0218486 -0.0134126,0.0436689 -0.0202465,0.0655034 0.00680555,-0.0218486 0.0135686,-0.0436548 0.0202465,-0.0655034zm-0.0289803 0.0932786c-0.00647945,0.0205584 -0.0129873,0.0411027 -0.0195943,0.0616469 0.00662123,-0.0205301 0.013129,-0.0410885 0.0195943,-0.0616469zm-0.0197503 0.0621573c-0.210377,0.654127 -0.484697,1.30431 -0.820012,1.96117 0,0 -0.0112292,0.0327517 -0.0474262,0.0769027 -0.239697,-0.0334606 -0.482159,-0.0878625 -0.719928,-0.155365 0.0218345,-0.0479791 0.0350628,-0.0839493 0.0308093,-0.0935338 -0.00484895,-0.0109456 -0.0438816,0.0223165 -0.0963127,0.0745775 -0.46238,-0.136366 -0.904018,-0.319762 -1.26871,-0.491517 -0.00521759,-0.0528139 -0.0120373,-0.087749 -0.0209696,-0.0874229 -0.00806741,0.000297743 -0.0189421,0.0248403 -0.0309227,0.0628095 -0.240831,-0.114957 -0.445381,-0.223279 -0.596478,-0.307015 0.0127746,-0.02148 0.0254641,-0.04296 0.038026,-0.0643975 1.06749,0.300451 2.54389,0.450868 2.54389,0.450868 0.26726,-0.549775 0.48447,-1.1036 0.654921,-1.65785 0.114234,0.071359 0.22576,0.148148 0.333117,0.230765zm-3.84532 0.881418l-5.67129e-005 -2.83565e-005 0.00048206 -0.00211256 5.67129e-005 1.41782e-005 -0.00048206 0.00212673z"/>
   <path id="_123308520" class="fil9" d="M17.9059 8.44854c0.0205017,0.0641423 0.0405072,0.129263 0.0599314,0.195333 -0.164794,0.0666518 -0.313608,0.180404 -0.376829,0.314799l-0.00701822 -0.0365656 -0.000765624 -0.00404079 -9.92476e-005 -0.000467881 -0.00750028 -0.0384655c-0.00459375,-0.023465 -0.00930092,-0.0468874 -0.0140364,-0.0702815l-0.000808159 -0.00404079 -0.000808159 -0.00404079 -0.000808159 -0.00402662 -8.50694e-005 -0.00039699 -0.00445196 -0.0216076c-0.00511834,-0.0249253 -0.0103217,-0.0497798 -0.0156244,-0.0746342 0.106989,-0.107258 0.232154,-0.194511 0.368903,-0.251564zm0.0711322 0.232906c0.0345098,0.119338 0.0668929,0.242008 0.0972768,0.367358 -0.0312913,-0.0866148 -0.0976738,-0.158853 -0.111469,-0.235557l-0.0164184 -0.0914212c-0.00279311,-0.0154968 0.00992476,-0.0289378 0.0306108,-0.0403796zm0.108591 0.413763c0.0225576,0.0953769 0.0437824,0.192484 0.0635468,0.291192 -0.0716284,-0.00673466 -0.144547,-0.00411169 -0.21799,0.00910242 -0.0828859,0.0149013 -0.174803,0.0364948 -0.257689,0.0735283 -0.00442361,-0.031022 -0.008989,-0.0620581 -0.0136536,-0.092995l-0.00510416 -0.033489 -0.000552951 -0.00353038 -0.000538773 -0.00348784 -0.000552951 -0.00353038c-0.00324681,-0.0210405 -0.0065787,-0.0420668 -0.00992476,-0.0630506l-0.000552951 -0.00348784 -0.000552951 -0.00348784 -0.000552951 -0.00348784 -0.00219763 -0.0140081c0.0490425,-0.0232098 0.130496,-0.0692323 0.255421,-0.105387 0.0402236,-0.0116545 0.0639013,-0.0210547 0.121082,-0.0313339l0.0698136 -0.0125477zm0.201189 2.61308c-0.0259462,0.326284 -0.0712031,0.662251 -0.140109,1.00739 0.0379551,-0.000496238 0.077328,-0.000255208 0.117708,0.00063802 -0.0564152,0.148871 -0.0762789,0.323434 -0.0416415,0.516087 -0.0674884,0.0382812 -0.093874,0.0778526 -0.223236,0.0918324l-0.0281012 -0.130128c-0.0279736,-0.0953911 0.00415422,-0.362481 0.0195518,-0.433769 0.0318443,-0.147156 0.0872953,-0.225462 0.1263,-0.347678 -0.356611,0.0952068 -0.617944,0.646314 -0.541311,1.07226 0.0156244,0.0869125 0.0553234,0.169614 0.0815957,0.22956 0.035715,0.0815248 0.0894504,0.156967 0.155564,0.222159 -0.0281296,0.0810853 -0.0576061,0.162553 -0.0884296,0.244404l-0.000297743 -0.000212673c-0.093477,-0.0676727 -0.22213,-0.248374 -0.274093,-0.341369 -0.0233232,-0.0417265 -0.0446614,-0.0860902 -0.0636886,-0.134778 0.0105061,-0.0333472 0.0208278,-0.0667936 0.0309085,-0.100311l0.00269386 -0.008989c0.00854947,-0.0285408 0.0168721,-0.057195 0.0250955,-0.085835l1.41782e-005 -8.50694e-005 0.00755699 -0.0261872 0.00510416 -0.0181198 0.00456539 -0.0166169 0.000496238 -0.0017581 0.000212673 -0.00072309 0.000425347 -0.00161632 0.000113426 -0.000354456 9.92476e-005 -0.000368634 0.00232523 -0.00843604 0.00015596 -0.000581307 0.00301996 -0.0109031 0.000425347 -0.00157378 0 -4.25347e-005 0.00015596 -0.000510416 0.00336024 -0.0122075 0.000425347 -0.00157378 0.000425347 -0.00161632 0.00131858 -0.00476388 0.000311921 -0.00113426 0.00140364 -0.00518923 1.41782e-005 -5.67129e-005 0.000425347 -0.00161632 0.000425347 -0.00157378 0.000425347 -0.00157378 9.92476e-005 -0.000354456 0.00164467 -0.00602575 0.000425347 -0.00157378 0.000425347 -0.00161632 0.000425347 -0.00157378 0.000198495 -0.000737268 0.000226852 -0.00087905 0.000439525 -0.00157378 0.000425347 -0.00161632 0.000425347 -0.00157378 0.000425347 -0.00161632 0.000425347 -0.00157378 0.000425347 -0.00161632 0.000425347 -0.00157378 0.000425347 -0.00157378 5.67129e-005 -0.000212673 0.00039699 -0.00136111 0.00798234 -0.0301571 0.000666377 -0.00263715 0.000609664 -0.00233941 0.000127604 -0.000467881 0.000340277 -0.00136111 0.00389901 -0.0148871 0.000340277 -0.00136111 0.00245283 -0.00948523 0.000340277 -0.00136111 0.00104919 -0.00405497 1.41782e-005 -2.83565e-005 0.000340277 -0.00136111 0.000935763 -0.00360127 0.000467881 -0.00180063 0.000340277 -0.00136111 0.000340277 -0.00136111m0.923541 -0.562918c0.0910526,0.00483478 0.184062,0.0115694 0.274618,0.018616 -0.0829001,0.0579039 -0.105642,0.189946 -0.0850694,0.304336l0.0054728 0.0304123c0.0471426,0.26207 0.290087,0.464351 0.505028,0.475325 -0.0106904,0.0334323 -0.0915772,0.194681 -0.12138,0.200012 -0.235628,0.0424213 -0.468704,-0.177285 -0.571113,-0.441014 -0.0769594,-0.19807 -0.086317,-0.422256 -0.00755699,-0.587688zm0.553064 0.0403938c0.0216076,0.00157378 0.0426765,0.00303414 0.063164,0.00438107 -0.00531684,0.00696151 -0.00961284,0.0122075 -0.012491,0.0149864 -0.0153125,-0.00487731 -0.0323972,-0.0117963 -0.050673,-0.0193675zm0.106237 0.00706076l0.0232948 0.0013044c0.0807166,0.00425347 0.188329,0.0303556 0.313537,0.0727059 -0.0421944,0.0677436 -0.0799652,0.127462 -0.105883,0.155124 -0.0764206,0.0814681 -0.332338,0.367953 -0.450258,0.389192 -0.0505454,0.00905989 -0.158215,-0.150474 -0.174066,-0.209838 0.122939,-0.0577054 0.268564,-0.21524 0.393375,-0.408489zm0.71325 0.224753c0.268082,0.120416 0.56581,0.276702 0.839748,0.436505 -0.0493969,-0.0121791 -0.0891527,-0.0206719 -0.110519,-0.0168296 -0.0237769,0.00425347 -0.0375865,0.0240888 -0.033333,0.0479224 0.0224158,0.124556 0.121961,0.225505 0.251153,0.289831 -0.0634192,0.307979 -0.140988,0.613818 -0.232495,0.918579 -0.0445338,0.0492835 -0.0961709,0.0980141 -0.155039,0.142633 -0.050276,-0.0364522 -0.101332,-0.071756 -0.15304,-0.10584l0.00521759 -0.00323264c0.18633,-0.116814 0.372193,-0.403044 0.323717,-0.672459l-0.00554369 -0.0305257c-0.0232098,-0.12932 -0.196468,-0.321009 -0.316033,-0.299572 -0.0978439,0.0176094 -0.203174,0.269712 -0.187181,0.358695l0.0128313 0.0711038c0.0370477,0.206307 0.187606,0.298608 0.293674,0.408404l-0.131049 0.132155c-0.0855514,-0.0392595 -0.178192,-0.135714 -0.244957,-0.205003 -0.0508857,-0.0528848 -0.157322,-0.232736 -0.230013,-0.206052l-0.202947 0.0731029c-0.148659,-0.0674884 -0.29797,-0.12759 -0.445324,-0.181141 0.0845164,0.0143342 0.169657,0.015908 0.251437,0.00119097l0.0508006 -0.0091166c0.151594,-0.0272222 0.274831,-0.11602 0.357263,-0.196127 0.0541325,-0.0526012 0.160866,-0.246928 0.1451,-0.334606l-0.0091166 -0.0507439c-0.00415422,-0.0233799 -0.0125194,-0.0291788 -0.035956,-0.0249679 -0.0634476,0.0114277 -0.269982,0.195348 -0.431599,0.224399l-0.030469 0.00548697c0.00336024,-0.0410885 0.0782213,-0.181155 0.0959724,-0.244348 0.0223732,-0.07971 0.116715,-0.136125 0.171996,-0.191463 0.0636602,-0.063717 0.131049,-0.20126 0.155705,-0.337981zm0.690097 1.75633l-0.0123634 0.0398834c-0.00520341,-0.000623842 -0.0104919,-0.00113426 -0.0158229,-0.00157378l-0.0037147 -0.0203458 0.00828008 0.00759953 0.0236209 -0.0255633zm-0.697512 -0.28623c-0.0417691,-0.0217919 -0.0837508,-0.04296 -0.125832,-0.0635185 0.0490141,0.00908824 0.0930517,0.0295049 0.125832,0.0635185zm-1.00173 -0.409425c-0.179227,-0.0564719 -0.352669,-0.103515 -0.515166,-0.14259 -0.0575636,-0.0758252 -0.0874229,-0.142633 -0.152912,-0.233331l0.0933353 -0.00395573 0.152303 -0.0297459c0.06746,0.156513 0.228681,0.310574 0.42244,0.409623zm-1.27706 -0.808868l0.000127604 -0.000467881 4.25347e-005 -0.000212673c0.0790294,-0.31521 0.139656,-0.635979 0.182927,-0.960079 0.124343,-0.129731 0.274235,-0.237755 0.473581,-0.323646 -0.0141924,-0.0697994 -0.0759811,-0.0706926 -0.132113,-0.0911802 -0.0578897,-0.0211964 -0.0817942,-0.0440659 -0.131872,-0.0788451 -0.0536221,-0.0373029 -0.105344,-0.0735141 -0.147964,-0.121975 0.0140223,-0.208718 0.021239,-0.418073 0.0221747,-0.627415 0.0337584,-0.0236067 0.0740529,-0.0406348 0.121153,-0.0490992l0.0406348 -0.0073585c0.134835,-0.0242164 0.296382,0.0731738 0.319988,0.204563l0.0054728 0.030469c0.0162482,0.0904854 -0.0433854,0.196468 -0.129702,0.212007l-0.0406206 0.00731597c-0.05314,0.00952777 -0.119905,-0.0252798 -0.129943,-0.0814397l-0.00554369 -0.0304832c-0.00883304,-0.0491134 0.0176094,-0.0870118 0.0666518,-0.095859l0.0406632 -0.00737268c0.0583292,-0.0104068 0.0491984,0.0201614 0.0987372,0.0242589 -0.047412,-0.0657019 -0.0636035,-0.124868 -0.186344,-0.102764l-0.0101091 0.0017581c-0.0965395,0.01734 -0.14432,0.130581 -0.127888,0.222244l0.0073585 0.0406206c0.0275483,0.153252 0.232707,0.261914 0.433428,0.296467m-0.545365 -1.64822l-0.000496238 -0.0056004 -0.00106337 -0.0121933c0.0457957,-0.019566 0.0673608,-0.0530266 0.0554936,-0.119111 -0.0281012,0.0131858 -0.0394155,0.0336449 -0.0620865,0.0471851 -0.00873379,-0.0908257 -0.0185168,-0.181467 -0.0294765,-0.271797l0.0190981 -0.00341695c0.108818,-0.0196368 0.234877,0.0814256 0.255322,0.195092 0.0232239,0.129135 -0.0866006,0.283352 -0.22369,0.330494 -0.00391319,-0.0536079 -0.00836515,-0.107173 -0.0131007,-0.160653zm0.802573 3.50232c-0.0460792,-0.077328 -0.0921868,-0.154713 -0.138224,-0.232098 -0.218671,0.0641139 -0.577281,0.0755132 -0.806614,-0.0170422 0.00395573,0.0446189 0.00798234,0.0892945 0.0119522,0.133871 0.00674884,0.0373029 0.0133984,0.0745349 0.0201047,0.111781 0.0297317,0.165361 0.751432,0.0430167 0.874272,0.0209271 0.015993,-0.00287818 0.0270237,-0.0103501 0.0385081,-0.0174392zm0.929907 -0.42926l-0.0310787 -0.172648c-0.00691897,-0.0388483 0.00252372,-0.00432436 -0.0156102,-0.0286684 -0.0136395,0.0132283 -0.191392,0.23041 -0.19366,0.238634 -0.0271088,0.0981984 0.0101941,0.212943 -0.0411452,0.344644 -0.0645676,0.16563 -0.222428,0.393063 -0.393205,0.47317 0.0264707,0.0564293 0.170125,0.0964828 0.23051,0.115808 0.224583,-0.175895 0.510714,-0.601143 0.44419,-0.970939z"/>
   <path id="_123308448" class="fil5" d="M16.5183 14.6542c0,0 0.171316,-0.354583 0.609565,-0.577692 0.438249,-0.223109 -0.30279,0.58566 -0.609565,0.577692z"/>
   <path id="_123308376" class="fil6" d="M19.6783 16.749c-0.0154401,0.0309794 -0.0309936,0.0619872 -0.046774,0.0928674 0,0 -0.131687,0.38776 -0.961482,0.29183 0,0 0.241285,-0.426963 0.224938,-0.463869 -0.0163475,-0.0369059 -0.420583,0.429132 -0.420583,0.429132 0,0 -0.510586,0.00178646 -0.927497,-0.358 0,0 -0.00170139,-0.576841 -0.0379126,-0.575523 -0.036197,0.00131858 -0.124343,0.471029 -0.124343,0.471029 -0.281211,-0.0374163 -0.604106,-0.139939 -0.793612,-0.307852 -0.0678145,-0.0600731 -0.0789585,-0.14113 -0.0387775,-0.324284 0.0172407,-0.0785757 0.0382812,-0.1752 0.0657586,-0.29373 1.57404,0.707111 2.58017,0.953401 3.06029,1.0384z"/>
   <path id="_123308304" class="fil6" d="M19.5912 9.32319c0,0 0,0.526835 0.710428,0.814199 0,0 -0.470958,-0.0159647 -0.670517,-0.207541 -0.199559,-0.191576 -0.0399117,-0.606658 -0.0399117,-0.606658z"/>
   <g>
    <path id="_123308232" class="fil2" d="M20.8329 11.4109c0,0 0.0319435,1.30156 -0.435087,3.09749 -0.957158,-0.754395 -2.26966,-1.00029 -2.94486,-1.07932 0.275143,-1.00548 0.891399,-4.19212 -1.08661,-7.68122l-2.30593 -3.19061c1.57052,-0.0693032 2.47312,-0.00124768 3.61623,1.17111 1.90353,1.95229 3.1813,5.0669 3.15626,7.68256z"/>
    <path id="_123308160" class="fil4" d="M20.5155 9.79751c0,0 -1.28287,-0.0358567 -1.25897,-0.0358567 0.0239045,0 1.21514,-0.231077 1.21514,-0.231077l0.0438249 0.266933z"/>
    <polygon id="_123308088" class="fil4" points="17.9647,8.38651 19.8964,7.58029 19.8246,7.3488 17.9887,8.26677 "/>
    <path id="_123308016" class="fil4" d="M20.9447 11.4429c0,0 0.0956463,1.34146 -0.37137,3.13727 -0.0888549,-0.0700263 -0.35637,-0.207484 -0.45057,-0.269018 0.370335,-1.45578 0.515095,-3.17743 0.147241,-4.98091 -0.377311,-1.84988 -1.36786,-3.97288 -3.21388,-6.14891 0.202437,0.14812 0.407298,0.328354 0.620567,0.547081 2.06331,1.85641 3.29305,5.09883 3.26801,7.71449z"/>
    <path id="_123307944" class="fil3" d="M20.6847 14.12c-0.0314473,0.137983 -0.0658437,0.279552 -0.103515,0.424383 -0.957186,-0.754466 -2.45302,-1.03617 -3.12823,-1.1152 0.0327942,-0.119934 0.0704233,-0.270875 0.107939,-0.449549 1.58006,0.148517 2.70926,0.798121 3.1238,1.14037z"/>
    <path id="_123307872" class="fil3" d="M17.4529 13.4291c0.275143,-1.00551 0.891456,-4.19219 -1.08653,-7.68127l-0.0480217 -0.0664392c2.31909,2.368 2.31499,5.47905 1.71395,7.83755 -0.220542,-0.042563 -0.418088,-0.0709762 -0.579393,-0.0898474z"/>
    <path id="_123307800" class="fil1" d="M20.6134 14.6602l0.0746909 -0.183339c0.0300437,-0.0737693 -1.40459,-1.01532 -3.27245,-1.22907l-0.0402945 0.172705c0.656494,0.0698703 2.24016,0.429501 3.23805,1.2397z"/>
    <path id="_123307728" class="fil4" d="M20.5031 13.1999c0,0 -0.383152,-0.415082 -1.69226,-0.758322 0,0 0.965863,-0.0399117 1.72419,0.223506 0,0 0.00798234,0.111753 0.00798234,0.175612 0,0.0638587 -0.0558764,0.343241 -0.0399117,0.359205z"/>
    <path id="_123307656" class="fil1" d="M17.4618 12.4974c0,0 0.98981,-0.10377 2.13129,0.151664 0,0 -0.590693,-0.367188 -2.04348,-0.415082l-0.0878058 0.263417z"/>
    <path id="_123307584" class="fil1" d="M20.7233 14.2397c0,0 -0.92649,-0.649958 -2.02089,-1.06283 0,0 1.07915,0.218004 2.13165,0.820395l-0.11076 0.242434z"/>
    <g>
     <polygon id="_123307512" class="fil1" points="17.177,8.56742 20.1012,7.09737 20.1398,7.23695 17.2942,8.72176 "/>
     <path id="_123307440" class="fil1" d="M19.6987 7.78545c0,0 -0.292426,-0.31426 -0.777279,-0.390015 0.213793,0.232211 0.45376,0.377127 0.777279,0.390015z"/>
     <path id="_123307368" class="fil1" d="M18.4 8.49554c0,0 0.166934,-0.374362 0.0524169,-0.828746 -0.124215,0.274618 -0.161944,0.539623 -0.0524169,0.828746z"/>
    </g>
    <polygon id="_123307272" class="fil1" points="20.8064,9.37632 19.2179,9.76745 20.8304,9.59982 "/>
   </g>
   <path id="_123307176" class="fil5" d="M6.51152 5.82775l2.30593 -3.19061c-1.57052,-0.0693032 -2.47312,-0.00124768 -3.61623,1.17111 -1.62577,1.66742 -2.79473,4.18265 -3.08571,6.51077 -0.29278,2.34341 0.154358,4.3982 1.23895,6.52284 0,0 0.131687,0.387775 0.961539,0.291845 0,0 -0.241342,-0.426991 -0.224994,-0.463841 0.0163617,-0.0368917 0.420555,0.429019 0.420555,0.429019 0,0 0.510615,0.00185735 0.927554,-0.357887 0,0 0.00170139,-0.576813 0.0378842,-0.575494 0.0361828,0.00131858 0.152203,0.427077 0.152203,0.427077l0.545224 -0.14398c0.249083,-0.117112 0.326936,-0.135714 0.259291,-0.444218 -0.0516371,-0.23567 -0.13794,-0.633157 -0.327701,-1.30044 0.0523602,-0.0617178 0.179099,0.228099 0.271896,0.387349 0,0 0.298494,-0.329601 0.285705,-0.441921 -0.0127179,-0.112362 -1.05804,-0.925002 -1.05804,-0.925002 -0.84471,-2.65042 -0.273385,-5.81635 0.905932,-7.89661z"/>
   <path id="_123307104" class="fil8" d="M6.13215 3.05779c-0.304761,0.176703 -0.608274,0.419548 -0.930928,0.750454 -1.62577,1.66742 -2.79473,4.18265 -3.08571,6.51077 -0.29278,2.34341 0.154358,4.3982 1.23895,6.52284 0,0 0.0112292,0.0327517 0.0474262,0.0769027 0.239697,-0.0334606 0.482159,-0.0878625 0.719928,-0.155365 -0.0218345,-0.0479791 -0.0350628,-0.0839493 -0.0308093,-0.0935338 0.00484895,-0.0109456 0.0438816,0.0223165 0.0963127,0.0745775 0.46238,-0.136366 0.904018,-0.319762 1.26871,-0.491517 0.00521759,-0.0528139 0.0120373,-0.087749 0.0209696,-0.0874229 0.00806741,0.000297743 0.0189421,0.0248403 0.0309227,0.0628095 0.4805,-0.229361 0.816581,-0.432337 0.871904,-0.466237l-0.00048206 -0.00211256c-1.06269,0.365089 -2.85686,0.547804 -2.85686,0.547804 -2.42078,-4.97993 -0.742528,-10.2905 2.60966,-13.25z"/>
   <path id="_123307032" class="fil7" d="M2.77988 12.9849l-0.137316 0.208703c0.0656027,0.108846 0.129561,0.261602 0.067857,0.405937l-0.0283848 0.0664108c-0.0387633,0.0907265 -0.171188,0.173627 -0.260043,0.135572 -0.0464337,-0.0198637 -0.0821345,-0.0637595 -0.104097,-0.11456l-0.0720112 0.109442c0.0779377,0.370463 0.176476,0.737877 0.295006,1.1041l0.00713165 0.00469299c0.306391,-0.274576 0.767652,-0.429742 1.10674,-0.284713l0.0949232 0.0404788c0.410842,0.175711 0.463699,0.371058 0.395728,0.504717 -0.107712,0.211993 -0.537525,0.285748 -0.457588,0.00755699 0.267019,0.195815 0.354172,-0.106677 0.150204,-0.193887l-0.00942852 -0.00399826c-0.100439,-0.0430167 -0.245227,-0.00431018 -0.285946,0.0909533l-0.0283281 0.0662974c-0.0386498,0.0902019 0.0827583,0.304789 0.149368,0.333288l0.0854522 0.0365089c0.157435,0.0672757 0.343028,-0.00737268 0.455759,-0.143952 0.0689062,-0.0833396 0.117566,-0.196851 0.153338,-0.296708 0.169146,-0.471908 -0.0766475,-1.15273 -0.483506,-1.3694l-0.0228695 0.204393c0.0875222,0.108194 0.152657,0.133559 0.20703,0.270847 0.0365373,0.0922861 0.077243,0.21972 0.0239896,0.344176 -0.00818084,0.019169 -0.0467173,0.0473553 -0.0622708,0.0407199 -0.0733865,-0.0313906 -0.132481,-0.10248 -0.19919,-0.140379 -0.0410601,-0.0232523 -0.238308,-0.0966388 -0.219947,-0.139868l0.00409751 -0.00948523c0.0265133,-0.061888 0.13241,-0.125789 0.180035,-0.237244l0.0161632 -0.0378559c0.141711,-0.331246 -0.121805,-0.770346 -0.461558,-0.915602l-0.123436 -0.0527997c-0.161703,-0.0691756 -0.260695,-0.0422511 -0.394991,-0.0599314l0.145738 0.222655c0.100637,0.033489 0.174222,0.018375 0.286046,0.0662407l0.0759244 0.0324965c0.183169,0.0783347 0.338647,0.336988 0.262056,0.515974l-0.0283565 0.0664817c-0.0538205,0.125775 -0.296382,0.221081 -0.438901,0.160101l-0.0285408 -0.0122358c-0.0611507,-0.0261305 -0.0820636,-0.096894 -0.0557488,-0.158399 0.0664675,-0.155266 0.350869,-0.164241 0.521702,-0.0911376 0.0247694,-0.0744924 0.00642274,-0.17296 -0.0273073,-0.224938 -0.147624,-0.0630364 -0.378218,-0.0606686 -0.454114,-0.0930801 -0.0697002,-0.0298026 -0.145483,-0.250926 -0.300408,-0.458566z"/>
   <path id="_123306960" class="fil6" d="M6.51152 5.82775l0.0576061 -0.07971c-0.0151565,-0.00852111 -0.0301429,-0.0179496 -0.0454412,-0.0254357 0,0 -2.51162,2.84991 -1.68437,6.99307 -0.304832,-0.00402662 -0.702092,0.0419817 -0.965523,0.055848 -0.325844,0.0171557 -1.08964,0.390426 -1.68175,0.750496 0.0832545,0.457035 0.197687,0.908768 0.342418,1.35866 0.832531,-0.6407 1.91321,-0.931013 2.59959,-1.05816 0.268337,0.805635 0.667256,1.65063 1.23582,2.52567 0.0897482,-0.0627528 0.108549,-0.139982 0.0638587,-0.343808 -0.0516371,-0.23567 -0.13794,-0.633157 -0.327701,-1.30044 0.0523602,-0.0617178 0.179099,0.228099 0.271896,0.387349 0,0 0.298494,-0.329601 0.285705,-0.441921 -0.0114702,-0.101346 -0.862929,-0.772359 -1.02974,-0.90294l-0.00243866 -0.00191406 -0.0258611 -0.0201473c-0.0127037,-0.0398692 -0.0250387,-0.0798801 -0.0371044,-0.11999l-0.00269386 -0.008989c-0.0111724,-0.0372746 -0.0220471,-0.0746484 -0.0326666,-0.112107l-0.00510416 -0.0181198c-0.00951359,-0.0338718 -0.018772,-0.0678286 -0.027846,-0.101842l-0.00798234 -0.0301571c-0.00758535,-0.0288952 -0.0150006,-0.0578472 -0.022274,-0.0868416 -0.00432436,-0.0172549 -0.00859201,-0.0345382 -0.0128029,-0.0518214 -0.0051467,-0.0210972 -0.01018,-0.0422511 -0.0151565,-0.0633909 -0.00698987,-0.0296892 -0.0137954,-0.0594351 -0.0204734,-0.0892236l-0.00438107 -0.0196652 -0.00297743 -0.0134268c-0.00704658,-0.0320428 -0.0138947,-0.0641423 -0.0205726,-0.0962843l-0.00513252 -0.0248403 -0.00276475 -0.0134551 -1.41782e-005 0c-0.497897,-2.45323 0.0703524,-5.18462 1.12588,-7.04645z"/>
   <path id="_123306888" class="fil9" d="M3.17 13.0012c-0.0795257,0.0359418 -0.161547,0.0749603 -0.244702,0.116247l0.0422369 0.0645393c0.100637,0.033489 0.174222,0.018375 0.286046,0.0662407l0.0759244 0.0324965c0.183169,0.0783347 0.338647,0.336988 0.262056,0.515974l-0.0283565 0.0664817c-0.0538205,0.125775 -0.296382,0.221081 -0.438901,0.160101l-0.0285408 -0.0122358c-0.0611507,-0.0261305 -0.0820636,-0.096894 -0.0557488,-0.158399 0.0664675,-0.155266 0.350869,-0.164241 0.521702,-0.0911376 0.0247694,-0.0744924 0.00642274,-0.17296 -0.0273073,-0.224938 -0.147624,-0.0630364 -0.378218,-0.0606686 -0.454114,-0.0930801 -0.0523744,-0.0223874 -0.108152,-0.152799 -0.198382,-0.304336 -0.0693457,0.0349068 -0.139315,0.0712598 -0.2091,0.108591 0.0523318,0.102324 0.0896631,0.230084 0.0376148,0.351819l-0.0283848 0.0664108c-0.0387633,0.0907265 -0.171188,0.173627 -0.260043,0.135572 -0.0464337,-0.0198637 -0.0821345,-0.0637595 -0.104097,-0.11456l-0.0719687 0.109385c0.00365798,0.0173683 0.00734432,0.0347508 0.0110874,0.0521192l0.00330353 0.0153408 0.000439525 0.00201331 0.000340277 0.00157378 0.00728761 0.033092 0.0013044 0.00591232 0.00255208 0.0114135 0.00219763 0.00985387 0.00361545 0.0161348 0.00116261 0.00517505 0.000808159 0.00350202 0.00392737 0.0173258 0.000113426 0.000439525 0.00387066 0.0168721 0.00100665 0.00440943 0.00297743 0.0129305 0.00194242 0.0083368 0.00998147 0.0425063 0.000269386 0.00107755 0.00409751 0.0173116 0.000694733 0.00287818 0.00347367 0.0143909 0.00164467 0.00683391 0.0025379 0.0104777 0.00779802 0.0320144 0.00063802 0.00256626c0.0166736,0.0678003 0.0340561,0.135515 0.0521192,0.20316l0.00106337 0.00402662 0.000623842 0.00231105c0.0244007,0.0911944 0.0500633,0.182261 0.0769594,0.273229l0.000510416 0.0017581c0.0249962,0.0845164 0.0510983,0.168891 0.0782213,0.253266 0.329998,-0.253946 0.699015,-0.452838 1.06697,-0.608345l1.41782e-005 -2.83565e-005 0.00409751 -0.00948523c0.0265133,-0.061888 0.13241,-0.125789 0.180035,-0.237244l0.0161632 -0.0378559c0.141711,-0.331246 -0.121805,-0.770346 -0.461558,-0.915602l-0.123436 -0.0527997c-0.0162057,-0.00693315 -0.031745,-0.0129164 -0.0467881,-0.0180631zm0.861497 1.10743c0.0644259,-0.0220046 0.128313,-0.0427757 0.191449,-0.06237 -0.0909959,-0.153791 -0.210348,-0.280488 -0.348203,-0.353903l-0.0228695 0.204393c0.0732873,0.0905989 0.130908,0.123095 0.179624,0.211879z"/>
   <path id="_123306816" class="fil5" d="M6.46772 14.6542c0,0 -0.171316,-0.354583 -0.609565,-0.577692 -0.438249,-0.223109 0.30279,0.58566 0.609565,0.577692z"/>
   <path id="_123306744" class="fil6" d="M3.3077 16.749c0.0154401,0.0309794 0.0309936,0.0619872 0.046774,0.0928674 0,0 0.131687,0.38776 0.961482,0.29183 0,0 -0.241285,-0.426963 -0.224938,-0.463869 0.0163475,-0.0369059 0.420583,0.429132 0.420583,0.429132 0,0 0.510586,0.00178646 0.927497,-0.358 0,0 0.00170139,-0.576841 0.0379126,-0.575523 0.036197,0.00131858 0.124343,0.471029 0.124343,0.471029 0.281211,-0.0374163 0.604106,-0.139939 0.793612,-0.307852 0.0678145,-0.0600731 0.0789585,-0.14113 0.0387775,-0.324284 -0.0172407,-0.0785757 -0.0382812,-0.1752 -0.0657586,-0.29373 -1.57404,0.707111 -2.58017,0.953401 -3.06029,1.0384z"/>
   <path id="_123306672" class="fil6" d="M3.39479 9.32319c0,0 0,0.526835 -0.710428,0.814199 0,0 0.470958,-0.0159647 0.670517,-0.207541 0.199559,-0.191576 0.0399117,-0.606658 0.0399117,-0.606658z"/>
   <path id="_123306600" class="fil2" d="M2.15311 11.4109c0,0 -0.0319435,1.30156 0.435087,3.09749 0.957158,-0.754395 2.26966,-1.00029 2.94486,-1.07932 -0.275143,-1.00548 -0.891399,-4.19212 1.08661,-7.68122l2.30593 -3.19061c-1.57052,-0.0693032 -2.47312,-0.00124768 -3.61623,1.17111 -1.90353,1.95229 -3.1813,5.0669 -3.15626,7.68256z"/>
   <path id="_123306528" class="fil4" d="M2.04137 11.4429c0,0 -0.0956463,1.34146 0.37137,3.13727 0.0888549,-0.0700263 0.35637,-0.207484 0.45057,-0.269018 -0.370335,-1.45578 -0.515095,-3.17743 -0.147241,-4.98091 0.377311,-1.84988 1.36786,-3.97288 3.21388,-6.14891 -0.202437,0.14812 -0.407298,0.328354 -0.620567,0.547081 -2.06331,1.85641 -3.29305,5.09883 -3.26801,7.71449z"/>
   <path id="_123306456" class="fil3" d="M2.30134 14.12c0.0314473,0.137983 0.0658437,0.279552 0.103515,0.424383 0.957186,-0.754466 2.45302,-1.03617 3.12823,-1.1152 -0.0327942,-0.119934 -0.0704233,-0.270875 -0.107939,-0.449549 -1.58006,0.148517 -2.70926,0.798121 -3.1238,1.14037z"/>
   <path id="_123306384" class="fil3" d="M5.53312 13.4291c-0.275143,-1.00551 -0.891456,-4.19219 1.08653,-7.68127l0.0480217 -0.0664392c-2.31909,2.368 -2.31499,5.47905 -1.71395,7.83755 0.220542,-0.042563 0.418088,-0.0709762 0.579393,-0.0898474z"/>
   <path id="_123306312" class="fil1" d="M2.37267 14.6602l-0.0746909 -0.183339c-0.0300437,-0.0737693 1.40459,-1.01532 3.27245,-1.22907l0.0402945 0.172705c-0.656494,0.0698703 -2.24016,0.429501 -3.23805,1.2397z"/>
   <path id="_123306240" class="fil4" d="M2.48292 13.1999c0,0 0.383152,-0.415082 1.69226,-0.758322 0,0 -0.965863,-0.0399117 -1.72419,0.223506 0,0 -0.00798234,0.111753 -0.00798234,0.175612 0,0.0638587 0.0558764,0.343241 0.0399117,0.359205z"/>
   <path id="_123306168" class="fil1" d="M5.52419 12.4974c0,0 -0.98981,-0.10377 -2.13129,0.151664 0,0 0.590693,-0.367188 2.04348,-0.415082l0.0878058 0.263417z"/>
   <path id="_123306096" class="fil1" d="M2.26273 14.2397c0,0 0.92649,-0.649958 2.02089,-1.06283 0,0 -1.07915,0.218004 -2.13165,0.820395l0.11076 0.242434z"/>
   <polygon id="_123306024" class="fil4" points="2.41512,10.3581 4.61026,10.0628 2.50292,9.99894 "/>
   <g>
    <polygon id="_123305952" class="fil1" points="3.39994,5.72898 6.23152,7.14559 6.14565,7.25632 3.34807,5.90912 "/>
    <path id="_123305880" class="fil1" d="M5.46518 7.23166c0,0 0.0744499,-0.408546 -0.147312,-0.828292 -0.0563585,0.300111 -0.0298735,0.570007 0.147312,0.828292z"/>
    <path id="_121761480" class="fil1" d="M4.16325 6.63559c0,0 0.386839,-0.0871677 0.67287,-0.438859 -0.284784,0.0625827 -0.512075,0.186656 -0.67287,0.438859z"/>
   </g>
   <polygon id="_121761384" class="fil1" points="2.06994,9.94605 5.3606,9.89989 5.33439,10.0377 2.10829,10.1299 "/>
   <path id="_121761312" class="fil1" d="M4.00946 10.4056c0,0 -0.0490283,-0.41382 -0.395714,-0.756479 0.0343822,0.304435 0.141938,0.556878 0.395714,0.756479z"/>
   <path id="_121761240" class="fil1" d="M4.52346 10.379c0,0 0.275951,-0.312247 0.30055,-0.799085 -0.204152,0.228454 -0.320768,0.476842 -0.30055,0.799085z"/>
   <path id="_121761168" class="fil1" d="M2.7103 10.4074c0,0 0.315225,-0.255477 0.410857,-0.699369 -0.232835,0.186685 -0.383181,0.401471 -0.410857,0.699369z"/>
   <polygon id="_121761096" class="fil3" points="12.0738,7.03749 11.7864,8.49826 11.6826,7.09337 "/>
   <path id="_121761024" class="fil3" d="M6.3521 2.668c0.75207,-0.7085 9.56371,-0.688509 10.3156,0.019807 -0.196624,3.06702 -2.75605,4.53578 -5.14064,4.52141 -2.42961,-0.0146319 -4.6049,-1.56901 -5.17494,-4.54122z"/>
   <path id="_121760952" class="fil1" d="M6.31217 2.64506c0.75207,-0.677322 9.64746,-0.658224 10.3993,0.0189421 -0.196624,2.93213 -2.79983,4.3363 -5.18445,4.32254 -2.42962,-0.0139939 -4.64483,-1.5 -5.21487,-4.34149z"/>
   <path id="_121760880" class="fil2" d="M16.5684 2.8948c-0.410488,2.62818 -2.82446,3.88897 -5.04561,3.87597 -2.2919,-0.0134268 -4.38965,-1.38328 -5.04967,-4.00627 0.143087,-0.0603 0.325943,-0.132836 0.792138,-0.113369 2.52042,-0.258894 9.41687,-0.486795 9.30314,0.243667z"/>
   <path id="_121760808" class="fil3" d="M16.5444 2.80699c-0.384386,2.4611 -2.5256,3.72306 -4.62019,3.8629l0.00374305 -0.123719c4.08319,-0.638006 4.27207,-3.58384 4.21842,-3.69112l0.322002 -0.076846c0.050517,0.0126328 0.0770019,0.0225008 0.0760237,0.0287818z"/>
   <path id="_121760736" class="fil3" d="M6.5637 2.73925c0.591884,2.58882 2.66105,3.80673 4.75565,3.94657l0.0361687 -0.123719c-4.04328,-0.470377 -4.45939,-3.75516 -4.51331,-3.87438 -0.0476814,-0.0113709 -0.205769,0.0133559 -0.278503,0.0515379z"/>
   <path id="_121760664" class="fil8" d="M7.17257 2.54664c0.0927256,-0.0873662 0.334521,-0.161391 0.681108,-0.222201 1.98828,-0.348813 7.42565,-0.262411 7.9575,0.238648 -0.163333,2.54783 -2.3258,3.76795 -4.30668,3.756 -2.01826,-0.0121649 -3.85841,-1.30339 -4.33193,-3.77244z"/>
   <path id="_121760592" class="fil1" d="M11.4751 6.10356c0.0665101,1.24271 0.117084,3.56113 0.199544,3.72815 0.108974,-0.0435272 0.0904713,-2.50141 0.135714,-3.7521 -0.111753,0.00798234 -0.223506,0.0159647 -0.335258,0.023947z"/>
   <path id="_121760520" class="fil2" d="M7.38815 3.31651c0.906754,-0.718042 2.46866,-1.08496 4.0397,-1.09694l0.128029 0c1.61605,0.0123209 3.22229,0.400251 4.11585,1.15957 -0.535256,1.91498 -2.42158,2.83572 -4.16724,2.82547 -1.78653,-0.0104777 -3.43329,-0.996049 -4.11635,-2.88809z"/>
   <path id="_121760448" class="fil1" d="M7.17257 2.53484c0.0927256,-0.0849843 0.334521,-0.156996 0.681108,-0.216147 1.98828,-0.339313 7.42565,-0.255265 7.9575,0.232154 -0.163333,2.47847 -2.3258,3.66538 -4.30668,3.65376 -2.01826,-0.0118388 -3.85841,-1.26792 -4.33193,-3.66976z"/>
   <path id="_121760376" class="fil6" d="M15.5914 2.36036c-0.179213,2.44481 -2.21833,3.61611 -4.08755,3.60456 -1.9028,-0.0117538 -3.6387,-1.24919 -4.10458,-3.61562 2.07035,-0.569086 6.22589,-0.571425 8.19214,0.011059z"/>
   <path id="_121760304" class="fil3" d="M15.7357 5.53952c0,0 -0.710428,1.38893 -3.27276,1.8519 0,0 1.69226,-0.0319294 2.33084,-0.439029 0.638587,-0.407099 0.941916,-1.41287 0.941916,-1.41287z"/>
   <path id="_121760232" class="fil3" d="M7.25032 5.53952c0,0 0.710428,1.38893 3.27276,1.8519 0,0 -1.69226,-0.0319294 -2.33084,-0.439029 -0.638587,-0.407099 -0.941916,-1.41287 -0.941916,-1.41287z"/>
  </g>
 </g>
</svg>
