<?xml version="1.0" encoding="UTF-8"?>
<!DOCTYPE svg PUBLIC "-//W3C//DTD SVG 1.1//EN" "http://www.w3.org/Graphics/SVG/1.1/DTD/svg11.dtd">
<!-- Creator: CorelDRAW -->
<svg xmlns="http://www.w3.org/2000/svg" xml:space="preserve" width="161.909mm" height="176.792mm" style="shape-rendering:geometricPrecision; text-rendering:geometricPrecision; image-rendering:optimizeQuality; fill-rule:evenodd; clip-rule:evenodd"
viewBox="0 0 57.231 62.4919"
 xmlns:xlink="http://www.w3.org/1999/xlink">
 <defs>
  <style type="text/css">
   <![CDATA[
    .fil0 {fill:none}
    .fil1 {fill:#501D33}
    .fil12 {fill:#525B75}
    .fil11 {fill:#65798E}
    .fil8 {fill:#A9364B}
    .fil6 {fill:#D18A6C}
    .fil4 {fill:#D77D75}
    .fil9 {fill:#DB6056}
    .fil5 {fill:#EDCB7C}
    .fil7 {fill:#F9EC91}
    .fil2 {fill:#FFCFA5}
    .fil3 {fill:white}
    .fil10 {fill:#501D33;fill-rule:nonzero}
   ]]>
  </style>
 </defs>
 <g id="Layer_x0020_1">
  <metadata id="CorelCorpID_0Corel-Layer"/>
  <rect class="fil0" width="57.231" height="62.4919"/>
  <path class="fil1" d="M13.0221 27.2018l1.69726 -0.289038 -0.0735232 -0.330572 -1.68715 0.14588c0,0 -0.0624594,0.230043 0.0634138,0.47373zm-6.28963 4.59859c0.0259452,0.103392 -0.0368323,0.208375 -0.140224,0.234391 -0.103357,0.0259806 -0.208375,-0.036797 -0.234355,-0.140189 -0.0260159,-0.103357 0.036797,-0.208375 0.140189,-0.234355 0.103357,-0.0260159 0.208375,0.036797 0.234391,0.140154zm-1.20582 -5.68486l-1.69726 -0.289073 0.0735232 -0.330572 1.68715 0.14588c0,0 0.0624594,0.230043 -0.0634138,0.473765zm-0.563725 2.74093l-1.14841 0.0769519 -0.0037822 -0.226402 1.11953 -0.168432c0,0 0.0764924,0.1398 0.0326613,0.317882zm0.317422 2.95602l-1.30263 0.390239 -0.0638379 -0.25977 1.2453 -0.48801c0,0 0.124848,0.140896 0.121172,0.357542zm0.364505 -3.67987l-1.92974 -0.194943 0.057334 -0.377195 1.90743 0.0348175c0,0 0.087839,0.253761 -0.0350296,0.53732zm7.25904 1.08631l1.92974 -0.194943 -0.057334 -0.377195 -1.90743 0.0347821c0,0 -0.087839,0.253796 0.0350296,0.537356zm0.456233 0.865488l1.35944 0.032838 -0.0069635 -0.267405 -1.32992 -0.142274c0,0 -0.0832792,0.168891 -0.0225518,0.376842z"/>
  <path class="fil1" d="M15.6345 6.48259c-5.90176,2.64818 -10.7394,12.8851 -11.1705,18.2773 -0.493949,6.17736 -0.417421,9.9367 3.18564,17.4835 0,0 0.783588,1.60896 3.46128,0.957428 1.20748,0.102296 2.40499,-0.318059 2.97829,-1.14025 0.013927,-0.0199715 1.50641,-0.233083 2.22461,-0.93219 0.325764,-0.31714 0.532725,-0.599108 0.415618,-1.17612 -0.153303,-0.755451 -0.379634,-1.6805 -0.379634,-1.6805 0,0 1.33172,-1.32759 1.11366,-1.89237 -0.21806,-0.564786 -2.94128,-2.92485 -2.94581,-2.94747 -1.86866,-8.56857 -0.0362314,-15.8779 4.85914,-21.7819l3.93307 -5.20781c-1.97583,-0.583378 -5.57995,-0.899882 -7.67533,0.0403317z"/>
  <path class="fil2" d="M16.2282 14.5291l5.74891 -7.95451c-3.91546,-0.17278 -6.16573,-0.0031106 -9.01561,2.91968 -4.05321,4.15703 -6.96753,10.4277 -7.69297,16.232 -0.72993,5.84234 0.38483,10.9651 3.08882,16.2621 0,0 0.328309,0.96676 2.39721,0.727597 0,0 -0.601689,-1.06453 -0.560933,-1.1564 0.0407912,-0.0919747 1.04848,1.06959 1.04848,1.06959 0,0 1.27301,0.00463055 2.31248,-0.892247 0,0 0.00424172,-1.43805 0.0944491,-1.43476 0.0902073,0.00328734 0.379458,1.06474 0.379458,1.06474l1.3593 -0.358956c0.620988,-0.291972 0.815083,-0.338348 0.646439,-1.10748 -0.128736,-0.587549 -0.343898,-1.57852 -0.816991,-3.24213 0.130539,-0.153869 0.446512,0.568674 0.677863,0.965699 0,0 0.744175,-0.821728 0.712292,-1.10175 -0.0317069,-0.280131 -2.63779,-2.30612 -2.63779,-2.30612 -2.10595,-6.60776 -0.681574,-14.5007 2.25858,-19.687z"/>
  <path class="fil3" d="M15.2824 7.62337c-0.759799,0.440538 -1.51649,1.04597 -2.32089,1.87095 -4.05321,4.15703 -6.96753,10.4277 -7.69297,16.232 -0.72993,5.84234 0.38483,10.9651 3.08882,16.2621 0,0 0.0279954,0.0816532 0.118238,0.191726 0.597588,-0.0834206 1.20207,-0.21905 1.79485,-0.38734 -0.0544355,-0.119617 -0.0874149,-0.209294 -0.0768106,-0.233189 0.0120889,-0.0272884 0.109401,0.0556373 0.240117,0.185929 1.15276,-0.339974 2.2538,-0.797197 3.16302,-1.2254 0.013008,-0.13167 0.0300102,-0.218767 0.0522792,-0.217954 0.0201128,0.000742302 0.0472245,0.0619292 0.0770933,0.15659 1.19793,-0.57182 2.03582,-1.07786 2.17374,-1.16237l-0.00120182 -0.00526681c-2.64938,0.910203 -7.12242,1.36573 -7.12242,1.36573 -6.03523,-12.4155 -1.85119,-25.6553 6.50613,-33.0335z"/>
  <path class="fil4" d="M16.2282 14.5291l0.143618 -0.198725c-0.0377867,-0.021244 -0.0751492,-0.0447502 -0.113289,-0.0634138 0,0 -10.1302,11.49 -0.383487,26.4906 0.223751,-0.156449 0.270622,-0.348988 0.159206,-0.857146 -0.128736,-0.587549 -0.343898,-1.57852 -0.816991,-3.24213 0.130539,-0.153869 0.446512,0.568674 0.677863,0.965699 0,0 0.744175,-0.821728 0.712292,-1.10175 -0.0317069,-0.280131 -2.63779,-2.30612 -2.63779,-2.30612 -2.10595,-6.60776 -0.681574,-14.5007 2.25858,-19.687z"/>
  <path class="fil1" d="M6.80973 21.9518c-2.63902,-0.29784 -3.31975,2.6122 -0.991397,3.58609l0.991397 -3.58609z"/>
  <path class="fil2" d="M5.8188 25.553c-0.860646,-1.34123 -0.882632,-2.82365 0.990372,-3.62222 0,0 0.532937,2.6304 -0.990372,3.62222z"/>
  <path class="fil3" d="M5.90826 25.6637c-1.04201,-1.32794 -1.05382,-2.96797 0.968916,-3.77199 -0.803877,0.537568 -1.46718,2.24253 -0.933003,3.66238l-0.0359133 0.109613z"/>
  <path class="fil3" d="M6.70489 22.4482c0.23022,0.143158 0.227745,0.563442 -0.00547889,0.938481 -0.233295,0.375074 -0.609147,0.563124 -0.839367,0.419966 -0.230184,-0.143158 -0.22771,-0.563442 0.00554959,-0.938517 0.233259,-0.375039 0.609112,-0.563089 0.839296,-0.419931z"/>
  <path class="fil2" d="M16.119 36.5344c0,0 -0.427106,-0.884011 -1.5197,-1.44024 -1.0926,-0.556231 0.754885,1.46011 1.5197,1.44024z"/>
  <path class="fil4" d="M8.24072 41.7569c0.0384936,0.0772347 0.0772701,0.15454 0.116612,0.231527 0,0 0.328309,0.966724 2.39707,0.727562 0,0 -0.601547,-1.06446 -0.560791,-1.15647 0.0407559,-0.0920101 1.04855,1.06987 1.04855,1.06987 0,0 1.27294,0.00445381 2.31234,-0.892529 0,0 0.00424172,-1.43812 0.0945198,-1.43483 0.0902427,0.00328734 0.309999,1.17432 0.309999,1.17432 0.701086,-0.0932826 1.50609,-0.348882 1.97855,-0.767505 0.169068,-0.149768 0.196851,-0.351851 0.096676,-0.808473 -0.0429828,-0.195897 -0.0954388,-0.436792 -0.163943,-0.732298 -3.92423,1.7629 -6.43261,2.37692 -7.62959,2.58883z"/>
  <path class="fil4" d="M8.45786 23.2436c0,0 0,1.31345 -1.77117,2.02988 0,0 1.17414,-0.0398015 1.67166,-0.51742 0.497519,-0.477618 0.0995038,-1.51246 0.0995038,-1.51246z"/>
  <path class="fil1" d="M17.9957 32.2836c-1.03742,-6.36124 -1.66286,-17.084 -2.2958,-22.0451 1.12172,-4.61878 9.94479,-3.20247 12.9504,-2.57773 3.00561,-0.624735 11.8287,-2.04105 12.9504,2.57773 -0.632936,4.96116 -1.27842,15.664 -2.31584,22.0252 -5.64517,2.14681 -15.6439,2.16667 -21.2892,0.0199008z"/>
  <path class="fil1" d="M44.429 27.5801l-1.69726 -0.289038 0.0735232 -0.330572 1.68715 0.14588c0,0 0.0624594,0.230043 -0.0634138,0.47373zm6.28963 4.59859c-0.0259452,0.103392 0.0368323,0.208375 0.140224,0.234391 0.103357,0.0259806 0.208375,-0.036797 0.234355,-0.140189 0.0260159,-0.103357 -0.036797,-0.208375 -0.140189,-0.234355 -0.103357,-0.0260159 -0.208375,0.036797 -0.234391,0.140154zm1.20582 -5.68486l1.69726 -0.289073 -0.0735232 -0.330572 -1.68715 0.14588c0,0 -0.0624594,0.230043 0.0634138,0.473765zm0.563725 2.74093l1.14841 0.0769519 0.0037822 -0.226402 -1.11953 -0.168432c0,0 -0.0764924,0.1398 -0.0326613,0.317882zm-0.317422 2.95602l1.30263 0.390239 0.0638379 -0.25977 -1.2453 -0.48801c0,0 -0.124848,0.140896 -0.121172,0.357542zm-0.364505 -3.67987l1.92974 -0.194943 -0.057334 -0.377195 -1.90743 0.0348175c0,0 -0.087839,0.253761 0.0350296,0.53732zm-7.25904 1.08631l-1.92974 -0.194943 0.057334 -0.377195 1.90743 0.0347821c0,0 0.087839,0.253796 -0.0350296,0.537356zm-0.456233 0.865488l-1.35944 0.032838 0.0069635 -0.267405 1.32992 -0.142274c0,0 0.0832792,0.168891 0.0225518,0.376842z"/>
  <path class="fil1" d="M41.6773 6.4629c5.90176,2.64818 10.7394,12.8851 11.1705,18.2773 0.493949,6.17733 0.357719,9.9964 -3.24534,17.5432 0,0 -0.813386,1.51956 -3.49108,0.868033 -1.24721,0.117178 -2.35532,-0.372706 -2.92863,-1.12038 -0.0148107,-0.0193352 -1.46658,-0.223256 -2.18477,-0.922363 -0.325764,-0.31714 -0.532725,-0.599108 -0.415618,-1.17612 0.153303,-0.755451 0.379634,-1.6805 0.379634,-1.6805 0,0 -1.33172,-1.32759 -1.11366,-1.89237 0.21806,-0.564786 2.94128,-2.92485 2.94581,-2.94747 1.86866,-8.56857 0.0362314,-15.8779 -4.85914,-21.7819l-3.93307 -5.20781c1.97583,-0.583378 5.57995,-0.899882 7.67533,0.0403317z"/>
  <path class="fil2" d="M41.0836 14.5095l-5.74891 -7.95451c3.91546,-0.17278 6.16573,-0.0031106 9.01561,2.91968 4.05321,4.15703 6.96753,10.4277 7.69297,16.232 0.72993,5.84234 -0.38483,10.9651 -3.08882,16.2621 0,0 -0.328309,0.96676 -2.39721,0.727597 0,0 0.601689,-1.06453 0.560933,-1.1564 -0.0407912,-0.0919747 -1.04848,1.06959 -1.04848,1.06959 0,0 -1.27301,0.00463055 -2.31248,-0.892247 0,0 -0.00424172,-1.43805 -0.0944491,-1.43476 -0.0902073,0.00328734 -0.379458,1.06474 -0.379458,1.06474l-1.3593 -0.358956c-0.620988,-0.291972 -0.815083,-0.338348 -0.646439,-1.10748 0.128736,-0.587549 0.343898,-1.57852 0.816991,-3.24213 -0.130539,-0.153869 -0.446512,0.568674 -0.677863,0.965699 0,0 -0.744175,-0.821728 -0.712292,-1.10175 0.0317069,-0.280131 2.63779,-2.30612 2.63779,-2.30612 2.10595,-6.60776 0.681574,-14.5007 -2.25858,-19.687z"/>
  <path class="fil4" d="M41.0836 14.5095l-0.143618 -0.198725c0.0377867,-0.021244 0.0751492,-0.0447502 0.113289,-0.0634138 0,0 10.1302,11.49 0.383487,26.4906 -0.223751,-0.156449 -0.270622,-0.348988 -0.159206,-0.857146 0.128736,-0.587549 0.343898,-1.57852 0.816991,-3.24213 -0.130539,-0.153869 -0.446512,0.568674 -0.677863,0.965699 0,0 -0.744175,-0.821728 -0.712292,-1.10175 0.0317069,-0.280131 2.63779,-2.30612 2.63779,-2.30612 2.10595,-6.60776 0.681574,-14.5007 -2.25858,-19.687z"/>
  <path class="fil5" d="M43.5241 21.0696c-0.533043,-2.13811 -1.39051,-4.42136 -2.71591,-6.75926l-5.74891 -7.95451c3.91546,-0.17278 6.16573,-0.0031106 9.01561,2.91968 2.53991,2.60498 4.63271,6.04022 6.0201,9.67035 -2.27593,0.534033 -4.77293,1.42494 -6.57089,2.12373z"/>
  <path class="fil6" d="M43.5239 21.0696c-0.533043,-2.13815 -1.39033,-4.42136 -2.71573,-6.75926l-0.119723 -0.165639c1.95172,1.9929 3.24255,4.19712 4.03985,6.46881 -0.426258,0.157085 -0.830353,0.310706 -1.2044,0.456091z"/>
  <path class="fil5" d="M18.7694 31.9234c-1.02788,-6.72412 -1.78407,-14.2492 -2.2116,-20.9503 0.87627,-3.60815 6.47909,-5.43064 12.0852,-5.44054l0 -0.000106043 0.00735232 3.53477e-005 0.00735232 -3.53477e-005 0 0.000106043c5.60611,0.00989736 11.2089,1.83239 12.0852,5.44054 -0.42753,6.70111 -1.18372,14.2261 -2.2116,20.9503 -5.47013,1.72504 -14.2917,1.72511 -19.7619,3.53477e-005z"/>
  <path class="fil6" d="M25.5146 17.4047l0 6.52741 0.79603 0.815966 2.28859 0.298511 2.20898 -0.218908c0,0 0.756229,-0.139305 0.855732,-0.79603l0 -6.74636c0,0 -5.77122,-0.0995038 -6.14933,0.119405z"/>
  <polygon class="fil7" points="32.2892,22.3966 36.8705,22.6754 38.9022,21.0421 "/>
  <path class="fil6" d="M18.7693 31.9234c-0.831449,-5.43899 -1.48492,-11.402 -1.93062,-17.0292 0.0541173,-0.252064 0.102508,-0.399853 0.143476,-0.415512l2.50972 16.9307c0.119935,-0.285998 7.10362,2.29502 18.1947,-0.111557l2.82923 -17.3262c0,0 -0.000424172,0.394127 -0.0382109,0.726112 -0.445982,5.68465 -1.10504,11.7233 -1.94614,17.2256 -5.4702,1.72507 -14.2919,1.72514 -19.7621,3.53477e-005z"/>
  <polygon class="fil6" points="17.8611,21.5188 37.1489,27.0177 18.2995,24.866 "/>
  <path class="fil1" d="M38.8328 30.4016c0,0 -1.75583,1.01494 -3.21233,1.31345 0,0 1.35675,-0.0398015 3.39189,-0.577122l0.259381 -0.557221 -0.438948 -0.179107z"/>
  <path class="fil1" d="M18.557 30.5805c0,0 1.75583,1.01494 3.21236,1.31345 0,0 -1.35679,-0.0398015 -3.39193,-0.577122l-0.259381 -0.557221 0.438948 -0.179107z"/>
  <path class="fil4" d="M13.0896 23.5706c0.119051,-0.842548 0.284938,-1.71769 0.50929,-2.61905 -1.59994,-0.591897 -4.13625,-1.42494 -6.71585,-1.84755 -0.350967,0.944385 -0.643858,1.90065 -0.893908,2.85768 2.83202,-0.000318129 5.61449,1.11699 7.10047,1.60892z"/>
  <path class="fil5" d="M13.7877 21.0893c0.533043,-2.13811 1.39051,-4.42136 2.71591,-6.75926l5.74891 -7.95451c-3.91546,-0.17278 -6.16573,-0.0031106 -9.01561,2.91968 -2.53991,2.60498 -4.63271,6.04022 -6.0201,9.67035 2.27593,0.534033 4.77293,1.42494 6.57089,2.12373z"/>
  <path class="fil7" d="M8.24577 18.4392c1.35141,-3.33562 3.47111,-6.89241 6.5383,-10.5079 -3.23057,2.36377 -5.60367,5.95216 -7.20305,9.56774 0.172355,0.570477 0.625159,0.993518 0.625159,0.993518 0.0128312,-0.017992 0.0260866,-0.0356658 0.0395894,-0.0533397z"/>
  <path class="fil6" d="M13.8117 20.9938c0.123964,-0.489389 0.265002,-0.986272 0.424773,-1.48959 -1.20175,-0.950464 -3.56711,-2.30573 -6.32264,-2.73195 -0.339833,0.719396 -0.652589,1.45222 -0.935795,2.19325 2.22337,0.521697 4.89643,1.384 6.6839,2.07502 0.0501937,-0.015553 0.100069,-0.031106 0.149768,-0.0467297z"/>
  <path class="fil6" d="M13.7879 21.0893c0.533043,-2.13815 1.39033,-4.42136 2.71573,-6.75926l0.119723 -0.165639c-1.95172,1.9929 -3.24255,4.19712 -4.03985,6.46881 0.426258,0.157085 0.830353,0.310706 1.2044,0.456091z"/>
  <g id="_123967576">
   <path id="_123967888" class="fil1" d="M14.0985 23.7217c0,0 -4.00988,-2.55861 -9.02731,-2.56271 0,0 -0.0755734,-2.14522 1.27414,-3.86874 0,0 4.62058,0.230785 8.61491,3.8904 0,0 -0.256766,1.27718 -0.861742,2.54104z"/>
   <path id="_123967816" class="fil5" d="M13.6064 22.7545c-0.0665244,-0.0360547 -0.133013,-0.0714377 -0.198654,-0.106114 -0.601724,-0.317776 -1.22398,-0.599214 -1.85399,-0.846648 -1.79351,-0.704515 -3.7073,-1.15096 -5.62283,-1.22367 0.0223397,-0.204133 0.0563796,-0.408372 0.0925756,-0.585181 0.141815,-0.69232 0.401974,-1.35611 0.794899,-1.92747 0.152313,0.0171436 0.305758,0.0407206 0.451885,0.0643328 0.617065,0.0997866 1.23162,0.250226 1.83013,0.438099 1.80754,0.567437 3.51211,1.4969 4.97102,2.77048 -0.115622,0.467403 -0.280731,0.963614 -0.465034,1.41617z"/>
   <path id="_123967744" class="fil7" d="M5.97493 20.5799l-0.0440079 -0.00183808c0.0224104,-0.204133 0.0563796,-0.408337 0.0925756,-0.58511 0.14185,-0.692355 0.402009,-1.35619 0.794899,-1.92751 0.152313,0.017179 0.305758,0.0407206 0.451885,0.0643328 0.617065,0.0997866 1.23162,0.250156 1.83013,0.438099 1.58736,0.498332 3.09529,1.27598 4.42719,2.32058 -0.0328027,0.0463762 -0.0673727,0.0925049 -0.105548,0.13828 0,0 -3.35952,-2.08958 -6.19645,-2.16918 0,0 -0.657644,0.621766 -1.25067,1.72235z"/>
   <path id="_123967672" class="fil6" d="M13.6064 22.7545c-0.0665244,-0.0360547 -0.133013,-0.0714024 -0.198654,-0.106078 -0.601759,-0.317811 -1.22402,-0.59925 -1.85395,-0.846683 -0.0878037,-0.0344994 -0.175819,-0.0682564 -0.264189,-0.101483 0.356234,-0.67348 0.608687,-1.34639 0.764535,-1.81853 0.710666,0.42039 1.38687,0.906315 2.01729,1.45664 -0.115622,0.467332 -0.280661,0.963578 -0.465034,1.41613z"/>
   <path id="_123967600" class="fil1" d="M14.3951 21.9393c0,0 -1.87689,-1.27054 -4.07145,-1.56912 0,0 1.64225,0.556762 3.90076,2.30849l0.170694 -0.739368z"/>
  </g>
  <path class="fil6" d="M24.5497 17.5956c-0.858737,-0.0304697 -1.71751,-0.0679383 -2.57416,-0.138351 -0.647428,-0.0531629 -1.45145,-0.105124 -2.04501,-0.382391 -0.869553,-0.406145 -1.35601,-1.49107 -1.72716,-2.34288 -0.422617,-0.970153 -0.785779,-1.96618 -1.13756,-2.96557 -0.502185,-1.42688 -0.975985,-2.8644 -1.42144,-4.31129l-0.0769166 -0.249944c1.19585,-0.602961 5.21121,-2.18272 14.3676,-2.11818 6.51522,0.0459167 9.94168,1.11059 11.676,2.00457l-0.128666 0.41728c-0.440609,1.42868 -0.908895,2.84835 -1.40486,4.25763 -0.351816,0.99935 -0.714943,1.99534 -1.13752,2.9655 -0.371151,0.851774 -0.857606,1.93674 -1.72716,2.34285 -0.593559,0.277267 -1.39754,0.329228 -2.04501,0.382427 -0.856687,0.0704126 -1.71549,0.107917 -2.57427,0.138351 -2.68197,0.095156 -5.36193,0.095156 -8.0439,0z"/>
  <path class="fil1" d="M26.9719 15.2135l3.23474 0c0.672879,0 1.22338,0.550505 1.22338,1.22338l0 6.93957c0,0.672879 -0.550505,1.22338 -1.22338,1.22338l-3.23474 0c-0.672879,0 -1.22338,-0.550505 -1.22338,-1.22338l0 -6.93957c0,-0.672879 0.550505,-1.22338 1.22338,-1.22338z"/>
  <path class="fil1" d="M17.478 5.96902c1.95342,-0.501407 11.7647,-2.73863 22.2981,-0.123363 0.211909,0.068822 0.411377,0.138422 0.599568,0.208516l-5.00014 1.64257 -18.208 -1.62949c0.0991503,-0.0324492 0.202966,-0.0652165 0.310424,-0.0982313z"/>
  <path class="fil1" d="M24.5497 17.0981c-0.858737,-0.0304697 -1.71751,-0.0679383 -2.57416,-0.138351 -0.647428,-0.0531629 -1.45145,-0.105124 -2.04501,-0.382391 -0.869553,-0.406145 -1.35601,-1.49107 -1.72716,-2.34288 -0.422617,-0.970153 -0.785779,-1.96618 -1.13756,-2.96557 -0.502185,-1.42688 -0.975985,-2.8644 -1.42144,-4.31129l-0.0769166 -0.249944c1.19585,-0.602961 5.21121,-2.18272 14.3676,-2.11818 6.51522,0.0459167 9.94168,1.11059 11.676,2.00457l-0.128666 0.41728c-0.440609,1.42868 -0.908895,2.84835 -1.40486,4.25763 -0.351816,0.99935 -0.714943,1.99534 -1.13752,2.9655 -0.371151,0.851774 -0.857606,1.93674 -1.72716,2.34285 -0.593559,0.277267 -1.39754,0.329228 -2.04501,0.382427 -0.856687,0.0704126 -1.71549,0.107917 -2.57427,0.138351 -2.68197,0.095156 -5.36193,0.095156 -8.0439,0z"/>
  <path class="fil8" d="M24.6276 16.6365c-0.839367,-0.0297981 -1.67884,-0.0663123 -2.51616,-0.135134 -0.579526,-0.0476134 -1.37283,-0.100847 -1.89718,-0.345771 -0.75181,-0.351144 -1.2038,-1.38415 -1.52748,-2.12705 -0.412048,-0.945904 -0.766197,-1.91779 -1.10918,-2.89222 -0.492287,-1.39867 -0.956827,-2.80802 -1.39341,-4.22628 3.99885,-1.36021 19.8458,-1.85936 24.7579,0.0526327 -0.431878,1.40051 -0.890939,2.79229 -1.37715,4.17368 -0.342979,0.974395 -0.697127,1.94628 -1.10918,2.89218 -0.323679,0.742903 -0.77567,1.7759 -1.52744,2.12701 -0.524383,0.24496 -1.31769,0.298193 -1.89718,0.345807 -0.837387,0.068822 -1.67686,0.105371 -2.51626,0.135134 -0.541209,0.0191938 -1.0792,0.0343933 -1.61507,0.0457753l0 6.70663c0,0.374438 -0.311908,0.680797 -0.693168,0.680797l-3.23474 0c-0.38126,0 -0.693168,-0.306359 -0.693168,-0.680797l0 -6.70585c-0.547889,-0.0114527 -1.09769,-0.0268996 -1.65113,-0.0465529z"/>
  <path class="fil9" d="M22.0518 16.2428c-0.579526,-0.0476134 -1.31324,-0.0412508 -1.83759,-0.286175 -0.75181,-0.351144 -1.2038,-1.38415 -1.52748,-2.12705 -0.412048,-0.945904 -0.766197,-1.71878 -1.10918,-2.69321 -0.492287,-1.39867 -0.956827,-2.80802 -1.39341,-4.22628 3.99885,-1.36021 19.8458,-1.85936 24.7579,0.0526327 -0.431878,1.40051 -0.890939,2.79229 -1.37715,4.17368 -0.342979,0.974395 -0.697127,1.94628 -1.10918,2.89218 -0.323679,0.742903 -0.914975,1.53709 -1.66675,1.8882 -0.524383,0.24496 -1.31769,0.298193 -1.89718,0.345807 -1.40525,0.115481 -2.78664,0.101448 -4.19093,0.131246l-0.0394834 6.71698c-0.00215621,0.37412 -0.312191,0.676732 -0.693168,0.680797l-2.77783 0.0297981c-0.380942,0.00406499 -0.691578,-0.306359 -0.693168,-0.680797l-0.0295507 -6.7659c-1.44438,-0.0301869 -2.96928,-0.0130433 -4.41585,-0.131918z"/>
  <path class="fil1" d="M40.1265 6.69461c-0.427672,1.3869 -0.885212,2.77384 -1.36605,4.13992 -0.334142,0.949333 -0.683978,1.91026 -1.08528,2.83153 -0.204769,0.470018 -0.623321,1.46191 -1.09967,1.68439 -0.381154,0.178046 -1.1898,0.23531 -1.61228,0.270021 -0.823107,0.0676555 -1.65258,0.103604 -2.47777,0.132872 -2.64662,0.0939188 -5.18183,0.0939188 -7.82846,0 -0.825121,-0.0293032 -1.65463,-0.0652165 -2.4777,-0.132872 -0.422476,-0.0347114 -1.23113,-0.0919747 -1.61228,-0.270021 -0.476346,-0.222478 -0.894862,-1.21437 -1.09967,-1.68439 -0.401302,-0.921267 -0.751139,-1.88219 -1.08528,-2.83153 -0.486879,-1.38323 -0.949899,-2.78784 -1.38217,-4.19213 2.72457,-0.590625 14.0986,-2.75602 23.1266,0.0522086z"/>
  <path class="fil2" d="M17.5065 6.53572c0.468711,1.50733 2.51895,7.97981 3.27221,8.33167 0.768883,0.359133 6.56251,0.426823 7.69604,0.436685l0 0.00151995 0.0964639 -0.000706954 0.0965346 0.000706954 0 -0.00151995c1.13381,-0.00986201 6.92716,-0.0775529 7.69604,-0.436685 0.751421,-0.351003 2.7936,-6.7934 3.26871,-8.32081 -8.4592,-2.44214 -18.7697,-0.698082 -22.126,-0.0108517z"/>
  <path class="fil4" d="M17.5392 6.55884c0,0 2.27081,7.03101 10.7162,7.11068 8.44541,0.0796737 11.3336,-7.17056 11.3336,-7.17056 0,0 -9.42748,-2.92764 -22.0499,0.059879z"/>
  <path class="fil4" d="M17.5065 6.53572c0.468711,1.50733 2.51895,7.97981 3.27221,8.33167 0.768883,0.359133 6.56251,0.426823 7.69604,0.436685l0 0.00151995 0.0964639 -0.000706954 0.0965346 0.000706954 0 -0.00151995c1.13381,-0.00986201 6.92716,-0.0775529 7.69604,-0.436685 0.751421,-0.351003 2.7936,-6.7934 3.26871,-8.32081 -0.0842689,-0.0243192 -0.169033,-0.0475073 -0.253655,-0.0710135 -0.723285,2.27183 -2.35981,7.20934 -3.01505,7.51542 -0.768883,0.359133 -6.56223,0.426823 -7.69604,0.436685l0 0.00151995 -0.0965346 -0.000706954 -0.0964639 0.000706954 0 -0.00151995c-1.13353,-0.00986201 -6.92716,-0.0775529 -7.69604,-0.436685 -0.654533,-0.305722 -2.28827,-5.23234 -3.01279,-7.50753 -0.090172,0.0179566 -0.177445,0.0354891 -0.259417,0.0522792z"/>
  <path class="fil1" d="M28.5865 15.4649l0.00558494 0c0.151854,0 0.276066,0.124212 0.276066,0.276066l0 6.89736c0,0.151854 -0.124212,0.276066 -0.276066,0.276066l-0.00558494 0c-0.151854,0 -0.276066,-0.124212 -0.276066,-0.276066l0 -6.89736c0,-0.151854 0.124212,-0.276066 0.276066,-0.276066z"/>
  <g id="_123965224">
   <path id="_123965536" class="fil10" d="M30.0575 18.7362c-0.00455985,-0.105866 0.0776589,-0.195473 0.183561,-0.200033 0.105902,-0.00455985 0.195473,0.0776942 0.200033,0.183561 0.00692815,0.158853 -0.051643,0.306076 -0.151818,0.415371 -0.0999633,0.108942 -0.241177,0.179849 -0.399924,0.186777l-0.000671606 3.53477e-005 0 0.000247434c-0.158888,0.00685745 -0.306076,-0.0517137 -0.415335,-0.151889 -0.109154,-0.100069 -0.180132,-0.241531 -0.18706,-0.40056 -0.0182394,-0.420673 0.240789,-0.506603 0.499746,-0.592498 0.121808,-0.0404024 0.243722,-0.0808402 0.237996,-0.212228l-0.000176739 -0.00590307c-0.00392359,-0.0513602 -0.0272531,-0.0968174 -0.0623533,-0.129019 -0.0363021,-0.0332622 -0.0857535,-0.0527034 -0.139694,-0.0503705l-0.000424172 0c-0.0537285,0.00243899 -0.101271,0.0261926 -0.134604,0.0625301 -0.0332975,0.0363021 -0.0527034,0.0858596 -0.0503705,0.139765 0.00455985,0.105902 -0.0776589,0.195473 -0.183561,0.200068 -0.105902,0.00455985 -0.195473,-0.0776942 -0.200033,-0.183596 -0.00692815,-0.158853 0.0516783,-0.306005 0.151854,-0.4153 0.100034,-0.109118 0.241566,-0.180132 0.40056,-0.18706l0.000106043 0c0.158888,-0.0068928 0.305934,0.0516783 0.415229,0.151854 0.106432,0.0976303 0.17642,0.234603 0.186176,0.388825 0.000388825,0.00392359 0.000706954,0.00781184 0.000883693,0.0117354 0.0183101,0.420779 -0.240753,0.506674 -0.49971,0.592569 -0.121808,0.0404024 -0.243758,0.0808755 -0.237996,0.212157 0.00233295,0.0538345 0.0260866,0.101519 0.0624947,0.134887 0.0363021,0.0332975 0.0858596,0.0527741 0.1398,0.0504412l0 0.000247434c0.0538699,-0.00258038 0.101519,-0.0263694 0.134922,-0.0627775 0.0332622,-0.0363021 0.0527388,-0.0858596 0.0503705,-0.139836z"/>
   <path id="_123965464" class="fil10" d="M30.0575 21.6939c-0.00455985,-0.105866 0.0776589,-0.195437 0.183561,-0.200033 0.105902,-0.00455985 0.195473,0.0776942 0.200033,0.183561 0.00692815,0.158853 -0.051643,0.306076 -0.151818,0.415371 -0.0999633,0.108942 -0.241177,0.179849 -0.399924,0.186777l-0.000671606 3.53477e-005 0 0.000247434c-0.158888,0.0068928 -0.306076,-0.0517137 -0.415335,-0.151889 -0.109154,-0.100069 -0.180132,-0.241531 -0.18706,-0.40056 -0.0182394,-0.420673 0.240789,-0.506603 0.499746,-0.592498 0.121808,-0.0404024 0.243722,-0.0808402 0.237996,-0.212228l-0.000176739 -0.00586772c-0.00392359,-0.0513956 -0.0272531,-0.0968527 -0.0623533,-0.129054 -0.0362667,-0.0332622 -0.0857535,-0.0527034 -0.139694,-0.0503705l-0.000424172 0c-0.0537285,0.00243899 -0.101271,0.0261926 -0.134604,0.0625301 -0.0332975,0.0363021 -0.0527034,0.0858596 -0.0503705,0.1398 0.00455985,0.105866 -0.0776589,0.195437 -0.183561,0.200033 -0.105902,0.00455985 -0.195473,-0.0776942 -0.200033,-0.183596 -0.00692815,-0.158853 0.0516783,-0.306005 0.151854,-0.4153 0.100034,-0.109118 0.241566,-0.180132 0.400595,-0.18706l7.06954e-005 0c0.158888,-0.0068928 0.305934,0.0516783 0.415229,0.151854 0.106467,0.0976303 0.176456,0.234603 0.186176,0.388825 0.000388825,0.00392359 0.000706954,0.00781184 0.000883693,0.0117354 0.0183101,0.420779 -0.240753,0.506674 -0.49971,0.592569 -0.121808,0.0404024 -0.243758,0.0808755 -0.237996,0.212192 0.00233295,0.0537992 0.0260866,0.101483 0.0624947,0.134887 0.0363021,0.0332975 0.0858596,0.0527388 0.1398,0.0504058l0 0.000247434c0.0538699,-0.00258038 0.101519,-0.0263694 0.134922,-0.0627775 0.0332622,-0.0363021 0.0527388,-0.0858596 0.0503705,-0.139836z"/>
   <path id="_123965392" class="fil1" d="M29.6711 16.7575c0.0872735,-0.0971001 0.236794,-0.105053 0.333894,-0.0177799 0.0971001,0.0872735 0.105053,0.236794 0.0178152,0.333894 -0.0872735,0.0970648 -0.23683,0.105053 -0.333894,0.0177799 -0.0971001,-0.0872735 -0.105089,-0.236794 -0.0178152,-0.333894z"/>
   <path id="_123965320" class="fil1" d="M29.6711 19.6496c0.0872735,-0.0971001 0.236794,-0.105089 0.333894,-0.0178152 0.0970648,0.0872735 0.105053,0.236794 0.0177799,0.333894 -0.0872735,0.0971001 -0.236794,0.105053 -0.333894,0.0178152 -0.0971001,-0.0872735 -0.105053,-0.236794 -0.0177799,-0.333894z"/>
   <path id="_123965248" class="fil1" d="M29.6711 22.8536c0.0872735,-0.0971001 0.236794,-0.105089 0.333894,-0.0178152 0.0970648,0.0872735 0.105053,0.236794 0.0177799,0.333894 -0.0872735,0.0971001 -0.236794,0.105053 -0.333894,0.0178152 -0.0971001,-0.0872735 -0.105053,-0.236794 -0.0177799,-0.333894z"/>
  </g>
  <g id="_123964456">
   <path id="_123964768" class="fil10" d="M27.1187 18.7363c0.00455985,-0.105866 -0.0776589,-0.195473 -0.183561,-0.200033 -0.105902,-0.00455985 -0.195473,0.0776942 -0.200033,0.183561 -0.00692815,0.158853 0.051643,0.306076 0.151818,0.415371 0.0999633,0.108942 0.241177,0.179849 0.399924,0.186777l0.000671606 3.53477e-005 0 0.000247434c0.158888,0.00685745 0.306076,-0.0517137 0.415335,-0.151889 0.109154,-0.100069 0.180132,-0.241531 0.18706,-0.40056 0.0182394,-0.420673 -0.240789,-0.506603 -0.499746,-0.592498 -0.121808,-0.0404024 -0.243722,-0.0808402 -0.237996,-0.212228l0.000176739 -0.00590307c0.00392359,-0.0513602 0.0272531,-0.0968174 0.0623533,-0.129019 0.0363021,-0.0332622 0.0857535,-0.0527034 0.139694,-0.0503705l0.000424172 0c0.0537285,0.00243899 0.101271,0.0261926 0.134604,0.0625301 0.0332975,0.0363021 0.0527034,0.0858596 0.0503705,0.139765 -0.00455985,0.105902 0.0776589,0.195473 0.183561,0.200068 0.105902,0.00455985 0.195473,-0.0776942 0.200033,-0.183596 0.00692815,-0.158853 -0.0516783,-0.306005 -0.151854,-0.4153 -0.100034,-0.109118 -0.241566,-0.180132 -0.40056,-0.18706l-0.000106043 0c-0.158888,-0.0068928 -0.305934,0.0516783 -0.415229,0.151854 -0.106432,0.0976303 -0.17642,0.234603 -0.186176,0.388825 -0.000388825,0.00392359 -0.000706954,0.00781184 -0.000883693,0.0117354 -0.0183101,0.420779 0.240753,0.506674 0.49971,0.592569 0.121808,0.0404024 0.243758,0.0808755 0.237996,0.212157 -0.00233295,0.0538345 -0.0260866,0.101519 -0.0624947,0.134887 -0.0363021,0.0332975 -0.0858596,0.0527741 -0.1398,0.0504412l0 0.000247434c-0.0538699,-0.00258038 -0.101519,-0.0263694 -0.134922,-0.0627775 -0.0332622,-0.0363021 -0.0527388,-0.0858596 -0.0503705,-0.139836z"/>
   <path id="_123964696" class="fil10" d="M27.1187 21.694c0.00455985,-0.105866 -0.0776589,-0.195437 -0.183561,-0.200033 -0.105902,-0.00455985 -0.195473,0.0776942 -0.200033,0.183561 -0.00692815,0.158853 0.051643,0.306076 0.151818,0.415371 0.0999633,0.108942 0.241177,0.179849 0.399924,0.186777l0.000671606 3.53477e-005 0 0.000247434c0.158888,0.0068928 0.306076,-0.0517137 0.415335,-0.151889 0.109154,-0.100069 0.180132,-0.241531 0.18706,-0.40056 0.0182394,-0.420673 -0.240789,-0.506603 -0.499746,-0.592498 -0.121808,-0.0404024 -0.243722,-0.0808402 -0.237996,-0.212228l0.000176739 -0.00586772c0.00392359,-0.0513956 0.0272531,-0.0968527 0.0623533,-0.129054 0.0362667,-0.0332622 0.0857535,-0.0527034 0.139694,-0.0503705l0.000424172 0c0.0537285,0.00243899 0.101271,0.0261926 0.134604,0.0625301 0.0332975,0.0363021 0.0527034,0.0858596 0.0503705,0.1398 -0.00455985,0.105866 0.0776589,0.195437 0.183561,0.200033 0.105902,0.00455985 0.195473,-0.0776942 0.200033,-0.183596 0.00692815,-0.158853 -0.0516783,-0.306005 -0.151854,-0.4153 -0.100034,-0.109118 -0.241566,-0.180132 -0.400595,-0.18706l-7.06954e-005 0c-0.158888,-0.0068928 -0.305934,0.0516783 -0.415229,0.151854 -0.106467,0.0976303 -0.176456,0.234603 -0.186176,0.388825 -0.000388825,0.00392359 -0.000706954,0.00781184 -0.000883693,0.0117354 -0.0183101,0.420779 0.240753,0.506674 0.49971,0.592569 0.121808,0.0404024 0.243758,0.0808755 0.237996,0.212192 -0.00233295,0.0537992 -0.0260866,0.101483 -0.0624947,0.134887 -0.0363021,0.0332975 -0.0858596,0.0527388 -0.1398,0.0504058l0 0.000247434c-0.0538699,-0.00258038 -0.101519,-0.0263694 -0.134922,-0.0627775 -0.0332622,-0.0363021 -0.0527388,-0.0858596 -0.0503705,-0.139836z"/>
   <path id="_123964624" class="fil1" d="M27.5051 16.7575c-0.0872735,-0.0971001 -0.236794,-0.105053 -0.333894,-0.0177799 -0.0971001,0.0872735 -0.105053,0.236794 -0.0178152,0.333894 0.0872735,0.0970648 0.23683,0.105053 0.333894,0.0177799 0.0971001,-0.0872735 0.105089,-0.236794 0.0178152,-0.333894z"/>
   <path id="_123964552" class="fil1" d="M27.5051 19.6496c-0.0872735,-0.0971001 -0.236794,-0.105089 -0.333894,-0.0178152 -0.0970648,0.0872735 -0.105053,0.236794 -0.0177799,0.333894 0.0872735,0.0971001 0.236794,0.105053 0.333894,0.0178152 0.0971001,-0.0872735 0.105053,-0.236794 0.0177799,-0.333894z"/>
   <path id="_123964480" class="fil1" d="M27.5051 22.8536c-0.0872735,-0.0971001 -0.236794,-0.105089 -0.333894,-0.0178152 -0.0970648,0.0872735 -0.105053,0.236794 -0.0177799,0.333894 0.0872735,0.0971001 0.236794,0.105053 0.333894,0.0178152 0.0971001,-0.0872735 0.105053,-0.236794 0.0177799,-0.333894z"/>
  </g>
  <polygon class="fil7" points="23.9832,27.6136 19.2427,25.4447 33.4445,27.3762 "/>
  <path class="fil6" d="M40.0745 17.6519c0,0 -6.0897,3.44237 -5.87079,3.52197 0.218908,0.079603 5.61201,-1.21395 5.61201,-1.21395l0.258781 -2.30803z"/>
  <path class="fil1" d="M14.4223 19.94c-0.0995038,0.0398015 -1.29355,-1.35325 -4.23886,-2.6667 0,0 2.6866,0.636824 4.57717,1.77117l0.0199008 0.51742 -0.358214 0.378114z"/>
  <path class="fil3" d="M42.0294 7.60368c0.759799,0.440538 1.51649,1.04597 2.32089,1.87095 4.05321,4.15703 6.96753,10.4277 7.69297,16.232 0.72993,5.84234 -0.38483,10.9651 -3.08882,16.2621 0,0 -0.0279954,0.0816532 -0.118238,0.191726 -0.597588,-0.0834206 -1.20207,-0.21905 -1.79485,-0.38734 0.0544355,-0.119617 0.0874149,-0.209294 0.0768106,-0.233189 -0.0120889,-0.0272884 -0.109401,0.0556373 -0.240117,0.185929 -1.15276,-0.339974 -2.2538,-0.797197 -3.16302,-1.2254 -0.013008,-0.13167 -0.0300102,-0.218767 -0.0522792,-0.217954 -0.0201128,0.000742302 -0.0472245,0.0619292 -0.0770933,0.15659 -1.19793,-0.57182 -2.03582,-1.07786 -2.17374,-1.16237l0.00120182 -0.00526681c2.64938,0.910203 7.12242,1.36573 7.12242,1.36573 6.03523,-12.4155 1.85119,-25.6553 -6.50613,-33.0335z"/>
  <path class="fil1" d="M50.5021 21.9321c2.63902,-0.29784 3.31975,2.6122 0.991397,3.58609l-0.991397 -3.58609z"/>
  <path class="fil2" d="M51.493 25.5333c0.860646,-1.34123 0.882632,-2.82365 -0.990372,-3.62222 0,0 -0.532937,2.6304 0.990372,3.62222z"/>
  <path class="fil3" d="M51.4035 25.644c1.04201,-1.32794 1.05382,-2.96797 -0.968916,-3.77199 0.803877,0.537568 1.46718,2.24253 0.933003,3.66238l0.0359133 0.109613z"/>
  <path class="fil3" d="M50.6069 22.4285c-0.23022,0.143158 -0.227745,0.563442 0.00547889,0.938481 0.233295,0.375074 0.609147,0.563124 0.839367,0.419966 0.230184,-0.143158 0.22771,-0.563442 -0.00554959,-0.938517 -0.233259,-0.375039 -0.609112,-0.563089 -0.839296,-0.419931z"/>
  <path class="fil2" d="M41.1928 36.5147c0,0 0.427106,-0.884011 1.5197,-1.44024 1.0926,-0.556231 -0.754885,1.46011 -1.5197,1.44024z"/>
  <path class="fil4" d="M49.0711 41.7372c-0.0384936,0.0772347 -0.0772701,0.15454 -0.116612,0.231527 0,0 -0.328309,0.966724 -2.39707,0.727562 0,0 0.601547,-1.06446 0.560791,-1.15647 -0.0407559,-0.0920101 -1.04855,1.06987 -1.04855,1.06987 0,0 -1.27294,0.00445381 -2.31234,-0.892529 0,0 -0.00424172,-1.43812 -0.0945198,-1.43483 -0.0902427,0.00328734 -0.309999,1.17432 -0.309999,1.17432 -0.701086,-0.0932826 -1.50609,-0.348882 -1.97855,-0.767505 -0.169068,-0.149768 -0.196851,-0.351851 -0.096676,-0.808473 0.0429828,-0.195897 0.0954388,-0.436792 0.163943,-0.732298 3.92423,1.7629 6.43261,2.37692 7.62959,2.58883z"/>
  <path class="fil4" d="M48.854 23.2239c0,0 0,1.31345 1.77117,2.02988 0,0 -1.17414,-0.0398015 -1.67166,-0.51742 -0.497519,-0.477618 -0.0995038,-1.51246 -0.0995038,-1.51246z"/>
  <path class="fil1" d="M50.1022 27.1524c0.129832,0.0948025 0.158181,0.276808 0.0634491,0.406569 -0.0948379,0.129761 -0.276808,0.15811 -0.40664,0.0633431 -0.129726,-0.0947318 -0.158075,-0.276772 -0.0633077,-0.406534 0.0947672,-0.129761 0.276808,-0.15811 0.406499,-0.0633784zm-2.32531 3.26885c-0.035383,0.100564 0.0174618,0.210884 0.117991,0.246303 0.100529,0.035383 0.210884,-0.0174264 0.246267,-0.117991 0.0354537,-0.100529 -0.0174264,-0.210884 -0.117991,-0.246303 -0.100529,-0.0354184 -0.210884,0.0174618 -0.246267,0.117991zm1.85399 -0.48444c-0.0236123,0.0670899 0.011594,0.140578 0.0786486,0.16419 0.0670546,0.0236123 0.140578,-0.011594 0.16419,-0.0786486 0.0236476,-0.0670546 -0.011594,-0.140578 -0.0786486,-0.164225 -0.0670546,-0.0235769 -0.140578,0.0116647 -0.16419,0.078684zm-0.353442 2.7825c-0.0236123,0.0670546 0.0115587,0.140578 0.0786133,0.164155 0.0670546,0.023683 0.140578,-0.011594 0.16419,-0.0786133 0.0236476,-0.0670899 -0.011594,-0.140578 -0.0786486,-0.16419 -0.0670546,-0.0236123 -0.140578,0.011594 -0.164155,0.0786486zm0.87535 -0.892812c-0.0295153,0.0837741 0.0145279,0.175749 0.0982666,0.205264 0.0837741,0.0295153 0.175819,-0.0145986 0.205299,-0.0983727 0.0295153,-0.0837387 -0.0146339,-0.175678 -0.0983727,-0.205193 -0.0837387,-0.02948 -0.175713,0.0145633 -0.205193,0.098302zm-3.00017 1.20702c-0.0413568,0.11739 0.0202896,0.24602 0.137609,0.287341 0.11739,0.0413568 0.24602,-0.0202896 0.287377,-0.137679 0.0413568,-0.117319 -0.0203603,-0.245949 -0.137715,-0.287306 -0.117319,-0.0413568 -0.245949,0.0202896 -0.287271,0.137644zm0.82551 -7.8217c0.111204,0.0811937 0.135488,0.237289 0.0542941,0.348458 -0.0811583,0.111204 -0.237324,0.135523 -0.348458,0.0542941 -0.111169,-0.0811583 -0.135488,-0.237289 -0.0543294,-0.348422 0.081229,-0.111204 0.237324,-0.135523 0.348493,-0.0543294zm-2.32818 0.83866c0.0740888,0.0541527 0.0903134,0.158181 0.036196,0.232305 -0.0541527,0.0741241 -0.158181,0.0903487 -0.23234,0.0362314 -0.0741595,-0.0541527 -0.0903487,-0.158216 -0.0362314,-0.23234 0.054188,-0.0741241 0.158216,-0.0903487 0.232376,-0.036196zm2.57918 2.39725c0.0741241,0.0541527 0.0903134,0.158216 0.0361607,0.232305 -0.0541173,0.0741595 -0.158146,0.0903841 -0.232305,0.036196 -0.0741595,-0.0541527 -0.0903841,-0.158146 -0.036196,-0.232305 0.0541527,-0.0741241 0.158216,-0.0903487 0.23234,-0.036196zm-2.65065 2.21312c0.111133,0.0811937 0.135452,0.237324 0.0542587,0.348493 -0.0811937,0.111133 -0.237324,0.135452 -0.348458,0.0542941 -0.111169,-0.081229 -0.135488,-0.237324 -0.0543294,-0.348493 0.0811937,-0.111133 0.237324,-0.135452 0.348528,-0.0542941zm0.896312 -2.21676c0.092611,0.0676202 0.112936,0.197735 0.0452804,0.290381 -0.0676202,0.092611 -0.197841,0.112901 -0.290452,0.0452451 -0.0925756,-0.0676555 -0.112795,-0.197841 -0.0451744,-0.290417 0.0676555,-0.0925756 0.1977,-0.112901 0.290346,-0.0452097zm4.642 -2.59028c0.0658881,0.0480729 0.0802746,0.140472 0.0321664,0.206325 -0.0480729,0.0658528 -0.140472,0.0802393 -0.206325,0.0321311 -0.0658528,-0.0480729 -0.0802393,-0.140436 -0.0321311,-0.206325 0.0480729,-0.0658528 0.140472,-0.0802393 0.206289,-0.0321311z"/>
  <path class="fil4" d="M44.2222 23.5509c-0.119051,-0.842548 -0.284938,-1.71769 -0.50929,-2.61905 1.59994,-0.591897 4.13625,-1.42494 6.71585,-1.84755 0.350967,0.944385 0.643858,1.90065 0.893908,2.85768 -2.83202,-0.000318129 -5.61449,1.11699 -7.10047,1.60892z"/>
  <path class="fil7" d="M49.066 18.4195c-1.35141,-3.33562 -3.47111,-6.89241 -6.5383,-10.5079 3.23057,2.36377 5.60367,5.95216 7.20305,9.56774 -0.172355,0.570477 -0.625159,0.993518 -0.625159,0.993518 -0.0128312,-0.017992 -0.0260866,-0.0356658 -0.0395894,-0.0533397z"/>
  <path class="fil6" d="M43.5001 20.9742c-0.123964,-0.489389 -0.265002,-0.986272 -0.424773,-1.48959 1.20175,-0.950464 3.56711,-2.30573 6.32264,-2.73195 0.339833,0.719396 0.652589,1.45222 0.935795,2.19325 -2.22337,0.521697 -4.89643,1.384 -6.6839,2.07502 -0.0501937,-0.015553 -0.100069,-0.031106 -0.149768,-0.0467297z"/>
  <g id="_123310128">
   <path id="_123310440" class="fil1" d="M43.2133 23.702c0,0 4.00988,-2.55861 9.02731,-2.56271 0,0 0.0755734,-2.14522 -1.27414,-3.86874 0,0 -4.62058,0.230785 -8.61491,3.8904 0,0 0.256766,1.27718 0.861742,2.54104z"/>
   <path id="_123310368" class="fil6" d="M43.7054 22.7348c0.0665244,-0.0360547 0.133013,-0.0714377 0.198654,-0.106114 0.601724,-0.317776 1.22398,-0.599214 1.85399,-0.846648 1.79351,-0.704515 3.7073,-1.15096 5.62283,-1.22367 -0.0223397,-0.204133 -0.0563796,-0.408372 -0.0925756,-0.585181 -0.141815,-0.69232 -0.401974,-1.35611 -0.794899,-1.92747 -0.152313,0.0171436 -0.305758,0.0407206 -0.451885,0.0643328 -0.617065,0.0997866 -1.23162,0.250226 -1.83013,0.438099 -1.80754,0.567437 -3.51211,1.4969 -4.97102,2.77048 0.115622,0.467403 0.280731,0.963614 0.465034,1.41617z"/>
   <path id="_123310296" class="fil5" d="M51.3369 20.5602l0.0440079 -0.00183808c-0.0224104,-0.204133 -0.0563796,-0.408337 -0.0925756,-0.58511 -0.14185,-0.692355 -0.402009,-1.35619 -0.794899,-1.92751 -0.152313,0.017179 -0.305758,0.0407206 -0.451885,0.0643328 -0.617065,0.0997866 -1.23162,0.250156 -1.83013,0.438099 -1.58736,0.498332 -3.09529,1.27598 -4.42719,2.32058 0.0328027,0.0463762 0.0673727,0.0925049 0.105548,0.13828 0,0 3.35952,-2.08958 6.19645,-2.16918 0,0 0.657644,0.621766 1.25067,1.72235z"/>
   <path id="_123310224" class="fil6" d="M43.7054 22.7348c0.0665244,-0.0360547 0.133013,-0.0714024 0.198654,-0.106078 0.601759,-0.317811 1.22402,-0.59925 1.85395,-0.846683 0.0878037,-0.0344994 0.175819,-0.0682564 0.264189,-0.101483 -0.356234,-0.67348 -0.608687,-1.34639 -0.764535,-1.81853 -0.710666,0.42039 -1.38687,0.906315 -2.01729,1.45664 0.115622,0.467332 0.280661,0.963578 0.465034,1.41613z"/>
   <path id="_123310152" class="fil1" d="M42.9167 21.9196c0,0 1.87689,-1.27054 4.07145,-1.56912 0,0 -1.64225,0.556762 -3.90076,2.30849l-0.170694 -0.739368z"/>
  </g>
  <path class="fil1" d="M42.8895 19.9203c0.0995038,0.0398015 1.29355,-1.35325 4.23886,-2.6667 0,0 -2.6866,0.636824 -4.57717,1.77117l-0.0199008 0.51742 0.358214 0.378114z"/>
  <path class="fil5" d="M51.0397 19.94c0,0 -0.975137,-0.378114 -3.40303,0.218908 0,0 1.77117,-0.915435 2.96521,-0.955236l0.199008 0.398015 0.238809 0.338313z"/>
  <path class="fil1" d="M43.8356 24.0994c0,0 1.55226,-0.776129 4.31846,-1.75127 0,0 -2.36819,0.338313 -4.27866,1.03484l-0.199008 0.218908 0.159206 0.497519z"/>
  <path class="fil1" d="M13.3667 24.0001c0,0 -1.55226,-0.776129 -4.31846,-1.75127 0,0 2.36819,0.338313 4.27866,1.03484l0.199008 0.218908 -0.159206 0.497519z"/>
  <path class="fil1" d="M7.85323 26.4284c-0.137997,0.0824662 -0.182995,0.261078 -0.100635,0.399005 0.0824662,0.137962 0.261078,0.18296 0.399076,0.100564 0.137891,-0.0823955 0.182924,-0.261043 0.100494,-0.399005 -0.0823955,-0.137927 -0.261043,-0.182924 -0.398934,-0.100564zm2.01425 3.4692c0.0259806,0.103392 -0.0368323,0.208375 -0.140189,0.234391 -0.103357,0.0259806 -0.208375,-0.036797 -0.234355,-0.140189 -0.0260159,-0.103357 0.036797,-0.208375 0.140189,-0.234355 0.103357,-0.0260159 0.208375,0.036797 0.234355,0.140154zm-1.80146 -0.65319c0.0173204,0.0689634 -0.024496,0.138916 -0.0934593,0.156237 -0.068928,0.0173557 -0.138916,-0.024496 -0.156237,-0.093424 -0.0173557,-0.0689634 0.024496,-0.138916 0.0934593,-0.156272 0.068928,-0.0173204 0.138881,0.0245313 0.156237,0.0934593zm0.0955802 2.80321c0.0173204,0.0689634 -0.024496,0.138916 -0.093424,0.156237 -0.0689634,0.0173911 -0.138916,-0.024496 -0.156237,-0.093424 -0.0173911,-0.0689634 0.024496,-0.138916 0.093424,-0.156237 0.0689634,-0.0173204 0.138916,0.024496 0.156237,0.093424zm-0.789385 -0.969658c0.0216681,0.0861423 -0.0306465,0.173663 -0.116753,0.195331 -0.0861423,0.0216681 -0.173734,-0.0307172 -0.195367,-0.116859 -0.0216681,-0.086107 0.0307525,-0.173593 0.116859,-0.195261 0.086107,-0.0216328 0.173628,0.0306818 0.195261,0.116789zm2.87621 1.47831c0.0303637,0.120712 -0.0428768,0.243121 -0.163518,0.27345 -0.120677,0.0303637 -0.243086,-0.0428768 -0.27345,-0.163589 -0.0303637,-0.120606 0.0429121,-0.243015 0.163589,-0.273379 0.120642,-0.0303637 0.243051,0.0428768 0.273379,0.163518zm-0.101342 -7.86447c-0.118203,0.0705894 -0.156767,0.223786 -0.0861777,0.341954 0.0705894,0.118203 0.223822,0.156802 0.341989,0.0861777 0.118167,-0.0705894 0.156767,-0.223786 0.0861777,-0.341954 -0.0706247,-0.118203 -0.223822,-0.156802 -0.341989,-0.0861777zm2.24101 1.04958c-0.07879,0.0471185 -0.104523,0.149203 -0.05744,0.227993 0.0470831,0.07879 0.149167,0.104523 0.227993,0.0574754 0.0788254,-0.0470831 0.104558,-0.149203 0.0574754,-0.227993 -0.0471185,-0.0788254 -0.149203,-0.104558 -0.228028,-0.0574754zm-2.78907 2.14942c-0.0788254,0.0470831 -0.104523,0.149203 -0.05744,0.227993 0.0470831,0.0788254 0.149167,0.104558 0.227993,0.05744 0.0788254,-0.0470831 0.104558,-0.149167 0.05744,-0.227993 -0.0470831,-0.07879 -0.149203,-0.104523 -0.227993,-0.05744zm2.43546 2.44793c-0.118132,0.0705894 -0.156732,0.223822 -0.0861423,0.341989 0.0706247,0.118167 0.223822,0.156767 0.341989,0.0861777 0.118167,-0.0706247 0.156767,-0.223822 0.0861777,-0.341989 -0.0705894,-0.118167 -0.223822,-0.156767 -0.342024,-0.0861777zm-0.688255 -2.28993c-0.0984433,0.0588186 -0.13068,0.186494 -0.0718619,0.284973 0.0588186,0.0984433 0.186601,0.130645 0.285079,0.0718265 0.098408,-0.0588539 0.130539,-0.186601 0.0717205,-0.285009 -0.0588186,-0.0984433 -0.186459,-0.130645 -0.284938,-0.0717912zm-4.38361 -3.00696c-0.0700238,0.0418163 -0.0928584,0.132483 -0.0510421,0.202472 0.0418163,0.0700238 0.132483,0.0928584 0.202507,0.0510067 0.0699884,-0.041781 0.0928231,-0.132448 0.0510067,-0.202472 -0.0418163,-0.0699884 -0.132483,-0.0928231 -0.202472,-0.0510067z"/>
  <g id="_122253136">
   <path id="_122253232" class="fil11" d="M30.2715 15.2815c0.196286,-0.00371151 0.402787,-0.00798858 0.616499,-0.0128666 0.161751,-0.425551 0.463408,-0.799494 0.838447,-1.01066 0.142133,-0.0802393 0.337429,-0.199114 0.549197,-0.259311 1.03763,-0.296037 2.46953,0.215303 2.79448,1.07641 -0.312898,-0.0664537 -0.520954,-0.184727 -0.894014,-0.226932 -0.18045,-0.0203956 -0.851208,-0.0339691 -1.08093,0.0591721l-0.31562 0.10219c0.0172497,0.0820774 0.0371151,0.146552 0.0589246,0.199927 1.36672,-0.0539052 2.67345,-0.137361 3.27065,-0.266027 -0.400878,-0.654427 -0.894792,-1.04601 -1.49835,-1.36382 -0.488505,-0.257367 -1.5624,-0.443472 -2.30654,-0.231315l-0.0495221 0.0141744c-0.376806,0.107386 -0.653897,0.247823 -0.889878,0.412472 -0.217919,0.152101 -0.634138,0.516112 -0.778604,0.764818 -0.126615,0.218166 -0.259452,0.561922 -0.293704,0.666375 -0.00731697,0.0225518 -0.0143158,0.0478254 -0.0210319,0.0753966zm1.74536 -0.0431242c0.214207,-0.00668072 0.430182,-0.0139977 0.645414,-0.0220923 -0.0575814,-0.414876 -0.0553898,-0.858702 0.045139,-1.20278 -0.110002,0.0207844 -0.219651,0.0419577 -0.329299,0.0627775 -0.0909143,0.0261573 -0.181546,0.0517844 -0.272354,0.0776942 -0.210531,0.0599497 -0.179001,0.569133 -0.0888995,1.0844zm4.35473 -0.375499c0.167831,-0.0864958 0.398192,-0.468074 0.660189,-1.02646 -0.236865,0.141992 -0.3533,0.348528 -0.474861,0.567154 -0.0738413,0.132695 -0.124601,0.197664 -0.16267,0.346584 -0.00957923,0.0376453 -0.0157297,0.0757855 -0.0226579,0.112724zm-3.94024 -1.63137c0.281827,-0.0802039 0.48953,-0.0323785 0.671394,-0.0843043 0.00544355,-0.0015553 0.563124,-0.748982 1.05686,-0.889914l0.148496 -0.0425233c0.266239,-0.0758562 0.553121,0.0630603 0.6288,0.329052l0.0141037 0.0498403c0.0534457,0.187484 -0.0694936,0.340858 -0.286316,0.40261 0.0283489,-0.0765631 0.138916,-0.168432 0.102438,-0.296779 -0.0341812,-0.120642 -0.210213,-0.207491 -0.342625,-0.170093l-0.0493454 0.0142451c-0.148531,0.0423465 -0.254539,0.233083 -0.212228,0.381614l0.0424526 0.14846c0.0658881,0.231421 0.352028,0.327673 0.60745,0.254998l0.0495575 -0.0141037c0.382321,-0.109012 0.585393,-0.479138 0.4773,-0.858949l-0.00710489 -0.0243899c-0.0733111,-0.257331 -0.17787,-0.314983 -0.271647,-0.484617 0.48285,-0.0235416 1.16874,0.253761 1.31751,0.775069l0.0282782 0.0990089c0.197982,0.695148 -0.320215,0.969729 -0.509184,0.653579l0.0741595 -0.0212086c0.101872,-0.0288437 0.212793,-0.191514 0.190913,-0.26843l-0.0282075 -0.0989029c-0.0281721,-0.0986554 -0.245843,-0.170977 -0.360122,-0.13821 -0.201765,0.0573693 -0.325835,0.26479 -0.265355,0.476911l0.0211379 0.0743009c0.100246,0.351427 0.556514,0.510491 0.918651,0.407241 0.450683,-0.12863 0.662593,-0.585429 0.533998,-1.0353l-0.0634138 -0.223009c-0.143158,-0.501266 -0.619221,-0.873795 -0.95103,-1.06008 -0.291654,-0.163377 -0.988251,-0.340469 -1.41974,-0.217282l-0.370939 0.105584c-0.725123,0.206784 -1.85377,1.2728 -1.84526,1.78393l0.0990089 -0.0283489z"/>
   <path id="_122253160" class="fil11" d="M20.0567 13.7197c0.288437,0.630603 0.542198,1.06368 0.721977,1.14767 0.0489919,0.02287 0.11845,0.0445028 0.205794,0.0650751 -0.0158711,-0.056627 -0.0224104,-0.120182 -0.0382462,-0.182217 -0.0380695,-0.148955 -0.0888288,-0.213995 -0.16267,-0.34669 -0.127994,-0.229937 -0.250085,-0.44676 -0.512966,-0.588999 -0.0692815,-0.0374686 -0.141073,-0.0691048 -0.213889,-0.0948379zm1.15424 1.25732c0.688997,0.115552 1.97516,0.190948 3.28794,0.23994 0.023082,-0.0547889 0.0440079,-0.12149 0.0621059,-0.207526l-0.31569 -0.10212c-0.229689,-0.0930705 -0.900341,-0.079603 -1.08086,-0.0592074 -0.373095,0.0423465 -0.581081,0.160514 -0.893979,0.226932 0.32481,-0.860999 1.75682,-1.37241 2.79445,-1.07641 0.211662,0.0602325 0.407029,0.179177 0.549162,0.259275 0.376276,0.211945 0.678711,0.587762 0.840109,1.01515 0.215055,0.00463055 0.421274,0.00858949 0.615651,0.0120536 -0.00699884,-0.0289851 -0.0142451,-0.0554605 -0.0219156,-0.0790021 -0.0340752,-0.104417 -0.166947,-0.448209 -0.293563,-0.666375 -0.144537,-0.248706 -0.560897,-0.612717 -0.77871,-0.764818 -0.235911,-0.164685 -0.513037,-0.305086 -0.889843,-0.412472l-0.0495221 -0.0142805c-0.74414,-0.212051 -1.818,-0.0259099 -2.30661,0.231351 -0.613742,0.323184 -1.1143,0.72286 -1.51871,1.39751zm3.4663 0.246373c0.215974,0.0076351 0.431949,0.0145986 0.645378,0.0209258 0.0908789,-0.517314 0.123399,-1.03007 -0.0878744,-1.09026 -0.0907729,-0.0259452 -0.181475,-0.0516783 -0.272319,-0.0777296 -0.109755,-0.0208198 -0.219368,-0.0420284 -0.329264,-0.0627422 0.100988,0.346054 0.10265,0.792955 0.0440786,1.20981zm0.231881 -1.99184c-0.281792,-0.0802393 -0.48946,-0.0324845 -0.671359,-0.0843043 -0.0054082,-0.0015553 -0.563195,-0.749088 -1.0569,-0.889949l-0.148496 -0.0425233c-0.266239,-0.0758562 -0.552944,0.0629543 -0.628765,0.329016l-0.0139977 0.049911c-0.0535871,0.187343 0.0693168,0.340752 0.286246,0.40254 -0.0284196,-0.0766338 -0.138987,-0.168361 -0.102508,-0.296779 0.0342519,-0.120536 0.210248,-0.207491 0.342625,-0.169952l0.0493807 0.0142098c0.148566,0.0422405 0.254574,0.232941 0.212192,0.381543l-0.0424172 0.148425c-0.0659235,0.231421 -0.352098,0.327744 -0.607556,0.255104l-0.0494161 -0.0142098c-0.382391,-0.108977 -0.585499,-0.479173 -0.4773,-0.858843l0.00703419 -0.0244606c0.0733465,-0.257331 0.17787,-0.314948 0.271788,-0.484688 -0.48292,-0.0234709 -1.16884,0.253903 -1.31759,0.77514l-0.0283135 0.0989382c-0.198018,0.695289 0.320179,0.96987 0.509148,0.653756l-0.0741948 -0.02135c-0.101801,-0.0288084 -0.212758,-0.191549 -0.190842,-0.268395l0.0282075 -0.0989029c0.0281014,-0.0986201 0.245843,-0.170871 0.360193,-0.13821 0.201729,0.0574047 0.3258,0.264754 0.265249,0.476982l-0.0210672 0.0742302c-0.100281,0.351427 -0.55655,0.510421 -0.918687,0.407206 -0.450648,-0.128524 -0.662487,-0.585358 -0.533962,-1.03526l0.0634138 -0.223009c0.143087,-0.50123 0.619186,-0.873831 0.950995,-1.06008 0.291689,-0.163448 0.988251,-0.340398 1.41967,-0.217247l0.370974 0.105548c0.725158,0.206819 1.85377,1.2728 1.84526,1.78393l-0.0990089 -0.0283135z"/>
  </g>
  <g id="_122252800">
   <path id="_122252896" class="fil12" d="M32.3745 13.0575c0.460333,-0.151005 0.895145,-0.325305 1.3055,-0.517808 0.152525,-0.12711 0.319437,-0.236688 0.479527,-0.282393l0.148496 -0.0425233c0.00795323,-0.00226225 0.0158358,-0.00431242 0.0238244,-0.00618585 0.440715,-0.242061 0.850148,-0.504129 1.2289,-0.778745 -0.32382,-0.0907729 -0.726254,-0.141143 -1.01229,-0.0594902l-0.370939 0.105584c-0.639334,0.182323 -1.59234,1.03258 -1.80302,1.58156z"/>
   <path id="_122252824" class="fil12" d="M21.405 11.5702c0.188333,0.135099 0.38476,0.266769 0.589847,0.394092 0.0987615,-0.0159772 0.195367,-0.0220216 0.284902,-0.0176739 -0.0292679,0.0529155 -0.0596669,0.0949793 -0.0897478,0.135558 0.124424,0.0735939 0.251746,0.145562 0.382215,0.215656 0.125343,-0.0951207 0.296709,-0.12962 0.460227,-0.0830317l0.148496 0.0425233c0.339691,0.0969234 0.70964,0.481047 0.909214,0.711797 0.29381,0.10417 0.599674,0.198831 0.917909,0.282499 -0.00353477,-0.514238 -1.12381,-1.56993 -1.84511,-1.77566l-0.370974 -0.105548c-0.416042,-0.118768 -1.07867,0.0416396 -1.38697,0.199785z"/>
  </g>
  <g id="_122252464">
   <path id="_122252560" class="fil12" d="M30.2715 15.2815l0.0269703 -0.000424172 0.000671606 0 0.0092611 -0.000212086 0.00922575 -0.000106043 0.00929645 -0.000212086c0.179566,-0.00346407 0.367369,-0.00745836 0.561074,-0.0119122 0.134958,-0.355068 0.367263,-0.674116 0.658386,-0.892742 -0.29586,0.00812997 -0.584439,0.0150935 -0.859055,0.0209965 -0.0406499,0.0500877 -0.0752199,0.0982666 -0.101094,0.14284 -0.126615,0.218166 -0.259452,0.561922 -0.293704,0.666375 -0.00731697,0.0225518 -0.0143158,0.0478254 -0.0210319,0.0753966zm4.01454 -1.02031c0.368535,0.201835 0.65874,0.481754 0.784083,0.813881 -0.312898,-0.0664537 -0.520954,-0.184727 -0.894014,-0.226932 -0.18045,-0.0203956 -0.851208,-0.0339691 -1.08093,0.0591721l-0.31562 0.10219c0.0172497,0.0820774 0.0371151,0.146552 0.0589246,0.199927 0.790127,-0.0311767 1.56007,-0.0721093 2.18459,-0.12605l0.0503705 -0.00441846c0.39904,-0.0353477 0.735621,-0.0761743 0.975879,-0.123257l0.00675141 -0.00134321c0.0182394,-0.00360547 0.035984,-0.00728163 0.0530569,-0.0109578 -0.191903,-0.313287 -0.405261,-0.566235 -0.641631,-0.779806 -0.335839,0.0375393 -0.739686,0.0698117 -1.18146,0.097595zm2.08619 0.601335c0.00629189,-0.00328734 0.0126545,-0.00692815 0.0191231,-0.0110285 0.00586772,-0.00371151 0.0118415,-0.00777649 0.0178506,-0.0121596 0.00671606,-0.00487798 0.0135028,-0.0101094 0.0203956,-0.0158358 0.00586772,-0.00487798 0.0117354,-0.0100034 0.0177445,-0.0154823 0.00664537,-0.0060798 0.0133614,-0.0124777 0.0201835,-0.0192645 0.00714024,-0.00710489 0.0143512,-0.0145986 0.0216681,-0.0224811 0.00653932,-0.00706954 0.0131493,-0.0143865 0.0197947,-0.022057 0.00749371,-0.00862484 0.0149874,-0.0176032 0.0226225,-0.0269703 0.00636259,-0.00781184 0.0127605,-0.0158004 0.0192291,-0.0241425 0.00706954,-0.00911971 0.0142098,-0.0184868 0.0214207,-0.0282075 0.00798858,-0.010781 0.0161186,-0.0219509 0.0242485,-0.0334743l0.0212793 -0.0307172c0.00841275,-0.0123717 0.0168962,-0.0250262 0.0254503,-0.0381048l0.0191231 -0.0296567c0.00915505,-0.0143865 0.0184162,-0.0292325 0.0277126,-0.0444321l0.0211733 -0.0349942c0.0101448,-0.0170022 0.0203249,-0.0342519 0.0306465,-0.0521379l0.0157297 -0.0275005c0.0113113,-0.0199008 0.0227286,-0.040261 0.0342166,-0.0611869l0.0165074 -0.030293c0.0125131,-0.023082 0.0250615,-0.0465176 0.0377867,-0.0707307l0.00982666 -0.0186636c0.0129726,-0.0248494 0.0261573,-0.0504765 0.039342,-0.0764571l0.0170376 -0.0337571c0.013114,-0.026122 0.0262633,-0.0526327 0.0395541,-0.0797798l0.0100387 -0.0205017c0.0147753,-0.0303637 0.0297274,-0.0614697 0.0447502,-0.0930705l0.00996805 -0.0209612 0.0149167 -0.031919c-0.236724,0.141992 -0.353124,0.348458 -0.474649,0.567012 -0.0738413,0.132695 -0.124601,0.197664 -0.16267,0.346584 -0.00957923,0.0376453 -0.0157297,0.0757855 -0.0226579,0.112724l0.000636259 -0.000353477zm0.638627 -1.85812c-0.199114,0.420001 -0.379104,0.734101 -0.526398,0.89055 0.382604,-0.127641 0.580727,-0.499039 0.526398,-0.89055zm-4.36781 1.33625c-0.226013,0.00841275 -0.452733,0.0161186 -0.677403,0.0230467 -0.0411447,0.208127 -0.00728163,0.540042 0.0512188,0.874679l0.19116 -0.00604446 0.0100741 -0.000318129 0.0100741 -0.000318129 0.0267936 -0.00091904 0.00346407 -0.000141391 0.0100741 -0.000318129 0.0100741 -0.000318129 0.0100741 -0.000318129 0.00357012 -0.000141391 0.0166134 -0.000600911 0.0100741 -0.000318129 0.0100741 -0.000318129 0.000530216 -3.53477e-005 0.0297981 -0.00102508 0.0100741 -0.000318129 0.00346407 -0.000141391 0.0167195 -0.000600911 0.0100741 -0.000318129 0.0177445 -0.000636259 0.00250969 -0.000106043 0.0100741 -0.000318129 0.0467297 -0.00166134 0.00374686 -0.000141391 0.0100741 -0.000318129 0.00388825 -0.000141391 0.0159418 -0.000600911 0.000424172 0 0.0100741 -0.000388825 0.00289851 -0.000106043 0.0148107 -0.000530216 0.00487798 -0.000176739 0.0154469 -0.000565563 0.00463055 -0.000176739 0.0162953 -0.000600911 0.00318129 -0.000106043 0.0171436 -0.000636259 0.00293386 -0.000106043 0.0180627 -0.000671606 0.00141391 -7.06954e-005 0.0188403 -0.000671606 0.000636259 -3.53477e-005 0.0100741 -0.000388825 0.000565563 0 0.00961457 -0.000424172c-0.0406145,-0.292573 -0.0516076,-0.599391 -0.0192291,-0.875633z"/>
   <path id="_122252488" class="fil12" d="M20.0592 13.7251l0.0236123 0.0513249 0.0361607 0.0774822 0.019618 0.0414275c0.0130786,0.0275005 0.026122,0.0546475 0.0390239,0.0811937l0.0115234 0.0236123c0.01322,0.0270056 0.0263694,0.0534104 0.0393773,0.0794263l0.0186989 0.0370444 0.0316008 0.0615757 0.0224104 0.0428061c0.0105336,0.0199361 0.0209612,0.0395541 0.0313534,0.0587125l0.0167548 0.0306818c0.0117001,0.0212793 0.0232941,0.0420284 0.0347821,0.0622826l0.0130786 0.022976c0.0136442,0.0237183 0.0271824,0.046765 0.0405438,0.0689634l0.00636259 0.0104983c0.0144572,0.0238244 0.0287023,0.0466943 0.0427707,0.0686452l0.00314595 0.00494868c0.0147046,0.0228346 0.0291972,0.0445735 0.0434777,0.0652165l0.00254503 0.00371151c0.0144926,0.0208551 0.0287023,0.0405438 0.0427,0.0591014l0.00212086 0.00275712c0.013927,0.0183808 0.0276066,0.0355951 0.041074,0.0516076l0.00215621 0.00250969c0.0136442,0.0161539 0.0269703,0.0310706 0.0401196,0.0447148l0.000565563 0.000600911c0.0133261,0.013821 0.026334,0.0262633 0.0390946,0.0373979l0.000848345 0.000742302c0.0258392,0.0224811 0.0505826,0.0394127 0.0740181,0.0503705 0.0119829,0.00558494 0.0251322,0.0110638 0.0395187,0.0165074l0.000106043 3.53477e-005 0.000848345 0.000318129 0.00275712 0.000954388c0.0121243,0.00452451 0.0250969,0.00901366 0.0388118,0.0134321l0.00318129 0.00106043 0.00300455 0.000989736 0.000247434 7.06954e-005 0.00318129 0.000954388c0.0107457,0.00335803 0.0222691,0.00664537 0.0339338,0.00996805l0.00357012 0.00106043 0.00109578 0.000282782 0.0170022 0.00470124 0.00371151 0.000954388 0.00371151 0.000954388 0.000318129 0.000106043 0.0305404 0.00777649 0.00402964 0.00102508 0.00399429 0.000954388 0.0122303 0.00296921c-0.0158711,-0.056627 -0.0224104,-0.120182 -0.0382462,-0.182217 -0.0380695,-0.148955 -0.0888288,-0.213995 -0.16267,-0.34669 -0.127994,-0.229937 -0.250085,-0.44676 -0.512966,-0.588999 -0.0692815,-0.0374686 -0.141073,-0.0691048 -0.213854,-0.0948379l0.00240364 0.0053375zm6.59726 0.675813c-0.271188,-0.00547889 -0.558635,-0.0119122 -0.855132,-0.019618 0.288861,0.219403 0.519293,0.537957 0.652907,0.891822l0.00208551 3.53477e-005c0.213429,0.0045952 0.418057,0.00848345 0.611091,0.0119475l0.00247434 7.06954e-005c-0.00699884,-0.0289851 -0.0142451,-0.0554605 -0.0219156,-0.0790021 -0.0340752,-0.104417 -0.166947,-0.448209 -0.293563,-0.666375 -0.0251676,-0.0433363 -0.0587479,-0.090278 -0.0979485,-0.138881zm-1.28058 -0.0313534c-0.223857,-0.00653932 -0.450754,-0.0137503 -0.677721,-0.0217742 0.0316008,0.276596 0.0201835,0.583555 -0.0208551,0.875669l0.0100741 0.000318129c0.209258,0.00738767 0.418375,0.0141391 0.62523,0.0202896l0.0100741 0.000318129c0.0585711,-0.333506 0.0928231,-0.665138 0.0531983,-0.87482zm-2.34097 -0.0976657c-0.434812,-0.0256271 -0.837599,-0.0553545 -1.18252,-0.0897832 -0.236618,0.217318 -0.449764,0.475285 -0.641384,0.79497l0.0326613 0.0053375 0.00710489 0.00113113c0.0754673,0.0120889 0.157474,0.0237537 0.245419,0.0349589l3.53477e-005 0 0.0392006 0.00487798c0.0890409,0.0110285 0.183949,0.0216328 0.283807,0.0318129l0.0415689 0.00417103 0.0604799 0.00593841 0.0462348 0.00434777c0.155212,0.0145279 0.320851,0.0281014 0.494762,0.0409326l0.0524206 0.0038529 0.0929291 0.00657467 0.0191585 0.00134321 0.101554 0.00685745 0.000742302 3.53477e-005 0.0546829 0.00353477 0.0520318 0.00335803 0.0031106 0.000212086 0.0554605 0.00342873 0.0559554 0.00346407 0.074725 0.00445381 0.0555312 0.00328734c0.108164,0.00629189 0.218095,0.0122657 0.329617,0.0180627l0.0588539 0.00300455 0.0591721 0.0030399 0.00547889 0.000247434 0.0878037 0.00427707 0.0503705 0.00243899c0.11085,0.00530216 0.222867,0.0103215 0.335626,0.0151995l0.00144926 7.06954e-005 0.00894297 0.000388825 0.0518904 0.00215621 0.0610101 0.00258038 0.000388825 0 0.0954741 0.00392359 0.0815825 0.00325199 0.0062212 0.000247434 0.0175678 0.000706954 0.0438665 0.00173204 0.0614697 0.00233295 0.0526327 0.00205017 0.00894297 0.000318129c0.023082,-0.0547889 0.0440079,-0.12149 0.0621059,-0.207526l-0.31569 -0.10212c-0.229689,-0.0930705 -0.900341,-0.079603 -1.08086,-0.0592074 -0.373095,0.0423465 -0.581081,0.160514 -0.893979,0.226932 0.123081,-0.326224 0.405085,-0.602254 0.764394,-0.803206z"/>
  </g>
 </g>
</svg>
