<?xml version="1.0" encoding="UTF-8"?>
<!DOCTYPE svg PUBLIC "-//W3C//DTD SVG 1.1//EN" "http://www.w3.org/Graphics/SVG/1.1/DTD/svg11.dtd">
<!-- Creator: CorelDRAW -->
<svg xmlns="http://www.w3.org/2000/svg" xml:space="preserve" width="161.909mm" height="176.792mm" style="shape-rendering:geometricPrecision; text-rendering:geometricPrecision; image-rendering:optimizeQuality; fill-rule:evenodd; clip-rule:evenodd"
viewBox="0 0 10.1342 11.0658"
 xmlns:xlink="http://www.w3.org/1999/xlink">
 <defs>
  <style type="text/css">
   <![CDATA[
    .fil12 {fill:none}
    .fil0 {fill:#501D33}
    .fil2 {fill:#5D6356}
    .fil1 {fill:#8E9F6E}
    .fil10 {fill:#947B70}
    .fil6 {fill:#B1C884}
    .fil8 {fill:#C8B99F}
    .fil7 {fill:#D49293}
    .fil5 {fill:#D77D75}
    .fil9 {fill:#E7DFCA}
    .fil3 {fill:#FFCFA5}
    .fil4 {fill:white}
    .fil11 {fill:#501D33;fill-rule:nonzero}
   ]]>
  </style>
 </defs>
 <g id="Layer_x0020_1">
  <metadata id="CorelCorpID_0Corel-Layer"/>
  <g id="_205128360">
   <path id="_205121040" class="fil0" d="M2.76897 1.15565c-1.04506,0.468929 -1.90168,2.28164 -1.97803,3.23648 -0.0874664,1.09386 -0.0739152,1.75955 0.5641,3.09591 0,0 0.144031,0.269078 0.618186,0.153708 0.220851,0.0357026 0.417065,-0.0527966 0.518589,-0.198392 0.00247239,-0.00354272 0.270267,-0.0289552 0.397442,-0.152756 0.0576913,-0.0561578 0.0943328,-0.106088 0.073596,-0.208263 -0.0271463,-0.133772 -0.0672241,-0.297576 -0.0672241,-0.297576 0,0 0.235816,-0.235084 0.197203,-0.335094 -0.0386132,-0.10001 -0.52083,-0.51792 -0.521631,-0.521926 -0.330894,-1.51729 -0.00641571,-2.8116 0.860437,-3.85705l0.696452 -0.922178c-0.349872,-0.103302 -0.988075,-0.159347 -1.35912,0.00714178z"/>
   <path id="_201721816" class="fil0" d="M7.37858 1.15565c1.04506,0.468929 1.90168,2.28164 1.97803,3.23648 0.0874664,1.09386 0.0739152,1.75955 -0.5641,3.09591 0,0 -0.144031,0.269078 -0.618186,0.153708 -0.220851,0.0357026 -0.417065,-0.0527966 -0.518589,-0.198392 -0.00247239,-0.00354272 -0.270267,-0.0289552 -0.397442,-0.152756 -0.0576913,-0.0561578 -0.0943328,-0.106088 -0.073596,-0.208263 0.0271463,-0.133772 0.0672241,-0.297576 0.0672241,-0.297576 0,0 -0.235816,-0.235084 -0.197203,-0.335094 0.0386132,-0.10001 0.52083,-0.51792 0.521631,-0.521926 0.330894,-1.51729 0.00641571,-2.8116 -0.860437,-3.85705l-0.696452 -0.922178c0.349872,-0.103302 0.988075,-0.159347 1.35912,0.00714178z"/>
   <path id="_201723160" class="fil0" d="M3.18685 5.72821c-0.188985,-1.12341 -0.286478,-3.01687 -0.400096,-3.90748 0.19863,-0.817874 1.76098,-0.56708 2.2932,-0.456454 0.532222,-0.110626 2.09457,-0.36142 2.2932,0.456454 -0.112115,0.878802 -0.194687,2.75027 -0.37852,3.87663 -0.69053,0.219317 -1.35048,0.294296 -1.92283,0.293176 -0.434234,-0.000851255 -1.44211,-0.0872411 -1.88497,-0.262318z"/>
   <path id="_208906640" class="fil1" d="M3.33509 5.692c-0.184472,-1.19862 -0.320059,-2.54415 -0.396434,-3.7412 0.155166,-0.638917 1.14729,-0.961636 2.14,-0.963389l0 -1.87777e-005 0.00130192 6.25923e-006 0.00130192 -6.25923e-006 0 1.87777e-005c0.992707,0.00175258 1.98483,0.324472 2.14,0.963389 -0.0756678,1.18604 -0.209477,2.51785 -0.391364,3.7081 -1.46028,0.451478 -2.97587,0.15916 -3.4948,0.0330988z"/>
   <path id="_208905344" class="fil2" d="M4.96611 5.86281c0,0 0.0334994,-1.01327 0.0440587,-1.13309 0.0105593,-0.119814 0.0792794,1.08728 0.0792794,1.08728 0,0 -0.0916225,0.063431 -0.123338,0.0458113z"/>
   <path id="_208910096" class="fil2" d="M3.33509 5.692c-0.149527,-0.971538 -0.266918,-2.03958 -0.346698,-3.04687 0.00958287,-0.0446345 0.00232217,-0.0708044 0.00957661,-0.0735772 0.12777,0.861964 0.27667,1.84749 0.447535,2.66169 0.117598,0.560357 0.620527,0.583341 1.66161,0.550937 0.969398,-0.0301695 1.5933,-0.0863523 1.6782,-0.900039l0.386933 -2.39534c0,0 0.00525775,-0.023422 0.0143399,0.0371172 -0.0789288,1.00603 -0.207856,2.1591 -0.356669,3.13297 -1.46029,0.45149 -2.97589,0.159166 -3.49482,0.033105z"/>
   <path id="_208908704" class="fil3" d="M6.33187 1.27768l-0.0764189 -0.105737c0.052903,-0.00233469 0.104085,-0.00430009 0.153733,-0.00573345 -0.0253499,0.0345134 -0.0513882,0.0718684 -0.077314,0.111471zm2.16983 1.26514c0.389724,0.633221 0.624752,1.31888 0.712438,2.02042 0.129253,1.03454 -0.0681442,1.94166 -0.546956,2.87962 0,0 -0.0581357,0.17119 -0.424488,0.12884 0,0 0.106545,-0.188503 0.0993276,-0.204771 -0.00722315,-0.0162865 -0.185661,0.189398 -0.185661,0.189398 0,0 -0.22542,0.000819959 -0.409485,-0.157995 0,0 -0.000751107,-0.254644 -0.0167247,-0.254062 -0.0159735,0.000582108 -0.0671928,0.18854 -0.0671928,0.18854l-0.240699 -0.0635624c-0.109962,-0.0517012 -0.144331,-0.0599133 -0.114469,-0.196108 0.0227961,-0.104041 0.060896,-0.279518 0.144669,-0.574102 -0.0231153,-0.0272464 -0.0790665,0.100698 -0.120033,0.171002 0,0 -0.131775,-0.145508 -0.12613,-0.195094 0.00561453,-0.0496044 0.467088,-0.408358 0.467088,-0.408358 0.301657,-0.946489 0.194199,-2.04187 -0.133434,-2.91204 0.195194,0.0682443 0.307053,0.165732 0.307053,0.165732 0.0528592,-0.172673 0.0739465,-0.338342 0.0739465,-0.338342 0.186769,0.0951465 0.264352,0.158621 0.264352,0.158621 0.056308,-0.23437 0.0351268,-0.350704 0.0351268,-0.350704 0.153295,0.0634122 0.237963,0.149815 0.237963,0.149815 0.0313963,-0.17442 0.0536165,-0.286967 0.0433076,-0.396854z"/>
   <path id="_208906856" class="fil4" d="M8.50258 2.54018c0.389724,0.633221 0.623876,1.32152 0.711561,2.02307 0.129253,1.03454 -0.0681442,1.94166 -0.546956,2.87962 0,0 -0.00495731,0.0144588 -0.0209371,0.03395 -0.105818,-0.0147718 -0.212857,-0.0387884 -0.317825,-0.0685886 0.00963921,-0.0211812 0.0154791,-0.0370609 0.0136013,-0.0412921 -0.00214066,-0.00483212 -0.0193723,0.00985202 -0.0425189,0.0329235 -0.204126,-0.0602012 -0.399094,-0.141164 -0.560094,-0.216989 -0.00230339,-0.0233156 -0.00531408,-0.0387383 -0.00925739,-0.0385944 -0.0035615,0.000131444 -0.00836233,0.0109662 -0.0136514,0.0277284 -0.212125,-0.101255 -0.360494,-0.190863 -0.384917,-0.205828l0.000212814 -0.000932625c0.469141,0.161175 1.26121,0.241838 1.26121,0.241838 0.773553,-1.59133 0.636507,-3.19157 -0.0801306,-4.48686 0.000588367,-0.061597 -0.00585238,-0.132677 -0.0102964,-0.18004z"/>
   <path id="_208907888" class="fil5" d="M8.58125 2.68093c-0.00249117,0.109643 -0.0165244,0.26009 -0.0647579,0.406637l-0.197341 -0.112766c0,0 0,0.148006 -0.0986704,0.341823l-0.0951465 -0.063431c0,0 -0.0348514,0.0801682 -0.0893755,0.15404l-0.0299003 -0.112566c0,0 -0.126637,0.184678 -0.240961,0.233926l-0.210942 -0.335726c-0.00469442,-0.0128189 -0.00942013,-0.0255877 -0.0142084,-0.0383065 0.195194,0.0682443 0.307053,0.165732 0.307053,0.165732 0.0528592,-0.172673 0.0739465,-0.338342 0.0739465,-0.338342 0.186769,0.0951465 0.264352,0.158621 0.264352,0.158621 0.056308,-0.23437 0.0351268,-0.350704 0.0351268,-0.350704 0.153295,0.0634122 0.237963,0.149815 0.237963,0.149815 0.0313963,-0.17442 0.0432137,-0.297332 0.0416677,-0.408972 0.0388573,0.0631305 0.0448161,0.0851129 0.0811947,0.150221z"/>
   <path id="_208907696" class="fil5" d="M7.70119 3.2251c0.392428,0.813956 0.754969,2.27583 -0.365213,3.99983 -0.0396209,-0.0277033 -0.0479206,-0.0617973 -0.0281916,-0.15178 0.0227961,-0.104041 0.060896,-0.279518 0.144669,-0.574102 -0.0231153,-0.0272464 -0.0790665,0.100698 -0.120033,0.171002 0,0 -0.131775,-0.145508 -0.12613,-0.195094 0.00561453,-0.0496044 0.467088,-0.408358 0.467088,-0.408358 0.301657,-0.946489 0.194199,-2.04187 -0.133434,-2.91204 0.0626361,0.0218948 0.11671,0.0468002 0.161244,0.0705415z"/>
   <g>
    <path id="_208906352" class="fil1" d="M7.27345 2.5805l-1.01799 -1.40855c0.693334,-0.0305951 1.0918,-0.000550812 1.59645,0.517006 0.203644,0.208858 0.391001,0.447879 0.557929,0.70656 0.00496983,0.101249 0.00153977,0.227548 -0.0237162,0.367848 0,0 -0.137434,-0.123338 -0.292487,-0.176197 0,0 0.0422873,0.140958 0.0281916,0.391158 0,0 -0.109242,-0.0880986 -0.296011,-0.183245 0,0 0.0105718,0.190293 -0.0422873,0.362966 0,0 -0.112391,-0.0979694 -0.308473,-0.166233 -0.0613154,-0.145183 -0.128815,-0.28293 -0.201597,-0.411312z"/>
    <path id="_208908416" class="fil6" d="M7.44092 1.35765c0.134542,0.0780087 0.268533,0.185217 0.410974,0.331301 0.203644,0.208858 0.391001,0.44786 0.557929,0.706541 0.00214066,0.043583 -0.0184272,0.324397 -0.0204739,0.37638 -0.242288,-0.515153 -0.507849,-0.947346 -0.948429,-1.41422z"/>
    <path id="_208907912" class="fil2" d="M7.27345 2.5805c-0.021394,-0.0295999 -0.0861708,-0.115577 -0.0842367,-0.116522 0.0194349,-0.0194161 0.462031,0.220606 0.588749,0.695838 -0.0392453,-0.0195851 -0.251784,-0.150203 -0.302915,-0.168004 -0.0613154,-0.145183 -0.128815,-0.28293 -0.201597,-0.411312z"/>
   </g>
   <path id="_208907216" class="fil0" d="M8.94122 3.89487c0.467308,-0.0527402 0.587848,0.462557 0.175552,0.635011l-0.175552 -0.635011z"/>
   <path id="_208906712" class="fil3" d="M9.11669 4.53256c0.1524,-0.2375 0.156293,-0.499999 -0.175371,-0.641408 0,0 -0.0943703,0.46578 0.175371,0.641408z"/>
   <path id="_208907576" class="fil4" d="M9.10085 4.55215c0.184516,-0.235147 0.186606,-0.525556 -0.171572,-0.667928 0.142347,0.0951903 0.259802,0.397098 0.165212,0.648518l0.00635937 0.0194099z"/>
   <path id="_208907096" class="fil4" d="M8.95979 3.98277c-0.0407663,0.0253499 -0.0403282,0.0997721 0.00097018,0.166182 0.0413109,0.0664166 0.107865,0.0997157 0.148632,0.0743659 0.0407601,-0.0253499 0.0403219,-0.0997721 -0.000982698,-0.166189 -0.0413046,-0.0664104 -0.107859,-0.0997095 -0.148619,-0.0743596z"/>
   <path id="_208910360" class="fil3" d="M7.29278 6.4771c0,0 0.0756302,-0.156537 0.269103,-0.255032 0.193473,-0.0984952 -0.133672,0.25855 -0.269103,0.255032z"/>
   <path id="_208910024" class="fil5" d="M8.68783 7.40187c-0.0068163,0.0136764 -0.0136827,0.0273653 -0.0206492,0.0409979 0,0 -0.0581357,0.171184 -0.424463,0.128834 0,0 0.106519,-0.18849 0.0993026,-0.204783 -0.00721689,-0.0162928 -0.185674,0.189448 -0.185674,0.189448 0,0 -0.225407,0.000788662 -0.40946,-0.158045 0,0 -0.000751107,-0.254657 -0.0167372,-0.254074 -0.0159798,0.000582108 -0.0548934,0.207944 -0.0548934,0.207944 -0.124145,-0.0165181 -0.266693,-0.0617786 -0.350354,-0.135907 -0.0299379,-0.0265203 -0.0348576,-0.0623043 -0.017119,-0.143161 0.00761122,-0.0346886 0.0168999,-0.0773452 0.0290303,-0.129672 0.694887,0.312166 1.13906,0.420895 1.35102,0.458419z"/>
   <path id="_208909208" class="fil5" d="M8.64938 4.12362c0,0 0,0.23258 0.313631,0.359442 0,0 -0.207913,-0.00704789 -0.296011,-0.0916225 -0.0880986,-0.0845747 -0.0176197,-0.26782 -0.0176197,-0.26782z"/>
   <path id="_208906880" class="fil0" d="M7.86569 2.95638c0,0 0.0670864,0.145734 0.0772889,0.310683 0,0 0.0715117,-0.205453 0.0620164,-0.29618 -0.00949525,-0.0907275 -0.131782,-0.108479 -0.139305,-0.0145026z"/>
   <path id="_208907600" class="fil3" d="M3.81568 1.27768l0.0764189 -0.105737c-0.052903,-0.00233469 -0.104085,-0.00430009 -0.153733,-0.00573345 0.0253499,0.0345134 0.0513882,0.0718684 0.077314,0.111471zm-2.17772 1.28442c-0.389724,0.633221 -0.616865,1.2996 -0.704551,2.00114 -0.129253,1.03454 0.0681442,1.94166 0.546956,2.87962 0,0 0.0581357,0.17119 0.424488,0.12884 0,0 -0.106545,-0.188503 -0.0993276,-0.204771 0.00722315,-0.0162865 0.185661,0.189398 0.185661,0.189398 0,0 0.22542,0.000819959 0.409485,-0.157995 0,0 0.000751107,-0.254644 0.0167247,-0.254062 0.0159735,0.000582108 0.0671928,0.18854 0.0671928,0.18854l0.240699 -0.0635624c0.109962,-0.0517012 0.144331,-0.0599133 0.114469,-0.196108 -0.0227961,-0.104041 -0.060896,-0.279518 -0.144669,-0.574102 0.0231153,-0.0272464 0.0790665,0.100698 0.120033,0.171002 0,0 0.131775,-0.145508 0.12613,-0.195094 -0.00561453,-0.0496044 -0.467088,-0.408358 -0.467088,-0.408358 -0.301657,-0.946489 -0.194199,-2.04187 0.133434,-2.91204 -0.195194,0.0682443 -0.307053,0.165732 -0.307053,0.165732 -0.0528592,-0.172673 -0.0739465,-0.338342 -0.0739465,-0.338342 -0.186769,0.0951465 -0.264352,0.158621 -0.264352,0.158621 -0.056308,-0.23437 -0.0351268,-0.350704 -0.0351268,-0.350704 -0.153295,0.0634122 -0.237963,0.149815 -0.237963,0.149815 -0.034914,-0.14276 -0.0615031,-0.267688 -0.0511942,-0.377575z"/>
   <path id="_208910240" class="fil4" d="M1.63621 2.56033c-0.389724,0.633221 -0.615113,1.30137 -0.702798,2.00291 -0.129253,1.03454 0.0681442,1.94166 0.546956,2.87962 0,0 0.00495731,0.0144588 0.0209371,0.03395 0.105818,-0.0147718 0.212857,-0.0387884 0.317825,-0.0685886 -0.00963921,-0.0211812 -0.0154791,-0.0370609 -0.0136013,-0.0412921 0.00214066,-0.00483212 0.0193723,0.00985202 0.0425189,0.0329235 0.204126,-0.0602012 0.399094,-0.141164 0.560094,-0.216989 0.00230339,-0.0233156 0.00531408,-0.0387383 0.00925739,-0.0385944 0.0035615,0.000131444 0.00836233,0.0109662 0.0136514,0.0277284 0.212125,-0.101255 0.360494,-0.190863 0.384917,-0.205828l-0.000212814 -0.000932625c-0.469141,0.161175 -1.26121,0.241838 -1.26121,0.241838 -0.773553,-1.59133 -0.629497,-3.20208 0.0871409,-4.49738 -0.000588367,-0.061597 -0.00992087,-0.102007 -0.00547682,-0.14937z"/>
   <path id="_208906784" class="fil5" d="M1.5627 2.68834c-0.00197166,0.122449 0.0100961,0.308849 0.0856325,0.455609 0,0 0.0669549,-0.0916225 0.155054,-0.130386 0,0 -0.00352394,0.204389 0.109242,0.327727l0.130386 -0.105718c0,0 0.0140958,0.155054 0.0704789,0.236104l0.144482 -0.0916225 0.11629 0.183245 0.123313 -0.0797926c0.0331551,-0.112566 0.0699281,-0.222447 0.110025,-0.328947 -0.195194,0.0682443 -0.307053,0.165732 -0.307053,0.165732 -0.0528592,-0.172673 -0.0739465,-0.338342 -0.0739465,-0.338342 -0.186769,0.0951465 -0.264352,0.158621 -0.264352,0.158621 -0.056308,-0.23437 -0.0351268,-0.350704 -0.0351268,-0.350704 -0.153295,0.0634122 -0.237963,0.149815 -0.237963,0.149815 -0.034914,-0.14276 -0.0615031,-0.267688 -0.0511942,-0.377575 -0.025813,0.0419368 -0.050875,0.0840113 -0.0752672,0.126236z"/>
   <path id="_208905848" class="fil5" d="M2.44636 3.2251c-0.392428,0.813956 -0.754969,2.27583 0.365213,3.99983 0.0396209,-0.0277033 0.0479206,-0.0617973 0.0281916,-0.15178 -0.0227961,-0.104041 -0.060896,-0.279518 -0.144669,-0.574102 0.0231153,-0.0272464 0.0790665,0.100698 0.120033,0.171002 0,0 0.131775,-0.145508 0.12613,-0.195094 -0.00561453,-0.0496044 -0.467088,-0.408358 -0.467088,-0.408358 -0.301657,-0.946489 -0.194199,-2.04187 0.133434,-2.91204 -0.0626361,0.0218948 -0.11671,0.0468002 -0.161244,0.0705415z"/>
   <path id="_208908536" class="fil1" d="M2.8741 2.5805l1.01799 -1.40855c-0.693334,-0.0305951 -1.0918,-0.000550812 -1.59645,0.517006 -0.203644,0.208858 -0.391001,0.447879 -0.557929,0.70656 -0.00496983,0.101249 -0.00153977,0.227548 0.0237162,0.367848 0,0 0.137434,-0.123338 0.292487,-0.176197 0,0 -0.0422873,0.140958 -0.0281916,0.391158 0,0 0.109242,-0.0880986 0.296011,-0.183245 0,0 -0.0105718,0.190293 0.0422873,0.362966 0,0 0.112391,-0.0979694 0.308473,-0.166233 0.0613154,-0.145183 0.128815,-0.28293 0.201597,-0.411312z"/>
   <path id="_208909184" class="fil6" d="M2.94816 2.47803l0.0314463 -0.0435141c0.0637752,-0.489184 -0.138035,-1.00268 -0.188759,-1.12187 -0.0451853,0.0221451 -0.0900953,0.0473385 -0.13508,0.0759307 0.0727134,0.176823 0.250206,0.644431 0.292393,1.08945z"/>
   <path id="_208907864" class="fil6" d="M7.18901 2.52569c-0.134968,-0.383772 -0.0172504,-0.864005 0.137966,-1.2287 0.0451853,0.0221451 0.0900953,0.0473385 0.13508,0.0759307 -0.0727134,0.176823 -0.230859,0.707749 -0.273046,1.15277z"/>
   <path id="_208909952" class="fil7" d="M3.20965 1.15874c0.0266017,-0.00673493 0.054136,-0.0170439 0.0824465,-0.0342067 0.366741,1.28651 1.4139,2.3295 1.63173,2.53612l-0.0163053 0.0655904c-1.27529,-0.903325 -1.65756,-2.39616 -1.69787,-2.5675z"/>
   <path id="_208910000" class="fil6" d="M2.70663 1.35765c-0.134542,0.0780087 -0.268533,0.185217 -0.410974,0.331301 -0.203644,0.208858 -0.391001,0.44786 -0.557929,0.706541 -0.00214066,0.043583 0.000801181,0.295842 0.0257129,0.37069 0.123883,-0.430935 0.455421,-0.977904 0.94319,-1.40853z"/>
   <path id="_208908392" class="fil2" d="M2.8741 2.5805l0.0254312 -0.0351894c-0.00669111,-0.00376179 -0.0133071,-0.00792418 -0.0200608,-0.0112291 0,0 -0.370146,0.142429 -0.487018,0.523722 0.0392453,-0.0195851 0.228919,-0.0481898 0.28005,-0.065991 0.0613154,-0.145183 0.128815,-0.28293 0.201597,-0.411312z"/>
   <path id="_208906736" class="fil0" d="M1.20633 3.89487c-0.467308,-0.0527402 -0.587848,0.462557 -0.175552,0.635011l0.175552 -0.635011z"/>
   <path id="_208907720" class="fil3" d="M1.03086 4.53256c-0.1524,-0.2375 -0.156293,-0.499999 0.175371,-0.641408 0,0 0.0943703,0.46578 -0.175371,0.641408z"/>
   <path id="_208909976" class="fil4" d="M1.0467 4.55215c-0.184516,-0.235147 -0.186606,-0.525556 0.171572,-0.667928 -0.142347,0.0951903 -0.259802,0.397098 -0.165212,0.648518l-0.00635937 0.0194099z"/>
   <path id="_208907288" class="fil4" d="M1.18776 3.98277c0.0407663,0.0253499 0.0403282,0.0997721 -0.00097018,0.166182 -0.0413109,0.0664166 -0.107865,0.0997157 -0.148632,0.0743659 -0.0407601,-0.0253499 -0.0403219,-0.0997721 0.000982698,-0.166189 0.0413046,-0.0664104 0.107859,-0.0997095 0.148619,-0.0743596z"/>
   <path id="_208906592" class="fil3" d="M2.85477 6.4771c0,0 -0.0756302,-0.156537 -0.269103,-0.255032 -0.193473,-0.0984952 0.133672,0.25855 0.269103,0.255032z"/>
   <path id="_208907480" class="fil5" d="M1.45972 7.40187c0.0068163,0.0136764 0.0136827,0.0273653 0.0206492,0.0409979 0,0 0.0581357,0.171184 0.424463,0.128834 0,0 -0.106519,-0.18849 -0.0993026,-0.204783 0.00721689,-0.0162928 0.185674,0.189448 0.185674,0.189448 0,0 0.225407,0.000788662 0.40946,-0.158045 0,0 0.000751107,-0.254657 0.0167372,-0.254074 0.0159798,0.000582108 0.0548934,0.207944 0.0548934,0.207944 0.124145,-0.0165181 0.266693,-0.0617786 0.350354,-0.135907 0.0299379,-0.0265203 0.0348576,-0.0623043 0.017119,-0.143161 -0.00761122,-0.0346886 -0.0168999,-0.0773452 -0.0290303,-0.129672 -0.694887,0.312166 -1.13906,0.420895 -1.35102,0.458419z"/>
   <path id="_208908752" class="fil5" d="M1.49817 4.12362c0,0 0,0.23258 -0.313631,0.359442 0,0 0.207913,-0.00704789 0.296011,-0.0916225 0.0880986,-0.0845747 0.0176197,-0.26782 0.0176197,-0.26782z"/>
   <path id="_208905896" class="fil0" d="M2.28186 2.95638c0,0 -0.0670864,0.145734 -0.0772889,0.310683 0,0 -0.0715117,-0.205453 -0.0620164,-0.29618 0.00949525,-0.0907275 0.131782,-0.108479 0.139305,-0.0145026z"/>
   <path id="_208908152" class="fil2" d="M4.56159 3.95057c-0.190424,-0.16898 -0.365245,-0.357314 -0.525787,-0.554736 -0.510772,-0.628107 -0.881462,-1.36626 -1.08558,-2.14938 1.92146,-0.542819 3.74043,-0.126261 4.36988,0.0543489l-0.0943641 0.202943c-0.143618,0.308861 -0.323921,0.607833 -0.509601,0.893148 -0.398099,0.61172 -0.876824,1.19606 -1.4391,1.66408 -0.0679877,0.0565771 -0.170414,0.146322 -0.260766,0.15121 -0.158083,0.00854384 -0.3433,-0.162771 -0.454689,-0.261617z"/>
   <path id="_208908968" class="fil0" d="M4.56159 3.82723c-0.190424,-0.16898 -0.365245,-0.357314 -0.525787,-0.554736 -0.510772,-0.628107 -0.881462,-1.36626 -1.08558,-2.14938 1.92146,-0.542819 3.74043,-0.126261 4.36988,0.0543489l-0.0943641 0.202943c-0.143618,0.308861 -0.323921,0.607833 -0.509601,0.893148 -0.398099,0.61172 -0.876824,1.19606 -1.4391,1.66408 -0.0679877,0.0565771 -0.170414,0.146322 -0.260766,0.15121 -0.158083,0.00854384 -0.3433,-0.162771 -0.454689,-0.261617z"/>
   <path id="_208909544" class="fil1" d="M4.61975 3.76168c-0.186124,-0.165162 -0.359092,-0.351574 -0.51596,-0.544478 -0.503167,-0.618762 -0.86823,-1.34599 -1.06913,-2.11755 1.66818,-0.464028 3.0781,-0.080406 3.86749,0.0908464l0.293282 0.0472321 -0.04916 0.105725c-0.138385,0.29762 -0.325279,0.608315 -0.503586,0.8823 -0.392309,0.60282 -0.867854,1.18351 -1.42171,1.64452 -0.0466312,0.0388072 -0.148425,0.127763 -0.20944,0.131062 -0.108936,0.00588993 -0.255001,-0.118268 -0.391796,-0.239659z"/>
   <polygon id="_208910456" class="fil6" points="6.34766,2.66168 6.1505,2.58982 6.19606,2.50219 "/>
   <path id="_208912136" class="fil6" d="M3.2712 1.16115c0.490736,1.78726 1.67135,2.70168 1.71949,2.70168 0.0296312,-0.0243296 0.0651085,-0.047182 0.0941388,-0.0721125 0.432456,-0.371491 0.822375,-0.797619 1.11206,-1.20271 0.505739,-0.70723 0.756421,-1.3288 0.756421,-1.3288 -0.938759,-0.145777 -3.72638,-0.259307 -3.68211,-0.0980633z"/>
   <path id="_208911176" class="fil0" d="M3.2712 1.15871c0.490736,1.73183 1.67135,2.61789 1.71949,2.61789 0.0296312,-0.0235722 0.0651085,-0.0457111 0.0941388,-0.069878 1.18749,-0.988426 1.86848,-2.45299 1.86848,-2.45299 -0.938759,-0.141258 -3.72638,-0.251264 -3.68211,-0.0950213z"/>
   <path id="_208909424" class="fil3" d="M3.3901 1.10559c0.144225,0.563793 0.372349,1.01762 0.61224,1.39434 0.340007,0.109843 1.15641,0.301645 2.04841,-0.00992087 0.467276,-0.636382 0.719066,-1.17534 0.719066,-1.17534 0,0 -1.35279,-0.260396 -1.73765,-0.298884 -0.384855,-0.038488 -1.64206,0.0898011 -1.64206,0.0898011z"/>
   <path id="_208908728" class="fil5" d="M3.67547 1.90581c0.101099,0.217877 0.212657,0.414755 0.326876,0.594126 0.0384942,0.0124371 0.0831413,0.0259069 0.133259,0.0395959 -0.166445,-0.239021 -0.270762,-0.424582 -0.270762,-0.424582 -0.0725319,-0.0981822 -0.135124,-0.164981 -0.189373,-0.20914zm2.28182 0.615057c0.031052,-0.0097018 0.0622104,-0.0199356 0.0934628,-0.0308517 0.20176,-0.27478 0.363292,-0.531358 0.481785,-0.734263 -0.0602137,0.0341378 -0.13724,0.120734 -0.235347,0.277497 -0.1143,0.182632 -0.228806,0.344577 -0.339901,0.487619z"/>
   <path id="_208912376" class="fil5" d="M3.3901 1.10559c0.097043,0.379359 0.232061,0.708901 0.383102,0.998697 0.751495,0.453944 1.7866,0.455678 2.54048,0.00572719 0.298046,-0.45703 0.48785,-0.869344 0.48785,-0.869344 -1.20722,-0.232374 -2.1486,-0.316729 -3.41143,-0.13508z"/>
   <path id="_208911320" class="fil8" d="M4.06596 2.61489c0.445926,0.664986 0.910335,1.00576 0.938583,1.00576 0.380786,-0.302928 0.705484,-0.664004 0.96874,-1.00949 -0.810282,0.258306 -1.54779,0.11092 -1.90732,0.00373676z"/>
   <path id="_208906520" class="fil9" d="M5.84595 2.64858c-0.687814,0.186005 -1.31022,0.0907775 -1.67458,-0.00428131 0.244673,0.12029 0.915549,0.373457 1.67458,0.00428131z"/>
   <path id="_208913168" class="fil10" d="M4.06596 2.61489c0.445926,0.664986 0.910335,1.00576 0.938583,1.00576 0.380786,-0.302928 0.705484,-0.664004 0.96874,-1.00949 -0.0387509,0.0123557 -0.0773452,0.0237538 -0.115733,0.0343006 -0.475626,0.576256 -0.865,0.798026 -0.865,0.798026 -0.287993,-0.178695 -0.565709,-0.503423 -0.773503,-0.78711 -0.0566084,-0.0138767 -0.107846,-0.0279913 -0.153088,-0.0414799z"/>
   <path id="_208912832" class="fil0" d="M5.92992 2.74222c0,0 -0.236104,0.186769 -0.947941,0.2502 0,0 0.458113,0.0387634 0.877462,-0.0986704l0.0176197 -0.0458113 0.0528592 -0.105718z"/>
   <path id="_208912448" class="fil0" d="M4.09042 2.73869c0,0 0.181687,0.186769 0.729463,0.2502 0,0 -0.352526,0.0387634 -0.675226,-0.0986704l-0.0135575 -0.0458113 -0.0406787 -0.105718z"/>
   <path id="_208912112" class="fil6" d="M6.81868 2.57394c0,0 -0.369207,0.855436 -1.36588,1.61731 -0.174708,0.133547 -0.48934,0.370133 -0.0103966,0.137077 0.271143,-0.131944 0.588298,-0.310026 0.821505,-0.512875 0.497521,-0.432757 0.554774,-1.24151 0.554774,-1.24151z"/>
   <path id="_208911776" class="fil2" d="M7.03787 3.52167c0,0 -0.366816,0.684252 -1.29091,1.15688 0,0 0.691306,-0.148137 1.22037,-0.500844l0.0211624 -0.268058 0.049379 -0.387978z"/>
   <path id="_208911440" class="fil2" d="M3.32397 5.15147c0.0658158,0.205434 1.04687,0.029844 1.16271,0.0298815 0.0574034,1.87777e-005 -0.313086,0.240511 -1.04628,0.37909l-0.116428 -0.408972z"/>
   <path id="_208911056" class="fil2" d="M5.11941 4.12713c0,0 -0.0493352,0.736504 -0.105718,0.754124 -0.0563831,0.0176197 -0.130386,-0.764696 -0.130386,-0.764696l0.236104 0.0105718z"/>
   <path id="_208910792" class="fil0" d="M4.94279 3.63454c0.0326043,0.831363 0.0402906,1.24908 0.065991,1.25305 0.0422811,0.00654089 0.0422685,-0.39957 0.0750919,-1.25305l-0.141083 0z"/>
   <path id="_208908320" class="fil2" d="M3.2639 2.53409c0,0 0.380924,0.860606 1.07928,1.41788 0,0 -0.465574,-0.268058 -0.620765,-0.437357 -0.155191,-0.1693 -0.45852,-0.980526 -0.45852,-0.980526z"/>
   <g>
    <path id="_208909688" class="fil0" d="M7.50977 1.32502c0,0 -0.241093,0.412339 -0.253273,1.20665 -0.000675996,0.0438334 -0.0682506,-0.0200107 -0.0767819,0.0228962 0,0 -0.0326419,-0.750788 0.252309,-1.31006l0.0888434 0.0345572 -0.0110976 0.045949z"/>
    <path id="_208908944" class="fil0" d="M7.52099 1.8576c0,0 -0.15034,-0.189235 -0.419719,-0.217383 0.109806,0.139931 0.23827,0.222766 0.419719,0.217383z"/>
    <path id="_208913096" class="fil0" d="M7.45692 2.10888c0,0 -0.24016,-0.027115 -0.45027,0.143793 0.176623,0.0210185 0.325987,-0.0114857 0.45027,-0.143793z"/>
   </g>
   <g>
    <path id="_208912424" class="fil0" d="M2.59249 1.4132c0,0 0.286898,0.408809 0.299085,1.20313 0.000669737,0.0438334 0.0682506,-0.0200107 0.0767819,0.0228962 0,0 0.0467439,-0.740222 -0.280495,-1.30653l-0.0606582 0.0310332 -0.0347137 0.0494729z"/>
    <path id="_208911680" class="fil0" d="M2.60339 1.89479c0,0 0.0713114,-0.230928 0.312054,-0.35503 -0.0514571,0.170263 -0.141045,0.294115 -0.312054,0.35503z"/>
    <path id="_208911152" class="fil0" d="M2.69468 2.23581c0,0 0.24016,-0.027115 0.45027,0.143793 -0.176623,0.0210185 -0.325987,-0.0114857 -0.45027,-0.143793z"/>
   </g>
   <g>
    <path id="_208910192" class="fil0" d="M4.6783 5.23315c-0.0394832,-0.00629678 0.336928,-0.482092 0.691169,-0.614825 0.0376931,0.00838736 -0.228074,0.306183 -0.352532,0.41192 -0.124465,0.105737 -0.338637,0.202905 -0.338637,0.202905z"/>
    <path id="_208912208" class="fil0" d="M5.37046 5.23315c0.0394832,-0.00629678 -0.336928,-0.482092 -0.691169,-0.614825 -0.0376931,0.00838736 0.228074,0.306183 0.352532,0.41192 0.124465,0.105737 0.338637,0.202905 0.338637,0.202905z"/>
   </g>
   <path id="_208908584" class="fil0" d="M6.21888 2.27353c0,0 -0.183245,0.140958 -0.715361,0.239628 0,0 0.422873,-0.0176197 0.680121,-0.105718l0.0422873 -0.0458113 -0.00704789 -0.0880986z"/>
   <path id="_208910672" class="fil0" d="M3.85431 2.27353c0,0 0.183245,0.140958 0.715361,0.239628 0,0 -0.422873,-0.0176197 -0.680121,-0.105718l-0.0422873 -0.0458113 0.00704789 -0.0880986z"/>
   <path id="_208910216" class="fil11" d="M1.40222 4.92194c-0.0120365,0.00713552 -0.0275907,0.00315465 -0.0347262,-0.0088881 -0.00713552,-0.0120365 -0.00315465,-0.0275969 0.0088881,-0.0347324 0.0362034,-0.0214754 0.0816015,-0.0224456 0.122487,-0.0081057 0.0250619,0.00879421 0.048653,0.0234095 0.0674306,0.042569 0.0192972,0.019679 0.0336183,0.0441275 0.0395458,0.0720249 0.00823714,0.0387509 0.000450664,0.083423 -0.0325104,0.130123 -0.0370358,0.0524773 -0.0795861,0.0667108 -0.117924,0.0590495 -0.0248616,-0.00496983 -0.0470819,-0.0194537 -0.0642635,-0.0387696 -0.0164805,-0.0185336 -0.0285859,-0.0419243 -0.0339313,-0.0656155 -0.00926365,-0.0410668 0.00088881,-0.0832227 0.0409416,-0.106926 0.0390951,-0.0231341 0.0709358,-0.0220012 0.0945018,-0.00855636 0.000632182,0.000356776 0.00123307,0.000732329 0.00182143,0.00113918 0.0107659,0.00656593 0.0193473,0.0156355 0.0257379,0.0260822 0.0063093,0.0103027 0.0105092,0.0219761 0.0126186,0.0337685 0.00553316,0.0308705 -0.0033612,0.0645514 -0.026126,0.081057 -0.0113605,0.00819959 -0.0272214,0.00565208 -0.035421,-0.00570841 -0.00820584,-0.0113542 -0.00565834,-0.0272214 0.00570215,-0.035421 0.00637815,-0.00461931 0.00823088,-0.0176385 0.00585864,-0.030858 -0.00106407,-0.0059713 -0.00307328,-0.0116735 -0.0060026,-0.0164618 -0.00227836,-0.0037305 -0.00513256,-0.00687889 -0.00843744,-0.00900703l-0.000857514 -0.000463183c-0.00883177,-0.00503242 -0.0230339,-0.00411857 -0.0437332,0.00813699 -0.0178075,0.010528 -0.0218823,0.0312273 -0.0171878,0.0520016 0.00347387,0.015429 0.0114857,0.0308079 0.0224518,0.0431261 0.0102589,0.0115483 0.0228837,0.0200733 0.0362722,0.022746 0.0197666,0.00394957 0.0432763,-0.00562078 0.0665168,-0.0385443 0.0238164,-0.0337435 0.0297751,-0.0645076 0.0243046,-0.0902267 -0.00384942,-0.0181142 -0.0133009,-0.0341441 -0.0260697,-0.0471695 -0.0132821,-0.0135512 -0.0300756,-0.0239228 -0.0479895,-0.030207 -0.0275781,-0.00967676 -0.0573095,-0.0095641 -0.079899,0.00383691zm0.143724 2.0692c5.6333e-005,-0.0119676 0.329279,0.050174 0.687332,-0.218378 0.0296562,-0.0222703 0.0371798,-0.00963295 0.0137515,0.0167559 -0.351224,0.395714 -0.714065,0.219254 -0.701083,0.201622zm-0.0399401 -0.182882c3.12961e-005,-0.0119927 0.329254,0.0501802 0.687301,-0.218391 0.029675,-0.0222515 0.0372048,-0.00964547 0.0137953,0.0167497 -0.351236,0.395752 -0.714096,0.219261 -0.701096,0.201641zm-0.015792 -2.08166c0.0124934,0.00900077 0.0153414,0.0265078 0.00631556,0.0390263 -0.00903206,0.0125185 -0.0265141,0.0153038 -0.03902,0.00632808 -0.057516,-0.041555 -0.0695212,-0.0974248 -0.0559011,-0.147586 0.00659096,-0.0242608 0.0194161,-0.0469567 0.0360156,-0.0656906 0.0168561,-0.0189905 0.037668,-0.0340439 0.059907,-0.0426629 0.0428507,-0.016637 0.090427,-0.0110601 0.127231,0.0319095 0.00343006,0.0040059 0.00687889,0.00850003 0.0102151,0.0134135 0.0157169,0.0229275 0.0256566,0.0503555 0.0274655,0.0758493 0.00203425,0.029168 -0.00611526,0.0565584 -0.0275281,0.0749042 -0.000431887,0.000356776 -0.000844995,0.000719811 -0.00130192,0.00103903 -0.00157732,0.00127688 -0.00331113,0.00258506 -0.00517638,0.00384942 -0.0372299,0.0254938 -0.0736273,0.0220137 -0.100711,0.00583986 -0.0100398,-0.00595252 -0.0187088,-0.013739 -0.0255752,-0.0224518 -0.0069853,-0.00886932 -0.0122368,-0.0188841 -0.0153163,-0.029193 -0.00737337,-0.0249117 -0.00235347,-0.0508124 0.0198981,-0.0679564 0.0122117,-0.00946395 0.0297814,-0.00719811 0.0392266,0.00496983 0.00947021,0.012218 0.00722315,0.0297939 -0.00495105,0.0392766 -0.00158358,0.00118925 -0.00157732,0.00428757 -0.00048822,0.00787411 0.000988958,0.00339876 0.00291054,0.00693522 0.00560827,0.0103402 0.00278536,0.00351768 0.00630304,0.00667233 0.0103027,0.00910091 0.0102338,0.00604015 0.0245925,0.00686011 0.0404158,-0.00393079 0.000337998,-0.000237851 0.000682256,-0.000525775 0.00105781,-0.000851255l0.000525775 -0.000463183c0.00662226,-0.00567086 0.0090258,-0.0162114 0.00814951,-0.0284169 -0.00112666,-0.0158797 -0.00751733,-0.0333304 -0.0177261,-0.0481585 -0.00188403,-0.00270399 -0.00408727,-0.00559575 -0.006616,-0.00860644 -0.0186462,-0.0217195 -0.0427192,-0.0245675 -0.0644199,-0.0161363 -0.0140645,0.00547682 -0.0273779,0.015116 -0.0382814,0.0273904 -0.0111226,0.012531 -0.0196665,0.0275594 -0.0239728,0.0434641 -0.00791166,0.0292368 -0.000344257,0.0622668 0.0346511,0.087529zm0.583798 1.10515c0.00896947,0.006447 0.01101,0.0189842 0.00453168,0.0279662 -0.00648456,0.00898825 -0.0190155,0.0109849 -0.0279787,0.00453794 -0.041242,-0.0297939 -0.0498422,-0.0698342 -0.0400716,-0.1058 0.00470694,-0.0173881 0.013908,-0.0336559 0.0258068,-0.0471007 0.0121053,-0.0136013 0.0270211,-0.024411 0.0429571,-0.0305763 0.0307391,-0.0119363 0.0648205,-0.00793044 0.0912157,0.0228775 0.00245362,0.00286047 0.00491349,0.00608397 0.00732329,0.00961417 0.0112666,0.0164367 0.0184021,0.036097 0.019679,0.0543614 0.00147718,0.0209058 -0.00438146,0.040566 -0.0197228,0.0537167 -0.000331739,0.000237851 -0.000613404,0.000513256 -0.000938884,0.000732329 -0.00112666,0.000932625 -0.00238476,0.00187777 -0.00372424,0.00276658 -0.0266956,0.0182769 -0.0527528,0.0157858 -0.0721876,0.00419368 -0.00717933,-0.00428131 -0.013426,-0.00984576 -0.0183333,-0.0160987 -0.00500112,-0.00635311 -0.00876917,-0.0135512 -0.0109724,-0.0209183 -0.0052953,-0.0178701 -0.00168999,-0.036435 0.0142773,-0.0487406 0.00873788,-0.00679126 0.0213314,-0.0051576 0.0281102,0.00355524 0.00679126,0.00877543 0.00516386,0.0213753 -0.00354898,0.0281728 -0.00114544,0.000844995 -0.00114544,0.00307954 -0.000350517,0.00565208 0.000707292,0.00243484 0.00207806,0.00497608 0.00401216,0.0073984 0.00200295,0.00252247 0.00450664,0.00480709 0.0073984,0.00652211 0.00731703,0.00433764 0.0176135,0.00491975 0.0289677,-0.00281039 0.000219073,-0.000181518 0.000494479,-0.000369294 0.000751107,-0.000600886l0.000381813 -0.00032548c0.00474449,-0.0040685 0.0064783,-0.0116422 0.00582108,-0.02038 -0.000794922,-0.0113918 -0.00537042,-0.0238915 -0.0127062,-0.0345384 -0.00131444,-0.0019341 -0.00291054,-0.0040059 -0.00471946,-0.00616534 -0.0133822,-0.0155542 -0.0306514,-0.0176135 -0.0461868,-0.0115796 -0.0100774,0.00393705 -0.0196289,0.0108472 -0.027453,0.019654 -0.00796799,0.00898199 -0.0140958,0.0197604 -0.0172004,0.0311522 -0.00565208,0.0209684 -0.000225332,0.0446345 0.0248616,0.0627613zm-0.764621 -0.0511128c0.011736,-0.00319846 0.0237788,0.00374302 0.0269773,0.0154478 0.0031922,0.0116985 -0.0037305,0.0237788 -0.0154353,0.0269585 -0.0821336,0.022358 -0.143142,-0.00836858 -0.179496,-0.05853 -0.0179452,-0.0247552 -0.0296249,-0.0542487 -0.0346073,-0.0842617 -0.0049886,-0.0300818 -0.00331739,-0.06104 0.00548934,-0.0886056 0.0164117,-0.051407 0.0565208,-0.0906711 0.122906,-0.092599 0.00656593,-0.000200295 0.0134198,1.25185e-005 0.0204864,0.000600886 0.0334994,0.00262262 0.0667797,0.0140582 0.0919668,0.0316341 0.0275844,0.0192534 0.0461743,0.0460554 0.0470756,0.0776645 1.87777e-005,0.000475701 2.50369e-005,0.000963921 1.87777e-005,0.00143962 1.87777e-005,0.00247239 -6.25923e-005,0.0050199 -0.000275406,0.00763626 -0.00413735,0.051745 -0.033224,0.0817204 -0.06698,0.0941763 -0.0126436,0.00470694 -0.0258569,0.00684133 -0.0385381,0.00671615 -0.0128064,-0.00016274 -0.0253874,-0.00267895 -0.0365476,-0.00728574 -0.0260446,-0.0106908 -0.0444781,-0.0323039 -0.0437395,-0.0621541 0.000281665,-0.012193 0.0103841,-0.0218009 0.022577,-0.0214879 0.0121179,0.000256628 0.0217445,0.0104091 0.0214629,0.0225395 -0.000219073,0.00924488 0.00664104,0.0163929 0.0163303,0.0203863 0.0059713,0.00245362 0.0129879,0.00381813 0.0204614,0.0038995 0.0075987,9.38884e-005 0.0153977,-0.00117048 0.0226897,-0.00386194 0.0192409,-0.00711048 0.0359342,-0.024943 0.0384504,-0.0564895 5.6333e-005,-0.00107659 0.000118925,-0.0021344 0.000118925,-0.00323602l-5.00738e-005 -0.000938884c-0.000469442,-0.0163115 -0.0116609,-0.0312335 -0.0282854,-0.0428569 -0.0190218,-0.013257 -0.0444718,-0.0219198 -0.0703287,-0.0239728 -0.00495731,-0.000369294 -0.0101775,-0.000532034 -0.0156042,-0.000369294 -0.0443904,0.0012894 -0.0712488,0.0275781 -0.0822713,0.061935 -0.00657845,0.0207306 -0.00778022,0.0445094 -0.0038682,0.0680002 0.00392453,0.0235973 0.0129566,0.0465186 0.0267582,0.0656029 0.0264139,0.0364475 0.0712801,0.0586176 0.132257,0.0420119zm1.03814 -0.62191c-0.00337372,-0.0130442 0.00449412,-0.026295 0.0175071,-0.0296249 0.013038,-0.00336746 0.0262825,0.00446909 0.0296312,0.0174758 0.0234784,0.0913346 -0.0114606,0.158484 -0.0675621,0.197898 -0.0276783,0.0195037 -0.0605392,0.0320159 -0.0938008,0.0370421 -0.0334493,0.00505745 -0.067706,0.00274154 -0.0980633,-0.00744222 -0.0566648,-0.0189404 -0.099553,-0.063938 -0.10068,-0.137509 -0.000143962,-0.00724192 0.000231591,-0.0148657 0.000957661,-0.0226709 0.00343631,-0.0370546 0.0165932,-0.0737024 0.0364662,-0.101343 0.0217571,-0.0302571 0.0517012,-0.0504619 0.0867216,-0.0509251 0.000532034,-6.88515e-005 0.00106407,-4.38146e-005 0.0015961,-2.50369e-005 0.00278536,1.25185e-005 0.00558949,0.000125185 0.0084437,0.000438146 0.0572531,0.0053579 0.0900139,0.0380123 0.103271,0.0755801 0.00500112,0.0141146 0.00716055,0.0287236 0.00684133,0.0427443 -0.000369294,0.0142147 -0.00332991,0.0280851 -0.00861269,0.0404033 -0.0122681,0.0286735 -0.03646,0.0487531 -0.0694649,0.0474762 -0.0135387,-0.000532034 -0.0240417,-0.011855 -0.0235034,-0.0253561 0.000475701,-0.0133947 0.0118487,-0.0238727 0.0252935,-0.0233782 0.0102464,0.000350517 0.0182957,-0.00709796 0.0228712,-0.0177762 0.00276658,-0.00659096 0.00440024,-0.0143211 0.00460053,-0.0225895 0.000231591,-0.0084124 -0.00103903,-0.0171127 -0.00389324,-0.0252184 -0.0075987,-0.0213815 -0.0271337,-0.0402093 -0.0620352,-0.0434265 -0.00120177,-6.88515e-005 -0.00237225,-0.000156481 -0.0035615,-0.000150221l-0.00102025 -1.25185e-005c-0.0180704,0.000275406 -0.03477,0.0124371 -0.0478643,0.0306827 -0.0150284,0.020862 -0.0249618,0.0489659 -0.0276658,0.0775205 -0.000425627,0.00548934 -0.000744848,0.0112729 -0.000619663,0.017288 0.000744848,0.0491537 0.0294184,0.0793357 0.0672679,0.0920544 0.0229213,0.0075987 0.0492288,0.00925114 0.0753173,0.00527027 0.0261698,-0.00394957 0.0516574,-0.0135825 0.0730264,-0.0286172 0.0407789,-0.0287173 0.0659848,-0.0780087 0.048534,-0.145809zm-0.632657 0.197391c0.0107596,0.00565208 0.0148719,0.0189404 0.00925114,0.0296938 -0.0056333,0.0107221 -0.0189404,0.0148594 -0.0296625,0.0092261 -0.0753799,-0.0395395 -0.0991587,-0.103571 -0.0916351,-0.165075 0.00372424,-0.0303447 0.0152475,-0.0598945 0.032066,-0.0852757 0.0167935,-0.0254312 0.0391076,-0.046988 0.0643261,-0.0611777 0.0469943,-0.0264577 0.103121,-0.0279099 0.153063,0.0158609 0.00491975,0.00433138 0.00981447,0.00916977 0.0145965,0.0144025 0.0227398,0.0247302 0.039333,0.0557572 0.0457988,0.0857827 0.00709796,0.0329047 0.00247239,0.0651773 -0.0183771,0.0889499 -0.00032548,0.000350517 -0.0006447,0.00072607 -0.000976439,0.00104529 -0.00167121,0.00184647 -0.00346761,0.00364913 -0.00539545,0.00540797 -0.0382564,0.0351205 -0.0799992,0.0372236 -0.113179,0.0233782 -0.0124621,-0.00517012 -0.0236035,-0.0125936 -0.0327921,-0.0213189 -0.00928243,-0.00884429 -0.0167747,-0.0192409 -0.0218259,-0.0302133 -0.0117861,-0.0255752 -0.0105593,-0.0539357 0.0102776,-0.0753298 0.00852507,-0.00872536 0.0224706,-0.00888184 0.0311772,-0.000356776 0.00870658,0.00846873 0.00886306,0.0224393 0.000369294,0.0311334 -0.00645326,0.00662852 -0.00629678,0.0165369 -0.00192158,0.0260384 0.00270399,0.00587115 0.00693522,0.0116547 0.0123557,0.0167998 0.00550186,0.00522645 0.0120553,0.00963295 0.0192409,0.0126374 0.0189279,0.00786785 0.0433076,0.00617786 0.0666357,-0.0152287 0.000744848,-0.000732329 0.00150847,-0.00147718 0.00226584,-0.00227836l0.000613404 -0.000744848c0.0107471,-0.0122493 0.0127125,-0.0307704 0.0084437,-0.0505933 -0.00490097,-0.0226772 -0.017651,-0.0463496 -0.0351768,-0.0654465 -0.00337372,-0.00366791 -0.00711674,-0.00732955 -0.0111852,-0.0109161 -0.033393,-0.0292869 -0.0709608,-0.0283167 -0.102413,-0.0106282 -0.0189342,0.010672 -0.0359968,0.0272902 -0.0491287,0.0471507 -0.0131819,0.0199169 -0.0221952,0.042907 -0.0250682,0.0662664 -0.00547056,0.0446909 0.0122869,0.0914598 0.0682569,0.120809zm0.250244 -0.482924c0.0107596,0.00565208 0.0148719,0.0189404 0.00925114,0.0296938 -0.0056333,0.0107221 -0.0189404,0.0148594 -0.0296625,0.0092261 -0.0753799,-0.0395395 -0.0991587,-0.103571 -0.0916351,-0.165075 0.00372424,-0.0303447 0.0152475,-0.0598945 0.032066,-0.0852757 0.0167935,-0.0254312 0.0391076,-0.046988 0.0643261,-0.0611777 0.0469943,-0.0264577 0.103121,-0.0279099 0.153063,0.0158609 0.00491975,0.00433138 0.00981447,0.00916977 0.0145965,0.0144025 0.0227398,0.0247302 0.039333,0.0557572 0.0457988,0.0857827 0.00709796,0.0329047 0.00247239,0.0651773 -0.0183771,0.0889499 -0.00032548,0.000350517 -0.0006447,0.00072607 -0.000976439,0.00104529 -0.00167121,0.00184647 -0.00346761,0.00364913 -0.00539545,0.00540797 -0.0382564,0.0351205 -0.0799992,0.0372236 -0.113179,0.0233782 -0.0124621,-0.00517012 -0.0236035,-0.0125936 -0.0327921,-0.0213189 -0.00928243,-0.00884429 -0.0167747,-0.0192409 -0.0218259,-0.0302133 -0.0117861,-0.0255752 -0.0105593,-0.0539357 0.0102776,-0.0753298 0.00852507,-0.00872536 0.0224706,-0.00888184 0.0311772,-0.000356776 0.00870658,0.00846873 0.00886306,0.0224393 0.000369294,0.0311334 -0.00645326,0.00662852 -0.00629678,0.0165369 -0.00192158,0.0260384 0.00270399,0.00587115 0.00693522,0.0116547 0.0123557,0.0167998 0.00550186,0.00522645 0.0120553,0.00963295 0.0192409,0.0126374 0.0189279,0.00786785 0.0433076,0.00617786 0.0666357,-0.0152287 0.000744848,-0.000732329 0.00150847,-0.00147718 0.00226584,-0.00227836l0.000613404 -0.000744848c0.0107471,-0.0122493 0.0127125,-0.0307704 0.0084437,-0.0505933 -0.00490097,-0.0226772 -0.017651,-0.0463496 -0.0351768,-0.0654465 -0.00337372,-0.00366791 -0.00711674,-0.00732955 -0.0111852,-0.0109161 -0.033393,-0.0292869 -0.0709608,-0.0283167 -0.102413,-0.0106282 -0.0189342,0.010672 -0.0359968,0.0272902 -0.0491287,0.0471507 -0.0131819,0.0199169 -0.0221952,0.042907 -0.0250682,0.0662664 -0.00547056,0.0446909 0.0122869,0.0914598 0.0682569,0.120809zm-0.780507 -0.0210373c-0.00432512,-0.0133447 0.00301069,-0.0276783 0.0163303,-0.0319784 0.0133509,-0.00430635 0.0276595,0.00300443 0.0319846,0.0163491 0.0130004,0.0401029 0.00392453,0.0846498 -0.0190906,0.121448 -0.0141271,0.0225457 -0.0335995,0.0423624 -0.0564457,0.0564645 -0.0234784,0.0145214 -0.0505119,0.0231278 -0.0790791,0.0227523 -0.039671,-0.00048822 -0.0815953,-0.0179577 -0.119939,-0.0604328 -0.0430948,-0.0477391 -0.0476264,-0.092455 -0.0316905,-0.128214 0.010359,-0.0231779 0.0293871,-0.041699 0.0520642,-0.0542049 0.0217195,-0.0120302 0.0472196,-0.0187151 0.0715555,-0.0187088 0.0421559,1.25185e-005 0.0811008,0.0192221 0.0954219,0.0635687 0.0139831,0.0433076 0.00585864,0.0741343 -0.0124684,0.0942076 -0.000500738,0.000538293 -0.000988958,0.00103277 -0.00152725,0.00152725 -0.00879421,0.00904458 -0.0195288,0.0154791 -0.0311522,0.0194036 -0.0114481,0.00385568 -0.0237851,0.00541423 -0.0357777,0.00486968 -0.0313712,-0.00139581 -0.0622981,-0.0175133 -0.0733894,-0.0434015 -0.00550186,-0.012894 0.00048196,-0.0278285 0.0133822,-0.0333492 0.0128877,-0.00550186 0.0278223,0.000500738 0.0333366,0.013401 0.00309206,0.00722941 0.0154165,0.011905 0.0288363,0.0125185 0.00607771,0.000256628 0.0120991,-0.000431887 0.0174194,-0.00224706 0.00413735,-0.00138329 0.00784281,-0.00348639 0.0106532,-0.00625923l0.0006447 -0.00072607c0.00687263,-0.00751107 0.00909465,-0.0215881 0.00170251,-0.0445094 -0.0063406,-0.019704 -0.0256941,-0.0282416 -0.047013,-0.0282479 -0.0158484,-1.25185e-005 -0.0326293,0.00443153 -0.0470819,0.012412 -0.01357,0.00749229 -0.0246488,0.0179327 -0.0302195,0.0304324 -0.00820584,0.0184272 -0.00406224,0.0435204 0.0229901,0.0734645 0.0277096,0.030689 0.0564582,0.0433076 0.0827845,0.0436331 0.0185461,0.000225332 0.036291,-0.00547056 0.0518326,-0.015091 0.0161488,-0.00996469 0.0299817,-0.024098 0.0400653,-0.0401967 0.0155354,-0.0247865 0.0219824,-0.0538606 0.0138704,-0.078885zm0.690693 0.697741c-0.00432512,-0.0133447 0.00301069,-0.0276783 0.0163303,-0.0319784 0.0133509,-0.00430635 0.0276595,0.00300443 0.0319846,0.0163491 0.0130004,0.0401029 0.00392453,0.0846498 -0.0190906,0.121448 -0.0141271,0.0225457 -0.0335995,0.0423624 -0.0564457,0.0564645 -0.0234784,0.0145214 -0.0505119,0.0231278 -0.0790791,0.0227523 -0.039671,-0.00048822 -0.0815953,-0.0179577 -0.119939,-0.0604328 -0.0430948,-0.0477391 -0.0476264,-0.092455 -0.0316905,-0.128214 0.010359,-0.0231779 0.0293871,-0.041699 0.0520642,-0.0542049 0.0217195,-0.0120302 0.0472196,-0.0187151 0.0715555,-0.0187088 0.0421559,1.25185e-005 0.0811008,0.0192221 0.0954219,0.0635687 0.0139831,0.0433076 0.00585864,0.0741343 -0.0124684,0.0942076 -0.000500738,0.000538293 -0.000988958,0.00103277 -0.00152725,0.00152725 -0.00879421,0.00904458 -0.0195288,0.0154791 -0.0311522,0.0194036 -0.0114481,0.00385568 -0.0237851,0.00541423 -0.0357777,0.00486968 -0.0313712,-0.00139581 -0.0622981,-0.0175133 -0.0733894,-0.0434015 -0.00550186,-0.012894 0.00048196,-0.0278285 0.0133822,-0.0333492 0.0128877,-0.00550186 0.0278223,0.000500738 0.0333366,0.013401 0.00309206,0.00722941 0.0154165,0.011905 0.0288363,0.0125185 0.00607771,0.000256628 0.0120991,-0.000431887 0.0174194,-0.00224706 0.00413735,-0.00138329 0.00784281,-0.00348639 0.0106532,-0.00625923l0.0006447 -0.00072607c0.00687263,-0.00751107 0.00909465,-0.0215881 0.00170251,-0.0445094 -0.0063406,-0.019704 -0.0256941,-0.0282416 -0.047013,-0.0282479 -0.0158484,-1.25185e-005 -0.0326293,0.00443153 -0.0470819,0.012412 -0.01357,0.00749229 -0.0246488,0.0179327 -0.0302195,0.0304324 -0.00820584,0.0184272 -0.00406224,0.0435204 0.0229901,0.0734645 0.0277096,0.030689 0.0564582,0.0433076 0.0827845,0.0436331 0.0185461,0.000225332 0.036291,-0.00547056 0.0518326,-0.015091 0.0161488,-0.00996469 0.0299817,-0.024098 0.0400653,-0.0401967 0.0155354,-0.0247865 0.0219824,-0.0538606 0.0138704,-0.078885zm-0.731053 0.628896c-0.00397461,0.013426 -0.0180641,0.0210998 -0.0314902,0.017144 -0.0134073,-0.00398087 -0.0211186,-0.0180766 -0.0171503,-0.0315089 0.0118925,-0.0403657 0.0444843,-0.0719936 0.0841991,-0.0893191 0.0243484,-0.0106219 0.0515823,-0.0159861 0.0783655,-0.0147405 0.0275406,0.00127688 0.0546806,0.00943891 0.0780087,0.0258381 0.0324165,0.0227648 0.0571405,0.0607708 0.0647892,0.117436 0.00860018,0.0636501 -0.0128627,0.103046 -0.046168,0.123526 -0.0215943,0.0133009 -0.0477203,0.0178012 -0.0734708,0.0153789 -0.0246739,-0.00237851 -0.0494729,-0.0112541 -0.0695212,-0.0249555 -0.0347262,-0.0237725 -0.0560138,-0.061572 -0.0428131,-0.106194 0.0128815,-0.0435955 0.036967,-0.0644199 0.0633997,-0.0706166 0.000688515,-0.000175258 0.00139581,-0.000281665 0.00209684,-0.000413109 0.012362,-0.00251621 0.0248303,-0.00171503 0.036604,0.00158358 0.0116422,0.0032548 0.0226709,0.00893817 0.0322413,0.0161425 0.0250682,0.018834 0.0414861,0.0495731 0.0360406,0.0771575 -0.00272902,0.0137453 -0.01608,0.0226834 -0.029819,0.0199294 -0.0137327,-0.00272902 -0.0226709,-0.01608 -0.0199419,-0.0298127 0.00152725,-0.00771763 -0.00596504,-0.0185148 -0.0167059,-0.0265892 -0.00486968,-0.00364913 -0.0101963,-0.00646578 -0.0156293,-0.00799303 -0.0042062,-0.00115796 -0.00843118,-0.00152099 -0.0122994,-0.000832477l-0.000945143 0.000250369c-0.00988958,0.00231591 -0.0196665,0.0126624 -0.0264828,0.0357151 -0.00588367,0.0198543 0.00522019,0.0377744 0.0228149,0.0497984 0.0130442,0.00893191 0.0293933,0.0147405 0.0458113,0.0163115 0.0153664,0.00147092 0.0304261,-0.000882551 0.042037,-0.00804936 0.0171628,-0.0105593 0.0278786,-0.0335807 0.0224831,-0.0735271 -0.00553316,-0.0409166 -0.0221264,-0.0675057 -0.0436143,-0.0826155 -0.0151661,-0.0106469 -0.0330049,-0.0159485 -0.0512318,-0.0167998 -0.0189404,-0.000882551 -0.0382939,0.00296687 -0.0557071,0.0105468 -0.0267895,0.0116985 -0.0485027,0.0320159 -0.0559011,0.0572093zm0.412301 -0.246676c-0.00397461,0.013426 -0.0180641,0.0210998 -0.0314902,0.017144 -0.0134073,-0.00398087 -0.0211186,-0.0180766 -0.0171503,-0.0315089 0.0118925,-0.0403657 0.0444843,-0.0719936 0.0841991,-0.0893191 0.0243484,-0.0106219 0.0515823,-0.0159861 0.0783655,-0.0147405 0.0275406,0.00127688 0.0546806,0.00943891 0.0780087,0.0258381 0.0324165,0.0227648 0.0571405,0.0607708 0.0647892,0.117436 0.00860018,0.0636501 -0.0128627,0.103046 -0.046168,0.123526 -0.0215943,0.0133009 -0.0477203,0.0178012 -0.0734708,0.0153789 -0.0246739,-0.00237851 -0.0494729,-0.0112541 -0.0695212,-0.0249555 -0.0347262,-0.0237725 -0.0560138,-0.061572 -0.0428131,-0.106194 0.0128815,-0.0435955 0.036967,-0.0644199 0.0633997,-0.0706166 0.000688515,-0.000175258 0.00139581,-0.000281665 0.00209684,-0.000413109 0.012362,-0.00251621 0.0248303,-0.00171503 0.036604,0.00158358 0.0116422,0.0032548 0.0226709,0.00893817 0.0322413,0.0161425 0.0250682,0.018834 0.0414861,0.0495731 0.0360406,0.0771575 -0.00272902,0.0137453 -0.01608,0.0226834 -0.029819,0.0199294 -0.0137327,-0.00272902 -0.0226709,-0.01608 -0.0199419,-0.0298127 0.00152725,-0.00771763 -0.00596504,-0.0185148 -0.0167059,-0.0265892 -0.00486968,-0.00364913 -0.0101963,-0.00646578 -0.0156293,-0.00799303 -0.0042062,-0.00115796 -0.00843118,-0.00152099 -0.0122994,-0.000832477l-0.000945143 0.000250369c-0.00988958,0.00231591 -0.0196665,0.0126624 -0.0264828,0.0357151 -0.00588367,0.0198543 0.00522019,0.0377744 0.0228149,0.0497984 0.0130442,0.00893191 0.0293933,0.0147405 0.0458113,0.0163115 0.0153664,0.00147092 0.0304261,-0.000882551 0.042037,-0.00804936 0.0171628,-0.0105593 0.0278786,-0.0335807 0.0224831,-0.0735271 -0.00553316,-0.0409166 -0.0221264,-0.0675057 -0.0436143,-0.0826155 -0.0151661,-0.0106469 -0.0330049,-0.0159485 -0.0512318,-0.0167998 -0.0189404,-0.000882551 -0.0382939,0.00296687 -0.0557071,0.0105468 -0.0267895,0.0116985 -0.0485027,0.0320159 -0.0559011,0.0572093zm-0.415218 -0.760239c-0.0120365,0.00713552 -0.0275907,0.00315465 -0.0347262,-0.0088881 -0.00713552,-0.0120365 -0.00315465,-0.0275969 0.0088881,-0.0347324 0.0362034,-0.0214754 0.0816015,-0.0224456 0.122487,-0.0081057 0.0250619,0.00879421 0.048653,0.0234095 0.0674306,0.042569 0.0192972,0.019679 0.0336183,0.0441275 0.0395458,0.0720249 0.00823714,0.0387509 0.000450664,0.083423 -0.0325104,0.130123 -0.0370358,0.0524773 -0.0795861,0.0667108 -0.117924,0.0590495 -0.0248616,-0.00496983 -0.0470819,-0.0194537 -0.0642635,-0.0387696 -0.0164805,-0.0185336 -0.0285859,-0.0419243 -0.0339313,-0.0656155 -0.00926365,-0.0410668 0.00088881,-0.0832227 0.0409416,-0.106926 0.0390951,-0.0231341 0.0709358,-0.0220012 0.0945018,-0.00855636 0.000632182,0.000356776 0.00123307,0.000732329 0.00182143,0.00113918 0.0107659,0.00656593 0.0193473,0.0156355 0.0257379,0.0260822 0.0063093,0.0103027 0.0105092,0.0219761 0.0126186,0.0337685 0.00553316,0.0308705 -0.0033612,0.0645514 -0.026126,0.081057 -0.0113605,0.00819959 -0.0272214,0.00565208 -0.035421,-0.00570841 -0.00820584,-0.0113542 -0.00565834,-0.0272214 0.00570215,-0.035421 0.00637815,-0.00461931 0.00823088,-0.0176385 0.00585864,-0.030858 -0.00106407,-0.0059713 -0.00307328,-0.0116735 -0.0060026,-0.0164618 -0.00227836,-0.0037305 -0.00513256,-0.00687889 -0.00843744,-0.00900703l-0.000857514 -0.000463183c-0.00883177,-0.00503242 -0.0230339,-0.00411857 -0.0437332,0.00813699 -0.0178075,0.010528 -0.0218823,0.0312273 -0.0171878,0.0520016 0.00347387,0.015429 0.0114857,0.0308079 0.0224518,0.0431261 0.0102589,0.0115483 0.0228837,0.0200733 0.0362722,0.022746 0.0197666,0.00394957 0.0432763,-0.00562078 0.0665168,-0.0385443 0.0238164,-0.0337435 0.0297751,-0.0645076 0.0243046,-0.0902267 -0.00384942,-0.0181142 -0.0133009,-0.0341441 -0.0260697,-0.0471695 -0.0132821,-0.0135512 -0.0300756,-0.0239228 -0.0479895,-0.030207 -0.0275781,-0.00967676 -0.0573095,-0.0095641 -0.079899,0.00383691z"/>
   <path id="_208912664" class="fil11" d="M8.74953 4.92194c0.0120365,0.00713552 0.0275907,0.00315465 0.0347262,-0.0088881 0.00713552,-0.0120365 0.00315465,-0.0275969 -0.0088881,-0.0347324 -0.0362034,-0.0214754 -0.0816015,-0.0224456 -0.122487,-0.0081057 -0.0250619,0.00879421 -0.048653,0.0234095 -0.0674306,0.042569 -0.0192972,0.019679 -0.0336183,0.0441275 -0.0395458,0.0720249 -0.00823714,0.0387509 -0.000450664,0.083423 0.0325104,0.130123 0.0370358,0.0524773 0.0795861,0.0667108 0.117924,0.0590495 0.0248616,-0.00496983 0.0470819,-0.0194537 0.0642635,-0.0387696 0.0164805,-0.0185336 0.0285859,-0.0419243 0.0339313,-0.0656155 0.00926365,-0.0410668 -0.00088881,-0.0832227 -0.0409416,-0.106926 -0.0390951,-0.0231341 -0.0709358,-0.0220012 -0.0945018,-0.00855636 -0.000632182,0.000356776 -0.00123307,0.000732329 -0.00182143,0.00113918 -0.0107659,0.00656593 -0.0193473,0.0156355 -0.0257379,0.0260822 -0.0063093,0.0103027 -0.0105092,0.0219761 -0.0126186,0.0337685 -0.00553316,0.0308705 0.0033612,0.0645514 0.026126,0.081057 0.0113605,0.00819959 0.0272214,0.00565208 0.035421,-0.00570841 0.00820584,-0.0113542 0.00565834,-0.0272214 -0.00570215,-0.035421 -0.00637815,-0.00461931 -0.00823088,-0.0176385 -0.00585864,-0.030858 0.00106407,-0.0059713 0.00307328,-0.0116735 0.0060026,-0.0164618 0.00227836,-0.0037305 0.00513256,-0.00687889 0.00843744,-0.00900703l0.000857514 -0.000463183c0.00883177,-0.00503242 0.0230339,-0.00411857 0.0437332,0.00813699 0.0178075,0.010528 0.0218823,0.0312273 0.0171878,0.0520016 -0.00347387,0.015429 -0.0114857,0.0308079 -0.0224518,0.0431261 -0.0102589,0.0115483 -0.0228837,0.0200733 -0.0362722,0.022746 -0.0197666,0.00394957 -0.0432763,-0.00562078 -0.0665168,-0.0385443 -0.0238164,-0.0337435 -0.0297751,-0.0645076 -0.0243046,-0.0902267 0.00384942,-0.0181142 0.0133009,-0.0341441 0.0260697,-0.0471695 0.0132821,-0.0135512 0.0300756,-0.0239228 0.0479895,-0.030207 0.0275781,-0.00967676 0.0573095,-0.0095641 0.079899,0.00383691zm-0.143724 2.0692c-5.6333e-005,-0.0119676 -0.329279,0.050174 -0.687332,-0.218378 -0.0296562,-0.0222703 -0.0371798,-0.00963295 -0.0137515,0.0167559 0.351224,0.395714 0.714065,0.219254 0.701083,0.201622zm0.0399401 -0.182882c-3.12961e-005,-0.0119927 -0.329254,0.0501802 -0.687301,-0.218391 -0.029675,-0.0222515 -0.0372048,-0.00964547 -0.0137953,0.0167497 0.351236,0.395752 0.714096,0.219261 0.701096,0.201641zm0.015792 -2.08166c-0.0124934,0.00900077 -0.0153414,0.0265078 -0.00631556,0.0390263 0.00903206,0.0125185 0.0265141,0.0153038 0.03902,0.00632808 0.057516,-0.041555 0.0695212,-0.0974248 0.0559011,-0.147586 -0.00659096,-0.0242608 -0.0194161,-0.0469567 -0.0360156,-0.0656906 -0.0168561,-0.0189905 -0.037668,-0.0340439 -0.059907,-0.0426629 -0.0428507,-0.016637 -0.090427,-0.0110601 -0.127231,0.0319095 -0.00343006,0.0040059 -0.00687889,0.00850003 -0.0102151,0.0134135 -0.0157169,0.0229275 -0.0256566,0.0503555 -0.0274655,0.0758493 -0.00203425,0.029168 0.00611526,0.0565584 0.0275281,0.0749042 0.000431887,0.000356776 0.000844995,0.000719811 0.00130192,0.00103903 0.00157732,0.00127688 0.00331113,0.00258506 0.00517638,0.00384942 0.0372299,0.0254938 0.0736273,0.0220137 0.100711,0.00583986 0.0100398,-0.00595252 0.0187088,-0.013739 0.0255752,-0.0224518 0.0069853,-0.00886932 0.0122368,-0.0188841 0.0153163,-0.029193 0.00737337,-0.0249117 0.00235347,-0.0508124 -0.0198981,-0.0679564 -0.0122117,-0.00946395 -0.0297814,-0.00719811 -0.0392266,0.00496983 -0.00947021,0.012218 -0.00722315,0.0297939 0.00495105,0.0392766 0.00158358,0.00118925 0.00157732,0.00428757 0.00048822,0.00787411 -0.000988958,0.00339876 -0.00291054,0.00693522 -0.00560827,0.0103402 -0.00278536,0.00351768 -0.00630304,0.00667233 -0.0103027,0.00910091 -0.0102338,0.00604015 -0.0245925,0.00686011 -0.0404158,-0.00393079 -0.000337998,-0.000237851 -0.000682256,-0.000525775 -0.00105781,-0.000851255l-0.000525775 -0.000463183c-0.00662226,-0.00567086 -0.0090258,-0.0162114 -0.00814951,-0.0284169 0.00112666,-0.0158797 0.00751733,-0.0333304 0.0177261,-0.0481585 0.00188403,-0.00270399 0.00408727,-0.00559575 0.006616,-0.00860644 0.0186462,-0.0217195 0.0427192,-0.0245675 0.0644199,-0.0161363 0.0140645,0.00547682 0.0273779,0.015116 0.0382814,0.0273904 0.0111226,0.012531 0.0196665,0.0275594 0.0239728,0.0434641 0.00791166,0.0292368 0.000344257,0.0622668 -0.0346511,0.087529zm-0.583798 1.10515c-0.00896947,0.006447 -0.01101,0.0189842 -0.00453168,0.0279662 0.00648456,0.00898825 0.0190155,0.0109849 0.0279787,0.00453794 0.041242,-0.0297939 0.0498422,-0.0698342 0.0400716,-0.1058 -0.00470694,-0.0173881 -0.013908,-0.0336559 -0.0258068,-0.0471007 -0.0121053,-0.0136013 -0.0270211,-0.024411 -0.0429571,-0.0305763 -0.0307391,-0.0119363 -0.0648205,-0.00793044 -0.0912157,0.0228775 -0.00245362,0.00286047 -0.00491349,0.00608397 -0.00732329,0.00961417 -0.0112666,0.0164367 -0.0184021,0.036097 -0.019679,0.0543614 -0.00147718,0.0209058 0.00438146,0.040566 0.0197228,0.0537167 0.000331739,0.000237851 0.000613404,0.000513256 0.000938884,0.000732329 0.00112666,0.000932625 0.00238476,0.00187777 0.00372424,0.00276658 0.0266956,0.0182769 0.0527528,0.0157858 0.0721876,0.00419368 0.00717933,-0.00428131 0.013426,-0.00984576 0.0183333,-0.0160987 0.00500112,-0.00635311 0.00876917,-0.0135512 0.0109724,-0.0209183 0.0052953,-0.0178701 0.00168999,-0.036435 -0.0142773,-0.0487406 -0.00873788,-0.00679126 -0.0213314,-0.0051576 -0.0281102,0.00355524 -0.00679126,0.00877543 -0.00516386,0.0213753 0.00354898,0.0281728 0.00114544,0.000844995 0.00114544,0.00307954 0.000350517,0.00565208 -0.000707292,0.00243484 -0.00207806,0.00497608 -0.00401216,0.0073984 -0.00200295,0.00252247 -0.00450664,0.00480709 -0.0073984,0.00652211 -0.00731703,0.00433764 -0.0176135,0.00491975 -0.0289677,-0.00281039 -0.000219073,-0.000181518 -0.000494479,-0.000369294 -0.000751107,-0.000600886l-0.000381813 -0.00032548c-0.00474449,-0.0040685 -0.0064783,-0.0116422 -0.00582108,-0.02038 0.000794922,-0.0113918 0.00537042,-0.0238915 0.0127062,-0.0345384 0.00131444,-0.0019341 0.00291054,-0.0040059 0.00471946,-0.00616534 0.0133822,-0.0155542 0.0306514,-0.0176135 0.0461868,-0.0115796 0.0100774,0.00393705 0.0196289,0.0108472 0.027453,0.019654 0.00796799,0.00898199 0.0140958,0.0197604 0.0172004,0.0311522 0.00565208,0.0209684 0.000225332,0.0446345 -0.0248616,0.0627613zm0.764621 -0.0511128c-0.011736,-0.00319846 -0.0237788,0.00374302 -0.0269773,0.0154478 -0.0031922,0.0116985 0.0037305,0.0237788 0.0154353,0.0269585 0.0821336,0.022358 0.143142,-0.00836858 0.179496,-0.05853 0.0179452,-0.0247552 0.0296249,-0.0542487 0.0346073,-0.0842617 0.0049886,-0.0300818 0.00331739,-0.06104 -0.00548934,-0.0886056 -0.0164117,-0.051407 -0.0565208,-0.0906711 -0.122906,-0.092599 -0.00656593,-0.000200295 -0.0134198,1.25185e-005 -0.0204864,0.000600886 -0.0334994,0.00262262 -0.0667797,0.0140582 -0.0919668,0.0316341 -0.0275844,0.0192534 -0.0461743,0.0460554 -0.0470756,0.0776645 -1.87777e-005,0.000475701 -2.50369e-005,0.000963921 -1.87777e-005,0.00143962 -1.87777e-005,0.00247239 6.25923e-005,0.0050199 0.000275406,0.00763626 0.00413735,0.051745 0.033224,0.0817204 0.06698,0.0941763 0.0126436,0.00470694 0.0258569,0.00684133 0.0385381,0.00671615 0.0128064,-0.00016274 0.0253874,-0.00267895 0.0365476,-0.00728574 0.0260446,-0.0106908 0.0444781,-0.0323039 0.0437395,-0.0621541 -0.000281665,-0.012193 -0.0103841,-0.0218009 -0.022577,-0.0214879 -0.0121179,0.000256628 -0.0217445,0.0104091 -0.0214629,0.0225395 0.000219073,0.00924488 -0.00664104,0.0163929 -0.0163303,0.0203863 -0.0059713,0.00245362 -0.0129879,0.00381813 -0.0204614,0.0038995 -0.0075987,9.38884e-005 -0.0153977,-0.00117048 -0.0226897,-0.00386194 -0.0192409,-0.00711048 -0.0359342,-0.024943 -0.0384504,-0.0564895 -5.6333e-005,-0.00107659 -0.000118925,-0.0021344 -0.000118925,-0.00323602l5.00738e-005 -0.000938884c0.000469442,-0.0163115 0.0116609,-0.0312335 0.0282854,-0.0428569 0.0190218,-0.013257 0.0444718,-0.0219198 0.0703287,-0.0239728 0.00495731,-0.000369294 0.0101775,-0.000532034 0.0156042,-0.000369294 0.0443904,0.0012894 0.0712488,0.0275781 0.0822713,0.061935 0.00657845,0.0207306 0.00778022,0.0445094 0.0038682,0.0680002 -0.00392453,0.0235973 -0.0129566,0.0465186 -0.0267582,0.0656029 -0.0264139,0.0364475 -0.0712801,0.0586176 -0.132257,0.0420119zm-1.03814 -0.62191c0.00337372,-0.0130442 -0.00449412,-0.026295 -0.0175071,-0.0296249 -0.013038,-0.00336746 -0.0262825,0.00446909 -0.0296312,0.0174758 -0.0234784,0.0913346 0.0114606,0.158484 0.0675621,0.197898 0.0276783,0.0195037 0.0605392,0.0320159 0.0938008,0.0370421 0.0334493,0.00505745 0.067706,0.00274154 0.0980633,-0.00744222 0.0566648,-0.0189404 0.099553,-0.063938 0.10068,-0.137509 0.000143962,-0.00724192 -0.000231591,-0.0148657 -0.000957661,-0.0226709 -0.00343631,-0.0370546 -0.0165932,-0.0737024 -0.0364662,-0.101343 -0.0217571,-0.0302571 -0.0517012,-0.0504619 -0.0867216,-0.0509251 -0.000532034,-6.88515e-005 -0.00106407,-4.38146e-005 -0.0015961,-2.50369e-005 -0.00278536,1.25185e-005 -0.00558949,0.000125185 -0.0084437,0.000438146 -0.0572531,0.0053579 -0.0900139,0.0380123 -0.103271,0.0755801 -0.00500112,0.0141146 -0.00716055,0.0287236 -0.00684133,0.0427443 0.000369294,0.0142147 0.00332991,0.0280851 0.00861269,0.0404033 0.0122681,0.0286735 0.03646,0.0487531 0.0694649,0.0474762 0.0135387,-0.000532034 0.0240417,-0.011855 0.0235034,-0.0253561 -0.000475701,-0.0133947 -0.0118487,-0.0238727 -0.0252935,-0.0233782 -0.0102464,0.000350517 -0.0182957,-0.00709796 -0.0228712,-0.0177762 -0.00276658,-0.00659096 -0.00440024,-0.0143211 -0.00460053,-0.0225895 -0.000231591,-0.0084124 0.00103903,-0.0171127 0.00389324,-0.0252184 0.0075987,-0.0213815 0.0271337,-0.0402093 0.0620352,-0.0434265 0.00120177,-6.88515e-005 0.00237225,-0.000156481 0.0035615,-0.000150221l0.00102025 -1.25185e-005c0.0180704,0.000275406 0.03477,0.0124371 0.0478643,0.0306827 0.0150284,0.020862 0.0249618,0.0489659 0.0276658,0.0775205 0.000425627,0.00548934 0.000744848,0.0112729 0.000619663,0.017288 -0.000744848,0.0491537 -0.0294184,0.0793357 -0.0672679,0.0920544 -0.0229213,0.0075987 -0.0492288,0.00925114 -0.0753173,0.00527027 -0.0261698,-0.00394957 -0.0516574,-0.0135825 -0.0730264,-0.0286172 -0.0407789,-0.0287173 -0.0659848,-0.0780087 -0.048534,-0.145809zm0.632657 0.197391c-0.0107596,0.00565208 -0.0148719,0.0189404 -0.00925114,0.0296938 0.0056333,0.0107221 0.0189404,0.0148594 0.0296625,0.0092261 0.0753799,-0.0395395 0.0991587,-0.103571 0.0916351,-0.165075 -0.00372424,-0.0303447 -0.0152475,-0.0598945 -0.032066,-0.0852757 -0.0167935,-0.0254312 -0.0391076,-0.046988 -0.0643261,-0.0611777 -0.0469943,-0.0264577 -0.103121,-0.0279099 -0.153063,0.0158609 -0.00491975,0.00433138 -0.00981447,0.00916977 -0.0145965,0.0144025 -0.0227398,0.0247302 -0.039333,0.0557572 -0.0457988,0.0857827 -0.00709796,0.0329047 -0.00247239,0.0651773 0.0183771,0.0889499 0.00032548,0.000350517 0.0006447,0.00072607 0.000976439,0.00104529 0.00167121,0.00184647 0.00346761,0.00364913 0.00539545,0.00540797 0.0382564,0.0351205 0.0799992,0.0372236 0.113179,0.0233782 0.0124621,-0.00517012 0.0236035,-0.0125936 0.0327921,-0.0213189 0.00928243,-0.00884429 0.0167747,-0.0192409 0.0218259,-0.0302133 0.0117861,-0.0255752 0.0105593,-0.0539357 -0.0102776,-0.0753298 -0.00852507,-0.00872536 -0.0224706,-0.00888184 -0.0311772,-0.000356776 -0.00870658,0.00846873 -0.00886306,0.0224393 -0.000369294,0.0311334 0.00645326,0.00662852 0.00629678,0.0165369 0.00192158,0.0260384 -0.00270399,0.00587115 -0.00693522,0.0116547 -0.0123557,0.0167998 -0.00550186,0.00522645 -0.0120553,0.00963295 -0.0192409,0.0126374 -0.0189279,0.00786785 -0.0433076,0.00617786 -0.0666357,-0.0152287 -0.000744848,-0.000732329 -0.00150847,-0.00147718 -0.00226584,-0.00227836l-0.000613404 -0.000744848c-0.0107471,-0.0122493 -0.0127125,-0.0307704 -0.0084437,-0.0505933 0.00490097,-0.0226772 0.017651,-0.0463496 0.0351768,-0.0654465 0.00337372,-0.00366791 0.00711674,-0.00732955 0.0111852,-0.0109161 0.033393,-0.0292869 0.0709608,-0.0283167 0.102413,-0.0106282 0.0189342,0.010672 0.0359968,0.0272902 0.0491287,0.0471507 0.0131819,0.0199169 0.0221952,0.042907 0.0250682,0.0662664 0.00547056,0.0446909 -0.0122869,0.0914598 -0.0682569,0.120809zm-0.250244 -0.482924c-0.0107596,0.00565208 -0.0148719,0.0189404 -0.00925114,0.0296938 0.0056333,0.0107221 0.0189404,0.0148594 0.0296625,0.0092261 0.0753799,-0.0395395 0.0991587,-0.103571 0.0916351,-0.165075 -0.00372424,-0.0303447 -0.0152475,-0.0598945 -0.032066,-0.0852757 -0.0167935,-0.0254312 -0.0391076,-0.046988 -0.0643261,-0.0611777 -0.0469943,-0.0264577 -0.103121,-0.0279099 -0.153063,0.0158609 -0.00491975,0.00433138 -0.00981447,0.00916977 -0.0145965,0.0144025 -0.0227398,0.0247302 -0.039333,0.0557572 -0.0457988,0.0857827 -0.00709796,0.0329047 -0.00247239,0.0651773 0.0183771,0.0889499 0.00032548,0.000350517 0.0006447,0.00072607 0.000976439,0.00104529 0.00167121,0.00184647 0.00346761,0.00364913 0.00539545,0.00540797 0.0382564,0.0351205 0.0799992,0.0372236 0.113179,0.0233782 0.0124621,-0.00517012 0.0236035,-0.0125936 0.0327921,-0.0213189 0.00928243,-0.00884429 0.0167747,-0.0192409 0.0218259,-0.0302133 0.0117861,-0.0255752 0.0105593,-0.0539357 -0.0102776,-0.0753298 -0.00852507,-0.00872536 -0.0224706,-0.00888184 -0.0311772,-0.000356776 -0.00870658,0.00846873 -0.00886306,0.0224393 -0.000369294,0.0311334 0.00645326,0.00662852 0.00629678,0.0165369 0.00192158,0.0260384 -0.00270399,0.00587115 -0.00693522,0.0116547 -0.0123557,0.0167998 -0.00550186,0.00522645 -0.0120553,0.00963295 -0.0192409,0.0126374 -0.0189279,0.00786785 -0.0433076,0.00617786 -0.0666357,-0.0152287 -0.000744848,-0.000732329 -0.00150847,-0.00147718 -0.00226584,-0.00227836l-0.000613404 -0.000744848c-0.0107471,-0.0122493 -0.0127125,-0.0307704 -0.0084437,-0.0505933 0.00490097,-0.0226772 0.017651,-0.0463496 0.0351768,-0.0654465 0.00337372,-0.00366791 0.00711674,-0.00732955 0.0111852,-0.0109161 0.033393,-0.0292869 0.0709608,-0.0283167 0.102413,-0.0106282 0.0189342,0.010672 0.0359968,0.0272902 0.0491287,0.0471507 0.0131819,0.0199169 0.0221952,0.042907 0.0250682,0.0662664 0.00547056,0.0446909 -0.0122869,0.0914598 -0.0682569,0.120809zm0.780507 -0.0210373c0.00432512,-0.0133447 -0.00301069,-0.0276783 -0.0163303,-0.0319784 -0.0133509,-0.00430635 -0.0276595,0.00300443 -0.0319846,0.0163491 -0.0130004,0.0401029 -0.00392453,0.0846498 0.0190906,0.121448 0.0141271,0.0225457 0.0335995,0.0423624 0.0564457,0.0564645 0.0234784,0.0145214 0.0505119,0.0231278 0.0790791,0.0227523 0.039671,-0.00048822 0.0815953,-0.0179577 0.119939,-0.0604328 0.0430948,-0.0477391 0.0476264,-0.092455 0.0316905,-0.128214 -0.010359,-0.0231779 -0.0293871,-0.041699 -0.0520642,-0.0542049 -0.0217195,-0.0120302 -0.0472196,-0.0187151 -0.0715555,-0.0187088 -0.0421559,1.25185e-005 -0.0811008,0.0192221 -0.0954219,0.0635687 -0.0139831,0.0433076 -0.00585864,0.0741343 0.0124684,0.0942076 0.000500738,0.000538293 0.000988958,0.00103277 0.00152725,0.00152725 0.00879421,0.00904458 0.0195288,0.0154791 0.0311522,0.0194036 0.0114481,0.00385568 0.0237851,0.00541423 0.0357777,0.00486968 0.0313712,-0.00139581 0.0622981,-0.0175133 0.0733894,-0.0434015 0.00550186,-0.012894 -0.00048196,-0.0278285 -0.0133822,-0.0333492 -0.0128877,-0.00550186 -0.0278223,0.000500738 -0.0333366,0.013401 -0.00309206,0.00722941 -0.0154165,0.011905 -0.0288363,0.0125185 -0.00607771,0.000256628 -0.0120991,-0.000431887 -0.0174194,-0.00224706 -0.00413735,-0.00138329 -0.00784281,-0.00348639 -0.0106532,-0.00625923l-0.0006447 -0.00072607c-0.00687263,-0.00751107 -0.00909465,-0.0215881 -0.00170251,-0.0445094 0.0063406,-0.019704 0.0256941,-0.0282416 0.047013,-0.0282479 0.0158484,-1.25185e-005 0.0326293,0.00443153 0.0470819,0.012412 0.01357,0.00749229 0.0246488,0.0179327 0.0302195,0.0304324 0.00820584,0.0184272 0.00406224,0.0435204 -0.0229901,0.0734645 -0.0277096,0.030689 -0.0564582,0.0433076 -0.0827845,0.0436331 -0.0185461,0.000225332 -0.036291,-0.00547056 -0.0518326,-0.015091 -0.0161488,-0.00996469 -0.0299817,-0.024098 -0.0400653,-0.0401967 -0.0155354,-0.0247865 -0.0219824,-0.0538606 -0.0138704,-0.078885zm-0.690693 0.697741c0.00432512,-0.0133447 -0.00301069,-0.0276783 -0.0163303,-0.0319784 -0.0133509,-0.00430635 -0.0276595,0.00300443 -0.0319846,0.0163491 -0.0130004,0.0401029 -0.00392453,0.0846498 0.0190906,0.121448 0.0141271,0.0225457 0.0335995,0.0423624 0.0564457,0.0564645 0.0234784,0.0145214 0.0505119,0.0231278 0.0790791,0.0227523 0.039671,-0.00048822 0.0815953,-0.0179577 0.119939,-0.0604328 0.0430948,-0.0477391 0.0476264,-0.092455 0.0316905,-0.128214 -0.010359,-0.0231779 -0.0293871,-0.041699 -0.0520642,-0.0542049 -0.0217195,-0.0120302 -0.0472196,-0.0187151 -0.0715555,-0.0187088 -0.0421559,1.25185e-005 -0.0811008,0.0192221 -0.0954219,0.0635687 -0.0139831,0.0433076 -0.00585864,0.0741343 0.0124684,0.0942076 0.000500738,0.000538293 0.000988958,0.00103277 0.00152725,0.00152725 0.00879421,0.00904458 0.0195288,0.0154791 0.0311522,0.0194036 0.0114481,0.00385568 0.0237851,0.00541423 0.0357777,0.00486968 0.0313712,-0.00139581 0.0622981,-0.0175133 0.0733894,-0.0434015 0.00550186,-0.012894 -0.00048196,-0.0278285 -0.0133822,-0.0333492 -0.0128877,-0.00550186 -0.0278223,0.000500738 -0.0333366,0.013401 -0.00309206,0.00722941 -0.0154165,0.011905 -0.0288363,0.0125185 -0.00607771,0.000256628 -0.0120991,-0.000431887 -0.0174194,-0.00224706 -0.00413735,-0.00138329 -0.00784281,-0.00348639 -0.0106532,-0.00625923l-0.0006447 -0.00072607c-0.00687263,-0.00751107 -0.00909465,-0.0215881 -0.00170251,-0.0445094 0.0063406,-0.019704 0.0256941,-0.0282416 0.047013,-0.0282479 0.0158484,-1.25185e-005 0.0326293,0.00443153 0.0470819,0.012412 0.01357,0.00749229 0.0246488,0.0179327 0.0302195,0.0304324 0.00820584,0.0184272 0.00406224,0.0435204 -0.0229901,0.0734645 -0.0277096,0.030689 -0.0564582,0.0433076 -0.0827845,0.0436331 -0.0185461,0.000225332 -0.036291,-0.00547056 -0.0518326,-0.015091 -0.0161488,-0.00996469 -0.0299817,-0.024098 -0.0400653,-0.0401967 -0.0155354,-0.0247865 -0.0219824,-0.0538606 -0.0138704,-0.078885zm0.731053 0.628896c0.00397461,0.013426 0.0180641,0.0210998 0.0314902,0.017144 0.0134073,-0.00398087 0.0211186,-0.0180766 0.0171503,-0.0315089 -0.0118925,-0.0403657 -0.0444843,-0.0719936 -0.0841991,-0.0893191 -0.0243484,-0.0106219 -0.0515823,-0.0159861 -0.0783655,-0.0147405 -0.0275406,0.00127688 -0.0546806,0.00943891 -0.0780087,0.0258381 -0.0324165,0.0227648 -0.0571405,0.0607708 -0.0647892,0.117436 -0.00860018,0.0636501 0.0128627,0.103046 0.046168,0.123526 0.0215943,0.0133009 0.0477203,0.0178012 0.0734708,0.0153789 0.0246739,-0.00237851 0.0494729,-0.0112541 0.0695212,-0.0249555 0.0347262,-0.0237725 0.0560138,-0.061572 0.0428131,-0.106194 -0.0128815,-0.0435955 -0.036967,-0.0644199 -0.0633997,-0.0706166 -0.000688515,-0.000175258 -0.00139581,-0.000281665 -0.00209684,-0.000413109 -0.012362,-0.00251621 -0.0248303,-0.00171503 -0.036604,0.00158358 -0.0116422,0.0032548 -0.0226709,0.00893817 -0.0322413,0.0161425 -0.0250682,0.018834 -0.0414861,0.0495731 -0.0360406,0.0771575 0.00272902,0.0137453 0.01608,0.0226834 0.029819,0.0199294 0.0137327,-0.00272902 0.0226709,-0.01608 0.0199419,-0.0298127 -0.00152725,-0.00771763 0.00596504,-0.0185148 0.0167059,-0.0265892 0.00486968,-0.00364913 0.0101963,-0.00646578 0.0156293,-0.00799303 0.0042062,-0.00115796 0.00843118,-0.00152099 0.0122994,-0.000832477l0.000945143 0.000250369c0.00988958,0.00231591 0.0196665,0.0126624 0.0264828,0.0357151 0.00588367,0.0198543 -0.00522019,0.0377744 -0.0228149,0.0497984 -0.0130442,0.00893191 -0.0293933,0.0147405 -0.0458113,0.0163115 -0.0153664,0.00147092 -0.0304261,-0.000882551 -0.042037,-0.00804936 -0.0171628,-0.0105593 -0.0278786,-0.0335807 -0.0224831,-0.0735271 0.00553316,-0.0409166 0.0221264,-0.0675057 0.0436143,-0.0826155 0.0151661,-0.0106469 0.0330049,-0.0159485 0.0512318,-0.0167998 0.0189404,-0.000882551 0.0382939,0.00296687 0.0557071,0.0105468 0.0267895,0.0116985 0.0485027,0.0320159 0.0559011,0.0572093zm-0.412301 -0.246676c0.00397461,0.013426 0.0180641,0.0210998 0.0314902,0.017144 0.0134073,-0.00398087 0.0211186,-0.0180766 0.0171503,-0.0315089 -0.0118925,-0.0403657 -0.0444843,-0.0719936 -0.0841991,-0.0893191 -0.0243484,-0.0106219 -0.0515823,-0.0159861 -0.0783655,-0.0147405 -0.0275406,0.00127688 -0.0546806,0.00943891 -0.0780087,0.0258381 -0.0324165,0.0227648 -0.0571405,0.0607708 -0.0647892,0.117436 -0.00860018,0.0636501 0.0128627,0.103046 0.046168,0.123526 0.0215943,0.0133009 0.0477203,0.0178012 0.0734708,0.0153789 0.0246739,-0.00237851 0.0494729,-0.0112541 0.0695212,-0.0249555 0.0347262,-0.0237725 0.0560138,-0.061572 0.0428131,-0.106194 -0.0128815,-0.0435955 -0.036967,-0.0644199 -0.0633997,-0.0706166 -0.000688515,-0.000175258 -0.00139581,-0.000281665 -0.00209684,-0.000413109 -0.012362,-0.00251621 -0.0248303,-0.00171503 -0.036604,0.00158358 -0.0116422,0.0032548 -0.0226709,0.00893817 -0.0322413,0.0161425 -0.0250682,0.018834 -0.0414861,0.0495731 -0.0360406,0.0771575 0.00272902,0.0137453 0.01608,0.0226834 0.029819,0.0199294 0.0137327,-0.00272902 0.0226709,-0.01608 0.0199419,-0.0298127 -0.00152725,-0.00771763 0.00596504,-0.0185148 0.0167059,-0.0265892 0.00486968,-0.00364913 0.0101963,-0.00646578 0.0156293,-0.00799303 0.0042062,-0.00115796 0.00843118,-0.00152099 0.0122994,-0.000832477l0.000945143 0.000250369c0.00988958,0.00231591 0.0196665,0.0126624 0.0264828,0.0357151 0.00588367,0.0198543 -0.00522019,0.0377744 -0.0228149,0.0497984 -0.0130442,0.00893191 -0.0293933,0.0147405 -0.0458113,0.0163115 -0.0153664,0.00147092 -0.0304261,-0.000882551 -0.042037,-0.00804936 -0.0171628,-0.0105593 -0.0278786,-0.0335807 -0.0224831,-0.0735271 0.00553316,-0.0409166 0.0221264,-0.0675057 0.0436143,-0.0826155 0.0151661,-0.0106469 0.0330049,-0.0159485 0.0512318,-0.0167998 0.0189404,-0.000882551 0.0382939,0.00296687 0.0557071,0.0105468 0.0267895,0.0116985 0.0485027,0.0320159 0.0559011,0.0572093zm0.415218 -0.760239c0.0120365,0.00713552 0.0275907,0.00315465 0.0347262,-0.0088881 0.00713552,-0.0120365 0.00315465,-0.0275969 -0.0088881,-0.0347324 -0.0362034,-0.0214754 -0.0816015,-0.0224456 -0.122487,-0.0081057 -0.0250619,0.00879421 -0.048653,0.0234095 -0.0674306,0.042569 -0.0192972,0.019679 -0.0336183,0.0441275 -0.0395458,0.0720249 -0.00823714,0.0387509 -0.000450664,0.083423 0.0325104,0.130123 0.0370358,0.0524773 0.0795861,0.0667108 0.117924,0.0590495 0.0248616,-0.00496983 0.0470819,-0.0194537 0.0642635,-0.0387696 0.0164805,-0.0185336 0.0285859,-0.0419243 0.0339313,-0.0656155 0.00926365,-0.0410668 -0.00088881,-0.0832227 -0.0409416,-0.106926 -0.0390951,-0.0231341 -0.0709358,-0.0220012 -0.0945018,-0.00855636 -0.000632182,0.000356776 -0.00123307,0.000732329 -0.00182143,0.00113918 -0.0107659,0.00656593 -0.0193473,0.0156355 -0.0257379,0.0260822 -0.0063093,0.0103027 -0.0105092,0.0219761 -0.0126186,0.0337685 -0.00553316,0.0308705 0.0033612,0.0645514 0.026126,0.081057 0.0113605,0.00819959 0.0272214,0.00565208 0.035421,-0.00570841 0.00820584,-0.0113542 0.00565834,-0.0272214 -0.00570215,-0.035421 -0.00637815,-0.00461931 -0.00823088,-0.0176385 -0.00585864,-0.030858 0.00106407,-0.0059713 0.00307328,-0.0116735 0.0060026,-0.0164618 0.00227836,-0.0037305 0.00513256,-0.00687889 0.00843744,-0.00900703l0.000857514 -0.000463183c0.00883177,-0.00503242 0.0230339,-0.00411857 0.0437332,0.00813699 0.0178075,0.010528 0.0218823,0.0312273 0.0171878,0.0520016 -0.00347387,0.015429 -0.0114857,0.0308079 -0.0224518,0.0431261 -0.0102589,0.0115483 -0.0228837,0.0200733 -0.0362722,0.022746 -0.0197666,0.00394957 -0.0432763,-0.00562078 -0.0665168,-0.0385443 -0.0238164,-0.0337435 -0.0297751,-0.0645076 -0.0243046,-0.0902267 0.00384942,-0.0181142 0.0133009,-0.0341441 0.0260697,-0.0471695 0.0132821,-0.0135512 0.0300756,-0.0239228 0.0479895,-0.030207 0.0275781,-0.00967676 0.0573095,-0.0095641 0.079899,0.00383691z"/>
   <polygon id="_208911728" class="fil0" points="3.07344,4.36112 4.17389,4.56569 3.0946,4.53041 "/>
   <circle id="_208908224" class="fil2" cx="6.85848" cy="3.66725" r="0.170908"/>
   <circle id="_208912880" class="fil2" cx="6.52899" cy="3.80645" r="0.059907"/>
   <ellipse id="_208912088" class="fil2" cx="3.24112" cy="4.00199" rx="0.121576" ry="0.162101"/>
   <circle id="_208911536" class="fil2" cx="3.41773" cy="4.22903" r="0.0795697"/>
   <circle id="_208910864" class="fil6" cx="2.03596" cy="2.20305" r="0.0916225"/>
   <circle id="_208910168" class="fil6" cx="2.24211" cy="2.07443" r="0.0440462"/>
   <circle id="_208913144" class="fil6" cx="2.20864" cy="2.47087" r="0.0352394"/>
   <circle id="_208911824" class="fil2" cx="6.50256" cy="5.42217" r="0.206148"/>
   <circle id="_208913408" class="fil2" cx="6.56247" cy="5.07683" r="0.0405222"/>
   <circle id="_208913504" class="fil2" cx="6.05502" cy="4.94996" r="0.0369983"/>
   <circle id="_208913600" class="fil2" cx="5.5141" cy="5.34994" r="0.0880986"/>
   <circle id="_208913696" class="fil2" cx="5.31808" cy="5.26586" r="0.0470256"/>
   <circle id="_208913792" class="fil6" cx="6.68052" cy="3.22852" r="0.123338"/>
   <circle id="_208913888" class="fil6" cx="6.82676" cy="3.02237" r="0.0475701"/>
   <circle id="_208913984" class="fil6" cx="8.03372" cy="2.17134" r="0.155054"/>
   <circle id="_208914080" class="fil6" cx="7.7888" cy="1.97576" r="0.0581419"/>
   <circle id="_208914176" class="fil2" cx="2.64736" cy="2.63121" r="0.160336"/>
   <circle id="_208914272" class="fil2" cx="2.52932" cy="2.2242" r="0.0563831"/>
   <circle id="_208914368" class="fil2" cx="3.6834" cy="5.28474" r="0.107477"/>
   <circle id="_208914464" class="fil2" cx="3.81556" cy="5.08564" r="0.0422873"/>
   <circle id="_208914560" class="fil6" cx="3.80138" cy="3.89281" r="0.105718"/>
   <circle id="_208914656" class="fil6" cx="3.95299" cy="4.0496" r="0.0422873"/>
   <circle id="_208914752" class="fil6" cx="3.76445" cy="4.27689" r="0.0475701"/>
   <polygon id="_208914848" class="fil0" points="6.13783,2.50259 6.35128,2.66689 6.43385,2.88317 6.43047,2.60622 6.22593,2.39335 "/>
   <path id="_208914944" class="fil0" d="M6.31933 2.2376l0.249756 0.204026 -0.175884 -0.286691c0,0 -0.0756302,0.0809067 -0.0738714,0.0826656z"/>
  </g>
  <rect class="fil12" width="10.1342" height="11.0658"/>
 </g>
</svg>
