<?xml version="1.0" encoding="UTF-8"?>
<!DOCTYPE svg PUBLIC "-//W3C//DTD SVG 1.1//EN" "http://www.w3.org/Graphics/SVG/1.1/DTD/svg11.dtd">
<!-- Creator: CorelDRAW 2020 (64-Bit) -->
<svg xmlns="http://www.w3.org/2000/svg" xml:space="preserve" width="161.909mm" height="176.792mm" version="1.1" style="shape-rendering:geometricPrecision; text-rendering:geometricPrecision; image-rendering:optimizeQuality; fill-rule:evenodd; clip-rule:evenodd"
viewBox="0 0 980.35 1070.47"
 xmlns:xlink="http://www.w3.org/1999/xlink"
 xmlns:xodm="http://www.corel.com/coreldraw/odm/2003">
 <defs>
  <style type="text/css">
   <![CDATA[
    .fil0 {fill:none}
    .fil1 {fill:#501D33}
    .fil3 {fill:#625B6D}
    .fil2 {fill:#878490}
    .fil7 {fill:#B1B1B4}
    .fil8 {fill:#D49293}
    .fil6 {fill:#D77D75}
    .fil4 {fill:#FFCFA5}
    .fil5 {fill:white}
    .fil10 {fill:#501D33;fill-rule:nonzero}
    .fil9 {fill:#D77D75;fill-rule:nonzero}
   ]]>
  </style>
 </defs>
 <g id="Слой_x0020_1">
  <metadata id="CorelCorpID_0Corel-Layer"/>
  <g id="_646417568">
   <rect class="fil0" width="980.35" height="1070.47"/>
   <g>
    <path class="fil1" d="M267.89 111.84c-101.08,45.36 -183.94,220.69 -191.33,313.05 -8.46,105.8 -7.15,170.19 54.56,299.45 0,0 13.93,26.03 59.79,14.87 21.36,3.45 40.34,-5.11 50.16,-19.19 0.24,-0.34 26.14,-2.8 38.44,-14.78 5.58,-5.43 9.12,-10.26 7.12,-20.14 -2.63,-12.94 -6.5,-28.78 -6.5,-28.78 0,0 22.81,-22.74 19.07,-32.41 -3.73,-9.67 -50.38,-50.1 -50.45,-50.48 -32.01,-146.76 -0.62,-271.95 83.23,-373.07l67.36 -89.2c-33.84,-9.99 -95.57,-15.41 -131.46,0.69z"/>
    <path class="fil1" d="M713.75 111.84c101.08,45.36 183.94,220.69 191.33,313.05 8.46,105.8 7.15,170.19 -54.56,299.45 0,0 -13.93,26.03 -59.79,14.87 -21.36,3.45 -40.34,-5.11 -50.16,-19.19 -0.24,-0.34 -26.14,-2.8 -38.44,-14.78 -5.58,-5.43 -9.12,-10.26 -7.12,-20.14 2.63,-12.94 6.5,-28.78 6.5,-28.78 0,0 -22.81,-22.74 -19.07,-32.41 3.73,-9.67 50.38,-50.1 50.45,-50.48 32.01,-146.76 0.62,-271.95 -83.23,-373.07l-67.36 -89.2c33.84,-9.99 95.57,-15.41 131.46,0.69z"/>
    <path class="fil1" d="M308.31 554.12c-18.28,-108.66 -27.71,-291.81 -38.7,-377.95 19.21,-79.11 170.33,-54.85 221.81,-44.15 51.48,-10.7 202.6,-34.96 221.81,44.15 -10.84,85 -18.83,266.02 -36.61,374.97 -66.79,21.21 -130.63,28.47 -185.99,28.36 -42,-0.08 -139.49,-8.44 -182.32,-25.37z"/>
    <path class="fil2" d="M322.65 550.62c-17.84,-115.94 -30.96,-246.08 -38.35,-361.87 15.01,-61.8 110.97,-93.01 206.99,-93.18l0 -0 0.13 0 0.13 -0 0 0c96.02,0.17 191.98,31.38 206.99,93.18 -7.32,114.72 -20.26,243.54 -37.86,358.67 -141.25,43.67 -287.84,15.39 -338.04,3.2z"/>
    <path class="fil3" d="M480.41 567.14c0,0 3.24,-98.01 4.26,-109.6 1.02,-11.59 7.67,105.17 7.67,105.17 0,0 -8.86,6.14 -11.93,4.43z"/>
    <path class="fil3" d="M322.65 550.62c-14.46,-93.97 -25.82,-197.28 -33.53,-294.71 0.93,-4.32 0.22,-6.85 0.93,-7.12 12.36,83.37 26.76,178.7 43.29,257.45 11.37,54.2 60.02,56.42 160.72,53.29 93.77,-2.92 154.11,-8.35 162.32,-87.06l37.43 -231.69c0,0 0.51,-2.27 1.39,3.59 -7.63,97.31 -20.1,208.84 -34.5,303.04 -141.25,43.67 -287.84,15.4 -338.04,3.2z"/>
    <path class="fil4" d="M612.51 123.64l-7.39 -10.23c5.12,-0.23 10.07,-0.42 14.87,-0.55 -2.45,3.34 -4.97,6.95 -7.48,10.78zm209.88 122.37c37.7,61.25 60.43,127.57 68.91,195.43 12.5,100.07 -6.59,187.81 -52.9,278.53 0,0 -5.62,16.56 -41.06,12.46 0,0 10.31,-18.23 9.61,-19.81 -0.7,-1.57 -17.96,18.32 -17.96,18.32 0,0 -21.8,0.08 -39.61,-15.28 0,0 -0.07,-24.63 -1.62,-24.57 -1.55,0.06 -6.5,18.24 -6.5,18.24l-23.28 -6.15c-10.64,-5 -13.96,-5.8 -11.07,-18.97 2.21,-10.06 5.89,-27.04 13.99,-55.53 -2.24,-2.64 -7.65,9.74 -11.61,16.54 0,0 -12.75,-14.07 -12.2,-18.87 0.54,-4.8 45.18,-39.5 45.18,-39.5 29.18,-91.55 18.78,-197.5 -12.91,-281.67 18.88,6.6 29.7,16.03 29.7,16.03 5.11,-16.7 7.15,-32.73 7.15,-32.73 18.06,9.2 25.57,15.34 25.57,15.34 5.45,-22.67 3.4,-33.92 3.4,-33.92 14.83,6.13 23.02,14.49 23.02,14.49 3.04,-16.87 5.19,-27.76 4.19,-38.39z"/>
    <path class="fil5" d="M822.47 245.75c37.7,61.25 60.34,127.82 68.83,195.68 12.5,100.07 -6.59,187.81 -52.9,278.53 0,0 -0.48,1.4 -2.03,3.28 -10.24,-1.43 -20.59,-3.75 -30.74,-6.63 0.93,-2.05 1.5,-3.59 1.32,-3.99 -0.21,-0.47 -1.87,0.95 -4.11,3.18 -19.74,-5.82 -38.6,-13.65 -54.17,-20.99 -0.22,-2.26 -0.51,-3.75 -0.9,-3.73 -0.34,0.01 -0.81,1.06 -1.32,2.68 -20.52,-9.79 -34.87,-18.46 -37.23,-19.91l0.02 -0.09c45.38,15.59 121.99,23.39 121.99,23.39 74.82,-153.92 61.57,-308.71 -7.75,-433.99 0.06,-5.96 -0.57,-12.83 -1,-17.41z"/>
    <path class="fil6" d="M830.08 259.37c-0.24,10.61 -1.6,25.16 -6.26,39.33l-19.09 -10.91c0,0 0,14.32 -9.54,33.06l-9.2 -6.14c0,0 -3.37,7.75 -8.65,14.9l-2.89 -10.89c0,0 -12.25,17.86 -23.31,22.63l-20.4 -32.47c-0.45,-1.24 -0.91,-2.48 -1.37,-3.71 18.88,6.6 29.7,16.03 29.7,16.03 5.11,-16.7 7.15,-32.73 7.15,-32.73 18.06,9.2 25.57,15.34 25.57,15.34 5.45,-22.67 3.4,-33.92 3.4,-33.92 14.83,6.13 23.02,14.49 23.02,14.49 3.04,-16.87 4.18,-28.76 4.03,-39.56 3.76,6.11 4.33,8.23 7.85,14.53z"/>
    <path class="fil6" d="M744.96 312c37.96,78.73 73.02,220.13 -35.33,386.88 -3.83,-2.68 -4.64,-5.98 -2.73,-14.68 2.21,-10.06 5.89,-27.04 13.99,-55.53 -2.24,-2.64 -7.65,9.74 -11.61,16.54 0,0 -12.75,-14.07 -12.2,-18.87 0.54,-4.8 45.18,-39.5 45.18,-39.5 29.18,-91.55 18.78,-197.5 -12.91,-281.67 6.06,2.12 11.29,4.53 15.6,6.82z"/>
    <g>
     <path class="fil2" d="M703.58 249.65l-98.47 -136.24c67.06,-2.96 105.6,-0.05 154.42,50.01 19.7,20.2 37.82,43.32 53.97,68.34 0.48,9.79 0.15,22.01 -2.29,35.58 0,0 -13.29,-11.93 -28.29,-17.04 0,0 4.09,13.63 2.73,37.84 0,0 -10.57,-8.52 -28.63,-17.72 0,0 1.02,18.41 -4.09,35.11 0,0 -10.87,-9.48 -29.84,-16.08 -5.93,-14.04 -12.46,-27.37 -19.5,-39.78z"/>
     <path class="fil7" d="M719.78 131.37c13.01,7.55 25.97,17.91 39.75,32.05 19.7,20.2 37.82,43.32 53.97,68.34 0.21,4.22 -1.78,31.38 -1.98,36.4 -23.44,-49.83 -49.12,-91.63 -91.74,-136.79z"/>
     <path class="fil3" d="M703.58 249.65c-2.07,-2.86 -8.34,-11.18 -8.15,-11.27 1.88,-1.88 44.69,21.34 56.95,67.31 -3.8,-1.89 -24.35,-14.53 -29.3,-16.25 -5.93,-14.04 -12.46,-27.37 -19.5,-39.78z"/>
    </g>
    <path class="fil1" d="M864.9 376.79c45.2,-5.1 56.86,44.74 16.98,61.42l-16.98 -61.42z"/>
    <path class="fil4" d="M881.87 438.47c14.74,-22.97 15.12,-48.36 -16.96,-62.04 0,0 -9.13,45.05 16.96,62.04z"/>
    <path class="fil5" d="M880.34 440.36c17.85,-22.74 18.05,-50.83 -16.59,-64.61 13.77,9.21 25.13,38.41 15.98,62.73l0.61 1.88z"/>
    <path class="fil5" d="M866.7 385.29c-3.94,2.45 -3.9,9.65 0.09,16.07 4,6.42 10.43,9.64 14.38,7.19 3.94,-2.45 3.9,-9.65 -0.1,-16.07 -4,-6.42 -10.43,-9.64 -14.38,-7.19z"/>
    <path class="fil4" d="M705.45 626.55c0,0 7.32,-15.14 26.03,-24.67 18.71,-9.53 -12.93,25.01 -26.03,24.67z"/>
    <path class="fil6" d="M840.39 716c-0.66,1.32 -1.32,2.65 -2,3.97 0,0 -5.62,16.56 -41.06,12.46 0,0 10.3,-18.23 9.6,-19.81 -0.7,-1.58 -17.96,18.32 -17.96,18.32 0,0 -21.8,0.08 -39.61,-15.29 0,0 -0.07,-24.63 -1.62,-24.58 -1.55,0.06 -5.31,20.11 -5.31,20.11 -12.01,-1.6 -25.8,-5.98 -33.89,-13.15 -2.9,-2.56 -3.37,-6.03 -1.66,-13.85 0.74,-3.36 1.63,-7.48 2.81,-12.54 67.21,30.19 110.18,40.71 130.68,44.34z"/>
    <path class="fil6" d="M836.67 398.91c0,0 0,22.5 30.34,34.77 0,0 -20.11,-0.68 -28.63,-8.86 -8.52,-8.18 -1.7,-25.9 -1.7,-25.9z"/>
    <path class="fil1" d="M760.87 286.01c0,0 6.49,14.1 7.48,30.05 0,0 6.92,-19.87 6,-28.65 -0.92,-8.78 -12.75,-10.49 -13.47,-1.4z"/>
    <path class="fil4" d="M369.13 123.64l7.39 -10.23c-5.12,-0.23 -10.07,-0.42 -14.87,-0.55 2.45,3.34 4.97,6.95 7.48,10.78zm-210.64 124.24c-37.7,61.25 -59.67,125.7 -68.15,193.56 -12.5,100.07 6.59,187.81 52.9,278.53 0,0 5.62,16.56 41.06,12.46 0,0 -10.31,-18.23 -9.61,-19.81 0.7,-1.57 17.96,18.32 17.96,18.32 0,0 21.8,0.08 39.61,-15.28 0,0 0.07,-24.63 1.62,-24.57 1.55,0.06 6.5,18.24 6.5,18.24l23.28 -6.15c10.64,-5 13.96,-5.8 11.07,-18.97 -2.21,-10.06 -5.89,-27.04 -13.99,-55.53 2.24,-2.64 7.65,9.74 11.61,16.54 0,0 12.75,-14.07 12.2,-18.87 -0.54,-4.8 -45.18,-39.5 -45.18,-39.5 -29.18,-91.55 -18.78,-197.5 12.91,-281.67 -18.88,6.6 -29.7,16.03 -29.7,16.03 -5.11,-16.7 -7.15,-32.73 -7.15,-32.73 -18.06,9.2 -25.57,15.34 -25.57,15.34 -5.45,-22.67 -3.4,-33.92 -3.4,-33.92 -14.83,6.13 -23.02,14.49 -23.02,14.49 -3.38,-13.81 -5.95,-25.89 -4.95,-36.52z"/>
    <path class="fil5" d="M158.32 247.7c-37.7,61.25 -59.5,125.88 -67.98,193.73 -12.5,100.07 6.59,187.81 52.9,278.53 0,0 0.48,1.4 2.02,3.28 10.24,-1.43 20.59,-3.75 30.74,-6.63 -0.93,-2.05 -1.5,-3.59 -1.32,-3.99 0.21,-0.47 1.87,0.95 4.11,3.18 19.74,-5.82 38.6,-13.65 54.17,-20.99 0.22,-2.26 0.51,-3.75 0.9,-3.73 0.34,0.01 0.81,1.06 1.32,2.68 20.52,-9.79 34.87,-18.46 37.23,-19.91l-0.02 -0.09c-45.38,15.59 -121.99,23.39 -121.99,23.39 -74.82,-153.92 -60.89,-309.72 8.43,-435.01 -0.06,-5.96 -0.96,-9.87 -0.53,-14.45z"/>
    <path class="fil6" d="M151.21 260.09c-0.19,11.84 0.98,29.87 8.28,44.07 0,0 6.48,-8.86 15,-12.61 0,0 -0.34,19.77 10.57,31.7l12.61 -10.23c0,0 1.36,15 6.82,22.84l13.97 -8.86 11.25 17.72 11.93 -7.72c3.21,-10.89 6.76,-21.52 10.64,-31.82 -18.88,6.6 -29.7,16.03 -29.7,16.03 -5.11,-16.7 -7.15,-32.73 -7.15,-32.73 -18.06,9.2 -25.57,15.34 -25.57,15.34 -5.45,-22.67 -3.4,-33.92 -3.4,-33.92 -14.83,6.13 -23.02,14.49 -23.02,14.49 -3.38,-13.81 -5.95,-25.89 -4.95,-36.52 -2.5,4.06 -4.92,8.13 -7.28,12.21z"/>
    <path class="fil6" d="M236.68 312c-37.96,78.73 -73.02,220.13 35.33,386.88 3.83,-2.68 4.64,-5.98 2.73,-14.68 -2.21,-10.06 -5.89,-27.04 -13.99,-55.53 2.24,-2.64 7.65,9.74 11.61,16.54 0,0 12.75,-14.07 12.2,-18.87 -0.54,-4.8 -45.18,-39.5 -45.18,-39.5 -29.18,-91.55 -18.78,-197.5 12.91,-281.67 -6.06,2.12 -11.29,4.53 -15.6,6.82z"/>
    <path class="fil2" d="M278.06 249.65l98.47 -136.24c-67.06,-2.96 -105.6,-0.05 -154.42,50.01 -19.7,20.2 -37.82,43.32 -53.97,68.34 -0.48,9.79 -0.15,22.01 2.29,35.58 0,0 13.29,-11.93 28.29,-17.04 0,0 -4.09,13.63 -2.73,37.84 0,0 10.57,-8.52 28.63,-17.72 0,0 -1.02,18.41 4.09,35.11 0,0 10.87,-9.48 29.84,-16.08 5.93,-14.04 12.46,-27.37 19.5,-39.78z"/>
    <path class="fil7" d="M285.22 239.74l3.04 -4.21c6.17,-47.32 -13.35,-96.98 -18.26,-108.51 -4.37,2.14 -8.71,4.58 -13.07,7.34 7.03,17.1 24.2,62.33 28.28,105.38z"/>
    <path class="fil7" d="M695.42 244.35c-13.05,-37.12 -1.67,-83.57 13.35,-118.85 4.37,2.14 8.71,4.58 13.07,7.34 -7.03,17.1 -22.33,68.46 -26.41,111.5z"/>
    <path class="fil8" d="M310.51 112.13c2.57,-0.65 5.24,-1.65 7.97,-3.31 35.47,124.44 136.76,225.32 157.83,245.31l-1.58 6.34c-123.35,-87.37 -160.33,-231.77 -164.23,-248.34z"/>
    <path class="fil7" d="M261.86 131.37c-13.01,7.55 -25.97,17.91 -39.75,32.05 -19.7,20.2 -37.82,43.32 -53.97,68.34 -0.21,4.22 0.08,28.62 2.49,35.86 11.98,-41.68 44.05,-94.59 91.23,-136.24z"/>
    <path class="fil3" d="M278.06 249.65l2.46 -3.4c-0.65,-0.36 -1.29,-0.77 -1.94,-1.09 0,0 -35.8,13.78 -47.11,50.66 3.8,-1.89 22.14,-4.66 27.09,-6.38 5.93,-14.04 12.46,-27.37 19.5,-39.78z"/>
    <path class="fil1" d="M116.74 376.79c-45.2,-5.1 -56.86,44.74 -16.98,61.42l16.98 -61.42z"/>
    <path class="fil4" d="M99.77 438.47c-14.74,-22.97 -15.12,-48.36 16.96,-62.04 0,0 9.13,45.05 -16.96,62.04z"/>
    <path class="fil5" d="M101.3 440.36c-17.85,-22.74 -18.05,-50.83 16.59,-64.61 -13.77,9.21 -25.13,38.41 -15.98,62.73l-0.62 1.88z"/>
    <path class="fil5" d="M114.94 385.29c3.94,2.45 3.9,9.65 -0.09,16.07 -4,6.42 -10.43,9.64 -14.38,7.19 -3.94,-2.45 -3.9,-9.65 0.1,-16.07 4,-6.42 10.43,-9.64 14.38,-7.19z"/>
    <path class="fil4" d="M276.19 626.55c0,0 -7.32,-15.14 -26.03,-24.67 -18.71,-9.53 12.93,25.01 26.03,24.67z"/>
    <path class="fil6" d="M141.25 716c0.66,1.32 1.32,2.65 2,3.97 0,0 5.62,16.56 41.06,12.46 0,0 -10.3,-18.23 -9.6,-19.81 0.7,-1.58 17.96,18.32 17.96,18.32 0,0 21.8,0.08 39.61,-15.29 0,0 0.07,-24.63 1.62,-24.58 1.55,0.06 5.31,20.11 5.31,20.11 12.01,-1.6 25.8,-5.98 33.89,-13.15 2.9,-2.56 3.37,-6.03 1.66,-13.85 -0.74,-3.36 -1.63,-7.48 -2.81,-12.54 -67.21,30.19 -110.18,40.71 -130.68,44.34z"/>
    <path class="fil6" d="M144.97 398.91c0,0 0,22.5 -30.34,34.77 0,0 20.11,-0.68 28.63,-8.86 8.52,-8.18 1.7,-25.9 1.7,-25.9z"/>
    <path class="fil1" d="M220.77 286.01c0,0 -6.49,14.1 -7.48,30.05 0,0 -6.92,-19.87 -6,-28.65 0.92,-8.78 12.75,-10.49 13.47,-1.4z"/>
    <path class="fil3" d="M441.28 382.17c-18.42,-16.34 -35.33,-34.56 -50.86,-53.66 -49.4,-60.75 -85.26,-132.15 -105,-207.9 185.85,-52.5 361.79,-12.21 422.68,5.26l-9.13 19.63c-13.89,29.87 -31.33,58.79 -49.29,86.39 -38.51,59.17 -84.81,115.69 -139.2,160.96 -6.58,5.47 -16.48,14.15 -25.22,14.63 -15.29,0.83 -33.21,-15.74 -43.98,-25.3z"/>
    <path class="fil1" d="M441.28 370.25c-18.42,-16.34 -35.33,-34.56 -50.86,-53.66 -49.4,-60.75 -85.26,-132.15 -105,-207.9 185.85,-52.5 361.79,-12.21 422.68,5.26l-9.13 19.63c-13.89,29.87 -31.33,58.79 -49.29,86.39 -38.51,59.17 -84.81,115.69 -139.2,160.96 -6.58,5.47 -16.48,14.15 -25.22,14.63 -15.29,0.83 -33.21,-15.74 -43.98,-25.3z"/>
    <path class="fil2" d="M446.9 363.91c-18,-15.98 -34.73,-34.01 -49.91,-52.66 -48.67,-59.85 -83.98,-130.19 -103.41,-204.82 161.36,-44.88 297.73,-7.78 374.08,8.79l28.37 4.57 -4.75 10.23c-13.39,28.79 -31.46,58.84 -48.71,85.34 -37.95,58.31 -83.94,114.48 -137.52,159.07 -4.51,3.75 -14.36,12.36 -20.26,12.68 -10.54,0.57 -24.66,-11.44 -37.9,-23.18z"/>
    <circle class="fil1" cx="337.16" cy="195.36" r="6.38"/>
    <circle class="fil1" cx="373.03" cy="263.27" r="6.38"/>
    <circle class="fil1" cx="398.59" cy="296" r="6.38"/>
    <circle class="fil1" cx="426.15" cy="330.19" r="6.38"/>
    <path class="fil7" d="M316.47 112.37c47.47,172.87 161.66,261.32 166.32,261.32 2.87,-2.35 6.3,-4.56 9.11,-6.98 41.83,-35.93 79.54,-77.15 107.56,-116.33 48.92,-68.41 73.17,-128.53 73.17,-128.53 -90.8,-14.1 -360.44,-25.08 -356.15,-9.49z"/>
    <path class="fil1" d="M316.47 112.13c47.47,167.51 161.66,253.22 166.32,253.22 2.87,-2.28 6.3,-4.42 9.11,-6.76 114.86,-95.61 180.73,-237.27 180.73,-237.27 -90.8,-13.66 -360.44,-24.3 -356.15,-9.19z"/>
    <path class="fil4" d="M327.97 106.99c13.88,54.28 35.81,98.02 58.89,134.36 -0.34,-0.1 -0.69,-0.2 -1.02,-0.3 42.79,70.12 95.55,109.21 98.28,109.21 36.83,-29.3 79.15,-74.11 102.9,-110.6 -0.35,0.11 -0.7,0.21 -1.05,0.32 44.77,-61.16 68.89,-112.77 68.89,-112.77 0,0 -130.85,-25.19 -168.07,-28.91 -37.23,-3.72 -158.83,8.69 -158.83,8.69z"/>
    <path class="fil9" d="M386.91 242.79c23.67,15.42 50.77,27.52 80.11,34.66 6.58,1.6 13.28,2.95 20.08,4.03 30.01,-4.38 60.35,-12.72 87.5,-24.16 -3.3,4.38 -6.79,8.82 -10.43,13.29 -15.01,5.56 -30.73,10.21 -46.67,13.84 11.82,0.43 23.87,0.03 36.07,-1.29 -2.71,3.11 -5.48,6.21 -8.3,9.3 -19.95,1.44 -39.46,0.52 -58.24,-2.38 -21.86,3.11 -43.54,4.17 -63.8,2.89 -2.47,-2.94 -4.96,-5.98 -7.46,-9.13 13.98,1.37 28.8,1.51 44,0.54 -22.21,-5.89 -43.13,-14.54 -62.24,-25.25 -3.58,-5.23 -7.13,-10.68 -10.61,-16.33z"/>
    <path class="fil6" d="M356.8 187.03c9.35,19.82 19.59,37.84 30.06,54.32 -0.34,-0.1 -0.69,-0.2 -1.02,-0.3 42.79,70.12 95.55,109.21 98.28,109.21 36.83,-29.3 79.15,-74.11 102.9,-110.6 -0.35,0.11 -0.7,0.21 -1.05,0.32 21.55,-29.44 38.32,-56.68 49.91,-77 -8.3,-12.44 -21.5,-15.57 -39.35,29.26 -32.04,80.44 -113.85,151.34 -113.85,151.34 -68.17,-58.63 -103.96,-142.48 -103.96,-142.48 0,0 -9.52,-7.39 -21.93,-14.09z"/>
    <path class="fil6" d="M327.97 106.99c9.39,36.69 22.45,68.57 37.06,96.6 72.69,43.91 172.81,44.08 245.73,0.55 28.83,-44.21 47.19,-84.09 47.19,-84.09 -116.77,-22.48 -207.82,-30.64 -329.97,-13.07z"/>
    <path class="fil7" d="M659.6 249.02c0,0 -35.71,82.74 -132.12,156.43 -16.9,12.92 -47.33,35.8 -1.01,13.26 26.23,-12.76 56.9,-29.99 79.46,-49.61 48.12,-41.86 53.66,-120.09 53.66,-120.09z"/>
    <path class="fil3" d="M680.8 340.69c0,0 -35.48,66.19 -124.86,111.9 0,0 66.87,-14.33 118.04,-48.44l2.05 -25.93 4.78 -37.53z"/>
    <path class="fil3" d="M321.57 498.33c6.37,19.87 101.26,2.89 112.46,2.89 5.55,0 -30.28,23.26 -101.2,36.67l-11.26 -39.56z"/>
    <path class="fil3" d="M495.23 399.25c0,0 -4.77,71.24 -10.23,72.94 -5.45,1.7 -12.61,-73.97 -12.61,-73.97l22.84 1.02z"/>
    <path class="fil1" d="M478.15 351.61c3.15,80.41 3.9,120.82 6.38,121.2 4.09,0.63 4.09,-38.65 7.26,-121.2l-13.65 0z"/>
    <path class="fil3" d="M315.76 245.17c0,0 36.85,83.24 104.39,137.14 0,0 -45.03,-25.93 -60.04,-42.3 -15.01,-16.38 -44.35,-94.84 -44.35,-94.84z"/>
    <g>
     <path class="fil1" d="M726.44 128.22c0,0 -23.32,39.88 -24.5,116.71 -0.07,4.24 -6.6,-1.94 -7.43,2.21 0,0 -3.16,-72.62 24.41,-126.72l8.59 3.34 -1.07 4.44z"/>
     <path class="fil1" d="M727.53 179.73c0,0 -14.54,-18.3 -40.6,-21.03 10.62,13.53 23.05,21.55 40.6,21.03z"/>
     <path class="fil1" d="M721.33 204.04c0,0 -23.23,-2.62 -43.55,13.91 17.08,2.03 31.53,-1.11 43.55,-13.91z"/>
    </g>
    <g>
     <path class="fil1" d="M250.82 136.75c0,0 27.75,39.54 28.93,116.37 0.06,4.24 6.6,-1.94 7.43,2.21 0,0 4.52,-71.6 -27.13,-126.38l-5.87 3 -3.36 4.78z"/>
     <path class="fil1" d="M251.87 183.33c0,0 6.9,-22.34 30.18,-34.34 -4.98,16.47 -13.64,28.45 -30.18,34.34z"/>
     <path class="fil1" d="M260.7 216.31c0,0 23.23,-2.62 43.55,13.91 -17.08,2.03 -31.53,-1.11 -43.55,-13.91z"/>
    </g>
    <g>
     <path class="fil1" d="M452.57 506.23c-3.82,-0.61 32.59,-46.63 66.85,-59.47 3.65,0.81 -22.06,29.62 -34.1,39.84 -12.04,10.23 -32.75,19.63 -32.75,19.63z"/>
     <path class="fil1" d="M519.52 506.23c3.82,-0.61 -32.59,-46.63 -66.85,-59.47 -3.65,0.81 22.06,29.62 34.1,39.84 12.04,10.23 32.75,19.63 32.75,19.63z"/>
    </g>
    <path class="fil10" d="M135.69 476.13c-1.16,0.69 -2.67,0.31 -3.36,-0.86 -0.69,-1.16 -0.31,-2.67 0.86,-3.36 3.5,-2.08 7.89,-2.17 11.85,-0.78 2.42,0.85 4.71,2.26 6.52,4.12 1.87,1.9 3.25,4.27 3.82,6.97 0.8,3.75 0.04,8.07 -3.14,12.59 -3.58,5.08 -7.7,6.45 -11.41,5.71 -2.41,-0.48 -4.55,-1.88 -6.22,-3.75 -1.59,-1.79 -2.76,-4.06 -3.28,-6.35 -0.9,-3.97 0.09,-8.05 3.96,-10.34 3.78,-2.24 6.86,-2.13 9.14,-0.83 0.06,0.03 0.12,0.07 0.18,0.11 1.04,0.63 1.87,1.51 2.49,2.52 0.61,1 1.02,2.13 1.22,3.27 0.53,2.99 -0.33,6.24 -2.53,7.84 -1.1,0.79 -2.63,0.55 -3.43,-0.55 -0.79,-1.1 -0.55,-2.63 0.55,-3.43 0.62,-0.45 0.8,-1.71 0.57,-2.99 -0.1,-0.58 -0.3,-1.13 -0.58,-1.59 -0.22,-0.36 -0.5,-0.67 -0.82,-0.87l-0.08 -0.04c-0.85,-0.49 -2.23,-0.4 -4.23,0.79 -1.72,1.02 -2.12,3.02 -1.66,5.03 0.34,1.49 1.11,2.98 2.17,4.17 0.99,1.12 2.21,1.94 3.51,2.2 1.91,0.38 4.19,-0.54 6.43,-3.73 2.3,-3.26 2.88,-6.24 2.35,-8.73 -0.37,-1.75 -1.29,-3.3 -2.52,-4.56 -1.28,-1.31 -2.91,-2.31 -4.64,-2.92 -2.67,-0.94 -5.54,-0.93 -7.73,0.37zm13.9 200.14c0.01,-1.16 31.85,4.85 66.48,-21.12 2.87,-2.15 3.6,-0.93 1.33,1.62 -33.97,38.28 -69.07,21.21 -67.81,19.5zm-3.86 -17.69c0,-1.16 31.85,4.85 66.48,-21.12 2.87,-2.15 3.6,-0.93 1.33,1.62 -33.97,38.28 -69.07,21.21 -67.81,19.5zm-1.53 -201.35c1.21,0.87 1.48,2.56 0.61,3.77 -0.87,1.21 -2.56,1.48 -3.77,0.61 -5.56,-4.02 -6.72,-9.42 -5.41,-14.28 0.64,-2.35 1.88,-4.54 3.48,-6.35 1.63,-1.84 3.64,-3.29 5.79,-4.13 4.14,-1.61 8.75,-1.07 12.31,3.09 0.33,0.39 0.67,0.82 0.99,1.3 1.52,2.22 2.48,4.87 2.66,7.34 0.2,2.82 -0.59,5.47 -2.66,7.24 -0.04,0.03 -0.08,0.07 -0.13,0.1 -0.15,0.12 -0.32,0.25 -0.5,0.37 -3.6,2.47 -7.12,2.13 -9.74,0.56 -0.97,-0.58 -1.81,-1.33 -2.47,-2.17 -0.68,-0.86 -1.18,-1.83 -1.48,-2.82 -0.71,-2.41 -0.23,-4.91 1.92,-6.57 1.18,-0.92 2.88,-0.7 3.79,0.48 0.92,1.18 0.7,2.88 -0.48,3.8 -0.15,0.12 -0.15,0.41 -0.05,0.76 0.1,0.33 0.28,0.67 0.54,1 0.27,0.34 0.61,0.65 1,0.88 0.99,0.58 2.38,0.66 3.91,-0.38 0.03,-0.02 0.07,-0.05 0.1,-0.08l0.05 -0.04c0.64,-0.55 0.87,-1.57 0.79,-2.75 -0.11,-1.54 -0.73,-3.22 -1.71,-4.66 -0.18,-0.26 -0.39,-0.54 -0.64,-0.83 -1.8,-2.1 -4.13,-2.38 -6.23,-1.56 -1.36,0.53 -2.65,1.46 -3.7,2.65 -1.08,1.21 -1.9,2.67 -2.32,4.2 -0.77,2.83 -0.03,6.02 3.35,8.47zm56.47 106.9c0.87,0.62 1.07,1.84 0.44,2.71 -0.63,0.87 -1.84,1.06 -2.71,0.44 -3.99,-2.88 -4.82,-6.75 -3.88,-10.23 0.45,-1.68 1.34,-3.26 2.5,-4.56 1.17,-1.32 2.61,-2.36 4.15,-2.96 2.97,-1.15 6.27,-0.77 8.82,2.21 0.24,0.28 0.47,0.59 0.71,0.93 1.09,1.59 1.78,3.49 1.9,5.26 0.14,2.02 -0.42,3.92 -1.91,5.2 -0.03,0.02 -0.06,0.05 -0.09,0.07 -0.11,0.09 -0.23,0.18 -0.36,0.27 -2.58,1.77 -5.1,1.53 -6.98,0.41 -0.69,-0.41 -1.3,-0.95 -1.77,-1.56 -0.48,-0.61 -0.85,-1.31 -1.06,-2.02 -0.51,-1.73 -0.16,-3.52 1.38,-4.71 0.85,-0.66 2.06,-0.5 2.72,0.34 0.66,0.85 0.5,2.07 -0.34,2.72 -0.11,0.08 -0.11,0.3 -0.03,0.55 0.07,0.24 0.2,0.48 0.39,0.72 0.19,0.24 0.44,0.47 0.72,0.63 0.71,0.42 1.7,0.48 2.8,-0.27 0.02,-0.02 0.05,-0.04 0.07,-0.06l0.04 -0.03c0.46,-0.39 0.63,-1.13 0.56,-1.97 -0.08,-1.1 -0.52,-2.31 -1.23,-3.34 -0.13,-0.19 -0.28,-0.39 -0.46,-0.6 -1.29,-1.5 -2.96,-1.7 -4.47,-1.12 -0.97,0.38 -1.9,1.05 -2.66,1.9 -0.77,0.87 -1.36,1.91 -1.66,3.01 -0.55,2.03 -0.02,4.32 2.4,6.07zm-73.96 -4.94c1.14,-0.31 2.3,0.36 2.61,1.49 0.31,1.13 -0.36,2.3 -1.49,2.61 -7.94,2.16 -13.85,-0.81 -17.36,-5.66 -1.74,-2.39 -2.87,-5.25 -3.35,-8.15 -0.48,-2.91 -0.32,-5.9 0.53,-8.57 1.59,-4.97 5.47,-8.77 11.89,-8.96 0.64,-0.02 1.3,0 1.98,0.06 3.24,0.25 6.46,1.36 8.9,3.06 2.67,1.86 4.47,4.45 4.55,7.51 0,0.05 0,0.09 0,0.14 0,0.24 -0.01,0.49 -0.03,0.74 -0.4,5.01 -3.21,7.9 -6.48,9.11 -1.22,0.46 -2.5,0.66 -3.73,0.65 -1.24,-0.02 -2.46,-0.26 -3.53,-0.7 -2.52,-1.03 -4.3,-3.12 -4.23,-6.01 0.03,-1.18 1,-2.11 2.18,-2.08 1.17,0.02 2.1,1.01 2.08,2.18 -0.02,0.89 0.64,1.59 1.58,1.97 0.58,0.24 1.26,0.37 1.98,0.38 0.74,0.01 1.49,-0.11 2.19,-0.37 1.86,-0.69 3.48,-2.41 3.72,-5.46 0.01,-0.1 0.01,-0.21 0.01,-0.31l-0 -0.09c-0.05,-1.58 -1.13,-3.02 -2.74,-4.15 -1.84,-1.28 -4.3,-2.12 -6.8,-2.32 -0.48,-0.04 -0.98,-0.05 -1.51,-0.04 -4.29,0.12 -6.89,2.67 -7.96,5.99 -0.64,2.01 -0.75,4.31 -0.37,6.58 0.38,2.28 1.25,4.5 2.59,6.35 2.56,3.53 6.89,5.67 12.79,4.06zm100.41 -60.15c-0.33,-1.26 0.43,-2.54 1.69,-2.87 1.26,-0.33 2.54,0.43 2.87,1.69 2.27,8.83 -1.11,15.33 -6.53,19.14 -2.68,1.89 -5.86,3.1 -9.07,3.58 -3.24,0.49 -6.55,0.27 -9.49,-0.72 -5.48,-1.83 -9.63,-6.18 -9.74,-13.3 -0.01,-0.7 0.02,-1.44 0.09,-2.19 0.33,-3.58 1.61,-7.13 3.53,-9.8 2.1,-2.93 5,-4.88 8.39,-4.93 0.05,-0.01 0.1,-0 0.15,-0 0.27,0 0.54,0.01 0.82,0.04 5.54,0.52 8.71,3.68 9.99,7.31 0.48,1.37 0.69,2.78 0.66,4.13 -0.04,1.38 -0.32,2.72 -0.83,3.91 -1.19,2.77 -3.53,4.72 -6.72,4.59 -1.31,-0.05 -2.33,-1.15 -2.27,-2.45 0.05,-1.3 1.15,-2.31 2.45,-2.26 0.99,0.03 1.77,-0.69 2.21,-1.72 0.27,-0.64 0.43,-1.39 0.44,-2.19 0.02,-0.81 -0.1,-1.65 -0.38,-2.44 -0.74,-2.07 -2.62,-3.89 -6,-4.2 -0.12,-0.01 -0.23,-0.02 -0.34,-0.01l-0.1 -0c-1.75,0.03 -3.36,1.2 -4.63,2.97 -1.45,2.02 -2.41,4.74 -2.68,7.5 -0.04,0.53 -0.07,1.09 -0.06,1.67 0.07,4.75 2.85,7.67 6.51,8.9 2.22,0.73 4.76,0.89 7.29,0.51 2.53,-0.38 5,-1.31 7.06,-2.77 3.94,-2.78 6.38,-7.55 4.69,-14.1zm-61.19 19.09c1.04,0.55 1.44,1.83 0.89,2.87 -0.54,1.04 -1.83,1.44 -2.87,0.89 -7.29,-3.82 -9.59,-10.02 -8.86,-15.97 0.36,-2.93 1.47,-5.79 3.1,-8.25 1.62,-2.46 3.78,-4.54 6.22,-5.92 4.55,-2.56 9.97,-2.7 14.81,1.53 0.48,0.42 0.95,0.89 1.41,1.39 2.2,2.39 3.8,5.39 4.43,8.3 0.69,3.18 0.24,6.3 -1.78,8.6 -0.03,0.03 -0.06,0.07 -0.09,0.1 -0.16,0.18 -0.34,0.35 -0.52,0.52 -3.7,3.4 -7.74,3.6 -10.95,2.26 -1.21,-0.5 -2.28,-1.22 -3.17,-2.06 -0.9,-0.86 -1.62,-1.86 -2.11,-2.92 -1.14,-2.47 -1.02,-5.22 0.99,-7.29 0.82,-0.84 2.17,-0.86 3.02,-0.03 0.84,0.82 0.86,2.17 0.04,3.01 -0.62,0.64 -0.61,1.6 -0.19,2.52 0.26,0.57 0.67,1.13 1.2,1.63 0.53,0.51 1.17,0.93 1.86,1.22 1.83,0.76 4.19,0.6 6.44,-1.47 0.07,-0.07 0.15,-0.14 0.22,-0.22l0.06 -0.07c1.04,-1.18 1.23,-2.98 0.82,-4.89 -0.47,-2.19 -1.71,-4.48 -3.4,-6.33 -0.33,-0.35 -0.69,-0.71 -1.08,-1.06 -3.23,-2.83 -6.86,-2.74 -9.91,-1.03 -1.83,1.03 -3.48,2.64 -4.75,4.56 -1.28,1.93 -2.15,4.15 -2.43,6.41 -0.53,4.32 1.19,8.85 6.6,11.69zm24.2 -46.71c1.04,0.55 1.44,1.83 0.89,2.87 -0.54,1.04 -1.83,1.44 -2.87,0.89 -7.29,-3.82 -9.59,-10.02 -8.86,-15.97 0.36,-2.93 1.47,-5.79 3.1,-8.25 1.62,-2.46 3.78,-4.54 6.22,-5.92 4.55,-2.56 9.97,-2.7 14.8,1.53 0.48,0.42 0.95,0.89 1.41,1.39 2.2,2.39 3.8,5.39 4.43,8.3 0.69,3.18 0.24,6.3 -1.78,8.6 -0.03,0.03 -0.06,0.07 -0.09,0.1 -0.16,0.18 -0.34,0.35 -0.52,0.52 -3.7,3.4 -7.74,3.6 -10.95,2.26 -1.2,-0.5 -2.28,-1.22 -3.17,-2.06 -0.9,-0.86 -1.62,-1.86 -2.11,-2.92 -1.14,-2.47 -1.02,-5.22 0.99,-7.29 0.82,-0.84 2.17,-0.86 3.02,-0.03 0.84,0.82 0.86,2.17 0.04,3.01 -0.62,0.64 -0.61,1.6 -0.19,2.52 0.26,0.57 0.67,1.13 1.19,1.63 0.53,0.51 1.17,0.93 1.86,1.22 1.83,0.76 4.19,0.6 6.45,-1.47 0.07,-0.07 0.15,-0.14 0.22,-0.22l0.06 -0.07c1.04,-1.18 1.23,-2.98 0.82,-4.89 -0.47,-2.19 -1.71,-4.48 -3.4,-6.33 -0.33,-0.35 -0.69,-0.71 -1.08,-1.06 -3.23,-2.83 -6.86,-2.74 -9.91,-1.03 -1.83,1.03 -3.48,2.64 -4.75,4.56 -1.28,1.93 -2.15,4.15 -2.42,6.41 -0.53,4.32 1.19,8.85 6.6,11.69zm-75.49 -2.04c-0.42,-1.29 0.29,-2.68 1.58,-3.09 1.29,-0.42 2.68,0.29 3.09,1.58 1.26,3.88 0.38,8.19 -1.85,11.75 -1.37,2.18 -3.25,4.1 -5.46,5.46 -2.27,1.4 -4.89,2.24 -7.65,2.2 -3.84,-0.05 -7.89,-1.74 -11.6,-5.85 -4.17,-4.62 -4.61,-8.94 -3.07,-12.4 1,-2.24 2.84,-4.03 5.04,-5.24 2.1,-1.16 4.57,-1.81 6.92,-1.81 4.08,0 7.84,1.86 9.23,6.15 1.35,4.19 0.57,7.17 -1.21,9.11 -0.05,0.05 -0.1,0.1 -0.15,0.15 -0.85,0.87 -1.89,1.5 -3.01,1.88 -1.11,0.37 -2.3,0.52 -3.46,0.47 -3.03,-0.13 -6.03,-1.69 -7.1,-4.2 -0.53,-1.25 0.05,-2.69 1.29,-3.23 1.25,-0.53 2.69,0.05 3.22,1.3 0.3,0.7 1.49,1.15 2.79,1.21 0.59,0.02 1.17,-0.04 1.69,-0.22 0.4,-0.13 0.76,-0.34 1.03,-0.6l0.06 -0.07c0.66,-0.73 0.88,-2.09 0.16,-4.31 -0.61,-1.91 -2.49,-2.73 -4.55,-2.73 -1.53,-0 -3.16,0.43 -4.55,1.2 -1.31,0.72 -2.38,1.73 -2.92,2.94 -0.79,1.78 -0.39,4.21 2.22,7.11 2.68,2.97 5.46,4.19 8.01,4.22 1.79,0.02 3.51,-0.53 5.01,-1.46 1.56,-0.96 2.9,-2.33 3.88,-3.89 1.5,-2.4 2.13,-5.21 1.34,-7.63zm66.81 67.49c-0.42,-1.29 0.29,-2.68 1.58,-3.09 1.29,-0.42 2.68,0.29 3.09,1.58 1.26,3.88 0.38,8.19 -1.85,11.75 -1.37,2.18 -3.25,4.1 -5.46,5.46 -2.27,1.4 -4.89,2.24 -7.65,2.2 -3.84,-0.05 -7.89,-1.74 -11.6,-5.85 -4.17,-4.62 -4.61,-8.94 -3.07,-12.4 1,-2.24 2.84,-4.03 5.04,-5.24 2.1,-1.16 4.57,-1.81 6.92,-1.81 4.08,0 7.84,1.86 9.23,6.15 1.35,4.19 0.57,7.17 -1.21,9.11 -0.05,0.05 -0.1,0.1 -0.15,0.15 -0.85,0.87 -1.89,1.5 -3.01,1.88 -1.11,0.37 -2.3,0.52 -3.46,0.47 -3.03,-0.14 -6.03,-1.69 -7.1,-4.2 -0.53,-1.25 0.05,-2.69 1.29,-3.23 1.25,-0.53 2.69,0.05 3.22,1.3 0.3,0.7 1.49,1.15 2.79,1.21 0.59,0.02 1.17,-0.04 1.69,-0.22 0.4,-0.13 0.76,-0.34 1.03,-0.6l0.06 -0.07c0.66,-0.73 0.88,-2.09 0.16,-4.31 -0.61,-1.91 -2.49,-2.73 -4.55,-2.73 -1.53,-0 -3.16,0.43 -4.55,1.2 -1.31,0.72 -2.38,1.73 -2.92,2.94 -0.79,1.78 -0.39,4.21 2.22,7.11 2.68,2.97 5.46,4.19 8.01,4.22 1.79,0.02 3.51,-0.53 5.01,-1.46 1.56,-0.96 2.9,-2.33 3.88,-3.89 1.5,-2.4 2.13,-5.21 1.34,-7.63zm-70.71 60.83c-0.38,1.3 -1.75,2.04 -3.05,1.66 -1.3,-0.39 -2.04,-1.75 -1.66,-3.05 1.15,-3.9 4.3,-6.96 8.14,-8.64 2.36,-1.03 4.99,-1.55 7.58,-1.43 2.66,0.12 5.29,0.91 7.55,2.5 3.14,2.2 5.53,5.88 6.27,11.36 0.83,6.16 -1.24,9.97 -4.47,11.95 -2.09,1.29 -4.62,1.72 -7.11,1.49 -2.39,-0.23 -4.79,-1.09 -6.72,-2.41 -3.36,-2.3 -5.42,-5.96 -4.14,-10.27 1.25,-4.22 3.58,-6.23 6.13,-6.83 0.07,-0.02 0.14,-0.03 0.2,-0.04 1.2,-0.24 2.4,-0.17 3.54,0.15 1.13,0.31 2.19,0.86 3.12,1.56 2.42,1.82 4.01,4.79 3.49,7.46 -0.26,1.33 -1.56,2.19 -2.88,1.93 -1.33,-0.26 -2.19,-1.55 -1.93,-2.88 0.15,-0.75 -0.58,-1.79 -1.62,-2.57 -0.47,-0.35 -0.99,-0.63 -1.51,-0.77 -0.41,-0.11 -0.82,-0.15 -1.19,-0.08l-0.09 0.02c-0.96,0.22 -1.9,1.22 -2.56,3.45 -0.57,1.92 0.5,3.65 2.21,4.82 1.26,0.86 2.84,1.43 4.43,1.58 1.49,0.14 2.94,-0.09 4.07,-0.78 1.66,-1.02 2.7,-3.25 2.17,-7.11 -0.54,-3.96 -2.14,-6.53 -4.22,-7.99 -1.47,-1.03 -3.19,-1.54 -4.96,-1.63 -1.83,-0.09 -3.7,0.29 -5.39,1.02 -2.59,1.13 -4.69,3.1 -5.41,5.53zm39.88 -23.86c-0.38,1.3 -1.75,2.04 -3.05,1.66 -1.3,-0.39 -2.04,-1.75 -1.66,-3.05 1.15,-3.9 4.3,-6.96 8.14,-8.64 2.36,-1.03 4.99,-1.55 7.58,-1.43 2.66,0.12 5.29,0.91 7.55,2.5 3.14,2.2 5.53,5.88 6.27,11.36 0.83,6.16 -1.24,9.97 -4.47,11.95 -2.09,1.29 -4.62,1.72 -7.11,1.49 -2.39,-0.23 -4.79,-1.09 -6.72,-2.41 -3.36,-2.3 -5.42,-5.96 -4.14,-10.27 1.25,-4.22 3.58,-6.23 6.13,-6.83 0.07,-0.02 0.14,-0.03 0.2,-0.04 1.2,-0.24 2.4,-0.17 3.54,0.15 1.13,0.31 2.19,0.86 3.12,1.56 2.43,1.82 4.01,4.79 3.49,7.46 -0.26,1.33 -1.55,2.19 -2.88,1.93 -1.33,-0.26 -2.19,-1.56 -1.93,-2.88 0.15,-0.75 -0.58,-1.79 -1.62,-2.57 -0.47,-0.35 -0.99,-0.63 -1.51,-0.77 -0.41,-0.11 -0.82,-0.15 -1.19,-0.08l-0.09 0.02c-0.96,0.22 -1.9,1.22 -2.56,3.45 -0.57,1.92 0.5,3.65 2.21,4.82 1.26,0.86 2.84,1.43 4.43,1.58 1.49,0.14 2.94,-0.09 4.07,-0.78 1.66,-1.02 2.7,-3.25 2.17,-7.11 -0.54,-3.96 -2.14,-6.53 -4.22,-7.99 -1.47,-1.03 -3.19,-1.54 -4.96,-1.62 -1.83,-0.09 -3.7,0.29 -5.39,1.02 -2.59,1.13 -4.69,3.1 -5.41,5.53zm-40.16 -73.53c-1.16,0.69 -2.67,0.3 -3.36,-0.86 -0.69,-1.16 -0.31,-2.67 0.86,-3.36 3.5,-2.08 7.89,-2.17 11.85,-0.78 2.42,0.85 4.71,2.26 6.52,4.12 1.87,1.9 3.25,4.27 3.82,6.97 0.8,3.75 0.04,8.07 -3.14,12.59 -3.58,5.08 -7.7,6.45 -11.41,5.71 -2.41,-0.48 -4.55,-1.88 -6.22,-3.75 -1.59,-1.79 -2.76,-4.06 -3.28,-6.35 -0.9,-3.97 0.09,-8.05 3.96,-10.34 3.78,-2.24 6.86,-2.13 9.14,-0.83 0.06,0.03 0.12,0.07 0.18,0.11 1.04,0.64 1.87,1.51 2.49,2.52 0.61,1 1.02,2.13 1.22,3.27 0.54,2.99 -0.33,6.24 -2.53,7.84 -1.1,0.79 -2.63,0.55 -3.43,-0.55 -0.79,-1.1 -0.55,-2.63 0.55,-3.43 0.62,-0.45 0.8,-1.71 0.57,-2.98 -0.1,-0.58 -0.3,-1.13 -0.58,-1.59 -0.22,-0.36 -0.5,-0.67 -0.82,-0.87l-0.08 -0.04c-0.85,-0.49 -2.23,-0.4 -4.23,0.79 -1.72,1.02 -2.12,3.02 -1.66,5.03 0.34,1.49 1.11,2.98 2.17,4.17 0.99,1.12 2.21,1.94 3.51,2.2 1.91,0.38 4.19,-0.54 6.43,-3.73 2.3,-3.26 2.88,-6.24 2.35,-8.73 -0.37,-1.75 -1.29,-3.3 -2.52,-4.56 -1.28,-1.31 -2.91,-2.31 -4.64,-2.92 -2.67,-0.94 -5.54,-0.93 -7.73,0.37z"/>
    <path class="fil10" d="M846.36 476.13c1.16,0.69 2.67,0.31 3.36,-0.86 0.69,-1.16 0.31,-2.67 -0.86,-3.36 -3.5,-2.08 -7.89,-2.17 -11.85,-0.78 -2.42,0.85 -4.71,2.26 -6.52,4.12 -1.87,1.9 -3.25,4.27 -3.82,6.97 -0.8,3.75 -0.04,8.07 3.14,12.59 3.58,5.08 7.7,6.45 11.41,5.71 2.41,-0.48 4.55,-1.88 6.22,-3.75 1.59,-1.79 2.76,-4.06 3.28,-6.35 0.9,-3.97 -0.09,-8.05 -3.96,-10.34 -3.78,-2.24 -6.86,-2.13 -9.14,-0.83 -0.06,0.03 -0.12,0.07 -0.18,0.11 -1.04,0.63 -1.87,1.51 -2.49,2.52 -0.61,1 -1.02,2.13 -1.22,3.27 -0.53,2.99 0.33,6.24 2.53,7.84 1.1,0.79 2.63,0.55 3.43,-0.55 0.79,-1.1 0.55,-2.63 -0.55,-3.43 -0.62,-0.45 -0.8,-1.71 -0.57,-2.99 0.1,-0.58 0.3,-1.13 0.58,-1.59 0.22,-0.36 0.5,-0.67 0.82,-0.87l0.08 -0.04c0.85,-0.49 2.23,-0.4 4.23,0.79 1.72,1.02 2.12,3.02 1.66,5.03 -0.34,1.49 -1.11,2.98 -2.17,4.17 -0.99,1.12 -2.21,1.94 -3.51,2.2 -1.91,0.38 -4.19,-0.54 -6.43,-3.73 -2.3,-3.26 -2.88,-6.24 -2.35,-8.73 0.37,-1.75 1.29,-3.3 2.52,-4.56 1.28,-1.31 2.91,-2.31 4.64,-2.92 2.67,-0.94 5.54,-0.93 7.73,0.37zm-13.9 200.14c-0.01,-1.16 -31.85,4.85 -66.48,-21.12 -2.87,-2.15 -3.6,-0.93 -1.33,1.62 33.97,38.28 69.07,21.21 67.81,19.5zm3.86 -17.69c-0,-1.16 -31.85,4.85 -66.48,-21.12 -2.87,-2.15 -3.6,-0.93 -1.33,1.62 33.97,38.28 69.07,21.21 67.81,19.5zm1.53 -201.35c-1.21,0.87 -1.48,2.56 -0.61,3.77 0.87,1.21 2.56,1.48 3.77,0.61 5.56,-4.02 6.72,-9.42 5.41,-14.28 -0.64,-2.35 -1.88,-4.54 -3.48,-6.35 -1.63,-1.84 -3.64,-3.29 -5.79,-4.13 -4.14,-1.61 -8.75,-1.07 -12.31,3.09 -0.33,0.39 -0.67,0.82 -0.99,1.3 -1.52,2.22 -2.48,4.87 -2.66,7.34 -0.2,2.82 0.59,5.47 2.66,7.24 0.04,0.03 0.08,0.07 0.13,0.1 0.15,0.12 0.32,0.25 0.5,0.37 3.6,2.47 7.12,2.13 9.74,0.56 0.97,-0.58 1.81,-1.33 2.47,-2.17 0.68,-0.86 1.18,-1.83 1.48,-2.82 0.71,-2.41 0.23,-4.91 -1.92,-6.57 -1.18,-0.92 -2.88,-0.7 -3.79,0.48 -0.92,1.18 -0.7,2.88 0.48,3.8 0.15,0.12 0.15,0.41 0.05,0.76 -0.1,0.33 -0.28,0.67 -0.54,1 -0.27,0.34 -0.61,0.65 -1,0.88 -0.99,0.58 -2.38,0.66 -3.91,-0.38 -0.03,-0.02 -0.07,-0.05 -0.1,-0.08l-0.05 -0.04c-0.64,-0.55 -0.87,-1.57 -0.79,-2.75 0.11,-1.54 0.73,-3.22 1.71,-4.66 0.18,-0.26 0.39,-0.54 0.64,-0.83 1.8,-2.1 4.13,-2.38 6.23,-1.56 1.36,0.53 2.65,1.46 3.7,2.65 1.08,1.21 1.9,2.67 2.32,4.2 0.77,2.83 0.03,6.02 -3.35,8.47zm-56.47 106.9c-0.87,0.62 -1.07,1.84 -0.44,2.71 0.63,0.87 1.84,1.06 2.71,0.44 3.99,-2.88 4.82,-6.75 3.88,-10.23 -0.45,-1.68 -1.34,-3.26 -2.5,-4.56 -1.17,-1.32 -2.61,-2.36 -4.15,-2.96 -2.97,-1.15 -6.27,-0.77 -8.82,2.21 -0.24,0.28 -0.47,0.59 -0.71,0.93 -1.09,1.59 -1.78,3.49 -1.9,5.26 -0.14,2.02 0.42,3.92 1.91,5.2 0.03,0.02 0.06,0.05 0.09,0.07 0.11,0.09 0.23,0.18 0.36,0.27 2.58,1.77 5.1,1.53 6.98,0.41 0.69,-0.41 1.3,-0.95 1.77,-1.56 0.48,-0.61 0.85,-1.31 1.06,-2.02 0.51,-1.73 0.16,-3.52 -1.38,-4.71 -0.85,-0.66 -2.06,-0.5 -2.72,0.34 -0.66,0.85 -0.5,2.07 0.34,2.72 0.11,0.08 0.11,0.3 0.03,0.55 -0.07,0.24 -0.2,0.48 -0.39,0.72 -0.19,0.24 -0.44,0.47 -0.72,0.63 -0.71,0.42 -1.7,0.48 -2.8,-0.27 -0.02,-0.02 -0.05,-0.04 -0.07,-0.06l-0.04 -0.03c-0.46,-0.39 -0.63,-1.13 -0.56,-1.97 0.08,-1.1 0.52,-2.31 1.23,-3.34 0.13,-0.19 0.28,-0.39 0.46,-0.6 1.29,-1.5 2.96,-1.7 4.47,-1.12 0.97,0.38 1.9,1.05 2.66,1.9 0.77,0.87 1.36,1.91 1.66,3.01 0.55,2.03 0.02,4.32 -2.4,6.07zm73.96 -4.94c-1.14,-0.31 -2.3,0.36 -2.61,1.49 -0.31,1.13 0.36,2.3 1.49,2.61 7.94,2.16 13.85,-0.81 17.36,-5.66 1.74,-2.39 2.87,-5.25 3.35,-8.15 0.48,-2.91 0.32,-5.9 -0.53,-8.57 -1.59,-4.97 -5.47,-8.77 -11.89,-8.96 -0.64,-0.02 -1.3,0 -1.98,0.06 -3.24,0.25 -6.46,1.36 -8.9,3.06 -2.67,1.86 -4.47,4.45 -4.55,7.51 -0,0.05 -0,0.09 -0,0.14 -0,0.24 0.01,0.49 0.03,0.74 0.4,5.01 3.21,7.9 6.48,9.11 1.22,0.46 2.5,0.66 3.73,0.65 1.24,-0.02 2.46,-0.26 3.53,-0.7 2.52,-1.03 4.3,-3.12 4.23,-6.01 -0.03,-1.18 -1,-2.11 -2.18,-2.08 -1.17,0.02 -2.1,1.01 -2.08,2.18 0.02,0.89 -0.64,1.59 -1.58,1.97 -0.58,0.24 -1.26,0.37 -1.98,0.38 -0.74,0.01 -1.49,-0.11 -2.19,-0.37 -1.86,-0.69 -3.48,-2.41 -3.72,-5.46 -0.01,-0.1 -0.01,-0.21 -0.01,-0.31l0 -0.09c0.05,-1.58 1.13,-3.02 2.74,-4.15 1.84,-1.28 4.3,-2.12 6.8,-2.32 0.48,-0.04 0.98,-0.05 1.51,-0.04 4.29,0.12 6.89,2.67 7.96,5.99 0.64,2.01 0.75,4.31 0.37,6.58 -0.38,2.28 -1.25,4.5 -2.59,6.35 -2.56,3.53 -6.89,5.67 -12.79,4.06zm-100.41 -60.15c0.33,-1.26 -0.43,-2.54 -1.69,-2.87 -1.26,-0.33 -2.54,0.43 -2.87,1.69 -2.27,8.83 1.11,15.33 6.53,19.14 2.68,1.89 5.86,3.1 9.07,3.58 3.24,0.49 6.55,0.27 9.49,-0.72 5.48,-1.83 9.63,-6.18 9.74,-13.3 0.01,-0.7 -0.02,-1.44 -0.09,-2.19 -0.33,-3.58 -1.61,-7.13 -3.53,-9.8 -2.1,-2.93 -5,-4.88 -8.39,-4.93 -0.05,-0.01 -0.1,-0 -0.15,-0 -0.27,0 -0.54,0.01 -0.82,0.04 -5.54,0.52 -8.71,3.68 -9.99,7.31 -0.48,1.37 -0.69,2.78 -0.66,4.13 0.04,1.38 0.32,2.72 0.83,3.91 1.19,2.77 3.53,4.72 6.72,4.59 1.31,-0.05 2.33,-1.15 2.27,-2.45 -0.05,-1.3 -1.15,-2.31 -2.45,-2.26 -0.99,0.03 -1.77,-0.69 -2.21,-1.72 -0.27,-0.64 -0.43,-1.39 -0.44,-2.19 -0.02,-0.81 0.1,-1.65 0.38,-2.44 0.74,-2.07 2.62,-3.89 6,-4.2 0.12,-0.01 0.23,-0.02 0.34,-0.01l0.1 -0c1.75,0.03 3.36,1.2 4.63,2.97 1.45,2.02 2.41,4.74 2.68,7.5 0.04,0.53 0.07,1.09 0.06,1.67 -0.07,4.75 -2.85,7.67 -6.51,8.9 -2.22,0.73 -4.76,0.89 -7.29,0.51 -2.53,-0.38 -5,-1.31 -7.06,-2.77 -3.94,-2.78 -6.38,-7.55 -4.69,-14.1zm61.19 19.09c-1.04,0.55 -1.44,1.83 -0.89,2.87 0.54,1.04 1.83,1.44 2.87,0.89 7.29,-3.82 9.59,-10.02 8.86,-15.97 -0.36,-2.93 -1.47,-5.79 -3.1,-8.25 -1.62,-2.46 -3.78,-4.54 -6.22,-5.92 -4.55,-2.56 -9.97,-2.7 -14.81,1.53 -0.48,0.42 -0.95,0.89 -1.41,1.39 -2.2,2.39 -3.8,5.39 -4.43,8.3 -0.69,3.18 -0.24,6.3 1.78,8.6 0.03,0.03 0.06,0.07 0.09,0.1 0.16,0.18 0.34,0.35 0.52,0.52 3.7,3.4 7.74,3.6 10.95,2.26 1.21,-0.5 2.28,-1.22 3.17,-2.06 0.9,-0.86 1.62,-1.86 2.11,-2.92 1.14,-2.47 1.02,-5.22 -0.99,-7.29 -0.82,-0.84 -2.17,-0.86 -3.02,-0.03 -0.84,0.82 -0.86,2.17 -0.04,3.01 0.62,0.64 0.61,1.6 0.19,2.52 -0.26,0.57 -0.67,1.13 -1.2,1.63 -0.53,0.51 -1.17,0.93 -1.86,1.22 -1.83,0.76 -4.19,0.6 -6.44,-1.47 -0.07,-0.07 -0.15,-0.14 -0.22,-0.22l-0.06 -0.07c-1.04,-1.18 -1.23,-2.98 -0.82,-4.89 0.47,-2.19 1.71,-4.48 3.4,-6.33 0.33,-0.35 0.69,-0.71 1.08,-1.06 3.23,-2.83 6.86,-2.74 9.91,-1.03 1.83,1.03 3.48,2.64 4.75,4.56 1.28,1.93 2.15,4.15 2.43,6.41 0.53,4.32 -1.19,8.85 -6.6,11.69zm-24.2 -46.71c-1.04,0.55 -1.44,1.83 -0.89,2.87 0.54,1.04 1.83,1.44 2.87,0.89 7.29,-3.82 9.59,-10.02 8.86,-15.97 -0.36,-2.93 -1.47,-5.79 -3.1,-8.25 -1.62,-2.46 -3.78,-4.54 -6.22,-5.92 -4.55,-2.56 -9.97,-2.7 -14.8,1.53 -0.48,0.42 -0.95,0.89 -1.41,1.39 -2.2,2.39 -3.8,5.39 -4.43,8.3 -0.69,3.18 -0.24,6.3 1.78,8.6 0.03,0.03 0.06,0.07 0.09,0.1 0.16,0.18 0.34,0.35 0.52,0.52 3.7,3.4 7.74,3.6 10.95,2.26 1.2,-0.5 2.28,-1.22 3.17,-2.06 0.9,-0.86 1.62,-1.86 2.11,-2.92 1.14,-2.47 1.02,-5.22 -0.99,-7.29 -0.82,-0.84 -2.17,-0.86 -3.02,-0.03 -0.84,0.82 -0.86,2.17 -0.04,3.01 0.62,0.64 0.61,1.6 0.19,2.52 -0.26,0.57 -0.67,1.13 -1.19,1.63 -0.53,0.51 -1.17,0.93 -1.86,1.22 -1.83,0.76 -4.19,0.6 -6.45,-1.47 -0.07,-0.07 -0.15,-0.14 -0.22,-0.22l-0.06 -0.07c-1.04,-1.18 -1.23,-2.98 -0.82,-4.89 0.47,-2.19 1.71,-4.48 3.4,-6.33 0.33,-0.35 0.69,-0.71 1.08,-1.06 3.23,-2.83 6.86,-2.74 9.91,-1.03 1.83,1.03 3.48,2.64 4.75,4.56 1.28,1.93 2.15,4.15 2.42,6.41 0.53,4.32 -1.19,8.85 -6.6,11.69zm75.49 -2.04c0.42,-1.29 -0.29,-2.68 -1.58,-3.09 -1.29,-0.42 -2.68,0.29 -3.09,1.58 -1.26,3.88 -0.38,8.19 1.85,11.75 1.37,2.18 3.25,4.1 5.46,5.46 2.27,1.4 4.89,2.24 7.65,2.2 3.84,-0.05 7.89,-1.74 11.6,-5.85 4.17,-4.62 4.61,-8.94 3.07,-12.4 -1,-2.24 -2.84,-4.03 -5.04,-5.24 -2.1,-1.16 -4.57,-1.81 -6.92,-1.81 -4.08,0 -7.84,1.86 -9.23,6.15 -1.35,4.19 -0.57,7.17 1.21,9.11 0.05,0.05 0.1,0.1 0.15,0.15 0.85,0.87 1.89,1.5 3.01,1.88 1.11,0.37 2.3,0.52 3.46,0.47 3.03,-0.13 6.03,-1.69 7.1,-4.2 0.53,-1.25 -0.05,-2.69 -1.29,-3.23 -1.25,-0.53 -2.69,0.05 -3.22,1.3 -0.3,0.7 -1.49,1.15 -2.79,1.21 -0.59,0.02 -1.17,-0.04 -1.69,-0.22 -0.4,-0.13 -0.76,-0.34 -1.03,-0.6l-0.06 -0.07c-0.66,-0.73 -0.88,-2.09 -0.16,-4.31 0.61,-1.91 2.49,-2.73 4.55,-2.73 1.53,-0 3.16,0.43 4.55,1.2 1.31,0.72 2.38,1.73 2.92,2.94 0.79,1.78 0.39,4.21 -2.22,7.11 -2.68,2.97 -5.46,4.19 -8.01,4.22 -1.79,0.02 -3.51,-0.53 -5.01,-1.46 -1.56,-0.96 -2.9,-2.33 -3.88,-3.89 -1.5,-2.4 -2.13,-5.21 -1.34,-7.63zm-66.81 67.49c0.42,-1.29 -0.29,-2.68 -1.58,-3.09 -1.29,-0.42 -2.68,0.29 -3.09,1.58 -1.26,3.88 -0.38,8.19 1.85,11.75 1.37,2.18 3.25,4.1 5.46,5.46 2.27,1.4 4.89,2.24 7.65,2.2 3.84,-0.05 7.89,-1.74 11.6,-5.85 4.17,-4.62 4.61,-8.94 3.07,-12.4 -1,-2.24 -2.84,-4.03 -5.04,-5.24 -2.1,-1.16 -4.57,-1.81 -6.92,-1.81 -4.08,0 -7.84,1.86 -9.23,6.15 -1.35,4.19 -0.57,7.17 1.21,9.11 0.05,0.05 0.1,0.1 0.15,0.15 0.85,0.87 1.89,1.5 3.01,1.88 1.11,0.37 2.3,0.52 3.46,0.47 3.03,-0.14 6.03,-1.69 7.1,-4.2 0.53,-1.25 -0.05,-2.69 -1.29,-3.23 -1.25,-0.53 -2.69,0.05 -3.22,1.3 -0.3,0.7 -1.49,1.15 -2.79,1.21 -0.59,0.02 -1.17,-0.04 -1.69,-0.22 -0.4,-0.13 -0.76,-0.34 -1.03,-0.6l-0.06 -0.07c-0.66,-0.73 -0.88,-2.09 -0.16,-4.31 0.61,-1.91 2.49,-2.73 4.55,-2.73 1.53,-0 3.16,0.43 4.55,1.2 1.31,0.72 2.38,1.73 2.92,2.94 0.79,1.78 0.39,4.21 -2.22,7.11 -2.68,2.97 -5.46,4.19 -8.01,4.22 -1.79,0.02 -3.51,-0.53 -5.01,-1.46 -1.56,-0.96 -2.9,-2.33 -3.88,-3.89 -1.5,-2.4 -2.13,-5.21 -1.34,-7.63zm70.71 60.83c0.38,1.3 1.75,2.04 3.05,1.66 1.3,-0.39 2.04,-1.75 1.66,-3.05 -1.15,-3.9 -4.3,-6.96 -8.14,-8.64 -2.36,-1.03 -4.99,-1.55 -7.58,-1.43 -2.66,0.12 -5.29,0.91 -7.55,2.5 -3.14,2.2 -5.53,5.88 -6.27,11.36 -0.83,6.16 1.24,9.97 4.47,11.95 2.09,1.29 4.62,1.72 7.11,1.49 2.39,-0.23 4.79,-1.09 6.72,-2.41 3.36,-2.3 5.42,-5.96 4.14,-10.27 -1.25,-4.22 -3.58,-6.23 -6.13,-6.83 -0.07,-0.02 -0.14,-0.03 -0.2,-0.04 -1.2,-0.24 -2.4,-0.17 -3.54,0.15 -1.13,0.31 -2.19,0.86 -3.12,1.56 -2.42,1.82 -4.01,4.79 -3.49,7.46 0.26,1.33 1.56,2.19 2.88,1.93 1.33,-0.26 2.19,-1.55 1.93,-2.88 -0.15,-0.75 0.58,-1.79 1.62,-2.57 0.47,-0.35 0.99,-0.63 1.51,-0.77 0.41,-0.11 0.82,-0.15 1.19,-0.08l0.09 0.02c0.96,0.22 1.9,1.22 2.56,3.45 0.57,1.92 -0.5,3.65 -2.21,4.82 -1.26,0.86 -2.84,1.43 -4.43,1.58 -1.49,0.14 -2.94,-0.09 -4.07,-0.78 -1.66,-1.02 -2.7,-3.25 -2.17,-7.11 0.54,-3.96 2.14,-6.53 4.22,-7.99 1.47,-1.03 3.19,-1.54 4.96,-1.63 1.83,-0.09 3.7,0.29 5.39,1.02 2.59,1.13 4.69,3.1 5.41,5.53zm-39.88 -23.86c0.38,1.3 1.75,2.04 3.05,1.66 1.3,-0.39 2.04,-1.75 1.66,-3.05 -1.15,-3.9 -4.3,-6.96 -8.14,-8.64 -2.36,-1.03 -4.99,-1.55 -7.58,-1.43 -2.66,0.12 -5.29,0.91 -7.55,2.5 -3.14,2.2 -5.53,5.88 -6.27,11.36 -0.83,6.16 1.24,9.97 4.47,11.95 2.09,1.29 4.62,1.72 7.11,1.49 2.39,-0.23 4.79,-1.09 6.72,-2.41 3.36,-2.3 5.42,-5.96 4.14,-10.27 -1.25,-4.22 -3.58,-6.23 -6.13,-6.83 -0.07,-0.02 -0.14,-0.03 -0.2,-0.04 -1.2,-0.24 -2.4,-0.17 -3.54,0.15 -1.13,0.31 -2.19,0.86 -3.12,1.56 -2.43,1.82 -4.01,4.79 -3.49,7.46 0.26,1.33 1.55,2.19 2.88,1.93 1.33,-0.26 2.19,-1.56 1.93,-2.88 -0.15,-0.75 0.58,-1.79 1.62,-2.57 0.47,-0.35 0.99,-0.63 1.51,-0.77 0.41,-0.11 0.82,-0.15 1.19,-0.08l0.09 0.02c0.96,0.22 1.9,1.22 2.56,3.45 0.57,1.92 -0.5,3.65 -2.21,4.82 -1.26,0.86 -2.84,1.43 -4.43,1.58 -1.49,0.14 -2.94,-0.09 -4.07,-0.78 -1.66,-1.02 -2.7,-3.25 -2.17,-7.11 0.54,-3.96 2.14,-6.53 4.22,-7.99 1.47,-1.03 3.19,-1.54 4.96,-1.62 1.83,-0.09 3.7,0.29 5.39,1.02 2.59,1.13 4.69,3.1 5.41,5.53zm40.16 -73.53c1.16,0.69 2.67,0.3 3.36,-0.86 0.69,-1.16 0.31,-2.67 -0.86,-3.36 -3.5,-2.08 -7.89,-2.17 -11.85,-0.78 -2.42,0.85 -4.71,2.26 -6.52,4.12 -1.87,1.9 -3.25,4.27 -3.82,6.97 -0.8,3.75 -0.04,8.07 3.14,12.59 3.58,5.08 7.7,6.45 11.41,5.71 2.41,-0.48 4.55,-1.88 6.22,-3.75 1.59,-1.79 2.76,-4.06 3.28,-6.35 0.9,-3.97 -0.09,-8.05 -3.96,-10.34 -3.78,-2.24 -6.86,-2.13 -9.14,-0.83 -0.06,0.03 -0.12,0.07 -0.18,0.11 -1.04,0.64 -1.87,1.51 -2.49,2.52 -0.61,1 -1.02,2.13 -1.22,3.27 -0.54,2.99 0.33,6.24 2.53,7.84 1.1,0.79 2.63,0.55 3.43,-0.55 0.79,-1.1 0.55,-2.63 -0.55,-3.43 -0.62,-0.45 -0.8,-1.71 -0.57,-2.98 0.1,-0.58 0.3,-1.13 0.58,-1.59 0.22,-0.36 0.5,-0.67 0.82,-0.87l0.08 -0.04c0.85,-0.49 2.23,-0.4 4.23,0.79 1.72,1.02 2.12,3.02 1.66,5.03 -0.34,1.49 -1.11,2.98 -2.17,4.17 -0.99,1.12 -2.21,1.94 -3.51,2.2 -1.91,0.38 -4.19,-0.54 -6.43,-3.73 -2.3,-3.26 -2.88,-6.24 -2.35,-8.73 0.37,-1.75 1.29,-3.3 2.52,-4.56 1.28,-1.31 2.91,-2.31 4.64,-2.92 2.67,-0.94 5.54,-0.93 7.73,0.37z"/>
    <polygon class="fil1" points="297.34,421.89 403.78,441.67 299.38,438.26 "/>
    <circle class="fil3" cx="671.29" cy="352.39" r="12.65"/>
    <ellipse class="fil3" cx="313.56" cy="387.15" rx="11.76" ry="15.68"/>
    <circle class="fil3" cx="330.64" cy="409.11" r="7.7"/>
    <circle class="fil7" cx="196.99" cy="213.15" r="8.86"/>
    <circle class="fil7" cx="216.93" cy="200.7" r="4.26"/>
    <circle class="fil7" cx="213.69" cy="239.05" r="3.41"/>
    <circle class="fil3" cx="629.02" cy="524.52" r="19.94"/>
    <circle class="fil3" cx="634.81" cy="491.11" r="3.92"/>
    <circle class="fil3" cx="585.73" cy="478.84" r="3.58"/>
    <circle class="fil3" cx="496.6" cy="557.75" r="8.52"/>
    <circle class="fil3" cx="507.97" cy="530.19" r="4.55"/>
    <circle class="fil7" cx="660.38" cy="292.39" r="4.6"/>
    <circle class="fil7" cx="777.12" cy="210.08" r="15"/>
    <circle class="fil7" cx="753.43" cy="191.16" r="5.62"/>
    <circle class="fil3" cx="256.12" cy="254.56" r="15.51"/>
    <circle class="fil3" cx="244.71" cy="215.19" r="5.45"/>
    <circle class="fil3" cx="356.34" cy="511.22" r="10.4"/>
    <circle class="fil3" cx="369.12" cy="491.97" r="4.09"/>
    <path class="fil10" d="M335.68 198.89c-1.65,-1.65 -1.67,-4.35 -0.05,-6.03 1.63,-1.68 4.28,-1.7 5.94,-0.05 30.69,30.71 72.41,55.34 120,66.91 41.97,10.21 88.51,10.25 136.07,-4.66 2.22,-0.69 4.56,0.57 5.25,2.82 0.68,2.25 -0.56,4.63 -2.78,5.32 -49.08,15.38 -97.13,15.33 -140.48,4.79 -49.15,-11.95 -92.24,-37.39 -123.95,-69.11z"/>
    <path class="fil10" d="M643.22 203.25c1.71,-1.65 1.74,-4.35 0.05,-6.03 -1.69,-1.68 -4.44,-1.7 -6.15,-0.05 -56.98,55 -185.13,85.46 -261.86,62.25 -2.3,-0.69 -4.73,0.57 -5.44,2.82 -0.71,2.25 0.58,4.63 2.88,5.32 79.71,24.1 211.29,-7.14 270.52,-64.32z"/>
    <path class="fil10" d="M535.13 329.87c-44.24,-4.01 -87.52,-15.4 -131.8,-37.68 -2.49,-1.25 -5.58,-0.63 -6.9,1.38 -1.32,2.01 -0.38,4.66 2.11,5.9 43.43,21.85 88.26,34.18 131.82,38.91 9.61,1.36 10.28,-6.81 4.78,-8.52z"/>
    <path class="fil10" d="M426.15 326.2c46.91,-3.51 92.88,-14.4 140.03,-36.17 2.65,-1.22 5.92,-0.57 7.3,1.46 1.38,2.03 0.35,4.66 -2.3,5.88 -46.24,21.35 -93.87,33.17 -140.06,37.41 -10.2,1.25 -10.82,-6.93 -4.97,-8.57z"/>
    <g>
     <path class="fil10" d="M637.27 202.01c0.07,-2.33 2.02,-4.16 4.35,-4.09 2.33,0.07 4.16,2.02 4.09,4.35l-6.14 183.54c-0.07,2.33 -2.02,4.16 -4.35,4.09 -2.33,-0.07 -4.16,-2.02 -4.09,-4.35l6.14 -183.54z"/>
     <circle class="fil1" cx="635.47" cy="388.94" r="10.91"/>
    </g>
    <g>
     <path class="fil10" d="M341.04 196.71c-0.07,-2.33 -2.02,-4.16 -4.35,-4.09 -2.33,0.07 -4.16,2.02 -4.09,4.35l6.14 183.54c0.07,2.33 2.02,4.16 4.35,4.09 2.33,-0.07 4.16,-2.02 4.09,-4.35l-6.14 -183.54z"/>
     <circle class="fil1" cx="342.84" cy="383.64" r="9.97"/>
    </g>
    <circle class="fil1" cx="533.86" cy="333.94" r="6.38"/>
    <circle class="fil1" cx="571.36" cy="293.38" r="6.38"/>
    <circle class="fil1" cx="599.09" cy="259.53" r="6.38"/>
    <circle class="fil1" cx="640.33" cy="201.32" r="6.38"/>
   </g>
  </g>
 </g>
</svg>
