<?xml version="1.0" encoding="UTF-8"?>
<!DOCTYPE svg PUBLIC "-//W3C//DTD SVG 1.1//EN" "http://www.w3.org/Graphics/SVG/1.1/DTD/svg11.dtd">
<!-- Creator: CorelDRAW 2020 (64-Bit) -->
<svg xmlns="http://www.w3.org/2000/svg" xml:space="preserve" width="129.436mm" height="197.989mm" version="1.1" style="shape-rendering:geometricPrecision; text-rendering:geometricPrecision; image-rendering:optimizeQuality; fill-rule:evenodd; clip-rule:evenodd"
viewBox="0 0 3795.97 5806.42"
 xmlns:xlink="http://www.w3.org/1999/xlink"
 xmlns:xodm="http://www.corel.com/coreldraw/odm/2003">
 <defs>
  <style type="text/css">
   <![CDATA[
    .fil0 {fill:none}
    .fil5 {fill:#4B3446}
    .fil3 {fill:#501D33}
    .fil4 {fill:#634C54}
    .fil13 {fill:#88958A}
    .fil6 {fill:#896E6B}
    .fil1 {fill:#8E7A5D}
    .fil9 {fill:#8F9499}
    .fil11 {fill:#AFC0A6}
    .fil8 {fill:#C3926B}
    .fil12 {fill:#D6E6C6}
    .fil7 {fill:#EDDC93}
    .fil2 {fill:#EEF698}
    .fil10 {fill:white}
   ]]>
  </style>
 </defs>
 <g id="Слой_x0020_1">
  <metadata id="CorelCorpID_0Corel-Layer"/>
  <g id="_1746368529472">
   <g id="_281783560">
    <rect id="_118819608" class="fil0" y="0" width="3795.97" height="5806.42"/>
    <path id="_118813224" class="fil1" d="M2183.41 3399.84c0,0 129.38,49.45 178.83,16.48 49.44,-32.96 -7.42,-140.1 -13.19,-148.34 0,0 8.24,97.24 -9.06,105.48 -17.31,8.24 -130.21,24.72 -156.58,26.37z"/>
    <path id="_118813152" class="fil1" d="M1488.63 3276.85c0,0 217.95,-252.62 392.96,-264.17 175.02,-11.56 359.94,282.34 359.94,282.34 0,0 -274.08,-392.96 -752.91,-18.16l0 0z"/>
    <path id="_118813080" class="fil2" d="M1487.05 3284.47c0,0 283.92,-151.28 425.92,-134.77 142,16.51 346.74,179.97 346.74,179.97 0,0 -214.64,-250.97 -305.46,-246.02 -90.81,4.95 -222.9,-1.65 -467.19,200.81l-0.01 0z"/>
    <path id="_118813008" class="fil1" d="M1703.79 3293.54c0,4.12 -85.71,178.83 -150.81,226.62l632.08 -10.71c0,0 -96.42,-98.89 -130.21,-198.61 0,0 -124.44,-68.4 -130.21,-68.4 -5.77,0 -116.2,-6.59 -220.86,51.09z"/>
    <path id="_118812936" class="fil1" d="M1625.68 3319.77c0,0 168.41,-113.93 265.83,-104.02 97.42,9.91 229.5,142 229.5,142 0,0 -148.6,-113.93 -495.34,-37.98z"/>
    <g>
     <path id="_268906352" class="fil3" d="M810.34 2382.35c0,0 -21.9,287.57 -258.45,538.62 0,0 125.27,27.03 228.12,-7.17 0,0 -85.34,184.7 -201.32,298.71 0,0 142.24,71.81 292.17,6.83 0,0 -3.3,92.35 -99.58,204.08 0,0 62.35,17.13 176.14,8.01 0,0 14.8,125.82 -66.2,247.83 0,0 314.51,-48.25 373.66,-334.5 59.15,-286.24 -18.65,-432.2 -18.65,-432.2 0,0 -29.49,26.25 -106.11,59.37 0,0 21.9,-84.36 3.33,-190.36 0,0 -48.15,41.06 -111.63,64.99 -2.18,-6.83 39.06,-273.79 -211.47,-464.21l-0 0z"/>
     <path id="_268906448" class="fil3" d="M1277.12 3112.3c0,0 42,342.28 -126.25,501.49 0,0 76.64,-151.09 53.23,-400.89 0,0 20.37,-49.46 26.58,-55.55 6.21,-6.1 46.45,-45.05 46.45,-45.05l0 -0z"/>
     <path id="_268906568" class="fil4" d="M849.91 2501.17c0,0 -21.05,195.74 -182.69,374.42 0,0 129.97,-2.28 245.75,-63.73 0,0 -96.11,220.79 -230.45,367.6 0,0 120.14,39.83 359.34,-81.94 0,0 -29.49,61.46 -117.96,114.95 0,0 9.31,70.73 -41.03,161.93 0,0 155.37,6.84 245.09,-77.53 0,0 -28.22,77.2 -130.89,123.87 0,0 19.66,87.63 -33.86,184.37 0,0 324.49,-105.3 236.96,-611.51 0,0 -66.58,36.77 -129.92,39.05l29.49 -168.44c0,0 -71.5,48.38 -146.86,52.93 0,0 71.8,-221.36 -102.96,-415.97z"/>
     <path id="_123954536" class="fil5" d="M921.97 3334.99c21.84,10.87 154.49,7.88 205.98,-38.12 0,0 -28.22,77.2 -130.89,123.87 0,0 19.66,87.63 -33.86,184.37 0,0 324.49,-105.3 236.96,-611.51 -32.07,162.88 -202.7,313.37 -278.19,341.38l0 0z"/>
     <path id="_123954632" class="fil6" d="M849.91 2501.17c0,0 -21.05,195.74 -182.69,374.42 0,0 6.59,-0.12 18.09,-1 203.85,-95.37 184.65,-297.93 171.94,-365.05 -2.4,-2.79 -4.84,-5.58 -7.33,-8.37l0 -0zm60.94 315.43c-14.73,32.73 -105.56,228.68 -228.34,362.86 0,0 4.28,1.41 12.82,2.89 225.25,-67.16 216.53,-344.55 215.52,-365.75z"/>
     <path id="_123954752" class="fil3" d="M1034.2 2534.16c1.09,6.83 -5.46,199.17 -62.26,314.12l69.9 29.59c0,0 39.32,-93.32 -7.65,-343.71l0 0z"/>
     <path id="_123954848" class="fil5" d="M1198.65 2995.21c0,0 -40.27,123.61 -179.57,197.32 0,0 135.5,2.27 167.6,-53.87 32.1,-56.13 11.97,-143.45 11.97,-143.45z"/>
    </g>
    <g>
     <path id="_123954992" class="fil3" d="M2514.18 3186.73c0,0 -21.88,344.32 155.37,492.53 0,0 -85.34,-145.94 -76.59,-396.76 0,0 -23.23,-48.07 -29.78,-53.76 -6.55,-5.69 -49,-42.01 -49,-42.01z"/>
     <path id="_123955112" class="fil3" d="M2746.66 2682.45c0,0 34.95,-135.43 0,-245.83 0,0 52.42,25.04 68.81,141.12 16.38,116.09 -54.61,149.09 -68.81,104.7z"/>
     <path id="_123955208" class="fil3" d="M3064.93 2781.39c0,0 34.98,134.54 157.54,192.71 0,0 -142.88,41.46 -197.68,-72.51 -54.8,-113.97 -1.94,-133.73 40.13,-120.2z"/>
     <path id="_123955328" class="fil3" d="M2864.21 3671.19c0,0 -21.79,-77.46 -30.54,-161.83 0,0 72.22,51.33 238.53,58.17 0,0 -57.45,-65.3 -107.79,-229.48 0,0 61.83,21.98 151.55,21.98 0,0 -41.57,-86.65 -63.46,-182.42 0,0 91.91,18.24 175.06,20.52 0,0 -129.11,-184.7 -166.31,-412.72 0,0 28.44,18.24 131.29,29.64 0,0 -142.24,-225.74 -214.45,-449.21 0,0 -186.01,20.52 -227.58,314.67 0,0 -28.97,-19.69 -50.81,-85.7 0,0 -43.14,137.79 13.7,276.03 0,0 -52.43,1.12 -111.45,-57.01 0,0 -50.56,128.91 30.41,299.92 0,0 -67,-32.99 -95.39,-91.03 -105.88,328.11 147.68,595.96 327.24,648.45l0 -0z"/>
     <path id="_123955424" class="fil4" d="M2949.81 2428.65c0,0 39.32,146.81 148.54,314.11 0,0 -98.3,-12.52 -179.12,-70.56 0,0 28.4,70.56 86.28,108.12 0,0 19.66,165.03 126.69,360.78 0,0 -171.47,-11.38 -292.71,-129.74 0,0 53.52,105.84 159.46,158.19l53.5 145.07c0,0 -117.94,-1.67 -200.95,-93.86 0,0 20.74,63.17 69.71,100.59 0,0 10.02,100.85 70.09,196.45 0,0 -149.63,-25.04 -255.58,-137.71 0,0 14.2,50.08 46.96,86.5 0,0 5.46,72.84 24.03,125.19 -134.81,-82.63 -261.41,-290.29 -238.67,-460.39 98.56,60.07 134.46,50.45 152.31,50.67 0,0 -87.29,-127.46 -86.2,-276.55 0,0 46.96,35.28 151.81,28.45 0,0 -40.96,-108.66 -51.88,-200.85 0,0 16.39,26.71 62.26,35.81 0,0 -7.1,-245.82 153.45,-340.28l0 0.01z"/>
     <path id="_123955544" class="fil5" d="M3008.56 3268.2c0,0 -64.25,21.51 -157.05,-47.43 0,0 20.74,63.17 69.71,100.59 0,0 -12.84,77.03 8.6,140.88 0,0 -102.29,-4.62 -194.09,-82.14 0,0 14.2,50.08 46.96,86.5 0,0 5.46,72.84 24.03,125.19 -134.81,-82.63 -261.41,-290.29 -238.67,-460.39 98.56,60.07 134.46,50.45 152.31,50.67 0,0 -86.59,-126.45 -86.2,-274.78 118.79,154.45 205.82,269.69 374.39,360.9l0 0.01z"/>
     <path id="_123955640" class="fil6" d="M3003.25 2778.81l2.27 1.5c0,0 19.66,165.03 126.69,360.78 0,0 -1.95,-0.14 -5.53,-0.51 -167.4,-108.75 -130.98,-325.18 -123.44,-361.78l0 0z"/>
     <path id="_123955760" class="fil6" d="M2949.81 2428.65c0,0 39.19,146.33 148,313.29 -106.3,-64.73 -184.04,-201.75 -184.04,-201.75 -89.56,87.63 -113.59,225.34 -113.59,225.34 -1.31,-1.7 -2.58,-3.51 -3.83,-5.35 0.54,-44.54 10.93,-247.66 153.47,-331.52z"/>
     <path id="_123955856" class="fil6" d="M2888.65 2788.3c0,19.35 73.18,216.24 179.12,298.18l-4.37 -63.73c0,0 -88.47,-86.49 -174.75,-234.45z"/>
    </g>
    <path id="_123956000" class="fil3" d="M2114.43 3177.17c0,0 148.34,-153.28 156.58,-154.93 8.24,-1.65 87.83,108.99 -13.7,295.57l-123.92 -110.15 -18.95 -30.49z"/>
    <path id="_123956120" class="fil7" d="M2157.27 3191.97l101.86 -109.77c0,0 38.03,89.14 -31.22,197.11l-51.71 -56.18 -18.92 -31.16z"/>
    <path id="_123956216" class="fil8" d="M2260.17 3084.96c5.63,15.76 29.87,97.46 -32.27,194.34l-33.63 -36.54c52.7,-57.57 63.65,-131.65 65.9,-157.81z"/>
    <path id="_123956336" class="fil3" d="M1672.54 3155.27c-3.42,-8.87 -116.12,-98.31 -160.26,-139.22 -12.63,-11.7 -26.58,-9.65 -33.58,7.11 -15.38,36.8 -27.08,117.87 32.05,247.59 6.15,-4.64 166.82,-102.45 161.79,-115.49z"/>
    <path id="_123956432" class="fil7" d="M1623.23 3172.65c-7.55,-1.11 -68.48,-63.26 -99.79,-97.31 -15.31,-16.66 -24.18,-31.77 -28.64,6.75 -3.4,29.39 6.04,78.9 40.81,152.62 34.02,-25.63 53.61,-36.43 87.62,-62.06z"/>
    <path id="_123956552" class="fil8" d="M1501.16 3059.17c-2.71,2.6 -4.8,9.5 -6.36,22.92 -3.4,29.39 6.04,78.9 40.81,152.62 19.83,-14.94 34.76,-24.85 50.5,-35.59 -58.23,-49.26 -79.56,-118.7 -84.95,-139.95z"/>
    <path id="_123956648" class="fil3" d="M1476.33 3291.38c0,0 194.04,-217.12 405.38,-236.94 211.33,-19.83 393.77,291.43 393.77,291.43 0,0 -209.68,-223.72 -356.63,-236.93 -146.95,-13.21 -374.81,154.37 -442.51,182.44l-0.01 -0z"/>
    <path id="_123956768" class="fil3" d="M2347.7 3262.94c0,0 -2.93,90.92 -24.44,106.56 -21.51,15.64 -140.78,29.33 -140.78,29.33 0,0 141.76,25.41 171.09,-4.89 29.33,-30.3 -4.89,-130.02 -5.87,-131z"/>
    <g>
     <path id="_123956864" class="fil1" d="M1559.82 3371.01c0,0 -129.38,49.45 -178.83,16.48 -49.44,-32.96 7.42,-140.1 13.19,-148.34 0,0 -8.24,97.24 9.06,105.48 17.31,8.24 130.21,24.72 156.58,26.37z"/>
     <path id="_123938792" class="fil3" d="M1393.6 3237.3c0,0 9.89,78.29 28.02,91.47 18.13,13.19 141.74,42.85 141.74,42.85 0,0 -144.22,19.78 -173.06,-11.54 -28.84,-31.31 2.47,-121.97 3.3,-122.79z"/>
    </g>
    <path id="_123938936" class="fil3" d="M2257 3065.91c0,4.94 -6.59,88.17 -33.79,139.27 0,0 55.21,-63.45 60.16,-106.31 4.94,-42.85 -26.37,-32.96 -26.37,-32.96z"/>
    <path id="_123940088" class="fil3" d="M1488.13 3041.18c0,0 8.24,65.1 50.27,105.48 0,0 -23.9,-65.1 -24.72,-114.55l-15.75 -0.27 -9.8 9.33z"/>
    <g>
     <g>
      <g>
       <path id="_123940208" class="fil3" d="M1978.03 4637.78l263.49 99.38c-10.48,102.77 110.89,89.29 78.79,-2.61 32.98,-4.02 65,-33.59 45.38,-70.21 -22.58,-42.13 -79.95,-29.37 -103.82,4.14l-251.06 -92.32 -32.77 61.62 0 0z"/>
       <path id="_123940328" class="fil9" d="M1988.44 4618.93l284.5 101.93c0,0 -21.46,62.64 7.97,64.87 29.42,2.23 27.69,-39.57 11.07,-82.04 4.31,-0.36 16.06,7.09 21.3,12.6 58.11,-9.97 46.5,-50.81 14.76,-53.05 -24.25,-1.7 -42.17,13.24 -56.73,30.74l-275.47 -99.15 -7.41 24.1 0 0z"/>
       <ellipse id="_123940448" class="fil10" transform="matrix(-0.0320211 0.615478 -0.615478 -0.0320211 2322.08 4685.54)" rx="27.71" ry="45.37"/>
       <ellipse id="_123940544" class="fil10" transform="matrix(-0.52433 -0.0114416 0.0114416 -0.52433 2287.47 4757.23)" rx="27.71" ry="45.37"/>
      </g>
      <g>
       <path id="_123940712" class="fil3" d="M1820.04 4401.66l-263.49 99.38c10.48,102.77 -110.89,89.29 -78.79,-2.61 -32.98,-4.02 -65,-33.59 -45.38,-70.21 22.58,-42.13 79.95,-29.37 103.82,4.14l251.06 -92.32 32.77 61.62 -0 0z"/>
       <path id="_123940856" class="fil9" d="M1809.63 4382.81l-284.5 101.93c0,0 21.46,62.64 -7.97,64.87 -29.42,2.23 -27.69,-39.57 -11.07,-82.04 -4.31,-0.36 -16.06,7.09 -21.3,12.6 -58.11,-9.97 -46.5,-50.81 -14.76,-53.05 24.25,-1.7 42.17,13.24 56.73,30.74l275.47 -99.15 7.41 24.1 -0 0z"/>
       <ellipse id="_123940952" class="fil10" transform="matrix(0.0320211 0.615478 0.615478 -0.0320211 1475.99 4449.43)" rx="27.71" ry="45.37"/>
       <ellipse id="_123941072" class="fil10" transform="matrix(0.52433 -0.0114416 -0.0114416 -0.52433 1510.6 4521.09)" rx="27.71" ry="45.37"/>
      </g>
      <g>
       <path id="_123941240" class="fil3" d="M1914.96 4433.27l382.76 -75.37c9.24,-142.8 171.96,-96.57 107.04,21.62 44.13,13.05 81.1,60.79 45.89,106.33 -40.51,52.38 -115.96,21.8 -140.89,-29.45l-364.15 68.57 -30.65 -91.7z"/>
       <path id="_123941336" class="fil10" d="M1947.06 4457.81l389.06 -69.91c0,0 -14.12,-85.44 24.32,-81.96 38.44,3.49 27.15,57.04 -3.47,108.23 5.48,1.4 22.25,-5.67 30.2,-11.65 72.81,25.44 48.98,75.61 7.56,71.62 -31.65,-3.05 -51.53,-26.21 -66.53,-51.93l-376.8 68.28 -4.34 -32.69z"/>
       <path id="_123956984" class="fil9" d="M1947.06 4457.81l209.64 -37.67c-4.33,10.07 -8.34,21.77 -11.52,35.24l-193.78 35.11 -4.34 -32.68z"/>
       <path id="_123957080" class="fil9" d="M2336.01 4421.01c0,0 14.09,33.34 47.78,43.65 33.69,10.3 45.11,-19.11 45.11,-19.11 0,0 -32.35,11.2 -92.89,-24.54z"/>
      </g>
      <g>
       <path id="_123957224" class="fil3" d="M1866.39 4233.15l-291.39 -100.57c8.28,-112.78 -124.11,-94.26 -86.13,5.3 -35.96,5.42 -70.08,38.77 -47.47,78.23 26.02,45.4 88.39,29.66 113.47,-7.74l277.57 93.22 33.95 -68.44 0 0z"/>
       <path id="_123957344" class="fil10" d="M1828.27 4247.38l-286.51 -93.58c0,0 19.62,-63.05 -9.78,-64.45 -29.4,-1.39 -26.49,40.23 -8.72,82.1 -4.28,0.48 -16.21,-6.61 -21.59,-11.96 -57.65,11.58 -44.92,51.97 -13.21,53.3 24.22,1.01 41.66,-14.39 55.69,-32.25l277.42 91.06 6.7 -24.23z"/>
       <path id="_123957440" class="fil9" d="M1828.27 4247.38l-154.38 -50.42c2.22,8.06 4.01,17.31 5.01,27.82l142.67 46.83 6.7 -24.23z"/>
       <path id="_123941408" class="fil9" d="M1538.38 4178.82c0,0 -14.14,23.71 -40.66,27.96 -26.52,4.25 -32.06,-19.16 -32.06,-19.16 0,0 23.26,11.85 72.73,-8.8z"/>
      </g>
      <path id="_123941552" class="fil3" d="M1744.64 3286.44c0,0 -64.39,163.46 -293.9,303.81 0,0 172.17,189.29 284.54,457.01 102.22,-10.6 192.6,-15.39 295.86,-21.46 112.38,-267.72 271.33,-435.54 271.33,-435.54 -229.5,-140.34 -293.9,-303.81 -293.9,-303.81l-49.53 92.46 -88.31 -140.35 -76.57 140.35 -49.53 -92.46z"/>
      <path id="_123941648" class="fil4" d="M1742.99 3385.53c0,0 -81.7,121.32 -220.39,213.79 0,0 190.67,238.59 255.07,456.53l194.83 -1.65c0,0 92.46,-272.43 262.53,-452.41 0,0 -135.39,-74.3 -219.6,-193.18 0,0 -35.5,20.7 -48.71,114.83l-89.15 -192.4c0,0 -52.02,89.13 -91.65,211.31 0,0 -19.81,-57.79 -11.56,-110.62l-31.37 -46.2 0 0z"/>
      <path id="_123941792" class="fil5" d="M1619.16 3662.58c0,0 95.76,158.81 128.79,358.6l257.57 1.65c0,0 74.3,-282.34 137.04,-368.2 0,0 -96.62,11.64 -165.13,100.01l-52.54 -137.39 -48.62 172.23c0,0 -18.13,-103.01 -109.6,-149.98l6.59 203.55c0,0 -56.04,-112.9 -154.1,-180.48l0 -0z"/>
      <path id="_123941912" class="fil6" d="M1742.99 3385.53c0,0 -81.7,121.32 -220.39,213.79l0.87 1.09c18.79,-7.82 112.9,-48.42 189.8,-107.58 0,0 29.72,77.6 99.07,118.88l61.09 -160.16 105.67 166.76c0,0 18.16,-85.86 49.53,-120.53 0,0 67.54,93.3 198.36,112.63 2.66,-2.89 5.33,-5.76 8.03,-8.61 0,0 -135.39,-74.3 -219.6,-193.18 0,0 -35.5,20.7 -48.71,114.83l-89.15 -192.4c0,0 -52.02,89.13 -91.65,211.31 0,0 -19.81,-57.79 -11.56,-110.62l-31.37 -46.2z"/>
      <g>
       <path id="_123942032" class="fil3" d="M2075.5 4038.13l-139.42 126.31c-33.5,30.35 -79.81,40.32 -120.17,17.05 -29.14,-16.8 -47.6,-47.45 -50.28,-80.82 -3.01,-37.52 13.74,-71.8 41.2,-96.67l159.26 -144.31c27.21,-24.66 62.88,-35.85 96.95,-26.72 11.49,3.08 38.43,-25.62 49.2,-6 38.68,70.46 21.05,158.81 -36.73,211.15z"/>
       <path id="_123942128" class="fil4" d="M2049.39 3987.1l-155.97 134.41c-58.27,50.22 -96.12,-9.82 -52.19,-79.53l103.13 -163.69c21.87,-21.3 94.77,-111.79 117.59,-51.65 10.68,28.15 16.11,57.7 15.68,84.33 -0.52,32.15 -9.59,60.05 -28.24,76.13z"/>
      </g>
      <g>
       <path id="_123942272" class="fil3" d="M1732.52 4194.01l159.26 144.3c33.5,30.35 79.81,40.32 120.17,17.05 29.14,-16.8 47.6,-47.46 50.28,-80.82 3.02,-37.52 -13.74,-71.8 -41.19,-96.67l-159.26 -144.31c-33.49,-30.35 -79.79,-40.31 -120.16,-17.06 -29.15,16.8 -47.61,47.46 -50.3,80.82 -3.02,37.52 13.73,71.8 41.19,96.69z"/>
       <path id="_123942392" class="fil4" d="M1766.93 4156.03l159.27 144.3c57.01,51.66 121.5,-29.15 60.43,-84.48l-159.26 -144.31c-57.02,-51.66 -121.49,29.16 -60.43,84.49z"/>
      </g>
      <g>
       <path id="_123942536" class="fil3" d="M2095.34 4212l-159.27 144.3c-33.5,30.35 -79.8,40.32 -120.17,17.05 -29.14,-16.8 -47.6,-47.45 -50.28,-80.81 -3.01,-37.52 13.3,-72.29 41.2,-96.68l165.03 -144.31c34.02,-29.75 74.03,-40.32 114.38,-17.06 29.15,16.8 47.62,47.45 50.3,80.82 3.02,37.52 -13.73,71.81 -41.19,96.69z"/>
       <path id="_123957584" class="fil4" d="M2060.93 4174.03l-159.26 144.3c-57.01,51.66 -121.5,-29.15 -60.43,-84.48l159.27 -144.31c57.01,-51.66 121.49,29.16 60.43,84.48z"/>
      </g>
      <g>
       <path id="_123957728" class="fil3" d="M1703.71 4370.74l159.27 144.3c33.5,30.35 79.8,40.31 120.17,17.05 29.14,-16.8 47.6,-47.45 50.28,-80.82 3.01,-37.52 -13.74,-71.8 -41.2,-96.67l-159.26 -144.31c-33.49,-30.35 -79.79,-40.32 -120.15,-17.06 -29.15,16.8 -47.62,47.45 -50.3,80.82 -3.02,37.52 13.73,71.8 41.19,96.69z"/>
       <path id="_123957848" class="fil4" d="M1738.13 4332.76l159.26 144.3c57.01,51.66 121.5,-29.15 60.43,-84.48l-159.27 -144.3c-57.01,-51.67 -121.49,29.16 -60.43,84.48z"/>
      </g>
      <path id="_123957992" class="fil6" d="M1771.61 4241.28l149.04 133.85 -29.97 24.63c0,0 -157.25,-151.91 -119.07,-158.48z"/>
      <g>
       <path id="_123958088" class="fil3" d="M2095.34 4407.17l-159.27 144.3c-33.5,30.35 -79.8,40.31 -120.17,17.05 -29.14,-16.8 -47.6,-47.45 -50.28,-80.82 -3.01,-37.52 13.74,-71.8 41.2,-96.67l159.26 -144.31c33.49,-30.35 79.79,-40.32 120.15,-17.06 29.15,16.8 47.62,47.45 50.3,80.82 3.02,37.52 -13.73,71.8 -41.19,96.69z"/>
       <path id="_123958208" class="fil4" d="M2060.93 4369.19l-159.26 144.3c-57.01,51.66 -121.5,-29.15 -60.43,-84.48l159.27 -144.3c57.01,-51.67 121.49,29.16 60.43,84.48z"/>
      </g>
      <g>
       <path id="_123958352" class="fil3" d="M1703.71 4581.39l159.27 144.3c33.5,30.35 79.8,40.32 120.17,17.05 29.14,-16.8 47.6,-47.45 50.28,-80.82 3.01,-37.52 -13.74,-71.8 -41.2,-96.67l-159.26 -144.31c-33.49,-30.35 -79.79,-40.31 -120.15,-17.06 -29.15,16.8 -47.62,47.46 -50.3,80.82 -3.02,37.52 13.73,71.8 41.19,96.69z"/>
       <path id="_123958448" class="fil4" d="M1738.13 4543.41l159.26 144.3c57.01,51.66 121.5,-29.15 60.43,-84.48l-159.27 -144.3c-57.01,-51.67 -121.49,29.16 -60.43,84.48z"/>
      </g>
      <path id="_123958592" class="fil6" d="M1770.79 4453.06l149.04 133.85 -29.97 24.63c0,0 -157.25,-151.91 -119.07,-158.48z"/>
      <g>
       <path id="_123958712" class="fil3" d="M2095.34 4614.92l-159.27 144.3c-33.5,30.35 -79.8,40.32 -120.17,17.05 -29.14,-16.8 -47.6,-47.45 -50.28,-80.82 -3.01,-37.52 13.74,-71.8 41.2,-96.67l159.26 -144.31c33.49,-30.35 79.79,-40.31 120.15,-17.06 29.15,16.8 47.62,47.45 50.3,80.82 3.02,37.52 -13.73,71.8 -41.19,96.69z"/>
       <path id="_123942680" class="fil4" d="M2060.93 4576.94l-159.26 144.3c-57.01,51.66 -121.5,-29.15 -60.43,-84.48l159.27 -144.3c57.01,-51.67 121.49,29.16 60.43,84.48z"/>
      </g>
      <path id="_123942824" class="fil3" d="M1725.46 4800.64c0,0 -90.62,145.13 -76.58,204.59 26.34,111.56 234.26,182.91 203.49,293.16 0,0 282.75,-40.54 320.73,-314.63 0,0 10.75,-51.99 -85.04,-193.17 0,0 -118.67,-4.79 -126.91,-4.79 -8.24,0 -235.69,14.83 -235.69,14.83l0 0z"/>
      <path id="_123942968" class="fil4" d="M1766 4832.28c0,0 -85.03,117.41 -73.46,166.39 21.7,91.91 205.84,165.94 200.57,245.53 0,0 192.8,-48.65 236.93,-262.42 0,0 4.78,-40.12 -74.13,-156.43 -99.26,-7.05 -190.24,-0.49 -289.9,6.92z"/>
      <path id="_123943064" class="fil5" d="M1722.78 4996.66c-0.16,3.99 0.11,7.7 0.89,11.04 19.02,80.53 180.36,145.4 175.73,215.13 0,0 168.93,-42.62 207.6,-229.92 0,0 0.09,-0.78 0.02,-2.41 -162.3,46.38 -309.99,23.92 -384.24,6.16z"/>
      <path id="_123943184" class="fil3" d="M1726.29 4596.28l-18.95 204.37c46.52,84.74 364.32,78.14 405.89,0l-18.95 -204.37c-126.05,76.13 -241.93,76.13 -367.98,0l-0 0z"/>
      <path id="_123943304" class="fil11" d="M1758.91 4658.36l-13.6 124.87c38.43,63.02 300.97,58.11 335.31,0l-13.6 -123.23c-104.96,35.98 -208.49,35.69 -308.11,-1.64l0 0z"/>
      <path id="_123943448" class="fil12" d="M1758.91 4658.36l-2.2 20.17c38.88,19.64 155.86,65.45 312.97,5.62l-2.67 -24.15c-104.96,35.98 -208.49,35.69 -308.11,-1.64z"/>
      <path id="_123943544" class="fil13" d="M1763.24 4726.99l-8.62 51.73c0,0 27.1,47.63 169.16,43.52 0,0 113.32,-2.46 146.99,-39.83l-6.57 -52.14c0,0 -146.99,63.64 -300.95,-3.28z"/>
      <g>
       <path id="_123943664" class="fil3" d="M2081.85 4704.52c0,0 -47.63,38.59 -171.21,51.73 0,0 87.86,10.68 179.42,-19.71l1.64 -13.55 -9.85 -18.48z"/>
       <path id="_123943784" class="fil3" d="M1751.12 4703.86c0,0 52.41,42.74 172.24,52.4 0,0 -87.86,10.68 -179.42,-19.71l-1.64 -13.55 8.82 -19.15z"/>
      </g>
      <path id="_123943928" class="fil6" d="M2011.64 4089.36l-149.04 133.85 29.97 24.63c0,0 157.25,-151.91 119.07,-158.48z"/>
      <path id="_123958856" class="fil6" d="M2015.76 4291.26l-149.04 133.85 29.97 24.63c0,0 157.25,-151.91 119.07,-158.48z"/>
      <path id="_123958952" class="fil6" d="M2025.3 4486.94l-149.04 133.85 29.97 24.63c0,0 157.25,-151.91 119.07,-158.48z"/>
      <path id="_123959072" class="fil5" d="M2026.83 4874.39c0,0 49.68,116.6 50.91,122.76 1.23,6.16 -87.74,115.83 -87.74,115.83l51.92 -104.66 -15.09 -133.93z"/>
      <polygon id="_123959168" class="fil5" points="1799.63,4870.7 1743.59,5010.8 1777.38,5014.9 "/>
      <polygon id="_123959312" class="fil4" points="1999.89,4998.43 1953.74,5151.71 2041.91,5006.67 "/>
      <path id="_123959408" class="fil4" d="M1853.2 4981.13c0,6.59 37.08,154.93 37.08,154.93l9.89 -140.1 -46.97 -14.83z"/>
      <path id="_123927224" class="fil5" d="M2067.46 3832.35l-138.45 194.49 22.25 -184.6c0,0 99.71,-114.55 116.2,-9.89z"/>
     </g>
     <path id="_123927296" class="fil3" d="M2124.08 3374.3c0,0 6.59,76.64 46.15,153.28l69.22 20.6c0,0 -75.82,-79.11 -115.37,-173.88z"/>
     <path id="_123959624" class="fil3" d="M1627.3 3382.34c0,0 -8.41,76.46 -49.77,152.14l-69.69 18.95c0,0 77.67,-77.29 119.46,-171.1z"/>
    </g>
   </g>
  </g>
 </g>
</svg>
