<?xml version="1.0" encoding="UTF-8"?>
<!DOCTYPE svg PUBLIC "-//W3C//DTD SVG 1.1//EN" "http://www.w3.org/Graphics/SVG/1.1/DTD/svg11.dtd">
<!-- Creator: CorelDRAW 2020 (64-Bit) -->
<svg xmlns="http://www.w3.org/2000/svg" xml:space="preserve" width="129.436mm" height="197.988mm" version="1.1" style="shape-rendering:geometricPrecision; text-rendering:geometricPrecision; image-rendering:optimizeQuality; fill-rule:evenodd; clip-rule:evenodd"
viewBox="0 0 1334.79 2041.72"
 xmlns:xlink="http://www.w3.org/1999/xlink"
 xmlns:xodm="http://www.corel.com/coreldraw/odm/2003">
 <defs>
  <style type="text/css">
   <![CDATA[
    .fil0 {fill:none}
    .fil5 {fill:#4B3446}
    .fil2 {fill:#501D33}
    .fil3 {fill:#634C54}
    .fil4 {fill:#896E6B}
    .fil1 {fill:#8E7A5D}
    .fil6 {fill:#C3C077}
   ]]>
  </style>
 </defs>
 <g id="Слой_x0020_1">
  <metadata id="CorelCorpID_0Corel-Layer"/>
  <g id="_1746389160480">
   <g id="_119111120">
    <rect id="_281784136" class="fil0" y="0" width="1334.79" height="2041.72"/>
    <path id="_118815600" class="fil1" d="M901.32 1202.69c-1.98,1.27 -3.96,2.55 -5.96,3.82 -147.53,93.57 -293.56,97.29 -442.9,4.13 -13.26,-8.27 -26.05,-16.67 -38.16,-25l-0.01 -0.33c0,0 221.73,138.6 487.04,17.39l-0 0z"/>
    <polygon id="_118815384" class="fil2" points="922.11,1210.64 918.04,1072.46 938.37,1198.45 "/>
    <polygon id="_118815312" class="fil2" points="409.93,1210.64 413.99,1072.46 393.67,1198.45 "/>
    <path id="_123927872" class="fil2" d="M281.07 875.01c0,0 -11.72,107.7 -42.75,140.21 0,0 16.98,5.23 38.05,-6.39 0,0 -12.29,51.67 -39.22,71.99 0,0 8.78,6.97 39.81,-5.81 0,0 4.68,34.83 -26.93,65.61 0,0 9.95,30.19 53.86,34.84 0,0 -4.1,20.32 -39.23,38.9 0,0 12.29,20.32 52.1,19.16 0,0 -1.05,59.88 -28.01,95.91 0,0 14.57,9.76 33.89,3.95 0,0 -14.08,36 1.15,75.48 0,0 2.93,-8.71 24,-17.42 0,0 11.71,31.35 4.68,69.09 0,0 2.34,1.74 20.49,-5.23 0,0 11.71,77.22 112.99,92.89 0,0 -25.72,-30.49 -14.02,-76.94 0,0 2.93,8.13 15.22,11.61 0,0 0.29,-33.67 29.56,-63.28 0,0 9.04,8.13 18.41,11.61 0,0 4.67,-79.89 132.29,-119.51 127.62,39.62 132.29,116.32 132.29,116.32 9.37,-3.48 15.22,-11.61 15.22,-11.61 29.27,29.61 30.43,65.6 30.43,65.6 12.29,-3.48 17.54,-11.61 17.54,-11.61 11.71,46.45 -14.02,77.81 -14.02,77.81 101.28,-15.68 112.99,-92.89 112.99,-92.89 18.15,6.97 20.49,5.23 20.49,5.23 -7.03,-37.74 4.68,-69.09 4.68,-69.09 21.08,8.71 24,17.42 24,17.42 15.22,-39.48 -1.76,-75.48 -1.76,-75.48 19.32,5.81 36.79,-3.95 36.79,-3.95 -26.95,-36.03 -28.01,-95.91 -28.01,-95.91 39.81,1.16 52.1,-19.16 52.1,-19.16 -35.13,-18.58 -39.23,-38.9 -39.23,-38.9 43.91,-4.64 53.86,-34.84 53.86,-34.84 -31.61,-30.77 -26.93,-65.61 -26.93,-65.61 31.03,12.77 39.81,5.81 39.81,5.81 -26.93,-20.32 -39.22,-71.99 -39.22,-71.99 21.08,11.61 38.05,6.39 38.05,6.39 -31.03,-32.51 -42.75,-140.21 -42.75,-140.21 -58.53,39.19 -62.04,99.29 -62.04,99.29 -16.97,-12.78 -18.14,-20.05 -18.14,-20.05 -24.31,53.99 -23.12,86.52 -23.12,86.52 -26.93,-11.61 -35.64,-35.59 -35.64,-35.59 -31.64,44.16 -53.91,118.54 -53.91,118.54l-58.6 -15.11 -125.67 0 -18.48 0 -125.67 0 -58.6 15.11c0,0 -22.27,-74.38 -53.91,-118.54 0,0 -8.71,23.98 -35.64,35.59 0,0 1.18,-32.53 -23.12,-86.52 0,0 -1.17,7.27 -18.14,20.05 0,0 -3.51,-60.1 -62.04,-99.29z"/>
    <path id="_123927968" class="fil3" d="M295.7 907.23c0,0 -2.93,49.93 -23.42,84.18 0,0 14.05,-4.06 28.1,-15.1 0,0 -4.1,44.71 -21.66,76.64 0,0 16.39,-1.74 31.61,-23.8 0,0 3.51,65.02 -32.2,107.41l-1.91 3.02c0,0 10.23,26.66 73.05,24.34 0,0 -10.52,8.69 -30.68,12.46 0,0 -7.09,25.79 -26.99,37.4 0,0 16.77,11.57 54.46,4.04 0,0 -7.31,8.4 -13.44,10.72 0,0 2.89,58.97 -17.6,86.84 0,0 20.82,4.15 48.28,-19.03 0,0 -6.14,23.47 -23.96,33.03 0,0 -11.4,22.89 -6.14,49.26 0,0 8.77,-4.93 30.1,-7.53l-6.14 8.69c0,0 14.64,20.34 12.3,55.18 0,0 12.24,0.17 21.89,-15.48 0,0 2.63,15.36 -6.14,26.66 0,0 7.01,53.32 67.79,69.55 0,0 -10.36,-40.09 14.23,-76.66 0,0 6.81,10.59 12.95,13.78 0,0 6.43,-32.17 36.23,-59.4 0,0 5.55,8.4 10.52,11.01 0,0 12.31,-78.6 134.67,-112.28l5.83 -1.32 5.83 1.32c122.36,33.67 132.64,107.93 132.64,107.93 4.97,-2.61 12.84,-8.4 12.84,-8.4 29.8,27.24 35.94,61.14 35.94,61.14 6.14,-3.19 12.95,-13.78 12.95,-13.78 24.59,36.58 14.23,76.66 14.23,76.66 60.78,-16.23 67.79,-69.55 67.79,-69.55 -8.77,-11.3 -6.14,-26.66 -6.14,-26.66 9.64,15.65 21.89,15.48 21.89,15.48 -2.34,-34.84 12.3,-55.18 12.3,-55.18l-6.14 -8.69c21.33,2.61 30.1,7.53 30.1,7.53 5.26,-26.37 -6.14,-49.26 -6.14,-49.26 -17.82,-9.56 -23.96,-33.03 -23.96,-33.03 27.47,23.18 48.28,19.03 48.28,19.03 -20.49,-27.87 -17.6,-86.84 -17.6,-86.84 -6.14,-2.32 -13.44,-10.72 -13.44,-10.72 37.69,7.53 54.46,-4.04 54.46,-4.04 -19.9,-11.61 -26.99,-37.4 -26.99,-37.4 -20.16,-3.77 -30.68,-12.46 -30.68,-12.46 62.82,2.32 73.05,-24.34 73.05,-24.34l-1.91 -3.02c-35.71,-42.38 -32.2,-107.41 -32.2,-107.41 15.22,22.06 31.61,23.8 31.61,23.8 -17.56,-31.93 -21.66,-76.64 -21.66,-76.64 14.05,11.03 28.1,15.1 28.1,15.1 -20.49,-34.25 -23.42,-84.18 -23.42,-84.18 -39.15,48.97 -34,96.44 -34,96.44 -19.29,-9.27 -28.64,-16.32 -28.64,-16.32 -8.78,30.19 -9.37,76.64 -9.37,76.64 -38.64,-6.39 -50.93,-27.29 -50.93,-27.29l-5.27 11.03c-19.32,30.19 -45.08,98.12 -45.08,98.12l-64.98 -25.55 -133.46 1.97 -133.46 -1.97 -64.98 25.55c0,0 -25.76,-67.93 -45.08,-98.12l-5.27 -11.03c0,0 -12.29,20.9 -50.93,27.29 0,0 -0.59,-46.45 -9.37,-76.64 0,0 -9.36,7.05 -28.64,16.32 0,0 5.16,-47.47 -34,-96.44z"/>
    <path id="_123928088" class="fil4" d="M1039.32 909.29c-0.11,-1.33 -0.15,-2.06 -0.15,-2.06 -39.15,48.97 -34,96.44 -34,96.44 -19.29,-9.27 -28.64,-16.32 -28.64,-16.32 -8.78,30.19 -9.37,76.64 -9.37,76.64 -38.64,-6.39 -50.93,-27.29 -50.93,-27.29l-5.27 11.03c-19.32,30.19 -45.08,98.12 -45.08,98.12l-64.98 -25.55 -26.24 0.39c40.61,49.64 108.05,113.45 108.05,113.45 -8.14,-116.22 38.96,-168.4 38.96,-168.4 12.77,12.19 42.38,13.93 42.38,13.93 4.64,20.9 19.16,38.32 19.16,38.32 -10.45,-47.61 1.74,-103.92 1.74,-103.92l33.67 15.68 0 -22.06c-4.87,-49.23 14.39,-87.4 20.7,-98.39z"/>
    <path id="_123928232" class="fil4" d="M494.25 1135.92l-25.26 9.93c0,0 -25.76,-67.93 -45.08,-98.12l-5.27 -11.03c0,0 -12.29,20.9 -50.93,27.29 0,0 -0.59,-46.45 -9.37,-76.64 0,0 -9.36,7.05 -28.64,16.32 0,0 5.03,-46.41 -32.7,-94.79 5.6,12.44 28.6,67.58 17.35,111.01 0,0 18.26,1.74 33.9,-8.98 0,0 11.98,39.15 0.37,81.53 0,0 47.03,-9.29 63.28,-27.87 0,0 50.51,75.48 39.48,167.21l33.67 -40.06c0,0 3.88,-23.02 9.18,-55.81z"/>
    <path id="_123928352" class="fil5" d="M601.76 1126.42c0.58,2.9 21.48,23.22 33.09,69.09 0,0 7.52,-21.17 13.61,-44.64 0,0 15.36,23.47 18.55,44.34 0,0 6.66,-10.72 13.04,-35.35 0,0 0.87,13.04 10.72,29.85 0,0 30.43,-49.55 51.58,-60.56l-39.41 -12.75c0,0 -85.48,-1.16 -101.18,10.03z"/>
    <path id="_123928448" class="fil5" d="M490.29 1288.1c0,0 69.09,-2.9 81.28,-73.73l-0.58 -53.99c0,0 57.48,-45.87 99.86,-50.51l92.31 48.19c0,0 -18.58,127.15 83.02,131.79 0,0 -20.32,-152.11 -20.32,-155.6 0,-3.48 -30.77,-78.38 -49.35,-83.6 -18.58,-5.23 -138.18,-40.64 -146.31,-36.58 -8.13,4.06 -46.45,17.42 -59.8,30.19 -13.35,12.77 -76.06,63.86 -75.48,75.48 0.58,11.61 33.09,106.83 -4.64,168.37z"/>
    <path id="_123928568" class="fil5" d="M293.52 1214.85c5.36,2.69 22.14,9.04 52.54,2.96 0,0 -7.31,8.4 -13.44,10.72 6.3,0.82 14.5,60.48 -17.6,86.84 0,0 20.82,4.15 48.28,-19.03 0,0 -6.14,23.47 -23.96,33.03 0,0 -11.4,22.89 -6.14,49.26 0,0 8.77,-4.93 30.1,-7.53l-6.14 8.69c0,0 14.64,20.34 12.3,55.18 0,0 12.24,0.17 21.89,-15.48 0,0 2.63,15.36 -6.14,26.66 0,0 4.5,32.55 53.87,46.61 0,0 -0.05,-30.73 28.15,-53.73 0,0 6.81,10.59 12.95,13.78 0,0 6.43,-32.17 36.23,-59.4 0,0 5.55,8.4 10.52,11.01 9.56,-61.05 90.65,-114.41 140.79,-125.77 46.72,10.59 129.96,62.04 138.18,121.42 4.97,-2.61 12.84,-8.4 12.84,-8.4 29.8,27.24 35.94,61.14 35.94,61.14 6.14,-3.19 12.95,-13.78 12.95,-13.78 33.57,32.81 25.54,62.15 25.54,62.15 46.86,-25.84 46.78,-43.99 50.35,-81.7 9.64,15.65 21.89,15.48 21.89,15.48 -2.34,-34.84 12.3,-55.18 12.3,-55.18l-6.14 -8.69c21.33,2.61 30.1,7.53 30.1,7.53 5.26,-26.37 -6.14,-49.26 -6.14,-49.26 -17.82,-9.56 -23.96,-33.03 -23.96,-33.03 27.47,23.18 48.28,19.03 48.28,19.03 -34.09,-28.84 -25.76,-87.42 -17.6,-86.84 -6.14,-2.32 -13.44,-10.72 -13.44,-10.72 37.69,7.53 54.46,-4.04 54.46,-4.04l-0.22 -0.13c-38.83,0.55 -77.84,-11.47 -77.84,-11.47 -21.48,40.06 -21.48,71.99 -21.48,71.99 -5.81,-14.51 -15.1,-21.48 -15.1,-21.48 11.61,42.38 -29.03,98.7 -29.03,98.7 -8.71,-29.03 -28.45,-42.38 -28.45,-42.38 -11.03,46.45 -27.87,51.67 -27.87,51.67 -11.61,-51.09 -63.28,-95.22 -63.28,-95.22 -10.45,22.06 -9.87,39.48 -9.87,39.48 -34.25,-31.35 -30.77,-82.44 -30.77,-82.44 -24.97,21.48 -29.61,44.12 -29.61,44.12 -33.67,-19.16 -46.45,-52.83 -46.45,-52.83 -20.32,45.29 -49.35,57.48 -49.35,57.48 -24.97,-12.77 -29.61,-38.9 -29.61,-38.9 -65.61,43.54 -74.9,123.08 -74.9,123.08 -22.64,-17.42 -23.22,-42.38 -23.22,-42.38 -42.96,19.16 -50.97,36.13 -50.97,36.13 -25.57,-46.49 -7.09,-99.42 -7.09,-99.42 -47.61,15.68 -74.31,1.16 -74.31,1.16 23.8,-47.61 19.16,-70.83 19.16,-70.83 -21.26,25.07 -73.21,33.77 -79.49,34.74z"/>
    <path id="_123928664" class="fil2" d="M582.11 1123.92c0,0 26.66,14.2 47.23,22.6 0,0 39.99,-9.85 90.12,2.03 0,0 29.27,-17.68 46.94,-38.25 17.68,-20.57 -85.19,-56.22 -90.7,-55.93 -5.51,0.29 -37.67,-8.4 -46.65,-1.74 -8.98,6.66 -46.94,71.28 -46.94,71.28z"/>
    <path id="_123928784" class="fil1" d="M601.84 1113.05c0,0 20.85,11.1 36.93,17.67 0,0 31.27,-7.7 70.47,1.59 0,0 22.89,-13.82 36.71,-29.91 13.82,-16.09 -66.62,-43.96 -70.92,-43.73 -4.3,0.23 -29.46,-6.57 -36.48,-1.36 -7.02,5.21 -36.71,55.74 -36.71,55.74z"/>
    <path id="_123928904" class="fil2" d="M639.03 961.52c-9.91,0.19 -114.3,40.36 -177.64,56.61 0,0 21.85,16.55 31.23,21.76 0,0 -47,38.32 -66.9,55.16 0,0 8.16,13.93 23.93,18.86 0,0 21.98,50.47 2.66,122.53 0,0 14.23,-2.93 31.12,-17.44 0,0 11.46,19.74 4.83,70.25 63.77,-22.12 71.94,-79.69 57.27,-137.61 0,0 61.01,-28.81 120.51,-60.55 58.71,30.92 119.72,60.55 119.72,60.55 -9.86,62.26 -2.91,115.49 60.86,137.61 -6.63,-50.51 4.83,-70.25 4.83,-70.25 16.89,14.51 31.12,17.44 31.12,17.44 -19.32,-72.06 2.66,-122.53 2.66,-122.53 18.09,-4.64 30.02,-17.41 30.02,-17.41 -19.91,-16.84 -75.17,-61.25 -75.17,-61.25 15.29,-3.48 38.46,-17.42 38.46,-17.42 -63.34,-16.26 -182.11,-54.29 -182.11,-54.29 -19.81,-0.38 -47.48,-2.22 -57.39,-2.03z"/>
    <path id="_123929024" class="fil3" d="M657.15 978.06l-146.58 44.12 18.7 9.87 -75.4 63.28c0,0 3.62,9.29 38.6,6.39 0,0 -6.57,9.46 -24.33,13.51 0,0 16.26,44.92 7.53,85.48 0,0 7.22,1.74 26.49,-7.82 0,0 0.28,7.82 -6.94,14.49 0,0 13.85,23.76 10.84,57.09 38.96,-26.41 31.44,-83.1 21.4,-122.29l134.56 -66.94 5.41 -1.34 5.41 1.34 133.37 68.39c-7.66,41.87 -13.29,92.11 24.39,121.13 -3.01,-33.32 11.14,-55.06 11.14,-55.06 -7.22,-6.66 -9.03,-16.81 -9.03,-16.81 19.27,9.56 26.49,7.82 26.49,7.82 -8.73,-40.57 7.53,-85.48 7.53,-85.48 -17.76,-4.06 -24.33,-13.51 -24.33,-13.51 34.99,2.9 38.6,-6.39 38.6,-6.39l-75.4 -63.28 18.7 -9.87 -146.58 -44.12 -10.29 0.71 -10.29 -0.71z"/>
    <path id="_123929120" class="fil5" d="M475.9 1200.75c1.34,0.19 8.92,0.75 26.27,-7.86 0,0 0.28,7.82 -6.94,14.49 0,0 13.85,23.76 10.84,57.09 38.96,-26.41 31.44,-83.1 21.4,-122.29l134.56 -66.94 5.41 -1.34 5.41 1.34 133.37 68.39c-7.27,39.73 -12.71,87.01 18.97,116.53 1.7,-0.95 3.37,-1.89 5.02,-2.83 -0.53,-29.09 11.54,-47.63 11.54,-47.63 -7.22,-6.66 -9.03,-16.81 -9.03,-16.81 19.27,9.56 26.49,7.82 26.49,7.82 -0.16,-0.74 -0.31,-1.49 -0.45,-2.23 -12.97,-14.16 -27.24,-37.47 -38.1,-75.85 0,0 -61.54,-7.55 -89.99,-42.38 0,0 23.87,10.64 60.96,6.87 0,0 -45.61,-6.08 -93.96,-34.64 -23.14,-13.66 -31.86,-16.1 -53.77,-2.24 -13.05,8.25 -37.55,20.07 -75.4,24.42 0,0 12.46,8.4 30.43,8.4 0,0 -35.35,33.03 -92.44,38.25 0,0 1.45,8.4 11.3,13.62 0,0 -10.62,46.38 -41.88,65.82z"/>
    <path id="_123929240" class="fil4" d="M657.15 978.06l-146.58 44.12 147.74 -27.29 10.29 0.71 10.29 -0.71c27.75,8.14 99.8,24.05 145.42,27.29l-146.58 -44.12 -10.29 0.71 -10.29 -0.71zm-128.72 54.1l-74.55 63.18c25.51,-10.26 57.14,-19.67 74.55,-63.18zm352.86 63.18c-24.97,-21.13 -50.23,-42.27 -75.2,-63.4 2.83,15.6 43.85,65.59 75.2,63.4z"/>
    <path id="_123948848" class="fil5" d="M445.59 1260.82c-3.48,2.32 -30.19,70.83 -22.64,109.73l28.45 4.64c0,0 -18,-51.67 -5.81,-114.38z"/>
    <path id="_123948968" class="fil6" d="M628.76 1118.69l13.66 6.07c0,0 30.1,-6.32 58.69,1.52l7.34 -4.81c0,0 -27.83,-21.76 -79.69,-2.78z"/>
   </g>
  </g>
 </g>
</svg>
