<?xml version="1.0" encoding="UTF-8"?>
<!DOCTYPE svg PUBLIC "-//W3C//DTD SVG 1.1//EN" "http://www.w3.org/Graphics/SVG/1.1/DTD/svg11.dtd">
<!-- Creator: CorelDRAW 2020 (64-Bit) -->
<svg xmlns="http://www.w3.org/2000/svg" xml:space="preserve" width="129.436mm" height="197.988mm" version="1.1" style="shape-rendering:geometricPrecision; text-rendering:geometricPrecision; image-rendering:optimizeQuality; fill-rule:evenodd; clip-rule:evenodd"
viewBox="0 0 14264.91 21819.96"
 xmlns:xlink="http://www.w3.org/1999/xlink"
 xmlns:xodm="http://www.corel.com/coreldraw/odm/2003">
 <defs>
  <style type="text/css">
   <![CDATA[
    .fil0 {fill:none}
    .fil3 {fill:#4B3446}
    .fil2 {fill:#501D33}
    .fil4 {fill:#634C54}
    .fil6 {fill:#856969}
    .fil1 {fill:#8E7A5D}
    .fil5 {fill:#AE9F90}
    .fil8 {fill:#C3C077}
    .fil7 {fill:#D2C8AD}
   ]]>
  </style>
 </defs>
 <g id="Слой_x0020_1">
  <metadata id="CorelCorpID_0Corel-Layer"/>
  <g id="_1781972377840">
   <g id="_118815744">
    <rect id="_118824864" class="fil0" y="0.01" width="14264.91" height="21819.97"/>
    <path id="_119102456" class="fil1" d="M9621.61 12961.91c-30.11,-464.99 -30.44,-937.24 -30.44,-956.06l2.79 -0.94c-235.87,-395.93 -633.4,-585.02 -758.83,-636.86 -179.87,-312.17 -462.81,-420.42 -582.45,-453.53 -54.17,-72.48 -169.41,-189.75 -353,-199.81 -112.89,-78.4 -183.03,-126.5 -183.03,-126.5l-579.81 104.38 -579.83 -104.38c0,0 -70.08,48.09 -182.99,126.5 -183.6,10.06 -298.77,127.32 -352.98,199.81 -119.64,33.1 -402.63,141.36 -582.52,453.52 -125.4,51.84 -522.94,240.93 -758.82,636.87l2.78 0.94c-0.14,18.56 -3.86,490.43 -35.12,958.64 35.76,22.88 71.83,45.69 108.3,68.44 398.39,248.54 794.63,433.63 1189.48,556.71l75.61 -716.1c35.12,-16.59 275.45,-135.36 440.58,-357.48 59.4,-47.19 129.31,-109.43 185.97,-179 57.82,-54.67 115.78,-111.39 172.02,-169.03 186.71,-113.92 291.89,-305.64 317.54,-356.8 25.5,50.92 129.66,240.75 314.45,354.88 58.23,59.69 118.37,118.41 178.32,174.89 56.04,67.93 124.39,128.67 182.66,174.93 165.06,222.16 405.36,340.95 440.62,357.59l74.97 710.07c417.12,-131.32 834.4,-330.25 1252.8,-595.62 13.7,-8.68 27.32,-17.36 40.91,-26.06z"/>
    <g>
     <g>
      <path id="_119102384" class="fil2" d="M4961.42 16762.62c0,0 -229.57,217.17 -198.55,434.33 31.02,217.17 297.83,502.58 403.31,794.21 0,0 508.79,-254.39 608.06,-725.95 0,0 18.61,-210.96 -273.01,-546.02 -291.62,-335.06 -539.81,43.43 -539.81,43.43z"/>
      <path id="_119102312" class="fil3" d="M5021.7 16871.09c0,0 -158.9,171.75 -125.27,330.65 33.62,158.9 244.79,356.6 337.08,566.83 0,0 363.33,-213.01 413.42,-566.26 0,0 3.35,-156.77 -228.59,-389.92 -231.94,-233.15 -396.64,58.7 -396.64,58.7z"/>
     </g>
     <path id="_119102216" class="fil2" d="M6267.83 10369.58c-510.04,354.72 -1702.64,1189.74 -1769.06,1345.7 0,0 -8.62,1281.74 -132.82,1803.4 0,0 77.28,8.24 238.6,-60.01 0,0 -21.76,449.8 -170.6,660.76 0,0 74.46,31.02 179.94,31.02 0,0 -57.45,363.16 -206.37,580.32 0,0 175.01,143.92 339.62,133.09 49,486.88 71.77,949.07 120.76,1435.95 -61.08,215.4 -42.29,355.34 53.12,546.53 215.57,-12.13 412.62,-24.26 628.18,-36.38 84.25,-138.27 123.04,-328.05 52.55,-539.5l111.92 -1630.88 211.15 -1999.7c0,0 496.33,-1150.83 1124.08,-1059.25l21.71 3.16 0.09 18.05 61.79 -9.02 61.78 9.02 0.09 -18.05 21.71 -3.16c627.75,-91.58 1124.08,1059.25 1124.08,1059.25l211.15 1999.7 111.92 1630.88c-74.99,217.47 -27.77,403.6 52.55,539.5 215.56,12.12 412.61,24.25 628.18,36.38 83.71,-197.14 92.6,-341.78 53.12,-546.53 48.99,-486.88 71.76,-949.07 120.76,-1435.95 164.61,10.83 339.62,-133.09 339.62,-133.09 -148.91,-217.17 -206.37,-580.32 -206.37,-580.32 105.48,0 179.94,-31.02 179.94,-31.02 -148.85,-210.96 -170.6,-660.76 -170.6,-660.76 161.32,68.25 238.6,60.01 238.6,60.01 -124.2,-521.66 -132.82,-1803.4 -132.82,-1803.4 -67.17,-157.71 -1281.84,-1022.18 -1785.99,-1363.66 -390.79,-264.7 -1308.84,-262.65 -1712.34,17.96z"/>
     <path id="_119102144" class="fil4" d="M5346.02 11259.08l-688.56 490.31c0,0 27.87,1001.88 -83.81,1492.06 0,0 282.25,-83.74 468.4,-362.95 0,0 -6.19,276.13 -260.59,499.5 0,0 -6.18,313.3 -105.46,586.31 0,0 167.81,-23.24 301.04,-161.27 0,0 -32.97,175.22 -209.89,282.38 -19.67,209.94 -77.66,457.45 -148.3,575.23 0,0 165.71,125.77 534.82,159.95l392.18 -55.84 203.48 -2171.65 1364.61 -1319.52 0 -0.09 37.02 0.09 1364.61 1319.52 203.48 2171.65 392.18 55.84c369.11,-34.18 534.82,-159.95 534.82,-159.95 -70.63,-117.78 -128.62,-365.3 -148.3,-575.23 -176.92,-107.16 -209.89,-282.38 -209.89,-282.38 133.23,138.02 301.04,161.27 301.04,161.27 -99.28,-273.01 -105.46,-586.31 -105.46,-586.31 -254.39,-223.37 -260.59,-499.5 -260.59,-499.5 186.14,279.21 468.4,362.95 468.4,362.95 -111.69,-490.17 -83.81,-1492.06 -83.81,-1492.06l-688.56 -490.31c-9.79,-4.89 -734.24,-567.97 -1039.43,-805.3 -259.12,-201.5 -1227.39,-207.36 -1483.28,-8.34 -298.55,232.18 -1040.23,808.7 -1050.14,813.65z"/>
     <path id="_119102072" class="fil3" d="M5152.78 11396.71l-495.3 352.68c0,0 2.93,104.29 3.12,261.97 189.71,46.9 684.36,199.04 1088.21,583.3l0.36 0.34 0.18 -1.91 418.26 -404.44c-12.22,-9.95 -24.73,-20.09 -37.89,-30.65 -459.07,-368.53 -772.01,-623.88 -976.94,-761.29z"/>
     <path id="_119102000" class="fil3" d="M5366.99 14790.21l178.89 -25.47 203.48 -2171.65 1364.61 -1319.52 6.71 -3.37c0,0 -371.49,-303.24 -365.29,-290.83 0,0 -111.69,322.65 -465.35,304.03 0,0 -37.23,409.5 -428.13,366.07 0,0 -18.61,297.83 -409.51,471.56l-103.52 2496.53c0,0 20.51,74.25 18.11,172.66z"/>
     <path id="_119101928" class="fil2" d="M6320.51 10339.51l800.09 1155.32c0,0 -150.56,400.05 -491.82,493.12l-742.93 -1374.19c-36.94,-31.67 55.03,-339.27 434.65,-274.25z"/>
     <path id="_119101856" class="fil5" d="M5991.14 10684.8c0,0 58.84,-148.65 275.62,-213.68l696.79 1012.67c0,0 -89.81,226.06 -387.11,374.71l-569.82 -1124.15 -15.48 -49.55z"/>
     <path id="_119101784" class="fil6" d="M6104.96 10792.27c0,0 418.08,548.14 427.37,566.72 9.29,18.58 -139.36,105.29 -139.36,105.29 0,0 -281.81,-523.37 -288.01,-672.02z"/>
     <path id="_119101712" class="fil7" d="M5991.14 10684.8c0,0 58.84,-148.65 275.62,-213.68l81 117.72c-49.79,11.87 -154.84,58.44 -258.3,240.61 0,0 -11.65,1.37 -31.88,5.44l-50.96 -100.54 -15.48 -49.55z"/>
     <path id="_119101640" class="fil6" d="M6693.56 11091.43l269.97 392.35c0,0 -89.81,226.06 -387.11,374.71l-287.41 -567c0.71,-5.22 1,-8.11 1,-8.11 212.42,11.18 337.48,-100.76 403.55,-191.95z"/>
     <path id="_119101568" class="fil2" d="M5277.75 11085.18l989.68 1231.85c25.2,7.56 329.6,-115.59 387.81,-338.23l-670.12 -1439.47c-36.91,-15.84 -546.14,36.34 -707.37,545.85z"/>
     <path id="_119101496" class="fil5" d="M5402.73 11115.25c0,0 176.52,-331.36 526.47,-408.78l616.27 1235.63c0,0 -161.04,161.04 -241.55,192 -80.52,30.97 -901.18,-1018.85 -901.18,-1018.85z"/>
     <polygon id="_119101424" class="fil6" points="5501.1,11204.1 6213.33,11687.24 6015.15,11876.15 "/>
     <path id="_119101352" class="fil7" d="M5402.73 11115.25c0,0 176.52,-331.36 526.47,-408.78l70.96 142.29c-126.53,35.16 -358.27,129.45 -499.1,367.79 0,0 -5.07,1.69 -14.29,5.17 -51.97,-65.45 -84.03,-106.46 -84.03,-106.46z"/>
     <path id="_119101280" class="fil6" d="M6267.12 11384.05l278.33 558.05c0,0 -161.04,161.04 -241.55,192 -38.11,14.66 -242.03,-212.82 -446.24,-456.47 3.57,-17.9 4.23,-28.19 4.23,-28.19 263.45,29.27 366.2,-147.22 405.24,-265.39z"/>
     <path id="_119101208" class="fil2" d="M4714.76 14847.64l1031.53 -408.58c0,0 97.34,347.46 -23.51,702.58l-966.2 -246.65c0,0 -19.29,-16.98 -41.82,-47.36z"/>
     <path id="_119101136" class="fil5" d="M4890.33 14909.88l736.75 -286.12c0,0 34.75,248.93 -31.93,488.97l-674.86 -168.92c0,0 -13.82,-12.17 -29.97,-33.93z"/>
     <path id="_119101064" class="fil6" d="M5365.45 14725.36l261.62 -101.6c0,0 34.75,248.93 -31.93,488.97l-283.8 -71.04c-3.36,-8.46 -5.39,-12.92 -5.39,-12.92 59.09,-104.29 65.35,-221.03 59.49,-303.41z"/>
     <path id="_119100992" class="fil2" d="M4715.22 14850.04c0,0 703.05,176.52 1028.22,263.23 0,0 9.29,393.3 -71.23,631.76l-876.48 6.19c0,0 -120.78,-529.56 -80.52,-901.18z"/>
     <path id="_119100920" class="fil5" d="M4849.58 15007.25c0,0 496.17,115.81 732.47,178.81 0,0 6.8,273.49 -51.71,446.77l-622.25 -4.78c0,0 -87.77,-350.76 -58.51,-620.8z"/>
     <path id="_119100848" class="fil6" d="M5337.93 15124.14c90.71,22.32 177.71,44.24 244.14,61.95 0,0 6.8,273.49 -51.71,446.77l-198.37 -1.52c61.74,-214.16 34.04,-400.47 5.94,-507.2z"/>
     <path id="_119100776" class="fil2" d="M4806.58 15643.23c-47.11,13.46 -133.88,316.96 80.52,665.82l715.37 -52.65c34.45,-5.74 155.53,-257.04 55.69,-661.03l-851.58 47.85z"/>
     <path id="_119100704" class="fil5" d="M4913.99 15728.52c0,0 -48.22,220.43 59.7,493.66l530.39 -39.04c0,0 73.62,-188.57 48.37,-496.23l-638.46 41.61z"/>
     <path id="_119100632" class="fil7" d="M4913.99 15728.52c0,0 -48.22,220.43 59.7,493.66l6.61 -0.48c-3.85,-44.72 -29.08,-348.28 -11.89,-397.03 13.85,-39.27 392.85,-100.91 584.64,-129.72l-0.61 -8.05 -638.46 41.61z"/>
     <path id="_119100560" class="fil6" d="M5219.64 16204.08l284.44 -20.94c0,0 73.62,-188.57 48.37,-496.23l-211.56 13.79c14.01,117.12 23.12,364.56 -121.25,503.39z"/>
     <path id="_119100488" class="fil5" d="M4992.2 16345.75c0,0 -37.25,170.27 46.11,381.34l409.72 -30.15c0,0 56.88,-145.67 37.36,-383.34l-493.19 32.15z"/>
     <path id="_119100416" class="fil6" d="M5151.96 16718.7l296.07 -21.78c0,0 56.87,-145.65 37.37,-383.32l-271.74 17.7c64.67,66.32 124.25,178.84 2.92,319.13 -20.49,23.69 -42.21,46.42 -64.63,68.26z"/>
     <path id="_119100344" class="fil2" d="M4495.8 11715.04c608.12,202.71 1080.81,493.33 1424.21,927.69 0,0 312.66,-140.09 501.57,-421.9l-1075.53 -1200.65c-68.52,-6.22 -663.15,178.72 -850.25,694.86z"/>
     <path id="_119100272" class="fil5" d="M4709.02 11657.17c0,0 253.94,-340.64 603.89,-455.23l932.15 1006.47 -300.39 275.62c0,0 -461.43,-563.63 -1235.64,-826.86z"/>
     <path id="_119100200" class="fil7" d="M4709.02 11657.17c0,0 253.94,-340.64 603.89,-455.23l63.22 68.26c-140.3,68.74 -369.53,207.32 -531.62,437.24 -44.04,-17.71 -89.17,-34.53 -135.48,-50.28z"/>
     <path id="_119100128" class="fil6" d="M5831.67 11762.05l413.41 446.38 -300.39 275.62c0,0 -152.32,-186 -428.63,-394.17 191.8,-102.46 277.52,-235 315.61,-327.83z"/>
     <path id="_119100056" class="fil3" d="M5454.58 12390.23c0,0 -9.29,445.95 -253.94,777.31 0,0 226.07,-74.32 303.49,-291.1 77.42,-216.78 -49.55,-486.21 -49.55,-486.21z"/>
     <path id="_119099984" class="fil3" d="M5400.95 13711.57c0,0 -39.23,357.19 -293.18,592.55 0,0 284.91,-24.79 343.75,-188.91 58.84,-164.12 -50.57,-403.64 -50.57,-403.64z"/>
     <polygon id="_119099912" class="fil7" points="5222.34,11309.44 5832.4,11764.69 5341.54,11231.94 "/>
     <path id="_119099840" class="fil2" d="M5581.58 12244.67c-3.1,24.77 -21.68,1003.38 -21.68,1003.38l148.65 -925.96 -126.97 -77.42z"/>
     <path id="_119099768" class="fil4" d="M5117.04 16868.31c0,0 -210.59,188.91 -185.81,318.98 24.77,130.07 318.98,445.95 318.98,445.95 0,0 359.23,-411.88 -133.16,-764.92z"/>
     <path id="_119099696" class="fil2" d="M9303.5 16762.62c0,0 229.57,217.17 198.55,434.33 -31.02,217.17 -297.83,502.58 -403.31,794.21 0,0 -508.79,-254.39 -608.06,-725.95 0,0 -18.61,-210.96 273.01,-546.02 291.62,-335.06 539.81,43.43 539.81,43.43z"/>
     <path id="_119099624" class="fil3" d="M9243.23 16871.09c0,0 158.9,171.75 125.27,330.65 -33.62,158.9 -244.79,356.6 -337.08,566.83 0,0 -363.33,-213.01 -413.42,-566.26 0,0 -21.94,-125.82 210.01,-358.95 60.39,-60.71 348.71,-6.73 415.22,27.73z"/>
     <path id="_119099552" class="fil3" d="M9112.14 11396.71l495.3 352.68c0,0 -2.93,104.29 -3.12,261.97 -189.71,46.9 -684.36,199.04 -1088.21,583.3l-0.36 0.34 -0.18 -1.91 -418.26 -404.44c12.22,-9.95 24.73,-20.09 37.89,-30.65 459.07,-368.53 772.01,-623.88 976.94,-761.29z"/>
     <path id="_119099480" class="fil3" d="M8897.93 14790.21l-178.89 -25.47 -203.48 -2171.65 -1364.61 -1319.52 -4.4 -3.77c0,0 369.18,-302.84 362.97,-290.43 0,0 111.69,322.65 465.35,304.03 0,0 37.23,409.5 428.13,366.07 0,0 18.61,297.83 409.51,471.56l103.52 2496.53c0,0 -20.51,74.25 -18.11,172.66z"/>
     <path id="_119099408" class="fil2" d="M7944.41 10339.51l-827.96 1167.71c0,0 173.72,359.89 514.98,452.96l747.63 -1346.41c22.96,-17.24 -92.42,-302.52 -434.65,-274.25z"/>
     <path id="_119099336" class="fil5" d="M8273.78 10684.8c0,0 -58.84,-148.65 -275.62,-213.68l-696.79 1012.67c0,0 89.81,226.06 387.11,374.71l569.82 -1124.15 15.48 -49.55z"/>
     <path id="_119099264" class="fil6" d="M8159.97 10792.27c0,0 -418.08,548.14 -427.37,566.72 -9.29,18.58 139.36,105.29 139.36,105.29 0,0 281.81,-523.37 288.01,-672.02z"/>
     <path id="_119099192" class="fil7" d="M8273.78 10684.8c0,0 -58.84,-148.65 -275.62,-213.68l-81 117.72c49.79,11.87 154.84,58.44 258.3,240.61 0,0 11.65,1.37 31.88,5.44l50.96 -100.54 15.48 -49.55z"/>
     <path id="_119099120" class="fil6" d="M7571.37 11091.43l-269.97 392.35c0,0 89.81,226.06 387.11,374.71l287.41 -567c-0.71,-5.22 -1,-8.11 -1,-8.11 -212.42,11.18 -337.48,-100.76 -403.55,-191.95z"/>
     <path id="_119099048" class="fil2" d="M8987.17 11085.18l-980.39 1272.11c-20.48,14.62 -316.98,-146.76 -397.1,-378.49l670.12 -1439.47c35.59,-30.48 548.24,-0.28 707.37,545.85z"/>
     <path id="_119098976" class="fil5" d="M8862.19 11115.25c0,0 -176.52,-331.36 -526.47,-408.78l-616.27 1235.63c0,0 161.04,161.04 241.55,192 80.52,30.97 901.18,-1018.85 901.18,-1018.85z"/>
     <polygon id="_119098904" class="fil6" points="8763.82,11204.1 8051.59,11687.24 8249.77,11876.15 "/>
     <path id="_119098832" class="fil7" d="M8862.19 11115.25c0,0 -176.52,-331.36 -526.47,-408.78l-70.96 142.29c126.53,35.16 358.27,129.45 499.1,367.79 0,0 5.07,1.69 14.29,5.17 51.97,-65.45 84.03,-106.46 84.03,-106.46z"/>
     <path id="_119098760" class="fil6" d="M7997.81 11384.05l-278.33 558.05c0,0 161.04,161.04 241.55,192 38.11,14.66 242.03,-212.82 446.24,-456.47 -3.57,-17.9 -4.23,-28.19 -4.23,-28.19 -263.45,29.27 -366.2,-147.22 -405.24,-265.39z"/>
     <path id="_119098688" class="fil2" d="M9550.18 14847.64l-1019.12 -420.98c-13.52,2.25 -136.23,353.98 23.51,702.58l953.79 -234.24c0,0 19.29,-16.98 41.82,-47.36z"/>
     <path id="_119098616" class="fil5" d="M9374.59 14909.88l-736.75 -286.12c0,0 -34.75,248.93 31.93,488.97l674.86 -168.92c0,0 13.82,-12.17 29.97,-33.93z"/>
     <path id="_119098544" class="fil6" d="M8899.47 14725.36l-261.62 -101.6c0,0 -34.75,248.93 31.93,488.97l283.8 -71.04c3.36,-8.46 5.39,-12.92 5.39,-12.92 -59.09,-104.29 -65.35,-221.03 -59.49,-303.41z"/>
     <path id="_119098472" class="fil2" d="M9549.7 14850.04c0,0 -665.82,176.52 -990.99,263.23 -21.22,5.31 -37.45,400.33 71.23,631.76l839.25 6.19c40.7,30.08 174.78,-489.67 80.52,-901.18z"/>
     <path id="_119098400" class="fil5" d="M9415.34 15007.25c0,0 -496.17,115.81 -732.47,178.81 0,0 -6.8,273.49 51.71,446.77l622.25 -4.78c0,0 87.77,-350.76 58.51,-620.8z"/>
     <path id="_119098328" class="fil6" d="M8926.99 15124.14c-90.71,22.32 -177.71,44.24 -244.14,61.95 0,0 -6.8,273.49 51.71,446.77l198.37 -1.52c-61.74,-214.16 -34.04,-400.47 -5.94,-507.2z"/>
     <path id="_119098256" class="fil2" d="M9458.35 15643.23c19.31,-2.41 114.33,291.12 -80.52,665.82l-715.37 -52.65c-23.58,9.44 -152.37,-221.02 -55.69,-661.03l851.58 47.85z"/>
     <path id="_119098184" class="fil5" d="M9350.93 15728.52c0,0 48.22,220.43 -59.7,493.66l-530.39 -39.04c0,0 -73.62,-188.57 -48.37,-496.23l638.46 41.61z"/>
     <path id="_119098112" class="fil7" d="M9350.93 15728.52c0,0 48.22,220.43 -59.7,493.66l-6.61 -0.48c3.85,-44.72 29.08,-348.28 11.89,-397.03 -13.85,-39.27 -392.85,-100.91 -584.64,-129.72l0.61 -8.05 638.46 41.61z"/>
     <path id="_119098040" class="fil6" d="M9045.28 16204.08l-284.44 -20.94c0,0 -73.62,-188.57 -48.37,-496.23l211.56 13.79c-14.01,117.12 -23.12,364.56 121.25,503.39z"/>
     <path id="_119097968" class="fil5" d="M9272.66 16345.75c0,0 37.25,170.27 -46.11,381.34l-409.72 -30.15c0,0 -56.88,-145.67 -37.36,-383.34l493.19 32.15z"/>
     <path id="_119097896" class="fil6" d="M9112.96 16718.7l-296.07 -21.78c0,0 -56.87,-145.65 -37.37,-383.32l271.74 17.7c-64.67,66.32 -124.25,178.84 -2.92,319.13 20.49,23.69 42.21,46.42 64.63,68.26z"/>
     <path id="_119097824" class="fil2" d="M9769.11 11715.04c-608.12,202.71 -1080.81,493.33 -1424.21,927.69 0,0 -312.66,-140.09 -501.57,-421.9l1075.53 -1200.65c38.54,-22.03 627.88,144.02 850.25,694.86z"/>
     <path id="_119097752" class="fil5" d="M9555.91 11657.17c0,0 -253.94,-340.64 -603.89,-455.23l-932.15 1006.47 300.39 275.62c0,0 461.43,-563.63 1235.64,-826.86z"/>
     <path id="_119097680" class="fil7" d="M9555.91 11657.17c0,0 -253.94,-340.64 -603.89,-455.23l-63.22 68.26c140.3,68.74 369.53,207.32 531.62,437.24 44.04,-17.71 89.17,-34.53 135.48,-50.28z"/>
     <path id="_119097608" class="fil6" d="M8433.25 11762.05l-413.41 446.38 300.39 275.62c0,0 152.32,-186 428.63,-394.17 -191.8,-102.46 -277.52,-235 -315.61,-327.83z"/>
     <path id="_119097536" class="fil3" d="M8810.34 12390.23c0,0 9.29,445.95 253.94,777.31 0,0 -226.07,-74.32 -303.49,-291.1 -77.42,-216.78 49.55,-486.21 49.55,-486.21z"/>
     <path id="_119097464" class="fil3" d="M8863.98 13711.57c0,0 39.23,357.19 293.18,592.55 0,0 -284.91,-24.79 -343.75,-188.91 -58.84,-164.12 50.57,-403.64 50.57,-403.64z"/>
     <polygon id="_119097392" class="fil7" points="9042.58,11309.44 8432.52,11764.69 8923.38,11231.94 "/>
     <path id="_119097320" class="fil2" d="M8683.34 12244.67c3.1,24.77 21.68,1003.38 21.68,1003.38l-148.65 -925.96 126.97 -77.42z"/>
     <path id="_119097248" class="fil4" d="M9147.88 16868.31c0,0 210.59,188.91 185.81,318.98 -24.77,130.07 -318.98,445.95 -318.98,445.95 0,0 -359.23,-411.88 133.16,-764.92z"/>
    </g>
    <g>
     <path id="_269474264" class="fil8" d="M6642.13 12229.76c14.05,-226.28 241.8,-424.04 500.83,-414.67 293.58,10.61 535.39,217.61 497.07,440.72 -199.72,-93.43 -360.17,-96.55 -997.9,-26.05z"/>
     <path id="_269474384" class="fil2" d="M6589.51 12263.48c0,0 250.56,-225.35 549.36,-228.44 298.81,-3.09 574.8,269.51 574.8,269.51 0,0 -409.9,-205.34 -1124.16,-41.07z"/>
    </g>
   </g>
  </g>
 </g>
</svg>
