<?xml version="1.0" encoding="UTF-8"?>
<!DOCTYPE svg PUBLIC "-//W3C//DTD SVG 1.1//EN" "http://www.w3.org/Graphics/SVG/1.1/DTD/svg11.dtd">
<!-- Creator: CorelDRAW 2020 (64-Bit) -->
<svg xmlns="http://www.w3.org/2000/svg" xml:space="preserve" width="129.436mm" height="197.988mm" version="1.1" style="shape-rendering:geometricPrecision; text-rendering:geometricPrecision; image-rendering:optimizeQuality; fill-rule:evenodd; clip-rule:evenodd"
viewBox="0 0 1665.98 2548.32"
 xmlns:xlink="http://www.w3.org/1999/xlink"
 xmlns:xodm="http://www.corel.com/coreldraw/odm/2003">
 <defs>
  <style type="text/css">
   <![CDATA[
    .fil0 {fill:none}
    .fil2 {fill:#501D33}
    .fil3 {fill:#5A2C40}
    .fil5 {fill:#C3926B}
    .fil4 {fill:#EDDC93}
    .fil1 {fill:#EEF698}
    .fil6 {fill:white}
   ]]>
  </style>
 </defs>
 <g id="Слой_x0020_1">
  <metadata id="CorelCorpID_0Corel-Layer"/>
  <g id="_1746286240112">
   <rect id="_118836288" class="fil0" y="0" width="1665.98" height="2548.32"/>
   <path id="_119104568" class="fil1" d="M638.71 1520.71c0,0 142.03,-69.57 212.32,-65.22 70.29,4.35 157.25,45.65 195.65,31.16 38.41,-14.49 -121.74,-132.61 -131.88,-131.88 -10.14,0.72 -196.38,66.67 -276.09,165.94z"/>
   <path id="_269474528" class="fil2" d="M629.28 1355.55c0,0 37.66,-53.65 65.1,-75.2 17.64,-13.86 30.39,-1.12 47.3,6.96 17.82,8.52 51.28,20.55 87.15,17.75 50.85,-3.97 83.75,-43.03 116.06,-53.57 28.69,-9.35 97.79,62.19 119.03,87.2 0,0 25.51,90.05 -15.07,148.75 -86.78,5.16 -135.75,-62.06 -218.93,-49.2 -64.2,9.93 -130.7,48.45 -174.01,75.29 -23.54,13.9 -24.21,10.01 -27.73,-7.32 -6.11,-30.05 -22.02,-115.35 1.1,-150.65z"/>
   <path id="_269474768" class="fil3" d="M1046.38 1347.9c-13.46,-15.5 -28.8,-30.78 -43.98,-44.3 -10.33,-9.2 -21.66,-18.55 -33.46,-25.79 -3.41,-2.09 -14.08,-8.09 -18.38,-7.86 -14.85,4.95 -33.07,18.8 -46.55,27.18 -23.05,14.33 -46.2,25.03 -73.67,27.17 -32.53,2.54 -67.62,-5.54 -96.98,-19.58 -4.68,-2.24 -18.5,-10.77 -22.88,-11.21 -1.38,-0.14 -3.19,1.25 -4.16,2.02 -9.1,7.15 -17.83,16.69 -25.43,25.41 -12.44,14.27 -24.68,29.9 -35.6,45.42 -9.52,14.85 -9.33,45.47 -8.42,62.43 1,18.52 3.53,37.12 6.76,55.38 0.73,4.16 1.51,8.31 2.33,12.45 0.61,-0.2 1.18,-0.4 1.72,-0.58 53.66,-33.16 114.2,-64.25 177.13,-73.99 29.35,-4.54 58.52,-3.37 86.35,6.29 43.37,15.05 80.08,39.48 126.78,40.05 12.34,-22.62 15.43,-50.4 14.42,-75.64 -0.56,-13.99 -2.47,-30.71 -5.97,-44.85z"/>
   <path id="_269474864" class="fil2" d="M947.04 1396.16c0,0 -27.13,18.45 -94.04,25.68l51.36 16.28c0,0 70.17,29.3 73.06,30.02 2.89,0.72 9.4,2.89 11.94,0.72 2.53,-2.17 6.51,-27.85 2.53,-31.1 -3.98,-3.26 -44.85,-41.59 -44.85,-41.59z"/>
   <path id="_269474984" class="fil2" d="M889.52 1413c20.26,-27.07 28.14,-36.41 37.83,-29.32 8.02,5.88 18.8,29.84 13.69,50.78l-1.59 6.51 -6.54 1.46c-16.47,3.68 -41.64,-1.48 -45.37,-20.91l-0.9 -4.71 2.88 -3.82z"/>
   <path id="_269475080" class="fil4" d="M897.27 1420.91c11.17,-17.01 28.09,-49.97 34.72,-0.2 -8.47,5.69 -27.84,11.14 -34.72,0.2z"/>
   <path id="_269475200" class="fil5" d="M897.27 1420.91c1.75,-2.66 3.64,-5.71 5.61,-8.78 8.49,0.98 17.92,0.77 27.3,-1.95 0.67,3.01 1.28,6.49 1.82,10.54 -8.47,5.69 -27.85,11.13 -34.72,0.2z"/>
   <path id="_269465192" class="fil2" d="M941.38 1398.8c22.47,-20.03 103.09,-83.49 118.15,-157.47 3.4,-12.17 11.32,-2.16 16,3.34 5.84,6.85 11.75,15.04 13.9,18.59 24.82,41.01 37.47,123.69 -39.67,222.74 -13.92,-1.9 -44.59,-4.9 -68.94,-22.11 -18.12,-12.81 -36.41,-39.84 -39.44,-65.08z"/>
   <path id="_269465288" class="fil4" d="M964.33 1406.64c18.84,-16.79 83.09,-75.37 101.27,-138.11 2.03,-4.76 2.06,-6.3 5.27,-0.83 49.96,85.12 -10.67,175.65 -30.4,200.98 -20.35,-2.78 -59.2,-7.58 -76.14,-62.04z"/>
   <path id="_269465432" class="fil6" d="M964.33 1406.64c18.84,-16.79 83.09,-75.37 101.27,-138.11 0.79,-1.85 1.27,-3.21 1.76,-3.86 -2.94,18.85 -21.34,111.1 -103.01,142.02l-0.02 -0.05z"/>
   <path id="_269465528" class="fil2" d="M582.17 1234.54c0,0 -82.61,166.67 50.72,273.91 0,0 96.35,-54.36 163.4,-77.9 0,0 -150.84,-46.04 -207.2,-195.38 -2.36,-6.26 -4.12,-5.71 -6.92,-0.63z"/>
   <path id="_269465912" class="fil4" d="M634.88 1484.73c52.94,-3.15 83.11,-32.41 105.03,-55 -14.11,-7.5 -27.79,-15.93 -40.81,-25.08 -47.5,-33.38 -86.08,-76.28 -112.34,-127.28 -5.4,19.11 -8.91,39.48 -10.05,56.51 -4.02,59.77 14.7,111.15 58.17,150.85z"/>
   <path id="_269466008" class="fil6" d="M651.11 1371.16c0,0 -16.69,10.99 -44.18,7.72 0,0 13.97,-5.63 27.58,-15.08l3.99 0.91 12.61 6.45z"/>
   <path id="_269466128" class="fil6" d="M731.98 1425.4c-11.31,-6.36 -22.31,-13.32 -32.87,-20.74 -47.37,-33.29 -85.87,-76.05 -112.12,-126.86 5.58,20.74 39.2,127.42 145,147.6z"/>
   <path id="_269466248" class="fil2" d="M822.94 1368.96c-1.11,1.39 -2.48,2.64 -4.17,3.7 -3.01,1.88 -6.5,2.66 -10.02,2.43 -7.72,-0.51 -16.66,-5.87 -25.19,-12.98 -0.33,3.25 -1.65,6.35 -4.25,8.96 -7.37,7.38 -17.36,4.19 -25.65,1.06 -19.99,-7.55 -34.7,-23.99 -44.93,-42.23 -4.71,-8.4 -9.48,-18.93 -12.16,-28.37 -1.08,-2.79 -1.53,-5.75 -1.19,-8.75l0.73 -6.43 5.59 -3.25c3.09,-1.8 6.49,-2.76 10.09,-2.39 8.42,0.86 19.31,8.67 27.12,12.41 6.3,3.01 12.76,5.67 19.35,7.99l2.71 0.96 2.8 0.9c15.7,5.03 32.28,8.21 48.77,8.83l8.1 0.3 8.72 -0.62c15.34,-1.2 29.56,-5.45 43.46,-11.89l4.43 -2.05 4.55 -2.41c5.25,-2.78 10.38,-5.79 15.42,-8.92 48.84,-30.38 44.57,-40.17 78.46,-19.36 10.24,6.28 19.81,13.78 28.93,21.59l7.33 6.28 -3.98 8.79c-10.98,24.29 -28.68,47.85 -54.4,57.56 -2.22,0.84 -4.39,1.67 -6.67,2.33 -6.92,2.01 -14.49,2.33 -20.03,-3.23 -5.27,-5.27 -5.32,-12.51 -2.62,-18.99 1.23,-2.95 2.32,-6.14 3.31,-9.35 -7.61,10.15 -16.08,18.46 -24.34,20.97 -3.52,1.07 -7.21,1.1 -10.7,-0.09 -7.87,-2.69 -11.33,-9.89 -13.25,-17.3 -10.93,16.91 -26.72,35.96 -40.61,38.7 -3.46,0.68 -7.02,0.34 -10.25,-1.13 -2.22,-1.02 -4.01,-2.39 -5.44,-4.01z"/>
   <path id="_269466368" class="fil4" d="M708.76 1297.32c0,0 13.36,49.14 49.45,62.76 3.76,1.42 15.61,6.35 11.86,-2.66 -3.81,-9.14 -12,-26.46 -16.09,-44.18 -7.1,-2.5 -14,-5.36 -20.62,-8.52 -4.68,-2.24 -18.5,-10.77 -22.88,-11.21 -0.72,-0.07 -1.54,0.27 -2.31,0.71 -0.1,0.9 0.06,1.92 0.59,3.1zm287.47 0.87c-8.61,-7.38 -17.8,-14.57 -27.29,-20.39 -3.16,-1.94 -12.6,-7.25 -17.37,-7.81 0.37,25.88 -10.63,64.52 -15.46,76.12 -4.08,9.8 8.81,4.44 12.9,2.9 24.65,-9.31 39.55,-33.85 47.22,-50.82zm-52.29 -25.58c-13.39,6.18 -28.39,17.34 -39.92,24.51 -5.37,3.34 -10.75,6.48 -16.19,9.36 2.82,22.78 4.17,36.25 11.64,33.98 11.02,-3.34 33.93,-35.29 44.47,-67.86zm-65.71 38.65c-14.95,6.93 -30.56,11.69 -47.89,13.04l-1.4 0.1c0.72,23.93 -0.12,38.51 7.22,37.06 9.23,-1.82 29.87,-24.79 42.07,-50.2zm-66.18 13.38c-17.53,-0.65 -35.34,-4.03 -52.21,-9.43 15.26,24.76 40.04,46.38 49.77,47.03 7.46,0.5 4.78,-13.82 2.44,-37.6z"/>
   <path id="_269466488" class="fil5" d="M708.76 1297.32c0,0 4.11,15.12 13.94,30.92 8.81,-2.21 21.18,-3.21 36.03,1.2 -1.81,-5.21 -3.48,-10.68 -4.76,-16.2 -7.1,-2.5 -14,-5.36 -20.62,-8.52 -4.68,-2.24 -18.5,-10.77 -22.88,-11.21 -0.72,-0.07 -1.54,0.27 -2.31,0.71 -0.1,0.9 0.06,1.92 0.59,3.1zm65.94 37.96c8.66,2.81 23.74,6.34 38.81,3.49 -0.43,-4.22 -0.96,-8.95 -1.47,-14.12 -17.53,-0.65 -35.34,-4.03 -52.21,-9.43 4.37,7.09 9.51,13.91 14.87,20.07zm54.6 4.43c7.15,-3.71 20.06,-8.49 35.07,-5.16 5.05,-7.09 9.89,-15.06 13.84,-23.3 -14.95,6.93 -30.56,11.69 -47.89,13.04l-1.4 0.1c0.17,5.66 0.25,10.79 0.37,15.32zm60.24 -19.62c9.85,-8.96 23.62,-17.1 38.71,-12.8 6.11,-10.51 11.75,-22.56 15.68,-34.69 -13.39,6.18 -28.39,17.34 -39.92,24.51 -5.37,3.34 -10.75,6.48 -16.19,9.36 0.62,5.01 1.17,9.57 1.73,13.61zm58.71 -18.48c10.67,-2.35 25.91,-3 44.57,3.59 1.26,-2.43 2.39,-4.79 3.4,-7.01 -8.61,-7.38 -17.8,-14.57 -27.29,-20.39 -3.16,-1.94 -12.6,-7.25 -17.37,-7.81 0.13,9.48 -1.26,20.68 -3.31,31.63z"/>
   <path id="_269466608" class="fil5" d="M1070.37 1271.38c0,0 45.57,89.69 -32.19,192.05 0,0 -30.38,0.36 -54.25,-29.3 0,0 88.25,-42.68 86.44,-162.75z"/>
   <path id="_269466704" class="fil2" d="M764.52 1431.43c0,0 7.03,-34.06 19.46,-36.04 12.43,-1.98 30.27,37.66 30.27,37.66 0,0 -51.9,6.85 -49.73,-1.62z"/>
   <path id="_269466824" class="fil4" d="M773.42 1425.88c0,0 4.23,-20.48 11.7,-21.68 5.84,-0.93 13.67,13.42 16.81,19.74 2.73,5.5 -29.29,4.97 -28.52,1.94z"/>
   <path id="_269466992" class="fil5" d="M773.42 1425.88c0,0 1.11,-5.39 3.2,-10.8 5.75,0.95 12.64,1.16 20.07,-0.53 2.18,3.44 4.05,6.99 5.24,9.39 2.73,5.5 -29.29,4.97 -28.52,1.94z"/>
   <path id="_269467136" class="fil5" d="M582.11 1311.53c0,0 -17.72,96.93 54.97,168.18 0,0 35.44,-6.15 63.66,-31.47 -30.02,8.68 -103.62,-6.82 -118.63,-136.71z"/>
   <path id="_269467232" class="fil2" d="M647.57 1341.91c0,0 -11.92,23.69 -41.23,37.25 0,0 32.73,-4.51 51.72,-22.79l-2.89 -7.59c0,0 -7.6,-6.51 -7.6,-6.87z"/>
   <path id="_269467352" class="fil2" d="M1066.25 1257.66c0,0 7.97,57.25 -21.74,118.12 0,0 42.86,-46.17 36.35,-108.74l-6.51 -12.3 -8.1 2.92z"/>
  </g>
 </g>
</svg>
