<?xml version="1.0" encoding="UTF-8"?>
<!DOCTYPE svg PUBLIC "-//W3C//DTD SVG 1.1//EN" "http://www.w3.org/Graphics/SVG/1.1/DTD/svg11.dtd">
<!-- Creator: CorelDRAW 2020 (64-Bit) -->
<svg xmlns="http://www.w3.org/2000/svg" xml:space="preserve" width="129.436mm" height="197.989mm" version="1.1" style="shape-rendering:geometricPrecision; text-rendering:geometricPrecision; image-rendering:optimizeQuality; fill-rule:evenodd; clip-rule:evenodd"
viewBox="0 0 15515.77 23733.36"
 xmlns:xlink="http://www.w3.org/1999/xlink"
 xmlns:xodm="http://www.corel.com/coreldraw/odm/2003">
 <defs>
  <style type="text/css">
   <![CDATA[
    .fil0 {fill:none}
    .fil2 {fill:#501D33}
    .fil1 {fill:#8E7A5D}
    .fil5 {fill:#C3926B}
    .fil6 {fill:#C3C077}
    .fil3 {fill:#EDDC93}
    .fil7 {fill:#EEF698}
    .fil4 {fill:white}
   ]]>
  </style>
 </defs>
 <g id="Слой_x0020_1">
  <metadata id="CorelCorpID_0Corel-Layer"/>
  <g id="_1746296635776">
   <g id="_119113232">
    <rect id="_281774728" class="fil0" y="0.01" width="15515.78" height="23733.36"/>
    <g>
     <path id="_118180312" class="fil1" d="M5141.32 13035c0,0 3952.21,-279.66 5005.03,-110.94l-182.22 -175.47c0,0 -2209.37,-639.05 -4612.35,141.29 -108.87,35.35 -154.38,49.99 -210.46,145.12z"/>
     <g>
      <path id="_118180240" class="fil2" d="M6453.66 12703.32c0,0 -392.8,-722.65 -342.43,-1612.09 0,0 23.12,-108.34 -52.72,-67.21 -129.74,41.13 -1398.62,903.56 -640.48,2240.74 527.1,122.79 911.58,-133 1035.64,-561.45l-0.01 0.01z"/>
      <path id="_118180168" class="fil3" d="M6272.5 12725.53c-93.02,321.28 -391.36,447.39 -716.68,392.47 -386.65,-671.45 -125.9,-1420.14 392.13,-1819.39 -1.71,467.33 98.16,1014.79 324.55,1426.91z"/>
      <path id="_118180096" class="fil4" d="M6272.5 12725.53c-3.42,11.78 -7.11,23.24 -11.06,34.5 -499.4,-464.09 -353.32,-1278.76 -313.49,-1458.58 -1.29,466.71 98.62,1012.79 324.55,1424.08z"/>
      <path id="_118180024" class="fil5" d="M6272.5 12725.53c-93.02,321.28 -391.36,447.39 -716.68,392.47 -76.27,-132.46 -127.22,-267.93 -156.11,-403.12 363.12,91.27 662.32,-24.74 813.67,-106.05 18.66,39.93 38.35,78.88 59.12,116.7z"/>
      <path id="_118179952" class="fil2" d="M6942.16 12639.02c-61.28,-139.63 -159.19,-373.5 -183.43,-576.69 -10.92,-91.69 -75.69,-87.9 -138.57,-27.47 -275.55,264.7 -421.91,720.35 -223.67,973.37 165.16,210.81 568.35,190.36 607.51,-79.61 16.45,-113.39 -18.51,-190.82 -61.84,-289.6z"/>
      <path id="_118179880" class="fil5" d="M6607.31 12225.24c-155.29,198.04 -265.52,580.18 -105.85,740.43 120.16,120.59 338.93,101.42 372.66,-54.19 9.09,-41.91 10.3,-93.78 -11.24,-142.12 -67.52,-151.54 -143.63,-351.09 -195.12,-532.06 -18.68,-65.7 -17.69,-66.59 -60.45,-12.05z"/>
      <path id="_118179808" class="fil3" d="M6607.31 12225.24c-49.85,63.58 -95.01,146.11 -128.13,234.21 47.39,132.64 182.18,118.57 291.31,84.79 -38.05,-100.46 -74.16,-206.55 -102.73,-306.94 -18.68,-65.7 -17.69,-66.59 -60.45,-12.05z"/>
      <path id="_118179736" class="fil5" d="M5804.86 11494.66c0,0 -638.72,525.02 -233.79,1591.32l485.91 -67.49c0,0 -519.66,-607.38 -252.13,-1523.83z"/>
      <polygon id="_118179664" class="fil2" points="5263.71,12682.42 6075.04,12703.52 5302.26,12864.09 "/>
     </g>
     <g>
      <path id="_118179568" class="fil2" d="M9108.59 12703.32c0,0 392.8,-722.65 342.43,-1612.09 0,0 -23.12,-108.34 52.72,-67.21 129.74,41.13 1398.62,903.56 640.48,2240.74 -527.1,122.79 -911.58,-133 -1035.64,-561.45l0.01 0.01z"/>
      <path id="_118179496" class="fil3" d="M9289.75 12725.53c93.02,321.28 391.36,447.39 716.68,392.47 386.65,-671.45 125.9,-1420.14 -392.13,-1819.39 1.71,467.33 -98.16,1014.79 -324.55,1426.91z"/>
      <path id="_118179424" class="fil4" d="M9289.75 12725.53c3.42,11.78 7.11,23.24 11.06,34.5 499.4,-464.09 353.32,-1278.76 313.49,-1458.58 1.29,466.71 -98.62,1012.79 -324.55,1424.08z"/>
      <path id="_118179352" class="fil5" d="M9289.75 12725.53c93.02,321.28 391.36,447.39 716.68,392.47 76.27,-132.46 127.22,-267.93 156.11,-403.12 -363.12,91.27 -662.32,-24.74 -813.67,-106.05 -18.66,39.93 -38.35,78.88 -59.12,116.7z"/>
      <path id="_118179280" class="fil2" d="M8620.09 12639.02c61.28,-139.63 159.19,-373.5 183.43,-576.69 10.92,-91.69 75.69,-87.9 138.57,-27.47 275.55,264.7 421.91,720.35 223.67,973.37 -165.16,210.81 -568.35,190.36 -607.51,-79.61 -16.45,-113.39 18.51,-190.82 61.84,-289.6z"/>
      <path id="_118179208" class="fil5" d="M8954.94 12225.24c155.29,198.04 265.52,580.18 105.85,740.43 -120.16,120.59 -338.93,101.42 -372.66,-54.19 -9.09,-41.91 -10.3,-93.78 11.24,-142.12 67.52,-151.54 143.63,-351.09 195.12,-532.06 18.68,-65.7 17.69,-66.59 60.45,-12.05z"/>
      <path id="_118179136" class="fil3" d="M8954.94 12225.24c49.85,63.58 95.01,146.11 128.13,234.21 -47.39,132.64 -182.18,118.57 -291.31,84.79 38.05,-100.46 74.16,-206.55 102.73,-306.94 18.68,-65.7 17.69,-66.59 60.45,-12.05z"/>
      <path id="_118179064" class="fil5" d="M9757.39 11494.66c0,0 638.72,525.02 233.79,1591.32l-485.91 -67.49c0,0 519.66,-607.38 252.13,-1523.83z"/>
      <path id="_92566568" class="fil4" d="M9703.17 12037.45l187.56 48.21 244.17 -57.51c0,0 -164.75,-37.22 -431.73,9.3z"/>
      <polygon id="_92566496" class="fil2" points="10185.2,11844.92 9700.12,12036.95 10198.66,12030.21 "/>
     </g>
     <path id="_92566400" class="fil2" d="M5165.26 13106.24c-26.95,6.74 -82.44,-64.26 28.23,-96.47 434.23,-126.39 1682.55,-386.55 2752.75,-348.94 1046.65,36.8 1967.34,171.44 2291.44,252.8 91.74,23.03 208.75,111.6 3.27,114.97 0,0 -1802.51,-118.07 -5075.69,77.64z"/>
     <path id="_92566328" class="fil6" d="M5064.81 13092.69c0,0 2936.71,-512.92 5236.76,-60.73 0,0 188.97,128.28 -27,344.24 -215.96,215.96 -1208.04,-141.72 -2476.82,-60.74 -1268.78,80.99 -3050.15,560.09 -2732.94,-222.77z"/>
     <path id="_92566256" class="fil7" d="M5732.66 13187.23c0,0 1572.48,-411.68 3070.71,-188.97 1498.25,222.71 -2652.29,303.7 -3070.71,188.97z"/>
     <path id="_92566184" class="fil1" d="M6670.76 13913.4c0,0 463.92,-488.34 1123.18,-520.89 659.25,-32.56 1326.64,512.75 1326.64,512.75 0,0 -1066.2,-406.94 -2449.83,8.14l0.01 0z"/>
     <path id="_92566112" class="fil7" d="M5701.46 13355.04c96.25,0 174.31,58.69 174.31,131.08 0,72.39 -78.06,131.08 -174.31,131.08 -96.26,0 -174.32,-58.69 -174.32,-131.08 0,-72.39 78.06,-131.08 174.32,-131.08zm-138 331.3c57.86,0 104.79,34.2 104.79,76.35 0,42.16 -46.93,76.35 -104.79,76.35 -57.86,0 -104.79,-34.19 -104.79,-76.35 0,-42.15 46.93,-76.35 104.79,-76.35z"/>
     <path id="_92566040" class="fil2" d="M9590.72 12870.62c0,0 181.89,-262.74 229.05,-677.04 0,0 64,407.57 -37.05,663.56l-101.05 43.79 -90.95 -30.32z"/>
     <path id="_92565968" class="fil2" d="M8944.81 12830.13c0,0 71.4,-221.06 17.19,-519.27 0,0 130.15,270.19 113.59,469.56l-61.12 51.7 -69.66 -1.99z"/>
     <path id="_92565896" class="fil1" d="M7273.87 12671.06c0,0 -189,-656.32 -178.32,-693.26 10.69,-36.94 418.45,587.78 418.45,587.78l-240.13 105.48z"/>
     <path id="_92565824" class="fil1" d="M8350.73 12671.06c0,0 189,-656.32 178.32,-693.26 -10.69,-36.94 -418.45,587.78 -418.45,587.78l240.13 105.48z"/>
    </g>
   </g>
  </g>
 </g>
</svg>
