<?xml version="1.0" encoding="UTF-8"?>
<!DOCTYPE svg PUBLIC "-//W3C//DTD SVG 1.1//EN" "http://www.w3.org/Graphics/SVG/1.1/DTD/svg11.dtd">
<!-- Creator: CorelDRAW 2020 (64-Bit) -->
<svg xmlns="http://www.w3.org/2000/svg" xml:space="preserve" width="129.436mm" height="197.988mm" version="1.1" style="shape-rendering:geometricPrecision; text-rendering:geometricPrecision; image-rendering:optimizeQuality; fill-rule:evenodd; clip-rule:evenodd"
viewBox="0 0 540.97 827.48"
 xmlns:xlink="http://www.w3.org/1999/xlink"
 xmlns:xodm="http://www.corel.com/coreldraw/odm/2003">
 <defs>
  <style type="text/css">
   <![CDATA[
    .fil0 {fill:none}
    .fil1 {fill:#501D33}
    .fil4 {fill:#5A2C40}
    .fil3 {fill:#BFCAB7}
    .fil6 {fill:#C3926B}
    .fil5 {fill:#EDDC93}
    .fil2 {fill:white}
   ]]>
  </style>
 </defs>
 <g id="Слой_x0020_1">
  <metadata id="CorelCorpID_0Corel-Layer"/>
  <g id="_2674677656560">
   <g id="_118815912">
    <rect id="_118836288" class="fil0" y="0" width="540.97" height="827.48"/>
    <path id="_119094536" class="fil1" d="M110.62 442.04c-0.07,-1.7 -0,-3.49 0.03,-5.15 0.06,-3.42 0.17,-6.85 0.27,-10.27 0.3,-9.54 0.66,-19.07 1.03,-28.61l0.27 -6.87 9.76 0 0.12 11.76 77.5 75.9 149.58 -4.02 58.17 -47.16 11.5 -36.1 9.89 -0.38 0.27 6.87c0.37,9.53 0.73,19.07 1.03,28.61 0.11,3.42 0.21,6.85 0.27,10.27 0.03,1.66 0.1,3.46 0.03,5.15 0.36,4.93 -2.49,9.62 -5.48,13.47 -3.75,4.82 -8.47,9.34 -13.07,13.43 -13.03,11.59 -28.09,22.21 -42.92,31.61 -64.37,40.83 -128.99,42.31 -194,1.75 -15.49,-9.66 -31.2,-20.62 -44.81,-32.58 -4.81,-4.22 -9.76,-8.9 -13.7,-13.88 -3.09,-3.92 -6.11,-8.74 -5.74,-13.8l0 0z"/>
    <path id="_119111264" class="fil2" d="M120.54 441.71c-0.23,-3.15 0.6,-26.17 1.45,-47.84 43.7,30.78 71.13,39.19 71.13,39.19l40.51 8.48c0,0 41.45,0.47 101.27,-8.48 49.89,-7.46 76.52,-33.27 83.98,-41.63 0.89,22.35 1.79,47.01 1.55,50.28 1.4,7.33 -23.89,29.77 -57.1,50.84 -60.95,38.66 -121.28,40.2 -182.98,1.7 -34.54,-21.55 -61.25,-45.02 -59.81,-52.54l0 0z"/>
    <circle id="_119111192" class="fil2" cx="365.05" cy="425.8" r="7.29"/>
    <path id="_119110880" class="fil3" d="M365.29 487.43c-0.8,0.52 -1.61,1.03 -2.42,1.55 -59.79,37.92 -118.97,39.43 -179.5,1.67 -5.38,-3.35 -10.56,-6.76 -15.47,-10.13l-0 -0.13c0,0 89.87,56.17 197.39,7.05z"/>
    <path id="_119110736" class="fil3" d="M120.54 441.71c-0.23,-3.15 0.6,-26.17 1.45,-47.84 19,13.38 34.91,22.53 46.84,28.6 -0.72,17.45 -2.66,40.39 -3.5,61.97 -26.93,-18.45 -46.01,-36.33 -44.79,-42.72zm298.35 -50.28c-5.37,6.02 -20.68,21.08 -47.44,31.83 0.59,17.99 2.52,41.18 4.2,61.18 26.93,-18.45 46.01,-36.33 44.79,-42.73 0.24,-3.27 -0.66,-27.93 -1.55,-50.28z"/>
    <polygon id="_119110592" class="fil1" points="373.72,490.65 372.07,434.65 380.31,485.71 "/>
    <polygon id="_119110520" class="fil1" points="166.14,490.65 167.78,434.65 159.55,485.71 "/>
    <path id="_119104568" class="fil3" d="M207.4 493.8c0,0 46.12,-22.59 68.94,-21.18 22.82,1.41 51.06,14.82 63.53,10.12 12.47,-4.71 -39.53,-43.06 -42.83,-42.83 -3.29,0.24 -63.77,21.65 -89.65,53.88z"/>
    <path id="_269474528" class="fil1" d="M204.34 440.17c0,0 12.23,-17.42 21.14,-24.42 5.73,-4.5 9.87,-0.36 15.36,2.26 5.79,2.77 16.65,6.67 28.3,5.76 16.51,-1.29 27.19,-13.97 37.69,-17.39 9.31,-3.04 31.75,20.19 38.65,28.32 0,0 8.28,29.24 -4.89,48.3 -28.18,1.68 -44.08,-20.15 -71.09,-15.98 -20.85,3.22 -42.44,15.73 -56.5,24.45 -7.64,4.52 -7.86,3.25 -9.01,-2.38 -1.98,-9.76 -7.15,-37.46 0.36,-48.92z"/>
    <path class="fil1" d="M315.82 464.75l1.14 0c1.86,-0 3.37,1.51 3.37,3.37l0 27.9c-0,1.86 -1.51,3.37 -3.37,3.37l-1.14 0c-1.86,-0 -3.37,-1.51 -3.37,-3.37l0 -27.9c-0,-1.86 1.51,-3.37 3.37,-3.37z"/>
    <path id="_269474768" class="fil4" d="M339.78 437.69c-4.37,-5.03 -9.35,-10 -14.28,-14.39 -3.35,-2.99 -7.03,-6.02 -10.87,-8.38 -1.11,-0.68 -4.57,-2.63 -5.97,-2.55 -4.82,1.61 -10.74,6.1 -15.12,8.83 -7.48,4.65 -15,8.13 -23.92,8.82 -10.56,0.82 -21.96,-1.8 -31.49,-6.36 -1.52,-0.73 -6.01,-3.5 -7.43,-3.64 -0.45,-0.05 -1.04,0.41 -1.35,0.65 -2.96,2.32 -5.79,5.42 -8.26,8.25 -4.04,4.63 -8.01,9.71 -11.56,14.75 -3.09,4.82 -3.03,14.77 -2.73,20.27 0.32,6.01 1.15,12.05 2.19,17.98 0.24,1.35 0.49,2.7 0.76,4.04 0.2,-0.07 0.38,-0.13 0.56,-0.19 17.43,-10.77 37.08,-20.86 57.52,-24.02 9.53,-1.47 19,-1.09 28.04,2.04 14.08,4.89 26,12.82 41.17,13.01 4.01,-7.35 5.01,-16.37 4.68,-24.56 -0.18,-4.54 -0.8,-9.97 -1.94,-14.56z"/>
    <path id="_269474864" class="fil1" d="M307.52 453.36c0,0 -8.81,5.99 -30.54,8.34l16.68 5.28c0,0 22.78,9.51 23.72,9.75 0.94,0.23 3.05,0.94 3.88,0.23 0.82,-0.7 2.11,-9.04 0.82,-10.1 -1.29,-1.06 -14.56,-13.51 -14.56,-13.51z"/>
    <path id="_269474984" class="fil1" d="M288.84 458.83c6.58,-8.79 9.14,-11.82 12.28,-9.52 2.61,1.91 6.1,9.69 4.45,16.49l-0.51 2.11 -2.12 0.47c-5.35,1.2 -13.52,-0.48 -14.73,-6.79l-0.29 -1.53 0.94 -1.24z"/>
    <path id="_269475080" class="fil5" d="M291.36 461.4c3.63,-5.52 9.12,-16.23 11.27,-0.06 -2.75,1.85 -9.04,3.62 -11.27,0.06z"/>
    <path id="_269475200" class="fil6" d="M291.36 461.4c0.57,-0.86 1.18,-1.86 1.82,-2.85 2.76,0.32 5.82,0.25 8.87,-0.63 0.22,0.98 0.42,2.11 0.59,3.42 -2.75,1.85 -9.04,3.62 -11.28,0.06z"/>
    <path id="_269465192" class="fil1" d="M305.68 454.22c7.3,-6.5 33.47,-27.11 38.37,-51.13 1.1,-3.95 3.68,-0.7 5.2,1.08 1.9,2.23 3.82,4.88 4.51,6.04 8.06,13.32 12.17,40.16 -12.88,72.33 -4.52,-0.62 -14.48,-1.59 -22.39,-7.18 -5.88,-4.16 -11.82,-12.94 -12.81,-21.13z"/>
    <path id="_269465288" class="fil5" d="M313.14 456.76c6.12,-5.45 26.98,-24.47 32.88,-44.85 0.66,-1.55 0.67,-2.05 1.71,-0.27 16.22,27.64 -3.47,57.04 -9.87,65.26 -6.61,-0.9 -19.22,-2.46 -24.72,-20.15z"/>
    <path id="_269465432" class="fil2" d="M313.14 456.76c6.12,-5.45 26.98,-24.47 32.88,-44.85 0.26,-0.6 0.41,-1.04 0.57,-1.25 -0.95,6.12 -6.93,36.08 -33.45,46.12l-0.01 -0.02z"/>
    <path id="_269465528" class="fil1" d="M189.04 400.88c0,0 -26.82,54.12 16.47,88.94 0,0 31.29,-17.65 53.06,-25.3 0,0 -48.98,-14.95 -67.28,-63.44 -0.77,-2.03 -1.34,-1.85 -2.25,-0.2z"/>
    <path class="fil1" d="M236.78 468.91l0 0c1.64,-0 2.97,1.51 2.97,3.37l-0 19.33c0,1.86 -1.33,3.37 -2.96,3.37l-0 0c-1.64,-0 -2.96,-1.51 -2.96,-3.37l-0 -19.33c0,-1.86 1.33,-3.37 2.97,-3.37z"/>
    <path class="fil1" d="M228.37 473.42l0 0c1,-0 1.82,1.51 1.82,3.37l-0 9.21c0,1.86 -0.81,3.37 -1.81,3.37l-0 0c-1,-0 -1.81,-1.51 -1.81,-3.37l-0 -9.21c0,-1.86 0.81,-3.37 1.82,-3.37z"/>
    <path id="_269465912" class="fil5" d="M206.16 482.12c17.19,-1.02 26.99,-10.53 34.1,-17.86 -4.58,-2.43 -9.02,-5.17 -13.25,-8.14 -15.43,-10.84 -27.95,-24.77 -36.48,-41.33 -1.75,6.21 -2.89,12.82 -3.26,18.35 -1.31,19.41 4.77,36.09 18.89,48.98z"/>
    <path id="_269466008" class="fil2" d="M211.43 445.24c0,0 -5.42,3.57 -14.35,2.51 0,0 4.54,-1.83 8.96,-4.9l1.3 0.29 4.09 2.09z"/>
    <path id="_269466128" class="fil2" d="M237.69 462.85c-3.67,-2.07 -7.24,-4.32 -10.67,-6.74 -15.38,-10.81 -27.88,-24.69 -36.41,-41.19 1.81,6.74 12.73,41.37 47.08,47.93z"/>
    <path id="_269466248" class="fil1" d="M267.22 444.52c-0.36,0.45 -0.81,0.86 -1.35,1.2 -0.98,0.61 -2.11,0.87 -3.25,0.79 -2.51,-0.17 -5.41,-1.91 -8.18,-4.22 -0.11,1.06 -0.53,2.06 -1.38,2.91 -2.39,2.4 -5.64,1.36 -8.33,0.35 -6.49,-2.45 -11.27,-7.79 -14.59,-13.71 -1.53,-2.73 -3.08,-6.15 -3.95,-9.21 -0.35,-0.9 -0.5,-1.87 -0.39,-2.84l0.24 -2.09 1.81 -1.06c1,-0.58 2.11,-0.9 3.28,-0.78 2.73,0.28 6.27,2.82 8.81,4.03 2.04,0.98 4.14,1.84 6.28,2.6l0.88 0.31 0.91 0.29c5.1,1.63 10.48,2.67 15.84,2.87l2.63 0.1 2.83 -0.2c4.98,-0.39 9.6,-1.77 14.11,-3.86l1.44 -0.67 1.48 -0.78c1.7,-0.9 3.37,-1.88 5.01,-2.9 15.86,-9.86 14.47,-13.04 25.48,-6.29 3.32,2.04 6.43,4.47 9.39,7.01l2.38 2.04 -1.29 2.86c-3.57,7.89 -9.31,15.54 -17.67,18.69 -0.72,0.27 -1.42,0.54 -2.17,0.76 -2.25,0.65 -4.7,0.76 -6.51,-1.05 -1.71,-1.71 -1.73,-4.06 -0.85,-6.17 0.4,-0.96 0.75,-1.99 1.08,-3.04 -2.47,3.3 -5.22,6 -7.9,6.81 -1.14,0.35 -2.34,0.36 -3.47,-0.03 -2.56,-0.87 -3.68,-3.21 -4.3,-5.62 -3.55,5.49 -8.68,11.68 -13.19,12.57 -1.12,0.22 -2.28,0.11 -3.33,-0.37 -0.72,-0.33 -1.3,-0.78 -1.77,-1.3z"/>
    <path id="_269466368" class="fil5" d="M230.15 421.26c0,0 4.34,15.96 16.06,20.38 1.22,0.46 5.07,2.06 3.85,-0.87 -1.24,-2.97 -3.9,-8.59 -5.23,-14.35 -2.31,-0.81 -4.55,-1.74 -6.69,-2.77 -1.52,-0.73 -6.01,-3.5 -7.43,-3.64 -0.23,-0.02 -0.5,0.09 -0.75,0.23 -0.03,0.29 0.02,0.62 0.19,1.01zm93.35 0.28c-2.79,-2.4 -5.78,-4.73 -8.86,-6.62 -1.03,-0.63 -4.09,-2.36 -5.64,-2.54 0.12,8.4 -3.45,20.95 -5.02,24.72 -1.33,3.18 2.86,1.44 4.19,0.94 8,-3.02 12.84,-10.99 15.33,-16.5zm-16.98 -8.31c-4.35,2.01 -9.22,5.63 -12.96,7.96 -1.74,1.08 -3.49,2.1 -5.26,3.04 0.92,7.4 1.35,11.77 3.78,11.04 3.58,-1.09 11.02,-11.46 14.44,-22.04zm-21.34 12.55c-4.85,2.25 -9.92,3.79 -15.55,4.23l-0.45 0.03c0.23,7.77 -0.04,12.5 2.35,12.04 3,-0.59 9.7,-8.05 13.66,-16.3zm-21.49 4.35c-5.69,-0.21 -11.47,-1.31 -16.95,-3.06 4.95,8.04 13,15.06 16.16,15.27 2.42,0.16 1.55,-4.49 0.79,-12.21z"/>
    <path id="_269466488" class="fil6" d="M230.15 421.26c0,0 1.33,4.91 4.53,10.04 2.86,-0.72 6.88,-1.04 11.7,0.39 -0.59,-1.69 -1.13,-3.47 -1.54,-5.26 -2.31,-0.81 -4.55,-1.74 -6.69,-2.77 -1.52,-0.73 -6.01,-3.5 -7.43,-3.64 -0.23,-0.02 -0.5,0.09 -0.75,0.23 -0.03,0.29 0.02,0.62 0.19,1.01zm21.41 12.33c2.81,0.91 7.71,2.06 12.6,1.13 -0.14,-1.37 -0.31,-2.91 -0.48,-4.59 -5.69,-0.21 -11.47,-1.31 -16.95,-3.06 1.42,2.3 3.09,4.52 4.83,6.52zm17.73 1.44c2.32,-1.21 6.51,-2.76 11.39,-1.68 1.64,-2.3 3.21,-4.89 4.5,-7.56 -4.85,2.25 -9.92,3.79 -15.55,4.23l-0.45 0.03c0.06,1.84 0.08,3.5 0.12,4.97zm19.56 -6.37c3.2,-2.91 7.67,-5.55 12.57,-4.16 1.98,-3.41 3.82,-7.32 5.09,-11.26 -4.35,2.01 -9.22,5.63 -12.96,7.96 -1.74,1.08 -3.49,2.1 -5.26,3.04 0.2,1.63 0.38,3.11 0.56,4.42zm19.06 -6c3.46,-0.76 8.41,-0.97 14.47,1.16 0.41,-0.79 0.78,-1.56 1.1,-2.28 -2.79,-2.4 -5.78,-4.73 -8.86,-6.62 -1.03,-0.63 -4.09,-2.36 -5.64,-2.54 0.04,3.08 -0.41,6.71 -1.08,10.27z"/>
    <path id="_269466608" class="fil6" d="M347.57 412.84c0,0 14.8,29.13 -10.45,62.36 0,0 -9.87,0.12 -17.62,-9.51 0,0 28.66,-13.86 28.07,-52.85z"/>
    <path id="_269466704" class="fil1" d="M248.25 464.81c0,0 2.28,-11.06 6.32,-11.7 4.04,-0.64 9.83,12.23 9.83,12.23 0,0 -16.85,2.22 -16.15,-0.53z"/>
    <path id="_269466824" class="fil5" d="M251.14 463.01c0,0 1.37,-6.65 3.8,-7.04 1.9,-0.3 4.44,4.36 5.46,6.41 0.89,1.79 -9.51,1.61 -9.26,0.63z"/>
    <path id="_269466992" class="fil6" d="M251.14 463.01c0,0 0.36,-1.75 1.04,-3.51 1.87,0.31 4.1,0.38 6.52,-0.17 0.71,1.12 1.32,2.27 1.7,3.05 0.89,1.79 -9.51,1.61 -9.26,0.63z"/>
    <path id="_269467136" class="fil6" d="M189.02 425.88c0,0 -5.75,31.47 17.85,54.61 0,0 11.51,-2 20.67,-10.22 -9.75,2.82 -33.65,-2.21 -38.52,-44.39z"/>
    <path id="_269467232" class="fil1" d="M210.28 435.74c0,0 -3.87,7.69 -13.39,12.1 0,0 10.63,-1.46 16.79,-7.4l-0.94 -2.47c0,0 -2.47,-2.11 -2.47,-2.23z"/>
    <path id="_269467352" class="fil1" d="M346.23 408.39c0,0 2.59,18.59 -7.06,38.35 0,0 13.92,-14.99 11.8,-35.31l-2.11 -3.99 -2.63 0.95z"/>
    <circle id="_269467448" class="fil3" cx="136.11" cy="403.22" r="10.71"/>
    <circle id="_269467616" class="fil3" cx="153.58" cy="403.27" r="4.76"/>
    <circle id="_269467736" class="fil3" cx="395.76" cy="421.68" r="13.06"/>
    <circle id="_269467856" class="fil3" cx="400.94" cy="399.56" r="2.71"/>
    <circle id="_269467952" class="fil3" cx="158.31" cy="420.18" r="8.51"/>
    <path class="fil1" d="M304.44 469.45l0 0c1.16,-0 2.1,1.51 2.1,3.37l0 11.69c-0,1.86 -0.94,3.37 -2.1,3.37l0 0c-1.16,-0 -2.1,-1.51 -2.1,-3.37l0 -11.69c0,-1.86 0.94,-3.37 2.1,-3.37z"/>
   </g>
  </g>
 </g>
</svg>
