<?xml version="1.0" encoding="UTF-8"?>
<!DOCTYPE svg PUBLIC "-//W3C//DTD SVG 1.1//EN" "http://www.w3.org/Graphics/SVG/1.1/DTD/svg11.dtd">
<!-- Creator: CorelDRAW 2020 (64-Bit) -->
<svg xmlns="http://www.w3.org/2000/svg" xml:space="preserve" width="129.436mm" height="197.988mm" version="1.1" style="shape-rendering:geometricPrecision; text-rendering:geometricPrecision; image-rendering:optimizeQuality; fill-rule:evenodd; clip-rule:evenodd"
viewBox="0 0 392.29 600.05"
 xmlns:xlink="http://www.w3.org/1999/xlink"
 xmlns:xodm="http://www.corel.com/coreldraw/odm/2003">
 <defs>
  <style type="text/css">
   <![CDATA[
    .fil1 {fill:none}
    .fil2 {fill:#501D33}
    .fil5 {fill:#C3926B}
    .fil3 {fill:#EDDC93}
    .fil0 {fill:#EEF698}
    .fil6 {fill:#F5EAB9}
    .fil4 {fill:white}
   ]]>
  </style>
 </defs>
 <g id="Слой_x0020_1">
  <metadata id="CorelCorpID_0Corel-Layer"/>
  <g id="_2674608429744">
   <path class="fil0" d="M157.1 353.88l26.66 -17.84 9.62 -17.64c0,0 -34.08,28.67 -36.29,35.48z"/>
   <g>
    <rect id="_281779912" class="fil1" y="0" width="392.29" height="600.05"/>
    <path id="_118824576" class="fil0" d="M130.17 321.71c0.6,0.26 13.2,-0.6 31,-3.07 0,0 28.13,6.68 68.91,0.03 0,0 14.5,7 34.47,6.14l-31.4 -11.09 -13.14 1.71 -62.11 -2.56c0,0 -17.92,4.27 -27.73,8.84z"/>
    <g>
     <g>
      <path id="_123949208" class="fil2" d="M162.17 312.2c0,0 -10.18,-12.49 -12.22,-29.22 -0.62,-5.1 -5.8,-5.76 -9.63,-1.75 -6.62,6.93 -14.7,21.34 -6.14,38.89l27.99 -7.92z"/>
      <path id="_123949304" class="fil3" d="M154.93 312.8c-0.03,0.16 -0.06,0.31 -0.1,0.47l-16.8 5.56c-6.52,-12.72 -2.37,-27.16 6.91,-35.9 0.96,10.01 4.26,21.52 9.98,29.87z"/>
      <path id="_123949424" class="fil4" d="M154.93 312.8c-0.03,0.16 -0.06,0.32 -0.1,0.47l-0.31 0.1c-11.42,-8.94 -10.04,-26.47 -9.57,-30.38 0.96,10 4.26,21.48 9.97,29.81z"/>
      <path id="_123949520" class="fil5" d="M154.93 312.8c-0.03,0.16 -0.06,0.31 -0.1,0.47l-16.79 5.56c-0.74,-1.45 -1.35,-2.92 -1.82,-4.41 3.97,-0.43 11.41,-1.34 17.2,-4 0.48,0.81 0.99,1.61 1.51,2.37z"/>
      <path id="_123949640" class="fil5" d="M142.3 287.44c0,0 -11.22,11.26 -3.22,31.05l8.71 -2.88c-3.39,-5.05 -8,-14.79 -5.49,-28.17z"/>
     </g>
     <g>
      <path id="_123949784" class="fil2" d="M158.35 311.61c0,0 7.29,-12.89 11.64,-12.34 4.35,0.54 9.12,12.62 9.12,12.62 0,0 4.53,-6.56 8.2,-6.63 3.68,-0.07 5.76,5.7 5.76,5.7 0,0 3.83,-3.74 5.68,-4.29 1.85,-0.54 8.48,8.42 8.48,8.42 0,0 -26.27,4.78 -48.88,-3.48z"/>
      <path id="_123949880" class="fil3" d="M163.13 311.74c0,0 4.86,-7.59 6.51,-7.73 1.66,-0.14 6.68,10.24 6.68,10.24 0,0 -11.07,-1.27 -13.19,-2.51z"/>
      <path id="_123950024" class="fil3" d="M182.1 313.64c0,0 3.24,-4.93 5.09,-4.8 1.86,0.13 3.61,6.61 3.61,6.61 0,0 -7.35,-1.02 -8.7,-1.82z"/>
      <path id="_123950120" class="fil3" d="M194.18 314.76c0,0 3.44,-4.51 4.58,-4.59 1.14,-0.08 4.05,5.97 4.05,5.97 0,0 -7.32,-0.61 -8.63,-1.38z"/>
     </g>
     <g>
      <g>
       <path id="_123950288" class="fil2" d="M238.7 294.74c9.2,-3.02 21.81,1.78 22.88,5.81 0.71,6.15 0.04,15.79 -3.54,23.14l-28.27 -9.36c6.63,-8.85 8.75,-19.08 8.93,-19.58z"/>
       <path id="_123950432" class="fil3" d="M234.82 314.91c0.03,0.17 0.07,0.34 0.1,0.51l18.23 6.04c2.94,-5.73 3.88,-11.77 3.26,-17.57 -6.42,0.01 -11.23,-1.66 -14.57,-3.49 -1.77,5.24 -4.1,10.26 -7.02,14.51z"/>
       <path id="_123950528" class="fil4" d="M234.82 314.91c0.03,0.17 0.07,0.34 0.1,0.51l0.34 0.11c4.77,-3.73 7.48,-8.85 8.98,-13.97 -0.87,-0.37 -1.67,-0.76 -2.4,-1.16 -1.77,5.24 -4.1,10.26 -7.02,14.51z"/>
       <path id="_123950672" class="fil5" d="M234.82 314.91c0.03,0.17 0.07,0.34 0.1,0.51l18.23 6.04c0.81,-1.58 0.87,-1.86 1.38,-3.47 -13.4,-3.24 -14.34,-4.29 -17.48,-6.71 -0.53,0.88 -1.67,2.81 -2.24,3.64z"/>
       <path id="_123950792" class="fil5" d="M255.07 303.87c0.33,4.79 -0.36,10.56 -3.05,17.21l-9.45 -3.13c2.19,-3.26 4.85,-8.32 6.07,-14.95 1.91,0.46 4.06,0.78 6.43,0.86z"/>
      </g>
      <path id="_123950960" class="fil6" d="M257.63 300.94c1.13,1.31 -14.21,-0.98 -15.23,-3.02 -0.4,-0.79 3.71,-1.16 7.73,-0.39 3.12,0.6 6.19,1.89 7.5,3.41z"/>
      <polygon id="_123951104" class="fil2" points="247.69,301.32 246.1,311.3 250.57,302.45 "/>
      <path id="_123951200" class="fil2" d="M247.37 300.6l5.64 -1.51 -2.13 2.41c0,0 -3.53,-0.93 -3.5,-0.91z"/>
     </g>
     <path id="_123932264" class="fil2" d="M158.53 309.92c0,0 46.07,6.65 72.52,1.19 0,0 18.81,9.82 35.02,12.55 0,0 2.66,0.3 2.23,0.77 -0.43,0.47 -14.3,2.89 -37.38,-8.26 0,0 -25.56,5.32 -70.77,-1.33 0,0 -17.46,5.33 -30.15,6.77 0,0 -1.68,0.17 -1.64,-0.29 0.03,-0.34 27.19,-9.71 30.18,-11.41l0 0z"/>
    </g>
   </g>
   <polygon class="fil2" points="208.72,313.95 229.97,292.8 229.71,293.92 216.14,314.65 "/>
   <path class="fil2" d="M186.87 316.35c-9.81,11.68 -19.62,23.36 -29.42,35.05 -1.35,1.61 -1.16,2.83 0.04,1.49l37.61 -35.33 -8.22 -1.2z"/>
  </g>
 </g>
</svg>
