<?xml version="1.0" encoding="UTF-8"?>
<!DOCTYPE svg PUBLIC "-//W3C//DTD SVG 1.1//EN" "http://www.w3.org/Graphics/SVG/1.1/DTD/svg11.dtd">
<!-- Creator: CorelDRAW 2020 (64-Bit) -->
<svg xmlns="http://www.w3.org/2000/svg" xml:space="preserve" width="129.436mm" height="197.988mm" version="1.1" style="shape-rendering:geometricPrecision; text-rendering:geometricPrecision; image-rendering:optimizeQuality; fill-rule:evenodd; clip-rule:evenodd"
viewBox="0 0 787.98 1205.31"
 xmlns:xlink="http://www.w3.org/1999/xlink"
 xmlns:xodm="http://www.corel.com/coreldraw/odm/2003">
 <defs>
  <style type="text/css">
   <![CDATA[
    .fil0 {fill:none}
    .fil12 {fill:#4B3446}
    .fil1 {fill:#501D33}
    .fil10 {fill:#634C54}
    .fil4 {fill:#856969}
    .fil11 {fill:#896E6B}
    .fil5 {fill:#8E7A5D}
    .fil2 {fill:#AE9F90}
    .fil8 {fill:#C3926B}
    .fil9 {fill:#C3C077}
    .fil3 {fill:#D2C8AD}
    .fil6 {fill:#EDDC93}
    .fil13 {fill:#EEF698}
    .fil7 {fill:white}
   ]]>
  </style>
 </defs>
 <g id="Слой_x0020_1">
  <metadata id="CorelCorpID_0Corel-Layer"/>
  <g id="_1746355271408">
   <g id="_118815984">
    <rect id="_119089136" class="fil0" width="787.98" height="1205.31"/>
    <path id="_280464608" class="fil1" d="M588.97 660.79l6.68 -15.64 14.71 -3.44 4.28 5.1c33.35,58.25 35.28,115.24 25.59,180.08 -5.53,37.01 9.88,61.29 41.28,72.53l-35.45 41.02c-42.72,-23.25 -58.24,-72.47 -43.12,-117.72 12.47,-37.3 9.23,-79.66 -1.91,-116.57 -2.45,-10.06 -7.02,-19.57 -10.35,-29.38 -1.3,-3.82 0.98,-9.42 -0.56,-13.15l-1.17 -2.83z"/>
    <path id="_280464536" class="fil2" d="M596.89 660.84c0,0 38.04,92.37 14.29,163.4 -23.75,71.03 33.44,106.7 33.44,106.7l24.01 -27.79c0,0 -46.43,-14.08 -37,-77.23 9.43,-63.15 8.75,-119.22 -23.93,-176.3l-6.8 1.79 -4.02 9.42z"/>
    <path id="_280464464" class="fil3" d="M644.68 930.87l23.95 -27.72c0,0 -46.43,-14.08 -37,-77.23l0.21 -1.45c-0.25,0.23 -0.5,0.44 -0.74,0.68 -11.25,29.59 -2.54,64.93 24.34,81.05l-10.76 24.67z"/>
    <path id="_280464392" class="fil4" d="M596.89 660.84c0,0 38.04,92.37 14.3,163.4 -6.6,19.75 -6.94,36.77 -4,51.04 5.77,-14.52 13.84,-31.95 24.28,-48.05 0.06,-0.44 0.11,-0.87 0.18,-1.31 9.43,-63.15 8.75,-119.22 -23.92,-176.3l-6.8 1.79 -4.02 9.42z"/>
    <path id="_280464320" class="fil1" d="M455.37 859.53l8.28 -10.12 14.93 10.19c-3.29,32.83 2.52,62.61 24.04,88.7l-31.97 15.12c-17.13,-23.93 -21.85,-52.29 -20.38,-81.05 0.34,-6.69 3.66,-14.4 4.79,-21.03l0.31 -1.81z"/>
    <path id="_280464248" class="fil2" d="M460.63 858.46c0,0 -10.63,62.25 13.28,95.64l17.46 -7.59c0,0 -25.05,-30.36 -19.36,-87.29l-7.97 -4.93 -3.42 4.17z"/>
    <path id="_280464176" class="fil4" d="M460.63 858.46c0,0 -3.06,17.95 -2.2,39.75 1.58,-2.78 3.63,-5.76 6.21,-8.34 0,0 2.67,4.87 8.51,10.3 -1.94,-11.58 -2.71,-25.25 -1.14,-40.96l-7.97 -4.93 -3.42 4.17z"/>
    <path id="_280464104" class="fil1" d="M313.75 856.75c0,0 19.29,58.82 -7.72,124.77l40.19 13.08c0,0 20.25,-38.33 5.53,-103.94l-16.98 -20.35c0,0 -19.42,-13.36 -21.02,-13.56z"/>
    <path id="_118827816" class="fil5" d="M362.34 705.29l40.54 8.21 51.66 -30.62c0,0 -31.48,-3.08 -41.57,-0.51 -10.09,2.57 -50.64,22.92 -50.64,22.92z"/>
    <path id="_118827744" class="fil5" d="M297.97 689.77c0,0 125.44,-65.46 142.58,-68.89 17.14,-3.43 68.55,16.45 68.55,16.45l-51.07 -4.11c0,0 -141.21,48.33 -160.06,56.55z"/>
    <g>
     <path id="_118827672" class="fil1" d="M457.68 639.84c3.07,-9.9 15.92,-43.16 4.92,-66.13 -1.5,-3.96 3.26,-2.85 5.98,-2.31 3.4,0.68 7.11,1.7 8.58,2.23 17.01,6.09 39,25.85 34.98,68.01 -4.99,2.28 -15.73,7.61 -27.45,7.85 -8.72,0.18 -20.57,-3.45 -27.01,-9.65z"/>
     <path id="_118827600" class="fil6" d="M466.93 637.36c2.58,-8.3 11.09,-36.97 3.54,-57.53 -0.36,-1.69 -0.68,-2.11 1.56,-1.28 34.8,12.95 34.37,49.5 33.34,60.29 -7.3,3.33 -21.12,9.81 -38.43,-1.48z"/>
     <path id="_118827528" class="fil7" d="M466.93 637.36c2.58,-8.3 11.09,-36.97 3.54,-57.53 -0.14,-0.66 -0.27,-1.12 -0.26,-1.39 3.1,5.67 16.94,34.23 -3.27,58.93l-0.02 -0.01z"/>
     <path id="_118827456" class="fil8" d="M472.65 579.64c0,0 34.34,15.06 30.82,58.24 0,0 -9.92,6.18 -24.17,2.97 0,0 19.84,-29.19 -6.65,-61.2z"/>
     <path id="_118827384" class="fil1" d="M468.33 576.77c0,0 14.97,13.84 18.32,36.21 0,0 4.15,-21.04 -11.49,-36.6l-4.79 -2.01 -2.04 2.41z"/>
    </g>
    <g>
     <path id="_118827288" class="fil1" d="M363.81 666.84c-7.35,-9.4 -34.76,-39.96 -32.31,-69.17 0,-4.88 -4.67,-1.74 -7.38,-0.04 -3.38,2.12 -6.96,4.74 -8.33,5.9 -15.82,13.5 -31.42,43.75 -9.87,87.49 6.3,0.41 20.04,1.76 32.75,-2.77 9.46,-3.37 20.74,-12.12 25.13,-21.42z"/>
     <path id="_118827216" class="fil6" d="M352.84 667.93c-6.17,-7.88 -27.03,-35.26 -27.31,-60.48 -0.3,-1.97 -0.13,-2.55 -2.2,-0.74 -32.17,28.15 -16.77,67.32 -11.26,78.51 9.21,0.6 26.74,1.94 40.76,-17.29z"/>
     <path id="_118827144" class="fil7" d="M352.84 667.93c-6.17,-7.88 -27.03,-35.26 -27.31,-60.48 -0.12,-0.76 -0.16,-1.32 -0.3,-1.6 -1.02,7.37 -4.25,43.77 27.59,62.1l0.01 -0.02z"/>
     <path id="_118827072" class="fil8" d="M323.11 608.15c0,0 -30.81,30.23 -9.39,75.27 0,0 13.2,2.6 27.23,-6.68 0,0 -33.27,-23.31 -17.84,-68.59z"/>
     <path id="_118827000" class="fil1" d="M326.58 603.3c0,0 -10.46,21.01 -4.93,46.45 0,0 -13.06,-20.95 -2.59,-44.09l4.34 -4.12 3.18 1.76z"/>
    </g>
    <path id="_269463392" class="fil9" d="M299.2 691.87c0,0 116.53,-49.01 165.2,-59.29l50.38 7.2c0,0 -32.22,26.39 -43.87,31.87 -11.65,5.48 -136.75,26.39 -136.75,26.39l-34.96 -6.17z"/>
    <g>
     <g>
      <path id="_269463512" class="fil1" d="M270.34 773.12l-26.19 23.73c-6.29,5.7 -14.99,7.57 -22.57,3.2 -5.47,-3.16 -8.94,-8.91 -9.44,-15.18 -0.57,-7.05 2.58,-13.49 7.74,-18.16l29.92 -27.11c5.11,-4.63 11.81,-6.73 18.21,-5.02 2.16,0.58 7.22,-4.81 9.24,-1.13 7.27,13.23 3.95,29.83 -6.9,39.66z"/>
      <path id="_269463608" class="fil10" d="M265.43 763.54l-29.3 25.25c-10.95,9.43 -18.06,-1.84 -9.8,-14.94l19.37 -30.75c4.11,-4 17.8,-21 22.09,-9.7 2.01,5.29 3.03,10.84 2.95,15.84 -0.1,6.04 -1.8,11.28 -5.31,14.3z"/>
     </g>
     <g>
      <path id="_269463776" class="fil1" d="M205.91 802.4l29.92 27.11c6.29,5.7 14.99,7.57 22.57,3.2 5.47,-3.16 8.94,-8.91 9.45,-15.18 0.57,-7.05 -2.58,-13.49 -7.74,-18.16l-29.92 -27.11c-6.29,-5.7 -14.99,-7.57 -22.57,-3.2 -5.48,3.16 -8.94,8.91 -9.45,15.18 -0.57,7.05 2.58,13.49 7.74,18.16z"/>
      <path id="_269463896" class="fil10" d="M212.38 795.27l29.92 27.11c10.71,9.7 22.82,-5.48 11.35,-15.87l-29.92 -27.11c-10.71,-9.71 -22.82,5.48 -11.35,15.87z"/>
     </g>
     <g>
      <path id="_269464040" class="fil1" d="M274.06 805.78l-29.92 27.11c-6.29,5.7 -14.99,7.57 -22.57,3.2 -5.47,-3.16 -8.94,-8.91 -9.44,-15.18 -0.57,-7.05 2.5,-13.58 7.74,-18.16l31 -27.11c6.39,-5.59 13.91,-7.57 21.49,-3.2 5.48,3.15 8.94,8.91 9.45,15.18 0.57,7.05 -2.58,13.49 -7.74,18.16z"/>
      <path id="_269464136" class="fil10" d="M267.6 798.65l-29.92 27.11c-10.71,9.7 -22.82,-5.48 -11.35,-15.87l29.92 -27.11c10.71,-9.71 22.82,5.48 11.35,15.87z"/>
     </g>
     <g>
      <path id="_269464280" class="fil1" d="M200.5 835.6l29.92 27.11c6.29,5.7 14.99,7.57 22.57,3.2 5.47,-3.16 8.94,-8.91 9.44,-15.18 0.57,-7.05 -2.58,-13.49 -7.74,-18.16l-29.92 -27.11c-6.29,-5.7 -14.99,-7.57 -22.57,-3.2 -5.48,3.16 -8.94,8.91 -9.45,15.18 -0.57,7.05 2.58,13.49 7.74,18.16z"/>
      <path id="_269464400" class="fil10" d="M206.96 828.47l29.92 27.11c10.71,9.7 22.82,-5.48 11.35,-15.87l-29.92 -27.11c-10.71,-9.71 -22.82,5.48 -11.35,15.87z"/>
     </g>
     <path id="_269445656" class="fil11" d="M213.25 811.28l28 25.14 -5.63 4.63c0,0 -29.54,-28.54 -22.37,-29.77z"/>
     <g>
      <path id="_269445752" class="fil1" d="M274.06 842.44l-29.92 27.11c-6.29,5.7 -14.99,7.57 -22.57,3.2 -5.47,-3.16 -8.94,-8.91 -9.44,-15.18 -0.57,-7.05 2.58,-13.49 7.74,-18.16l29.92 -27.11c6.29,-5.7 14.99,-7.57 22.57,-3.2 5.48,3.16 8.94,8.91 9.45,15.18 0.57,7.05 -2.58,13.49 -7.74,18.16z"/>
      <path id="_269445872" class="fil10" d="M267.6 835.31l-29.92 27.11c-10.71,9.7 -22.82,-5.48 -11.35,-15.87l29.92 -27.11c10.71,-9.7 22.82,5.48 11.35,15.87z"/>
     </g>
     <g>
      <path id="_269446088" class="fil1" d="M200.5 875.17l29.92 27.11c6.29,5.7 14.99,7.57 22.57,3.2 5.47,-3.16 8.94,-8.91 9.44,-15.18 0.57,-7.05 -2.58,-13.49 -7.74,-18.16l-29.92 -27.11c-6.29,-5.7 -14.99,-7.57 -22.57,-3.2 -5.48,3.16 -8.94,8.91 -9.45,15.18 -0.57,7.05 2.58,13.49 7.74,18.16z"/>
      <path id="_269446208" class="fil10" d="M206.96 868.03l29.92 27.11c10.71,9.7 22.82,-5.48 11.35,-15.87l-29.92 -27.11c-10.71,-9.7 -22.82,5.48 -11.35,15.87z"/>
     </g>
     <path id="_269446352" class="fil11" d="M213.1 851.06l28 25.14 -5.63 4.63c0,0 -29.54,-28.54 -22.37,-29.77z"/>
     <g>
      <path id="_269446472" class="fil1" d="M274.06 881.46l-29.92 27.11c-6.29,5.7 -14.99,7.57 -22.57,3.2 -5.47,-3.16 -8.94,-8.91 -9.44,-15.18 -0.57,-7.05 2.58,-13.49 7.74,-18.16l29.92 -27.11c6.29,-5.7 14.99,-7.57 22.57,-3.2 5.48,3.16 8.94,8.91 9.45,15.18 0.57,7.05 -2.58,13.49 -7.74,18.16z"/>
      <path id="_269446568" class="fil10" d="M267.6 874.33l-29.92 27.11c-10.71,9.7 -22.82,-5.48 -11.35,-15.87l29.92 -27.11c10.71,-9.71 22.82,5.48 11.35,15.87z"/>
     </g>
     <path id="_269446760" class="fil11" d="M258.34 782.74l-28 25.14 5.63 4.63c0,0 29.54,-28.54 22.37,-29.77z"/>
     <path id="_269446904" class="fil11" d="M259.12 820.67l-28 25.14 5.63 4.63c0,0 29.54,-28.54 22.37,-29.77z"/>
     <path id="_269447000" class="fil11" d="M260.91 857.42l-28 25.14 5.63 4.63c0,0 29.54,-28.54 22.37,-29.77z"/>
     <g>
      <path id="_269447120" class="fil1" d="M205.87 947.19c0,0 -15.64,26.08 -13.21,36.76 4.55,20.05 40.42,32.87 35.11,52.68 0,0 48.79,-7.28 55.34,-56.53 0,0 1.86,-9.34 -14.67,-34.71 0,0 -20.48,-0.86 -21.9,-0.86 -1.42,0 -40.67,2.67 -40.67,2.67z"/>
      <path id="_269447216" class="fil10" d="M213.09 953.23c0,0 -14.53,20.9 -12.56,29.62 3.71,16.36 35.18,29.54 34.28,43.71 0,0 32.96,-8.66 40.5,-46.71 0,0 0.82,-7.14 -12.67,-27.85 -16.97,-1.26 -32.52,-0.09 -49.55,1.23z"/>
      <path id="_269447336" class="fil12" d="M205.71 982.49c-0.03,0.71 0.02,1.37 0.15,1.97 3.25,14.33 30.83,25.88 30.04,38.29 0,0 28.88,-7.59 35.49,-40.93 0,0 0.01,-0.14 0,-0.43 -27.74,8.26 -52.99,4.26 -65.68,1.1z"/>
      <path id="_269447456" class="fil12" d="M257.68 960.72c0,0 8.49,20.76 8.7,21.85 0.21,1.1 -15,20.62 -15,20.62l8.87 -18.63 -2.58 -23.84z"/>
      <polygon id="_269447576" class="fil12" points="218.84,960.07 209.26,985 215.04,985.74 "/>
      <polygon id="_269454224" class="fil10" points="253.07,982.81 245.18,1010.09 260.26,984.27 "/>
      <path id="_269454392" class="fil10" d="M228 979.73c0,1.17 6.34,27.58 6.34,27.58l1.69 -24.94 -8.03 -2.64z"/>
     </g>
     <g>
      <path id="_269454536" class="fil1" d="M210.03 957.02l58.46 -6.7c0,0 8.37,-15.16 1.81,-27.89l-63.74 14.23c-2.02,-0.27 -9.11,10.68 3.47,20.35z"/>
      <path id="_269454632" class="fil2" d="M212.82 937.94c0,0 -2.9,5.72 0.91,13.96l48.95 -6c0,0 4.4,-8.71 0.96,-21.6l-48.93 12.78 -1.9 0.85z"/>
      <path id="_269454752" class="fil4" d="M219.08 938.5c0,0 27.59,-2.02 28.39,-2.24 0.81,-0.21 -0.54,-6.99 -0.54,-6.99 0,0 -23.22,5.46 -27.85,9.22z"/>
      <path id="_269454848" class="fil3" d="M212.82 937.94c0,0 -2.9,5.72 0.91,13.96l5.69 -0.7c-0.97,-1.81 -2.36,-6.21 0.36,-14.16 0,0 -0.27,-0.39 -0.68,-1.1l-4.38 1.14 -1.9 0.85z"/>
      <path id="_269454968" class="fil4" d="M243.72 948.23l18.97 -2.33c0,0 4.4,-8.71 0.96,-21.6l-24.68 6.45c-0.14,0.16 -0.22,0.25 -0.22,0.25 5.99,6.08 5.95,12.82 4.97,17.23z"/>
      <path id="_269455064" class="fil1" d="M205 905.86l65.12 -3.04c0.92,0.56 5.44,12.98 0.16,20.65l-62.8 18.16c-1.5,-0.69 -13.82,-17.37 -2.49,-35.77z"/>
      <path id="_269455208" class="fil2" d="M210.1 908.81c0,0 -5.26,14.12 1.72,26.69l53.51 -14.35c0,0 0.55,-9.12 -0.66,-12.36 -1.21,-3.24 -54.58,0.03 -54.58,0.03z"/>
      <polygon id="_269455304" class="fil4" points="215.39,909.41 248.85,917.95 249.25,906.97 "/>
      <path id="_269455424" class="fil3" d="M210.1 908.81c0,0 -5.26,14.12 1.72,26.69l6.16 -1.65c-2.31,-4.74 -5.64,-14.21 -2.23,-24.78 0,0 -0.08,-0.2 -0.23,-0.57 -3.35,0.18 -5.43,0.31 -5.43,0.31z"/>
      <path id="_269455520" class="fil4" d="M241.17 927.63l24.17 -6.48c0,0 0.55,-9.12 -0.66,-12.36 -0.57,-1.53 -12.83,-1.61 -25.58,-1.26 -0.44,0.58 -0.73,0.88 -0.73,0.88 7.89,7.14 5.32,14.92 2.81,19.23z"/>
      <path id="_269455640" class="fil1" d="M203.51 865.62c22.61,12.88 44.24,19.35 66.76,18.11 0,0 4.17,13.12 0.68,26.29l-65.67 -0.37c-2.04,-1.89 -12.46,-24.67 -1.77,-44.02z"/>
      <path id="_269455736" class="fil2" d="M207.93 873.56c0,0 -3.48,16.69 2.39,30.25l55.03 1.23 0.29 -16.36c0,0 -29.2,1.13 -57.71,-15.13z"/>
      <path id="_269455856" class="fil3" d="M207.93 873.56c0,0 -3.48,16.69 2.39,30.25l3.73 0.08c-1.67,-6.04 -3.6,-16.62 -1.01,-27.6 -1.7,-0.85 -3.41,-1.76 -5.11,-2.73z"/>
      <path id="_269455976" class="fil4" d="M240.94 904.49l24.41 0.55 0.29 -16.36c0,0 -9.64,0.37 -23.24,-2.39 2.02,8.49 0.32,14.59 -1.45,18.2z"/>
      <polygon id="_269456144" class="fil3" points="211.14,898.23 241.04,904.45 211.98,903.87 "/>
     </g>
    </g>
    <g>
     <g>
      <path id="_269456312" class="fil1" d="M577.71 773.12l-26.19 23.73c-6.29,5.7 -14.99,7.57 -22.57,3.2 -5.47,-3.16 -8.94,-8.91 -9.44,-15.18 -0.57,-7.05 2.58,-13.49 7.74,-18.16l29.92 -27.11c5.11,-4.63 11.81,-6.73 18.21,-5.02 2.16,0.58 7.22,-4.81 9.24,-1.13 7.27,13.23 3.95,29.83 -6.9,39.66z"/>
      <path id="_269456432" class="fil10" d="M572.8 763.54l-29.3 25.25c-10.95,9.43 -18.06,-1.84 -9.8,-14.94l19.37 -30.75c4.11,-4 17.8,-21 22.09,-9.7 2.01,5.29 3.03,10.84 2.95,15.84 -0.1,6.04 -1.8,11.28 -5.31,14.3z"/>
     </g>
     <g>
      <path id="_269456576" class="fil1" d="M513.28 802.4l29.92 27.11c6.29,5.7 14.99,7.57 22.57,3.2 5.47,-3.16 8.94,-8.91 9.45,-15.18 0.57,-7.05 -2.58,-13.49 -7.74,-18.16l-29.92 -27.11c-6.29,-5.7 -14.99,-7.57 -22.57,-3.2 -5.48,3.16 -8.94,8.91 -9.45,15.18 -0.57,7.05 2.58,13.49 7.74,18.16z"/>
      <path id="_269456672" class="fil10" d="M519.74 795.27l29.92 27.11c10.71,9.7 22.82,-5.48 11.35,-15.87l-29.92 -27.11c-10.71,-9.71 -22.82,5.48 -11.35,15.87z"/>
     </g>
     <g>
      <path id="_269456816" class="fil1" d="M581.43 805.78l-29.92 27.11c-6.29,5.7 -14.99,7.57 -22.57,3.2 -5.47,-3.16 -8.94,-8.91 -9.44,-15.18 -0.57,-7.05 2.5,-13.58 7.74,-18.16l31 -27.11c6.39,-5.59 13.91,-7.57 21.49,-3.2 5.48,3.15 8.94,8.91 9.45,15.18 0.57,7.05 -2.58,13.49 -7.74,18.16z"/>
      <path id="_269456960" class="fil10" d="M574.97 798.65l-29.92 27.11c-10.71,9.7 -22.82,-5.48 -11.35,-15.87l29.92 -27.11c10.71,-9.71 22.82,5.48 11.35,15.87z"/>
     </g>
     <g>
      <path id="_269457104" class="fil1" d="M507.87 835.6l29.92 27.11c6.29,5.7 14.99,7.57 22.57,3.2 5.47,-3.16 8.94,-8.91 9.44,-15.18 0.57,-7.05 -2.58,-13.49 -7.74,-18.16l-29.92 -27.11c-6.29,-5.7 -14.99,-7.57 -22.57,-3.2 -5.48,3.16 -8.94,8.91 -9.45,15.18 -0.57,7.05 2.58,13.49 7.74,18.16z"/>
      <path id="_269457200" class="fil10" d="M514.33 828.47l29.92 27.11c10.71,9.7 22.82,-5.48 11.35,-15.87l-29.92 -27.11c-10.71,-9.71 -22.82,5.48 -11.35,15.87z"/>
     </g>
     <path id="_269457344" class="fil11" d="M520.62 811.28l28 25.14 -5.63 4.63c0,0 -29.54,-28.54 -22.37,-29.77z"/>
     <g>
      <path id="_269457464" class="fil1" d="M581.43 842.44l-29.92 27.11c-6.29,5.7 -14.99,7.57 -22.57,3.2 -5.47,-3.16 -8.94,-8.91 -9.44,-15.18 -0.57,-7.05 2.58,-13.49 7.74,-18.16l29.92 -27.11c6.29,-5.7 14.99,-7.57 22.57,-3.2 5.48,3.16 8.94,8.91 9.45,15.18 0.57,7.05 -2.58,13.49 -7.74,18.16z"/>
      <path id="_269457560" class="fil10" d="M574.97 835.31l-29.92 27.11c-10.71,9.7 -22.82,-5.48 -11.35,-15.87l29.92 -27.11c10.71,-9.7 22.82,5.48 11.35,15.87z"/>
     </g>
     <g>
      <path id="_269442536" class="fil1" d="M507.87 875.17l29.92 27.11c6.29,5.7 14.99,7.57 22.57,3.2 5.47,-3.16 8.94,-8.91 9.44,-15.18 0.57,-7.05 -2.58,-13.49 -7.74,-18.16l-29.92 -27.11c-6.29,-5.7 -14.99,-7.57 -22.57,-3.2 -5.48,3.16 -8.94,8.91 -9.45,15.18 -0.57,7.05 2.58,13.49 7.74,18.16z"/>
      <path id="_269442632" class="fil10" d="M514.33 868.03l29.92 27.11c10.71,9.7 22.82,-5.48 11.35,-15.87l-29.92 -27.11c-10.71,-9.7 -22.82,5.48 -11.35,15.87z"/>
     </g>
     <path id="_269442800" class="fil11" d="M520.47 851.06l28 25.14 -5.63 4.63c0,0 -29.54,-28.54 -22.37,-29.77z"/>
     <g>
      <path id="_269442944" class="fil1" d="M581.43 881.46l-29.92 27.11c-6.29,5.7 -14.99,7.57 -22.57,3.2 -5.47,-3.16 -8.94,-8.91 -9.44,-15.18 -0.57,-7.05 2.58,-13.49 7.74,-18.16l29.92 -27.11c6.29,-5.7 14.99,-7.57 22.57,-3.2 5.48,3.16 8.94,8.91 9.45,15.18 0.57,7.05 -2.58,13.49 -7.74,18.16z"/>
      <path id="_269443040" class="fil10" d="M574.97 874.33l-29.92 27.11c-10.71,9.7 -22.82,-5.48 -11.35,-15.87l29.92 -27.11c10.71,-9.71 22.82,5.48 11.35,15.87z"/>
     </g>
     <path id="_269443184" class="fil11" d="M565.71 782.74l-28 25.14 5.63 4.63c0,0 29.54,-28.54 22.37,-29.77z"/>
     <path id="_269443328" class="fil11" d="M566.48 820.67l-28 25.14 5.63 4.63c0,0 29.54,-28.54 22.37,-29.77z"/>
     <path id="_269443424" class="fil11" d="M568.28 857.42l-28 25.14 5.63 4.63c0,0 29.54,-28.54 22.37,-29.77z"/>
     <g>
      <path id="_123357504" class="fil1" d="M513.23 947.19c0,0 -15.64,26.08 -13.21,36.76 4.55,20.05 40.42,32.87 35.11,52.68 0,0 48.79,-7.28 55.34,-56.53 0,0 1.86,-9.34 -14.67,-34.71 0,0 -20.48,-0.86 -21.9,-0.86 -1.42,0 -40.67,2.67 -40.67,2.67z"/>
      <path id="_123357672" class="fil10" d="M520.46 953.23c0,0 -14.53,20.9 -12.56,29.62 3.71,16.36 35.18,29.54 34.28,43.71 0,0 32.96,-8.66 40.5,-46.71 0,0 0.82,-7.14 -12.67,-27.85 -16.97,-1.26 -32.52,-0.09 -49.55,1.23z"/>
      <path id="_123357768" class="fil12" d="M513.08 982.49c-0.03,0.71 0.02,1.37 0.15,1.97 3.25,14.33 30.83,25.88 30.04,38.29 0,0 28.88,-7.59 35.49,-40.93 0,0 0.01,-0.14 0,-0.43 -27.74,8.26 -52.99,4.26 -65.68,1.1z"/>
      <path id="_123357888" class="fil12" d="M565.05 960.72c0,0 8.49,20.76 8.7,21.85 0.21,1.1 -15,20.62 -15,20.62l8.87 -18.63 -2.58 -23.84z"/>
      <polygon id="_123357984" class="fil12" points="526.21,960.07 516.63,985 522.41,985.74 "/>
      <polygon id="_123358104" class="fil10" points="560.44,982.81 552.55,1010.09 567.62,984.27 "/>
      <path id="_123358200" class="fil10" d="M535.37 979.73c0,1.17 6.34,27.58 6.34,27.58l1.69 -24.94 -8.03 -2.64z"/>
     </g>
     <g>
      <path id="_123358344" class="fil1" d="M517.4 957.02l58.46 -6.7c0,0 8.37,-15.16 1.81,-27.89l-63.74 14.23c-2.02,-0.27 -9.11,10.68 3.47,20.35z"/>
      <path id="_123358488" class="fil2" d="M520.19 937.94c0,0 -2.9,5.72 0.91,13.96l48.95 -6c0,0 4.4,-8.71 0.96,-21.6l-48.93 12.78 -1.9 0.85z"/>
      <path id="_123358584" class="fil4" d="M526.45 938.5c0,0 27.59,-2.02 28.39,-2.24 0.81,-0.21 -0.54,-6.99 -0.54,-6.99 0,0 -23.22,5.46 -27.85,9.22z"/>
      <path id="_123358704" class="fil3" d="M520.19 937.94c0,0 -2.9,5.72 0.91,13.96l5.69 -0.7c-0.97,-1.81 -2.36,-6.21 0.36,-14.16 0,0 -0.27,-0.39 -0.68,-1.1l-4.38 1.14 -1.9 0.85z"/>
      <path id="_123358800" class="fil4" d="M551.09 948.23l18.97 -2.33c0,0 4.4,-8.71 0.96,-21.6l-24.68 6.45c-0.14,0.16 -0.22,0.25 -0.22,0.25 5.99,6.08 5.95,12.82 4.97,17.23z"/>
      <path id="_123358920" class="fil1" d="M512.37 905.86l65.12 -3.04c0.92,0.56 5.44,12.98 0.16,20.65l-62.8 18.16c-1.5,-0.69 -13.82,-17.37 -2.49,-35.77z"/>
      <path id="_123359016" class="fil2" d="M517.47 908.81c0,0 -5.26,14.12 1.72,26.69l53.51 -14.35c0,0 0.55,-9.12 -0.66,-12.36 -1.21,-3.24 -54.58,0.03 -54.58,0.03z"/>
      <polygon id="_123359136" class="fil4" points="522.76,909.41 556.21,917.95 556.62,906.97 "/>
      <path id="_123375096" class="fil3" d="M517.47 908.81c0,0 -5.26,14.12 1.72,26.69l6.16 -1.65c-2.31,-4.74 -5.64,-14.21 -2.23,-24.78 0,0 -0.08,-0.2 -0.23,-0.57 -3.35,0.18 -5.43,0.31 -5.43,0.31z"/>
      <path id="_123375216" class="fil4" d="M548.54 927.63l24.17 -6.48c0,0 0.55,-9.12 -0.66,-12.36 -0.57,-1.53 -12.83,-1.61 -25.58,-1.26 -0.44,0.58 -0.73,0.88 -0.73,0.88 7.89,7.14 5.32,14.92 2.81,19.23z"/>
      <path id="_123375312" class="fil1" d="M510.88 865.62c22.61,12.88 44.24,19.35 66.76,18.11 0,0 4.17,13.12 0.68,26.29l-65.67 -0.37c-2.04,-1.89 -12.46,-24.67 -1.77,-44.02z"/>
      <path id="_123375432" class="fil2" d="M515.3 873.56c0,0 -3.48,16.69 2.39,30.25l55.03 1.23 0.29 -16.36c0,0 -29.2,1.13 -57.71,-15.13z"/>
      <path id="_123375528" class="fil3" d="M515.3 873.56c0,0 -3.48,16.69 2.39,30.25l3.73 0.08c-1.67,-6.04 -3.6,-16.62 -1.01,-27.6 -1.7,-0.85 -3.41,-1.76 -5.11,-2.73z"/>
      <path id="_123375648" class="fil4" d="M548.31 904.49l24.41 0.55 0.29 -16.36c0,0 -9.64,0.37 -23.24,-2.39 2.02,8.49 0.32,14.59 -1.45,18.2z"/>
      <polygon id="_123375744" class="fil3" points="518.51,898.23 548.41,904.45 519.35,903.87 "/>
     </g>
    </g>
    <path id="_123375936" class="fil1" d="M162.32 648.28l19.2 12.28 3.28 17.66c-5.13,15.25 -7.76,31.03 -7.52,47.01 0.39,25.33 4.33,51.73 2.93,76.87 -0.88,15.9 -8.22,30.21 -18.52,42.07 -3.51,4.04 -7.37,7.82 -11.49,11.23 -1.24,1.03 -2.51,2.03 -3.8,2.99 -2,1.47 -5.79,4.57 -6.09,4.51 -1.94,-0.35 -14.32,-16.39 -23.5,-28.51 -1.72,-2.27 -1.72,-3.12 0.88,-4.47 9.95,-5.17 19.33,-11.56 25.49,-23.62 11.55,-22.63 5.51,-54.39 2.56,-78.35 -3.54,-28.82 1.6,-54.44 16.57,-79.67z"/>
    <path id="_123376056" class="fil2" d="M165.76 660.65c0,0 -14.23,21.96 -10.8,67.92 3.43,45.97 11.49,85.08 -28.3,104.29l14.2 18.73c0,0 29.48,-19.37 32.56,-50.73 3.08,-31.36 -10.97,-82.43 2.4,-122.19l-2.05 -12.51 -8 -5.52z"/>
    <path id="_123376176" class="fil3" d="M154.65 723.55c0.08,1.64 0.18,3.31 0.31,5.02 3.43,45.97 11.49,85.08 -28.3,104.29l14.2 18.73c0,0 0.17,-0.11 0.47,-0.32l-6.5 -15.62c36.66,-18.6 29.15,-67.47 20.22,-111.6 0,0 -0.14,-0.18 -0.39,-0.49z"/>
    <path id="_123376272" class="fil4" d="M165.76 660.65c0,0 -13.15,20.29 -11.12,62.7 5.75,11.28 12.32,25.59 17.85,41.4 -2.26,-27.52 -5.66,-59.36 3.32,-86.08l-2.05 -12.51 -8 -5.52z"/>
    <path id="_123376392" class="fil2" d="M322.53 858.24c0,0 17.32,53 -5.32,118.18l23.89 7.62c0,0 14.31,-33.07 1.97,-94.42l-8.23 -20.56c0,0 -10.97,-10.62 -12.31,-10.82z"/>
    <path id="_123376488" class="fil4" d="M322.53 858.24c0,0 7.76,23.77 6.1,59.05 5.07,5.78 11.47,11.75 19.43,17.1 -0.18,-12.64 -1.54,-27.59 -4.99,-44.77l-8.23 -20.56c0,0 -10.97,-10.62 -12.31,-10.82z"/>
    <path id="_123376608" class="fil1" d="M172.79 499.08c0,3.43 -14.23,41.5 -14.23,61.4 0,19.9 14.41,69.98 -22.64,96.74 0,0 7.09,6.93 26.93,4.88 0,0 -10.47,35.6 16.98,65.79 27.44,30.19 -2.3,49.33 -2.3,49.33 0,0 19.54,10.62 45.93,-7.88 51.16,11.83 78.35,62.08 74.72,112.08 0,0 14.74,-1.71 28.1,-16.11 0,0 2.24,28.29 37.54,45.08 0,0 1.03,-11.84 19.19,-25.55 -2.17,25.32 12.55,45.19 20.59,49.84 9.24,-15.87 17.96,-30.28 27.94,-41.38 5.12,10.41 16.41,12.45 16.41,12.45 3.59,-28.72 11.88,-38.12 13.93,-40.04 13.26,14.02 27.73,15.71 27.73,15.71 -3.64,-50 23.56,-100.25 74.72,-112.08 26.39,18.51 45.93,7.88 45.93,7.88 0,0 -29.74,-19.14 -2.3,-49.33 27.44,-30.19 21.09,-60.99 21.09,-60.99 15.57,-1.71 25.73,-11.56 25.73,-11.56 -39.1,-24.53 -26.23,-62.28 -24.52,-94.86 1.71,-32.58 -15.26,-57.97 -15.26,-61.4 -35.3,25.02 -34.21,95.45 -34.21,95.45 -5.83,-23.99 -19.54,-33.59 -19.54,-33.59 2.06,37.7 -17.14,52.44 -17.14,52.44 1.03,-22.28 -10.97,-30.85 -10.97,-30.85 2.4,22.96 -16.11,42.84 -16.11,42.84 13.02,57.24 -16.79,74.72 -16.79,74.72 -31.53,9.6 -42.16,30.16 -42.16,30.16 -4.47,-15.27 -4.8,-23.14 -4.8,-23.14 -11.34,2.09 -19.5,11.94 -19.5,11.94l-9.72 -35.06 -43.53 10.54 -18.2 35.76c0,0 -11.37,-16.82 -27.82,-24.36 0,0 2.06,6.51 -4.8,24.33 0,0 -10.62,-20.56 -42.16,-30.16 0,0 -29.82,-17.48 -16.79,-74.72 0,0 -18.51,-19.88 -16.11,-42.84 0,0 -12.34,10.62 -14.56,26.06 0,0 -10.81,-11.15 -12.52,-48.33 0,0 -14.22,6.52 -19.88,19.05 0,0 -5.93,-51.95 -34.9,-80.22z"/>
    <path id="_123376704" class="fil10" d="M177.53 525.64c0,0 -7.2,19.19 -6.85,37.02 0.34,17.82 10.28,69.23 -13.71,88.08 0,0 27.08,4.8 43.19,-14.05 0,0 -1.03,14.74 -25.36,23.99 0,0 -7.88,25.02 9.25,52.44 17.14,27.42 24.33,33.59 14.05,56.55 0,0 33.93,-9.6 41.13,-47.64 0,0 5.83,23.65 -5.48,38.73 0,0 67.86,11.31 74.03,102.14 0,0 23.65,-7.2 33.59,-37.02 0,0 3.43,13.02 -5.48,29.48 0,0 -3.5,20.4 22.68,40.42 0,0 9.24,-19.67 32.67,-31.99 0,0 -1.88,33.73 10.8,50.86 0,0 9.25,-21.94 23.31,-32.22 0,0 -4.8,-13.37 -0.69,-30.85 0,0 0.96,26.91 17.04,42.31 0,0 -1.88,-16.25 14.2,-32.84 0,0 -8.72,-14.54 -4.62,-33.87 0,0 5.59,26.81 29.24,37.43 0,0 -5.48,-82.26 76.43,-102.82 0,0 -8.68,-7.48 -12.61,-27.67 0,0 14.03,31.65 49.1,35.75 0,0 -11.97,-11.46 -5.99,-32.5 5.99,-21.04 31.88,-19.79 30.51,-74.29 0,0 -21.59,0 -30.16,-21.59 0,0 12.48,16.85 49.09,11.89 0,0 -23.04,-18.74 -21.32,-47.88 1.71,-29.13 8.91,-62.21 -3.77,-86.55 -22.25,33.93 -15.74,68.07 -23.82,104.19l-19.02 -32.04c-4.64,22.54 -18.51,33.85 -39.07,37.35 0,0 14.05,42.85 -16.45,75.41 0,0 -35.46,11.61 -49.83,37.44l-5.35 15.69c0,0 -9.36,-17.05 -11.24,-34.16 0,0 -8.74,0.09 -14.91,23.4l-18.66 -58.26 -22.93 7.7 -29.94 53.44 -17.14 -22.96c0,0 -1.37,9.6 -13.71,20.56 0,0 -14.05,-27.08 -48.33,-39.07 0,0 -35.3,-27.08 -21.25,-78.83 0,0 -5.59,-7.42 -6.96,-16.66 0,0 -6.67,5.3 -7.01,22.92 0,0 -24.98,-26 -25.32,-56.11 0,0 -10.26,13.17 -11.46,36.44 0,0 -4.45,-4.96 -6.5,-15.4 -2.05,-10.44 -11.3,-66.14 -25.35,-74.36z"/>
    <path id="_123376824" class="fil11" d="M634.51 653.66c0.78,-0.09 1.56,-0.18 2.36,-0.29 0,0 -23.04,-18.74 -21.32,-47.88 1.71,-29.13 8.91,-62.21 -3.77,-86.55 -0.16,0.25 -0.32,0.5 -0.48,0.74 12.93,39.91 -32.66,115.84 23.22,133.97z"/>
    <path id="_123376920" class="fil12" d="M234.41 759.81c-0.22,0.32 -0.44,0.63 -0.67,0.95 0,0 67.86,11.31 74.03,102.14 0,0 23.65,-7.2 33.59,-37.02 0,0 3.43,13.02 -5.48,29.48 0,0 -3.5,20.4 22.68,40.42 0,0 9.24,-19.67 32.67,-31.99 0,0 -1.88,33.73 10.8,50.86 0,0 9.25,-21.94 23.31,-32.22 0,0 -4.8,-13.37 -0.69,-30.85 0,0 0.96,26.91 17.04,42.31 0,0 -1.88,-16.25 14.2,-32.84 0,0 -8.72,-14.54 -4.62,-33.87 0,0 5.59,26.81 29.24,37.43 0,0 -5.48,-82.26 76.43,-102.82 0,0 -8.68,-7.48 -12.61,-27.67 0,0 14.03,31.65 49.1,35.75 0,0 -11.97,-11.46 -5.99,-32.5 5.99,-21.04 31.88,-19.79 30.51,-74.29 0,0 -0.46,-0 -1.26,-0.07 -27.29,10.27 -53.1,50.41 -53.1,50.41 -12,-18.17 -6.85,-34.62 -6.85,-34.62 -17.14,14.4 -33.25,57.24 -33.25,57.24 -5.48,-13.02 -2.74,-16.11 -2.74,-16.11 -52.1,22.62 -60.67,68.89 -60.67,68.89 -42.86,-30.58 -71.77,-27.4 -101.11,-0.69 -13.02,-24.68 -61.35,-51.07 -61.35,-51.07 19.19,17.48 22.62,39.76 22.62,39.76 -39.13,-19.27 -76.46,-17.77 -85.83,-17.01z"/>
    <path id="_123359352" class="fil11" d="M177.53 525.64c0,0 -7.2,19.19 -6.85,37.02 0.34,17.5 9.92,67.39 -12.45,87.03 37.53,-17.61 23.93,-66.58 23.93,-66.58 -6.6,-29.68 -4.67,-55.44 -4.51,-57.38 -0.04,-0.03 -0.08,-0.06 -0.13,-0.08zm-0.94 134.33c-0.59,0.24 -1.18,0.48 -1.8,0.71 0,0 -7.88,25.02 9.25,52.44 17.14,27.42 24.33,33.59 14.05,56.55 0,0 0.63,-0.18 1.75,-0.59 12.73,-12.49 19.12,-37.05 -1.61,-60.12 -18.31,-20.37 -21.29,-40.35 -21.64,-49z"/>
    <path id="_123359448" class="fil1" d="M361.58 705.92c0,0 39.76,-17.48 93.23,-22.96 0,0 -19.54,-11.65 -47.64,-4.11 -28.1,7.54 -45.58,27.08 -45.58,27.08z"/>
    <path id="_123359568" class="fil1" d="M490.61 707.77c0,0 13.17,-20.01 10.95,-37.63 0,0 10.44,15.57 4.79,31.31l-4.45 4.96 -11.29 1.37z"/>
    <path id="_123359664" class="fil1" d="M299.93 704.99c0,0 -16.72,-17.16 -17.87,-34.88 0,0 -7.3,17.26 1.22,31.65l5.31 4.03 11.35 -0.79z"/>
    <path id="_123359784" class="fil1" d="M299.48 689.27c30.04,-17.09 129.3,-55.58 163.72,-61.49l49.86 7.78 3.6 5.23 -48.84 -1.71c0,0 -53.95,11.04 -165.24,53.39 -5.11,1.94 -10.74,1.13 -3.11,-3.21z"/>
    <polygon id="_123359880" class="fil1" points="150.9,794.07 176.91,801.09 177.08,795.78 153.98,788.77 "/>
    <polygon id="_123360000" class="fil1" points="142.99,816 163.85,833.03 166.18,828.26 147.97,812.42 "/>
    <polygon id="_123360096" class="fil5" points="380.57,651.73 351.77,609.57 396.68,643.16 "/>
    <path id="_123360240" class="fil13" d="M315.79 691.48c0,0 142.58,-50.73 153.21,-48.67 10.62,2.06 -83.63,38.73 -153.21,48.67z"/>
    <path id="_123360336" class="fil10" d="M381.94 765.17c0,0 -7.88,31.87 10.28,63.06 0,0 1.37,-39.42 12.34,-66.83l-10.62 -4.11 -12 7.88z"/>
    <path id="_123360456" class="fil10" d="M402.5 765.17c0,0 3.43,21.94 27.08,38.04 0,0 -6.17,-18.17 -2.06,-40.79l-18.51 -0.69 -6.51 3.43z"/>
    <path id="_272796880" class="fil10" d="M520.06 719.97c0,0 -22.96,17.14 -27.42,63.41 0,0 -12.68,-34.27 -1.71,-56.55l12.34 -8.91 16.79 2.06z"/>
    <path id="_272781976" class="fil12" d="M212.62 678.84c0,0 13.02,26.39 12.68,65.81 18.8,-30.81 8.63,-57.01 -12.68,-65.81z"/>
   </g>
  </g>
 </g>
</svg>
