<?xml version="1.0" encoding="UTF-8"?>
<!DOCTYPE svg PUBLIC "-//W3C//DTD SVG 1.1//EN" "http://www.w3.org/Graphics/SVG/1.1/DTD/svg11.dtd">
<!-- Creator: CorelDRAW 2020 (64-Bit) -->
<svg xmlns="http://www.w3.org/2000/svg" xml:space="preserve" width="129.436mm" height="197.988mm" version="1.1" style="shape-rendering:geometricPrecision; text-rendering:geometricPrecision; image-rendering:optimizeQuality; fill-rule:evenodd; clip-rule:evenodd"
viewBox="0 0 914.53 1398.88"
 xmlns:xlink="http://www.w3.org/1999/xlink"
 xmlns:xodm="http://www.corel.com/coreldraw/odm/2003">
 <defs>
  <style type="text/css">
   <![CDATA[
    .fil0 {fill:none}
    .fil6 {fill:#4B3446}
    .fil2 {fill:#501D33}
    .fil4 {fill:#634C54}
    .fil7 {fill:#856969}
    .fil5 {fill:#896E6B}
    .fil8 {fill:#AE9F90}
    .fil3 {fill:#C3926B}
    .fil9 {fill:#EDDC93}
    .fil1 {fill:#EEF698}
    .fil10 {fill:white}
   ]]>
  </style>
 </defs>
 <g id="Слой_x0020_1">
  <metadata id="CorelCorpID_0Corel-Layer"/>
  <g id="_1782053263168">
   <rect id="_118819680" class="fil0" width="914.53" height="1398.88"/>
   <path id="_118826904" class="fil1" d="M321.23 666.91c0,0 64.44,36.83 114.77,53.47 14.23,4.71 20.08,8.12 34.11,2.81 26.67,-10.1 94.29,-39.18 119.78,-54.66 -57.38,48.59 -71.34,48.88 -133.48,76.38 -29.25,12.95 -106.2,-63.14 -135.18,-77.99z"/>
   <path id="_118826832" class="fil2" d="M360.18 694.74l83.39 44.67c0,0 -5.16,4.96 -6.15,5.36 -0.99,0.4 -101.65,0.99 -100.86,0 0.79,-0.99 23.63,-50.03 23.63,-50.03z"/>
   <path id="_118826760" class="fil3" d="M369.91 739.21c0,0 6.81,-20.27 13.28,-18.35 6.47,1.92 20.27,15.73 20.27,15.73l-33.55 2.62z"/>
   <path id="_118826688" class="fil2" d="M561.37 694.74l-83.39 44.67c0,0 5.16,4.96 6.15,5.36 0.99,0.4 101.65,0.99 100.86,0 -0.79,-0.99 -23.63,-50.03 -23.63,-50.03z"/>
   <path id="_118826616" class="fil3" d="M545.87 740.41c0,0 -6.81,-20.27 -13.28,-18.35 -6.47,1.92 -20.27,15.73 -20.27,15.73l33.55 2.62z"/>
   <g>
    <path id="_123932408" class="fil2" d="M532.5 823.14c0,0 5.76,-20.61 -7.54,-35.89 0,0 1.2,20.6 -6.83,35.71l8.37 2.61 6.01 -2.43z"/>
    <path id="_123932528" class="fil2" d="M586.36 891.26c0,0 -11.93,22.78 -9.94,38.09 0,0 -21.11,-14.7 -12.38,-36.2 8.74,-21.5 22.32,-1.9 22.32,-1.9z"/>
    <path id="_123932624" class="fil2" d="M312 797.59c15.73,30.84 -1.71,58.21 20.81,89.83 0,0 8.98,13.15 0,35.79 0,0 13.06,-1.46 20.81,-9.86 0,0 8.16,14.97 36.32,18.62l11.83 32.87c0,0 -20.81,26.66 -38.36,74.13 0,0 113.79,18.15 197.92,12.31l4.9 -0.73c0,0 0,-29.24 -39.21,-86.99l5.72 -31.22c0,0 36.67,-2.07 53.92,-33.83 17.68,-32.53 6.88,-73.13 13.4,-108.23 0,0 -13.47,5.11 -24.48,19.72 0,0 -6.94,-14.24 -17.95,-20.45 0,0 -13.47,17.53 -33.05,25.56 0,0 -0.82,-22.28 -26.11,-38.34 0,0 -14.69,13.51 -19.59,16.07 0,0 -15.01,-6.12 -24.9,-25.37 0,0 -17.94,8.94 -27.33,26.47 0,0 -4.49,-6.21 -16.32,-12.42 0,0 0.61,11.26 -3.26,22.02 0,0 -9.78,-9.11 -14.46,-10.39 0,0 1.43,7.11 -7.74,18.96 0,0 -11.81,-7.11 -13.64,-23.69 0,0 -5.5,6.2 -4.07,14.58 0,0 -7.74,-10.21 -19.96,-14.03 0,0 0.81,8.02 -4.28,19.14 0,0 -12.8,-8.14 -30.93,-10.51l0 0z"/>
    <path id="_123932744" class="fil4" d="M326.79 810.57c0,0 5.68,9.86 5.68,41.14 0,0 0.4,15.46 13.1,31.98 0,0 7.35,11.02 3.18,24.52 0,0 13.9,-2.84 18.86,-21.5 0,0 3.77,11.37 -4.37,22.74 0,0 6.75,14.57 36.33,16.7l14.49 36.25c0,0 -29.24,43.78 -35.6,70.13l175.42 12.82c0,0 -7.96,-38.8 -37.39,-79.74l5.18 -40.51c0,0 42.49,-1.6 54.6,-34.47 12.11,-32.87 9.33,-79.6 9.33,-79.6 0,0 -8.54,3.73 -13.7,17.59 0,0 -5.96,-13.33 -15.88,-22.74 0,0 -16.08,17.95 -37.72,22.21 0,0 -3.77,-24.34 -21.05,-35.89 0,0 -11.32,11.02 -21.05,13.86 0,0 -11.91,-6.57 -25.02,-23.81 0,0 -14.1,7.64 -17.07,24.52 0,0 1.79,9.77 -1.59,20.61 0,0 -4.76,-18.66 -13.7,-27.19 0,0 0.2,10.48 -9.53,20.61 0,0 -3.77,-7.64 -10.13,-12.79 0,0 -1.79,12.08 -12.11,17.06 0,0 -6.17,-4.83 -12.5,-12 0,0 -2.57,3.36 -1.38,8.59 0,0 -4.55,-10.18 -16.52,-19.03 0,0 -2.08,11.42 -9.79,17.71 0,0 -6.51,-6.39 -20.08,-9.74z"/>
    <polygon id="_123932840" class="fil5" points="453.07,1020.85 446.74,991.73 443.08,1018.82 "/>
    <path id="_123932960" class="fil5" d="M379.26 1029.55c-0.29,1.01 -0.56,2.01 -0.79,2.98l171.32 12.52 3.96 -0.35c-0.27,-1.18 -0.93,-3.96 -2.12,-8 -16.2,-7.49 -45.98,-18.61 -83.28,-20.59 -49.82,-2.63 -81.7,10.11 -89.08,13.44z"/>
    <path id="_123933056" class="fil6" d="M403.95 937.08l10.12 25.31c0,0 -27.16,40.67 -34.82,67.2l0.15 0.02c0,0 32.36,-55.44 84.58,-57.75 37.78,-1.67 70.17,36.08 85.19,57.08 -5.13,-15.11 -15.05,-38.85 -32.67,-63.36l3.19 -24.92c-14.02,-2.76 -26.07,-4.37 -31.97,-3.49 -10.91,1.63 -53.71,-0.39 -83.76,-0.1z"/>
    <path id="_123933176" class="fil5" d="M326.79 810.57c0,0 5.59,9.72 5.68,40.42 0.57,-2.64 4.23,-20.3 2.4,-30.03 0,0 8.41,1.42 17.31,10.27 0,0 0,-3.28 -1.68,-7.52 0,0 6.07,-5.53 9.25,-12.99 0,0 11.71,10.13 12.71,27.19 0,0 2.98,-4.09 3.97,-12.08 0,0 7.74,5.33 11.32,12.62 0,0 8.35,-11.62 11.92,-20.5 0,0 4.87,2.93 9.14,12.36 0,0 5.66,-2.59 11.41,-12.64 0,0 7.05,9.41 9.83,21.49 17.2,-11.65 7.33,-41.17 20.65,-47.44 0,0 7.54,17.95 28.59,24.88 0,0 11.32,-4.44 18.07,-13.33 0,0 14.89,14.04 14.1,37.14 0,0 26.01,-3.73 43.08,-26.3 0,0 7.74,4.62 12.91,24.7 0,0 10.44,-5.51 18.46,-14.67 0.03,-8.01 -0.27,-13.11 -0.27,-13.11 0,0 -8.54,3.73 -13.7,17.59 0,0 -5.96,-13.33 -15.88,-22.74 0,0 -16.08,17.95 -37.72,22.21 0,0 -3.77,-24.34 -21.05,-35.89 0,0 -11.32,11.02 -21.05,13.86 0,0 -11.91,-6.57 -25.02,-23.81 0,0 -14.1,7.64 -17.07,24.52 0,0 1.79,9.77 -1.59,20.61 0,0 -4.76,-18.66 -13.7,-27.19 0,0 0.2,10.48 -9.53,20.61 0,0 -3.77,-7.64 -10.13,-12.79 0,0 -1.79,12.08 -12.11,17.06 0,0 -6.17,-4.83 -12.5,-12 0,0 -2.57,3.36 -1.38,8.59 0,0 -4.55,-10.18 -16.52,-19.03 0,0 -2.08,11.42 -9.79,17.71 0,0 -6.51,-6.39 -20.08,-9.74z"/>
    <path id="_123933272" class="fil6" d="M332.46 849.64c0.01,0.68 0.01,1.36 0.01,2.06 0,0 0.4,15.46 13.1,31.98 0,0 7.35,11.02 3.18,24.52 0,0 13.9,-2.84 18.86,-21.5 0,0 3.77,11.37 -4.37,22.74 0,0 6.75,14.57 36.33,16.7l11.31 23.79c54.73,-30.2 58.73,-18.02 107.9,-2.23l2.89 -22.62c0,0 42.49,-1.6 54.6,-34.47 3.58,-9.72 5.86,-20.66 7.29,-31.24 -11.12,19.58 -19.48,6.61 -19.48,6.61 -25.86,31.33 -57.28,3.56 -57.28,3.56 -29.44,25.28 -59.67,-8.9 -59.67,-8.9 -31.43,46.64 -73.59,3.92 -73.59,3.92 -21.98,18.42 -35.2,-1.83 -41.09,-14.92z"/>
    <path id="_123933392" class="fil2" d="M526.25 929.53c0,0 -12.11,-17.06 -65.92,-17.06 -53.8,0 -67.11,18.3 -67.11,18.3l12.31 32.32 7.14 1.26c0,0 49.83,-12.62 108.01,2.31l5.56 -37.14z"/>
    <path id="_123933488" class="fil7" d="M402.16 931.13c0,0 53.8,-27.19 117.14,0.71l-2.78 26.83c0,0 -41.3,-14.04 -103.44,-0.71l-10.02 -24.34 -0.9 -2.49z"/>
    <path id="_123933608" class="fil2" d="M467.97 923.82c14.96,1.08 40.03,1.49 57.3,9.1l-7.03 29.75c0,0 -4.35,0.29 -4.72,0.17 -21.53,-19.33 -59,-26.02 -59,-26.02 0,0 5.28,-4.81 13.45,-13z"/>
    <path id="_123933704" class="fil8" d="M470.51 919.64c14.96,1.08 31.52,4.59 48.79,12.19l-2.78 26.83c0,0 -0.19,-0.07 -0.56,-0.18 -22.81,-19.07 -59.79,-24.16 -59.79,-24.16 0,0 6.17,-6.49 14.34,-14.68z"/>
    <path id="_123933824" class="fil7" d="M484.17 941.43c5.95,-1.91 20.79,-6.31 34.92,-7.58l0.1 -1c-2.38,-0.05 -32.39,-0.56 -49.2,2.92l-0.31 1.31c4.26,1.07 9.23,2.49 14.49,4.34z"/>
    <path id="_123933920" class="fil2" d="M446.63 991.18l-14.89 38.02 14.1 -1.24c0,0 0.79,-37.14 0.79,-36.78z"/>
    <path id="_123934040" class="fil2" d="M418.04 993.14l-21.84 35.89 11.12 0.36c0,0 10.52,-36.6 10.72,-36.25z"/>
    <polygon id="_123934160" class="fil2" points="531.41,1036.67 517.91,998.11 521.68,1035.07 "/>
    <path id="_123934280" class="fil2" d="M565.83 855.24c0,0 -11.54,55.89 -56.88,66.22l12.73 6.76c0,0 40.97,-9.26 44.15,-72.98z"/>
    <path id="_123934376" class="fil2" d="M507.18 852.24c0,0 -0.4,43.18 -25.02,66.63 0,0 11.32,1.78 12.71,2.67 1.39,0.89 20.05,-25.76 12.31,-69.3z"/>
    <path id="_123934496" class="fil2" d="M446.23 849.39c0,0.89 -1.19,68.05 -1.19,68.05l8.74 -0.18c0,0 -6.15,-66.63 -7.54,-67.88z"/>
    <path id="_123934592" class="fil2" d="M371.98 859.7c0,0 2.58,44.95 47.65,60.77l10.52 -3.2c0,0 -46.26,-17.41 -58.17,-57.57z"/>
    <path id="_123934712" class="fil2" d="M566.22 1050.54c0.13,4.83 -22.96,12.79 -51.57,17.23 -5.19,-3.73 -9.99,-7.06 -9.81,-6.48 0.17,0.54 0.09,4.02 -0.06,7.77 -10.93,1.17 -23.09,1.67 -36.22,1.2 -54.3,-1.96 -107.85,-21.49 -105.03,-31.39 2.75,-9.66 60.67,-17.77 110.1,-14.7 49.15,3.06 92.2,12.14 92.58,26.38z"/>
    <path id="_123934808" class="fil6" d="M551.2 1047.65c-2.06,6.46 -40.26,17.46 -82.1,15.46 -41.83,-2 -92.91,-16.14 -90.1,-24.34 2.11,-6.16 51.86,-8 93.37,-5.42 41.28,2.56 80.89,7.84 78.83,14.31z"/>
    <path id="_123934928" class="fil2" d="M397.7 930.14c0,0 60.83,-33.14 130.21,3.32 -70.5,0.32 -109.57,18.39 -120.76,23.55l-9.45 -26.87z"/>
    <path id="_123935048" class="fil8" d="M402.16 931.13c0,0 53.01,-26.77 115.73,0.11 -56.9,-2.38 -98.29,13.05 -108.24,17.64l-6.59 -15.26 -0.9 -2.49z"/>
    <path id="_123935168" class="fil7" d="M402.16 931.13c0,0 53.01,-26.77 115.73,0.11 -12.92,-0.54 -25.04,-0.16 -36.18,0.8 -39.02,-3.85 -65.95,3.04 -76.52,6.52l-2.13 -4.94 -0.9 -2.49z"/>
    <path id="_123935264" class="fil6" d="M482.54 820.06c0,0 3.58,31.33 -9.55,68.71l14.72 4.63c0,0 9.94,-21.72 -5.17,-73.34z"/>
    <path id="_123951368" class="fil2" d="M473.85 772.55c0,0.97 -5.54,16.02 -0.1,28.15l11.58 0.53c0,0 -9.1,-8.94 -11.48,-28.68z"/>
    <path id="_123951464" class="fil6" d="M550.34 831.86c0,0 1.59,36.25 -23.43,58.1l9.73 2.13c0,0 21.44,-11.73 13.7,-60.24z"/>
    <path id="_123951584" class="fil6" d="M378.01 839.68c0,0 1.79,35.71 29.78,53.66l8.14 -5.86c0,0 -26.41,-17.77 -37.92,-47.8z"/>
    <path id="_123951680" class="fil5" d="M450.32 788.73c0,0 -5.17,26.34 5.97,55.18 0,0 -2.39,-21.36 2.78,-45.92l-2.73 -6.42 -6.02 -2.84z"/>
    <path id="_123951800" class="fil5" d="M496.3 800.96c0,0 4.45,15.93 -0.49,33.55 0,0 9.4,-11.77 10.09,-23.73 0.69,-11.95 -9.59,-9.83 -9.59,-9.83z"/>
    <path id="_123951896" class="fil5" d="M418.42 810.23c0.51,0.85 2.32,22.02 -0.37,34.88 0,0 7.44,-14.73 7,-31.64l-3.49 -5.23c0,0 -2.46,2.53 -3.13,2z"/>
    <path id="_123952016" class="fil5" d="M553.57 812.55c0,0 5.34,18.33 3.36,35.15 0,0 4.95,-14.34 4.55,-30.63 0,0 -4.06,-6.2 -4.55,-6.11 -0.49,0.09 -3.26,1.77 -3.36,1.59z"/>
    <path id="_123952112" class="fil5" d="M481.45 982.71l0.2 39.98 8.93 1.07c0,0 -8.54,-41.22 -9.13,-41.05z"/>
    <path id="_123952232" class="fil6" d="M497.93 974.89c0,1.24 7.94,42.29 8.14,41.4 0.2,-0.89 2.58,-35.36 2.58,-35.36l-10.72 -6.04z"/>
    <path id="_123952328" class="fil2" d="M432.61 958.01c0,1.07 -5.36,30.21 -4.76,29.14 0.6,-1.07 15.29,-29.85 15.29,-29.85 0,0 -10.13,0.18 -10.52,0.71z"/>
    <path id="_123952472" class="fil2" d="M521.03 1066.39c0,0 -20.83,-15.86 -21.23,-14.71 -0.4,1.15 -1.65,17.03 -1.65,17.03l6.68 -0.68c0.12,-3.34 0.41,-5.47 0.42,-6.17 0.01,-0.38 3.68,1.8 8.52,5.27l7.27 -0.74z"/>
    <polygon id="_123952568" class="fil2" points="387.99,1050.86 416.37,1040.77 399.86,1054.14 "/>
    <polygon id="_123952688" class="fil2" points="480.08,1065.91 482.06,1049.63 487.79,1066.71 "/>
    <path id="_123952784" class="fil2" d="M556.54 1045.82l-33.63 0.35c0,0 27.89,5.84 28.39,5.75 0.49,-0.09 5.24,-6.11 5.24,-6.11z"/>
    <path id="_123952904" class="fil8" d="M418.16 954.99c0,0 26.81,-10.89 46,-13.01 0,0 17.31,4.51 29.28,10 0,0 -39.86,-4.51 -75.28,3.01z"/>
   </g>
   <path id="_123953048" class="fil2" d="M321.12 669.08c18.03,14.81 88.26,71.16 123.79,79.78 8.77,0.33 15.52,0.33 24.28,0 31.37,-7.61 91.51,-51.91 117.23,-72.41 17.36,-13.84 4.88,-10 -2.64,-4.85 -73.87,50.56 -115.61,60.56 -127.53,62.41 -13.72,-1.61 -55.06,-19.82 -133.81,-67.43 -4.76,-2.88 -7.22,-2.34 -1.32,2.51z"/>
   <path id="_123953168" class="fil2" d="M565.34 689.69c0,0 70.11,-19.4 106.3,-91.79 0,0 2.75,-5.08 8.11,2.86 0,0 34.05,120.06 -69.77,163.02l-58.69 -17.69c0,0 -22.93,-33.45 14.04,-56.39z"/>
   <path id="_123953288" class="fil9" d="M672.61 613.26c0,0 -17.27,53.85 -107.57,88.46 0,0 -17.51,8.83 -6.59,42.18l41.69 15.09c0,0 89.4,-35.39 72.47,-145.73z"/>
   <path id="_123953408" class="fil10" d="M667.5 624.02c-9.97,17.49 -37.06,52.63 -102.45,77.69 0,0 -0.5,0.25 -1.28,0.83 10.22,-0.24 26.06,-3.07 47.84,-13.75 31.05,-15.23 48.72,-48.36 55.89,-64.77z"/>
   <path id="_123953552" class="fil3" d="M672.61 613.26c0,0 -0.2,0.62 -0.66,1.76 -1.1,19.24 -11.83,105.79 -115.39,122.22 0.5,2.1 1.12,4.32 1.89,6.65l41.69 15.09c0,0 89.4,-35.39 72.47,-145.73z"/>
   <path id="_123953648" class="fil9" d="M617.75 704.17c0,0 0.89,16.91 5.14,21.66 4.25,4.75 15.83,5.74 15.83,5.74 0,0 -17.61,-17.81 -20.97,-27.4z"/>
   <path id="_123953792" class="fil2" d="M351.24 688.6c0,0 -71.49,-18.31 -107.69,-90.7 0,0 -2.75,-5.08 -8.11,2.86 0,0 -34.05,120.06 69.77,163.02l58.69 -17.69c0,0 24.31,-34.54 -12.65,-57.48z"/>
   <path id="_123953888" class="fil9" d="M304.97 679.64c12.53,7.73 27.45,15.28 45.19,22.08 0,0 17.51,8.83 6.59,42.18l-41.69 15.09c0,0 -25.89,-10.26 -47.16,-36.92 9.02,-2.55 15.73,-8.05 22.03,-13.55 9.05,-7.9 14.25,-17.87 15.05,-28.89z"/>
   <path id="_123954032" class="fil10" d="M304.97 679.64c12.53,7.73 27.45,15.28 45.19,22.08 0,0 0.9,0.46 2.17,1.55 -20.01,1.09 -36.51,-2.72 -50.05,-9.35 1.54,-4.65 2.35,-9.53 2.69,-14.28z"/>
   <path id="_123954152" class="fil3" d="M359.86 730.76c-0.52,3.89 -1.51,8.25 -3.11,13.15l-33.56 12.14c-15.64,-5.97 -35.55,-16.62 -51.43,-35.16 7.58,-2.49 14.63,-5.91 20.03,-10.61 1.4,-1.23 2.67,-2.54 3.81,-3.94 16.22,12.08 37.23,21.56 64.26,24.41z"/>
   <path id="_123954296" class="fil9" d="M242.59 613.26c0,0 11.16,34.76 62.38,66.37 -0.79,11.02 -4.12,22.74 -13.18,30.64 -6.3,5.5 -14.88,9.24 -23.89,11.8 -18.26,-22.88 -33.13,-57.85 -25.31,-108.81z"/>
   <path id="_123954392" class="fil10" d="M244.94 618.8c5.36,11.05 21.16,36.85 60.02,60.84 -0.17,2.37 1.29,6.17 0.86,8.55 -0.44,2.4 -2.78,3.39 -3.55,5.73 -37.9,-18.55 -52.77,-59.04 -57.33,-75.11z"/>
   <path id="_123935408" class="fil3" d="M295.6 706.34c-1.14,1.39 -1.59,4.23 -2.99,5.45 -5.39,4.7 -13.27,6.61 -20.85,9.09 -17.05,-19.9 -29.45,-48.88 -26.91,-90.97 0,1.38 10.91,46.74 50.75,76.42z"/>
   <path id="_123935504" class="fil2" d="M288.98 772.52c0,0 52.11,-24.27 99.84,-23.07 64.45,1.6 71.8,1.62 136.46,0 47.73,-1.19 99.84,23.07 99.84,23.07 -57.96,-51.59 -155.96,-35.52 -168.07,-33.28 -12.12,-2.24 -106.52,-20.29 -168.07,33.28z"/>
   <path id="_123935720" class="fil2" d="M651.74 726c0,0 -19.96,-4.55 -34.02,-21.76 0,0 5.51,21.54 24.93,29.63l3.96 -2.21 5.14 -5.65z"/>
   <path id="_123935840" class="fil2" d="M671.49 609.37c0,0 0.6,32.36 -18.86,67.31 0,0 21.64,-21.84 25.21,-59.36l0.2 -10.13 -6.55 2.18z"/>
   <path id="_123935936" class="fil2" d="M615.42 673.2c0,0 8.02,12.55 19.89,17.76l-15.29 -26.76 -4.6 9z"/>
   <path id="_123936392" class="fil1" d="M316.1 767.21c0,0 37.72,-16.68 77.83,-13.1 40.11,3.57 -46.86,15.68 -77.83,13.1z"/>
   <path id="_123936512" class="fil1" d="M605.36 770.41c0,0 -37.72,-16.68 -77.83,-13.1 -40.11,3.57 46.86,15.68 77.83,13.1z"/>
   <circle id="_123936608" class="fil3" transform="matrix(0.934164 -0 -0.258406 0.934164 604.783 724.721)" r="12.31"/>
   <circle id="_123937400" class="fil3" transform="matrix(1.59459 -0 -0.750755 1.59459 584.793 721.533)" r="3.67"/>
   <circle id="_123937496" class="fil3" cx="633.86" cy="702.19" r="3.87"/>
   <ellipse id="_123937616" class="fil9" transform="matrix(1 0.144752 -0 1 318.189 719.606)" rx="10.62" ry="6.45"/>
   <ellipse id="_123937712" class="fil9" cx="331.97" cy="731.01" rx="6.34" ry="3.53"/>
   <ellipse id="_123937832" class="fil9" transform="matrix(1.04594 0.642707 -0.642707 1.04594 294.483 740.109)" rx="5.16" ry="2.88"/>
   <path id="_123936728" class="fil9" d="M373.79 732.94c0,0 3.54,-10.62 8.17,-10.42 4.63,0.2 1.74,8.68 -8.17,10.42z"/>
   <path id="_269474168" class="fil9" d="M522.58 731.24c0,0 7.92,-9.08 12.44,-6.96 4.52,2.12 -1.87,9.34 -12.44,6.96z"/>
  </g>
 </g>
</svg>
