<?xml version="1.0" encoding="UTF-8"?>
<!DOCTYPE svg PUBLIC "-//W3C//DTD SVG 1.1//EN" "http://www.w3.org/Graphics/SVG/1.1/DTD/svg11.dtd">
<!-- Creator: CorelDRAW 2020 (64-Bit) -->
<svg xmlns="http://www.w3.org/2000/svg" xml:space="preserve" width="129.436mm" height="197.989mm" version="1.1" style="shape-rendering:geometricPrecision; text-rendering:geometricPrecision; image-rendering:optimizeQuality; fill-rule:evenodd; clip-rule:evenodd"
viewBox="0 0 628.11 960.77"
 xmlns:xlink="http://www.w3.org/1999/xlink"
 xmlns:xodm="http://www.corel.com/coreldraw/odm/2003">
 <defs>
  <style type="text/css">
   <![CDATA[
    .fil12 {fill:none}
    .fil0 {fill:#501D33}
    .fil2 {fill:#88958A}
    .fil6 {fill:#8E7A5D}
    .fil4 {fill:#9B6858}
    .fil1 {fill:#AFC0A6}
    .fil3 {fill:#B78F6F}
    .fil9 {fill:#C3926B}
    .fil10 {fill:#C3C077}
    .fil5 {fill:#D6E6C6}
    .fil7 {fill:#EDDC93}
    .fil11 {fill:#EEF698}
    .fil8 {fill:white}
   ]]>
  </style>
 </defs>
 <g id="Слой_x0020_1">
  <metadata id="CorelCorpID_0Corel-Layer"/>
  <g id="_2674610614928">
   <g>
    <g>
     <path class="fil0" d="M493.73 394.91c0,0 -49.19,28.49 -65.24,67.65l1.12 80.25c0,0 -34.99,41.73 -107.21,47.51l0 37.23c0,0 123.9,-10.91 181.68,-102.71l-3.37 -123.26c-0.17,-7.22 -1.31,-10 -6.98,-6.65z"/>
     <path class="fil1" d="M437.33 464.5l1.34 81.98 -2.62 3.02c-7.22,8.33 -18.99,16.82 -28.24,22.52 -22.85,14.08 -48.74,22.86 -75.19,27.15l0 16.7c2.86,-0.48 5.69,-1.01 8.43,-1.55 16.04,-3.14 31.96,-7.63 47.27,-13.34 42.03,-15.66 80.53,-41.04 105.41,-78.99l-2.97 -113.28c-3.65,2.41 -7.23,4.99 -10.58,7.49 -12.16,9.1 -24.09,19.92 -33.18,32.13 -3.74,5.02 -7.1,10.42 -9.66,16.15z"/>
     <path class="fil2" d="M332.63 600.57l0 15.32c2.86,-0.48 5.69,-1.01 8.43,-1.55 16.04,-3.14 31.96,-7.63 47.27,-13.34 42.03,-15.66 80.53,-41.04 105.41,-78.99l-2.4 -91.39c-4.22,43.89 -26.84,150.75 -146.7,168.02 -4.21,0.61 -8.19,1.25 -12,1.93z"/>
     <path class="fil3" d="M492.32 468.33l-1.56 -59.6c-3.65,2.41 -7.23,4.99 -10.58,7.49 -10.28,7.69 -20.4,16.61 -28.77,26.57 9.93,12.92 24.34,22.21 40.92,25.54z"/>
     <path class="fil4" d="M492.32 468.33l-0.99 -37.71c-0.92,9.52 -2.7,21.99 -6.15,35.88 2.33,0.74 4.71,1.35 7.14,1.84z"/>
     <path class="fil5" d="M437.33 464.5l1.34 81.98 -2.62 3.02c-7.22,8.33 -18.99,16.82 -28.24,22.52 -20.26,12.49 -42.91,20.8 -66.22,25.52 1.17,-0.16 2.37,-0.35 3.62,-0.6 74.31,-5.14 103.92,-53.6 103.92,-53.6l-1.2 -76.39c18.04,-32.53 37.48,-52.26 42.85,-57.39l-0.02 -0.82c-3.65,2.41 -7.23,4.99 -10.58,7.49 -12.16,9.1 -24.09,19.92 -33.18,32.13 -3.74,5.02 -7.1,10.42 -9.66,16.15z"/>
     <path class="fil4" d="M384.11 602.53c1.41,-0.5 2.81,-1.01 4.21,-1.53 13.37,-4.98 26.39,-10.95 38.72,-17.99 -0.71,-5.32 -3.1,-10.1 -6.64,-13.78 -11.92,8.65 -25.83,16.01 -42.02,21.47 0.81,4.49 2.84,8.55 5.73,11.84z"/>
     <path class="fil3" d="M416.78 566.11c-3.09,2.17 -6.14,4.17 -8.97,5.91 -9.48,5.84 -19.48,10.77 -29.82,14.84 0.04,1.5 0.2,2.96 0.49,4.37 18.12,-5.13 32.39,-12.82 43.21,-20.56 -1.42,-1.74 -3.07,-3.28 -4.91,-4.57z"/>
     <g>
      <ellipse id="_268902368" class="fil5" cx="472.31" cy="494.86" rx="13.17" ry="16.15"/>
      <ellipse id="_268902296" class="fil0" cx="471.42" cy="490.54" rx="12.93" ry="16.79"/>
      <ellipse id="_268902224" class="fil1" cx="471.42" cy="490.54" rx="8" ry="11.06"/>
      <path id="_268902152" class="fil2" d="M476.01 483.49c1.39,1.73 2.27,4.25 2.27,7.05 0,5.24 -3.07,9.48 -6.86,9.48 -3.41,0 -6.24,-3.45 -6.77,-7.96 1.22,1.52 2.82,2.44 4.59,2.44 3.79,0 6.86,-4.24 6.86,-9.48 0,-0.52 -0.03,-1.03 -0.09,-1.52z"/>
      <circle id="_268902080" class="fil5" transform="matrix(0.560268 -0.301436 0.139134 0.494699 470.019 485.456)" r="7.78"/>
     </g>
     <path class="fil0" d="M498.88 409.23c0,0 -17.98,13.64 -44.3,46.7 0,0 15.45,-32.34 37.23,-52.48l3.69 0.32 3.37 5.46z"/>
     <path class="fil0" d="M463.39 560.28l-2.57 -18.14 14.12 8.67c0,0 -7.7,9.95 -11.56,9.47z"/>
     <ellipse class="fil3" cx="458.96" cy="466.87" rx="5.86" ry="6.66"/>
     <path class="fil4" d="M481.23 538.74c-1.47,-3.08 -2.3,-6.52 -2.3,-10.16 0,-9.77 5.93,-18.14 14.39,-21.73l0.4 15.16c-3.85,5.87 -8.03,11.45 -12.5,16.73z"/>
     <circle class="fil4" cx="470.27" cy="526.81" r="4.81"/>
    </g>
    <path id="_118180312" class="fil6" d="M207.49 527.68c0,0 159.99,-11.32 202.61,-4.49l-7.38 -7.1c0,0 -89.44,-25.87 -186.72,5.72 -4.41,1.43 -6.25,2.02 -8.52,5.87z"/>
    <g>
     <path id="_123953792" class="fil0" d="M263.76 515.78c0,0 -22.73,-32.06 -14.55,-74.5 0.71,-3.68 0.99,-4.89 0.03,-5.69 -1.96,-1.65 -7.17,0.83 -10.86,4.01 -14.71,12.65 -43.54,44.64 -25.17,87.21l51.15 -8.85c-0.17,-0.71 -0.37,-1.43 -0.6,-2.17z"/>
     <path id="_123953888" class="fil7" d="M246.96 494.38c2.38,7.57 5.72,15.86 10.36,24.8l-38.75 6.7c-2.01,-6.05 -4.3,-15.61 -3.84,-26.99 4.9,2.29 10.06,3.9 14.89,3.88 6.94,-0.03 12.82,-3.88 17.33,-8.39z"/>
     <path id="_123954032" class="fil8" d="M246.96 494.38c2.38,7.57 5.72,15.86 10.36,24.8l-2.27 0.39c-7.07,-6.28 -11.73,-13.09 -14.66,-19.98 2.43,-1.45 4.63,-3.27 6.57,-5.21z"/>
     <path id="_123954152" class="fil9" d="M221.75 525.33c-2.8,-7.25 -4.93,-15.93 -4.88,-25.5 4.25,1.78 8.62,2.95 12.75,2.94 1.08,-0 2.13,-0.1 3.15,-0.28 1.41,6.41 3.79,13.03 7.51,19.63l-18.53 3.2z"/>
     <path id="_123954296" class="fil1" d="M244.82 441.83c0,0 -8.27,19.39 2.13,52.55 -4.51,4.51 -10.39,8.37 -17.33,8.39 -4.83,0.02 -9.99,-1.59 -14.89,-3.88 0.68,-16.89 7.41,-37.77 30.09,-57.06z"/>
     <path id="_123954392" class="fil5" d="M243.76 445.13c-1.84,6.85 -4.69,24.08 3.2,49.24 -1.94,1.94 -4.14,3.76 -6.57,5.21 -9.53,-22.42 -0.71,-45.72 3.37,-54.46z"/>
     <path id="_123935408" class="fil2" d="M232.77 502.49c-1.02,0.18 -2.07,0.27 -3.15,0.28 -4.13,0.02 -8.51,-1.16 -12.75,-2.94 0.08,-15.13 5.62,-32.47 22.64,-49.88 -0.52,0.6 -12.91,24.52 -6.74,52.54z"/>
     <path id="_123935624" class="fil0" d="M246.96 488.01c0,0 -8.89,19.04 -35.44,7.59l-0.28 5.23c0,0 18.91,13.95 37.22,-5.44 0,0 -0.1,-2.77 -0.43,-3.36 -0.33,-0.58 -1.08,-4.02 -1.08,-4.02z"/>
     <path id="_123936056" class="fil5" d="M242.18 489.45c-0.28,0.28 -4,3.67 -12.23,-1.06l10.36 -2.07 1.86 3.13z"/>
     <path id="_123936176" class="fil0" d="M245.95 480.42c0,0 -5.66,5.69 -16.06,7.85 0,0 7.75,2.52 16.89,-2.9l0.85 -3.23 -1.68 -1.72z"/>
     <path id="_123936296" class="fil0" d="M211.93 481.76c0,0 6.13,5.18 16.68,6.42 0,0 -7.51,3.18 -17.08,-1.41l-1.12 -3.15 1.53 -1.86z"/>
     <path id="_123937616" class="fil7" d="M241.67 521.51c1.35,-1.55 0.62,-4.91 -1.62,-7.5 -2.24,-2.59 -5.15,-3.43 -6.49,-1.87 -1.35,1.56 -0.62,4.91 1.62,7.5 1.35,1.56 2.93,2.48 4.28,2.63l1.63 -0.28c0.22,-0.12 0.41,-0.28 0.58,-0.48z"/>
     <path id="_123937832" class="fil7" d="M220.62 520.3c1.07,-0.34 1.45,-2.18 0.84,-4.1 -0.61,-1.93 -1.97,-3.21 -3.05,-2.87 -1.07,0.34 -1.45,2.18 -0.84,4.1 0.61,1.93 1.97,3.21 3.05,2.87z"/>
    </g>
    <g>
     <path id="_123953792_0" class="fil0" d="M364.53 515.78c0,0 22.73,-32.06 14.55,-74.5 -0.71,-3.68 -0.99,-4.89 -0.03,-5.69 1.96,-1.65 7.17,0.83 10.86,4.01 14.71,12.65 43.54,44.64 25.17,87.21l-51.15 -8.85c0.17,-0.71 0.37,-1.43 0.6,-2.17z"/>
     <path id="_123953888_1" class="fil7" d="M381.34 494.38c-2.38,7.57 -5.72,15.86 -10.36,24.8l38.75 6.7c2.01,-6.05 4.3,-15.61 3.84,-26.99 -4.9,2.29 -10.06,3.9 -14.89,3.88 -6.94,-0.03 -12.82,-3.88 -17.33,-8.39z"/>
     <path id="_123954032_2" class="fil8" d="M381.34 494.38c-2.38,7.57 -5.72,15.86 -10.36,24.8l2.27 0.39c7.07,-6.28 11.73,-13.09 14.66,-19.98 -2.43,-1.45 -4.63,-3.27 -6.57,-5.21z"/>
     <path id="_123954152_3" class="fil9" d="M406.55 525.33c2.8,-7.25 4.93,-15.93 4.88,-25.5 -4.25,1.78 -8.62,2.95 -12.75,2.94 -1.08,-0 -2.13,-0.1 -3.15,-0.28 -1.41,6.41 -3.79,13.03 -7.51,19.63l18.53 3.2z"/>
     <path id="_123954296_4" class="fil1" d="M383.48 441.83c0,0 8.27,19.39 -2.13,52.55 4.51,4.51 10.39,8.37 17.33,8.39 4.83,0.02 9.99,-1.59 14.89,-3.88 -0.68,-16.89 -7.41,-37.77 -30.09,-57.06z"/>
     <path id="_123954392_5" class="fil5" d="M384.54 445.13c1.84,6.85 4.69,24.08 -3.2,49.24 1.94,1.94 4.14,3.76 6.57,5.21 9.53,-22.42 0.71,-45.72 -3.37,-54.46z"/>
     <path id="_123935408_6" class="fil2" d="M395.52 502.49c1.02,0.18 2.07,0.27 3.15,0.28 4.13,0.02 8.51,-1.16 12.75,-2.94 -0.08,-15.13 -5.62,-32.47 -22.64,-49.88 0.52,0.6 12.91,24.52 6.74,52.54z"/>
     <path id="_123935624_7" class="fil0" d="M381.33 488.01c0,0 8.89,19.04 35.44,7.59l0.28 5.23c0,0 -18.91,13.95 -37.22,-5.44 0,0 0.1,-2.77 0.43,-3.36 0.33,-0.58 1.08,-4.02 1.08,-4.02z"/>
     <path id="_123936056_8" class="fil5" d="M386.11 489.45c0.28,0.28 4,3.67 12.23,-1.06l-10.36 -2.07 -1.86 3.13z"/>
     <path id="_123936176_9" class="fil0" d="M382.34 480.42c0,0 5.66,5.69 16.06,7.85 0,0 -7.75,2.52 -16.89,-2.9l-0.85 -3.23 1.68 -1.72z"/>
     <path id="_123936296_10" class="fil0" d="M416.37 481.76c0,0 -6.13,5.18 -16.68,6.42 0,0 7.51,3.18 17.08,-1.41l1.12 -3.15 -1.53 -1.86z"/>
     <path id="_123937616_11" class="fil7" d="M386.63 521.51c-1.35,-1.55 -0.62,-4.91 1.62,-7.5 2.24,-2.59 5.15,-3.43 6.49,-1.87 1.35,1.56 0.62,4.91 -1.62,7.5 -1.35,1.56 -2.93,2.48 -4.28,2.63l-1.63 -0.28c-0.22,-0.12 -0.41,-0.28 -0.58,-0.48z"/>
     <path id="_123937832_12" class="fil7" d="M407.67 520.3c-1.07,-0.34 -1.45,-2.18 -0.84,-4.1 0.61,-1.93 1.97,-3.21 3.05,-2.87 1.07,0.34 1.45,2.18 0.84,4.1 -0.61,1.93 -1.97,3.21 -3.05,2.87z"/>
    </g>
    <path id="_92566400" class="fil0" d="M208.46 530.57c-1.09,0.27 -3.34,-2.6 1.14,-3.91 17.58,-5.12 68.11,-15.65 111.44,-14.13 42.37,1.49 79.64,6.94 92.76,10.23 3.71,0.93 8.45,4.52 0.13,4.65 0,0 -72.97,-4.78 -205.47,3.14z"/>
    <path id="_92566328" class="fil10" d="M204.39 530.02c0,0 118.88,-20.76 211.99,-2.46 0,0 7.65,5.19 -1.09,13.94 -8.74,8.74 -48.9,-5.74 -100.27,-2.46 -51.36,3.28 -123.48,22.67 -110.63,-9.02z"/>
    <path id="_92566256" class="fil11" d="M231.43 533.84c0,0 63.66,-16.67 124.31,-7.65 60.65,9.02 -107.37,12.29 -124.31,7.65z"/>
    <path id="_92566184" class="fil6" d="M269.4 563.24c0,0 18.78,-19.77 45.47,-21.09 26.69,-1.32 53.7,20.76 53.7,20.76 0,0 -43.16,-16.47 -99.17,0.33l0 0z"/>
    <path id="_92566112" class="fil11" d="M230.16 540.64c3.9,0 7.06,2.38 7.06,5.31 0,2.93 -3.16,5.31 -7.06,5.31 -3.9,0 -7.06,-2.38 -7.06,-5.31 0,-2.93 3.16,-5.31 7.06,-5.31zm-5.59 13.41c2.34,0 4.24,1.38 4.24,3.09 0,1.71 -1.9,3.09 -4.24,3.09 -2.34,0 -4.24,-1.38 -4.24,-3.09 0,-1.71 1.9,-3.09 4.24,-3.09z"/>
    <path id="_92565896" class="fil6" d="M293.82 512.95c0,0 -7.65,-26.57 -7.22,-28.06 0.43,-1.5 16.94,23.79 16.94,23.79l-9.72 4.27z"/>
    <path id="_92565824" class="fil6" d="M337.41 512.95c0,0 7.65,-26.57 7.22,-28.06 -0.43,-1.5 -16.94,23.79 -16.94,23.79l9.72 4.27z"/>
    <g>
     <path class="fil0" d="M134.38 394.91c0,0 49.19,28.49 65.24,67.65l-1.12 80.25c0,0 34.99,41.73 107.21,47.51l0 37.23c0,0 -123.9,-10.91 -181.68,-102.71l3.37 -123.26c0.17,-7.22 1.31,-10 6.98,-6.65z"/>
     <path class="fil1" d="M190.78 464.5l-1.34 81.98 2.62 3.02c7.22,8.33 18.99,16.82 28.24,22.52 22.85,14.08 48.74,22.86 75.19,27.15l0 16.7c-2.86,-0.48 -5.69,-1.01 -8.43,-1.55 -16.04,-3.14 -31.96,-7.63 -47.27,-13.34 -42.03,-15.66 -80.53,-41.04 -105.41,-78.99l2.97 -113.28c3.65,2.41 7.23,4.99 10.58,7.49 12.16,9.1 24.09,19.92 33.18,32.13 3.74,5.02 7.1,10.42 9.66,16.15z"/>
     <path class="fil3" d="M201.98 561.64c1.14,0 2.27,0.03 3.4,0.09 5.01,3.89 10.27,7.44 14.91,10.3 10.4,6.41 21.42,11.72 32.84,16 4.35,6.1 7.62,13.02 9.57,20.47 -7.75,-2.2 -15.41,-4.7 -22.92,-7.5 -22.56,-8.41 -44.1,-19.62 -63.07,-34.06 7.73,-3.41 16.28,-5.3 25.27,-5.3zm-49.02 -16.07c-6.8,-7.25 -13.03,-15.09 -18.58,-23.56l0.38 -14.38c11.23,5.74 18.92,17.42 18.92,30.89 0,2.41 -0.25,4.77 -0.72,7.04zm14.84 -32.4c5.23,0 9.47,4.24 9.47,9.47 0,5.23 -4.24,9.47 -9.47,9.47 -5.23,0 -9.47,-4.24 -9.47,-9.47 0,-5.23 4.24,-9.47 9.47,-9.47z"/>
     <path class="fil2" d="M295.48 600.57l0 15.32c-2.86,-0.48 -5.69,-1.01 -8.43,-1.55 -16.04,-3.14 -31.96,-7.63 -47.27,-13.34 -42.03,-15.66 -80.53,-41.04 -105.41,-78.99l2.4 -91.39c4.22,43.89 26.84,150.75 146.7,168.02 4.21,0.61 8.19,1.25 12,1.93z"/>
     <path class="fil5" d="M190.78 464.5l-1.34 81.98 2.62 3.02c7.22,8.33 18.99,16.82 28.24,22.52 20.26,12.49 42.91,20.8 66.22,25.52 -1.17,-0.16 -2.37,-0.35 -3.62,-0.6 -74.31,-5.14 -103.92,-53.6 -103.92,-53.6l1.2 -76.39c-18.04,-32.53 -37.48,-52.26 -42.85,-57.39l0.02 -0.82c3.65,2.41 7.23,4.99 10.58,7.49 12.16,9.1 24.09,19.92 33.18,32.13 3.74,5.02 7.1,10.42 9.66,16.15z"/>
     <g>
      <ellipse id="_268902368_13" class="fil5" cx="155.8" cy="494.86" rx="13.17" ry="16.15"/>
      <ellipse id="_268902296_14" class="fil0" cx="156.69" cy="490.54" rx="12.93" ry="16.79"/>
      <ellipse id="_268902224_15" class="fil1" cx="156.69" cy="490.54" rx="8" ry="11.06"/>
      <path id="_268902152_16" class="fil2" d="M152.1 483.49c-1.39,1.73 -2.27,4.25 -2.27,7.05 0,5.24 3.07,9.48 6.86,9.48 3.41,0 6.24,-3.45 6.77,-7.96 -1.22,1.52 -2.82,2.44 -4.59,2.44 -3.79,0 -6.86,-4.24 -6.86,-9.48 0,-0.52 0.03,-1.03 0.09,-1.52z"/>
      <circle id="_268902080_17" class="fil5" transform="matrix(-0.560268 -0.301436 -0.139134 0.494699 158.091 485.456)" r="7.78"/>
     </g>
     <path class="fil0" d="M129.23 409.23c0,0 17.98,13.64 44.3,46.7 0,0 -15.45,-32.34 -37.23,-52.48l-3.69 0.32 -3.37 5.46z"/>
     <path class="fil0" d="M164.72 560.28l2.57 -18.14 -14.12 8.67c0,0 7.7,9.95 11.56,9.47z"/>
     <path class="fil4" d="M256.18 592.73c2.85,4.88 5.07,10.17 6.53,15.77l-0.73 -0.21 -0.31 -0.09 -0.05 -0.01 -0.36 -0.1 -0.33 -0.09 -0.04 -0.01 -0.36 -0.11 -0.34 -0.1 -0.02 -0.01 -0.36 -0.11 -0.01 -0 -0.71 -0.21 -0.36 -0.11 -0 -0 -0.36 -0.11 -0.36 -0.11 -0.02 -0.01 -0.34 -0.1 -0.36 -0.11 -0.03 -0.01 -0.33 -0.1 -0.36 -0.11 -0.05 -0.01 -0.31 -0.1 -0.36 -0.11 -0.36 -0.11 -0 -0 -0.36 -0.11 -0.07 -0.02 -0.29 -0.09 -0.36 -0.11 -0.09 -0.03 -0.27 -0.09 -0.36 -0.11 -0.1 -0.03 -0.26 -0.08 -0.36 -0.12 -0.11 -0.04 -0.25 -0.08 -0.36 -0.12 -0.36 -0.12 -0.36 -0.12 -0.14 -0.05 -0.22 -0.07 -0.36 -0.12 -0.15 -0.05 -0.2 -0.07 -0.36 -0.12 -0.17 -0.06 -0.19 -0.06 -0.36 -0.12 -0.18 -0.06 -0.18 -0.06 -0.36 -0.12 -0.36 -0.12 -0.36 -0.12 -0.21 -0.07 -0.15 -0.05 -0.36 -0.12 -0.22 -0.08 -0.14 -0.05 -0.36 -0.12 -0.23 -0.08 -0.12 -0.04 -0.36 -0.12 -0.36 -0.12 -0.36 -0.12 -0.26 -0.09 -0.09 -0.03 -0.35 -0.13 -0.27 -0.1 -0.08 -0.03 -0.61 -0.22 -0.03 -0.01 -0.07 -0.02 -0.03 -0.01 -0.63 -0.23 -0.05 -0.02 -0.35 -0.13 -0.31 -0.11 -0.04 -0.02 -0.35 -0.13 -0.33 -0.12 -0.03 -0.01 -0.35 -0.13 -0.34 -0.13 -0.01 -0 -0.35 -0.13 -0.35 -0.13c-1.26,-0.47 -2.52,-0.95 -3.77,-1.43l-0.24 -0.09c-0.57,-0.22 -1.15,-0.45 -1.72,-0.68l-0.28 -0.11c-0.56,-0.22 -1.12,-0.45 -1.68,-0.68l-0.35 -0.14c-0.54,-0.22 -1.09,-0.44 -1.63,-0.67l-0.31 -0.13c-0.54,-0.22 -1.07,-0.45 -1.61,-0.68l-0.42 -0.18c-0.54,-0.23 -1.07,-0.46 -1.6,-0.69l-0.04 -0.02 -0.07 -0.03c-0.59,-0.25 -1.17,-0.51 -1.76,-0.77l-0.1 -0.05 -0.1 -0.04c-0.52,-0.23 -1.04,-0.46 -1.56,-0.7l-0.4 -0.18c-0.5,-0.23 -1,-0.46 -1.51,-0.69l-0.45 -0.21c-0.47,-0.22 -0.95,-0.44 -1.42,-0.66l-0.61 -0.29c-0.45,-0.21 -0.89,-0.42 -1.34,-0.64l-0.57 -0.28c-0.43,-0.21 -0.86,-0.42 -1.29,-0.63l-0.66 -0.32 -1.03 -0.51 -0.99 -0.5 -0.75 -0.38 -1.25 -0.64 -0.68 -0.35 -1.04 -0.55 -0.91 -0.48 -0.72 -0.39 -1.14 -0.61 -0.79 -0.43 -0.07 -0.04 -0.98 -0.54 -0.86 -0.48 -0.62 -0.35c-0.44,-0.25 -0.87,-0.49 -1.31,-0.74l-0.51 -0.29c-0.48,-0.28 -0.96,-0.55 -1.44,-0.83l-0.33 -0.19c-0.51,-0.3 -1.02,-0.6 -1.53,-0.9l-0.38 -0.23c-0.54,-0.32 -1.07,-0.65 -1.61,-0.97l-0.21 -0.13c-0.94,-0.57 -1.88,-1.15 -2.81,-1.74l-0.95 -0.6c-0.92,-0.58 -1.83,-1.17 -2.73,-1.77l-0.3 -0.2c-0.54,-0.36 -1.07,-0.71 -1.61,-1.07l-0.11 -0.07c-0.57,-0.39 -1.15,-0.78 -1.71,-1.17l-0.14 -0.09c-1.2,-0.82 -2.38,-1.66 -3.56,-2.51l-0.04 -0.03c-1.51,-1.09 -3,-2.19 -4.48,-3.32 6.65,-2.93 13.9,-4.74 21.52,-5.19 15.27,13.1 34.28,24.02 57.94,30.98zm-28.4 3.48c-0.54,-0.23 -1.07,-0.46 -1.6,-0.69zm-79.42 -56.92c-0.3,-0.36 -0.6,-0.71 -0.9,-1.07l-0.4 -0.49c-0.32,-0.38 -0.63,-0.77 -0.94,-1.16l-0.38 -0.47c-0.32,-0.4 -0.64,-0.81 -0.97,-1.21l-0.32 -0.4c-0.33,-0.42 -0.66,-0.85 -0.99,-1.28l-0.26 -0.33c-0.35,-0.46 -0.69,-0.91 -1.04,-1.37l-0.22 -0.29c-0.37,-0.49 -0.73,-0.99 -1.09,-1.48l-0.11 -0.15c-0.38,-0.52 -0.75,-1.04 -1.13,-1.56l-0.11 -0.16c-0.38,-0.54 -0.76,-1.08 -1.14,-1.62l-0.01 -0.02 -0.01 -0.02 -0.02 -0.04c-0.39,-0.56 -0.77,-1.12 -1.15,-1.68l-0.04 -0.06c-0.39,-0.58 -0.78,-1.16 -1.16,-1.74l0.38 -14.38c11.23,5.74 18.92,17.42 18.92,30.89 0,2.41 -0.25,4.77 -0.72,7.04 -0.28,-0.29 -0.55,-0.59 -0.83,-0.89l-0.47 -0.51c-0.3,-0.33 -0.61,-0.66 -0.91,-1l-0.69 -0.77 -0.66 -0.74 -0.78 -0.89 -0.59 -0.68 -0.77 -0.89 -0.51 -0.6zm14.79 -23.07c2.89,5.38 6.1,10.71 9.68,15.94 -1.06,0.41 -2.22,0.64 -3.42,0.64 -5.23,0 -9.47,-4.24 -9.47,-9.47 0,-2.83 1.24,-5.37 3.21,-7.11z"/>
     <path class="fil3" d="M201.98 561.64c1.14,0 2.27,0.03 3.4,0.09l0 0 0.03 0.02 0.21 0.16 0.24 0.18 0.03 0.02 0.21 0.16 0.47 0.36 0.24 0.18 0.24 0.18 0.24 0.18 0.03 0.02 0.21 0.16 0.48 0.35 0.24 0.18 0.02 0.02 0.21 0.16 0.24 0.17 0.02 0.02 0.21 0.16 0.48 0.35 0.24 0.17 0.24 0.17 0.24 0.17 0.02 0.02 0.22 0.16 0.71 0.51 0.02 0.01 0.22 0.15 0.24 0.17 0.02 0.01 0.22 0.15 0.05 0.03c0.3,0.21 0.6,0.42 0.9,0.62l0.24 0.16 0.02 0.01 0.22 0.15 0.24 0.16 0.01 0.01 0.22 0.15 0.24 0.16 0.01 0.01 0.22 0.15 0.23 0.16 0.01 0.01 0.22 0.15 0.23 0.16 0.01 0.01 0.22 0.15 0.23 0.15 0.01 0.01 0.22 0.15 0.23 0.15 0.01 0.01 0.22 0.15 0.23 0.15 0.01 0.01 0.22 0.15 0.23 0.15 0.01 0 0.22 0.14 0.23 0.15 0.01 0 0.22 0.14 0.23 0.15 0.01 0 0.22 0.14 0.23 0.14 0 0 0.22 0.14 0.22 0.14 0 0 0.22 0.14 0.22 0.14 0 0 0.22 0.14 0.22 0.14 0 0 0.22 0.14 0.22 0.14 0 0 0.22 0.13 0.22 0.13 0.93 0.57 0.02 0.01 0.02 0.02 0.93 0.56 0.05 0.03 0.88 0.52 0.03 0.02 0.08 0.04 0.83 0.49 0.06 0.03 0.1 0.06c0.91,0.53 1.83,1.05 2.76,1.57l0.05 0.03 0.18 0.1 0.78 0.43 0.03 0.02 0.69 0.38 0.27 0.15 0.09 0.05 0.78 0.42 0.11 0.06 0.26 0.14 0.51 0.27 0.22 0.12 0.1 0.05c0.57,0.3 1.14,0.59 1.7,0.88l0.17 0.09 0.1 0.05 0.78 0.4 0.3 0.15 0.7 0.35 0.12 0.06 0.11 0.06 0.79 0.39 0.09 0.04 0.94 0.45 0.07 0.03 0.97 0.46 0.04 0.02 0.92 0.43 0.08 0.04 0.01 0.01 0.09 0.04 0.92 0.43 0.01 0.01 0.52 0.24 0.48 0.22 0.04 0.02 0.52 0.23 0.45 0.2 0.07 0.03 0.86 0.38 0.1 0.04 0.09 0.04 0.86 0.38 0.06 0.03 0.12 0.05 0.78 0.34 0.12 0.05 0.15 0.06 0.74 0.31 0.14 0.06 0.18 0.07 0.76 0.31 0.1 0.04 0.2 0.08 0.53 0.22 0.09 0.04 0.34 0.14 0.8 0.32 0.1 0.04 0.26 0.1 0.53 0.21 0.04 0.02 0.46 0.18 0.03 0.01 0.53 0.21 0.22 0.08 0.06 0.02 0.79 0.3 0.19 0.07 0.34 0.13 0.54 0.2c1.14,1.59 2.2,3.24 3.18,4.95 -28.6,-6.72 -48.4,-19.91 -60.8,-31.01 2.12,-0.22 4.28,-0.33 6.46,-0.33z"/>
    </g>
    <path class="fil0" d="M285.07 582.35l61.28 -0.26 12.46 46.6c0,0 -43.62,11.27 -87.59,0.26l13.85 -46.6z"/>
    <path class="fil1" d="M291.56 590.37l47.96 -0.33 8.17 31.4c0,0 -32.54,7.55 -65.34,0.17l9.21 -31.24z"/>
    <path class="fil2" d="M316.23 590.2l23.29 -0.16 8.17 31.4c0,0 -13.3,3.09 -31.46,3.38l0 -34.62z"/>
    <path class="fil5" d="M291.56 590.37l47.96 -0.33 0.07 0.27c-7.39,3.73 -24.48,10.26 -24.48,10.26l-23.65 -9.85 0.1 -0.34z"/>
   </g>
   <rect id="_135982752" class="fil12" width="628.11" height="960.77"/>
  </g>
 </g>
</svg>
