<?xml version="1.0" encoding="UTF-8"?>
<!DOCTYPE svg PUBLIC "-//W3C//DTD SVG 1.1//EN" "http://www.w3.org/Graphics/SVG/1.1/DTD/svg11.dtd">
<!-- Creator: CorelDRAW 2020 (64-Bit) -->
<svg xmlns="http://www.w3.org/2000/svg" xml:space="preserve" width="129.436mm" height="197.988mm" version="1.1" style="shape-rendering:geometricPrecision; text-rendering:geometricPrecision; image-rendering:optimizeQuality; fill-rule:evenodd; clip-rule:evenodd"
viewBox="0 0 1092.51 1671.13"
 xmlns:xlink="http://www.w3.org/1999/xlink"
 xmlns:xodm="http://www.corel.com/coreldraw/odm/2003">
 <defs>
  <style type="text/css">
   <![CDATA[
    .fil0 {fill:none}
    .fil6 {fill:#4B3446}
    .fil3 {fill:#501D33}
    .fil4 {fill:#634C54}
    .fil5 {fill:#896E6B}
    .fil1 {fill:#8E7A5D}
    .fil9 {fill:#C3926B}
    .fil7 {fill:#EDDC93}
    .fil2 {fill:#EEF698}
    .fil8 {fill:white}
   ]]>
  </style>
 </defs>
 <g id="Слой_x0020_1">
  <metadata id="CorelCorpID_0Corel-Layer"/>
  <g id="_1746286943360">
   <g id="_119090960">
    <rect id="_118815528" class="fil0" width="1092.51" height="1671.13"/>
    <g>
     <path id="_269468168" class="fil1" d="M400.77 918.84c0,0 9.98,-33.26 27.56,-50.37 17.58,-17.11 24.71,-1.43 24.71,-1.43 0,0 -27.56,38.97 -52.27,51.8z"/>
     <path id="_269468312" class="fil1" d="M468.72 854.69c0,0 95.52,20.91 235.7,-70.81l11.88 8.08 -37.07 48.47c0,0 -100.27,28.99 -103.12,30.41 -2.85,1.43 -102.17,12.36 -102.17,12.36l-5.23 -28.51z"/>
     <path id="_269468408" class="fil2" d="M402.76 918.18c0,0 68.81,-30.23 145.79,-29.76 76.98,0.48 165.37,25.66 165.37,25.66 0,0 -56.07,-34.21 -150.16,-41.34 -94.09,-7.13 -161,45.44 -161,45.44z"/>
     <path id="_269464496" class="fil1" d="M335.19 853.74c0,0 2.85,24.24 21.38,40.39 0,0 11.88,-1.9 17.58,0 0,0 -13.78,38.97 4.75,71.76 0,0 12,-11.41 23.86,-14.02 0,0 -2.85,38.19 13.52,56.92 0,0 34.87,-4.98 48.86,-23.48 0,0 0.47,10.2 -5.22,22.29 0,0 29.88,-8.06 39.37,-24.9 0,0 2.37,13.52 -0.71,27.04 0,0 25.85,-17.55 33.44,-48.62 0,0 11.78,11.51 13.67,22.38 0,0 9.22,-20.21 18.91,-25.05 0,0 5.44,31.67 26.23,48.45 0,0 4.96,-16.31 16.78,-23.87 0,0 5.08,17.49 21.39,26.12 0,0 -0.21,-11.73 6.19,-20.75 0,0 8.3,12.1 34.87,13.04 0,0 16.6,3.32 27.04,-50.28 0,0 3.79,-1.42 12.33,10.2 0,0 16.37,-17.32 15.89,-59.14 0,0 12.83,-2.38 32.79,12.83 19.96,15.21 -11.88,65.58 -15.68,72.23 -3.8,6.65 -75.08,60.83 -81.74,65.58 -6.65,4.75 -14.26,16.16 -39.44,19.01 -25.19,2.85 -63.68,17.11 -115.47,6.65 -51.8,-10.45 -132.58,-48.95 -138.28,-54.17 -5.7,-5.23 -52.75,-97.42 -52.75,-102.17 0,-4.75 20.43,-68.43 20.43,-68.43z"/>
     <path id="_269464592" class="fil1" d="M484.4 940.7c0,0 51.32,-33.74 63.2,-31.36 11.88,2.38 81.26,24.48 81.26,24.48 0,0 -93.62,1.66 -144.46,6.89z"/>
     <path id="_269464712" class="fil3" d="M222.73 871.66c0,0 5.14,29.96 -17.64,56.88 0,0 36.96,9.6 52.79,-9.85l-7.68 -35.75 -27.47 -11.28z"/>
     <path id="_269464808" class="fil3" d="M863.2 757.78c0,0 -4.28,72.71 28.04,115.95 0,0 -14.73,12.83 -42.29,15.21 0,0 -5.23,53.7 19.01,93.62 0,0 -18.53,4.75 -47.05,-9.5 0,0 -9.4,27.15 -6.54,72.81 0,0 -20.54,-0.1 -38.6,-14.36 0,0 -4.75,31.36 -30.89,49.9 0,0 -5.23,-10.93 -10.93,-16.16 0,0 -12.36,17.58 -10.45,45.14 0,0 -16.16,-10.93 -27.09,-26.61 0,0 4.28,46.57 -49.9,74.61 0,0 -5.7,-24.71 -20.91,-39.92 0,0 -12.36,20.91 -10.45,67.48 0,0 -28.27,-9.74 -39.44,-39.67 -8.85,4.3 -18.87,18.84 -24.61,30.94 -3.09,7.84 -4.33,13.01 -4.33,13.01l-0.05 -0.02 -0.01 0.02 -0.01 -0.03c-27.51,-14.73 -30.35,-37.98 -30.35,-37.98 -12.83,23.29 -38.97,33.74 -38.97,33.74 1.9,-46.57 -10.45,-67.48 -10.45,-67.48 -15.21,15.21 -20.91,39.92 -20.91,39.92 -54.17,-28.04 -49.9,-74.61 -49.9,-74.61 -10.93,15.68 -27.09,26.61 -27.09,26.61 1.9,-27.56 -10.45,-45.14 -10.45,-45.14 -5.7,5.23 -10.93,16.16 -10.93,16.16 -26.14,-18.53 -30.89,-49.9 -30.89,-49.9 -18.06,14.26 -38.6,14.36 -38.6,14.36 2.85,-45.66 -6.54,-72.81 -6.54,-72.81 -28.51,14.26 -47.05,9.5 -47.05,9.5 24.24,-39.92 19.01,-93.62 19.01,-93.62 -27.56,-2.38 -42.29,-15.21 -42.29,-15.21 32.31,-43.24 28.04,-115.95 28.04,-115.95 34.39,16.6 45.38,67.72 45.38,67.72 6.66,-27.09 5.94,-44.44 5.94,-44.44 30.65,27.8 34.37,76.38 34.37,76.38 14.47,-6.17 21.11,-4.27 21.11,-4.27 -7.59,39.13 9.25,60.01 9.25,60.01 11.15,-6.17 17.31,-2.85 17.31,-2.85 -8.3,45.78 12.81,68.08 12.81,68.08 11.62,-11.15 18.01,-10.11 18.01,-10.11 1.51,16.28 8.25,40.41 26.98,50.02 20.48,10.51 51.21,1.62 64.73,-16.28 7.13,16.63 3.33,32.79 3.33,32.79 34.21,-17.11 43.24,-62.73 43.24,-62.73 6.82,9.22 12.96,26.9 14.71,32.2 1.75,-5.3 7.89,-22.98 14.71,-32.2 0,0 9.03,45.62 43.24,62.73 0,0 -3.8,-16.16 3.33,-32.79 0,0 14.49,20.9 47.76,19.95 33.26,-0.95 40.39,-33.74 42.29,-54.17 0,0 6.39,-1.04 18.01,10.11 0,0 21.82,-22.77 13.52,-68.55 0,0 7.35,-3.08 18.5,3.08 0,0 18.03,-17.79 8.06,-60.24 0,0 5.69,-3.55 21.11,6.88 0,0 3.48,-47.63 35.8,-75.2 0,0 -2.38,20.43 6.18,48 0,0 9.8,-57.53 44.19,-74.13z"/>
     <path id="_269464928" class="fil4" d="M242.67 788.43c0,0 -0.24,50.52 -22.77,77.8 0,0 11.15,15.89 57.4,14.94 0,0 -8.3,4.98 -22.06,7.59 0,0 8.29,50.55 -8.34,78.59 0,0 20.43,-3.8 41.34,-23.29 0,0 -2.38,13.31 -5.7,17.11 0,0 13.78,24.24 12.36,58.45 0,0 23.29,-5.23 42.29,-36.12 0,0 1.9,18.06 -9.98,36.59 0,0 1.8,26.63 17.45,37.54l14.47 -18.74c0,0 12.75,12.56 19.88,41.55 0,0 13.56,-9.77 22.1,-29.69 0,0 0.23,61.53 42.05,83.86 0,0 6.18,-29.94 30.41,-39.92 0,0 13.31,33.74 14.73,68.43 0,0 20.91,-16.63 25.19,-52.75 0,0 10.93,39.92 28.04,57.5l0.08 -2.6 0.18 1.65c9.99,-25.88 39.66,-44.69 39.66,-44.69 2.14,34.46 21.87,40.89 21.87,40.89 1.43,-34.69 14.73,-68.43 14.73,-68.43 24.24,9.98 30.41,39.92 30.41,39.92 41.82,-22.33 42.05,-83.86 42.05,-83.86 8.54,19.92 22.1,29.69 22.1,29.69 7.13,-28.99 19.88,-41.55 19.88,-41.55l14.47 18.74c15.65,-10.91 17.45,-37.54 17.45,-37.54 -11.88,-18.53 -9.98,-36.59 -9.98,-36.59 19.01,30.89 42.29,36.12 42.29,36.12 -1.43,-34.21 12.36,-58.45 12.36,-58.45 -3.33,-3.8 -5.7,-17.11 -5.7,-17.11 20.91,19.48 41.34,23.29 41.34,23.29 -16.63,-28.04 -8.34,-78.59 -8.34,-78.59 -13.76,-2.61 -22.06,-7.59 -22.06,-7.59 46.25,0.95 57.4,-14.94 57.4,-14.94 -22.53,-27.28 -22.77,-77.8 -22.77,-77.8 -17.31,27.28 -26.56,68.78 -26.56,68.78 -13.76,-12.81 -19.21,-44.59 -19.21,-44.59 -14.23,27.28 -15.18,56.21 -15.18,56.21 8.54,9.49 9.72,20.16 9.72,20.16 -15.42,-14.71 -26.33,-17.08 -26.33,-17.08 -0.47,32.49 -15.18,47.44 -15.18,47.44 9.25,4.74 12.81,15.65 12.81,15.65 -14.23,-9.96 -27.75,-9.72 -27.75,-9.72 5.22,43.17 -19.21,64.51 -19.21,64.51 -0.47,10.91 -3.79,14.23 -3.79,14.23 -2.37,-11.86 -13.28,-16.13 -13.28,-16.13 -2.13,10.2 -9.01,44.35 -39.61,48.62 -30.6,4.27 -51.23,-10.91 -51.23,-10.91 -1.42,11.86 3.08,24.9 3.08,24.9 -3.08,0.47 -11.15,0 -11.15,0 -32.97,-7.83 -49.57,-45.78 -49.57,-45.78l-10.69 14.88 -10.69 -14.88c0,0 -16.6,37.95 -49.57,45.78 0,0 -8.06,0.47 -11.15,0 0,0 4.51,-13.04 3.08,-24.9 0,0 -20.63,15.18 -51.23,10.91 -30.6,-4.27 -37.47,-38.42 -39.61,-48.62 0,0 -10.91,4.27 -13.28,16.13 0,0 -3.32,-3.32 -3.79,-14.23 0,0 -24.43,-21.35 -19.21,-64.51 0,0 -13.52,-0.24 -27.75,9.72 0,0 3.56,-10.91 12.81,-15.65 0,0 -14.71,-14.94 -15.18,-47.44 0,0 -10.91,2.37 -26.33,17.08 0,0 1.19,-10.67 9.72,-20.16 0,0 -0.95,-28.94 -15.18,-56.21 0,0 -5.46,31.78 -19.21,44.59 0,0 -9.25,-41.51 -26.56,-68.78z"/>
     <path id="_269465024" class="fil5" d="M848.72 788.77c-17.18,27.28 -26.35,68.44 -26.35,68.44 -13.76,-12.81 -19.21,-44.59 -19.21,-44.59 -14.23,27.28 -15.18,56.21 -15.18,56.21 6.37,7.07 8.64,14.81 9.39,18.28l0.21 -0.49c-3.08,-29.41 5.69,-41.74 5.69,-41.74 7.83,22.53 29.17,26.56 29.17,26.56l1.9 -8.78c2.88,-44.05 12.01,-68.27 14.38,-73.9zm-51.83 99.46c-14.99,-14.02 -25.52,-16.31 -25.52,-16.31 -0.47,32.49 -15.18,47.44 -15.18,47.44l0.28 0.15c21.2,-12.36 24.27,-35.24 24.27,-35.24l16.13 4.03 0.02 -0.06zm-29.55 45.66c-13.6,-8.82 -26.09,-8.61 -26.09,-8.61 3.77,31.22 -7.96,51.02 -14.75,59.6 27.89,-22.59 22.45,-54.85 22.45,-54.85l18.38 3.86zm-62.39 54.07c-2.13,10.18 -8.95,43.77 -38.89,48.46 50.18,-1.91 41.66,-39.47 38.89,-48.46z"/>
     <path id="_269469632" class="fil5" d="M242.67 788.43c0,0 0,0.29 -0.01,0.82 4.57,12.21 18.39,52.31 15.2,83.75 0,0 16.97,-3.68 30.02,-25.5 0,0 -2.59,19.57 6.56,38.72 0.93,-3.79 3.32,-10.87 9.19,-17.38 0,0 -0.95,-28.94 -15.18,-56.21 0,0 -5.46,31.78 -19.21,44.59 0,0 -9.25,-41.51 -26.56,-68.78zm172.55 244.91c-21.32,-9.78 -26.73,-36.6 -28.58,-45.44 0,0 -6.24,2.44 -10.31,8.77 4.62,10.25 16.44,30.78 38.89,36.67zm-46.68 -44.53c-4.58,-4.65 -22.75,-25.71 -18.18,-63.52 0,0 -7.03,-0.12 -16.28,3.54 -1.39,14.84 0.12,46.28 34.46,59.99zm-34.38 -68.76c0.41,-0.24 0.82,-0.48 1.25,-0.7 0,0 -14.71,-14.94 -15.18,-47.44 0,0 -0.3,0.06 -0.87,0.24 -4.86,10.24 -10.64,31.7 14.79,47.9z"/>
     <path id="_269469728" class="fil6" d="M255.51 888.71l-0.06 0.01 -0.18 0.19c0.48,3.05 7.74,51.29 -8.37,78.43 0,0 20.43,-3.8 41.34,-23.29 0,0 -2.38,13.31 -5.7,17.11 0,0 13.78,24.24 12.36,58.45 0,0 23.29,-5.23 42.29,-36.12 0,0 1.9,18.06 -9.98,36.59 0,0 1.8,26.63 17.45,37.54l14.47 -18.74c0,0 12.75,12.56 19.88,41.55 0,0 13.56,-9.77 22.1,-29.69 0,0 0.23,61.53 42.05,83.86 0,0 6.18,-29.94 30.41,-39.92 0,0 13.31,33.74 14.73,68.43 0,0 20.91,-16.63 25.19,-52.75 0,0 10.93,39.92 28.04,57.5l0.08 -2.6 0.18 1.65c9.99,-25.88 39.66,-44.69 39.66,-44.69 2.14,34.46 21.87,40.89 21.87,40.89 1.43,-34.69 14.73,-68.43 14.73,-68.43 24.24,9.98 30.41,39.92 30.41,39.92 41.82,-22.33 42.05,-83.86 42.05,-83.86 8.54,19.92 22.1,29.69 22.1,29.69 7.13,-28.99 19.88,-41.55 19.88,-41.55l14.47 18.74c15.65,-10.91 17.45,-37.54 17.45,-37.54 -11.88,-18.53 -9.98,-36.59 -9.98,-36.59 19.01,30.89 42.29,36.12 42.29,36.12 -1.43,-34.21 12.36,-58.45 12.36,-58.45 -3.33,-3.8 -5.7,-17.11 -5.7,-17.11 20.91,19.48 41.34,23.29 41.34,23.29 -15.46,-26.06 -9.39,-71.57 -8.46,-77.85 -31.02,14.07 -66.66,72.56 -66.66,72.56 -13.99,-9.25 -17.79,-23.24 -17.79,-23.24 2.85,29.88 -12.33,78.74 -12.33,78.74 -3.32,-15.89 -7.83,-19.21 -7.83,-19.21 -13.52,21.82 -29.17,53.13 -29.17,53.13 -7.12,-6.88 -20.16,-9.96 -20.16,-9.96 -5.22,40.56 -26.33,56.92 -26.33,56.92 -11.86,-27.75 -37.95,-38.19 -37.95,-38.19 -11.86,15.42 -23.48,55.5 -23.48,55.5 -10.44,-19.92 -12.81,-46.49 -12.81,-46.49 -15.42,17.55 -29.88,64.04 -29.88,64.04 -9.49,-15.18 -11.86,-54.31 -11.86,-54.31 -5.93,10.2 -9.49,37.24 -9.49,37.24 -24.19,-16.6 -26.33,-53.37 -26.33,-53.37 -12.33,8.78 -18.5,20.63 -18.5,20.63 -14.23,-6.4 -24.67,-18.5 -24.67,-18.5 -17.08,9.96 -22.29,35.34 -22.29,35.34 -11.38,-21.11 -8.06,-43.64 -8.06,-43.64 -28.94,-8.54 -48.38,-39.61 -48.38,-39.61 -3.79,7.35 -4.19,11.79 -4.19,11.79 -39.44,-24.24 -39.69,-65.39 -39.69,-65.39 -11.86,8.3 -18.03,20.4 -18.03,20.4 -20.87,-28.7 -14.47,-65.7 -14.47,-65.7 -16.37,2.13 -30.46,10.9 -30.46,10.9 -4.64,-23.67 -19.26,-39.63 -19.93,-40.36z"/>
     <path id="_269469848" class="fil3" d="M412.04 910.53c0,0 -22.63,-60.26 4.12,-103.71 9.13,-14.83 12.81,-16.14 22.27,-2.22 8.16,12.01 31.18,39.95 61.5,72.7 -29.39,0.57 -63.4,17.28 -87.89,33.24z"/>
     <path id="_269469944" class="fil7" d="M421.9 902.3c14.96,-9.15 41.36,-19.58 58.33,-23.86 -8.88,-9.11 -27.52,-31.29 -47.43,-61.87 -3.55,-5.46 -5.21,-6.91 -8.44,-0.07 -12.32,26.06 -11.43,55.54 -2.46,85.8z"/>
     <path id="_269470064" class="fil8" d="M474.03 871.7c-9.95,-11.29 -25.17,-30.48 -41.23,-55.14 -3.55,-5.46 -5.21,-6.91 -8.44,-0.07 -11.72,24.8 -11.48,52.7 -3.7,81.43 0.13,-0.27 0.25,-0.56 0.37,-0.85 0,0 -5.69,-45.3 8.06,-66.41 0,0 21.31,27.76 44.94,41.04z"/>
     <path id="_269470160" class="fil9" d="M421.9 902.3c14.96,-9.15 41.36,-19.58 58.33,-23.86 -3.29,-3.37 -7.91,-8.53 -13.43,-15.24 -20.5,7.22 -36.31,20.62 -46.86,31.98 0.6,2.37 1.26,4.74 1.96,7.12z"/>
     <path id="_269470280" class="fil3" d="M707.66 787.35c0,0 -87.91,65.34 -179.15,77.93l15.42 8.19c0,0 95.52,6.18 163.95,38.49 0,0 26.25,-41.94 13.89,-116.54l-14.11 -8.07z"/>
     <path id="_269470376" class="fil9" d="M710.06 804.32c0,0 5.69,19.21 -1.42,46.49 0,0 -1.02,2.4 -3.39,2.16 -2.36,-0.24 -31.08,-21.62 -31.08,-21.62l35.89 -27.02z"/>
     <path id="_269470520" class="fil9" d="M573.19 870.13c0,0 48.15,-16.56 59.03,-23.78l-14.57 29.22c0,0 -21.41,-3.19 -44.46,-5.44z"/>
     <path id="_269470616" class="fil3" d="M736.21 808.66c0,0 -21.64,-15.24 -49.39,-27.34 -6.16,-4.02 26.5,-5.25 35.34,-0.95 15.18,7.39 31.31,39.85 14.05,28.29z"/>
     <path id="_269470736" class="fil9" d="M701.52 893.98c0,0 6.88,-21.11 5.22,-28.22 -1.66,-7.12 -16.72,-6.07 -16.72,-4.41 0,0.82 -12.01,12.73 -9.33,22.22 2.77,9.79 20.83,10.42 20.83,10.42z"/>
     <path id="_269470832" class="fil3" d="M482.64 940.95c0,0 49.9,-37.54 65.58,-37.54 15.68,0 81.26,30.41 81.26,30.41 0,0 -69.14,-17.11 -81.02,-16.64 -11.88,0.48 -65.82,23.76 -65.82,23.76z"/>
     <path id="_269470952" class="fil3" d="M689.62 897.86c0,0 16.05,-62 -15.86,-101.82 -10.89,-13.59 -14.7,-14.44 -22.37,0.55 -6.62,12.93 -23.65,43.2 -49.7,79.44 0,0 36.62,-3.84 81.47,17.88l6.47 3.96z"/>
     <path id="_269471048" class="fil7" d="M679.85 891.5c-15.98,-7.23 -43.46,-14.32 -60.83,-16.48 7.69,-10.13 23.44,-34.45 39.43,-67.26 2.85,-5.85 4.32,-7.5 8.37,-1.11 15.44,24.34 18.2,53.7 13.03,84.84z"/>
     <path id="_269471168" class="fil8" d="M623.24 869.18c8.46,-12.19 21.75,-33.79 35.21,-61.41 1.74,-3.57 2.97,-5.57 4.58,-5.14 1.01,9.47 1.89,45.79 -39.79,66.56z"/>
     <path id="_269462360" class="fil9" d="M679.85 891.5c-15.98,-7.23 -43.46,-14.33 -60.83,-16.48 2.79,-3.67 6.64,-9.21 11.17,-16.34 16.52,3.4 35.02,9.5 51.3,20.4 -0.4,4.1 -0.94,8.24 -1.64,12.42z"/>
     <path id="_269462480" class="fil3" d="M399.21 921.01c0,0 59.4,-40.15 149.21,-41.1 89.81,-0.95 169.16,35.87 169.16,35.87 -2.02,-5.72 -16.7,-15.96 -25.27,-20.92 -68.29,-39.58 -219.82,-50.74 -293.1,26.15z"/>
     <path id="_269462576" class="fil3" d="M416.48 1017.13c0,0 19.66,1.9 34.89,-11.2 0,0 0.58,18.38 -17.89,27.91 -18.47,9.54 -17.01,-16.71 -17.01,-16.71z"/>
     <path id="_269462696" class="fil3" d="M675.19 1017.1c0,0 -19.66,1.9 -34.89,-11.2 0,0 -0.58,18.38 17.89,27.91 18.47,9.54 17.01,-16.71 17.01,-16.71z"/>
     <path id="_269462792" class="fil3" d="M870.2 877.13c0,0 -3.25,41.35 12.43,54.51 0,0 -31.26,8.89 -47.1,-10.56l3.89 -31.95 30.79 -11.99z"/>
     <path id="_269462912" class="fil7" d="M708.89 806.95c0,0 3.07,27.3 -2.95,43.49l-7.92 -5.67c0,0 7.68,-21.86 10.87,-37.81z"/>
     <path id="_269463032" class="fil9" d="M667.46 821.18c0,0 4.51,30.12 -10.2,53.13l20.16 7.83c0,0 6.64,-35.58 -9.96,-60.96z"/>
     <path id="_269463152" class="fil2" d="M422.8 909.87c0,0 23.89,7.52 40.45,6.78 16.55,-0.73 35.83,-28.97 35.83,-28.97 0,0 -42.68,1.58 -76.27,22.18z"/>
     <path id="_269463248" class="fil2" d="M681.66 905.26c0,0 -23.52,8.61 -40.09,8.63 -16.57,0.03 -37.12,-27.29 -37.12,-27.29 0,0 42.71,-0.38 77.21,18.65z"/>
    </g>
   </g>
  </g>
 </g>
</svg>
