<?xml version="1.0" encoding="UTF-8"?>
<!DOCTYPE svg PUBLIC "-//W3C//DTD SVG 1.1//EN" "http://www.w3.org/Graphics/SVG/1.1/DTD/svg11.dtd">
<!-- Creator: CorelDRAW 2020 (64-Bit) -->
<svg xmlns="http://www.w3.org/2000/svg" xml:space="preserve" width="129.436mm" height="197.988mm" version="1.1" style="shape-rendering:geometricPrecision; text-rendering:geometricPrecision; image-rendering:optimizeQuality; fill-rule:evenodd; clip-rule:evenodd"
viewBox="0 0 2485.23 3801.46"
 xmlns:xlink="http://www.w3.org/1999/xlink"
 xmlns:xodm="http://www.corel.com/coreldraw/odm/2003">
 <defs>
  <style type="text/css">
   <![CDATA[
    .fil0 {fill:none}
    .fil1 {fill:#501D33}
    .fil4 {fill:#6C6C68}
    .fil2 {fill:#8F8F7E}
    .fil3 {fill:#B7B7A3}
    .fil7 {fill:#C3926B}
    .fil5 {fill:#EDDC93}
    .fil6 {fill:white}
   ]]>
  </style>
 </defs>
 <g id="Слой_x0020_1">
  <metadata id="CorelCorpID_0Corel-Layer"/>
  <g id="_1746374784048">
   <rect id="_281779912" class="fil0" y="0" width="2485.23" height="3801.46"/>
   <path id="_92543072" class="fil1" d="M508.2 2030.73c-0.32,-7.79 -0.02,-16.02 0.12,-23.67 0.29,-15.73 0.76,-31.46 1.25,-47.18 1.37,-43.81 3.03,-87.62 4.74,-131.42 2.64,-67.62 5.43,-135.23 8.38,-202.84l0 -32.98 46.02 0 123.31 430.61 1054.25 -51.93 169.86 -378.68 45.15 -0 1.21 32.28c2.95,67.84 5.76,135.69 8.41,203.54 1.71,43.8 3.37,87.61 4.74,131.42 0.49,15.72 0.96,31.45 1.25,47.18 0.14,7.65 0.45,15.87 0.12,23.66 1.66,22.63 -11.44,44.2 -25.17,61.86 -17.21,22.13 -38.93,42.92 -60.05,61.7 -59.84,53.23 -129.05,102.02 -197.18,145.23 -295.73,187.56 -592.57,194.37 -891.25,8.04 -71.15,-44.39 -143.33,-94.71 -205.87,-149.66 -22.09,-19.41 -44.83,-40.88 -62.92,-63.76 -14.22,-17.99 -28.09,-40.17 -26.39,-63.41l0 0z"/>
   <path id="_118824648" class="fil2" d="M553.74 2029.2c-2.04,-28.22 14.3,-403.21 14.3,-403.21l1.62 -26.03c52.95,32.73 117.22,95.87 198.09,214.06 67.23,212.13 375.52,-38.35 472.88,-40.08 103.04,-1.84 393.13,245.46 474.68,34.15 77.1,-110.84 155.87,-119.95 200.67,-213.86l1.19 31.77c0,0 16.34,374.98 14.3,403.21 6.42,33.67 -109.74,136.77 -262.34,233.55 -280.01,177.59 -557.16,184.66 -840.62,7.83 -158.68,-98.99 -281.38,-206.81 -274.79,-241.39l0 0z"/>
   <path id="_123949880" class="fil1" d="M1319.19 2002.69c0,0 47.44,-83.17 63.73,-86.89 16.29,-3.72 84.22,77.95 84.22,77.95 0,0 -125.13,18.3 -147.95,8.94z"/>
   <path id="_118824576" class="fil3" d="M824.66 2038.13c3.78,1.62 83.63,-3.78 196.39,-19.42 0,0 178.21,42.33 436.57,0.17 0,0 91.88,44.32 218.36,38.92l-198.9 -70.26 -83.24 10.81 -393.48 -16.21c0,0 -113.5,27.02 -175.7,56z"/>
   <path id="_118824504" class="fil4" d="M1098.73 2109.68c0,0 81.07,-52.97 126.48,-48.64 45.4,4.32 152.42,62.7 152.42,62.7 0,0 -132.96,-44.32 -278.89,-14.05z"/>
   <path id="_118824192" class="fil4" d="M1678.16 2239.27c-3.68,2.37 -7.38,4.74 -11.1,7.1 -274.68,174.22 -546.57,181.15 -824.63,7.68 -24.7,-15.41 -48.5,-31.04 -71.06,-46.56l-0.02 -0.61c0,0 412.84,258.05 906.8,32.38z"/>
   <path id="_118824120" class="fil4" d="M553.74 2029.2c-2.04,-28.22 14.3,-403.21 14.3,-403.21l0 -34.6c62.52,43.64 188.32,177.68 203.41,232.08 15.09,54.4 -5.51,236.93 -11.93,402.01 -123.74,-84.74 -211.38,-166.92 -205.78,-196.28zm1362.17 -437.07l1.27 33.86c0,0 16.34,374.98 14.3,403.21 5.6,29.37 -82.05,111.54 -205.79,196.28 -12.91,-154.25 -29.13,-349.96 -14.09,-404.17 15.04,-54.21 143.14,-172 204.3,-229.17z"/>
   <polygon id="_118823976" class="fil1" points="1716.86,2254.07 1709.29,1996.8 1747.13,2231.37 "/>
   <polygon id="_118823904" class="fil1" points="763.24,2254.07 770.8,1996.8 732.97,2231.37 "/>
   <path id="_120048064" class="fil1" d="M975.28 2190.21c3.19,-0.76 6.4,1.22 7.16,4.42 0.76,3.19 -1.22,6.4 -4.42,7.16 -3.19,0.75 -6.4,-1.22 -7.15,-4.42 -0.75,-3.19 1.22,-6.4 4.42,-7.15z"/>
   <path id="_120048256" class="fil1" d="M1279.29 2150.14c3.19,-0.76 6.4,1.22 7.16,4.42 0.76,3.19 -1.22,6.4 -4.42,7.16 -3.19,0.75 -6.4,-1.22 -7.15,-4.42 -0.75,-3.19 1.22,-6.4 4.42,-7.15z"/>
   <path id="_120048352" class="fil1" d="M1804.64 1886.38c3.19,-0.76 6.4,1.22 7.16,4.42 0.76,3.19 -1.22,6.4 -4.42,7.16 -3.19,0.75 -6.4,-1.22 -7.15,-4.42 -0.75,-3.19 1.22,-6.4 4.42,-7.15z"/>
   <path id="_120048496" class="fil1" d="M1864.73 1969.43c5.37,0 9.73,4.36 9.73,9.73 0,5.37 -4.36,9.73 -9.73,9.73 -5.37,0 -9.73,-4.36 -9.73,-9.73 0,-5.37 4.36,-9.73 9.73,-9.73z"/>
   <path id="_120048616" class="fil1" d="M948.45 2075.11c4.65,-1.1 9.31,1.78 10.41,6.42 1.1,4.65 -1.78,9.31 -6.42,10.41 -4.65,1.1 -9.31,-1.78 -10.41,-6.42 -1.1,-4.65 1.78,-9.31 6.42,-10.41z"/>
   <path id="_120045160" class="fil1" d="M1646.26 2184.55c0.29,5.96 -4.32,11.03 -10.28,11.32 -5.96,0.29 -11.03,-4.31 -11.32,-10.28 -0.29,-5.96 4.31,-11.03 10.28,-11.32 5.96,-0.29 11.03,4.32 11.32,10.28z"/>
   <path id="_120045328" class="fil1" d="M729.59 1957.54c0.29,5.96 -4.32,11.03 -10.28,11.32 -5.96,0.29 -11.03,-4.31 -11.32,-10.28 -0.29,-5.96 4.31,-11.03 10.28,-11.32 5.96,-0.29 11.03,4.32 11.32,10.28z"/>
   <path id="_120045520" class="fil1" d="M1509.81 2242.85c0.36,7.46 -5.39,13.79 -12.85,14.15 -7.45,0.36 -13.79,-5.39 -14.15,-12.85 -0.36,-7.45 5.39,-13.79 12.85,-14.14 7.45,-0.36 13.79,5.39 14.14,12.85z"/>
   <path id="_120045664" class="fil1" d="M1429.6 2146.46c0.33,6.86 -4.96,12.69 -11.82,13.02 -6.86,0.33 -12.69,-4.96 -13.01,-11.82 -0.33,-6.86 4.96,-12.68 11.82,-13.01 6.86,-0.33 12.68,4.96 13.01,11.82z"/>
   <path id="_120045784" class="fil1" d="M1838.11 1753.79c0.25,5.23 -3.78,9.67 -9.01,9.92 -5.23,0.25 -9.67,-3.78 -9.92,-9.01 -0.25,-5.23 3.78,-9.67 9.01,-9.92 5.23,-0.25 9.67,3.78 9.92,9.01z"/>
   <path id="_120045928" class="fil1" d="M1807.23 2075.28c0.33,6.86 -4.96,12.69 -11.82,13.02 -6.86,0.33 -12.69,-4.96 -13.01,-11.82 -0.33,-6.86 4.96,-12.68 11.82,-13.01 6.86,-0.33 12.68,4.96 13.01,11.82z"/>
   <path id="_120046096" class="fil1" d="M644.69 1916.52c0.33,6.86 -4.96,12.69 -11.82,13.02 -6.86,0.33 -12.69,-4.96 -13.01,-11.82 -0.33,-6.86 4.96,-12.68 11.82,-13.01 6.86,-0.33 12.68,4.96 13.01,11.82z"/>
   <path id="_120046240" class="fil1" d="M620.22 1753.76c0.26,5.48 -3.96,10.13 -9.44,10.39 -5.48,0.26 -10.13,-3.96 -10.39,-9.44 -0.26,-5.47 3.96,-10.13 9.44,-10.39 5.47,-0.26 10.13,3.96 10.39,9.44z"/>
   <path id="_120046408" class="fil1" d="M1555.22 2146.19c0.23,4.77 -3.45,8.82 -8.22,9.05 -4.77,0.23 -8.82,-3.45 -9.05,-8.22 -0.23,-4.77 3.45,-8.82 8.22,-9.05 4.77,-0.23 8.82,3.45 9.05,8.22z"/>
   <path id="_120046552" class="fil1" d="M640.7 2030.52c0.23,4.77 -3.45,8.82 -8.22,9.05 -4.77,0.23 -8.82,-3.45 -9.05,-8.22 -0.23,-4.77 3.45,-8.82 8.22,-9.05 4.77,-0.23 8.82,3.45 9.05,8.22z"/>
   <path id="_120046696" class="fil1" d="M1036.72 2227.51c6.97,-1.65 13.96,2.67 15.61,9.64 1.65,6.97 -2.67,13.96 -9.64,15.61 -6.97,1.65 -13.96,-2.67 -15.61,-9.64 -1.65,-6.97 2.67,-13.96 9.64,-15.61z"/>
   <path id="_120046840" class="fil1" d="M1278.02 2254.46c6.97,-1.65 13.96,2.67 15.61,9.64 1.65,6.97 -2.67,13.96 -9.64,15.61 -6.97,1.65 -13.96,-2.67 -15.61,-9.64 -1.65,-6.97 2.67,-13.96 9.64,-15.61z"/>
   <path id="_120047728" class="fil1" d="M886.35 2173.95c7.84,-1.85 15.71,3 17.56,10.84 1.85,7.84 -3,15.71 -10.84,17.56 -7.84,1.85 -15.71,-3 -17.56,-10.84 -1.85,-7.84 3,-15.71 10.84,-17.56z"/>
   <path id="_120047680" class="fil1" d="M1161.16 2096.05c7.84,-1.85 15.71,3 17.56,10.84 1.85,7.84 -3,15.71 -10.84,17.56 -7.84,1.85 -15.71,-3 -17.56,-10.84 -1.85,-7.84 3,-15.71 10.84,-17.56z"/>
   <polygon id="_119451648" class="fil1" points="1869.15,2145.98 1910.94,2213.58 1897.45,2220.61 1839.97,2170.82 "/>
   <polygon id="_119448288" class="fil1" points="660.18,2186.7 606.72,2238.17 596.95,2228.51 632.53,2162.9 "/>
   <polygon id="_119448384" class="fil1" points="523.82,2011.73 450.86,1998.21 453.03,1984.64 527.08,1975.39 "/>
   <polygon id="_119448600" class="fil1" points="1662.82,2306.29 1685.86,2363.52 1675.37,2368.05 1635.86,2320.2 "/>
   <polygon id="_119448888" class="fil1" points="786.76,2283.25 738.11,2334.27 728.45,2325.5 759.54,2261.79 "/>
   <polygon id="_119449104" class="fil1" points="908.39,2358.19 884.7,2403.64 876.17,2399.46 885.05,2348.68 "/>
   <polygon id="_119449224" class="fil1" points="1475.06,2389.5 1485.8,2439.62 1476.57,2441.84 1451.02,2397.06 "/>
   <polygon id="_119449320" class="fil1" points="1969.2,1988.25 2020.25,1992.77 2019.65,2002.24 1969.34,2013.45 "/>
   <polygon id="_119449560" class="fil1" points="966.06,2373.27 930.08,2436.99 922.12,2431.67 943.8,2361.37 "/>
   <polygon id="_119449680" class="fil1" points="1525.86,2362.18 1538.78,2434.21 1529.26,2435.18 1501.12,2367.21 "/>
   <g>
    <path id="_123949208" class="fil1" d="M1027.37 1977.85c0,0 -64.5,-79.13 -77.45,-185.12 -3.94,-32.3 -36.74,-36.49 -61.02,-11.07 -41.95,43.92 -93.15,135.17 -38.87,246.37l177.34 -50.17z"/>
    <path id="_123949304" class="fil5" d="M981.52 1981.69c-0.19,1.01 -0.39,1.99 -0.61,2.98l-106.41 35.25c-41.32,-80.59 -15.02,-172.07 43.8,-227.46 6.05,63.43 26.96,136.37 63.22,189.24z"/>
    <path id="_123949424" class="fil6" d="M981.52 1981.69c-0.19,1.01 -0.39,2 -0.6,2.98l-1.97 0.65c-72.32,-56.64 -63.57,-167.72 -60.61,-192.48 6.1,63.34 27,136.09 63.18,188.85z"/>
    <path id="_123949520" class="fil7" d="M981.52 1981.69c-0.19,1.01 -0.39,1.99 -0.61,2.98l-106.4 35.24c-4.71,-9.19 -8.54,-18.53 -11.55,-27.94 25.14,-2.75 72.26,-8.48 108.97,-25.32 3.07,5.16 6.27,10.19 9.59,15.04z"/>
    <path id="_123949640" class="fil7" d="M901.53 1820.97c0,0 -71.1,71.33 -20.37,196.74l55.16 -18.27c-21.5,-31.99 -50.67,-93.69 -34.79,-178.47z"/>
   </g>
   <g>
    <path id="_123949208_0" class="fil1" d="M1455.84 1995c0,0 64.5,-79.13 77.45,-185.12 3.94,-32.3 36.74,-36.49 61.02,-11.07 41.95,43.92 93.15,135.17 38.87,246.37l-177.34 -50.17z"/>
    <path id="_123949304_1" class="fil5" d="M1501.69 1998.84c0.19,1.01 0.39,1.99 0.61,2.98l106.41 35.25c41.32,-80.59 15.02,-172.07 -43.8,-227.46 -6.05,63.43 -26.96,136.37 -63.22,189.24z"/>
    <path id="_123949424_2" class="fil6" d="M1501.69 1998.84c0.19,1.01 0.39,2 0.6,2.98l1.97 0.65c72.32,-56.64 63.57,-167.72 60.61,-192.48 -6.1,63.34 -27,136.09 -63.18,188.85z"/>
    <path id="_123949520_3" class="fil7" d="M1501.69 1998.84c0.19,1.01 0.39,1.99 0.61,2.98l106.4 35.24c4.71,-9.19 8.54,-18.53 11.55,-27.94 -25.14,-2.75 -72.26,-8.48 -108.97,-25.32 -3.07,5.16 -6.27,10.19 -9.59,15.04z"/>
    <path id="_123949640_4" class="fil7" d="M1581.68 1838.12c0,0 71.1,71.33 20.37,196.74l-55.16 -18.27c21.5,-31.99 50.67,-93.69 34.79,-178.47z"/>
   </g>
   <path id="_123949784" class="fil1" d="M1003.16 1974.15c0,0 46.18,-81.64 73.73,-78.2 27.55,3.44 57.77,79.96 57.77,79.96 0,0 28.68,-41.56 51.98,-41.98 23.3,-0.42 36.51,36.12 36.51,36.12 0,0 24.25,-23.72 35.96,-27.16 11.71,-3.44 53.73,53.32 53.73,53.32 0,0 -166.42,30.28 -309.68,-22.06z"/>
   <path id="_123949880_5" class="fil5" d="M1033.44 1974.93c0,0 30.76,-48.11 41.25,-48.98 10.49,-0.87 42.3,64.89 42.3,64.89 0,0 -70.16,-8.04 -83.56,-15.91z"/>
   <path id="_123949880_6" class="fil5" d="M1355.25 1988.42c0,0 22.53,-42.9 31.92,-45.05 9.39,-2.14 45.83,48.68 45.83,48.68 0,0 -64.59,1.77 -77.74,-3.63z"/>
   <path id="_123950024" class="fil5" d="M1153.67 1986.97c0,0 20.5,-31.21 32.26,-30.39 11.75,0.83 22.84,41.89 22.84,41.89 0,0 -46.57,-6.49 -55.1,-11.5z"/>
   <path id="_123950120" class="fil5" d="M1230.17 1994.08c0,0 21.79,-28.58 29.02,-29.08 7.23,-0.5 25.65,37.79 25.65,37.79 0,0 -46.38,-3.85 -54.67,-8.71z"/>
   <path id="_123932264" class="fil1" d="M1004.3 1963.43c0,0 291.86,42.15 459.41,7.56 0,0 119.16,62.21 221.86,79.51 0,0 16.82,1.92 14.12,4.89 -2.7,2.97 -90.61,18.34 -236.84,-52.33 0,0 -161.92,33.69 -448.36,-8.4 0,0 -110.59,33.74 -190.98,42.92 0,0 -10.67,1.1 -10.41,-1.85 0.19,-2.15 172.23,-61.53 191.2,-72.28l0 0z"/>
  </g>
 </g>
</svg>
