<?xml version="1.0" encoding="UTF-8"?>
<!DOCTYPE svg PUBLIC "-//W3C//DTD SVG 1.1//EN" "http://www.w3.org/Graphics/SVG/1.1/DTD/svg11.dtd">
<!-- Creator: CorelDRAW 2020 (64-Bit) -->
<svg xmlns="http://www.w3.org/2000/svg" xml:space="preserve" width="129.436mm" height="197.988mm" version="1.1" style="shape-rendering:geometricPrecision; text-rendering:geometricPrecision; image-rendering:optimizeQuality; fill-rule:evenodd; clip-rule:evenodd"
viewBox="0 0 473.21 723.83"
 xmlns:xlink="http://www.w3.org/1999/xlink"
 xmlns:xodm="http://www.corel.com/coreldraw/odm/2003">
 <defs>
  <style type="text/css">
   <![CDATA[
    .fil0 {fill:none}
    .fil4 {fill:#501D33}
    .fil3 {fill:#8E7A5D}
    .fil2 {fill:#9F5655}
    .fil1 {fill:#BB765A}
    .fil7 {fill:#C3926B}
    .fil5 {fill:#D79A6E}
    .fil6 {fill:#EDDC93}
   ]]>
  </style>
 </defs>
 <g id="Слой_x0020_1">
  <metadata id="CorelCorpID_0Corel-Layer"/>
  <g id="_2674695235504">
   <rect id="_269469464" class="fil0" width="473.21" height="723.83"/>
   <path class="fil1" d="M326.43 351.38c6.83,0 11.78,5.54 11.06,12.37 -0.72,6.83 -6.84,12.37 -13.68,12.37 -6.83,0 -11.78,-5.54 -11.06,-12.37 0.72,-6.83 6.84,-12.37 13.68,-12.37zm-180.16 -4.44c9.15,0 16.56,7.42 16.56,16.56 0,4.91 -2.14,9.32 -5.53,12.35 2.77,6.24 4.32,13.15 4.32,20.41 0,2.66 -0.21,5.28 -0.61,7.83 12.7,4.12 21.89,16.06 21.89,30.13 0,3.69 -0.63,7.22 -1.79,10.51 -7.76,-3.41 -15.55,-7.55 -23.36,-12.42 -30.21,-18.85 -53.58,-39.38 -52.32,-45.96 -0.19,-2.68 0.48,-21.73 1.21,-40.18 1.54,-0.14 3.1,-0.22 4.68,-0.22 8.42,0 16.35,2.07 23.33,5.73 2.99,-2.94 7.09,-4.76 11.62,-4.76zm196.72 33.37c9.28,0 17.69,3.74 23.81,9.79 -4.59,8.54 -24.28,25.08 -48.98,40.74 -12.16,7.71 -24.29,13.73 -36.41,18.03 -0.53,-2.21 -0.81,-4.52 -0.81,-6.9 0,-16.04 12.7,-29.11 28.59,-29.72 0.99,-17.81 15.74,-31.95 33.8,-31.95zm-219.14 -50.9c3.94,0 8.25,3.19 9.64,7.13 1.38,3.94 -0.69,7.13 -4.63,7.13 -3.94,0 -8.25,-3.19 -9.64,-7.13 -1.38,-3.94 0.69,-7.13 4.63,-7.13z"/>
   <path class="fil2" d="M326.43 351.38c6.83,0 11.78,5.54 11.06,12.37 -0.67,6.38 -6.07,11.64 -12.34,12.3 -0.47,-10.08 -0.57,-18.81 -0.01,-24.6 0.43,-0.04 0.86,-0.07 1.29,-0.07zm-179.61 -4.43c0.03,0.08 0.05,0.17 0.07,0.25 2.87,10.36 -1.05,45.11 -2.27,76.55 -2.56,-1.76 -5.04,-3.5 -7.43,-5.24l-0.06 -0.05c-2.36,-1.72 -4.63,-3.41 -6.79,-5.08l-0.14 -0.11c-1.54,-1.19 -3.02,-2.36 -4.44,-3.51l-0.02 -0.01 -0.72 -0.58 -0.2 -0.17 -0.73 -0.6 -0.11 -0.09 -0.76 -0.63 -0.06 -0.05c-1.05,-0.88 -2.06,-1.74 -3.03,-2.59l-0.13 -0.11 -0.52 -0.45 -0.35 -0.31 -0.45 -0.4 -0.29 -0.26 -0.5 -0.45 -0.34 -0.31 -0.38 -0.35 -0.04 -0.04c-0.23,-0.21 -0.46,-0.42 -0.68,-0.63l-0.02 -0.02 -0.25 -0.24 -0.44 -0.42 -0.34 -0.33 -0.36 -0.35 -0.34 -0.33 -0.35 -0.34 -0.32 -0.31 -0.33 -0.33 -0.35 -0.36 -0.27 -0.27 -0.33 -0.34 -0.01 -0.01c-0.19,-0.19 -0.37,-0.39 -0.55,-0.58l-0.02 -0.02 -0.2 -0.21 -0.39 -0.41 -0.22 -0.23 -0.34 -0.38 -0.23 -0.26 -0.31 -0.35 -0.21 -0.24 -0.35 -0.4 -0.15 -0.17c-0.15,-0.17 -0.29,-0.35 -0.43,-0.52l-0.05 -0.05 -0.01 -0.01c-0.15,-0.19 -0.3,-0.37 -0.44,-0.55l-0.11 -0.15c-0.11,-0.14 -0.22,-0.28 -0.32,-0.42l-0.13 -0.17c-0.09,-0.11 -0.17,-0.23 -0.25,-0.34l-0.16 -0.22 -0.23 -0.33 -0.13 -0.18c-0.09,-0.14 -0.18,-0.27 -0.27,-0.4l-0.06 -0.09c-0.11,-0.17 -0.21,-0.33 -0.32,-0.5l-0.03 -0.04c-0.09,-0.15 -0.18,-0.29 -0.26,-0.44l-0.06 -0.11c-0.06,-0.11 -0.13,-0.23 -0.18,-0.34l-0.08 -0.15c-0.05,-0.1 -0.1,-0.2 -0.15,-0.3l-0.07 -0.14c-0.05,-0.1 -0.09,-0.2 -0.13,-0.3l-0.06 -0.13c-0.05,-0.13 -0.1,-0.25 -0.14,-0.37l-0.01 -0.03c-0.05,-0.14 -0.09,-0.27 -0.13,-0.4l-0.02 -0.08c-0.03,-0.1 -0.05,-0.19 -0.07,-0.29l-0.02 -0.12c-0.02,-0.08 -0.03,-0.16 -0.04,-0.24l-0.01 -0.12c-0.01,-0.08 -0.01,-0.16 -0.02,-0.23l-0.01 -0.11c-0,-0.08 0,-0.16 0,-0.23l0 -0.09c0.01,-0.1 0.02,-0.2 0.04,-0.3l-0 -0.04 -0.01 -0.21 -0 -0.04 -0 -0 -0 -0.07 -0.01 -0.26 -0 -0.07 -0 -0 -0 -0.08 -0 -0.31 -0 -0.09 -0 -0.01 -0 -0.12 -0 -0.31 0 -0.4 0 -0.09c0,-0.41 0.01,-0.86 0.01,-1.36l0 -0.05 0.01 -0.41 0.01 -0.36 0 -0.07 0.01 -0.45 0 -0.03 0.01 -0.44 0 -0.19 0.01 -0.65 0 -0.14 0.01 -0.52 0 -0.04 0.01 -0.49 0 -0.12c0.02,-0.69 0.04,-1.42 0.06,-2.18l0.02 -0.61 0.06 -1.91 0.02 -0.66 0 -0.08 0.02 -0.6 0.02 -0.69 0 -0.09 0.02 -0.61 0.02 -0.71 0 -0.1 0.02 -0.62 0.02 -0.73 0 -0.11 0.02 -0.64 0.03 -0.75 0 -0.12 0.02 -0.65 0.03 -0.77 0 -0.12 0.02 -0.65 0.03 -0.79 0 -0.13 0.02 -0.66 0.03 -0.8 0.09 -2.44 0.03 -0.83 0.01 -0.16 0.02 -0.67 0.03 -0.84 0.01 -0.17 0.03 -0.67 0.06 -1.69 0.03 -0.85 0.01 -0.18 0.03 -0.67 0.07 -1.72 0.03 -0.86 0.01 -0.2 0.03 -0.66 0.03 -0.86 0.01 -0.21 0.03 -0.66 0.03 -0.87 0.01 -0.22 0.03 -0.65 0.03 -0.87c1.54,-0.14 3.1,-0.22 4.68,-0.22 8.42,0 16.35,2.07 23.33,5.73 2.99,-2.94 7.09,-4.76 11.62,-4.76 0.18,0 0.36,0 0.55,0.01zm210.54 54.2c-0.42,0.4 -0.85,0.8 -1.29,1.21l-0 0c-6.9,6.36 -16.44,13.82 -27.48,21.38 -1.03,-12.35 -2.18,-26.1 -2.95,-38.65 5.07,-3.04 11.01,-4.78 17.35,-4.78 9.28,0 17.69,3.74 23.81,9.79 -0.43,0.79 -0.98,1.66 -1.66,2.58l-0.02 0.03c-0.11,0.14 -0.22,0.29 -0.33,0.44l-0.03 0.03c-0.1,0.14 -0.21,0.27 -0.32,0.41l-0.06 0.08c-0.11,0.14 -0.23,0.29 -0.35,0.44l-0.04 0.05c-0.12,0.15 -0.24,0.29 -0.37,0.44l-0.06 0.07 -0.34 0.4 -0.11 0.13 -0.29 0.33 -0.2 0.22 -0.26 0.29 -0.23 0.26 -0.22 0.24 -0.29 0.32 -0.25 0.27 -0.28 0.29 -0.21 0.22 -0.38 0.39 -0.13 0.13 -0.42 0.43 -0.18 0.18 -0.41 0.41 -0.15 0.15 -0.5 0.5 -0.07 0.06 -0.52 0.51 -0.14 0.14 -0.5 0.48 -0.13 0.12zm-233.51 -71.74c3.94,0 8.25,3.19 9.64,7.13 1.38,3.94 -0.69,7.13 -4.63,7.13 -3.94,0 -8.25,-3.19 -9.64,-7.13 -1.38,-3.94 0.69,-7.13 4.63,-7.13z"/>
   <path id="_268911320" class="fil3" d="M319.53 426.37c-0.7,0.45 -1.4,0.9 -2.11,1.35 -52.3,33.17 -104.07,34.49 -157.02,1.46 -4.7,-2.93 -9.24,-5.91 -13.53,-8.86l-0 -0.12c0,0 78.61,49.13 172.66,6.16z"/>
   <path id="_268911320_0" class="fil2" d="M319.53 426.37c-0.7,0.45 -1.4,0.9 -2.11,1.35 -12.22,7.75 -24.4,13.76 -36.58,18 -0.15,-1.23 -0.23,-2.48 -0.23,-3.74 0,-0.84 0.04,-1.68 0.11,-2.5 12.51,-2.79 25.52,-7.03 38.83,-13.11zm-137.33 14.51c-7.25,-3.25 -14.51,-7.14 -21.8,-11.69 -4.7,-2.93 -9.24,-5.91 -13.53,-8.86l-0 -0.12c0,0 13.51,8.44 36.01,15.26 -0.07,1.85 -0.3,3.66 -0.67,5.41z"/>
   <polygon id="_268911176" class="fil4" points="326.9,429.19 325.46,380.21 332.67,424.87 "/>
   <polygon id="_268911104" class="fil4" points="145.33,429.19 146.77,380.21 139.56,424.87 "/>
   <g>
    <circle id="_123939848" class="fil4" transform="matrix(0.0815701 -1.12306 1.12306 0.0815701 125.973 404.262)" r="7.95"/>
    <circle id="_123939776" class="fil1" transform="matrix(0.0815701 -1.12306 1.12306 0.0815701 127.418 402.625)" r="6.51"/>
    <path id="_123939704" class="fil2" d="M122.46 398.33c1.31,-1.51 3.29,-2.41 5.44,-2.25 3.61,0.26 6.33,3.4 6.07,7.02 -0.18,2.52 -1.77,4.6 -3.94,5.54 0.89,-1.03 1.48,-2.35 1.58,-3.82 0.26,-3.61 -2.45,-6.76 -6.07,-7.02 -1.09,-0.08 -2.14,0.11 -3.08,0.52z"/>
    <circle id="_123939632" class="fil5" transform="matrix(-0.238828 -0.410172 0.28389 -0.165298 125.07 403.983)" r="11.13"/>
   </g>
   <g>
    <circle id="_123939848_1" class="fil4" transform="matrix(-0.608536 -1.30013 1.30013 -0.608536 168.055 440.052)" r="7.95"/>
    <circle id="_123939776_2" class="fil1" transform="matrix(-0.608536 -1.30013 1.30013 -0.608536 168.644 437.332)" r="6.51"/>
    <path id="_123939704_3" class="fil2" d="M160.45 435.65c0.52,-2.5 2.16,-4.72 4.65,-5.89 4.18,-1.96 9.16,-0.15 11.12,4.03 1.37,2.92 0.9,6.22 -0.93,8.62 0.35,-1.7 0.18,-3.53 -0.62,-5.23 -1.96,-4.18 -6.94,-5.99 -11.12,-4.03 -1.26,0.59 -2.31,1.46 -3.1,2.5z"/>
    <circle id="_123939632_4" class="fil5" transform="matrix(-0.521079 -0.307586 0.212888 -0.36065 166.876 440.305)" r="11.13"/>
   </g>
   <g>
    <path id="_123939464" class="fil4" d="M112.64 358.22c-7.37,-4.85 -16.88,-2.05 -21.24,6.25 -4.36,8.3 -1.92,18.97 5.45,23.82 7.37,4.85 15.91,1.28 20.27,-7.02 4.36,-8.3 2.89,-18.19 -4.48,-23.05z"/>
    <circle id="_123939392" class="fil1" transform="matrix(0.586343 -1.13917 0.987519 0.614209 107.579 372.672)" r="11.13"/>
    <path id="_123939320" class="fil2" d="M103.19 360.99c3.22,-1.65 7,-1.66 10.22,0.34 5.43,3.38 7.21,11.19 3.99,17.45 -2.25,4.37 -6.34,6.83 -10.46,6.76 2.2,-1.13 4.13,-3.02 5.44,-5.56 3.22,-6.26 1.43,-14.07 -3.99,-17.45 -1.64,-1.02 -3.43,-1.52 -5.21,-1.54z"/>
    <circle id="_123939248" class="fil5" transform="matrix(-0.0528657 -0.9268 0.571231 -0.0677867 102.861 373.214)" r="11.13"/>
   </g>
   <g>
    <path id="_123939464_5" class="fil4" d="M335.94 407.52c0.75,7.86 8.02,12.92 16.25,11.3 8.23,-1.61 14.29,-9.29 13.54,-17.14 -0.75,-7.86 -8.02,-11.81 -16.25,-10.19 -8.23,1.61 -14.3,8.18 -13.55,16.03z"/>
    <circle id="_123939392_6" class="fil1" transform="matrix(-1.12243 0.229534 -0.125156 -1.03235 348.841 402.952)" r="11.13"/>
    <path id="_123939320_7" class="fil2" d="M343.16 412.55c-2.95,-1.32 -5.08,-3.95 -5.49,-7.32 -0.69,-5.67 3.76,-11.3 9.93,-12.56 4.3,-0.88 8.31,0.6 10.57,3.5 -2.02,-0.9 -4.42,-1.19 -6.92,-0.67 -6.17,1.26 -10.61,6.88 -9.93,12.56 0.21,1.71 0.86,3.24 1.84,4.49z"/>
    <circle id="_123939248_8" class="fil5" transform="matrix(-0.616321 0.55606 -0.367261 -0.360146 351.862 405.936)" r="11.13"/>
   </g>
   <circle class="fil1" cx="146.89" cy="363.49" r="8.76"/>
   <circle class="fil1" transform="matrix(0.727388 -0 -0.283674 0.727388 137.599 380.05)" r="6.89"/>
   <path class="fil1" d="M269.25 421.02c0,4.21 -3.41,7.62 -7.62,7.62 -4.21,0 -9.37,-4.14 -9.37,-8.34 0,-7.97 16.99,-8.36 16.99,0.73zm-60.58 -18.98c3.07,0 5.56,2.49 5.56,5.56 0,3.07 -2.49,5.56 -5.56,5.56 -7.21,0 -5.73,-11.12 0,-11.12zm18.92 -12.94c-1.68,5.8 -7.02,10.04 -13.36,10.04 -4.03,0 -7.66,-1.71 -10.2,-4.45 -0.57,8.23 -7.43,14.73 -15.8,14.73 -8.75,0 -15.84,-7.09 -15.84,-15.84 0,-1.55 0.22,-3.06 0.64,-4.47l54.55 0zm25.03 9.13c-0.34,0.04 -0.68,0.06 -1.02,0.06 -4.87,0 -8.83,-3.95 -8.83,-8.83 0,-0.12 0,-0.24 0.01,-0.36l55.1 0c-0.63,12.59 -11.04,22.61 -23.79,22.61 -9.45,0 -17.62,-5.5 -21.47,-13.48z"/>
   <g>
    <circle id="_123939848_9" class="fil4" transform="matrix(1.37123 0.0364318 -0.0364318 1.37123 308.117 413.74)" r="7.95"/>
    <circle id="_123939776_10" class="fil1" transform="matrix(1.37123 0.0364318 -0.0364318 1.37123 310.189 415.407)" r="6.51"/>
    <path id="_123939704_11" class="fil2" d="M315.13 409.13c1.91,1.51 3.11,3.87 3.04,6.49 -0.12,4.41 -3.79,7.89 -8.2,7.78 -3.08,-0.08 -5.7,-1.9 -6.97,-4.48 1.31,1.03 2.94,1.66 4.73,1.71 4.41,0.12 8.08,-3.36 8.2,-7.78 0.04,-1.33 -0.26,-2.6 -0.81,-3.72z"/>
    <circle id="_123939632_12" class="fil5" transform="matrix(0.485783 -0.313582 0.217036 0.336222 308.405 412.625)" r="11.13"/>
   </g>
   <g>
    <path id="_118813440" class="fil3" d="M163.95 390.79c0,0 39.11,-8.23 76.16,-9.67 37.05,-1.44 67.72,9.06 67.72,9.06 0,0 -97.56,-1.23 -143.87,0.62z"/>
    <path id="_123959696" class="fil4" d="M166.99 391.61c0,0 -3.29,-18.26 11.41,-26.95 1.25,-0.74 4.75,-1.6 5.51,0.18 1.73,4.07 8.25,17.78 22.24,24.87l-17.13 0.94c0,0 -21.91,0.95 -22.02,0.95z"/>
    <path id="_123959744" class="fil4" d="M190.72 386.79c0,0 9.62,-15.6 16.37,-16.51 6.74,-0.9 19.45,17.17 19.45,17.17 0,0 -25.3,4.32 -35.81,-0.66z"/>
    <path id="_123927536" class="fil4" d="M214.7 387.12c0,0 9.06,-15.07 13.56,-14.34 4.5,0.74 10.54,8.99 13.61,14.18 3.07,5.18 -26.43,2.99 -27.17,0.16z"/>
    <path id="_123927584" class="fil4" d="M304.68 390.75c0,0 3.23,-21.62 -14.48,-31.79 -1.85,-1.06 -3.36,-0.38 -4.09,1.33 -2.81,4.66 -9.03,19.7 -23.67,27.82l16.2 1.54c0,0 25.9,1.09 26.04,1.09z"/>
    <path id="_123959912" class="fil4" d="M277.56 388.47c0,0 -9.07,-15.94 -15.5,-17.25 -6.43,-1.31 -17.89,16.34 -17.89,16.34 0,0 22.88,5.89 33.39,0.91z"/>
    <path id="_123927728" class="fil6" d="M299.4 388.97c0.74,-4.96 0.05,-20.1 -10.33,-24.4 -6.35,17.28 -17.28,22.7 -17.97,23.05l9.66 0.54c0,0 18.55,0.81 18.65,0.81zm-127.36 0.13c-0.6,-4 -0.04,-16.2 8.33,-19.66 5.12,13.93 13.93,18.29 14.49,18.58l-7.78 0.44c0,0 -14.95,0.65 -15.03,0.65zm25.71 -2.51c0,0 5.6,-10.26 9.42,-11.23 3.82,-0.97 11.87,11.71 11.87,11.71 0,0 -13.57,3.18 -21.29,-0.48zm22.13 0.09c0,0 5.2,-9.86 7.53,-9.24 2.32,0.62 4.97,5.03 6.9,8.44 1.94,3.41 -13.97,2.65 -14.43,0.79zm51.12 0.68c0,0 -5.77,-10.06 -9.24,-10.94 -3.47,-0.88 -10.93,10.33 -10.93,10.33 0,0 13.15,3.93 20.17,0.6z"/>
    <path id="_123927824" class="fil7" d="M299.4 388.97c0.32,-2.11 0.37,-6.05 -0.47,-10.22 -7.47,5.55 -15.91,5.39 -21.6,4.31 -3.32,3.12 -5.91,4.41 -6.24,4.57l9.66 0.54c0,0 18.55,0.81 18.65,0.81zm-127.31 -6.09c3.06,1.45 9.03,3.29 16.85,0.58 3.08,3.14 5.62,4.4 5.91,4.55l-7.78 0.44c0,0 -14.95,0.65 -15.03,0.65 -0.2,-1.35 -0.27,-3.64 0.05,-6.21zm26.92 1.55c5.31,0.68 12.16,0.95 17.59,-0.91 1.45,1.99 2.45,3.55 2.45,3.55 0,0 -13.57,3.18 -21.29,-0.48 0,0 0.48,-0.88 1.26,-2.16zm22.65 -0.86c2.36,0.63 6.19,1.11 11.25,-0.08 0.49,0.81 0.96,1.62 1.4,2.39 1.94,3.41 -13.97,2.65 -14.43,0.79 0,0 0.74,-1.4 1.78,-3.1zm30.8 0.89c5.01,0.25 10.84,-0.04 15.46,-1.92 1.76,2.5 3.09,4.81 3.09,4.81 -7.01,3.32 -20.17,-0.6 -20.17,-0.6 0,0 0.64,-0.96 1.63,-2.29z"/>
    <path id="_123944504" class="fil4" d="M309.44 391.76c-0.57,-5.35 -65.81,-5.64 -75.52,-5.5 -34.64,0.5 -70.36,1.93 -70.3,5.39 0.01,0.46 126.09,-0.74 145.81,0.11z"/>
   </g>
   <circle class="fil2" transform="matrix(1 -0 -0.209126 1 347.859 369.63)" r="6.17"/>
   <circle class="fil5" cx="153.84" cy="362.37" r="4.11"/>
   <circle class="fil5" transform="matrix(0.544389 0.205938 -0.259325 0.685516 299.845 427.529)" r="4.11"/>
   <circle class="fil5" transform="matrix(0.815538 0.687204 -0.865354 1.02696 290.906 429.552)" r="4.11"/>
   <circle class="fil1" transform="matrix(-0.0329878 0.586796 -0.9256 -0.11751 350.72 386.342)" r="4.11"/>
  </g>
 </g>
</svg>
