<?xml version="1.0" encoding="UTF-8"?>
<!DOCTYPE svg PUBLIC "-//W3C//DTD SVG 1.1//EN" "http://www.w3.org/Graphics/SVG/1.1/DTD/svg11.dtd">
<!-- Creator: CorelDRAW 2020 (64-Bit) -->
<svg xmlns="http://www.w3.org/2000/svg" xml:space="preserve" width="129.436mm" height="197.988mm" version="1.1" style="shape-rendering:geometricPrecision; text-rendering:geometricPrecision; image-rendering:optimizeQuality; fill-rule:evenodd; clip-rule:evenodd"
viewBox="0 0 432.58 661.69"
 xmlns:xlink="http://www.w3.org/1999/xlink"
 xmlns:xodm="http://www.corel.com/coreldraw/odm/2003">
 <defs>
  <style type="text/css">
   <![CDATA[
    .fil9 {fill:none}
    .fil1 {fill:#343546}
    .fil3 {fill:#501D33}
    .fil0 {fill:#51645C}
    .fil2 {fill:#8E7A5D}
    .fil6 {fill:#C3926B}
    .fil7 {fill:#C3C077}
    .fil4 {fill:#EDDC93}
    .fil8 {fill:#EEF698}
    .fil5 {fill:white}
   ]]>
  </style>
 </defs>
 <g id="Слой_x0020_1">
  <metadata id="CorelCorpID_0Corel-Layer"/>
  <g id="_2674607128768">
   <g>
    <path class="fil0" d="M194.29 415.62c-9.57,-7.77 -10.42,-25.54 4.12,-30.9 1.17,-0.43 2.42,-0.73 3.71,-0.72 2.44,-0.08 5.35,0.73 7.19,4.31l-0.01 0.01c3.54,5.63 -1.46,12.1 -5.26,12.02 -6.01,-0.14 -6.51,-5.15 -3.8,-7.39 1.22,-1.01 2.87,-1.64 4.34,-2.05 -5.02,-3.1 -12.12,1.34 -11.59,7.81 -0.02,2.18 1.12,5.67 3.02,7.52 6.82,6.65 14.48,6.5 21.03,0.35 4.66,6.97 24.74,8.03 24.6,-7.82 -0.05,-5.59 -7.73,-11.69 -11.87,-7.78 0.2,0.06 0.39,0.11 0.59,0.17l0 0.08c0.03,-0.01 0.06,-0.03 0.1,-0.05 1.2,0.38 2.29,0.86 3.38,1.76 2.71,2.24 2.21,7.25 -3.8,7.39 -4.07,0.1 -9.53,-7.35 -4.36,-13.22 2.6,-2.96 6.08,-3.83 9.98,-2.39 17.37,6.41 12.78,23.17 4.35,30.48 6.8,-1.41 13.59,-3.41 20.39,-6.01 -1.34,-4.77 -1.41,-9.82 -0.55,-13.02 1.19,-4.45 1.65,-5.64 5,-9.99 4.13,-5.36 7.35,-5.88 10.19,-7.78 -1.35,-1.37 -5.93,-0.89 -7.87,-0.63 -9.25,1.22 -10.7,7.05 -13.93,6.39 -6.96,-1.42 3.73,-16.08 16.2,-15.9 1.03,0.02 2.89,0.26 3.62,0.06 -0.59,-1.38 -5.05,-2.75 -6.79,-3.07 -16.96,-3.12 -22.88,8.6 -26.63,6.35 -2.27,-1.37 -7.78,-7.31 -16.12,-5.58 -1.99,0.41 -4.88,1.31 -6.47,2.9 -1.59,-1.59 -4.48,-2.48 -6.47,-2.9 -8.33,-1.73 -13.4,4.21 -15.67,5.58 -7.17,4.31 -9.95,-1.13 -6.6,-2.97 1.62,-0.89 0.77,0.49 2.47,-1.55 -2.75,-1.59 -4.9,-0.16 -7.52,0.32 -3.99,0.73 -5.44,-3.37 -13.99,-1.82 -1.74,0.32 -6.2,1.69 -6.79,3.07 0.73,0.2 2.59,-0.05 3.62,-0.06 12.47,-0.19 21.72,14.14 14.76,15.56 -3.24,0.66 -4.69,-5.17 -13.94,-6.39 -1.94,-0.26 -6.52,-0.74 -7.87,0.63 2.83,1.9 6.06,2.42 10.19,7.78 3.35,4.35 3.82,5.54 5,9.99 0.89,3.33 0.78,8.67 -0.73,13.61 6.95,2.58 13.88,4.52 20.8,5.83zm88.82 -17.28c-3.59,0.29 -6.52,1.52 -7,3.8 2.33,-1.2 4.66,-2.47 7,-3.8zm-66.06 -21.92c-3.27,-0.02 -6.17,-0.17 -7.58,-2.22 1.05,-4.36 4.57,-4.67 6.86,-4.37 -0.06,0.1 -0.11,0.21 -0.16,0.32 0.23,-0.06 0.52,-0.14 0.87,-0.2 0.34,0.07 0.64,0.14 0.86,0.2 -0.05,-0.11 -0.1,-0.21 -0.16,-0.32 2.29,-0.29 5.81,0.01 6.86,4.37 -1.41,2.03 -4.28,2.19 -7.53,2.22z"/>
    <g>
     <path class="fil0" d="M96.38 349.26c2.79,-19.55 23.32,-31.73 39.71,-13.29 2.53,3.13 4.22,7.32 1.15,12.64 -4.83,8.38 -15.71,4.93 -17.21,0.12 -2.21,-7.09 3.45,-9.66 7.15,-7.37 1.88,1.16 2.97,2.59 4.12,4.28 2.25,-4.49 -4.92,-13.38 -13.73,-10.49 -2.56,0.84 -6.2,3.55 -7.62,6.52 -3.29,6.86 0.86,7.23 -0.77,11.73 -5.18,-1.69 -6.11,-7.07 -6.53,-8.73 -5.39,9.95 10.44,24.89 22.28,21.84 3.59,-0.93 4.65,-1.56 7.71,-2.93 5.48,-2.45 10.41,-1.53 12.72,1.55 0.82,1.09 1.3,2.45 1.37,4.03 -0.13,4.73 -3.57,6.1 -5.6,6.8 2.74,3.15 15.66,-0.95 14.33,-12.97 -0.77,-6.95 -5.77,-14.02 -2.65,-18.22 7.09,-0.64 7.97,6.14 8.09,8.26 2.35,-2.18 2.29,-7.14 1.92,-10.22 -1.27,-10.44 -10.24,-14.03 -12.74,-16.15 -7.08,-6.01 -4.89,-9.41 -1.23,-9.23 2.28,0.11 4.64,1.21 7.88,4.26 0.78,-3.84 -0.7,-7.68 -5.23,-10.94 -0.83,-6.04 0.51,-8.92 -4.7,-18.31 -1.06,-1.91 -4.44,-6.6 -6.28,-6.74 0.05,0.94 1.08,3.02 1.5,4.22 5.15,14.53 -7.79,32.85 -12.21,25.27 -2.06,-3.53 4.2,-7.54 1.97,-18.85 -0.47,-2.38 -1.72,-7.93 -3.86,-8.97 -1.1,4.07 -0.44,8.05 -5.08,15.01 -3.77,5.65 -4.98,6.66 -9.72,9.81 -3.44,2.29 -9.44,4.21 -15.62,4.51 -0.51,12.88 -0.98,26.04 -1.1,32.58zm1.4 -40.18c7.22,-1.11 16.99,-5.55 18.09,-15.67 0.28,-2.58 -0.91,-11.55 -3.54,-12.38 -0.09,3.31 -0.93,6.5 -4.91,7.47 -3.74,0.91 -6.65,0.32 -8.73,-1 -0.2,4.74 -0.54,12.75 -0.9,21.58z"/>
     <path class="fil0" d="M336.2 349.26c-2.8,-19.55 -23.32,-31.72 -39.71,-13.29 -2.53,3.13 -4.22,7.32 -1.15,12.64 4.83,8.38 15.71,4.93 17.21,0.12 2.21,-7.09 -3.45,-9.66 -7.15,-7.37 -1.88,1.16 -2.97,2.59 -4.12,4.28 -2.25,-4.49 4.92,-13.38 13.73,-10.49 2.56,0.84 6.2,3.55 7.62,6.52 3.29,6.86 -0.86,7.23 0.77,11.73 5.18,-1.69 6.11,-7.07 6.53,-8.73 5.39,9.95 -10.44,24.89 -22.28,21.84 -3.59,-0.93 -4.65,-1.56 -7.71,-2.93 -5.48,-2.45 -10.41,-1.53 -12.72,1.55 -0.82,1.09 -1.3,2.45 -1.37,4.03 0.13,4.73 3.57,6.1 5.6,6.8 -2.74,3.15 -15.66,-0.95 -14.33,-12.97 0.77,-6.95 5.77,-14.02 2.65,-18.22 -7.09,-0.64 -7.97,6.14 -8.09,8.26 -2.35,-2.18 -2.29,-7.14 -1.92,-10.22 1.27,-10.44 10.24,-14.03 12.74,-16.15 7.08,-6.01 4.89,-9.41 1.23,-9.23 -2.28,0.11 -4.64,1.21 -7.88,4.26 -0.78,-3.84 0.7,-7.68 5.23,-10.94 0.83,-6.04 -0.51,-8.92 4.7,-18.31 1.06,-1.91 4.44,-6.6 6.28,-6.74 -0.05,0.94 -1.08,3.02 -1.5,4.22 -5.15,14.53 7.79,32.85 12.21,25.27 2.06,-3.53 -4.2,-7.54 -1.97,-18.85 0.47,-2.38 1.72,-7.93 3.86,-8.97 1.1,4.07 0.44,8.05 5.08,15.01 3.77,5.65 4.98,6.66 9.72,9.81 3.44,2.29 9.44,4.21 15.62,4.51 0.51,12.88 0.98,26.04 1.1,32.58zm-1.4 -40.17c-7.22,-1.11 -16.99,-5.55 -18.09,-15.67 -0.28,-2.58 0.91,-11.55 3.54,-12.38 0.09,3.31 0.93,6.5 4.91,7.47 3.74,0.91 6.65,0.32 8.73,-1 0.2,4.74 0.54,12.75 0.9,21.58z"/>
    </g>
    <g>
     <path class="fil1" d="M96.38 349.26c2.74,-19.16 22.51,-31.24 38.73,-14.34 0.25,-7.91 0.11,-14.14 -0.83,-17.52 -0.07,-0.26 -0.16,-0.53 -0.26,-0.81 -1.65,0.72 -3.18,0.39 -4.23,-1.42 -0.87,-1.5 -0.25,-3.08 0.59,-5.27 -1.83,-2.73 -4.15,-5.75 -6.74,-8.84 -0.25,0.42 -0.53,0.85 -0.82,1.3 -3.77,5.65 -4.98,6.66 -9.72,9.81 -3.44,2.29 -9.44,4.21 -15.62,4.51l-0.02 0.6 -0.02 0.58 -0 0.03 -0.02 0.6 -0.02 0.6 -0.01 0.35 -0.01 0.25 -0.02 0.6 -0.02 0.6 -0.01 0.13 -0.02 0.47 -0.02 0.6 -0.02 0.51 -0 0.09 -0.02 0.6 -0.02 0.6 -0.18 4.72 -0.01 0.21c-0.31,8.43 -0.56,15.96 -0.63,20.42zm37.86 2.71c-5.34,3.78 -12.97,0.73 -14.21,-3.23 -2.21,-7.09 3.45,-9.66 7.15,-7.37 1.88,1.16 2.97,2.59 4.12,4.28 2.25,-4.49 -4.92,-13.38 -13.73,-10.49 -2.56,0.84 -6.2,3.55 -7.62,6.52 -3.29,6.86 0.86,7.23 -0.77,11.73 -5.18,-1.69 -6.11,-7.07 -6.53,-8.73 -5.39,9.95 10.44,24.89 22.28,21.84 3.59,-0.93 4.65,-1.56 7.71,-2.93 0.3,-0.13 0.6,-0.26 0.9,-0.37 0.25,-3.84 0.49,-7.6 0.72,-11.23zm-23.83 -65.08c1.82,1.76 3.67,3.62 5.49,5.54 0,0.38 -0.01,0.72 -0.04,0.98 -1.09,10.12 -10.87,14.56 -18.09,15.67l0.02 -0.41 0.01 -0.23 0.01 -0.18 0.02 -0.41 0.03 -0.82 0 -0.11 0.01 -0.3 0.02 -0.41 0.02 -0.4 0.02 -0.4 0 -0 0.02 -0.4 0.02 -0.4 0.03 -0.79 0.02 -0.39 0.02 -0.39 0.02 -0.39 0.01 -0.17 0.01 -0.22 0.02 -0.38 0.02 -0.38 0.02 -0.38 0 -0.06 0.01 -0.32 0.02 -0.38 0.02 -0.37 0.09 -2.18 0.01 -0.35 0.01 -0.35 0 -0.11 0.01 -0.24 0.01 -0.35 0.01 -0.34 0.01 -0.34 0 -0.01 0.01 -0.33 0.01 -0.33 0.04 -0.98 0.01 -0.32 0.01 -0.32 0.01 -0.15 0.01 -0.17 0.01 -0.31 0.01 -0.3 0.04 -0.89 0.01 -0.29 0.01 -0.26 0 -0.03 0.01 -0.28 0.01 -0.28 0.01 -0.27 0.01 -0.17 0 -0.1 0.01 -0.27 0.01 -0.26 0.01 -0.26 0 -0.09 0.01 -0.16 0.01 -0.25 0.01 -0.24 0.01 -0.24 0 -0.02 0.01 -0.22 0.01 -0.23 0.01 -0.22c2.08,1.32 4.99,1.92 8.73,1 1.31,-0.32 2.29,-0.88 3,-1.61z"/>
     <path class="fil1" d="M336.2 349.26c-2.77,-19.37 -22.95,-31.5 -39.26,-13.77 -0.19,-8.38 0.04,-15.04 0.99,-18.47 0.06,-0.21 0.13,-0.43 0.21,-0.64 1.82,0.98 3.53,0.75 4.67,-1.2 0.92,-1.57 0.18,-3.25 -0.72,-5.62 1.9,-2.59 4.29,-5.43 6.95,-8.36 0.23,0.38 0.48,0.76 0.74,1.16 3.77,5.65 4.98,6.66 9.72,9.81 3.44,2.29 9.44,4.21 15.62,4.51l0.09 2.42 0.01 0.35 0.01 0.25 0.02 0.6 0.02 0.6 0.01 0.13c0.11,2.77 0.21,5.51 0.31,8.17l0.02 0.58c0.06,1.7 0.12,3.37 0.18,4.97l0 0.06c0.09,2.52 0.17,4.9 0.23,7.06l0.01 0.46c0.05,1.82 0.1,3.48 0.13,4.93l0.01 0.36 0.03 1.34 0.01 0.31zm-38.55 2.17c5.35,4.58 13.61,1.45 14.91,-2.69 2.21,-7.09 -3.45,-9.66 -7.15,-7.37 -1.88,1.16 -2.97,2.59 -4.12,4.28 -2.25,-4.49 4.92,-13.38 13.73,-10.49 2.56,0.84 6.2,3.55 7.62,6.52 3.29,6.86 -0.86,7.23 0.77,11.73 5.18,-1.69 6.11,-7.07 6.53,-8.73 5.39,9.95 -10.44,24.89 -22.28,21.84 -3.59,-0.93 -4.65,-1.56 -7.71,-2.93 -0.52,-0.23 -1.03,-0.43 -1.53,-0.6 -0.29,-3.91 -0.55,-7.79 -0.78,-11.54zm19.05 -58.24c1.99,-2 4.01,-3.97 5.97,-5.85 0.65,0.52 1.47,0.92 2.51,1.17 3.74,0.91 6.65,0.32 8.73,-1l0.15 3.55 0 0.03 0.21 4.99 0.01 0.34 0.01 0.35 0.13 3.24 0.02 0.37 0.02 0.37 0.01 0.32 0.03 0.82 0.02 0.38 0.01 0.22 0.01 0.17 0.02 0.39 0.02 0.39 0.02 0.39 0.03 0.79 0.02 0.4 0.02 0.4 0 0 0.02 0.4 0.02 0.4 0.02 0.41 0.01 0.3 0 0.11 0.03 0.82 0.02 0.41 0.01 0.18 0.01 0.23 0.02 0.41c-7.22,-1.11 -16.99,-5.55 -18.09,-15.67 -0.01,-0.07 -0.01,-0.15 -0.02,-0.23z"/>
    </g>
    <path id="_118827744" class="fil2" d="M162.38 367.7c0,0 68.93,-27.25 78.05,-28.1 9.12,-0.85 34.82,12.32 34.82,12.32l-26.38 -4.93c0,0 -76.21,17.46 -86.48,20.72z"/>
    <g>
     <path id="_118827672" class="fil3" d="M248.32 350.41c2.14,-4.99 10.65,-21.62 6.18,-34.19 -0.57,-2.15 1.85,-1.31 3.24,-0.87 1.73,0.54 3.61,1.28 4.35,1.63 8.53,4.1 18.91,15.6 14.51,37.35 -2.72,0.91 -8.61,3.1 -14.73,2.59 -4.56,-0.38 -10.53,-2.92 -13.55,-6.5z"/>
     <path id="_118827600" class="fil4" d="M253.28 349.62c1.8,-4.18 7.8,-18.66 4.99,-29.78 -0.1,-0.9 -0.24,-1.14 0.88,-0.58 17.42,8.65 15.2,27.67 14.08,33.23 -3.98,1.34 -11.54,3.96 -19.94,-2.87z"/>
     <path id="_118827528" class="fil5" d="M253.28 349.62c1.8,-4.18 7.8,-18.66 4.99,-29.78 -0.04,-0.35 -0.08,-0.6 -0.06,-0.74 1.3,3.13 6.95,18.76 -4.92,30.53l-0.01 -0.01z"/>
     <path id="_118827456" class="fil6" d="M259.41 319.87c0,0 17.07,9.72 12.88,32.03 0,0 -5.51,2.68 -12.75,0.23 0,0 11.93,-14.12 -0.12,-32.25z"/>
     <path id="_118827384" class="fil3" d="M257.32 318.13c0,0 7.04,8.03 7.57,19.86 0,0 3.31,-10.73 -3.99,-19.7l-2.39 -1.31 -1.19 1.14z"/>
    </g>
    <g>
     <path id="_118827288" class="fil3" d="M197.94 359.35c-3.32,-5.3 -15.93,-22.72 -13.05,-37.8 0.27,-2.54 -2.34,-1.16 -3.85,-0.42 -1.88,0.92 -3.88,2.09 -4.66,2.62 -8.98,6.17 -18.76,21.08 -9.92,45.04 3.26,0.56 10.34,2.01 17.22,0.35 5.11,-1.24 11.47,-5.18 14.27,-9.79z"/>
     <path id="_118827216" class="fil4" d="M192.17 359.32c-2.78,-4.44 -12.16,-19.85 -10.92,-33 -0.05,-1.04 0.07,-1.34 -1.1,-0.51 -18.3,12.91 -12.42,34.16 -10.16,40.29 4.77,0.82 13.82,2.47 22.18,-6.78z"/>
     <path id="_118827144" class="fil5" d="M192.17 359.32c-2.78,-4.44 -12.16,-19.85 -10.92,-33 -0.02,-0.4 -0.01,-0.69 -0.07,-0.85 -0.93,3.79 -4.6,22.57 10.98,33.86l0.01 -0.01z"/>
     <path id="_118827072" class="fil6" d="M179.94 326.55c0,0 -17.7,14.07 -9,38.7 0,0 6.74,2.08 14.55,-1.99 0,0 -16.06,-13.96 -5.55,-36.71z"/>
     <path id="_118827000" class="fil3" d="M182.01 324.21c0,0 -6.6,10.38 -5.11,23.93 0,0 -5.66,-11.63 1.06,-23.11l2.49 -1.91 1.56 1.09z"/>
    </g>
    <path id="_269463392" class="fil7" d="M162.91 368.86c0,0 63.39,-19.17 89.31,-21.87l25.86 6.5c-13.63,11.31 -41.72,17.81 -65.07,19.19 -20.04,1.19 -37.02,0.49 -50.1,-3.82z"/>
    <path id="_123359784" class="fil3" d="M163.2 367.52c16.59,-7.26 70.41,-21.89 88.66,-23.09l25.55 6.78 1.59 2.92 -25.35 -3.56c0,0 -28.71,2.8 -89.01,18.79 -2.77,0.73 -5.66,0 -1.44,-1.84z"/>
    <polygon id="_123360096" class="fil2" points="207.5,352.39 194.8,328.85 216.36,348.81 "/>
    <path id="_123360240" class="fil8" d="M171.57 369.57c0,0 77.06,-18.64 82.48,-16.99 5.42,1.65 -45.69,15.61 -82.48,16.99z"/>
    <path id="_118827816" class="fil7" d="M192.8 373.06c28.46,12.19 20.89,10.89 49.69,-1.31 0,0 -15.78,-5.05 -21.23,-4.85 -5.45,0.2 -28.46,6.16 -28.46,6.16z"/>
    <path id="_123359448" class="fil3" d="M192.34 373.3c0,0 22.29,-4.57 50.28,-1.48 0,0 -8.72,-8.12 -23.94,-7.36 -15.23,0.76 -26.33,8.84 -26.33,8.84z"/>
   </g>
   <rect id="_283858840" class="fil9" y="0" width="432.58" height="661.69"/>
  </g>
 </g>
</svg>
