<?xml version="1.0" encoding="UTF-8"?>
<!DOCTYPE svg PUBLIC "-//W3C//DTD SVG 1.1//EN" "http://www.w3.org/Graphics/SVG/1.1/DTD/svg11.dtd">
<!-- Creator: CorelDRAW 2020 (64-Bit) -->
<svg xmlns="http://www.w3.org/2000/svg" xml:space="preserve" width="129.436mm" height="197.988mm" version="1.1" style="shape-rendering:geometricPrecision; text-rendering:geometricPrecision; image-rendering:optimizeQuality; fill-rule:evenodd; clip-rule:evenodd"
viewBox="0 0 4484.83 6860.09"
 xmlns:xlink="http://www.w3.org/1999/xlink"
 xmlns:xodm="http://www.corel.com/coreldraw/odm/2003">
 <defs>
  <style type="text/css">
   <![CDATA[
    .fil0 {fill:none}
    .fil7 {fill:#4B3446}
    .fil2 {fill:#501D33}
    .fil6 {fill:#634C54}
    .fil3 {fill:#8E7A5D}
    .fil5 {fill:#C3926B}
    .fil1 {fill:#C3C077}
    .fil4 {fill:#EDDC93}
    .fil8 {fill:#EEF698}
   ]]>
  </style>
 </defs>
 <g id="Слой_x0020_1">
  <metadata id="CorelCorpID_0Corel-Layer"/>
  <g id="_1746374763696">
   <g id="_119110808">
    <rect id="_281779168" class="fil0" width="4484.83" height="6860.09"/>
    <polygon id="_118817952" class="fil1" points="3011.03,3303.83 3208.06,3586.68 3451.91,3742.75 3424.59,3660.82 "/>
    <path id="_118817880" class="fil2" d="M3157.64 3614.68c0.69,7.23 120.05,-15 157.21,-32.06 37.17,-17.06 120.03,-87.72 112.13,-90.31 0,0 -65.61,-9.45 -143.07,20.31 -21.93,8.42 -127.63,83.36 -126.27,102.06z"/>
    <path id="_118817808" class="fil2" d="M3160.45 3298.62c-2.96,-4.34 -70.85,51.34 -88.46,75.09 -17.61,23.76 -45.51,97.42 -39.6,96.3 0,0 44.88,-16.88 83.6,-62.72 10.96,-12.98 51.84,-97.3 44.46,-108.68z"/>
    <path id="_118813440" class="fil3" d="M1553.83 3703.72c0,0 370.64,-78.03 721.77,-91.68 351.13,-13.66 641.79,85.83 641.79,85.83 0,0 -924.65,-11.7 -1363.57,5.85z"/>
    <path id="_118813368" class="fil3" d="M1868.55 3892.19c0,8.76 -46.73,253.15 -136.31,323.25l931 60.08 80.55 -31.44c0,0 -89.73,-148.26 -95.59,-312.12 0,0 -300.41,-91.68 -310.17,-91.68 -9.75,0 -241.89,-19.51 -469.48,51.91z"/>
    <path id="_118813296" class="fil3" d="M1793.77 3914.4c0,0 269.21,-142.4 468.18,-138.5 198.97,3.9 429.16,179.47 429.16,179.47 0,0 -407.7,-101.44 -897.34,-40.97z"/>
    <path id="_123959696" class="fil2" d="M1582.63 3711.45c0,0 -31.18,-173.06 108.14,-255.39 11.87,-7.01 45.06,-15.16 52.25,1.72 16.43,38.53 78.21,168.48 210.74,235.74l-162.39 8.91c0,0 -207.61,9.03 -208.74,9.03z"/>
    <path id="_123959744" class="fil2" d="M1807.57 3665.81c0,0 91.22,-147.87 155.11,-156.43 63.89,-8.56 184.31,162.72 184.31,162.72 0,0 -239.81,40.92 -339.42,-6.29z"/>
    <path id="_123927536" class="fil2" d="M2034.85 3668.9c0,0 85.86,-142.85 128.53,-135.86 42.67,6.99 99.88,85.23 128.94,134.36 29.07,49.13 -250.5,28.3 -257.48,1.5z"/>
    <path id="_123927584" class="fil2" d="M2887.63 3703.37c0,0 30.6,-204.91 -137.26,-301.25 -17.51,-10.05 -31.88,-3.57 -38.79,12.65 -26.65,44.13 -85.57,186.69 -224.3,263.69l153.55 14.58c0,0 245.51,10.34 246.8,10.34z"/>
    <path id="_123959912" class="fil2" d="M2630.61 3681.71c0,0 -85.92,-151.04 -146.89,-163.49 -60.97,-12.45 -169.6,154.86 -169.6,154.86 0,0 216.88,55.83 316.48,8.62z"/>
    <path id="_123927728" class="fil4" d="M2837.54 3686.46c7.03,-47.02 0.43,-190.53 -97.9,-231.22 -60.15,163.79 -163.78,215.13 -170.35,218.46l91.51 5.11c0,0 175.79,7.65 176.74,7.65zm-1207.09 1.2c-5.67,-37.9 -0.35,-153.56 78.9,-186.36 48.48,132.01 132.01,173.38 137.3,176.07l-73.76 4.13c0,0 -141.68,6.15 -142.45,6.15zm243.7 -23.81c0,0 53.03,-97.28 89.27,-106.43 36.24,-9.16 112.54,111.01 112.54,111.01 0,0 -128.57,30.15 -201.81,-4.57zm209.72 0.83c0,0 49.32,-93.42 71.34,-87.54 22.03,5.87 47.07,47.72 65.43,80.02 18.35,32.3 -132.37,25.15 -136.77,7.53zm484.52 6.44c0,0 -54.71,-95.34 -87.6,-103.66 -32.9,-8.3 -103.55,97.93 -103.55,97.93 0,0 124.67,37.23 191.15,5.73z"/>
    <path id="_123927824" class="fil5" d="M2837.54 3686.46c2.99,-19.98 3.51,-57.37 -4.41,-96.9 -70.75,52.61 -150.77,51.04 -204.71,40.81 -31.44,29.56 -56.04,41.76 -59.14,43.33l91.51 5.11c0,0 175.79,7.65 176.74,7.65zm-1206.62 -57.7c29.01,13.78 85.6,31.14 159.74,5.52 29.23,29.78 53.24,41.7 56,43.1l-73.76 4.13c0,0 -141.68,6.15 -142.45,6.15 -1.92,-12.81 -2.56,-34.51 0.46,-58.9zm255.17 14.66c50.34,6.45 115.29,8.99 166.69,-8.63 13.78,18.83 23.18,33.63 23.18,33.63 0,0 -128.57,30.15 -201.81,-4.57 0,0 4.58,-8.37 11.94,-20.43zm214.66 -8.15c22.37,5.98 58.7,10.52 106.67,-0.74 4.67,7.69 9.12,15.39 13.23,22.63 18.35,32.3 -132.37,25.15 -136.77,7.53 0,0 6.99,-13.23 16.87,-29.41zm291.9 8.43c47.49,2.37 102.7,-0.38 146.48,-18.19 16.71,23.72 29.27,45.61 29.27,45.61 -66.47,31.5 -191.15,-5.73 -191.15,-5.73 0,0 6.04,-9.07 15.4,-21.69z"/>
    <path id="_123944072" class="fil2" d="M1898.74 3882.21c0,0 23.41,185.32 -39.01,319.92l-101.44 29.26c0,0 105.34,-169.71 140.45,-349.18z"/>
    <path id="_123944168" class="fil2" d="M1971.25 3890.05c0,0 -126.47,245.81 -249.4,335.53 0,0 76.07,145.35 85.82,317.01 0,0 44.87,0 119,-40.97 0,0 25.36,156.06 161.91,218.48 0,0 50.72,-89.73 93.64,-146.31 0,0 25.36,40.97 37.06,202.88 0,0 130.7,-46.82 208.73,-183.37 0,0 21.46,62.42 91.68,91.68 0,0 19.51,-138.5 120.95,-261.4 0,0 -3.9,46.82 56.57,99.49 0,0 39.97,-141.45 78.97,-279.96 0,0 -201.86,-151.15 -244.78,-326.72 0,0 -54.62,29.26 -74.13,78.03 0,0 -56.57,-50.72 -72.18,-197.02 0,0 -57.69,14.62 -97.61,96.41 0,0 -31.16,-53.55 -98.34,-91.52 0,0 -2.92,49.66 -44.79,118.78 0,0 -14.6,-39.92 -60.37,-77.89 0,0 -17.53,73.02 -57.44,116.84 0,0 -17.46,-48.14 -55.3,-69.97z"/>
    <path id="_123944288" class="fil2" d="M2585.41 4424.43c0,0 -37.97,146.05 11.68,218.09 0,0 -7.79,-90.55 70.1,-206.41l-6.82 -31.16c0,0 -70.1,18.5 -74.97,19.47z"/>
    <path id="_123944384" class="fil2" d="M1887.31 4474.09c0,0 33.1,83.73 7.79,190.83 0,0 66.21,-37 73.02,-151.89 6.82,-114.89 -49.66,-70.1 -80.81,-38.95z"/>
    <path id="_123944504" class="fil2" d="M2932.68 3712.91c-5.37,-50.7 -623.72,-53.48 -715.7,-52.15 -328.28,4.75 -666.88,18.34 -666.23,51.11 0.09,4.33 1195.03,-7.04 1381.93,1.04z"/>
    <path id="_123944600" class="fil6" d="M1803.53 4230.42c0,0 60.47,144.35 56.57,237.99 0,0 85.83,-19.51 158.01,-113.14 0,0 5.25,70.47 -46.35,125 0,0 28.8,105.19 95.12,140.3 0,0 58.52,-103.39 130.7,-154.11 0,0 54.62,85.83 74.13,216.53 0,0 117.04,-85.83 169.71,-253.6 0,0 -5.85,89.73 48.77,165.81 0,0 19.51,-148.26 142.4,-247.74l35.13 48.78 33.11 -128.72c0,0 -148.22,-115.12 -183.33,-234.12 0,0 -31.21,29.26 -42.92,93.64 0,0 -109.24,-95.59 -124.85,-232.14 0,0 -40.13,47.92 -50.84,146.26 0,0 -27.26,-49.66 -22.39,-91.52 0,0 -15.58,-16.55 -66.21,-65.23 0,0 -19.47,90.55 -86.65,149.94 0,0 -5.84,-49.66 -34.08,-106.13 0,0 -14.6,71.08 -64.26,111.97l-37.97 -52.58c-42.87,104.09 -91.22,171.39 -183.81,242.82z"/>
    <path id="_123944720" class="fil7" d="M1804.6 4233.05c8.12,19.98 59.09,149.16 55.49,235.35 0,0 85.83,-19.51 158.01,-113.14 0,0 5.25,70.47 -46.35,125 0,0 28.8,105.19 95.12,140.3 0,0 58.52,-103.39 130.7,-154.11 0,0 54.62,85.83 74.13,216.53 0,0 117.04,-85.83 169.71,-253.6 0,0 -5.85,89.73 48.77,165.81 0,0 19.51,-148.26 142.4,-247.74l35.13 48.78 33.11 -128.72 -1.89 -1.5c-175.2,68.17 -226.31,163.38 -226.31,163.38 -11.7,-119 -78.03,-179.47 -78.03,-179.47 -11.7,136.55 -89.73,226.29 -89.73,226.29 -11.7,-169.71 -89.73,-263.35 -89.73,-263.35 -35.11,107.29 -136.55,183.37 -136.55,183.37 5.85,-167.76 -40.97,-257.5 -40.97,-257.5 -87.56,72.27 -184.5,90.06 -233.01,94.32z"/>
    <path id="_123944816" class="fil2" d="M2595.52 3887.09c0,0 -23.41,185.32 39.01,319.92l101.44 29.26c0,0 -105.34,-169.71 -140.45,-349.18z"/>
    <path id="_123944936" class="fil8" d="M1585.04 3736.9c0,0 105.34,97.54 159.96,109.24 54.62,11.7 294.56,-95.59 294.56,-95.59 0,0 -448.67,-11.7 -454.52,-13.66z"/>
    <path id="_123945032" class="fil8" d="M2900.21 3736.9c0,0 -105.34,97.54 -159.96,109.24 -54.62,11.7 -294.56,-95.59 -294.56,-95.59 0,0 448.67,-11.7 454.52,-13.66z"/>
    <path id="_123945152" class="fil7" d="M2541.33 4204.72c0,7.79 -78.86,85.68 -80.81,225.88l56.47 30.18c0,0 -19.47,-119.76 24.34,-256.07z"/>
    <path id="_123945248" class="fil6" d="M2026.91 4084.14c-7.8,13.66 -50.72,152.16 -140.45,269.2 0,0 171.67,-83.88 197.02,-212.63 25.36,-128.75 -60.47,-58.52 -56.57,-56.57z"/>
    <path id="_123949064" class="fil2" d="M3492.99 3787.45l-525.95 -515.71c230.25,155.02 372.99,301.07 572.65,433.93 0,0 -44.87,78.03 -46.69,81.77z"/>
   </g>
  </g>
 </g>
</svg>
