<?xml version="1.0" encoding="UTF-8"?>
<!DOCTYPE svg PUBLIC "-//W3C//DTD SVG 1.1//EN" "http://www.w3.org/Graphics/SVG/1.1/DTD/svg11.dtd">
<!-- Creator: CorelDRAW 2020 (64-Bit) -->
<svg xmlns="http://www.w3.org/2000/svg" xml:space="preserve" width="129.436mm" height="197.988mm" version="1.1" style="shape-rendering:geometricPrecision; text-rendering:geometricPrecision; image-rendering:optimizeQuality; fill-rule:evenodd; clip-rule:evenodd"
viewBox="0 0 4544.68 6951.64"
 xmlns:xlink="http://www.w3.org/1999/xlink"
 xmlns:xodm="http://www.corel.com/coreldraw/odm/2003">
 <defs>
  <style type="text/css">
   <![CDATA[
    .fil0 {fill:none}
    .fil1 {fill:#501D33}
   ]]>
  </style>
 </defs>
 <g id="Слой_x0020_1">
  <metadata id="CorelCorpID_0Corel-Layer"/>
  <rect id="_166536576" class="fil0" width="4544.68" height="6951.64"/>
  <g id="_799746448">
   <g>
    <path class="fil1" d="M1526.89 2260.25c106.23,-47.73 322.99,-114.27 492.82,34.23 80.68,-65.56 119.46,-196.21 75.95,-213.18 -12.96,-5.05 -30.27,-8.82 -61.09,10.85 -15.72,-269.68 -403.27,-102.64 -539.59,143.92 -20.91,37.82 -10.64,43.3 31.91,24.18z"/>
   </g>
   <g>
    <path class="fil1" d="M3017.79 2325.49c-106.23,-46.6 -322.99,-111.58 -492.82,33.42 -80.68,-64.02 -119.46,-191.59 -75.95,-208.15 12.96,-4.93 30.27,-8.62 61.09,10.59 15.72,-263.32 403.27,-100.22 539.59,140.53 20.91,36.93 10.64,42.28 -31.91,23.61z"/>
   </g>
  </g>
 </g>
</svg>
