<?xml version="1.0" encoding="UTF-8"?>
<!DOCTYPE svg PUBLIC "-//W3C//DTD SVG 1.1//EN" "http://www.w3.org/Graphics/SVG/1.1/DTD/svg11.dtd">
<!-- Creator: CorelDRAW 2020 (64-Bit) -->
<svg xmlns="http://www.w3.org/2000/svg" xml:space="preserve" width="129.436mm" height="197.988mm" version="1.1" style="shape-rendering:geometricPrecision; text-rendering:geometricPrecision; image-rendering:optimizeQuality; fill-rule:evenodd; clip-rule:evenodd"
viewBox="0 0 772.54 1181.7"
 xmlns:xlink="http://www.w3.org/1999/xlink"
 xmlns:xodm="http://www.corel.com/coreldraw/odm/2003">
 <defs>
  <style type="text/css">
   <![CDATA[
    .fil0 {fill:none}
    .fil1 {fill:#501D33}
   ]]>
  </style>
 </defs>
 <g id="Слой_x0020_1">
  <metadata id="CorelCorpID_0Corel-Layer"/>
  <rect id="_166536576" class="fil0" width="772.54" height="1181.7"/>
  <g id="_900905120">
   <path class="fil1" d="M409.52 409.9c0,0 63.99,-17.57 77.27,-17.01 13.28,0.56 49.91,5 49.91,5 0,0 -41.2,-45.81 -42.57,-47.44 -1.37,-1.63 -33.56,11.27 -69.91,28.03l-5.63 -12.16c-0.98,-2.11 -12.34,21.06 -9.07,43.57z"/>
   <path class="fil1" d="M363.64 433.29c0,0 -64.49,-15.66 -77.74,-14.7 -13.26,0.96 -49.74,6.48 -49.74,6.48 0,0 39.82,-47.02 41.14,-48.69 1.32,-1.67 33.88,10.26 70.72,25.94l5.27 -12.32c0.91,-2.13 12.96,20.69 10.36,43.29z"/>
  </g>
 </g>
</svg>
