<?xml version="1.0" encoding="UTF-8"?>
<!DOCTYPE svg PUBLIC "-//W3C//DTD SVG 1.1//EN" "http://www.w3.org/Graphics/SVG/1.1/DTD/svg11.dtd">
<!-- Creator: CorelDRAW 2020 (64-Bit) -->
<svg xmlns="http://www.w3.org/2000/svg" xml:space="preserve" width="129.436mm" height="197.988mm" version="1.1" style="shape-rendering:geometricPrecision; text-rendering:geometricPrecision; image-rendering:optimizeQuality; fill-rule:evenodd; clip-rule:evenodd"
viewBox="0 0 2946.25 4506.65"
 xmlns:xlink="http://www.w3.org/1999/xlink"
 xmlns:xodm="http://www.corel.com/coreldraw/odm/2003">
 <defs>
  <style type="text/css">
   <![CDATA[
    .fil0 {fill:none}
    .fil1 {fill:#501D33}
   ]]>
  </style>
 </defs>
 <g id="Слой_x0020_1">
  <metadata id="CorelCorpID_0Corel-Layer"/>
  <rect id="_166536576" class="fil0" width="2946.25" height="4506.65"/>
  <g id="_793019104">
   <path class="fil1" d="M1362.14 1667.99c0,0 -138.73,-93.49 -222.68,-103.21 -83.95,-9.73 -221.45,59.24 -221.45,59.24 0,0 106.54,-162.71 149.16,-179.51 42.62,-16.8 128.1,10.18 260.01,100.92 0,0 15.26,-29.75 22.03,-25.31 6.77,4.44 30.73,94.18 12.93,147.87z"/>
   <path class="fil1" d="M1573.56 1651.21c0,0 111.24,-124.95 190.16,-155.17 78.92,-30.22 229.22,2.52 229.22,2.52 0,0 -143.54,-131.24 -188.99,-136.95 -45.45,-5.72 -121.58,41.6 -226.89,162.2 0,0 -22.15,-25.04 -27.61,-19.07 -5.46,5.98 -6.44,98.86 24.11,146.46z"/>
  </g>
 </g>
</svg>
