<?xml version="1.0" encoding="UTF-8"?>
<!DOCTYPE svg PUBLIC "-//W3C//DTD SVG 1.1//EN" "http://www.w3.org/Graphics/SVG/1.1/DTD/svg11.dtd">
<!-- Creator: CorelDRAW 2020 (64-Bit) -->
<svg xmlns="http://www.w3.org/2000/svg" xml:space="preserve" width="129.436mm" height="197.988mm" version="1.1" style="shape-rendering:geometricPrecision; text-rendering:geometricPrecision; image-rendering:optimizeQuality; fill-rule:evenodd; clip-rule:evenodd"
viewBox="0 0 1729.6 2645.64"
 xmlns:xlink="http://www.w3.org/1999/xlink"
 xmlns:xodm="http://www.corel.com/coreldraw/odm/2003">
 <defs>
  <style type="text/css">
   <![CDATA[
    .fil0 {fill:none}
    .fil1 {fill:#501D33}
   ]]>
  </style>
 </defs>
 <g id="Слой_x0020_1">
  <metadata id="CorelCorpID_0Corel-Layer"/>
  <rect id="_166536576" class="fil0" width="1729.6" height="2645.64"/>
  <g id="_898002832">
   <path class="fil1" d="M901.62 885.41c0,0 -0.39,52.99 28.44,97.79 15.46,-2.79 141.19,-23.95 195.58,-25.36 30.4,0.49 48.96,13.91 65.47,18.73 -8.86,-21.32 -68.3,-76.13 -78.98,-79.38 -16.41,-5 -142.46,-4.64 -173.98,3.71l0.48 30.08c0,0 -12.08,-10.13 -37.01,-45.59z"/>
   <path class="fil1" d="M821.94 864.37c0,0 6.43,49.09 -22.41,93.9 -15.46,-2.79 -141.19,-23.95 -195.58,-25.36 -30.4,0.49 -48.96,13.91 -65.47,18.73 8.86,-21.32 68.3,-76.13 78.98,-79.38 16.41,-5 142.46,-4.64 173.98,3.71l0.88 20.92c0,0 15,-12.08 29.61,-32.53z"/>
  </g>
 </g>
</svg>
