<?xml version="1.0" encoding="UTF-8"?>
<!DOCTYPE svg PUBLIC "-//W3C//DTD SVG 1.1//EN" "http://www.w3.org/Graphics/SVG/1.1/DTD/svg11.dtd">
<!-- Creator: CorelDRAW 2020 (64-Bit) -->
<svg xmlns="http://www.w3.org/2000/svg" xml:space="preserve" width="129.436mm" height="197.988mm" version="1.1" style="shape-rendering:geometricPrecision; text-rendering:geometricPrecision; image-rendering:optimizeQuality; fill-rule:evenodd; clip-rule:evenodd"
viewBox="0 0 1433.6 2192.87"
 xmlns:xlink="http://www.w3.org/1999/xlink"
 xmlns:xodm="http://www.corel.com/coreldraw/odm/2003">
 <defs>
  <style type="text/css">
   <![CDATA[
    .fil0 {fill:none}
    .fil1 {fill:#501D33}
   ]]>
  </style>
 </defs>
 <g id="Слой_x0020_1">
  <metadata id="CorelCorpID_0Corel-Layer"/>
  <rect id="_166536576" class="fil0" width="1433.6" height="2192.87"/>
  <g id="_897975136">
   <g>
    <path class="fil1" d="M772.62 681.8c1.15,6.88 44.76,56.79 102.53,66.66 30.87,5.28 86.3,-5.27 101.61,48 -23.21,-18.48 -67.11,0.18 -109.7,-1.3 -58.14,-2.01 -111.91,-48.65 -94.44,-113.37z"/>
    <path class="fil1" d="M759.68 706.19c0,0 3.22,58.02 46.01,79.71 -52.39,-1.29 -59.09,-35.7 -46.01,-79.71z"/>
   </g>
   <g>
    <path class="fil1" d="M661.49 681.8c-1.15,6.88 -44.76,56.79 -102.53,66.66 -30.87,5.28 -86.3,-5.27 -101.61,48 23.21,-18.48 67.11,0.18 109.7,-1.3 58.14,-2.01 111.91,-48.65 94.44,-113.37z"/>
    <path class="fil1" d="M674.43 706.19c0,0 -3.22,58.02 -46.01,79.71 52.39,-1.29 59.09,-35.7 46.01,-79.71z"/>
   </g>
  </g>
 </g>
</svg>
