<?xml version="1.0" encoding="UTF-8"?>
<!DOCTYPE svg PUBLIC "-//W3C//DTD SVG 1.1//EN" "http://www.w3.org/Graphics/SVG/1.1/DTD/svg11.dtd">
<!-- Creator: CorelDRAW 2020 (64-Bit) -->
<svg xmlns="http://www.w3.org/2000/svg" xml:space="preserve" width="129.436mm" height="197.988mm" version="1.1" style="shape-rendering:geometricPrecision; text-rendering:geometricPrecision; image-rendering:optimizeQuality; fill-rule:evenodd; clip-rule:evenodd"
viewBox="0 0 1068.04 1633.69"
 xmlns:xlink="http://www.w3.org/1999/xlink"
 xmlns:xodm="http://www.corel.com/coreldraw/odm/2003">
 <defs>
  <style type="text/css">
   <![CDATA[
    .fil0 {fill:none}
    .fil1 {fill:#501D33}
   ]]>
  </style>
 </defs>
 <g id="Слой_x0020_1">
  <metadata id="CorelCorpID_0Corel-Layer"/>
  <rect id="_166536576" class="fil0" width="1068.04" height="1633.69"/>
  <g id="_895701136">
   <path class="fil1" d="M729.33 570.17c0,0 -82.04,-45.78 -148.24,10.61 -4.78,4.07 -14.06,-5.41 -17.56,-19 -4.33,-16.78 3.36,-37.12 10.77,-34.19 1.83,0.72 2.35,5.53 3.23,9.8 2.05,-16.96 17.23,-30.02 23.16,-27.61 2.52,1.03 1.05,6.83 -0.05,13.13 21.5,-22.06 57.32,-24.4 47.63,-6.47 32.07,-5.3 69.56,21.66 81.07,53.74z"/>
   <path class="fil1" d="M339.14 570.17c0,0 99.07,-44.47 148.24,10.61 4.18,4.68 14.06,-5.41 17.56,-19 4.33,-16.78 -3.36,-37.12 -10.77,-34.19 -1.83,0.72 -2.35,5.53 -3.23,9.8 -2.05,-16.96 -17.23,-30.02 -23.16,-27.61 -2.52,1.03 -1.05,6.83 0.05,13.13 -21.5,-22.06 -57.32,-24.4 -47.63,-6.47 -32.07,-3.99 -77.42,23.41 -81.07,53.74z"/>
  </g>
 </g>
</svg>
