<?xml version="1.0" encoding="UTF-8"?>
<!DOCTYPE svg PUBLIC "-//W3C//DTD SVG 1.1//EN" "http://www.w3.org/Graphics/SVG/1.1/DTD/svg11.dtd">
<!-- Creator: CorelDRAW 2020 (64-Bit) -->
<svg xmlns="http://www.w3.org/2000/svg" xml:space="preserve" width="129.436mm" height="197.988mm" version="1.1" style="shape-rendering:geometricPrecision; text-rendering:geometricPrecision; image-rendering:optimizeQuality; fill-rule:evenodd; clip-rule:evenodd"
viewBox="0 0 947.26 1448.95"
 xmlns:xlink="http://www.w3.org/1999/xlink"
 xmlns:xodm="http://www.corel.com/coreldraw/odm/2003">
 <defs>
  <style type="text/css">
   <![CDATA[
    .fil0 {fill:none}
    .fil1 {fill:#501D33}
   ]]>
  </style>
 </defs>
 <g id="Слой_x0020_1">
  <metadata id="CorelCorpID_0Corel-Layer"/>
  <rect id="_166536576" class="fil0" width="947.26" height="1448.95"/>
  <g id="_856543552">
   <g>
    <path class="fil1" d="M570.38 507.1c46.34,4.65 69.32,-14.01 67.77,-29.24 -1.55,-15.23 -7.48,7.55 -63.9,-1.74 -56.41,-9.3 -66.42,28.34 -66.42,39.89 0,11.55 16.2,-13.56 62.54,-8.91z"/>
    <path class="fil1" d="M516.45 479.9c0,0 -16.54,15.62 -14.35,40.11 -14.56,-14.73 -6.35,-39.75 14.35,-40.11z"/>
   </g>
   <g>
    <path class="fil1" d="M368.75 519.44c-46.64,4.08 -61.31,-19.33 -58.65,-34.39 2.66,-15.06 4.75,12.54 58.54,4.19 53.79,-8.35 59.02,33.2 58.09,44.72 -0.93,11.51 -11.34,-18.59 -57.98,-14.51z"/>
    <path class="fil1" d="M420.09 491.71c0,0 14.58,17.18 10.97,41.85 14.63,-13.76 8.49,-39.81 -10.97,-41.85z"/>
   </g>
  </g>
 </g>
</svg>
