<?xml version="1.0" encoding="UTF-8"?>
<!DOCTYPE svg PUBLIC "-//W3C//DTD SVG 1.1//EN" "http://www.w3.org/Graphics/SVG/1.1/DTD/svg11.dtd">
<!-- Creator: CorelDRAW 2020 (64-Bit) -->
<svg xmlns="http://www.w3.org/2000/svg" xml:space="preserve" width="129.436mm" height="197.988mm" version="1.1" style="shape-rendering:geometricPrecision; text-rendering:geometricPrecision; image-rendering:optimizeQuality; fill-rule:evenodd; clip-rule:evenodd"
viewBox="0 0 851.03 1301.75"
 xmlns:xlink="http://www.w3.org/1999/xlink"
 xmlns:xodm="http://www.corel.com/coreldraw/odm/2003">
 <defs>
  <style type="text/css">
   <![CDATA[
    .fil0 {fill:none}
    .fil1 {fill:#501D33}
   ]]>
  </style>
 </defs>
 <g id="Слой_x0020_1">
  <metadata id="CorelCorpID_0Corel-Layer"/>
  <rect id="_166536576" class="fil0" width="851.03" height="1301.75"/>
  <g id="_900861728">
   <path class="fil1" d="M269.35 480.47c0,0 8.84,-38.97 22.35,-38.27 13.51,0.7 69.94,-0.7 97.84,-33.75 0,0 9.54,7.65 8.32,45.58 0,0 -52.62,20.88 -104.5,15.31 0,0 -10.78,-0.35 -24.01,11.13z"/>
   <path class="fil1" d="M576.8 457.51c0,0 -4.14,-42.62 -18.52,-41.4 -14.38,1.22 -68.89,-0.7 -96.79,-33.75 0,0 -9.54,7.65 -8.32,45.58 0,0 52.62,20.88 104.5,15.31 0,0 7.82,1.39 19.14,14.27z"/>
  </g>
 </g>
</svg>
