<?xml version="1.0" encoding="UTF-8"?>
<!DOCTYPE svg PUBLIC "-//W3C//DTD SVG 1.1//EN" "http://www.w3.org/Graphics/SVG/1.1/DTD/svg11.dtd">
<!-- Creator: CorelDRAW 2020 (64-Bit) -->
<svg xmlns="http://www.w3.org/2000/svg" xml:space="preserve" width="129.436mm" height="197.988mm" version="1.1" style="shape-rendering:geometricPrecision; text-rendering:geometricPrecision; image-rendering:optimizeQuality; fill-rule:evenodd; clip-rule:evenodd"
viewBox="0 0 4544.68 6951.64"
 xmlns:xlink="http://www.w3.org/1999/xlink"
 xmlns:xodm="http://www.corel.com/coreldraw/odm/2003">
 <defs>
  <style type="text/css">
   <![CDATA[
    .fil5 {fill:none}
    .fil0 {fill:#501D33}
    .fil2 {fill:#CF6067}
    .fil1 {fill:#FF9E91}
    .fil4 {fill:#FFC6A9}
    .fil3 {fill:white}
   ]]>
  </style>
 </defs>
 <g id="Слой_x0020_1">
  <metadata id="CorelCorpID_0Corel-Layer"/>
  <g id="_535138816">
   <g>
    <path class="fil0" d="M864.78 3058.81c58.83,191.66 259.09,367.08 532.31,209.67 228.56,-131.69 -9.21,-479.33 -246.59,-549.85 -218.41,-64.89 -343.88,150.68 -285.72,340.18z"/>
    <path class="fil1" d="M929.77 3048.91c44.51,145.03 205.35,277.77 412.09,158.66 172.95,-99.65 -10.68,-362.71 -190.31,-416.08 -165.27,-49.1 -265.79,114.02 -221.78,257.42z"/>
    <path class="fil2" d="M1169.96 3253.2c51.89,3.16 109.82,-9.87 171.9,-45.64 155.39,-89.53 22.92,-310.95 -135.86,-393.7 12.49,62.52 43.48,265.11 -36.04,439.33z"/>
    <path class="fil2" d="M1045.71 2911.56c-133.82,155.15 62.34,293.23 139.35,235.96 0,0 -116.12,-73.39 -18.58,-177.44l-17.65 -25.08c0,0 -80.82,-42.73 -103.12,-33.44z"/>
    <path class="fil3" d="M929.77 3048.91c28.92,94.25 106.99,183.27 214.84,201.4 -83.95,-32.13 -144.22,-108.6 -168.85,-188.86 -41.5,-135.22 45.53,-287.95 194.16,-263.76 -6.12,-2.29 -12.25,-4.38 -18.37,-6.2 -165.27,-49.1 -265.79,114.02 -221.78,257.42z"/>
    <path class="fil0" d="M1244.64 3078.95c0,0 -81.75,-137.49 -227.6,-168.15 0,0 104.05,-24.16 165.36,16.72 61.31,40.88 62.24,151.43 62.24,151.43z"/>
    <path class="fil0" d="M1150.81 2951.68c0,0 -71.54,26.01 -64.1,99.4 7.43,73.39 104.98,97.55 104.98,97.55 0,0 -131.91,-90.12 -0.93,-165.36l-5.58 -19.51 -34.37 -12.07z"/>
    <path class="fil4" d="M1175.97 3013.73c15.52,0 18.35,21.98 18.35,47.38 0,25.4 -2.83,44.59 -18.35,44.59 -15.52,0 -37.85,-19.2 -37.85,-44.59 0,-25.4 22.33,-47.38 37.85,-47.38z"/>
   </g>
   <g>
    <path class="fil0" d="M3723.63 3058.81c-58.83,191.66 -259.09,367.08 -532.31,209.67 -228.56,-131.69 9.21,-479.33 246.59,-549.85 218.41,-64.89 343.88,150.68 285.72,340.18z"/>
    <path class="fil1" d="M3658.64 3048.91c-44.51,145.03 -205.35,277.77 -412.09,158.66 -172.95,-99.65 10.68,-362.71 190.31,-416.08 165.27,-49.1 265.79,114.02 221.78,257.42z"/>
    <path class="fil2" d="M3418.45 3253.2c-51.89,3.16 -109.82,-9.87 -171.9,-45.64 -155.39,-89.53 -22.92,-310.95 135.86,-393.7 -12.49,62.52 -43.48,265.11 36.04,439.33z"/>
    <path class="fil2" d="M3542.7 2911.56c133.82,155.15 -62.34,293.23 -139.35,235.96 0,0 116.12,-73.39 18.58,-177.44l17.65 -25.08c0,0 80.82,-42.73 103.12,-33.44z"/>
    <path class="fil3" d="M3658.64 3048.91c-28.92,94.25 -106.99,183.27 -214.84,201.4 83.95,-32.13 144.22,-108.6 168.85,-188.86 41.5,-135.22 -45.53,-287.95 -194.16,-263.76 6.12,-2.29 12.25,-4.38 18.37,-6.2 165.27,-49.1 265.79,114.02 221.78,257.42z"/>
    <path class="fil0" d="M3343.77 3078.95c0,0 81.75,-137.49 227.6,-168.15 0,0 -104.05,-24.16 -165.36,16.72 -61.31,40.88 -62.24,151.43 -62.24,151.43z"/>
    <path class="fil0" d="M3437.6 2951.68c0,0 71.54,26.01 64.1,99.4 -7.43,73.39 -104.98,97.55 -104.98,97.55 0,0 131.91,-90.12 0.93,-165.36l5.58 -19.51 34.37 -12.07z"/>
    <path class="fil4" d="M3412.44 3013.73c-15.52,0 -18.35,21.98 -18.35,47.38 0,25.4 2.83,44.59 18.35,44.59 15.52,0 37.85,-19.2 37.85,-44.59 0,-25.4 -22.33,-47.38 -37.85,-47.38z"/>
   </g>
  </g>
  <rect id="_166536576" class="fil5" width="4544.68" height="6951.64"/>
 </g>
</svg>
