<?xml version="1.0" encoding="UTF-8"?>
<!DOCTYPE svg PUBLIC "-//W3C//DTD SVG 1.1//EN" "http://www.w3.org/Graphics/SVG/1.1/DTD/svg11.dtd">
<!-- Creator: CorelDRAW 2020 (64-Bit) -->
<svg xmlns="http://www.w3.org/2000/svg" xml:space="preserve" width="129.436mm" height="197.988mm" version="1.1" style="shape-rendering:geometricPrecision; text-rendering:geometricPrecision; image-rendering:optimizeQuality; fill-rule:evenodd; clip-rule:evenodd"
viewBox="0 0 772.54 1181.7"
 xmlns:xlink="http://www.w3.org/1999/xlink"
 xmlns:xodm="http://www.corel.com/coreldraw/odm/2003">
 <defs>
  <style type="text/css">
   <![CDATA[
    .fil0 {fill:none}
    .fil1 {fill:#501D33}
    .fil3 {fill:#CF6067}
    .fil2 {fill:#FF9E91}
    .fil5 {fill:#FFC6A9}
    .fil4 {fill:white}
   ]]>
  </style>
 </defs>
 <g id="Слой_x0020_1">
  <metadata id="CorelCorpID_0Corel-Layer"/>
  <rect id="_166536576" class="fil0" width="772.54" height="1181.7"/>
  <g id="_790577328">
   <path class="fil1" d="M147.16 520c10,32.58 44.04,62.4 90.49,35.64 38.85,-22.38 -1.56,-81.48 -41.92,-93.47 -37.13,-11.03 -58.46,25.61 -48.57,57.83z"/>
   <path class="fil2" d="M158.21 518.32c7.57,24.65 34.91,47.22 70.05,26.97 29.4,-16.94 -1.82,-61.66 -32.35,-70.73 -28.09,-8.35 -45.18,19.38 -37.7,43.76z"/>
   <path class="fil3" d="M199.04 553.05c8.82,0.54 18.67,-1.68 29.22,-7.76 26.41,-15.22 3.9,-52.86 -23.09,-66.92 2.12,10.63 7.39,45.07 -6.13,74.68z"/>
   <path class="fil3" d="M177.92 494.97c-22.75,26.37 10.6,49.85 23.69,40.11 0,0 -19.74,-12.47 -3.16,-30.16l-3 -4.26c0,0 -13.74,-7.26 -17.53,-5.69z"/>
   <path class="fil4" d="M158.21 518.32c4.92,16.02 18.19,31.15 36.52,34.24 -14.27,-5.46 -24.52,-18.46 -28.7,-32.1 -7.05,-22.99 7.74,-48.95 33.01,-44.84 -1.04,-0.39 -2.08,-0.74 -3.12,-1.05 -28.09,-8.35 -45.18,19.38 -37.7,43.76z"/>
   <path class="fil1" d="M211.73 523.42c0,0 -13.9,-23.37 -38.69,-28.58 0,0 17.69,-4.11 28.11,2.84 10.42,6.95 10.58,25.74 10.58,25.74z"/>
   <path class="fil1" d="M195.78 501.79c0,0 -12.16,4.42 -10.9,16.9 1.26,12.48 17.84,16.58 17.84,16.58 0,0 -22.42,-15.32 -0.16,-28.11l-0.95 -3.32 -5.84 -2.05z"/>
   <path class="fil5" d="M200.06 512.34c2.64,0 3.12,3.74 3.12,8.05 0,4.32 -0.48,7.58 -3.12,7.58 -2.64,0 -6.43,-3.26 -6.43,-7.58 0,-4.32 3.8,-8.05 6.43,-8.05z"/>
  </g>
  <g id="_790567776">
   <path class="fil1" d="M628.71 520c-10,32.58 -44.04,62.4 -90.49,35.64 -38.85,-22.38 1.56,-81.48 41.92,-93.47 37.13,-11.03 58.46,25.61 48.57,57.83z"/>
   <path class="fil2" d="M617.66 518.32c-7.57,24.65 -34.91,47.22 -70.05,26.97 -29.4,-16.94 1.82,-61.66 32.35,-70.73 28.09,-8.35 45.18,19.38 37.7,43.76z"/>
   <path class="fil3" d="M576.83 553.05c-8.82,0.54 -18.67,-1.68 -29.22,-7.76 -26.41,-15.22 -3.9,-52.86 23.09,-66.92 -2.12,10.63 -7.39,45.07 6.13,74.68z"/>
   <path class="fil3" d="M597.95 494.97c22.75,26.37 -10.6,49.85 -23.69,40.11 0,0 19.74,-12.47 3.16,-30.16l3 -4.26c0,0 13.74,-7.26 17.53,-5.69z"/>
   <path class="fil4" d="M617.66 518.32c-4.92,16.02 -18.19,31.15 -36.52,34.24 14.27,-5.46 24.52,-18.46 28.7,-32.1 7.05,-22.99 -7.74,-48.95 -33.01,-44.84 1.04,-0.39 2.08,-0.74 3.12,-1.05 28.09,-8.35 45.18,19.38 37.7,43.76z"/>
   <path class="fil1" d="M564.14 523.42c0,0 13.9,-23.37 38.69,-28.58 0,0 -17.69,-4.11 -28.11,2.84 -10.42,6.95 -10.58,25.74 -10.58,25.74z"/>
   <path class="fil1" d="M580.09 501.79c0,0 12.16,4.42 10.9,16.9 -1.26,12.48 -17.84,16.58 -17.84,16.58 0,0 22.42,-15.32 0.16,-28.11l0.95 -3.32 5.84 -2.05z"/>
   <path class="fil5" d="M575.81 512.34c-2.64,0 -3.12,3.74 -3.12,8.05 0,4.32 0.48,7.58 3.12,7.58 2.64,0 6.43,-3.26 6.43,-7.58 0,-4.32 -3.8,-8.05 -6.43,-8.05z"/>
  </g>
 </g>
</svg>
