<?xml version="1.0" encoding="UTF-8"?>
<!DOCTYPE svg PUBLIC "-//W3C//DTD SVG 1.1//EN" "http://www.w3.org/Graphics/SVG/1.1/DTD/svg11.dtd">
<!-- Creator: CorelDRAW 2020 (64-Bit) -->
<svg xmlns="http://www.w3.org/2000/svg" xml:space="preserve" width="129.436mm" height="197.988mm" version="1.1" style="shape-rendering:geometricPrecision; text-rendering:geometricPrecision; image-rendering:optimizeQuality; fill-rule:evenodd; clip-rule:evenodd"
viewBox="0 0 2946.25 4506.65"
 xmlns:xlink="http://www.w3.org/1999/xlink"
 xmlns:xodm="http://www.corel.com/coreldraw/odm/2003">
 <defs>
  <style type="text/css">
   <![CDATA[
    .fil0 {fill:none}
    .fil1 {fill:#501D33}
    .fil2 {fill:#88958A}
    .fil7 {fill:#AFC0A6}
    .fil5 {fill:#CF6067}
    .fil8 {fill:#D6E6C6}
    .fil3 {fill:#FF9E91}
    .fil6 {fill:#FFC6A9}
    .fil4 {fill:white}
   ]]>
  </style>
 </defs>
 <g id="Слой_x0020_1">
  <metadata id="CorelCorpID_0Corel-Layer"/>
  <rect id="_166536576" class="fil0" width="2946.25" height="4506.65"/>
  <g id="_791588400">
   <g>
    <g>
     <path class="fil1" d="M2327.09 1880.18c0,0 60.94,-11.59 107.84,24.43l-6.37 31.96c0,0 -98.03,15.26 -99.67,9.93 -1.64,-5.33 -2.02,-66.33 -1.8,-66.32z"/>
     <path class="fil2" d="M2345.76 1899.67c0,0 45.79,-8.71 81.03,18.36l-4.79 24.02c0,0 -73.66,11.46 -74.89,7.46 -1.23,-4 -1.52,-49.84 -1.35,-49.83z"/>
    </g>
    <g>
     <path class="fil1" d="M2315.77 1796.44c0,0 51.78,-32.21 109.73,-15.37l6.97 31.85c0,0 -84.67,48.67 -88.33,44.32 -3.66,-4.35 -28.58,-60.73 -28.36,-60.8z"/>
     <path class="fil2" d="M2340.91 1807.91c0,0 38.91,-24.21 82.46,-11.55l5.23 23.94c0,0 -63.62,36.57 -66.37,33.3 -2.75,-3.27 -21.47,-45.63 -21.31,-45.69z"/>
    </g>
    <path class="fil1" d="M2175.16 1714.36c70.03,-41.42 170.04,-64.43 206.1,12.67 21.6,46.2 21.43,112.01 17.11,142.89 -9.61,68.58 -43.11,151.59 -125,204.64 -111.28,72.09 -264.44,33.78 -245.29,-74.66l50.01 -169.5c16.91,-52.22 41.78,-83.33 97.08,-116.03z"/>
    <path class="fil3" d="M2075.8 1827.55c31.29,-23 100.91,-67.61 158.88,-90.47 89.91,-35.45 114.4,3.73 119.46,72.88 1.98,27.13 -0.43,54.11 -2.62,70.06 -8.37,60.9 -37.67,133.73 -115.85,177 -72.42,40.09 -167.45,17.61 -187.66,-49.57 -16.19,-53.81 4.55,-133.12 27.79,-179.9z"/>
    <path class="fil4" d="M2127.84 1792.79c32.51,-20.13 71.8,-41.9 106.84,-55.71 89.91,-35.45 114.4,3.73 119.46,72.88 1.98,27.13 -0.43,54.11 -2.62,70.06 -2.14,15.56 -5.65,31.89 -10.99,48.31 0.81,-46.34 12.8,-132.44 -36.78,-164.63 -38.4,-24.93 -131.68,10.04 -175.91,29.08z"/>
    <path class="fil5" d="M2286.35 1820.17c0,0 39.36,160.16 -131.08,192.73 0,0 55.52,-34.63 8.05,-110.15l36.14 -39.25 86.9 -43.33z"/>
    <path class="fil1" d="M2284.47 1819.43c14.19,-1.34 -93.29,79.73 -93.29,79.73 0,0 49.52,73.99 -33.59,111.91 0,0 39.77,-43.04 7.66,-96.69l-74.97 19.69c-7.31,-19.39 161.85,-111.58 194.18,-114.64z"/>
    <path class="fil6" d="M2144.12 1948.96c4.25,-54.04 30.12,-13.13 30.05,2.42 -0.19,44.42 -36.26,76.43 -30.05,-2.42z"/>
    <g>
     <path class="fil1" d="M2327.27 1879.97c13.1,18.15 25.45,27.67 49.74,33.69 25.33,6.28 40.37,2 57.81,-9.81 17.22,14.42 27.77,27.23 21.95,50.11 -1.1,3.9 -0.41,2.04 -2.13,5.68 -15.17,32.11 -64.79,32.71 -95.57,25.08 -30.78,-7.63 -73.58,-31.16 -69.74,-66.09 2.39,-21.78 17.41,-33.73 37.94,-38.67z"/>
     <path class="fil7" d="M2310.53 1917.69c1.6,-5.66 5.9,-10.29 12.12,-13.72 8.6,11.91 26.6,22.87 49.05,28.44 23.9,5.93 46.63,4.21 60.22,-3.26 4.74,6.57 6.63,13.43 4.82,19.84 -5.11,18.02 -37.51,25.63 -72.35,16.99 -34.84,-8.64 -58.96,-30.27 -53.85,-48.29z"/>
     <path class="fil8" d="M2310.53 1917.69c1.6,-5.67 5.9,-10.3 12.12,-13.72 6.14,8.51 17.08,16.53 31.02,22.45 -0.79,15.97 -12.38,23.28 -20.98,26.51 -16.39,-10.22 -25.49,-23.5 -22.16,-35.25z"/>
     <path class="fil2" d="M2398.03 1935.96c13.53,0.24 25.47,-2.18 33.88,-6.81 4.75,6.57 6.64,13.43 4.81,19.84 -4.22,14.92 -27.16,22.7 -54.7,20.03 8.71,-12.95 13.52,-23.96 16.01,-33.06z"/>
    </g>
    <g>
     <path class="fil1" d="M2315.85 1796.18c19.45,12.2 34.72,16.66 59.64,13.68 26,-3.11 38.2,-12.38 49.6,-29.46 21.76,7.29 36.69,15.44 40.5,38.69 0.55,4 0.44,2.03 0.31,6.02 -1.12,35.09 -46.85,53.13 -78.43,56.91 -31.58,3.78 -80.71,-2.93 -91.21,-36.64 -6.55,-21.02 2.55,-37.38 19.58,-49.2z"/>
     <path class="fil7" d="M2315.53 1837.02c-0.79,-5.81 1.32,-11.61 5.71,-16.98 12.76,8.01 33.85,11.81 56.89,9.06 24.52,-2.93 44.9,-12.53 54.47,-24.24 7.04,4.42 11.55,10.11 12.45,16.68 2.52,18.49 -24.43,36.96 -60.19,41.23 -35.76,4.27 -66.8,-7.26 -69.33,-25.76z"/>
     <path class="fil8" d="M2315.53 1837.02c-0.8,-5.82 1.32,-11.62 5.71,-16.98 9.11,5.72 22.48,9.3 37.77,9.87 5.7,15.08 -2.1,25.93 -8.76,31.95 -19.3,-3.69 -33.07,-12.78 -34.72,-24.84z"/>
     <path class="fil2" d="M2403.94 1823.11c12.64,-4.55 22.71,-10.99 28.64,-18.25 7.05,4.42 11.56,10.11 12.45,16.68 2.09,15.31 -16.02,30.6 -42.61,37.84 2.85,-15.07 2.88,-26.96 1.51,-36.27z"/>
    </g>
   </g>
   <g>
    <path class="fil1" d="M780.34 1714.36c-70.03,-41.42 -170.04,-64.43 -206.1,12.67 -21.6,46.2 -21.43,112.01 -17.11,142.89 9.61,68.58 43.11,151.59 125,204.64 111.28,72.09 264.44,33.78 245.29,-74.66l-50.01 -169.5c-16.91,-52.22 -41.78,-83.33 -97.08,-116.03z"/>
    <path class="fil3" d="M879.7 1827.55c-31.29,-23 -100.91,-67.61 -158.88,-90.47 -89.91,-35.45 -114.4,3.73 -119.46,72.88 -1.98,27.13 0.43,54.11 2.62,70.06 8.37,60.9 37.67,133.73 115.85,177 72.42,40.09 167.45,17.61 187.66,-49.57 16.19,-53.81 -4.55,-133.12 -27.79,-179.9z"/>
    <path class="fil4" d="M827.66 1792.79c-32.51,-20.13 -71.8,-41.9 -106.84,-55.71 -89.91,-35.45 -114.4,3.73 -119.46,72.88 -1.98,27.13 0.43,54.11 2.62,70.06 2.14,15.56 5.65,31.89 10.99,48.31 -0.81,-46.34 -12.8,-132.44 36.78,-164.63 38.4,-24.93 131.68,10.04 175.91,29.08z"/>
    <path class="fil5" d="M669.15 1820.17c0,0 -39.36,160.16 131.08,192.73 0,0 -55.52,-34.63 -8.05,-110.15l-36.14 -39.25 -86.9 -43.33z"/>
    <path class="fil1" d="M671.04 1819.43c-14.19,-1.34 93.29,79.73 93.29,79.73 0,0 -49.52,73.99 33.59,111.91 0,0 -39.77,-43.04 -7.66,-96.69l74.97 19.69c7.31,-19.39 -161.85,-111.58 -194.18,-114.64z"/>
    <path class="fil6" d="M811.38 1948.96c-4.25,-54.04 -30.12,-13.13 -30.05,2.42 0.19,44.42 36.26,76.43 30.05,-2.42z"/>
   </g>
  </g>
 </g>
</svg>
