<?xml version="1.0" encoding="UTF-8"?>
<!DOCTYPE svg PUBLIC "-//W3C//DTD SVG 1.1//EN" "http://www.w3.org/Graphics/SVG/1.1/DTD/svg11.dtd">
<!-- Creator: CorelDRAW 2020 (64-Bit) -->
<svg xmlns="http://www.w3.org/2000/svg" xml:space="preserve" width="129.436mm" height="197.988mm" version="1.1" style="shape-rendering:geometricPrecision; text-rendering:geometricPrecision; image-rendering:optimizeQuality; fill-rule:evenodd; clip-rule:evenodd"
viewBox="0 0 2179.64 3334.03"
 xmlns:xlink="http://www.w3.org/1999/xlink"
 xmlns:xodm="http://www.corel.com/coreldraw/odm/2003">
 <defs>
  <style type="text/css">
   <![CDATA[
    .fil0 {fill:none}
    .fil1 {fill:#501D33}
    .fil3 {fill:#CF6067}
    .fil2 {fill:#FF9E91}
    .fil5 {fill:#FFC6A9}
    .fil4 {fill:white}
   ]]>
  </style>
 </defs>
 <g id="Слой_x0020_1">
  <metadata id="CorelCorpID_0Corel-Layer"/>
  <rect id="_166536576" class="fil0" width="2179.64" height="3334.03"/>
  <g id="_790720848">
   <g>
    <path class="fil1" d="M414.75 1467.01c28.21,91.92 124.26,176.05 255.3,100.56 109.62,-63.16 -4.42,-229.89 -118.27,-263.71 -104.75,-31.12 -164.93,72.27 -137.03,163.15z"/>
    <path class="fil2" d="M445.92 1462.27c21.35,69.56 98.48,133.22 197.64,76.09 82.95,-47.79 -5.12,-173.96 -91.28,-199.55 -79.26,-23.55 -127.47,54.69 -106.37,123.46z"/>
    <path class="fil3" d="M561.12 1560.25c24.89,1.52 52.67,-4.74 82.44,-21.89 74.53,-42.94 10.99,-149.13 -65.16,-188.82 5.99,29.98 20.85,127.15 -17.29,210.71z"/>
    <path class="fil3" d="M501.52 1396.39c-64.18,74.41 29.9,140.63 66.83,113.17 0,0 -55.69,-35.2 -8.91,-85.1l-8.47 -12.03c0,0 -38.76,-20.5 -49.46,-16.04z"/>
    <path class="fil4" d="M445.92 1462.27c13.87,45.2 51.31,87.9 103.04,96.59 -40.26,-15.41 -69.17,-52.08 -80.98,-90.58 -19.9,-64.85 21.83,-138.1 93.12,-126.5 -2.94,-1.1 -5.87,-2.1 -8.81,-2.97 -79.26,-23.55 -127.47,54.69 -106.37,123.46z"/>
    <path class="fil1" d="M596.93 1476.67c0,0 -39.21,-65.94 -109.16,-80.64 0,0 49.9,-11.59 79.31,8.02 29.41,19.6 29.85,72.63 29.85,72.63z"/>
    <path class="fil1" d="M551.93 1415.63c0,0 -34.31,12.47 -30.74,47.67 3.56,35.2 50.35,46.78 50.35,46.78 0,0 -63.27,-43.22 -0.44,-79.31l-2.67 -9.36 -16.48 -5.79z"/>
    <path class="fil5" d="M564 1445.39c7.44,0 8.8,10.54 8.8,22.72 0,12.18 -1.36,21.39 -8.8,21.39 -7.44,0 -18.15,-9.21 -18.15,-21.39 0,-12.18 10.71,-22.72 18.15,-22.72z"/>
   </g>
   <g>
    <path class="fil1" d="M1773.39 1467.01c-28.21,91.92 -124.26,176.05 -255.3,100.56 -109.62,-63.16 4.42,-229.89 118.27,-263.71 104.75,-31.12 164.93,72.27 137.03,163.15z"/>
    <path class="fil2" d="M1742.22 1462.27c-21.35,69.56 -98.48,133.22 -197.64,76.09 -82.95,-47.79 5.12,-173.96 91.28,-199.55 79.26,-23.55 127.47,54.69 106.37,123.46z"/>
    <path class="fil3" d="M1627.02 1560.25c-24.89,1.52 -52.67,-4.74 -82.44,-21.89 -74.53,-42.94 -10.99,-149.13 65.16,-188.82 -5.99,29.98 -20.85,127.15 17.29,210.71z"/>
    <path class="fil3" d="M1686.62 1396.39c64.18,74.41 -29.9,140.63 -66.83,113.17 0,0 55.69,-35.2 8.91,-85.1l8.47 -12.03c0,0 38.76,-20.5 49.46,-16.04z"/>
    <path class="fil4" d="M1742.22 1462.27c-13.87,45.2 -51.31,87.9 -103.04,96.59 40.26,-15.41 69.17,-52.08 80.98,-90.58 19.9,-64.85 -21.83,-138.1 -93.12,-126.5 2.94,-1.1 5.87,-2.1 8.81,-2.97 79.26,-23.55 127.47,54.69 106.37,123.46z"/>
    <path class="fil1" d="M1591.21 1476.67c0,0 39.21,-65.94 109.16,-80.64 0,0 -49.9,-11.59 -79.31,8.02 -29.41,19.6 -29.85,72.63 -29.85,72.63z"/>
    <path class="fil1" d="M1636.21 1415.63c0,0 34.31,12.47 30.74,47.67 -3.56,35.2 -50.35,46.78 -50.35,46.78 0,0 63.27,-43.22 0.44,-79.31l2.67 -9.36 16.48 -5.79z"/>
    <path class="fil5" d="M1624.14 1445.39c-7.44,0 -8.8,10.54 -8.8,22.72 0,12.18 1.36,21.39 8.8,21.39 7.44,0 18.15,-9.21 18.15,-21.39 0,-12.18 -10.71,-22.72 -18.15,-22.72z"/>
   </g>
  </g>
 </g>
</svg>
