<?xml version="1.0" encoding="UTF-8"?>
<!DOCTYPE svg PUBLIC "-//W3C//DTD SVG 1.1//EN" "http://www.w3.org/Graphics/SVG/1.1/DTD/svg11.dtd">
<!-- Creator: CorelDRAW 2020 (64-Bit) -->
<svg xmlns="http://www.w3.org/2000/svg" xml:space="preserve" width="129.436mm" height="197.988mm" version="1.1" style="shape-rendering:geometricPrecision; text-rendering:geometricPrecision; image-rendering:optimizeQuality; fill-rule:evenodd; clip-rule:evenodd"
viewBox="0 0 1729.6 2645.64"
 xmlns:xlink="http://www.w3.org/1999/xlink"
 xmlns:xodm="http://www.corel.com/coreldraw/odm/2003">
 <defs>
  <style type="text/css">
   <![CDATA[
    .fil0 {fill:none}
    .fil1 {fill:#501D33}
    .fil4 {fill:#C9646C}
    .fil2 {fill:#F59787}
    .fil3 {fill:#FCD0B0}
   ]]>
  </style>
 </defs>
 <g id="Слой_x0020_1">
  <metadata id="CorelCorpID_0Corel-Layer"/>
  <rect id="_166536576" class="fil0" width="1729.6" height="2645.64"/>
  <g id="_790996672">
   <g>
    <path id="_252092472" class="fil1" d="M533.29 1096.03c0,0 -38.43,-72.16 -129.48,-80.29 -40.77,-3.64 -61.07,14.31 -68.69,39.4 -24.91,82.05 62.59,275.14 198.44,184.24 37.24,-36.37 -0.27,-143.36 -0.27,-143.36z"/>
    <path id="_252095904" class="fil2" d="M519.2 1105.6c0,0 -38.12,-57.01 -106.96,-65.82 -31.9,-4.09 -48.07,1.23 -53.58,17.13 -16.88,48.66 24.69,143.8 68.8,170.25 24.08,14.44 68.74,15.3 96.27,-16.28 24.95,-33.16 12.92,-78.45 -4.53,-105.27z"/>
    <path id="_252117960" class="fil1" d="M375.85 1033.22c-17.68,2.03 -26.27,14.24 -28.14,29.88 11.3,-0.66 47.78,-2.11 90.55,13.03l-54.67 -35.75c0,0 -3.33,-3.38 -7.74,-7.16z"/>
    <path id="_249447496" class="fil3" d="M519.2 1105.6c0,0 -38.12,-57.01 -106.96,-65.82 -27.39,-3.51 -43.18,-0.08 -50.59,11.02 18.85,2.86 93.11,18.55 160.66,94.11 2.72,-16.73 2.29,-31 -3.12,-39.31z"/>
    <g>
     <path id="_260324904" class="fil4" d="M417.91 1104.82c0,0 -31.11,43.48 15.8,86.65 0,0 -11.86,-30.64 22.01,-61.92l5.94 -4.93 -43.74 -19.8z"/>
     <path id="_249421096" class="fil3" d="M455.97 1182.1c-7.28,20.93 -22.92,4.45 -14.84,-19.73 4.67,-13.97 12.46,-17.56 16.2,-17.15 7.13,0.79 4.33,20.55 -1.35,36.87z"/>
     <path id="_284072120" class="fil1" d="M515.24 1146.62c0,0 -55.8,-46.26 -126.33,-42.67 0,0 68.41,15.29 121.89,69.45 10.38,-6.3 3.88,-16.84 4.45,-26.79z"/>
     <path id="_253784952" class="fil1" d="M468.22 1131.78c0,0 -39.8,12.41 -33.05,61.37 0,0 -35.03,-41.17 15.48,-75.01l8.15 1.37 9.42 12.27z"/>
    </g>
   </g>
   <g>
    <path id="_252092472_0" class="fil1" d="M1196.31 1096.03c0,0 38.43,-72.16 129.48,-80.29 40.77,-3.64 61.07,14.31 68.69,39.4 24.91,82.05 -62.59,275.14 -198.44,184.24 -37.24,-36.37 0.27,-143.36 0.27,-143.36z"/>
    <path id="_252095904_1" class="fil2" d="M1210.4 1105.6c0,0 38.12,-57.01 106.96,-65.82 31.9,-4.09 48.07,1.23 53.58,17.13 16.88,48.66 -24.69,143.8 -68.8,170.25 -24.08,14.44 -68.75,15.3 -96.27,-16.28 -24.95,-33.16 -12.92,-78.45 4.53,-105.27z"/>
    <path id="_252117960_2" class="fil1" d="M1353.76 1033.22c17.68,2.03 26.27,14.24 28.14,29.88 -11.3,-0.66 -47.78,-2.11 -90.55,13.03l54.67 -35.75c0,0 3.33,-3.38 7.74,-7.16z"/>
    <path id="_249447496_3" class="fil3" d="M1210.4 1105.6c0,0 38.12,-57.01 106.96,-65.82 27.39,-3.51 43.18,-0.08 50.59,11.02 -18.85,2.86 -93.11,18.55 -160.66,94.11 -2.72,-16.73 -2.29,-31 3.12,-39.31z"/>
    <g>
     <path id="_260324904_4" class="fil4" d="M1311.69 1104.82c0,0 31.11,43.48 -15.8,86.65 0,0 11.86,-30.64 -22.01,-61.92l-5.94 -4.93 43.74 -19.8z"/>
     <path id="_249421096_5" class="fil3" d="M1273.63 1182.1c7.29,20.93 22.92,4.45 14.84,-19.73 -4.67,-13.97 -12.46,-17.56 -16.2,-17.15 -7.13,0.79 -4.33,20.55 1.35,36.87z"/>
     <path id="_284072120_6" class="fil1" d="M1214.37 1146.62c0,0 55.8,-46.26 126.33,-42.67 0,0 -68.41,15.29 -121.89,69.45 -10.38,-6.3 -3.88,-16.84 -4.45,-26.79z"/>
     <path id="_253784952_7" class="fil1" d="M1261.39 1131.78c0,0 39.8,12.41 33.05,61.37 0,0 35.03,-41.17 -15.48,-75.01l-8.15 1.37 -9.42 12.27z"/>
    </g>
   </g>
  </g>
 </g>
</svg>
