<?xml version="1.0" encoding="UTF-8"?>
<!DOCTYPE svg PUBLIC "-//W3C//DTD SVG 1.1//EN" "http://www.w3.org/Graphics/SVG/1.1/DTD/svg11.dtd">
<!-- Creator: CorelDRAW 2020 (64-Bit) -->
<svg xmlns="http://www.w3.org/2000/svg" xml:space="preserve" width="129.436mm" height="197.988mm" version="1.1" style="shape-rendering:geometricPrecision; text-rendering:geometricPrecision; image-rendering:optimizeQuality; fill-rule:evenodd; clip-rule:evenodd"
viewBox="0 0 1433.6 2192.87"
 xmlns:xlink="http://www.w3.org/1999/xlink"
 xmlns:xodm="http://www.corel.com/coreldraw/odm/2003">
 <defs>
  <style type="text/css">
   <![CDATA[
    .fil0 {fill:none}
    .fil1 {fill:#501D33}
    .fil5 {fill:#CF6067}
    .fil2 {fill:#D56853}
    .fil6 {fill:#F8C578}
    .fil3 {fill:#FF9E91}
    .fil7 {fill:#FFFF99}
    .fil4 {fill:white}
   ]]>
  </style>
 </defs>
 <g id="Слой_x0020_1">
  <metadata id="CorelCorpID_0Corel-Layer"/>
  <rect id="_166536576" class="fil0" width="1433.6" height="2192.87"/>
  <g id="_791252032">
   <g>
    <g>
     <path class="fil1" d="M1052.89 1001.74c0,0 -14.23,27.9 -1.87,55.85l17.44 1.51c0,0 21.13,-45.37 18.59,-46.93 -2.54,-1.56 -34.13,-10.54 -34.15,-10.43z"/>
     <path class="fil2" d="M1060.47 1013.61c0,0 -10.69,20.96 -1.4,41.96l13.1 1.14c0,0 15.87,-34.09 13.97,-35.27 -1.91,-1.18 -25.64,-7.92 -25.66,-7.84z"/>
    </g>
    <g>
     <path id="_102302152" class="fil1" d="M1043.67 852.26c54.73,-11.03 110.37,15.17 112.91,73.59 5.49,61.31 -36.49,104.14 -81.96,114.34 -31.98,7.17 -67.2,-1.51 -82.29,-32.52 -20.86,-42.86 -2.46,-144.57 51.34,-155.41z"/>
     <path id="_162518264" class="fil3" d="M1010.07 919.85c0,0 -3.65,-37.33 39.34,-46 42.99,-8.66 82.53,8.3 86.64,54.19 3.45,38.5 -24.24,77.55 -58.44,92.19 -24.95,10.68 -61.42,1.75 -74.62,-23.16 -8.99,-16.97 -2.33,-38.65 7.08,-77.22l0 -0 0 0z"/>
     <path id="_166341528" class="fil4" d="M1034.61 878.69c4.19,-2.01 9.08,-3.68 14.8,-4.83 42.99,-8.66 82.53,8.3 86.65,54.19 3.65,40.68 -27.08,74.48 -38.68,79.23 46.85,-60.44 33.49,-133.31 -62.77,-128.59z"/>
     <path id="_162633992" class="fil5" d="M1032.29 933.59c0,0 15.7,-22.22 74.61,-26.98 15.05,27.27 -4.93,67.64 -35.32,87.07 -15.44,9.88 -41.18,14.02 -60.46,-1.96l-17.07 -24.38 38.24 -33.74 0 0z"/>
     <path id="_102349272" class="fil1" d="M1038.94 933.26c0,0 47.46,16.14 12.05,60.57 57.03,-38.91 2.32,-80.67 -13.37,-76.31l1.32 15.74z"/>
     <path id="_102489136" class="fil1" d="M1014.82 953.68c0,0 36.2,-37.61 97.04,-46.72 0,0 -40.21,-8.28 -74.56,6.25 -34.36,14.54 -22.47,40.47 -22.47,40.47z"/>
     <path id="_102488248" class="fil3" d="M1038.15 961.75c0,-6.98 6.95,-16.03 10.1,-16.03 3.15,0 10.4,10.45 10.4,17.43 0,6.98 -4.9,16.87 -8.05,16.87 -3.15,0 -12.45,-11.29 -12.45,-18.28z"/>
    </g>
    <g>
     <path class="fil1" d="M1052.75 1001.8c7.65,8.97 10.92,16.34 10.77,28.99 -0.16,13.2 -4.41,19.88 -12.88,26.64 5.16,10.44 10.38,17.4 23.03,17.87 2.17,0.03 1.11,0.09 3.24,-0.22 18.7,-2.73 25.7,-26.72 25.89,-42.76 0.19,-16.03 -6.24,-40.19 -24.87,-43.36 -11.62,-1.98 -19.84,3.59 -25.17,12.84z"/>
     <path class="fil6" d="M1074.57 999.11c-3.15,-0.04 -6.13,1.38 -8.75,3.91 5.02,5.89 8.28,16.2 8.14,27.9 -0.15,12.45 -4.1,23.23 -9.81,28.75 2.77,3.25 6.07,5.15 9.64,5.2 10.04,0.12 18.35,-14.5 18.57,-32.66 0.22,-18.15 -7.75,-32.97 -17.78,-33.09z"/>
     <path class="fil7" d="M1074.57 999.11c-3.15,-0.04 -6.14,1.38 -8.75,3.91 3.58,4.21 6.27,10.67 7.46,18.28 8.39,1.92 13.74,-2.65 16.58,-6.36 -3.09,-9.43 -8.75,-15.75 -15.29,-15.83z"/>
     <path class="fil2" d="M1072.25 1044.21c-1.7,6.6 -4.56,12.04 -8.1,15.46 2.77,3.25 6.07,5.16 9.64,5.2 8.31,0.1 15.43,-9.91 17.77,-23.66 -7.89,2.36 -14.25,3.11 -19.31,3z"/>
    </g>
   </g>
   <g>
    <path id="_102302152_0" class="fil1" d="M390.51 852.26c-54.73,-11.03 -110.37,15.17 -112.91,73.59 -5.49,61.31 36.49,104.14 81.96,114.34 31.98,7.17 67.2,-1.51 82.29,-32.52 20.86,-42.86 2.46,-144.57 -51.34,-155.41z"/>
    <path id="_162518264_1" class="fil3" d="M424.11 919.85c0,0 3.65,-37.33 -39.34,-46 -42.99,-8.66 -82.53,8.3 -86.64,54.19 -3.45,38.5 24.24,77.55 58.44,92.19 24.95,10.68 61.42,1.75 74.62,-23.16 8.99,-16.97 2.33,-38.65 -7.08,-77.22l0 -0 -0 0z"/>
    <path id="_166341528_2" class="fil4" d="M399.57 878.69c-4.19,-2.01 -9.08,-3.68 -14.8,-4.83 -42.99,-8.66 -82.53,8.3 -86.65,54.19 -3.65,40.68 27.08,74.48 38.68,79.23 -46.85,-60.44 -33.49,-133.31 62.77,-128.59z"/>
    <path id="_162633992_3" class="fil5" d="M401.89 933.59c0,0 -15.7,-22.22 -74.61,-26.98 -15.05,27.27 4.93,67.64 35.32,87.07 15.44,9.88 41.18,14.02 60.46,-1.96l17.07 -24.38 -38.24 -33.74 0 0z"/>
    <path id="_102349272_4" class="fil1" d="M395.24 933.26c0,0 -47.46,16.14 -12.05,60.57 -57.03,-38.91 -2.32,-80.67 13.37,-76.31l-1.32 15.74z"/>
    <path id="_102489136_5" class="fil1" d="M419.37 953.68c0,0 -36.2,-37.61 -97.04,-46.72 0,0 40.21,-8.28 74.56,6.25 34.36,14.54 22.47,40.47 22.47,40.47z"/>
    <path id="_102488248_6" class="fil3" d="M396.03 961.75c0,-6.98 -6.95,-16.03 -10.1,-16.03 -3.15,0 -10.4,10.45 -10.4,17.43 0,6.98 4.9,16.87 8.05,16.87 3.15,0 12.45,-11.29 12.45,-18.28z"/>
   </g>
  </g>
 </g>
</svg>
