<?xml version="1.0" encoding="UTF-8"?>
<!DOCTYPE svg PUBLIC "-//W3C//DTD SVG 1.1//EN" "http://www.w3.org/Graphics/SVG/1.1/DTD/svg11.dtd">
<!-- Creator: CorelDRAW 2020 (64-Bit) -->
<svg xmlns="http://www.w3.org/2000/svg" xml:space="preserve" width="129.436mm" height="197.988mm" version="1.1" style="shape-rendering:geometricPrecision; text-rendering:geometricPrecision; image-rendering:optimizeQuality; fill-rule:evenodd; clip-rule:evenodd"
viewBox="0 0 1224.11 1872.42"
 xmlns:xlink="http://www.w3.org/1999/xlink"
 xmlns:xodm="http://www.corel.com/coreldraw/odm/2003">
 <defs>
  <style type="text/css">
   <![CDATA[
    .fil0 {fill:none}
    .fil1 {fill:#501D33}
    .fil7 {fill:#ADA5B7}
    .fil6 {fill:#C9C4D0}
    .fil3 {fill:#CF6067}
    .fil2 {fill:#FF9E91}
    .fil5 {fill:#FFC6A9}
    .fil4 {fill:white}
   ]]>
  </style>
 </defs>
 <g id="Слой_x0020_1">
  <metadata id="CorelCorpID_0Corel-Layer"/>
  <rect id="_166536576" class="fil0" width="1224.11" height="1872.42"/>
  <g id="_789306704">
   <g>
    <g>
     <path class="fil1" d="M230.79 823.95c15.84,51.62 69.79,98.87 143.38,56.47 61.56,-35.47 -2.48,-129.11 -66.42,-148.1 -58.83,-17.48 -92.62,40.59 -76.96,91.63z"/>
     <path class="fil2" d="M248.3 821.29c11.99,39.06 55.31,74.82 111,42.73 46.58,-26.84 -2.88,-97.7 -51.26,-112.07 -44.52,-13.23 -71.59,30.71 -59.74,69.34z"/>
     <path class="fil3" d="M312.99 876.31c13.98,0.85 29.58,-2.66 46.3,-12.29 41.85,-24.12 6.17,-83.75 -36.59,-106.04 3.36,16.84 11.71,71.41 -9.71,118.33z"/>
     <path class="fil3" d="M279.52 784.29c-36.04,41.79 16.79,78.98 37.53,63.56 0,0 -31.28,-19.77 -5,-47.79l-4.75 -6.76c0,0 -21.77,-11.51 -27.77,-9.01z"/>
     <path class="fil4" d="M248.3 821.29c7.79,25.39 28.82,49.36 57.87,54.25 -22.61,-8.65 -38.85,-29.25 -45.48,-50.87 -11.18,-36.42 12.26,-77.56 52.3,-71.04 -1.65,-0.62 -3.3,-1.18 -4.95,-1.67 -44.52,-13.23 -71.59,30.71 -59.74,69.34z"/>
     <path class="fil1" d="M333.11 829.38c0,0 -22.02,-37.03 -61.3,-45.29 0,0 28.03,-6.51 44.54,4.5 16.51,11.01 16.76,40.79 16.76,40.79z"/>
     <path class="fil1" d="M307.83 795.1c0,0 -19.27,7.01 -17.27,26.77 2,19.77 28.28,26.27 28.28,26.27 0,0 -35.53,-24.27 -0.25,-44.54l-1.5 -5.25 -9.26 -3.25z"/>
     <path class="fil5" d="M314.61 811.81c4.18,0 4.94,5.92 4.94,12.76 0,6.84 -0.76,12.01 -4.94,12.01 -4.18,0 -10.2,-5.17 -10.2,-12.01 0,-6.84 6.02,-12.76 10.2,-12.76z"/>
    </g>
    <g>
     <path class="fil1" d="M993.82 823.95c-15.84,51.62 -69.79,98.87 -143.38,56.47 -61.56,-35.47 2.48,-129.11 66.42,-148.1 58.83,-17.48 92.62,40.59 76.96,91.63z"/>
     <path class="fil2" d="M976.31 821.29c-11.99,39.06 -55.31,74.82 -111,42.73 -46.58,-26.84 2.88,-97.7 51.26,-112.07 44.52,-13.23 71.59,30.71 59.74,69.34z"/>
     <path class="fil3" d="M911.61 876.31c-13.98,0.85 -29.58,-2.66 -46.3,-12.29 -41.85,-24.12 -6.17,-83.75 36.59,-106.04 -3.36,16.84 -11.71,71.41 9.71,118.33z"/>
     <path class="fil3" d="M945.08 784.29c36.04,41.79 -16.79,78.98 -37.53,63.56 0,0 31.28,-19.77 5,-47.79l4.75 -6.76c0,0 21.77,-11.51 27.77,-9.01z"/>
     <path class="fil4" d="M976.31 821.29c-7.79,25.39 -28.82,49.36 -57.87,54.25 22.61,-8.65 38.85,-29.25 45.48,-50.87 11.18,-36.42 -12.26,-77.56 -52.3,-71.04 1.65,-0.62 3.3,-1.18 4.95,-1.67 44.52,-13.23 71.59,30.71 59.74,69.34z"/>
     <path class="fil1" d="M891.5 829.38c0,0 22.02,-37.03 61.3,-45.29 0,0 -28.03,-6.51 -44.54,4.5 -16.51,11.01 -16.76,40.79 -16.76,40.79z"/>
     <path class="fil1" d="M916.77 795.1c0,0 19.27,7.01 17.27,26.77 -2,19.77 -28.28,26.27 -28.28,26.27 0,0 35.53,-24.27 0.25,-44.54l1.5 -5.25 9.26 -3.25z"/>
     <path class="fil5" d="M910 811.81c-4.18,0 -4.94,5.92 -4.94,12.76 0,6.84 0.76,12.01 4.94,12.01 4.18,0 10.2,-5.17 10.2,-12.01 0,-6.84 -6.02,-12.76 -10.2,-12.76z"/>
    </g>
   </g>
   <g>
    <g>
     <circle class="fil1" cx="912.57" cy="887.7" r="33.14"/>
     <circle class="fil6" cx="912.57" cy="887.7" r="21.3"/>
     <path class="fil7" d="M924.07 875.41c3.28,3.07 5.33,7.44 5.33,12.29 0,9.3 -7.54,16.83 -16.83,16.83 -8.15,0 -14.95,-5.79 -16.5,-13.49 3.01,2.82 7.05,4.55 11.5,4.55 9.3,0 16.83,-7.54 16.83,-16.83 0,-1.15 -0.12,-2.26 -0.33,-3.35z"/>
     <circle class="fil4" transform="matrix(0.138131 0.203615 -0.307191 0.208396 907.046 878.094)" r="31.53"/>
    </g>
    <g>
     <circle class="fil1" cx="312.04" cy="887.7" r="33.14"/>
     <circle class="fil6" cx="312.04" cy="887.7" r="21.3"/>
     <path class="fil7" d="M323.54 875.41c3.28,3.07 5.33,7.44 5.33,12.29 0,9.3 -7.54,16.83 -16.83,16.83 -8.15,0 -14.95,-5.79 -16.5,-13.49 3.01,2.82 7.05,4.55 11.5,4.55 9.3,0 16.83,-7.54 16.83,-16.83 0,-1.15 -0.12,-2.26 -0.33,-3.35z"/>
     <circle class="fil4" transform="matrix(0.138131 0.203615 -0.307191 0.208396 306.51 878.094)" r="31.53"/>
    </g>
   </g>
  </g>
 </g>
</svg>
