<?xml version="1.0" encoding="UTF-8"?>
<!DOCTYPE svg PUBLIC "-//W3C//DTD SVG 1.1//EN" "http://www.w3.org/Graphics/SVG/1.1/DTD/svg11.dtd">
<!-- Creator: CorelDRAW 2020 (64-Bit) -->
<svg xmlns="http://www.w3.org/2000/svg" xml:space="preserve" width="129.436mm" height="197.988mm" version="1.1" style="shape-rendering:geometricPrecision; text-rendering:geometricPrecision; image-rendering:optimizeQuality; fill-rule:evenodd; clip-rule:evenodd"
viewBox="0 0 1068.04 1633.69"
 xmlns:xlink="http://www.w3.org/1999/xlink"
 xmlns:xodm="http://www.corel.com/coreldraw/odm/2003">
 <defs>
  <style type="text/css">
   <![CDATA[
    .fil0 {fill:none}
    .fil1 {fill:#501D33}
    .fil3 {fill:#CF6067}
    .fil2 {fill:#FF9E91}
    .fil5 {fill:#FFC6A9}
    .fil4 {fill:white}
   ]]>
  </style>
 </defs>
 <g id="Слой_x0020_1">
  <metadata id="CorelCorpID_0Corel-Layer"/>
  <rect id="_166536576" class="fil0" width="1068.04" height="1633.69"/>
  <g id="_661765024">
   <g>
    <path class="fil1" d="M203.45 718.9c13.82,45.04 60.89,86.27 125.1,49.27 53.71,-30.95 -2.16,-112.65 -57.95,-129.22 -51.33,-15.25 -80.81,35.41 -67.15,79.95z"/>
    <path class="fil2" d="M218.72 716.57c10.46,34.08 48.26,65.28 96.84,37.29 40.65,-23.42 -2.51,-85.24 -44.73,-97.78 -38.84,-11.54 -62.46,26.8 -52.12,60.5z"/>
    <path class="fil3" d="M275.17 764.58c12.2,0.74 25.81,-2.32 40.4,-10.73 36.52,-21.04 5.39,-73.08 -31.93,-92.52 2.94,14.69 10.22,62.3 -8.47,103.25z"/>
    <path class="fil3" d="M245.97 684.29c-31.45,36.46 14.65,68.91 32.75,55.45 0,0 -27.29,-17.25 -4.37,-41.7l-4.15 -5.89c0,0 -18.99,-10.04 -24.23,-7.86z"/>
    <path class="fil4" d="M218.72 716.57c6.8,22.15 25.14,43.07 50.49,47.33 -19.73,-7.55 -33.89,-25.52 -39.68,-44.38 -9.75,-31.78 10.7,-67.67 45.63,-61.99 -1.44,-0.54 -2.88,-1.03 -4.32,-1.46 -38.84,-11.54 -62.46,26.8 -52.12,60.5z"/>
    <path class="fil1" d="M292.72 723.63c0,0 -19.21,-32.31 -53.49,-39.52 0,0 24.45,-5.68 38.86,3.93 14.41,9.61 14.63,35.59 14.63,35.59z"/>
    <path class="fil1" d="M270.67 693.72c0,0 -16.81,6.11 -15.06,23.36 1.75,17.25 24.67,22.92 24.67,22.92 0,0 -31,-21.18 -0.22,-38.86l-1.31 -4.58 -8.08 -2.84z"/>
    <path class="fil5" d="M276.58 708.31c3.65,0 4.31,5.17 4.31,11.13 0,5.97 -0.66,10.48 -4.31,10.48 -3.65,0 -8.9,-4.51 -8.9,-10.48 0,-5.97 5.25,-11.13 8.9,-11.13z"/>
   </g>
   <g>
    <path class="fil1" d="M869.19 718.9c-13.82,45.04 -60.89,86.27 -125.1,49.27 -53.71,-30.95 2.16,-112.65 57.95,-129.22 51.33,-15.25 80.81,35.41 67.15,79.95z"/>
    <path class="fil2" d="M853.91 716.57c-10.46,34.08 -48.26,65.28 -96.84,37.29 -40.65,-23.42 2.51,-85.24 44.73,-97.78 38.84,-11.54 62.46,26.8 52.12,60.5z"/>
    <path class="fil3" d="M797.47 764.58c-12.2,0.74 -25.81,-2.32 -40.4,-10.73 -36.52,-21.04 -5.39,-73.08 31.93,-92.52 -2.94,14.69 -10.22,62.3 8.47,103.25z"/>
    <path class="fil3" d="M826.67 684.29c31.45,36.46 -14.65,68.91 -32.75,55.45 0,0 27.29,-17.25 4.37,-41.7l4.15 -5.89c0,0 18.99,-10.04 24.23,-7.86z"/>
    <path class="fil4" d="M853.91 716.57c-6.8,22.15 -25.14,43.07 -50.49,47.33 19.73,-7.55 33.89,-25.52 39.68,-44.38 9.75,-31.78 -10.7,-67.67 -45.63,-61.99 1.44,-0.54 2.88,-1.03 4.32,-1.46 38.84,-11.54 62.46,26.8 52.12,60.5z"/>
    <path class="fil1" d="M779.92 723.63c0,0 19.21,-32.31 53.49,-39.52 0,0 -24.45,-5.68 -38.86,3.93 -14.41,9.61 -14.63,35.59 -14.63,35.59z"/>
    <path class="fil1" d="M801.97 693.72c0,0 16.81,6.11 15.06,23.36 -1.75,17.25 -24.67,22.92 -24.67,22.92 0,0 31,-21.18 0.22,-38.86l1.31 -4.58 8.08 -2.84z"/>
    <path class="fil5" d="M796.06 708.31c-3.65,0 -4.31,5.17 -4.31,11.13 0,5.97 0.66,10.48 4.31,10.48 3.65,0 8.9,-4.51 8.9,-10.48 0,-5.97 -5.25,-11.13 -8.9,-11.13z"/>
   </g>
  </g>
 </g>
</svg>
