<?xml version="1.0" encoding="UTF-8"?>
<!DOCTYPE svg PUBLIC "-//W3C//DTD SVG 1.1//EN" "http://www.w3.org/Graphics/SVG/1.1/DTD/svg11.dtd">
<!-- Creator: CorelDRAW 2020 (64-Bit) -->
<svg xmlns="http://www.w3.org/2000/svg" xml:space="preserve" width="129.436mm" height="197.988mm" version="1.1" style="shape-rendering:geometricPrecision; text-rendering:geometricPrecision; image-rendering:optimizeQuality; fill-rule:evenodd; clip-rule:evenodd"
viewBox="0 0 947.26 1448.95"
 xmlns:xlink="http://www.w3.org/1999/xlink"
 xmlns:xodm="http://www.corel.com/coreldraw/odm/2003">
 <defs>
  <style type="text/css">
   <![CDATA[
    .fil0 {fill:none}
    .fil1 {fill:#501D33}
    .fil3 {fill:#CF6067}
    .fil2 {fill:#FF9E91}
   ]]>
  </style>
 </defs>
 <g id="Слой_x0020_1">
  <metadata id="CorelCorpID_0Corel-Layer"/>
  <rect id="_166536576" class="fil0" width="947.26" height="1448.95"/>
  <g id="_661760896">
   <g>
    <path id="_162382904" class="fil1" d="M288.12 568.62c0,0 -22.24,-21.42 -62.77,-23.7 -35.17,-1.98 -42.3,13.27 -41.57,38.31 0.84,28.86 14.09,61.04 28.9,78.58 0,0 28.46,32.6 70.78,25.06 42.32,-10.14 4.66,-118.24 4.66,-118.24l0 0 0 0z"/>
    <path id="_162382832" class="fil2" d="M280.77 578.01c0,0 -27.45,-20.59 -61.81,-20.11 -24.89,0.35 -22.39,24.51 -20.28,36.3 6.37,35.55 27.93,82.37 80.4,79.12l5.87 -30.26 -1.85 -61.9 -2.32 -3.15z"/>
    <path id="_162382496" class="fil3" d="M283.09 581.17c0,0 -6.39,-4.47 -16.42,-9.5 1.69,9.71 1.96,27.79 -18.29,31.35l0.1 1c-11.43,-7.13 -23.89,-14.69 -32.45,-19.32 2.91,26.06 13.07,45.04 26.94,57.79 13.91,12.78 19.07,20.91 14.61,29.14 6.25,2.77 15.15,2.43 22.45,2.27l4.9 -30.81 -1.85 -61.9z"/>
    <path id="_162382760" class="fil2" d="M256.56 614.88c7.91,1.34 -2.2,21.23 -7.13,20.39 -2.25,-0.38 -2.91,-10.67 -0.99,-14.37 1.92,-3.7 5.88,-6.4 8.13,-6.02z"/>
    <path id="_162382688" class="fil1" d="M283.99 607.41c0,0 -64.29,-24.92 -68.67,-23.59 -2.35,0.72 13.57,10.8 31.01,21.73 -9.49,7.68 -9.44,26.02 0.02,30.31 -4.36,-13 2.49,-23.3 9.19,-24.17 12.34,7.65 22.71,13.87 22.71,13.87l5.74 -18.15z"/>
   </g>
   <g>
    <path id="_162382904_0" class="fil1" d="M659.92 568.62c0,0 22.24,-21.42 62.77,-23.7 35.17,-1.98 42.3,13.27 41.57,38.31 -0.84,28.86 -14.09,61.04 -28.9,78.58 0,0 -28.46,32.6 -70.78,25.06 -42.32,-10.14 -4.66,-118.24 -4.66,-118.24l0 0 0 0z"/>
    <path id="_162382832_1" class="fil2" d="M667.26 578.01c0,0 27.45,-20.59 61.81,-20.11 24.89,0.35 22.39,24.51 20.28,36.3 -6.37,35.55 -27.93,82.37 -80.4,79.12l-5.87 -30.26 1.85 -61.9 2.32 -3.15z"/>
    <path id="_162382496_2" class="fil3" d="M664.94 581.17c0,0 6.39,-4.47 16.42,-9.5 -1.69,9.71 -1.96,27.79 18.29,31.35l-0.1 1c11.43,-7.13 23.89,-14.69 32.45,-19.32 -2.91,26.06 -13.07,45.04 -26.94,57.79 -13.91,12.78 -19.07,20.91 -14.61,29.14 -6.25,2.77 -15.15,2.43 -22.45,2.27l-4.9 -30.81 1.85 -61.9z"/>
    <path id="_162382760_3" class="fil2" d="M691.86 614.4c-6.38,1.08 -0.81,18.32 6.94,17 2.25,-0.38 2.52,-6.89 0.6,-10.6 -1.92,-3.7 -5.29,-6.79 -7.54,-6.41z"/>
    <path id="_162382688_4" class="fil1" d="M664.04 607.41c0,0 64.29,-24.92 68.67,-23.59 2.35,0.72 -13.57,10.8 -31.01,21.73 9.49,7.68 9.44,26.02 -0.02,30.31 4.36,-13 -2.49,-23.3 -9.19,-24.17 -12.34,7.65 -22.71,13.87 -22.71,13.87l-5.74 -18.15z"/>
   </g>
  </g>
 </g>
</svg>
