<?xml version="1.0" encoding="UTF-8"?>
<!DOCTYPE svg PUBLIC "-//W3C//DTD SVG 1.1//EN" "http://www.w3.org/Graphics/SVG/1.1/DTD/svg11.dtd">
<!-- Creator: CorelDRAW 2020 (64-Bit) -->
<svg xmlns="http://www.w3.org/2000/svg" xml:space="preserve" width="129.436mm" height="197.988mm" version="1.1" style="shape-rendering:geometricPrecision; text-rendering:geometricPrecision; image-rendering:optimizeQuality; fill-rule:evenodd; clip-rule:evenodd"
viewBox="0 0 851.03 1301.75"
 xmlns:xlink="http://www.w3.org/1999/xlink"
 xmlns:xodm="http://www.corel.com/coreldraw/odm/2003">
 <defs>
  <style type="text/css">
   <![CDATA[
    .fil0 {fill:none}
    .fil1 {fill:#501D33}
    .fil5 {fill:#CF6067}
    .fil2 {fill:#D56853}
    .fil6 {fill:#F8C578}
    .fil3 {fill:#FF9E91}
    .fil7 {fill:#FFFF99}
    .fil4 {fill:white}
   ]]>
  </style>
 </defs>
 <g id="Слой_x0020_1">
  <metadata id="CorelCorpID_0Corel-Layer"/>
  <rect id="_166536576" class="fil0" width="851.03" height="1301.75"/>
  <g id="_790583904">
   <g>
    <g>
     <path class="fil1" d="M625.02 594.66c0,0 -8.45,16.56 -1.11,33.15l10.35 0.9c0,0 12.54,-26.93 11.03,-27.86 -1.51,-0.93 -20.26,-6.26 -20.27,-6.19z"/>
     <path class="fil2" d="M629.53 601.71c0,0 -6.35,12.44 -0.83,24.91l7.78 0.68c0,0 9.42,-20.24 8.29,-20.93 -1.13,-0.7 -15.22,-4.7 -15.23,-4.65z"/>
    </g>
    <g>
     <path id="_102302152" class="fil1" d="M619.55 505.93c32.49,-6.55 65.52,9 67.03,43.69 3.26,36.4 -21.66,61.82 -48.66,67.87 -18.98,4.25 -39.89,-0.9 -48.85,-19.3 -12.38,-25.44 -1.46,-85.82 30.48,-92.26z"/>
     <path id="_162518264" class="fil3" d="M599.61 546.05c0,0 -2.17,-22.16 23.35,-27.3 25.52,-5.14 48.99,4.93 51.43,32.17 2.05,22.85 -14.39,46.04 -34.69,54.73 -14.81,6.34 -36.46,1.04 -44.3,-13.75 -5.34,-10.07 -1.38,-22.94 4.2,-45.84l0 -0 0 0z"/>
     <path id="_166341528" class="fil4" d="M614.17 521.62c2.49,-1.2 5.39,-2.19 8.79,-2.87 25.52,-5.14 48.99,4.93 51.44,32.17 2.17,24.15 -16.08,44.21 -22.96,47.03 27.81,-35.88 19.88,-79.14 -37.26,-76.33z"/>
     <path id="_162633992" class="fil5" d="M612.8 554.21c0,0 9.32,-13.19 44.29,-16.02 8.93,16.19 -2.93,40.15 -20.97,51.69 -9.17,5.86 -24.45,8.32 -35.89,-1.17l-10.13 -14.47 22.7 -20.03 0 0z"/>
     <path id="_102349272" class="fil1" d="M616.75 554.01c0,0 28.17,9.58 7.15,35.96 33.85,-23.1 1.38,-47.89 -7.94,-45.3l0.78 9.35z"/>
     <path id="_102489136" class="fil1" d="M602.42 566.13c0,0 21.49,-22.33 57.6,-27.73 0,0 -23.87,-4.92 -44.26,3.71 -20.4,8.63 -13.34,24.02 -13.34,24.02z"/>
     <path id="_102488248" class="fil3" d="M616.27 570.92c0,-4.15 4.13,-9.51 6,-9.51 1.87,0 6.17,6.2 6.17,10.35 0,4.15 -2.91,10.01 -4.78,10.01 -1.87,0 -7.39,-6.7 -7.39,-10.85z"/>
    </g>
    <g>
     <path class="fil1" d="M624.94 594.7c4.54,5.33 6.48,9.7 6.39,17.21 -0.09,7.84 -2.62,11.8 -7.65,15.81 3.06,6.19 6.16,10.33 13.67,10.61 1.29,0.02 0.66,0.06 1.92,-0.13 11.1,-1.62 15.26,-15.86 15.37,-25.38 0.11,-9.52 -3.7,-23.86 -14.77,-25.74 -6.9,-1.17 -11.78,2.13 -14.94,7.62z"/>
     <path class="fil6" d="M637.9 593.1c-1.87,-0.02 -3.64,0.82 -5.19,2.32 2.98,3.5 4.91,9.62 4.83,16.56 -0.09,7.39 -2.44,13.79 -5.82,17.07 1.64,1.93 3.61,3.06 5.72,3.08 5.96,0.07 10.89,-8.61 11.02,-19.39 0.13,-10.78 -4.6,-19.57 -10.56,-19.64z"/>
     <path class="fil7" d="M637.9 593.1c-1.87,-0.02 -3.64,0.82 -5.19,2.32 2.13,2.5 3.72,6.33 4.43,10.85 4.98,1.14 8.16,-1.58 9.84,-3.78 -1.83,-5.6 -5.19,-9.35 -9.08,-9.4z"/>
     <path class="fil2" d="M636.52 619.87c-1.01,3.92 -2.71,7.15 -4.81,9.18 1.64,1.93 3.6,3.06 5.72,3.08 4.93,0.06 9.16,-5.88 10.55,-14.04 -4.68,1.4 -8.46,1.84 -11.46,1.78z"/>
    </g>
   </g>
   <g>
    <g>
     <path class="fil1" d="M224.17 593.97c0,0 8.45,16.56 1.11,33.15l-10.35 0.9c0,0 -12.54,-26.93 -11.03,-27.86 1.51,-0.93 20.26,-6.26 20.27,-6.19z"/>
     <path class="fil2" d="M219.67 601.01c0,0 6.35,12.44 0.83,24.91l-7.78 0.68c0,0 -9.42,-20.24 -8.29,-20.93 1.13,-0.7 15.22,-4.7 15.23,-4.65z"/>
    </g>
    <g>
     <path id="_102302152_0" class="fil1" d="M231.82 505.93c-32.49,-6.55 -65.52,9 -67.03,43.69 -3.26,36.4 21.66,61.82 48.66,67.87 18.98,4.25 39.89,-0.9 48.85,-19.3 12.38,-25.44 1.46,-85.82 -30.48,-92.26z"/>
     <path id="_162518264_1" class="fil3" d="M251.76 546.05c0,0 2.17,-22.16 -23.35,-27.3 -25.52,-5.14 -48.99,4.93 -51.43,32.17 -2.05,22.85 14.39,46.04 34.69,54.73 14.81,6.34 36.46,1.04 44.3,-13.75 5.34,-10.07 1.38,-22.94 -4.2,-45.84l0 -0 -0 0z"/>
     <path id="_166341528_2" class="fil4" d="M237.2 521.62c-2.49,-1.2 -5.39,-2.19 -8.79,-2.87 -25.52,-5.14 -48.99,4.93 -51.44,32.17 -2.17,24.15 16.08,44.21 22.96,47.03 -27.81,-35.88 -19.88,-79.14 37.26,-76.33z"/>
     <path id="_162633992_3" class="fil5" d="M238.57 554.21c0,0 -9.32,-13.19 -44.29,-16.02 -8.93,16.19 2.93,40.15 20.97,51.69 9.17,5.86 24.45,8.32 35.89,-1.17l10.13 -14.47 -22.7 -20.03 0 0z"/>
     <path id="_102349272_4" class="fil1" d="M234.63 554.01c0,0 -28.17,9.58 -7.15,35.96 -33.85,-23.1 -1.38,-47.89 7.94,-45.3l-0.78 9.35z"/>
     <path id="_102489136_5" class="fil1" d="M248.95 566.13c0,0 -21.49,-22.33 -57.6,-27.73 0,0 23.87,-4.92 44.26,3.71 20.4,8.63 13.34,24.02 13.34,24.02z"/>
     <path id="_102488248_6" class="fil3" d="M235.1 570.92c0,-4.15 -4.13,-9.51 -6,-9.51 -1.87,0 -6.17,6.2 -6.17,10.35 0,4.15 2.91,10.01 4.78,10.01 1.87,0 7.39,-6.7 7.39,-10.85z"/>
    </g>
    <g>
     <path class="fil1" d="M224.25 594c-4.54,5.33 -6.48,9.7 -6.39,17.21 0.09,7.84 2.62,11.8 7.65,15.81 -3.06,6.19 -6.16,10.33 -13.67,10.61 -1.29,0.02 -0.66,0.06 -1.92,-0.13 -11.1,-1.62 -15.26,-15.86 -15.37,-25.38 -0.11,-9.52 3.7,-23.86 14.77,-25.74 6.9,-1.17 11.78,2.13 14.94,7.62z"/>
     <path class="fil6" d="M211.3 592.41c1.87,-0.02 3.64,0.82 5.19,2.32 -2.98,3.5 -4.91,9.62 -4.83,16.56 0.09,7.39 2.44,13.79 5.82,17.07 -1.64,1.93 -3.61,3.06 -5.72,3.08 -5.96,0.07 -10.89,-8.61 -11.02,-19.39 -0.13,-10.78 4.6,-19.57 10.56,-19.64z"/>
     <path class="fil7" d="M211.3 592.41c1.87,-0.02 3.64,0.82 5.19,2.32 -2.13,2.5 -3.72,6.33 -4.43,10.85 -4.98,1.14 -8.16,-1.58 -9.84,-3.78 1.83,-5.6 5.19,-9.35 9.08,-9.4z"/>
     <path class="fil2" d="M212.68 619.18c1.01,3.92 2.71,7.15 4.81,9.18 -1.64,1.93 -3.6,3.06 -5.72,3.08 -4.93,0.06 -9.16,-5.88 -10.55,-14.04 4.68,1.4 8.46,1.84 11.46,1.78z"/>
    </g>
   </g>
  </g>
 </g>
</svg>
