<?xml version="1.0" encoding="UTF-8"?>
<!DOCTYPE svg PUBLIC "-//W3C//DTD SVG 1.1//EN" "http://www.w3.org/Graphics/SVG/1.1/DTD/svg11.dtd">
<!-- Creator: CorelDRAW -->
<svg xmlns="http://www.w3.org/2000/svg" xml:space="preserve" width="161.909mm" height="176.792mm" style="shape-rendering:geometricPrecision; text-rendering:geometricPrecision; image-rendering:optimizeQuality; fill-rule:evenodd; clip-rule:evenodd"
viewBox="0 0 76.6608 83.7077"
 xmlns:xlink="http://www.w3.org/1999/xlink">
 <defs>
  <style type="text/css">
   <![CDATA[
    .fil0 {fill:none}
    .fil1 {fill:#501D33}
    .fil5 {fill:#79534F}
    .fil6 {fill:#8A7F86}
    .fil2 {fill:#9E7A65}
    .fil3 {fill:#B18F79}
    .fil7 {fill:#BCB6B1}
    .fil4 {fill:#D7C1A2}
    .fil8 {fill:white}
   ]]>
  </style>
 </defs>
 <g id="Layer_x0020_1">
  <metadata id="CorelCorpID_0Corel-Layer"/>
  <rect class="fil0" width="76.6608" height="83.7077"/>
  <g id="_208969896">
   <g>
    <polygon id="_124358032" class="fil1" points="27.4253,70.1888 24.4366,73.805 24.4887,75.5112 34.5043,75.5645 34.2434,69.9616 "/>
    <polygon id="_124357960" class="fil2" points="28.2667,70.2955 25.2738,73.7803 25.2738,74.8736 33.6931,74.9185 33.4739,70.1951 "/>
    <path id="_124357888" class="fil3" d="M28.2666 70.2955l-2.99946 3.45035 5.83239 -0.0935599c0,0 1.77414,-1.13896 2.45178,-1.78829l-0.0774616 -1.66888 -5.20725 0.100378z"/>
    <polygon id="_124357816" class="fil4" points="27.5314,71.1413 25.2672,73.7459 27.3631,73.7123 25.9983,73.4244 "/>
    <polygon id="_124357744" class="fil5" points="30.4367,74.9011 33.6931,74.9185 33.492,70.1332 32.2078,70.3127 30.4226,73.6454 "/>
    <polygon id="_124357672" class="fil1" points="34.0442,73.8922 29.3082,73.686 33.9921,73.0392 "/>
    <polygon id="_124357600" class="fil1" points="27.0638,68.4677 34.3478,68.2871 34.3368,66.3664 27.2357,65.9097 "/>
    <polygon id="_124357528" class="fil6" points="27.4508,68.0283 27.5826,66.4265 33.8936,66.7625 33.8558,67.8129 "/>
    <polygon id="_124357456" class="fil1" points="27.2937,70.6845 34.3956,70.1901 34.336,67.6606 27.0801,68.4437 "/>
    <polygon id="_124357384" class="fil7" points="27.6475,70.0027 27.5922,68.7719 33.7847,68.0993 33.8434,69.7205 "/>
    <polygon id="_124357312" class="fil8" points="27.6475,70.0027 27.5922,68.7719 33.7847,68.0993 27.9094,69.0819 "/>
    <polygon id="_124357240" class="fil1" points="27.0945,67.6836 34.2285,66.3768 34.3146,64.3778 26.912,65.138 "/>
    <polygon id="_124357168" class="fil7" points="27.5957,67.0651 27.4499,65.6945 33.8223,64.8166 33.8223,65.8677 "/>
    <path id="_124357096" class="fil6" d="M27.7302 65.6559l5.26971 -0.725989c0.22604,0.265386 0.458946,0.726084 0.540432,0.992038l-3.07706 0.59171c-1.00506,-0.306579 -2.13914,-0.657476 -2.73308,-0.857759z"/>
    <path id="_124357024" class="fil1" d="M29.7741 64.0736c0.453169,0 3.86527,-1.54611 3.86527,-1.54611l0.26657 2.21253 -4.13184 -0.666425z"/>
    <polygon id="_124356952" class="fil7" points="31.361,63.9585 33.5696,63.0272 33.7957,64.637 "/>
    <polygon id="_124356880" class="fil1" points="26.6288,63.034 34.3482,64.1281 34.3146,66.5926 26.6193,65.4066 "/>
    <polygon id="_124356808" class="fil7" points="27.1566,63.7456 27.2232,64.9297 33.849,66.074 33.9155,64.5971 "/>
    <polygon id="_124356736" class="fil6" points="27.5833,64.7654 33.6902,65.9096 33.7967,64.7122 "/>
    <polygon id="_124356664" class="fil1" points="33.9963,67.4131 31.3353,67.4397 34.0229,66.8543 "/>
   </g>
   <g>
    <polygon id="_124356568" class="fil1" points="49.4453,70.1888 52.434,73.805 52.3819,75.5112 42.3663,75.5645 42.6272,69.9616 "/>
    <polygon id="_124356496" class="fil2" points="48.6039,70.2955 51.5968,73.7803 51.5968,74.8736 43.1774,74.9185 43.3967,70.1951 "/>
    <path id="_124356424" class="fil3" d="M48.604 70.2955l2.99946 3.45035 -5.83239 -0.0935599c0,0 -1.77414,-1.13896 -2.45178,-1.78829l0.0774616 -1.66888 5.20725 0.100378z"/>
    <polygon id="_124356352" class="fil4" points="49.3392,71.1413 51.6034,73.7459 49.5075,73.7123 50.8723,73.4244 "/>
    <polygon id="_124356280" class="fil5" points="46.4339,74.9011 43.1774,74.9185 43.3786,70.1332 44.6628,70.3127 46.448,73.6454 "/>
    <polygon id="_124356208" class="fil1" points="42.8264,73.8922 47.5624,73.686 42.8785,73.0392 "/>
    <polygon id="_124356136" class="fil1" points="49.8068,68.4677 42.5228,68.2871 42.5338,66.3664 49.6349,65.9097 "/>
    <polygon id="_124356064" class="fil6" points="49.4197,68.0283 49.288,66.4265 42.977,66.7625 43.0148,67.8129 "/>
    <polygon id="_124355992" class="fil1" points="49.5769,70.6845 42.475,70.1901 42.5346,67.6606 49.7905,68.4437 "/>
    <polygon id="_124355920" class="fil7" points="49.2231,70.0027 49.2784,68.7719 43.0859,68.0993 43.0272,69.7205 "/>
    <polygon id="_124355848" class="fil8" points="49.2745,68.8587 49.2784,68.7719 43.0859,68.0993 43.0759,68.3736 "/>
    <polygon id="_124355776" class="fil1" points="49.7761,67.6836 42.642,66.3768 42.556,64.3778 49.9586,65.138 "/>
    <polygon id="_124355704" class="fil6" points="49.2749,67.0651 49.4207,65.6945 43.0482,64.8166 43.0482,65.8677 "/>
    <path id="_124355632" class="fil1" d="M47.0965 64.0736c-0.453169,0 -3.99831,-1.58602 -3.99831,-1.58602l-0.545972 2.17262 4.54429 -0.586596z"/>
    <polygon id="_124355560" class="fil7" points="45.5096,63.9585 43.301,63.0272 43.0748,64.637 "/>
    <polygon id="_124355488" class="fil1" points="50.2418,63.034 42.2563,64.1415 42.5559,66.5926 49.9319,65.4598 "/>
    <polygon id="_124355416" class="fil7" points="49.7139,63.7722 49.5543,65.0229 43.0216,66.074 42.8354,64.5306 "/>
    <polygon id="_124355344" class="fil8" points="49.7139,63.7722 49.6996,63.8841 43.2032,64.8985 43.0702,65.9894 43.0243,66.0735 43.0216,66.074 42.8354,64.5306 "/>
    <polygon id="_124355272" class="fil6" points="43.2165,68.6637 43.2298,69.5285 49.0573,69.8345 49.0706,69.3024 "/>
    <polygon id="_124355200" class="fil1" points="45.771,65.8298 48.7247,66.3354 47.1813,65.5903 "/>
   </g>
  </g>
 </g>
</svg>
