<svg xmlns="http://www.w3.org/2000/svg" xml:space="preserve" width="161.908mm" height="176.792mm" version="1.1" style="shape-rendering:geometricPrecision; text-rendering:geometricPrecision; image-rendering:optimizeQuality; fill-rule:evenodd; clip-rule:evenodd"
viewBox="0 0 478.16 522.12">
 <defs>
  <style type="text/css">
    .fil0 {fill:none}
    .fil1 {fill:#501D33}
    .fil7 {fill:#BEB5A1}
    .fil8 {fill:#C8B99F}
    .fil4 {fill:#D77D75}
    .fil2 {fill:#00000000}
    .fil3 {fill:#FFCFA5}
    .fil5 {fill-opacity:0.2}
    .fil6 {fill-opacity:0.2}
  </style>
 </defs>
 <g id="_00209871">
  <metadata id="CorelCorpID_0Corel-Layer"/>
  <rect class="fil0" width="478.16" height="522.12"/>
  <path id="_123309408" class="fil1" d="M348.12 54.16c49.31,22.13 89.73,107.65 93.33,152.71 4.13,51.61 3.49,83.02 -26.62,146.07 0,0 -6.88,13.19 -29.25,7.75 -9.84,0.69 -19.51,-2.24 -24.3,-9.11 -0.12,-0.17 -12.83,-2.11 -18.84,-7.95 -2.72,-2.65 -4.45,-5.01 -3.47,-9.83 1.28,-6.31 3.17,-14.04 3.17,-14.04 0,0 -11.13,-11.09 -9.3,-15.81 1.82,-4.72 24.57,-24.44 24.61,-24.63 15.61,-71.59 0.3,-132.66 -40.6,-181.99l-32.86 -43.51c16.51,-4.87 46.62,-7.52 64.13,0.34l0 -0z"/>
  <path id="_123309336" class="fil1" d="M130.67 54.16c-49.31,22.13 -89.73,107.65 -93.33,152.71 -4.13,51.61 -3.49,83.02 26.62,146.07 0,0 6.63,13.36 29,7.92 10.01,0.94 19.84,-3.16 24.63,-10.03 0.12,-0.17 12.75,-1.37 18.75,-7.21 2.72,-2.65 4.45,-5.01 3.47,-9.83 -1.28,-6.31 -3.17,-14.04 -3.17,-14.04 0,0 11.13,-11.09 9.3,-15.81 -1.82,-4.72 -24.57,-24.44 -24.61,-24.63 -15.61,-71.59 -0.3,-132.66 40.6,-181.99l32.86 -43.51c-16.51,-4.87 -46.62,-7.52 -64.13,0.34l0 -0z"/>
  <path id="_123309264" class="fil1" d="M149.29 271.18c-8.74,-53.11 -12.81,-144.03 -18.12,-185.64 9.37,-38.59 83.09,-26.76 108.2,-21.54 25.11,-5.22 98.83,-17.05 108.2,21.54 -5.31,41.61 -10.38,132.36 -19.12,185.47 -46.76,18.18 -132.41,18.35 -179.16,0.17l-0 0z"/>
  <path id="_123306600" class="fil2" d="M44.85 237.69c0,0 -0.67,27.11 9.06,64.52 19.94,-15.71 47.28,-20.84 61.34,-22.48 -5.73,-20.94 -18.57,-87.32 22.63,-160l2.2 -3.04c3.74,49.49 9.45,102.58 16.83,150.7 45.41,14.59 119.49,14.59 164.91,-0 7.38,-48.15 13.1,-101.26 16.84,-150.76l2.24 3.1c41.2,72.68 28.36,139.05 22.63,160 14.06,1.65 41.4,6.77 61.34,22.48 9.73,-37.41 9.06,-64.52 9.06,-64.52l0 0c0.52,-54.48 -26.09,-119.36 -65.74,-160.03 -23.81,-24.42 -42.61,-25.84 -75.32,-24.39l0.23 0.32c-15.84,-4.75 -34.09,-7.21 -52.4,-7.35l-2.67 0c-18.29,0.14 -36.52,2.59 -52.34,7.33l0.22 -0.3c-32.71,-1.44 -51.51,-0.03 -75.32,24.39 -39.65,40.67 -66.27,105.54 -65.74,160.03l0 -0z"/>
  <path id="_123308808" class="fil3" d="M428.66 301.11c-4.63,16.63 -11.24,33.06 -19.74,49.71 0,0 -2.74,8.08 -20.03,6.08 0,0 5.03,-8.89 4.69,-9.66 -0.34,-0.77 -8.76,8.94 -8.76,8.94 0,0 -10.64,0.04 -19.32,-7.45 0,0 -0.04,-12.01 -0.79,-11.99 -0.75,0.03 -3.17,8.9 -3.17,8.9l-11.36 -3c-5.19,-2.44 -6.81,-2.83 -5.4,-9.25 1.08,-4.91 2.87,-13.19 6.83,-27.09 -1.09,-1.29 -3.73,4.75 -5.66,8.07 0,0 -6.22,-6.87 -5.95,-9.21 0.26,-2.34 22.04,-19.27 22.04,-19.27 0.75,-2.34 1.43,-4.7 2.07,-7.07 27.23,1.51 51.07,13.78 64.56,22.3z"/>
  <path id="_123308736" class="fil4" d="M428.66 301.1c-0.82,2.96 -1.71,5.91 -2.66,8.86 -17.34,-13.35 -39.85,-19.39 -54.15,-22.04 -5.59,16.78 -13.9,34.38 -25.74,52.61 -1.87,-1.31 -2.26,-2.92 -1.33,-7.16 1.08,-4.91 2.87,-13.19 6.83,-27.09 -1.09,-1.29 -3.73,4.75 -5.66,8.07 0,0 -6.22,-6.87 -5.95,-9.21 0.24,-2.11 17.97,-16.09 21.45,-18.81l0.05 -0.04 0.54 -0.42c0.26,-0.83 0.52,-1.66 0.77,-2.5l0.06 -0.19c0.23,-0.78 0.46,-1.55 0.68,-2.34l0.11 -0.38c0.16,-0.56 0.31,-1.11 0.46,-1.67 27.23,1.51 51.07,13.78 64.55,22.3z"/>
  <path id="_123308592" class="fil5" d="M430.07 295.76c5.49,-21.82 2.72,-10.79 0,0zm-0.12 0.46c-0.68,2.68 -1.42,5.36 -2.2,8.03 0.78,-2.67 1.52,-5.35 2.2,-8.03zm-2.33 8.47c-0.14,0.46 -0.28,0.93 -0.42,1.39 0.14,-0.46 0.28,-0.93 0.42,-1.39zm-0.61 2.04c-0.14,0.46 -0.28,0.91 -0.42,1.36 0.14,-0.46 0.28,-0.91 0.42,-1.36zm-0.6 1.94c-0.13,0.43 -0.27,0.86 -0.41,1.28 0.14,-0.43 0.27,-0.86 0.41,-1.28zm-0.41 1.29c-4.38,13.63 -10.1,27.17 -17.08,40.85 0,0 -0.23,0.68 -0.99,1.6 -4.99,-0.7 -10.04,-1.83 -15,-3.24 0.45,-1 0.73,-1.75 0.64,-1.95 -0.1,-0.23 -0.91,0.46 -2.01,1.55 -9.63,-2.84 -18.83,-6.66 -26.43,-10.24 -0.11,-1.1 -0.25,-1.83 -0.44,-1.82 -0.17,0.01 -0.39,0.52 -0.64,1.31 -5.02,-2.39 -9.28,-4.65 -12.42,-6.4 0.27,-0.45 0.53,-0.89 0.79,-1.34 22.24,6.26 52.99,9.39 52.99,9.39 5.57,-11.45 10.09,-22.99 13.64,-34.53 2.38,1.49 4.7,3.09 6.94,4.81zm-80.1 18.36l-0 -0 0.01 -0.04 0 0 -0.01 0.04z"/>
  <path id="_123308448" class="fil3" d="M344.07 305.24c0,0 3.57,-7.39 12.7,-12.03 9.13,-4.65 -6.31,12.2 -12.7,12.03z"/>
  <path id="_123308376" class="fil4" d="M409.89 348.88c-0.32,0.65 -0.65,1.29 -0.97,1.93 0,0 -2.74,8.08 -20.03,6.08 0,0 5.03,-8.89 4.69,-9.66 -0.34,-0.77 -8.76,8.94 -8.76,8.94 0,0 -10.64,0.04 -19.32,-7.46 0,0 -0.04,-12.02 -0.79,-11.99 -0.75,0.03 -2.59,9.81 -2.59,9.81 -5.86,-0.78 -12.58,-2.91 -16.53,-6.41 -1.41,-1.25 -1.64,-2.94 -0.81,-6.75 0.36,-1.64 0.8,-3.65 1.37,-6.12 32.79,14.73 53.74,19.86 63.74,21.63z"/>
  <path id="_123307176" class="fil3" d="M50.77 303.34c4.59,15.87 10.99,31.57 19.11,47.47 0,0 2.74,8.08 20.03,6.08 0,0 -5.03,-8.89 -4.69,-9.66 0.34,-0.77 8.76,8.94 8.76,8.94 0,0 10.64,0.04 19.32,-7.45 0,0 0.04,-12.01 0.79,-11.99 0.75,0.03 3.17,8.9 3.17,8.9l11.36 -3c5.19,-2.44 6.81,-2.83 5.4,-9.25 -1.08,-4.91 -2.87,-13.19 -6.83,-27.09 1.09,-1.29 3.73,4.75 5.66,8.07 0,0 6.22,-6.87 5.95,-9.21 -0.26,-2.34 -22.04,-19.27 -22.04,-19.27 -0.77,-2.41 -1.48,-4.84 -2.13,-7.29 -28.3,2.96 -52.32,16.91 -63.86,24.76z"/>
  <path id="_123307104" class="fil5" d="M50.77 303.34c4.59,15.87 10.99,31.57 19.11,47.47 0,0 0.23,0.68 0.99,1.6 4.99,-0.7 10.04,-1.83 15,-3.24 -0.45,-1 -0.73,-1.75 -0.64,-1.95 0.1,-0.23 0.91,0.46 2.01,1.55 9.63,-2.84 18.83,-6.66 26.43,-10.24 0.11,-1.1 0.25,-1.83 0.44,-1.82 0.17,0.01 0.39,0.52 0.64,1.31 10.01,-4.78 17.01,-9.01 18.16,-9.71l-0.01 -0.04c-22.14,7.6 -59.51,11.41 -59.51,11.41 -6.59,-13.56 -11.71,-27.23 -15.5,-40.9 -2.72,1.64 -5.1,3.19 -7.11,4.56z"/>
  <path id="_123306960" class="fil4" d="M50.77 303.34c0.64,2.21 1.31,4.42 2.02,6.62 17.34,-13.35 39.85,-19.39 54.15,-22.04 5.59,16.78 13.9,34.38 25.74,52.61 1.87,-1.31 2.26,-2.92 1.33,-7.16 -1.08,-4.91 -2.87,-13.19 -6.83,-27.09 1.09,-1.29 3.73,4.75 5.66,8.07 0,0 6.22,-6.87 5.95,-9.21 -0.24,-2.11 -17.97,-16.09 -21.45,-18.81l-0.05 -0.04 -0.54 -0.42c-0.26,-0.83 -0.52,-1.66 -0.77,-2.5l-0.06 -0.19c-0.23,-0.78 -0.46,-1.55 -0.68,-2.34l-0.11 -0.38c-0.18,-0.63 -0.35,-1.26 -0.52,-1.89 -28.3,2.96 -52.32,16.91 -63.86,24.76z"/>
  <path id="_123306816" class="fil3" d="M134.72 305.24c0,0 -3.57,-7.39 -12.7,-12.03 -9.13,-4.65 6.31,12.2 12.7,12.03z"/>
  <path id="_123306744" class="fil4" d="M68.9 348.88c0.32,0.65 0.65,1.29 0.97,1.93 0,0 2.74,8.08 20.03,6.08 0,0 -5.03,-8.89 -4.69,-9.66 0.34,-0.77 8.76,8.94 8.76,8.94 0,0 10.64,0.04 19.32,-7.46 0,0 0.04,-12.02 0.79,-11.99 0.75,0.03 2.59,9.81 2.59,9.81 5.86,-0.78 12.58,-2.91 16.53,-6.41 1.41,-1.25 1.64,-2.94 0.81,-6.75 -0.36,-1.64 -0.8,-3.65 -1.37,-6.12 -32.79,14.73 -53.74,19.86 -63.74,21.63z"/>
  <path id="_123308088" class="fil2" d="M374.2 174.69l37.64 -15.71c4.65,12.2 8.07,24.03 10.38,35.37 0.33,1.61 0.63,3.21 0.92,4.81 -6.76,1.31 -21.65,4.18 -22.03,4.18 -0.38,0 15.65,2.26 23.26,3.33 2.84,19.58 2.9,38.56 1.04,56.4 -15.37,-4.65 -33.58,-3.9 -33.58,-3.9 18.51,4.85 28.13,10.39 32.4,13.45 -1.28,8.84 -3.01,17.37 -5.07,25.49 1.96,1.28 7.53,4.14 9.39,5.6 9.73,-37.41 7.74,-65.35 7.74,-65.35l0 0c0.52,-54.48 -25.09,-122.02 -68.07,-160.69 -4.44,-4.56 -8.71,-8.31 -12.93,-11.4 25.76,30.37 43.52,60.24 54.81,88.24l-35.38 17.69 -0.5 2.49zm-224.8 -121.64c1.93,-1.82 6.97,-3.36 14.19,-4.63 41.42,-7.27 154.67,-5.47 165.75,4.97 -3.4,53.07 -48.06,80.91 -89.32,80.66 -42.04,-0.25 -80.76,-29.57 -90.62,-81l0 -0zm27.09 175.26l62.04 17.69 76.3 -21.43 -73.44 7.6 -64.9 -3.86zm-121.93 44.3c4.27,-3.06 13.89,-8.6 32.4,-13.45 0,0 -18.21,-0.75 -33.58,3.9 -1.58,-15.18 -1.77,-31.2 -0.04,-47.71l42.69 -5.74 -41.84 -1.27c0.64,-4.63 1.43,-9.3 2.38,-13.99 7.86,-38.53 28.49,-82.75 66.94,-128.08 -4.22,3.09 -8.48,6.84 -12.93,11.4 -42.98,38.67 -68.59,106.21 -68.07,160.69l0 -0c0,0 -1.99,27.94 7.74,65.35 1.85,-1.46 7.42,-4.32 9.39,-5.6 -2.07,-8.12 -3.8,-16.65 -5.07,-25.49z"/>
  <path id="_123306456" class="fil6" d="M47.94 294.12c0.66,2.87 1.37,5.82 2.16,8.84 19.94,-15.72 51.1,-21.58 65.16,-23.23l-0 -0 0 0 0 0c-0.45,-1.64 -0.94,-3.55 -1.44,-5.72l-0 -0.01c-0.1,-0.41 -0.19,-0.83 -0.29,-1.26l-0 -0.01 -0.01 -0.05 -0.01 -0.05c-0.1,-0.43 -0.19,-0.86 -0.29,-1.31l-0.01 -0.04 -0.01 -0.05c-5.83,-27.11 -11.97,-86.81 24.7,-151.5l1 -1.38c-45.22,46.18 -48.03,105.92 -37.93,153.67 -26.58,4.78 -45.47,15.88 -53.01,22.11l-0 0zm269.96 -67.79l-73.61 23.52 73.42 -8.63 -2.84 17.61c-94.57,24.64 -150.35,-0.4 -150.35,-0.4l-6.88 -41.8 53.98 6.16 -57.88 -29.85 -13.65 -76.24c3.74,47.25 9.84,105.06 16.84,150.68l0 -0c45.41,14.59 119.49,14.59 164.91,0 7.08,-46.15 13.13,-103.02 16.87,-150.74l-20.8 109.68zm-185.58 -170.75c15.67,-14.76 199.21,-14.34 214.87,0.41 -4.1,63.88 -57.41,94.48 -107.08,94.18 -50.61,-0.3 -95.92,-32.68 -107.79,-94.59l-0 0zm18.71 59.81c0,0 14.8,28.93 68.17,38.57 -32.99,0.79 -58.93,-3.78 -68.17,-38.57zm178.47 0.63c0,0 -18.86,32.99 -70.05,39.67 37.53,0.32 61.74,-3.78 70.05,-39.67zm101.37 178.1c-0.66,2.87 -1.37,5.82 -2.16,8.84 -19.94,-15.72 -51.1,-21.58 -65.16,-23.23l0 -0 -0 -0 0 0c5.73,-20.94 18.57,-87.32 -22.63,-160l-1 -1.38c45.22,46.18 48.03,105.92 37.93,153.67 26.58,4.78 45.47,15.88 53.01,22.11l0 0z"/>
  <path id="_123306168" class="fil1" d="M115.07 260.32c0,0 -20.62,-2.16 -44.39,3.16 0,0 12.3,-7.65 42.57,-8.65l1.83 5.49z"/>
  <g id="_640014320">
   <polygon id="_123305952" class="fil1" points="70.82,119.33 129.8,148.84 128.01,151.15 69.74,123.09 "/>
   <path id="_123305880" class="fil1" d="M113.84 150.63c0,0 1.55,-8.51 -3.07,-17.25 -1.17,6.25 -0.62,11.87 3.07,17.25z"/>
   <path id="_121761480" class="fil1" d="M86.72 138.22c0,0 8.06,-1.82 14.02,-9.14 -5.93,1.3 -10.67,3.89 -14.02,9.14z"/>
  </g>
  <polygon id="_121761384" class="fil1" points="43.12,207.17 111.66,206.21 111.11,209.08 43.92,211 "/>
  <path id="_121761312" class="fil1" d="M83.52 216.75c0,0 -1.02,-8.62 -8.24,-15.76 0.72,6.34 2.96,11.6 8.24,15.76z"/>
  <path id="_121761240" class="fil1" d="M94.22 216.19c0,0 5.75,-6.5 6.26,-16.64 -4.25,4.76 -6.68,9.93 -6.26,16.64z"/>
  <path id="_121761168" class="fil1" d="M56.45 216.78c0,0 6.57,-5.32 8.56,-14.57 -4.85,3.89 -7.98,8.36 -8.56,14.57z"/>
  <path id="_123306096" class="fil1" d="M47.13 296.61c0,0 19.3,-13.54 42.09,-22.14 0,0 -22.48,4.54 -44.4,17.09l2.31 5.05z"/>
  <path id="_123306312" class="fil1" d="M49.73 307.24l-1.87 -5.69c-0.63,-1.54 29.26,-21.15 68.16,-25.6l1.15 5.16c-13.67,1.46 -46.66,9.26 -67.45,26.14z"/>
  <path id="_123307800" class="fil1" d="M429.29 306.85l1.63 -5.3c0.63,-1.54 -29.26,-21.15 -68.16,-25.6l-1.15 5.16c13.67,1.46 46.9,8.87 67.68,25.74z"/>
  <path id="_123307584" class="fil1" d="M431.66 296.61c0,0 -19.3,-13.54 -42.09,-22.14 0,0 22.48,4.54 44.4,17.09l-2.31 5.05z"/>
  <path id="_123307656" class="fil1" d="M363.72 260.32c0,0 27.02,-2.79 52.68,1.28 0,0 -21.37,-8.74 -51.63,-9.74l-1.05 8.46z"/>
  <g id="_640012688">
   <polygon id="_123307512" class="fil1" points="357.79,178.46 418.7,147.84 419.51,150.74 360.23,181.67 "/>
   <path id="_123307440" class="fil1" d="M410.32 162.17c0,0 -6.09,-6.55 -16.19,-8.12 4.45,4.84 9.45,7.86 16.19,8.12z"/>
   <path id="_123307368" class="fil1" d="M383.27 176.96c0,0 3.48,-7.8 1.09,-17.26 -2.59,5.72 -3.37,11.24 -1.09,17.26z"/>
  </g>
  <polygon id="_123307272" class="fil1" points="433.39,195.31 400.3,203.45 433.89,199.96 "/>
  <path id="_121760952" class="fil1" d="M131.48 55.1c15.67,-14.11 200.95,-13.71 216.61,0.39 -4.1,61.08 -58.32,90.32 -107.99,90.04 -50.61,-0.29 -96.75,-31.24 -108.62,-90.43l0 0z"/>
  <path id="_121760880" class="fil2" d="M345.11 60.3c-8.55,54.74 -58.83,81.01 -105.1,80.73 -47.74,-0.28 -91.44,-28.81 -105.18,-83.45 2.98,-1.26 6.79,-2.77 16.5,-2.36 52.5,-5.39 196.15,-10.14 193.78,5.08l0 0z"/>
  <path id="_121760592" class="fil1" d="M239.02 127.14c2.06,38.52 5.49,38.14 6.98,-0.5 -2.33,0.17 -4.66,0.33 -6.98,0.5z"/>
  <path id="_121760520" class="fil7" d="M153.89 69.08c18.89,-14.96 51.42,-22.6 84.15,-22.85l2.67 0c33.66,0.26 67.12,8.34 85.73,24.15 -11.15,39.89 -50.44,59.07 -86.8,58.85 -37.21,-0.22 -71.51,-20.75 -85.74,-60.16l0 0z"/>
  <path id="_121760448" class="fil1" d="M149.4 52.8c1.93,-1.77 6.97,-3.27 14.19,-4.5 41.42,-7.07 154.67,-5.32 165.75,4.84 -3.4,51.63 -48.45,76.58 -89.71,76.34 -42.04,-0.25 -80.37,-26.64 -90.23,-76.67l0 -0z"/>
  <path id="_121760376" class="fil4" d="M324.76 49.17c-3.73,50.92 -46.21,75.32 -85.14,75.08 -39.63,-0.24 -75.79,-26.02 -85.5,-75.31 43.12,-11.85 129.68,-11.9 170.64,0.23l-0 0z"/>
 </g>
</svg>