<?xml version="1.0" encoding="UTF-8"?>
<!DOCTYPE svg PUBLIC "-//W3C//DTD SVG 1.1//EN" "http://www.w3.org/Graphics/SVG/1.1/DTD/svg11.dtd">
<!-- Creator: CorelDRAW 2020 (64-Bit) -->
<svg xmlns="http://www.w3.org/2000/svg" xml:space="preserve" width="161.908mm" height="176.791mm" version="1.1" style="shape-rendering:geometricPrecision; text-rendering:geometricPrecision; image-rendering:optimizeQuality; fill-rule:evenodd; clip-rule:evenodd"
viewBox="0 0 4944.88 5399.44"
 xmlns:xlink="http://www.w3.org/1999/xlink"
 xmlns:xodm="http://www.corel.com/coreldraw/odm/2003">
 <defs>
  <style type="text/css">
   <![CDATA[
    .fil0 {fill:none}
    .fil1 {fill:#501D33}
    .fil5 {fill:#75414C}
    .fil9 {fill:#8E7A5D}
    .fil11 {fill:#8F9499}
    .fil2 {fill:#955B58}
    .fil3 {fill:#BB8778}
    .fil7 {fill:#C3C077}
    .fil4 {fill:#CFA88B}
    .fil6 {fill:#D77D75}
    .fil8 {fill:#EEF698}
    .fil10 {fill:white}
   ]]>
  </style>
 </defs>
 <g id="Слой_x0020_1">
  <metadata id="CorelCorpID_0Corel-Layer"/>
  <g id="_2810203185216">
   <rect class="fil0" y="0" width="4944.88" height="5399.44"/>
   <g id="_129341320">
    <ellipse id="_129044208" class="fil1" cx="2488.34" cy="4839.13" rx="1508.26" ry="86.09"/>
    <g>
     <polygon id="_129044136" class="fil2" points="3136.86,4538.09 3329.91,4762.88 3329.91,4833.4 2786.85,4836.29 2800.99,4531.62 "/>
     <path id="_129044064" class="fil3" d="M3136.88 4538.09l193.48 222.56 -376.21 -6.03c0,0 -114.44,-73.47 -158.15,-115.35l5 -107.65 335.88 6.47z"/>
     <polygon id="_129043992" class="fil4" points="3184.29,4592.63 3330.35,4760.64 3195.15,4758.47 3283.19,4739.92 "/>
     <polygon id="_129043920" class="fil5" points="2996.89,4835.17 2786.85,4836.29 2799.81,4538.77 2882.64,4539.19 2997.8,4754.17 "/>
     <polygon id="_129043848" class="fil6" points="2764.2,4770.09 3069.69,4756.78 2767.56,4715.06 "/>
     <path id="_129043776" class="fil1" d="M2768.95 4523.95c0,0 -62.04,273.97 -6.78,321.66 55.26,47.69 585.37,33.67 605.36,17.38 20,-16.29 30.02,-138.92 -78.65,-165.14 0,0 -89.16,-171.6 -136.78,-200.67 -47.63,-29.07 -383.15,26.76 -383.15,26.76l0 0z"/>
     <path id="_129043704" class="fil7" d="M3118.87 4537.21c0,0 91.38,94.25 144.52,220.1 0,0 35.78,56.97 1.1,70.39 -34.68,13.41 -421.72,21.18 -461.89,-16.72 -40.17,-37.9 16.1,-253.15 16.1,-253.15 0,0 271.02,-40.93 300.18,-20.62z"/>
     <path id="_129043632" class="fil8" d="M3118.87 4537.21c0,0 91.38,94.25 144.52,220.1 0,0 17.89,28.5 16.09,49.93 -25.43,-7.23 -47.3,-23.11 -55.01,-50.86 -21.46,-77.24 -114.14,-211.98 -114.14,-211.98 -2.62,-4.14 -4.14,-7.83 -4.77,-11.15 6.15,0.88 10.73,2.16 13.3,3.96z"/>
     <path id="_129043560" class="fil9" d="M2989.28 4831.48c-69.73,-3.76 -147.95,9.83 -188.8,-20.07 -40.85,-29.91 15.71,-254.88 15.71,-254.88 0,0 31.81,-2.68 83.21,-9.21 27.3,102.91 58.59,197.34 89.89,284.17z"/>
     <path id="_129043488" class="fil7" d="M3257.43 4735.7c-43.41,6.87 -39.46,39.55 -38.52,63.02 0.94,23.47 -43.3,38.32 -12.63,37.09 21.32,-0.86 116.98,1.07 125.74,-12.8 18.31,-28.99 -31.18,-94.19 -74.59,-87.31z"/>
     <path id="_129043416" class="fil1" d="M3296.24 4793.63c-0.58,-43.23 -35.7,-75.33 -77.46,-81.65 -50.41,-7.63 -109.31,18.91 -113.14,64.35 -3.98,47.09 22.78,74.61 89.55,75.61 66.77,0.99 110.1,-15.41 101.05,-58.31z"/>
     <path id="_129043344" class="fil7" d="M3267.8 4793.99c-0.41,-30.57 -25.25,-53.27 -54.78,-57.74 -35.65,-5.39 -77.3,13.37 -80.02,45.51 -2.81,33.3 16.11,52.77 63.33,53.47 47.22,0.7 77.87,-10.89 71.46,-41.23z"/>
     <path id="_129043272" class="fil1" d="M3224.2 4796.5c-0.58,-43.23 -35.7,-75.33 -77.46,-81.65 -50.41,-7.63 -109.31,18.91 -113.14,64.35 -3.98,47.09 22.78,74.61 89.55,75.61 66.77,0.99 110.1,-15.41 101.05,-58.31z"/>
     <path id="_129043200" class="fil7" d="M3195.76 4796.88c-0.42,-30.57 -25.25,-53.28 -54.78,-57.74 -35.65,-5.39 -77.3,13.37 -80.02,45.51 -2.81,33.3 16.11,52.76 63.33,53.47 47.22,0.7 77.87,-10.9 71.46,-41.23z"/>
     <path id="_129043128" class="fil1" d="M3094.61 4730.62c-17.71,-23.2 -44.82,-39 -74.64,-43.73 -62.28,-9.88 -134.98,24.06 -139.63,82.38 -4.82,60.43 28.29,95.81 110.76,97.21 55.4,0.94 89.19,-5.65 107.59,-28.46 21.56,-26.74 14.35,-83.26 -4.08,-107.4z"/>
     <path id="_129043056" class="fil7" d="M3071.56 4763.72c-7.57,-31.52 -45.72,-51.55 -83.51,-56.64 -25.54,-3.44 -59.97,1.47 -80.42,12.47 -57.63,31.01 -81.3,100.34 -80.24,101.1 24.32,17.32 95,27.33 133.87,27.88 66.44,0.95 128.25,-10.01 110.3,-84.81z"/>
     <path id="_129042984" class="fil8" d="M3071.56 4763.72c-7.57,-31.52 -45.72,-51.55 -83.51,-56.64 -25.54,-3.44 -59.97,1.47 -80.42,12.47 -0.76,0.41 -1.5,0.83 -2.25,1.25 -0.45,0.63 -0.68,0.99 -0.68,0.99 108.03,-16.79 157.49,41.18 169.65,58.51 -0.46,-5.15 -1.37,-10.66 -2.79,-16.58z"/>
     <path id="_129042912" class="fil9" d="M3059.48 4809.87c-37.96,47.75 -202.44,38.12 -245.85,5.56 -27.37,-20.52 3.85,-65.85 3.85,-65.85 0,0 84.23,68.41 242.01,60.29z"/>
    </g>
    <path id="_129042816" class="fil1" d="M2222.13 3473.8l-35.47 1095.69 -407.47 -19.11 -46.51 -400.43 -191.11 -1409.82c483.77,189.34 1384.47,189.34 1868.24,0l-239.77 1784.93 -407.03 30.68 -33.75 -1081.94 -507.12 0 -0 -0z"/>
    <polygon id="_129042744" class="fil7" points="3229.24,3669.66 3121.76,4543.36 2813.18,4562.67 2786.85,3741.4 "/>
    <polygon id="_129042672" class="fil8" points="3126.93,4484.14 3228.44,3669.78 3167.89,3679.61 3165.51,3696.1 "/>
    <polygon id="_129042600" class="fil9" points="2925.69,3856.98 3026.09,3921 3109.87,3837.2 3201.81,3892.69 3223.02,3720.15 2934.28,3735.12 2787.08,3748.61 2791.25,3878.99 2823.64,3926.4 "/>
    <path id="_129042528" class="fil9" d="M2787.29 3741.34l25.01 828.1 90.71 2.5c-3.55,-203.99 -4.46,-591.95 29.06,-854.08l-144.78 23.48z"/>
    <polygon id="_129042456" class="fil1" points="2922.26,3791.64 3022.65,3855.67 3106.43,3771.87 3219.33,3840.01 3245.81,3653.47 2930.84,3669.76 2763.15,3685.16 2743.73,3749.1 2820.2,3861.07 "/>
    <path id="_129042384" class="fil2" d="M1944.87 3425.02l227.98 41.87 -11.51 251.42 -67.23 71.12 -56.75 -24.09 -46.43 45.61 -71.34 -90.32 -62.76 58.48 -79.1 -56.74 -40.16 26.77 -121.76 -938.71c513.12,158.05 1206.67,158.05 1719.78,0l-106.35 859.22 -14.43 117.41 -116.4 -65.98 -79.22 75.45 -96.69 -57.51 -87.03 63.03 -47.75 -60.65 -9.17 -274.51 227.97 -41.87 -1061.65 0z"/>
    <path id="_129042312" class="fil3" d="M1819.47 3082.76l73.81 -178.51 -87.54 -24.03c0,0 13.73,199.96 13.73,202.54z"/>
    <path id="_129042240" class="fil3" d="M2586.52 2948.82c-1.72,5.15 -60.93,288.36 -60.93,288.36l-20.6 -300.37c0,0 80.67,8.58 81.53,12.01z"/>
    <path id="_129042168" class="fil3" d="M1990.92 3810.95l-71.34 -90.32 -62.76 58.48 -79.1 -56.74 -40.16 26.77 -121.76 -938.71 0.47 0.14c30.19,23.62 54.85,45.18 54.85,45.18l102.01 820.87 75.52 48.06 74.66 -48.06 67.61 134.32z"/>
    <path id="_128920320" class="fil3" d="M3271.47 2829.1c21.65,-5.96 43.06,-12.16 64.12,-18.65l-106.35 859.22 -14.43 117.41 -116.4 -65.98 -79.22 75.45 -5.11 -3.04 86.69 -127.15 74.59 46.29 89.49 -874.26c2.18,-3.13 4.39,-6.2 6.61,-9.28z"/>
    <path id="_128920248" class="fil5" d="M1952.14 3426.35l220.71 40.54 -11.51 251.42 -67.23 71.12 -45.89 -19.48 -8.2 -220.34 -87.88 -123.27zm36.84 -1.33l-37.86 0 -1.19 -1.55 39.06 1.55z"/>
    <polygon id="_128920176" class="fil2" points="1817.42,4538.09 1624.37,4762.88 1624.37,4833.4 2167.44,4836.29 2153.29,4531.62 "/>
    <path id="_128920104" class="fil3" d="M1817.41 4538.09l-193.48 222.56 376.21 -6.03c0,0 114.44,-73.47 158.15,-115.35l-5 -107.65 -335.89 6.47z"/>
    <polygon id="_128920032" class="fil4" points="1769.99,4592.63 1623.94,4760.64 1759.13,4758.47 1671.1,4739.92 "/>
    <polygon id="_128919960" class="fil5" points="1957.39,4835.17 2167.44,4836.29 2154.47,4538.77 2071.63,4539.19 1956.48,4754.17 "/>
    <polygon id="_128919888" class="fil6" points="2190.08,4770.09 1884.6,4756.78 2186.73,4715.06 "/>
    <path id="_128919816" class="fil1" d="M2185.34 4523.95c0,0 62.04,273.97 6.78,321.66 -55.26,47.69 -585.37,33.67 -605.36,17.38 -20,-16.29 -30.02,-138.92 78.65,-165.14 0,0 89.16,-171.6 136.78,-200.67 47.63,-29.07 383.15,26.76 383.15,26.76l-0 0z"/>
    <path id="_128919744" class="fil7" d="M1835.4 4537.21c0,0 -91.38,94.25 -144.52,220.1 0,0 -35.78,56.97 -1.1,70.39 34.68,13.41 421.73,21.18 461.9,-16.72 40.17,-37.9 -5.41,-251.02 -5.41,-251.02 0,0 -281.71,-43.06 -310.87,-22.76z"/>
    <path id="_128919672" class="fil8" d="M1835.4 4537.21c0,0 -91.38,94.25 -144.52,220.1 0,0 -35.78,56.97 -1.1,70.39 0.33,0.13 0.75,0.25 1.14,0.38 52.07,-100.15 100.22,-227.4 188.44,-299.28 -19.12,0.11 -38.6,4.68 -43.96,8.41z"/>
    <path id="_128919600" class="fil9" d="M1965.01 4831.48c69.73,-3.76 147.96,9.83 188.8,-20.07 40.85,-29.91 -4.55,-250.59 -4.55,-250.59 0,0 -42.97,-6.97 -94.37,-13.5 -27.3,102.91 -58.59,197.34 -89.89,284.17z"/>
    <path id="_128919528" class="fil7" d="M1696.86 4735.7c43.41,6.87 39.46,39.55 38.52,63.02 -0.94,23.47 43.3,38.32 12.63,37.09 -21.32,-0.86 -116.98,1.07 -125.74,-12.8 -18.31,-28.99 31.18,-94.19 74.59,-87.31z"/>
    <path id="_128919456" class="fil1" d="M1658.05 4793.63c0.58,-43.23 35.7,-75.33 77.46,-81.65 50.41,-7.63 109.31,18.91 113.14,64.35 3.98,47.09 -22.78,74.61 -89.55,75.61 -66.77,0.99 -110.1,-15.41 -101.05,-58.31z"/>
    <path id="_128919384" class="fil7" d="M1686.49 4793.99c0.41,-30.57 25.25,-53.27 54.78,-57.74 35.65,-5.39 77.3,13.37 80.02,45.51 2.81,33.3 -16.11,52.77 -63.33,53.47 -47.22,0.7 -77.87,-10.89 -71.46,-41.23z"/>
    <path id="_128919312" class="fil1" d="M1730.07 4796.5c0.58,-43.23 35.7,-75.33 77.46,-81.65 50.41,-7.63 109.31,18.91 113.14,64.35 3.98,47.09 -22.78,74.61 -89.55,75.61 -66.77,0.99 -110.1,-15.41 -101.05,-58.31z"/>
    <path id="_128919240" class="fil7" d="M1758.52 4796.88c0.42,-30.57 25.25,-53.28 54.78,-57.74 35.65,-5.39 77.3,13.37 80.02,45.51 2.81,33.3 -16.11,52.76 -63.33,53.47 -47.22,0.7 -77.87,-10.9 -71.46,-41.23z"/>
    <path id="_128919168" class="fil1" d="M1859.68 4730.62c17.71,-23.2 44.82,-39 74.64,-43.73 62.28,-9.88 134.98,24.06 139.63,82.38 4.82,60.43 -28.29,95.81 -110.76,97.21 -55.4,0.94 -89.19,-5.65 -107.59,-28.46 -21.56,-26.74 -14.35,-83.26 4.08,-107.4z"/>
    <path id="_128919096" class="fil7" d="M1882.72 4763.72c7.57,-31.52 45.72,-51.55 83.51,-56.64 25.54,-3.44 59.97,1.47 80.42,12.47 57.63,31.01 81.31,100.34 80.24,101.1 -24.32,17.32 -95.01,27.33 -133.87,27.88 -66.44,0.95 -128.25,-10.01 -110.3,-84.81z"/>
    <path id="_128919024" class="fil8" d="M1882.72 4763.72c7.57,-31.52 45.72,-51.55 83.51,-56.64 25.54,-3.44 59.97,1.47 80.42,12.47 0.76,0.41 1.5,0.83 2.25,1.25 0.45,0.63 0.68,0.99 0.68,0.99 -108.03,-16.79 -157.49,41.18 -169.65,58.51 0.46,-5.15 1.37,-10.66 2.79,-16.58z"/>
    <path id="_128918952" class="fil9" d="M1894.8 4809.87c37.96,47.75 202.44,38.12 245.86,5.56 27.37,-20.52 -3.85,-65.85 -3.85,-65.85 0,0 -84.23,68.41 -242.01,60.29z"/>
    <polygon id="_128918880" class="fil7" points="2163.06,3780.22 2139.95,4527.41 1829.63,4551.21 1739.28,3811.04 1779.44,3784.28 1858.54,3841.02 1911.86,3786.84 1990.07,3870.28 2046.8,3823.81 2095.82,3851.33 "/>
    <path id="_128918808" class="fil8" d="M1856.35 4551.21l-26.72 0.01 -88.82 -727.69c25.03,5.66 41.22,9.76 40.36,10.63l96.29 694.67 -21.1 22.39z"/>
    <path id="_128918736" class="fil9" d="M1744.2 3851.35l-4.92 -40.31 40.16 -26.77 79.1 56.74 53.32 -54.19 78.21 83.45 56.73 -46.47 36.6 20.55 -4.75 23.66c0,0 -110.71,51.49 -115.86,51.49 -5.15,0 -53.21,-71.23 -53.21,-71.23 0,0 -40.34,35.19 -46.34,36.9 -6.01,1.72 -73.81,-53.21 -73.81,-53.21 0,0 -27.59,11.89 -45.23,19.38z"/>
    <polygon id="_128918664" class="fil9" points="2163.06,3780.22 2139.95,4527.41 2052.81,4534.09 2048.55,3824.81 2095.82,3851.33 "/>
    <path id="_128918592" class="fil5" d="M2915.55 3744.04l-80.1 58 -47.75 -60.65 -9.17 -274.51 219.21 -40.26 -74.87 134.12 -7.32 183.3 0 0zm83.18 -319.03l-37.18 0 40.42 -5.27 -3.24 5.27z"/>
    <path id="_128918520" class="fil3" d="M1620.75 2849.92l-4.95 -39.48c513.12,158.05 1206.67,158.05 1719.78,0l-2.7 21.51c-307.08,123.72 -482.65,163.65 -897.34,161.95 -439.34,-1.8 -762.17,-128.5 -814.79,-143.98l-0 0z"/>
    <path id="_128918448" class="fil5" d="M2930.12 3399.11l-893.27 -6.47c0,0 467.7,-127.24 893.27,6.47z"/>
    <polygon id="_128918376" class="fil3" points="3205.19,2872 3196.8,3079.39 3151.64,2881.38 "/>
    <polygon id="_128918304" class="fil1" points="2465.17,2895.31 2523.63,3263.29 2533.94,2895.31 "/>
    <polygon id="_128918232" class="fil1" points="2791.82,4538.28 2936,4567.46 2793.53,4593.2 "/>
    <polygon id="_128918160" class="fil1" points="1767.4,2831.69 1818.99,3082.74 1848.22,2842 "/>
    <path id="_128918088" class="fil1" d="M3031.25 3642.31c-3.43,4.29 -31.75,173.36 -31.75,173.36l42.05 7.72 -10.3 -181.08z"/>
    <polygon id="_128918016" class="fil1" points="2049.47,3637.15 1990.25,3815.68 2052.9,3799.36 "/>
    <g>
     <g>
      <path id="_128917944" class="fil1" d="M2498.06 3008.59l-135.22 29.73c-55,-94.06 -156.89,0.67 -72.35,59 -25.58,23.95 -29.32,74.2 10.21,93.18 45.43,21.82 88.1,-24.7 87.59,-68.13l121.25 -39.82 -11.47 -73.96z"/>
      <path id="_128917872" class="fil10" d="M2652.04 2989.3l-98.14 28.94 4.08 26.33 102.75 -30.14 -8.69 -25.13zm-170.69 50.21l-135.12 39.98c0,0 -20.71,-66.71 -47.16,-50.3 -26.45,16.41 1.04,50.94 41.61,76.78 -3.44,2.99 -18.09,3.95 -25.97,2.51 -43.31,44.66 -8,72.22 20.42,54.38 21.72,-13.66 27.71,-37.51 29.21,-61.49l121.09 -35.61 -4.07 -26.25z"/>
      <polygon id="_128917800" class="fil11" points="2652.04,2989.3 2553.9,3018.25 2557.99,3044.58 2660.73,3014.43 "/>
      <path id="_128917728" class="fil11" d="M2358.26 3103.32c0,0 1.89,29.15 -18.67,48.76 -20.58,19.61 -39.43,2.51 -39.43,2.51 0,0 27.36,-3.6 58.1,-51.27z"/>
     </g>
     <g>
      <path id="_128917632" class="fil1" d="M2542.29 2992.44l109.54 -33.32c-3.86,-108.92 136.67,-93.12 91.32,8.24 34.43,6.54 66.52,42.05 43.3,79.23 -26.71,42.77 -92.21,27.9 -115.01,-9.03l-116.13 32.39 -13.02 -77.51z"/>
      <path id="_128917560" class="fil10" d="M2567.73 3012.83l119.89 -32.22c0,0 -18.21,-67.44 12.92,-67.74 31.13,-0.3 26.38,43.6 5.94,87.14 4.5,0.68 17.4,-6.34 23.3,-11.78 60.48,14.54 45.41,56.74 11.83,56.87 -25.65,0.1 -43.46,-16.88 -57.58,-36.31l-112.23 30.24 -4.07 -26.2z"/>
      <path id="_128917488" class="fil11" d="M2690.2 3007.18c0,0 14,25.62 41.87,31.18 27.86,5.56 34.66,-18.97 34.66,-18.97 0,0 -25.06,11.6 -76.53,-12.21z"/>
     </g>
    </g>
    <circle id="_128917368" class="fil5" cx="3066.46" cy="3183.33" r="83.39"/>
    <circle id="_128917296" class="fil5" cx="2037.02" cy="3544.3" r="73.72"/>
    <circle id="_128917224" class="fil5" cx="2990.06" cy="3153.98" r="55.78"/>
    <circle id="_128917152" class="fil5" cx="1800.09" cy="3247.63" r="49.31"/>
    <circle id="_128917080" class="fil5" cx="2936.76" cy="3257.92" r="34.24"/>
    <circle id="_128917008" class="fil5" cx="1738.38" cy="3376.4" r="30.27"/>
    <circle id="_128916936" class="fil5" cx="3102.05" cy="3061.72" r="19.31"/>
    <circle id="_128916864" class="fil3" cx="1709.1" cy="3153.89" r="46.24"/>
    <circle id="_128916792" class="fil5" cx="3103.34" cy="3308.47" r="21.46"/>
    <circle id="_128916720" class="fil5" cx="1906.24" cy="3482.02" r="18.97"/>
    <path id="_103298208" class="fil9" d="M2043.38 4042.23c13.75,0 24.9,11.15 24.9,24.9 0,13.75 -11.15,24.9 -24.9,24.9 -13.74,0 -24.9,-11.15 -24.9,-24.9 0,-13.74 11.15,-24.9 24.9,-24.9zm815.89 352.46c14.24,0 25.79,11.55 25.79,25.79 0,14.24 -11.55,25.79 -25.79,25.79 -14.24,0 -25.79,-11.55 -25.79,-25.79 0,-14.24 11.55,-25.79 25.79,-25.79zm135.84 -429.87c10.45,0 18.91,8.47 18.91,18.91 0,10.45 -8.47,18.91 -18.91,18.91 -10.45,0 -18.91,-8.47 -18.91,-18.91 0,-10.45 8.47,-18.91 18.91,-18.91zm24.07 421.27c12.34,0 22.35,10.01 22.35,22.35 0,12.34 -10.01,22.35 -22.35,22.35 -12.34,0 -22.35,-10.01 -22.35,-22.35 0,-12.34 10.01,-22.35 22.35,-22.35zm-69.64 -111.77c9.97,0 18.06,8.08 18.06,18.05 0,9.97 -8.08,18.06 -18.06,18.06 -9.97,0 -18.05,-8.08 -18.05,-18.06 0,-9.97 8.08,-18.05 18.05,-18.05zm104.03 -192.58c8.55,0 15.48,6.93 15.48,15.48 0,8.55 -6.93,15.48 -15.48,15.48 -8.55,0 -15.48,-6.93 -15.48,-15.48 0,-8.55 6.93,-15.48 15.48,-15.48zm-183.13 -3.44c10.92,0 19.78,8.85 19.78,19.77 0,10.92 -8.85,19.78 -19.78,19.78 -10.92,0 -19.77,-8.85 -19.77,-19.78 0,-10.92 8.85,-19.77 19.77,-19.77zm-982.67 -113.49c5.7,0 10.32,4.62 10.32,10.32 0,5.7 -4.62,10.32 -10.32,10.32 -5.7,0 -10.32,-4.62 -10.32,-10.32 0,-5.7 4.62,-10.32 10.32,-10.32zm183.98 471.14c3.8,0 6.88,3.08 6.88,6.88 0,3.8 -3.08,6.88 -6.88,6.88 -3.8,0 -6.88,-3.08 -6.88,-6.88 0,-3.8 3.08,-6.88 6.88,-6.88zm-140.14 -89.41c11.87,0 21.49,9.62 21.49,21.49 0,11.87 -9.62,21.49 -21.49,21.49 -11.87,0 -21.49,-9.62 -21.49,-21.49 0,-11.87 9.62,-21.49 21.49,-21.49zm90.27 -104.89c12.34,0 22.35,10.01 22.35,22.35 0,12.34 -10.01,22.35 -22.35,22.35 -12.34,0 -22.35,-10.01 -22.35,-22.35 0,-12.34 10.01,-22.35 22.35,-22.35zm-153.03 -120.36c12.34,0 22.35,10.01 22.35,22.35 0,12.34 -10.01,22.35 -22.35,22.35 -12.34,0 -22.35,-10.01 -22.35,-22.35 0,-12.34 10.01,-22.35 22.35,-22.35z"/>
   </g>
  </g>
 </g>
</svg>
