<?xml version="1.0" encoding="UTF-8"?>
<!DOCTYPE svg PUBLIC "-//W3C//DTD SVG 1.1//EN" "http://www.w3.org/Graphics/SVG/1.1/DTD/svg11.dtd">
<!-- Creator: CorelDRAW 2020 (64-Bit) -->
<svg xmlns="http://www.w3.org/2000/svg" xml:space="preserve" width="161.908mm" height="176.791mm" version="1.1" style="shape-rendering:geometricPrecision; text-rendering:geometricPrecision; image-rendering:optimizeQuality; fill-rule:evenodd; clip-rule:evenodd"
viewBox="0 0 3180.31 3472.66"
 xmlns:xlink="http://www.w3.org/1999/xlink"
 xmlns:xodm="http://www.corel.com/coreldraw/odm/2003">
 <defs>
  <style type="text/css">
   <![CDATA[
    .fil0 {fill:none}
    .fil1 {fill:#501D33}
    .fil5 {fill:#75414C}
    .fil12 {fill:#856969}
    .fil9 {fill:#8E7A5D}
    .fil2 {fill:#955B58}
    .fil10 {fill:#AE9F90}
    .fil3 {fill:#BB8778}
    .fil7 {fill:#C3C077}
    .fil4 {fill:#CFA88B}
    .fil11 {fill:#D2C8AD}
    .fil6 {fill:#D77D75}
    .fil8 {fill:#EEF698}
   ]]>
  </style>
 </defs>
 <g id="Слой_x0020_1">
  <metadata id="CorelCorpID_0Corel-Layer"/>
  <g id="_2810324617152">
   <rect class="fil0" y="0" width="3180.31" height="3472.66"/>
   <g id="_130954272">
    <ellipse id="_129337096" class="fil1" cx="1600.38" cy="3112.3" rx="970.04" ry="55.37"/>
    <g>
     <g>
      <polygon id="_128916552" class="fil2" points="1168.87,2918.68 1044.71,3063.25 1044.71,3108.6 1394,3110.46 1384.9,2914.51 "/>
      <path id="_128916480" class="fil3" d="M1168.87 2918.68l-124.43 143.14 241.96 -3.88c0,0 73.6,-47.25 101.71,-74.19l-3.21 -69.23 -216.03 4.16z"/>
      <polygon id="_128916408" class="fil4" points="1138.37,2953.77 1044.43,3061.82 1131.38,3060.43 1074.77,3048.48 "/>
      <polygon id="_128916336" class="fil5" points="1258.9,3109.75 1394,3110.46 1385.64,2919.12 1332.37,2919.39 1258.31,3057.65 "/>
      <polygon id="_128916264" class="fil6" points="1408.56,3067.89 1212.09,3059.34 1406.4,3032.5 "/>
      <path id="_128916192" class="fil1" d="M1405.51 2909.58c0,0 39.9,176.2 4.36,206.88 -35.54,30.67 -376.48,21.65 -389.34,11.18 -12.86,-10.48 -19.31,-89.34 50.58,-106.21 0,0 57.34,-110.36 87.97,-129.06 30.63,-18.7 246.42,17.21 246.42,17.21z"/>
      <path id="_128916120" class="fil7" d="M1180.44 2918.11c0,0 -58.77,60.62 -92.95,141.56 0,0 -23.01,36.64 -0.71,45.27 22.3,8.63 271.23,13.62 297.07,-10.75 25.84,-24.38 -3.48,-161.44 -3.48,-161.44 0,0 -181.18,-27.7 -199.94,-14.64l0 0z"/>
      <path id="_128916048" class="fil8" d="M1180.44 2918.11c0,0 -58.77,60.62 -92.95,141.56 0,0 -11.51,18.33 -10.35,32.11 16.36,-4.65 30.42,-14.87 35.38,-32.71 13.8,-49.68 73.41,-136.33 73.41,-136.33 1.69,-2.66 2.66,-5.04 3.07,-7.17 -3.96,0.57 -6.9,1.39 -8.56,2.54z"/>
      <path id="_128915976" class="fil9" d="M1180.44 2918.11c0,0 -13.56,13.99 -31.44,37.49 45.57,-2.28 157.92,-3.79 240.39,29.46 -4.04,-29.06 -9.01,-52.32 -9.01,-52.32 0,0 -181.18,-27.7 -199.94,-14.64z"/>
      <path id="_128915904" class="fil9" d="M1263.81 3107.37c44.85,-2.42 95.16,6.32 121.43,-12.91 26.27,-19.23 -2.93,-161.17 -2.93,-161.17 0,0 -27.64,-4.48 -60.69,-8.68 -17.56,66.19 -37.68,126.92 -57.81,182.76z"/>
      <path id="_128915832" class="fil7" d="M1091.34 3045.77c27.92,4.42 25.38,25.44 24.77,40.53 -0.6,15.1 27.85,24.65 8.13,23.86 -13.71,-0.55 -75.24,0.69 -80.87,-8.23 -11.78,-18.65 20.06,-60.58 47.97,-56.16z"/>
      <path id="_128915760" class="fil1" d="M1066.37 3083.03c0.38,-27.8 22.96,-48.45 49.82,-52.51 32.42,-4.9 70.3,12.16 72.77,41.39 2.56,30.28 -14.65,47.99 -57.59,48.63 -42.94,0.64 -70.81,-9.91 -64.99,-37.5z"/>
      <path id="_128915688" class="fil7" d="M1084.67 3083.27c0.27,-19.66 16.24,-34.26 35.23,-37.14 22.93,-3.47 49.72,8.6 51.46,29.27 1.81,21.42 -10.36,33.94 -40.73,34.39 -30.37,0.45 -50.08,-7.01 -45.96,-26.52z"/>
      <path id="_128915616" class="fil1" d="M1112.7 3084.88c0.38,-27.8 22.96,-48.45 49.82,-52.51 32.42,-4.9 70.3,12.16 72.77,41.39 2.56,30.28 -14.65,47.99 -57.59,48.63 -42.94,0.64 -70.81,-9.91 -64.99,-37.5z"/>
      <path id="_128915544" class="fil7" d="M1130.99 3085.13c0.27,-19.66 16.24,-34.26 35.23,-37.14 22.93,-3.47 49.72,8.6 51.46,29.27 1.81,21.41 -10.36,33.93 -40.73,34.39 -30.37,0.45 -50.08,-7.01 -45.96,-26.52z"/>
      <path id="_128915472" class="fil1" d="M1196.05 3042.5c11.39,-14.92 28.83,-25.08 48.01,-28.13 40.05,-6.36 86.81,15.47 89.8,52.98 3.1,38.86 -18.2,61.62 -71.24,62.52 -35.63,0.6 -57.36,-3.63 -69.2,-18.31 -13.87,-17.2 -9.23,-53.55 2.62,-69.07z"/>
      <path id="_128915400" class="fil7" d="M1210.87 3063.79c4.87,-20.27 29.4,-33.16 53.71,-36.43 16.42,-2.21 38.57,0.94 51.73,8.02 37.07,19.94 52.29,64.53 51.61,65.02 -15.64,11.14 -61.1,17.57 -86.1,17.93 -42.73,0.61 -82.48,-6.43 -70.94,-54.54z"/>
      <path id="_128915328" class="fil8" d="M1210.87 3063.79c4.87,-20.27 29.4,-33.16 53.71,-36.43 16.42,-2.21 38.57,0.94 51.73,8.02 0.49,0.26 0.97,0.53 1.45,0.8 0.29,0.41 0.44,0.63 0.44,0.63 -69.48,-10.8 -101.29,26.48 -109.11,37.63 0.29,-3.31 0.88,-6.86 1.8,-10.66z"/>
      <path id="_128915256" class="fil9" d="M1218.65 3093.47c24.41,30.71 130.2,24.52 158.12,3.57 17.6,-13.2 -2.47,-42.35 -2.47,-42.35 0,0 -54.17,44 -155.65,38.77z"/>
     </g>
     <g>
      <polygon id="_128915160" class="fil2" points="2017.48,2918.68 2141.65,3063.25 2141.65,3108.6 1792.37,3110.46 1801.46,2914.51 "/>
      <path id="_128915088" class="fil3" d="M2017.48 2918.68l124.43 143.14 -241.96 -3.88c0,0 -73.6,-47.25 -101.71,-74.19l3.21 -69.23 216.02 4.16z"/>
      <polygon id="_128915016" class="fil4" points="2047.99,2953.77 2141.92,3061.82 2054.97,3060.43 2111.58,3048.48 "/>
      <polygon id="_128914944" class="fil5" points="1927.46,3109.75 1792.37,3110.46 1800.71,2919.12 1853.98,2919.39 1928.04,3057.65 "/>
      <polygon id="_128914872" class="fil6" points="1777.8,3067.89 1974.27,3059.34 1779.96,3032.5 "/>
      <path id="_128914800" class="fil1" d="M1780.84 2909.58c0,0 -39.9,176.2 -4.36,206.88 35.54,30.67 376.48,21.65 389.34,11.18 12.86,-10.48 19.31,-89.34 -50.58,-106.21 0,0 -57.34,-110.36 -87.97,-129.06 -30.63,-18.7 -246.42,17.21 -246.42,17.21z"/>
      <path id="_128914728" class="fil7" d="M2005.91 2918.11c0,0 58.77,60.62 92.95,141.56 0,0 23.01,36.64 0.71,45.27 -22.3,8.63 -271.23,13.62 -297.07,-10.75 -25.84,-24.38 3.48,-161.44 3.48,-161.44 0,0 181.18,-27.7 199.93,-14.64l-0 0z"/>
      <path id="_128914656" class="fil8" d="M2005.91 2918.11c0,0 58.77,60.62 92.95,141.56 0,0 11.51,18.33 10.35,32.11 -16.36,-4.65 -30.42,-14.87 -35.38,-32.71 -13.8,-49.68 -73.41,-136.33 -73.41,-136.33 -1.69,-2.66 -2.66,-5.04 -3.07,-7.17 3.96,0.57 6.9,1.39 8.56,2.54z"/>
      <path id="_128914584" class="fil9" d="M2005.91 2918.11c0,0 13.56,13.99 31.44,37.49 -45.57,-2.28 -157.92,-3.79 -240.38,29.46 4.04,-29.06 9.01,-52.32 9.01,-52.32 0,0 181.18,-27.7 199.93,-14.64z"/>
      <path id="_128914512" class="fil9" d="M1922.56 3107.37c-44.85,-2.42 -95.16,6.32 -121.43,-12.91 -26.27,-19.23 2.93,-161.17 2.93,-161.17 0,0 27.64,-4.48 60.69,-8.68 17.56,66.19 37.68,126.92 57.81,182.76z"/>
      <path id="_128914440" class="fil7" d="M2095.02 3045.77c-27.92,4.42 -25.38,25.44 -24.77,40.53 0.6,15.1 -27.85,24.65 -8.13,23.86 13.71,-0.55 75.24,0.69 80.87,-8.23 11.78,-18.65 -20.06,-60.58 -47.97,-56.16z"/>
      <path id="_128914368" class="fil1" d="M2119.98 3083.03c-0.38,-27.8 -22.96,-48.45 -49.82,-52.51 -32.42,-4.9 -70.3,12.16 -72.77,41.39 -2.56,30.28 14.65,47.99 57.59,48.63 42.94,0.64 70.81,-9.91 64.99,-37.5z"/>
      <path id="_128914296" class="fil7" d="M2101.69 3083.27c-0.27,-19.66 -16.24,-34.26 -35.23,-37.14 -22.93,-3.47 -49.72,8.6 -51.46,29.27 -1.81,21.42 10.36,33.94 40.73,34.39 30.37,0.45 50.08,-7.01 45.96,-26.52z"/>
      <path id="_128914224" class="fil1" d="M2073.66 3084.88c-0.38,-27.8 -22.96,-48.45 -49.82,-52.51 -32.42,-4.9 -70.3,12.16 -72.77,41.39 -2.56,30.28 14.65,47.99 57.59,48.63 42.94,0.64 70.81,-9.91 64.99,-37.5z"/>
      <path id="_128914152" class="fil7" d="M2055.36 3085.13c-0.27,-19.66 -16.24,-34.26 -35.23,-37.14 -22.93,-3.47 -49.72,8.6 -51.46,29.27 -1.81,21.41 10.36,33.93 40.73,34.39 30.37,0.45 50.08,-7.01 45.96,-26.52z"/>
      <path id="_128914080" class="fil1" d="M1990.3 3042.5c-11.39,-14.92 -28.83,-25.08 -48.01,-28.13 -40.05,-6.36 -86.81,15.47 -89.8,52.98 -3.1,38.86 18.2,61.62 71.24,62.52 35.63,0.6 57.36,-3.63 69.2,-18.31 13.87,-17.2 9.23,-53.55 -2.62,-69.07z"/>
      <path id="_128914008" class="fil7" d="M1975.48 3063.79c-4.87,-20.27 -29.4,-33.16 -53.71,-36.43 -16.42,-2.21 -38.57,0.94 -51.73,8.02 -37.07,19.94 -52.29,64.53 -51.61,65.02 15.64,11.14 61.1,17.57 86.1,17.93 42.73,0.61 82.48,-6.43 70.94,-54.54z"/>
      <path id="_128913936" class="fil8" d="M1975.48 3063.79c-4.87,-20.27 -29.4,-33.16 -53.71,-36.43 -16.42,-2.21 -38.57,0.94 -51.73,8.02 -0.49,0.26 -0.97,0.53 -1.45,0.8 -0.29,0.41 -0.44,0.63 -0.44,0.63 69.48,-10.8 101.29,26.48 109.11,37.63 -0.29,-3.31 -0.88,-6.86 -1.8,-10.66z"/>
      <path id="_128913864" class="fil9" d="M1967.71 3093.47c-24.41,30.71 -130.2,24.52 -158.12,3.57 -17.6,-13.2 2.47,-42.35 2.47,-42.35 0,0 54.17,44 155.65,38.77z"/>
     </g>
     <path id="_128913768" class="fil1" d="M1429.17 2234.18l-22.81 704.7 -262.07 -12.29 -29.91 -257.54 -122.91 -906.73c311.14,121.77 890.42,121.77 1201.56,0l-154.21 1147.98 -261.79 19.74 -21.71 -695.85 -326.16 0 -0 0.01z"/>
     <path id="_128913696" class="fil10" d="M1250.85 2202.8l146.62 26.93 -21.16 677.11 -202.9 -11.8 -134.2 -1087.51c330.01,101.65 776.07,101.65 1106.08,0l-133.1 1075.34 -205.11 9.59 -20.06 -662.73 146.62 -26.93 -682.8 0 0 0z"/>
     <path id="_128913624" class="fil11" d="M1190.69 2895.7l-17.3 -0.86 -134.18 -1087.31c9.33,2.87 18.71,5.65 28.1,8.35l90.72 639.62 32.66 440.19 0 0z"/>
     <path id="_128913552" class="fil11" d="M1042.39 1832.93l-3.18 -25.39c330.01,101.65 776.07,101.65 1106.08,0l-1.73 13.83c-197.5,79.57 -310.42,105.25 -577.13,104.16 -282.56,-1.16 -490.19,-82.64 -524.04,-92.6l0 0z"/>
     <path id="_128913480" class="fil12" d="M1262.82 2205.01l134.65 24.73 -18.95 679.31 -63.31 -5.13c6.33,-348 -46.68,-679.3 -52.39,-698.91z"/>
     <path id="_128913408" class="fil11" d="M2011.08 2883.99l134.2 -1076.45c-9.33,2.87 -18.71,5.65 -28.1,8.35l-81.29 561.26 -24.81 506.84 0 -0z"/>
     <path id="_128913336" class="fil12" d="M1921.67 2205.01l-134.65 24.73 21.16 663.84 53.92 -5.01c-3.22,-184.99 6.79,-502.07 59.56,-683.55z"/>
     <path id="_128913264" class="fil12" d="M1884.51 2186.14l-574.51 -4.16c0,0 300.8,-81.84 574.51,4.16z"/>
     <polygon id="_128913192" class="fil12" points="1809.55,2771.97 1996.11,2785.22 1804.03,2802.88 "/>
     <polygon id="_128913120" class="fil12" points="1362.93,2775.28 1190.36,2788.53 1368.03,2806.19 "/>
     <polygon id="_128913048" class="fil11" points="1151.27,2513.4 1314.1,2523.88 1139.69,2477.51 "/>
     <polygon id="_128912976" class="fil11" points="2068.49,2322.54 1891.55,2332.49 2067.39,2289.36 "/>
     <polygon id="_128912904" class="fil1" points="1777.01,2334.12 2092.17,2273.96 2086.11,2294.38 1782.53,2355.1 "/>
     <polygon id="_128912832" class="fil1" points="1113.61,2457.78 1408.29,2530.36 1402.62,2542.24 1112.37,2485.77 "/>
     <path id="_128912760" class="fil1" d="M1892.91 2276.16c0,0 -44.97,39.42 -56.08,99.83 33.23,-28.84 54.03,-59.94 56.08,-99.83z"/>
     <path id="_128912688" class="fil1" d="M1238.05 2453.51c0,0 -53.78,19.88 -85.03,71.84 39.64,-14.43 69.07,-35.56 85.03,-71.84z"/>
     <path id="_128912616" class="fil1" d="M1970.27 2255.68c0,0 12.38,58.5 59.64,97.75 -8.9,-43.09 -25.85,-76.45 -59.64,-97.75z"/>
     <path id="_128912544" class="fil1" d="M1313.81 2463.26c0,0 -9.77,58.91 18.15,112.91 7.39,-43.31 4.22,-80.57 -18.15,-112.91z"/>
     <polygon id="_128912472" class="fil1" points="1789.05,2653.93 2050.03,2718.08 2047.82,2732.45 1784.62,2680.47 "/>
     <path id="_128912400" class="fil1" d="M1861.99 2637.77c0,0 0.84,59.79 39.62,107.43 -0.41,-44 -10.58,-80 -39.62,-107.43z"/>
     <path id="_128912328" class="fil1" d="M1991.68 2660.01c0,0 -39.5,35.59 -48.65,89.44 29.19,-26.05 47.31,-53.94 48.65,-89.44z"/>
    </g>
    <g>
     <path class="fil1" d="M1917.35 1800.72l0.36 -0.07c9.81,-1.82 19.24,4.65 21.06,14.46l16.43 88.43c1.82,9.81 -4.65,19.24 -14.46,21.06l-0.36 0.07c-9.81,1.82 -19.24,-4.66 -21.06,-14.46l-16.43 -88.42c-1.82,-9.81 4.65,-19.24 14.46,-21.06z"/>
     <path class="fil1" d="M1602.69 1817.88l0.36 0.02c9.96,0.5 17.61,8.45 17.07,17.76l-4.82 83.95c-0.53,9.31 -9.05,16.45 -19.01,15.96l-0.36 -0.02c-9.96,-0.5 -17.6,-8.46 -17.07,-17.77l4.82 -83.95c0.54,-9.31 9.05,-16.46 19.01,-15.96z"/>
     <path class="fil1" d="M1790.57 1807.41l0.36 0.02c9.96,0.56 17.58,9.09 17.02,19.06l-5.08 89.8c-0.56,9.96 -9.1,17.58 -19.06,17.01l-0.36 -0.02c-9.96,-0.57 -17.58,-9.1 -17.01,-19.06l5.08 -89.79c0.57,-9.96 9.1,-17.58 19.06,-17.02z"/>
     <path class="fil1" d="M1403.09 1810.15l0.35 -0.08c9.71,-2.31 19.45,3.69 21.75,13.4l20.78 87.51c2.31,9.7 -3.69,19.44 -13.4,21.75l-0.36 0.09c-9.7,2.3 -19.44,-3.7 -21.75,-13.4l-20.79 -87.5c-2.3,-9.71 3.7,-19.45 13.4,-21.75z"/>
     <path class="fil1" d="M1154.51 1783.33l0.36 0.04c9.92,1.06 17.11,9.96 16.05,19.88l-9.56 89.43c-1.06,9.92 -9.96,17.1 -19.88,16.04l-0.36 -0.04c-9.92,-1.06 -17.1,-9.96 -16.04,-19.88l9.55 -89.43c1.06,-9.92 9.96,-17.11 19.88,-16.05z"/>
     <path class="fil1" d="M1281.01 1805.33l0.29 -0.05c7.93,-1.52 15.58,3.68 17.1,11.61l13.65 71.46c1.52,7.92 -3.68,15.58 -11.61,17.09l-0.29 0.06c-7.92,1.51 -15.58,-3.69 -17.09,-11.61l-13.65 -71.45c-1.51,-7.93 3.69,-15.58 11.61,-17.1z"/>
     <path class="fil1" d="M2082.48 1775.18l0.28 0.08c7.79,2.11 12.39,10.14 10.27,17.93l-19.06 70.2c-2.11,7.79 -10.14,12.39 -17.93,10.27l-0.28 -0.08c-7.79,-2.11 -12.39,-10.14 -10.27,-17.93l19.06 -70.2c2.12,-7.79 10.14,-12.39 17.93,-10.27z"/>
    </g>
   </g>
  </g>
 </g>
</svg>
