<?xml version="1.0" encoding="UTF-8"?>
<!DOCTYPE svg PUBLIC "-//W3C//DTD SVG 1.1//EN" "http://www.w3.org/Graphics/SVG/1.1/DTD/svg11.dtd">
<!-- Creator: CorelDRAW 2020 (64-Bit) -->
<svg xmlns="http://www.w3.org/2000/svg" xml:space="preserve" width="161.908mm" height="176.792mm" version="1.1" style="shape-rendering:geometricPrecision; text-rendering:geometricPrecision; image-rendering:optimizeQuality; fill-rule:evenodd; clip-rule:evenodd"
viewBox="0 0 24973.34 27269.1"
 xmlns:xlink="http://www.w3.org/1999/xlink"
 xmlns:xodm="http://www.corel.com/coreldraw/odm/2003">
 <defs>
  <style type="text/css">
   <![CDATA[
    .fil0 {fill:none}
    .fil1 {fill:#501D33}
    .fil18 {fill:#715C60}
    .fil5 {fill:#75414C}
    .fil14 {fill:#785954}
    .fil11 {fill:#885B54}
    .fil9 {fill:#8E7A5D}
    .fil2 {fill:#955B58}
    .fil19 {fill:#9C8778}
    .fil17 {fill:#9C8977}
    .fil10 {fill:#9E7A65}
    .fil15 {fill:#A18C75}
    .fil20 {fill:#A5876E}
    .fil13 {fill:#AB937E}
    .fil3 {fill:#BB8778}
    .fil16 {fill:#BFB19F}
    .fil12 {fill:#C0A986}
    .fil7 {fill:#C3C077}
    .fil21 {fill:#CDB594}
    .fil4 {fill:#CFA88B}
    .fil6 {fill:#D77D75}
    .fil8 {fill:#EEF698}
   ]]>
  </style>
 </defs>
 <g id="Слой_x0020_1">
  <metadata id="CorelCorpID_0Corel-Layer"/>
  <g id="_2810252569280">
   <rect class="fil0" y="0.01" width="24973.34" height="27269.1"/>
   <g id="_103541400">
    <ellipse id="_103654072" class="fil1" cx="12567.05" cy="24439.31" rx="7617.26" ry="434.77"/>
    <g>
     <polygon id="_103654000" class="fil2" points="9178.57,22918.92 8203.63,24054.17 8203.63,24410.31 10946.35,24424.96 10874.97,22886.22 "/>
     <path id="_103653928" class="fil3" d="M9178.57 22918.92l-977.12 1124.01 1899.99 -30.48c0,0 577.95,-371.03 798.71,-582.56l-25.23 -543.66 -1696.35 32.7z"/>
     <polygon id="_103653856" class="fil4" points="8939.03,23194.48 8201.48,24042.93 8884.21,24031.98 8439.61,23938.26 "/>
     <polygon id="_103653784" class="fil5" points="9885.51,24419.33 10946.35,24424.96 10880.81,22922.39 10462.46,22924.53 9880.93,24010.23 "/>
     <polygon id="_103653712" class="fil6" points="11060.72,24090.65 9517.91,24023.48 11043.77,23812.72 "/>
     <path id="_103653640" class="fil1" d="M11036.75 22847.52c0,0 313.33,1383.65 34.26,1624.51 -279.06,240.85 -2956.32,170.04 -3057.3,87.78 -100.98,-82.26 -151.62,-701.58 397.21,-834.01 0,0 450.27,-866.62 690.8,-1013.43 240.54,-146.81 1935.04,135.15 1935.04,135.15z"/>
     <path id="_103653568" class="fil7" d="M9269.42 22914.48c0,0 -461.51,476.01 -729.88,1111.59 0,0 -180.68,287.74 -5.57,355.47 175.13,67.73 2129.88,106.98 2332.74,-84.42 202.88,-191.42 -27.3,-1267.72 -27.3,-1267.72 0,0 -1422.75,-217.48 -1569.99,-114.93z"/>
     <path id="_103653496" class="fil8" d="M9269.42 22914.48c0,0 -461.51,476.01 -729.88,1111.59 0,0 -90.36,143.93 -81.27,252.16 128.44,-36.53 238.89,-116.73 277.81,-256.85 108.36,-390.08 576.46,-1070.56 576.46,-1070.56 13.23,-20.92 20.92,-39.55 24.08,-56.31 -31.08,4.44 -54.17,10.91 -67.19,19.97z"/>
     <path id="_103653424" class="fil9" d="M9269.42 22914.48c0,0 -106.47,109.84 -246.87,294.41 357.86,-17.92 1240.08,-29.74 1887.62,231.37 -31.76,-228.2 -70.77,-410.84 -70.77,-410.84 0,0 -1422.73,-217.48 -1569.99,-114.93z"/>
     <path id="_103653352" class="fil9" d="M9923.97 24400.7c352.19,-19 747.24,49.65 953.52,-101.38 206.29,-151.04 -22.98,-1265.56 -22.98,-1265.56 0,0 -217.04,-35.2 -476.58,-68.19 -137.86,519.74 -295.89,996.63 -453.96,1435.13z"/>
     <path id="_103653280" class="fil7" d="M8569.74 23916.94c219.24,34.72 199.27,199.73 194.52,318.28 -4.75,118.54 218.7,193.53 63.81,187.33 -107.68,-4.32 -590.8,5.38 -635.04,-64.64 -92.48,-146.42 157.48,-475.67 376.71,-440.97z"/>
     <path id="_103653208" class="fil1" d="M8373.7 24209.53c2.95,-218.3 180.28,-380.46 391.19,-412.36 254.58,-38.51 552.04,95.49 571.41,324.99 20.08,237.8 -115.07,376.82 -452.26,381.83 -337.19,5.01 -556.07,-77.82 -510.35,-294.47z"/>
     <path id="_103653136" class="fil7" d="M8517.36 24211.38c2.08,-154.38 127.5,-269.05 276.65,-291.61 180.03,-27.24 390.39,67.54 404.1,229.84 14.19,168.17 -81.38,266.49 -319.84,270.02 -238.46,3.55 -393.25,-55.02 -360.92,-208.24z"/>
     <path id="_103653064" class="fil1" d="M8737.51 24224.1c2.95,-218.3 180.28,-380.44 391.19,-412.36 254.58,-38.51 552.04,95.51 571.41,325.01 20.08,237.8 -115.07,376.82 -452.26,381.83 -337.19,5.01 -556.07,-77.82 -510.35,-294.48z"/>
     <path id="_103652992" class="fil7" d="M8881.19 24225.95c2.1,-154.38 127.5,-269.06 276.65,-291.61 180.03,-27.24 390.39,67.53 404.1,229.84 14.19,168.16 -81.38,266.47 -319.84,270.02 -238.46,3.55 -393.25,-55.03 -360.92,-208.24z"/>
     <path id="_103652920" class="fil1" d="M9392 23891.27c89.46,-117.18 226.35,-196.95 376.97,-220.86 314.52,-49.91 681.68,121.5 705.17,416.04 24.32,305.17 -142.88,483.88 -559.38,490.96 -279.8,4.74 -450.44,-28.54 -543.36,-143.74 -108.88,-135.03 -72.45,-420.52 20.59,-542.4z"/>
     <path id="_103652848" class="fil7" d="M9508.44 24058.47c38.21,-159.16 230.89,-260.36 421.73,-286.06 128.96,-17.35 302.86,7.4 406.17,62.98 291.06,156.59 410.63,506.74 405.26,510.58 -122.82,87.47 -479.82,138 -676.11,140.81 -335.56,4.81 -647.7,-50.53 -557.05,-428.31z"/>
     <path id="_103652776" class="fil8" d="M9508.44 24058.47c38.21,-159.16 230.89,-260.36 421.73,-286.06 128.96,-17.35 302.86,7.4 406.17,62.98 3.83,2.05 7.59,4.18 11.35,6.31 2.28,3.19 3.46,4.98 3.46,4.98 -545.61,-84.79 -795.36,207.95 -856.81,295.52 2.31,-25.99 6.93,-53.83 14.1,-83.72z"/>
     <path id="_103652704" class="fil9" d="M9569.4 24291.49c191.71,241.18 1022.39,192.53 1241.67,28.07 138.2,-103.65 -19.43,-332.55 -19.43,-332.55 0,0 -425.41,345.51 -1222.23,304.48z"/>
    </g>
    <g>
     <polygon id="_103652608" class="fil2" points="15842.26,22918.92 16817.28,24054.17 16817.28,24410.31 14074.58,24424.96 14145.96,22886.22 "/>
     <path id="_103652536" class="fil3" d="M15842.34 22918.92l977.12 1124.01 -1899.99 -30.48c0,0 -577.94,-371.03 -798.69,-582.56l25.23 -543.66 1696.33 32.7z"/>
     <polygon id="_103589944" class="fil4" points="16081.8,23194.48 16819.43,24042.93 16136.62,24031.98 16581.23,23938.26 "/>
     <polygon id="_103589872" class="fil5" points="15135.41,24419.33 14074.58,24424.96 14140.11,22922.39 14558.38,22924.53 15139.99,24010.23 "/>
     <polygon id="_103589800" class="fil6" points="13960.2,24090.65 15503,24023.48 13977.14,23812.72 "/>
     <path id="_103589728" class="fil1" d="M13984.1 22847.52c0,0 -313.33,1383.65 -34.26,1624.51 279.06,240.85 2956.3,170.04 3057.29,87.78 100.98,-82.26 151.62,-701.58 -397.21,-834.01 0,0 -450.27,-866.62 -690.8,-1013.43 -240.54,-146.81 -1935.02,135.15 -1935.02,135.15z"/>
     <path id="_103589656" class="fil7" d="M15751.41 22914.48c0,0 461.51,476.01 729.88,1111.59 0,0 180.68,287.74 5.57,355.47 -175.13,67.73 -2129.86,106.98 -2332.73,-84.42 -202.88,-191.42 27.3,-1267.72 27.3,-1267.72 0,0 1422.73,-217.48 1569.97,-114.93z"/>
     <path id="_103589584" class="fil8" d="M15751.41 22914.48c0,0 461.51,476.01 729.88,1111.59 0,0 90.36,143.93 81.27,252.16 -128.44,-36.53 -238.89,-116.73 -277.81,-256.85 -108.36,-390.08 -576.46,-1070.56 -576.46,-1070.56 -13.23,-20.92 -20.92,-39.55 -24.08,-56.31 31.08,4.44 54.17,10.91 67.19,19.97z"/>
     <path id="_103589512" class="fil9" d="M15751.41 22914.48c0,0 106.47,109.84 246.87,294.41 -357.86,-17.92 -1240.08,-29.74 -1887.61,231.37 31.76,-228.2 70.77,-410.84 70.77,-410.84 0,0 1422.72,-217.48 1569.97,-114.93z"/>
     <path id="_103589440" class="fil9" d="M15096.86 24400.7c-352.19,-19 -747.22,49.65 -953.51,-101.38 -206.29,-151.04 22.98,-1265.56 22.98,-1265.56 0,0 217.02,-35.2 476.57,-68.19 137.86,519.74 295.89,996.63 453.96,1435.13z"/>
     <path id="_103589368" class="fil7" d="M16451.09 23916.94c-219.24,34.72 -199.27,199.73 -194.52,318.28 4.75,118.54 -218.7,193.53 -63.81,187.33 107.68,-4.32 590.8,5.38 635.04,-64.64 92.48,-146.42 -157.48,-475.67 -376.71,-440.97z"/>
     <path id="_103589296" class="fil1" d="M16647.21 24209.53c-2.95,-218.3 -180.28,-380.46 -391.19,-412.36 -254.58,-38.51 -552.04,95.49 -571.41,324.99 -20.08,237.8 115.07,376.82 452.26,381.83 337.19,5.01 556.07,-77.82 510.35,-294.47z"/>
     <path id="_103589224" class="fil7" d="M16503.55 24211.38c-2.08,-154.38 -127.5,-269.05 -276.65,-291.61 -180.03,-27.24 -390.39,67.54 -404.1,229.84 -14.19,168.17 81.38,266.49 319.84,270.02 238.46,3.55 393.25,-55.02 360.92,-208.24z"/>
     <path id="_103589152" class="fil1" d="M16283.38 24224.1c-2.95,-218.3 -180.28,-380.44 -391.19,-412.36 -254.58,-38.51 -552.04,95.51 -571.41,325.01 -20.08,237.8 115.07,376.82 452.26,381.83 337.19,5.01 556.07,-77.82 510.35,-294.48z"/>
     <path id="_103589080" class="fil7" d="M16139.72 24225.95c-2.1,-154.38 -127.5,-269.06 -276.65,-291.61 -180.03,-27.24 -390.39,67.53 -404.1,229.84 -14.19,168.16 81.38,266.47 319.84,270.02 238.46,3.55 393.25,-55.03 360.92,-208.24z"/>
     <path id="_103589008" class="fil1" d="M15628.83 23891.27c-89.46,-117.18 -226.35,-196.95 -376.97,-220.86 -314.52,-49.91 -681.68,121.5 -705.17,416.04 -24.32,305.17 142.88,483.88 559.38,490.96 279.8,4.74 450.44,-28.54 543.36,-143.74 108.88,-135.03 72.45,-420.52 -20.59,-542.4z"/>
     <path id="_103588936" class="fil7" d="M15512.47 24058.47c-38.21,-159.16 -230.89,-260.36 -421.73,-286.06 -128.96,-17.35 -302.86,7.4 -406.17,62.98 -291.06,156.59 -410.61,506.74 -405.25,510.58 122.81,87.47 479.81,138 676.1,140.81 335.56,4.81 647.7,-50.53 557.05,-428.31z"/>
     <path id="_103588864" class="fil8" d="M15512.47 24058.47c-38.21,-159.16 -230.89,-260.36 -421.73,-286.06 -128.96,-17.35 -302.86,7.4 -406.17,62.98 -3.83,2.05 -7.59,4.18 -11.35,6.31 -2.28,3.19 -3.46,4.98 -3.46,4.98 545.61,-84.79 795.36,207.95 856.81,295.52 -2.31,-25.99 -6.93,-53.83 -14.1,-83.72z"/>
     <path id="_103588792" class="fil9" d="M15451.44 24291.49c-191.71,241.18 -1022.39,192.53 -1241.65,28.07 -138.2,-103.65 19.43,-332.55 19.43,-332.55 0,0 425.39,345.51 1222.22,304.48z"/>
    </g>
    <path id="_103588696" class="fil1" d="M11222.59 17543.91l-179.12 5533.62 -2057.89 -96.53 -234.9 -2022.34 -965.15 -7120.12c2443.21,956.22 6992.06,956.22 9435.27,0l-1210.94 9014.55 -2055.67 154.97 -170.44 -5464.16 -2561.15 0 0 0.02z"/>
    <polygon id="_103588624" class="fil10" points="15994.36,21073.68 15800.69,22637.87 14207.52,22782.57 14147.81,21315.74 "/>
    <polygon id="_103588552" class="fil11" points="14793.18,22729.38 14207.52,22782.57 14147.81,21315.74 14726.46,21239.91 "/>
    <polygon id="_103588480" class="fil10" points="10889.68,20194.46 10807.42,22826 9214.24,22733.38 8919.51,20345.45 "/>
    <polygon id="_103588408" class="fil12" points="9102.9,20596.37 10276.04,20232.4 9044.3,20334.28 "/>
    <path id="_103588336" class="fil11" d="M10889.68 20194.46l-82.24 2631.56 -906.38 -52.71c159.61,-778.32 214.89,-1677.81 219.09,-2519.89l769.54 -58.97z"/>
    <polygon id="_103588264" class="fil12" points="9390.23,22743.59 9214.24,22733.38 8919.51,20345.45 9146.17,20328.06 "/>
    <polygon id="_103588192" class="fil13" points="9822.25,17297.55 10973.65,17509.07 10945.02,18423.87 9145.37,17227.43 11303.36,15881.48 12553.3,17297.55 "/>
    <path id="_103588120" class="fil14" d="M12056.17 16734.36l334.77 379.27c-1231.62,31.9 -2362.62,98.05 -2362.62,98.05 0,0 1123.27,-277.16 2027.85,-477.32z"/>
    <path id="_103588048" class="fil14" d="M9959.4 17322.71l1014.22 186.28 -28.6 914.87 -936.11 -622.33c-23.65,-256.89 -43.36,-427.24 -49.51,-478.82z"/>
    <polygon id="_103587976" class="fil10" points="16443.55,17444.04 16190.62,19487.45 14068.58,18497.7 14032.64,17509.07 15184.01,17297.55 13520.99,17297.55 14908.73,16531.22 "/>
    <path id="_103587904" class="fil11" d="M13881.28 17098.64l380.4 -210.07c339.46,132.88 619.51,252.13 619.51,252.13 -271.65,-25 -617.89,-37.73 -999.9,-42.06z"/>
    <path id="_103587832" class="fil11" d="M14633.76 18761.28l-565.17 -263.62 -35.95 -988.67 1077.32 -197.88c-89.4,94.88 -411.79,499.03 -476.2,1450.17zm489.46 -1463.76l-78.16 0 87.92 -9.25c0,0 -3.47,3.05 -9.76,9.25z"/>
    <polygon id="_103587760" class="fil15" points="16170.57,19671.22 16011.67,20846.49 14143.15,21160.83 14067.25,18652.25 "/>
    <polygon id="_103587688" class="fil16" points="14574.94,18910.72 15883.91,19851.28 16000.95,20848.13 16169.98,19669.21 "/>
    <polygon id="_103587616" class="fil14" points="14718.98,21063.92 14143.15,21160.83 14067.25,18652.25 14633.02,18926.33 "/>
    <path id="_103587544" class="fil17" d="M10938.52 18632.04l-42.65 1364.51c-522.26,45.95 -1333.64,117.1 -1997.88,174.34l-304.77 -2612.94 350.75 -193.36 1994.55 1267.45z"/>
    <polygon id="_103587472" class="fil16" points="9980.64,18026.54 8953.46,17346.09 8589.35,17571.43 8940.44,17536.72 "/>
    <path id="_103587400" class="fil18" d="M10938.52 18632.04l-42.65 1364.51c-218.55,19.23 -487.7,42.8 -775.55,68.01 -3.01,-782.05 -47.49,-1501.23 -89.23,-2009.15l907.43 576.64z"/>
    <polygon id="_103587328" class="fil16" points="9128.28,20150.96 8897.97,20170.94 8593.19,17557.96 8851.89,17415.41 "/>
    <path id="_103587256" class="fil10" d="M8551.02 17359.04l-390.62 -3165.29c1025.48,315.85 1075.41,289.92 2147.63,446.81l865.71 1106.08 -2622.72 1612.39z"/>
    <path id="_103587184" class="fil12" d="M8551.02 17359.04l-381.74 -3093.3c217.48,54.68 374.91,103.82 374.91,103.82l284.77 2818.61 -277.93 170.87z"/>
    <path id="_103587112" class="fil12" d="M8160.35 14193.68c726.23,223.67 963.21,275.99 1420.5,343.18 241.45,44.13 487.24,82.43 736.13,115.13l263.54 336.71c-1310.26,-193.88 -2204.38,-539.53 -2395.18,-595.64l-24.99 -199.38z"/>
    <path id="_103587040" class="fil19" d="M10478.73 14672.46c1347.85,162.82 2683.6,179.23 4028.12,10.18l313.42 1703.7 -1601.08 911.23 -397.15 0 -2343.31 -2625.11z"/>
    <path id="_103586968" class="fil18" d="M14068.73 16814.12l-496.77 282.73c-297.61,-0.11 -609.45,3.9 -919.65,10.55l-375.97 -421.18c422.43,-90.94 765.02,-156.1 868.07,-153.38 155.56,4.09 550.36,139.36 924.32,281.28z"/>
    <path id="_103586896" class="fil16" d="M10478.73 14672.46l14.9 1.77 48.2 5.72c1326.44,155.79 2641.49,169.1 3965.01,2.68l55.62 302.33c-623.39,100.43 -1320.72,139.13 -2262.13,135.27 -543.76,-2.24 -1052.05,-42.42 -1513.71,-102.87l-307.9 -344.92z"/>
    <path id="_103586824" class="fil20" d="M14648.84 14658.54c788.73,-99.3 1503.85,-251.34 2197.05,-464.85l-381.21 3071.97 -1457.99 -906.57 -357.85 -1700.56z"/>
    <path id="_103586752" class="fil21" d="M14648.84 14658.54c788.73,-99.3 1503.85,-251.34 2197.05,-464.85l-13.62 108.63c-797.47,321.29 -1419.37,530.65 -2120.12,657.11l-63.32 -300.9z"/>
    <path id="_103586680" class="fil1" d="M9304.93 19734.24c0,0 -118.63,474.84 138.88,910.09 89.25,-349.1 71.38,-649.44 -138.88,-910.09z"/>
    <path id="_103586608" class="fil1" d="M10398.69 19771.46c0,0 -348.36,343.79 -354.88,849.48 257.85,-251.71 398.84,-517.5 354.88,-849.48z"/>
    <path id="_103586536" class="fil1" d="M14921.02 20671.4c0,0 -44.72,487.4 276.24,878.2 34.89,-358.65 -28.63,-652.73 -276.24,-878.2z"/>
    <path id="_103586464" class="fil1" d="M14907.69 18438.74c0,0 -436.63,221.14 -597.09,700.72 322.32,-161.05 537.68,-371.14 597.09,-700.72z"/>
    <path id="_103586392" class="fil1" d="M15563.37 18832.82c0,0 -170.72,458.69 36.77,919.88 127.53,-337.01 143.18,-637.48 -36.77,-919.88z"/>
    <path id="_103586320" class="fil1" d="M15791.07 16405.76c0,0 -271.11,407.48 -174.6,903.9 201.23,-298.89 285.2,-587.82 174.6,-903.9z"/>
    <path id="_103586248" class="fil1" d="M15220.78 15600.96c0,0 -383.11,-179.76 -774.63,18.57 281.45,134.18 534.01,155.77 774.63,-18.57z"/>
    <path id="_103586176" class="fil1" d="M12233.86 16155.64c0,0 -526.19,-88.95 -934.83,284.29 387.28,67.91 701.41,8.82 934.83,-284.29z"/>
    <path id="_103586104" class="fil1" d="M12559.59 16627.32c0,0 -391.16,112.18 -549.22,503.48 288.7,-80.89 485.25,-225.01 549.22,-503.48z"/>
    <path id="_103586032" class="fil1" d="M10765.1 16587.07c0,0 -374.66,-417.14 -954.77,-377.3 274.14,309.03 571.15,465.79 954.77,377.3z"/>
    <path id="_103585960" class="fil1" d="M10418.82 17611.22c0,0 -525.88,194.47 -702.71,748.42 388.33,-140.9 643.54,-359.2 702.71,-748.42z"/>
    <path id="_103541568" class="fil1" d="M14481.95 17077.03c0,0 -64.63,-328.03 -518.92,-550.17 117.26,340.73 200.05,447.94 518.92,550.17z"/>
    <path id="_103541496" class="fil1" d="M16947.93 14361.84c0,0 -720.77,451.55 -1841,633.91 0,0 1215.75,8.68 1814.94,-191.05 2.61,-20.87 52.83,-456.25 26.05,-442.87z"/>
    <path id="_103541424" class="fil1" d="M7967.85 14179.48c0,0 720.77,451.55 1841,633.91 0,0 -1215.75,8.68 -1814.94,-191.05 -2.61,-20.87 -52.83,-456.25 -26.05,-442.87z"/>
   </g>
  </g>
 </g>
</svg>
