<?xml version="1.0" encoding="UTF-8"?>
<!DOCTYPE svg PUBLIC "-//W3C//DTD SVG 1.1//EN" "http://www.w3.org/Graphics/SVG/1.1/DTD/svg11.dtd">
<!-- Creator: CorelDRAW 2020 (64-Bit) -->
<svg xmlns="http://www.w3.org/2000/svg" xml:space="preserve" width="161.908mm" height="176.791mm" version="1.1" style="shape-rendering:geometricPrecision; text-rendering:geometricPrecision; image-rendering:optimizeQuality; fill-rule:evenodd; clip-rule:evenodd"
viewBox="0 0 15595.85 17029.52"
 xmlns:xlink="http://www.w3.org/1999/xlink"
 xmlns:xodm="http://www.corel.com/coreldraw/odm/2003">
 <defs>
  <style type="text/css">
   <![CDATA[
    .fil0 {fill:none}
    .fil1 {fill:#501D33}
    .fil12 {fill:#694E5C}
    .fil5 {fill:#75414C}
    .fil9 {fill:#8E7A5D}
    .fil10 {fill:#907976}
    .fil2 {fill:#955B58}
    .fil11 {fill:#AF9E9C}
    .fil3 {fill:#BB8778}
    .fil7 {fill:#C3C077}
    .fil4 {fill:#CFA88B}
    .fil6 {fill:#D77D75}
    .fil8 {fill:#EEF698}
   ]]>
  </style>
 </defs>
 <g id="Слой_x0020_1">
  <metadata id="CorelCorpID_0Corel-Layer"/>
  <g id="_2810096406576">
   <rect class="fil0" y="0" width="15595.86" height="17029.52"/>
   <g id="_130953456">
    <g>
     <ellipse id="_103398824" class="fil1" cx="7848.08" cy="15262.35" rx="4756.96" ry="271.51"/>
     <polygon id="_103398752" class="fil2" points="5732.04,14312.87 5123.15,15021.81 5123.15,15244.24 6836,15253.37 6791.39,14292.44 "/>
     <path id="_103398680" class="fil3" d="M5732.01 14312.87l-610.21 701.94 1186.55 -19.03c0,0 360.93,-231.71 498.79,-363.81l-15.76 -339.52 -1059.37 20.42z"/>
     <polygon id="_103339984" class="fil4" points="5582.46,14484.95 5121.8,15014.81 5548.18,15007.97 5270.54,14949.41 "/>
     <polygon id="_103339912" class="fil5" points="6173.5,15249.84 6836,15253.37 6795.05,14315.04 6533.8,14316.36 6170.63,14994.36 "/>
     <polygon id="_103339840" class="fil6" points="6907.42,15044.57 5943.92,15002.62 6896.82,14871.04 "/>
     <path id="_103339768" class="fil1" d="M6892.45 14268.28c0,0 195.68,864.09 21.39,1014.51 -174.27,150.41 -1846.22,106.19 -1909.28,54.82 -63.06,-51.37 -94.69,-438.14 248.06,-520.84 0,0 281.19,-541.2 431.4,-632.89 150.22,-91.68 1208.43,84.4 1208.43,84.4l-0.01 0z"/>
     <path id="_103339696" class="fil7" d="M5788.78 14310.07c0,0 -288.22,297.27 -455.81,694.19 0,0 -112.84,179.7 -3.48,221.99 109.37,42.3 1330.11,66.81 1456.8,-52.72 126.7,-119.54 -17.05,-791.69 -17.05,-791.69 0,0 -888.51,-135.82 -980.46,-71.77z"/>
     <path id="_103339624" class="fil8" d="M5788.78 14310.07c0,0 -288.22,297.27 -455.81,694.19 0,0 -56.43,89.88 -50.75,157.47 80.21,-22.81 149.19,-72.9 173.49,-160.4 67.67,-243.61 360,-668.57 360,-668.57 8.26,-13.06 13.06,-24.7 15.04,-35.17 -19.41,2.77 -33.83,6.81 -41.96,12.47z"/>
     <path id="_103339480" class="fil9" d="M6197.53 15238.19c219.94,-11.87 466.65,31.01 595.47,-63.31 128.83,-94.32 -14.35,-790.34 -14.35,-790.34 0,0 -135.54,-21.98 -297.63,-42.59 -86.1,324.58 -184.78,622.4 -283.5,896.24z"/>
     <path id="_103339408" class="fil7" d="M5351.81 14936.12c136.92,21.68 124.44,124.73 121.48,198.77 -2.97,74.03 136.58,120.86 39.85,116.99 -67.24,-2.7 -368.96,3.36 -396.58,-40.37 -57.76,-91.44 98.35,-297.06 235.26,-275.38z"/>
     <path id="_103339336" class="fil1" d="M5229.38 15118.84c1.84,-136.33 112.59,-237.6 244.3,-257.52 158.99,-24.05 344.75,59.64 356.85,202.96 12.54,148.5 -71.86,235.32 -282.44,238.45 -210.58,3.13 -347.26,-48.6 -318.71,-183.89z"/>
     <path id="_103339264" class="fil7" d="M5319.1 15120c1.3,-96.41 79.62,-168.02 172.77,-182.11 112.43,-17.01 243.8,42.18 252.36,143.53 8.86,105.02 -50.82,166.42 -199.74,168.63 -148.92,2.22 -245.58,-34.36 -225.39,-130.05z"/>
     <path id="_103339192" class="fil1" d="M5456.55 15127.93c1.84,-136.33 112.59,-237.59 244.3,-257.52 158.99,-24.05 344.75,59.64 356.85,202.97 12.54,148.5 -71.86,235.32 -282.44,238.45 -210.58,3.13 -347.26,-48.6 -318.71,-183.9z"/>
     <path id="_103339120" class="fil7" d="M5546.27 15129.1c1.31,-96.41 79.62,-168.03 172.77,-182.11 112.43,-17.01 243.8,42.17 252.36,143.53 8.86,105.01 -50.82,166.41 -199.74,168.63 -148.92,2.22 -245.58,-34.37 -225.39,-130.05z"/>
     <path id="_103339048" class="fil1" d="M5865.34 14920.09c55.87,-73.18 141.36,-123 235.42,-137.93 196.42,-31.17 425.71,75.88 440.38,259.82 15.19,190.58 -89.23,302.18 -349.33,306.6 -174.73,2.96 -281.3,-17.82 -339.33,-89.77 -68,-84.32 -45.24,-262.61 12.86,-338.73z"/>
     <path id="_103338976" class="fil7" d="M5937.99 15024.49c23.86,-99.4 144.19,-162.6 263.37,-178.65 80.54,-10.84 189.14,4.62 253.65,39.33 181.77,97.79 256.44,316.46 253.09,318.86 -76.7,54.63 -299.65,86.18 -422.23,87.94 -209.56,3.01 -404.49,-31.56 -347.88,-267.48z"/>
     <path id="_103338904" class="fil8" d="M5937.99 15024.49c23.86,-99.4 144.19,-162.6 263.37,-178.65 80.54,-10.84 189.14,4.62 253.65,39.33 2.39,1.28 4.74,2.61 7.09,3.94 1.43,1.99 2.16,3.11 2.16,3.11 -340.73,-52.95 -496.7,129.87 -535.08,184.55 1.44,-16.23 4.33,-33.62 8.8,-52.29z"/>
     <path id="_103338832" class="fil9" d="M5976.1 15170.03c119.72,150.61 638.48,120.23 775.42,17.53 86.31,-64.73 -12.14,-207.68 -12.14,-207.68 0,0 -265.67,215.77 -763.28,190.15z"/>
     <polygon id="_103338736" class="fil2" points="9893.5,14312.87 10502.37,15021.81 10502.37,15244.24 8789.55,15253.37 8834.15,14292.44 "/>
     <path id="_103338664" class="fil3" d="M9893.5 14312.87l610.21 701.94 -1186.55 -19.03c0,0 -360.92,-231.71 -498.78,-363.81l15.76 -339.52 1059.36 20.42z"/>
     <polygon id="_103338592" class="fil4" points="10043.09,14484.95 10503.71,15014.81 10077.33,15007.97 10355,14949.41 "/>
     <polygon id="_103338520" class="fil5" points="9452.04,15249.84 8789.55,15253.37 8830.47,14315.04 9091.71,14316.36 9454.9,14994.36 "/>
     <polygon id="_103338448" class="fil6" points="8718.13,15044.57 9681.6,15002.62 8728.73,14871.04 "/>
     <path id="_103338376" class="fil1" d="M8733.07 14268.28c0,0 -195.68,864.09 -21.39,1014.51 174.27,150.41 1846.21,106.19 1909.27,54.82 63.06,-51.37 94.69,-438.14 -248.06,-520.84 0,0 -281.19,-541.2 -431.4,-632.89 -150.22,-91.68 -1208.42,84.4 -1208.42,84.4l0.01 0z"/>
     <path id="_103338304" class="fil7" d="M9836.77 14310.07c0,0 288.22,297.27 455.81,694.19 0,0 112.84,179.7 3.48,221.99 -109.37,42.3 -1330.1,66.81 -1456.79,-52.72 -126.7,-119.54 17.05,-791.69 17.05,-791.69 0,0 888.5,-135.82 980.45,-71.77z"/>
     <path id="_103338232" class="fil8" d="M9836.77 14310.07c0,0 288.22,297.27 455.81,694.19 0,0 56.43,89.88 50.75,157.47 -80.21,-22.81 -149.19,-72.9 -173.49,-160.4 -67.67,-243.61 -360,-668.57 -360,-668.57 -8.26,-13.06 -13.06,-24.7 -15.04,-35.17 19.41,2.77 33.83,6.81 41.96,12.47z"/>
     <path id="_103338160" class="fil9" d="M9836.77 14310.07c0,0 66.49,68.59 154.17,183.86 -223.48,-11.19 -774.43,-18.57 -1178.81,144.49 19.83,-142.51 44.19,-256.57 44.19,-256.57 0,0 888.49,-135.82 980.45,-71.77z"/>
     <path id="_103338088" class="fil9" d="M9427.98 15238.19c-219.94,-11.87 -466.64,31.01 -595.46,-63.31 -128.83,-94.32 14.35,-790.34 14.35,-790.34 0,0 135.53,-21.98 297.62,-42.59 86.1,324.58 184.78,622.4 283.5,896.24z"/>
     <path id="_103338016" class="fil7" d="M10273.73 14936.12c-136.92,21.68 -124.44,124.73 -121.48,198.77 2.97,74.03 -136.58,120.86 -39.85,116.99 67.24,-2.7 368.96,3.36 396.58,-40.37 57.76,-91.44 -98.35,-297.06 -235.26,-275.38z"/>
     <path id="_103337944" class="fil1" d="M10396.16 15118.84c-1.84,-136.33 -112.59,-237.6 -244.3,-257.52 -158.99,-24.05 -344.75,59.64 -356.85,202.96 -12.54,148.5 71.86,235.32 282.44,238.45 210.58,3.13 347.26,-48.6 318.71,-183.89z"/>
     <path id="_103337872" class="fil7" d="M10306.44 15120c-1.3,-96.41 -79.62,-168.02 -172.77,-182.11 -112.43,-17.01 -243.8,42.18 -252.36,143.53 -8.86,105.02 50.82,166.42 199.74,168.63 148.92,2.22 245.58,-34.36 225.39,-130.05z"/>
     <path id="_103337800" class="fil1" d="M10168.96 15127.93c-1.84,-136.33 -112.59,-237.59 -244.3,-257.52 -158.99,-24.05 -344.75,59.64 -356.85,202.97 -12.54,148.5 71.86,235.32 282.44,238.45 210.58,3.13 347.26,-48.6 318.71,-183.9z"/>
     <path id="_103337728" class="fil7" d="M10079.25 15129.1c-1.31,-96.41 -79.62,-168.03 -172.77,-182.11 -112.43,-17.01 -243.8,42.17 -252.36,143.53 -8.86,105.01 50.82,166.41 199.74,168.63 148.92,2.22 245.58,-34.37 225.39,-130.05z"/>
     <path id="_103337656" class="fil1" d="M9760.21 14920.09c-55.87,-73.18 -141.36,-123 -235.42,-137.93 -196.42,-31.17 -425.71,75.88 -440.38,259.82 -15.19,190.58 89.23,302.18 349.33,306.6 174.73,2.96 281.3,-17.82 339.33,-89.77 68,-84.32 45.24,-262.61 -12.86,-338.73z"/>
     <path id="_103337584" class="fil7" d="M9687.52 15024.49c-23.86,-99.4 -144.19,-162.6 -263.37,-178.65 -80.54,-10.84 -189.14,4.62 -253.65,39.33 -181.77,97.79 -256.43,316.46 -253.08,318.86 76.69,54.63 299.64,86.18 422.22,87.94 209.56,3.01 404.49,-31.56 347.88,-267.48z"/>
     <path id="_103337512" class="fil8" d="M9687.52 15024.49c-23.86,-99.4 -144.19,-162.6 -263.37,-178.65 -80.54,-10.84 -189.14,4.62 -253.65,39.33 -2.39,1.28 -4.74,2.61 -7.09,3.94 -1.43,1.99 -2.16,3.11 -2.16,3.11 340.73,-52.95 496.7,129.87 535.08,184.55 -1.44,-16.23 -4.33,-33.62 -8.8,-52.29z"/>
     <path id="_103337440" class="fil9" d="M9649.44 15170.03c-119.72,150.61 -638.48,120.23 -775.41,17.53 -86.31,-64.73 12.14,-207.68 12.14,-207.68 0,0 265.66,215.77 763.27,190.15z"/>
     <path id="_103337344" class="fil1" d="M7008.48 10956.18l-111.86 3455.73 -770.9 -36.16 -514.25 -24.12 -146.69 -1262.95 -602.74 -4446.5c1525.79,597.16 4366.53,597.16 5892.33,0l-756.23 5629.58 -1283.77 96.78 -106.44 -3412.37 -1599.44 0 0 0.01z"/>
     <path id="_130953432" class="fil10" d="M6134 10802.3l719.02 132.06 -69.85 2234.84 -155.96 265.11 -238.68 -219.49 -105.74 128.91 -170.82 -316.07 -220.91 271.28 -130.19 -135.68 -113.88 120 -550.86 -4419.32c1618.35,498.47 3805.75,498.47 5424.1,0l-652.7 5273.35 -1005.81 47.01 -98.36 -3249.96 719.01 -132.06 -3348.38 0 0 0.03z"/>
     <path id="_103298760" class="fil11" d="M5648.37 13284.61l-552.22 -4420.64c25.03,7.71 50.17,15.29 75.3,22.72l0.99 0.3 1.15 0.34c20.11,5.94 40.22,11.78 60.38,17.58l444.9 3136.61 87.39 1116.59 -117.87 126.49 0 0.01z"/>
     <polygon id="_103336696" class="fil7" points="6758.6,13484.38 6749.24,14254.83 6463.81,14392.08 6095.97,14449.84 5748.85,14364.82 5661.74,13447.14 5762.2,13339.35 5903.2,13529.14 6103.84,13263.43 6266.56,13588.81 6387.2,13431.54 6615.12,13676.63 "/>
     <polygon id="_103298592" class="fil8" points="5809.23,14384.26 5746.04,14363.81 5661.74,13447.14 5762.2,13339.35 5776.56,13358.7 "/>
     <path id="_130953384" class="fil9" d="M5671.45 13549.55l-9.72 -102.39 100.46 -107.81 141 189.81 200.66 -265.73 162.69 325.39 120.66 -157.27 102.46 110.19c-1.97,22.21 -3.23,35.55 -3.23,35.55 0,0 -258.92,153.74 -265.67,149.69 -6.74,-4.05 -151.04,-244.09 -151.04,-244.09 0,0 -140.25,176.66 -152.39,182.06 -12.14,5.39 -156.43,-163.18 -156.43,-163.18 0,0 -61.91,35.68 -89.46,47.79z"/>
     <path id="_103336984" class="fil11" d="M9862.11 14142.75l658.12 -5278.77c-45.76,14.09 -91.74,27.68 -137.81,40.94l-398.62 2752.36 -121.69 2485.48z"/>
     <path id="_103337128" class="fil11" d="M5111.75 8988.48l-15.6 -124.51c1618.35,498.47 3805.75,498.47 5424.1,0l-8.51 67.84c-968.5,390.21 -1522.25,516.13 -2830.18,510.77 -1385.66,-5.68 -2403.83,-405.28 -2569.82,-454.1l0.01 0z"/>
     <path id="_130953528" class="fil12" d="M6192.72 10813.09l660.3 121.27 -69.85 2234.84 -166.68 176.27 -193.24 -163.72c-47,-1333.2 -207.65,-2289.96 -230.54,-2368.65z"/>
     <path id="_102247680" class="fil9" d="M6460.48 14388.99c4.62,-257.38 -8.24,-648.25 -15.04,-896.91l169.67 175.1 147.54 -189.54 -13.42 777.18 -288.75 134.16z"/>
     <path id="_103336912" class="fil12" d="M9423.67 10813.09l-660.29 121.27 103.78 3255.39 264.43 -24.59c-15.77,-907.15 33.29,-2462.1 292.08,-3352.05l0 -0.02z"/>
     <path id="_103336840" class="fil12" d="M9241.4 10720.56l-2817.31 -20.4c0,0 1475.09,-401.31 2817.31,20.4z"/>
     <circle id="_103337200" class="fil12" cx="9349.28" cy="11169.14" r="216.54"/>
     <circle id="_103297752" class="fil12" cx="9653.76" cy="10848.39" r="60.9"/>
     <circle id="_130952184" class="fil12" cx="6269.34" cy="11186.51" r="235.83"/>
     <circle id="_130953744" class="fil12" cx="6100.78" cy="11594.45" r="108.63"/>
     <circle id="_130952088" class="fil12" cx="6361.46" cy="12615.36" r="170.82"/>
     <circle id="_129845568" class="fil12" cx="6128.28" cy="12368.53" r="75.92"/>
     <circle id="_130953696" class="fil12" cx="7180.33" cy="10532.88" r="154.55"/>
     <circle id="_103336336" class="fil12" cx="6602.78" cy="10394.58" r="81.35"/>
     <circle id="_102502920" class="fil11" cx="5813.72" cy="9247.6" r="159.98"/>
     <circle id="_129846792" class="fil11" cx="5491.05" cy="9326.26" r="65.08"/>
     <path id="_129849768" class="fil1" d="M10594.18 9266.59c0,0 -601.97,336.23 -1930.61,455.54 0,0 883.96,75.92 1898.08,-195.23l59.65 -130.15 -27.12 -130.15 -0.01 0z"/>
     <path id="_103336480" class="fil1" d="M5097.64 9266.59c0,0 601.97,336.23 1930.62,455.54 0,0 -883.97,75.92 -1898.09,-195.23l-59.65 -130.15 27.12 -130.15 0.01 0z"/>
     <polygon id="_130952160" class="fil1" points="10236.26,12037.8 9368.56,12146.26 10154.91,12227.59 "/>
     <circle id="_130953864" class="fil11" cx="10146.39" cy="10269.13" r="142.1"/>
     <circle id="_129845112" class="fil11" cx="10025.96" cy="9959.23" r="64.96"/>
     <path id="_103298520" class="fil1" d="M9525.83 9488.94c0,0 -135.58,-352.5 -130.15,-379.62 5.42,-27.12 86.77,-119.31 86.77,-119.31l168.12 65.08 -124.73 433.85z"/>
     <path id="_129844944" class="fil1" d="M6099.26 9488.94c0,0 135.58,-352.5 130.15,-379.62 -5.42,-27.12 -119.31,-124.73 -119.31,-124.73l-135.58 70.5 124.73 433.85z"/>
    </g>
    <path id="_103297728" class="fil1" d="M7681.98 9158.12c0,0 92.19,1133.43 119.31,1133.43 27.12,0 54.23,-1128.01 54.23,-1128.01 0,0 -173.54,0 -173.54,-5.42z"/>
   </g>
  </g>
 </g>
</svg>
