<?xml version="1.0" encoding="UTF-8"?>
<!DOCTYPE svg PUBLIC "-//W3C//DTD SVG 1.1//EN" "http://www.w3.org/Graphics/SVG/1.1/DTD/svg11.dtd">
<!-- Creator: CorelDRAW 2020 (64-Bit) -->
<svg xmlns="http://www.w3.org/2000/svg" xml:space="preserve" width="161.909mm" height="176.792mm" version="1.1" style="shape-rendering:geometricPrecision; text-rendering:geometricPrecision; image-rendering:optimizeQuality; fill-rule:evenodd; clip-rule:evenodd"
viewBox="0 0 2324.73 2538.43"
 xmlns:xlink="http://www.w3.org/1999/xlink"
 xmlns:xodm="http://www.corel.com/coreldraw/odm/2003">
 <defs>
  <style type="text/css">
   <![CDATA[
    .fil0 {fill:none}
    .fil1 {fill:#501D33}
    .fil5 {fill:#75414C}
    .fil12 {fill:#784258}
    .fil9 {fill:#8E7A5D}
    .fil2 {fill:#955B58}
    .fil10 {fill:#9A6C73}
    .fil3 {fill:#BB8778}
    .fil7 {fill:#C3C077}
    .fil11 {fill:#C6A0A4}
    .fil4 {fill:#CFA88B}
    .fil6 {fill:#D77D75}
    .fil8 {fill:#EEF698}
   ]]>
  </style>
 </defs>
 <g id="Слой_x0020_1">
  <metadata id="CorelCorpID_0Corel-Layer"/>
  <g id="_2810014157120">
   <rect class="fil0" width="2324.73" height="2538.43"/>
   <ellipse class="fil1" cx="1169.73" cy="2273.24" rx="709.08" ry="40.47"/>
   <g id="_124586200">
    <g>
     <polygon id="_124590808" class="fil2" points="857.49,2131.71 766.73,2237.38 766.73,2270.54 1022.05,2271.9 1015.4,2128.66 "/>
     <path id="_124590736" class="fil3" d="M857.49 2131.71l-90.96 104.63 176.87 -2.84c0,0 53.8,-34.54 74.35,-54.23l-2.35 -50.61 -157.91 3.04z"/>
     <polygon id="_124590664" class="fil4" points="835.19,2157.36 766.53,2236.34 830.09,2235.32 788.7,2226.59 "/>
     <polygon id="_124590592" class="fil5" points="923.3,2271.37 1022.05,2271.9 1015.95,2132.03 977.01,2132.23 922.87,2233.29 "/>
     <polygon id="_124590520" class="fil6" points="1032.7,2240.78 889.08,2234.52 1031.12,2214.91 "/>
     <path id="_124590448" class="fil1" d="M1030.47 2125.06c0,0 29.17,128.8 3.19,151.22 -25.98,22.42 -275.2,15.83 -284.6,8.17 -9.4,-7.66 -14.11,-65.31 36.98,-77.64 0,0 41.91,-80.67 64.31,-94.34 22.39,-13.67 180.13,12.58 180.13,12.58z"/>
     <path id="_124590376" class="fil7" d="M865.95 2131.29c0,0 -42.96,44.31 -67.94,103.48 0,0 -16.82,26.79 -0.52,33.09 16.3,6.3 198.27,9.96 217.15,-7.86 18.89,-17.82 -2.54,-118.01 -2.54,-118.01 0,0 -132.44,-20.25 -146.15,-10.7z"/>
     <path id="_124590304" class="fil8" d="M865.95 2131.29c0,0 -42.96,44.31 -67.94,103.48 0,0 -8.41,13.4 -7.57,23.47 11.96,-3.4 22.24,-10.87 25.86,-23.91 10.09,-36.31 53.66,-99.66 53.66,-99.66 1.23,-1.95 1.95,-3.68 2.24,-5.24 -2.89,0.41 -5.04,1.02 -6.25,1.86z"/>
     <path id="_124590232" class="fil9" d="M865.95 2131.29c0,0 -9.91,10.22 -22.98,27.41 33.31,-1.67 115.44,-2.77 175.72,21.54 -2.96,-21.24 -6.59,-38.24 -6.59,-38.24 0,0 -132.44,-20.25 -146.15,-10.7z"/>
     <path id="_124590160" class="fil9" d="M926.88 2269.64c32.78,-1.77 69.56,4.62 88.76,-9.44 19.2,-14.06 -2.14,-117.81 -2.14,-117.81 0,0 -20.2,-3.28 -44.36,-6.35 -12.83,48.38 -27.54,92.77 -42.26,133.59z"/>
     <path id="_124590088" class="fil7" d="M800.82 2224.61c20.41,3.23 18.55,18.59 18.11,29.63 -0.44,11.03 20.36,18.02 5.94,17.44 -10.02,-0.4 -55,0.5 -59.11,-6.02 -8.61,-13.63 14.66,-44.28 35.07,-41.05z"/>
     <path id="_124590016" class="fil1" d="M782.57 2251.85c0.27,-20.32 16.78,-35.42 36.42,-38.39 23.7,-3.59 51.39,8.89 53.19,30.25 1.87,22.14 -10.71,35.08 -42.1,35.54 -31.39,0.47 -51.76,-7.24 -47.51,-27.41z"/>
     <path id="_124589944" class="fil7" d="M795.94 2252.02c0.19,-14.37 11.87,-25.05 25.75,-27.15 16.76,-2.54 36.34,6.29 37.62,21.4 1.32,15.65 -7.58,24.81 -29.77,25.14 -22.2,0.33 -36.61,-5.12 -33.6,-19.39z"/>
     <path id="_124589872" class="fil1" d="M816.43 2253.2c0.27,-20.32 16.78,-35.41 36.42,-38.39 23.7,-3.59 51.39,8.89 53.19,30.25 1.87,22.14 -10.71,35.08 -42.1,35.54 -31.39,0.47 -51.76,-7.24 -47.51,-27.41z"/>
     <path id="_124589800" class="fil7" d="M829.8 2253.38c0.2,-14.37 11.87,-25.05 25.75,-27.15 16.76,-2.54 36.34,6.29 37.62,21.4 1.32,15.65 -7.58,24.81 -29.77,25.14 -22.2,0.33 -36.61,-5.12 -33.6,-19.39z"/>
     <path id="_124589728" class="fil1" d="M877.36 2222.23c8.33,-10.91 21.07,-18.33 35.09,-20.56 29.28,-4.65 63.46,11.31 65.64,38.73 2.26,28.41 -13.3,45.04 -52.07,45.7 -26.05,0.44 -41.93,-2.66 -50.58,-13.38 -10.14,-12.57 -6.74,-39.15 1.92,-50.49z"/>
     <path id="_124589656" class="fil7" d="M888.19 2237.78c3.56,-14.82 21.49,-24.24 39.26,-26.63 12,-1.62 28.19,0.69 37.81,5.86 27.09,14.58 38.22,47.17 37.72,47.53 -11.43,8.14 -44.67,12.85 -62.94,13.11 -31.24,0.45 -60.29,-4.7 -51.85,-39.87z"/>
     <path id="_124589584" class="fil8" d="M888.19 2237.78c3.56,-14.82 21.49,-24.24 39.26,-26.63 12,-1.62 28.19,0.69 37.81,5.86 0.36,0.19 0.71,0.39 1.06,0.59 0.21,0.3 0.32,0.46 0.32,0.46 -50.79,-7.89 -74.04,19.36 -79.76,27.51 0.22,-2.42 0.64,-5.01 1.31,-7.79z"/>
     <path id="_124589512" class="fil9" d="M893.87 2259.48c17.85,22.45 95.17,17.92 115.58,2.61 12.87,-9.65 -1.81,-30.96 -1.81,-30.96 0,0 -39.6,32.16 -113.78,28.34z"/>
    </g>
    <g>
     <polygon id="_124589416" class="fil2" points="1477.8,2131.71 1568.56,2237.38 1568.56,2270.54 1313.25,2271.9 1319.9,2128.66 "/>
     <path id="_124589344" class="fil3" d="M1477.81 2131.71l90.96 104.63 -176.87 -2.84c0,0 -53.8,-34.54 -74.35,-54.23l2.35 -50.61 157.91 3.04z"/>
     <polygon id="_124589272" class="fil4" points="1500.1,2157.36 1568.76,2236.34 1505.21,2235.32 1546.59,2226.59 "/>
     <polygon id="_124589200" class="fil5" points="1412,2271.37 1313.25,2271.9 1319.35,2132.03 1358.29,2132.23 1412.43,2233.29 "/>
     <polygon id="_124589128" class="fil6" points="1302.6,2240.78 1446.22,2234.52 1304.18,2214.91 "/>
     <path id="_124589056" class="fil1" d="M1304.83 2125.06c0,0 -29.17,128.8 -3.19,151.22 25.98,22.42 275.2,15.83 284.6,8.17 9.4,-7.66 14.11,-65.31 -36.98,-77.64 0,0 -41.91,-80.67 -64.31,-94.34 -22.39,-13.67 -180.13,12.58 -180.13,12.58z"/>
     <path id="_124588984" class="fil7" d="M1469.35 2131.29c0,0 42.96,44.31 67.94,103.48 0,0 16.82,26.79 0.52,33.09 -16.3,6.3 -198.27,9.96 -217.15,-7.86 -18.89,-17.82 2.54,-118.01 2.54,-118.01 0,0 132.44,-20.25 146.15,-10.7z"/>
     <path id="_124588912" class="fil8" d="M1469.35 2131.29c0,0 42.96,44.31 67.94,103.48 0,0 8.41,13.4 7.57,23.47 -11.96,-3.4 -22.24,-10.87 -25.86,-23.91 -10.09,-36.31 -53.66,-99.66 -53.66,-99.66 -1.23,-1.95 -1.95,-3.68 -2.24,-5.24 2.89,0.41 5.04,1.02 6.25,1.86z"/>
     <path id="_124588840" class="fil9" d="M1469.35 2131.29c0,0 9.91,10.22 22.98,27.41 -33.31,-1.67 -115.44,-2.77 -175.72,21.54 2.96,-21.24 6.59,-38.24 6.59,-38.24 0,0 132.44,-20.25 146.15,-10.7z"/>
     <path id="_124588768" class="fil9" d="M1408.42 2269.64c-32.78,-1.77 -69.56,4.62 -88.76,-9.44 -19.2,-14.06 2.14,-117.81 2.14,-117.81 0,0 20.2,-3.28 44.36,-6.35 12.83,48.38 27.54,92.77 42.26,133.59z"/>
     <path id="_124588696" class="fil7" d="M1534.48 2224.61c-20.41,3.23 -18.55,18.59 -18.11,29.63 0.44,11.03 -20.36,18.02 -5.94,17.44 10.02,-0.4 55,0.5 59.11,-6.02 8.61,-13.63 -14.66,-44.28 -35.07,-41.05z"/>
     <path id="_124588624" class="fil1" d="M1552.73 2251.85c-0.27,-20.32 -16.78,-35.42 -36.42,-38.39 -23.7,-3.59 -51.39,8.89 -53.19,30.25 -1.87,22.14 10.71,35.08 42.1,35.54 31.39,0.47 51.76,-7.24 47.51,-27.41z"/>
     <path id="_124588552" class="fil7" d="M1539.36 2252.02c-0.19,-14.37 -11.87,-25.05 -25.75,-27.15 -16.76,-2.54 -36.34,6.29 -37.62,21.4 -1.32,15.65 7.58,24.81 29.77,25.14 22.2,0.33 36.61,-5.12 33.6,-19.39z"/>
     <path id="_124588480" class="fil1" d="M1518.87 2253.2c-0.27,-20.32 -16.78,-35.41 -36.42,-38.39 -23.7,-3.59 -51.39,8.89 -53.19,30.25 -1.87,22.14 10.71,35.08 42.1,35.54 31.39,0.47 51.76,-7.24 47.51,-27.41z"/>
     <path id="_124588408" class="fil7" d="M1505.49 2253.38c-0.2,-14.37 -11.87,-25.05 -25.75,-27.15 -16.76,-2.54 -36.34,6.29 -37.62,21.4 -1.32,15.65 7.58,24.81 29.77,25.14 22.2,0.33 36.61,-5.12 33.6,-19.39z"/>
     <path id="_124588336" class="fil1" d="M1457.94 2222.23c-8.33,-10.91 -21.07,-18.33 -35.09,-20.56 -29.28,-4.65 -63.46,11.31 -65.64,38.73 -2.26,28.41 13.3,45.04 52.07,45.7 26.05,0.44 41.93,-2.66 50.58,-13.38 10.14,-12.57 6.74,-39.15 -1.92,-50.49z"/>
     <path id="_124588264" class="fil7" d="M1447.1 2237.78c-3.56,-14.82 -21.49,-24.24 -39.26,-26.63 -12,-1.62 -28.19,0.69 -37.81,5.86 -27.09,14.58 -38.22,47.17 -37.72,47.53 11.43,8.14 44.67,12.85 62.94,13.11 31.24,0.45 60.29,-4.7 51.85,-39.87z"/>
     <path id="_124588192" class="fil8" d="M1447.1 2237.78c-3.56,-14.82 -21.49,-24.24 -39.26,-26.63 -12,-1.62 -28.19,0.69 -37.81,5.86 -0.36,0.19 -0.71,0.39 -1.06,0.59 -0.21,0.3 -0.32,0.46 -0.32,0.46 50.79,-7.89 74.04,19.36 79.76,27.51 -0.22,-2.42 -0.64,-5.01 -1.31,-7.79z"/>
     <path id="_124588120" class="fil9" d="M1441.42 2259.48c-17.85,22.45 -95.17,17.92 -115.58,2.61 -12.87,-9.65 1.81,-30.96 1.81,-30.96 0,0 39.6,32.16 113.78,28.34z"/>
    </g>
    <path id="_124588024" class="fil1" d="M1047.76 1631.36l-16.67 515.12 -191.57 -8.99 -21.87 -188.26 -89.84 -662.8c227.43,89.01 650.88,89.01 878.31,0l-112.72 839.15 -191.36 14.43 -15.87 -508.65 -238.41 0 -0 0z"/>
    <path id="_124587952" class="fil10" d="M917.41 1608.42l107.18 19.69 -15.47 494.95 -148.31 -8.62 -98.1 -794.94c241.23,74.3 567.29,74.3 808.52,0l-97.29 786.05 -149.93 7.01 -14.66 -484.44 107.18 -19.69 -499.11 0 -0 0z"/>
    <path id="_124587880" class="fil11" d="M765.03 1338.05l-2.33 -18.56c241.23,74.3 567.29,74.3 808.52,0l-1.27 10.11c-403.61,119.72 -765.17,20.14 -804.93,8.45z"/>
    <path id="_124587808" class="fil11" d="M873.44 2114.91l-12.65 -0.63 -98.08 -794.8c6.82,2.1 13.67,4.13 20.54,6.1l41.64 362.17 50.18 19.44 -43.28 9.14 41.65 398.57z"/>
    <path id="_124587736" class="fil11" d="M872.66 1401.79l44.76 714.58 -6.86 -0.74 -58.68 -666.48 1.43 -51.09c6.43,1.29 12.88,2.54 19.34,3.73l0 0z"/>
    <polygon id="_124587664" class="fil1" points="839.05,1387.87 903.35,2116.54 913.06,2116.54 858.47,1389.35 "/>
    <path id="_124587592" class="fil1" d="M830.87 1625.75c0,0 28.28,-30.65 75.16,-38.04 -20.67,22.65 -43.88,36.78 -75.16,38.04z"/>
    <path id="_124587520" class="fil1" d="M820 1462.38c0,0 43,7.91 72.65,41.92 -31.67,-5.67 -56.39,-17.45 -72.65,-41.92z"/>
    <path id="_124587448" class="fil1" d="M841.63 1697.07c0,0 43.68,-3.67 82.74,21.17 -32.12,2.85 -59.5,-1.98 -82.74,-21.17z"/>
    <path id="_124587376" class="fil1" d="M851.32 1851.25c0,0 30.95,-28.41 78.35,-32.22 -22.65,21.01 -47.06,33.34 -78.35,32.22z"/>
    <path id="_124587304" class="fil1" d="M862.3 1979.86c0,0 41.98,-1.78 80.68,25.84 -30.86,1.47 -57.47,-4.83 -80.68,-25.84z"/>
    <path id="_124587232" class="fil12" d="M926.16 1610.03l98.42 18.08 -13.85 496.56 -46.28 -3.75c4.62,-254.38 -34.12,-496.55 -38.29,-510.89z"/>
    <path id="_124587160" class="fil11" d="M1473.13 2106.35l98.1 -786.86c-6.82,2.1 -13.67,4.13 -20.54,6.1l-42.44 358.54 -88.11 35.18 78.38 -0.54 -25.39 387.58z"/>
    <path id="_124587088" class="fil11" d="M1461.27 1406.53l-49.6 703.4 8.88 -3.96 61.51 -652.47 -1.43 -50.66c-6.43,1.28 -12.88,2.51 -19.34,3.7l0 -0z"/>
    <polygon id="_124587016" class="fil1" points="1494.89,1392.72 1424.51,2112.78 1414.8,2112.78 1475.47,1394.19 "/>
    <path id="_124586944" class="fil1" d="M1503.07 1628.59c0,0 -28.28,-30.39 -75.16,-37.71 20.67,22.45 43.88,36.47 75.16,37.71z"/>
    <path id="_124586872" class="fil1" d="M1513.94 1466.6c0,0 -43,7.84 -72.65,41.56 31.67,-5.62 56.39,-17.31 72.65,-41.56z"/>
    <path id="_124586800" class="fil1" d="M1492.31 1699.31c0,0 -43.68,-3.64 -82.74,20.99 32.12,2.83 59.5,-1.96 82.74,-20.99z"/>
    <path id="_124586728" class="fil1" d="M1480.19 1842.52c0,0 -30.95,-28.17 -78.35,-31.95 22.65,20.83 47.06,33.06 78.35,31.95z"/>
    <path id="_124586656" class="fil1" d="M1400.25 1958.19c0,0 40.97,-8.52 71.86,-44.67 -30.16,6.11 -54.38,18.69 -71.86,44.67z"/>
    <path id="_124586584" class="fil1" d="M1381.33 2047.31c0,0 36.97,19.61 83.83,11.52 -27.11,-14.56 -53.79,-20.35 -83.83,-11.52z"/>
    <path id="_124586512" class="fil12" d="M1407.77 1610.03l-98.42 18.08 15.47 485.25 39.42 -3.67c-2.35,-135.22 4.96,-367 43.54,-499.66l0 0z"/>
    <path id="_124586440" class="fil12" d="M1380.6 1596.24l-419.95 -3.04c0,0 219.88,-59.82 419.95,3.04z"/>
    <path id="_124586368" class="fil1" d="M1575.78 1364.43c0,0 -123.6,52.54 -333.5,58.2 0,0 143.82,21.01 338.16,-38.81l5.52 -16.74 -10.19 -2.65 0 0z"/>
    <path id="_124586296" class="fil1" d="M761.53 1356.36c0,0 110.58,53.35 298.44,66.27 0,0 -137.53,9.71 -295.44,-37.6l-1.82 -17.95 -1.18 -10.72z"/>
    <path id="_124586224" class="fil1" d="M1150.17 1369.04c0,0 9.91,192.44 13.02,192.44 3.11,0 15.23,-192.44 15.23,-192.44l-28.25 0z"/>
   </g>
  </g>
 </g>
</svg>
