<?xml version="1.0" encoding="UTF-8"?>
<!DOCTYPE svg PUBLIC "-//W3C//DTD SVG 1.1//EN" "http://www.w3.org/Graphics/SVG/1.1/DTD/svg11.dtd">
<!-- Creator: CorelDRAW -->
<svg xmlns="http://www.w3.org/2000/svg" xml:space="preserve" width="161.908mm" height="176.792mm" style="shape-rendering:geometricPrecision; text-rendering:geometricPrecision; image-rendering:optimizeQuality; fill-rule:evenodd; clip-rule:evenodd"
viewBox="0 0 8.99079 9.81728"
 xmlns:xlink="http://www.w3.org/1999/xlink">
 <defs>
  <style type="text/css">
   <![CDATA[
    .fil0 {fill:none}
    .fil1 {fill:#501D33}
    .fil7 {fill:#50404B}
    .fil5 {fill:#62545D}
    .fil6 {fill:#6D6069}
    .fil4 {fill:#7F777F}
    .fil8 {fill:#9A8D8E}
    .fil10 {fill:#9C5E58}
    .fil9 {fill:#BA9475}
    .fil2 {fill:#BCB4AB}
    .fil11 {fill:#D8C196}
    .fil3 {fill:white}
   ]]>
  </style>
 </defs>
 <g id="Layer_x0020_1">
  <metadata id="CorelCorpID_0Corel-Layer"/>
  <rect class="fil0" width="8.99079" height="9.81728"/>
  <g id="_115099760">
   <g>
    <path id="_115104800" class="fil1" d="M2.17668 4.15939l0.071706 -0.286957c-0.664973,-0.337495 -1.4093,-0.287829 -1.66367,-0.0267877l0.0417087 0.262174c0,0 0.313812,-0.236958 1.55025,0.0515708z"/>
    <path id="_115104728" class="fil2" d="M2.11672 4.15343l0.0558022 -0.228945c-0.59535,-0.302162 -1.25615,-0.271692 -1.48388,-0.0379826l0.0401372 0.220749c0,0 0.280955,-0.212147 1.38794,0.0461788z"/>
    <path id="_115104656" class="fil3" d="M2.12202 4.13174l0.0505102 -0.207255c-0.38433,-0.195061 -0.795874,-0.25144 -1.10064,-0.204073 0.0145378,0.000777422 0.0293976,0.00143268 0.0449183,0.00187692 0.656533,0.0187581 0.997304,0.234476 0.997304,0.234476l0.00312635 0.171949c0.00162148,0.0010995 0.00317632,0.00198798 0.00478114,0.00302639z"/>
    <path id="_115104584" class="fil4" d="M2.11672 4.15343l0.00264879 -0.0108617c-0.303156,-0.208077 -0.673314,-0.36967 -0.840743,-0.437955 -0.0480669,0.000255439 -0.09459,0.00268766 -0.139225,0.0071856 -0.0652257,0.0757264 -0.0743104,0.190857 -0.0504547,0.315761 0.213669,-0.0103453 0.540741,0.0122166 1.02777,0.12587z"/>
    <path id="_115104512" class="fil1" d="M2.1327 4.41887l0.0489054 -0.280405c0,0 -0.358658,-0.221715 -0.974898,-0.218456 -0.616234,0.00325962 0.316272,0.469518 0.925993,0.49886z"/>
    <path id="_115104440" class="fil4" d="M2.05981 4.43135l0.0468952 -0.268866c0,0 -0.354821,-0.192306 -0.9457,-0.18918 -0.590879,0.00312635 0.314178,0.429909 0.898805,0.458046z"/>
    <path id="_115104368" class="fil1" d="M2.21761 4.71275l0.0160926 0.685597 0.0726001 0.0671581c0,0 -0.133755,0.434967 -0.674508,1.07229 0,0 -0.26394,-0.0418419 -0.804693,-0.560066l0.0386268 -0.157722c0,0 -0.217989,-0.545522 -0.230872,-1.29294 0,0 -0.174698,-0.190913 -0.18757,-0.216662 -0.0128774,-0.0257493 0.196343,-0.431314 0.46994,-0.769287 0,0 0.521439,0.180251 1.42913,0.962415 0,0 0.00813516,0.0109117 0.00331515,0.0301917 -0.00482001,0.0192801 -0.132067,0.179029 -0.132067,0.179029z"/>
    <path id="_115104296" class="fil5" d="M0.956073 3.66542c0,0 0.550237,0.262613 1.27555,0.862871l0.00181583 0.0199464 -0.0936238 0.131073c0,0 -0.627057,-0.462055 -1.10086,-0.626224 0,0 -0.100643,0.0754044 -0.353427,0.428054 0,0 -0.110788,-0.11859 -0.141996,-0.160721 -0.0312079,-0.0421307 0.312501,-0.52682 0.412544,-0.655z"/>
    <path id="_115104224" class="fil6" d="M0.956073 3.66542c0,0 0.00249886,0.00118834 0.00724668,0.00352616 0.017542,0.0781253 0.0490331,0.217417 0.088726,0.388777 -0.00437577,-0.00155484 -0.00874599,-0.0031319 -0.013094,-0.00463677 0,0 -0.100643,0.0754044 -0.353427,0.428054 0,0 -0.110788,-0.11859 -0.141996,-0.160721 -0.0312079,-0.0421307 0.312501,-0.52682 0.412544,-0.655z"/>
    <path id="_115104152" class="fil7" d="M1.93717 4.29725c0.111593,0.083062 0.170833,0.128741 0.294448,0.231044l0.00181583 0.0199464 -0.0936238 0.131073c0,0 -0.104608,-0.0770758 -0.260608,-0.179434 0.0437577,-0.110827 0.0572405,-0.164191 0.0579679,-0.202629z"/>
    <path id="_115104080" class="fil8" d="M0.956073 3.66542c0,0 0.550237,0.262613 1.27555,0.862871l0.00114392 0.0125665c-0.633404,-0.489604 -1.25664,-0.762295 -1.25664,-0.762295 -0.0826621,0.0523538 -0.361968,0.45432 -0.427104,0.548999 -0.0020213,-0.00256549 -0.003876,-0.00495884 -0.00549193,-0.00714117 -0.0312079,-0.0421307 0.312501,-0.52682 0.412544,-0.655z"/>
    <path id="_115104008" class="fil5" d="M2.13513 4.74329l0.0120778 0.647875c0,0 -0.587753,0.350151 -1.16925,0.384541 0,0 -0.221971,-0.356403 -0.253234,-1.23178 0,0 0.0731498,-0.148604 0.322813,-0.413872 0,0 0.302456,0.0824789 1.05903,0.592073l0.025816 0.0159483 0.00274874 0.00521428z"/>
    <path id="_115103936" class="fil6" d="M1.47562 5.68091c-0.156478,0.0475227 -0.327333,0.0847168 -0.497661,0.0947899 0,0 -0.221971,-0.356403 -0.253234,-1.23178 0,0 0.0731498,-0.148604 0.322813,-0.413872 0,0 0.00751323,0.00207127 0.0230728,0.00749101 0.118746,0.509494 0.295815,1.23923 0.400983,1.53137 0.001466,0.00407591 0.00269876,0.00800744 0.00402593,0.0120001z"/>
    <path id="_115103864" class="fil7" d="M2.13513 4.74329l0.000455347 0.0244055c-0.618744,-0.418514 -1.04066,-0.513926 -1.04066,-0.513926 -0.0832952,0.0465453 -0.285575,0.235148 -0.369236,0.314595 -0.000327628,-0.00812406 -0.000671914,-0.0162203 -0.000966224,-0.0244388 0,0 0.0731498,-0.148604 0.322813,-0.413872 0,0 0.302456,0.0824789 1.05903,0.592073l0.025816 0.0159483 0.00274874 0.00521428z"/>
    <path id="_115103792" class="fil7" d="M2.13513 4.74329l0.0120778 0.647875c0,0 -0.0619772,0.0369109 -0.165558,0.0879375 -0.066675,-0.323863 -0.0914415,-0.66198 -0.100132,-0.904752 0.0700735,0.0447684 0.144984,0.0938459 0.225047,0.147777l0.025816 0.0159483 0.00274874 0.00521428z"/>
    <path id="_115103720" class="fil1" d="M2.16883 4.85807l0.00943457 0.506279c0,0 -0.616601,0.367337 -1.22664,0.403415 0,0 -0.161043,-0.258698 -0.234132,-0.874044 0.22156,-0.275346 0.417798,-0.454275 0.417798,-0.454275 0.51989,0.138637 0.940503,0.366249 1.03354,0.418625z"/>
    <path id="_115103648" class="fil5" d="M2.13822 4.90857l0.00899588 0.48259c0,0 -0.587753,0.350151 -1.16925,0.384541 0,0 -0.153507,-0.246593 -0.223176,-0.833152 0.211192,-0.262463 0.398251,-0.433018 0.398251,-0.433018 0.495562,0.132151 0.896495,0.349112 0.985182,0.399039z"/>
    <path id="_115103576" class="fil6" d="M1.47562 5.68091c-0.156478,0.0475227 -0.327333,0.0847168 -0.497661,0.0947899 0,0 -0.153507,-0.246593 -0.223176,-0.833152 0.211192,-0.262463 0.398251,-0.433018 0.398251,-0.433018l0.00601947 0.00162703c0.107057,0.444857 0.231266,0.931984 0.31254,1.15775 0.001466,0.00407591 0.00269876,0.00800744 0.00402593,0.0120001z"/>
    <path id="_115103504" class="fil7" d="M2.13822 4.90857l0.00899588 0.48259c0,0 -0.0619772,0.0369109 -0.165558,0.0879375 -0.0491997,-0.238991 -0.0755709,-0.485728 -0.0895201,-0.696231 0.123427,0.0581012 0.210248,0.105529 0.246082,0.125704z"/>
    <path id="_115103432" class="fil8" d="M0.755665 4.94976l-0.000882929 -0.00720226c0.211192,-0.262463 0.398251,-0.433018 0.398251,-0.433018 0.465043,0.12401 0.846751,0.322713 0.965291,0.387978 -0.611703,-0.260864 -0.944701,-0.316066 -0.944701,-0.316066 -0.0581456,0.0305249 -0.374906,0.327789 -0.417959,0.368309z"/>
    <path id="_115103360" class="fil1" d="M2.15932 5.15763l0.00328183 0.175897c0,0 -0.605684,0.360829 -1.20492,0.396269 0,0 -0.0791915,-0.127303 -0.150953,-0.415882 0.217884,-0.293888 0.418569,-0.488748 0.418569,-0.488748 0.411367,0.0960171 0.762256,0.249786 0.934022,0.332464z"/>
    <path id="_115103288" class="fil5" d="M2.14403 5.22048l0.00318188 0.170688c0,0 -0.587753,0.350151 -1.16925,0.384541 0,0 -0.0768481,-0.123538 -0.146483,-0.403571 0.211431,-0.285192 0.406181,-0.474283 0.406181,-0.474283 0.399189,0.093174 0.739689,0.242395 0.906374,0.322624z"/>
    <path id="_115103216" class="fil6" d="M1.47562 5.68091c-0.156478,0.0475227 -0.327333,0.0847168 -0.497661,0.0947899 0,0 -0.0768481,-0.123538 -0.146483,-0.403571 0.211431,-0.285192 0.406181,-0.474283 0.406181,-0.474283 0.00585843,0.00136604 0.0117057,0.0027654 0.0175364,0.00415365 0.0794414,0.314911 0.158733,0.606717 0.216401,0.76691 0.001466,0.00407591 0.00269876,0.00800744 0.00402593,0.0120001z"/>
    <path id="_115103144" class="fil7" d="M2.14403 5.22048l0.00318188 0.170688c0,0 -0.0619772,0.0369109 -0.165558,0.0879375 -0.0244832,-0.118929 -0.0432968,-0.239757 -0.0577624,-0.35712 0.08982,0.0374106 0.164625,0.0717727 0.220138,0.0984938z"/>
    <path id="_115103072" class="fil8" d="M2.14403 5.22048l0.000161037 0.00865715c-0.265806,-0.129352 -0.889426,-0.273192 -0.889426,-0.273192 -0.0987381,0.0781698 -0.358936,0.359974 -0.420535,0.427115l-0.00275429 -0.0109228c0.211431,-0.285192 0.406181,-0.474283 0.406181,-0.474283 0.399189,0.093174 0.739689,0.242395 0.906374,0.322624z"/>
    <path id="_115103000" class="fil5" d="M2.20535 5.48604c0,0 -0.248847,0.561659 -0.605251,0.914937 0,0 -0.275118,-0.090664 -0.681543,-0.462699l0.0259937 -0.118312c0,0 0.574265,-0.0286258 1.20579,-0.388156l0.0465731 0.0401538 0.00844058 0.0140769z"/>
    <path id="_115102928" class="fil5" d="M1.59089 6.39764c-0.0508989,-0.0191912 -0.309197,-0.126947 -0.672337,-0.459362l0.0259937 -0.118312c0,0 0.184921,-0.00925687 0.460228,-0.0829009 0.0678356,0.265839 0.134338,0.508595 0.186115,0.660575z"/>
    <path id="_115102856" class="fil8" d="M0.957367 5.87009c0,0 0.437688,0.384541 0.594006,0.422057 0,0 0.221971,-0.253234 0.390793,-0.578374l-0.408091 0.488926c0,0 -0.419747,-0.227818 -0.576708,-0.332609z"/>
    <path id="_115102784" class="fil7" d="M0.941758 5.83266l0.00279317 -0.0126997c0,0 0.549931,-0.0274596 1.16528,-0.365538l-0.430281 0.596993 -0.153191 0.150065c-0.125926,-0.0601003 -0.519001,-0.324518 -0.584604,-0.36882z"/>
    <path id="_115102712" class="fil1" d="M2.06804 5.50788c0,0 -0.307398,0.514931 -0.524293,0.744309 0,0 -0.341716,-0.172415 -0.552369,-0.383069l0.425277 0.252284c0.108684,0.0507823 0.112104,0.0705788 0.195083,-0.0264934 0.104602,-0.122383 0.300068,-0.358108 0.456302,-0.587031z"/>
    <path id="_115102640" class="fil1" d="M2.1676 5.43654c0,0 -0.385418,0.358891 -1.22179,0.39478l-0.00624159 -0.0452515c0,0 0.781759,-0.0639763 1.21867,-0.413505l0.0234059 0.0187248 -0.0140436 0.0452515z"/>
    <path id="_115102568" class="fil1" d="M1.82149 5.57342c0,0 -0.0764594,0.182566 -0.266828,0.402582 0,0 -0.0951842,-0.00624159 -0.399461,-0.210654 0,0 0.0592951,-0.238741 0.19817,-0.449394 0,0 0.146677,0.0265267 0.457196,0.238741l0.011317 0.00931795 -0.000394264 0.0094068z"/>
    <path id="_115102496" class="fil9" d="M1.74201 5.59074c0,0 -0.0582067,0.138981 -0.203129,0.306471 0,0 -0.0724557,-0.00475338 -0.304094,-0.160365 0,0 0.0451404,-0.181745 0.150859,-0.34211 0,0 0.11166,0.0201963 0.348052,0.18175l0.00861272 0.0070912 -0.000299863 0.00716339z"/>
    <path id="_115102424" class="fil10" d="M1.28129 5.73146c0,0 0.134194,0.0842614 0.244982,0.121711 0,0 0.11703,-0.145117 0.184127,-0.259026 -0.105602,0.10202 -0.287813,0.130251 -0.429109,0.137315z"/>
    <path id="_115102352" class="fil11" d="M1.28753 5.68465c0,0 0.0608555,-0.210654 0.131073,-0.230939 0.0702178,-0.0202852 0.223137,0.112349 0.223137,0.112349 0,0 -0.205972,-0.0187248 -0.35421,0.11859z"/>
   </g>
   <g>
    <path id="_115102256" class="fil1" d="M6.82051 4.1414l-0.0712007 -0.277179c0.676635,-0.313456 1.42853,-0.249319 1.67338,0.0206739l-0.0510711 0.260508c0,0 -0.305121,-0.248048 -1.55111,-0.00400372z"/>
    <path id="_115102184" class="fil2" d="M6.88064 4.13759l-0.0475671 -0.230794c0.605795,-0.280638 1.26508,-0.226513 1.48429,0.0152097l-0.0480224 0.219166c0,0 -0.273169,-0.222076 -1.3887,-0.00358169z"/>
    <path id="_115102112" class="fil3" d="M6.87126 4.09213l-0.0381936 -0.185332c0.341532,-0.158216 0.700035,-0.210004 0.987131,-0.181789 -0.605001,0.0125998 -0.94043,0.209854 -0.94043,0.209854l-0.00850721 0.157267z"/>
    <path id="_115102040" class="fil4" d="M6.88064 4.13759l-0.00226008 -0.0109505c0.310419,-0.197076 0.68613,-0.345303 0.855897,-0.407547 0.048028,0.00197687 0.094429,0.006075 0.138875,0.0121666 0.0624714,0.0780143 0.0674247,0.1934 0.0391099,0.317366 -0.213158,-0.0179918 -0.54083,-0.00716339 -1.03162,0.0889648z"/>
    <path id="_115101968" class="fil1" d="M6.85517 4.40229l-0.0388267 -0.281982c0,0 0.366371,-0.208721 0.982095,-0.183383 0.615729,0.0253384 -0.332886,0.457885 -0.943268,0.465365z"/>
    <path id="_115101896" class="fil4" d="M6.92756 4.41737l-0.0372329 -0.270371c0,0 0.361484,-0.179468 0.95187,-0.155173 0.590391,0.0242944 -0.329377,0.418375 -0.914637,0.425544z"/>
    <path id="_115101824" class="fil1" d="M6.75977 4.69293l-0.040648 0.684581 -0.0749546 0.0645149c0,0 0.118085,0.439482 0.635653,1.09576 0,0 0.265273,-0.0323574 0.824245,-0.530874l-0.0329516 -0.158999c0,0 0.237391,-0.537365 0.277051,-1.28384 0,0 0.181422,-0.184532 0.195211,-0.209804 0.0137881,-0.0252718 -0.180762,-0.438077 -0.442075,-0.785629 0,0 -0.527564,0.161448 -1.4627,0.910588 0,0 -0.00851832,0.0106118 -0.00439243,0.0300529 0.00412589,0.0194411 0.125565,0.183644 0.125565,0.183644z"/>
    <path id="_115101752" class="fil5" d="M8.05803 3.69148c0,0 -0.559288,0.242728 -1.30565,0.816615l-0.00252662 0.0198687 0.0888649 0.134338c0,0 0.643211,-0.439288 1.1226,-0.586376 0,0 0.0978718,0.0789638 0.337862,0.440443 0,0 0.114964,-0.114548 0.14766,-0.155529 0.0327017,-0.0409868 -0.293421,-0.537682 -0.388811,-0.66936z"/>
    <path id="_115101680" class="fil6" d="M8.05803 3.69148c0,0 -0.00253773,0.00109394 -0.00736885,0.00325962 -0.0203296,0.0774479 -0.0567907,0.215524 -0.102597,0.385351 0.0044313,-0.00139936 0.0088515,-0.00281538 0.013255,-0.00416476 0,0 0.0978718,0.0789638 0.337862,0.440443 0,0 0.114964,-0.114548 0.14766,-0.155529 0.0327017,-0.0409868 -0.293421,-0.537682 -0.388811,-0.66936z"/>
    <path id="_115101608" class="fil7" d="M7.05492 4.28775c-0.114498,0.0790138 -0.175336,0.122538 -0.302539,0.220349l-0.00252662 0.0198687 0.0888649 0.134338c0,0 0.107306,-0.0732775 0.266872,-0.169978 -0.0397596,-0.112326 -0.0513209,-0.166141 -0.0506712,-0.204579z"/>
    <path id="_115101536" class="fil8" d="M8.05803 3.69148c0,0 -0.559288,0.242728 -1.30565,0.816615l-0.00159371 0.0125165c0.650541,-0.466597 1.28315,-0.716783 1.28315,-0.716783 0.0807297,0.0552802 0.345453,0.466997 0.407158,0.563947 0.00211014,-0.00248775 0.0040537,-0.00481446 0.00574181,-0.00693571 0.0327017,-0.0409868 -0.293421,-0.537682 -0.388811,-0.66936z"/>
    <path id="_115101464" class="fil5" d="M6.84111 4.72641l-0.0352838 0.647026c0,0 0.574831,0.370986 1.15473,0.426188 0,0 0.234598,-0.348218 0.297203,-1.22191 0,0 -0.0677745,-0.151131 -0.307776,-0.425172 0,0 -0.305216,0.0715894 -1.07957,0.553746l-0.0263713 0.0150153 -0.00293199 0.00510877z"/>
    <path id="_115101392" class="fil6" d="M7.4666 5.68706c0.154674,0.0530979 0.324085,0.0963892 0.493946,0.11256 0,0 0.234598,-0.348218 0.297203,-1.22191 0,0 -0.0677745,-0.151131 -0.307776,-0.425172 0,0 -0.00757986,0.00179918 -0.0233282,0.00665806 -0.136921,0.504913 -0.340022,1.22784 -0.455591,1.51602 -0.00161037,0.00402038 -0.00298197,0.00790194 -0.00445352,0.0118446z"/>
    <path id="_115101320" class="fil7" d="M6.84111 4.72641l-0.00132717 0.0243777c0.633338,-0.39608 1.0584,-0.47631 1.0584,-0.47631 0.0815737,0.0494996 0.276968,0.245227 0.357731,0.327622 0.000616384,-0.0081074 0.00124943,-0.016187 0.00183805,-0.0243888 0,0 -0.0677745,-0.151131 -0.307776,-0.425172 0,0 -0.305216,0.0715894 -1.07957,0.553746l-0.0263713 0.0150153 -0.00293199 0.00510877z"/>
    <path id="_115101248" class="fil7" d="M6.84111 4.72641l-0.0352838 0.647026c0,0 0.0606167,0.0391099 0.162303,0.0938126 0.0782364,-0.321264 0.115097,-0.658276 0.132484,-0.900582 -0.0716339,0.0422307 -0.148254,0.0885928 -0.2302,0.139619l-0.0263713 0.0150153 -0.00293199 0.00510877z"/>
    <path id="_115101176" class="fil1" d="M6.80332 4.83992l-0.0275707 0.505613c0,0 0.603046,0.389194 1.2114,0.447106 0,0 0.170211,-0.252756 0.265295,-0.865098 -0.211548,-0.283104 -0.40125,-0.468946 -0.40125,-0.468946 -0.524521,0.119917 -0.953019,0.332314 -1.04788,0.381325z"/>
    <path id="_115101104" class="fil5" d="M6.8321 4.89148l-0.0262824 0.481957c0,0 0.574831,0.370986 1.15473,0.426188 0,0 0.162242,-0.240934 0.252884,-0.824617 -0.201652,-0.269865 -0.38248,-0.447012 -0.38248,-0.447012 -0.499982,0.114309 -0.908428,0.316766 -0.998848,0.363484z"/>
    <path id="_115101032" class="fil6" d="M7.4666 5.68706c0.154674,0.0530979 0.324085,0.0963892 0.493946,0.11256 0,0 0.162242,-0.240934 0.252884,-0.824617 -0.201652,-0.269865 -0.38248,-0.447012 -0.38248,-0.447012l-0.006075 0.00141047c-0.122927,0.440737 -0.264512,0.923099 -0.353821,1.14581 -0.00161037,0.00402038 -0.00298197,0.00790194 -0.00445352,0.0118446z"/>
    <path id="_115100960" class="fil7" d="M6.8321 4.89148l-0.0262824 0.481957c0,0 0.0606167,0.0391099 0.162303,0.0938126 0.0577291,-0.237069 0.0929241,-0.482707 0.114409,-0.692572 -0.125431,0.0536421 -0.213896,0.0979274 -0.25043,0.116802z"/>
    <path id="_115100888" class="fil8" d="M8.21229 4.98217l0.00114392 -0.00716339c-0.201652,-0.269865 -0.38248,-0.447012 -0.38248,-0.447012 -0.469191,0.107268 -0.857774,0.292166 -0.978574,0.353144 0.620655,-0.23878 0.955418,-0.282015 0.955418,-0.282015 0.0570128,0.0325906 0.362923,0.34101 0.404493,0.383047z"/>
    <path id="_115100816" class="fil1" d="M6.80209 5.13962l-0.00957895 0.17567c0,0 0.592362,0.382297 1.18995,0.439188 0,0 0.0837006,-0.124387 0.165757,-0.410207 -0.207211,-0.301512 -0.400794,-0.503436 -0.400794,-0.503436 -0.414543,0.0812184 -0.770714,0.22232 -0.945334,0.298785z"/>
    <path id="_115100744" class="fil5" d="M6.81512 5.20297l-0.00929574 0.170461c0,0 0.574831,0.370986 1.15473,0.426188 0,0 0.0812239,-0.120706 0.160849,-0.398062 -0.20108,-0.292583 -0.388927,-0.488532 -0.388927,-0.488532 -0.402271,0.0788139 -0.747902,0.215735 -0.917352,0.289945z"/>
    <path id="_115100672" class="fil6" d="M7.4666 5.68706c0.154674,0.0530979 0.324085,0.0963892 0.493946,0.11256 0,0 0.0812239,-0.120706 0.160849,-0.398062 -0.20108,-0.292583 -0.388927,-0.488532 -0.388927,-0.488532 -0.00590285,0.00115503 -0.0118002,0.00234337 -0.0176752,0.00352616 -0.0906751,0.311863 -0.180367,0.600636 -0.243738,0.758664 -0.00161037,0.00402038 -0.00298197,0.00790194 -0.00445352,0.0118446z"/>
    <path id="_115100600" class="fil7" d="M6.81512 5.20297l-0.00929574 0.170461c0,0 0.0606167,0.0391099 0.162303,0.0938126 0.0287257,-0.117974 0.0518596,-0.238047 0.0705177,-0.354821 -0.0911027,0.0341732 -0.16709,0.065831 -0.223525,0.0905474z"/>
    <path id="_115100528" class="fil8" d="M6.81512 5.20297l-0.000472006 0.00864604c0.270271,-0.119745 0.898644,-0.241151 0.898644,-0.241151 0.0958728,0.081657 0.345808,0.372602 0.404965,0.441909l0.003143 -0.0108173c-0.20108,-0.292583 -0.388927,-0.488532 -0.388927,-0.488532 -0.402271,0.0788139 -0.747902,0.215735 -0.917352,0.289945z"/>
    <path id="_115100456" class="fil5" d="M6.74432 5.46616c0,0 0.228562,0.570217 0.572077,0.936038 0,0 0.278189,-0.0807519 0.697686,-0.437983l-0.02174 -0.119168c0,0 -0.572871,-0.049183 -1.1911,-0.431108l-0.047978 0.0384546 -0.00894035 0.0137659z"/>
    <path id="_115100384" class="fil5" d="M7.32572 6.3992c0.0515542,-0.0173587 0.313545,-0.115791 0.688363,-0.434979l-0.02174 -0.119168c0,0 -0.184471,-0.0158761 -0.456963,-0.0993378 -0.0773146,0.263235 -0.152475,0.503453 -0.20966,0.653484z"/>
    <path id="_115100312" class="fil8" d="M7.97774 5.89468c0,0 -0.451182,0.368615 -0.608743,0.400505 0,0 -0.212758,-0.261025 -0.36982,-0.592007l0.39031 0.503236c0,0 0.427637,-0.212636 0.588253,-0.311735z"/>
    <path id="_115100240" class="fil7" d="M7.99468 5.85784l-0.00233782 -0.0127886c0,0 -0.548593,-0.0471451 -1.15143,-0.407058l0.408613 0.612031 0.147716 0.155457c0.127997,-0.0555523 0.530296,-0.305716 0.597443,-0.347641z"/>
    <path id="_115100168" class="fil1" d="M6.88077 5.49292c0,0 0.288751,0.525615 0.497289,0.762617 0,0 0.347674,-0.160066 0.565741,-0.363034l-0.434046 0.236886c-0.110433,0.0468563 -0.114559,0.066514 -0.194011,-0.033468 -0.100149,-0.126053 -0.287041,-0.368631 -0.434973,-0.603002z"/>
    <path id="_115100096" class="fil1" d="M6.78383 5.41806c0,0 0.372307,0.372468 1.20686,0.438299l0.00785751 -0.0449961c0,0 -0.77896,-0.0919468 -1.20307,-0.456907l-0.0240612 0.0178751 0.0124165 0.0457291z"/>
    <path id="_115100024" class="fil1" d="M7.1248 5.56724c0,0 0.069868,0.185187 0.252229,0.411884 0,0 0.0953452,-0.00282648 0.406753,-0.196205 0,0 -0.0507046,-0.240712 -0.181939,-0.456208 0,0 -0.147538,0.0212569 -0.465459,0.222209l-0.0116447 0.00890703 6.10831e-005 0.00941236z"/>
    <path id="_115099952" class="fil9" d="M7.20362 5.5874c0,0 0.0531868,0.14098 0.192012,0.313556 0,0 0.0725834,-0.00215457 0.309647,-0.149365 0,0 -0.038599,-0.183244 -0.138503,-0.347296 0,0 -0.112315,0.0161815 -0.354338,0.169161l-0.00886261 0.00678023 4.44241e-005 0.00716339z"/>
    <path id="_115099880" class="fil10" d="M7.65899 5.74454c0,0 -0.137126,0.0794025 -0.249186,0.112854 0,0 -0.111754,-0.149215 -0.174726,-0.265456 0.101876,0.10574 0.282959,0.14048 0.423911,0.152602z"/>
    <path id="_115099808" class="fil11" d="M7.65443 5.69753c0,0 -0.05327,-0.212697 -0.122716,-0.235487 -0.069446,-0.022784 -0.227018,0.104286 -0.227018,0.104286 0,0 0.206511,-0.0113337 0.349734,0.131201z"/>
   </g>
  </g>
 </g>
</svg>
