<?xml version="1.0" encoding="UTF-8"?>
<!DOCTYPE svg PUBLIC "-//W3C//DTD SVG 1.1//EN" "http://www.w3.org/Graphics/SVG/1.1/DTD/svg11.dtd">
<!-- Creator: CorelDRAW -->
<svg xmlns="http://www.w3.org/2000/svg" xml:space="preserve" width="161.908mm" height="176.792mm" style="shape-rendering:geometricPrecision; text-rendering:geometricPrecision; image-rendering:optimizeQuality; fill-rule:evenodd; clip-rule:evenodd"
viewBox="0 0 10.4204 11.3783"
 xmlns:xlink="http://www.w3.org/1999/xlink">
 <defs>
  <style type="text/css">
   <![CDATA[
    .fil0 {fill:none}
    .fil2 {fill:#501D33}
    .fil8 {fill:#50404B}
    .fil6 {fill:#62545D}
    .fil5 {fill:#9893A0}
    .fil7 {fill:#9A8D8E}
    .fil9 {fill:#B57366}
    .fil3 {fill:#C7C0C9}
    .fil1 {fill:#FFCFA5}
    .fil4 {fill:white}
   ]]>
  </style>
 </defs>
 <g id="Layer_x0020_1">
  <metadata id="CorelCorpID_0Corel-Layer"/>
  <rect class="fil0" width="10.4204" height="11.3783"/>
  <g id="_114533648">
   <g>
    <path id="_114539336" class="fil1" d="M2.39271 5.56554c0.0300044,0.225625 0.078126,0.447942 0.146617,0.662858 0,0 0.480212,0.373318 0.486056,0.424934 0.00587603,0.0516035 -0.131255,0.203016 -0.131255,0.203016 -0.0426253,-0.0731575 -0.100851,-0.206298 -0.124903,-0.177941 0.087175,0.306545 0.12682,0.489145 0.150543,0.597411 0.0310728,0.14172 -0.00469181,0.150267 -0.119117,0.204071l-0.250474 0.0661423c0,0 -0.0532961,-0.195589 -0.0699202,-0.1962 -0.0166176,-0.00060498 -0.0174028,0.264383 -0.0174028,0.264383 -0.19154,0.165262 -0.426112,0.164406 -0.426112,0.164406 0,0 -0.185684,-0.214034 -0.193194,-0.197088 -0.00751076,0.016933 0.103355,0.213088 0.103355,0.213088 -0.381221,0.044067 -0.441719,-0.134074 -0.441719,-0.134074 -0.326586,-0.639753 -0.52733,-1.26575 -0.589031,-1.92431l1.47656 -0.170694z"/>
    <path id="_114539264" class="fil2" d="M0.767655 5.75341c0.0525496,0.565141 0.218443,1.14006 0.60711,1.95415 0,0 0.149881,0.280003 0.643286,0.159946 0.229815,0.0371548 0.433996,-0.0549373 0.539642,-0.206446 0.00257438,-0.0036878 0.281245,-0.0301331 0.413581,-0.158955 0.0600346,-0.0584385 0.0981612,-0.110396 0.0765814,-0.216724 -0.0282474,-0.139203 -0.0699524,-0.309653 -0.0699524,-0.309653 0,0 0.24539,-0.244631 0.20521,-0.3487 -0.0401797,-0.104069 -0.541978,-0.538947 -0.542808,-0.543117 -0.0396648,-0.181893 -0.0701648,-0.360671 -0.0919054,-0.536366l-1.78074 0.205867z"/>
    <path id="_114539192" class="fil3" d="M0.916152 5.73624c0.0617015,0.658559 0.262445,1.28456 0.589031,1.92431 0,0 0.060498,0.178141 0.441719,0.134074 0,0 -0.110866,-0.196155 -0.103355,-0.213088 0.00751076,-0.0169459 0.193194,0.197088 0.193194,0.197088 0,0 0.234571,0.000855982 0.426112,-0.164406 0,0 0.000785186,-0.264988 0.0174028,-0.264383 0.0166241,0.000611416 0.0699202,0.1962 0.0699202,0.1962l0.250474 -0.0661423c0.114425,-0.0538046 0.150189,-0.0623515 0.119117,-0.204071 -0.0237229,-0.108266 -0.0633684,-0.290867 -0.150543,-0.597411 0.0240512,-0.0283568 0.0822772,0.104784 0.124903,0.177941 0,0 0.137131,-0.151412 0.131255,-0.203016 -0.00584385,-0.0516164 -0.486056,-0.424934 -0.486056,-0.424934 -0.0684914,-0.214916 -0.116613,-0.437233 -0.146617,-0.662858l-1.47656 0.170694z"/>
    <path id="_114539120" class="fil4" d="M1.07291 6.57526c0.0905346,0.322564 0.215045,0.641941 0.371824,0.964067 0.565984,-0.0525496 1.10799,-0.32172 1.10799,-0.32172l0.0108703 -0.065222c-0.420319,0.163055 -0.960212,0.199289 -0.960212,0.199289 -0.12682,-0.108703 -0.32611,-0.605115 -0.32611,-0.605115 -0.0267414,-0.124793 -0.113144,-0.163615 -0.204367,-0.171299z"/>
    <path id="_114539048" class="fil5" d="M2.15668 5.59282c0.0873423,0.564015 0.307008,1.18416 0.733757,1.84093 0.0412287,-0.0288266 0.0498658,-0.0643016 0.0293351,-0.157938 -0.0237229,-0.108266 -0.0633684,-0.290867 -0.150543,-0.597411 0.0240512,-0.0283568 0.0822772,0.104784 0.124903,0.177941 0,0 0.137131,-0.151412 0.131255,-0.203016 -0.00584385,-0.0516164 -0.486056,-0.424934 -0.486056,-0.424934 -0.0684914,-0.214916 -0.116613,-0.437233 -0.146617,-0.662858l-0.236032 0.027282z"/>
    <path id="_114538976" class="fil3" d="M2.93539 6.65557c0,0 -0.0787053,-0.162894 -0.280028,-0.265387 -0.20133,-0.102499 0.139094,0.269042 0.280028,0.265387z"/>
    <path id="_114538904" class="fil5" d="M1.48369 7.61789c0.00709242,0.0142363 0.0142363,0.0284791 0.0214897,0.0426639 0,0 0.060498,0.178134 0.441693,0.134067 0,0 -0.11084,-0.196142 -0.103329,-0.213101 0.00750432,-0.0169523 0.193207,0.19714 0.193207,0.19714 0,0 0.234558,0.000823802 0.426086,-0.164458 0,0 0.000785186,-0.265 0.0174157,-0.264395 0.0166305,0.000611416 0.0571255,0.21639 0.0571255,0.21639 0.129182,-0.0171904 0.277518,-0.0642887 0.364578,-0.141424 0.03115,-0.0275974 0.036273,-0.0648358 0.0178147,-0.148973 -0.00792266,-0.0360993 -0.0175895,-0.080488 -0.0302104,-0.134936 -0.723099,0.324835 -1.18531,0.43798 -1.40587,0.477026z"/>
    <path id="_114538832" class="fil5" d="M2.46415 6.46889c0,0 -0.428615,0.341807 -0.631168,0.412339 -0.202552,0.0705316 -0.710742,-0.124787 -0.710742,-0.124787l-0.0813826 -0.218829c0,0 0.435856,0.191708 0.537125,0.200744 0.10127,0.00903608 0.278509,-0.0162765 0.490104,-0.169999l0.278509 -0.215212 0.117553 0.115744z"/>
    <path id="_114538760" class="fil2" d="M2.70549 6.17139c0,0 -0.476949,0.366251 -1.00196,0.577479 0,0 -0.514233,-0.00816723 -0.785154,-0.213648 -0.219537,-0.65946 -0.255842,-1.32557 -0.270613,-1.75462 -0.0396712,-0.0294445 -0.0998796,-0.0387509 -0.120224,-0.0590692 -0.0115011,-0.0331452 -0.00805781,-0.172754 0.00260656,-0.232801 0,0 1.36611,0.0210263 2.04858,0.428158 0,0 0.0169201,0.0113015 0.0149121,0.0251388 -0.0553556,0.382933 -0.00893954,0.858711 0.11185,1.22936z"/>
    <path id="_114538688" class="fil3" d="M2.44692 5.18015c-0.00801276,0.22121 -0.00484627,0.596877 0.080443,0.921442 0,0 -0.242816,0.293216 -0.555404,0.526281 -0.101958,0.0760215 -0.220869,0.166871 -0.382611,0.113511 -0.155924,-0.0638382 -0.420326,-0.190009 -0.612819,-0.37528 0,0 -0.190002,-0.802081 -0.184738,-1.47358 0.193645,0.0234011 1.05281,0.132059 1.65513,0.287629z"/>
    <path id="_114538616" class="fil6" d="M2.45852 4.97111c0,0 -0.0073563,0.0919183 -0.0115976,0.20904 -0.602322,-0.15557 -1.46148,-0.264228 -1.65513,-0.287629 0.000733699,-0.0930961 0.00516807,-0.183701 0.0144358,-0.269293 0,0 0.960212,0.00727906 1.65229,0.347883z"/>
    <path id="_114538544" class="fil7" d="M1.26539 4.90527l0.0849996 -0.202552 -0.0868082 0c0,0 -0.0198935,0.202552 0.0018085,0.202552z"/>
    <path id="_114538472" class="fil4" d="M1.02088 6.11062c0.021702,0.0018085 0.484679,-0.12117 0.484679,-0.12117l-0.484679 -0.00361701 0 0.124787z"/>
    <path id="_114538400" class="fil4" d="M0.976605 6.36599c-0.0470726,-0.22168 -0.17715,-0.881488 -0.184538,-1.3917l0.126492 0.0149057c0,0 0.0195975,0.529132 0.120166,1.0794 -0.0138116,0.0876126 -0.0338016,0.155602 -0.0621198,0.297399z"/>
    <path id="_114538328" class="fil7" d="M2.46395 4.97291c0,0 -0.0076974,0.0156265 -0.010452,0.0559928 -0.0699974,-0.0275073 -0.88636,-0.318194 -1.65476,-0.320549 0.0020402,-0.0288266 0.00447942,-0.05728 0.00749789,-0.0851348 0,0 0.965638,0.00908757 1.65772,0.349691z"/>
    <path id="_114538256" class="fil5" d="M2.44693 5.18016c-0.00801276,0.22121 -0.00484627,0.596864 0.0804366,0.921423 0,0 -0.0642887,0.0776305 -0.169285,0.184751 -0.0376696,-0.144963 -0.147017,-0.598743 -0.147017,-0.982983 0,0 -0.510442,-0.216943 -1.41762,-0.267819 -0.00142235,-0.0481216 -0.00197584,-0.09587 -0.00160899,-0.143013 0.193722,0.0234076 1.05281,0.132079 1.6551,0.287642z"/>
    <path id="_114538184" class="fil2" d="M2.94769 7.11253c0,0 -0.655843,0.387708 -1.47474,0.478294l-0.0905861 -0.0724688c0,0 0.985576,-0.148561 1.52909,-0.496412l0.0615985 0.0253641 -0.0253641 0.065222z"/>
    <path id="_114538112" class="fil2" d="M2.31182 7.61522l0.0644625 -0.298841 -0.256711 -0.195499c-0.0548858,-0.0417887 -0.101521,-0.0423872 -0.125565,0.0355908l-0.0924782 0.29971 0.214787 0.216512c0.0572736,0.0533154 0.16599,0.0665478 0.195505,-0.0574731z"/>
    <path id="_114538040" class="fil6" d="M2.25094 7.54466l0.0415441 -0.195003 -0.173385 -0.134054c-0.0390534,-0.0285241 -0.0556903,-0.0289103 -0.073608,0.0291871l-0.0573572 0.194488 0.137691 0.138804c0.0360156,0.0362988 0.0652799,0.0530966 0.0853086,0.0461844 0.0194108,-0.00670626 0.029998,-0.0358869 0.0398064,-0.0796063z"/>
    <path id="_114537968" class="fil7" d="M2.28193 7.3415l-0.162836 -0.1259c-0.0390534,-0.0285241 -0.0556903,-0.0289103 -0.073608,0.0291871l-0.053264 0.180606c0.0257696,-0.0441506 0.0829273,-0.137826 0.106386,-0.141919 0.0233625,-0.00408039 0.13233,0.0377211 0.183322,0.0580266z"/>
    <path id="_114537896" class="fil8" d="M2.27634 7.36554l-0.0535536 0.221854c0,0 -0.0101238,0.0233175 -0.0456116,0.00857913 -0.0354814,-0.0147448 -0.164201,-0.160101 -0.164201,-0.160101 0,0 0.14849,0.0315812 0.263366,-0.0703321z"/>
    <path id="_114537824" class="fil2" d="M1.79509 7.70976l0.0505158 -0.26901 -0.234455 -0.168796c-0.0501232,-0.03608 -0.0918797,-0.0354943 -0.111522,0.03487l-0.0755645 0.270458 0.197436 0.188619c0.0525431,0.0463389 0.150157,0.055568 0.173591,-0.0561408z"/>
    <path id="_114537752" class="fil6" d="M1.7389 7.64807l0.0324951 -0.175521 -0.158395 -0.115815c-0.0356359,-0.0245918 -0.0505415,-0.0245339 -0.0651833,0.0278934l-0.0466542 0.175444 0.126569 0.120919c0.0331001,0.0316198 0.0596999,0.0459527 0.0774567,0.0392786 0.0172097,-0.0064617 0.0259884,-0.0328362 0.0337115,-0.0721985z"/>
    <path id="_114537680" class="fil7" d="M1.77139 7.47263l1.28719e-005 -7.72315e-005 -0.158395 -0.115815c-0.0356359,-0.0245918 -0.0505415,-0.0245339 -0.0651833,0.0278934l-0.0405658 0.152551c0.028685,-0.0474394 0.0724238,-0.114611 0.0922079,-0.118068 0.0217407,-0.00379721 0.11763,0.0321476 0.171924,0.053515z"/>
    <path id="_114537608" class="fil8" d="M1.75734 7.48715l-0.0425996 0.199843c0,0 -0.0085019,0.0211099 -0.0406109,0.00877221 -0.0321154,-0.0123442 -0.150807,-0.139345 -0.150807,-0.139345 0,0 0.133649,0.0247012 0.234018,-0.0692702z"/>
    <path id="_114537536" class="fil2" d="M2.79516 7.38926l0.0555294 -0.273914 -0.234211 -0.162688c-0.0500717,-0.0347735 -0.0922851,-0.0327397 -0.113318,0.0391306l-0.0808742 0.276244 0.196451 0.184017c0.0523501,0.045071 0.150878,0.0510371 0.176422,-0.0627892z"/>
    <path id="_114537464" class="fil6" d="M2.73939 7.32878l0.0357646 -0.178707 -0.158209 -0.111702c-0.0356101,-0.0236457 -0.0506831,-0.0230793 -0.0663483,0.0304678l-0.0500846 0.179119 0.125945 0.117971c0.0329392,0.0308475 0.0595905,0.0444274 0.0776562,0.0370647 0.0175058,-0.00713104 0.0268122,-0.034117 0.0352755,-0.074213z"/>
    <path id="_114537392" class="fil7" d="M2.76006 7.13942l-0.143116 -0.101044c-0.0356101,-0.0236457 -0.0506831,-0.0230793 -0.0663483,0.0304678l-0.0392593 0.1404c0.028685,-0.0474008 0.072147,-0.114032 0.0918475,-0.117469 0.0198485,-0.00346254 0.101495,0.0261943 0.156876,0.0476454z"/>
    <path id="_114537320" class="fil8" d="M2.76069 7.16534l-0.0463839 0.203659c0,0 -0.00894598,0.021657 -0.041203,0.0102782 -0.032257,-0.0113788 -0.150138,-0.135773 -0.150138,-0.135773 0,0 0.134705,0.0203762 0.237725,-0.0781647z"/>
    <path id="_114537248" class="fil2" d="M0.707247 4.85117c0,0 1.08113,0.0713876 1.7635,0.32163 0.0163473,0.00599831 -0.0195396,0.0594296 -0.00340462,0.0653571 0,0 -0.966713,-0.279308 -1.77112,-0.277879l-0.0232982 -0.0403599 0.0343229 -0.0687489z"/>
    <path id="_114537176" class="fil4" d="M2.2846 6.22841c0,0 -0.253641,0.315239 -0.500035,0.434813 -0.246394,0.119574 -0.746429,-0.329733 -0.746429,-0.329733 0,0 0.521776,0.163055 1.24646,-0.10508z"/>
    <polygon id="_114537104" class="fil2" points="1.30129,4.62602 1.25246,4.9606 1.19639,4.95336 1.2416,4.62421 "/>
    <polygon id="_114537032" class="fil2" points="1.97465,4.73131 1.90302,5.06176 1.84758,5.0507 1.91523,4.72542 "/>
    <path id="_114536960" class="fil5" d="M2.3009 5.47841c0,0 -0.322486,-0.132413 -0.811651,-0.275086 0,0 0.433011,0.0464354 0.829775,0.158151l0.0253577 0.0498207 -0.0434813 0.0671141z"/>
    <path id="_114536888" class="fil9" d="M1.3246 5.27532c-0.0510822,0 -0.0973181,0.0207302 -0.130772,0.0542487 -0.0122927,-0.00462102 -0.0256215,-0.00714391 -0.0395296,-0.00714391 -0.0620233,0 -0.112327,0.0503034 -0.112327,0.112327 0,0.0620233 0.0503034,0.112327 0.112327,0.112327 0.00238774,0 0.00477548,-9.65393e-005 0.0071246,-0.00023813 0.0310728,0.0583291 0.0924847,0.0980711 0.163177,0.0980711 0.102042,0 0.184796,-0.0827535 0.184796,-0.184796 0,-0.102042 -0.0827535,-0.184796 -0.184796,-0.184796zm-0.170302 -0.0760923c-0.0240125,0 -0.0434813,0.0194688 -0.0434813,0.0434813 0,0.0240125 0.0194688,0.0434813 0.0434813,0.0434813 0.0240125,0 0.0434813,-0.0194688 0.0434813,-0.0434813 0,-0.0240125 -0.0194688,-0.0434813 -0.0434813,-0.0434813zm0.11595 0.518152c-0.034014,0 -0.0615985,0.0275845 -0.0615985,0.0615985 0,0.034014 0.0275845,0.0615985 0.0615985,0.0615985 0.034014,0 0.0615985,-0.0275845 0.0615985,-0.0615985 0,-0.034014 -0.0275845,-0.0615985 -0.0615985,-0.0615985z"/>
    <polygon id="_114536816" class="fil2" points="0.832542,5.90584 1.54998,5.98918 0.825295,6.04353 "/>
    <circle id="_114536744" class="fil5" cx="2.3022" cy="5.84387" r="0.127496"/>
    <circle id="_114536672" class="fil5" cx="2.16928" cy="5.65488" r="0.0325531"/>
    <circle id="_114536600" class="fil5" cx="1.93055" cy="5.98403" r="0.0542551"/>
    <circle id="_114536528" class="fil5" cx="2.31667" cy="6.13323" r="0.0551561"/>
   </g>
   <g>
    <path id="_114536432" class="fil1" d="M8.02765 5.56554c-0.0300044,0.225625 -0.078126,0.447942 -0.146617,0.662858 0,0 -0.480212,0.373318 -0.486056,0.424934 -0.00587603,0.0516035 0.131255,0.203016 0.131255,0.203016 0.0426253,-0.0731575 0.100851,-0.206298 0.124903,-0.177941 -0.087175,0.306545 -0.12682,0.489145 -0.150543,0.597411 -0.0310728,0.14172 0.00469181,0.150267 0.119117,0.204071l0.250474 0.0661423c0,0 0.0532961,-0.195589 0.0699202,-0.1962 0.0166176,-0.00060498 0.0174028,0.264383 0.0174028,0.264383 0.19154,0.165262 0.426112,0.164406 0.426112,0.164406 0,0 0.185684,-0.214034 0.193194,-0.197088 0.00751076,0.016933 -0.103355,0.213088 -0.103355,0.213088 0.381221,0.044067 0.441719,-0.134074 0.441719,-0.134074 0.326586,-0.639753 0.52733,-1.26575 0.589031,-1.92431l-1.47656 -0.170694z"/>
    <path id="_114536360" class="fil2" d="M9.6527 5.75341c-0.0525496,0.565141 -0.218443,1.14006 -0.60711,1.95415 0,0 -0.149881,0.280003 -0.643286,0.159946 -0.229815,0.0371548 -0.433996,-0.0549373 -0.539642,-0.206446 -0.00257438,-0.0036878 -0.281245,-0.0301331 -0.413581,-0.158955 -0.0600346,-0.0584385 -0.0981612,-0.110396 -0.0765814,-0.216724 0.0282474,-0.139203 0.0699524,-0.309653 0.0699524,-0.309653 0,0 -0.24539,-0.244631 -0.20521,-0.3487 0.0401797,-0.104069 0.541978,-0.538947 0.542808,-0.543117 0.0396648,-0.181893 0.0701648,-0.360671 0.0919054,-0.536366l1.78074 0.205867z"/>
    <path id="_114536288" class="fil3" d="M9.50421 5.73624c-0.0617015,0.658559 -0.262445,1.28456 -0.589031,1.92431 0,0 -0.060498,0.178141 -0.441719,0.134074 0,0 0.110866,-0.196155 0.103355,-0.213088 -0.00751076,-0.0169459 -0.193194,0.197088 -0.193194,0.197088 0,0 -0.234571,0.000855982 -0.426112,-0.164406 0,0 -0.000785186,-0.264988 -0.0174028,-0.264383 -0.0166241,0.000611416 -0.0699202,0.1962 -0.0699202,0.1962l-0.250474 -0.0661423c-0.114425,-0.0538046 -0.150189,-0.0623515 -0.119117,-0.204071 0.0237229,-0.108266 0.0633684,-0.290867 0.150543,-0.597411 -0.0240512,-0.0283568 -0.0822772,0.104784 -0.124903,0.177941 0,0 -0.137131,-0.151412 -0.131255,-0.203016 0.00584385,-0.0516164 0.486056,-0.424934 0.486056,-0.424934 0.0684914,-0.214916 0.116613,-0.437233 0.146617,-0.662858l1.47656 0.170694z"/>
    <path id="_114536216" class="fil4" d="M9.34744 6.57526c-0.0905346,0.322564 -0.215045,0.641941 -0.371824,0.964067 -0.565984,-0.0525496 -1.10799,-0.32172 -1.10799,-0.32172l-0.0108703 -0.065222c0.420319,0.163055 0.960212,0.199289 0.960212,0.199289 0.12682,-0.108703 0.32611,-0.605115 0.32611,-0.605115 0.0267414,-0.124793 0.113144,-0.163615 0.204367,-0.171299z"/>
    <path id="_114536144" class="fil5" d="M8.26368 5.59282c-0.0873423,0.564015 -0.307008,1.18416 -0.733757,1.84093 -0.0412287,-0.0288266 -0.0498658,-0.0643016 -0.0293351,-0.157938 0.0237229,-0.108266 0.0633684,-0.290867 0.150543,-0.597411 -0.0240512,-0.0283568 -0.0822772,0.104784 -0.124903,0.177941 0,0 -0.137131,-0.151412 -0.131255,-0.203016 0.00584385,-0.0516164 0.486056,-0.424934 0.486056,-0.424934 0.0684914,-0.214916 0.116613,-0.437233 0.146617,-0.662858l0.236032 0.027282z"/>
    <path id="_114536072" class="fil3" d="M7.48497 6.65557c0,0 0.0787053,-0.162894 0.280028,-0.265387 0.20133,-0.102499 -0.139094,0.269042 -0.280028,0.265387z"/>
    <path id="_114536000" class="fil5" d="M8.93666 7.61789c-0.00709242,0.0142363 -0.0142363,0.0284791 -0.0214897,0.0426639 0,0 -0.060498,0.178134 -0.441693,0.134067 0,0 0.11084,-0.196142 0.103329,-0.213101 -0.00750432,-0.0169523 -0.193207,0.19714 -0.193207,0.19714 0,0 -0.234558,0.000823802 -0.426086,-0.164458 0,0 -0.000785186,-0.265 -0.0174157,-0.264395 -0.0166305,0.000611416 -0.0571255,0.21639 -0.0571255,0.21639 -0.129182,-0.0171904 -0.277518,-0.0642887 -0.364578,-0.141424 -0.03115,-0.0275974 -0.036273,-0.0648358 -0.0178147,-0.148973 0.00792266,-0.0360993 0.0175895,-0.080488 0.0302104,-0.134936 0.723099,0.324835 1.18531,0.43798 1.40587,0.477026z"/>
    <path id="_114535928" class="fil5" d="M7.9562 6.46889c0,0 0.428615,0.341807 0.631168,0.412339 0.202552,0.0705316 0.710742,-0.124787 0.710742,-0.124787l0.0813826 -0.218829c0,0 -0.435856,0.191708 -0.537125,0.200744 -0.10127,0.00903608 -0.278509,-0.0162765 -0.490104,-0.169999l-0.278509 -0.215212 -0.117553 0.115744z"/>
    <path id="_114535856" class="fil2" d="M7.71487 6.17139c0,0 0.476949,0.366251 1.00196,0.577479 0,0 0.514233,-0.00816723 0.785154,-0.213648 0.219537,-0.65946 0.255842,-1.32557 0.270613,-1.75462 0.0396712,-0.0294445 0.0998796,-0.0387509 0.120224,-0.0590692 0.0115011,-0.0331452 0.00805781,-0.172754 -0.00260656,-0.232801 0,0 -1.36611,0.0210263 -2.04858,0.428158 0,0 -0.0169201,0.0113015 -0.0149121,0.0251388 0.0553556,0.382933 0.00893954,0.858711 -0.11185,1.22936z"/>
    <path id="_114535784" class="fil3" d="M7.97343 5.18015c0.00801276,0.22121 0.00484627,0.596877 -0.080443,0.921442 0,0 0.242816,0.293216 0.555404,0.526281 0.101958,0.0760215 0.220869,0.166871 0.382611,0.113511 0.155924,-0.0638382 0.420326,-0.190009 0.612819,-0.37528 0,0 0.190002,-0.802081 0.184738,-1.47358 -0.193645,0.0234011 -1.05281,0.132059 -1.65513,0.287629z"/>
    <path id="_114535712" class="fil6" d="M7.96184 4.97111c0,0 0.0073563,0.0919183 0.0115976,0.20904 0.602322,-0.15557 1.46148,-0.264228 1.65513,-0.287629 -0.000733699,-0.0930961 -0.00516807,-0.183701 -0.0144358,-0.269293 0,0 -0.960212,0.00727906 -1.65229,0.347883z"/>
    <path id="_114535640" class="fil7" d="M9.15497 4.90527l-0.0849996 -0.202552 0.0868082 0c0,0 0.0198935,0.202552 -0.0018085,0.202552z"/>
    <path id="_114535568" class="fil4" d="M9.39948 6.11062c-0.021702,0.0018085 -0.484679,-0.12117 -0.484679,-0.12117l0.484679 -0.00361701 0 0.124787z"/>
    <path id="_114535496" class="fil4" d="M9.44375 6.36599c0.0470726,-0.22168 0.17715,-0.881488 0.184538,-1.3917l-0.126492 0.0149057c0,0 -0.0195975,0.529132 -0.120166,1.0794 0.0138116,0.0876126 0.0338016,0.155602 0.0621198,0.297399z"/>
    <path id="_114535424" class="fil7" d="M7.95641 4.97291c0,0 0.0076974,0.0156265 0.010452,0.0559928 0.0699974,-0.0275073 0.88636,-0.318194 1.65476,-0.320549 -0.0020402,-0.0288266 -0.00447942,-0.05728 -0.00749789,-0.0851348 0,0 -0.965638,0.00908757 -1.65772,0.349691z"/>
    <path id="_114535352" class="fil5" d="M7.97343 5.18016c0.00801276,0.22121 0.00484627,0.596864 -0.0804366,0.921423 0,0 0.0642887,0.0776305 0.169285,0.184751 0.0376696,-0.144963 0.147017,-0.598743 0.147017,-0.982983 0,0 0.510442,-0.216943 1.41762,-0.267819 0.00142235,-0.0481216 0.00197584,-0.09587 0.00160899,-0.143013 -0.193722,0.0234076 -1.05281,0.132079 -1.6551,0.287642z"/>
    <path id="_114535280" class="fil2" d="M7.47267 7.11253c0,0 0.655843,0.387708 1.47474,0.478294l0.0905861 -0.0724688c0,0 -0.985576,-0.148561 -1.52909,-0.496412l-0.0615985 0.0253641 0.0253641 0.065222z"/>
    <path id="_114535208" class="fil2" d="M8.10854 7.61522l-0.0644625 -0.298841 0.256711 -0.195499c0.0548858,-0.0417887 0.101521,-0.0423872 0.125565,0.0355908l0.0924782 0.29971 -0.214787 0.216512c-0.0572736,0.0533154 -0.16599,0.0665478 -0.195505,-0.0574731z"/>
    <path id="_114535136" class="fil6" d="M8.16942 7.54466l-0.0415441 -0.195003 0.173385 -0.134054c0.0390534,-0.0285241 0.0556903,-0.0289103 0.073608,0.0291871l0.0573572 0.194488 -0.137691 0.138804c-0.0360156,0.0362988 -0.0652799,0.0530966 -0.0853086,0.0461844 -0.0194108,-0.00670626 -0.029998,-0.0358869 -0.0398064,-0.0796063z"/>
    <path id="_114535064" class="fil7" d="M8.13843 7.3415l0.162836 -0.1259c0.0390534,-0.0285241 0.0556903,-0.0289103 0.073608,0.0291871l0.053264 0.180606c-0.0257696,-0.0441506 -0.0829273,-0.137826 -0.106386,-0.141919 -0.0233625,-0.00408039 -0.13233,0.0377211 -0.183322,0.0580266z"/>
    <path id="_114534992" class="fil8" d="M8.14402 7.36554l0.0535536 0.221854c0,0 0.0101238,0.0233175 0.0456116,0.00857913 0.0354814,-0.0147448 0.164201,-0.160101 0.164201,-0.160101 0,0 -0.14849,0.0315812 -0.263366,-0.0703321z"/>
    <path id="_114534920" class="fil2" d="M8.62527 7.70976l-0.0505158 -0.26901 0.234455 -0.168796c0.0501232,-0.03608 0.0918797,-0.0354943 0.111522,0.03487l0.0755645 0.270458 -0.197436 0.188619c-0.0525431,0.0463389 -0.150157,0.055568 -0.173591,-0.0561408z"/>
    <path id="_114534848" class="fil6" d="M8.68145 7.64807l-0.0324951 -0.175521 0.158395 -0.115815c0.0356359,-0.0245918 0.0505415,-0.0245339 0.0651833,0.0278934l0.0466542 0.175444 -0.126569 0.120919c-0.0331001,0.0316198 -0.0596999,0.0459527 -0.0774567,0.0392786 -0.0172097,-0.0064617 -0.0259884,-0.0328362 -0.0337115,-0.0721985z"/>
    <path id="_114534776" class="fil7" d="M8.64897 7.47263l-1.28719e-005 -7.72315e-005 0.158395 -0.115815c0.0356359,-0.0245918 0.0505415,-0.0245339 0.0651833,0.0278934l0.0405658 0.152551c-0.028685,-0.0474394 -0.0724238,-0.114611 -0.0922079,-0.118068 -0.0217407,-0.00379721 -0.11763,0.0321476 -0.171924,0.053515z"/>
    <path id="_114534704" class="fil8" d="M8.66302 7.48715l0.0425996 0.199843c0,0 0.0085019,0.0211099 0.0406109,0.00877221 0.0321154,-0.0123442 0.150807,-0.139345 0.150807,-0.139345 0,0 -0.133649,0.0247012 -0.234018,-0.0692702z"/>
    <path id="_114534632" class="fil2" d="M7.6252 7.38926l-0.0555294 -0.273914 0.234211 -0.162688c0.0500717,-0.0347735 0.0922851,-0.0327397 0.113318,0.0391306l0.0808742 0.276244 -0.196451 0.184017c-0.0523501,0.045071 -0.150878,0.0510371 -0.176422,-0.0627892z"/>
    <path id="_114534560" class="fil6" d="M7.68097 7.32878l-0.0357646 -0.178707 0.158209 -0.111702c0.0356101,-0.0236457 0.0506831,-0.0230793 0.0663483,0.0304678l0.0500846 0.179119 -0.125945 0.117971c-0.0329392,0.0308475 -0.0595905,0.0444274 -0.0776562,0.0370647 -0.0175058,-0.00713104 -0.0268122,-0.034117 -0.0352755,-0.074213z"/>
    <path id="_114534488" class="fil7" d="M7.6603 7.13942l0.143116 -0.101044c0.0356101,-0.0236457 0.0506831,-0.0230793 0.0663483,0.0304678l0.0392593 0.1404c-0.028685,-0.0474008 -0.072147,-0.114032 -0.0918475,-0.117469 -0.0198485,-0.00346254 -0.101495,0.0261943 -0.156876,0.0476454z"/>
    <path id="_114534416" class="fil8" d="M7.65967 7.16534l0.0463839 0.203659c0,0 0.00894598,0.021657 0.041203,0.0102782 0.032257,-0.0113788 0.150138,-0.135773 0.150138,-0.135773 0,0 -0.134705,0.0203762 -0.237725,-0.0781647z"/>
    <path id="_114534344" class="fil2" d="M9.71311 4.85117c0,0 -1.08113,0.0713876 -1.7635,0.32163 -0.0163473,0.00599831 0.0195396,0.0594296 0.00340462,0.0653571 0,0 0.966713,-0.279308 1.77112,-0.277879l0.0232982 -0.0403599 -0.0343229 -0.0687489z"/>
    <path id="_114534272" class="fil4" d="M8.13576 6.22841c0,0 0.253641,0.315239 0.500035,0.434813 0.246394,0.119574 0.746429,-0.329733 0.746429,-0.329733 0,0 -0.521776,0.163055 -1.24646,-0.10508z"/>
    <polygon id="_114534200" class="fil2" points="9.11907,4.62602 9.1679,4.9606 9.22396,4.95336 9.17875,4.62421 "/>
    <polygon id="_114534128" class="fil2" points="8.41672,4.73856 8.48835,5.069 8.54379,5.05795 8.47614,4.73267 "/>
    <path id="_114534056" class="fil5" d="M8.11946 5.47841c0,0 0.322486,-0.132413 0.811651,-0.275086 0,0 -0.433011,0.0464354 -0.829775,0.158151l-0.0253577 0.0498207 0.0434813 0.0671141z"/>
    <path id="_114533984" class="fil9" d="M9.41014 5.19461c0.000894598,0.0510757 -0.0190182,0.0976656 -0.051951,0.131699 0.00483984,0.0122154 0.00759443,0.0254928 0.00783899,0.0394009 0.00108768,0.0620169 -0.0483276,0.113189 -0.110338,0.114277 -0.0620169,0.00108768 -0.113196,-0.0483211 -0.114283,-0.110338 -3.86157e-005,-0.00238774 1.28719e-005,-0.00477548 0.000115847,-0.0071246 -0.0588632,-0.0300495 -0.0996801,-0.0907534 -0.100916,-0.161433 -0.0017892,-0.102029 0.0794969,-0.186218 0.181526,-0.188007 0.102023,-0.0017892 0.186218,0.0794969 0.188007,0.181526zm0.0790657 0.168937c0.000424773,0.0240125 -0.0187029,0.043816 -0.042709,0.0442407 -0.0240125,0.000418337 -0.043816,-0.0187029 -0.0442407,-0.0427154 -0.000418337,-0.0240061 0.0187029,-0.043816 0.0427154,-0.0442343 0.0240061,-0.000424773 0.043816,0.0187029 0.0442343,0.042709zm-0.520102 -0.106843c0.000592108,0.0340076 -0.0265033,0.0620748 -0.0605108,0.0626669 -0.0340076,0.000598544 -0.0620748,-0.0264968 -0.0626733,-0.0605044 -0.000592108,-0.034014 0.0265033,-0.0620748 0.0605108,-0.0626733 0.0340076,-0.000592108 0.0620748,0.0265033 0.0626733,0.0605108z"/>
    <polygon id="_114533912" class="fil2" points="9.58781,5.90584 8.87037,5.98918 9.59506,6.04353 "/>
    <circle id="_114533840" class="fil5" cx="8.11816" cy="5.84387" r="0.127496"/>
    <circle id="_114533768" class="fil5" cx="8.25108" cy="5.65488" r="0.0325531"/>
    <circle id="_114533696" class="fil5" cx="8.10369" cy="6.13323" r="0.0551561"/>
   </g>
  </g>
 </g>
</svg>
