<?xml version="1.0" encoding="UTF-8"?>
<!DOCTYPE svg PUBLIC "-//W3C//DTD SVG 1.1//EN" "http://www.w3.org/Graphics/SVG/1.1/DTD/svg11.dtd">
<!-- Creator: CorelDRAW -->
<svg xmlns="http://www.w3.org/2000/svg" xml:space="preserve" width="161.908mm" height="176.792mm" style="shape-rendering:geometricPrecision; text-rendering:geometricPrecision; image-rendering:optimizeQuality; fill-rule:evenodd; clip-rule:evenodd"
viewBox="0 0 7.90616 8.63294"
 xmlns:xlink="http://www.w3.org/1999/xlink">
 <defs>
  <style type="text/css">
   <![CDATA[
    .fil0 {fill:none}
    .fil1 {fill:#501D33}
    .fil6 {fill:#612D3D}
    .fil5 {fill:#75414C}
    .fil3 {fill:#878087}
    .fil7 {fill:#955B58}
    .fil8 {fill:#BB8778}
    .fil2 {fill:#BCB4AB}
    .fil4 {fill:#D9D4CA}
   ]]>
  </style>
 </defs>
 <g id="Layer_x0020_1">
  <metadata id="CorelCorpID_0Corel-Layer"/>
  <rect class="fil0" width="7.90616" height="8.63294"/>
  <g id="_112322040">
   <g>
    <g>
     <path id="_112408096" class="fil1" d="M1.40855 3.42346c0,0 0.0384203,-0.0891899 0.0329317,-0.183868 0,0 0.0713519,0.090562 0.0576304,0.225033 -0.0137215,0.134471 -0.0974228,0.00686076 -0.090562,-0.0411646z"/>
     <path id="_112408024" class="fil1" d="M0.554794 3.70598l-0.131961 -0.285916c0,0 0.206189,-0.0989708 0.43987,0.0604821 0,0 0.0358859,-0.0576939 0.0674064,-0.201389 0.0882621,0.00123543 0.21576,0.127161 0.237753,0.173897 0,0 0.0824756,-0.162202 0.151205,-0.214437 0,0 0.142968,0.175948 0.159463,0.214437 0,0 0.097667,-0.0853127 0.107243,-0.226854 0,0 0.0962313,0.0536946 0.134676,0.193864 0,0 0.105905,-0.129241 0.272179,-0.118313 0,0 -0.0852443,0.150112 -0.0646523,0.404204 0.0205921,0.254092 -1.1615,0.189718 -1.37318,2.44155e-005z"/>
     <path id="_112407952" class="fil2" d="M0.978349 3.38587c-0.0239516,0.082124 -0.0461453,0.139828 -0.0963974,0.206565 -0.0886479,-0.0759127 -0.214266,-0.138265 -0.354548,-0.122014l0.0808984 0.187809c0.051507,0.0362619 0.169136,0.0592565 0.223138,0.0719232 0.125564,0.02945 0.25856,0.0458182 0.387172,0.054178 0.141146,0.00917047 0.294588,0.0101373 0.434748,-0.0103082 0.0475419,-0.00693401 0.100382,-0.0171788 0.145009,-0.0354074 0.00993712,-0.00405786 0.0501446,-0.0176182 0.0576743,-0.0280583 -0.0078911,-0.0998253 0.000742232,-0.213157 0.0240591,-0.310814 -0.091358,0.034421 -0.1581,0.101632 -0.200657,0.184142 0.00285662,-0.0827491 -0.00825245,-0.140267 -0.0593395,-0.218797 -0.0396508,0.0802148 -0.0943416,0.136273 -0.16603,0.183068 -0.0335225,-0.0807079 -0.084297,-0.137367 -0.138651,-0.180826 -0.0507648,0.0729438 -0.0879935,0.152626 -0.127117,0.232021 -0.0494268,-0.105026 -0.101661,-0.154125 -0.209959,-0.21348z"/>
     <path id="_112407880" class="fil3" d="M0.662095 3.66633c0,0 -0.00411646,-0.0480253 -0.0150937,-0.0850734 0,0 0.13996,-0.0109772 0.271686,0.090562 0,0 0.0644912,-0.0603747 0.0850734,-0.134471 0,0 0.0329317,0.027443 0.0466532,0.090562 0,0 0.0260709,-0.0343038 0.0343038,-0.0699798 0,0 0.102911,0.0535139 0.135843,0.118005 0,0 0.100167,-0.0672355 0.119377,-0.175635 0,0 0.0686076,0.0315595 0.0768405,0.119377 0,0 0.134471,-0.0507696 0.171519,-0.122122 0,0 0.0219544,0.0219544 0.0164658,0.0603747 0,0 0.0259342,-0.00615271 0.0361887,-0.0348654 0,0 0.0198254,0.0246108 0.00683635,0.091607l0.0546908 0.00957088c0,0 0.0328145,-0.0963925 0.106647,-0.132625 0,0 -0.00341817,0.0731489 0.0143563,0.145614 0.0177745,0.0724653 -0.294187,0.140243 -0.318886,0.152592 -0.0246987,0.0123494 -0.329317,0.0658633 -0.352643,0.0740962 -0.0233266,0.00823291 -0.440461,-0.0754684 -0.440461,-0.0754684l-0.0493975 -0.122122z"/>
     <path id="_112407808" class="fil4" d="M0.978349 3.38587c-0.0238295,0.0816992 -0.0459158,0.139227 -0.0956161,0.205525l0.00165049 0.000835011c0,0 0.0617469,-0.0493975 0.123494,-0.122122 0,0 0.0758248,0.0066459 0.176392,0.120808 -0.0482695,-0.0992686 -0.100563,-0.147304 -0.205921,-0.205046zm-0.100553 0.203025c-0.088394,-0.0743013 -0.212293,-0.134471 -0.350392,-0.118474l0.0808984 0.187809c0.00091314,0.00064457 0.00186535,0.00127937 0.00282243,0.00191418l-0.0135213 -0.137894c0,0 0.101783,-0.0227553 0.280193,0.0666446zm0.476684 -0.18713c-0.0126717,-0.0123787 -0.0257535,-0.0238002 -0.0390551,-0.0344357 -0.0499542,0.0717816 -0.0868118,0.150072 -0.125257,0.228207 0.00949275,-0.00662637 0.0762692,-0.0560532 0.164312,-0.193771z"/>
    </g>
    <g>
     <g>
      <polygon id="_112407712" class="fil1" points="0.535335,3.6478 1.91289,3.57545 1.89647,4.17792 0.575659,4.23123 "/>
      <polygon id="_112407640" class="fil5" points="0.610193,3.71193 0.640922,4.15657 1.84499,4.13087 1.85326,3.68579 "/>
      <path id="_112407568" class="fil6" d="M1.84622 4.06494l0.00704144 -0.379158 -0.300975 0.0063285 -0.0463114 0.37283c0,0 0.201179,0.00700237 0.340245,0z"/>
      <polygon id="_112407496" class="fil7" points="0.930949,3.96037 0.991778,3.72281 0.891567,3.72515 "/>
      <path id="_112407424" class="fil7" d="M0.610193 3.71193l0.0307294 0.444646 0.00514679 -0.000336934c0.0165635,-0.0194006 0.0283513,-0.0338008 0.0283513,-0.0338008l0.0169444 -0.312118 1.15091 -0.125432 -1.23208 0.0270426z"/>
      <polygon id="_112407352" class="fil1" points="0.842804,3.6658 0.929274,3.9568 0.912496,3.6659 "/>
     </g>
     <path id="_112407256" class="fil1" d="M1.07989 5.70189l1.13541 -0.360144c0,0 -0.0714789,-0.0824756 -0.0989708,-0.0852248 -0.0274919,-0.00274919 -0.492105,-0.0852248 -0.525095,-0.0632313 -0.0329903,0.0219935 -0.255674,0.104469 -0.274919,0.123713 -0.0192443,0.0192443 -0.26942,0.277668 -0.23643,0.384886z"/>
     <path id="_112407184" class="fil6" d="M1.12615 5.62531l0.954447 -0.313725c0,0 -0.0600866,-0.0693303 -0.0831983,-0.07164 -0.0231068,-0.00230971 -0.413667,-0.07164 -0.441398,-0.0531526 -0.0277311,0.0184874 -0.214925,0.0878177 -0.231103,0.103995 -0.0161777,0.0161777 -0.226478,0.24439 -0.198747,0.334522z"/>
     <polygon id="_112407112" class="fil1" points="2.18261,4.76806 1.02765,5.76237 0.857205,5.38298 1.32457,4.82765 1.91054,4.48688 "/>
     <polygon id="_112407040" class="fil6" points="1.97337,4.8369 1.05708,5.62452 0.920729,5.31889 1.30081,4.91109 1.76011,4.64398 "/>
     <polygon id="_112406968" class="fil5" points="1.97337,4.8369 1.05708,5.62452 0.920729,5.31889 1.08656,5.53197 "/>
     <polygon id="_112406896" class="fil1" points="2.13283,5.08332 0.928683,4.94586 0.744488,5.09432 0.826963,5.42422 2.2428,5.34999 "/>
     <polygon id="_112406824" class="fil5" points="2.10939,5.14 0.956561,5.01011 0.807714,5.05615 0.877142,5.35314 2.17948,5.30054 "/>
     <polygon id="_112406752" class="fil1" points="0.588736,4.64082 1.93193,4.29107 2.08728,4.83682 0.724428,5.13057 "/>
     <polygon id="_112406680" class="fil7" points="0.683366,4.69186 0.802987,5.04491 1.99553,4.78204 1.88108,4.37999 "/>
     <path id="_112406608" class="fil8" d="M0.683371 4.69186l0.119617 0.353053 0.140726 -0.0310224c-0.0413355,-0.122283 -0.0751559,-0.244302 -0.10275,-0.363064l-0.157592 0.0410327z"/>
     <path id="_112406536" class="fil5" d="M1.56697 4.87651l0.428561 -0.0944734 -0.114445 -0.402041 -0.426114 0.110954c0.0277653,0.124392 0.0644912,0.25335 0.111999,0.38556z"/>
     <polygon id="_112406464" class="fil5" points="1.98999,4.76258 1.88108,4.37999 0.777678,4.66731 "/>
     <polygon id="_112406392" class="fil1" points="0.564936,4.15972 1.95011,4.07139 1.999,4.63671 0.634867,4.67207 "/>
     <polygon id="_112406320" class="fil5" points="0.648154,4.22781 0.698562,4.59715 1.91932,4.56551 1.8833,4.14905 "/>
     <path id="_112406248" class="fil7" d="M0.648159 4.22781l0.0504132 0.369338 0.111393 -0.00288591c-0.0299285,-0.129363 -0.0525422,-0.254761 -0.0695501,-0.372342l-0.0922565 0.00588902z"/>
     <path id="_112406176" class="fil6" d="M1.5276 4.57566l0.391718 -0.0101569 -0.0360129 -0.416465 -0.431007 0.027487c0.0155673,0.126858 0.0398412,0.26045 0.0753023,0.399135z"/>
     <polygon id="_112406104" class="fil6" points="0.648159,4.22781 0.681608,4.47286 1.89467,4.28053 1.8833,4.14904 "/>
     <polygon id="_112406032" class="fil1" points="0.461258,4.02463 1.92031,3.64946 2.03208,4.17837 0.564296,4.46545 "/>
     <polygon id="_112405960" class="fil7" points="0.548309,4.07522 1.85567,3.73933 1.94072,4.09289 0.618933,4.37739 "/>
     <path id="_112405888" class="fil8" d="M0.690637 4.03302c0.010108,0.0982139 0.0240688,0.205007 0.0432008,0.317382l-0.114904 0.026984 -0.0706243 -0.302162 0.142328 -0.0422047z"/>
     <polygon id="_112405816" class="fil8" points="0.548309,4.07522 1.53308,3.82241 0.600959,4.11626 0.622742,4.37649 0.618933,4.37739 "/>
     <path id="_112405744" class="fil5" d="M1.55774 3.81536l0.300555 -0.0747213 0.0823877 0.354953 -0.376067 0.0758053c-0.01671,-0.132557 -0.00613806,-0.239961 -0.00687541,-0.356037z"/>
     <polygon id="_112405672" class="fil5" points="0.670836,4.3453 1.88478,4.04416 1.84708,3.74506 "/>
     <polygon id="_112405600" class="fil1" points="1.92887,4.293 1.18786,4.39101 1.92213,4.20539 "/>
     <polygon id="_112405528" class="fil1" points="0.552416,4.22138 0.915186,4.12062 0.554589,4.29882 "/>
     <polygon id="_112405456" class="fil1" points="1.91222,3.96862 1.42151,4.16248 1.93505,4.03513 "/>
     <path id="_112405384" class="fil1" d="M2.00794 4.78621c0,0 -0.313114,-0.0184484 -0.301883,-0.0235756 0.011236,-0.00513214 0.30202,-0.0322969 0.30202,-0.0322969l-0.000136727 0.0558725z"/>
     <polygon id="_112405312" class="fil1" points="1.19313,5.0248 1.2016,4.7852 1.29088,4.97413 "/>
     <polygon id="_112405240" class="fil7" points="0.90771,5.32389 1.53204,5.30468 1.71865,5.11806 1.22605,5.06592 0.867918,5.1606 "/>
    </g>
   </g>
   <g>
    <g>
     <path id="_112405120" class="fil1" d="M6.47325 3.32078c0,0 -0.0473222,-0.0848049 -0.0515265,-0.179547 0,0 -0.0617371,0.0973691 -0.0343624,0.22974 0.0273747,0.132366 0.0976133,-0.0031203 0.0858889,-0.0501934z"/>
     <path id="_112405048" class="fil1" d="M7.35138 3.5147l0.102091 -0.297889c0,0 -0.215213,-0.0774118 -0.431403,0.105055 0,0 -0.0415845,-0.0537288 -0.0876029,-0.193459 -0.0876761,0.010235 -0.201658,0.148515 -0.218768,0.197253 0,0 -0.0985996,-0.152939 -0.1723,-0.197888 0,0 -0.124265,0.189621 -0.136746,0.229594 0,0 -0.105861,-0.0749019 -0.129832,-0.214725 0,0 -0.0902495,0.0632313 -0.114191,0.206594 0,0 -0.118537,-0.117756 -0.282829,-0.0899175 0,0 0.100118,0.140629 0.105563,0.395497 0.00544954,0.254864 1.17479,0.0701897 1.36602,-0.140116z"/>
     <path id="_112404976" class="fil2" d="M6.89736 3.23949c0.032209,0.0792528 0.0601745,0.134388 0.116975,0.195651 0.0804394,-0.0845656 0.19904,-0.159409 0.340245,-0.157563l-0.0613074 0.195085c-0.047537,0.0413306 -0.162207,0.0762106 -0.214632,0.094322 -0.121907,0.0421119 -0.252535,0.0719672 -0.379622,0.0934089 -0.139476,0.0235268 -0.292015,0.040144 -0.433532,0.0341085 -0.0480009,-0.00204114 -0.101608,-0.00684123 -0.147865,-0.0204211 -0.0102985,-0.00302264 -0.0516779,-0.012408 -0.0602331,-0.0220277 -0.00233901,-0.100109 -0.0224916,-0.211966 -0.0556527,-0.306737 0.0943904,0.0249185 0.167647,0.0849709 0.218397,0.162705 -0.0112849,-0.0820264 -0.00610388,-0.140379 0.0367014,-0.22371 0.0476298,0.0757467 0.107755,0.12593 0.183849,0.165166 0.0251089,-0.0837062 0.0698382,-0.145253 0.11947,-0.19403 0.0579478,0.067382 0.103112,0.14285 0.150136,0.217835 0.0384496,-0.109523 0.0854006,-0.163696 0.187072,-0.233793z"/>
     <path id="_112404904" class="fil3" d="M7.24059 3.4862c0,0 -0.000805712,-0.0481962 0.00633339,-0.0861721 0,0 -0.14035,0.00336446 -0.261026,0.11782 0,0 -0.0703167,-0.0534798 -0.0983555,-0.12509 0,0 -0.0299578,0.030661 -0.0371653,0.0948543 0,0 -0.0294354,-0.0314667 -0.0412671,-0.0661172 0,0 -0.096915,0.0637392 -0.123088,0.131253 0,0 -0.10651,-0.0566635 -0.136683,-0.162534 0,0 -0.0650283,0.0383958 -0.0642519,0.126594 0,0 -0.138954,-0.0367795 -0.183087,-0.103981 0,0 -0.0196008,0.0240835 -0.0102203,0.061742 0,0 -0.0264274,-0.00347677 -0.039558,-0.0309882 0,0 -0.0172081,0.0265055 0.00254898,0.0918219l-0.0534309 0.0151034c0,0 -0.0424781,-0.0925397 -0.119621,-0.121047 0,0 0.0108649,0.0724164 0.000576206,0.146317 -0.0102838,0.0739009 0.306967,0.109489 0.332793,0.119255 0.0258316,0.00976133 0.334322,0.0319111 0.358366,0.0377171 0.0240444,0.00581089 0.43046,-0.120022 0.43046,-0.120022l0.036677 -0.126526z"/>
     <path id="_112404832" class="fil4" d="M6.89736 3.23949c0.0320429,0.0788426 0.0598864,0.133817 0.116096,0.194694l-0.00155771 0.00100104c0,0 -0.0664688,-0.0428395 -0.135311,-0.108883 0,0 -0.0747554,0.0143514 -0.163145,0.138182 0.037888,-0.103678 0.0850051,-0.156801 0.183917,-0.224994zm0.120749 0.191706c0.0803515,-0.0829346 0.197463,-0.155434 0.33647,-0.153618l-0.0613074 0.195085c-0.000844777,0.000737349 -0.00172374,0.00146493 -0.00261246,0.00219251l-0.000620154 -0.138553c0,0 -0.103576,-0.0122468 -0.27193,0.0948934zm-0.493291 -0.137508c0.0113435,-0.0136043 0.0231899,-0.0263053 0.0353341,-0.0382396 0.05702,0.0663077 0.101676,0.140428 0.147895,0.214232 -0.0101227,-0.00562534 -0.0815918,-0.0479765 -0.183229,-0.175992z"/>
    </g>
    <path id="_112404736" class="fil1" d="M6.8647 5.69639l-1.13541 -0.360144c0,0 0.0714789,-0.0824756 0.0989708,-0.0852248 0.0274919,-0.00274919 0.492105,-0.0852248 0.525095,-0.0632313 0.0329903,0.0219935 0.255674,0.104469 0.274919,0.123713 0.0192443,0.0192443 0.26942,0.277668 0.23643,0.384886z"/>
    <path id="_112404664" class="fil6" d="M6.81844 5.6198l-0.954447 -0.313725c0,0 0.0600866,-0.0693303 0.0831983,-0.07164 0.0231068,-0.00230971 0.413667,-0.07164 0.441398,-0.0531526 0.0277311,0.0184874 0.214925,0.0878177 0.231103,0.103995 0.0161777,0.0161777 0.226478,0.24439 0.198747,0.334522z"/>
    <polygon id="_112324416" class="fil1" points="5.76197,4.76256 6.91693,5.75687 7.08738,5.37748 6.62002,4.82214 6.03405,4.48138 "/>
    <polygon id="_112324344" class="fil6" points="5.97121,4.83139 6.8875,5.61901 7.02386,5.31338 6.64378,4.90559 6.18447,4.63848 "/>
    <polygon id="_112324272" class="fil5" points="5.97121,4.83139 6.8875,5.61901 7.02386,5.31338 6.85802,5.52647 "/>
    <polygon id="_112324200" class="fil1" points="5.81176,5.07782 7.0159,4.94036 7.2001,5.08881 7.11762,5.41872 5.70179,5.34449 "/>
    <polygon id="_112324128" class="fil5" points="5.8352,5.1345 6.98802,5.00461 7.13687,5.05065 7.06744,5.34764 5.76511,5.29503 "/>
    <polygon id="_112324056" class="fil1" points="7.35585,4.63532 6.01266,4.28556 5.85731,4.83131 7.22016,5.12507 "/>
    <polygon id="_112323984" class="fil7" points="7.26122,4.68636 7.1416,5.03941 5.94906,4.77654 6.0635,4.37449 "/>
    <path id="_112323912" class="fil8" d="M7.26121 4.68636l-0.119617 0.353053 -0.140726 -0.0310224c0.0413355,-0.122283 0.0751559,-0.244302 0.10275,-0.363064l0.157592 0.0410327z"/>
    <path id="_112323840" class="fil5" d="M6.37762 4.871l-0.428561 -0.0944734 0.114445 -0.402041 0.426114 0.110954c-0.0277653,0.124392 -0.0644912,0.25335 -0.111999,0.38556z"/>
    <polygon id="_112323768" class="fil5" points="5.95459,4.75708 6.0635,4.37449 7.16691,4.6618 "/>
    <polygon id="_112323696" class="fil1" points="7.37965,4.15422 5.99448,4.06588 5.94559,4.63121 7.30972,4.66657 "/>
    <polygon id="_112323624" class="fil5" points="7.29643,4.22231 7.24602,4.59165 6.02527,4.56 6.06128,4.14354 "/>
    <path id="_112323552" class="fil7" d="M7.29643 4.22231l-0.0504132 0.369338 -0.111393 -0.00288591c0.0299285,-0.129363 0.0525422,-0.254761 0.0695501,-0.372342l0.0922565 0.00588902z"/>
    <path id="_112323480" class="fil6" d="M6.41699 4.57016l-0.391718 -0.0101569 0.0360129 -0.416465 0.431007 0.027487c-0.0155673,0.126858 -0.0398412,0.26045 -0.0753023,0.399135z"/>
    <polygon id="_112323408" class="fil6" points="7.29643,4.22231 7.26298,4.46735 6.04991,4.27503 6.06128,4.14354 "/>
    <g>
     <polygon id="_112323336" class="fil1" points="7.35347,3.46874 5.96071,3.60274 6.06753,4.20465 7.40051,4.06007 "/>
     <polygon id="_112323264" class="fil5" points="7.28799,3.5443 7.32385,3.99496 6.11211,4.14974 6.03707,3.70448 "/>
     <path id="_112323192" class="fil6" d="M6.10099 4.08378l-0.0639247 -0.3793 0.302879 -0.0387865 0.102365 0.367063c0,0 -0.200764,0.0371946 -0.341319,0.0510236z"/>
     <polygon id="_112323120" class="fil7" points="6.72783,3.78703 6.63119,3.63427 6.73207,3.62583 "/>
     <path id="_112323048" class="fil7" d="M7.28799 3.5443l0.0358518 0.450662 -0.00521516 0.000434596c-0.0195227,-0.0169786 -0.0335127,-0.02966 -0.0335127,-0.02966l-0.0637978 -0.310561 -1.17336 0.0467508 1.24003 -0.157627z"/>
     <polygon id="_112322976" class="fil1" points="6.78308,3.55967 6.73997,3.86455 6.71318,3.57021 "/>
    </g>
    <polygon id="_112322880" class="fil1" points="7.48333,4.01913 6.02427,3.64396 5.91251,4.17287 7.38029,4.45995 "/>
    <polygon id="_112322808" class="fil7" points="7.39628,4.06972 6.08891,3.73383 6.00387,4.08738 7.32565,4.37188 "/>
    <polygon id="_112322736" class="fil8" points="7.27865,4.06045 7.21075,4.3449 7.32565,4.37188 7.39628,4.06972 "/>
    <polygon id="_112322664" class="fil8" points="7.39628,4.06972 6.41151,3.81691 7.34363,4.11075 7.32184,4.37098 7.32565,4.37188 "/>
    <path id="_112322592" class="fil5" d="M6.38684 3.80986l-0.300555 -0.0747213 -0.0823877 0.354953 0.376067 0.0758053c0.01671,-0.132557 0.00613806,-0.239961 0.00687541,-0.356037z"/>
    <polygon id="_112322520" class="fil5" points="7.27375,4.3398 6.05981,4.03866 6.09751,3.73955 "/>
    <polygon id="_112322448" class="fil1" points="6.01571,4.2875 6.75672,4.38551 6.02245,4.19988 "/>
    <polygon id="_112322376" class="fil1" points="7.39217,4.21588 7.0294,4.11511 7.39,4.29332 "/>
    <polygon id="_112322304" class="fil1" points="6.03236,3.96311 6.52308,4.15698 6.00954,4.02963 "/>
    <path id="_112322232" class="fil1" d="M5.93664 4.78071c0,0 0.313114,-0.0184484 0.301883,-0.0235756 -0.011236,-0.00513214 -0.30202,-0.0322969 -0.30202,-0.0322969l0.000136727 0.0558725z"/>
    <polygon id="_112322160" class="fil8" points="7.11933,4.86459 6.60342,4.88492 7.0638,4.95967 "/>
    <polygon id="_112322088" class="fil7" points="7.03688,5.31838 6.41255,5.29917 6.22593,5.11256 6.71854,5.06042 7.07667,5.1551 "/>
   </g>
  </g>
 </g>
</svg>
