<?xml version="1.0" encoding="UTF-8"?>
<!DOCTYPE svg PUBLIC "-//W3C//DTD SVG 1.1//EN" "http://www.w3.org/Graphics/SVG/1.1/DTD/svg11.dtd">
<!-- Creator: CorelDRAW -->
<svg xmlns="http://www.w3.org/2000/svg" xml:space="preserve" width="161.908mm" height="176.792mm" style="shape-rendering:geometricPrecision; text-rendering:geometricPrecision; image-rendering:optimizeQuality; fill-rule:evenodd; clip-rule:evenodd"
viewBox="0 0 12.3917 13.5308"
 xmlns:xlink="http://www.w3.org/1999/xlink">
 <defs>
  <style type="text/css">
   <![CDATA[
    .fil13 {fill:none}
    .fil0 {fill:#501D33}
    .fil6 {fill:#703D43}
    .fil4 {fill:#845451}
    .fil9 {fill:#965F54}
    .fil12 {fill:#9893A0}
    .fil3 {fill:#A6846E}
    .fil5 {fill:#AF8777}
    .fil7 {fill:#BE986E}
    .fil1 {fill:#C6AB8F}
    .fil10 {fill:#C7C0C9}
    .fil8 {fill:#DBC593}
    .fil2 {fill:#F0DAB0}
    .fil11 {fill:white}
   ]]>
  </style>
 </defs>
 <g id="Layer_x0020_1">
  <metadata id="CorelCorpID_0Corel-Layer"/>
  <g id="_112683848">
   <g>
    <path id="_112688000" class="fil0" d="M2.98834 6.07488l0.0720963 -0.422881c-0.964429,-0.370148 -1.82338,-0.169426 -2.27486,0.262042l0.133661 0.38345c0,0 0.383756,-0.397808 2.0691,-0.222611z"/>
    <path id="_112687928" class="fil1" d="M2.89728 6.07994l0.0398137 -0.36766c-0.81879,-0.270797 -1.53188,-0.158321 -2.01985,0.229269l0.124293 0.342212c0,0 0.34685,-0.360673 1.85574,-0.203821z"/>
    <path id="_112687856" class="fil2" d="M2.87842 5.69354c-0.794146,-0.246428 -1.4849,-0.130294 -1.96117,0.248005l0.124293 0.342212 -0.0296039 -0.325941c0,0 0.635679,-0.556948 1.86648,-0.264276z"/>
    <path id="_112687784" class="fil3" d="M2.89728 6.07994l0.0398137 -0.36766c-0.137029,-0.0453166 -0.271057,-0.0798187 -0.401604,-0.10418 -0.0376401,0.0956079 -0.109545,0.150775 -0.109545,0.150775 -0.901448,-0.0283563 -1.37541,0.361086 -1.42744,0.406426l0.0430282 0.118461c0,0 0.34685,-0.360673 1.85574,-0.203821z"/>
    <path id="_112687712" class="fil0" d="M0.909408 6.22375c0,0 0.681524,-0.590585 2.10904,-0.349215 0,0 -0.00424771,0.918546 0.176789,1.51355 -0.61229,-0.00884748 -1.55111,0.297776 -2.00544,0.690142 0,0 -0.392519,-0.905665 -0.280387,-1.85447z"/>
    <path id="_112687640" class="fil4" d="M1.02804 6.30875c0,0 0.657002,-0.523961 1.88649,-0.320989 0,0 -0.00629886,0.759284 0.13409,1.27857 0,0 -1.13543,0.0882758 -1.79563,0.593478 0,0 -0.325252,-0.702372 -0.224953,-1.55106z"/>
    <path id="_112687568" class="fil5" d="M1.61272 6.0753c0,0 -0.0517073,0.495528 0.20252,1.45642l-0.0646341 -0.00861788c0,0 -0.245609,-0.56878 -0.249918,-1.42195l0.0723182 -0.0136692 0.0397142 -0.0121844z"/>
    <path id="_112687496" class="fil5" d="M1.02804 6.30875c0,0 0.657002,-0.523961 1.88649,-0.320989 0,0 -0.000275527,0.00546462 -0.000642897,0.0156132 -1.12562,-0.12613 -1.74275,0.332615 -1.74275,0.332615 -0.00941384,0.387437 -0.00743158,0.876965 0.245058,1.41906 -0.0684608,0.0412449 -0.0957993,0.0574321 -0.163204,0.104754 0,0 -0.325252,-0.702372 -0.224953,-1.55106z"/>
    <path id="_112687424" class="fil6" d="M2.44804 5.94233c0.14495,0.00397218 0.300455,0.0180241 0.46649,0.0454314 0,0 0.0173123,0.761266 0.157701,1.28056 0,0 -0.237627,0.0210855 -0.496041,0.0655219 -0.175457,-0.573747 -0.152083,-1.17667 -0.128151,-1.39151z"/>
    <path id="_112687352" class="fil5" d="M1.89044 7.21055l0.797888 0.0172051 0.279584 -0.20216c0,0 -0.236571,0.0365609 -0.247324,0.0408622 -0.0107532,0.00430128 -0.830148,0.144093 -0.830148,0.144093z"/>
    <path id="_112687280" class="fil0" d="M1.88627 7.21579c0.193734,-0.0852144 0.85167,-0.22157 1.08569,-0.198158l-0.268065 0.123199c-0.287436,0.0201135 -0.563468,0.0403724 -0.817627,0.0749587z"/>
    <path id="_112687208" class="fil6" d="M2.93799 6.23977c0.00538043,0.127439 0.0168072,0.311606 0.0410459,0.51584 -0.28338,-0.0168531 -0.817405,0.00272466 -1.48161,0.269802l-0.244209 -0.0564065c-0.0605088,-0.013983 -0.0686981,-0.0147407 -0.0442604,-0.0921715 0.0310427,-0.098302 0.0556029,-0.271356 0.0948808,-0.326239 0,0 0.625248,-0.401435 1.63415,-0.310825z"/>
    <path id="_112687136" class="fil0" d="M1.45176 6.0449c0,0 -0.0529012,0.745959 0.294431,1.58044l0.0841659 -0.024675c0.00410995,-0.000589322 -0.320132,-0.797161 -0.29737,-1.56845 -0.034395,-0.0248357 -0.0400969,-0.00273996 -0.0812269,0.0126896z"/>
    <path id="_112687064" class="fil0" d="M2.53053 5.90726c0.0331321,0.0039033 -0.0508807,0.59386 0.172296,1.43041l0.107762 -0.00858726c-0.0206416,-0.0690578 -0.17848,-0.548131 -0.174516,-1.41321l-0.0710707 -0.068943 -0.0344715 0.0603251z"/>
    <g>
     <path id="_112686992" class="fil0" d="M1.27271 6.41129c-0.00333694,0.0199221 0.620296,-0.392289 1.7737,-0.265937 0.0560851,0.00613048 0.0533068,0.000750046 0.0584347,0.0542406l0.0364155 0.380426c0.00255628,0.0266726 0.00398749,0.0463192 -0.00272466,0.0555493 -0.00671215,0.00923016 -0.0256164,0.0045462 -0.0570494,0.00370431 -0.205704,-0.00560239 -0.81654,-0.0263052 -1.61765,0.247844l-0.261827 -0.0622691c-0.060417,-0.0143733 -0.0686216,-0.0150928 -0.0437859,-0.0923934 0.0315555,-0.0981412 0.0749204,-0.266481 0.114489,-0.321165z"/>
     <path id="_112686920" class="fil7" d="M1.36963 6.49496c-0.0212309,0.0366757 -0.0440002,0.100437 -0.0565213,0.134886 -0.0116028,0.0318923 -0.0226162,0.0640754 -0.033224,0.0963886l0.202742 0.0426608c0.439397,-0.1639 0.967054,-0.264055 1.52135,-0.250079 0.0061764,0.000681164 0.0124293,0.00137764 0.0187282,0.00211237l-0.0233509 -0.277785c-0.393392,-0.0540263 -0.79746,-0.0350455 -1.18167,0.073053 -0.116418,0.0327495 -0.232361,0.0739331 -0.342993,0.125327 -0.0341501,0.0158581 -0.0714763,0.0337368 -0.10506,0.053437z"/>
     <path id="_112686848" class="fil8" d="M1.36963 6.49496c-0.0212232,0.0366757 -0.0440002,0.100437 -0.056529,0.134886 -0.00864084,0.0237948 -0.0169755,0.0477427 -0.02505,0.0717978l0.000489826 0.0259608 0.0147254 0.00231902 0.11181 -0.170528c0,0 0.794222,-0.369291 1.58985,-0.249834l-0.00557177 -0.0664173c-0.393399,-0.0540263 -0.797467,-0.0350455 -1.18167,0.073053 -0.116418,0.0327495 -0.232369,0.0739331 -0.342993,0.125327 -0.0341501,0.0158581 -0.0714763,0.0337291 -0.10506,0.053437z"/>
     <path id="_112686776" class="fil9" d="M2.71115 6.5202c0.0901739,-0.00190573 0.196673,-0.0014159 0.311552,0.000727086l-0.0233433 -0.277785c-0.100254,-0.0137687 -0.201211,-0.0227769 -0.302345,-0.0267874 0.00284711,0.0882452 0.00419414,0.199987 0.0141361,0.303845z"/>
     <g>
      <rect id="_112686704" class="fil0" transform="matrix(0.113075 0.587911 -0.591631 0.124739 2.16884 6.03951)" width="1.21617" height="0.875763" rx="0.179345" ry="0.179345"/>
      <rect id="_112686632" class="fil10" transform="matrix(0.104569 0.543687 -0.547128 0.115356 2.10375 6.1461)" width="0.986747" height="0.646341" rx="0.0646341" ry="0.0646341"/>
      <path id="_112686560" class="fil11" d="M1.881 6.75045c-0.0165316,-9.94959e-005 -0.0312264,-0.0116869 -0.0344562,-0.0284482l-0.0896611 -0.466184c-0.00371962,-0.0193328 0.00914597,-0.0385049 0.0286012,-0.0425996l0.282905 -0.0596516c0.0143963,-0.00303845 0.02854,0.00300784 0.0364079,0.0141973 -0.00253332,-2.29606e-005 -0.00511256,0.000221952 -0.00769945,0.000765353l-0.282905 0.0596516c-0.0194553,0.00409464 -0.0323209,0.0232667 -0.0286012,0.0425996l0.0896688 0.466184c0.000964345,0.00502072 0.00297722,0.00956691 0.00574015,0.0134855z"/>
      <path id="_112686488" class="fil12" d="M2.16317 6.45495l0.0370201 0.192502c0.00369666,0.0193405 -0.00916893,0.0384513 -0.0286012,0.0426378l-0.28292 0.0595981c-0.0194247,0.00407168 -0.0383901,-0.00836531 -0.0421021,-0.0276981l-0.0442145 -0.229836c0.129712,-0.003689 0.258253,-0.0200216 0.360818,-0.0372038z"/>
      <polygon id="_112686416" class="fil0" points="2.0595,6.22723 2.13614,6.62569 1.89755,6.67602 1.82091,6.27751 "/>
      <rect id="_112686344" class="fil0" transform="matrix(0.0906672 0.471407 -0.47439 0.10002 2.02277 6.29621)" width="0.595621" height="0.300371"/>
      <g>
       <path id="_112686272" class="fil0" d="M1.76112 6.41472l0.192134 -0.0353134c0.0126283,0.0113196 0.0618252,0.0636162 0.0301855,0.168064l-0.19453 0.0357496c-0.0464569,0.00854134 -0.090526,-0.0221723 -0.0981565,-0.0684226l-0.00013011 -0.000773007c-0.00762292,-0.0461891 0.0240397,-0.0907632 0.0704967,-0.0993046z"/>
       <path id="_112686200" class="fil10" d="M1.76805 6.45676l0.212477 -0.0390483c0.00924547,0.0201364 0.0160877,0.0481178 0.012238,0.0847093l-0.210801 0.0387345c-0.0231137,0.00425536 -0.0451176,-0.011067 -0.0489137,-0.0340582l-0.00013011 -0.000834235c-0.00379615,-0.0229836 0.012016,-0.0452553 0.0351297,-0.049503z"/>
      </g>
      <path id="_112686104" class="fil12" d="M1.77499 6.52676l0.206622 -0.0323591 -0.00381146 -0.0385585c0,0 -0.126635,0.0306524 -0.202811,0.0709176z"/>
     </g>
    </g>
    <path id="_112685984" class="fil0" d="M2.96791 5.84274c0,0 -0.346253,-0.129039 -0.892517,-0.139792 0,0 0.337651,-0.0774231 0.911872,0.0387116l0.0150545 0.0344103 -0.0344103 0.0666699z"/>
   </g>
   <path id="_112685888" class="fil0" d="M9.43231 6.07488l-0.0720963 -0.422881c0.964429,-0.370148 1.82338,-0.169426 2.27486,0.262042l-0.133661 0.38345c0,0 -0.383756,-0.397808 -2.0691,-0.222611z"/>
   <path id="_112685816" class="fil1" d="M9.52337 6.07994l-0.0398137 -0.36766c0.81879,-0.270797 1.53188,-0.158321 2.01985,0.229269l-0.124293 0.342212c0,0 -0.34685,-0.360673 -1.85574,-0.203821z"/>
   <path id="_112685744" class="fil2" d="M9.54223 5.69354c0.794146,-0.246428 1.4849,-0.130294 1.96117,0.248005l-0.124293 0.342212 0.0296039 -0.325941c0,0 -0.635679,-0.556948 -1.86648,-0.264276z"/>
   <path id="_112685672" class="fil3" d="M9.52337 6.07994l-0.0398137 -0.36766c0.137029,-0.0453166 0.271057,-0.0798187 0.401604,-0.10418 0.0376401,0.0956079 0.109545,0.150775 0.109545,0.150775 0.901448,-0.0283563 1.37541,0.361086 1.42744,0.406426l-0.0430282 0.118461c0,0 -0.34685,-0.360673 -1.85574,-0.203821z"/>
   <path id="_112685600" class="fil0" d="M11.5112 6.22375c0,0 -0.681524,-0.590585 -2.10904,-0.349215 0,0 0.00424771,0.918546 -0.176789,1.51355 0.61229,-0.00884748 1.55111,0.297776 2.00544,0.690142 0,0 0.392519,-0.905665 0.280387,-1.85447z"/>
   <path id="_112685528" class="fil4" d="M11.3926 6.30875c0,0 -0.657002,-0.523961 -1.88649,-0.320989 0,0 0.00629886,0.759284 -0.13409,1.27857 0,0 1.13543,0.0882758 1.79563,0.593478 0,0 0.325252,-0.702372 0.224953,-1.55106z"/>
   <path id="_112685456" class="fil5" d="M10.8079 6.0753c0,0 0.0517073,0.495528 -0.20252,1.45642l0.0646341 -0.00861788c0,0 0.245609,-0.56878 0.249918,-1.42195l-0.0723182 -0.0136692 -0.0397142 -0.0121844z"/>
   <path id="_112685384" class="fil5" d="M11.3926 6.30875c0,0 -0.657002,-0.523961 -1.88649,-0.320989 0,0 0.000275527,0.00546462 0.000642897,0.0156132 1.12562,-0.12613 1.74275,0.332615 1.74275,0.332615 0.00941384,0.387437 0.00743158,0.876965 -0.245058,1.41906 0.0684608,0.0412449 0.0957993,0.0574321 0.163204,0.104754 0,0 0.325252,-0.702372 0.224953,-1.55106z"/>
   <path id="_112685312" class="fil6" d="M9.97261 5.94233c-0.14495,0.00397218 -0.300455,0.0180241 -0.46649,0.0454314 0,0 -0.0173123,0.761266 -0.157701,1.28056 0,0 0.237627,0.0210855 0.496041,0.0655219 0.175457,-0.573747 0.152083,-1.17667 0.128151,-1.39151z"/>
   <polygon id="_112685240" class="fil5" points="11.2412,7.28811 11.1672,7.44321 10.8747,7.30126 "/>
   <path id="_112685168" class="fil6" d="M9.48266 6.23977c-0.00538043,0.127439 -0.0168072,0.311606 -0.0410459,0.51584 0.28338,-0.0168531 0.817405,0.00272466 1.48161,0.269802l0.244209 -0.0564065c0.0605088,-0.013983 0.0686981,-0.0147407 0.0442604,-0.0921715 -0.0310427,-0.098302 -0.0556029,-0.271356 -0.0948808,-0.326239 0,0 -0.625248,-0.401435 -1.63415,-0.310825z"/>
   <path id="_112685096" class="fil0" d="M10.9689 6.0449c0,0 0.0529012,0.745959 -0.294431,1.58044l-0.0841659 -0.024675c-0.00410995,-0.000589322 0.320132,-0.797161 0.29737,-1.56845 0.034395,-0.0248357 0.0400969,-0.00273996 0.0812269,0.0126896z"/>
   <path id="_112685024" class="fil0" d="M9.89012 5.90726c-0.0331321,0.0039033 0.0508807,0.59386 -0.172296,1.43041l-0.107762 -0.00858726c0.0206416,-0.0690578 0.17848,-0.548131 0.174516,-1.41321l0.0710707 -0.068943 0.0344715 0.0603251z"/>
   <g>
    <path id="_112684952" class="fil0" d="M11.1479 6.41129c0.00333694,0.0199221 -0.620296,-0.392289 -1.7737,-0.265937 -0.0560851,0.00613048 -0.0533068,0.000750046 -0.0584347,0.0542406l-0.0364155 0.380426c-0.00255628,0.0266726 -0.00398749,0.0463192 0.00272466,0.0555493 0.00671215,0.00923016 0.0256164,0.0045462 0.0570494,0.00370431 0.205704,-0.00560239 0.81654,-0.0263052 1.61765,0.247844l0.261827 -0.0622691c0.060417,-0.0143733 0.0686216,-0.0150928 0.0437859,-0.0923934 -0.0315555,-0.0981412 -0.0749204,-0.266481 -0.114489,-0.321165z"/>
    <path id="_112684880" class="fil7" d="M11.051 6.49496c0.0212309,0.0366757 0.0440002,0.100437 0.0565213,0.134886 0.0116028,0.0318923 0.0226162,0.0640754 0.033224,0.0963886l-0.202742 0.0426608c-0.439397,-0.1639 -0.967054,-0.264055 -1.52135,-0.250079 -0.0061764,0.000681164 -0.0124293,0.00137764 -0.0187282,0.00211237l0.0233509 -0.277785c0.393392,-0.0540263 0.79746,-0.0350455 1.18167,0.073053 0.116418,0.0327495 0.232361,0.0739331 0.342993,0.125327 0.0341501,0.0158581 0.0714763,0.0337368 0.10506,0.053437z"/>
    <path id="_112684808" class="fil8" d="M11.051 6.49496c0.0212232,0.0366757 0.0440002,0.100437 0.056529,0.134886 0.00864084,0.0237948 0.0169755,0.0477427 0.02505,0.0717978l-0.000489826 0.0259608 -0.0147254 0.00231902 -0.11181 -0.170528c0,0 -0.794222,-0.369291 -1.58985,-0.249834l0.00557177 -0.0664173c0.393399,-0.0540263 0.797467,-0.0350455 1.18167,0.073053 0.116418,0.0327495 0.232369,0.0739331 0.342993,0.125327 0.0341501,0.0158581 0.0714763,0.0337291 0.10506,0.053437z"/>
    <path id="_112684736" class="fil9" d="M9.7095 6.5202c-0.0901739,-0.00190573 -0.196673,-0.0014159 -0.311552,0.000727086l0.0233433 -0.277785c0.100254,-0.0137687 0.201211,-0.0227769 0.302345,-0.0267874 -0.00284711,0.0882452 -0.00419414,0.199987 -0.0141361,0.303845z"/>
    <g>
     <rect id="_112684664" class="fil0" transform="matrix(-0.0670007 0.595421 0.600575 0.0647213 10.0021 6.02423)" width="1.21617" height="0.875763" rx="0.179345" ry="0.179345"/>
     <rect id="_112684592" class="fil10" transform="matrix(-0.0619607 0.550632 0.555398 0.0598528 10.0754 6.12363)" width="0.986747" height="0.646341" rx="0.0646341" ry="0.0646341"/>
     <path id="_112684520" class="fil11" d="M10.3451 6.70177c0.0164934,-0.00176031 0.0302697,-0.014733 0.0321831,-0.0317162l0.0531308 -0.472139c0.00220422,-0.0195854 -0.0121385,-0.0373416 -0.0318923,-0.0394616l-0.287183 -0.0309509c-0.0146182,-0.00157663 -0.0282645,0.0058473 -0.0352522,0.0177485 0.00253332,-0.000275527 0.00512787,-0.000290834 0.00775303,-7.65353e-006l0.287176 0.0309509c0.0197538,0.00212003 0.0341041,0.0198762 0.0318923,0.039454l-0.0531232 0.472146c-0.000581668,0.0050896 -0.00223483,0.00980417 -0.00468396,0.0139753z"/>
     <path id="_112684448" class="fil12" d="M10.0402 6.43642l-0.021935 0.194966c-0.00218126,0.0195854 0.0121615,0.0372804 0.0318999,0.0394999l0.287183 0.0308897c0.0197155,0.00210472 0.037686,-0.0121462 0.0398826,-0.0317239l0.0262057 -0.232775c-0.129827,0.00931435 -0.25947,0.00595445 -0.363237,-0.000857196z"/>
     <polygon id="_112684376" class="fil0" points="10.126,6.1998 10.0806,6.60335 10.3228,6.62948 10.3682,6.22588 "/>
     <rect id="_112684304" class="fil0" transform="matrix(-0.0537234 0.477429 0.481561 0.0518957 10.168 6.26466)" width="0.595621" height="0.300371"/>
     <g>
      <path id="_112684232" class="fil0" d="M10.4386 6.35621l-0.194645 -0.0158581c-0.0117252,0.0125135 -0.0567662,0.0693869 -0.0170138,0.17l0.197063 0.0160418c0.0470616,0.00384207 0.0886738,-0.0310886 0.0926766,-0.0777982l6.88818e-005 -0.00078066c0.0040028,-0.0466483 -0.0310963,-0.0877707 -0.0781502,-0.0916051z"/>
      <path id="_112684160" class="fil10" d="M10.435 6.39868l-0.21524 -0.0175342c-0.00766119,0.0209401 -0.0123069,0.0494189 -0.00561004,0.0853905l0.213541 0.0173888c0.0234198,0.00191338 0.0441991,-0.0155137 0.0461891,-0.0387345l6.88818e-005 -0.000841889c0.00198992,-0.0232132 -0.0155367,-0.0437552 -0.0389488,-0.0456686z"/>
     </g>
     <path id="_112684064" class="fil12" d="M10.4335 6.46892l-0.208873 -0.0114803 0.000795967 -0.0386886c0,0 0.128863,0.0177868 0.208077,0.0501689z"/>
    </g>
   </g>
   <path id="_112683944" class="fil0" d="M9.45274 5.84274c0,0 0.346253,-0.129039 0.892517,-0.139792 0,0 -0.337651,-0.0774231 -0.911872,0.0387116l-0.0150545 0.0344103 0.0344103 0.0666699z"/>
   <circle id="_112683872" class="fil0" cx="9.70805" cy="6.36964" r="0.0668613"/>
  </g>
  <rect class="fil13" width="12.3917" height="13.5308"/>
 </g>
</svg>
