<?xml version="1.0" encoding="UTF-8"?>
<!DOCTYPE svg PUBLIC "-//W3C//DTD SVG 1.1//EN" "http://www.w3.org/Graphics/SVG/1.1/DTD/svg11.dtd">
<!-- Creator: CorelDRAW -->
<svg xmlns="http://www.w3.org/2000/svg" xml:space="preserve" width="161.908mm" height="176.792mm" style="shape-rendering:geometricPrecision; text-rendering:geometricPrecision; image-rendering:optimizeQuality; fill-rule:evenodd; clip-rule:evenodd"
viewBox="0 0 7.90616 8.63294"
 xmlns:xlink="http://www.w3.org/1999/xlink">
 <defs>
  <style type="text/css">
   <![CDATA[
    .fil0 {fill:none}
    .fil1 {fill:#501D33}
    .fil4 {fill:#75414C}
    .fil3 {fill:#7F777F}
    .fil5 {fill:#955B58}
    .fil6 {fill:#BB8778}
    .fil2 {fill:#BCB4AB}
   ]]>
  </style>
 </defs>
 <g id="Layer_x0020_1">
  <metadata id="CorelCorpID_0Corel-Layer"/>
  <rect class="fil0" width="7.90616" height="8.63294"/>
  <g id="_111644040">
   <path id="_111830176" class="fil1" d="M4.2047 1.63258c0,0 -0.0699798,-0.0562582 -0.0535139,-0.229149 0,0 0.017838,0.1084 0.14682,0.160542l-0.0109772 0.0521418 -0.0823291 0.0164658z"/>
   <path id="_111830104" class="fil1" d="M2.36519 1.93113c0,0 -0.0699798,-0.0562582 -0.0535139,-0.229149 0,0 0.017838,0.1084 0.14682,0.160542l-0.0109772 0.0521418 -0.0823291 0.0164658z"/>
   <path id="_111830032" class="fil1" d="M5.69297 2.06865c0,0 0.147016,-0.0443337 0.224808,0.0695403 0,0 -0.117663,-0.0324873 -0.212713,0.0456424l-0.0394604 -0.0358078 0.0273649 -0.0793749z"/>
   <path id="_111829960" class="fil1" d="M2.1619 2.55685c0,0 -0.0632313,-0.153955 -0.241929,-0.211687 0,0 0.083882,-0.173194 0.265328,-0.178692 0,0 -0.0371458,-0.164956 0.00959042,-0.310663 0,0 0.0673966,0.0371555 0.23372,0.0275065 0,0 -0.0233998,-0.12784 0.017838,-0.224061 0,0 0.0645986,0.0439821 0.177315,0.0109919 0,0 -0.0137459,-0.122346 0.10172,-0.273551l0.20344 -0.00549838c0,0 0.0962216,-0.118215 0.30516,-0.145707 0,0 -0.0247378,0.0990001 4.8831e-006,0.170479 0,0 0.0467313,-0.0605114 0.109963,-0.0907525 0,0 0.0109919,0.0756344 0.0824707,0.141615 0,0 0.0701018,-0.0123787 0.138832,-0.105851 0,0 0.116809,0.0659707 0.119558,0.217176 0.0417164,-0.0966024 0.14766,-0.151244 0.231137,-0.15122 0,0.0576939 0.000576206,0.117238 0.0198645,0.145502 0.0062992,-0.0309979 0.0466336,-0.118684 0.124846,-0.157168 0.0497832,0.124236 0.0885502,0.155307 0.173555,0.164966 0.014371,-0.160776 0.110607,-0.205535 0.110607,-0.205535 0.0687297,0.0934724 0.132674,0.109284 0.132674,0.109284 0.0714789,-0.0659805 0.0845119,-0.158769 0.0845119,-0.158769 0.0632313,0.0302411 0.118156,0.0969638 0.118156,0.0969638 0.0192736,-0.0701116 -0.00818897,-0.17669 -0.00818897,-0.17669 0.208938,0.0274919 0.30516,0.145707 0.30516,0.145707l0.20344 0.00549838c0.115466,0.151205 0.10172,0.268063 0.10172,0.268063 0.0852736,0.0192687 0.175943,-0.00275895 0.175943,-0.00275895 0.0439724,0.085967 0.0102594,0.208977 0.0102594,0.208977 0.153974,0.0288591 0.267369,-0.0316327 0.267369,-0.0316327 0.0467362,0.145707 -0.0274577,0.306547 -0.0274577,0.306547 0.181446,0.0192199 0.277678,0.199275 0.277678,0.199275 -0.178697,0.0577329 -0.241929,0.211687 -0.241929,0.211687 0,0 -0.777893,0.177608 -0.888007,0.177608 -0.0994102,0 -0.773122,-0.0628211 -0.903179,-0.0750387 -0.130057,0.0122175 -0.803754,0.0750387 -0.903164,0.0750387 -0.110114,0 -0.888007,-0.177608 -0.888007,-0.177608z"/>
   <path id="_111829888" class="fil2" d="M2.18626 2.44648c0,0 -0.0837013,-0.1084 -0.152309,-0.12761 0,0 0.0686076,-0.0933064 0.233266,-0.104284 0,0 -0.0562582,-0.149565 -0.0233266,-0.273058 0,0 0.0816846,0.0214759 0.215677,-0.0106549 0,0 0.0157236,0.0341817 0.0471708,0.056058 0,0 -0.0350705,-0.123616 -0.0172325,-0.248482 0,0 0.0617469,0.0150937 0.194846,-0.027443 0,0 -0.0192101,-0.126453 0.0686076,-0.251319 0,0 0.135843,-0.0150937 0.25522,0.0123494 0,0 -0.0150937,-0.035676 -0.0425367,-0.0480253 0,0 0.0576304,-0.0891899 0.200334,-0.101539 0,0 -0.0192101,0.119377 0.0535139,0.211311 0,0 0.045281,-0.0850734 0.098795,-0.119377 0,0 0.0150937,0.0535139 0.0535139,0.098795 0,0 -0.035676,0.0425367 -0.131727,0.0768405 0,0 0.15917,-0.00686076 0.323828,-0.135843 0,0 0.104284,0.0837013 0.0590025,0.282663 0,0 0.0425367,-0.0343038 0.0754684,-0.0795848 0,0 0.0658633,-0.141332 0.170147,-0.170147 0,0 -0.0109772,0.080957 0.0329317,0.134471 0,0 0.0233266,0.0246987 0.0535139,0.0288152 0,0 0.0219544,-0.0891899 0.0864456,-0.160542 0,0 0.0301873,0.124866 0.198962,0.138587 0,0 0.00548861,0.0740962 0.0480253,0.135843 0,0 -0.0493975,-0.170147 0.0466532,-0.308734 0,0 0.0686076,0.098795 0.252476,0.126238 0,0 -0.0384203,-0.0219544 -0.0699798,-0.0603747 0,0 0.0507696,-0.0507696 0.0672355,-0.1084 0,0 0.0521418,0.0192101 0.0974228,0.12761 0,0 0.0672355,-0.124866 0.0397924,-0.227777 0,0 0.174263,0.00686076 0.268942,0.212684 0,0 0.0109772,-0.0260709 0.00960507,-0.0864456l0.160542 0.00411646c0,0 0.0535139,0.0699798 0.0576304,0.222289 0,0 -0.0823291,0.00137215 -0.164658,-0.0137215 0,0 0.1084,0.0850734 0.360876,0.0837013 0,0 0.017838,0.122122 -0.0644912,0.312851 0,0 0.0439089,-0.0301873 0.0933064,-0.109772 0,0 0.090562,0.0260709 0.238754,-0.00686076 0,0 0.0116413,0.164351 -0.12032,0.3348 0,0 0.0824756,-0.0192443 0.129212,-0.0522346 0,0 0.120964,0.0302411 0.189694,0.112717 0,0 -0.151205,0.0577329 -0.208938,0.186945 -0.0577329,0.129212 -0.087974,0.17045 -0.087974,0.17045l-2.42829 0.186574 -0.968573 -0.209124 -0.00104987 -0.215355z"/>
   <path id="_111829816" class="fil3" d="M4.24561 1.66134c0.00590856,0.0272575 0.018131,0.0671769 0.0427858,0.10297 0,0 -0.0108063,-0.0371604 -0.012491,-0.0909087l0.0328975 0.0164463c0,0 0.00341817,-0.0772507 0.0287127,-0.140145 0,0 0.0405102,0.039851 0.190949,0.0200403 0.0182042,0.00480009 0.0378636,0.00891655 0.059066,0.0120808 0,0 -0.017501,-0.00998595 -0.0385668,-0.0282781 0.0153574,-0.0181749 0.039475,-0.0506769 0.0510675,-0.0872464 0,0 0.0328145,0.0314472 0.0273454,0.103229 -0.00546908,0.0717816 0.509015,0.175572 0.509015,0.175572 0,0 0.12761,0.0548861 0.237382,0.0288152 0,0 0.0109772,0.0768405 -0.0590025,0.160542l0.0529817 0.0684953 0.000722699 0.000556674c-0.0054056,0.0144833 -0.0113776,0.0294256 -0.0180284,0.0448367 0,0 0.0146151,-0.0100397 0.0364963,-0.0338594 0.0294549,0.0148691 0.0930134,0.037346 0.192052,0.0240151 0,0 -0.00683635,0.0246108 -0.0499053,0.0464872 0,0 0.035549,0.00478544 0.0765671,-0.0218763 0,0 0.010987,0.0991221 -0.0493877,0.189684 0,0 0.00535677,0.000244155 0.0153232,0.00122566 -0.00305682,0.00416529 -0.00617713,0.00831593 -0.00940486,0.0124861 0,0 0.0141952,-0.0032961 0.0341475,-0.00952694 0.0395092,0.00544466 0.105607,0.0177501 0.186339,0.0452127 0,0 -0.0425367,0.00686076 -0.118005,0.0933064 -0.0754684,0.0864456 -2.16758,0.0737251 -2.21711,0.0737251 -0.0495293,0 -1.03461,0.0440261 -1.31069,-0.0792137l-0.0219544 -0.0782127c0,0 0.149565,-0.0617469 0.234638,-0.0370481 0,0 -0.0562582,-0.152309 -0.0384203,-0.244243 0,0 0.00411646,0.0109772 0.0850734,0.0219544 0,0 0.00731001,-0.0522443 0.0264518,-0.0789061 0,0 0.0369163,0.0369163 0.1128,0.0403344l0.0199182 -0.0176866c0,0 -0.0301873,-0.109772 -0.0205823,-0.192101 0,0 0.0329317,0.0329317 0.160542,0.0329317 0.12761,0 0.422828,-0.211082 0.422828,-0.211082l0.196013 -0.0194396c0,0 0.163286,-0.0150937 0.230522,-0.0713519 0,0 0.0548861,0.0754684 0.0329317,0.19759l0.0590025 0.00548861c0,0 0.0974228,-0.120749 0.175635,-0.172891 0,0 0.0137215,0.115261 0.171519,0.13996 0,0 0.017838,-0.0521418 0.0535139,-0.0919342 0,0 0.0600768,0.052552 0.208313,0.0479667z"/>
   <path id="_111829744" class="fil1" d="M2.45345 4.51569c0,0 -0.28177,-1.77182 -0.339239,-2.10202 0,0 0.511456,-0.368718 0.695349,-0.990587 0.0823682,-0.0128377 0.164736,-0.0256802 0.247109,-0.0385228 0.619847,0.420098 1.12716,0.431359 1.79282,0 0.0823682,0.0128426 0.164736,0.0256851 0.247109,0.0385228 0.183893,0.621868 0.695349,0.990587 0.695349,0.990587 -0.0574693,0.330196 -0.323432,2.07729 -0.323432,2.07729 -0.636732,0.315156 -2.36397,0.342638 -3.01506,0.0247329z"/>
   <path id="_111829672" class="fil4" d="M2.54107 4.45466c0.543978,0.199636 1.95711,0.342916 2.82015,-0.0190392 0.0621521,-0.339478 0.176724,-1.05464 0.261974,-1.57131 -0.968432,0.0959383 -3.07766,0.00380882 -3.34678,-0.0085259 0.0860842,0.525349 0.202473,1.25927 0.26465,1.59887z"/>
   <path id="_111829600" class="fil5" d="M5.6232 2.86431c0.0262565,-0.159126 0.0497393,-0.299451 0.0680412,-0.40414 -0.304564,-0.248106 -0.549994,-0.598507 -0.670343,-0.9635l-0.141503 -0.0233461c-0.713334,0.403955 -1.15348,0.419859 -1.85264,0l-0.149736 0.0233461c-0.0859329,0.260616 -0.23353,0.50084 -0.418018,0.708646 -0.0632606,0.0712543 -0.131375,0.139437 -0.203625,0.202395 -0.0152792,0.0133113 -0.0311396,0.0269254 -0.047327,0.0401098 0.0182775,0.104567 0.041897,0.246411 0.0683683,0.407964 0.269118,0.0123347 2.37835,0.104464 3.34678,0.0085259z"/>
   <path id="_111829528" class="fil6" d="M5.6232 2.86431l0.00105963 -0.00645546c-0.052176,-0.00562045 -0.107785,-0.0105231 -0.168013,-0.01441 -1.62081,-0.104577 -2.84518,0.0110065 -2.84518,0.0110065 -0.0123054,0.00397485 -0.0201819,0.00880424 -0.0246401,0.0142977 0.686213,0.0265739 2.24381,0.0741158 3.03678,-0.00443874z"/>
   <path id="_111829456" class="fil4" d="M5.6232 2.86431c0.0262565,-0.159126 0.0497393,-0.299451 0.0680412,-0.40414 -0.0552084,-0.0449734 -0.108454,-0.0933161 -0.159385,-0.144491l-0.233906 0.572173c0.117951,-0.0061283 0.227484,-0.0138582 0.325249,-0.0235414zm-3.24189 -0.575586c-0.0403637,0.0412476 -0.0824024,0.0810595 -0.12593,0.118987 -0.0152792,0.0133113 -0.0311396,0.0269254 -0.047327,0.0401098 0.0182775,0.104567 0.041897,0.246411 0.0683683,0.407964 0.0540804,0.00248062 0.182594,0.00817432 0.36111,0.0149228l-0.256221 -0.581983z"/>
   <path id="_111829384" class="fil4" d="M2.34087 3.25203c0.561669,-0.0950008 1.90264,-0.27026 3.22853,-0.0598376 0.0144149,-0.0881351 0.0340108,-0.231977 0.0475126,-0.314047 -0.438708,0.0694036 -2.10645,0.0183165 -3.33832,-0.0032375 0.0126326,0.0776169 0.0490166,0.295315 0.0622791,0.377122z"/>
   <path id="_111829312" class="fil6" d="M4.39406 1.98819l0.0521418 -0.241499 -0.080957 0c0,0 0.0123494,0.201706 0.0288152,0.241499z"/>
   <path id="_111829240" class="fil6" d="M5.19928 2.54823l0.375179 -0.173746 -0.0868509 -0.0968759c0,0 -0.245542,0.212918 -0.288328,0.270622z"/>
   <path id="_111829168" class="fil6" d="M5.69041 2.46489l0.000830128 -0.00471708c-0.304564,-0.248106 -0.549994,-0.598507 -0.670343,-0.9635l-0.141503 -0.0233461c-0.713334,0.403955 -1.15348,0.419859 -1.85264,0l-0.149736 0.0233461c-0.0859329,0.260616 -0.23353,0.50084 -0.418018,0.708646 -0.0632606,0.0712543 -0.131375,0.139437 -0.203625,0.202395 -0.0152792,0.0133113 -0.0311396,0.0269254 -0.047327,0.0401098l0.000478544 0.00272966c0.125466,-0.062118 0.574385,-0.315912 0.793241,-0.859436 0.62035,0.370022 1.20724,0.428707 1.89309,-0.0468046l0.0495782 0.0110114c0,0 0.276354,0.683464 0.745967,0.909566z"/>
   <path id="_111829096" class="fil4" d="M5.13874 1.77638c-0.0535872,0.230141 -0.0952205,0.493706 -0.104616,0.776804l-0.289617 0.19235c0,0 -0.177506,-0.186764 -0.221107,-0.270392 0.00523957,-0.202566 0.0352218,-0.514249 0.111139,-0.853513l-0.0226918 -0.00512726 0.00110358 -0.00503936c0.084966,-0.039392 0.173355,-0.085425 0.266442,-0.138138l0.141503 0.0233461c0.0312372,0.0947371 0.0709027,0.188473 0.117844,0.279709z"/>
   <path id="_111829024" class="fil4" d="M2.7547 1.78241c0.0550765,0.233251 0.0981406,0.50149 0.107716,0.790023l0.289617 0.19235c0,0 0.177506,-0.186764 0.221107,-0.270392 -0.00523957,-0.202566 -0.0352218,-0.514249 -0.111139,-0.853513l0.0226918 -0.00512726 -0.00538118 -0.0246157c-0.0807958,-0.0391137 -0.164619,-0.0850002 -0.252549,-0.137806l-0.149736 0.0233461c-0.0324336,0.0983701 -0.0736519,0.19382 -0.122327,0.285735z"/>
   <g>
    <path id="_111828952" class="fil1" d="M2.39546 0.822857c0,0 0.386224,0.724814 0.417398,1.66426l0.289617 0.19235c0,0 0.177506,-0.186764 0.221107,-0.270392 -0.00929743,-0.359367 -0.0964364,-1.06216 -0.379822,-1.65313 0,0 -0.274216,-0.0334444 -0.548299,0.0669083z"/>
    <path id="_111828880" class="fil5" d="M2.88662 0.825762c-0.0383861,-0.00188976 -0.078701,-0.00125496 -0.114411,0.000302752 -0.089019,0.00388207 -0.17901,0.0165977 -0.264825,0.0399194 0.00892143,0.0192004 0.0175548,0.0384691 0.0259976,0.0574888 0.0520637,0.117224 0.0978916,0.237153 0.138514,0.357927 0.126887,0.377234 0.205598,0.773366 0.222455,1.16744l0.194567 0.129222c0.0259146,-0.0286248 0.0512677,-0.0578257 0.0756539,-0.0869241 0.0237807,-0.0283855 0.0552133,-0.0654873 0.0755953,-0.0988584 -0.00633827,-0.201379 -0.0310321,-0.407036 -0.0658633,-0.605617 -0.0466385,-0.265885 -0.115368,-0.532805 -0.214178,-0.787161 -0.0227211,-0.0584947 -0.0471464,-0.116477 -0.0735054,-0.173741z"/>
    <path id="_111828808" class="fil4" d="M2.82382 1.69907c0,0 0.0921442,0.384886 0.101359,0.723036l0.150507 0.104469 0.125935 -0.140209c0,0 -0.0276433,-0.494854 -0.0798583,-0.720287 0,0 -0.0860061,0.0549838 -0.15665,0.0549838 -0.0706488,0 -0.141293,-0.0219935 -0.141293,-0.0219935z"/>
    <path id="_111828736" class="fil1" d="M3.13572 2.13499c-0.0485527,0.0735395 -0.142494,0.212044 -0.161626,0.212654 -0.0232045,0.000747115 0.0197619,-0.175963 0.142123,-0.239575 0.0305048,-0.0158603 0.0533821,-0.0244009 0.0195031,0.0269206z"/>
    <path id="_111828664" class="fil1" d="M3.19148 2.30033c0,0 -0.232211,-0.197536 -0.257388,-0.190763 -0.0251724,0.00677775 0.0945174,0.203342 0.257388,0.190763z"/>
    <path id="_111828592" class="fil1" d="M3.0725 1.76386c-0.0143221,0.0216859 -0.0325752,0.0490019 -0.0517072,0.0767868 0.0566587,0.0453152 0.107453,0.0885453 0.107453,0.0885453 -0.052845,0.00407739 -0.101124,-0.0138924 -0.141405,-0.0402172 -0.0344308,0.0478398 -0.0657901,0.0872074 -0.0759713,0.0875296 -0.0136336,0.000439479 -0.00440456,-0.0603942 0.0303338,-0.123543 -0.0551351,-0.0515998 -0.083965,-0.110866 -0.0703411,-0.114538 0.0101764,-0.00273942 0.0541976,0.0279069 0.103029,0.0653945 0.0212317,-0.0264957 0.0475126,-0.050462 0.0791014,-0.0668839 0.0305096,-0.0158701 0.053387,-0.0244009 0.019508,0.0269254z"/>
   </g>
   <path id="_111828496" class="fil6" d="M2.88662 0.825762c-0.0383861,-0.00188976 -0.078701,-0.00125496 -0.114411,0.000302752 -0.089019,0.00388207 -0.17901,0.0165977 -0.264825,0.0399194 0.00892143,0.0192004 0.0175548,0.0384691 0.0259976,0.0574888 0.00925837,0.0208509 0.0183312,0.041775 0.0272038,0.062787 0.064374,-0.0219447 0.202537,-0.0610242 0.369675,-0.0609021 -0.0139413,-0.0334151 -0.0284587,-0.0666153 -0.0436403,-0.0995958z"/>
   <path id="_111828424" class="fil1" d="M5.50384 0.822857c0,0 -0.386224,0.724814 -0.417398,1.66426l-0.289617 0.19235c0,0 -0.177506,-0.186764 -0.221107,-0.270392 0.00929743,-0.359367 0.0964364,-1.06216 0.379822,-1.65313 0,0 0.274216,-0.0334444 0.548299,0.0669083z"/>
   <path id="_111828352" class="fil5" d="M5.01268 0.825762c0.0383861,-0.00188976 0.078701,-0.00125496 0.114411,0.000302752 0.089019,0.00388207 0.17901,0.0165977 0.264825,0.0399194 -0.00892143,0.0192004 -0.0175548,0.0384691 -0.0259976,0.0574888 -0.0520637,0.117224 -0.0978916,0.237153 -0.138514,0.357927 -0.126887,0.377234 -0.205598,0.773366 -0.222455,1.16744l-0.194567 0.129222c-0.0259146,-0.0286248 -0.0512677,-0.0578257 -0.0756539,-0.0869241 -0.0237807,-0.0283855 -0.0552133,-0.0654873 -0.0755953,-0.0988584 0.00633827,-0.201379 0.0310321,-0.407036 0.0658633,-0.605617 0.0466385,-0.265885 0.115368,-0.532805 0.214178,-0.787161 0.0227211,-0.0584947 0.0471464,-0.116477 0.0735054,-0.173741z"/>
   <path id="_111828280" class="fil6" d="M5.01268 0.825762c0.0383861,-0.00188976 0.078701,-0.00125496 0.114411,0.000302752 0.089019,0.00388207 0.17901,0.0165977 0.264825,0.0399194 -0.00892143,0.0192004 -0.0175548,0.0384691 -0.0259976,0.0574888 -0.00428248,0.00964901 -0.00853567,0.019298 -0.0127351,0.0289812 -0.0958163,-0.0229408 -0.233188,-0.0432936 -0.384476,-0.0262955 0.0140389,-0.0336885 0.0286687,-0.0671573 0.0439724,-0.100397z"/>
   <path id="_111828208" class="fil4" d="M5.07548 1.69907c0,0 -0.0921442,0.384886 -0.101359,0.723036l-0.150507 0.104469 -0.125935 -0.140209c0,0 0.0276433,-0.494854 0.0798583,-0.720287 0,0 0.0860061,0.0549838 0.15665,0.0549838 0.0706488,0 0.141293,-0.0219935 0.141293,-0.0219935z"/>
   <path id="_111828136" class="fil1" d="M4.76358 2.13499c0.0485527,0.0735395 0.142494,0.212044 0.161626,0.212654 0.0232045,0.000747115 -0.0197619,-0.175963 -0.142123,-0.239575 -0.0305048,-0.0158603 -0.0533821,-0.0244009 -0.0195031,0.0269206z"/>
   <path id="_111828064" class="fil1" d="M4.70782 2.30033c0,0 0.232211,-0.197536 0.257388,-0.190763 0.0251724,0.00677775 -0.0945174,0.203342 -0.257388,0.190763z"/>
   <path id="_111827992" class="fil1" d="M4.8268 1.76386c0.0143221,0.0216859 0.0325752,0.0490019 0.0517072,0.0767868 -0.0566587,0.0453152 -0.107453,0.0885453 -0.107453,0.0885453 0.052845,0.00407739 0.101124,-0.0138924 0.141405,-0.0402172 0.0344308,0.0478398 0.0657901,0.0872074 0.0759713,0.0875296 0.0136336,0.000439479 0.00440456,-0.0603942 -0.0303338,-0.123543 0.0551351,-0.0515998 0.083965,-0.110866 0.0703411,-0.114538 -0.0101764,-0.00273942 -0.0541976,0.0279069 -0.103029,0.0653945 -0.0212317,-0.0264957 -0.0475126,-0.050462 -0.0791014,-0.0668839 -0.0305096,-0.0158701 -0.053387,-0.0244009 -0.019508,0.0269254z"/>
   <g>
    <polygon id="_111827920" class="fil1" points="4.82988,0.976172 5.39425,1.13178 5.31794,1.36543 4.76015,1.19152 "/>
    <polygon id="_111827848" class="fil5" points="4.87787,1.04865 5.30955,1.15707 5.2695,1.2904 4.84148,1.16718 "/>
    <polygon id="_111827776" class="fil6" points="4.9454,1.06537 4.87909,1.17714 4.84148,1.16718 4.87864,1.04853 "/>
    <path id="_111827704" class="fil4" d="M5.21091 1.1333l0.0991514 0.0246353 -0.0410571 0.133372 -0.120847 -0.0367942c0.0193371,-0.0474735 0.0418677,-0.0819434 0.0627528,-0.121213z"/>
    <polygon id="_111827632" class="fil4" points="4.86208,1.16497 5.26243,1.26469 5.30606,1.15757 "/>
    <polygon id="_111827560" class="fil1" points="4.85089,1.10354 4.97248,1.12971 4.83743,1.13002 "/>
    <polygon id="_111827488" class="fil1" points="5.28398,1.24377 5.10903,1.22778 5.27839,1.26998 "/>
   </g>
   <polygon id="_111827392" class="fil1" points="5.48461,2.16973 5.19699,2.55228 5.5748,2.27447 "/>
   <g>
    <polygon id="_111827320" class="fil1" points="4.77152,1.17591 5.34776,1.36739 5.24737,1.61649 4.67451,1.40906 "/>
    <polygon id="_111827248" class="fil5" points="4.80997,1.25419 5.25784,1.39897 5.20466,1.53612 4.76393,1.371 "/>
    <path id="_111827176" class="fil6" d="M4.85997 1.26803c-0.0186437,0.0354172 -0.0380638,0.0745259 -0.05723,0.116555l-0.038806 -0.0135897 0.0460428 -0.116814 0.0499932 0.0138485z"/>
    <polygon id="_111827104" class="fil6" points="4.80997,1.25419 5.14728,1.36331 4.81605,1.27858 4.76522,1.37145 4.76393,1.371 "/>
    <path id="_111827032" class="fil4" d="M5.15589 1.3658l0.102413 0.0341329 -0.0542513 0.137103 -0.124265 -0.0487285c0.0242837,-0.048416 0.0508624,-0.0828663 0.0761032,-0.122507z"/>
    <polygon id="_111826960" class="fil4" points="4.78582,1.37037 5.19933,1.50846 5.25413,1.39921 "/>
   </g>
   <g>
    <polygon id="_111826864" class="fil1" points="3.11257,1.05926 2.53555,1.14748 2.60742,1.43708 3.1691,1.30251 "/>
    <polygon id="_111826792" class="fil5" points="3.0662,1.11676 2.60762,1.18699 2.6471,1.36047 3.10057,1.26466 "/>
    <polygon id="_111826720" class="fil4" points="2.67179,1.34071 3.07703,1.26181 3.05391,1.1426 2.97986,1.15823 2.97954,1.21399 "/>
    <polygon id="_111826648" class="fil6" points="3.0662,1.11676 2.60762,1.18699 2.6471,1.36047 2.66085,1.25774 "/>
   </g>
   <g>
    <polygon id="_111826552" class="fil1" points="3.18106,1.30319 2.59517,1.38499 2.66419,1.6794 3.23513,1.55044 "/>
    <polygon id="_111826480" class="fil5" points="3.13331,1.36084 2.66768,1.42598 2.70541,1.60229 3.16619,1.51117 "/>
    <path id="_111826408" class="fil6" d="M3.13333 1.36083l-0.465648 0.0651553 0.0319257 0.149154c0.00654824,0.000922907 0.0102448,0.00133797 0.0102448,0.00133797l0.00782762 -0.114182 0.422286 -0.0711078 -0.00663614 -0.0303583z"/>
    <path id="_111826336" class="fil4" d="M2.6997 1.57559l0.00571323 0.026691 0.46077 -0.0911041 -0.00503448 -0.0230336c-0.107863,0.00862356 -0.242217,0.0215491 -0.242217,0.0215491l-0.219232 0.0658975z"/>
    <polygon id="_111826264" class="fil1" points="3.18509,1.4887 2.88796,1.51618 3.17025,1.43546 "/>
   </g>
   <polygon id="_111826168" class="fil1" points="4.24808,1.67433 4.39378,1.98774 4.38004,1.64684 "/>
   <path id="_111826096" class="fil1" d="M2.48826 4.1513l2.93353 -0.0637538c-0.0229652,0.136034 -0.043694,0.255923 -0.0605651,0.348073 -0.0501885,0.0210462 -0.102316,0.0403149 -0.155942,0.0580308l-1.94889 0.11716c-0.293875,-0.0376829 -0.546478,-0.0941853 -0.715321,-0.156152 -0.0148788,-0.0812695 -0.0328828,-0.185187 -0.0528157,-0.303358z"/>
   <path id="_111826024" class="fil5" d="M2.49706 4.20333l2.91302 -0.046702c-0.017086,0.100367 -0.0326484,0.189806 -0.045994,0.263253l-2.43858 0.137376c-0.152099,-0.0303338 -0.283303,-0.0654775 -0.384437,-0.102594 -0.012657,-0.0691301 -0.0275749,-0.154614 -0.0440114,-0.251333z"/>
   <polygon id="_111825952" class="fil6" points="2.81025,4.21019 3.32985,4.28991 4.39653,4.1717 "/>
   <polygon id="_111825880" class="fil6" points="4.33971,4.34258 4.51876,4.2242 5.03509,4.15921 4.48089,4.1552 "/>
   <path id="_111825808" class="fil4" d="M2.49706 4.20333l0.322759 -0.00517609 0.0962899 0.357209c-0.148105,-0.0298992 -0.275993,-0.0643495 -0.375037,-0.100699 -0.012657,-0.0691301 -0.0275749,-0.154614 -0.0440114,-0.251333z"/>
   <path id="_111825736" class="fil4" d="M5.01936 4.16289l0.390722 -0.00626502c-0.017086,0.100367 -0.0326484,0.189806 -0.045994,0.263253l-0.335679 0.0189123 -0.00904839 -0.2759z"/>
   <path id="_111825664" class="fil1" d="M5.54182 3.36113l-3.17521 0.0494219c0.0211585,0.130462 0.0424537,0.261524 0.0630116,0.386996l3.0296 0.0662979c0.0266276,-0.160552 0.0548275,-0.332808 0.0826026,-0.502716z"/>
   <path id="_111825592" class="fil5" d="M5.53324 3.41356l-3.15533 0.0666739c0.0138534,0.0853567 0.0277018,0.170498 0.0412964,0.253697l3.05232 0.0555551c0.0201477,-0.121956 0.0409888,-0.24918 0.0617176,-0.375926z"/>
   <path id="_111825520" class="fil4" d="M5.53324 3.41356l-0.362463 0.00765671 -0.00446804 0.346354 -0.00690471 0.0162363 0.312118 0.00567905c0.0201477,-0.121956 0.0409888,-0.24918 0.0617176,-0.375926z"/>
   <path id="_111825448" class="fil4" d="M4.92052 3.4265l-2.54261 0.0537288c0.0138534,0.0853567 0.0277018,0.170498 0.0412964,0.253697l0.206878 0.00376487 2.29444 -0.31119z"/>
   <path id="_111825376" class="fil1" d="M2.41562 3.71218l3.06077 0.0476347c-0.0231361,0.140238 -0.0454422,0.274128 -0.065668,0.393036l-2.9114 0.0637147c-0.025065,-0.147152 -0.0538265,-0.321386 -0.0837013,-0.504386z"/>
   <path id="_111825304" class="fil5" d="M2.42415 3.76435l3.04087 0.0642519c-0.01504,0.0908795 -0.0296258,0.178355 -0.0434108,0.26002l-2.93491 0.0534163c-0.0194006,-0.115173 -0.0406079,-0.243574 -0.0625526,-0.377689z"/>
   <path id="_111825232" class="fil6" d="M3.34848 4.12853l0.0699798 -0.318339 -0.0960507 -0.00823291c0,0 0.00548861,0.323828 0.0260709,0.326572z"/>
   <path id="_111825160" class="fil6" d="M2.68524 3.76987l2.31808 0.0489775c0.0821582,0.01274 0.129993,0.0202014 0.129993,0.0202014l-2.2021 -0.00824756 -0.0906158 0.304798 -0.000263688 4.8831e-006c-0.00341329,-0.00792528 -0.0825684,-0.191706 -0.155092,-0.365735z"/>
   <path id="_111825088" class="fil4" d="M5.14324 3.82181l0.321777 0.00679728c-0.01504,0.0908795 -0.0296258,0.178355 -0.0434108,0.26002l-0.394872 0.00718793 0.116506 -0.274006z"/>
   <path id="_111825016" class="fil4" d="M2.42415 3.76435l0.447444 0.00945369 -0.0267936 0.361716 -0.358098 0.00651894c-0.0194006,-0.115173 -0.0406079,-0.243574 -0.0625526,-0.377689z"/>
   <path id="_111824944" class="fil1" d="M2.32317 3.14286l3.28759 -0.203005c-0.0204407,0.124314 -0.0422535,0.257823 -0.0644179,0.393412l-3.14157 0.312358c-0.0271891,-0.16689 -0.0550228,-0.33898 -0.0816016,-0.502764z"/>
   <path id="_111824872" class="fil5" d="M2.33149 3.1941l3.26766 -0.183536c-0.0136629,0.083296 -0.0278337,0.169898 -0.0422193,0.257921l-3.16425 0.302845c-0.0204602,-0.125838 -0.0411157,-0.253472 -0.0611902,-0.37723z"/>
   <path id="_111824800" class="fil4" d="M5.24775 3.0303l0.351398 -0.0197375c-0.0136629,0.083296 -0.0278337,0.169898 -0.0422193,0.257921l-0.376102 0.0359982 0.0669229 -0.274181z"/>
   <path id="_111824728" class="fil4" d="M2.33149 3.1941l0.398984 -0.0224086 0.258072 0.342608 -0.595866 0.0570298c-0.0204602,-0.125838 -0.0411157,-0.253472 -0.0611902,-0.37723z"/>
   <polygon id="_111824656" class="fil6" points="2.33149,3.1941 5.59915,3.01057 5.59074,3.06174 2.83383,3.20618 2.96552,3.48677 2.7611,3.21163 "/>
   <path id="_111824584" class="fil1" d="M2.2616 2.83349c1.15922,0.0552279 2.31145,0.0547201 3.45605,0 0,0.020177 0,0.040354 0,0.0605358 -1.15928,0.0660733 -2.31145,0.0658731 -3.45605,0 0,-0.0201819 0,-0.0403589 0,-0.0605358z"/>
   <polygon id="_111824512" class="fil4" points="5.22129,3.70709 3.59102,3.67959 5.22949,3.5655 "/>
   <polygon id="_111824440" class="fil4" points="5.21579,3.26172 3.06593,3.46791 5.26253,3.14075 "/>
   <polygon id="_111824368" class="fil6" points="4.56832,3.0953 4.54774,3.36973 4.48325,3.10765 "/>
   <polygon id="_111824296" class="fil1" points="4.43777,3.04453 4.50925,3.39643 4.54774,3.39368 4.52025,3.05553 "/>
   <polygon id="_111824224" class="fil1" points="3.28706,3.76007 3.30779,4.13804 3.3467,4.13529 3.34861,3.75735 "/>
   <polygon id="_111824152" class="fil1" points="2.9507,3.52066 2.95878,3.75819 2.92703,3.76216 2.88584,3.54006 "/>
   <path id="_111824080" class="fil1" d="M3.47172 3.97836c0.0216468,0.0111823 -0.160117,0.117942 -0.290711,0.0923493 -0.000356467,-6.83635e-005 -0.00196301,-0.00327168 0.00620643,-0.00725141 0.0499932,-0.0243325 0.2425,-0.106798 0.284504,-0.0850979z"/>
   <path id="_111824008" class="fil1" d="M3.46504 3.88571c0.01629,0.0181163 -0.191481,0.0536897 -0.304584,-0.0164414 -0.000307636,-0.000190441 -0.000678751,-0.00375511 0.00837452,-0.00458523 0.0553646,-0.00508331 0.264596,-0.0141268 0.296209,0.0210266z"/>
   <path id="_111823936" class="fil1" d="M4.36024 3.19107c-0.0206506,0.0129256 0.169287,0.104347 0.297327,0.0680802 0.000351583,-9.76621e-005 0.00168955,-0.00342306 -0.00678263,-0.00671427 -0.0518293,-0.020133 -0.250474,-0.0864505 -0.290545,-0.061366z"/>
   <polygon id="_111823864" class="fil4" points="3.46181,4.08922 5.19929,4.07273 4.47626,3.95726 "/>
   <polygon id="_111823792" class="fil1" points="4.37769,4.16404 4.33868,4.34534 4.49942,4.16183 "/>
   <polygon id="_111644136" class="fil4" points="5.07833,4.40813 4.0034,4.47136 5.07283,4.27617 "/>
   <path id="_111644064" class="fil4" d="M4.57523 2.49195c-0.0192443,0.00549838 -0.772522,0.0109968 -0.772522,0.0109968l0.753277 -0.104469 0.0192443 0.0934724z"/>
  </g>
 </g>
</svg>
