<?xml version="1.0" encoding="UTF-8"?>
<!DOCTYPE svg PUBLIC "-//W3C//DTD SVG 1.1//EN" "http://www.w3.org/Graphics/SVG/1.1/DTD/svg11.dtd">
<!-- Creator: CorelDRAW -->
<svg xmlns="http://www.w3.org/2000/svg" xml:space="preserve" width="161.908mm" height="176.792mm" style="shape-rendering:geometricPrecision; text-rendering:geometricPrecision; image-rendering:optimizeQuality; fill-rule:evenodd; clip-rule:evenodd"
viewBox="0 0 8.99079 9.81728"
 xmlns:xlink="http://www.w3.org/1999/xlink">
 <defs>
  <style type="text/css">
   <![CDATA[
    .fil0 {fill:none}
    .fil1 {fill:#501D33}
    .fil2 {fill:#533A4E}
    .fil3 {fill:#62545D}
    .fil5 {fill:#6D6069}
    .fil4 {fill:#9A8D8E}
    .fil9 {fill:#9C5E58}
    .fil7 {fill:#BA9475}
    .fil8 {fill:#D8C196}
    .fil6 {fill:#501D33;fill-rule:nonzero}
   ]]>
  </style>
 </defs>
 <g id="Layer_x0020_1">
  <metadata id="CorelCorpID_0Corel-Layer"/>
  <rect class="fil0" width="8.99079" height="9.81728"/>
  <g id="_115422888">
   <path id="_115426128" class="fil1" d="M2.81154 5.01342l0.0347452 0.269282c0,0 0.668866,0.256255 1.66347,0.291 0,0 1.03804,-0.0477726 1.62873,-0.291l0 -0.256249 -3.32694 -0.0130329z"/>
   <path id="_115426056" class="fil2" d="M2.88486 4.97096l0.0330349 0.257954c0,0 0.635914,0.235736 1.58153,0.269021 0,0 0.986909,-0.0360335 1.5485,-0.269021l0 -0.245471 -3.16307 -0.0124832z"/>
   <path id="_115425984" class="fil1" d="M6.19436 5.07674l0.241262 -1.53412c0,0 -0.500882,-0.741916 -0.332264,-1.86698l-0.614407 -0.069185c0,0 -0.254905,0.68653 -0.992012,0.772457 -0.737107,-0.0859273 -0.984221,-0.775578 -0.984221,-0.775578l-0.70661 0.0785085c0.224936,1.03119 -0.250985,1.86078 -0.250985,1.86078l0.241262 1.53412c0.975442,0.341066 2.42254,0.341066 3.39798,0z"/>
   <path id="_115425912" class="fil3" d="M6.10759 5.00301l0.226174 -1.4382c-0.387423,-0.65229 -0.431025,-1.26942 -0.347108,-1.80251l-0.451021 -0.0419808c-0.0539142,0.112487 -0.13164,0.226868 -0.207355,0.315833 -0.213624,0.251013 -0.493141,0.409729 -0.822618,0.448139l-0.0102897 0.00119945 -0.0102897 -0.00119945c-0.329482,-0.0384102 -0.608999,-0.197132 -0.822629,-0.44815 -0.0762206,-0.089559 -0.154496,-0.204884 -0.208449,-0.31811l-0.0778033 0.0183249c-0.0437466,0.446968 -0.195266,0.888626 -0.396674,1.28745 -0.071906,0.142385 -0.151325,0.281888 -0.237908,0.415887 -0.0269765,0.0417475 -0.0551636,0.0846057 -0.0845946,0.125481l0.226119 1.43782c0.93566,0.310624 2.28879,0.31063 3.22445,0z"/>
   <g>
    <polygon id="_115425840" class="fil4" points="5.81048,2.92052 5.52649,3.18579 5.19725,3.29813 5.22689,3.22167 "/>
    <path id="_115425768" class="fil2" d="M5.07712 3.197c0.0250108,0.00312635 0.734691,-0.278245 0.734691,-0.278245l-0.590879 0.372035 -0.143812 -0.0937904z"/>
   </g>
   <path id="_115425672" class="fil4" d="M4.67451 3.43857l0.508689 -0.0920634 -0.0920634 -0.0733386c0,0 -0.35577,0.129513 -0.416626,0.165402z"/>
   <path id="_115425600" class="fil4" d="M6.26118 3.43548c-0.30476,-0.575636 -0.349062,-1.12091 -0.284931,-1.60146 -0.129829,-0.020896 -0.216406,-0.0318077 -0.216406,-0.0318077 0,0 -0.118907,1.07016 0.494401,1.62714 0.00232671,0.00211014 0.00462011,0.00404815 0.00693571,0.00612497z"/>
   <path id="_115425528" class="fil5" d="M4.50169 2.48476l-0.00631377 0.000738551 -0.0102897 -0.00119945c-0.329482,-0.0384102 -0.608999,-0.197132 -0.822629,-0.44815 -0.0762206,-0.089559 -0.163048,-0.220432 -0.217001,-0.333658l-0.507717 0.0745992c0.108572,0.565624 0.0803021,1.14011 -0.28071,1.7881l0.226119 1.43782c0.469552,0.155884 1.04424,0.23351 1.61854,0.232938l0 -2.75119z"/>
   <path id="_115425456" class="fil4" d="M2.96491 1.9394c0.0695459,0.489692 0.0234171,0.990557 -0.26394,1.54404 0.545334,-0.569983 0.43444,-1.56859 0.43444,-1.56859 0,0 -0.0665417,0.00838505 -0.1705,0.0245443z"/>
   <path id="_115425384" class="fil4" d="M2.66085 3.55984c0.11869,0.00456458 1.30935,0.0303583 1.83483,-0.744492 0,0 0.418075,0.752139 1.82998,0.737962 -0.0126775,-0.018175 -0.0251052,-0.0366776 -0.0372829,-0.0552469 -0.255444,0.000372052 -1.28914,-0.0490942 -1.78019,-0.848411l-0.0250108 0.00312635c0,0 -0.434762,0.74733 -1.74953,0.799239 -0.0233671,0.0360002 -0.0476171,0.0725834 -0.0727944,0.107823z"/>
   <path id="_115425312" class="fil4" d="M2.78167 4.35775c0.340538,-0.00634154 1.26846,-0.0861827 1.71538,-0.745186 0,0 0.394986,0.710336 1.71326,0.737296l0.00875155 -0.0556467c-0.33784,-0.0103008 -1.25553,-0.108378 -1.70951,-0.847345l-0.0250108 0.00312635c0,0 -0.419041,0.76877 -1.71079,0.830597l0.00792415 0.0771591z"/>
   <path id="_115425240" class="fil6" d="M2.62811 3.44732c0.00382047,0.000194355 1.23543,0.0757042 1.83927,-0.826755l0.0244999 -0.0445352 0.0259825 0.0436689c0.558716,0.884156 1.84114,0.840421 1.84483,0.840137l-0.0142435 0.0865715c-0.00373162,0.000283204 -1.26931,0.0462677 -1.85486,-0.827027 -0.580095,0.867419 -1.86143,0.811578 -1.86528,0.811384l-0.000194355 -0.0834451z"/>
   <path id="_115425168" class="fil6" d="M2.76518 4.25288c0.338245,-0.00981773 1.2202,-0.107034 1.7022,-0.827399l0.0244999 -0.0445352 0.0259825 0.0436689c0.447467,0.708109 1.35899,0.821018 1.7062,0.837772l-0.0136549 0.0868436c-0.344481,-0.0159982 -1.24829,-0.126159 -1.71682,-0.824933 -0.459801,0.687546 -1.36006,0.794997 -1.71562,0.809918l-0.0127886 -0.081335z"/>
   <path id="_115425096" class="fil4" d="M3.05638 5.05334c0,0 0.948454,0.0692516 1.43929,-0.602913 0,0 0.384541,0.587753 1.36934,0.609637l0.0156317 -0.0468952c0,0 -0.81285,0.00625269 -1.38497,-0.74407l-0.0187581 0.0125054c0,0 -0.32514,0.625269 -1.42053,0.771735z"/>
   <path id="_115425024" class="fil6" d="M2.87987 4.98219c0.393198,-0.00179918 1.15292,-0.0961449 1.58751,-0.745642l0.0244999 -0.0445352 0.0259825 0.0436689c0.404642,0.640334 1.18873,0.744742 1.5919,0.753544l-0.00216567 0.0137826c-0.067719,0.0224841 -0.137692,0.0432746 -0.209471,0.0625047 -0.422934,-0.0381714 -1.04318,-0.191212 -1.40453,-0.730149 -0.365827,0.547027 -1.01046,0.689506 -1.43779,0.720131 -0.0589175,-0.0163869 -0.116552,-0.0338623 -0.172654,-0.0524871l-0.00327628 -0.0208182z"/>
   <path id="_115424952" class="fil2" d="M3.38183 1.71885c0.0537143,0.109467 0.375411,0.720376 1.10759,0.858896 0,0 0.756248,-0.054475 1.09301,-0.844763l-0.0467952 -0.0126553c-0.0539142,0.112487 -0.13164,0.226868 -0.207355,0.315833 -0.213624,0.251013 -0.493141,0.409729 -0.822618,0.448139l-0.0102897 0.00119945 -0.0102897 -0.00119945c-0.329482,-0.0384102 -0.608999,-0.197132 -0.822629,-0.44815 -0.0762206,-0.089559 -0.16538,-0.221987 -0.219333,-0.335213l-0.0612941 0.017914z"/>
   <path id="_115424880" class="fil1" d="M5.57739 1.70236c-0.00312635,0.0156317 -0.143812,0.403299 -0.534605,0.678417 0,0 0.437688,-0.178202 0.609637,-0.669038l-0.0218844 -0.0281371 -0.0531479 0.0187581z"/>
   <path id="_115424808" class="fil1" d="M3.419 1.72007c0.00363167,0.0155207 0.156828,0.398418 0.55634,0.660709 0,0 -0.443241,-0.163903 -0.631028,-0.648897l0.0209626 -0.0288312 0.0537254 0.01702z"/>
   <g>
    <g>
     <g>
      <path id="_115424736" class="fil1" d="M2.51693 0.989858l0.517124 1.18279 0.55499 -0.215834 -0.15479 -1.09212c0,0 -0.488798,-0.0782308 -0.917324,0.125159z"/>
      <path id="_115424664" class="fil3" d="M3.11839 2.08819l-0.442781 -1.04107c0,0 0.21413,-0.134433 0.627874,-0.0937904l0.182694 1.05358c0,0 -0.287946,0.0875377 -0.367787,0.081285z"/>
      <path id="_115424592" class="fil4" d="M2.72057 1.15283l-0.0449572 -0.105713c0,0 0.21413,-0.134433 0.627874,-0.0937904l0.0160649 0.116941c-0.264112,0.00270987 -0.482324,0.0506657 -0.598981,0.0825622z"/>
      <path id="_115424520" class="fil1" d="M2.98433 1.06524c0,0.0156317 0.181467,0.690922 0.181467,0.690922l0.145172 -0.00937904 -0.326639 -0.681543z"/>
     </g>
     <g>
      <path id="_115424424" class="fil1" d="M3.21114 1.52429c0.196793,0.0370108 0.41647,0.177713 0.543129,0.326612l0.0223065 0.0262269 -0.00714117 0.0336401c-0.0407258,0.191918 -0.188386,0.407502 -0.343221,0.532717l-0.0272653 0.022051 -0.0345009 -0.00648592c-0.196793,-0.0370108 -0.41647,-0.177713 -0.543129,-0.326612l-0.0223065 -0.0262269 0.00714117 -0.0336401c0.0407258,-0.191918 0.188386,-0.407502 0.343221,-0.532717l0.0272653 -0.022051 0.0345009 0.00648592z"/>
      <path id="_115424352" class="fil7" d="M3.20048 1.61354c0.168256,0.0316411 0.364522,0.155457 0.477315,0.288063 -0.0348174,0.164086 -0.164797,0.35667 -0.302684,0.46818 -0.168256,-0.0316411 -0.364522,-0.155457 -0.477315,-0.288063 0.0348174,-0.164086 0.164797,-0.35667 0.302684,-0.46818z"/>
      <path id="_115424280" class="fil8" d="M3.01158 2.05952c0,0 0.0866936,-0.188303 0.224347,-0.27925 0,0 0.160543,0.0390654 0.345603,0.155368 0.0130052,0.00817403 0.0169145,-0.0146877 0.00890703,-0.0295087 0,0 -0.250619,-0.210326 -0.363367,-0.205323 -0.112754,0.00499771 -0.228018,0.310336 -0.234093,0.360379 -0.00606944,0.0500493 0.0217511,0.00023878 0.0186026,-0.0016659z"/>
      <path id="_115424208" class="fil8" d="M3.20048 1.61354c0.15519,0.0291866 0.334208,0.136782 0.449577,0.257371 -0.245415,-0.179679 -0.43851,-0.213858 -0.43851,-0.213858 -0.158294,0.0943457 -0.293721,0.39036 -0.310602,0.428315 -0.00105507,-0.00121611 -0.0021157,-0.00242667 -0.00314856,-0.00364833 0.0348174,-0.164086 0.164797,-0.35667 0.302684,-0.46818z"/>
      <path id="_115424136" class="fil9" d="M2.92705 2.08693c0,0 0.168745,0.196366 0.438155,0.259054 0,0 0.195833,-0.126736 0.290056,-0.435101 -0.0200075,0.00826288 -0.0401094,0.0162537 -0.0602668,0.0239835 -0.133683,0.275768 -0.249358,0.351156 -0.249358,0.351156 -0.188913,-0.0613663 -0.34186,-0.206405 -0.34186,-0.206405 9.44012e-005,0.000138825 0.000422029,6.10831e-005 0.000932906,-0.000172143 -0.0257771,0.00290423 -0.0516486,0.00540863 -0.0776589,0.00748546z"/>
      <path id="_115424064" class="fil9" d="M3.55225 1.94626c-0.158372,0.0565352 -0.335274,0.100626 -0.502659,0.124748 0.0480447,0.0425083 0.161254,0.120467 0.284914,0.160493 0,0 0.10368,-0.0611664 0.217745,-0.285242z"/>
      <path id="_115423992" class="fil6" d="M3.22433 1.674c0.0673025,0.0126498 0.139669,0.043108 0.206517,0.0834507 0.0691572,0.0417364 0.133006,0.0944789 0.179618,0.149282l0.00707454 0.00832397 -0.00223786 0.0105785c-0.0139214,0.0656311 -0.0462233,0.136432 -0.0886094,0.201996 -0.0438577,0.0678356 -0.0989547,0.130651 -0.155945,0.176736l-0.00865715 0.0069968 -0.0108395 -0.0020324c-0.0673025,-0.0126498 -0.139669,-0.043108 -0.206517,-0.0834507 -0.0691572,-0.0417364 -0.133006,-0.0944789 -0.179618,-0.149282l-0.00708009 -0.00832952 0.00224342 -0.0105729c0.0139214,-0.0656311 0.0462233,-0.136432 0.0886094,-0.201996 0.0438577,-0.0678356 0.0989547,-0.130651 0.155945,-0.176736l0.00865159 -0.00700235 0.010845 0.00203796zm0.181372 0.122333c-0.0587842,-0.0354782 -0.121567,-0.0626657 -0.180001,-0.075371 -0.0497828,0.0420363 -0.0979718,0.0980273 -0.137171,0.158661 -0.0372774,0.0576625 -0.0660975,0.11909 -0.0799467,0.176092 0.0425416,0.0478559 0.0994711,0.0939792 0.161293,0.131284 0.0587842,0.0354782 0.121544,0.0626546 0.179979,0.0753544 0.0497883,-0.0420307 0.097994,-0.0980107 0.137193,-0.158644 0.0372774,-0.0576625 0.0660753,-0.119095 0.0799245,-0.176103 -0.0425472,-0.0478503 -0.0994489,-0.0939681 -0.161271,-0.131273z"/>
     </g>
    </g>
    <g>
     <g>
      <path id="_115423872" class="fil1" d="M6.47387 0.989858l-0.517124 1.18279 -0.55499 -0.215834 0.15479 -1.09212c0,0 0.488798,-0.0782308 0.917324,0.125159z"/>
      <path id="_115423800" class="fil3" d="M5.87241 2.08819l0.442781 -1.04107c0,0 -0.21413,-0.134433 -0.627874,-0.0937904l-0.182694 1.05358c0,0 0.287946,0.0875377 0.367787,0.081285z"/>
      <path id="_115423728" class="fil4" d="M6.27023 1.15283l0.0449572 -0.105713c0,0 -0.21413,-0.134433 -0.627874,-0.0937904l-0.0160649 0.116941c0.264112,0.00270987 0.482324,0.0506657 0.598981,0.0825622z"/>
      <path id="_115423656" class="fil1" d="M6.00647 1.06524c0,0.0156317 -0.181467,0.690922 -0.181467,0.690922l-0.145172 -0.00937904 0.326639 -0.681543z"/>
     </g>
     <g>
      <path id="_115423560" class="fil1" d="M5.77966 1.52429c-0.196793,0.0370108 -0.41647,0.177713 -0.543129,0.326612l-0.0223065 0.0262269 0.00714117 0.0336401c0.0407258,0.191918 0.188386,0.407502 0.343221,0.532717l0.0272653 0.022051 0.0345009 -0.00648592c0.196793,-0.0370108 0.41647,-0.177713 0.543129,-0.326612l0.0223065 -0.0262269 -0.00714117 -0.0336401c-0.0407258,-0.191918 -0.188386,-0.407502 -0.343221,-0.532717l-0.0272653 -0.022051 -0.0345009 0.00648592z"/>
      <path id="_115423488" class="fil7" d="M5.79032 1.61354c-0.168256,0.0316411 -0.364522,0.155457 -0.477315,0.288063 0.0348174,0.164086 0.164797,0.35667 0.302684,0.46818 0.168256,-0.0316411 0.364522,-0.155457 0.477315,-0.288063 -0.0348174,-0.164086 -0.164797,-0.35667 -0.302684,-0.46818z"/>
      <path id="_115423416" class="fil8" d="M5.97922 2.05952c0,0 -0.0866936,-0.188303 -0.224347,-0.27925 0,0 -0.160543,0.0390654 -0.345603,0.155368 -0.0130052,0.00817403 -0.0169145,-0.0146877 -0.00890703,-0.0295087 0,0 0.250619,-0.210326 0.363367,-0.205323 0.112754,0.00499771 0.228018,0.310336 0.234093,0.360379 0.00606944,0.0500493 -0.0217511,0.00023878 -0.0186026,-0.0016659z"/>
      <path id="_115423344" class="fil8" d="M5.79032 1.61354c-0.15519,0.0291866 -0.334208,0.136782 -0.449577,0.257371 0.245415,-0.179679 0.43851,-0.213858 0.43851,-0.213858 0.158294,0.0943457 0.293721,0.39036 0.310602,0.428315 0.00105507,-0.00121611 0.0021157,-0.00242667 0.00314856,-0.00364833 -0.0348174,-0.164086 -0.164797,-0.35667 -0.302684,-0.46818z"/>
      <path id="_115423272" class="fil9" d="M6.06374 2.08693c0,0 -0.168745,0.196366 -0.438155,0.259054 0,0 -0.195833,-0.126736 -0.290056,-0.435101 0.0200075,0.00826288 0.0401094,0.0162537 0.0602668,0.0239835 0.133683,0.275768 0.249358,0.351156 0.249358,0.351156 0.188913,-0.0613663 0.34186,-0.206405 0.34186,-0.206405 -9.44012e-005,0.000138825 -0.000422029,6.10831e-005 -0.000932906,-0.000172143 0.0257771,0.00290423 0.0516486,0.00540863 0.0776589,0.00748546z"/>
      <path id="_115423200" class="fil9" d="M5.43855 1.94626c0.158372,0.0565352 0.335274,0.100626 0.502659,0.124748 -0.0480447,0.0425083 -0.161254,0.120467 -0.284914,0.160493 0,0 -0.10368,-0.0611664 -0.217745,-0.285242z"/>
      <path id="_115423128" class="fil6" d="M5.76646 1.674c-0.0673025,0.0126498 -0.139669,0.043108 -0.206517,0.0834507 -0.0691572,0.0417364 -0.133006,0.0944789 -0.179618,0.149282l-0.00707454 0.00832397 0.00223786 0.0105785c0.0139214,0.0656311 0.0462233,0.136432 0.0886094,0.201996 0.0438577,0.0678356 0.0989547,0.130651 0.155945,0.176736l0.00865715 0.0069968 0.0108395 -0.0020324c0.0673025,-0.0126498 0.139669,-0.043108 0.206517,-0.0834507 0.0691572,-0.0417364 0.133006,-0.0944789 0.179618,-0.149282l0.00708009 -0.00832952 -0.00224342 -0.0105729c-0.0139214,-0.0656311 -0.0462233,-0.136432 -0.0886094,-0.201996 -0.0438577,-0.0678356 -0.0989547,-0.130651 -0.155945,-0.176736l-0.00865159 -0.00700235 -0.010845 0.00203796zm-0.181372 0.122333c0.0587842,-0.0354782 0.121567,-0.0626657 0.180001,-0.075371 0.0497828,0.0420363 0.0979718,0.0980273 0.137171,0.158661 0.0372774,0.0576625 0.0660975,0.11909 0.0799467,0.176092 -0.0425416,0.0478559 -0.0994711,0.0939792 -0.161293,0.131284 -0.0587842,0.0354782 -0.121544,0.0626546 -0.179979,0.0753544 -0.0497883,-0.0420307 -0.097994,-0.0980107 -0.137193,-0.158644 -0.0372774,-0.0576625 -0.0660753,-0.119095 -0.0799245,-0.176103 0.0425472,-0.0478503 0.0994489,-0.0939681 0.161271,-0.131273z"/>
     </g>
    </g>
   </g>
   <polygon id="_115422984" class="fil1" points="5.22506,3.25548 4.66176,3.44429 5.13456,3.18214 "/>
   <polygon id="_115422912" class="fil1" points="4.82119,3.01726 4.52628,3.22167 4.89453,3.08124 "/>
  </g>
 </g>
</svg>
