<?xml version="1.0" encoding="UTF-8"?>
<!DOCTYPE svg PUBLIC "-//W3C//DTD SVG 1.1//EN" "http://www.w3.org/Graphics/SVG/1.1/DTD/svg11.dtd">
<!-- Creator: CorelDRAW -->
<svg xmlns="http://www.w3.org/2000/svg" xml:space="preserve" width="161.908mm" height="176.792mm" style="shape-rendering:geometricPrecision; text-rendering:geometricPrecision; image-rendering:optimizeQuality; fill-rule:evenodd; clip-rule:evenodd"
viewBox="0 0 12.3917 13.5308"
 xmlns:xlink="http://www.w3.org/1999/xlink">
 <defs>
  <style type="text/css">
   <![CDATA[
    .fil13 {fill:none}
    .fil11 {fill:#4D3A47}
    .fil0 {fill:#501D33}
    .fil10 {fill:#62545D}
    .fil3 {fill:#703D43}
    .fil4 {fill:#754147}
    .fil2 {fill:#845451}
    .fil6 {fill:#965F54}
    .fil8 {fill:#9893A0}
    .fil12 {fill:#9A8D8E}
    .fil1 {fill:#AF8777}
    .fil5 {fill:#BE986E}
    .fil7 {fill:#C7C0C9}
    .fil9 {fill:#DBC593}
   ]]>
  </style>
 </defs>
 <g id="Layer_x0020_1">
  <metadata id="CorelCorpID_0Corel-Layer"/>
  <g id="_112985376">
   <path id="_112439072" class="fil0" d="M3.43481 3.87853c0,0 -0.0542176,0.0863854 -0.029114,0.257648 0.112147,0.765039 0.431636,2.88006 0.572584,3.14083 1.86406,0.674437 2.63831,0.674406 4.50237,0 0.102427,-0.189486 0.299131,-1.35814 0.44203,-2.27638 0.0977739,-0.628263 -0.0298564,-1.12423 -0.0298564,-1.12423l-0.0823673 -2.63032 -0.243313 -0.251013 -1.09361 2.30957 -2.53781 0.0241239 -1.05123 -2.35074c-0.0313565,-0.070137 -0.258353,0.209998 -0.339549,0.220605l-0.110127 2.67991z"/>
   <g>
    <g>
     <path id="_112439000" class="fil0" d="M3.86151 6.01247l0.821209 0 0 1.32607c-0.340031,-0.0979193 -0.568191,-0.180455 -0.568191,-0.180455 -0.0607231,-0.112339 -0.156721,-0.59096 -0.253018,-1.14561z"/>
     <path id="_112438928" class="fil1" d="M3.88223 6.13057l0.682381 0 0 1.17327c-0.273667,-0.0819617 -0.450081,-0.145762 -0.450081,-0.145762 -0.0563606,-0.104272 -0.143121,-0.524206 -0.2323,-1.02751z"/>
     <path id="_112438856" class="fil2" d="M3.88223 6.13057l0.682381 0 -0.0513705 1.15776c-0.244155,-0.0743464 -0.398711,-0.130248 -0.398711,-0.130248 -0.0563606,-0.104272 -0.143121,-0.524206 -0.2323,-1.02751z"/>
     <path id="_112438784" class="fil3" d="M3.88223 6.13057l0.682381 0 -0.0157204 0.354305c-0.238362,-0.0504674 -0.442504,-0.0535211 -0.608211,-0.0355277 -0.0191721,-0.100552 -0.0387498,-0.207571 -0.05845,-0.318777z"/>
     <path id="_112438712" class="fil0" d="M4.11379 5.87219l0.00171439 0c0.0463881,0 0.0843266,0.0379462 0.0843266,0.0843343l0 0.245097c0,0.0463804 -0.0379386,0.0843266 -0.0843266,0.0843266l-0.00171439 0c-0.0463804,0 -0.0843266,-0.0379462 -0.0843266,-0.0843266l0 -0.245097c0,-0.0463881 0.0379462,-0.0843343 0.0843266,-0.0843343z"/>
    </g>
    <g>
     <path id="_112438616" class="fil0" d="M7.77621 6.01247l0.821186 0c-0.0962967,0.554651 -0.192272,1.03327 -0.252995,1.14561 0,0 -0.228167,0.0825357 -0.568191,0.180447l0 -1.32606z"/>
     <path id="_112438544" class="fil1" d="M7.89432 6.13057l0.682351 0c-0.0891866,0.503304 -0.175909,0.923238 -0.232269,1.02751 0,0 -0.176422,0.0637998 -0.450081,0.145754l0 -1.17326z"/>
     <path id="_112438472" class="fil2" d="M7.89432 6.13057l0.682351 0c-0.0891866,0.503304 -0.175909,0.923238 -0.232269,1.02751 0,0 -0.154571,0.0558937 -0.398711,0.130232l-0.0513705 -1.15774z"/>
     <path id="_112438400" class="fil3" d="M7.89432 6.13057l0.682351 0c-0.0195012,0.110035 -0.0388723,0.215967 -0.0578454,0.315609 -0.259179,-0.0219274 -0.464485,0.0121768 -0.608111,0.0537048l-0.0163939 -0.369314z"/>
     <path id="_112438328" class="fil0" d="M8.34343 5.87219l0.00170674 0c0.0463881,0 0.0843343,0.0379462 0.0843343,0.0843343l0 0.245097c0,0.0463804 -0.0379462,0.0843266 -0.0843343,0.0843266l-0.00170674 0c-0.0463881,0 -0.0843266,-0.0379462 -0.0843266,-0.0843266l0 -0.245097c0,-0.0463881 0.0379386,-0.0843343 0.0843266,-0.0843343z"/>
    </g>
    <g>
     <path id="_112438232" class="fil0" d="M5.6614 6.01247l1.13613 0 0 1.49265 -0.107188 0.0830179c-0.1123,0.0181924 -0.225136,0.0336602 -0.336709,0.0452324l-0.00254097 0.019019c-0.0401963,-0.00195165 -0.0808136,-0.00460743 -0.121645,-0.00776833 -0.0408316,0.00316091 -0.0814106,0.00581668 -0.121607,0.00776833l-0.00254097 -0.0190114c-0.111818,-0.0115951 -0.224922,-0.0271088 -0.337452,-0.0453548l-0.106445 -0.0832551 0 -1.4923z"/>
     <polygon id="_112438160" class="fil1" points="5.7795,6.13057 6.67942,6.13057 6.67942,7.44721 6.22395,7.7038 5.7795,7.44721 "/>
     <polygon id="_112438088" class="fil2" points="5.7795,6.13057 6.67942,6.13057 6.6218,7.42947 6.22928,7.58832 5.83713,7.42947 "/>
     <path id="_112438016" class="fil3" d="M5.7795 6.13057l0.899918 0 -0.0157127 0.354305c-0.383932,-0.0812958 -0.679106,-0.0395535 -0.867811,0.0150086l-0.0163939 -0.369314z"/>
     <path id="_112437944" class="fil0" d="M6.22861 5.87219l0.00170674 0c0.0463804,0 0.0843343,0.0379462 0.0843343,0.0843343l0 0.245097c0,0.0463804 -0.0379539,0.0843266 -0.0843343,0.0843266l-0.00170674 0c-0.0463804,0 -0.0843343,-0.0379462 -0.0843343,-0.0843266l0 -0.245097c0,-0.0463881 0.0379539,-0.0843343 0.0843343,-0.0843343z"/>
    </g>
    <g>
     <path id="_112437848" class="fil0" d="M4.60398 6.01247l1.13614 0 0 1.49265 -0.0827729 0.064106c-0.392182,-0.0699533 -0.769808,-0.169855 -1.05337,-0.253684l0 -1.30308z"/>
     <path id="_112437776" class="fil1" d="M4.7221 6.13057l0.899918 0 0 1.31664 -0.119694 0.0926996c-0.284084,-0.0565979 -0.554659,-0.126038 -0.780224,-0.190121l0 -1.21922z"/>
     <path id="_112437704" class="fil2" d="M4.7221 6.13057l0.899918 0 -0.0576311 1.2989 -0.169281 0.0883906c-0.222373,-0.0472759 -0.433664,-0.101195 -0.618229,-0.15265l-0.0547763 -1.23464z"/>
     <path id="_112437632" class="fil3" d="M4.7221 6.13057l0.899918 0 -0.0157204 0.354305c-0.383932,-0.0812958 -0.679106,-0.0395535 -0.867811,0.0150086l-0.0163862 -0.369314z"/>
     <path id="_112437560" class="fil0" d="M5.1712 5.87219l0.00170674 0c0.0463881,0 0.0843343,0.0379462 0.0843343,0.0843343l0 0.245097c0,0.0463804 -0.0379462,0.0843266 -0.0843343,0.0843266l-0.00170674 0c-0.0463881,0 -0.0843266,-0.0379462 -0.0843266,-0.0843266l0 -0.245097c0,-0.0463881 0.0379386,-0.0843343 0.0843266,-0.0843343z"/>
    </g>
    <g>
     <path id="_112437464" class="fil0" d="M6.71881 6.01247l1.13614 0 0 1.30308c-0.283632,0.0838444 -0.661434,0.183769 -1.05368,0.253722l-0.0824668 -0.0644963 0 -1.4923z"/>
     <path id="_112437392" class="fil1" d="M6.83692 6.13057l0.89991 0 0 1.21922c-0.22581,0.0641596 -0.49676,0.133661 -0.781165,0.19029l-0.118745 -0.092868 0 -1.31664z"/>
     <path id="_112437320" class="fil2" d="M6.83692 6.13057l0.89991 0 -0.0547687 1.23462c-0.185698,0.0517685 -0.398473,0.106024 -0.622316,0.153507l-0.165201 -0.0892325 -0.0576234 -1.2989z"/>
     <path id="_112437248" class="fil3" d="M6.83692 6.13057l0.89991 0 -0.0157127 0.354305c-0.383932,-0.0812958 -0.679113,-0.0395535 -0.867819,0.0150086l-0.0163786 -0.369314z"/>
     <path id="_112437176" class="fil0" d="M7.28602 5.87219l0.00170674 0c0.0463881,0 0.0843266,0.0379462 0.0843266,0.0843343l0 0.245097c0,0.0463804 -0.0379386,0.0843266 -0.0843266,0.0843266l-0.00170674 0c-0.0463881,0 -0.0843343,-0.0379462 -0.0843343,-0.0843266l0 -0.245097c0,-0.0463881 0.0379462,-0.0843343 0.0843343,-0.0843343z"/>
    </g>
   </g>
   <g>
    <g>
     <path id="_112437056" class="fil0" d="M3.62962 4.56435l0.52292 0 0 1.49266 -0.248931 0.192777c-0.0983096,-0.541885 -0.202344,-1.2092 -0.273989,-1.68544z"/>
     <path id="_112436984" class="fil1" d="M3.64746 4.68245l0.38697 0 0 1.31664 -0.154318 0.119495c-0.0831786,-0.470501 -0.168278,-1.0118 -0.232652,-1.43613z"/>
     <path id="_112436912" class="fil2" d="M3.64746 4.68245l0.38697 0 -0.0576234 1.2989 -0.110639 0.0577536c-0.0786783,-0.45116 -0.157931,-0.956026 -0.218707,-1.35666z"/>
     <path id="_112436840" class="fil3" d="M3.64746 4.68245l0.38697 0 -0.0157127 0.354313c-0.116104,-0.0245831 -0.224095,-0.0379079 -0.323469,-0.0430435 -0.0168531,-0.108481 -0.0328872,-0.213013 -0.0477887,-0.311269z"/>
     <path id="_112436768" class="fil0" d="M3.60914 4.42751c0.0348771,0.0103476 0.0605165,0.0427832 0.0605165,0.0808978l0 0.245097c0,0.0114038 -0.00231137,0.0222947 -0.00645958,0.0322443 -0.0198533,-0.129865 -0.0380457,-0.250822 -0.0540569,-0.358239z"/>
    </g>
    <g>
     <polygon id="_112436672" class="fil0" points="7.24603,4.56435 8.38218,4.56435 8.38218,6.05701 7.81153,6.49892 7.24603,6.05666 "/>
     <polygon id="_112436600" class="fil1" points="7.36414,4.68245 8.26406,4.68245 8.26406,5.99909 7.81189,6.34926 7.36414,5.99909 "/>
     <polygon id="_112436528" class="fil2" points="7.36414,4.68245 8.26406,4.68245 8.20643,5.98136 7.80744,6.18966 7.42178,5.98136 "/>
     <path id="_112436456" class="fil3" d="M7.36414 4.68245l0.899918 0 -0.0157204 0.354313c-0.383932,-0.0812958 -0.679098,-0.0395535 -0.867811,0.0150009l-0.0163862 -0.369314z"/>
     <path id="_112436384" class="fil0" d="M7.81325 4.42408l0.00170674 0c0.0463881,0 0.0843343,0.0379386 0.0843343,0.0843266l0 0.245097c0,0.0463804 -0.0379462,0.0843266 -0.0843343,0.0843266l-0.00170674 0c-0.0463881,0 -0.0843343,-0.0379462 -0.0843343,-0.0843266l0 -0.245097c0,-0.0463881 0.0379462,-0.0843266 0.0843343,-0.0843266z"/>
    </g>
    <g>
     <path id="_112436288" class="fil0" d="M8.30639 4.56435l0.522874 0c-0.0716983,0.476631 -0.175848,1.14465 -0.274218,1.68678l-0.248656 -0.194469 0 -1.49231z"/>
     <path id="_112436216" class="fil1" d="M8.4245 4.68245l0.386924 0c-0.0644274,0.424641 -0.149588,0.966404 -0.232828,1.43715l-0.154096 -0.120513 0 -1.31664z"/>
     <path id="_112436144" class="fil2" d="M8.4245 4.68245l0.386924 0c-0.0608685,0.40116 -0.140236,0.906852 -0.219006,1.35846l-0.110287 -0.0595598 -0.0576311 -1.2989z"/>
     <path id="_112436072" class="fil4" d="M8.4245 4.68245l0.386924 0c-0.0149933,0.0988224 -0.0311193,0.20399 -0.0480718,0.313144 -0.128465,0.00911536 -0.236509,0.0313183 -0.322466,0.0561693l-0.0163862 -0.369314z"/>
     <path id="_112436000" class="fil0" d="M8.79574 4.78575c-0.00414821,-0.00994959 -0.00645958,-0.0208406 -0.00645958,-0.0322443l0 -0.245097c0,-0.0381146 0.0256393,-0.0705503 0.0605165,-0.0808978 -0.0160112,0.107433 -0.0342036,0.228374 -0.0540569,0.358239z"/>
    </g>
    <g>
     <polygon id="_112435904" class="fil0" points="5.13121,4.56435 6.26735,4.56435 6.26735,6.05701 5.69671,6.49892 5.13121,6.05666 "/>
     <polygon id="_112435832" class="fil1" points="5.24932,4.68245 6.14925,4.68245 6.14925,5.99909 5.69707,6.34926 5.24932,5.99909 "/>
     <polygon id="_112435760" class="fil2" points="5.24932,4.68245 6.14925,4.68245 6.09161,5.98136 5.69264,6.18966 5.30696,5.98136 "/>
     <path id="_112435688" class="fil3" d="M5.24932 4.68245l0.899925 0 -0.0157127 0.354313c-0.383939,-0.0812958 -0.679106,-0.0395535 -0.867826,0.0150009l-0.0163862 -0.369314z"/>
     <path id="_112435616" class="fil0" d="M5.69844 4.42408l0.00170674 0c0.0463804,0 0.0843343,0.0379386 0.0843343,0.0843266l0 0.245097c0,0.0463804 -0.0379539,0.0843266 -0.0843343,0.0843266l-0.00170674 0c-0.0463881,0 -0.0843419,-0.0379462 -0.0843419,-0.0843266l0 -0.245097c0,-0.0463881 0.0379539,-0.0843266 0.0843419,-0.0843266z"/>
    </g>
    <g>
     <polygon id="_112435520" class="fil0" points="4.07381,4.56435 5.20995,4.56435 5.20995,6.05701 4.6393,6.49892 4.07381,6.05666 "/>
     <polygon id="_112435448" class="fil1" points="4.19192,4.68245 5.09183,4.68245 5.09183,5.99909 4.63966,6.34926 4.19192,5.99909 "/>
     <polygon id="_112435376" class="fil2" points="4.19192,4.68245 5.09183,4.68245 5.0342,5.98136 4.63523,6.18966 4.24955,5.98136 "/>
     <path id="_112435304" class="fil3" d="M4.19192 4.68245l0.899918 0 -0.0157127 0.354313c-0.383932,-0.0812958 -0.679106,-0.0395535 -0.867811,0.0150009l-0.0163939 -0.369314z"/>
     <path id="_112435232" class="fil0" d="M4.64103 4.42408l0.00170674 0c0.0463881,0 0.0843266,0.0379386 0.0843266,0.0843266l0 0.245097c0,0.0463804 -0.0379386,0.0843266 -0.0843266,0.0843266l-0.00170674 0c-0.0463881,0 -0.0843343,-0.0379462 -0.0843343,-0.0843266l0 -0.245097c0,-0.0463881 0.0379462,-0.0843266 0.0843343,-0.0843266z"/>
    </g>
    <g>
     <polygon id="_112435136" class="fil0" points="6.18862,4.56435 7.32477,4.56435 7.32477,6.05701 6.75412,6.49892 6.18862,6.05666 "/>
     <polygon id="_112435064" class="fil1" points="6.30674,4.68245 7.20666,4.68245 7.20666,5.99909 6.75448,6.34926 6.30674,5.99909 "/>
     <polygon id="_112434992" class="fil2" points="6.30674,4.68245 7.20666,4.68245 7.14903,5.98136 6.75004,6.18966 6.36436,5.98136 "/>
     <path id="_112434920" class="fil3" d="M6.30674 4.68245l0.899918 0 -0.0157204 0.354313c-0.383932,-0.0812958 -0.679106,-0.0395535 -0.867819,0.0150009l-0.0163786 -0.369314z"/>
     <path id="_112434848" class="fil0" d="M6.75583 4.42408l0.00172204 0c0.0463804,0 0.0843266,0.0379386 0.0843266,0.0843266l0 0.245097c0,0.0463804 -0.0379462,0.0843266 -0.0843266,0.0843266l-0.00172204 0c-0.0463804,0 -0.0843266,-0.0379462 -0.0843266,-0.0843266l0 -0.245097c0,-0.0463881 0.0379462,-0.0843266 0.0843266,-0.0843266z"/>
    </g>
   </g>
   <polygon id="_112434728" class="fil1" points="8.26275,5.58669 7.63261,5.42324 8.2735,5.39958 "/>
   <g>
    <path id="_112434656" class="fil0" d="M3.6221 3.11207l1.06062 0 0 1.49265 -0.57064 0.441907 -0.464478 -0.363252c-0.0489826,-0.322818 -0.0859798,-0.577956 -0.101027,-0.682664l0 -0.12623 0.0755251 -0.762414z"/>
    <polygon id="_112434584" class="fil1" points="3.66469,3.23017 4.56461,3.23017 4.56461,4.54681 4.11243,4.89697 3.66469,4.54681 "/>
    <polygon id="_112434512" class="fil2" points="3.66469,3.23017 4.56461,3.23017 4.50698,4.52907 4.10799,4.73739 3.72233,4.52907 "/>
    <path id="_112434440" class="fil3" d="M3.66469 3.23017l0.899918 0 -0.0157204 0.354313c-0.383932,-0.0813035 -0.679113,-0.0395611 -0.867819,0.0150009l-0.0163786 -0.369314z"/>
    <path id="_112434368" class="fil0" d="M4.11379 2.97179l0.00171439 0c0.0463881,0 0.0843266,0.0379462 0.0843266,0.0843266l0 0.245104c0,0.0463881 -0.0379386,0.0843343 -0.0843266,0.0843343l-0.00171439 0c-0.0463804,0 -0.0843266,-0.0379462 -0.0843266,-0.0843343l0 -0.245104c0,-0.0463804 0.0379462,-0.0843266 0.0843266,-0.0843266z"/>
   </g>
   <g>
    <path id="_112434272" class="fil0" d="M7.77621 3.11207l1.06062 0 0.0755251 0.762414 0 0.126084c-0.0150315,0.10454 -0.0520364,0.359632 -0.101004,0.682381l-0.469636 0.363681 -0.565504 -0.442259 0 -1.4923z"/>
    <polygon id="_112434200" class="fil1" points="7.89432,3.23017 8.79424,3.23017 8.79424,4.54681 8.34207,4.89697 7.89432,4.54681 "/>
    <polygon id="_112434128" class="fil2" points="7.89432,3.23017 8.79424,3.23017 8.73661,4.52907 8.33764,4.73739 7.95195,4.52907 "/>
    <path id="_112434056" class="fil3" d="M7.89432 3.23017l0.899918 0 -0.0157127 0.354313c-0.383932,-0.0813035 -0.679106,-0.0395611 -0.867811,0.0150009l-0.0163939 -0.369314z"/>
    <path id="_112433984" class="fil0" d="M8.34343 2.97179l0.00170674 0c0.0463881,0 0.0843343,0.0379462 0.0843343,0.0843266l0 0.245104c0,0.0463881 -0.0379462,0.0843343 -0.0843343,0.0843343l-0.00170674 0c-0.0463881,0 -0.0843266,-0.0379462 -0.0843266,-0.0843343l0 -0.245104c0,-0.0463804 0.0379386,-0.0843266 0.0843266,-0.0843266z"/>
   </g>
   <polygon id="_112433888" class="fil0" points="5.6614,3.11207 6.79753,3.11207 6.79753,4.60472 6.2269,5.04663 5.6614,4.60437 "/>
   <polygon id="_112433816" class="fil1" points="5.7795,3.23017 6.67942,3.23017 6.67942,4.54681 6.22725,4.89697 5.7795,4.54681 "/>
   <polygon id="_112433744" class="fil2" points="5.7795,3.23017 6.67942,3.23017 6.6218,4.52907 6.22282,4.73739 5.83713,4.52907 "/>
   <polygon id="_112433672" class="fil3" points="5.7795,3.23017 6.67942,3.23017 6.64929,3.90932 5.80964,3.90932 "/>
   <path id="_112433600" class="fil4" d="M5.7795 3.23017l0.899918 0 -0.0157127 0.354313c-0.383932,-0.0813035 -0.679106,-0.0395611 -0.867811,0.0150009l-0.0163939 -0.369314z"/>
   <path id="_112433528" class="fil0" d="M6.22861 2.97179l0.00170674 0c0.0463804,0 0.0843343,0.0379462 0.0843343,0.0843266l0 0.245104c0,0.0463881 -0.0379539,0.0843343 -0.0843343,0.0843343l-0.00170674 0c-0.0463804,0 -0.0843343,-0.0379462 -0.0843343,-0.0843343l0 -0.245104c0,-0.0463804 0.0379539,-0.0843266 0.0843343,-0.0843266z"/>
   <polygon id="_112433456" class="fil0" points="4.60398,3.11207 5.74013,3.11207 5.74013,4.60472 5.16949,5.04663 4.60398,4.60437 "/>
   <polygon id="_112433384" class="fil1" points="4.7221,3.23017 5.62202,3.23017 5.62202,4.54681 5.16984,4.89697 4.7221,4.54681 "/>
   <polygon id="_112433312" class="fil2" points="4.7221,3.23017 5.62202,3.23017 5.56439,4.52907 5.16541,4.73739 4.77972,4.52907 "/>
   <path id="_112433240" class="fil3" d="M4.7221 3.23017l0.899918 0 -0.030132 0.679159 -0.697397 0c-0.0504674,-0.0583199 -0.100705,-0.120995 -0.150553,-0.187045l-0.0218355 -0.492114z"/>
   <path id="_112433168" class="fil4" d="M4.7221 3.23017l0.899918 0 -0.0157204 0.354313c-0.383932,-0.0813035 -0.679106,-0.0395611 -0.867811,0.0150009l-0.0163862 -0.369314z"/>
   <path id="_112433096" class="fil0" d="M5.1712 2.97179l0.00170674 0c0.0463881,0 0.0843343,0.0379462 0.0843343,0.0843266l0 0.245104c0,0.0463881 -0.0379462,0.0843343 -0.0843343,0.0843343l-0.00170674 0c-0.0463881,0 -0.0843266,-0.0379462 -0.0843266,-0.0843343l0 -0.245104c0,-0.0463804 0.0379386,-0.0843266 0.0843266,-0.0843266z"/>
   <polygon id="_112433024" class="fil0" points="6.71881,3.11207 7.85495,3.11207 7.85495,4.60472 7.2843,5.04663 6.71881,4.60437 "/>
   <polygon id="_112432952" class="fil1" points="6.83692,3.23017 7.73683,3.23017 7.73683,4.54681 7.28465,4.89697 6.83692,4.54681 "/>
   <polygon id="_112432880" class="fil2" points="6.83692,3.23017 7.73683,3.23017 7.67921,4.52907 7.28022,4.73739 6.89455,4.52907 "/>
   <path id="_112432808" class="fil3" d="M6.83692 3.23017l0.89991 0 -0.019639 0.442742c-0.0618482,0.0843649 -0.124362,0.163747 -0.187251,0.236418l-0.662888 0 -0.030132 -0.679159z"/>
   <path id="_112432736" class="fil4" d="M6.83692 3.23017l0.89991 0 -0.0157127 0.354313c-0.383932,-0.0813035 -0.679113,-0.0395611 -0.867819,0.0150009l-0.0163786 -0.369314z"/>
   <path id="_112432664" class="fil0" d="M7.28602 2.97179l0.00170674 0c0.0463881,0 0.0843266,0.0379462 0.0843266,0.0843266l0 0.245104c0,0.0463881 -0.0379386,0.0843343 -0.0843266,0.0843343l-0.00170674 0c-0.0463881,0 -0.0843343,-0.0379462 -0.0843343,-0.0843343l0 -0.245104c0,-0.0463804 0.0379462,-0.0843266 0.0843343,-0.0843266z"/>
   <polygon id="_112432592" class="fil0" points="8.07442,1.92495 8.96459,0.925098 8.97321,3.85821 8.07442,3.85821 "/>
   <polygon id="_112432520" class="fil5" points="8.22228,1.96654 8.82535,1.16437 8.82535,3.7434 8.22228,3.7434 "/>
   <path id="_112987920" class="fil6" d="M8.22228 1.96654l0.545965 -0.726213c0.0199834,0.0190803 0.0390636,0.0373645 0.057103,0.0546768l0 0.618076c-0.120826,0.287727 -0.314966,0.672906 -0.603068,1.04325l0 -0.989793z"/>
   <path id="_112987848" class="fil0" d="M8.16701 4.40878l0.726703 0.875694 0.413352 -0.669462 -0.517639 -0.877807c0,0 -0.667465,0.604323 -0.622416,0.671574z"/>
   <polygon id="_112987776" class="fil6" points="8.3447,4.41452 8.863,5.021 9.13614,4.60162 8.75117,4.02955 "/>
   <rect id="_112987704" class="fil0" x="8.02398" y="3.65103" width="0.999674" height="0.930731" rx="0.139608" ry="0.139608"/>
   <rect id="_112987632" class="fil7" x="8.17832" y="3.80183" width="0.69099" height="0.629126" rx="0.0248051" ry="0.0248051"/>
   <rect id="_112987560" class="fil8" x="8.19646" y="4.13108" width="0.638741" height="0.264529"/>
   <rect id="_112987488" class="fil0" x="8.3014" y="3.72861" width="0.444829" height="0.590272" rx="0.0248051" ry="0.0248051"/>
   <rect id="_112987416" class="fil0" x="8.01958" y="3.10792" width="0.960892" height="0.258893"/>
   <polygon id="_112987344" class="fil6" points="8.24792,3.39081 8.24792,3.53921 8.78128,3.53921 8.78128,3.41662 "/>
   <circle id="_112987272" class="fil0" cx="8.52381" cy="2.77631" r="0.0947966"/>
   <polygon id="_112987200" class="fil0" points="4.34,1.92495 3.45845,0.942333 3.44121,3.85821 4.34,3.85821 "/>
   <polygon id="_112987128" class="fil5" points="4.19214,1.96654 3.58907,1.16437 3.58907,3.7434 4.19214,3.7434 "/>
   <polygon id="_112987056" class="fil9" points="3.7099,2.88757 3.58916,3.25601 3.58925,1.65952 "/>
   <polygon id="_112986984" class="fil9" points="8.70394,2.73906 8.82468,3.1075 8.82459,1.51101 "/>
   <path id="_112986912" class="fil6" d="M4.19214 1.96654l-0.545965 -0.726213c-0.0199834,0.0190803 -0.0390636,0.0373645 -0.057103,0.0546768l0 0.618076c0.120826,0.287727 0.314966,0.672906 0.603068,1.04325l0 -0.989793z"/>
   <path id="_112986840" class="fil0" d="M4.2474 4.40878l-0.726703 0.875694 -0.419758 -0.68242 0.524045 -0.864849c0,0 0.667465,0.604323 0.622416,0.671574z"/>
   <polygon id="_112986768" class="fil6" points="4.06972,4.41452 3.55141,5.021 3.27828,4.60162 3.66325,4.02955 "/>
   <rect id="_112986696" class="fil0" x="3.39077" y="3.65103" width="0.999674" height="0.930731" rx="0.139608" ry="0.139608"/>
   <rect id="_112986624" class="fil7" x="3.54511" y="3.80183" width="0.69099" height="0.629126" rx="0.0248051" ry="0.0248051"/>
   <rect id="_112986552" class="fil8" x="3.56455" y="4.1397" width="0.638741" height="0.264529"/>
   <rect id="_112986480" class="fil0" x="3.66819" y="3.72861" width="0.444829" height="0.590272" rx="0.0248051" ry="0.0248051"/>
   <rect id="_112986408" class="fil0" x="3.43395" y="3.10792" width="0.960892" height="0.258893"/>
   <polygon id="_112986336" class="fil6" points="4.1665,3.39081 4.1665,3.53921 3.63314,3.53921 3.63314,3.41662 "/>
   <circle id="_112986264" class="fil0" cx="3.8906" cy="2.77631" r="0.0947966"/>
   <path id="_112986192" class="fil0" d="M3.39364 0.937979c0,0 0.724545,1.90624 1.50084,2.8033 0.87848,0 1.75698,0 2.63546,0 0.776298,-0.897055 1.50084,-2.8033 1.50084,-2.8033 -0.232889,-0.267391 -0.491655,-0.293268 -0.491655,-0.293268l-1.17509 2.304c-0.0281038,0.0542712 -0.0676878,0.08275 -0.118745,0.0854211 -0.706995,-0.0145111 -1.35918,-0.0145111 -2.06617,0 -0.0510567,-0.00267108 -0.0906408,-0.0311499 -0.118745,-0.0854211l-1.17509 -2.304c0,0 -0.258766,0.0258766 -0.491655,0.293268z"/>
   <path id="_112986120" class="fil10" d="M3.52663 0.963893c0.066448,0.170498 0.138659,0.340506 0.211414,0.507781 0.179935,0.413712 0.375612,0.82463 0.593968,1.21946 0.176322,0.318831 0.379784,0.654124 0.615489,0.935338 0.843136,0 1.68627,0 2.52941,0 0.235706,-0.281214 0.439167,-0.616507 0.615489,-0.935338 0.21857,-0.395228 0.414423,-0.806567 0.594511,-1.22071 0.0725555,-0.166855 0.144598,-0.336457 0.210878,-0.506534 -0.0684915,-0.0677338 -0.147905,-0.124316 -0.236242,-0.163342 -0.0176414,-0.0077913 -0.0389794,-0.0162944 -0.060968,-0.0236571l-1.13451 2.22445c-0.0440997,0.0851532 -0.117405,0.14234 -0.214773,0.147438l-0.00417883 0.000214299 -0.00417883 -8.41889e-005c-0.687471,-0.0141131 -1.37398,-0.0141131 -2.06146,0l-0.00417883 8.41889e-005 -0.00417883 -0.000214299c-0.0973682,-0.00509725 -0.170674,-0.0622844 -0.214934,-0.147751l-1.13435 -2.22414c-0.0219886,0.0073627 -0.0433266,0.0158658 -0.060968,0.0236571 -0.0883371,0.0390254 -0.167742,0.0956079 -0.236234,0.163342z"/>
   <path id="_112986048" class="fil11" d="M3.52663 0.963893c0.066448,0.170498 0.138659,0.340506 0.211414,0.507781 0.0660959,0.151976 0.134304,0.303554 0.204992,0.454115 0.116158,-0.0412066 0.250156,-0.0855435 0.400517,-0.129873l-0.519721 -1.01902c-0.0219886,0.0073627 -0.0433266,0.0158658 -0.060968,0.0236571 -0.0883371,0.0390254 -0.167742,0.0956079 -0.236234,0.163342zm5.02932 0.800644c0.0445971,-0.0977662 0.0882299,-0.195846 0.13096,-0.29411 0.0725555,-0.166855 0.144598,-0.336457 0.210878,-0.506534 -0.0684915,-0.0677338 -0.147905,-0.124316 -0.236242,-0.163342 -0.0176414,-0.0077913 -0.0389794,-0.0162944 -0.060968,-0.0236571l-0.446415 0.875289c0.13321,0.0324739 0.267238,0.0698385 0.401787,0.112354z"/>
   <path id="_112985976" class="fil12" d="M3.57196 1.07805c0.0533987,0.132154 0.109591,0.263718 0.166089,0.393621 0.179935,0.413712 0.375612,0.82463 0.593968,1.21946 0.176322,0.318831 0.379784,0.654124 0.615489,0.935338 0.843136,0 1.68627,0 2.52941,0 0.235706,-0.281214 0.439167,-0.616507 0.615489,-0.935338 0.21857,-0.395228 0.414423,-0.806567 0.594511,-1.22071 0.0494342,-0.113686 0.0986081,-0.228665 0.145907,-0.344179 -0.386794,0.807386 -0.830684,1.72108 -1.37127,2.36604 -0.830026,0 -1.66004,0 -2.49007,0 -0.548735,-0.70127 -0.983892,-1.57543 -1.39952,-2.41423z"/>
   <polygon id="_112985904" class="fil11" points="8.39445,1.59135 7.56283,2.97883 8.29966,1.49225 "/>
   <polygon id="_112985832" class="fil11" points="4.0091,1.59135 4.84073,2.97883 4.1039,1.49225 "/>
   <polygon id="_112985760" class="fil0" points="8.30828,5.32289 7.60592,5.42631 8.38584,5.49525 "/>
   <polygon id="_112985688" class="fil0" points="7.43498,3.6919 7.3468,3.17145 7.56832,3.61448 "/>
   <polygon id="_112985616" class="fil0" points="5.02621,3.6919 5.11439,3.17145 4.89287,3.61448 "/>
   <polygon id="_112985544" class="fil1" points="5.27845,5.47663 5.8515,5.17477 5.26262,5.32902 "/>
   <polygon id="_112985472" class="fil1" points="4.19464,5.67552 4.2341,5.83727 5.04578,5.40732 4.45225,5.52746 "/>
   <polygon id="_112985400" class="fil0" points="3.69277,5.5927 6.15257,5.09361 3.74993,5.81995 "/>
  </g>
  <rect class="fil13" width="12.3917" height="13.5308"/>
 </g>
</svg>
