<?xml version="1.0" encoding="UTF-8"?>
<!DOCTYPE svg PUBLIC "-//W3C//DTD SVG 1.1//EN" "http://www.w3.org/Graphics/SVG/1.1/DTD/svg11.dtd">
<!-- Creator: CorelDRAW -->
<svg xmlns="http://www.w3.org/2000/svg" xml:space="preserve" width="161.908mm" height="176.792mm" style="shape-rendering:geometricPrecision; text-rendering:geometricPrecision; image-rendering:optimizeQuality; fill-rule:evenodd; clip-rule:evenodd"
viewBox="0 0 10.4204 11.3783"
 xmlns:xlink="http://www.w3.org/1999/xlink">
 <defs>
  <style type="text/css">
   <![CDATA[
    .fil0 {fill:none}
    .fil11 {fill:#453640}
    .fil1 {fill:#501D33}
    .fil9 {fill:#62545D}
    .fil7 {fill:#7B798B}
    .fil2 {fill:#9893A0}
    .fil10 {fill:#9A8D8E}
    .fil5 {fill:#ADA8B3}
    .fil3 {fill:#B57366}
    .fil8 {fill:#C7C0C9}
    .fil6 {fill:#E4A686}
    .fil4 {fill:white}
   ]]>
  </style>
 </defs>
 <g id="Layer_x0020_1">
  <metadata id="CorelCorpID_0Corel-Layer"/>
  <rect class="fil0" width="10.4204" height="11.3783"/>
  <g id="_115087424">
   <path id="_115091000" class="fil1" d="M2.7358 2.94579c0.157005,1.03464 0.33577,2.06203 0.492782,3.09668 1.1665,0.443759 3.00966,0.388822 3.96319,0l0.507288 -3.11119 -0.7558 -1.48492c-1.15843,0.451868 -2.30773,0.451868 -3.46617,0l-0.741293 1.49943z"/>
   <path id="_115090928" class="fil2" d="M2.88749 2.96564l0.452596 2.98249c0.0113595,0.00386801 0.0226353,0.00738848 0.0325144,0.0105292 1.16567,0.370177 2.50947,0.370177 3.67515,0 0.00988563,-0.00314075 0.0211614,-0.00666121 0.0325209,-0.0105292l0.452596 -2.98249 -0.659248 -1.36715c-1.11051,0.412551 -2.21637,0.412551 -3.32688,0l-0.659248 1.36715z"/>
   <path id="_115090856" class="fil3" d="M6.68891 5.24564c0.0182524,0 0.0330551,0.0148027 0.0330551,0.0330486 0,0.0182524 -0.0148027,0.0330551 -0.0330551,0.0330551 -0.0182524,0 -0.0330486,-0.0148027 -0.0330486,-0.0330551 0,-0.0182459 0.0147963,-0.0330486 0.0330486,-0.0330486zm-0.835471 0.227691c0.0277068,0 0.0537788,0.00704093 0.0764913,0.0194559 0.0834421,-0.085463 0.199881,-0.13854 0.328729,-0.13854 0.184023,0 0.342798,0.108246 0.416149,0.264531l-0.875496 0.202745c-4.50517e-005,-0.002613 -0.000102975,-0.00520669 -0.000102975,-0.00782612 0,-0.0100787 0.000373285,-0.0200737 0.00101044,-0.0299915 -0.0620362,-0.0219337 -0.106528,-0.0810866 -0.106528,-0.150634 0,-0.0882048 0.0715356,-0.15974 0.159747,-0.15974zm-0.229519 -0.077122c0.0304163,0 0.0550853,0.024669 0.0550853,0.0550853 0,0.0304163 -0.024669,0.0550853 -0.0550853,0.0550853 -0.0304163,0 -0.0550853,-0.024669 -0.0550853,-0.0550853 0,-0.0304163 0.024669,-0.0550853 0.0550853,-0.0550853zm0.820771 -0.187293c0.0415827,0 0.0752878,0.0337115 0.0752878,0.0752814 0,0.0415763 -0.0337051,0.0752878 -0.0752878,0.0752878 -0.0415698,0 -0.0752749,-0.0337115 -0.0752749,-0.0752878 0,-0.0415698 0.0337051,-0.0752814 0.0752749,-0.0752814z"/>
   <polygon id="_115090784" class="fil4" points="6.38848,4.67249 6.30233,4.13361 6.24551,4.60834 "/>
   <path id="_115090712" class="fil5" d="M2.88749 2.96563l0.452596 2.98249c0.0113595,0.00386801 0.0226353,0.00738848 0.0325144,0.0105292 0.578901,0.183837 1.20173,0.276334 1.82487,0.27757l0 -4.32839c-0.549862,-0.0015575 -1.09972,-0.104649 -1.65073,-0.309351l-0.659248 1.36714z"/>
   <path id="_115090640" class="fil6" d="M3.81487 2.79412c0.0202025,0 0.0365884,0.0163859 0.0365884,0.0365884 0,0.020196 -0.0163859,0.036582 -0.0365884,0.036582 -0.020196,0 -0.036582,-0.0163859 -0.036582,-0.036582 0,-0.0202025 0.0163859,-0.0365884 0.036582,-0.0365884zm0.814019 0.304878c0.0286271,0 0.0518352,0.0232145 0.0518352,0.0518287 0,0.0286207 -0.0232081,0.0518287 -0.0518352,0.0518287 -0.0286143,0 -0.0518223,-0.0232081 -0.0518223,-0.0518287 0,-0.0286143 0.0232081,-0.0518287 0.0518223,-0.0518287zm-1.08231 1.16463c0.0404049,0 0.0731704,0.0327654 0.0731704,0.0731704 0,0.0404114 -0.0327654,0.0731704 -0.0731704,0.0731704 -0.0404114,0 -0.0731704,-0.032759 -0.0731704,-0.0731704 0,-0.0404049 0.032759,-0.0731704 0.0731704,-0.0731704zm0.375609 -0.231791c0.0450581,0.0249522 0.0756096,0.0729966 0.0756096,0.128133 0,0.0808098 -0.0655373,0.146341 -0.146341,0.146341 -0.0808098,0 -0.146341,-0.0655309 -0.146341,-0.146341 0,-0.00772958 0.000624288,-0.0153562 0.00178276,-0.022764 -0.0194688,0.00291549 -0.0394331,0.00447299 -0.0597192,0.00447299 -0.220528,0 -0.399383,-0.178855 -0.399383,-0.399396 0,-0.220528 0.178855,-0.399383 0.399383,-0.399383 0.00948016,0 0.0188895,0.00033467 0.0282024,0.000984701 -0.000476261,-0.00534828 -0.000753007,-0.0107545 -0.000753007,-0.0162315 0,-0.0993261 0.080546,-0.179872 0.179872,-0.179872 0.0993325,0 0.179878,0.080546 0.179878,0.179872 0,0.0646685 -0.0341814,0.121356 -0.085418,0.153053 0.060794,0.0700875 0.0976141,0.161549 0.0976141,0.261576 0,0.113968 -0.0477934,0.216782 -0.124388,0.289554zm0.224995 -0.591374c0.0387251,0 0.0701262,0.0313946 0.0701262,0.0701133 0,0.0387316 -0.031401,0.0701262 -0.0701262,0.0701262 -0.0387187,0 -0.0701197,-0.0313946 -0.0701197,-0.0701262 0,-0.0387187 0.031401,-0.0701133 0.0701197,-0.0701133z"/>
   <path id="_115090568" class="fil4" d="M3.12302 4.07047l0.554528 -0.290114 -0.569222 0.113839c0,0 0.0110184,0.179949 0.0146933,0.176274z"/>
   <path id="_115090496" class="fil7" d="M3.24039 5.11593c0,0 1.30002,-0.337855 1.96105,-0.378254 0,0 1.27104,0.121607 2.04293,0.305392 0,0 0.0606074,-0.0533734 0.0238516,-0.0533734 -0.0367557,0 -1.45556,-0.441075 -1.88929,-0.455781 -0.433725,-0.0146997 -2.02895,0.433725 -2.10982,0.470481 -0.0808613,0.0367622 0,0.117623 -0.0287237,0.111535z"/>
   <polygon id="_115090424" class="fil4" points="3.25875,5.28486 4.30538,5.70351 3.28624,5.46664 "/>
   <polygon id="_115090352" class="fil8" points="7.15772,5.31426 6.11109,5.73292 7.15772,5.49054 "/>
   <path id="_115090280" class="fil7" d="M3.26272 5.43828l0.0124471 0.0820198c0.380397,0.151238 1.15628,0.434337 1.91536,0.557791 0,0 0.815191,-0.119715 1.95569,-0.564523l0.0137794 -0.0908113c-0.456322,0.135464 -1.44236,0.416323 -1.93532,0.466169 0,0 -1.05524,-0.178842 -1.96195,-0.450646z"/>
   <path id="_115090208" class="fil4" d="M3.06328 3.01954l0.27681 2.47584 -0.0709178 -0.0146225 -0.381678 -2.51513 0.659248 -1.36714c0.0231759,0.00861131 0.0463582,0.0169845 0.069534,0.0252354l-0.552996 1.39582z"/>
   <path id="_115090136" class="fil8" d="M7.37166 3.03238l-0.259112 2.44861 0.0592816 0.0180657 0.375615 -2.52059 -0.659248 -1.36714c-0.0231759,0.00861131 -0.0463582,0.016978 -0.069534,0.0252289l0.552996 1.39583z"/>
   <path id="_115090064" class="fil1" d="M3.24255 5.51445c0.396616,0.129704 1.07661,0.318206 1.87588,0.449622 0.127483,0.0209555 0.120899,0.0189153 0.254748,-0.00330164 0.789988,-0.131165 1.4205,-0.310387 1.81379,-0.439016l0.0189925 -0.124092c-0.377855,0.126969 -1.02685,0.317788 -1.85381,0.454282 -0.107706,0.0177568 -0.108961,0.0218758 -0.205429,0.00626218 -0.836655,-0.135464 -1.53717,-0.335004 -1.92256,-0.463923l0.0183875 0.120166z"/>
   <g>
    <ellipse id="_115089992" class="fil1" cx="3.36561" cy="4.66094" rx="0.0617855" ry="0.0746966"/>
    <ellipse id="_115089920" class="fil1" cx="3.43892" cy="5.1973" rx="0.0562869" ry="0.068049"/>
    <ellipse id="_115089848" class="fil1" transform="matrix(-1.17124 -0.34125 -0.34125 1.17124 3.59548 1.9518)" rx="0.0605816" ry="0.0732412"/>
   </g>
   <g>
    <ellipse id="_115089752" class="fil1" cx="7.06765" cy="4.67197" rx="0.0617855" ry="0.0746966"/>
    <ellipse id="_115089680" class="fil1" cx="6.99433" cy="5.20833" rx="0.0562869" ry="0.068049"/>
    <ellipse id="_115089608" class="fil1" transform="matrix(1.17124 -0.34125 0.34125 1.17124 6.83777 1.96283)" rx="0.0605816" ry="0.0732412"/>
   </g>
   <path id="_115089512" class="fil4" d="M3.19407 4.96554c0.319397,-0.131506 1.18357,-0.465751 2.02693,-0.602907 0,0 0.867554,0.127393 2.06483,0.607689l0.0120996 0.0797608c-0.386479,-0.116401 -1.50647,-0.444055 -2.04278,-0.498284 0,0 -1.14283,0.193658 -2.07177,0.484235l0.0106966 -0.070493z"/>
   <path id="_115089440" class="fil1" d="M3.16152 4.96139c0.383602,-0.130154 1.07418,-0.336182 1.96329,-0.48148 0.128288,-0.0209362 0.121652,-0.0189217 0.256344,0.00329521 0.879486,0.145118 1.56255,0.349041 1.94324,0.478217l-0.00576018 0.119361c-0.353636,-0.123648 -1.03358,-0.337038 -1.95863,-0.488746 -0.108375,-0.0177761 -0.109643,-0.0218629 -0.206723,-0.00626218 -0.93376,0.150254 -1.64686,0.370299 -2.00924,0.496386l0.0174801 -0.120771z"/>
   <circle id="_115089368" class="fil4" transform="matrix(0.875355 -0.143296 0.0831585 0.507993 4.86517 4.39477)" r="0.176326"/>
   <circle id="_115089296" class="fil4" cx="4.53103" cy="4.3577" r="0.0813241"/>
   <polygon id="_115089224" class="fil1" points="6.17095,4.69361 6.30315,4.12071 6.29949,4.74135 "/>
   <g>
    <polygon id="_115089152" class="fil1" points="7.20289,5.68515 6.02374,6.03044 7.16617,5.81736 "/>
    <polygon id="_115089080" class="fil1" points="3.2523,5.68515 4.43144,6.03044 3.28902,5.81736 "/>
   </g>
   <path id="_115088984" class="fil1" d="M3.42456 1.24644c0,0 0.583915,-0.233522 1.76633,-0.23136l0.0111857 0c1.18242,-0.00216248 1.76633,0.23136 1.76633,0.23136 -0.267742,0.209329 -1.34244,0.525155 -1.37218,0.525155 -0.0217921,0 -0.269029,-0.0453349 -0.39975,-0.0695791 -0.130721,0.0242442 -0.377945,0.0695791 -0.399737,0.0695791 -0.029747,0 -1.10444,-0.315825 -1.37218,-0.525155z"/>
   <path id="_115088912" class="fil9" d="M3.57696 1.30743c0,0 0.531275,-0.212477 1.6071,-0.210507l0.0101752 0c1.07583,-0.0019694 1.6071,0.210507 1.6071,0.210507 -0.243607,0.190453 -1.22142,0.477805 -1.24849,0.477805 -0.0198227,0 -0.244772,-0.0412416 -0.363715,-0.063304 -0.118936,0.0220625 -0.343867,0.063304 -0.363696,0.063304 -0.0270632,0 -1.00487,-0.287352 -1.24848,-0.477805z"/>
   <path id="_115088840" class="fil10" d="M3.57696 1.30743c0,0 0.531288,-0.212457 1.60712,-0.210514l0.0101624 0c1.07583,-0.00194366 1.6071,0.210514 1.6071,0.210514 -0.00405465,0.00316649 -0.00835387,0.00636516 -0.0128011,0.00958314 -1.67502,-0.331368 -2.8994,-0.0136764 -2.8994,-0.0136764 0,0 -0.14477,0.022957 -0.294857,0.0168558 -0.00608198,-0.00429922 -0.0119323,-0.00855982 -0.0173127,-0.0127625z"/>
   <path id="_115088768" class="fil1" d="M6.51813 1.46747c-0.379155,0.161929 -0.939398,0.325119 -0.959781,0.325119 -0.0198549,0 -0.244792,-0.041248 -0.363722,-0.0633491 -0.11893,0.0221011 -0.343854,0.0633491 -0.363702,0.0633491 -0.0203955,0 -0.580665,-0.16319 -0.959807,-0.325119 0.261017,-0.0595197 0.699627,-0.129311 1.31844,-0.128191l0.0101624 0c0.61883,-0.00111986 1.0574,0.0686716 1.31841,0.128191z"/>
   <path id="_115088696" class="fil11" d="M6.51265 1.53237c-0.379149,0.161935 -0.939392,0.325125 -0.959775,0.325125 -0.0198549,0 -0.244792,-0.0412545 -0.363728,-0.0633491 -0.11893,0.0220946 -0.343854,0.0633491 -0.363702,0.0633491 -0.0203891,0 -0.580658,-0.16319 -0.9598,-0.325125 0.26101,-0.0595197 0.69962,-0.129305 1.31844,-0.128191l0.0101624 0c0.61883,-0.00111342 1.0574,0.0686716 1.3184,0.128191z"/>
   <g>
    <path id="_115088624" class="fil7" d="M6.91227 1.56541c-1.06771,0.389967 -2.30403,0.454668 -3.37206,0.032405l-0.0417372 0.0836352c0.190646,0.157771 0.716315,0.443978 1.67178,0.565521 0,0 1.11273,-0.100105 1.74653,-0.585846 0.0279642,-0.0214253 -0.0348056,-0.0767809 -0.0045116,-0.0957155z"/>
    <path id="_115088552" class="fil1" d="M6.94864 1.64485c0,0 0.110164,-0.374585 0.0807905,-0.392941 -0.0293673,-0.0183553 -0.264408,-0.0661037 -0.264408,-0.0661037 0,0 -0.757595,0.328768 -1.56727,0.333331 -0.809669,-0.00456309 -1.53422,-0.329662 -1.53422,-0.329662 0,0 -0.260746,0.0624416 -0.29012,0.080797 -0.0293673,0.0183553 0.0881404,0.396616 0.0881404,0.396616 0.888844,0.407769 1.58613,0.416857 1.72152,0.412049 0.135387,0.00480766 0.935485,-0.00427991 1.76557,-0.434086z"/>
    <path id="_115088480" class="fil9" d="M3.47035 1.31571c0,0 0.0210649,0.120983 0.0742194,0.278619 0.953525,0.503903 2.36017,0.503884 3.3137,0 0.0531545,-0.157636 0.0742194,-0.278619 0.0742194,-0.278619l-0.165822 -0.0357453c-1.02062,0.452081 -2.10987,0.452081 -3.1305,0l-0.165816 0.0357453z"/>
    <path id="_115088408" class="fil10" d="M3.47035 1.31571l0.000450517 0.00256151c0.100736,0.0580652 0.781769,0.428261 1.74982,0.41472 0.787877,-0.0110184 1.43522,-0.274159 1.70953,-0.404957 0.00157037,-0.00803207 0.00233625,-0.0123249 0.00233625,-0.0123249l-0.165822 -0.0357453c-1.02062,0.452081 -2.10987,0.452081 -3.1305,0l-0.165816 0.0357453z"/>
    <path id="_115088336" class="fil1" d="M6.95566 1.27356c0,0 -0.28044,0.179627 -0.800993,0.329933 0,0 0.469233,-0.0861517 0.830315,-0.205288l0.010999 -0.0751526 -0.0403213 -0.0494925z"/>
   </g>
   <path id="_115088240" class="fil9" d="M5.20674 1.97221c0.588259,-0.000753007 1.1762,-0.126698 1.65152,-0.377881 0.0531545,-0.157636 0.0742194,-0.278619 0.0742194,-0.278619l-0.165822 -0.0357453c-0.513422,0.227421 -1.04421,0.340385 -1.57489,0.338995l0.01497 0.35325z"/>
   <path id="_115088168" class="fil10" d="M5.19661 1.73317c0.00799346,-6.43595e-005 0.0159676,-7.07955e-005 0.0240061,-0.000180207 0.787877,-0.0110184 1.43522,-0.274159 1.70953,-0.404957 0.00157037,-0.00803207 0.00233625,-0.0123249 0.00233625,-0.0123249l-0.165822 -0.0357453c-0.513422,0.227421 -1.04421,0.340385 -1.57489,0.338995l0.00483984 0.114212z"/>
   <polygon id="_115088096" class="fil1" points="4.59752,1.52466 4.47289,1.66946 4.50588,1.94257 4.5517,1.9554 4.53704,1.69146 4.64518,1.53933 "/>
   <polygon id="_115088024" class="fil1" points="5.85301,1.50996 5.97765,1.65477 5.94466,1.92787 5.89884,1.9407 5.9135,1.67676 5.80536,1.52463 "/>
   <polygon id="_115087952" class="fil1" points="3.96883,1.34503 3.8002,1.47334 3.83319,1.74828 3.87901,1.76111 3.86435,1.49534 4.01649,1.3597 "/>
   <polygon id="_115087880" class="fil1" points="6.48171,1.33034 6.65034,1.45864 6.61735,1.73358 6.57152,1.74642 6.58618,1.48064 6.43405,1.345 "/>
   <rect id="_115087808" class="fil1" x="5.1665" y="1.57509" width="0.0630503" height="0.462721"/>
   <rect id="_115087736" class="fil1" x="5.17383" y="1.03071" width="0.0630503" height="0.343652"/>
   <polygon id="_115087664" class="fil1" points="5.94364,1.09842 6,1.09842 5.9169,1.19477 5.9169,1.41285 5.86053,1.41285 5.86053,1.19021 "/>
   <polygon id="_115087592" class="fil1" points="4.42502,1.09844 4.4823,1.09844 4.55536,1.19934 4.55536,1.41653 4.49808,1.41653 4.49899,1.20299 "/>
   <path id="_115087520" class="fil1" d="M2.93955 3.84723l0.77924 -0.0808613 -0.757184 0.227891c0,0 -0.0294059,-0.13968 -0.022056,-0.147029z"/>
   <path id="_115087448" class="fil3" d="M7.39663 4.01534c-0.0487266,-0.0183296 -0.092755,-0.0462681 -0.129755,-0.0815242 -0.0252547,0.0199772 -0.057177,0.0319352 -0.0918732,0.0319352 -0.0818139,0 -0.148162,-0.0663483 -0.148162,-0.148162 0,-0.0726169 0.0522793,-0.13305 0.121241,-0.145723 -0.000225258,-0.00534828 -0.000366849,-0.0106901 -0.000366849,-0.0160899 0,-0.204547 0.160024,-0.371779 0.361656,-0.383383l-0.112739 0.742947zm-0.229422 0.0868725c0.0236843,0 0.0428892,0.0192049 0.0428892,0.0428892 0,0.0236843 -0.0192049,0.0428892 -0.0428892,0.0428892 -0.0236843,0 -0.0428892,-0.0192049 -0.0428892,-0.0428892 0,-0.0236843 0.0192049,-0.0428892 0.0428892,-0.0428892zm-0.366502 -1.43092c0.0236843,0 0.0428828,0.0192049 0.0428828,0.0428892 0,0.0236843 -0.0191985,0.0428892 -0.0428828,0.0428892 -0.0236907,0 -0.0428892,-0.0192049 -0.0428892,-0.0428892 0,-0.0236843 0.0191985,-0.0428892 0.0428892,-0.0428892zm-0.0487459 0.869465c0.0463003,0 0.0838347,0.0375409 0.0838347,0.0838283 0,0.0462938 -0.0375345,0.0838283 -0.0838347,0.0838283 -0.0462874,0 -0.0838219,-0.0375345 -0.0838219,-0.0838283 0,-0.0462874 0.0375345,-0.0838283 0.0838219,-0.0838283zm0.409391 -0.432779c0.0398386,0 0.0721342,0.0322956 0.0721342,0.0721277 0,0.0398321 -0.0322956,0.0721342 -0.0721342,0.0721342 -0.0398257,0 -0.0721277,-0.0323021 -0.0721277,-0.0721342 0,-0.0398321 0.0323021,-0.0721277 0.0721277,-0.0721277z"/>
  </g>
 </g>
</svg>
