<?xml version="1.0" encoding="UTF-8"?>
<!DOCTYPE svg PUBLIC "-//W3C//DTD SVG 1.1//EN" "http://www.w3.org/Graphics/SVG/1.1/DTD/svg11.dtd">
<!-- Creator: CorelDRAW -->
<svg xmlns="http://www.w3.org/2000/svg" xml:space="preserve" width="129.436mm" height="197.988mm" style="shape-rendering:geometricPrecision; text-rendering:geometricPrecision; image-rendering:optimizeQuality; fill-rule:evenodd; clip-rule:evenodd"
viewBox="0 0 14.3004 21.8742"
 xmlns:xlink="http://www.w3.org/1999/xlink">
 <defs>
  <style type="text/css">
   <![CDATA[
    .fil0 {fill:none}
    .fil3 {fill:#4B3446}
    .fil1 {fill:#501D33}
    .fil2 {fill:#634C54}
   ]]>
  </style>
 </defs>
 <g id="Layer_x0020_1">
  <metadata id="CorelCorpID_0Corel-Layer"/>
  <g id="_233894952">
   <rect id="_288795808" class="fil0" width="14.3004" height="21.8742"/>
   <g>
    <path id="_284244120" class="fil1" d="M7.54409 6.28087c-0.273223,1.04331 0.36836,1.4537 1.10897,1.55836 0.47513,0.0671292 1.17726,-0.127254 1.26926,0.52003 0.523057,-1.73633 -1.56106,-1.31866 -2.37822,-2.07839z"/>
    <path id="_167453056" class="fil2" d="M7.6641 6.58872c0,0 -0.109367,0.698117 0.692637,0.913458 0.802014,0.215341 1.11784,-0.0059992 1.47567,0.344076 -0.0389119,-0.996165 -1.59204,-0.719606 -2.16831,-1.25753z"/>
    <path id="_171452840" class="fil3" d="M7.66091 6.72862c0.0139539,0.215231 0.0117443,0.682042 0.700757,0.867022 0.689002,0.184992 1.11784,-0.0502695 1.47074,0.250607 -0.00133684,-0.0342717 -0.00466236,-0.0669082 -0.0094794,-0.0982521 -0.104119,-0.131883 -0.388943,-0.380734 -1.0852,-0.45753 -0.84919,-0.093656 -1.03651,-0.599423 -1.03651,-0.599423 -0.0143075,0.0123851 -0.0275433,0.0249248 -0.040304,0.0375751z"/>
    <path id="_167460784" class="fil1" d="M9.8144 7.91407c0,0 -0.100097,-0.308301 -0.603897,-0.545728 0,0 0.433511,0.0567769 0.679302,0.375707l-0.00489437 0.160166c0,0 -0.0653172,0.0145064 -0.0705099,0.00985504z"/>
    <path id="_167460712" class="fil1" d="M7.5947 6.58883c0,0 0.0140313,0.517412 0.906498,0.679876 0,0 -0.595898,-0.136556 -0.764373,-0.71544l-0.0899327 -0.0374315 -0.0521919 0.0729958z"/>
    <path id="_167460640" class="fil1" d="M6.69093 6.8984c0.263854,1.35481 -0.78879,1.52511 -1.71312,1.42687 -0.472843,-0.0502474 -0.739548,0.129055 -0.813902,0.467805 -0.391716,-1.77058 1.65531,-1.1982 2.52702,-1.89468z"/>
    <path id="_167460856" class="fil2" d="M6.54823 7.19641c0,0 0.0568322,0.704348 -0.759037,0.85909 -0.815869,0.154753 -1.11426,-0.0895902 -1.49726,0.232731 0.113311,-0.990453 1.64141,-0.598506 2.2563,-1.09182z"/>
    <path id="_222564224" class="fil3" d="M6.54905 7.22159c0.000872812,0.126922 0.0296314,0.751866 -0.740166,0.89788 -0.769798,0.146003 -1.13395,-0.153571 -1.51695,0.168773 0.0031377,-0.027488 0.00756805,-0.0537497 0.0128381,-0.0791386 0.153383,-0.130016 0.307738,-0.233538 0.399317,-0.287995 0.23103,-0.137363 0.574454,-0.0561914 1.11769,-0.149858 0.514683,-0.0887285 0.620193,-0.468888 0.629861,-0.508606 0.00563461,-0.00332552 0.0111477,-0.00676153 0.0166829,-0.0101865 0.0277642,-0.0119984 0.0546999,-0.0223617 0.0807296,-0.0308688z"/>
    <path id="_222564176" class="fil1" d="M4.30482 8.35722c0,0 0.122879,-0.299949 0.643019,-0.499038 0,0 -0.436549,0.0241957 -0.705497,0.323846l-0.00710402 0.160089c0,0 0.0640577,0.0193455 0.0695819,0.015103z"/>
    <path id="_222563888" class="fil1" d="M6.61743 7.20171c0,0 -0.0527001,0.514915 -0.954812,0.610173 0,0 0.604439,-0.091601 0.815747,-0.656266l0.0924738 -0.0306036 0.0465905 0.0766969z"/>
   </g>
  </g>
 </g>
</svg>
