<?xml version="1.0" encoding="UTF-8"?>
<!DOCTYPE svg PUBLIC "-//W3C//DTD SVG 1.1//EN" "http://www.w3.org/Graphics/SVG/1.1/DTD/svg11.dtd">
<!-- Creator: CorelDRAW -->
<svg xmlns="http://www.w3.org/2000/svg" xml:space="preserve" width="129.436mm" height="197.989mm" style="shape-rendering:geometricPrecision; text-rendering:geometricPrecision; image-rendering:optimizeQuality; fill-rule:evenodd; clip-rule:evenodd"
viewBox="0 0 48.0356 73.4763"
 xmlns:xlink="http://www.w3.org/1999/xlink">
 <defs>
  <style type="text/css">
   <![CDATA[
    .fil0 {fill:none}
    .fil3 {fill:#4B3446}
    .fil1 {fill:#501D33}
    .fil2 {fill:#634C54}
    .fil4 {fill:#896E6B}
   ]]>
  </style>
 </defs>
 <g id="Layer_x0020_1">
  <metadata id="CorelCorpID_0Corel-Layer"/>
  <g id="_224429224">
   <rect id="_170795096" class="fil0" width="48.0356" height="73.4763"/>
   <g id="_162807552">
    <g>
     <path id="_162927040" class="fil1" d="M24.7972 26.4647c0.642249,1.08031 1.28457,2.1607 1.92682,3.24101 0.333928,0.561643 0.537298,0.328324 1.08491,0.115899 1.79482,-0.696617 4.11814,-1.16589 6.08916,-1.12607 0,0 0.0690271,-0.0132859 0.1408,-0.160061 0.059972,-0.122653 0.233319,-2.69929 0.273548,-3.57293 0.0152157,-0.330996 0.0138796,-0.462333 -0.300825,-0.608478 -1.13858,-0.528874 -4.98305,-2.20074 -9.11704,1.497 -0.250131,0.22367 -0.238032,0.376977 -0.0973431,0.613636l-3.71114e-005 0z"/>
     <path id="_162927112" class="fil2" d="M27.7159 29.2752c1.78342,-0.682292 3.68583,-1.0196 5.68791,-1.06903l0.313665 -3.30837c0,0 -3.9469,-2.26335 -8.19411,1.3117 0.542308,0.961555 1.08473,1.92307 1.62711,2.88467 0.171046,0.303274 0.252135,0.300825 0.565466,0.181029l-3.71114e-005 0z"/>
     <polygon id="_162927568" class="fil3" points="31.9112,27.4425 32.2345,25.0732 32.812,27.6227 "/>
     <path id="_162806304" class="fil4" d="M32.8716 24.5444c-1.38448,-0.455505 -4.28829,-0.910564 -7.34835,1.66511l1.54617 2.74079c0.0934835,-0.292326 0.224412,-0.0746309 0.213836,-0.382989l-0.829216 -2.34948c0,0 2.46468,-2.21863 6.41752,-1.67343l3.71114e-005 0z"/>
     <path id="_162935680" class="fil3" d="M27.716 29.2752c1.78335,-0.682292 3.68583,-1.01967 5.68791,-1.06907l0.0962669 -1.01555c-2.59754,-0.333112 -5.52959,0.96779 -6.58174,1.49191l0.232057 0.411602c0.171083,0.303311 0.252209,0.300862 0.56554,0.181103l-3.71114e-005 0z"/>
     <polygon id="_335476640" class="fil1" points="27.3156,24.8307 28.2835,26.3408 28.0035,24.4042 "/>
     <polygon id="_163726560" class="fil4" points="28.5106,24.797 29.2934,26.8012 29.2129,24.67 "/>
     <polygon id="_162935896" class="fil1" points="30.8975,23.852 31.2081,25.4238 31.5345,24.0335 "/>
    </g>
    <g>
     <path id="_162927712" class="fil1" d="M23.1955 26.4647c-0.642249,1.08027 -1.3264,2.24427 -1.96861,3.32455 -0.333891,0.561643 -0.537335,0.328287 -1.08495,0.115862 -1.79482,-0.696617 -4.07631,-1.24939 -6.0473,-1.20957 0,0 -0.0690271,-0.0132859 -0.1408,-0.160061 -0.059972,-0.122653 -0.233319,-2.69929 -0.273548,-3.57293 -0.0152157,-0.330996 -0.0138796,-0.462333 0.300825,-0.608478 1.13858,-0.528874 4.98305,-2.20074 9.11704,1.497 0.250131,0.22367 0.237995,0.37694 0.0973431,0.613636z"/>
     <path id="_162927544" class="fil2" d="M20.2767 29.2752c-1.78342,-0.682292 -3.68583,-1.0196 -5.68791,-1.06903l-0.313665 -3.30837c0,0 3.9469,-2.26335 8.19411,1.3117 -0.542308,0.961555 -1.08473,1.92307 -1.62711,2.88467 -0.171046,0.303274 -0.252135,0.300825 -0.565466,0.181029l3.71114e-005 0z"/>
     <polygon id="_162935824" class="fil3" points="16.0815,27.4425 15.7581,25.0732 15.1806,27.6227 "/>
     <path id="_162926968" class="fil4" d="M15.121 24.5444c1.38448,-0.455505 4.28829,-0.910564 7.34835,1.66511l-1.54617 2.74079c-0.0934835,-0.292326 -0.537781,0.0925557 -0.527204,-0.215803l1.41424 -2.45395c0,0 -2.73633,-2.28135 -6.68921,-1.73614z"/>
     <path id="_162935752" class="fil3" d="M20.2766 29.2752c-1.78335,-0.682292 -3.68583,-1.01967 -5.68791,-1.06907l-0.0962669 -1.01555c2.59754,-0.333112 5.52959,0.96779 6.58174,1.49191l-0.232057 0.411602c-0.171083,0.303311 -0.252209,0.300862 -0.56554,0.181103l3.71114e-005 0z"/>
     <polygon id="_101959640" class="fil1" points="20.6771,24.8307 19.7091,26.3408 19.9891,24.4042 "/>
     <polygon id="_162927928" class="fil4" points="19.482,24.797 19.0962,26.0908 18.7797,24.67 "/>
     <polygon id="_162936112" class="fil1" points="17.0951,23.852 16.7845,25.4238 16.4581,24.0335 "/>
    </g>
   </g>
  </g>
 </g>
</svg>
