<?xml version="1.0" encoding="UTF-8"?>
<!DOCTYPE svg PUBLIC "-//W3C//DTD SVG 1.1//EN" "http://www.w3.org/Graphics/SVG/1.1/DTD/svg11.dtd">
<!-- Creator: CorelDRAW -->
<svg xmlns="http://www.w3.org/2000/svg" xml:space="preserve" width="129.436mm" height="197.989mm" style="shape-rendering:geometricPrecision; text-rendering:geometricPrecision; image-rendering:optimizeQuality; fill-rule:evenodd; clip-rule:evenodd"
viewBox="0 0 11.8513 18.128"
 xmlns:xlink="http://www.w3.org/1999/xlink">
 <defs>
  <style type="text/css">
   <![CDATA[
    .fil0 {fill:none}
    .fil3 {fill:#4B3446}
    .fil1 {fill:#501D33}
    .fil2 {fill:#634C54}
    .fil4 {fill:#896E6B}
   ]]>
  </style>
 </defs>
 <g id="Layer_x0020_1">
  <metadata id="CorelCorpID_0Corel-Layer"/>
  <g id="_254778096">
   <rect id="_254792424" class="fil0" width="11.8513" height="18.128"/>
   <g id="_161805648">
    <path id="_161805192" class="fil1" d="M6.38591 6.07646c0,0 1.5001,-0.540072 1.56745,-0.525761 0.053673,0.0113993 0.655558,0.898387 0.868886,1.25349 0.111915,0.186336 -0.0170029,0.12163 -0.0987668,0.089391l-0.742495 -0.296703 -1.23968 0.138056c0,0 -0.103125,-0.133578 -0.355403,-0.65847l9.1561e-006 0zm-0.920508 9.1561e-006c0,0 -1.5001,-0.540072 -1.56745,-0.525761 -0.053673,0.0113993 -0.655558,0.898387 -0.868886,1.25349 -0.111915,0.186336 0.0170029,0.12163 0.0987668,0.089391l0.742495 -0.296703 1.23968 0.138056c0,0 0.103125,-0.133578 0.355403,-0.65847l-9.1561e-006 0z"/>
    <path id="_161805120" class="fil2" d="M6.84792 6.58373c0,0 -0.11154,-0.159609 -0.223006,-0.423744l1.26599 -0.417527 0.752622 0.996247 -0.564089 -0.280149 -1.2315 0.125173 -9.1561e-006 0zm-1.84451 9.1561e-006c0,0 0.11154,-0.1596 0.223006,-0.423735l-1.26599 -0.417527 -0.752622 0.996238 0.564089 -0.280149 1.2315 0.125173 9.1561e-006 0z"/>
    <path id="_161805048" class="fil3" d="M7.89094 5.7425l0.752576 0.996202 -0.58437 -0.279032 -0.168564 -0.716968 0.000357088 -0.000201434zm-3.93057 1.83122e-005l-0.752576 0.996192 0.58437 -0.279032 0.168564 -0.716968 -0.000357088 -0.000192278z"/>
    <path id="_161804952" class="fil4" d="M6.84706 6.58373c-0.0276148,-0.0417518 -0.128533,-0.201919 -0.222145,-0.423744l1.26599 -0.417527 -1.00499 0.453529 -0.0388493 0.387742zm-1.8428 9.1561e-006c0.0276148,-0.0417518 0.128533,-0.201919 0.222145,-0.423735l-1.26599 -0.417527 1.00499 0.45352 0.0388493 0.387742z"/>
    <polygon id="_161804880" class="fil1" points="8.00422,6.54921 7.99102,6.16307 8.15958,6.54388 "/>
    <polygon id="_161804808" class="fil1" points="3.8471,6.54922 3.8603,6.16309 3.69174,6.54389 "/>
   </g>
  </g>
 </g>
</svg>
