<?xml version="1.0" encoding="UTF-8"?>
<!DOCTYPE svg PUBLIC "-//W3C//DTD SVG 1.1//EN" "http://www.w3.org/Graphics/SVG/1.1/DTD/svg11.dtd">
<!-- Creator: CorelDRAW -->
<svg xmlns="http://www.w3.org/2000/svg" xml:space="preserve" width="129.436mm" height="197.989mm" style="shape-rendering:geometricPrecision; text-rendering:geometricPrecision; image-rendering:optimizeQuality; fill-rule:evenodd; clip-rule:evenodd"
viewBox="0 0 8.24699 12.6148"
 xmlns:xlink="http://www.w3.org/1999/xlink">
 <defs>
  <style type="text/css">
   <![CDATA[
    .fil0 {fill:none}
    .fil3 {fill:#4B3446}
    .fil1 {fill:#501D33}
    .fil2 {fill:#634C54}
    .fil4 {fill:#896E6B}
   ]]>
  </style>
 </defs>
 <g id="Layer_x0020_1">
  <metadata id="CorelCorpID_0Corel-Layer"/>
  <g id="_254770584">
   <rect id="_224425888" class="fil0" width="8.24699" height="12.6148"/>
   <g id="_102349488">
    <path id="_162114944" class="fil1" d="M2.94073 4.87313c-0.112692,-0.00523734 -0.468704,-0.0133801 -0.6567,0.0796624 0,0 0.0470405,-0.0588787 0.131959,-0.115323 -0.100472,0.00748009 -0.201618,0.0232813 -0.302211,0.0481873 0.0273336,-0.115699 0.21066,-0.262721 0.21066,-0.262721 -0.0981523,-0.00551768 -0.174374,0.0373495 -0.174374,0.0373495 0.00608474,-0.216324 0.204091,-0.412214 0.428264,-0.451959 -0.051647,-0.0068748 -0.110755,-0.00802804 -0.176636,0.00110226 0,0 0.151539,-0.0939281 0.335202,-0.0680599 -0.0291176,-0.0298503 -0.0518127,-0.0439503 -0.0518127,-0.0439503 0,0 0.423708,-0.204626 0.71856,0.0566104 -0.0187066,-0.12813 -0.0650845,-0.206066 -0.0650845,-0.206066 0.175381,0.146059 0.230883,0.388149 0.246435,0.48295 0.0897165,0.256521 -0.0155655,0.473845 -0.0662887,0.561733 -0.0311055,0.0538834 -0.0779739,0.0668748 -0.126894,0.0413699 -0.137897,-0.0718637 -0.290303,-0.126658 -0.45108,-0.160886zm1.78756 0.119516c-0.0507296,-0.0878943 -0.156069,-0.30525 -0.0663078,-0.56181 0.0155655,-0.0948519 0.0711182,-0.336853 0.246454,-0.482874 0,0 -0.0464033,0.0779357 -0.0651099,0.206059 0.294852,-0.261223 0.718586,-0.056604 0.718586,-0.056604 0,0 -0.0226951,0.0141 -0.0518127,0.0439503 0.183664,-0.0258681 0.335202,0.0680599 0.335202,0.0680599 -0.0658809,-0.0091303 -0.124989,-0.00797707 -0.176636,-0.00110226 0.224173,0.0397452 0.422179,0.235636 0.428264,0.451959 0,0 -0.0762218,-0.0428672 -0.174374,-0.0373495 0,0 0.183326,0.147021 0.21066,0.262721 -0.100593,-0.024906 -0.20174,-0.0407009 -0.302211,-0.0481873 0.0849188,0.0564448 0.131959,0.115323 0.131959,0.115323 -0.18799,-0.093036 -0.544008,-0.0849188 -0.6567,-0.0796815 -0.160784,0.0342275 -0.313183,0.0890411 -0.45108,0.160905 -0.0489201,0.025505 -0.0957885,0.0125135 -0.126894,-0.0413699z"/>
    <path id="_164954584" class="fil2" d="M4.81231 4.93051c0,0 0.497394,-0.269424 1.11703,-0.19287 0,0 -0.100548,-0.135757 -0.372947,-0.191271 0,0 0.2131,-0.0596815 0.44827,0.019777 0,0 -0.167251,-0.416171 -0.733221,-0.240758 0,0 0.0452565,-0.113737 0.124976,-0.185072 0,0 -0.340739,-0.102593 -0.566601,0.176955 -0.225862,0.279554 -0.0175088,0.61324 -0.0175088,0.61324l6.37146e-006 0zm-1.37761 0c0,0 -0.497394,-0.269424 -1.11703,-0.19287 0,0 0.100548,-0.135757 0.372947,-0.191271 0,0 -0.2131,-0.0596815 -0.44827,0.019777 0,0 0.167251,-0.416171 0.733221,-0.240758 0,0 -0.0452565,-0.113737 -0.124976,-0.185072 0,0 0.340739,-0.102593 0.566601,0.176955 0.225862,0.279554 0.0175088,0.61324 0.0175088,0.61324l-6.37146e-006 0z"/>
    <path id="_162115232" class="fil3" d="M3.43469 4.9305c0,0 -0.525333,-0.247283 -1.12062,-0.191297 0.449239,-0.47454 1.07364,-0.0248359 1.1232,0.186964 -0.00165021,0.00282893 -0.00258681,0.00433259 -0.00258681,0.00433259l6.37146e-006 0zm1.3776 0c0,0 0.525333,-0.247283 1.12062,-0.191297 -0.449239,-0.47454 -1.07364,-0.0248359 -1.1232,0.186964 0.00165021,0.00282893 0.00258681,0.00433259 0.00258681,0.00433259l-6.37146e-006 0z"/>
    <path id="_163719048" class="fil4" d="M6.00228 4.56537l0.00237655 0.000777318c0,0 -0.167251,-0.416171 -0.733221,-0.240758l5.73431e-005 -0.000159286 -0.00385473 0.00161835c0.464549,-0.061937 0.715751,0.216693 0.734642,0.238522zm-0.626385 -0.430105c-0.0767952,-0.0167697 -0.353272,-0.0566295 -0.546085,0.182013 -0.149028,0.184454 -0.109003,0.392469 -0.0645365,0.512654l0.00280981 -0.000407773 3.82288e-005 0.000426888 0.000133801 -0.000452374c0.00131889,-0.000165658 0.0026123,-0.000318573 0.00398853,-0.000541574 0,0 -0.000178401,-0.00383562 -0.000229373,-0.0108888 0.020172,-0.0577509 0.124581,-0.312361 0.43296,-0.435712 0,0 -0.198809,0.0100478 -0.376553,0.148977 0.0682383,-0.167837 0.218318,-0.352507 0.547474,-0.396069zm-2.50479 0c0.0767952,-0.0167697 0.353272,-0.0566295 0.546085,0.182013 0.149028,0.184454 0.109003,0.392469 0.0645365,0.512654l-0.00280981 -0.000414145 -3.82288e-005 0.000433259 -0.000121058 -0.000452374c-0.00131252,-0.000172029 -0.00263141,-0.000318573 -0.00400128,-0.000541574 0,0 0.000203887,-0.00382925 0.000254858,-0.0108761 -0.0201593,-0.057719 -0.124575,-0.312361 -0.432985,-0.435725 0,0 0.198834,0.0100478 0.376579,0.148977 -0.0682447,-0.167837 -0.218344,-0.352507 -0.547499,-0.396069zm-0.626385 0.430105l-0.00237655 0.000777318c0,0 0.167251,-0.416171 0.733221,-0.240758l-5.73431e-005 -0.000159286 0.00385473 0.00161835c-0.464549,-0.061937 -0.715751,0.216693 -0.734642,0.238522z"/>
    <path id="_164952592" class="fil1" d="M4.83318 4.9645c0,0 0.0938898,-0.228595 0.375763,-0.381058 0,0 -0.30165,0.0020771 -0.44462,0.263345l0.0283148 0.124696 0.0405416 -0.00698312z"/>
    <path id="_165298944" class="fil1" d="M3.41381 4.9645c0,0 -0.0938898,-0.228595 -0.375763,-0.381058 0,0 0.30165,0.0020771 0.44462,0.263345l-0.0283148 0.124696 -0.0405416 -0.00698312z"/>
   </g>
  </g>
 </g>
</svg>
