<?xml version="1.0" encoding="UTF-8"?>
<!DOCTYPE svg PUBLIC "-//W3C//DTD SVG 1.1//EN" "http://www.w3.org/Graphics/SVG/1.1/DTD/svg11.dtd">
<!-- Creator: CorelDRAW -->
<svg xmlns="http://www.w3.org/2000/svg" xml:space="preserve" width="129.436mm" height="197.989mm" style="shape-rendering:geometricPrecision; text-rendering:geometricPrecision; image-rendering:optimizeQuality; fill-rule:evenodd; clip-rule:evenodd"
viewBox="0 0 11.4179 17.4651"
 xmlns:xlink="http://www.w3.org/1999/xlink">
 <defs>
  <style type="text/css">
   <![CDATA[
    .fil0 {fill:none}
    .fil4 {fill:#4B3446}
    .fil1 {fill:#501D33}
    .fil3 {fill:#634C54}
    .fil2 {fill:#896E6B}
   ]]>
  </style>
 </defs>
 <g id="Layer_x0020_1">
  <metadata id="CorelCorpID_0Corel-Layer"/>
  <g id="_170798984">
   <rect id="_282536232" class="fil0" width="11.4179" height="17.4651"/>
   <g>
    <path id="_287005472" class="fil1" d="M6.29059 5.7625c0,0 -0.116679,0.444768 0.265396,0.782322l-0.182247 0.167066c0,0 -0.456509,-0.380734 -0.0831492,-0.949388z"/>
    <path id="_283266584" class="fil1" d="M6.92027 5.73852c-0.00712758,-0.235536 -0.150226,-0.197887 -0.300223,-0.0881597 -0.263032,0.192401 -0.349145,0.507522 -0.340651,0.824214 0,0 0.00988863,0.368349 0.339301,0.375318 0.329412,0.00697762 1.79837,-0.442351 1.98313,-0.617929 0.184761,-0.175587 -0.244605,-0.272815 -0.244605,-0.272815 0,0 0.191404,-0.281045 -0.366488,-0.169721 0.0438064,-0.0815702 0.1044,-0.371596 -0.465877,-0.0855927 0.013673,-0.020183 0.1133,-0.563776 -0.604592,0.0346852z"/>
    <path id="_283268576" class="fil2" d="M6.46673 6.50682c0.0365465,0.136677 0.111598,0.196344 0.24629,0.182097 0.252844,-0.0267461 0.515823,-0.102838 0.774445,-0.176787 0.562673,-0.160882 1.04326,-0.289964 0.91862,-0.398368 -0.0370581,-0.0322417 -0.120075,-0.063469 -0.32262,-0.0812967 0,0 0.178507,-0.0480582 0.115497,-0.113794 -0.0630014,-0.065736 -0.425167,0.0691499 -0.425167,0.0691499 0,0 0.171344,-0.210387 0.0754747,-0.244622 -0.0958783,-0.0342265 -0.415031,0.127873 -0.534304,0.216059 0,0 0.134401,-0.283418 0.047229,-0.302155 -0.0871717,-0.0187275 -0.412967,0.207044 -0.554372,0.394504 0.0251494,-0.1478 -0.0136465,-0.327772 -0.123286,-0.237133 -0.183606,0.151779 -0.278761,0.464404 -0.217806,0.692345z"/>
    <path id="_280227344" class="fil3" d="M6.46673 6.50682c0.0365465,0.136677 0.111598,0.196344 0.24629,0.182097 0.252844,-0.0267461 0.515823,-0.102838 0.774445,-0.176787 0.562673,-0.160882 1.04326,-0.289964 0.91862,-0.398368 -0.0370581,-0.0322417 -0.120075,-0.063469 -0.32262,-0.0812967 0.178013,-0.107469 -0.149097,-0.113336 -0.30967,-0.0446444 0.180483,-0.310932 -0.368905,-0.0950403 -0.458829,-0.0285632 0.0896858,-0.402849 -0.42372,-0.0182512 -0.507143,0.0923498 -0.0511898,-0.250303 -0.263579,-0.0885037 -0.312087,0.0454207 -0.0489756,0.135151 -0.0623398,0.285138 -0.0290043,0.409792z"/>
    <path id="_287727400" class="fil4" d="M6.46673 6.50682c0.0365465,0.136677 0.111598,0.196344 0.24629,0.182097 0.252844,-0.0267461 0.515823,-0.102838 0.774445,-0.176787 0.562673,-0.160882 1.04326,-0.289964 0.91862,-0.398368 -0.0134083,-0.0116617 -0.0328504,-0.0231735 -0.0617665,-0.0339795 -0.150208,0.0655243 -1.61308,0.683762 -1.84947,0.0197861 -0.0482258,0.134498 -0.0612372,0.283374 -0.0281134,0.407251z"/>
   </g>
   <g>
    <path id="_254785008" class="fil1" d="M5.0934 5.74268c0,0 0.116679,0.444768 -0.265396,0.782322l0.182247 0.167066c0,0 0.456509,-0.380734 0.0831492,-0.949388z"/>
    <path id="_284268504" class="fil1" d="M4.46373 5.71871c0.00712758,-0.235536 0.150226,-0.197887 0.300223,-0.0881597 0.263032,0.192401 0.349145,0.507522 0.340651,0.824214 0,0 -0.00988863,0.368349 -0.339301,0.375318 -0.329412,0.00697762 -1.79837,-0.442351 -1.98313,-0.617929 -0.184761,-0.175587 0.244605,-0.272815 0.244605,-0.272815 0,0 -0.191404,-0.281045 0.366488,-0.169721 -0.0438064,-0.0815702 -0.1044,-0.371596 0.465877,-0.0855927 -0.013673,-0.020183 -0.1133,-0.563776 0.604592,0.0346852z"/>
    <path id="_284267328" class="fil2" d="M4.91726 6.487c-0.0365465,0.136677 -0.111598,0.196344 -0.24629,0.182097 -0.252844,-0.0267461 -0.515823,-0.102838 -0.774445,-0.176787 -0.562673,-0.160882 -1.04326,-0.289964 -0.91862,-0.398368 0.0370581,-0.0322417 0.120075,-0.063469 0.32262,-0.0812967 0,0 -0.178507,-0.0480582 -0.115497,-0.113794 0.0630014,-0.065736 0.425167,0.0691499 0.425167,0.0691499 0,0 -0.171344,-0.210387 -0.0754747,-0.244622 0.0958783,-0.0342265 0.415031,0.127873 0.534304,0.216059 0,0 -0.134401,-0.283418 -0.047229,-0.302155 0.0871717,-0.0187275 0.412967,0.207044 0.554372,0.394504 -0.0251494,-0.1478 0.0136465,-0.327772 0.123286,-0.237133 0.183606,0.151779 0.278761,0.464404 0.217806,0.692345z"/>
    <path id="_284268288" class="fil3" d="M4.91726 6.487c-0.0365465,0.136677 -0.111598,0.196344 -0.24629,0.182097 -0.252844,-0.0267461 -0.515823,-0.102838 -0.774445,-0.176787 -0.562673,-0.160882 -1.04326,-0.289964 -0.91862,-0.398368 0.0370581,-0.0322417 0.120075,-0.063469 0.32262,-0.0812967 -0.178013,-0.107469 0.149097,-0.113336 0.30967,-0.0446444 -0.180483,-0.310932 0.368905,-0.0950403 0.458829,-0.0285632 -0.0896858,-0.402849 0.42372,-0.0182512 0.507143,0.0923498 0.0511898,-0.250303 0.263579,-0.0885037 0.312087,0.0454207 0.0489756,0.135151 0.0623398,0.285138 0.0290043,0.409792z"/>
    <path id="_222586568" class="fil4" d="M4.91726 6.487c-0.0365465,0.136677 -0.111598,0.196344 -0.24629,0.182097 -0.252844,-0.0267461 -0.515823,-0.102838 -0.774445,-0.176787 -0.562673,-0.160882 -1.04326,-0.289964 -0.91862,-0.398368 0.0134083,-0.0116617 0.0328504,-0.0231735 0.0617665,-0.0339795 0.150208,0.0655243 1.61308,0.683762 1.84947,0.0197861 0.0482258,0.134498 0.0612372,0.283374 0.0281134,0.407251z"/>
   </g>
  </g>
 </g>
</svg>
