<?xml version="1.0" encoding="UTF-8"?>
<!DOCTYPE svg PUBLIC "-//W3C//DTD SVG 1.1//EN" "http://www.w3.org/Graphics/SVG/1.1/DTD/svg11.dtd">
<!-- Creator: CorelDRAW -->
<svg xmlns="http://www.w3.org/2000/svg" xml:space="preserve" width="129.436mm" height="197.989mm" style="shape-rendering:geometricPrecision; text-rendering:geometricPrecision; image-rendering:optimizeQuality; fill-rule:evenodd; clip-rule:evenodd"
viewBox="0 0 202.575 309.864"
 xmlns:xlink="http://www.w3.org/1999/xlink">
 <defs>
  <style type="text/css">
   <![CDATA[
    .fil0 {fill:none}
    .fil3 {fill:#4B3446}
    .fil1 {fill:#501D33}
    .fil2 {fill:#634C54}
    .fil4 {fill:#896E6B}
   ]]>
  </style>
 </defs>
 <g id="Layer_x0020_1">
  <metadata id="CorelCorpID_0Corel-Layer"/>
  <g id="_170914024">
   <rect id="_254778480" class="fil0" width="202.575" height="309.864"/>
   <g id="_161954424">
    <g>
     <path id="_163468056" class="fil1" d="M111.456 101.583c-2.46152,-3.5159 0.0931208,-9.64106 6.02907,-8.67401 5.86661,-3.82218 12.5995,0.535093 13.7791,3.70386 0,0 7.82074,-1.03748 9.25167,7.76252 3.41057,1.73627 3.24186,6.42377 1.07206,8.24878 -2.80192,2.35666 -8.33878,2.18451 -11.3852,-0.0863911 0,0 -4.38857,1.21245 -7.42275,-1.26863 -7.90713,3.13762 -16.2154,-1.07457 -11.324,-9.68613z"/>
     <path id="_163468128" class="fil2" d="M115.919 103.501c0,0 -4.48013,-3.02118 -2.20892,-6.8213 2.27121,-3.80011 6.21906,0.406445 6.21906,0.406445l-1.04624 -2.47201c7.48316,-2.81851 11.6226,3.29476 11.1271,6.14566 0,0 1.03122,-1.12136 1.2245,-2.10625 0,0 6.32079,-1.30964 7.58583,7.52056 0,0 0.518973,-0.440094 0.750288,-0.797866 4.94198,5.54437 -4.42848,8.78732 -9.28063,5.04871 0,0 -4.89205,1.57147 -7.11287,-1.38648 -2.78924,1.65364 -6.99768,1.78949 -9.24619,0.262147 -1.74864,-1.18772 -2.19687,-3.56379 -0.608963,-5.83813 0,0 1.52875,0.866102 3.34014,0.493462l-0.51866 -0.272476 -0.224429 -0.182486z"/>
     <path id="_163468200" class="fil3" d="M139.728 106.247c2.20579,4.37371 -4.68656,7.22446 -9.4495,3.55456 0,0 -4.86498,1.59808 -7.08579,-1.35988 -4.03143,2.39015 -12.1284,1.10962 -9.87112,-4.9797 0,0 1.34548,0.762026 3.00772,0.548709 1.25643,0.456683 3.92939,1.07316 7.43496,-0.101103 0,0 0.998819,4.24146 7.04573,2.76921 3.05092,3.24624 8.75665,3.32919 8.918,-0.431799z"/>
     <ellipse id="_163468272" class="fil4" transform="matrix(1.25793 0.257453 -0.0317181 1.18335 123.928 96.2488)" rx="2.95796" ry="1.41325"/>
     <ellipse id="_162935608" class="fil4" transform="matrix(0.161747 1.02286 -1.20523 0.363968 115.533 99.0286)" rx="2.95796" ry="1.41325"/>
    </g>
    <g>
     <path id="_162927472" class="fil1" d="M90.0885 105.113c2.46152,-3.51606 -0.0931208,-9.64106 -6.02907,-8.67401 -5.86661,-3.82218 -12.5995,0.535093 -13.7791,3.70386 0,0 -7.82074,-1.03748 -9.25167,7.76252 -3.41057,1.73627 -3.24186,6.42377 -1.07206,8.24878 2.80192,2.35666 8.33878,2.18451 11.3852,-0.0863911 0,0 4.38857,1.21245 7.42275,-1.26863 7.90713,3.13762 16.2154,-1.07457 11.324,-9.68613z"/>
     <path id="_162927400" class="fil2" d="M85.6255 107.031c0,0 4.48013,-3.02134 2.20892,-6.8213 -2.27121,-3.80011 -6.21906,0.406445 -6.21906,0.406445l1.04624 -2.47201c-7.48316,-2.81851 -11.6226,3.2946 -11.1271,6.14551 0,0 -1.03122,-1.12136 -1.2245,-2.10625 0,0 -6.32079,-1.30948 -7.58583,7.52072 0,0 -0.518973,-0.440094 -0.750288,-0.797866 -4.94198,5.54437 4.42848,8.78732 9.28063,5.04871 0,0 4.89205,1.57147 7.11287,-1.38648 2.78924,1.65364 6.99768,1.78949 9.24619,0.262147 1.74864,-1.18772 2.19687,-3.56379 0.608963,-5.83813 0,0 -1.52875,0.866102 -3.34014,0.493462l0.51866 -0.272476 0.224429 -0.182486z"/>
     <path id="_162927328" class="fil3" d="M61.8164 109.778c-2.20579,4.37371 4.68656,7.22446 9.4495,3.55456 0,0 4.86498,1.59808 7.08579,-1.35988 4.03143,2.39015 12.1284,1.10962 9.87112,-4.9797 0,0 -1.34548,0.762026 -3.00772,0.548709 -1.25643,0.456683 -3.92939,1.07316 -7.43496,-0.101103 0,0 -0.998819,4.24146 -7.04573,2.76921 -3.05092,3.24624 -8.75665,3.32919 -8.918,-0.431799z"/>
     <ellipse id="_162927256" class="fil4" transform="matrix(-1.25793 0.257453 0.0317181 1.18335 77.6168 99.7791)" rx="2.95796" ry="1.41325"/>
     <ellipse id="_162927184" class="fil4" transform="matrix(-0.794621 0.664059 0.668417 1.0669 66.8478 105.467)" rx="2.95796" ry="1.41325"/>
    </g>
   </g>
  </g>
 </g>
</svg>
