<?xml version="1.0" encoding="UTF-8"?>
<!DOCTYPE svg PUBLIC "-//W3C//DTD SVG 1.1//EN" "http://www.w3.org/Graphics/SVG/1.1/DTD/svg11.dtd">
<!-- Creator: CorelDRAW -->
<svg xmlns="http://www.w3.org/2000/svg" xml:space="preserve" width="129.436mm" height="197.989mm" style="shape-rendering:geometricPrecision; text-rendering:geometricPrecision; image-rendering:optimizeQuality; fill-rule:evenodd; clip-rule:evenodd"
viewBox="0 0 7.23533 11.0673"
 xmlns:xlink="http://www.w3.org/1999/xlink">
 <defs>
  <style type="text/css">
   <![CDATA[
    .fil0 {fill:none}
    .fil3 {fill:#4B3446}
    .fil1 {fill:#501D33}
    .fil2 {fill:#634C54}
    .fil4 {fill:#896E6B}
   ]]>
  </style>
 </defs>
 <g id="Layer_x0020_1">
  <metadata id="CorelCorpID_0Corel-Layer"/>
  <g id="_254785824">
   <rect id="_254786688" class="fil0" width="7.23533" height="11.0673"/>
   <g id="_102487528">
    <g>
     <path id="_166353240" class="fil1" d="M3.97424 3.5415c-0.078342,0.971413 1.44274,1.02939 1.48933,0.211605 0,0 -0.20905,0.0452165 -0.43312,0.0124039 0,0 0.0539926,-0.0572291 0.0784874,-0.153442 -0.105682,-0.00455574 -0.243802,-0.0228234 -0.399955,-0.0501244 0.156964,-0.0259035 0.253652,-0.067548 0.253652,-0.067548 -0.227977,-0.0127505 -0.721457,-0.0712038 -0.894066,-0.0635568 -0.000508678,2.23595e-005 -0.000972637,0.000100618 -0.00140306,0.000201235 -0.0607395,-0.00334833 -0.0859442,0.0240979 -0.0929204,0.110461z"/>
     <path id="_166322232" class="fil2" d="M4.05248 3.63717c0.0322424,0.71618 1.15368,0.784521 1.31703,0.203516 0,0 -0.373068,0.0742838 -0.649096,-0.0592917 0,0 0.179524,-0.00769166 0.268621,-0.106101 -0.398888,-0.0294307 -0.425501,-0.0325554 -0.834456,-0.134554 -0.0871237,-0.0217334 -0.106336,0.00252103 -0.102099,0.0964308z"/>
     <path id="_166325712" class="fil3" d="M5.37267 3.84191c-0.443031,0.362676 -1.09805,0.176539 -1.32619,-0.237435 -0.0600017,0.665049 1.10946,0.892741 1.32619,0.237435z"/>
     <path id="_162517016" class="fil1" d="M4.0422 3.51034c0,0 0.11353,0.285777 0.386333,0.439917 0,0 -0.27325,-0.0547472 -0.420436,-0.302993l0.0341038 -0.136924z"/>
     <path id="_166326144" class="fil4" d="M4.98632 3.67509c-0.396271,-0.0292518 -0.423729,-0.0325945 -0.831739,-0.134358 -0.0342715,-0.00855809 -0.0580396,-0.00995556 -0.0740043,-0.00282847 0.320892,0.216233 0.524022,0.244115 0.905743,0.137187z"/>
    </g>
    <g>
     <path id="_166342896" class="fil1" d="M3.25965 3.54063c0.0847704,0.970871 -1.4359,1.03891 -1.48788,0.221448 0,0 0.209346,0.0438302 0.433193,0.00954191 0,0 -0.0543727,-0.0568769 -0.0795047,-0.152922 0.105654,-0.00526007 0.24364,-0.0244277 0.399614,-0.0527684 -0.157126,-0.0248693 -0.254088,-0.065871 -0.254088,-0.065871 0.227888,-0.0142598 0.720976,-0.0759719 0.893619,-0.0694709 0.000508678,1.67696e-005 0.000983817,0.000100618 0.00141424,0.000195645 0.0607116,-0.0037508 0.0860896,0.0235334 0.0936359,0.109847z"/>
     <path id="_166324632" class="fil2" d="M3.18205 3.63682c-0.0275022,0.716375 -1.14846,0.792135 -1.31565,0.212219 0,0 0.373554,0.0718131 0.648688,-0.0635848 0,0 -0.179569,-0.00650102 -0.269314,-0.104318 0.398686,-0.0320691 0.425277,-0.0353727 0.83355,-0.140071 0.0869784,-0.0223092 0.106347,0.00181671 0.102731,0.0957545z"/>
     <path id="_166322184" class="fil3" d="M1.86324 3.85029c0.445423,0.359742 1.09919,0.169278 1.32459,-0.2462 0.0644009,0.664641 -1.10354,0.900064 -1.32459,0.2462z"/>
     <path id="_102302224" class="fil4" d="M2.24848 3.68092c0.396076,-0.0318734 0.423511,-0.0353951 0.830845,-0.139853 0.0342156,-0.00878728 0.0579725,-0.0103357 0.0739763,-0.00332038 -0.31945,0.218351 -0.52239,0.247581 -0.904821,0.143173z"/>
     <path id="_162517040" class="fil1" d="M3.19149 3.50992c0,0 -0.111641,0.286526 -0.383415,0.442466 0,0 0.272881,-0.0565583 0.418424,-0.305771l-0.0350094 -0.136695z"/>
    </g>
   </g>
  </g>
 </g>
</svg>
