<?xml version="1.0" encoding="UTF-8"?>
<!DOCTYPE svg PUBLIC "-//W3C//DTD SVG 1.1//EN" "http://www.w3.org/Graphics/SVG/1.1/DTD/svg11.dtd">
<!-- Creator: CorelDRAW -->
<svg xmlns="http://www.w3.org/2000/svg" xml:space="preserve" width="129.436mm" height="197.989mm" style="shape-rendering:geometricPrecision; text-rendering:geometricPrecision; image-rendering:optimizeQuality; fill-rule:evenodd; clip-rule:evenodd"
viewBox="0 0 8.28623 12.6748"
 xmlns:xlink="http://www.w3.org/1999/xlink">
 <defs>
  <style type="text/css">
   <![CDATA[
    .fil0 {fill:none}
    .fil4 {fill:#4B3446}
    .fil1 {fill:#501D33}
    .fil2 {fill:#634C54}
    .fil3 {fill:#896E6B}
   ]]>
  </style>
 </defs>
 <g id="Layer_x0020_1">
  <metadata id="CorelCorpID_0Corel-Layer"/>
  <g id="_253785552">
   <rect id="_264501152" class="fil0" width="8.28623" height="12.6748"/>
   <g>
    <g>
     <path id="_260328624" class="fil1" d="M4.32578 4.23675c0,0 -0.070093,0.630818 0.515375,0.799857l1.23094 -0.426838c0,0 0.306818,0.0784282 0.368685,0.105284 0,0 -0.16886,-0.515401 -0.618354,-0.865866 0,0 -0.350452,-0.0206137 -0.981271,0.296857 0,0 -0.18884,-0.0228287 -0.269092,-0.098965 0,0 -0.026753,0.107006 0.0329243,0.193436 0,0 -0.102236,0.0168111 -0.279207,-0.00376424z"/>
     <path id="_260328768" class="fil2" d="M4.43707 4.33236c0,0 -0.010166,0.46169 0.416954,0.595928 0,0 1.20609,-0.42712 1.23457,-0.42712l0.17288 0.0447484c0,0 -0.142369,-0.323392 -0.484064,-0.610166 0,0 -0.343731,0.0162669 -0.894917,0.303047 0,0 -0.135321,-0.00204857 -0.195107,-0.0517007 0,0 0.00507021,0.145916 0.20672,0.218877 0,0 -0.172265,-0.0212795 -0.248267,-0.0841065l-0.192533 0.010134 -0.0162349 0.000358499z"/>
     <path id="_260329632" class="fil3" d="M6.26078 4.54573l0.000697794 0.00017925c0,0 -0.142369,-0.323392 -0.484064,-0.610166 0,0 -0.340517,0.0161645 -0.887132,0.29904 -0.000550553,0.00203576 -0.00114592,0.00406513 -0.00165166,0.00610089 0,0 0.620338,-0.189153 0.835931,-0.207456 0,0 0.370336,0.256551 0.536219,0.512302z"/>
     <path id="_260329776" class="fil4" d="M4.51166 4.63943c0.0578208,0.115027 0.160403,0.231667 0.342361,0.288855 0,0 1.20609,-0.42712 1.23457,-0.42712l0.17288 0.0447484 -0.00130596 -0.0028936c-0.232679,-0.165601 -0.547813,-0.220778 -0.547813,-0.220778 0.0427126,0.0366118 0.128132,0.0894904 0.128132,0.0894904 -0.3783,0.0732235 -1.01491,0.349831 -1.01491,0.349831 -0.155928,-0.035978 -0.266538,-0.0940869 -0.313911,-0.122133z"/>
     <path id="_260329992" class="fil1" d="M4.4249 4.32834c0,0 0.0976271,0.296946 0.396609,0.441358 0,0 -0.307119,-0.0325466 -0.404746,-0.240003l-0.0406769 -0.136268 0.0488135 -0.0650869z"/>
     <polygon id="_260330112" class="fil1" points="5.36252,3.96224 5.40727,4.30597 5.47032,3.94394 "/>
    </g>
    <g>
     <path id="_260317200" class="fil1" d="M3.96045 3.99246c0,0 0.070093,0.630818 -0.515375,0.799857l-1.23094 -0.426838c0,0 -0.306818,0.0784282 -0.368685,0.105284 0,0 0.16886,-0.515401 0.618354,-0.865866 0,0 0.350452,-0.0206137 0.981271,0.296857 0,0 0.18884,-0.0228287 0.269092,-0.098965 0,0 0.026753,0.107006 -0.0329243,0.193436 0,0 0.102236,0.0168111 0.279207,-0.00376424z"/>
     <path id="_260313264" class="fil2" d="M3.84916 4.08807c0,0 0.010166,0.46169 -0.416954,0.595928 0,0 -1.20609,-0.42712 -1.23457,-0.42712l-0.17288 0.0447484c0,0 0.142369,-0.323392 0.484064,-0.610166 0,0 0.343731,0.0162669 0.894917,0.303047 0,0 0.135321,-0.00204857 0.195107,-0.0517007 0,0 -0.00507021,0.145916 -0.20672,0.218877 0,0 0.172265,-0.0212795 0.248267,-0.0841065l0.192533 0.010134 0.0162349 0.000358499z"/>
     <path id="_260317464" class="fil3" d="M2.02545 4.30145l-0.000697794 0.00017925c0,0 0.142369,-0.323392 0.484064,-0.610166 0,0 0.340517,0.0161645 0.887132,0.29904 0.000550553,0.00203576 0.00114592,0.00406513 0.00165166,0.00610089 0,0 -0.620338,-0.189153 -0.835931,-0.207456 0,0 -0.370336,0.256551 -0.536219,0.512302z"/>
     <path id="_260330472" class="fil4" d="M3.77456 4.39515c-0.0578208,0.115027 -0.160403,0.231667 -0.342361,0.288855 0,0 -1.20609,-0.42712 -1.23457,-0.42712l-0.17288 0.0447484 0.00130596 -0.0028936c0.232679,-0.165601 0.547813,-0.220778 0.547813,-0.220778 -0.0427126,0.0366118 -0.128132,0.0894904 -0.128132,0.0894904 0.3783,0.0732235 1.01491,0.349831 1.01491,0.349831 0.155928,-0.035978 0.266538,-0.0940869 0.313911,-0.122133z"/>
     <path id="_254764152" class="fil1" d="M3.86133 4.08406c0,0 -0.0976271,0.296946 -0.396609,0.441358 0,0 0.307119,-0.0325466 0.404746,-0.240003l0.0406769 -0.136268 -0.0488135 -0.0650869z"/>
     <polygon id="_260313888" class="fil1" points="2.9237,3.71796 2.87896,4.06168 2.8159,3.69965 "/>
    </g>
   </g>
  </g>
 </g>
</svg>
