<?xml version="1.0" encoding="UTF-8"?>
<!DOCTYPE svg PUBLIC "-//W3C//DTD SVG 1.1//EN" "http://www.w3.org/Graphics/SVG/1.1/DTD/svg11.dtd">
<!-- Creator: CorelDRAW -->
<svg xmlns="http://www.w3.org/2000/svg" xml:space="preserve" width="129.436mm" height="197.989mm" style="shape-rendering:geometricPrecision; text-rendering:geometricPrecision; image-rendering:optimizeQuality; fill-rule:evenodd; clip-rule:evenodd"
viewBox="0 0 25.7434 39.3777"
 xmlns:xlink="http://www.w3.org/1999/xlink">
 <defs>
  <style type="text/css">
   <![CDATA[
    .fil0 {fill:none}
    .fil3 {fill:#4B3446}
    .fil1 {fill:#501D33}
    .fil2 {fill:#634C54}
    .fil4 {fill:#896E6B}
   ]]>
  </style>
 </defs>
 <g id="Layer_x0020_1">
  <metadata id="CorelCorpID_0Corel-Layer"/>
  <g id="_166778560">
   <rect id="_254764752" class="fil0" width="25.7434" height="39.3777"/>
   <g id="_162261560">
    <polygon id="_163472040" class="fil1" points="10.8483,14.7208 11.8822,12.9436 11.3065,15.548 "/>
    <path id="_162939664" class="fil1" d="M10.9989 15.6426c-1.27376,0.0150161 -2.5478,-0.0135841 -3.82101,-0.0481509l-0.288707 -0.00783621 -0.0373911 -0.28638c-0.0673835,-0.516196 -0.134767,-1.03237 -0.20217,-1.54855l-0.0310465 -0.237732 0.214104 -0.107957c0.753629,-0.379977 1.60881,-0.579283 2.4735,-0.66029l0.0961428 0.32385 0.10736 -0.340756c0.564307,-0.0409711 1.12961,-0.0337315 1.67045,0.00455455l0.34185 0.0242047 -0.0287991 0.341472c-0.0627295,0.743863 -0.098609,1.48999 -0.161319,2.23388l-0.0257959 0.30607 -0.307144 0.00361977 -1.98889e-005 0z"/>
    <path id="_161954976" class="fil2" d="M10.9949 15.3045c0.0573993,-0.680895 0.103899,-1.553 0.161319,-2.2339 -1.58498,-0.112193 -3.04924,0.0715402 -4.17137,0.637299 0.0674034,0.516176 0.134787,1.03237 0.20217,1.54855 1.26022,0.0342088 2.54223,0.0629681 3.80788,0.0480515z"/>
    <polygon id="_161956944" class="fil3" points="7.28267,15.1791 10.9209,15.2629 10.8986,14.1061 10.6192,14.8603 "/>
    <path id="_162938752" class="fil4" d="M11.1125 13.6448c0.0140813,-0.200062 0.0285405,-0.393859 0.0437555,-0.574191 -1.58498,-0.112193 -3.04924,0.0715402 -4.17137,0.637299l0.0505774 0.387316c0.670036,-0.196164 2.3909,-0.627036 4.07704,-0.450423z"/>
    <polygon id="_163471440" class="fil1" points="10.1069,15.3844 10.4273,13.9237 10.5504,15.4566 "/>
    <polygon id="_161953848" class="fil1" points="8.05318,15.3498 8.2327,14.5467 8.42836,15.4172 "/>
    <polygon id="_163471776" class="fil1" points="7.65393,15.3482 7.79759,14.6539 7.91177,15.4065 "/>
    <polygon id="_163471656" class="fil1" points="6.4611,13.8602 6.67906,15.5927 7.11069,15.5823 "/>
    <polygon id="_161954904" class="fil4" points="9.91529,13.2788 10.0103,14.7654 10.2674,13.3738 "/>
    <polygon id="_162938968" class="fil2" points="8.53453,13.9607 8.6966,13.2677 8.92015,13.8825 "/>
    <polygon id="_161955288" class="fil1" points="15.0146,14.7208 13.9807,12.9436 14.5563,15.548 "/>
    <path id="_161956728" class="fil1" d="M14.864 15.6426c1.27376,0.0150161 2.5478,-0.0135841 3.82101,-0.0481509l0.288707 -0.00783621 0.0373911 -0.28638c0.0673835,-0.516196 0.134767,-1.03237 0.20217,-1.54855l0.0310465 -0.237732 -0.214104 -0.107957c-1.30403,-0.657466 -2.91193,-0.774254 -4.34745,-0.672641l-0.34185 0.0242047 0.0287991 0.341472c0.0627295,0.743863 0.098609,1.48999 0.161319,2.23388l0.0257959 0.30607 0.307144 0.00361977 1.98889e-005 0z"/>
    <path id="_161955672" class="fil2" d="M14.8679 15.3045c-0.0573993,-0.680895 -0.103899,-1.553 -0.161319,-2.2339 1.58498,-0.112193 3.04924,0.0715402 4.17137,0.637299 -0.0674034,0.516176 -0.134787,1.03237 -0.20217,1.54855 -1.26022,0.0342088 -2.54223,0.0629681 -3.80788,0.0480515z"/>
    <polygon id="_162939352" class="fil3" points="18.5643,15.1119 14.926,15.1957 14.9484,14.0388 15.2278,14.7931 "/>
    <path id="_162939424" class="fil4" d="M14.7504 13.6448c-0.0140813,-0.200062 -0.0285405,-0.393859 -0.0437555,-0.574191 1.58498,-0.112193 3.04924,0.0715402 4.17137,0.637299l-0.0505774 0.387316c-0.670036,-0.196164 -2.3909,-0.627036 -4.07704,-0.450423z"/>
    <polygon id="_162260672" class="fil1" points="15.756,15.3845 15.4356,13.9238 15.3125,15.4566 "/>
    <polygon id="_163714536" class="fil1" points="17.8097,15.3498 17.6302,14.5467 17.4345,15.4172 "/>
    <polygon id="_162938704" class="fil1" points="18.209,15.3482 18.0653,14.6539 17.9512,15.4065 "/>
    <polygon id="_161954640" class="fil1" points="19.4017,13.8602 19.1838,15.5927 18.7522,15.5823 "/>
    <polygon id="_161954568" class="fil4" points="15.9475,13.2788 15.8525,14.7654 15.5955,13.3738 "/>
    <polygon id="_161954496" class="fil2" points="17.3283,13.9607 17.1662,13.2677 16.9427,13.8825 "/>
    <polygon id="_163471704" class="fil1" points="9.17155,13.0907 9.42871,13.6534 9.66895,13.0348 "/>
   </g>
  </g>
 </g>
</svg>
