<?xml version="1.0" encoding="UTF-8"?>
<!DOCTYPE svg PUBLIC "-//W3C//DTD SVG 1.1//EN" "http://www.w3.org/Graphics/SVG/1.1/DTD/svg11.dtd">
<!-- Creator: CorelDRAW -->
<svg xmlns="http://www.w3.org/2000/svg" xml:space="preserve" width="129.436mm" height="197.989mm" style="shape-rendering:geometricPrecision; text-rendering:geometricPrecision; image-rendering:optimizeQuality; fill-rule:evenodd; clip-rule:evenodd"
viewBox="0 0 6.37058 9.74459"
 xmlns:xlink="http://www.w3.org/1999/xlink">
 <defs>
  <style type="text/css">
   <![CDATA[
    .fil0 {fill:none}
    .fil4 {fill:#4B3446}
    .fil1 {fill:#501D33}
    .fil2 {fill:#634C54}
    .fil3 {fill:#896E6B}
   ]]>
  </style>
 </defs>
 <g id="Layer_x0020_1">
  <metadata id="CorelCorpID_0Corel-Layer"/>
  <g id="_233917488">
   <rect id="_291087840" class="fil0" width="6.37058" height="9.74459"/>
   <g id="_161804736">
    <path id="_162384872" class="fil1" d="M4.64137 3.43773c0.0582149,-0.147481 0.0989033,-0.349545 0.0389313,-0.580028 0,0 -0.268095,0.0369429 -0.417343,0.253098 0,0 -0.0135644,-0.0700862 0.0161484,-0.14471 0,0 -0.251626,-0.0121076 -0.399127,0.191581 0,0 -0.0112168,-0.0720648 0.000654598,-0.136294 0,0 -0.211341,0.0592681 -0.253536,0.325424 0,0 -0.0353532,-0.0384441 -0.041092,-0.0959355 0,0 -0.153806,0.191024 0.00755986,0.411643 0.125127,0.171076 0.569146,0.156262 0.825251,0.0354861 0.120288,-0.0567236 0.176013,-0.142402 0.222548,-0.260264l4.92179e-006 0zm-2.91214 -4.92179e-006c-0.0582149,-0.147481 -0.0989033,-0.349545 -0.0389313,-0.580028 0,0 0.268095,0.0369429 0.417343,0.253098 0,0 0.0135644,-0.0700862 -0.0161484,-0.14471 0,0 0.251626,-0.0121076 0.399127,0.191581 0,0 0.0112168,-0.0720648 -0.000654598,-0.136294 0,0 0.211341,0.0592681 0.253536,0.325424 0,0 0.0353532,-0.0384441 0.041092,-0.0959355 0,0 0.153806,0.191024 -0.00755986,0.411643 -0.125127,0.171076 -0.569146,0.156262 -0.825251,0.0354861 -0.120288,-0.0567236 -0.176013,-0.142402 -0.222548,-0.260264l-4.92179e-006 0z"/>
    <path id="_162384032" class="fil2" d="M4.62169 2.9604c0,0 -0.255874,0.056256 -0.382029,0.337339l-0.0249436 0.0526926c0,0 -0.0408262,-0.117134 -0.0210948,-0.28852 0,0 -0.127666,-0.0388132 -0.380931,0.260116 -0.00760908,-0.070603 -0.00571419,-0.147058 -0.00134365,-0.194834 0,0 -0.127272,0.0932285 -0.135531,0.342428 0,0 -0.0491145,-0.0143126 -0.0792309,-0.0625707 0,0 -0.0277884,0.114589 0.0681224,0.2218 0.0871255,0.0973923 0.351957,0.112414 0.566133,0.0583182 0.344402,-0.0869926 0.411264,-0.401042 0.390849,-0.726766l0 -4.92179e-006zm-2.87279 -4.92179e-006c0,0 0.255874,0.056256 0.382029,0.337339l0.0249436 0.0526926c0,0 0.0408262,-0.117134 0.0210948,-0.28852 0,0 0.127666,-0.0388132 0.380931,0.260116 0.00760908,-0.070603 0.00571419,-0.147058 0.00134365,-0.194834 0,0 0.127272,0.0932285 0.135531,0.342428 0,0 0.0491145,-0.0143126 0.0792309,-0.0625707 0,0 0.0277884,0.114589 -0.0681224,0.2218 -0.0871255,0.0973923 -0.351957,0.112414 -0.566133,0.0583182 -0.344402,-0.0869926 -0.411264,-0.401042 -0.390849,-0.726766l0 -4.92179e-006z"/>
    <path id="_162384776" class="fil3" d="M4.62169 2.9604c0,0 -0.255874,0.0562511 -0.382029,0.337339l-0.0249485 0.0526926c0,0 -0.0408213,-0.117134 -0.0210948,-0.28852 0,0 -0.19098,-0.0250667 -0.380799,0.25865 -0.00760908,-0.070603 -0.00584708,-0.145591 -0.00147161,-0.193362 0,0 -0.123645,0.0905806 -0.135093,0.331807l0.00124029 0.00172755c0.0196182,-0.124034 0.0981601,-0.228174 0.0981601,-0.228174 -0.00558131,0.0986228 0.0430164,0.2001 0.0430164,0.2001 0.103323,-0.19474 0.270265,-0.265038 0.270265,-0.265038 0.0126785,0.207719 0.156193,0.273066 0.156193,0.273066 0.132854,-0.270127 0.17179,-0.363302 0.376704,-0.477866l-0.000142732 -0.00242152zm-2.87279 -4.92179e-006c0,0 0.255874,0.0562511 0.382029,0.337339l0.0249485 0.0526926c0,0 0.0408213,-0.117134 0.0210948,-0.28852 0,0 0.19098,-0.0250667 0.380799,0.25865 0.00760908,-0.070603 0.00584708,-0.145591 0.00147161,-0.193362 0,0 0.123645,0.0905806 0.135093,0.331807l-0.00124029 0.00172755c-0.0196182,-0.124034 -0.0981601,-0.228174 -0.0981601,-0.228174 0.00558131,0.0986228 -0.0430164,0.2001 -0.0430164,0.2001 -0.103323,-0.19474 -0.270265,-0.265038 -0.270265,-0.265038 -0.0126785,0.207719 -0.156193,0.273066 -0.156193,0.273066 -0.132854,-0.270127 -0.17179,-0.363302 -0.376704,-0.477866l0.000142732 -0.00242152z"/>
    <path id="_162384056" class="fil4" d="M3.68966 3.65115c0.105336,0.0770801 0.344584,0.0856785 0.54119,0.0360226 0.340873,-0.0861066 0.409847,-0.394639 0.39143,-0.71677 -0.0299589,0.141413 -0.205332,0.773715 -0.932614,0.680747l-4.92179e-006 0zm-1.00872 -4.92179e-006c-0.105336,0.0770801 -0.344584,0.0856785 -0.54119,0.0360226 -0.340873,-0.0861066 -0.409847,-0.394639 -0.39143,-0.71677 0.0299589,0.141413 0.205332,0.773715 0.932614,0.680747l4.92179e-006 0z"/>
    <path id="_162384704" class="fil1" d="M4.62183 2.92421c0.000836704,0.00746635 -0.0717252,0.418317 -0.325852,0.585648 0,0 0.291616,-0.104918 0.379706,-0.473003l-0.0133676 -0.0677189 -0.0404866 -0.0449261z"/>
    <path id="_162384632" class="fil1" d="M3.61837 3.61389c0,0 0.182451,0.0453887 0.447661,0.00622606 0,0 -0.151059,0.0875044 -0.365669,0.0718778l-0.0537607 -0.02832 -0.0282314 -0.0497839z"/>
    <path id="_162384560" class="fil1" d="M1.74875 2.92421c-0.000836704,0.00746635 0.0717252,0.418317 0.325852,0.585648 0,0 -0.291616,-0.104918 -0.379706,-0.473003l0.0133676 -0.0677189 0.0404866 -0.0449261z"/>
    <path id="_162384488" class="fil1" d="M2.75221 3.61388c0,0 -0.182451,0.0453887 -0.447661,0.00622606 0,0 0.151059,0.0875044 0.365669,0.0718778l0.0537607 -0.02832 0.0282314 -0.0497839z"/>
   </g>
  </g>
 </g>
</svg>
