<?xml version="1.0" encoding="UTF-8"?>
<!DOCTYPE svg PUBLIC "-//W3C//DTD SVG 1.1//EN" "http://www.w3.org/Graphics/SVG/1.1/DTD/svg11.dtd">
<!-- Creator: CorelDRAW -->
<svg xmlns="http://www.w3.org/2000/svg" xml:space="preserve" width="129.436mm" height="197.989mm" style="shape-rendering:geometricPrecision; text-rendering:geometricPrecision; image-rendering:optimizeQuality; fill-rule:evenodd; clip-rule:evenodd"
viewBox="0 0 9.90515 15.1511"
 xmlns:xlink="http://www.w3.org/1999/xlink">
 <defs>
  <style type="text/css">
   <![CDATA[
    .fil0 {fill:none}
    .fil4 {fill:#4B3446}
    .fil1 {fill:#501D33}
    .fil2 {fill:#634C54}
    .fil3 {fill:#896E6B}
   ]]>
  </style>
 </defs>
 <g id="Layer_x0020_1">
  <metadata id="CorelCorpID_0Corel-Layer"/>
  <g id="_170944840">
   <rect id="_254790360" class="fil0" width="9.90515" height="15.1511"/>
   <g id="_161804688">
    <path id="_161806368" class="fil1" d="M4.21422 6.01115l-1.65371 -0.449532 0.119196 -0.720592c0.00234932,-0.0141725 0.425319,-0.155691 0.958731,-0.0995976l-0.062192 0.302321 0.236647 -0.277213c0.241514,0.0445224 0.497758,0.133322 0.742991,0.293428l-0.341662 0.951178 0 7.65252e-006zm1.47671 7.65252e-006l1.65371 -0.449532 -0.119196 -0.720592c-0.0036273,-0.0218709 -1.00889,-0.34731 -1.87618,0.218939l0.341662 0.951178 0 7.65252e-006z"/>
    <path id="_161806200" class="fil2" d="M4.13129 5.8357l0.256199 -0.713261c-0.21326,-0.119173 -0.432031,-0.190823 -0.6718,-0.224831l-0.139444 0.14614 0.0178227 -0.15954c-0.0831446,-0.00818055 -0.152124,-0.0117466 -0.236463,-0.0108972 -0.142842,0.00144633 -0.287566,0.0153816 -0.427837,0.042747 -0.0350026,0.00682605 -0.0852338,0.0168509 -0.130116,0.0291714l-0.0836574 0.50574 1.41529 0.384731 7.65252e-006 0zm1.64256 7.65252e-006l-0.256199 -0.713261c0.314304,-0.175641 0.668524,-0.252778 1.02988,-0.249128 0.142842,0.00144633 0.287566,0.0153816 0.427837,0.042747 0.0350026,0.00682605 0.0852338,0.0168509 0.130116,0.0291714l0.0836574 0.50574 -1.41529 0.384731z"/>
    <path id="_161806128" class="fil3" d="M4.38316 5.1345l0.00433133 -0.0120604c-0.188589,-0.105391 -0.391526,-0.175266 -0.601771,-0.213536l-0.0245416 -0.0113716 -0.00456856 0.00628272c-0.0178763,-0.00299979 -0.0240289,0.00492057 -0.041997,0.00237228l-0.0866954 0.0770379c0.0219245,0.00143867 0.0443081,0.00319875 0.0671126,0.00525728l-0.0992685 0.13649c-0.0349185,-0.0149301 -0.241445,-0.0951055 -0.636751,-0.0895651 0.0612661,-0.0171493 0.275996,-0.0751401 0.61837,-0.0576617l0.0199042 -0.0967432c-0.0831446,-0.00818055 -0.155339,-0.00853256 -0.239677,-0.00768313 -0.142842,0.00143867 -0.287566,0.0153739 -0.427837,0.0427393 -0.034995,0.00682605 -0.0852414,0.0168585 -0.130108,0.0291638l-0.0836574 0.505747 0.0446219 0.0121369c0.0021121,-0.00837186 0.00403288,-0.0169656 0.00559399,-0.0260033l0.123106 -0.27748c0.149523,-0.0307172 0.434877,-0.074482 0.705409,-0.0332349l-0.177615 0.244215 0.475084 -0.357296c0.150181,0.0241973 0.314664,0.0626588 0.490955,0.121193z"/>
    <polygon id="_161806056" class="fil1" points="3.5062,4.76377 3.42211,5.36692 3.91525,4.83909 3.82258,4.76989 3.57625,5.04375 3.62637,4.74361 "/>
    <path id="_161805960" class="fil3" d="M7.02135 5.17209c-0.172825,-0.0303499 -0.627599,-0.0931848 -1.04554,-0.00429306 0,0 0.251064,-0.136077 0.793421,-0.168179 -0.238629,-0.0345511 -0.682674,-0.0525728 -1.24724,0.134883l-0.00433133 -0.0120604c0.314304,-0.175648 0.668524,-0.25277 1.02988,-0.24912 0.142842,0.00143867 0.287566,0.0153739 0.427837,0.0427393 0.034995,0.00682605 0.0852414,0.0168585 0.130108,0.0291638l0.0836574 0.505747 -0.0446219 0.0121369c-0.0021121,-0.00837186 -0.00403288,-0.0169656 -0.00559399,-0.0260033l-0.117573 -0.265014z"/>
    <path id="_161805888" class="fil4" d="M4.13129 5.8357l0.0654291 -0.182153c-0.624752,-0.217224 -1.20318,-0.278636 -1.46527,-0.295946l-0.0154428 0.0933684 1.41529 0.384731 -7.65252e-006 0zm1.64256 7.65252e-006l-0.0654291 -0.182153c0.624752,-0.217224 1.20318,-0.278636 1.46527,-0.295946l0.0154428 0.0933684 -1.41529 0.384731 7.65252e-006 0z"/>
    <polygon id="_161805816" class="fil1" points="3.22359,5.62864 3.38486,5.42436 3.35477,5.66735 "/>
    <path id="_161805744" class="fil1" d="M4.23636 5.73661c0,0 -0.329694,-0.164789 -0.810915,-0.282263 0,0 0.415402,0.0242355 0.850341,0.163825l0.0116242 0.0600799 -0.05105 0.0583581z"/>
    <path id="_161804712" class="fil1" d="M5.66878 5.73662c0,0 0.329694,-0.164789 0.810915,-0.282263 0,0 -0.415402,0.0242355 -0.850341,0.163825l-0.0116242 0.0600799 0.05105 0.0583581z"/>
   </g>
  </g>
 </g>
</svg>
