<?xml version="1.0" encoding="UTF-8"?>
<!DOCTYPE svg PUBLIC "-//W3C//DTD SVG 1.1//EN" "http://www.w3.org/Graphics/SVG/1.1/DTD/svg11.dtd">
<!-- Creator: CorelDRAW -->
<svg xmlns="http://www.w3.org/2000/svg" xml:space="preserve" width="129.436mm" height="197.989mm" style="shape-rendering:geometricPrecision; text-rendering:geometricPrecision; image-rendering:optimizeQuality; fill-rule:evenodd; clip-rule:evenodd"
viewBox="0 0 28.4296 43.4865"
 xmlns:xlink="http://www.w3.org/1999/xlink">
 <defs>
  <style type="text/css">
   <![CDATA[
    .fil0 {fill:none}
    .fil3 {fill:#4B3446}
    .fil1 {fill:#501D33}
    .fil2 {fill:#634C54}
    .fil4 {fill:#896E6B}
   ]]>
  </style>
 </defs>
 <g id="Layer_x0020_1">
  <metadata id="CorelCorpID_0Corel-Layer"/>
  <g id="_170943928">
   <rect id="_284246160" class="fil0" width="28.4296" height="43.4865"/>
   <g>
    <g>
     <path id="_284248224" class="fil1" d="M14.5943 14.8898c0,0 0.304291,1.38767 1.8492,1.65601l0.0785217 -0.438579c0,0 -1.47933,-0.268358 -1.92772,-1.21743z"/>
     <path id="_284247792" class="fil1" d="M14.807 14.4381c0,0 0.079576,1.49319 1.6401,2.12272 0,0 1.02296,-0.118035 2.7017,-0.681986 0,0 1.84916,0.891853 1.95413,0.852449 0.104901,-0.0393377 -1.71801,-2.38682 -1.71801,-2.38682 0,0 -3.06894,0.747549 -4.57791,0.093633z"/>
     <path id="_284246328" class="fil2" d="M15.2848 14.9291c0,0 0.235741,0.824708 1.21756,1.29597 0,0 1.50544,-0.1702 2.53321,-0.647963l1.40614 0.636915 -1.14154 -1.56885c0,0 -1.82906,0.637399 -4.01537,0.28393z"/>
     <path id="_284245872" class="fil3" d="M15.7357 15.4653c0.186761,0.230184 0.463509,0.481959 0.864859,0.67465 0,0 1.42038,-0.176789 2.44812,-0.654618l1.23581 0.584487 -0.862289 -1.02478c-1.46411,0.89249 -3.17876,0.518661 -3.6865,0.420261z"/>
     <path id="_284244912" class="fil4" d="M19.3099 14.6587l-0.00975207 -0.0135958c0,0 -1.80424,0.628481 -3.97076,0.290871 0.223133,0.117859 0.959085,0.455272 2.00423,0.412047 0.951573,-0.0394695 1.67639,-0.476182 1.97629,-0.689322z"/>
    </g>
    <g>
     <path id="_284243376" class="fil1" d="M12.0315 16.0667c0,0 0.90323,-0.222518 1.54482,-1.24367 0,0 -0.56294,0.504076 -1.39422,0.720006 0,0 -0.11138,0.183291 -0.11138,0.216017 0,0.0327924 -0.0392279,0.307651 -0.0392279,0.307651z"/>
     <path id="_284242104" class="fil1" d="M12.0284 16.0605c0,0 0.813089,-0.44585 1.4164,-1.74428 0,0 -0.466518,-0.196557 -1.39569,-0.707552l-1.26118 0.8642 0.724816 -1.1655c-0.383406,-0.219619 -0.823566,-0.480421 -1.32057,-0.787677 0,0 -0.878543,0.367064 -2.79331,1.65243l2.1542 0.144019c0,0 0.993393,1.11485 2.47533,1.74437z"/>
     <path id="_284248248" class="fil2" d="M10.0613 12.9837c0,0 0.534541,0.34622 1.20497,0.720006l-0.478334 0.769183 0.837448 -0.573834c0.440622,0.233413 0.907294,0.456063 1.30291,0.590176 0,0 -0.104681,0.484375 -0.949135,1.22402 0,0 -1.17826,-0.54985 -2.13392,-1.75427l-1.61682 0c0,0 1.846,-0.962226 1.83288,-0.975272z"/>
     <path id="_284253696" class="fil4" d="M10.0613 12.9837c0,0 0.534541,0.34622 1.20497,0.720006l-0.157966 0.254015c-0.595864,-0.292782 -0.988121,-0.594371 -0.988121,-0.594371l-1.84345 0.595623 -0.048321 0c0,0 1.846,-0.962226 1.83288,-0.975272zm1.56409 0.915354c0.440622,0.233413 0.907294,0.456063 1.30291,0.590176l-0.000966421 0.00338247c-0.564697,-0.0415122 -1.10704,-0.215753 -1.56198,-0.415385l0.260033 -0.178173z"/>
     <path id="_284242032" class="fil3" d="M9.99587 13.9721c0,0 0.88366,1.06045 1.95059,1.62335 0,0 0.58262,-0.562896 0.837821,-0.981906 -0.715986,0.182697 -1.34049,0.0853086 -1.94429,-0.176306l-0.0520549 0.0356697 0.0285533 -0.045905c-0.275408,-0.121374 -0.546709,-0.276638 -0.820623,-0.454899z"/>
    </g>
   </g>
  </g>
 </g>
</svg>
