<?xml version="1.0" encoding="UTF-8"?>
<!DOCTYPE svg PUBLIC "-//W3C//DTD SVG 1.1//EN" "http://www.w3.org/Graphics/SVG/1.1/DTD/svg11.dtd">
<!-- Creator: CorelDRAW -->
<svg xmlns="http://www.w3.org/2000/svg" xml:space="preserve" width="129.436mm" height="197.989mm" style="shape-rendering:geometricPrecision; text-rendering:geometricPrecision; image-rendering:optimizeQuality; fill-rule:evenodd; clip-rule:evenodd"
viewBox="0 0 62.9678 96.3169"
 xmlns:xlink="http://www.w3.org/1999/xlink">
 <defs>
  <style type="text/css">
   <![CDATA[
    .fil0 {fill:none}
    .fil3 {fill:#4B3446}
    .fil1 {fill:#501D33}
    .fil2 {fill:#634C54}
    .fil4 {fill:#896E6B}
   ]]>
  </style>
 </defs>
 <g id="Layer_x0020_1">
  <metadata id="CorelCorpID_0Corel-Layer"/>
  <g id="_224430496">
   <rect id="_254769216" class="fil0" width="62.9678" height="96.3169"/>
   <g id="_163470864">
    <g>
     <g>
      <path id="_163470792" class="fil1" d="M27.5425 33.9809c0,0 0.225093,-0.666375 -0.0323993,-0.849047 -0.587712,-0.417105 -1.60153,-1.3309 -1.89215,-2.58134 0,0 -0.363398,1.26143 0.109944,2.34161 0.47339,1.08012 1.81461,1.08878 1.81461,1.08878z"/>
      <path id="_163470720" class="fil1" d="M21.7629 30.6854c0,0 -1.57317,0.206363 -3.08854,-0.428391 0,0 0.386068,1.07818 1.76571,1.13524 1.3797,0.0571123 1.32283,-0.70685 1.32283,-0.70685z"/>
      <g>
       <path id="_162260744" class="fil1" d="M27.4478 34.8402c-3.08159,-7.27214 -7.26854,-2.76143 -11.7667,-3.31607 0,0 1.14565,2.32093 4.52837,3.02092 3.38276,0.699991 5.81437,1.60712 7.23838,0.295145z"/>
       <path id="_162261056" class="fil2" d="M26.1213 34.4042c-0.612766,0.348998 -1.47344,0.265373 -2.11418,0.168369 -0.534102,-0.0808524 -1.06529,-0.199212 -1.5917,-0.318545 -0.630084,-0.142829 -1.25866,-0.290475 -1.89147,-0.421483 -1.03683,-0.214536 -2.02778,-0.66224 -2.82438,-1.3992 -0.0737012,-0.068204 -0.1547,-0.147986 -0.23706,-0.234968 0.846274,-0.0319615 1.68136,-0.21079 2.52778,-0.404067 0.955197,-0.218136 2.03663,-0.492022 3.00146,-0.357074 1.56091,0.218379 2.48181,1.54855 3.12955,2.96697z"/>
       <path id="_162520952" class="fil3" d="M25.6334 34.8149c-0.612766,0.348998 -0.985504,-0.145262 -1.62624,-0.242265 -0.534102,-0.0808524 -1.06529,-0.199212 -1.5917,-0.318545 -0.630084,-0.142829 -1.25866,-0.290475 -1.89147,-0.421483 -1.03683,-0.214536 -2.02778,-0.66224 -2.82438,-1.3992 -0.0737012,-0.068204 -0.1547,-0.147986 -0.23706,-0.234968 3.14098,0.356976 5.68146,-2.13879 8.17081,2.61646l4.86476e-005 0z"/>
       <path id="_162521504" class="fil1" d="M28.6343 36.6402c0.0424694,-4.67222 -3.00497,-4.67499 -5.43229,-3.4067 -0.433937,0.226747 -0.9047,0.291156 -1.30828,0.421191 -1.13563,0.36583 -2.30035,0.0256373 -3.12853,-0.236719 0,0 1.24932,3.48419 4.35742,3.78051 3.10815,0.296361 5.51168,-0.55828 5.51168,-0.55828z"/>
       <path id="_161955600" class="fil2" d="M27.5731 35.9843c-0.345447,0.0904846 -0.715996,0.156694 -1.04704,0.208455 -1.13743,0.177807 -2.3021,0.209088 -3.43584,0.100993 -1.13578,-0.10829 -2.09331,-0.733363 -2.82949,-1.62673 -0.171532,-0.208212 -0.356587,-0.464196 -0.523011,-0.732731 0.946537,-0.0428586 2.00273,-0.43885 2.82186,-0.703737 2.14882,-0.694737 4.21449,-0.734433 4.89468,1.94629 0.0574529,0.226503 0.1079,0.529286 0.118846,0.807454z"/>
       <path id="_163712952" class="fil4" d="M27.5731 35.9843l-0.00160537 0.000389181c-0.294951,-0.579588 -1.72179,-3.00501 -4.82789,-2.73395 -0.0967602,0.00846469 -0.186418,0.0104106 -0.271357,0.0082701l0.0873225 -0.0284102c2.14882,-0.694834 4.21444,-0.734433 4.89463,1.94625 0.0575502,0.226503 0.107949,0.529286 0.118895,0.807454z"/>
       <path id="_166323432" class="fil3" d="M26.0122 35.7022c-0.255206,0.0668905 -0.528994,0.115781 -0.773546,0.154018 -0.840339,0.131397 -1.70077,0.154505 -2.53839,0.0746255 -0.839123,-0.0799767 -1.54656,-0.541789 -2.09044,-1.20184 -0.126727,-0.153824 -0.263427,-0.342917 -0.38636,-0.541302 1.85756,-0.0841118 4.02754,-0.693034 5.78873,1.5145z"/>
      </g>
      <path id="_163712808" class="fil1" d="M20.6078 36.0072c0,0 -1.63729,-1.47714 -3.29987,-1.14682 0,0 0.922797,-0.725482 2.01387,-0.701694 1.09102,0.0237887 1.286,1.84851 1.286,1.84851z"/>
     </g>
     <path id="_163713816" class="fil1" d="M28.0148 36.1586c0,0 0.658884,-1.80283 0.322047,-3.12099 0,0 1.19605,1.32978 0.314604,3.56456l-0.343452 -0.0516638 -0.293199 -0.391905z"/>
    </g>
    <g>
     <g>
      <path id="_161957304" class="fil1" d="M35.4253 33.981c0,0 -0.225093,-0.666375 0.0323993,-0.849047 0.587712,-0.417105 1.60153,-1.3309 1.89215,-2.58134 0,0 0.363398,1.26143 -0.109944,2.34161 -0.47339,1.08012 -1.81461,1.08878 -1.81461,1.08878z"/>
      <path id="_162939568" class="fil1" d="M41.2048 30.6855c0,0 1.57317,0.206363 3.08854,-0.428391 0,0 -0.386068,1.07818 -1.76571,1.13524 -1.3797,0.0571123 -1.32283,-0.70685 -1.32283,-0.70685z"/>
      <g>
       <path id="_163712376" class="fil1" d="M35.5199 34.8402c3.08159,-7.27214 7.26854,-2.76143 11.7667,-3.31607 0,0 -1.14565,2.32093 -4.52837,3.02092 -3.38276,0.699991 -5.81437,1.60712 -7.23838,0.295145z"/>
       <path id="_163470288" class="fil2" d="M36.8465 34.4043c0.612766,0.348998 1.47344,0.265373 2.11418,0.168369 0.534102,-0.0808524 1.06529,-0.199212 1.5917,-0.318545 0.630084,-0.142829 1.25866,-0.290475 1.89147,-0.421483 1.03683,-0.214536 2.02778,-0.66224 2.82438,-1.3992 0.0737012,-0.068204 0.1547,-0.147986 0.23706,-0.234968 -0.846274,-0.0319615 -1.68136,-0.21079 -2.52778,-0.404067 -0.955197,-0.218136 -2.03663,-0.492022 -3.00146,-0.357074 -1.56091,0.218379 -2.48181,1.54855 -3.12955,2.96697z"/>
       <path id="_163470360" class="fil3" d="M37.3344 34.8149c0.612766,0.348998 0.985504,-0.145262 1.62624,-0.242265 0.534102,-0.0808524 1.06529,-0.199212 1.5917,-0.318545 0.630084,-0.142829 1.25866,-0.290475 1.89147,-0.421483 1.03683,-0.214536 2.02778,-0.66224 2.82438,-1.3992 0.0737012,-0.068204 0.1547,-0.147986 0.23706,-0.234968 -3.14098,0.356976 -5.68146,-2.13879 -8.17081,2.61646l-4.86476e-005 0z"/>
       <path id="_162261200" class="fil1" d="M34.3334 36.6403c-0.0424694,-4.67222 3.00497,-4.67499 5.43229,-3.4067 0.433937,0.226747 0.9047,0.291156 1.30828,0.421191 1.13563,0.36583 2.30035,0.0256373 3.12853,-0.236719 0,0 -1.24932,3.48419 -4.35742,3.78051 -3.10815,0.296361 -5.51168,-0.55828 -5.51168,-0.55828z"/>
       <path id="_163472184" class="fil2" d="M35.3947 35.9844c0.345447,0.0904846 0.715996,0.156694 1.04704,0.208455 1.13743,0.177807 2.3021,0.209088 3.43584,0.100993 1.13578,-0.10829 2.09331,-0.733363 2.82949,-1.62673 0.171532,-0.208212 0.356587,-0.464196 0.523011,-0.732731 -0.946537,-0.0428586 -2.00273,-0.43885 -2.82186,-0.703737 -2.14882,-0.694737 -4.21449,-0.734433 -4.89468,1.94629 -0.0574529,0.226503 -0.1079,0.529286 -0.118846,0.807454z"/>
       <path id="_163469784" class="fil4" d="M35.3947 35.9844l0.00160537 0.000389181c0.294951,-0.579588 1.72179,-3.00501 4.82789,-2.73395 0.0967602,0.00846469 0.186418,0.0104106 0.271357,0.0082701l-0.0873225 -0.0284102c-2.14882,-0.694834 -4.21444,-0.734433 -4.89463,1.94625 -0.0575502,0.226503 -0.107949,0.529286 -0.118895,0.807454z"/>
       <path id="_163469712" class="fil3" d="M36.9556 35.7023c0.255206,0.0668905 0.528994,0.115781 0.773546,0.154018 0.840339,0.131397 1.70077,0.154505 2.53839,0.0746255 0.839123,-0.0799767 1.54656,-0.541789 2.09044,-1.20184 0.126727,-0.153824 0.263427,-0.342917 0.38636,-0.541302 -1.85756,-0.0841118 -4.02754,-0.693034 -5.78873,1.5145z"/>
      </g>
      <path id="_161955432" class="fil1" d="M42.36 36.0073c0,0 1.63729,-1.47714 3.29987,-1.14682 0,0 -0.922797,-0.725482 -2.01387,-0.701694 -1.09102,0.0237887 -1.286,1.84851 -1.286,1.84851z"/>
     </g>
     <path id="_161957688" class="fil1" d="M34.9529 36.1587c0,0 -0.658884,-1.80283 -0.322047,-3.12099 0,0 -1.19605,1.32978 -0.314604,3.56456l0.343452 -0.0516638 0.293199 -0.391905z"/>
    </g>
   </g>
  </g>
 </g>
</svg>
