<?xml version="1.0" encoding="UTF-8"?>
<!DOCTYPE svg PUBLIC "-//W3C//DTD SVG 1.1//EN" "http://www.w3.org/Graphics/SVG/1.1/DTD/svg11.dtd">
<!-- Creator: CorelDRAW -->
<svg xmlns="http://www.w3.org/2000/svg" xml:space="preserve" width="129.436mm" height="197.989mm" style="shape-rendering:geometricPrecision; text-rendering:geometricPrecision; image-rendering:optimizeQuality; fill-rule:evenodd; clip-rule:evenodd"
viewBox="0 0 15.5275 23.7512"
 xmlns:xlink="http://www.w3.org/1999/xlink">
 <defs>
  <style type="text/css">
   <![CDATA[
    .fil0 {fill:none}
    .fil4 {fill:#4B3446}
    .fil1 {fill:#501D33}
    .fil3 {fill:#634C54}
    .fil2 {fill:#896E6B}
   ]]>
  </style>
 </defs>
 <g id="Layer_x0020_1">
  <metadata id="CorelCorpID_0Corel-Layer"/>
  <g id="_284240640">
   <rect id="_254762592" class="fil0" width="15.5275" height="23.7512"/>
   <g>
    <g id="_161809512">
     <path id="_161805720" class="fil1" d="M8.6105 7.13024l0.21099 1.28648c0,0 1.3919,0.0210054 2.12366,0.608714l0.600245 -0.856077c0,0 -0.744284,-1.64417 -2.9349,-1.03912zm-1.74216 0.844884l-0.207031 1.26247c0,0 -1.36593,0.0206096 -2.08405,0.597353l-0.589028 -0.84011c0,0 0.730392,-1.61347 2.8801,-1.01972l1.19963e-005 0z"/>
     <path id="_161806656" class="fil2" d="M8.86389 7.27434l0.238282 0.839582c0,0 1.08327,0.00984892 1.81868,0.577608l0.409336 -0.555307c0,0 -0.811307,-1.27022 -2.46631,-0.861883l1.19963e-005 0zm-2.24422 0.842185l-0.233831 0.823927c0,0 -1.06305,0.00965698 -1.78474,0.566811l-0.401695 -0.544918c0,0 0.796155,-1.24653 2.42027,-0.84582z"/>
     <path id="_161806584" class="fil3" d="M8.86389 7.27434l0.147086 0.944609c0,0 1.16263,-0.0506962 1.89805,0.517062l0.223526 -0.528207c0,0 -0.613656,-1.3418 -2.26865,-0.933464l-1.19963e-005 0zm-2.24422 0.842185l-0.144351 0.926986c0,0 -1.14093,-0.0497605 -1.8626,0.507406l-0.219351 -0.518346c0,0 0.6022,-1.31676 2.22631,-0.916046l-1.19963e-005 0z"/>
     <path id="_161806344" class="fil4" d="M8.97158 7.96596l0.0393957 0.252989c0,0 1.16263,-0.0507202 1.89805,0.517062l0.124461 -0.177245c-0.653064,-0.532982 -1.58486,-0.598601 -2.0619,-0.592807zm-2.45759 0.829277l-0.0386639 0.248274c0,0 -1.14093,-0.0497725 -1.8626,0.507406l-0.122134 -0.173934c0.640864,-0.523037 1.55529,-0.587409 2.0234,-0.581746z"/>
     <path id="_161806512" class="fil1" d="M11.0924 8.72379c0,0 -0.310991,-0.382453 -0.797619,-0.55803 0,0 0.494258,0.0881845 0.906005,0.418045l-0.0286471 0.0855693 -0.0797391 0.054415zm-4.39871 0.212022c0,0 -0.448744,-0.166496 -0.946048,-0.0687505 0,0 0.457945,-0.180412 0.96655,-0.109514l-0.019158 0.0885803 -0.00134358 0.089684zm-2.26097 0.603112c0,0 0.305173,-0.375303 0.78272,-0.547593 0,0 -0.485032,0.086529 -0.88909,0.410236l0.0281192 0.0839738 0.0782516 0.0533833zm4.35571 -1.42973c0,0 0.457285,-0.169651 0.964043,-0.0700581 0,0 -0.466654,-0.183831 -0.984928,-0.111601l0.0195059 0.0902718 0.00137957 0.0913875z"/>
    </g>
    <path id="_222574784" class="fil1" d="M8.44379 7.30529l0.368885 1.12671 0.192468 -0.0400915c0,0 -0.316761,-0.946288 -0.561353,-1.08662z"/>
    <path id="_254762472" class="fil1" d="M8.29141 7.42958c0.00802549,0.0441102 0.324787,1.03049 0.324787,1.03049 0,0 -0.316761,-0.316761 -0.3328,-0.348839 -0.016039,-0.032078 0.0080135,-0.681651 0.0080135,-0.681651z"/>
    <path id="_167460928" class="fil1" d="M7.01233 8.04307l-0.501203 1.2029 0.280676 0.0280712c0,0 0.176429,-0.601456 0.220527,-1.23097z"/>
    <polygon id="_284239656" class="fil1" points="7.14378,7.9714 7.04025,8.71721 7.26154,8.28416 "/>
   </g>
  </g>
 </g>
</svg>
