<?xml version="1.0" encoding="UTF-8"?>
<!DOCTYPE svg PUBLIC "-//W3C//DTD SVG 1.1//EN" "http://www.w3.org/Graphics/SVG/1.1/DTD/svg11.dtd">
<!-- Creator: CorelDRAW -->
<svg xmlns="http://www.w3.org/2000/svg" xml:space="preserve" width="161.909mm" height="176.792mm" style="shape-rendering:geometricPrecision; text-rendering:geometricPrecision; image-rendering:optimizeQuality; fill-rule:evenodd; clip-rule:evenodd"
viewBox="0 0 57.231 62.4919"
 xmlns:xlink="http://www.w3.org/1999/xlink">
 <defs>
  <style type="text/css">
   <![CDATA[
    .fil0 {fill:none}
    .fil1 {fill:#501D33}
    .fil13 {fill:#603848}
    .fil5 {fill:#75414C}
    .fil11 {fill:#79534F}
    .fil12 {fill:#7F5E67}
    .fil2 {fill:#955B58}
    .fil9 {fill:#9E7A65}
    .fil3 {fill:#BB8778}
    .fil10 {fill:#C7A989}
    .fil4 {fill:#CFA88B}
    .fil6 {fill:#D77D75}
    .fil7 {fill:#FFCFA5}
    .fil8 {fill:white}
   ]]>
  </style>
 </defs>
 <g id="Layer_x0020_1">
  <metadata id="CorelCorpID_0Corel-Layer"/>
  <rect class="fil0" width="57.231" height="62.4919"/>
  <ellipse class="fil1" cx="28.7619" cy="55.9633" rx="17.4563" ry="0.996346"/>
  <g id="_124591096">
   <g>
    <polygon id="_124596040" class="fil2" points="21.0316,52.479 18.7973,55.0806 18.7973,55.8968 25.0827,55.9303 24.919,52.4041 "/>
    <path id="_124595968" class="fil3" d="M21.0316 52.479l-2.23924 2.57586 4.35417 -0.0698471c0,0 1.32448,-0.850289 1.83037,-1.33505l-0.0578288 -1.2459 -3.88747 0.0749371z"/>
    <polygon id="_124595896" class="fil4" points="20.4827,53.1105 18.7923,55.0549 20.357,55.0298 19.3381,54.8149 "/>
    <polygon id="_124595824" class="fil5" points="22.6516,55.9173 25.0827,55.9303 24.9325,52.487 23.9738,52.4919 22.6411,54.9799 "/>
    <polygon id="_124595752" class="fil6" points="25.3448,55.1642 21.8092,55.0102 25.3059,54.5273 "/>
    <path id="_124595680" class="fil1" d="M25.2899 52.3154c0,0 0.718053,3.17087 0.0785072,3.72286 -0.639511,0.551954 -6.77492,0.389673 -7.00634,0.201164 -0.231421,-0.188509 -0.347468,-1.60779 0.910274,-1.91129 0,0 1.03187,-1.98601 1.58308,-2.32245 0.551247,-0.336439 4.43448,0.309717 4.43448,0.309717z"/>
    <path id="_124595608" class="fil7" d="M21.2398 52.4688c0,0 -1.05764,1.09087 -1.67265,2.5474 0,0 -0.414063,0.659411 -0.0127605,0.814623 0.401338,0.155212 4.88099,0.245172 5.34588,-0.193458 0.464928,-0.438665 -0.0625654,-2.90519 -0.0625654,-2.90519 0,0 -3.26047,-0.498403 -3.5979,-0.263376z"/>
    <path id="_124595536" class="fil8" d="M21.2398 52.4688c0,0 -1.05764,1.09087 -1.67265,2.5474 0,0 -0.207067,0.329829 -0.186247,0.577864 0.29434,-0.0837034 0.547465,-0.267511 0.636647,-0.58861 0.248318,-0.893943 1.32105,-2.45338 1.32105,-2.45338 0.0303283,-0.0479315 0.0479315,-0.0906315 0.0551778,-0.129054 -0.0712256,0.0101801 -0.124141,0.0249908 -0.153975,0.0457753z"/>
    <path id="_124595464" class="fil6" d="M21.2398 52.4688c0,0 -0.244005,0.251711 -0.56574,0.674682 0.820102,-0.041074 2.84185,-0.0681504 4.32582,0.530216 -0.0727809,-0.522969 -0.162175,-0.941521 -0.162175,-0.941521 0,0 -3.26044,-0.498403 -3.5979,-0.263376z"/>
    <path id="_124595392" class="fil6" d="M22.7398 55.8746c0.807094,-0.0435484 1.71242,0.113784 2.18516,-0.23234 0.47274,-0.346125 -0.0526681,-2.90024 -0.0526681,-2.90024 0,0 -0.497377,-0.0806635 -1.09217,-0.156272 -0.315938,1.19108 -0.678075,2.28396 -1.04032,3.28886z"/>
    <path id="_124595320" class="fil7" d="M19.6364 54.7661c0.502432,0.0795677 0.456657,0.457717 0.44577,0.7294 -0.0108871,0.271647 0.501195,0.443508 0.146233,0.429298 -0.246762,-0.00989736 -1.35392,0.0123363 -1.4553,-0.148142 -0.211945,-0.335556 0.3609,-1.09009 0.863297,-1.01056z"/>
    <path id="_124595248" class="fil1" d="M19.1871 55.4366c0.00675141,-0.500276 0.413144,-0.871886 0.896488,-0.944985 0.583414,-0.0882632 1.26509,0.218838 1.30949,0.744776 0.0460227,0.544956 -0.263694,0.863544 -1.03643,0.875032 -0.772736,0.011488 -1.27432,-0.178329 -1.16955,-0.674823z"/>
    <path id="_124595176" class="fil7" d="M19.5163 55.4409c0.00477194,-0.353795 0.292184,-0.61657 0.633996,-0.668284 0.412578,-0.062424 0.89465,0.154788 0.926074,0.526716 0.0325199,0.385396 -0.186494,0.610702 -0.73297,0.618797 -0.546475,0.00812997 -0.90119,-0.126085 -0.827101,-0.477229z"/>
    <path id="_124595104" class="fil1" d="M20.0207 55.47c0.00675141,-0.500276 0.413144,-0.871851 0.896488,-0.944985 0.583414,-0.0882632 1.26509,0.218873 1.30949,0.744811 0.0460227,0.544956 -0.263694,0.863544 -1.03643,0.875032 -0.772736,0.011488 -1.27432,-0.178329 -1.16955,-0.674858z"/>
    <path id="_124595032" class="fil7" d="M20.35 55.4743c0.00480729,-0.353795 0.292184,-0.616605 0.633996,-0.668284 0.412578,-0.062424 0.89465,0.154752 0.926074,0.526716 0.0325199,0.385361 -0.186494,0.610667 -0.73297,0.618797 -0.546475,0.00812997 -0.90119,-0.126121 -0.827101,-0.477229z"/>
    <path id="_124594960" class="fil1" d="M21.5207 54.7074c0.205017,-0.268536 0.518728,-0.451355 0.863898,-0.506144 0.720775,-0.114385 1.56219,0.278434 1.61603,0.953434 0.0557433,0.699354 -0.327426,1.10889 -1.28192,1.12512 -0.641207,0.0108517 -1.03226,-0.0653932 -1.24519,-0.329405 -0.249519,-0.309434 -0.166028,-0.963684 0.0471892,-1.243z"/>
    <path id="_124594888" class="fil7" d="M21.7874 55.0904c0.0875563,-0.364753 0.52912,-0.596669 0.966477,-0.655558 0.295542,-0.0397662 0.694052,0.0169669 0.930811,0.144325 0.667011,0.35885 0.941026,1.16128 0.928725,1.17008 -0.281474,0.200457 -1.0996,0.316256 -1.54943,0.322689 -0.768989,0.0110285 -1.48432,-0.115799 -1.27658,-0.981535z"/>
    <path id="_124594816" class="fil8" d="M21.7874 55.0904c0.0875563,-0.364753 0.52912,-0.596669 0.966477,-0.655558 0.295542,-0.0397662 0.694052,0.0169669 0.930811,0.144325 0.00876623,0.00470124 0.0173911,0.00957923 0.0260159,0.0144572 0.00523146,0.00731697 0.00791788,0.0114173 0.00791788,0.0114173 -1.25035,-0.194306 -1.8227,0.476558 -1.96353,0.677227 0.00530216,-0.0595609 0.0158711,-0.123363 0.0323078,-0.191867z"/>
    <path id="_124594744" class="fil6" d="M21.9272 55.6244c0.439337,0.552697 2.34299,0.44121 2.84549,0.0643328 0.316715,-0.237537 -0.0445381,-0.762096 -0.0445381,-0.762096 0,0 -0.97489,0.791788 -2.80095,0.697764z"/>
   </g>
   <g>
    <polygon id="_124594648" class="fil2" points="36.3027,52.479 38.537,55.0806 38.537,55.8968 32.2515,55.9303 32.4152,52.4041 "/>
    <path id="_124594576" class="fil3" d="M36.3027 52.479l2.23924 2.57586 -4.35417 -0.0698471c0,0 -1.32448,-0.850289 -1.83037,-1.33505l0.0578288 -1.2459 3.88747 0.0749371z"/>
    <polygon id="_124594504" class="fil4" points="36.8516,53.1105 38.5419,55.0549 36.9772,55.0298 37.9961,54.8149 "/>
    <polygon id="_124594432" class="fil5" points="34.6826,55.9173 32.2515,55.9303 32.4017,52.487 33.3604,52.4919 34.6932,54.9799 "/>
    <polygon id="_124594360" class="fil6" points="31.9894,55.1642 35.5251,55.0102 32.0283,54.5273 "/>
    <path id="_124594288" class="fil1" d="M32.0443 52.3154c0,0 -0.718053,3.17087 -0.0785072,3.72286 0.639511,0.551954 6.77492,0.389673 7.00634,0.201164 0.231421,-0.188509 0.347468,-1.60779 -0.910274,-1.91129 0,0 -1.03187,-1.98601 -1.58308,-2.32245 -0.551247,-0.336439 -4.43448,0.309717 -4.43448,0.309717z"/>
    <path id="_124594216" class="fil7" d="M36.0945 52.4688c0,0 1.05764,1.09087 1.67265,2.5474 0,0 0.414063,0.659411 0.0127605,0.814623 -0.401338,0.155212 -4.88099,0.245172 -5.34588,-0.193458 -0.464928,-0.438665 0.0625654,-2.90519 0.0625654,-2.90519 0,0 3.26047,-0.498403 3.5979,-0.263376z"/>
    <path id="_124594144" class="fil8" d="M36.0945 52.4688c0,0 1.05764,1.09087 1.67265,2.5474 0,0 0.207067,0.329829 0.186247,0.577864 -0.29434,-0.0837034 -0.547465,-0.267511 -0.636647,-0.58861 -0.248318,-0.893943 -1.32105,-2.45338 -1.32105,-2.45338 -0.0303283,-0.0479315 -0.0479315,-0.0906315 -0.0551778,-0.129054 0.0712256,0.0101801 0.124141,0.0249908 0.153975,0.0457753z"/>
    <path id="_124594072" class="fil6" d="M36.0945 52.4688c0,0 0.244005,0.251711 0.56574,0.674682 -0.820102,-0.041074 -2.84185,-0.0681504 -4.32582,0.530216 0.0727809,-0.522969 0.162175,-0.941521 0.162175,-0.941521 0,0 3.26044,-0.498403 3.5979,-0.263376z"/>
    <path id="_124594000" class="fil6" d="M34.5944 55.8746c-0.807094,-0.0435484 -1.71242,0.113784 -2.18516,-0.23234 -0.47274,-0.346125 0.0526681,-2.90024 0.0526681,-2.90024 0,0 0.497377,-0.0806635 1.09217,-0.156272 0.315938,1.19108 0.678075,2.28396 1.04032,3.28886z"/>
    <path id="_124593928" class="fil7" d="M37.6979 54.7661c-0.502432,0.0795677 -0.456657,0.457717 -0.44577,0.7294 0.0108871,0.271647 -0.501195,0.443508 -0.146233,0.429298 0.246762,-0.00989736 1.35392,0.0123363 1.4553,-0.148142 0.211945,-0.335556 -0.3609,-1.09009 -0.863297,-1.01056z"/>
    <path id="_124593856" class="fil1" d="M38.1472 55.4366c-0.00675141,-0.500276 -0.413144,-0.871886 -0.896488,-0.944985 -0.583414,-0.0882632 -1.26509,0.218838 -1.30949,0.744776 -0.0460227,0.544956 0.263694,0.863544 1.03643,0.875032 0.772736,0.011488 1.27432,-0.178329 1.16955,-0.674823z"/>
    <path id="_124593784" class="fil7" d="M37.818 55.4409c-0.00477194,-0.353795 -0.292184,-0.61657 -0.633996,-0.668284 -0.412578,-0.062424 -0.89465,0.154788 -0.926074,0.526716 -0.0325199,0.385396 0.186494,0.610702 0.73297,0.618797 0.546475,0.00812997 0.90119,-0.126085 0.827101,-0.477229z"/>
    <path id="_124593712" class="fil1" d="M37.3135 55.47c-0.00675141,-0.500276 -0.413144,-0.871851 -0.896488,-0.944985 -0.583414,-0.0882632 -1.26509,0.218873 -1.30949,0.744811 -0.0460227,0.544956 0.263694,0.863544 1.03643,0.875032 0.772736,0.011488 1.27432,-0.178329 1.16955,-0.674858z"/>
    <path id="_124593640" class="fil7" d="M36.9843 55.4743c-0.00480729,-0.353795 -0.292184,-0.616605 -0.633996,-0.668284 -0.412578,-0.062424 -0.89465,0.154752 -0.926074,0.526716 -0.0325199,0.385361 0.186494,0.610667 0.73297,0.618797 0.546475,0.00812997 0.90119,-0.126121 0.827101,-0.477229z"/>
    <path id="_124593568" class="fil1" d="M35.8135 54.7074c-0.205017,-0.268536 -0.518728,-0.451355 -0.863898,-0.506144 -0.720775,-0.114385 -1.56219,0.278434 -1.61603,0.953434 -0.0557433,0.699354 0.327426,1.10889 1.28192,1.12512 0.641207,0.0108517 1.03226,-0.0653932 1.24519,-0.329405 0.249519,-0.309434 0.166028,-0.963684 -0.0471892,-1.243z"/>
    <path id="_124593496" class="fil7" d="M35.5468 55.0904c-0.0875563,-0.364753 -0.52912,-0.596669 -0.966477,-0.655558 -0.295542,-0.0397662 -0.694052,0.0169669 -0.930811,0.144325 -0.667011,0.35885 -0.941026,1.16128 -0.928725,1.17008 0.281474,0.200457 1.0996,0.316256 1.54943,0.322689 0.768989,0.0110285 1.48432,-0.115799 1.27658,-0.981535z"/>
    <path id="_124593424" class="fil8" d="M35.5468 55.0904c-0.0875563,-0.364753 -0.52912,-0.596669 -0.966477,-0.655558 -0.295542,-0.0397662 -0.694052,0.0169669 -0.930811,0.144325 -0.00876623,0.00470124 -0.0173911,0.00957923 -0.0260159,0.0144572 -0.00523146,0.00731697 -0.00791788,0.0114173 -0.00791788,0.0114173 1.25035,-0.194306 1.8227,0.476558 1.96353,0.677227 -0.00530216,-0.0595609 -0.0158711,-0.123363 -0.0323078,-0.191867z"/>
    <path id="_124593352" class="fil6" d="M35.407 55.6244c-0.439337,0.552697 -2.34299,0.44121 -2.84549,0.0643328 -0.316715,-0.237537 0.0445381,-0.762096 0.0445381,-0.762096 0,0 0.97489,0.791788 2.80095,0.697764z"/>
   </g>
   <path id="_124593256" class="fil1" d="M25.7157 40.1612l-0.410493 12.6813 -4.71602 -0.221206 -0.53831 -4.63454 -2.21181 -16.317c5.59904,2.19138 16.0235,2.19138 21.6226,0l-2.77508 20.6584 -4.71096 0.355138 -0.390592 -12.5221 -5.86931 0z"/>
   <path id="_124593184" class="fil9" d="M22.5067 39.5966l2.63853 0.484617 -0.380836 12.1848 -3.65117 -0.212298 -2.41506 -19.5701c5.93873,1.82924 13.9657,1.82921 19.9044,0l-2.39516 19.3512 -3.69097 0.172497 -0.360935 -11.9261 2.63853 -0.484617 -12.2873 0z"/>
   <path id="_124593112" class="fil10" d="M21.4241 52.0655l-0.311307 -0.0154116 -2.41467 -19.5665c0.167937,0.0517137 0.336652,0.101589 0.50572,0.150228l1.02501 8.91593 1.23533 0.478608 -1.06556 0.22513 1.02547 9.81203z"/>
   <path id="_124593040" class="fil10" d="M18.7554 32.9406l-0.0572633 -0.45694c5.93873,1.82924 13.9657,1.82921 19.9044,0l-0.031212 0.248954c-9.93613,2.94726 -18.8371,0.495893 -19.8159,0.207986z"/>
   <path id="_124592968" class="fil11" d="M22.7222 39.6362l2.42305 0.445028 -0.340999 12.2244 -1.13936 -0.0922928c0.113855,-6.26248 -0.840073,-12.2243 -0.942688,-12.5772z"/>
   <path id="_124592896" class="fil10" d="M36.1875 51.8548l2.41506 -19.3711c-0.167937,0.0517137 -0.336652,0.101589 -0.50572,0.150228l-1.04488 8.82653 -2.16901 0.865983 1.9297 -0.0132554 -0.625159 9.54165z"/>
   <path id="_124592824" class="fil11" d="M34.5785 39.6362l-2.42305 0.445028 0.380836 11.946 0.9704 -0.0902427c-0.0578642,-3.32887 0.122162,-9.03498 1.07181,-12.3008z"/>
   <path id="_124592752" class="fil11" d="M33.9097 39.2966l-10.3385 -0.0748664c0,0 5.41301,-1.47266 10.3385,0.0748664z"/>
   <path id="_124592680" class="fil1" d="M38.7147 33.5899c0,0 -3.04291,1.29355 -8.21014,1.43285 0,0 3.5405,0.517243 8.32495,-0.955413l0.135983 -0.41219 -0.250792 -0.0652519z"/>
   <path id="_124592608" class="fil1" d="M18.6692 33.3912c0,0 2.72241,1.31341 7.3472,1.63151 0,0 -3.38585,0.239127 -7.27335,-0.925615l-0.0448916 -0.441988 -0.0289498 -0.263906z"/>
   <path id="_124592536" class="fil1" d="M28.2368 33.7033c0,0 0.243934,4.73765 0.320568,4.73765 0.0765985,0 0.374933,-4.73765 0.374933,-4.73765l-0.695501 0z"/>
   <g>
    <path id="_124592464" class="fil11" d="M20.3141 45.6314c0,0 1.71146,2.40799 2.12938,2.5473 0.417916,0.139305 2.02988,-1.87067 2.02988,-1.87067l-1.07464 -1.45276 -3.08462 0.776129z"/>
    <path id="_124592392" class="fil1" d="M19.7402 44.8995c0,0 2.14274,2.65334 2.67837,2.69982 0.535624,0.0464822 2.74793,-3.19038 2.74793,-3.19038l-2.77836 -2.86249c-0.264083,-0.22315 -0.277373,-0.331526 -0.527635,-0.000530216 -0.589741,0.780194 -2.10156,2.82891 -2.1203,3.35358z"/>
    <path id="_124592320" class="fil12" d="M20.2525 44.809c0,0 1.73815,2.15229 2.17265,2.19 0.434459,0.037716 2.22903,-2.58795 2.22903,-2.58795l-2.54002 -2.45281c0,0 -1.84275,2.32185 -1.86166,2.85076z"/>
    <path id="_124592248" class="fil13" d="M20.2525 44.809c0,0 1.73815,2.15229 2.17265,2.19 0.434459,0.037716 2.22903,-2.58795 2.22903,-2.58795l-2.48031 -1.85568c0,0 -1.90245,1.72472 -1.92136,2.25363z"/>
    <path id="_124592176" class="fil1" d="M23.7338 41.8617c0,0 -0.809215,0.709287 -1.00918,1.79651 0.597942,-0.519046 0.972345,-1.07856 1.00918,-1.79651z"/>
    <path id="_124592104" class="fil1" d="M20.2352 42.526c0,0 0.567543,0.79504 1.50814,0.920242 -0.414947,-0.587868 -0.880547,-0.937633 -1.50814,-0.920242z"/>
    <path id="_124592032" class="fil1" d="M24.6905 42.9853c0,0 -0.916354,0.338454 -1.28454,1.21299 0.676308,-0.245702 1.13622,-0.602926 1.28454,-1.21299z"/>
    <path id="_124591960" class="fil1" d="M24.511 46.844c0,0 -0.42039,-0.881748 -1.32483,-1.16888 0.306217,0.65114 0.703808,1.07669 1.32483,1.16888z"/>
    <path id="_124591888" class="fil1" d="M21.6287 45.3805c0,0 -0.86001,0.463232 -1.10235,1.38065 0.635304,-0.337818 1.04078,-0.75584 1.10235,-1.38065z"/>
   </g>
   <g>
    <path id="_124591792" class="fil11" d="M36.8984 45.6314c0,0 -1.58336,2.40799 -1.99386,2.5473 -0.410528,0.139305 -2.12942,-1.87067 -2.12942,-1.87067l0.997371 -1.45276 3.1259 0.776129z"/>
    <path id="_124591720" class="fil1" d="M37.4335 44.8995c0,0 -2.00163,2.65334 -2.53475,2.69982 -0.533149,0.0464822 -2.91763,-3.19038 -2.91763,-3.19038l2.62609 -2.86249c0.25217,-0.22315 0.259735,-0.331526 0.5276,-0.000530216 0.631239,0.780194 2.25204,2.82891 2.2987,3.35358z"/>
    <path id="_124591648" class="fil12" d="M36.9163 44.809c0,0 -1.62366,2.15229 -2.05611,2.19 -0.432479,0.037716 -2.36671,-2.58795 -2.36671,-2.58795l2.40951 -2.45281c0,0 1.96629,2.32185 2.0133,2.85076z"/>
    <path id="_124591576" class="fil13" d="M36.9163 44.809c0,0 -1.62366,2.15229 -2.05611,2.19 -0.432479,0.037716 -2.36671,-2.58795 -2.36671,-2.58795l2.38159 -1.85568c0,0 1.99421,1.72472 2.04122,2.25363z"/>
    <path id="_124591504" class="fil1" d="M36.8122 42.526c0,0 -0.525267,0.79504 -1.45919,0.920242 0.383664,-0.587868 0.830671,-0.937633 1.45919,-0.920242z"/>
    <path id="_124591432" class="fil1" d="M32.9843 42.3485c0,0 0.93431,0.338454 1.34904,1.21299 -0.689351,-0.245702 -1.16831,-0.602926 -1.34904,-1.21299z"/>
    <path id="_124591360" class="fil1" d="M32.7661 46.844c0,0 0.373484,-0.881748 1.26262,-1.16888 -0.271541,0.65114 -0.646474,1.07669 -1.26262,1.16888z"/>
    <path id="_124591288" class="fil1" d="M35.5706 45.3805c0,0 0.884647,0.463232 1.17581,1.38065 -0.653296,-0.337818 -1.08104,-0.75584 -1.17581,-1.38065z"/>
   </g>
   <polygon id="_124591192" class="fil1" points="32.2225,50.6151 35.5798,50.8535 32.1232,51.1713 "/>
   <polygon id="_124591120" class="fil1" points="25.0638,50.6151 21.7066,50.8535 25.1631,51.1713 "/>
  </g>
 </g>
</svg>
