<?xml version="1.0" encoding="UTF-8"?>
<!DOCTYPE svg PUBLIC "-//W3C//DTD SVG 1.1//EN" "http://www.w3.org/Graphics/SVG/1.1/DTD/svg11.dtd">
<!-- Creator: CorelDRAW -->
<svg xmlns="http://www.w3.org/2000/svg" xml:space="preserve" width="161.909mm" height="176.792mm" style="shape-rendering:geometricPrecision; text-rendering:geometricPrecision; image-rendering:optimizeQuality; fill-rule:evenodd; clip-rule:evenodd"
viewBox="0 0 451.614 493.128"
 xmlns:xlink="http://www.w3.org/1999/xlink">
 <defs>
  <style type="text/css">
   <![CDATA[
    .fil0 {fill:none}
    .fil1 {fill:#501D33}
    .fil5 {fill:#75414C}
    .fil2 {fill:#955B58}
    .fil12 {fill:#A33B44}
    .fil11 {fill:#A9364B}
    .fil3 {fill:#BB8778}
    .fil4 {fill:#CFA88B}
    .fil6 {fill:#D77D75}
    .fil9 {fill:#DB6056}
    .fil10 {fill:#E99872}
    .fil13 {fill:#EDCB7C}
    .fil7 {fill:#FFCFA5}
    .fil8 {fill:white}
   ]]>
  </style>
 </defs>
 <g id="Layer_x0020_1">
  <metadata id="CorelCorpID_0Corel-Layer"/>
  <rect class="fil0" width="451.614" height="493.128"/>
  <ellipse class="fil1" cx="227.237" cy="441.61" rx="137.749" ry="7.86223"/>
  <g id="_125242992">
   <g>
    <g>
     <polygon id="_125234304" class="fil2" points="165.962,414.115 148.33,434.644 148.33,441.085 197.929,441.349 196.638,413.524 "/>
     <path id="_125234232" class="fil3" d="M165.961 414.115l-17.67 20.3263 34.359 -0.551167c0,0 10.4515,-6.70968 14.4436,-10.5349l-0.456331 -9.83148 -30.6763 0.591334z"/>
     <polygon id="_125234160" class="fil4" points="161.63,419.098 148.291,434.442 160.639,434.244 152.598,432.548 "/>
     <polygon id="_125234088" class="fil5" points="178.745,441.247 197.929,441.349 196.744,414.178 189.179,414.217 178.662,433.85 "/>
     <polygon id="_125234016" class="fil6" points="199.998,435.304 172.098,434.089 199.691,430.279 "/>
     <path id="_125233944" class="fil1" d="M199.564 412.824c0,0 5.6662,25.0215 0.619506,29.3773 -5.04642,4.35551 -53.4613,3.07493 -55.2875,1.5874 -1.82616,-1.48754 -2.74189,-12.6872 7.18303,-15.0821 0,0 8.14255,-15.6717 12.4922,-18.3266 4.34993,-2.65486 34.9927,2.44399 34.9927,2.44399z"/>
     <path id="_125233872" class="fil7" d="M167.605 414.034c0,0 -8.34589,8.60809 -13.199,20.1017 0,0 -3.2674,5.20346 -0.100694,6.42824 3.16698,1.22479 38.5162,1.93466 42.1847,-1.52659 3.66878,-3.46153 -0.493708,-22.9251 -0.493708,-22.9251 0,0 -25.7286,-3.93293 -28.3913,-2.07831z"/>
     <path id="_125233800" class="fil8" d="M167.605 414.034c0,0 -8.34589,8.60809 -13.199,20.1017 0,0 -1.63398,2.6027 -1.46969,4.55996 2.32266,-0.660508 4.32008,-2.11095 5.02382,-4.64476 1.95949,-7.05416 10.4245,-19.3598 10.4245,-19.3598 0.239323,-0.37823 0.37823,-0.715179 0.435411,-1.01838 -0.562046,0.0803321 -0.979605,0.197204 -1.21502,0.361216z"/>
     <path id="_125233728" class="fil6" d="M167.605 414.034c0,0 -1.92546,1.98627 -4.46429,5.32395 6.47148,-0.324118 22.4252,-0.537779 34.1353,4.18396 -0.574319,-4.12678 -1.27974,-7.4296 -1.27974,-7.4296 0,0 -25.7283,-3.93293 -28.3913,-2.07831z"/>
     <path id="_125233656" class="fil6" d="M179.442 440.91c6.36883,-0.343643 13.5128,0.897879 17.2432,-1.83341 3.73042,-2.73129 -0.415607,-22.886 -0.415607,-22.886 0,0 -3.92484,-0.63652 -8.61841,-1.23315 -2.49308,9.39886 -5.35073,18.0228 -8.20922,25.9526z"/>
     <path id="_125233584" class="fil7" d="M154.952 432.163c3.96472,0.627874 3.60351,3.61188 3.5176,5.75574 -0.0859107,2.14358 3.95496,3.49975 1.15394,3.38762 -1.94722,-0.0781007 -10.6839,0.0973469 -11.4839,-1.169 -1.67247,-2.64789 2.84788,-8.60195 6.81233,-7.97436z"/>
     <path id="_125233512" class="fil1" d="M151.406 437.454c0.0532758,-3.94771 3.26014,-6.88011 7.07425,-7.45694 4.60375,-0.696491 9.98294,1.72686 10.3333,5.87707 0.363168,4.30028 -2.08082,6.81428 -8.17853,6.90493 -6.09771,0.0906525 -10.0557,-1.40721 -9.22899,-5.32507z"/>
     <path id="_125233440" class="fil7" d="M154.004 437.488c0.0376557,-2.79182 2.30564,-4.86539 5.0029,-5.27347 3.25568,-0.492592 7.05974,1.22144 7.30771,4.15635 0.256616,3.04118 -1.47164,4.81909 -5.78391,4.88296 -4.31227,0.0641541 -7.11134,-0.994947 -6.5267,-3.76585z"/>
     <path id="_125233368" class="fil1" d="M157.985 437.717c0.0532758,-3.94771 3.26014,-6.87983 7.07425,-7.45694 4.60375,-0.696491 9.98294,1.72714 10.3333,5.87735 0.363168,4.30028 -2.08082,6.81428 -8.17853,6.90493 -6.09771,0.0906525 -10.0557,-1.40721 -9.22899,-5.32535z"/>
     <path id="_125233296" class="fil7" d="M160.583 437.751c0.0379346,-2.79182 2.30564,-4.86567 5.0029,-5.27347 3.25568,-0.492592 7.05974,1.22116 7.30771,4.15635 0.256616,3.0409 -1.47164,4.81881 -5.78391,4.88296 -4.31227,0.0641541 -7.11134,-0.995226 -6.5267,-3.76585z"/>
     <path id="_125233224" class="fil1" d="M169.822 431.699c1.6178,-2.11904 4.09331,-3.56167 6.81707,-3.99401 5.68768,-0.90262 12.3274,2.19714 12.7522,7.5236 0.439874,5.51865 -2.58374,8.75034 -10.1157,8.87837 -5.05981,0.0856318 -8.14562,-0.516022 -9.8259,-2.59936 -1.96897,-2.44176 -1.31014,-7.60449 0.372373,-9.80861z"/>
     <path id="_125233152" class="fil7" d="M171.926 434.722c0.690912,-2.87829 4.17532,-4.70835 7.62653,-5.17305 2.33214,-0.313797 5.47681,0.133887 7.34509,1.13887 5.26343,2.83171 7.4257,9.16372 7.32863,9.23317 -2.22113,1.58182 -8.67698,2.49559 -12.2267,2.54636 -6.06814,0.0870264 -11.7129,-0.913778 -10.0736,-7.74535z"/>
     <path id="_125233080" class="fil8" d="M171.926 434.722c0.690912,-2.87829 4.17532,-4.70835 7.62653,-5.17305 2.33214,-0.313797 5.47681,0.133887 7.34509,1.13887 0.0691749,0.0370978 0.137234,0.0755903 0.205293,0.114083 0.0412818,0.0577387 0.0624805,0.0900947 0.0624805,0.0900947 -9.86662,-1.53328 -14.3831,3.76055 -15.4943,5.34404 0.0418396,-0.469999 0.12524,-0.973469 0.254943,-1.51404z"/>
     <path id="_125233008" class="fil6" d="M173.029 438.936c3.46683,4.36136 18.4887,3.48162 22.4539,0.507654 2.49922,-1.87442 -0.351453,-6.01375 -0.351453,-6.01375 0,0 -7.69291,6.24805 -22.1025,5.5061z"/>
    </g>
    <g>
     <polygon id="_125232912" class="fil2" points="286.467,414.115 304.098,434.644 304.098,441.085 254.499,441.349 255.791,413.524 "/>
     <path id="_125232840" class="fil3" d="M286.467 414.115l17.67 20.3263 -34.359 -0.551167c0,0 -10.4515,-6.70968 -14.4436,-10.5349l0.456331 -9.83148 30.6763 0.591334z"/>
     <polygon id="_125232768" class="fil4" points="290.798,419.098 304.137,434.442 291.79,434.244 299.83,432.548 "/>
     <polygon id="_125232696" class="fil5" points="273.683,441.247 254.499,441.349 255.684,414.178 263.249,414.217 273.766,433.85 "/>
     <polygon id="_125232624" class="fil6" points="252.431,435.304 280.331,434.089 252.738,430.279 "/>
     <path id="_125232552" class="fil1" d="M252.864 412.824c0,0 -5.6662,25.0215 -0.619506,29.3773 5.04642,4.35551 53.4613,3.07493 55.2875,1.5874 1.82616,-1.48754 2.74189,-12.6872 -7.18303,-15.0821 0,0 -8.14255,-15.6717 -12.4922,-18.3266 -4.34993,-2.65486 -34.9927,2.44399 -34.9927,2.44399z"/>
     <path id="_125232480" class="fil7" d="M284.824 414.034c0,0 8.34589,8.60809 13.199,20.1017 0,0 3.2674,5.20346 0.100694,6.42824 -3.16698,1.22479 -38.5162,1.93466 -42.1847,-1.52659 -3.66878,-3.46153 0.493708,-22.9251 0.493708,-22.9251 0,0 25.7286,-3.93293 28.3913,-2.07831z"/>
     <path id="_125232408" class="fil8" d="M284.824 414.034c0,0 8.34589,8.60809 13.199,20.1017 0,0 1.63398,2.6027 1.46969,4.55996 -2.32266,-0.660508 -4.32008,-2.11095 -5.02382,-4.64476 -1.95949,-7.05416 -10.4245,-19.3598 -10.4245,-19.3598 -0.239323,-0.37823 -0.37823,-0.715179 -0.435411,-1.01838 0.562046,0.0803321 0.979605,0.197204 1.21502,0.361216z"/>
     <path id="_125232336" class="fil6" d="M284.824 414.034c0,0 1.92546,1.98627 4.46429,5.32395 -6.47148,-0.324118 -22.4252,-0.537779 -34.1353,4.18396 0.574319,-4.12678 1.27974,-7.4296 1.27974,-7.4296 0,0 25.7283,-3.93293 28.3913,-2.07831z"/>
     <path id="_125232264" class="fil6" d="M272.987 440.91c-6.36883,-0.343643 -13.5128,0.897879 -17.2432,-1.83341 -3.73042,-2.73129 0.415607,-22.886 0.415607,-22.886 0,0 3.92484,-0.63652 8.61841,-1.23315 2.49308,9.39886 5.35073,18.0228 8.20922,25.9526z"/>
     <path id="_125232192" class="fil7" d="M297.476 432.163c-3.96472,0.627874 -3.60351,3.61188 -3.5176,5.75574 0.0859107,2.14358 -3.95496,3.49975 -1.15394,3.38762 1.94722,-0.0781007 10.6839,0.0973469 11.4839,-1.169 1.67247,-2.64789 -2.84788,-8.60195 -6.81233,-7.97436z"/>
     <path id="_125232120" class="fil1" d="M301.022 437.454c-0.0532758,-3.94771 -3.26014,-6.88011 -7.07425,-7.45694 -4.60375,-0.696491 -9.98294,1.72686 -10.3333,5.87707 -0.363168,4.30028 2.08082,6.81428 8.17853,6.90493 6.09771,0.0906525 10.0557,-1.40721 9.22899,-5.32507z"/>
     <path id="_125232048" class="fil7" d="M298.424 437.488c-0.0376557,-2.79182 -2.30564,-4.86539 -5.0029,-5.27347 -3.25568,-0.492592 -7.05974,1.22144 -7.30771,4.15635 -0.256616,3.04118 1.47164,4.81909 5.78391,4.88296 4.31227,0.0641541 7.11134,-0.994947 6.5267,-3.76585z"/>
     <path id="_125231976" class="fil1" d="M294.443 437.717c-0.0532758,-3.94771 -3.26014,-6.87983 -7.07425,-7.45694 -4.60375,-0.696491 -9.98294,1.72714 -10.3333,5.87735 -0.363168,4.30028 2.08082,6.81428 8.17853,6.90493 6.09771,0.0906525 10.0557,-1.40721 9.22899,-5.32535z"/>
     <path id="_125231904" class="fil7" d="M291.845 437.751c-0.0379346,-2.79182 -2.30564,-4.86567 -5.0029,-5.27347 -3.25568,-0.492592 -7.05974,1.22116 -7.30771,4.15635 -0.256616,3.0409 1.47164,4.81881 5.78391,4.88296 4.31227,0.0641541 7.11134,-0.995226 6.5267,-3.76585z"/>
     <path id="_125231832" class="fil1" d="M282.607 431.699c-1.6178,-2.11904 -4.09331,-3.56167 -6.81707,-3.99401 -5.68768,-0.90262 -12.3274,2.19714 -12.7522,7.5236 -0.439874,5.51865 2.58374,8.75034 10.1157,8.87837 5.05981,0.0856318 8.14562,-0.516022 9.8259,-2.59936 1.96897,-2.44176 1.31014,-7.60449 -0.372373,-9.80861z"/>
     <path id="_125231760" class="fil7" d="M280.502 434.722c-0.690912,-2.87829 -4.17532,-4.70835 -7.62653,-5.17305 -2.33214,-0.313797 -5.47681,0.133887 -7.34509,1.13887 -5.26343,2.83171 -7.4257,9.16372 -7.32863,9.23317 2.22113,1.58182 8.67698,2.49559 12.2267,2.54636 6.06814,0.0870264 11.7129,-0.913778 10.0736,-7.74535z"/>
     <path id="_125231688" class="fil8" d="M280.502 434.722c-0.690912,-2.87829 -4.17532,-4.70835 -7.62653,-5.17305 -2.33214,-0.313797 -5.47681,0.133887 -7.34509,1.13887 -0.0691749,0.0370978 -0.137234,0.0755903 -0.205293,0.114083 -0.0412818,0.0577387 -0.0624805,0.0900947 -0.0624805,0.0900947 9.86662,-1.53328 14.3831,3.76055 15.4943,5.34404 -0.0418396,-0.469999 -0.12524,-0.973469 -0.254943,-1.51404z"/>
     <path id="_125231616" class="fil6" d="M279.399 438.936c-3.46683,4.36136 -18.4887,3.48162 -22.4539,0.507654 -2.49922,-1.87442 0.351453,-6.01375 0.351453,-6.01375 0,0 7.69291,6.24805 22.1025,5.5061z"/>
    </g>
    <path id="_125231520" class="fil1" d="M202.924 316.915l-3.23922 100.069 -37.2144 -1.74555 -4.24784 -36.5715 -17.4535 -128.759c44.1824,17.2923 126.443,17.2923 170.625,0l-21.8983 163.017 -37.1745 2.80242 -3.08219 -98.8124 -46.3151 0z"/>
    <path id="_125231448" class="fil9" d="M177.602 312.46l20.8208 3.82414 -3.0052 96.1511 -28.8116 -1.67526 -19.0574 -154.429c46.8629,14.4347 110.204,14.4344 157.067,0l-18.9004 152.702 -29.1257 1.36118 -2.84816 -94.1096 20.8208 -3.82414 -96.96 0z"/>
    <path id="_125231376" class="fil10" d="M169.059 410.852l-2.45654 -0.121614 -19.0543 -154.401c1.3252,0.408076 2.65654,0.801647 3.99066,1.18546l12.883 90.828 4.63723 62.5087z"/>
    <path id="_125231304" class="fil10" d="M148 259.936l-0.451868 -3.60574c46.8629,14.4347 110.204,14.4344 157.067,0l-0.246296 1.96451c-28.0451,11.2998 -44.08,14.946 -81.9541,14.7906 -40.1248,-0.164569 -69.6083,-11.7357 -74.4146,-13.1494z"/>
    <path id="_125231232" class="fil11" d="M179.302 312.772l19.1204 3.51174 -2.69085 96.4638 -8.99078 -0.728289c0.898436,-49.4176 -6.62907,-96.4627 -7.43881,-99.2472z"/>
    <path id="_125231160" class="fil10" d="M285.558 409.189l19.0574 -152.859c-1.3252,0.408076 -2.65654,0.801647 -3.99066,1.18546l-11.543 79.7012 -3.52373 71.9723z"/>
    <path id="_125231088" class="fil11" d="M272.861 312.772l-19.1204 3.51174 3.0052 94.2667 7.65749 -0.712111c-0.45661,-26.2683 0.963985,-71.2956 8.45774,-97.0663z"/>
    <path id="_125231016" class="fil11" d="M267.584 310.092l-81.582 -0.590776c0,0 42.7144,-11.6208 81.582,0.590776z"/>
    <polygon id="_125230944" class="fil12" points="256.939,393.282 283.432,395.163 256.156,397.672 "/>
    <polygon id="_125230872" class="fil12" points="193.518,393.753 169.013,395.635 194.243,398.143 "/>
    <polygon id="_125230800" class="fil10" points="163.463,356.564 186.585,358.053 161.817,351.469 "/>
    <polygon id="_124609144" class="fil10" points="293.711,329.461 268.585,330.875 293.554,324.75 "/>
    <g>
     <path id="_124609072" class="fil9" d="M275.668 257.813l11.5539 -1.73802c0,0 4.17894,9.76956 2.15084,23.1354l-0.307103 1.01893 -10.8164 2.69726c0,0 2.7656,-15.6436 -2.58123,-25.1135z"/>
     <path id="_124609000" class="fil1" d="M286.252 254.868c0,0 3.09585,9.058 2.53297,26.8993 0,0 3.64451,-6.54958 3.15276,-14.2899 -0.491755,-7.74033 -5.68573,-12.6094 -5.68573,-12.6094z"/>
     <path id="_124608928" class="fil1" d="M275.313 257.326c0,0 3.09585,9.058 2.53297,26.8993 0,0 3.15164,-6.42964 2.66016,-14.17 -0.491197,-7.74033 -5.19314,-12.7293 -5.19314,-12.7293z"/>
     <path id="_124608856" class="fil11" d="M281.481 269.081c0,0 0.640146,7.85163 -3.47743,14.3248l9.27975 -1.25882c0,0 2.45822,-7.0126 0.123009,-13.8453l-5.92533 0.779333z"/>
     <path id="_124608784" class="fil10" d="M277.757 258.592c0,0 2.51986,2.33744 3.74883,7.61175l5.10109 -0.359542c0,0 0.67585,-4.61519 -0.737493,-8.51102l-6.88318 1.25882 -1.22925 0z"/>
    </g>
    <g>
     <path id="_124608688" class="fil9" d="M179.346 257.813l-11.5539 -1.73802c0,0 -4.17894,9.76956 -2.15084,23.1354l0.307103 1.01893 10.8164 2.69726c0,0 -2.7656,-15.6436 2.58123,-25.1135z"/>
     <path id="_124608616" class="fil1" d="M168.762 254.868c0,0 -3.09585,9.058 -2.53297,26.8993 0,0 -3.64451,-6.54958 -3.15276,-14.2899 0.491755,-7.74033 5.68573,-12.6094 5.68573,-12.6094z"/>
     <path id="_124608544" class="fil1" d="M179.701 257.326c0,0 -3.09585,9.058 -2.53297,26.8993 0,0 -3.15164,-6.42964 -2.66016,-14.17 0.491197,-7.74033 5.19314,-12.7293 5.19314,-12.7293z"/>
     <path id="_124608472" class="fil11" d="M173.533 269.081c0,0 -0.640146,7.85163 3.47743,14.3248l-9.27975 -1.25882c0,0 -2.45822,-7.0126 -0.123009,-13.8453l5.92533 0.779333z"/>
     <path id="_124608400" class="fil10" d="M177.256 258.592c0,0 -2.51986,2.33744 -3.74883,7.61175l-5.10109 -0.359542c0,0 -0.67585,-4.61519 0.737493,-8.51102l6.88318 1.25882 1.22925 0z"/>
    </g>
    <polygon id="_124608304" class="fil1" points="252.318,331.107 297.073,322.564 296.211,325.464 253.102,334.086 "/>
    <polygon id="_124608232" class="fil1" points="158.114,348.667 199.959,358.972 199.154,360.66 157.937,352.641 "/>
    <path id="_124608160" class="fil1" d="M268.777 322.876c0,0 -6.38557,5.59703 -7.96348,14.1764 4.7184,-4.09582 7.67283,-8.51102 7.96348,-14.1764z"/>
    <path id="_124608088" class="fil1" d="M175.785 348.061c0,0 -7.63629,2.82278 -12.0738,10.2011 5.62855,-2.04875 9.80861,-5.04949 12.0738,-10.2011z"/>
    <path id="_124608016" class="fil1" d="M279.764 319.967c0,0 1.7581,8.30712 8.46918,13.8802 -1.26439,-6.11863 -3.67017,-10.8554 -8.46918,-13.8802z"/>
    <path id="_124607944" class="fil1" d="M186.542 349.444c0,0 -1.38768,8.3657 2.57788,16.0338 1.04934,-6.15043 0.598586,-11.4417 -2.57788,-16.0338z"/>
   </g>
   <polygon id="_124607848" class="fil10" points="219.933,270.572 220.404,298.054 232.182,307.633 217.106,304.807 212.081,269.63 "/>
   <polygon id="_121758456" class="fil1" points="218.119,301.511 232.619,307.546 214.983,306.292 210.594,266.24 215.611,265.534 "/>
   <circle id="_125240568" class="fil11" cx="226.936" cy="278.898" r="8.19053"/>
   <g>
    <circle id="_121758840" class="fil1" transform="matrix(0.153459 0.948652 0.948652 -0.153459 226.936 277.471)" r="7.85191"/>
    <circle id="_121758768" class="fil13" transform="matrix(0.102203 0.631796 0.631796 -0.102203 226.936 277.471)" r="7.85191"/>
    <path id="_121758696" class="fil1" d="M223.967 275.316l-0.011994 0.0167359c-0.335275,0.464141 -0.306824,1.06189 0.0630384,1.32855l1.45128 1.04739 -1.04711 1.45128c-0.266937,0.369862 -0.105436,0.945855 0.358984,1.28085l0.0170148 0.012273c0.464141,0.334996 1.06189,0.306545 1.32855,-0.0630384l1.04711 -1.45156 1.45156 1.04739c0.369862,0.266658 0.945855,0.105157 1.28085,-0.359263l0.011994 -0.0167359c0.335275,-0.46442 0.306824,-1.06189 -0.0630384,-1.32883l-1.45128 -1.04711 1.04711 -1.45156c0.266937,-0.369583 0.105436,-0.945576 -0.358705,-1.28057l-0.0172937 -0.0125519c-0.464141,-0.334717 -1.06161,-0.306545 -1.32855,0.0633173l-1.04711 1.45156 -1.45156 -1.04739c-0.369862,-0.266658 -0.945855,-0.105157 -1.28085,0.359263z"/>
   </g>
  </g>
 </g>
</svg>
