<?xml version="1.0" encoding="UTF-8"?>
<!DOCTYPE svg PUBLIC "-//W3C//DTD SVG 1.1//EN" "http://www.w3.org/Graphics/SVG/1.1/DTD/svg11.dtd">
<!-- Creator: CorelDRAW -->
<svg xmlns="http://www.w3.org/2000/svg" xml:space="preserve" width="161.909mm" height="176.792mm" style="shape-rendering:geometricPrecision; text-rendering:geometricPrecision; image-rendering:optimizeQuality; fill-rule:evenodd; clip-rule:evenodd"
viewBox="0 0 76.6608 83.7077"
 xmlns:xlink="http://www.w3.org/1999/xlink">
 <defs>
  <style type="text/css">
   <![CDATA[
    .fil0 {fill:none}
    .fil1 {fill:#501D33}
    .fil5 {fill:#75414C}
    .fil11 {fill:#784258}
    .fil2 {fill:#955B58}
    .fil9 {fill:#9A6C73}
    .fil3 {fill:#BB8778}
    .fil10 {fill:#C6A0A4}
    .fil4 {fill:#CFA88B}
    .fil6 {fill:#D77D75}
    .fil7 {fill:#FFCFA5}
    .fil8 {fill:white}
   ]]>
  </style>
 </defs>
 <g id="Layer_x0020_1">
  <metadata id="CorelCorpID_0Corel-Layer"/>
  <rect class="fil0" width="76.6608" height="83.7077"/>
  <ellipse class="fil1" cx="38.5732" cy="74.9626" rx="23.3826" ry="1.3346"/>
  <g id="_124586200">
   <g>
    <polygon id="_124590808" class="fil2" points="28.2768,70.2955 25.2839,73.7803 25.2839,74.8736 33.7033,74.9185 33.484,70.1951 "/>
    <path id="_124590736" class="fil3" d="M28.2767 70.2955l-2.99946 3.45035 5.83239 -0.0935599c0,0 1.77414,-1.13896 2.45178,-1.78829l-0.0774616 -1.66888 -5.20725 0.100378z"/>
    <polygon id="_124590664" class="fil4" points="27.5415,71.1413 25.2773,73.7459 27.3732,73.7123 26.0084,73.4244 "/>
    <polygon id="_124590592" class="fil5" points="30.4468,74.9011 33.7033,74.9185 33.5021,70.3062 32.2179,70.3127 30.4327,73.6454 "/>
    <polygon id="_124590520" class="fil6" points="34.0544,73.8922 29.3184,73.686 34.0022,73.0392 "/>
    <path id="_124590448" class="fil1" d="M33.9808 70.0763c0,0 0.96183,4.24737 0.10516,4.98675 -0.856623,0.739341 -9.07498,0.521966 -9.38497,0.269458 -0.309988,-0.252508 -0.465432,-2.15363 1.21931,-2.56016 0,0 1.38219,-2.66026 2.12053,-3.11092 0.738394,-0.45066 5.93997,0.414864 5.93997,0.414864z"/>
    <path id="_124590376" class="fil7" d="M28.5557 70.2818c0,0 -1.4167,1.46121 -2.24051,3.41224 0,0 -0.554636,0.88328 -0.0170927,1.09119 0.537591,0.207906 6.53807,0.328407 7.16079,-0.259136 0.62277,-0.587591 -0.0838062,-3.8915 -0.0838062,-3.8915 0,0 -4.36739,-0.667609 -4.81938,-0.352791z"/>
    <path id="_124590304" class="fil8" d="M28.5557 70.2818c0,0 -1.4167,1.46121 -2.24051,3.41224 0,0 -0.277365,0.441806 -0.249477,0.774048 0.394268,-0.11212 0.733328,-0.358331 0.852788,-0.788441 0.332621,-1.19743 1.76954,-3.28629 1.76954,-3.28629 0.0406247,-0.0642041 0.0642041,-0.121401 0.0739105,-0.172868 -0.0954065,0.0136363 -0.166287,0.0334751 -0.206249,0.0613159z"/>
    <path id="_124590232" class="fil6" d="M28.5557 70.2818c0,0 -0.326844,0.337166 -0.757807,0.903734 1.09852,-0.0550186 3.80665,-0.0912872 5.79442,0.710222 -0.0974898,-0.700516 -0.217233,-1.26117 -0.217233,-1.26117 0,0 -4.36735,-0.667609 -4.81938,-0.352791z"/>
    <path id="_124590160" class="fil6" d="M30.565 74.8439c1.0811,-0.0583329 2.29378,0.152414 2.92702,-0.311219 0.633234,-0.463633 -0.0705487,-3.88487 -0.0705487,-3.88487 0,0 -0.666236,-0.108048 -1.46296,-0.209326 -0.423198,1.59544 -0.90828,3.05935 -1.3935,4.40541z"/>
    <path id="_124590088" class="fil7" d="M26.4079 73.3591c0.673007,0.106581 0.611691,0.613111 0.597108,0.977029 -0.0145832,0.363871 0.671349,0.594077 0.195879,0.575043 -0.330537,-0.0132575 -1.81358,0.0165245 -1.94937,-0.198436 -0.2839,-0.449476 0.483425,-1.46017 1.15638,-1.35364z"/>
    <path id="_124590016" class="fil1" d="M25.806 74.2572c0.0090435,-0.670118 0.553405,-1.16789 1.20084,-1.26581 0.781481,-0.118228 1.69459,0.293132 1.75406,0.997626 0.0616473,0.729966 -0.353217,1.15672 -1.3883,1.1721 -1.03508,0.0153881 -1.70695,-0.238871 -1.56661,-0.903924z"/>
    <path id="_124589944" class="fil7" d="M26.247 74.263c0.006392,-0.473908 0.39138,-0.825894 0.849236,-0.895164 0.552648,-0.0836168 1.19838,0.207338 1.24047,0.705535 0.0435603,0.516237 -0.249809,0.818034 -0.981811,0.828877 -0.732002,0.0108901 -1.20714,-0.168891 -1.1079,-0.639247z"/>
    <path id="_124589872" class="fil1" d="M26.9227 74.3019c0.0090435,-0.670118 0.553405,-1.16784 1.20084,-1.26581 0.781481,-0.118228 1.69459,0.29318 1.75406,0.997673 0.0616473,0.729966 -0.353217,1.15672 -1.3883,1.1721 -1.03508,0.0153881 -1.70695,-0.238871 -1.56661,-0.903971z"/>
    <path id="_124589800" class="fil7" d="M27.3637 74.3077c0.00643935,-0.473908 0.39138,-0.825941 0.849236,-0.895164 0.552648,-0.0836168 1.19838,0.20729 1.24047,0.705535 0.0435603,0.51619 -0.249809,0.817987 -0.981811,0.828877 -0.732002,0.0108901 -1.20714,-0.168938 -1.1079,-0.639247z"/>
    <path id="_124589728" class="fil1" d="M28.932 73.2804c0.274619,-0.359704 0.694834,-0.604589 1.15719,-0.677978 0.965476,-0.153219 2.09255,0.372961 2.16466,1.27712 0.074668,0.936783 -0.438586,1.48536 -1.71713,1.50709 -0.858895,0.0145359 -1.38271,-0.0875941 -1.66793,-0.441237 -0.334231,-0.414486 -0.222394,-1.29085 0.0632098,-1.665z"/>
    <path id="_124589656" class="fil7" d="M29.2892 73.7934c0.117281,-0.488586 0.708754,-0.799237 1.29459,-0.878119 0.395878,-0.0532667 0.929681,0.0227271 1.24682,0.193322 0.89346,0.480678 1.2605,1.55553 1.24403,1.56732 -0.377033,0.268511 -1.47291,0.423624 -2.07546,0.432241 -1.03006,0.0147726 -1.98824,-0.155113 -1.70998,-1.31476z"/>
    <path id="_124589584" class="fil8" d="M29.2892 73.7934c0.117281,-0.488586 0.708754,-0.799237 1.29459,-0.878119 0.395878,-0.0532667 0.929681,0.0227271 1.24682,0.193322 0.0117423,0.0062973 0.0232953,0.0128313 0.0348482,0.0193654 0.00700753,0.00980107 0.010606,0.0152935 0.010606,0.0152935 -1.67485,-0.260273 -2.44151,0.638348 -2.63014,0.907143 0.00710222,-0.0797816 0.0212593,-0.165245 0.0432762,-0.257006z"/>
    <path id="_124589512" class="fil6" d="M29.4765 74.5088c0.58849,0.740336 3.13842,0.591 3.81153,0.0861736 0.424239,-0.31818 -0.0596587,-1.02083 -0.0596587,-1.02083 0,0 -1.30586,1.0606 -3.75187,0.934652z"/>
   </g>
   <g>
    <polygon id="_124589416" class="fil2" points="48.7323,70.2955 51.7252,73.7803 51.7252,74.8736 43.3058,74.9185 43.5251,70.1951 "/>
    <path id="_124589344" class="fil3" d="M48.7324 70.2955l2.99946 3.45035 -5.83239 -0.0935599c0,0 -1.77414,-1.13896 -2.45178,-1.78829l0.0774616 -1.66888 5.20725 0.100378z"/>
    <polygon id="_124589272" class="fil4" points="49.4676,71.1413 51.7318,73.7459 49.6359,73.7123 51.0007,73.4244 "/>
    <polygon id="_124589200" class="fil5" points="46.5623,74.9011 43.3058,74.9185 43.507,70.3062 44.7912,70.3127 46.5764,73.6454 "/>
    <polygon id="_124589128" class="fil6" points="42.9548,73.8922 47.6908,73.686 43.0069,73.0392 "/>
    <path id="_124589056" class="fil1" d="M43.0283 70.0763c0,0 -0.96183,4.24737 -0.10516,4.98675 0.856623,0.739341 9.07498,0.521966 9.38497,0.269458 0.309988,-0.252508 0.465432,-2.15363 -1.21931,-2.56016 0,0 -1.38219,-2.66026 -2.12053,-3.11092 -0.738394,-0.45066 -5.93997,0.414864 -5.93997,0.414864z"/>
    <path id="_124588984" class="fil7" d="M48.4534 70.2818c0,0 1.4167,1.46121 2.24051,3.41224 0,0 0.554636,0.88328 0.0170927,1.09119 -0.537591,0.207906 -6.53807,0.328407 -7.16079,-0.259136 -0.62277,-0.587591 0.0838062,-3.8915 0.0838062,-3.8915 0,0 4.36739,-0.667609 4.81938,-0.352791z"/>
    <path id="_124588912" class="fil8" d="M48.4534 70.2818c0,0 1.4167,1.46121 2.24051,3.41224 0,0 0.277365,0.441806 0.249477,0.774048 -0.394268,-0.11212 -0.733328,-0.358331 -0.852788,-0.788441 -0.332621,-1.19743 -1.76954,-3.28629 -1.76954,-3.28629 -0.0406247,-0.0642041 -0.0642041,-0.121401 -0.0739105,-0.172868 0.0954065,0.0136363 0.166287,0.0334751 0.206249,0.0613159z"/>
    <path id="_124588840" class="fil6" d="M48.4534 70.2818c0,0 0.326844,0.337166 0.757807,0.903734 -1.09852,-0.0550186 -3.80665,-0.0912872 -5.79442,0.710222 0.0974898,-0.700516 0.217233,-1.26117 0.217233,-1.26117 0,0 4.36735,-0.667609 4.81938,-0.352791z"/>
    <path id="_124588768" class="fil6" d="M46.4441 74.8439c-1.0811,-0.0583329 -2.29378,0.152414 -2.92702,-0.311219 -0.633234,-0.463633 0.0705487,-3.88487 0.0705487,-3.88487 0,0 0.666236,-0.108048 1.46296,-0.209326 0.423198,1.59544 0.90828,3.05935 1.3935,4.40541z"/>
    <path id="_124588696" class="fil7" d="M50.6013 73.3591c-0.673007,0.106581 -0.611691,0.613111 -0.597108,0.977029 0.0145832,0.363871 -0.671349,0.594077 -0.195879,0.575043 0.330537,-0.0132575 1.81358,0.0165245 1.94937,-0.198436 0.2839,-0.449476 -0.483425,-1.46017 -1.15638,-1.35364z"/>
    <path id="_124588624" class="fil1" d="M51.2031 74.2572c-0.0090435,-0.670118 -0.553405,-1.16789 -1.20084,-1.26581 -0.781481,-0.118228 -1.69459,0.293132 -1.75406,0.997626 -0.0616473,0.729966 0.353217,1.15672 1.3883,1.1721 1.03508,0.0153881 1.70695,-0.238871 1.56661,-0.903924z"/>
    <path id="_124588552" class="fil7" d="M50.7621 74.263c-0.006392,-0.473908 -0.39138,-0.825894 -0.849236,-0.895164 -0.552648,-0.0836168 -1.19838,0.207338 -1.24047,0.705535 -0.0435603,0.516237 0.249809,0.818034 0.981811,0.828877 0.732002,0.0108901 1.20714,-0.168891 1.1079,-0.639247z"/>
    <path id="_124588480" class="fil1" d="M50.0864 74.3019c-0.0090435,-0.670118 -0.553405,-1.16784 -1.20084,-1.26581 -0.781481,-0.118228 -1.69459,0.29318 -1.75406,0.997673 -0.0616473,0.729966 0.353217,1.15672 1.3883,1.1721 1.03508,0.0153881 1.70695,-0.238871 1.56661,-0.903971z"/>
    <path id="_124588408" class="fil7" d="M49.6454 74.3077c-0.00643935,-0.473908 -0.39138,-0.825941 -0.849236,-0.895164 -0.552648,-0.0836168 -1.19838,0.20729 -1.24047,0.705535 -0.0435603,0.51619 0.249809,0.817987 0.981811,0.828877 0.732002,0.0108901 1.20714,-0.168938 1.1079,-0.639247z"/>
    <path id="_124588336" class="fil1" d="M48.0771 73.2804c-0.274619,-0.359704 -0.694834,-0.604589 -1.15719,-0.677978 -0.965476,-0.153219 -2.09255,0.372961 -2.16466,1.27712 -0.074668,0.936783 0.438586,1.48536 1.71713,1.50709 0.858895,0.0145359 1.38271,-0.0875941 1.66793,-0.441237 0.334231,-0.414486 0.222394,-1.29085 -0.0632098,-1.665z"/>
    <path id="_124588264" class="fil7" d="M47.7199 73.7934c-0.117281,-0.488586 -0.708754,-0.799237 -1.29459,-0.878119 -0.395878,-0.0532667 -0.929681,0.0227271 -1.24682,0.193322 -0.89346,0.480678 -1.2605,1.55553 -1.24403,1.56732 0.377033,0.268511 1.47291,0.423624 2.07546,0.432241 1.03006,0.0147726 1.98824,-0.155113 1.70998,-1.31476z"/>
    <path id="_124588192" class="fil8" d="M47.7199 73.7934c-0.117281,-0.488586 -0.708754,-0.799237 -1.29459,-0.878119 -0.395878,-0.0532667 -0.929681,0.0227271 -1.24682,0.193322 -0.0117423,0.0062973 -0.0232953,0.0128313 -0.0348482,0.0193654 -0.00700753,0.00980107 -0.010606,0.0152935 -0.010606,0.0152935 1.67485,-0.260273 2.44151,0.638348 2.63014,0.907143 -0.00710222,-0.0797816 -0.0212593,-0.165245 -0.0432762,-0.257006z"/>
    <path id="_124588120" class="fil6" d="M47.5326 74.5088c-0.58849,0.740336 -3.13842,0.591 -3.81153,0.0861736 -0.424239,-0.31818 0.0596587,-1.02083 0.0596587,-1.02083 0,0 1.30586,1.0606 3.75187,0.934652z"/>
   </g>
   <path id="_124588024" class="fil1" d="M34.5511 53.7959l-0.549854 16.9865 -6.3171 -0.296305 -0.721065 -6.20796 -2.96272 -21.8566c7.4999,2.93535 21.4635,2.93535 28.9634,0l-3.71721 27.6719 -6.31032 0.475707 -0.523197 -16.7733 -7.86192 0z"/>
   <path id="_124587952" class="fil9" d="M30.2527 53.0396l3.5343 0.649143 -0.510129 16.3215 -4.89073 -0.284373 -3.23497 -26.2142c7.95492,2.45027 18.707,2.45022 26.6619,0l-3.20831 25.9209 -4.94405 0.231059 -0.483472 -15.975 3.5343 -0.649143 -16.4588 0z"/>
   <path id="_124587880" class="fil10" d="M25.2279 44.1238l-0.076704 -0.61207c7.95492,2.45027 18.707,2.45022 26.6619,0l-0.0418084 0.333473c-13.3094,3.94784 -25.2323,0.664247 -26.5434,0.278597z"/>
   <path id="_124587808" class="fil10" d="M28.8026 69.7416l-0.416995 -0.0206438 -3.23445 -26.2093c0.224951,0.0692703 0.450944,0.136079 0.67741,0.20123l1.373 11.9429 1.65472 0.641094 -1.42731 0.30156 1.37362 13.1432z"/>
   <path id="_124587736" class="fil10" d="M28.777 46.2257l1.47608 23.564 -0.226182 -0.0243369 -1.93507 -21.9779 0.0472535 -1.68488c0.212167,0.0424713 0.424713,0.0836642 0.637922,0.123058z"/>
   <polygon id="_124587664" class="fil1" points="27.6686,45.7666 29.789,69.7954 30.1092,69.7954 28.3089,45.8153 "/>
   <path id="_124587592" class="fil1" d="M27.3988 53.6108c0,0 0.932522,-1.0106 2.47863,-1.25425 -0.681766,0.746775 -1.44696,1.21287 -2.47863,1.25425z"/>
   <path id="_124587520" class="fil1" d="M27.0403 48.2236c0,0 1.41803,0.260746 2.39582,1.38223 -1.04431,-0.186836 -1.85955,-0.575564 -2.39582,-1.38223z"/>
   <path id="_124587448" class="fil1" d="M27.7537 55.9628c0,0 1.44038,-0.120927 2.7283,0.698006 -1.05913,0.0940808 -1.96197,-0.0652931 -2.7283,-0.698006z"/>
   <path id="_124587376" class="fil1" d="M28.0731 61.0471c0,0 1.02073,-0.936688 2.5836,-1.06263 -0.747012,0.692703 -1.55174,1.09933 -2.5836,1.06263z"/>
   <path id="_124587304" class="fil1" d="M28.4352 65.288c0,0 1.38418,-0.0585697 2.66049,0.852125 -1.01761,0.0483898 -1.89502,-0.159137 -2.66049,-0.852125z"/>
   <path id="_124587232" class="fil11" d="M30.5413 53.0926l3.24567 0.596113 -0.456768 16.3746 -1.52617 -0.123626c0.152508,-8.38858 -1.12528,-16.3744 -1.26273,-16.8471z"/>
   <path id="_124587160" class="fil10" d="M48.5781 69.4593l3.23497 -25.9476c-0.224951,0.0692703 -0.450944,0.136079 -0.67741,0.20123l-1.39961 11.8231 -2.90538 1.15998 2.58483 -0.0177556 -0.837399 12.781z"/>
   <path id="_124587088" class="fil10" d="M48.1872 46.3818l-1.63574 23.1953 0.292706 -0.130539 2.02821 -21.516 -0.0472535 -1.67068c-0.212167,0.0420925 -0.424713,0.0829066 -0.637922,0.121969z"/>
   <polygon id="_124587016" class="fil1" points="49.2956,45.9265 46.9748,69.6712 46.6546,69.6712 48.6552,45.9749 "/>
   <path id="_124586944" class="fil1" d="M49.5654 53.7047c0,0 -0.932522,-1.00212 -2.47863,-1.24369 0.681766,0.740478 1.44696,1.2026 2.47863,1.24369z"/>
   <path id="_124586872" class="fil1" d="M49.9239 48.3629c0,0 -1.41803,0.258521 -2.39582,1.37054 1.04431,-0.185226 1.85955,-0.570687 2.39582,-1.37054z"/>
   <path id="_124586800" class="fil1" d="M49.2105 56.0368c0,0 -1.44038,-0.119933 -2.7283,0.692135 1.05913,0.0932285 1.96197,-0.0647723 2.7283,-0.692135z"/>
   <path id="_124586728" class="fil1" d="M48.8111 60.7592c0,0 -1.02073,-0.928781 -2.5836,-1.05369 0.747012,0.68688 1.55174,1.0901 2.5836,1.05369z"/>
   <path id="_124586656" class="fil1" d="M46.1748 64.5735c0,0 1.35113,-0.281106 2.36973,-1.47295 -0.994595,0.201466 -1.79341,0.616236 -2.36973,1.47295z"/>
   <path id="_124586584" class="fil1" d="M45.5511 67.5124c0,0 1.21921,0.646539 2.76423,0.379874 -0.894028,-0.48011 -1.77366,-0.671113 -2.76423,-0.379874z"/>
   <path id="_124586512" class="fil11" d="M46.4229 53.0926l-3.24567 0.596113 0.510129 16.0016 1.29985 -0.12088c-0.0775089,-4.45901 0.163635,-12.1023 1.43569,-16.4769z"/>
   <path id="_124586440" class="fil11" d="M45.527 52.6377l-13.8484 -0.100283c0,0 7.25071,-1.97262 13.8484,0.100283z"/>
   <path id="_124586368" class="fil1" d="M51.9633 44.9935c0,0 -4.07597,1.73271 -10.9975,1.9193 0,0 4.74249,0.692845 11.1512,-1.27977l0.182148 -0.552127 -0.335935 -0.0874047z"/>
   <path id="_124586296" class="fil1" d="M25.1124 44.7274c0,0 3.64666,1.75932 9.84155,2.1854 0,0 -4.53534,0.32031 -9.74264,-1.23986l-0.0601322 -0.592041 -0.0387781 -0.353501z"/>
   <path id="_124586224" class="fil1" d="M37.9282 45.1455c0,0 0.32675,6.34607 0.4294,6.34607 0.102603,0 0.502222,-6.34607 0.502222,-6.34607l-0.931622 0z"/>
  </g>
 </g>
</svg>
