<?xml version="1.0" encoding="UTF-8"?>
<!DOCTYPE svg PUBLIC "-//W3C//DTD SVG 1.1//EN" "http://www.w3.org/Graphics/SVG/1.1/DTD/svg11.dtd">
<!-- Creator: CorelDRAW -->
<svg xmlns="http://www.w3.org/2000/svg" xml:space="preserve" width="161.909mm" height="176.792mm" style="shape-rendering:geometricPrecision; text-rendering:geometricPrecision; image-rendering:optimizeQuality; fill-rule:evenodd; clip-rule:evenodd"
viewBox="0 0 22.9558 25.066"
 xmlns:xlink="http://www.w3.org/1999/xlink">
 <defs>
  <style type="text/css">
   <![CDATA[
    .fil0 {fill:none}
    .fil1 {fill:#501D33}
    .fil11 {fill:#625B6D}
    .fil5 {fill:#75414C}
    .fil9 {fill:#878490}
    .fil2 {fill:#955B58}
    .fil10 {fill:#B1B1B4}
    .fil3 {fill:#BB8778}
    .fil4 {fill:#CFA88B}
    .fil6 {fill:#D77D75}
    .fil7 {fill:#FFCFA5}
    .fil8 {fill:white}
   ]]>
  </style>
 </defs>
 <g id="Layer_x0020_1">
  <metadata id="CorelCorpID_0Corel-Layer"/>
  <rect class="fil0" width="22.9558" height="25.066"/>
  <ellipse class="fil1" cx="11.5366" cy="22.4473" rx="7.00185" ry="0.399642"/>
  <g id="_124603000">
   <g>
    <g>
     <g>
      <polygon id="_124607704" class="fil2" points="8.43593,21.0497 7.53973,22.0932 7.53973,22.4206 10.0609,22.4341 9.99521,21.0197 "/>
      <path id="_124607632" class="fil3" d="M8.43592 21.0497l-0.898176 1.0332 1.74649 -0.0280162c0,0 0.531258,-0.341057 0.734177,-0.535497l-0.0231956 -0.49974 -1.55929 0.0300578z"/>
      <polygon id="_124607560" class="fil4" points="8.21576,21.303 7.53774,22.0829 8.16535,22.0729 7.75667,21.9867 "/>
      <polygon id="_124607488" class="fil5" points="9.08573,22.4289 10.0609,22.4341 10.0006,21.0529 9.61608,21.0549 9.08151,22.0528 "/>
      <polygon id="_124607416" class="fil6" points="10.166,22.1268 8.74782,22.065 10.1504,21.8713 "/>
      <path id="_124607344" class="fil1" d="M10.144 20.9841c0,0 0.288016,1.27186 0.0314898,1.49327 -0.256512,0.221393 -2.71747,0.156301 -2.81029,0.0806883 -0.0928249,-0.0756125 -0.139372,-0.644897 0.365118,-0.766631 0,0 0.413891,-0.796604 0.634986,-0.931552 0.221109,-0.134948 1.7787,0.12423 1.7787,0.12423z"/>
      <path id="_124607272" class="fil7" d="M8.51944 21.0456c0,0 -0.424227,0.437554 -0.670914,1.02178 0,0 -0.166084,0.264495 -0.00511834,0.326751 0.16098,0.0622566 1.9578,0.0983402 2.14427,-0.0775974 0.186486,-0.175952 -0.0250955,-1.16529 -0.0250955,-1.16529 0,0 -1.3078,-0.199913 -1.44314,-0.105642z"/>
      <path id="_124607200" class="fil8" d="M8.51944 21.0456c0,0 -0.424227,0.437554 -0.670914,1.02178 0,0 -0.0830561,0.132297 -0.0747051,0.231786 0.118062,-0.033574 0.219592,-0.107301 0.255364,-0.236096 0.099602,-0.358567 0.529883,-0.984068 0.529883,-0.984068 0.0121649,-0.0192257 0.0192257,-0.036353 0.0221322,-0.0517647 -0.0285691,0.00408333 -0.0497939,0.010024 -0.0617604,0.0183608z"/>
      <path id="_124607128" class="fil6" d="M8.51944 21.0456c0,0 -0.0978723,0.100963 -0.226923,0.27062 0.328949,-0.0164751 1.13989,-0.0273356 1.73512,0.212673 -0.029193,-0.209767 -0.0650497,-0.377651 -0.0650497,-0.377651 0,0 -1.30779,-0.199913 -1.44314,-0.105642z"/>
      <path id="_124607056" class="fil6" d="M9.12112 22.4117c0.323731,-0.0174676 0.686864,0.0456397 0.876484,-0.0931935 0.18962,-0.138833 -0.0211256,-1.16331 -0.0211256,-1.16331 0,0 -0.199502,-0.0323547 -0.438079,-0.0626819 -0.126725,0.47775 -0.271981,0.916112 -0.417279,1.31918z"/>
      <path id="_124606984" class="fil7" d="M7.87629 21.9671c0.201529,0.0319152 0.183169,0.183594 0.178802,0.292568 -0.00436689,0.10896 0.201033,0.177894 0.0586553,0.172195 -0.0989782,-0.0039699 -0.543069,0.0049482 -0.583732,-0.0594209 -0.0850126,-0.134594 0.14476,-0.437242 0.346275,-0.405341z"/>
      <path id="_124606912" class="fil1" d="M7.69607 22.236c0.00270804,-0.200664 0.165715,-0.34972 0.359588,-0.379041 0.234012,-0.035403 0.507439,0.0877774 0.525247,0.298735 0.0184601,0.218586 -0.10577,0.346374 -0.41572,0.350982 -0.30995,0.00460792 -0.511139,-0.0715292 -0.469115,-0.270677z"/>
      <path id="_124606840" class="fil7" d="M7.82813 22.2378c0.00191406,-0.14191 0.117197,-0.247311 0.254301,-0.268054 0.165488,-0.0250387 0.358851,0.0620865 0.371455,0.21127 0.013044,0.154585 -0.0748043,0.244957 -0.294,0.248204 -0.219195,0.00326099 -0.361474,-0.0505737 -0.331756,-0.19142z"/>
      <path id="_124606768" class="fil1" d="M8.03046 22.2494c0.00270804,-0.200664 0.165715,-0.349706 0.359588,-0.379041 0.234012,-0.035403 0.507439,0.0877916 0.525247,0.298749 0.0184601,0.218586 -0.10577,0.346374 -0.41572,0.350982 -0.30995,0.00460792 -0.511139,-0.0715292 -0.469115,-0.270691z"/>
      <path id="_124606696" class="fil7" d="M8.16252 22.2512c0.00192824,-0.14191 0.117197,-0.247325 0.254301,-0.268054 0.165488,-0.0250387 0.358851,0.0620723 0.371455,0.21127 0.013044,0.154571 -0.0748043,0.244943 -0.294,0.248204 -0.219195,0.00326099 -0.361474,-0.0505879 -0.331756,-0.19142z"/>
      <path id="_124606624" class="fil1" d="M8.63213 21.9435c0.0822337,-0.107712 0.208065,-0.181042 0.346516,-0.203018 0.289108,-0.0458807 0.626607,0.111682 0.6482,0.382429 0.0223591,0.280516 -0.131333,0.444785 -0.514188,0.451293 -0.257193,0.00435272 -0.414047,-0.0262297 -0.499456,-0.132127 -0.100084,-0.124116 -0.0665951,-0.386541 0.0189279,-0.498577z"/>
      <path id="_124606552" class="fil7" d="M8.7391 22.0972c0.0351195,-0.146305 0.212234,-0.239328 0.387661,-0.262949 0.118544,-0.0159505 0.278389,0.00680555 0.373355,0.0578897 0.267543,0.143937 0.377453,0.465797 0.372519,0.469328 -0.112901,0.0804047 -0.441056,0.126853 -0.621488,0.129433 -0.308447,0.00442361 -0.595372,-0.0464479 -0.512047,-0.393701z"/>
      <path id="_124606480" class="fil8" d="M8.7391 22.0972c0.0351195,-0.146305 0.212234,-0.239328 0.387661,-0.262949 0.118544,-0.0159505 0.278389,0.00680555 0.373355,0.0578897 0.0035162,0.0018857 0.00697569,0.0038423 0.0104352,0.00579889 0.00209838,0.00293489 0.00317592,0.00457957 0.00317592,0.00457957 -0.501526,-0.0779377 -0.7311,0.191151 -0.787586,0.271641 0.00212673,-0.0238903 0.00636602,-0.049482 0.0129589,-0.0769594z"/>
      <path id="_124606408" class="fil6" d="M8.79518 22.3114c0.176221,0.221691 0.93979,0.176973 1.14135,0.0258044 0.127037,-0.0952777 -0.0178646,-0.305683 -0.0178646,-0.305683 0,0 -0.391035,0.317592 -1.12348,0.279878z"/>
     </g>
     <g>
      <polygon id="_124606312" class="fil2" points="14.5613,21.0497 15.4575,22.0932 15.4575,22.4206 12.9363,22.4341 13.002,21.0197 "/>
      <path id="_124606240" class="fil3" d="M14.5613 21.0497l0.898176 1.0332 -1.74649 -0.0280162c0,0 -0.531258,-0.341057 -0.734177,-0.535497l0.0231956 -0.49974 1.55929 0.0300578z"/>
      <polygon id="_124606168" class="fil4" points="14.7814,21.303 15.4595,22.0829 14.8318,22.0729 15.2405,21.9867 "/>
      <polygon id="_124606096" class="fil5" points="13.9115,22.4289 12.9363,22.4341 12.9966,21.0529 13.3811,21.0549 13.9157,22.0528 "/>
      <polygon id="_124606024" class="fil6" points="12.8312,22.1268 14.2494,22.065 12.8468,21.8713 "/>
      <path id="_124605952" class="fil1" d="M12.8532 20.9841c0,0 -0.288016,1.27186 -0.0314898,1.49327 0.256512,0.221393 2.71747,0.156301 2.81029,0.0806883 0.0928249,-0.0756125 0.139372,-0.644897 -0.365118,-0.766631 0,0 -0.413891,-0.796604 -0.634986,-0.931552 -0.221109,-0.134948 -1.7787,0.12423 -1.7787,0.12423z"/>
      <path id="_124605880" class="fil7" d="M14.4778 21.0456c0,0 0.424227,0.437554 0.670914,1.02178 0,0 0.166084,0.264495 0.00511834,0.326751 -0.16098,0.0622566 -1.9578,0.0983402 -2.14427,-0.0775974 -0.186486,-0.175952 0.0250955,-1.16529 0.0250955,-1.16529 0,0 1.3078,-0.199913 1.44314,-0.105642z"/>
      <path id="_124605808" class="fil8" d="M14.4778 21.0456c0,0 0.424227,0.437554 0.670914,1.02178 0,0 0.0830561,0.132297 0.0747051,0.231786 -0.118062,-0.033574 -0.219592,-0.107301 -0.255364,-0.236096 -0.099602,-0.358567 -0.529883,-0.984068 -0.529883,-0.984068 -0.0121649,-0.0192257 -0.0192257,-0.036353 -0.0221322,-0.0517647 0.0285691,0.00408333 0.0497939,0.010024 0.0617604,0.0183608z"/>
      <path id="_124605736" class="fil6" d="M14.4778 21.0456c0,0 0.0978723,0.100963 0.226923,0.27062 -0.328949,-0.0164751 -1.13989,-0.0273356 -1.73512,0.212673 0.029193,-0.209767 0.0650497,-0.377651 0.0650497,-0.377651 0,0 1.30779,-0.199913 1.44314,-0.105642z"/>
      <path id="_124605664" class="fil6" d="M13.8761 22.4117c-0.323731,-0.0174676 -0.686864,0.0456397 -0.876484,-0.0931935 -0.18962,-0.138833 0.0211256,-1.16331 0.0211256,-1.16331 0,0 0.199502,-0.0323547 0.438079,-0.0626819 0.126725,0.47775 0.271981,0.916112 0.417279,1.31918z"/>
      <path id="_124605592" class="fil7" d="M15.1209 21.9671c-0.201529,0.0319152 -0.183169,0.183594 -0.178802,0.292568 0.00436689,0.10896 -0.201033,0.177894 -0.0586553,0.172195 0.0989782,-0.0039699 0.543069,0.0049482 0.583732,-0.0594209 0.0850126,-0.134594 -0.14476,-0.437242 -0.346275,-0.405341z"/>
      <path id="_124605520" class="fil1" d="M15.3011 22.236c-0.00270804,-0.200664 -0.165715,-0.34972 -0.359588,-0.379041 -0.234012,-0.035403 -0.507439,0.0877774 -0.525247,0.298735 -0.0184601,0.218586 0.10577,0.346374 0.41572,0.350982 0.30995,0.00460792 0.511139,-0.0715292 0.469115,-0.270677z"/>
      <path id="_124605448" class="fil7" d="M15.1691 22.2378c-0.00191406,-0.14191 -0.117197,-0.247311 -0.254301,-0.268054 -0.165488,-0.0250387 -0.358851,0.0620865 -0.371455,0.21127 -0.013044,0.154585 0.0748043,0.244957 0.294,0.248204 0.219195,0.00326099 0.361474,-0.0505737 0.331756,-0.19142z"/>
      <path id="_124605376" class="fil1" d="M14.9667 22.2494c-0.00270804,-0.200664 -0.165715,-0.349706 -0.359588,-0.379041 -0.234012,-0.035403 -0.507439,0.0877916 -0.525247,0.298749 -0.0184601,0.218586 0.10577,0.346374 0.41572,0.350982 0.30995,0.00460792 0.511139,-0.0715292 0.469115,-0.270691z"/>
      <path id="_124605304" class="fil7" d="M14.8347 22.2512c-0.00192824,-0.14191 -0.117197,-0.247325 -0.254301,-0.268054 -0.165488,-0.0250387 -0.358851,0.0620723 -0.371455,0.21127 -0.013044,0.154571 0.0748043,0.244943 0.294,0.248204 0.219195,0.00326099 0.361474,-0.0505879 0.331756,-0.19142z"/>
      <path id="_124605232" class="fil1" d="M14.3651 21.9435c-0.0822337,-0.107712 -0.208065,-0.181042 -0.346516,-0.203018 -0.289108,-0.0458807 -0.626607,0.111682 -0.6482,0.382429 -0.0223591,0.280516 0.131333,0.444785 0.514188,0.451293 0.257193,0.00435272 0.414047,-0.0262297 0.499456,-0.132127 0.100084,-0.124116 0.0665951,-0.386541 -0.0189279,-0.498577z"/>
      <path id="_124605160" class="fil7" d="M14.2581 22.0972c-0.0351195,-0.146305 -0.212234,-0.239328 -0.387661,-0.262949 -0.118544,-0.0159505 -0.278389,0.00680555 -0.373355,0.0578897 -0.267543,0.143937 -0.377453,0.465797 -0.372519,0.469328 0.112901,0.0804047 0.441056,0.126853 0.621488,0.129433 0.308447,0.00442361 0.595372,-0.0464479 0.512047,-0.393701z"/>
      <path id="_124605088" class="fil8" d="M14.2581 22.0972c-0.0351195,-0.146305 -0.212234,-0.239328 -0.387661,-0.262949 -0.118544,-0.0159505 -0.278389,0.00680555 -0.373355,0.0578897 -0.0035162,0.0018857 -0.00697569,0.0038423 -0.0104352,0.00579889 -0.00209838,0.00293489 -0.00317592,0.00457957 -0.00317592,0.00457957 0.501526,-0.0779377 0.7311,0.191151 0.787586,0.271641 -0.00212673,-0.0238903 -0.00636602,-0.049482 -0.0129589,-0.0769594z"/>
      <path id="_124605016" class="fil6" d="M14.202 22.3114c-0.176221,0.221691 -0.93979,0.176973 -1.14135,0.0258044 -0.127037,-0.0952777 0.0178646,-0.305683 0.0178646,-0.305683 0,0 0.391035,0.317592 1.12348,0.279878z"/>
     </g>
     <path id="_124604920" class="fil1" d="M10.3148 16.109l-0.164652 5.08655 -1.89163 -0.0887273 -0.21592 -1.85895 -0.887174 -6.54488c2.24582,0.878979 6.42716,0.878979 8.67298,0l-1.1131 8.28625 -1.8896 0.142449 -0.156669 -5.02269 -2.35422 0z"/>
     <path id="_124604848" class="fil9" d="M9.0276 15.8825l1.05833 0.194383 -0.152756 4.88742 -1.46451 -0.0851544 -0.968699 -7.84973c2.38207,0.733723 5.60173,0.733709 7.9838,0l-0.960717 7.76193 -1.48048 0.0691897 -0.144774 -4.78365 1.05833 -0.194383 -4.92854 0z"/>
     <path id="_124604776" class="fil10" d="M8.59338 20.8839l-0.124868 -0.00618171 -0.968543 -7.84827c0.0673608,0.0207427 0.135033,0.0407482 0.202848,0.0602575l0.586752 4.33457 0.495501 0.191973 -0.427403 0.0903011 0.235713 3.17735z"/>
     <path id="_124604704" class="fil10" d="M7.52294 13.2127l-0.0229687 -0.183282c2.38207,0.733723 5.60173,0.733709 7.9838,0l-0.0125194 0.0998573c-1.42555,0.574374 -2.24061,0.759712 -4.16578,0.751815 -2.03957,-0.00836515 -3.53823,-0.596535 -3.78254,-0.66839z"/>
     <path id="_124604632" class="fil11" d="M9.11403 15.8984l0.971903 0.178504 -0.136777 4.90331 -0.457007 -0.0370194c0.0456681,-2.51193 -0.33696,-4.90326 -0.378119,-5.0448z"/>
     <path id="_124604560" class="fil10" d="M14.5151 20.7993l0.0590523 -0.427587 0.789912 -6.43234c-0.0673608,0.0207427 -0.15898,0.160483 -0.226795,0.179993l-0.339285 3.19715 -0.870004 0.347352 0.774018 -0.00531684 -0.186897 3.14075z"/>
     <path id="_124604488" class="fil11" d="M13.8697 15.8984l-0.971903 0.178504 0.152756 4.79163 0.389235 -0.036197c-0.0232098,-1.33523 0.049,-3.624 0.429912,-4.93394z"/>
     <path id="_124604416" class="fil11" d="M13.6014 15.7622l-4.14686 -0.0300295c0,0 2.1712,-0.590693 4.14686,0.0300295z"/>
     <polygon id="_124604344" class="fil1" points="12.9247,20.3021 14.2713,20.3977 12.8848,20.5252 "/>
     <polygon id="_124604272" class="fil1" points="10.0533,20.3021 8.70666,20.3977 10.0931,20.5252 "/>
     <path id="_124604200" class="fil1" d="M13.8778 17.646c0,0 0.622623,0.223506 0.854111,0.231488 0.231488,0.00798234 0.415082,-0.255435 0.415082,-0.255435l-1.26919 0.023947z"/>
     <path id="_124604128" class="fil1" d="M9.13068 17.646c0,0 -0.622623,0.223506 -0.854111,0.231488 -0.231488,0.00798234 -0.415082,-0.255435 -0.415082,-0.255435l1.26919 0.023947z"/>
    </g>
    <g>
     <path id="_124604032" class="fil11" d="M14.2333 13.8718c0,0 0.474205,0.422313 1.15947,-0.0637453l-0.179383 1.47809c0,0 -0.609565,-0.290838 -0.980084,-1.41435z"/>
     <path id="_124603960" class="fil10" d="M14.2328 14.0112c0,0 -0.0333897,1.05921 0.824393,1.64192l0.0144476 -0.327276c0,0 -0.619589,-0.439029 -0.838841,-1.31465z"/>
     <path id="_124603888" class="fil1" d="M14.2201 13.9449c0,0 -0.00744357,-0.192328 0.062767,-0.0220188 0.125137,0.303641 0.437427,1.09165 1.05383,1.41893l-0.0011059 0.223506c0,0 -0.829866,-0.231488 -1.11549,-1.62042z"/>
    </g>
    <g>
     <path id="_124603792" class="fil11" d="M8.74819 13.8718c0,0 -0.474205,0.422313 -1.15947,-0.0637453l0.179383 1.47809c0,0 0.609565,-0.290838 0.980084,-1.41435z"/>
     <path id="_124603720" class="fil10" d="M8.74866 14.0112c0,0 0.0333897,1.05921 -0.824393,1.64192l-0.0144476 -0.327276c0,0 0.619589,-0.439029 0.838841,-1.31465z"/>
     <path id="_124603648" class="fil1" d="M8.76136 13.9449c0,0 0.00744357,-0.192328 -0.062767,-0.0220188 -0.125137,0.303641 -0.437427,1.09165 -1.05383,1.41893l0.0011059 0.223506c0,0 0.829866,-0.231488 1.11549,-1.62042z"/>
    </g>
    <polygon id="_124603552" class="fil10" points="14.5494,20.5013 13.438,20.4621 14.5585,20.3666 "/>
    <polygon id="_124603480" class="fil10" points="8.48173,20.5132 9.59309,20.474 8.47255,20.3785 "/>
    <polygon id="_124603408" class="fil1" points="13.1095,15.9405 13.1095,17.7844 13.357,15.9405 "/>
    <polygon id="_124603336" class="fil1" points="9.9215,15.9405 9.9215,17.7844 9.67405,15.9405 "/>
   </g>
   <polygon id="_124603240" class="fil10" points="10.4129,13.6651 10.1267,14.3688 10.1409,13.6583 "/>
   <polygon id="_124603168" class="fil10" points="13.3629,13.6792 13.8217,14.5627 13.6285,13.6195 "/>
   <polygon id="_124603096" class="fil1" points="9.99643,13.4183 10.1273,14.3952 10.2824,13.4003 "/>
   <polygon id="_124603024" class="fil1" points="13.7098,13.2732 13.8278,14.5979 13.4242,13.3025 "/>
  </g>
 </g>
</svg>
