<?xml version="1.0" encoding="UTF-8"?>
<!DOCTYPE svg PUBLIC "-//W3C//DTD SVG 1.1//EN" "http://www.w3.org/Graphics/SVG/1.1/DTD/svg11.dtd">
<!-- Creator: CorelDRAW -->
<svg xmlns="http://www.w3.org/2000/svg" xml:space="preserve" width="161.909mm" height="176.792mm" style="shape-rendering:geometricPrecision; text-rendering:geometricPrecision; image-rendering:optimizeQuality; fill-rule:evenodd; clip-rule:evenodd"
viewBox="0 0 76.6608 83.7077"
 xmlns:xlink="http://www.w3.org/1999/xlink">
 <defs>
  <style type="text/css">
   <![CDATA[
    .fil0 {fill:none}
    .fil1 {fill:#501D33}
    .fil9 {fill:#7F7A8A}
    .fil4 {fill:#81454F}
    .fil2 {fill:#9D6E5B}
    .fil8 {fill:#B1B1B4}
    .fil3 {fill:#D7AC80}
    .fil10 {fill:white}
    .fil7 {fill:#7F7A8A;fill-rule:nonzero}
    .fil5 {fill:#B1B1B4;fill-rule:nonzero}
    .fil6 {fill:white;fill-rule:nonzero}
   ]]>
  </style>
 </defs>
 <g id="Layer_x0020_1">
  <metadata id="CorelCorpID_0Corel-Layer"/>
  <rect class="fil0" width="76.6608" height="83.7077"/>
  <g id="_121756488">
   <path id="_121758384" class="fil1" d="M24.2531 45.6293c0,0 7.59005,3.61906 19.4468,2.23777l-0.0438444 -3.37768c0,0 -10.559,1.24871 -19.69,-2.34875 -0.28371,0.94398 -0.343416,2.73308 0.286977,3.48866z"/>
   <path id="_121758312" class="fil2" d="M24.6232 45.1746c0.393274,0.177745 0.824331,0.333852 1.22452,0.475044 1.25198,0.441474 2.5479,0.79114 3.845,1.07049 4.386,0.94469 8.97276,1.10923 13.4324,0.639058l-0.0291665 -2.24596c-0.430773,0.0364107 -0.862257,0.0641094 -1.29398,0.0864104 -1.5597,0.0805866 -3.12834,0.08731 -4.68884,0.0276513 -4.26687,-0.162972 -8.69752,-0.834274 -12.7256,-2.31807 -0.101136,0.751605 -0.0864104,1.7623 0.235652,2.26537z"/>
   <path id="_121758240" class="fil3" d="M43.1007 45.4825l-0.00478216 -0.369268c-0.430773,0.0364107 -0.862257,0.0641094 -1.29393,0.0864104 -1.55979,0.0805866 -3.12843,0.08731 -4.68879,0.0276513 -4.26702,-0.162972 -8.69762,-0.834322 -12.7257,-2.31802 -0.00771775,0.0572439 -0.0146306,0.11605 -0.0209279,0.175946 1.44847,0.657524 8.13934,3.3504 18.7341,2.39728z"/>
   <path id="_121758168" class="fil4" d="M24.7886 45.0627c0,0 6.79754,2.93227 16.8739,2.26585l1.06628 -0.346541 -0.186741 -0.773953c0,0 -8.71589,1.18711 -17.9659,-2.11836 0.0178976,0.277318 0.0517989,0.734701 0.212451,0.973004z"/>
   <path id="_121758096" class="fil1" d="M53.3127 41.5685c-3.18502,1.60714 -7.59389,2.76859 -11.2911,2.73511 -0.318842,-0.00293559 -0.600517,-0.0630677 -0.594882,0.31586 0.0124999,0.846396 0.225993,2.88857 1.26519,3.38123 0,0 5.73362,0.421162 10.0252,-2.69643 0.459372,-1.18773 0.627221,-2.43976 0.59564,-3.73577z"/>
   <path id="_121758024" class="fil2" d="M52.7315 42.4762c-3.22143,1.46107 -7.27632,2.42669 -10.7151,2.39553 -0.00364581,0 -0.00743366,-4.73482e-005 -0.0112689,-0.000142044 0.0470641,0.780108 0.259941,2.18109 0.849189,2.56992 0.270453,0.0141097 0.551038,0.0122632 0.818034,0.0077651 0.791377,-0.0132575 1.58687,-0.0797816 2.36992,-0.19408 2.18621,-0.319032 4.38392,-1.03342 6.20346,-2.31244 0.288918,-0.798385 0.438633,-1.62584 0.485792,-2.46655z"/>
   <path id="_121757952" class="fil3" d="M46.7322 44.3881c-1.60898,0.322109 -3.22062,0.497156 -4.71578,0.483614 -0.00364581,0 -0.00743366,-4.73482e-005 -0.0112689,-0.000142044 0.00733896,0.121637 0.0188446,0.258332 0.0350376,0.403974 1.06282,0.0123579 2.8014,-0.069081 4.15807,-0.627174 0.216286,-0.0889672 0.392137,-0.175946 0.533945,-0.260273z"/>
   <path id="_121757880" class="fil4" d="M42.2524 46.3965c0.13248,0.458472 0.32585,0.862873 0.60189,1.04502 0.270453,0.0141097 0.551038,0.0122632 0.818034,0.0077651 0.791377,-0.0132575 1.58687,-0.0797816 2.36992,-0.19408 2.18621,-0.319032 4.38392,-1.03342 6.20346,-2.31244 0.280064,-0.773953 0.4294,-1.57527 0.481199,-2.38947 -0.328028,0.751273 -2.00827,2.99368 -10.4745,3.8432z"/>
   <path id="_121757808" class="fil1" d="M46.5305 43.5407c0,0 2.11679,1.00222 3.16982,9.24222 0,0 1.17272,3.42734 2.6381,4.43591 0,0 1.0615,-0.822485 0.730345,-4.78974 0,0 -0.910552,-8.4177 -2.75296,-9.62427 -0.333426,-0.0289297 -3.81872,0.340339 -3.7853,0.735885z"/>
   <path id="_121757736" class="fil2" d="M52.2126 56.3435c0.0563916,-0.145075 0.101136,-0.289392 0.126325,-0.38281 0.286267,-1.06216 0.254449,-2.39245 0.164203,-3.47739 -0.0568651,-0.523955 -0.129687,-1.05051 -0.205775,-1.57186 -0.167186,-1.14526 -0.366191,-2.29189 -0.618319,-3.42152 -0.192281,-0.861358 -0.807712,-3.41513 -1.55685,-4.11612 -0.521729,0.0236267 -1.79587,0.185415 -2.58279,0.349666 0.287924,0.369458 0.534939,0.794407 0.686453,1.08797 0.468605,0.90828 0.810884,1.91689 1.08271,2.89974 0.445215,1.60965 0.734607,3.28582 0.947863,4.9414 0.344126,0.986404 1.12229,2.76026 1.95619,3.69093z"/>
   <path id="_121757664" class="fil3" d="M50.5336 43.9515c-0.130965,-0.243322 -0.268843,-0.444173 -0.411455,-0.577647 -0.521777,0.0236267 -1.79592,0.185368 -2.58279,0.349666 0.119365,0.153077 0.231769,0.31586 0.333142,0.474713 0.611785,-0.108475 1.78488,-0.287877 2.66111,-0.246731z"/>
   <path id="_121757592" class="fil4" d="M49.3929 47.3421c0,0 0.693082,1.51945 1.11959,5.09149 0,0 0.541947,1.75434 1.49989,2.97839 0,0 0.632666,-2.87176 -0.753498,-8.46973l-1.41282 0.239913 -0.453169 0.159942z"/>
   <g>
    <path id="_121757520" class="fil1" d="M45.2439 44.4621c0.133664,0.123815 0.267943,0.487449 0.31032,0.619219 0.0829066,0.257858 0.133616,0.528405 0.160463,0.795212 0.0268464,0.266854 0.031013,0.541095 0.000946963,0.807854 -0.0153881,0.136315 -0.0922815,0.463254 -0.199004,0.606056l-2.75206 0.254449 0.183663 1.82423 2.93364 -0.231769c1.29521,-0.102319 1.79629,-1.27456 1.90851,-2.26973 0.0422819,-0.375329 0.0410982,-0.758423 0.00331437,-1.13399 -0.0378312,-0.375566 -0.113209,-0.752788 -0.229781,-1.11562 -0.309278,-0.961783 -1.03664,-2.03706 -2.3318,-1.93474l-2.93369 0.231769 0.175141 1.73981 2.77034 -0.192754z"/>
    <path id="_121757448" class="fil5" d="M43.3458 47.9121l0.0549712 0.426133 0.0455489 0.452506 0.510839 -0.0403406 1.85387 -0.146448c0.868081,-0.0686075 1.31893,-0.85274 1.42797,-1.81935 0.0366475,-0.325234 0.0366948,-0.669929 0.00269884,-1.00738 -0.0339486,-0.33745 -0.102888,-0.6767 -0.203881,-0.991044 -0.300424,-0.934274 -0.900893,-1.63541 -1.76893,-1.56684l-1.85382 0.146495 -0.510839 0.0403406 0.0455489 0.452506 0.0410508 0.407857 2.36921 -0.142139c0.27514,-0.0217328 0.523434,0.380537 0.692751,0.907096 0.0815809,0.253739 0.138115,0.536833 0.167281,0.826462 0.0291191,0.289629 0.0300661,0.577127 0.000473482,0.839625 -0.0614579,0.54474 -0.225425,0.979586 -0.500659,1.00132l-2.37408 0.213209z"/>
    <path id="_121757376" class="fil6" d="M47.2187 45.587c-0.0381626,-0.273814 -0.0989576,-0.545593 -0.180965,-0.800847 -0.300424,-0.934274 -0.900893,-1.63541 -1.76893,-1.56684l-1.85382 0.146495 -0.510839 0.0403406 0.0263256 0.261788c2.15922,-0.170595 3.65329,-0.442989 4.28823,1.91907z"/>
    <path id="_121757304" class="fil7" d="M43.3458 47.9121l0.0549712 0.426133 0.0312024 0.309988 0.510839 -0.040388 1.85387 -0.146448c0.868034,-0.0685601 1.15065,-0.727788 1.2597,-1.6944 0.0364581,-0.323577 0.0366475,-0.666425 0.00317233,-1.00222 -0.256248,0.0587591 -0.406484,0.138067 -0.830723,0.192281 0.0200756,0.255917 0.0179449,0.507951 -0.00828593,0.740525 -0.0614579,0.54474 -0.225425,0.979586 -0.500659,1.00132l-2.37408 0.213209z"/>
    <rect id="_121757232" class="fil1" transform="matrix(-0.747459 0.0710316 0.0666633 0.796438 48.3496 45.366)" width="5.17558" height="0.864814" rx="0.428075" ry="0.428075"/>
   </g>
   <path id="_121757136" class="fil1" d="M31.3073 44.6506l-1.00591 0.862115 -1.27646 -1.03787 0.231438 -0.198341c-0.190955,-0.0397724 -0.381579,-0.0809653 -0.571824,-0.123437l-1.05847 0.907191 -1.41623 -1.15146 0.345073 -0.295737c-0.178218,-0.0508519 -0.355821,-0.103077 -0.532903,-0.156675l-1.72773 1.48077c0.0328123,0.0831434 0.0703594,0.159374 0.113399,0.226608 0.0735317,0.0332384 0.148578,0.0656245 0.224241,0.0974425l1.21898 -1.04474 1.41623 1.15132 -0.686738 0.588585c0.175472,0.0552079 0.351607,0.108806 0.528216,0.160794l1.55728 -1.33465 1.27655 1.03782 -0.92916 0.796396c0.188966,0.0438917 0.37798,0.0864104 0.567183,0.127319l0.729304 -0.62509 0.0280301 0.0228218 0.0922342 -0.125851 0.993696 -0.851651 1.38806 1.16424 -0.807523 0.860789c0.187167,0.0284562 0.374429,0.0556814 0.562117,0.0815335l1.74885 -1.864 1.5328 0.990949 -1.01822 1.08522 0.0431815 0.0404827c0.173389,0.0142044 0.346825,0.0274146 0.520451,0.0395831l1.78157 -1.8989 1.38162 0.893176 -1.03427 1.10245c0.209989,0.00454542 0.420073,0.00762305 0.630062,0.00918554 0.76079,-0.810932 1.48801,-1.58597 2.27148,-2.4211 -0.215623,0.00426133 -0.431294,0.00724427 -0.647012,0.0089488l-0.896774 0.95577 -1.38157 -0.89327 0.0841377 -0.0896774c-0.112452,-0.00359846 -0.224714,-0.00748101 -0.337024,-0.0117423 -0.0931338,-0.00355111 -0.186457,-0.00752836 -0.279733,-0.0115529l-0.794407 0.846727 -1.5328 -0.991139 0.00563443 -0.00596587c-0.195737,-0.0170453 -0.391617,-0.0351797 -0.587496,-0.0544977l-1.02405 1.09156 -1.33702 -1.16197 0.220074 -0.188588c-0.203029,-0.0292612 -0.405868,-0.0599428 -0.608566,-0.0919028z"/>
   <path id="_121757064" class="fil1" d="M51.3553 46.0137l-1.37622 -0.5276 0.61581 -1.56836c-0.151988,-0.300803 -0.313776,-0.549002 -0.481909,-0.70634 -0.20819,0.00942228 -0.532383,0.040388 -0.89881,0.0843271l0.873431 0.334893 -0.647297 1.64895 -1.22064 -0.467894c0.108096,0.216239 0.209516,0.437734 0.304827,0.662685l0.729588 0.279686 -0.0142518 0.0362213 0.194696 0.0330017 1.49166 0.571776 -0.74687 1.80837 -0.825042 -0.228786c0.0499523,0.189203 0.0979633,0.379211 0.14408,0.569835l2.11282 0.626653 -0.785648 1.73342 -0.89166 -0.247252c0.0316759,0.181249 0.0620734,0.362734 0.0912872,0.544314l2.3069 0.639721 -0.423955 1.68602 -1.53645 -0.426039c0.0686548,0.181154 0.147158,0.377791 0.234137,0.583755l2.02428 0.56136c0.0026515,-0.173815 0.00170453,-0.347488 -0.00213067,-0.519457l-0.153077 -0.0424239 0.130823 -0.520119c-0.010748,-0.194317 -0.0243369,-0.384088 -0.0395357,-0.567231 -0.0453595,-0.417658 -0.10071,-0.837068 -0.159658,-1.25416l-1.01424 -0.281295 0.72187 -1.59232c-0.0389202,-0.224099 -0.0792608,-0.447961 -0.121306,-0.671491l-0.0158143 -0.0443179 -1.4105 -0.442753 0.768082 -1.75922 0.183806 0.0705014c-0.0485792,-0.190434 -0.10303,-0.395641 -0.163067,-0.608424z"/>
   <g>
    <polygon id="_121756992" class="fil1" points="42.0265,45.6717 40.517,47.7883 41.0029,47.8016 42.1196,46.337 "/>
    <polygon id="_121756920" class="fil1" points="39.5987,45.8219 41.3355,47.0813 41.5608,46.7963 39.8108,45.5634 "/>
   </g>
   <circle id="_121756824" class="fil1" cx="43.2578" cy="46.2449" r="0.478974"/>
   <g>
    <rect id="_121756752" class="fil1" x="32.9338" y="44.1035" width="1.65273" height="4.26512" rx="0.818081" ry="0.818081"/>
    <path id="_121756680" class="fil8" d="M33.7559 44.5951l0.00861736 0c0.235794,0 0.428643,0.203218 0.428643,0.451607l0 2.37868c0,0.248388 -0.192896,0.451607 -0.428643,0.451607l-0.00861736 0c-0.235746,0 -0.428643,-0.203218 -0.428643,-0.451607l0 -2.37868c0,-0.248388 0.192849,-0.451607 0.428643,-0.451607z"/>
    <path id="_121756608" class="fil9" d="M34.0908 46.4312l0 0.92594c4.73482e-005,0.189771 -0.147253,0.344931 -0.327318,0.344931l-0.00662874 0c-0.180065,0 -0.327318,-0.155065 -0.327318,-0.344931l0 -0.92594 0.661264 0z"/>
    <ellipse id="_121756536" class="fil10" cx="33.7602" cy="45.1292" rx="0.301608" ry="0.348009"/>
   </g>
  </g>
 </g>
</svg>
