<?xml version="1.0" encoding="UTF-8"?>
<!DOCTYPE svg PUBLIC "-//W3C//DTD SVG 1.1//EN" "http://www.w3.org/Graphics/SVG/1.1/DTD/svg11.dtd">
<!-- Creator: CorelDRAW 2020 (64-Bit) -->
<svg xmlns="http://www.w3.org/2000/svg" xml:space="preserve" width="161.909mm" height="176.792mm" version="1.1" style="shape-rendering:geometricPrecision; text-rendering:geometricPrecision; image-rendering:optimizeQuality; fill-rule:evenodd; clip-rule:evenodd"
viewBox="0 0 3870.51 4226.29"
 xmlns:xlink="http://www.w3.org/1999/xlink"
 xmlns:xodm="http://www.corel.com/coreldraw/odm/2003">
 <defs>
  <style type="text/css">
   <![CDATA[
    .fil0 {fill:none}
    .fil1 {fill:#501D33}
    .fil7 {fill:#7F7A8A}
    .fil4 {fill:#81454F}
    .fil2 {fill:#9D6E5B}
    .fil8 {fill:#A6ABB0}
    .fil5 {fill:#B1B1B4}
    .fil3 {fill:#D7AC80}
    .fil6 {fill:white}
   ]]>
  </style>
 </defs>
 <g id="Layer_x0020_1">
  <metadata id="CorelCorpID_0Corel-Layer"/>
  <g id="_2111620980112">
   <rect class="fil0" width="3870.51" height="4226.29"/>
   <g id="_134096192">
    <g>
     <path id="_134097344" class="fil1" d="M1205.38 2113.75c0,0 777.83,206.29 1459.45,-28.35 0,0 4.7,126.26 -26.93,216.81 0,0 -740.89,210.32 -1414.42,-10.01 -19.53,-65.34 -19.36,-110.22 -18.1,-178.44z"/>
     <path id="_134097392" class="fil2" d="M1238.46 2158.38c0.3,35.92 2.8,68.45 12.06,105.36 296.69,93.66 621.44,109.19 928.27,80.83 108.86,-10.06 217.78,-25.78 325.13,-47.56 34.81,-7.07 70.72,-14.65 105.52,-23.75 2.65,-15 4.74,-30.17 6.54,-45.22 3.68,-30.83 6.43,-62.75 8.16,-94.45 -303.77,95.68 -635.8,114.01 -949.75,89.11 -114.91,-9.11 -229.94,-24.13 -343.42,-45.46 -30.51,-5.73 -61.74,-11.82 -92.5,-18.86z"/>
     <path id="_134097536" class="fil3" d="M1238.46 2158.38c0.07,8.8 0.28,17.4 0.68,25.91 29.79,6.74 59.99,12.62 89.5,18.17 114.05,21.43 229.65,36.53 345.13,45.69 313.51,24.86 644.95,6.81 948.65,-87.75 0.65,-8.94 1.22,-17.89 1.71,-26.82 -303.77,95.68 -635.8,114.01 -949.75,89.11 -114.91,-9.11 -229.94,-24.13 -343.42,-45.46 -30.51,-5.73 -61.74,-11.82 -92.5,-18.86z"/>
     <path id="_134097584" class="fil4" d="M1253.83 2212.58l12.11 44.41c0,0 639.15,184.28 1323.47,1.08l3.57 -46.84c0,0 -507.38,168.08 -1339.16,1.35l0.01 0z"/>
     <path class="fil1" d="M1745.09 2148.17l341.85 0c36.32,-0 65.77,29.45 65.77,65.77l0 150.74c0,36.31 -29.45,65.77 -65.77,65.77l-341.85 0c-36.31,-0 -65.77,-29.45 -65.77,-65.77l-0 -150.74c0,-36.32 29.45,-65.77 65.77,-65.77z"/>
     <path class="fil5" d="M1745.08 2181.63l341.85 0c17.84,-0 32.3,14.46 32.3,32.3l0 150.74c0,17.83 -14.47,32.3 -32.3,32.3l-341.85 0c-17.83,-0 -32.3,-14.47 -32.3,-32.3l-0 -150.74c0,-17.84 14.47,-32.3 32.3,-32.3z"/>
     <path id="_134090768" class="fil6" d="M1745.08 2181.63l341.85 0c17.77,0 32.3,14.53 32.3,32.3l0 14.11c0,-17.77 -14.53,-32.3 -32.3,-32.3l-341.85 0c-17.77,0 -32.3,14.53 -32.3,32.3l0 -14.11c0,-17.77 14.53,-32.3 32.3,-32.3z"/>
     <path id="_134085032" class="fil7" d="M2111.68 2279.21l0 78.24c0,16.93 -14.09,30.78 -31.31,30.78l-331.42 0c-17.22,0 -31.31,-13.85 -31.31,-30.78l0 -78.24 394.04 0z"/>
     <rect id="_134085248" class="fil1" x="1758.2" y="2227.06" width="315.61" height="124.5"/>
     <rect id="_134090024" class="fil4" x="1781.46" y="2246.81" width="269.1" height="85.98"/>
     <path class="fil1" d="M1684.68 2240.55l169.77 0c27.8,-0 50.34,21.83 50.34,48.75l0 0c0,26.92 -22.54,48.75 -50.34,48.75l-169.77 0c-27.8,0 -50.34,-21.83 -50.34,-48.76l-0 0c0,-26.92 22.55,-48.76 50.34,-48.76z"/>
     <path class="fil8" d="M1683.65 2268.25l171.82 0c11.94,0 21.62,9.43 21.62,21.05l-0 0c0,11.62 -9.68,21.05 -21.61,21.05l-171.83 0c-11.93,-0 -21.61,-9.43 -21.61,-21.05l-0 0c0,-11.63 9.68,-21.05 21.62,-21.05z"/>
     <path class="fil6" d="M1683.03 2274.57l154.46 0c4.76,-0 8.62,3.86 8.62,8.61l-0 0.17c0,4.75 -3.86,8.61 -8.61,8.61l-154.46 0c-4.75,-0 -8.61,-3.86 -8.61,-8.62l-0 -0.17c0,-4.76 3.86,-8.62 8.62,-8.62z"/>
     <g>
      <path id="_134090936" class="fil2" d="M2229.41 2160.7l104.02 -16.05c0,0 37.63,90.19 19.37,213.58l-2.77 9.41 -97.38 24.9c0,0 24.9,-144.42 -23.24,-231.84z"/>
      <path id="_134085200" class="fil1" d="M2324.69 2133.51c0,0 27.87,83.62 22.81,248.33 0,0 32.81,-60.46 28.39,-131.92 -4.43,-71.46 -51.19,-116.41 -51.19,-116.41z"/>
      <path id="_134089952" class="fil1" d="M2226.21 2156.19c0,0 27.87,83.62 22.81,248.33 0,0 28.38,-59.36 23.95,-130.81 -4.42,-71.46 -46.76,-117.51 -46.76,-117.51z"/>
      <path id="_134090432" class="fil4" d="M2281.74 2264.72c0,0 5.76,72.48 -31.31,132.24l83.55 -11.62c0,0 22.13,-64.74 1.11,-127.82l-53.35 7.2z"/>
      <path id="_134085920" class="fil3" d="M2248.22 2167.89c0,0 22.69,21.58 33.75,70.27l45.93 -3.32c0,0 6.09,-42.61 -6.64,-78.57l-61.97 11.62 -11.07 0z"/>
     </g>
     <g>
      <path id="_134085464" class="fil2" d="M1620.75 2160.7l-104.02 -16.05c0,0 -37.63,90.19 -19.37,213.58l2.77 9.41 97.38 24.9c0,0 -24.9,-144.42 23.24,-231.84z"/>
      <path id="_134079536" class="fil1" d="M1525.46 2133.51c0,0 -27.87,83.62 -22.81,248.33 0,0 -32.81,-60.46 -28.39,-131.92 4.43,-71.46 51.19,-116.41 51.19,-116.41z"/>
      <path id="_134084408" class="fil1" d="M1623.96 2156.19c0,0 -27.87,83.62 -22.81,248.33 0,0 -28.38,-59.36 -23.95,-130.81 4.42,-71.46 46.76,-117.51 46.76,-117.51z"/>
      <path id="_134074040" class="fil4" d="M1568.43 2264.72c0,0 -5.76,72.48 31.31,132.24l-83.55 -11.62c0,0 -22.13,-64.74 -1.11,-127.82l53.35 7.2z"/>
      <path id="_134090816" class="fil3" d="M1601.95 2167.89c0,0 -22.69,21.58 -33.75,70.27l-45.93 -3.32c0,0 -6.09,-42.61 6.64,-78.57l61.97 11.62 11.07 0z"/>
     </g>
    </g>
    <path id="_134081360" class="fil1" d="M2502.78 2152.7c0,0 26.92,34.99 17.5,164.2l22.68 -2.23c9.91,-37.83 13.58,-114.65 -17.47,-167.94l-22.7 5.97z"/>
    <path id="_134090696" class="fil1" d="M1347.89 2154.19c0,0 -25.79,35.83 -12.24,164.67l-22.74 -1.51c-11.12,-37.5 -17.24,-114.16 12.1,-168.41l22.88 5.24z"/>
    <path id="_134101040" class="fil1" d="M2410.08 2164.79c0,0 26.92,34.99 17.5,164.2l22.68 -2.23c9.91,-37.83 13.58,-114.65 -17.47,-167.94l-22.7 5.97z"/>
    <path id="_134096240" class="fil1" d="M1440.94 2163.31c0,0 -25.79,35.84 -12.24,164.67l-22.74 -1.5c-11.12,-37.5 -17.24,-114.16 12.1,-168.41l22.88 5.24z"/>
   </g>
  </g>
 </g>
</svg>
