<?xml version="1.0" encoding="UTF-8"?>
<!DOCTYPE svg PUBLIC "-//W3C//DTD SVG 1.1//EN" "http://www.w3.org/Graphics/SVG/1.1/DTD/svg11.dtd">
<!-- Creator: CorelDRAW -->
<svg xmlns="http://www.w3.org/2000/svg" xml:space="preserve" width="161.909mm" height="176.792mm" style="shape-rendering:geometricPrecision; text-rendering:geometricPrecision; image-rendering:optimizeQuality; fill-rule:evenodd; clip-rule:evenodd"
viewBox="0 0 35.3317 38.5795"
 xmlns:xlink="http://www.w3.org/1999/xlink">
 <defs>
  <style type="text/css">
   <![CDATA[
    .fil9 {fill:none}
    .fil2 {fill:#501D33}
    .fil4 {fill:#75414C}
    .fil3 {fill:#955B58}
    .fil1 {fill:#9E7A65}
    .fil5 {fill:#BB8778}
    .fil0 {fill:#C7A989}
    .fil8 {fill:#7F7A8A;fill-rule:nonzero}
    .fil6 {fill:#B1B1B4;fill-rule:nonzero}
    .fil7 {fill:white;fill-rule:nonzero}
   ]]>
  </style>
 </defs>
 <g id="Layer_x0020_1">
  <metadata id="CorelCorpID_0Corel-Layer"/>
  <g id="_120729656">
   <path id="_120731864" class="fil0" d="M11.5318 20.3359l-0.0353516 -0.282092c3.66628,1.12929 8.62172,1.12926 12.288,0l-0.0192688 0.153692c-6.13409,1.81949 -11.6291,0.30614 -12.2334,0.1284z"/>
   <path id="_120731792" class="fil1" d="M23.8537 20.7367c0,0 -1.87854,0.798574 -5.06854,0.884575 0,0 2.18573,0.319321 5.13942,-0.589826l0.083949 -0.254466 -0.154827 -0.0402833z"/>
   <path id="_120731720" class="fil2" d="M11.4786 20.6141c0,0 1.68068,0.810838 4.5358,1.00721 0,0 -2.09026,0.147626 -4.49022,-0.57143l-0.0277139 -0.272862 -0.0178722 -0.162923z"/>
   <path id="_120731648" class="fil2" d="M17.3852 20.8068c0,0 0.199736,2.02794 0.247024,2.02794 0.04731,0 0.120894,-2.02794 0.120894,-2.02794l-0.367918 0z"/>
   <path id="_120731576" class="fil2" d="M24.4224 19.4576c0,0 -5.06752,2.16077 -13.5048,0.205781 -0.104658,0.129251 0.0828361,1.78458 0.3344,2.39228 0,0 7.30544,1.90353 12.8874,-0.308672 0.245213,-0.694178 0.392795,-1.43211 0.282965,-2.28938z"/>
   <path id="_120731504" class="fil3" d="M11.317 20.0884c-0.0263173,0.552095 0.0267755,1.11656 0.237139,1.70491 0.270941,0.0641347 0.547709,0.119322 0.818214,0.171521 0.884073,0.170582 1.77958,0.29931 2.67546,0.388103 2.49641,0.247439 5.18965,0.201897 7.61968,-0.461927 0.395741,-0.108106 0.786943,-0.233517 1.17077,-0.37848 0.22913,-0.4846 0.255884,-1.01415 0.19068,-1.56409 -0.149306,0.0475064 -0.299113,0.0910194 -0.441436,0.131368 -0.884291,0.250647 -1.80155,0.422604 -2.71264,0.538675 -3.16344,0.403051 -6.44374,0.145552 -9.55786,-0.530077z"/>
   <path id="_120731432" class="fil4" d="M11.6538 21.6798c2.1822e-005,0.096453 7.13523,1.72465 12.1277,-0.328595 0.0710086,-0.158646 0.0745438,-0.294815 0.0474846,-0.420836 0,0 -3.06633,1.18299 -7.02586,0.961693 -3.95953,-0.221296 -5.25355,-0.52556 -5.25355,-0.52556 -0.0145116,0.110615 -0.0125913,0.219158 0.104222,0.313298z"/>
   <path id="_120731360" class="fil5" d="M21.0624 21.3524c0.126982,0 0.22996,0.102978 0.22996,0.229938 0,0.126982 -0.102978,0.22996 -0.22996,0.22996 -0.12696,0 -0.229938,-0.102978 -0.229938,-0.22996 0,-0.12696 0.102978,-0.229938 0.229938,-0.229938z"/>
   <path id="_120731288" class="fil5" d="M11.317 20.0884c0.0134205,0.0861531 0.0265791,0.172306 0.0396068,0.258525 3.12514,0.662798 6.40933,0.909735 9.57842,0.505964 0.928197,-0.118253 1.8627,-0.29344 2.7636,-0.548778 0.0966058,-0.0273865 0.19655,-0.0563225 0.297542,-0.0868077l0.0327766 -0.268868c-0.149306,0.0475064 -0.299113,0.0910194 -0.441436,0.131368 -0.884291,0.250647 -1.80155,0.422604 -2.71264,0.538675 -3.16344,0.403051 -6.44374,0.145552 -9.55786,-0.530077z"/>
   <path id="_120731216" class="fil4" d="M16.2733 22.4485c0.364798,0.0205999 0.732148,0.034195 1.10061,0.0396941 -0.017654,-0.0533765 -0.0307035,-0.103589 -0.0368136,-0.135645 -0.0289577,-0.151793 -0.0408725,-0.309435 -0.0408725,-0.463826 0,-0.154412 0.0119148,-0.312054 0.0408725,-0.463847 0.0147953,-0.0775552 0.0645057,-0.292414 0.126131,-0.369577l1.41878 -0.0149917 0 -0.253811c-0.81481,0.0350897 -1.63331,0.0307253 -2.45093,-0.00923069 -0.0643748,0.153714 -0.109939,0.316462 -0.13977,0.472794 -0.0407198,0.213571 -0.0597267,0.43358 -0.0597267,0.650905 0,0.182475 0.0133332,0.366718 0.0417236,0.547535z"/>
   <path id="_120731144" class="fil2" d="M17.0824 20.8096c-0.0616252,0.0771624 -0.111336,0.292021 -0.126131,0.369577 -0.0289577,0.151793 -0.0408725,0.309435 -0.0408725,0.463847 0,0.15439 0.0119148,0.312032 0.0408725,0.463826 0.0147953,0.0775552 0.0706377,0.261776 0.132241,0.338895l1.41267 0.0212764 0 1.05564 -1.50386 0c-0.663933,0 -0.978802,-0.650272 -1.08684,-1.21651 -0.0407198,-0.21355 -0.0597267,-0.433537 -0.0597267,-0.650883 0,-0.217325 0.0190069,-0.437334 0.0597267,-0.650905 0.10804,-0.566214 0.422909,-1.21653 1.08684,-1.21653l1.50386 0 0 1.00678 -1.41878 0.0149917z"/>
   <path id="_120731072" class="fil6" d="M18.2243 22.7042l-0.00613197 0.247155 0 0.261863 -0.261863 0 -0.950324 0c-0.444993,0 -0.714451,-0.42974 -0.819392,-0.97974 -0.0352861,-0.18505 -0.0529619,-0.382932 -0.0529619,-0.578216 0,-0.195285 0.0176758,-0.393166 0.0529619,-0.578216 0.104942,-0.550022 0.374421,-0.979784 0.819392,-0.979784l0.950324 0 0.261863 0 0 0.261863 0 0.236026 -1.21219 0.0258372c-0.141057,0 -0.246741,0.242224 -0.305878,0.552204 -0.0284995,0.149371 -0.0427492,0.314476 -0.0427492,0.482069 0,0.167593 0.0142497,0.332697 0.0427492,0.482069 0.0591375,0.309959 0.164799,0.552161 0.305878,0.552161l1.21832 0.014708z"/>
   <path id="_120731000" class="fil7" d="M16.1356 21.545c0.00539002,-0.158929 0.0223893,-0.317706 0.0510415,-0.467972 0.104942,-0.550022 0.374421,-0.979784 0.819392,-0.979784l0.950324 0 0.261863 0 0 0.151488c-1.10685,0 -1.88066,-0.0886189 -2.08262,1.29627z"/>
   <path id="_120730928" class="fil8" d="M18.2243 22.7042l-0.00613197 0.247155 0 0.179376 -0.261863 0 -0.950324 0c-0.444993,0 -0.622471,-0.365649 -0.727413,-0.915649 -0.0351115,-0.184112 -0.0527655,-0.380924 -0.0529401,-0.575248 0.133332,0.0221275 0.213811,0.0608396 0.432337,0.0727326 0.0028805,0.147822 0.0168902,0.292436 0.0421382,0.424764 0.0591375,0.309959 0.164799,0.552161 0.305878,0.552161l1.21832 0.014708z"/>
   <path id="_120730856" class="fil2" d="M21.0501 21.242c0.126982,0 0.22996,0.102978 0.22996,0.229938 0,0.126982 -0.102978,0.22996 -0.22996,0.22996 -0.12696,0 -0.229938,-0.102978 -0.229938,-0.22996 0,-0.12696 0.102978,-0.229938 0.229938,-0.229938z"/>
   <g>
    <path id="_120730784" class="fil5" d="M19.2105 21.518c0.126982,0 0.22996,0.102978 0.22996,0.229938 0,0.126982 -0.102978,0.22996 -0.22996,0.22996 -0.12696,0 -0.229938,-0.102978 -0.229938,-0.22996 0,-0.12696 0.102978,-0.229938 0.229938,-0.229938z"/>
    <path id="_120730712" class="fil2" d="M19.1982 21.4076c0.126982,0 0.22996,0.102978 0.22996,0.229938 0,0.126982 -0.102978,0.22996 -0.22996,0.22996 -0.12696,0 -0.229938,-0.102978 -0.229938,-0.22996 0,-0.12696 0.102978,-0.229938 0.229938,-0.229938z"/>
   </g>
   <g>
    <path id="_120730616" class="fil5" d="M12.4838 21.0689c0.126982,0 0.22996,0.102978 0.22996,0.229938 0,0.126982 -0.102978,0.22996 -0.22996,0.22996 -0.12696,0 -0.229938,-0.102978 -0.229938,-0.22996 0,-0.12696 0.102978,-0.229938 0.229938,-0.229938z"/>
    <path id="_120730544" class="fil2" d="M12.4715 20.9585c0.126982,0 0.22996,0.102978 0.22996,0.229938 0,0.126982 -0.102978,0.22996 -0.22996,0.22996 -0.12696,0 -0.229938,-0.102978 -0.229938,-0.22996 0,-0.12696 0.102978,-0.229938 0.229938,-0.229938z"/>
   </g>
   <rect id="_120730448" class="fil2" x="15.5523" y="21.4691" width="2.38534" height="0.398578" rx="0.197292" ry="0.197292"/>
   <g>
    <path id="_120730376" class="fil3" d="M21.5743 19.9667l1.15281 -0.177827c0,0 0.416974,0.999511 0.214619,2.36694l-0.0306598 0.104243 -1.07923 0.275939c0,0 0.275939,-1.60044 -0.257543,-2.56929z"/>
    <path id="_120730304" class="fil2" d="M22.6304 19.6654c0,0 0.308912,0.926691 0.252742,2.75201 0,0 0.363619,-0.670065 0.314563,-1.46196 -0.0490557,-0.791919 -0.567305,-1.29005 -0.567305,-1.29005z"/>
    <path id="_120730232" class="fil2" d="M21.5389 19.9168c0,0 0.308912,0.926691 0.252742,2.75201 0,0 0.314454,-0.657801 0.26542,-1.4497 -0.0490339,-0.791897 -0.518162,-1.30231 -0.518162,-1.30231z"/>
    <path id="_120730160" class="fil4" d="M22.1543 21.1195c0,0 0.0638729,0.803266 -0.346969,1.46552l0.925927 -0.128771c0,0 0.245279,-0.71744 0.0122639,-1.41648l-0.591222 0.0797374z"/>
    <path id="_120730088" class="fil5" d="M21.7828 20.0464c0,0 0.251411,0.239147 0.37405,0.77876l0.508953 -0.0367918c0,0 0.0674517,-0.472162 -0.0735836,-0.87074l-0.68678 0.128771 -0.122639 0z"/>
   </g>
   <g>
    <path id="_120729992" class="fil3" d="M14.78 20.2001l-1.15281 -0.177827c0,0 -0.416974,0.999511 -0.214619,2.36694l0.0306598 0.104243 1.07923 0.275939c0,0 -0.275939,-1.60044 0.257543,-2.56929z"/>
    <path id="_120729920" class="fil2" d="M13.724 19.8988c0,0 -0.308912,0.926691 -0.252742,2.75201 0,0 -0.339048,-0.676197 -0.290014,-1.46812 0.0490339,-0.791897 0.542756,-1.28389 0.542756,-1.28389z"/>
    <path id="_120729848" class="fil2" d="M14.8155 20.1503c0,0 -0.308912,0.926691 -0.252742,2.75201 0,0 -0.314454,-0.657801 -0.26542,-1.4497 0.0490339,-0.791897 0.518162,-1.30231 0.518162,-1.30231z"/>
    <path id="_120729776" class="fil4" d="M14.2 21.353c0,0 -0.131325,0.803266 0.279517,1.46552l-0.901399 -0.134903c0,0 -0.128771,-0.668385 0.0367918,-1.37969l0.58509 0.0490776z"/>
    <path id="_120729704" class="fil5" d="M14.5715 20.2798c0,0 -0.251411,0.239147 -0.37405,0.77876l-0.508953 -0.0367918c0,0 -0.0674517,-0.472162 0.0735836,-0.87074l0.68678 0.128771 0.122639 0z"/>
   </g>
  </g>
  <rect class="fil9" width="35.3317" height="38.5795"/>
 </g>
</svg>
