<?xml version="1.0" encoding="UTF-8"?>
<!DOCTYPE svg PUBLIC "-//W3C//DTD SVG 1.1//EN" "http://www.w3.org/Graphics/SVG/1.1/DTD/svg11.dtd">
<!-- Creator: CorelDRAW -->
<svg xmlns="http://www.w3.org/2000/svg" xml:space="preserve" width="161.909mm" height="176.792mm" style="shape-rendering:geometricPrecision; text-rendering:geometricPrecision; image-rendering:optimizeQuality; fill-rule:evenodd; clip-rule:evenodd"
viewBox="0 0 35.3317 38.5795"
 xmlns:xlink="http://www.w3.org/1999/xlink">
 <defs>
  <style type="text/css">
   <![CDATA[
    .fil7 {fill:none}
    .fil0 {fill:#501D33}
    .fil6 {fill:#75414C}
    .fil5 {fill:#7F7A8A}
    .fil2 {fill:#955B58}
    .fil3 {fill:#B1B1B4}
    .fil4 {fill:white}
    .fil1 {fill:#501D33;fill-rule:nonzero}
   ]]>
  </style>
 </defs>
 <g id="Layer_x0020_1">
  <metadata id="CorelCorpID_0Corel-Layer"/>
  <g id="_123725144">
   <g>
    <g>
     <circle id="_123728024" class="fil0" cx="16.6113" cy="21.381" r="0.282071"/>
     <g>
      <path id="_123727952" class="fil1" d="M16.8198 21.3308c-0.429762,0.378873 -0.187669,0.875235 0.04216,1.3465 0.26625,0.54592 0.517268,1.06061 -0.224482,1.38519l-0.146469 -0.106971c0.614921,-0.269065 0.384437,-0.741575 0.140031,-1.24276 -0.243533,-0.499308 -0.500006,-1.0252 -0.0130495,-1.4545l0.201809 0.0725362z"/>
      <ellipse id="_123727880" class="fil0" cx="16.6342" cy="23.9787" rx="0.20212" ry="0.242113"/>
     </g>
    </g>
    <g>
     <circle id="_123727760" class="fil0" transform="matrix(-0.985334 0.170634 0.170634 0.985334 18.4624 21.3809)" r="0.282071"/>
     <g>
      <path id="_123727688" class="fil1" d="M18.2485 21.3671c0.488113,0.299986 0.334269,0.830369 0.188214,1.33393 -0.169186,0.583366 -0.328704,1.13334 0.457541,1.32658l0.126087 -0.130386c-0.651822,-0.160195 -0.505353,-0.665089 -0.350024,-1.20064 0.154761,-0.533547 0.317728,-1.09548 -0.235328,-1.4354l-0.18649 0.105924z"/>
      <circle id="_123727616" class="fil0" transform="matrix(-0.941447 0.163034 0.195294 1.12773 18.8831 23.9445)" r="0.211542"/>
     </g>
    </g>
   </g>
   <g>
    <g>
     <path id="_123727472" class="fil0" d="M21.779 3.05922c0.489335,0.028674 1.14443,0.0634582 1.63379,0.0921105l-0.516438 17.7615 -1.33291 0.0122858c0.106622,-5.95325 0.108935,-11.9126 0.215557,-17.8659z"/>
     <polygon id="_123727400" class="fil2" points="22.0412,3.06533 23.1054,3.15133 22.5646,20.9374 21.8586,20.9251 "/>
     <path id="_123727328" class="fil0" d="M21.5996 19.8259l1.33651 0c0.0918922,0 0.167047,0.0780789 0.167047,0.173572l0 1.4159c0,0.0954929 -0.0751548,0.173572 -0.167047,0.173572l-1.33651 0c-0.0918922,0 -0.167047,-0.0780789 -0.167047,-0.173572l0 -1.4159c0,-0.0954929 0.0751548,-0.173572 0.167047,-0.173572z"/>
     <path id="_123727256" class="fil3" d="M21.7949 20.0835l0.945807 0c0.0650512,0 0.118231,0.055275 0.118231,0.122836l0 1.00202c0,0.0675608 -0.0531801,0.122836 -0.118231,0.122836l-0.945807 0c-0.0650512,0 -0.118231,-0.055275 -0.118231,-0.122836l0 -1.00202c0,-0.0675608 0.0531801,-0.122836 0.118231,-0.122836z"/>
     <path id="_123727184" class="fil4" d="M21.7948 20.0835l0.945938 0c0.0650512,0 0.118166,0.0553186 0.118166,0.122836l0 0.0410471c-0.022673,-0.0242005 -0.0542712,-0.0392577 -0.0891645,-0.0392577l-0.997831 0c-0.0381666,0 -0.0723616,0.0180031 -0.0952746,0.0462625l0 -0.0480519c0,-0.0675171 0.0531146,-0.122836 0.118166,-0.122836z"/>
     <rect id="_123727112" class="fil5" x="21.7591" y="20.8404" width="1.01734" height="0.400215" rx="0.0400215" ry="0.0400215"/>
     <path id="_123727040" class="fil0" d="M21.8141 12.6762l1.12848 0c0.193495,0 0.35105,0.157554 0.35105,0.35105l0 1.10853c0,0.193495 -0.157554,0.35105 -0.35105,0.35105l-1.12848 0c-0.193495,0 -0.35105,-0.157554 -0.35105,-0.35105l0 -1.10853c0,-0.193495 0.157554,-0.35105 0.35105,-0.35105zm0.341972 0.689225l0 0.432184 0.444535 0 0 -0.432184 -0.444535 0z"/>
     <path id="_123726968" class="fil3" d="M21.8539 12.9375l1.049 0c0.0708559,0 0.128815,0.0579591 0.128815,0.128837l0 1.03048c0,0.0708559 -0.0579591,0.128815 -0.128815,0.128815l-1.049 0c-0.0708777,0 -0.128815,-0.0579591 -0.128815,-0.128815l0 -1.03048c0,-0.0708777 0.0579373,-0.128837 0.128815,-0.128837zm0.20002 0.24565l0.648941 0c0.0438621,0 0.0796719,0.0358316 0.0796719,0.0797156l0 0.637419c0,0.0438839 -0.0358098,0.0796938 -0.0796719,0.0796938l-0.648941 0c-0.0438403,0 -0.0796501,-0.0358098 -0.0796501,-0.0796938l0 -0.637419c0,-0.0438839 0.0358098,-0.0797156 0.0796501,-0.0797156z"/>
     <path id="_123726896" class="fil4" d="M21.8538 12.9375l1.04907 0c0.0686519,0 0.125193,0.0543585 0.128575,0.122334l-1.30615 0c0.0033824,-0.0679754 0.0598576,-0.122334 0.128509,-0.122334z"/>
     <path id="_123726824" class="fil5" d="M23.0317 13.575l0 0.521828c0,0.0709432 -0.0579591,0.128815 -0.128771,0.128815l-1.04907 0c-0.0708122,0 -0.128706,-0.0578718 -0.128706,-0.128815l0 -0.521828 0.249163 0 0 0.3253c0,0.0439058 0.0357225,0.0796719 0.079541,0.0796719l0.649072 0c0.0438185,0 0.0795847,-0.0357662 0.0795847,-0.0796719l0 -0.3253 0.249185 0z"/>
     <polygon id="_123726752" class="fil6" points="22.0495,14.6848 21.9791,19.706 22.4705,19.6937 22.6302,14.718 "/>
     <polygon id="_123726680" class="fil6" points="22.1709,3.2497 22.1709,12.3984 22.6628,12.3984 22.8841,3.29889 "/>
     <rect id="_123726608" class="fil0" x="21.4754" y="15.234" width="1.78144" height="0.540573" rx="0.267581" ry="0.267581"/>
     <polygon id="_123726536" class="fil0" points="23.0358,10.7543 22.0854,11.0363 23.0236,11.1038 "/>
     <polygon id="_123726464" class="fil0" points="21.6807,16.9107 22.7844,16.9659 22.7844,17.0579 21.7236,17.1989 "/>
     <polygon id="_123726392" class="fil0" points="21.7665,17.3522 22.392,17.4258 21.7604,17.6037 "/>
    </g>
    <g>
     <path id="_123726296" class="fil0" d="M13.5957 3.05922c-0.489335,0.028674 -1.14443,0.0634582 -1.63379,0.0921105l0.516438 17.7615 1.33291 0.0122858c-0.106622,-5.95325 -0.108935,-11.9126 -0.215557,-17.8659z"/>
     <polygon id="_123726224" class="fil2" points="13.3334,3.06533 12.2692,3.15133 12.8101,20.9374 13.5161,20.9251 "/>
     <path id="_123726152" class="fil0" d="M13.7751 19.8259l-1.33651 0c-0.0918922,0 -0.167047,0.0780789 -0.167047,0.173572l0 1.4159c0,0.0954929 0.0751548,0.173572 0.167047,0.173572l1.33651 0c0.0918922,0 0.167047,-0.0780789 0.167047,-0.173572l0 -1.4159c0,-0.0954929 -0.0751548,-0.173572 -0.167047,-0.173572z"/>
     <path id="_123726080" class="fil3" d="M13.5798 20.0835l-0.945807 0c-0.0650512,0 -0.118231,0.055275 -0.118231,0.122836l0 1.00202c0,0.0675608 0.0531801,0.122836 0.118231,0.122836l0.945807 0c0.0650512,0 0.118231,-0.055275 0.118231,-0.122836l0 -1.00202c0,-0.0675608 -0.0531801,-0.122836 -0.118231,-0.122836z"/>
     <path id="_123726008" class="fil4" d="M13.5798 20.0835l-0.945938 0c-0.0650512,0 -0.118166,0.0553186 -0.118166,0.122836l0 0.0410471c0.022673,-0.0242005 0.0542712,-0.0392577 0.0891645,-0.0392577l0.997831 0c0.0381666,0 0.0723616,0.0180031 0.0952746,0.0462625l0 -0.0480519c0,-0.0675171 -0.0531146,-0.122836 -0.118166,-0.122836z"/>
     <rect id="_123725936" class="fil5" x="12.5982" y="20.8404" width="1.01734" height="0.400215" rx="0.0400215" ry="0.0400215"/>
     <path id="_123725864" class="fil0" d="M13.5606 12.6762l-1.12848 0c-0.193495,0 -0.35105,0.157554 -0.35105,0.35105l0 1.10853c0,0.193495 0.157554,0.35105 0.35105,0.35105l1.12848 0c0.193495,0 0.35105,-0.157554 0.35105,-0.35105l0 -1.10853c0,-0.193495 -0.157554,-0.35105 -0.35105,-0.35105zm-0.341972 0.689225l0 0.432184 -0.444535 0 0 -0.432184 0.444535 0z"/>
     <path id="_123725792" class="fil3" d="M13.5208 12.9375l-1.049 0c-0.0708559,0 -0.128815,0.0579591 -0.128815,0.128837l0 1.03048c0,0.0708559 0.0579591,0.128815 0.128815,0.128815l1.049 0c0.0708777,0 0.128815,-0.0579591 0.128815,-0.128815l0 -1.03048c0,-0.0708777 -0.0579373,-0.128837 -0.128815,-0.128837zm-0.20002 0.24565l-0.648941 0c-0.0438621,0 -0.0796719,0.0358316 -0.0796719,0.0797156l0 0.637419c0,0.0438839 0.0358098,0.0796938 0.0796719,0.0796938l0.648941 0c0.0438403,0 0.0796501,-0.0358098 0.0796501,-0.0796938l0 -0.637419c0,-0.0438839 -0.0358098,-0.0797156 -0.0796501,-0.0797156z"/>
     <path id="_123725720" class="fil4" d="M13.5209 12.9375l-1.04907 0c-0.0686519,0 -0.125193,0.0543585 -0.128575,0.122334l1.30615 0c-0.0033824,-0.0679754 -0.0598576,-0.122334 -0.128509,-0.122334z"/>
     <path id="_123725648" class="fil5" d="M12.343 13.575l0 0.521828c0,0.0709432 0.0579591,0.128815 0.128771,0.128815l1.04907 0c0.0708122,0 0.128706,-0.0578718 0.128706,-0.128815l0 -0.521828 -0.249163 0 0 0.3253c0,0.0439058 -0.0357225,0.0796719 -0.079541,0.0796719l-0.649072 0c-0.0438185,0 -0.0795847,-0.0357662 -0.0795847,-0.0796719l0 -0.3253 -0.249185 0z"/>
     <polygon id="_123725576" class="fil6" points="13.3251,14.6848 13.3956,19.706 12.9042,19.6937 12.7445,14.718 "/>
     <polygon id="_123725504" class="fil6" points="13.2038,3.2497 13.2038,12.3984 12.7119,12.3984 12.4906,3.29889 "/>
     <rect id="_123725432" class="fil0" x="12.1179" y="15.234" width="1.78144" height="0.540573" rx="0.267581" ry="0.267581"/>
     <polygon id="_123725360" class="fil0" points="12.3389,10.7543 13.2893,11.0363 12.3511,11.1038 "/>
     <polygon id="_123725288" class="fil0" points="13.694,16.9107 12.5903,16.9659 12.5903,17.0579 13.6511,17.1989 "/>
     <polygon id="_123725216" class="fil0" points="13.6082,17.3522 12.9827,17.4258 13.6143,17.6037 "/>
    </g>
   </g>
  </g>
  <rect class="fil7" width="35.3317" height="38.5795"/>
 </g>
</svg>
