<?xml version="1.0" encoding="UTF-8"?>
<!DOCTYPE svg PUBLIC "-//W3C//DTD SVG 1.1//EN" "http://www.w3.org/Graphics/SVG/1.1/DTD/svg11.dtd">
<!-- Creator: CorelDRAW 2020 (64-Bit) -->
<svg xmlns="http://www.w3.org/2000/svg" xml:space="preserve" width="161.908mm" height="176.791mm" version="1.1" style="shape-rendering:geometricPrecision; text-rendering:geometricPrecision; image-rendering:optimizeQuality; fill-rule:evenodd; clip-rule:evenodd"
viewBox="0 0 2289.01 2499.43"
 xmlns:xlink="http://www.w3.org/1999/xlink"
 xmlns:xodm="http://www.corel.com/coreldraw/odm/2003">
 <defs>
  <style type="text/css">
   <![CDATA[
    .fil0 {fill:none}
    .fil1 {fill:#501D33}
    .fil10 {fill:#623448}
    .fil6 {fill:#8E7A5D}
    .fil7 {fill:#9F5655}
    .fil3 {fill:#BB765A}
    .fil2 {fill:#C3C077}
    .fil4 {fill:#D4D784}
    .fil8 {fill:#D79A6E}
    .fil5 {fill:#EEF698}
    .fil9 {fill:#501D33;fill-rule:nonzero}
   ]]>
  </style>
 </defs>
 <g id="Слой_x0020_1">
  <metadata id="CorelCorpID_0Corel-Layer"/>
  <g id="_2674679313008">
   <rect class="fil0" y="0" width="2289.01" height="2499.43"/>
   <path id="_103297632" class="fil1" d="M1666.59 261.03c236.05,105.92 429.53,515.35 446.78,731.02 19.76,247.07 16.7,397.43 -127.41,699.27 0,0 -32.53,60.78 -139.63,34.72 -49.88,8.06 -94.2,-11.93 -117.13,-44.81 -0.56,-0.8 -61.05,-6.54 -89.77,-34.5 -13.03,-12.68 -21.31,-23.96 -16.62,-47.04 6.13,-30.22 15.18,-67.21 15.18,-67.21 0,0 -53.26,-53.1 -44.54,-75.69 8.72,-22.59 117.64,-116.98 117.82,-117.89 74.74,-342.71 1.45,-635.05 -194.35,-871.19l-157.31 -208.29c79.03,-23.33 223.18,-35.99 306.98,1.61l0 0z"/>
   <path id="_103297560" class="fil1" d="M719.81 1293.83c-42.69,-253.75 -64.71,-681.42 -90.37,-882.58 44.86,-184.73 397.75,-128.09 517.96,-103.1 120.21,-24.99 473.1,-81.63 517.96,103.1 -25.32,198.49 -43.97,621.2 -85.5,875.61 -155.97,49.54 -305.03,66.47 -434.31,66.22 -98.08,-0.19 -325.73,-19.71 -425.75,-59.25l0 0z"/>
   <path id="_103297488" class="fil1" d="M625.43 261.03c-236.05,105.92 -429.53,515.35 -446.78,731.02 -19.76,247.07 -16.7,397.43 127.41,699.27 0,0 32.53,60.78 139.63,34.72 49.88,8.06 94.2,-11.93 117.13,-44.81 0.56,-0.8 61.05,-6.54 89.77,-34.5 13.03,-12.68 21.31,-23.96 16.62,-47.04 -6.13,-30.22 -15.18,-67.21 -15.18,-67.21 0,0 53.26,-53.1 44.54,-75.69 -8.72,-22.59 -117.64,-116.98 -117.82,-117.89 -74.74,-342.71 -1.45,-635.05 194.35,-871.19l157.31 -208.29c-79.03,-23.33 -223.18,-35.99 -306.98,1.61l0 0z"/>
   <path id="_103297416" class="fil2" d="M649.17 582.86l22.31 -30.86c18.01,240.6 45.78,499.54 81.82,733.66 117.21,28.47 459.54,94.5 789.37,-7.48 35.3,-231.01 62.58,-485.63 80.4,-722.69l19.78 27.37c117.59,207.43 174.56,523.12 90.33,787.4 0,0 -104.23,81.03 -105.5,92.24 -1.28,11.2 28.49,44.07 28.49,44.07 9.25,-15.88 21.89,-44.78 27.11,-38.62 -18.92,66.54 -27.53,106.17 -32.68,129.67 -6.75,30.76 1.02,32.62 25.86,44.29l54.37 14.36c0,0 11.57,-42.45 15.18,-42.59 3.61,-0.13 3.78,57.38 3.78,57.38 41.57,35.87 92.49,35.69 92.49,35.69 0,0 40.3,-46.46 41.94,-42.78 1.63,3.67 -22.44,46.25 -22.44,46.25 82.75,9.57 95.88,-29.1 95.88,-29.1 108.15,-211.86 152.74,-416.75 123.54,-650.42 -29.01,-232.15 -145.58,-482.95 -307.69,-649.22 -111.37,-114.22 -199.86,-123.31 -349.93,-117.22 -81.71,-27.28 -178.77,-41.06 -275.88,-41.23l0 -0 -0.29 0 -0.29 -0 0 0c-97.22,0.17 -194.41,13.99 -276.19,41.33 -151.59,-6.29 -240.42,2.27 -352.41,117.12 -162.11,166.27 -278.67,417.07 -307.69,649.22 -29.19,233.67 15.39,438.56 123.54,650.42 0,0 13.13,38.67 95.88,29.1 0,0 -24.07,-42.58 -22.44,-46.25 1.63,-3.68 41.94,42.78 41.94,42.78 0,0 50.92,0.19 92.49,-35.69 0,0 0.17,-57.52 3.78,-57.38 3.61,0.13 15.18,42.59 15.18,42.59l54.37 -14.36c24.84,-11.68 32.6,-13.53 25.86,-44.29 -5.15,-23.5 -13.75,-63.13 -32.68,-129.67 5.22,-6.15 17.86,22.74 27.11,38.62 0,0 29.76,-32.87 28.49,-44.07 -1.27,-11.2 -105.5,-92.24 -105.5,-92.24 -84.23,-264.28 -27.26,-579.97 90.33,-787.4l0 -0z"/>
   <path class="fil3" d="M1317.56 1170.51c0,-20.79 -16.85,-37.64 -37.64,-37.64 -20.79,0 -46.3,20.43 -46.3,41.22 0,39.36 83.94,41.31 83.94,-3.58zm-478.51 133.33c51.31,9.45 115.6,18.89 188.35,24.39l84.34 0c-8.28,-28.64 -34.7,-49.59 -66.01,-49.59 -19.9,0 -37.83,8.47 -50.38,21.99 -2.81,-40.67 -36.69,-72.78 -78.07,-72.78 -42.46,0 -77.02,33.82 -78.23,75.99zm436.37 24.39c58.45,-4.72 118.64,-13.21 179.12,-26.71 -14.17,-49.1 -59.43,-85.01 -113.09,-85.01 -46.7,0 -87.04,27.19 -106.06,66.61 -1.66,-0.19 -3.35,-0.29 -5.06,-0.29 -24.09,0 -43.61,19.53 -43.61,43.61 0,0.6 0.02,1.19 0.04,1.79l88.65 0zm-257.17 -63.92c15.18,0 27.48,-12.3 27.48,-27.48 0,-15.18 -12.3,-27.48 -27.48,-27.48 -35.61,0 -28.31,54.97 0,54.97z"/>
   <path id="_103244936" class="fil4" d="M874.19 613.34c93.53,-8.85 15.38,71.97 -62.96,108.83 -159.72,75.15 -65.1,-96.71 62.96,-108.83z"/>
   <path id="_103245944" class="fil5" d="M1680.68 306.66c30.39,17.62 60.65,41.83 92.83,74.83 162.11,166.27 278.67,417.07 307.69,649.22 29.19,233.67 -15.39,438.56 -123.54,650.42 0,0 -1.12,3.27 -4.73,7.67 -23.9,-3.34 -48.08,-8.76 -71.79,-15.49 2.18,-4.78 3.5,-8.37 3.07,-9.33 -0.48,-1.09 -4.38,2.23 -9.6,7.44 -46.11,-13.6 -90.14,-31.88 -126.51,-49.01 -0.52,-5.27 -1.2,-8.75 -2.09,-8.72 -0.8,0.03 -1.89,2.48 -3.08,6.26 -47.91,-22.87 -81.42,-43.11 -86.94,-46.49l0.05 -0.21c105.96,36.4 284.87,54.62 284.87,54.62 241.39,-496.57 74.04,-1026.11 -260.22,-1321.21l0 -0z"/>
   <path id="_103296912" class="fil5" d="M611.34 306.66c-30.39,17.62 -60.65,41.83 -92.83,74.83 -162.11,166.27 -278.67,417.07 -307.69,649.22 -29.19,233.67 15.39,438.56 123.54,650.42 0,0 1.12,3.27 4.73,7.67 23.9,-3.34 48.08,-8.76 71.79,-15.49 -2.18,-4.78 -3.5,-8.37 -3.07,-9.33 0.48,-1.09 4.38,2.23 9.6,7.44 46.11,-13.6 90.14,-31.88 126.51,-49.01 0.52,-5.27 1.2,-8.75 2.09,-8.72 0.8,0.03 1.89,2.48 3.08,6.26 47.91,-22.87 81.42,-43.11 86.94,-46.49l-0.05 -0.21c-105.96,36.4 -284.87,54.62 -284.87,54.62 -241.39,-496.57 -74.04,-1026.11 260.22,-1321.21l0 -0z"/>
   <path class="fil3" d="M1804.9 415.39c-29.78,42.37 -79.02,70.06 -134.74,70.06 -41.07,0 -78.63,-15.05 -107.46,-39.93 -18.77,31.74 -45.71,58.09 -77.92,76.12 2.56,8.06 3.95,16.63 3.95,25.54 0,46.47 -37.68,84.15 -84.15,84.15 -46.47,0 -84.15,-37.68 -84.15,-84.15 0,-2.88 0.15,-5.72 0.43,-8.52 -31.29,-9.77 -59.41,-26.71 -82.44,-48.9 -29.44,91.37 -115.15,157.48 -216.32,157.48 -81.37,0 -152.74,-42.78 -192.88,-107.07 -6.65,0.92 -13.43,1.4 -20.33,1.4 -58.4,0 -108.88,-33.89 -132.87,-83.07 -30.45,31.6 -73.2,51.27 -120.56,51.27 -42.68,0 -81.62,-15.98 -111.18,-42.27 23.46,-30.56 48.26,-59.38 74.24,-86.02 111.98,-114.85 200.82,-123.41 352.41,-117.12 81.77,-27.34 178.97,-41.16 276.19,-41.33l0 -0 0.29 0 0.29 -0 0 0c97.1,0.17 194.17,13.95 275.88,41.23 150.07,-6.09 238.56,3.01 349.93,117.22 10.67,10.94 21.13,22.26 31.39,33.9zm-147.28 194.73c46.12,88.92 81.43,194.95 100.33,307.03 5.66,-1.07 11.45,-2.93 17.35,-5.78 186.41,-89.81 44.36,-351.32 -117.68,-301.26zm286.1 5.31c-35.73,-65.36 -77.1,-126.82 -122.97,-181.58 -13,18.94 -20.61,41.87 -20.61,66.58 0,65.08 52.75,117.83 117.83,117.83 8.84,0 17.46,-0.98 25.74,-2.83zm-1514.9 -127.25c-48.09,65.88 -90.08,139.07 -124.34,215.62 3.82,0.32 7.69,0.49 11.59,0.49 75.92,0 137.47,-61.55 137.47,-137.47 0,-29.25 -9.14,-56.36 -24.72,-78.65zm133.29 305.55c18.71,-65.08 42.8,-126.31 71.01,-181.12 -8.01,-6.54 -19.15,-10.25 -34.63,-10.25 -54.75,0 -99.13,44.38 -99.13,99.13 0,41.9 26,77.74 62.75,92.24zm1361.01 -52.03c18.85,0 34.13,15.28 34.13,34.13 0,18.85 -15.28,34.13 -34.13,34.13 -18.85,0 -34.13,-15.28 -34.13,-34.13 0,-18.85 15.28,-34.13 34.13,-34.13zm-179.08 -244.08c16.53,0 29.93,13.4 29.93,29.93 0,16.53 -13.4,29.93 -29.93,29.93 -16.53,0 -29.93,-13.4 -29.93,-29.93 0,-16.53 13.4,-29.93 29.93,-29.93zm-168.8 -22.91c10.33,0 18.7,8.37 18.7,18.7 0,10.33 -8.37,18.7 -18.7,18.7 -10.33,0 -18.7,-8.37 -18.7,-18.7 0,-10.33 8.37,-18.7 18.7,-18.7zm-308.12 93.06c23.75,0 43.01,19.26 43.01,43.01 0,23.75 -19.26,43.01 -43.01,43.01 -23.75,0 -43.01,-19.26 -43.01,-43.01 0,-23.75 19.26,-43.01 43.01,-43.01zm-755.6 -43.03c19.11,0 34.6,15.49 34.6,34.6 0,19.11 -15.49,34.6 -34.6,34.6 -19.11,0 -34.6,-15.49 -34.6,-34.6 0,-19.11 15.49,-34.6 34.6,-34.6zm-23.38 89.78c7.75,0 14.03,6.28 14.03,14.03 0,7.75 -6.28,14.03 -14.03,14.03 -7.75,0 -14.03,-6.28 -14.03,-14.03 0,-7.75 6.28,-14.03 14.03,-14.03z"/>
   <circle id="_103297344" class="fil6" cx="1885.23" cy="666.88" r="42.19"/>
   <path id="_103297200" class="fil6" d="M753.3 1285.65c-33.77,-219.44 -60.29,-460.68 -78.31,-688.19 -0.8,-9.88 -4.61,-43.31 -2.97,-43.93l37.43 215.65c7.48,22.5 39.88,97.29 142.32,106.05 0,0 11.12,-0.4 14.7,4.37 3.33,4.44 -116.19,73.63 -106.97,311.88l7.28 62.55c0,0 280.57,113.91 721.42,4.75 15.27,-198.96 -93.12,-299.66 -163.28,-357.79 -94.06,-77.92 -47.1,-47.52 22.48,-33.08 80.66,16.75 189.95,29.58 237.51,-95.62l32.29 -204.19c0,0 1.19,7.82 3.24,21.49 -15.91,202.8 -38.61,416.87 -67.2,616.93 -0.87,11.12 -1.35,17.34 -1.35,17.34l-1.25 0.69c-2.62,18 -5.27,35.88 -7.98,53.62 -329.83,101.98 -672.16,35.95 -789.37,7.48zm735.29 -26.97c6.71,-1.66 13.45,-3.37 20.24,-5.14l1.04 -6.55 -21.27 11.69z"/>
   <path id="_103297200_0" class="fil7" d="M844.64 1276.95c57.15,13.41 144.2,27.93 255.96,29.05 4.97,6.59 8.78,14.1 11.13,22.23l-84.32 0c-3.02,-0.23 -6.02,-0.46 -9,-0.7l-3.7 -0.3c-3,-0.25 -5.99,-0.5 -8.96,-0.77l-3.38 -0.3c-2.99,-0.27 -5.96,-0.54 -8.91,-0.82l-3.89 -0.37c-2.84,-0.28 -5.67,-0.56 -8.48,-0.85l-2.87 -0.29c-3.04,-0.32 -6.06,-0.64 -9.07,-0.96l-3.23 -0.35c-2.66,-0.3 -5.31,-0.59 -7.94,-0.9l-4.26 -0.5c-2.53,-0.3 -5.04,-0.6 -7.54,-0.9l-4.08 -0.5c-2.55,-0.32 -5.1,-0.64 -7.62,-0.96l-2.97 -0.38c-2.62,-0.34 -5.23,-0.69 -7.82,-1.04l-3.81 -0.52c-2.42,-0.33 -4.82,-0.66 -7.2,-1l-3.68 -0.52c-2.37,-0.34 -4.73,-0.68 -7.07,-1.02l-3.1 -0.46 -6.6 -1 -4.62 -0.71c-1.99,-0.31 -3.97,-0.62 -5.93,-0.93l-3.77 -0.6c-2.27,-0.37 -4.53,-0.73 -6.76,-1.1l-2.97 -0.49c-2.15,-0.36 -4.27,-0.72 -6.38,-1.08l-3.64 -0.62 -6.09 -1.06 -3.04 -0.54 -5.8 -1.04 -3.77 -0.69 -0.41 -0.08c0.27,-9.48 2.23,-18.54 5.59,-26.89zm348.37 26.93c74.36,-4.12 157.09,-14.4 247.05,-33.94 6.3,9.64 11.22,20.26 14.49,31.58l-0.53 0.12c-2.91,0.65 -5.82,1.29 -8.72,1.91 -2.11,0.45 -4.22,0.9 -6.33,1.34 -3.2,0.67 -6.39,1.32 -9.59,1.97l-5.05 1c-3.92,0.77 -7.83,1.52 -11.74,2.25l-0.5 0.09 -2.82 0.52 -0.13 0.02c-3.72,0.68 -7.44,1.35 -11.16,2l-3.97 0.68c-3.93,0.67 -7.86,1.33 -11.78,1.96l-4.14 0.66c-3.64,0.58 -7.29,1.14 -10.92,1.68l-4.04 0.6c-3.95,0.58 -7.9,1.14 -11.84,1.68l-1.06 0.14 -2.8 0.38 -0.31 0.04c-3.41,0.46 -6.81,0.9 -10.22,1.32l-4.71 0.58c-3.59,0.44 -7.18,0.86 -10.76,1.27l-4.41 0.5c-3.56,0.4 -7.11,0.77 -10.66,1.14l-4.45 0.45c-3.34,0.33 -6.67,0.65 -10,0.96l-2.75 0.25 -2.75 0.25c-3.51,0.31 -7.02,0.61 -10.52,0.89l-0.47 0.04 -88.65 0c-0.02,-0.6 -0.04,-1.19 -0.04,-1.79 0,-8.26 2.3,-15.98 6.28,-22.56z"/>
   <path id="_103297128" class="fil4" d="M1127.99 840.41c0,0 -387.26,14.24 -338.85,358.79 0,0 71.03,40.65 250.34,-64.66 179.31,-105.31 133.77,-290.32 88.51,-294.13l-0 -0z"/>
   <path id="_103296912_1" class="fil8" d="M610.18 307.33l-1.49 0.88c-1.12,0.66 -2.23,1.33 -3.35,2.01l-1.78 1.09c-1.09,0.68 -2.19,1.36 -3.28,2.05l-1.51 0.96c-1.15,0.74 -2.3,1.49 -3.46,2.25l-1.53 1.01c-1.12,0.75 -2.25,1.5 -3.37,2.27l-1.65 1.13c-1.13,0.78 -2.25,1.57 -3.38,2.36l-1.63 1.16c-1.16,0.83 -2.32,1.67 -3.48,2.52l-1.29 0.95c-1.23,0.91 -2.46,1.83 -3.69,2.76l-1.23 0.93c-1.31,1 -2.63,2.02 -3.95,3.05l-0.99 0.78c-1.35,1.06 -2.7,2.14 -4.06,3.24l-0.74 0.6c-1.42,1.15 -2.84,2.32 -4.27,3.5l-0.98 0.82c-1.4,1.17 -2.8,2.36 -4.2,3.56l-0.59 0.51c-1.55,1.33 -3.09,2.68 -4.65,4.05l-0.17 0.15 -0.19 0.17c-1.58,1.4 -3.17,2.82 -4.76,4.26l-0.26 0.24c-1.6,1.46 -3.21,2.93 -4.82,4.43l-0.4 0.38c-1.6,1.49 -3.21,3.01 -4.82,4.55l-0.18 0.18c-1.67,1.6 -3.34,3.21 -5.02,4.86l-0.06 0.06 -0.03 0.03c-3.45,3.37 -6.91,6.85 -10.4,10.43l0 0 -0.12 0.13c-2.43,2.5 -4.86,5.01 -7.27,7.55l-0.36 0.38c-2.32,2.45 -4.64,4.9 -6.94,7.38l-0.74 0.8c-2.18,2.36 -4.36,4.73 -6.52,7.11l-0.89 0.98c-2.17,2.39 -4.32,4.8 -6.48,7.23l-1.14 1.28c-1.96,2.22 -3.92,4.46 -5.87,6.7l-1.6 1.85c-1.79,2.08 -3.57,4.16 -5.35,6.26l-2.27 2.68c-1.54,1.83 -3.07,3.66 -4.6,5.5l-2.85 3.46c-1.29,1.57 -2.58,3.15 -3.87,4.74 -1.16,1.42 -2.31,2.85 -3.46,4.28 -1.17,1.46 -2.34,2.92 -3.5,4.39 -1.18,1.49 -2.36,2.98 -3.53,4.47l-3.03 3.88c-1.29,1.65 -2.57,3.32 -3.85,4.98 3.74,3.33 7.64,6.49 11.67,9.48 46.13,-62.71 98.32,-119.93 155.38,-170.31l-1.15 0.66zm-232.72 257.69l-0.1 0.16zm-10.01 16.68l-1.97 3.36c-1.31,2.25 -2.62,4.5 -3.92,6.75l-1.94 3.39 -0.1 0.18c-1.17,2.05 -2.33,4.1 -3.49,6.15 -0.8,1.41 -1.59,2.83 -2.38,4.25 -1.1,1.98 -2.2,3.96 -3.29,5.94l-2.3 4.19c-1.09,1.99 -2.17,3.99 -3.25,6l-2.49 4.65c-0.95,1.79 -1.9,3.58 -2.84,5.37l-2.62 5c-0.87,1.67 -1.73,3.34 -2.6,5.01 -0.93,1.8 -1.85,3.6 -2.77,5.4 -0.87,1.71 -1.74,3.42 -2.6,5.13 -0.93,1.85 -1.86,3.71 -2.78,5.57l-2.29 4.63c-0.98,1.99 -1.96,3.99 -2.93,5.98l-2.14 4.44c-1.01,2.1 -2.01,4.19 -3,6.29l-1.76 3.73c-1.06,2.25 -2.11,4.5 -3.15,6.76l-1.79 3.89c-1.04,2.26 -2.07,4.53 -3.09,6.8l-1.37 3.05c3.82,0.32 7.69,0.49 11.59,0.49 3.54,0 7.05,-0.14 10.53,-0.4 30.37,-71.31 67.78,-138.78 111.07,-201.23 -2.66,-5.02 -5.61,-9.86 -8.85,-14.49 -18,24.66 -35.15,50.35 -51.36,76.85z"/>
   <path id="_103296840" class="fil6" d="M649.17 582.86l5.74 -7.95c-1.51,-0.85 -3.01,-1.79 -4.53,-2.54 0,0 -405.17,459.55 -15.34,1059.52 8.95,-6.26 10.82,-13.96 6.37,-34.28 -5.15,-23.5 -13.75,-63.13 -32.68,-129.67 5.22,-6.15 17.86,22.74 27.11,38.62 0,0 29.76,-32.87 28.49,-44.07 -1.27,-11.2 -105.5,-92.24 -105.5,-92.24 -84.23,-264.28 -27.26,-579.97 90.33,-787.4l0 0z"/>
   <path id="_103296840_2" class="fil7" d="M623.79 606.94c-23.98,33.73 -60.23,91.18 -91.99,167.88 8.8,8.01 19.05,14.46 30.31,18.9l1.02 -3.52c0.85,-2.91 1.71,-5.82 2.57,-8.71l1.01 -3.34c0.83,-2.74 1.67,-5.47 2.52,-8.19l1.2 -3.83c0.85,-2.7 1.72,-5.39 2.59,-8.08l1.09 -3.34c0.92,-2.81 1.86,-5.61 2.8,-8.41l1.13 -3.32c1,-2.92 2.01,-5.84 3.03,-8.74l0.96 -2.72c1.06,-2.98 2.12,-5.95 3.21,-8.92l0.95 -2.59c1.1,-3 2.22,-5.99 3.34,-8.97l0.9 -2.37c1.17,-3.07 2.35,-6.12 3.54,-9.17l0.78 -1.99c1.2,-3.03 2.41,-6.06 3.63,-9.06l0.88 -2.16c1.24,-3.04 2.5,-6.07 3.76,-9.08l0.75 -1.78c1.34,-3.17 2.69,-6.32 4.05,-9.45l0.55 -1.26c1.39,-3.18 2.79,-6.34 4.2,-9.48l0.59 -1.3c1.42,-3.15 2.86,-6.28 4.31,-9.4l0.59 -1.26c1.51,-3.24 3.04,-6.46 4.58,-9.66l0.25 -0.52c1.58,-3.28 3.18,-6.54 4.79,-9.77l0.34 -0.68c1.6,-3.22 3.22,-6.42 4.85,-9.6l0.23 -0.45c-2.73,-2.23 -5.82,-4.13 -9.32,-5.66z"/>
   <path id="_103246448" class="fil1" d="M272.47 879.74c-105.55,-11.91 -132.78,104.48 -39.65,143.43l39.65 -143.43z"/>
   <path id="_103246376" class="fil2" d="M232.84 1023.77c-34.42,-53.64 -35.3,-112.93 39.61,-144.87 0,0 21.32,105.21 -39.61,144.87z"/>
   <path id="_103246304" class="fil5" d="M236.42 1028.2c-41.68,-53.11 -42.15,-118.71 38.75,-150.86 -32.15,21.5 -58.68,89.69 -37.32,146.48l-1.44 4.38z"/>
   <path id="_103246232" class="fil5" d="M268.28 899.59c9.21,5.73 9.11,22.54 -0.22,37.54 -9.33,15 -24.36,22.52 -33.57,16.8 -9.21,-5.73 -9.11,-22.54 0.22,-37.54 9.33,-15 24.36,-22.52 33.57,-16.8z"/>
   <path id="_103246160" class="fil2" d="M644.81 1462.98c0,0 -17.08,-35.36 -60.78,-57.6 -43.7,-22.25 30.19,58.4 60.78,57.6z"/>
   <path id="_103246088" class="fil6" d="M329.71 1671.86c1.54,3.09 3.09,6.18 4.66,9.26 0,0 13.13,38.67 95.87,29.1 0,0 -24.06,-42.57 -22.43,-46.25 1.63,-3.68 41.94,42.79 41.94,42.79 0,0 50.91,0.18 92.48,-35.7 0,0 0.17,-57.52 3.78,-57.39 3.61,0.13 12.4,46.97 12.4,46.97 28.04,-3.73 60.24,-13.95 79.13,-30.7 6.76,-5.99 7.87,-14.07 3.87,-32.34 -1.72,-7.84 -3.82,-17.47 -6.56,-29.29 -156.95,70.51 -257.28,95.07 -305.15,103.54l-0 0z"/>
   <path id="_103246016" class="fil6" d="M338.39 931.4c0,0 0,52.53 -70.84,81.19 0,0 46.96,-1.59 66.86,-20.69 19.9,-19.1 3.98,-60.49 3.98,-60.49z"/>
   <path id="_103245944_3" class="fil8" d="M1682.31 307.61l1.61 0.95c1.09,0.65 2.18,1.31 3.28,1.98l1.61 0.99c1.12,0.69 2.24,1.4 3.36,2.11l1.66 1.07c1.05,0.67 2.09,1.36 3.14,2.05l1.69 1.12c1.17,0.78 2.35,1.58 3.53,2.39l1.22 0.84c1.19,0.82 2.38,1.65 3.57,2.5l1.58 1.12c1.2,0.86 2.4,1.73 3.6,2.61l1.13 0.84c1.23,0.91 2.46,1.83 3.69,2.77l1.32 1c1.29,0.99 2.59,1.99 3.88,3l0.98 0.77c1.32,1.04 2.64,2.1 3.96,3.17l0.85 0.68c1.41,1.15 2.82,2.31 4.24,3.49l0.94 0.78c1.37,1.15 2.74,2.31 4.11,3.48l0.67 0.57c1.53,1.32 3.07,2.66 4.61,4.02l0.41 0.36c1.53,1.35 3.06,2.73 4.59,4.12l0.42 0.38c1.56,1.41 3.12,2.85 4.68,4.3l0.23 0.21 0.18 0.17c1.6,1.49 3.2,3 4.8,4.53l0.25 0.24c1.62,1.55 3.24,3.11 4.86,4.7l0.37 0.36c1.63,1.59 3.26,3.21 4.89,4.85l0.15 0.15c1.7,1.71 3.41,3.44 5.12,5.2l0 0 0 0c2.45,2.51 4.89,5.05 7.32,7.6l0.46 0.48c2.21,2.32 4.41,4.66 6.6,7.02l1.48 1.59c1.82,1.97 3.63,3.94 5.44,5.93l2.4 2.65c1.56,1.72 3.11,3.46 4.66,5.19 0.99,1.12 1.98,2.24 2.98,3.36l0.06 0.07c-2.65,3.77 -5.45,7.42 -8.4,10.94 -35.75,-43.12 -74.5,-83.18 -115.8,-119.65 0.54,0.31 1.08,0.62 1.62,0.94zm153.06 144.11l0.49 0.62c6.89,8.64 13.67,17.42 20.34,26.35l0.23 0.31c1.95,2.61 3.88,5.22 5.81,7.85l0.57 0.78c2.42,3.31 4.83,6.64 7.22,9.99l0.43 0.61c1.95,2.73 3.88,5.47 5.81,8.23l0.07 0.1c3.91,5.6 7.79,11.25 11.61,16.95l1.91 2.86c1.77,2.65 3.53,5.31 5.28,7.98l0.66 1.01c1.79,2.74 3.57,5.48 5.34,8.24l0.21 0.33c1.81,2.83 3.62,5.67 5.41,8.52l1.84 2.93c1.65,2.63 3.28,5.28 4.91,7.93l0.91 1.48c1.62,2.66 3.24,5.32 4.84,7.99l0.71 1.18c1.62,2.7 3.23,5.41 4.83,8.12l1.76 3c1.64,2.8 3.26,5.61 4.88,8.43l0.62 1.09c1.53,2.67 3.05,5.36 4.57,8.04l1.06 1.88c1.44,2.57 2.87,5.15 4.3,7.74l0.06 0.1 1.68 3.06c-6.23,1.39 -12.65,2.29 -19.21,2.65 -32.18,-60.85 -69.58,-118.24 -111.47,-171.29 2.3,-4.49 4.87,-8.81 7.71,-12.94 4.93,5.88 9.8,11.84 14.62,17.87z"/>
   <path id="_103245872" class="fil6" d="M1642.85 582.86l-5.74 -7.95c1.51,-0.85 3.01,-1.79 4.53,-2.54 0,0 405.17,459.55 15.34,1059.52 -8.95,-6.26 -10.82,-13.96 -6.37,-34.28 5.15,-23.5 13.75,-63.13 32.68,-129.67 -5.22,-6.15 -17.86,22.74 -27.11,38.62 0,0 -29.76,-32.87 -28.49,-44.07 1.27,-11.2 105.5,-92.24 105.5,-92.24 84.23,-264.28 27.26,-579.97 -90.33,-787.4l0 0z"/>
   <path id="_103245872_4" class="fil7" d="M1668.47 607.27c35.41,49.89 97.34,151.1 132.19,289.49 -7.68,5.25 -16.1,10.15 -25.36,14.62 -5.9,2.84 -11.69,4.71 -17.35,5.78l-0.37 -2.18c-0.54,-3.19 -1.1,-6.37 -1.67,-9.55l-0.54 -3.02c-0.56,-3.08 -1.14,-6.16 -1.72,-9.23l-0.75 -3.9c-0.6,-3.09 -1.21,-6.17 -1.84,-9.25l-0.68 -3.29c-0.6,-2.89 -1.2,-5.77 -1.82,-8.65l-0.86 -4c-0.65,-2.97 -1.31,-5.94 -1.98,-8.9l-0.89 -3.88c-0.63,-2.72 -1.26,-5.43 -1.91,-8.14l-0.92 -3.83c-0.67,-2.75 -1.34,-5.49 -2.03,-8.23l-1.25 -4.94c-0.64,-2.53 -1.3,-5.06 -1.96,-7.58l-1.12 -4.24c-0.66,-2.47 -1.32,-4.92 -2,-7.38 -0.51,-1.88 -1.03,-3.76 -1.56,-5.63 -0.68,-2.43 -1.36,-4.85 -2.06,-7.27l-1.24 -4.28c-0.69,-2.35 -1.38,-4.7 -2.08,-7.04 -0.56,-1.89 -1.13,-3.77 -1.71,-5.66 -0.57,-1.88 -1.15,-3.75 -1.73,-5.63 -0.65,-2.08 -1.3,-4.16 -1.96,-6.23 -0.62,-1.96 -1.25,-3.91 -1.88,-5.86 -0.74,-2.3 -1.49,-4.59 -2.25,-6.87l-1.47 -4.42c-0.77,-2.29 -1.55,-4.58 -2.33,-6.86 -0.61,-1.77 -1.22,-3.55 -1.84,-5.31 -0.84,-2.41 -1.69,-4.81 -2.55,-7.21l-1.35 -3.74c-0.89,-2.45 -1.78,-4.88 -2.68,-7.31l-1.17 -3.13c-1.15,-3.08 -2.32,-6.15 -3.49,-9.2l-1.2 -3.1c-1.01,-2.61 -2.04,-5.2 -3.07,-7.79l-0.91 -2.27c-1.63,-4.05 -3.27,-8.08 -4.94,-12.08l-0.1 -0.24c-1.12,-2.69 -2.25,-5.36 -3.39,-8.03l-0.81 -1.88c-1.14,-2.64 -2.28,-5.27 -3.43,-7.88l-0.59 -1.33c-1.67,-3.78 -3.36,-7.54 -5.08,-11.27l-0.56 -1.22c-1.25,-2.73 -2.52,-5.44 -3.79,-8.14l-0.39 -0.82c-1.88,-3.97 -3.78,-7.91 -5.7,-11.83l-0.27 -0.56c-1.31,-2.67 -2.64,-5.34 -3.98,-7.98l-0.59 -1.16c-1.29,-2.55 -2.59,-5.09 -3.89,-7.61 3.63,-1.12 7.25,-2.03 10.85,-2.85z"/>
   <path id="_103245800" class="fil1" d="M2019.55 879.74c105.55,-11.91 132.78,104.48 39.65,143.43l-39.65 -143.43z"/>
   <path id="_103245728" class="fil2" d="M2059.18 1023.77c34.42,-53.64 35.3,-112.93 -39.61,-144.87 0,0 -21.32,105.21 39.61,144.87z"/>
   <path id="_103245656" class="fil5" d="M2055.6 1028.2c41.68,-53.11 42.15,-118.71 -38.75,-150.86 32.15,21.5 58.68,89.69 37.32,146.48l1.44 4.38z"/>
   <path id="_103245584" class="fil5" d="M2023.74 899.59c-9.21,5.73 -9.11,22.54 0.22,37.54 9.33,15 24.36,22.52 33.57,16.8 9.21,-5.73 9.11,-22.54 -0.22,-37.54 -9.33,-15 -24.36,-22.52 -33.57,-16.8z"/>
   <path id="_103245512" class="fil2" d="M1647.21 1462.98c0,0 17.08,-35.36 60.78,-57.6 43.7,-22.25 -30.19,58.4 -60.78,57.6z"/>
   <path id="_103245440" class="fil6" d="M1962.31 1671.86c-1.54,3.09 -3.09,6.18 -4.66,9.26 0,0 -13.13,38.67 -95.87,29.1 0,0 24.06,-42.57 22.43,-46.25 -1.63,-3.68 -41.94,42.79 -41.94,42.79 0,0 -50.91,0.18 -92.48,-35.7 0,0 -0.17,-57.52 -3.78,-57.39 -3.61,0.13 -12.4,46.97 -12.4,46.97 -28.04,-3.73 -60.24,-13.95 -79.13,-30.7 -6.76,-5.99 -7.87,-14.07 -3.87,-32.34 1.72,-7.84 3.82,-17.47 6.56,-29.29 156.95,70.51 257.28,95.07 305.15,103.54l0 0z"/>
   <path id="_103245296" class="fil6" d="M1003.6 834.44c0,0 161.87,-37.39 277.06,5.56 -19.73,-34.47 -125.47,-38.52 -135.18,-150.53 -3.47,-40.02 -4.07,-47.78 -11.34,-0.21 -16.37,107.06 -47.02,106.25 -130.53,145.17z"/>
   <path id="_103245224" class="fil6" d="M701.61 264.08c0,0 90.82,281.21 428.6,284.4 337.78,3.19 453.3,-286.79 453.3,-286.79 0,0 -377.06,-117.09 -881.9,2.39l0 0z"/>
   <path id="_103245152" class="fil1" d="M743.98 1230.41c0,0 70.04,40.59 128.15,52.53 0,0 -54.12,-1.59 -135.31,-23.08l-10.35 -22.29 17.51 -7.16z"/>
   <path id="_103245080" class="fil9" d="M316.72 1111.72c-2.72,1.61 -6.23,0.71 -7.84,-2.01 -1.61,-2.72 -0.71,-6.23 2.01,-7.85 8.18,-4.85 18.43,-5.07 27.67,-1.83 5.66,1.99 10.99,5.29 15.23,9.62 4.36,4.44 7.59,9.97 8.93,16.27 1.86,8.75 0.1,18.84 -7.34,29.39 -8.37,11.85 -17.98,15.07 -26.64,13.34 -5.62,-1.12 -10.63,-4.39 -14.52,-8.76 -3.72,-4.19 -6.46,-9.47 -7.66,-14.82 -2.09,-9.28 0.2,-18.8 9.25,-24.15 8.83,-5.23 16.02,-4.97 21.35,-1.93 0.14,0.08 0.28,0.17 0.41,0.26 2.43,1.48 4.37,3.53 5.81,5.89 1.43,2.33 2.37,4.96 2.85,7.63 1.25,6.97 -0.76,14.58 -5.9,18.31 -2.57,1.85 -6.15,1.28 -8,-1.29 -1.85,-2.56 -1.28,-6.15 1.29,-8 1.44,-1.04 1.86,-3.98 1.32,-6.97 -0.24,-1.35 -0.69,-2.64 -1.36,-3.72 -0.51,-0.84 -1.16,-1.55 -1.91,-2.03l-0.19 -0.1c-1.99,-1.14 -5.2,-0.93 -9.88,1.84 -4.02,2.38 -4.94,7.05 -3.88,11.75 0.78,3.48 2.59,6.96 5.07,9.74 2.32,2.61 5.17,4.53 8.19,5.14 4.46,0.89 9.77,-1.27 15.02,-8.71 5.38,-7.62 6.73,-14.57 5.49,-20.38 -0.87,-4.09 -3,-7.71 -5.89,-10.65 -3,-3.06 -6.79,-5.4 -10.84,-6.82 -6.23,-2.19 -12.94,-2.16 -18.05,0.87zm19.87 -44.12c2.82,2.03 3.47,5.99 1.43,8.81 -2.04,2.83 -5.99,3.46 -8.81,1.43 -12.99,-9.39 -15.7,-22.01 -12.63,-33.34 1.49,-5.48 4.39,-10.61 8.13,-14.84 3.81,-4.29 8.51,-7.69 13.53,-9.64 9.68,-3.76 20.42,-2.5 28.74,7.21 0.77,0.9 1.55,1.92 2.31,3.03 3.55,5.18 5.8,11.37 6.2,17.13 0.46,6.59 -1.38,12.77 -6.22,16.92 -0.1,0.08 -0.19,0.16 -0.29,0.23 -0.36,0.29 -0.75,0.58 -1.17,0.87 -8.41,5.76 -16.63,4.97 -22.75,1.32 -2.27,-1.34 -4.23,-3.1 -5.78,-5.07 -1.58,-2 -2.76,-4.27 -3.46,-6.59 -1.67,-5.63 -0.53,-11.48 4.49,-15.35 2.76,-2.14 6.73,-1.63 8.86,1.12 2.14,2.76 1.63,6.73 -1.12,8.87 -0.36,0.27 -0.36,0.97 -0.11,1.78 0.22,0.77 0.66,1.57 1.27,2.34 0.63,0.79 1.42,1.51 2.33,2.06 2.31,1.36 5.55,1.55 9.13,-0.89 0.08,-0.05 0.15,-0.12 0.24,-0.19l0.12 -0.1c1.5,-1.28 2.04,-3.66 1.84,-6.42 -0.25,-3.59 -1.7,-7.53 -4,-10.88 -0.43,-0.61 -0.92,-1.26 -1.49,-1.94 -4.21,-4.91 -9.65,-5.55 -14.55,-3.64 -3.18,1.24 -6.18,3.41 -8.65,6.19 -2.51,2.83 -4.44,6.22 -5.41,9.82 -1.79,6.6 -0.08,14.06 7.83,19.77zm131.86 249.62c2.03,1.45 2.49,4.29 1.02,6.32 -1.46,2.03 -4.3,2.48 -6.32,1.02 -9.32,-6.73 -11.26,-15.77 -9.05,-23.9 1.06,-3.93 3.14,-7.6 5.83,-10.64 2.73,-3.07 6.1,-5.51 9.7,-6.91 6.94,-2.7 14.64,-1.79 20.6,5.17 0.55,0.65 1.11,1.37 1.65,2.17 2.54,3.71 4.16,8.15 4.44,12.28 0.33,4.72 -0.99,9.16 -4.45,12.13 -0.07,0.05 -0.14,0.12 -0.21,0.17 -0.25,0.21 -0.54,0.42 -0.84,0.62 -6.03,4.13 -11.92,3.56 -16.31,0.95 -1.62,-0.97 -3.03,-2.22 -4.14,-3.64 -1.13,-1.43 -1.98,-3.06 -2.48,-4.72 -1.2,-4.04 -0.38,-8.23 3.22,-11.01 1.97,-1.53 4.82,-1.16 6.35,0.8 1.53,1.98 1.17,4.83 -0.8,6.36 -0.26,0.19 -0.26,0.7 -0.08,1.28 0.16,0.55 0.47,1.12 0.91,1.67 0.45,0.57 1.02,1.09 1.67,1.47 1.65,0.98 3.98,1.11 6.54,-0.63 0.05,-0.04 0.11,-0.08 0.17,-0.14l0.09 -0.07c1.07,-0.92 1.46,-2.63 1.31,-4.6 -0.18,-2.57 -1.21,-5.4 -2.87,-7.8 -0.3,-0.44 -0.66,-0.9 -1.07,-1.39 -3.02,-3.51 -6.92,-3.98 -10.43,-2.62 -2.28,0.89 -4.43,2.45 -6.2,4.44 -1.8,2.03 -3.18,4.46 -3.89,7.04 -1.28,4.74 -0.05,10.08 5.62,14.18zm-172.7 -11.54c2.65,-0.72 5.37,0.85 6.09,3.49 0.72,2.64 -0.84,5.37 -3.49,6.09 -18.55,5.05 -32.33,-1.89 -40.54,-13.22 -4.05,-5.59 -6.69,-12.25 -7.82,-19.03 -1.13,-6.79 -0.75,-13.79 1.24,-20.01 3.71,-11.61 12.77,-20.48 27.76,-20.92 1.48,-0.05 3.03,0 4.63,0.14 7.57,0.59 15.08,3.18 20.77,7.15 6.23,4.35 10.43,10.4 10.63,17.54 0,0.11 0.01,0.22 0,0.33 0,0.56 -0.01,1.13 -0.06,1.72 -0.93,11.69 -7.5,18.46 -15.13,21.27 -2.86,1.06 -5.84,1.55 -8.7,1.52 -2.89,-0.04 -5.73,-0.61 -8.26,-1.65 -5.88,-2.41 -10.05,-7.3 -9.88,-14.04 0.06,-2.75 2.35,-4.92 5.1,-4.85 2.74,0.06 4.91,2.35 4.85,5.09 -0.05,2.09 1.5,3.7 3.69,4.6 1.35,0.55 2.93,0.86 4.62,0.88 1.72,0.02 3.48,-0.26 5.12,-0.87 4.35,-1.61 8.12,-5.63 8.68,-12.76 0.01,-0.24 0.03,-0.48 0.03,-0.73l-0.01 -0.21c-0.11,-3.68 -2.63,-7.05 -6.39,-9.68 -4.3,-2.99 -10.04,-4.95 -15.89,-5.41 -1.12,-0.08 -2.3,-0.12 -3.52,-0.08 -10.03,0.29 -16.09,6.23 -18.58,13.99 -1.49,4.68 -1.76,10.05 -0.87,15.36 0.89,5.33 2.93,10.51 6.04,14.82 5.97,8.23 16.1,13.24 29.87,9.49zm234.48 -140.47c-0.76,-2.95 1.02,-5.94 3.95,-6.69 2.94,-0.76 5.94,1.01 6.69,3.95 5.3,20.63 -2.59,35.8 -15.26,44.7 -6.25,4.41 -13.67,7.23 -21.19,8.37 -7.56,1.14 -15.29,0.62 -22.15,-1.68 -12.8,-4.28 -22.49,-14.44 -22.74,-31.06 -0.03,-1.64 0.05,-3.36 0.22,-5.12 0.78,-8.37 3.75,-16.65 8.24,-22.89 4.91,-6.83 11.68,-11.4 19.59,-11.5 0.12,-0.02 0.24,-0.01 0.36,-0.01 0.63,0 1.26,0.03 1.91,0.1 12.93,1.21 20.33,8.59 23.33,17.07 1.13,3.19 1.62,6.49 1.55,9.65 -0.08,3.21 -0.75,6.34 -1.95,9.13 -2.77,6.48 -8.24,11.01 -15.69,10.72 -3.06,-0.12 -5.43,-2.68 -5.31,-5.73 0.11,-3.03 2.68,-5.39 5.71,-5.28 2.31,0.08 4.13,-1.6 5.17,-4.02 0.62,-1.49 0.99,-3.23 1.04,-5.1 0.05,-1.9 -0.23,-3.87 -0.88,-5.7 -1.72,-4.83 -6.13,-9.08 -14.01,-9.81 -0.27,-0.02 -0.54,-0.04 -0.8,-0.03l-0.23 -0c-4.08,0.06 -7.85,2.81 -10.81,6.93 -3.39,4.71 -5.64,11.06 -6.25,17.51 -0.1,1.24 -0.17,2.55 -0.14,3.9 0.17,11.1 6.64,17.92 15.19,20.79 5.18,1.72 11.12,2.09 17.01,1.19 5.91,-0.89 11.67,-3.07 16.49,-6.46 9.21,-6.49 14.9,-17.62 10.96,-32.93zm-142.9 44.58c2.43,1.28 3.36,4.28 2.09,6.71 -1.27,2.42 -4.28,3.36 -6.7,2.08 -17.03,-8.93 -22.4,-23.39 -20.7,-37.29 0.84,-6.85 3.44,-13.53 7.24,-19.26 3.79,-5.74 8.83,-10.61 14.53,-13.82 10.61,-5.98 23.29,-6.3 34.57,3.58 1.11,0.98 2.22,2.07 3.3,3.25 5.14,5.59 8.88,12.59 10.34,19.38 1.6,7.43 0.56,14.72 -4.15,20.09 -0.07,0.08 -0.15,0.16 -0.22,0.24 -0.38,0.42 -0.78,0.82 -1.22,1.22 -8.64,7.93 -18.07,8.41 -25.56,5.28 -2.81,-1.17 -5.33,-2.84 -7.41,-4.82 -2.1,-2 -3.79,-4.35 -4.93,-6.82 -2.66,-5.78 -2.39,-12.18 2.32,-17.01 1.93,-1.97 5.08,-2.01 7.04,-0.08 1.97,1.91 2,5.07 0.08,7.03 -1.46,1.5 -1.42,3.74 -0.43,5.88 0.61,1.33 1.57,2.63 2.79,3.79 1.24,1.18 2.72,2.18 4.35,2.85 4.28,1.78 9.78,1.4 15.05,-3.44 0.17,-0.17 0.34,-0.33 0.51,-0.51l0.14 -0.17c2.43,-2.77 2.87,-6.95 1.91,-11.43 -1.11,-5.12 -3.99,-10.47 -7.95,-14.78 -0.76,-0.83 -1.61,-1.66 -2.53,-2.47 -7.54,-6.62 -16.03,-6.4 -23.13,-2.4 -4.28,2.41 -8.13,6.16 -11.1,10.65 -2.98,4.5 -5.01,9.69 -5.66,14.97 -1.24,10.09 2.78,20.66 15.42,27.29zm56.52 -109.08c2.43,1.28 3.36,4.28 2.09,6.71 -1.27,2.42 -4.28,3.36 -6.7,2.08 -17.03,-8.93 -22.4,-23.39 -20.7,-37.29 0.84,-6.85 3.44,-13.53 7.24,-19.26 3.79,-5.74 8.83,-10.61 14.53,-13.82 10.61,-5.98 23.29,-6.3 34.57,3.58 1.11,0.98 2.22,2.07 3.3,3.25 5.14,5.59 8.88,12.59 10.34,19.38 1.6,7.43 0.56,14.72 -4.15,20.09 -0.07,0.08 -0.15,0.16 -0.22,0.24 -0.38,0.42 -0.78,0.82 -1.22,1.22 -8.64,7.93 -18.07,8.41 -25.56,5.28 -2.81,-1.17 -5.33,-2.84 -7.41,-4.82 -2.1,-2 -3.79,-4.35 -4.93,-6.82 -2.66,-5.78 -2.39,-12.18 2.32,-17.01 1.93,-1.97 5.08,-2.01 7.04,-0.08 1.97,1.91 2,5.07 0.08,7.03 -1.46,1.5 -1.42,3.74 -0.43,5.88 0.61,1.33 1.57,2.63 2.79,3.79 1.24,1.18 2.72,2.18 4.35,2.85 4.28,1.78 9.78,1.4 15.05,-3.44 0.17,-0.17 0.34,-0.33 0.51,-0.51l0.14 -0.17c2.43,-2.77 2.87,-6.95 1.91,-11.43 -1.11,-5.12 -3.99,-10.47 -7.95,-14.78 -0.76,-0.83 -1.61,-1.66 -2.53,-2.47 -7.54,-6.62 -16.03,-6.4 -23.13,-2.4 -4.28,2.41 -8.13,6.16 -11.1,10.65 -2.98,4.5 -5.01,9.69 -5.66,14.97 -1.24,10.09 2.78,20.66 15.42,27.29zm-176.29 -4.75c-0.98,-3.01 0.68,-6.25 3.69,-7.22 3.02,-0.97 6.25,0.68 7.22,3.69 2.94,9.06 0.89,19.12 -4.31,27.43 -3.19,5.09 -7.59,9.57 -12.75,12.75 -5.3,3.28 -11.41,5.22 -17.86,5.14 -8.96,-0.11 -18.43,-4.06 -27.09,-13.65 -9.73,-10.78 -10.76,-20.88 -7.16,-28.96 2.34,-5.24 6.64,-9.42 11.76,-12.24 4.91,-2.72 10.67,-4.23 16.16,-4.23 9.52,0 18.32,4.34 21.55,14.36 3.16,9.78 1.32,16.74 -2.82,21.28 -0.11,0.12 -0.22,0.23 -0.34,0.34 -1.99,2.04 -4.41,3.5 -7.04,4.38 -2.59,0.87 -5.37,1.22 -8.08,1.1 -7.09,-0.32 -14.07,-3.96 -16.58,-9.8 -1.24,-2.91 0.11,-6.29 3.02,-7.53 2.91,-1.24 6.28,0.11 7.53,3.03 0.7,1.63 3.48,2.69 6.51,2.83 1.37,0.06 2.73,-0.1 3.93,-0.51 0.93,-0.31 1.77,-0.79 2.41,-1.41l0.15 -0.16c1.55,-1.7 2.05,-4.88 0.38,-10.05 -1.43,-4.45 -5.8,-6.38 -10.62,-6.38 -3.58,-0 -7.37,1 -10.63,2.8 -3.07,1.69 -5.57,4.05 -6.83,6.87 -1.85,4.16 -0.92,9.83 5.19,16.59 6.26,6.93 12.75,9.78 18.7,9.86 4.19,0.05 8.2,-1.24 11.71,-3.41 3.65,-2.25 6.77,-5.44 9.05,-9.08 3.51,-5.6 4.97,-12.17 3.13,-17.82zm156.01 157.6c-0.98,-3.01 0.68,-6.25 3.69,-7.22 3.02,-0.97 6.25,0.68 7.22,3.69 2.94,9.06 0.89,19.12 -4.31,27.43 -3.19,5.09 -7.59,9.57 -12.75,12.75 -5.3,3.28 -11.41,5.22 -17.86,5.14 -8.96,-0.11 -18.43,-4.06 -27.09,-13.65 -9.73,-10.78 -10.76,-20.88 -7.16,-28.96 2.34,-5.24 6.64,-9.42 11.76,-12.24 4.91,-2.72 10.67,-4.23 16.16,-4.23 9.52,0 18.32,4.34 21.55,14.36 3.16,9.78 1.32,16.74 -2.82,21.28 -0.11,0.12 -0.22,0.23 -0.34,0.34 -1.99,2.04 -4.41,3.5 -7.04,4.38 -2.59,0.87 -5.37,1.22 -8.08,1.1 -7.09,-0.32 -14.07,-3.96 -16.58,-9.8 -1.24,-2.91 0.11,-6.29 3.02,-7.53 2.91,-1.24 6.28,0.11 7.53,3.03 0.7,1.63 3.48,2.69 6.51,2.83 1.37,0.06 2.73,-0.1 3.93,-0.51 0.93,-0.31 1.77,-0.79 2.41,-1.41l0.15 -0.16c1.55,-1.7 2.05,-4.88 0.38,-10.05 -1.43,-4.45 -5.8,-6.38 -10.62,-6.38 -3.58,-0 -7.37,1 -10.63,2.8 -3.07,1.69 -5.57,4.05 -6.83,6.87 -1.85,4.16 -0.92,9.83 5.19,16.59 6.26,6.93 12.75,9.78 18.7,9.86 4.19,0.05 8.2,-1.24 11.71,-3.41 3.65,-2.25 6.77,-5.44 9.05,-9.08 3.51,-5.6 4.97,-12.17 3.13,-17.82zm-165.12 142.05c-0.9,3.03 -4.08,4.77 -7.11,3.87 -3.03,-0.9 -4.77,-4.08 -3.87,-7.12 2.69,-9.12 10.05,-16.26 19.02,-20.17 5.5,-2.4 11.65,-3.61 17.7,-3.33 6.22,0.29 12.35,2.13 17.62,5.84 7.32,5.14 12.91,13.73 14.63,26.53 1.94,14.38 -2.91,23.27 -10.43,27.9 -4.88,3 -10.78,4.02 -16.59,3.47 -5.57,-0.54 -11.17,-2.54 -15.7,-5.64 -7.84,-5.37 -12.65,-13.91 -9.67,-23.99 2.91,-9.85 8.35,-14.55 14.32,-15.95 0.16,-0.04 0.32,-0.06 0.47,-0.09 2.79,-0.57 5.61,-0.39 8.27,0.36 2.63,0.74 5.12,2.02 7.28,3.65 5.66,4.25 9.37,11.2 8.14,17.43 -0.62,3.1 -3.63,5.12 -6.74,4.5 -3.1,-0.62 -5.12,-3.63 -4.5,-6.73 0.34,-1.74 -1.35,-4.18 -3.77,-6.01 -1.1,-0.82 -2.3,-1.46 -3.53,-1.81 -0.95,-0.26 -1.9,-0.34 -2.78,-0.19l-0.21 0.06c-2.23,0.52 -4.44,2.86 -5.98,8.07 -1.33,4.48 1.18,8.53 5.15,11.25 2.95,2.02 6.64,3.33 10.35,3.68 3.47,0.33 6.87,-0.2 9.49,-1.82 3.88,-2.39 6.3,-7.58 5.08,-16.61 -1.25,-9.24 -5,-15.25 -9.85,-18.66 -3.43,-2.4 -7.45,-3.6 -11.57,-3.79 -4.28,-0.2 -8.65,0.67 -12.58,2.38 -6.05,2.64 -10.96,7.23 -12.63,12.92zm93.13 -55.72c-0.9,3.03 -4.08,4.77 -7.11,3.87 -3.03,-0.9 -4.77,-4.08 -3.87,-7.12 2.69,-9.12 10.05,-16.26 19.02,-20.17 5.5,-2.4 11.65,-3.61 17.7,-3.33 6.22,0.29 12.35,2.13 17.62,5.83 7.32,5.14 12.91,13.73 14.63,26.53 1.94,14.38 -2.91,23.27 -10.43,27.9 -4.88,3 -10.78,4.02 -16.59,3.47 -5.57,-0.54 -11.17,-2.54 -15.7,-5.64 -7.84,-5.37 -12.65,-13.91 -9.67,-23.99 2.91,-9.85 8.35,-14.55 14.32,-15.95 0.16,-0.04 0.32,-0.06 0.47,-0.09 2.79,-0.57 5.61,-0.39 8.27,0.36 2.63,0.74 5.12,2.02 7.28,3.65 5.66,4.25 9.37,11.2 8.14,17.43 -0.62,3.1 -3.63,5.12 -6.74,4.5 -3.1,-0.62 -5.12,-3.63 -4.5,-6.73 0.34,-1.74 -1.35,-4.18 -3.77,-6.01 -1.1,-0.82 -2.3,-1.46 -3.53,-1.81 -0.95,-0.26 -1.9,-0.34 -2.78,-0.19l-0.21 0.06c-2.23,0.52 -4.44,2.86 -5.98,8.07 -1.33,4.48 1.18,8.53 5.15,11.25 2.95,2.02 6.64,3.33 10.35,3.68 3.47,0.33 6.87,-0.2 9.49,-1.82 3.88,-2.39 6.3,-7.58 5.08,-16.61 -1.25,-9.24 -5,-15.25 -9.85,-18.66 -3.43,-2.4 -7.45,-3.6 -11.57,-3.79 -4.28,-0.2 -8.65,0.67 -12.58,2.38 -6.05,2.64 -10.96,7.23 -12.63,12.92zm-93.79 -171.71c-2.72,1.61 -6.23,0.71 -7.84,-2.01 -1.61,-2.72 -0.71,-6.23 2.01,-7.85 8.18,-4.85 18.43,-5.07 27.67,-1.83 5.66,1.99 10.99,5.29 15.23,9.62 4.36,4.44 7.59,9.97 8.93,16.27 1.86,8.75 0.1,18.84 -7.34,29.39 -8.37,11.85 -17.98,15.07 -26.64,13.34 -5.62,-1.12 -10.63,-4.39 -14.52,-8.76 -3.72,-4.19 -6.46,-9.47 -7.66,-14.82 -2.09,-9.28 0.2,-18.8 9.25,-24.15 8.83,-5.23 16.02,-4.97 21.35,-1.93 0.14,0.08 0.28,0.17 0.41,0.26 2.43,1.48 4.37,3.53 5.81,5.89 1.43,2.33 2.37,4.96 2.85,7.63 1.25,6.97 -0.76,14.58 -5.9,18.31 -2.57,1.85 -6.15,1.28 -8,-1.29 -1.85,-2.56 -1.28,-6.15 1.29,-8 1.44,-1.04 1.86,-3.98 1.32,-6.97 -0.24,-1.35 -0.69,-2.64 -1.36,-3.72 -0.51,-0.84 -1.16,-1.55 -1.91,-2.03l-0.19 -0.1c-1.99,-1.14 -5.2,-0.93 -9.88,1.84 -4.02,2.38 -4.94,7.05 -3.88,11.75 0.78,3.48 2.59,6.96 5.07,9.74 2.32,2.61 5.17,4.53 8.19,5.14 4.46,0.89 9.77,-1.27 15.02,-8.71 5.38,-7.62 6.73,-14.57 5.49,-20.38 -0.87,-4.09 -3,-7.71 -5.89,-10.65 -3,-3.06 -6.79,-5.4 -10.84,-6.82 -6.23,-2.19 -12.94,-2.16 -18.05,0.87z"/>
   <path id="_103245008" class="fil9" d="M1976.25 1111.72c2.72,1.61 6.23,0.71 7.84,-2.01 1.61,-2.72 0.71,-6.23 -2.01,-7.85 -8.18,-4.85 -18.43,-5.07 -27.67,-1.83 -5.66,1.99 -10.99,5.29 -15.23,9.62 -4.36,4.44 -7.59,9.97 -8.93,16.27 -1.86,8.75 -0.1,18.84 7.34,29.39 8.37,11.85 17.98,15.07 26.64,13.34 5.62,-1.12 10.63,-4.39 14.52,-8.76 3.72,-4.19 6.46,-9.47 7.66,-14.82 2.09,-9.28 -0.2,-18.8 -9.25,-24.15 -8.83,-5.23 -16.02,-4.97 -21.35,-1.93 -0.14,0.08 -0.28,0.17 -0.41,0.26 -2.43,1.48 -4.37,3.53 -5.81,5.89 -1.43,2.33 -2.37,4.96 -2.85,7.63 -1.25,6.97 0.76,14.58 5.9,18.31 2.57,1.85 6.15,1.28 8,-1.29 1.85,-2.56 1.28,-6.15 -1.29,-8 -1.44,-1.04 -1.86,-3.98 -1.32,-6.97 0.24,-1.35 0.69,-2.64 1.36,-3.72 0.51,-0.84 1.16,-1.55 1.91,-2.03l0.19 -0.1c1.99,-1.14 5.2,-0.93 9.88,1.84 4.02,2.38 4.94,7.05 3.88,11.75 -0.78,3.48 -2.59,6.96 -5.07,9.74 -2.32,2.61 -5.17,4.53 -8.19,5.14 -4.46,0.89 -9.77,-1.27 -15.02,-8.71 -5.38,-7.62 -6.73,-14.57 -5.49,-20.38 0.87,-4.09 3,-7.71 5.89,-10.65 3,-3.06 6.79,-5.4 10.84,-6.82 6.23,-2.19 12.94,-2.16 18.05,0.87zm-19.87 -44.12c-2.82,2.03 -3.47,5.99 -1.43,8.81 2.04,2.83 5.99,3.46 8.81,1.43 12.99,-9.39 15.7,-22.01 12.63,-33.34 -1.49,-5.48 -4.39,-10.61 -8.13,-14.84 -3.81,-4.29 -8.51,-7.69 -13.53,-9.64 -9.68,-3.76 -20.42,-2.5 -28.74,7.21 -0.77,0.9 -1.55,1.92 -2.31,3.03 -3.55,5.18 -5.8,11.37 -6.2,17.13 -0.46,6.59 1.38,12.77 6.22,16.92 0.1,0.08 0.19,0.16 0.29,0.23 0.36,0.29 0.75,0.58 1.17,0.87 8.41,5.76 16.63,4.97 22.75,1.32 2.27,-1.34 4.23,-3.1 5.78,-5.07 1.58,-2 2.76,-4.27 3.46,-6.59 1.67,-5.63 0.53,-11.48 -4.49,-15.35 -2.76,-2.14 -6.73,-1.63 -8.86,1.12 -2.14,2.76 -1.63,6.73 1.12,8.87 0.36,0.27 0.36,0.97 0.11,1.78 -0.22,0.77 -0.66,1.57 -1.27,2.34 -0.63,0.79 -1.42,1.51 -2.33,2.06 -2.31,1.36 -5.55,1.55 -9.13,-0.89 -0.08,-0.05 -0.15,-0.12 -0.24,-0.19l-0.12 -0.1c-1.5,-1.28 -2.04,-3.66 -1.84,-6.42 0.25,-3.59 1.7,-7.53 4,-10.88 0.43,-0.61 0.92,-1.26 1.49,-1.94 4.21,-4.91 9.65,-5.55 14.55,-3.64 3.18,1.24 6.18,3.41 8.65,6.19 2.51,2.83 4.44,6.22 5.41,9.82 1.79,6.6 0.08,14.06 -7.83,19.77zm-131.86 249.62c-2.03,1.45 -2.49,4.29 -1.02,6.32 1.46,2.03 4.3,2.48 6.32,1.02 9.32,-6.73 11.26,-15.77 9.05,-23.9 -1.06,-3.93 -3.14,-7.6 -5.83,-10.64 -2.73,-3.07 -6.1,-5.51 -9.7,-6.91 -6.94,-2.7 -14.64,-1.79 -20.6,5.17 -0.55,0.65 -1.11,1.37 -1.65,2.17 -2.54,3.71 -4.16,8.15 -4.44,12.28 -0.33,4.72 0.99,9.16 4.45,12.13 0.07,0.05 0.14,0.12 0.21,0.17 0.25,0.21 0.54,0.42 0.84,0.62 6.03,4.13 11.92,3.56 16.31,0.95 1.62,-0.97 3.03,-2.22 4.14,-3.64 1.13,-1.43 1.98,-3.06 2.48,-4.72 1.2,-4.04 0.38,-8.23 -3.22,-11.01 -1.97,-1.53 -4.82,-1.16 -6.35,0.8 -1.53,1.98 -1.17,4.83 0.8,6.36 0.26,0.19 0.26,0.7 0.08,1.28 -0.16,0.55 -0.47,1.12 -0.91,1.67 -0.45,0.57 -1.02,1.09 -1.67,1.47 -1.65,0.98 -3.98,1.11 -6.54,-0.63 -0.05,-0.04 -0.11,-0.08 -0.17,-0.14l-0.09 -0.07c-1.07,-0.92 -1.46,-2.63 -1.31,-4.6 0.18,-2.57 1.21,-5.4 2.87,-7.8 0.3,-0.44 0.66,-0.9 1.07,-1.39 3.02,-3.51 6.92,-3.98 10.43,-2.62 2.28,0.89 4.43,2.45 6.2,4.44 1.8,2.03 3.18,4.46 3.89,7.04 1.28,4.74 0.05,10.08 -5.62,14.18zm172.7 -11.54c-2.65,-0.72 -5.37,0.85 -6.09,3.49 -0.72,2.64 0.84,5.37 3.49,6.09 18.55,5.05 32.33,-1.89 40.54,-13.22 4.05,-5.59 6.69,-12.25 7.82,-19.03 1.13,-6.79 0.75,-13.79 -1.24,-20.01 -3.71,-11.61 -12.77,-20.48 -27.76,-20.92 -1.48,-0.05 -3.03,0 -4.63,0.14 -7.57,0.59 -15.08,3.18 -20.77,7.15 -6.23,4.35 -10.43,10.4 -10.63,17.54 -0,0.11 -0.01,0.22 -0,0.33 -0,0.56 0.01,1.13 0.06,1.72 0.93,11.69 7.5,18.46 15.13,21.27 2.86,1.06 5.84,1.55 8.7,1.52 2.89,-0.04 5.73,-0.61 8.26,-1.65 5.88,-2.41 10.05,-7.3 9.88,-14.04 -0.06,-2.75 -2.35,-4.92 -5.1,-4.85 -2.74,0.06 -4.91,2.35 -4.85,5.09 0.05,2.09 -1.5,3.7 -3.69,4.6 -1.35,0.55 -2.93,0.86 -4.62,0.88 -1.72,0.02 -3.48,-0.26 -5.12,-0.87 -4.35,-1.61 -8.12,-5.63 -8.68,-12.76 -0.01,-0.24 -0.03,-0.48 -0.03,-0.73l0.01 -0.21c0.11,-3.68 2.63,-7.05 6.39,-9.68 4.3,-2.99 10.04,-4.95 15.89,-5.41 1.12,-0.08 2.3,-0.12 3.52,-0.08 10.03,0.29 16.09,6.23 18.58,13.99 1.49,4.68 1.76,10.05 0.87,15.36 -0.89,5.33 -2.93,10.51 -6.04,14.82 -5.97,8.23 -16.1,13.24 -29.87,9.49zm-234.48 -140.47c0.76,-2.95 -1.02,-5.94 -3.95,-6.69 -2.94,-0.76 -5.94,1.01 -6.69,3.95 -5.3,20.63 2.59,35.8 15.26,44.7 6.25,4.41 13.67,7.23 21.19,8.37 7.56,1.14 15.29,0.62 22.15,-1.68 12.8,-4.28 22.49,-14.44 22.74,-31.06 0.03,-1.64 -0.05,-3.36 -0.22,-5.12 -0.78,-8.37 -3.75,-16.65 -8.24,-22.89 -4.91,-6.83 -11.68,-11.4 -19.59,-11.5 -0.12,-0.02 -0.24,-0.01 -0.36,-0.01 -0.63,0 -1.26,0.03 -1.91,0.1 -12.93,1.21 -20.33,8.59 -23.33,17.07 -1.13,3.19 -1.62,6.49 -1.55,9.65 0.08,3.21 0.75,6.34 1.95,9.13 2.77,6.48 8.24,11.01 15.69,10.72 3.06,-0.12 5.43,-2.68 5.31,-5.73 -0.11,-3.03 -2.68,-5.39 -5.71,-5.28 -2.31,0.08 -4.13,-1.6 -5.17,-4.02 -0.62,-1.49 -0.99,-3.23 -1.04,-5.1 -0.05,-1.9 0.23,-3.87 0.88,-5.7 1.72,-4.83 6.13,-9.08 14.01,-9.81 0.27,-0.02 0.54,-0.04 0.8,-0.03l0.23 -0c4.08,0.06 7.85,2.81 10.81,6.93 3.39,4.71 5.64,11.06 6.25,17.51 0.1,1.24 0.17,2.55 0.14,3.9 -0.17,11.1 -6.64,17.92 -15.19,20.79 -5.18,1.72 -11.12,2.09 -17.01,1.19 -5.91,-0.89 -11.67,-3.07 -16.49,-6.46 -9.21,-6.49 -14.9,-17.62 -10.96,-32.93zm142.9 44.58c-2.43,1.28 -3.36,4.28 -2.09,6.71 1.27,2.42 4.28,3.36 6.7,2.08 17.03,-8.93 22.4,-23.39 20.7,-37.29 -0.84,-6.85 -3.44,-13.53 -7.24,-19.26 -3.79,-5.74 -8.83,-10.61 -14.53,-13.82 -10.61,-5.98 -23.29,-6.3 -34.57,3.58 -1.11,0.98 -2.22,2.07 -3.3,3.25 -5.14,5.59 -8.88,12.59 -10.34,19.38 -1.6,7.43 -0.56,14.72 4.15,20.09 0.07,0.08 0.15,0.16 0.22,0.24 0.38,0.42 0.78,0.82 1.22,1.22 8.64,7.93 18.07,8.41 25.56,5.28 2.81,-1.17 5.33,-2.84 7.41,-4.82 2.1,-2 3.79,-4.35 4.93,-6.82 2.66,-5.78 2.39,-12.18 -2.32,-17.01 -1.93,-1.97 -5.08,-2.01 -7.04,-0.08 -1.97,1.91 -2,5.07 -0.08,7.03 1.46,1.5 1.42,3.74 0.43,5.88 -0.61,1.33 -1.57,2.63 -2.79,3.79 -1.24,1.18 -2.72,2.18 -4.35,2.85 -4.28,1.78 -9.78,1.4 -15.05,-3.44 -0.17,-0.17 -0.34,-0.33 -0.51,-0.51l-0.14 -0.17c-2.43,-2.77 -2.87,-6.95 -1.91,-11.43 1.11,-5.12 3.99,-10.47 7.95,-14.78 0.76,-0.83 1.61,-1.66 2.53,-2.47 7.54,-6.62 16.03,-6.4 23.13,-2.4 4.28,2.41 8.13,6.16 11.1,10.65 2.98,4.5 5.01,9.69 5.66,14.97 1.24,10.09 -2.78,20.66 -15.42,27.29zm-56.52 -109.08c-2.43,1.28 -3.36,4.28 -2.09,6.71 1.27,2.42 4.28,3.36 6.7,2.08 17.03,-8.93 22.4,-23.39 20.7,-37.29 -0.84,-6.85 -3.44,-13.53 -7.24,-19.26 -3.79,-5.74 -8.83,-10.61 -14.53,-13.82 -10.61,-5.98 -23.29,-6.3 -34.57,3.58 -1.11,0.98 -2.22,2.07 -3.3,3.25 -5.14,5.59 -8.88,12.59 -10.34,19.38 -1.6,7.43 -0.56,14.72 4.15,20.09 0.07,0.08 0.15,0.16 0.22,0.24 0.38,0.42 0.78,0.82 1.22,1.22 8.64,7.93 18.07,8.41 25.56,5.28 2.81,-1.17 5.33,-2.84 7.41,-4.82 2.1,-2 3.79,-4.35 4.93,-6.82 2.66,-5.78 2.39,-12.18 -2.32,-17.01 -1.93,-1.97 -5.08,-2.01 -7.04,-0.08 -1.97,1.91 -2,5.07 -0.08,7.03 1.46,1.5 1.42,3.74 0.43,5.88 -0.61,1.33 -1.57,2.63 -2.79,3.79 -1.24,1.18 -2.72,2.18 -4.35,2.85 -4.28,1.78 -9.78,1.4 -15.05,-3.44 -0.17,-0.17 -0.34,-0.33 -0.51,-0.51l-0.14 -0.17c-2.43,-2.77 -2.87,-6.95 -1.91,-11.43 1.11,-5.12 3.99,-10.47 7.95,-14.78 0.76,-0.83 1.61,-1.66 2.53,-2.47 7.54,-6.62 16.03,-6.4 23.13,-2.4 4.28,2.41 8.13,6.16 11.1,10.65 2.98,4.5 5.01,9.69 5.66,14.97 1.24,10.09 -2.78,20.66 -15.42,27.29zm176.29 -4.75c0.98,-3.01 -0.68,-6.25 -3.69,-7.22 -3.02,-0.97 -6.25,0.68 -7.22,3.69 -2.94,9.06 -0.89,19.12 4.31,27.43 3.19,5.09 7.59,9.57 12.75,12.75 5.3,3.28 11.41,5.22 17.86,5.14 8.96,-0.11 18.43,-4.06 27.09,-13.65 9.73,-10.78 10.76,-20.88 7.16,-28.96 -2.34,-5.24 -6.64,-9.42 -11.76,-12.24 -4.91,-2.72 -10.67,-4.23 -16.16,-4.23 -9.52,0 -18.32,4.34 -21.55,14.36 -3.16,9.78 -1.32,16.74 2.82,21.28 0.11,0.12 0.22,0.23 0.34,0.34 1.99,2.04 4.41,3.5 7.04,4.38 2.59,0.87 5.37,1.22 8.08,1.1 7.09,-0.32 14.07,-3.96 16.58,-9.8 1.24,-2.91 -0.11,-6.29 -3.02,-7.53 -2.91,-1.24 -6.28,0.11 -7.53,3.03 -0.7,1.63 -3.48,2.69 -6.51,2.83 -1.37,0.06 -2.73,-0.1 -3.93,-0.51 -0.93,-0.31 -1.77,-0.79 -2.41,-1.41l-0.15 -0.16c-1.55,-1.7 -2.05,-4.88 -0.38,-10.05 1.43,-4.45 5.8,-6.38 10.62,-6.38 3.58,-0 7.37,1 10.63,2.8 3.07,1.69 5.57,4.05 6.83,6.87 1.85,4.16 0.92,9.83 -5.19,16.59 -6.26,6.93 -12.75,9.78 -18.7,9.86 -4.19,0.05 -8.2,-1.24 -11.71,-3.41 -3.65,-2.25 -6.77,-5.44 -9.05,-9.08 -3.51,-5.6 -4.97,-12.17 -3.13,-17.82zm-156.01 157.6c0.98,-3.01 -0.68,-6.25 -3.69,-7.22 -3.02,-0.97 -6.25,0.68 -7.22,3.69 -2.94,9.06 -0.89,19.12 4.31,27.43 3.19,5.09 7.59,9.57 12.75,12.75 5.3,3.28 11.41,5.22 17.86,5.14 8.96,-0.11 18.43,-4.06 27.09,-13.65 9.73,-10.78 10.76,-20.88 7.16,-28.96 -2.34,-5.24 -6.64,-9.42 -11.76,-12.24 -4.91,-2.72 -10.67,-4.23 -16.16,-4.23 -9.52,0 -18.32,4.34 -21.55,14.36 -3.16,9.78 -1.32,16.74 2.82,21.28 0.11,0.12 0.22,0.23 0.34,0.34 1.99,2.04 4.41,3.5 7.04,4.38 2.59,0.87 5.37,1.22 8.08,1.1 7.09,-0.32 14.07,-3.96 16.58,-9.8 1.24,-2.91 -0.11,-6.29 -3.02,-7.53 -2.91,-1.24 -6.28,0.11 -7.53,3.03 -0.7,1.63 -3.48,2.69 -6.51,2.83 -1.37,0.06 -2.73,-0.1 -3.93,-0.51 -0.93,-0.31 -1.77,-0.79 -2.41,-1.41l-0.15 -0.16c-1.55,-1.7 -2.05,-4.88 -0.38,-10.05 1.43,-4.45 5.8,-6.38 10.62,-6.38 3.58,-0 7.37,1 10.63,2.8 3.07,1.69 5.57,4.05 6.83,6.87 1.85,4.16 0.92,9.83 -5.19,16.59 -6.26,6.93 -12.75,9.78 -18.7,9.86 -4.19,0.05 -8.2,-1.24 -11.71,-3.41 -3.65,-2.25 -6.77,-5.44 -9.05,-9.08 -3.51,-5.6 -4.97,-12.17 -3.13,-17.82zm165.12 142.05c0.9,3.03 4.08,4.77 7.11,3.87 3.03,-0.9 4.77,-4.08 3.87,-7.12 -2.69,-9.12 -10.05,-16.26 -19.02,-20.17 -5.5,-2.4 -11.65,-3.61 -17.7,-3.33 -6.22,0.29 -12.35,2.13 -17.62,5.84 -7.32,5.14 -12.91,13.73 -14.63,26.53 -1.94,14.38 2.91,23.27 10.43,27.9 4.88,3 10.78,4.02 16.59,3.47 5.57,-0.54 11.17,-2.54 15.7,-5.64 7.84,-5.37 12.65,-13.91 9.67,-23.99 -2.91,-9.85 -8.35,-14.55 -14.32,-15.95 -0.16,-0.04 -0.32,-0.06 -0.47,-0.09 -2.79,-0.57 -5.61,-0.39 -8.27,0.36 -2.63,0.74 -5.12,2.02 -7.28,3.65 -5.66,4.25 -9.37,11.2 -8.14,17.43 0.62,3.1 3.63,5.12 6.74,4.5 3.1,-0.62 5.12,-3.63 4.5,-6.73 -0.34,-1.74 1.35,-4.18 3.77,-6.01 1.1,-0.82 2.3,-1.46 3.53,-1.81 0.95,-0.26 1.9,-0.34 2.78,-0.19l0.21 0.06c2.23,0.52 4.44,2.86 5.98,8.07 1.33,4.48 -1.18,8.53 -5.15,11.25 -2.95,2.02 -6.64,3.33 -10.35,3.68 -3.47,0.33 -6.87,-0.2 -9.49,-1.82 -3.88,-2.39 -6.3,-7.58 -5.08,-16.61 1.25,-9.24 5,-15.25 9.85,-18.66 3.43,-2.4 7.45,-3.6 11.57,-3.79 4.28,-0.2 8.65,0.67 12.58,2.38 6.05,2.64 10.96,7.23 12.63,12.92zm-93.13 -55.72c0.9,3.03 4.08,4.77 7.11,3.87 3.03,-0.9 4.77,-4.08 3.87,-7.12 -2.69,-9.12 -10.05,-16.26 -19.02,-20.17 -5.5,-2.4 -11.65,-3.61 -17.7,-3.33 -6.22,0.29 -12.35,2.13 -17.62,5.83 -7.32,5.14 -12.91,13.73 -14.63,26.53 -1.94,14.38 2.91,23.27 10.43,27.9 4.88,3 10.78,4.02 16.59,3.47 5.57,-0.54 11.17,-2.54 15.7,-5.64 7.84,-5.37 12.65,-13.91 9.67,-23.99 -2.91,-9.85 -8.35,-14.55 -14.32,-15.95 -0.16,-0.04 -0.32,-0.06 -0.47,-0.09 -2.79,-0.57 -5.61,-0.39 -8.27,0.36 -2.63,0.74 -5.12,2.02 -7.28,3.65 -5.66,4.25 -9.37,11.2 -8.14,17.43 0.62,3.1 3.63,5.12 6.74,4.5 3.1,-0.62 5.12,-3.63 4.5,-6.73 -0.34,-1.74 1.35,-4.18 3.77,-6.01 1.1,-0.82 2.3,-1.46 3.53,-1.81 0.95,-0.26 1.9,-0.34 2.78,-0.19l0.21 0.06c2.23,0.52 4.44,2.86 5.98,8.07 1.33,4.48 -1.18,8.53 -5.15,11.25 -2.95,2.02 -6.64,3.33 -10.35,3.68 -3.47,0.33 -6.87,-0.2 -9.49,-1.82 -3.88,-2.39 -6.3,-7.58 -5.08,-16.61 1.25,-9.24 5,-15.25 9.85,-18.66 3.43,-2.4 7.45,-3.6 11.57,-3.79 4.28,-0.2 8.65,0.67 12.58,2.38 6.05,2.64 10.96,7.23 12.63,12.92zm93.79 -171.71c2.72,1.61 6.23,0.71 7.84,-2.01 1.61,-2.72 0.71,-6.23 -2.01,-7.85 -8.18,-4.85 -18.43,-5.07 -27.67,-1.83 -5.66,1.99 -10.99,5.29 -15.23,9.62 -4.36,4.44 -7.59,9.97 -8.93,16.27 -1.86,8.75 -0.1,18.84 7.34,29.39 8.37,11.85 17.98,15.07 26.64,13.34 5.62,-1.12 10.63,-4.39 14.52,-8.76 3.72,-4.19 6.46,-9.47 7.66,-14.82 2.09,-9.28 -0.2,-18.8 -9.25,-24.15 -8.83,-5.23 -16.02,-4.97 -21.35,-1.93 -0.14,0.08 -0.28,0.17 -0.41,0.26 -2.43,1.48 -4.37,3.53 -5.81,5.89 -1.43,2.33 -2.37,4.96 -2.85,7.63 -1.25,6.97 0.76,14.58 5.9,18.31 2.57,1.85 6.15,1.28 8,-1.29 1.85,-2.56 1.28,-6.15 -1.29,-8 -1.44,-1.04 -1.86,-3.98 -1.32,-6.97 0.24,-1.35 0.69,-2.64 1.36,-3.72 0.51,-0.84 1.16,-1.55 1.91,-2.03l0.19 -0.1c1.99,-1.14 5.2,-0.93 9.88,1.84 4.02,2.38 4.94,7.05 3.88,11.75 -0.78,3.48 -2.59,6.96 -5.07,9.74 -2.32,2.61 -5.17,4.53 -8.19,5.14 -4.46,0.89 -9.77,-1.27 -15.02,-8.71 -5.38,-7.62 -6.73,-14.57 -5.49,-20.38 0.87,-4.09 3,-7.71 5.89,-10.65 3,-3.06 6.79,-5.4 10.84,-6.82 6.23,-2.19 12.94,-2.16 18.05,0.87z"/>
   <g>
    <path id="_103244864" class="fil1" d="M1107.15 1128.58c0,0 21.68,6.24 74.14,78.38 5.76,-47.84 -28.45,-72.65 -74.14,-78.38z"/>
    <path id="_103244792" class="fil1" d="M1136.74 1141.33c0,0 -43.27,53.23 -2.33,89.32 0,0 -20.95,-36.38 17.36,-76.24l-6.8 -10.83 -8.24 -2.26z"/>
   </g>
   <g>
    <g>
     <path id="_103244696" class="fil1" d="M1438.59 795.26c28.04,0 50.79,11.81 50.79,26.38 0,14.57 -22.74,26.39 -50.79,26.39 -28.04,0 -50.78,-11.81 -50.78,-26.39 0,-14.57 22.74,-26.38 50.78,-26.38z"/>
     <path id="_103244624" class="fil10" d="M1438.59 807.58c17.73,0 32.12,6.3 32.12,14.07 0,7.77 -14.38,14.07 -32.12,14.07 -17.73,0 -32.11,-6.3 -32.11,-14.07 0,-7.77 14.38,-14.07 32.11,-14.07z"/>
    </g>
    <g>
     <path id="_103244528" class="fil1" d="M856.22 795.26c28.04,0 50.79,11.81 50.79,26.38 0,14.57 -22.74,26.39 -50.79,26.39 -28.04,0 -50.78,-11.81 -50.78,-26.39 0,-14.57 22.74,-26.38 50.78,-26.38z"/>
     <path id="_103195264" class="fil10" d="M856.22 807.58c17.73,0 32.12,6.3 32.12,14.07 0,7.77 -14.38,14.07 -32.12,14.07 -17.73,0 -32.11,-6.3 -32.11,-14.07 0,-7.77 14.38,-14.07 32.11,-14.07z"/>
    </g>
   </g>
   <path id="_103194976" class="fil1" d="M1553.63 1221.65c0,0 -70.04,40.59 -128.15,52.53 0,0 54.12,-1.59 135.31,-23.08l10.35 -22.29 -17.51 -7.16z"/>
   <ellipse id="_103194904" class="fil6" cx="1573.22" cy="775.92" rx="23.08" ry="27.86"/>
   <circle id="_103194832" class="fil6" cx="1540.58" cy="694.74" r="17.51"/>
   <g>
    <g>
     <circle id="_103194760" class="fil7" cx="536.03" cy="379.53" r="33.56"/>
     <circle id="_103194688" class="fil1" cx="531.62" cy="373.43" r="30.76"/>
     <circle id="_103194616" class="fil3" cx="537.59" cy="377.98" r="25.19"/>
     <path id="_103194544" class="fil7" d="M551.06 359.92c5.5,4.11 9.06,10.67 9.06,18.06 0,12.44 -10.09,22.53 -22.53,22.53 -8.68,0 -16.21,-4.92 -19.97,-12.11 3.76,2.81 8.42,4.47 13.47,4.47 12.44,0 22.53,-10.09 22.53,-22.53 0,-3.76 -0.92,-7.3 -2.55,-10.42z"/>
     <circle id="_103194472" class="fil8" transform="matrix(0.347947 -0.237931 0.164677 0.240822 532.353 370.268)" r="43.04"/>
    </g>
    <g>
     <circle id="_103194376" class="fil7" transform="matrix(1.44396 0.461354 -0.523534 1.27246 647.77 412.114)" r="43.04"/>
     <circle id="_103194304" class="fil1" transform="matrix(1.28717 0.422845 -0.515322 1.16625 648.114 401.233)" r="43.04"/>
     <circle id="_103194232" class="fil3" transform="matrix(1.08385 0.346295 -0.392968 0.955116 651.694 410.499)" r="43.04"/>
     <path id="_103194160" class="fil7" d="M688.76 389c7.42,9.96 9.61,22.77 4.65,34.83 -8.35,20.3 -33.8,30.79 -56.84,23.43 -16.07,-5.13 -26.72,-17.61 -28.85,-31.58 5.07,6.8 12.58,12.28 21.93,15.26 23.03,7.36 48.49,-3.13 56.84,-23.43 2.52,-6.13 3.19,-12.46 2.27,-18.51z"/>
     <circle id="_103194088" class="fil8" transform="matrix(0.80399 -0.182384 0.143245 0.490368 647.178 394.826)" r="43.04"/>
    </g>
    <circle id="_103193992" class="fil8" cx="515.31" cy="437.28" r="15.29"/>
    <circle id="_103193920" class="fil8" cx="565.57" cy="448.21" r="6.75"/>
    <circle id="_103193848" class="fil8" cx="751.09" cy="397.75" r="9.53"/>
   </g>
   <g>
    <g>
     <circle id="_103193752" class="fil6" cx="1559.41" cy="622.26" r="31.2"/>
     <circle id="_103193680" class="fil1" cx="1555.31" cy="616.59" r="28.6"/>
     <circle id="_103193608" class="fil2" cx="1560.86" cy="620.81" r="23.42"/>
     <path id="_103193536" class="fil6" d="M1573.38 604.03c5.11,3.82 8.42,9.92 8.42,16.79 0,11.57 -9.38,20.94 -20.94,20.94 -8.07,0 -15.07,-4.57 -18.57,-11.26 3.49,2.61 7.83,4.16 12.52,4.16 11.56,0 20.94,-9.38 20.94,-20.94 0,-3.49 -0.86,-6.79 -2.37,-9.69z"/>
     <circle id="_103193464" class="fil5" transform="matrix(0.323467 -0.221192 0.153091 0.223879 1555.99 613.647)" r="43.04"/>
    </g>
    <g>
     <circle id="_103193368" class="fil6" transform="matrix(1.09662 0.350375 -0.397598 0.966369 1448.49 737.108)" r="43.04"/>
     <circle id="_103193296" class="fil1" transform="matrix(0.977541 0.32113 -0.391362 0.885708 1448.75 728.846)" r="43.04"/>
     <circle id="_103172056" class="fil2" transform="matrix(0.823127 0.262994 -0.29844 0.725363 1451.47 735.88)" r="43.04"/>
     <path id="_103171984" class="fil6" d="M1479.61 719.55c5.64,7.56 7.3,17.29 3.53,26.45 -6.34,15.42 -25.67,23.38 -43.16,17.8 -12.21,-3.9 -20.29,-13.38 -21.91,-23.98 3.85,5.17 9.56,9.32 16.66,11.59 17.49,5.59 36.82,-2.38 43.16,-17.8 1.92,-4.66 2.42,-9.47 1.72,-14.06z"/>
     <circle id="_103171912" class="fil5" transform="matrix(0.61059 -0.138512 0.108788 0.37241 1448.04 723.98)" r="43.04"/>
    </g>
    <circle id="_103171816" class="fil5" cx="1347.9" cy="756.22" r="11.61"/>
    <circle id="_103171744" class="fil5" cx="1386.06" cy="764.52" r="5.13"/>
    <circle id="_103171672" class="fil5" cx="1526.96" cy="726.2" r="7.24"/>
   </g>
   <circle id="_103170352" class="fil6" cx="1685.61" cy="575.02" r="16.72"/>
   <circle id="_103170280" class="fil3" cx="1792.51" cy="559.81" r="13.22"/>
   <circle id="_103170208" class="fil6" cx="510.21" cy="1388.4" r="32.22"/>
   <circle id="_103170136" class="fil5" transform="matrix(1.49303 0.376832 -0.515487 2.04239 325.131 739.981)" r="19.1"/>
   <circle id="_103132504" class="fil6" cx="478" cy="884.49" r="45.41"/>
   <circle id="_103132432" class="fil6" cx="478.8" cy="780.13" r="14.34"/>
   <path class="fil7" d="M1289.21 525.83c-18.73,-9.46 -35.83,-21.65 -50.79,-36.07 -6.11,18.96 -14.65,36.83 -25.25,53.26 -26.03,3.77 -53.64,5.73 -82.95,5.46 -304.94,-2.88 -408.6,-232.32 -425.87,-276.91 48.54,-9.86 101.84,-9.89 166.58,-7.2 81.77,-27.34 178.97,-41.16 276.19,-41.33l0 -0 0.29 0 0.29 -0 0 0c97.1,0.17 194.17,13.95 275.88,41.23 60.17,-2.44 110.43,-2.43 156.24,5.8 -17.71,38.12 -101.21,196.37 -290.61,255.76z"/>
   <g>
    <path id="_123939464" class="fil1" d="M1752.44 414.73c29.39,-17.35 35.84,-55.13 14.42,-84.39 -21.42,-29.26 -62.61,-38.91 -92,-21.56 -29.39,17.35 -31.51,53.07 -10.09,82.33 21.42,29.26 58.28,40.97 87.66,23.62z"/>
    <circle id="_123939392" class="fil3" transform="matrix(0.765288 1.02754 -0.985881 0.616834 1710.86 372.583)" r="43.04"/>
    <path id="_123939320" class="fil7" d="M1758.88 377.2c0.27,13.98 -6.13,27.15 -18.57,34.93 -20.95,13.11 -51.13,6.03 -67.39,-15.81 -11.35,-15.23 -12.92,-33.64 -5.71,-47.82 0.18,9.55 3.47,19.49 10.07,28.35 16.26,21.84 46.44,28.92 67.39,15.81 6.33,-3.96 11.09,-9.32 14.21,-15.46z"/>
    <circle id="_123939248" class="fil8" transform="matrix(0.855633 0.360062 -0.190306 0.542847 1717 355.274)" r="43.04"/>
   </g>
   <g>
    <circle id="_123939848" class="fil1" transform="matrix(1.43263 0.0907352 -0.0907352 1.43263 994.185 529.13)" r="30.76"/>
    <circle id="_123939776" class="fil3" transform="matrix(1.43263 0.0907352 -0.0907352 1.43263 1002.32 536.178)" r="25.19"/>
    <path id="_123939704" class="fil7" d="M1023.25 511.53c7.5,6.38 12.01,16.11 11.34,26.69 -1.13,17.82 -16.5,31.36 -34.32,30.23 -12.43,-0.79 -22.78,-8.52 -27.52,-19.16 5.13,4.36 11.65,7.17 18.89,7.63 17.82,1.13 33.19,-12.41 34.32,-30.23 0.34,-5.39 -0.66,-10.55 -2.71,-15.16z"/>
    <circle id="_123939632" class="fil8" transform="matrix(0.520067 -0.309295 0.21407 0.35995 995.516 524.662)" r="43.04"/>
   </g>
   <path class="fil7" d="M1040.87 597.96c23.82,0 43.72,16.76 48.55,39.13 -21.27,6.59 -43.88,10.15 -67.33,10.15 -10.46,0 -20.76,-0.71 -30.85,-2.08 1.29,-26.28 23.01,-47.2 49.62,-47.2zm-72.24 -7.01c10.14,0 18.35,8.22 18.35,18.35 0,10.14 -8.22,18.35 -18.35,18.35 -10.14,0 -18.35,-8.22 -18.35,-18.35 0,-10.14 8.22,-18.35 18.35,-18.35z"/>
   <circle class="fil3" cx="774.48" cy="598.91" r="30.86"/>
   <circle class="fil3" cx="669.27" cy="508.67" r="13.56"/>
   <circle class="fil3" cx="1183.61" cy="619.95" r="16.36"/>
   <path class="fil7" d="M1668.95 447.42c20.48,0 37.72,13.86 42.86,32.71 -13.3,3.47 -27.26,5.32 -41.65,5.32 -15.2,0 -29.92,-2.06 -43.9,-5.92 5.34,-18.54 22.43,-32.11 42.69,-32.11zm-114.19 10.51c-18.11,26.22 -42.06,48.09 -69.98,63.72 2.56,8.06 3.95,16.63 3.95,25.54 0,43.72 -33.34,79.64 -75.98,83.75 -2.74,-7.67 -4.24,-15.93 -4.24,-24.55 0,-40.19 32.51,-72.78 72.66,-72.94 -1.64,-5.48 -2.52,-11.29 -2.52,-17.3 0,-33.31 27,-60.32 60.32,-60.32 5.47,0 10.76,0.73 15.8,2.09zm20.47 16.78c3.8,0 7.33,1.13 10.28,3.08 3.29,3.99 6.07,8.4 8.26,13.16 0.11,0.81 0.16,1.63 0.16,2.47 0,10.33 -8.37,18.7 -18.7,18.7 -10.33,0 -18.7,-8.37 -18.7,-18.7 0,-10.33 8.37,-18.7 18.7,-18.7zm-161.11 30.69c9.81,0 17.77,7.95 17.77,17.77 0,9.81 -7.95,17.77 -17.77,17.77 -9.81,0 -17.77,-7.95 -17.77,-17.77 0,-9.81 7.95,-17.77 17.77,-17.77zm196.38 -108.48c10.85,0 19.64,8.79 19.64,19.64 0,10.85 -8.79,19.64 -19.64,19.64 -10.85,0 -19.64,-8.79 -19.64,-19.64 0,-10.85 8.79,-19.64 19.64,-19.64z"/>
   <g>
    <circle id="_123939848_5" class="fil1" transform="matrix(1.51724 -0.719824 0.719824 1.51724 1720.19 698.673)" r="30.76"/>
    <circle id="_123939776_6" class="fil3" transform="matrix(1.51724 -0.719824 0.719824 1.51724 1732.51 701.271)" r="25.19"/>
    <path id="_123939704_7" class="fil7" d="M1739.94 664.17c11.3,2.28 21.42,9.67 26.74,20.88 8.95,18.87 0.91,41.44 -17.96,50.4 -13.17,6.25 -28.14,4.21 -39.02,-4 7.72,1.56 15.99,0.73 23.65,-2.91 18.87,-8.95 26.92,-31.52 17.96,-50.39 -2.71,-5.7 -6.66,-10.42 -11.37,-13.97z"/>
    <circle id="_123939632_8" class="fil8" transform="matrix(0.35665 -0.611458 0.423203 0.246846 1719.02 693.346)" r="43.04"/>
   </g>
   <circle class="fil8" transform="matrix(1 -0 0.153034 1 887.957 527.868)" r="19.17"/>
   <circle class="fil8" transform="matrix(0.611808 -0 0.0936276 0.611808 905.677 572.717)" r="19.17"/>
   <circle class="fil8" cx="1603.95" cy="338.03" r="25.25"/>
   <circle class="fil8" cx="1566.07" cy="392.74" r="11.69"/>
   <path class="fil7" d="M767.48 442.68c4.78,1.81 6.81,8.15 4.53,14.17 -2.28,6.02 -8,9.43 -12.78,7.62 -4.78,-1.81 -6.81,-8.15 -4.53,-14.17 2.28,-6.02 8,-9.43 12.78,-7.62zm-24.94 2.4c7.16,6.03 6.81,18.24 -0.79,27.25 -7.6,9.02 -19.56,11.43 -26.72,5.4 -7.16,-6.03 -6.8,-18.23 0.79,-27.25 7.6,-9.02 19.56,-11.43 26.72,-5.4z"/>
   <g>
    <path id="_123939464_9" class="fil1" d="M1487.98 442.98c4.03,-18.33 -8.75,-35.08 -28.55,-37.43 -19.8,-2.35 -39.12,10.6 -43.16,28.93 -4.03,18.33 9.54,32.57 29.34,34.92 19.8,2.35 38.33,-8.09 42.36,-26.42z"/>
    <circle id="_123939392_10" class="fil3" transform="matrix(0.700249 0.0772371 -0.121351 0.627846 1455.44 443.915)" r="43.04"/>
    <path id="_123939320_11" class="fil7" d="M1475.3 426.32c5.72,5.13 8.63,12.64 7.09,20.56 -2.58,13.34 -16.74,22.83 -31.62,21.19 -10.38,-1.14 -18.37,-7.41 -21.38,-15.62 3.91,3.51 9.14,5.91 15.18,6.57 14.88,1.64 29.04,-7.85 31.62,-21.19 0.78,-4.03 0.41,-7.96 -0.89,-11.51z"/>
    <circle id="_123939248_12" class="fil8" transform="matrix(0.465566 -0.20929 0.147074 0.280032 1450.78 434.957)" r="43.04"/>
   </g>
   <g>
    <circle id="_123939848_13" class="fil1" transform="matrix(0.0815701 -1.12306 1.12306 0.0815701 825.542 542.217)" r="30.76"/>
    <circle id="_123939776_14" class="fil3" transform="matrix(0.0815701 -1.12306 1.12306 0.0815701 831.13 535.888)" r="25.19"/>
    <path id="_123939704_15" class="fil7" d="M811.95 519.29c5.06,-5.84 12.72,-9.3 21.02,-8.7 13.97,1.02 24.48,13.17 23.46,27.14 -0.71,9.75 -6.84,17.81 -15.23,21.44 3.46,-3.99 5.71,-9.09 6.12,-14.76 1.02,-13.97 -9.49,-26.12 -23.46,-27.14 -4.22,-0.31 -8.28,0.44 -11.91,2.02z"/>
    <circle id="_123939632_16" class="fil8" transform="matrix(-0.238828 -0.410172 0.28389 -0.165298 822.047 541.14)" r="43.04"/>
   </g>
   <g>
    <circle id="_123939848_17" class="fil1" transform="matrix(1.63923 0.02643 -0.02643 1.63923 366.273 611.39)" r="30.76"/>
    <circle id="_123939776_18" class="fil3" transform="matrix(1.63923 0.02643 -0.02643 1.63923 375.931 618.993)" r="25.19"/>
    <path id="_123939704_19" class="fil7" d="M398.48 589.74c8.91,6.88 14.57,17.73 14.37,29.84 -0.33,20.39 -17.13,36.66 -37.52,36.33 -14.23,-0.23 -26.45,-8.49 -32.42,-20.38 6.08,4.7 13.68,7.55 21.96,7.69 20.39,0.33 37.19,-15.94 37.52,-36.33 0.1,-6.16 -1.32,-12 -3.91,-17.15z"/>
    <circle id="_123939632_20" class="fil8" transform="matrix(0.576653 -0.380827 0.263578 0.399115 367.552 606.221)" r="43.04"/>
   </g>
  </g>
 </g>
</svg>
