<?xml version="1.0" encoding="UTF-8"?>
<!DOCTYPE svg PUBLIC "-//W3C//DTD SVG 1.1//EN" "http://www.w3.org/Graphics/SVG/1.1/DTD/svg11.dtd">
<!-- Creator: CorelDRAW 2020 (64-Bit) -->
<svg xmlns="http://www.w3.org/2000/svg" xml:space="preserve" width="161.908mm" height="176.791mm" version="1.1" style="shape-rendering:geometricPrecision; text-rendering:geometricPrecision; image-rendering:optimizeQuality; fill-rule:evenodd; clip-rule:evenodd"
viewBox="0 0 1750.96 1911.92"
 xmlns:xlink="http://www.w3.org/1999/xlink"
 xmlns:xodm="http://www.corel.com/coreldraw/odm/2003">
 <defs>
  <style type="text/css">
   <![CDATA[
    .fil0 {fill:none}
    .fil1 {fill:#501D33}
    .fil8 {fill:#623448}
    .fil3 {fill:#8E7A5D}
    .fil7 {fill:#AEB8A2}
    .fil2 {fill:#C3C077}
    .fil5 {fill:#D4D784}
    .fil4 {fill:#EEF698}
    .fil6 {fill:white}
   ]]>
  </style>
 </defs>
 <g id="Слой_x0020_1">
  <metadata id="CorelCorpID_0Corel-Layer"/>
  <g id="_2674616141072">
   <rect class="fil0" y="0" width="1750.96" height="1911.92"/>
   <path id="_129455904" class="fil1" d="M1274.85 199.67c180.56,81.02 328.57,394.22 341.76,559.19 15.11,188.99 12.77,304.01 -97.46,534.9 0,0 -24.89,46.49 -106.81,26.56 -38.16,6.17 -72.06,-9.12 -89.6,-34.28 -0.43,-0.61 -46.7,-5 -68.67,-26.39 -9.97,-9.7 -16.3,-18.33 -12.72,-35.98 4.69,-23.11 11.61,-51.41 11.61,-51.41 0,0 -40.74,-40.62 -34.07,-57.9 6.67,-17.28 89.99,-89.49 90.13,-90.18 57.17,-262.15 1.11,-485.78 -148.66,-666.41l-120.33 -159.33c60.45,-17.85 170.72,-27.53 234.82,1.23z"/>
   <path id="_129455832" class="fil1" d="M550.62 989.71c-32.65,-194.1 -49.5,-521.25 -69.13,-675.13 34.32,-141.31 304.26,-97.98 396.21,-78.87 91.96,-19.11 361.89,-62.45 396.21,78.87 -19.37,151.84 -33.64,475.18 -65.4,669.79 -119.31,37.89 -233.33,50.85 -332.22,50.65 -75.03,-0.15 -249.16,-15.07 -325.68,-45.32l0 0z"/>
   <path id="_129455760" class="fil1" d="M478.42 199.67c-180.56,81.02 -328.57,394.22 -341.76,559.19 -15.11,188.99 -12.77,304.01 97.46,534.9 0,0 24.89,46.49 106.81,26.56 38.16,6.17 72.06,-9.12 89.6,-34.28 0.43,-0.61 46.7,-5 68.67,-26.39 9.97,-9.7 16.3,-18.33 12.72,-35.98 -4.69,-23.11 -11.61,-51.41 -11.61,-51.41 0,0 40.74,-40.62 34.07,-57.9 -6.67,-17.28 -89.99,-89.49 -90.13,-90.18 -57.17,-262.15 -1.11,-485.78 148.66,-666.41l120.33 -159.33c-60.45,-17.85 -170.72,-27.53 -234.82,1.23z"/>
   <path id="_129455688" class="fil2" d="M496.58 445.86l17.06 -23.61c13.78,184.05 35.02,382.12 62.59,561.21 89.66,21.78 351.52,72.29 603.82,-5.72 27,-176.71 47.87,-371.48 61.5,-552.82l15.13 20.94c89.95,158.67 133.53,400.16 69.1,602.32 0,0 -79.73,61.98 -80.7,70.56 -0.98,8.57 21.79,33.71 21.79,33.71 7.08,-12.15 16.75,-34.25 20.74,-29.55 -14.47,50.9 -21.06,81.22 -25,99.19 -5.16,23.53 0.78,24.95 19.78,33.88l41.59 10.98c0,0 8.85,-32.48 11.61,-32.58 2.76,-0.1 2.89,43.9 2.89,43.9 31.8,27.44 70.75,27.3 70.75,27.3 0,0 30.83,-35.54 32.08,-32.72 1.25,2.81 -17.16,35.38 -17.16,35.38 63.3,7.32 73.34,-22.26 73.34,-22.26 82.73,-162.06 116.83,-318.79 94.5,-497.53 -22.19,-177.58 -111.36,-369.43 -235.36,-496.61 -85.19,-87.37 -152.88,-94.33 -267.67,-89.67 -62.5,-20.87 -136.75,-31.41 -211.03,-31.54l0 -0 -0.22 0 -0.22 -0 0 0c-74.37,0.13 -148.72,10.7 -211.27,31.62 -115.95,-4.81 -183.91,1.74 -269.57,89.59 -124.01,127.18 -213.17,319.03 -235.36,496.61 -22.33,178.74 11.77,335.47 94.5,497.53 0,0 10.04,29.58 73.34,22.26 0,0 -18.41,-32.57 -17.16,-35.38 1.25,-2.81 32.08,32.72 32.08,32.72 0,0 38.95,0.14 70.75,-27.3 0,0 0.13,-44 2.89,-43.9 2.76,0.1 11.61,32.58 11.61,32.58l41.59 -10.98c19,-8.93 24.94,-10.35 19.78,-33.88 -3.94,-17.98 -10.52,-48.29 -25,-99.19 3.99,-4.71 13.66,17.4 20.74,29.55 0,0 22.77,-25.14 21.79,-33.71 -0.97,-8.57 -80.7,-70.56 -80.7,-70.56 -64.43,-202.16 -20.85,-443.64 69.1,-602.32l-0 -0z"/>
   <path id="_129455472" class="fil3" d="M496.58 445.86l4.39 -6.08c-1.16,-0.65 -2.3,-1.37 -3.47,-1.94 0,0 -309.93,351.53 -11.73,810.47 6.85,-4.79 8.28,-10.68 4.87,-26.22 -3.94,-17.98 -10.52,-48.29 -25,-99.19 3.99,-4.71 13.66,17.4 20.74,29.55 0,0 22.77,-25.14 21.79,-33.71 -0.97,-8.57 -80.7,-70.56 -80.7,-70.56 -64.43,-202.16 -20.85,-443.64 69.1,-602.32l0 0z"/>
   <path id="_129455400" class="fil4" d="M467.64 234.57c-23.25,13.48 -46.4,32 -71.01,57.24 -124.01,127.18 -213.17,319.03 -235.36,496.61 -22.33,178.74 11.77,335.47 94.5,497.53 0,0 0.86,2.5 3.62,5.87 18.28,-2.55 36.78,-6.7 54.91,-11.85 -1.67,-3.66 -2.67,-6.4 -2.35,-7.13 0.37,-0.83 3.35,1.7 7.35,5.69 35.27,-10.4 68.95,-24.39 96.77,-37.49 0.4,-4.03 0.92,-6.69 1.6,-6.67 0.62,0.02 1.44,1.89 2.36,4.79 36.65,-17.49 62.29,-32.98 66.51,-35.56l-0.04 -0.16c-81.06,27.85 -217.91,41.78 -217.91,41.78 -184.65,-379.85 -56.64,-784.91 199.05,-1010.65l-0 0z"/>
   <path id="_129455328" class="fil4" d="M1285.62 234.57c23.25,13.48 46.4,32 71.01,57.24 124.01,127.18 213.17,319.03 235.36,496.61 22.33,178.74 -11.77,335.47 -94.5,497.53 0,0 -0.86,2.5 -3.62,5.87 -18.28,-2.55 -36.78,-6.7 -54.91,-11.85 1.67,-3.66 2.67,-6.4 2.35,-7.13 -0.37,-0.83 -3.35,1.7 -7.35,5.69 -35.27,-10.4 -68.95,-24.39 -96.77,-37.49 -0.4,-4.03 -0.92,-6.69 -1.6,-6.67 -0.62,0.02 -1.44,1.89 -2.36,4.79 -36.65,-17.49 -62.29,-32.98 -66.51,-35.56l0.04 -0.16c81.06,27.85 217.91,41.78 217.91,41.78 184.65,-379.85 56.64,-784.91 -199.05,-1010.65l0 0z"/>
   <path id="_129455256" class="fil3" d="M1256.68 445.86l-4.39 -6.08c1.16,-0.65 2.3,-1.37 3.47,-1.94 0,0 309.93,351.53 11.73,810.47 -6.85,-4.79 -8.28,-10.68 -4.87,-26.22 3.94,-17.98 10.52,-48.29 25,-99.19 -3.99,-4.71 -13.66,17.4 -20.74,29.55 0,0 -22.77,-25.14 -21.79,-33.71 0.97,-8.57 80.7,-70.56 80.7,-70.56 64.43,-202.16 20.85,-443.64 -69.1,-602.32l0 0z"/>
   <path id="_129455184" class="fil1" d="M1544.84 672.95c80.74,-9.11 101.57,79.92 30.33,109.72l-30.33 -109.72z"/>
   <path id="_129455112" class="fil2" d="M1575.16 783.13c26.33,-41.03 27,-86.39 -30.3,-110.82 0,0 -16.31,80.48 30.3,110.82z"/>
   <path id="_129455040" class="fil4" d="M1572.42 786.51c31.88,-40.63 32.24,-90.8 -29.64,-115.4 24.59,16.45 44.89,68.61 28.55,112.05l1.1 3.35z"/>
   <path id="_129454968" class="fil4" d="M1548.05 688.14c-7.04,4.38 -6.97,17.24 0.17,28.71 7.14,11.48 18.64,17.23 25.68,12.85 7.04,-4.38 6.97,-17.24 -0.17,-28.71 -7.14,-11.47 -18.64,-17.23 -25.68,-12.85z"/>
   <path id="_129454896" class="fil2" d="M1260.03 1119.1c0,0 13.07,-27.05 46.5,-44.06 33.43,-17.02 -23.1,44.67 -46.5,44.06z"/>
   <path id="_129454824" class="fil3" d="M1501.06 1278.88c-1.18,2.36 -2.36,4.73 -3.57,7.08 0,0 -10.04,29.58 -73.34,22.26 0,0 18.4,-32.57 17.16,-35.38 -1.25,-2.82 -32.08,32.73 -32.08,32.73 0,0 -38.95,0.14 -70.75,-27.31 0,0 -0.13,-44 -2.89,-43.9 -2.76,0.1 -9.48,35.93 -9.48,35.93 -21.45,-2.85 -46.08,-10.67 -60.53,-23.48 -5.17,-4.58 -6.02,-10.76 -2.96,-24.74 1.32,-5.99 2.92,-13.36 5.02,-22.4 120.06,53.94 196.8,72.72 233.42,79.2l0 0z"/>
   <path id="_129454752" class="fil3" d="M1494.41 712.47c0,0 0,40.18 54.19,62.1 0,0 -35.92,-1.22 -51.14,-15.83 -15.22,-14.61 -3.04,-46.27 -3.04,-46.27z"/>
   <path id="_129454680" class="fil2" d="M576.23 983.45c-31.87,-207.09 -55.3,-439.57 -68.5,-646.39 26.81,-110.39 198.23,-166.15 369.74,-166.45l0 -0 0.22 0 0.22 -0 0 0c171.52,0.3 342.93,56.06 369.74,166.45 -13.07,204.92 -36.19,435.03 -67.62,640.68 -252.3,78 -514.16,27.5 -603.82,5.72l0 -0z"/>
   <path id="_129454608" class="fil5" d="M864.78 449.29c0,0 -14.61,171.85 7.32,194.4 16.96,17.44 6.47,-126.9 -0.82,-185.51 -2.14,-17.17 -6.22,-8.06 -6.5,-8.89l0 -0z"/>
   <path id="_129454536" class="fil6" d="M1402.05 449.24c4.03,0 7.31,3.27 7.31,7.31 0,4.03 -3.27,7.31 -7.31,7.31 -4.03,0 -7.31,-3.27 -7.31,-7.31 0,-4.03 3.27,-7.31 7.31,-7.31zm-142.92 -79.08l0 38.46c0,6.17 -5.05,11.21 -11.21,11.21l-0.22 0c-6.17,0 -11.21,-5.04 -11.21,-11.21l0 -21.67c-10.31,13.28 -21.74,26.63 -34,39.12 5.19,5.37 8.39,12.68 8.39,20.73 0,16.47 -13.36,29.83 -29.83,29.83 -16.47,0 -29.83,-13.36 -29.83,-29.83 0,-2.27 0.25,-4.49 0.74,-6.62l-58.32 -79.41c35.71,-26.23 70.24,-76.46 84.67,-106.27l43.62 7.14c-3.83,8 -9.62,19.55 -16.64,32.24 3.76,2.77 6.21,7.23 6.21,12.27 0,8.41 -6.82,15.22 -15.22,15.22 -2.27,0 -4.43,-0.5 -6.36,-1.39 -12.35,19.54 -26.31,38.08 -39.46,47.74l7.98 10.86c3.23,4.4 9.24,16.46 13.93,12.76l6.1 -6.17c38.2,-28.05 73.82,-111.03 86.29,-145.48l-107.02 -16.84c-11.11,30.46 -48.16,83.93 -83.68,111.25l-26.11 -35.56c13.19,-15.4 25.09,-24.69 36.75,-40.85 9.33,-12.91 17.56,-28.27 24.15,-41.89l-34.2 -5.67c-10.01,20.96 -30.42,50.08 -55.17,68.25l-11.86 8.71c-14.08,10.35 -27.29,16.27 -41.06,21.95 -6.98,2.87 -39.35,11.25 -39.43,11.31 -1.09,0.8 -5.11,29.59 -4.99,32.55 14.86,-2.19 33.68,-5.49 49.1,-11.41 8.18,-3.15 16.46,-6.01 25.21,-10.07 4.66,-2.17 21.24,-14.06 24.31,-9.89l24.66 33.59c-17.25,12.67 -50.26,26 -66.96,30.73 -8.08,2.29 -62.53,14.18 -63.67,15.01 -1.14,0.84 -4.23,17.74 -7.32,37.96 4.71,5.73 7.53,13.06 7.53,21.05 0,11.15 -5.5,21.02 -13.94,27.03 -1.26,11.76 -1.83,20.45 -1.09,22.16 12.46,-1.84 26.39,-0.39 41.62,-2.71 15.21,-2.32 26.76,-4.69 42.41,-7.8 9,-1.79 23.47,-5.68 38.52,-10.78l0 -1.07c0,-7.56 6.18,-13.74 13.74,-13.74l0.28 0c4.39,0 8.32,2.08 10.84,5.31 9.49,-4.13 18.02,-8.57 24.15,-13.07l-5.87 -11.43c-3.41,5.66 -9.61,9.44 -16.69,9.44 -8.61,0 -15.91,-5.58 -18.49,-13.33 -0.79,0.35 -1.57,0.67 -2.33,0.95 -10.86,3.99 -21.77,8.51 -32.4,11.18 -20.53,5.17 -43.98,11.72 -63.29,12.56l6.23 -43.77c27.98,-5.4 96.62,-27.21 126.34,-49.03l71.81 97.8c-6.78,4.98 -14.1,9.76 -21.79,14.32 3.51,2.79 5.76,7.1 5.76,11.92 0,8.41 -6.82,15.22 -15.22,15.22 -7.93,0 -14.45,-6.07 -15.16,-13.82 -13.18,6.53 -26.8,12.42 -40.15,17.55l0 58.03c0,7.56 -6.18,13.74 -13.74,13.74l-0.28 0c-7.56,0 -13.74,-6.18 -13.74,-13.74l0 -48.26c-4.84,1.54 -9.56,2.97 -14.12,4.26 1.02,2.51 1.58,5.25 1.58,8.12 0,11.94 -9.68,21.62 -21.61,21.62 -11.57,0 -21.02,-9.1 -21.59,-20.53 -3.86,0.64 -7.69,1.21 -11.49,1.73l0 59.66c0,6.33 -5.18,11.5 -11.5,11.5l-0.23 0c-6.33,0 -11.5,-5.17 -11.5,-11.5l0 -57.17c-5.54,0.44 -11.16,0.79 -16.93,1.05 -14.03,0.64 -59.17,1.21 -69.74,-2.62l10.63 -69.96c-4.61,-5.7 -7.37,-12.95 -7.37,-20.84 0,-11.49 5.85,-21.63 14.73,-27.58l37.74 -248.33 -32.92 -5.52 -47.83 309.79c-4.39,28.46 -3.11,82.75 -46.01,82.75 -19.84,0 -35.92,-16.09 -35.92,-35.92 0,-3.3 0.45,-6.49 1.28,-9.52 -20.53,-7.71 -42.13,-17.58 -61.48,-28.51 -21.95,-12.4 -42.08,-27.19 -63.27,-44.79 -9.25,-7.68 -16.55,-14.79 -25.27,-23.47 -5.6,5.49 -13.27,8.88 -21.73,8.88 -17.15,0 -31.05,-13.91 -31.05,-31.05 0,-17.15 13.91,-31.05 31.05,-31.05 1.88,0 3.73,0.17 5.52,0.49l1.38 -1.14 77.25 -56.36c8.13,11.08 41.61,41.04 52.12,48.99 7.32,5.52 53.55,34.87 54.16,35.69 0.34,0.46 -0.73,8.69 -2.14,17.97 3.69,4.01 5.95,9.37 5.95,15.25 0,12.44 -10.09,22.53 -22.53,22.53 -12.44,0 -22.53,-10.09 -22.53,-22.53 0,-2.45 0.4,-4.82 1.12,-7.03 -8.78,-4.52 -17.49,-9.23 -24.01,-13.88 -9.65,-6.87 -18.17,-12.66 -28.34,-21.05 -7.57,-6.25 -20.03,-21.52 -28.64,-13.34l-16.44 14.92c17.31,22.49 53.46,45.67 73.66,58.03 13.12,8.03 25.09,13.51 38.1,20.28 7.25,3.77 37.88,14.2 38.91,15.02 9.56,-8.32 13.56,-89.73 19.95,-107.42 -30.75,-14.89 -85.09,-47.13 -111.93,-82.03l36.55 -26.84c14.22,19.34 68.17,59.93 82.01,59.91l5.32 -31.63c-19.58,-9.61 -49.78,-30.99 -67.44,-55.05l-9.43 -12.84c-9.46,-12.88 -16.79,-27.81 -22.16,-42.4 14.55,-3.67 29.54,-6.85 44.87,-9.54 4.04,10.08 8.85,20.38 17.2,31.75 15.09,20.56 28.67,28 44.14,40.95l12.07 -81.66c18.17,-1.3 36.53,-1.97 54.88,-2.01l0 -0 0.22 0 0.22 -0 0 0c74.28,0.13 148.53,10.67 211.03,31.54 92.5,-3.75 154.41,0.04 219.54,47.37 -2.87,9.8 -5.4,17.95 -6.32,20.45 -6.69,18.25 -15.16,37.81 -25.21,56.16 8.72,3.51 14.88,12.06 14.88,22.03 0,13.11 -10.63,23.75 -23.75,23.75 -3.17,0 -6.2,-0.62 -8.97,-1.76l0 -0zm-794.72 1.15c9.41,0 17.05,7.63 17.05,17.05 0,9.41 -7.63,17.05 -17.05,17.05 -9.41,0 -17.05,-7.63 -17.05,-17.05 0,-9.41 7.63,-17.05 17.05,-17.05zm-35.62 23.14c5.21,0 9.44,4.23 9.44,9.44 0,5.21 -4.23,9.44 -9.44,9.44 -5.21,0 -9.44,-4.23 -9.44,-9.44 0,-5.21 4.23,-9.44 9.44,-9.44zm-20.4 -64.54c4.03,0 7.31,3.27 7.31,7.31 0,4.03 -3.27,7.31 -7.31,7.31 -4.03,0 -7.31,-3.27 -7.31,-7.31 0,-4.03 3.27,-7.31 7.31,-7.31zm538.07 -138.97l81.88 12.11c-4.89,4.63 -11.7,16.22 -18,23.1 -5.8,6.34 -15.52,15.59 -23.93,21.76 -13.81,10.15 -39.55,22.14 -52.39,24.41l12.44 -81.38zm-272.94 8.91c-2.46,0.78 -4.9,1.57 -7.32,2.38 -14.28,-0.59 -27.84,-1.01 -40.79,-1.13 7.35,23.57 18.01,47.73 33.99,69.48l35.56 -26.11c-8.71,-11.87 -16.78,-31.19 -21.44,-44.63zm-82.04 1.78c-15.24,0.69 -29.68,2.07 -43.57,4.41 8.05,29.06 19.99,62.17 27.65,74.64l-25.52 16.99 -4.35 -5.93c-10.29,-14.01 -21.06,-45.87 -29.01,-78.47 -14.32,4.31 -28.23,10 -42.05,17.41 4.42,16.27 9.93,33.79 16.85,51.5 -12.78,3.37 -22.2,15.01 -22.2,28.85 0,16.47 13.36,29.83 29.83,29.83 6.65,0 12.8,-2.18 17.76,-5.86 4.67,7.91 9.71,15.62 15.15,23.04l2.9 3.95 97.81 -71.82 -2.91 -3.95c-13.16,-17.93 -25.11,-44.28 -30.65,-61.69 -2.49,-7.8 -5.48,-15.45 -7.69,-22.9zm-71.68 161.77c3.7,0 6.7,3 6.7,6.7 0,3.7 -3,6.7 -6.7,6.7 -3.7,0 -6.7,-3 -6.7,-6.7 0,-3.7 3,-6.7 6.7,-6.7zm-49.93 -101.68c4.37,0 7.92,3.55 7.92,7.92 0,4.37 -3.55,7.92 -7.92,7.92 -4.37,0 -7.92,-3.55 -7.92,-7.92 0,-4.37 3.55,-7.92 7.92,-7.92zm838.7 46.27c5.21,0 9.44,4.23 9.44,9.44 0,5.21 -4.23,9.44 -9.44,9.44 -5.21,0 -9.44,-4.23 -9.44,-9.44 0,-5.21 4.23,-9.44 9.44,-9.44zm-144.3 191.18c3.19,0 5.78,2.59 5.78,5.78 0,3.19 -2.59,5.78 -5.78,5.78 -3.19,0 -5.78,-2.59 -5.78,-5.78 0,-3.19 2.59,-5.78 5.78,-5.78zm-555.58 -20.7c8.07,0 14.61,6.54 14.61,14.61 0,8.07 -6.54,14.61 -14.61,14.61 -8.07,0 -14.61,-6.54 -14.61,-14.61 0,-8.07 6.54,-14.61 14.61,-14.61zm76.72 36.53c6.72,0 12.18,5.45 12.18,12.18 0,6.72 -5.45,12.18 -12.18,12.18 -6.72,0 -12.18,-5.45 -12.18,-12.18 0,-6.72 5.45,-12.18 12.18,-12.18zm627.12 -108.38c5.72,0 10.35,4.64 10.35,10.35 0,5.72 -4.64,10.35 -10.35,10.35 -5.72,0 -10.35,-4.64 -10.35,-10.35 0,-5.72 4.64,-10.35 10.35,-10.35zm47.79 -57.23c15.63,0 28.31,12.68 28.31,28.31 0,15.63 -12.68,28.31 -28.31,28.31 -15.63,0 -28.31,-12.68 -28.31,-28.31 0,-15.63 12.68,-28.31 28.31,-28.31z"/>
   <path id="_129454464" class="fil3" d="M536.69 202.01c0,0 69.47,215.11 327.86,217.55 258.38,2.44 346.75,-219.38 346.75,-219.38 0,0 -288.43,-89.57 -674.61,1.83l-0 0z"/>
   <path id="_129454392" class="fil7" d="M946.47 190.93l81.88 12.11c-4.89,4.63 -11.7,16.22 -18,23.1 -5.8,6.34 -15.52,15.59 -23.93,21.76 -13.81,10.15 -39.55,22.14 -52.39,24.41l12.44 -81.38zm-380.11 70.23c9.82,15.42 22.43,32.54 38.26,49.65l28.12 -20.65 -2.91 -3.95c-13.16,-17.93 -25.11,-44.28 -30.65,-61.69 -2.49,-7.8 -5.48,-15.45 -7.69,-22.9 -15.24,0.69 -29.68,2.07 -43.57,4.41 5.25,18.94 12.15,39.59 18.44,55.13zm63.09 73.88c32.24,28.34 74.45,54.36 128.89,69.84 0.07,-0.96 0.07,-1.54 -0.01,-1.66 -0.6,-0.82 -46.84,-30.17 -54.16,-35.69 -10.51,-7.94 -43.98,-37.91 -52.12,-48.99l-22.61 16.5zm156.59 76.56c14.28,2.88 29.33,5.03 45.14,6.38l36.98 -239.52 32.92 5.52 -35.8 235.57c15.85,0.12 31.07,-0.59 45.66,-2.05 1.71,-9.6 3.13,-16.11 3.83,-16.62 1.14,-0.83 55.59,-12.72 63.67,-15.01 16.7,-4.73 49.7,-18.06 66.96,-30.73l-24.66 -33.59c-3.07,-4.18 -19.65,7.72 -24.31,9.89 -8.75,4.06 -17.03,6.92 -25.21,10.07 -15.42,5.92 -34.23,9.22 -49.1,11.41 -0.13,-2.96 3.89,-31.75 4.99,-32.55 0.09,-0.06 32.45,-8.44 39.43,-11.31 13.76,-5.68 26.97,-11.6 41.06,-21.95l11.86 -8.71c24.75,-18.17 45.16,-47.29 55.17,-68.25l34.2 5.67c-6.59,13.62 -14.82,28.97 -24.15,41.89 -11.66,16.16 -23.56,25.44 -36.75,40.85l26.11 35.56c35.52,-27.32 72.57,-80.8 83.68,-111.25l39.1 6.15c5.49,-9.64 9.32,-17.39 11.65,-22.42 -35.04,-6.3 -73.49,-6.3 -119.51,-4.44 -62.5,-20.87 -136.75,-31.41 -211.03,-31.54l0 -0 -0.22 0 -0.22 -0 0 0c-18.36,0.03 -36.71,0.7 -54.88,2.01l-12.07 81.66c-15.47,-12.95 -29.04,-20.39 -44.14,-40.95 -8.35,-11.37 -13.16,-21.66 -17.2,-31.75 -15.33,2.69 -30.32,5.87 -44.87,9.54 5.37,14.59 12.7,29.52 22.16,42.4l9.43 12.84c17.66,24.06 47.86,45.44 67.44,55.05l-5.32 31.63c-13.84,0.02 -67.8,-40.57 -82.01,-59.91l-36.55 26.84c26.84,34.9 81.18,67.14 111.93,82.03 -1.93,5.33 -3.64,16.45 -5.35,29.62l-0 0zm384.41 -142.38c3.67,-4.92 7.07,-9.71 10.2,-14.33l-2.37 -0.39c-2.18,4.49 -4.81,9.45 -7.84,14.72zm-496.92 -69.38c-2.46,0.78 -4.9,1.57 -7.32,2.38 -14.28,-0.59 -27.84,-1.01 -40.79,-1.13 7.35,23.57 18.01,47.73 33.99,69.48l35.56 -26.11c-8.71,-11.87 -16.78,-31.19 -21.44,-44.63z"/>
   <path id="_129342832" class="fil3" d="M576.23 983.45c-25.83,-167.86 -46.12,-352.39 -59.9,-526.43 1.66,-7.71 3.14,-12.23 4.39,-12.71l76.78 517.99c0,0 210.37,86.82 556.66,-3.41l82.91 -524.31c0,0 0.91,5.98 2.48,16.44 -13.64,173.82 -33.79,358.46 -59.5,526.72 -252.3,78.01 -514.17,27.5 -603.82,5.72l-0 -0z"/>
   <path id="_129342760" class="fil3" d="M643.35 931.04c0,0 99.85,46.27 233.19,48.1 133.34,1.83 253.91,-76.11 253.91,-76.11 0,0 -68.82,101.68 -235.04,108.98 -166.22,7.31 -252.07,-80.98 -252.07,-80.98z"/>
   <path id="_129342688" class="fil1" d="M1188.44 934.49c0,0 -53.58,31.05 -98.03,40.18 0,0 41.4,-1.22 103.51,-17.66l7.92 -17.05 -13.39 -5.48z"/>
   <path id="_129342616" class="fil1" d="M569.1 941.19c0,0 53.58,31.05 98.03,40.18 0,0 -41.4,-1.22 -103.51,-17.66l-7.92 -17.05 13.39 -5.48z"/>
   <path id="_129342544" class="fil5" d="M678.38 835.17c0,0 56.06,-106.04 218.16,-106.04 162.1,0 -182.82,109.69 -218.16,106.04z"/>
   <path id="_129342472" class="fil3" d="M896.53 683.85c0,0 239.4,22.51 317.31,-26.78l-9.74 61.49c0,0 -127.27,23.12 -307.57,-34.71z"/>
   <path id="_129342400" class="fil3" d="M815.82 677.15c0,0 -196.66,15.83 -275.81,-20.09l9.74 61.49c0,0 200.31,-4.26 266.07,-41.4z"/>
   <g>
    <g>
     <path id="_129342328" class="fil3" d="M849.08 863.92c0,0 -32.74,52.53 18.09,77.65 0,0 -19.23,-34.54 8.7,-60.91l-11.91 -9.42 -14.88 -7.32z"/>
     <g>
      <path id="_129342256" class="fil1" d="M846.91 863.3c0,0 16.59,4.77 56.71,59.96 4.41,-36.6 -21.76,-55.57 -56.71,-59.96z"/>
      <path id="_129342184" class="fil1" d="M869.54 873.05c0,0 -33.1,40.72 -1.78,68.33 0,0 -16.02,-27.83 13.28,-58.32l-5.2 -8.28 -6.3 -1.73z"/>
      <path id="_129342112" class="fil4" d="M878.62 900.59c3.73,1.33 4.56,9.06 1.87,17.27 -2.7,8.21 -7.91,13.79 -11.64,12.47 -3.73,-1.33 -4.56,-9.06 -1.87,-17.27 2.7,-8.21 7.91,-13.79 11.64,-12.47z"/>
     </g>
     <path id="_129342016" class="fil3" d="M888.74 912.82c0,0 4.79,18.77 -14.94,26.07 0,0 14.03,2.82 22.13,-4.48 8.1,-7.3 -7.19,-21.58 -7.19,-21.58z"/>
    </g>
    <path id="_129341920" class="fil4" d="M847.48 856.42c0,0 44.5,0 61.93,30.74 0,0 -3.21,-28.44 -17.43,-37.16 -14.22,-8.72 -44.5,6.42 -44.5,6.42z"/>
   </g>
   <g>
    <g>
     <path id="_129341824" class="fil1" d="M1100.44 608.33c21.45,0 38.85,9.04 38.85,20.18 0,11.15 -17.4,20.18 -38.85,20.18 -21.45,0 -38.85,-9.04 -38.85,-20.18 0,-11.14 17.4,-20.18 38.85,-20.18z"/>
     <path id="_129341752" class="fil8" d="M1100.44 617.75c13.57,0 24.57,4.82 24.57,10.76 0,5.95 -11,10.77 -24.57,10.77 -13.56,0 -24.56,-4.82 -24.56,-10.77 0,-5.94 11,-10.76 24.56,-10.76z"/>
    </g>
    <g>
     <path id="_129341656" class="fil1" d="M654.96 608.33c21.45,0 38.85,9.04 38.85,20.18 0,11.15 -17.4,20.18 -38.85,20.18 -21.45,0 -38.85,-9.04 -38.85,-20.18 0,-11.14 17.4,-20.18 38.85,-20.18z"/>
     <path id="_129341584" class="fil8" d="M654.96 617.75c13.57,0 24.57,4.82 24.57,10.76 0,5.95 -11,10.77 -24.57,10.77 -13.56,0 -24.56,-4.82 -24.56,-10.77 0,-5.94 11,-10.76 24.56,-10.76z"/>
    </g>
   </g>
   <path id="_129341464" class="fil1" d="M1221.76 658.89c0,0 -8.33,29.99 -31.66,44.99 0,0 23,-0.67 33.33,-14 10.33,-13.33 -1.67,-30.99 -1.67,-30.99z"/>
   <path id="_129341392" class="fil1" d="M535.12 658.89c0,0 8.33,29.99 31.66,44.99 0,0 -23,-0.67 -33.33,-14 -10.33,-13.33 1.67,-30.99 1.67,-30.99z"/>
   <path id="_128912232" class="fil1" d="M208.43 672.95c-80.74,-9.11 -101.57,79.92 -30.33,109.72l30.33 -109.72z"/>
   <path id="_128810808" class="fil2" d="M178.11 783.13c-26.33,-41.03 -27,-86.39 30.3,-110.82 0,0 16.31,80.48 -30.3,110.82z"/>
   <path id="_128810736" class="fil4" d="M180.85 786.51c-31.88,-40.63 -32.24,-90.8 29.64,-115.4 -24.59,16.45 -44.89,68.61 -28.55,112.05l-1.1 3.35z"/>
   <path id="_128810664" class="fil4" d="M205.22 688.14c7.04,4.38 6.97,17.24 -0.17,28.71 -7.14,11.48 -18.64,17.23 -25.68,12.85 -7.04,-4.38 -6.97,-17.24 0.17,-28.71 7.14,-11.47 18.64,-17.23 25.68,-12.85z"/>
   <path id="_128810592" class="fil2" d="M493.24 1119.1c0,0 -13.07,-27.05 -46.5,-44.06 -33.43,-17.02 23.1,44.67 46.5,44.06z"/>
   <path id="_128810520" class="fil3" d="M252.21 1278.88c1.18,2.36 2.36,4.73 3.57,7.08 0,0 10.04,29.58 73.34,22.26 0,0 -18.4,-32.57 -17.16,-35.38 1.25,-2.82 32.08,32.73 32.08,32.73 0,0 38.95,0.14 70.75,-27.31 0,0 0.13,-44 2.89,-43.9 2.76,0.1 9.48,35.93 9.48,35.93 21.45,-2.85 46.08,-10.67 60.53,-23.48 5.17,-4.58 6.02,-10.76 2.96,-24.74 -1.32,-5.99 -2.92,-13.36 -5.02,-22.4 -120.06,53.94 -196.8,72.72 -233.42,79.2l-0 0z"/>
   <path id="_128810448" class="fil3" d="M263.14 711.22c0,0 0,40.18 -54.19,62.1 0,0 35.92,-1.22 51.14,-15.83 15.22,-14.61 3.04,-46.27 3.04,-46.27z"/>
  </g>
 </g>
</svg>
