<?xml version="1.0" encoding="UTF-8"?>
<!DOCTYPE svg PUBLIC "-//W3C//DTD SVG 1.1//EN" "http://www.w3.org/Graphics/SVG/1.1/DTD/svg11.dtd">
<!-- Creator: CorelDRAW 2020 (64-Bit) -->
<svg xmlns="http://www.w3.org/2000/svg" xml:space="preserve" width="161.908mm" height="176.792mm" version="1.1" style="shape-rendering:geometricPrecision; text-rendering:geometricPrecision; image-rendering:optimizeQuality; fill-rule:evenodd; clip-rule:evenodd"
viewBox="0 0 1496.55 1634.12"
 xmlns:xlink="http://www.w3.org/1999/xlink"
 xmlns:xodm="http://www.corel.com/coreldraw/odm/2003">
 <defs>
  <style type="text/css">
   <![CDATA[
    .fil0 {fill:none}
    .fil1 {fill:#501D33}
    .fil6 {fill:#623448}
    .fil3 {fill:#8E7A5D}
    .fil2 {fill:#C3C077}
    .fil8 {fill:#C99D75}
    .fil5 {fill:#D4D784}
    .fil4 {fill:#EEF698}
    .fil7 {fill:#F3E7B1}
   ]]>
  </style>
 </defs>
 <g id="Слой_x0020_1">
  <metadata id="CorelCorpID_0Corel-Layer"/>
  <g id="_2674554954160">
   <rect class="fil0" y="0" width="1496.55" height="1634.12"/>
   <g id="_130954320">
    <path id="_103813888" class="fil1" d="M1089.62 170.66c154.33,69.25 280.83,336.94 292.1,477.94 12.92,161.53 10.92,259.84 -83.3,457.18 0,0 -21.27,39.74 -91.29,22.7 -32.61,5.27 -61.59,-7.8 -76.58,-29.3 -0.37,-0.52 -39.91,-4.28 -58.69,-22.56 -8.52,-8.29 -13.93,-15.67 -10.87,-30.75 4.01,-19.75 9.93,-43.94 9.93,-43.94 0,0 -34.82,-34.72 -29.12,-49.48 5.7,-14.77 76.91,-76.48 77.03,-77.07 48.86,-224.06 0.95,-415.2 -127.06,-569.58l-102.85 -136.18c51.67,-15.25 145.91,-23.53 200.7,1.05l0 -0z"/>
    <path id="_103813816" class="fil1" d="M470.61 845.9c-27.91,-165.9 -42.31,-445.51 -59.08,-577.03 29.33,-120.78 260.05,-83.74 338.64,-67.41 78.59,-16.34 309.31,-53.37 338.64,67.41 -16.56,129.78 -28.75,406.14 -55.9,572.47 -101.97,32.39 -199.43,43.46 -283.95,43.29 -64.12,-0.13 -212.96,-12.88 -278.36,-38.74l0 0z"/>
    <path id="_103813744" class="fil1" d="M408.9 170.66c-154.33,69.25 -280.83,336.94 -292.1,477.94 -12.92,161.53 -10.92,259.84 83.3,457.18 0,0 21.27,39.74 91.29,22.7 32.61,5.27 61.59,-7.8 76.58,-29.3 0.37,-0.52 39.91,-4.28 58.69,-22.56 8.52,-8.29 13.93,-15.67 10.87,-30.75 -4.01,-19.75 -9.93,-43.94 -9.93,-43.94 0,0 34.82,-34.72 29.12,-49.48 -5.7,-14.77 -76.91,-76.48 -77.03,-77.07 -48.86,-224.06 -0.95,-415.2 127.06,-569.58l102.85 -136.18c-51.67,-15.25 -145.91,-23.53 -200.7,1.05l0 -0z"/>
    <path id="_103813672" class="fil2" d="M424.43 381.07l14.58 -20.18c11.77,157.31 29.93,326.6 53.49,479.67 76.63,18.62 300.44,61.78 516.09,-4.89 23.08,-151.04 40.91,-317.51 52.57,-472.49l12.93 17.9c76.88,135.62 114.13,342.01 59.06,514.8 0,0 -68.15,52.98 -68.98,60.3 -0.83,7.32 18.63,28.81 18.63,28.81 6.05,-10.38 14.31,-29.28 17.73,-25.25 -12.37,43.5 -18,69.42 -21.36,84.78 -4.41,20.11 0.67,21.32 16.9,28.96l35.54 9.39c0,0 7.56,-27.76 9.92,-27.84 2.36,-0.09 2.47,37.52 2.47,37.52 27.18,23.45 60.47,23.33 60.47,23.33 0,0 26.35,-30.37 27.42,-27.97 1.07,2.4 -14.67,30.24 -14.67,30.24 54.1,6.25 62.69,-19.03 62.69,-19.03 70.71,-138.51 99.86,-272.47 80.77,-425.24 -18.97,-151.78 -95.18,-315.75 -201.17,-424.45 -72.81,-74.68 -130.67,-80.62 -228.78,-76.64 -53.42,-17.83 -116.88,-26.85 -180.37,-26.96l0 -0 -0.19 0 -0.19 -0 0 0c-63.56,0.11 -127.11,9.15 -180.57,27.02 -99.11,-4.11 -157.19,1.49 -230.4,76.57 -105.99,108.7 -182.2,272.68 -201.17,424.45 -19.09,152.77 10.06,286.73 80.77,425.24 0,0 8.59,25.28 62.69,19.03 0,0 -15.73,-27.84 -14.67,-30.24 1.07,-2.41 27.42,27.97 27.42,27.97 0,0 33.29,0.12 60.47,-23.33 0,0 0.11,-37.6 2.47,-37.52 2.36,0.09 9.92,27.84 9.92,27.84l35.54 -9.39c16.24,-7.63 21.31,-8.85 16.9,-28.96 -3.37,-15.36 -8.99,-41.28 -21.36,-84.78 3.41,-4.02 11.68,14.87 17.73,25.25 0,0 19.46,-21.49 18.63,-28.81 -0.83,-7.33 -68.98,-60.3 -68.98,-60.3 -55.07,-172.79 -17.82,-379.18 59.06,-514.8l0 -0z"/>
    <path id="_103813600" class="fil3" d="M424.43 381.07l3.76 -5.2c-0.99,-0.56 -1.97,-1.17 -2.96,-1.66 0,0 -264.9,300.46 -10.03,692.71 5.85,-4.09 7.08,-9.13 4.16,-22.41 -3.37,-15.36 -8.99,-41.28 -21.36,-84.78 3.41,-4.02 11.68,14.87 17.73,25.25 0,0 19.46,-21.49 18.63,-28.81 -0.83,-7.33 -68.98,-60.3 -68.98,-60.3 -55.07,-172.79 -17.82,-379.18 59.06,-514.8l0 0z"/>
    <path id="_103813528" class="fil4" d="M399.7 200.49c-19.87,11.52 -39.66,27.35 -60.69,48.92 -105.99,108.7 -182.2,272.68 -201.17,424.45 -19.09,152.77 10.06,286.73 80.77,425.24 0,0 0.73,2.14 3.09,5.01 15.63,-2.18 31.43,-5.73 46.93,-10.13 -1.42,-3.13 -2.29,-5.47 -2.01,-6.1 0.32,-0.71 2.86,1.45 6.28,4.86 30.14,-8.89 58.94,-20.85 82.71,-32.04 0.34,-3.44 0.78,-5.72 1.37,-5.7 0.53,0.02 1.23,1.62 2.02,4.09 31.33,-14.95 53.24,-28.19 56.84,-30.4l-0.03 -0.14c-69.28,23.8 -186.25,35.71 -186.25,35.71 -157.82,-324.66 -48.41,-670.87 170.13,-863.8l0 0z"/>
    <path id="_103813456" class="fil4" d="M1098.82 200.49c19.87,11.52 39.66,27.35 60.69,48.92 105.99,108.7 182.2,272.68 201.17,424.45 19.09,152.77 -10.06,286.73 -80.77,425.24 0,0 -0.73,2.14 -3.09,5.01 -15.63,-2.18 -31.43,-5.73 -46.93,-10.13 1.42,-3.13 2.29,-5.47 2.01,-6.1 -0.32,-0.71 -2.86,1.45 -6.28,4.86 -30.14,-8.89 -58.94,-20.85 -82.71,-32.04 -0.34,-3.44 -0.78,-5.72 -1.37,-5.7 -0.53,0.02 -1.23,1.62 -2.02,4.09 -31.33,-14.95 -53.24,-28.19 -56.84,-30.4l0.03 -0.14c69.28,23.8 186.25,35.71 186.25,35.71 157.82,-324.66 48.41,-670.87 -170.13,-863.8l0 0z"/>
    <path id="_103813384" class="fil3" d="M1074.09 381.07l-3.76 -5.2c0.99,-0.56 -0.11,-0.65 0.88,-1.14 0,0 266.98,299.94 12.11,692.19 -5.85,-4.09 -7.08,-9.13 -4.16,-22.41 3.37,-15.36 8.99,-41.28 21.36,-84.78 -3.41,-4.02 -11.68,14.87 -17.73,25.25 0,0 -19.46,-21.49 -18.63,-28.81 0.83,-7.33 68.98,-60.3 68.98,-60.3 55.07,-172.79 17.82,-379.18 -59.06,-514.8l0 0z"/>
    <path id="_103813312" class="fil1" d="M1320.38 575.17c69.01,-7.79 86.81,68.31 25.92,93.77l-25.92 -93.77z"/>
    <path id="_103813240" class="fil2" d="M1346.29 669.34c22.51,-35.07 23.08,-73.84 -25.9,-94.72 0,0 -13.94,68.78 25.9,94.72z"/>
    <path id="_103813168" class="fil4" d="M1343.95 672.23c27.25,-34.72 27.56,-77.61 -25.34,-98.64 21.02,14.06 38.37,58.64 24.4,95.77l0.94 2.87z"/>
    <path id="_103813096" class="fil4" d="M1323.12 588.15c-6.02,3.74 -5.96,14.73 0.14,24.54 6.1,9.81 15.93,14.73 21.95,10.98 6.02,-3.74 5.95,-14.73 -0.15,-24.54 -6.1,-9.81 -15.93,-14.72 -21.95,-10.98z"/>
    <path id="_103813024" class="fil2" d="M1076.95 956.49c0,0 11.17,-23.12 39.74,-37.66 28.57,-14.55 -19.74,38.18 -39.74,37.66z"/>
    <path id="_103812952" class="fil3" d="M1282.95 1093.06c-1.01,2.02 -2.02,4.04 -3.05,6.05 0,0 -8.59,25.28 -62.68,19.03 0,0 15.73,-27.83 14.66,-30.24 -1.07,-2.41 -27.42,27.98 -27.42,27.98 0,0 -33.29,0.12 -60.47,-23.34 0,0 -0.11,-37.61 -2.47,-37.52 -2.36,0.09 -8.11,30.71 -8.11,30.71 -18.33,-2.44 -39.38,-9.12 -51.74,-20.07 -4.42,-3.92 -5.15,-9.2 -2.53,-21.14 1.12,-5.12 2.5,-11.42 4.29,-19.15 102.62,46.1 168.21,62.15 199.51,67.7z"/>
    <path id="_103812880" class="fil3" d="M1277.28 608.95c0,0 0,34.35 46.31,53.08 0,0 -30.7,-1.04 -43.71,-13.53 -13.01,-12.49 -2.6,-39.55 -2.6,-39.55z"/>
    <path id="_103812808" class="fil2" d="M492.5 840.56c-27.24,-177 -47.26,-375.7 -58.54,-552.48 22.91,-94.35 169.42,-142.01 316.02,-142.27l0 -0 0.19 0 0.19 -0 0 0c146.6,0.26 293.11,47.92 316.02,142.27 -11.17,175.15 -30.93,371.82 -57.79,547.59 -215.64,66.67 -439.46,23.5 -516.09,4.89l0 0z"/>
    <path id="_103812736" class="fil5" d="M739.13 384c0,0 -12.49,146.88 6.26,166.15 14.5,14.91 5.53,-108.46 -0.7,-158.56 -1.83,-14.67 -5.32,-6.89 -5.56,-7.59z"/>
    <path id="_103812664" class="fil3" d="M458.71 172.65c0,0 59.38,183.86 280.22,185.94 220.84,2.08 296.37,-187.51 296.37,-187.51 0,0 -246.52,-76.56 -576.59,1.57l-0 0z"/>
    <path id="_103812592" class="fil3" d="M492.5 840.56c-22.08,-143.47 -39.42,-301.19 -51.2,-449.94 1.42,-6.59 2.68,-10.46 3.75,-10.87 11.62,77.38 27.92,142.79 64.52,204.04 -2.12,6.77 -2.67,19.27 -4.79,26.04 -9.94,84.07 -7.24,150.79 6.42,212.64 0,0 179.28,74.2 475.26,-2.92 12.07,-60.96 7.16,-127.08 -44.7,-207.49 40.76,-14.47 60.19,-34.54 74.83,-63.23 24.4,-47.81 28.08,-114.01 40.73,-177.41 0,0 0.78,5.11 2.12,14.05 -11.66,148.56 -28.88,306.37 -50.85,450.19 -215.64,66.67 -439.46,23.5 -516.09,4.89l0 0z"/>
    <path id="_103812520" class="fil3" d="M549.87 795.76c0,0 85.34,39.55 199.31,41.11 113.96,1.56 217.02,-65.05 217.02,-65.05 0,0 -58.82,86.9 -200.89,93.15 -142.07,6.24 -215.44,-69.21 -215.44,-69.21z"/>
    <path id="_103812448" class="fil1" d="M1015.76 798.71c0,0 -45.79,26.54 -83.78,34.35 0,0 35.39,-1.04 88.47,-15.09l6.77 -14.57 -11.45 -4.68z"/>
    <path id="_103812376" class="fil1" d="M486.41 804.44c0,0 45.79,26.54 83.78,34.35 0,0 -35.39,-1.04 -88.47,-15.09l-6.77 -14.57 11.45 -4.68z"/>
    <path id="_103812304" class="fil5" d="M579.81 713.82c0,0 47.92,-90.63 186.47,-90.63 138.55,0 -156.26,93.75 -186.47,90.63z"/>
    <path id="_103812232" class="fil3" d="M825.14 569.73c-11.44,0 -20.72,9.28 -20.72,20.72 0,1.62 0.19,3.2 0.54,4.71 -2.85,-1.78 -6.21,-2.82 -9.82,-2.82 -8.5,0 -15.66,5.73 -17.83,13.54 -5.69,-6.8 -14.24,-11.13 -23.79,-11.13 -8.02,0 -15.32,3.04 -20.83,8.04 -3,-6.18 -9.33,-10.45 -16.67,-10.45 -3.61,0 -6.97,1.03 -9.81,2.82 0.35,-1.51 0.54,-3.09 0.54,-4.71 0,-11.44 -9.28,-20.72 -20.72,-20.72 -2.92,0 -5.71,0.61 -8.23,1.7 1.61,-2.99 2.52,-6.41 2.52,-10.04 0,-11.71 -9.5,-21.21 -21.21,-21.21 -3.88,0 -7.51,1.04 -10.64,2.86 7.06,-25.71 -13.99,-44.56 -34.23,-44.83 3.4,-4.17 5.44,-9.5 5.44,-15.3 0,-9.5 -5.46,-17.71 -13.42,-21.68 10.97,-3.69 21.93,-7.35 32.91,-10.91 8.64,13.17 33.05,18.28 42.3,2.49 8.04,-13.72 -4.31,-27.28 -16.86,-29.31 13.62,-34.7 -37.26,-41.83 -34.75,-2.36l-47.79 15.49c0.88,-2.35 1.36,-4.91 1.36,-7.57 0,-11.93 -9.68,-21.61 -21.61,-21.61 -0.47,0 -0.94,0.02 -1.4,0.05 3.76,-3.89 6.08,-9.19 6.08,-15.02 0,-9.18 -5.72,-17.01 -13.79,-20.15 10.85,-16.73 2.73,-42.85 -18.14,-45.3 0,0 -0.22,-0.02 -0.61,-0.05 -0.9,-3.34 -2.75,-6.47 -5.52,-8.95 -2.69,-2.41 -5.88,-3.88 -9.19,-4.45 1.27,-0.89 2.46,-1.94 3.55,-3.15 7.64,-8.52 6.92,-21.63 -1.6,-29.26 -2.18,-1.95 -4.65,-3.35 -7.26,-4.22 3.19,-1.15 6.16,-3.09 8.58,-5.8 7.82,-8.72 7.08,-22.14 -1.64,-29.96 -2.89,-2.59 -6.29,-4.24 -9.83,-4.97 31.89,-20.54 12.15,-68.7 -19.74,-63.81 0,0 -75.62,12.76 -80.42,107.01 -0.56,11.09 2.09,20.97 12.14,8.43 10.93,-13.64 32.98,-34.82 68.01,-45.14l-0.11 0.12c-7.82,8.72 -7.08,22.14 1.64,29.96 2.27,2.04 4.87,3.5 7.6,4.38 -3.06,1.13 -5.9,3 -8.23,5.6 -7.64,8.52 -6.92,21.63 1.6,29.26 3.27,2.93 7.21,4.63 11.25,5.13 -0.88,0.68 -1.71,1.45 -2.48,2.3 -3.62,4.04 -5.14,9.24 -4.63,14.24 -19.35,8.13 -41.58,25.73 -54.12,63.6 -3,9.05 -3.06,17.84 8.13,9.75 12.95,-9.37 38.3,-22.95 72.83,-21.82 -0.81,2.27 -1.25,4.7 -1.25,7.24 0,11.93 9.68,21.61 21.61,21.61 0.47,0 0.94,-0.01 1.41,-0.05 -3.76,3.89 -6.08,9.19 -6.08,15.03 0,7.51 3.84,14.13 9.66,18.01l-22.87 7.41c-20.91,-33.57 -57.16,1.86 -25.9,22.17 -9.04,8.94 -9.34,24.63 5.16,31.16 14.49,6.53 33.4,-8.58 32.77,-24.34 11.57,-3.66 23.14,-7.46 34.72,-11.33 -1.61,3.24 -2.52,6.89 -2.52,10.76 0,12.45 9.4,22.71 21.48,24.07 -0.52,0.54 -1.04,1.11 -1.53,1.71 0,0 -47.8,59.98 11.53,133.36 6.98,8.64 15.55,14.22 14.67,-1.82 -0.96,-17.45 1.32,-47.94 20.52,-79l-0 0.17c0,11.71 9.5,21.21 21.21,21.21 3.06,0 5.96,-0.65 8.59,-1.81 -1.52,2.88 -2.39,6.17 -2.39,9.66 0,11.44 9.28,20.72 20.72,20.72 4.39,0 8.45,-1.37 11.8,-3.69 -0.2,1.09 -0.31,2.22 -0.31,3.37 0,10.22 8.29,18.5 18.5,18.5 2.32,0 4.54,-0.43 6.59,-1.21 1.23,15.99 14.59,28.6 30.9,28.6 17.03,0 30.86,-13.75 30.99,-30.75 3.01,2.12 6.67,3.36 10.63,3.36 10.22,0 18.5,-8.29 18.5,-18.5 0,-1.15 -0.1,-2.28 -0.3,-3.37 3.35,2.33 7.41,3.69 11.8,3.69 11.44,0 20.72,-9.28 20.72,-20.72 0,-3.49 -0.87,-6.78 -2.39,-9.66 2.63,1.16 5.53,1.81 8.59,1.81 11.71,0 21.21,-9.5 21.21,-21.21l-0 -0.17c19.2,31.06 21.48,61.55 20.52,79 -0.89,16.04 7.68,10.46 14.67,1.82 59.32,-73.38 11.53,-133.36 11.53,-133.36 -0.49,-0.6 -1.01,-1.16 -1.53,-1.71 12.09,-1.36 21.48,-11.62 21.48,-24.07 0,-4.92 -1.47,-9.5 -4,-13.32 10.65,1.27 21.29,2.5 31.89,3.59 2.13,12.84 19.93,21.89 30.56,14.2 10.64,-7.71 7.77,-20.34 -1.03,-26.06 21.89,-21.63 -13.34,-44.24 -24.64,-13.61l-10.67 -1.18c5.4,-3.93 8.91,-10.3 8.91,-17.48 0,-5.84 -2.32,-11.14 -6.08,-15.03 0.47,0.03 0.94,0.05 1.41,0.05 11.93,0 21.61,-9.68 21.61,-21.61 0,-2.54 -0.44,-4.98 -1.25,-7.24 34.53,-1.14 48.19,3.62 61.14,12.99 11.18,8.09 11.12,-0.7 8.13,-9.75 -14.61,-44.15 -30.73,-51.93 -51.77,-58.08 -0.26,-3.36 -1.43,-6.7 -3.59,-9.61 -0.69,-0.92 -1.44,-1.76 -2.26,-2.52 4.08,-0.13 8.16,-1.46 11.68,-4.08 9.18,-6.82 11.1,-19.8 4.28,-28.99 -2.08,-2.8 -4.74,-4.92 -7.68,-6.33 2.8,-0.63 5.52,-1.84 7.98,-3.66 9.41,-6.99 11.37,-20.28 4.38,-29.68l-0.1 -0.13c33.94,13.49 53.94,36.6 63.58,51.19 8.85,13.41 12.4,3.82 12.86,-7.28 3.87,-94.28 -70.26,-113.94 -70.26,-113.94 -31.3,-7.79 -55.38,38.36 -25.51,61.73 -3.59,0.41 -7.13,1.73 -10.25,4.05 -9.41,6.99 -11.37,20.27 -4.38,29.68 2.17,2.92 4.94,5.12 8.02,6.56 -2.68,0.63 -5.28,1.8 -7.63,3.54 -9.18,6.82 -11.1,19.8 -4.28,28.99 0.97,1.3 2.06,2.46 3.24,3.47 -3.35,0.26 -6.67,1.44 -9.56,3.59 -4.38,3.25 -6.91,8.08 -7.39,13.11 -13.72,7.84 -17.86,28.31 -8.82,42.26 -8.07,3.14 -13.79,10.97 -13.79,20.15 0,5.84 2.32,11.14 6.08,15.02 -0.46,-0.03 -0.93,-0.05 -1.41,-0.05 -11.93,0 -21.61,9.68 -21.61,21.61 0,5.48 2.04,10.49 5.4,14.3l-49.14 -5.42c-4.56,-32.33 -44.52,-18.08 -27.71,7.7 -9.82,3.73 -17.54,16.76 -8.74,26.51 10.12,11.22 28.99,3.01 33.78,-9.07 5.97,0.66 11.94,1.36 17.91,2.07 -4.77,4.42 -7.76,10.74 -7.76,17.76 0,5.8 2.04,11.13 5.44,15.3 -20.25,0.28 -41.29,19.13 -34.23,44.83 -3.13,-1.82 -6.76,-2.86 -10.64,-2.86 -11.72,0 -21.21,9.5 -21.21,21.21 0,3.63 0.91,7.05 2.52,10.04 -2.52,-1.09 -5.3,-1.7 -8.23,-1.7z"/>
    <path id="_103812160" class="fil3" d="M766.27 584.48c0,0 204.61,19.24 271.21,-22.89l-8.33 52.56c0,0 -108.78,19.76 -262.88,-29.67z"/>
    <path id="_103812088" class="fil3" d="M697.28 578.76c0,0 -168.09,13.53 -235.74,-17.17l8.33 52.56c0,0 171.21,-3.64 227.41,-35.39z"/>
    <g>
     <g>
      <path id="_103812016" class="fil3" d="M725.71 738.39c0,0 -27.99,44.9 15.46,66.37 0,0 -16.44,-29.52 7.44,-52.06l-10.18 -8.05 -12.72 -6.26z"/>
      <g>
       <path id="_103727584" class="fil1" d="M723.85 737.86c0,0 14.18,4.08 48.47,51.25 3.77,-31.28 -18.6,-47.5 -48.47,-51.25z"/>
       <path id="_103727512" class="fil1" d="M743.2 746.2c0,0 -28.29,34.8 -1.52,58.4 0,0 -13.69,-23.78 11.35,-49.84l-4.45 -7.08 -5.39 -1.48z"/>
       <path id="_103727440" class="fil4" d="M750.96 769.73c3.19,1.13 3.9,7.74 1.59,14.76 -2.31,7.02 -6.76,11.79 -9.95,10.66 -3.19,-1.13 -3.9,-7.74 -1.6,-14.76 2.31,-7.02 6.76,-11.79 9.95,-10.66z"/>
      </g>
      <path id="_103727344" class="fil3" d="M759.61 780.19c0,0 4.09,16.04 -12.77,22.28 0,0 11.99,2.41 18.92,-3.83 6.92,-6.24 -6.14,-18.45 -6.14,-18.45z"/>
     </g>
     <path id="_103727248" class="fil4" d="M724.35 731.98c0,0 38.03,0 52.93,26.27 0,0 -2.75,-24.31 -14.9,-31.76 -12.16,-7.45 -38.03,5.49 -38.03,5.49z"/>
    </g>
    <g>
     <g>
      <path id="_103727152" class="fil1" d="M940.55 519.94c18.34,0 33.2,7.72 33.2,17.25 0,9.53 -14.87,17.25 -33.2,17.25 -18.33,0 -33.2,-7.72 -33.2,-17.25 0,-9.53 14.87,-17.25 33.2,-17.25z"/>
      <path id="_103727080" class="fil6" d="M940.55 527.99c11.59,0 21,4.12 21,9.2 0,5.08 -9.4,9.2 -21,9.2 -11.59,0 -20.99,-4.12 -20.99,-9.2 0,-5.08 9.4,-9.2 20.99,-9.2z"/>
     </g>
     <g>
      <path id="_103726984" class="fil1" d="M559.79 519.94c18.34,0 33.2,7.72 33.2,17.25 0,9.53 -14.87,17.25 -33.2,17.25 -18.33,0 -33.2,-7.72 -33.2,-17.25 0,-9.53 14.87,-17.25 33.2,-17.25z"/>
      <path id="_103726912" class="fil6" d="M559.79 527.99c11.59,0 21,4.12 21,9.2 0,5.08 -9.4,9.2 -21,9.2 -11.59,0 -20.99,-4.12 -20.99,-9.2 0,-5.08 9.4,-9.2 20.99,-9.2z"/>
     </g>
    </g>
    <path id="_103726792" class="fil1" d="M1044.24 563.16c0,0 -7.12,25.64 -27.06,38.45 0,0 19.65,-0.57 28.48,-11.96 8.83,-11.39 -1.42,-26.49 -1.42,-26.49z"/>
    <path id="_103726720" class="fil1" d="M457.36 563.16c0,0 7.12,25.64 27.06,38.45 0,0 -19.65,-0.57 -28.48,-11.96 -8.83,-11.39 1.42,-26.49 1.42,-26.49z"/>
    <g>
     <path id="_103726648" class="fil5" d="M1161.16 512.73l82.42 -52.48c0,0 28.92,18.97 67.33,26.79 -3.13,-7.71 -6.38,-15.38 -9.74,-23.01l-63.51 -39.86c0,0 -52.54,47.69 -76.51,88.55z"/>
     <path id="_103726576" class="fil3" d="M1144.57 360.7c0,0 31.76,33.86 75.88,67.38 -25.31,25.39 -48.1,54.34 -59.57,84.11 0,0 62.46,-51.27 81.23,-68.44 20.78,14.24 43.34,27.38 66.06,36.58 -4.27,-10.27 -8.76,-20.46 -13.45,-30.56 -12.8,-9.89 -24.65,-18.88 -31.26,-23.5 -0.84,-0.58 -1.83,-1.24 -2.94,-1.95 4.24,-4.75 8.88,-10.05 13.7,-15.6 -3.47,-6.48 -7.02,-12.91 -10.65,-19.27 -8.31,6.73 -16.87,14 -25.38,21.73 -35.98,-20.24 -93.15,-49.98 -93.63,-50.47z"/>
    </g>
    <path id="_103726480" class="fil1" d="M178.14 575.17c-69.01,-7.79 -86.81,68.31 -25.92,93.77l25.92 -93.77z"/>
    <path id="_103726408" class="fil2" d="M152.23 669.34c-22.51,-35.07 -23.08,-73.84 25.9,-94.72 0,0 13.94,68.78 -25.9,94.72z"/>
    <path id="_103726336" class="fil4" d="M154.57 672.23c-27.25,-34.72 -27.56,-77.61 25.34,-98.64 -21.02,14.06 -38.37,58.64 -24.4,95.77l-0.94 2.87z"/>
    <path id="_103726264" class="fil4" d="M175.4 588.15c6.02,3.74 5.96,14.73 -0.14,24.54 -6.1,9.81 -15.93,14.73 -21.95,10.98 -6.02,-3.74 -5.95,-14.73 0.15,-24.54 6.1,-9.81 15.93,-14.72 21.95,-10.98z"/>
    <path id="_103726192" class="fil2" d="M421.57 956.49c0,0 -11.17,-23.12 -39.74,-37.66 -28.57,-14.55 19.74,38.18 39.74,37.66z"/>
    <path id="_103726120" class="fil3" d="M215.56 1093.06c1.01,2.02 2.02,4.04 3.05,6.05 0,0 8.59,25.28 62.68,19.03 0,0 -15.73,-27.83 -14.66,-30.24 1.07,-2.41 27.42,27.98 27.42,27.98 0,0 33.29,0.12 60.47,-23.34 0,0 0.11,-37.61 2.47,-37.52 2.36,0.09 8.11,30.71 8.11,30.71 18.33,-2.44 39.38,-9.12 51.74,-20.07 4.42,-3.92 5.15,-9.2 2.53,-21.14 -1.12,-5.12 -2.5,-11.42 -4.29,-19.15 -102.62,46.1 -168.21,62.15 -199.51,67.7z"/>
    <path id="_103726048" class="fil3" d="M224.91 607.88c0,0 0,34.35 -46.31,53.08 0,0 30.7,-1.04 43.71,-13.53 13.01,-12.49 2.6,-39.55 2.6,-39.55z"/>
    <g>
     <circle id="_103725976" class="fil1" transform="matrix(-0.908337 0.674566 0.674566 0.908337 1001.91 238.85)" r="18.75"/>
     <circle id="_103725904" class="fil1" transform="matrix(-0.792284 0.588381 0.588381 0.792284 985.712 312.5)" r="18.75"/>
     <g>
      <path id="_103725832" class="fil1" d="M1025.03 156.04c0,0 74.13,19.65 70.25,113.94 -0.46,11.09 -4,20.69 -12.86,7.28 -10.9,-16.51 -35.09,-43.95 -77.73,-55.98 -37.57,-21.86 -12.62,-73.44 20.33,-65.23z"/>
      <path id="_103725760" class="fil7" d="M1018.66 167.26c0,0 63.41,17.06 66.97,96.29 0,0 -24.73,-44.09 -78.82,-54.99 -13.9,-11.93 -8.95,-42.66 11.85,-41.3z"/>
      <path id="_103725688" class="fil8" d="M1083.39 255.71c0.03,0.56 0.07,1.12 0.1,1.68 0,0 -23.34,-41.61 -74.38,-51.9 -5.49,-4.71 -7.86,-12.54 -7.33,-19.95 19,4.81 58.6,20.51 81.61,70.16z"/>
     </g>
     <g>
      <circle id="_103725592" class="fil1" transform="matrix(-0.895841 0.665287 0.665287 0.895841 997.632 278.234)" r="18.57"/>
      <circle id="_103725520" class="fil7" transform="matrix(-0.55756 0.414066 0.414066 0.55756 997.632 278.235)" r="18.57"/>
      <path id="_103725448" class="fil8" d="M989.35 272.16c-2.59,3.54 -2.71,8.49 0.04,12.2 3.38,4.55 9.82,5.5 14.37,2.12 3.17,-2.36 4.59,-6.2 4.02,-9.85 -0.59,0.81 -1.31,1.55 -2.16,2.18 -4.55,3.38 -10.99,2.43 -14.37,-2.12 -1.02,-1.38 -1.65,-2.93 -1.9,-4.52z"/>
     </g>
     <circle id="_103725352" class="fil1" transform="matrix(0.842575 0.755104 -0.755104 0.842575 506.698 237.674)" r="18.75"/>
     <circle id="_103725280" class="fil1" transform="matrix(0.734925 0.658629 -0.658629 0.734925 516.07 312.5)" r="18.75"/>
     <g>
      <path id="_103725208" class="fil1" d="M491.28 153.09c0,0 -75.62,12.77 -80.42,107.01 -0.56,11.09 2.09,20.97 12.14,8.43 12.37,-15.44 38.98,-40.54 82.54,-48.61 39.42,-18.32 19.31,-71.97 -14.26,-66.83z"/>
      <path id="_103725136" class="fil7" d="M496.6 164.85c0,0 -64.71,11.16 -75.52,89.73 0,0 28.67,-41.64 83.54,-47.52 14.93,-10.6 12.83,-41.66 -8.01,-42.21z"/>
      <path id="_103725064" class="fil8" d="M424.02 246.98c-0.08,0.56 -0.17,1.1 -0.25,1.67 0,0 27.06,-39.3 78.83,-44.85 5.9,-4.19 8.98,-11.77 9.13,-19.19 -19.36,3.04 -60.23,15.04 -87.71,62.37z"/>
     </g>
     <g>
      <circle id="_103724968" class="fil1" transform="matrix(0.830984 0.744716 -0.744716 0.830984 507.345 277.285)" r="18.57"/>
      <circle id="_103724896" class="fil7" transform="matrix(0.517194 0.463502 -0.463502 0.517194 507.345 277.285)" r="18.57"/>
      <path id="_103724824" class="fil8" d="M516.16 272c2.25,3.76 1.92,8.71 -1.16,12.14 -3.79,4.22 -10.28,4.58 -14.5,0.79 -2.94,-2.64 -4,-6.59 -3.1,-10.18 0.52,0.86 1.17,1.66 1.95,2.37 4.22,3.79 10.72,3.43 14.5,-0.79 1.15,-1.28 1.91,-2.77 2.31,-4.33z"/>
     </g>
     <g>
      <path id="_103724728" class="fil1" d="M526.99 435.17c-20.91,-33.57 -57.16,1.87 -25.89,22.17 -9.04,8.94 -9.35,24.63 5.16,31.16 14.49,6.52 33.4,-8.58 32.77,-24.33 33.34,-10.55 66.71,-22.31 100.14,-33.17 8.64,13.17 33.04,18.28 42.3,2.49 8.04,-13.72 -4.31,-27.28 -16.87,-29.31 13.63,-34.7 -37.26,-41.82 -34.75,-2.35l-102.86 33.34z"/>
      <path id="_103724656" class="fil7" d="M521.58 448.98c0,0 -8.19,-23.99 -17.62,-17.77 -9.43,6.22 0.9,18.47 15.88,27.43 -1.22,1.12 -6.52,1.61 -9.4,1.17 -15.26,16.65 -2.16,26.28 7.95,19.52 7.75,-5.18 9.68,-13.9 9.98,-22.61l49.17 -15.93 65.88 -20.91c5.31,6.91 11.95,12.89 21.25,12.59 12.18,-0.39 17.22,-15.85 -4.87,-20.51 -2.08,2.03 -6.69,4.71 -8.33,4.51 6.97,-16 8.25,-31.97 -3.04,-31.55 -11.29,0.43 -4,24.71 -4,24.71 -40.43,12.76 -82.4,26.16 -122.85,39.33z"/>
      <path id="_103724584" class="fil8" d="M526.19 457.5c0,0 0.98,10.55 -6.28,17.87 -7.26,7.32 -14.28,1.32 -14.28,1.32 0,0 9.89,-1.59 20.56,-19.19z"/>
      <path id="_103724512" class="fil8" d="M645.63 419.25c0,0 5.34,9.16 15.51,10.89 10.17,1.73 12.38,-7.23 12.38,-7.23 0,0 -8.97,4.46 -27.89,-3.65z"/>
     </g>
     <circle id="_103724416" class="fil1" cx="561.81" cy="409.75" r="21.61"/>
     <circle id="_103724344" class="fil1" cx="544.87" cy="373.16" r="21.61"/>
     <circle id="_103724272" class="fil1" cx="659.11" cy="542.08" r="21.21"/>
     <circle id="_103724200" class="fil1" cx="716.03" cy="591.55" r="18.5"/>
     <g>
      <path id="_103724128" class="fil1" d="M591.18 489.38c0,0 -47.8,59.98 11.53,133.36 6.98,8.63 15.55,14.22 14.67,-1.82 -1.09,-19.75 1.97,-56.2 29.02,-91.29 17.13,-39.95 -33.65,-66.48 -55.22,-40.25z"/>
      <path id="_103724056" class="fil7" d="M602.98 494.6c0,0 -40.74,51.5 3.64,117.23 0,0 -6.44,-50.14 30.49,-91.14 4.05,-17.86 -18.25,-39.59 -34.14,-26.09z"/>
      <path id="_103723984" class="fil8" d="M603.74 604.2c0.31,0.47 0.61,0.94 0.93,1.41 0,0 -6.07,-47.32 28.78,-86.01 1.6,-7.06 -1.16,-14.76 -6.01,-20.38 -12.39,15.19 -34.82,51.4 -23.69,104.99z"/>
     </g>
     <g>
      <path id="_103723888" class="fil1" d="M534.55 307.72c0,0 -65.53,-6.68 -91,70.27 -3,9.06 -3.05,17.84 8.13,9.75 13.77,-9.96 41.53,-24.68 79.44,-21.43 36.82,-6.18 32.4,-55.19 3.43,-58.59z"/>
      <path id="_103723816" class="fil7" d="M536.26 318.67c0,0 -56.13,-5.52 -83.01,57.08 0,0 33.24,-27.94 80.02,-20.3 14.78,-5.37 20.13,-31.57 2.99,-36.78z"/>
      <path id="_103723744" class="fil8" d="M457.43 370.12c-0.2,0.44 -0.4,0.87 -0.59,1.32 0,0 31.37,-26.37 75.51,-19.16 5.84,-2.12 10.12,-7.69 11.94,-13.81 -16.73,-1.9 -53.31,-1.28 -86.86,31.65z"/>
     </g>
     <g>
      <circle id="_103723648" class="fil1" cx="595.45" cy="463.6" r="24.22"/>
      <circle id="_103656544" class="fil7" cx="595.45" cy="463.6" r="15.08"/>
      <path id="_103656472" class="fil8" d="M599 452.13c4.9,1.51 8.46,6.08 8.46,11.47 0,6.63 -5.38,12.01 -12.01,12.01 -4.62,0 -8.63,-2.61 -10.64,-6.44 1.12,0.35 2.31,0.54 3.55,0.54 6.63,0 12.01,-5.38 12.01,-12.01 0,-2.01 -0.5,-3.9 -1.37,-5.57z"/>
     </g>
     <g>
      <circle id="_103656376" class="fil1" cx="686.02" cy="571.15" r="20.72"/>
      <circle id="_103656304" class="fil7" cx="686.02" cy="571.15" r="12.9"/>
      <path id="_103656232" class="fil8" d="M689.06 561.34c4.19,1.3 7.24,5.2 7.24,9.82 0,5.67 -4.6,10.27 -10.27,10.27 -3.95,0 -7.38,-2.24 -9.1,-5.51 0.96,0.3 1.98,0.46 3.03,0.46 5.67,0 10.27,-4.6 10.27,-10.27 0,-1.72 -0.43,-3.34 -1.17,-4.76z"/>
     </g>
     <g>
      <g>
       <path id="_103656136" class="fil1" d="M972.73 428.42c11.3,-30.63 46.52,-8.03 24.63,13.61 8.8,5.72 11.67,18.35 1.03,26.06 -10.62,7.69 -28.43,-1.36 -30.56,-14.2 -28.72,-2.96 -57.66,-6.9 -86.5,-10.1 -4.79,12.09 -23.66,20.29 -33.78,9.07 -8.79,-9.75 -1.07,-22.78 8.74,-26.51 -16.81,-25.78 23.14,-40.03 27.7,-7.7l88.72 9.78z"/>
       <path id="_103656064" class="fil7" d="M979.41 438.67c0,0 2.62,-20.77 11.28,-17.31 8.66,3.46 2.36,15.08 -8.26,24.83 1.17,0.7 5.54,0.22 7.79,-0.62 15.12,10.91 6.14,20.89 -3.17,17.11 -7.13,-2.89 -10.15,-9.62 -11.84,-16.61l-42.41 -4.67 -56.76 -5.91c-3.14,6.47 -7.51,12.41 -15.08,13.73 -9.91,1.72 -16.56,-9.94 0.52,-17.4 2.02,1.29 6.2,2.69 7.49,2.25 -8.31,-11.77 -12.01,-24.47 -2.81,-26.02 9.2,-1.54 7.36,19.31 7.36,19.31 34.82,3.57 70.99,7.4 105.89,11.3z"/>
       <path id="_103655992" class="fil8" d="M977.11 446.33c0,0 0.97,8.7 8.06,13.4 7.09,4.71 11.77,-1.32 11.77,-1.32 0,0 -8.27,0.37 -19.83,-12.08z"/>
       <path id="_103655920" class="fil8" d="M874.15 435.35c0,0 -2.79,8.29 -10.72,11.39 -7.93,3.1 -11.22,-3.78 -11.22,-3.78 0,0 8,2.11 21.94,-7.61z"/>
      </g>
      <circle id="_103655824" class="fil1" cx="949.36" cy="409.75" r="21.61"/>
      <circle id="_103655752" class="fil1" cx="966.3" cy="373.16" r="21.61"/>
      <circle id="_103655680" class="fil1" cx="852.06" cy="542.08" r="21.21"/>
      <circle id="_103655608" class="fil1" cx="795.14" cy="591.55" r="18.5"/>
      <g>
       <path id="_103655536" class="fil1" d="M919.99 489.38c0,0 47.8,59.98 -11.53,133.36 -6.98,8.63 -15.55,14.22 -14.67,-1.82 1.09,-19.75 -1.97,-56.2 -29.02,-91.29 -17.13,-39.95 33.65,-66.48 55.22,-40.25z"/>
       <path id="_103655464" class="fil7" d="M908.18 494.6c0,0 40.74,51.5 -3.64,117.23 0,0 6.44,-50.14 -30.49,-91.14 -4.05,-17.86 18.25,-39.59 34.14,-26.09z"/>
       <path id="_103655392" class="fil8" d="M907.42 604.2c-0.31,0.47 -0.61,0.94 -0.93,1.41 0,0 6.08,-47.32 -28.78,-86.01 -1.6,-7.06 1.16,-14.76 6.01,-20.38 12.39,15.19 34.82,51.4 23.69,104.99z"/>
      </g>
      <g>
       <path id="_103655296" class="fil1" d="M976.62 307.72c0,0 65.53,-6.68 91,70.27 3,9.06 3.05,17.84 -8.13,9.75 -13.77,-9.96 -41.53,-24.68 -79.44,-21.43 -36.82,-6.18 -32.4,-55.19 -3.43,-58.59z"/>
       <path id="_103655224" class="fil7" d="M974.9 318.67c0,0 56.13,-5.52 83.01,57.08 0,0 -33.24,-27.94 -80.01,-20.3 -14.79,-5.37 -20.13,-31.57 -2.99,-36.78z"/>
       <path id="_103655152" class="fil8" d="M1053.74 370.12c0.2,0.44 0.4,0.87 0.59,1.32 0,0 -31.37,-26.37 -75.51,-19.16 -5.84,-2.12 -10.12,-7.69 -11.94,-13.81 16.73,-1.9 53.31,-1.28 86.86,31.65z"/>
      </g>
      <g>
       <circle id="_103655056" class="fil1" cx="915.72" cy="463.6" r="24.22"/>
       <circle id="_103654984" class="fil7" cx="915.72" cy="463.6" r="15.08"/>
       <path id="_103654912" class="fil8" d="M912.17 452.13c-4.9,1.51 -8.46,6.08 -8.46,11.47 0,6.63 5.38,12.01 12.01,12.01 4.62,0 8.63,-2.61 10.64,-6.44 -1.12,0.35 -2.31,0.54 -3.55,0.54 -6.63,0 -12.01,-5.38 -12.01,-12.01 0,-2.01 0.5,-3.9 1.37,-5.57z"/>
      </g>
      <g>
       <circle id="_103654816" class="fil1" cx="825.14" cy="571.15" r="20.72"/>
       <circle id="_103654744" class="fil7" cx="825.14" cy="571.15" r="12.9"/>
       <path id="_103654672" class="fil8" d="M822.11 561.34c-4.19,1.3 -7.24,5.2 -7.24,9.82 0,5.67 4.6,10.27 10.27,10.27 3.95,0 7.38,-2.24 9.1,-5.51 -0.96,0.3 -1.98,0.46 -3.03,0.46 -5.67,0 -10.27,-4.6 -10.27,-10.27 0,-1.72 0.43,-3.34 1.17,-4.76z"/>
      </g>
     </g>
     <g>
      <circle id="_103654552" class="fil1" cx="753.52" cy="606.45" r="30.99"/>
      <circle id="_103654480" class="fil7" cx="753.52" cy="606.45" r="20.87"/>
      <path id="_103654408" class="fil8" d="M758.06 591.77c6.27,1.94 10.82,7.78 10.82,14.68 0,8.48 -6.88,15.36 -15.36,15.36 -5.91,0 -11.04,-3.35 -13.61,-8.24 1.44,0.44 2.96,0.68 4.54,0.68 8.48,0 15.36,-6.88 15.36,-15.36 0,-2.57 -0.64,-4.99 -1.75,-7.12z"/>
     </g>
    </g>
    <path id="_103654288" class="fil1" d="M1319.84 741.99c3.65,2.67 4.45,7.78 1.78,11.43 -2.66,3.65 -7.78,4.44 -11.43,1.78 -3.65,-2.66 -4.44,-7.78 -1.78,-11.43 2.66,-3.65 7.78,-4.44 11.42,-1.78zm-65.35 91.87c-1,2.83 0.49,5.93 3.32,6.92 2.83,0.99 5.93,-0.49 6.92,-3.32 1,-2.83 -0.49,-5.93 -3.32,-6.92 -2.83,-1 -5.93,0.49 -6.92,3.32zm52.11 -13.62c-0.66,1.89 0.33,3.95 2.21,4.62 1.88,0.66 3.95,-0.33 4.61,-2.21 0.66,-1.89 -0.33,-3.95 -2.21,-4.62 -1.88,-0.66 -3.95,0.33 -4.62,2.21zm-9.93 78.2c-0.66,1.89 0.33,3.95 2.21,4.62 1.88,0.66 3.95,-0.33 4.61,-2.21 0.67,-1.89 -0.33,-3.95 -2.21,-4.61 -1.88,-0.66 -3.95,0.33 -4.61,2.21zm24.6 -25.09c-0.83,2.35 0.41,4.94 2.76,5.77 2.35,0.83 4.94,-0.41 5.77,-2.76 0.83,-2.35 -0.41,-4.94 -2.76,-5.77 -2.35,-0.83 -4.94,0.41 -5.77,2.76zm-84.32 33.92c-1.16,3.3 0.57,6.91 3.87,8.08 3.3,1.16 6.91,-0.57 8.08,-3.87 1.16,-3.3 -0.57,-6.91 -3.87,-8.07 -3.3,-1.16 -6.91,0.57 -8.07,3.87zm23.2 -219.83c3.13,2.28 3.81,6.67 1.53,9.79 -2.28,3.13 -6.67,3.81 -9.79,1.53 -3.12,-2.28 -3.81,-6.67 -1.53,-9.79 2.28,-3.13 6.67,-3.81 9.79,-1.53zm-65.43 23.57c2.08,1.52 2.54,4.45 1.02,6.53 -1.52,2.08 -4.45,2.54 -6.53,1.02 -2.08,-1.52 -2.54,-4.45 -1.02,-6.53 1.52,-2.08 4.45,-2.54 6.53,-1.02zm72.49 67.37c2.08,1.52 2.54,4.45 1.02,6.53 -1.52,2.08 -4.45,2.54 -6.53,1.02 -2.08,-1.52 -2.54,-4.45 -1.02,-6.53 1.52,-2.08 4.45,-2.54 6.53,-1.02zm-74.5 62.2c3.12,2.28 3.81,6.67 1.53,9.79 -2.28,3.12 -6.67,3.81 -9.79,1.53 -3.12,-2.28 -3.81,-6.67 -1.53,-9.79 2.28,-3.12 6.67,-3.81 9.8,-1.53zm25.19 -62.3c2.6,1.9 3.18,5.56 1.27,8.16 -1.9,2.6 -5.56,3.17 -8.16,1.27 -2.6,-1.9 -3.17,-5.56 -1.27,-8.16 1.9,-2.6 5.56,-3.17 8.16,-1.27zm130.46 -72.8c1.85,1.35 2.26,3.95 0.9,5.8 -1.35,1.85 -3.95,2.26 -5.8,0.9 -1.85,-1.35 -2.25,-3.95 -0.9,-5.8 1.35,-1.85 3.95,-2.25 5.8,-0.9z"/>
    <path id="_103654216" class="fil1" d="M181.69 757.62c-3.65,2.67 -4.45,7.78 -1.78,11.43 2.66,3.65 7.78,4.44 11.43,1.78 3.65,-2.66 4.44,-7.78 1.78,-11.43 -2.66,-3.65 -7.78,-4.44 -11.42,-1.78zm65.35 91.87c1,2.83 -0.49,5.93 -3.32,6.92 -2.83,0.99 -5.93,-0.49 -6.92,-3.32 -1,-2.83 0.49,-5.93 3.32,-6.92 2.83,-1 5.93,0.49 6.92,3.32zm-52.11 -13.62c0.66,1.89 -0.33,3.95 -2.21,4.62 -1.88,0.66 -3.95,-0.33 -4.61,-2.21 -0.66,-1.89 0.33,-3.95 2.21,-4.62 1.88,-0.66 3.95,0.33 4.62,2.21zm9.93 78.2c0.66,1.89 -0.33,3.95 -2.21,4.62 -1.88,0.66 -3.95,-0.33 -4.61,-2.21 -0.67,-1.89 0.33,-3.95 2.21,-4.61 1.88,-0.66 3.95,0.33 4.61,2.21zm-24.6 -25.09c0.83,2.35 -0.41,4.94 -2.76,5.77 -2.35,0.83 -4.94,-0.41 -5.77,-2.76 -0.83,-2.35 0.41,-4.94 2.76,-5.77 2.35,-0.83 4.94,0.41 5.77,2.76zm84.32 33.92c1.16,3.3 -0.57,6.91 -3.87,8.08 -3.3,1.16 -6.91,-0.57 -8.08,-3.87 -1.16,-3.3 0.57,-6.91 3.87,-8.07 3.3,-1.16 6.91,0.57 8.07,3.87zm-23.2 -219.83c-3.13,2.28 -3.81,6.67 -1.53,9.79 2.28,3.13 6.67,3.81 9.79,1.53 3.12,-2.28 3.81,-6.67 1.53,-9.79 -2.28,-3.13 -6.67,-3.81 -9.79,-1.53zm65.43 23.57c-2.08,1.52 -2.54,4.45 -1.02,6.53 1.52,2.08 4.45,2.54 6.53,1.02 2.08,-1.52 2.54,-4.45 1.02,-6.53 -1.52,-2.08 -4.45,-2.54 -6.53,-1.02zm-72.49 67.38c-2.08,1.52 -2.54,4.45 -1.02,6.53 1.52,2.08 4.45,2.54 6.53,1.02 2.08,-1.52 2.54,-4.45 1.02,-6.53 -1.52,-2.08 -4.45,-2.54 -6.53,-1.02zm74.5 62.2c-3.12,2.28 -3.81,6.67 -1.53,9.79 2.28,3.12 6.67,3.81 9.79,1.53 3.12,-2.28 3.81,-6.67 1.53,-9.79 -2.28,-3.12 -6.67,-3.81 -9.8,-1.53zm-25.19 -62.3c-2.6,1.9 -3.18,5.56 -1.27,8.16 1.9,2.6 5.56,3.17 8.16,1.27 2.6,-1.9 3.17,-5.56 1.27,-8.16 -1.9,-2.6 -5.56,-3.17 -8.16,-1.27zm-130.46 -72.8c-1.85,1.35 -2.26,3.95 -0.9,5.8 1.35,1.85 3.95,2.26 5.8,0.9 1.85,-1.35 2.25,-3.95 0.9,-5.8 -1.35,-1.85 -3.95,-2.25 -5.8,-0.9z"/>
   </g>
  </g>
 </g>
</svg>
