<?xml version="1.0" encoding="UTF-8"?>
<!DOCTYPE svg PUBLIC "-//W3C//DTD SVG 1.1//EN" "http://www.w3.org/Graphics/SVG/1.1/DTD/svg11.dtd">
<!-- Creator: CorelDRAW 2020 (64-Bit) -->
<svg xmlns="http://www.w3.org/2000/svg" xml:space="preserve" width="161.908mm" height="176.791mm" version="1.1" style="shape-rendering:geometricPrecision; text-rendering:geometricPrecision; image-rendering:optimizeQuality; fill-rule:evenodd; clip-rule:evenodd"
viewBox="0 0 2620.82 2861.74"
 xmlns:xlink="http://www.w3.org/1999/xlink"
 xmlns:xodm="http://www.corel.com/coreldraw/odm/2003">
 <defs>
  <style type="text/css">
   <![CDATA[
    .fil0 {fill:none}
    .fil1 {fill:#501D33}
    .fil6 {fill:#623448}
    .fil3 {fill:#8E7A5D}
    .fil2 {fill:#C3C077}
    .fil5 {fill:#D4D784}
    .fil4 {fill:#EEF698}
   ]]>
  </style>
 </defs>
 <g id="Слой_x0020_1">
  <metadata id="CorelCorpID_0Corel-Layer"/>
  <g id="_2674607145712">
   <rect class="fil0" y="0" width="2620.82" height="2861.74"/>
   <path id="_129455904" class="fil1" d="M1908.18 298.87c270.26,121.27 491.8,590.06 511.54,836.99 22.62,282.88 19.12,455.04 -145.88,800.64 0,0 -37.25,69.59 -159.87,39.75 -57.11,9.23 -107.86,-13.65 -134.11,-51.31 -0.64,-0.92 -69.89,-7.49 -102.78,-39.5 -14.92,-14.52 -24.4,-27.44 -19.03,-53.86 7.02,-34.6 17.38,-76.96 17.38,-76.96 0,0 -60.98,-60.8 -51,-86.66 9.99,-25.86 134.69,-133.94 134.9,-134.98 85.57,-392.38 1.66,-727.11 -222.52,-997.48l-180.11 -238.49c90.48,-26.72 255.53,-41.21 351.48,1.85z"/>
   <path id="_129455832" class="fil1" d="M824.16 1481.38c-48.87,-290.53 -74.09,-780.2 -103.47,-1010.52 51.37,-211.51 455.41,-146.65 593.05,-118.04 137.64,-28.61 541.68,-93.47 593.05,118.04 -28.99,227.27 -50.35,711.25 -97.89,1002.54 -178.58,56.72 -349.25,76.11 -497.26,75.82 -112.3,-0.22 -372.95,-22.56 -487.47,-67.84l0 0z"/>
   <path id="_129455760" class="fil1" d="M716.09 298.87c-270.26,121.27 -491.8,590.06 -511.54,836.99 -22.62,282.88 -19.12,455.04 145.88,800.64 0,0 37.25,69.59 159.87,39.75 57.11,9.23 107.86,-13.65 134.11,-51.31 0.64,-0.92 69.89,-7.49 102.78,-39.5 14.92,-14.52 24.4,-27.44 19.03,-53.86 -7.02,-34.6 -17.38,-76.96 -17.38,-76.96 0,0 60.98,-60.8 51,-86.66 -9.99,-25.86 -134.69,-133.94 -134.9,-134.98 -85.57,-392.38 -1.66,-727.11 222.52,-997.48l180.11 -238.49c-90.48,-26.72 -255.53,-41.21 -351.48,1.85z"/>
   <path id="_129455688" class="fil2" d="M743.28 667.35l25.54 -35.34c20.62,275.48 52.42,571.95 93.68,840.01 134.2,32.6 526.15,108.2 903.79,-8.56 40.42,-264.5 71.65,-556.03 92.06,-827.45l22.65 31.34c134.64,237.5 199.87,598.95 103.43,901.54 0,0 -119.34,92.78 -120.79,105.61 -1.46,12.82 32.62,50.45 32.62,50.45 10.59,-18.18 25.06,-51.27 31.04,-44.22 -21.66,76.18 -31.52,121.56 -37.41,148.47 -7.72,35.22 1.17,37.35 29.6,50.72l62.25 16.44c0,0 13.25,-48.61 17.38,-48.76 4.13,-0.15 4.33,65.7 4.33,65.7 47.6,41.07 105.9,40.86 105.9,40.86 0,0 46.15,-53.19 48.01,-48.98 1.87,4.21 -25.69,52.96 -25.69,52.96 94.74,10.95 109.78,-33.32 109.78,-33.32 123.83,-242.57 174.88,-477.16 141.45,-744.7 -33.22,-265.8 -166.68,-552.96 -352.29,-743.32 -127.51,-130.78 -228.83,-141.19 -400.65,-134.22 -93.55,-31.23 -204.69,-47.01 -315.87,-47.21l0 -0 -0.34 0 -0.34 -0 0 0c-111.32,0.2 -222.6,16.02 -316.22,47.32 -173.56,-7.2 -275.27,2.6 -403.49,134.1 -185.61,190.37 -319.07,477.53 -352.29,743.32 -33.43,267.54 17.62,502.13 141.45,744.7 0,0 15.03,44.27 109.78,33.32 0,0 -27.55,-48.75 -25.69,-52.96 1.87,-4.21 48.01,48.98 48.01,48.98 0,0 58.3,0.21 105.9,-40.86 0,0 0.19,-65.85 4.33,-65.7 4.13,0.15 17.38,48.76 17.38,48.76l62.25 -16.44c28.44,-13.37 37.33,-15.49 29.6,-50.72 -5.9,-26.91 -15.75,-72.29 -37.41,-148.47 5.98,-7.05 20.45,26.04 31.04,44.22 0,0 34.08,-37.63 32.62,-50.45 -1.45,-12.83 -120.79,-105.61 -120.79,-105.61 -96.44,-302.59 -31.21,-664.04 103.43,-901.54l-0.01 -0z"/>
   <path id="_129455472" class="fil3" d="M743.28 667.35l6.58 -9.1c-1.73,-0.97 -3.44,-2.05 -5.19,-2.9 0,0 -463.9,526.17 -17.56,1213.1 10.25,-7.16 12.39,-15.98 7.29,-39.25 -5.9,-26.91 -15.75,-72.29 -37.41,-148.47 5.98,-7.05 20.45,26.04 31.04,44.22 0,0 34.08,-37.63 32.62,-50.45 -1.45,-12.83 -120.79,-105.61 -120.79,-105.61 -96.44,-302.59 -31.21,-664.04 103.43,-901.54l0 0z"/>
   <path id="_129455400" class="fil4" d="M699.96 351.11c-34.79,20.17 -69.45,47.9 -106.28,85.68 -185.61,190.37 -319.07,477.53 -352.29,743.32 -33.43,267.54 17.62,502.13 141.45,744.7 0,0 1.28,3.74 5.41,8.78 27.37,-3.82 55.05,-10.03 82.19,-17.74 -2.49,-5.48 -4,-9.58 -3.52,-10.68 0.55,-1.25 5.01,2.55 11,8.51 52.79,-15.57 103.21,-36.51 144.85,-56.12 0.6,-6.03 1.37,-10.02 2.39,-9.98 0.92,0.03 2.16,2.84 3.53,7.17 54.86,-26.19 93.23,-49.36 99.54,-53.23l-0.06 -0.24c-121.33,41.68 -326.16,62.54 -326.16,62.54 -276.38,-568.55 -84.77,-1174.85 297.94,-1512.72l-0 0z"/>
   <path id="_129455328" class="fil4" d="M1924.3 351.11c34.79,20.17 69.45,47.9 106.28,85.68 185.61,190.37 319.07,477.53 352.29,743.32 33.43,267.54 -17.62,502.13 -141.45,744.7 0,0 -1.28,3.74 -5.41,8.78 -27.37,-3.82 -55.05,-10.03 -82.19,-17.74 2.49,-5.48 4,-9.58 3.52,-10.68 -0.55,-1.25 -5.01,2.55 -11,8.51 -52.79,-15.57 -103.21,-36.51 -144.85,-56.12 -0.6,-6.03 -1.37,-10.02 -2.39,-9.98 -0.92,0.03 -2.16,2.84 -3.53,7.17 -54.86,-26.19 -93.23,-49.36 -99.54,-53.23l0.06 -0.24c121.33,41.68 326.16,62.54 326.16,62.54 276.38,-568.55 84.77,-1174.85 -297.94,-1512.72l0 0z"/>
   <path id="_129455256" class="fil3" d="M1880.99 667.35l-6.58 -9.1c1.73,-0.97 3.44,-2.05 5.19,-2.9 0,0 463.9,526.17 17.56,1213.1 -10.25,-7.16 -12.39,-15.98 -7.29,-39.25 5.9,-26.91 15.75,-72.29 37.41,-148.47 -5.98,-7.05 -20.45,26.04 -31.04,44.22 0,0 -34.08,-37.63 -32.62,-50.45 1.45,-12.83 120.79,-105.61 120.79,-105.61 96.44,-302.59 31.21,-664.04 -103.43,-901.54l0 0z"/>
   <path id="_129455184" class="fil1" d="M2312.3 1007.26c120.85,-13.64 152.02,119.62 45.4,164.22l-45.4 -164.22z"/>
   <path id="_129455112" class="fil2" d="M2357.67 1172.17c39.41,-61.42 40.42,-129.31 -45.35,-165.88 0,0 -24.41,120.46 45.35,165.88z"/>
   <path id="_129455040" class="fil4" d="M2353.58 1177.24c47.72,-60.81 48.26,-135.91 -44.37,-172.73 36.81,24.62 67.19,102.69 42.73,167.71l1.64 5.02z"/>
   <path id="_129454968" class="fil4" d="M2317.1 1029.99c-10.54,6.56 -10.43,25.8 0.25,42.98 10.68,17.18 27.9,25.79 38.44,19.23 10.54,-6.56 10.43,-25.8 -0.25,-42.98 -10.68,-17.17 -27.89,-25.79 -38.43,-19.23z"/>
   <path id="_129454896" class="fil2" d="M1885.99 1675.05c0,0 19.56,-40.48 69.59,-65.95 50.03,-25.47 -34.57,66.86 -69.59,65.95z"/>
   <path id="_129454824" class="fil3" d="M2246.77 1914.2c-1.76,3.54 -3.54,7.08 -5.34,10.6 0,0 -15.03,44.27 -109.77,33.32 0,0 27.55,-48.75 25.68,-52.96 -1.87,-4.21 -48.02,48.99 -48.02,48.99 0,0 -58.29,0.2 -105.89,-40.87 0,0 -0.19,-65.86 -4.33,-65.71 -4.13,0.15 -14.2,53.78 -14.2,53.78 -32.11,-4.27 -68.97,-15.98 -90.61,-35.15 -7.74,-6.86 -9.01,-16.11 -4.43,-37.02 1.97,-8.97 4.37,-20 7.51,-33.53 179.71,80.73 294.57,108.85 349.39,118.55l0 0z"/>
   <path id="_129454752" class="fil3" d="M2236.82 1066.42c0,0 0,60.15 81.11,92.96 0,0 -53.77,-1.82 -76.55,-23.69 -22.78,-21.87 -4.56,-69.26 -4.56,-69.26z"/>
   <path id="_129454680" class="fil2" d="M862.49 1472.02c-47.71,-309.97 -82.77,-657.95 -102.52,-967.51 40.13,-165.23 296.7,-248.69 553.43,-249.14l0 -0 0.34 0 0.34 -0 0 0c256.72,0.45 513.3,83.91 553.43,249.14 -19.57,306.72 -54.17,651.14 -101.21,958.96 -377.64,116.76 -769.59,41.16 -903.79,8.56l0 -0z"/>
   <path id="_129454608" class="fil5" d="M1294.39 672.48c0,0 -21.87,257.22 10.96,290.97 25.39,26.1 9.68,-189.94 -1.23,-277.67 -3.2,-25.7 -9.32,-12.06 -9.73,-13.3l0 -0z"/>
   <path id="_129454464" class="fil3" d="M803.32 302.36c0,0 103.99,321.98 490.74,325.62 386.75,3.65 519.01,-328.37 519.01,-328.37 0,0 -431.72,-134.07 -1009.74,2.74l-0 0z"/>
   <path id="_129342832" class="fil3" d="M862.49 1472.02c-38.67,-251.25 -69.03,-527.46 -89.66,-787.95 2.48,-11.54 4.69,-18.31 6.57,-19.03l114.93 775.32c0,0 314.88,129.95 833.2,-5.11l124.1 -784.79c0,0 1.36,8.95 3.71,24.61 -20.41,260.17 -50.57,536.53 -89.05,788.39 -377.64,116.76 -769.6,41.16 -903.8,8.56l-0 -0z"/>
   <path id="_129342760" class="fil3" d="M962.96 1393.56c0,0 149.46,69.26 349.04,72 199.58,2.73 380.05,-113.92 380.05,-113.92 0,0 -103.01,152.19 -351.8,163.13 -248.79,10.94 -377.29,-121.21 -377.29,-121.21z"/>
   <path id="_129342688" class="fil1" d="M1778.84 1398.74c0,0 -80.2,46.48 -146.72,60.15 0,0 61.97,-1.82 154.93,-26.43l11.85 -25.52 -20.05 -8.2z"/>
   <path id="_129342616" class="fil1" d="M851.82 1408.76c0,0 80.2,46.48 146.72,60.15 0,0 -61.97,-1.82 -154.93,-26.43l-11.85 -25.52 20.05 -8.2z"/>
   <path id="_129342544" class="fil5" d="M1015.38 1250.06c0,0 83.92,-158.71 326.55,-158.71 242.63,0 -273.64,164.19 -326.55,158.71z"/>
   <path id="_129342472" class="fil3" d="M1341.92 1023.57c0,0 358.33,33.69 474.95,-40.09l-14.58 92.04c0,0 -190.5,34.61 -460.37,-51.96z"/>
   <path id="_129342400" class="fil3" d="M1221.11 1013.56c0,0 -294.36,23.69 -412.83,-30.07l14.58 92.04c0,0 299.83,-6.38 398.25,-61.97z"/>
   <g>
    <g>
     <path id="_129342328" class="fil3" d="M1270.89 1293.1c0,0 -49.01,78.63 27.08,116.23 0,0 -28.79,-51.69 13.02,-91.16l-17.82 -14.1 -22.28 -10.96z"/>
     <g>
      <path id="_129342256" class="fil1" d="M1267.64 1292.17c0,0 24.83,7.15 84.89,89.74 6.59,-54.78 -32.57,-83.18 -84.89,-89.74z"/>
      <path id="_129342184" class="fil1" d="M1301.52 1306.77c0,0 -49.54,60.95 -2.66,102.27 0,0 -23.98,-41.65 19.88,-87.29l-7.78 -12.4 -9.43 -2.58z"/>
      <path id="_129342112" class="fil4" d="M1315.1 1347.99c5.58,1.98 6.83,13.56 2.79,25.85 -4.04,12.29 -11.84,20.65 -17.43,18.66 -5.58,-1.99 -6.83,-13.56 -2.79,-25.85 4.04,-12.29 11.84,-20.65 17.43,-18.66z"/>
     </g>
     <path id="_129342016" class="fil3" d="M1330.26 1366.29c0,0 7.17,28.09 -22.37,39.02 0,0 21,4.21 33.13,-6.71 12.12,-10.92 -10.76,-32.31 -10.76,-32.31z"/>
    </g>
    <path id="_129341920" class="fil4" d="M1268.5 1281.88c0,0 66.61,0 92.7,46.01 0,0 -4.81,-42.58 -26.09,-55.62 -21.29,-13.05 -66.61,9.61 -66.61,9.61z"/>
   </g>
   <g>
    <g>
     <path id="_129341824" class="fil1" d="M1647.12 910.55c32.11,0 58.15,13.53 58.15,30.21 0,16.68 -26.04,30.21 -58.15,30.21 -32.11,0 -58.15,-13.53 -58.15,-30.21 0,-16.68 26.04,-30.21 58.15,-30.21z"/>
     <path id="_129341752" class="fil6" d="M1647.12 924.64c20.31,0 36.77,7.21 36.77,16.11 0,8.9 -16.47,16.11 -36.77,16.11 -20.3,0 -36.77,-7.21 -36.77,-16.11 0,-8.9 16.47,-16.11 36.77,-16.11z"/>
    </g>
    <g>
     <path id="_129341656" class="fil1" d="M980.34 910.55c32.11,0 58.15,13.53 58.15,30.21 0,16.68 -26.04,30.21 -58.15,30.21 -32.11,0 -58.15,-13.53 -58.15,-30.21 0,-16.68 26.04,-30.21 58.15,-30.21z"/>
     <path id="_129341584" class="fil6" d="M980.34 924.64c20.31,0 36.77,7.21 36.77,16.11 0,8.9 -16.47,16.11 -36.77,16.11 -20.3,0 -36.77,-7.21 -36.77,-16.11 0,-8.9 16.47,-16.11 36.77,-16.11z"/>
    </g>
   </g>
   <path id="_129341464" class="fil1" d="M1828.71 986.22c0,0 -12.47,44.89 -47.39,67.34 0,0 34.42,-1 49.88,-20.95 15.46,-19.95 -2.49,-46.39 -2.49,-46.39z"/>
   <path id="_129341392" class="fil1" d="M800.96 986.22c0,0 12.47,44.89 47.39,67.34 0,0 -34.42,-1 -49.88,-20.95 -15.46,-19.95 2.49,-46.39 2.49,-46.39z"/>
   <path id="_128912232" class="fil1" d="M311.97 1007.26c-120.85,-13.64 -152.02,119.62 -45.4,164.22l45.4 -164.22z"/>
   <path id="_128810808" class="fil2" d="M266.59 1172.17c-39.41,-61.42 -40.42,-129.31 45.35,-165.88 0,0 24.41,120.46 -45.35,165.88z"/>
   <path id="_128810736" class="fil4" d="M270.69 1177.24c-47.72,-60.81 -48.26,-135.91 44.37,-172.73 -36.81,24.62 -67.19,102.69 -42.73,167.71l-1.64 5.02z"/>
   <path id="_128810664" class="fil4" d="M307.17 1029.99c10.54,6.56 10.43,25.8 -0.25,42.98 -10.68,17.18 -27.9,25.79 -38.44,19.23 -10.54,-6.56 -10.43,-25.8 0.25,-42.98 10.68,-17.17 27.89,-25.79 38.43,-19.23z"/>
   <path id="_128810592" class="fil2" d="M738.28 1675.05c0,0 -19.56,-40.48 -69.59,-65.95 -50.03,-25.47 34.57,66.86 69.59,65.95z"/>
   <path id="_128810520" class="fil3" d="M377.5 1914.2c1.76,3.54 3.54,7.08 5.34,10.6 0,0 15.03,44.27 109.77,33.32 0,0 -27.55,-48.75 -25.68,-52.96 1.87,-4.21 48.02,48.99 48.02,48.99 0,0 58.29,0.2 105.89,-40.87 0,0 0.19,-65.86 4.33,-65.71 4.13,0.15 14.2,53.78 14.2,53.78 32.11,-4.27 68.97,-15.98 90.61,-35.15 7.74,-6.86 9.01,-16.11 4.43,-37.02 -1.97,-8.97 -4.37,-20 -7.51,-33.53 -179.71,80.73 -294.57,108.85 -349.39,118.55l-0 0z"/>
   <path id="_128810448" class="fil3" d="M393.87 1064.55c0,0 0,60.15 -81.11,92.96 0,0 53.77,-1.82 76.55,-23.69 22.78,-21.87 4.56,-69.26 4.56,-69.26z"/>
  </g>
 </g>
</svg>
