<?xml version="1.0" encoding="UTF-8"?>
<!DOCTYPE svg PUBLIC "-//W3C//DTD SVG 1.1//EN" "http://www.w3.org/Graphics/SVG/1.1/DTD/svg11.dtd">
<!-- Creator: CorelDRAW 2020 (64-Bit) -->
<svg xmlns="http://www.w3.org/2000/svg" xml:space="preserve" width="161.908mm" height="176.791mm" version="1.1" style="shape-rendering:geometricPrecision; text-rendering:geometricPrecision; image-rendering:optimizeQuality; fill-rule:evenodd; clip-rule:evenodd"
viewBox="0 0 4398.75 4803.1"
 xmlns:xlink="http://www.w3.org/1999/xlink"
 xmlns:xodm="http://www.corel.com/coreldraw/odm/2003">
 <defs>
  <style type="text/css">
   <![CDATA[
    .fil0 {fill:none}
    .fil1 {fill:#501D33}
    .fil6 {fill:#623448}
    .fil3 {fill:#8E7A5D}
    .fil2 {fill:#C3C077}
    .fil5 {fill:#D4D784}
    .fil4 {fill:#EEF698}
    .fil7 {fill:#501D33;fill-rule:nonzero}
   ]]>
  </style>
 </defs>
 <g id="Слой_x0020_1">
  <metadata id="CorelCorpID_0Corel-Layer"/>
  <g id="_2674538148672">
   <rect class="fil0" y="0" width="4398.75" height="4803.1"/>
   <path id="_129455904" class="fil1" d="M3202.66 501.62c453.61,203.54 825.43,990.34 858.57,1404.8 37.96,474.79 32.08,763.73 -244.85,1343.78 0,0 -62.52,116.79 -268.32,66.72 -95.86,15.5 -181.03,-22.92 -225.09,-86.11 -1.07,-1.54 -117.31,-12.57 -172.51,-66.3 -25.04,-24.38 -40.95,-46.05 -31.94,-90.4 11.78,-58.06 29.18,-129.16 29.18,-129.16 0,0 -102.36,-102.04 -85.6,-145.45 16.76,-43.41 226.07,-224.8 226.41,-226.54 143.62,-658.57 2.78,-1220.37 -373.47,-1674.15l-302.29 -400.27c151.86,-44.84 428.88,-69.16 589.92,3.1z"/>
   <path id="_129455832" class="fil1" d="M1383.25 2486.33c-82.03,-487.62 -124.35,-1309.47 -173.66,-1696.05 86.22,-355 764.35,-246.14 995.37,-198.12 231.01,-48.02 909.15,-156.87 995.36,198.12 -48.66,381.44 -84.5,1193.75 -164.3,1682.65 -299.73,95.19 -586.17,127.74 -834.6,127.25 -188.48,-0.37 -625.95,-37.87 -818.17,-113.86l0 0.01z"/>
   <path id="_129455760" class="fil1" d="M1201.88 501.62c-453.61,203.54 -825.43,990.34 -858.57,1404.8 -37.96,474.79 -32.08,763.73 244.85,1343.78 0,0 62.52,116.79 268.32,66.72 95.86,15.5 181.03,-22.92 225.09,-86.11 1.07,-1.54 117.31,-12.57 172.51,-66.3 25.04,-24.38 40.95,-46.05 31.94,-90.4 -11.78,-58.06 -29.18,-129.16 -29.18,-129.16 0,0 102.36,-102.04 85.6,-145.45 -16.76,-43.41 -226.07,-224.8 -226.41,-226.54 -143.62,-658.57 -2.78,-1220.37 373.47,-1674.15l302.29 -400.27c-151.86,-44.84 -428.88,-69.16 -589.92,3.1z"/>
   <path id="_129455688" class="fil2" d="M1247.51 1120.08l42.86 -59.31c34.61,462.36 87.98,959.95 157.23,1409.86 225.24,54.72 883.08,181.6 1516.91,-14.37 67.84,-443.94 120.26,-933.24 154.51,-1388.78l38.01 52.6c225.98,398.62 335.45,1005.27 173.59,1513.13 0,0 -200.3,155.72 -202.74,177.25 -2.45,21.52 54.75,84.68 54.75,84.68 17.78,-30.52 42.07,-86.05 52.1,-74.22 -36.36,127.86 -52.9,204.03 -62.79,249.19 -12.96,59.12 1.96,62.68 49.69,85.12l104.48 27.59c0,0 22.23,-81.58 29.17,-81.84 6.93,-0.25 7.26,110.28 7.26,110.28 79.89,68.93 177.74,68.58 177.74,68.58 0,0 77.45,-89.28 80.59,-82.21 3.13,7.06 -43.11,88.88 -43.11,88.88 159.02,18.38 184.25,-55.92 184.25,-55.92 207.83,-407.12 293.51,-800.85 237.41,-1249.89 -55.76,-446.11 -279.75,-928.08 -591.28,-1247.59 -214.02,-219.49 -384.06,-236.97 -672.45,-225.27 -157.02,-52.42 -343.55,-78.9 -530.14,-79.23l0 -0.01 -0.57 0 -0.57 -0 0 0.01c-186.83,0.33 -373.6,26.88 -530.75,79.43 -291.3,-12.08 -462.02,4.37 -677.21,225.07 -311.53,319.51 -535.52,801.47 -591.28,1247.59 -56.1,449.04 29.58,842.77 237.41,1249.89 0,0 25.23,74.31 184.25,55.92 0,0 -46.25,-81.82 -43.11,-88.88 3.14,-7.07 80.59,82.21 80.59,82.21 0,0 97.84,0.36 177.74,-68.58 0,0 0.33,-110.53 7.26,-110.28 6.93,0.25 29.17,81.84 29.17,81.84l104.48 -27.59c47.73,-22.44 62.65,-26.01 49.69,-85.12 -9.89,-45.16 -26.43,-121.33 -62.79,-249.19 10.03,-11.83 34.32,43.71 52.1,74.22 0,0 57.2,-63.16 54.75,-84.68 -2.44,-21.53 -202.74,-177.25 -202.74,-177.25 -161.86,-507.87 -52.39,-1114.52 173.59,-1513.13l-0.01 -0z"/>
   <path id="_129455472" class="fil3" d="M1247.51 1120.08l11.04 -15.27c-2.9,-1.63 -5.78,-3.44 -8.71,-4.87 0,0 -778.61,883.12 -29.47,2036.05 17.2,-12.02 20.8,-26.82 12.24,-65.88 -9.89,-45.16 -26.43,-121.33 -62.79,-249.19 10.03,-11.83 34.32,43.71 52.1,74.22 0,0 57.2,-63.16 54.75,-84.68 -2.44,-21.53 -202.74,-177.25 -202.74,-177.25 -161.86,-507.87 -52.39,-1114.52 173.59,-1513.13l0 0z"/>
   <path id="_129455400" class="fil4" d="M1174.81 589.3c-58.4,33.86 -116.56,80.39 -178.38,143.8 -311.53,319.51 -535.52,801.47 -591.28,1247.59 -56.1,449.04 29.58,842.77 237.41,1249.89 0,0 2.15,6.28 9.09,14.74 45.93,-6.41 92.39,-16.84 137.95,-29.77 -4.18,-9.19 -6.72,-16.09 -5.9,-17.92 0.93,-2.1 8.41,4.28 18.46,14.29 88.6,-26.13 173.23,-61.27 243.11,-94.18 1,-10.12 2.31,-16.81 4.02,-16.75 1.55,0.06 3.63,4.76 5.93,12.04 92.07,-43.95 156.47,-82.84 167.07,-89.34l-0.09 -0.4c-203.63,69.96 -547.43,104.97 -547.43,104.97 -463.87,-954.25 -142.28,-1971.85 500.06,-2538.94l-0.01 0z"/>
   <path id="_129455328" class="fil4" d="M3229.73 589.3c58.4,33.86 116.56,80.39 178.38,143.8 311.53,319.51 535.52,801.47 591.28,1247.59 56.1,449.04 -29.58,842.77 -237.41,1249.89 0,0 -2.15,6.28 -9.09,14.74 -45.93,-6.41 -92.39,-16.84 -137.95,-29.77 4.18,-9.19 6.72,-16.09 5.9,-17.92 -0.93,-2.1 -8.41,4.28 -18.46,14.29 -88.6,-26.13 -173.23,-61.27 -243.11,-94.18 -1,-10.12 -2.31,-16.81 -4.02,-16.75 -1.55,0.06 -3.63,4.76 -5.93,12.04 -92.07,-43.95 -156.47,-82.84 -167.07,-89.34l0.09 -0.4c203.63,69.96 547.43,104.97 547.43,104.97 463.87,-954.25 142.28,-1971.85 -500.06,-2538.94l0.01 0z"/>
   <path id="_129455256" class="fil3" d="M3157.03 1120.08l-11.04 -15.27c2.9,-1.63 5.78,-3.44 8.71,-4.87 0,0 778.61,883.12 29.47,2036.05 -17.2,-12.02 -20.8,-26.82 -12.24,-65.88 9.89,-45.16 26.43,-121.33 62.79,-249.19 -10.03,-11.83 -34.32,43.71 -52.1,74.22 0,0 -57.2,-63.16 -54.75,-84.68 2.44,-21.53 202.74,-177.25 202.74,-177.25 161.86,-507.87 52.39,-1114.52 -173.59,-1513.13l0 0z"/>
   <path id="_129455184" class="fil1" d="M3880.94 1690.57c202.84,-22.89 255.16,200.77 76.2,275.63l-76.2 -275.63z"/>
   <path id="_129455112" class="fil2" d="M3957.09 1967.36c66.15,-103.09 67.84,-217.03 -76.12,-278.4 0,0 -40.96,202.17 76.12,278.4z"/>
   <path id="_129455040" class="fil4" d="M3950.22 1975.87c80.09,-102.07 81,-228.12 -74.47,-289.91 61.79,41.32 112.77,172.36 71.71,281.49l2.76 8.42z"/>
   <path id="_129454968" class="fil4" d="M3888.99 1728.73c-17.69,11 -17.5,43.31 0.42,72.13 17.93,28.83 46.82,43.28 64.51,32.28 17.69,-11 17.5,-43.31 -0.43,-72.13 -17.93,-28.83 -46.82,-43.28 -64.51,-32.28z"/>
   <path id="_129454896" class="fil2" d="M3165.43 2811.39c0,0 32.83,-67.95 116.8,-110.7 83.98,-42.75 -58.02,112.22 -116.8,110.7z"/>
   <path id="_129454824" class="fil3" d="M3770.95 3212.78c-2.96,5.94 -5.94,11.88 -8.96,17.8 0,0 -25.23,74.3 -184.24,55.92 0,0 46.23,-81.81 43.1,-88.89 -3.13,-7.07 -80.59,82.23 -80.59,82.23 0,0 -97.84,0.34 -177.73,-68.6 0,0 -0.33,-110.53 -7.26,-110.28 -6.94,0.25 -23.83,90.26 -23.83,90.26 -53.89,-7.17 -115.76,-26.82 -152.07,-58.99 -12.99,-11.51 -15.13,-27.04 -7.43,-62.14 3.3,-15.06 7.34,-33.57 12.6,-56.28 301.62,135.5 494.41,182.69 586.41,198.98l0 0z"/>
   <path id="_129454752" class="fil3" d="M3754.25 1789.87c0,0 0,100.95 136.13,156.02 0,0 -90.24,-3.06 -128.48,-39.77 -38.24,-36.71 -7.65,-116.25 -7.65,-116.25z"/>
   <path id="_129454680" class="fil2" d="M1447.6 2470.62c-80.07,-520.26 -138.92,-1104.29 -172.07,-1623.86 67.35,-277.32 497.98,-417.4 928.87,-418.16l0 -0.01 0.57 0 0.57 -0 0 0.01c430.88,0.76 861.51,140.84 928.86,418.16 -32.84,514.8 -90.92,1092.87 -169.87,1609.5 -633.83,195.96 -1291.67,69.08 -1516.91,14.37l0 -0.01z"/>
   <path id="_129454608" class="fil5" d="M2172.49 1128.69c0,0 -36.71,431.72 18.39,488.37 42.61,43.81 16.25,-318.8 -2.06,-466.04 -5.37,-43.13 -15.64,-20.24 -16.33,-22.32l0 -0z"/>
   <path id="_129454464" class="fil3" d="M1348.28 507.48c0,0 174.53,540.4 823.65,546.52 649.11,6.12 871.1,-551.13 871.1,-551.13 0,0 -724.59,-225.02 -1694.74,4.6l-0 0z"/>
   <path id="_129342832" class="fil3" d="M1447.6 2470.62c-64.9,-421.69 -115.86,-885.28 -150.48,-1322.49 4.16,-19.37 7.88,-30.73 11.03,-31.94l192.9 1301.29c0,0 528.48,218.1 1398.44,-8.57l208.29 -1317.18c0,0 2.28,15.03 6.22,41.3 -34.26,436.67 -84.88,900.51 -149.47,1323.22 -633.83,195.97 -1291.68,69.09 -1516.92,14.37l-0 -0.01z"/>
   <path id="_129342760" class="fil3" d="M1616.22 2338.94c0,0 250.85,116.25 585.82,120.84 334.97,4.59 637.87,-191.19 637.87,-191.19 0,0 -172.89,255.44 -590.46,273.79 -417.57,18.35 -633.24,-203.43 -633.24,-203.43z"/>
   <path id="_129342688" class="fil1" d="M2985.58 2347.63c0,0 -134.6,78.01 -246.26,100.95 0,0 104.01,-3.06 260.03,-44.36l19.88 -42.83 -33.65 -13.77z"/>
   <path id="_129342616" class="fil1" d="M1429.69 2364.45c0,0 134.6,78.01 246.26,100.95 0,0 -104.01,-3.06 -260.03,-44.36l-19.88 -42.83 33.65 -13.77z"/>
   <path id="_129342544" class="fil5" d="M1704.21 2098.09c0,0 140.85,-266.38 548.07,-266.38 407.22,0 -459.28,275.57 -548.07,266.38z"/>
   <path id="_129342472" class="fil3" d="M2252.26 1717.95c0,0 601.42,56.55 797.15,-67.28l-24.47 154.49c0,0 -319.73,58.08 -772.67,-87.2z"/>
   <path id="_129342400" class="fil3" d="M2049.5 1701.14c0,0 -494.05,39.77 -692.89,-50.48l24.47 154.49c0,0 503.23,-10.71 668.42,-104.01z"/>
   <g>
    <g>
     <path id="_129342328" class="fil3" d="M2133.04 2170.32c0,0 -82.26,131.98 45.44,195.07 0,0 -48.32,-86.76 21.86,-153.01l-29.91 -23.66 -37.39 -18.4z"/>
     <g>
      <path id="_129342256" class="fil1" d="M2127.6 2168.77c0,0 41.67,11.99 142.48,150.63 11.07,-91.94 -54.67,-139.61 -142.48,-150.63z"/>
      <path id="_129342184" class="fil1" d="M2184.45 2193.28c0,0 -83.15,102.3 -4.47,171.65 0,0 -40.25,-69.91 33.37,-146.5l-13.07 -20.81 -15.83 -4.34z"/>
      <path id="_129342112" class="fil4" d="M2207.26 2262.45c9.37,3.33 11.47,22.76 4.69,43.39 -6.78,20.63 -19.88,34.65 -29.25,31.32 -9.37,-3.33 -11.47,-22.76 -4.69,-43.39 6.78,-20.63 19.88,-34.65 29.25,-31.32z"/>
     </g>
     <path id="_129342016" class="fil3" d="M2232.69 2293.17c0,0 12.04,47.15 -37.54,65.49 0,0 35.25,7.07 55.6,-11.27 20.35,-18.34 -18.05,-54.23 -18.05,-54.23z"/>
    </g>
    <path id="_129341920" class="fil4" d="M2129.04 2151.49c0,0 111.79,0 155.59,77.22 0,0 -8.07,-71.46 -43.8,-93.36 -35.73,-21.9 -111.79,16.14 -111.79,16.14z"/>
   </g>
   <g>
    <g>
     <path id="_129341824" class="fil1" d="M2764.51 1528.25c53.89,0 97.6,22.7 97.6,50.7 0,28 -43.7,50.71 -97.6,50.71 -53.89,0 -97.59,-22.7 -97.59,-50.71 0,-28 43.7,-50.7 97.59,-50.7z"/>
     <path id="_129341752" class="fil6" d="M2764.51 1551.91c34.08,0 61.72,12.11 61.72,27.04 0,14.94 -27.64,27.05 -61.72,27.05 -34.07,0 -61.71,-12.11 -61.71,-27.05 0,-14.93 27.64,-27.04 61.71,-27.04z"/>
    </g>
    <g>
     <path id="_129341656" class="fil1" d="M1645.39 1528.25c53.89,0 97.6,22.7 97.6,50.7 0,28 -43.7,50.71 -97.6,50.71 -53.89,0 -97.59,-22.7 -97.59,-50.71 0,-28 43.7,-50.7 97.59,-50.7z"/>
     <path id="_129341584" class="fil6" d="M1645.39 1551.91c34.08,0 61.72,12.11 61.72,27.04 0,14.94 -27.64,27.05 -61.72,27.05 -34.07,0 -61.71,-12.11 -61.71,-27.05 0,-14.93 27.64,-27.04 61.71,-27.04z"/>
    </g>
   </g>
   <path id="_129341464" class="fil1" d="M3069.29 1655.26c0,0 -20.93,75.35 -79.54,113.02 0,0 57.77,-1.67 83.72,-35.16 25.95,-33.49 -4.18,-77.86 -4.18,-77.86z"/>
   <path id="_129341392" class="fil1" d="M1344.31 1655.26c0,0 20.93,75.35 79.54,113.02 0,0 -57.77,-1.67 -83.72,-35.16 -25.95,-33.49 4.18,-77.86 4.18,-77.86z"/>
   <path id="_128912232" class="fil1" d="M523.61 1690.57c-202.84,-22.89 -255.16,200.77 -76.2,275.63l76.2 -275.63z"/>
   <path id="_128810808" class="fil2" d="M447.44 1967.36c-66.15,-103.09 -67.84,-217.03 76.12,-278.4 0,0 40.96,202.17 -76.12,278.4z"/>
   <path id="_128810736" class="fil4" d="M454.32 1975.87c-80.09,-102.07 -81,-228.12 74.47,-289.91 -61.79,41.32 -112.77,172.36 -71.71,281.49l-2.76 8.42z"/>
   <path id="_128810664" class="fil4" d="M515.55 1728.73c17.69,11 17.5,43.31 -0.42,72.13 -17.93,28.83 -46.82,43.28 -64.51,32.28 -17.69,-11 -17.5,-43.31 0.43,-72.13 17.93,-28.83 46.82,-43.28 64.51,-32.28z"/>
   <path id="_128810592" class="fil2" d="M1239.11 2811.39c0,0 -32.83,-67.95 -116.8,-110.7 -83.98,-42.75 58.02,112.22 116.8,110.7z"/>
   <path id="_128810520" class="fil3" d="M633.59 3212.78c2.96,5.94 5.94,11.88 8.96,17.8 0,0 25.23,74.3 184.24,55.92 0,0 -46.23,-81.81 -43.1,-88.89 3.13,-7.07 80.59,82.23 80.59,82.23 0,0 97.84,0.34 177.73,-68.6 0,0 0.33,-110.53 7.26,-110.28 6.94,0.25 23.83,90.26 23.83,90.26 53.89,-7.17 115.76,-26.82 152.07,-58.99 12.99,-11.51 15.13,-27.04 7.43,-62.14 -3.3,-15.06 -7.34,-33.57 -12.6,-56.28 -301.62,135.5 -494.41,182.69 -586.41,198.98l-0 0z"/>
   <path id="_128810448" class="fil3" d="M661.06 1786.73c0,0 0,100.95 -136.13,156.02 0,0 90.24,-3.06 128.48,-39.77 38.24,-36.71 7.65,-116.25 7.65,-116.25z"/>
   <g>
    <path class="fil7" d="M2286.01 1227.64c0.65,6.94 -4.44,13.1 -11.38,13.76 -6.94,0.66 -13.1,-4.44 -13.76,-11.38 -1.99,-20.87 7.22,-41.52 22.36,-56.89 9.28,-9.42 20.88,-16.94 33.49,-21.33 12.96,-4.51 27.01,-5.77 40.84,-2.52 19.2,4.52 37.67,17.52 51.7,42.28 15.77,27.83 13.14,50.01 1.55,65.65 -7.52,10.14 -18.76,17.07 -31.11,20.71 -11.85,3.49 -24.95,3.97 -36.76,1.35 -20.47,-4.55 -37.3,-18.07 -39.46,-41.15 -2.12,-22.52 5.16,-36.62 16.21,-44.38 0.3,-0.21 0.59,-0.4 0.9,-0.58 5.24,-3.45 11.15,-5.39 17.21,-6.05 5.98,-0.65 12.13,-0.07 17.89,1.49 15.08,4.07 28.36,15.23 30.96,28.98 1.28,6.86 -3.24,13.46 -10.09,14.74 -6.86,1.28 -13.46,-3.23 -14.74,-10.09 -0.73,-3.85 -6.2,-7.45 -12.65,-9.19 -2.92,-0.79 -5.91,-1.09 -8.69,-0.79 -2.17,0.23 -4.19,0.85 -5.85,1.89l-0.39 0.29c-4.14,2.91 -6.75,9.5 -5.63,21.42 0.96,10.26 9.42,16.49 19.77,18.79 7.69,1.71 16.32,1.37 24.2,-0.95 7.38,-2.17 13.9,-6.04 17.95,-11.51 5.97,-8.06 6.66,-20.68 -3.23,-38.14 -10.14,-17.9 -22.73,-27.11 -35.48,-30.11 -8.98,-2.11 -18.2,-1.26 -26.78,1.73 -8.92,3.1 -17.16,8.46 -23.8,15.2 -10.22,10.37 -16.48,23.78 -15.24,36.8z"/>
    <path class="fil7" d="M951.73 881.21c-5.75,1.83 -11.9,-1.36 -13.73,-7.11 -1.83,-5.75 1.36,-11.9 7.11,-13.73 17.29,-5.5 36.46,-1.5 52.24,8.49 9.67,6.13 18.16,14.56 24.19,24.43 6.19,10.14 9.83,21.8 9.61,34.09 -0.3,17.08 -7.91,35.09 -26.29,51.5 -20.66,18.45 -39.91,20.29 -55.27,13.35 -9.96,-4.5 -17.88,-12.74 -23.23,-22.53 -5.12,-9.39 -7.94,-20.39 -7.88,-30.86 0.1,-18.15 8.46,-34.87 27.58,-40.94 18.67,-5.92 31.93,-2.35 40.53,5.59 0.23,0.21 0.45,0.43 0.65,0.65 3.89,3.8 6.61,8.45 8.28,13.46 1.65,4.94 2.28,10.25 2.02,15.41 -0.68,13.51 -7.68,26.79 -18.85,31.51 -5.57,2.34 -11.98,-0.27 -14.32,-5.84 -2.34,-5.57 0.27,-11.98 5.84,-14.33 3.13,-1.32 5.17,-6.61 5.46,-12.39 0.13,-2.61 -0.16,-5.2 -0.92,-7.5 -0.59,-1.79 -1.49,-3.39 -2.67,-4.6l-0.32 -0.28c-3.22,-2.97 -9.28,-3.97 -19.16,-0.83 -8.5,2.69 -12.22,10.99 -12.27,20.18 -0.04,6.82 1.83,14.06 5.24,20.29 3.19,5.85 7.66,10.66 13.03,13.08 7.92,3.58 18.72,1.84 31.68,-9.73 13.28,-11.86 18.77,-24.2 18.97,-35.54 0.14,-7.98 -2.27,-15.63 -6.37,-22.35 -4.26,-6.98 -10.31,-12.97 -17.22,-17.35 -10.64,-6.74 -23.14,-9.58 -33.93,-6.15zm55.93 -73.51c4.37,4.99 3.87,12.63 -1.14,17.01 -5.01,4.38 -12.62,3.85 -17,-1.13 -20.12,-23.04 -19.74,-47.68 -9.14,-67.42 5.12,-9.55 12.71,-17.84 21.51,-24.1 8.92,-6.34 19.13,-10.64 29.31,-12.1 19.62,-2.83 39.06,4.14 50.34,25.76 1.05,2.02 2.06,4.24 2.99,6.63 4.38,11.16 5.89,23.64 4.17,34.53 -1.98,12.45 -8.06,23.16 -18.84,28.79 -0.22,0.11 -0.43,0.22 -0.65,0.31 -0.79,0.38 -1.64,0.76 -2.55,1.11 -18.11,7.09 -33.06,2.09 -42.87,-7.33 -3.64,-3.47 -6.53,-7.59 -8.56,-11.91 -2.07,-4.4 -3.31,-9.12 -3.6,-13.75 -0.68,-11.18 3.95,-21.57 14.96,-26.61 6.05,-2.79 13.21,-0.13 15.99,5.9 2.79,6.05 0.14,13.22 -5.9,16.02 -0.78,0.35 -1.08,1.65 -0.97,3.26 0.09,1.52 0.55,3.19 1.35,4.89 0.83,1.75 2,3.42 3.44,4.82 3.71,3.53 9.66,5.27 17.36,2.28 0.16,-0.07 0.34,-0.15 0.53,-0.26l0.26 -0.14c3.33,-1.74 5.37,-5.93 6.18,-11.14 1.07,-6.78 0.08,-14.73 -2.77,-21.95 -0.53,-1.32 -1.17,-2.75 -1.94,-4.26 -5.72,-10.94 -15.56,-14.47 -25.49,-13.04 -6.44,0.93 -12.97,3.69 -18.74,7.79 -5.89,4.18 -10.94,9.67 -14.29,15.93 -6.16,11.51 -6.19,26.12 6.05,40.13zm137.88 520.92c3.14,3.58 2.78,9.04 -0.82,12.19 -3.6,3.15 -9.05,2.77 -12.19,-0.81 -14.43,-16.52 -14.15,-34.17 -6.56,-48.33 3.67,-6.85 9.11,-12.79 15.42,-17.28 6.41,-4.54 13.72,-7.63 21.01,-8.67 14.07,-2.03 28,2.97 36.09,18.47 0.75,1.44 1.47,3.03 2.14,4.75 3.14,8 4.22,16.95 2.99,24.74 -1.41,8.92 -5.78,16.62 -13.5,20.65 -0.16,0.07 -0.31,0.16 -0.47,0.22 -0.56,0.28 -1.18,0.56 -1.83,0.8 -12.99,5.08 -23.69,1.51 -30.73,-5.25 -2.6,-2.49 -4.68,-5.44 -6.14,-8.54 -1.48,-3.15 -2.37,-6.54 -2.58,-9.85 -0.49,-8.02 2.83,-15.47 10.73,-19.09 4.33,-2.01 9.46,-0.1 11.46,4.22 2,4.35 0.1,9.48 -4.23,11.49 -0.56,0.24 -0.78,1.18 -0.7,2.34 0.06,1.09 0.39,2.29 0.97,3.5 0.59,1.26 1.43,2.46 2.48,3.46 2.65,2.53 6.92,3.78 12.44,1.63 0.11,-0.05 0.24,-0.11 0.37,-0.18l0.19 -0.1c2.39,-1.25 3.85,-4.26 4.43,-7.99 0.77,-4.86 0.07,-10.56 -1.98,-15.74 -0.36,-0.94 -0.83,-1.96 -1.38,-3.05 -4.11,-7.83 -11.17,-10.38 -18.28,-9.35 -4.62,0.67 -9.3,2.65 -13.44,5.59 -4.22,3 -7.84,6.93 -10.25,11.41 -4.41,8.26 -4.43,18.73 4.35,28.78zm-316.21 -95.74c5.24,-0.2 9.62,3.88 9.83,9.11 0.21,5.22 -3.87,9.63 -9.1,9.83 -36.67,1.41 -59.31,-17.42 -69.71,-42.02 -5.13,-12.14 -7.18,-25.67 -6.35,-38.76 0.83,-13.12 4.53,-25.96 10.91,-36.69 11.89,-20 32.55,-32.6 60.62,-26.96 2.78,0.55 5.64,1.31 8.55,2.24 13.82,4.36 26.69,12.39 35.56,22.22 9.72,10.77 14.92,23.83 12.23,37.19 -0.04,0.2 -0.08,0.41 -0.13,0.61 -0.23,1.04 -0.52,2.1 -0.86,3.18 -6.76,21.34 -21.89,31.1 -37.28,33.05 -5.77,0.75 -11.52,0.36 -16.84,-0.92 -5.36,-1.31 -10.41,-3.59 -14.64,-6.61 -9.9,-7.02 -15.55,-17.89 -12.34,-30.36 1.3,-5.09 6.48,-8.15 11.57,-6.83 5.06,1.29 8.12,6.49 6.83,11.55 -0.99,3.86 1.2,7.53 4.88,10.15 2.27,1.61 5.08,2.87 8.22,3.63 3.18,0.78 6.58,1 9.91,0.58 8.77,-1.12 17.52,-6.99 21.64,-19.99 0.13,-0.45 0.26,-0.89 0.36,-1.35l0.07 -0.4c1.39,-6.9 -1.86,-14.25 -7.72,-20.75 -6.7,-7.42 -16.55,-13.53 -27.21,-16.9 -2.05,-0.64 -4.22,-1.21 -6.52,-1.67 -18.77,-3.77 -32.6,4.66 -40.57,18.03 -4.78,8.07 -7.59,17.94 -8.23,28.19 -0.64,10.29 0.92,20.8 4.87,30.16 7.56,17.87 24.25,31.55 51.48,30.49zm496.48 -160.4c-0.15,-5.81 4.44,-10.61 10.23,-10.74 5.8,-0.15 10.6,4.43 10.75,10.22 0.99,40.65 -20.21,65.46 -47.6,76.57 -13.52,5.5 -28.54,7.57 -43,6.45 -14.54,-1.12 -28.71,-5.42 -40.47,-12.65 -21.96,-13.46 -35.61,-36.53 -28.93,-67.54 0.64,-3.06 1.54,-6.22 2.6,-9.43 5.05,-15.23 14.13,-29.35 25.16,-39.03 12.08,-10.6 26.62,-16.17 41.37,-12.97 0.23,0.02 0.45,0.08 0.67,0.14 1.17,0.28 2.34,0.59 3.5,1.01 23.53,7.81 34.12,24.71 36.04,41.78 0.73,6.41 0.22,12.76 -1.28,18.62 -1.54,5.93 -4.13,11.47 -7.54,16.14 -7.94,10.85 -20.05,16.94 -33.79,13.19 -5.64,-1.54 -8.95,-7.31 -7.41,-12.93 1.5,-5.58 7.3,-8.88 12.9,-7.36 4.27,1.14 8.37,-1.21 11.33,-5.25 1.8,-2.5 3.24,-5.59 4.13,-9.04 0.92,-3.51 1.23,-7.29 0.82,-10.97 -1.11,-9.72 -7.49,-19.53 -21.84,-24.27 -0.5,-0.14 -0.98,-0.3 -1.48,-0.41l-0.43 -0.11c-7.62,-1.64 -15.81,1.85 -23.09,8.24 -8.34,7.3 -15.24,18.14 -19.15,29.87 -0.71,2.27 -1.41,4.66 -1.94,7.2 -4.46,20.72 4.65,36.18 19.31,45.2 8.89,5.42 19.78,8.67 31.12,9.53 11.38,0.88 23.02,-0.69 33.45,-4.93 19.92,-8.1 35.29,-26.36 34.55,-56.53zm-284.92 21.46c3.97,3.42 4.41,9.4 1,13.37 -3.41,3.96 -9.4,4.4 -13.36,0.99 -27.82,-23.93 -31.59,-53.14 -22.46,-78.24 4.51,-12.38 12.22,-23.68 21.75,-32.71 9.52,-9.05 20.99,-15.94 32.96,-19.45 22.31,-6.55 46.03,-1.71 62.75,21.53 1.65,2.3 3.23,4.81 4.73,7.47 7.15,12.6 11.11,27.24 10.91,40.48 -0.21,14.51 -5.29,27.62 -16.36,35.58 -0.17,0.11 -0.34,0.24 -0.51,0.34 -0.88,0.61 -1.81,1.2 -2.79,1.75 -19.48,11.04 -37.22,7.87 -49.81,-1.17 -4.73,-3.38 -8.69,-7.58 -11.7,-12.14 -3.04,-4.62 -5.18,-9.71 -6.24,-14.81 -2.46,-11.89 0.8,-23.68 11.64,-30.64 4.43,-2.84 10.3,-1.55 13.13,2.88 2.83,4.4 1.54,10.29 -2.87,13.11 -3.36,2.16 -4.25,6.34 -3.34,10.75 0.57,2.73 1.78,5.57 3.56,8.26 1.8,2.73 4.13,5.22 6.85,7.18 7.19,5.15 17.59,6.8 29.47,0.08 0.39,-0.23 0.78,-0.47 1.17,-0.74l0.33 -0.25c5.7,-4.1 8.33,-11.69 8.46,-20.43 0.14,-10 -2.91,-21.18 -8.42,-30.91 -1.06,-1.87 -2.28,-3.77 -3.64,-5.67 -11.18,-15.54 -27.06,-18.79 -41.99,-14.41 -8.99,2.64 -17.77,7.97 -25.22,15.03 -7.47,7.09 -13.49,15.87 -16.97,25.4 -6.64,18.24 -3.72,39.61 16.94,57.37zm152.02 -178.54c3.97,3.42 4.41,9.4 1,13.37 -3.41,3.96 -9.4,4.4 -13.36,0.99 -27.82,-23.93 -31.59,-53.14 -22.46,-78.24 4.51,-12.38 12.22,-23.68 21.75,-32.71 9.53,-9.05 20.99,-15.94 32.96,-19.45 22.31,-6.55 46.03,-1.71 62.75,21.53 1.65,2.3 3.23,4.8 4.73,7.47 7.15,12.6 11.11,27.24 10.91,40.48 -0.21,14.51 -5.29,27.62 -16.36,35.58 -0.17,0.12 -0.34,0.24 -0.51,0.35 -0.88,0.61 -1.81,1.2 -2.79,1.75 -19.48,11.04 -37.22,7.87 -49.81,-1.17 -4.73,-3.38 -8.69,-7.58 -11.7,-12.14 -3.04,-4.62 -5.18,-9.71 -6.23,-14.81 -2.47,-11.89 0.8,-23.68 11.63,-30.64 4.43,-2.84 10.3,-1.55 13.13,2.88 2.84,4.4 1.55,10.29 -2.87,13.11 -3.35,2.16 -4.25,6.34 -3.34,10.75 0.57,2.73 1.78,5.57 3.56,8.26 1.8,2.73 4.13,5.22 6.85,7.18 7.19,5.14 17.59,6.8 29.47,0.08 0.39,-0.24 0.78,-0.47 1.17,-0.74l0.33 -0.25c5.71,-4.1 8.33,-11.69 8.46,-20.43 0.14,-10 -2.91,-21.18 -8.42,-30.91 -1.06,-1.87 -2.28,-3.77 -3.64,-5.67 -11.18,-15.55 -27.06,-18.79 -41.99,-14.41 -8.99,2.65 -17.77,7.97 -25.22,15.03 -7.47,7.09 -13.49,15.87 -16.97,25.4 -6.64,18.24 -3.72,39.61 16.94,57.38zm-103.45 275.52c-0.52,-6.03 3.95,-11.33 9.97,-11.85 6.03,-0.51 11.33,3.95 11.85,9.97 1.57,18.11 -6.57,35.94 -19.81,49.16 -8.13,8.1 -18.23,14.53 -29.19,18.24 -11.27,3.82 -23.47,4.81 -35.43,1.87 -16.62,-4.06 -32.53,-15.47 -44.51,-37.04 -13.46,-24.24 -11.02,-43.46 -0.86,-56.93 6.6,-8.73 16.39,-14.66 27.14,-17.71 10.29,-2.94 21.65,-3.27 31.87,-0.91 17.71,4.1 32.2,15.95 33.91,35.97 1.67,19.55 -4.74,31.71 -14.39,38.36 -0.26,0.18 -0.51,0.34 -0.79,0.49 -4.57,2.95 -9.71,4.61 -14.97,5.12 -5.18,0.51 -10.52,-0.04 -15.5,-1.43 -13.04,-3.64 -24.47,-13.41 -26.61,-25.36 -1.06,-5.95 2.9,-11.64 8.86,-12.71 5.95,-1.06 11.64,2.91 12.7,8.87 0.6,3.34 5.32,6.5 10.9,8.06 2.53,0.7 5.12,0.99 7.53,0.75 1.87,-0.18 3.64,-0.7 5.08,-1.59l0.34 -0.24c3.62,-2.49 5.92,-8.18 5.04,-18.53 -0.75,-8.89 -8.05,-14.36 -17,-16.43 -6.66,-1.55 -14.14,-1.31 -20.98,0.64 -6.43,1.83 -12.1,5.14 -15.65,9.85 -5.24,6.94 -5.93,17.88 2.52,33.09 8.66,15.58 19.51,23.68 30.54,26.37 7.77,1.9 15.77,1.23 23.24,-1.3 7.75,-2.62 14.93,-7.21 20.73,-12.99 8.93,-8.9 14.46,-20.49 13.49,-31.79zm-171.02 129.59c-2.97,5.25 -9.64,7.11 -14.89,4.14 -5.25,-2.97 -7.12,-9.64 -4.14,-14.9 8.91,-15.8 25.68,-25.92 44.04,-29.34 11.26,-2.1 23.22,-1.71 34.35,1.42 11.44,3.21 22.05,9.28 30.26,18.43 11.41,12.71 18.1,31.08 15.81,55.62 -2.57,27.57 -15.41,42.03 -31.39,47.4 -10.36,3.49 -21.77,2.84 -32.35,-0.68 -10.13,-3.4 -19.69,-9.53 -26.78,-17.24 -12.28,-13.36 -17.55,-31.3 -7.67,-48.76 9.64,-17.06 21.79,-23.47 33.49,-23.5 0.31,-0.01 0.61,0.02 0.92,0.03 5.44,0.14 10.6,1.69 15.22,4.22 4.57,2.5 8.65,5.96 11.97,9.91 8.7,10.35 12.61,24.85 7.65,35.91 -2.48,5.51 -8.96,7.97 -14.46,5.47 -5.5,-2.48 -7.96,-8.96 -5.48,-14.46 1.39,-3.09 -0.71,-8.35 -4.43,-12.79 -1.69,-2.01 -3.66,-3.71 -5.79,-4.87 -1.65,-0.9 -3.39,-1.46 -5.09,-1.55l-0.42 0.01c-4.38,0.01 -9.49,3.41 -14.59,12.43 -4.4,7.77 -1.48,16.37 4.75,23.13 4.61,5.02 10.91,9.05 17.66,11.3 6.31,2.11 12.87,2.58 18.44,0.7 8.24,-2.77 14.97,-11.4 16.59,-28.7 1.65,-17.72 -2.74,-30.5 -10.29,-38.94 -5.34,-5.95 -12.32,-9.91 -19.89,-12.03 -7.87,-2.21 -16.37,-2.48 -24.42,-0.98 -12.39,2.31 -23.48,8.74 -29.04,18.6zm-100.57 -359.67c-5.75,1.83 -11.89,-1.36 -13.72,-7.11 -1.83,-5.75 1.36,-11.9 7.11,-13.73 17.29,-5.5 36.46,-1.5 52.24,8.49 9.67,6.13 18.16,14.56 24.19,24.43 6.19,10.14 9.83,21.8 9.61,34.1 -0.3,17.08 -7.91,35.09 -26.29,51.5 -20.66,18.44 -39.91,20.29 -55.27,13.35 -9.96,-4.5 -17.89,-12.74 -23.23,-22.53 -5.12,-9.39 -7.94,-20.39 -7.88,-30.86 0.1,-18.15 8.46,-34.87 27.58,-40.94 18.67,-5.92 31.93,-2.35 40.53,5.59 0.23,0.21 0.45,0.43 0.65,0.65 3.89,3.8 6.61,8.45 8.28,13.46 1.65,4.94 2.28,10.25 2.02,15.41 -0.67,13.51 -7.68,26.79 -18.85,31.51 -5.57,2.34 -11.98,-0.27 -14.32,-5.84 -2.34,-5.56 0.27,-11.98 5.84,-14.32 3.13,-1.32 5.17,-6.61 5.46,-12.39 0.13,-2.61 -0.16,-5.2 -0.92,-7.5 -0.59,-1.79 -1.49,-3.39 -2.67,-4.61l-0.32 -0.28c-3.22,-2.97 -9.28,-3.97 -19.16,-0.83 -8.5,2.69 -12.22,10.99 -12.27,20.17 -0.04,6.82 1.83,14.06 5.24,20.3 3.19,5.85 7.66,10.65 13.03,13.08 7.92,3.58 18.72,1.84 31.68,-9.73 13.28,-11.86 18.77,-24.2 18.97,-35.54 0.14,-7.98 -2.27,-15.64 -6.37,-22.35 -4.26,-6.98 -10.31,-12.97 -17.22,-17.35 -10.64,-6.74 -23.14,-9.58 -33.94,-6.15z"/>
    <path class="fil7" d="M3462.4 881.21c5.75,1.83 11.9,-1.36 13.72,-7.11 1.83,-5.75 -1.36,-11.9 -7.11,-13.73 -17.29,-5.5 -36.45,-1.5 -52.24,8.49 -9.67,6.13 -18.16,14.56 -24.19,24.43 -6.19,10.14 -9.83,21.8 -9.61,34.09 0.3,17.08 7.91,35.09 26.3,51.5 20.65,18.45 39.91,20.29 55.27,13.35 9.96,-4.5 17.89,-12.74 23.23,-22.53 5.12,-9.39 7.94,-20.39 7.88,-30.86 -0.1,-18.15 -8.46,-34.87 -27.58,-40.94 -18.67,-5.92 -31.93,-2.35 -40.53,5.59 -0.23,0.21 -0.45,0.43 -0.65,0.65 -3.89,3.8 -6.61,8.45 -8.28,13.46 -1.65,4.94 -2.28,10.25 -2.02,15.41 0.67,13.51 7.68,26.79 18.85,31.51 5.57,2.34 11.98,-0.27 14.33,-5.84 2.34,-5.57 -0.27,-11.98 -5.84,-14.33 -3.13,-1.32 -5.17,-6.61 -5.46,-12.39 -0.13,-2.61 0.15,-5.2 0.92,-7.5 0.59,-1.79 1.49,-3.39 2.67,-4.6l0.32 -0.28c3.22,-2.97 9.28,-3.97 19.16,-0.83 8.5,2.69 12.23,10.99 12.27,20.18 0.04,6.82 -1.83,14.06 -5.24,20.29 -3.19,5.85 -7.66,10.66 -13.02,13.08 -7.92,3.58 -18.72,1.84 -31.69,-9.73 -13.28,-11.86 -18.77,-24.2 -18.97,-35.54 -0.14,-7.98 2.27,-15.63 6.37,-22.35 4.26,-6.98 10.31,-12.97 17.22,-17.35 10.64,-6.74 23.14,-9.58 33.93,-6.15zm-55.93 -73.51c-4.37,4.99 -3.87,12.63 1.14,17.01 5.01,4.38 12.63,3.85 17.01,-1.13 20.12,-23.04 19.74,-47.68 9.14,-67.42 -5.12,-9.55 -12.72,-17.84 -21.51,-24.1 -8.92,-6.34 -19.13,-10.64 -29.31,-12.1 -19.62,-2.83 -39.06,4.14 -50.35,25.76 -1.05,2.02 -2.06,4.24 -2.99,6.63 -4.37,11.16 -5.88,23.64 -4.17,34.53 1.98,12.45 8.06,23.16 18.84,28.79 0.21,0.11 0.42,0.22 0.65,0.31 0.79,0.38 1.64,0.76 2.55,1.11 18.12,7.09 33.07,2.09 42.87,-7.33 3.64,-3.47 6.52,-7.59 8.56,-11.91 2.07,-4.4 3.31,-9.12 3.6,-13.75 0.68,-11.18 -3.95,-21.57 -14.96,-26.61 -6.05,-2.79 -13.21,-0.13 -16,5.9 -2.79,6.05 -0.14,13.22 5.9,16.02 0.78,0.35 1.08,1.65 0.97,3.26 -0.08,1.52 -0.55,3.19 -1.35,4.89 -0.83,1.75 -2,3.42 -3.44,4.82 -3.71,3.53 -9.66,5.27 -17.36,2.28 -0.17,-0.07 -0.34,-0.15 -0.53,-0.26l-0.27 -0.14c-3.33,-1.74 -5.37,-5.93 -6.18,-11.14 -1.07,-6.78 -0.08,-14.73 2.77,-21.95 0.53,-1.32 1.17,-2.75 1.94,-4.26 5.72,-10.94 15.56,-14.47 25.49,-13.04 6.44,0.93 12.97,3.69 18.74,7.79 5.89,4.18 10.94,9.67 14.29,15.93 6.16,11.51 6.19,26.12 -6.05,40.13zm-137.88 520.92c-3.14,3.58 -2.78,9.04 0.81,12.19 3.6,3.15 9.06,2.77 12.19,-0.81 14.43,-16.52 14.15,-34.17 6.56,-48.33 -3.66,-6.85 -9.11,-12.79 -15.42,-17.28 -6.41,-4.54 -13.72,-7.63 -21.01,-8.67 -14.07,-2.03 -28,2.97 -36.09,18.47 -0.76,1.44 -1.48,3.03 -2.14,4.75 -3.14,8 -4.22,16.95 -2.99,24.74 1.41,8.92 5.78,16.62 13.5,20.65 0.16,0.07 0.31,0.16 0.46,0.22 0.57,0.28 1.18,0.56 1.83,0.8 12.99,5.08 23.69,1.51 30.73,-5.25 2.6,-2.49 4.68,-5.44 6.14,-8.54 1.48,-3.15 2.37,-6.54 2.58,-9.85 0.49,-8.02 -2.83,-15.47 -10.73,-19.09 -4.33,-2.01 -9.46,-0.1 -11.46,4.22 -2,4.35 -0.09,9.48 4.23,11.49 0.57,0.24 0.78,1.18 0.7,2.34 -0.06,1.09 -0.39,2.29 -0.96,3.5 -0.6,1.26 -1.43,2.46 -2.48,3.46 -2.65,2.53 -6.92,3.78 -12.44,1.63 -0.11,-0.05 -0.24,-0.11 -0.37,-0.18l-0.19 -0.1c-2.39,-1.25 -3.85,-4.26 -4.43,-7.99 -0.77,-4.86 -0.07,-10.56 1.98,-15.74 0.36,-0.94 0.83,-1.96 1.38,-3.05 4.11,-7.83 11.16,-10.38 18.28,-9.35 4.62,0.67 9.3,2.65 13.44,5.59 4.22,3 7.84,6.93 10.25,11.41 4.41,8.26 4.43,18.73 -4.35,28.78zm316.21 -95.74c-5.24,-0.2 -9.63,3.88 -9.83,9.11 -0.2,5.22 3.88,9.63 9.1,9.83 36.67,1.41 59.31,-17.42 69.71,-42.02 5.13,-12.14 7.17,-25.67 6.35,-38.76 -0.83,-13.12 -4.54,-25.96 -10.91,-36.69 -11.89,-20 -32.55,-32.6 -60.62,-26.96 -2.78,0.55 -5.63,1.31 -8.55,2.24 -13.82,4.36 -26.68,12.39 -35.56,22.22 -9.72,10.77 -14.92,23.83 -12.23,37.19 0.04,0.2 0.08,0.41 0.13,0.61 0.23,1.04 0.51,2.1 0.86,3.18 6.76,21.34 21.89,31.1 37.28,33.05 5.77,0.75 11.53,0.36 16.84,-0.92 5.36,-1.31 10.4,-3.59 14.64,-6.61 9.9,-7.02 15.55,-17.89 12.33,-30.36 -1.3,-5.09 -6.48,-8.15 -11.57,-6.83 -5.07,1.29 -8.12,6.49 -6.83,11.55 0.99,3.86 -1.2,7.53 -4.88,10.15 -2.27,1.61 -5.08,2.87 -8.22,3.63 -3.18,0.78 -6.58,1 -9.91,0.58 -8.77,-1.12 -17.52,-6.99 -21.64,-19.99 -0.13,-0.45 -0.26,-0.89 -0.36,-1.35l-0.07 -0.4c-1.39,-6.9 1.87,-14.25 7.72,-20.75 6.7,-7.42 16.55,-13.53 27.21,-16.9 2.05,-0.64 4.22,-1.21 6.52,-1.67 18.77,-3.77 32.61,4.66 40.58,18.03 4.78,8.07 7.59,17.94 8.23,28.19 0.64,10.29 -0.92,20.8 -4.87,30.16 -7.56,17.87 -24.25,31.55 -51.47,30.49zm-496.48 -160.4c0.15,-5.81 -4.44,-10.61 -10.23,-10.74 -5.8,-0.15 -10.61,4.43 -10.75,10.22 -0.99,40.65 20.21,65.46 47.6,76.57 13.52,5.5 28.54,7.57 43,6.45 14.54,-1.12 28.71,-5.42 40.47,-12.65 21.96,-13.46 35.61,-36.53 28.93,-67.54 -0.64,-3.06 -1.54,-6.22 -2.61,-9.43 -5.04,-15.23 -14.13,-29.35 -25.16,-39.03 -12.08,-10.6 -26.62,-16.17 -41.37,-12.97 -0.23,0.02 -0.45,0.08 -0.67,0.14 -1.17,0.28 -2.33,0.59 -3.5,1.01 -23.53,7.81 -34.12,24.71 -36.04,41.78 -0.73,6.41 -0.22,12.76 1.28,18.62 1.54,5.93 4.13,11.47 7.54,16.14 7.94,10.85 20.05,16.94 33.79,13.19 5.63,-1.54 8.95,-7.31 7.41,-12.93 -1.5,-5.58 -7.29,-8.88 -12.89,-7.36 -4.27,1.14 -8.38,-1.21 -11.33,-5.25 -1.8,-2.5 -3.24,-5.59 -4.13,-9.04 -0.91,-3.51 -1.23,-7.29 -0.81,-10.97 1.11,-9.72 7.49,-19.53 21.84,-24.27 0.5,-0.14 0.98,-0.3 1.48,-0.41l0.43 -0.11c7.62,-1.64 15.81,1.85 23.08,8.24 8.34,7.3 15.24,18.14 19.15,29.87 0.71,2.27 1.41,4.66 1.94,7.2 4.46,20.72 -4.65,36.18 -19.31,45.2 -8.89,5.42 -19.78,8.67 -31.13,9.53 -11.38,0.88 -23.02,-0.69 -33.45,-4.93 -19.92,-8.1 -35.29,-26.36 -34.55,-56.53zm284.92 21.46c-3.97,3.42 -4.41,9.4 -1,13.37 3.41,3.96 9.4,4.4 13.36,0.99 27.82,-23.93 31.59,-53.14 22.46,-78.24 -4.51,-12.38 -12.22,-23.68 -21.75,-32.71 -9.53,-9.05 -20.99,-15.94 -32.96,-19.45 -22.31,-6.55 -46.03,-1.71 -62.75,21.53 -1.65,2.3 -3.23,4.81 -4.73,7.47 -7.15,12.6 -11.11,27.24 -10.91,40.48 0.21,14.51 5.29,27.62 16.36,35.58 0.17,0.11 0.34,0.24 0.51,0.34 0.88,0.61 1.81,1.2 2.79,1.75 19.48,11.04 37.22,7.87 49.81,-1.17 4.73,-3.38 8.69,-7.58 11.7,-12.14 3.04,-4.62 5.18,-9.71 6.23,-14.81 2.47,-11.89 -0.8,-23.68 -11.63,-30.64 -4.43,-2.84 -10.3,-1.55 -13.13,2.88 -2.83,4.4 -1.54,10.29 2.87,13.11 3.36,2.16 4.25,6.34 3.34,10.75 -0.57,2.73 -1.78,5.57 -3.56,8.26 -1.8,2.73 -4.13,5.22 -6.85,7.18 -7.19,5.15 -17.59,6.8 -29.47,0.08 -0.38,-0.23 -0.78,-0.47 -1.17,-0.74l-0.33 -0.25c-5.71,-4.1 -8.33,-11.69 -8.46,-20.43 -0.14,-10 2.91,-21.18 8.42,-30.91 1.06,-1.87 2.28,-3.77 3.64,-5.67 11.18,-15.54 27.05,-18.79 41.99,-14.41 8.99,2.64 17.77,7.97 25.21,15.03 7.47,7.09 13.49,15.87 16.97,25.4 6.64,18.24 3.72,39.61 -16.94,57.37zm-152.02 -178.54c-3.97,3.42 -4.41,9.4 -1,13.37 3.41,3.96 9.4,4.4 13.36,0.99 27.82,-23.93 31.59,-53.14 22.46,-78.24 -4.51,-12.38 -12.22,-23.68 -21.75,-32.71 -9.52,-9.05 -20.99,-15.94 -32.96,-19.45 -22.31,-6.55 -46.03,-1.71 -62.75,21.53 -1.64,2.3 -3.23,4.8 -4.73,7.47 -7.15,12.6 -11.11,27.24 -10.91,40.48 0.21,14.51 5.29,27.62 16.36,35.58 0.17,0.12 0.34,0.24 0.51,0.35 0.88,0.61 1.81,1.2 2.79,1.75 19.48,11.04 37.22,7.87 49.81,-1.17 4.73,-3.38 8.69,-7.58 11.7,-12.14 3.04,-4.62 5.18,-9.71 6.23,-14.81 2.47,-11.89 -0.8,-23.68 -11.63,-30.64 -4.43,-2.84 -10.3,-1.55 -13.13,2.88 -2.83,4.4 -1.54,10.29 2.87,13.11 3.36,2.16 4.25,6.34 3.34,10.75 -0.57,2.73 -1.78,5.57 -3.56,8.26 -1.8,2.73 -4.13,5.22 -6.85,7.18 -7.19,5.14 -17.59,6.8 -29.47,0.08 -0.38,-0.24 -0.78,-0.47 -1.17,-0.74l-0.33 -0.25c-5.7,-4.1 -8.33,-11.69 -8.46,-20.43 -0.14,-10 2.91,-21.18 8.42,-30.91 1.06,-1.87 2.28,-3.77 3.64,-5.67 11.18,-15.55 27.06,-18.79 41.99,-14.41 8.99,2.65 17.77,7.97 25.22,15.03 7.47,7.09 13.49,15.87 16.96,25.4 6.64,18.24 3.72,39.61 -16.94,57.38zm103.46 275.52c0.52,-6.03 -3.95,-11.33 -9.97,-11.85 -6.03,-0.51 -11.33,3.95 -11.85,9.97 -1.56,18.11 6.57,35.94 19.82,49.16 8.12,8.1 18.23,14.53 29.19,18.24 11.27,3.82 23.46,4.81 35.43,1.87 16.62,-4.06 32.53,-15.47 44.51,-37.04 13.46,-24.24 11.02,-43.46 0.86,-56.93 -6.6,-8.73 -16.4,-14.66 -27.14,-17.71 -10.29,-2.94 -21.65,-3.27 -31.87,-0.91 -17.71,4.1 -32.2,15.95 -33.91,35.97 -1.67,19.55 4.74,31.71 14.39,38.36 0.26,0.18 0.52,0.34 0.79,0.49 4.57,2.95 9.71,4.61 14.97,5.12 5.18,0.51 10.52,-0.04 15.5,-1.43 13.04,-3.64 24.47,-13.41 26.61,-25.36 1.06,-5.95 -2.91,-11.64 -8.86,-12.71 -5.95,-1.06 -11.64,2.91 -12.7,8.87 -0.6,3.34 -5.32,6.5 -10.9,8.06 -2.53,0.7 -5.12,0.99 -7.54,0.75 -1.87,-0.18 -3.63,-0.7 -5.08,-1.59l-0.34 -0.24c-3.62,-2.49 -5.92,-8.18 -5.04,-18.53 0.75,-8.89 8.05,-14.36 17,-16.43 6.66,-1.55 14.14,-1.31 20.98,0.64 6.43,1.83 12.1,5.14 15.65,9.85 5.24,6.94 5.93,17.88 -2.52,33.09 -8.66,15.58 -19.51,23.68 -30.53,26.37 -7.77,1.9 -15.78,1.23 -23.24,-1.3 -7.75,-2.62 -14.93,-7.21 -20.73,-12.99 -8.93,-8.9 -14.46,-20.49 -13.49,-31.79zm171.02 129.59c2.97,5.25 9.64,7.11 14.89,4.14 5.25,-2.97 7.12,-9.64 4.14,-14.9 -8.92,-15.8 -25.68,-25.92 -44.04,-29.34 -11.26,-2.1 -23.22,-1.71 -34.35,1.42 -11.45,3.21 -22.05,9.28 -30.26,18.43 -11.41,12.71 -18.1,31.08 -15.81,55.62 2.57,27.57 15.41,42.03 31.39,47.4 10.36,3.49 21.78,2.84 32.35,-0.68 10.13,-3.4 19.69,-9.53 26.78,-17.24 12.28,-13.36 17.55,-31.3 7.67,-48.76 -9.65,-17.06 -21.79,-23.47 -33.49,-23.5 -0.31,-0.01 -0.61,0.02 -0.92,0.03 -5.44,0.14 -10.6,1.69 -15.22,4.22 -4.58,2.5 -8.66,5.96 -11.98,9.91 -8.7,10.35 -12.61,24.85 -7.64,35.91 2.48,5.51 8.96,7.97 14.46,5.47 5.5,-2.48 7.96,-8.96 5.48,-14.46 -1.39,-3.09 0.71,-8.35 4.43,-12.79 1.69,-2.01 3.65,-3.71 5.79,-4.87 1.65,-0.9 3.39,-1.46 5.09,-1.55l0.42 0.01c4.38,0.01 9.49,3.41 14.59,12.43 4.4,7.77 1.48,16.37 -4.75,23.13 -4.61,5.02 -10.92,9.05 -17.66,11.3 -6.31,2.11 -12.86,2.58 -18.44,0.7 -8.23,-2.77 -14.97,-11.4 -16.59,-28.7 -1.65,-17.72 2.74,-30.5 10.3,-38.94 5.34,-5.95 12.32,-9.91 19.89,-12.03 7.87,-2.21 16.37,-2.48 24.42,-0.98 12.39,2.31 23.48,8.74 29.04,18.6zm100.57 -359.67c5.75,1.83 11.9,-1.36 13.72,-7.11 1.83,-5.75 -1.35,-11.9 -7.1,-13.73 -17.3,-5.5 -36.46,-1.5 -52.24,8.49 -9.67,6.13 -18.16,14.56 -24.19,24.43 -6.19,10.14 -9.83,21.8 -9.61,34.1 0.3,17.08 7.91,35.09 26.3,51.5 20.65,18.44 39.91,20.29 55.27,13.35 9.96,-4.5 17.89,-12.74 23.23,-22.53 5.12,-9.39 7.94,-20.39 7.88,-30.86 -0.1,-18.15 -8.46,-34.87 -27.58,-40.94 -18.67,-5.92 -31.93,-2.35 -40.52,5.59 -0.23,0.21 -0.45,0.43 -0.65,0.65 -3.89,3.8 -6.61,8.45 -8.28,13.46 -1.65,4.94 -2.28,10.25 -2.02,15.41 0.67,13.51 7.68,26.79 18.85,31.51 5.57,2.34 11.98,-0.27 14.33,-5.84 2.34,-5.56 -0.27,-11.98 -5.84,-14.32 -3.13,-1.32 -5.17,-6.61 -5.46,-12.39 -0.13,-2.61 0.16,-5.2 0.92,-7.5 0.59,-1.79 1.49,-3.39 2.67,-4.61l0.32 -0.28c3.22,-2.97 9.28,-3.97 19.16,-0.83 8.5,2.69 12.23,10.99 12.27,20.17 0.04,6.82 -1.83,14.06 -5.24,20.3 -3.19,5.85 -7.66,10.65 -13.02,13.08 -7.92,3.58 -18.72,1.84 -31.69,-9.73 -13.28,-11.86 -18.77,-24.2 -18.97,-35.54 -0.14,-7.98 2.27,-15.64 6.37,-22.35 4.26,-6.98 10.31,-12.97 17.22,-17.35 10.64,-6.74 23.14,-9.58 33.93,-6.15z"/>
    <path class="fil7" d="M1629.73 1029.85c0.7,7.39 -4.73,13.95 -12.12,14.65 -7.39,0.7 -13.95,-4.73 -14.65,-12.12 -2.11,-22.23 7.69,-44.24 23.82,-60.6 9.89,-10.04 22.24,-18.05 35.68,-22.72 13.81,-4.81 28.78,-6.15 43.5,-2.68 20.46,4.82 40.13,18.66 55.08,45.04 16.8,29.64 14,53.28 1.65,69.94 -8.01,10.8 -19.98,18.19 -33.14,22.06 -12.62,3.71 -26.58,4.23 -39.16,1.43 -21.8,-4.85 -39.73,-19.25 -42.04,-43.84 -2.25,-23.99 5.49,-39.01 17.27,-47.28 0.32,-0.22 0.63,-0.42 0.96,-0.61 5.59,-3.68 11.88,-5.75 18.34,-6.45 6.37,-0.7 12.92,-0.07 19.06,1.58 16.06,4.33 30.21,16.22 32.98,30.87 1.36,7.31 -3.45,14.34 -10.75,15.71 -7.3,1.36 -14.34,-3.45 -15.71,-10.75 -0.77,-4.11 -6.6,-7.94 -13.48,-9.79 -3.11,-0.84 -6.3,-1.17 -9.26,-0.84 -2.31,0.25 -4.46,0.91 -6.23,2.01l-0.42 0.3c-4.41,3.1 -7.19,10.12 -5.99,22.82 1.02,10.93 10.03,17.56 21.06,20.01 8.19,1.82 17.38,1.46 25.77,-1.02 7.86,-2.31 14.81,-6.44 19.12,-12.26 6.37,-8.59 7.1,-22.04 -3.44,-40.64 -10.8,-19.06 -24.22,-28.88 -37.79,-32.07 -9.56,-2.25 -19.39,-1.34 -28.53,1.84 -9.5,3.31 -18.28,9.02 -25.35,16.19 -10.88,11.04 -17.55,25.34 -16.23,39.2z"/>
    <path class="fil7" d="M2205.58 1365.15c-5.38,2.75 -11.98,0.62 -14.73,-4.75 -2.75,-5.38 -0.62,-11.98 4.76,-14.73 16.17,-8.29 35.76,-7.5 53,-0.23 10.57,4.46 20.34,11.38 27.92,20.14 7.79,8.99 13.31,19.91 15.12,32.09 2.52,16.92 -2.03,35.96 -17.47,55.21 -17.36,21.63 -36.07,26.62 -52.39,22.3 -10.58,-2.8 -19.77,-9.64 -26.66,-18.42 -6.61,-8.42 -11.2,-18.82 -12.88,-29.18 -2.9,-17.94 2.6,-35.84 20.49,-44.99 17.46,-8.93 31.15,-7.59 40.95,-1.17 0.26,0.17 0.51,0.35 0.76,0.54 4.46,3.12 7.92,7.25 10.39,11.93 2.44,4.61 3.94,9.75 4.54,14.89 1.56,13.45 -3.17,27.73 -13.42,34.23 -5.11,3.23 -11.88,1.71 -15.11,-3.4 -3.23,-5.11 -1.71,-11.88 3.4,-15.11 2.87,-1.82 4.02,-7.38 3.35,-13.14 -0.3,-2.6 -1.01,-5.11 -2.15,-7.25 -0.88,-1.67 -2.03,-3.1 -3.4,-4.11l-0.36 -0.22c-3.67,-2.41 -9.82,-2.39 -19.06,2.34 -7.95,4.06 -10.26,12.87 -8.79,21.95 1.09,6.74 4.13,13.58 8.53,19.18 4.11,5.25 9.33,9.26 15.02,10.77 8.41,2.23 18.8,-1.27 29.69,-14.84 11.16,-13.9 14.55,-27.01 12.88,-38.23 -1.18,-7.91 -4.82,-15.07 -9.98,-21.02 -5.36,-6.19 -12.32,-11.11 -19.87,-14.29 -11.63,-4.91 -24.44,-5.65 -34.53,-0.48z"/>
    <path class="fil7" d="M2770.87 1075.35c-5.38,2.75 -11.97,0.62 -14.73,-4.75 -2.75,-5.38 -0.62,-11.98 4.75,-14.73 16.17,-8.29 35.76,-7.5 53,-0.23 10.57,4.46 20.34,11.38 27.92,20.14 7.79,8.99 13.31,19.91 15.12,32.09 2.52,16.92 -2.03,35.96 -17.47,55.21 -17.36,21.63 -36.07,26.62 -52.39,22.3 -10.58,-2.8 -19.77,-9.64 -26.66,-18.42 -6.61,-8.42 -11.2,-18.82 -12.87,-29.18 -2.9,-17.94 2.6,-35.84 20.49,-44.99 17.46,-8.93 31.15,-7.59 40.95,-1.17 0.26,0.17 0.51,0.35 0.76,0.54 4.46,3.12 7.92,7.25 10.39,11.93 2.45,4.61 3.94,9.75 4.54,14.89 1.56,13.45 -3.17,27.73 -13.42,34.23 -5.11,3.23 -11.88,1.71 -15.11,-3.4 -3.23,-5.11 -1.71,-11.88 3.4,-15.11 2.87,-1.82 4.02,-7.38 3.35,-13.14 -0.3,-2.6 -1.02,-5.11 -2.15,-7.25 -0.88,-1.67 -2.03,-3.1 -3.4,-4.11l-0.36 -0.22c-3.67,-2.4 -9.82,-2.39 -19.06,2.34 -7.95,4.06 -10.26,12.87 -8.79,21.95 1.09,6.74 4.13,13.58 8.53,19.18 4.12,5.25 9.33,9.26 15.03,10.77 8.41,2.23 18.8,-1.27 29.69,-14.84 11.16,-13.9 14.55,-27.01 12.88,-38.23 -1.18,-7.91 -4.82,-15.07 -9.98,-21.02 -5.36,-6.19 -12.32,-11.11 -19.87,-14.29 -11.63,-4.9 -24.44,-5.65 -34.53,-0.48z"/>
    <path class="fil7" d="M1844.19 1372.21c-7.17,3.52 -15.96,0.8 -19.63,-6.07 -3.67,-6.87 -0.83,-15.3 6.34,-18.81 21.56,-10.59 47.67,-9.58 70.65,-0.3 14.08,5.69 27.12,14.54 37.22,25.73 10.39,11.49 17.75,25.43 20.16,40.99 3.36,21.62 -2.71,45.94 -23.29,70.53 -23.14,27.63 -48.09,34.01 -69.83,28.49 -14.1,-3.58 -26.35,-12.31 -35.53,-23.53 -8.81,-10.76 -14.93,-24.05 -17.16,-37.27 -3.86,-22.92 3.46,-45.78 27.31,-57.47 23.28,-11.41 41.53,-9.7 54.59,-1.5 0.35,0.22 0.68,0.45 1.01,0.69 5.95,3.98 10.56,9.26 13.86,15.23 3.26,5.88 5.26,12.45 6.05,19.02 2.08,17.18 -4.22,35.42 -17.89,43.73 -6.81,4.13 -15.84,2.18 -20.14,-4.35 -4.31,-6.53 -2.28,-15.18 4.53,-19.31 3.83,-2.33 5.35,-9.43 4.46,-16.78 -0.4,-3.33 -1.35,-6.53 -2.86,-9.27 -1.18,-2.13 -2.71,-3.96 -4.53,-5.25l-0.48 -0.28c-4.89,-3.07 -13.08,-3.05 -25.41,2.99 -10.6,5.19 -13.67,16.44 -11.72,28.04 1.45,8.61 5.5,17.35 11.36,24.51 5.49,6.7 12.43,11.82 20.03,13.75 11.21,2.85 25.06,-1.62 39.58,-18.95 14.88,-17.77 19.39,-34.5 17.16,-48.84 -1.57,-10.1 -6.43,-19.25 -13.3,-26.85 -7.15,-7.91 -16.43,-14.2 -26.49,-18.26 -15.5,-6.26 -32.58,-7.21 -46.03,-0.61z"/>
    <path class="fil7" d="M2272.98 805.23c-5.77,2.83 -12.84,0.64 -15.79,-4.88 -2.95,-5.53 -0.67,-12.3 5.1,-15.13 17.33,-8.52 38.33,-7.7 56.81,-0.24 11.33,4.58 21.81,11.69 29.93,20.69 8.35,9.24 14.27,20.45 16.21,32.96 2.7,17.38 -2.18,36.94 -18.73,56.71 -18.61,22.22 -38.67,27.35 -56.16,22.91 -11.34,-2.88 -21.19,-9.9 -28.58,-18.92 -7.08,-8.66 -12.01,-19.34 -13.8,-29.97 -3.11,-18.43 2.78,-36.82 21.96,-46.21 18.72,-9.17 33.39,-7.8 43.9,-1.2 0.28,0.18 0.55,0.36 0.81,0.55 4.78,3.2 8.49,7.45 11.14,12.25 2.62,4.74 4.23,10.01 4.87,15.29 1.67,13.82 -3.4,28.48 -14.38,35.17 -5.48,3.32 -12.74,1.76 -16.2,-3.5 -3.46,-5.25 -1.83,-12.2 3.65,-15.52 3.08,-1.87 4.31,-7.58 3.59,-13.5 -0.32,-2.67 -1.09,-5.25 -2.3,-7.45 -0.95,-1.71 -2.17,-3.19 -3.64,-4.22l-0.38 -0.23c-3.93,-2.47 -10.52,-2.46 -20.43,2.4 -8.53,4.18 -10.99,13.23 -9.42,22.55 1.17,6.93 4.43,13.95 9.14,19.71 4.41,5.39 10,9.51 16.11,11.06 9.01,2.29 20.15,-1.3 31.82,-15.24 11.96,-14.29 15.59,-27.74 13.8,-39.28 -1.26,-8.12 -5.17,-15.48 -10.7,-21.59 -5.75,-6.36 -13.21,-11.41 -21.3,-14.68 -12.46,-5.04 -26.2,-5.8 -37.01,-0.49z"/>
    <path class="fil7" d="M2312.5 1582.66c0.47,4.94 -3.16,9.33 -8.1,9.79 -4.94,0.47 -9.33,-3.16 -9.8,-8.1 -1.41,-14.86 5.14,-29.57 15.93,-40.52 6.61,-6.71 14.87,-12.07 23.85,-15.19 9.23,-3.21 19.24,-4.11 29.08,-1.79 13.68,3.22 26.83,12.48 36.82,30.11 11.23,19.82 9.36,35.62 1.1,46.75 -5.35,7.22 -13.36,12.16 -22.15,14.75 -8.44,2.49 -17.77,2.83 -26.18,0.96 -14.57,-3.24 -26.56,-12.87 -28.1,-29.3 -1.51,-16.04 3.67,-26.08 11.55,-31.61 0.21,-0.15 0.42,-0.28 0.64,-0.41 3.74,-2.46 7.94,-3.84 12.26,-4.31 4.26,-0.47 8.64,-0.05 12.74,1.06 10.74,2.9 20.19,10.84 22.04,20.64 0.91,4.88 -2.3,9.59 -7.19,10.5 -4.88,0.91 -9.59,-2.3 -10.5,-7.19 -0.52,-2.74 -4.41,-5.31 -9.01,-6.54 -2.08,-0.56 -4.21,-0.78 -6.19,-0.57 -1.54,0.17 -2.98,0.61 -4.16,1.34l-0.28 0.2c-2.95,2.07 -4.81,6.76 -4.01,15.26 0.68,7.31 6.71,11.74 14.08,13.38 5.47,1.22 11.62,0.97 17.23,-0.68 5.26,-1.55 9.9,-4.31 12.78,-8.2 4.25,-5.74 4.74,-14.73 -2.3,-27.16 -7.22,-12.74 -16.19,-19.31 -25.27,-21.44 -6.39,-1.51 -12.96,-0.9 -19.07,1.23 -6.35,2.21 -12.22,6.03 -16.95,10.82 -7.28,7.38 -11.73,16.94 -10.85,26.21z"/>
    <path class="fil7" d="M2679.19 962.93c0.47,4.94 -3.16,9.33 -8.1,9.79 -4.94,0.47 -9.33,-3.16 -9.79,-8.1 -1.42,-14.86 5.14,-29.57 15.92,-40.51 6.61,-6.71 14.87,-12.07 23.85,-15.19 9.23,-3.21 19.24,-4.11 29.08,-1.79 13.68,3.22 26.83,12.47 36.82,30.11 11.23,19.82 9.36,35.62 1.11,46.75 -5.35,7.22 -13.36,12.16 -22.16,14.75 -8.44,2.48 -17.77,2.83 -26.18,0.96 -14.58,-3.24 -26.56,-12.87 -28.11,-29.3 -1.51,-16.04 3.67,-26.08 11.55,-31.61 0.21,-0.15 0.42,-0.28 0.64,-0.41 3.73,-2.46 7.94,-3.84 12.26,-4.31 4.26,-0.47 8.64,-0.05 12.74,1.06 10.74,2.89 20.19,10.84 22.05,20.64 0.91,4.88 -2.3,9.59 -7.19,10.5 -4.88,0.91 -9.58,-2.3 -10.5,-7.19 -0.52,-2.74 -4.41,-5.31 -9.01,-6.55 -2.08,-0.56 -4.21,-0.78 -6.19,-0.57 -1.54,0.17 -2.99,0.61 -4.17,1.34l-0.28 0.2c-2.95,2.07 -4.81,6.76 -4.01,15.26 0.69,7.3 6.71,11.74 14.08,13.38 5.47,1.22 11.62,0.97 17.23,-0.68 5.25,-1.55 9.9,-4.31 12.78,-8.19 4.26,-5.74 4.74,-14.73 -2.3,-27.17 -7.22,-12.74 -16.19,-19.31 -25.26,-21.44 -6.4,-1.51 -12.96,-0.9 -19.07,1.23 -6.35,2.21 -12.22,6.03 -16.94,10.82 -7.28,7.38 -11.74,16.94 -10.85,26.21z"/>
    <path class="fil7" d="M2579.98 1064.59c-6.43,-3.72 -8.63,-11.95 -4.91,-18.37 3.72,-6.43 11.95,-8.63 18.37,-4.91 19.34,11.17 31.58,31.92 35.56,54.55 2.44,13.87 1.81,28.58 -2.18,42.24 -4.09,14.04 -11.68,27.01 -23.04,37 -15.79,13.87 -38.48,21.87 -68.64,18.75 -33.89,-3.5 -51.52,-19.49 -57.94,-39.21 -4.15,-12.79 -3.23,-26.83 1.25,-39.79 4.29,-12.44 11.97,-24.11 21.54,-32.74 16.59,-14.95 38.73,-21.2 60.09,-8.83 20.85,12.07 28.6,27.1 28.5,41.49 -0,0.39 -0.02,0.76 -0.06,1.14 -0.24,6.69 -2.21,13.01 -5.38,18.68 -3.13,5.59 -7.43,10.57 -12.34,14.61 -12.85,10.57 -30.73,15.21 -44.28,8.96 -6.74,-3.12 -9.68,-11.12 -6.56,-17.87 3.12,-6.74 11.13,-9.69 17.87,-6.56 3.79,1.75 10.29,-0.77 15.79,-5.3 2.49,-2.04 4.6,-4.46 6.06,-7.05 1.14,-2.02 1.85,-4.16 1.98,-6.24l-0.01 -0.52c0.04,-5.39 -4.08,-11.73 -15.12,-18.12 -9.5,-5.5 -20.13,-2.01 -28.52,5.55 -6.23,5.62 -11.27,13.32 -14.12,21.59 -2.67,7.75 -3.34,15.8 -1.1,22.69 3.31,10.17 13.84,18.56 35.1,20.76 21.79,2.25 37.57,-2.98 48.05,-12.19 7.38,-6.49 12.34,-15.02 15.05,-24.31 2.82,-9.66 3.26,-20.12 1.51,-30.04 -2.69,-15.27 -10.46,-28.99 -22.53,-35.96z"/>
    <path class="fil7" d="M2548.36 1462.76c-4.3,-2.48 -5.77,-7.98 -3.28,-12.28 2.49,-4.3 7.99,-5.77 12.28,-3.28 12.93,7.47 21.11,21.34 23.77,36.47 1.63,9.28 1.21,19.11 -1.46,28.24 -2.74,9.38 -7.81,18.06 -15.41,24.73 -10.55,9.28 -25.72,14.62 -45.88,12.54 -22.66,-2.34 -34.45,-13.03 -38.73,-26.21 -2.78,-8.55 -2.16,-17.94 0.83,-26.6 2.87,-8.32 8,-16.12 14.4,-21.88 11.09,-10 25.89,-14.17 40.17,-5.9 13.94,8.07 19.12,18.12 19.05,27.74 -0,0.26 -0.02,0.51 -0.04,0.76 -0.16,4.47 -1.48,8.7 -3.6,12.48 -2.09,3.74 -4.97,7.07 -8.25,9.76 -8.59,7.07 -20.54,10.17 -29.6,5.99 -4.51,-2.09 -6.47,-7.44 -4.38,-11.94 2.09,-4.51 7.44,-6.47 11.94,-4.38 2.53,1.17 6.88,-0.52 10.56,-3.55 1.66,-1.37 3.08,-2.98 4.05,-4.71 0.76,-1.35 1.24,-2.78 1.32,-4.17l-0.01 -0.35c0.02,-3.61 -2.72,-7.84 -10.11,-12.11 -6.35,-3.68 -13.45,-1.34 -19.06,3.71 -4.17,3.75 -7.53,8.9 -9.44,14.43 -1.79,5.18 -2.23,10.56 -0.74,15.17 2.21,6.8 9.25,12.41 23.47,13.88 14.57,1.51 25.12,-1.99 32.12,-8.15 4.93,-4.34 8.25,-10.04 10.06,-16.25 1.89,-6.46 2.18,-13.45 1.01,-20.08 -1.8,-10.21 -6.99,-19.38 -15.06,-24.04z"/>
    <path class="fil7" d="M2221.84 1608.38c-4.3,-2.48 -5.77,-7.98 -3.28,-12.28 2.48,-4.3 7.98,-5.77 12.28,-3.28 12.93,7.47 21.11,21.34 23.77,36.47 1.63,9.28 1.21,19.11 -1.46,28.24 -2.73,9.38 -7.81,18.06 -15.4,24.73 -10.55,9.28 -25.72,14.62 -45.88,12.54 -22.66,-2.34 -34.44,-13.03 -38.73,-26.21 -2.78,-8.55 -2.16,-17.93 0.83,-26.6 2.87,-8.31 8,-16.12 14.4,-21.88 11.09,-10 25.89,-14.17 40.17,-5.9 13.94,8.07 19.12,18.11 19.05,27.73 -0,0.26 -0.01,0.51 -0.04,0.76 -0.16,4.47 -1.48,8.7 -3.6,12.48 -2.09,3.74 -4.97,7.07 -8.25,9.77 -8.59,7.07 -20.54,10.16 -29.6,5.99 -4.51,-2.09 -6.47,-7.44 -4.39,-11.94 2.09,-4.51 7.44,-6.47 11.95,-4.38 2.53,1.17 6.88,-0.52 10.56,-3.55 1.66,-1.37 3.08,-2.98 4.05,-4.71 0.76,-1.35 1.24,-2.78 1.32,-4.17l-0.01 -0.35c0.02,-3.61 -2.72,-7.84 -10.11,-12.11 -6.35,-3.68 -13.46,-1.34 -19.06,3.71 -4.17,3.75 -7.53,8.9 -9.44,14.43 -1.79,5.18 -2.23,10.56 -0.73,15.17 2.21,6.79 9.25,12.41 23.47,13.88 14.57,1.51 25.12,-1.99 32.12,-8.15 4.93,-4.34 8.25,-10.04 10.06,-16.25 1.89,-6.46 2.18,-13.45 1.01,-20.08 -1.8,-10.21 -6.99,-19.38 -15.06,-24.04z"/>
    <path class="fil7" d="M2717.08 1266.35c-4.3,-2.49 -5.77,-7.99 -3.28,-12.28 2.48,-4.3 7.98,-5.77 12.28,-3.28 12.93,7.47 21.11,21.34 23.77,36.47 1.63,9.28 1.21,19.11 -1.46,28.24 -2.73,9.38 -7.81,18.06 -15.4,24.73 -10.55,9.28 -25.72,14.62 -45.88,12.54 -22.66,-2.34 -34.44,-13.03 -38.73,-26.21 -2.78,-8.55 -2.16,-17.93 0.83,-26.6 2.87,-8.31 8,-16.12 14.4,-21.88 11.09,-9.99 25.89,-14.17 40.17,-5.9 13.94,8.07 19.12,18.11 19.05,27.74 0,0.26 -0.01,0.51 -0.04,0.76 -0.16,4.47 -1.48,8.7 -3.6,12.49 -2.09,3.74 -4.97,7.06 -8.25,9.76 -8.59,7.07 -20.54,10.17 -29.6,5.99 -4.51,-2.09 -6.47,-7.44 -4.39,-11.94 2.09,-4.51 7.44,-6.47 11.95,-4.38 2.53,1.17 6.88,-0.52 10.56,-3.55 1.66,-1.37 3.08,-2.98 4.05,-4.71 0.76,-1.35 1.24,-2.78 1.32,-4.17l-0.01 -0.35c0.02,-3.61 -2.72,-7.84 -10.11,-12.11 -6.35,-3.68 -13.45,-1.34 -19.06,3.71 -4.17,3.75 -7.53,8.9 -9.44,14.43 -1.79,5.18 -2.23,10.56 -0.73,15.17 2.21,6.8 9.25,12.41 23.47,13.88 14.57,1.51 25.12,-1.99 32.12,-8.15 4.93,-4.34 8.25,-10.04 10.06,-16.25 1.89,-6.46 2.18,-13.45 1.01,-20.08 -1.8,-10.21 -6.99,-19.38 -15.06,-24.04z"/>
    <path class="fil7" d="M1855.33 1290.26c5.35,5.15 5.52,13.67 0.37,19.03 -5.15,5.35 -13.67,5.52 -19.03,0.37 -24.11,-23.27 -34.4,-58.13 -31.98,-92.84 1.5,-21.48 7.85,-43.04 18.77,-61.79 11.12,-19.08 26.98,-35.34 47.29,-45.84 28.18,-14.57 64.56,-17.94 108.15,-2.2 48.12,17.39 67.99,46.51 70.13,76.82 1.4,19.73 -5.01,39.61 -16.17,56.78 -10.85,16.7 -26.34,31.02 -43.48,40.15 -28.84,15.37 -62.3,16.59 -87.89,-8.15 -25.49,-24.64 -31.34,-48.36 -26.26,-68.22l-0.05 -0.01c2.47,-9.63 7.55,-18.15 14.25,-25.29 6.39,-6.81 14.24,-12.34 22.64,-16.34 21.59,-10.29 47.86,-10.78 64.09,2.22 5.79,4.65 6.71,13.13 2.05,18.92 -4.65,5.79 -13.13,6.71 -18.92,2.06 -7.84,-6.28 -22.57,-5.06 -35.63,1.16 -5.56,2.65 -10.64,6.19 -14.63,10.44 -3.67,3.91 -6.43,8.47 -7.71,13.48l-0.05 -0.01 -0 0.01c-2.84,11.1 1.58,25.46 18.88,42.19 15.81,15.29 37.49,14.01 56.59,3.83 13.18,-7.02 25.15,-18.11 33.57,-31.09 8.12,-12.51 12.81,-26.63 11.85,-40.23 -1.43,-20.32 -16.22,-40.38 -52.32,-53.42 -35.73,-12.91 -64.78,-10.53 -86.75,0.82 -15.5,8.01 -27.69,20.57 -36.33,35.4 -8.84,15.16 -13.98,32.63 -15.19,50.09 -1.9,27.29 5.73,54.25 23.76,71.65z"/>
    <path class="fil7" d="M2022 737.32c-3.46,3.78 -9.33,4.05 -13.11,0.6 -3.78,-3.46 -4.06,-9.33 -0.6,-13.11 15.61,-17.05 39.46,-24.77 63.45,-23.73 14.84,0.65 29.82,4.63 42.95,11.83 13.36,7.32 24.86,17.96 32.46,31.78 10.56,19.17 13.54,44.19 3.47,74.54 -11.12,33.5 -30.84,47.72 -51.71,49.75 -13.58,1.32 -27.4,-2.74 -39.45,-10.12 -11.71,-7.18 -21.87,-17.61 -28.48,-29.26 -11.12,-19.61 -12.57,-42.66 4.03,-60.76 16.53,-18.02 32.78,-22.48 46.57,-19.34l0.01 -0.04c6.69,1.53 12.65,4.88 17.7,9.37 4.81,4.28 8.76,9.6 11.68,15.32 7.48,14.7 8.3,32.81 -0.37,44.23 -3.11,4.08 -8.93,4.87 -13.01,1.76 -4.08,-3.11 -4.87,-8.93 -1.76,-13.01 4.19,-5.52 3.08,-15.66 -1.44,-24.55 -1.93,-3.78 -4.46,-7.22 -7.46,-9.9 -2.76,-2.46 -5.95,-4.28 -9.44,-5.08l0.01 -0.04 -0.01 -0c-7.7,-1.76 -17.53,1.55 -28.75,13.78 -10.26,11.18 -8.98,26.1 -1.62,39.09 5.08,8.96 12.94,17.01 22.04,22.59 8.77,5.37 18.59,8.35 27.96,7.45 13.99,-1.36 27.55,-11.91 35.89,-37.04 8.25,-24.87 6.09,-44.86 -2.14,-59.81 -5.8,-10.54 -14.69,-18.72 -25.07,-24.41 -10.61,-5.82 -22.76,-9.05 -34.82,-9.57 -18.85,-0.82 -37.31,4.93 -48.98,17.68z"/>
    <path class="fil7" d="M2030.02 1578.27c3.58,3.44 3.69,9.14 0.25,12.72 -3.44,3.58 -9.14,3.69 -12.72,0.24 -16.12,-15.55 -23,-38.86 -21.38,-62.06 1,-14.36 5.25,-28.77 12.55,-41.31 7.43,-12.76 18.03,-23.62 31.61,-30.64 18.84,-9.74 43.16,-11.99 72.3,-1.47 32.17,11.62 45.45,31.09 46.88,51.35 0.93,13.19 -3.35,26.48 -10.81,37.96 -7.25,11.17 -17.61,20.74 -29.07,26.84 -19.28,10.28 -41.65,11.09 -58.76,-5.45 -17.04,-16.47 -20.95,-32.32 -17.55,-45.6l-0.04 -0.01c1.65,-6.44 5.05,-12.13 9.53,-16.91 4.27,-4.55 9.52,-8.25 15.14,-10.92 14.43,-6.88 31.99,-7.21 42.84,1.48 3.87,3.11 4.49,8.78 1.37,12.65 -3.11,3.87 -8.78,4.49 -12.65,1.37 -5.24,-4.19 -15.09,-3.38 -23.82,0.77 -3.71,1.77 -7.11,4.14 -9.78,6.98 -2.46,2.62 -4.3,5.66 -5.16,9.01l-0.04 -0.01 0 0.01c-1.9,7.42 1.05,17.02 12.62,28.21 10.57,10.22 25.06,9.36 37.83,2.56 8.81,-4.69 16.81,-12.11 22.44,-20.78 5.43,-8.36 8.57,-17.8 7.92,-26.89 -0.96,-13.59 -10.84,-26.99 -34.97,-35.71 -23.88,-8.63 -43.31,-7.04 -57.99,0.55 -10.36,5.35 -18.51,13.75 -24.29,23.66 -5.91,10.14 -9.34,21.82 -10.15,33.48 -1.27,18.24 3.83,36.27 15.88,47.9z"/>
    <path class="fil7" d="M2449.91 945.4c3.58,3.44 3.69,9.14 0.25,12.72 -3.44,3.58 -9.14,3.69 -12.72,0.25 -16.12,-15.55 -23,-38.86 -21.38,-62.07 1,-14.36 5.25,-28.77 12.55,-41.31 7.43,-12.76 18.03,-23.62 31.61,-30.64 18.84,-9.74 43.16,-11.99 72.3,-1.46 32.17,11.62 45.45,31.09 46.88,51.35 0.93,13.19 -3.35,26.48 -10.81,37.96 -7.25,11.17 -17.61,20.74 -29.07,26.84 -19.28,10.28 -41.65,11.09 -58.76,-5.45 -17.04,-16.47 -20.95,-32.33 -17.56,-45.6l-0.03 -0.01c1.65,-6.44 5.05,-12.13 9.53,-16.91 4.27,-4.55 9.52,-8.25 15.14,-10.92 14.43,-6.88 31.99,-7.21 42.84,1.48 3.87,3.11 4.49,8.78 1.37,12.65 -3.11,3.87 -8.78,4.49 -12.65,1.37 -5.24,-4.19 -15.09,-3.38 -23.82,0.77 -3.71,1.77 -7.11,4.14 -9.78,6.98 -2.45,2.62 -4.3,5.66 -5.15,9.01l-0.04 -0.01 -0 0.01c-1.9,7.42 1.05,17.02 12.62,28.21 10.57,10.22 25.06,9.36 37.83,2.56 8.81,-4.69 16.81,-12.11 22.44,-20.78 5.43,-8.36 8.57,-17.8 7.92,-26.89 -0.96,-13.59 -10.84,-26.99 -34.97,-35.71 -23.88,-8.63 -43.31,-7.04 -57.99,0.55 -10.36,5.35 -18.51,13.75 -24.29,23.66 -5.91,10.14 -9.34,21.82 -10.15,33.48 -1.27,18.24 3.83,36.27 15.88,47.9z"/>
    <path class="fil7" d="M2210.6 1147.94c7.32,-1.15 14.2,3.86 15.35,11.19 1.15,7.32 -3.86,14.2 -11.19,15.35 -51.39,8.07 -86.4,-14.68 -105.11,-47.59 -9.23,-16.24 -14.35,-34.95 -15.37,-53.52 -1.02,-18.62 2.08,-37.31 9.28,-53.46 13.42,-30.12 40.43,-51.29 80.87,-48 4,0.33 8.16,0.9 12.42,1.72 20.17,3.86 39.61,13.04 53.74,25.41 15.47,13.56 24.96,31.08 23.4,50.34 -0.02,0.29 -0.05,0.59 -0.1,0.87 -0.15,1.51 -0.37,3.05 -0.68,4.62 -5.97,31.17 -25.69,47.41 -47.01,52.72 -8,1.99 -16.17,2.41 -23.86,1.48 -7.78,-0.95 -15.24,-3.32 -21.71,-6.86 -15.11,-8.27 -24.84,-22.61 -22.42,-40.72 1,-7.37 7.79,-12.54 15.16,-11.54 7.37,1 12.54,7.79 11.54,15.16 -0.75,5.59 2.94,10.4 8.55,13.47 3.47,1.89 7.65,3.18 12.18,3.74 4.61,0.56 9.43,0.33 14.05,-0.82 12.16,-3.03 23.49,-12.76 27.13,-31.76 0.12,-0.62 0.22,-1.26 0.29,-1.93l0.03 -0.6c0.8,-9.92 -4.97,-19.73 -14.3,-27.9 -10.67,-9.34 -25.55,-16.31 -41.12,-19.29 -2.99,-0.57 -6.16,-1 -9.45,-1.27 -27.07,-2.2 -45.15,11.96 -54.12,32.11 -5.41,12.14 -7.73,26.5 -6.93,41.03 0.8,14.58 4.75,29.15 11.86,41.66 13.59,23.91 39.36,40.39 77.53,34.39z"/>
    <path class="fil7" d="M1485.47 1324.3c4.37,5.99 3.05,14.4 -2.95,18.76 -6,4.37 -14.4,3.04 -18.77,-2.95 -30.64,-42.04 -26.38,-83.57 -5.63,-115.25 10.24,-15.63 24.55,-28.72 40.61,-38.11 16.1,-9.41 34.15,-15.18 51.8,-16.15 32.92,-1.8 64.09,12.56 79.62,50.05 1.54,3.71 2.92,7.68 4.14,11.83 5.77,19.71 6.48,41.2 1.92,59.41 -5,19.96 -16.25,36.39 -34.11,43.8 -0.27,0.11 -0.55,0.22 -0.82,0.31 -1.41,0.55 -2.88,1.06 -4.42,1.51 -30.46,8.91 -53.9,-1.22 -68.37,-17.76 -5.43,-6.21 -9.53,-13.29 -12.2,-20.56 -2.7,-7.35 -4,-15.07 -3.81,-22.45 0.46,-17.22 8.78,-32.42 26,-38.53 7.01,-2.47 14.71,1.21 17.18,8.22 2.47,7.01 -1.21,14.71 -8.22,17.18 -5.32,1.89 -7.91,7.36 -8.08,13.76 -0.11,3.95 0.66,8.26 2.23,12.54 1.6,4.36 4.01,8.54 7.14,12.13 8.25,9.43 22.07,15.08 40.64,9.64 0.61,-0.18 1.23,-0.38 1.86,-0.62l0.54 -0.24c9.2,-3.81 15.28,-13.43 18.3,-25.45 3.44,-13.76 2.85,-30.18 -1.6,-45.39 -0.85,-2.92 -1.92,-5.94 -3.19,-8.99 -10.39,-25.09 -31.25,-34.71 -53.27,-33.5 -13.27,0.73 -27.11,5.22 -39.67,12.56 -12.6,7.37 -23.77,17.53 -31.65,29.57 -15.07,23.01 -17.97,53.45 4.78,84.68z"/>
    <path class="fil7" d="M2446.63 1378.27c3.66,5.03 2.55,12.07 -2.47,15.73 -5.03,3.66 -12.07,2.55 -15.73,-2.47 -25.69,-35.25 -22.12,-70.07 -4.72,-96.63 8.58,-13.11 20.58,-24.08 34.05,-31.95 13.5,-7.89 28.63,-12.73 43.44,-13.54 27.6,-1.51 53.74,10.53 66.76,41.96 1.29,3.11 2.45,6.44 3.47,9.92 4.84,16.52 5.44,34.54 1.61,49.82 -4.19,16.73 -13.63,30.51 -28.6,36.72 -0.23,0.1 -0.46,0.18 -0.69,0.26 -1.18,0.46 -2.41,0.89 -3.71,1.26 -25.54,7.47 -45.2,-1.02 -57.32,-14.89 -4.55,-5.21 -7.99,-11.14 -10.23,-17.24 -2.27,-6.17 -3.36,-12.64 -3.19,-18.82 0.38,-14.44 7.36,-27.18 21.8,-32.31 5.88,-2.07 12.33,1.01 14.41,6.9 2.07,5.88 -1.01,12.33 -6.9,14.41 -4.46,1.58 -6.63,6.17 -6.77,11.54 -0.09,3.31 0.55,6.93 1.87,10.52 1.34,3.65 3.36,7.16 5.99,10.17 6.91,7.91 18.51,12.64 34.08,8.09 0.51,-0.15 1.03,-0.32 1.55,-0.52l0.46 -0.21c7.71,-3.2 12.82,-11.26 15.34,-21.34 2.89,-11.54 2.39,-25.3 -1.34,-38.06 -0.71,-2.45 -1.61,-4.97 -2.67,-7.54 -8.72,-21.04 -26.2,-29.1 -44.67,-28.09 -11.13,0.61 -22.73,4.38 -33.26,10.54 -10.57,6.18 -19.93,14.7 -26.54,24.79 -12.64,19.29 -15.07,44.82 4.01,71z"/>
    <path class="fil7" d="M1876.19 909.13c-5.12,3.54 -12.13,2.25 -15.67,-2.86 -3.53,-5.11 -2.25,-12.13 2.86,-15.67 35.88,-24.81 70.6,-20.38 96.72,-2.33 12.89,8.9 23.57,21.17 31.1,34.83 7.55,13.69 12.02,28.94 12.46,43.76 0.83,27.63 -11.86,53.46 -43.6,65.7 -3.14,1.21 -6.49,2.29 -10.01,3.22 -16.64,4.43 -34.67,4.58 -49.84,0.38 -16.62,-4.61 -30.17,-14.38 -36,-29.5 -0.09,-0.23 -0.17,-0.47 -0.25,-0.7 -0.43,-1.19 -0.82,-2.43 -1.17,-3.74 -6.84,-25.72 2.14,-45.16 16.3,-56.94 5.32,-4.42 11.33,-7.71 17.49,-9.8 6.22,-2.12 12.71,-3.04 18.9,-2.73 14.43,0.74 26.99,8.03 31.76,22.59 1.93,5.93 -1.32,12.3 -7.25,14.23 -5.93,1.93 -12.3,-1.32 -14.23,-7.25 -1.47,-4.49 -6,-6.78 -11.37,-7.06 -3.31,-0.17 -6.94,0.38 -10.56,1.61 -3.69,1.25 -7.24,3.18 -10.31,5.73 -8.08,6.72 -13.1,18.19 -8.92,33.87 0.14,0.52 0.29,1.04 0.48,1.57l0.19 0.46c3.01,7.79 10.94,13.09 20.96,15.86 11.46,3.17 25.24,3.01 38.08,-0.4 2.46,-0.65 5.01,-1.49 7.6,-2.49 21.25,-8.19 29.74,-25.48 29.18,-43.96 -0.33,-11.14 -3.81,-22.83 -9.71,-33.51 -5.91,-10.72 -14.2,-20.28 -24.13,-27.14 -18.98,-13.11 -44.43,-16.17 -71.08,2.25z"/>
    <path class="fil7" d="M2419.37 2551.95c3.41,-2.86 8.49,-2.42 11.36,0.98 2.86,3.41 2.42,8.49 -0.98,11.36 -23.88,20.1 -48.92,19.28 -68.75,8.19 -9.78,-5.47 -18.22,-13.49 -24.51,-22.72 -6.3,-9.24 -10.52,-19.81 -11.83,-30.33 -2.46,-19.63 4.84,-38.89 26.63,-49.75 2.15,-1.08 4.47,-2.07 6.91,-2.97 11.55,-4.27 24.39,-5.6 35.48,-3.63 12.16,2.16 22.46,8.21 27.64,18.59 0.08,0.15 0.16,0.32 0.22,0.48 0.39,0.82 0.75,1.68 1.09,2.58 6.61,17.86 1.52,32.32 -7.77,41.67 -3.49,3.51 -7.56,6.26 -11.8,8.16 -4.29,1.93 -8.85,3.02 -13.28,3.22 -10.33,0.45 -19.78,-3.9 -24.15,-13.95 -1.77,-4.1 0.11,-8.86 4.21,-10.63 4.09,-1.77 8.85,0.11 10.63,4.21 1.35,3.1 4.74,4.43 8.57,4.26 2.37,-0.1 4.92,-0.74 7.41,-1.86 2.55,-1.14 4.95,-2.75 6.96,-4.78 5.3,-5.33 8.1,-13.84 4.07,-24.73 -0.13,-0.36 -0.28,-0.72 -0.45,-1.08l-0.17 -0.32c-2.67,-5.35 -8.68,-8.59 -16,-9.89 -8.38,-1.49 -18.18,-0.44 -27.1,2.86 -1.71,0.64 -3.47,1.4 -5.25,2.29 -14.58,7.27 -19.47,20.15 -17.83,33.29 0.99,7.91 4.26,16.01 9.18,23.22 4.94,7.23 11.49,13.49 19.02,17.71 14.4,8.06 32.75,8.52 50.48,-6.4zm-410.62 -6.35c3.13,3.86 2.53,9.52 -1.32,12.64 -3.86,3.12 -9.52,2.53 -12.65,-1.33 -9.4,-11.59 -12.09,-27.47 -9.17,-42.56 1.79,-9.25 5.7,-18.28 11.45,-25.85 5.91,-7.79 13.74,-14.07 23.23,-17.59 13.17,-4.89 29.24,-4.47 47.33,4.68 20.32,10.29 27.51,24.48 26.81,38.32 -0.46,8.98 -4.39,17.52 -10.28,24.55 -5.65,6.74 -13.23,12.2 -21.27,15.29 -13.93,5.37 -29.24,3.99 -39.63,-8.84 -10.13,-12.52 -11.38,-23.75 -7.88,-32.71 0.1,-0.24 0.19,-0.47 0.31,-0.7 1.75,-4.11 4.49,-7.59 7.82,-10.38 3.29,-2.74 7.17,-4.82 11.2,-6.17 10.54,-3.54 22.82,-2.15 29.79,4.98 3.46,3.56 3.39,9.26 -0.17,12.72 -3.56,3.46 -9.26,3.39 -12.72,-0.17 -1.95,-2 -6.62,-1.98 -11.13,-0.46 -2.04,0.68 -3.94,1.68 -5.47,2.96 -1.19,0.99 -2.15,2.16 -2.72,3.43l-0.12 0.32c-1.31,3.36 -0.26,8.3 5.11,14.93 4.62,5.7 12.09,6.06 19.13,3.34 5.24,-2.02 10.22,-5.62 13.97,-10.1 3.52,-4.2 5.86,-9.07 6.1,-13.9 0.37,-7.14 -4.21,-14.89 -16.96,-21.35 -13.07,-6.62 -24.17,-7.11 -32.91,-3.87 -6.16,2.29 -11.29,6.43 -15.2,11.58 -4.07,5.35 -6.84,11.78 -8.12,18.39 -1.97,10.18 -0.39,20.6 5.47,27.83zm120.61 -131.29c-3.03,-1.47 -4.28,-5.12 -2.81,-8.14 1.47,-3.03 5.12,-4.28 8.14,-2.81 9.1,4.41 15.3,13.39 17.83,23.48 1.55,6.19 1.75,12.85 0.39,19.15 -1.39,6.47 -4.4,12.58 -9.21,17.46 -6.68,6.78 -16.66,11.13 -30.39,10.7 -15.42,-0.48 -23.91,-7.13 -27.44,-15.83 -2.29,-5.64 -2.33,-12.01 -0.73,-18.01 1.53,-5.76 4.62,-11.28 8.66,-15.49 7.01,-7.29 16.81,-10.84 26.86,-5.94 9.81,4.78 13.8,11.31 14.22,17.81 0.01,0.17 0.01,0.34 0.01,0.52 0.11,3.03 -0.57,5.95 -1.82,8.61 -1.23,2.63 -3.02,5.02 -5.1,7 -5.46,5.19 -13.39,7.87 -19.71,5.49 -3.15,-1.19 -4.74,-4.71 -3.54,-7.85 1.19,-3.15 4.71,-4.74 7.86,-3.55 1.77,0.67 4.62,-0.68 6.96,-2.91 1.06,-1.01 1.93,-2.16 2.5,-3.38 0.45,-0.95 0.7,-1.94 0.69,-2.89l-0.02 -0.23c-0.16,-2.44 -2.22,-5.16 -7.42,-7.69 -4.47,-2.18 -9.16,-0.25 -12.7,3.43 -2.64,2.74 -4.66,6.38 -5.68,10.21 -0.96,3.59 -1,7.25 0.24,10.28 1.83,4.48 6.85,7.93 16.53,8.23 9.92,0.31 16.87,-2.57 21.31,-7.07 3.12,-3.17 5.08,-7.18 6.01,-11.47 0.96,-4.46 0.82,-9.19 -0.29,-13.62 -1.71,-6.81 -5.67,-12.76 -11.34,-15.51zm69.45 108.43c3.42,4.22 2.77,10.41 -1.45,13.83 -4.21,3.42 -10.41,2.77 -13.82,-1.45 -10.28,-12.68 -13.22,-30.04 -10.03,-46.53 1.96,-10.11 6.23,-19.99 12.52,-28.27 6.46,-8.51 15.03,-15.39 25.39,-19.24 14.4,-5.35 31.98,-4.88 51.75,5.12 22.22,11.24 30.08,26.76 29.31,41.9 -0.5,9.82 -4.8,19.16 -11.24,26.84 -6.18,7.37 -14.47,13.33 -23.25,16.72 -15.23,5.88 -31.97,4.36 -43.33,-9.67 -11.08,-13.69 -12.45,-25.97 -8.62,-35.77 0.1,-0.26 0.21,-0.51 0.34,-0.76 1.91,-4.5 4.9,-8.31 8.55,-11.34 3.59,-3 7.83,-5.27 12.24,-6.75 11.53,-3.86 24.95,-2.35 32.57,5.45 3.79,3.89 3.71,10.12 -0.19,13.91 -3.89,3.79 -10.12,3.71 -13.91,-0.19 -2.13,-2.18 -7.23,-2.16 -12.17,-0.51 -2.23,0.74 -4.31,1.84 -5.97,3.23 -1.3,1.08 -2.35,2.36 -2.98,3.75l-0.13 0.35c-1.43,3.67 -0.28,9.07 5.59,16.32 5.05,6.24 13.21,6.63 20.92,3.66 5.72,-2.21 11.17,-6.15 15.28,-11.05 3.85,-4.59 6.41,-9.91 6.68,-15.2 0.4,-7.8 -4.6,-16.28 -18.54,-23.34 -14.29,-7.23 -26.43,-7.78 -35.98,-4.23 -6.73,2.5 -12.35,7.03 -16.62,12.66 -4.45,5.86 -7.48,12.89 -8.88,20.11 -2.15,11.13 -0.43,22.53 5.99,30.43zm149.6 -92.32c2.37,-2.53 6.35,-2.66 8.88,-0.29 2.53,2.37 2.66,6.35 0.29,8.88 -7.13,7.62 -17.86,10.99 -28.58,10.41 -6.57,-0.36 -13.19,-2.2 -18.99,-5.46 -5.95,-3.35 -11.05,-8.17 -14.39,-14.4 -4.64,-8.65 -5.88,-19.81 -1.28,-33.21 5.18,-15.05 14.31,-21.38 23.97,-22.21 6.26,-0.54 12.55,1.37 17.97,4.78 5.2,3.27 9.7,7.99 12.61,13.26 5.05,9.13 5.55,19.86 -2.34,28.27 -7.7,8.21 -15.35,10.14 -21.89,8.58 -0.17,-0.04 -0.34,-0.09 -0.51,-0.15 -3.02,-0.82 -5.69,-2.38 -7.93,-4.42 -2.21,-2.02 -4.02,-4.5 -5.34,-7.16 -3.45,-6.96 -3.67,-15.59 0.6,-21.09 2.14,-2.74 6.09,-3.23 8.82,-1.1 2.74,2.13 3.23,6.08 1.09,8.82 -1.2,1.54 -0.74,4.77 0.74,7.75 0.67,1.35 1.54,2.56 2.56,3.5 0.8,0.73 1.7,1.28 2.63,1.56l0.23 0.05c2.45,0.59 5.77,-0.61 9.84,-4.96 3.51,-3.74 3.05,-8.94 0.49,-13.56 -1.89,-3.43 -4.87,-6.53 -8.32,-8.71 -3.24,-2.04 -6.84,-3.19 -10.2,-2.9 -4.97,0.43 -9.91,4.33 -13.15,13.77 -3.33,9.68 -2.62,17.41 0.46,23.15 2.17,4.04 5.53,7.2 9.47,9.41 4.1,2.3 8.81,3.61 13.51,3.86 7.23,0.39 14.3,-1.69 18.74,-6.44z"/>
    <path class="fil7" d="M1521.74 1016.91c0.17,-7.42 6.33,-13.29 13.76,-13.12 7.42,0.17 13.29,6.33 13.12,13.76 -0.83,34.1 -19.74,54.06 -43.33,62.31 -11.41,3.99 -23.92,5.08 -35.87,3.58 -12.1,-1.52 -23.73,-5.69 -33.21,-12.16 -18.26,-12.47 -28.98,-32.85 -21.95,-59.14 0.65,-2.45 1.51,-5.04 2.55,-7.71 4.82,-12.46 13,-23.87 22.62,-31.51 11.01,-8.75 24.11,-12.96 37.2,-9.45 0.26,0.07 0.51,0.15 0.76,0.23 0.95,0.28 1.93,0.62 2.94,1.01 20.23,7.84 28.74,23.21 29.72,38.35 0.36,5.61 -0.36,11.17 -1.95,16.26 -1.61,5.18 -4.17,9.99 -7.42,14 -7.87,9.72 -19.5,14.76 -32.36,10.6 -7.07,-2.27 -10.97,-9.84 -8.7,-16.92 2.27,-7.07 9.84,-10.97 16.91,-8.7 0.9,0.29 2.14,-0.57 3.27,-1.96 1.06,-1.31 1.95,-3.04 2.57,-5.04 0.64,-2.06 0.94,-4.32 0.8,-6.56 -0.36,-5.69 -3.94,-11.63 -12.54,-14.96 -0.17,-0.07 -0.39,-0.13 -0.63,-0.2l-0.33 -0.09c-4.04,-1.08 -8.88,0.85 -13.48,4.5 -6,4.77 -11.16,12.05 -14.29,20.12 -0.58,1.49 -1.11,3.15 -1.6,4.97 -3.56,13.31 1.87,23.63 11.1,29.94 6,4.1 13.46,6.75 21.29,7.73 7.98,1.01 16.27,0.3 23.75,-2.31 13.76,-4.81 24.8,-16.79 25.3,-37.54z"/>
    <path class="fil7" d="M2135.84 1326.22c0.11,-4.96 4.23,-8.89 9.19,-8.78 4.96,0.12 8.89,4.24 8.77,9.2 -0.56,22.8 -13.2,36.14 -28.96,41.65 -7.63,2.67 -15.99,3.4 -23.98,2.39 -8.09,-1.02 -15.87,-3.8 -22.2,-8.13 -12.2,-8.34 -19.38,-21.96 -14.68,-39.53 0.44,-1.64 1.01,-3.37 1.71,-5.16 3.22,-8.33 8.69,-15.95 15.12,-21.06 7.36,-5.85 16.12,-8.66 24.86,-6.32 0.17,0.05 0.34,0.1 0.51,0.15 0.63,0.19 1.29,0.41 1.96,0.67 13.52,5.24 19.22,15.52 19.87,25.64 0.24,3.75 -0.24,7.47 -1.3,10.87 -1.08,3.46 -2.79,6.68 -4.96,9.36 -5.26,6.5 -13.04,9.86 -21.63,7.09 -4.73,-1.52 -7.33,-6.58 -5.81,-11.31 1.52,-4.73 6.58,-7.33 11.31,-5.81 0.61,0.2 1.43,-0.38 2.18,-1.31 0.71,-0.88 1.3,-2.03 1.72,-3.37 0.43,-1.38 0.63,-2.89 0.53,-4.39 -0.24,-3.81 -2.64,-7.77 -8.38,-10 -0.12,-0.04 -0.26,-0.08 -0.42,-0.13l-0.22 -0.06c-2.7,-0.72 -5.94,0.57 -9.01,3.01 -4.01,3.19 -7.46,8.06 -9.55,13.46 -0.38,0.99 -0.74,2.1 -1.07,3.32 -2.38,8.9 1.25,15.8 7.42,20.01 4.01,2.74 9,4.51 14.23,5.17 5.34,0.67 10.88,0.2 15.88,-1.55 9.19,-3.22 16.58,-11.23 16.91,-25.09z"/>
    <path class="fil7" d="M2555.73 705.52c0.11,-4.96 4.23,-8.89 9.19,-8.77 4.96,0.12 8.89,4.23 8.77,9.19 -0.56,22.8 -13.2,36.14 -28.96,41.66 -7.63,2.67 -15.99,3.4 -23.98,2.39 -8.09,-1.02 -15.87,-3.8 -22.2,-8.13 -12.2,-8.34 -19.38,-21.96 -14.68,-39.54 0.44,-1.64 1.01,-3.37 1.71,-5.16 3.22,-8.33 8.69,-15.96 15.12,-21.06 7.36,-5.85 16.12,-8.66 24.86,-6.32 0.17,0.05 0.34,0.1 0.51,0.15 0.63,0.19 1.29,0.41 1.96,0.67 13.52,5.24 19.22,15.52 19.87,25.64 0.24,3.75 -0.24,7.47 -1.3,10.87 -1.08,3.46 -2.79,6.68 -4.96,9.36 -5.26,6.5 -13.04,9.86 -21.63,7.09 -4.73,-1.52 -7.33,-6.58 -5.81,-11.31 1.52,-4.73 6.58,-7.33 11.31,-5.81 0.6,0.2 1.43,-0.38 2.18,-1.31 0.71,-0.87 1.3,-2.03 1.72,-3.37 0.43,-1.38 0.63,-2.89 0.53,-4.39 -0.24,-3.81 -2.64,-7.77 -8.38,-10 -0.12,-0.05 -0.26,-0.08 -0.42,-0.13l-0.22 -0.06c-2.7,-0.72 -5.94,0.57 -9.01,3.01 -4.01,3.19 -7.46,8.06 -9.55,13.45 -0.38,0.99 -0.74,2.11 -1.07,3.33 -2.38,8.9 1.25,15.8 7.42,20.01 4.01,2.74 9,4.51 14.23,5.17 5.34,0.67 10.88,0.2 15.87,-1.55 9.2,-3.22 16.58,-11.23 16.92,-25.1z"/>
   </g>
  </g>
 </g>
</svg>
