<?xml version="1.0" encoding="UTF-8"?>
<!DOCTYPE svg PUBLIC "-//W3C//DTD SVG 1.1//EN" "http://www.w3.org/Graphics/SVG/1.1/DTD/svg11.dtd">
<!-- Creator: CorelDRAW 2020 (64-Bit) -->
<svg xmlns="http://www.w3.org/2000/svg" xml:space="preserve" width="161.908mm" height="176.791mm" version="1.1" style="shape-rendering:geometricPrecision; text-rendering:geometricPrecision; image-rendering:optimizeQuality; fill-rule:evenodd; clip-rule:evenodd"
viewBox="0 0 1897.89 2072.35"
 xmlns:xlink="http://www.w3.org/1999/xlink"
 xmlns:xodm="http://www.corel.com/coreldraw/odm/2003">
 <defs>
  <style type="text/css">
   <![CDATA[
    .fil0 {fill:none}
    .fil1 {fill:#501D33}
    .fil8 {fill:#623448}
    .fil4 {fill:#6E1D34}
    .fil9 {fill:#856969}
    .fil5 {fill:#8E7A5D}
    .fil10 {fill:#AE9F90}
    .fil3 {fill:#C3C077}
    .fil11 {fill:#D2C8AD}
    .fil7 {fill:#D4D784}
    .fil6 {fill:#EEF698}
    .fil2 {fill:#FFCFA5}
   ]]>
  </style>
 </defs>
 <g id="Слой_x0020_1">
  <metadata id="CorelCorpID_0Corel-Layer"/>
  <g id="_2674217044688">
   <rect class="fil0" y="0" width="1897.89" height="2072.35"/>
   <g id="_129455976">
    <path id="_129463560" class="fil1" d="M596.82 1072.76c-35.39,-210.39 -53.65,-564.99 -74.93,-731.78 37.2,-153.17 329.79,-106.2 429.46,-85.48 99.67,-20.72 392.26,-67.69 429.46,85.48 -21,164.58 -36.46,515.06 -70.89,726 -129.32,41.07 -252.91,55.11 -360.1,54.9 -81.32,-0.16 -270.07,-16.34 -353.01,-49.12z"/>
    <path id="_129463488" class="fil1" d="M518.56 216.43c-195.71,87.82 -356.14,427.29 -370.44,606.11 -16.38,204.85 -13.84,329.52 105.64,579.79 0,0 26.97,50.39 115.77,28.79 41.36,6.69 78.11,-9.89 97.12,-37.15 0.46,-0.66 50.61,-5.42 74.43,-28.61 10.8,-10.52 17.67,-19.87 13.78,-39 -5.08,-25.05 -12.59,-55.73 -12.59,-55.73 0,0 44.16,-44.03 36.93,-62.76 -7.23,-18.73 -97.54,-96.99 -97.69,-97.74 -61.97,-284.15 -1.2,-526.54 161.14,-722.33l130.43 -172.7c-65.52,-19.35 -185.04,-29.84 -254.53,1.34l-0 0z"/>
    <path id="_129463416" class="fil2" d="M538.25 483.27l190.64 -263.79c-129.84,-5.73 -204.47,-0.1 -298.97,96.82 -134.41,137.85 -231.06,345.8 -255.11,538.28 -24.21,193.74 12.76,363.62 102.43,539.28 0,0 10.89,32.06 79.5,24.13 0,0 -19.95,-35.3 -18.6,-38.35 1.35,-3.05 34.77,35.47 34.77,35.47 0,0 42.22,0.15 76.69,-29.59 0,0 0.14,-47.69 3.13,-47.58 2.99,0.11 12.58,35.31 12.58,35.31l45.08 -11.9c20.59,-9.68 27.03,-11.22 21.44,-36.73 -4.27,-19.48 -11.4,-52.35 -27.09,-107.52 4.33,-5.1 14.81,18.86 22.48,32.02 0,0 24.68,-27.25 23.62,-36.54 -1.05,-9.29 -87.47,-76.48 -87.47,-76.48 -69.84,-219.12 -22.6,-480.87 74.9,-652.86l0 -0z"/>
    <path id="_129463344" class="fil3" d="M538.25 483.27l18.49 -25.59c14.93,199.49 37.96,414.18 67.84,608.3 97.18,23.61 381.01,78.35 654.49,-6.2 29.27,-191.54 51.89,-402.65 66.67,-599.21l16.4 22.7c97.5,171.99 144.74,433.73 74.9,652.86 0,0 -86.42,67.19 -87.47,76.48 -1.06,9.29 23.62,36.54 23.62,36.54 7.67,-13.17 18.15,-37.13 22.48,-32.02 -15.69,55.17 -22.82,88.03 -27.09,107.52 -5.59,25.51 0.84,27.04 21.44,36.73l45.08 11.9c0,0 9.59,-35.2 12.58,-35.31 2.99,-0.11 3.13,47.58 3.13,47.58 34.47,29.74 76.69,29.59 76.69,29.59 0,0 33.42,-38.52 34.77,-35.47 1.35,3.05 -18.6,38.35 -18.6,38.35 68.61,7.93 79.5,-24.13 79.5,-24.13 89.67,-175.66 126.64,-345.54 102.43,-539.28 -24.06,-192.48 -120.7,-400.43 -255.11,-538.28 -92.34,-94.7 -165.71,-102.24 -290.14,-97.19 -67.75,-22.62 -148.23,-34.04 -228.74,-34.19l0 -0 -0.24 0 -0.24 -0 0 0c-80.61,0.14 -161.19,11.6 -229,34.27 -125.68,-5.21 -199.34,1.88 -292.19,97.11 -134.41,137.85 -231.06,345.8 -255.11,538.28 -24.21,193.74 12.76,363.62 102.43,539.28 0,0 10.89,32.06 79.5,24.13 0,0 -19.95,-35.3 -18.6,-38.35 1.35,-3.05 34.77,35.47 34.77,35.47 0,0 42.22,0.15 76.69,-29.59 0,0 0.14,-47.69 3.13,-47.58 2.99,0.11 12.58,35.31 12.58,35.31l45.08 -11.9c20.59,-9.68 27.03,-11.22 21.44,-36.73 -4.27,-19.48 -11.4,-52.35 -27.09,-107.52 4.33,-5.1 14.81,18.86 22.48,32.02 0,0 24.68,-27.25 23.62,-36.54 -1.05,-9.29 -87.47,-76.48 -87.47,-76.48 -69.84,-219.12 -22.6,-480.87 74.9,-652.86l0 0z"/>
    <circle id="_129463272" class="fil4" cx="282.07" cy="824.13" r="24.67"/>
    <circle id="_129463200" class="fil4" cx="306.45" cy="753.31" r="7.48"/>
    <path id="_129463128" class="fil5" d="M538.25 483.27l4.76 -6.59c-1.25,-0.7 -2.49,-1.48 -3.76,-2.1 0,0 -335.94,381.03 -12.72,878.48 7.42,-5.19 8.97,-11.57 5.28,-28.42 -4.27,-19.48 -11.4,-52.35 -27.09,-107.52 4.33,-5.1 14.81,18.86 22.48,32.02 0,0 24.68,-27.25 23.62,-36.54 -1.05,-9.29 -87.47,-76.48 -87.47,-76.48 -69.84,-219.12 -22.6,-480.87 74.9,-652.86l0 -0z"/>
    <circle id="_129463056" class="fil4" cx="367.52" cy="855.19" r="64.02"/>
    <path id="_129462984" class="fil6" d="M506.88 254.26c-25.2,14.61 -50.29,34.69 -76.97,62.04 -134.41,137.85 -231.06,345.8 -255.11,538.28 -24.21,193.74 12.76,363.62 102.43,539.28 0,0 0.93,2.71 3.92,6.36 19.82,-2.77 39.86,-7.26 59.52,-12.84 -1.81,-3.97 -2.9,-6.94 -2.55,-7.73 0.4,-0.9 3.63,1.85 7.96,6.17 38.23,-11.27 74.74,-26.44 104.89,-40.64 0.43,-4.37 1,-7.25 1.73,-7.23 0.67,0.02 1.57,2.05 2.56,5.19 39.73,-18.96 67.51,-35.74 72.09,-38.55l-0.04 -0.17c-87.86,30.18 -236.19,45.29 -236.19,45.29 -200.14,-411.72 -61.39,-850.77 215.76,-1095.45l0 -0z"/>
    <path id="_129462912" class="fil5" d="M226.94 1287.45c0,0 128.69,-100.97 229.66,-129.35 0,0 -10.56,-64.68 -40.92,-55.44 -30.36,9.24 -194.03,31.68 -201.28,45.54 -7.26,13.86 -1.32,91.73 12.54,139.25z"/>
    <path id="_129462840" class="fil1" d="M225.92 729.41c-87.51,-9.88 -110.09,86.63 -32.88,118.92l32.88 -118.92z"/>
    <path id="_129462768" class="fil3" d="M193.05 848.84c-28.54,-44.48 -29.27,-93.64 32.84,-120.12 0,0 17.67,87.23 -32.84,120.12z"/>
    <path id="_129462696" class="fil6" d="M196.02 852.51c-34.56,-44.04 -34.95,-98.42 32.13,-125.09 -26.66,17.83 -48.65,74.37 -30.94,121.45l-1.19 3.63 0 -0z"/>
    <path id="_129462624" class="fil6" d="M222.44 745.88c7.63,4.75 7.55,18.68 -0.18,31.12 -7.74,12.44 -20.2,18.67 -27.84,13.93 -7.63,-4.75 -7.55,-18.68 0.18,-31.12 7.74,-12.44 20.2,-18.67 27.83,-13.93z"/>
    <path id="_129462552" class="fil3" d="M534.63 1213c0,0 -14.16,-29.32 -50.4,-47.76 -36.23,-18.45 25.03,48.42 50.4,47.76z"/>
    <path id="_129462480" class="fil5" d="M273.37 1386.19c1.28,2.56 2.56,5.12 3.87,7.68 0,0 10.89,32.06 79.49,24.13 0,0 -19.95,-35.3 -18.6,-38.35 1.35,-3.05 34.77,35.48 34.77,35.48 0,0 42.21,0.15 76.68,-29.6 0,0 0.14,-47.69 3.13,-47.58 2.99,0.11 10.28,38.94 10.28,38.94 23.25,-3.09 49.95,-11.57 65.61,-25.45 5.61,-4.97 6.53,-11.67 3.21,-26.81 -1.43,-6.5 -3.16,-14.48 -5.44,-24.28 -130.14,58.46 -213.32,78.82 -253.01,85.85l-0 0z"/>
    <path id="_129462408" class="fil1" d="M1381.82 216.43c195.71,87.82 356.14,427.29 370.44,606.11 16.38,204.85 13.84,329.52 -105.64,579.79 0,0 -26.97,50.39 -115.77,28.79 -41.36,6.69 -78.11,-9.89 -97.12,-37.15 -0.46,-0.66 -50.61,-5.42 -74.43,-28.61 -10.8,-10.52 -17.67,-19.87 -13.78,-39 5.08,-25.05 12.59,-55.73 12.59,-55.73 0,0 -44.16,-44.03 -36.93,-62.76 7.23,-18.73 97.54,-96.99 97.69,-97.74 61.97,-284.15 1.2,-526.54 -161.14,-722.33l-130.43 -172.7c65.52,-19.35 185.04,-29.84 254.53,1.34l0 0z"/>
    <path id="_129462336" class="fil3" d="M1362.14 483.27l-190.64 -263.79c129.84,-5.73 204.47,-0.1 298.97,96.82 134.41,137.85 231.06,345.8 255.11,538.28 24.21,193.74 -12.76,363.62 -102.43,539.28 0,0 -10.89,32.06 -79.5,24.13 0,0 19.95,-35.3 18.6,-38.35 -1.35,-3.05 -34.77,35.47 -34.77,35.47 0,0 -42.22,0.15 -76.69,-29.59 0,0 -0.14,-47.69 -3.13,-47.58 -2.99,0.11 -12.58,35.31 -12.58,35.31l-45.08 -11.9c-20.59,-9.68 -27.03,-11.22 -21.44,-36.73 4.27,-19.48 11.4,-52.35 27.09,-107.52 -4.33,-5.1 -14.81,18.86 -22.48,32.02 0,0 -24.68,-27.25 -23.62,-36.54 1.05,-9.29 87.47,-76.48 87.47,-76.48 69.84,-219.12 22.6,-480.87 -74.9,-652.86l0 -0z"/>
    <path id="_129462264" class="fil6" d="M1393.5 254.26c25.2,14.61 50.29,34.69 76.97,62.04 134.41,137.85 231.06,345.8 255.11,538.28 24.21,193.74 -12.76,363.62 -102.43,539.28 0,0 -0.93,2.71 -3.92,6.36 -19.82,-2.77 -39.86,-7.26 -59.52,-12.84 1.81,-3.97 2.9,-6.94 2.55,-7.73 -0.4,-0.9 -3.63,1.85 -7.96,6.17 -38.23,-11.27 -74.74,-26.44 -104.89,-40.64 -0.43,-4.37 -1,-7.25 -1.73,-7.23 -0.67,0.02 -1.57,2.05 -2.56,5.19 -39.73,-18.96 -67.51,-35.74 -72.09,-38.55l0.04 -0.17c87.86,30.18 236.19,45.29 236.19,45.29 200.14,-411.72 61.39,-850.77 -215.76,-1095.45l0 -0z"/>
    <path id="_129462192" class="fil5" d="M1362.14 483.27l-4.76 -6.59c1.25,-0.7 2.49,-1.48 3.76,-2.1 0,0 335.94,381.03 12.72,878.48 -7.42,-5.19 -8.97,-11.57 -5.28,-28.42 4.27,-19.48 11.4,-52.35 27.09,-107.52 -4.33,-5.1 -14.81,18.86 -22.48,32.02 0,0 -24.68,-27.25 -23.62,-36.54 1.05,-9.29 87.47,-76.48 87.47,-76.48 69.84,-219.12 22.6,-480.87 -74.9,-652.86l0 -0z"/>
    <path id="_129462120" class="fil1" d="M1674.47 729.41c87.51,-9.88 110.09,86.63 32.88,118.92l-32.88 -118.92z"/>
    <path id="_129462048" class="fil3" d="M1707.33 848.84c28.54,-44.48 29.27,-93.64 -32.84,-120.12 0,0 -17.67,87.23 32.84,120.12z"/>
    <path id="_129461976" class="fil6" d="M1704.37 852.51c34.56,-44.04 34.95,-98.42 -32.13,-125.09 26.66,17.83 48.65,74.37 30.94,121.45l1.19 3.63 0 -0z"/>
    <path id="_129461904" class="fil6" d="M1677.95 745.88c-7.63,4.75 -7.55,18.68 0.18,31.12 7.74,12.44 20.2,18.67 27.84,13.93 7.63,-4.75 7.55,-18.68 -0.18,-31.12 -7.74,-12.44 -20.2,-18.67 -27.83,-13.93z"/>
    <path id="_129461832" class="fil3" d="M1365.75 1213c0,0 14.16,-29.32 50.4,-47.76 36.23,-18.45 -25.03,48.42 -50.4,47.76z"/>
    <path id="_129461760" class="fil5" d="M1627.02 1386.19c-1.28,2.56 -2.56,5.12 -3.87,7.68 0,0 -10.89,32.06 -79.49,24.13 0,0 19.95,-35.3 18.6,-38.35 -1.35,-3.05 -34.77,35.48 -34.77,35.48 0,0 -42.21,0.15 -76.68,-29.6 0,0 -0.14,-47.69 -3.13,-47.58 -2.99,0.11 -10.28,38.94 -10.28,38.94 -23.25,-3.09 -49.95,-11.57 -65.61,-25.45 -5.61,-4.97 -6.53,-11.67 -3.21,-26.81 1.43,-6.5 3.16,-14.48 5.44,-24.28 130.14,58.46 213.32,78.82 253.01,85.85l0 0z"/>
    <path id="_129461688" class="fil5" d="M1619.82 772.26c0,0 0,43.56 58.74,67.31 0,0 -38.94,-1.32 -55.44,-17.16 -16.5,-15.84 -3.3,-50.16 -3.3,-50.16z"/>
    <path id="_129461616" class="fil3" d="M624.58 1065.97c-34.55,-224.47 -59.94,-476.46 -74.24,-700.63 29.06,-119.65 214.86,-180.09 400.77,-180.42l0 -0 0.24 0 0.24 -0 0 0c185.91,0.33 371.71,60.77 400.77,180.42 -14.17,222.12 -39.23,471.53 -73.29,694.43 -273.47,84.55 -557.31,29.81 -654.49,6.2z"/>
    <path id="_129461544" class="fil5" d="M581.73 218.95c0,0 75.3,233.16 355.37,235.8 280.06,2.64 375.84,-237.79 375.84,-237.79 0,0 -312.63,-97.09 -731.22,1.99z"/>
    <path id="_129461472" class="fil5" d="M697.34 1009.16c0,0 108.23,50.16 252.76,52.14 144.53,1.98 275.22,-82.49 275.22,-82.49 0,0 -74.6,110.21 -254.76,118.13 -180.17,7.92 -273.22,-87.77 -273.22,-87.77z"/>
    <path id="_129461400" class="fil6" d="M1306.57 569.17c0,0 -125.21,44.14 -134.92,46.11 -9.71,1.98 -191.14,32.28 -191.14,32.28 0,0 317.89,-83.66 326.06,-78.39l-0 0z"/>
    <path id="_129461328" class="fil5" d="M624.58 1065.97c-28,-181.94 -49.99,-381.96 -64.93,-570.6 1.79,-8.36 3.4,-13.26 4.76,-13.78l83.23 561.45c0,0 228.02,94.1 603.37,-3.7l89.87 -568.31c0,0 0.98,6.48 2.69,17.82 -14.78,188.41 -36.62,388.54 -64.49,570.92 -273.47,84.55 -557.31,29.81 -654.49,6.2z"/>
    <path id="_129461256" class="fil1" d="M1288.16 1012.91c0,0 -58.08,33.66 -106.25,43.56 0,0 44.88,-1.32 112.19,-19.14l8.58 -18.48 -14.52 -5.94z"/>
    <path id="_129461184" class="fil1" d="M616.86 1020.17c0,0 58.08,33.66 106.25,43.56 0,0 -44.88,-1.32 -112.19,-19.14l-8.58 -18.48 14.52 -5.94z"/>
    <path id="_129461112" class="fil7" d="M735.3 905.24c0,0 60.77,-114.93 236.47,-114.93 175.7,0 -198.16,118.9 -236.47,114.93z"/>
    <path id="_129461040" class="fil5" d="M971.76 741.23c0,0 259.49,24.4 343.94,-29.03l-10.56 66.65c0,0 -137.95,25.06 -333.38,-37.63z"/>
    <path id="_129460968" class="fil5" d="M884.28 733.97c0,0 -213.16,17.16 -298.96,-21.78l10.56 66.65c0,0 217.12,-4.62 288.4,-44.88z"/>
    <path id="_129460896" class="fil1" d="M1346.95 528.73c0,0 -374.08,117.58 -369.98,119.57 4.11,1.98 363.83,-86.53 363.83,-86.53l6.15 -33.03 0 -0z"/>
    <path id="_129460824" class="fil1" d="M1206.95 544.33c0,0 -25.11,40.39 -4.52,83.02 18.7,-29.66 23.53,-56.63 4.52,-83.02z"/>
    <path id="_129460752" class="fil1" d="M1069.07 583.32c0,0 21.9,41.16 80.68,64.78 -15.88,-30.34 -39.55,-52.79 -80.68,-64.78z"/>
    <g>
     <g>
      <path id="_129460680" class="fil5" d="M920.32 936.41c0,0 -35.49,56.94 19.61,84.17 0,0 -20.85,-37.43 9.43,-66.02l-12.91 -10.21 -16.13 -7.94z"/>
      <g>
       <path id="_129460608" class="fil1" d="M917.98 935.74c0,0 17.98,5.18 61.47,64.99 4.78,-39.67 -23.59,-60.24 -61.47,-64.99z"/>
       <path id="_129460536" class="fil1" d="M942.5 946.32c0,0 -35.87,44.14 -1.93,74.06 0,0 -17.37,-30.16 14.4,-63.21l-5.64 -8.98 -6.83 -1.87z"/>
       <path id="_129460464" class="fil6" d="M952.34 976.16c4.04,1.44 4.95,9.82 2.02,18.72 -2.92,8.9 -8.58,14.95 -12.62,13.51 -4.04,-1.44 -4.95,-9.82 -2.02,-18.72 2.93,-8.9 8.58,-14.95 12.62,-13.51z"/>
      </g>
      <path id="_129460368" class="fil5" d="M963.32 989.41c0,0 5.19,20.34 -16.2,28.26 0,0 15.21,3.05 23.99,-4.86 8.78,-7.91 -7.79,-23.4 -7.79,-23.4z"/>
     </g>
     <path id="_129460272" class="fil6" d="M918.6 928.28c0,0 48.23,0 67.13,33.32 0,0 -3.48,-30.83 -18.9,-40.28 -15.42,-9.45 -48.23,6.96 -48.23,6.96z"/>
    </g>
    <g>
     <g>
      <path id="_129460176" class="fil1" d="M1192.78 659.38c23.25,0 42.11,9.8 42.11,21.88 0,12.08 -18.86,21.88 -42.11,21.88 -23.25,0 -42.11,-9.8 -42.11,-21.88 0,-12.08 18.86,-21.88 42.11,-21.88z"/>
      <path id="_129460104" class="fil8" d="M1192.78 669.59c14.7,0 26.63,5.22 26.63,11.67 0,6.44 -11.92,11.67 -26.63,11.67 -14.7,0 -26.63,-5.22 -26.63,-11.67 0,-6.44 11.92,-11.67 26.63,-11.67z"/>
     </g>
     <g>
      <path id="_129460008" class="fil1" d="M709.92 659.38c23.25,0 42.11,9.8 42.11,21.88 0,12.08 -18.86,21.88 -42.11,21.88 -23.25,0 -42.11,-9.8 -42.11,-21.88 0,-12.08 18.86,-21.88 42.11,-21.88z"/>
      <path id="_129459936" class="fil8" d="M709.92 669.59c14.7,0 26.63,5.22 26.63,11.67 0,6.44 -11.92,11.67 -26.63,11.67 -14.7,0 -26.63,-5.22 -26.63,-11.67 0,-6.44 11.92,-11.67 26.63,-11.67z"/>
     </g>
    </g>
    <path id="_129459816" class="fil1" d="M1324.28 714.18c0,0 -9.03,32.51 -34.32,48.76 0,0 24.92,-0.72 36.12,-15.17 11.2,-14.45 -1.81,-33.59 -1.81,-33.59z"/>
    <path id="_129459744" class="fil1" d="M580.02 714.18c0,0 9.03,32.51 34.32,48.76 0,0 -24.92,-0.72 -36.12,-15.17 -11.2,-14.45 1.81,-33.59 1.81,-33.59z"/>
    <ellipse id="_129459672" class="fil6" transform="matrix(0.98297 0.183763 -0.183763 0.98297 1360.92 273.768)" rx="32.77" ry="19.6"/>
    <ellipse id="_129459600" class="fil6" transform="matrix(-0.98297 0.183763 0.183763 0.98297 528.549 279.749)" rx="32.77" ry="19.6"/>
    <ellipse id="_129459528" class="fil6" transform="matrix(0.666026 0.124511 -0.124511 0.666026 1306.54 321.995)" rx="32.77" ry="19.6"/>
    <ellipse id="_129459456" class="fil6" transform="matrix(-0.538927 0.100751 0.100751 0.538927 566.859 320.028)" rx="32.77" ry="19.6"/>
    <ellipse id="_129459384" class="fil6" transform="matrix(0.440925 0.0824295 -0.0824295 0.440925 1392.13 321.787)" rx="32.77" ry="19.6"/>
    <ellipse id="_129459312" class="fil6" transform="matrix(-0.643053 0.521614 0.521614 0.643053 456.788 314.626)" rx="32.77" ry="19.6"/>
    <ellipse id="_129459240" class="fil6" transform="matrix(-0.47318 0.0884594 0.0884594 0.47318 530.75 354.164)" rx="32.77" ry="19.6"/>
    <ellipse id="_129459168" class="fil6" transform="matrix(0.298755 0.0558513 -0.0558513 0.298755 1427.03 363.369)" rx="32.77" ry="19.6"/>
    <ellipse id="_129459096" class="fil6" transform="matrix(-0.451871 0.0844757 0.0844757 0.451871 457.591 370.166)" rx="32.77" ry="19.6"/>
    <path id="_129459024" class="fil7" d="M937.34 486.98c0,0 -15.84,186.27 7.94,210.71 18.39,18.9 7.01,-137.55 -0.89,-201.08 -2.32,-18.61 -6.75,-8.73 -7.04,-9.63z"/>
    <ellipse id="_129458952" class="fil6" transform="matrix(0.902773 -0.430117 0.430117 0.902773 1515.81 428.199)" rx="34.32" ry="48.18"/>
    <circle id="_129458880" class="fil6" cx="1522.09" cy="520.92" r="10.89"/>
    <circle id="_129458808" class="fil6" cx="1351.49" cy="417.64" r="17.16"/>
    <circle id="_129458736" class="fil6" transform="matrix(0.760059 -0.243675 0.305293 0.952257 1617.12 586.256)" r="35.97"/>
    <circle id="_129458664" class="fil6" transform="matrix(0.798115 -0.00891731 0.0111723 0.999937 1672.24 1119.15)" r="35.97"/>
    <circle id="_129458592" class="fil6" cx="1521.75" cy="656.54" r="9.9"/>
    <circle id="_129458520" class="fil6" transform="matrix(0.955609 0.294636 -0.294636 0.955609 1560.39 1158.22)" r="9.9"/>
    <ellipse id="_129458448" class="fil6" transform="matrix(0.929785 0.368103 -0.368103 0.929785 333.522 504.753)" rx="34.65" ry="47.52"/>
    <ellipse id="_129458376" class="fil6" transform="matrix(0.81188 0.583824 -0.583824 0.81188 428.555 461.856)" rx="16.17" ry="22.44"/>
    <ellipse id="_129458304" class="fil6" transform="matrix(0.563389 0.405134 -0.405134 0.563389 518.431 438.561)" rx="16.17" ry="22.44"/>
    <ellipse id="_129458232" class="fil6" transform="matrix(0.776287 -0.630379 0.630379 0.776287 311.413 588.896)" rx="19.14" ry="15.51"/>
    <path id="_129458160" class="fil7" d="M676.89 460.29c57.39,-22.35 134.48,-14.77 155.77,39.9 20.42,52.43 -200.83,151.71 -221.14,99.58 -21.29,-54.67 7.98,-117.13 65.37,-139.48z"/>
    <path id="_129458088" class="fil7" d="M1139.02 430.03c53.53,-20.85 134.02,-22.36 153.88,28.64 19.05,48.91 -248.71,160 -267.65,111.37 -19.86,-51 60.24,-119.16 113.77,-140.01l0 -0z"/>
    <path class="fil4" d="M388.71 1121.6l0.32 0c8.73,-0 15.82,7.08 15.82,15.81l-0 99.14c0,8.73 -7.08,15.81 -15.81,15.81l-0.32 0c-8.73,-0 -15.81,-7.08 -15.81,-15.82l-0 -99.14c0,-8.73 7.08,-15.82 15.82,-15.82z"/>
    <path class="fil4" d="M352.63 1154.21l0 0c4.78,-0 8.65,7.08 8.65,15.81l-0 39.19c0,8.73 -3.87,15.81 -8.65,15.81l-0 0c-4.78,-0 -8.65,-7.08 -8.65,-15.82l-0 -39.19c0,-8.73 3.88,-15.82 8.65,-15.82z"/>
    <path id="_129457872" class="fil1" d="M203.43 1212.33l264.08 -72.96 -4.15 -3.25c-9.12,-28.63 -16.24,-57.99 -21.51,-87.78l-259.63 76.88c5.54,29.25 12.62,58.24 21.21,87.11z"/>
    <path id="_129457800" class="fil9" d="M197.78 1192.55l260.77 -72.25c-5.11,-17.59 -9.5,-35.43 -13.18,-53.46l-259.59 76.16c3.51,16.58 7.51,33.09 12.01,49.55z"/>
    <path id="_129457728" class="fil1" d="M224.06 1273.71l229.58 -171.21c-8.15,-31.28 -14.07,-63.26 -17.94,-95.59l-238.38 183.92c4.93,18.19 6.84,37.97 12.97,56.07 1.01,2.99 11.89,25.75 13.78,26.81z"/>
    <path id="_129457656" class="fil10" d="M220.69 1252.33l228.03 -169.97c-4.19,-18.37 -7.64,-36.95 -10.38,-55.68l-236.16 181.37c-1.41,16.77 5.06,34.23 18.51,44.27l0 -0z"/>
    <path id="_129457584" class="fil9" d="M426.87 1098.65l21.85 -16.28c-4.19,-18.37 -7.64,-36.95 -10.38,-55.68l-23.61 18.14c7.05,11.71 13.88,29.51 12.18,53.22l-0.04 0.6z"/>
    <path id="_129457512" class="fil1" d="M178.9 1139.89l267.94 -85.77c-5.38,-29 -9,-58.42 -10.98,-88l-263.8 89.91c2.89,27.79 1.22,56.58 6.84,83.86z"/>
    <path id="_129457440" class="fil10" d="M181.22 1119.89l258.41 -84.76c-2.69,-16.98 -4.79,-34.09 -6.32,-51.27l-259.31 89.05c1.96,15.75 4.38,31.39 7.22,46.97l0 0z"/>
    <path id="_129457368" class="fil1" d="M163.85 1031.62l277.08 11.51c-5.37,-31.66 -8.66,-63.78 -10.07,-96.02l-268.74 -6.68c-1.04,30.88 -0.45,61.24 1.73,91.19z"/>
    <path id="_129457296" class="fil10" d="M168.54 1009.4l269.12 12.56c4.2,-17.09 5.41,-35.07 -5.76,-55.88l-264.26 -8.66c-0.22,17.48 0.08,34.8 0.9,51.98z"/>
    <path id="_129457224" class="fil9" d="M400.07 1020.2l37.58 1.75c4.2,-17.09 5.41,-35.07 -5.76,-55.88l-55.79 -1.83c-0.33,2.67 -0.77,5.46 -1.33,8.41 0,0 20.33,27.44 25.31,47.54z"/>
    <path id="_129457152" class="fil1" d="M175.52 1084.42l256.46 -117.24c-1.93,-28.23 -2.36,-56.61 -1.44,-84.89 -2.08,-2.62 -4.32,-5.11 -6.74,-7.41l-255.77 121.96c0.98,29.58 3.49,58.74 7.49,87.59l0 0z"/>
    <path id="_129457080" class="fil10" d="M173.02 1064.79l257.82 -118.07c-0.3,-6.99 -0.51,-13.98 -0.64,-20.98 -2.85,-9.74 -7.15,-21.07 -13.15,-28.55l-248.24 117.7c-5.25,17.64 -3.85,34.26 4.21,49.9l0 0z"/>
    <path id="_129457008" class="fil11" d="M173.02 1064.79l2.7 -1.24c0.04,-20.62 8.98,-40.09 8.98,-40.09l178.85 -96.35c0,0 -10.25,3.06 -26.43,7.98l-168.31 79.8c-5.25,17.64 -3.85,34.26 4.21,49.9l0 0z"/>
    <path id="_129456936" class="fil9" d="M374.82 972.38l56.02 -25.65c-0.3,-6.99 -0.51,-13.98 -0.64,-20.98 -2.85,-9.74 -7.15,-21.07 -13.15,-28.55l-46.58 22.09c0.13,1.27 0.25,2.55 0.34,3.87 0,0 10.5,15.1 4.01,49.22z"/>
    <path id="_129456864" class="fil1" d="M172.27 877.02l252.78 14.16c0,0 10.81,-6.08 13.7,-16.34 0.78,-18.59 2.14,-37.12 4.06,-55.54 -0.43,-2.02 -0.94,-4.02 -1.55,-5.99l-263.27 7.34c-3.27,17.32 -1.05,16.8 -3.2,33.94 -0.94,7.52 -1.78,14.99 -2.53,22.43z"/>
    <path id="_129456792" class="fil10" d="M174.15 865.31l243.26 8.92c5.9,-0 24.41,-27.88 6.24,-45.56l-246.69 5.92c-8.78,9.42 -8.17,23.15 -2.81,30.72z"/>
    <path id="_129456720" class="fil9" d="M174.15 865.31l243.26 8.92c5.9,-0 24.41,-27.88 6.24,-45.56l-242.08 14.82c-8.78,9.42 -12.79,14.25 -7.42,21.83z"/>
    <path id="_129456648" class="fil9" d="M346.71 871.64l70.7 2.59c5.9,-0 24.41,-27.88 6.24,-45.56l-67.1 1.61c-6.32,13.64 -16.31,27.06 -31.94,32.17 0,0 10.87,0.85 22.1,9.19z"/>
    <path id="_129456576" class="fil1" d="M161.95 957.6l268.36 -26.7c-0.66,-27.51 0.04,-55.05 1.98,-82.42l-264.76 17.42c-3.01,26.58 -4.86,65.92 -5.58,91.7l-0 0z"/>
    <path id="_129456504" class="fil10" d="M167.91 937.71c87.39,-8.28 174.77,-16.56 262.16,-24.84 10.42,-13.93 7.53,-30.6 1.21,-48.01 -86.49,5.63 -172.99,11.26 -259.48,16.89 -8.48,15.05 -10.21,41.18 -3.89,55.96z"/>
    <path id="_129456432" class="fil11" d="M167.91 937.71l2.56 -0.24 12.26 -38.06 252.01 -23.59c-0.94,-3.61 -2.12,-7.27 -3.46,-10.96 -86.49,5.63 -172.99,11.26 -259.48,16.89 -8.48,15.05 -10.21,41.18 -3.89,55.96l-0 0z"/>
    <path id="_129456360" class="fil9" d="M370.39 918.52l59.68 -5.66c10.42,-13.93 7.53,-30.6 1.21,-48.01l-86.21 5.61c10.78,7.36 22.37,21.39 25.32,48.05z"/>
    <circle id="_129456288" class="fil4" cx="325.55" cy="775.05" r="14.14"/>
    <circle id="_129456216" class="fil4" cx="396.22" cy="753.22" r="23.43"/>
    <circle id="_129456144" class="fil6" cx="1556.86" cy="929.78" r="14.78"/>
    <circle id="_129456072" class="fil6" cx="1541.56" cy="1099.37" r="12.54"/>
    <circle id="_129456000" class="fil6" cx="1655.4" cy="1015.22" r="7.59"/>
   </g>
  </g>
 </g>
</svg>
