<?xml version="1.0" encoding="UTF-8"?>
<!DOCTYPE svg PUBLIC "-//W3C//DTD SVG 1.1//EN" "http://www.w3.org/Graphics/SVG/1.1/DTD/svg11.dtd">
<!-- Creator: CorelDRAW 2020 (64-Bit) -->
<svg xmlns="http://www.w3.org/2000/svg" xml:space="preserve" width="161.908mm" height="176.791mm" version="1.1" style="shape-rendering:geometricPrecision; text-rendering:geometricPrecision; image-rendering:optimizeQuality; fill-rule:evenodd; clip-rule:evenodd"
viewBox="0 0 1398.91 1527.51"
 xmlns:xlink="http://www.w3.org/1999/xlink"
 xmlns:xodm="http://www.corel.com/coreldraw/odm/2003">
 <defs>
  <style type="text/css">
   <![CDATA[
    .fil0 {fill:none}
    .fil1 {fill:#501D33}
    .fil12 {fill:#623448}
    .fil5 {fill:#88958A}
    .fil9 {fill:#8E7A5D}
    .fil7 {fill:#9B6858}
    .fil2 {fill:#AFC0A6}
    .fil3 {fill:#B78F6F}
    .fil8 {fill:#C3C077}
    .fil10 {fill:#D4D784}
    .fil6 {fill:#D5BC86}
    .fil4 {fill:#D6E6C6}
    .fil11 {fill:#EEF698}
    .fil13 {fill:white}
   ]]>
  </style>
 </defs>
 <g id="Слой_x0020_1">
  <metadata id="CorelCorpID_0Corel-Layer"/>
  <g id="_2674549366752">
   <rect class="fil0" y="0" width="1398.91" height="1527.51"/>
   <g>
    <path id="_129455904" class="fil1" d="M1018.53 159.53c144.26,64.73 262.51,314.95 273.05,446.76 12.07,150.99 10.2,242.88 -77.87,427.36 0,0 -19.88,37.14 -85.33,21.22 -30.49,4.93 -57.57,-7.29 -71.59,-27.39 -0.34,-0.49 -37.31,-4 -54.86,-21.09 -7.96,-7.75 -13.02,-14.64 -10.16,-28.75 3.75,-18.47 9.28,-41.08 9.28,-41.08 0,0 -32.55,-32.45 -27.22,-46.26 5.33,-13.81 71.89,-71.49 72.01,-72.05 45.68,-209.44 0.89,-388.11 -118.77,-532.42l-96.14 -127.3c48.3,-14.26 136.39,-22 187.61,0.99z"/>
    <path id="_129455832" class="fil1" d="M439.91 790.72c-26.09,-155.07 -39.55,-416.45 -55.23,-539.39 27.42,-112.9 243.08,-78.28 316.55,-63.01 73.47,-15.27 289.13,-49.89 316.55,63.01 -15.48,121.31 -26.87,379.64 -52.25,535.12 -95.32,30.27 -186.42,40.62 -265.42,40.47 -59.94,-0.12 -199.07,-12.04 -260.2,-36.21l0 0z"/>
    <path id="_129455760" class="fil1" d="M382.23 159.53c-144.26,64.73 -262.51,314.95 -273.05,446.76 -12.07,150.99 -10.2,242.88 77.87,427.36 0,0 19.88,37.14 85.33,21.22 30.49,4.93 57.57,-7.29 71.59,-27.39 0.34,-0.49 37.31,-4 54.86,-21.09 7.96,-7.75 13.02,-14.64 10.16,-28.75 -3.75,-18.47 -9.28,-41.08 -9.28,-41.08 0,0 32.55,-32.45 27.22,-46.26 -5.33,-13.81 -71.89,-71.49 -72.01,-72.05 -45.68,-209.44 -0.89,-388.11 118.77,-532.42l96.14 -127.3c-48.3,-14.26 -136.39,-22 -187.61,0.99z"/>
    <path id="_129455688" class="fil2" d="M396.74 356.21l13.63 -18.86c11.01,147.04 27.98,305.29 50,448.37 71.63,17.4 280.84,57.75 482.42,-4.57 21.57,-141.18 38.25,-296.79 49.14,-441.67l12.09 16.73c71.87,126.77 106.68,319.7 55.21,481.21 0,0 -63.7,49.52 -64.48,56.37 -0.78,6.84 17.41,26.93 17.41,26.93 5.65,-9.7 13.38,-27.37 16.57,-23.6 -11.56,40.66 -16.82,64.89 -19.97,79.25 -4.12,18.8 0.62,19.93 15.8,27.07l33.23 8.77c0,0 7.07,-25.95 9.28,-26.03 2.2,-0.08 2.31,35.07 2.31,35.07 25.41,21.92 56.52,21.81 56.52,21.81 0,0 24.63,-28.39 25.63,-26.14 1,2.25 -13.71,28.27 -13.71,28.27 50.57,5.85 58.6,-17.78 58.6,-17.78 66.09,-129.47 93.34,-254.69 75.5,-397.5 -17.73,-141.88 -88.97,-295.15 -188.04,-396.76 -68.06,-69.8 -122.14,-75.36 -213.85,-71.64 -49.94,-16.67 -109.26,-25.09 -168.6,-25.2l0 -0 -0.18 0 -0.18 -0 0 0c-59.42,0.1 -118.81,8.55 -168.79,25.26 -92.64,-3.84 -146.93,1.39 -215.37,71.58 -99.07,101.61 -170.31,254.89 -188.04,396.76 -17.84,142.81 9.41,268.02 75.5,397.5 0,0 8.02,23.63 58.6,17.78 0,0 -14.71,-26.02 -13.71,-28.27 1,-2.25 25.63,26.14 25.63,26.14 0,0 31.12,0.11 56.52,-21.81 0,0 0.1,-35.15 2.31,-35.07 2.2,0.08 9.28,26.03 9.28,26.03l33.23 -8.77c15.18,-7.14 19.92,-8.27 15.8,-27.07 -3.15,-14.36 -8.41,-38.58 -19.97,-79.25 3.19,-3.76 10.91,13.9 16.57,23.6 0,0 18.19,-20.09 17.41,-26.93 -0.78,-6.85 -64.48,-56.37 -64.48,-56.37 -51.48,-161.51 -16.66,-354.44 55.21,-481.21l-0 -0z"/>
    <path class="fil3" d="M1167.93 1044.94c-1.67,-6.71 -2.57,-13.73 -2.57,-20.96 0,-42.14 30.2,-77.21 70.14,-84.78 -10.96,29.35 -24.01,58.67 -39.09,88.21 0,0 -4.57,13.43 -28.48,17.53zm-20.57 -128.4c9.94,0 18,8.06 18,18 0,9.94 -8.06,18 -18,18 -9.94,0 -18,-8.06 -18,-18 0,-9.94 8.06,-18 18,-18zm39.72 12.57c4.73,0 8.57,3.84 8.57,8.57 0,4.73 -3.84,8.57 -8.57,8.57 -4.73,0 -8.57,-3.84 -8.57,-8.57 0,-4.73 3.84,-8.57 8.57,-8.57z"/>
    <polygon class="fil4" points="155.2,869.65 251.21,849.08 167.77,905.66 "/>
    <path class="fil4" d="M1245.07 870.22l-139.16 -36.86 132.3 68.87c0,0 9.14,-20.57 6.86,-32z"/>
    <path id="_129455472" class="fil5" d="M396.74 356.21l3.51 -4.86c-0.92,-0.52 -1.84,-1.09 -2.77,-1.55 0,0 -247.62,280.85 -9.37,647.52 5.47,-3.82 6.61,-8.53 3.89,-20.95 -3.15,-14.36 -8.41,-38.58 -19.97,-79.25 3.19,-3.76 10.91,13.9 16.57,23.6 0,0 18.19,-20.09 17.41,-26.93 -0.78,-6.85 -64.48,-56.37 -64.48,-56.37 -51.48,-161.51 -16.66,-354.44 55.21,-481.21l0 0z"/>
    <path id="_129455400" class="fil4" d="M373.62 187.41c-18.57,10.77 -37.07,25.57 -56.73,45.73 -99.07,101.61 -170.31,254.89 -188.04,396.76 -17.84,142.81 9.41,268.02 75.5,397.5 0,0 0.68,2 2.89,4.69 14.61,-2.04 29.38,-5.35 43.87,-9.47 -1.33,-2.92 -2.14,-5.12 -1.88,-5.7 0.3,-0.67 2.67,1.36 5.87,4.54 28.18,-8.31 55.09,-19.49 77.31,-29.95 0.32,-3.22 0.73,-5.35 1.28,-5.33 0.49,0.02 1.15,1.51 1.88,3.83 29.28,-13.98 49.76,-26.35 53.13,-28.41l-0.03 -0.13c-64.76,22.25 -174.1,33.38 -174.1,33.38 -147.52,-303.47 -45.25,-627.1 159.03,-807.45l-0 0z"/>
    <path id="_129455688_0" class="fil5" d="M187.5 426.98c-14,30.92 -25.95,62.75 -35.55,94.81 19.5,-0.25 103.73,2.59 169,65.85 0.44,0.42 0.86,0.81 1.29,1.22 4.11,-32.62 10.54,-64.63 18.93,-95.33 -28.56,-23.75 -78.58,-57.19 -109.37,-59.62 -12.19,-0.96 -27.88,-3.81 -44.29,-6.93z"/>
    <path id="_129455328" class="fil4" d="M1027.13 187.41c18.57,10.77 37.07,25.57 56.73,45.73 99.07,101.61 170.31,254.89 188.04,396.76 17.84,142.81 -9.41,268.02 -75.5,397.5 0,0 -0.68,2 -2.89,4.69 -14.61,-2.04 -29.38,-5.35 -43.87,-9.47 1.33,-2.92 2.14,-5.12 1.88,-5.7 -0.3,-0.67 -2.67,1.36 -5.87,4.54 -28.18,-8.31 -55.09,-19.49 -77.31,-29.95 -0.32,-3.22 -0.73,-5.35 -1.28,-5.33 -0.49,0.02 -1.15,1.51 -1.88,3.83 -29.28,-13.98 -49.76,-26.35 -53.13,-28.41l0.03 -0.13c64.76,22.25 174.1,33.38 174.1,33.38 147.52,-303.47 45.25,-627.1 -159.03,-807.45l0 0z"/>
    <path id="_129455328_1" class="fil6" d="M1235.49 939.2c-0.36,0.98 -0.73,1.95 -1.1,2.93l-0.58 1.52c-0.54,1.41 -1.08,2.81 -1.62,4.22l-0.7 1.79c-0.59,1.51 -1.19,3.03 -1.79,4.54l-0.5 1.25c-0.63,1.58 -1.27,3.17 -1.92,4.75l-0.59 1.45c-0.69,1.69 -1.39,3.38 -2.1,5.07l-0.22 0.52c-0.75,1.8 -1.51,3.6 -2.28,5.4l-0.27 0.64c-0.78,1.82 -1.57,3.65 -2.37,5.47l-0.11 0.25 -0.04 0.1 -0.04 0.09c-0.83,1.9 -1.67,3.8 -2.52,5.71l-0.13 0.29c-6.27,14.04 -13.01,28.1 -20.22,42.22 0,0 -0.68,2 -2.89,4.69 -9.34,-1.3 -18.75,-3.13 -28.11,-5.35 -0.03,-0.91 -0.04,-1.83 -0.04,-2.76 0,-10.87 2.01,-21.27 5.68,-30.85 9.47,1.15 15.12,1.72 15.12,1.72 7.1,-14.61 13.61,-29.26 19.57,-43.94 8.95,-5.64 19,-9.67 29.76,-11.71z"/>
    <path id="_129455688_2" class="fil5" d="M1253.05 536.51c-26.13,0.27 -108.01,6.36 -172.71,68.28 -3.53,-34.65 -9.72,-68.74 -18.14,-101.45 30.55,-24.66 79.95,-56.86 110.89,-59.3 12.35,-0.97 28.11,-3.79 44.68,-6.92 14.15,32.47 26.02,65.87 35.28,99.39z"/>
    <path id="_129455256" class="fil5" d="M1004.01 356.21l-3.51 -4.86c0.92,-0.52 1.84,-1.09 2.77,-1.55 0,0 247.62,280.85 9.37,647.52 -5.47,-3.82 -6.61,-8.53 -3.89,-20.95 3.15,-14.36 8.41,-38.58 19.97,-79.25 -3.19,-3.76 -10.91,13.9 -16.57,23.6 0,0 -18.19,-20.09 -17.41,-26.93 0.78,-6.85 64.48,-56.37 64.48,-56.37 51.48,-161.51 16.66,-354.44 -55.21,-481.21l0 0z"/>
    <path id="_129454896" class="fil2" d="M1006.68 894.09c0,0 10.44,-21.61 37.15,-35.2 26.71,-13.6 -18.45,35.69 -37.15,35.2z"/>
    <path id="_129454824" class="fil5" d="M1199.26 1021.74c-0.94,1.89 -1.89,3.78 -2.85,5.66 0,0 -8.02,23.63 -58.59,17.78 0,0 14.7,-26.02 13.71,-28.27 -1,-2.25 -25.63,26.15 -25.63,26.15 0,0 -31.12,0.11 -56.52,-21.82 0,0 -0.1,-35.15 -2.31,-35.07 -2.21,0.08 -7.58,28.7 -7.58,28.7 -17.14,-2.28 -36.81,-8.53 -48.36,-18.76 -4.13,-3.66 -4.81,-8.6 -2.36,-19.76 1.05,-4.79 2.33,-10.68 4.01,-17.9 95.92,43.09 157.23,58.1 186.49,63.28l0 0z"/>
    <path id="_129454824_3" class="fil7" d="M1199.26 1021.74c-0.94,1.89 -1.89,3.78 -2.85,5.66 0,0 -0.71,2.08 -3.02,4.85l-0.01 0.01 -0.34 0.4 -0.07 0.08 -0.32 0.36 -0.06 0.06c-0.14,0.15 -0.27,0.3 -0.42,0.45l-0.01 0.01 -0.41 0.42 -0.11 0.11 -0.33 0.32 -0.14 0.14 -0.47 0.44 -0.06 0.05 -0.44 0.38 -0.15 0.13 -0.39 0.32 -0.17 0.14c-0.18,0.15 -0.37,0.3 -0.56,0.44l-0.04 0.03c-0.17,0.13 -0.34,0.26 -0.52,0.39l-0.24 0.18 -0.43 0.31 -0.16 0.11c-0.2,0.14 -0.41,0.28 -0.63,0.42l-0.31 0.2 -0.37 0.24 -0.32 0.2 -0.41 0.25 -0.31 0.19c-0.22,0.13 -0.45,0.26 -0.68,0.39l-0.06 0.03 -0.12 0.07 -0.62 0.34 -0.3 0.16 -0.51 0.26 -0.34 0.17c-0.27,0.13 -0.53,0.26 -0.81,0.38l-0.25 0.11 -0.62 0.27 -0.41 0.17 -0.55 0.23 -0.36 0.15c-0.28,0.11 -0.57,0.22 -0.86,0.33l-0.33 0.12c-0.26,0.09 -0.51,0.19 -0.78,0.28l-0.34 0.12 -0.69 0.23 -0.41 0.13c-0.32,0.1 -0.64,0.2 -0.97,0.3l-0.08 0.02 -0.03 0.01 -0.2 0.06c-0.3,0.09 -0.61,0.18 -0.92,0.26l-0.37 0.1 -0.81 0.21 -0.41 0.1 -0.94 0.22 -0.5 0.11c-0.35,0.08 -0.7,0.15 -1.05,0.22l-0.31 0.06 -1.01 0.19 -0.38 0.07 -0.24 0.04c-1.67,-6.71 -2.57,-13.73 -2.57,-20.96 0,-3.25 0.18,-6.45 0.53,-9.61 13.83,3.56 24.93,5.88 33.37,7.37l0 0zm-11.73 15.79c-0.2,0.14 -0.41,0.28 -0.63,0.42z"/>
    <path id="_129454680" class="fil8" d="M460.37 785.72c-25.46,-165.46 -44.18,-351.19 -54.72,-516.43 21.42,-88.2 158.37,-132.74 295.4,-132.99l0 -0 0.18 0 0.18 -0 0 0c137.03,0.24 273.98,44.79 295.4,132.99 -10.45,163.72 -28.92,347.56 -54.02,511.86 -201.57,62.32 -410.78,21.97 -482.42,4.57l0 -0z"/>
    <path id="_129454464" class="fil9" d="M428.79 161.39c0,0 55.51,171.86 261.94,173.81 206.43,1.95 277.03,-175.27 277.03,-175.27 0,0 -230.44,-71.56 -538.97,1.46l-0 0z"/>
    <path id="_129454608" class="fil10" d="M690.9 358.95c0,0 -11.67,137.3 5.85,155.31 13.55,13.93 5.17,-101.39 -0.66,-148.21 -1.71,-13.72 -4.97,-6.44 -5.19,-7.1l0 -0z"/>
    <path id="_129342832" class="fil9" d="M460.37 785.72c-20.64,-134.11 -36.85,-281.54 -47.86,-420.59 1.32,-6.16 2.51,-9.77 3.51,-10.16l61.35 413.84c0,0 168.07,69.36 444.74,-2.73l66.24 -418.89c0,0 0.73,4.78 1.98,13.14 -10.9,138.87 -26.99,286.39 -47.53,420.82 -201.58,62.32 -410.79,21.97 -482.42,4.57l-0 -0z"/>
    <path id="_129342760" class="fil9" d="M514 743.84c0,0 79.78,36.97 186.31,38.43 106.53,1.46 202.86,-60.8 202.86,-60.8 0,0 -54.98,81.23 -187.78,87.07 -132.8,5.84 -201.39,-64.7 -201.39,-64.7z"/>
    <path id="_129342688" class="fil1" d="M949.49 746.6c0,0 -42.81,24.81 -78.32,32.11 0,0 33.08,-0.97 82.7,-14.11l6.32 -13.62 -10.7 -4.38z"/>
    <path id="_129342616" class="fil1" d="M454.68 751.96c0,0 42.81,24.81 78.32,32.11 0,0 -33.08,-0.97 -82.7,-14.11l-6.32 -13.62 10.7 -4.38z"/>
    <path id="_129342544" class="fil10" d="M541.98 667.25c0,0 44.79,-84.72 174.3,-84.72 129.51,0 -146.06,87.64 -174.3,84.72z"/>
    <path id="_129342472" class="fil9" d="M716.28 546.35c0,0 191.27,17.98 253.51,-21.4l-7.78 49.13c0,0 -101.68,18.47 -245.73,-27.73z"/>
    <path id="_129342400" class="fil9" d="M651.79 541.01c0,0 -157.12,12.65 -220.36,-16.05l7.78 49.13c0,0 160.04,-3.41 212.57,-33.08z"/>
    <g>
     <g>
      <path id="_129342328" class="fil9" d="M678.36 690.22c0,0 -26.16,41.97 14.45,62.04 0,0 -15.37,-27.59 6.95,-48.66l-9.51 -7.53 -11.89 -5.85z"/>
      <g>
       <path id="_129342256" class="fil1" d="M676.63 689.72c0,0 13.25,3.81 45.31,47.9 3.52,-29.24 -17.39,-44.4 -45.31,-47.9z"/>
       <path id="_129342184" class="fil1" d="M694.71 697.52c0,0 -26.44,32.53 -1.42,54.59 0,0 -12.8,-22.23 10.61,-46.59l-4.16 -6.62 -5.04 -1.38z"/>
       <path id="_129342112" class="fil11" d="M701.96 719.52c2.98,1.06 3.65,7.24 1.49,13.8 -2.16,6.56 -6.32,11.02 -9.3,9.96 -2.98,-1.06 -3.65,-7.24 -1.49,-13.8 2.16,-6.56 6.32,-11.02 9.3,-9.96z"/>
      </g>
      <path id="_129342016" class="fil9" d="M710.05 729.29c0,0 3.83,15 -11.94,20.83 0,0 11.21,2.25 17.68,-3.58 6.47,-5.83 -5.74,-17.24 -5.74,-17.24z"/>
     </g>
     <path id="_129341920" class="fil11" d="M677.09 684.23c0,0 35.55,0 49.48,24.56 0,0 -2.57,-22.73 -13.93,-29.69 -11.36,-6.96 -35.55,5.13 -35.55,5.13z"/>
    </g>
    <g>
     <g>
      <path id="_129341824" class="fil1" d="M879.18 486.02c17.14,0 31.04,7.22 31.04,16.12 0,8.91 -13.9,16.13 -31.04,16.13 -17.14,0 -31.04,-7.22 -31.04,-16.13 0,-8.9 13.9,-16.12 31.04,-16.12z"/>
      <path id="_129341752" class="fil12" d="M879.18 493.55c10.84,0 19.63,3.85 19.63,8.6 0,4.75 -8.79,8.6 -19.63,8.6 -10.84,0 -19.63,-3.85 -19.63,-8.6 0,-4.75 8.79,-8.6 19.63,-8.6z"/>
     </g>
     <g>
      <path id="_129341656" class="fil1" d="M523.28 486.02c17.14,0 31.04,7.22 31.04,16.12 0,8.91 -13.9,16.13 -31.04,16.13 -17.14,0 -31.04,-7.22 -31.04,-16.13 0,-8.9 13.9,-16.12 31.04,-16.12z"/>
      <path id="_129341584" class="fil12" d="M523.28 493.55c10.84,0 19.63,3.85 19.63,8.6 0,4.75 -8.79,8.6 -19.63,8.6 -10.84,0 -19.63,-3.85 -19.63,-8.6 0,-4.75 8.79,-8.6 19.63,-8.6z"/>
     </g>
    </g>
    <path id="_129341464" class="fil1" d="M976.11 526.41c0,0 -6.66,23.96 -25.29,35.94 0,0 18.37,-0.53 26.62,-11.18 8.25,-10.65 -1.33,-24.76 -1.33,-24.76z"/>
    <path id="_129341392" class="fil1" d="M427.53 526.41c0,0 6.66,23.96 25.29,35.94 0,0 -18.37,-0.53 -26.62,-11.18 -8.25,-10.65 1.33,-24.76 1.33,-24.76z"/>
    <path id="_128810592" class="fil2" d="M394.07 894.09c0,0 -10.44,-21.61 -37.15,-35.2 -26.71,-13.6 18.45,35.69 37.15,35.2z"/>
    <path id="_128810520" class="fil5" d="M201.5 1021.74c0.94,1.89 1.89,3.78 2.85,5.66 0,0 8.02,23.63 58.59,17.78 0,0 -14.7,-26.02 -13.71,-28.27 1,-2.25 25.63,26.15 25.63,26.15 0,0 31.12,0.11 56.52,-21.82 0,0 0.1,-35.15 2.31,-35.07 2.21,0.08 7.58,28.7 7.58,28.7 17.14,-2.28 36.81,-8.53 48.36,-18.76 4.13,-3.66 4.81,-8.6 2.36,-19.76 -1.05,-4.79 -2.33,-10.68 -4.01,-17.9 -95.92,43.09 -157.23,58.1 -186.49,63.28l-0 0z"/>
    <g>
     <path class="fil9" d="M475.44 186.73c9.41,59.12 -1.97,122.87 -48.51,180.83l-12.78 17.69c-3.24,-39.4 -6.08,-78.21 -8.49,-115.96 8.27,-34.03 33.75,-61.56 69.79,-82.56z"/>
     <g>
      <path class="fil1" d="M429.11 280.24l58.73 28.74c14.86,7.27 21.08,25.39 13.8,40.25l0 0c-7.27,14.87 -25.39,21.08 -40.25,13.8l-58.73 -28.74c-14.86,-7.27 -21.08,-25.39 -13.8,-40.25l0 0c7.27,-14.87 25.39,-21.08 40.25,-13.8z"/>
      <path class="fil5" d="M445.37 300.71l36.99 18.1c9.36,4.58 13.27,15.99 8.69,25.35l0 0c-4.58,9.36 -15.99,13.27 -25.35,8.69l-36.99 -18.1c-9.36,-4.58 -13.27,-15.99 -8.69,-25.35l0 0c4.58,-9.36 15.99,-13.27 25.35,-8.69z"/>
      <g>
       <circle class="fil2" cx="472.71" cy="336.74" r="13.84"/>
       <circle class="fil1" cx="471.46" cy="333.42" r="13.84"/>
       <circle class="fil2" cx="471.46" cy="333.42" r="6.64"/>
      </g>
     </g>
     <g>
      <path class="fil1" d="M431.98 201.97l65.34 -2.55c16.54,-0.65 30.59,12.36 31.24,28.89l0 0c0.65,16.54 -12.36,30.59 -28.89,31.24l-65.34 2.55c-16.54,0.65 -30.59,-12.36 -31.24,-28.89l0 0c-0.65,-16.54 12.36,-30.59 28.89,-31.24z"/>
      <path class="fil5" d="M456.01 212.28l41.15 -1.61c10.41,-0.41 19.27,7.78 19.67,18.2l0 0c0.41,10.41 -7.78,19.27 -18.2,19.67l-41.15 1.61c-10.41,0.41 -19.27,-7.78 -19.67,-18.2l0 0c-0.41,-10.41 7.78,-19.27 18.2,-19.67z"/>
      <g>
       <circle class="fil2" transform="matrix(0.947297 -0.510289 0.510289 0.947297 497.162 231.043)" r="12.86"/>
       <circle class="fil1" transform="matrix(0.947297 -0.510289 0.510289 0.947297 494.489 228.708)" r="12.86"/>
       <circle class="fil2" transform="matrix(0.454389 -0.24477 0.24477 0.454389 494.489 228.708)" r="12.86"/>
      </g>
     </g>
     <path class="fil1" d="M445.72 148.73c24.63,62.25 25.07,136.76 -27.73,202.52l-12.76 17.66 -132.35 -101.35c11.32,-13.58 23.02,-26.6 35.07,-38.97 47.49,-48.7 89.19,-70.83 137.77,-79.87z"/>
     <path class="fil2" d="M433.93 165.29c20.92,52.88 21.3,116.19 -23.56,172.06l-10.84 15 -112.44 -86.1c9.62,-11.54 19.56,-22.6 29.8,-33.1 40.34,-41.38 75.77,-60.18 117.04,-67.85z"/>
     <path class="fil4" d="M433.93 165.29c1.35,3.42 2.62,6.89 3.8,10.4 -77.6,26.91 -98.49,73.06 -98.49,73.06l43.44 80.01c-0.59,3.25 -1.51,6.11 -2.72,8.6l-92.87 -71.12c9.62,-11.54 19.56,-22.6 29.8,-33.1 40.34,-41.38 75.77,-60.18 117.04,-67.85z"/>
     <path class="fil5" d="M433.93 165.29c20.92,52.88 21.3,116.19 -23.56,172.06l-10.84 15 -23.89 -18.29c62.24,-64.29 52.8,-141.11 47.45,-166.45 3.57,-0.86 7.18,-1.63 10.84,-2.31z"/>
     <g>
      <path class="fil1" d="M274.31 510.09l-17.28 63.06c-4.37,15.96 -21.01,25.44 -36.97,21.07l0 0c-15.96,-4.37 -25.44,-21.01 -21.07,-36.97l17.28 -63.06c4.37,-15.96 21.01,-25.44 36.97,-21.07l0 0c15.96,4.37 25.44,21.01 21.07,36.97z"/>
      <path class="fil5" d="M257.23 529.88l-10.88 39.72c-2.75,10.05 -13.23,16.02 -23.28,13.27l0 0c-10.05,-2.75 -16.02,-13.23 -13.27,-23.28l10.88 -39.72c2.75,-10.05 13.23,-16.02 23.28,-13.27l0 0c10.05,2.75 16.02,13.23 13.27,23.28z"/>
      <g>
       <circle class="fil2" transform="matrix(0.200729 1.05711 -1.05711 0.200729 226.93 563.459)" r="12.86"/>
       <circle class="fil1" transform="matrix(0.200729 1.05711 -1.05711 0.200729 229.963 561.615)" r="12.86"/>
       <circle class="fil2" transform="matrix(0.0962835 0.507061 -0.507061 0.0962835 229.963 561.615)" r="12.86"/>
      </g>
     </g>
     <path class="fil1" d="M148.27 500.02l188.19 53.03c14.38,-70.59 40.53,-139.07 70.72,-194.63l-104.4 -125.9c-63.7,72.07 -120.69,172.41 -154.51,267.51z"/>
     <path class="fil2" d="M163.65 486.08l167.04 51.4c12.96,-63.62 34.47,-123.29 61.68,-173.36l-94.1 -110.9c-57.41,64.95 -104.14,147.15 -134.62,232.86z"/>
     <path class="fil3" d="M230.93 378.31c4.73,0 8.57,3.84 8.57,8.57 0,4.73 -3.84,8.57 -8.57,8.57 -4.73,0 -8.57,-3.84 -8.57,-8.57 0,-4.73 3.84,-8.57 8.57,-8.57zm-67.28 107.77l106.22 32.68c1.82,-7.49 2.78,-15.28 2.78,-23.3 0,-44.64 -29.86,-82.63 -71.59,-96.87 -14.28,28.35 -26.83,57.7 -37.42,87.48zm105.29 -100.91c11.21,0 20.29,9.08 20.29,20.29 0,11.21 -9.08,20.29 -20.29,20.29 -11.21,0 -20.29,-9.08 -20.29,-20.29 0,-11.21 9.08,-20.29 20.29,-20.29z"/>
     <path class="fil4" d="M163.65 486.08l114.86 35.34 -85.28 -44.86c0,0 38.89,-121.58 118.81,-207.12l-13.76 -16.22c-57.41,64.95 -104.14,147.15 -134.62,232.86z"/>
     <path class="fil6" d="M270.27 517.09l-77.04 -40.52c0,0 9.29,-29.02 28.1,-68.67 -6.35,-3.73 -13.13,-6.86 -20.26,-9.29l-1.26 2.51 -0.08 0.15 -0.66 1.33 -0.9 1.83 -0.96 1.94 -0.77 1.57 -0.65 1.34 -0.65 1.34 -0.61 1.28 -1.01 2.12 -0.78 1.64 -1.06 2.25 -0.82 1.76 -1.04 2.25 -0.67 1.45 -1.16 2.53 -0.63 1.39 -1.11 2.46 -0.72 1.61 -1.1 2.48 -0.46 1.04 -1.32 3.01 -0.38 0.87c-0.46,1.07 -0.93,2.14 -1.39,3.22l-0.32 0.75c-0.44,1.04 -0.89,2.08 -1.33,3.13l-0.31 0.73c-0.48,1.15 -0.96,2.3 -1.44,3.46l-0.05 0.13 -0.02 0.04c-0.49,1.18 -0.97,2.36 -1.45,3.54l-0.16 0.38 -0.01 0.04 -0.11 0.28c-0.45,1.11 -0.9,2.23 -1.35,3.34l-0.12 0.31 -0.08 0.21c-0.48,1.2 -0.95,2.39 -1.43,3.59l-0.07 0.18 -0.15 0.37c-0.43,1.1 -0.86,2.2 -1.29,3.3l-0.22 0.56c-0.47,1.21 -0.93,2.42 -1.4,3.64l-0.08 0.21c-0.48,1.27 -0.96,2.54 -1.44,3.81l-0.08 0.22c-0.48,1.27 -0.95,2.54 -1.41,3.81l-0.07 0.19c-0.46,1.24 -0.91,2.48 -1.36,3.72l-0.06 0.17 -0.05 0.15c-0.46,1.29 -0.93,2.58 -1.39,3.87l106.22 32.68c0.14,-0.56 0.27,-1.12 0.39,-1.68zm-42.58 -122.27c2.47,-4.95 5.08,-10.02 7.83,-15.18 -1.33,-0.84 -2.9,-1.33 -4.58,-1.33 -4.73,0 -8.57,3.84 -8.57,8.57 0,3.59 2.2,6.66 5.33,7.94z"/>
     <path class="fil5" d="M285.46 523.56l45.24 13.92c12.96,-63.62 34.47,-123.29 61.68,-173.36l-22.78 -26.85c-23.8,38.26 -63.26,108.93 -84.13,186.29z"/>
     <g>
      <circle id="_268902680" class="fil1" cx="341.81" cy="296.83" r="26.17"/>
      <circle id="_268902608" class="fil2" cx="341.81" cy="296.83" r="16.04"/>
      <path id="_268902536" class="fil5" d="M351.02 286.61c2.79,2.52 4.55,6.16 4.55,10.22 0,7.6 -6.16,13.76 -13.76,13.76 -6.85,0 -12.52,-5 -13.58,-11.55 2.44,2.2 5.67,3.54 9.21,3.54 7.6,0 13.76,-6.16 13.76,-13.76 0,-0.75 -0.06,-1.49 -0.18,-2.21z"/>
      <circle id="_268902464" class="fil13" transform="matrix(0.631296 -0.245572 0.156773 0.403019 338.998 289.463)" r="13.85"/>
     </g>
     <polygon class="fil1" points="372.68,329.4 335.82,397.7 382.11,341.97 "/>
     <polygon class="fil1" points="294.15,530.63 304.64,469.9 276.74,524.84 "/>
     <path class="fil7" d="M334.26 521.01c5.76,-25.11 12.84,-49.52 21.07,-72.86 -17.65,7.19 -30.09,24.51 -30.09,44.74 0,10.49 3.35,20.2 9.02,28.11z"/>
     <path class="fil7" d="M341.81 418.31c5.68,0 10.29,4.61 10.29,10.29 0,5.68 -4.61,10.29 -10.29,10.29 -5.68,0 -10.29,-4.61 -10.29,-10.29 0,-5.68 4.61,-10.29 10.29,-10.29z"/>
     <path class="fil1" d="M418.11 163.59c0,0 12.57,40.58 0.57,95.44 0,0 24,-39.43 14.86,-99.44l-8 -3.14 -7.43 7.14z"/>
    </g>
    <g>
     <path class="fil1" d="M211.95 852.42l-10.74 -38.75c-4.42,-15.95 5.01,-32.61 20.96,-37.03l0 0c15.95,-4.42 32.61,5.01 37.04,20.96l9.83 35.45c-19.21,6.36 -42.82,14.46 -57.08,19.37z"/>
     <path class="fil5" d="M222.6 848.76l-10.4 -37.51c-2.79,-10.04 3.15,-20.54 13.2,-23.32l0 0c10.04,-2.78 20.54,3.16 23.32,13.2l9.82 35.42c-12.27,4.12 -25.26,8.55 -35.94,12.21z"/>
     <g>
      <path class="fil2" d="M222.38 820.18c-5.07,-5.72 -4.55,-14.46 1.17,-19.53 5.72,-5.07 14.46,-4.55 19.53,1.17 5.07,5.72 4.55,14.46 -1.17,19.53 -5.72,5.07 -14.46,4.55 -19.53,-1.17z"/>
      <path class="fil1" d="M220.72 816.75c-5.07,-5.72 -4.55,-14.46 1.17,-19.53 5.72,-5.07 14.46,-4.55 19.53,1.17 5.07,5.72 4.55,14.46 -1.17,19.53 -5.72,5.07 -14.46,4.55 -19.53,-1.17z"/>
      <path class="fil2" d="M226.11 811.97c-2.43,-2.74 -2.18,-6.94 0.56,-9.37 2.74,-2.43 6.94,-2.18 9.37,0.56 2.43,2.74 2.18,6.94 -0.56,9.37 -2.74,2.43 -6.94,2.18 -9.37,-0.56z"/>
     </g>
    </g>
    <g>
     <path class="fil1" d="M1188.76 850.71l10.74 -38.75c4.42,-15.95 -5.01,-32.61 -20.96,-37.03l0 0c-15.95,-4.42 -32.61,5.01 -37.04,20.96l-9.83 35.45c19.21,6.36 42.82,14.46 57.08,19.37z"/>
     <path class="fil5" d="M1178.11 847.04l10.4 -37.51c2.79,-10.04 -3.15,-20.54 -13.2,-23.32l0 0c-10.04,-2.78 -20.54,3.16 -23.32,13.2l-9.82 35.42c12.27,4.12 25.26,8.55 35.94,12.21z"/>
     <g>
      <path class="fil2" d="M1178.32 818.47c5.07,-5.72 4.55,-14.46 -1.17,-19.53 -5.72,-5.07 -14.46,-4.55 -19.53,1.17 -5.07,5.72 -4.55,14.46 1.17,19.53 5.72,5.07 14.46,4.55 19.53,-1.17z"/>
      <path class="fil1" d="M1179.98 815.03c5.07,-5.72 4.55,-14.46 -1.17,-19.53 -5.72,-5.07 -14.46,-4.55 -19.53,1.17 -5.07,5.72 -4.55,14.46 1.17,19.53 5.72,5.07 14.46,4.55 19.53,-1.17z"/>
      <path class="fil2" d="M1174.6 810.26c2.43,-2.74 2.18,-6.94 -0.56,-9.37 -2.74,-2.43 -6.94,-2.18 -9.37,0.56 -2.43,2.74 -2.18,6.94 0.56,9.37 2.74,2.43 6.94,2.18 9.37,-0.56z"/>
     </g>
    </g>
    <g>
     <path class="fil9" d="M927.24 186.73c-9.41,59.12 1.97,122.87 48.51,180.83l12.78 17.69c3.24,-39.4 6.08,-78.21 8.49,-115.96 -8.27,-34.03 -33.75,-61.56 -69.79,-82.56z"/>
     <g>
      <path class="fil1" d="M973.56 280.24l-58.73 28.74c-14.86,7.27 -21.08,25.39 -13.8,40.25l0 0c7.27,14.87 25.39,21.08 40.25,13.8l58.73 -28.74c14.86,-7.27 21.08,-25.39 13.8,-40.25l0 0c-7.27,-14.87 -25.39,-21.08 -40.25,-13.8z"/>
      <path class="fil5" d="M957.3 300.71l-36.99 18.1c-9.36,4.58 -13.27,15.99 -8.69,25.35l0 0c4.58,9.36 15.99,13.27 25.35,8.69l36.99 -18.1c9.36,-4.58 13.27,-15.99 8.69,-25.35l0 0c-4.58,-9.36 -15.99,-13.27 -25.35,-8.69z"/>
      <g>
       <circle class="fil2" cx="929.96" cy="336.74" r="13.84"/>
       <circle class="fil1" cx="931.21" cy="333.42" r="13.84"/>
       <circle class="fil2" cx="931.21" cy="333.42" r="6.64"/>
      </g>
     </g>
     <g>
      <path class="fil1" d="M970.69 201.97l-65.34 -2.55c-16.54,-0.65 -30.59,12.36 -31.24,28.89l0 0c-0.65,16.54 12.36,30.59 28.89,31.24l65.34 2.55c16.54,0.65 30.59,-12.36 31.24,-28.89l0 0c0.65,-16.54 -12.36,-30.59 -28.89,-31.24z"/>
      <path class="fil5" d="M946.66 212.28l-41.15 -1.61c-10.41,-0.41 -19.27,7.78 -19.67,18.2l0 0c-0.41,10.41 7.78,19.27 18.2,19.67l41.15 1.61c10.41,0.41 19.27,-7.78 19.67,-18.2l0 0c0.41,-10.41 -7.78,-19.27 -18.2,-19.67z"/>
      <g>
       <circle class="fil2" transform="matrix(-0.947297 -0.510289 -0.510289 0.947297 905.509 231.043)" r="12.86"/>
       <circle class="fil1" transform="matrix(-0.947297 -0.510289 -0.510289 0.947297 908.181 228.708)" r="12.86"/>
       <circle class="fil2" transform="matrix(-0.454389 -0.24477 -0.24477 0.454389 908.181 228.708)" r="12.86"/>
      </g>
     </g>
     <path class="fil1" d="M956.95 148.73c-24.63,62.25 -25.07,136.76 27.73,202.52l12.76 17.66 132.35 -101.35c-11.32,-13.58 -23.02,-26.6 -35.07,-38.97 -47.49,-48.7 -89.19,-70.83 -137.77,-79.87z"/>
     <path class="fil2" d="M968.74 165.29c-20.92,52.88 -21.3,116.19 23.56,172.06l10.84 15 112.44 -86.1c-9.62,-11.54 -19.56,-22.6 -29.8,-33.1 -40.34,-41.38 -75.77,-60.18 -117.04,-67.85z"/>
     <path class="fil4" d="M968.74 165.29c-1.35,3.42 -2.62,6.89 -3.8,10.4 77.6,26.91 98.49,73.06 98.49,73.06l-43.44 80.01c0.59,3.25 1.51,6.11 2.72,8.6l92.87 -71.12c-9.62,-11.54 -19.56,-22.6 -29.8,-33.1 -40.34,-41.38 -75.77,-60.18 -117.04,-67.85z"/>
     <path class="fil5" d="M968.74 165.29c-20.92,52.88 -21.3,116.19 23.56,172.06l10.84 15 23.89 -18.29c-62.24,-64.29 -52.8,-141.11 -47.45,-166.45 -3.57,-0.86 -7.18,-1.63 -10.84,-2.31z"/>
     <g>
      <path class="fil1" d="M1128.93 508.37l17.28 63.06c4.37,15.96 21.01,25.44 36.97,21.07l0 0c15.96,-4.37 25.44,-21.01 21.07,-36.97l-17.28 -63.06c-4.37,-15.96 -21.01,-25.44 -36.97,-21.07l0 0c-15.96,4.37 -25.44,21.01 -21.07,36.97z"/>
      <path class="fil5" d="M1146.01 528.17l10.88 39.72c2.75,10.05 13.23,16.02 23.28,13.27l0 0c10.05,-2.75 16.02,-13.23 13.27,-23.28l-10.88 -39.72c-2.75,-10.05 -13.23,-16.02 -23.28,-13.27l0 0c-10.05,2.75 -16.02,13.23 -13.27,23.28z"/>
      <g>
       <circle class="fil2" transform="matrix(-0.200729 1.05711 1.05711 0.200729 1176.31 561.744)" r="12.86"/>
       <circle class="fil1" transform="matrix(-0.200729 1.05711 1.05711 0.200729 1173.28 559.901)" r="12.86"/>
       <circle class="fil2" transform="matrix(-0.0962835 0.507061 0.507061 0.0962835 1173.28 559.901)" r="12.86"/>
      </g>
     </g>
     <path class="fil1" d="M1254.4 500.02l-188.19 53.03c-14.38,-70.59 -40.53,-139.07 -70.72,-194.63l104.4 -125.9c63.7,72.07 120.69,172.41 154.51,267.51z"/>
     <path class="fil2" d="M1239.02 486.08l-167.04 51.4c-12.96,-63.62 -34.47,-123.29 -61.68,-173.36l94.1 -110.9c57.41,64.95 104.14,147.15 134.62,232.86z"/>
     <path class="fil3" d="M1171.74 378.31c-4.73,0 -8.57,3.84 -8.57,8.57 0,4.73 3.84,8.57 8.57,8.57 4.73,0 8.57,-3.84 8.57,-8.57 0,-4.73 -3.84,-8.57 -8.57,-8.57zm67.28 107.77l-106.22 32.68c-1.82,-7.49 -2.78,-15.28 -2.78,-23.3 0,-44.64 29.86,-82.63 71.59,-96.87 14.28,28.35 26.83,57.7 37.42,87.48zm-105.29 -100.91c-11.21,0 -20.29,9.08 -20.29,20.29 0,11.21 9.08,20.29 20.29,20.29 11.21,0 20.29,-9.08 20.29,-20.29 0,-11.21 -9.08,-20.29 -20.29,-20.29z"/>
     <path class="fil4" d="M1239.02 486.08l-114.86 35.34 85.28 -44.86c0,0 -38.89,-121.58 -118.81,-207.12l13.76 -16.22c57.41,64.95 104.14,147.15 134.62,232.86z"/>
     <path class="fil6" d="M1132.4 517.09l77.04 -40.52c0,0 -9.29,-29.02 -28.1,-68.67 6.35,-3.73 13.13,-6.86 20.26,-9.29l1.26 2.51 0.08 0.15 0.66 1.33 0.9 1.83 0.96 1.94 0.77 1.57 0.65 1.34 0.65 1.34 0.61 1.28 1.01 2.12 0.78 1.64 1.06 2.25 0.82 1.76 1.04 2.25 0.67 1.45 1.16 2.53 0.63 1.39 1.11 2.46 0.72 1.61 1.1 2.48 0.46 1.04 1.32 3.01 0.38 0.87c0.46,1.07 0.93,2.14 1.39,3.22l0.32 0.75c0.44,1.04 0.89,2.08 1.33,3.13l0.31 0.73c0.48,1.15 0.96,2.3 1.44,3.46l0.05 0.13 0.02 0.04c0.49,1.18 0.97,2.36 1.45,3.54l0.16 0.38 0.01 0.04 0.11 0.28c0.45,1.11 0.9,2.23 1.35,3.34l0.12 0.31 0.08 0.21c0.48,1.2 0.95,2.39 1.43,3.59l0.07 0.18 0.15 0.37c0.43,1.1 0.86,2.2 1.29,3.3l0.22 0.56c0.47,1.21 0.93,2.42 1.4,3.64l0.08 0.21c0.48,1.27 0.96,2.54 1.44,3.81l0.08 0.22c0.48,1.27 0.95,2.54 1.41,3.81l0.07 0.19c0.46,1.24 0.91,2.48 1.36,3.72l0.06 0.17 0.05 0.15c0.46,1.29 0.93,2.58 1.39,3.87l-106.22 32.68c-0.14,-0.56 -0.27,-1.12 -0.39,-1.68zm42.58 -122.27c-2.47,-4.95 -5.08,-10.02 -7.83,-15.18 1.33,-0.84 2.9,-1.33 4.58,-1.33 4.73,0 8.57,3.84 8.57,8.57 0,3.59 -2.2,6.66 -5.33,7.94z"/>
     <path class="fil5" d="M1117.22 523.56l-45.24 13.92c-12.96,-63.62 -34.47,-123.29 -61.68,-173.36l22.78 -26.85c23.8,38.26 63.26,108.93 84.13,186.29z"/>
     <g>
      <circle id="_268902680_4" class="fil1" cx="1060.86" cy="296.83" r="26.17"/>
      <circle id="_268902608_5" class="fil2" cx="1060.86" cy="296.83" r="16.04"/>
      <path id="_268902536_6" class="fil5" d="M1051.65 286.61c-2.79,2.52 -4.55,6.16 -4.55,10.22 0,7.6 6.16,13.76 13.76,13.76 6.85,0 12.52,-5 13.58,-11.55 -2.44,2.2 -5.67,3.54 -9.21,3.54 -7.6,0 -13.76,-6.16 -13.76,-13.76 0,-0.75 0.06,-1.49 0.18,-2.21z"/>
      <circle id="_268902464_7" class="fil13" transform="matrix(-0.631296 -0.245572 -0.156773 0.403019 1063.67 289.463)" r="13.85"/>
     </g>
     <polygon class="fil1" points="1029.99,329.4 1066.85,397.7 1020.56,341.97 "/>
     <polygon class="fil1" points="1108.52,530.63 1098.03,469.9 1125.93,524.84 "/>
     <path class="fil7" d="M1068.41 521.01c-5.76,-25.11 -12.84,-49.52 -21.07,-72.86 17.65,7.19 30.09,24.51 30.09,44.74 0,10.49 -3.35,20.2 -9.02,28.11z"/>
     <path class="fil7" d="M1060.86 418.31c-5.68,0 -10.29,4.61 -10.29,10.29 0,5.68 4.61,10.29 10.29,10.29 5.68,0 10.29,-4.61 10.29,-10.29 0,-5.68 -4.61,-10.29 -10.29,-10.29z"/>
     <path class="fil1" d="M984.56 163.59c0,0 -12.57,40.58 -0.57,95.44 0,0 -24,-39.43 -14.86,-99.44l8 -3.14 7.43 7.14z"/>
    </g>
    <polygon class="fil1" points="132.27,870.06 340.57,805.29 345.59,818.06 137.86,887.12 "/>
    <polygon class="fil1" points="1266.87,870.06 1058.56,805.29 1053.55,818.06 1261.28,887.12 "/>
    <path class="fil3" d="M1095.63 649.64c37.25,0 67.44,30.19 67.44,67.44 0,37.25 -30.19,67.44 -67.44,67.44 -7.72,0 -15.14,-1.3 -22.05,-3.69 8.23,-42.59 11.24,-86.48 9.84,-130.08 3.96,-0.72 8.04,-1.11 12.21,-1.11zm181.6 68.5c0.19,-28.77 -1.56,-58.11 -5.32,-88.23 -1.87,-14.98 -4.35,-30.08 -7.38,-45.23 -14.63,3.54 -27.41,11.84 -36.61,23.16 -2.55,-1.05 -5.34,-1.63 -8.27,-1.63 -11.99,0 -21.72,9.72 -21.72,21.72 0,9.61 6.24,17.76 14.89,20.62 -0.02,0.65 -0.03,1.3 -0.03,1.95 0,36.3 28.56,65.93 64.44,67.64zm-143.02 -93.65c5.52,0 10,4.48 10,10 0,5.52 -4.48,10 -10,10 -5.52,0 -10,-4.48 -10,-10 0,-5.52 4.48,-10 10,-10zm89.16 85.73c11.52,0 20.86,9.34 20.86,20.86 0,11.52 -9.34,20.86 -20.86,20.86 -11.52,0 -20.86,-9.34 -20.86,-20.86 0,-11.52 9.34,-20.86 20.86,-20.86z"/>
    <path class="fil6" d="M1264.53 584.68c0.26,1.31 0.52,2.61 0.77,3.92l0.42 2.19c0.31,1.65 0.62,3.29 0.92,4.93l0.27 1.47c0.33,1.84 0.66,3.68 0.97,5.52l0.16 0.94c0.34,2.03 0.68,4.05 1,6.07l0.06 0.35c1.05,6.64 1.99,13.25 2.82,19.85 1.12,8.93 2.05,17.78 2.82,26.58l0.01 0.06c0.19,2.15 0.36,4.29 0.53,6.43l0.01 0.17c0.16,2.08 0.31,4.16 0.45,6.23l0.03 0.51c0.14,2.02 0.26,4.03 0.38,6.04l0.03 0.57c0.11,1.84 0.2,3.67 0.29,5.51l0.07 1.36c0.08,1.65 0.15,3.29 0.21,4.94l0.07 1.78c0.06,1.52 0.11,3.03 0.15,4.54l0.06 2.15c0.04,1.41 0.07,2.82 0.1,4.22l0.04 2.3c0.02,1.3 0.04,2.6 0.05,3.9l0.02 2.58c0.01,1.26 0.01,2.52 0.01,3.77l-0 2.73 -0.01 1.86c-7.58,-0.36 -14.83,-1.98 -21.56,-4.63 1.05,-41.45 -1.77,-82.32 -8.11,-122.19 5.26,-2.94 10.95,-5.19 16.96,-6.65z"/>
    <path class="fil7" d="M1095.63 649.64c6.98,0 13.71,1.06 20.04,3.03 1.7,40.77 -1.37,84.72 -11.4,131.3 -2.83,0.36 -5.72,0.55 -8.65,0.55 -7.72,0 -15.14,-1.3 -22.05,-3.69 0.21,-1.1 0.42,-2.2 0.63,-3.3 0.24,-1.3 0.48,-2.61 0.72,-3.92 0.23,-1.27 0.45,-2.55 0.67,-3.82 0.24,-1.41 0.48,-2.81 0.71,-4.22 0.2,-1.21 0.39,-2.42 0.58,-3.63 0.23,-1.47 0.45,-2.94 0.67,-4.4 0.18,-1.19 0.35,-2.38 0.52,-3.57 0.2,-1.44 0.4,-2.88 0.59,-4.33 0.16,-1.19 0.32,-2.39 0.47,-3.59 0.19,-1.47 0.37,-2.94 0.54,-4.41 0.14,-1.19 0.28,-2.39 0.41,-3.58 0.16,-1.44 0.32,-2.88 0.47,-4.33 0.13,-1.22 0.25,-2.43 0.37,-3.65 0.15,-1.48 0.28,-2.96 0.42,-4.44 0.11,-1.2 0.21,-2.4 0.31,-3.6 0.13,-1.49 0.24,-2.98 0.36,-4.47 0.09,-1.16 0.17,-2.33 0.26,-3.49 0.11,-1.51 0.21,-3.01 0.3,-4.52 0.08,-1.2 0.15,-2.4 0.22,-3.59 0.08,-1.46 0.16,-2.92 0.23,-4.38 0.06,-1.2 0.11,-2.4 0.17,-3.6 0.06,-1.38 0.12,-2.77 0.17,-4.15 0.04,-1.22 0.08,-2.44 0.12,-3.67 0.05,-1.53 0.09,-3.07 0.12,-4.6 0.02,-1.03 0.04,-2.06 0.06,-3.1 0.03,-1.66 0.05,-3.33 0.07,-4.99 0.01,-1.08 0.02,-2.16 0.02,-3.24 0.01,-1.59 0.01,-3.17 0.01,-4.76 -0,-1.16 -0.01,-2.33 -0.02,-3.49 -0.01,-1.5 -0.03,-3 -0.05,-4.5 -0.02,-1.16 -0.04,-2.32 -0.06,-3.48 -0.03,-1.54 -0.07,-3.08 -0.11,-4.62l-0.08 -2.63c3.96,-0.72 8.04,-1.11 12.21,-1.11z"/>
    <path class="fil3" d="M267.8 737.08c5.84,0 10.57,4.73 10.57,10.57 0,5.84 -4.73,10.57 -10.57,10.57 -5.84,0 -10.57,-4.73 -10.57,-10.57 0,-5.84 4.73,-10.57 10.57,-10.57zm-134.2 -138.47c-1.86,10.48 -3.45,20.92 -4.75,31.3 -6.45,51.62 -7,100.94 -1.96,149 37.08,-13.88 63.47,-49.63 63.47,-91.55 0,-39.34 -23.25,-73.25 -56.76,-88.74zm185.83 127.06c-3.21,-35.53 -3.15,-71.48 -0.28,-106.97 -3.48,-0.7 -7.08,-1.07 -10.77,-1.07 -30.14,0 -54.58,24.44 -54.58,54.58 0,30.14 24.44,54.58 54.58,54.58 3.79,0 7.48,-0.39 11.05,-1.12zm-131.07 -116.04c4.58,0 8.29,3.71 8.29,8.29 0,4.58 -3.71,8.29 -8.29,8.29 -4.58,0 -8.29,-3.71 -8.29,-8.29 0,-4.58 3.71,-8.29 8.29,-8.29zm-9.72 -41.15c7.42,0 13.43,6.01 13.43,13.43 0,7.42 -6.01,13.43 -13.43,13.43 -7.42,0 -13.43,-6.01 -13.43,-13.43 0,-7.42 6.01,-13.43 13.43,-13.43z"/>
    <path class="fil7" d="M287.29 621.86c-3.22,31.45 -3.7,65.08 -0.34,100.56 6.58,2.81 13.82,4.37 21.43,4.37 3.79,0 7.48,-0.39 11.05,-1.12 -3.21,-35.53 -3.15,-71.49 -0.28,-106.97 -3.48,-0.7 -7.08,-1.06 -10.77,-1.06 -7.48,0 -14.6,1.51 -21.09,4.23z"/>
    <path class="fil6" d="M130.48 617.87c-0.21,1.46 -0.42,2.92 -0.62,4.38l-0.26 1.92c-0.22,1.64 -0.44,3.27 -0.64,4.91l-0.1 0.83 -0.15 1.26c-0.17,1.42 -0.35,2.84 -0.51,4.25l-0.26 2.27c-0.17,1.53 -0.34,3.06 -0.51,4.59l-0.2 1.88c-0.16,1.5 -0.31,2.99 -0.46,4.49l-0.24 2.48c-0.13,1.33 -0.25,2.66 -0.37,3.99l-0.24 2.71c-0.11,1.31 -0.22,2.62 -0.32,3.93l-0.21 2.74c-0.1,1.28 -0.19,2.56 -0.28,3.83l-0.18 2.69c-0.09,1.32 -0.17,2.64 -0.25,3.95l-0.14 2.49c-0.07,1.2 -0.13,2.4 -0.19,3.6 -0.05,1.05 -0.1,2.1 -0.15,3.15 -0.05,1.12 -0.1,2.24 -0.14,3.36 -0.04,1.1 -0.09,2.19 -0.13,3.29l-0.11 3.36 -0.09 3.05 -0.08 3.34 -0.05 2.75c-0.02,1.15 -0.03,2.29 -0.05,3.44l-0.03 3.23c-0.01,1.13 -0.01,2.25 -0.01,3.37 -0,1.1 0,2.2 0.01,3.31l0.02 3.01c0.01,1.25 0.03,2.5 0.05,3.75l0.04 2.24c0.02,1.3 0.05,2.6 0.08,3.9l0.06 2.41c0.03,1.22 0.07,2.44 0.11,3.66 0.03,1.01 0.07,2.01 0.11,3.01 0.04,1.14 0.09,2.28 0.14,3.42l0.13 2.83c0.06,1.28 0.13,2.56 0.2,3.84l0.11 1.92c0.09,1.56 0.19,3.12 0.29,4.68l0.1 1.48c0.11,1.55 0.22,3.1 0.34,4.65l0.16 2.04c0.1,1.31 0.21,2.62 0.32,3.93l0.01 0.15 0.2 2.26 0.02 0.18c0.12,1.31 0.24,2.61 0.37,3.92l0.18 1.8c0.1,1.04 0.21,2.09 0.32,3.13 7.77,-2.91 15.07,-6.78 21.75,-11.46 -5.77,-53.86 -4.82,-107.07 2.01,-158.72 -5.3,-3.92 -11.01,-7.31 -17.05,-10.11 -0.78,4.42 -1.52,8.83 -2.21,13.24l-0.08 0.49 -0.08 0.49 -0.29 1.92 -0.01 0.03 -0.07 0.49 -0.38 2.59z"/>
   </g>
  </g>
 </g>
</svg>
