<?xml version="1.0" encoding="UTF-8"?>
<!DOCTYPE svg PUBLIC "-//W3C//DTD SVG 1.1//EN" "http://www.w3.org/Graphics/SVG/1.1/DTD/svg11.dtd">
<!-- Creator: CorelDRAW 2020 (64-Bit) -->
<svg xmlns="http://www.w3.org/2000/svg" xml:space="preserve" width="161.908mm" height="176.792mm" version="1.1" style="shape-rendering:geometricPrecision; text-rendering:geometricPrecision; image-rendering:optimizeQuality; fill-rule:evenodd; clip-rule:evenodd"
viewBox="0 0 3392.6 3704.48"
 xmlns:xlink="http://www.w3.org/1999/xlink"
 xmlns:xodm="http://www.corel.com/coreldraw/odm/2003">
 <defs>
  <style type="text/css">
   <![CDATA[
    .fil0 {fill:none}
    .fil9 {fill:#343546}
    .fil1 {fill:#501D33}
    .fil7 {fill:#51645C}
    .fil6 {fill:#623448}
    .fil8 {fill:#7A9070}
    .fil3 {fill:#8E7A5D}
    .fil2 {fill:#C3C077}
    .fil5 {fill:#D4D784}
    .fil4 {fill:#EEF698}
   ]]>
  </style>
 </defs>
 <g id="Слой_x0020_1">
  <metadata id="CorelCorpID_0Corel-Layer"/>
  <g id="_2674579405424">
   <rect class="fil0" y="0" width="3392.6" height="3704.48"/>
   <path id="_103813888" class="fil1" d="M2470.11 386.88c349.85,156.98 636.62,763.82 662.18,1083.47 29.28,366.19 24.74,589.04 -188.84,1036.42 0,0 -48.22,90.08 -206.95,51.46 -73.93,11.95 -139.62,-17.67 -173.61,-66.42 -0.83,-1.19 -90.48,-9.69 -133.05,-51.14 -19.31,-18.8 -31.58,-35.51 -24.64,-69.72 9.09,-44.78 22.5,-99.62 22.5,-99.62 0,0 -78.94,-78.7 -66.02,-112.18 12.93,-33.48 174.36,-173.38 174.63,-174.72 110.77,-507.94 2.15,-941.23 -288.05,-1291.22l-233.15 -308.72c117.13,-34.58 330.78,-53.34 454.99,2.39l0 -0z"/>
   <path id="_103813816" class="fil1" d="M1066.86 1917.63c-63.27,-376.08 -95.9,-1009.95 -133.94,-1308.1 66.5,-273.8 589.52,-189.84 767.69,-152.81 178.17,-37.03 701.19,-120.99 767.69,152.81 -37.53,294.19 -65.17,920.7 -126.72,1297.77 -231.17,73.42 -452.09,98.52 -643.7,98.14 -145.37,-0.28 -482.77,-29.21 -631.03,-87.81l0 0z"/>
   <path id="_103813744" class="fil1" d="M926.96 386.88c-349.85,156.98 -636.62,763.82 -662.18,1083.47 -29.28,366.19 -24.74,589.04 188.84,1036.42 0,0 48.22,90.08 206.95,51.46 73.93,11.95 139.62,-17.67 173.61,-66.42 0.83,-1.19 90.48,-9.69 133.05,-51.14 19.31,-18.8 31.58,-35.51 24.64,-69.72 -9.09,-44.78 -22.5,-99.62 -22.5,-99.62 0,0 78.94,-78.7 66.02,-112.18 -12.93,-33.48 -174.36,-173.38 -174.63,-174.72 -110.77,-507.94 -2.15,-941.23 288.05,-1291.22l233.15 -308.72c-117.13,-34.58 -330.78,-53.34 -454.99,2.39l0 -0z"/>
   <path id="_103813672" class="fil2" d="M962.16 863.87l33.06 -45.74c26.69,356.61 67.86,740.38 121.26,1087.38 173.72,42.2 681.09,140.06 1169.95,-11.08 52.32,-342.39 92.75,-719.77 119.17,-1071.12l29.32 40.57c174.29,307.44 258.73,775.33 133.89,1167.03 0,0 -154.49,120.1 -156.37,136.71 -1.89,16.6 42.22,65.31 42.22,65.31 13.71,-23.54 32.45,-66.37 40.18,-57.25 -28.04,98.62 -40.8,157.36 -48.43,192.19 -10,45.59 1.51,48.34 38.32,65.65l80.58 21.28c0,0 17.15,-62.92 22.49,-63.12 5.35,-0.19 5.6,85.05 5.6,85.05 61.62,53.17 137.08,52.89 137.08,52.89 0,0 59.74,-68.86 62.15,-63.4 2.42,5.45 -33.25,68.55 -33.25,68.55 122.64,14.18 142.11,-43.13 142.11,-43.13 160.29,-314 226.37,-617.67 183.1,-964 -43,-344.07 -215.76,-715.79 -456.03,-962.22 -165.06,-169.29 -296.21,-182.77 -518.64,-173.74 -121.11,-40.43 -264.96,-60.86 -408.88,-61.11l0 -0.01 -0.44 0 -0.44 -0 0 0.01c-144.1,0.25 -288.15,20.73 -409.35,61.26 -224.67,-9.32 -356.34,3.37 -522.31,173.59 -240.27,246.43 -413.03,618.15 -456.03,962.22 -43.27,346.33 22.81,650 183.1,964 0,0 19.46,57.31 142.11,43.13 0,0 -35.67,-63.1 -33.25,-68.55 2.42,-5.45 62.15,63.4 62.15,63.4 0,0 75.46,0.27 137.08,-52.89 0,0 0.25,-85.25 5.6,-85.05 5.35,0.19 22.49,63.12 22.49,63.12l80.58 -21.28c36.81,-17.31 48.32,-20.06 38.32,-65.65 -7.63,-34.83 -20.39,-93.57 -48.43,-192.19 7.74,-9.12 26.47,33.71 40.18,57.25 0,0 44.11,-48.71 42.22,-65.31 -1.88,-16.61 -156.37,-136.71 -156.37,-136.71 -124.84,-391.7 -40.4,-859.59 133.89,-1167.03l0 -0z"/>
   <path id="_103813600" class="fil3" d="M962.16 863.87l8.51 -11.78c-2.24,-1.26 -4.45,-2.65 -6.72,-3.76 0,0 -600.51,681.12 -22.73,1570.34 13.26,-9.27 16.04,-20.69 9.44,-50.81 -7.63,-34.83 -20.39,-93.57 -48.43,-192.19 7.74,-9.12 26.47,33.71 40.18,57.25 0,0 44.11,-48.71 42.22,-65.31 -1.88,-16.61 -156.37,-136.71 -156.37,-136.71 -124.84,-391.7 -40.4,-859.59 133.89,-1167.03l0 0z"/>
   <path id="_103813528" class="fil4" d="M906.09 454.5c-45.04,26.11 -89.9,62 -137.58,110.91 -240.27,246.43 -413.03,618.15 -456.03,962.22 -43.27,346.33 22.81,650 183.1,964 0,0 1.66,4.84 7.01,11.37 35.42,-4.95 71.26,-12.99 106.4,-22.96 -3.23,-7.09 -5.18,-12.41 -4.55,-13.82 0.72,-1.62 6.49,3.3 14.23,11.02 68.33,-20.15 133.6,-47.26 187.5,-72.64 0.77,-7.81 1.78,-12.97 3.1,-12.92 1.19,0.04 2.8,3.67 4.57,9.28 71.01,-33.9 120.68,-63.89 128.86,-68.9l-0.07 -0.31c-157.05,53.96 -422.21,80.96 -422.21,80.96 -357.76,-735.98 -109.74,-1520.83 385.68,-1958.2l0 0.01z"/>
   <path id="_103813456" class="fil4" d="M2490.98 454.5c45.04,26.11 89.9,62 137.58,110.91 240.27,246.43 413.03,618.15 456.03,962.22 43.27,346.33 -22.81,650 -183.1,964 0,0 -1.66,4.84 -7.01,11.37 -35.42,-4.95 -71.26,-12.99 -106.4,-22.96 3.23,-7.09 5.18,-12.41 4.55,-13.82 -0.72,-1.62 -6.49,3.3 -14.23,11.02 -68.33,-20.15 -133.6,-47.26 -187.5,-72.64 -0.77,-7.81 -1.78,-12.97 -3.1,-12.92 -1.19,0.04 -2.8,3.67 -4.57,9.28 -71.01,-33.9 -120.68,-63.89 -128.86,-68.9l0.07 -0.31c157.05,53.96 422.21,80.96 422.21,80.96 357.76,-735.98 109.74,-1520.83 -385.68,-1958.2l0 0.01z"/>
   <path id="_103813384" class="fil3" d="M2434.92 863.87l-8.51 -11.78c2.24,-1.26 -0.26,-1.48 2.01,-2.58 0,0 605.22,679.94 27.44,1569.16 -13.26,-9.27 -16.04,-20.69 -9.44,-50.81 7.63,-34.83 20.39,-93.57 48.43,-192.19 -7.74,-9.12 -26.47,33.71 -40.18,57.25 0,0 -44.11,-48.71 -42.22,-65.31 1.88,-16.61 156.37,-136.71 156.37,-136.71 124.84,-391.7 40.4,-859.59 -133.89,-1167.03l0 0z"/>
   <path id="_103813312" class="fil1" d="M2993.23 1303.88c156.44,-17.66 196.79,154.85 58.77,212.58l-58.77 -212.58z"/>
   <path id="_103813240" class="fil2" d="M3051.97 1517.36c51.02,-79.51 52.32,-167.38 -58.71,-214.72 0,0 -31.59,155.93 58.71,214.72z"/>
   <path id="_103813168" class="fil4" d="M3046.67 1523.92c61.77,-78.72 62.47,-175.94 -57.44,-223.6 47.65,31.87 86.97,132.94 55.31,217.1l2.13 6.5z"/>
   <path id="_103813096" class="fil4" d="M2999.44 1333.31c-13.65,8.49 -13.5,33.4 0.32,55.63 13.83,22.23 36.11,33.38 49.76,24.9 13.65,-8.49 13.5,-33.4 -0.33,-55.63 -13.83,-22.23 -36.11,-33.38 -49.75,-24.89z"/>
   <path id="_103813024" class="fil2" d="M2441.39 2168.33c0,0 25.32,-52.4 90.09,-85.38 64.77,-32.97 -44.75,86.55 -90.09,85.38z"/>
   <path id="_103812952" class="fil3" d="M2908.4 2477.91c-2.28,4.58 -4.58,9.16 -6.91,13.72 0,0 -19.46,57.31 -142.1,43.13 0,0 35.66,-63.1 33.24,-68.55 -2.42,-5.45 -62.16,63.42 -62.16,63.42 0,0 -75.46,0.26 -137.07,-52.91 0,0 -0.25,-85.25 -5.6,-85.06 -5.35,0.19 -18.38,69.61 -18.38,69.61 -41.56,-5.53 -89.28,-20.68 -117.29,-45.5 -10.02,-8.88 -11.67,-20.86 -5.73,-47.93 2.55,-11.61 5.66,-25.89 9.72,-43.41 232.63,104.5 381.32,140.9 452.28,153.46z"/>
   <path id="_103812880" class="fil3" d="M2895.53 1380.46c0,0 0,77.86 104.99,120.33 0,0 -69.6,-2.36 -99.1,-30.67 -29.49,-28.31 -5.9,-89.66 -5.9,-89.66z"/>
   <path id="_103812808" class="fil2" d="M1116.48 1905.51c-61.76,-401.26 -107.15,-851.7 -132.71,-1252.44 51.94,-213.89 384.08,-321.93 716.4,-322.51l0 -0.01 0.44 0 0.44 -0 0 0.01c332.32,0.59 664.46,108.62 716.4,322.51 -25.33,397.05 -70.13,842.89 -131.02,1241.35 -488.85,151.14 -996.23,53.28 -1169.95,11.08l0 0z"/>
   <path id="_103812736" class="fil5" d="M1675.56 870.52c0,0 -28.31,332.97 14.19,376.66 32.87,33.79 12.53,-245.88 -1.59,-359.45 -4.14,-33.26 -12.06,-15.61 -12.59,-17.22z"/>
   <path id="_103812664" class="fil3" d="M1039.87 391.4c0,0 134.61,416.79 635.25,421.52 500.64,4.72 671.85,-425.07 671.85,-425.07 0,0 -558.85,-173.55 -1307.1,3.55l-0 0z"/>
   <path id="_103812592" class="fil3" d="M1116.48 1905.51c-50.06,-325.24 -89.36,-682.78 -116.06,-1020 -1.64,-15.98 -5.7,-58.35 -3.28,-59.28 26.34,175.42 75.08,358.35 158.05,497.2 -4.8,15.36 -6.06,43.68 -10.86,59.04 -22.54,190.59 -16.41,341.83 14.55,482.05 0,0 406.42,168.21 1077.39,-6.61 27.37,-138.18 16.23,-288.08 -101.32,-470.38 92.41,-32.81 136.46,-78.31 169.64,-143.34 55.31,-108.39 70.59,-275.26 99.26,-418.99 0,0 0.54,-2.58 1.81,-1.84 -26.42,336.79 -69.4,745.04 -119.22,1071.06 -488.86,151.14 -996.23,53.28 -1169.96,11.08l0 0z"/>
   <path id="_103812520" class="fil3" d="M1246.54 1803.94c0,0 193.47,89.66 451.83,93.2 258.35,3.54 491.97,-147.46 491.97,-147.46 0,0 -133.34,197.01 -455.4,211.16 -322.06,14.16 -488.4,-156.9 -488.4,-156.9z"/>
   <path id="_103812448" class="fil1" d="M2302.68 1810.64c0,0 -103.81,60.16 -189.93,77.86 0,0 80.22,-2.36 200.55,-34.21l15.34 -33.03 -25.95 -10.62z"/>
   <path id="_103812376" class="fil1" d="M1102.68 1823.62c0,0 103.81,60.16 189.93,77.86 0,0 -80.22,-2.36 -200.55,-34.21l-15.34 -33.03 25.95 -10.62z"/>
   <path id="_103812304" class="fil5" d="M1314.39 1618.19c0,0 108.63,-205.45 422.71,-205.45 314.08,0 -354.23,212.54 -422.71,205.45z"/>
   <path id="_103812160" class="fil3" d="M1737.1 1325c0,0 463.85,43.62 614.81,-51.89l-18.88 119.15c0,0 -246.6,44.8 -595.94,-67.26z"/>
   <path id="_103812088" class="fil3" d="M1580.7 1312.03c0,0 -381.04,30.67 -534.41,-38.93l18.88 119.15c0,0 388.12,-8.26 515.53,-80.22z"/>
   <g>
    <g>
     <path id="_103812016" class="fil3" d="M1645.14 1673.9c0,0 -63.44,101.79 35.05,150.45 0,0 -37.27,-66.91 16.86,-118.01l-23.07 -18.25 -28.84 -14.19z"/>
     <g>
      <path id="_103727584" class="fil1" d="M1640.94 1672.7c0,0 32.14,9.25 109.89,116.17 8.54,-70.91 -42.16,-107.68 -109.89,-116.17z"/>
      <path id="_103727512" class="fil1" d="M1684.79 1691.6c0,0 -64.13,78.9 -3.45,132.39 0,0 -31.05,-53.92 25.74,-112.99l-10.08 -16.05 -12.21 -3.34z"/>
      <path id="_103727440" class="fil4" d="M1702.39 1744.95c7.23,2.57 8.84,17.56 3.61,33.46 -5.23,15.91 -15.33,26.73 -22.56,24.16 -7.22,-2.57 -8.84,-17.56 -3.62,-33.46 5.23,-15.91 15.33,-26.73 22.56,-24.16z"/>
     </g>
     <path id="_103727344" class="fil3" d="M1722 1768.65c0,0 9.28,36.37 -28.96,50.51 0,0 27.19,5.45 42.88,-8.69 15.69,-14.14 -13.92,-41.82 -13.92,-41.82z"/>
    </g>
    <path id="_103727248" class="fil4" d="M1642.06 1659.36c0,0 86.22,0 120,59.56 0,0 -6.22,-55.11 -33.78,-72 -27.56,-16.89 -86.22,12.44 -86.22,12.44z"/>
   </g>
   <g>
    <g>
     <path id="_103727152" class="fil1" d="M2132.17 1178.68c41.57,0 75.27,17.51 75.27,39.1 0,21.6 -33.71,39.11 -75.27,39.11 -41.56,0 -75.27,-17.51 -75.27,-39.11 0,-21.59 33.71,-39.1 75.27,-39.1z"/>
     <path id="_103727080" class="fil6" d="M2132.17 1196.93c26.28,0 47.6,9.34 47.6,20.86 0,11.52 -21.31,20.86 -47.6,20.86 -26.28,0 -47.59,-9.34 -47.59,-20.86 0,-11.52 21.31,-20.86 47.59,-20.86z"/>
    </g>
    <g>
     <path id="_103726984" class="fil1" d="M1269.03 1178.68c41.57,0 75.27,17.51 75.27,39.1 0,21.6 -33.71,39.11 -75.27,39.11 -41.56,0 -75.27,-17.51 -75.27,-39.11 0,-21.59 33.71,-39.1 75.27,-39.1z"/>
     <path id="_103726912" class="fil6" d="M1269.03 1196.93c26.28,0 47.6,9.34 47.6,20.86 0,11.52 -21.31,20.86 -47.6,20.86 -26.28,0 -47.59,-9.34 -47.59,-20.86 0,-11.52 21.31,-20.86 47.59,-20.86z"/>
    </g>
   </g>
   <path id="_103726792" class="fil1" d="M2367.24 1276.65c0,0 -16.14,58.11 -61.34,87.17 0,0 44.55,-1.29 64.57,-27.12 20.02,-25.83 -3.23,-60.05 -3.23,-60.05z"/>
   <path id="_103726720" class="fil1" d="M1036.82 1276.65c0,0 16.14,58.11 61.34,87.17 0,0 -44.55,-1.29 -64.57,-27.12 -20.02,-25.83 3.23,-60.05 3.23,-60.05z"/>
   <path id="_103726480" class="fil1" d="M403.84 1303.88c-156.44,-17.66 -196.79,154.85 -58.77,212.58l58.77 -212.58z"/>
   <path id="_103726408" class="fil2" d="M345.1 1517.36c-51.02,-79.51 -52.32,-167.38 58.71,-214.72 0,0 31.59,155.93 -58.71,214.72z"/>
   <path id="_103726336" class="fil4" d="M350.4 1523.92c-61.77,-78.72 -62.47,-175.94 57.44,-223.6 -47.65,31.87 -86.97,132.94 -55.31,217.1l-2.13 6.5z"/>
   <path id="_103726264" class="fil4" d="M397.63 1333.31c13.65,8.49 13.5,33.4 -0.32,55.63 -13.83,22.23 -36.11,33.38 -49.76,24.9 -13.65,-8.49 -13.5,-33.4 0.33,-55.63 13.83,-22.23 36.11,-33.38 49.75,-24.89z"/>
   <path id="_103726192" class="fil2" d="M955.69 2168.33c0,0 -25.32,-52.4 -90.09,-85.38 -64.77,-32.97 44.75,86.55 90.09,85.38z"/>
   <path id="_103726120" class="fil3" d="M488.67 2477.91c2.28,4.58 4.58,9.16 6.91,13.72 0,0 19.46,57.31 142.1,43.13 0,0 -35.66,-63.1 -33.24,-68.55 2.42,-5.45 62.16,63.42 62.16,63.42 0,0 75.46,0.26 137.07,-52.91 0,0 0.25,-85.25 5.6,-85.06 5.35,0.19 18.38,69.61 18.38,69.61 41.56,-5.53 89.28,-20.68 117.29,-45.5 10.02,-8.88 11.67,-20.86 5.73,-47.93 -2.55,-11.61 -5.66,-25.89 -9.72,-43.41 -232.63,104.5 -381.32,140.9 -452.28,153.46z"/>
   <path id="_103726048" class="fil3" d="M509.86 1378.04c0,0 0,77.86 -104.99,120.33 0,0 69.6,-2.36 99.1,-30.67 29.49,-28.31 5.9,-89.66 5.9,-89.66z"/>
   <path class="fil7" d="M2697.41 716.46c5.09,23.59 -7.85,21.61 16.57,48.1 10.43,11.31 39.56,22.11 53.92,9.25 7.85,-7.03 10.09,-16.8 9.71,-27.83 37.92,53.85 73.11,110.75 105.21,169.78 -6.9,15.09 -17.19,28.24 -36.52,37.2 -51.68,23.97 -105.82,-30.92 -77.15,-72.13 11.91,8.98 5.26,21.91 20.17,27.08 34.4,11.92 70.73,-49.03 21.49,-80.1 -29.18,-18.42 -58.88,-7.36 -76.45,5.56 -22.17,16.3 -31.58,44.55 -35.11,76.28 -4.94,44.32 -2.95,43.85 11.51,76.68 33.58,76.23 144.88,82.74 162.03,42.49 4.02,-9.44 3.9,-16.23 -2.77,-20.35 -8.1,-5 -12.21,-0.27 -19.78,1.33l-6.77 24.38c-53.08,-7.99 7.51,-113.32 68.66,-54.34 3.2,3.09 6.34,6.71 9.16,10.74 3.08,6.34 6.14,12.7 9.15,19.08 3.32,12.18 2.28,25.78 -7.23,38.89 -18.95,26.12 -13.99,55.61 2.5,74.94 22.27,7.86 38.22,0.51 44.47,-17.72 0.38,-1.1 0.71,-2.16 1,-3.18 8.09,19.9 15.81,39.93 23.18,60.04 -1.31,1.79 -2.6,3.54 -3.83,5.24 -26.71,37.02 -13.97,28.67 -10.62,69.33 7.86,95.26 -8.02,124.93 -111.82,150.81 -36.97,9.22 -80.62,-7.04 -100.29,-38.94 -7.39,-11.99 -8.71,-21.71 -23.72,-26.49 -5.37,19.38 -3.82,32.51 1.71,47.31 6.04,16.18 15.3,19.94 25.8,30.11 -8.07,14.16 -16.69,10.07 -13.93,30.98 13.74,7.65 15.23,3.91 28.03,-2.57 26.08,-13.19 62.37,-13.55 85.84,5.9 -4.99,19.59 -10.64,2.62 -24.9,17.53 -18.13,21.29 17.12,53.1 25.8,102.33 13.27,75.26 -51.86,135.39 -94.76,118.36 -64.9,-25.76 -67.16,-110.68 -4.52,-126.4 -7.04,16.02 -19.93,19.85 -23.33,40.54 -3.05,18.55 6.41,35.27 28.5,36.91 15.23,1.13 32.24,-8.13 36.44,-25.06 15.37,-61.96 -94.78,-118.46 -112.38,-193.39 -7.28,-31.01 -15.54,-63.73 -6.44,-100.85 3.85,-15.72 11.33,-38.9 19.9,-49.57 8.05,-10.02 22.04,-25.23 33.41,-32.05 45.32,-27.17 111.19,-19.48 131.17,23.74 6.43,13.92 -0.2,36.11 -10.99,44.97 -11.21,-6.64 -12.63,-38.56 -43.33,-24.32 -15.17,7.03 -31.37,32.44 -17.03,51.26 28.73,37.74 81.01,22.63 96.16,-14.98 48.99,-121.59 -72.64,-187.91 -110.49,-174.65 -6,23.19 8.17,7.91 8.34,24.25 0.18,17.45 -12.07,-2.65 -66.37,10.48 -32.95,7.97 -75.71,47.04 -85.23,79.43 -7.76,26.41 -9.1,50.61 -10.61,75.43 -1.69,27.58 -2.52,35.7 1.82,64.94 3.17,21.35 5.44,40.24 11.38,61.7 8.23,29.74 13.56,57.63 36.39,77.45 9.53,8.27 17.37,10.42 14.08,23.94 -6.32,0.81 -14.82,-0.22 -20.23,-0.21 -11.38,0.02 -13.59,1.94 -22.65,2.42 -12.88,0.69 -25.23,-3.41 -35.65,-5.09 -4.95,-91.43 -17.76,-181.99 -37.14,-269.17 5.36,-35.59 6.68,-64.07 23.72,-106.76 12.91,-32.37 22.58,-21.29 3.57,-53.09 -7.56,-12.65 -18.59,-31.11 -11.57,-52.01 14.75,3.25 18.4,10.47 34.72,14.04 13.53,2.96 29.53,2.27 40.42,0.56 4.48,-19.17 -2.72,-23.12 -12.67,-38.58 -8.56,-13.3 -21.56,-14.39 -38.18,-20.92 -20.97,-8.24 -46.45,-40.87 -42.7,-58.31 16.25,2.4 23.34,13.67 41.38,7.4 11.11,-3.86 24.13,-13.69 22.41,-31.83 -2.74,-29.02 -13.08,-52.21 6.01,-83.17 9.62,-15.6 20.5,-15.34 17.31,-33.8 -2.21,-12.78 -7.76,-18.21 -10.14,-38.04 -3.07,-25.63 10.01,-64.28 34.27,-63.27zm-1735.25 147.42l12.98 -17.96c-7.27,-1.15 -12.69,-1.23 -22.22,-1.91 -25.02,-1.76 -41.39,-14.85 -43.83,-30.74 -0.87,-5.63 0.02,-11.61 2.89,-17.56 9.77,-17.18 25.16,-15.47 34.04,-14.05 -3.91,-17.01 -59.59,-27.31 -78.34,19.64 -10.83,27.12 -6.28,63.03 -26.05,72.39 -27.39,-11.58 -17.29,-38.3 -13.56,-46.36 -12.95,3.43 -22.5,21.83 -27.16,33.89 -13.5,34.93 3.36,62.51 11.77,77.78 23.98,28.86 48.84,55.68 74.59,80.43 5.49,-13.5 11.16,-26.8 16.96,-39.92 -8.73,-10.64 -15.21,-24.11 -18.36,-40.56 -3.17,-16.53 -1.15,-35.27 20.64,-48.86 15.3,-9.54 30.4,-8.03 42.09,-1.59 4.46,-8.31 8.97,-16.54 13.56,-24.63l0 -0zm1460.24 -17.32l12.52 17.32c4.93,8.7 9.79,17.55 14.58,26.51 12.05,-7.96 28.51,-10.72 45.21,-0.3 21.79,13.59 23.81,32.32 20.64,48.86 -3.47,18.13 -10.99,32.64 -21.09,43.72 5.72,13.02 11.29,26.23 16.71,39.62 26.82,-25.55 52.68,-53.32 77.58,-83.3 8.41,-15.28 25.27,-42.85 11.77,-77.78 -4.66,-12.06 -14.22,-30.46 -27.16,-33.89 3.73,8.06 13.83,34.78 -13.56,46.36 -19.76,-9.35 -15.22,-45.26 -26.05,-72.39 -18.75,-46.96 -74.44,-36.65 -78.34,-19.64 8.88,-1.42 24.27,-3.12 34.04,14.05 2.87,5.96 3.75,11.94 2.89,17.56 -2.44,15.89 -18.81,28.97 -43.83,30.74 -11.07,0.78 -16.59,0.77 -25.9,2.55zm50.09 89c3.03,6.24 6.03,12.51 8.99,18.85 8.29,-15.82 7.15,-34.61 -2.82,-41.66 -0.87,8.09 -2.01,15.22 -6.17,22.81zm215.08 -305.52c-19.17,-22.35 -38.85,-43.93 -59.01,-64.61l-0.13 -0.13c-70.08,52.73 -196.31,-12.18 -221.09,-115.28 -3.69,-15.34 -5.76,-26.6 -6.81,-35.37 -11.8,-3.69 -23.73,-6.89 -35.86,-9.65 -19.68,38.15 -10.09,58.88 -13.85,82.2 -7.38,45.8 -69.87,7.38 -48.74,-91.16l0.31 -1.4c-12.96,-1.45 -26.19,-2.55 -39.75,-3.34 -12.86,37.3 -4.84,37.17 -25.43,52.37 -11.47,8.48 -30.71,23.07 -32.69,39.3 23.03,1.22 14.55,-15.22 34.38,-8.85 11.86,4.97 14.44,17.68 6.7,29.85 -5.33,8.38 -14.64,12.88 -24.4,16.9 -19.61,8.07 -47.02,9.51 -63.15,20.35 -33.64,22.62 -75.18,76.72 -50.8,102.19 13.63,-4.78 10.54,-15.3 21.11,-24.84 10.14,-9.15 26.1,-10.45 34.52,-1.4 10.72,14 -6.98,31.15 -20.71,52.55 -10.81,16.85 -23.13,32.13 -28.72,49.6 -17.06,53.28 37.43,90.59 52.46,90.11 1.82,-20.13 -26.25,-12.26 -17.31,-45.31 5.11,-18.89 19.9,-31.09 39.72,-31.59 34.05,-0.86 54.39,34.35 83.4,53.43 70.77,46.54 176.23,-28.09 162.7,-73.86 -20.26,0.86 -13.18,35.59 -52.96,33.82 0.43,-24.11 20.73,-23.63 18.53,-61.71 -1.02,-17.75 -16.61,-42.77 -27.27,-51.05 -42.09,-32.74 -96.76,-1.73 -95.54,28.94 15.78,1.49 17.21,-11.39 30.69,-14.95 13.27,-3.5 28.28,3.99 32.58,15.11 5.82,15.06 0,28.86 -8.2,38.61 -26,30.94 -82.7,8.03 -91.54,-28.56 -7.77,-32.19 6.16,-56.32 25.82,-69.15 27.84,-18.16 35.29,-22.26 78.29,-21.02 55.44,1.6 132.38,77.46 111.55,152.34l-1.9 16.56c7.47,8.69 23.16,-2.21 30.97,-7.09 8.03,-5.01 16.44,-9.75 23.43,-17.07 11.37,-11.9 23.75,-41.98 36.73,-47.12 26.86,-10.64 44.76,16.27 45.88,36.35 1.82,32.43 -22.61,41.36 -21.7,55.67 12.73,0.55 55.84,-24.88 66.41,-36.37 17.23,-18.71 26.59,-41.1 30.86,-71.95 1.69,-12.21 10.11,-22.45 20.51,-33.44zm-138.78 -136.47c-29.75,-22.95 -59.03,-41.13 -88.69,-55.42 1.73,28.05 16.29,59.16 55.41,83.98 48.45,30.74 70.42,19.7 49.34,6.4 -9.18,-5.79 -10.52,-2.57 -14.65,-12.95 -2.94,-7.4 -3.11,-15.1 -1.41,-22.01zm-1410.3 -102.51c-13.57,0.73 -26.8,1.76 -39.76,3.13l0.41 1.84c21.13,98.54 -41.36,136.96 -48.74,91.16 -3.78,-23.48 5.97,-44.34 -14.28,-83.02 -11.93,2.62 -23.68,5.65 -35.28,9.15 -0.99,8.95 -3.09,20.56 -6.96,36.69 -25.06,104.26 -153.85,169.47 -223.43,113.46l-1.93 1.96c-19.47,19.98 -38.5,40.79 -57.06,62.33 11.38,11.87 20.89,22.67 22.69,35.72 4.27,30.84 13.63,53.23 30.86,71.95 10.57,11.48 53.68,36.91 66.41,36.37 0.9,-14.31 -23.52,-23.25 -21.7,-55.67 1.13,-20.08 19.02,-46.99 45.88,-36.35 12.98,5.14 25.36,35.22 36.73,47.12 6.99,7.32 15.4,12.05 23.43,17.07 7.8,4.87 23.49,15.78 30.97,7.09l-1.9 -16.56c-20.83,-74.89 56.11,-150.74 111.55,-152.34 43,-1.24 50.45,2.86 78.29,21.02 19.66,12.83 33.59,36.95 25.82,69.14 -8.83,36.59 -65.53,59.5 -91.54,28.56 -8.2,-9.75 -14.02,-23.55 -8.2,-38.61 4.3,-11.12 19.31,-18.61 32.58,-15.11 13.49,3.56 14.91,16.44 30.69,14.95 1.22,-30.67 -53.45,-61.68 -95.54,-28.94 -10.66,8.29 -26.24,33.31 -27.27,51.05 -2.2,38.08 18.1,37.6 18.53,61.71 -39.79,1.77 -32.7,-32.96 -52.96,-33.83 -13.53,45.77 91.93,120.4 162.7,73.87 29.01,-19.08 49.35,-54.29 83.4,-53.43 19.82,0.5 34.61,12.7 39.72,31.59 8.94,33.05 -19.13,25.18 -17.31,45.31 15.03,0.48 69.52,-36.84 52.46,-90.11 -5.59,-17.47 -17.92,-32.75 -28.72,-49.6 -13.72,-21.4 -31.43,-38.55 -20.71,-52.55 8.42,-9.06 24.38,-7.75 34.52,1.4 10.57,9.53 7.48,20.06 21.11,24.84 24.39,-25.47 -17.16,-79.57 -50.8,-102.19 -16.13,-10.84 -43.54,-12.28 -63.15,-20.35 -9.76,-4.02 -19.07,-8.52 -24.4,-16.9 -7.74,-12.17 -5.16,-24.88 6.7,-29.85 19.83,-6.37 11.35,10.07 34.38,8.85 -1.98,-16.23 -21.21,-30.82 -32.69,-39.3 -20.63,-15.24 -12.54,-15.07 -25.51,-52.6zm-197.27 45.07c-29.98,14.05 -59.54,32.01 -89.54,54.83 2.44,7.56 2.65,16.27 -0.67,24.63 -4.13,10.38 -5.47,7.16 -14.65,12.95 -21.08,13.3 0.89,24.34 49.34,-6.4 40.06,-25.41 54.38,-57.43 55.52,-86zm-317.14 303.34c-38.77,54.49 -74.74,112.18 -107.52,172.09 6.91,16.85 17.24,31.63 38.34,41.42 51.68,23.97 105.82,-30.92 77.15,-72.13 -11.91,8.98 -5.26,21.91 -20.17,27.08 -34.4,11.92 -70.73,-49.03 -21.49,-80.1 29.18,-18.41 58.88,-7.36 76.45,5.56 22.17,16.3 31.58,44.55 35.11,76.28 4.94,44.32 2.95,43.85 -11.51,76.68 -33.58,76.23 -144.88,82.74 -162.03,42.49 -4.03,-9.44 -3.9,-16.24 2.77,-20.35 8.1,-5 12.21,-0.27 19.78,1.33l6.77 24.38c53.08,-7.99 -7.51,-113.32 -68.66,-54.34 -15.62,15.06 -29.86,42.83 -11.08,68.71 18.95,26.12 13.99,55.61 -2.5,74.94 -22.27,7.86 -38.22,0.51 -44.47,-17.72 -1.25,-3.64 -2.02,-6.86 -2.44,-9.76 -8.56,20.82 -16.72,41.78 -24.49,62.84 2.24,3.12 4.49,6.13 6.58,9.02 26.71,37.02 13.97,28.67 10.62,69.33 -7.86,95.26 8.02,124.93 111.82,150.81 36.97,9.22 80.62,-7.04 100.29,-38.94 7.4,-11.99 8.71,-21.71 23.72,-26.49 5.37,19.38 3.82,32.51 -1.71,47.31 -6.04,16.18 -15.3,19.94 -25.8,30.11 8.07,14.16 16.68,10.06 13.93,30.98 -13.74,7.65 -15.22,3.91 -28.03,-2.57 -26.09,-13.19 -62.37,-13.55 -85.85,5.9 4.99,19.59 10.65,2.62 24.9,17.53 18.13,21.29 -17.12,53.1 -25.8,102.33 -13.27,75.26 51.86,135.39 94.76,118.36 64.9,-25.76 67.16,-110.68 4.52,-126.4 7.04,16.02 19.93,19.85 23.33,40.54 3.05,18.55 -6.41,35.27 -28.5,36.91 -15.22,1.13 -32.24,-8.13 -36.44,-25.06 -15.37,-61.96 94.78,-118.46 112.38,-193.39 7.28,-31.01 15.54,-63.73 6.44,-100.85 -3.85,-15.73 -11.33,-38.9 -19.9,-49.57 -8.05,-10.02 -22.04,-25.23 -33.41,-32.05 -45.31,-27.18 -111.19,-19.48 -131.16,23.73 -6.43,13.92 0.2,36.11 10.99,44.97 11.21,-6.64 12.63,-38.56 43.32,-24.32 15.17,7.03 31.37,32.44 17.04,51.26 -28.73,37.74 -81.01,22.63 -96.16,-14.98 -48.99,-121.6 72.64,-187.91 110.5,-174.65 6,23.19 -8.18,7.91 -8.34,24.25 -0.18,17.45 12.07,-2.65 66.37,10.48 32.95,7.97 75.71,47.04 85.23,79.43 7.76,26.41 9.1,50.61 10.61,75.42 1.68,27.58 2.52,35.7 -1.82,64.94 -3.17,21.35 -5.44,40.24 -11.38,61.7 -8.23,29.74 -13.56,57.63 -36.39,77.44 -9.52,8.27 -17.37,10.42 -14.08,23.94 6.32,0.81 14.82,-0.22 20.24,-0.21 11.38,0.02 13.59,1.94 22.64,2.42 11.2,0.6 22,-2.42 31.47,-4.32 5.13,-95.63 18.85,-190.31 39.71,-281.18 -4.22,-30.63 -6.9,-57.41 -22.11,-95.52 -12.91,-32.37 -22.58,-21.29 -3.57,-53.09 7.56,-12.65 18.59,-31.11 11.57,-52.01 -14.75,3.25 -18.4,10.47 -34.72,14.03 -13.53,2.96 -29.53,2.28 -40.42,0.56 -4.48,-19.18 2.72,-23.12 12.67,-38.58 8.56,-13.3 21.56,-14.39 38.18,-20.92 20.97,-8.25 46.45,-40.87 42.7,-58.31 -16.25,2.4 -23.34,13.67 -41.38,7.4 -11.11,-3.86 -24.12,-13.69 -22.41,-31.83 2.74,-29.02 13.08,-52.21 -6.01,-83.17 -9.62,-15.6 -20.5,-15.34 -17.31,-33.81 2.21,-12.78 7.76,-18.21 10.14,-38.04 3.07,-25.63 -10.01,-64.28 -34.27,-63.27 -5.09,23.6 7.84,21.61 -16.57,48.1 -10.43,11.31 -39.56,22.11 -53.92,9.25 -9.37,-8.39 -10.75,-20.68 -9.22,-34.35zm293.61 210.53c2.96,-6.28 5.95,-12.51 8.98,-18.69 -2.53,-6.06 -3.42,-11.99 -4.12,-18.55 -9.05,6.4 -10.82,22.49 -4.86,37.24zm935.65 103.92c9.54,2.5 42.86,3.34 55.96,-24.54 10.16,-21.61 -3.04,-32.6 -14.92,-37 -12.32,-4.56 -23.77,-2.1 -36.36,-1.4 -13.53,0.75 -45.75,-8.39 -55.24,-23.87 8.76,-7.52 16.24,-4.63 27.81,-13.12 60,-44.01 67.19,-152.69 -20.35,-184.99 -6.96,-2.57 -14.43,-4.32 -22.1,-4.25 3.66,13.26 2.5,26.47 -1.66,34.74 21.66,-3.18 55.39,15.95 55.71,51.84 0.12,12.82 -6.58,33.37 -17.79,44.3 -25.95,25.3 -33.93,7.15 -51.75,21.36 15.52,20.81 41.22,16.77 49.36,16.16 -29.66,31.92 -95.15,6.22 -121.42,-35.47 -26.27,41.69 -91.76,67.39 -121.42,35.47 8.13,0.62 33.84,4.66 49.36,-16.15 -17.82,-14.22 -25.8,3.94 -51.75,-21.36 -11.21,-10.93 -17.91,-31.47 -17.79,-44.3 0.33,-35.88 34.05,-55.01 55.71,-51.83 -4.16,-8.27 -5.31,-21.48 -1.65,-34.74 -7.66,-0.08 -15.14,1.68 -22.1,4.25 -87.54,32.3 -80.34,140.98 -20.35,184.99 11.57,8.49 19.05,5.6 27.81,13.12 -9.5,15.48 -41.71,24.62 -55.24,23.87 -12.59,-0.7 -24.04,-3.17 -36.36,1.4 -11.88,4.4 -25.08,15.39 -14.92,37 13.09,27.88 46.42,27.04 55.96,24.54 -32.61,44.25 -98.42,30.46 -127.81,3.3 -16.53,-5.86 -89.46,23.42 -128.1,-32.17 -20.58,-29.61 -3.92,-7.36 -15.86,-30.81 -19.44,-38.18 3.44,-42.45 -23.8,-62.53 -35.5,-26.16 -37.1,-72.72 -13.07,-95.87 6.85,-6.6 23.44,-13.85 31.23,-13.86 19.93,-0.03 -4.89,15.99 -7.98,27.7 -4.85,30.43 65.21,38.86 70.61,-23.64 1.68,-19.45 -6.48,-15.61 -15.16,-30.11 7.67,-10.49 12.5,-6.82 24.23,-5.37 7.5,0.93 19.17,1.64 25.98,4.8 76.22,35.28 35.75,162.09 23.03,135.65 -2.73,-5.68 3.74,-10.77 0.3,-22.25 -4.67,-15.52 -31.94,-25.85 -56.54,-0.71 -34.71,35.48 -7.59,79.01 26.98,79.84 79.44,1.89 98.74,-106.1 86.64,-151.41 -7,-26.2 -9.72,-33.18 -29.46,-58.8 -24.31,-31.55 -43.29,-34.64 -59.98,-45.81 7.95,-8.09 34.93,-5.24 46.36,-3.73 54.45,7.17 63,41.52 82.06,37.63 40.95,-8.37 -21.98,-94.71 -95.38,-93.6 -6.07,0.09 -17.03,1.55 -21.34,0.36 3.47,-8.1 29.77,-16.21 40,-18.07 50.34,-9.17 67.37,16.92 90.84,12.64 15.42,-2.81 28.09,-11.23 44.26,-1.87 -10,12.01 -4.98,3.87 -14.52,9.13 -19.73,10.87 -3.38,42.89 38.84,17.5 13.38,-8.05 43.24,-43.02 92.3,-32.84 11.72,2.43 28.74,7.71 38.08,17.06 9.34,-9.35 26.36,-14.63 38.08,-17.06 49.06,-10.18 78.92,24.8 92.3,32.85 42.23,25.38 58.57,-6.63 38.84,-17.5 -9.54,-5.25 -4.52,2.88 -14.52,-9.13 16.17,-9.36 28.85,-0.93 44.26,1.87 23.47,4.28 40.51,-21.81 90.84,-12.64 10.24,1.86 36.53,9.97 40,18.07 -4.31,1.19 -15.27,-0.27 -21.34,-0.36 -73.4,-1.11 -136.34,85.23 -95.38,93.6 19.06,3.89 27.61,-30.45 82.06,-37.63 11.43,-1.51 38.41,-4.36 46.36,3.73 -16.69,11.17 -35.67,14.27 -59.98,45.81 -19.74,25.62 -22.46,32.61 -29.46,58.8 -12.1,45.31 7.2,153.3 86.64,151.41 34.57,-0.82 61.7,-44.35 26.98,-79.83 -24.59,-25.14 -51.87,-14.81 -56.54,0.71 -3.45,11.48 3.02,16.57 0.3,22.25 -12.72,26.44 -53.19,-100.36 23.03,-135.65 6.81,-3.15 18.49,-3.87 25.98,-4.8 11.73,-1.45 16.56,-5.12 24.23,5.37 -8.68,14.49 -16.84,10.65 -15.16,30.1 5.4,62.5 75.46,54.07 70.61,23.64 -3.09,-11.71 -27.91,-27.73 -7.98,-27.7 7.79,0.01 24.38,7.26 31.23,13.86 24.03,23.15 22.43,69.71 -13.07,95.87 -27.24,20.08 -4.36,24.35 -23.8,62.53 -11.94,23.45 4.72,1.2 -15.86,30.81 -38.63,55.59 -111.56,26.31 -128.1,32.17 -29.39,27.16 -95.2,40.95 -127.81,-3.3zm-91.72 -280.2c-3.43,2.5 -6.83,5.59 -10.16,9.38 -30.44,34.54 1.72,78.38 25.68,77.82 35.38,-0.83 38.31,-30.31 22.37,-43.49 -6.43,-5.32 -12.87,-8.15 -19.92,-10.39 -0.19,0.09 -0.38,0.18 -0.57,0.26l-0 -0.45c-1.66,-0.52 -3.35,-1 -5.08,-1.49 1.41,-1.42 3.07,-2.59 4.91,-3.52 -0.64,-9.23 -3.59,-21.1 -17.23,-28.12zm-122.04 0c-13.64,7.02 -16.59,18.89 -17.23,28.12 1.84,0.93 3.5,2.1 4.91,3.52 -1.73,0.48 -3.43,0.97 -5.08,1.49l-0 0.45c-0.19,-0.08 -0.38,-0.18 -0.57,-0.27 -7.05,2.24 -13.48,5.07 -19.91,10.39 -15.94,13.19 -13.01,42.66 22.37,43.49 23.96,0.56 56.11,-43.28 25.68,-77.82 -3.33,-3.78 -6.73,-6.88 -10.16,-9.38zm61.23 -53.59c19.1,-0.14 36.02,-1.1 44.3,-13.05 -6.16,-25.67 -26.9,-27.47 -40.38,-25.75 0.35,0.61 0.67,1.23 0.96,1.86 -1.32,-0.37 -3.06,-0.8 -5.08,-1.19 -2.03,0.39 -3.77,0.83 -5.09,1.19 0.29,-0.63 0.61,-1.26 0.96,-1.86 -13.48,-1.73 -34.22,0.08 -40.38,25.75 8.35,12.03 25.44,12.92 44.71,13.05z"/>
   <path class="fil8" d="M2767.92 773.8c7.84,-7.03 10.08,-16.8 9.7,-27.82l1.44 2.05 3.86 5.52c1.82,2.62 3.64,5.25 5.45,7.88l3.48 5.09c2.2,3.23 4.4,6.48 6.58,9.73l3.13 4.68c1.9,2.84 3.78,5.69 5.66,8.55l4.21 6.44c1.61,2.47 3.21,4.94 4.8,7.41 1.52,2.36 3.03,4.72 4.54,7.09 1.54,2.42 3.08,4.84 4.61,7.28 1.49,2.37 2.98,4.73 4.45,7.11l4.15 6.69c1.68,2.72 3.34,5.44 5.01,8.17 1.4,2.3 2.8,4.61 4.19,6.92 1.55,2.58 3.1,5.16 4.64,7.74l3.76 6.33c1.73,2.93 3.46,5.87 5.17,8.82l3.72 6.41c1.68,2.91 3.36,5.83 5.02,8.76l3.43 6.05c1.65,2.92 3.29,5.84 4.92,8.77l3.24 5.84c1.73,3.13 3.45,6.28 5.17,9.42l0.56 1.03c-4.21,9.2 -9.68,17.69 -17.69,24.94 -10.38,-20.44 -21.16,-40.64 -32.32,-60.56 5.28,-17.03 0.87,-37.9 -22,-52.32 -4.09,-2.58 -8.2,-4.59 -12.28,-6.09 -9.94,-16.18 -20.16,-32.15 -30.61,-47.93zm107.89 188.25c11.45,0.59 23.88,5.79 36.33,17.8 3.2,3.09 6.34,6.71 9.16,10.74l3.46 7.14 0.14 0.3 0.14 0.3c1.62,3.38 3.24,6.76 4.84,10.15l0.14 0.3 0.14 0.3 0.14 0.3 0.14 0.3c3.32,12.18 2.28,25.78 -7.23,38.89 -1.83,2.52 -3.42,5.06 -4.82,7.63 -13.27,-31.9 -27.47,-63.3 -42.59,-94.14zm70.01 164.39c11.75,-1.22 20.21,-8.53 24.37,-20.66 0.38,-1.1 0.71,-2.16 1,-3.18l2.27 5.6 0.38 0.93c1,2.49 2,4.98 2.99,7.48l0.37 0.93 3.01 7.65 2.13 5.47 0.36 0.94 0.36 0.94c1.21,3.13 2.41,6.26 3.6,9.39l0.36 0.94 0.36 0.94 0.35 0.94 0.36 0.94 0.35 0.94c2.01,5.33 3.99,10.67 5.94,16.01 -1.31,1.79 -2.6,3.54 -3.83,5.24 -23.86,33.08 -16.24,29.94 -11.95,57.9 -9.9,-33.56 -20.86,-66.67 -32.76,-99.33zm-316.53 -560.27c3.18,3.27 6.34,6.55 9.5,9.86l2.05 2.16c2.8,2.95 5.58,5.91 8.36,8.89l3.71 4c2.08,2.25 4.16,4.52 6.23,6.78 1.94,2.12 3.87,4.26 5.8,6.4l3.6 4.02 0.92 1.02c6.09,6.83 12.13,13.74 18.12,20.73 -5.12,5.41 -9.77,10.65 -13.36,16.02 -19.81,-24.45 -40.28,-48.25 -61.35,-71.38 5.43,-2.57 10.64,-5.68 15.57,-9.39l0.13 0.13 0.72 0.74zm-81.2 -58.54c-18.62,-18.19 -37.61,-35.91 -57.02,-53.05 19.2,11.14 38.36,24.05 57.73,38.99 -1.1,4.46 -1.41,9.23 -0.71,14.05z"/>
   <path class="fil8" d="M889.02 464.87l-3.73 2.4 -0.31 0.2 -0.05 0.03 -2.07 1.35 -0.37 0.24c-1.27,0.83 -2.54,1.67 -3.8,2.52l-0.05 0.04 -0.34 0.23 -1.4 0.94 -0.38 0.26 -1.02 0.69 -1.1 0.75c-1.97,1.35 -3.93,2.71 -5.9,4.09l-0.45 0.32 -0.13 0.09 -3.62 2.58 -0.48 0.35 -0.92 0.66 -1.2 0.87 -0.2 0.14 -1.4 1.02 -0.52 0.38 -0.88 0.65 -1.24 0.91 -0.17 0.12 -1.41 1.05 -1.4 1.05 -1.27 0.96 -0.13 0.1 -1.41 1.07c1.25,3.86 1.91,8.02 1.82,12.28 17.19,-16.67 34.71,-32.93 52.57,-48.7l-1.23 0.72 -1.4 0.82 -1.4 0.82 -0.17 0.1 -1.22 0.73 -0.89 0.53 -0.51 0.31 -1.4 0.84 -0.21 0.12 -1.19 0.73 -0.92 0.56 -0.48 0.29 -1.4 0.86 -0.24 0.15 -1.16 0.72 -0.96 0.6 -0.44 0.28 -1.4 0.88 -0.27 0.17 -0.18 0.12zm-121.5 101.56c-3,3.09 -6,6.2 -8.98,9.32l-2.59 2.72c-2.65,2.79 -5.28,5.59 -7.91,8.42l-3.94 4.25c-2.16,2.33 -4.31,4.68 -6.45,7.03 -1.71,1.88 -3.42,3.77 -5.13,5.66l-0.89 0.98 -4.18 4.67c-2.14,2.4 -4.27,4.81 -6.4,7.22l-0.88 1 -2.63 3 -0.87 1c-1.75,2.01 -3.49,4.02 -5.23,6.04 5.09,5.31 9.8,10.4 13.62,15.58 19.53,-24 39.68,-47.36 60.42,-70.07 -5.26,-2.72 -10.3,-5.96 -15.06,-9.79l-1.93 1.96 -0.98 1.01zm-340.43 631.17c7.6,-24.18 15.76,-48.12 24.41,-71.83 -9.73,-2.3 -16.79,-9.26 -20.47,-20.01 -1.25,-3.64 -2.02,-6.86 -2.44,-9.76 -8.56,20.82 -16.72,41.78 -24.49,62.84 2.24,3.12 4.49,6.13 6.58,9.02 11.28,15.64 15.52,23.18 16.41,29.74zm53.29 -145.54c12.71,-30.32 26.27,-60.19 40.66,-89.56 -10.22,1.56 -21.08,6.83 -31.97,17.34 -15.62,15.06 -29.86,42.83 -11.08,68.71 0.84,1.16 1.64,2.34 2.39,3.51zm52.91 -114.03c10.86,-21.29 22.13,-42.31 33.83,-63.04 -2.95,-15.94 2.66,-34.18 23.27,-47.18 2.23,-1.41 4.47,-2.64 6.7,-3.72 10.93,-17.84 22.17,-35.45 33.72,-52.81 -7.12,-8.24 -8.12,-19.47 -6.74,-31.83 -38.77,54.49 -74.74,112.18 -107.52,172.09 3.98,9.7 9.09,18.71 16.73,26.48z"/>
   <path class="fil9" d="M970.67 852.09c-2.24,-1.26 -4.45,-2.65 -6.72,-3.76 0,0 -10.82,12.3 -28.08,35.6 4.54,0.82 8.83,2.42 12.73,4.57l0.63 -1.17 0.21 -0.39 0.21 -0.39 0.21 -0.39 0.21 -0.39 0.21 -0.39 0.21 -0.39 0.21 -0.39 0.21 -0.39 0.21 -0.39 0.21 -0.39 0.21 -0.39 0.21 -0.39 0.21 -0.39 0.21 -0.39c1.05,-1.93 2.1,-3.85 3.16,-5.77 2.12,-3.86 4.25,-7.68 6.41,-11.49l0.21 -0.38 0.22 -0.39 0 0 8.51 -11.78zm-81.34 100.14c-8.34,13.25 -17.08,27.71 -26.04,43.29 7.9,8.17 15.89,16.13 23.96,23.9l0.72 -1.76c1.77,-4.33 3.55,-8.64 5.36,-12.92l2.29 -5.42 0.27 -0.62 0.01 -0.03c0.97,-2.28 1.94,-4.55 2.92,-6.81l0.27 -0.62c1.7,-3.93 3.41,-7.84 5.13,-11.74 -6.25,-7.62 -11.35,-16.69 -14.89,-27.27zm-105.01 205.6c-11.56,28.54 -22.7,58.79 -32.98,90.72 6.36,24.21 7.62,46.69 9.02,69.69 1.68,27.58 2.52,35.7 -1.82,64.94 -3.17,21.35 -5.44,40.24 -11.38,61.7 -8.23,29.74 -13.56,57.63 -36.39,77.44 -9.52,8.27 -17.37,10.42 -14.08,23.94 6.32,0.81 14.82,-0.22 20.24,-0.21 11.38,0.02 13.59,1.94 22.64,2.42 11.2,0.6 22,-2.42 31.47,-4.32l0.25 -4.48 0.01 -0.12c0.31,-5.49 0.65,-10.98 1.02,-16.46l0.18 -2.65c0.37,-5.36 0.76,-10.71 1.18,-16.06l0.04 -0.49 0.36 -4.47c0.36,-4.47 0.75,-8.93 1.15,-13.39l0.41 -4.46 0.08 -0.8c0.47,-5.05 0.97,-10.1 1.48,-15.15l0.39 -3.79c0.53,-5.06 1.09,-10.11 1.66,-15.16l0.08 -0.68 0.52 -4.43c0.52,-4.38 1.05,-8.75 1.59,-13.13l0.75 -5.88c0.59,-4.56 1.2,-9.1 1.82,-13.65l0.94 -6.72c0.53,-3.74 1.08,-7.48 1.63,-11.22 0.39,-2.65 0.79,-5.29 1.2,-7.94 0.56,-3.65 1.13,-7.3 1.72,-10.94 0.45,-2.82 0.91,-5.63 1.38,-8.45 0.53,-3.23 1.08,-6.45 1.63,-9.67 0.57,-3.31 1.15,-6.63 1.74,-9.93 0.53,-2.96 1.06,-5.91 1.6,-8.86 0.62,-3.36 1.24,-6.71 1.88,-10.06 0.53,-2.81 1.07,-5.62 1.62,-8.43 0.74,-3.8 1.5,-7.6 2.26,-11.39l1.36 -6.65c0.84,-4.08 1.7,-8.14 2.57,-12.21l1.23 -5.69c0.94,-4.31 1.9,-8.62 2.87,-12.92l1.1 -4.86c-4.22,-30.63 -6.9,-57.4 -22.11,-95.51 -1.5,-3.76 -2.95,-6.92 -4.33,-9.65zm133.37 -207.85l0.56 -1.17 0.14 -0.29 0.14 -0.3 0.14 -0.29 0.14 -0.29 0.14 -0.29 0.14 -0.29 0.14 -0.3 0.14 -0.29 0.14 -0.29 0.14 -0.29 0.14 -0.29 0.14 -0.29 0.14 -0.29 0.14 -0.29c2.14,-4.49 4.3,-8.97 6.47,-13.41 -2.52,-6.05 -3.41,-11.99 -4.12,-18.54 -9.05,6.4 -10.82,22.49 -4.86,37.24z"/>
   <path class="fil9" d="M2646.95 1261.21c-3.89,19.49 -4.95,38.08 -6.1,57.03 -1.69,27.58 -2.52,35.7 1.82,64.94 3.17,21.35 5.44,40.24 11.38,61.7 8.23,29.74 13.56,57.63 36.39,77.45 4.09,3.55 7.87,5.97 10.59,8.65 0.45,5.12 0.77,10.34 1.16,15.51 -5.96,0.36 -13.14,-0.43 -17.91,-0.43 -11.38,0.02 -13.59,1.94 -22.65,2.42 -12.88,0.69 -25.23,-3.41 -35.65,-5.09l-0.24 -4.29 -0.01 -0.12c-0.32,-5.58 -0.67,-11.16 -1.04,-16.73l-0.04 -0.61c-0.38,-5.59 -0.79,-11.18 -1.22,-16.77l-0.34 -4.27c-0.44,-5.49 -0.92,-10.98 -1.42,-16.46l-0.14 -1.54c-0.49,-5.37 -1.02,-10.74 -1.56,-16.1l-0.44 -4.25c-6.68,-63.77 -17.06,-126.74 -30.69,-188.04 5.36,-35.59 6.68,-64.07 23.72,-106.76l0.4 -0.98c11.99,29.77 23.45,61.37 33.99,94.72zm-212.04 -397.34l-8.51 -11.78c2.24,-1.26 -0.26,-1.48 2.01,-2.58 0,0 11.26,12.66 29.15,36.65 -2.86,1.14 -5.55,2.56 -8.07,4.22l-0.23 -0.42 -0.22 -0.42 -0.23 -0.42c-1.42,-2.65 -2.85,-5.3 -4.29,-7.94l-0.23 -0.42 -0.23 -0.42 -0.23 -0.41 -1.69 -3.08c-2.31,-4.2 -4.63,-8.36 -6.97,-12.5l-0.28 -0.49 0 0zm43.47 51.28c2.65,3.83 5.38,7.81 8.17,11.96 1.31,8.24 -0.34,18.25 -5.08,27.29l-0.01 -0.03 -0.13 -0.27c-1.93,-4.14 -3.88,-8.25 -5.85,-12.34l-0.03 -0.06 -0.14 -0.29 -2.83 -5.86c3.73,-6.82 5.04,-13.28 5.89,-20.39zm30.1 45.74c7.78,12.43 15.85,25.75 24.1,40.1 -7.14,7.26 -14.34,14.36 -21.62,21.29 -0.99,-2.45 -1.99,-4.9 -3,-7.34l-0.07 -0.17 -0.26 -0.62 -2.84 -6.85 -0.26 -0.62 -0.26 -0.62c-1.13,-2.69 -2.26,-5.37 -3.39,-8.04l-0 -0 -0.26 -0.62c-0.88,-2.06 -1.76,-4.11 -2.64,-6.15l-0.26 -0.61c-1.15,-2.66 -2.3,-5.32 -3.47,-7.96 5.63,-6.18 10.46,-13.43 14.23,-21.77z"/>
   <path class="fil9" d="M1088.52 491.76c36.18,60.02 95.16,136.66 185.25,200.04 -4.72,-7.27 -9.88,-14.52 -14.73,-22.09 -13.72,-21.4 -31.43,-38.55 -20.71,-52.55 8.42,-9.06 24.38,-7.75 34.52,1.4 10.57,9.53 7.48,20.06 21.11,24.84 24.39,-25.47 -17.16,-79.57 -50.8,-102.19 -16.13,-10.84 -43.54,-12.28 -63.15,-20.35 -9.76,-4.02 -19.07,-8.52 -24.4,-16.9 -7.74,-12.17 -5.16,-24.88 6.7,-29.85 19.83,-6.37 11.35,10.07 34.38,8.85 -1.98,-16.23 -21.21,-30.82 -32.69,-39.3 -20.63,-15.24 -12.54,-15.07 -25.51,-52.6 -13.57,0.73 -26.8,1.76 -39.76,3.13l0.41 1.84c9.77,45.57 1.66,78.27 -10.62,95.74zm318.02 271.49c41.75,16.48 87.82,29.73 138.61,38.38 10.62,-13.77 25.71,-25.22 45.82,-32.64 6.96,-2.57 14.43,-4.32 22.1,-4.25 -3.66,13.26 -2.51,26.47 1.65,34.74 -9.26,-1.36 -20.72,1.36 -30.83,7.72 9.67,1.15 19.54,2.09 29.53,2.9 2.65,-1.2 5.37,-2.19 8.18,-3.09 0.19,0.09 0.38,0.19 0.57,0.27l0 -0.45c1.66,-0.52 3.35,-1 5.08,-1.49 -1.41,-1.42 -3.07,-2.59 -4.91,-3.52 0.64,-9.23 3.59,-21.1 17.23,-28.12 3.43,2.5 6.83,5.59 10.16,9.38 8.39,9.52 12.01,19.74 12.38,29.54 4.32,0.11 8.62,0.25 13,0.29 22,0.21 43.32,-0.46 64.05,-1.86 0.68,-9.32 4.35,-18.96 12.29,-27.97 3.34,-3.79 6.73,-6.88 10.16,-9.38 13.64,7.02 16.59,18.89 17.23,28.12 -1.84,0.93 -3.5,2.1 -4.91,3.52 1.73,0.48 3.43,0.97 5.08,1.49l0 0.45c0.19,-0.08 0.38,-0.17 0.57,-0.26l0.59 0.19c9.93,-1.19 19.74,-2.53 29.36,-4.08 -7.93,-3.39 -16.12,-4.66 -23.06,-3.64 4.16,-8.27 5.32,-21.48 1.66,-34.74 7.66,-0.08 15.14,1.68 22.1,4.25 16.95,6.25 30.33,15.38 40.48,26.33 68.85,-15.1 129.36,-38.96 182.23,-67.73 -11.48,-2.49 -28.68,-0.62 -37.21,0.51 -54.45,7.18 -63,41.52 -82.06,37.63 -40.95,-8.37 21.98,-94.71 95.38,-93.6 6.07,0.09 17.03,1.55 21.34,0.36 -3.47,-8.1 -29.77,-16.21 -40,-18.07 -50.34,-9.17 -67.37,16.92 -90.84,12.64 -15.42,-2.81 -28.09,-11.23 -44.26,-1.87 10,12.01 4.98,3.87 14.52,9.13 19.73,10.87 3.38,42.89 -38.84,17.5 -13.38,-8.05 -43.24,-43.02 -92.3,-32.85 -11.72,2.43 -28.74,7.71 -38.08,17.06 -9.34,-9.35 -26.36,-14.63 -38.08,-17.06 -49.06,-10.18 -78.92,24.8 -92.3,32.84 -42.23,25.39 -58.57,-6.63 -38.84,-17.5 9.54,-5.26 4.52,2.88 14.52,-9.13 -16.17,-9.36 -28.85,-0.93 -44.26,1.87 -23.47,4.28 -40.51,-21.81 -90.84,-12.64 -10.24,1.86 -36.53,9.97 -40,18.07 4.31,1.19 15.27,-0.27 21.34,-0.36 73.4,-1.11 136.34,85.23 95.38,93.6 -19.06,3.89 -27.61,-30.45 -82.06,-37.63 -11.43,-1.51 -38.41,-4.36 -46.36,3.73 13.7,9.17 28.95,12.9 47.44,31.42zm757.97 -128.51c63.82,-56.94 108.89,-117.25 138.25,-164.01 -5.66,-18.38 -7.35,-43.53 -0.67,-74.7l0.31 -1.4c-12.96,-1.45 -26.19,-2.55 -39.75,-3.34 -12.86,37.3 -4.84,37.17 -25.43,52.37 -11.47,8.48 -30.71,23.07 -32.69,39.3 23.03,1.22 14.55,-15.22 34.38,-8.85 11.86,4.97 14.44,17.68 6.7,29.85 -5.33,8.38 -14.64,12.88 -24.4,16.9 -19.61,8.07 -47.02,9.51 -63.15,20.35 -33.64,22.62 -75.18,76.72 -50.8,102.19 13.63,-4.78 10.54,-15.3 21.11,-24.84 10.14,-9.15 26.1,-10.45 34.52,-1.4 4.12,5.37 4.04,11.21 1.61,17.58zm-463.69 85.37c19.1,-0.14 36.02,-1.1 44.3,-13.05 -6.16,-25.67 -26.9,-27.47 -40.38,-25.75 0.35,0.61 0.67,1.23 0.96,1.86 -1.32,-0.37 -3.06,-0.8 -5.08,-1.19 -2.03,0.39 -3.77,0.83 -5.09,1.19 0.29,-0.63 0.61,-1.26 0.96,-1.86 -13.48,-1.73 -34.22,0.08 -40.38,25.75 8.35,12.03 25.44,12.92 44.71,13.05z"/>
  </g>
 </g>
</svg>
