<?xml version="1.0" encoding="UTF-8"?>
<!DOCTYPE svg PUBLIC "-//W3C//DTD SVG 1.1//EN" "http://www.w3.org/Graphics/SVG/1.1/DTD/svg11.dtd">
<!-- Creator: CorelDRAW 2020 (64-Bit) -->
<svg xmlns="http://www.w3.org/2000/svg" xml:space="preserve" width="161.908mm" height="176.791mm" version="1.1" style="shape-rendering:geometricPrecision; text-rendering:geometricPrecision; image-rendering:optimizeQuality; fill-rule:evenodd; clip-rule:evenodd"
viewBox="0 0 1226.75 1339.52"
 xmlns:xlink="http://www.w3.org/1999/xlink"
 xmlns:xodm="http://www.corel.com/coreldraw/odm/2003">
 <defs>
  <style type="text/css">
   <![CDATA[
    .fil0 {fill:none}
    .fil1 {fill:#501D33}
    .fil7 {fill:#623448}
    .fil10 {fill:#856969}
    .fil3 {fill:#8E7A5D}
    .fil8 {fill:#AE9F90}
    .fil2 {fill:#C3C077}
    .fil9 {fill:#D2C8AD}
    .fil4 {fill:#D4D784}
    .fil5 {fill:#EEF698}
    .fil6 {fill:#501D33;fill-rule:nonzero}
   ]]>
  </style>
 </defs>
 <g id="Слой_x0020_1">
  <metadata id="CorelCorpID_0Corel-Layer"/>
  <g id="_2674527037728">
   <rect class="fil0" y="0" width="1226.75" height="1339.52"/>
   <g id="_103132408">
    <path id="_103297632" class="fil1" d="M893.18 139.89c126.51,56.76 230.2,276.19 239.44,391.78 10.59,132.41 8.95,212.99 -68.28,374.76 0,0 -17.44,32.57 -74.83,18.61 -26.73,4.32 -50.49,-6.39 -62.78,-24.02 -0.3,-0.43 -32.72,-3.51 -48.11,-18.49 -6.98,-6.8 -11.42,-12.84 -8.91,-25.21 3.29,-16.19 8.14,-36.02 8.14,-36.02 0,0 -28.55,-28.46 -23.87,-40.56 4.67,-12.11 63.05,-62.69 63.14,-63.18 40.05,-183.67 0.78,-340.34 -104.16,-466.9l-84.31 -111.63c42.35,-12.5 119.61,-19.29 164.52,0.86l0 0z"/>
    <path id="_103297560" class="fil1" d="M385.77 693.4c-22.88,-135.99 -34.68,-365.19 -48.43,-473 24.04,-99 213.17,-68.65 277.59,-55.25 64.43,-13.39 253.55,-43.75 277.59,55.25 -13.57,106.38 -23.57,332.92 -45.82,469.27 -83.59,26.55 -163.48,35.62 -232.76,35.49 -52.56,-0.1 -174.57,-10.56 -228.18,-31.75l0 0z"/>
    <path id="_103297488" class="fil1" d="M335.19 139.89c-126.51,56.76 -230.2,276.19 -239.44,391.78 -10.59,132.41 -8.95,212.99 68.28,374.76 0,0 17.44,32.57 74.83,18.61 26.73,4.32 50.49,-6.39 62.78,-24.02 0.3,-0.43 32.72,-3.51 48.11,-18.49 6.98,-6.8 11.42,-12.84 8.91,-25.21 -3.29,-16.19 -8.14,-36.02 -8.14,-36.02 0,0 28.55,-28.46 23.87,-40.56 -4.67,-12.11 -63.05,-62.69 -63.14,-63.18 -40.05,-183.67 -0.78,-340.34 104.16,-466.9l84.31 -111.63c-42.35,-12.5 -119.61,-19.29 -164.52,0.86l0 0z"/>
    <path id="_103297416" class="fil2" d="M347.91 312.37l11.95 -16.54c9.65,128.95 24.54,267.72 43.85,393.19 62.82,15.26 246.28,50.64 423.05,-4.01 18.92,-123.81 33.54,-260.27 43.09,-387.31l10.6 14.67c63.02,111.17 93.55,280.35 48.41,421.99 0,0 -55.86,43.43 -56.54,49.43 -0.68,6 15.27,23.62 15.27,23.62 4.96,-8.51 11.73,-24 14.53,-20.7 -10.14,35.66 -14.75,56.9 -17.51,69.5 -3.61,16.49 0.55,17.48 13.86,23.74l29.14 7.69c0,0 6.2,-22.75 8.13,-22.82 1.93,-0.07 2.02,30.75 2.02,30.75 22.28,19.22 49.57,19.13 49.57,19.13 0,0 21.6,-24.9 22.47,-22.93 0.87,1.97 -12.02,24.79 -12.02,24.79 44.35,5.13 51.38,-15.6 51.38,-15.6 57.96,-113.54 81.86,-223.35 66.21,-348.58 -15.55,-124.41 -78.02,-258.83 -164.9,-347.94 -59.69,-61.21 -107.11,-66.09 -187.54,-62.82 -43.79,-14.62 -95.81,-22.01 -147.85,-22.1l0 -0 -0.16 0 -0.16 -0 0 0c-52.11,0.09 -104.19,7.5 -148.02,22.15 -81.24,-3.37 -128.85,1.22 -188.87,62.77 -86.88,89.11 -149.35,223.52 -164.9,347.94 -15.65,125.23 8.25,235.04 66.21,348.58 0,0 7.04,20.72 51.38,15.6 0,0 -12.9,-22.82 -12.02,-24.79 0.87,-1.97 22.47,22.93 22.47,22.93 0,0 27.29,0.1 49.57,-19.13 0,0 0.09,-30.82 2.02,-30.75 1.93,0.07 8.13,22.82 8.13,22.82l29.14 -7.69c13.31,-6.26 17.47,-7.25 13.86,-23.74 -2.76,-12.59 -7.37,-33.84 -17.51,-69.5 2.8,-3.3 9.57,12.19 14.53,20.7 0,0 15.95,-17.61 15.27,-23.62 -0.68,-6 -56.54,-49.43 -56.54,-49.43 -45.14,-141.64 -14.61,-310.82 48.41,-421.99l0 -0z"/>
    <circle id="_103297344" class="fil3" cx="1010.35" cy="357.4" r="22.61"/>
    <path id="_103297200" class="fil3" d="M403.72 689.02c-18.1,-117.61 -32.31,-246.89 -41.97,-368.82 -0.43,-5.3 -2.47,-23.21 -1.59,-23.55l20.06 115.57c4.01,12.06 21.38,52.14 76.28,56.83 0,0 5.96,-0.21 7.88,2.34 1.78,2.38 -62.27,39.46 -57.33,167.15l3.9 33.52c0,0 150.37,61.05 386.63,2.55 8.18,-106.63 -49.9,-160.6 -87.51,-191.75 -50.41,-41.76 -25.24,-25.47 12.05,-17.73 43.23,8.98 101.8,15.86 127.29,-51.24l17.3 -109.43c0,0 0.64,4.19 1.74,11.52 -8.53,108.69 -20.69,223.41 -36.01,330.63 -0.47,5.96 -0.72,9.29 -0.72,9.29l-0.67 0.37c-1.4,9.65 -2.83,19.23 -4.28,28.74 -176.77,54.65 -360.23,19.27 -423.05,4.01zm394.06 -14.46c3.6,-0.89 7.21,-1.81 10.84,-2.75l0.56 -3.51 -11.4 6.27z"/>
    <path id="_103297128" class="fil4" d="M604.53 450.4c0,0 -207.54,7.63 -181.6,192.28 0,0 38.07,21.79 134.17,-34.65 96.1,-56.44 71.69,-155.59 47.43,-157.63l-0 -0z"/>
    <path id="_103296912" class="fil5" d="M327.64 164.35c-16.29,9.44 -32.51,22.42 -49.75,40.1 -86.88,89.11 -149.35,223.52 -164.9,347.94 -15.65,125.23 8.25,235.04 66.21,348.58 0,0 0.6,1.75 2.53,4.11 12.81,-1.79 25.77,-4.7 38.47,-8.3 -1.17,-2.56 -1.87,-4.49 -1.65,-5 0.26,-0.58 2.35,1.19 5.15,3.99 24.71,-7.29 48.31,-17.09 67.8,-26.27 0.28,-2.82 0.64,-4.69 1.12,-4.67 0.43,0.02 1.01,1.33 1.65,3.36 25.68,-12.26 43.64,-23.1 46.59,-24.92l-0.03 -0.11c-56.79,19.51 -152.67,29.27 -152.67,29.27 -129.37,-266.13 -39.68,-549.92 139.46,-708.08l0 -0z"/>
    <path id="_103296840" class="fil3" d="M347.91 312.37l3.08 -4.26c-0.81,-0.46 -1.61,-0.96 -2.43,-1.36 0,0 -217.14,246.29 -8.22,567.83 4.8,-3.35 5.8,-7.48 3.41,-18.37 -2.76,-12.59 -7.37,-33.84 -17.51,-69.5 2.8,-3.3 9.57,12.19 14.53,20.7 0,0 15.95,-17.61 15.27,-23.62 -0.68,-6 -56.54,-49.43 -56.54,-49.43 -45.14,-141.64 -14.61,-310.82 48.41,-421.99l0 0z"/>
    <path id="_103246448" class="fil1" d="M146.03 471.48c-56.57,-6.38 -71.16,55.99 -21.25,76.87l21.25 -76.87z"/>
    <path id="_103246376" class="fil2" d="M124.79 548.67c-18.45,-28.75 -18.92,-60.53 21.23,-77.64 0,0 11.42,56.38 -21.23,77.64z"/>
    <path id="_103246304" class="fil5" d="M126.7 551.04c-22.34,-28.46 -22.59,-63.62 20.77,-80.85 -17.23,11.52 -31.45,48.07 -20,78.5l-0.77 2.35z"/>
    <path id="_103246232" class="fil5" d="M143.78 482.12c4.93,3.07 4.88,12.08 -0.12,20.12 -5,8.04 -13.06,12.07 -17.99,9 -4.93,-3.07 -4.88,-12.08 0.12,-20.12 5,-8.04 13.06,-12.07 17.99,-9z"/>
    <path id="_103246160" class="fil2" d="M345.57 784.06c0,0 -9.16,-18.95 -32.58,-30.87 -23.42,-11.92 16.18,31.3 32.58,30.87z"/>
    <path id="_103246088" class="fil3" d="M176.7 896c0.83,1.66 1.66,3.31 2.5,4.96 0,0 7.04,20.72 51.38,15.6 0,0 -12.89,-22.82 -12.02,-24.79 0.87,-1.97 22.48,22.93 22.48,22.93 0,0 27.29,0.1 49.57,-19.13 0,0 0.09,-30.83 2.03,-30.76 1.93,0.07 6.64,25.17 6.64,25.17 15.03,-2 32.28,-7.48 42.41,-16.45 3.62,-3.21 4.22,-7.54 2.07,-17.33 -0.92,-4.2 -2.05,-9.36 -3.51,-15.7 -84.12,37.79 -137.88,50.95 -163.54,55.49l-0 0z"/>
    <path id="_103246016" class="fil3" d="M181.35 499.17c0,0 0,28.15 -37.97,43.51 0,0 25.17,-0.85 35.83,-11.09 10.66,-10.24 2.13,-32.42 2.13,-32.42z"/>
    <path id="_103245944" class="fil5" d="M900.73 164.35c16.29,9.44 32.51,22.42 49.75,40.1 86.88,89.11 149.35,223.52 164.9,347.94 15.65,125.23 -8.25,235.04 -66.21,348.58 0,0 -0.6,1.75 -2.53,4.11 -12.81,-1.79 -25.77,-4.7 -38.47,-8.3 1.17,-2.56 1.87,-4.49 1.65,-5 -0.26,-0.58 -2.35,1.19 -5.15,3.99 -24.71,-7.29 -48.31,-17.09 -67.8,-26.27 -0.28,-2.82 -0.64,-4.69 -1.12,-4.67 -0.43,0.02 -1.01,1.33 -1.65,3.36 -25.68,-12.26 -43.64,-23.1 -46.59,-24.92l0.03 -0.11c56.79,19.51 152.67,29.27 152.67,29.27 129.37,-266.13 39.68,-549.92 -139.46,-708.08l0 -0z"/>
    <path id="_103245872" class="fil3" d="M880.45 312.37l-3.08 -4.26c0.81,-0.46 1.61,-0.96 2.43,-1.36 0,0 217.14,246.29 8.22,567.83 -4.8,-3.35 -5.8,-7.48 -3.41,-18.37 2.76,-12.59 7.37,-33.84 17.51,-69.5 -2.8,-3.3 -9.57,12.19 -14.53,20.7 0,0 -15.95,-17.61 -15.27,-23.62 0.68,-6 56.54,-49.43 56.54,-49.43 45.14,-141.64 14.61,-310.82 -48.41,-421.99l0 0z"/>
    <path id="_103245800" class="fil1" d="M1082.34 471.48c56.57,-6.38 71.16,55.99 21.25,76.87l-21.25 -76.87z"/>
    <path id="_103245728" class="fil2" d="M1103.58 548.67c18.45,-28.75 18.92,-60.53 -21.23,-77.64 0,0 -11.42,56.38 21.23,77.64z"/>
    <path id="_103245656" class="fil5" d="M1101.66 551.04c22.34,-28.46 22.59,-63.62 -20.77,-80.85 17.23,11.52 31.45,48.07 20,78.5l0.77 2.35z"/>
    <path id="_103245584" class="fil5" d="M1084.59 482.12c-4.93,3.07 -4.88,12.08 0.12,20.12 5,8.04 13.06,12.07 17.99,9 4.93,-3.07 4.88,-12.08 -0.12,-20.12 -5,-8.04 -13.06,-12.07 -17.99,-9z"/>
    <path id="_103245512" class="fil2" d="M882.79 784.06c0,0 9.16,-18.95 32.58,-30.87 23.42,-11.92 -16.18,31.3 -32.58,30.87z"/>
    <path id="_103245440" class="fil3" d="M1051.67 896c-0.83,1.66 -1.66,3.31 -2.5,4.96 0,0 -7.04,20.72 -51.38,15.6 0,0 12.89,-22.82 12.02,-24.79 -0.87,-1.97 -22.48,22.93 -22.48,22.93 0,0 -27.29,0.1 -49.57,-19.13 0,0 -0.09,-30.83 -2.03,-30.76 -1.93,0.07 -6.64,25.17 -6.64,25.17 -15.03,-2 -32.28,-7.48 -42.41,-16.45 -3.62,-3.21 -4.22,-7.54 -2.07,-17.33 0.92,-4.2 2.05,-9.36 3.51,-15.7 84.12,37.79 137.88,50.95 163.54,55.49l0 0z"/>
    <path id="_103245368" class="fil3" d="M1047.01 499.17c0,0 0,28.15 37.97,43.51 0,0 -25.17,-0.85 -35.83,-11.09 -10.66,-10.24 -2.13,-32.42 -2.13,-32.42z"/>
    <path id="_103245296" class="fil3" d="M537.86 447.2c0,0 86.75,-20.04 148.48,2.98 -10.58,-18.48 -67.24,-20.64 -72.45,-80.67 -1.86,-21.45 -2.18,-25.6 -6.08,-0.11 -8.77,57.38 -25.2,56.94 -69.95,77.8z"/>
    <path id="_103245224" class="fil3" d="M376.02 141.53c0,0 48.68,150.71 229.7,152.42 181.03,1.71 242.94,-153.7 242.94,-153.7 0,0 -202.08,-62.75 -472.64,1.28l0 0z"/>
    <path id="_103245152" class="fil1" d="M398.72 659.41c0,0 37.54,21.76 68.68,28.15 0,0 -29.01,-0.85 -72.52,-12.37l-5.55 -11.94 9.38 -3.84z"/>
    <path id="_103245080" class="fil6" d="M169.74 595.81c-1.46,0.86 -3.34,0.38 -4.2,-1.08 -0.86,-1.46 -0.38,-3.34 1.08,-4.2 4.38,-2.6 9.88,-2.72 14.83,-0.98 3.03,1.06 5.89,2.83 8.16,5.15 2.34,2.38 4.07,5.34 4.79,8.72 1,4.69 0.05,10.1 -3.94,15.75 -4.48,6.35 -9.63,8.08 -14.27,7.15 -3.01,-0.6 -5.7,-2.35 -7.78,-4.69 -1.99,-2.24 -3.46,-5.07 -4.11,-7.94 -1.12,-4.97 0.11,-10.07 4.96,-12.94 4.73,-2.8 8.59,-2.66 11.44,-1.04 0.08,0.04 0.15,0.09 0.22,0.14 1.3,0.79 2.34,1.89 3.12,3.16 0.76,1.25 1.27,2.66 1.53,4.09 0.67,3.74 -0.41,7.81 -3.16,9.81 -1.38,0.99 -3.3,0.68 -4.29,-0.69 -0.99,-1.37 -0.68,-3.3 0.69,-4.29 0.77,-0.56 1,-2.14 0.71,-3.74 -0.13,-0.72 -0.37,-1.41 -0.73,-1.99 -0.28,-0.45 -0.62,-0.83 -1.02,-1.09l-0.1 -0.06c-1.07,-0.61 -2.79,-0.5 -5.29,0.98 -2.16,1.27 -2.65,3.78 -2.08,6.29 0.42,1.87 1.39,3.73 2.72,5.22 1.24,1.4 2.77,2.43 4.39,2.75 2.39,0.48 5.24,-0.68 8.05,-4.67 2.88,-4.08 3.6,-7.81 2.94,-10.92 -0.47,-2.19 -1.61,-4.13 -3.16,-5.71 -1.61,-1.64 -3.64,-2.9 -5.81,-3.66 -3.34,-1.17 -6.94,-1.16 -9.67,0.46zm10.65 -23.65c1.51,1.09 1.86,3.21 0.76,4.72 -1.09,1.52 -3.21,1.85 -4.72,0.77 -6.96,-5.03 -8.42,-11.79 -6.77,-17.87 0.8,-2.94 2.35,-5.68 4.36,-7.95 2.04,-2.3 4.56,-4.12 7.25,-5.16 5.19,-2.01 10.95,-1.34 15.4,3.86 0.42,0.48 0.83,1.03 1.24,1.62 1.9,2.78 3.11,6.1 3.32,9.18 0.25,3.53 -0.74,6.85 -3.33,9.07 -0.05,0.04 -0.1,0.09 -0.16,0.13 -0.19,0.15 -0.4,0.31 -0.63,0.47 -4.51,3.09 -8.91,2.66 -12.19,0.71 -1.22,-0.72 -2.26,-1.66 -3.1,-2.72 -0.85,-1.07 -1.48,-2.29 -1.85,-3.53 -0.89,-3.02 -0.28,-6.15 2.41,-8.23 1.48,-1.15 3.61,-0.87 4.75,0.6 1.15,1.48 0.87,3.61 -0.6,4.75 -0.19,0.14 -0.19,0.52 -0.06,0.95 0.12,0.41 0.35,0.84 0.68,1.25 0.34,0.43 0.76,0.81 1.25,1.1 1.24,0.73 2.98,0.83 4.89,-0.48 0.04,-0.03 0.08,-0.06 0.13,-0.1l0.06 -0.06c0.8,-0.69 1.09,-1.96 0.99,-3.44 -0.14,-1.92 -0.91,-4.03 -2.15,-5.83 -0.23,-0.33 -0.49,-0.68 -0.8,-1.04 -2.26,-2.63 -5.17,-2.97 -7.8,-1.95 -1.7,0.66 -3.31,1.83 -4.63,3.32 -1.35,1.52 -2.38,3.34 -2.9,5.26 -0.96,3.54 -0.04,7.54 4.19,10.6zm70.67 133.78c1.09,0.78 1.33,2.3 0.55,3.38 -0.78,1.09 -2.3,1.33 -3.39,0.55 -4.99,-3.61 -6.03,-8.45 -4.85,-12.81 0.57,-2.1 1.68,-4.07 3.12,-5.7 1.47,-1.65 3.27,-2.95 5.2,-3.7 3.72,-1.44 7.85,-0.96 11.04,2.77 0.3,0.35 0.59,0.74 0.89,1.16 1.36,1.99 2.23,4.37 2.38,6.58 0.18,2.53 -0.53,4.91 -2.39,6.5 -0.04,0.03 -0.07,0.06 -0.11,0.09 -0.14,0.11 -0.29,0.23 -0.45,0.33 -3.23,2.21 -6.39,1.91 -8.74,0.51 -0.87,-0.52 -1.63,-1.19 -2.22,-1.95 -0.61,-0.77 -1.06,-1.64 -1.33,-2.53 -0.64,-2.16 -0.2,-4.41 1.73,-5.9 1.06,-0.82 2.58,-0.62 3.4,0.43 0.82,1.06 0.63,2.59 -0.43,3.41 -0.14,0.1 -0.14,0.37 -0.04,0.68 0.09,0.29 0.25,0.6 0.49,0.9 0.24,0.31 0.55,0.58 0.9,0.79 0.89,0.53 2.13,0.6 3.51,-0.34 0.03,-0.02 0.06,-0.04 0.09,-0.07l0.05 -0.04c0.57,-0.49 0.78,-1.41 0.7,-2.47 -0.1,-1.38 -0.65,-2.89 -1.54,-4.18 -0.16,-0.23 -0.35,-0.48 -0.57,-0.75 -1.62,-1.88 -3.71,-2.13 -5.59,-1.4 -1.22,0.48 -2.38,1.31 -3.32,2.38 -0.96,1.09 -1.71,2.39 -2.08,3.77 -0.68,2.54 -0.03,5.4 3.01,7.6zm-92.56 -6.19c1.42,-0.39 2.88,0.45 3.27,1.87 0.39,1.42 -0.45,2.88 -1.87,3.26 -9.94,2.71 -17.33,-1.01 -21.73,-7.09 -2.17,-3 -3.59,-6.57 -4.19,-10.2 -0.6,-3.64 -0.4,-7.39 0.66,-10.73 1.99,-6.22 6.84,-10.98 14.88,-11.21 0.79,-0.02 1.62,0 2.48,0.07 4.06,0.32 8.08,1.7 11.13,3.83 3.34,2.33 5.59,5.58 5.7,9.4 0,0.06 0,0.12 0,0.17 0,0.3 -0.01,0.61 -0.03,0.92 -0.5,6.26 -4.02,9.89 -8.11,11.4 -1.53,0.57 -3.13,0.83 -4.67,0.81 -1.55,-0.02 -3.07,-0.32 -4.42,-0.88 -3.15,-1.29 -5.38,-3.91 -5.29,-7.52 0.03,-1.48 1.26,-2.64 2.73,-2.6 1.47,0.03 2.63,1.26 2.6,2.73 -0.03,1.12 0.8,1.98 1.98,2.47 0.72,0.3 1.57,0.46 2.48,0.47 0.92,0.01 1.86,-0.14 2.75,-0.47 2.33,-0.86 4.35,-3.02 4.65,-6.84 0.01,-0.13 0.01,-0.26 0.01,-0.39l-0.01 -0.11c-0.06,-1.97 -1.41,-3.78 -3.42,-5.19 -2.3,-1.6 -5.38,-2.65 -8.51,-2.9 -0.6,-0.04 -1.23,-0.06 -1.89,-0.04 -5.37,0.16 -8.62,3.34 -9.96,7.5 -0.8,2.51 -0.94,5.39 -0.47,8.23 0.48,2.86 1.57,5.63 3.24,7.94 3.2,4.41 8.63,7.1 16.01,5.09zm125.67 -75.28c-0.41,-1.58 0.54,-3.18 2.12,-3.59 1.58,-0.41 3.18,0.54 3.59,2.12 2.84,11.06 -1.39,19.18 -8.18,23.96 -3.35,2.36 -7.33,3.88 -11.35,4.48 -4.05,0.61 -8.2,0.33 -11.87,-0.9 -6.86,-2.29 -12.05,-7.74 -12.19,-16.65 -0.02,-0.88 0.03,-1.8 0.12,-2.74 0.42,-4.49 2.01,-8.92 4.41,-12.27 2.63,-3.66 6.26,-6.11 10.5,-6.16 0.06,-0.01 0.13,-0.01 0.19,-0 0.34,0 0.68,0.02 1.02,0.05 6.93,0.65 10.9,4.6 12.5,9.15 0.61,1.71 0.87,3.48 0.83,5.17 -0.04,1.72 -0.4,3.4 -1.04,4.89 -1.49,3.47 -4.41,5.9 -8.41,5.75 -1.64,-0.06 -2.91,-1.44 -2.85,-3.07 0.06,-1.62 1.43,-2.89 3.06,-2.83 1.24,0.04 2.21,-0.86 2.77,-2.15 0.33,-0.8 0.53,-1.73 0.56,-2.73 0.03,-1.02 -0.13,-2.07 -0.47,-3.05 -0.92,-2.59 -3.28,-4.87 -7.51,-5.26 -0.15,-0.01 -0.29,-0.02 -0.43,-0.02l-0.12 -0c-2.19,0.03 -4.21,1.51 -5.79,3.71 -1.82,2.53 -3.02,5.93 -3.35,9.38 -0.05,0.66 -0.09,1.36 -0.08,2.09 0.09,5.95 3.56,9.6 8.14,11.14 2.77,0.92 5.96,1.12 9.12,0.64 3.17,-0.48 6.25,-1.64 8.84,-3.46 4.94,-3.48 7.99,-9.44 5.88,-17.65zm-76.58 23.89c1.3,0.68 1.8,2.29 1.12,3.59 -0.68,1.3 -2.29,1.8 -3.59,1.12 -9.12,-4.79 -12,-12.54 -11.09,-19.98 0.45,-3.67 1.85,-7.25 3.88,-10.32 2.03,-3.08 4.73,-5.69 7.79,-7.41 5.69,-3.2 12.48,-3.38 18.53,1.92 0.6,0.52 1.19,1.11 1.77,1.74 2.75,2.99 4.76,6.75 5.54,10.38 0.86,3.98 0.3,7.89 -2.22,10.77 -0.04,0.04 -0.08,0.09 -0.12,0.13 -0.2,0.22 -0.42,0.44 -0.65,0.65 -4.63,4.25 -9.68,4.51 -13.7,2.83 -1.51,-0.63 -2.86,-1.52 -3.97,-2.58 -1.12,-1.07 -2.03,-2.33 -2.64,-3.66 -1.43,-3.1 -1.28,-6.53 1.24,-9.12 1.03,-1.06 2.72,-1.08 3.77,-0.04 1.05,1.03 1.07,2.72 0.04,3.77 -0.78,0.8 -0.76,2 -0.23,3.15 0.33,0.71 0.84,1.41 1.5,2.03 0.67,0.63 1.46,1.17 2.33,1.53 2.29,0.95 5.24,0.75 8.07,-1.84 0.09,-0.09 0.18,-0.18 0.27,-0.28l0.07 -0.09c1.3,-1.48 1.54,-3.72 1.02,-6.12 -0.59,-2.75 -2.14,-5.61 -4.26,-7.92 -0.41,-0.44 -0.86,-0.89 -1.35,-1.32 -4.04,-3.55 -8.59,-3.43 -12.4,-1.29 -2.29,1.29 -4.36,3.3 -5.95,5.71 -1.6,2.41 -2.69,5.19 -3.03,8.02 -0.66,5.41 1.49,11.07 8.26,14.62zm30.29 -58.46c1.3,0.68 1.8,2.29 1.12,3.59 -0.68,1.3 -2.29,1.8 -3.59,1.12 -9.12,-4.79 -12,-12.54 -11.09,-19.98 0.45,-3.67 1.85,-7.25 3.88,-10.32 2.03,-3.08 4.73,-5.69 7.79,-7.41 5.69,-3.2 12.48,-3.38 18.53,1.92 0.6,0.52 1.19,1.11 1.77,1.74 2.75,2.99 4.76,6.75 5.54,10.38 0.86,3.98 0.3,7.89 -2.22,10.77 -0.04,0.04 -0.08,0.09 -0.12,0.13 -0.2,0.22 -0.42,0.44 -0.65,0.65 -4.63,4.25 -9.68,4.51 -13.7,2.83 -1.51,-0.63 -2.86,-1.52 -3.97,-2.58 -1.12,-1.07 -2.03,-2.33 -2.64,-3.66 -1.43,-3.1 -1.28,-6.53 1.24,-9.12 1.03,-1.06 2.72,-1.08 3.77,-0.04 1.05,1.03 1.07,2.72 0.04,3.77 -0.78,0.8 -0.76,2 -0.23,3.15 0.33,0.71 0.84,1.41 1.5,2.03 0.67,0.63 1.46,1.17 2.33,1.53 2.29,0.95 5.24,0.75 8.07,-1.84 0.09,-0.09 0.18,-0.18 0.27,-0.28l0.07 -0.09c1.3,-1.48 1.54,-3.72 1.02,-6.12 -0.59,-2.75 -2.14,-5.61 -4.26,-7.92 -0.41,-0.44 -0.86,-0.89 -1.35,-1.32 -4.04,-3.55 -8.59,-3.43 -12.4,-1.29 -2.29,1.29 -4.36,3.3 -5.95,5.71 -1.6,2.41 -2.69,5.19 -3.03,8.02 -0.66,5.41 1.49,11.07 8.26,14.62zm-94.48 -2.55c-0.52,-1.62 0.36,-3.35 1.98,-3.87 1.62,-0.52 3.35,0.36 3.87,1.98 1.57,4.85 0.48,10.25 -2.31,14.7 -1.71,2.73 -4.07,5.13 -6.83,6.84 -2.84,1.76 -6.11,2.8 -9.57,2.75 -4.8,-0.06 -9.88,-2.17 -14.52,-7.32 -5.22,-5.78 -5.77,-11.19 -3.84,-15.52 1.25,-2.81 3.56,-5.05 6.3,-6.56 2.63,-1.46 5.72,-2.27 8.66,-2.26 5.1,0 9.82,2.33 11.55,7.7 1.69,5.24 0.71,8.97 -1.51,11.4 -0.06,0.07 -0.12,0.13 -0.18,0.18 -1.06,1.09 -2.36,1.87 -3.77,2.35 -1.39,0.47 -2.88,0.66 -4.33,0.59 -3.8,-0.17 -7.54,-2.12 -8.88,-5.25 -0.67,-1.56 0.06,-3.37 1.62,-4.04 1.56,-0.67 3.37,0.06 4.04,1.62 0.37,0.88 1.87,1.44 3.49,1.52 0.74,0.03 1.46,-0.05 2.11,-0.27 0.5,-0.17 0.95,-0.42 1.29,-0.76l0.08 -0.09c0.83,-0.91 1.1,-2.61 0.21,-5.39 -0.77,-2.39 -3.11,-3.42 -5.69,-3.42 -1.92,-0 -3.95,0.54 -5.7,1.5 -1.64,0.91 -2.98,2.17 -3.66,3.68 -0.99,2.23 -0.49,5.27 2.78,8.89 3.35,3.71 6.83,5.24 10.02,5.28 2.25,0.03 4.39,-0.66 6.27,-1.83 1.95,-1.21 3.63,-2.92 4.85,-4.87 1.88,-3 2.66,-6.52 1.68,-9.55zm83.61 84.46c-0.52,-1.62 0.36,-3.35 1.98,-3.87 1.62,-0.52 3.35,0.36 3.87,1.98 1.57,4.85 0.48,10.25 -2.31,14.7 -1.71,2.73 -4.07,5.13 -6.83,6.84 -2.84,1.76 -6.11,2.8 -9.57,2.75 -4.8,-0.06 -9.88,-2.17 -14.52,-7.32 -5.22,-5.78 -5.77,-11.19 -3.84,-15.52 1.25,-2.81 3.56,-5.05 6.3,-6.56 2.63,-1.46 5.72,-2.27 8.66,-2.26 5.1,0 9.82,2.33 11.55,7.7 1.69,5.24 0.71,8.97 -1.51,11.4 -0.06,0.07 -0.12,0.13 -0.18,0.18 -1.06,1.09 -2.36,1.87 -3.77,2.35 -1.39,0.47 -2.88,0.66 -4.33,0.59 -3.8,-0.17 -7.54,-2.12 -8.88,-5.25 -0.67,-1.56 0.06,-3.37 1.62,-4.04 1.56,-0.67 3.37,0.06 4.04,1.62 0.37,0.88 1.87,1.44 3.49,1.52 0.74,0.03 1.46,-0.05 2.11,-0.27 0.5,-0.17 0.95,-0.42 1.29,-0.76l0.08 -0.09c0.83,-0.91 1.1,-2.61 0.21,-5.39 -0.77,-2.39 -3.11,-3.42 -5.69,-3.42 -1.92,-0 -3.95,0.54 -5.7,1.5 -1.64,0.91 -2.98,2.17 -3.66,3.68 -0.99,2.23 -0.49,5.27 2.78,8.89 3.35,3.71 6.83,5.24 10.02,5.28 2.25,0.03 4.39,-0.66 6.27,-1.83 1.95,-1.21 3.63,-2.92 4.85,-4.87 1.88,-3 2.66,-6.52 1.68,-9.55zm-88.49 76.13c-0.48,1.63 -2.19,2.55 -3.81,2.08 -1.62,-0.48 -2.56,-2.19 -2.08,-3.81 1.44,-4.89 5.38,-8.71 10.19,-10.81 2.95,-1.29 6.24,-1.94 9.49,-1.78 3.33,0.15 6.62,1.14 9.44,3.13 3.92,2.76 6.92,7.36 7.84,14.22 1.04,7.7 -1.56,12.47 -5.59,14.95 -2.61,1.61 -5.78,2.15 -8.89,1.86 -2.99,-0.29 -5.99,-1.36 -8.42,-3.02 -4.2,-2.88 -6.78,-7.45 -5.18,-12.85 1.56,-5.28 4.47,-7.8 7.67,-8.55 0.08,-0.02 0.17,-0.03 0.25,-0.05 1.5,-0.3 3.01,-0.21 4.43,0.19 1.41,0.39 2.74,1.08 3.9,1.95 3.03,2.28 5.02,6 4.36,9.34 -0.33,1.66 -1.95,2.75 -3.61,2.41 -1.66,-0.33 -2.74,-1.95 -2.41,-3.61 0.18,-0.93 -0.72,-2.24 -2.02,-3.22 -0.59,-0.44 -1.23,-0.78 -1.89,-0.97 -0.51,-0.14 -1.02,-0.18 -1.49,-0.1l-0.11 0.03c-1.2,0.28 -2.38,1.53 -3.21,4.32 -0.71,2.4 0.63,4.57 2.76,6.03 1.58,1.08 3.56,1.78 5.55,1.97 1.86,0.18 3.68,-0.11 5.09,-0.97 2.08,-1.28 3.37,-4.06 2.72,-8.9 -0.67,-4.95 -2.68,-8.17 -5.28,-10 -1.84,-1.29 -4,-1.93 -6.2,-2.03 -2.29,-0.11 -4.64,0.36 -6.74,1.28 -3.24,1.42 -5.87,3.88 -6.77,6.93zm49.91 -29.86c-0.48,1.63 -2.19,2.55 -3.81,2.08 -1.62,-0.48 -2.56,-2.19 -2.08,-3.81 1.44,-4.89 5.38,-8.71 10.19,-10.81 2.95,-1.29 6.24,-1.94 9.49,-1.78 3.33,0.15 6.62,1.14 9.44,3.13 3.92,2.76 6.92,7.36 7.84,14.22 1.04,7.7 -1.56,12.47 -5.59,14.95 -2.61,1.61 -5.78,2.15 -8.89,1.86 -2.99,-0.29 -5.99,-1.36 -8.42,-3.02 -4.2,-2.88 -6.78,-7.45 -5.18,-12.85 1.56,-5.28 4.47,-7.8 7.67,-8.55 0.08,-0.02 0.17,-0.03 0.25,-0.05 1.5,-0.3 3.01,-0.21 4.43,0.19 1.41,0.39 2.74,1.08 3.9,1.95 3.03,2.28 5.02,6 4.36,9.34 -0.33,1.66 -1.95,2.75 -3.61,2.41 -1.66,-0.33 -2.74,-1.95 -2.41,-3.61 0.18,-0.93 -0.72,-2.24 -2.02,-3.22 -0.59,-0.44 -1.23,-0.78 -1.89,-0.97 -0.51,-0.14 -1.02,-0.18 -1.49,-0.1l-0.11 0.03c-1.2,0.28 -2.38,1.53 -3.21,4.32 -0.71,2.4 0.63,4.57 2.76,6.03 1.58,1.08 3.56,1.78 5.55,1.97 1.86,0.18 3.68,-0.11 5.09,-0.97 2.08,-1.28 3.37,-4.06 2.72,-8.9 -0.67,-4.95 -2.68,-8.17 -5.28,-10 -1.84,-1.29 -4,-1.93 -6.2,-2.03 -2.29,-0.11 -4.64,0.36 -6.74,1.28 -3.24,1.42 -5.87,3.88 -6.77,6.93zm-50.26 -92.03c-1.46,0.86 -3.34,0.38 -4.2,-1.08 -0.86,-1.46 -0.38,-3.34 1.08,-4.2 4.38,-2.6 9.88,-2.72 14.83,-0.98 3.03,1.06 5.89,2.83 8.16,5.15 2.34,2.38 4.07,5.34 4.79,8.72 1,4.69 0.05,10.1 -3.94,15.75 -4.48,6.35 -9.63,8.08 -14.27,7.15 -3.01,-0.6 -5.7,-2.35 -7.78,-4.69 -1.99,-2.24 -3.46,-5.07 -4.11,-7.94 -1.12,-4.97 0.11,-10.07 4.96,-12.94 4.73,-2.8 8.59,-2.66 11.44,-1.04 0.08,0.04 0.15,0.09 0.22,0.14 1.3,0.79 2.34,1.89 3.12,3.16 0.76,1.25 1.27,2.66 1.53,4.09 0.67,3.74 -0.41,7.81 -3.16,9.81 -1.38,0.99 -3.3,0.68 -4.29,-0.69 -0.99,-1.37 -0.68,-3.3 0.69,-4.29 0.77,-0.56 1,-2.14 0.71,-3.74 -0.13,-0.72 -0.37,-1.41 -0.73,-1.99 -0.28,-0.45 -0.62,-0.83 -1.02,-1.09l-0.1 -0.06c-1.07,-0.61 -2.79,-0.5 -5.29,0.98 -2.16,1.27 -2.65,3.78 -2.08,6.29 0.42,1.87 1.39,3.73 2.72,5.22 1.24,1.4 2.77,2.43 4.39,2.75 2.39,0.48 5.24,-0.68 8.05,-4.67 2.88,-4.08 3.6,-7.81 2.94,-10.92 -0.47,-2.19 -1.61,-4.13 -3.16,-5.71 -1.61,-1.64 -3.64,-2.9 -5.81,-3.66 -3.34,-1.17 -6.94,-1.16 -9.67,0.46z"/>
    <path id="_103245008" class="fil6" d="M1059.13 595.81c1.46,0.86 3.34,0.38 4.2,-1.08 0.86,-1.46 0.38,-3.34 -1.08,-4.2 -4.38,-2.6 -9.88,-2.72 -14.83,-0.98 -3.03,1.06 -5.89,2.83 -8.16,5.15 -2.34,2.38 -4.07,5.34 -4.79,8.72 -1,4.69 -0.05,10.1 3.94,15.75 4.48,6.35 9.63,8.08 14.27,7.15 3.01,-0.6 5.7,-2.35 7.78,-4.69 1.99,-2.24 3.46,-5.07 4.11,-7.94 1.12,-4.97 -0.11,-10.07 -4.96,-12.94 -4.73,-2.8 -8.59,-2.66 -11.44,-1.04 -0.08,0.04 -0.15,0.09 -0.22,0.14 -1.3,0.79 -2.34,1.89 -3.12,3.16 -0.76,1.25 -1.27,2.66 -1.53,4.09 -0.67,3.74 0.41,7.81 3.16,9.81 1.38,0.99 3.3,0.68 4.29,-0.69 0.99,-1.37 0.68,-3.3 -0.69,-4.29 -0.77,-0.56 -1,-2.14 -0.71,-3.74 0.13,-0.72 0.37,-1.41 0.73,-1.99 0.28,-0.45 0.62,-0.83 1.02,-1.09l0.1 -0.06c1.07,-0.61 2.79,-0.5 5.29,0.98 2.16,1.27 2.65,3.78 2.08,6.29 -0.42,1.87 -1.39,3.73 -2.72,5.22 -1.24,1.4 -2.77,2.43 -4.39,2.75 -2.39,0.48 -5.24,-0.68 -8.05,-4.67 -2.88,-4.08 -3.6,-7.81 -2.94,-10.92 0.47,-2.19 1.61,-4.13 3.16,-5.71 1.61,-1.64 3.64,-2.9 5.81,-3.66 3.34,-1.17 6.94,-1.16 9.67,0.46zm-10.65 -23.65c-1.51,1.09 -1.86,3.21 -0.76,4.72 1.09,1.52 3.21,1.85 4.72,0.77 6.96,-5.03 8.42,-11.79 6.77,-17.87 -0.8,-2.94 -2.35,-5.68 -4.36,-7.95 -2.04,-2.3 -4.56,-4.12 -7.25,-5.16 -5.19,-2.01 -10.95,-1.34 -15.4,3.86 -0.42,0.48 -0.83,1.03 -1.24,1.62 -1.9,2.78 -3.11,6.1 -3.32,9.18 -0.25,3.53 0.74,6.85 3.33,9.07 0.05,0.04 0.1,0.09 0.16,0.13 0.19,0.15 0.4,0.31 0.63,0.47 4.51,3.09 8.91,2.66 12.19,0.71 1.22,-0.72 2.26,-1.66 3.1,-2.72 0.85,-1.07 1.48,-2.29 1.85,-3.53 0.89,-3.02 0.28,-6.15 -2.41,-8.23 -1.48,-1.15 -3.61,-0.87 -4.75,0.6 -1.15,1.48 -0.87,3.61 0.6,4.75 0.19,0.14 0.19,0.52 0.06,0.95 -0.12,0.41 -0.35,0.84 -0.68,1.25 -0.34,0.43 -0.76,0.81 -1.25,1.1 -1.24,0.73 -2.98,0.83 -4.89,-0.48 -0.04,-0.03 -0.08,-0.06 -0.13,-0.1l-0.06 -0.06c-0.8,-0.69 -1.09,-1.96 -0.99,-3.44 0.14,-1.92 0.91,-4.03 2.15,-5.83 0.23,-0.33 0.49,-0.68 0.8,-1.04 2.26,-2.63 5.17,-2.97 7.8,-1.95 1.7,0.66 3.31,1.83 4.63,3.32 1.35,1.52 2.38,3.34 2.9,5.26 0.96,3.54 0.04,7.54 -4.19,10.6zm-70.67 133.78c-1.09,0.78 -1.33,2.3 -0.55,3.38 0.78,1.09 2.3,1.33 3.39,0.55 4.99,-3.61 6.03,-8.45 4.85,-12.81 -0.57,-2.1 -1.68,-4.07 -3.12,-5.7 -1.47,-1.65 -3.27,-2.95 -5.2,-3.7 -3.72,-1.44 -7.85,-0.96 -11.04,2.77 -0.3,0.35 -0.59,0.74 -0.89,1.16 -1.36,1.99 -2.23,4.37 -2.38,6.58 -0.18,2.53 0.53,4.91 2.39,6.5 0.04,0.03 0.07,0.06 0.11,0.09 0.14,0.11 0.29,0.23 0.45,0.33 3.23,2.21 6.39,1.91 8.74,0.51 0.87,-0.52 1.63,-1.19 2.22,-1.95 0.61,-0.77 1.06,-1.64 1.33,-2.53 0.64,-2.16 0.2,-4.41 -1.73,-5.9 -1.06,-0.82 -2.58,-0.62 -3.4,0.43 -0.82,1.06 -0.63,2.59 0.43,3.41 0.14,0.1 0.14,0.37 0.04,0.68 -0.09,0.29 -0.25,0.6 -0.49,0.9 -0.24,0.31 -0.55,0.58 -0.9,0.79 -0.89,0.53 -2.13,0.6 -3.51,-0.34 -0.03,-0.02 -0.06,-0.04 -0.09,-0.07l-0.05 -0.04c-0.57,-0.49 -0.78,-1.41 -0.7,-2.47 0.1,-1.38 0.65,-2.89 1.54,-4.18 0.16,-0.23 0.35,-0.48 0.57,-0.75 1.62,-1.88 3.71,-2.13 5.59,-1.4 1.22,0.48 2.38,1.31 3.32,2.38 0.96,1.09 1.71,2.39 2.08,3.77 0.68,2.54 0.03,5.4 -3.01,7.6zm92.56 -6.19c-1.42,-0.39 -2.88,0.45 -3.27,1.87 -0.39,1.42 0.45,2.88 1.87,3.26 9.94,2.71 17.33,-1.01 21.73,-7.09 2.17,-3 3.59,-6.57 4.19,-10.2 0.6,-3.64 0.4,-7.39 -0.66,-10.73 -1.99,-6.22 -6.84,-10.98 -14.88,-11.21 -0.79,-0.02 -1.62,0 -2.48,0.07 -4.06,0.32 -8.08,1.7 -11.13,3.83 -3.34,2.33 -5.59,5.58 -5.7,9.4 -0,0.06 -0,0.12 -0,0.17 -0,0.3 0.01,0.61 0.03,0.92 0.5,6.26 4.02,9.89 8.11,11.4 1.53,0.57 3.13,0.83 4.67,0.81 1.55,-0.02 3.07,-0.32 4.42,-0.88 3.15,-1.29 5.38,-3.91 5.29,-7.52 -0.03,-1.48 -1.26,-2.64 -2.73,-2.6 -1.47,0.03 -2.63,1.26 -2.6,2.73 0.03,1.12 -0.8,1.98 -1.98,2.47 -0.72,0.3 -1.57,0.46 -2.48,0.47 -0.92,0.01 -1.86,-0.14 -2.75,-0.47 -2.33,-0.86 -4.35,-3.02 -4.65,-6.84 -0.01,-0.13 -0.01,-0.26 -0.01,-0.39l0.01 -0.11c0.06,-1.97 1.41,-3.78 3.42,-5.19 2.3,-1.6 5.38,-2.65 8.51,-2.9 0.6,-0.04 1.23,-0.06 1.89,-0.04 5.37,0.16 8.62,3.34 9.96,7.5 0.8,2.51 0.94,5.39 0.47,8.23 -0.48,2.86 -1.57,5.63 -3.24,7.94 -3.2,4.41 -8.63,7.1 -16.01,5.09zm-125.67 -75.28c0.41,-1.58 -0.54,-3.18 -2.12,-3.59 -1.58,-0.41 -3.18,0.54 -3.59,2.12 -2.84,11.06 1.39,19.18 8.18,23.96 3.35,2.36 7.33,3.88 11.35,4.48 4.05,0.61 8.2,0.33 11.87,-0.9 6.86,-2.29 12.05,-7.74 12.19,-16.65 0.02,-0.88 -0.03,-1.8 -0.12,-2.74 -0.42,-4.49 -2.01,-8.92 -4.41,-12.27 -2.63,-3.66 -6.26,-6.11 -10.5,-6.16 -0.06,-0.01 -0.13,-0.01 -0.19,-0 -0.34,0 -0.68,0.02 -1.02,0.05 -6.93,0.65 -10.9,4.6 -12.5,9.15 -0.61,1.71 -0.87,3.48 -0.83,5.17 0.04,1.72 0.4,3.4 1.04,4.89 1.49,3.47 4.41,5.9 8.41,5.75 1.64,-0.06 2.91,-1.44 2.85,-3.07 -0.06,-1.62 -1.43,-2.89 -3.06,-2.83 -1.24,0.04 -2.21,-0.86 -2.77,-2.15 -0.33,-0.8 -0.53,-1.73 -0.56,-2.73 -0.03,-1.02 0.13,-2.07 0.47,-3.05 0.92,-2.59 3.28,-4.87 7.51,-5.26 0.15,-0.01 0.29,-0.02 0.43,-0.02l0.12 -0c2.19,0.03 4.21,1.51 5.79,3.71 1.82,2.53 3.02,5.93 3.35,9.38 0.05,0.66 0.09,1.36 0.08,2.09 -0.09,5.95 -3.56,9.6 -8.14,11.14 -2.77,0.92 -5.96,1.12 -9.12,0.64 -3.17,-0.48 -6.25,-1.64 -8.84,-3.46 -4.94,-3.48 -7.99,-9.44 -5.88,-17.65zm76.58 23.89c-1.3,0.68 -1.8,2.29 -1.12,3.59 0.68,1.3 2.29,1.8 3.59,1.12 9.12,-4.79 12,-12.54 11.09,-19.98 -0.45,-3.67 -1.85,-7.25 -3.88,-10.32 -2.03,-3.08 -4.73,-5.69 -7.79,-7.41 -5.69,-3.2 -12.48,-3.38 -18.53,1.92 -0.6,0.52 -1.19,1.11 -1.77,1.74 -2.75,2.99 -4.76,6.75 -5.54,10.38 -0.86,3.98 -0.3,7.89 2.22,10.77 0.04,0.04 0.08,0.09 0.12,0.13 0.2,0.22 0.42,0.44 0.65,0.65 4.63,4.25 9.68,4.51 13.7,2.83 1.51,-0.63 2.86,-1.52 3.97,-2.58 1.12,-1.07 2.03,-2.33 2.64,-3.66 1.43,-3.1 1.28,-6.53 -1.24,-9.12 -1.03,-1.06 -2.72,-1.08 -3.77,-0.04 -1.05,1.03 -1.07,2.72 -0.04,3.77 0.78,0.8 0.76,2 0.23,3.15 -0.33,0.71 -0.84,1.41 -1.5,2.03 -0.67,0.63 -1.46,1.17 -2.33,1.53 -2.29,0.95 -5.24,0.75 -8.07,-1.84 -0.09,-0.09 -0.18,-0.18 -0.27,-0.28l-0.07 -0.09c-1.3,-1.48 -1.54,-3.72 -1.02,-6.12 0.59,-2.75 2.14,-5.61 4.26,-7.92 0.41,-0.44 0.86,-0.89 1.35,-1.32 4.04,-3.55 8.59,-3.43 12.4,-1.29 2.29,1.29 4.36,3.3 5.95,5.71 1.6,2.41 2.69,5.19 3.03,8.02 0.66,5.41 -1.49,11.07 -8.26,14.62zm-30.29 -58.46c-1.3,0.68 -1.8,2.29 -1.12,3.59 0.68,1.3 2.29,1.8 3.59,1.12 9.12,-4.79 12,-12.54 11.09,-19.98 -0.45,-3.67 -1.85,-7.25 -3.88,-10.32 -2.03,-3.08 -4.73,-5.69 -7.79,-7.41 -5.69,-3.2 -12.48,-3.38 -18.53,1.92 -0.6,0.52 -1.19,1.11 -1.77,1.74 -2.75,2.99 -4.76,6.75 -5.54,10.38 -0.86,3.98 -0.3,7.89 2.22,10.77 0.04,0.04 0.08,0.09 0.12,0.13 0.2,0.22 0.42,0.44 0.65,0.65 4.63,4.25 9.68,4.51 13.7,2.83 1.51,-0.63 2.86,-1.52 3.97,-2.58 1.12,-1.07 2.03,-2.33 2.64,-3.66 1.43,-3.1 1.28,-6.53 -1.24,-9.12 -1.03,-1.06 -2.72,-1.08 -3.77,-0.04 -1.05,1.03 -1.07,2.72 -0.04,3.77 0.78,0.8 0.76,2 0.23,3.15 -0.33,0.71 -0.84,1.41 -1.5,2.03 -0.67,0.63 -1.46,1.17 -2.33,1.53 -2.29,0.95 -5.24,0.75 -8.07,-1.84 -0.09,-0.09 -0.18,-0.18 -0.27,-0.28l-0.07 -0.09c-1.3,-1.48 -1.54,-3.72 -1.02,-6.12 0.59,-2.75 2.14,-5.61 4.26,-7.92 0.41,-0.44 0.86,-0.89 1.35,-1.32 4.04,-3.55 8.59,-3.43 12.4,-1.29 2.29,1.29 4.36,3.3 5.95,5.71 1.6,2.41 2.69,5.19 3.03,8.02 0.66,5.41 -1.49,11.07 -8.26,14.62zm94.48 -2.55c0.52,-1.62 -0.36,-3.35 -1.98,-3.87 -1.62,-0.52 -3.35,0.36 -3.87,1.98 -1.57,4.85 -0.48,10.25 2.31,14.7 1.71,2.73 4.07,5.13 6.83,6.84 2.84,1.76 6.11,2.8 9.57,2.75 4.8,-0.06 9.88,-2.17 14.52,-7.32 5.22,-5.78 5.77,-11.19 3.84,-15.52 -1.25,-2.81 -3.56,-5.05 -6.3,-6.56 -2.63,-1.46 -5.72,-2.27 -8.66,-2.26 -5.1,0 -9.82,2.33 -11.55,7.7 -1.69,5.24 -0.71,8.97 1.51,11.4 0.06,0.07 0.12,0.13 0.18,0.18 1.06,1.09 2.36,1.87 3.77,2.35 1.39,0.47 2.88,0.66 4.33,0.59 3.8,-0.17 7.54,-2.12 8.88,-5.25 0.67,-1.56 -0.06,-3.37 -1.62,-4.04 -1.56,-0.67 -3.37,0.06 -4.04,1.62 -0.37,0.88 -1.87,1.44 -3.49,1.52 -0.74,0.03 -1.46,-0.05 -2.11,-0.27 -0.5,-0.17 -0.95,-0.42 -1.29,-0.76l-0.08 -0.09c-0.83,-0.91 -1.1,-2.61 -0.21,-5.39 0.77,-2.39 3.11,-3.42 5.69,-3.42 1.92,-0 3.95,0.54 5.7,1.5 1.64,0.91 2.98,2.17 3.66,3.68 0.99,2.23 0.49,5.27 -2.78,8.89 -3.35,3.71 -6.83,5.24 -10.02,5.28 -2.25,0.03 -4.39,-0.66 -6.27,-1.83 -1.95,-1.21 -3.63,-2.92 -4.85,-4.87 -1.88,-3 -2.66,-6.52 -1.68,-9.55zm-83.61 84.46c0.52,-1.62 -0.36,-3.35 -1.98,-3.87 -1.62,-0.52 -3.35,0.36 -3.87,1.98 -1.57,4.85 -0.48,10.25 2.31,14.7 1.71,2.73 4.07,5.13 6.83,6.84 2.84,1.76 6.11,2.8 9.57,2.75 4.8,-0.06 9.88,-2.17 14.52,-7.32 5.22,-5.78 5.77,-11.19 3.84,-15.52 -1.25,-2.81 -3.56,-5.05 -6.3,-6.56 -2.63,-1.46 -5.72,-2.27 -8.66,-2.26 -5.1,0 -9.82,2.33 -11.55,7.7 -1.69,5.24 -0.71,8.97 1.51,11.4 0.06,0.07 0.12,0.13 0.18,0.18 1.06,1.09 2.36,1.87 3.77,2.35 1.39,0.47 2.88,0.66 4.33,0.59 3.8,-0.17 7.54,-2.12 8.88,-5.25 0.67,-1.56 -0.06,-3.37 -1.62,-4.04 -1.56,-0.67 -3.37,0.06 -4.04,1.62 -0.37,0.88 -1.87,1.44 -3.49,1.52 -0.74,0.03 -1.46,-0.05 -2.11,-0.27 -0.5,-0.17 -0.95,-0.42 -1.29,-0.76l-0.08 -0.09c-0.83,-0.91 -1.1,-2.61 -0.21,-5.39 0.77,-2.39 3.11,-3.42 5.69,-3.42 1.92,-0 3.95,0.54 5.7,1.5 1.64,0.91 2.98,2.17 3.66,3.68 0.99,2.23 0.49,5.27 -2.78,8.89 -3.35,3.71 -6.83,5.24 -10.02,5.28 -2.25,0.03 -4.39,-0.66 -6.27,-1.83 -1.95,-1.21 -3.63,-2.92 -4.85,-4.87 -1.88,-3 -2.66,-6.52 -1.68,-9.55zm88.49 76.13c0.48,1.63 2.19,2.55 3.81,2.08 1.62,-0.48 2.56,-2.19 2.08,-3.81 -1.44,-4.89 -5.38,-8.71 -10.19,-10.81 -2.95,-1.29 -6.24,-1.94 -9.49,-1.78 -3.33,0.15 -6.62,1.14 -9.44,3.13 -3.92,2.76 -6.92,7.36 -7.84,14.22 -1.04,7.7 1.56,12.47 5.59,14.95 2.61,1.61 5.78,2.15 8.89,1.86 2.99,-0.29 5.99,-1.36 8.42,-3.02 4.2,-2.88 6.78,-7.45 5.18,-12.85 -1.56,-5.28 -4.47,-7.8 -7.67,-8.55 -0.08,-0.02 -0.17,-0.03 -0.25,-0.05 -1.5,-0.3 -3.01,-0.21 -4.43,0.19 -1.41,0.39 -2.74,1.08 -3.9,1.95 -3.03,2.28 -5.02,6 -4.36,9.34 0.33,1.66 1.95,2.75 3.61,2.41 1.66,-0.33 2.74,-1.95 2.41,-3.61 -0.18,-0.93 0.72,-2.24 2.02,-3.22 0.59,-0.44 1.23,-0.78 1.89,-0.97 0.51,-0.14 1.02,-0.18 1.49,-0.1l0.11 0.03c1.2,0.28 2.38,1.53 3.21,4.32 0.71,2.4 -0.63,4.57 -2.76,6.03 -1.58,1.08 -3.56,1.78 -5.55,1.97 -1.86,0.18 -3.68,-0.11 -5.09,-0.97 -2.08,-1.28 -3.37,-4.06 -2.72,-8.9 0.67,-4.95 2.68,-8.17 5.28,-10 1.84,-1.29 4,-1.93 6.2,-2.03 2.29,-0.11 4.64,0.36 6.74,1.28 3.24,1.42 5.87,3.88 6.77,6.93zm-49.91 -29.86c0.48,1.63 2.19,2.55 3.81,2.08 1.62,-0.48 2.56,-2.19 2.08,-3.81 -1.44,-4.89 -5.38,-8.71 -10.19,-10.81 -2.95,-1.29 -6.24,-1.94 -9.49,-1.78 -3.33,0.15 -6.62,1.14 -9.44,3.13 -3.92,2.76 -6.92,7.36 -7.84,14.22 -1.04,7.7 1.56,12.47 5.59,14.95 2.61,1.61 5.78,2.15 8.89,1.86 2.99,-0.29 5.99,-1.36 8.42,-3.02 4.2,-2.88 6.78,-7.45 5.18,-12.85 -1.56,-5.28 -4.47,-7.8 -7.67,-8.55 -0.08,-0.02 -0.17,-0.03 -0.25,-0.05 -1.5,-0.3 -3.01,-0.21 -4.43,0.19 -1.41,0.39 -2.74,1.08 -3.9,1.95 -3.03,2.28 -5.02,6 -4.36,9.34 0.33,1.66 1.95,2.75 3.61,2.41 1.66,-0.33 2.74,-1.95 2.41,-3.61 -0.18,-0.93 0.72,-2.24 2.02,-3.22 0.59,-0.44 1.23,-0.78 1.89,-0.97 0.51,-0.14 1.02,-0.18 1.49,-0.1l0.11 0.03c1.2,0.28 2.38,1.53 3.21,4.32 0.71,2.4 -0.63,4.57 -2.76,6.03 -1.58,1.08 -3.56,1.78 -5.55,1.97 -1.86,0.18 -3.68,-0.11 -5.09,-0.97 -2.08,-1.28 -3.37,-4.06 -2.72,-8.9 0.67,-4.95 2.68,-8.17 5.28,-10 1.84,-1.29 4,-1.93 6.2,-2.03 2.29,-0.11 4.64,0.36 6.74,1.28 3.24,1.42 5.87,3.88 6.77,6.93zm50.26 -92.03c1.46,0.86 3.34,0.38 4.2,-1.08 0.86,-1.46 0.38,-3.34 -1.08,-4.2 -4.38,-2.6 -9.88,-2.72 -14.83,-0.98 -3.03,1.06 -5.89,2.83 -8.16,5.15 -2.34,2.38 -4.07,5.34 -4.79,8.72 -1,4.69 -0.05,10.1 3.94,15.75 4.48,6.35 9.63,8.08 14.27,7.15 3.01,-0.6 5.7,-2.35 7.78,-4.69 1.99,-2.24 3.46,-5.07 4.11,-7.94 1.12,-4.97 -0.11,-10.07 -4.96,-12.94 -4.73,-2.8 -8.59,-2.66 -11.44,-1.04 -0.08,0.04 -0.15,0.09 -0.22,0.14 -1.3,0.79 -2.34,1.89 -3.12,3.16 -0.76,1.25 -1.27,2.66 -1.53,4.09 -0.67,3.74 0.41,7.81 3.16,9.81 1.38,0.99 3.3,0.68 4.29,-0.69 0.99,-1.37 0.68,-3.3 -0.69,-4.29 -0.77,-0.56 -1,-2.14 -0.71,-3.74 0.13,-0.72 0.37,-1.41 0.73,-1.99 0.28,-0.45 0.62,-0.83 1.02,-1.09l0.1 -0.06c1.07,-0.61 2.79,-0.5 5.29,0.98 2.16,1.27 2.65,3.78 2.08,6.29 -0.42,1.87 -1.39,3.73 -2.72,5.22 -1.24,1.4 -2.77,2.43 -4.39,2.75 -2.39,0.48 -5.24,-0.68 -8.05,-4.67 -2.88,-4.08 -3.6,-7.81 -2.94,-10.92 0.47,-2.19 1.61,-4.13 3.16,-5.71 1.61,-1.64 3.64,-2.9 5.81,-3.66 3.34,-1.17 6.94,-1.16 9.67,0.46z"/>
    <path id="_103244936" class="fil4" d="M469.51 324.7c50.12,-4.74 8.24,38.57 -33.74,58.33 -85.6,40.28 -34.89,-51.83 33.74,-58.33z"/>
    <g>
     <path id="_103244864" class="fil1" d="M593.36 604.84c0,0 11.62,3.35 39.74,42.01 3.09,-25.64 -15.25,-38.94 -39.74,-42.01z"/>
     <path id="_103244792" class="fil1" d="M609.22 611.67c0,0 -23.19,28.53 -1.25,47.87 0,0 -11.23,-19.5 9.31,-40.86l-3.64 -5.8 -4.42 -1.21z"/>
    </g>
    <g>
     <g>
      <path id="_103244696" class="fil1" d="M770.98 426.21c15.03,0 27.22,6.33 27.22,14.14 0,7.81 -12.19,14.14 -27.22,14.14 -15.03,0 -27.22,-6.33 -27.22,-14.14 0,-7.81 12.19,-14.14 27.22,-14.14z"/>
      <path id="_103244624" class="fil7" d="M770.98 432.81c9.5,0 17.21,3.38 17.21,7.54 0,4.17 -7.71,7.54 -17.21,7.54 -9.5,0 -17.21,-3.38 -17.21,-7.54 0,-4.16 7.71,-7.54 17.21,-7.54z"/>
     </g>
     <g>
      <path id="_103244528" class="fil1" d="M458.88 426.21c15.03,0 27.22,6.33 27.22,14.14 0,7.81 -12.19,14.14 -27.22,14.14 -15.03,0 -27.22,-6.33 -27.22,-14.14 0,-7.81 12.19,-14.14 27.22,-14.14z"/>
      <path id="_103195264" class="fil7" d="M458.88 432.81c9.5,0 17.21,3.38 17.21,7.54 0,4.17 -7.71,7.54 -17.21,7.54 -9.5,0 -17.21,-3.38 -17.21,-7.54 0,-4.16 7.71,-7.54 17.21,-7.54z"/>
     </g>
    </g>
    <g>
     <path id="_103195144" class="fil3" d="M697.24 445.34c6.53,2.83 11.13,9.35 11.13,16.9l0 23.5c0,10.12 -8.28,18.41 -18.4,18.41l-0.37 0c-10.12,0 -18.4,-8.28 -18.4,-18.41l0 -23.5c0,-7.54 4.6,-14.07 11.13,-16.9l0 -9.45c-6.53,-2.83 -11.13,-9.36 -11.13,-16.9l0 -23.5c0,-7.55 4.6,-14.07 11.13,-16.9l0 -16.18 -6.73 3.09c-0.43,9.49 -7.29,17.52 -16.26,18.45l-22.91 2.36c-8.61,0.9 -16.44,-4.99 -18.92,-13.61l-9.52 -0.47c-3.45,8.15 -11.83,12.93 -20.24,10.94l-22.47 -5.31c-8.51,-2.01 -14.33,-10.33 -14.17,-19.44l-8.57 -2.61c-5.13,6.3 -13.69,8.53 -21.07,4.84l-20.9 -10.41c-8.99,-4.48 -12.96,-16.11 -8.82,-25.85l0.15 -0.36c0.21,-0.5 0.44,-0.98 0.69,-1.44l-6.1 -6.28c-7.73,2.53 -16.41,-0.84 -20.72,-8.66l-11.79 -21.37c-4.49,-8.15 -2.81,-18.5 3.53,-24.58l-3.3 -13.58c-6.79,-2.54 -11.82,-9.38 -12.16,-17.57l-0.99 -24.88c-0.34,-8.24 4.17,-15.56 10.78,-18.71l-0.34 -26.59c-0.05,-3.67 3.17,-6.72 7.14,-6.77l0.15 -0c3.96,-0.07 7.26,2.88 7.3,6.55l0.35 26.71c6.18,2.85 10.65,9.35 10.97,17.08l1.01 24.86c0.31,7.67 -3.57,14.54 -9.44,18l2.4 9.9c5.55,0.55 10.8,3.86 13.85,9.39l11.79 21.38c3.23,5.86 3.27,12.86 0.68,18.59l6.89 7.09c3.66,-0.84 7.58,-0.46 11.22,1.36l20.9 10.4c6.02,3 9.79,9.21 10.38,15.9l10.17 3.1c4.17,-4 9.98,-5.88 15.81,-4.5l22.46 5.32c6.01,1.42 10.67,5.98 12.84,11.74l10.64 0.53c2.8,-5.35 7.89,-9.21 13.95,-9.85l22.89 -2.38c5.68,-0.59 11.01,1.77 14.71,5.92l8.93 -4.1c0.32,-6.92 4.03,-13.46 10.17,-16.65l20.74 -10.78c5.69,-2.96 12.14,-2.36 17.19,0.95l6.27 -4.35c-0.85,-4.42 -0.29,-9.18 1.89,-13.41l11.18 -21.76c3.46,-6.74 10.15,-10.39 16.86,-9.96l3.97 -8.2c-3.54,-4.11 -5.43,-9.84 -4.71,-15.82l2.99 -24.67c0.87,-7.2 5.31,-12.98 11.14,-15.54l-1.15 -24.92c-0.17,-3.66 2.94,-6.83 6.91,-7.05l0.15 -0.01c3.96,-0.22 7.35,2.6 7.52,6.26l1.21 26.12c6.95,3.5 11.35,11.59 10.31,20.22l-2.98 24.68c-1.18,9.81 -9.01,17.01 -17.93,16.98l-4.4 9.08c4.62,6.02 5.63,14.75 1.92,21.96l-11.18 21.76c-4.81,9.36 -15.83,12.76 -24.49,7.55l-0.32 -0.19c-0.13,-0.08 -0.25,-0.15 -0.38,-0.23l-6.37 4.41c1.66,8.57 -2.22,17.64 -9.82,21.59l-20.73 10.78c-2.63,1.37 -5.43,1.98 -8.17,1.91l0 11.29c6.53,2.83 11.13,9.35 11.13,16.9l0 23.5c0,7.55 -4.6,14.07 -11.13,16.9l0 9.45zm-227.36 -163.99l-0.14 0.03c-1.3,0.38 -2.6,0.39 -3.79,0.11l9.91 17.96c0.37,-1.09 0.96,-2.14 1.77,-3.06l0.09 -0.12c2.42,-2.75 6.03,-3.44 8.52,-1.82l-0.01 -0.03 -10.77 -19.53c-0.24,2.87 -2.44,5.55 -5.58,6.45zm-15.09 -50.04c0.73,-0.53 1.57,-0.95 2.49,-1.21l0.15 -0.04c3.08,-0.87 6.16,0.25 7.7,2.54 0.5,-0.94 0.77,-2.04 0.72,-3.2l-1.01 -24.87 -0.02 -0.26c-1.31,1.4 -3.23,2.31 -5.37,2.34l-0.16 0.01c-2.29,0.04 -4.35,-0.93 -5.7,-2.46 -0.03,0.3 -0.04,0.61 -0.03,0.92l1.02 24.87c0.02,0.47 0.09,0.94 0.21,1.37zm242.94 115.36l0.05 0.14c0.95,2.4 0.84,4.96 -0.07,6.93 0.76,-0.01 1.53,-0.21 2.26,-0.58l20.74 -10.78c0.32,-0.17 0.61,-0.36 0.88,-0.58 -2.25,-0.03 -4.61,-1.44 -6.06,-3.91l-0.08 -0.13c-1.04,-1.76 -1.44,-3.75 -1.25,-5.56l-19.13 9.94c-0.23,0.12 -0.45,0.26 -0.65,0.41 1.39,0.87 2.59,2.29 3.31,4.11zm-42.9 24.1c-0.89,-0.83 -1.64,-1.92 -2.14,-3.21l-0.06 -0.15c-1.28,-3.28 -0.62,-6.86 1.4,-8.81l-16.06 1.67c1.04,1.47 1.63,3.43 1.54,5.56l-0.01 0.17c-0.12,3 -1.58,5.55 -3.6,6.76l18.93 -1.97zm-141.62 -37.94l-0.11 0.12c-2.73,3.12 -6.97,3.6 -9.43,1.07l-1.02 -1.05c0.14,2.08 1.3,4.02 3.16,4.95l20.11 10.02c-0.55,-1.59 -0.65,-3.47 -0.17,-5.34l0.05 -0.16c0.73,-2.81 2.61,-4.9 4.76,-5.64l-15.39 -7.67c-0.33,1.32 -0.99,2.6 -1.96,3.69zm243.5 -23.67l0.08 0.14c0.55,0.93 0.92,1.92 1.12,2.92l9.7 -18.89c-1.87,0.78 -4.19,0.66 -6.29,-0.52l-0.13 -0.08c-1.87,-1.06 -3.21,-2.78 -3.8,-4.64l-9.09 17.68c2.79,-1.36 6.44,0.05 8.4,3.38zm-183.74 47.65l-0.03 0.14c-1.08,4.15 -4.63,6.72 -7.89,5.72l-0.09 -0.03c0.75,0.96 1.78,1.66 2.99,1.95l22.47 5.32c0.79,0.19 1.58,0.18 2.32,0 -1.43,-1.5 -2.31,-3.82 -2.19,-6.37l0.01 -0.16c0.09,-2.16 0.88,-4.09 2.06,-5.46l-19.4 -4.58c0.12,1.11 0.05,2.28 -0.26,3.46zm210.98 -111.04l0.12 0.07c1.14,0.65 2.08,1.53 2.77,2.54l2.71 -22.44c-1.14,0.82 -2.53,1.34 -4.06,1.42l-0.14 0.01c-3.02,0.17 -5.7,-1.42 -6.89,-3.8l-0.01 0.11 -2.76 22.92c1.95,-2.06 5.33,-2.49 8.27,-0.83zm-88.41 150.25c-1.36,1.4 -3.41,2.29 -5.69,2.29l-0.15 0c-2.29,0 -4.33,-0.89 -5.69,-2.3l0 21.28c1.36,-1.4 3.41,-2.3 5.69,-2.3l0.15 0c2.28,0 4.33,0.9 5.69,2.29l0 -21.27zm0 66.74c-1.36,1.4 -3.41,2.3 -5.69,2.3l-0.15 0c-2.29,0 -4.33,-0.9 -5.69,-2.3l0 22.97c0,3.07 2.51,5.58 5.58,5.58l0.37 0c3.07,0 5.58,-2.51 5.58,-5.58l0 -22.97z"/>
     <path id="_103195072" class="fil1" d="M691.27 436.38c6.53,2.83 11.13,9.35 11.13,16.9l0 23.5c0,10.12 -8.28,18.41 -18.4,18.41l-0.37 0c-10.12,0 -18.4,-8.28 -18.4,-18.41l0 -23.5c0,-7.54 4.6,-14.07 11.13,-16.9l0 -9.45c-6.53,-2.83 -11.13,-9.36 -11.13,-16.9l0 -23.5c0,-7.55 4.6,-14.07 11.13,-16.9l0 -16.18 -6.73 3.09c-0.43,9.49 -7.29,17.52 -16.26,18.45l-22.91 2.36c-8.61,0.9 -16.44,-4.99 -18.92,-13.61l-9.52 -0.47c-3.45,8.15 -11.83,12.93 -20.24,10.94l-22.47 -5.31c-8.51,-2.01 -14.33,-10.33 -14.17,-19.44l-8.57 -2.61c-5.13,6.3 -13.69,8.53 -21.07,4.84l-20.9 -10.41c-8.99,-4.48 -12.96,-16.11 -8.82,-25.85l0.15 -0.36c0.21,-0.5 0.44,-0.98 0.69,-1.44l-6.1 -6.28c-7.73,2.53 -16.41,-0.84 -20.72,-8.66l-11.79 -21.37c-4.49,-8.15 -2.81,-18.5 3.53,-24.58l-3.3 -13.58c-6.79,-2.54 -11.82,-9.38 -12.16,-17.57l-0.99 -24.88c-0.34,-8.24 4.17,-15.56 10.78,-18.71l-0.34 -26.59c-0.05,-3.67 3.17,-6.72 7.14,-6.77l0.15 -0c3.96,-0.07 7.26,2.88 7.3,6.55l0.35 26.71c6.18,2.85 10.65,9.35 10.97,17.08l1.01 24.86c0.31,7.67 -3.57,14.54 -9.44,18l2.4 9.9c5.55,0.55 10.8,3.86 13.85,9.39l11.79 21.38c3.23,5.86 3.27,12.86 0.68,18.59l6.89 7.09c3.66,-0.84 7.58,-0.46 11.22,1.36l20.9 10.4c6.02,3 9.79,9.21 10.38,15.9l10.17 3.1c4.17,-4 9.98,-5.88 15.81,-4.5l22.46 5.32c6.01,1.42 10.67,5.98 12.84,11.74l10.64 0.53c2.8,-5.35 7.89,-9.21 13.95,-9.85l22.89 -2.38c5.68,-0.59 11.01,1.77 14.71,5.92l8.93 -4.1c0.32,-6.92 4.03,-13.46 10.17,-16.65l20.74 -10.78c5.69,-2.96 12.14,-2.36 17.19,0.95l6.27 -4.35c-0.85,-4.42 -0.29,-9.18 1.89,-13.41l11.18 -21.76c3.46,-6.74 10.15,-10.39 16.86,-9.96l3.97 -8.2c-3.54,-4.11 -5.43,-9.84 -4.71,-15.82l2.99 -24.67c0.87,-7.2 5.31,-12.98 11.14,-15.54l-1.15 -24.92c-0.17,-3.66 2.94,-6.83 6.91,-7.05l0.15 -0.01c3.96,-0.22 7.35,2.6 7.52,6.26l1.21 26.12c6.95,3.5 11.35,11.59 10.31,20.22l-2.98 24.68c-1.18,9.81 -9.01,17.01 -17.93,16.98l-4.4 9.08c4.62,6.02 5.63,14.75 1.92,21.96l-11.18 21.76c-4.81,9.36 -15.83,12.76 -24.49,7.55l-0.32 -0.19c-0.13,-0.08 -0.25,-0.15 -0.38,-0.23l-6.37 4.41c1.66,8.57 -2.22,17.64 -9.82,21.59l-20.73 10.78c-2.63,1.37 -5.43,1.98 -8.17,1.91l0 11.29c6.53,2.83 11.13,9.35 11.13,16.9l0 23.5c0,7.55 -4.6,14.07 -11.13,16.9l0 9.45zm-227.36 -163.99l-0.14 0.03c-1.3,0.38 -2.6,0.39 -3.79,0.11l9.91 17.96c0.37,-1.09 0.96,-2.14 1.77,-3.06l0.09 -0.12c2.42,-2.75 6.03,-3.44 8.52,-1.82l-0.01 -0.03 -10.77 -19.53c-0.24,2.87 -2.44,5.55 -5.58,6.45zm-15.09 -50.04c0.73,-0.53 1.57,-0.95 2.49,-1.21l0.15 -0.04c3.08,-0.87 6.16,0.25 7.7,2.54 0.5,-0.94 0.77,-2.04 0.72,-3.2l-1.01 -24.87 -0.02 -0.26c-1.31,1.4 -3.23,2.31 -5.37,2.34l-0.16 0.01c-2.29,0.04 -4.35,-0.93 -5.7,-2.46 -0.03,0.3 -0.04,0.61 -0.03,0.92l1.02 24.87c0.02,0.47 0.09,0.94 0.21,1.37zm242.94 115.36l0.05 0.14c0.95,2.4 0.84,4.96 -0.07,6.93 0.76,-0.01 1.53,-0.21 2.26,-0.58l20.74 -10.78c0.32,-0.17 0.61,-0.36 0.88,-0.58 -2.25,-0.03 -4.61,-1.44 -6.06,-3.91l-0.08 -0.13c-1.04,-1.76 -1.44,-3.75 -1.25,-5.56l-19.13 9.94c-0.23,0.12 -0.45,0.26 -0.65,0.41 1.39,0.87 2.59,2.29 3.31,4.11zm-42.9 24.1c-0.89,-0.83 -1.64,-1.92 -2.14,-3.21l-0.06 -0.15c-1.28,-3.28 -0.62,-6.86 1.4,-8.81l-16.06 1.67c1.04,1.47 1.63,3.43 1.54,5.56l-0.01 0.17c-0.12,3 -1.58,5.55 -3.6,6.76l18.93 -1.97zm-141.62 -37.94l-0.11 0.12c-2.73,3.12 -6.97,3.6 -9.43,1.07l-1.02 -1.05c0.14,2.08 1.3,4.02 3.16,4.95l20.11 10.02c-0.55,-1.59 -0.65,-3.47 -0.17,-5.34l0.05 -0.16c0.73,-2.81 2.61,-4.9 4.76,-5.64l-15.39 -7.67c-0.33,1.32 -0.99,2.6 -1.96,3.69zm243.5 -23.67l0.08 0.14c0.55,0.93 0.92,1.92 1.12,2.92l9.7 -18.89c-1.87,0.78 -4.19,0.66 -6.29,-0.52l-0.13 -0.08c-1.87,-1.06 -3.21,-2.78 -3.8,-4.64l-9.09 17.68c2.79,-1.36 6.44,0.05 8.4,3.38zm-183.74 47.65l-0.03 0.14c-1.08,4.15 -4.63,6.72 -7.89,5.72l-0.09 -0.03c0.75,0.96 1.78,1.66 2.99,1.95l22.47 5.32c0.79,0.19 1.58,0.18 2.32,0 -1.43,-1.5 -2.31,-3.82 -2.19,-6.37l0.01 -0.16c0.09,-2.16 0.88,-4.09 2.06,-5.46l-19.4 -4.58c0.12,1.11 0.05,2.28 -0.26,3.46zm210.98 -111.04l0.12 0.07c1.14,0.65 2.08,1.53 2.77,2.54l2.71 -22.44c-1.14,0.82 -2.53,1.34 -4.06,1.42l-0.14 0.01c-3.02,0.17 -5.7,-1.42 -6.89,-3.8l-0.01 0.11 -2.76 22.92c1.95,-2.06 5.33,-2.49 8.27,-0.83zm-88.41 150.25c-1.36,1.4 -3.41,2.29 -5.69,2.29l-0.15 0c-2.29,0 -4.33,-0.89 -5.69,-2.3l0 21.28c1.36,-1.4 3.41,-2.3 5.69,-2.3l0.15 0c2.28,0 4.33,0.9 5.69,2.29l0 -21.27zm0 66.74c-1.36,1.4 -3.41,2.3 -5.69,2.3l-0.15 0c-2.29,0 -4.33,-0.9 -5.69,-2.3l0 22.97c0,3.07 2.51,5.58 5.58,5.58l0.37 0c3.07,0 5.58,-2.51 5.58,-5.58l0 -22.97z"/>
    </g>
    <path id="_103194976" class="fil1" d="M832.64 654.72c0,0 -37.54,21.76 -68.68,28.15 0,0 29.01,-0.85 72.52,-12.37l5.55 -11.94 -9.38 -3.84z"/>
    <ellipse id="_103194904" class="fil3" cx="843.14" cy="415.84" rx="12.37" ry="14.93"/>
    <circle id="_103194832" class="fil3" cx="825.65" cy="372.33" r="9.38"/>
    <g>
     <g>
      <circle id="_103194760" class="fil3" cx="276.75" cy="213.93" r="17.99"/>
      <circle id="_103194688" class="fil1" cx="274.39" cy="210.66" r="16.49"/>
      <circle id="_103194616" class="fil2" cx="277.58" cy="213.09" r="13.5"/>
      <path id="_103194544" class="fil3" d="M284.8 203.42c2.95,2.2 4.86,5.72 4.86,9.68 0,6.67 -5.41,12.07 -12.07,12.07 -4.65,0 -8.69,-2.64 -10.7,-6.49 2.01,1.5 4.51,2.4 7.22,2.4 6.67,0 12.07,-5.41 12.07,-12.07 0,-2.01 -0.49,-3.91 -1.37,-5.58z"/>
      <circle id="_103194472" class="fil5" transform="matrix(0.347947 -0.237931 0.164677 0.240822 274.78 208.963)" r="23.07"/>
     </g>
     <g>
      <circle id="_103194376" class="fil3" transform="matrix(1.44396 0.461354 -0.523534 1.27246 336.635 231.39)" r="23.07"/>
      <circle id="_103194304" class="fil1" transform="matrix(1.28717 0.422845 -0.515322 1.16625 336.819 225.558)" r="23.07"/>
      <circle id="_103194232" class="fil2" transform="matrix(1.08385 0.346295 -0.392968 0.955116 338.738 230.524)" r="23.07"/>
      <path id="_103194160" class="fil3" d="M358.6 219c3.98,5.34 5.15,12.2 2.49,18.66 -4.48,10.88 -18.12,16.5 -30.46,12.56 -8.61,-2.75 -14.32,-9.44 -15.46,-16.92 2.72,3.65 6.74,6.58 11.75,8.18 12.34,3.94 25.98,-1.68 30.46,-12.56 1.35,-3.29 1.71,-6.68 1.22,-9.92z"/>
      <circle id="_103194088" class="fil5" transform="matrix(0.80399 -0.182384 0.143245 0.490368 336.318 222.124)" r="23.07"/>
     </g>
     <circle id="_103193992" class="fil5" cx="265.65" cy="244.88" r="8.2"/>
     <circle id="_103193920" class="fil5" cx="292.58" cy="250.73" r="3.62"/>
     <circle id="_103193848" class="fil5" cx="392.01" cy="223.69" r="5.11"/>
    </g>
    <g>
     <g>
      <circle id="_103193752" class="fil3" cx="835.74" cy="333.49" r="16.72"/>
      <circle id="_103193680" class="fil1" cx="833.54" cy="330.45" r="15.33"/>
      <circle id="_103193608" class="fil2" cx="836.51" cy="332.71" r="12.55"/>
      <path id="_103193536" class="fil3" d="M843.22 323.72c2.74,2.05 4.51,5.32 4.51,9 0,6.2 -5.03,11.22 -11.22,11.22 -4.32,0 -8.08,-2.45 -9.95,-6.03 1.87,1.4 4.19,2.23 6.71,2.23 6.2,0 11.22,-5.03 11.22,-11.22 0,-1.87 -0.46,-3.64 -1.27,-5.19z"/>
      <circle id="_103193464" class="fil5" transform="matrix(0.323467 -0.221192 0.153091 0.223879 833.905 328.873)" r="23.07"/>
     </g>
     <g>
      <circle id="_103193368" class="fil3" transform="matrix(1.09662 0.350375 -0.397598 0.966369 776.292 395.039)" r="23.07"/>
      <circle id="_103193296" class="fil1" transform="matrix(0.977541 0.32113 -0.391362 0.885708 776.431 390.611)" r="23.07"/>
      <circle id="_103172056" class="fil2" transform="matrix(0.823127 0.262994 -0.29844 0.725363 777.89 394.381)" r="23.07"/>
      <path id="_103171984" class="fil3" d="M792.97 385.63c3.02,4.05 3.91,9.27 1.89,14.17 -3.4,8.26 -13.76,12.53 -23.13,9.54 -6.54,-2.09 -10.88,-7.17 -11.74,-12.85 2.06,2.77 5.12,5 8.93,6.21 9.37,3 19.73,-1.28 23.13,-9.54 1.03,-2.5 1.3,-5.07 0.92,-7.53z"/>
      <circle id="_103171912" class="fil5" transform="matrix(0.61059 -0.138512 0.108788 0.37241 776.05 388.003)" r="23.07"/>
     </g>
     <circle id="_103171816" class="fil5" cx="722.38" cy="405.28" r="6.22"/>
     <circle id="_103171744" class="fil5" cx="742.83" cy="409.73" r="2.75"/>
     <circle id="_103171672" class="fil5" cx="818.34" cy="389.2" r="3.88"/>
    </g>
    <path id="_103171576" class="fil3" d="M1082.04 418.47c-3.57,-9.66 -7.38,-19.26 -11.41,-28.78 -31.28,8.48 -135.14,36.67 -136.58,37.21 -1.7,0.64 12.77,45.99 12.77,45.99 76.46,-3.06 117.96,-36.12 135.22,-54.41z"/>
    <g>
     <path id="_103171504" class="fil1" d="M931.21 460.59c38.27,6.46 112.61,-22.73 150.47,-51.95 -1.42,-29.46 -21.02,-56.14 -37.32,-82.37 -32.37,27.11 -95.49,54.53 -141.78,60.35 12.51,23.83 22.42,48.38 29,73.2l-0.37 0.77z"/>
     <path id="_103171432" class="fil8" d="M913.47 397.5l16.32 49.06c8.03,4.27 24.1,2.6 31.34,1.5 20.32,-3.08 41.41,-10.45 59.34,-18.32 18.09,-7.94 37.08,-18.17 51.73,-30.05 1.08,-0.88 2.71,-2.26 4.52,-3.95 -7.73,-19.16 -17.68,-40.79 -26.81,-56.07 -32.02,26.03 -91.42,51.57 -136.44,57.82z"/>
     <path id="_103171360" class="fil9" d="M960.07 448.21l1.06 -0.16c4.56,-0.69 9.16,-1.6 13.75,-2.68 61.38,-28.92 83.08,-58.42 90.73,-74.8 -1.64,-3.41 -3.15,-6.88 -4.89,-10.26 -19.06,41.54 -79.74,76.73 -100.66,87.9z"/>
     <path id="_103171288" class="fil9" d="M914.18 399.64l15.61 46.92c2.02,1.07 4.55,1.77 7.31,2.2l-11.57 -38.4c56.31,4.7 111.01,-21.54 111.01,-21.54l3.57 -1.49 -1.84 -2.8c-57.83,19.6 -109.63,16.52 -124.09,15.12z"/>
     <path id="_103171216" class="fil10" d="M913.47 397.5l0.26 0.77c67.93,12.23 131.92,-16.37 131.92,-16.37l6.62 -8.24c-46.23,14.39 -85.79,17.11 -107.6,17.28 -10.71,2.93 -21.25,5.18 -31.2,6.56z"/>
     <path id="_103171144" class="fil10" d="M944.21 449.31c4.8,0.08 9.66,-0.32 13.45,-0.78 26.14,-13.97 85.74,-49 103.47,-88.41 -1.73,-3.36 -5.29,-10.39 -7.35,-13.69 -3.2,8.67 -23.96,53.68 -109.57,102.88z"/>
     <path id="_103171072" class="fil1" d="M915.16 396.62c23.19,3.44 66.16,3.8 132.06,-17.97 -1.65,2.57 -3.42,5.19 -5.29,7.79 -35.79,11.91 -82.87,22.25 -128.7,16.26l-1.84 -5.52c1.25,-0.17 2.51,-0.36 3.78,-0.56z"/>
     <path id="_103171000" class="fil1" d="M1059.86 355.12c-6.41,16.37 -31.13,55.05 -115.47,95.54 5.99,-0.04 11.84,-0.74 15.51,-1.29l0.6 -0.09c36.03,-17.4 82.06,-46.57 103.95,-85.2 -1.49,-2.99 -3.01,-5.97 -4.58,-8.95z"/>
    </g>
    <g>
     <path id="_103170904" class="fil1" d="M1033.58 384.53c0,0 27.15,57.1 23.54,96.14 0,0 26.56,-10.19 29.8,-14.14 -0.87,-5.95 -7.51,-47.63 -40.02,-80.13 -3.01,-3.01 -9.3,0.12 -13.32,-1.87z"/>
     <path id="_103170832" class="fil10" d="M1034.9 384.43c0,0 27.52,44.45 29.45,85.95 0,0 11.48,-4.28 14.03,-6.92 2.55,-2.65 -22.32,-73.56 -43.48,-79.03z"/>
    </g>
    <g>
     <path id="_103170736" class="fil1" d="M1032.78 382.76c0,0 -4.44,5.09 -4.05,14.47 0.96,23.06 -1.87,67.72 -17.7,94.8 0,0 31.94,2.24 37.13,-0.24 2.15,-7.15 18.22,-67.01 -15.38,-109.04z"/>
     <path id="_103170664" class="fil8" d="M1032.47 381.65c0,0 8.62,60.07 -9.17,103.32 0,0 13.75,1.1 17.61,-0.39 3.86,-1.49 15.7,-88.64 -8.43,-102.94z"/>
    </g>
    <path id="_103170568" class="fil1" d="M1033.54 410.46c0,0 -18.31,-11.04 -18.45,-15.51 -0.15,-4.47 5.29,-26.32 8.37,-25.97 3.08,0.36 30.08,11.29 30.52,15.13 0.44,3.84 -14.22,24.62 -20.43,26.34z"/>
    <path id="_103170496" class="fil8" d="M1033.9 402.9c0,0 -11.63,-7.01 -11.73,-9.85 -0.09,-2.84 3.36,-16.73 5.32,-16.5 1.95,0.23 19.11,7.18 19.4,9.62 0.28,2.44 -9.04,15.64 -12.99,16.74z"/>
    <path id="_103170424" class="fil10" d="M1033.9 402.9c0,0 -9.82,-5.92 -11.49,-9.09 6.03,-0.89 15.04,-2.87 24.45,-7.27 -0.5,3.19 -9.19,15.31 -12.97,16.36z"/>
    <circle id="_103170352" class="fil3" cx="967.27" cy="348.02" r="8.96"/>
    <circle id="_103170280" class="fil3" cx="974.95" cy="285.74" r="10.24"/>
    <circle id="_103170208" class="fil3" cx="273.44" cy="744.08" r="17.27"/>
    <circle id="_103170136" class="fil5" transform="matrix(1.49303 0.376832 -0.515487 2.04239 174.248 396.579)" r="10.24"/>
    <circle id="_103132504" class="fil3" cx="256.18" cy="474.03" r="24.34"/>
    <circle id="_103132432" class="fil3" cx="256.6" cy="418.1" r="7.69"/>
   </g>
  </g>
 </g>
</svg>
