<?xml version="1.0" encoding="UTF-8"?>
<!DOCTYPE svg PUBLIC "-//W3C//DTD SVG 1.1//EN" "http://www.w3.org/Graphics/SVG/1.1/DTD/svg11.dtd">
<!-- Creator: CorelDRAW 2020 (64-Bit) -->
<svg xmlns="http://www.w3.org/2000/svg" xml:space="preserve" width="161.908mm" height="176.791mm" version="1.1" style="shape-rendering:geometricPrecision; text-rendering:geometricPrecision; image-rendering:optimizeQuality; fill-rule:evenodd; clip-rule:evenodd"
viewBox="0 0 6859.45 7490"
 xmlns:xlink="http://www.w3.org/1999/xlink"
 xmlns:xodm="http://www.corel.com/coreldraw/odm/2003">
 <defs>
  <style type="text/css">
   <![CDATA[
    .fil0 {fill:none}
    .fil1 {fill:#501D33}
    .fil6 {fill:#623448}
    .fil4 {fill:#8E7A5D}
    .fil2 {fill:#C3C077}
    .fil3 {fill:#D4D784}
    .fil5 {fill:#EEF698}
   ]]>
  </style>
 </defs>
 <g id="Слой_x0020_1">
  <metadata id="CorelCorpID_0Corel-Layer"/>
  <g id="_2674579393376">
   <rect class="fil0" y="0" width="6859.45" height="7490"/>
   <path id="_129455904" class="fil1" d="M4994.26 782.22c707.36,317.4 1287.17,1544.35 1338.85,2190.65 59.2,740.39 50.03,1190.97 -381.82,2095.5 0,0 -97.49,182.13 -418.43,104.04 -149.49,24.17 -282.3,-35.74 -351.01,-134.28 -1.67,-2.4 -182.93,-19.6 -269.01,-103.4 -39.05,-38.01 -63.85,-71.81 -49.81,-140.97 18.37,-90.55 45.5,-201.42 45.5,-201.42 0,0 -159.62,-159.12 -133.48,-226.81 26.14,-67.69 352.53,-350.56 353.07,-353.27 223.97,-1026.99 4.34,-1903.05 -582.39,-2610.69l-471.4 -624.19c236.82,-69.92 668.79,-107.86 919.93,4.83z"/>
   <path id="_129455832" class="fil1" d="M2157.06 3877.2c-127.92,-760.39 -193.91,-2042 -270.81,-2644.83 134.45,-553.59 1191.94,-383.84 1552.18,-308.96 360.24,-74.88 1417.73,-244.63 1552.18,308.96 -75.89,594.83 -131.78,1861.55 -256.21,2623.94 -467.39,148.44 -914.08,199.19 -1301.48,198.44 -293.92,-0.58 -976.11,-59.05 -1275.86,-177.55l0 0.01z"/>
   <path id="_129455760" class="fil1" d="M1874.22 782.22c-707.36,317.4 -1287.17,1544.35 -1338.85,2190.65 -59.2,740.39 -50.03,1190.97 381.82,2095.5 0,0 97.49,182.13 418.43,104.04 149.49,24.17 282.3,-35.74 351.01,-134.28 1.67,-2.4 182.93,-19.6 269.01,-103.4 39.05,-38.01 63.85,-71.81 49.81,-140.97 -18.37,-90.55 -45.5,-201.42 -45.5,-201.42 0,0 159.62,-159.12 133.48,-226.81 -26.14,-67.69 -352.53,-350.56 -353.07,-353.27 -223.97,-1026.99 -4.34,-1903.05 582.39,-2610.69l471.4 -624.19c-236.82,-69.92 -668.79,-107.86 -919.93,4.83z"/>
   <path id="_129455688" class="fil2" d="M1945.37 1746.66l66.84 -92.49c53.97,721.01 137.2,1496.96 245.18,2198.55 351.24,85.33 1377.08,283.18 2365.49,-22.4 105.79,-692.28 187.53,-1455.3 240.95,-2165.68l59.28 82.03c352.39,621.61 523.11,1567.62 270.7,2359.59 0,0 -312.35,242.83 -316.15,276.4 -3.82,33.56 85.37,132.05 85.37,132.05 27.73,-47.59 65.6,-134.19 81.25,-115.74 -56.7,199.39 -82.49,318.17 -97.92,388.59 -20.21,92.18 3.05,97.74 77.48,132.74l162.92 43.02c0,0 34.67,-127.22 45.48,-127.62 10.81,-0.39 11.32,171.97 11.32,171.97 124.59,107.5 277.17,106.94 277.17,106.94 0,0 120.78,-139.22 125.67,-128.2 4.88,11.01 -67.23,138.6 -67.23,138.6 247.97,28.67 287.32,-87.21 287.32,-87.21 324.09,-634.86 457.7,-1248.86 370.21,-1949.09 -86.95,-695.67 -436.25,-1447.25 -922.04,-1945.5 -333.74,-342.28 -598.91,-369.53 -1048.62,-351.28 -244.86,-81.74 -535.73,-123.04 -826.71,-123.56l0 -0.01 -0.88 0 -0.88 -0 0 0.01c-291.35,0.51 -582.6,41.92 -827.65,123.86 -454.26,-18.84 -720.47,6.81 -1056.05,350.98 -485.8,498.25 -835.1,1249.82 -922.04,1945.5 -87.49,700.24 46.12,1314.23 370.21,1949.09 0,0 39.35,115.87 287.32,87.21 0,0 -72.12,-127.59 -67.23,-138.6 4.89,-11.02 125.67,128.2 125.67,128.2 0,0 152.58,0.55 277.17,-106.94 0,0 0.51,-172.36 11.32,-171.97 10.81,0.39 45.48,127.62 45.48,127.62l162.92 -43.02c74.43,-34.99 97.69,-40.55 77.48,-132.74 -15.43,-70.42 -41.22,-189.2 -97.92,-388.59 15.65,-18.44 53.52,68.16 81.25,115.74 0,0 89.19,-98.49 85.37,-132.05 -3.8,-33.58 -316.15,-276.4 -316.15,-276.4 -252.41,-791.97 -81.69,-1737.99 270.7,-2359.59l-0.02 -0z"/>
   <path class="fil3" d="M907.01 3422.64l512.84 -226.99 92.48 -196.16c0,0 -493.22,327.87 -605.31,423.16z"/>
   <path id="_129455472" class="fil4" d="M1945.37 1746.66l17.21 -23.82c-4.53,-2.55 -9.01,-5.36 -13.58,-7.6 0,0 -1214.16,1377.14 -45.96,3175.04 26.82,-18.75 32.44,-41.83 19.08,-102.73 -15.43,-70.42 -41.22,-189.2 -97.92,-388.59 15.65,-18.44 53.52,68.16 81.25,115.74 0,0 89.19,-98.49 85.37,-132.05 -3.8,-33.58 -316.15,-276.4 -316.15,-276.4 -252.41,-791.97 -81.69,-1737.99 270.7,-2359.59l0 0z"/>
   <path id="_129455400" class="fil5" d="M1832.01 918.95c-91.07,52.8 -181.76,125.37 -278.17,224.25 -485.8,498.25 -835.1,1249.82 -922.04,1945.5 -87.49,700.24 46.12,1314.23 370.21,1949.09 0,0 3.36,9.79 14.17,22.98 71.62,-10 144.08,-26.25 215.12,-46.43 -6.52,-14.34 -10.48,-25.09 -9.21,-27.95 1.45,-3.27 13.11,6.67 28.78,22.28 138.17,-40.75 270.13,-95.55 379.11,-146.87 1.56,-15.78 3.6,-26.22 6.27,-26.12 2.41,0.09 5.66,7.42 9.24,18.77 143.58,-68.54 244,-129.19 260.54,-139.32l-0.14 -0.63c-317.54,109.09 -853.66,163.69 -853.66,163.69 -723.35,-1488.06 -221.88,-3074.92 779.8,-3959.24l-0.01 0z"/>
   <path id="_129455328" class="fil5" d="M5036.46 918.95c91.07,52.8 181.76,125.37 278.17,224.25 485.8,498.25 835.1,1249.82 922.04,1945.5 87.49,700.24 -46.12,1314.23 -370.21,1949.09 0,0 -3.36,9.79 -14.17,22.98 -71.62,-10 -144.08,-26.25 -215.12,-46.43 6.52,-14.34 10.48,-25.09 9.21,-27.95 -1.45,-3.27 -13.11,6.67 -28.78,22.28 -138.17,-40.75 -270.13,-95.55 -379.11,-146.87 -1.56,-15.78 -3.6,-26.22 -6.27,-26.12 -2.41,0.09 -5.66,7.42 -9.24,18.77 -143.58,-68.54 -244,-129.19 -260.54,-139.32l0.14 -0.63c317.54,109.09 853.66,163.69 853.66,163.69 723.35,-1488.06 221.88,-3074.92 -779.8,-3959.24l0.01 0z"/>
   <path id="_129455256" class="fil4" d="M4923.1 1746.66l-17.21 -23.82c4.53,-2.55 9.01,-5.36 13.58,-7.6 0,0 1214.16,1377.14 45.96,3175.04 -26.82,-18.75 -32.44,-41.83 -19.08,-102.73 15.43,-70.42 41.22,-189.2 97.92,-388.59 -15.65,-18.44 -53.52,68.16 -81.25,115.74 0,0 -89.19,-98.49 -85.37,-132.05 3.8,-33.58 316.15,-276.4 316.15,-276.4 252.41,-791.97 81.69,-1737.99 -270.7,-2359.59l0 0z"/>
   <polygon id="_129455544" class="fil3" points="5761.97,2250.63 5569.76,2548.3 5280.15,2791.02 "/>
   <path id="_129455184" class="fil1" d="M6051.96 2636.29c316.3,-35.7 397.89,313.09 118.82,429.82l-118.82 -429.82z"/>
   <path id="_129455112" class="fil2" d="M6170.72 3067.92c103.15,-160.75 105.79,-338.43 -118.7,-434.15 0,0 -63.88,315.27 118.7,434.15z"/>
   <path id="_129455040" class="fil5" d="M6160.01 3081.18c124.89,-159.16 126.31,-355.73 -116.13,-452.1 96.35,64.43 175.85,268.78 111.83,438.96l4.3 13.14z"/>
   <path id="_129454968" class="fil5" d="M6064.52 2695.8c-27.59,17.16 -27.3,67.53 0.66,112.48 27.96,44.95 73.01,67.49 100.6,50.34 27.59,-17.16 27.29,-67.53 -0.67,-112.49 -27.96,-44.95 -73.01,-67.49 -100.59,-50.33z"/>
   <path id="_129454896" class="fil2" d="M4936.19 4384.1c0,0 51.19,-105.95 182.15,-172.62 130.95,-66.67 -90.48,175 -182.15,172.62z"/>
   <path id="_129454824" class="fil4" d="M5880.45 5010.03c-4.61,9.26 -9.26,18.52 -13.98,27.75 0,0 -39.35,115.87 -287.3,87.2 0,0 72.1,-127.58 67.21,-138.61 -4.88,-11.03 -125.68,128.23 -125.68,128.23 0,0 -152.57,0.53 -277.15,-106.98 0,0 -0.51,-172.37 -11.33,-171.97 -10.82,0.39 -37.16,140.75 -37.16,140.75 -84.03,-11.18 -180.51,-41.82 -237.14,-91.99 -20.26,-17.95 -23.59,-42.17 -11.59,-96.9 5.15,-23.48 11.44,-52.35 19.65,-87.77 470.34,211.29 770.99,284.89 914.45,310.29l0 0z"/>
   <path id="_129454752" class="fil4" d="M5854.41 2791.13c0,0 0,157.42 212.29,243.29 0,0 -140.73,-4.77 -200.36,-62.02 -59.63,-57.25 -11.93,-181.28 -11.93,-181.28z"/>
   <path id="_129454680" class="fil2" d="M2257.4 3852.7c-124.86,-811.29 -216.64,-1722.04 -268.33,-2532.26 105.03,-432.46 776.55,-650.89 1448.48,-652.08l0 -0.01 0.88 0 0.88 -0 0 0.01c671.92,1.19 1343.45,219.62 1448.48,652.08 -51.22,802.78 -141.79,1704.23 -264.9,2509.87 -988.4,305.58 -2014.24,107.73 -2365.49,22.4l0 -0.01z"/>
   <g>
    <path class="fil3" d="M2751.47 3945.33l65.44 -34.45 328.95 -337.66c0,0 -262.72,183.53 -493.06,357.57 31.76,4.98 64.66,9.85 98.67,14.54z"/>
    <path class="fil4" d="M3189.43 3548.15l-521.83 384.96c-23.26,-3.58 -45.86,-7.23 -67.88,-10.91l69.06 -71.24 520.65 -302.81z"/>
   </g>
   <path class="fil3" d="M4634.13 3083.49l-400.74 326.48 -517.03 249.41c0,0 826.69,-571.68 917.77,-575.89z"/>
   <path id="_129454608" class="fil3" d="M3387.79 1760.09c0,0 -57.24,673.23 28.68,761.57 66.45,68.32 25.34,-497.14 -3.22,-726.75 -8.37,-67.25 -24.38,-31.56 -25.46,-34.81l0 -0z"/>
   <path id="_129454464" class="fil4" d="M2102.51 791.36c0,0 272.17,842.71 1284.4,852.25 1012.23,9.55 1358.4,-859.43 1358.4,-859.43 0,0 -1129.93,-350.9 -2642.79,7.18l-0 0z"/>
   <path id="_129342832" class="fil4" d="M2257.4 3852.7c-101.21,-657.59 -191.88,-1512.92 -245.88,-2194.72 6.49,-30.21 23.5,84.49 28.41,82.61l300.81 2029.24c0,0 824.12,340.11 2180.73,-13.37l324.81 -2054.01c0,0 3.56,23.43 9.71,64.41 -53.42,680.95 -132.36,1404.27 -233.08,2063.45 -988.41,305.59 -2014.26,107.73 -2365.5,22.41l-0 -0.01z"/>
   <path id="_129342688" class="fil1" d="M4655.74 3660.91c0,0 -209.9,121.65 -384.02,157.42 0,0 162.2,-4.77 405.49,-69.17l31.01 -66.79 -52.47 -21.47z"/>
   <path id="_129342616" class="fil1" d="M2229.47 3687.15c0,0 209.9,121.65 384.02,157.42 0,0 -162.2,-4.77 -405.49,-69.17l-31.01 -66.79 52.47 -21.47z"/>
   <path id="_129342544" class="fil3" d="M2657.56 3271.79c0,0 219.64,-415.4 854.67,-415.4 635.03,0 -716.2,429.72 -854.67,415.4z"/>
   <path id="_129342472" class="fil4" d="M3512.2 2678.99c0,0 937.85,88.19 1243.08,-104.92l-38.16 240.91c0,0 -498.59,90.58 -1204.91,-135.99z"/>
   <path id="_129342400" class="fil4" d="M3196 2652.77c0,0 -770.42,62.02 -1080.5,-78.71l38.16 240.91c0,0 784.74,-16.7 1042.34,-162.2z"/>
   <g>
    <g>
     <path id="_129342328" class="fil4" d="M3326.29 3384.42c0,0 -128.27,205.81 70.87,304.2 0,0 -75.35,-135.29 34.09,-238.6l-46.65 -36.9 -58.31 -28.69z"/>
     <g>
      <path id="_129342256" class="fil1" d="M3317.79 3381.99c0,0 64.98,18.7 222.18,234.89 17.26,-143.38 -85.25,-217.72 -222.18,-234.89z"/>
      <path id="_129342184" class="fil1" d="M3406.45 3420.21c0,0 -129.66,159.52 -6.97,267.67 0,0 -62.77,-109.01 52.03,-228.46l-20.37 -32.45 -24.69 -6.76z"/>
      <path id="_129342112" class="fil5" d="M3442.01 3528.09c14.61,5.19 17.88,35.49 7.31,67.66 -10.57,32.16 -31,54.04 -45.61,48.84 -14.61,-5.2 -17.88,-35.5 -7.31,-67.66 10.57,-32.16 31,-54.04 45.61,-48.84z"/>
     </g>
     <path id="_129342016" class="fil4" d="M3481.67 3575.99c0,0 18.77,73.53 -58.55,102.13 0,0 54.97,11.03 86.7,-17.57 31.73,-28.59 -28.15,-84.56 -28.15,-84.56z"/>
    </g>
    <path id="_129341920" class="fil5" d="M3320.04 3355.05c0,0 174.33,0 242.63,120.42 0,0 -12.58,-111.43 -68.29,-145.58 -55.72,-34.15 -174.33,25.16 -174.33,25.16z"/>
   </g>
   <g>
    <g>
     <path id="_129341824" class="fil1" d="M4311 2383.16c84.04,0 152.19,35.41 152.19,79.06 0,43.67 -68.15,79.07 -152.19,79.07 -84.03,0 -152.18,-35.41 -152.18,-79.07 0,-43.66 68.15,-79.06 152.18,-79.06z"/>
     <path id="_129341752" class="fil6" d="M4311 2420.06c53.14,0 96.24,18.88 96.24,42.17 0,23.29 -43.1,42.18 -96.24,42.18 -53.14,0 -96.23,-18.88 -96.23,-42.18 0,-23.28 43.1,-42.17 96.23,-42.17z"/>
    </g>
    <g>
     <path id="_129341656" class="fil1" d="M2565.84 2383.16c84.04,0 152.19,35.41 152.19,79.06 0,43.67 -68.15,79.07 -152.19,79.07 -84.03,0 -152.18,-35.41 -152.18,-79.07 0,-43.66 68.15,-79.06 152.18,-79.06z"/>
     <path id="_129341584" class="fil6" d="M2565.84 2420.06c53.14,0 96.24,18.88 96.24,42.17 0,23.29 -43.1,42.18 -96.24,42.18 -53.14,0 -96.23,-18.88 -96.23,-42.18 0,-23.28 43.1,-42.17 96.23,-42.17z"/>
    </g>
   </g>
   <path id="_129341464" class="fil1" d="M4786.28 2581.23c0,0 -32.64,117.5 -124.03,176.25 0,0 90.08,-2.61 130.55,-54.83 40.47,-52.22 -6.52,-121.41 -6.52,-121.41z"/>
   <path id="_129341392" class="fil1" d="M2096.33 2581.23c0,0 32.64,117.5 124.03,176.25 0,0 -90.08,-2.61 -130.55,-54.83 -40.47,-52.22 6.52,-121.41 6.52,-121.41z"/>
   <path id="_128912232" class="fil1" d="M816.51 2636.29c-316.3,-35.7 -397.89,313.09 -118.82,429.82l118.82 -429.82z"/>
   <path id="_128810808" class="fil2" d="M697.74 3067.92c-103.15,-160.75 -105.79,-338.43 118.7,-434.15 0,0 63.88,315.27 -118.7,434.15z"/>
   <path id="_128810736" class="fil5" d="M708.47 3081.18c-124.89,-159.16 -126.31,-355.73 116.13,-452.1 -96.35,64.43 -175.85,268.78 -111.83,438.96l-4.3 13.14z"/>
   <path id="_128810664" class="fil5" d="M803.95 2695.8c27.59,17.16 27.3,67.53 -0.66,112.48 -27.96,44.95 -73.01,67.49 -100.6,50.34 -27.59,-17.16 -27.29,-67.53 0.67,-112.49 27.96,-44.95 73.01,-67.49 100.59,-50.33z"/>
   <path id="_128810592" class="fil2" d="M1932.28 4384.1c0,0 -51.19,-105.95 -182.15,-172.62 -130.95,-66.67 90.48,175 182.15,172.62z"/>
   <path id="_128810520" class="fil4" d="M988.03 5010.03c4.61,9.26 9.26,18.52 13.98,27.75 0,0 39.35,115.87 287.3,87.2 0,0 -72.1,-127.58 -67.21,-138.61 4.88,-11.03 125.68,128.23 125.68,128.23 0,0 152.57,0.53 277.15,-106.98 0,0 0.51,-172.37 11.33,-171.97 10.82,0.39 37.16,140.75 37.16,140.75 84.03,-11.18 180.51,-41.82 237.14,-91.99 20.26,-17.95 23.59,-42.17 11.59,-96.9 -5.15,-23.48 -11.44,-52.35 -19.65,-87.77 -470.34,211.29 -770.99,284.89 -914.45,310.29l-0 0z"/>
   <path id="_128810448" class="fil4" d="M1030.87 2786.24c0,0 0,157.42 -212.29,243.29 0,0 140.73,-4.77 200.36,-62.02 59.63,-57.25 11.93,-181.28 11.93,-181.28z"/>
   <polygon id="_128810304" class="fil1" points="5245.48,2847.92 5843.67,2172.25 5187.88,2747.12 "/>
   <path id="_128810088" class="fil1" d="M2528.6 2985.78c0,0 -22.91,121.21 42.71,245.36 0,0 16.97,-76.12 12.32,-128.51 -4.66,-52.39 -53.62,-117.36 -55.03,-116.85z"/>
   <path class="fil3" d="M3625.15 2054.2l919.18 -532.45 601.11 -522.64 -72.86 0c0,0 -1378.77,975.23 -1447.43,1055.1z"/>
   <path class="fil1" d="M5094.99 913.61c-494.05,371.45 -982.84,753.07 -1476.89,1124.51 -32.9,24.73 -26.46,35.49 9.23,13.04l1546.13 -1070.3 -78.47 -67.26z"/>
   <g>
    <path class="fil3" d="M2770.43 2564.23l529.65 -278.84 423.16 -434.37c0,0 -673.97,470.8 -952.8,713.2z"/>
    <polygon class="fil4" points="3779.28,1818.78 2753.61,2575.42 3109.51,2208.31 "/>
   </g>
   <g>
    <path class="fil3" d="M893.54 2449.8l374.9 -197.37 299.52 -307.46c0,0 -477.06,333.25 -674.43,504.83z"/>
    <polygon class="fil4" points="1607.64,1922.15 881.64,2457.72 1133.55,2197.87 "/>
   </g>
   <g>
    <path class="fil5" d="M5701.3 4083.79l516.71 -272.03 32.3 -33.15c3.77,-41.4 6.69,-83.02 8.77,-124.85 -196.38,143.07 -423.82,313.57 -557.78,430.03z"/>
    <path class="fil4" d="M6258.13 3671.83l-573.23 422.88 464.91 -450.63 112 -62.69c-0.79,30.27 -2.01,60.41 -3.68,90.44z"/>
   </g>
   <path class="fil1" d="M2169.32 3399.34c16.82,0 717.4,-515.64 717.4,-515.64l-728.61 397.94 11.21 117.7z"/>
   <path id="_128810016" class="fil1" d="M4402.21 1305.47c0,0 178.7,-10.64 336.91,106.41 0,0 -112.94,10.39 -186.12,-5.92 -73.18,-16.3 -151.9,-98.57 -150.79,-100.49z"/>
   <path id="_128810016_0" class="fil1" d="M3806.59 1831.56c0,0 89.63,-5.33 168.99,53.37 0,0 -56.65,5.21 -93.36,-2.97 -36.71,-8.18 -76.19,-49.44 -75.63,-50.41z"/>
   <path id="_128810160" class="fil1" d="M4145.82 1510.8c0,0 79.99,126.34 54.33,296.45 0,0 -53.36,-78.17 -70.35,-139.42 -16.99,-61.25 14.1,-156.95 16.02,-157.02z"/>
   <path class="fil4" d="M3431.57 1410.3c-29.83,22.88 -1100.73,737.31 -1100.73,737.31l683.35 -622.55 417.38 -114.76z"/>
   <path class="fil1" d="M4789.63 2857.88c0,0 -1120.94,801.48 -1087.32,807.08 33.63,5.61 1092.92,-683.78 1092.92,-683.78l-5.61 -123.31z"/>
   <polygon class="fil1" points="1610.38,2836.94 876.17,3439.45 1627.2,2977.06 "/>
   <polygon class="fil1" points="657.62,4245.86 1033.14,3951.61 621.19,4147.78 "/>
  </g>
 </g>
</svg>
