<?xml version="1.0" encoding="UTF-8"?>
<!DOCTYPE svg PUBLIC "-//W3C//DTD SVG 1.1//EN" "http://www.w3.org/Graphics/SVG/1.1/DTD/svg11.dtd">
<!-- Creator: CorelDRAW -->
<svg xmlns="http://www.w3.org/2000/svg" xml:space="preserve" width="129.436mm" height="197.988mm" style="shape-rendering:geometricPrecision; text-rendering:geometricPrecision; image-rendering:optimizeQuality; fill-rule:evenodd; clip-rule:evenodd"
viewBox="0 0 43.8184 67.0257"
 xmlns:xlink="http://www.w3.org/1999/xlink">
 <defs>
  <style type="text/css">
   <![CDATA[
    .fil0 {fill:none}
    .fil5 {fill:#4B3446}
    .fil1 {fill:#501D33}
    .fil4 {fill:#634C54}
    .fil6 {fill:#896E6B}
    .fil3 {fill:#D77D75}
    .fil2 {fill:#FFCFA5}
   ]]>
  </style>
 </defs>
 <g id="Layer_x0020_1">
  <metadata id="CorelCorpID_0Corel-Layer"/>
  <g id="_33946040">
   <rect id="_172875536" class="fil0" y="3.38533e-005" width="43.8184" height="67.0257"/>
   <g id="_117459384">
    <path id="_118398456" class="fil1" d="M9.16546 19.3201c0.0621209,3.54736 0.215375,11.4971 0.215375,11.7307 0,15.4568 25.052,15.4566 25.052,0 0,-0.224346 0.141473,-8.31567 0.207623,-12.096 0.0277936,-1.58647 -0.373843,-2.49523 -1.64873,-3.54814 -5.59867,-4.6239 -16.054,-4.67285 -21.8814,-0.261619 -1.46528,1.10917 -1.97785,2.29671 -1.94494,4.17517l3.38534e-005 -3.38534e-005z"/>
    <path id="_118367296" class="fil2" d="M31.397 15.3084c-2.64686,-1.74646 -5.97316,-2.61974 -9.49025,-2.61974 -3.37054,0 -6.74105,0.80202 -9.34566,2.40596 -2.27261,1.39957 -2.65735,2.36933 -2.61128,4.91744 0.0706181,3.90045 0.186634,10.4004 0.186634,11.0149 0,3.27298 1.20227,6.18677 3.79493,8.23957 2.235,1.76968 5.14876,2.60305 7.97545,2.60305 2.82669,-3.38534e-005 5.74038,-0.833436 7.97538,-2.60312 2.59256,-2.05283 3.79483,-4.96663 3.79483,-8.2395 0,-0.595515 0.109042,-6.71806 0.179998,-10.6458 0.0509493,-2.81975 0.063949,-3.40727 -2.46006,-5.07272l3.38534e-005 -3.38534e-005z"/>
    <path id="_118368112" class="fil3" d="M10.6822 31.4623c0.0862922,2.97348 1.23768,5.61346 3.61402,7.49497 2.13171,1.68786 4.91077,2.48274 7.60682,2.48274 2.69601,0 5.47504,-0.794911 7.60675,-2.48281 2.37624,-1.88164 3.52766,-4.52166 3.61388,-7.49524 -0.515147,2.04339 -1.62347,3.8451 -3.38666,5.24128 -2.19542,1.7383 -5.05749,2.55698 -7.83404,2.55698 -2.77662,0 -5.63872,-0.818642 -7.83411,-2.55691 -1.76322,-1.39605 -2.87154,-3.19769 -3.38672,-5.24101l6.77067e-005 0z"/>
    <path id="_118371424" class="fil3" d="M22.5036 18.2538c0,0 3.06857,-0.285892 5.08887,1.08639 0,0 -0.648021,-1.25792 -2.61114,-1.67723 -1.96312,-0.419308 -2.47773,0.590843 -2.47773,0.590843z"/>
    <path id="_118371712" class="fil3" d="M31.8282 15.3084c-2.30975,-1.52404 -5.13688,-2.38297 -8.1567,-2.57709 -0.968782,1.17034 -1.57337,2.91169 -1.20768,5.51468 0,0 6.23745,-1.31026 7.81373,2.09654 -0.174751,2.42993 0.0531498,8.23713 3.42098,8.58904 0.0133382,-0.81678 -0.0463453,-1.92037 0.0448219,-2.97642 0.162496,-1.88262 0.514097,-3.86358 0.544938,-5.57406 0.0508816,-2.81968 0.063949,-3.40727 -2.46006,-5.07272l-3.38534e-005 3.38534e-005z"/>
    <path id="_118371568" class="fil3" d="M22.9309 17.3731c-0.467752,-0.66163 -1.19408,-0.159754 -2.20991,-0.353937 -2.15582,-0.412063 -4.6392,0.00369002 -5.2078,2.15866 1.50851,-2.44668 5.57399,-1.68911 6.94485,-0.905781 0.168962,-0.200547 0.353057,-0.991125 0.47283,-0.898942l3.38534e-005 0z"/>
    <path id="_118371760" class="fil3" d="M22.3143 12.6888c-3.36265,0.00375772 -6.72348,0.805676 -9.322,2.40586 -2.27261,1.39957 -2.65735,2.36933 -2.61128,4.91744 0.0422829,2.33473 -0.336672,5.65744 -0.296488,8.03516 1.90811,-0.674088 1.96343,-2.83563 1.96343,-2.83563 2.69496,-1.84247 1.88201,-5.9369 1.88201,-5.9369 2.92375,-3.66104 8.54239,-1.04238 8.54239,-1.04238 0.661596,-1.93678 0.270624,-4.101 -0.158095,-5.54359l3.38534e-005 3.38534e-005z"/>
    <path id="_118371472" class="fil1" d="M12.6502 10.2617c0,0 -1.64361,0.649172 -2.5368,-0.629402 0,0 1.4214,0.686817 3.39055,-0.727678l-0.261314 0.834621 -0.592434 0.522459z"/>
    <path id="_118372960" class="fil1" d="M21.9446 8.62577c0,0 -0.821892,-1.17844 -2.27908,-1.88648 0,0 1.58166,0.171806 2.3479,1.14712 0.766237,0.975315 -0.0688239,0.739357 -0.0688239,0.739357z"/>
    <path id="_118372768" class="fil1" d="M21.911 8.40447c3.08736,-2.69067 5.19077,-0.526352 7.84294,0.682992 1.30447,0.594837 2.72171,0.762276 3.70268,1.90198 0.447,0.519277 0.73191,1.00677 1.04793,1.59446 1.23744,2.30135 3.46804,3.33469 3.59743,6.27665 0.0909301,2.06742 -0.852563,4.18109 -2.57763,5.81103 -0.279663,0.264293 -0.505465,0.508884 -0.701713,0.835806 -0.32005,0.53319 -0.467176,1.12999 -0.503941,1.7359l-0.0606314 0.999893 -0.861602 -0.60496c-0.34632,-0.243169 -0.627608,-0.724259 -0.769013,-1.09218 -0.408644,-1.06333 -0.252208,-2.30142 0.0617147,-3.36618 0.439586,-1.49094 0.049866,-3.44187 -0.609428,-4.83132 -0.393105,-0.828527 -0.943189,-1.62019 -1.66416,-2.23662 -0.883674,-0.755607 -2.29881,-1.20843 -3.44675,-1.46886 -1.61413,-0.366192 -2.78833,1.37214 -4.44793,1.37279 -1.67303,0.000609361 -3.98017,-1.73407 -5.60737,-1.36507 -1.13967,0.258437 -2.57015,0.710751 -3.44773,1.46115 -0.720975,0.616436 -1.27106,1.4081 -1.66416,2.23662 -0.659294,1.38944 -1.04901,3.34038 -0.609428,4.83132 0.313922,1.06476 0.470359,2.30284 0.0617147,3.36618 -0.141406,0.367918 -0.422693,0.849009 -0.769013,1.09218l-0.861602 0.60496 -0.0606314 -0.999893c-0.0367648,-0.605908 -0.183891,-1.20271 -0.503941,-1.7359 -0.196248,-0.326922 -0.42205,-0.571512 -0.701713,-0.835806 -3.06684,-2.89768 -3.854,-7.19486 -0.369036,-10.3014 0.641149,-0.579434 0.944035,-1.10047 1.33805,-1.83323 0.659193,-1.22586 1.25792,-2.33991 3.03668,-2.70729 -0.117776,-0.158637 -0.216391,-0.327023 -0.28667,-0.504347 -0.202172,-0.509798 -0.1801,-0.903986 0.0996982,-1.40431 0.923452,0.427703 1.69829,0.725545 2.77496,0.545547 1.53972,-0.257252 2.92574,-1.21611 4.53469,-1.135 0.973081,0.0490874 1.80645,0.451976 2.42559,1.07298l0 -3.38534e-005z"/>
    <path id="_118372912" class="fil1" d="M26.0945 7.3537c0,0 3.57999,1.56149 6.41098,0.977516 0,0 -1.5234,1.00287 -4.8241,0.393545 -3.3007,-0.609327 -1.58688,-1.37106 -1.58688,-1.37106z"/>
    <path id="_118372696" class="fil4" d="M21.8576 9.3394c-2.82059,-3.65606 -5.71926,1.01279 -9.30561,-0.648224 0,0 -0.190594,0.670872 1.08639,1.58891 0,0 -1.63911,-0.264801 -2.76362,1.04167 -1.12451,1.30644 -0.820504,2.06462 -2.38331,3.47694 -3.1337,2.8319 -2.48585,6.88957 0.276548,9.49966 0.395746,0.37391 1.26452,1.18764 1.3693,2.91498 0,0 1.365,-0.958423 0.499777,-3.89304 -0.626355,-2.1243 0.187175,-5.67521 2.43839,-7.60008 1.71308,-1.46477 5.98148,-1.28446 9.85414,-0.280915 3.43334,0.0560273 6.28312,-1.08138 7.87632,0.280915 2.25121,1.92487 3.06475,5.47582 2.43839,7.60008 -0.865224,2.93461 0.499777,3.89304 0.499777,3.89304 0.104776,-1.72733 0.973555,-2.54103 1.3693,-2.91498 1.46751,-1.3866 2.36693,-3.19501 2.41777,-5.01037 0.0754253,-2.69195 -1.60042,-3.51286 -2.90973,-5.43025 -0.609327,-0.892307 -1.15646,-2.09177 -2.02609,-2.79818 -0.0188902,-0.0153356 -0.0379835,-0.0305696 -0.0571106,-0.0455328 -1.11097,-0.869659 -2.47888,-1.00832 -3.7409,-1.66616 -1.34943,-0.703439 -2.11448,-1.42722 -3.37603,-1.58322 -1.10751,-0.136971 -2.27278,0.210433 -3.56374,1.57476l3.38534e-005 0z"/>
    <path id="_118368736" class="fil5" d="M31.6198 16.558c1.62618,1.99728 2.16838,4.91761 1.62445,6.76224 -0.865224,2.93461 0.499777,3.89304 0.499777,3.89304 0.047327,-0.780286 0.250481,-1.37411 0.495579,-1.8252 -0.124885,-2.65309 2.07183,-4.05306 1.87846,-6.50878 -0.214596,-2.72462 -2.82902,-5.38715 -5.38526,-6.2259 0.608243,0.987164 0.856321,2.36808 0.886992,3.90458l0 3.38534e-005z"/>
    <path id="_118372384" class="fil5" d="M9.70803 25.516c0.214766,0.433831 0.386267,0.988721 0.429261,1.69737 0,0 1.365,-0.958423 0.499777,-3.89304 -0.626355,-2.1243 0.187175,-5.67521 2.43839,-7.60008 0.953717,-0.81546 2.69964,-1.12092 4.72813,-1.05846 -0.576489,-1.28927 -1.72276,-2.36192 -3.74344,-2.9621 0,0 -5.53205,1.08754 -5.45581,7.61162 0.282168,2.31621 1.42865,3.08919 1.10369,6.20471l0 -3.38534e-005z"/>
    <path id="_118372240" class="fil6" d="M21.8576 9.3394c-2.82059,-3.65606 -5.71926,1.01279 -9.30561,-0.648224 0,0 0.414264,-0.0299941 0.709499,0.421204 3.47024,1.33775 5.80402,-3.2179 8.558,0.351804 2.68901,-2.07386 4.66289,-1.15362 6.93977,0.512641 1.14848,0.840477 2.62993,0.796502 3.7409,1.66616 0.0191272,0.0149632 0.0382543,0.0301972 0.0571106,0.0455328 0.869625,0.706384 1.19797,1.95347 1.8073,2.84575 1.28893,1.88756 3.15185,2.6649 3.13073,5.25844 0.0190933,-0.16798 0.0312128,-0.336299 0.0359184,-0.50472 0.0754253,-2.69195 -1.60042,-3.51286 -2.90973,-5.43025 -0.609327,-0.892307 -1.15646,-2.09177 -2.02609,-2.79818 -0.0188902,-0.0153356 -0.0379835,-0.0305696 -0.0571106,-0.0455328 -1.11097,-0.869659 -2.47888,-1.00832 -3.7409,-1.66616 -1.34943,-0.703439 -2.11448,-1.42722 -3.37603,-1.58322 -1.10751,-0.136971 -2.27278,0.210433 -3.56374,1.57476zm-8.96048 0.940176c-0.576286,0.0642198 -1.38257,0.298891 -2.02233,1.04218 -1.12451,1.30644 -0.820504,2.06462 -2.38331,3.47694 -1.4367,1.29834 -2.07799,2.85431 -2.0856,4.41035 0.157147,-1.34212 0.976094,-2.79158 2.21902,-3.9148 2.27498,-1.76924 1.3131,-5.02716 5.68879,-4.76561 -0.315886,-0.227088 -0.827105,-0.372556 -1.41656,-0.249059zm-2.0113 15.4007c0.0823652,-0.582312 0.0475301,-1.35525 -0.248721,-2.36005 -0.146957,-0.498457 -0.214529,-1.07556 -0.202985,-1.69169 -0.0860553,0.850904 -0.0312128,1.6557 0.164866,2.32065 0.200073,0.678591 0.280814,1.25125 0.28684,1.73109z"/>
    <path id="_118371952" class="fil6" d="M21.8576 9.3394c-2.80394,-3.63446 -5.68506,0.956865 -9.24217,-0.620498 1.67168,1.70621 5.14239,0.252885 5.14239,0.252885 2.66832,-0.914853 4.1359,0.400248 4.1359,0.400248 0.00220047,-0.0255254 0.00338534,-0.0504077 0.00504415,-0.0756284 -0.0137106,0.0142861 -0.0273874,0.0284707 -0.0411318,0.0429938l-3.38534e-005 0z"/>
    <path id="_118372432" class="fil1" d="M22.5026 18.2069c0,0 1.28186,-1.23609 3.42694,-1.41141 4.04626,-0.330714 5.45926,2.30308 5.03917,6.20685 0,0 -0.345711,3.44191 2.13259,5.27242 0,0 -1.79281,-2.339 0.922775,-6.10173 2.66673,-3.79286 0.755302,-7.49646 -2.41703,-9.17606 -3.76419,-1.99291 -10.2709,0.921082 -9.10442,5.20997l-3.38534e-005 -3.38534e-005z"/>
    <path id="_118372144" class="fil4" d="M22.619 17.5997c0.099495,-1.18527 -0.106774,-2.20985 0.285892,-2.99365 2.74886,-5.48675 12.0681,-1.61846 11.7671,4.06867 -0.187954,3.55166 -3.47065,4.44864 -2.53992,7.87913 -0.82152,-1.24387 -0.609801,-2.82902 -0.527368,-4.46282 0.0908286,-1.80063 -0.231591,-3.53026 -1.60475,-4.73734 -2.10229,-1.84799 -5.38008,-1.65143 -7.38098,0.246012z"/>
    <path id="_118369960" class="fil6" d="M31.2768 13.0996c2.00967,1.19858 3.51923,3.23205 3.39522,5.57514 -0.125562,2.37278 -1.63227,3.5607 -2.34123,5.11081l-0.0306373 -0.00453635c2.18266,-3.73088 2.64212,-7.58725 -1.02335,-10.6814l0 -3.38534e-005z"/>
    <path id="_118370512" class="fil5" d="M23.59 16.5765c0,0 2.19184,-1.5057 5.29853,-0.362129 3.10669,1.14357 3.2942,5.51942 2.83637,7.92304 4.85329,-8.61531 -4.54468,-12.8719 -8.13486,-7.56088l-3.38534e-005 -3.38534e-005z"/>
    <path id="_118370320" class="fil1" d="M22.4578 18.2824c-1.93435,-3.03065 -5.48438,-3.35016 -7.92115,-1.90215 -3.32552,1.97612 0.290394,7.0569 -4.67484,9.19884 1.75713,-3.32196 -4.18654,-9.93782 4.034,-13.9224 3.34949,-1.62351 9.7475,0.910283 9.36997,5.63916 -0.0299941,0.375468 -0.596259,0.601574 -0.807978,0.986521z"/>
    <path id="_118370152" class="fil1" d="M22.4659 18.2451c-0.292696,-0.755573 -0.780523,-1.56142 -1.71863,-1.99701 -1.99075,-0.924298 -4.40571,-0.512506 -5.4816,1.43931 2.30951,-2.48098 6.10914,-0.822095 7.2002,0.5577l3.38534e-005 0z"/>
    <path id="_118370464" class="fil4" d="M22.5741 17.2662c0.577301,-5.66996 -4.30706,-8.24333 -8.52847,-5.68117 -6.63712,4.02838 -3.06366,8.29834 -3.30622,12.8378 1.29354,-0.999521 1.34171,-3.33266 1.48271,-5.19307 0.438435,-5.78459 7.87456,-5.4965 10.352,-1.96363l3.38534e-005 6.77067e-005z"/>
    <path id="_118370248" class="fil5" d="M22.4216 16.9422c-0.560273,-5.02228 -6.17844,-5.37453 -8.92029,-3.13435 -1.30742,1.06821 -2.11898,2.70367 -2.07592,4.72986 0.0355799,1.67571 -0.0389991,4.23848 -0.734618,5.47551 1.19232,-1.04204 1.24174,-3.29813 1.37885,-5.10739 0.438435,-5.78459 7.87456,-5.4965 10.352,-1.96363l3.38534e-005 0z"/>
    <path id="_118370032" class="fil4" d="M22.3702 16.8052c0,0 -0.5056,-3.43998 -4.77434,-3.68782 0,0 2.12511,-0.352786 3.97384,0.733602 1.04824,0.800497 0.800497,2.95421 0.800497,2.95421z"/>
    <path id="_118368232" class="fil6" d="M14.0456 11.5851c-6.61241,4.01335 -3.09064,8.26652 -3.30416,12.7871 0.145536,-0.308066 0.554958,-1.08087 -0.016622,-5.01301 -0.160736,-1.10585 -0.300618,-2.35454 0.16771,-3.47122 1.1698,-2.78928 3.67295,-5.24077 8.59486,-4.00658 -0.73174,-0.654487 -3.55091,-1.09214 -5.44183,-0.296318l3.38534e-005 0z"/>
    <path id="_118368760" class="fil1" d="M22.4511 18.2841c0,0 2.50092,-1.39645 5.3319,-0.43163 0,0 -1.44723,-1.18064 -4.48134,-0.596666l-0.469715 0.27929 -0.38085 0.749006z"/>
    <path id="_118368160" class="fil1" d="M12.4128 8.63075c0,0 0.932254,1.60766 4.05245,0.789562 0,0 -2.42576,0.504178 -3.70999,-0.970305l-0.513691 -0.180743c0,0 0.17123,0.370999 0.17123,0.361486z"/>
    <path id="_118371112" class="fil4" d="M17.0907 12.4406c0,0 -2.7255,0.514605 -4.44085,3.20199 0,0 0.324011,-1.25792 1.48664,-2.59208 1.16263,-1.33416 2.95421,-0.609902 2.95421,-0.609902z"/>
    <path id="_118371160" class="fil6" d="M11.6397 14.4609c0,0 1.73441,-2.36337 5.62254,-2.43961 0,0 -1.33416,-0.419308 -3.96436,0.285892l-1.01015 0.914853 -0.648021 1.23886z"/>
    <path id="_118371040" class="fil5" d="M8.89514 16.9577c0,0 -1.02921,2.6302 -0.190594,5.90843 0,0 -0.247773,-1.86783 0.476486,-3.98342l-0.0571783 -0.743318 -0.228713 -1.18169z"/>
    <path id="_118370680" class="fil1" d="M9.73376 13.203c0,0 -1.3151,2.30619 -1.75347,4.6505 0,0 -0.114357,-2.15372 1.02921,-4.51709l0.438367 -0.476486 0.285892 0.34307z"/>
    <path id="_118371232" class="fil6" d="M21.8265 9.46225c0,0 -1.7816,-0.757232 -4.94547,0.462572 0,0 2.07748,-1.44852 4.25026,-1.23886l0.556075 0.522425 0.139137 0.253866z"/>
    <path id="_118371016" class="fil6" d="M21.8209 9.46787c0,0 1.40789,-0.722972 3.88122,-0.627844 0,0 -0.665896,-0.523204 -2.9014,-0.123666l-0.466127 0.256845 -0.513691 0.494665z"/>
    <path id="_118370752" class="fil6" d="M27.8996 9.39174c0,0 1.55059,1.06543 2.14989,2.31161 0,0 -0.313922,-1.39838 -1.20813,-2.26405l-0.542229 -0.209281 -0.399537 0.161718z"/>
    <path id="_118368400" class="fil6" d="M21.7984 9.88667c0,0 3.96436,-1.20074 7.26161,1.67723 0,0 -0.419308,-1.52476 -2.74456,-2.17278 -2.32525,-0.648021 -4.51709,0.495546 -4.51709,0.495546l3.38534e-005 0z"/>
    <path id="_118369648" class="fil5" d="M32.8719 21.1127c0,0 1.12451,-4.45991 -1.37228,-6.82325 0,0 1.14357,1.79159 0.933913,4.7458l-0.171535 0.952972 0.609902 1.12451 0 -3.38534e-005z"/>
    <path id="_118371376" class="fil5" d="M23.5996 16.5287c0,0 0.466872,-2.46805 3.97381,-3.30666 0,0 -1.82971,0.800497 -2.53491,2.34431l-0.534917 0.427263 -0.903986 0.535086z"/>
    <path id="_118367344" class="fil6" d="M23.1516 13.4698c0,0 2.40149,-2.28713 6.82325,-0.857675 0,0 -1.71535,-1.25792 -3.77377,-1.04827 -2.05842,0.209654 -3.04951,1.90594 -3.04951,1.90594l3.38534e-005 0z"/>
    <path id="_118366432" class="fil5" d="M22.1033 12.3072c0,0 1.23886,-1.46758 3.62129,-1.3151 0,0 -1.46744,-0.562101 -3.73552,0.352752l0.0379835 0.428685 0.0762378 0.533664z"/>
    <path id="_118370560" class="fil5" d="M22.0842 12.3453c0,0 -0.648021,-1.20074 -3.14481,-1.5057 0,0 1.90594,-0.247773 3.25916,0.495546l0.116997 0.23501 -0.231354 0.77514z"/>
    <path id="_118367056" class="fil5" d="M21.7509 11.1987c0,0 1.1541,-0.955173 2.65999,-0.681197 0,0 -1.10921,-0.00785398 -2.31984,0.976534l-0.215409 -0.0594465 -0.12475 -0.23589z"/>
    <path id="_118371856" class="fil5" d="M19.0002 10.1309c1.24255,-0.225091 2.16543,-0.0175699 3.01633,0.405089 -0.761227,-0.939532 -1.92443,-0.972269 -3.01633,-0.405089z"/>
    <path id="_118369480" class="fil6" d="M28.0614 13.0922c0,0 1.86451,0.0095128 2.92043,0.894203 -0.649815,-1.03009 -1.81806,-1.11053 -2.92043,-0.894203z"/>
   </g>
  </g>
 </g>
</svg>
