<?xml version="1.0" encoding="UTF-8"?>
<!DOCTYPE svg PUBLIC "-//W3C//DTD SVG 1.1//EN" "http://www.w3.org/Graphics/SVG/1.1/DTD/svg11.dtd">
<!-- Creator: CorelDRAW -->
<svg xmlns="http://www.w3.org/2000/svg" xml:space="preserve" width="129.436mm" height="197.988mm" style="shape-rendering:geometricPrecision; text-rendering:geometricPrecision; image-rendering:optimizeQuality; fill-rule:evenodd; clip-rule:evenodd"
viewBox="0 0 16.6909 25.5307"
 xmlns:xlink="http://www.w3.org/1999/xlink">
 <defs>
  <style type="text/css">
   <![CDATA[
    .fil0 {fill:none}
    .fil1 {fill:#501D33}
    .fil3 {fill:#D77D75}
    .fil2 {fill:#FFCFA5}
    .fil4 {fill:white}
   ]]>
  </style>
 </defs>
 <g id="Layer_x0020_1">
  <metadata id="CorelCorpID_0Corel-Layer"/>
  <g id="_167464168">
   <rect id="_170924416" class="fil0" width="16.6909" height="25.5307"/>
   <g id="_117042680">
    <path id="_117044936" class="fil1" d="M3.49364 7.35921c0.0236625,1.35123 0.0820386,4.37938 0.0820386,4.46832 0,5.88763 9.54257,5.88761 9.54257,0 0,-0.0854558 0.0538886,-3.16751 0.0790857,-4.60751 0.0105869,-0.604303 -0.142401,-0.950459 -0.628017,-1.35152 -0.195632,-0.161576 -0.407047,-0.308296 -0.631099,-0.440458 -0.188978,-0.111504 -0.308348,-0.0868743 -0.520472,-0.074985 0.0601428,-0.175335 0.0810715,-0.16173 -0.0912328,-0.237102 -2.20447,-0.964889 -5.25312,-0.739134 -7.09202,0.652892 -0.558126,0.422495 -0.753383,0.874842 -0.740849,1.59037z"/>
    <path id="_117045272" class="fil2" d="M11.9619 5.83113c-1.00822,-0.665245 -2.27522,-0.997887 -3.61492,-0.997887 -1.28387,0 -2.56774,0.305498 -3.55985,0.916455 -0.865661,0.533109 -1.01221,0.902502 -0.994664,1.87309 0.0268992,1.48572 0.0710907,3.96159 0.0710907,4.19569 0,1.24671 0.457957,2.35661 1.44553,3.13856 0.851335,0.674091 1.9612,0.99153 3.03793,0.99153 1.07672,-1.28951e-005 2.18657,-0.317465 3.03791,-0.991556 0.987533,-0.781946 1.44549,-1.89184 1.44549,-3.13853 0,-0.226838 0.0415351,-2.55899 0.0685633,-4.05511 0.0194071,-1.07407 0.0243588,-1.29787 -0.937061,-1.93225l-1.28951e-005 0z"/>
    <path id="_117045560" class="fil3" d="M7.72615 7.3378c0,0 1.82936,-1.23414 1.94551,-1.29579 0.116159,-0.0616515 1.31419,-0.548235 1.31419,-0.548235 0,0 -2.31591,1.48829 -3.2597,1.84403z"/>
    <polygon id="_117042968" class="fil4" points="7.63895,7.46339 9.87779,6.55319 11.3779,5.67025 11.2832,5.52849 "/>
    <path id="_117043592" class="fil4" d="M9.82562 5.19955l-0.436074 -0.0702525c-0.728135,-0.0946372 -1.49862,-0.0881251 -2.22104,0.0192008 0.182182,0.0207482 0.296587,0.0837408 0.305408,0.18694 0.0196521,0.229636 -0.490672,0.571279 -1.13962,0.762913 -0.648933,0.191634 -1.19115,0.160802 -1.2108,-0.0688341 -0.00755653,-0.0882412 0.0632505,-0.193065 0.190022,-0.299515 -0.571008,0.311997 -0.996327,0.733473 -1.17331,1.26447 -0.144967,0.434913 -0.2615,3.64042 -0.2615,3.64042 0.00382985,0.00382985 -0.00804654,0.0124567 -0.0325601,0.0249391 -0.0153065,-0.905559 -0.037615,-2.14834 -0.0537081,-3.03704 -0.0175502,-0.970601 0.129003,-1.33999 0.994664,-1.87309 0.99211,-0.610957 2.27597,-0.916455 3.55985,-0.916455 1.3397,0 2.60671,0.332642 3.61492,0.997887 0.96142,0.634387 0.956468,0.858182 0.937061,1.93225 -0.0157578,0.872031 -0.0364673,2.02791 -0.0509743,2.88555 -0.00306903,-0.00292719 -0.00415222,-0.00522252 -0.0026435,-0.00673124 0,0 -0.145689,-3.21281 -0.290656,-3.64771 -0.315208,-0.945636 -1.4177,-1.54363 -2.72904,-1.79492l0 -1.28951e-005zm-4.22945 1.17803c0.236303,-0.0672608 0.440187,-0.0382469 0.455287,0.064785 0.0151131,0.103032 -0.164258,0.241138 -0.400573,0.308399 -0.236303,0.0672608 -0.440187,0.0382469 -0.455287,-0.064785 -0.0151131,-0.103032 0.164271,-0.241138 0.400573,-0.308399z"/>
    <path id="_117044480" class="fil1" d="M11.3063 5.27729c-1.20622,0.746007 -3.74826,2.04377 -3.67673,2.18722 0.978816,-0.477338 2.71267,-1.31041 3.99637,-1.98376 -0.034546,-0.0323925 -0.0864488,-0.0619094 -0.140196,-0.0911168l-0.0372797 -0.000477119 0.00245007 -0.0183755c-0.0553329,-0.029994 -0.109105,-0.0602072 -0.144619,-0.0935024l0 1.28951e-005z"/>
    <path id="_117044960" class="fil3" d="M4.07136 11.9843c0.0328696,1.13263 0.471445,2.13824 1.37662,2.85491 0.811992,0.642924 1.87056,0.945701 2.89752,0.945701 1.02694,0 2.0855,-0.30279 2.8975,-0.945727 0.905133,-0.716736 1.34372,-1.72236 1.37656,-2.85501 -0.196225,0.778348 -0.618397,1.46464 -1.29001,1.99647 -0.83626,0.662138 -1.92644,0.97398 -2.98407,0.97398 -1.05764,0 -2.14785,-0.311829 -2.98408,-0.973954 -0.671628,-0.531781 -1.0938,-1.21805 -1.29004,-1.99637z"/>
    <path id="_117045920" class="fil1" d="M10.2481 5.47741c0,0 0.408465,0.550376 1.02882,0.598204 -0.344673,-0.378407 -0.528235,-0.515817 -1.02882,-0.598204z"/>
    <path id="_117043304" class="fil1" d="M9.61252 5.87354c0,0 -0.0447589,0.533238 0.374474,0.901638 -0.0154096,-0.401773 -0.0632505,-0.579828 -0.374474,-0.901638z"/>
    <path id="_117043664" class="fil1" d="M8.46149 6.56149c0,0 0.239888,0.482922 0.793565,0.581466 -0.223085,-0.338226 -0.357297,-0.466635 -0.793565,-0.581466z"/>
    <path id="_117043976" class="fil3" d="M11.3699 6.26705c0.260404,0.0570866 0.448143,0.23117 0.419387,0.388749 -0.028769,0.157604 -0.263176,0.23914 -0.523567,0.182053 -0.260391,-0.0570866 -0.448131,-0.23117 -0.419362,-0.388762 0.0287561,-0.157591 0.26315,-0.239127 0.523541,-0.18204z"/>
    <path id="_117044552" class="fil3" d="M11.7023 6.98896c0.125585,0.0185303 0.217154,0.0903818 0.204529,0.160441 -0.0126243,0.0700849 -0.12467,0.111891 -0.250255,0.0933605 -0.125585,-0.0185303 -0.217154,-0.0903818 -0.204529,-0.160454 0.0126243,-0.070072 0.12467,-0.111878 0.250255,-0.0933476z"/>
   </g>
  </g>
 </g>
</svg>
