<?xml version="1.0" encoding="UTF-8"?>
<!DOCTYPE svg PUBLIC "-//W3C//DTD SVG 1.1//EN" "http://www.w3.org/Graphics/SVG/1.1/DTD/svg11.dtd">
<!-- Creator: CorelDRAW -->
<svg xmlns="http://www.w3.org/2000/svg" xml:space="preserve" width="129.436mm" height="197.989mm" style="shape-rendering:geometricPrecision; text-rendering:geometricPrecision; image-rendering:optimizeQuality; fill-rule:evenodd; clip-rule:evenodd"
viewBox="0 0 9.33944 14.2858"
 xmlns:xlink="http://www.w3.org/1999/xlink">
 <defs>
  <style type="text/css">
   <![CDATA[
    .fil0 {fill:none}
    .fil7 {fill:#4B3446}
    .fil1 {fill:#501D33}
    .fil5 {fill:#634C54}
    .fil6 {fill:#896E6B}
    .fil3 {fill:#D77D75}
    .fil2 {fill:#FFCFA5}
    .fil4 {fill:white}
   ]]>
  </style>
 </defs>
 <g id="Layer_x0020_1">
  <metadata id="CorelCorpID_0Corel-Layer"/>
  <g id="_166769920">
   <rect id="_166904872" class="fil0" width="9.33944" height="14.2858"/>
   <g id="_164634152">
    <path id="_166337904" class="fil1" d="M1.9765 4.11789c0.0132404,0.756073 0.0459048,2.45048 0.0459048,2.50025 0,3.29444 5.33955,3.29442 5.33955,0 0,-0.0478169 0.0301534,-1.77239 0.0442525,-2.57813 0.0059239,-0.338139 -0.0796804,-0.531831 -0.351408,-0.756246 -1.19329,-0.985532 -3.42171,-0.995966 -4.66375,-0.0557611 -0.312307,0.236408 -0.421557,0.489519 -0.414543,0.889891z"/>
    <path id="_166335144" class="fil2" d="M6.71491 3.26283c-0.564149,-0.372239 -1.2731,-0.558369 -2.02274,-0.558369 -0.718386,0 -1.43677,0.170942 -1.99191,0.512803 -0.484382,0.298302 -0.566385,0.504996 -0.556565,1.0481 0.0150515,0.83133 0.0397789,2.21671 0.0397789,2.3477 0,0.697599 0.25625,1.31865 0.808847,1.75618 0.476365,0.377189 1.0974,0.554812 1.69988,0.554812 0.602477,-7.21547e-006 1.2235,-0.177638 1.69986,-0.554826 0.552575,-0.437539 0.808825,-1.05859 0.808825,-1.75617 0,-0.126927 0.023241,-1.43188 0.0383646,-2.26903 0.0108593,-0.600998 0.01363,-0.726222 -0.524334,-1.08119l0 7.21547e-006z"/>
    <path id="_166336800" class="fil3" d="M2.27336 6.70585c0.0183922,0.633763 0.263798,1.19645 0.770287,1.59747 0.454351,0.359749 1.04667,0.529168 1.62131,0.529168 0.574625,0 1.16694,-0.169426 1.62129,-0.529182 0.506468,-0.40105 0.751881,-0.963741 0.770258,-1.59753 -0.109798,0.435526 -0.346025,0.81954 -0.721828,1.11712 -0.46793,0.3705 -1.07795,0.544992 -1.66974,0.544992 -0.591798,0 -1.20182,-0.174484 -1.66974,-0.544977 -0.37581,-0.297559 -0.612038,-0.681559 -0.721843,-1.11706zm0.873043 -2.32127c0.0272673,0.0913839 0.0718733,0.189269 0.142772,0.286606 0,0 -0.0483003,-0.160667 -0.037975,-0.392204 0.0742183,0.202307 0.118644,0.390804 0.0925456,0.551673 0,0 0.3194,-0.115505 0.467757,-0.700644 0.002612,-0.0103181 0.00502197,-0.0207661 0.00728041,-0.0313729 0.164065,0.250543 0.307559,0.472592 0.325713,0.705658 0,0 0.438686,-0.163618 0.772365,-0.598841 0.0575506,0.129106 0.0963409,0.252931 0.0962327,0.377506 0,0 0.449372,-0.147253 0.760979,-0.613748 0.231443,0.485312 0.237295,0.928717 0.237295,0.928717 0.0209249,-0.0121581 0.299038,-0.162492 0.490854,-0.444819 0.0961894,0.324335 0.34443,0.548607 0.490277,0.65712 0.0540366,0.217445 0.14322,0.379245 0.224372,0.491034 0.00720825,-0.414464 0.0156143,-0.882647 0.0223824,-1.25724 0.0108593,-0.600998 0.01363,-0.726222 -0.524334,-1.08119 -0.564149,-0.372239 -1.2731,-0.558369 -2.02274,-0.558369 -0.718386,0 -1.43677,0.170942 -1.99191,0.512803 -0.484382,0.298302 -0.566385,0.504996 -0.556565,1.0481 0.006999,0.386396 0.0161049,0.892402 0.0238255,1.3366 0.0812823,-0.111811 0.170732,-0.273827 0.224885,-0.491734 0.102561,-0.0763108 0.255774,-0.209869 0.371128,-0.395191 0.0829346,0.127707 0.192227,0.254915 0.339336,0.389772 0,0 -0.0189117,-0.328564 0.0435309,-0.720234l-7.21547e-006 0z"/>
    <ellipse id="_166341072" class="fil4" transform="matrix(1.1604 -0.342664 0.101076 1.18108 3.54607 3.17967)" rx="0.566681" ry="0.197018"/>
    <ellipse id="_166338504" class="fil4" transform="matrix(0.422542 -0.120272 0.0777093 0.529935 3.16829 3.67302)" rx="0.566681" ry="0.197018"/>
    <path id="_166340904" class="fil1" d="M3.11887 4.01031c0.0272673,0.0913839 0.0718877,0.189269 0.14278,0.286606 0,0 -0.0483292,-0.16079 -0.0379678,-0.39242 0.0742255,0.202971 0.118536,0.391627 0.0925384,0.551897 0,0 0.3194,-0.115505 0.467757,-0.700658 0.002612,-0.0103181 0.00502197,-0.0208022 0.00728041,-0.0314089 0.164065,0.250543 0.307559,0.472635 0.325713,0.705702 0,0 0.438686,-0.163661 0.772365,-0.598884 0.0575506,0.129114 0.0963409,0.252974 0.0962327,0.377549 0,0 0.449372,-0.147275 0.760979,-0.613769 0.231443,0.485312 0.237295,0.928732 0.237295,0.928732 0.0209249,-0.0121508 0.299045,-0.162507 0.490854,-0.444834 0.0961894,0.324343 0.34443,0.548628 0.490277,0.657134 0.118658,0.477498 0.406967,0.686877 0.406967,0.686877 0.00715053,-0.794474 0.78868,-1.42524 0.0777467,-2.14522 -0.00338405,-0.295199 -0.192783,-0.565224 -0.686436,-0.684062 -0.195936,-0.510819 -0.879364,-0.73745 -1.03269,-0.782503 -0.218961,-0.242743 -0.543015,-0.359828 -0.921249,-0.262809 0,0 -0.0622911,0.0206723 -0.142361,0.0725227 -0.272564,-0.170256 -0.618308,-0.223564 -0.989984,-0.10396 0,0 -0.135247,0.0472757 -0.266951,0.167926 -0.376323,0.118363 -0.568572,0.295084 -0.645756,0.50618 -0.281497,0.107835 -0.422228,0.29608 -0.471177,0.51385 -0.298583,0.136769 -0.411477,0.347677 -0.410488,0.575924 -0.693464,0.704843 0.0681862,1.34991 0.0753223,2.14214 0,0 0.288323,-0.209386 0.406974,-0.686905 0.102553,-0.0763469 0.255723,-0.209884 0.371077,-0.395213 0.0829346,0.127743 0.192242,0.254959 0.33938,0.389837 0,0 -0.018919,-0.328564 0.0435237,-0.720248l-7.21547e-006 1.44309e-005z"/>
    <path id="_166349520" class="fil5" d="M2.27463 4.66564c-0.0349662,0.162781 -0.096377,0.319725 -0.189435,0.460693 -0.0126415,0.0191499 -0.027592,0.0403778 -0.0440577,0.0621468 -0.0312935,-0.191975 -0.0940753,-0.376373 -0.16032,-0.562843 -0.074745,-0.210439 -0.165227,-0.44777 -0.163769,-0.672525 0.00124106,-0.19266 0.075279,-0.355066 0.187523,-0.494389 0.0247274,0.105432 0.0689582,0.211464 0.126054,0.312805 -0.118153,-0.351653 -0.108672,-0.68482 0.242281,-0.899675 -0.00386749,0.140406 0.0220938,0.287168 0.0666854,0.428592 -0.0496063,-0.372535 0.0320006,-0.690253 0.38545,-0.924128 -0.0133053,0.16965 0.0261922,0.354532 0.0903954,0.544934 -0.0401108,-0.18359 -0.0404571,-0.390011 0.0518071,-0.635935 0.0561796,-0.180055 0.203815,-0.299161 0.374627,-0.380573 -0.063157,0.125571 -0.0979788,0.286642 -0.0673564,0.490241 -0.0121148,-0.539479 0.558023,-0.734614 0.558023,-0.734614 0.281843,-0.0906912 0.563622,-0.0545922 0.80661,0.0628756 -0.0895007,0.0884544 -0.174319,0.215858 -0.205771,0.393871 0.148155,-0.31406 0.515047,-0.420207 0.515047,-0.420207 0.498856,-0.136885 0.991045,0.28416 1.16137,0.738907 -0.0212856,-0.130485 -0.0602131,-0.252246 -0.114185,-0.361401 0.306542,0.123529 0.940486,0.448239 0.897503,1.00828l0.00388192 -0.019121c0.0220505,-0.108766 0.0238616,-0.2087 0.0102171,-0.300582 0.044873,0.0121581 0.0890677,0.028162 0.124113,0.0436103 0.473075,0.208448 0.49882,0.575253 0.367967,0.964766 0.0568002,-0.100836 0.101211,-0.206709 0.126624,-0.311816 0.111876,0.13915 0.185632,0.301282 0.186873,0.493567 0.00145752,0.224755 -0.0890245,0.462086 -0.163769,0.672525 -0.0662452,0.186469 -0.129027,0.370868 -0.16032,0.562843 -0.0164657,-0.0217691 -0.0314162,-0.042997 -0.0440577,-0.0621468 -0.0930579,-0.140969 -0.154469,-0.297912 -0.189435,-0.460693 -0.0116386,-0.0990612 -0.0169347,-0.208664 -0.00104624,-0.318527 -0.033285,0.0869103 -0.0611294,0.175848 -0.0759212,0.262679 -0.0533728,-0.0471892 -0.103491,-0.0981881 -0.143638,-0.144483 -0.140276,-0.161706 -0.237786,-0.350802 -0.264209,-0.55733 0.0422899,-0.0946814 0.0723423,-0.199998 0.0820543,-0.315951 0.0035428,-0.0088173 0.00702787,-0.0176923 0.0104408,-0.0266323 -0.208195,0.469272 -0.569329,0.67505 -0.595283,0.690131 0,0 -0.0301823,-0.376489 -0.248724,-0.779776 0.0530986,-0.0965213 0.0998477,-0.204486 0.136387,-0.325129 -0.197834,0.368941 -0.603985,0.762459 -0.880634,0.877596 -0.0454069,-0.346249 -0.318736,-0.625538 -0.548058,-0.943812 0.0877185,0.231523 0.206572,0.432293 0.301354,0.6189 -0.195106,0.235167 -0.425763,0.430432 -0.619022,0.519088 -0.0970553,-0.432401 -0.491417,-0.683132 -0.781305,-1.13577 0.0749471,0.175949 0.16812,0.333795 0.261546,0.480406 -0.0325345,0.220526 -0.0991045,0.435793 -0.258494,0.602008 -0.0426939,-0.318051 -0.235859,-0.460513 -0.38426,-0.6871 0.0190993,0.0427517 0.0380832,0.0853229 0.0566198,0.127569 -0.0712167,0.23565 -0.108925,0.486027 -0.12521,0.729138 -0.00310265,0.0463233 -0.0057363,0.0940103 -0.00749687,0.142109 -0.163142,-0.179088 -0.315345,-0.3741 -0.430605,-0.586185 0.0304709,0.112273 0.0697736,0.218174 0.12381,0.322041 -0.0443607,0.0883895 -0.101457,0.171656 -0.168286,0.248696 -0.0401469,0.0462944 -0.0902655,0.0972934 -0.143638,0.144483 -0.0147917,-0.0868309 -0.0426362,-0.175769 -0.0759212,-0.262679 0.0158885,0.109863 0.0105923,0.219466 -0.00104624,0.318527l7.21547e-006 0zm-0.114185 0.533043c0.00478386,0.270075 0.00943783,0.5373 0.0133053,0.766052 0.0137166,-0.00698457 0.136942,-0.0148855 0.134799,-0.0170285 0,0 0.00976974,-0.582837 0.0332128,-1.12864 -0.0492095,0.159599 -0.116667,0.285242 -0.181318,0.379627l0 -7.21547e-006zm4.86665 -0.268769c0.0467562,0.514506 0.0836922,1.02701 0.0836922,1.02701 -0.00084421,0.00084421 0.098217,7.21547e-005 0.0999342,0.00171007 0.0034995,-0.206954 0.00764118,-0.444964 0.0119272,-0.687858 -0.0636404,-0.079868 -0.136618,-0.192494 -0.195554,-0.340866z"/>
    <path id="_166327512" class="fil6" d="M2.03882 5.1746c-0.0320078,-0.186996 -0.0933465,-0.366986 -0.157997,-0.54896 -0.074745,-0.210439 -0.165227,-0.44777 -0.163769,-0.672525 0.00124106,-0.19266 0.075279,-0.355066 0.187523,-0.494389 0.000793702,0.00337684 0.00161626,0.00676089 0.00245326,0.0101377 -0.0396779,0.0652062 -0.181787,0.342987 -0.0512659,0.801574 0.139814,0.491236 0.181231,0.761001 0.183056,0.904156l0 7.21547e-006z"/>
    <path id="_166333128" class="fil7" d="M2.1516 5.21145c0.00458904,0.120231 0.00921415,0.235931 0.011083,0.343918l8.65856e-005 0.00476942 0.000367989 0.0209537 2.16464e-005 0.00124106 0.000339127 0.0196189c0.0525575,-0.0723062 0.112597,-0.165638 0.160241,-0.281475 0.00476221,-0.1583 0.010751,-0.331673 0.0180387,-0.501461 -0.0514752,0.166923 -0.122879,0.296707 -0.190178,0.392435zm-0.0499743 -0.162052c0,0 0.111667,-0.159649 0.176916,-0.420142 0.00869464,-0.0892121 0.011083,-0.185589 -0.0028934,-0.282175 -0.0489209,-0.127757 -0.10956,-0.251142 -0.157737,-0.356942 -0.0333066,-0.0731504 -0.0630415,-0.146373 -0.0873793,-0.218816 -0.0379389,-0.0673997 -0.0701921,-0.136885 -0.0948185,-0.206875 0.0313223,0.139569 0.234438,0.9447 0.165912,1.48495zm5.14655 -0.010282c0,0 -0.113305,-0.137188 -0.188179,-0.335678 -0.0147051,-0.108571 -0.0237605,-0.232266 -0.00582288,-0.3563 0.0489209,-0.127779 0.109574,-0.251185 0.157759,-0.357 0.0333282,-0.0731937 0.0630776,-0.14646 0.0874226,-0.218953 0.00818956,-0.0145536 0.0161482,-0.0292371 0.023811,-0.0439855 -0.0592679,0.317307 -0.14555,0.899848 -0.0749904,1.31191l0 7.21547e-006zm-0.638042 -1.23493c0.00150803,0.187083 0.0590803,0.482037 0.350109,0.745466 0,0 0.0649969,-0.365608 0.215302,-0.649969 0,0 -0.150305,0.142181 -0.268112,0.308735 0,0 -0.22093,-0.189067 -0.261481,-0.556053l-0.00030305 -0.00163791c-0.00784321,0.0535532 -0.0199363,0.104725 -0.0355145,0.153459zm-2.03042 -0.751462c0,0 0.483408,0.454979 0.528093,0.889638 0,0 0.63372,-0.345296 0.759652,-0.881521 -0.00554148,0.0032181 -0.0110325,0.00633518 -0.0165162,0.00947391 -0.0405004,0.0617428 -0.177039,0.234835 -0.539111,0.440115 0,0 0.123132,-0.114307 0.222756,-0.296635 -0.317372,0.0993281 -0.573969,0.0243233 -0.954873,-0.161078l0 7.21547e-006zm1.54297 1.09611c0.0803298,-0.197127 0.224307,-0.692418 0.0169419,-1.37641 0,0 0.0451616,0.353269 -0.0341147,0.701495 -0.0590297,-0.199991 -0.144627,-0.3237 -0.144627,-0.3237l-0.00579402 0.000772055c-0.0365103,0.120469 -0.0831366,0.228384 -0.13617,0.32479 0.218549,0.403287 0.248688,0.779761 0.248688,0.779761 0.00362217,-0.00210692 0.0137888,-0.00795866 0.0291577,-0.0176923 0.00995735,-0.0299875 0.0185077,-0.0596575 0.025918,-0.0890172zm-1.79077 -0.0358464c0,0 0.288424,-0.560599 -0.0649969,-1.46649 0,0 0.178936,0.249518 0.297609,0.675332 0.000108232,-0.0663318 -0.00335519,-0.121429 -0.00678254,-0.159397 0.0833603,0.199089 0.186188,0.375551 0.270162,0.540872 -0.178085,0.214667 -0.385818,0.396043 -0.567699,0.493459 0.0323758,-0.0323902 0.0613531,-0.0667287 0.0873865,-0.102452l-0.0156792 0.0186808zm-0.91091 -0.00116891c0.00375926,0.01845 0.00701344,0.0374916 0.00966151,0.0572331 0.188151,-0.196203 0.246964,-0.460708 0.273113,-0.721597 -0.0888513,-0.102871 -0.1789,-0.212662 -0.26125,-0.33785l-0.000252541 -7.21547e-006c0,0 0.143855,0.483415 -0.0212712,1.00222zm-0.40434 -0.159375c0,0 -0.183735,-0.265998 -0.22842,-0.696603 0,0 0.047283,0.12482 0.122338,0.25081 -0.024179,-0.150839 -0.0446205,-0.294276 -0.0464171,-0.425135 0.055155,0.192422 0.126292,0.356697 0.238854,0.528028 -0.0340354,0.112597 -0.0604079,0.228543 -0.0804597,0.345469 -0.00248212,-0.00716496 -0.00483436,-0.0143011 -0.00724433,-0.0214588l0.00134929 0.0188901zm-0.353111 0.264187c-0.0443607,0.0883823 -0.101486,0.171649 -0.168308,0.248681 -0.0401469,0.0463017 -0.0902655,0.0973006 -0.143638,0.14449 -0.00164513,-0.0096543 -0.00344178,-0.0193447 -0.00539717,-0.0290495 0.161554,-0.44614 0.0584309,-1.03559 0.0584309,-1.03559 0.00904098,-0.00434371 0.0178944,-0.00827614 0.0265674,-0.0118767 0.0171512,0.0363443 0.0352043,0.0717939 0.0539934,0.106075 0.035897,0.213174 0.0852291,0.398272 0.178352,0.577274zm4.36352 0.713213c0.0120931,0.133097 0.0235513,0.266078 0.0338622,0.390068 0.0475283,0.115714 0.108463,0.210021 0.160963,0.282341 0.00194818,-0.10961 0.00186159,-0.219639 0.00229452,-0.329545 -0.0640156,-0.0799979 -0.1377,-0.193259 -0.197119,-0.342865z"/>
    <path id="_166353360" class="fil6" d="M2.17447 4.1123c-0.0197271,-0.0426434 -0.038978,-0.0835623 -0.0565548,-0.122165 -0.194911,-0.428087 -0.268127,-0.859066 0.154952,-1.11817 -0.0012122,0.0441731 0.000483436,0.0889812 0.00482715,0.134042 -0.0389924,0.0816358 -0.108614,0.275833 -0.0541088,0.542307 0,0 -0.0875814,-0.157167 -0.0965718,-0.356596 -0.154801,0.366322 0.0478386,0.808327 0.0474561,0.920571l0 7.21547e-006zm3.72116 -2.03784c0.308021,0.124157 0.946626,0.451486 0.896572,1.01674 -0.000865856,-0.00338405 -0.00177501,-0.00653721 -0.002612,-0.0100367 -0.10588,-0.441659 -0.59239,-0.739109 -0.833971,-0.86222 -0.0172017,-0.0502052 -0.0372462,-0.0984551 -0.0599966,-0.144475l7.21547e-006 -7.21547e-006zm-1.04722 -0.377557c0,0 -0.314183,0.0908788 -0.478472,0.35332 0.275046,-0.220678 0.603422,-0.296383 0.917519,-0.10378 0.186275,0.114214 0.350953,0.335411 0.493509,0.669357 0.00105346,-0.00103903 0.000966873,-0.310446 -0.185062,-0.600666 0.172558,0.113535 0.318274,0.267138 0.418584,0.433462 -0.16579,-0.459611 -0.662539,-0.889862 -1.16608,-0.751693l7.21547e-006 0zm2.11705 1.15278c0,0 0.238717,0.356386 0.310438,0.878656 0.0764335,-0.375875 0.0501619,-0.644796 -0.310438,-0.878656zm0.434739 0.711445c0,0 0.100302,0.299998 -0.0703147,0.763101 0,0 0.105923,-0.121739 0.165011,-0.279549 -0.00583731,0.0761088 -0.0192581,0.160963 -0.0431413,0.255175 -0.110794,0.437019 -0.196167,0.662979 -0.164924,0.886153l0.00187602 0.00248212c0.0312935,-0.191982 0.0940753,-0.376366 0.16032,-0.562843 0.074745,-0.210432 0.165227,-0.44777 0.163769,-0.672518 -0.00123385,-0.192263 -0.075012,-0.354366 -0.186873,-0.493509 -0.00753295,0.031142 -0.0166966,0.0623489 -0.0273899,0.0934692 0.00225844,0.0035933 0.00455296,0.00734535 0.00689077,0.0112994 -0.00333355,-0.00220793 -0.005224,-0.00326139 -0.005224,-0.00326139zm-0.752191 -0.276201c0,0 -0.0394181,0.46402 -0.411621,0.794733 0,0 0.21321,-0.474735 0.153437,-1.07977 0,0 0.115556,0.222215 0.10259,0.431247l0.120679 -0.1058 0.0349157 -0.0404066zm-2.42708 0.797295c0.0215237,-0.0512154 0.158906,-0.405639 0.0500537,-0.871066 0,0 0.00269859,0.186693 -0.077992,0.401072 -0.183287,-0.257801 -0.611612,-0.471625 -0.913204,-1.03072 0.314616,0.939974 0.799719,0.992935 0.938386,1.53962 0.000678254,-0.0131249 0.00161626,-0.0260695 0.00275631,-0.0388914l0 -7.21547e-006zm-0.488393 -2.42184c0,0 -0.467202,0.159844 -0.546795,0.590297 0.135384,-0.336097 0.510235,-0.464366 0.510235,-0.464366 0.0173893,-0.0055992 0.0347713,-0.0105562 0.0521534,-0.015203 -0.220974,0.149519 -0.27742,0.456977 -0.27742,0.456977 0.323671,-0.521924 0.973655,-0.399131 0.978887,-0.398135l3.60773e-005 -5.77237e-005c-0.000490652,-0.000505083 -0.00352836,-0.00360052 -0.00905541,-0.00857919 0.00388914,0.00161626 0.00775663,0.00329747 0.0116313,0.00494981 0.0272095,-0.0390501 0.0568074,-0.0732298 0.086932,-0.103008 -0.242981,-0.117461 -0.524774,-0.153574 -0.80661,-0.0628756l7.21547e-006 0zm-0.490616 0.244323c-0.170819,0.0814193 -0.318498,0.200561 -0.374678,0.380616 -0.0928775,0.247548 -0.0918746,0.45508 -0.0509773,0.639579 0.000108232,-0.00347786 0.000367989,-0.00669595 0.000411282,-0.010282 0.00575073,-0.48291 0.239287,-0.760366 0.375385,-0.881341 0.0130889,-0.046482 0.0300885,-0.0892481 0.0498589,-0.128565l0 -7.21547e-006zm-0.352115 1.08303c0,0 0.0446854,0.377795 0.357483,0.637782 0,0 -0.186866,-0.381857 -0.154368,-0.877451 0,0 -0.0883606,0.184543 -0.0721403,0.354857l-0.101377 -0.0831294 -0.0295979 -0.0320511 0 -7.21547e-006zm-0.197545 0.940385c0,0 -0.182479,-0.519052 -0.0831294,-0.979298 0,0 -0.0681429,0.112684 -0.108831,0.328794 -0.0543974,-0.477505 0.132555,-0.742291 0.222273,-0.839491 0.000122663,-0.020795 0.000858641,-0.0414024 0.00245326,-0.0617716 -0.36542,0.241812 -0.440252,0.573204 -0.37993,0.962183 0.0679409,0.437957 0.32847,0.816474 0.625228,1.14224 0.000505083,-0.013731 0.00106067,-0.0274476 0.00169564,-0.0410849 -0.119416,-0.185387 -0.21194,-0.356502 -0.2825,-0.514008 0.00220072,0.00190488 0.00319645,0.00273466 0.00274188,0.00243161z"/>
   </g>
  </g>
 </g>
</svg>
