<?xml version="1.0" encoding="UTF-8"?>
<!DOCTYPE svg PUBLIC "-//W3C//DTD SVG 1.1//EN" "http://www.w3.org/Graphics/SVG/1.1/DTD/svg11.dtd">
<!-- Creator: CorelDRAW -->
<svg xmlns="http://www.w3.org/2000/svg" xml:space="preserve" width="129.436mm" height="197.987mm" style="shape-rendering:geometricPrecision; text-rendering:geometricPrecision; image-rendering:optimizeQuality; fill-rule:evenodd; clip-rule:evenodd"
viewBox="0 0 85.2391 130.383"
 xmlns:xlink="http://www.w3.org/1999/xlink">
 <defs>
  <style type="text/css">
   <![CDATA[
    .fil6 {fill:none}
    .fil3 {fill:#4B3446}
    .fil0 {fill:#501D33}
    .fil4 {fill:#634C54}
    .fil5 {fill:#896E6B}
    .fil2 {fill:#D77D75}
    .fil1 {fill:#FFCFA5}
   ]]>
  </style>
 </defs>
 <g id="Layer_x0020_1">
  <metadata id="CorelCorpID_0Corel-Layer"/>
  <g id="_88441240">
   <g id="_200679480">
    <path id="_122665584" class="fil0" d="M17.8418 37.5828c0.120843,6.90055 0.418965,22.3651 0.418965,22.8193 0,30.0676 48.7329,30.0673 48.7329,0 0,-0.436417 0.275205,-16.1763 0.403885,-23.5301 0.0540664,-3.08613 -0.727229,-4.85393 -3.20724,-6.90206 -10.8909,-8.99471 -31.2294,-9.08994 -42.5652,-0.508922 -2.85037,2.15765 -3.84747,4.46769 -3.78346,8.12181l0.000131709 -6.58543e-005z"/>
    <path id="_200692176" class="fil1" d="M61.0883 29.7791c-5.14882,-3.39736 -11.6193,-5.09614 -18.4611,-5.09614 -6.55659,0 -13.1132,1.56015 -18.1798,4.68027 -4.42087,2.72255 -5.16924,4.60901 -5.07961,9.56574 0.137372,7.58741 0.363055,20.2315 0.363055,21.427 0,6.3668 2.33875,12.0349 7.38214,16.0282 4.3477,3.44254 10.0157,5.06361 15.5144,5.06361 5.49864,-6.58543e-005 11.1666,-1.62127 15.5142,-5.0638 5.04319,-3.99334 7.38194,-9.66142 7.38194,-16.0281 0,-1.15844 0.212117,-13.0685 0.350147,-20.7091 0.0991108,-5.48514 0.124399,-6.62804 -4.78544,-9.86774z"/>
    <path id="_200987672" class="fil2" d="M32.4717 33.766c0,0 -5.1535,-0.333684 -8.60156,3.78175 0,0 1.89088,-3.89298 6.59946,-5.00519 4.70858,-1.11228 2.0021,1.22351 2.0021,1.22351l0 -6.58543e-005z"/>
    <path id="_200674728" class="fil2" d="M42.7047 36.472c0,0 7.71134,-1.94626 14.3482,-0.333223 0,0 -4.37497,-2.37286 -10.6778,-1.89088 -6.30285,0.481988 -3.67046,2.2241 -3.67046,2.2241l6.58543e-005 0z"/>
    <path id="_200988296" class="fil2" d="M61.0883 29.7791c-4.67368,-3.08389 -10.4365,-4.76792 -16.5773,-5.05248 -1.11353,-0.00724398 -2.24017,-0.0130392 -3.33513,-0.0177807 -6.06505,0.213368 -12.0359,1.76463 -16.7285,4.65439 -4.42087,2.72255 -5.16924,4.60901 -5.07961,9.56574 0.070991,3.91945 0.165624,9.18806 0.240434,13.531l2.22278 -5.68033c0,0 -2.23654,-13.6301 7.85708,-13.9269 0,0 6.54961,2.98663 13.0066,3.58037 0,0 10.4461,-3.13506 15.7156,-2.02179 0,0 5.19518,0.296871 5.2694,11.7263l0.04702 0.753308 1.9157 5.81092c0.0710568,-4.13019 0.161014,-9.1498 0.231544,-13.0549 0.0991108,-5.48514 0.124399,-6.62804 -4.78544,-9.86774l-0.000131709 0z"/>
    <path id="_200677200" class="fil2" d="M20.7921 61.2028c0.167863,5.78418 2.40763,10.9197 7.03021,14.5798 4.14678,3.28337 9.55276,4.82956 14.7973,4.82956 5.24444,0 10.6504,-1.54633 14.7972,-4.82969 4.62245,-3.66032 6.86222,-8.79583 7.02995,-14.5803 -1.00211,3.97497 -3.15811,7.47974 -6.58794,10.1957 -4.27072,3.38149 -9.83818,4.97398 -15.2394,4.97398 -5.40124,0 -10.9688,-1.59249 -15.2395,-4.97391 -3.42996,-2.7157 -5.5859,-6.22034 -6.58807,-10.1952l0.000131709 6.58543e-005z"/>
    <polygon id="_122663712" class="fil1" points="36.4165,40.3654 36.4165,37.8072 37.64,40.2542 "/>
    <path id="_200994560" class="fil0" d="M25.2345 25.6614c0,0 0.694829,-4.02179 -1.01896,-7.3502 0,0 2.59532,1.78827 2.80895,5.38728l-0.0756666 2.36318 -1.71432 -0.400263z"/>
    <path id="_200993552" class="fil0" d="M42.7972 36.0266c0,0 3.99479,-1.92038 13.3751,-2.77155 0,0 -3.29963,-1.13039 -11.308,0.389726l-1.37194 0.277642 -0.695158 2.10418z"/>
    <path id="_200994344" class="fil0" d="M67.0067 52.5404c0,0 0.407836,-8.2308 7.93413,-10.7149 0,0 -3.33684,-0.481988 -6.7477,1.74257 -3.41099,2.22456 -1.18643,8.97232 -1.18643,8.97232z"/>
    <path id="_200993144" class="fil0" d="M62.4847 34.5424c0,0 2.95409,3.65274 1.78551,12.0392l1.29048 5.88468 1.55719 0c0,0 1.54929,-13.548 9.56468,-17.6299 0,0 -2.07553,-3.70681 -6.30213,-3.63266 -4.2266,0.074152 -8.41473,2.00388 -7.89567,3.33862l-6.58543e-005 6.58543e-005z"/>
    <path id="_200993024" class="fil3" d="M63.765 34.0921c0,0 2.81501,4.52907 1.38795,12.6275l1.03813 4.70858 0.259532 0c0,0 0.963976,-12.3832 8.82395,-16.9436 0,0 -2.36391,-2.84741 -6.2312,-2.16272 -3.86743,0.684687 -5.27829,1.77016 -5.27829,1.77016l-6.58543e-005 6.58543e-005z"/>
    <path id="_200994080" class="fil4" d="M66.3444 51.4282l0.106157 0c0,0 0.963976,-12.3832 8.82395,-16.9436 0,0 -0.135397,-0.16266 -0.39348,-0.400658 -10.1032,2.05116 -8.74895,15.6316 -8.53663,17.3443z"/>
    <path id="_200994800" class="fil0" d="M51.8056 31.7781c0,0 6.33993,-2.44702 11.308,3.55929 0,0 -0.529864,-1.15166 0.0832399,-1.22285 1.53362,-0.178004 5.33697,-0.207968 7.88224,-2.69621 0.779123,-0.761737 1.35383,-1.7726 1.85933,-3.06973 2.81758,-7.22962 -20.4655,0.0185051 -21.1329,3.4295z"/>
    <path id="_200994824" class="fil3" d="M54.8327 30.192c0,0 5.36693,-0.110899 8.95691,3.97872 0,0 5.81224,-0.0198222 8.1851,-6.17437l-3.26262 -1.11228c0,0 -10.1958,-0.519064 -13.8795,3.30799l6.58543e-005 -6.58543e-005z"/>
    <path id="_200993312" class="fil4" d="M64.1947 34.1443c1.35897,-0.135594 5.78497,-0.973327 7.78003,-6.14796l-0.290022 -0.0988474c-0.443266,0.130128 -0.905168,0.294764 -1.38663,0.500625 0,0 -1.21172,3.66809 -6.10338,5.74619z"/>
    <path id="_200994320" class="fil0" d="M42.8241 36.0276c3.12729,-2.90075 23.2355,-9.46998 34.3412,-6.21454 0,0 -0.259532,-7.52649 -8.56442,-8.60156 -8.26623,-1.07013 -23.5305,4.83555 -26.003,14.5795 -0.0114587,0.0453736 0.237141,0.190978 0.226144,0.236615l6.58543e-005 0z"/>
    <path id="_200993792" class="fil0" d="M67.5636 22.1119c0,0 3.49489,-1.00309 7.22343,-0.975171 0,0 -3.91833,-0.958576 -6.61487,-0.38696 -2.6966,0.57155 -0.634704,1.36101 -0.60856,1.36213z"/>
    <path id="_200993984" class="fil4" d="M67.4703 21.7741c0,0 6.58063,0.735066 8.43443,6.59301 0,0 -13.718,-2.96608 -31.7739,5.74671l2.7807 -4.7828c0,0 9.71391,-5.1535 20.5587,-7.55698l6.58543e-005 6.58543e-005z"/>
    <path id="_200992664" class="fil5" d="M70.1587 22.5055c2.04326,0.81363 4.67849,2.48811 5.74599,5.86156 0,0 -11.6244,-2.513 -27.5564,3.88396 12.3014,-6.13657 24.6191,-5.8179 24.6191,-5.8179 -1.24089,-2.45294 -2.3695,-3.55818 -2.80882,-3.92762l6.58543e-005 0z"/>
    <path id="_200994608" class="fil3" d="M67.4703 21.7741c0,0 1.24768,0.139414 2.80954,0.78044 -1.30629,1.0212 -4.23687,2.80526 -9.80676,3.98985 -6.21474,1.3217 -11.8527,4.62653 -14.7479,6.82547 -0.527559,0.238195 -1.05894,0.485676 -1.59433,0.744022l2.7807 -4.7828c0,0 9.71391,-5.1535 20.5587,-7.55698l6.58543e-005 0z"/>
    <path id="_200994968" class="fil0" d="M61.4946 15.1881c0,0 4.92235,-0.314586 8.93782,-2.64622 0,0 -2.64616,2.79427 -7.9016,3.68251l-1.4619 -0.0555152 0.425617 -0.980769 6.58543e-005 0z"/>
    <path id="_200997728" class="fil0" d="M42.7892 35.9715c3.57642,-4.86677 6.52636,-7.86749 10.6969,-9.43218 7.99992,-3.00151 17.2454,-1.40033 19.9869,-13.2071 0,0 -3.2804,2.22542 -14.2702,2.26289 -10.5301,0.0359565 -23.0734,7.22962 -17.5466,18.9587 0.241159,0.511754 0.822586,0.888441 1.13296,1.41758l6.58543e-005 6.58543e-005z"/>
    <path id="_200993072" class="fil0" d="M17.3077 48.4108c0,0 -2.26164,-7.48928 -8.00835,-10.0105 0,0 2.37286,-0.148304 5.3018,1.59427 2.929,1.74257 2.70655,8.41618 2.70655,8.41618z"/>
    <path id="_200993960" class="fil0" d="M22.0628 35.7452c0,0 -0.009944,0.0118538 -0.0278564,0.0359565 -0.0767203,0.121106 -0.152716,0.245505 -0.227856,0.373328 -0.521961,0.988276 -1.59565,3.92116 -0.789593,10.4272l-1.29048 5.88468 -1.55719 0c0,0 -1.7535,-13.5663 -9.76896,-17.6482 1.21093,-1.94889 3.28159,-4.33776 8.0902,-3.56983 -0.663153,-1.29213 -1.52499,-2.22706 -2.09371,-2.67296 0,0 2.22989,-2.14448 5.70733,-1.31676 3.4775,0.827723 4.71352,5.38623 4.71352,5.38623 0,0 -1.45867,1.06704 -2.74981,3.0833 -0.00204148,0.00559762 -0.00355613,0.0114587 -0.00572933,0.0170563l0.000131709 6.58543e-005z"/>
    <path id="_200993408" class="fil0" d="M20.1626 28.1305c0,0 -0.037076,-2.15041 -2.29871,-3.18854 0,0 1.92795,-0.148304 3.04023,1.11228 1.11228,1.26058 -0.111228,2.66947 -0.74152,2.07626z"/>
    <path id="_200993000" class="fil0" d="M28.5962 28.33c0,0 -1.59367,-7.21105 -10.0099,-7.98965 3.25788,3.72064 -0.222324,9.89573 5.28264,13.013 0,0 3.13295,-2.79881 6.06189,-2.65051l-0.451234 -0.89766 -0.883502 -1.4752 6.58543e-005 0z"/>
    <path id="_200992976" class="fil4" d="M59.8881 16.5029c0,0 6.56238,0.259532 12.1978,-1.66842 0,0 -1.96503,6.63654 -11.8641,9.60262 -9.89922,2.96608 -14.2,5.63548 -17.7593,10.6407 0,0 -3.22561,-4.96818 -2.29871,-8.30496 0.9269,-3.33684 12.8282,-8.78694 12.8282,-8.78694l6.89607 -1.48304z"/>
    <path id="_200994584" class="fil5" d="M65.8125 16.202c1.96378,-0.237998 4.18234,-0.652221 6.27342,-1.3676 0,0 -1.96503,6.63654 -11.8641,9.60262 -0.286796,0.0859399 -0.568323,0.171485 -0.845767,0.256964 8.39893,-3.56865 10.5428,-8.18747 10.5428,-8.18747 -2.48403,0.37076 -4.11603,-0.240368 -4.11603,-0.240368 0.00256832,-0.0217978 0.006783,-0.0426078 0.00974644,-0.0641421z"/>
    <path id="_200993048" class="fil3" d="M59.8881 16.5029c0,0 2.63055,0.103918 5.9907,-0.308989 -4.13025,6.84918 -13.2133,7.80999 -18.1969,10.2022 -5.45478,2.6183 -5.23819,8.44595 -5.22791,8.66834 -0.17998,-0.281264 -3.18952,-5.05399 -2.29022,-8.29152 0.9269,-3.33684 12.8282,-8.78694 12.8282,-8.78694l6.89607 -1.48304z"/>
    <path id="_200986592" class="fil4" d="M18.8823 50.6125c0,0 -1.29766,-11.6788 -8.63871,-16.165 0,0 3.16799,-4.17312 8.86893,-0.64669 -0.866972,-1.77662 -2.02614,-3.97523 -2.90747,-4.9963 0,0 4.16483,-3.04023 7.069,3.69759 -1.07178,1.02417 -1.91254,2.07244 -2.54343,3.18531 -0.527098,1.36615 -1.70181,5.24464 -0.550806,10.439l-0.970561 4.49693 -0.327098 -0.0107343 0.000131709 -0.000131709z"/>
    <path id="_200994392" class="fil5" d="M18.6871 49.3529c-0.569179,-3.13967 -2.57589,-11.3197 -8.44338,-14.9054 0,0 3.0945,-4.07467 8.66966,-0.766544 0.0332564,0.0283174 0.0666446,0.0563055 0.0998352,0.0849521 0,0 -2.6324,-0.630292 -6.45116,0.593216 0,0 5.75422,4.05472 6.12505,14.9937l0 6.58543e-005z"/>
    <path id="_200997992" class="fil5" d="M16.3805 28.6927c0.716429,-0.42239 3.50299,-1.72012 5.89772,1.92611 -0.68179,-0.538491 -2.57168,-1.75482 -5.89772,-1.92611z"/>
    <path id="_200997872" class="fil3" d="M22.4505 30.8913c0.282252,0.4621 0.558379,0.995191 0.823706,1.6108 -1.07178,1.02417 -1.91254,2.07244 -2.54343,3.18531 -0.527098,1.36615 -1.70181,5.24464 -0.550806,10.439l-0.158116 0.732564c-4.89844,-11.0052 2.4023,-15.9479 2.4023,-15.9479l0.0263417 -0.0198222z"/>
    <path id="_200989160" class="fil4" d="M20.5232 21.589c0,0 5.29219,1.47626 6.96061,8.4094l-0.0212709 0.213895c0,0 -2.36865,0.777213 -3.46045,1.94303 0,0 -1.99855,-1.01778 -2.40566,-3.96008 -0.407111,-2.94231 -0.0555152,-4.40421 -1.07329,-6.60624l6.58543e-005 0z"/>
    <path id="_200994512" class="fil5" d="M20.5232 21.589c0,0 2.82265,0.787947 4.99499,3.91366 -0.00862692,0.00684885 -0.0162002,0.014027 -0.0250246,0.02081 0,0 -2.09107,-1.92453 -3.49746,-2.29463 0.663219,3.15087 -0.173065,5.78728 0.721698,7.71655 0.0160026,0.0346394 0.0264076,0.0642738 0.0331906,0.090879 -0.488968,-0.62667 -0.975237,-1.54784 -1.15416,-2.84102 -0.407111,-2.94231 -0.0555152,-4.40421 -1.07329,-6.60624l6.58543e-005 0z"/>
    <path id="_200997680" class="fil3" d="M25.3108 25.2138c0.885609,1.19407 1.68475,2.75548 2.17306,4.78458l-0.0212709 0.213895c0,0 -2.36865,0.777213 -3.46045,1.94303 0,0 -0.751793,-0.383206 -1.42706,-1.35792 2.47382,-1.89865 2.76463,-4.36285 2.73572,-5.58359z"/>
    <path id="_200994920" class="fil0" d="M40.0796 13.661c0,0 7.1203,-1.05716 11.0874,-4.17154 0,0 -1.63227,3.4293 -7.08237,4.83819 -5.4501,1.40889 -4.00506,-0.666643 -4.00506,-0.666643z"/>
    <path id="_200990432" class="fil0" d="M38.1979 31.8329c0,0 -4.57991,-0.815672 -8.54098,1.44596 0,0 3.8343,-0.918273 7.58899,0.119855l0.456832 -0.416463 0.495159 -1.14936z"/>
    <path id="_200998352" class="fil0" d="M36.3276 32.5546c-2.43661,-0.017188 -4.95277,-0.613631 -6.8933,-1.83951 -3.12769,-1.97589 -4.77898,-6.6067 -2.38729,-9.74499 1.65531,-2.17207 4.86749,-3.64444 5.64385,-7.52636 0,0 1.33658,1.72466 0.520908,4.24583 5.2476,-7.95092 20.6782,-1.8783 29.5741,-9.99781 0,0 1.03872,4.24905 -0.890812,7.73709 -1.62798,2.94303 -5.95093,5.43516 -10.7392,6.94829 -5.83647,1.84432 -9.82165,5.91438 -9.29198,11.9548 0.0597957,0.682646 0.798813,0.949685 0.957917,1.69094 -2.4725,-0.387882 -4.42442,-1.34442 -6.49416,-3.46835l-6.58543e-005 6.58543e-005z"/>
    <path id="_200993600" class="fil4" d="M29.6714 29.5906c-2.80006,-2.20375 -3.30865,-5.94632 -0.969376,-8.60808 1.1755,-1.33737 2.81751,-2.40875 3.66446,-4.16779 0.236746,1.06888 -1.38788,3.55297 -0.573657,5.66248 0.147909,-2.74415 3.23793,-5.54533 5.64167,-6.60815 7.71589,-3.41132 17.1234,-0.214092 24.604,-6.18813 0.598813,9.79754 -10.7036,10.3843 -15.9825,13.9113 -4.0611,2.71313 -4.85485,6.06294 -3.96423,11.4857 0,0 -6.67361,-1.40889 -6.67361,-9.60262 0,0 -0.664536,3.07171 0.464273,6.21751 0,0 -4.36054,-0.418175 -6.21099,-2.10214l-6.58543e-005 0z"/>
    <path id="_200991416" class="fil3" d="M35.6921 31.6716c-1.02963,-1.4569 -4.37391,-7.14111 2.74883,-11.2158 -3.51952,2.80783 -3.81935,7.7232 -2.55851,11.237 0,0 -0.06783,-0.00645372 -0.190319,-0.0211392z"/>
    <path id="_200993216" class="fil5" d="M29.6714 29.5906c-2.80006,-2.20375 -3.30865,-5.94632 -0.969376,-8.60808 1.13237,-1.28831 2.69733,-2.32973 3.56779,-3.97681 -0.856501,3.47474 -3.96832,4.52913 -3.8131,8.39333 0.127757,3.18057 4.48079,5.93868 7.41823,6.27243l0.00744154 0.0212051c0,0 -4.36054,-0.418175 -6.21099,-2.10214l0 6.58543e-005z"/>
    <path id="_200993456" class="fil5" d="M31.7644 22.4002c0.0069147,0.0193612 0.0141587,0.0387223 0.0214685,0.0580835l-0.032532 0.0401711 0.0110635 -0.0982547zm0.0305564 0.0468224c0.168851,-2.73447 3.24464,-5.51892 5.63957,-6.57786 7.71589,-3.41132 17.1234,-0.214092 24.604,-6.18813 0.00335857,0.0552518 0.00434639,0.108726 0.00698056,0.163385 -0.644977,1.20006 -3.02792,4.47935 -10.211,5.65142 -8.83554,1.44181 -15.261,0.96279 -20.0395,6.95119z"/>
    <path id="_200994056" class="fil0" d="M62.1045 9.34124c0,0 -1.8538,3.81883 -8.08257,5.63548 0,0 6.71069,-1.22351 8.78694,-4.5232l-0.148304 -1.26058 -0.55614 0.148304 6.58543e-005 0z"/>
    <path id="_200992928" class="fil5" d="M31.8877 22.3919c0,0 4.26374,-3.96713 13.7181,-4.70858 0,0 -6.19162,-0.18538 -11.1227,1.37181l-1.72275 1.14889c0,0 -1.02048,1.87342 -0.87257,2.18794l-6.58543e-005 -6.58543e-005z"/>
    <path id="_200997704" class="fil0" d="M42.3431 35.1829c0,0 -0.481988,-5.63548 4.48619,-8.49034 0,0 -3.04023,2.03918 -3.37392,8.04542l-0.669212 0.712873 -0.443068 -0.267961z"/>
    <path id="_200988152" class="fil5" d="M29.9598 23.6153c0,0 -1.59427,4.7828 3.8559,7.67466l1.97563 0.367401c0,0 -6.31016,-3.73802 -5.83147,-8.04207l-6.58543e-005 0z"/>
    <path id="_200997152" class="fil5" d="M36.1524 28.0194c-0.142706,-0.158577 -1.38669,-5.38517 3.46018,-7.53097 0,0 -2.97668,2.67428 -3.28146,7.63515l-0.0779057 0.0808691 -0.100823 -0.185117 0 6.58543e-005z"/>
    <path id="_200993720" class="fil3" d="M41.4162 34.2561c-1.59256,-16.5209 15.2241,-11.4361 18.8715,-20.2062 -5.38175,6.60282 -27.561,3.98465 -18.8715,20.2062z"/>
    <path id="_200995016" class="fil3" d="M41.4533 34.2561c0,0 -3.7076,-3.26269 -3.22561,-8.26795 0,0 0.18538,2.7807 2.33579,5.26472l0.205663 0.922619c0,0 0.703193,2.10958 0.684161,2.08054l0 6.58543e-005z"/>
    <path id="_200993264" class="fil3" d="M45.3768 20.61c0,0 5.38491,-2.07257 8.84536,-4.42271 0,0 -2.77576,2.70174 -6.16212,4.40421 -3.38643,1.70247 -2.68323,0.0185051 -2.68323,0.0185051z"/>
    <path id="_200991608" class="fil3" d="M38.6039 24.9217c1.20257,-3.84826 6.09508,-5.80111 9.30798,-6.4582 0,0 -8.95639,0.277576 -9.30798,6.4582z"/>
    <path id="_200997944" class="fil4" d="M51.5568 24.9683c0,0 6.39511,-2.39104 9.76903,-7.06255 0,0 -2.0021,4.48619 -5.85794,6.82192 -3.8559,2.33579 -3.91109,0.240632 -3.91109,0.240632z"/>
    <path id="_200706696" class="fil0" d="M61.1404 16.3856c0,0 -2.96608,4.48619 -9.34302,6.89607 0,0 3.48514,-1.92795 5.3018,-4.44912l2.0021 -1.14936 2.03918 -1.29766 -6.58543e-005 6.58543e-005z"/>
    <path id="_200682048" class="fil5" d="M74.0798 26.878c-0.18538,0 -2.11333,-1.00105 -8.52735,-1.03813 0,0 4.48613,-0.74152 7.8229,-0.481988l0.593216 0.519064 0.111228 1.00105z"/>
    <path id="_200681616" class="fil4" d="M56.4798 27.6234c0,0 4.40421,-2.35014 8.29027,-3.40493 0,0 -2.64622,1.23984 -5.82903,3.20138l-1.42489 0.351596 -1.03628 -0.148041 -6.58543e-005 0z"/>
    <path id="_200685408" class="fil0" d="M66.1457 51.7929c0,0 -1.14936,-7.52636 1.40889,-12.4945 0,0 -1.22351,3.52222 -0.667368,11.5306l-0.0446492 0.628777 -0.696871 0.335199z"/>
    <path id="_200682408" class="fil0" d="M57.8407 31.29c0,0 5.70792,-1.16852 10.1121,-1.4461 0,0 -5.718,-0.388606 -10.9919,0.333091l-0.240566 0.518142 1.12038 0.594862 6.58543e-005 0z"/>
    <path id="_200695920" class="fil4" d="M74.738 34.3592c0,0 -4.22666,0.593216 -7.04431,2.7807 0,0 2.32084,-2.90609 6.46709,-3.63793 0.400131,0.283503 0.697858,0.553835 0.88449,0.739017l-0.307276 0.118209z"/>
    <path id="_200683272" class="fil3" d="M18.939 43.9618c0,0 -0.889824,-6.11747 -2.85485,-8.45333 0,0 2.26164,1.29766 3.15146,3.52222 0.889824,2.22456 -0.296608,4.93111 -0.296608,4.93111z"/>
   </g>
   <rect id="_167466112" class="fil6" y="6.58543e-005" width="85.2392" height="130.383"/>
  </g>
 </g>
</svg>
