<?xml version="1.0" encoding="UTF-8"?>
<!DOCTYPE svg PUBLIC "-//W3C//DTD SVG 1.1//EN" "http://www.w3.org/Graphics/SVG/1.1/DTD/svg11.dtd">
<!-- Creator: CorelDRAW -->
<svg xmlns="http://www.w3.org/2000/svg" xml:space="preserve" width="129.436mm" height="197.989mm" style="shape-rendering:geometricPrecision; text-rendering:geometricPrecision; image-rendering:optimizeQuality; fill-rule:evenodd; clip-rule:evenodd"
viewBox="0 0 36.3558 55.6108"
 xmlns:xlink="http://www.w3.org/1999/xlink">
 <defs>
  <style type="text/css">
   <![CDATA[
    .fil0 {fill:none}
    .fil7 {fill:#4B3446}
    .fil1 {fill:#501D33}
    .fil6 {fill:#634C54}
    .fil8 {fill:#896E6B}
    .fil3 {fill:#D77D75}
    .fil2 {fill:#FFCFA5}
    .fil5 {fill:#501D33;fill-rule:nonzero}
    .fil4 {fill:#D77D75;fill-rule:nonzero}
   ]]>
  </style>
 </defs>
 <g id="Layer_x0020_1">
  <metadata id="CorelCorpID_0Corel-Layer"/>
  <g id="_220166200">
   <rect id="_170801456" class="fil0" width="36.3558" height="55.6108"/>
   <path id="_170801432" class="fil1" d="M7.60982 16.0297c0.0515412,2.94321 0.178695,9.53909 0.178695,9.73281 0,12.8244 20.7855,12.8243 20.7855,0 0,-0.186138 0.117379,-6.89942 0.172263,-10.036 0.0230601,-1.31628 -0.310174,-2.07027 -1.36794,-2.94386 -4.64517,-3.83638 -13.3199,-3.87702 -18.1548,-0.217063 -1.21573,0.920271 -1.64101,1.90556 -1.6137,3.4641l-2.80879e-005 0z"/>
   <path id="_170801672" class="fil2" d="M26.0552 12.7012c-2.19608,-1.44902 -4.95588,-2.17358 -7.87395,-2.17358 -2.79651,0 -5.593,0.66543 -7.75399,1.9962 -1.88557,1.16121 -2.20478,1.96581 -2.16656,4.07993 0.0585913,3.23614 0.154848,8.62907 0.154848,9.13898 0,2.71553 0.997512,5.13311 3.14862,6.83633 1.85436,1.46829 4.27185,2.15973 6.61716,2.15973 2.34528,-2.80879e-005 4.76272,-0.691495 6.61708,-2.15979 2.15102,-1.70322 3.14854,-4.1208 3.14854,-6.83628 0,-0.494094 0.090471,-5.57392 0.149343,-8.83276 0.0422722,-2.33952 0.053058,-2.82699 -2.04109,-4.20877z"/>
   <path id="_170806064" class="fil3" d="M26.0552 12.7012c-2.19608,-1.44902 -4.95588,-2.17358 -7.87395,-2.17358 -2.79651,0 -5.593,0.66543 -7.75399,1.9962 -1.88557,1.16121 -2.20478,1.96581 -2.16656,4.07993 0.0439294,2.4262 0.0873252,5.01877 0.117154,6.90296 1.03403,-0.254167 0.614647,-1.38355 0.614647,-1.38355 0.913586,-0.604647 1.01936,-1.93421 0.178414,-2.75151 0,0 0.787387,-0.909373 0.061372,-2.03213 0,0 0.804633,-0.126592 0.897548,-1.01215 0,0 0.54541,-0.0676917 0.491313,-0.730678 0,0 1.06548,0.0587036 1.37459,-1.0249 0,0 0.417049,0.609254 1.65477,0.498475 0,0 0.450333,0.980547 2.57187,1.05961 0.669895,1.70204 2.97636,1.48419 3.54615,0.142096 0,0 1.6489,0.363401 1.98862,-1.19379 0,0 1.07641,0.174145 1.45534,-0.458562 0,0 0.658576,0.434997 1.21458,0.0235938 0,0 0.0689557,1.4076 1.55559,1.42341 0,0 -0.365901,1.17014 0.822188,1.55733 0,0 -0.772163,1.44751 0.41056,2.32497 -0.422413,0.180998 -0.482746,0.786516 -0.238972,1.13837 0,0 -0.510722,0.893615 0.340987,1.43127 0,0 -0.287367,0.97552 0.668632,1.09989 0.0283687,-1.79642 0.0663154,-4.27475 0.110273,-6.7085 0.0422441,-2.33952 0.053058,-2.82699 -2.04109,-4.20877l-2.80879e-005 0z"/>
   <path id="_170806256" class="fil4" d="M23.2873 13.9207c0.00235938,0.00365142 0.854854,1.26994 -0.411768,2.06457l-0.183526 -0.26529c0.92336,-0.579284 0.26911,-1.5823 0.267368,-1.585l0.327926 -0.214282z"/>
   <path id="_170806352" class="fil5" d="M7.18372 13.9651c-0.000758372,-0.00193806 -0.265009,-0.69745 -1.4365,-0.313798l-0.12134 -0.373288c1.52368,-0.499009 1.9207,0.539793 1.92186,0.542714l-0.364019 0.144372z"/>
   <path id="_170806544" class="fil5" d="M28.6701 10.0965c-0.0020785,2.80879e-005 -1.27491,-0.294389 -1.33628,0.936786l-0.391966 -0.0203918c0.0797976,-1.60135 1.71283,-1.2132 1.71594,-1.21323l0.0123025 0.296833z"/>
   <path id="_170806736" class="fil5" d="M6.09695 19.7607c0.00132013,-0.0016291 0.563021,-1.18115 1.56489,-0.462944l0.227989 -0.319499c-1.30305,-0.934146 -2.01558,0.585604 -2.01758,0.588047l0.224703 0.194396z"/>
   <path id="_170806928" class="fil5" d="M30.3323 18.1236c-0.00132013,0.0016291 -0.563021,1.18115 -1.56489,0.462944l-0.227989 0.319499c1.30305,0.934146 2.01558,-0.585604 2.01758,-0.588047l-0.224703 -0.194396z"/>
   <path id="_170807120" class="fil5" d="M23.4429 12.9349c0.000646021,0.00429744 0.254701,1.50953 -1.22693,1.71072l-0.0522434 -0.293911c1.08012,-0.146675 0.892548,-1.35375 0.89207,-1.35692l0.387107 -0.0598833z"/>
   <path id="_170807312" class="fil5" d="M25.9817 14.5544c-0.00266835,0.00202233 -0.952853,0.702477 -0.237118,1.61056l0.187009 -0.135355c-0.521788,-0.662003 0.231191,-1.23238 0.233157,-1.2339l-0.183049 -0.241303z"/>
   <path id="_170807504" class="fil5" d="M13.5471 13.1209c0.134541,0.302562 0.201306,0.56892 0.216585,0.797555 0.0169651,0.253942 -0.028762,0.464826 -0.116368,0.630292 -0.0920439,0.174032 -0.229506,0.29731 -0.389775,0.368597 -0.089516,0.0398005 -0.185239,0.0630853 -0.283182,0.0696298 -0.302085,0.0201952 -0.534821,-0.124429 -0.654812,-0.318095 -0.0473561,-0.0763709 -0.0774382,-0.161702 -0.0876622,-0.248887 -0.0106734,-0.0904429 -8.42636e-005,-0.181616 0.0344357,-0.266104 0.0759496,-0.186223 0.261695,-0.339049 0.582458,-0.374636l0.0373007 0.333656c-0.178217,0.0197739 -0.274559,0.0878307 -0.307506,0.168583 -0.0129766,0.0317674 -0.0169651,0.0657818 -0.0130328,0.0992625 0.00432553,0.0367389 0.0180886,0.074489 0.0401376,0.110048 0.0609507,0.0983356 0.183442,0.171533 0.346239,0.160634 0.0595744,-0.00398848 0.116565,-0.017583 0.168555,-0.0406993 0.0933079,-0.0415139 0.174145,-0.114851 0.229478,-0.219422 0.0598552,-0.113082 0.0906957,-0.263155 0.0781685,-0.450445 -0.0128362,-0.192093 -0.0706129,-0.419717 -0.187655,-0.682872l0.306635 -0.137097z"/>
   <path id="_170807768" class="fil5" d="M18.3688 8.02156c-0.00365142,-0.00219085 -1.29196,-0.751322 -0.517884,-1.98893l0.253184 0.144287c-0.564285,0.902238 0.458759,1.51512 0.461427,1.51672l-0.196727 0.327926z"/>
   <path id="_170807888" class="fil1" d="M18.0987 7.28138c0,0 -1.48784,-0.573414 -2.82081,0.494206 -1.43872,-0.741098 -3.02481,0.039969 -3.50183,1.47211 -1.08301,-0.497239 -2.92476,-0.159314 -3.03065,1.50455 -1.04669,-0.0508952 -2.55226,0.828086 -1.78085,2.71992 0,0 -1.33179,0.901368 -0.263268,2.45109 0,0 -1.18649,1.7287 0.332476,2.96324 0,0 -0.642173,1.05338 0.132097,1.87568 0,0 -0.402611,2.35621 0.99108,2.45109 1.39372,0.0948808 0.877324,-2.45117 0.877324,-2.45117 0.913586,-0.604647 1.01936,-1.93421 0.178414,-2.75151 0,0 0.787387,-0.909373 0.061372,-2.03213 0,0 0.804633,-0.126592 0.897548,-1.01215 0,0 0.54541,-0.0676917 0.491313,-0.730678 0,0 1.06548,0.0587036 1.37459,-1.0249 0,0 0.417049,0.609254 1.65477,0.498475 0,0 0.434519,1.40751 2.55605,1.48658 0.669895,1.70204 2.97636,1.48419 3.54615,0.142096 0,0 1.66471,-0.0635628 2.00443,-1.62075 0,0 1.07641,0.174145 1.45534,-0.458562 0,0 0.658576,0.434997 1.21458,0.0235938 0,0 0.0689557,1.4076 1.55559,1.42341 0,0 -0.365901,1.17014 0.822188,1.55733 0,0 -0.772163,1.44751 0.41056,2.32497 -0.422413,0.180998 -0.482746,0.786516 -0.238972,1.13837 0,0 -0.510722,0.893615 0.340987,1.43127 0,0 -0.37163,2.32458 0.944623,2.05575 1.31625,-0.268829 0.675569,-2.29295 0.675569,-2.29295 0,0 0.557488,-0.537658 0.495554,-2.05575 0,0 0.704303,-0.490217 0.580408,-1.80274 0,0 0.588132,-1.07512 -0.311354,-1.80254 0.273154,-0.773427 0.254055,-2.04614 -0.603271,-2.4671 0,0 0.194256,-1.88169 -1.77243,-2.16633 -0.27439,-1.07661 -1.08301,-1.63519 -2.12094,-1.45478 -0.120974,-0.988608 -1.16331,-1.18775 -1.9857,-0.992119 0,0 -0.628943,-0.89752 -2.26405,-0.320061 -0.585829,-0.949257 -1.8197,-1.1311 -2.89889,-0.577515z"/>
   <path id="_170808176" class="fil6" d="M15.3592 8.44313c-2.02721,-1.13014 -3.4484,0.600518 -3.45351,2.38281 0,0 -0.193216,-0.426177 -0.200941,-1.04181 0,0 -2.10757,-0.882071 -2.43277,0.999731 0,0 0.531422,0.121031 0.732363,0.357811 0,0 -2.11058,-0.436879 -2.55967,0.97052 0,0 -0.191868,1.01055 0.426458,1.77614 0,0 -0.378737,-0.0394634 -0.58743,-0.134176 0,0 -1.18629,0.872381 0.0835333,2.23234 0,0 -0.817778,0.514317 -0.593637,1.63508 0.224141,1.12076 1.20573,1.46804 1.20573,1.46804 0,0 -0.486931,0.0315708 -0.60285,0 -0.115947,-0.0315708 -0.473786,0.945128 0.300484,1.75162 0,0 -0.402639,1.75529 0.464573,1.83436 0.867185,0.0790673 0.387135,-2.05575 0.387135,-2.05575l-0.0314865 -0.164791c0,0 0.88884,-0.173639 0.734273,-1.15233 -0.154596,-0.978693 -0.765198,-1.32597 -0.765198,-1.32597l-0.309163 -0.213103c0,0 0.32464,0 0.571953,0.0552488 0,0 0.479207,-0.426205 0.394185,-0.986586 -0.085022,-0.560381 -0.494655,-1.16023 -0.842467,-1.43647 0,0 0.39455,0.0829154 0.653436,0.264588 0,0 1.07015,-0.169875 0.737812,-1.5432 0,0 0.172516,0.144877 0.276469,0.380815 0,0 0.542798,0.0532827 0.349582,-1.09905 0,0 0.216417,0.197317 0.26279,0.441991 0,0 0.780646,0.0631415 1.10526,-0.970801l0.0420475 -0.18465c0,0 -0.173443,-0.438873 -0.111621,-1.02293 0.184987,1.60567 2.14749,2.01724 3.31577,1.26283 0,0 -0.255066,0.457776 -0.772922,0.655093 0,0 0.36326,1.12076 2.11004,1.22337 0,0 -0.154568,-0.331493 -0.0309247,-0.907659 0,0 0.123671,1.81532 1.76998,1.89425 1.64629,0.0789269 1.67721,-1.84689 1.67721,-1.84689 0,0 0.170044,0.394634 0.170044,0.915552 0,0 1.82476,-0.248409 1.62345,-2.17765 0,0 0.208328,0.188694 0.339723,0.599114 0,0 1.24438,0.441991 1.73131,-1.13655 0,0 0.0772978,0.457776 -0.0618214,0.82084 0,0 0.919765,0.505132 1.3294,-0.694557 0,0 0.100498,0.307815 -0.0154483,0.655093 0,0 0.0772978,1.68904 1.9632,1.44436l-0.247342 0.213103c0,0 -0.494655,1.15233 0.966138,1.46804 0,0 -0.989339,1.21547 0.10047,2.35202 0,0 0.409633,0.370956 0.711072,0.536703 0,0 -0.39014,0.0157573 -0.753401,-0.0710623 0,0 -0.675597,0.489543 0.135075,1.12079 0,0 -0.19184,0.0296046 -0.403651,-0.143417 0,0 -0.315146,0.877437 0.558246,1.29575 0,0 -0.510132,1.5075 0.425082,1.70482 0.935242,0.197317 0.386461,-1.78375 0.386461,-1.78375l-0.131395 -0.252566c0,0 0.709724,-0.69641 0.461961,-2.10381 0,0 0.758794,-0.585098 0.557488,-1.67623 0,0 0.619113,-0.647762 -0.0378343,-1.366 0,0 -0.100498,0.378849 -0.757473,0.749805 0,0 1.46119,-1.80327 0.222344,-3.22645 0,0 0.00954987,0.337757 -0.531507,0.99285 0,0 1.25932,-2.49513 -1.17194,-3.14348 0,0 -0.451175,-0.0925214 -0.953555,-0.0372726 0,0 0.200969,-0.197317 0.672423,-0.339386 0,0 -0.239589,-1.19969 -1.85498,-1.04183 0,0 -0.417358,0.0157854 -0.973862,0.481454 0,0 0.154596,-0.370956 0.718796,-0.73402 0,0 0.0463731,-0.994479 -1.42987,-0.82084 0,0 0.0890104,0.2622 0.135468,0.704977 0,0 -0.39646,-1.69946 -2.38286,-0.862831 0,0 0.0832524,0.315708 0.145074,0.812947 -0.603383,-1.78215 -2.27596,-2.3136 -3.43795,-1.10599 0,0 -0.0566813,-0.173218 0.0318797,-0.389494 0,0 -1.48781,-0.326971 -2.5467,0.738542l0 -2.80879e-005z"/>
   <path id="_170808368" class="fil7" d="M28.3819 12.7272c0,0 -0.273492,1.31252 -2.69851,1.12276 0,0 1.14882,0.490386 2.08811,0.205659 0.939286,-0.284727 0.610405,-1.32842 0.610405,-1.32842zm-0.570605 8.78378c0.0623551,-0.318544 0.221136,-0.548584 0.354581,-0.513699 0.133474,0.0349132 0.191138,0.32155 0.128783,0.640094 -0.0623551,0.318516 -0.221136,0.548556 -0.354609,0.513643 -0.133445,-0.0348851 -0.19111,-0.321522 -0.128755,-0.640038zm-20.1012 -0.482802c0.0623551,-0.318544 0.221136,-0.548584 0.354581,-0.513699 0.133474,0.0349132 0.191138,0.32155 0.128783,0.640094 -0.0623551,0.318516 -0.221136,0.548556 -0.354609,0.513643 -0.133445,-0.0348851 -0.19111,-0.321522 -0.128755,-0.640038zm20.1376 -2.01971c0.24942,0 0.451709,0.11134 0.451709,0.248606 0,0.137293 -0.202289,0.248634 -0.451709,0.248634 -0.249392,0 -0.451681,-0.11134 -0.451681,-0.248634 0,-0.137265 0.202289,-0.248606 0.451681,-0.248606zm-20.2819 0.270542c-0.115947,-0.0315708 -0.663211,0.755704 0.111059,1.56219 0,0 -0.402639,1.75529 0.464573,1.83436 0.867185,0.0790673 0.387135,-2.05575 0.387135,-2.05575l-0.0314865 -0.164791c0,0 0.885723,-0.173105 0.735003,-1.14733 -0.66498,0.365676 -1.30373,0.161112 -1.66628,-0.0286777zm19.9141 -1.37274c0.187262,0.291412 0.52235,0.882942 0.795898,1.03335 0,0 -0.39014,0.0157573 -0.753401,-0.0710623 0,0 -0.675597,0.489543 0.135075,1.12079 0,0 -0.19184,0.0296046 -0.403651,-0.143417 0,0 -0.315146,0.877437 0.558246,1.29575 0,0 -0.510132,1.5075 0.425082,1.70482 0.935242,0.197317 0.386461,-1.78375 0.386461,-1.78375l-0.131395 -0.252566c0,0 0.709724,-0.69641 0.461961,-2.10381 0,0 0.616725,-0.514064 0.415419,-1.60519 -0.446709,0.639982 -1.03507,0.758485 -1.8897,0.805082zm-19.3296 -2.78567c0,0 0.511199,0.401095 0.865106,0.389298 0.353907,-0.0117969 0.723543,-0.668491 0.534793,-1.42743 -0.0672704,1.06335 -0.823059,1.00232 -1.3999,1.03813zm2.17611 -1.6935c0.0602485,0.0628606 0.198385,0.224141 0.234337,0.413875 0,0 0.780646,0.0631415 1.10526,-0.970801l0.0420475 -0.18465c0,0 -0.114542,-0.290091 -0.124233,-0.712336 -0.0476932,0.323207 -0.27057,0.97434 -1.2598,1.44324l0.00238747 0.0106734zm1.54671 -1.55764c0,0 0.201278,0.891874 1.24362,1.14444 1.04234,0.252566 1.86183,-0.552488 1.86183,-0.552488 0,0 -1.83307,0.591952 -3.10542,-0.591952l-2.80879e-005 0zm2.98959 1.13281c-0.0970436,0.138923 -0.337111,0.431064 -0.723403,0.578245 0,0 0.36326,1.12076 2.11004,1.22337 0,0 -0.133726,-0.286805 -0.0529737,-0.790392 -1.36468,-0.157489 -1.30249,-1.03905 -1.30249,-1.03905 -0.0100555,0.00946561 -0.0205041,0.0187065 -0.0311775,0.0278351zm1.61761 1.17185c0.133642,1.51194 2.18392,2.11041 2.84176,0.638297 0.407751,-0.912462 0.204789,-2.20894 0.204789,-2.20894 -0.0719049,1.46916 -1.807,3.37948 -3.04658,1.57065l2.80879e-005 0zm3.23597 -1.34965c0,0 2.80879e-005,0.594086 -0.0232287,1.19137 0.0480864,0.136788 0.142574,0.454939 0.142574,0.843282 0,0 1.78372,-0.2431 1.62912,-2.11358 -0.0551365,0.142911 -0.313095,0.72888 -0.880274,0.860303 -0.647201,0.149961 -0.868196,-0.781376 -0.868196,-0.781376zm1.80773 -0.19302c0,0 0.267396,0.184818 0.326381,0.605574 0,0 1.17183,0.235938 1.58865,-1.12857 -0.309416,0.407471 -1.06304,0.781517 -1.91503,0.522996zm1.47189 -2.07064c0,0 -0.237202,1.31252 -2.34039,1.12276 0,0 0.996361,0.490386 1.81099,0.205659 0.814632,-0.284727 0.5294,-1.32842 0.5294,-1.32842z"/>
   <path id="_170808560" class="fil3" d="M8.87253 26.104c0.071596,2.46707 1.02689,4.65747 2.99852,6.21851 1.76866,1.4004 4.07443,2.05991 6.31134,2.05991 2.23686,0 4.54259,-0.659531 6.31126,-2.05996 1.97154,-1.56118 2.92687,-3.75158 2.99841,-6.21876 -0.427413,1.69538 -1.34698,3.19022 -2.80988,4.34868 -1.82153,1.44226 -4.19616,2.1215 -6.49981,2.1215 -2.30374,0 -4.6784,-0.679221 -6.49987,-2.12145 -1.46293,-1.15832 -2.3825,-2.6531 -2.80994,-4.34842l-2.80879e-005 0z"/>
   <path id="_170808752" class="fil5" d="M11.825 9.65248c-0.360143,-0.138501 -0.634617,-0.30304 -0.835558,-0.47887 -0.223214,-0.195323 -0.359244,-0.406796 -0.423396,-0.615349 -0.0674951,-0.219254 -0.0557825,-0.434098 0.017583,-0.624899 0.0409802,-0.106565 0.100695,-0.20462 0.176027,-0.290709 0.232343,-0.265515 0.543304,-0.338037 0.80174,-0.277283 0.101959,0.0239309 0.197036,0.0694613 0.277311,0.132884 0.0833086,0.0657537 0.14968,0.149624 0.190857,0.247707 0.0908081,0.216052 0.063619,0.49502 -0.171392,0.788623l-0.305652 -0.244252c0.13058,-0.163134 0.153921,-0.298602 0.114542,-0.392303 -0.0154764,-0.0368513 -0.0401937,-0.0681973 -0.0710342,-0.0925495 -0.0338178,-0.0267116 -0.0762585,-0.0464854 -0.123727,-0.0576082 -0.131255,-0.0308405 -0.292507,0.00974649 -0.417723,0.152854 -0.0458113,0.0523558 -0.0815671,0.110526 -0.105358,0.172403 -0.0427216,0.111087 -0.0489291,0.238129 -0.00837018,0.369917 0.0438171,0.14249 0.14204,0.29158 0.306663,0.435643 0.168836,0.147742 0.404016,0.287732 0.717252,0.408201l-0.139765 0.365592z"/>
   <path id="_170808920" class="fil8" d="M9.03761 19.0754c0,0 -0.149961,-0.994479 -1.26283,-1.30229 0.231837,0.605771 0.667368,1.04967 1.26283,1.30229zm-0.111396 -7.59302c0.155185,0.189677 -0.00626359,0.578526 -0.360508,0.868336 -0.339077,0.277396 -0.73197,0.363682 -0.901115,0.204227 -0.0996838,0.371968 -0.056569,0.811458 0.182487,1.30272 -0.589115,-0.76163 -0.402415,-1.74552 -0.402415,-1.74552 0.306102,-0.959229 1.38392,-1.06178 2.03935,-1.02979 0.364131,0.0161786 0.585885,0.048283 0.710173,0.194733 -0.48415,-0.0555297 -0.953414,-0.00432553 -1.35605,0.137209 0.0346323,0.0165718 0.0643493,0.0390983 0.0880835,0.068085zm6.40628 -3.05371c-1.862,-1.0176 -3.20682,0.380253 -3.40209,2.00011 -0.0630011,0.548724 0.0589564,0.807835 0.0589564,0.807835 0.00165718,-0.578441 0.167263,-1.1607 0.458731,-1.64457 -0.00837018,0.102184 0.0136226,0.192402 0.0698264,0.261105 0.187992,0.229815 0.68849,0.131451 1.11767,-0.219675 0.429183,-0.35107 0.624758,-0.82216 0.436766,-1.05195 -0.0451372,-0.0551926 -0.108419,-0.0913417 -0.184313,-0.109711 0.389607,-0.0908361 0.823677,-0.0653043 1.28738,0.117885 -0.201558,0.226585 -0.517126,0.656891 -0.676075,1.26707 0.548753,-1.07422 2.16659,-1.95997 3.35866,-1.85492 -0.00558948,-0.0699669 0.00983075,-0.204311 0.0478898,-0.29731 0,0 -1.40302,-0.308124 -2.45381,0.649728 -0.0330875,0.0167404 -0.0640403,0.0334246 -0.0924652,0.0502492 0,0 -0.00969031,0.00814548 -0.027161,0.0241556l2.80879e-005 0zm-3.61275 1.6203c-0.00831401,-0.0834771 -0.0138192,-0.171982 -0.0149989,-0.264925 0,0 -2.10757,-0.882071 -2.43277,0.999731 0,0 0.118278,0.0269363 0.264307,0.0802189 0.373962,-1.24778 1.68842,-0.969593 2.18347,-0.815025zm-3.85806 3.83818c-0.0598833,-0.00682535 -0.388792,-0.0472157 -0.577964,-0.13308 0,0 -1.03268,0.759692 -0.138866,1.96635 -0.426374,-1.31721 0.299894,-1.81136 0.71683,-1.83327zm-0.537293 2.12968c-0.165522,0.125328 -0.743542,0.640712 -0.550775,1.60466 0.0690119,0.345031 0.209873,0.616585 0.371715,0.82744 -0.0708657,-0.145214 -0.128979,-0.309556 -0.16614,-0.495358 -0.224141,-1.12076 0.593637,-1.63508 0.593637,-1.63508 -0.0965661,-0.10342 -0.178695,-0.20403 -0.248437,-0.301664zm19.565 -5.54643c-0.706775,-1.40908 -2.79179,-1.01557 -3.25052,0.295681 0.823929,-0.843422 2.41721,-1.2955 3.25052,-0.295681zm-2.08229 -1.33864c-0.0887857,-0.282199 -0.388006,-0.705061 -1.39279,-0.586868 0,0 0.0687591,0.20271 0.116958,0.552629 0.12839,-0.271104 1.00133,-0.331549 1.27583,0.0342391zm-1.35207 -0.137968c-0.206165,-0.439491 -0.802302,-1.23255 -2.28812,-0.606754 0,0 0.0605855,0.230011 0.116789,0.606642 0.259111,-0.301102 1.30207,-0.638746 2.17133,0.000112351zm-2.36376 -0.307309c-0.705427,-1.3244 -2.10024,-1.65727 -3.13455,-0.674249 -0.0948246,0.0791516 -0.164791,0.166758 -0.215406,0.246022 -0.638437,-0.00822974 -1.28968,0.343065 -1.54688,0.836653 0.856118,-0.634842 2.3104,-0.511789 2.9142,0.139709 -0.237876,-0.61181 -0.691664,-0.899738 -1.17694,-0.962852 0.814969,-0.522603 2.16841,-0.701045 3.15958,0.414717zm-9.73697 3.00358c0.0765675,0.1303 -0.137715,0.363738 -0.478561,0.521255 -0.340846,0.157545 -0.679361,0.179594 -0.755929,0.0492661 -0.0765675,-0.1303 0.137715,-0.363738 0.478589,-0.521255 0.340818,-0.157545 0.679333,-0.179594 0.755901,-0.0492661zm0.874038 -0.502071c0.7775,-0.168808 1.857,-0.109852 2.36573,0.421262 -0.178611,-0.693208 -1.26362,-1.19615 -2.36573,-0.421262zm5.81301 1.34678c0.187992,0.229787 -0.00758372,0.700876 -0.436766,1.05195 -0.429183,0.351126 -0.92968,0.44949 -1.11767,0.219675 -0.187964,-0.229787 0.00761181,-0.700848 0.436794,-1.05197 0.429183,-0.35107 0.92968,-0.449434 1.11764,-0.219647zm7.20782 -0.48387c0,0 0.341268,-1.14444 1.99401,-0.82084 1.65275,0.3236 -1.49885,1.25494 -1.99401,0.82084zm1.56146 2.51712c0.319949,-0.190801 0.935607,-0.300231 1.05102,-0.13353 0.0762305,0.110133 -0.103813,0.552938 -0.487268,0.825502 -0.545242,0.387275 -1.12189,-0.358963 -0.563751,-0.691973z"/>
   <circle id="_170809472" class="fil1" cx="26.1727" cy="20.9618" r="0.341885"/>
   <circle id="_170809808" class="fil1" cx="26.733" cy="21.6011" r="0.165746"/>
   <ellipse id="_170810096" class="fil3" cx="12.285" cy="15.5263" rx="0.477943" ry="0.387416"/>
   <ellipse id="_170810384" class="fil3" cx="11.465" cy="16.064" rx="0.276974" ry="0.224506"/>
  </g>
 </g>
</svg>
