<?xml version="1.0" encoding="UTF-8"?>
<!DOCTYPE svg PUBLIC "-//W3C//DTD SVG 1.1//EN" "http://www.w3.org/Graphics/SVG/1.1/DTD/svg11.dtd">
<!-- Creator: CorelDRAW -->
<svg xmlns="http://www.w3.org/2000/svg" xml:space="preserve" width="129.436mm" height="197.989mm" style="shape-rendering:geometricPrecision; text-rendering:geometricPrecision; image-rendering:optimizeQuality; fill-rule:evenodd; clip-rule:evenodd"
viewBox="0 0 13.231 20.2386"
 xmlns:xlink="http://www.w3.org/1999/xlink">
 <defs>
  <style type="text/css">
   <![CDATA[
    .fil0 {fill:none}
    .fil3 {fill:#4B3446}
    .fil1 {fill:#501D33}
    .fil2 {fill:#634C54}
    .fil4 {fill:#896E6B}
    .fil7 {fill:#D77D75}
    .fil5 {fill:#FFCFA5}
    .fil6 {fill:white}
   ]]>
  </style>
 </defs>
 <g id="Layer_x0020_1">
  <metadata id="CorelCorpID_0Corel-Layer"/>
  <g id="_167464840">
   <rect id="_171472736" class="fil0" width="13.231" height="20.2386"/>
   <g id="_117462504">
    <g>
     <g>
      <path id="_117463392" class="fil1" d="M7.12864 2.79965c0.708185,-0.0783522 1.12088,0.0646853 1.35551,0.336654 0.406992,0.00801411 0.673226,0.187197 0.838088,0.447962 0.475838,0.0165495 0.72265,0.251841 0.818441,0.569687 1.21743,0.606108 0.817061,1.95894 0.646812,2.80458 0,0 -0.255194,-0.11369 -0.647977,-0.742082 -0.1625,-0.0513659 -0.395737,-0.145787 -0.611413,-0.308921 -0.050078,0.208694 -0.135841,0.429276 -0.268881,0.678286 0,0 -0.182669,-0.623956 -0.562357,-1.20469 -0.0237765,0.41196 -0.0138509,0.787049 0.129657,1.04652 0,0 -0.489382,-0.000316884 -0.971864,-0.715525 -0.119772,-0.177537 -0.20298,-0.412103 -0.320237,-0.686576 -0.58966,-1.38013 -0.405786,-2.22591 -0.405786,-2.22591l1.02221e-005 2.04442e-005z"/>
      <path id="_117456576" class="fil2" d="M10.2443 6.07272c0.119619,0.193514 0.0171629,0.436329 0.202775,0.57447 0.637878,-0.680392 0.297422,-1.929 -0.264435,-2.27446 0.014822,0.153955 0.0033324,0.318254 -0.0277325,0.481112 -0.00200353,-0.5183 -0.16296,-0.954783 -0.730132,-1.06683 0.131006,0.327791 0.148629,0.729488 0.106218,1.0826 0.0519281,0.294825 0.0733945,0.559648 0.0351946,0.836616 0.091508,0.0829215 0.194577,0.155427 0.305834,0.217413 0.0727812,0.0405612 0.160548,0.0825433 0.250778,0.118167 -0.0212313,-0.121919 -0.025453,-0.253231 -0.0214255,-0.384064 0.0268432,0.150285 0.0825637,0.290757 0.142925,0.414986l0 -1.02221e-005z"/>
      <path id="_117463320" class="fil2" d="M7.34119 3.00117c0.379627,-0.0299098 0.824094,0.00238174 1.0593,0.31301 0.238512,0.314983 0.359296,0.828039 0.358478,1.23325 0.0259947,-0.439171 0.0186757,-0.862948 -0.130863,-1.18563 0.556122,0.122849 0.748481,0.549457 0.847482,1.07143 0.11185,0.589906 0.0254632,1.17666 -0.208469,1.7288 -0.024165,-0.0605556 -0.0492602,-0.120171 -0.0743349,-0.177823 -0.128389,-0.295101 -0.286136,-0.589671 -0.478455,-0.85246 0.00909765,-0.115724 0.0191971,-0.233043 0.0283152,-0.350341 -0.064808,0.432373 -0.31162,0.715269 -0.21035,1.19492 -0.429552,-0.211965 -0.631908,-0.669955 -0.806225,-1.07796 -0.196356,-0.459595 -0.346038,-0.963615 -0.384534,-1.46527 -0.0100279,-0.130648 -0.01289,-0.26419 -0.00323018,-0.395492 0.000858654,-0.0117758 0.00179909,-0.0240117 0.00288263,-0.0364417l0 1.02221e-005z"/>
      <path id="_117460656" class="fil3" d="M8.57879 4.13088c0,0 -0.672326,-0.10035 -1.10306,-0.752641 0,0 -0.0464389,0.567274 0.312325,0.951859 0.358754,0.384595 0.790739,-0.199218 0.790739,-0.199218z"/>
      <path id="_117463296" class="fil3" d="M10.2011 5.97866c0.151501,0.00234086 0.358539,0.374506 0.535361,0.353459 -0.00396617,-0.852869 -0.0932458,-1.2832 -0.540993,-1.95141 -0.0128492,-0.00798344 -0.0461322,0.513874 -0.0730265,0.6168 -0.0353991,0.135381 -0.0237561,0.272776 -0.0343666,0.39446 -0.0184713,0.211464 0.0379443,0.41195 0.113025,0.586706l0 -1.02221e-005z"/>
      <path id="_117464064" class="fil4" d="M8.62123 3.36034c0.561366,0.120866 0.754962,0.548772 0.854361,1.07288 0.0292556,0.154302 0.0448954,0.30839 0.0479415,0.461711 -0.0570085,-0.0894943 -0.114181,-0.235036 -0.167325,-0.456876 -0.159751,-0.666868 -0.525292,-0.960282 -0.734978,-1.07771z"/>
      <path id="_117457056" class="fil4" d="M7.34119 3.00117c0.379627,-0.0299098 0.824094,0.00238174 1.0593,0.31301 0.157021,0.207375 0.262983,0.500606 0.316864,0.792405 0.00538703,0.0448442 0.00999719,0.0905472 0.0135851,0.137334 0,0 -0.261113,-1.1119 -1.35126,-1.07517 -0.0160895,0.00054177 -0.0317191,0.000858654 -0.0470522,0.00104265 0.000633769,-0.0441798 0.00243285,-0.0882881 0.00567325,-0.132182 0.000858654,-0.0117758 0.00179909,-0.0240117 0.00288263,-0.0364417z"/>
      <path id="_117462528" class="fil4" d="M10.1492 5.04384c0.0366359,-0.599862 -0.0895863,-1.13333 -0.728088,-1.25754 0.213447,0.139736 0.522328,0.437454 0.665621,1.03562 0.0203113,0.0848126 0.041195,0.158268 0.0624671,0.221921z"/>
     </g>
     <g>
      <path id="_117457200" class="fil1" d="M6.10241 2.79965c-0.708185,-0.0783522 -1.12088,0.0646853 -1.35551,0.336654 -0.406992,0.00801411 -0.673226,0.187197 -0.838088,0.447962 -0.475838,0.0165495 -0.72265,0.251841 -0.818441,0.569687 -1.21743,0.606108 -0.817061,1.95894 -0.646812,2.80458 0,0 0.255194,-0.11369 0.647977,-0.742082 0.1625,-0.0513659 0.395737,-0.145787 0.611413,-0.308921 0.050078,0.208694 0.135841,0.429276 0.268881,0.678286 0,0 0.182669,-0.623956 0.562357,-1.20469 0.0237765,0.41196 0.0138509,0.787049 -0.129657,1.04652 0,0 0.489382,-0.000316884 0.971864,-0.715525 0.119772,-0.177537 0.20298,-0.412103 0.320237,-0.686576 0.58966,-1.38013 0.405786,-2.22591 0.405786,-2.22591l-1.02221e-005 2.04442e-005z"/>
      <path id="_117456768" class="fil2" d="M2.98677 6.07272c-0.119619,0.193514 -0.0171629,0.436329 -0.202775,0.57447 -0.637878,-0.680392 -0.297422,-1.929 0.264435,-2.27446 -0.014822,0.153955 -0.0033324,0.318254 0.0277325,0.481112 0.00200353,-0.5183 0.16296,-0.954783 0.730132,-1.06683 -0.131006,0.327791 -0.148629,0.729488 -0.106218,1.0826 -0.0519281,0.294825 -0.0733945,0.559648 -0.0351946,0.836616 -0.091508,0.0829215 -0.194577,0.155427 -0.305834,0.217413 -0.0727812,0.0405612 -0.160548,0.0825433 -0.250778,0.118167 0.0212313,-0.121919 0.025453,-0.253231 0.0214255,-0.384064 -0.0268432,0.150285 -0.0825637,0.290757 -0.142925,0.414986l0 -1.02221e-005z"/>
      <path id="_117460872" class="fil2" d="M5.88988 3.00117c-0.379627,-0.0299098 -0.824094,0.00238174 -1.0593,0.31301 -0.238512,0.314983 -0.359296,0.828039 -0.358478,1.23325 -0.0259947,-0.439171 -0.0186757,-0.862948 0.130863,-1.18563 -0.556122,0.122849 -0.748481,0.549457 -0.847482,1.07143 -0.11185,0.589906 -0.0254632,1.17666 0.208469,1.7288 0.024165,-0.0605556 0.0492602,-0.120171 0.0743349,-0.177823 0.128389,-0.295101 0.286136,-0.589671 0.478455,-0.85246 -0.00909765,-0.115724 -0.0191971,-0.233043 -0.0283152,-0.350341 0.064808,0.432373 0.31162,0.715269 0.21035,1.19492 0.429552,-0.211965 0.631908,-0.669955 0.806225,-1.07796 0.196356,-0.459595 0.346038,-0.963615 0.384534,-1.46527 0.0100279,-0.130648 0.01289,-0.26419 0.00323018,-0.395492 -0.000858654,-0.0117758 -0.00179909,-0.0240117 -0.00288263,-0.0364417l0 1.02221e-005z"/>
      <path id="_117461064" class="fil3" d="M4.65228 4.13088c0,0 0.672326,-0.10035 1.10306,-0.752641 0,0 0.0464389,0.567274 -0.312325,0.951859 -0.358754,0.384595 -0.790739,-0.199218 -0.790739,-0.199218z"/>
      <path id="_117458208" class="fil3" d="M3.02996 5.97866c-0.151501,0.00234086 -0.358539,0.374506 -0.535361,0.353459 0.00396617,-0.852869 0.0932458,-1.2832 0.540993,-1.95141 0.0128492,-0.00798344 0.0461322,0.513874 0.0730265,0.6168 0.0353991,0.135381 0.0237561,0.272776 0.0343666,0.39446 0.0184713,0.211464 -0.0379443,0.41195 -0.113025,0.586706l0 -1.02221e-005z"/>
      <path id="_118366576" class="fil4" d="M4.60984 3.36034c-0.561366,0.120866 -0.754962,0.548772 -0.854361,1.07288 -0.0292556,0.154302 -0.0448954,0.30839 -0.0479415,0.461711 0.0570085,-0.0894943 0.114181,-0.235036 0.167325,-0.456876 0.159751,-0.666868 0.525292,-0.960282 0.734978,-1.07771z"/>
      <path id="_117459840" class="fil4" d="M5.88988 3.00117c-0.379627,-0.0299098 -0.824094,0.00238174 -1.0593,0.31301 -0.157021,0.207375 -0.262983,0.500606 -0.316864,0.792405 -0.00538703,0.0448442 -0.00999719,0.0905472 -0.0135851,0.137334 0,0 0.261113,-1.1119 1.35126,-1.07517 0.0160895,0.00054177 0.0317191,0.000858654 0.0470522,0.00104265 -0.000633769,-0.0441798 -0.00243285,-0.0882881 -0.00567325,-0.132182 -0.000858654,-0.0117758 -0.00179909,-0.0240117 -0.00288263,-0.0364417z"/>
      <path id="_117462936" class="fil4" d="M3.08187 5.04384c-0.0366359,-0.599862 0.0895863,-1.13333 0.728088,-1.25754 -0.213447,0.139736 -0.522328,0.437454 -0.665621,1.03562 -0.0203113,0.0848126 -0.041195,0.158268 -0.0624671,0.221921z"/>
     </g>
    </g>
    <path id="_117457320" class="fil1" d="M2.76787 5.83373c0.0187575,1.07113 0.0650329,3.47158 0.0650329,3.54209 0,4.66719 7.56448,4.66715 7.56448,0 0,-0.0677417 0.0427181,-2.51093 0.062692,-3.65242 0.00839232,-0.479037 -0.112882,-0.753439 -0.497836,-1.07137 -1.69052,-1.39619 -4.84752,-1.41097 -6.6071,-0.0789962 -0.442442,0.334916 -0.597215,0.693496 -0.587279,1.2607l1.02221e-005 -1.02221e-005z"/>
    <path id="_117461304" class="fil5" d="M9.48072 4.62239c-0.799223,-0.527347 -1.80359,-0.791035 -2.86558,-0.791035 -1.01774,0 -2.03547,0.242171 -2.82193,0.726483 -0.686218,0.422601 -0.802392,0.715423 -0.78848,1.48482 0.0213233,1.17775 0.0563543,3.1404 0.0563543,3.32597 0,0.988281 0.363027,1.8681 1.14588,2.48795 0.674861,0.534359 1.55467,0.785996 2.4082,0.785996 0.853523,-1.02221e-005 1.73331,-0.251657 2.40816,-0.786016 0.782827,-0.619856 1.14585,-1.49969 1.14585,-2.48794 0,-0.179817 0.0329253,-2.02852 0.0543508,-3.21454 0.0153842,-0.851427 0.0193095,-1.02883 -0.742818,-1.53172l0 3.06662e-005z"/>
    <path id="_117461040" class="fil6" d="M9.48072 4.62239c-0.799223,-0.527347 -1.80359,-0.791035 -2.86558,-0.791035 -1.01774,0 -2.03547,0.242171 -2.82193,0.726483 -0.686218,0.422601 -0.802392,0.715423 -0.78848,1.48482 0.0127572,0.704485 0.0304413,1.68965 0.0425749,2.40749 0.0194322,-0.00989497 0.0288467,-0.0167335 0.0258107,-0.0197695 0,0 0.0923769,-2.54102 0.207293,-2.88579 0.140226,-0.420669 0.477207,-0.754522 0.929453,-1.00177 -0.100084,0.0841992 -0.155958,0.167049 -0.149989,0.236846 0.0155784,0.182035 0.445396,0.206476 0.959812,0.0545654 0.514426,-0.15191 0.918965,-0.422734 0.903386,-0.604769 -0.0069919,-0.0817153 -0.0974777,-0.13163 -0.241619,-0.148128 1.75043,-0.259937 3.85732,0.227595 4.26918,1.46325 0.114917,0.34476 0.230406,2.89157 0.230406,2.89157 -0.00119598,0.00119598 -0.000337329,0.00301551 0.00209553,0.00533592 0.0114998,-0.67987 0.0279165,-1.59614 0.0404079,-2.28741 0.0153842,-0.851427 0.0193095,-1.02883 -0.742818,-1.53172l-1.02221e-005 4.08883e-005zm-5.52382 0.431995c0.18732,-0.0370959 0.348941,-9.19987e-005 0.360911,0.082625 0.0119803,0.082717 -0.130209,0.179868 -0.317539,0.216964 -0.18732,0.0370857 -0.348941,8.17766e-005 -0.360911,-0.0826353 -0.0119803,-0.082717 0.130219,-0.179868 0.317539,-0.216953z"/>
    <path id="_117460848" class="fil7" d="M10.227 6.11044c-0.0145971,0.807115 -0.0348982,1.94213 -0.0463367,2.64051l-0.203675 0.270098c-0.394357,-0.564034 -0.121029,-1.06756 -0.121029,-1.06756 -0.44236,-0.608244 -0.120508,-1.39401 0.371041,-1.84303l0 -1.02221e-005zm-5.06179 -0.41288c0,0 1.06229,0.39169 1.39108,0.39169 0.328803,0 1.97282,-0.714257 1.97282,-0.714257 0,0 -1.75783,0.472331 -2.0234,0.495372 -0.26558,0.0230406 -1.35316,-0.172804 -1.34051,-0.172804l1.02221e-005 0zm0.300723 -0.149682c0,0 0.834489,-0.00575503 0.9726,-0.00575503 0.13811,0 1.27762,-0.276241 1.27762,-0.276241l-2.25021 0.281996 -1.02221e-005 0zm-2.23855 3.9522c0.0260561,0.897846 0.373719,1.69499 1.09126,2.26312 0.643674,0.509652 1.48281,0.749667 2.29689,0.749667 0.814066,0 1.65319,-0.240025 2.29687,-0.749687 0.717508,-0.568163 1.06518,-1.36533 1.09122,-2.2632 -0.155549,0.617005 -0.49021,1.16103 -1.02261,1.58261 -0.662912,0.524883 -1.52712,0.772084 -2.36549,0.772084 -0.838404,0 -1.70261,-0.24719 -2.36551,-0.772063 -0.532407,-0.421548 -0.867067,-0.965557 -1.02263,-1.58254l0 1.02221e-005zm-0.22138 -3.38677c0.0145971,0.807115 0.0348982,1.94213 0.0463367,2.64051l0.203675 0.270098c0.394357,-0.564034 0.121029,-1.06756 0.121029,-1.06756 0.44236,-0.608244 0.120508,-1.39401 -0.371041,-1.84303l0 -1.02221e-005z"/>
    <path id="_117460584" class="fil1" d="M2.36646 6.80615c-0.337666,0.898889 0.543896,1.26495 0.84006,2.03023 0,0 0.205586,-0.338024 0.102906,-0.897161 0.111758,-0.205607 0.26099,-0.594833 0.0905267,-1.00534 -0.249603,-0.601099 -0.615318,-0.964811 -0.615318,-0.964811 -0.449454,0.257116 -0.524117,0.562633 -0.418175,0.837076l0 1.02221e-005zm8.07592 -0.813504c0.449454,0.257116 0.524117,0.562633 0.418175,0.837076 0.337666,0.898889 -0.543896,1.26495 -0.84006,2.03023 0,0 -0.205586,-0.338024 -0.102906,-0.897161 -0.111758,-0.205607 -0.26099,-0.594833 -0.0905267,-1.00534 0.249603,-0.601099 0.615318,-0.964811 0.615318,-0.964811l0 1.02221e-005z"/>
    <path id="_117460392" class="fil2" d="M10.4455 6.24965c-0.04741,0.0552912 -0.093348,0.117482 -0.133204,0.173724 -0.136955,0.193269 -0.25317,0.405234 -0.344218,0.624487 -0.0912116,0.219662 -0.0830544,0.454658 -0.0110194,0.673849 0.0167846,0.0510899 0.0398968,0.10911 0.066791,0.164872 0.0297156,-0.0521633 0.0657075,-0.103182 0.104756,-0.152421 -0.00958831,0.0206282 -0.0184815,0.0414607 -0.0266796,0.0623138 -0.0545859,0.197879 -0.0719634,0.405878 -0.0335795,0.60622 0.00383328,0.0199637 0.00880121,0.0423603 0.0147913,0.0656666 0.0859166,-0.153157 0.194158,-0.290542 0.305793,-0.428673 0.125967,-0.155876 0.272899,-0.329836 0.343523,-0.520447 0.0611893,-0.165127 0.0540135,-0.326166 0.00898521,-0.478802 -0.0430861,0.0577445 -0.0929391,0.112729 -0.147218,0.164064 0.189609,-0.271999 0.250349,-0.565301 -0.0314227,-0.857571 -0.0305947,-0.0317498 -0.0740283,-0.0693057 -0.117298,-0.0972835zm-7.66406 -0.0235619c0.04741,0.0552912 0.093348,0.117482 0.133204,0.173724 0.136955,0.193269 0.25317,0.405234 0.344218,0.624487 0.0912116,0.219662 0.0830544,0.454658 0.0110194,0.673849 -0.0167846,0.0510899 -0.0398968,0.10911 -0.066791,0.164872 -0.0297156,-0.0521633 -0.0657075,-0.103182 -0.104756,-0.152421 0.00958831,0.0206282 0.0184815,0.0414607 0.0266796,0.0623138 0.0545859,0.197879 0.0719634,0.405878 0.0335795,0.60622 -0.00383328,0.0199637 -0.00880121,0.0423603 -0.0147913,0.0656666 -0.0859166,-0.153157 -0.194158,-0.290542 -0.305793,-0.428673 -0.125967,-0.155876 -0.272899,-0.329836 -0.343523,-0.520447 -0.0611893,-0.165127 -0.0540135,-0.326166 -0.00898521,-0.478802 0.0430861,0.0577445 0.0929391,0.112729 0.147218,0.164064 -0.189609,-0.271999 -0.250349,-0.565301 0.0314227,-0.857571 0.0305947,-0.0317498 0.0740283,-0.0693057 0.117298,-0.0972835z"/>
    <path id="_117463608" class="fil4" d="M10.4455 6.24965l-0.000214664 0.000255552c0.0641742,0.108507 0.31436,0.598094 -0.0254632,1.14587 -0.0105901,0.0170709 -0.0194628,0.0334262 -0.0272316,0.0493011l0.0128696 -0.0134625c0.315913,-0.331625 0.519496,-0.709034 0.157338,-1.08468 -0.0305947,-0.0317498 -0.0740283,-0.0693057 -0.117298,-0.0972835zm-7.66406 -0.0235619l0.000214664 0.000255552c-0.0641742,0.108507 -0.31436,0.598094 0.0254632,1.14587 0.0105901,0.0170709 0.0194628,0.0334262 0.0272316,0.0493011l-0.0128696 -0.0134625c-0.315913,-0.331625 -0.519496,-0.709034 -0.157338,-1.08468 0.0305947,-0.0317498 0.0740283,-0.0693057 0.117298,-0.0972835z"/>
    <path id="_118255832" class="fil3" d="M10.3414 6.56396c-0.0350311,0.0408474 -0.0689683,0.0867957 -0.0984182,0.128348 -0.101188,0.142782 -0.187033,0.299384 -0.254305,0.461373 -0.0673839,0.162286 -0.0613631,0.335897 -0.00814699,0.497836 0.0124096,0.0377399 0.0294805,0.0806113 0.0493522,0.121806 0.190795,-0.334875 0.495055,-0.678419 0.311518,-1.20936zm-7.45582 -0.0235619c0.0350311,0.0408474 0.0689683,0.0867957 0.0984182,0.128348 0.101188,0.142782 0.187033,0.299384 0.254305,0.461373 0.0673839,0.162286 0.0613631,0.335897 0.00814699,0.497836 -0.0124096,0.0377399 -0.0294805,0.0806113 -0.0493522,0.121806 -0.190795,-0.334875 -0.495055,-0.678419 -0.311518,-1.20936zm0.226429 1.18765c0.0646853,0.211137 0.0878996,0.435532 0.0466024,0.651075 -0.00383328,0.0199637 -0.00880121,0.0423603 -0.0147913,0.0656666 -0.198012,-0.499185 -0.659467,-0.748276 -0.542833,-1.31155 0.0597276,0.0942578 0.136087,0.186185 0.220511,0.27481 0.0879405,0.0923156 0.199085,0.201406 0.290511,0.320002zm7.00295 0.0235619c-0.0646853,0.211137 -0.0878996,0.435532 -0.0466024,0.651075 0.00383328,0.0199637 0.00880121,0.0423603 0.0147913,0.0656666 0.198012,-0.499185 0.659467,-0.748276 0.542833,-1.31155 -0.0597276,0.0942578 -0.136087,0.186185 -0.220511,0.27481 -0.0879405,0.0923156 -0.199085,0.201406 -0.290511,0.320002z"/>
   </g>
  </g>
 </g>
</svg>
