<?xml version="1.0" encoding="UTF-8"?>
<!DOCTYPE svg PUBLIC "-//W3C//DTD SVG 1.1//EN" "http://www.w3.org/Graphics/SVG/1.1/DTD/svg11.dtd">
<!-- Creator: CorelDRAW -->
<svg xmlns="http://www.w3.org/2000/svg" xml:space="preserve" width="129.436mm" height="197.989mm" style="shape-rendering:geometricPrecision; text-rendering:geometricPrecision; image-rendering:optimizeQuality; fill-rule:evenodd; clip-rule:evenodd"
viewBox="0 0 153.595 234.943"
 xmlns:xlink="http://www.w3.org/1999/xlink">
 <defs>
  <style type="text/css">
   <![CDATA[
    .fil0 {fill:none}
    .fil3 {fill:#4B3446}
    .fil1 {fill:#501D33}
    .fil2 {fill:#634C54}
    .fil8 {fill:#765F71}
    .fil9 {fill:#896E6B}
    .fil6 {fill:#A78689}
    .fil7 {fill:#CDB2B3}
    .fil5 {fill:#D77D75}
    .fil4 {fill:#FFCFA5}
    .fil10 {fill:white}
   ]]>
  </style>
 </defs>
 <g id="Layer_x0020_1">
  <metadata id="CorelCorpID_0Corel-Layer"/>
  <g id="_33946088">
   <rect id="_172874144" class="fil0" width="153.595" height="234.943"/>
   <g id="_117965928">
    <path id="_117965064" class="fil1" d="M83.02 38.4403c0,0 -9.08128,-12.4371 -18.7341,-17.7025 0,0 13.0892,0.861149 21.8831,12.974 8.79411,12.1128 -3.14912,4.72855 -3.14912,4.72855l0.000118665 0z"/>
    <path id="_117963504" class="fil1" d="M84.6354 46.3291c0,0 7.78357,-2.50489 17.337,3.30742 0,0 0.200424,-9.95442 -5.61189,-16.702 -5.81231,-6.74762 -12.6935,-5.47827 -11.7582,-17.9046 -6.43838,6.12594 -5.11551,13.0294 -4.44767,17.7373 1.3415,9.45579 4.48066,13.5618 4.48066,13.5618l0.000118665 0.000118665z"/>
    <path id="_117966456" class="fil1" d="M77.5581 30.31c0,0 -2.38373,-4.35487 0.550129,-9.99334 0,0 -0.962726,3.9882 3.71313,7.88455 4.67574,3.89647 -0.962726,5.22587 -4.26326,2.10879z"/>
    <path id="_117963816" class="fil1" d="M94.0575 34.3383c0,0 -2.531,-1.79967 -2.9824,-5.93821 -0.150467,-1.37936 -0.123648,-3.25711 0.608987,-5.08585 0,0 0.134684,5.20783 5.61189,10.8897l-1.5767 1.54359 -1.66178 -1.40926z"/>
    <path id="_117968568" class="fil2" d="M83.1816 19.2753c-0.414733,5.94581 5.46735,8.99489 9.38221,12.2884 3.60895,3.03615 6.96929,7.59762 7.1372,15.2002 0,0 -6.08251,-2.78019 -12.2513,-2.28002l-1.96734 -1.76727 -3.96802 -11.3039c0,0 -1.65513,-7.19724 1.66724,-12.1375z"/>
    <path id="_117967128" class="fil3" d="M96.132 45.5043c-2.31574,-0.658826 -5.48705,-1.27956 -8.68221,-1.02052l-1.96734 -1.76727 -3.96802 -11.3039c0,0 -1.6015,-6.9649 1.50918,-11.8946 -0.262842,0.952165 -0.549654,3.04695 0.799681,5.77861 4.39403,8.897 10.5131,8.20411 12.3087,20.2076z"/>
    <path id="_117965760" class="fil1" d="M32.1541 67.7218c0.21775,12.4344 0.754944,40.3005 0.754944,41.1187 0,54.1799 87.8134,54.1795 87.8134,0 0,-0.78639 0.495899,-29.1485 0.72777,-42.3997 0.0974236,-5.56098 -1.31041,-8.74641 -5.7792,-12.4371 -19.6246,-16.2079 -56.2731,-16.3795 -76.6994,-0.91704 -5.13616,3.88793 -6.93286,8.05056 -6.81752,14.635l0 0.000118665z"/>
    <path id="_117964704" class="fil4" d="M110.081 53.6596c-9.27791,-6.12179 -20.9373,-9.18286 -33.2656,-9.18286 -11.8146,0 -23.6292,2.81128 -32.7589,8.43349 -7.96607,4.90583 -9.31469,8.3051 -9.15319,17.2369 0.247534,13.6721 0.654198,36.4559 0.654198,38.6099 0,11.4726 4.21425,21.6863 13.3022,28.882 7.83424,6.20319 18.0476,9.12436 27.956,9.12436 9.90826,-0.000118665 20.1214,-2.9214 27.9556,-9.12459 9.08757,-7.1957 13.3018,-17.4094 13.3018,-28.8815 0,-2.08743 0.382219,-23.5485 0.63094,-37.3163 0.17859,-9.88393 0.224157,-11.9434 -8.62312,-17.7812l0.000118665 -0.000118665z"/>
    <path id="_117964104" class="fil5" d="M71.2434 44.6867c-9.89734,0.746163 -19.4949,3.48708 -27.1865,8.22369 -7.96607,4.90583 -9.31469,8.3051 -9.15319,17.2369 0.096237,5.31867 0.216919,12.016 0.328108,18.3415 17.5408,-7.29111 2.79419,-38.8922 40.1065,-29.315l-4.09511 -14.487 0.000237329 0z"/>
    <path id="_117963120" class="fil6" d="M37.5178 97.1779c0.11107,-3.245 0.910513,-16.1441 1.77142,-25.4693 0.85842,-9.29749 7.35198,-16.7295 14.0716,-16.8915 8.79672,-0.21241 14.5574,5.03909 21.8604,4.96801 6.24472,-0.0607563 10.0546,-5.62458 17.615,-7.3489 8.73822,-1.44533 20.7626,6.48727 21.7823,17.5355 0.860556,9.32502 1.34839,24.1167 1.45946,27.3617l2.19351 -0.0221903c0.132667,-7.79792 0.292983,-18.1196 0.433007,-25.8702 0.178472,-9.88393 0.224157,-11.9434 -8.62312,-17.7812 -9.27791,-6.12179 -20.9373,-9.18286 -33.2656,-9.18286 -11.8146,0 -23.6292,2.81128 -32.7589,8.43349 -7.96607,4.90583 -9.31469,8.3051 -9.15319,17.2369 0.142753,7.88146 0.338669,18.7907 0.478693,27.0306l2.13537 0z"/>
    <path id="_117967608" class="fil7" d="M110.081 53.6596c-9.27791,-6.12179 -20.9373,-9.18286 -33.2656,-9.18286 -11.8146,0 -23.6292,2.81128 -32.7589,8.43349 -7.96607,4.90583 -9.31469,8.3051 -9.15319,17.2369 0.148093,8.17813 0.353383,19.6147 0.494238,27.9478 0.225581,-0.114867 0.334871,-0.194254 0.299628,-0.229497 0,0 0.404409,-29.4982 1.73832,-33.5002 7.90045,-23.7022 71.1353,-22.8339 79.1025,-0.0668082 1.39336,3.98179 1.67258,33.6342 1.67258,33.6342 -0.0138838,0.0138838 -0.00391593,0.0350061 0.0243262,0.0619429 0.133498,-7.89238 0.324073,-18.529 0.469081,-26.5538 0.17859,-9.88393 0.224157,-11.9434 -8.62312,-17.7812l0.000118665 0.000118665z"/>
    <path id="_117965424" class="fil8" d="M98.7111 47.9319c-6.68853,-2.32488 -14.2981,-3.45504 -21.8954,-3.45504 -0.255841,0 -0.5118,0.00189863 -0.767522,0.00450925 -1.17834,4.2737 -1.70604,9.13646 -0.776541,14.5587 0,0 8.56948,-8.33476 23.4395,-11.1082z"/>
    <path id="_117963288" class="fil8" d="M38.1108 86.8952c0.323005,-4.83487 0.74284,-10.4681 1.17846,-15.1867 0.85842,-9.29749 7.35198,-16.7295 14.0716,-16.8915 4.63824,-0.112019 8.43219,1.29534 12.0535,2.64029 2.82173,0.186778 6.09924,0.734771 9.92427,1.7166l-4.09511 -14.4872c-9.89758,0.746163 -19.4948,3.48708 -27.1865,8.22381 -7.96607,4.90583 -9.31469,8.3051 -9.15319,17.2369 0.0963556,5.31855 0.217394,12.0163 0.328582,18.3416 1.07249,-0.446416 2.02786,-0.980763 2.87845,-1.59378z"/>
    <path id="_117962160" class="fil5" d="M37.4705 110.283c0.302476,10.4228 4.33838,19.6767 12.668,26.2719 7.47219,5.91638 17.2135,8.70262 26.6638,8.70262 9.45021,0 19.1914,-2.78636 26.6636,-8.70286 8.3293,-6.59561 12.3653,-15.8497 12.6676,-26.2727 -1.80572,7.16259 -5.69068,13.478 -11.8711,18.372 -7.69552,6.09319 -17.7278,8.96285 -27.4602,8.96285 -9.73275,0 -19.7651,-2.86955 -27.4605,-8.96262 -6.18053,-4.89361 -10.0655,-11.2088 -11.8713,-18.3711l0.000118665 -0.000118665z"/>
    <path id="_117965736" class="fil1" d="M45.7426 53.6955c0,0 -1.26935,8.28421 -0.267233,14.7646 0,0 -1.93744,-3.74126 -2.40509,-9.21953 -0.467657,-5.47827 2.67233,-5.54508 2.67233,-5.54508z"/>
    <path id="_117963792" class="fil1" d="M29.5345 85.2707c1.5144,-0.915972 6.16664,-5.43662 3.52612,-26.6134 -2.78696,-22.3507 12.7682,-34.0528 28.7197,-35.2677 13.6984,-1.0433 28.3001,4.69995 28.9103,21.8968 -7.34107,2.8273 -12.2608,9.70747 -15.3698,13.9058 0,0 -6.05059,-6.65423 -19.2901,-8.39243 0,0 0.0857945,-6.07135 -3.9901,-7.54102 -13.9125,9.68505 -0.571014,41.0473 -22.3858,42.2188 -0.259638,0.0138838 -0.30212,-0.096949 -0.120089,-0.20707l-0.000118665 0.000118665z"/>
    <path id="_117967152" class="fil2" d="M91.2971 43.0196c-1.78092,-14.718 -23.7479,-21.7797 -38.793,-15.9323 -6.48561,2.52079 -11.7398,7.59869 -14.872,13.794 -7.34913,14.5363 1.60707,28.6652 -4.46713,42.6279 0,0 7.08166,-1.80382 8.75187,-13.8293 1.32774,-9.56033 1.2207,-23.1782 10.1125,-29.213 12.7647,-8.66334 23.9788,1.25927 23.2909,15.9681l0.00439059 0.738806c3.07092,-7.09768 11.0465,-13.0107 15.9726,-14.1543l-0.000118665 0z"/>
    <path id="_117963336" class="fil9" d="M62.5107 37.2875c7.79567,0.690865 13.2977,8.71342 12.8096,19.1476l0.00344127 0.570658c0.756131,-3.30706 3.17831,-17.9759 -12.8123,-19.8118l-0.000711987 0.0935077z"/>
    <path id="_117966480" class="fil9" d="M47.8135 32.3838c0,0 -7.01486,7.01486 -7.48251,22.2471 0,0 -1.46978,-9.21953 1.00212,-17.9046l3.00637 -3.13998 3.47402 -1.20255z"/>
    <path id="_117963600" class="fil3" d="M75.3232 56.9525l0.00130531 0.221309c2.49718,-5.77161 8.2377,-10.7599 12.9442,-13.0373 0.689916,-0.875151 1.09943,-1.39763 1.09943,-1.39763 0,0 -1.6034,-11.9587 -15.7667,-15.4995 0,0 6.70218,16.9835 1.72182,29.713l0 0.000118665z"/>
    <path id="_117968664" class="fil9" d="M73.8331 26.353c-6.93215,-1.90872 -14.7853,-1.80892 -21.3289,0.734415 -6.48561,2.52079 -11.7398,7.59869 -14.872,13.794 -7.34913,14.5363 1.60707,28.6652 -4.46713,42.6279 0,0 0.058383,-0.0150704 0.164232,-0.0505511 10.2034,-7.41808 -0.887967,-29.3393 8.24042,-43.9703 4.6475,-7.44905 13.6327,-15.0479 32.2634,-13.1353l0 -0.000118665z"/>
    <path id="_117964848" class="fil3" d="M74.0913 56.2238c0,0 0.27637,-9.6091 -5.48052,-14.7062 -4.57547,-4.05097 -12.1537,-3.25105 -15.7096,0.51892 0,0 4.38442,1.78305 4.88459,7.48501 0,0 10.637,1.40048 16.3055,6.70229l0.000118665 0z"/>
    <path id="_117968808" class="fil2" d="M74.0913 56.2238c0,0 0.00106798,-0.0443806 0.0016613,-0.126496 -4.46392,-5.97369 -15.0564,-7.68092 -15.0564,-7.68092 -0.281591,-1.24171 -2.75598,-5.93869 -6.13543,-6.37988 0,0 4.38442,1.78305 4.88459,7.48501 0,0 10.637,1.40048 16.3055,6.70229l0.000118665 0z"/>
    <path id="_117965640" class="fil1" d="M33.0985 48.7365c0,0 -1.03345,7.54932 -3.74161,12.793 0,0 3.45361,-0.637466 4.68737,-4.33873 1.23376,-3.70127 -0.945757,-8.45426 -0.945757,-8.45426z"/>
    <path id="_117967272" class="fil1" d="M58.6195 23.7461c0,0 -7.06909,1.66724 -12.5376,1.50051 0,0 2.86765,1.53386 6.80233,1.13372 3.93468,-0.400137 5.7353,-2.63423 5.7353,-2.63423z"/>
    <path id="_117968424" class="fil1" d="M93.0461 44.8668c0,0 -6.29397,2.20479 -12.0956,10.5273 0,0 1.74223,-6.16996 8.23129,-10.3551l2.83703 -0.651825 1.02728 0.479642z"/>
    <path id="_117966048" class="fil1" d="M56.0111 50.8028c0,0 6.65115,0.487237 14.4223,7.00916 0,0 -3.29081,-5.50224 -10.6467,-7.85061l-2.90894 0.110477 -0.866607 0.730974z"/>
    <path id="_117963744" class="fil1" d="M95.2472 45.879c0,0 -0.267233,-5.81231 -3.87487,-11.3574 0,0 4.27572,4.14211 5.94593,11.5578l-0.553096 0.346145 -1.51796 -0.546569z"/>
    <path id="_117967512" class="fil1" d="M100.003 45.7249c0,0 -1.20041,-7.50257 1.16707,-11.9374 0,0 -0.766929,5.53523 0.600205,12.2709l-0.900308 0.733584 -0.866963 -1.06703z"/>
    <path id="_117955440" class="fil1" d="M90.5993 44.5909c0,0 -0.266758,-3.26779 -0.966998,-5.96871 0,0 1.934,2.73427 2.86765,6.06874l-1.46717 0.333447 -0.433482 -0.433482z"/>
    <path id="_117963264" class="fil5" d="M56.0669 64.2131c0,0 13.9764,3.81174 21.1294,3.21 7.1531,-0.601748 20.6448,-7.16853 19.1925,-6.82108 -3.17321,0.759097 -10.2697,4.20357 -19.6477,5.04491 -6.06637,0.544196 -17.2458,-1.40107 -20.6742,-1.43382z"/>
    <path id="_117968184" class="fil1" d="M32.4479 83.8258c0,0 6.27997,-4.81019 5.34465,-18.1717 0,0 2.80594,11.7582 -2.27148,17.5705l-2.90788 1.18 -0.1653 -0.578727 0 -0.000118665z"/>
    <path id="_117963720" class="fil1" d="M71.9597 55.5281c0,0 -0.400137,-7.66929 -5.0684,-12.9378 0,0 5.17354,2.95451 6.77693,13.7106l-0.841569 -0.0726227 -0.866963 -0.70024z"/>
    <path id="_117964128" class="fil2" d="M58.9286 49.5872c0,0 -0.292983,-4.49846 -3.17131,-8.19949 0,0 3.18258,1.77712 5.29529,8.51454l-1.12138 -0.0211223 -1.0026 -0.293932z"/>
    <path id="_117967248" class="fil2" d="M73.3342 26.9055c0,0 6.14635,2.53871 10.3553,13.4952 0,0 -3.67445,-6.81443 -11.157,-11.6914l0.0607563 -0.757199 0.740942 -1.04662z"/>
    <path id="_117966984" class="fil1" d="M75.2049 26.705c0,0 -13.8293,-2.87275 -28.0593,6.61401 0,0 7.14847,-7.54932 19.9755,-9.0191l3.00637 0.467657 5.07742 1.93744z"/>
    <path id="_117963984" class="fil2" d="M74.3365 29.7782c0,0 4.877,7.61613 5.07742,17.0361 0,0 -1.40297,-6.27997 -5.41146,-11.6914 -4.00849,-5.41146 0.334041,-5.34465 0.334041,-5.34465z"/>
    <path id="_117967632" class="fil1" d="M81.3295 49.6595c0,0 1.06703,-4.20144 0.100034,-8.70298 0,0 1.80062,2.90099 1.63389,7.10243l-1.73393 1.60055z"/>
    <path id="_117965952" class="fil1" d="M83.4303 48.5256c0,0 0.784966,-3.09074 0.073572,-6.40219 0,0 1.32465,2.13406 1.20195,5.2248l-1.27553 1.17739z"/>
    <path id="_117963456" class="fil1" d="M65.0301 53.1551c0,0 0.317309,-3.17309 -0.877999,-6.34215 0,0 1.62689,1.9137 1.96449,4.9883l-1.08649 1.35384z"/>
    <path id="_117967896" class="fil3" d="M44.4731 47.3487c0,0 3.94168,-11.2906 18.5059,-11.157 -7.87968,-3.42561 -17.0794,2.88462 -18.5059,11.157z"/>
    <path id="_117965784" class="fil9" d="M50.0851 33.9238c0,0 8.67533,-5.93892 20.8441,-3.14414 -8.69859,-5.07066 -17.7283,-0.471929 -20.8441,3.14414z"/>
    <path id="_117963576" class="fil3" d="M67.6863 32.3862c0,0 6.21328,1.90302 8.35114,9.25192 -0.0792679,-5.31582 -2.41589,-8.83553 -8.35114,-9.25192z"/>
    <path id="_117967680" class="fil1" d="M83.1549 18.02c0,0 -1.93744,3.94168 1.53659,9.08591 0,0 -1.92818,-3.82207 -0.527701,-8.42364l-0.366792 -0.900308c0,0 -0.666895,0.300103 -0.642094,0.238041z"/>
    <path id="_117963432" class="fil10" d="M90.9996 58.129c0,0 6.90236,-3.53454 8.53626,-4.83499 1.63389,-1.30045 2.93434,-3.73461 2.93434,-3.73461 0,0 -5.10175,1.63389 -11.4706,8.5696z"/>
    <path id="_117962688" class="fil1" d="M100.458 47.5493c0,0 -9.48676,10.1548 -9.55357,10.6225 -0.0668082,0.467657 11.491,-8.1506 12.0255,-9.21953 0.534465,-1.06893 -2.4719,-1.40297 -2.4719,-1.40297z"/>
    <path id="_117966264" class="fil1" d="M93.1994 51.9935c0,0 0.578252,3.71764 3.46975,5.53523 -0.707597,-2.71944 -1.24847,-3.85577 -3.46975,-5.53523z"/>
    <path id="_117963072" class="fil1" d="M95.9345 49.5807c0,0 3.02915,2.48543 6.53581,1.88985 -2.43678,-1.62048 -3.64538,-2.12742 -6.53581,-1.88985z"/>
    <path id="_117967320" class="fil5" d="M58.1103 57.8037c0,0 -5.47827,1.53659 -8.01698,10.5557 0,0 -0.601273,-4.47615 1.00212,-8.61825 1.6034,-4.14211 7.01486,-1.93744 7.01486,-1.93744z"/>
   </g>
  </g>
 </g>
</svg>
