<?xml version="1.0" encoding="UTF-8"?>
<!DOCTYPE svg PUBLIC "-//W3C//DTD SVG 1.1//EN" "http://www.w3.org/Graphics/SVG/1.1/DTD/svg11.dtd">
<!-- Creator: CorelDRAW -->
<svg xmlns="http://www.w3.org/2000/svg" xml:space="preserve" width="129.436mm" height="197.987mm" style="shape-rendering:geometricPrecision; text-rendering:geometricPrecision; image-rendering:optimizeQuality; fill-rule:evenodd; clip-rule:evenodd"
viewBox="0 0 21.3089 32.5945"
 xmlns:xlink="http://www.w3.org/1999/xlink">
 <defs>
  <style type="text/css">
   <![CDATA[
    .fil0 {fill:none}
    .fil8 {fill:#4B3446}
    .fil1 {fill:#501D33}
    .fil7 {fill:#634C54}
    .fil6 {fill:#846873}
    .fil9 {fill:#896E6B}
    .fil4 {fill:#A78689}
    .fil5 {fill:#CDB2B3}
    .fil3 {fill:#D77D75}
    .fil2 {fill:#FFCFA5}
   ]]>
  </style>
 </defs>
 <g id="Layer_x0020_1">
  <metadata id="CorelCorpID_0Corel-Layer"/>
  <g id="_171452648">
   <rect id="_172877000" class="fil0" y="1.64629e-005" width="21.3089" height="32.5945"/>
   <g id="_117034760">
    <path id="_117037952" class="fil1" d="M4.46028 9.39535c0.0302094,1.72508 0.104737,5.59105 0.104737,5.7046 0,7.51659 12.1828,7.51655 12.1828,0 0,-0.1091 0.0687985,-4.0439 0.100967,-5.8823 0.0135161,-0.771501 -0.1818,-1.21342 -0.801777,-1.72544 -2.72262,-2.24859 -7.80704,-2.27239 -10.6409,-0.127225 -0.712564,0.539391 -0.961829,1.11689 -0.945827,2.03039l0 -1.64629e-005z"/>
    <path id="_117037880" class="fil2" d="M15.2715 7.44446c-1.28715,-0.849305 -2.90473,-1.27397 -4.6151,-1.27397 -1.6391,0 -3.27818,0.390023 -4.54478,1.17002 -1.10517,0.68061 -1.29227,1.15221 -1.26987,2.39134 0.0343416,1.89677 0.09076,5.05767 0.09076,5.35655 0,1.59165 0.584664,3.00861 1.84548,4.00689 1.08688,0.860599 2.50383,1.26587 3.87846,1.26587 1.3746,-1.64629e-005 2.79153,-0.4053 3.87842,-1.2659 1.26075,-0.998295 1.84543,-2.41527 1.84543,-4.00688 0,-0.289599 0.053027,-3.267 0.0875333,-5.17708 0.0247767,-1.37125 0.0310984,-1.65696 -1.19633,-2.46685z"/>
    <path id="_117037808" class="fil3" d="M15.2715 7.44446c-1.28715,-0.849305 -2.90473,-1.27397 -4.6151,-1.27397 -1.6391,0 -3.27818,0.390023 -4.54478,1.17002 -1.10517,0.68061 -1.29227,1.15221 -1.26987,2.39134 0.00872534,0.482281 0.0189159,1.0463 0.0292217,1.6242 3.07499,-2.02998 8.29928,-2.03577 11.5692,0.0936575 0.00961434,-0.540016 0.0191793,-1.07114 0.0276248,-1.53839 0.0247767,-1.37125 0.0310984,-1.65696 -1.19633,-2.46685l3.29258e-005 0z"/>
    <path id="_117037736" class="fil4" d="M5.20442 13.4819c0.0154093,-0.450195 0.12632,-2.23973 0.245758,-3.53348 0.230975,-2.50162 2.84445,-1.72856 4.53112,-1.13805 0.602839,0.210989 0.828167,0.183035 1.44632,-0.063481 0.38436,-0.153303 0.817762,-0.312614 1.25986,-0.437617l-2.29422 -1.15601 3.05115 0.983363c1.2123,-0.200518 2.31506,0.0379799 2.45656,1.57081 0.119438,1.29374 0.187068,3.34582 0.202477,3.79602l0.304317 -0.00307856c0.0184055,-1.08184 0.0406469,-2.51382 0.0600732,-3.58908 0.0247602,-1.37125 0.0310984,-1.65696 -1.19633,-2.46685 -1.28715,-0.849305 -2.90473,-1.27397 -4.6151,-1.27397 -1.6391,0 -3.27818,0.390023 -4.54478,1.17002 -1.10517,0.68061 -1.29227,1.15221 -1.26987,2.39134 0.0198049,1.09343 0.0469852,2.60692 0.0664114,3.75009l0.29625 0 0 -1.64629e-005z"/>
    <path id="_117037664" class="fil5" d="M15.2715 7.44446c-1.28715,-0.849305 -2.90473,-1.27397 -4.6151,-1.27397 -1.6391,0 -3.27818,0.390023 -4.54478,1.17002 -1.10517,0.68061 -1.29227,1.15221 -1.26987,2.39134 0.0205457,1.13459 0.0490266,2.72122 0.068568,3.87733 0.031296,-0.0159361 0.0464583,-0.0269498 0.0415689,-0.0318393 0,0 0.0561056,-4.09242 0.241165,-4.64764 1.09607,-3.28832 9.86892,-3.16784 10.9743,-0.00926862 0.193308,0.552413 0.232045,4.66622 0.232045,4.66622 -0.00192616,0.00192616 -0.000543276,0.00485656 0.0033749,0.00859364 0.0185208,-1.09495 0.0449602,-2.57063 0.0650779,-3.68392 0.0247767,-1.37125 0.0310984,-1.65696 -1.19633,-2.46685l1.64629e-005 0z"/>
    <path id="_117037592" class="fil6" d="M5.35746 11.0619c0.0291558,-0.383191 0.0606494,-0.766184 0.0927027,-1.11342 0.230975,-2.50162 2.84445,-1.72856 4.53112,-1.13805 0.602839,0.210989 0.828167,0.183035 1.44632,-0.063481 0.38436,-0.153303 0.817762,-0.312614 1.25986,-0.437617l-2.29422 -1.15601 3.05115 0.983363c1.2123,-0.200518 2.31506,0.0379799 2.45656,1.57081 0.0403012,0.436465 0.0746428,0.959261 0.103124,1.47771 0.148726,0.0842737 0.29439,0.172251 0.436119,0.264543 0.00856071,-0.480948 0.0170556,-0.954816 0.0247767,-1.38282l4.93887e-005 -0.00205786 0.0027987 -0.153517 0.00111948 -0.0634645 0.00108655 -0.0619335 0.000987775 -0.0604024 0.000921923 -0.0589537 0.000740831 -0.057472 0.000592665 -0.0561056 0.00039511 -0.0547227 0.000197555 -0.0534057c1.64629e-005,-0.0175824 -3.29258e-005,-0.0349178 -9.87775e-005,-0.0520722 -6.58517e-005,-0.0171544 -0.000181092,-0.0340947 -0.000345721,-0.0508375 -0.000164629,-0.0167428 -0.00039511,-0.0332551 -0.000674979,-0.0496028 -0.00027987,-0.0163312 -0.000592665,-0.0324978 -0.000971312,-0.0484504 -0.00039511,-0.0159526 -0.000856071,-0.0316911 -0.00136642,-0.047265 -0.00051035,-0.0155739 -0.00107009,-0.0309667 -0.00172861,-0.0461785 -0.000642054,-0.0152117 -0.00138288,-0.0302424 -0.0021731,-0.0450919 -0.00079022,-0.0148495 -0.00162983,-0.0295509 -0.00256821,-0.0440712 -0.000938386,-0.0145203 -0.00197555,-0.0288595 -0.00309503,-0.0430341 -0.00110302,-0.014191 -0.00228834,-0.0282174 -0.00357245,-0.0420957 -0.00128411,-0.0138782 -0.00265053,-0.0275754 -0.00411573,-0.0411573 -0.0014652,-0.0135654 -0.00299625,-0.0269992 -0.00464254,-0.0402847 -0.00164629,-0.0132856 -0.00340782,-0.02639 -0.00525167,-0.0393958 -0.00184385,-0.0130057 -0.00378647,-0.0258797 -0.00584433,-0.038622 -0.00205786,-0.0127423 -0.00423097,-0.0253529 -0.00650285,-0.0378318 -0.00227188,-0.0124789 -0.00462608,-0.024859 -0.00712844,-0.0371074 -0.00250236,-0.0122484 -0.00513643,-0.0243322 -0.00786927,-0.0363501 -0.00273284,-0.0120179 -0.00558093,-0.0239371 -0.00856071,-0.0357245 -0.00297979,-0.0118039 -0.00610774,-0.0234761 -0.00933447,-0.035066 -0.00324319,-0.0115899 -0.00658517,-0.0230975 -0.0100753,-0.0345063 -0.0035066,-0.0113923 -0.0071449,-0.0226859 -0.0109149,-0.0339136 -0.00377001,-0.0112277 -0.00768818,-0.0223566 -0.0117381,-0.0334033 -0.00404988,-0.0110466 -0.00826438,-0.0220109 -0.0126106,-0.0329094 -0.00434621,-0.0108984 -0.00882412,-0.021731 -0.0134667,-0.0324978 -0.00464254,-0.0107503 -0.00946617,-0.0214182 -0.0144215,-0.0320368 -0.00495534,-0.0106186 -0.0100753,-0.0211878 -0.0153599,-0.0316911 -0.0052846,-0.0105033 -0.0107338,-0.0209408 -0.0163477,-0.0313289 -0.00561385,-0.0104046 -0.0113594,-0.0207597 -0.0173025,-0.0310655 -0.00594311,-0.0103058 -0.0120838,-0.0205293 -0.0183726,-0.0307527 -0.00628883,-0.0102235 -0.0127588,-0.0204305 -0.0194098,-0.0305716 -0.00665102,-0.0101576 -0.0134831,-0.0202658 -0.0204963,-0.0303576 -0.0070132,-0.0100918 -0.0142075,-0.0201671 -0.0215993,-0.0302259 -0.00739185,-0.0100588 -0.0149813,-0.0200683 -0.0227682,-0.0300777 -0.00777049,-0.0100259 -0.0157221,-0.0200024 -0.0239041,-0.0300119 -0.0081656,-0.00999299 -0.0165452,-0.019986 -0.0251224,-0.029979 -0.00857718,-0.00999299 -0.0173354,-0.019986 -0.0263077,-0.029979 -0.00898875,-0.00999299 -0.018208,-0.0199695 -0.0276083,-0.029979 -0.00940032,-0.0100095 -0.0190147,-0.0200354 -0.028843,-0.0300777 -0.00982836,-0.0100424 -0.0199037,-0.0201012 -0.0301765,-0.0301765 -0.0102729,-0.0100753 -0.0207433,-0.0201835 -0.0314771,-0.0303247 -0.0107338,-0.0101412 -0.0217146,-0.0202823 -0.0328929,-0.0304729 -0.0111783,-0.010207 -0.0225871,-0.020414 -0.0342429,-0.0307033 -0.0116557,-0.0102729 -0.023542,-0.0205622 -0.0356751,-0.0309338 -0.0121332,-0.0103716 -0.0244804,-0.0207927 -0.0371074,-0.0312631 -0.0126106,-0.0104704 -0.0255011,-0.0209738 -0.0386055,-0.0315594 -0.0131045,-0.0105857 -0.0264724,-0.0212536 -0.0400872,-0.0319545 -0.0136148,-0.0107174 -0.0274931,-0.0214676 -0.0416182,-0.0323167 -0.0141252,-0.0108491 -0.0285138,-0.0217969 -0.0431658,-0.0327941 -0.014652,-0.0110137 -0.0296168,-0.0220603 -0.0447956,-0.0332222 -0.0151953,-0.0111619 -0.0306375,-0.0224225 -0.0463596,-0.0337654 -0.0157385,-0.0113429 -0.0317405,-0.0227682 -0.0480223,-0.0342922 -0.0162818,-0.0115405 -0.032827,-0.0231633 -0.0496686,-0.0349014 -0.0168416,-0.0117381 -0.0339959,-0.0235584 -0.0513972,-0.035494 -0.0174178,-0.0119521 -0.0350989,-0.0239865 -0.0530929,-0.036169 -0.0179775,-0.0121661 -0.0363007,-0.0244474 -0.0548709,-0.036844 -0.0185866,-0.012413 -0.0374202,-0.0249742 -0.0565995,-0.0376178 -1.28715,-0.849305 -2.90473,-1.27397 -4.6151,-1.27397 -1.6391,0 -3.27818,0.390023 -4.54478,1.17002 -1.10517,0.68061 -1.29227,1.15221 -1.26987,2.39134l0.000642054 0.0343252 0.000197555 0.0111454 0.000131703 0.0061242 0.000312795 0.0167922 0.00039511 0.0229987 0.000230481 0.0123636 0.000214018 0.0107997 0.000181092 0.0107832 0.000576202 0.0311643 8.23146e-005 0.00464254 1.64629e-005 0.000707905 0.000642054 0.0369757 0.000181092 0.0093674 1.64629e-005 0.00158044 0.00118533 0.064584 8.23146e-005 0.00513643 0.000444499 0.0240029 0.000263407 0.0144874 0.000181092 0.00956495 0.000609128 0.0345886 0.000642054 0.0360209 4.93887e-005 0.00223896 0.000444499 0.0244474 4.93887e-005 0.00335843 0.00039511 0.0212042 0.000444499 0.024645 0.000444499 0.0247438 0.000444499 0.0248261 0.000312795 0.0167099 0.00100424 0.0547392 3.29258e-005 0.00199201 3.29258e-005 0.00153105 0.000444499 0.0251718 0.000444499 0.0252376 8.23146e-005 0.00516935 0.000362184 0.0201177 0.000477424 0.0254023 0.000214018 0.0120179 0.000230481 0.0134337 0.00136642 0.0762727 1.64629e-005 0.000543276 0.000444499 0.025748 1.64629e-005 0.000197555 0.000164629 0.00893936 0.00164629 0.0919289 4.93887e-005 0.00258468 0.000263407 0.0141087 0.000230481 0.0119521 0.000444499 0.0261102 0.00039511 0.0211878 9.87775e-005 0.00500473 0.000460962 0.0262419 0.000493887 0.0262913 3.29258e-005 0.00200848 1.64629e-005 0.00130057 0.000691442 0.0389183 0.000197555 0.0105198 0.000148166 0.0090546 6.58517e-005 0.00319381 0.00210725 0.117199 4.93887e-005 0.00324319 0.000493887 0.0266864 8.23146e-005 0.00451084 0.000856071 0.0489607 0.000477424 0.0267852 0.000691442 0.0391488 0.00123472 0.068354 0.000460962 0.0255011 3.29258e-005 0.00144874 9.87775e-005 0.00571263 0.000839609 0.0482693 0.00011524 0.00579495 0.000362184 0.0212207 0.000493887 0.027065 0 0.000230481 0.000477424 0.0268181c0.156678,-0.103436 0.319183,-0.201276 0.486463,-0.294176z"/>
    <path id="_117037520" class="fil3" d="M5.19784 15.3001c0.041964,1.446 0.601884,2.72981 1.7575,3.64479 1.03665,0.820808 2.38809,1.20736 3.6992,1.20736 1.31106,0 2.6625,-0.386566 3.69917,-1.20739 1.15556,-0.915042 1.7155,-2.19889 1.75742,-3.64492 -0.250516,0.993701 -0.789495,1.86987 -1.64693,2.54882 -1.06764,0.845338 -2.45946,1.24346 -3.80967,1.24346 -1.35027,0 -2.7421,-0.398106 -3.80972,-1.24343 -0.857454,-0.678898 -1.39642,-1.55504 -1.64695,-2.54869l-1.64629e-005 0z"/>
    <path id="_117037448" class="fil1" d="M5.3234 13.1522c0.0582787,0.000872534 0.104803,0.048829 0.10393,0.107075 -0.000872534,0.0582622 -0.048829,0.104803 -0.107091,0.10393 -0.0582458,-0.000872534 -0.104786,-0.048829 -0.103914,-0.107108 0.000872534,-0.0582458 0.048829,-0.10477 0.107075,-0.103897zm-0.24566 -2.0629c0.0472156,0.000707905 0.0849651,0.0396098 0.0842572,0.0868254 -0.000707905,0.0472321 -0.0396098,0.0849651 -0.0868254,0.0842572 -0.0472321,-0.000707905 -0.0849816,-0.0395933 -0.0842737,-0.0868254 0.000707905,-0.0472156 0.0396098,-0.0849651 0.0868419,-0.0842572zm0.241462 0.442852c0.0645675,0.000971312 0.116129,0.0541136 0.115175,0.118648 -0.000971312,0.0645675 -0.0541301,0.116129 -0.118681,0.115175 -0.0645346,-0.000971312 -0.116113,-0.0541301 -0.115142,-0.118681 0.000971312,-0.0645346 0.0541136,-0.116113 0.118648,-0.115142zm-0.279985 0.412198c0.0362184,0.000543276 0.0651602,0.0303576 0.0646005,0.0665596 -0.000543276,0.0362184 -0.0303411,0.0651437 -0.066576,0.0646005 -0.0362019,-0.000543276 -0.0651273,-0.0303411 -0.064584,-0.066576 0.000543276,-0.0362019 0.0303576,-0.0651273 0.0665596,-0.064584zm-0.0302259 0.68405c0.0535374,0.000806683 0.0962916,0.0448614 0.0955014,0.0983988 -0.000806683,0.0535374 -0.0448779,0.0962916 -0.0984153,0.0955014 -0.0535374,-0.000806683 -0.0962916,-0.0448779 -0.0954849,-0.0984153 0.000806683,-0.0535374 0.0448614,-0.0962916 0.0983988,-0.0954849zm0.382664 -0.22243c0.0393628,0.000592665 0.070807,0.0329917 0.0702143,0.0723545 -0.000592665,0.0393628 -0.0329917,0.070807 -0.0723545,0.0702143 -0.0393628,-0.000576202 -0.070807,-0.0329917 -0.0702143,-0.0723545 0.000592665,-0.0393628 0.0329917,-0.070807 0.0723545,-0.0702143z"/>
    <polygon id="_117037376" class="fil1" points="4.6833,11.4119 4.09874,11.5026 4.11181,11.6209 4.67022,11.6446 "/>
    <polygon id="_117037304" class="fil1" points="4.70584,12.4642 4.18981,12.5549 4.20135,12.6733 4.6943,12.697 "/>
    <polygon id="_117037232" class="fil1" points="4.69088,11.779 4.24407,11.843 4.25408,11.9265 4.68087,11.9432 "/>
    <path id="_117037160" class="fil1" d="M16.0187 11.3003c-0.0582787,-0.000872534 -0.104803,-0.048829 -0.10393,-0.107075 0.000872534,-0.0582622 0.048829,-0.104803 0.107091,-0.10393 0.0582458,0.000872534 0.104786,0.048829 0.103914,0.107108 -0.000872534,0.0582458 -0.048829,0.10477 -0.107075,0.103897zm0.245643 2.06289c-0.0472156,-0.000707905 -0.0849651,-0.0396098 -0.0842572,-0.0868254 0.000707905,-0.0472321 0.0396098,-0.0849651 0.0868254,-0.0842572 0.0472321,0.000707905 0.0849816,0.0395933 0.0842737,0.0868254 -0.000707905,0.0472156 -0.0396098,0.0849651 -0.0868419,0.0842572zm-0.241445 -0.442852c-0.0645675,-0.000971312 -0.116129,-0.0541136 -0.115175,-0.118648 0.000971312,-0.0645675 0.0541301,-0.116129 0.118681,-0.115175 0.0645346,0.000971312 0.116113,0.0541301 0.115142,0.118681 -0.000971312,0.0645346 -0.0541136,0.116113 -0.118648,0.115142zm0.279968 -0.412182c-0.0362184,-0.000543276 -0.0651602,-0.0303576 -0.0646005,-0.0665596 0.000543276,-0.0362184 0.0303411,-0.0651437 0.066576,-0.0646005 0.0362019,0.000543276 0.0651273,0.0303411 0.064584,0.066576 -0.000543276,0.0362019 -0.0303576,0.0651273 -0.0665596,0.064584zm0.0302259 -0.68405c-0.0535374,-0.000806683 -0.0962916,-0.0448614 -0.0955014,-0.0983988 0.000806683,-0.0535374 0.0448779,-0.0962916 0.0984153,-0.0955014 0.0535374,0.000806683 0.0962916,0.0448779 0.0954849,0.0984153 -0.000806683,0.0535374 -0.0448614,0.0962916 -0.0983988,0.0954849zm-0.382647 0.22243c-0.0393628,-0.000592665 -0.070807,-0.0329917 -0.0702143,-0.0723545 0.000592665,-0.0393628 0.0329917,-0.070807 0.0723545,-0.0702143 0.0393628,0.000576202 0.070807,0.0329917 0.0702143,0.0723545 -0.000592665,0.0393628 -0.0329917,0.070807 -0.0723545,0.0702143z"/>
    <polygon id="_117037088" class="fil1" points="16.6588,13.0407 17.2434,12.95 17.2303,12.8316 16.6719,12.8079 "/>
    <polygon id="_117037016" class="fil1" points="16.6363,11.9883 17.1523,11.8976 17.1408,11.7792 16.6478,11.7556 "/>
    <polygon id="_117036944" class="fil1" points="16.6513,12.6735 17.098,12.6096 17.088,12.5261 16.6612,12.5093 "/>
    <path id="_117036872" class="fil1" d="M4.7821 11.098l-1.07381 -0.556677c0,0 -0.941234,-5.97388 6.3696,-6.57386 0.432201,-0.0354282 0.820676,-0.0309174 1.26564,0.00940032 7.18898,0.651602 6.25698,6.56445 6.25698,6.56445l-1.07379 0.556677c-1.15708,-1.94094 -4.90014,-2.09209 -5.87232,-2.09805 -0.972184,0.00597604 -4.71523,0.157106 -5.87229,2.09805z"/>
    <path id="_117036800" class="fil7" d="M16.5722 10.8012l0.721652 -0.416347c0,0 0.850178,-5.28986 -5.74516,-6.09077 -0.521249,-0.063267 -1.11525,-0.0743959 -1.63903,-0.0172367 -6.75765,0.738592 -5.89469,6.108 -5.89469,6.108l0.721668 0.416347c1.16806,-1.83283 4.77431,-2.05986 5.91782,-2.08524 1.14353,0.0253693 4.7497,0.252409 5.91776,2.08524l-1.64629e-005 0z"/>
    <path id="_117036728" class="fil8" d="M12.6348 6.03369c0,0 0.40591,0.883367 0.263686,2.1103l0.371453 0.119422c-0.354759,-0.0737703 -0.693171,-0.127917 -1.00206,-0.167527 -0.0241676,-0.14917 -0.10719,-0.595101 -0.296892,-1.04648 0,0 0.0674156,0.621442 0.0574885,1.01795 -0.0561221,-0.00620652 -0.110795,-0.0118368 -0.164415,-0.017105 -0.139079,-0.664921 -0.347236,-1.55179 -0.347236,-1.55179 0.0334362,0.610099 0.0216981,1.37829 0.0190476,1.52348 -0.551129,-0.0407786 -0.899287,-0.0322508 -0.899287,-0.0322508 -0.735744,0.0135325 -1.40096,0.0776391 -2.00108,0.177108 -0.0257974,-0.414569 -0.0553812,-2.0133 0.888586,-3.25325l0.354463 -0.387274 -0.085673 -0.039083c0,0 -0.305288,0.191612 -0.646828,0.621195l0.000757294 -0.00189323c0,0 -0.911058,0.891483 -1.11497,2.40225 0,0 0.12497,-0.499666 0.40591,-1.03893 -0.150208,0.487829 -0.24128,1.07503 -0.213409,1.77238 -2.52958,0.511667 -3.7934,1.65309 -4.21381,2.1116 0.00263407,0.0200848 0.00434621,0.0310655 0.00434621,0.0310655l0.721668 0.416347c1.16806,-1.83283 4.77431,-2.05986 5.91782,-2.08524 1.14353,0.0253693 4.7497,0.252409 5.91776,2.08524l0.721652 -0.416347c0,0 0.007326,-0.0460303 0.0153928,-0.129991 -1.09269,-1.13718 -2.67109,-1.70447 -4.01851,-1.98707 0.000312795,-0.060139 0.000428036,-1.45759 -0.65585,-2.23408l0 -1.64629e-005zm-1.85945 -0.165518c0,0 0.120492,1.0937 0.0648803,1.88151 0,0 0.129761,-0.463431 0.148298,-0.926862 0.0185372,-0.463431 -0.213178,-0.954668 -0.213178,-0.954668l0 1.64629e-005z"/>
    <path id="_117036656" class="fil9" d="M14.7887 6.06281c0,0 0.572317,0.225361 1.11994,0.672905 -0.835032,-0.968925 -1.89482,-1.52473 -2.84636,-1.84347 2.25012,1.67592 2.25473,3.83991 2.25473,3.83991l-0.148298 -0.0185372c-0.568794,-2.19885 -1.97731,-3.40137 -2.65015,-3.86735 1.01663,1.08721 1.13938,2.22682 1.13938,2.22682 -0.35364,-1.01624 -1.07546,-1.82264 -1.48416,-2.22108 -0.279474,-0.272478 -0.676692,-0.536576 -1.07444,-0.57123 0.414026,0.959129 0.404774,1.96916 0.404774,1.96916 -0.254731,-0.894595 -0.525266,-1.4541 -0.666007,-1.71132 0.00851133,0.481968 -0.0453224,1.15616 -0.0453224,1.15616 -0.0375025,-0.341951 -0.121282,-0.855857 -0.167296,-1.12838 -0.474675,0.5642 -0.8511,1.19982 -0.8511,1.19982 0.159098,-0.46595 0.408824,-0.872584 0.57821,-1.11757 -0.932212,0.861932 -1.24088,1.89615 -1.24088,1.89615 0.257348,-1.07809 0.680495,-1.81556 0.901065,-2.09115 -0.23244,-0.0628883 -0.519191,-0.0172696 -0.823393,0.173108 -0.299427,0.244293 -0.994014,0.911963 -1.56533,2.22386 0,0 0.109281,-0.894002 0.749326,-1.73336 -0.776078,0.67577 -1.71842,1.81635 -1.90193,3.53097l-0.484207 0.205309c0,0 0.18715,-2.52544 2.36468,-4.0276 -0.11366,0.0333374 -0.224258,0.0686997 -0.332123,0.105774l0.0274601 0.00762233c0,0 -1.64086,0.786763 -2.8283,2.73488 0,0 0.451726,-1.11602 1.24565,-1.97348 -1.98447,1.35379 -2.39843,3.42257 -2.48457,4.19327 -0.0217804,-1.27331 0.381495,-4.64373 5.12107,-5.50037l0.2128 -0.0518088 0.103041 -0.000971312c0.159377,-0.0242334 0.323661,-0.0455693 0.492669,-0.0640407 0.523801,-0.0571592 1.1178,-0.0460303 1.63903,0.0172367 5.57714,0.677251 5.83014,4.56416 5.77535,5.74824 -0.0819359,-0.595315 -0.221196,-1.12651 -0.403918,-1.60143 0.0703296,0.527916 -0.0367288,0.930797 -0.0367288,0.930797 0,0 -0.111223,-2.17811 -2.09469,-3.30888l0 4.93887e-005zm-7.22394 0.375947c0,0 -0.305321,0.735546 -0.356208,1.71628 -0.110433,-0.576185 -0.1185,-1.29045 0.356208,-1.71628zm6.86044 1.79954c0,0 -0.239091,-1.09139 -0.748733,-2.00866 0.591759,0.691459 0.692858,1.02806 0.748733,2.00866z"/>
    <path id="_117036584" class="fil1" d="M10.3625 4.033c0,0 -1.97239,1.18033 -1.90491,4.12654 0.087912,-0.0156892 0.180862,-0.0310655 0.278734,-0.0458492 0.0120673,-0.98356 0.227188,-1.94521 0.729472,-2.79728 0.195645,-0.331892 0.432514,-0.641658 0.701962,-0.90546 0.0797628,-0.0780836 0.176021,-0.167378 0.270387,-0.238943l0.216372 0.0134996 0.216356 -0.0134996c0.094349,0.0715478 0.190575,0.160826 0.270321,0.238893 0.269465,0.263802 0.506333,0.573551 0.701979,0.905411 0.506037,0.858409 0.720648,1.82803 0.729784,2.81918 0.0918301,0.0138288 0.184352,0.0284644 0.277976,0.0444663 0.0770794,-2.9612 -1.90443,-4.14697 -1.90443,-4.14697l-0.291986 0.0166934 -0.292003 -0.0166934 -1.64629e-005 1.64629e-005z"/>
    <path id="_117036512" class="fil1" d="M3.84251 10.3912c0,0 1.46907,-2.5684 7.091,-2.38302 0,0 -4.6581,-0.00831377 -6.84548,2.51273l-0.245528 -0.129711z"/>
    <path id="_117036440" class="fil1" d="M17.5415 10.3912c0,0 -1.46905,-2.5684 -7.09099,-2.38302 0,0 4.6581,-0.00831377 6.84546,2.51273l0.245528 -0.129711z"/>
    <path id="_117036368" class="fil1" d="M9.40314 4.25621c0,0 -3.2625,0.729324 -3.62398,4.73123l0.658039 0.645165 0.194625 -0.12148 -0.528295 -0.626546c0,0 0.186541,-3.38347 3.63751,-4.67494l-0.114121 -0.0468699 -0.22378 0.0934435z"/>
    <path id="_117036296" class="fil1" d="M11.8429 4.21072c0,0 3.3191,0.735481 3.68685,4.77125l-0.669448 0.650631 -0.198016 -0.122517 0.537465 -0.631847c0,0 -0.189768,-3.41209 -3.70062,-4.71448l0.116096 -0.047265 0.227666 0.0942337z"/>
    <polygon id="_117036224" class="fil1" points="8.46683,8.23831 8.86467,8.99236 9.04509,8.97848 8.72589,8.1134 "/>
    <polygon id="_117036152" class="fil1" points="12.8533,8.23831 12.4924,9.00622 12.2935,8.97385 12.5942,8.1134 "/>
    <path id="_117036080" class="fil1" d="M10.7119 4.0604c0,0 0.856039,0.65208 1.22975,2.68278 0,0 -0.0815902,-1.40643 -0.569288,-2.27572l-0.21978 -0.162736 -0.440679 -0.244326z"/>
    <path id="_117036008" class="fil1" d="M6.33654 8.66254c0.129761,0.16374 0.292036,0.341293 0.458673,0.486611 -0.0833682,-0.186936 -0.129777,-0.371551 -0.19907,-0.565402 9.87775e-005,-0.338362 0.0495698,-0.699871 0.162308,-1.14467 -0.23239,0.417746 -0.360735,0.796509 -0.421912,1.22344l0 1.64629e-005z"/>
    <path id="_117035936" class="fil1" d="M14.6661 8.70216c0,0 -0.103733,-0.913873 -0.307231,-1.57976 0,0 0.380013,0.681581 0.574095,1.60683l-0.108128 0.00646992 -0.158735 -0.033535z"/>
    <path id="_117035864" class="fil1" d="M5.16791 7.81458c0,0 -0.500505,0.750758 -0.53758,1.96493l0.305864 -0.222447c0,0 -0.00926862,-1.0937 0.231716,-1.7425l0 1.64629e-005z"/>
    <path id="_117035792" class="fil1" d="M9.6261 6.12769c0,0 -0.389282,0.732221 -0.287327,1.95568l0.224439 -0.0162324c0,0 -0.115652,-1.37855 0.0628883,-1.93943l0 -1.64629e-005z"/>
    <polygon id="_117035720" class="fil1" points="9.35541,8.11021 9.60203,8.58961 9.56054,8.05028 "/>
    <path id="_117035648" class="fil1" d="M9.85928 6.83198c0,0 -0.0878955,0.550503 -0.0555129,1.20278l0.217426 -0.00462608c0,0 -0.101774,-0.606016 -0.161913,-1.19815z"/>
    <polygon id="_117035576" class="fil1" points="10.0998,8.95072 9.92867,8.18279 10.3219,8.92295 "/>
    <polygon id="_117035504" class="fil1" points="14.8277,8.77954 14.5409,9.26529 15.0498,8.8258 "/>
    <polygon id="_117035432" class="fil1" points="16.0396,9.29766 15.2625,9.88056 15.3643,9.93606 16.1877,9.45496 "/>
    <path id="_117035360" class="fil1" d="M15.9636 9.32594c0,0 -0.00167922,-0.804411 -0.13493,-1.47491 0,0 0.368045,0.93534 0.311824,1.53518l-0.176894 -0.0602707z"/>
    <path id="_117035288" class="fil1" d="M12.4437 4.43155c0,0 1.52932,0.380013 2.51178,1.4181 0,0 -0.760027,-0.60246 -2.17811,-1.08443l-0.21652 -0.200008 -0.11715 -0.133662z"/>
    <path id="_117035216" class="fil1" d="M9.35966 4.27377c0,0 -0.754051,0.592138 -1.05937,1.35544 0,0 0.582886,-0.851198 1.35544,-1.34619l-0.0647651 -0.0693912 -0.231304 0.060139z"/>
    <path id="_117035144" class="fil1" d="M8.97729 4.46863c0,0 -1.26978,0.342939 -2.34494,1.06589 0,0 0.53758,-0.695147 2.18738,-1.26978l0.222447 0.0648803 -0.0648803 0.139029 0 -1.64629e-005z"/>
    <path id="_117035072" class="fil1" d="M10.3774 4.17662c0,0 -0.208174,0.254434 -0.282191,0.518121 0,0 0.198921,-0.337704 0.522747,-0.550503l-0.0370086 -0.0508869 -0.203547 0.0832694z"/>
    <path id="_117035000" class="fil1" d="M11.2101 4.25527c0,0 0.57826,0.282191 0.957598,0.60139 0,0 -0.328452,-0.453356 -0.703164,-0.675407l-0.152661 -0.00925216 -0.101774 0.0832694z"/>
    <polygon id="_117034928" class="fil2" points="9.08988,10.128 9.08988,9.36442 9.45506,10.0948 "/>
    <polygon id="_117034856" class="fil2" points="9.54102,10.1631 9.70082,9.5438 9.84413,10.2126 "/>
    <polygon id="_117034784" class="fil2" points="12.2859,10.1942 12.662,9.67693 12.5497,10.3516 "/>
   </g>
  </g>
 </g>
</svg>
