<?xml version="1.0" encoding="UTF-8"?>
<!DOCTYPE svg PUBLIC "-//W3C//DTD SVG 1.1//EN" "http://www.w3.org/Graphics/SVG/1.1/DTD/svg11.dtd">
<!-- Creator: CorelDRAW -->
<svg xmlns="http://www.w3.org/2000/svg" xml:space="preserve" width="129.436mm" height="197.989mm" style="shape-rendering:geometricPrecision; text-rendering:geometricPrecision; image-rendering:optimizeQuality; fill-rule:evenodd; clip-rule:evenodd"
viewBox="0 0 6.43429 9.84203"
 xmlns:xlink="http://www.w3.org/1999/xlink">
 <defs>
  <style type="text/css">
   <![CDATA[
    .fil0 {fill:none}
    .fil5 {fill:#4B3446}
    .fil1 {fill:#501D33}
    .fil6 {fill:#634C54}
    .fil7 {fill:#896E6B}
    .fil4 {fill:#D77D75}
    .fil2 {fill:#FFCFA5}
    .fil3 {fill:white}
   ]]>
  </style>
 </defs>
 <g id="Layer_x0020_1">
  <metadata id="CorelCorpID_0Corel-Layer"/>
  <g id="_222575504">
   <g>
    <rect id="_290722152" class="fil0" width="6.43429" height="9.84204"/>
    <g id="_163720752">
     <path id="_166341600" class="fil1" d="M1.3468 2.83697c0.00912181,0.520888 0.0316256,1.68823 0.0316256,1.72252 0,2.26966 3.67861,2.26965 3.67861,0 0,-0.0329429 0.0207739,-1.22107 0.0304872,-1.77617 0.0040812,-0.232957 -0.0548949,-0.366398 -0.242098,-0.521007 -0.822096,-0.678971 -2.35735,-0.686159 -3.21303,-0.038416 -0.21516,0.16287 -0.290426,0.337248 -0.285595,0.61308z"/>
     <path id="_166334016" class="fil2" d="M4.61126 2.24789c-0.388659,-0.25645 -0.877086,-0.384682 -1.39354,-0.384682 -0.494929,0 -0.989848,0.117768 -1.3723,0.35329 -0.333709,0.205512 -0.390205,0.347911 -0.383439,0.722074 0.0103695,0.572735 0.0274052,1.52717 0.0274052,1.61742 0,0.480603 0.176541,0.908463 0.557246,1.20989 0.328181,0.25986 0.756036,0.382231 1.17111,0.382231 0.41507,-4.97101e-006 0.842915,-0.122381 1.1711,-0.382241 0.380685,-0.301437 0.557226,-0.729297 0.557226,-1.20989 0,-0.0874451 0.0160116,-0.986478 0.0264309,-1.56323 0.00748138,-0.414046 0.00939024,-0.500318 -0.361234,-0.744872l0 4.97101e-006z"/>
     <path id="_166331424" class="fil3" d="M4.61126 2.24789c-0.388659,-0.25645 -0.877086,-0.384682 -1.39354,-0.384682 -0.494929,0 -0.989848,0.117768 -1.3723,0.35329 -0.333709,0.205512 -0.390205,0.347911 -0.383439,0.722074 0.00620382,0.342587 0.0148037,0.821674 0.0207043,1.17076 0.0094499,-0.00481194 0.0140282,-0.00813755 0.0125518,-0.00961394 0,0 0.0169412,-1.23571 0.0728204,-1.40336 0.33096,-0.99292 2.97994,-0.956537 3.31369,-0.00279868 0.0583696,0.166802 0.0700664,1.40898 0.0700664,1.40898 -0.000581609,0.000581609 -0.000164043,0.00146645 0.00101906,0.00259487 0.00559239,-0.330622 0.0135758,-0.776204 0.0196504,-1.11237 0.00748138,-0.414046 0.00939024,-0.500318 -0.361234,-0.744872l9.94203e-006 0z"/>
     <path id="_166328352" class="fil4" d="M1.5695 4.61992c0.0126711,0.436619 0.18174,0.824279 0.530681,1.10055 0.313015,0.247845 0.721085,0.364564 1.11698,0.364564 0.395882,0 0.803947,-0.116724 1.11697,-0.364574 0.34892,-0.276299 0.517995,-0.663958 0.530656,-1.10059 -0.0756439,0.30005 -0.23839,0.564608 -0.49729,0.769622 -0.322375,0.255252 -0.74264,0.375466 -1.15035,0.375466 -0.407718,0 -0.827982,-0.120209 -1.15035,-0.375456 -0.25891,-0.205 -0.421656,-0.469547 -0.497305,-0.769582z"/>
    </g>
    <path id="_290727888" class="fil4" d="M3.0941 2.54009c-0.120716,-0.0191235 -0.31385,-0.0112494 -0.432478,0.165172 0.106623,-0.410561 0.629842,-0.227737 0.552245,-0.202673 -0.0451716,0.0145899 -0.0647524,0.0462105 -0.119767,0.0375013z"/>
    <path id="_290723640" class="fil4" d="M2.90923 2.4898c0,0 -0.408607,-0.120343 -0.752845,0.0419802 0,0 0.229492,-0.201505 0.512159,-0.201505 0.282667,0 0.240687,0.159525 0.240687,0.159525z"/>
    <path id="_290723064" class="fil4" d="M2.79847 1.65789c0.0440084,-0.00951452 0.0880317,-0.0182784 0.131861,-0.0263613 0.229169,-0.0422536 0.387729,-0.0422536 0.616893,0 0.566725,0.104486 1.11567,0.325497 1.31562,0.837651 -0.075107,0.061566 -0.15686,0.11577 -0.15686,0.11577 0,0 -0.131538,-0.321848 -0.503758,-0.428198 -0.372225,-0.10635 -0.808819,0.400211 -1.0579,0.380621 -0.386983,-0.421249 -0.444767,-0.696399 -0.345853,-0.879482z"/>
    <path id="_290723232" class="fil4" d="M3.01838 2.52338c-1.62943,-0.747884 -0.881371,0.605017 -1.53856,1.06338l0.156865 -1.01962 0.050421 -0.453789c0,0 0.280117,-0.268912 0.711496,-0.117649 0.43138,0.151263 0.619776,0.527678 0.619776,0.527678z"/>
    <g>
     <path id="_290723352" class="fil4" d="M4.66641 2.15194c0.160787,0.178082 0.263449,0.409835 0.274813,0.712789l0.0266297 0.71002c-0.333938,-0.380322 -0.332332,-1.05386 -0.301442,-1.42281z"/>
     <path id="_290723568" class="fil4" d="M1.4923 3.59389l4.97101e-006 -0.734383c0,-0.325959 0.12266,-0.568604 0.314973,-0.750439 0.0345734,0.363118 0.0502371,1.09349 -0.314978,1.48482z"/>
    </g>
    <path id="_290723784" class="fil1" d="M4.8705 2.34263c0,0 -0.0809281,-0.232574 0.152287,-0.408085 0,0 -0.0947773,0.189982 0.0498344,0.417177l-0.097745 0.0640366c0,0 -0.0894186,-0.0702802 -0.104376,-0.0731286z"/>
    <path id="_290723856" class="fil1" d="M4.92424 2.24831c0,0 0.116948,-0.188565 0.372105,-0.124812 0,0 -0.186776,0.0413887 -0.263842,0.271497l-0.10027 -0.0321227c0,0 -0.00150622,-0.102472 -0.00799339,-0.114562z"/>
    <path id="_290724072" class="fil1" d="M4.49158 2.0235c0,0 0.302526,0.252105 0.33614,0.84035l0.0280117 0.560233c0,0 0.0224093,0.196082 0.151263,0.352947 0.128854,0.156865 -0.021087,-0.317936 0.303848,-0.822146 0,0 -0.0420597,-0.0280514 -0.114825,-0.0196355 0,0 0.00561227,-0.107757 0.165137,-0.219704 0,0 -0.0419454,-0.0671534 -0.229492,-0.0573406 0,0 0.00419554,-0.193144 0.191707,-0.372259 0,0 -0.127303,-0.0391616 -0.312016,0.0224093 0,0 -0.19033,-0.230918 -0.165142,-0.594747 0,0 -0.204304,0.0111947 -0.310654,0.176317l-0.0329031 0.0813357 -0.0110754 0.0522404z"/>
    <path id="_290724144" class="fil5" d="M4.78622 1.78827c0,0 -0.0139685,0.345023 0.202544,0.588076 0,0 0.117336,-0.0460962 0.236068,-0.0516836 0,0 -0.145273,0.107558 -0.155051,0.377151l-0.00265452 0.0219421c0,0 0.084209,-0.0139188 0.196952,0.00278377 0,0 -0.110486,0.0646729 -0.141217,0.237883l-0.00321625 0.027962c0,0 0.0525536,-0.0161359 0.103009,-0.0164889 0,0 -0.188928,0.195823 -0.214116,0.621223 0,0 -0.069967,-0.111947 -0.0755644,-0.195908 -0.00559736,-0.0839604 0.0559736,-0.982337 -0.372225,-1.39094l-0.0161856 -0.0124673c0,0 -0.00139685,-0.129907 0.241656,-0.209528z"/>
    <path id="_290723952" class="fil6" d="M4.78622 1.78827c0,0 -0.012855,0.318314 0.178012,0.558836 -0.249013,-0.140367 -0.212401,-0.456185 -0.194426,-0.553234 0.00535875,-0.00189396 0.010797,-0.00376306 0.0164143,-0.00560233z"/>
    <path id="_290724528" class="fil1" d="M4.23344 1.74246c0,0 0.174607,-0.189928 0.180736,-0.355348 0,0 0.361472,0.267351 0.137851,0.665584 0,0 -0.194814,0.0724128 -0.373731,-0.147878l-0.0153157 -0.0643299 0.0704591 -0.0980284z"/>
    <path id="_290724336" class="fil6" d="M4.44217 1.51631c0,0 0.198776,0.202121 0.0521062,0.481492 0,0 -0.18857,0.0223497 -0.262604,-0.152257 0,0 0.167195,-0.161613 0.210498,-0.329235z"/>
    <path id="_290724408" class="fil5" d="M4.44454 1.51883c0.021957,0.02401 0.186905,0.217701 0.04974,0.478967 0,0 -0.0558642,0.00659653 -0.118723,-0.0155245 0.00321625,-0.0218973 0.0135758,-0.0490142 0.033783,-0.0826133 0.0786563,-0.130787 0.0584939,-0.287921 0.0351997,-0.380829z"/>
    <path id="_290724624" class="fil5" d="M4.54122 1.71734c0.0147142,0.0774086 0.00934551,0.173235 -0.0469463,0.28046 0,0 -0.18857,0.0223497 -0.262604,-0.152257 0,0 0.0472843,-0.0456985 0.0980632,-0.113687 0.0842885,0.00820714 0.155975,-0.000825188 0.211487,-0.0145154z"/>
    <path id="_290724696" class="fil1" d="M3.01588 2.52523c0,0 -0.349835,-0.159525 -0.548541,0.103551 0.138269,-0.382674 0.57885,-0.251971 0.562535,-0.172067l-0.0139934 0.0685155z"/>
    <path id="_290724960" class="fil1" d="M3.94602 1.50675c0,0 0.0982173,-0.0581957 0.136673,-0.263613 0,0 0.324289,0.2152 0.227081,0.519277 -0.0972032,0.304077 -0.400385,0.154196 -0.400385,0.154196l0.0366314 -0.40986z"/>
    <path id="_290725056" class="fil6" d="M4.11434 1.34687c0.0935097,0.0995793 0.15351,0.23322 0.135366,0.357948 -0.0218973,0.150542 -0.170675,0.255828 -0.326735,0.151904l0.0433025 -0.258418c0,0 0.134098,-0.115939 0.148067,-0.251434z"/>
    <path id="_290725272" class="fil5" d="M4.12368 1.35707c0.0881162,0.0983913 0.143553,0.22723 0.12602,0.347747 -0.0147043,0.101081 -0.0865951,0.18174 -0.179503,0.192383 -0.00200829,-0.0247855 0.0073571,-0.0583498 0.0346281,-0.103695 0.0980284,-0.163004 0.0425718,-0.366925 0.0188551,-0.436435z"/>
    <path id="_290725368" class="fil5" d="M4.24315 1.73606c-0.0364972,0.133149 -0.175183,0.217223 -0.320183,0.120661l0.0270125 -0.16119c0.0313124,-0.0012527 0.0535328,-0.0117515 0.0535328,-0.0117515 0.0449827,0.0817881 0.173588,0.0664674 0.239638,0.0522801z"/>
    <path id="_290725152" class="fil1" d="M3.71903 1.48795c0,0 0.0949861,-0.153654 0.104764,-0.290546 0.175845,0.0895528 0.248566,0.286276 0.228388,0.474419 -0.0264209,0.246393 -0.201928,0.383668 -0.409353,0.513312 -0.223889,0.139929 0.0762007,-0.697185 0.0762007,-0.697185z"/>
    <path id="_290726664" class="fil6" d="M3.8657 1.31753c0.0251434,-0.00279371 0.331229,0.412868 -0.150144,0.729118l0.00279868 -0.349835c0,0 0.120806,-0.201883 0.147346,-0.379283z"/>
    <path id="_290725632" class="fil5" d="M3.97893 1.69167c-0.0192925,0.115168 -0.0906116,0.241487 -0.263374,0.354985l0.00279868 -0.349835c0,0 0.0164391,-0.0274748 0.0385055,-0.0710159 0.0337035,-0.000745652 0.0574251,-0.00969845 0.0574251,-0.00969845 0.0537615,0.0866149 0.126994,0.0841344 0.164645,0.0755644z"/>
    <path id="_290725704" class="fil1" d="M3.30975 1.15387c0.437554,-0.0875346 0.547159,0.25117 0.531655,0.562197 -0.0131632,0.26415 -0.135579,0.54794 -0.468667,0.669243l0.0517582 -0.55136 -0.114746 -0.680079z"/>
    <path id="_290725920" class="fil6" d="M3.32074 1.23127c0,0 0.246826,-0.0725967 0.36782,0.111316 0.120994,0.183913 0.125265,0.806015 -0.310494,0.988257l0.0418907 -0.511542 -0.0992165 -0.588031z"/>
    <path id="_290725992" class="fil7" d="M3.32074 1.23127c0,0 0.226807,-0.0666861 0.352161,0.0898113 -0.103014,-0.0479255 -0.20673,-0.0263215 -0.20673,-0.0263215 -0.0477118,-0.0240995 -0.0962637,-0.0418211 -0.143936,-0.0546215l-0.00149628 -0.00886829z"/>
    <path id="_290725800" class="fil5" d="M3.75824 1.62576c0.00875395,0.254511 -0.0841593,0.58128 -0.380173,0.705084l0.0418858 -0.511542 -0.0179404 -0.106335c0.174791,-0.0358211 0.185981,-0.176486 0.185981,-0.176486l0.00773987 -0.00232146 0.00902239 0.0148932c0.0479106,0.0654782 0.109501,0.0779902 0.153485,0.0767077z"/>
    <path id="_290726136" class="fil1" d="M2.54571 1.14827c0,0 0.240687,-0.25468 0.724858,-0.0447789 0.484172,0.209901 0.503668,1.09422 -0.0265353,1.37978l0.0181392 -0.503797 -0.559736 -0.736053 -0.156726 -0.0951551z"/>
    <path id="_290726328" class="fil6" d="M2.60553 1.2165c0,0 0.213918,-0.226355 0.644238,-0.0397979 0.430326,0.186557 0.400475,0.942733 0.00249048,1.24371l-0.00995197 -0.465148 -0.497484 -0.65419 -0.139293 -0.0845719z"/>
    <path id="_290726448" class="fil7" d="M2.60553 1.2165c0,0 0.213913,-0.22635 0.644248,-0.0397979 0.0463746,0.0201028 0.0873556,0.0468419 0.123157,0.078895 -0.344442,-0.136549 -0.528001,-0.0489545 -0.528001,-0.0489545l0.257409 0.18607c-0.128123,-0.0865105 -0.276816,-0.117758 -0.410362,-0.123729l-0.0864509 -0.052484z"/>
    <path id="_290726616" class="fil5" d="M3.55321 1.6223c0.0405784,0.284113 -0.0660051,0.620432 -0.300955,0.798121l-0.00993208 -0.465163 -0.0638278 -0.0839306c0.125657,-0.0477814 0.116163,-0.150463 0.116163,-0.150463 0.148812,0.00523448 0.222329,-0.0479802 0.258552,-0.0985653z"/>
    <path id="_290726088" class="fil1" d="M1.916 1.32459c0.365926,-0.313268 0.97672,-0.249992 1.23776,0.0292743 0.174671,0.18687 0.23758,0.493547 0.186259,0.82919 -0.0228517,0.149449 -0.0509529,0.352137 -0.197896,0.358122 0,0 -0.386521,-0.704427 -0.705571,-0.914328 -0.31905,-0.209901 -0.520555,-0.302257 -0.520555,-0.302257z"/>
    <path id="_290726808" class="fil6" d="M1.95154 1.37393c0.444722,-0.273585 0.932821,-0.195177 1.14339,0.0467772 0.177594,0.204065 0.247333,0.61645 0.102294,1.00884 0,0 -0.0184574,0.0434119 -0.119772,0.0421592 0,0 -0.346112,-0.630777 -0.631801,-0.818731 -0.285684,-0.187954 -0.494114,-0.279048 -0.494114,-0.279048z"/>
    <path id="_290726880" class="fil7" d="M2.00442 1.34321c0.374089,-0.205631 0.769617,-0.17071 0.999303,-0.00508535 -0.314138,-0.14062 -0.690613,-0.026575 -0.690613,-0.026575l-0.305056 0.0503762c0,0 -0.00164541,-0.00722288 -0.00363381,-0.0187159z"/>
    <path id="_290727144" class="fil5" d="M3.26149 1.8148c0.0295676,0.187039 0.013715,0.403781 -0.0642653,0.614745 0,0 -0.0184574,0.0434119 -0.119772,0.0421592 0,0 -0.0917649,-0.167215 -0.219778,-0.355104 0.0138343,-0.00741675 0.0299653,-0.0128451 0.0487607,-0.0158227 0.229492,-0.0363828 0.20663,-0.212292 0.20663,-0.212292 0.0783332,-0.0129594 0.122988,-0.0427557 0.148425,-0.0736853z"/>
    <path id="_290727240" class="fil1" d="M2.16862 2.02333c-0.088151,-0.004116 -0.183734,0.0120845 -0.287722,0.0561973 -0.369749,0.156865 -0.285719,0.761917 -0.285719,0.761917 0,0 0.140058,0.700292 -0.302521,0.969203 0,0 0.123241,-0.330538 -0.0616257,-0.789929 -0.16032,-0.398372 -0.371196,-1.19694 0.346495,-1.60216 0.292728,-0.165276 0.646888,-0.192418 0.966718,-0.093977 0.342831,0.10552 0.710537,0.394689 0.692417,1.15271 -0.00214251,0.0752065 -0.123972,0.07803 -0.21087,0.0502072 -0.333142,-0.106673 -0.471212,-0.48616 -0.857172,-0.50417z"/>
    <path id="_290726976" class="fil6" d="M3.16142 2.47205c0,0 0.0559736,-1.04391 -0.850799,-1.11667 0,0 -0.976739,-0.120343 -1.14745,0.825611 0,0 -0.0475776,0.333043 0.176312,0.828409 0,0 0.128739,0.321848 0.069967,0.556937 0,0 0.153927,-0.151129 0.10635,-0.680079 0,0 -0.0504061,-0.354379 0.0595826,-0.618717 0.138065,-0.3318 0.51027,-0.389012 0.805468,-0.28207 0.238927,0.0865453 0.545261,0.534697 0.780573,0.486583z"/>
    <path id="_290727384" class="fil5" d="M3.16142 2.47205c0,0 0.0123878,-0.231445 -0.0691518,-0.483988 -0.0245767,0.0465138 -0.0766282,0.0954037 -0.185831,0.112718 -0.0989679,0.0156885 -0.125026,0.0985354 -0.121357,0.189251 0.131627,0.112126 0.262315,0.205333 0.376341,0.182019z"/>
    <path id="_290727552" class="fil7" d="M2.70321 1.47185c-0.105102,-0.0612926 -0.23411,-0.103755 -0.392591,-0.116471 0,0 -0.976739,-0.120343 -1.14745,0.825611 0,0 -0.0475776,0.333043 0.176312,0.828409 0,0 0.0247457,0.0618295 0.0475825,0.151084 -0.0218625,-0.241084 -0.128138,-0.47423 -0.151432,-0.771437 -0.0202022,-0.253979 0.0503762,-0.435784 0.12348,-0.552314 0.255704,-0.407578 0.918882,-0.523358 1.3441,-0.364882z"/>
    <path id="_290727672" class="fil5" d="M1.41398 3.54613c-0.001372,0.00679538 -0.00287325,0.0135361 -0.00453854,0.0202022 0,0 0.153927,-0.151129 0.10635,-0.680079 0,0 -0.0504061,-0.354379 0.0595826,-0.618717 0.138065,-0.3318 0.51027,-0.389012 0.805468,-0.28207 0.209255,0.075798 0.470213,0.428954 0.689882,0.483178 -0.212496,-1.03664 -1.91839,-1.09976 -1.66089,0.188128 0.0794567,0.397363 0.0540946,0.713127 0.00414583,0.889359z"/>
    <path id="_290727840" class="fil7" d="M1.32238 1.90207c0,0 0.24781,-0.495361 1.17265,-0.397413 0,0 -0.358231,-0.109149 -0.755644,-0.00839604l-0.162323 0.069967c0,0 -0.193109,0.128739 -0.25468,0.335842z"/>
    <path id="_290727336" class="fil1" d="M3.05858 2.50299c-0.0285883,-0.114423 -0.159659,-0.519168 -0.575151,-0.731246 0.332809,0.096204 0.621397,0.438662 0.667975,0.727398 -0.014068,0.00542835 -0.0776273,0.00198841 -0.0928237,0.00384756z"/>
    <path id="_290730288" class="fil6" d="M2.50737 1.77883c-0.369242,-0.146302 -0.753228,0.0518278 -0.966698,0.33874 0,0 0.120343,-0.363828 0.582126,-0.478574 0,0 0.128739,-0.00279868 0.142733,0.00279868 0.0139934,0.00559736 0.247437,0.137036 0.24184,0.137036z"/>
    <path id="_290728176" class="fil7" d="M1.63863 1.69777c0,0 0.405809,-0.198706 0.985136,-0.0195908 0,0 -0.128739,-0.10635 -0.419802,-0.128739 -0.291063,-0.0223894 -0.570931,0.151129 -0.565333,0.14833z"/>
    <path id="_290727984" class="fil5" d="M3.54171 1.79712c0,0 0.0391815,-0.369426 -0.279868,-0.576528 0,0 0.198706,0.179116 0.19031,0.601716l0.0660001 0.0228766c0,0 0.0251434,-0.0433025 0.0235576,-0.0480647z"/>
    <path id="_290728056" class="fil5" d="M3.26916 1.8836c0,0 -0.0137498,-0.371245 -0.359002,-0.530874 0,0 0.222155,0.149041 0.273933,0.56854l0.0685851 0.0132577c0,0 0.0187308,-0.0464342 0.0164839,-0.0509231z"/>
    <path id="_290728272" class="fil7" d="M3.0097 1.15654c0,0 0.208131,0.0544773 0.32407,0.265402 0,0 -0.0502868,-0.162035 -0.171813,-0.264006l-0.0796207 -0.00698427 -0.0726364 0.00558742z"/>
    <path id="_290728344" class="fil7" d="M2.53294 1.26555c0,0 0.214962,-0.00885337 0.38758,0.158874 0,0 -0.095528,-0.140207 -0.241586,-0.202121l-0.0781742 0.016638 -0.0678195 0.0266098z"/>
    <path id="_290728608" class="fil1" d="M1.38955 3.58688c0,0 0.109149,-0.310654 0.0419802,-0.834007 0,0 0.153927,0.517756 0.0475776,0.814416l-0.0548402 0.0393307 -0.0347176 -0.0197399z"/>
    <path id="_290728704" class="fil1" d="M5.02116 2.30475c0,0 -0.0977798,0.0405088 -0.135495,0.155051 0,0 0.0880018,-0.103367 0.210925,-0.117336l0 -0.0181591 -0.0754302 -0.019556z"/>
   </g>
   <g>
    <polygon id="_233890512" class="fil3" points="4.3839,2.4342 4.05618,2.75025 3.39549,2.89694 3.93085,2.6744 "/>
    <path id="_233895984" class="fil4" d="M4.38858 2.43211c0,0 -0.467608,0.189495 -1.00985,0.46906 0,0 0.5017,-0.14148 0.596243,-0.173956 0.0945387,-0.0324756 0.413608,-0.295104 0.413608,-0.295104z"/>
    <path id="_233889024" class="fil4" d="M3.52557 2.47482c0.0157233,0.0164093 0.446258,0.315187 0.794209,0.462071 0,0 -0.328042,-0.295736 -0.378513,-0.312026 -0.0504707,-0.01629 -0.415696,-0.150045 -0.415696,-0.150045z"/>
   </g>
  </g>
 </g>
</svg>
