<?xml version="1.0" encoding="UTF-8"?>
<!DOCTYPE svg PUBLIC "-//W3C//DTD SVG 1.1//EN" "http://www.w3.org/Graphics/SVG/1.1/DTD/svg11.dtd">
<!-- Creator: CorelDRAW -->
<svg xmlns="http://www.w3.org/2000/svg" xml:space="preserve" width="129.436mm" height="197.989mm" style="shape-rendering:geometricPrecision; text-rendering:geometricPrecision; image-rendering:optimizeQuality; fill-rule:evenodd; clip-rule:evenodd"
viewBox="0 0 10.9852 16.8032"
 xmlns:xlink="http://www.w3.org/1999/xlink">
 <defs>
  <style type="text/css">
   <![CDATA[
    .fil6 {fill:none}
    .fil5 {fill:#4B3446}
    .fil0 {fill:#501D33}
    .fil3 {fill:#634C54}
    .fil4 {fill:#896E6B}
    .fil2 {fill:#D77D75}
    .fil1 {fill:#FFCFA5}
   ]]>
  </style>
 </defs>
 <g id="Layer_x0020_1">
  <metadata id="CorelCorpID_0Corel-Layer"/>
  <g id="_167449672">
   <g id="_161413944">
    <path id="_161413152" class="fil0" d="M2.29942 4.8411c0.0155735,0.889305 0.053994,2.88229 0.053994,2.94083 0,3.87497 6.28046,3.87494 6.28046,0 0,-0.056243 0.0354669,-2.08472 0.0520504,-3.03244 0.00696778,-0.397724 -0.0937213,-0.625547 -0.413331,-0.889508 -1.40356,-1.1592 -4.02467,-1.17147 -5.48558,-0.0655871 -0.36734,0.278066 -0.495841,0.57578 -0.487592,1.0467z"/>
    <path id="_102415800" class="fil1" d="M7.87281 3.83537c-0.66356,-0.437833 -1.49745,-0.656762 -2.37918,-0.656762 -0.844977,0 -1.68995,0.201064 -2.34291,0.603167 -0.569737,0.350867 -0.666191,0.593984 -0.654641,1.23279 0.0177038,0.977823 0.0467885,2.60733 0.0467885,2.7614 0,0.820526 0.301405,1.55101 0.951378,2.06565 0.560308,0.443655 1.29078,0.652578 1.99942,0.652578 0.708643,-8.48695e-006 1.4391,-0.20894 1.9994,-0.652595 0.649947,-0.51464 0.951353,-1.24513 0.951353,-2.06564 0,-0.149294 0.0273365,-1.6842 0.0451251,-2.66887 0.0127729,-0.706903 0.0160318,-0.854194 -0.616729,-1.27172l0 8.48695e-006z"/>
    <path id="_161413080" class="fil2" d="M2.68097 7.8851c0.0216332,0.745442 0.310283,1.40729 0.906024,1.87897 0.534415,0.423142 1.23111,0.622416 1.90701,0.622416 0.675883,0 1.37257,-0.199282 1.90699,-0.622433 0.595716,-0.471721 0.884374,-1.13357 0.90599,-1.87904 -0.129146,0.512272 -0.407,0.963956 -0.849026,1.31397 -0.550387,0.435788 -1.2679,0.641028 -1.96397,0.641028 -0.696082,0 -1.41359,-0.205231 -1.96397,-0.641011 -0.442034,-0.349993 -0.719888,-0.80166 -0.849043,-1.31391zm1.08228 -3.49251c0.22874,0.196447 0.622526,0.426766 1.24809,0.489323l-0.0812286 -0.215017c0,0 1.19129,0.279373 2.216,-0.142292 0.0597651,0.180432 0.26318,0.574982 0.913331,0.6736 0,0 0.0960722,0.288089 0.42136,0.393387l0.00874155 -0.484503c0.0127729,-0.706903 0.0160318,-0.854194 -0.616729,-1.27172l-0.00828326 -0.00541467c-0.160921,-0.322818 -1.22602,-0.403206 -1.2573,-0.410157 -0.0430034,-0.0095563 -2.74851,-0.0309349 -2.74851,-0.0309349l-0.0371983 0.0719014c-0.238746,0.0869233 -0.464372,0.193893 -0.6708,0.32101 -0.569737,0.350867 -0.666191,0.593984 -0.654641,1.23279 0.0046169,0.255084 0.0100316,0.554512 0.0154802,0.860534 0.310206,-0.161498 0.469065,-0.601377 0.469065,-0.601377 0.371762,-0.1432 0.580006,-0.432376 0.689768,-0.65173 0.0983637,0.0910225 0.233646,0.1791 0.418763,0.240809 0,0 -0.20036,-0.143107 -0.355289,-0.385163 0.0127474,-0.0334725 0.0223631,-0.0623281 0.0293733,-0.0850477l8.48695e-006 0z"/>
    <path id="_162380840" class="fil0" d="M3.52072 4.24694c0.0947568,0.136377 0.262688,0.298927 0.554104,0.396069 0,0 -0.225872,-0.161362 -0.383415,-0.431154 0.357979,0.216723 0.820102,0.259259 1.13818,0.30093 0,0 -0.0958091,-0.160921 -0.220737,-0.438215 0.908383,0.396943 1.87699,0.45339 2.70253,-0.0438605 0.00300438,0.0874155 0.0105832,0.178837 0.0242812,0.273169 0.0683539,0.470779 0.54252,0.70827 0.785119,0.800132 0.222952,0.427674 0.593806,0.563542 0.593806,0.563542 -0.122263,-0.687366 0.473877,-1.37759 -0.116051,-1.8829 0.315409,-0.101818 0.483382,-0.223724 0.483382,-0.223724 -1.557,-0.460476 -2.48204,-2.16953 -4.23304,-1.27437 -0.173312,-0.0382761 -0.349475,-0.0467206 -0.523662,-0.0198934 -0.333613,0.05138 -0.662058,0.196727 -0.942976,0.614956 -0.0787504,-0.078691 -0.182656,-0.222621 -0.231999,-0.46242 0,0 -0.0954018,0.256017 -0.00628034,0.521124 -0.229165,-0.0482059 -0.430865,0.0233646 -0.430865,0.0233646 0.147732,0.032819 0.258521,0.0859473 0.339868,0.140586 -0.532327,0.0988644 -0.715025,0.366543 -0.702337,0.659096 -0.859431,0.640637 -0.0147673,1.27856 0.0141308,2.0476 0,0 0.345936,-0.190557 0.501426,-0.647104 0.225855,-0.12761 0.658494,-0.434294 0.654632,-0.909996l-8.48695e-005 -0.00693383 -8.48695e-006 -8.48695e-006z"/>
    <path id="_162379568" class="fil3" d="M3.34316 3.88146c0.0171691,0.119708 0.0262501,0.240019 0.0272176,0.359549 0.00207081,0.254354 -0.132719,0.481778 -0.341914,0.666684 -0.048749,0.0430882 -0.109371,0.0903266 -0.173694,0.133746 -0.0144787,-0.0844791 -0.0442,-0.171564 -0.0803884,-0.256874 0.0149964,0.106791 0.00507519,0.212505 -0.0119326,0.307737 -0.0465679,0.155854 -0.124037,0.304978 -0.238144,0.437375 -0.0155057,0.0179923 -0.0337865,0.0378942 -0.0538751,0.0582544 -0.0303578,-0.186764 -0.0979818,-0.367493 -0.169595,-0.55037 -0.0808127,-0.206386 -0.179219,-0.439395 -0.169977,-0.656508 0.0079947,-0.187808 0.102115,-0.342822 0.240792,-0.473623 0.0254014,0.104372 0.071825,0.208889 0.1326,0.307355 -0.139262,-0.380402 -0.0953084,-0.732177 0.466103,-0.913764 0.0509811,-0.0164986 0.11807,-0.0332264 0.182792,-0.0430882 0.0185694,-0.00531283 0.0533574,-0.0152765 0.0972265,-0.0277438l-0.000118817 0.000263095c0,0 0.0217181,0.0203347 0.064051,0.0559799 0.544124,-0.97358 1.42053,-1.11928 2.36699,-0.57359 -0.177776,-0.147758 -0.371083,-0.265955 -0.571884,-0.345767 0.371669,-0.158392 0.774807,-0.222171 1.20419,-0.10186 0.462131,0.129477 0.899811,0.441703 1.29087,0.7081 0.346539,0.236064 0.690693,0.464312 1.06763,0.636971 -0.0536884,0.0185949 -0.105433,0.0346098 -0.151662,0.047459 -0.271862,0.0755423 -0.553612,0.106528 -0.836075,0.101113l0.00190108 -0.00162101c-0.253301,-0.032191 -0.573836,-0.0776725 -0.876727,-0.199919 0.162406,0.116628 0.332264,0.224064 0.504982,0.304571 -0.12604,0.0740316 -0.25813,0.13961 -0.375098,0.188953 -0.904403,0.381531 -1.68373,0.13041 -2.5601,-0.202541 -0.222748,-0.0846233 -0.447517,-0.166548 -0.648471,-0.253548 0.175221,0.116101 0.396077,0.248099 0.658918,0.377559 0.0219472,0.105883 0.0553179,0.216519 0.105493,0.321884 -0.616568,-0.135087 -1.14881,-0.301983 -1.32023,-0.872059 0.027956,0.18398 0.0870082,0.334954 0.168092,0.459322l2.54608e-005 0zm4.112 0.0559884c0.0022745,0.111281 0.011398,0.221934 0.0272176,0.330889 0.0365533,0.251731 0.204281,0.456072 0.439106,0.607088 0.0547238,0.0351954 0.121813,0.0726907 0.191983,0.105841 0.00148522,-0.0856842 0.0176528,-0.176257 0.0404742,-0.266057 0.00137489,0.10781 0.0272176,0.210765 0.0584751,0.302297 0.0696693,0.147002 0.168882,0.282658 0.30177,0.396222 0.0180517,0.0154293 0.0391418,0.0323268 0.0620905,0.0494025 0.00166344,-0.189216 0.0410768,-0.37811 0.0841226,-0.569746 0.0485623,-0.216256 0.110475,-0.461495 0.0683963,-0.674687 -0.0359931,-0.182393 -0.150372,-0.320297 -0.304681,-0.428014 -0.0104814,0.10545 -0.0428166,0.215738 -0.090369,0.323998 0.0187392,-0.0920409 0.0280748,-0.181086 0.0241369,-0.26481 -0.236565,0.0526615 -0.527769,0.085192 -0.869004,0.0637794 -0.0112028,0.00807109 -0.0224565,0.015947 -0.0337186,0.0237974z"/>
    <path id="_166338648" class="fil4" d="M3.33421 3.27168c0,0 0.5686,-0.616381 1.8778,-0.396587 0,0 -0.412041,-0.237439 -1.07568,-0.169527 0.760362,-0.254574 1.60406,0.110721 2.359,0.610975 -0.115108,-0.0925417 -0.224081,-0.18353 -0.324906,-0.264971 -1.12673,-0.910098 -2.21879,-0.904768 -2.85576,0.234206l0.000441321 0.00501579c0.00964966,-0.0114234 0.0193587,-0.0224225 0.0290678,-0.0335149l-0.00995519 0.0144023 -8.48695e-006 0zm5.23766 2.18816l0.00440472 0.00329294c0.00166344,-0.189216 0.0410768,-0.37811 0.0841226,-0.569746 0.0485623,-0.216256 0.110475,-0.461495 0.0683963,-0.674687 -0.0353991,-0.179406 -0.146654,-0.315757 -0.297136,-0.422692 0.00477815,0.00983637 0.00980242,0.0198 0.0151492,0.0299335 0.334258,0.633601 -0.0958685,1.06487 0.125064,1.6339zm-6.08154 0.10747c-0.00639067,0.00677258 -0.0130444,0.013681 -0.0198934,0.0206233 -0.0303578,-0.186764 -0.0979818,-0.367493 -0.169595,-0.55037 -0.0808127,-0.206386 -0.179219,-0.439395 -0.169977,-0.656508 0.0079947,-0.187799 0.102123,-0.342762 0.2408,-0.473563 0.00998065,0.0410089 0.0232118,0.0820263 0.0392691,0.122704 -0.0813728,0.0918457 -0.199358,0.275987 -0.137472,0.526802 0.0788183,0.319432 0.218844,0.707251 0.216867,1.01031zm0.386385 -0.540924c-0.00724785,0.00504973 -0.0145806,0.010091 -0.0219388,0.0150558 -0.035764,-0.208736 -0.164723,-0.433174 -0.253929,-0.608268 -0.234002,-0.459322 -0.298282,-0.916157 0.369513,-1.13214 0.0491903,-0.015913 0.11336,-0.0320637 0.175943,-0.0420358 -0.189047,0.0672251 -0.517746,0.248023 -0.452363,0.681629 0.0838171,0.555836 0.261313,0.806192 0.182775,1.08576zm5.79108 -1.41463l0.00433683 -0.00146824c-0.376948,-0.172658 -0.721102,-0.400906 -1.06763,-0.636971 -0.39107,-0.266397 -0.82875,-0.578623 -1.29087,-0.7081 -0.429372,-0.120311 -0.832451,-0.0565146 -1.20411,0.101877 0.0425026,0.0168975 0.0846658,0.0354924 0.126422,0.0557423 1.01077,-0.234146 1.56683,0.235861 2.17924,0.654878 -0.664095,-0.184226 -1.02296,-0.417643 -1.02296,-0.417643 0.692645,0.527727 1.46343,0.738797 1.66185,0.786774 0.185881,0.0803374 0.387276,0.140035 0.613734,0.16491z"/>
    <path id="_166338240" class="fil5" d="M7.53542 4.13821c0.0135282,0.166208 0.0978205,0.533931 0.557805,0.796262 0,0 -0.21853,-0.242829 -0.286893,-0.747046 0.297663,0.0373765 0.605637,0.021769 0.892071,-0.0720202 -0.0308331,-0.0777913 -0.077367,-0.146357 -0.135545,-0.207183 -0.0111179,-0.0116271 -0.0849204,-0.0864905 -0.139177,-0.117612 -0.000229148,0.0119242 -0.0027328,0.0277014 -0.00535526,0.0452354 -0.0141987,0.0915063 -0.0437757,0.185847 -0.0845554,0.278686 0.0187307,-0.0919391 0.0279899,-0.180874 0.024086,-0.264513 -0.244365,0.0544183 -0.54717,0.0872203 -0.903087,0.0613606 0.000755338,0.0699324 0.00420953,0.139627 0.0103456,0.208864 0.0212174,0.0057881 0.0447262,0.0118478 0.0703059,0.0179669zm-4.77297 0.954094c-0.0465679,0.155854 -0.124037,0.304978 -0.238144,0.437375 -0.0155057,0.0179923 -0.0337865,0.0378942 -0.0538751,0.0582544 -0.00480361,-0.0295346 -0.0105068,-0.0589334 -0.0170418,-0.0881963 0.280672,-0.558814 0.0445395,-1.27807 0.0309434,-1.31835 0.0288726,0.0500984 0.061471,0.098839 0.0971161,0.145424 0.0641104,0.0838001 0.0907509,0.178803 0.131268,0.258555 0.0862783,0.169849 0.077367,0.352191 0.0497335,0.506942zm0.105187 -0.0978969c0.0358489,-0.0688037 0.202414,-0.442823 0.0222019,-1.16368 0,0 0.153088,0.169306 0.244704,0.589181 0.0987881,-0.395203 0.0702974,-0.782233 0.0567777,-0.909054 0.0317582,0.144533 0.0841481,0.266762 0.151814,0.370557 0.0171776,0.119725 0.0262671,0.240062 0.0272431,0.359609 0.00207081,0.254354 -0.132719,0.481778 -0.341914,0.666684 -0.048749,0.0430882 -0.109371,0.0903266 -0.173694,0.133746 -0.00142581,-0.00830872 -0.00299589,-0.0166599 -0.00470177,-0.025011 0.00596632,-0.0072818 0.0117884,-0.014623 0.017568,-0.0220236l0 -8.48695e-006zm1.52214 -1.02209c0.0219472,0.105866 0.0553349,0.216519 0.10551,0.321893 -0.0880606,-0.0192908 -0.174364,-0.0392776 -0.258181,-0.0609532 -0.274816,-0.243143 -0.420367,-0.519537 -0.463625,-0.610568 0.167957,0.109108 0.374325,0.230446 0.616297,0.349628zm2.58965 -0.298783c0.509302,0.111552 1.0418,0.12295 1.54103,-0.0157772 0.0334555,-0.00930169 0.0697797,-0.0202923 0.107665,-0.0326832 -1.87982,0.124588 -2.19675,-0.714805 -3.12606,-1.00769 0.219158,0.107037 0.443061,0.252224 0.668347,0.434192 0.234172,0.189149 0.512331,0.42966 0.809018,0.621957l-8.48695e-006 0zm-3.19609 -0.248948c0,0 0.869632,0.635494 1.87302,0.726279 1.00339,0.0907849 1.53378,-0.296245 1.53378,-0.296245 0.000288556,-0.00378518 -0.00502427,-0.00634824 -0.015251,-0.00798622l0.00569474 -0.00157009c0,0 -1.12998,-0.0597736 -2.26717,-0.408579 0,0 0.419238,0.277863 1.05316,0.415283 -0.597804,-0.0317327 -1.36427,-0.135851 -2.18323,-0.427182z"/>
    <g>
     <circle id="_166324008" class="fil0" cx="2.64989" cy="5.94429" r="0.0512696"/>
     <circle id="_166343400" class="fil0" cx="2.56166" cy="6.13747" r="0.0345758"/>
     <circle id="_166340136" class="fil0" cx="2.79299" cy="6.14224" r="0.0464999"/>
     <circle id="_166344768" class="fil0" cx="2.65229" cy="6.39264" r="0.0512696"/>
    </g>
    <g>
     <circle id="_166339464" class="fil0" cx="8.33608" cy="5.73886" r="0.0512696"/>
     <circle id="_166338024" class="fil0" cx="8.18573" cy="6.1566" r="0.0345758"/>
     <circle id="_166340064" class="fil0" cx="8.3884" cy="6.07059" r="0.0464999"/>
     <circle id="_166337424" class="fil0" cx="8.33847" cy="6.40222" r="0.0512696"/>
    </g>
   </g>
   <rect id="_220174072" class="fil6" width="10.9852" height="16.8032"/>
  </g>
 </g>
</svg>
