<?xml version="1.0" encoding="UTF-8"?>
<!DOCTYPE svg PUBLIC "-//W3C//DTD SVG 1.1//EN" "http://www.w3.org/Graphics/SVG/1.1/DTD/svg11.dtd">
<!-- Creator: CorelDRAW -->
<svg xmlns="http://www.w3.org/2000/svg" xml:space="preserve" width="129.436mm" height="197.989mm" style="shape-rendering:geometricPrecision; text-rendering:geometricPrecision; image-rendering:optimizeQuality; fill-rule:evenodd; clip-rule:evenodd"
viewBox="0 0 7.95608 12.1698"
 xmlns:xlink="http://www.w3.org/1999/xlink">
 <defs>
  <style type="text/css">
   <![CDATA[
    .fil0 {fill:none}
    .fil1 {fill:#501D33}
    .fil3 {fill:#A78689}
    .fil4 {fill:#CDB2B3}
    .fil5 {fill:#D77D75}
    .fil2 {fill:#FFCFA5}
   ]]>
  </style>
 </defs>
 <g id="Layer_x0020_1">
  <metadata id="CorelCorpID_0Corel-Layer"/>
  <g id="_33945968">
   <rect id="_166536576" class="fil0" width="7.95608" height="12.1698"/>
   <g id="_163720752">
    <path id="_166341600" class="fil1" d="M1.66533 3.50795c0.0112792,0.644083 0.0391054,2.08751 0.0391054,2.12991 0,2.80646 4.54865,2.80645 4.54865,0 0,-0.0407342 0.0256871,-1.50987 0.0376978,-2.19626 0.00504645,-0.288053 -0.0678781,-0.453056 -0.299357,-0.64423 -1.01654,-0.839554 -2.91489,-0.848443 -3.97296,-0.0475018 -0.266048,0.201391 -0.359115,0.417011 -0.353141,0.75808z"/>
    <path id="_166334016" class="fil2" d="M5.70188 2.77954c-0.480587,-0.317103 -1.08453,-0.475663 -1.72313,-0.475663 -0.611979,0 -1.22396,0.145622 -1.69687,0.436847 -0.412635,0.254117 -0.482492,0.430196 -0.474126,0.892853 0.012822,0.708193 0.0338868,1.88837 0.0338868,1.99995 0,0.59427 0.218294,1.12333 0.68904,1.49605 0.405806,0.321319 0.934853,0.472633 1.44809,0.472633 0.513238,-6.14671e-006 1.04227,-0.151326 1.44807,-0.472645 0.470727,-0.37273 0.689022,-0.90179 0.689022,-1.49605 0,-0.108127 0.0197986,-1.21979 0.0326821,-1.93294 0.0092508,-0.511978 0.0116111,-0.618654 -0.446669,-0.921048l0 6.14671e-006z"/>
    <path id="_166339608" class="fil3" d="M1.94317 5.03374c0.00575332,-0.168088 0.0471637,-0.836241 0.0917581,-1.31928 0.0862383,-0.934023 1.06202,-0.645392 1.69177,-0.42491 0.22508,0.0787762 0.309204,0.0683391 0.540001,-0.0237017 0.143507,-0.0572382 0.305325,-0.11672 0.470389,-0.163392l-0.856587 -0.431616 1.13919 0.367155c0.452631,-0.0748669 0.864375,0.0141805 0.917206,0.586488 0.0445944,0.483033 0.0698451,1.24921 0.0755984,1.4173l0.113622 -0.00114943c0.00687202,-0.403925 0.0151762,-0.938584 0.0224293,-1.34004 0.00924465,-0.511978 0.0116111,-0.618654 -0.446669,-0.921048 -0.480587,-0.317103 -1.08453,-0.475663 -1.72313,-0.475663 -0.611979,0 -1.22396,0.145622 -1.69687,0.436847 -0.412635,0.254117 -0.482492,0.430196 -0.474126,0.892853 0.00739449,0.408246 0.0175427,0.973331 0.0247958,1.40015l0.11061 0 6.14671e-006 0z"/>
    <path id="_166331424" class="fil4" d="M5.70188 2.77954c-0.480587,-0.317103 -1.08453,-0.475663 -1.72313,-0.475663 -0.611979,0 -1.22396,0.145622 -1.69687,0.436847 -0.412635,0.254117 -0.482492,0.430196 -0.474126,0.892853 0.00767109,0.423613 0.0183049,1.01601 0.025601,1.44766 0.0116849,-0.00595001 0.017346,-0.0100622 0.0155204,-0.0118877 0,0 0.020948,-1.52797 0.0900431,-1.73527 0.409236,-1.22776 3.68473,-1.18277 4.09742,-0.0034606 0.0721747,0.206253 0.0866379,1.74222 0.0866379,1.74222 -0.000719165,0.000719165 -0.000202841,0.00181328 0.00126008,0.00320858 0.00691505,-0.408818 0.0167867,-0.959784 0.0242979,-1.37546 0.0092508,-0.511978 0.0116111,-0.618654 -0.446669,-0.921048l1.22934e-005 0z"/>
    <path id="_166328352" class="fil5" d="M1.94071 5.71258c0.015668,0.53989 0.224724,1.01924 0.656192,1.36085 0.387052,0.306463 0.891636,0.450787 1.38116,0.450787 0.489512,0 0.994089,-0.144331 1.38115,-0.4508 0.43145,-0.341646 0.640512,-0.820991 0.656167,-1.3609 -0.0935345,0.371015 -0.294772,0.698149 -0.614911,0.951652 -0.39862,0.315621 -0.918282,0.464267 -1.42242,0.464267 -0.504141,0 -1.0238,-0.14864 -1.42242,-0.464255 -0.320145,-0.253484 -0.521382,-0.580606 -0.614923,-0.951603z"/>
   </g>
  </g>
 </g>
</svg>
