<?xml version="1.0" encoding="UTF-8"?>
<!DOCTYPE svg PUBLIC "-//W3C//DTD SVG 1.1//EN" "http://www.w3.org/Graphics/SVG/1.1/DTD/svg11.dtd">
<!-- Creator: CorelDRAW -->
<svg xmlns="http://www.w3.org/2000/svg" xml:space="preserve" width="161.909mm" height="176.792mm" style="shape-rendering:geometricPrecision; text-rendering:geometricPrecision; image-rendering:optimizeQuality; fill-rule:evenodd; clip-rule:evenodd"
viewBox="0 0 10.0546 10.9788"
 xmlns:xlink="http://www.w3.org/1999/xlink">
 <defs>
  <style type="text/css">
   <![CDATA[
    .fil0 {fill:none}
    .fil3 {fill:#4B344A}
    .fil1 {fill:#501D33}
    .fil9 {fill:#525B75}
    .fil2 {fill:#634A5B}
    .fil7 {fill:#65798E}
    .fil4 {fill:#816372}
    .fil10 {fill:#C8B99F}
    .fil6 {fill:#D77D75}
    .fil5 {fill:#FFCFA5}
    .fil8 {fill:white}
   ]]>
  </style>
 </defs>
 <g id="Layer_x0020_1">
  <metadata id="CorelCorpID_0Corel-Layer"/>
  <g id="_209642856">
   <rect id="_135244968" class="fil0" width="10.0546" height="10.9788"/>
   <path id="_123309408" class="fil1" d="M7.32008 1.13889c1.03685,0.465244 1.88673,2.2637 1.96248,3.21104 0.0867791,1.08526 0.0733344,1.74571 -0.559667,3.07157 0,0 -0.144644,0.277433 -0.615073,0.16297 -0.2069,0.0144818 -0.410303,-0.0471528 -0.511024,-0.191598 -0.00244676,-0.00350867 -0.269888,-0.044439 -0.396064,-0.167261 -0.0572317,-0.0557165 -0.0935915,-0.105254 -0.0730176,-0.206627 0.0269329,-0.132721 0.0666958,-0.295238 0.0666958,-0.295238 0,0 -0.233963,-0.233237 -0.195653,-0.332461 0.0383097,-0.099224 0.516737,-0.51385 0.517532,-0.517824 0.328294,-1.50536 0.00636529,-2.78949 -0.853675,-3.82673l-0.690979 -0.914931c0.347123,-0.10249 0.980311,-0.158095 1.34844,0.00708565l0 -6.21004e-006 6.21004e-006 1.24201e-005z"/>
   <path id="_123309336" class="fil1" d="M2.74773 1.13889c-1.03685,0.465244 -1.88673,2.2637 -1.96248,3.21104 -0.0867791,1.08526 -0.0733344,1.74571 0.559667,3.07157 0,0 0.139403,0.280948 0.609832,0.166485 0.21039,0.0197169 0.417284,-0.0663729 0.51801,-0.210818 0.00244676,-0.00351488 0.268143,-0.0287276 0.394319,-0.151556 0.0572379,-0.0557165 0.0935915,-0.105254 0.0730176,-0.206627 -0.0269329,-0.132721 -0.0666958,-0.295238 -0.0666958,-0.295238 0,0 0.233963,-0.233237 0.195653,-0.332461 -0.0383097,-0.099224 -0.516737,-0.51385 -0.517532,-0.517824 -0.328294,-1.50536 -0.00636529,-2.78949 0.853675,-3.82673l0.690979 -0.914931c-0.347123,-0.10249 -0.980311,-0.158095 -1.34844,0.00708565l0 -6.21004e-006 -6.21004e-006 1.24201e-005z"/>
   <path id="_123309264" class="fil1" d="M3.13921 5.70232c-0.18373,-1.11682 -0.26936,-3.02857 -0.380986,-3.90357 0.197069,-0.811447 1.74714,-0.562623 2.27518,-0.452867 0.528033,-0.109756 2.0781,-0.35858 2.27517,0.452867 -0.111625,0.875001 -0.21827,2.78325 -0.402001,3.90008 -0.98318,0.382315 -2.78419,0.385824 -3.76737,0.00349625l-6.21004e-006 0 1.24201e-005 -1.24201e-005z"/>
   <path id="_123309192" class="fil2" d="M3.29962 5.62249c-0.181681,-1.18487 -0.315277,-2.51274 -0.390686,-3.69467 0.152556,-0.628158 1.12053,-0.948192 2.09644,-0.955632l0.0560767 0c0.975901,0.00743963 1.94388,0.327474 2.09643,0.955632 -0.0754085,1.18194 -0.209005,2.5098 -0.390686,3.69467 -0.954936,0.306776 -2.51263,0.306782 -3.46757,6.21004e-006l-1.24201e-005 -6.21004e-006z"/>
   <path id="_123309120" class="fil3" d="M3.29962 5.62249c-0.147097,-0.959314 -0.262647,-2.01234 -0.341335,-3.0058 0.00950757,-0.0442838 0.0180091,-0.070248 0.0252065,-0.072999l0.475913 2.89046c0,0 1.17301,0.526531 3.16151,0.00839597l0.476111 -2.95479c0,0 0.00521643,0.0343477 0.0142272,0.0944112 -0.0787309,1.00355 -0.195275,2.06987 -0.344067,3.0403 -0.954936,0.30677 -2.51263,0.306776 -3.46757,0l0 1.24201e-005 6.21004e-006 1.24201e-005z"/>
   <polygon id="_123309024" class="fil3" points="3.11458,3.99621 4.4497,4.68469 3.29208,4.55259 "/>
   <polygon id="_123308952" class="fil3" points="6.72562,4.76734 5.13678,5.25373 6.77464,5.06129 6.77416,4.88998 "/>
   <polygon id="_123308880" class="fil4" points="4.14503,4.77448 5.07499,5.16619 6.62032,4.72213 5.07603,4.88197 "/>
   <path id="_123308808" class="fil5" d="M7.21579 2.55254l-1.00999 -1.39748c0.687886,-0.0303547 1.08322,-0.000546483 1.5839,0.512943 0.712087,0.730325 1.22409,1.83199 1.35153,2.85171 0.128237,1.0264 -0.0676087,1.9264 -0.542658,2.85698 0,0 -0.0576788,0.169845 -0.421152,0.127827 0,0 0.105707,-0.187022 0.0985471,-0.203161 -0.00716639,-0.0161585 -0.184202,0.18791 -0.184202,0.18791 0,0 -0.223648,0.000813515 -0.406267,-0.156754 0,0 -0.000745205,-0.252643 -0.0165932,-0.252065 -0.015848,0.000577534 -0.0666648,0.187059 -0.0666648,0.187059l-0.238807 -0.0630629c-0.109098,-0.0512949 -0.143197,-0.0594425 -0.113569,-0.194567 0.022617,-0.103223 0.0604175,-0.277322 0.143533,-0.569591 -0.0229337,-0.0270323 -0.0784452,0.0999071 -0.11909,0.169658 0,0 -0.13074,-0.144365 -0.125138,-0.193561 0.00557041,-0.0492146 0.463418,-0.405149 0.463418,-0.405149 0.369982,-1.16087 0.119742,-2.54755 -0.396797,-3.45869l0 -6.21004e-006z"/>
   <path id="_123308736" class="fil6" d="M7.21579 2.55254l-0.0252314 -0.0349128c0.00663853,-0.00373223 0.0132025,-0.00786191 0.0199032,-0.0111408 0,0 1.10008,1.24826 0.737753,3.06294 0.133516,-0.00176365 0.307515,0.0183879 0.422897,0.0244613 0.142719,0.00751415 0.47726,0.171006 0.736604,0.328716 -0.0364653,0.200181 -0.0865866,0.398039 -0.149979,0.595089 -0.364647,-0.280625 -0.837983,-0.407782 -1.13862,-0.463474 -0.117531,0.352867 -0.292257,0.722973 -0.541286,1.10624 -0.0393095,-0.0274856 -0.0475441,-0.0613117 -0.02797,-0.150587 0.022617,-0.103223 0.0604175,-0.277322 0.143533,-0.569591 -0.0229337,-0.0270323 -0.0784452,0.0999071 -0.11909,0.169658 0,0 -0.13074,-0.144365 -0.125138,-0.193561 0.00502392,-0.0443894 0.377962,-0.338292 0.451023,-0.395486l0.00106813 -0.000838355 0.0113271 -0.00882447c0.0055642,-0.0174626 0.0109669,-0.0349874 0.0162517,-0.0525556l0.00117991 -0.00393716c0.00489351,-0.0163262 0.00965661,-0.0326959 0.0143079,-0.0491028l0.00223561 -0.00793643c0.00416694,-0.0148358 0.00822209,-0.0297088 0.0121965,-0.0446067l0.00349625 -0.0132088c0.00332237,-0.0126561 0.00657022,-0.025337 0.00975597,-0.0380365 0.00189406,-0.00755762 0.00376328,-0.0151277 0.00560767,-0.0226977 0.00225424,-0.00924054 0.00445881,-0.0185059 0.00663853,-0.0277651 0.00306155,-0.0130038 0.00604237,-0.0260325 0.0089673,-0.0390798l0.0019189 -0.00861332 0.00130411 -0.00588091c0.00308639,-0.0140347 0.00608584,-0.0280942 0.00901077,-0.0421724l0.00224803 -0.01088 0.00121096 -0.00589333 6.21004e-006 0c0.218078,-1.0745 -0.0308142,-2.27084 -0.493133,-3.08632z"/>
   <path id="_123308664" class="fil7" d="M8.97565 6.46091l-0.0104577 0.0113209 -0.00362666 -0.00332858 0.00162703 0.00891141c0.00234739,0.000192511 0.00467616,0.000416073 0.00696766,0.000695524 0.00183196,-0.00586849 0.00368255,-0.0117308 0.00548967,-0.0175993zm-0.10503 -3.03155c0.0604051,0.164094 0.112563,0.330188 0.155711,0.496431 -0.165622,0.098957 -0.276676,0.343136 -0.243533,0.527419l0.0143949 0.080066c0.00510465,0.0284171 0.0150159,0.0322363 0.0201019,0.0606535 0.020195,0.020903 0.0328946,0.0590513 0.0635039,0.0878472 0.0206608,0.0194685 0.0583557,0.0403901 0.0879031,0.047128 0.070279,0.0159784 0.184097,-0.00625351 0.169584,-0.0870834l-0.00322301 -0.017798c-0.00214246,-0.0120102 -0.00431598,-0.0118612 -0.00843944,-0.0214308 -0.0179222,0.00840218 -0.0268895,0.0323791 -0.0574739,0.0378688 -0.0247967,0.00447744 -0.0539528,-0.0189034 -0.0593804,-0.0490158 -0.00749552,-0.0417749 0.0192201,-0.0723097 0.0592127,-0.0795133 0.027082,-0.00486867 0.0518104,0.000453333 0.0728375,0.0129293 0.0106378,0.0858165 0.0189841,0.170751 0.0251072,0.254903 -0.0300131,0.0337578 -0.0724525,0.0581694 -0.12045,0.0668076l-0.0133267 0.00239708c-0.0453022,0.00815378 -0.0912379,0.00847049 -0.124164,-0.000608584 0.0275726,0.0587283 0.172329,0.0974169 0.266696,0.0849533 0.00285662,0.0702231 0.00414831,0.139918 0.00386264,0.209148 -0.0874249,-0.0159909 -0.18409,-0.0249768 -0.243204,-0.0143514 0.0193753,0.107726 0.144862,0.24357 0.147482,0.258139 0.000937716,0.0052599 -0.0379061,0.0900456 -0.0309943,0.134149 -0.0368504,0.00351488 -0.101845,-0.0918589 -0.139335,-0.0851458l-0.00889899 0.00161461c-0.0291127,0.00522264 -0.0231013,0.0758556 -0.0172142,0.108701 0.0229896,0.127784 0.12176,0.229834 0.241707,0.249234 -0.00532821,0.0349812 -0.0110352,0.0698878 -0.0171894,0.104714 -0.0514315,-0.0097125 -0.100851,-0.0272248 -0.11922,-0.0239211 -0.0104142,0.00186301 -0.0164628,0.0105509 -0.0145998,0.0209899 0.00982428,0.05458 0.053456,0.0988141 0.110085,0.126983 -0.0277589,0.134857 -0.061734,0.268746 -0.101807,0.402181 -0.0565983,0.0626655 -0.13926,0.123449 -0.250196,0.143396l-0.00447123 0.000813515c-0.269236,0.0483948 -0.344198,-0.21819 -0.471516,-0.195268l-0.0311496 0.00558904c-0.0247097,0.00442776 -0.0575671,0.0373969 -0.0526984,0.064572l0.00480036 0.0266845c0.00455196,0.0253432 0.0471963,0.0511894 0.0726823,0.0465939l0.00446502 -0.000782465c0.0162641,-0.00291251 0.0333976,-0.0186922 0.0307894,-0.0330622l-0.00319817 -0.0178042c-0.0205118,0.00960072 -0.0116749,0.0204745 -0.0279452,0.023387l-0.00444018 0.000801095c-0.0107061,0.00193753 -0.029566,-0.0111594 -0.0315035,-0.0218842l-0.00478794 -0.0267032c-0.00255854,-0.0141713 0.0170528,-0.0351923 0.0344533,-0.0383346l0.0266845 -0.00478794c0.0251693,-0.00453333 0.0611813,0.0335963 0.0669939,0.0660189l0.000813515 0.00443397c0.00947031,0.0527108 -0.0196858,0.0907908 -0.0738063,0.100516l-0.00892383 0.00159598c-0.0680558,0.0122524 -0.140757,-0.0421786 -0.153028,-0.110222l-0.00158356 -0.00889899c-0.0117059,-0.0651185 0.0303919,-0.120257 0.0956967,-0.131988l0.0444701 -0.00801716c0.0375769,-0.0067441 0.0950446,0.0142272 0.120754,0.0279514 0.0296654,0.015817 0.0801468,0.0669877 0.0901449,0.0718626 0.0163759,-0.0512452 0.0332548,-0.098131 0.108589,-0.105856 0.0577285,-0.00588712 0.113905,0.0147799 0.125219,0.0776006 0.00675652,0.0377632 -0.00709807,0.0701424 -0.0458487,0.0771101l-0.0178228 0.00318575c-0.0137987,0.00252128 -0.0402969,-0.0197666 -0.0435696,-0.0380489 -0.00433461,-0.0240018 0.0105012,-0.0412968 0.0328635,-0.0472522 -0.00814757,-0.0188288 -0.0225487,-0.0326772 -0.0464697,-0.0283923 -0.0353351,0.00639013 -0.0504566,0.0516365 -0.0442652,0.0860401 0.0120475,0.0669256 0.0853073,0.0727009 0.148109,0.0725643 0.0591258,-0.000117991 0.140626,-0.0458115 0.176936,-0.0685961 0.0816123,-0.0511645 0.16302,-0.176533 0.141788,-0.294536l-0.00242813 -0.0133702c-0.0101658,-0.0566418 -0.0860525,-0.140601 -0.138422,-0.131212 -0.0428555,0.00771287 -0.0889899,0.118134 -0.0819849,0.157108l0.00562009 0.0311433c0.0162268,0.0903623 0.0821712,0.13079 0.128629,0.17888l-0.0573994 0.0578838c-0.0374714,-0.0171956 -0.0780478,-0.0594425 -0.107291,-0.089791 -0.0222878,-0.0231634 -0.0689066,-0.101938 -0.100745,-0.0902505l-0.120276 0.0433274 -0.027821 0.00166429c-0.117792,0.0211824 -0.26438,-0.0186984 -0.334858,-0.0671181 -0.0456189,-0.0313607 -0.0840964,-0.0555426 -0.123636,-0.0965226 -0.0475316,-0.0492642 -0.0581819,-0.0835312 -0.096119,-0.136074l0.0408807 -0.0017326 0.0667082 -0.0130287c0.0552631,0.128212 0.254208,0.252749 0.421308,0.222686l0.0222506 -0.00399306c0.0663977,-0.0119233 0.120375,-0.0508168 0.156481,-0.0859035 0.0237099,-0.0230392 0.0704591,-0.108154 0.0635535,-0.146557l-0.00399306 -0.0222257c-0.00181954,-0.0102404 -0.00548346,-0.0127803 -0.0157487,-0.0109359 -0.0277899,0.00500529 -0.118252,0.0855619 -0.18904,0.0982863l-0.0133454 0.00240329c0.00147178,-0.0179967 0.0342608,-0.0793457 0.0420358,-0.107024 0.00979944,-0.0349128 0.051121,-0.0596226 0.075334,-0.0838604 0.0401169,-0.0401541 0.0836616,-0.147209 0.0698816,-0.223897l-0.0104142 -0.0578217c-0.00405516,-0.0226604 -0.0263616,-0.0733157 -0.0491711,-0.0692171 -0.0387755,0.0069925 -0.119394,0.168572 -0.153344,0.20482 -0.0334721,0.0356829 -0.145563,0.161163 -0.197212,0.170466 -0.0221388,0.00396822 -0.0692978,-0.0659071 -0.0762407,-0.0919086 0.132442,-0.0621625 0.325139,-0.388742 0.293884,-0.562518 -0.137087,0.0246663 -0.293108,0.137714 -0.374763,0.20667 -0.0942001,0.0795568 -0.155878,0.214277 -0.1262,0.379365 -0.0295598,0.0167671 -0.0411167,0.0340993 -0.0977771,0.0402224l-0.0123083 -0.0569957c-0.0122524,-0.0417811 0.00181954,-0.158766 0.00856364,-0.18999 0.0139477,-0.064454 0.0382352,-0.098752 0.055319,-0.152283 -0.156195,0.0417004 -0.270658,0.283085 -0.237093,0.469647 0.00684346,0.0380675 0.0242316,0.0742907 0.0357388,0.100547 0.0560518,0.127952 0.213656,0.221934 0.357543,0.196045l0.103267 0.0642739c-0.0210955,0.00545862 -0.0261691,0.0137056 -0.0516613,0.0183134l-0.0756631 0.0135876c-0.0593307,0.0106626 -0.152742,-0.00736511 -0.192853,-0.024983 -0.0176676,-0.00778118 -0.0754271,-0.0370118 -0.111358,-0.062976 -0.0409428,-0.0296405 -0.0972927,-0.108787 -0.120052,-0.149519 -0.0102217,-0.0182948 -0.0195803,-0.0377446 -0.0279203,-0.0590885 0.0636467,-0.20159 0.108657,-0.409906 0.136875,-0.621314 0.054462,-0.0568219 0.120115,-0.104136 0.207428,-0.141757 -0.00621625,-0.0305658 -0.0332796,-0.030957 -0.0578651,-0.0399306 -0.0253556,-0.00928401 -0.0358257,-0.0193008 -0.0577596,-0.034534 -0.0234864,-0.0163386 -0.0461406,-0.0321991 -0.064808,-0.053425 0.00614173,-0.091418 0.00930264,-0.183115 0.0097125,-0.274807 0.0147861,-0.0103397 0.032435,-0.017798 0.0530648,-0.0215054l0.017798 -0.00322301c0.0590575,-0.0106067 0.129815,0.03205 0.140154,0.0895984l0.00239708 0.0133454c0.0071167,0.0396325 -0.0190027,0.0860525 -0.0568094,0.0928587l-0.0177918 0.00320438c-0.0232752,0.00417315 -0.0525183,-0.0110725 -0.056915,-0.0356705l-0.00242813 -0.0133516c-0.00386885,-0.0215116 0.00771287,-0.038111 0.0291934,-0.0419861l0.0178104 -0.00322922c0.0255481,-0.00455817 0.0215488,0.00883068 0.0432467,0.0106254 -0.0207664,-0.0287773 -0.0278582,-0.0546918 -0.0816185,-0.0450104l-0.00442776 0.000770045c-0.0422842,0.00759488 -0.063212,0.0571945 -0.0560146,0.0973424l0.00322301 0.0177918c0.0169348,0.0942125 0.187146,0.149997 0.290071,0.131485l0.0489662 -0.00883068c0.120456,-0.0216482 0.216227,-0.101571 0.251861,-0.183016 -0.0350246,0.015078 -0.0546732,0.0327766 -0.107241,0.0422407l-0.0177918 0.00319817c-0.105266,0.0188909 -0.212067,-0.0297399 -0.22984,-0.128585l-0.00478794 -0.0266597c-0.011886,-0.0659941 0.023238,-0.137347 0.0880584,-0.148979l0.0133267 -0.00241571c0.0330933,-0.00594301 0.0689252,0.0256475 0.0751104,0.0599828 0.00456438,0.0254301 -0.0216047,0.0589643 -0.0482706,0.0637585 -0.0195616,0.00351488 -0.0445943,-0.0111657 -0.0581756,-0.0170776 -0.0159225,0.0576043 0.0397939,0.107632 0.0956222,0.0975783l0.040061 -0.00719744c0.055555,-0.00997953 0.104813,-0.0740982 0.121934,-0.113768 0.0237658,-0.0549464 0.0323667,-0.101037 0.0177421,-0.182271 -0.047513,-0.264219 -0.288313,-0.508329 -0.542571,-0.462586 -0.0363039,0.00652675 -0.0765636,0.0159846 -0.112867,0.0322053 -0.00468237,-0.0328822 -0.00968145,-0.065665 -0.0149972,-0.0983422 0.0214805,-0.0101658 0.0571634,-0.0303298 0.111899,-0.0461716 0.0176179,-0.00510465 0.0279886,-0.00922191 0.0530337,-0.0137242l0.0311558 -0.00560146c-0.00852017,-0.0472894 -0.0472708,-0.0840094 -0.0543565,-0.123393l-0.00719123 -0.0400423c-0.00398064,-0.0220643 0.0639324,-0.0344533 0.0894432,-0.0390363l0.0222568 -0.00400548c0.0146184,0.0813329 0.0990377,0.147488 0.180079,0.13292l0.0133392 -0.00239708c0.0286718,-0.00517296 0.0445446,-0.0333728 0.0393716,-0.0621998 -0.012712,-0.0705895 -0.131206,-0.104962 -0.209309,-0.090915l-0.0489351 0.00879963c-0.0991992,0.0178352 -0.205323,0.080923 -0.242794,0.160573 -0.0071726,-0.0379371 -0.0147675,-0.0756942 -0.0227784,-0.113252 0.0689997,-0.0691736 0.155325,-0.11932 0.249563,-0.136273l0.0890085 -0.0160095c0.0404211,-0.00725333 0.0773709,-0.00334721 0.110824,-0.00262064 0.0283178,0.000633424 0.0859345,0.0131901 0.101838,0.0102962 0.0278582,-0.00503013 0.0645099,-0.0572441 0.0733654,-0.0774889l0.10708 0.0300566c-0.0192511,0.0443769 -0.0643981,0.0795817 -0.0512266,0.152767l0.00477552 0.0266535c0.00787433,0.0437435 0.0668138,0.0935915 0.116308,0.0847049 0.0416694,-0.0074831 0.0701734,-0.0696828 0.062504,-0.11224l-0.00560146 -0.0311247c-0.0133826,-0.074328 -0.0846739,-0.115867 -0.137062,-0.138825 -0.0349998,-0.0153761 -0.157754,-0.0469541 -0.202671,-0.0388562l-0.0622991 0.0112153c-0.0307024,0.0055083 -0.087456,0.0381855 -0.106825,0.0542136 -0.0193256,0.0159971 -0.094641,0.0279452 -0.129926,0.0342484 0.0375894,-0.0858786 0.146302,-0.159474 0.274943,-0.182588l0.0267032 -0.00480657c0.206881,-0.0372168 0.382638,0.128641 0.434877,0.119251 0.0355587,-0.00642739 0.119394,-0.0627959 0.188593,-0.0752657 0.0248464,0.01088 0.0552631,0.0424767 0.0641311,0.075719 -0.0801033,0.0143887 -0.182016,0.0861146 -0.168932,0.158946 0.00517917,0.0288394 0.0298641,0.0497114 0.0585482,0.0445508l0.0133578 -0.00239708c0.0668324,-0.0120164 0.132634,-0.105297 0.122046,-0.164293l-0.00561388 -0.0311309c-0.015078,-0.0839225 -0.134242,-0.141136 -0.220146,-0.125704l-0.0355835 0.00639634c-0.0524376,0.00943305 -0.075719,0.0326586 -0.120599,0.0446564l-0.106943 -0.046389c0.0533877,-0.025871 0.0831276,-0.0595356 0.15894,-0.0731667l0.0578589 -0.0104018c0.0738933,-0.0132895 0.156996,0.000527853 0.227654,0.0346272zm0.304776 1.88978c-0.00656401,0.151835 -0.0207664,0.301609 -0.0424456,0.449911 -0.0258027,-0.026107 -0.0450228,-0.0789793 -0.0508664,-0.11157l-0.0112153 -0.0622867c-0.018301,-0.101789 0.0240018,-0.219165 0.104527,-0.276055zm-1.39898 -0.84246c-0.00190648,-0.0260884 -0.00408621,-0.0521395 -0.00642118,-0.0781596 0.0200584,-0.00856985 0.0295039,-0.0232255 0.0243061,-0.0521705 -0.0123083,0.00577534 -0.0172639,0.0147364 -0.0271938,0.020667 -0.00382538,-0.0397815 -0.00811031,-0.0794823 -0.0129107,-0.119046l0.00836492 -0.00149662c0.0476621,-0.0086009 0.102876,0.0356643 0.11183,0.0854501 0.010172,0.056561 -0.0379309,0.124108 -0.0979758,0.144756zm0.602305 1.45884c-0.0941442,-0.00480657 -0.200553,-0.0934052 -0.221202,-0.208192l-0.00239708 -0.0133205c-0.0110352,-0.0613552 0.00639634,-0.134298 0.0658016,-0.145011 0.039974,-0.00718502 0.0854812,0.0201329 0.115612,0.0297337 0.00950136,-0.00919707 0.0548036,-0.0783459 0.0531455,-0.087605 -0.00604858,-0.0335032 -0.129622,-0.0501647 -0.181892,-0.0407689 -0.161014,0.028976 -0.190096,0.211067 -0.132379,0.359605 0.0448551,0.115513 0.146942,0.211744 0.250147,0.193163 0.0130535,-0.00233497 0.0484818,-0.0729617 0.0531641,-0.087605zm-0.256518 0.00478794c-0.0201826,-0.0338696 -0.0403777,-0.0677639 -0.0605417,-0.101658 -0.0957774,0.0280818 -0.252848,0.0330747 -0.353295,-0.00746447 0.0017326,0.019543 0.00349625,0.0391108 0.00523506,0.0586352 0.00295598,0.0163386 0.00586849,0.0326462 0.00880584,0.0489599 0.0130225,0.0724277 0.329126,0.0188413 0.38293,0.00916602 0.00700492,-0.00126064 0.0118363,-0.00453333 0.0168665,-0.00763835zm0.407298 -0.188015l-0.0136124 -0.0756196c-0.0030305,-0.0170155 0.00110539,-0.00189406 -0.00683725,-0.0125567 -0.00597406,0.00579397 -0.0838293,0.100919 -0.0848229,0.104521 -0.0118736,0.0430107 0.00446502,0.0932686 -0.0180215,0.150954 -0.0282805,0.0725457 -0.0974231,0.172161 -0.172223,0.207248 0.0115941,0.024716 0.0745143,0.0422593 0.100963,0.0507236 0.098367,-0.0770417 0.223692,-0.263299 0.194554,-0.42527z"/>
   <path id="_123308592" class="fil8" d="M7.38196 1.33931c0.109495,0.0634852 0.218631,0.146476 0.332318,0.254251 0.0249085,0.0236106 0.0500343,0.0484073 0.0754271,0.0744459 0.712087,0.730325 1.22409,1.83199 1.35153,2.85171 0.0613241,0.490829 0.0484756,0.952719 -0.0335156,1.4029 -0.0495126,-0.0301125 -0.101795,-0.0604361 -0.154934,-0.0898468 0.310688,-1.75609 -0.394729,-3.45514 -1.57083,-4.49345l0 -1.24201e-005zm1.72565 4.58395c-0.018065,0.099106 -0.0394896,0.197634 -0.0642056,0.295797 0.024716,-0.0981559 0.0461406,-0.196691 0.0642056,-0.295797zm-0.0666275 0.305366c-0.0143328,0.0564058 -0.0297647,0.112687 -0.0462648,0.168882 0.0165063,-0.0561946 0.0319382,-0.11247 0.0462648,-0.168882zm-0.048991 0.178141c-0.00288767,0.00976218 -0.0058126,0.0195244 -0.00876237,0.0292865 0.00295598,-0.00976218 0.0058747,-0.0195182 0.00876237,-0.0292865zm-0.0128983 0.0428679c-0.00292493,0.00956967 -0.0058747,0.0191269 -0.00886794,0.0286904 0.00298082,-0.00956967 0.00594301,-0.0191207 0.00886794,-0.0286904zm-0.0126933 0.0408558c-0.00283799,0.00900456 -0.0056884,0.0180029 -0.00858227,0.0270013 0.00290009,-0.00899214 0.0057505,-0.0179967 0.00858227,-0.0270013zm-0.00865058 0.0272248c-0.0921446,0.286506 -0.212296,0.571286 -0.359164,0.858991 0,0 -0.00491835,0.0143452 -0.0207726,0.0336833 -0.104987,-0.0146557 -0.211185,-0.0384836 -0.315327,-0.0680496 0.00956346,-0.0210148 0.0153574,-0.0367696 0.0134944,-0.0409676 -0.00212383,-0.00479415 -0.0192201,0.0097746 -0.0421848,0.0326648 -0.202522,-0.0597282 -0.395958,-0.140055 -0.555693,-0.215283 -0.00228529,-0.0231324 -0.00527232,-0.0384339 -0.00918465,-0.0382911 -0.00353351,0.000130411 -0.00829661,0.01088 -0.0135441,0.0275105 -0.105484,-0.050351 -0.195076,-0.0977957 -0.261256,-0.134472 0.00559525,-0.00940821 0.0111532,-0.0188164 0.0166553,-0.028206 0.46756,0.131597 1.11422,0.197479 1.11422,0.197479 0.117059,-0.2408 0.212197,-0.483377 0.286854,-0.726134 0.0500343,0.0312551 0.0988825,0.0648887 0.145905,0.101075zm-1.68424 0.38606l-2.48402e-005 -1.24201e-005 0.000211141 -0.000925296 2.48402e-005 6.21004e-006 -0.000211141 0.000931506z"/>
   <path id="_123308520" class="fil9" d="M7.84273 3.70045c0.00897972,0.0280942 0.0177421,0.0566169 0.0262498,0.0855557 -0.0721793,0.0291934 -0.13736,0.0790165 -0.16505,0.137881l-0.00307397 -0.0160157 -0.000335342 -0.00176986 -4.34703e-005 -0.000204931 -0.00328511 -0.0168478c-0.00201205,-0.0102776 -0.00407379,-0.0205366 -0.00614794,-0.0307832l-0.000353972 -0.00176986 -0.000353972 -0.00176986 -0.000353972 -0.00176365 -3.72602e-005 -0.000173881 -0.00194995 -0.0094641c-0.00224182,-0.0109172 -0.00452091,-0.0218034 -0.00684346,-0.0326896 0.046861,-0.0469789 0.101683,-0.0851955 0.161579,-0.110185zm0.0311558 0.102012c0.0151152,0.0522699 0.029299,0.105999 0.0426071,0.160902 -0.0137056,-0.0379371 -0.042781,-0.0695773 -0.0488233,-0.103174l-0.00719123 -0.0400423c-0.00122338,-0.00678757 0.00434703,-0.0126747 0.0134075,-0.0176862zm0.0475627 0.181228c0.00988017,0.0417749 0.0191766,0.0843075 0.0278334,0.127542 -0.0313731,-0.00294977 -0.0633113,-0.00180091 -0.0954794,0.00398685 -0.0363039,0.00652675 -0.0765636,0.0159846 -0.112867,0.0322053 -0.00193753,-0.0135876 -0.00393716,-0.0271813 -0.00598027,-0.0407316l-0.00223561 -0.0146681 -0.000242192 -0.0015463 -0.000235981 -0.00152767 -0.000242192 -0.0015463c-0.0014221,-0.0092157 -0.00288146,-0.0184252 -0.00434703,-0.027616l-0.000242192 -0.00152767 -0.000242192 -0.00152767 -0.000242192 -0.00152767 -0.000962556 -0.00613552c0.0214805,-0.0101658 0.0571572,-0.0303236 0.111874,-0.0461592 0.0176179,-0.00510465 0.0279886,-0.00922191 0.0530337,-0.0137242l0.0305782 -0.00549588zm0.0881205 1.14453c-0.0113644,0.142905 -0.0311868,0.290059 -0.0613676,0.441229 0.0166243,-0.000217351 0.0338696,-0.000111781 0.0515557,0.000279452 -0.0247097,0.0652054 -0.03341,0.141663 -0.0182389,0.226045 -0.0295598,0.0167671 -0.0411167,0.0340993 -0.0977771,0.0402224l-0.0123083 -0.0569957c-0.0122524,-0.0417811 0.00181954,-0.158766 0.00856364,-0.18999 0.0139477,-0.064454 0.0382352,-0.098752 0.055319,-0.152283 -0.156195,0.0417004 -0.270658,0.283085 -0.237093,0.469647 0.00684346,0.0380675 0.0242316,0.0742907 0.0357388,0.100547 0.0156431,0.0357077 0.0391791,0.0687513 0.0681365,0.0973051 -0.0123207,0.0355152 -0.0252314,0.0711981 -0.038732,0.107049l-0.000130411 -9.31506e-005c-0.0409428,-0.0296405 -0.0972927,-0.108787 -0.120052,-0.149519 -0.0102155,-0.0182761 -0.0195616,-0.0377074 -0.0278955,-0.0590326 0.00460164,-0.014606 0.00912255,-0.0292555 0.0135379,-0.043936l0.00117991 -0.00393716c0.00374465,-0.0125008 0.00738995,-0.0250513 0.0109918,-0.0375956l6.21004e-006 -3.72602e-005 0.00330995 -0.0114699 0.00223561 -0.00793643 0.00199963 -0.00727817 0.000217351 -0.000770045 9.31506e-005 -0.000316712 0.000186301 -0.000707944 4.96803e-005 -0.000155251 4.34703e-005 -0.000161461 0.00101845 -0.00369497 6.83104e-005 -0.000254612 0.00132274 -0.00477552 0.000186301 -0.000689314 0 -1.86301e-005 6.83104e-005 -0.000223561 0.00147178 -0.00534684 0.000186301 -0.000689314 0.000186301 -0.000707944 0.000577534 -0.00208657 0.000136621 -0.000496803 0.000614794 -0.00227287 6.21004e-006 -2.48402e-005 0.000186301 -0.000707944 0.000186301 -0.000689314 0.000186301 -0.000689314 4.34703e-005 -0.000155251 0.000720365 -0.00263927 0.000186301 -0.000689314 0.000186301 -0.000707944 0.000186301 -0.000689314 8.69405e-005 -0.000322922 9.93606e-005 -0.000385022 0.000192511 -0.000689314 0.000186301 -0.000707944 0.000186301 -0.000689314 0.000186301 -0.000707944 0.000186301 -0.000689314 0.000186301 -0.000707944 0.000186301 -0.000689314 0.000186301 -0.000689314 2.48402e-005 -9.31506e-005 0.000173881 -0.000596164 0.00349625 -0.0132088 0.000291872 -0.00115507 0.000267032 -0.00102466 5.58904e-005 -0.000204931 0.000149041 -0.000596164 0.00170776 -0.00652054 0.000149041 -0.000596164 0.00107434 -0.00415452 0.000149041 -0.000596164 0.000459543 -0.00177607 6.21004e-006 -1.24201e-005 0.000149041 -0.000596164 0.000409863 -0.00157735 0.000204931 -0.000788675 0.000149041 -0.000596164 0.000149041 -0.000596164m0.404503 -0.246563c0.0398809,0.00211762 0.0806187,0.00506739 0.120282,0.00815378 -0.0363101,0.0253618 -0.046271,0.0831959 -0.0372602,0.133298l0.00239708 0.0133205c0.0206484,0.114786 0.127057,0.203385 0.221202,0.208192 -0.00468237,0.0146433 -0.0401106,0.08527 -0.0531641,0.087605 -0.103205,0.0185804 -0.205291,-0.0776503 -0.250147,-0.193163 -0.0337081,-0.0867542 -0.0378067,-0.184947 -0.00330995,-0.257406zm0.242241 0.0176924c0.0094641,0.000689314 0.0186922,0.00132895 0.0276657,0.0019189 -0.00232876,0.00304913 -0.00421041,0.00534684 -0.00547104,0.00656401 -0.00670684,-0.00213625 -0.0141899,-0.00516675 -0.0221947,-0.00848291zm0.0465318 0.0030926l0.0102031 0.000571324c0.0353538,0.00186301 0.0824879,0.0132957 0.137329,0.0318451 -0.0184811,0.0296716 -0.0350246,0.0558283 -0.0463766,0.067944 -0.0334721,0.0356829 -0.145563,0.161163 -0.197212,0.170466 -0.0221388,0.00396822 -0.0692978,-0.0659071 -0.0762407,-0.0919086 0.0538472,-0.0252749 0.117631,-0.0942746 0.172298,-0.178917zm0.312402 0.0984415c0.117419,0.0527419 0.247824,0.121195 0.367808,0.191188 -0.0216358,-0.00533442 -0.0390487,-0.00905424 -0.0484073,-0.00737132 -0.0104142,0.00186301 -0.0164628,0.0105509 -0.0145998,0.0209899 0.00981807,0.0545552 0.0534188,0.0987707 0.110005,0.126946 -0.0277775,0.134894 -0.0617526,0.268851 -0.101832,0.402336 -0.0195057,0.0215861 -0.0421227,0.04293 -0.0679068,0.062473 -0.0220208,-0.015966 -0.0443831,-0.031429 -0.0670312,-0.0463579l0.00228529 -0.00141589c0.0816123,-0.0511645 0.16302,-0.176533 0.141788,-0.294536l-0.00242813 -0.0133702c-0.0101658,-0.0566418 -0.0860525,-0.140601 -0.138422,-0.131212 -0.0428555,0.00771287 -0.0889899,0.118134 -0.0819849,0.157108l0.00562009 0.0311433c0.0162268,0.0903623 0.0821712,0.13079 0.128629,0.17888l-0.0573994 0.0578838c-0.0374714,-0.0171956 -0.0780478,-0.0594425 -0.107291,-0.089791 -0.0222878,-0.0231634 -0.0689066,-0.101938 -0.100745,-0.0902505l-0.0888905 0.032019c-0.0651123,-0.0295598 -0.13051,-0.0558841 -0.195051,-0.0793395 0.037018,0.00627835 0.0743093,0.00696766 0.110129,0.000521643l0.0222506 -0.00399306c0.0663977,-0.0119233 0.120375,-0.0508168 0.156481,-0.0859035 0.0237099,-0.0230392 0.0704591,-0.108154 0.0635535,-0.146557l-0.00399306 -0.0222257c-0.00181954,-0.0102404 -0.00548346,-0.0127803 -0.0157487,-0.0109359 -0.0277899,0.00500529 -0.118252,0.0855619 -0.18904,0.0982863l-0.0133454 0.00240329c0.00147178,-0.0179967 0.0342608,-0.0793457 0.0420358,-0.107024 0.00979944,-0.0349128 0.051121,-0.0596226 0.075334,-0.0838604 0.0278831,-0.0279079 0.0573994,-0.0881515 0.0681986,-0.148035zm0.302261 0.769269l-0.00541515 0.0174688c-0.00227908,-0.000273242 -0.00459543,-0.000496803 -0.0069304,-0.000689314l-0.00162703 -0.00891141 0.00362666 0.00332858 0.0103459 -0.0111967zm-0.305509 -0.125368c-0.0182948,-0.00954483 -0.0366827,-0.0188164 -0.0551141,-0.027821 0.0214681,0.00398064 0.0407565,0.0129231 0.0551141,0.027821zm-0.438758 -0.179327c-0.0785011,-0.0247346 -0.154469,-0.0453395 -0.225642,-0.0624544 -0.0252128,-0.0332113 -0.0382911,-0.062473 -0.0669753,-0.102199l0.0408807 -0.0017326 0.0667082 -0.0130287c0.0295474,0.0685526 0.100162,0.136031 0.185028,0.179414zm-0.559351 -0.354283l5.58904e-005 -0.000204931 1.86301e-005 -9.31506e-005c0.0346148,-0.138062 0.0611689,-0.278558 0.0801219,-0.420513 0.054462,-0.0568219 0.120115,-0.104136 0.207428,-0.141757 -0.00621625,-0.0305658 -0.0332796,-0.030957 -0.0578651,-0.0399306 -0.0253556,-0.00928401 -0.0358257,-0.0193008 -0.0577596,-0.034534 -0.0234864,-0.0163386 -0.0461406,-0.0321991 -0.064808,-0.053425 0.00614173,-0.091418 0.00930264,-0.183115 0.0097125,-0.274807 0.0147861,-0.0103397 0.032435,-0.017798 0.0530648,-0.0215054l0.017798 -0.00322301c0.0590575,-0.0106067 0.129815,0.03205 0.140154,0.0895984l0.00239708 0.0133454c0.0071167,0.0396325 -0.0190027,0.0860525 -0.0568094,0.0928587l-0.0177918 0.00320438c-0.0232752,0.00417315 -0.0525183,-0.0110725 -0.056915,-0.0356705l-0.00242813 -0.0133516c-0.00386885,-0.0215116 0.00771287,-0.038111 0.0291934,-0.0419861l0.0178104 -0.00322922c0.0255481,-0.00455817 0.0215488,0.00883068 0.0432467,0.0106254 -0.0207664,-0.0287773 -0.0278582,-0.0546918 -0.0816185,-0.0450104l-0.00442776 0.000770045c-0.0422842,0.00759488 -0.063212,0.0571945 -0.0560146,0.0973424l0.00322301 0.0177918c0.0120661,0.0671243 0.101925,0.114718 0.189841,0.129852m-0.238863 -0.721917l-0.000217351 -0.00245297 -0.000465753 -0.00534063c0.0200584,-0.00856985 0.0295039,-0.0232255 0.0243061,-0.0521705 -0.0123083,0.00577534 -0.0172639,0.0147364 -0.0271938,0.020667 -0.00382538,-0.0397815 -0.00811031,-0.0794823 -0.0129107,-0.119046l0.00836492 -0.00149662c0.0476621,-0.0086009 0.102876,0.0356643 0.11183,0.0854501 0.010172,0.056561 -0.0379309,0.124108 -0.0979758,0.144756 -0.00171397,-0.0234802 -0.00366392,-0.0469417 -0.00573808,-0.070366zm0.351525 1.534c-0.0201826,-0.0338696 -0.0403777,-0.0677639 -0.0605417,-0.101658 -0.0957774,0.0280818 -0.252848,0.0330747 -0.353295,-0.00746447 0.0017326,0.019543 0.00349625,0.0391108 0.00523506,0.0586352 0.00295598,0.0163386 0.00586849,0.0326462 0.00880584,0.0489599 0.0130225,0.0724277 0.329126,0.0188413 0.38293,0.00916602 0.00700492,-0.00126064 0.0118363,-0.00453333 0.0168665,-0.00763835zm0.407298 -0.188015l-0.0136124 -0.0756196c-0.0030305,-0.0170155 0.00110539,-0.00189406 -0.00683725,-0.0125567 -0.00597406,0.00579397 -0.0838293,0.100919 -0.0848229,0.104521 -0.0118736,0.0430107 0.00446502,0.0932686 -0.0180215,0.150954 -0.0282805,0.0725457 -0.0974231,0.172161 -0.172223,0.207248 0.0115941,0.024716 0.0745143,0.0422593 0.100963,0.0507236 0.098367,-0.0770417 0.223692,-0.263299 0.194554,-0.42527z"/>
   <path id="_123308448" class="fil5" d="M7.23496 6.4185c0,0 0.0750359,-0.155307 0.266988,-0.253028 0.191952,-0.0977212 -0.132622,0.256518 -0.266988,0.253028z"/>
   <path id="_123308376" class="fil6" d="M8.61904 7.33601c-0.00676273,0.0135689 -0.0135751,0.0271503 -0.0204869,0.0406758 0,0 -0.0576788,0.169838 -0.421128,0.127821 0,0 0.105682,-0.187009 0.0985223,-0.203174 -0.00716018,-0.0161647 -0.184215,0.187959 -0.184215,0.187959 0,0 -0.223636,0.000782465 -0.406242,-0.156803 0,0 -0.000745205,-0.252655 -0.0166056,-0.252078 -0.0158542,0.000577534 -0.054462,0.20631 -0.054462,0.20631 -0.12317,-0.0163883 -0.264597,-0.0612931 -0.347601,-0.134839 -0.0297026,-0.0263119 -0.0345837,-0.0618147 -0.0169845,-0.142036 0.00755141,-0.034416 0.0167671,-0.0767375 0.0288022,-0.128653 0.689426,0.309713 1.13011,0.417588 1.3404,0.454817z"/>
   <path id="_123308304" class="fil6" d="M8.5809 4.08354c0,0 0,0.230753 0.311166,0.356618 0,0 -0.206279,-0.0069925 -0.293685,-0.0909026 -0.0874063,-0.08391 -0.0174813,-0.265715 -0.0174813,-0.265715z"/>
   <path id="_123308232" class="fil2" d="M9.12476 4.99796c0,0 0.0139912,0.570075 -0.190567,1.35669 -0.419234,-0.330424 -0.994103,-0.438124 -1.28984,-0.472739 0.120512,-0.440397 0.390431,-1.83613 -0.475931,-3.36435l-1.00999 -1.39748c0.687886,-0.0303547 1.08322,-0.000546483 1.5839,0.512943 0.833741,0.855098 1.3934,2.2193 1.38244,3.36495l0 -6.21004e-006 0 -6.21004e-006z"/>
   <path id="_123308160" class="fil4" d="M8.98573 4.29129c0,0 -0.561897,-0.0157052 -0.551427,-0.0157052 0.0104701,0 0.532231,-0.101211 0.532231,-0.101211l0.0191952 0.116916z"/>
   <polygon id="_123308088" class="fil4" points="7.86849,3.67328 8.71458,3.32015 8.68312,3.21875 7.87901,3.62082 "/>
   <path id="_123308016" class="fil4" d="M9.19113 5.01196c0,0 0.0244738,0.58755 -0.180079,1.37411 -0.0389183,-0.0306714 -0.156089,-0.0908777 -0.197349,-0.117829 0.162206,-0.637628 0.225611,-1.3917 0.0644913,-2.18163 -0.165262,-0.810242 -0.59912,-1.74012 -1.40767,-2.69321 0.0886669,0.0648763 0.187121,0.134199 0.280532,0.230001 0.903722,0.813105 1.45104,2.24289 1.44008,3.38856l0 -6.21004e-006z"/>
   <path id="_123307944" class="fil3" d="M9.05984 6.18453c-0.0137739,0.0604361 -0.0288394,0.122443 -0.0453395,0.185879 -0.419246,-0.330455 -1.07442,-0.453842 -1.37016,-0.488457 0.0143638,-0.0525307 0.0308453,-0.118643 0.047277,-0.196902 0.692065,0.0650502 1.18665,0.349576 1.36821,0.49948l6.21004e-006 0z"/>
   <path id="_123307872" class="fil3" d="M7.64432 5.88191c0.120512,-0.44041 0.390456,-1.83617 -0.4759,-3.36437l-0.0210334 -0.0291002c1.01576,1.03718 1.01396,2.39982 0.750707,3.43283 -0.0965972,-0.0186425 -0.183122,-0.0310875 -0.253773,-0.039353l0 6.21004e-006 0 -1.24201e-005z"/>
   <path id="_123307800" class="fil1" d="M9.0286 6.42113l0.0327145 -0.080302c0.0131591,-0.0323108 -0.61521,-0.444707 -1.43333,-0.53833l-0.0176489 0.0756445c0.287543,0.0306031 0.981186,0.188121 1.41826,0.542987z"/>
   <path id="_123307728" class="fil4" d="M8.9803 5.78153c0,0 -0.16782,-0.181805 -0.741205,-0.332144 0,0 0.423046,-0.0174813 0.75519,0.0978951 0,0 0.00349625,0.0489475 0.00349625,0.0769175 0,0.02797 -0.0244738,0.150339 -0.0174813,0.157331z"/>
   <path id="_123307656" class="fil1" d="M7.64823 5.47382c0,0 0.433535,-0.0454513 0.933499,0.0664288 0,0 -0.258723,-0.160828 -0.895041,-0.181805l-0.0384588 0.115376z"/>
   <path id="_123307584" class="fil1" d="M9.07676 6.23694c0,0 -0.405801,-0.284681 -0.885148,-0.465517 0,0 0.472665,0.0954856 0.933661,0.359331l-0.0485128 0.106185z"/>
   <polygon id="_123307512" class="fil1" points="7.52347,3.75252 8.80427,3.10863 8.82119,3.16976 7.57482,3.82011 "/>
   <path id="_123307440" class="fil1" d="M8.62798 3.41001c0,0 -0.128082,-0.137646 -0.340447,-0.170826 0.0936412,0.101708 0.198746,0.165181 0.340447,0.170826z"/>
   <path id="_123307368" class="fil1" d="M8.05915 3.72104c0,0 0.073117,-0.16397 0.0229585,-0.362989 -0.0544062,0.120282 -0.0709311,0.236354 -0.0229585,0.362989z"/>
   <polygon id="_123307272" class="fil1" points="9.11315,4.1068 8.41739,4.27811 9.12365,4.20471 "/>
   <path id="_123307176" class="fil5" d="M2.85202 2.55254l1.00999 -1.39748c-0.687886,-0.0303547 -1.08322,-0.000546483 -1.5839,0.512943 -0.712087,0.730325 -1.22409,1.83199 -1.35153,2.85171 -0.128237,1.0264 0.0676087,1.9264 0.542658,2.85698 0,0 0.0576788,0.169845 0.421152,0.127827 0,0 -0.105707,-0.187022 -0.0985471,-0.203161 0.00716639,-0.0161585 0.184202,0.18791 0.184202,0.18791 0,0 0.223648,0.000813515 0.406267,-0.156754 0,0 0.000745205,-0.252643 0.0165932,-0.252065 0.015848,0.000577534 0.0666648,0.187059 0.0666648,0.187059l0.238807 -0.0630629c0.109098,-0.0512949 0.143197,-0.0594425 0.113569,-0.194567 -0.022617,-0.103223 -0.0604175,-0.277322 -0.143533,-0.569591 0.0229337,-0.0270323 0.0784452,0.0999071 0.11909,0.169658 0,0 0.13074,-0.144365 0.125138,-0.193561 -0.00557041,-0.0492146 -0.463418,-0.405149 -0.463418,-0.405149 -0.369982,-1.16087 -0.119742,-2.54755 0.396797,-3.45869l0 -6.21004e-006z"/>
   <path id="_123307104" class="fil8" d="M2.68587 1.33931c-0.133485,0.0773957 -0.266423,0.183761 -0.407745,0.328697 -0.712087,0.730325 -1.22409,1.83199 -1.35153,2.85171 -0.033056,0.264616 -0.0445757,0.520842 -0.0353289,0.771343 0.0266286,0.721159 0.225412,1.39498 0.577987,2.08564 0,0 0.00491835,0.0143452 0.0207726,0.0336833 0.104987,-0.0146557 0.211185,-0.0384836 0.315327,-0.0680496 -0.00956346,-0.0210148 -0.0153574,-0.0367696 -0.0134944,-0.0409676 0.00212383,-0.00479415 0.0192201,0.0097746 0.0421848,0.0326648 0.202522,-0.0597282 0.395958,-0.140055 0.555693,-0.215283 0.00228529,-0.0231324 0.00527232,-0.0384339 0.00918465,-0.0382911 0.00353351,0.000130411 0.00829661,0.01088 0.0135441,0.0275105 0.210458,-0.10046 0.357661,-0.189363 0.381893,-0.204211l-0.000211141 -0.000925296c-0.465455,0.159909 -1.2513,0.239937 -1.2513,0.239937 -1.0603,-2.18118 -0.325226,-4.5072 1.14303,-5.80347l0 6.21004e-006z"/>
   <path id="_123307032" class="fil7" d="M1.21758 5.68735l-0.0601442 0.0914118c0.0287339,0.0476745 0.0567473,0.114581 0.0297212,0.1778l-0.0124325 0.0290878c-0.0169782,0.039738 -0.07498,0.0760481 -0.113898,0.0593804 -0.0203379,-0.00870026 -0.0359748,-0.0279265 -0.0455941,-0.0501771l-0.0315408 0.0479353c0.0341366,0.162262 0.0772964,0.323189 0.129212,0.483594l0.00312365 0.00205552c0.134199,-0.120264 0.33623,-0.188226 0.484749,-0.124704l0.0415762 0.0177297c0.179948,0.076961 0.203099,0.162523 0.173328,0.221065 -0.0471777,0.0928525 -0.235435,0.125157 -0.200423,0.00330995 0.116954,0.0857669 0.155127,-0.0467243 0.0657892,-0.0849223l-0.00412968 -0.00175123c-0.0439919,-0.0188413 -0.107409,-0.00188785 -0.125244,0.0398374l-0.0124077 0.0290381c-0.0169286,0.0395083 0.036248,0.133497 0.0654228,0.145979l0.0374279 0.0159909c0.0689563,0.0294666 0.150246,-0.00322922 0.199622,-0.0630505 0.0301808,-0.0365026 0.0514936,-0.0862202 0.0671616,-0.129957 0.0740858,-0.206695 -0.0335715,-0.504895 -0.211775,-0.599797l-0.0100168 0.0895239c0.0383346,0.0473888 0.0668635,0.0584986 0.090679,0.11863 0.0160033,0.0404211 0.0338323,0.096237 0.0105074,0.150749 -0.00358319,0.00839597 -0.0204621,0.0207415 -0.0272745,0.0178352 -0.0321432,-0.013749 -0.0580266,-0.0448862 -0.0872448,-0.0614856 -0.0179843,-0.0101845 -0.104378,-0.0423276 -0.0963363,-0.061262l0.0017947 -0.00415452c0.0116128,-0.0271068 0.0579956,-0.0550955 0.0788551,-0.103913l0.00707944 -0.0165808c0.0620693,-0.145085 -0.0533504,-0.33741 -0.202162,-0.401032l-0.0540646 -0.0231262c-0.0708255,-0.0302988 -0.114184,-0.0185059 -0.173005,-0.0262498l0.063833 0.0975225c0.0440789,0.0146681 0.076309,0.00804821 0.125288,0.0290133l0.0332548 0.0142334c0.0802275,0.0343105 0.148327,0.1476 0.11478,0.225996l-0.0124201 0.0291189c-0.0235733,0.0550893 -0.129815,0.0968331 -0.192238,0.0701238l-0.0125008 -0.00535926c-0.0267839,-0.0114451 -0.0359437,-0.0424394 -0.0244179,-0.0693786 0.0291127,-0.0680061 0.15368,-0.0719371 0.228505,-0.0399181 0.0108489,-0.0326275 0.00281315,-0.0757563 -0.0119605,-0.0985223 -0.0646589,-0.0276098 -0.165659,-0.0265728 -0.198901,-0.0407689 -0.0305286,-0.0130535 -0.0637212,-0.109905 -0.131578,-0.200851z"/>
   <path id="_123306960" class="fil6" d="M2.85202 2.55254l0.0252314 -0.0349128c-0.00663853,-0.00373223 -0.0132025,-0.00786191 -0.0199032,-0.0111408 0,0 -1.10008,1.24826 -0.737753,3.06294 -0.133516,-0.00176365 -0.307515,0.0183879 -0.422897,0.0244613 -0.142719,0.00751415 -0.47726,0.171006 -0.736604,0.328716 0.0364653,0.200181 0.0865866,0.398039 0.149979,0.595089 0.364647,-0.280625 0.837983,-0.407782 1.13862,-0.463474 0.117531,0.352867 0.292257,0.722973 0.541286,1.10624 0.0393095,-0.0274856 0.0475441,-0.0613117 0.02797,-0.150587 -0.022617,-0.103223 -0.0604175,-0.277322 -0.143533,-0.569591 0.0229337,-0.0270323 0.0784452,0.0999071 0.11909,0.169658 0,0 0.13074,-0.144365 0.125138,-0.193561 -0.00502392,-0.0443894 -0.377962,-0.338292 -0.451023,-0.395486l-0.00106813 -0.000838355 -0.0113271 -0.00882447c-0.0055642,-0.0174626 -0.0109669,-0.0349874 -0.0162517,-0.0525556l-0.00117991 -0.00393716c-0.00489351,-0.0163262 -0.00965661,-0.0326959 -0.0143079,-0.0491028l-0.00223561 -0.00793643c-0.00416694,-0.0148358 -0.00822209,-0.0297088 -0.0121965,-0.0446067l-0.00349625 -0.0132088c-0.00332237,-0.0126561 -0.00657022,-0.025337 -0.00975597,-0.0380365 -0.00189406,-0.00755762 -0.00376328,-0.0151277 -0.00560767,-0.0226977 -0.00225424,-0.00924054 -0.00445881,-0.0185059 -0.00663853,-0.0277651 -0.00306155,-0.0130038 -0.00604237,-0.0260325 -0.0089673,-0.0390798l-0.0019189 -0.00861332 -0.00130411 -0.00588091c-0.00308639,-0.0140347 -0.00608584,-0.0280942 -0.00901077,-0.0421724l-0.00224803 -0.01088 -0.00121096 -0.00589333 -6.21004e-006 0c-0.218078,-1.0745 0.0308142,-2.27084 0.493133,-3.08632z"/>
   <path id="_123306888" class="fil9" d="M1.38845 5.69449c-0.0348321,0.0157424 -0.0707572,0.0328325 -0.107179,0.0509161l0.0184997 0.0282681c0.0440789,0.0146681 0.076309,0.00804821 0.125288,0.0290133l0.0332548 0.0142334c0.0802275,0.0343105 0.148327,0.1476 0.11478,0.225996l-0.0124201 0.0291189c-0.0235733,0.0550893 -0.129815,0.0968331 -0.192238,0.0701238l-0.0125008 -0.00535926c-0.0267839,-0.0114451 -0.0359437,-0.0424394 -0.0244179,-0.0693786 0.0291127,-0.0680061 0.15368,-0.0719371 0.228505,-0.0399181 0.0108489,-0.0326275 0.00281315,-0.0757563 -0.0119605,-0.0985223 -0.0646589,-0.0276098 -0.165659,-0.0265728 -0.198901,-0.0407689 -0.0229399,-0.00980565 -0.0473702,-0.0669256 -0.0868909,-0.133298 -0.0303733,0.0152891 -0.0610198,0.0312117 -0.0915857,0.0475627 0.0229213,0.0448179 0.0392723,0.100777 0.0164752,0.154096l-0.0124325 0.0290878c-0.0169782,0.039738 -0.07498,0.0760481 -0.113898,0.0593804 -0.0203379,-0.00870026 -0.0359748,-0.0279265 -0.0455941,-0.0501771l-0.0315222 0.0479105c0.00160219,0.0076073 0.0032168,0.0152208 0.00485625,0.0228281l0.00144694 0.00671926 0.000192511 0.000881826 0.000149041 0.000689314 0.00319196 0.0144942 0.000571324 0.00258959 0.00111781 0.00499908 0.000962556 0.00431598 0.00158356 0.00706702 0.000509223 0.00226666 0.000353972 0.00153388 0.00172018 0.00758867 4.96803e-005 0.000192511 0.00169534 0.00738995 0.000440913 0.00193132 0.00130411 0.00566356 0.000850775 0.0036515 0.00437187 0.0186177 0.000117991 0.000471963 0.0017947 0.00758246 0.000304292 0.00126064 0.00152146 0.00630319 0.000720365 0.00299324 0.0011116 0.00458922 0.00341552 0.0140223 0.000279452 0.00112402c0.00730301,0.0296964 0.0149165,0.0593556 0.0228281,0.0889837l0.000465753 0.00176365 0.000273242 0.00101224c0.0106875,0.039943 0.0219276,0.0798301 0.0337081,0.119674l0.000223561 0.000770045c0.0109483,0.037018 0.022381,0.073974 0.0342608,0.11093 0.144539,-0.111228 0.306167,-0.198342 0.46733,-0.266454l6.21004e-006 -1.24201e-005 0.0017947 -0.00415452c0.0116128,-0.0271068 0.0579956,-0.0550955 0.0788551,-0.103913l0.00707944 -0.0165808c0.0620693,-0.145085 -0.0533504,-0.33741 -0.202162,-0.401032l-0.0540646 -0.0231262c-0.00709807,-0.00303671 -0.0139043,-0.00565735 -0.0204931,-0.00791159zm0.377334 0.485054c0.0282184,-0.00963798 0.0562009,-0.0187357 0.0838542,-0.027318 -0.039856,-0.0673603 -0.0921321,-0.122853 -0.152512,-0.155009l-0.0100168 0.0895239c0.0320997,0.0396822 0.0573373,0.0539156 0.078675,0.0928028z"/>
   <path id="_123306816" class="fil5" d="M2.83285 6.4185c0,0 -0.0750359,-0.155307 -0.266988,-0.253028 -0.191952,-0.0977212 0.132622,0.256518 0.266988,0.253028z"/>
   <path id="_123306744" class="fil6" d="M1.44876 7.33601c0.00676273,0.0135689 0.0135751,0.0271503 0.0204869,0.0406758 0,0 0.0576788,0.169838 0.421128,0.127821 0,0 -0.105682,-0.187009 -0.0985223,-0.203174 0.00716018,-0.0161647 0.184215,0.187959 0.184215,0.187959 0,0 0.223636,0.000782465 0.406242,-0.156803 0,0 0.000745205,-0.252655 0.0166056,-0.252078 0.0158542,0.000577534 0.054462,0.20631 0.054462,0.20631 0.12317,-0.0163883 0.264597,-0.0612931 0.347601,-0.134839 0.0297026,-0.0263119 0.0345837,-0.0618147 0.0169845,-0.142036 -0.00755141,-0.034416 -0.0167671,-0.0767375 -0.0288022,-0.128653 -0.689426,0.309713 -1.13011,0.417588 -1.3404,0.454817z"/>
   <path id="_123306672" class="fil6" d="M1.48691 4.08354c0,0 0,0.230753 -0.311166,0.356618 0,0 0.206279,-0.0069925 0.293685,-0.0909026 0.0874063,-0.08391 0.0174813,-0.265715 0.0174813,-0.265715z"/>
   <path id="_123306600" class="fil2" d="M0.943057 4.99796c0,0 -0.0139912,0.570075 0.190567,1.35669 0.419234,-0.330424 0.994103,-0.438124 1.28984,-0.472739 -0.120512,-0.440397 -0.390431,-1.83613 0.475931,-3.36435l1.00999 -1.39748c-0.687886,-0.0303547 -1.08322,-0.000546483 -1.5839,0.512943 -0.833741,0.855098 -1.3934,2.2193 -1.38244,3.36495l0 -6.21004e-006 0 -6.21004e-006z"/>
   <path id="_123306528" class="fil4" d="M1.05677 6.38608c0.0389183,-0.0306714 0.156089,-0.0908777 0.197349,-0.117829 -0.162206,-0.637628 -0.225611,-1.3917 -0.0644913,-2.18163 0.165262,-0.810242 0.59912,-1.74012 1.40767,-2.69321 -0.0886669,0.0648763 -0.18188,0.112464 -0.275291,0.208266 -0.74133,0.666995 -1.23355,1.77385 -1.38164,2.77124 -0.098249,0.661717 -0.0681614,1.37326 0.116401,2.01316z"/>
   <path id="_123306456" class="fil3" d="M1.00798 6.18453c0.0137739,0.0604361 0.0288394,0.122443 0.0453395,0.185879 0.419246,-0.330455 1.07442,-0.453842 1.37016,-0.488457 -0.0143638,-0.0525307 -0.0308453,-0.118643 -0.047277,-0.196902 -0.692065,0.0650502 -1.18665,0.349576 -1.36821,0.49948l-6.21004e-006 0z"/>
   <path id="_123306384" class="fil3" d="M2.42349 5.88191c-0.120512,-0.44041 -0.390456,-1.83617 0.4759,-3.36437l0.0210334 -0.0291002c-1.01576,1.03718 -1.01396,2.39982 -0.750707,3.43283 0.0965972,-0.0186425 0.183122,-0.0310875 0.253773,-0.039353l0 6.21004e-006 0 -1.24201e-005z"/>
   <path id="_123306312" class="fil1" d="M1.03922 6.42113l-0.0327145 -0.080302c-0.0131591,-0.0323108 0.61521,-0.444707 1.43333,-0.53833l0.0176489 0.0756445c-0.287543,0.0306031 -0.981186,0.188121 -1.41826,0.542987z"/>
   <path id="_123306240" class="fil4" d="M1.08751 5.78153c0,0 0.16782,-0.181805 0.741205,-0.332144 0,0 -0.423046,-0.0174813 -0.75519,0.0978951 0,0 -0.00349625,0.0489475 -0.00349625,0.0769175 0,0.02797 0.0244738,0.150339 0.0174813,0.157331z"/>
   <path id="_123306168" class="fil1" d="M2.41959 5.47382c0,0 -0.433535,-0.0454513 -0.933499,0.0664288 0,0 0.258723,-0.160828 0.895041,-0.181805l0.0384588 0.115376z"/>
   <path id="_123306096" class="fil1" d="M0.991073 6.23694c0,0 0.405801,-0.284681 0.885148,-0.465517 0,0 -0.472665,0.0954856 -0.933661,0.359331l0.0485128 0.106185z"/>
   <polygon id="_123306024" class="fil4" points="1.05782,4.53682 2.01927,4.40748 1.09627,4.37952 "/>
   <polygon id="_123305952" class="fil1" points="1.48917,2.50928 2.72939,3.12976 2.69178,3.17825 1.46644,2.58819 "/>
   <path id="_123305880" class="fil1" d="M2.39374 3.16744c0,0 0.0326089,-0.178942 -0.0645223,-0.36279 -0.0246849,0.131448 -0.0130846,0.249662 0.0645223,0.36279z"/>
   <path id="_121761480" class="fil1" d="M1.82349 2.90637c0,0 0.169435,-0.0381793 0.294716,-0.192219 -0.124735,0.0274111 -0.224288,0.0817552 -0.294716,0.192219z"/>
   <polygon id="_121761384" class="fil1" points="0.906628,4.35635 2.34792,4.33612 2.33645,4.39649 0.923427,4.43688 "/>
   <path id="_121761312" class="fil1" d="M1.75613 4.55762c0,0 -0.0214743,-0.181252 -0.173322,-0.331337 0.0150593,0.133342 0.0621687,0.243912 0.173322,0.331337z"/>
   <path id="_121761240" class="fil1" d="M1.98125 4.54597c0,0 0.120866,-0.136764 0.13164,-0.349998 -0.0894184,0.100062 -0.140496,0.208856 -0.13164,0.349998z"/>
   <path id="_121761168" class="fil1" d="M1.1871 4.55842c0,0 0.138068,-0.111899 0.179955,-0.306323 -0.101981,0.0817676 -0.167833,0.175843 -0.179955,0.306323z"/>
   <polygon id="_121761096" class="fil3" points="5.28828,3.0824 5.10329,3.37272 5.11696,3.10688 "/>
   <path id="_209634336" class="fil8" d="M4.95491 3.54095l0 0.026374c0,0.0473702 0.0184128,0.079681 0.0426133,0.103894 0.0330809,0.0330995 0.0479477,0.0347079 0.102155,0.0444701 0.0743652,0.0134013 0.159865,-0.0687327 0.159865,-0.133708l0 -0.0380986c0,-0.0350433 -0.0246104,-0.0700492 -0.0432095,-0.0886545 -0.0162206,-0.0162268 -0.0567908,-0.0461654 -0.0856737,-0.0461654l-0.0410111 0c-0.0599766,0 -0.134739,0.0712478 -0.134739,0.131889zm0.11424 1.98117l0 0.00585607c0,0.0169348 0.0201888,0.0381048 0.03808,0.0381048l0.00585607 0c0.0175993,0 0.0351488,-0.0175682 0.0351488,-0.0351737l0 -0.00878721c0,-0.016854 -0.0225176,-0.0351737 -0.03808,-0.0351737 -0.017711,0 -0.0410049,0.0203938 -0.0410049,0.0351737zm0.454022 -0.228604l0 0.00586228c0,0.0461716 0.0790848,0.0506491 0.0790848,0l0 -0.00293114c0,-0.0163635 -0.010998,-0.0253432 -0.0175744,-0.0351612 -0.0262623,0 -0.0615104,-0.00263306 -0.0615104,0.0322301zm-0.910975 -0.00292493l0 0.00585607c0,0.0198659 0.0167174,0.0410297 0.0351488,0.0410297 0.0160778,0 0.0410049,-0.0152953 0.0410049,-0.0293052l0 -0.0175806c0,-0.017916 -0.0203441,-0.0322363 -0.03808,-0.0322363 -0.0177297,0 -0.0380737,0.0143204 -0.0380737,0.0322363zm0.474528 -0.11183c-0.0208719,0.0144446 -0.0527294,0.029181 -0.0527294,0.0649384l0 0.026374c0,0.0249768 0.0426878,0.0615477 0.073235,0.0615477l0.00585607 0c0.0363039,0 0.0462089,-0.0268522 0.0673727,-0.0410297 0,-0.0201143 0.00585607,-0.0156369 0.00585607,-0.0293052l0 -0.0175868c0,-0.0347514 -0.0323046,-0.0507981 -0.0527232,-0.0649384l-0.0468672 0zm0.896332 -0.113836c0,0.0277837 0.0186487,0.0410297 0.0468672,0.0410297l0.00292493 0c0.00715397,0 0.0263678,-0.0192201 0.0263678,-0.0263802l0 -0.026374c0,-0.00817241 -0.0206422,-0.0234429 -0.0263678,-0.0234429l-0.0175744 0c-0.016674,0 -0.0322177,0.0188102 -0.0322177,0.0351675zm-1.82489 -0.00293114l0 0.00293114c0,0.0192325 0.013482,0.0410297 0.0322239,0.0410297l0.0117183 0c0.0118674,0 0.0322177,-0.0161834 0.0322177,-0.0263802l0 -0.0205118c0,-0.0138111 -0.0163324,-0.0293052 -0.0263616,-0.0293052l-0.0175744 0c-0.0148917,0 -0.0322239,0.0173384 -0.0322239,0.0322363zm1.32986 -0.0498231l0 0.0293052c0,0.0128424 0.0200833,0.0375769 0.0292182,0.0440416 0.0134013,0.00947652 0.0348073,0.0179656 0.0530958,0.0149351 0.0382042,-0.00632182 0.0700058,-0.0339254 0.0700058,-0.0765574 0,-0.0334162 -0.0353848,-0.0762034 -0.0615166,-0.0762034l-0.0263616 0c-0.026995,0 -0.0644416,0.0362666 -0.0644416,0.0644788zm-0.913907 0.0117246c0,0.103031 0.15232,0.0999692 0.15232,0.00293114l0 -0.00586228c0,-0.0348259 -0.0343601,-0.0732723 -0.0644478,-0.0732723l-0.0204993 0c-0.0340807,0 -0.0673727,0.0378378 -0.0673727,0.0762034zm0.50092 -0.234174c-0.0172329,0.0112402 -0.0366268,0.0185991 -0.0504255,0.0342856 -0.00687451,0.00781223 -0.0286966,0.0448551 -0.0286966,0.0562816l0 0.0351675c0,0.0431101 0.0550023,0.0967151 0.105453,0.0967151l0.0205055 0c0.0487674,0 0.102522,-0.0558655 0.102522,-0.0996463l0 -0.0146495c0,-0.0571634 -0.0516178,-0.111371 -0.108378,-0.111371l-0.00594301 -0.000745205 -0.035037 0.003962zm0.86994 0.00557662c0,0.03613 0.0358443,0.0761972 0.0673665,0.0761972l0.00878721 0c0.0347141,0 0.0761599,-0.0293176 0.0761599,-0.0615415l0 -0.0322425c0,-0.0283426 -0.0437994,-0.0615415 -0.0761599,-0.0615415 -0.0385209,0 -0.0761537,0.0391729 -0.0761537,0.0791283zm-1.82489 -0.00586228c0,0.0472708 0.0325468,0.0820595 0.0790911,0.0820595l0.00293114 0c0.0465939,0 0.0507112,-0.0328014 0.0673665,-0.0439609 0,-0.0362232 0.0135814,-0.0381483 -0.00776255,-0.0742907 -0.00889899,-0.0150656 -0.0389804,-0.0370739 -0.059604,-0.0370739 -0.0401355,0 -0.0820222,0.0338199 -0.0820222,0.073266zm1.32986 -0.131883l0 0.0351675c0,0.0435758 0.0551762,0.0967151 0.102522,0.0967151l0.0146433 0c0.143899,0 0.143831,-0.225667 0,-0.225667l-0.00878721 0c-0.0314414,0 -0.0547788,0.0123828 -0.0710739,0.0285289 -0.0128983,0.0127803 -0.0373037,0.0424642 -0.0373037,0.0652551zm-0.808454 0.131883l0.0234305 0c0.0505311,0 0.0995904,-0.0562195 0.0995904,-0.111371 0,-0.063597 -0.0479477,-0.114296 -0.111309,-0.114296l-0.0117121 0c-0.0300938,0 -0.0583557,0.0184935 -0.0740112,0.0343912 -0.0216047,0.0219525 -0.0266597,0.0412347 -0.0309322,0.0777124 -0.00648328,0.0553625 0.0516551,0.113563 0.104943,0.113563zm0.313421 -0.325307l0 0.026374c0,0.0676646 0.0717881,0.137745 0.13767,0.137745l0.0263616 0c0.0660376,0 0.140601,-0.070366 0.140601,-0.134814l0 -0.0322363c0,-0.0735703 -0.0748931,-0.140676 -0.152314,-0.140676 -0.0798922,0 -0.15232,0.06469 -0.15232,0.143607zm0.954918 -0.0146557l0.00292493 0.0351675c0.0235857,0.035242 0.0451221,0.0761972 0.105453,0.0761972 0.0589954,0 0.117165,-0.0459853 0.117165,-0.0996401l0 -0.0293114c0,-0.048637 -0.0635039,-0.107552 -0.119407,-0.0990936 -0.0551638,0.00834629 -0.114209,0.0470907 -0.106136,0.11668zm-1.82489 -0.0175868l0 0.0263802c0,0.0514812 0.0580204,0.108241 0.113917,0.102478 0.0608398,-0.00627835 0.111632,-0.0431536 0.111632,-0.10834 0,-0.074241 -0.0395021,-0.1069 -0.104298,-0.118444 -0.0574988,-0.0102404 -0.121251,0.047159 -0.121251,0.0979261zm1.32692 -0.202218l0 0.0351675c0,0.0248029 0.0270758,0.0674845 0.039235,0.0838355 0.0226915,0.0304913 0.0521643,0.0307832 0.0780043,0.0473702l0.0380054 0.00360803c0.0135751,0.00145315 0.0193256,-0.00293114 0.0351488,-0.00293114 0.0283488,-0.0189903 0.053841,-0.0149165 0.0790911,-0.0498231 0.0176738,-0.0244303 0.03808,-0.0487115 0.03808,-0.0908529l0 -0.026374c0,-0.0389245 -0.0273055,-0.0755079 -0.0475937,-0.0959886 -0.0225859,-0.0228033 -0.0573808,-0.0417563 -0.101795,-0.0417563l-0.0146433 0c-0.0698381,0 -0.143533,0.0721731 -0.143533,0.137745zm-0.910982 0l0 0.0322363c0,0.0667766 0.0765077,0.137745 0.143533,0.137745l0.00293114 0c0.0893438,0 0.161107,-0.0649508 0.161107,-0.152394 0,-0.0782838 -0.0656774,-0.155332 -0.140601,-0.155332l-0.0175806 0c-0.0747689,0 -0.149389,0.0667517 -0.149389,0.137745zm1.37379 -0.269627c0,0.0258772 -0.00878721,0.0225424 -0.00878721,0.0380986l0 0.0439609c0,0.0615042 0.0798363,0.134814 0.143533,0.134814 0.0428679,0 0.0669815,-0.0106254 0.0938337,-0.0262809 0.0311123,-0.0181395 0.0439981,-0.0519346 0.0584861,-0.0616408 0,-0.0243309 0.0117121,-0.0265665 0.0117121,-0.046892 0,-0.0516924 -0.009402,-0.0903933 -0.0343726,-0.118003 -0.0200212,-0.0221388 -0.0605355,-0.0549092 -0.100367,-0.0549092l-0.03808 0c-0.0285724,0 -0.0595667,0.0188226 -0.0766505,0.0317519 -0.0254922,0.0192884 -0.0394524,0.0524997 -0.0493077,0.0591009zm-1.68428 0.216873c0.196467,0 0.219997,-0.295138 0.00489351,-0.309279 -0.081128,-0.00533442 -0.156878,0.0727382 -0.156797,0.151016 8.07305e-005,0.0830593 0.0697139,0.158263 0.151904,0.158263zm1.22147 -0.40151l0 0.0322363c0,0.0575174 0.0743342,0.137745 0.128883,0.137745l0.0527232 0c0.00616657,0 0.0393841,-0.0147861 0.0465256,-0.0179284 0.0154009,-0.00676894 0.0257779,-0.0178663 0.0377011,-0.029684 0.0182575,-0.0181147 0.0417315,-0.0554432 0.0417315,-0.0901325l0 -0.0322363c0,-0.0644229 -0.0763711,-0.137745 -0.140601,-0.137745l-0.0234305 0c-0.0348011,0 -0.0783521,0.0256599 -0.0974914,0.0431349 -0.0156182,0.0142645 -0.0460412,0.0665095 -0.0460412,0.0946099zm-0.910982 0.00586228l0 0.0234429c0,0.0709435 0.0724587,0.140676 0.143533,0.140676l0.0351488 0c0.0223934,0 0.0770728,-0.0346831 0.0884372,-0.0492642 0.0189282,-0.0242875 0.0404522,-0.0582129 0.0404522,-0.100199 0,-0.0815875 -0.0662797,-0.158263 -0.143533,-0.158263l-0.0234305 0c-0.0363101,0 -0.076427,0.0259828 -0.096001,0.0446316 -0.0212259,0.0202199 -0.0446067,0.0587904 -0.0446067,0.0989756zm0.454028 0.228598l0 0.0293052c0,0.0718129 0.0777559,0.137788 0.15232,0.137788 0.0760233,0 0.152314,-0.0674969 0.152314,-0.140719l0 -0.0293052c0,-0.0354096 -0.0270385,-0.0829537 -0.0480347,-0.0984726 -0.030957,-0.0228902 -0.0536672,-0.0398498 -0.104515,-0.0420171 -0.075837,-0.00323543 -0.152084,0.0679316 -0.152084,0.143421z"/>
   <path id="_121761024" class="fil3" d="M2.78219 1.16858c0.329405,-0.310322 4.18888,-0.301566 4.51821,0.00867542 -0.0861208,1.34335 -1.20714,1.98667 -2.25159,1.98037 -1.06416,-0.00640876 -2.01694,-0.687222 -2.26662,-1.98904l-6.21004e-006 0 6.21004e-006 -6.21004e-006z"/>
   <path id="_121760952" class="fil1" d="M2.76472 1.15853c0.329405,-0.296666 4.22557,-0.288301 4.55486,0.00829661 -0.0861208,1.28427 -1.22632,1.89929 -2.27076,1.89327 -1.06417,-0.00612931 -2.03443,-0.656997 -2.28411,-1.90157l6.21004e-006 6.21004e-006 6.21004e-006 0z"/>
   <path id="_121760880" class="fil2" d="M7.25692 1.26792c-0.179793,1.15114 -1.23711,1.70336 -2.20995,1.69766 -1.00385,-0.00588091 -1.92265,-0.605876 -2.21174,-1.75474 0.0626717,-0.0264113 0.142763,-0.0581819 0.346955,-0.0496555 1.10394,-0.113395 4.12457,-0.213215 4.07475,0.106726l0 6.21004e-006 -6.21004e-006 0z"/>
   <path id="_121760808" class="fil3" d="M7.2464 1.22946c-0.16836,1.07796 -1.10621,1.63069 -2.02363,1.69194l0.00163945 -0.0541888c1.78843,-0.279446 1.87117,-1.56971 1.84766,-1.6167l0.141036 -0.0336584c0.0221264,0.00553314 0.0337267,0.00985533 0.0332982,0.0126064l-6.21004e-006 0z"/>
   <path id="_121760736" class="fil3" d="M2.87489 1.19979c0.259244,1.1339 1.16553,1.66734 2.08297,1.72859l0.0158418 -0.0541888c-1.77095,-0.206024 -1.95321,-1.64475 -1.97681,-1.69697 -0.0208844,-0.00498045 -0.0901263,0.00584986 -0.121984,0.0225735l-6.21004e-006 -6.21004e-006 -1.24201e-005 0z"/>
   <path id="_121760664" class="fil4" d="M3.14158 1.11542c0.0406137,-0.0382663 0.14652,-0.0706889 0.298324,-0.0973237 0.870865,-0.152779 3.25241,-0.114935 3.48536,0.104527 -0.0715397,1.11594 -1.01869,1.65036 -1.88631,1.64512 -0.883993,-0.00532821 -1.68998,-0.570883 -1.89738,-1.65232l6.21004e-006 -6.21004e-006z"/>
   <path id="_121760520" class="fil10" d="M3.236 1.45262c0.397157,-0.314501 1.08127,-0.475211 1.76938,-0.480458l0.0560767 0c0.70782,0.00539652 1.41135,0.175309 1.80272,0.507888 -0.234441,0.838759 -1.06064,1.24204 -1.82524,1.23755 -0.782496,-0.00458922 -1.50377,-0.436268 -1.80295,-1.26498l1.24201e-005 0z"/>
   <path id="_121760448" class="fil1" d="M3.14158 1.11026c0.0406137,-0.037223 0.14652,-0.0687638 0.298324,-0.094672 0.870865,-0.148619 3.25241,-0.111806 3.48536,0.101683 -0.0715397,1.08556 -1.01869,1.60543 -1.88631,1.60034 -0.883993,-0.00518538 -1.68998,-0.555345 -1.89738,-1.60734l6.21004e-006 -6.21004e-006z"/>
   <path id="_121760376" class="fil6" d="M6.829 1.03383c-0.0784949,1.07082 -0.971623,1.58385 -1.79033,1.57879 -0.833425,-0.00514812 -1.59374,-0.547142 -1.79779,-1.58363 0.906809,-0.249259 2.72692,-0.250283 3.58813,0.00484383l-1.24201e-005 0 6.21004e-006 0z"/>
   <path id="_121760304" class="fil3" d="M6.8922 2.42629c0,0 -0.311166,0.608348 -1.43346,0.81113 0,0 0.741205,-0.013985 1.02091,-0.192294 0.2797,-0.178309 0.412558,-0.618837 0.412558,-0.618837z"/>
   <path id="_121760232" class="fil3" d="M3.17562 2.42629c0,0 0.311166,0.608348 1.43346,0.81113 0,0 -0.741205,-0.013985 -1.02091,-0.192294 -0.2797,-0.178309 -0.412558,-0.618837 -0.412558,-0.618837z"/>
   <path id="_121760592" class="fil1" d="M5.02606 2.67334c0.0291313,0.544304 0.0616781,0.642509 0.0734523,0.69132 0.0477304,-0.0190648 0.0292307,-0.143576 0.0733902,-0.701809 -0.0489475,0.00349625 -0.0978951,0.0069925 -0.146843,0.0104888z"/>
  </g>
 </g>
</svg>
