<?xml version="1.0" encoding="UTF-8"?>
<!DOCTYPE svg PUBLIC "-//W3C//DTD SVG 1.1//EN" "http://www.w3.org/Graphics/SVG/1.1/DTD/svg11.dtd">
<!-- Creator: CorelDRAW -->
<svg xmlns="http://www.w3.org/2000/svg" xml:space="preserve" width="161.909mm" height="176.792mm" style="shape-rendering:geometricPrecision; text-rendering:geometricPrecision; image-rendering:optimizeQuality; fill-rule:evenodd; clip-rule:evenodd"
viewBox="0 0 12.4212 13.5631"
 xmlns:xlink="http://www.w3.org/1999/xlink">
 <defs>
  <style type="text/css">
   <![CDATA[
    .fil0 {fill:none}
    .fil6 {fill:#4B344A}
    .fil1 {fill:#501D33}
    .fil5 {fill:#634A5B}
    .fil7 {fill:#816372}
    .fil9 {fill:#86555D}
    .fil8 {fill:#A57E72}
    .fil10 {fill:#C6AC93}
    .fil11 {fill:#C8B99F}
    .fil4 {fill:#D77D75}
    .fil2 {fill:#FFCFA5}
    .fil3 {fill:white}
   ]]>
  </style>
 </defs>
 <g id="Layer_x0020_1">
  <metadata id="CorelCorpID_0Corel-Layer"/>
  <g id="_167147624">
   <g>
    <rect id="_119545328" class="fil0" width="12.4212" height="13.5631"/>
    <path id="_119679368" class="fil1" d="M2.8708 5.88691l0.366565 -0.0624252 -0.0158806 -0.0713935 -0.364378 0.0315079c0,0 -0.0134946,0.0496824 0.0136941,0.102311zm-1.3584 0.993179c0.00560039,0.0223325 -0.00795562,0.0450026 -0.0302881,0.050626 -0.0223172,0.00560806 -0.0450026,-0.00794795 -0.0506106,-0.0302805 -0.0056234,-0.0223172 0.00794795,-0.0450026 0.0302728,-0.0506106 0.0223248,-0.0056234 0.0450103,0.00794795 0.050626,0.0302651zm-0.260426 -1.22778l-0.366565 -0.0624328 0.0158806 -0.0713935 0.364378 0.0315079c0,0 0.013487,0.0496824 -0.0136941,0.102318zm-0.121751 0.591969l-0.248028 0.016617 -0.000820879 -0.0488922 0.241791 -0.0363795c0,0 0.016525,0.0301961 0.00705803,0.0686546zm0.0685549 0.638429l-0.281339 0.084282 -0.0137862 -0.0561036 0.268957 -0.105402c0,0 0.0269586,0.0304339 0.0261684,0.077224zm0.07872 -0.794764l-0.416776 -0.0421027 0.0123822 -0.0814665 0.411959 0.007526c0,0 0.0189723,0.0547994 -0.00756436,0.116043zm1.56777 0.234626l0.416776 -0.0421027 -0.0123822 -0.0814665 -0.411959 0.00751066c0,0 -0.0189723,0.0548148 0.00756436,0.116058zm0.0985362 0.186923l0.293606 0.00708871 -0.00150367 -0.0577531 -0.287231 -0.0307254c0,0 -0.0179826,0.0364793 -0.00487157,0.0813898z"/>
    <path id="_119679440" class="fil1" d="M3.435 1.4121c-1.27463,0.571938 -2.31944,2.78286 -2.41255,3.94743 -0.106684,1.33416 -0.0901509,2.14608 0.688019,3.776 0,0 0.169232,0.3475 0.747552,0.206785 0.260779,0.0220947 0.519417,-0.068693 0.643232,-0.246264 0.00300733,-0.0043192 0.325352,-0.0503421 0.48046,-0.20133 0.0703578,-0.0684935 0.115053,-0.129392 0.0897673,-0.254012 -0.0331113,-0.163163 -0.0819958,-0.362951 -0.0819958,-0.362951 0,0 0.287622,-0.286725 0.240525,-0.408706 -0.047097,-0.121981 -0.635245,-0.631693 -0.63622,-0.63658 -0.403581,-1.85059 -0.0078252,-3.42922 1.04945,-4.70433l0.849449 -1.12476c-0.426734,-0.125993 -1.20513,-0.194349 -1.65768,0.00871513l-7.67177e-006 7.67177e-006z"/>
    <path id="_119679512" class="fil2" d="M3.56323 3.14996l1.24162 -1.71798c-0.845643,-0.0373155 -1.33164,-0.000667444 -1.94715,0.630581 -0.875387,0.897812 -1.50481,2.25212 -1.66148,3.50571 -0.157647,1.2618 0.0831082,2.36819 0.667106,3.5122 0,0 0.0709025,0.208795 0.517737,0.157141 0,0 -0.129952,-0.229915 -0.121145,-0.249754 0.00880719,-0.0198622 0.22644,0.231005 0.22644,0.231005 0,0 0.274941,0.00099733 0.49944,-0.192707 0,0 0.000920612,-0.310576 0.0203992,-0.30987 0.0194863,0.000713474 0.0819575,0.229961 0.0819575,0.229961l0.293568 -0.0775309c0.134118,-0.0630543 0.176044,-0.0730736 0.139618,-0.239183 -0.0278025,-0.126899 -0.0742704,-0.340926 -0.176451,-0.700217 0.0281937,-0.0332341 0.0964341,0.122817 0.1464,0.208565 0,0 0.160724,-0.177471 0.153842,-0.237955 -0.00685089,-0.0604996 -0.569698,-0.498059 -0.569698,-0.498059 -0.454836,-1.42711 -0.147206,-3.13178 0.487794,-4.25191l0 -1.53435e-005 0 1.53435e-005z"/>
    <path id="_119679584" class="fil3" d="M1.65432 3.91176c-0.230529,0.540338 -0.389565,1.10806 -0.458104,1.6565 -0.157647,1.2618 0.0831082,2.36819 0.667106,3.5122 0,0 0.00604535,0.0176297 0.0255393,0.0414045 0.129062,-0.0180133 0.259613,-0.0473118 0.387639,-0.0836529 -0.0117531,-0.0258385 -0.0188802,-0.045202 -0.0165864,-0.0503651 0.0026084,-0.00589192 0.023629,0.012014 0.0518535,0.040154 0.248972,-0.0734265 0.486766,-0.17217 0.683132,-0.264653 0.00281554,-0.0284392 0.00648264,-0.0472504 0.0112928,-0.047074 0.00434222,0.000161107 0.0102034,0.0133796 0.0166554,0.0338171 0.258723,-0.123492 0.439684,-0.232784 0.469474,-0.251043l-0.00026084 -0.00113542c-0.572199,0.196581 -1.53827,0.294964 -1.53827,0.294964 -0.811796,-1.67 -0.767476,-3.40907 -0.182534,-4.86835 0.225949,-0.563691 0.609338,-1.10114 0.52112,-0.967855 -0.0478258,0.0722757 -0.310269,0.186746 -0.638061,0.955081z"/>
    <path id="_119542160" class="fil4" d="M1.92346 3.35359c-0.177801,0.329004 -0.329219,0.675844 -0.449243,1.02842 0.276529,0.0298355 0.942975,0.138238 1.47763,0.515236 0.0891613,-0.499401 0.238431,-0.975043 0.430601,-1.3931 -0.0421257,-0.0202074 -0.0859698,-0.0344769 -0.13118,-0.0410133 -0.253514,-0.0366557 -0.905782,-0.0993187 -1.32781,-0.109537z"/>
    <path id="_88446104" class="fil4" d="M3.56323 3.14996l0.031017 -0.0429235c-0.00816276,-0.00458772 -0.0162258,-0.00966643 -0.0244653,-0.0136941 0,0 -2.18787,2.48154 -0.0828244,5.7213 0.0483245,-0.0337865 0.0584512,-0.0753751 0.0343849,-0.18512 -0.0278025,-0.126899 -0.0742704,-0.340926 -0.176451,-0.700217 0.0281937,-0.0332341 0.0964341,0.122817 0.1464,0.208565 0,0 0.160724,-0.177471 0.153842,-0.237955 -0.00685089,-0.0604996 -0.569698,-0.498059 -0.569698,-0.498059 -0.454836,-1.42711 -0.147206,-3.13178 0.487794,-4.25191l0 1.53435e-005z"/>
    <path id="_119679704" class="fil1" d="M1.52908 4.75306c-0.569959,-0.0643278 -0.71698,0.564166 -0.214119,0.774503l0.214119 -0.774503z"/>
    <path id="_119679776" class="fil2" d="M1.31506 5.53082c-0.185872,-0.289671 -0.19062,-0.609836 0.213897,-0.782305 0,0 0.115107,0.568102 -0.213897,0.782305z"/>
    <path id="_119679680" class="fil3" d="M1.33438 5.55474c-0.225051,-0.286801 -0.227598,-0.641007 0.209263,-0.814657 -0.17362,0.116105 -0.316875,0.484334 -0.201507,0.790982l-0.00775616 0.0236751z"/>
    <path id="_119679872" class="fil3" d="M1.50644 4.86028c0.0497207,0.0309172 0.0491837,0.12169 -0.00118912,0.202688 -0.0503805,0.0810062 -0.131555,0.121621 -0.181276,0.0907033 -0.049713,-0.0309172 -0.0491837,-0.12169 0.0011968,-0.202696 0.0503805,-0.0809985 0.131555,-0.121613 0.181269,-0.0906956z"/>
    <path id="_119679944" class="fil2" d="M3.53965 7.90253c0,0 -0.0922453,-0.190927 -0.328214,-0.311059 -0.235976,-0.120132 0.163033,0.315348 0.328214,0.311059z"/>
    <path id="_119680016" class="fil4" d="M1.83814 9.03048c0.0083162,0.0166784 0.0166861,0.0333722 0.0251864,0.0500046 0,0 0.0709025,0.208787 0.517706,0.157133 0,0 -0.129921,-0.2299 -0.121114,-0.24977 0.00879952,-0.0198699 0.226455,0.231066 0.226455,0.231066 0,0 0.274925,0.000958971 0.499409,-0.192768 0,0 0.000920612,-0.310591 0.0204146,-0.309886 0.019494,0.000713474 0.0669515,0.253629 0.0669515,0.253629 0.151418,-0.0201537 0.325283,-0.0753521 0.427317,-0.165764 0.0365176,-0.0323442 0.0425169,-0.0759888 0.0208825,-0.174609 -0.00928284,-0.0423098 -0.020614,-0.0943397 -0.0354052,-0.158161 -0.847538,0.380742 -1.38929,0.513356 -1.6478,0.559126z"/>
    <path id="_119680088" class="fil4" d="M1.88504 5.03205c0,0 0,0.283671 -0.38253,0.438403 0,0 0.25359,-0.00859238 0.361041,-0.111747 0.107451,-0.103155 0.0214886,-0.326656 0.0214886,-0.326656z"/>
    <path id="_119684744" class="fil1" d="M3.94498 6.98448c-0.224054,-1.37387 -0.359131,-3.68971 -0.495834,-4.76118 0.242267,-0.997544 2.14783,-0.691656 2.79696,-0.556725 0.649139,-0.134931 2.5547,-0.44082 2.79696,0.556725 -0.136696,1.07148 -0.276107,3.38303 -0.500161,4.75688 -1.21922,0.463659 -3.37868,0.467947 -4.59795,0.00429619l7.67177e-006 0 2.30153e-005 0z"/>
    <path id="_119684648" class="fil1" d="M9.6539 5.96865l-0.366565 -0.0624252 0.0158806 -0.0714011 0.364386 0.0315079c0,0 0.013487,0.0496824 -0.0137018,0.102318zm1.3584 0.993179c-0.00560039,0.0223325 0.00795562,0.0450026 0.0302881,0.0506183 0.0223248,0.00561573 0.0450026,-0.00794028 0.0506183,-0.0302728 0.00561573,-0.0223248 -0.00794795,-0.0450026 -0.0302805,-0.0506183 -0.0223248,-0.00561573 -0.0450026,0.00794795 -0.050626,0.0302728zm0.260426 -1.22779l0.366565 -0.0624328 -0.0158729 -0.0713935 -0.364386 0.0315079c0,0 -0.013487,0.0496824 0.0136941,0.102318zm0.121751 0.591977l0.248028 0.016617 0.000820879 -0.0488998 -0.241791 -0.0363718c0,0 -0.016525,0.0301884 -0.00705803,0.0686546zm-0.0685549 0.638421l0.281339 0.084282 0.0137862 -0.0561036 -0.268949 -0.105395c0,0 -0.0269663,0.0304262 -0.0261761,0.0772163zm-0.07872 -0.794757l0.416776 -0.0421027 -0.0123822 -0.0814665 -0.411959 0.00751833c0,0 -0.0189723,0.0548071 0.00756436,0.116051zm-1.56777 0.23461l-0.416776 -0.0421027 0.0123822 -0.0814588 0.411959 0.00751066c0,0 0.0189723,0.0548148 -0.00756436,0.116051zm-0.0985362 0.18693l-0.293606 0.00708871 0.00150367 -0.0577531 0.287231 -0.0307254c0,0 0.0179903,0.0364716 0.00487157,0.0813898z"/>
    <path id="_119684816" class="fil1" d="M9.0596 1.40785c1.27463,0.571938 2.31944,2.78286 2.41256,3.94743 0.106676,1.33415 0.0772547,2.15897 -0.700916,3.78889 0,0 -0.175668,0.328183 -0.753989,0.187475 -0.269363,0.0253015 -0.508692,-0.0804998 -0.632506,-0.241975 -0.00319913,-0.00418111 -0.316744,-0.0482171 -0.47186,-0.199213 -0.0703578,-0.0684935 -0.115053,-0.129392 -0.0897597,-0.254012 0.0331113,-0.163155 0.0819882,-0.362944 0.0819882,-0.362944 0,0 -0.287615,-0.286725 -0.240518,-0.408706 0.0470893,-0.121981 0.635238,-0.631693 0.63622,-0.63658 0.403581,-1.85059 0.0078252,-3.42922 -1.04946,-4.70433l-0.849441 -1.12476c0.426727,-0.125993 1.20513,-0.194349 1.65768,0.00871513l7.67177e-006 7.67177e-006z"/>
    <path id="_119684888" class="fil2" d="M8.93137 3.14572l-1.24162 -1.71797c0.845636,-0.0373155 1.33164,-0.000675115 1.94714,0.630581 0.875395,0.897812 1.50481,2.25212 1.66149,3.50571 0.157647,1.2618 -0.0831159,2.36819 -0.667106,3.5122 0,0 -0.0709101,0.208795 -0.517737,0.157148 0,0 0.129944,-0.229915 0.121145,-0.249754 -0.00880719,-0.0198699 -0.226448,0.231005 -0.226448,0.231005 0,0 -0.274941,0.00099733 -0.49944,-0.192707 0,0 -0.00091294,-0.310584 -0.0203992,-0.30987 -0.0194786,0.000705803 -0.0819498,0.229954 -0.0819498,0.229954l-0.293575 -0.0775232c-0.134118,-0.0630543 -0.176036,-0.0730736 -0.139611,-0.23919 0.0278025,-0.126891 0.0742704,-0.340918 0.176451,-0.700217 -0.0281937,-0.0332264 -0.0964418,0.122825 -0.146408,0.208572 0,0 -0.160724,-0.177479 -0.153834,-0.237955 0.00685089,-0.0604996 0.569698,-0.498059 0.569698,-0.498059 0.454828,-1.42712 0.147198,-3.1318 -0.487794,-4.25191l0 -1.53435e-005z"/>
    <path id="_119544248" class="fil4" d="M10.4659 3.16196c0.220924,0.378517 0.406619,0.78496 0.548969,1.1996 -0.749854,0.116327 -1.40244,0.452987 -1.40244,0.452987 0,0 -0.0394789,-0.0338939 -0.102326,-0.0908797 -0.11276,-0.54244 -0.295685,-1.05158 -0.526137,-1.48238 0.0395019,-0.0152591 0.0837603,-0.0349372 0.133519,-0.0622027 0.280695,-0.153804 0.791542,-0.0602847 1.34842,-0.0171157z"/>
    <path id="_119684432" class="fil4" d="M8.93137 3.14572l-0.0310246 -0.0429159c0.00816276,-0.00458772 0.0162335,-0.00966643 0.0244729,-0.0136941 0,0 2.18787,2.48154 0.0828244,5.7213 -0.0483245,-0.0337941 -0.0584512,-0.0753751 -0.0343849,-0.185127 0.0278025,-0.126891 0.0742704,-0.340918 0.176451,-0.700217 -0.0281937,-0.0332264 -0.0964418,0.122825 -0.146408,0.208572 0,0 -0.160724,-0.177479 -0.153834,-0.237955 0.00685089,-0.0604996 0.569698,-0.498059 0.569698,-0.498059 0.454828,-1.42712 0.147198,-3.1318 -0.487794,-4.25191l0 7.67177e-006z"/>
    <path id="_119684504" class="fil5" d="M9.45845 4.56254c-0.11513,-0.461779 -0.300319,-0.954905 -0.586568,-1.45983l-1.24162 -1.71798c0.845643,-0.0373155 1.33164,-0.000667444 1.94714,0.630581 0.548562,0.562609 1.00055,1.30454 1.3002,2.08855 -0.491545,0.115337 -1.03083,0.307753 -1.41915,0.458672z"/>
    <path id="_119684576" class="fil6" d="M9.45843 4.56254c-0.11513,-0.461787 -0.300281,-0.954905 -0.58653,-1.45983l-0.0258615 -0.0357734c0.421525,0.430417 0.70031,0.906473 0.87251,1.3971 -0.0920612,0.0339322 -0.179335,0.0671049 -0.260119,0.0985055z"/>
    <path id="_135238464" class="fil5" d="M4.11207 6.90667c-0.22199,-1.45224 -0.385314,-3.07747 -0.477652,-4.52475 0.189255,-0.779267 1.39932,-1.17288 2.61011,-1.17502l0 -2.30153e-005 0.00158806 7.67177e-006 0.00158806 -7.67177e-006 0 2.30153e-005c1.21078,0.00214042 2.42084,0.395756 2.61011,1.17502 -0.0923374,1.44727 -0.255654,3.07249 -0.477652,4.52475 -1.18141,0.372564 -3.08666,0.372579 -4.26808,7.67177e-006l0 -7.67177e-006 -1.53435e-005 0z"/>
    <polygon id="_119683208" class="fil7" points="5.23811,5.97585 4.21429,5.50745 7.28151,5.92458 "/>
    <polygon id="_124547344" class="fil7" points="7.032,4.84913 8.02146,4.90934 8.46024,4.55658 "/>
    <path id="_135244848" class="fil6" d="M4.11204 6.90667c-0.179573,-1.17469 -0.320703,-2.46255 -0.416961,-3.67787 0.0116841,-0.0544389 0.022133,-0.0863534 0.0309863,-0.0897367l0.542033 3.6566c0.0259076,-0.0617654 1.53421,0.495673 3.92961,-0.0240893l0.611041 -3.74203c0,0 -9.20612e-005,0.0851183 -0.00825482,0.156819 -0.096319,1.22774 -0.238661,2.53193 -0.420313,3.72029 -1.18143,0.372572 -3.08668,0.372587 -4.26811,7.67177e-006l-1.53435e-005 7.67177e-006 -1.53435e-005 0z"/>
    <polygon id="_119545832" class="fil6" points="3.91589,4.65954 8.08158,5.84717 4.01058,5.38246 "/>
    <path id="_119545904" class="fil1" d="M8.44524 6.578c0,0 -0.379215,0.219198 -0.693781,0.283671 0,0 0.293023,-0.00859238 0.732562,-0.124643l0.0560192 -0.120347 -0.0948 -0.038681z"/>
    <path id="_119545976" class="fil1" d="M4.06619 6.61665c0,0 0.379215,0.219205 0.693789,0.283671 0,0 -0.293031,-0.00859238 -0.732569,-0.124643l-0.0560269 -0.120347 0.0948077 -0.038681z"/>
    <path id="_119546048" class="fil5" d="M3.03615 4.56678c0.115123,-0.461779 0.300311,-0.954897 0.586568,-1.45983l1.24162 -1.71797c-0.845643,-0.0373155 -1.33164,-0.000675115 -1.94715,0.630573 -0.548554,0.562617 -1.00054,1.30454 -1.30019,2.08855 0.491545,0.115345 1.03083,0.307753 1.41915,0.458672z"/>
    <path id="_119546120" class="fil7" d="M1.82638 4.02441c0.291865,-0.72041 0.76252,-1.51856 1.42495,-2.29943 -0.347792,0.230437 -0.616649,0.528232 -0.874259,0.876875 -0.323971,0.438434 -0.578942,0.942983 -0.771358,1.37796 0.0372234,0.123209 0.224959,0.02613 0.224959,0.02613 0.00276951,-0.00388959 -0.00721913,0.0222788 -0.00429619,0.0184583z"/>
    <path id="_119546192" class="fil6" d="M3.03619 4.56678c0.115123,-0.461787 0.300273,-0.954897 0.58653,-1.45983l0.0258539 -0.0357734c-0.421518,0.430417 -0.70031,0.906473 -0.872502,1.39711 0.0920612,0.0339246 0.179335,0.0671049 0.260119,0.0984978z"/>
    <path id="_119546288" class="fil6" d="M8.71343 3.8244c0,0 -1.31522,0.743471 -1.26794,0.760663 0.0472811,0.0171924 1.21205,-0.262183 1.21205,-0.262183l0.0558888 -0.498481z"/>
    <path id="_130621488" class="fil3" d="M10.9651 4.22204c-0.0708718,-0.19237 -0.0708795,-0.19237 0,0zm0.00332955 0.00906803c0.00578451,0.0157808 0.011523,0.031577 0.0171848,0.0473808 -0.00566176,-0.0158115 -0.0114002,-0.0316 -0.0171848,-0.0473808zm0.0234449 0.0649415c0.00494062,0.0139089 0.00982753,0.0278178 0.0146684,0.0417498 -0.00484088,-0.0139243 -0.0097278,-0.0278408 -0.0146684,-0.0417498zm0.0211741 0.0605379c0.137961,0.400719 0.2355,0.809157 0.285267,1.20742 0.157662,1.26181 -0.0831006,2.36818 -0.667106,3.51223 0,0 -0.00603768,0.0176374 -0.0255393,0.0414045 -0.129054,-0.0180056 -0.259597,-0.0473195 -0.387631,-0.0836683 0.0117531,-0.0258232 0.0188956,-0.0451944 0.016594,-0.0503575 -0.00259306,-0.00591493 -0.0236367,0.012014 -0.0518611,0.0401617 -0.248956,-0.0734265 -0.486766,-0.172185 -0.683117,-0.264653 -0.00280787,-0.0284316 -0.00649799,-0.0472504 -0.0113005,-0.0470893 -0.00436524,0.000176451 -0.0102111,0.0133872 -0.0166554,0.0338171 -0.258723,-0.123477 -0.439677,-0.232777 -0.469474,-0.251028l0.000245497 -0.00112775c0.572214,0.196589 1.53827,0.294964 1.53827,0.294964 0.727521,-1.49662 0.767238,-3.04864 0.346672,-4.40513 0.0420643,-0.00797097 0.0845429,-0.0153435 0.127344,-0.0219796l-0.0017108 -0.00496363z"/>
    <path id="_119546432" class="fil1" d="M10.9655 4.74882c0.569966,-0.0643278 0.716988,0.564166 0.214119,0.774503l-0.214119 -0.774503z"/>
    <path id="_119546504" class="fil2" d="M11.1795 5.52659c0.185879,-0.289671 0.190628,-0.609836 -0.213897,-0.782305 0,0 -0.1151,0.568094 0.213897,0.782305z"/>
    <path id="_119546576" class="fil3" d="M11.1602 5.55048c0.225044,-0.286801 0.227598,-0.641007 -0.209263,-0.814657 0.173612,0.116105 0.316875,0.484334 0.201507,0.790982l0.00775616 0.0236751z"/>
    <path id="_119546648" class="fil3" d="M10.9882 4.85601c-0.0497207,0.0309172 -0.0491914,0.12169 0.00118145,0.202688 0.0503882,0.0810062 0.131563,0.121621 0.181284,0.0907033 0.049713,-0.0309172 0.049176,-0.12169 -0.0011968,-0.202696 -0.0503805,-0.0809985 -0.131555,-0.121613 -0.181269,-0.0906956z"/>
    <path id="_119546720" class="fil2" d="M8.95495 7.89829c0,0 0.0922453,-0.190927 0.328221,-0.311059 0.235976,-0.120132 -0.16304,0.315348 -0.328221,0.311059z"/>
    <path id="_119546792" class="fil4" d="M10.6565 9.02622c-0.0083162,0.0166861 -0.0166938,0.0333799 -0.0251864,0.0500046 0,0 -0.0709101,0.208787 -0.517706,0.157141 0,0 0.129914,-0.2299 0.121114,-0.24977 -0.00879952,-0.0198775 -0.226463,0.231066 -0.226463,0.231066 0,0 -0.274925,0.000958971 -0.499409,-0.192768 0,0 -0.00091294,-0.310599 -0.0204146,-0.309886 -0.0194863,0.000705803 -0.0669515,0.253621 -0.0669515,0.253621 -0.151418,-0.0201461 -0.325275,-0.0753444 -0.427317,-0.165756 -0.0365099,-0.0323518 -0.0425093,-0.0759965 -0.0208749,-0.174617 0.00928284,-0.0423021 0.0206064,-0.094332 0.0354052,-0.158153 0.847538,0.380742 1.38928,0.513356 1.6478,0.559118z"/>
    <path id="_119546864" class="fil4" d="M10.6096 5.02782c0,0 0,0.283671 0.382522,0.438403 0,0 -0.253583,-0.00860005 -0.361033,-0.111755 -0.107451,-0.103147 -0.0214886,-0.326648 -0.0214886,-0.326648z"/>
    <path id="_119546936" class="fil1" d="M10.8792 5.87626c0.0280403,0.0204759 0.0341624,0.0597861 0.0137018,0.087811 -0.0204836,0.028025 -0.0597861,0.034147 -0.0878264,0.0136788 -0.0280173,-0.0204606 -0.0341394,-0.0597784 -0.0136711,-0.0878034 0.0204683,-0.028025 0.0597861,-0.034147 0.0877957,-0.0136864zm-0.502209 0.705987c-0.00764108,0.0217188 0.00376684,0.0455473 0.0254779,0.053196 0.0217111,0.00764108 0.0455473,-0.00375917 0.0531884,-0.0254856 0.00765642,-0.0217111 -0.00375917,-0.0455396 -0.0254779,-0.0531884 -0.0217111,-0.00765642 -0.0455473,0.00376684 -0.0531884,0.0254779zm0.400413 -0.104628c-0.00510172,0.014492 0.002501,0.0303649 0.0169853,0.0354666 0.0144843,0.00509405 0.0303649,-0.00250867 0.0354589,-0.016993 0.0051094,-0.0144766 -0.002501,-0.0303572 -0.0169853,-0.0354666 -0.0144766,-0.00509405 -0.0303572,0.00252401 -0.0354589,0.016993zm-0.0763341 0.600952c-0.00510172,0.0144843 0.00249332,0.0303649 0.0169776,0.0354512 0.0144843,0.00511707 0.0303649,-0.002501 0.0354589,-0.0169776 0.0051094,-0.014492 -0.002501,-0.0303572 -0.0169853,-0.0354589 -0.0144766,-0.00510172 -0.0303572,0.002501 -0.0354512,0.0169853zm0.189055 -0.192822c-0.00637524,0.01809 0.00313775,0.0379522 0.0212201,0.0443275 0.0180977,0.00637524 0.0379752,-0.0031531 0.0443428,-0.0212431 0.00637524,-0.01809 -0.00316077,-0.0379446 -0.0212508,-0.0443198 -0.0180824,-0.00636757 -0.0379446,0.00314542 -0.0443121,0.0212355zm-0.647965 0.260687c-0.00892994,0.0253475 0.00438058,0.053127 0.0297204,0.0620569 0.0253552,0.00892994 0.0531347,-0.00438058 0.0620646,-0.0297358 0.00893761,-0.0253398 -0.00439592,-0.0531193 -0.0297434,-0.0620492 -0.0253322,-0.00893761 -0.0531193,0.00438058 -0.0620416,0.0297281zm0.178292 -1.68929c0.0240126,0.01753 0.0292601,0.0512474 0.0117225,0.0752524 -0.0175223,0.0240203 -0.0512551,0.0292755 -0.0752524,0.0117301 -0.0240126,-0.01753 -0.0292678,-0.0512474 -0.0117378,-0.0752524 0.0175453,-0.0240203 0.0512551,-0.0292678 0.0752677,-0.0117301zm-0.502831 0.181123c0.0160033,0.0116994 0.0195093,0.03417 0.00781753,0.0501734 -0.0116918,0.016011 -0.0341624,0.019517 -0.050181,0.0078252 -0.016011,-0.0116918 -0.0195093,-0.03417 -0.0078252,-0.050181 0.0117071,-0.0160033 0.03417,-0.0195093 0.0501887,-0.00781753zm0.557039 0.517752c0.016011,0.0116918 0.0195093,0.03417 0.00780986,0.0501657 -0.0116841,0.0160186 -0.0341547,0.0195246 -0.0501734,0.00781753 -0.016011,-0.0116918 -0.019517,-0.0341547 -0.00781753,-0.0501734 0.0116994,-0.0160033 0.03417,-0.0195093 0.050181,-0.00780986zm-0.572483 0.477974c0.024005,0.0175377 0.0292524,0.0512551 0.0117225,0.0752677 -0.0175377,0.0239973 -0.0512627,0.0292524 -0.07526,0.0117225 -0.0240126,-0.0175377 -0.0292601,-0.0512551 -0.0117378,-0.07526 0.0175377,-0.024005 0.0512627,-0.0292601 0.0752754,-0.0117301zm0.193582 -0.478764c0.0200003,0.014607 0.0243885,0.0427087 0.0097815,0.0627167 -0.014607,0.0200003 -0.0427317,0.0243809 -0.062732,0.00977383 -0.0199926,-0.0146147 -0.0243579,-0.0427317 -0.00975849,-0.0627244 0.0146147,-0.0199926 0.0427011,-0.0243885 0.062709,-0.00976616zm1.00255 -0.559433c0.0142311,0.0103799 0.0173382,0.0303342 0.00695062,0.0445576 -0.0103876,0.0142235 -0.0303418,0.0173305 -0.0445653,0.00694295 -0.0142235,-0.0103876 -0.0173305,-0.0303342 -0.00693528,-0.0445653 0.0103799,-0.0142235 0.0303342,-0.0173305 0.0445499,-0.00693528z"/>
    <path id="_119547008" class="fil7" d="M10.6639 4.04149c-0.291872,-0.72041 -0.758224,-1.53989 -1.42066,-2.32075 0.648656,0.474622 1.13726,1.17785 1.48032,1.90186 0.0259459,0.0547457 0.128019,0.287054 0.150167,0.369741 -0.0235677,0.0780142 -0.160654,0.113519 -0.20983,0.0491453z"/>
    <path id="_119547224" class="fil1" d="M1.75445 5.7199c-0.0298048,0.0178138 -0.0395249,0.0563875 -0.0217341,0.086177 0.0178062,0.0297971 0.0563875,0.0395173 0.0861846,0.0217188 0.0297818,-0.0177985 0.0395096,-0.0563798 0.0217034,-0.086177 -0.0177908,-0.0297895 -0.0563721,-0.0395019 -0.0861539,-0.0217188zm0.435028 0.749263c0.00560806,0.0223248 -0.00795562,0.0450026 -0.0302805,0.0506183 -0.0223172,0.00561573 -0.0450026,-0.00794795 -0.0506106,-0.0302728 -0.0056234,-0.0223248 0.00794795,-0.0450026 0.0302728,-0.0506183 0.0223248,-0.00561573 0.0450026,0.00794795 0.0506183,0.0302728zm-0.389074 -0.141076c0.00374382,0.0148986 -0.00528585,0.0300043 -0.0201844,0.0337481 -0.0148832,0.00374382 -0.0300043,-0.00529352 -0.0337404,-0.0201844 -0.00375149,-0.0148909 0.00528585,-0.0299966 0.0201844,-0.0337481 0.0148832,-0.00373615 0.0299966,0.00530119 0.0337404,0.0201844zm0.0206447 0.605425c0.00374382,0.0148986 -0.00529352,0.0300043 -0.0201767,0.0337404 -0.0148909,0.00375917 -0.0300043,-0.00528585 -0.0337404,-0.0201767 -0.00375917,-0.0148909 0.00528585,-0.0299966 0.0201767,-0.0337404 0.0148909,-0.00374382 0.0299966,0.00529352 0.0337404,0.0201767zm-0.17049 -0.209424c0.00467978,0.018604 -0.00661306,0.0375073 -0.0252094,0.042187 -0.0186117,0.00467978 -0.0375226,-0.00662841 -0.0421947,-0.0252401 -0.00467978,-0.0185964 0.00663608,-0.0374919 0.0252324,-0.0421717 0.0185964,-0.00467211 0.0374996,0.00662841 0.0421717,0.0252248zm0.621191 0.319276c0.00655936,0.0260687 -0.00925982,0.0525056 -0.0353131,0.0590573 -0.0260687,0.00655936 -0.0525056,-0.00925982 -0.0590573,-0.0353362 -0.00655936,-0.0260456 0.00926749,-0.0524826 0.0353285,-0.0590419 0.0260533,-0.00655936 0.0524902,0.00925982 0.0590419,0.0353208zm-0.0218876 -1.69852c-0.0255316,0.0152438 -0.0338555,0.0483321 -0.0186117,0.0738484 0.0152438,0.0255316 0.0483398,0.0338708 0.0738638,0.0186117 0.0255163,-0.0152438 0.0338555,-0.0483321 0.0186117,-0.0738484 -0.0152515,-0.0255316 -0.0483398,-0.0338708 -0.0738638,-0.0186117zm0.484004 0.226678c-0.017016,0.0101804 -0.022578,0.0322291 -0.0124052,0.0492451 0.0101651,0.017016 0.0322137,0.0225703 0.0492374,0.0124129 0.0170237,-0.0101728 0.0225857,-0.0322291 0.0124129,-0.0492451 -0.0101728,-0.0170237 -0.0322214,-0.022578 -0.0492451,-0.0124129zm-0.602364 0.464226c-0.0170237,0.0101651 -0.022578,0.0322214 -0.0124052,0.0492374 0.0101651,0.0170237 0.0322137,0.0225857 0.0492374,0.0124052 0.0170237,-0.0101651 0.0225857,-0.0322137 0.0124052,-0.0492374 -0.0101651,-0.017016 -0.0322214,-0.022578 -0.0492374,-0.0124052zm0.525999 0.528684c-0.0255163,0.0152438 -0.0338555,0.0483398 -0.018604,0.0738561 0.0152515,0.025524 0.0483398,0.0338632 0.0738561,0.0186117 0.025524,-0.0152515 0.0338632,-0.0483398 0.0186117,-0.0738561 -0.0152438,-0.025524 -0.0483398,-0.0338632 -0.0738638,-0.0186117zm-0.148648 -0.494576c-0.0212585,0.0127044 -0.0282244,0.0402768 -0.01552,0.0615429 0.0127044,0.0212661 0.0402998,0.0282168 0.0615736,0.0155123 0.0212508,-0.0127121 0.0281861,-0.0402998 0.0154893,-0.0615506 -0.0127044,-0.0212661 -0.0402768,-0.0282168 -0.0615429,-0.0155046zm-0.94675 -0.64943c-0.0151211,0.00902967 -0.020054,0.0286157 -0.0110243,0.0437291 0.00902967,0.0151211 0.0286157,0.020054 0.0437367,0.0110167 0.0151134,-0.009022 0.0200463,-0.028608 0.0110167,-0.0437291 -0.00902967,-0.0151134 -0.0286157,-0.0200463 -0.0437291,-0.0110167z"/>
    <path id="_121761024" class="fil6" d="M3.46787 1.45379c0.404954,-0.381486 5.14954,-0.370723 5.55441,0.0106638 -0.10587,1.65143 -1.48399,2.44228 -2.76796,2.43454 -1.30821,-0.0078789 -2.47948,-0.84483 -2.78644,-2.44521l-7.67177e-006 0z"/>
    <path id="_121760952" class="fil1" d="M3.44638 1.44144c0.404954,-0.3647 5.19463,-0.35442 5.59947,0.0102034 -0.10587,1.5788 -1.50756,2.33486 -2.79154,2.32745 -1.30822,-0.00753367 -2.50098,-0.807676 -2.80794,-2.33766l7.67177e-006 7.67177e-006z"/>
    <path id="_121760880" class="fil8" d="M8.96879 1.57591c-0.221024,1.41513 -1.52082,2.094 -2.71679,2.087 -1.23407,-0.0072268 -2.36359,-0.744821 -2.71897,-2.15716 0.0770399,-0.0324669 0.175499,-0.0715239 0.42652,-0.0610442 1.35711,-0.139404 5.07048,-0.262114 5.00923,0.131203l0 7.67177e-006 7.67177e-006 0z"/>
    <path id="_121760808" class="fil9" d="M8.95588 1.52863c-0.203946,1.30583 -1.32642,1.98466 -2.43829,2.07624l0.000805535 0.00459539 -0.375909 0.00770245c-1.12783,-0.0752907 -2.24197,-0.731073 -2.56065,-2.12501l7.67177e-006 7.67177e-006c0.0391644,-0.0205603 0.12429,-0.0338785 0.14996,-0.0277565 0.0254012,0.056165 0.200126,1.41733 1.70188,1.92642 0.659081,0.223402 1.31802,0.16983 1.95386,-0.104259 1.31094,-0.565087 1.37821,-1.68371 1.35404,-1.73205l0.173382 -0.0413815c0.0271964,0.00680486 0.0414582,0.0121137 0.0409289,0.015497l-1.53435e-005 0z"/>
    <path id="_121760664" class="fil10" d="M3.90966 1.38844c0.0499279,-0.0470433 0.180125,-0.0868981 0.366741,-0.119641 1.07059,-0.18782 3.9983,-0.141299 4.2847,0.128494 -0.0879491,1.37187 -1.25232,2.02884 -2.31892,2.02241 -1.08672,-0.00655169 -2.07755,-0.701806 -2.33252,-2.03125l7.67177e-006 -7.67177e-006 -7.67177e-006 0z"/>
    <path id="_121760520" class="fil11" d="M4.02573 1.80297c0.488239,-0.386626 1.32924,-0.58419 2.17516,-0.590642l0.0689308 0c0.870162,0.00663608 1.73503,0.215515 2.21617,0.624367 -0.288213,1.03112 -1.30389,1.52688 -2.24384,1.52137 -0.961947,-0.00564642 -1.84864,-0.536326 -2.21643,-1.55509l1.53435e-005 0z"/>
    <path id="_121760448" class="fil1" d="M3.90966 1.38209c0.0499279,-0.0457544 0.180125,-0.0845352 0.366741,-0.116381 1.07059,-0.182703 3.9983,-0.137447 4.2847,0.125004 -0.0879491,1.33452 -1.25232,1.97361 -2.31892,1.96736 -1.08672,-0.00637524 -2.07755,-0.682711 -2.33252,-1.97597l7.67177e-006 -7.67177e-006 -7.67177e-006 0z"/>
    <path id="_121760376" class="fil4" d="M8.44275 1.28814c-0.0964955,1.31641 -1.19445,1.94708 -2.20092,1.94086 -1.02456,-0.00632921 -1.95925,-0.672622 -2.21009,-1.94682 1.11477,-0.306418 3.35232,-0.307676 4.41104,0.00595329l-1.53435e-005 0 -7.67177e-006 0z"/>
    <path id="_121760304" class="fil6" d="M8.52043 2.99994c0,0 -0.38253,0.747867 -1.76221,0.997153 0,0 0.911191,-0.0171924 1.25504,-0.236398 0.343841,-0.219198 0.507173,-0.760755 0.507173,-0.760755z"/>
    <path id="_121760232" class="fil6" d="M3.95152 2.99994c0,0 0.38253,0.747867 1.76221,0.997153 0,0 -0.911191,-0.0171924 -1.25504,-0.236398 -0.343841,-0.219198 -0.507173,-0.760755 -0.507173,-0.760755z"/>
    <path id="_119684072" class="fil1" d="M9.38981 4.63045c0,0 0.84371,-0.35119 1.67886,-0.535351l-0.0449642 -0.160562c0,0 -0.713091,0.143431 -1.71098,0.520322l0.0428238 0.094217 0.0342621 0.0813744z"/>
    <path id="_119683568" class="fil1" d="M3.10874 4.63045c0,0 -0.84371,-0.35119 -1.67886,-0.535351l0.0449642 -0.160562c0,0 0.713091,0.143431 1.71098,0.520322l-0.0428238 0.094217 -0.0342621 0.0813744z"/>
    <path id="_119683712" class="fil3" d="M10.0882 2.53867c0.0162872,0.0219259 0.0324592,0.0439976 0.0484932,0.066215 -0.110144,0.0632921 -0.184368,0.182089 -0.184368,0.318187 0,0.202512 0.16423,0.366733 0.366733,0.366733 0.0781369,0 0.150566,-0.0244422 0.210068,-0.0661076 0.0132875,0.0238899 0.0264523,0.0478718 0.0394636,0.0719612 -0.0713398,0.0478642 -0.157187,0.0758277 -0.249532,0.0758277 -0.247614,0 -0.448407,-0.200793 -0.448407,-0.448415 0,-0.163163 0.0872203,-0.305958 0.217548,-0.384402zm0.606745 1.00306l0.000544695 0.00112008c-0.109729,0.0668057 -0.238592,0.105318 -0.376431,0.105318 -0.40039,0 -0.725089,-0.3247 -0.725089,-0.725097 0,-0.120516 0.0294673,-0.234165 0.0815279,-0.334174 0.021527,0.0239282 0.0488385,0.042563 0.0797097,0.0537254 -0.0421027,0.0844662 -0.0658238,0.179696 -0.0658238,0.280449 0,0.347723 0.281968,0.629683 0.629676,0.629683 0.118421,0 0.229209,-0.0327278 0.323818,-0.0896062 0.0108479,0.0303035 0.0288919,0.0571777 0.0520683,0.0785819zm-0.854788 -1.23095c0.0774465,0 0.140225,0.0627934 0.140225,0.140225 0,0.0774388 -0.0627781,0.140232 -0.140225,0.140232 -0.0774388,0 -0.140217,-0.0627934 -0.140217,-0.140232 0,-0.0774311 0.0627781,-0.140225 0.140217,-0.140225z"/>
    <path id="_119683424" class="fil1" d="M1.65453 3.75154c0,0 0.761783,0.1119 1.53648,0.542286l0.0344309 -0.107597c0,0 -0.710137,-0.408867 -1.51926,-0.54659l-0.0817734 0.0387347 0.030127 0.0731656z"/>
    <path id="_119542952" class="fil1" d="M10.8911 3.82095c0,0 -0.765167,0.085732 -1.55415,0.489328l-0.0307254 -0.108717c0,0 0.723731,-0.384294 1.5371,-0.494215l0.0803924 0.0415119 -0.0326127 0.0720916z"/>
   </g>
   <path id="_169920336" class="fil3" d="M6.01547 4.26918l0 0.0340703c0,0.0611977 0.0237901,0.10294 0.0550603,0.134225 0.0427317,0.0427548 0.0619418,0.0448338 0.13197,0.0574462 0.0960659,0.0173075 0.206524,-0.0888007 0.206524,-0.172737l0 -0.0492221c0,-0.0452634 -0.0317918,-0.0904885 -0.0558198,-0.114524 -0.0209593,-0.0209669 -0.0733728,-0.0596403 -0.110681,-0.0596403l-0.0529812 0c-0.0774772,0 -0.174072,0.0920459 -0.174072,0.170382zm0.147582 2.55942l0 0.00757203c0,0.0218722 0.026084,0.0492221 0.049199,0.0492221l0.00756436 0c0.0227314,0 0.0454092,-0.0226931 0.0454092,-0.0454322l0 -0.0113619c0,-0.0217725 -0.0290913,-0.0454322 -0.0491914,-0.0454322 -0.0228849,0 -0.0529812,0.0263372 -0.0529812,0.0454322zm0.586545 -0.295325l0 0.00757971c0,0.059648 0.102173,0.0654248 0.102173,0l0 -0.00378985c0,-0.0211434 -0.0142081,-0.0327431 -0.0227008,-0.0454322 -0.0339322,0 -0.0794718,-0.00339092 -0.0794718,0.0416423zm-1.17686 -0.00378218l0 0.00757203c0,0.0256621 0.021596,0.0530042 0.0454092,0.0530042 0.0207675,0 0.0529735,-0.0197625 0.0529735,-0.0378602l0 -0.0227161c0,-0.023138 -0.0262835,-0.0416423 -0.0491914,-0.0416423 -0.0229156,0 -0.0491914,0.0185043 -0.0491914,0.0416423zm0.613028 -0.144467c-0.0269586,0.0186577 -0.0681176,0.0376991 -0.0681176,0.0838908l0 0.0340703c0,0.0322751 0.0551447,0.0795102 0.0946082,0.0795102l0.00756436 0c0.0469052,0 0.0597017,-0.0346841 0.0870362,-0.0530042 0,-0.0259843 0.00757203,-0.0201998 0.00757203,-0.0378602l0 -0.0227161c0,-0.0448952 -0.0417344,-0.0656166 -0.0681176,-0.0838908l-0.0605456 0zm1.15795 -0.147068c0,0.0358962 0.024097,0.0530119 0.0605456,0.0530119l0.00378218 0c0.00923681,0 0.034055,-0.0248335 0.034055,-0.034078l0 -0.034078c0,-0.0105564 -0.0266671,-0.0302881 -0.034055,-0.0302881l-0.0227008 0c-0.0215423,0 -0.041627,0.0243042 -0.041627,0.0454322zm-2.35753 -0.00378218l0 0.00378218c0,0.0248565 0.0174149,0.0530119 0.0416193,0.0530119l0.0151441 0c0.0153282,0 0.0416193,-0.0209132 0.0416193,-0.034078l0 -0.026506c0,-0.0178445 -0.0210974,-0.0378602 -0.034055,-0.0378602l-0.0227084 0c-0.0192331,0 -0.0416193,0.0224016 -0.0416193,0.04165zm1.718 -0.0643661l0 0.0378602c0,0.016594 0.0259459,0.0485469 0.0377451,0.0568938 0.0173152,0.0122441 0.0449719,0.0232071 0.0685933,0.0193022 0.0493601,-0.00817043 0.0904425,-0.0438365 0.0904425,-0.0989121 0,-0.0431614 -0.0457084,-0.0984364 -0.0794718,-0.0984364l-0.034055 0c-0.0348759,0 -0.083254,0.0468438 -0.083254,0.0832924zm-1.18065 0.0151441c0,0.133105 0.196781,0.129154 0.196781,0.00378985l0 -0.00757203c0,-0.0449949 -0.0443812,-0.0946543 -0.083254,-0.0946543l-0.0264906 0c-0.0440283,0 -0.0870362,0.0488768 -0.0870362,0.0984364zm0.647129 -0.302521c-0.0222635,0.014515 -0.0473118,0.024028 -0.065141,0.0442891 -0.00888391,0.010096 -0.03707,0.0579525 -0.03707,0.072713l0 0.0454322c0,0.0556894 0.0710482,0.124942 0.136228,0.124942l0.0264906 0c0.0630082,0 0.132445,-0.0721683 0.132445,-0.128725l0 -0.0189339c0,-0.0738484 -0.066683,-0.143869 -0.14001,-0.143869l-0.00767944 -0.000966643 -0.0452634 0.00511707zm1.12385 0.00720379c0,0.046675 0.0463068,0.0984441 0.0870362,0.0984441l0.0113542 0c0.0448415,0 0.0983904,-0.0378755 0.0983904,-0.0795102l0 -0.04165c0,-0.0366173 -0.0565946,-0.0795102 -0.0983904,-0.0795102 -0.0497668,0 -0.0983904,0.0506106 -0.0983904,0.102226zm-2.35753 -0.00757203c0,0.0610673 0.042049,0.106016 0.102173,0.106016l0.00378985 0c0.0601927,0 0.0655092,-0.0423788 0.0870285,-0.0567941 0,-0.0467978 0.0175453,-0.0492911 -0.010027,-0.0959738 -0.0115,-0.0194633 -0.0503651,-0.0479025 -0.0770015,-0.0479025 -0.0518535,0 -0.105962,0.0436907 -0.105962,0.0946543zm1.71801 -0.170375l0 0.0454322c0,0.0562878 0.0712784,0.124942 0.132445,0.124942l0.0189186 0c0.185902,0 0.18581,-0.291527 0,-0.291527l-0.0113542 0c-0.0406143,0 -0.0707644,0.0159956 -0.0918234,0.0368552 -0.0166554,0.016502 -0.0481864,0.0548531 -0.0481864,0.0842974zm-1.04443 0.170375l0.0302728 0c0.0652791,0 0.128663,-0.0726286 0.128663,-0.143876 0,-0.0821646 -0.0619495,-0.147651 -0.1438,-0.147651l-0.0151364 0c-0.0388728,0 -0.0753905,0.0238822 -0.0956056,0.0444195 -0.0279176,0.0283625 -0.0344462,0.0532804 -0.0399622,0.100393 -0.00837757,0.0715239 0.066729,0.146715 0.135568,0.146715zm0.404901 -0.420259l0 0.034078c0,0.0874121 0.092744,0.177939 0.177855,0.177939l0.0340626 0c0.08531,0 0.181637,-0.0908951 0.181637,-0.174157l0 -0.04165c0,-0.0950378 -0.0967563,-0.181736 -0.196773,-0.181736 -0.103208,0 -0.196781,0.0835839 -0.196781,0.185526zm1.23364 -0.0189339l0.00378218 0.0454322c0.0304723,0.0455319 0.0582978,0.0984441 0.136235,0.0984441 0.0762113,0 0.151364,-0.0594102 0.151364,-0.128732l0 -0.0378602c0,-0.0628318 -0.0820419,-0.138943 -0.154256,-0.128019 -0.0712707,0.0107788 -0.147551,0.0608294 -0.137125,0.150735zm-2.35753 -0.0227161l0 0.034078c0,0.0665065 0.0749608,0.139833 0.147167,0.132392 0.0785972,-0.00810906 0.144214,-0.0557431 0.144214,-0.139964 0,-0.0959124 -0.0510326,-0.138099 -0.134747,-0.153013 -0.0742704,-0.0132338 -0.156634,0.0609215 -0.156634,0.126507zm1.71423 -0.261239l0 0.0454322c0,0.0320373 0.0349756,0.0871743 0.0506874,0.108302 0.0293061,0.0393945 0.0673888,0.0397704 0.100769,0.0611977l0.0490993 0.00465676c0.0175377,0.00187958 0.0249716,-0.00378218 0.0454092,-0.00378218 0.036625,-0.0245343 0.0695599,-0.0192715 0.102173,-0.0643585 0.0228312,-0.0315693 0.0491914,-0.0629392 0.0491914,-0.117378l0 -0.0340703c0,-0.0502884 -0.0352671,-0.0975465 -0.0614815,-0.124006 -0.0291834,-0.0294596 -0.0741323,-0.0539479 -0.131509,-0.0539479l-0.0189186 0c-0.0902123,0 -0.185419,0.0932427 -0.185419,0.177954zm-1.17687 0l0 0.0416423c0,0.086269 0.0988354,0.177947 0.185419,0.177947l0.00378985 0c0.115422,0 0.208127,-0.0839061 0.208127,-0.196873 0,-0.101137 -0.0848421,-0.20067 -0.181637,-0.20067l-0.0227084 0c-0.0965952,0 -0.192991,0.0862383 -0.192991,0.177954zm1.77476 -0.348329c0,0.0334336 -0.0113542,0.029122 -0.0113542,0.0492221l0 0.0567941c0,0.0794565 0.103139,0.174157 0.185427,0.174157 0.0553825,0 0.0865375,-0.0137248 0.121222,-0.0339476 0.0401924,-0.0234372 0.0568401,-0.0670973 0.0755516,-0.0796329 0,-0.0314312 0.0151364,-0.0343158 0.0151364,-0.0605763 0,-0.0667827 -0.0121444,-0.11678 -0.0444042,-0.152453 -0.0258615,-0.0286003 -0.078206,-0.0709332 -0.129661,-0.0709332l-0.049199 0c-0.0369089,0 -0.0769478,0.0243118 -0.0990195,0.0410209 -0.0329349,0.0249256 -0.0509712,0.0678261 -0.0636987,0.0763494zm-2.17589 0.280173c0.253813,0 0.284216,-0.381279 0.00632921,-0.399546 -0.104804,-0.00688925 -0.202665,0.0939715 -0.202565,0.195093 0.000107405,0.107297 0.0900589,0.204453 0.196236,0.204453zm1.578 -0.518696l0 0.0416423c0,0.0743011 0.0960275,0.177947 0.1665,0.177947l0.0681099 0c0.00796329,0 0.0508792,-0.0191027 0.0601083,-0.0231534 0.0198929,-0.00874581 0.0333031,-0.023092 0.0487004,-0.0383588 0.0235907,-0.0233912 0.0539095,-0.0716236 0.0539095,-0.116434l0 -0.0416423c0,-0.0832233 -0.0986589,-0.177954 -0.181637,-0.177954l-0.0302728 0c-0.0449566,0 -0.101221,0.0331574 -0.125947,0.0557277 -0.0201767,0.0184276 -0.0594715,0.0859238 -0.0594715,0.122227zm-1.17687 0.00757203l0 0.0302881c0,0.0916469 0.0935956,0.181729 0.185419,0.181729l0.0454092 0c0.0289226,0 0.0995719,-0.0448031 0.114248,-0.0636373 0.0244499,-0.0313775 0.0522601,-0.0752063 0.0522601,-0.129453 0,-0.105395 -0.0856246,-0.204453 -0.185427,-0.204453l-0.0302728 0c-0.0468975,0 -0.0987356,0.0335717 -0.124014,0.0576533 -0.0274266,0.02613 -0.0576226,0.0759582 -0.0576226,0.127873zm0.586537 0.295317l0 0.0378602c0,0.092767 0.100454,0.178008 0.196781,0.178008 0.098214,0 0.196773,-0.0871973 0.196773,-0.181798l0 -0.0378602c0,-0.0457467 -0.0349296,-0.107159 -0.0620569,-0.127213 -0.0399929,-0.029567 -0.0693298,-0.0514852 -0.135015,-0.0542777 -0.0979761,-0.00418111 -0.196482,0.087765 -0.196482,0.185281z"/>
  </g>
 </g>
</svg>
