<?xml version="1.0" encoding="UTF-8"?>
<!DOCTYPE svg PUBLIC "-//W3C//DTD SVG 1.1//EN" "http://www.w3.org/Graphics/SVG/1.1/DTD/svg11.dtd">
<!-- Creator: CorelDRAW -->
<svg xmlns="http://www.w3.org/2000/svg" xml:space="preserve" width="161.908mm" height="176.791mm" style="shape-rendering:geometricPrecision; text-rendering:geometricPrecision; image-rendering:optimizeQuality; fill-rule:evenodd; clip-rule:evenodd"
viewBox="0 0 15.7341 17.1805"
 xmlns:xlink="http://www.w3.org/1999/xlink">
 <defs>
  <style type="text/css">
   <![CDATA[
    .fil0 {fill:none}
    .fil3 {fill:#4B344A}
    .fil1 {fill:#501D33}
    .fil2 {fill:#634A5B}
    .fil4 {fill:#816372}
    .fil12 {fill:#86555D}
    .fil10 {fill:#A57E72}
    .fil9 {fill:#B1C884}
    .fil11 {fill:#C6AC93}
    .fil8 {fill:#D49293}
    .fil7 {fill:#D77D75}
    .fil5 {fill:#FFCFA5}
    .fil6 {fill:white}
    .fil13 {fill:#501D33;fill-rule:nonzero}
   ]]>
  </style>
 </defs>
 <g id="Layer_x0020_1">
  <metadata id="CorelCorpID_0Corel-Layer"/>
  <g id="_241242312">
   <rect id="_133936424" class="fil0" width="15.7341" height="17.1805"/>
   <path id="_205121040" class="fil1" d="M4.29902 1.79424c-1.62253,0.728049 -2.9525,3.54243 -3.07104,5.02487 -0.135798,1.69831 -0.114759,2.73182 0.87581,4.80662 0,0 0.223619,0.417764 0.959783,0.238643 0.342888,0.0554311 0.647526,-0.0819708 0.805151,-0.30802 0.00383859,-0.00550035 0.419611,-0.0449552 0.61706,-0.237166 0.0895702,-0.0871893 0.146459,-0.164709 0.114264,-0.323345 -0.0421467,-0.207692 -0.104371,-0.46201 -0.104371,-0.46201 0,0 0.366123,-0.364986 0.306173,-0.52026 -0.05995,-0.155273 -0.80863,-0.804111 -0.809874,-0.81033 -0.513739,-2.3557 -0.00996089,-4.3652 1.3359,-5.98834l1.0813 -1.43175c-0.543204,-0.160385 -1.53405,-0.247399 -2.11013,0.0110882l9.71794e-006 -9.71794e-006 -1.94359e-005 9.71794e-006z"/>
   <path id="_201721816" class="fil1" d="M11.4558 1.79424c1.62253,0.728049 2.9525,3.54243 3.07104,5.02487 0.135798,1.69831 0.114759,2.73182 -0.87581,4.80662 0,0 -0.223619,0.417764 -0.959783,0.238643 -0.342888,0.0554311 -0.647526,-0.0819708 -0.805151,-0.30802 -0.00383859,-0.00550035 -0.419611,-0.0449552 -0.61706,-0.237166 -0.0895702,-0.0871893 -0.146459,-0.164709 -0.114264,-0.323345 0.0421467,-0.207692 0.104371,-0.46201 0.104371,-0.46201 0,0 -0.366123,-0.364986 -0.306173,-0.52026 0.05995,-0.155273 0.80863,-0.804111 0.809874,-0.81033 0.513739,-2.3557 0.00996089,-4.3652 -1.3359,-5.98834l-1.0813 -1.43175c0.543204,-0.160385 1.53405,-0.247399 2.11013,0.0110882l-9.71794e-006 -9.71794e-006 1.94359e-005 9.71794e-006z"/>
   <path id="_201723160" class="fil1" d="M4.94782 8.89349c-0.293414,-1.74418 -0.44478,-4.68391 -0.62118,-6.06667 0.308389,-1.26981 2.73405,-0.880436 3.56038,-0.708681 0.826316,-0.171755 3.25197,-0.561133 3.56037,0.708681 -0.174068,1.36441 -0.302267,4.27001 -0.587683,6.01875 -1.0721,0.340497 -2.09671,0.456908 -2.98533,0.455169 -0.674182,-0.00132164 -2.23898,-0.135449 -2.92656,-0.407259l1.94359e-005 -9.71794e-006 -1.94359e-005 1.94359e-005z"/>
   <path id="_208906640" class="fil2" d="M5.17799 8.83726c-0.286407,-1.86096 -0.496917,-3.94998 -0.615495,-5.80848 0.240908,-0.991968 1.78126,-1.49302 3.32251,-1.49574l0 -2.91538e-005 0.00202133 9.71794e-006 0.00202133 -9.71794e-006 0 2.91538e-005c1.54124,0.00272102 3.08159,0.503768 3.32251,1.49574 -0.11748,1.84141 -0.32523,3.90915 -0.607624,5.75711 -2.26719,0.700945 -4.62027,0.247108 -5.42594,0.0513885l-1.94359e-005 0 1.94359e-005 -1.94359e-005z"/>
   <path id="_208908320" class="fil3" d="M5.06744 3.93438c0,0 0.591414,1.33616 1.67566,2.20137 0,0 -0.72284,-0.41618 -0.963786,-0.679031 -0.240947,-0.262851 -0.711888,-1.52233 -0.711888,-1.52233l9.71794e-006 0z"/>
   <path id="_208911776" class="fil3" d="M10.9268 5.46765c0,0 -0.56951,1.06236 -2.00422,1.79614 0,0 1.0733,-0.229994 1.89471,-0.7776l0.0328564 -0.41618 0.0766648 -0.602366 -9.71794e-006 0 0 9.71794e-006z"/>
   <path id="_208912112" class="fil4" d="M10.5865 3.99624c0,0 -0.573222,1.32812 -2.12062,2.51099 -0.271247,0.207342 -0.759739,0.574661 -0.0161415,0.212823 0.420971,-0.204854 0.91337,-0.481339 1.27543,-0.796278 0.77244,-0.671889 0.86133,-1.92754 0.86133,-1.92754l0 9.71794e-006z"/>
   <path id="_208911440" class="fil3" d="M5.16071 7.99804c0.102184,0.318952 1.62534,0.0463351 1.8052,0.0463934 0.0891232,2.91538e-005 -0.486091,0.373412 -1.62442,0.588567l-0.180763 -0.63496 -9.71794e-006 0 -9.71794e-006 0z"/>
   <path id="_208910096" class="fil3" d="M5.17799 8.83726c-0.232152,-1.50839 -0.414412,-3.1666 -0.538277,-4.7305 0.0148782,-0.0692986 0.00360536,-0.109929 0.0148684,-0.114234 0.198372,1.33827 0.429552,2.86837 0.694833,4.13248 0.182581,0.869998 0.963417,0.905683 2.57977,0.855373 1.50505,-0.0468405 2.47371,-0.134069 2.60552,-1.39738l0.600744 -3.71895c0,0 0.00816307,-0.0363645 0.0222638,0.0576274 -0.122543,1.56194 -0.322713,3.35216 -0.553757,4.86418 -2.2672,0.700965 -4.62027,0.247117 -5.42597,0.0513982l0 9.71794e-006 9.71794e-006 0z"/>
   <path id="_208908704" class="fil5" d="M9.8307 1.9837l-0.118646 -0.164165c0.082136,-0.00362479 0.1616,-0.00667622 0.238682,-0.00890163 -0.0393577,0.0535847 -0.0797843,0.111581 -0.120036,0.173067zm3.36885 1.96422c0.605078,0.983125 0.969977,2.04766 1.10612,3.13685 0.200675,1.60621 -0.105799,3.01456 -0.849192,4.47081 0,0 -0.0902602,0.265786 -0.659051,0.200034 0,0 0.165419,-0.292665 0.154214,-0.317922 -0.0112145,-0.0252861 -0.288254,0.294055 -0.288254,0.294055 0,0 -0.349982,0.00127305 -0.635757,-0.2453 0,0 -0.00116615,-0.395355 -0.0259663,-0.394451 -0.0248002,0.000903768 -0.104322,0.292724 -0.104322,0.292724l-0.373703 -0.0986857c-0.170725,-0.0802702 -0.224086,-0.0930201 -0.177722,-0.304473 0.0353927,-0.161532 0.0945458,-0.433974 0.224611,-0.891339 -0.0358883,-0.0423022 -0.122757,0.156342 -0.186361,0.265494 0,0 -0.204592,-0.225913 -0.195826,-0.302898 0.00871699,-0.0770147 0.725191,-0.634008 0.725191,-0.634008 0.468346,-1.46949 0.301509,-3.17015 -0.207167,-4.52114 0.303054,0.105955 0.476723,0.257312 0.476723,0.257312 0.082068,-0.268089 0.114808,-0.525303 0.114808,-0.525303 0.289974,0.147722 0.410427,0.246272 0.410427,0.246272 0.0874226,-0.363879 0.0545371,-0.544496 0.0545371,-0.544496 0.238002,0.0984524 0.369457,0.232599 0.369457,0.232599 0.0487452,-0.2708 0.0832439,-0.445538 0.0672384,-0.616146l0 1.94359e-005z"/>
   <path id="_208906856" class="fil6" d="M13.2009 3.94381c0.605078,0.983125 0.968616,2.05176 1.10475,3.14096 0.200675,1.60621 -0.105799,3.01456 -0.849192,4.47081 0,0 -0.00769661,0.0224484 -0.0325065,0.0527101 -0.164291,-0.0229343 -0.330478,-0.0602221 -0.493448,-0.106489 0.0149656,-0.0328855 0.0240325,-0.0575399 0.0211171,-0.0641092 -0.00332354,-0.00750225 -0.030077,0.015296 -0.066014,0.0511164 -0.316921,-0.0934671 -0.619626,-0.219169 -0.86959,-0.336892 -0.0035762,-0.0361993 -0.00825053,-0.0601443 -0.0143728,-0.0599208 -0.00552951,0.000204077 -0.0129832,0.0170258 -0.0211948,0.0430505 -0.329341,-0.157207 -0.559695,-0.296329 -0.597614,-0.319565l0.00033041 -0.00144797c0.728379,0.250237 1.95812,0.375472 1.95812,0.375472 1.201,-2.47065 0.988227,-4.95515 -0.124409,-6.96617 0.000913486,-0.0956342 -0.00908627,-0.205991 -0.015986,-0.279527l0 -9.71794e-006 9.71794e-006 9.71794e-006z"/>
   <path id="_208907888" class="fil7" d="M13.323 4.16236c-0.00386774,0.170229 -0.0256554,0.40381 -0.100542,0.631336l-0.306387 -0.175078c0,0 0,0.22979 -0.153194,0.530706l-0.147722 -0.0984816c0,0 -0.0541095,0.124467 -0.138762,0.239158l-0.0464226 -0.174767c0,0 -0.196613,0.286728 -0.374111,0.363189l-0.327504 -0.521241c-0.00728845,-0.0199023 -0.0146255,-0.0397269 -0.0220597,-0.0594738 0.303054,0.105955 0.476723,0.257312 0.476723,0.257312 0.082068,-0.268089 0.114808,-0.525303 0.114808,-0.525303 0.289974,0.147722 0.410427,0.246272 0.410427,0.246272 0.0874226,-0.363879 0.0545371,-0.544496 0.0545371,-0.544496 0.238002,0.0984524 0.369457,0.232599 0.369457,0.232599 0.0487452,-0.2708 0.0670927,-0.461631 0.0646923,-0.63496 0.060329,0.0980151 0.0695804,0.132145 0.126061,0.233231z"/>
   <path id="_208907696" class="fil7" d="M11.9567 5.0072c0.609276,1.26372 1.17215,3.53339 -0.567022,6.21004 -0.0615146,-0.0430116 -0.0744005,-0.0959452 -0.0437696,-0.23565 0.0353927,-0.161532 0.0945458,-0.433974 0.224611,-0.891339 -0.0358883,-0.0423022 -0.122757,0.156342 -0.186361,0.265494 0,0 -0.204592,-0.225913 -0.195826,-0.302898 0.00871699,-0.0770147 0.725191,-0.634008 0.725191,-0.634008 0.468346,-1.46949 0.301509,-3.17015 -0.207167,-4.52114 0.0972474,0.0339934 0.181201,0.072661 0.250344,0.109521l0 -1.94359e-005z"/>
   <path id="_208906352" class="fil2" d="M11.2926 4.00641l-1.58051 -2.18688c1.07646,-0.0475013 1.69511,-0.000855179 2.47861,0.802692 0.316173,0.324268 0.60706,0.695367 0.866228,1.09699 0.00771604,0.157197 0.00239061,0.353286 -0.0368213,0.571114 0,0 -0.213377,-0.191492 -0.45411,-0.27356 0,0 0.0656544,0.218848 0.0437696,0.607303 0,0 -0.169607,-0.13678 -0.459581,-0.284502 0,0 0.0164136,0.295445 -0.0656544,0.563534 0,0 -0.174495,-0.152105 -0.478929,-0.258089 -0.0951969,-0.225408 -0.199995,-0.43927 -0.312995,-0.638595l-1.94359e-005 0 9.71794e-006 -9.71794e-006z"/>
   <path id="_208908416" class="fil4" d="M11.5526 2.10786c0.208887,0.121115 0.416919,0.287564 0.63807,0.514371 0.316173,0.324268 0.60706,0.695338 0.866228,1.09696 0.00332354,0.067666 -0.0286096,0.503652 -0.0317874,0.584359 -0.376172,-0.799816 -0.788475,-1.47082 -1.4725,-2.19568l-9.71794e-006 -9.71794e-006z"/>
   <path id="_208907912" class="fil3" d="M11.2926 4.00641c-0.0332159,-0.0459561 -0.133787,-0.179442 -0.130784,-0.180909 0.0301742,-0.030145 0.717339,0.342509 0.914079,1.08034 -0.0609315,-0.0304074 -0.390914,-0.233201 -0.4703,-0.260839 -0.0951969,-0.225408 -0.199995,-0.43927 -0.312995,-0.638595z"/>
   <path id="_208907216" class="fil1" d="M13.8819 6.04707c0.725532,-0.0818834 0.91268,0.718156 0.272559,0.985904l-0.272559 -0.985904z"/>
   <path id="_208906712" class="fil5" d="M14.1543 7.03716c0.236612,-0.368737 0.242657,-0.776288 -0.272277,-0.995836 0,0 -0.146517,0.72316 0.272277,0.995836z"/>
   <path id="_208907576" class="fil6" d="M14.1298 7.06756c0.286475,-0.365084 0.289721,-0.815967 -0.266378,-1.03701 0.221005,0.14779 0.403362,0.616525 0.256505,1.00688l0.00987343 0.0301353z"/>
   <path id="_208907096" class="fil6" d="M13.9107 6.18357c-0.0632929,0.0393577 -0.0626127,0.154904 0.00150628,0.258011 0.0641384,0.103117 0.167469,0.154816 0.230762,0.115459 0.0632832,-0.0393577 0.062603,-0.154904 -0.00152572,-0.258021 -0.0641287,-0.103107 -0.16746,-0.154807 -0.230743,-0.115449z"/>
   <path id="_208910360" class="fil5" d="M11.3226 10.0562c0,0 0.117422,-0.243036 0.417803,-0.395957 0.300381,-0.152921 -0.207536,0.401419 -0.417803,0.395957z"/>
   <path id="_208910024" class="fil7" d="M13.4885 11.4919c-0.0105828,0.0212337 -0.0212434,0.0424868 -0.0320595,0.0636525 0,0 -0.0902602,0.265776 -0.659012,0.200024 0,0 0.16538,-0.292646 0.154175,-0.317942 -0.0112048,-0.0252958 -0.288273,0.294133 -0.288273,0.294133 0,0 -0.349962,0.00122446 -0.635718,-0.245378 0,0 -0.00116615,-0.395374 -0.0259858,-0.394471 -0.0248099,0.000903768 -0.0852263,0.322849 -0.0852263,0.322849 -0.192746,-0.0256456 -0.414062,-0.0959161 -0.543952,-0.211006 -0.0464809,-0.0411749 -0.0541192,-0.0967324 -0.0265786,-0.222269 0.011817,-0.0538568 0.0262384,-0.120085 0.0450718,-0.201327 1.07887,0.484663 1.76848,0.653473 2.09756,0.711732l-9.71794e-006 0 9.71794e-006 0z"/>
   <path id="_208909208" class="fil7" d="M13.4288 6.40222c0,0 0,0.361099 0.486937,0.558062 0,0 -0.322801,-0.0109424 -0.459581,-0.142251 -0.13678,-0.131309 -0.027356,-0.415811 -0.027356,-0.415811z"/>
   <path id="_208906880" class="fil1" d="M12.2121 4.59002c0,0 0.104157,0.226263 0.119997,0.48236 0,0 0.111027,-0.318982 0.0962853,-0.459843 -0.0147421,-0.140862 -0.204601,-0.168422 -0.216282,-0.0225165z"/>
   <path id="_208907600" class="fil5" d="M5.92415 1.9837l0.118646 -0.164165c-0.082136,-0.00362479 -0.1616,-0.00667622 -0.238682,-0.00890163 0.0393577,0.0535847 0.0797843,0.111581 0.120036,0.173067zm-3.38108 1.99415c-0.605078,0.983125 -0.957732,2.01773 -1.09387,3.10692 -0.200675,1.60621 0.105799,3.01456 0.849192,4.47081 0,0 0.0902602,0.265786 0.659051,0.200034 0,0 -0.165419,-0.292665 -0.154214,-0.317922 0.0112145,-0.0252861 0.288254,0.294055 0.288254,0.294055 0,0 0.349982,0.00127305 0.635757,-0.2453 0,0 0.00116615,-0.395355 0.0259663,-0.394451 0.0248002,0.000903768 0.104322,0.292724 0.104322,0.292724l0.373703 -0.0986857c0.170725,-0.0802702 0.224086,-0.0930201 0.177722,-0.304473 -0.0353927,-0.161532 -0.0945458,-0.433974 -0.224611,-0.891339 0.0358883,-0.0423022 0.122757,0.156342 0.186361,0.265494 0,0 0.204592,-0.225913 0.195826,-0.302898 -0.00871699,-0.0770147 -0.725191,-0.634008 -0.725191,-0.634008 -0.468346,-1.46949 -0.301509,-3.17015 0.207167,-4.52114 -0.303054,0.105955 -0.476723,0.257312 -0.476723,0.257312 -0.082068,-0.268089 -0.114808,-0.525303 -0.114808,-0.525303 -0.289974,0.147722 -0.410427,0.246272 -0.410427,0.246272 -0.0874226,-0.363879 -0.0545371,-0.544496 -0.0545371,-0.544496 -0.238002,0.0984524 -0.369457,0.232599 -0.369457,0.232599 -0.0542067,-0.221647 -0.0954885,-0.415607 -0.079483,-0.586215l0 1.94359e-005z"/>
   <path id="_208910240" class="fil6" d="M2.54034 3.97511c-0.605078,0.983125 -0.955011,2.02048 -1.09115,3.10967 -0.200675,1.60621 0.105799,3.01456 0.849192,4.47081 0,0 0.00769661,0.0224484 0.0325065,0.0527101 0.164291,-0.0229343 0.330478,-0.0602221 0.493448,-0.106489 -0.0149656,-0.0328855 -0.0240325,-0.0575399 -0.0211171,-0.0641092 0.00332354,-0.00750225 0.030077,0.015296 0.066014,0.0511164 0.316921,-0.0934671 0.619626,-0.219169 0.86959,-0.336892 0.0035762,-0.0361993 0.00825053,-0.0601443 0.0143728,-0.0599208 0.00552951,0.000204077 0.0129832,0.0170258 0.0211948,0.0430505 0.329341,-0.157207 0.559695,-0.296329 0.597614,-0.319565l-0.00033041 -0.00144797c-0.728379,0.250237 -1.95812,0.375472 -1.95812,0.375472 -1.201,-2.47065 -0.977343,-4.97146 0.135293,-6.98251 -0.000913486,-0.0956342 -0.0154029,-0.158373 -0.0085032,-0.231909l-9.71794e-006 1.94359e-005z"/>
   <path id="_208906784" class="fil7" d="M2.42621 4.17385c-0.00306115,0.190112 0.015675,0.479512 0.132951,0.707369 0,0 0.103953,-0.142251 0.240733,-0.202434 0,0 -0.0054712,0.31733 0.169607,0.508822l0.202434 -0.164136c0,0 0.0218848,0.240733 0.109424,0.36657l0.224319 -0.142251 0.18055 0.284502 0.191453 -0.123884c0.0514759,-0.174767 0.108569,-0.345366 0.170822,-0.510717 -0.303054,0.105955 -0.476723,0.257312 -0.476723,0.257312 -0.082068,-0.268089 -0.114808,-0.525303 -0.114808,-0.525303 -0.289974,0.147722 -0.410427,0.246272 -0.410427,0.246272 -0.0874226,-0.363879 -0.0545371,-0.544496 -0.0545371,-0.544496 -0.238002,0.0984524 -0.369457,0.232599 -0.369457,0.232599 -0.0542067,-0.221647 -0.0954885,-0.415607 -0.079483,-0.586215 -0.0400768,0.0651102 -0.0789874,0.130434 -0.116858,0.195991z"/>
   <path id="_208905848" class="fil7" d="M3.79816 5.0072c-0.609276,1.26372 -1.17215,3.53339 0.567022,6.21004 0.0615146,-0.0430116 0.0744005,-0.0959452 0.0437696,-0.23565 -0.0353927,-0.161532 -0.0945458,-0.433974 -0.224611,-0.891339 0.0358883,-0.0423022 0.122757,0.156342 0.186361,0.265494 0,0 0.204592,-0.225913 0.195826,-0.302898 -0.00871699,-0.0770147 -0.725191,-0.634008 -0.725191,-0.634008 -0.468346,-1.46949 -0.301509,-3.17015 0.207167,-4.52114 -0.0972474,0.0339934 -0.181201,0.072661 -0.250344,0.109521l0 -1.94359e-005z"/>
   <path id="_208908536" class="fil2" d="M4.46227 4.00641l1.58051 -2.18688c-1.07646,-0.0475013 -1.69511,-0.000855179 -2.47861,0.802692 -0.316173,0.324268 -0.60706,0.695367 -0.866228,1.09699 -0.00771604,0.157197 -0.00239061,0.353286 0.0368213,0.571114 0,0 0.213377,-0.191492 0.45411,-0.27356 0,0 -0.0656544,0.218848 -0.0437696,0.607303 0,0 0.169607,-0.13678 0.459581,-0.284502 0,0 -0.0164136,0.295445 0.0656544,0.563534 0,0 0.174495,-0.152105 0.478929,-0.258089 0.0951969,-0.225408 0.199995,-0.43927 0.312995,-0.638595l1.94359e-005 0 -9.71794e-006 -9.71794e-006z"/>
   <path id="_208909184" class="fil4" d="M4.57725 3.84734l0.0488229 -0.0675591c0.0990161,-0.759496 -0.21431,-1.55673 -0.293064,-1.74179 -0.0701538,0.0343821 -0.13988,0.0734968 -0.209723,0.117888 0.112893,0.274532 0.388465,1.00053 0.453964,1.69146l0 9.71794e-006 0 -9.71794e-006z"/>
   <path id="_208907864" class="fil4" d="M11.1615 3.92131c-0.209548,-0.595836 -0.0267826,-1.34144 0.214203,-1.90764 0.0701538,0.0343821 0.13988,0.0734968 0.209723,0.117888 -0.112893,0.274532 -0.358427,1.09884 -0.423926,1.78976l0 -9.71794e-006z"/>
   <path id="_208909952" class="fil8" d="M4.98324 1.79903c0.0413012,-0.0104565 0.0840505,-0.0264619 0.128005,-0.0531085 0.569393,1.9974 2.19519,3.61674 2.53338,3.93752l-0.0253152 0.101834c-1.97998,-1.40248 -2.57349,-3.72021 -2.63607,-3.98624l0 -9.71794e-006z"/>
   <path id="_208910000" class="fil4" d="M4.20226 2.10786c-0.208887,0.121115 -0.416919,0.287564 -0.63807,0.514371 -0.316173,0.324268 -0.60706,0.695338 -0.866228,1.09696 -0.00332354,0.067666 0.0012439,0.459318 0.0399213,0.575526 0.192337,-0.669061 0.707077,-1.51827 1.46437,-2.18685l9.71794e-006 -9.71794e-006z"/>
   <path id="_208908392" class="fil3" d="M4.46227 4.00641l0.039484 -0.0546343c-0.0103885,-0.00584048 -0.0206603,-0.0123029 -0.031146,-0.017434 0,0 -0.57468,0.221132 -0.756133,0.813119 0.0609315,-0.0304074 0.355414,-0.0748184 0.4348,-0.102456 0.0951969,-0.225408 0.199995,-0.43927 0.312995,-0.638595z"/>
   <path id="_208906736" class="fil1" d="M1.87293 6.04707c-0.725532,-0.0818834 -0.91268,0.718156 -0.272559,0.985904l0.272559 -0.985904z"/>
   <path id="_208907720" class="fil5" d="M1.60049 7.03716c-0.236612,-0.368737 -0.242657,-0.776288 0.272277,-0.995836 0,0 0.146517,0.72316 -0.272277,0.995836z"/>
   <path id="_208909976" class="fil6" d="M1.62507 7.06756c-0.286475,-0.365084 -0.289721,-0.815967 0.266378,-1.03701 -0.221005,0.14779 -0.403362,0.616525 -0.256505,1.00688l-0.00987343 0.0301353z"/>
   <path id="_208907288" class="fil6" d="M1.8441 6.18357c0.0632929,0.0393577 0.0626127,0.154904 -0.00150628,0.258011 -0.0641384,0.103117 -0.167469,0.154816 -0.230762,0.115459 -0.0632832,-0.0393577 -0.062603,-0.154904 0.00152572,-0.258021 0.0641287,-0.103107 0.16746,-0.154807 0.230743,-0.115449z"/>
   <path id="_208906592" class="fil5" d="M4.43224 10.0562c0,0 -0.117422,-0.243036 -0.417803,-0.395957 -0.300381,-0.152921 0.207536,0.401419 0.417803,0.395957z"/>
   <path id="_208907480" class="fil7" d="M2.26632 11.4919c0.0105828,0.0212337 0.0212434,0.0424868 0.0320595,0.0636525 0,0 0.0902602,0.265776 0.659012,0.200024 0,0 -0.16538,-0.292646 -0.154175,-0.317942 0.0112048,-0.0252958 0.288273,0.294133 0.288273,0.294133 0,0 0.349962,0.00122446 0.635718,-0.245378 0,0 0.00116615,-0.395374 0.0259858,-0.394471 0.0248099,0.000903768 0.0852263,0.322849 0.0852263,0.322849 0.192746,-0.0256456 0.414062,-0.0959161 0.543952,-0.211006 0.0464809,-0.0411749 0.0541192,-0.0967324 0.0265786,-0.222269 -0.011817,-0.0538568 -0.0262384,-0.120085 -0.0450718,-0.201327 -1.07887,0.484663 -1.76848,0.653473 -2.09756,0.711732l9.71794e-006 0 -9.71794e-006 0z"/>
   <path id="_208908752" class="fil7" d="M2.32602 6.40222c0,0 0,0.361099 -0.486937,0.558062 0,0 0.322801,-0.0109424 0.459581,-0.142251 0.13678,-0.131309 0.027356,-0.415811 0.027356,-0.415811z"/>
   <path id="_208905896" class="fil1" d="M3.54276 4.59002c0,0 -0.104157,0.226263 -0.119997,0.48236 0,0 -0.111027,-0.318982 -0.0962853,-0.459843 0.0147421,-0.140862 0.204601,-0.168422 0.216282,-0.0225165z"/>
   <path id="_208908152" class="fil3" d="M7.08221 6.13356c-0.295649,-0.262355 -0.567071,-0.554758 -0.816326,-0.861272 -0.793013,-0.975185 -1.36854,-2.12123 -1.68545,-3.33708 2.98321,-0.842769 5.80728,-0.19603 6.78457,0.0843809l-0.146508 0.315085c-0.222978,0.479532 -0.502913,0.943709 -0.791196,1.38668 -0.61808,0.949744 -1.36134,1.85698 -2.2343,2.58361 -0.105556,0.0878405 -0.264581,0.227176 -0.404859,0.234766 -0.245436,0.013265 -0.533,-0.252715 -0.70594,-0.406181l9.71794e-006 0 0 9.71794e-006z"/>
   <path id="_168347104" class="fil6" d="M7.64639 6.45653l0 0.0328175c0,0.0589393 0.0229149,0.0991424 0.0530308,0.129278 0.0411555,0.0411846 0.0596584,0.0431865 0.127111,0.0553339 0.0925245,0.0166663 0.198916,-0.0855276 0.198916,-0.166381l0 -0.0474041c0,-0.0436044 -0.0306212,-0.0871602 -0.0537694,-0.110308 -0.0201842,-0.0201939 -0.0706689,-0.0574427 -0.106596,-0.0574427l-0.0510289 0c-0.0746338,0 -0.167664,0.0886568 -0.167664,0.164107zm0.142144 2.46515l0 0.00729817c0,0.0210588 0.0251209,0.0474041 0.0473847,0.0474041l0.00728845 0c0.0218945,0 0.0437404,-0.0218556 0.0437404,-0.0437599l0 -0.0109424c0,-0.0209713 -0.0280265,-0.0437599 -0.0473847,-0.0437599 -0.0220403,0 -0.0510289,0.0253735 -0.0510289,0.0437599zm0.564943 -0.284444l0 0.00729817c0,0.0574427 0.0984039,0.0630208 0.0984039,0l0 -0.00365395c0,-0.0203591 -0.0136829,-0.0315347 -0.0218654,-0.0437502 -0.0326814,0 -0.0765385,-0.00327495 -0.0765385,0.0401059zm-1.13352 -0.00364423l0 0.00728845c0,0.0247224 0.0208061,0.0510581 0.0437307,0.0510581 0.0200092,0 0.0510289,-0.0190374 0.0510289,-0.0364714l0 -0.0218751c0,-0.0222832 -0.0253152,-0.0401157 -0.0473847,-0.0401157 -0.0220597,0 -0.047375,0.0178324 -0.047375,0.0401157zm0.590452 -0.139151c-0.0259663,0.0179782 -0.0656058,0.0363159 -0.0656058,0.0808047l0 0.0328175c0,0.031078 0.0531085,0.0765774 0.0911154,0.0765774l0.00728845 0c0.045169,0 0.057501,-0.0334006 0.0838367,-0.0510483 0,-0.0250237 0.00727874,-0.0194553 0.00727874,-0.0364617l0 -0.0218848c0,-0.0432351 -0.0401934,-0.0632055 -0.0656058,-0.0808047l-0.0583076 0zm1.1153 -0.141639c0,0.0345667 0.0232064,0.0510483 0.0583174,0.0510483l0.00364423 0c0.00889191,0 0.032798,-0.0239158 0.032798,-0.0328175l0 -0.0328175c0,-0.0101747 -0.0256845,-0.0291733 -0.032798,-0.0291733l-0.0218751 0c-0.0207478,0 -0.0400865,0.0234105 -0.0400865,0.0437599zm-2.27069 -0.00365395l0 0.00365395c0,0.0239256 0.0167732,0.0510483 0.0400962,0.0510483l0.0145769 0c0.0147713,0 0.0400865,-0.0201356 0.0400865,-0.0328175l0 -0.025529c0,-0.017191 -0.0203202,-0.0364617 -0.032798,-0.0364617l-0.0218654 0c-0.0185321,0 -0.0400962,0.0215738 -0.0400962,0.0401059zm1.65472 -0.0619907l0 0.0364714c0,0.0159763 0.0249945,0.046753 0.0363548,0.0547897 0.016676,0.0117976 0.0433226,0.0223513 0.0660723,0.0185904 0.0475402,-0.00786181 0.0871019,-0.0422147 0.0871019,-0.095265 0,-0.0415733 -0.0440223,-0.0948179 -0.0765385,-0.0948179l-0.0328078 0c-0.0335852,0 -0.0801827,0.0451301 -0.0801827,0.0802313zm-1.13716 0.0145866c0,0.128199 0.189529,0.124399 0.189529,0.00364423l0 -0.00728845c0,-0.0433323 -0.0427492,-0.0911737 -0.0801827,-0.0911737l-0.0255193 0c-0.0423994,0 -0.0838269,0.0470834 -0.0838269,0.0948179zm0.623289 -0.291373c-0.0214378,0.0139744 -0.0455674,0.0231384 -0.062739,0.042652 -0.0085615,0.00972766 -0.0357037,0.0558198 -0.0357037,0.0700372l0 0.0437599c0,0.0536333 0.0684337,0.120337 0.131212,0.120337l0.0255096 0c0.0606885,0 0.127567,-0.0695124 0.127567,-0.123981l0 -0.0182406c0,-0.0711256 -0.0642259,-0.138568 -0.134856,-0.138568l-0.00739535 -0.000932922 -0.0435947 0.00493671zm1.08246 0.00692889c0,0.0449552 0.0445956,0.0948179 0.0838269,0.0948179l0.0109327 0c0.0431962,0 0.0947693,-0.0364811 0.0947693,-0.0765774l0 -0.0401157c0,-0.0352664 -0.0545079,-0.0765774 -0.0947693,-0.0765774 -0.0479289,0 -0.0947596,0.0487452 -0.0947596,0.0984524zm-2.27069 -0.00728845c0,0.058813 0.0405044,0.102106 0.0984136,0.102106l0.00364423 0c0.0579772,0 0.0630986,-0.0408153 0.0838269,-0.0547023 0,-0.0450718 0.0168995,-0.0474721 -0.00965963,-0.092437 -0.0110785,-0.0187459 -0.0485022,-0.0461311 -0.0741673,-0.0461311 -0.0499405,0 -0.102058,0.0420787 -0.102058,0.091164zm1.65472 -0.164107l0 0.0437696c0,0.0542164 0.0686572,0.120337 0.127567,0.120337l0.0182309 0c0.179053,0 0.178956,-0.28079 0,-0.28079l-0.0109327 0c-0.0391244,0 -0.0681713,0.0154029 -0.088443,0.0354996 -0.016054,0.0158985 -0.0464226,0.0528364 -0.0464226,0.0811837zm-1.00595 0.164107l0.0291635 0c0.0628751,0 0.123923,-0.0699497 0.123923,-0.138578 0,-0.0791332 -0.0596681,-0.142212 -0.13851,-0.142212l-0.0145769 0c-0.0374335,0 -0.0726027,0.0230024 -0.0920872,0.0427881 -0.0268798,0.0273074 -0.033177,0.0513107 -0.0384928,0.0966935 -0.00805617,0.0688905 0.0642744,0.141309 0.13058,0.141309zm0.389991 -0.404781l0 0.0328175c0,0.0841962 0.0893273,0.171395 0.171308,0.171395l0.032798 0c0.0821652,0 0.174952,-0.0875489 0.174952,-0.167741l0 -0.0401157c0,-0.091543 -0.093195,-0.175049 -0.189529,-0.175049 -0.0994048,0 -0.189529,0.0805034 -0.189529,0.178693zm1.18819 -0.0182309l0.00364423 0.0437599c0.0293482,0.0438473 0.0561503,0.0948082 0.131212,0.0948082 0.0734093,0 0.145789,-0.0572192 0.145789,-0.123981l0 -0.0364714c0,-0.0605136 -0.0790166,-0.133826 -0.148568,-0.123301 -0.0686475,0.0103788 -0.142115,0.0585895 -0.132077,0.145186zm-2.27068 -0.0218848l0 0.0328175c0,0.0640607 0.0721946,0.134691 0.141746,0.127519 0.0757027,-0.00780351 0.138899,-0.0536916 0.138899,-0.134807 0,-0.0923787 -0.0491533,-0.133009 -0.129783,-0.147373 -0.0715337,-0.0127499 -0.150861,0.0586769 -0.150861,0.121844zm1.65108 -0.251617l0 0.0437599c0,0.0308545 0.0336824,0.083963 0.0488229,0.104312 0.0282306,0.0379486 0.0649061,0.0383081 0.0970531,0.058949l0.0472972 0.00447997c0.0168898,0.00180754 0.0240422,-0.00364423 0.0437307,-0.00364423 0.0352761,-0.0236243 0.0669955,-0.0185515 0.0984136,-0.0619907 0.0219917,-0.0303977 0.047375,-0.0606108 0.047375,-0.113049l0 -0.0328175c0,-0.0484342 -0.0339642,-0.093953 -0.0592114,-0.119443 -0.0281043,-0.0283764 -0.0713977,-0.0519521 -0.126664,-0.0519521l-0.0182211 0c-0.0868978,0 -0.178596,0.0898035 -0.178596,0.171395zm-1.13353 0l0 0.0401059c0,0.0830981 0.0951969,0.171395 0.178596,0.171395l0.00364423 0c0.111173,0 0.200462,-0.0808144 0.200462,-0.189626 0,-0.0974029 -0.0817084,-0.19327 -0.174942,-0.19327l-0.0218751 0c-0.0930298,0 -0.185885,0.0830592 -0.185885,0.171395zm1.7094 -0.335502c0,0.0322052 -0.0109424,0.0280557 -0.0109424,0.0474138l0 0.0547023c0,0.0765288 0.0993368,0.167741 0.178596,0.167741 0.0533418,0 0.0833508,-0.0132164 0.116751,-0.0327009 0.0387163,-0.0225748 0.0547509,-0.0646243 0.0727776,-0.076694 0,-0.0302714 0.0145769,-0.0330604 0.0145769,-0.0583465 0,-0.064323 -0.0117004,-0.112475 -0.0427686,-0.146838 -0.0249071,-0.0275406 -0.0753237,-0.0683171 -0.124885,-0.0683171l-0.0473847 0c-0.0355482,0 -0.0741187,0.0234202 -0.0953719,0.0395034 -0.0317291,0.0240033 -0.049095,0.065324 -0.0613493,0.0735356zm-2.09574 0.269857c0.244464,0 0.273735,-0.367241 0.00609315,-0.38483 -0.10095,-0.00663735 -0.195204,0.0905129 -0.195107,0.187916 9.71794e-005,0.103341 0.0867423,0.196915 0.189014,0.196915zm1.51987 -0.49959l0 0.0401157c0,0.0715629 0.0924953,0.171386 0.160365,0.171386l0.0656058 0c0.00766745,0 0.0489978,-0.0183961 0.0578898,-0.0223027 0.0191638,-0.00842545 0.0320789,-0.0222346 0.0469085,-0.0369379 0.0227205,-0.0225359 0.0519229,-0.0689876 0.0519229,-0.112145l0 -0.0401157c0,-0.0801633 -0.095022,-0.171395 -0.174942,-0.171395l-0.0291538 0c-0.0433031,0 -0.0975001,0.0319234 -0.121309,0.0536722 -0.0194359,0.017745 -0.0572873,0.082758 -0.0572873,0.117723zm-1.13353 0.00728845l0 0.0291733c0,0.088268 0.090163,0.17504 0.178596,0.17504l0.0437404 0c0.0278613,0 0.0958966,-0.0431574 0.110036,-0.061291 0.0235563,-0.0302325 0.0503292,-0.0724375 0.0503292,-0.124691 0,-0.101504 -0.0824567,-0.196915 -0.178587,-0.196915l-0.0291635 0c-0.045169,0 -0.09509,0.0323316 -0.119443,0.0555283 -0.0264134,0.0251597 -0.0555089,0.0731566 -0.0555089,0.123155zm0.564943 0.284444l0 0.0364617c0,0.0893564 0.0967518,0.171454 0.189529,0.171454 0.0946041,0 0.189529,-0.0839824 0.189529,-0.175098l0 -0.0364617c0,-0.0440709 -0.0336435,-0.103224 -0.059775,-0.122533 -0.0385219,-0.0284736 -0.066772,-0.0495906 -0.130036,-0.0522825 -0.0943709,-0.00402323 -0.189247,0.0845364 -0.189247,0.17846z"/>
   <path id="_208908968" class="fil1" d="M7.08221 5.94206c-0.295649,-0.262355 -0.567071,-0.554758 -0.816326,-0.861272 -0.793013,-0.975185 -1.36854,-2.12123 -1.68545,-3.33708 2.98321,-0.842769 5.80728,-0.19603 6.78457,0.0843809l-0.146508 0.315085c-0.222978,0.479532 -0.502913,0.943709 -0.791196,1.38668 -0.61808,0.949744 -1.36134,1.85698 -2.2343,2.58361 -0.105556,0.0878405 -0.264581,0.227176 -0.404859,0.234766 -0.245436,0.013265 -0.533,-0.252715 -0.70594,-0.406181l9.71794e-006 0 0 9.71794e-006z"/>
   <path id="_208909544" class="fil2" d="M7.17249 5.84029c-0.288973,-0.256427 -0.557518,-0.545847 -0.801069,-0.845344 -0.781206,-0.960677 -1.29347,-1.94801 -1.60538,-3.14591 2.57906,-0.545827 4.72444,-0.266583 5.95006,-0.000699692l0.455344 0.0733316 -0.0763247 0.164146c-0.214854,0.462078 -0.505022,0.944457 -0.781857,1.36983 -0.609091,0.935925 -1.3474,1.83749 -2.2073,2.55324 -0.0723986,0.0602512 -0.230441,0.198363 -0.325172,0.203484 -0.169131,0.00914458 -0.395909,-0.18362 -0.608294,-0.37209l1.94359e-005 0 -1.94359e-005 9.71794e-006z"/>
   <polygon id="_208910456" class="fil9" points="9.85521,4.13245 9.54912,4.0209 9.61986,3.88486 "/>
   <path id="_208912136" class="fil4" d="M5.07877 1.80277c0.761906,2.77485 2.59489,4.19455 2.66963,4.19455 0.0460047,-0.0377736 0.101086,-0.0732538 0.146158,-0.11196 0.671422,-0.576769 1.27679,-1.23836 1.72655,-1.86729 0.7852,-1.09803 1.1744,-2.06306 1.1744,-2.06306 -1.4575,-0.226331 -5.78548,-0.402595 -5.71676,-0.152251l0 9.71794e-006 1.94359e-005 0z"/>
   <path id="_208911176" class="fil1" d="M5.07877 1.79898c0.761906,2.6888 2.59489,4.06446 2.66963,4.06446 0.0460047,-0.0365978 0.101086,-0.0709701 0.146158,-0.108491 1.84366,-1.53461 2.94992,-3.91184 2.94992,-3.91184 -1.4575,-0.219314 -5.83446,-0.286708 -5.76574,-0.0441292l9.71794e-006 0 1.94359e-005 0z"/>
   <path id="_208909424" class="fil5" d="M5.26339 1.71652c0.223921,0.875334 0.578101,1.57993 0.95055,2.16482 0.527888,0.17054 1.79542,0.468327 3.1803,-0.0154029 0.725483,-0.988033 1.11641,-1.8248 1.11641,-1.8248 0,0 -2.1003,-0.404286 -2.69782,-0.464041 -0.597517,-0.0597556 -2.54942,0.139423 -2.54942,0.139423l-9.71794e-006 0 -9.71794e-006 0z"/>
   <path id="_208908728" class="fil7" d="M5.70643 2.95891c0.156964,0.338272 0.330167,0.64394 0.5075,0.922427 0.0597653,0.0193095 0.129083,0.0402225 0.206895,0.0614757 -0.258419,-0.371099 -0.420379,-0.659197 -0.420379,-0.659197 -0.112611,-0.152436 -0.209791,-0.256145 -0.294016,-0.324705zm3.54269 0.954933c0.0482107,-0.0150628 0.0965866,-0.0309516 0.145108,-0.0478997 0.313248,-0.426618 0.564039,-0.824975 0.748009,-1.14 -0.0934866,0.0530016 -0.213076,0.187449 -0.365395,0.430835 -0.177459,0.28355 -0.355239,0.534982 -0.527723,0.757066z"/>
   <path id="_208912376" class="fil7" d="M5.26339 1.71652c0.150667,0.588985 0.360293,1.10062 0.594796,1.55055 1.16676,0.704784 2.77383,0.707476 3.94426,0.00889191 0.462739,-0.709575 0.822847,-1.46421 0.822847,-1.46421 -1.87429,-0.360778 -3.40127,-0.37726 -5.3619,-0.0952358l0 9.71794e-006z"/>
   <path id="_208911320" class="fil10" d="M6.31272 4.05981c0.692335,1.03244 1.41336,1.56153 1.45722,1.56153 0.591201,-0.470319 1.09532,-1.03092 1.50403,-1.56731 -1.25802,0.40104 -2.40305,0.172212 -2.96125,0.00580161l0 -1.94359e-005z"/>
   <path id="_208906520" class="fil11" d="M9.07626 4.11212c-1.06788,0.288788 -2.0342,0.140939 -2.5999,-0.00664707 0.379874,0.186759 1.42146,0.579821 2.5999,0.00664707z"/>
   <path id="_208913168" class="fil12" d="M6.31272 4.05981c0.692335,1.03244 1.41336,1.56153 1.45722,1.56153 0.591201,-0.470319 1.09532,-1.03092 1.50403,-1.56731 -0.0601638,0.0191832 -0.120085,0.0368796 -0.179685,0.0532543 -0.738437,0.894682 -1.34297,1.239 -1.34297,1.239 -0.447132,-0.277437 -0.878307,-0.781604 -1.20092,-1.22205 -0.087889,-0.0215447 -0.16744,-0.0434586 -0.237681,-0.0644008l0 -1.94359e-005 9.71794e-006 0z"/>
   <path id="_208912832" class="fil1" d="M9.20666 4.25753c0,0 -0.366561,0.289974 -1.47174,0.388455 0,0 0.711256,0.0601832 1.36232,-0.153194l0.027356 -0.0711256 0.082068 -0.164136z"/>
   <path id="_208912448" class="fil1" d="M6.35067 4.25204c0,0 0.282083,0.289974 1.13255,0.388455 0,0 -0.547324,0.0601832 -1.04834,-0.153194l-0.0210491 -0.0711256 -0.0631569 -0.164136z"/>
   <path id="_208909688" class="fil1" d="M11.6595 2.0572c0,0 -0.374316,0.640189 -0.393227,1.87341 -0.00104954,0.0680547 -0.105964,-0.0310683 -0.11921,0.0355482 0,0 -0.0506791,-1.16566 0.39173,-2.03396l0.137936 0.0536527 -0.0172299 0.0713394 0 9.71794e-006z"/>
   <path id="_208908944" class="fil1" d="M11.6769 2.88407c0,0 -0.233415,-0.293802 -0.651646,-0.337504 0.170482,0.217254 0.369933,0.345861 0.651646,0.337504z"/>
   <path id="_208913096" class="fil1" d="M11.5774 3.2742c0,0 -0.372868,-0.0420981 -0.699079,0.22325 0.274221,0.0326328 0.50612,-0.0178324 0.699079,-0.22325z"/>
   <path id="_208912424" class="fil1" d="M4.02505 2.19411c0,0 0.445431,0.634708 0.464352,1.86794 0.00103982,0.0680547 0.105964,-0.0310683 0.11921,0.0355482 0,0 0.0725736,-1.14925 -0.43549,-2.02849l-0.0941765 0.0481815 -0.0538957 0.0768106 0 9.71794e-006z"/>
   <path id="_208911680" class="fil1" d="M4.04196 2.9418c0,0 0.110716,-0.358534 0.484488,-0.551211 -0.0798912,0.264347 -0.218984,0.456636 -0.484488,0.551211z"/>
   <path id="_208911152" class="fil1" d="M4.18369 3.47126c0,0 0.372868,-0.0420981 0.699079,0.22325 -0.274221,0.0326328 -0.50612,-0.0178324 -0.699079,-0.22325z"/>
   <path id="_208908584" class="fil1" d="M9.65528 3.52985c0,0 -0.284502,0.218848 -1.11064,0.372042 0,0 0.656534,-0.027356 1.05593,-0.164136l0.0656544 -0.0711256 -0.0109424 -0.13678z"/>
   <path id="_208910672" class="fil1" d="M5.98409 3.52985c0,0 0.284502,0.218848 1.11065,0.372042 0,0 -0.656544,-0.027356 -1.05594,-0.164136l-0.0656544 -0.0711256 0.0109424 -0.13678z"/>
   <path id="_208910216" class="fil13" d="M2.17705 7.64169c-0.0186876,0.0110785 -0.0428367,0.00489784 -0.0539151,-0.0137995 -0.0110785,-0.0186876 -0.00489784,-0.0428464 0.0137995,-0.0539248 0.0562086,-0.0333422 0.126693,-0.0348485 0.19017,-0.0125847 0.0389106,0.0136537 0.0755375,0.0363451 0.104691,0.0660917 0.0299604,0.0305532 0.0521951,0.0685115 0.0613979,0.111824 0.0127888,0.0601638 0.000699692,0.129521 -0.050475,0.202026 -0.057501,0.0814752 -0.123564,0.103574 -0.183086,0.091679 -0.0385997,-0.00771604 -0.0730983,-0.0302034 -0.0997741,-0.0601929 -0.0255873,-0.0287748 -0.0443818,-0.0650908 -0.0526809,-0.101873 -0.0143825,-0.0637594 0.00137995,-0.12921 0.063565,-0.166012 0.0606982,-0.0359175 0.110133,-0.0341586 0.146721,-0.0132844 0.000981512,0.000553923 0.00191443,0.001137 0.00282792,0.00176866 0.0167149,0.0101941 0.0300381,0.0242754 0.0399602,0.0404947 0.00979568,0.0159957 0.0163164,0.0341197 0.0195914,0.0524283 0.00859066,0.0479289 -0.00521853,0.100221 -0.0405627,0.125847 -0.0176381,0.0127305 -0.0422633,0.0087753 -0.0549938,-0.00886276 -0.0127402,-0.0176283 -0.00878502,-0.0422633 0.00885304,-0.0549938 0.00990258,-0.00717184 0.0127791,-0.0273852 0.00909599,-0.0479094 -0.00165205,-0.00927091 -0.00477151,-0.018124 -0.0093195,-0.0255582 -0.00353733,-0.00579189 -0.00796871,-0.01068 -0.0130998,-0.0139841l-0.00133136 -0.000719127c-0.013712,-0.00781322 -0.035762,-0.0063944 -0.0678992,0.0126333 -0.0276475,0.0163456 -0.0339739,0.0484828 -0.0266855,0.0807366 0.00539346,0.0239547 0.0178324,0.0478317 0.0348582,0.0669566 0.0159277,0.0179296 0.0355288,0.0311654 0.0563155,0.035315 0.0306893,0.00613202 0.0671898,-0.00872671 0.103273,-0.0598431 0.0369768,-0.0523894 0.0462282,-0.100153 0.0377348,-0.140084 -0.00597653,-0.0281237 -0.0206506,-0.0530114 -0.0404752,-0.0732344 -0.0206215,-0.0210393 -0.0466947,-0.037142 -0.0745074,-0.0468988 -0.0428172,-0.0150239 -0.0889774,-0.014849 -0.124049,0.0059571zm0.223143 3.21258c8.74615e-005,-0.0185807 0.511232,0.077899 1.06714,-0.339049 0.0460436,-0.0345764 0.0577246,-0.0149559 0.0213503,0.0260149 -0.545303,0.614378 -1.10864,0.34041 -1.08849,0.313034zm-0.0620102 -0.283929c4.85897e-005,-0.0186196 0.511193,0.0779087 1.06709,-0.339069 0.0460727,-0.0345473 0.0577634,-0.0149753 0.0214183,0.0260052 -0.545322,0.614436 -1.10869,0.340419 -1.08851,0.313063zm-0.0245184 -3.23192c0.019397,0.0139744 0.0238187,0.0411555 0.0098054,0.0605913 -0.014023,0.0194359 -0.0411652,0.0237604 -0.0605816,0.00982484 -0.0892981,-0.0645174 -0.107937,-0.15126 -0.0867909,-0.229139 0.010233,-0.0376667 0.030145,-0.072904 0.055917,-0.10199 0.0261704,-0.0294842 0.0584826,-0.0528559 0.0930104,-0.0662375 0.066529,-0.0258303 0.140395,-0.0171716 0.197537,0.0495421 0.00532543,0.00621948 0.01068,0.013197 0.0158597,0.0208255 0.0244017,0.0355968 0.0398338,0.0781808 0.0426423,0.117762 0.00315833,0.0452856 -0.00949443,0.0878113 -0.0427395,0.116295 -0.000670538,0.000553923 -0.00131192,0.00111756 -0.00202133,0.00161318 -0.00244892,0.00198246 -0.00514079,0.00401351 -0.00803674,0.00597653 -0.0578023,0.0395812 -0.114312,0.034178 -0.156362,0.00906684 -0.0155876,-0.00924176 -0.0290469,-0.0213309 -0.0397075,-0.0348582 -0.0108452,-0.0137703 -0.0189986,-0.029319 -0.0237798,-0.0453245 -0.0114477,-0.0386774 -0.00365395,-0.0788902 0.0308933,-0.105508 0.0189597,-0.0146935 0.046238,-0.0111756 0.0609023,0.00771604 0.0147032,0.0189694 0.0112145,0.0462574 -0.00768689,0.0609801 -0.00245864,0.00184641 -0.00244892,0.00665679 -0.000757999,0.0122252 0.00153543,0.00527684 0.00451884,0.0107675 0.00870727,0.016054 0.00432448,0.00546148 0.00978596,0.0103593 0.0159957,0.0141299 0.0158888,0.00937781 0.0381818,0.0106509 0.0627487,-0.00610287 0.000524769,-0.000369282 0.00105926,-0.000816307 0.00164233,-0.00132164l0.000816307 -0.000719127c0.0102816,-0.00880445 0.0140133,-0.0251695 0.0126528,-0.0441194 -0.00174923,-0.0246544 -0.0116712,-0.051748 -0.0275212,-0.0747698 -0.0029251,-0.00419815 -0.00634581,-0.00868784 -0.0102719,-0.0133622 -0.0289497,-0.0337212 -0.0663249,-0.0381429 -0.100017,-0.0250528 -0.0218362,0.0085032 -0.0425063,0.0234688 -0.0594349,0.0425257 -0.0172688,0.0194553 -0.0305338,0.0427881 -0.0372197,0.0674814 -0.0122835,0.0453925 -0.000534487,0.0966741 0.0537985,0.135896zm0.906392 1.71582c0.0139258,0.00999976 0.0170939,0.0294648 0.00703579,0.04341 -0.0100678,0.013955 -0.0295231,0.017055 -0.0434392,0.00704551 -0.0640315,-0.0462574 -0.0773839,-0.108413 -0.0622142,-0.164253 0.00730789,-0.0269964 0.0215933,-0.0522534 0.0400671,-0.0731275 0.0187945,-0.0211171 0.0419523,-0.0379 0.0666942,-0.0474721 0.0477248,-0.0185321 0.100639,-0.0123126 0.14162,0.0355191 0.00380943,0.0044411 0.00762858,0.00944584 0.01137,0.0149268 0.0174923,0.0255193 0.0285707,0.0560434 0.0305532,0.0844003 0.00229343,0.0324579 -0.00680256,0.062982 -0.0306212,0.0833994 -0.000515051,0.000369282 -0.000952358,0.000796871 -0.00145769,0.001137 -0.00174923,0.00144797 -0.00370253,0.00291538 -0.00578217,0.00429533 -0.041447,0.0283667 -0.0819028,0.0244989 -0.112077,0.00651102 -0.0111465,-0.00664707 -0.020845,-0.0152863 -0.0284638,-0.0249945 -0.00776463,-0.00986371 -0.0136148,-0.0210393 -0.0170355,-0.0324774 -0.00822138,-0.0277447 -0.00262384,-0.0565681 0.0221666,-0.0756736 0.0135662,-0.010544 0.0331187,-0.00800758 0.0436433,0.00551979 0.010544,0.0136246 0.0080173,0.0331868 -0.00551007,0.0437404 -0.00177838,0.00131192 -0.00177838,0.00478123 -0.000544205,0.0087753 0.00109813,0.00378028 0.00322636,0.00772576 0.0062292,0.0114866 0.00310974,0.00391633 0.00699692,0.00746338 0.0114866,0.0101261 0.0113603,0.00673453 0.0273463,0.0076383 0.0449746,-0.00436335 0.000340128,-0.00028182 0.000767717,-0.000573358 0.00116615,-0.000932922l0.000592794 -0.000505333c0.0073662,-0.00631666 0.0100581,-0.0180754 0.00903768,-0.0316416 -0.00123418,-0.0176866 -0.00833799,-0.0370934 -0.0197274,-0.0536236 -0.00204077,-0.00300284 -0.00451884,-0.00621948 -0.00732733,-0.00957217 -0.020777,-0.0241491 -0.0475887,-0.0273463 -0.0717087,-0.0179782 -0.0156459,0.00611258 -0.0304755,0.0168412 -0.0426229,0.0305143 -0.0123709,0.0139452 -0.0218848,0.0306795 -0.0267049,0.0483662 -0.0087753,0.0325551 -0.000349846,0.0692986 0.0385997,0.0974418zm-1.18713 -0.0793567c0.0182211,-0.00496587 0.0369185,0.00581133 0.0418843,0.0239839 0.00495615,0.0181628 -0.00579189,0.0369185 -0.0239644,0.0418552 -0.127519,0.0347028 -0.22224,-0.0129929 -0.278681,-0.0908724 -0.0278613,-0.0384344 -0.045995,-0.0842254 -0.0537305,-0.130823 -0.0077452,-0.0467044 -0.00515051,-0.0947693 0.00852263,-0.137567 0.0254804,-0.0798134 0.087753,-0.140774 0.190821,-0.143767 0.0101941,-0.000310974 0.0208353,1.94359e-005 0.0318068,0.000932922 0.0520104,0.00407182 0.103681,0.0218265 0.142786,0.0491145 0.042827,0.0298924 0.0716892,0.0715046 0.0730886,0.12058 2.91538e-005,0.000738563 3.88718e-005,0.00149656 2.91538e-005,0.00223513 2.91538e-005,0.00383859 -9.71794e-005,0.00779379 -0.000427589,0.0118559 -0.00642356,0.0803382 -0.0515828,0.126877 -0.103992,0.146216 -0.0196302,0.00730789 -0.0401448,0.0106217 -0.0598334,0.0104273 -0.0198829,-0.000252666 -0.039416,-0.00415928 -0.056743,-0.0113117 -0.0404363,-0.0165982 -0.0690557,-0.0501543 -0.067909,-0.0964991 0.000437307,-0.0189305 0.0161221,-0.0338476 0.0350526,-0.0333617 0.0188139,0.000398436 0.0337601,0.0161609 0.0333228,0.0349943 -0.000340128,0.0143534 0.0103107,0.0254513 0.0253541,0.0316513 0.00927091,0.00380943 0.0201647,0.00592794 0.0317679,0.00605428 0.0117976,0.000145769 0.0239061,-0.00181725 0.0352275,-0.00599597 0.0298729,-0.0110396 0.0557907,-0.038726 0.0596973,-0.0877044 8.74615e-005,-0.00167149 0.000184641,-0.00331382 0.000184641,-0.00502417l-7.77435e-005 -0.00145769c-0.000728845,-0.0253249 -0.0181045,-0.0484925 -0.0439154,-0.0665387 -0.0295328,-0.0205826 -0.069046,-0.0340322 -0.109191,-0.0372197 -0.00769661,-0.000573358 -0.0158014,-0.000826025 -0.0242268,-0.000573358 -0.0689196,0.0020019 -0.110619,0.0428172 -0.127733,0.096159 -0.0102136,0.0321858 -0.0120794,0.0691043 -0.00600569,0.105576 0.00609315,0.0366366 0.0201161,0.0722237 0.0415442,0.101854 0.0410097,0.0565876 0.110668,0.0910085 0.20534,0.0652268zm1.6118 -0.965565c-0.00523797,-0.0202522 0.00697748,-0.0408251 0.0271811,-0.045995 0.0202425,-0.00522825 0.0408056,0.00693861 0.0460047,0.0271325 0.036452,0.141804 -0.0177935,0.246058 -0.104895,0.307252 -0.0429727,0.0302811 -0.0939919,0.0497073 -0.145633,0.0575108 -0.0519327,0.00785209 -0.105119,0.00425646 -0.152251,-0.0115546 -0.0879765,-0.0294065 -0.154564,-0.0992687 -0.156313,-0.213493 -0.000223513,-0.0112437 0.000359564,-0.0230801 0.00148684,-0.0351984 0.00533515,-0.0575302 0.0257623,-0.114429 0.0566167,-0.157343 0.0337796,-0.0469765 0.0802702,-0.078346 0.134642,-0.0790652 0.000826025,-0.000106897 0.00165205,-6.80256e-005 0.00247807,-3.88718e-005 0.00432448,1.94359e-005 0.00867812,0.000194359 0.0131095,0.000680256 0.08889,0.00831856 0.139754,0.059017 0.160336,0.117344 0.00776463,0.021914 0.0111173,0.0445956 0.0106217,0.0663638 -0.000573358,0.0220694 -0.00516994,0.0436044 -0.0133719,0.0627293 -0.0190472,0.0445179 -0.056607,0.075693 -0.10785,0.0737106 -0.0210199,-0.000826025 -0.0373266,-0.0184058 -0.0364909,-0.0393674 0.000738563,-0.0207964 0.0183961,-0.0370642 0.0392702,-0.0362965 0.0159083,0.000544205 0.0284055,-0.0110201 0.0355093,-0.0275989 0.00429533,-0.010233 0.00683171,-0.0222346 0.00714269,-0.035072 0.000359564,-0.0130609 -0.00161318,-0.0265688 -0.00604456,-0.0391536 -0.0117976,-0.0331965 -0.0421273,-0.062428 -0.0963145,-0.0674231 -0.00186584,-0.000106897 -0.0036831,-0.000242948 -0.00552951,-0.000233231l-0.00158402 -1.94359e-005c-0.0280557,0.000427589 -0.0539832,0.0193095 -0.0743131,0.0476373 -0.0233328,0.0323899 -0.0387551,0.0760234 -0.0429533,0.120357 -0.00066082,0.00852263 -0.00115643,0.017502 -0.000962076,0.0268409 0.00115643,0.076315 0.0456743,0.123175 0.104439,0.142922 0.0355871,0.0117976 0.0764316,0.0143631 0.116936,0.0081825 0.0406307,-0.00613202 0.0802022,-0.0210879 0.113379,-0.0444304 0.0633124,-0.0445859 0.102447,-0.121115 0.0753529,-0.226379zm-0.98225 0.306465c0.0167051,0.0087753 0.0230898,0.0294065 0.0143631,0.0461019 -0.00874615,0.0166468 -0.0294065,0.0230704 -0.0460533,0.0143242 -0.117033,-0.0613882 -0.153952,-0.160803 -0.142271,-0.256291 0.00578217,-0.0471126 0.0236729,-0.092991 0.049785,-0.132397 0.0260732,-0.039484 0.0607177,-0.0729526 0.0998713,-0.0949831 0.0729623,-0.0410777 0.160103,-0.0433323 0.237642,0.0246253 0.0076383,0.00672481 0.0152377,0.0142368 0.0226622,0.022361 0.0353053,0.0383956 0.0610675,0.0865674 0.0711062,0.133184 0.0110201,0.0510872 0.00383859,0.101193 -0.0285319,0.138102 -0.000505333,0.000544205 -0.00100095,0.00112728 -0.001516,0.0016229 -0.00259469,0.00286679 -0.00538374,0.00566556 -0.00837686,0.0083963 -0.059396,0.0545274 -0.124205,0.0577926 -0.17572,0.0362965 -0.0193484,-0.00802702 -0.0366463,-0.0195525 -0.0509123,-0.0330993 -0.0144117,-0.0137314 -0.0260441,-0.0298729 -0.0338865,-0.0469085 -0.0182989,-0.0397075 -0.0163942,-0.0837395 0.0159569,-0.116955 0.0132358,-0.0135468 0.0348874,-0.0137898 0.0484051,-0.000553923 0.0135177,0.0131484 0.0137606,0.0348388 0.000573358,0.048337 -0.0100192,0.0102913 -0.00977625,0.0256748 -0.00298341,0.0404266 0.00419815,0.00911543 0.0107675,0.0180948 0.0191832,0.0260829 0.00854207,0.00811448 0.0187168,0.0149559 0.0298729,0.0196205 0.029387,0.0122154 0.0672384,0.00959161 0.103457,-0.0236437 0.00115643,-0.001137 0.00234202,-0.00229343 0.00351789,-0.00353733l0.000952358 -0.00115643c0.0166857,-0.019018 0.0197371,-0.0477734 0.0131095,-0.0785501 -0.00760915,-0.0352081 -0.0274046,-0.0719613 -0.0546148,-0.101611 -0.00523797,-0.00569471 -0.0110493,-0.0113797 -0.017366,-0.0169481 -0.0518452,-0.0454702 -0.110172,-0.043964 -0.159005,-0.0165011 -0.0293968,0.0165691 -0.0558879,0.0423702 -0.0762761,0.0732052 -0.020466,0.0309225 -0.0344598,0.0666165 -0.0389203,0.102884 -0.00849348,0.0693861 0.0190763,0.141999 0.105974,0.187566zm0.388523 -0.749778c0.0167051,0.0087753 0.0230898,0.0294065 0.0143631,0.0461019 -0.00874615,0.0166468 -0.0294065,0.0230704 -0.0460533,0.0143242 -0.117033,-0.0613882 -0.153952,-0.160803 -0.142271,-0.256291 0.00578217,-0.0471126 0.0236729,-0.092991 0.049785,-0.132397 0.0260732,-0.039484 0.0607177,-0.0729526 0.0998713,-0.0949831 0.0729623,-0.0410777 0.160103,-0.0433323 0.237642,0.0246253 0.0076383,0.00672481 0.0152377,0.0142368 0.0226622,0.022361 0.0353053,0.0383956 0.0610675,0.0865674 0.0711062,0.133184 0.0110201,0.0510872 0.00383859,0.101193 -0.0285319,0.138102 -0.000505333,0.000544205 -0.00100095,0.00112728 -0.001516,0.0016229 -0.00259469,0.00286679 -0.00538374,0.00566556 -0.00837686,0.0083963 -0.059396,0.0545274 -0.124205,0.0577926 -0.17572,0.0362965 -0.0193484,-0.00802702 -0.0366463,-0.0195525 -0.0509123,-0.0330993 -0.0144117,-0.0137314 -0.0260441,-0.0298729 -0.0338865,-0.0469085 -0.0182989,-0.0397075 -0.0163942,-0.0837395 0.0159569,-0.116955 0.0132358,-0.0135468 0.0348874,-0.0137898 0.0484051,-0.000553923 0.0135177,0.0131484 0.0137606,0.0348388 0.000573358,0.048337 -0.0100192,0.0102913 -0.00977625,0.0256748 -0.00298341,0.0404266 0.00419815,0.00911543 0.0107675,0.0180948 0.0191832,0.0260829 0.00854207,0.00811448 0.0187168,0.0149559 0.0298729,0.0196205 0.029387,0.0122154 0.0672384,0.00959161 0.103457,-0.0236437 0.00115643,-0.001137 0.00234202,-0.00229343 0.00351789,-0.00353733l0.000952358 -0.00115643c0.0166857,-0.019018 0.0197371,-0.0477734 0.0131095,-0.0785501 -0.00760915,-0.0352081 -0.0274046,-0.0719613 -0.0546148,-0.101611 -0.00523797,-0.00569471 -0.0110493,-0.0113797 -0.017366,-0.0169481 -0.0518452,-0.0454702 -0.110172,-0.043964 -0.159005,-0.0165011 -0.0293968,0.0165691 -0.0558879,0.0423702 -0.0762761,0.0732052 -0.020466,0.0309225 -0.0344598,0.0666165 -0.0389203,0.102884 -0.00849348,0.0693861 0.0190763,0.141999 0.105974,0.187566zm-1.2118 -0.032662c-0.0067151,-0.0207186 0.00467433,-0.0429727 0.0253541,-0.049649 0.0207284,-0.00668594 0.0429436,0.00466461 0.0496587,0.0253833 0.0201842,0.0622628 0.00609315,0.131425 -0.0296397,0.188557 -0.0219334,0.035004 -0.0521659,0.065771 -0.0876364,0.0876655 -0.036452,0.0225456 -0.0784238,0.0359078 -0.122776,0.0353247 -0.0615923,-0.000757999 -0.126683,-0.0278808 -0.186215,-0.0938267 -0.066908,-0.0741187 -0.0739438,-0.143544 -0.0492019,-0.199062 0.0160832,-0.0359855 0.0456257,-0.0647409 0.0808338,-0.0841574 0.0337212,-0.0186779 0.0733121,-0.0290566 0.111095,-0.0290469 0.0654503,1.94359e-005 0.125915,0.0298438 0.14815,0.0986954 0.0217099,0.0672384 0.00909599,0.115099 -0.0193581,0.146265 -0.000777435,0.000835743 -0.00153543,0.00160346 -0.00237118,0.00237118 -0.0136537,0.0140424 -0.03032,0.0240325 -0.0483662,0.0301256 -0.0177741,0.00598625 -0.0369282,0.00840602 -0.0555477,0.00756056 -0.0487063,-0.0021671 -0.0967226,-0.0271908 -0.113943,-0.0673842 -0.00854207,-0.020019 0.000748281,-0.043206 0.020777,-0.0517772 0.0200092,-0.00854207 0.0431962,0.000777435 0.0517577,0.0208061 0.00480066,0.0112242 0.0239353,0.0184835 0.0447705,0.0194359 0.00943612,0.000398436 0.0187848,-0.000670538 0.027045,-0.00348874 0.00642356,-0.00214766 0.0121766,-0.00541289 0.0165399,-0.00971794l0.00100095 -0.00112728c0.0106703,-0.0116615 0.0141202,-0.0335172 0.00264328,-0.0691043 -0.00984427,-0.0305921 -0.0398921,-0.0438473 -0.0729914,-0.0438571 -0.0246058,-1.94359e-005 -0.0506596,0.0068803 -0.0730983,0.0192707 -0.0210685,0.0116324 -0.0382692,0.0278419 -0.0469182,0.0472486 -0.0127402,0.0286096 -0.00630694,0.0675688 0.035694,0.114059 0.0430213,0.0476471 0.0876558,0.0672384 0.128529,0.0677438 0.0287943,0.000349846 0.0563446,-0.00849348 0.0804743,-0.02343 0.0250723,-0.015471 0.0465489,-0.0374141 0.0622045,-0.0624086 0.0241199,-0.038483 0.0341294,-0.0836229 0.021535,-0.122475zm1.07236 1.0833c-0.0067151,-0.0207186 0.00467433,-0.0429727 0.0253541,-0.049649 0.0207284,-0.00668594 0.0429436,0.00466461 0.0496587,0.0253833 0.0201842,0.0622628 0.00609315,0.131425 -0.0296397,0.188557 -0.0219334,0.035004 -0.0521659,0.065771 -0.0876364,0.0876655 -0.036452,0.0225456 -0.0784238,0.0359078 -0.122776,0.0353247 -0.0615923,-0.000757999 -0.126683,-0.0278808 -0.186215,-0.0938267 -0.066908,-0.0741187 -0.0739438,-0.143544 -0.0492019,-0.199062 0.0160832,-0.0359855 0.0456257,-0.0647409 0.0808338,-0.0841574 0.0337212,-0.0186779 0.0733121,-0.0290566 0.111095,-0.0290469 0.0654503,1.94359e-005 0.125915,0.0298438 0.14815,0.0986954 0.0217099,0.0672384 0.00909599,0.115099 -0.0193581,0.146265 -0.000777435,0.000835743 -0.00153543,0.00160346 -0.00237118,0.00237118 -0.0136537,0.0140424 -0.03032,0.0240325 -0.0483662,0.0301256 -0.0177741,0.00598625 -0.0369282,0.00840602 -0.0555477,0.00756056 -0.0487063,-0.0021671 -0.0967226,-0.0271908 -0.113943,-0.0673842 -0.00854207,-0.020019 0.000748281,-0.043206 0.020777,-0.0517772 0.0200092,-0.00854207 0.0431962,0.000777435 0.0517577,0.0208061 0.00480066,0.0112242 0.0239353,0.0184835 0.0447705,0.0194359 0.00943612,0.000398436 0.0187848,-0.000670538 0.027045,-0.00348874 0.00642356,-0.00214766 0.0121766,-0.00541289 0.0165399,-0.00971794l0.00100095 -0.00112728c0.0106703,-0.0116615 0.0141202,-0.0335172 0.00264328,-0.0691043 -0.00984427,-0.0305921 -0.0398921,-0.0438473 -0.0729914,-0.0438571 -0.0246058,-1.94359e-005 -0.0506596,0.0068803 -0.0730983,0.0192707 -0.0210685,0.0116324 -0.0382692,0.0278419 -0.0469182,0.0472486 -0.0127402,0.0286096 -0.00630694,0.0675688 0.035694,0.114059 0.0430213,0.0476471 0.0876558,0.0672384 0.128529,0.0677438 0.0287943,0.000349846 0.0563446,-0.00849348 0.0804743,-0.02343 0.0250723,-0.015471 0.0465489,-0.0374141 0.0622045,-0.0624086 0.0241199,-0.038483 0.0341294,-0.0836229 0.021535,-0.122475zm-1.13502 0.97641c-0.00617089,0.020845 -0.028046,0.0327592 -0.048891,0.0266174 -0.0208158,-0.00618061 -0.0327883,-0.0280654 -0.0266272,-0.0489201 0.0184641,-0.062671 0.0690654,-0.111776 0.130726,-0.138675 0.0378028,-0.0164913 0.0800855,-0.0248196 0.121669,-0.0228857 0.0427589,0.00198246 0.0848959,0.0146547 0.121115,0.0401157 0.0503292,0.0353441 0.0887151,0.0943515 0.10059,0.182328 0.0133524,0.0988217 -0.0199704,0.159986 -0.0716795,0.191784 -0.0335269,0.0206506 -0.0740896,0.0276378 -0.114069,0.023877 -0.0383081,-0.00369282 -0.0768106,-0.0174729 -0.107937,-0.0387454 -0.0539151,-0.0369087 -0.0869658,-0.0955954 -0.0664707,-0.164875 0.0199995,-0.0676854 0.0573941,-0.100017 0.098433,-0.109638 0.00106897,-0.000272102 0.0021671,-0.000437307 0.00325551,-0.000641384 0.0191929,-0.00390661 0.0385511,-0.00266272 0.0568305,0.00245864 0.0180754,0.00505333 0.0351984,0.0138772 0.0500571,0.0250626 0.0389203,0.0292413 0.0644105,0.0769661 0.0559559,0.119793 -0.00423702,0.0213406 -0.0249654,0.0352178 -0.0462963,0.0309419 -0.0213212,-0.00423702 -0.0351984,-0.0249654 -0.0309614,-0.0462865 0.00237118,-0.0119822 -0.0092612,-0.0287457 -0.0259372,-0.0412818 -0.00756056,-0.00566556 -0.0158305,-0.0100386 -0.0242657,-0.0124098 -0.00653046,-0.00179782 -0.0130901,-0.00236146 -0.0190958,-0.00129249l-0.00146741 0.000388718c-0.0153543,0.00359564 -0.0305338,0.0196594 -0.0411166,0.0554506 -0.00913486,0.0308253 0.00810476,0.0586478 0.0354219,0.0773159 0.0202522,0.0138675 0.0456354,0.0228857 0.0711256,0.0253249 0.0238575,0.00228372 0.0472389,-0.00137023 0.0652657,-0.0124973 0.0266466,-0.0163942 0.0432837,-0.0521367 0.0349068,-0.114157 -0.00859066,-0.0635262 -0.0343529,-0.104808 -0.0677146,-0.128267 -0.0235466,-0.0165302 -0.0512427,-0.0247613 -0.0795413,-0.0260829 -0.0294065,-0.00137023 -0.0594544,0.0046063 -0.0864897,0.0163747 -0.0415928,0.0181628 -0.0753043,0.0497073 -0.0867909,0.088822zm0.64013 -0.382994c-0.00617089,0.020845 -0.028046,0.0327592 -0.048891,0.0266174 -0.0208158,-0.00618061 -0.0327883,-0.0280654 -0.0266272,-0.0489201 0.0184641,-0.062671 0.0690654,-0.111776 0.130726,-0.138665 0.0378028,-0.0164913 0.0800855,-0.0248196 0.121669,-0.0228857 0.0427589,0.00198246 0.0848959,0.0146547 0.121115,0.0401059 0.0503292,0.0353441 0.0887151,0.0943515 0.10059,0.182328 0.0133524,0.0988217 -0.0199704,0.159986 -0.0716795,0.191784 -0.0335269,0.0206506 -0.0740896,0.0276378 -0.114069,0.023877 -0.0383081,-0.00369282 -0.0768106,-0.0174729 -0.107937,-0.0387454 -0.0539151,-0.0369087 -0.0869658,-0.0955954 -0.0664707,-0.164875 0.0199995,-0.0676854 0.0573941,-0.100017 0.098433,-0.109638 0.00106897,-0.000272102 0.0021671,-0.000437307 0.00325551,-0.000641384 0.0191929,-0.00390661 0.0385511,-0.00266272 0.0568305,0.00245864 0.0180754,0.00505333 0.0351984,0.0138772 0.0500571,0.0250626 0.0389203,0.0292413 0.0644105,0.0769661 0.0559559,0.119793 -0.00423702,0.0213406 -0.0249654,0.0352178 -0.0462963,0.0309419 -0.0213212,-0.00423702 -0.0351984,-0.0249654 -0.0309614,-0.0462865 0.00237118,-0.0119822 -0.0092612,-0.0287457 -0.0259372,-0.0412818 -0.00756056,-0.00566556 -0.0158305,-0.0100386 -0.0242657,-0.0124098 -0.00653046,-0.00179782 -0.0130901,-0.00236146 -0.0190958,-0.00129249l-0.00146741 0.000388718c-0.0153543,0.00359564 -0.0305338,0.0196594 -0.0411166,0.0554506 -0.00913486,0.0308253 0.00810476,0.0586478 0.0354219,0.0773159 0.0202522,0.0138675 0.0456354,0.0228857 0.0711256,0.0253249 0.0238575,0.00228372 0.0472389,-0.00137023 0.0652657,-0.0124973 0.0266466,-0.0163942 0.0432837,-0.0521367 0.0349068,-0.114157 -0.00859066,-0.0635262 -0.0343529,-0.104808 -0.0677146,-0.128267 -0.0235466,-0.0165302 -0.0512427,-0.0247613 -0.0795413,-0.0260829 -0.0294065,-0.00137023 -0.0594544,0.0046063 -0.0864897,0.0163747 -0.0415928,0.0181628 -0.0753043,0.0497073 -0.0867909,0.088822zm-0.644659 -1.18031c-0.0186876,0.0110785 -0.0428367,0.00489784 -0.0539151,-0.0137995 -0.0110785,-0.0186876 -0.00489784,-0.0428464 0.0137995,-0.0539248 0.0562086,-0.0333422 0.126693,-0.0348485 0.19017,-0.0125847 0.0389106,0.0136537 0.0755375,0.0363451 0.104691,0.0660917 0.0299604,0.0305532 0.0521951,0.0685115 0.0613979,0.111824 0.0127888,0.0601638 0.000699692,0.129521 -0.050475,0.202026 -0.057501,0.0814752 -0.123564,0.103574 -0.183086,0.091679 -0.0385997,-0.00771604 -0.0730983,-0.0302034 -0.0997741,-0.0601929 -0.0255873,-0.0287748 -0.0443818,-0.0650908 -0.0526809,-0.101873 -0.0143825,-0.0637594 0.00137995,-0.12921 0.063565,-0.166012 0.0606982,-0.0359175 0.110133,-0.0341586 0.146721,-0.0132844 0.000981512,0.000553923 0.00191443,0.001137 0.00282792,0.00176866 0.0167149,0.0101941 0.0300381,0.0242754 0.0399602,0.0404947 0.00979568,0.0159957 0.0163164,0.0341197 0.0195914,0.0524283 0.00859066,0.0479289 -0.00521853,0.100221 -0.0405627,0.125847 -0.0176381,0.0127305 -0.0422633,0.0087753 -0.0549938,-0.00886276 -0.0127402,-0.0176283 -0.00878502,-0.0422633 0.00885304,-0.0549938 0.00990258,-0.00717184 0.0127791,-0.0273852 0.00909599,-0.0479094 -0.00165205,-0.00927091 -0.00477151,-0.018124 -0.0093195,-0.0255582 -0.00353733,-0.00579189 -0.00796871,-0.01068 -0.0130998,-0.0139841l-0.00133136 -0.000719127c-0.013712,-0.00781322 -0.035762,-0.0063944 -0.0678992,0.0126333 -0.0276475,0.0163456 -0.0339739,0.0484828 -0.0266855,0.0807366 0.00539346,0.0239547 0.0178324,0.0478317 0.0348582,0.0669566 0.0159277,0.0179296 0.0355288,0.0311654 0.0563155,0.035315 0.0306893,0.00613202 0.0671898,-0.00872671 0.103273,-0.0598431 0.0369768,-0.0523894 0.0462282,-0.100153 0.0377348,-0.140084 -0.00597653,-0.0281237 -0.0206506,-0.0530114 -0.0404752,-0.0732344 -0.0206215,-0.0210393 -0.0466947,-0.037142 -0.0745074,-0.0468988 -0.0428172,-0.0150239 -0.0889774,-0.014849 -0.124049,0.0059571z"/>
   <path id="_208912664" class="fil13" d="M13.5843 7.64169c0.0186876,0.0110785 0.0428367,0.00489784 0.0539151,-0.0137995 0.0110785,-0.0186876 0.00489784,-0.0428464 -0.0137995,-0.0539248 -0.0562086,-0.0333422 -0.126693,-0.0348485 -0.19017,-0.0125847 -0.0389106,0.0136537 -0.0755375,0.0363451 -0.104691,0.0660917 -0.0299604,0.0305532 -0.0521951,0.0685115 -0.0613979,0.111824 -0.0127888,0.0601638 -0.000699692,0.129521 0.050475,0.202026 0.057501,0.0814752 0.123564,0.103574 0.183086,0.091679 0.0385997,-0.00771604 0.0730983,-0.0302034 0.0997741,-0.0601929 0.0255873,-0.0287748 0.0443818,-0.0650908 0.0526809,-0.101873 0.0143825,-0.0637594 -0.00137995,-0.12921 -0.063565,-0.166012 -0.0606982,-0.0359175 -0.110133,-0.0341586 -0.146721,-0.0132844 -0.000981512,0.000553923 -0.00191443,0.001137 -0.00282792,0.00176866 -0.0167149,0.0101941 -0.0300381,0.0242754 -0.0399602,0.0404947 -0.00979568,0.0159957 -0.0163164,0.0341197 -0.0195914,0.0524283 -0.00859066,0.0479289 0.00521853,0.100221 0.0405627,0.125847 0.0176381,0.0127305 0.0422633,0.0087753 0.0549938,-0.00886276 0.0127402,-0.0176283 0.00878502,-0.0422633 -0.00885304,-0.0549938 -0.00990258,-0.00717184 -0.0127791,-0.0273852 -0.00909599,-0.0479094 0.00165205,-0.00927091 0.00477151,-0.018124 0.0093195,-0.0255582 0.00353733,-0.00579189 0.00796871,-0.01068 0.0130998,-0.0139841l0.00133136 -0.000719127c0.013712,-0.00781322 0.035762,-0.0063944 0.0678992,0.0126333 0.0276475,0.0163456 0.0339739,0.0484828 0.0266855,0.0807366 -0.00539346,0.0239547 -0.0178324,0.0478317 -0.0348582,0.0669566 -0.0159277,0.0179296 -0.0355288,0.0311654 -0.0563155,0.035315 -0.0306893,0.00613202 -0.0671898,-0.00872671 -0.103273,-0.0598431 -0.0369768,-0.0523894 -0.0462282,-0.100153 -0.0377348,-0.140084 0.00597653,-0.0281237 0.0206506,-0.0530114 0.0404752,-0.0732344 0.0206215,-0.0210393 0.0466947,-0.037142 0.0745074,-0.0468988 0.0428172,-0.0150239 0.0889774,-0.014849 0.124049,0.0059571zm-0.223143 3.21258c-8.74615e-005,-0.0185807 -0.511232,0.077899 -1.06714,-0.339049 -0.0460436,-0.0345764 -0.0577246,-0.0149559 -0.0213503,0.0260149 0.545303,0.614378 1.10864,0.34041 1.08849,0.313034zm0.0620102 -0.283929c-4.85897e-005,-0.0186196 -0.511193,0.0779087 -1.06709,-0.339069 -0.0460727,-0.0345473 -0.0577634,-0.0149753 -0.0214183,0.0260052 0.545322,0.614436 1.10869,0.340419 1.08851,0.313063zm0.0245184 -3.23192c-0.019397,0.0139744 -0.0238187,0.0411555 -0.0098054,0.0605913 0.014023,0.0194359 0.0411652,0.0237604 0.0605816,0.00982484 0.0892981,-0.0645174 0.107937,-0.15126 0.0867909,-0.229139 -0.010233,-0.0376667 -0.030145,-0.072904 -0.055917,-0.10199 -0.0261704,-0.0294842 -0.0584826,-0.0528559 -0.0930104,-0.0662375 -0.066529,-0.0258303 -0.140395,-0.0171716 -0.197537,0.0495421 -0.00532543,0.00621948 -0.01068,0.013197 -0.0158597,0.0208255 -0.0244017,0.0355968 -0.0398338,0.0781808 -0.0426423,0.117762 -0.00315833,0.0452856 0.00949443,0.0878113 0.0427395,0.116295 0.000670538,0.000553923 0.00131192,0.00111756 0.00202133,0.00161318 0.00244892,0.00198246 0.00514079,0.00401351 0.00803674,0.00597653 0.0578023,0.0395812 0.114312,0.034178 0.156362,0.00906684 0.0155876,-0.00924176 0.0290469,-0.0213309 0.0397075,-0.0348582 0.0108452,-0.0137703 0.0189986,-0.029319 0.0237798,-0.0453245 0.0114477,-0.0386774 0.00365395,-0.0788902 -0.0308933,-0.105508 -0.0189597,-0.0146935 -0.046238,-0.0111756 -0.0609023,0.00771604 -0.0147032,0.0189694 -0.0112145,0.0462574 0.00768689,0.0609801 0.00245864,0.00184641 0.00244892,0.00665679 0.000757999,0.0122252 -0.00153543,0.00527684 -0.00451884,0.0107675 -0.00870727,0.016054 -0.00432448,0.00546148 -0.00978596,0.0103593 -0.0159957,0.0141299 -0.0158888,0.00937781 -0.0381818,0.0106509 -0.0627487,-0.00610287 -0.000524769,-0.000369282 -0.00105926,-0.000816307 -0.00164233,-0.00132164l-0.000816307 -0.000719127c-0.0102816,-0.00880445 -0.0140133,-0.0251695 -0.0126528,-0.0441194 0.00174923,-0.0246544 0.0116712,-0.051748 0.0275212,-0.0747698 0.0029251,-0.00419815 0.00634581,-0.00868784 0.0102719,-0.0133622 0.0289497,-0.0337212 0.0663249,-0.0381429 0.100017,-0.0250528 0.0218362,0.0085032 0.0425063,0.0234688 0.0594349,0.0425257 0.0172688,0.0194553 0.0305338,0.0427881 0.0372197,0.0674814 0.0122835,0.0453925 0.000534487,0.0966741 -0.0537985,0.135896zm-0.906382 1.71582c-0.0139258,0.00999976 -0.0170939,0.0294648 -0.00703579,0.04341 0.0100678,0.013955 0.0295231,0.017055 0.0434392,0.00704551 0.0640315,-0.0462574 0.0773839,-0.108413 0.0622142,-0.164253 -0.00730789,-0.0269964 -0.0215933,-0.0522534 -0.0400671,-0.0731275 -0.0187945,-0.0211171 -0.0419523,-0.0379 -0.0666942,-0.0474721 -0.0477248,-0.0185321 -0.100639,-0.0123126 -0.14162,0.0355191 -0.00380943,0.0044411 -0.00762858,0.00944584 -0.01137,0.0149268 -0.0174923,0.0255193 -0.0285707,0.0560434 -0.0305532,0.0844003 -0.00229343,0.0324579 0.00680256,0.062982 0.0306212,0.0833994 0.000515051,0.000369282 0.000952358,0.000796871 0.00145769,0.001137 0.00174923,0.00144797 0.00370253,0.00291538 0.00578217,0.00429533 0.041447,0.0283667 0.0819028,0.0244989 0.112077,0.00651102 0.0111465,-0.00664707 0.020845,-0.0152863 0.0284638,-0.0249945 0.00776463,-0.00986371 0.0136148,-0.0210393 0.0170355,-0.0324774 0.00822138,-0.0277447 0.00262384,-0.0565681 -0.0221666,-0.0756736 -0.0135662,-0.010544 -0.0331187,-0.00800758 -0.0436433,0.00551979 -0.010544,0.0136246 -0.0080173,0.0331868 0.00551007,0.0437404 0.00177838,0.00131192 0.00177838,0.00478123 0.000544205,0.0087753 -0.00109813,0.00378028 -0.00322636,0.00772576 -0.0062292,0.0114866 -0.00310974,0.00391633 -0.00699692,0.00746338 -0.0114866,0.0101261 -0.0113603,0.00673453 -0.0273463,0.0076383 -0.0449746,-0.00436335 -0.000340128,-0.00028182 -0.000767717,-0.000573358 -0.00116615,-0.000932922l-0.000592794 -0.000505333c-0.0073662,-0.00631666 -0.0100581,-0.0180754 -0.00903768,-0.0316416 0.00123418,-0.0176866 0.00833799,-0.0370934 0.0197274,-0.0536236 0.00204077,-0.00300284 0.00451884,-0.00621948 0.00732733,-0.00957217 0.020777,-0.0241491 0.0475887,-0.0273463 0.0717087,-0.0179782 0.0156459,0.00611258 0.0304755,0.0168412 0.0426229,0.0305143 0.0123709,0.0139452 0.0218848,0.0306795 0.0267049,0.0483662 0.0087753,0.0325551 0.000349846,0.0692986 -0.0385997,0.0974418zm1.18712 -0.0793567c-0.0182211,-0.00496587 -0.0369185,0.00581133 -0.0418843,0.0239839 -0.00495615,0.0181628 0.00579189,0.0369185 0.0239644,0.0418552 0.127519,0.0347028 0.22224,-0.0129929 0.278681,-0.0908724 0.0278613,-0.0384344 0.045995,-0.0842254 0.0537305,-0.130823 0.0077452,-0.0467044 0.00515051,-0.0947693 -0.00852263,-0.137567 -0.0254804,-0.0798134 -0.087753,-0.140774 -0.190821,-0.143767 -0.0101941,-0.000310974 -0.0208353,1.94359e-005 -0.0318068,0.000932922 -0.0520104,0.00407182 -0.103681,0.0218265 -0.142786,0.0491145 -0.042827,0.0298924 -0.0716892,0.0715046 -0.0730886,0.12058 -2.91538e-005,0.000738563 -3.88718e-005,0.00149656 -2.91538e-005,0.00223513 -2.91538e-005,0.00383859 9.71794e-005,0.00779379 0.000427589,0.0118559 0.00642356,0.0803382 0.0515828,0.126877 0.103992,0.146216 0.0196302,0.00730789 0.0401448,0.0106217 0.0598334,0.0104273 0.0198829,-0.000252666 0.039416,-0.00415928 0.056743,-0.0113117 0.0404363,-0.0165982 0.0690557,-0.0501543 0.067909,-0.0964991 -0.000437307,-0.0189305 -0.0161221,-0.0338476 -0.0350526,-0.0333617 -0.0188139,0.000398436 -0.0337601,0.0161609 -0.0333228,0.0349943 0.000340128,0.0143534 -0.0103107,0.0254513 -0.0253541,0.0316513 -0.00927091,0.00380943 -0.0201647,0.00592794 -0.0317679,0.00605428 -0.0117976,0.000145769 -0.0239061,-0.00181725 -0.0352275,-0.00599597 -0.0298729,-0.0110396 -0.0557907,-0.038726 -0.0596973,-0.0877044 -8.74615e-005,-0.00167149 -0.000184641,-0.00331382 -0.000184641,-0.00502417l7.77435e-005 -0.00145769c0.000728845,-0.0253249 0.0181045,-0.0484925 0.0439154,-0.0665387 0.0295328,-0.0205826 0.069046,-0.0340322 0.109191,-0.0372197 0.00769661,-0.000573358 0.0158014,-0.000826025 0.0242268,-0.000573358 0.0689196,0.0020019 0.110619,0.0428172 0.127733,0.096159 0.0102136,0.0321858 0.0120794,0.0691043 0.00600569,0.105576 -0.00609315,0.0366366 -0.0201161,0.0722237 -0.0415442,0.101854 -0.0410097,0.0565876 -0.110668,0.0910085 -0.20534,0.0652268zm-1.6118 -0.965565c0.00523797,-0.0202522 -0.00697748,-0.0408251 -0.0271811,-0.045995 -0.0202425,-0.00522825 -0.0408056,0.00693861 -0.0460047,0.0271325 -0.036452,0.141804 0.0177935,0.246058 0.104895,0.307252 0.0429727,0.0302811 0.0939919,0.0497073 0.145633,0.0575108 0.0519327,0.00785209 0.105119,0.00425646 0.152251,-0.0115546 0.0879765,-0.0294065 0.154564,-0.0992687 0.156313,-0.213493 0.000223513,-0.0112437 -0.000359564,-0.0230801 -0.00148684,-0.0351984 -0.00533515,-0.0575302 -0.0257623,-0.114429 -0.0566167,-0.157343 -0.0337796,-0.0469765 -0.0802702,-0.078346 -0.134642,-0.0790652 -0.000826025,-0.000106897 -0.00165205,-6.80256e-005 -0.00247807,-3.88718e-005 -0.00432448,1.94359e-005 -0.00867812,0.000194359 -0.0131095,0.000680256 -0.08889,0.00831856 -0.139754,0.059017 -0.160336,0.117344 -0.00776463,0.021914 -0.0111173,0.0445956 -0.0106217,0.0663638 0.000573358,0.0220694 0.00516994,0.0436044 0.0133719,0.0627293 0.0190472,0.0445179 0.056607,0.075693 0.10785,0.0737106 0.0210199,-0.000826025 0.0373266,-0.0184058 0.0364909,-0.0393674 -0.000738563,-0.0207964 -0.0183961,-0.0370642 -0.0392702,-0.0362965 -0.0159083,0.000544205 -0.0284055,-0.0110201 -0.0355093,-0.0275989 -0.00429533,-0.010233 -0.00683171,-0.0222346 -0.00714269,-0.035072 -0.000359564,-0.0130609 0.00161318,-0.0265688 0.00604456,-0.0391536 0.0117976,-0.0331965 0.0421273,-0.062428 0.0963145,-0.0674231 0.00186584,-0.000106897 0.0036831,-0.000242948 0.00552951,-0.000233231l0.00158402 -1.94359e-005c0.0280557,0.000427589 0.0539832,0.0193095 0.0743131,0.0476373 0.0233328,0.0323899 0.0387551,0.0760234 0.0429533,0.120357 0.00066082,0.00852263 0.00115643,0.017502 0.000962076,0.0268409 -0.00115643,0.076315 -0.0456743,0.123175 -0.104439,0.142922 -0.0355871,0.0117976 -0.0764316,0.0143631 -0.116936,0.0081825 -0.0406307,-0.00613202 -0.0802022,-0.0210879 -0.113379,-0.0444304 -0.0633124,-0.0445859 -0.102447,-0.121115 -0.0753529,-0.226379zm0.98225 0.306465c-0.0167051,0.0087753 -0.0230898,0.0294065 -0.0143631,0.0461019 0.00874615,0.0166468 0.0294065,0.0230704 0.0460533,0.0143242 0.117033,-0.0613882 0.153952,-0.160803 0.142271,-0.256291 -0.00578217,-0.0471126 -0.0236729,-0.092991 -0.049785,-0.132397 -0.0260732,-0.039484 -0.0607177,-0.0729526 -0.0998713,-0.0949831 -0.0729623,-0.0410777 -0.160103,-0.0433323 -0.237642,0.0246253 -0.0076383,0.00672481 -0.0152377,0.0142368 -0.0226622,0.022361 -0.0353053,0.0383956 -0.0610675,0.0865674 -0.0711062,0.133184 -0.0110201,0.0510872 -0.00383859,0.101193 0.0285319,0.138102 0.000505333,0.000544205 0.00100095,0.00112728 0.001516,0.0016229 0.00259469,0.00286679 0.00538374,0.00566556 0.00837686,0.0083963 0.059396,0.0545274 0.124205,0.0577926 0.17572,0.0362965 0.0193484,-0.00802702 0.0366463,-0.0195525 0.0509123,-0.0330993 0.0144117,-0.0137314 0.0260441,-0.0298729 0.0338865,-0.0469085 0.0182989,-0.0397075 0.0163942,-0.0837395 -0.0159569,-0.116955 -0.0132358,-0.0135468 -0.0348874,-0.0137898 -0.0484051,-0.000553923 -0.0135177,0.0131484 -0.0137606,0.0348388 -0.000573358,0.048337 0.0100192,0.0102913 0.00977625,0.0256748 0.00298341,0.0404266 -0.00419815,0.00911543 -0.0107675,0.0180948 -0.0191832,0.0260829 -0.00854207,0.00811448 -0.0187168,0.0149559 -0.0298729,0.0196205 -0.029387,0.0122154 -0.0672384,0.00959161 -0.103457,-0.0236437 -0.00115643,-0.001137 -0.00234202,-0.00229343 -0.00351789,-0.00353733l-0.000952358 -0.00115643c-0.0166857,-0.019018 -0.0197371,-0.0477734 -0.0131095,-0.0785501 0.00760915,-0.0352081 0.0274046,-0.0719613 0.0546148,-0.101611 0.00523797,-0.00569471 0.0110493,-0.0113797 0.017366,-0.0169481 0.0518452,-0.0454702 0.110172,-0.043964 0.159005,-0.0165011 0.0293968,0.0165691 0.0558879,0.0423702 0.0762761,0.0732052 0.020466,0.0309225 0.0344598,0.0666165 0.0389203,0.102884 0.00849348,0.0693861 -0.0190763,0.141999 -0.105974,0.187566zm-0.388523 -0.749778c-0.0167051,0.0087753 -0.0230898,0.0294065 -0.0143631,0.0461019 0.00874615,0.0166468 0.0294065,0.0230704 0.0460533,0.0143242 0.117033,-0.0613882 0.153952,-0.160803 0.142271,-0.256291 -0.00578217,-0.0471126 -0.0236729,-0.092991 -0.049785,-0.132397 -0.0260732,-0.039484 -0.0607177,-0.0729526 -0.0998713,-0.0949831 -0.0729623,-0.0410777 -0.160103,-0.0433323 -0.237642,0.0246253 -0.0076383,0.00672481 -0.0152377,0.0142368 -0.0226622,0.022361 -0.0353053,0.0383956 -0.0610675,0.0865674 -0.0711062,0.133184 -0.0110201,0.0510872 -0.00383859,0.101193 0.0285319,0.138102 0.000505333,0.000544205 0.00100095,0.00112728 0.001516,0.0016229 0.00259469,0.00286679 0.00538374,0.00566556 0.00837686,0.0083963 0.059396,0.0545274 0.124205,0.0577926 0.17572,0.0362965 0.0193484,-0.00802702 0.0366463,-0.0195525 0.0509123,-0.0330993 0.0144117,-0.0137314 0.0260441,-0.0298729 0.0338865,-0.0469085 0.0182989,-0.0397075 0.0163942,-0.0837395 -0.0159569,-0.116955 -0.0132358,-0.0135468 -0.0348874,-0.0137898 -0.0484051,-0.000553923 -0.0135177,0.0131484 -0.0137606,0.0348388 -0.000573358,0.048337 0.0100192,0.0102913 0.00977625,0.0256748 0.00298341,0.0404266 -0.00419815,0.00911543 -0.0107675,0.0180948 -0.0191832,0.0260829 -0.00854207,0.00811448 -0.0187168,0.0149559 -0.0298729,0.0196205 -0.029387,0.0122154 -0.0672384,0.00959161 -0.103457,-0.0236437 -0.00115643,-0.001137 -0.00234202,-0.00229343 -0.00351789,-0.00353733l-0.000952358 -0.00115643c-0.0166857,-0.019018 -0.0197371,-0.0477734 -0.0131095,-0.0785501 0.00760915,-0.0352081 0.0274046,-0.0719613 0.0546148,-0.101611 0.00523797,-0.00569471 0.0110493,-0.0113797 0.017366,-0.0169481 0.0518452,-0.0454702 0.110172,-0.043964 0.159005,-0.0165011 0.0293968,0.0165691 0.0558879,0.0423702 0.0762761,0.0732052 0.020466,0.0309225 0.0344598,0.0666165 0.0389203,0.102884 0.00849348,0.0693861 -0.0190763,0.141999 -0.105974,0.187566zm1.2118 -0.032662c0.0067151,-0.0207186 -0.00467433,-0.0429727 -0.0253541,-0.049649 -0.0207284,-0.00668594 -0.0429436,0.00466461 -0.0496587,0.0253833 -0.0201842,0.0622628 -0.00609315,0.131425 0.0296397,0.188557 0.0219334,0.035004 0.0521659,0.065771 0.0876364,0.0876655 0.036452,0.0225456 0.0784238,0.0359078 0.122776,0.0353247 0.0615923,-0.000757999 0.126683,-0.0278808 0.186215,-0.0938267 0.066908,-0.0741187 0.0739438,-0.143544 0.0492019,-0.199062 -0.0160832,-0.0359855 -0.0456257,-0.0647409 -0.0808338,-0.0841574 -0.0337212,-0.0186779 -0.0733121,-0.0290566 -0.111095,-0.0290469 -0.0654503,1.94359e-005 -0.125915,0.0298438 -0.14815,0.0986954 -0.0217099,0.0672384 -0.00909599,0.115099 0.0193581,0.146265 0.000777435,0.000835743 0.00153543,0.00160346 0.00237118,0.00237118 0.0136537,0.0140424 0.03032,0.0240325 0.0483662,0.0301256 0.0177741,0.00598625 0.0369282,0.00840602 0.0555477,0.00756056 0.0487063,-0.0021671 0.0967226,-0.0271908 0.113943,-0.0673842 0.00854207,-0.020019 -0.000748281,-0.043206 -0.020777,-0.0517772 -0.0200092,-0.00854207 -0.0431962,0.000777435 -0.0517577,0.0208061 -0.00480066,0.0112242 -0.0239353,0.0184835 -0.0447705,0.0194359 -0.00943612,0.000398436 -0.0187848,-0.000670538 -0.027045,-0.00348874 -0.00642356,-0.00214766 -0.0121766,-0.00541289 -0.0165399,-0.00971794l-0.00100095 -0.00112728c-0.0106703,-0.0116615 -0.0141202,-0.0335172 -0.00264328,-0.0691043 0.00984427,-0.0305921 0.0398921,-0.0438473 0.0729914,-0.0438571 0.0246058,-1.94359e-005 0.0506596,0.0068803 0.0730983,0.0192707 0.0210685,0.0116324 0.0382692,0.0278419 0.0469182,0.0472486 0.0127402,0.0286096 0.00630694,0.0675688 -0.035694,0.114059 -0.0430213,0.0476471 -0.0876558,0.0672384 -0.128529,0.0677438 -0.0287943,0.000349846 -0.0563446,-0.00849348 -0.0804743,-0.02343 -0.0250723,-0.015471 -0.0465489,-0.0374141 -0.0622045,-0.0624086 -0.0241199,-0.038483 -0.0341294,-0.0836229 -0.021535,-0.122475zm-1.07236 1.0833c0.0067151,-0.0207186 -0.00467433,-0.0429727 -0.0253541,-0.049649 -0.0207284,-0.00668594 -0.0429436,0.00466461 -0.0496587,0.0253833 -0.0201842,0.0622628 -0.00609315,0.131425 0.0296397,0.188557 0.0219334,0.035004 0.0521659,0.065771 0.0876364,0.0876655 0.036452,0.0225456 0.0784238,0.0359078 0.122776,0.0353247 0.0615923,-0.000757999 0.126683,-0.0278808 0.186215,-0.0938267 0.066908,-0.0741187 0.0739438,-0.143544 0.0492019,-0.199062 -0.0160832,-0.0359855 -0.0456257,-0.0647409 -0.0808338,-0.0841574 -0.0337212,-0.0186779 -0.0733121,-0.0290566 -0.111095,-0.0290469 -0.0654503,1.94359e-005 -0.125915,0.0298438 -0.14815,0.0986954 -0.0217099,0.0672384 -0.00909599,0.115099 0.0193581,0.146265 0.000777435,0.000835743 0.00153543,0.00160346 0.00237118,0.00237118 0.0136537,0.0140424 0.03032,0.0240325 0.0483662,0.0301256 0.0177741,0.00598625 0.0369282,0.00840602 0.0555477,0.00756056 0.0487063,-0.0021671 0.0967226,-0.0271908 0.113943,-0.0673842 0.00854207,-0.020019 -0.000748281,-0.043206 -0.020777,-0.0517772 -0.0200092,-0.00854207 -0.0431962,0.000777435 -0.0517577,0.0208061 -0.00480066,0.0112242 -0.0239353,0.0184835 -0.0447705,0.0194359 -0.00943612,0.000398436 -0.0187848,-0.000670538 -0.027045,-0.00348874 -0.00642356,-0.00214766 -0.0121766,-0.00541289 -0.0165399,-0.00971794l-0.00100095 -0.00112728c-0.0106703,-0.0116615 -0.0141202,-0.0335172 -0.00264328,-0.0691043 0.00984427,-0.0305921 0.0398921,-0.0438473 0.0729914,-0.0438571 0.0246058,-1.94359e-005 0.0506596,0.0068803 0.0730983,0.0192707 0.0210685,0.0116324 0.0382692,0.0278419 0.0469182,0.0472486 0.0127402,0.0286096 0.00630694,0.0675688 -0.035694,0.114059 -0.0430213,0.0476471 -0.0876558,0.0672384 -0.128529,0.0677438 -0.0287943,0.000349846 -0.0563446,-0.00849348 -0.0804743,-0.02343 -0.0250723,-0.015471 -0.0465489,-0.0374141 -0.0622045,-0.0624086 -0.0241199,-0.038483 -0.0341294,-0.0836229 -0.021535,-0.122475zm1.13503 0.97641c0.00617089,0.020845 0.028046,0.0327592 0.048891,0.0266174 0.0208158,-0.00618061 0.0327883,-0.0280654 0.0266272,-0.0489201 -0.0184641,-0.062671 -0.0690654,-0.111776 -0.130726,-0.138675 -0.0378028,-0.0164913 -0.0800855,-0.0248196 -0.121669,-0.0228857 -0.0427589,0.00198246 -0.0848959,0.0146547 -0.121115,0.0401157 -0.0503292,0.0353441 -0.0887151,0.0943515 -0.10059,0.182328 -0.0133524,0.0988217 0.0199704,0.159986 0.0716795,0.191784 0.0335269,0.0206506 0.0740896,0.0276378 0.114069,0.023877 0.0383081,-0.00369282 0.0768106,-0.0174729 0.107937,-0.0387454 0.0539151,-0.0369087 0.0869658,-0.0955954 0.0664707,-0.164875 -0.0199995,-0.0676854 -0.0573941,-0.100017 -0.098433,-0.109638 -0.00106897,-0.000272102 -0.0021671,-0.000437307 -0.00325551,-0.000641384 -0.0191929,-0.00390661 -0.0385511,-0.00266272 -0.0568305,0.00245864 -0.0180754,0.00505333 -0.0351984,0.0138772 -0.0500571,0.0250626 -0.0389203,0.0292413 -0.0644105,0.0769661 -0.0559559,0.119793 0.00423702,0.0213406 0.0249654,0.0352178 0.0462963,0.0309419 0.0213212,-0.00423702 0.0351984,-0.0249654 0.0309614,-0.0462865 -0.00237118,-0.0119822 0.0092612,-0.0287457 0.0259372,-0.0412818 0.00756056,-0.00566556 0.0158305,-0.0100386 0.0242657,-0.0124098 0.00653046,-0.00179782 0.0130901,-0.00236146 0.0190958,-0.00129249l0.00146741 0.000388718c0.0153543,0.00359564 0.0305338,0.0196594 0.0411166,0.0554506 0.00913486,0.0308253 -0.00810476,0.0586478 -0.0354219,0.0773159 -0.0202522,0.0138675 -0.0456354,0.0228857 -0.0711256,0.0253249 -0.0238575,0.00228372 -0.0472389,-0.00137023 -0.0652657,-0.0124973 -0.0266466,-0.0163942 -0.0432837,-0.0521367 -0.0349068,-0.114157 0.00859066,-0.0635262 0.0343529,-0.104808 0.0677146,-0.128267 0.0235466,-0.0165302 0.0512427,-0.0247613 0.0795413,-0.0260829 0.0294065,-0.00137023 0.0594544,0.0046063 0.0864897,0.0163747 0.0415928,0.0181628 0.0753043,0.0497073 0.0867909,0.088822zm-0.64013 -0.382994c0.00617089,0.020845 0.028046,0.0327592 0.048891,0.0266174 0.0208158,-0.00618061 0.0327883,-0.0280654 0.0266272,-0.0489201 -0.0184641,-0.062671 -0.0690654,-0.111776 -0.130726,-0.138665 -0.0378028,-0.0164913 -0.0800855,-0.0248196 -0.121669,-0.0228857 -0.0427589,0.00198246 -0.0848959,0.0146547 -0.121115,0.0401059 -0.0503292,0.0353441 -0.0887151,0.0943515 -0.10059,0.182328 -0.0133524,0.0988217 0.0199704,0.159986 0.0716795,0.191784 0.0335269,0.0206506 0.0740896,0.0276378 0.114069,0.023877 0.0383081,-0.00369282 0.0768106,-0.0174729 0.107937,-0.0387454 0.0539151,-0.0369087 0.0869658,-0.0955954 0.0664707,-0.164875 -0.0199995,-0.0676854 -0.0573941,-0.100017 -0.098433,-0.109638 -0.00106897,-0.000272102 -0.0021671,-0.000437307 -0.00325551,-0.000641384 -0.0191929,-0.00390661 -0.0385511,-0.00266272 -0.0568305,0.00245864 -0.0180754,0.00505333 -0.0351984,0.0138772 -0.0500571,0.0250626 -0.0389203,0.0292413 -0.0644105,0.0769661 -0.0559559,0.119793 0.00423702,0.0213406 0.0249654,0.0352178 0.0462963,0.0309419 0.0213212,-0.00423702 0.0351984,-0.0249654 0.0309614,-0.0462865 -0.00237118,-0.0119822 0.0092612,-0.0287457 0.0259372,-0.0412818 0.00756056,-0.00566556 0.0158305,-0.0100386 0.0242657,-0.0124098 0.00653046,-0.00179782 0.0130901,-0.00236146 0.0190958,-0.00129249l0.00146741 0.000388718c0.0153543,0.00359564 0.0305338,0.0196594 0.0411166,0.0554506 0.00913486,0.0308253 -0.00810476,0.0586478 -0.0354219,0.0773159 -0.0202522,0.0138675 -0.0456354,0.0228857 -0.0711256,0.0253249 -0.0238575,0.00228372 -0.0472389,-0.00137023 -0.0652657,-0.0124973 -0.0266466,-0.0163942 -0.0432837,-0.0521367 -0.0349068,-0.114157 0.00859066,-0.0635262 0.0343529,-0.104808 0.0677146,-0.128267 0.0235466,-0.0165302 0.0512427,-0.0247613 0.0795413,-0.0260829 0.0294065,-0.00137023 0.0594544,0.0046063 0.0864897,0.0163747 0.0415928,0.0181628 0.0753043,0.0497073 0.0867909,0.088822zm0.644659 -1.18031c0.0186876,0.0110785 0.0428367,0.00489784 0.0539151,-0.0137995 0.0110785,-0.0186876 0.00489784,-0.0428464 -0.0137995,-0.0539248 -0.0562086,-0.0333422 -0.126693,-0.0348485 -0.19017,-0.0125847 -0.0389106,0.0136537 -0.0755375,0.0363451 -0.104691,0.0660917 -0.0299604,0.0305532 -0.0521951,0.0685115 -0.0613979,0.111824 -0.0127888,0.0601638 -0.000699692,0.129521 0.050475,0.202026 0.057501,0.0814752 0.123564,0.103574 0.183086,0.091679 0.0385997,-0.00771604 0.0730983,-0.0302034 0.0997741,-0.0601929 0.0255873,-0.0287748 0.0443818,-0.0650908 0.0526809,-0.101873 0.0143825,-0.0637594 -0.00137995,-0.12921 -0.063565,-0.166012 -0.0606982,-0.0359175 -0.110133,-0.0341586 -0.146721,-0.0132844 -0.000981512,0.000553923 -0.00191443,0.001137 -0.00282792,0.00176866 -0.0167149,0.0101941 -0.0300381,0.0242754 -0.0399602,0.0404947 -0.00979568,0.0159957 -0.0163164,0.0341197 -0.0195914,0.0524283 -0.00859066,0.0479289 0.00521853,0.100221 0.0405627,0.125847 0.0176381,0.0127305 0.0422633,0.0087753 0.0549938,-0.00886276 0.0127402,-0.0176283 0.00878502,-0.0422633 -0.00885304,-0.0549938 -0.00990258,-0.00717184 -0.0127791,-0.0273852 -0.00909599,-0.0479094 0.00165205,-0.00927091 0.00477151,-0.018124 0.0093195,-0.0255582 0.00353733,-0.00579189 0.00796871,-0.01068 0.0130998,-0.0139841l0.00133136 -0.000719127c0.013712,-0.00781322 0.035762,-0.0063944 0.0678992,0.0126333 0.0276475,0.0163456 0.0339739,0.0484828 0.0266855,0.0807366 -0.00539346,0.0239547 -0.0178324,0.0478317 -0.0348582,0.0669566 -0.0159277,0.0179296 -0.0355288,0.0311654 -0.0563155,0.035315 -0.0306893,0.00613202 -0.0671898,-0.00872671 -0.103273,-0.0598431 -0.0369768,-0.0523894 -0.0462282,-0.100153 -0.0377348,-0.140084 0.00597653,-0.0281237 0.0206506,-0.0530114 0.0404752,-0.0732344 0.0206215,-0.0210393 0.0466947,-0.037142 0.0745074,-0.0468988 0.0428172,-0.0150239 0.0889774,-0.014849 0.124049,0.0059571z"/>
   <polygon id="_208911728" class="fil1" points="4.77174,6.77095 5.98961,7.05041 4.8046,7.0338 "/>
   <polygon id="_208914848" class="fil1" points="9.52944,3.88546 9.86083,4.14056 9.98903,4.47634 9.98378,4.04636 9.66621,3.71586 "/>
   <path id="_208914944" class="fil1" d="M9.81122 3.47406l0.387765 0.316766 -0.273074 -0.445111c0,0 -0.117422,0.125614 -0.114691,0.128345z"/>
  </g>
 </g>
</svg>
