<?xml version="1.0" encoding="UTF-8"?>
<!DOCTYPE svg PUBLIC "-//W3C//DTD SVG 1.1//EN" "http://www.w3.org/Graphics/SVG/1.1/DTD/svg11.dtd">
<!-- Creator: CorelDRAW -->
<svg xmlns="http://www.w3.org/2000/svg" xml:space="preserve" width="161.909mm" height="176.792mm" style="shape-rendering:geometricPrecision; text-rendering:geometricPrecision; image-rendering:optimizeQuality; fill-rule:evenodd; clip-rule:evenodd"
viewBox="0 0 20.8772 22.7963"
 xmlns:xlink="http://www.w3.org/1999/xlink">
 <defs>
  <style type="text/css">
   <![CDATA[
    .fil0 {fill:none}
    .fil6 {fill:#4B344A}
    .fil1 {fill:#501D33}
    .fil12 {fill:#525B75}
    .fil5 {fill:#634A5B}
    .fil11 {fill:#65798E}
    .fil7 {fill:#816372}
    .fil8 {fill:#86555D}
    .fil9 {fill:#A57E72}
    .fil4 {fill:#D77D75}
    .fil2 {fill:#FFCFA5}
    .fil3 {fill:white}
    .fil10 {fill:#501D33;fill-rule:nonzero}
   ]]>
  </style>
 </defs>
 <g id="Layer_x0020_1">
  <metadata id="CorelCorpID_0Corel-Layer"/>
  <g id="_167412432">
   <rect id="_119805880" class="fil0" width="20.8772" height="22.7963"/>
   <path id="_119805808" class="fil1" d="M4.75032 9.9229l0.619138 -0.105438 -0.0268204 -0.120589 -0.61545 0.0532153c0,0 -0.0227844,0.0839169 0.0231326,0.172811zm-2.29438 1.6775c0.0094645,0.0377162 -0.013436,0.0760126 -0.0511521,0.0855029 -0.0377033,0.0094774 -0.0760126,-0.0134231 -0.08549,-0.0511393 -0.00949029,-0.0377033 0.0134231,-0.0760126 0.0511393,-0.08549 0.0377033,-0.00949029 0.0760126,0.0134231 0.0855029,0.0511264zm-0.439867 -2.07376l-0.619138 -0.105451 0.0268204 -0.120589 0.61545 0.0532153c0,0 0.0227844,0.0839169 -0.0231326,0.172824zm-0.20564 0.999846l-0.418927 0.0280711 -0.0013797 -0.0825887 0.408392 -0.0614419c0,0 0.0279035,0.0509974 0.0119144,0.115959zm0.115792 1.07831l-0.475185 0.142354 -0.0232873 -0.0947611 0.45427 -0.17802c0,0 0.0455431,0.0513971 0.0442021,0.130427zm0.132954 -1.34236l-0.703945 -0.0711127 0.0209147 -0.137596 0.695808 0.012701c0,0 0.0320426,0.092569 -0.0127784,0.196008zm2.64802 0.396284l0.703945 -0.0711127 -0.0209147 -0.137596 -0.695808 0.0126881c0,0 -0.0320426,0.0925819 0.0127784,0.196021zm0.166428 0.315707l0.495906 0.0119789 -0.0025402 -0.0975462 -0.485139 -0.0519c0,0 -0.0303792,0.0616095 -0.00822664,0.137467z"/>
   <path id="_119543888" class="fil1" d="M5.70328 2.36477c-2.15289,0.966024 -3.91761,4.70034 -4.07487,6.66735 -0.180187,2.25342 -0.15227,3.62477 1.16208,6.37775 0,0 0.285843,0.586928 1.26263,0.349258 0.440473,0.0373164 0.87731,-0.116024 1.08644,-0.415948 0.0050804,-0.00728534 0.549521,-0.0850258 0.81151,-0.340052 0.118835,-0.115689 0.194332,-0.218547 0.151613,-0.429036 -0.0559231,-0.275579 -0.138486,-0.613026 -0.138486,-0.613026 0,0 0.485797,-0.484288 0.406251,-0.690315 -0.0795456,-0.206027 -1.07294,-1.06695 -1.07459,-1.0752 -0.681663,-3.1257 -0.0132168,-5.79206 1.77256,-7.94576l1.43474 -1.89975c-0.720759,-0.212809 -2.0355,-0.328266 -2.79987,0.0147125l-1.28944e-005 1.28944e-005z"/>
   <path id="_119543816" class="fil2" d="M5.91984 5.30006l2.09713 -2.90171c-1.42831,-0.0630279 -2.24919,-0.00113471 -3.28879,1.06507 -1.47856,1.51643 -2.54167,3.8039 -2.8063,5.92126 -0.26627,2.1312 0.140381,3.99992 1.12677,5.93219 0,0 0.119763,0.352662 0.874473,0.265419 0,0 -0.219489,-0.388328 -0.204621,-0.421841 0.0148802,-0.0335513 0.382474,0.390172 0.382474,0.390172 0,0 0.464379,0.00168917 0.843566,-0.325481 0,0 0.00154733,-0.524583 0.0344539,-0.523384 0.0329065,0.00119918 0.138422,0.388406 0.138422,0.388406l0.495855 -0.130943c0.226529,-0.106508 0.297332,-0.123425 0.235813,-0.403995 -0.0469615,-0.214331 -0.12545,-0.575826 -0.298029,-1.18269 0.0476191,-0.0561294 0.162882,0.207445 0.247276,0.352275 0,0 0.271466,-0.299756 0.259835,-0.401906 -0.0115663,-0.102188 -0.962233,-0.841245 -0.962233,-0.841245 -0.768223,-2.41042 -0.24863,-5.28968 0.823902,-7.18157l0 -2.57888e-005z"/>
   <path id="_119543744" class="fil3" d="M5.48793 3.05604c-0.277165,0.160703 -0.553196,0.381559 -0.846634,0.682501 -1.47856,1.51643 -2.45479,3.52878 -2.71942,5.64613 -0.26627,2.1312 0.140381,3.99992 1.12677,5.93219 0,0 0.0102124,0.0297861 0.0431318,0.0699393 0.217993,-0.0304308 0.4385,-0.0799067 0.65474,-0.141297 -0.0198574,-0.0436347 -0.0318879,-0.0763478 -0.0280196,-0.0850645 0.00440989,-0.00995449 0.0399082,0.0202958 0.0875918,0.0678246 0.420513,-0.124018 0.822161,-0.290808 1.15383,-0.447011 0.00474514,-0.0480317 0.0109474,-0.0798035 0.0190708,-0.079507 0.00733692,0.000270783 0.0172269,0.022591 0.0281227,0.0571223 0.436992,-0.208593 0.742641,-0.393189 0.792955,-0.42402l-0.00043841 -0.00192127c-0.966462,0.332031 -2.59817,0.498202 -2.59817,0.498202 -2.20158,-4.52902 -0.762176,-9.0836 2.28648,-11.7751l0 -1.28944e-005 0 -1.28944e-005z"/>
   <path id="_119544464" class="fil4" d="M5.91984 5.30006l0.05239 -0.0724924c-0.0137841,-0.00774954 -0.0274135,-0.0163243 -0.0413266,-0.0231326 0,0 -3.69537,4.19142 -0.139892,9.66346 0.0816216,-0.0570707 0.0987196,-0.127307 0.0580764,-0.312677 -0.0469615,-0.214331 -0.12545,-0.575826 -0.298029,-1.18269 0.0476191,-0.0561294 0.162882,0.207445 0.247276,0.352275 0,0 0.271466,-0.299756 0.259835,-0.401906 -0.0115663,-0.102188 -0.962233,-0.841245 -0.962233,-0.841245 -0.768223,-2.41042 -0.24863,-5.28968 0.823902,-7.18157l0 -2.57888e-005z"/>
   <path id="_119543312" class="fil1" d="M2.4841 8.00775c-0.962684,-0.108648 -1.211,0.952897 -0.36165,1.30816l0.36165 -1.30816z"/>
   <path id="_119543600" class="fil2" d="M2.12263 9.32141c-0.313953,-0.489266 -0.321974,-1.03003 0.361276,-1.32134 0,0 0.194409,0.959538 -0.361276,1.32134z"/>
   <path id="_119543528" class="fil3" d="M2.15525 9.36184c-0.380114,-0.484417 -0.384421,-1.08268 0.353449,-1.37598 -0.293245,0.196098 -0.535208,0.818047 -0.340348,1.33599l-0.0131007 0.0399856z"/>
   <path id="_119543456" class="fil3" d="M2.44585 8.18883c0.0839813,0.0522224 0.0830787,0.205537 -0.00199863,0.342347 -0.0851031,0.136823 -0.222209,0.205421 -0.306191,0.153199 -0.0839684,-0.0522224 -0.0830658,-0.205537 0.00202442,-0.34236 0.0850902,-0.13681 0.222197,-0.205408 0.306165,-0.153186z"/>
   <path id="_119543096" class="fil2" d="M5.88001 13.3273c0,0 -0.155803,-0.322476 -0.55437,-0.525383 -0.398566,-0.202907 0.275373,0.53263 0.55437,0.525383z"/>
   <path id="_119543024" class="fil4" d="M3.00611 15.2324c0.014042,0.0281743 0.0281872,0.0563744 0.0425387,0.0844584 0,0 0.119763,0.352649 0.874422,0.265406 0,0 -0.219437,-0.388302 -0.20457,-0.421867 0.0148673,-0.0335642 0.3825,0.390275 0.3825,0.390275 0,0 0.464354,0.0016247 0.843514,-0.325584 0,0 0.00154733,-0.524609 0.0344797,-0.52341 0.0329194,0.00119918 0.113084,0.428378 0.113084,0.428378 0.255748,-0.0340284 0.549405,-0.127268 0.721752,-0.279976 0.061674,-0.0546336 0.071809,-0.128351 0.0352662,-0.294921 -0.0156796,-0.0714608 -0.0348149,-0.159336 -0.0598043,-0.267134 -1.43151,0.643083 -2.34654,0.867072 -2.78318,0.944374z"/>
   <path id="_88446128" class="fil4" d="M3.08532 8.47899c0,0 0,0.479131 -0.6461,0.740475 0,0 0.428314,-0.0145191 0.609803,-0.188748 0.181489,-0.174229 0.0362978,-0.551726 0.0362978,-0.551726z"/>
   <path id="_119541680" class="fil1" d="M6.56464 11.7767c-0.378438,-2.32049 -0.606592,-6.23201 -0.837479,-8.04176 0.409191,-1.68487 3.62774,-1.16822 4.72414,-0.940325 1.0964,-0.227896 4.31497,-0.744549 4.72414,0.940325 -0.230887,1.80977 -0.466352,5.71404 -0.84479,8.03452 -2.05929,0.783129 -5.70668,0.790376 -7.76605,0.00725956l1.28944e-005 0 2.57888e-005 -2.57888e-005z"/>
   <path id="_119542880" class="fil1" d="M16.2072 10.0609l-0.619138 -0.105438 0.0268204 -0.120589 0.61545 0.0532153c0,0 0.0227844,0.0839169 -0.0231326,0.172811zm2.29438 1.6775c-0.0094645,0.0377162 0.013436,0.0760126 0.0511521,0.0855029 0.0377033,0.0094774 0.0760126,-0.0134231 0.08549,-0.0511393 0.00949029,-0.0377033 -0.0134231,-0.0760126 -0.0511393,-0.08549 -0.0377033,-0.00949029 -0.0760126,0.0134231 -0.0855029,0.0511264zm0.439867 -2.07376l0.619138 -0.105451 -0.0268204 -0.120589 -0.61545 0.0532153c0,0 -0.0227844,0.0839169 0.0231326,0.172824zm0.20564 0.999859l0.418927 0.0280711 0.0013797 -0.0825887 -0.408392 -0.0614419c0,0 -0.0279035,0.0509974 -0.0119144,0.115959zm-0.115792 1.07831l0.475185 0.142354 0.0232873 -0.0947611 -0.45427 -0.17802c0,0 -0.0455431,0.0513971 -0.0442021,0.130427zm-0.132967 -1.34236l0.703945 -0.0711127 -0.0209147 -0.137596 -0.695808 0.012701c0,0 -0.0320426,0.092569 0.0127784,0.196008zm-2.64801 0.396271l-0.703945 -0.0711127 0.0209147 -0.137596 0.695808 0.0126881c0,0 0.0320426,0.0925819 -0.0127784,0.196021zm-0.166428 0.315707l-0.495906 0.0119789 0.0025402 -0.0975462 0.485139 -0.0519c0,0 0.0303792,0.0616095 0.00822664,0.137467z"/>
   <path id="_119542808" class="fil1" d="M15.2034 2.35759c2.15289,0.966024 3.91761,4.70034 4.07487,6.66735 0.180187,2.2534 0.130491,3.64655 -1.18386,6.39952 0,0 -0.296713,0.554318 -1.2735,0.316648 -0.454967,0.042745 -0.859194,-0.135959 -1.06833,-0.408701 -0.00540276,-0.00705325 -0.534989,-0.0814411 -0.796978,-0.336467 -0.118835,-0.115689 -0.194332,-0.218547 -0.151613,-0.429036 0.0559231,-0.275579 0.138486,-0.613026 0.138486,-0.613026 0,0 -0.485797,-0.484288 -0.406251,-0.690315 0.0795456,-0.206027 1.07294,-1.06695 1.07459,-1.0752 0.681663,-3.1257 0.0132168,-5.79206 -1.77256,-7.94576l-1.43474 -1.89975c0.720759,-0.212809 2.0355,-0.328266 2.79987,0.0147125l1.28944e-005 1.28944e-005z"/>
   <path id="_119542736" class="fil2" d="M14.9868 5.29291l-2.09713 -2.90171c1.42831,-0.0630279 2.24919,-0.00113471 3.28879,1.06507 1.47856,1.51643 2.54167,3.8039 2.8063,5.92126 0.26627,2.1312 -0.140381,3.99992 -1.12677,5.93219 0,0 -0.119763,0.352662 -0.874473,0.265419 0,0 0.219489,-0.388328 0.204621,-0.421841 -0.0148802,-0.0335513 -0.382474,0.390172 -0.382474,0.390172 0,0 -0.464379,0.00168917 -0.843566,-0.325481 0,0 -0.00154733,-0.524583 -0.0344539,-0.523384 -0.0329065,0.00119918 -0.138422,0.388406 -0.138422,0.388406l-0.495855 -0.130943c-0.226529,-0.106508 -0.297332,-0.123425 -0.235813,-0.403995 0.0469615,-0.214331 0.12545,-0.575826 0.298029,-1.18269 -0.0476191,-0.0561294 -0.162882,0.207445 -0.247276,0.352275 0,0 -0.271466,-0.299756 -0.259835,-0.401906 0.0115663,-0.102188 0.962233,-0.841245 0.962233,-0.841245 0.768223,-2.41042 0.24863,-5.28968 -0.823902,-7.18157l0 -2.57888e-005z"/>
   <path id="_119543168" class="fil4" d="M14.9868 5.29291l-0.05239 -0.0724924c0.0137841,-0.00774954 0.0274135,-0.0163243 0.0413266,-0.0231326 0,0 3.69537,4.19142 0.139892,9.66346 -0.0816216,-0.0570707 -0.0987196,-0.127307 -0.0580764,-0.312677 0.0469615,-0.214331 0.12545,-0.575826 0.298029,-1.18269 -0.0476191,-0.0561294 -0.162882,0.207445 -0.247276,0.352275 0,0 -0.271466,-0.299756 -0.259835,-0.401906 0.0115663,-0.102188 0.962233,-0.841245 0.962233,-0.841245 0.768223,-2.41042 0.24863,-5.28968 -0.823902,-7.18157l0 -2.57888e-005z"/>
   <path id="_119542664" class="fil5" d="M15.877 7.68594c-0.194448,-0.779957 -0.50724,-1.61286 -0.990729,-2.4657l-2.09713 -2.90171c1.42831,-0.0630279 2.24919,-0.00113471 3.28879,1.06507 0.926528,0.950267 1.68995,2.2034 2.19606,3.52763 -0.830233,0.194809 -1.74111,0.5198 -2.39698,0.774709z"/>
   <path id="_119542592" class="fil6" d="M15.877 7.68594c-0.194448,-0.77997 -0.507176,-1.61286 -0.990665,-2.4657l-0.0436734 -0.0604232c0.711965,0.726987 1.18284,1.53106 1.47369,2.35974 -0.155494,0.0573028 -0.302903,0.113342 -0.439351,0.166377z"/>
   <path id="_119542520" class="fil5" d="M6.84684 11.6452c-0.374957,-2.45287 -0.650807,-5.19793 -0.806765,-7.6424 0.319653,-1.31621 2.36349,-1.98103 4.40852,-1.98464l0 -3.86832e-005 0.00268204 1.28944e-005 0.00268204 -1.28944e-005 0 3.86832e-005c2.04503,0.00361044 4.08886,0.668434 4.40852,1.98464 -0.155958,2.44448 -0.431808,5.1895 -0.806765,7.6424 -1.99544,0.629273 -5.21343,0.629299 -7.20891,1.28944e-005l0 -1.28944e-005 2.57888e-005 0z"/>
   <polygon id="_119541704" class="fil7" points="8.74877,10.0731 7.01953,9.28193 12.2002,9.98652 "/>
   <path id="_119541992" class="fil6" d="M9.30742 6.34903l0 2.38112 0.290382 0.297655 0.834849 0.108893 0.805798 -0.0798551c0,0 0.275863,-0.0508169 0.312161,-0.290382l0 -2.46099c0,0 -2.10526,-0.0362978 -2.24319,0.0435573z"/>
   <polygon id="_121124376" class="fil7" points="11.7787,8.17002 13.4499,8.2717 14.1911,7.6759 "/>
   <path id="_119542376" class="fil6" d="M6.84679 11.6452c-0.303302,-1.98406 -0.541681,-4.1593 -0.704267,-6.21203 0.0197413,-0.0919501 0.0373938,-0.145862 0.0523384,-0.151574l0.915516 6.17609c0.0437508,-0.104329 2.59131,0.837196 6.63722,-0.0406948l1.03207 -6.32039c0,0 -0.000154733,0.143773 -0.0139389,0.264877 -0.162689,2.07369 -0.403105,4.27652 -0.709928,6.28367 -1.99546,0.629286 -5.21352,0.629312 -7.20896,1.28944e-005l-2.57888e-005 1.28944e-005 -2.57888e-005 2.57888e-005z"/>
   <polygon id="_119542304" class="fil6" points="6.51551,7.84978 13.5514,9.85573 6.67545,9.07085 "/>
   <path id="_119542232" class="fil1" d="M14.1657 11.0901c0,0 -0.640504,0.370237 -1.17182,0.479131 0,0 0.494926,-0.0145191 1.23732,-0.210527l0.0946192 -0.203268 -0.160123 -0.065336z"/>
   <path id="_119544176" class="fil1" d="M6.76935 11.1554c0,0 0.640504,0.370237 1.17183,0.479131 0,0 -0.494939,-0.0145191 -1.23734,-0.210527l-0.0946192 -0.203268 0.160123 -0.065336z"/>
   <path id="_119681384" class="fil4" d="M4.77491 8.59825c0.0434284,-0.307351 0.103942,-0.626591 0.185783,-0.955399 -0.58364,-0.215917 -1.50885,-0.5198 -2.44986,-0.673965 -0.128029,0.3445 -0.234872,0.693333 -0.326087,1.04245 1.03309,-0.00011605 2.0481,0.407464 2.59017,0.586915z"/>
   <path id="_122988168" class="fil5" d="M5.0296 7.69312c0.194448,-0.779957 0.50724,-1.61286 0.990729,-2.4657l2.09713 -2.90171c-1.42831,-0.0630279 -2.24919,-0.00113471 -3.28879,1.06507 -0.926528,0.950267 -1.68995,2.2034 -2.19606,3.52763 0.830233,0.194809 1.74111,0.5198 2.39698,0.774709z"/>
   <path id="_119682560" class="fil7" d="M3.00794 6.72638c0.492979,-1.21679 1.26622,-2.51427 2.38509,-3.83316 -1.17847,0.750352 -2.04415,2.17128 -2.62759,3.4902 0.0628732,0.208103 0.228051,0.362423 0.228051,0.362423 0.00468067,-0.00656326 0.00951608,-0.0130105 0.0144417,-0.0194577z"/>
   <path id="_119544032" class="fil6" d="M5.03834 7.65829c0.0452207,-0.178523 0.0966694,-0.35978 0.154952,-0.543384 -0.438384,-0.346718 -1.30124,-0.841103 -2.30642,-0.996584 -0.123967,0.262427 -0.238057,0.529754 -0.341367,0.800073 0.811059,0.190309 1.78616,0.504868 2.4382,0.756941 0.0183101,-0.00567354 0.0365041,-0.0113471 0.0546336,-0.0170464z"/>
   <path id="_119680376" class="fil6" d="M5.02965 7.69312c0.194448,-0.77997 0.507176,-1.61286 0.990665,-2.4657l0.0436734 -0.0604232c-0.711965,0.726987 -1.18284,1.53106 -1.47369,2.35974 0.155494,0.0573028 0.302903,0.113342 0.439351,0.166377z"/>
   <path id="_123967888" class="fil1" d="M5.14295 8.6534c0,0 -1.46276,-0.933349 -3.29305,-0.934845 0,0 -0.0275683,-0.782549 0.464792,-1.41127 0,0 1.68553,0.0841876 3.14261,1.41917 0,0 -0.093665,0.465901 -0.314353,0.926941z"/>
   <path id="_123967816" class="fil5" d="M4.96347 8.30059c-0.0242673,-0.0131523 -0.0485217,-0.0260596 -0.0724666,-0.038709 -0.219502,-0.115921 -0.446495,-0.218586 -0.676312,-0.308847 -0.65425,-0.256999 -1.35238,-0.419855 -2.05114,-0.446379 0.00814927,-0.0744652 0.0205666,-0.148969 0.0337705,-0.213467 0.0517324,-0.25255 0.146635,-0.494694 0.28997,-0.70312 0.055562,0.00625379 0.111537,0.0148544 0.164842,0.0234678 0.225098,0.0364009 0.44928,0.0912796 0.667608,0.159813 0.659369,0.206994 1.28118,0.546053 1.81337,1.01064 -0.0421776,0.170503 -0.102407,0.351515 -0.169639,0.516602z"/>
   <path id="_123967744" class="fil7" d="M2.17958 7.50731l-0.0160535 -0.00067051c0.00817506,-0.0744652 0.0205666,-0.148956 0.0337705,-0.213441 0.0517453,-0.252563 0.146648,-0.49472 0.28997,-0.703132 0.055562,0.00626669 0.111537,0.0148544 0.164842,0.0234678 0.225098,0.0364009 0.44928,0.0912538 0.667608,0.159813 0.579049,0.181785 1.12913,0.465463 1.61499,0.846518 -0.011966,0.0169175 -0.0245768,0.0337447 -0.0385027,0.050443 0,0 -1.22551,-0.762253 -2.26039,-0.791292 0,0 -0.239901,0.226813 -0.45623,0.628293z"/>
   <path id="_123967672" class="fil6" d="M4.96347 8.30059c-0.0242673,-0.0131523 -0.0485217,-0.0260467 -0.0724666,-0.0386961 -0.219515,-0.115934 -0.446508,-0.218599 -0.676299,-0.30886 -0.0320297,-0.0125849 -0.0641368,-0.0248991 -0.0963729,-0.0370199 0.12995,-0.245677 0.222042,-0.491148 0.278893,-0.663379 0.259242,0.153353 0.505912,0.330613 0.735884,0.531366 -0.0421776,0.170477 -0.102382,0.351502 -0.169639,0.516589z"/>
   <path id="_123967600" class="fil1" d="M5.25115 8.00319c0,0 -0.684668,-0.463477 -1.48522,-0.572396 0,0 0.599075,0.2031 1.42295,0.842108l0.0622671 -0.269712z"/>
   <path id="_120416080" class="fil6" d="M8.95542 6.41865c-0.313257,-0.011115 -0.626527,-0.0247831 -0.939023,-0.0504687 -0.236174,-0.0193932 -0.52947,-0.038348 -0.745993,-0.139492 -0.317203,-0.148157 -0.494656,-0.543925 -0.630047,-0.854655 -0.154166,-0.3539 -0.286643,-0.717239 -0.414968,-1.0818 -0.183191,-0.520509 -0.356028,-1.0449 -0.518523,-1.57271l-0.0280582 -0.0911764c0.436231,-0.219953 1.90098,-0.79623 5.24112,-0.772685 2.37667,0.0167498 3.62661,0.40513 4.25927,0.731242l-0.0469357 0.152219c-0.160729,0.521166 -0.331554,1.03904 -0.512476,1.55313 -0.128338,0.364551 -0.260802,0.727877 -0.414955,1.08178 -0.135391,0.310717 -0.312844,0.706498 -0.630047,0.854642 -0.216523,0.101144 -0.509806,0.120099 -0.745993,0.139505 -0.312509,0.0256857 -0.625792,0.0393666 -0.939062,0.0504687 -0.978351,0.0347118 -1.95595,0.0347118 -2.9343,0z"/>
   <path id="_119804728" class="fil1" d="M9.83903 5.54972l1.17998 0c0.245458,0 0.446276,0.200818 0.446276,0.446276l0 2.53147c0,0.245458 -0.200818,0.446276 -0.446276,0.446276l-1.17998 0c-0.245458,0 -0.446276,-0.200818 -0.446276,-0.446276l0 -2.53147c0,-0.245458 0.200818,-0.446276 0.446276,-0.446276z"/>
   <path id="_119804656" class="fil1" d="M6.37576 2.17743c0.712584,-0.182907 4.29162,-0.999021 8.13407,-0.0450015 0.077302,0.0251054 0.150065,0.0504945 0.218715,0.0760642l-1.82399 0.599191 -6.64204 -0.59442c0.0361688,-0.0118371 0.0740397,-0.0237902 0.113239,-0.0358336l1.28944e-005 0z"/>
   <path id="_122970936" class="fil1" d="M8.95542 6.23717c-0.313257,-0.011115 -0.626527,-0.0247831 -0.939023,-0.0504687 -0.236174,-0.0193932 -0.52947,-0.038348 -0.745993,-0.139492 -0.317203,-0.148157 -0.494656,-0.543925 -0.630047,-0.854655 -0.154166,-0.3539 -0.286643,-0.717239 -0.414968,-1.0818 -0.183191,-0.520509 -0.356028,-1.0449 -0.518523,-1.57271l-0.0280582 -0.0911764c0.436231,-0.219953 1.90098,-0.79623 5.24112,-0.772685 2.37667,0.0167498 3.62661,0.40513 4.25927,0.731242l-0.0469357 0.152219c-0.160729,0.521166 -0.331554,1.03904 -0.512476,1.55313 -0.128338,0.364551 -0.260802,0.727877 -0.414955,1.08178 -0.135391,0.310717 -0.312844,0.706498 -0.630047,0.854642 -0.216523,0.101144 -0.509806,0.120099 -0.745993,0.139505 -0.312509,0.0256857 -0.625792,0.0393666 -0.939062,0.0504687 -0.978351,0.0347118 -1.95595,0.0347118 -2.9343,0z"/>
   <path id="_129326824" class="fil8" d="M8.98384 6.0688c-0.306191,-0.01087 -0.61242,-0.0241899 -0.917863,-0.0492953 -0.211404,-0.0173688 -0.500793,-0.0367878 -0.692069,-0.126133 -0.274251,-0.128093 -0.439132,-0.50492 -0.557206,-0.775921 -0.15031,-0.345055 -0.279499,-0.699586 -0.404614,-1.05505 -0.179581,-0.510219 -0.349039,-1.02433 -0.508298,-1.54169 1.45873,-0.49619 7.23948,-0.678272 9.03136,0.0191998 -0.157544,0.51089 -0.325004,1.01859 -0.502366,1.52251 -0.125115,0.355447 -0.254304,0.709979 -0.404614,1.05503 -0.118074,0.271002 -0.282955,0.647828 -0.557193,0.775909 -0.191289,0.0893583 -0.480678,0.108777 -0.692069,0.126146 -0.305469,0.0251054 -0.611698,0.0384383 -0.917902,0.0492953 -0.197426,0.00700167 -0.393679,0.0125463 -0.589159,0.0166983l0 2.4465c0,0.136591 -0.11378,0.248346 -0.252859,0.248346l-1.17998 0c-0.139079,0 -0.252859,-0.111756 -0.252859,-0.248346l0 -2.44621c-0.199863,-0.00417779 -0.400423,-0.00981265 -0.602311,-0.0169819l-1.28944e-005 0 1.28944e-005 0z"/>
   <path id="_119804944" class="fil9" d="M8.04422 5.92518c-0.211404,-0.0173688 -0.479053,-0.0150478 -0.670329,-0.104393 -0.274251,-0.128093 -0.439132,-0.50492 -0.557206,-0.775921 -0.15031,-0.345055 -0.279499,-0.626991 -0.404614,-0.982451 -0.179581,-0.510219 -0.349039,-1.02433 -0.508298,-1.54169 1.45873,-0.49619 7.23948,-0.678272 9.03136,0.0191998 -0.157544,0.51089 -0.325004,1.01859 -0.502366,1.52251 -0.125115,0.355447 -0.254304,0.709979 -0.404614,1.05503 -0.118074,0.271002 -0.333772,0.560714 -0.60801,0.688794 -0.191289,0.0893583 -0.480678,0.108777 -0.692069,0.126146 -0.512617,0.0421261 -1.01653,0.037007 -1.5288,0.047877l-0.0144031 2.45027c-0.000786559,0.136474 -0.113883,0.246864 -0.252859,0.248346l-1.01331 0.01087c-0.138963,0.00148286 -0.252279,-0.111756 -0.252859,-0.248346l-0.0107797 -2.46812c-0.526892,-0.0110118 -1.08316,-0.00475804 -1.61085,-0.048122l-1.28944e-005 0 1.28944e-005 0z"/>
   <path id="_119804872" class="fil1" d="M14.6376 2.44211c-0.15601,0.505925 -0.322915,1.01186 -0.498318,1.51019 -0.121891,0.346305 -0.249507,0.69684 -0.395897,1.03291 -0.0746973,0.171457 -0.22738,0.533287 -0.401145,0.614445 -0.13904,0.0649492 -0.434026,0.0858381 -0.58814,0.0985004 -0.300259,0.0246799 -0.60284,0.0377935 -0.90386,0.0484701 -0.965456,0.0342605 -1.89026,0.0342605 -2.85571,0 -0.300994,-0.0106895 -0.603588,-0.0237902 -0.903834,-0.0484701 -0.154114,-0.0126623 -0.4491,-0.0335513 -0.58814,-0.0985004 -0.173765,-0.0811574 -0.326435,-0.442988 -0.401145,-0.614445 -0.14639,-0.336067 -0.274006,-0.686602 -0.395897,-1.03291 -0.177608,-0.504584 -0.346512,-1.01697 -0.504197,-1.52924 0.993889,-0.215453 5.143,-1.00536 8.43629,0.0190451z"/>
   <path id="_119804800" class="fil2" d="M6.38614 2.38415c0.17098,0.549857 0.918882,2.91094 1.19366,3.03929 0.280479,0.131007 2.39393,0.1557 2.80742,0.159298l0 0.00055446 0.0351889 -0.000257888 0.0352146 0.000257888 0 -0.00055446c0.413588,-0.00359754 2.52693,-0.0282903 2.80741,-0.159298 0.274109,-0.128042 1.01907,-2.47815 1.19239,-3.03533 -3.08581,-0.890862 -6.84697,-0.254652 -8.0713,-0.00395859l1.28944e-005 0z"/>
   <path id="_129341680" class="fil4" d="M6.39807 2.39258c0,0 0.828363,2.56483 3.90914,2.59389 3.08077,0.029064 4.13435,-2.61574 4.13435,-2.61574 0,0 -3.43903,-1.06797 -8.04352,0.0218431l3.86832e-005 0z"/>
   <path id="_119805160" class="fil4" d="M6.38614 2.38415c0.17098,0.549857 0.918882,2.91094 1.19366,3.03929 0.280479,0.131007 2.39393,0.1557 2.80742,0.159298l0 0.00055446 0.0351889 -0.000257888 0.0352146 0.000257888 0 -0.00055446c0.413588,-0.00359754 2.52693,-0.0282903 2.80741,-0.159298 0.274109,-0.128042 1.01907,-2.47815 1.19239,-3.03533 -0.0307403,-0.00887136 -0.0616611,-0.0173301 -0.0925303,-0.0259049 -0.263846,0.828737 -0.860831,2.62988 -1.09985,2.74153 -0.280479,0.131007 -2.39382,0.1557 -2.80741,0.159298l0 0.00055446 -0.0352146 -0.000257888 -0.0351889 0.000257888 0 -0.00055446c-0.413498,-0.00359754 -2.52694,-0.0282903 -2.80742,-0.159298 -0.238766,-0.111524 -0.834733,-1.9087 -1.09903,-2.73866 -0.0328937,0.00655036 -0.06473,0.012946 -0.0946321,0.0190708z"/>
   <path id="_119805088" class="fil1" d="M10.428 5.64141l0.00203732 0c0.0553944,0 0.100705,0.045311 0.100705,0.100705l0 2.51607c0,0.0553944 -0.045311,0.100705 -0.100705,0.100705l-0.00203732 0c-0.0553944,0 -0.100705,-0.045311 -0.100705,-0.100705l0 -2.51607c0,-0.0553944 0.045311,-0.100705 0.100705,-0.100705z"/>
   <path id="_123965536" class="fil10" d="M10.9646 6.83474c-0.00166338,-0.0386188 0.028329,-0.0713061 0.0669607,-0.0729695 0.0386317,-0.00166338 0.0713061,0.0283419 0.0729695,0.0669607 0.00252731,0.0579475 -0.0188387,0.111653 -0.0553815,0.151522 -0.0364654,0.0397406 -0.0879786,0.0656068 -0.145887,0.0681341l-0.000244994 1.28944e-005 0 9.02609e-005c-0.0579604,0.00250152 -0.11164,-0.0188645 -0.151496,-0.0554073 -0.039818,-0.0365041 -0.0657099,-0.0881075 -0.0682372,-0.14612 -0.00665352,-0.153456 0.0878368,-0.184803 0.182288,-0.216136 0.0444342,-0.0147383 0.088907,-0.0294895 0.0868181,-0.0774181l-6.44721e-005 -0.00215337c-0.00143128,-0.0187356 -0.00994159,-0.0353178 -0.0227457,-0.0470646 -0.0132426,-0.0121336 -0.0312819,-0.0192256 -0.0509587,-0.0183745l-0.000154733 0c-0.0195995,0.000889715 -0.0369425,0.00955476 -0.0491019,0.0228102 -0.0121465,0.0132426 -0.0192127,0.0313205 -0.0183616,0.0509845 0.00166338,0.0386317 -0.028329,0.0713061 -0.0669607,0.0729824 -0.0386317,0.00166338 -0.0713061,-0.0283419 -0.0729695,-0.0669736 -0.00252731,-0.0579475 0.0188516,-0.111627 0.0553944,-0.151496 0.0364912,-0.0398051 0.0881204,-0.0657099 0.146107,-0.0682372l3.86832e-005 0c0.0579604,-0.00251441 0.111601,0.0188516 0.151471,0.0553944 0.0388251,0.0356144 0.064356,0.0855802 0.0679149,0.141839 0.000141839,0.00143128 0.000257888,0.00284967 0.00032236,0.00428095 0.00667931,0.153495 -0.0878239,0.184829 -0.182288,0.216162 -0.0444342,0.0147383 -0.0889199,0.0295024 -0.0868181,0.0773923 0.000851031,0.0196382 0.00951608,0.0370328 0.0227973,0.0492051 0.0132426,0.0121465 0.0313205,0.0192514 0.0509974,0.0184003l0 9.02609e-005c0.0196511,-0.000941292 0.0370328,-0.00961923 0.049218,-0.0229005 0.0121336,-0.0132426 0.0192385,-0.0313205 0.0183745,-0.0510103z"/>
   <path id="_123965464" class="fil10" d="M10.9646 7.91368c-0.00166338,-0.0386188 0.028329,-0.0712932 0.0669607,-0.0729695 0.0386317,-0.00166338 0.0713061,0.0283419 0.0729695,0.0669607 0.00252731,0.0579475 -0.0188387,0.111653 -0.0553815,0.151522 -0.0364654,0.0397406 -0.0879786,0.0656068 -0.145887,0.0681341l-0.000244994 1.28944e-005 0 9.02609e-005c-0.0579604,0.00251441 -0.11164,-0.0188645 -0.151496,-0.0554073 -0.039818,-0.0365041 -0.0657099,-0.0881075 -0.0682372,-0.14612 -0.00665352,-0.153456 0.0878368,-0.184803 0.182288,-0.216136 0.0444342,-0.0147383 0.088907,-0.0294895 0.0868181,-0.0774181l-6.44721e-005 -0.00214047c-0.00143128,-0.0187485 -0.00994159,-0.0353307 -0.0227457,-0.0470775 -0.0132297,-0.0121336 -0.0312819,-0.0192256 -0.0509587,-0.0183745l-0.000154733 0c-0.0195995,0.000889715 -0.0369425,0.00955476 -0.0491019,0.0228102 -0.0121465,0.0132426 -0.0192127,0.0313205 -0.0183616,0.0509974 0.00166338,0.0386188 -0.028329,0.0712932 -0.0669607,0.0729695 -0.0386317,0.00166338 -0.0713061,-0.0283419 -0.0729695,-0.0669736 -0.00252731,-0.0579475 0.0188516,-0.111627 0.0553944,-0.151496 0.0364912,-0.0398051 0.0881204,-0.0657099 0.14612,-0.0682372l2.57888e-005 0c0.0579604,-0.00251441 0.111601,0.0188516 0.151471,0.0553944 0.038838,0.0356144 0.0643689,0.0855802 0.0679149,0.141839 0.000141839,0.00143128 0.000257888,0.00284967 0.00032236,0.00428095 0.00667931,0.153495 -0.0878239,0.184829 -0.182288,0.216162 -0.0444342,0.0147383 -0.0889199,0.0295024 -0.0868181,0.0774052 0.000851031,0.0196253 0.00951608,0.0370199 0.0227973,0.0492051 0.0132426,0.0121465 0.0313205,0.0192385 0.0509974,0.0183874l0 9.02609e-005c0.0196511,-0.000941292 0.0370328,-0.00961923 0.049218,-0.0229005 0.0121336,-0.0132426 0.0192385,-0.0313205 0.0183745,-0.0510103z"/>
   <path id="_123965392" class="fil1" d="M10.8236 6.11292c0.0318363,-0.035421 0.0863797,-0.0383222 0.121801,-0.00648589 0.035421,0.0318363 0.0383222,0.0863797 0.00649879,0.121801 -0.0318363,0.0354081 -0.0863926,0.0383222 -0.121801,0.00648589 -0.0354081,-0.0318363 -0.0383222,-0.0863797 -0.00649879,-0.121801z"/>
   <path id="_123965320" class="fil1" d="M10.8236 7.16793c0.0318363,-0.035421 0.0863797,-0.0383351 0.121801,-0.00649879 0.0354081,0.0318363 0.0383222,0.0863797 0.00648589,0.121801 -0.0318363,0.035421 -0.0863797,0.0383222 -0.121801,0.00649879 -0.0354081,-0.0318363 -0.0383093,-0.0863797 -0.00648589,-0.121801z"/>
   <path id="_123965248" class="fil1" d="M10.8236 8.33672c0.0318363,-0.035421 0.0863797,-0.0383351 0.121801,-0.00649879 0.0354081,0.0318363 0.0383222,0.0863797 0.00648589,0.121801 -0.0318363,0.035421 -0.0863797,0.0383222 -0.121801,0.00649879 -0.0354081,-0.0318363 -0.0383093,-0.0863797 -0.00648589,-0.121801z"/>
   <path id="_123964768" class="fil10" d="M9.89258 6.83479c0.00166338,-0.0386188 -0.028329,-0.0713061 -0.0669607,-0.0729695 -0.0386317,-0.00166338 -0.0713061,0.0283419 -0.0729695,0.0669607 -0.00252731,0.0579475 0.0188387,0.111653 0.0553815,0.151522 0.0364654,0.0397406 0.0879786,0.0656068 0.145887,0.0681341l0.000244994 1.28944e-005 0 9.02609e-005c0.0579604,0.00250152 0.111653,-0.0188645 0.151509,-0.0554073 0.039818,-0.0365041 0.0657099,-0.0881075 0.0682372,-0.14612 0.00665352,-0.153456 -0.0878368,-0.184803 -0.182301,-0.216136 -0.0444342,-0.0147383 -0.088907,-0.0294895 -0.0868181,-0.0774181l6.44721e-005 -0.00215337c0.00143128,-0.0187356 0.00994159,-0.0353178 0.0227457,-0.0470646 0.0132426,-0.0121336 0.0312819,-0.0192256 0.0509587,-0.0183745l0.000154733 0c0.0195995,0.000889715 0.0369425,0.00955476 0.0491019,0.0228102 0.0121465,0.0132426 0.0192256,0.0313205 0.0183745,0.0509845 -0.00166338,0.0386317 0.028329,0.0713061 0.0669607,0.0729824 0.0386317,0.00166338 0.0713061,-0.0283419 0.0729695,-0.0669736 0.00252731,-0.0579475 -0.0188516,-0.111627 -0.0553944,-0.151496 -0.0364912,-0.0398051 -0.0881204,-0.0657099 -0.14612,-0.0682372l-3.86832e-005 0c-0.0579604,-0.00251441 -0.111601,0.0188516 -0.151471,0.0553944 -0.0388251,0.0356144 -0.064356,0.0855802 -0.0679149,0.141839 -0.000141839,0.00143128 -0.000257888,0.00284967 -0.00032236,0.00428095 -0.00667931,0.153495 0.0878239,0.184829 0.182288,0.216162 0.0444342,0.0147383 0.0889199,0.0295024 0.0868181,0.0773923 -0.000851031,0.0196382 -0.00951608,0.0370328 -0.0227973,0.0492051 -0.0132426,0.0121465 -0.0313205,0.0192514 -0.0509974,0.0184003l0 9.02609e-005c-0.0196511,-0.000941292 -0.0370328,-0.00961923 -0.049218,-0.0229005 -0.0121336,-0.0132426 -0.0192385,-0.0313205 -0.0183745,-0.0510103z"/>
   <path id="_123964696" class="fil10" d="M9.89258 7.91372c0.00166338,-0.0386188 -0.028329,-0.0712932 -0.0669607,-0.0729695 -0.0386317,-0.00166338 -0.0713061,0.0283419 -0.0729695,0.0669607 -0.00252731,0.0579475 0.0188387,0.111653 0.0553815,0.151522 0.0364654,0.0397406 0.0879786,0.0656068 0.145887,0.0681341l0.000244994 1.28944e-005 0 9.02609e-005c0.0579604,0.00251441 0.111653,-0.0188645 0.151509,-0.0554073 0.039818,-0.0365041 0.0657099,-0.0881075 0.0682372,-0.14612 0.00665352,-0.153456 -0.0878368,-0.184803 -0.182301,-0.216136 -0.0444342,-0.0147383 -0.088907,-0.0294895 -0.0868181,-0.0774181l6.44721e-005 -0.00214047c0.00143128,-0.0187485 0.00994159,-0.0353307 0.0227457,-0.0470775 0.0132297,-0.0121336 0.0312819,-0.0192256 0.0509587,-0.0183745l0.000154733 0c0.0195995,0.000889715 0.0369425,0.00955476 0.0491019,0.0228102 0.0121465,0.0132426 0.0192256,0.0313205 0.0183745,0.0509974 -0.00166338,0.0386188 0.028329,0.0712932 0.0669607,0.0729695 0.0386317,0.00166338 0.0713061,-0.0283419 0.0729695,-0.0669736 0.00252731,-0.0579475 -0.0188516,-0.111627 -0.0553944,-0.151496 -0.0364912,-0.0398051 -0.0881204,-0.0657099 -0.146132,-0.0682372l-2.57888e-005 0c-0.0579604,-0.00251441 -0.111601,0.0188516 -0.151471,0.0553944 -0.038838,0.0356144 -0.0643689,0.0855802 -0.0679149,0.141839 -0.000141839,0.00143128 -0.000257888,0.00284967 -0.00032236,0.00428095 -0.00667931,0.153495 0.0878239,0.184829 0.182288,0.216162 0.0444342,0.0147383 0.0889199,0.0295024 0.0868181,0.0774052 -0.000851031,0.0196253 -0.00951608,0.0370199 -0.0227973,0.0492051 -0.0132426,0.0121465 -0.0313205,0.0192385 -0.0509974,0.0183874l0 9.02609e-005c-0.0196511,-0.000941292 -0.0370328,-0.00961923 -0.049218,-0.0229005 -0.0121336,-0.0132426 -0.0192385,-0.0313205 -0.0183745,-0.0510103z"/>
   <path id="_123964624" class="fil1" d="M10.0335 6.11292c-0.0318363,-0.035421 -0.0863797,-0.0383222 -0.121801,-0.00648589 -0.035421,0.0318363 -0.0383222,0.0863797 -0.00649879,0.121801 0.0318363,0.0354081 0.0863926,0.0383222 0.121801,0.00648589 0.035421,-0.0318363 0.0383351,-0.0863797 0.00649879,-0.121801z"/>
   <path id="_123964552" class="fil1" d="M10.0335 7.16793c-0.0318363,-0.035421 -0.0863797,-0.0383351 -0.121801,-0.00649879 -0.0354081,0.0318363 -0.0383222,0.0863797 -0.00648589,0.121801 0.0318363,0.035421 0.0863797,0.0383222 0.121801,0.00649879 0.035421,-0.0318363 0.0383222,-0.0863797 0.00648589,-0.121801z"/>
   <path id="_123964480" class="fil1" d="M10.0335 8.33672c-0.0318363,-0.035421 -0.0863797,-0.0383351 -0.121801,-0.00649879 -0.0354081,0.0318363 -0.0383222,0.0863797 -0.00648589,0.121801 0.0318363,0.035421 0.0863797,0.0383222 0.121801,0.00649879 0.035421,-0.0318363 0.0383222,-0.0863797 0.00648589,-0.121801z"/>
   <path id="_129335416" class="fil6" d="M14.6187 6.43923c0,0 -2.22145,1.25574 -2.14159,1.28477 0.0798551,0.0290382 2.04719,-0.442833 2.04719,-0.442833l0.0944 -0.841941z"/>
   <path id="_241259688" class="fil3" d="M12.8093 7.03656l0 0.0272717c0,0.0489859 0.0190451,0.0823953 0.0440731,0.107436 0.034196,0.0342218 0.049579,0.0358852 0.105631,0.0459815 0.0768894,0.0138615 0.165306,-0.071074 0.165306,-0.138267l0 -0.0393924c0,-0.0362333 -0.0254536,-0.0724279 -0.0446791,-0.0916664 -0.0167756,-0.0167885 -0.0587341,-0.0477351 -0.0885975,-0.0477351l-0.0424097 0c-0.0620092,0 -0.139324,0.0736658 -0.139324,0.136371zm0.118126 2.04863l0 0.00606038c0,0.0175106 0.0208761,0.0393924 0.0393795,0.0393924l0.00606038 0c0.018194,0 0.0363365,-0.0181553 0.0363365,-0.0363623l0 -0.00909056c0,-0.0174332 -0.0232873,-0.0363623 -0.0393666,-0.0363623 -0.018323,0 -0.0424097,0.0210824 -0.0424097,0.0363623zm0.469486 -0.23638l0 0.00606038c0,0.0477351 0.0817764,0.0523642 0.0817764,0l0 -0.00303019c0,-0.0169304 -0.0113729,-0.0262143 -0.0181682,-0.0363623 -0.0271556,0 -0.0636081,-0.00272072 -0.0636081,0.0333321zm-0.941989 -0.00303019l0 0.00606038c0,0.0205408 0.0172785,0.0424226 0.0363365,0.0424226 0.0166338,0 0.0424097,-0.0158214 0.0424097,-0.0303019l0 -0.0181811c0,-0.0185293 -0.0210437,-0.0333321 -0.0393795,-0.0333321 -0.0183359,0 -0.0393666,0.0148028 -0.0393666,0.0333321zm0.490684 -0.115637c-0.0215853,0.0149317 -0.0545305,0.0301729 -0.0545305,0.0671541l0 0.0272717c0,0.0258275 0.0441376,0.0636339 0.0757289,0.0636339l0.00606038 0c0.0375356,0 0.0477738,-0.0277617 0.0696556,-0.0424226 0,-0.0207987 0.00606038,-0.0161696 0.00606038,-0.0303019l0 -0.0181811c0,-0.0359367 -0.0333965,-0.0525318 -0.0545176,-0.0671541l-0.0484572 0zm0.926838 -0.117713c0,0.0287288 0.01929,0.0424226 0.0484701,0.0424226l0.00303019 0c0.0073885,0 0.0272588,-0.0198703 0.0272588,-0.0272717l0 -0.0272717c0,-0.00845874 -0.0213403,-0.0242415 -0.0272588,-0.0242415l-0.0181682 0c-0.0172527,0 -0.0333321,0.0194448 -0.0333321,0.0363623zm-1.88701 -0.00303019l0 0.00303019c0,0.0198832 0.0139389,0.0424226 0.0333192,0.0424226l0.0121079 0c0.0122755,0 0.0333192,-0.016737 0.0333192,-0.0272717l0 -0.0212113c0,-0.014287 -0.0168917,-0.0303019 -0.0272588,-0.0303019l-0.0181682 0c-0.0154088,0 -0.0333192,0.0179232 -0.0333192,0.0333321zm1.37512 -0.0515261l0 0.0303148c0,0.0132812 0.0207729,0.0388509 0.0302116,0.0455302 0.0138615,0.00979976 0.0360012,0.0185809 0.0549044,0.0154475 0.0395085,-0.00653747 0.0723892,-0.0350857 0.0723892,-0.0791717 0,-0.0345441 -0.0365815,-0.0787849 -0.0636081,-0.0787849l-0.0272588 0c-0.0279164,0 -0.0666383,0.037497 -0.0666383,0.0666641zm-0.945019 0.0121208c0,0.106547 0.157505,0.103387 0.157505,0.00304308l0 -0.00607327c0,-0.0360012 -0.0355241,-0.0757547 -0.0666383,-0.0757547l-0.0211984 0c-0.0352533,0 -0.0696685,0.0391217 -0.0696685,0.0787849zm0.517969 -0.242131c-0.0178072,0.0116179 -0.0378709,0.0192256 -0.0521321,0.0354467 -0.00711772,0.0080719 -0.02967,0.0463812 -0.02967,0.0581925l0 0.0363751c0,0.044576 0.0568644,0.0999962 0.109035,0.0999962l0.0211984 0c0.0504301,0 0.106018,-0.057767 0.106018,-0.103026l0 -0.0151509c0,-0.0591209 -0.05337,-0.11516 -0.112065,-0.11516l-0.00615064 -0.000773665 -0.0362333 0.00410042zm0.899566 0.0057638c0,0.0373551 0.0370585,0.0787849 0.0696556,0.0787849l0.00909056 0c0.0358981,0 0.0787591,-0.0303148 0.0787591,-0.0636339l0 -0.033345c0,-0.029309 -0.0452981,-0.0636339 -0.0787591,-0.0636339 -0.0398308,0 -0.0787462,0.0405143 -0.0787462,0.081828zm-1.88702 -0.00606038c0,0.0488698 0.0336544,0.0848453 0.0817764,0.0848453l0.00303019 0c0.0481864,0 0.0524416,-0.0339123 0.0696685,-0.0454528 0,-0.0374583 0.014042,-0.0394569 -0.00803322,-0.0768249 -0.00919372,-0.0155765 -0.0403079,-0.0383351 -0.0616353,-0.0383351 -0.0414942,0 -0.0848066,0.0349697 -0.0848066,0.0757676zm1.37512 -0.136384l0 0.0363751c0,0.0450531 0.0570578,0.100009 0.106018,0.100009l0.015138 0c0.148802,0 0.148724,-0.23335 0,-0.23335l-0.00907767 0c-0.0325197,0 -0.0566452,0.0128042 -0.0734982,0.0295024 -0.0133328,0.0132039 -0.0385801,0.0439055 -0.0385801,0.0674636zm-0.835971 0.136384l0.0242286 0c0.0522482,0 0.102975,-0.0581409 0.102975,-0.11516 0,-0.0657744 -0.049579,-0.11819 -0.115096,-0.11819l-0.0121079 0c-0.0311142,0 -0.0603459,0.0191095 -0.0765284,0.0355499 -0.022346,0.0227071 -0.0275812,0.0426418 -0.031991,0.080358 -0.0067051,0.0572512 0.0534087,0.117442 0.108519,0.117442zm0.324088 -0.336389l0 0.0272717c0,0.069978 0.0742331,0.142432 0.142354,0.142432l0.0272588 0c0.0682888,0 0.145397,-0.0727503 0.145397,-0.139402l0 -0.0333321c0,-0.076077 -0.0774568,-0.145475 -0.157505,-0.145475 -0.0826145,0 -0.157505,0.0669091 -0.157505,0.148505zm0.987429 -0.0151509l0.00303019 0.0363623c0.0243833,0.0364396 0.046652,0.0787978 0.109035,0.0787978 0.0610035,0 0.121156,-0.0475546 0.121156,-0.103039l0 -0.0303148c0,-0.0502882 -0.0656584,-0.111214 -0.123464,-0.102459 -0.0570449,0.00862636 -0.1181,0.0486893 -0.109757,0.120653zm-1.88702 -0.018194l0 0.0272846c0,0.0532281 0.0599977,0.111924 0.117803,0.105966 0.062899,-0.00648589 0.115431,-0.0446147 0.115431,-0.112027 0,-0.0767733 -0.0408495,-0.110544 -0.107862,-0.122484 -0.0594433,-0.0105863 -0.125372,0.0487667 -0.125372,0.10126zm1.37211 -0.209096l0 0.0363623c0,0.025647 0.0279938,0.0697846 0.0405658,0.0866892 0.0234678,0.0315397 0.0539373,0.0318363 0.0806675,0.0489859l0.0392893 0.00372649c0.014042,0.00150865 0.0199863,-0.00303019 0.0363494,-0.00303019 0.0293219,-0.0196382 0.0556781,-0.0154217 0.0817893,-0.0515132 0.0182714,-0.0252602 0.0393666,-0.0503785 0.0393666,-0.0939487l0 -0.0272717c0,-0.0402435 -0.0282259,-0.0780757 -0.0492051,-0.0992612 -0.0233647,-0.0235839 -0.0593401,-0.0431705 -0.10527,-0.0431705l-0.015138 0c-0.0722087,0 -0.148415,0.07462 -0.148415,0.142432zm-0.942001 0l0 0.0333321c0,0.0690496 0.0791072,0.142432 0.148415,0.142432l0.00303019 0c0.0923885,0 0.166596,-0.067167 0.166596,-0.157583 0,-0.0809511 -0.0679149,-0.160613 -0.145385,-0.160613l-0.0181811 0c-0.0773149,0 -0.154475,0.0690238 -0.154475,0.142432zm1.42056 -0.278816c0,0.0267688 -0.00909056,0.0233131 -0.00909056,0.0394053l0 0.0454528c0,0.0636081 0.08255,0.139402 0.148428,0.139402 0.044331,0 0.0692559,-0.010986 0.0970176,-0.0271685 0.0321716,-0.0187614 0.0455044,-0.0537052 0.0604877,-0.0637371 0,-0.025157 0.0121079,-0.027478 0.0121079,-0.0484959 0,-0.0534474 -0.00972239,-0.0934716 -0.035537,-0.12202 -0.0207084,-0.0228876 -0.0626024,-0.0567741 -0.103787,-0.0567741l-0.0393795 0c-0.0295411,0 -0.0615966,0.0194577 -0.079262,0.0328292 -0.0263562,0.0199477 -0.0407979,0.0542855 -0.0509845,0.0611066zm-1.74162 0.22426c0.203152,0 0.227483,-0.305185 0.00505461,-0.319807 -0.0838911,-0.00551881 -0.162212,0.0752131 -0.162134,0.156164 9.02609e-005,0.0858768 0.0720798,0.163643 0.15708,0.163643zm1.26306 -0.415174l0 0.0333321c0,0.059469 0.0768636,0.142432 0.133264,0.142432l0.0545305 0c0.00636984,0 0.0407206,-0.0152928 0.0480962,-0.0185293 0.0159375,-0.00700167 0.0266657,-0.0184777 0.0389927,-0.0307016 0.0188774,-0.0187227 0.0431447,-0.0573286 0.0431447,-0.0932008l0 -0.0333321c0,-0.0666125 -0.0789654,-0.142432 -0.145385,-0.142432l-0.0242286 0c-0.0359883,0 -0.0810156,0.0265367 -0.100809,0.0446018 -0.0161567,0.0147512 -0.0476062,0.0687788 -0.0476062,0.0978299zm-0.942001 0.00606038l0 0.0242415c0,0.0733563 0.0749166,0.145462 0.148415,0.145462l0.0363494 0c0.0231584,0 0.0797004,-0.0358594 0.0914472,-0.0509329 0.0195737,-0.0251183 0.0418295,-0.060204 0.0418295,-0.10362 0,-0.0843553 -0.0685338,-0.163643 -0.148415,-0.163643l-0.0242286 0c-0.0375485,0 -0.0790299,0.0268591 -0.0992741,0.0461491 -0.0219463,0.0209018 -0.0461233,0.0607843 -0.0461233,0.102343zm0.469486 0.23638l0 0.0303019c0,0.0742589 0.0804096,0.142483 0.157505,0.142483 0.0786172,0 0.157505,-0.0697975 0.157505,-0.145513l0 -0.0303019c0,-0.0366201 -0.027968,-0.0857736 -0.0496822,-0.101827 -0.0320039,-0.0236613 -0.0554847,-0.0412106 -0.108068,-0.0434542 -0.0784109,-0.00333965 -0.15726,0.0702488 -0.15726,0.148312z"/>
   <path id="_129334696" class="fil1" d="M5.26109 7.27388c-0.0362978,0.0145191 -0.471871,-0.49365 -1.54629,-0.97278 0,0 0.98004,0.232306 1.6697,0.6461l0.00725956 0.188748 -0.130672 0.137932z"/>
   <path id="_129333232" class="fil3" d="M18.2522 6.67755c0.367104,0.883138 0.620866,1.80669 0.732506,2.69994 0.26627,2.1312 -0.140381,3.99992 -1.12677,5.93219 0,0 -0.0102124,0.0297861 -0.0431318,0.0699393 -0.217993,-0.0304308 -0.4385,-0.0799067 -0.65474,-0.141297 0.0198574,-0.0436347 0.0318879,-0.0763478 0.0280196,-0.0850645 -0.00440989,-0.00995449 -0.0399082,0.0202958 -0.0875918,0.0678246 -0.420513,-0.124018 -0.822161,-0.290808 -1.15383,-0.447011 -0.00474514,-0.0480317 -0.0109474,-0.0798035 -0.0190708,-0.079507 -0.00733692,0.000270783 -0.0172269,0.022591 -0.0281227,0.0571223 -0.436992,-0.208593 -0.742641,-0.393189 -0.792955,-0.42402l0.00043841 -0.00192127c0.966462,0.332031 2.59817,0.498202 2.59817,0.498202 1.35305,-2.78345 1.29802,-5.68051 0.346937,-8.12494 -0.834578,-2.14505 -0.0756773,-0.68499 0.200134,-0.0214563z"/>
   <path id="_129327424" class="fil1" d="M18.4226 8.00056c0.962684,-0.108648 1.211,0.952897 0.36165,1.30816l-0.36165 -1.30816z"/>
   <path id="_129891224" class="fil2" d="M18.784 9.31425c0.313953,-0.489266 0.321974,-1.03003 -0.361276,-1.32134 0,0 -0.194409,0.959538 0.361276,1.32134z"/>
   <path id="_129886616" class="fil3" d="M18.7514 9.35464c0.380114,-0.484417 0.384421,-1.08268 -0.353449,-1.37598 0.293245,0.196098 0.535208,0.818047 0.340348,1.33599l0.0131007 0.0399856z"/>
   <path id="_129886112" class="fil3" d="M18.4608 8.18164c-0.0839813,0.0522224 -0.0830787,0.205537 0.00199863,0.342347 0.0851031,0.136823 0.222209,0.205421 0.306191,0.153199 0.0839684,-0.0522224 0.0830658,-0.205537 -0.00202442,-0.34236 -0.0850902,-0.13681 -0.222197,-0.205408 -0.306165,-0.153186z"/>
   <path id="_129330544" class="fil2" d="M15.0266 13.3201c0,0 0.155803,-0.322476 0.55437,-0.525383 0.398566,-0.202907 -0.275373,0.53263 -0.55437,0.525383z"/>
   <path id="_129330424" class="fil4" d="M17.9005 15.2252c-0.014042,0.0281743 -0.0281872,0.0563744 -0.0425387,0.0844584 0,0 -0.119763,0.352649 -0.874422,0.265406 0,0 0.219437,-0.388302 0.20457,-0.421867 -0.0148673,-0.0335642 -0.3825,0.390275 -0.3825,0.390275 0,0 -0.464354,0.0016247 -0.843514,-0.325584 0,0 -0.00154733,-0.524609 -0.0344797,-0.52341 -0.0329194,0.00119918 -0.113084,0.428378 -0.113084,0.428378 -0.255748,-0.0340284 -0.549405,-0.127268 -0.721752,-0.279976 -0.061674,-0.0546336 -0.071809,-0.128351 -0.0352662,-0.294921 0.0156796,-0.0714608 0.0348149,-0.159336 0.0598043,-0.267134 1.43151,0.643083 2.34654,0.867072 2.78318,0.944374z"/>
   <path id="_129331048" class="fil4" d="M17.8213 8.47181c0,0 0,0.479131 0.6461,0.740475 0,0 -0.428314,-0.0145191 -0.609803,-0.188748 -0.181489,-0.174229 -0.0362978,-0.551726 -0.0362978,-0.551726z"/>
   <path id="_119546360" class="fil1" d="M18.2767 9.9049c0.0473612,0.0345828 0.0577025,0.100976 0.0231455,0.148312 -0.0345957,0.0473354 -0.100976,0.0576767 -0.148337,0.0231068 -0.0473225,-0.034557 -0.0576638,-0.100963 -0.0230939,-0.148299 0.0345699,-0.0473354 0.100976,-0.0576767 0.148286,-0.0231197zm-0.848246 1.19242c-0.0129073,0.0366846 0.00636984,0.0769281 0.0430416,0.0898483 0.0366717,0.0129073 0.0769281,-0.00635695 0.0898354,-0.0430416 0.0129331,-0.0366717 -0.00635695,-0.0769281 -0.0430416,-0.0898483 -0.0366717,-0.0129202 -0.0769281,0.00636984 -0.0898354,0.0430416zm0.676312 -0.176718c-0.00861347,0.0244736 0.00422937,0.0512811 0.0286901,0.0598946 0.0244607,0.00861347 0.0512811,-0.00422937 0.0598946,-0.0286901 0.00862636,-0.0244607 -0.00422937,-0.0512811 -0.0286901,-0.0599075 -0.0244607,-0.00860057 -0.0512811,0.00425516 -0.0598946,0.028703zm-0.128931 1.01502c-0.00861347,0.0244607 0.00421647,0.0512811 0.0286772,0.0598817 0.0244607,0.00863926 0.0512811,-0.00422937 0.0598946,-0.0286772 0.00862636,-0.0244736 -0.00422937,-0.0512811 -0.0286901,-0.0598946 -0.0244607,-0.00861347 -0.0512811,0.00422937 -0.0598817,0.0286901zm0.319317 -0.325687c-0.0107668,0.0305598 0.0052996,0.064111 0.0358465,0.0748779 0.0305598,0.0107668 0.0641368,-0.00532539 0.0748908,-0.0358852 0.0107668,-0.0305469 -0.00533829,-0.0640852 -0.0358852,-0.0748521 -0.0305469,-0.0107539 -0.0640981,0.0053125 -0.0748521,0.0358594zm-1.09443 0.440306c-0.0150865,0.0428224 0.00740139,0.0897451 0.050198,0.104819 0.0428224,0.0150865 0.0897451,-0.00740139 0.104832,-0.0502237 0.0150865,-0.0427966 -0.00742718,-0.0897193 -0.0502366,-0.104806 -0.0427966,-0.0150865 -0.0897193,0.00740139 -0.104793,0.0502109zm0.301136 -2.85325c0.0405658,0.0296185 0.0494243,0.0865602 0.0198058,0.127113 -0.0296056,0.0405658 -0.0865731,0.0494372 -0.127113,0.0198058 -0.0405529,-0.0296056 -0.0494243,-0.0865602 -0.0198187,-0.1271 0.0296314,-0.0405658 0.0865731,-0.0494372 0.127126,-0.0198187zm-0.849291 0.305933c0.0270267,0.0197542 0.0329452,0.0577025 0.0132039,0.0847421 -0.0197542,0.0270396 -0.0577025,0.0329581 -0.084755,0.0132168 -0.0270525,-0.0197542 -0.0329581,-0.0577154 -0.0132168,-0.084755 0.0197671,-0.0270396 0.0577154,-0.0329581 0.0847679,-0.0132039zm0.940854 0.874486c0.0270396,0.0197542 0.0329452,0.0577154 0.013191,0.0847421 -0.0197413,0.0270525 -0.0576896,0.032971 -0.0847421,0.0132039 -0.0270525,-0.0197542 -0.032971,-0.0576896 -0.0132039,-0.0847421 0.0197542,-0.0270396 0.0577154,-0.0329581 0.084755,-0.0132039zm-0.966926 0.807294c0.04054,0.0296185 0.0494114,0.0865731 0.0197929,0.127126 -0.0296185,0.04054 -0.0865731,0.0494114 -0.127113,0.0198058 -0.0405529,-0.0296314 -0.0494243,-0.0865731 -0.0198187,-0.127126 0.0296185,-0.04054 0.0865731,-0.0494114 0.127139,-0.0198058zm0.326964 -0.808635c0.0337834,0.024667 0.0411977,0.0721314 0.0165177,0.105928 -0.024667,0.0337834 -0.07217,0.0411848 -0.105953,0.0165049 -0.0337705,-0.0246799 -0.0411461,-0.07217 -0.0164791,-0.105941 0.0246799,-0.0337705 0.0721185,-0.0411848 0.105915,-0.016492zm1.69335 -0.944903c0.0240352,0.0175364 0.0292832,0.0512424 0.0117339,0.0752647 -0.0175364,0.0240223 -0.0512424,0.0292703 -0.0752647,0.011721 -0.0240223,-0.0175364 -0.0292703,-0.0512295 -0.011721,-0.0752647 0.0175364,-0.0240223 0.0512424,-0.0292703 0.0752518,-0.011721z"/>
   <path id="_119682776" class="fil4" d="M16.1317 8.59111c-0.0434284,-0.307351 -0.103942,-0.626591 -0.185783,-0.955399 0.58364,-0.215917 1.50885,-0.5198 2.44986,-0.673965 0.128029,0.3445 0.234872,0.693333 0.326087,1.04245 -1.03309,-0.00011605 -2.0481,0.407464 -2.59017,0.586915z"/>
   <path id="_130621128" class="fil7" d="M17.8987 6.71923c-0.492979,-1.21679 -1.26622,-2.51427 -2.38509,-3.83316 1.17847,0.862275 2.04415,2.17128 2.62759,3.4902 -0.0628732,0.208103 -0.228051,0.362423 -0.228051,0.362423 -0.00468067,-0.00656326 -0.00951608,-0.0130105 -0.0144417,-0.0194577z"/>
   <path id="_7125608" class="fil6" d="M15.8683 7.65115c-0.0452207,-0.178523 -0.0966694,-0.35978 -0.154952,-0.543384 0.438384,-0.346718 1.30124,-0.841103 2.30642,-0.996584 0.123967,0.262427 0.238057,0.529754 0.341367,0.800073 -0.811059,0.190309 -1.78616,0.504868 -2.4382,0.756941 -0.0183101,-0.00567354 -0.0365041,-0.0113471 -0.0546336,-0.0170464z"/>
   <path id="_123310440" class="fil1" d="M15.7637 8.64622c0,0 1.46276,-0.933349 3.29305,-0.934845 0,0 0.0275683,-0.782549 -0.464792,-1.41127 0,0 -1.68553,0.0841876 -3.14261,1.41917 0,0 0.093665,0.465901 0.314353,0.926941z"/>
   <path id="_123310368" class="fil6" d="M15.9432 8.2934c0.0242673,-0.0131523 0.0485217,-0.0260596 0.0724666,-0.038709 0.219502,-0.115921 0.446495,-0.218586 0.676312,-0.308847 0.65425,-0.256999 1.35238,-0.419855 2.05114,-0.446379 -0.00814927,-0.0744652 -0.0205666,-0.148969 -0.0337705,-0.213467 -0.0517324,-0.25255 -0.146635,-0.494694 -0.28997,-0.70312 -0.055562,0.00625379 -0.111537,0.0148544 -0.164842,0.0234678 -0.225098,0.0364009 -0.44928,0.0912796 -0.667608,0.159813 -0.659369,0.206994 -1.28118,0.546053 -1.81337,1.01064 0.0421776,0.170503 0.102407,0.351515 0.169639,0.516602z"/>
   <path id="_123310296" class="fil5" d="M18.7271 7.50011l0.0160535 -0.00067051c-0.00817506,-0.0744652 -0.0205666,-0.148956 -0.0337705,-0.213441 -0.0517453,-0.252563 -0.146648,-0.49472 -0.28997,-0.703132 -0.055562,0.00626669 -0.111537,0.0148544 -0.164842,0.0234678 -0.225098,0.0364009 -0.44928,0.0912538 -0.667608,0.159813 -0.579049,0.181785 -1.12913,0.465463 -1.61499,0.846518 0.011966,0.0169175 0.0245768,0.0337447 0.0385027,0.050443 0,0 1.22551,-0.762253 2.26039,-0.791292 0,0 0.239901,0.226813 0.45623,0.628293z"/>
   <path id="_123310224" class="fil6" d="M15.9432 8.2934c0.0242673,-0.0131523 0.0485217,-0.0260467 0.0724666,-0.0386961 0.219515,-0.115934 0.446508,-0.218599 0.676299,-0.30886 0.0320297,-0.0125849 0.0641368,-0.0248991 0.0963729,-0.0370199 -0.12995,-0.245677 -0.222042,-0.491148 -0.278893,-0.663379 -0.259242,0.153353 -0.505912,0.330613 -0.735884,0.531366 0.0421776,0.170477 0.102382,0.351502 0.169639,0.516589z"/>
   <path id="_123310152" class="fil1" d="M15.6555 7.99599c0,0 0.684668,-0.463477 1.48522,-0.572396 0,0 -0.599075,0.2031 -1.42295,0.842108l-0.0622671 -0.269712z"/>
   <path id="_119547512" class="fil1" d="M15.6456 7.26669c0.0362978,0.0145191 0.471871,-0.49365 1.54629,-0.97278 0,0 -0.98004,0.232306 -1.6697,0.6461l-0.00725956 0.188748 0.130672 0.137932z"/>
   <path id="_119541920" class="fil5" d="M18.6187 7.27388c0,0 -0.355718,-0.137932 -1.24138,0.0798551 0,0 0.6461,-0.33394 1.08167,-0.348459l0.0725956 0.145191 0.0871147 0.123412z"/>
   <path id="_119542448" class="fil1" d="M15.9907 8.79117c0,0 0.566245,-0.283123 1.57532,-0.638841 0,0 -0.863887,0.123412 -1.5608,0.377497l-0.0725956 0.0798551 0.0580764 0.181489z"/>
   <path id="_125772112" class="fil1" d="M4.87604 8.75496c0,0 -0.566245,-0.283123 -1.57532,-0.638841 0,0 0.863887,0.123412 1.5608,0.377497l0.0725956 0.0798551 -0.0580764 0.181489z"/>
   <path id="_119547824" class="fil1" d="M2.86475 9.64077c-0.0503398,0.0300827 -0.0667544,0.0952381 -0.0367104,0.145552 0.0300827,0.0503269 0.0952381,0.0667415 0.145578,0.0366846 0.0503011,-0.0300569 0.0667286,-0.0952253 0.0366588,-0.145552 -0.0300569,-0.050314 -0.0952253,-0.0667286 -0.145526,-0.0366846zm0.734775 1.26551c0.0094774,0.0377162 -0.013436,0.0760126 -0.0511393,0.0855029 -0.0377033,0.0094774 -0.0760126,-0.0134231 -0.08549,-0.0511393 -0.00949029,-0.0377033 0.0134231,-0.0760126 0.0511393,-0.08549 0.0377033,-0.00949029 0.0760126,0.0134231 0.08549,0.0511264zm-0.657151 -0.238263c0.00631826,0.025157 -0.00893583,0.0506751 -0.0340928,0.0569933 -0.0251441,0.00633116 -0.0506751,-0.00893583 -0.0569933,-0.0340799 -0.00633116,-0.025157 0.00893583,-0.0506751 0.0340928,-0.0570062 0.0251441,-0.00631826 0.0506622,0.00894872 0.0569933,0.0340928zm0.0348665 1.02257c0.00631826,0.025157 -0.00893583,0.0506751 -0.0340799,0.0569933 -0.025157,0.00634405 -0.0506751,-0.00893583 -0.0569933,-0.0340799 -0.00634405,-0.025157 0.00893583,-0.0506751 0.0340799,-0.0569933 0.025157,-0.00631826 0.0506751,0.00893583 0.0569933,0.0340799zm-0.287958 -0.35372c0.00790428,0.0314237 -0.0111795,0.0633503 -0.0425903,0.0712545 -0.0314237,0.00790428 -0.063376,-0.0112052 -0.0712674,-0.0426289 -0.00790428,-0.0314108 0.0112181,-0.0633245 0.0426289,-0.0712287 0.0314108,-0.00789138 0.0633374,0.0111924 0.0712287,0.0426031zm1.04921 0.539257c0.0110763,0.0440344 -0.0156409,0.0886878 -0.0596496,0.0997512 -0.0440215,0.0110763 -0.0886749,-0.0156409 -0.0997512,-0.0596754 -0.0110763,-0.0439957 0.0156538,-0.0886491 0.0596754,-0.0997254 0.0440086,-0.0110763 0.088662,0.0156409 0.0997254,0.0596496zm-0.0369683 -2.86884c-0.0431189,0.0257501 -0.0571867,0.0816345 -0.0314366,0.124741 0.0257501,0.0431189 0.0816474,0.0571996 0.124753,0.0314366 0.043106,-0.0257501 0.0571867,-0.0816345 0.0314366,-0.124741 -0.025763,-0.0431189 -0.0816474,-0.0571996 -0.124753,-0.0314366zm0.817493 0.382874c-0.0287417,0.0171883 -0.0381288,0.0544273 -0.0209534,0.083169 0.0171754,0.0287417 0.0544144,0.0381288 0.083169,0.0209663 0.0287545,-0.0171754 0.0381417,-0.0544273 0.0209663,-0.083169 -0.0171883,-0.0287545 -0.0544273,-0.0381417 -0.0831819,-0.0209663zm-1.01741 0.784084c-0.0287545,0.0171754 -0.0381288,0.0544273 -0.0209534,0.083169 0.0171754,0.0287545 0.0544144,0.0381417 0.083169,0.0209534 0.0287545,-0.0171754 0.0381417,-0.0544144 0.0209534,-0.083169 -0.0171754,-0.0287417 -0.0544273,-0.0381288 -0.083169,-0.0209534zm0.888425 0.892951c-0.0430931,0.0257501 -0.0571738,0.0816474 -0.0314237,0.124753 0.025763,0.043106 0.0816474,0.0571867 0.124753,0.0314366 0.043106,-0.025763 0.0571867,-0.0816474 0.0314366,-0.124753 -0.0257501,-0.043106 -0.0816474,-0.0571867 -0.124766,-0.0314366zm-0.251067 -0.835326c-0.0359109,0.0214563 -0.0476707,0.0680309 -0.0262143,0.103955 0.0214563,0.0359109 0.0680696,0.0476578 0.103993,0.0262015 0.0358981,-0.0214692 0.0476191,-0.0680696 0.0261628,-0.103968 -0.0214563,-0.0359109 -0.068018,-0.0476578 -0.103942,-0.0261886zm-1.59909 -1.0969c-0.0255438,0.0152541 -0.0338736,0.0483283 -0.0186195,0.0738592 0.0152541,0.0255438 0.0483283,0.0338736 0.0738721,0.0186066 0.0255309,-0.0152412 0.0338607,-0.0483154 0.0186066,-0.0738592 -0.0152541,-0.0255309 -0.0483283,-0.0338607 -0.0738592,-0.0186066z"/>
   <path id="_122253232" class="fil11" d="M11.0427 5.57451c0.0716027,-0.00135391 0.146932,-0.00291414 0.224891,-0.00469357 0.0590048,-0.155236 0.169046,-0.291646 0.305856,-0.368677 0.0518484,-0.0292703 0.12309,-0.0726342 0.200341,-0.0945934 0.378516,-0.107991 0.900855,0.0785399 1.01939,0.392661 -0.114141,-0.0242415 -0.190038,-0.0673862 -0.326126,-0.0827821 -0.065826,-0.00744008 -0.31051,-0.0123915 -0.394311,0.0215853l-0.115134 0.0372778c0.00629247,0.0299408 0.0135391,0.0534602 0.021495,0.0729308 0.498563,-0.019664 0.975243,-0.0501077 1.19309,-0.0970434 -0.146236,-0.238727 -0.326409,-0.381572 -0.546581,-0.497505 -0.178201,-0.0938842 -0.569946,-0.161773 -0.841399,-0.0843811l-0.0180651 0.00517066c-0.137454,0.0391732 -0.238534,0.0904027 -0.324617,0.150465 -0.0794941,0.0554847 -0.231326,0.188271 -0.284025,0.278996 -0.0461878,0.0795843 -0.094645,0.204983 -0.10714,0.243086 -0.00266914,0.00822664 -0.00522224,0.0174461 -0.00767218,0.0275038zm0.636688 -0.0157312c0.0781402,-0.00243704 0.156925,-0.00510619 0.235439,-0.00805901 -0.021005,-0.151342 -0.0202055,-0.313244 0.0164662,-0.438758 -0.0401274,0.00758192 -0.0801259,0.0153057 -0.120124,0.0229005 -0.0331644,0.00954187 -0.0662257,0.0188903 -0.0993515,0.0283419 -0.0767991,0.0218689 -0.0652973,0.207613 -0.0324295,0.395575zm1.58855 -0.13699c0.0612227,-0.0315526 0.145256,-0.170748 0.240829,-0.374441 -0.0864055,0.0517969 -0.12888,0.127139 -0.173224,0.206891 -0.0269364,0.0484056 -0.0454528,0.0721056 -0.0593401,0.12643 -0.00349439,0.0137326 -0.00573801,0.0276456 -0.00826532,0.0411203zm-1.43735 -0.595103c0.102807,-0.0292574 0.178575,-0.0118113 0.244917,-0.0307532 0.00198574,-0.000567354 0.205421,-0.27322 0.38553,-0.32463l0.0541694 -0.015512c0.0971207,-0.0276714 0.201772,0.0230036 0.229379,0.120034l0.00514487 0.0181811c0.0194964,0.068392 -0.0253504,0.124341 -0.104445,0.146867 0.0103413,-0.0279293 0.0506751,-0.0614419 0.037368,-0.108262 -0.0124689,-0.0440086 -0.0766831,-0.0756902 -0.124986,-0.0620479l-0.0180006 0.00519645c-0.0541823,0.0154475 -0.0928527,0.0850258 -0.0774181,0.139208l0.0154862 0.0541565c0.0240352,0.0844197 0.128415,0.119531 0.221591,0.0930203l0.018078 -0.00514487c0.139466,-0.0397664 0.213544,-0.174784 0.174113,-0.313334l-0.00259178 -0.00889715c-0.026743,-0.0938713 -0.0648847,-0.114902 -0.0990936,-0.176782 0.176138,-0.00858768 0.426341,0.092569 0.480614,0.282736l0.0103155 0.0361173c0.0722216,0.253582 -0.116811,0.353745 -0.185744,0.238418l0.0270525 -0.00773665c0.0371617,-0.0105218 0.0776244,-0.0698619 0.0696427,-0.0979202l-0.0102897 -0.0360786c-0.0102768,-0.0359883 -0.0896807,-0.0623703 -0.131368,-0.0504172 -0.0736013,0.0209276 -0.118861,0.0965921 -0.0967984,0.173971l0.00771086 0.0271041c0.0365686,0.128196 0.20301,0.186221 0.335113,0.148557 0.164404,-0.0469228 0.241706,-0.213557 0.194796,-0.377665l-0.0231326 -0.0813509c-0.0522224,-0.182856 -0.225884,-0.31875 -0.346924,-0.386704 -0.106392,-0.059598 -0.360502,-0.124199 -0.517904,-0.079262l-0.135314 0.0385156c-0.264516,0.0754323 -0.676235,0.464302 -0.673127,0.650755l0.0361173 -0.0103413z"/>
   <path id="_122253160" class="fil11" d="M7.31646 5.0048c0.105218,0.230036 0.197787,0.388019 0.263368,0.418656 0.0178717,0.00834269 0.0432092,0.0162341 0.0750713,0.0237386 -0.00578959,-0.0206569 -0.00817506,-0.043841 -0.0139518,-0.0664707 -0.0138873,-0.0543371 -0.0324037,-0.0780628 -0.0593401,-0.126468 -0.0466907,-0.0838782 -0.091228,-0.162973 -0.187124,-0.21486 -0.0252731,-0.0136681 -0.0514616,-0.0252086 -0.0780241,-0.0345957zm0.421054 0.458654c0.251338,0.0421518 0.720514,0.0696556 1.1994,0.0875273 0.00842005,-0.0199863 0.0160535,-0.0443181 0.0226555,-0.0757031l-0.11516 -0.037252c-0.0837879,-0.033951 -0.328434,-0.0290382 -0.394285,-0.0215981 -0.136101,0.0154475 -0.211971,0.0585535 -0.326113,0.0827821 0.118487,-0.314082 0.640865,-0.500639 1.01938,-0.392661 0.0772118,0.0219721 0.148479,0.0653618 0.200328,0.0945805 0.137261,0.0773149 0.247586,0.214408 0.306462,0.370315 0.0784496,0.00168917 0.153676,0.00313334 0.224582,0.004397 -0.00255309,-0.0105734 -0.00519645,-0.0202313 -0.00799454,-0.028819 -0.0124302,-0.0380901 -0.0609003,-0.163501 -0.107088,-0.243086 -0.0527253,-0.0907251 -0.204609,-0.223512 -0.284064,-0.278996 -0.0860573,-0.0600751 -0.18715,-0.111292 -0.324604,-0.150465l-0.0180651 -0.00520934c-0.271453,-0.0773536 -0.663186,-0.00945161 -0.841425,0.0843939 -0.223886,0.117894 -0.406484,0.263691 -0.554009,0.509794zm1.26447 0.0898741c0.0787849,0.00278519 0.15757,0.00532539 0.235426,0.00763349 0.0331515,-0.18871 0.0450144,-0.375756 -0.0320555,-0.397715 -0.0331129,-0.0094645 -0.0661999,-0.0188516 -0.0993386,-0.0283548 -0.0400372,-0.00759481 -0.0800227,-0.0153315 -0.120111,-0.0228876 0.0368393,0.126236 0.0374454,0.28926 0.0160793,0.441324zm0.0845874 -0.7266c-0.102794,-0.0292703 -0.178549,-0.01185 -0.244904,-0.0307532 -0.00197285,-0.000567354 -0.205447,-0.273258 -0.385543,-0.324643l-0.0541694 -0.015512c-0.0971207,-0.0276714 -0.201707,0.022965 -0.229366,0.120021l-0.00510619 0.0182069c-0.0195479,0.0683404 0.0252859,0.124302 0.104419,0.146842 -0.0103671,-0.0279551 -0.0507008,-0.0614161 -0.0373938,-0.108262 0.0124947,-0.04397 0.076696,-0.0756902 0.124986,-0.0619963l0.0180135 0.00518355c0.0541952,0.0154088 0.0928656,0.0849742 0.0774052,0.139182l-0.0154733 0.0541436c-0.0240481,0.0844197 -0.128441,0.119557 -0.221629,0.093059l-0.0180264 -0.00518355c-0.139492,-0.0397535 -0.213583,-0.174797 -0.174113,-0.313296l0.00256599 -0.00892294c0.0267559,-0.0938713 0.0648847,-0.114889 0.0991452,-0.176808 -0.176163,-0.00856189 -0.42638,0.0926206 -0.480639,0.282762l-0.0103284 0.0360915c-0.0722345,0.253633 0.116798,0.353797 0.185731,0.238482l-0.0270654 -0.00778823c-0.0371359,-0.0105089 -0.0776115,-0.0698748 -0.0696169,-0.0979073l0.0102897 -0.0360786c0.0102511,-0.0359754 0.0896807,-0.0623316 0.131394,-0.0504172 0.0735884,0.0209405 0.118848,0.0965792 0.0967597,0.173997l-0.00768507 0.0270783c-0.0365815,0.128196 -0.203023,0.186195 -0.335126,0.148544 -0.164391,-0.0468841 -0.241667,-0.213532 -0.194783,-0.377652l0.0231326 -0.0813509c0.0521966,-0.182843 0.225871,-0.318763 0.346911,-0.386704 0.106405,-0.0596238 0.360502,-0.124173 0.517878,-0.0792491l0.135327 0.0385027c0.264529,0.0754452 0.676235,0.464302 0.673127,0.650755l-0.0361173 -0.0103284z"/>
   <path id="_122252896" class="fil12" d="M11.8098 4.76324c0.167924,-0.0550849 0.326538,-0.118667 0.476229,-0.18889 0.0556394,-0.0463683 0.116527,-0.086341 0.174926,-0.103013l0.0541694 -0.015512c0.00290124,-0.000825243 0.0057767,-0.00157312 0.00869084,-0.00225652 0.160768,-0.088301 0.310124,-0.1839 0.448287,-0.284077 -0.118126,-0.0331129 -0.264929,-0.0514874 -0.36927,-0.0217013l-0.135314 0.0385156c-0.233221,0.0665094 -0.580868,0.376672 -0.657718,0.576935z"/>
   <path id="_122252824" class="fil12" d="M7.80829 4.22066c0.0687014,0.0492825 0.140356,0.0973142 0.215169,0.14376 0.036027,-0.00582828 0.0712674,-0.00803322 0.103929,-0.00644721 -0.0106766,0.0193029 -0.0217658,0.0346473 -0.0327389,0.0494501 0.0453883,0.0268462 0.091834,0.0530992 0.139427,0.0786688 0.0457236,-0.0346989 0.108236,-0.0472838 0.167885,-0.030289l0.0541694 0.015512c0.123915,0.0353565 0.258868,0.17548 0.33167,0.259655 0.107178,0.0379998 0.218754,0.0725311 0.334842,0.103052 -0.00128944,-0.187588 -0.409952,-0.572693 -0.673076,-0.647738l-0.135327 -0.0385027c-0.151767,-0.0433252 -0.393486,0.0151896 -0.505951,0.0728792z"/>
   <path id="_122252560" class="fil12" d="M11.0427 5.57451l0.00983844 -0.000154733 0.000244994 0 0.00337834 -7.73665e-005 0.00336544 -3.86832e-005 0.00339123 -7.73665e-005c0.0655036,-0.00126365 0.134012,-0.00272072 0.204673,-0.00434542 0.0492309,-0.129524 0.133973,-0.245909 0.240171,-0.325661 -0.107926,0.00296572 -0.213196,0.00550592 -0.313373,0.00765928 -0.0148286,0.0182714 -0.0274393,0.0358465 -0.036878,0.0521063 -0.0461878,0.0795843 -0.094645,0.204983 -0.10714,0.243086 -0.00266914,0.00822664 -0.00522224,0.0174461 -0.00767218,0.0275038zm1.46446 -0.372197c0.134437,0.0736271 0.2403,0.175738 0.286024,0.296894 -0.114141,-0.0242415 -0.190038,-0.0673862 -0.326126,-0.0827821 -0.065826,-0.00744008 -0.31051,-0.0123915 -0.394311,0.0215853l-0.115134 0.0372778c0.00629247,0.0299408 0.0135391,0.0534602 0.021495,0.0729308 0.288229,-0.0113729 0.569095,-0.0263046 0.796914,-0.0459815l0.0183745 -0.0016118c0.145565,-0.0128944 0.268346,-0.0277875 0.355989,-0.0449628l0.00246283 -0.000489988c0.00665352,-0.00131523 0.0131265,-0.00265625 0.0193545,-0.00399727 -0.0700038,-0.114283 -0.147834,-0.206556 -0.234059,-0.284464 -0.12251,0.0136939 -0.269829,0.0254665 -0.430983,0.0356015zm0.761015 0.21936c0.00229521,-0.00119918 0.0046162,-0.00252731 0.00697588,-0.00402306 0.00214047,-0.00135391 0.00431963,-0.00283677 0.00651168,-0.00443568 0.00244994,-0.00177943 0.00492567,-0.0036878 0.00744008,-0.0057767 0.00214047,-0.00177943 0.00428095,-0.00364912 0.006473,-0.00564775 0.00242415,-0.00221784 0.00487409,-0.00455173 0.00736271,-0.00702746 0.00260467,-0.00259178 0.00523513,-0.00532539 0.00790428,-0.00820085 0.00238547,-0.00257888 0.00479672,-0.00524803 0.00722087,-0.00804611 0.00273362,-0.00314624 0.00546723,-0.00642142 0.00825243,-0.00983844 0.00232099,-0.00284967 0.00465488,-0.0057638 0.00701456,-0.00880689 0.00257888,-0.00332676 0.00518355,-0.00674378 0.00781402,-0.0102897 0.00291414,-0.0039328 0.00587985,-0.00800743 0.00884557,-0.012211l0.00776244 -0.0112052c0.00306887,-0.00451305 0.00616353,-0.00912925 0.00928398,-0.0139002l0.00697588 -0.0108184c0.00333965,-0.00524803 0.00671799,-0.0106637 0.0101092,-0.0162083l0.00772375 -0.0127655c0.0037007,-0.00620221 0.00741429,-0.0124947 0.0111795,-0.0190193l0.00573801 -0.0100319c0.00412621,-0.00725956 0.00829111,-0.0146867 0.0124818,-0.0223202l0.00602169 -0.0110505c0.00456462,-0.00842005 0.00914214,-0.0169691 0.0137841,-0.0258017l0.00358465 -0.00680825c0.00473225,-0.00906477 0.00954187,-0.0184132 0.0143515,-0.0278906l0.00621511 -0.0123142c0.00478383,-0.00952897 0.00958055,-0.0191998 0.0144289,-0.0291027l0.00366201 -0.00747876c0.00538987,-0.0110763 0.0108442,-0.0224234 0.0163243,-0.033951l0.00363623 -0.00764639 0.00544144 -0.0116437c-0.0863539,0.0517969 -0.128815,0.127113 -0.173146,0.206839 -0.0269364,0.0484056 -0.0454528,0.0721056 -0.0593401,0.12643 -0.00349439,0.0137326 -0.00573801,0.0276456 -0.00826532,0.0411203l0.000232099 -0.000128944zm0.232963 -0.677821c-0.0726342,0.153211 -0.138293,0.267791 -0.192024,0.324862 0.139569,-0.0465617 0.211842,-0.182043 0.192024,-0.324862zm-1.59332 0.487448c-0.0824469,0.00306887 -0.165152,0.00587985 -0.247109,0.00840716 -0.0150091,0.0759223 -0.00265625,0.197001 0.018684,0.319072l0.069733 -0.00220494 0.00367491 -0.00011605 0.00367491 -0.00011605 0.00977397 -0.000335255 0.00126365 -5.15777e-005 0.00367491 -0.00011605 0.00367491 -0.00011605 0.00367491 -0.00011605 0.00130234 -5.15777e-005 0.00606038 -0.000219205 0.00367491 -0.00011605 0.00367491 -0.00011605 0.000193416 -1.28944e-005 0.01087 -0.000373938 0.00367491 -0.00011605 0.00126365 -5.15777e-005 0.00609906 -0.000219205 0.00367491 -0.00011605 0.006473 -0.000232099 0.000915503 -3.86832e-005 0.00367491 -0.00011605 0.0170464 -0.000606038 0.00136681 -5.15777e-005 0.00367491 -0.00011605 0.00141839 -5.15777e-005 0.00581538 -0.000219205 0.000154733 0 0.00367491 -0.000141839 0.00105734 -3.86832e-005 0.00540276 -0.000193416 0.00177943 -6.44721e-005 0.00563486 -0.000206311 0.00168917 -6.44721e-005 0.00594433 -0.000219205 0.0011605 -3.86832e-005 0.00625379 -0.000232099 0.00107024 -3.86832e-005 0.00658905 -0.000244994 0.000515777 -2.57888e-005 0.00687272 -0.000244994 0.000232099 -1.28944e-005 0.00367491 -0.000141839 0.000206311 0 0.00350728 -0.000154733c-0.0148157,-0.106727 -0.0188258,-0.218651 -0.00701456,-0.31942z"/>
   <path id="_122252488" class="fil12" d="M7.31736 5.00673l0.00861347 0.0187227 0.013191 0.0282646 0.0071564 0.0151123c0.00477093,0.0100319 0.00952897,0.0199348 0.0142354,0.0296185l0.00420358 0.00861347c0.00482251,0.00985133 0.00961923,0.0194835 0.0143644,0.0289738l0.00682115 0.0135133 0.0115276 0.0224621 0.00817506 0.0156151c0.00384254,0.00727245 0.00764639,0.0144289 0.0114373,0.0214176l0.00611195 0.0111924c0.00426805,0.00776244 0.00849742,0.0153315 0.0126881,0.02272l0.00477093 0.00838137c0.00497724,0.00865215 0.00991581,0.0170593 0.0147899,0.025157l0.00232099 0.00382964c0.00527382,0.00869084 0.0104703,0.0170335 0.0156022,0.025041l0.0011476 0.00180522c0.00536408,0.00832979 0.0106508,0.0162599 0.0158601,0.0237902l0.000928398 0.00135391c0.00528671,0.0076077 0.0104703,0.0147899 0.0155765,0.0215595l0.000773665 0.00100576c0.0050804,0.0067051 0.0100705,0.0129847 0.0149833,0.0188258l0.000786559 0.000915503c0.00497724,0.00589275 0.00983844,0.0113342 0.0146352,0.0163114l0.000206311 0.000219205c0.00486119,0.00504172 0.00960634,0.00958055 0.0142612,0.0136423l0.000309466 0.000270783c0.00942582,0.00820085 0.0184519,0.0143773 0.0270009,0.0183745 0.00437121,0.00203732 0.00916793,0.00403595 0.014416,0.00602169l3.86832e-005 1.28944e-005 0.000309466 0.00011605 0.00100576 0.000348149c0.00442278,0.00165049 0.00915503,0.00328808 0.0141581,0.00489988l0.0011605 0.000386832 0.00109603 0.000361044 9.02609e-005 2.57888e-005 0.0011605 0.000348149c0.0039199,0.00122497 0.00812348,0.00242415 0.0123786,0.00363623l0.00130234 0.000386832 0.000399727 0.000103155 0.00620221 0.00171496 0.00135391 0.000348149 0.00135391 0.000348149 0.00011605 3.86832e-005 0.0111408 0.00283677 0.00146996 0.000373938 0.00145707 0.000348149 0.00446147 0.00108313c-0.00578959,-0.0206569 -0.00817506,-0.043841 -0.0139518,-0.0664707 -0.0138873,-0.0543371 -0.0324037,-0.0780628 -0.0593401,-0.126468 -0.0466907,-0.0838782 -0.091228,-0.162973 -0.187124,-0.21486 -0.0252731,-0.0136681 -0.0514616,-0.0252086 -0.0780112,-0.0345957l0.00087682 0.00194706zm2.4066 0.246528c-0.098926,-0.00199863 -0.203783,-0.00434542 -0.311942,-0.0071564 0.105373,0.0800356 0.189432,0.19624 0.238173,0.325326l0.00076077 1.28944e-005c0.0778565,0.00167627 0.152502,0.00309466 0.222919,0.00435831l0.000902609 2.57888e-005c-0.00255309,-0.0105734 -0.00519645,-0.0202313 -0.00799454,-0.028819 -0.0124302,-0.0380901 -0.0609003,-0.163501 -0.107088,-0.243086 -0.00918082,-0.0158086 -0.0214305,-0.0329323 -0.0357304,-0.0506622zm-0.467139 -0.0114373c-0.0816603,-0.00238547 -0.16443,-0.00501593 -0.247225,-0.00794296 0.0115276,0.100899 0.00736271,0.212874 -0.0076077,0.319433l0.00367491 0.00011605c0.0763349,0.00269493 0.152618,0.00515777 0.228076,0.00740139l0.00367491 0.00011605c0.021366,-0.121659 0.0338607,-0.242634 0.0194061,-0.319124zm-0.853958 -0.0356273c-0.158614,-0.00934845 -0.305546,-0.0201927 -0.43137,-0.0327518 -0.0863152,0.0792749 -0.164069,0.173378 -0.233969,0.289995l0.0119144 0.00194706 0.00259178 0.000412621c0.0275296,0.00440989 0.0574446,0.00866505 0.0895259,0.0127526l1.28944e-005 0 0.0142999 0.00177943c0.032481,0.00402306 0.0671025,0.00789138 0.103529,0.011605l0.0151638 0.00152154 0.0220623 0.00216626 0.0168659 0.00158601c0.0566194,0.0052996 0.117043,0.0102511 0.180483,0.0149317l0.0191224 0.00140549 0.0338994 0.00239836 0.00698877 0.000489988 0.0370457 0.00250152 0.000270783 1.28944e-005 0.0199477 0.00128944 0.0189806 0.00122497 0.00113471 7.73665e-005 0.0202313 0.00125076 0.0204119 0.00126365 0.0272588 0.0016247 0.0202571 0.00119918c0.0394569,0.00229521 0.0795585,0.00447436 0.12024,0.00658905l0.0214692 0.00109603 0.0215853 0.00110892 0.00199863 9.02609e-005 0.0320297 0.00156022 0.0183745 0.000889715c0.0404369,0.00193416 0.0812993,0.00376517 0.122432,0.0055446l0.000528671 2.57888e-005 0.00326229 0.000141839 0.018929 0.000786559 0.0222558 0.000941292 0.000141839 0 0.0348278 0.00143128 0.0297603 0.00118629 0.00226942 9.02609e-005 0.00640852 0.000257888 0.016002 0.000631826 0.0224234 0.000851031 0.0191998 0.000747876 0.00326229 0.00011605c0.00842005,-0.0199863 0.0160535,-0.0443181 0.0226555,-0.0757031l-0.11516 -0.037252c-0.0837879,-0.033951 -0.328434,-0.0290382 -0.394285,-0.0215981 -0.136101,0.0154475 -0.211971,0.0585535 -0.326113,0.0827821 0.0448984,-0.119003 0.14777,-0.219695 0.278842,-0.293z"/>
  </g>
 </g>
</svg>
