<?xml version="1.0" encoding="UTF-8"?>
<!DOCTYPE svg PUBLIC "-//W3C//DTD SVG 1.1//EN" "http://www.w3.org/Graphics/SVG/1.1/DTD/svg11.dtd">
<!-- Creator: CorelDRAW 2020 (64-Bit) -->
<svg xmlns="http://www.w3.org/2000/svg" xml:space="preserve" width="161.908mm" height="176.792mm" version="1.1" style="shape-rendering:geometricPrecision; text-rendering:geometricPrecision; image-rendering:optimizeQuality; fill-rule:evenodd; clip-rule:evenodd"
viewBox="0 0 857.89 936.76"
 xmlns:xlink="http://www.w3.org/1999/xlink"
 xmlns:xodm="http://www.corel.com/coreldraw/odm/2003">
 <defs>
  <style type="text/css">
   <![CDATA[
    .fil0 {fill:none}
    .fil3 {fill:#3EA38B}
    .fil1 {fill:#501D33}
    .fil9 {fill:#525B75}
    .fil2 {fill:#55DF99}
    .fil7 {fill:#65798E}
    .fil4 {fill:#8FF0A7}
    .fil10 {fill:#C8B99F}
    .fil6 {fill:#D77D75}
    .fil5 {fill:#FFCFA5}
    .fil8 {fill:white}
    .fil11 {fill:white;fill-rule:nonzero}
   ]]>
  </style>
 </defs>
 <g id="Слой_x0020_1">
  <metadata id="CorelCorpID_0Corel-Layer"/>
  <rect id="_135244968" class="fil0" x="-0" width="857.89" height="936.76"/>
  <path id="_123309408" class="fil1" d="M624.57 97.17c88.47,39.7 160.98,193.15 167.45,273.98 7.4,92.6 6.26,148.95 -47.75,262.08 0,0 -12.34,23.67 -52.48,13.91 -17.65,1.24 -35.01,-4.02 -43.6,-16.35 -0.21,-0.3 -23.03,-3.79 -33.79,-14.27 -4.88,-4.75 -7.99,-8.98 -6.23,-17.63 2.3,-11.32 5.69,-25.19 5.69,-25.19 0,0 -19.96,-19.9 -16.69,-28.37 3.27,-8.47 44.09,-43.84 44.16,-44.18 28.01,-128.44 0.54,-238.01 -72.84,-326.51l-58.96 -78.07c29.62,-8.74 83.64,-13.49 115.05,0.6l0 -0 0 0 0 0 0 -0z"/>
  <path id="_123309336" class="fil1" d="M234.45 97.17c-88.47,39.7 -160.98,193.15 -167.45,273.98 -7.4,92.6 -6.26,148.95 47.75,262.08 0,0 11.89,23.97 52.03,14.21 17.95,1.68 35.6,-5.66 44.2,-17.99 0.21,-0.3 22.88,-2.45 33.64,-12.93 4.88,-4.75 7.99,-8.98 6.23,-17.63 -2.3,-11.32 -5.69,-25.19 -5.69,-25.19 0,0 19.96,-19.9 16.69,-28.37 -3.27,-8.47 -44.09,-43.84 -44.16,-44.18 -28.01,-128.44 -0.54,-238.01 72.84,-326.51l58.96 -78.07c-29.62,-8.74 -83.64,-13.49 -115.05,0.6l0 -0 -0 0 -0 0 0 -0z"/>
  <path id="_123309264" class="fil1" d="M267.85 486.54c-15.68,-95.29 -22.98,-258.41 -32.51,-333.07 16.81,-69.24 149.07,-48.01 194.13,-38.64 45.05,-9.36 177.31,-30.6 194.13,38.64 -9.52,74.66 -18.62,237.48 -34.3,332.77 -83.89,32.62 -237.56,32.92 -321.45,0.3l-0 0 0 -0 0 0z"/>
  <path id="_123309192" class="fil2" d="M281.54 479.73c-15.5,-101.1 -26.9,-214.4 -33.33,-315.24 13.02,-53.6 95.61,-80.9 178.88,-81.54l4.78 0c83.27,0.63 165.86,27.94 178.88,81.54 -6.43,100.85 -17.83,214.15 -33.33,315.24 -81.48,26.18 -214.39,26.18 -295.87,0l-0 -0 -0 0z"/>
  <path id="_123309120" class="fil3" d="M281.54 479.73c-12.55,-81.85 -22.41,-171.7 -29.12,-256.47 0.81,-3.78 1.54,-5.99 2.15,-6.23l40.61 246.62c0,0 100.09,44.93 269.75,0.72l40.62 -252.11c0,0 0.45,2.93 1.21,8.06 -6.72,85.63 -16.66,176.61 -29.36,259.41 -81.48,26.17 -214.39,26.18 -295.87,0l0 0 0 0 -0 -0z"/>
  <polygon id="_123309024" class="fil3" points="265.75,340.97 379.66,399.72 280.89,388.44 "/>
  <polygon id="_123308952" class="fil3" points="573.86,406.77 438.29,448.27 578.04,431.85 578,417.23 "/>
  <polygon id="_123308880" class="fil4" points="353.67,407.38 433.02,440.8 564.87,402.91 433.1,416.55 "/>
  <path id="_123308808" class="fil5" d="M615.68 217.79l-86.18 -119.24c58.69,-2.59 92.42,-0.05 135.14,43.77 60.76,62.31 104.44,156.31 115.32,243.32 10.94,87.58 -5.77,164.37 -46.3,243.77 0,0 -4.92,14.49 -35.93,10.91 0,0 9.02,-15.96 8.41,-17.33 -0.61,-1.38 -15.72,16.03 -15.72,16.03 0,0 -19.08,0.07 -34.66,-13.37 0,0 -0.06,-21.56 -1.42,-21.51 -1.35,0.05 -5.69,15.96 -5.69,15.96l-20.38 -5.38c-9.31,-4.38 -12.22,-5.07 -9.69,-16.6 1.93,-8.81 5.16,-23.66 12.25,-48.6 -1.96,-2.31 -6.69,8.52 -10.16,14.48 0,0 -11.16,-12.32 -10.68,-16.52 0.48,-4.2 39.54,-34.57 39.54,-34.57 31.57,-99.05 10.22,-217.37 -33.86,-295.11l0 -0 0 0 0 -0z"/>
  <path id="_123308736" class="fil6" d="M615.68 217.79l-2.15 -2.98c0.57,-0.32 1.13,-0.67 1.7,-0.95 0,0 93.86,106.51 62.95,261.34 11.39,-0.15 26.24,1.57 36.08,2.09 12.18,0.64 40.72,14.59 62.85,28.05 -3.11,17.08 -7.39,33.96 -12.8,50.78 -31.11,-23.94 -71.5,-34.79 -97.15,-39.55 -10.03,30.11 -24.94,61.69 -46.18,94.39 -3.35,-2.35 -4.06,-5.23 -2.39,-12.85 1.93,-8.81 5.16,-23.66 12.25,-48.6 -1.96,-2.31 -6.69,8.52 -10.16,14.48 0,0 -11.16,-12.32 -10.68,-16.52 0.43,-3.79 32.25,-28.86 38.48,-33.74l0.09 -0.07 0.97 -0.75c0.47,-1.49 0.94,-2.99 1.39,-4.48l0.1 -0.34c0.42,-1.39 0.82,-2.79 1.22,-4.19l0.19 -0.68c0.36,-1.27 0.7,-2.53 1.04,-3.81l0.3 -1.13c0.28,-1.08 0.56,-2.16 0.83,-3.25 0.16,-0.64 0.32,-1.29 0.48,-1.94 0.19,-0.79 0.38,-1.58 0.57,-2.37 0.26,-1.11 0.52,-2.22 0.77,-3.33l0.16 -0.73 0.11 -0.5c0.26,-1.2 0.52,-2.4 0.77,-3.6l0.19 -0.93 0.1 -0.5 0 0c18.61,-91.68 -2.63,-193.76 -42.08,-263.34l0 0 0 0z"/>
  <path id="_123308664" class="fil7" d="M765.84 551.27l-0.89 0.97 -0.31 -0.28 0.14 0.76c0.2,0.02 0.4,0.04 0.59,0.06 0.16,-0.5 0.31,-1 0.47,-1.5zm-8.96 -258.66c5.15,14 9.6,28.17 13.29,42.36 -14.13,8.44 -23.61,29.28 -20.78,45l1.23 6.83c0.44,2.42 1.28,2.75 1.72,5.18 1.72,1.78 2.81,5.04 5.42,7.5 1.76,1.66 4.98,3.45 7.5,4.02 6,1.36 15.71,-0.53 14.47,-7.43l-0.27 -1.52c-0.18,-1.02 -0.37,-1.01 -0.72,-1.83 -1.53,0.72 -2.29,2.76 -4.9,3.23 -2.12,0.38 -4.6,-1.61 -5.07,-4.18 -0.64,-3.56 1.64,-6.17 5.05,-6.78 2.31,-0.42 4.42,0.04 6.21,1.1 0.91,7.32 1.62,14.57 2.14,21.75 -2.56,2.88 -6.18,4.96 -10.28,5.7l-1.14 0.2c-3.87,0.7 -7.78,0.72 -10.59,-0.05 2.35,5.01 14.7,8.31 22.76,7.25 0.24,5.99 0.35,11.94 0.33,17.85 -7.46,-1.36 -15.71,-2.13 -20.75,-1.22 1.65,9.19 12.36,20.78 12.58,22.02 0.08,0.45 -3.23,7.68 -2.64,11.45 -3.14,0.3 -8.69,-7.84 -11.89,-7.26l-0.76 0.14c-2.48,0.45 -1.97,6.47 -1.47,9.27 1.96,10.9 10.39,19.61 20.62,21.27 -0.45,2.98 -0.94,5.96 -1.47,8.93 -4.39,-0.83 -8.61,-2.32 -10.17,-2.04 -0.89,0.16 -1.4,0.9 -1.25,1.79 0.84,4.66 4.56,8.43 9.39,10.83 -2.37,11.51 -5.27,22.93 -8.69,34.32 -4.83,5.35 -11.88,10.53 -21.35,12.24l-0.38 0.07c-22.97,4.13 -29.37,-18.62 -40.23,-16.66l-2.66 0.48c-2.11,0.38 -4.91,3.19 -4.5,5.51l0.41 2.28c0.39,2.16 4.03,4.37 6.2,3.98l0.38 -0.07c1.39,-0.25 2.85,-1.59 2.63,-2.82l-0.27 -1.52c-1.75,0.82 -1,1.75 -2.38,2l-0.38 0.07c-0.91,0.17 -2.52,-0.95 -2.69,-1.87l-0.41 -2.28c-0.22,-1.21 1.46,-3 2.94,-3.27l2.28 -0.41c2.15,-0.39 5.22,2.87 5.72,5.63l0.07 0.38c0.81,4.5 -1.68,7.75 -6.3,8.58l-0.76 0.14c-5.81,1.05 -12.01,-3.6 -13.06,-9.4l-0.14 -0.76c-1,-5.56 2.59,-10.26 8.17,-11.26l3.79 -0.68c3.21,-0.58 8.11,1.21 10.3,2.38 2.53,1.35 6.84,5.72 7.69,6.13 1.4,-4.37 2.84,-8.37 9.27,-9.03 4.93,-0.5 9.72,1.26 10.68,6.62 0.58,3.22 -0.61,5.98 -3.91,6.58l-1.52 0.27c-1.18,0.22 -3.44,-1.69 -3.72,-3.25 -0.37,-2.05 0.9,-3.52 2.8,-4.03 -0.7,-1.61 -1.92,-2.79 -3.96,-2.42 -3.01,0.55 -4.31,4.41 -3.78,7.34 1.03,5.71 7.28,6.2 12.64,6.19 5.04,-0.01 12,-3.91 15.1,-5.85 6.96,-4.37 13.91,-15.06 12.1,-25.13l-0.21 -1.14c-0.87,-4.83 -7.34,-12 -11.81,-11.2 -3.66,0.66 -7.59,10.08 -7,13.41l0.48 2.66c1.38,7.71 7.01,11.16 10.98,15.26l-4.9 4.94c-3.2,-1.47 -6.66,-5.07 -9.15,-7.66 -1.9,-1.98 -5.88,-8.7 -8.6,-7.7l-10.26 3.7 -2.37 0.14c-10.05,1.81 -22.56,-1.6 -28.57,-5.73 -3.89,-2.68 -7.18,-4.74 -10.55,-8.24 -4.06,-4.2 -4.96,-7.13 -8.2,-11.61l3.49 -0.15 5.69 -1.11c4.72,10.94 21.69,21.57 35.95,19l1.9 -0.34c5.67,-1.02 10.27,-4.34 13.35,-7.33 2.02,-1.97 6.01,-9.23 5.42,-12.5l-0.34 -1.9c-0.16,-0.87 -0.47,-1.09 -1.34,-0.93 -2.37,0.43 -10.09,7.3 -16.13,8.39l-1.14 0.21c0.13,-1.54 2.92,-6.77 3.59,-9.13 0.84,-2.98 4.36,-5.09 6.43,-7.16 3.42,-3.43 7.14,-12.56 5.96,-19.1l-0.89 -4.93c-0.35,-1.93 -2.25,-6.26 -4.2,-5.91 -3.31,0.6 -10.19,14.38 -13.08,17.48 -2.86,3.04 -12.42,13.75 -16.83,14.54 -1.89,0.34 -5.91,-5.62 -6.51,-7.84 11.3,-5.3 27.74,-33.17 25.08,-48 -11.7,2.1 -25.01,11.75 -31.98,17.63 -8.04,6.79 -13.3,18.28 -10.77,32.37 -2.52,1.43 -3.51,2.91 -8.34,3.43l-1.05 -4.86c-1.05,-3.56 0.16,-13.55 0.73,-16.21 1.19,-5.5 3.26,-8.43 4.72,-12.99 -13.33,3.56 -23.09,24.15 -20.23,40.07 0.58,3.25 2.07,6.34 3.05,8.58 4.78,10.92 18.23,18.94 30.51,16.73l8.81 5.48c-1.8,0.47 -2.23,1.17 -4.41,1.56l-6.46 1.16c-5.06,0.91 -13.03,-0.63 -16.45,-2.13 -1.51,-0.66 -6.44,-3.16 -9.5,-5.37 -3.49,-2.53 -8.3,-9.28 -10.24,-12.76 -0.87,-1.56 -1.67,-3.22 -2.38,-5.04 5.43,-17.2 9.27,-34.97 11.68,-53.01 4.65,-4.85 10.25,-8.89 17.7,-12.1 -0.53,-2.61 -2.84,-2.64 -4.94,-3.41 -2.16,-0.79 -3.06,-1.65 -4.93,-2.95 -2,-1.39 -3.94,-2.75 -5.53,-4.56 0.52,-7.8 0.79,-15.62 0.83,-23.45 1.26,-0.88 2.77,-1.52 4.53,-1.83l1.52 -0.27c5.04,-0.91 11.08,2.73 11.96,7.64l0.2 1.14c0.61,3.38 -1.62,7.34 -4.85,7.92l-1.52 0.27c-1.99,0.36 -4.48,-0.94 -4.86,-3.04l-0.21 -1.14c-0.33,-1.84 0.66,-3.25 2.49,-3.58l1.52 -0.28c2.18,-0.39 1.84,0.75 3.69,0.91 -1.77,-2.46 -2.38,-4.67 -6.96,-3.84l-0.38 0.07c-3.61,0.65 -5.39,4.88 -4.78,8.31l0.27 1.52c1.44,8.04 15.97,12.8 24.75,11.22l4.18 -0.75c10.28,-1.85 18.45,-8.67 21.49,-15.62 -2.99,1.29 -4.66,2.8 -9.15,3.6l-1.52 0.27c-8.98,1.61 -18.09,-2.54 -19.61,-10.97l-0.41 -2.27c-1.01,-5.63 1.98,-11.72 7.51,-12.71l1.14 -0.21c2.82,-0.51 5.88,2.19 6.41,5.12 0.39,2.17 -1.84,5.03 -4.12,5.44 -1.67,0.3 -3.8,-0.95 -4.96,-1.46 -1.36,4.92 3.4,9.18 8.16,8.33l3.42 -0.61c4.74,-0.85 8.94,-6.32 10.4,-9.71 2.03,-4.69 2.76,-8.62 1.51,-15.55 -4.05,-22.54 -24.6,-43.37 -46.29,-39.47 -3.1,0.56 -6.53,1.36 -9.63,2.75 -0.4,-2.81 -0.83,-5.6 -1.28,-8.39 1.83,-0.87 4.88,-2.59 9.55,-3.94 1.5,-0.44 2.39,-0.79 4.53,-1.17l2.66 -0.48c-0.73,-4.03 -4.03,-7.17 -4.64,-10.53l-0.61 -3.42c-0.34,-1.88 5.45,-2.94 7.63,-3.33l1.9 -0.34c1.25,6.94 8.45,12.58 15.37,11.34l1.14 -0.2c2.45,-0.44 3.8,-2.85 3.36,-5.31 -1.08,-6.02 -11.19,-8.96 -17.86,-7.76l-4.18 0.75c-8.46,1.52 -17.52,6.9 -20.72,13.7 -0.61,-3.24 -1.26,-6.46 -1.94,-9.66 5.89,-5.9 13.25,-10.18 21.29,-11.63l7.59 -1.37c3.45,-0.62 6.6,-0.29 9.46,-0.22 2.42,0.05 7.33,1.13 8.69,0.88 2.38,-0.43 5.5,-4.88 6.26,-6.61l9.14 2.56c-1.64,3.79 -5.49,6.79 -4.37,13.03l0.41 2.27c0.67,3.73 5.7,7.99 9.92,7.23 3.56,-0.64 5.99,-5.95 5.33,-9.58l-0.48 -2.66c-1.14,-6.34 -7.22,-9.89 -11.69,-11.85 -2.99,-1.31 -13.46,-4.01 -17.29,-3.32l-5.32 0.96c-2.62,0.47 -7.46,3.26 -9.11,4.63 -1.65,1.36 -8.08,2.38 -11.09,2.92 3.21,-7.33 12.48,-13.61 23.46,-15.58l2.28 -0.41c17.65,-3.18 32.65,10.98 37.11,10.17 3.03,-0.55 10.19,-5.36 16.09,-6.42 2.12,0.93 4.72,3.62 5.47,6.46 -6.83,1.23 -15.53,7.35 -14.41,13.56 0.44,2.46 2.55,4.24 5,3.8l1.14 -0.2c5.7,-1.03 11.32,-8.98 10.41,-14.02l-0.48 -2.66c-1.29,-7.16 -11.45,-12.04 -18.78,-10.73l-3.04 0.55c-4.47,0.8 -6.46,2.79 -10.29,3.81l-9.12 -3.96c4.56,-2.21 7.09,-5.08 13.56,-6.24l4.94 -0.89c6.3,-1.13 13.4,0.05 19.42,2.95zm26 161.24c-0.56,12.96 -1.77,25.73 -3.62,38.39 -2.2,-2.23 -3.84,-6.74 -4.34,-9.52l-0.96 -5.31c-1.56,-8.69 2.05,-18.7 8.92,-23.55zm-119.37 -71.88c-0.16,-2.23 -0.35,-4.45 -0.55,-6.67 1.71,-0.73 2.52,-1.98 2.07,-4.45 -1.05,0.49 -1.47,1.26 -2.32,1.76 -0.33,-3.39 -0.69,-6.78 -1.1,-10.16l0.71 -0.13c4.07,-0.73 8.78,3.04 9.54,7.29 0.87,4.83 -3.24,10.59 -8.36,12.35zm51.39 124.47c-8.03,-0.41 -17.11,-7.97 -18.87,-17.76l-0.2 -1.14c-0.94,-5.24 0.55,-11.46 5.61,-12.37 3.41,-0.61 7.29,1.72 9.86,2.54 0.81,-0.78 4.68,-6.68 4.53,-7.47 -0.52,-2.86 -11.06,-4.28 -15.52,-3.48 -13.74,2.47 -16.22,18.01 -11.3,30.68 3.83,9.86 12.54,18.07 21.34,16.48 1.11,-0.2 4.14,-6.23 4.54,-7.47zm-21.89 0.41c-1.72,-2.89 -3.45,-5.78 -5.17,-8.67 -8.17,2.4 -21.57,2.82 -30.14,-0.64 0.15,1.67 0.3,3.34 0.45,5 0.25,1.39 0.5,2.79 0.75,4.18 1.11,6.18 28.08,1.61 32.67,0.78 0.6,-0.11 1.01,-0.39 1.44,-0.65zm34.75 -16.04l-1.16 -6.45c-0.26,-1.45 0.09,-0.16 -0.58,-1.07 -0.51,0.49 -7.15,8.61 -7.24,8.92 -1.01,3.67 0.38,7.96 -1.54,12.88 -2.41,6.19 -8.31,14.69 -14.69,17.68 0.99,2.11 6.36,3.61 8.61,4.33 8.39,-6.57 19.09,-22.47 16.6,-36.29z"/>
  <path id="_123308592" class="fil8" d="M629.85 114.27c11.39,6.6 22.73,15.68 34.79,28.05 60.76,62.31 104.44,156.31 115.32,243.32 5.23,41.88 4.14,81.29 -2.86,119.7 -4.22,-2.57 -8.69,-5.16 -13.22,-7.67 26.51,-149.84 -33.68,-294.8 -134.03,-383.4l0 -0 0 0 0 -0zm147.24 391.12c-1.54,8.46 -3.37,16.86 -5.48,25.24 2.11,-8.38 3.94,-16.78 5.48,-25.24zm-5.68 26.06c-1.22,4.81 -2.54,9.61 -3.95,14.41 1.41,-4.79 2.73,-9.6 3.95,-14.41zm-4.18 15.2c-0.25,0.83 -0.5,1.67 -0.75,2.5 0.25,-0.83 0.5,-1.67 0.75,-2.5zm-1.1 3.66c-0.25,0.82 -0.5,1.63 -0.76,2.45 0.25,-0.82 0.51,-1.63 0.76,-2.45zm-1.08 3.49c-0.24,0.77 -0.49,1.54 -0.73,2.3 0.25,-0.77 0.49,-1.54 0.73,-2.3zm-0.74 2.32c-7.86,24.45 -18.11,48.74 -30.65,73.29 0,0 -0.42,1.22 -1.77,2.87 -8.96,-1.25 -18.02,-3.28 -26.9,-5.81 0.82,-1.79 1.31,-3.14 1.15,-3.5 -0.18,-0.41 -1.64,0.83 -3.6,2.79 -17.28,-5.1 -33.78,-11.95 -47.41,-18.37 -0.19,-1.97 -0.45,-3.28 -0.78,-3.27 -0.3,0.01 -0.71,0.93 -1.16,2.35 -9,-4.3 -16.64,-8.34 -22.29,-11.47 0.48,-0.8 0.95,-1.61 1.42,-2.41 39.89,11.23 95.07,16.85 95.07,16.85 9.99,-20.55 18.11,-41.24 24.48,-61.96 4.27,2.67 8.44,5.54 12.45,8.62zm-143.71 32.94l-0 -0 0.02 -0.08 0 0 -0.02 0.08z"/>
  <g>
   <path id="_123308520" class="fil9" d="M669.17 315.73c0.77,2.4 1.51,4.83 2.24,7.3 -6.16,2.49 -11.72,6.74 -14.08,11.76l-0.26 -1.37 -0.03 -0.15 -0 -0.02 -0.28 -1.44c-0.17,-0.88 -0.35,-1.75 -0.52,-2.63l-0.03 -0.15 -0.03 -0.15 -0.03 -0.15 -0 -0.01 -0.17 -0.81c-0.19,-0.93 -0.39,-1.86 -0.58,-2.79 4,-4.01 8.68,-7.27 13.79,-9.4zm2.66 8.7c1.29,4.46 2.5,9.04 3.64,13.73 -1.17,-3.24 -3.65,-5.94 -4.17,-8.8l-0.61 -3.42c-0.1,-0.58 0.37,-1.08 1.14,-1.51zm4.06 15.46c0.84,3.56 1.64,7.19 2.37,10.88 -2.68,-0.25 -5.4,-0.15 -8.15,0.34 -3.1,0.56 -6.53,1.36 -9.63,2.75 -0.17,-1.16 -0.34,-2.32 -0.51,-3.48l-0.19 -1.25 -0.02 -0.13 -0.02 -0.13 -0.02 -0.13c-0.12,-0.79 -0.25,-1.57 -0.37,-2.36l-0.02 -0.13 -0.02 -0.13 -0.02 -0.13 -0.08 -0.52c1.83,-0.87 4.88,-2.59 9.55,-3.94 1.5,-0.44 2.39,-0.79 4.53,-1.17l2.61 -0.47zm7.52 97.66c-0.97,12.19 -2.66,24.75 -5.24,37.65 1.42,-0.02 2.89,-0.01 4.4,0.02 -2.11,5.56 -2.85,12.09 -1.56,19.29 -2.52,1.43 -3.51,2.91 -8.34,3.43l-1.05 -4.86c-1.05,-3.56 0.16,-13.55 0.73,-16.21 1.19,-5.5 3.26,-8.43 4.72,-12.99 -13.33,3.56 -23.09,24.15 -20.23,40.07 0.58,3.25 2.07,6.34 3.05,8.58 1.33,3.05 3.34,5.87 5.81,8.3 -1.05,3.03 -2.15,6.07 -3.3,9.13l-0.01 -0.01c-3.49,-2.53 -8.3,-9.28 -10.24,-12.76 -0.87,-1.56 -1.67,-3.22 -2.38,-5.04 0.39,-1.25 0.78,-2.5 1.16,-3.75l0.1 -0.34c0.32,-1.07 0.63,-2.14 0.94,-3.21l0 -0 0.28 -0.98 0.19 -0.68 0.17 -0.62 0.02 -0.07 0.01 -0.03 0.02 -0.06 0 -0.01 0 -0.01 0.09 -0.32 0.01 -0.02 0.11 -0.41 0.02 -0.06 0 -0 0.01 -0.02 0.13 -0.46 0.02 -0.06 0.02 -0.06 0.05 -0.18 0.01 -0.04 0.05 -0.19 0 -0 0.02 -0.06 0.02 -0.06 0.02 -0.06 0 -0.01 0.06 -0.23 0.02 -0.06 0.02 -0.06 0.02 -0.06 0.01 -0.03 0.01 -0.03 0.02 -0.06 0.02 -0.06 0.02 -0.06 0.02 -0.06 0.02 -0.06 0.02 -0.06 0.02 -0.06 0.02 -0.06 0 -0.01 0.01 -0.05 0.3 -1.13 0.02 -0.1 0.02 -0.09 0 -0.02 0.01 -0.05 0.15 -0.56 0.01 -0.05 0.09 -0.35 0.01 -0.05 0.04 -0.15 0 -0 0.01 -0.05 0.03 -0.13 0.02 -0.07 0.01 -0.05 0.01 -0.05 29.18 -58.95zm5.34 37.91c3.4,0.18 6.88,0.43 10.26,0.7 -3.1,2.16 -3.95,7.1 -3.18,11.37l0.2 1.14c1.76,9.79 10.84,17.35 18.87,17.76 -0.4,1.25 -3.42,7.28 -4.54,7.47 -8.81,1.59 -17.52,-6.63 -21.34,-16.48 -2.88,-7.4 -3.23,-15.78 -0.28,-21.96zm20.67 1.51c0.81,0.06 1.59,0.11 2.36,0.16 -0.2,0.26 -0.36,0.46 -0.47,0.56 -0.57,-0.18 -1.21,-0.44 -1.89,-0.72zm3.97 0.26l0.87 0.05c3.02,0.16 7.04,1.13 11.72,2.72 -1.58,2.53 -2.99,4.76 -3.96,5.8 -2.86,3.04 -12.42,13.75 -16.83,14.54 -1.89,0.34 -5.91,-5.62 -6.51,-7.84 4.59,-2.16 10.04,-8.04 14.7,-15.27zm26.66 8.4c10.02,4.5 21.15,10.34 31.38,16.31 -1.85,-0.46 -3.33,-0.77 -4.13,-0.63 -0.89,0.16 -1.4,0.9 -1.25,1.79 0.84,4.65 4.56,8.43 9.39,10.83 -2.37,11.51 -5.27,22.94 -8.69,34.33 -1.66,1.84 -3.59,3.66 -5.79,5.33 -1.88,-1.36 -3.79,-2.68 -5.72,-3.96l0.19 -0.12c6.96,-4.37 13.91,-15.06 12.1,-25.13l-0.21 -1.14c-0.87,-4.83 -7.34,-12 -11.81,-11.2 -3.66,0.66 -7.59,10.08 -7,13.41l0.48 2.66c1.38,7.71 7.01,11.16 10.98,15.26l-4.9 4.94c-3.2,-1.47 -6.66,-5.07 -9.15,-7.66 -1.9,-1.98 -5.88,-8.7 -8.6,-7.7l-7.58 2.73c-5.56,-2.52 -11.14,-4.77 -16.64,-6.77 3.16,0.54 6.34,0.59 9.4,0.04l1.9 -0.34c5.67,-1.02 10.27,-4.34 13.35,-7.33 2.02,-1.97 6.01,-9.23 5.42,-12.5l-0.34 -1.9c-0.16,-0.87 -0.47,-1.09 -1.34,-0.93 -2.37,0.43 -10.09,7.3 -16.13,8.39l-1.14 0.21c0.13,-1.54 2.92,-6.77 3.59,-9.13 0.84,-2.98 4.36,-5.09 6.43,-7.16 2.38,-2.38 4.9,-7.52 5.82,-12.63zm25.79 65.64l-0.46 1.49c-0.19,-0.02 -0.39,-0.04 -0.59,-0.06l-0.14 -0.76 0.31 0.28 0.88 -0.96zm-26.07 -10.7c-1.56,-0.81 -3.13,-1.61 -4.7,-2.37 1.83,0.34 3.48,1.1 4.7,2.37zm-37.44 -15.3c-6.7,-2.11 -13.18,-3.87 -19.25,-5.33 -2.15,-2.83 -3.27,-5.33 -5.71,-8.72l3.49 -0.15 5.69 -1.11c2.52,5.85 8.55,11.61 15.79,15.31zm-47.73 -30.23l0 -0.02 0 -0.01c2.95,-11.78 5.22,-23.77 6.84,-35.88 4.65,-4.85 10.25,-8.89 17.7,-12.1 -0.53,-2.61 -2.84,-2.64 -4.94,-3.41 -2.16,-0.79 -3.06,-1.65 -4.93,-2.95 -2,-1.39 -3.94,-2.75 -5.53,-4.56 0.52,-7.8 0.79,-15.62 0.83,-23.45 1.26,-0.88 2.77,-1.52 4.53,-1.83l1.52 -0.27c5.04,-0.91 11.08,2.73 11.96,7.64l0.2 1.14c0.61,3.38 -1.62,7.34 -4.85,7.92l-1.52 0.27c-1.99,0.36 -4.48,-0.94 -4.86,-3.04l-0.21 -1.14c-0.33,-1.84 0.66,-3.25 2.49,-3.58l1.52 -0.28c2.18,-0.39 1.84,0.75 3.69,0.91 -1.77,-2.46 -2.38,-4.67 -6.96,-3.84l-0.38 0.07c-3.61,0.65 -5.39,4.88 -4.78,8.31l0.27 1.52c1.03,5.73 8.7,9.79 16.2,11.08l-28.81 57.5zm8.43 -119.09l-0.02 -0.21 -0.04 -0.46c1.71,-0.73 2.52,-1.98 2.07,-4.45 -1.05,0.49 -1.47,1.26 -2.32,1.76 -0.33,-3.39 -0.69,-6.78 -1.1,-10.16l0.71 -0.13c4.07,-0.73 8.78,3.04 9.54,7.29 0.87,4.83 -3.24,10.59 -8.36,12.35 -0.15,-2 -0.31,-4.01 -0.49,-6zm29.99 130.89c-1.72,-2.89 -3.45,-5.78 -5.17,-8.67 -8.17,2.4 -21.57,2.82 -30.14,-0.64 0.15,1.67 0.3,3.34 0.45,5 0.25,1.39 0.5,2.79 0.75,4.18 1.11,6.18 28.08,1.61 32.67,0.78 0.6,-0.11 1.01,-0.39 1.44,-0.65zm34.75 -16.04l-1.16 -6.45c-0.26,-1.45 0.09,-0.16 -0.58,-1.07 -0.51,0.49 -7.15,8.61 -7.24,8.92 -1.01,3.67 0.38,7.96 -1.54,12.88 -2.41,6.19 -8.31,14.69 -14.69,17.68 0.99,2.11 6.36,3.61 8.61,4.33 8.39,-6.57 19.09,-22.47 16.6,-36.29z"/>
  </g>
  <path id="_123308448" class="fil5" d="M617.31 547.65c0,0 6.4,-13.25 22.78,-21.59 16.38,-8.34 -11.32,21.89 -22.78,21.59z"/>
  <path id="_123308376" class="fil6" d="M735.41 625.94c-0.58,1.16 -1.16,2.32 -1.75,3.47 0,0 -4.92,14.49 -35.93,10.91 0,0 9.02,-15.96 8.41,-17.34 -0.61,-1.38 -15.72,16.04 -15.72,16.04 0,0 -19.08,0.07 -34.66,-13.38 0,0 -0.06,-21.56 -1.42,-21.51 -1.35,0.05 -4.65,17.6 -4.65,17.6 -10.51,-1.4 -22.58,-5.23 -29.66,-11.5 -2.53,-2.25 -2.95,-5.27 -1.45,-12.12 0.64,-2.94 1.43,-6.55 2.46,-10.98 58.82,26.43 96.42,35.63 114.37,38.81z"/>
  <path id="_123308304" class="fil6" d="M732.16 348.42c0,0 0,19.69 26.55,30.43 0,0 -17.6,-0.6 -25.06,-7.76 -7.46,-7.16 -1.49,-22.67 -1.49,-22.67z"/>
  <path id="_123308232" class="fil2" d="M778.56 426.45c0,0 1.19,48.64 -16.26,115.76 -35.77,-28.19 -84.82,-37.38 -110.05,-40.34 10.28,-37.58 33.31,-156.67 -40.61,-287.06l-86.18 -119.24c58.69,-2.59 92.42,-0.05 135.14,43.77 71.14,72.96 118.89,189.36 117.95,287.11l0 -0 0 -0 0 -0 0 0z"/>
  <path id="_123308160" class="fil4" d="M766.69 366.15c0,0 -47.94,-1.34 -47.05,-1.34 0.89,0 45.41,-8.64 45.41,-8.64l1.64 9.98z"/>
  <polygon id="_123308088" class="fil4" points="671.37,313.42 743.56,283.29 740.87,274.64 672.27,308.94 "/>
  <path id="_123308016" class="fil4" d="M782.74 427.64c0,0 3.57,50.13 -13.88,117.24 -3.32,-2.62 -13.32,-7.75 -16.84,-10.05 13.84,-54.4 19.25,-118.74 5.5,-186.14 -14.1,-69.13 -51.12,-148.47 -120.11,-229.79 7.57,5.54 15.22,12.27 23.19,20.45 77.11,69.38 123.07,190.55 122.13,288.3l0 -0 0 0 0 0z"/>
  <path id="_123307944" class="fil3" d="M773.02 527.69c-1.18,5.16 -2.46,10.45 -3.87,15.86 -35.77,-28.2 -91.67,-38.72 -116.91,-41.68 1.23,-4.48 2.63,-10.12 4.03,-16.8 59.05,5.55 101.25,29.83 116.74,42.62l0 0z"/>
  <path id="_123307872" class="fil3" d="M652.24 501.87c10.28,-37.58 33.32,-156.67 -40.61,-287.06l-1.79 -2.48c86.67,88.5 86.51,204.76 64.05,292.9 -8.24,-1.59 -15.62,-2.65 -21.65,-3.36l0 0 0 -0 0 -0z"/>
  <path id="_123307800" class="fil1" d="M770.35 547.87l2.79 -6.85c1.12,-2.76 -52.49,-37.94 -122.3,-45.93l-1.51 6.45c24.53,2.61 83.72,16.05 121.01,46.33z"/>
  <path id="_123307728" class="fil4" d="M766.23 493.3c0,0 -14.32,-15.51 -63.24,-28.34 0,0 36.1,-1.49 64.44,8.35 0,0 0.3,4.18 0.3,6.56 0,2.39 -2.09,12.83 -1.49,13.42z"/>
  <path id="_123307656" class="fil1" d="M652.57 467.05c0,0 36.99,-3.88 79.65,5.67 0,0 -22.08,-13.72 -76.37,-15.51l-3.28 9.84 0 0z"/>
  <path id="_123307584" class="fil1" d="M774.47 532.16c0,0 -34.62,-24.29 -75.52,-39.72 0,0 40.33,8.15 79.66,30.66l-4.14 9.06 -0 0z"/>
  <polygon id="_123307512" class="fil1" points="641.93,320.18 751.21,265.24 752.66,270.45 646.31,325.95 "/>
  <path id="_123307440" class="fil1" d="M736.17 290.95c0,0 -10.93,-11.74 -29.05,-14.58 7.99,8.68 16.96,14.09 29.05,14.58z"/>
  <path id="_123307368" class="fil1" d="M687.63 317.49c0,0 6.24,-13.99 1.96,-30.97 -4.64,10.26 -6.05,20.17 -1.96,30.97z"/>
  <polygon id="_123307272" class="fil1" points="777.57,350.41 718.2,365.02 778.46,358.76 "/>
  <path id="_123307176" class="fil5" d="M243.35 217.79l86.18 -119.24c-58.69,-2.59 -92.42,-0.05 -135.14,43.77 -60.76,62.31 -104.44,156.31 -115.32,243.32 -10.94,87.58 5.77,164.37 46.3,243.77 0,0 4.92,14.49 35.93,10.91 0,0 -9.02,-15.96 -8.41,-17.33 0.61,-1.38 15.72,16.03 15.72,16.03 0,0 19.08,0.07 34.66,-13.37 0,0 0.06,-21.56 1.42,-21.51 1.35,0.05 5.69,15.96 5.69,15.96l20.38 -5.38c9.31,-4.38 12.22,-5.07 9.69,-16.6 -1.93,-8.81 -5.16,-23.66 -12.25,-48.6 1.96,-2.31 6.69,8.52 10.16,14.48 0,0 11.16,-12.32 10.68,-16.52 -0.48,-4.2 -39.54,-34.57 -39.54,-34.57 -31.57,-99.05 -10.22,-217.37 33.86,-295.11l0 -0 -0 0 0 -0z"/>
  <path id="_123307104" class="fil8" d="M229.17 114.27c-11.39,6.6 -22.73,15.68 -34.79,28.05 -60.76,62.31 -104.44,156.31 -115.32,243.32 -10.94,87.58 5.77,164.37 46.3,243.77 0,0 0.42,1.22 1.77,2.87 8.96,-1.25 18.02,-3.28 26.9,-5.81 -0.82,-1.79 -1.31,-3.14 -1.15,-3.5 0.18,-0.41 1.64,0.83 3.6,2.79 17.28,-5.1 33.78,-11.95 47.41,-18.37 0.19,-1.97 0.45,-3.28 0.78,-3.27 0.3,0.01 0.71,0.93 1.16,2.35 17.96,-8.57 30.52,-16.16 32.58,-17.42l-0.02 -0.08c-39.71,13.64 -106.77,20.47 -106.77,20.47 -90.47,-186.11 -27.75,-384.57 97.53,-495.17l0 0 -0 0z"/>
  <path id="_123307032" class="fil7" d="M103.89 485.26l-5.13 7.8c2.45,4.07 4.84,9.78 2.54,15.17l-1.06 2.48c-1.45,3.39 -6.4,6.49 -9.72,5.07 -1.74,-0.74 -3.07,-2.38 -3.89,-4.28l-2.69 4.09c2.91,13.84 6.6,27.58 11.02,41.26l0.27 0.18c11.45,-10.26 28.69,-16.06 41.36,-10.64l3.55 1.51c15.35,6.57 17.33,13.87 14.79,18.86 -4.03,7.92 -20.09,10.68 -17.1,0.28 9.98,7.32 13.24,-3.99 5.61,-7.25l-0.35 -0.15c-3.75,-1.61 -9.16,-0.16 -10.69,3.4l-1.06 2.48c-1.44,3.37 3.09,11.39 5.58,12.46l3.19 1.36c5.88,2.51 12.82,-0.28 17.03,-5.38 2.58,-3.11 4.39,-7.36 5.73,-11.09 6.32,-17.64 -2.86,-43.08 -18.07,-51.18l-0.85 7.64c3.27,4.04 5.71,4.99 7.74,10.12 1.37,3.45 2.89,8.21 0.9,12.86 -0.31,0.72 -1.75,1.77 -2.33,1.52 -2.74,-1.17 -4.95,-3.83 -7.44,-5.25 -1.53,-0.87 -8.91,-3.61 -8.22,-5.23l0.15 -0.35c0.99,-2.31 4.95,-4.7 6.73,-8.87l0.6 -1.41c5.3,-12.38 -4.55,-28.79 -17.25,-34.22l-4.61 -1.97c-6.04,-2.59 -9.74,-1.58 -14.76,-2.24l5.45 8.32c3.76,1.25 6.51,0.69 10.69,2.48l2.84 1.21c6.85,2.93 12.66,12.59 9.79,19.28l-1.06 2.48c-2.01,4.7 -11.08,8.26 -16.4,5.98l-1.07 -0.46c-2.29,-0.98 -3.07,-3.62 -2.08,-5.92 2.48,-5.8 13.11,-6.14 19.5,-3.41 0.93,-2.78 0.24,-6.46 -1.02,-8.41 -5.52,-2.36 -14.13,-2.27 -16.97,-3.48 -2.6,-1.11 -5.44,-9.38 -11.23,-17.14z"/>
  <path id="_123306960" class="fil6" d="M243.35 217.79l2.15 -2.98c-0.57,-0.32 -1.13,-0.67 -1.7,-0.95 0,0 -93.86,106.51 -62.95,261.34 -11.39,-0.15 -26.24,1.57 -36.08,2.09 -12.18,0.64 -40.72,14.59 -62.85,28.05 3.11,17.08 7.39,33.96 12.8,50.78 31.11,-23.94 71.5,-34.79 97.15,-39.55 10.03,30.11 24.94,61.69 46.18,94.39 3.35,-2.35 4.06,-5.23 2.39,-12.85 -1.93,-8.81 -5.16,-23.66 -12.25,-48.6 1.96,-2.31 6.69,8.52 10.16,14.48 0,0 11.16,-12.32 10.68,-16.52 -0.43,-3.79 -32.25,-28.86 -38.48,-33.74l-0.09 -0.07 -0.97 -0.75c-0.47,-1.49 -0.94,-2.99 -1.39,-4.48l-0.1 -0.34c-0.42,-1.39 -0.82,-2.79 -1.22,-4.19l-0.19 -0.68c-0.36,-1.27 -0.7,-2.53 -1.04,-3.81l-0.3 -1.13c-0.28,-1.08 -0.56,-2.16 -0.83,-3.25 -0.16,-0.64 -0.32,-1.29 -0.48,-1.94 -0.19,-0.79 -0.38,-1.58 -0.57,-2.37 -0.26,-1.11 -0.52,-2.22 -0.77,-3.33l-0.16 -0.73 -0.11 -0.5c-0.26,-1.2 -0.52,-2.4 -0.77,-3.6l-0.19 -0.93 -0.1 -0.5 -0 0c-18.61,-91.68 2.63,-193.76 42.08,-263.34l-0 0 0 0z"/>
  <path id="_123306888" class="fil9" d="M118.47 485.88c-2.97,1.34 -6.04,2.8 -9.14,4.34l1.58 2.41c3.76,1.25 6.51,0.69 10.69,2.48l2.84 1.21c6.85,2.93 12.66,12.59 9.79,19.28l-1.06 2.48c-2.01,4.7 -11.08,8.26 -16.4,5.98l-1.07 -0.46c-2.29,-0.98 -3.07,-3.62 -2.08,-5.92 2.48,-5.8 13.11,-6.14 19.5,-3.41 0.93,-2.78 0.24,-6.46 -1.02,-8.41 -5.52,-2.36 -14.13,-2.27 -16.97,-3.48 -1.96,-0.84 -4.04,-5.71 -7.41,-11.37 -2.59,1.3 -5.21,2.66 -7.81,4.06 1.96,3.82 3.35,8.6 1.41,13.15l-1.06 2.48c-1.45,3.39 -6.4,6.49 -9.72,5.07 -1.74,-0.74 -3.07,-2.38 -3.89,-4.28l-2.69 4.09c0.14,0.65 0.27,1.3 0.41,1.95l0.12 0.57 0.02 0.08 0.01 0.06 0.27 1.24 0.05 0.22 0.1 0.43 0.08 0.37 0.14 0.6 0.04 0.19 0.03 0.13 0.15 0.65 0 0.02 0.14 0.63 0.04 0.16 0.11 0.48 0.07 0.31 0.37 1.59 0.01 0.04 0.15 0.65 0.03 0.11 0.13 0.54 0.06 0.26 0.09 0.39 0.29 1.2 0.02 0.1c0.62,2.53 1.27,5.06 1.95,7.59l0.04 0.15 0.02 0.09c0.91,3.41 1.87,6.81 2.88,10.21l0.02 0.07c0.93,3.16 1.91,6.31 2.92,9.46 12.33,-9.49 26.12,-16.92 39.87,-22.73l0 -0 0.15 -0.35c0.99,-2.31 4.95,-4.7 6.73,-8.87l0.6 -1.41c5.3,-12.38 -4.55,-28.79 -17.25,-34.22l-4.61 -1.97c-0.61,-0.26 -1.19,-0.48 -1.75,-0.68zm32.2 41.39c2.41,-0.82 4.8,-1.6 7.15,-2.33 -3.4,-5.75 -7.86,-10.48 -13.01,-13.23l-0.85 7.64c2.74,3.39 4.89,4.6 6.71,7.92z"/>
  <path id="_123306816" class="fil5" d="M241.71 547.65c0,0 -6.4,-13.25 -22.78,-21.59 -16.38,-8.34 11.32,21.89 22.78,21.59z"/>
  <path id="_123306744" class="fil6" d="M123.61 625.94c0.58,1.16 1.16,2.32 1.75,3.47 0,0 4.92,14.49 35.93,10.91 0,0 -9.02,-15.96 -8.41,-17.34 0.61,-1.38 15.72,16.04 15.72,16.04 0,0 19.08,0.07 34.66,-13.38 0,0 0.06,-21.56 1.42,-21.51 1.35,0.05 4.65,17.6 4.65,17.6 10.51,-1.4 22.58,-5.23 29.66,-11.5 2.53,-2.25 2.95,-5.27 1.45,-12.12 -0.64,-2.94 -1.43,-6.55 -2.46,-10.98 -58.82,26.43 -96.42,35.63 -114.37,38.81z"/>
  <path id="_123306672" class="fil6" d="M126.87 348.42c0,0 0,19.69 -26.55,30.43 0,0 17.6,-0.6 25.06,-7.76 7.46,-7.16 1.49,-22.67 1.49,-22.67z"/>
  <path id="_123306600" class="fil2" d="M80.47 426.45c0,0 -1.19,48.64 16.26,115.76 35.77,-28.19 84.82,-37.38 110.05,-40.34 -10.28,-37.58 -33.31,-156.67 40.61,-287.06l86.18 -119.24c-58.69,-2.59 -92.42,-0.05 -135.14,43.77 -71.14,72.96 -118.89,189.36 -117.95,287.11l0 -0 0 -0 -0 -0 0 0z"/>
  <path id="_123306528" class="fil4" d="M76.29 427.64c0,0 -3.57,50.13 13.88,117.24 3.32,-2.62 13.32,-7.75 16.84,-10.05 -13.84,-54.4 -19.25,-118.74 -5.5,-186.14 14.1,-69.13 51.12,-148.47 120.11,-229.79 -7.57,5.54 -15.22,12.27 -23.19,20.45 -77.11,69.38 -123.07,190.55 -122.13,288.3l0 -0 0 0 0 0z"/>
  <path id="_123306456" class="fil3" d="M86 527.69c1.18,5.16 2.46,10.45 3.87,15.86 35.77,-28.2 91.67,-38.72 116.91,-41.68 -1.23,-4.48 -2.63,-10.12 -4.03,-16.8 -59.05,5.55 -101.25,29.83 -116.74,42.62l-0 0z"/>
  <path id="_123306384" class="fil3" d="M206.78 501.87c-10.28,-37.58 -33.32,-156.67 40.61,-287.06l1.79 -2.48c-86.67,88.5 -86.51,204.76 -64.05,292.9 8.24,-1.59 15.62,-2.65 21.65,-3.36l0 0 0 -0 0 -0z"/>
  <path id="_123306312" class="fil1" d="M88.67 547.87l-2.79 -6.85c-1.12,-2.76 52.49,-37.94 122.3,-45.93l1.51 6.45c-24.53,2.61 -83.72,16.05 -121.01,46.33z"/>
  <path id="_123306240" class="fil4" d="M92.79 493.3c0,0 14.32,-15.51 63.24,-28.34 0,0 -36.1,-1.49 -64.44,8.35 0,0 -0.3,4.18 -0.3,6.56 0,2.39 2.09,12.83 1.49,13.42z"/>
  <path id="_123306168" class="fil1" d="M206.45 467.05c0,0 -36.99,-3.88 -79.65,5.67 0,0 22.08,-13.72 76.37,-15.51l3.28 9.84 -0 0z"/>
  <path id="_123306096" class="fil1" d="M84.56 532.16c0,0 34.62,-24.29 75.52,-39.72 0,0 -40.33,8.15 -79.66,30.66l4.14 9.06 0 0z"/>
  <polygon id="_123306024" class="fil4" points="90.26,387.1 172.29,376.06 93.54,373.68 "/>
  <polygon id="_123305952" class="fil1" points="127.06,214.1 232.88,267.04 229.67,271.18 125.12,220.83 "/>
  <path id="_123305880" class="fil1" d="M204.24 270.26c0,0 2.78,-15.27 -5.51,-30.95 -2.11,11.22 -1.12,21.3 5.51,30.95z"/>
  <path id="_121761480" class="fil1" d="M155.59 247.98c0,0 14.46,-3.26 25.15,-16.4 -10.64,2.34 -19.14,6.98 -25.15,16.4z"/>
  <polygon id="_121761384" class="fil1" points="77.36,371.7 200.33,369.97 199.35,375.13 78.79,378.57 "/>
  <path id="_121761312" class="fil1" d="M149.84 388.87c0,0 -1.83,-15.47 -14.79,-28.27 1.28,11.38 5.3,20.81 14.79,28.27z"/>
  <path id="_121761240" class="fil1" d="M169.05 387.88c0,0 10.31,-11.67 11.23,-29.86 -7.63,8.54 -11.99,17.82 -11.23,29.86z"/>
  <path id="_121761168" class="fil1" d="M101.29 388.94c0,0 11.78,-9.55 15.35,-26.14 -8.7,6.98 -14.32,15 -15.35,26.14z"/>
  <path id="_121761024" class="fil3" d="M237.39 99.71c28.11,-26.48 357.41,-25.73 385.51,0.74 -7.35,114.62 -103,169.51 -192.11,168.97 -90.8,-0.55 -172.09,-58.64 -193.4,-169.71l-0 0 0 -0 -0 0 -0 0z"/>
  <path id="_121760952" class="fil1" d="M235.9 98.85c28.11,-25.31 360.54,-24.6 388.64,0.71 -7.35,109.58 -104.63,162.06 -193.75,161.54 -90.8,-0.52 -173.59,-56.06 -194.89,-162.25l0 0 0 0 0 0z"/>
  <path id="_121760880" class="fil2" d="M619.18 108.18c-15.34,98.22 -105.55,145.34 -188.56,144.85 -85.65,-0.5 -164.05,-51.7 -188.71,-149.72 5.35,-2.25 12.18,-4.96 29.6,-4.24 94.19,-9.68 351.92,-18.19 347.67,9.11l0 0 -0 0 0 0 -0 0z"/>
  <path id="_121760808" class="fil3" d="M618.29 104.9c-14.37,91.98 -94.39,139.14 -172.66,144.36l0.14 -4.62c152.6,-23.84 159.66,-133.93 157.65,-137.94l12.03 -2.87c1.89,0.47 2.88,0.84 2.84,1.08l-0 0 0 0z"/>
  <path id="_121760736" class="fil3" d="M245.3 102.37c22.12,96.75 99.45,142.26 177.73,147.49l1.35 -4.62c-151.1,-17.58 -166.66,-140.34 -168.67,-144.79 -1.78,-0.42 -7.69,0.5 -10.41,1.93l-0 -0 -0 0z"/>
  <path id="_121760664" class="fil4" d="M268.05 95.17c3.47,-3.27 12.5,-6.03 25.45,-8.3 74.31,-13.04 277.51,-9.81 297.38,8.92 -6.1,95.22 -86.92,140.81 -160.95,140.37 -75.43,-0.45 -144.19,-48.71 -161.89,-140.98l0 -0 0 -0 0 0z"/>
  <path id="_121760520" class="fil10" d="M276.11 123.94c33.89,-26.83 92.26,-40.55 150.97,-40.99l4.78 0c60.39,0.46 120.42,14.96 153.82,43.34 -20,71.57 -90.5,105.98 -155.74,105.59 -66.77,-0.39 -128.31,-37.22 -153.83,-107.93l0 0 0 -0z"/>
  <path id="_121760448" class="fil1" d="M268.05 94.73c3.47,-3.18 12.5,-5.87 25.45,-8.08 74.31,-12.68 277.51,-9.54 297.38,8.68 -6.1,92.62 -86.92,136.98 -160.95,136.55 -75.43,-0.44 -144.19,-47.38 -161.89,-137.14l0 -0 0 0z"/>
  <path id="_121760376" class="fil6" d="M582.67 88.21c-6.7,91.37 -82.9,135.14 -152.76,134.71 -71.11,-0.44 -135.98,-46.68 -153.39,-135.12 77.37,-21.27 232.67,-21.36 306.15,0.41l-0 0 0 0 0 0z"/>
  <path id="_121760304" class="fil3" d="M588.07 207.02c0,0 -26.55,51.91 -122.31,69.21 0,0 63.24,-1.19 87.11,-16.41 23.87,-15.21 35.2,-52.8 35.2,-52.8z"/>
  <path id="_121760232" class="fil3" d="M270.95 207.02c0,0 26.55,51.91 122.31,69.21 0,0 -63.24,-1.19 -87.11,-16.41 -23.87,-15.21 -35.2,-52.8 -35.2,-52.8z"/>
  <path id="_121760592" class="fil1" d="M428.84 228.1c2.99,55.81 10.46,56.37 12.53,-0.9 -4.18,0.3 -8.35,0.6 -12.53,0.89l0 0z"/>
  <path class="fil11" d="M416.54 336.49c-2.64,2.93 -7.15,3.17 -10.08,0.53 -2.93,-2.64 -3.17,-7.15 -0.53,-10.08l18.38 -20.39c2.64,-2.93 7.15,-3.17 10.08,-0.53 0.33,0.29 0.62,0.61 0.88,0.95l55.82 64.36c2.37,2.74 2.28,6.78 -0.08,9.41l-56.01 64.58c-2.57,2.97 -7.07,3.3 -10.05,0.72 -0.29,-0.25 -0.55,-0.52 -0.79,-0.8l-56.02 -64.59c-2.37,-2.73 -2.28,-6.76 0.06,-9.39l11.64 -13.46c2.57,-2.97 7.07,-3.3 10.05,-0.72 2.98,2.57 3.3,7.07 0.73,10.05l-7.66 8.86 46.66 53.8 46.65 -53.79 -46.75 -53.9 -12.98 14.4zm13.07 23.79c8.68,0 15.72,7.04 15.72,15.72 0,8.68 -7.04,15.72 -15.72,15.72 -8.68,0 -15.72,-7.04 -15.72,-15.72 0,-8.68 7.04,-15.72 15.72,-15.72zm61.11 -47.97c-2.84,-2.73 -2.92,-7.24 -0.19,-10.08 2.73,-2.84 7.24,-2.92 10.08,-0.19 9.86,9.5 17.82,20.96 23.25,33.74 5.25,12.34 8.15,25.89 8.15,40.08 0,13.93 -2.8,27.24 -7.85,39.39 -5.24,12.59 -12.93,23.92 -22.47,33.38 -2.79,2.77 -7.3,2.76 -10.08,-0.03 -2.77,-2.79 -2.76,-7.3 0.03,-10.08 8.21,-8.15 14.83,-17.9 19.35,-28.75 4.34,-10.42 6.74,-21.88 6.74,-33.92 0,-12.27 -2.49,-23.93 -6.98,-34.5 -4.68,-11.01 -11.53,-20.88 -20.02,-29.06zm-26.04 144.51c3.61,-1.57 7.81,0.08 9.38,3.68 1.57,3.61 -0.08,7.81 -3.68,9.38l-1.96 0.85c-3.64,1.51 -7.81,-0.21 -9.32,-3.85 -1.51,-3.64 0.21,-7.81 3.85,-9.32l1.74 -0.74zm-35.21 7.29c3.95,0 7.15,3.2 7.15,7.15 0,3.95 -3.2,7.15 -7.15,7.15 -28.31,0 -53.95,-11.48 -72.5,-30.03 -18.55,-18.55 -30.03,-44.19 -30.03,-72.5 0,-28.31 11.48,-53.95 30.03,-72.5 18.55,-18.55 44.19,-30.03 72.5,-30.03 3.95,0 7.15,3.2 7.15,7.15 0,3.95 -3.2,7.15 -7.15,7.15 -24.37,0 -46.43,9.88 -62.4,25.85 -15.97,15.97 -25.85,38.03 -25.85,62.4 0,24.37 9.88,46.43 25.85,62.4 15.97,15.97 38.03,25.85 62.4,25.85zm-26.85 -110.78c-2.7,2.87 -7.21,3 -10.08,0.31 -2.87,-2.7 -3,-7.21 -0.31,-10.08l1.65 -1.76c2.7,-2.87 7.21,-3 10.08,-0.31 2.87,2.7 3,7.21 0.31,10.08l-1.65 1.76z"/>
 </g>
</svg>
