<?xml version="1.0" encoding="UTF-8"?>
<!DOCTYPE svg PUBLIC "-//W3C//DTD SVG 1.1//EN" "http://www.w3.org/Graphics/SVG/1.1/DTD/svg11.dtd">
<!-- Creator: CorelDRAW 2020 (64-Bit) -->
<svg xmlns="http://www.w3.org/2000/svg" xml:space="preserve" width="161.909mm" height="176.792mm" version="1.1" style="shape-rendering:geometricPrecision; text-rendering:geometricPrecision; image-rendering:optimizeQuality; fill-rule:evenodd; clip-rule:evenodd"
viewBox="0 0 748.05 816.81"
 xmlns:xlink="http://www.w3.org/1999/xlink"
 xmlns:xodm="http://www.corel.com/coreldraw/odm/2003">
 <defs>
  <style type="text/css">
   <![CDATA[
    .fil0 {fill:none}
    .fil6 {fill:#3EA38B}
    .fil1 {fill:#501D33}
    .fil5 {fill:#55DF99}
    .fil7 {fill:#8FF0A7}
    .fil9 {fill:#C8B99F}
    .fil8 {fill:#C9C7D2}
    .fil4 {fill:#D77D75}
    .fil2 {fill:#FFCFA5}
    .fil3 {fill:white}
    .fil10 {fill:white;fill-rule:nonzero}
   ]]>
  </style>
 </defs>
 <g id="Слой_x0020_1">
  <metadata id="CorelCorpID_0Corel-Layer"/>
  <rect id="_119545328" class="fil0" x="-0" width="748.05" height="816.81"/>
  <path id="_119679368" class="fil1" d="M172.89 354.53l22.08 -3.76 -0.96 -4.3 -21.94 1.9c0,0 -0.81,2.99 0.82,6.16zm-81.81 59.81c0.34,1.34 -0.48,2.71 -1.82,3.05 -1.34,0.34 -2.71,-0.48 -3.05,-1.82 -0.34,-1.34 0.48,-2.71 1.82,-3.05 1.34,-0.34 2.71,0.48 3.05,1.82zm-15.68 -73.94l-22.08 -3.76 0.96 -4.3 21.94 1.9c0,0 0.81,2.99 -0.82,6.16zm-7.33 35.65l-14.94 1 -0.05 -2.94 14.56 -2.19c0,0 1,1.82 0.43,4.13zm4.13 38.45l-16.94 5.08 -0.83 -3.38 16.2 -6.35c0,0 1.62,1.83 1.58,4.65zm4.74 -47.86l-25.1 -2.54 0.75 -4.91 24.81 0.45c0,0 1.14,3.3 -0.46,6.99zm94.42 14.13l25.1 -2.54 -0.75 -4.91 -24.81 0.45c0,0 -1.14,3.3 0.46,6.99zm5.93 11.26l17.68 0.43 -0.09 -3.48 -17.3 -1.85c0,0 -1.08,2.2 -0.29,4.9z"/>
  <path id="_119679440" class="fil1" d="M206.87 85.04c-76.76,34.44 -139.68,167.59 -145.29,237.73 -6.42,80.35 -5.43,129.24 41.43,227.4 0,0 10.19,20.93 45.02,12.45 15.7,1.33 31.28,-4.14 38.74,-14.83 0.18,-0.26 19.59,-3.03 28.93,-12.12 4.24,-4.12 6.93,-7.79 5.41,-15.3 -1.99,-9.83 -4.94,-21.86 -4.94,-21.86 0,0 17.32,-17.27 14.49,-24.61 -2.84,-7.35 -38.26,-38.04 -38.32,-38.34 -24.3,-111.45 -0.47,-206.52 63.2,-283.31l51.16 -67.74c-25.7,-7.59 -72.58,-11.7 -99.83,0.52l-0 0 -0 0 -0 -0z"/>
  <path id="_119679512" class="fil2" d="M214.59 189.7l74.77 -103.46c-50.93,-2.25 -80.2,-0.04 -117.26,37.98 -52.72,54.07 -90.62,135.63 -100.06,211.13 -9.49,75.99 5.01,142.62 40.18,211.52 0,0 4.27,12.57 31.18,9.46 0,0 -7.83,-13.85 -7.3,-15.04 0.53,-1.2 13.64,13.91 13.64,13.91 0,0 16.56,0.06 30.08,-11.61 0,0 0.06,-18.7 1.23,-18.66 1.17,0.04 4.94,13.85 4.94,13.85l17.68 -4.67c8.08,-3.8 10.6,-4.4 8.41,-14.4 -1.67,-7.64 -4.47,-20.53 -10.63,-42.17 1.7,-2 5.81,7.4 8.82,12.56 0,0 9.68,-10.69 9.26,-14.33 -0.41,-3.64 -34.31,-29.99 -34.31,-29.99 -27.39,-85.94 -8.87,-188.6 29.38,-256.06l0 -0 0 0 -0 -0 0 -0z"/>
  <path id="_119679584" class="fil3" d="M202.29 99.88c-9.88,5.73 -19.72,13.6 -30.19,24.34 -52.72,54.07 -90.62,135.63 -100.06,211.13 -9.49,75.99 5.01,142.62 40.18,211.52 0,0 0.36,1.06 1.54,2.49 7.77,-1.08 15.63,-2.85 23.34,-5.04 -0.71,-1.56 -1.14,-2.72 -1,-3.03 0.16,-0.35 1.42,0.72 3.12,2.42 14.99,-4.42 29.31,-10.37 41.14,-15.94 0.17,-1.71 0.39,-2.85 0.68,-2.83 0.26,0.01 0.61,0.81 1,2.04 15.58,-7.44 26.48,-14.02 28.27,-15.12l-0.02 -0.07c-34.46,11.84 -92.64,17.76 -92.64,17.76 -78.5,-161.48 -24.08,-333.69 84.62,-429.66l0 -0 0 -0z"/>
  <path id="_119542160" class="fil4" d="M115.84 201.96c-10.71,19.81 -19.83,40.7 -27.05,61.93 16.65,1.8 56.79,8.33 88.99,31.03 5.37,-30.08 14.36,-58.72 25.93,-83.9 -2.54,-1.22 -5.18,-2.08 -7.9,-2.47 -15.27,-2.21 -54.55,-5.98 -79.96,-6.6z"/>
  <path id="_88446104" class="fil4" d="M214.59 189.7l1.87 -2.58c-0.49,-0.28 -0.98,-0.58 -1.47,-0.82 0,0 -131.76,149.45 -4.99,344.55 2.91,-2.03 3.52,-4.54 2.07,-11.15 -1.67,-7.64 -4.47,-20.53 -10.63,-42.17 1.7,-2 5.81,7.4 8.82,12.56 0,0 9.68,-10.69 9.26,-14.33 -0.41,-3.64 -34.31,-29.99 -34.31,-29.99 -27.39,-85.94 -8.87,-188.6 29.38,-256.06l0 0 0 0 0 -0z"/>
  <path id="_119679704" class="fil1" d="M92.09 286.24c-34.32,-3.87 -43.18,33.98 -12.89,46.64l12.89 -46.64z"/>
  <path id="_119679776" class="fil2" d="M79.2 333.08c-11.19,-17.44 -11.48,-36.73 12.88,-47.11 0,0 6.93,34.21 -12.88,47.11z"/>
  <path id="_119679680" class="fil3" d="M80.36 334.52c-13.55,-17.27 -13.71,-38.6 12.6,-49.06 -10.46,6.99 -19.08,29.17 -12.14,47.64l-0.47 1.43z"/>
  <path id="_119679872" class="fil3" d="M90.72 292.7c2.99,1.86 2.96,7.33 -0.07,12.21 -3.03,4.88 -7.92,7.32 -10.92,5.46 -2.99,-1.86 -2.96,-7.33 0.07,-12.21 3.03,-4.88 7.92,-7.32 10.92,-5.46z"/>
  <path id="_119679944" class="fil2" d="M213.17 475.91c0,0 -5.56,-11.5 -19.77,-18.73 -14.21,-7.23 9.82,18.99 19.77,18.73z"/>
  <path id="_119680016" class="fil4" d="M110.7 543.84c0.5,1 1,2.01 1.52,3.01 0,0 4.27,12.57 31.18,9.46 0,0 -7.82,-13.85 -7.29,-15.04 0.53,-1.2 13.64,13.92 13.64,13.92 0,0 16.56,0.06 30.08,-11.61 0,0 0.06,-18.7 1.23,-18.66 1.17,0.04 4.03,15.27 4.03,15.27 9.12,-1.21 19.59,-4.54 25.73,-9.98 2.2,-1.95 2.56,-4.58 1.26,-10.52 -0.56,-2.55 -1.24,-5.68 -2.13,-9.52 -51.04,22.93 -83.67,30.92 -99.24,33.67l-0 0z"/>
  <path id="_119680088" class="fil4" d="M113.52 303.05c0,0 0,17.08 -23.04,26.4 0,0 15.27,-0.52 21.74,-6.73 6.47,-6.21 1.29,-19.67 1.29,-19.67z"/>
  <path id="_119684744" class="fil1" d="M237.58 420.63c-13.49,-82.74 -21.63,-222.2 -29.86,-286.73 14.59,-60.08 129.35,-41.65 168.44,-33.53 39.09,-8.13 153.85,-26.55 168.44,33.53 -8.23,64.53 -16.63,203.74 -30.12,286.47 -73.43,27.92 -203.47,28.18 -276.9,0.26l0 0 0 0 0 -0 0 -0z"/>
  <path id="_119684648" class="fil1" d="M581.39 359.45l-22.08 -3.76 0.96 -4.3 21.94 1.9c0,0 0.81,2.99 -0.83,6.16zm81.81 59.81c-0.34,1.34 0.48,2.71 1.82,3.05 1.34,0.34 2.71,-0.48 3.05,-1.82 0.34,-1.34 -0.48,-2.71 -1.82,-3.05 -1.34,-0.34 -2.71,0.48 -3.05,1.82zm15.68 -73.94l22.08 -3.76 -0.96 -4.3 -21.94 1.9c0,0 -0.81,2.99 0.82,6.16zm7.33 35.65l14.94 1 0.05 -2.94 -14.56 -2.19c0,0 -1,1.82 -0.43,4.13zm-4.13 38.45l16.94 5.08 0.83 -3.38 -16.2 -6.35c0,0 -1.62,1.83 -1.58,4.65zm-4.74 -47.86l25.1 -2.54 -0.75 -4.91 -24.81 0.45c0,0 -1.14,3.3 0.46,6.99zm-94.42 14.13l-25.1 -2.54 0.75 -4.91 24.81 0.45c0,0 1.14,3.3 -0.46,6.99zm-5.93 11.26l-17.68 0.43 0.09 -3.48 17.3 -1.85c0,0 1.08,2.2 0.29,4.9z"/>
  <path id="_119684816" class="fil1" d="M545.6 84.79c76.76,34.44 139.68,167.59 145.29,237.73 6.42,80.35 4.65,130.02 -42.21,228.18 0,0 -10.58,19.76 -45.41,11.29 -16.22,1.52 -30.64,-4.85 -38.09,-14.57 -0.19,-0.25 -19.08,-2.9 -28.42,-12 -4.24,-4.12 -6.93,-7.79 -5.41,-15.3 1.99,-9.83 4.94,-21.86 4.94,-21.86 0,0 -17.32,-17.27 -14.48,-24.61 2.84,-7.35 38.26,-38.04 38.32,-38.34 24.3,-111.45 0.47,-206.52 -63.2,-283.31l-51.16 -67.74c25.7,-7.59 72.58,-11.7 99.83,0.52l0 0z"/>
  <path id="_119684888" class="fil2" d="M537.87 189.45l-74.77 -103.46c50.93,-2.25 80.2,-0.04 117.26,37.98 52.72,54.07 90.62,135.63 100.06,211.13 9.49,75.99 -5.01,142.62 -40.18,211.52 0,0 -4.27,12.57 -31.18,9.46 0,0 7.83,-13.85 7.3,-15.04 -0.53,-1.2 -13.64,13.91 -13.64,13.91 0,0 -16.56,0.06 -30.08,-11.61 0,0 -0.05,-18.7 -1.23,-18.66 -1.17,0.04 -4.94,13.85 -4.94,13.85l-17.68 -4.67c-8.08,-3.8 -10.6,-4.4 -8.41,-14.4 1.67,-7.64 4.47,-20.53 10.63,-42.17 -1.7,-2 -5.81,7.4 -8.82,12.56 0,0 -9.68,-10.69 -9.26,-14.33 0.41,-3.64 34.31,-29.99 34.31,-29.99 27.39,-85.94 8.86,-188.61 -29.38,-256.06l0 -0 0 -0z"/>
  <path id="_119544248" class="fil4" d="M630.29 190.42c13.3,22.8 24.49,47.27 33.06,72.24 -45.16,7.01 -84.46,27.28 -84.46,27.28 0,0 -2.38,-2.04 -6.16,-5.47 -6.79,-32.67 -17.81,-63.33 -31.69,-89.27 2.38,-0.92 5.04,-2.1 8.04,-3.75 16.9,-9.26 47.67,-3.63 81.21,-1.03z"/>
  <path id="_119684432" class="fil4" d="M537.87 189.45l-1.87 -2.58c0.49,-0.28 0.98,-0.58 1.47,-0.82 0,0 131.76,149.45 4.99,344.55 -2.91,-2.04 -3.52,-4.54 -2.07,-11.15 1.67,-7.64 4.47,-20.53 10.63,-42.17 -1.7,-2 -5.81,7.4 -8.82,12.56 0,0 -9.68,-10.69 -9.26,-14.33 0.41,-3.64 34.31,-29.99 34.31,-29.99 27.39,-85.94 8.86,-188.61 -29.38,-256.06l0 0 0 0 0 -0z"/>
  <path id="_119684504" class="fil5" d="M569.62 274.77c-6.93,-27.81 -18.09,-57.51 -35.33,-87.92l-74.77 -103.46c50.93,-2.25 80.2,-0.04 117.26,37.98 33.04,33.88 60.26,78.56 78.3,125.78 -29.6,6.95 -62.08,18.53 -85.47,27.62l0 -0z"/>
  <path id="_119684576" class="fil6" d="M569.61 274.77c-6.93,-27.81 -18.08,-57.51 -35.32,-87.92l-1.56 -2.15c25.39,25.92 42.17,54.59 52.55,84.14 -5.54,2.04 -10.8,4.04 -15.67,5.93z"/>
  <path id="_135238464" class="fil5" d="M247.64 415.94c-13.37,-87.46 -23.2,-185.33 -28.77,-272.49 11.4,-46.93 84.27,-70.63 157.19,-70.76l0 -0 0.1 0 0.1 -0 0 0c72.92,0.13 145.79,23.83 157.19,70.76 -5.56,87.16 -15.4,185.04 -28.77,272.49 -71.15,22.44 -185.89,22.44 -257.04,0l0 -0 -0 0 -0 0z"/>
  <polygon id="_119683208" class="fil7" points="315.46,359.88 253.8,331.68 438.51,356.8 "/>
  <polygon id="_124547344" class="fil7" points="423.49,292.03 483.08,295.66 509.5,274.41 "/>
  <path id="_135244848" class="fil6" d="M247.64 415.94c-10.81,-70.74 -19.31,-148.3 -25.11,-221.49 0.7,-3.28 1.33,-5.2 1.87,-5.4l32.64 220.21c1.56,-3.72 92.4,29.85 236.65,-1.45l36.8 -225.36c0,0 -0.01,5.13 -0.5,9.44 -5.8,73.94 -14.37,152.48 -25.31,224.05 -71.15,22.44 -185.89,22.44 -257.04,0l-0 0 -0 0z"/>
  <polygon id="_119545832" class="fil6" points="235.83,280.61 486.7,352.14 241.53,324.15 "/>
  <path id="_119545904" class="fil1" d="M508.6 396.15c0,0 -22.84,13.2 -41.78,17.08 0,0 17.65,-0.52 44.12,-7.51l3.37 -7.25 -5.71 -2.33z"/>
  <path id="_119545976" class="fil1" d="M244.88 398.48c0,0 22.84,13.2 41.78,17.08 0,0 -17.65,-0.52 -44.12,-7.51l-3.37 -7.25 5.71 -2.33z"/>
  <path id="_119546048" class="fil5" d="M182.85 275.03c6.93,-27.81 18.09,-57.51 35.33,-87.92l74.77 -103.46c-50.93,-2.25 -80.2,-0.04 -117.26,37.98 -33.04,33.88 -60.26,78.56 -78.3,125.78 29.6,6.95 62.08,18.53 85.47,27.62l-0 0z"/>
  <path id="_119546120" class="fil7" d="M109.99 242.36c17.58,-43.39 45.92,-91.45 85.82,-138.48 -42.02,30.75 -78.3,88.77 -99.1,135.79 2.24,7.42 13.55,1.57 13.55,1.57 0.17,-0.23 -0.43,1.34 -0.26,1.11l0 -0z"/>
  <path id="_119546192" class="fil6" d="M182.85 275.03c6.93,-27.81 18.08,-57.51 35.32,-87.92l1.56 -2.15c-25.39,25.92 -42.17,54.59 -52.54,84.14 5.54,2.04 10.8,4.04 15.67,5.93z"/>
  <path id="_119546288" class="fil6" d="M524.75 230.32c0,0 -79.21,44.77 -76.36,45.81 2.85,1.04 72.99,-15.79 72.99,-15.79l3.37 -30.02z"/>
  <path id="_130621488" class="fil3" d="M550.18 99.62c9.88,5.73 19.72,13.6 30.19,24.33 31.67,32.48 57.99,74.88 76,119.93 -7.37,-18.43 -16.13,-36.42 -26.08,-53.46 -2.31,-0.18 -4.61,-0.37 -6.89,-0.58 -19.67,-34.31 -44.55,-64.92 -73.22,-90.22l0 0 0 0zm106.34 144.63c1.33,3.32 2.61,6.66 3.84,10.01 -1.23,-3.35 -2.51,-6.69 -3.84,-10.01zm4.04 10.56c0.35,0.95 0.69,1.9 1.03,2.85 -0.34,-0.95 -0.69,-1.9 -1.03,-2.85zm1.41 3.91c0.3,0.84 0.59,1.68 0.88,2.51 -0.29,-0.84 -0.59,-1.68 -0.88,-2.51zm1.28 3.65c8.31,24.13 14.18,48.73 17.18,72.71 9.49,75.99 -5,142.62 -40.18,211.52 0,0 -0.36,1.06 -1.54,2.49 -7.77,-1.08 -15.63,-2.85 -23.34,-5.04 0.71,-1.56 1.14,-2.72 1,-3.03 -0.16,-0.36 -1.42,0.72 -3.12,2.42 -14.99,-4.42 -29.31,-10.37 -41.14,-15.94 -0.17,-1.71 -0.39,-2.85 -0.68,-2.84 -0.26,0.01 -0.61,0.81 -1,2.04 -15.58,-7.44 -26.48,-14.02 -28.27,-15.12l0.01 -0.07c34.46,11.84 92.64,17.76 92.64,17.76 43.81,-90.13 46.21,-183.6 20.88,-265.29 2.53,-0.48 5.09,-0.92 7.67,-1.32l-0.1 -0.3 0 0 0 -0z"/>
  <path id="_119546432" class="fil1" d="M660.38 285.99c34.33,-3.87 43.18,33.98 12.89,46.64l-12.89 -46.64z"/>
  <path id="_119546504" class="fil2" d="M673.27 332.83c11.19,-17.44 11.48,-36.73 -12.88,-47.11 0,0 -6.93,34.21 12.88,47.11z"/>
  <path id="_119546576" class="fil3" d="M672.1 334.27c13.55,-17.27 13.71,-38.6 -12.6,-49.06 10.46,6.99 19.08,29.17 12.14,47.64l0.47 1.43z"/>
  <path id="_119546648" class="fil3" d="M661.74 292.44c-2.99,1.86 -2.96,7.33 0.07,12.21 3.03,4.88 7.92,7.32 10.92,5.46 2.99,-1.86 2.96,-7.33 -0.07,-12.21 -3.03,-4.88 -7.92,-7.32 -10.92,-5.46z"/>
  <path id="_119546720" class="fil2" d="M539.29 475.66c0,0 5.56,-11.5 19.77,-18.73 14.21,-7.23 -9.82,18.99 -19.77,18.73z"/>
  <path id="_119546792" class="fil4" d="M641.77 543.59c-0.5,1 -1.01,2.01 -1.52,3.01 0,0 -4.27,12.57 -31.18,9.46 0,0 7.82,-13.85 7.29,-15.04 -0.53,-1.2 -13.64,13.92 -13.64,13.92 0,0 -16.56,0.06 -30.08,-11.61 0,0 -0.05,-18.71 -1.23,-18.66 -1.17,0.04 -4.03,15.27 -4.03,15.27 -9.12,-1.21 -19.59,-4.54 -25.73,-9.98 -2.2,-1.95 -2.56,-4.58 -1.26,-10.52 0.56,-2.55 1.24,-5.68 2.13,-9.52 51.04,22.93 83.67,30.92 99.24,33.67l0 0z"/>
  <path id="_119546864" class="fil4" d="M638.94 302.79c0,0 0,17.08 23.04,26.4 0,0 -15.27,-0.52 -21.74,-6.73 -6.47,-6.21 -1.29,-19.67 -1.29,-19.67z"/>
  <path id="_119546936" class="fil1" d="M655.18 353.89c1.69,1.23 2.06,3.6 0.83,5.29 -1.23,1.69 -3.6,2.06 -5.29,0.82 -1.69,-1.23 -2.06,-3.6 -0.82,-5.29 1.23,-1.69 3.6,-2.06 5.29,-0.82zm-30.24 42.52c-0.46,1.31 0.23,2.74 1.53,3.2 1.31,0.46 2.74,-0.23 3.2,-1.53 0.46,-1.31 -0.23,-2.74 -1.53,-3.2 -1.31,-0.46 -2.74,0.23 -3.2,1.53zm24.11 -6.3c-0.31,0.87 0.15,1.83 1.02,2.14 0.87,0.31 1.83,-0.15 2.14,-1.02 0.31,-0.87 -0.15,-1.83 -1.02,-2.14 -0.87,-0.31 -1.83,0.15 -2.14,1.02zm-4.6 36.19c-0.31,0.87 0.15,1.83 1.02,2.13 0.87,0.31 1.83,-0.15 2.14,-1.02 0.31,-0.87 -0.15,-1.83 -1.02,-2.14 -0.87,-0.31 -1.83,0.15 -2.13,1.02zm11.39 -11.61c-0.38,1.09 0.19,2.29 1.28,2.67 1.09,0.38 2.29,-0.19 2.67,-1.28 0.38,-1.09 -0.19,-2.29 -1.28,-2.67 -1.09,-0.38 -2.29,0.19 -2.67,1.28zm-39.02 15.7c-0.54,1.53 0.26,3.2 1.79,3.74 1.53,0.54 3.2,-0.26 3.74,-1.79 0.54,-1.53 -0.26,-3.2 -1.79,-3.74 -1.53,-0.54 -3.2,0.26 -3.74,1.79zm10.74 -101.73c1.45,1.06 1.76,3.09 0.71,4.53 -1.06,1.45 -3.09,1.76 -4.53,0.71 -1.45,-1.06 -1.76,-3.09 -0.71,-4.53 1.06,-1.45 3.09,-1.76 4.53,-0.71zm-30.28 10.91c0.96,0.7 1.17,2.06 0.47,3.02 -0.7,0.96 -2.06,1.18 -3.02,0.47 -0.96,-0.7 -1.17,-2.06 -0.47,-3.02 0.71,-0.96 2.06,-1.17 3.02,-0.47zm33.55 31.18c0.96,0.7 1.17,2.06 0.47,3.02 -0.7,0.96 -2.06,1.18 -3.02,0.47 -0.96,-0.7 -1.18,-2.06 -0.47,-3.02 0.7,-0.96 2.06,-1.17 3.02,-0.47zm-34.48 28.78c1.45,1.06 1.76,3.09 0.71,4.53 -1.06,1.45 -3.09,1.76 -4.53,0.71 -1.45,-1.06 -1.76,-3.09 -0.71,-4.53 1.06,-1.45 3.09,-1.76 4.53,-0.71zm11.66 -28.83c1.2,0.88 1.47,2.57 0.59,3.78 -0.88,1.2 -2.57,1.47 -3.78,0.59 -1.2,-0.88 -1.47,-2.57 -0.59,-3.78 0.88,-1.2 2.57,-1.47 3.78,-0.59zm60.38 -33.69c0.86,0.63 1.04,1.83 0.42,2.68 -0.63,0.86 -1.83,1.04 -2.68,0.42 -0.86,-0.63 -1.04,-1.83 -0.42,-2.68 0.63,-0.86 1.83,-1.04 2.68,-0.42z"/>
  <path id="_119547008" class="fil7" d="M642.21 243.39c-17.58,-43.39 -45.66,-92.74 -85.56,-139.76 39.06,28.58 68.49,70.93 89.15,114.54 1.56,3.3 7.71,17.29 9.04,22.27 -1.42,4.7 -9.68,6.84 -12.64,2.96z"/>
  <path id="_119547224" class="fil1" d="M105.66 344.47c-1.79,1.07 -2.38,3.4 -1.31,5.19 1.07,1.79 3.4,2.38 5.19,1.31 1.79,-1.07 2.38,-3.4 1.31,-5.19 -1.07,-1.79 -3.39,-2.38 -5.19,-1.31zm26.2 45.12c0.34,1.34 -0.48,2.71 -1.82,3.05 -1.34,0.34 -2.71,-0.48 -3.05,-1.82 -0.34,-1.34 0.48,-2.71 1.82,-3.05 1.34,-0.34 2.71,0.48 3.05,1.82zm-23.43 -8.5c0.23,0.9 -0.32,1.81 -1.22,2.03 -0.9,0.23 -1.81,-0.32 -2.03,-1.22 -0.23,-0.9 0.32,-1.81 1.22,-2.03 0.9,-0.23 1.81,0.32 2.03,1.22zm1.24 36.46c0.23,0.9 -0.32,1.81 -1.22,2.03 -0.9,0.23 -1.81,-0.32 -2.03,-1.22 -0.23,-0.9 0.32,-1.81 1.22,-2.03 0.9,-0.23 1.81,0.32 2.03,1.22zm-10.27 -12.61c0.28,1.12 -0.4,2.26 -1.52,2.54 -1.12,0.28 -2.26,-0.4 -2.54,-1.52 -0.28,-1.12 0.4,-2.26 1.52,-2.54 1.12,-0.28 2.26,0.4 2.54,1.52zm37.41 19.23c0.4,1.57 -0.56,3.16 -2.13,3.56 -1.57,0.4 -3.16,-0.56 -3.56,-2.13 -0.4,-1.57 0.56,-3.16 2.13,-3.56 1.57,-0.4 3.16,0.56 3.56,2.13zm-1.32 -102.29c-1.54,0.92 -2.04,2.91 -1.12,4.45 0.92,1.54 2.91,2.04 4.45,1.12 1.54,-0.92 2.04,-2.91 1.12,-4.45 -0.92,-1.54 -2.91,-2.04 -4.45,-1.12zm29.15 13.65c-1.02,0.61 -1.36,1.94 -0.75,2.97 0.61,1.02 1.94,1.36 2.97,0.75 1.03,-0.61 1.36,-1.94 0.75,-2.97 -0.61,-1.03 -1.94,-1.36 -2.97,-0.75zm-36.28 27.96c-1.03,0.61 -1.36,1.94 -0.75,2.97 0.61,1.03 1.94,1.36 2.97,0.75 1.03,-0.61 1.36,-1.94 0.75,-2.97 -0.61,-1.02 -1.94,-1.36 -2.97,-0.75zm31.68 31.84c-1.54,0.92 -2.04,2.91 -1.12,4.45 0.92,1.54 2.91,2.04 4.45,1.12 1.54,-0.92 2.04,-2.91 1.12,-4.45 -0.92,-1.54 -2.91,-2.04 -4.45,-1.12zm-8.95 -29.78c-1.28,0.77 -1.7,2.43 -0.93,3.71 0.77,1.28 2.43,1.7 3.71,0.93 1.28,-0.77 1.7,-2.43 0.93,-3.71 -0.77,-1.28 -2.43,-1.7 -3.71,-0.93zm-57.02 -39.11c-0.91,0.54 -1.21,1.72 -0.66,2.63 0.54,0.91 1.72,1.21 2.63,0.66 0.91,-0.54 1.21,-1.72 0.66,-2.63 -0.54,-0.91 -1.72,-1.21 -2.63,-0.66z"/>
  <path id="_121761024" class="fil6" d="M208.85 87.55c24.39,-22.97 310.12,-22.33 334.5,0.64 -6.38,99.45 -89.37,147.08 -166.7,146.62 -78.78,-0.47 -149.32,-50.88 -167.81,-147.26l-0 0 0 0 0 0z"/>
  <path id="_121760952" class="fil1" d="M207.55 86.81c24.39,-21.96 312.84,-21.34 337.22,0.61 -6.38,95.08 -90.79,140.61 -168.11,140.17 -78.79,-0.45 -150.62,-48.64 -169.1,-140.78l0 0 0 0z"/>
  <path id="_121760880" class="fil3" d="M540.13 94.91c-13.31,85.22 -91.59,126.11 -163.61,125.69 -74.32,-0.44 -142.34,-44.86 -163.75,-129.91 4.64,-1.96 10.57,-4.31 25.69,-3.68 81.73,-8.4 305.36,-15.79 301.67,7.9l0 0 0 0 0 0 -0 -0z"/>
  <path id="_121760808" class="fil8" d="M539.35 92.06c-12.28,78.64 -79.88,119.52 -146.84,125.04l0.05 0.28 -22.64 0.46c-67.92,-4.53 -135.02,-44.03 -154.21,-127.97l0 0c2.36,-1.24 7.49,-2.04 9.03,-1.67 1.53,3.38 12.05,85.36 102.49,116.02 39.69,13.45 79.37,10.23 117.67,-6.28 78.95,-34.03 83,-101.4 81.54,-104.31l10.44 -2.49c1.64,0.41 2.5,0.73 2.46,0.93l-0 0 -0 -0z"/>
  <path id="_121760664" class="fil3" d="M235.45 83.62c3.01,-2.83 10.85,-5.23 22.09,-7.21 64.47,-11.31 240.79,-8.51 258.04,7.74 -5.3,82.62 -75.42,122.18 -139.65,121.8 -65.45,-0.39 -125.12,-42.27 -140.47,-122.33l0 -0 -0 0 0 0z"/>
  <path id="_121760520" class="fil9" d="M242.44 108.58c29.4,-23.28 80.05,-35.18 130.99,-35.57l4.15 0c52.4,0.4 104.49,12.98 133.46,37.6 -17.36,62.1 -78.52,91.95 -135.13,91.62 -57.93,-0.34 -111.33,-32.3 -133.48,-93.65l0 0 -0 0z"/>
  <path id="_121760448" class="fil1" d="M235.45 83.23c3.01,-2.76 10.85,-5.09 22.09,-7.01 64.47,-11 240.79,-8.28 258.04,7.53 -5.3,80.37 -75.42,118.86 -139.65,118.48 -65.45,-0.38 -125.12,-41.12 -140.47,-119l0 -0 -0 0z"/>
  <path id="_121760376" class="fil4" d="M508.45 77.58c-5.81,79.28 -71.93,117.26 -132.55,116.89 -61.7,-0.38 -117.99,-40.51 -133.1,-117.24 67.13,-18.45 201.89,-18.53 265.65,0.36l-0 0 -0 0 0 0z"/>
  <path id="_121760304" class="fil6" d="M513.13 180.67c0,0 -23.04,45.04 -106.13,60.05 0,0 54.87,-1.04 75.58,-14.24 20.71,-13.2 30.54,-45.82 30.54,-45.82z"/>
  <path id="_121760232" class="fil6" d="M237.97 180.67c0,0 23.04,45.04 106.13,60.05 0,0 -54.87,-1.04 -75.58,-14.24 -20.71,-13.2 -30.54,-45.82 -30.54,-45.82z"/>
  <path id="_119684072" class="fil1" d="M565.48 278.86c0,0 50.81,-21.15 101.11,-32.24l-2.71 -9.67c0,0 -42.94,8.64 -103.04,31.34l2.58 5.67 2.06 4.9 -0 0z"/>
  <path id="_119683568" class="fil1" d="M187.22 278.86c0,0 -50.81,-21.15 -101.11,-32.24l2.71 -9.67c0,0 42.94,8.64 103.04,31.34l-2.58 5.67 -2.06 4.9 0 0z"/>
  <path id="_119683424" class="fil1" d="M99.64 225.93c0,0 45.88,6.74 92.53,32.66l2.07 -6.48c0,0 -42.77,-24.62 -91.5,-32.92l-4.92 2.33 1.81 4.41z"/>
  <path id="_119542952" class="fil1" d="M655.89 230.11c0,0 -46.08,5.16 -93.6,29.47l-1.85 -6.55c0,0 43.59,-23.14 92.57,-29.76l4.84 2.5 -1.96 4.34z"/>
  <path class="fil10" d="M364.92 293.41c-2.3,2.55 -6.23,2.76 -8.79,0.46 -2.55,-2.3 -2.76,-6.23 -0.46,-8.79l16.02 -17.78c2.3,-2.55 6.23,-2.76 8.79,-0.46 0.29,0.26 0.54,0.53 0.77,0.83l48.67 56.12c2.07,2.39 1.99,5.91 -0.07,8.21l-48.83 56.31c-2.24,2.59 -6.17,2.88 -8.76,0.63 -0.25,-0.22 -0.48,-0.45 -0.69,-0.7l-48.85 -56.32c-2.06,-2.38 -1.99,-5.89 0.05,-8.19l10.15 -11.74c2.24,-2.59 6.17,-2.88 8.76,-0.63 2.59,2.24 2.88,6.17 0.63,8.76l-6.68 7.73 40.69 46.91 40.68 -46.91 -40.76 -47 -11.31 12.55zm11.4 20.74c7.57,0 13.71,6.14 13.71,13.71 0,7.57 -6.14,13.71 -13.71,13.71 -7.57,0 -13.71,-6.14 -13.71,-13.71 0,-7.57 6.14,-13.71 13.71,-13.71zm53.29 -41.83c-2.47,-2.38 -2.55,-6.31 -0.17,-8.79 2.38,-2.47 6.31,-2.55 8.79,-0.17 8.59,8.29 15.54,18.28 20.27,29.42 4.57,10.76 7.11,22.58 7.11,34.95 0,12.15 -2.44,23.75 -6.85,34.34 -4.57,10.98 -11.28,20.86 -19.6,29.11 -2.43,2.42 -6.37,2.41 -8.79,-0.02 -2.42,-2.43 -2.41,-6.37 0.02,-8.79 7.16,-7.1 12.93,-15.61 16.87,-25.07 3.78,-9.09 5.87,-19.07 5.87,-29.57 0,-10.7 -2.17,-20.87 -6.08,-30.08 -4.08,-9.6 -10.06,-18.21 -17.45,-25.33zm-22.71 126.01c3.14,-1.37 6.81,0.07 8.18,3.21 1.37,3.14 -0.07,6.81 -3.21,8.18l-1.71 0.74c-3.17,1.32 -6.81,-0.19 -8.13,-3.36 -1.32,-3.17 0.19,-6.81 3.36,-8.13l1.52 -0.64zm-30.7 6.35c3.44,0 6.23,2.79 6.23,6.23 0,3.44 -2.79,6.23 -6.23,6.23 -24.69,0 -47.04,-10.01 -63.22,-26.19 -16.18,-16.18 -26.19,-38.53 -26.19,-63.22 0,-24.69 10.01,-47.04 26.19,-63.22 16.18,-16.18 38.53,-26.19 63.22,-26.19 3.44,0 6.23,2.79 6.23,6.23 0,3.44 -2.79,6.23 -6.23,6.23 -21.25,0 -40.49,8.61 -54.41,22.54 -13.92,13.92 -22.54,33.16 -22.54,54.41 0,21.25 8.61,40.49 22.54,54.41 13.92,13.92 33.16,22.54 54.41,22.54zm-23.41 -96.6c-2.35,2.5 -6.29,2.62 -8.79,0.27 -2.5,-2.35 -2.62,-6.29 -0.27,-8.79l1.44 -1.53c2.35,-2.5 6.29,-2.62 8.79,-0.27 2.5,2.35 2.62,6.29 0.27,8.79l-1.44 1.53z"/>
 </g>
</svg>
