<?xml version="1.0" encoding="UTF-8"?>
<!DOCTYPE svg PUBLIC "-//W3C//DTD SVG 1.1//EN" "http://www.w3.org/Graphics/SVG/1.1/DTD/svg11.dtd">
<!-- Creator: CorelDRAW 2020 (64-Bit) -->
<svg xmlns="http://www.w3.org/2000/svg" xml:space="preserve" width="161.907mm" height="176.791mm" version="1.1" style="shape-rendering:geometricPrecision; text-rendering:geometricPrecision; image-rendering:optimizeQuality; fill-rule:evenodd; clip-rule:evenodd"
viewBox="0 0 671.17 732.87"
 xmlns:xlink="http://www.w3.org/1999/xlink"
 xmlns:xodm="http://www.corel.com/coreldraw/odm/2003">
 <defs>
  <style type="text/css">
   <![CDATA[
    .fil0 {fill:none}
    .fil3 {fill:#3EA38B}
    .fil1 {fill:#501D33}
    .fil2 {fill:#55DF99}
    .fil4 {fill:#8FF0A7}
    .fil9 {fill:#B1C884}
    .fil10 {fill:#C9C7D2}
    .fil8 {fill:#D49293}
    .fil7 {fill:#D77D75}
    .fil5 {fill:#FFCFA5}
    .fil6 {fill:white}
    .fil11 {fill:#501D33;fill-rule:nonzero}
    .fil12 {fill:white;fill-rule:nonzero}
   ]]>
  </style>
 </defs>
 <g id="Слой_x0020_1">
  <metadata id="CorelCorpID_0Corel-Layer"/>
  <rect id="_133936424" class="fil0" x="-0" width="671.17" height="732.87"/>
  <path id="_205121040" class="fil1" d="M183.38 76.54c-69.21,31.06 -125.95,151.11 -131,214.35 -5.79,72.44 -4.9,116.53 37.36,205.04 0,0 9.54,17.82 40.94,10.18 14.63,2.36 27.62,-3.5 34.35,-13.14 0.16,-0.23 17.9,-1.92 26.32,-10.12 3.82,-3.72 6.25,-7.03 4.87,-13.79 -1.8,-8.86 -4.45,-19.71 -4.45,-19.71 0,0 15.62,-15.57 13.06,-22.19 -2.56,-6.62 -34.49,-34.3 -34.55,-34.57 -21.91,-100.49 -0.42,-186.21 56.99,-255.45l46.13 -61.07c-23.17,-6.84 -65.44,-10.55 -90.01,0.47l0 -0 -0 0 -0 -0 0 0z"/>
  <path id="_201721816" class="fil1" d="M488.67 76.54c69.21,31.06 125.95,151.11 131,214.35 5.79,72.44 4.9,116.53 -37.36,205.04 0,0 -9.54,17.82 -40.94,10.18 -14.63,2.36 -27.62,-3.5 -34.35,-13.14 -0.16,-0.23 -17.9,-1.92 -26.32,-10.12 -3.82,-3.72 -6.25,-7.03 -4.87,-13.79 1.8,-8.86 4.45,-19.71 4.45,-19.71 0,0 -15.62,-15.57 -13.06,-22.19 2.56,-6.62 34.49,-34.3 34.55,-34.57 21.91,-100.49 0.42,-186.21 -56.99,-255.45l-46.13 -61.07c23.17,-6.84 65.44,-10.55 90.01,0.47l-0 -0 0 0 0 -0 0 0z"/>
  <path id="_201723160" class="fil1" d="M211.06 379.37c-12.52,-74.4 -18.97,-199.8 -26.5,-258.79 13.16,-54.17 116.63,-37.56 151.88,-30.23 35.25,-7.33 138.72,-23.94 151.88,30.23 -7.43,58.2 -12.89,182.15 -25.07,256.74 -45.73,14.52 -89.44,19.49 -127.35,19.42 -28.76,-0.06 -95.51,-5.78 -124.84,-17.37l0 -0 -0 0 0 0 -0 0z"/>
  <path id="_208906640" class="fil2" d="M220.88 376.97c-12.22,-79.38 -21.2,-168.5 -26.26,-247.77 10.28,-42.31 75.98,-63.69 141.73,-63.8l0 -0 0.09 0 0.09 -0 0 0c65.74,0.12 131.45,21.49 141.73,63.8 -5.01,78.55 -13.87,166.75 -25.92,245.58 -96.71,29.9 -197.09,10.54 -231.46,2.19l-0 0 0 -0 -0 -0 0 -0z"/>
  <path id="_208908320" class="fil3" d="M216.16 167.83c0,0 25.23,57 71.48,93.9 0,0 -30.83,-17.75 -41.11,-28.97 -10.28,-11.21 -30.37,-64.94 -30.37,-64.94l0 0z"/>
  <path id="_208911776" class="fil3" d="M466.11 233.23c0,0 -24.29,45.32 -85.49,76.62 0,0 45.78,-9.81 80.82,-33.17l1.4 -17.75 3.27 -25.7 -0 0 0 0z"/>
  <path id="_208912112" class="fil4" d="M451.59 170.47c0,0 -24.45,56.65 -90.46,107.11 -11.57,8.84 -32.41,24.51 -0.69,9.08 17.96,-8.74 38.96,-20.53 54.41,-33.97 32.95,-28.66 36.74,-82.22 36.74,-82.22l0 0z"/>
  <path id="_208911440" class="fil3" d="M220.14 341.17c4.36,13.61 69.33,1.98 77.01,1.98 3.8,0 -20.74,15.93 -69.29,25.11l-7.71 -27.09 -0 0 -0 0z"/>
  <path id="_208910096" class="fil3" d="M220.88 376.97c-9.9,-64.34 -17.68,-135.08 -22.96,-201.79 0.63,-2.96 0.15,-4.69 0.63,-4.87 8.46,57.09 18.32,122.36 29.64,176.28 7.79,37.11 41.1,38.63 110.05,36.49 64.2,-2 105.52,-5.72 111.14,-59.61l25.63 -158.64c0,0 0.35,-1.55 0.95,2.46 -5.23,66.63 -13.77,142.99 -23.62,207.49 -96.71,29.9 -197.09,10.54 -231.46,2.19l0 0 0 0 -0 0 0 -0z"/>
  <path id="_208908704" class="fil5" d="M419.35 84.62l-5.06 -7c3.5,-0.15 6.89,-0.28 10.18,-0.38 -1.68,2.29 -3.4,4.76 -5.12,7.38zm143.71 83.79c25.81,41.94 41.38,87.35 47.18,133.81 8.56,68.52 -4.51,128.59 -36.22,190.71 0,0 -3.85,11.34 -28.11,8.53 0,0 7.06,-12.48 6.58,-13.56 -0.48,-1.08 -12.3,12.54 -12.3,12.54 0,0 -14.93,0.05 -27.12,-10.46 0,0 -0.05,-16.86 -1.11,-16.83 -1.06,0.04 -4.45,12.49 -4.45,12.49l-15.94 -4.21c-7.28,-3.42 -9.56,-3.97 -7.58,-12.99 1.51,-6.89 4.03,-18.51 9.58,-38.02 -1.53,-1.8 -5.24,6.67 -7.95,11.33 0,0 -8.73,-9.64 -8.35,-12.92 0.37,-3.29 30.93,-27.05 30.93,-27.05 19.98,-62.68 12.86,-135.23 -8.84,-192.86 12.93,4.52 20.34,10.98 20.34,10.98 3.5,-11.44 4.9,-22.41 4.9,-22.41 12.37,6.3 17.51,10.51 17.51,10.51 3.73,-15.52 2.33,-23.23 2.33,-23.23 10.15,4.2 15.76,9.92 15.76,9.92 2.08,-11.55 3.55,-19.01 2.87,-26.28l0 0 0 0z"/>
  <path id="_208906856" class="fil6" d="M563.11 168.23c25.81,41.94 41.32,87.52 47.13,133.99 8.56,68.52 -4.51,128.59 -36.22,190.71 0,0 -0.33,0.96 -1.39,2.25 -7.01,-0.98 -14.1,-2.57 -21.05,-4.54 0.64,-1.4 1.03,-2.45 0.9,-2.73 -0.14,-0.32 -1.28,0.65 -2.82,2.18 -13.52,-3.99 -26.43,-9.35 -37.09,-14.37 -0.15,-1.54 -0.35,-2.57 -0.61,-2.56 -0.24,0.01 -0.55,0.73 -0.9,1.84 -14.05,-6.71 -23.88,-12.64 -25.49,-13.63l0.01 -0.06c31.07,10.67 83.53,16.02 83.53,16.02 51.23,-105.39 42.16,-211.37 -5.31,-297.16 0.04,-4.08 -0.39,-8.79 -0.68,-11.92l0 -0 0 0 0 0z"/>
  <path id="_208907888" class="fil7" d="M568.33 177.56c-0.16,7.26 -1.09,17.23 -4.29,26.93l-13.07 -7.47c0,0 0,9.8 -6.53,22.64l-6.3 -4.2c0,0 -2.31,5.31 -5.92,10.2l-1.98 -7.46c0,0 -8.39,12.23 -15.96,15.49l-13.97 -22.23c-0.31,-0.85 -0.62,-1.69 -0.94,-2.54 12.93,4.52 20.34,10.98 20.34,10.98 3.5,-11.44 4.9,-22.41 4.9,-22.41 12.37,6.3 17.51,10.51 17.51,10.51 3.73,-15.52 2.33,-23.23 2.33,-23.23 10.15,4.2 15.76,9.92 15.76,9.92 2.08,-11.55 2.86,-19.69 2.76,-27.09 2.57,4.18 2.97,5.64 5.38,9.95z"/>
  <path id="_208907696" class="fil7" d="M510.04 213.59c25.99,53.91 50,150.73 -24.19,264.9 -2.62,-1.83 -3.17,-4.09 -1.87,-10.05 1.51,-6.89 4.03,-18.51 9.58,-38.02 -1.53,-1.8 -5.24,6.67 -7.95,11.33 0,0 -8.73,-9.64 -8.35,-12.92 0.37,-3.29 30.93,-27.05 30.93,-27.05 19.98,-62.68 12.86,-135.23 -8.84,-192.86 4.15,1.45 7.73,3.1 10.68,4.67l0 -0 0 -0 0 -0z"/>
  <path id="_208906352" class="fil2" d="M481.71 170.9l-67.42 -93.29c45.92,-2.03 72.31,-0.04 105.73,34.24 13.49,13.83 25.9,29.66 36.95,46.79 0.33,6.71 0.1,15.07 -1.57,24.36 0,0 -9.1,-8.17 -19.37,-11.67 0,0 2.8,9.34 1.87,25.91 0,0 -7.24,-5.83 -19.6,-12.14 0,0 0.7,12.6 -2.8,24.04 0,0 -7.44,-6.49 -20.43,-11.01 -4.06,-9.62 -8.53,-18.74 -13.35,-27.24l-0 0 0 -0z"/>
  <path id="_208908416" class="fil4" d="M492.8 89.92c8.91,5.17 17.78,12.27 27.22,21.94 13.49,13.83 25.9,29.66 36.95,46.79 0.14,2.89 -1.22,21.48 -1.36,24.93 -16.05,-34.12 -33.63,-62.74 -62.81,-93.66l-0 -0z"/>
  <path id="_208907912" class="fil3" d="M481.71 170.9c-1.42,-1.96 -5.71,-7.65 -5.58,-7.72 1.29,-1.29 30.6,14.61 38.99,46.08 -2.6,-1.3 -16.68,-9.95 -20.06,-11.13 -4.06,-9.62 -8.53,-18.74 -13.35,-27.24z"/>
  <path id="_208907216" class="fil1" d="M592.16 257.95c30.95,-3.49 38.93,30.63 11.63,42.06l-11.63 -42.06z"/>
  <path id="_208906712" class="fil5" d="M603.79 300.19c10.09,-15.73 10.35,-33.11 -11.61,-42.48 0,0 -6.25,30.85 11.61,42.48z"/>
  <path id="_208907576" class="fil6" d="M602.74 301.48c12.22,-15.57 12.36,-34.81 -11.36,-44.24 9.43,6.3 17.21,26.3 10.94,42.95l0.42 1.29z"/>
  <path id="_208907096" class="fil6" d="M593.4 263.77c-2.7,1.68 -2.67,6.61 0.06,11.01 2.74,4.4 7.14,6.6 9.84,4.93 2.7,-1.68 2.67,-6.61 -0.07,-11.01 -2.74,-4.4 -7.14,-6.6 -9.84,-4.92z"/>
  <path id="_208910360" class="fil5" d="M482.99 428.97c0,0 5.01,-10.37 17.82,-16.89 12.81,-6.52 -8.85,17.12 -17.82,16.89z"/>
  <path id="_208910024" class="fil7" d="M575.38 490.21c-0.45,0.91 -0.91,1.81 -1.37,2.72 0,0 -3.85,11.34 -28.11,8.53 0,0 7.05,-12.48 6.58,-13.56 -0.48,-1.08 -12.3,12.55 -12.3,12.55 0,0 -14.93,0.05 -27.12,-10.47 0,0 -0.05,-16.87 -1.11,-16.83 -1.06,0.04 -3.64,13.77 -3.64,13.77 -8.22,-1.09 -17.66,-4.09 -23.2,-9 -1.98,-1.76 -2.31,-4.13 -1.13,-9.48 0.5,-2.3 1.12,-5.12 1.92,-8.59 46.02,20.67 75.44,27.88 89.48,30.36l-0 0 0 0z"/>
  <path id="_208909208" class="fil7" d="M572.84 273.1c0,0 0,15.4 20.77,23.81 0,0 -13.77,-0.47 -19.6,-6.07 -5.83,-5.6 -1.17,-17.74 -1.17,-17.74z"/>
  <path id="_208906880" class="fil1" d="M520.93 195.8c0,0 4.44,9.65 5.12,20.58 0,0 4.74,-13.61 4.11,-19.62 -0.63,-6.01 -8.73,-7.18 -9.23,-0.96z"/>
  <path id="_208907600" class="fil5" d="M252.71 84.62l5.06 -7c-3.5,-0.15 -6.89,-0.28 -10.18,-0.38 1.68,2.29 3.4,4.76 5.12,7.38zm-144.23 85.06c-25.81,41.94 -40.85,86.07 -46.66,132.53 -8.56,68.52 4.51,128.59 36.22,190.71 0,0 3.85,11.34 28.11,8.53 0,0 -7.06,-12.48 -6.58,-13.56 0.48,-1.08 12.3,12.54 12.3,12.54 0,0 14.93,0.05 27.12,-10.46 0,0 0.05,-16.86 1.11,-16.83 1.06,0.04 4.45,12.49 4.45,12.49l15.94 -4.21c7.28,-3.42 9.56,-3.97 7.58,-12.99 -1.51,-6.89 -4.03,-18.51 -9.58,-38.02 1.53,-1.8 5.24,6.67 7.95,11.33 0,0 8.73,-9.64 8.35,-12.92 -0.37,-3.29 -30.93,-27.05 -30.93,-27.05 -19.98,-62.68 -12.86,-135.23 8.84,-192.86 -12.93,4.52 -20.34,10.98 -20.34,10.98 -3.5,-11.44 -4.9,-22.41 -4.9,-22.41 -12.37,6.3 -17.51,10.51 -17.51,10.51 -3.73,-15.52 -2.33,-23.23 -2.33,-23.23 -10.15,4.2 -15.76,9.92 -15.76,9.92 -2.31,-9.45 -4.07,-17.73 -3.39,-25.01l0 0 0 -0z"/>
  <path id="_208910240" class="fil6" d="M108.36 169.57c-25.81,41.94 -40.74,86.19 -46.55,132.65 -8.56,68.52 4.51,128.59 36.22,190.71 0,0 0.33,0.96 1.39,2.25 7.01,-0.98 14.1,-2.57 21.05,-4.54 -0.64,-1.4 -1.03,-2.45 -0.9,-2.73 0.14,-0.32 1.28,0.65 2.82,2.18 13.52,-3.99 26.43,-9.35 37.09,-14.37 0.15,-1.54 0.35,-2.57 0.61,-2.56 0.24,0.01 0.55,0.73 0.9,1.84 14.05,-6.71 23.88,-12.64 25.49,-13.63l-0.01 -0.06c-31.07,10.67 -83.53,16.02 -83.53,16.02 -51.23,-105.39 -41.69,-212.07 5.77,-297.86 -0.04,-4.08 -0.66,-6.76 -0.36,-9.89l-0 0 0 0z"/>
  <path id="_208906784" class="fil7" d="M103.5 178.05c-0.13,8.11 0.67,20.45 5.67,30.17 0,0 4.43,-6.07 10.27,-8.64 0,0 -0.23,13.54 7.24,21.71l8.64 -7c0,0 0.93,10.27 4.67,15.64l9.57 -6.07 7.7 12.14 8.17 -5.28c2.2,-7.46 4.63,-14.73 7.29,-21.79 -12.93,4.52 -20.34,10.98 -20.34,10.98 -3.5,-11.44 -4.9,-22.41 -4.9,-22.41 -12.37,6.3 -17.51,10.51 -17.51,10.51 -3.73,-15.52 -2.33,-23.23 -2.33,-23.23 -10.15,4.2 -15.76,9.92 -15.76,9.92 -2.31,-9.45 -4.07,-17.73 -3.39,-25.01 -1.71,2.78 -3.37,5.56 -4.98,8.36z"/>
  <path id="_208905848" class="fil7" d="M162.02 213.59c-25.99,53.91 -50,150.73 24.19,264.9 2.62,-1.83 3.17,-4.09 1.87,-10.05 -1.51,-6.89 -4.03,-18.51 -9.58,-38.02 1.53,-1.8 5.24,6.67 7.95,11.33 0,0 8.73,-9.64 8.35,-12.92 -0.37,-3.29 -30.93,-27.05 -30.93,-27.05 -19.98,-62.68 -12.86,-135.23 8.84,-192.86 -4.15,1.45 -7.73,3.1 -10.68,4.67l0 -0 0 -0 0 -0z"/>
  <path id="_208908536" class="fil2" d="M190.35 170.9l67.42 -93.29c-45.92,-2.03 -72.31,-0.04 -105.73,34.24 -13.49,13.83 -25.9,29.66 -36.95,46.79 -0.33,6.71 -0.1,15.07 1.57,24.36 0,0 9.1,-8.17 19.37,-11.67 0,0 -2.8,9.34 -1.87,25.91 0,0 7.24,-5.83 19.6,-12.14 0,0 -0.7,12.6 2.8,24.04 0,0 7.44,-6.49 20.43,-11.01 4.06,-9.62 8.53,-18.74 13.35,-27.24l0 0 -0 -0z"/>
  <path id="_208909184" class="fil4" d="M195.25 164.12l2.08 -2.88c4.22,-32.4 -9.14,-66.41 -12.5,-74.3 -2.99,1.47 -5.97,3.14 -8.95,5.03 4.82,11.71 16.57,42.68 19.36,72.15l0 0 0 -0z"/>
  <path id="_208907864" class="fil4" d="M476.12 167.27c-8.94,-25.42 -1.14,-57.22 9.14,-81.38 2.99,1.47 5.97,3.14 8.95,5.03 -4.82,11.71 -15.29,46.87 -18.08,76.35l0 -0z"/>
  <path id="_208909952" class="fil8" d="M212.57 76.74c1.76,-0.45 3.59,-1.13 5.46,-2.27 24.29,85.2 93.64,154.28 108.07,167.96l-1.08 4.34c-84.46,-59.83 -109.78,-158.69 -112.45,-170.04l0 -0 -0 0 -0 0z"/>
  <path id="_208910000" class="fil4" d="M179.26 89.92c-8.91,5.17 -17.78,12.27 -27.22,21.94 -13.49,13.83 -25.9,29.66 -36.95,46.79 -0.14,2.89 0.05,19.59 1.7,24.55 8.2,-28.54 30.16,-64.77 62.47,-93.29l0 -0z"/>
  <path id="_208908392" class="fil3" d="M190.35 170.9l1.68 -2.33c-0.44,-0.25 -0.88,-0.52 -1.33,-0.74 0,0 -24.51,9.43 -32.25,34.69 2.6,-1.3 15.16,-3.19 18.55,-4.37 4.06,-9.62 8.53,-18.74 13.35,-27.24z"/>
  <path id="_208906736" class="fil1" d="M79.89 257.95c-30.95,-3.49 -38.93,30.63 -11.63,42.06l11.63 -42.06z"/>
  <path id="_208907720" class="fil5" d="M68.27 300.19c-10.09,-15.73 -10.35,-33.11 11.61,-42.48 0,0 6.25,30.85 -11.61,42.48z"/>
  <path id="_208909976" class="fil6" d="M69.32 301.48c-12.22,-15.57 -12.36,-34.81 11.36,-44.24 -9.43,6.3 -17.21,26.3 -10.94,42.95l-0.42 1.29z"/>
  <path id="_208907288" class="fil6" d="M78.66 263.77c2.7,1.68 2.67,6.61 -0.06,11.01 -2.74,4.4 -7.14,6.6 -9.84,4.93 -2.7,-1.68 -2.67,-6.61 0.07,-11.01 2.74,-4.4 7.14,-6.6 9.84,-4.92z"/>
  <path id="_208906592" class="fil5" d="M189.07 428.97c0,0 -5.01,-10.37 -17.82,-16.89 -12.81,-6.52 8.85,17.12 17.82,16.89z"/>
  <path id="_208907480" class="fil7" d="M96.67 490.21c0.45,0.91 0.91,1.81 1.37,2.72 0,0 3.85,11.34 28.11,8.53 0,0 -7.05,-12.48 -6.58,-13.56 0.48,-1.08 12.3,12.55 12.3,12.55 0,0 14.93,0.05 27.12,-10.47 0,0 0.05,-16.87 1.11,-16.83 1.06,0.04 3.64,13.77 3.64,13.77 8.22,-1.09 17.66,-4.09 23.2,-9 1.98,-1.76 2.31,-4.13 1.13,-9.48 -0.5,-2.3 -1.12,-5.12 -1.92,-8.59 -46.02,20.67 -75.44,27.88 -89.48,30.36l0 0 -0 0z"/>
  <path id="_208908752" class="fil7" d="M99.22 273.1c0,0 0,15.4 -20.77,23.81 0,0 13.77,-0.47 19.6,-6.07 5.83,-5.6 1.17,-17.74 1.17,-17.74z"/>
  <path id="_208905896" class="fil1" d="M151.13 195.8c0,0 -4.44,9.65 -5.12,20.58 0,0 -4.74,-13.61 -4.11,-19.62 0.63,-6.01 8.73,-7.18 9.23,-0.96z"/>
  <path id="_208908152" class="fil3" d="M302.11 261.64c-12.61,-11.19 -24.19,-23.66 -34.82,-36.74 -33.83,-41.6 -58.38,-90.49 -71.9,-142.35 127.26,-35.95 247.72,-8.36 289.41,3.6l-6.25 13.44c-9.51,20.46 -21.45,40.26 -33.75,59.15 -26.37,40.51 -58.07,79.21 -95.31,110.21 -4.5,3.75 -11.29,9.69 -17.27,10.01 -10.47,0.57 -22.74,-10.78 -30.11,-17.33l0 0 0 0 0 0z"/>
  <path id="_208908968" class="fil1" d="M302.11 253.47c-12.61,-11.19 -24.19,-23.66 -34.82,-36.74 -33.83,-41.6 -58.38,-90.49 -71.9,-142.35 127.26,-35.95 247.72,-8.36 289.41,3.6l-6.25 13.44c-9.51,20.46 -21.45,40.26 -33.75,59.15 -26.37,40.51 -58.07,79.21 -95.31,110.21 -4.5,3.75 -11.29,9.69 -17.27,10.01 -10.47,0.57 -22.74,-10.78 -30.11,-17.33l0 0 0 0 0 0z"/>
  <path id="_208909544" class="fil2" d="M305.96 249.13c-12.33,-10.94 -23.78,-23.28 -34.17,-36.06 -33.32,-40.98 -55.18,-83.1 -68.48,-134.2 110.02,-23.28 201.53,-11.37 253.81,-0.03l19.42 3.13 -3.26 7c-9.17,19.71 -21.54,40.29 -33.35,58.43 -25.98,39.92 -57.48,78.38 -94.16,108.91 -3.09,2.57 -9.83,8.46 -13.87,8.68 -7.21,0.39 -16.89,-7.83 -25.95,-15.87l0 0 -0 0 0 0 0 -0z"/>
  <polygon id="_208910456" class="fil9" points="420.4,176.28 407.34,171.52 410.36,165.72 "/>
  <path id="_208912136" class="fil4" d="M216.65 76.9c32.5,118.37 110.69,178.93 113.88,178.93 1.96,-1.61 4.31,-3.12 6.23,-4.78 28.64,-24.6 54.46,-52.83 73.65,-79.65 33.49,-46.84 50.1,-88 50.1,-88 -62.17,-9.65 -246.79,-17.17 -243.86,-6.49l0 0 0 0 -0 0 0 0z"/>
  <path id="_208911176" class="fil1" d="M216.65 76.74c32.5,114.7 110.69,173.38 113.88,173.38 1.96,-1.56 4.31,-3.03 6.23,-4.63 78.65,-65.46 125.84,-166.87 125.84,-166.87 -62.17,-9.36 -248.88,-12.23 -245.95,-1.88l0 0 0 0 -0 0 -0 0z"/>
  <path id="_208909424" class="fil5" d="M224.52 73.22c9.55,37.34 24.66,67.4 40.55,92.35 22.52,7.27 76.59,19.98 135.66,-0.66 30.95,-42.15 47.62,-77.84 47.62,-77.84 0,0 -89.59,-17.25 -115.08,-19.79 -25.49,-2.55 -108.75,5.95 -108.75,5.95l-0 0 -0 0 -0 0z"/>
  <path id="_208908728" class="fil7" d="M243.42 126.22c6.7,14.43 14.08,27.47 21.65,39.35 2.55,0.82 5.51,1.72 8.83,2.62 -11.02,-15.83 -17.93,-28.12 -17.93,-28.12 -4.8,-6.5 -8.95,-10.93 -12.54,-13.85zm151.12 40.73c2.06,-0.64 4.12,-1.32 6.19,-2.04 13.36,-18.2 24.06,-35.19 31.91,-48.63 -3.99,2.26 -9.09,8 -15.59,18.38 -7.57,12.1 -15.15,22.82 -22.51,32.29z"/>
  <path id="_208912376" class="fil7" d="M224.52 73.22c6.43,25.12 15.37,46.95 25.37,66.14 49.77,30.06 118.32,30.18 168.25,0.38 19.74,-30.27 35.1,-62.46 35.1,-62.46 -79.95,-15.39 -145.09,-16.09 -228.72,-4.06l0 0 0 0 -0 0z"/>
  <path id="_208911320" class="fil6" d="M269.28 173.18c29.53,44.04 60.29,66.61 62.16,66.61 25.22,-20.06 46.72,-43.98 64.16,-66.86 -53.66,17.11 -102.51,7.35 -126.32,0.25l0 -0 -0 0z"/>
  <path id="_208906520" class="fil6" d="M387.17 175.41c-45.55,12.32 -86.77,6.01 -110.9,-0.28 16.2,7.97 60.64,24.73 110.9,0.28z"/>
  <path id="_208913168" class="fil10" d="M269.28 173.18c29.53,44.04 60.29,66.61 62.16,66.61 25.22,-20.06 46.72,-43.98 64.16,-66.86 -2.57,0.82 -5.12,1.57 -7.66,2.27 -31.5,38.16 -57.29,52.85 -57.29,52.85 -19.07,-11.83 -37.47,-33.34 -51.23,-52.13 -3.75,-0.92 -7.14,-1.85 -10.14,-2.75l0 -0 0 0z"/>
  <path id="_208912832" class="fil1" d="M392.73 181.61c0,0 -15.64,12.37 -62.78,16.57 0,0 30.34,2.57 58.11,-6.53l1.17 -3.03 3.5 -7z"/>
  <path id="_208912448" class="fil1" d="M270.9 181.38c0,0 12.03,12.37 48.31,16.57 0,0 -23.35,2.57 -44.72,-6.53l-0.9 -3.03 -2.69 -7z"/>
  <path id="_208909688" class="fil1" d="M497.36 87.75c0,0 -15.97,27.31 -16.77,79.92 -0.04,2.9 -4.52,-1.33 -5.09,1.52 0,0 -2.16,-49.72 16.71,-86.76l5.88 2.29 -0.73 3.04 0 0z"/>
  <path id="_208908944" class="fil1" d="M498.1 123.03c0,0 -9.96,-12.53 -27.8,-14.4 7.27,9.27 15.78,14.75 27.8,14.4z"/>
  <path id="_208913096" class="fil1" d="M493.86 139.67c0,0 -15.91,-1.8 -29.82,9.52 11.7,1.39 21.59,-0.76 29.82,-9.52z"/>
  <path id="_208912424" class="fil1" d="M171.7 93.59c0,0 19,27.07 19.81,79.68 0.04,2.9 4.52,-1.33 5.09,1.52 0,0 3.1,-49.02 -18.58,-86.53l-4.02 2.06 -2.3 3.28 0 0z"/>
  <path id="_208911680" class="fil1" d="M172.42 125.49c0,0 4.72,-15.29 20.67,-23.51 -3.41,11.28 -9.34,19.48 -20.67,23.51z"/>
  <path id="_208911152" class="fil1" d="M178.47 148.07c0,0 15.91,-1.8 29.82,9.52 -11.7,1.39 -21.59,-0.76 -29.82,-9.52z"/>
  <path id="_208908584" class="fil1" d="M411.87 150.57c0,0 -12.14,9.34 -47.38,15.87 0,0 28.01,-1.17 45.04,-7l2.8 -3.03 -0.47 -5.83z"/>
  <path id="_208910672" class="fil1" d="M255.27 150.57c0,0 12.14,9.34 47.38,15.87 0,0 -28.01,-1.17 -45.04,-7l-2.8 -3.03 0.47 -5.83z"/>
  <path id="_208910216" class="fil11" d="M92.87 325.97c-0.8,0.47 -1.83,0.21 -2.3,-0.59 -0.47,-0.8 -0.21,-1.83 0.59,-2.3 2.4,-1.42 5.4,-1.49 8.11,-0.54 1.66,0.58 3.22,1.55 4.47,2.82 1.28,1.3 2.23,2.92 2.62,4.77 0.55,2.57 0.03,5.53 -2.15,8.62 -2.45,3.48 -5.27,4.42 -7.81,3.91 -1.65,-0.33 -3.12,-1.29 -4.26,-2.57 -1.09,-1.23 -1.89,-2.78 -2.25,-4.35 -0.61,-2.72 0.06,-5.51 2.71,-7.08 2.59,-1.53 4.7,-1.46 6.26,-0.57 0.04,0.02 0.08,0.05 0.12,0.08 0.71,0.43 1.28,1.04 1.7,1.73 0.42,0.68 0.7,1.46 0.84,2.24 0.37,2.04 -0.22,4.28 -1.73,5.37 -0.75,0.54 -1.8,0.37 -2.35,-0.38 -0.54,-0.75 -0.37,-1.8 0.38,-2.35 0.42,-0.31 0.55,-1.17 0.39,-2.04 -0.07,-0.4 -0.2,-0.77 -0.4,-1.09 -0.15,-0.25 -0.34,-0.46 -0.56,-0.6l-0.06 -0.03c-0.58,-0.33 -1.53,-0.27 -2.9,0.54 -1.18,0.7 -1.45,2.07 -1.14,3.44 0.23,1.02 0.76,2.04 1.49,2.86 0.68,0.76 1.52,1.33 2.4,1.51 1.31,0.26 2.87,-0.37 4.41,-2.55 1.58,-2.23 1.97,-4.27 1.61,-5.98 -0.25,-1.2 -0.88,-2.26 -1.73,-3.12 -0.88,-0.9 -1.99,-1.58 -3.18,-2 -1.83,-0.64 -3.8,-0.63 -5.29,0.25zm9.52 137.04c0,-0.79 21.81,3.32 45.52,-14.46 1.96,-1.47 2.46,-0.64 0.91,1.11 -23.26,26.21 -47.29,14.52 -46.43,13.35zm-2.65 -12.11c0,-0.79 21.81,3.32 45.52,-14.46 1.97,-1.47 2.46,-0.64 0.91,1.11 -23.26,26.21 -47.29,14.52 -46.43,13.35zm-1.05 -137.87c0.83,0.6 1.02,1.76 0.42,2.58 -0.6,0.83 -1.76,1.01 -2.58,0.42 -3.81,-2.75 -4.6,-6.45 -3.7,-9.77 0.44,-1.61 1.29,-3.11 2.39,-4.35 1.12,-1.26 2.49,-2.25 3.97,-2.83 2.84,-1.1 5.99,-0.73 8.43,2.11 0.23,0.27 0.46,0.56 0.68,0.89 1.04,1.52 1.7,3.33 1.82,5.02 0.13,1.93 -0.41,3.75 -1.82,4.96 -0.03,0.02 -0.06,0.05 -0.09,0.07 -0.1,0.08 -0.22,0.17 -0.34,0.25 -2.47,1.69 -4.88,1.46 -6.67,0.39 -0.66,-0.39 -1.24,-0.91 -1.69,-1.49 -0.46,-0.59 -0.81,-1.25 -1.01,-1.93 -0.49,-1.65 -0.16,-3.37 1.32,-4.5 0.81,-0.63 1.97,-0.48 2.6,0.33 0.63,0.81 0.48,1.97 -0.33,2.6 -0.1,0.08 -0.1,0.28 -0.03,0.52 0.07,0.23 0.19,0.46 0.37,0.68 0.18,0.23 0.42,0.44 0.68,0.6 0.68,0.4 1.63,0.45 2.68,-0.26 0.02,-0.02 0.05,-0.03 0.07,-0.06l0.03 -0.03c0.44,-0.38 0.6,-1.07 0.54,-1.88 -0.07,-1.05 -0.5,-2.21 -1.17,-3.19 -0.12,-0.18 -0.27,-0.37 -0.44,-0.57 -1.23,-1.44 -2.83,-1.63 -4.27,-1.07 -0.93,0.36 -1.81,1 -2.54,1.81 -0.74,0.83 -1.3,1.83 -1.59,2.88 -0.52,1.94 -0.02,4.12 2.29,5.8zm38.66 73.19c0.59,0.43 0.73,1.26 0.3,1.85 -0.43,0.6 -1.26,0.73 -1.85,0.3 -2.73,-1.97 -3.3,-4.62 -2.65,-7.01 0.31,-1.15 0.92,-2.23 1.71,-3.12 0.8,-0.9 1.79,-1.62 2.85,-2.03 2.04,-0.79 4.29,-0.53 6.04,1.52 0.16,0.19 0.33,0.4 0.49,0.64 0.75,1.09 1.22,2.39 1.3,3.6 0.1,1.38 -0.29,2.69 -1.31,3.56 -0.02,0.02 -0.04,0.03 -0.06,0.05 -0.07,0.06 -0.16,0.12 -0.25,0.18 -1.77,1.21 -3.49,1.05 -4.78,0.28 -0.48,-0.28 -0.89,-0.65 -1.21,-1.07 -0.33,-0.42 -0.58,-0.9 -0.73,-1.39 -0.35,-1.18 -0.11,-2.41 0.95,-3.23 0.58,-0.45 1.41,-0.34 1.86,0.24 0.45,0.58 0.34,1.42 -0.24,1.87 -0.08,0.06 -0.08,0.2 -0.02,0.37 0.05,0.16 0.14,0.33 0.27,0.49 0.13,0.17 0.3,0.32 0.49,0.43 0.48,0.29 1.17,0.33 1.92,-0.19 0.01,-0.01 0.03,-0.02 0.05,-0.04l0.03 -0.02c0.31,-0.27 0.43,-0.77 0.39,-1.35 -0.05,-0.75 -0.36,-1.58 -0.84,-2.29 -0.09,-0.13 -0.19,-0.27 -0.31,-0.41 -0.89,-1.03 -2.03,-1.17 -3.06,-0.77 -0.67,0.26 -1.3,0.72 -1.82,1.3 -0.53,0.59 -0.93,1.31 -1.14,2.06 -0.37,1.39 -0.01,2.96 1.65,4.16zm-50.64 -3.39c0.78,-0.21 1.57,0.25 1.79,1.02 0.21,0.77 -0.25,1.57 -1.02,1.79 -5.44,1.48 -9.48,-0.55 -11.89,-3.88 -1.19,-1.64 -1.96,-3.59 -2.29,-5.58 -0.33,-1.99 -0.22,-4.04 0.36,-5.87 1.09,-3.4 3.74,-6.01 8.14,-6.13 0.43,-0.01 0.89,0 1.36,0.04 2.22,0.17 4.42,0.93 6.09,2.1 1.83,1.28 3.06,3.05 3.12,5.14 0,0.03 0,0.06 0,0.1 0,0.16 -0,0.33 -0.02,0.51 -0.27,3.43 -2.2,5.41 -4.44,6.24 -0.84,0.31 -1.71,0.45 -2.55,0.44 -0.85,-0.01 -1.68,-0.18 -2.42,-0.48 -1.72,-0.71 -2.95,-2.14 -2.9,-4.12 0.02,-0.81 0.69,-1.44 1.5,-1.42 0.8,0.02 1.44,0.69 1.42,1.49 -0.01,0.61 0.44,1.09 1.08,1.35 0.4,0.16 0.86,0.25 1.36,0.26 0.5,0.01 1.02,-0.08 1.5,-0.26 1.27,-0.47 2.38,-1.65 2.55,-3.74 0,-0.07 0.01,-0.14 0.01,-0.21l-0 -0.06c-0.03,-1.08 -0.77,-2.07 -1.87,-2.84 -1.26,-0.88 -2.95,-1.45 -4.66,-1.59 -0.33,-0.02 -0.67,-0.04 -1.03,-0.02 -2.94,0.09 -4.72,1.83 -5.45,4.1 -0.44,1.37 -0.52,2.95 -0.26,4.5 0.26,1.56 0.86,3.08 1.77,4.34 1.75,2.41 4.72,3.88 8.76,2.78zm68.76 -41.19c-0.22,-0.86 0.3,-1.74 1.16,-1.96 0.86,-0.22 1.74,0.3 1.96,1.16 1.55,6.05 -0.76,10.5 -4.47,13.11 -1.83,1.29 -4.01,2.12 -6.21,2.45 -2.22,0.33 -4.48,0.18 -6.49,-0.49 -3.75,-1.25 -6.59,-4.23 -6.67,-9.11 -0.01,-0.48 0.02,-0.98 0.06,-1.5 0.23,-2.45 1.1,-4.88 2.42,-6.71 1.44,-2 3.42,-3.34 5.74,-3.37 0.04,-0 0.07,-0 0.11,-0 0.18,0 0.37,0.01 0.56,0.03 3.79,0.35 5.96,2.52 6.84,5.01 0.33,0.93 0.47,1.9 0.45,2.83 -0.02,0.94 -0.22,1.86 -0.57,2.68 -0.81,1.9 -2.41,3.23 -4.6,3.14 -0.9,-0.04 -1.59,-0.79 -1.56,-1.68 0.03,-0.89 0.78,-1.58 1.68,-1.55 0.68,0.02 1.21,-0.47 1.51,-1.18 0.18,-0.44 0.29,-0.95 0.3,-1.5 0.02,-0.56 -0.07,-1.13 -0.26,-1.67 -0.5,-1.42 -1.8,-2.66 -4.11,-2.88 -0.08,-0 -0.16,-0.01 -0.24,-0.01l-0.07 -0c-1.2,0.02 -2.3,0.82 -3.17,2.03 -1,1.38 -1.65,3.24 -1.83,5.13 -0.03,0.36 -0.05,0.75 -0.04,1.14 0.05,3.25 1.95,5.25 4.46,6.1 1.52,0.5 3.26,0.61 4.99,0.35 1.73,-0.26 3.42,-0.9 4.84,-1.9 2.7,-1.9 4.37,-5.17 3.21,-9.66zm-41.9 13.07c0.71,0.37 0.98,1.25 0.61,1.97 -0.37,0.71 -1.25,0.98 -1.96,0.61 -4.99,-2.62 -6.57,-6.86 -6.07,-10.93 0.25,-2.01 1.01,-3.97 2.12,-5.65 1.11,-1.68 2.59,-3.11 4.26,-4.05 3.11,-1.75 6.83,-1.85 10.14,1.05 0.33,0.29 0.65,0.61 0.97,0.95 1.51,1.64 2.6,3.69 3.03,5.68 0.47,2.18 0.16,4.32 -1.22,5.89 -0.02,0.02 -0.04,0.05 -0.06,0.07 -0.11,0.12 -0.23,0.24 -0.36,0.36 -2.53,2.33 -5.3,2.47 -7.5,1.55 -0.83,-0.34 -1.56,-0.83 -2.17,-1.41 -0.61,-0.59 -1.11,-1.27 -1.45,-2 -0.78,-1.69 -0.7,-3.57 0.68,-4.99 0.56,-0.58 1.49,-0.59 2.06,-0.02 0.58,0.56 0.59,1.49 0.02,2.06 -0.43,0.44 -0.42,1.1 -0.13,1.72 0.18,0.39 0.46,0.77 0.82,1.11 0.36,0.35 0.8,0.64 1.27,0.84 1.25,0.52 2.87,0.41 4.41,-1.01 0.05,-0.05 0.1,-0.1 0.15,-0.15l0.04 -0.05c0.71,-0.81 0.84,-2.04 0.56,-3.35 -0.32,-1.5 -1.17,-3.07 -2.33,-4.33 -0.22,-0.24 -0.47,-0.49 -0.74,-0.72 -2.21,-1.94 -4.7,-1.88 -6.78,-0.7 -1.25,0.71 -2.38,1.81 -3.25,3.12 -0.87,1.32 -1.47,2.84 -1.66,4.39 -0.36,2.96 0.81,6.06 4.52,8zm16.57 -31.98c0.71,0.37 0.98,1.25 0.61,1.97 -0.37,0.71 -1.25,0.98 -1.96,0.61 -4.99,-2.62 -6.57,-6.86 -6.07,-10.93 0.25,-2.01 1.01,-3.97 2.12,-5.65 1.11,-1.68 2.59,-3.11 4.26,-4.05 3.11,-1.75 6.83,-1.85 10.14,1.05 0.33,0.29 0.65,0.61 0.97,0.95 1.51,1.64 2.6,3.69 3.03,5.68 0.47,2.18 0.16,4.32 -1.22,5.89 -0.02,0.02 -0.04,0.05 -0.06,0.07 -0.11,0.12 -0.23,0.24 -0.36,0.36 -2.53,2.33 -5.3,2.47 -7.5,1.55 -0.83,-0.34 -1.56,-0.83 -2.17,-1.41 -0.61,-0.59 -1.11,-1.27 -1.45,-2 -0.78,-1.69 -0.7,-3.57 0.68,-4.99 0.56,-0.58 1.49,-0.59 2.06,-0.02 0.58,0.56 0.59,1.49 0.02,2.06 -0.43,0.44 -0.42,1.1 -0.13,1.72 0.18,0.39 0.46,0.77 0.82,1.11 0.36,0.35 0.8,0.64 1.27,0.84 1.25,0.52 2.87,0.41 4.41,-1.01 0.05,-0.05 0.1,-0.1 0.15,-0.15l0.04 -0.05c0.71,-0.81 0.84,-2.04 0.56,-3.35 -0.32,-1.5 -1.17,-3.07 -2.33,-4.33 -0.22,-0.24 -0.47,-0.49 -0.74,-0.72 -2.21,-1.94 -4.7,-1.88 -6.78,-0.7 -1.25,0.71 -2.38,1.81 -3.25,3.12 -0.87,1.32 -1.47,2.84 -1.66,4.39 -0.36,2.96 0.81,6.06 4.52,8zm-51.69 -1.39c-0.29,-0.88 0.2,-1.83 1.08,-2.12 0.88,-0.29 1.83,0.2 2.12,1.08 0.86,2.66 0.26,5.61 -1.26,8.04 -0.94,1.49 -2.23,2.81 -3.74,3.74 -1.55,0.96 -3.35,1.53 -5.24,1.51 -2.63,-0.03 -5.4,-1.19 -7.94,-4 -2.85,-3.16 -3.15,-6.12 -2.1,-8.49 0.69,-1.54 1.95,-2.76 3.45,-3.59 1.44,-0.8 3.13,-1.24 4.74,-1.24 2.79,0 5.37,1.27 6.32,4.21 0.93,2.87 0.39,4.91 -0.83,6.24 -0.03,0.04 -0.07,0.07 -0.1,0.1 -0.58,0.6 -1.29,1.03 -2.06,1.29 -0.76,0.26 -1.58,0.36 -2.37,0.32 -2.08,-0.09 -4.13,-1.16 -4.86,-2.87 -0.36,-0.85 0.03,-1.84 0.89,-2.21 0.85,-0.36 1.84,0.03 2.21,0.89 0.2,0.48 1.02,0.79 1.91,0.83 0.4,0.02 0.8,-0.03 1.15,-0.15 0.27,-0.09 0.52,-0.23 0.71,-0.41l0.04 -0.05c0.46,-0.5 0.6,-1.43 0.11,-2.95 -0.42,-1.3 -1.7,-1.87 -3.11,-1.87 -1.05,-0 -2.16,0.29 -3.12,0.82 -0.9,0.5 -1.63,1.19 -2,2.02 -0.54,1.22 -0.27,2.88 1.52,4.87 1.84,2.03 3.74,2.87 5.48,2.89 1.23,0.01 2.4,-0.36 3.43,-1 1.07,-0.66 1.99,-1.6 2.65,-2.66 1.03,-1.64 1.46,-3.57 0.92,-5.22zm45.74 46.21c-0.29,-0.88 0.2,-1.83 1.08,-2.12 0.88,-0.29 1.83,0.2 2.12,1.08 0.86,2.66 0.26,5.61 -1.26,8.04 -0.94,1.49 -2.23,2.81 -3.74,3.74 -1.55,0.96 -3.35,1.53 -5.24,1.51 -2.63,-0.03 -5.4,-1.19 -7.94,-4 -2.85,-3.16 -3.15,-6.12 -2.1,-8.49 0.69,-1.54 1.95,-2.76 3.45,-3.59 1.44,-0.8 3.13,-1.24 4.74,-1.24 2.79,0 5.37,1.27 6.32,4.21 0.93,2.87 0.39,4.91 -0.83,6.24 -0.03,0.04 -0.07,0.07 -0.1,0.1 -0.58,0.6 -1.29,1.03 -2.06,1.29 -0.76,0.26 -1.58,0.36 -2.37,0.32 -2.08,-0.09 -4.13,-1.16 -4.86,-2.87 -0.36,-0.85 0.03,-1.84 0.89,-2.21 0.85,-0.36 1.84,0.03 2.21,0.89 0.2,0.48 1.02,0.79 1.91,0.83 0.4,0.02 0.8,-0.03 1.15,-0.15 0.27,-0.09 0.52,-0.23 0.71,-0.41l0.04 -0.05c0.46,-0.5 0.6,-1.43 0.11,-2.95 -0.42,-1.3 -1.7,-1.87 -3.11,-1.87 -1.05,-0 -2.16,0.29 -3.12,0.82 -0.9,0.5 -1.63,1.19 -2,2.02 -0.54,1.22 -0.27,2.88 1.52,4.87 1.84,2.03 3.74,2.87 5.48,2.89 1.23,0.01 2.4,-0.36 3.43,-1 1.07,-0.66 1.99,-1.6 2.65,-2.66 1.03,-1.64 1.46,-3.57 0.92,-5.22zm-48.42 41.65c-0.26,0.89 -1.2,1.4 -2.09,1.14 -0.89,-0.26 -1.4,-1.2 -1.14,-2.09 0.79,-2.67 2.95,-4.77 5.58,-5.92 1.61,-0.7 3.42,-1.06 5.19,-0.98 1.82,0.08 3.62,0.63 5.17,1.71 2.15,1.51 3.78,4.02 4.29,7.78 0.57,4.22 -0.85,6.82 -3.06,8.18 -1.43,0.88 -3.16,1.18 -4.87,1.02 -1.63,-0.16 -3.28,-0.75 -4.6,-1.65 -2.3,-1.57 -3.71,-4.08 -2.84,-7.03 0.85,-2.89 2.45,-4.27 4.2,-4.68 0.05,-0.01 0.09,-0.02 0.14,-0.03 0.82,-0.17 1.64,-0.11 2.42,0.1 0.77,0.22 1.5,0.59 2.14,1.07 1.66,1.25 2.75,3.28 2.39,5.11 -0.18,0.91 -1.06,1.5 -1.97,1.32 -0.91,-0.18 -1.5,-1.06 -1.32,-1.97 0.1,-0.51 -0.4,-1.23 -1.11,-1.76 -0.32,-0.24 -0.68,-0.43 -1.04,-0.53 -0.28,-0.08 -0.56,-0.1 -0.81,-0.06l-0.06 0.02c-0.65,0.15 -1.3,0.84 -1.75,2.37 -0.39,1.31 0.35,2.5 1.51,3.3 0.86,0.59 1.95,0.98 3.03,1.08 1.02,0.1 2.02,-0.06 2.78,-0.53 1.14,-0.7 1.85,-2.22 1.49,-4.87 -0.37,-2.71 -1.47,-4.47 -2.89,-5.47 -1,-0.71 -2.19,-1.06 -3.39,-1.11 -1.25,-0.06 -2.54,0.2 -3.69,0.7 -1.77,0.77 -3.21,2.12 -3.7,3.79zm27.31 -16.34c-0.26,0.89 -1.2,1.4 -2.09,1.14 -0.89,-0.26 -1.4,-1.2 -1.14,-2.09 0.79,-2.67 2.95,-4.77 5.58,-5.92 1.61,-0.7 3.42,-1.06 5.19,-0.98 1.82,0.08 3.62,0.63 5.17,1.71 2.15,1.51 3.78,4.02 4.29,7.78 0.57,4.22 -0.85,6.82 -3.06,8.18 -1.43,0.88 -3.16,1.18 -4.87,1.02 -1.63,-0.16 -3.28,-0.75 -4.6,-1.65 -2.3,-1.57 -3.71,-4.08 -2.84,-7.03 0.85,-2.89 2.45,-4.27 4.2,-4.68 0.05,-0.01 0.09,-0.02 0.14,-0.03 0.82,-0.17 1.64,-0.11 2.42,0.1 0.77,0.22 1.5,0.59 2.14,1.07 1.66,1.25 2.75,3.28 2.39,5.11 -0.18,0.91 -1.06,1.5 -1.97,1.32 -0.91,-0.18 -1.5,-1.06 -1.32,-1.97 0.1,-0.51 -0.4,-1.23 -1.11,-1.76 -0.32,-0.24 -0.68,-0.43 -1.04,-0.53 -0.28,-0.08 -0.56,-0.1 -0.81,-0.06l-0.06 0.02c-0.65,0.15 -1.3,0.84 -1.75,2.37 -0.39,1.31 0.35,2.5 1.51,3.3 0.86,0.59 1.95,0.98 3.03,1.08 1.02,0.1 2.02,-0.06 2.78,-0.53 1.14,-0.7 1.85,-2.22 1.49,-4.87 -0.37,-2.71 -1.47,-4.47 -2.89,-5.47 -1,-0.71 -2.19,-1.06 -3.39,-1.11 -1.25,-0.06 -2.54,0.2 -3.69,0.7 -1.77,0.77 -3.21,2.12 -3.7,3.79zm-27.5 -50.35c-0.8,0.47 -1.83,0.21 -2.3,-0.59 -0.47,-0.8 -0.21,-1.83 0.59,-2.3 2.4,-1.42 5.4,-1.49 8.11,-0.54 1.66,0.58 3.22,1.55 4.47,2.82 1.28,1.3 2.23,2.92 2.62,4.77 0.55,2.57 0.03,5.52 -2.15,8.62 -2.45,3.48 -5.27,4.42 -7.81,3.91 -1.65,-0.33 -3.12,-1.29 -4.26,-2.57 -1.09,-1.23 -1.89,-2.78 -2.25,-4.35 -0.61,-2.72 0.06,-5.51 2.71,-7.08 2.59,-1.53 4.7,-1.46 6.26,-0.57 0.04,0.02 0.08,0.05 0.12,0.08 0.71,0.43 1.28,1.04 1.7,1.73 0.42,0.68 0.7,1.46 0.84,2.24 0.37,2.04 -0.22,4.28 -1.73,5.37 -0.75,0.54 -1.8,0.37 -2.35,-0.38 -0.54,-0.75 -0.37,-1.8 0.38,-2.35 0.42,-0.31 0.55,-1.17 0.39,-2.04 -0.07,-0.4 -0.2,-0.77 -0.4,-1.09 -0.15,-0.25 -0.34,-0.46 -0.56,-0.6l-0.06 -0.03c-0.58,-0.33 -1.53,-0.27 -2.9,0.54 -1.18,0.7 -1.45,2.07 -1.14,3.44 0.23,1.02 0.76,2.04 1.49,2.86 0.68,0.76 1.52,1.33 2.4,1.51 1.31,0.26 2.87,-0.37 4.41,-2.55 1.58,-2.23 1.97,-4.27 1.61,-5.98 -0.25,-1.2 -0.88,-2.26 -1.73,-3.12 -0.88,-0.9 -1.99,-1.58 -3.18,-2 -1.83,-0.64 -3.8,-0.63 -5.29,0.25z"/>
  <path id="_208912664" class="fil11" d="M579.47 325.97c0.8,0.47 1.83,0.21 2.3,-0.59 0.47,-0.8 0.21,-1.83 -0.59,-2.3 -2.4,-1.42 -5.4,-1.49 -8.11,-0.54 -1.66,0.58 -3.22,1.55 -4.47,2.82 -1.28,1.3 -2.23,2.92 -2.62,4.77 -0.55,2.57 -0.03,5.53 2.15,8.62 2.45,3.48 5.27,4.42 7.81,3.91 1.65,-0.33 3.12,-1.29 4.26,-2.57 1.09,-1.23 1.89,-2.78 2.25,-4.35 0.61,-2.72 -0.06,-5.51 -2.71,-7.08 -2.59,-1.53 -4.7,-1.46 -6.26,-0.57 -0.04,0.02 -0.08,0.05 -0.12,0.08 -0.71,0.43 -1.28,1.04 -1.7,1.73 -0.42,0.68 -0.7,1.46 -0.84,2.24 -0.37,2.04 0.22,4.28 1.73,5.37 0.75,0.54 1.8,0.37 2.35,-0.38 0.54,-0.75 0.37,-1.8 -0.38,-2.35 -0.42,-0.31 -0.55,-1.17 -0.39,-2.04 0.07,-0.4 0.2,-0.77 0.4,-1.09 0.15,-0.25 0.34,-0.46 0.56,-0.6l0.06 -0.03c0.58,-0.33 1.53,-0.27 2.9,0.54 1.18,0.7 1.45,2.07 1.14,3.44 -0.23,1.02 -0.76,2.04 -1.49,2.86 -0.68,0.76 -1.52,1.33 -2.4,1.51 -1.31,0.26 -2.87,-0.37 -4.41,-2.55 -1.58,-2.23 -1.97,-4.27 -1.61,-5.98 0.25,-1.2 0.88,-2.26 1.73,-3.12 0.88,-0.9 1.99,-1.58 3.18,-2 1.83,-0.64 3.8,-0.63 5.29,0.25zm-9.52 137.04c-0,-0.79 -21.81,3.32 -45.52,-14.46 -1.96,-1.47 -2.46,-0.64 -0.91,1.11 23.26,26.21 47.29,14.52 46.43,13.35zm2.65 -12.11c-0,-0.79 -21.81,3.32 -45.52,-14.46 -1.97,-1.47 -2.46,-0.64 -0.91,1.11 23.26,26.21 47.29,14.52 46.43,13.35zm1.05 -137.87c-0.83,0.6 -1.02,1.76 -0.42,2.58 0.6,0.83 1.76,1.01 2.58,0.42 3.81,-2.75 4.6,-6.45 3.7,-9.77 -0.44,-1.61 -1.29,-3.11 -2.39,-4.35 -1.12,-1.26 -2.49,-2.25 -3.97,-2.83 -2.84,-1.1 -5.99,-0.73 -8.43,2.11 -0.23,0.27 -0.46,0.56 -0.68,0.89 -1.04,1.52 -1.7,3.33 -1.82,5.02 -0.13,1.93 0.41,3.75 1.82,4.96 0.03,0.02 0.06,0.05 0.09,0.07 0.1,0.08 0.22,0.17 0.34,0.25 2.47,1.69 4.88,1.46 6.67,0.39 0.66,-0.39 1.24,-0.91 1.69,-1.49 0.46,-0.59 0.81,-1.25 1.01,-1.93 0.49,-1.65 0.16,-3.37 -1.32,-4.5 -0.81,-0.63 -1.97,-0.48 -2.6,0.33 -0.63,0.81 -0.48,1.97 0.33,2.6 0.1,0.08 0.1,0.28 0.03,0.52 -0.07,0.23 -0.19,0.46 -0.37,0.68 -0.18,0.23 -0.42,0.44 -0.68,0.6 -0.68,0.4 -1.63,0.45 -2.68,-0.26 -0.02,-0.02 -0.05,-0.03 -0.07,-0.06l-0.03 -0.03c-0.44,-0.38 -0.6,-1.07 -0.54,-1.88 0.07,-1.05 0.5,-2.21 1.17,-3.19 0.12,-0.18 0.27,-0.37 0.44,-0.57 1.23,-1.44 2.83,-1.63 4.27,-1.07 0.93,0.36 1.81,1 2.54,1.81 0.74,0.83 1.3,1.83 1.59,2.88 0.52,1.94 0.02,4.12 -2.29,5.8zm-38.66 73.19c-0.59,0.43 -0.73,1.26 -0.3,1.85 0.43,0.6 1.26,0.73 1.85,0.3 2.73,-1.97 3.3,-4.62 2.65,-7.01 -0.31,-1.15 -0.92,-2.23 -1.71,-3.12 -0.8,-0.9 -1.79,-1.62 -2.85,-2.03 -2.04,-0.79 -4.29,-0.53 -6.04,1.52 -0.16,0.19 -0.33,0.4 -0.49,0.64 -0.75,1.09 -1.22,2.39 -1.3,3.6 -0.1,1.38 0.29,2.69 1.31,3.56 0.02,0.02 0.04,0.03 0.06,0.05 0.07,0.06 0.16,0.12 0.25,0.18 1.77,1.21 3.49,1.05 4.78,0.28 0.48,-0.28 0.89,-0.65 1.21,-1.07 0.33,-0.42 0.58,-0.9 0.73,-1.39 0.35,-1.18 0.11,-2.41 -0.95,-3.23 -0.58,-0.45 -1.41,-0.34 -1.86,0.24 -0.45,0.58 -0.34,1.42 0.24,1.87 0.08,0.06 0.08,0.2 0.02,0.37 -0.05,0.16 -0.14,0.33 -0.27,0.49 -0.13,0.17 -0.3,0.32 -0.49,0.43 -0.48,0.29 -1.17,0.33 -1.92,-0.19 -0.01,-0.01 -0.03,-0.02 -0.05,-0.04l-0.03 -0.02c-0.31,-0.27 -0.43,-0.77 -0.39,-1.35 0.05,-0.75 0.36,-1.58 0.84,-2.29 0.09,-0.13 0.19,-0.27 0.31,-0.41 0.89,-1.03 2.03,-1.17 3.06,-0.77 0.67,0.26 1.3,0.72 1.82,1.3 0.53,0.59 0.93,1.31 1.14,2.06 0.37,1.39 0.01,2.96 -1.65,4.16zm50.64 -3.39c-0.78,-0.21 -1.57,0.25 -1.79,1.02 -0.21,0.77 0.25,1.57 1.02,1.79 5.44,1.48 9.48,-0.55 11.89,-3.88 1.19,-1.64 1.96,-3.59 2.29,-5.58 0.33,-1.99 0.22,-4.04 -0.36,-5.87 -1.09,-3.4 -3.74,-6.01 -8.14,-6.13 -0.43,-0.01 -0.89,0 -1.36,0.04 -2.22,0.17 -4.42,0.93 -6.09,2.1 -1.83,1.28 -3.06,3.05 -3.12,5.14 -0,0.03 -0,0.06 -0,0.1 -0,0.16 0,0.33 0.02,0.51 0.27,3.43 2.2,5.41 4.44,6.24 0.84,0.31 1.71,0.45 2.55,0.44 0.85,-0.01 1.68,-0.18 2.42,-0.48 1.72,-0.71 2.95,-2.14 2.9,-4.12 -0.02,-0.81 -0.69,-1.44 -1.5,-1.42 -0.8,0.02 -1.44,0.69 -1.42,1.49 0.01,0.61 -0.44,1.09 -1.08,1.35 -0.4,0.16 -0.86,0.25 -1.36,0.26 -0.5,0.01 -1.02,-0.08 -1.5,-0.26 -1.27,-0.47 -2.38,-1.65 -2.55,-3.74 -0,-0.07 -0.01,-0.14 -0.01,-0.21l0 -0.06c0.03,-1.08 0.77,-2.07 1.87,-2.84 1.26,-0.88 2.95,-1.45 4.66,-1.59 0.33,-0.02 0.67,-0.04 1.03,-0.02 2.94,0.09 4.72,1.83 5.45,4.1 0.44,1.37 0.52,2.95 0.26,4.5 -0.26,1.56 -0.86,3.08 -1.77,4.34 -1.75,2.41 -4.72,3.88 -8.76,2.78zm-68.76 -41.19c0.22,-0.86 -0.3,-1.74 -1.16,-1.96 -0.86,-0.22 -1.74,0.3 -1.96,1.16 -1.55,6.05 0.76,10.5 4.47,13.11 1.83,1.29 4.01,2.12 6.21,2.45 2.22,0.33 4.48,0.18 6.49,-0.49 3.75,-1.25 6.59,-4.23 6.67,-9.11 0.01,-0.48 -0.02,-0.98 -0.06,-1.5 -0.23,-2.45 -1.1,-4.88 -2.42,-6.71 -1.44,-2 -3.42,-3.34 -5.74,-3.37 -0.04,-0 -0.07,-0 -0.11,-0 -0.18,0 -0.37,0.01 -0.56,0.03 -3.79,0.35 -5.96,2.52 -6.84,5.01 -0.33,0.93 -0.47,1.9 -0.45,2.83 0.02,0.94 0.22,1.86 0.57,2.68 0.81,1.9 2.41,3.23 4.6,3.14 0.9,-0.04 1.59,-0.79 1.56,-1.68 -0.03,-0.89 -0.78,-1.58 -1.68,-1.55 -0.68,0.02 -1.21,-0.47 -1.51,-1.18 -0.18,-0.44 -0.29,-0.95 -0.3,-1.5 -0.02,-0.56 0.07,-1.13 0.26,-1.67 0.5,-1.42 1.8,-2.66 4.11,-2.88 0.08,-0 0.16,-0.01 0.24,-0.01l0.07 -0c1.2,0.02 2.3,0.82 3.17,2.03 1,1.38 1.65,3.24 1.83,5.13 0.03,0.36 0.05,0.75 0.04,1.14 -0.05,3.25 -1.95,5.25 -4.46,6.1 -1.52,0.5 -3.26,0.61 -4.99,0.35 -1.73,-0.26 -3.42,-0.9 -4.84,-1.9 -2.7,-1.9 -4.37,-5.17 -3.21,-9.66zm41.9 13.07c-0.71,0.37 -0.98,1.25 -0.61,1.97 0.37,0.71 1.25,0.98 1.96,0.61 4.99,-2.62 6.57,-6.86 6.07,-10.93 -0.25,-2.01 -1.01,-3.97 -2.12,-5.65 -1.11,-1.68 -2.59,-3.11 -4.26,-4.05 -3.11,-1.75 -6.83,-1.85 -10.14,1.05 -0.33,0.29 -0.65,0.61 -0.97,0.95 -1.51,1.64 -2.6,3.69 -3.03,5.68 -0.47,2.18 -0.16,4.32 1.22,5.89 0.02,0.02 0.04,0.05 0.06,0.07 0.11,0.12 0.23,0.24 0.36,0.36 2.53,2.33 5.3,2.47 7.5,1.55 0.83,-0.34 1.56,-0.83 2.17,-1.41 0.61,-0.59 1.11,-1.27 1.45,-2 0.78,-1.69 0.7,-3.57 -0.68,-4.99 -0.56,-0.58 -1.49,-0.59 -2.06,-0.02 -0.58,0.56 -0.59,1.49 -0.02,2.06 0.43,0.44 0.42,1.1 0.13,1.72 -0.18,0.39 -0.46,0.77 -0.82,1.11 -0.36,0.35 -0.8,0.64 -1.27,0.84 -1.25,0.52 -2.87,0.41 -4.41,-1.01 -0.05,-0.05 -0.1,-0.1 -0.15,-0.15l-0.04 -0.05c-0.71,-0.81 -0.84,-2.04 -0.56,-3.35 0.32,-1.5 1.17,-3.07 2.33,-4.33 0.22,-0.24 0.47,-0.49 0.74,-0.72 2.21,-1.94 4.7,-1.88 6.78,-0.7 1.25,0.71 2.38,1.81 3.25,3.12 0.87,1.32 1.47,2.84 1.66,4.39 0.36,2.96 -0.81,6.06 -4.52,8zm-16.57 -31.98c-0.71,0.37 -0.98,1.25 -0.61,1.97 0.37,0.71 1.25,0.98 1.96,0.61 4.99,-2.62 6.57,-6.86 6.07,-10.93 -0.25,-2.01 -1.01,-3.97 -2.12,-5.65 -1.11,-1.68 -2.59,-3.11 -4.26,-4.05 -3.11,-1.75 -6.83,-1.85 -10.14,1.05 -0.33,0.29 -0.65,0.61 -0.97,0.95 -1.51,1.64 -2.6,3.69 -3.03,5.68 -0.47,2.18 -0.16,4.32 1.22,5.89 0.02,0.02 0.04,0.05 0.06,0.07 0.11,0.12 0.23,0.24 0.36,0.36 2.53,2.33 5.3,2.47 7.5,1.55 0.83,-0.34 1.56,-0.83 2.17,-1.41 0.61,-0.59 1.11,-1.27 1.45,-2 0.78,-1.69 0.7,-3.57 -0.68,-4.99 -0.56,-0.58 -1.49,-0.59 -2.06,-0.02 -0.58,0.56 -0.59,1.49 -0.02,2.06 0.43,0.44 0.42,1.1 0.13,1.72 -0.18,0.39 -0.46,0.77 -0.82,1.11 -0.36,0.35 -0.8,0.64 -1.27,0.84 -1.25,0.52 -2.87,0.41 -4.41,-1.01 -0.05,-0.05 -0.1,-0.1 -0.15,-0.15l-0.04 -0.05c-0.71,-0.81 -0.84,-2.04 -0.56,-3.35 0.32,-1.5 1.17,-3.07 2.33,-4.33 0.22,-0.24 0.47,-0.49 0.74,-0.72 2.21,-1.94 4.7,-1.88 6.78,-0.7 1.25,0.71 2.38,1.81 3.25,3.12 0.87,1.32 1.47,2.84 1.66,4.39 0.36,2.96 -0.81,6.06 -4.52,8zm51.69 -1.39c0.29,-0.88 -0.2,-1.83 -1.08,-2.12 -0.88,-0.29 -1.83,0.2 -2.12,1.08 -0.86,2.66 -0.26,5.61 1.26,8.04 0.94,1.49 2.23,2.81 3.74,3.74 1.55,0.96 3.35,1.53 5.24,1.51 2.63,-0.03 5.4,-1.19 7.94,-4 2.85,-3.16 3.15,-6.12 2.1,-8.49 -0.69,-1.54 -1.95,-2.76 -3.45,-3.59 -1.44,-0.8 -3.13,-1.24 -4.74,-1.24 -2.79,0 -5.37,1.27 -6.32,4.21 -0.93,2.87 -0.39,4.91 0.83,6.24 0.03,0.04 0.07,0.07 0.1,0.1 0.58,0.6 1.29,1.03 2.06,1.29 0.76,0.26 1.58,0.36 2.37,0.32 2.08,-0.09 4.13,-1.16 4.86,-2.87 0.36,-0.85 -0.03,-1.84 -0.89,-2.21 -0.85,-0.36 -1.84,0.03 -2.21,0.89 -0.2,0.48 -1.02,0.79 -1.91,0.83 -0.4,0.02 -0.8,-0.03 -1.15,-0.15 -0.27,-0.09 -0.52,-0.23 -0.71,-0.41l-0.04 -0.05c-0.46,-0.5 -0.6,-1.43 -0.11,-2.95 0.42,-1.3 1.7,-1.87 3.11,-1.87 1.05,-0 2.16,0.29 3.12,0.82 0.9,0.5 1.63,1.19 2,2.02 0.54,1.22 0.27,2.88 -1.52,4.87 -1.84,2.03 -3.74,2.87 -5.48,2.89 -1.23,0.01 -2.4,-0.36 -3.43,-1 -1.07,-0.66 -1.99,-1.6 -2.65,-2.66 -1.03,-1.64 -1.46,-3.57 -0.92,-5.22zm-45.74 46.21c0.29,-0.88 -0.2,-1.83 -1.08,-2.12 -0.88,-0.29 -1.83,0.2 -2.12,1.08 -0.86,2.66 -0.26,5.61 1.26,8.04 0.94,1.49 2.23,2.81 3.74,3.74 1.55,0.96 3.35,1.53 5.24,1.51 2.63,-0.03 5.4,-1.19 7.94,-4 2.85,-3.16 3.15,-6.12 2.1,-8.49 -0.69,-1.54 -1.95,-2.76 -3.45,-3.59 -1.44,-0.8 -3.13,-1.24 -4.74,-1.24 -2.79,0 -5.37,1.27 -6.32,4.21 -0.93,2.87 -0.39,4.91 0.83,6.24 0.03,0.04 0.07,0.07 0.1,0.1 0.58,0.6 1.29,1.03 2.06,1.29 0.76,0.26 1.58,0.36 2.37,0.32 2.08,-0.09 4.13,-1.16 4.86,-2.87 0.36,-0.85 -0.03,-1.84 -0.89,-2.21 -0.85,-0.36 -1.84,0.03 -2.21,0.89 -0.2,0.48 -1.02,0.79 -1.91,0.83 -0.4,0.02 -0.8,-0.03 -1.15,-0.15 -0.27,-0.09 -0.52,-0.23 -0.71,-0.41l-0.04 -0.05c-0.46,-0.5 -0.6,-1.43 -0.11,-2.95 0.42,-1.3 1.7,-1.87 3.11,-1.87 1.05,-0 2.16,0.29 3.12,0.82 0.9,0.5 1.63,1.19 2,2.02 0.54,1.22 0.27,2.88 -1.52,4.87 -1.84,2.03 -3.74,2.87 -5.48,2.89 -1.23,0.01 -2.4,-0.36 -3.43,-1 -1.07,-0.66 -1.99,-1.6 -2.65,-2.66 -1.03,-1.64 -1.46,-3.57 -0.92,-5.22zm48.42 41.65c0.26,0.89 1.2,1.4 2.09,1.14 0.89,-0.26 1.4,-1.2 1.14,-2.09 -0.79,-2.67 -2.95,-4.77 -5.58,-5.92 -1.61,-0.7 -3.42,-1.06 -5.19,-0.98 -1.82,0.08 -3.62,0.63 -5.17,1.71 -2.15,1.51 -3.78,4.02 -4.29,7.78 -0.57,4.22 0.85,6.82 3.06,8.18 1.43,0.88 3.16,1.18 4.87,1.02 1.63,-0.16 3.28,-0.75 4.6,-1.65 2.3,-1.57 3.71,-4.08 2.84,-7.03 -0.85,-2.89 -2.45,-4.27 -4.2,-4.68 -0.05,-0.01 -0.09,-0.02 -0.14,-0.03 -0.82,-0.17 -1.64,-0.11 -2.42,0.1 -0.77,0.22 -1.5,0.59 -2.14,1.07 -1.66,1.25 -2.75,3.28 -2.39,5.11 0.18,0.91 1.06,1.5 1.97,1.32 0.91,-0.18 1.5,-1.06 1.32,-1.97 -0.1,-0.51 0.4,-1.23 1.11,-1.76 0.32,-0.24 0.68,-0.43 1.04,-0.53 0.28,-0.08 0.56,-0.1 0.81,-0.06l0.06 0.02c0.65,0.15 1.3,0.84 1.75,2.37 0.39,1.31 -0.35,2.5 -1.51,3.3 -0.86,0.59 -1.95,0.98 -3.03,1.08 -1.02,0.1 -2.02,-0.06 -2.78,-0.53 -1.14,-0.7 -1.85,-2.22 -1.49,-4.87 0.37,-2.71 1.47,-4.47 2.89,-5.47 1,-0.71 2.19,-1.06 3.39,-1.11 1.25,-0.06 2.54,0.2 3.69,0.7 1.77,0.77 3.21,2.12 3.7,3.79zm-27.31 -16.34c0.26,0.89 1.2,1.4 2.09,1.14 0.89,-0.26 1.4,-1.2 1.14,-2.09 -0.79,-2.67 -2.95,-4.77 -5.58,-5.92 -1.61,-0.7 -3.42,-1.06 -5.19,-0.98 -1.82,0.08 -3.62,0.63 -5.17,1.71 -2.15,1.51 -3.78,4.02 -4.29,7.78 -0.57,4.22 0.85,6.82 3.06,8.18 1.43,0.88 3.16,1.18 4.87,1.02 1.63,-0.16 3.28,-0.75 4.6,-1.65 2.3,-1.57 3.71,-4.08 2.84,-7.03 -0.85,-2.89 -2.45,-4.27 -4.2,-4.68 -0.05,-0.01 -0.09,-0.02 -0.14,-0.03 -0.82,-0.17 -1.64,-0.11 -2.42,0.1 -0.77,0.22 -1.5,0.59 -2.14,1.07 -1.66,1.25 -2.75,3.28 -2.39,5.11 0.18,0.91 1.06,1.5 1.97,1.32 0.91,-0.18 1.5,-1.06 1.32,-1.97 -0.1,-0.51 0.4,-1.23 1.11,-1.76 0.32,-0.24 0.68,-0.43 1.04,-0.53 0.28,-0.08 0.56,-0.1 0.81,-0.06l0.06 0.02c0.65,0.15 1.3,0.84 1.75,2.37 0.39,1.31 -0.35,2.5 -1.51,3.3 -0.86,0.59 -1.95,0.98 -3.03,1.08 -1.02,0.1 -2.02,-0.06 -2.78,-0.53 -1.14,-0.7 -1.85,-2.22 -1.49,-4.87 0.37,-2.71 1.47,-4.47 2.89,-5.47 1,-0.71 2.19,-1.06 3.39,-1.11 1.25,-0.06 2.54,0.2 3.69,0.7 1.77,0.77 3.21,2.12 3.7,3.79zm27.5 -50.35c0.8,0.47 1.83,0.21 2.3,-0.59 0.47,-0.8 0.21,-1.83 -0.59,-2.3 -2.4,-1.42 -5.4,-1.49 -8.11,-0.54 -1.66,0.58 -3.22,1.55 -4.47,2.82 -1.28,1.3 -2.23,2.92 -2.62,4.77 -0.55,2.57 -0.03,5.52 2.15,8.62 2.45,3.48 5.27,4.42 7.81,3.91 1.65,-0.33 3.12,-1.29 4.26,-2.57 1.09,-1.23 1.89,-2.78 2.25,-4.35 0.61,-2.72 -0.06,-5.51 -2.71,-7.08 -2.59,-1.53 -4.7,-1.46 -6.26,-0.57 -0.04,0.02 -0.08,0.05 -0.12,0.08 -0.71,0.43 -1.28,1.04 -1.7,1.73 -0.42,0.68 -0.7,1.46 -0.84,2.24 -0.37,2.04 0.22,4.28 1.73,5.37 0.75,0.54 1.8,0.37 2.35,-0.38 0.54,-0.75 0.37,-1.8 -0.38,-2.35 -0.42,-0.31 -0.55,-1.17 -0.39,-2.04 0.07,-0.4 0.2,-0.77 0.4,-1.09 0.15,-0.25 0.34,-0.46 0.56,-0.6l0.06 -0.03c0.58,-0.33 1.53,-0.27 2.9,0.54 1.18,0.7 1.45,2.07 1.14,3.44 -0.23,1.02 -0.76,2.04 -1.49,2.86 -0.68,0.76 -1.52,1.33 -2.4,1.51 -1.31,0.26 -2.87,-0.37 -4.41,-2.55 -1.58,-2.23 -1.97,-4.27 -1.61,-5.98 0.25,-1.2 0.88,-2.26 1.73,-3.12 0.88,-0.9 1.99,-1.58 3.18,-2 1.83,-0.64 3.8,-0.63 5.29,0.25z"/>
  <polygon id="_208911728" class="fil1" points="203.55,288.83 255.5,300.75 204.95,300.04 "/>
  <polygon id="_208914848" class="fil1" points="406.5,165.74 420.64,176.62 426.1,190.95 425.88,172.61 412.33,158.51 "/>
  <path id="_208914944" class="fil1" d="M418.52 148.19l16.54 13.51 -11.65 -18.99c0,0 -5.01,5.36 -4.89,5.47z"/>
  <path class="fil12" d="M329.69 305.53c-1.38,1.53 -3.73,1.65 -5.26,0.28 -1.53,-1.38 -1.65,-3.73 -0.28,-5.26l9.59 -10.64c1.38,-1.53 3.73,-1.65 5.26,-0.28 0.17,0.15 0.32,0.32 0.46,0.5l29.14 33.6c1.24,1.43 1.19,3.54 -0.04,4.91l-29.24 33.71c-1.34,1.55 -3.69,1.72 -5.25,0.38 -0.15,-0.13 -0.29,-0.27 -0.41,-0.42l-29.25 -33.72c-1.23,-1.43 -1.19,-3.53 0.03,-4.9l6.08 -7.03c1.34,-1.55 3.69,-1.72 5.25,-0.38 1.55,1.34 1.72,3.69 0.38,5.25l-4 4.63 24.36 28.09 24.36 -28.08 -24.41 -28.14 -6.77 7.52zm6.82 12.42c4.53,0 8.21,3.67 8.21,8.21 0,4.53 -3.67,8.21 -8.21,8.21 -4.53,0 -8.21,-3.67 -8.21,-8.21 0,-4.53 3.67,-8.21 8.21,-8.21zm31.9 -25.04c-1.48,-1.42 -1.53,-3.78 -0.1,-5.26 1.42,-1.48 3.78,-1.53 5.26,-0.1 5.15,4.96 9.3,10.94 12.14,17.62 2.74,6.44 4.26,13.52 4.26,20.92 0,7.27 -1.46,14.22 -4.1,20.56 -2.74,6.57 -6.75,12.49 -11.73,17.43 -1.46,1.45 -3.81,1.44 -5.26,-0.01 -1.45,-1.46 -1.44,-3.81 0.01,-5.26 4.29,-4.25 7.74,-9.35 10.1,-15.01 2.27,-5.44 3.52,-11.42 3.52,-17.71 0,-6.41 -1.3,-12.49 -3.64,-18.01 -2.44,-5.75 -6.02,-10.9 -10.45,-15.17zm-13.6 75.44c1.88,-0.82 4.08,0.04 4.9,1.92 0.82,1.88 -0.04,4.08 -1.92,4.9l-1.03 0.44c-1.9,0.79 -4.08,-0.11 -4.87,-2.01 -0.79,-1.9 0.11,-4.08 2.01,-4.87l0.91 -0.38zm-18.38 3.8c2.06,0 3.73,1.67 3.73,3.73 0,2.06 -1.67,3.73 -3.73,3.73 -14.78,0 -28.17,-5.99 -37.85,-15.68 -9.69,-9.69 -15.68,-23.07 -15.68,-37.85 0,-14.78 5.99,-28.16 15.68,-37.85 9.69,-9.69 23.07,-15.68 37.85,-15.68 2.06,0 3.73,1.67 3.73,3.73 0,2.06 -1.67,3.73 -3.73,3.73 -12.72,0 -24.24,5.16 -32.58,13.49 -8.34,8.34 -13.49,19.85 -13.49,32.58 0,12.72 5.16,24.24 13.49,32.58 8.34,8.34 19.85,13.49 32.58,13.49zm-14.02 -57.83c-1.41,1.5 -3.76,1.57 -5.26,0.16 -1.5,-1.41 -1.57,-3.76 -0.16,-5.26l0.86 -0.92c1.41,-1.5 3.76,-1.57 5.26,-0.16 1.5,1.41 1.57,3.76 0.16,5.26l-0.86 0.92z"/>
 </g>
</svg>
