<?xml version="1.0" encoding="UTF-8"?>
<!DOCTYPE svg PUBLIC "-//W3C//DTD SVG 1.1//EN" "http://www.w3.org/Graphics/SVG/1.1/DTD/svg11.dtd">
<!-- Creator: CorelDRAW 2020 (64-Bit) -->
<svg xmlns="http://www.w3.org/2000/svg" xml:space="preserve" width="161.908mm" height="176.791mm" version="1.1" style="shape-rendering:geometricPrecision; text-rendering:geometricPrecision; image-rendering:optimizeQuality; fill-rule:evenodd; clip-rule:evenodd"
viewBox="0 0 612.01 668.27"
 xmlns:xlink="http://www.w3.org/1999/xlink"
 xmlns:xodm="http://www.corel.com/coreldraw/odm/2003">
 <defs>
  <style type="text/css">
   <![CDATA[
    .fil0 {fill:none}
    .fil6 {fill:#3EA38B}
    .fil1 {fill:#501D33}
    .fil12 {fill:#525B75}
    .fil5 {fill:#55DF99}
    .fil11 {fill:#65798E}
    .fil7 {fill:#8FF0A7}
    .fil9 {fill:#C9C7D2}
    .fil4 {fill:#D77D75}
    .fil2 {fill:#FFCFA5}
    .fil3 {fill:white}
    .fil10 {fill:#501D33;fill-rule:nonzero}
    .fil8 {fill:white;fill-rule:nonzero}
   ]]>
  </style>
 </defs>
 <g id="Слой_x0020_1">
  <metadata id="CorelCorpID_0Corel-Layer"/>
  <rect id="_119805880" class="fil0" y="0" width="612.01" height="668.27"/>
  <path id="_119805808" class="fil1" d="M139.25 290.89l18.15 -3.09 -0.79 -3.54 -18.04 1.56c0,0 -0.67,2.46 0.68,5.07zm-67.26 49.18c0.28,1.11 -0.39,2.23 -1.5,2.51 -1.11,0.28 -2.23,-0.39 -2.51,-1.5 -0.28,-1.11 0.39,-2.23 1.5,-2.51 1.11,-0.28 2.23,0.39 2.51,1.5zm-12.89 -60.79l-18.15 -3.09 0.79 -3.54 18.04 1.56c0,0 0.67,2.46 -0.68,5.07zm-6.03 29.31l-12.28 0.82 -0.04 -2.42 11.97 -1.8c0,0 0.82,1.49 0.35,3.4zm3.39 31.61l-13.93 4.17 -0.68 -2.78 13.32 -5.22c0,0 1.34,1.51 1.3,3.82zm3.9 -39.35l-20.64 -2.08 0.61 -4.03 20.4 0.37c0,0 0.94,2.71 -0.37,5.75zm77.63 11.62l20.64 -2.08 -0.61 -4.03 -20.4 0.37c0,0 -0.94,2.71 0.37,5.75zm4.88 9.25l14.54 0.35 -0.07 -2.86 -14.22 -1.52c0,0 -0.89,1.81 -0.24,4.03z"/>
  <path id="_119543888" class="fil1" d="M167.19 69.32c-63.11,28.32 -114.84,137.79 -119.45,195.45 -5.28,66.06 -4.46,106.26 34.07,186.96 0,0 8.38,17.21 37.01,10.24 12.91,1.09 25.72,-3.4 31.85,-12.19 0.15,-0.21 16.11,-2.49 23.79,-9.97 3.48,-3.39 5.7,-6.41 4.44,-12.58 -1.64,-8.08 -4.06,-17.97 -4.06,-17.97 0,0 14.24,-14.2 11.91,-20.24 -2.33,-6.04 -31.45,-31.28 -31.5,-31.52 -19.98,-91.63 -0.39,-169.79 51.96,-232.93l42.06 -55.69c-21.13,-6.24 -59.67,-9.62 -82.08,0.43l-0 0 -0 0z"/>
  <path id="_119543816" class="fil2" d="M173.54 155.37l61.48 -85.06c-41.87,-1.85 -65.93,-0.03 -96.41,31.22 -43.34,44.45 -74.51,111.51 -82.27,173.58 -7.81,62.48 4.12,117.26 33.03,173.9 0,0 3.51,10.34 25.64,7.78 0,0 -6.43,-11.38 -6,-12.37 0.44,-0.98 11.21,11.44 11.21,11.44 0,0 13.61,0.05 24.73,-9.54 0,0 0.05,-15.38 1.01,-15.34 0.96,0.04 4.06,11.39 4.06,11.39l14.54 -3.84c6.64,-3.12 8.72,-3.62 6.91,-11.84 -1.38,-6.28 -3.68,-16.88 -8.74,-34.67 1.4,-1.65 4.77,6.08 7.25,10.33 0,0 7.96,-8.79 7.62,-11.78 -0.34,-3 -28.21,-24.66 -28.21,-24.66 -22.52,-70.66 -7.29,-155.07 24.15,-210.53l0 -0 0 -0 0 0z"/>
  <path id="_119543744" class="fil3" d="M163.42 81.52c-8.13,4.71 -16.22,11.19 -24.82,20.01 -43.34,44.45 -74.51,111.51 -82.27,173.58 -7.81,62.48 4.12,117.26 33.03,173.9 0,0 0.3,0.87 1.26,2.05 6.39,-0.89 12.85,-2.34 19.19,-4.14 -0.58,-1.28 -0.93,-2.24 -0.82,-2.49 0.13,-0.29 1.17,0.59 2.57,1.99 12.33,-3.64 24.1,-8.52 33.82,-13.1 0.14,-1.41 0.32,-2.34 0.56,-2.33 0.22,0.01 0.51,0.66 0.82,1.67 12.81,-6.11 21.77,-11.53 23.25,-12.43l-0.01 -0.06c-28.33,9.73 -76.16,14.6 -76.16,14.6 -64.54,-132.77 -19.8,-274.35 69.57,-353.25l0 -0 0 -0 0 -0 0 0z"/>
  <path id="_119544464" class="fil4" d="M173.54 155.37l1.54 -2.13c-0.4,-0.23 -0.8,-0.48 -1.21,-0.68 0,0 -108.33,122.87 -4.1,283.28 2.39,-1.67 2.89,-3.73 1.7,-9.17 -1.38,-6.28 -3.68,-16.88 -8.74,-34.67 1.4,-1.65 4.77,6.08 7.25,10.33 0,0 7.96,-8.79 7.62,-11.78 -0.34,-3 -28.21,-24.66 -28.21,-24.66 -22.52,-70.66 -7.29,-155.07 24.15,-210.53l0 -0 0 0 0 0z"/>
  <path id="_119543312" class="fil1" d="M72.82 234.75c-28.22,-3.19 -35.5,27.93 -10.6,38.35l10.6 -38.35z"/>
  <path id="_119543600" class="fil2" d="M62.22 273.25c-9.2,-14.34 -9.44,-30.2 10.59,-38.73 0,0 5.7,28.13 -10.59,38.73z"/>
  <path id="_119543528" class="fil3" d="M63.18 274.44c-11.14,-14.2 -11.27,-31.74 10.36,-40.34 -8.6,5.75 -15.69,23.98 -9.98,39.16l-0.38 1.17z"/>
  <path id="_119543456" class="fil3" d="M71.7 240.05c2.46,1.53 2.44,6.03 -0.06,10.04 -2.49,4.01 -6.51,6.02 -8.98,4.49 -2.46,-1.53 -2.44,-6.03 0.06,-10.04 2.49,-4.01 6.51,-6.02 8.98,-4.49z"/>
  <path id="_119543096" class="fil2" d="M172.37 390.69c0,0 -4.57,-9.45 -16.25,-15.4 -11.68,-5.95 8.07,15.61 16.25,15.4z"/>
  <path id="_119543024" class="fil4" d="M88.12 446.53c0.41,0.83 0.83,1.65 1.25,2.48 0,0 3.51,10.34 25.63,7.78 0,0 -6.43,-11.38 -6,-12.37 0.44,-0.98 11.21,11.44 11.21,11.44 0,0 13.61,0.05 24.73,-9.54 0,0 0.05,-15.38 1.01,-15.34 0.97,0.04 3.32,12.56 3.32,12.56 7.5,-1 16.11,-3.73 21.16,-8.21 1.81,-1.6 2.11,-3.76 1.03,-8.65 -0.46,-2.09 -1.02,-4.67 -1.75,-7.83 -41.96,18.85 -68.79,25.42 -81.59,27.68l0 0z"/>
  <path id="_88446128" class="fil4" d="M90.45 248.56c0,0 0,14.05 -18.94,21.71 0,0 12.56,-0.43 17.88,-5.53 5.32,-5.11 1.06,-16.17 1.06,-16.17z"/>
  <path id="_119541680" class="fil1" d="M192.44 345.23c-11.09,-68.02 -17.78,-182.69 -24.55,-235.74 12,-49.39 106.35,-34.25 138.49,-27.57 32.14,-6.68 126.49,-21.83 138.49,27.57 -6.77,53.05 -13.67,167.51 -24.76,235.53 -60.37,22.96 -167.29,23.17 -227.66,0.21l0 0 0 -0 0 0 0 0z"/>
  <path id="_119542880" class="fil1" d="M475.11 294.93l-18.15 -3.09 0.79 -3.54 18.04 1.56c0,0 0.67,2.46 -0.68,5.07zm67.26 49.18c-0.28,1.11 0.39,2.23 1.5,2.51 1.11,0.28 2.23,-0.39 2.51,-1.5 0.28,-1.11 -0.39,-2.23 -1.5,-2.51 -1.11,-0.28 -2.23,0.39 -2.51,1.5zm12.89 -60.79l18.15 -3.09 -0.79 -3.54 -18.04 1.56c0,0 -0.67,2.46 0.68,5.07zm6.03 29.31l12.28 0.82 0.04 -2.42 -11.97 -1.8c0,0 -0.82,1.49 -0.35,3.4zm-3.39 31.61l13.93 4.17 0.68 -2.78 -13.32 -5.22c0,0 -1.34,1.51 -1.3,3.82zm-3.9 -39.35l20.64 -2.08 -0.61 -4.03 -20.4 0.37c0,0 -0.94,2.71 0.37,5.75zm-77.63 11.62l-20.64 -2.08 0.61 -4.03 20.4 0.37c0,0 0.94,2.71 -0.37,5.75zm-4.88 9.25l-14.54 0.35 0.07 -2.86 14.22 -1.52c0,0 0.89,1.81 0.24,4.03z"/>
  <path id="_119542808" class="fil1" d="M445.68 69.11c63.11,28.32 114.84,137.79 119.45,195.45 5.28,66.06 3.83,106.9 -34.7,187.6 0,0 -8.7,16.25 -37.33,9.28 -13.34,1.25 -25.19,-3.99 -31.32,-11.98 -0.16,-0.21 -15.68,-2.39 -23.36,-9.86 -3.48,-3.39 -5.7,-6.41 -4.44,-12.58 1.64,-8.08 4.06,-17.97 4.06,-17.97 0,0 -14.24,-14.2 -11.91,-20.24 2.33,-6.04 31.45,-31.28 31.5,-31.52 19.98,-91.63 0.39,-169.79 -51.96,-232.93l-42.06 -55.69c21.13,-6.24 59.67,-9.62 82.08,0.43l0 0 0 0 0 0z"/>
  <path id="_119542736" class="fil2" d="M439.33 155.16l-61.48 -85.06c41.87,-1.85 65.93,-0.03 96.41,31.22 43.34,44.45 74.51,111.51 82.27,173.58 7.81,62.48 -4.12,117.26 -33.03,173.9 0,0 -3.51,10.34 -25.64,7.78 0,0 6.43,-11.38 6,-12.37 -0.44,-0.98 -11.21,11.44 -11.21,11.44 0,0 -13.61,0.05 -24.73,-9.54 0,0 -0.05,-15.38 -1.01,-15.34 -0.96,0.04 -4.06,11.39 -4.06,11.39l-14.54 -3.84c-6.64,-3.12 -8.72,-3.62 -6.91,-11.84 1.38,-6.28 3.68,-16.88 8.74,-34.67 -1.4,-1.65 -4.77,6.08 -7.25,10.33 0,0 -7.96,-8.79 -7.62,-11.78 0.34,-3 28.21,-24.66 28.21,-24.66 22.52,-70.66 7.29,-155.07 -24.15,-210.53l0 -0 -0 -0 0 0z"/>
  <path id="_119543168" class="fil4" d="M439.33 155.16l-1.54 -2.13c0.4,-0.23 0.8,-0.48 1.21,-0.68 0,0 108.33,122.87 4.1,283.28 -2.39,-1.67 -2.89,-3.73 -1.7,-9.17 1.38,-6.28 3.68,-16.88 8.74,-34.67 -1.4,-1.65 -4.77,6.08 -7.25,10.33 0,0 -7.96,-8.79 -7.62,-11.78 0.34,-3 28.21,-24.66 28.21,-24.66 22.52,-70.66 7.29,-155.07 -24.15,-210.53l0 -0 0 0 0 0z"/>
  <path id="_119542664" class="fil5" d="M465.43 225.31c-5.7,-22.86 -14.87,-47.28 -29.04,-72.28l-61.48 -85.06c41.87,-1.85 65.93,-0.03 96.41,31.22 27.16,27.86 49.54,64.59 64.38,103.41 -24.34,5.71 -51.04,15.24 -70.27,22.71l0 -0 0 0z"/>
  <path id="_119542592" class="fil6" d="M465.43 225.31c-5.7,-22.86 -14.87,-47.28 -29.04,-72.28l-1.28 -1.77c20.87,21.31 34.67,44.88 43.2,69.18 -4.56,1.68 -8.88,3.32 -12.88,4.88l0 -0z"/>
  <path id="_119542520" class="fil5" d="M200.71 341.38c-10.99,-71.91 -19.08,-152.38 -23.65,-224.03 9.37,-38.58 69.29,-58.07 129.24,-58.18l0 -0 0.08 0 0.08 -0 0 0c59.95,0.11 119.86,19.6 129.23,58.18 -4.57,71.66 -12.66,152.13 -23.65,224.03 -58.5,18.45 -152.83,18.45 -211.33,0l0 -0 0 0 -0 0 -0 0z"/>
  <polygon id="_119541704" class="fil7" points="254.76,295.29 204.07,272.1 355.94,292.75 "/>
  <polygon id="_119542304" class="fil6" points="191,230.11 397.26,288.92 195.69,265.91 "/>
  <path class="fil8" d="M297.03 258.55c-1.58,1.75 -4.28,1.9 -6.04,0.32 -1.75,-1.58 -1.9,-4.28 -0.32,-6.04l11.01 -12.21c1.58,-1.75 4.28,-1.9 6.04,-0.32 0.2,0.18 0.37,0.37 0.53,0.57l33.43 38.55c1.42,1.64 1.37,4.06 -0.05,5.64l-33.55 38.68c-1.54,1.78 -4.24,1.98 -6.02,0.43 -0.17,-0.15 -0.33,-0.31 -0.47,-0.48l-33.55 -38.69c-1.42,-1.64 -1.37,-4.05 0.03,-5.62l6.97 -8.06c1.54,-1.78 4.24,-1.98 6.02,-0.43 1.78,1.54 1.98,4.24 0.43,6.02l-4.59 5.31 27.95 32.23 27.94 -32.22 -28 -32.29 -7.77 8.62zm7.83 14.25c5.2,0 9.42,4.22 9.42,9.42 0,5.2 -4.22,9.42 -9.42,9.42 -5.2,0 -9.42,-4.22 -9.42,-9.42 0,-5.2 4.22,-9.42 9.42,-9.42zm36.6 -28.73c-1.7,-1.63 -1.75,-4.34 -0.12,-6.04 1.63,-1.7 4.34,-1.75 6.04,-0.12 5.9,5.69 10.67,12.55 13.93,20.21 3.14,7.39 4.88,15.51 4.88,24.01 0,8.35 -1.67,16.32 -4.7,23.59 -3.14,7.54 -7.75,14.33 -13.46,19.99 -1.67,1.66 -4.37,1.65 -6.04,-0.02 -1.66,-1.67 -1.65,-4.37 0.02,-6.04 4.92,-4.88 8.88,-10.72 11.59,-17.22 2.6,-6.24 4.04,-13.1 4.04,-20.31 0,-7.35 -1.49,-14.34 -4.18,-20.66 -2.8,-6.6 -6.91,-12.51 -11.99,-17.4zm-15.6 86.56c2.16,-0.94 4.68,0.05 5.62,2.21 0.94,2.16 -0.05,4.68 -2.21,5.62l-1.18 0.51c-2.18,0.9 -4.68,-0.13 -5.58,-2.31 -0.9,-2.18 0.13,-4.68 2.31,-5.58l1.04 -0.44zm-21.09 4.37c2.36,0 4.28,1.92 4.28,4.28 0,2.36 -1.92,4.28 -4.28,4.28 -16.96,0 -32.31,-6.88 -43.43,-17.99 -11.11,-11.11 -17.99,-26.47 -17.99,-43.43 0,-16.96 6.88,-32.31 17.99,-43.43 11.11,-11.11 26.47,-17.99 43.43,-17.99 2.36,0 4.28,1.92 4.28,4.28 0,2.36 -1.92,4.28 -4.28,4.28 -14.6,0 -27.81,5.92 -37.38,15.48 -9.56,9.56 -15.48,22.78 -15.48,37.38 0,14.6 5.92,27.81 15.48,37.38 9.56,9.56 22.78,15.48 37.38,15.48zm-16.08 -66.35c-1.62,1.72 -4.32,1.8 -6.04,0.18 -1.72,-1.62 -1.8,-4.32 -0.18,-6.04l0.99 -1.05c1.62,-1.72 4.32,-1.8 6.04,-0.18 1.72,1.62 1.8,4.32 0.18,6.04l-0.99 1.05z"/>
  <path id="_119541992" class="fil6" d="M272.84 186.12l0 69.8 8.51 8.73 24.47 3.19 23.62 -2.34c0,0 8.09,-1.49 9.15,-8.51l0 -72.14c0,0 -61.71,-1.06 -65.76,1.28l0 -0 0 -0z"/>
  <polygon id="_121124376" class="fil7" points="345.29,239.5 394.28,242.48 416.01,225.02 "/>
  <path id="_119542376" class="fil6" d="M200.71 341.38c-8.89,-58.16 -15.88,-121.93 -20.65,-182.1 0.58,-2.7 1.1,-4.28 1.53,-4.44l26.84 181.05c1.28,-3.06 75.96,24.54 194.57,-1.19l30.25 -185.28c0,0 -0,4.21 -0.41,7.76 -4.77,60.79 -11.82,125.36 -20.81,184.2 -58.5,18.45 -152.83,18.45 -211.33,0l-0 0 -0 0 -0 -0 -0 0 -0 -0z"/>
  <path id="_119542232" class="fil1" d="M415.26 325.1c0,0 -18.78,10.85 -34.35,14.05 0,0 14.51,-0.43 36.27,-6.17l2.77 -5.96 -4.69 -1.92z"/>
  <path id="_119544176" class="fil1" d="M198.44 327.02c0,0 18.78,10.85 34.35,14.05 0,0 -14.51,-0.43 -36.27,-6.17l-2.77 -5.96 4.69 -1.92z"/>
  <path id="_119681384" class="fil4" d="M139.97 252.06c1.27,-9.01 3.05,-18.37 5.45,-28.01 -17.11,-6.33 -44.23,-15.24 -71.82,-19.76 -3.75,10.1 -6.89,20.32 -9.56,30.56 30.28,-0 60.04,11.94 75.93,17.21l0 0z"/>
  <path id="_122988168" class="fil5" d="M147.44 225.52c5.7,-22.86 14.87,-47.28 29.04,-72.28l61.48 -85.06c-41.87,-1.85 -65.93,-0.03 -96.41,31.22 -27.16,27.86 -49.54,64.59 -64.38,103.41 24.34,5.71 51.04,15.24 70.27,22.71l0 -0 0 0z"/>
  <path id="_119682560" class="fil7" d="M88.18 197.18c14.45,-35.67 37.12,-73.71 69.92,-112.37 -34.55,25.28 -59.92,63.65 -77.03,102.31 1.84,6.1 6.69,10.62 6.69,10.62 0.14,-0.19 0.28,-0.38 0.42,-0.57l0 0 -0 0z"/>
  <path id="_119544032" class="fil6" d="M147.7 224.5c1.33,-5.23 2.83,-10.55 4.54,-15.93 -12.85,-10.16 -38.15,-24.66 -67.61,-29.21 -3.63,7.69 -6.98,15.53 -10.01,23.45 23.78,5.58 52.36,14.8 71.48,22.19 0.54,-0.17 1.07,-0.33 1.6,-0.5l0 0z"/>
  <path id="_119680376" class="fil6" d="M147.44 225.52c5.7,-22.86 14.87,-47.28 29.04,-72.28l1.28 -1.77c-20.87,21.31 -34.67,44.88 -43.2,69.18 4.56,1.68 8.88,3.32 12.88,4.88l0 -0z"/>
  <path id="_123967888" class="fil1" d="M150.76 253.67c0,0 -42.88,-27.36 -96.54,-27.4 0,0 -0.81,-22.94 13.63,-41.37 0,0 49.41,2.47 92.13,41.6 0,0 -2.75,13.66 -9.22,27.17l-0 0 0 0z"/>
  <path id="_123967816" class="fil5" d="M145.5 243.33c-0.71,-0.39 -1.42,-0.76 -2.12,-1.13 -6.43,-3.4 -13.09,-6.41 -19.83,-9.05 -19.18,-7.53 -39.64,-12.31 -60.13,-13.09 0.24,-2.18 0.6,-4.37 0.99,-6.26 1.52,-7.4 4.3,-14.5 8.5,-20.61 1.63,0.18 3.27,0.44 4.83,0.69 6.6,1.07 13.17,2.68 19.57,4.68 19.33,6.07 37.56,16.01 53.16,29.63 -1.24,5 -3,10.3 -4.97,15.14z"/>
  <path id="_123967744" class="fil7" d="M63.89 220.08l-0.47 -0.02c0.24,-2.18 0.6,-4.37 0.99,-6.26 1.52,-7.4 4.3,-14.5 8.5,-20.61 1.63,0.18 3.27,0.44 4.83,0.69 6.6,1.07 13.17,2.68 19.57,4.68 16.97,5.33 33.1,13.64 47.34,24.82 -0.35,0.5 -0.72,0.99 -1.13,1.48 0,0 -35.93,-22.35 -66.26,-23.2 0,0 -7.03,6.65 -13.37,18.42z"/>
  <path id="_123967672" class="fil6" d="M145.5 243.33c-0.71,-0.39 -1.42,-0.76 -2.12,-1.13 -6.44,-3.4 -13.09,-6.41 -19.83,-9.05 -0.94,-0.37 -1.88,-0.73 -2.83,-1.09 3.81,-7.2 6.51,-14.4 8.18,-19.45 7.6,4.5 14.83,9.69 21.57,15.58 -1.24,5 -3,10.3 -4.97,15.14z"/>
  <path id="_123967600" class="fil1" d="M153.94 234.61c0,0 -20.07,-13.59 -43.54,-16.78 0,0 17.56,5.95 41.71,24.69l1.83 -7.91z"/>
  <path id="_120416080" class="fil6" d="M262.53 188.16c-9.18,-0.33 -18.37,-0.73 -27.53,-1.48 -6.92,-0.57 -15.52,-1.12 -21.87,-4.09 -9.3,-4.34 -14.5,-15.95 -18.47,-25.05 -4.52,-10.37 -8.4,-21.03 -12.16,-31.71 -5.37,-15.26 -10.44,-30.63 -15.2,-46.1l-0.82 -2.67c12.79,-6.45 55.73,-23.34 153.64,-22.65 69.67,0.49 106.31,11.88 124.86,21.44l-1.38 4.46c-4.71,15.28 -9.72,30.46 -15.02,45.53 -3.76,10.69 -7.65,21.34 -12.16,31.71 -3.97,9.11 -9.17,20.71 -18.47,25.05 -6.35,2.97 -14.94,3.52 -21.87,4.09 -9.16,0.75 -18.34,1.15 -27.53,1.48 -28.68,1.02 -57.34,1.02 -86.02,0l0 0z"/>
  <path id="_119804728" class="fil1" d="M288.43 162.69l34.59 0c7.2,0 13.08,5.89 13.08,13.08l0 74.21c0,7.2 -5.89,13.08 -13.08,13.08l-34.59 0c-7.2,0 -13.08,-5.89 -13.08,-13.08l0 -74.21c0,-7.2 5.89,-13.08 13.08,-13.08z"/>
  <path id="_119804656" class="fil1" d="M186.9 63.83c20.89,-5.36 125.81,-29.29 238.45,-1.32 2.27,0.74 4.4,1.48 6.41,2.23l-53.47 17.57 -194.71 -17.43c1.06,-0.35 2.17,-0.7 3.32,-1.05l0 0 0 0z"/>
  <path id="_122970936" class="fil1" d="M262.53 182.84c-9.18,-0.33 -18.37,-0.73 -27.53,-1.48 -6.92,-0.57 -15.52,-1.12 -21.87,-4.09 -9.3,-4.34 -14.5,-15.95 -18.47,-25.05 -4.52,-10.37 -8.4,-21.03 -12.16,-31.71 -5.37,-15.26 -10.44,-30.63 -15.2,-46.1l-0.82 -2.67c12.79,-6.45 55.73,-23.34 153.64,-22.65 69.67,0.49 106.31,11.88 124.86,21.44l-1.38 4.46c-4.71,15.28 -9.72,30.46 -15.02,45.53 -3.76,10.69 -7.65,21.34 -12.16,31.71 -3.97,9.11 -9.17,20.71 -18.47,25.05 -6.35,2.97 -14.94,3.52 -21.87,4.09 -9.16,0.75 -18.34,1.15 -27.53,1.48 -28.68,1.02 -57.34,1.02 -86.02,0l0 0z"/>
  <path id="_129326824" class="fil9" d="M263.36 177.91c-8.98,-0.32 -17.95,-0.71 -26.91,-1.45 -6.2,-0.51 -14.68,-1.08 -20.29,-3.7 -8.04,-3.76 -12.87,-14.8 -16.33,-22.75 -4.41,-10.12 -8.19,-20.51 -11.86,-30.93 -5.26,-14.96 -10.23,-30.03 -14.9,-45.19 42.76,-14.55 212.22,-19.88 264.75,0.56 -4.62,14.98 -9.53,29.86 -14.73,44.63 -3.67,10.42 -7.45,20.81 -11.86,30.93 -3.46,7.94 -8.29,18.99 -16.33,22.75 -5.61,2.62 -14.09,3.19 -20.29,3.7 -8.95,0.74 -17.93,1.13 -26.91,1.45 -5.79,0.21 -11.54,0.37 -17.27,0.49l0 71.72c0,4 -3.34,7.28 -7.41,7.28l-34.59 0c-4.08,0 -7.41,-3.28 -7.41,-7.28l0 -71.71c-5.86,-0.12 -11.74,-0.29 -17.66,-0.5l-0 0 0 0 0 -0 -0 0 0 0z"/>
  <path id="_119804944" class="fil3" d="M235.81 173.7c-6.2,-0.51 -14.04,-0.44 -19.65,-3.06 -8.04,-3.76 -12.87,-14.8 -16.33,-22.75 -4.41,-10.12 -8.19,-18.38 -11.86,-28.8 -5.26,-14.96 -10.23,-30.03 -14.9,-45.19 42.76,-14.55 212.22,-19.88 264.75,0.56 -4.62,14.98 -9.53,29.86 -14.73,44.63 -3.67,10.42 -7.45,20.81 -11.86,30.93 -3.46,7.94 -9.78,16.44 -17.82,20.19 -5.61,2.62 -14.09,3.19 -20.29,3.7 -15.03,1.23 -29.8,1.08 -44.82,1.4l-0.42 71.83c-0.02,4 -3.34,7.24 -7.41,7.28l-29.7 0.32c-4.07,0.04 -7.4,-3.28 -7.41,-7.28l-0.32 -72.35c-15.45,-0.32 -31.75,-0.14 -47.22,-1.41l-0 0 0 0 0 -0 -0 0 0 0z"/>
  <path id="_119804872" class="fil1" d="M429.1 71.59c-4.57,14.83 -9.47,29.66 -14.61,44.27 -3.57,10.15 -7.31,20.43 -11.61,30.28 -2.19,5.03 -6.67,15.63 -11.76,18.01 -4.08,1.9 -12.72,2.52 -17.24,2.89 -8.8,0.72 -17.67,1.11 -26.5,1.42 -28.3,1 -55.41,1 -83.71,0 -8.82,-0.31 -17.69,-0.7 -26.5,-1.42 -4.52,-0.37 -13.17,-0.98 -17.24,-2.89 -5.09,-2.38 -9.57,-12.99 -11.76,-18.01 -4.29,-9.85 -8.03,-20.13 -11.61,-30.28 -5.21,-14.79 -10.16,-29.81 -14.78,-44.83 29.14,-6.32 150.77,-29.47 247.31,0.56l-0 0 0 0 0 0z"/>
  <path id="_119804800" class="fil2" d="M187.21 69.89c5.01,16.12 26.94,85.33 34.99,89.1 8.22,3.84 70.18,4.56 82.3,4.67l0 0.02 1.03 -0.01 1.03 0.01 0 -0.02c12.12,-0.11 74.08,-0.83 82.3,-4.67 8.04,-3.75 29.87,-72.65 34.95,-88.98 -90.46,-26.12 -200.72,-7.47 -236.61,-0.12l0 0 0 -0 -0 0z"/>
  <path id="_129341680" class="fil4" d="M187.56 70.14c0,0 24.28,75.19 114.59,76.04 90.31,0.85 121.2,-76.68 121.2,-76.68 0,0 -100.81,-31.31 -235.79,0.64l0 0 0 0 0 0 0 0z"/>
  <path id="_119805160" class="fil4" d="M187.21 69.89c5.01,16.12 26.94,85.33 34.99,89.1 8.22,3.84 70.18,4.56 82.3,4.67l0 0.02 1.03 -0.01 1.03 0.01 0 -0.02c12.12,-0.11 74.08,-0.83 82.3,-4.67 8.04,-3.75 29.87,-72.65 34.95,-88.98 -0.9,-0.26 -1.81,-0.51 -2.71,-0.76 -7.73,24.29 -25.24,77.09 -32.24,80.37 -8.22,3.84 -70.17,4.56 -82.3,4.67l0 0.02 -1.03 -0.01 -1.03 0.01 0 -0.02c-12.12,-0.11 -74.08,-0.83 -82.3,-4.67 -7,-3.27 -24.47,-55.95 -32.22,-80.28 -0.96,0.19 -1.9,0.38 -2.77,0.56l0 -0 0 -0z"/>
  <path id="_119805088" class="fil1" d="M305.69 165.38l0.06 0c1.62,0 2.95,1.33 2.95,2.95l0 73.76c0,1.62 -1.33,2.95 -2.95,2.95l-0.06 0c-1.62,0 -2.95,-1.33 -2.95,-2.95l0 -73.76c0,-1.62 1.33,-2.95 2.95,-2.95z"/>
  <path id="_123965536" class="fil10" d="M321.42 200.36c-0.05,-1.13 0.83,-2.09 1.96,-2.14 1.13,-0.05 2.09,0.83 2.14,1.96 0.07,1.7 -0.55,3.27 -1.62,4.44 -1.07,1.16 -2.58,1.92 -4.28,2l-0.01 0 0 0c-1.7,0.07 -3.27,-0.55 -4.44,-1.62 -1.17,-1.07 -1.93,-2.58 -2,-4.28 -0.2,-4.5 2.57,-5.42 5.34,-6.34 1.3,-0.43 2.61,-0.86 2.55,-2.27l-0 -0.06c-0.04,-0.55 -0.29,-1.04 -0.67,-1.38 -0.39,-0.36 -0.92,-0.56 -1.49,-0.54l-0 0c-0.57,0.03 -1.08,0.28 -1.44,0.67 -0.36,0.39 -0.56,0.92 -0.54,1.49 0.05,1.13 -0.83,2.09 -1.96,2.14 -1.13,0.05 -2.09,-0.83 -2.14,-1.96 -0.07,-1.7 0.55,-3.27 1.62,-4.44 1.07,-1.17 2.58,-1.93 4.28,-2l0 0c1.7,-0.07 3.27,0.55 4.44,1.62 1.14,1.04 1.89,2.51 1.99,4.16 0,0.04 0.01,0.08 0.01,0.13 0.2,4.5 -2.57,5.42 -5.34,6.34 -1.3,0.43 -2.61,0.86 -2.55,2.27 0.02,0.58 0.28,1.09 0.67,1.44 0.39,0.36 0.92,0.56 1.49,0.54l0 0c0.58,-0.03 1.09,-0.28 1.44,-0.67 0.36,-0.39 0.56,-0.92 0.54,-1.5z"/>
  <path id="_123965464" class="fil10" d="M321.42 231.99c-0.05,-1.13 0.83,-2.09 1.96,-2.14 1.13,-0.05 2.09,0.83 2.14,1.96 0.07,1.7 -0.55,3.27 -1.62,4.44 -1.07,1.16 -2.58,1.92 -4.28,2l-0.01 0 0 0c-1.7,0.07 -3.27,-0.55 -4.44,-1.62 -1.17,-1.07 -1.93,-2.58 -2,-4.28 -0.2,-4.5 2.57,-5.42 5.34,-6.34 1.3,-0.43 2.61,-0.86 2.55,-2.27l-0 -0.06c-0.04,-0.55 -0.29,-1.04 -0.67,-1.38 -0.39,-0.36 -0.92,-0.56 -1.49,-0.54l-0 0c-0.57,0.03 -1.08,0.28 -1.44,0.67 -0.36,0.39 -0.56,0.92 -0.54,1.49 0.05,1.13 -0.83,2.09 -1.96,2.14 -1.13,0.05 -2.09,-0.83 -2.14,-1.96 -0.07,-1.7 0.55,-3.27 1.62,-4.44 1.07,-1.17 2.58,-1.93 4.28,-2l0 0c1.7,-0.07 3.27,0.55 4.44,1.62 1.14,1.04 1.89,2.51 1.99,4.16 0,0.04 0.01,0.08 0.01,0.13 0.2,4.5 -2.57,5.42 -5.34,6.34 -1.3,0.43 -2.61,0.86 -2.55,2.27 0.02,0.58 0.28,1.09 0.67,1.44 0.39,0.36 0.92,0.56 1.49,0.54l0 0c0.58,-0.03 1.09,-0.28 1.44,-0.67 0.36,-0.39 0.56,-0.92 0.54,-1.5z"/>
  <path id="_123965392" class="fil1" d="M317.29 179.2c0.93,-1.04 2.53,-1.12 3.57,-0.19 1.04,0.93 1.12,2.53 0.19,3.57 -0.93,1.04 -2.53,1.12 -3.57,0.19 -1.04,-0.93 -1.12,-2.53 -0.19,-3.57z"/>
  <path id="_123965320" class="fil1" d="M317.29 210.13c0.93,-1.04 2.53,-1.12 3.57,-0.19 1.04,0.93 1.12,2.53 0.19,3.57 -0.93,1.04 -2.53,1.12 -3.57,0.19 -1.04,-0.93 -1.12,-2.53 -0.19,-3.57z"/>
  <path id="_123965248" class="fil1" d="M317.29 244.39c0.93,-1.04 2.53,-1.12 3.57,-0.19 1.04,0.93 1.12,2.53 0.19,3.57 -0.93,1.04 -2.53,1.12 -3.57,0.19 -1.04,-0.93 -1.12,-2.53 -0.19,-3.57z"/>
  <path id="_123964768" class="fil10" d="M290 200.36c0.05,-1.13 -0.83,-2.09 -1.96,-2.14 -1.13,-0.05 -2.09,0.83 -2.14,1.96 -0.07,1.7 0.55,3.27 1.62,4.44 1.07,1.16 2.58,1.92 4.28,2l0.01 0 0 0c1.7,0.07 3.27,-0.55 4.44,-1.62 1.17,-1.07 1.93,-2.58 2,-4.28 0.2,-4.5 -2.57,-5.42 -5.34,-6.34 -1.3,-0.43 -2.61,-0.86 -2.55,-2.27l0 -0.06c0.04,-0.55 0.29,-1.04 0.67,-1.38 0.39,-0.36 0.92,-0.56 1.49,-0.54l0 0c0.57,0.03 1.08,0.28 1.44,0.67 0.36,0.39 0.56,0.92 0.54,1.49 -0.05,1.13 0.83,2.09 1.96,2.14 1.13,0.05 2.09,-0.83 2.14,-1.96 0.07,-1.7 -0.55,-3.27 -1.62,-4.44 -1.07,-1.17 -2.58,-1.93 -4.28,-2l-0 0c-1.7,-0.07 -3.27,0.55 -4.44,1.62 -1.14,1.04 -1.89,2.51 -1.99,4.16 -0,0.04 -0.01,0.08 -0.01,0.13 -0.2,4.5 2.57,5.42 5.34,6.34 1.3,0.43 2.61,0.86 2.55,2.27 -0.02,0.58 -0.28,1.09 -0.67,1.44 -0.39,0.36 -0.92,0.56 -1.49,0.54l0 0c-0.58,-0.03 -1.09,-0.28 -1.44,-0.67 -0.36,-0.39 -0.56,-0.92 -0.54,-1.5z"/>
  <path id="_123964696" class="fil10" d="M290 231.99c0.05,-1.13 -0.83,-2.09 -1.96,-2.14 -1.13,-0.05 -2.09,0.83 -2.14,1.96 -0.07,1.7 0.55,3.27 1.62,4.44 1.07,1.16 2.58,1.92 4.28,2l0.01 0 0 0c1.7,0.07 3.27,-0.55 4.44,-1.62 1.17,-1.07 1.93,-2.58 2,-4.28 0.2,-4.5 -2.57,-5.42 -5.34,-6.34 -1.3,-0.43 -2.61,-0.86 -2.55,-2.27l0 -0.06c0.04,-0.55 0.29,-1.04 0.67,-1.38 0.39,-0.36 0.92,-0.56 1.49,-0.54l0 0c0.57,0.03 1.08,0.28 1.44,0.67 0.36,0.39 0.56,0.92 0.54,1.49 -0.05,1.13 0.83,2.09 1.96,2.14 1.13,0.05 2.09,-0.83 2.14,-1.96 0.07,-1.7 -0.55,-3.27 -1.62,-4.44 -1.07,-1.17 -2.58,-1.93 -4.28,-2l-0 0c-1.7,-0.07 -3.27,0.55 -4.44,1.62 -1.14,1.04 -1.89,2.51 -1.99,4.16 -0,0.04 -0.01,0.08 -0.01,0.13 -0.2,4.5 2.57,5.42 5.34,6.34 1.3,0.43 2.61,0.86 2.55,2.27 -0.02,0.58 -0.28,1.09 -0.67,1.44 -0.39,0.36 -0.92,0.56 -1.49,0.54l0 0c-0.58,-0.03 -1.09,-0.28 -1.44,-0.67 -0.36,-0.39 -0.56,-0.92 -0.54,-1.5z"/>
  <path id="_123964624" class="fil1" d="M294.13 179.2c-0.93,-1.04 -2.53,-1.12 -3.57,-0.19 -1.04,0.93 -1.12,2.53 -0.19,3.57 0.93,1.04 2.53,1.12 3.57,0.19 1.04,-0.93 1.12,-2.53 0.19,-3.57z"/>
  <path id="_123964552" class="fil1" d="M294.13 210.13c-0.93,-1.04 -2.53,-1.12 -3.57,-0.19 -1.04,0.93 -1.12,2.53 -0.19,3.57 0.93,1.04 2.53,1.12 3.57,0.19 1.04,-0.93 1.12,-2.53 0.19,-3.57z"/>
  <path id="_123964480" class="fil1" d="M294.13 244.39c-0.93,-1.04 -2.53,-1.12 -3.57,-0.19 -1.04,0.93 -1.12,2.53 -0.19,3.57 0.93,1.04 2.53,1.12 3.57,0.19 1.04,-0.93 1.12,-2.53 0.19,-3.57z"/>
  <path id="_129335416" class="fil6" d="M428.54 188.76c0,0 -65.12,36.81 -62.78,37.66 2.34,0.85 60.01,-12.98 60.01,-12.98l2.77 -24.68z"/>
  <path id="_129334696" class="fil1" d="M154.23 213.23c-1.06,0.43 -13.83,-14.47 -45.33,-28.52 0,0 28.73,6.81 48.95,18.94l0.21 5.53 -3.83 4.04z"/>
  <path id="_129333232" class="fil3" d="M449.45 81.31c8.13,4.71 16.22,11.19 24.82,20.01 43.34,44.45 74.51,111.51 82.27,173.58 7.81,62.48 -4.12,117.26 -33.03,173.9 0,0 -0.3,0.87 -1.26,2.05 -6.39,-0.89 -12.85,-2.34 -19.19,-4.14 0.58,-1.28 0.93,-2.24 0.82,-2.49 -0.13,-0.29 -1.17,0.59 -2.57,1.99 -12.33,-3.64 -24.1,-8.52 -33.82,-13.1 -0.14,-1.41 -0.32,-2.34 -0.56,-2.33 -0.22,0.01 -0.51,0.66 -0.82,1.67 -12.81,-6.11 -21.77,-11.53 -23.25,-12.43l0.01 -0.06c28.33,9.73 76.16,14.6 76.16,14.6 64.54,-132.77 19.8,-274.35 -69.57,-353.25l0 -0 0 -0 0 -0 0 0z"/>
  <path id="_129327424" class="fil1" d="M540.05 234.54c28.22,-3.19 35.5,27.93 10.6,38.35l-10.6 -38.35z"/>
  <path id="_129891224" class="fil2" d="M550.65 273.05c9.2,-14.34 9.44,-30.2 -10.59,-38.73 0,0 -5.7,28.13 10.59,38.73z"/>
  <path id="_129886616" class="fil3" d="M549.69 274.23c11.14,-14.2 11.27,-31.74 -10.36,-40.34 8.6,5.75 15.69,23.98 9.98,39.16l0.38 1.17z"/>
  <path id="_129886112" class="fil3" d="M541.17 239.84c-2.46,1.53 -2.44,6.03 0.06,10.04 2.49,4.01 6.51,6.02 8.98,4.49 2.46,-1.53 2.44,-6.03 -0.06,-10.04 -2.49,-4.01 -6.51,-6.02 -8.98,-4.49z"/>
  <path id="_129330544" class="fil2" d="M440.5 390.47c0,0 4.57,-9.45 16.25,-15.4 11.68,-5.95 -8.07,15.61 -16.25,15.4z"/>
  <path id="_129330424" class="fil4" d="M524.75 446.32c-0.41,0.83 -0.83,1.65 -1.25,2.48 0,0 -3.51,10.34 -25.63,7.78 0,0 6.43,-11.38 6,-12.37 -0.44,-0.98 -11.21,11.44 -11.21,11.44 0,0 -13.61,0.05 -24.73,-9.54 0,0 -0.05,-15.38 -1.01,-15.34 -0.97,0.04 -3.32,12.56 -3.32,12.56 -7.5,-1 -16.11,-3.73 -21.16,-8.21 -1.81,-1.6 -2.11,-3.76 -1.03,-8.65 0.46,-2.09 1.02,-4.67 1.75,-7.83 41.96,18.85 68.79,25.42 81.59,27.68l-0 0z"/>
  <path id="_129331048" class="fil4" d="M522.43 248.35c0,0 0,14.05 18.94,21.71 0,0 -12.56,-0.43 -17.88,-5.53 -5.32,-5.11 -1.06,-16.17 -1.06,-16.17z"/>
  <path id="_119546360" class="fil1" d="M535.77 290.36c1.39,1.01 1.69,2.96 0.68,4.35 -1.01,1.39 -2.96,1.69 -4.35,0.68 -1.39,-1.01 -1.69,-2.96 -0.68,-4.35 1.01,-1.39 2.96,-1.69 4.35,-0.68zm-24.87 34.96c-0.38,1.08 0.19,2.26 1.26,2.63 1.08,0.38 2.26,-0.19 2.63,-1.26 0.38,-1.08 -0.19,-2.26 -1.26,-2.63 -1.08,-0.38 -2.26,0.19 -2.63,1.26zm19.83 -5.18c-0.25,0.72 0.12,1.5 0.84,1.76 0.72,0.25 1.5,-0.12 1.76,-0.84 0.25,-0.72 -0.12,-1.5 -0.84,-1.76 -0.72,-0.25 -1.5,0.12 -1.76,0.84zm-3.78 29.75c-0.25,0.72 0.12,1.5 0.84,1.76 0.72,0.25 1.5,-0.12 1.76,-0.84 0.25,-0.72 -0.12,-1.5 -0.84,-1.76 -0.72,-0.25 -1.5,0.12 -1.76,0.84zm9.36 -9.55c-0.32,0.9 0.16,1.88 1.05,2.2 0.9,0.32 1.88,-0.16 2.2,-1.05 0.32,-0.9 -0.16,-1.88 -1.05,-2.19 -0.9,-0.32 -1.88,0.16 -2.19,1.05zm-32.08 12.91c-0.44,1.26 0.22,2.63 1.47,3.07 1.26,0.44 2.63,-0.22 3.07,-1.47 0.44,-1.25 -0.22,-2.63 -1.47,-3.07 -1.25,-0.44 -2.63,0.22 -3.07,1.47zm8.83 -83.64c1.19,0.87 1.45,2.54 0.58,3.73 -0.87,1.19 -2.54,1.45 -3.73,0.58 -1.19,-0.87 -1.45,-2.54 -0.58,-3.73 0.87,-1.19 2.54,-1.45 3.73,-0.58zm-24.9 8.97c0.79,0.58 0.97,1.69 0.39,2.48 -0.58,0.79 -1.69,0.97 -2.48,0.39 -0.79,-0.58 -0.97,-1.69 -0.39,-2.48 0.58,-0.79 1.69,-0.97 2.48,-0.39zm27.58 25.64c0.79,0.58 0.97,1.69 0.39,2.48 -0.58,0.79 -1.69,0.97 -2.48,0.39 -0.79,-0.58 -0.97,-1.69 -0.39,-2.48 0.58,-0.79 1.69,-0.97 2.48,-0.39zm-28.35 23.67c1.19,0.87 1.45,2.54 0.58,3.73 -0.87,1.19 -2.54,1.45 -3.73,0.58 -1.19,-0.87 -1.45,-2.54 -0.58,-3.73 0.87,-1.19 2.54,-1.45 3.73,-0.58zm9.58 -23.7c0.99,0.72 1.21,2.11 0.48,3.11 -0.72,0.99 -2.12,1.21 -3.11,0.48 -0.99,-0.72 -1.21,-2.12 -0.48,-3.11 0.72,-0.99 2.11,-1.21 3.1,-0.48zm49.64 -27.7c0.7,0.51 0.86,1.5 0.34,2.21 -0.51,0.7 -1.5,0.86 -2.21,0.34 -0.7,-0.51 -0.86,-1.5 -0.34,-2.21 0.51,-0.7 1.5,-0.86 2.21,-0.34z"/>
  <path id="_119682776" class="fil4" d="M472.9 251.85c-1.27,-9.01 -3.05,-18.37 -5.45,-28.01 17.11,-6.33 44.23,-15.24 71.82,-19.76 3.75,10.1 6.89,20.32 9.56,30.56 -30.28,-0 -60.04,11.94 -75.93,17.21l-0 0z"/>
  <path id="_130621128" class="fil7" d="M524.69 196.97c-14.45,-35.67 -37.12,-73.71 -69.92,-112.37 34.55,25.28 59.92,63.65 77.03,102.31 -1.84,6.1 -6.69,10.62 -6.69,10.62 -0.14,-0.19 -0.28,-0.38 -0.42,-0.57l-0 0 0 0z"/>
  <path id="_7125608" class="fil6" d="M465.18 224.29c-1.33,-5.23 -2.83,-10.55 -4.54,-15.93 12.85,-10.16 38.15,-24.66 67.61,-29.21 3.63,7.69 6.98,15.53 10.01,23.45 -23.78,5.58 -52.36,14.8 -71.48,22.19 -0.54,-0.17 -1.07,-0.33 -1.6,-0.5l-0 0z"/>
  <path id="_123310440" class="fil1" d="M462.11 253.46c0,0 42.88,-27.36 96.54,-27.4 0,0 0.81,-22.94 -13.63,-41.37 0,0 -49.41,2.47 -92.13,41.6 0,0 2.75,13.66 9.22,27.17l0 0 -0 0z"/>
  <path id="_123310368" class="fil6" d="M467.37 243.12c0.71,-0.39 1.42,-0.76 2.12,-1.13 6.43,-3.4 13.09,-6.41 19.83,-9.05 19.18,-7.53 39.64,-12.31 60.13,-13.09 -0.24,-2.18 -0.6,-4.37 -0.99,-6.26 -1.52,-7.4 -4.3,-14.5 -8.5,-20.61 -1.63,0.18 -3.27,0.44 -4.83,0.69 -6.6,1.07 -13.17,2.68 -19.57,4.68 -19.33,6.07 -37.56,16.01 -53.16,29.63 1.24,5 3,10.3 4.97,15.14z"/>
  <path id="_123310296" class="fil5" d="M548.98 219.86l0.47 -0.02c-0.24,-2.18 -0.6,-4.37 -0.99,-6.26 -1.52,-7.4 -4.3,-14.5 -8.5,-20.61 -1.63,0.18 -3.27,0.44 -4.83,0.69 -6.6,1.07 -13.17,2.68 -19.57,4.68 -16.97,5.33 -33.1,13.64 -47.34,24.82 0.35,0.5 0.72,0.99 1.13,1.48 0,0 35.93,-22.35 66.26,-23.2 0,0 7.03,6.65 13.37,18.42z"/>
  <path id="_123310224" class="fil6" d="M467.37 243.12c0.71,-0.39 1.42,-0.76 2.12,-1.13 6.44,-3.4 13.09,-6.41 19.83,-9.05 0.94,-0.37 1.88,-0.73 2.83,-1.09 -3.81,-7.2 -6.51,-14.4 -8.18,-19.45 -7.6,4.5 -14.83,9.69 -21.57,15.58 1.24,5 3,10.3 4.97,15.14z"/>
  <path id="_123310152" class="fil1" d="M458.94 234.4c0,0 20.07,-13.59 43.54,-16.78 0,0 -17.56,5.95 -41.71,24.69l-1.83 -7.91z"/>
  <path id="_119547512" class="fil1" d="M458.64 213.02c1.06,0.43 13.83,-14.47 45.33,-28.52 0,0 -28.73,6.81 -48.95,18.94l-0.21 5.53 3.83 4.04z"/>
  <path id="_119541920" class="fil5" d="M545.8 213.23c0,0 -10.43,-4.04 -36.39,2.34 0,0 18.94,-9.79 31.71,-10.22l2.13 4.26 2.55 3.62z"/>
  <path id="_119542448" class="fil1" d="M468.76 257.71c0,0 16.6,-8.3 46.18,-18.73 0,0 -25.32,3.62 -45.75,11.07l-2.13 2.34 1.7 5.32z"/>
  <path id="_125772112" class="fil1" d="M142.94 256.65c0,0 -16.6,-8.3 -46.18,-18.73 0,0 25.32,3.62 45.75,11.07l2.13 2.34 -1.7 5.32z"/>
  <path id="_119547824" class="fil1" d="M83.98 282.62c-1.48,0.88 -1.96,2.79 -1.08,4.27 0.88,1.48 2.79,1.96 4.27,1.08 1.47,-0.88 1.96,-2.79 1.07,-4.27 -0.88,-1.47 -2.79,-1.96 -4.27,-1.08zm21.54 37.1c0.28,1.11 -0.39,2.23 -1.5,2.51 -1.11,0.28 -2.23,-0.39 -2.51,-1.5 -0.28,-1.11 0.39,-2.23 1.5,-2.51 1.11,-0.28 2.23,0.39 2.51,1.5zm-19.26 -6.98c0.19,0.74 -0.26,1.49 -1,1.67 -0.74,0.19 -1.49,-0.26 -1.67,-1 -0.19,-0.74 0.26,-1.49 1,-1.67 0.74,-0.19 1.49,0.26 1.67,1zm1.02 29.98c0.19,0.74 -0.26,1.49 -1,1.67 -0.74,0.19 -1.49,-0.26 -1.67,-1 -0.19,-0.74 0.26,-1.49 1,-1.67 0.74,-0.19 1.49,0.26 1.67,1zm-8.44 -10.37c0.23,0.92 -0.33,1.86 -1.25,2.09 -0.92,0.23 -1.86,-0.33 -2.09,-1.25 -0.23,-0.92 0.33,-1.86 1.25,-2.09 0.92,-0.23 1.86,0.33 2.09,1.25zm30.76 15.81c0.32,1.29 -0.46,2.6 -1.75,2.92 -1.29,0.32 -2.6,-0.46 -2.92,-1.75 -0.32,-1.29 0.46,-2.6 1.75,-2.92 1.29,-0.32 2.6,0.46 2.92,1.75zm-1.08 -84.1c-1.26,0.75 -1.68,2.39 -0.92,3.66 0.75,1.26 2.39,1.68 3.66,0.92 1.26,-0.75 1.68,-2.39 0.92,-3.66 -0.76,-1.26 -2.39,-1.68 -3.66,-0.92zm23.96 11.22c-0.84,0.5 -1.12,1.6 -0.61,2.44 0.5,0.84 1.6,1.12 2.44,0.61 0.84,-0.5 1.12,-1.6 0.61,-2.44 -0.5,-0.84 -1.6,-1.12 -2.44,-0.61zm-29.83 22.99c-0.84,0.5 -1.12,1.6 -0.61,2.44 0.5,0.84 1.6,1.12 2.44,0.61 0.84,-0.5 1.12,-1.6 0.61,-2.44 -0.5,-0.84 -1.6,-1.12 -2.44,-0.61zm26.04 26.18c-1.26,0.75 -1.68,2.39 -0.92,3.66 0.76,1.26 2.39,1.68 3.66,0.92 1.26,-0.76 1.68,-2.39 0.92,-3.66 -0.75,-1.26 -2.39,-1.68 -3.66,-0.92zm-7.36 -24.49c-1.05,0.63 -1.4,1.99 -0.77,3.05 0.63,1.05 2,1.4 3.05,0.77 1.05,-0.63 1.4,-2 0.77,-3.05 -0.63,-1.05 -1.99,-1.4 -3.05,-0.77zm-46.88 -32.16c-0.75,0.45 -0.99,1.42 -0.55,2.17 0.45,0.75 1.42,0.99 2.17,0.55 0.75,-0.45 0.99,-1.42 0.55,-2.17 -0.45,-0.75 -1.42,-0.99 -2.17,-0.55z"/>
  <path id="_122253232" class="fil11" d="M323.71 163.42c2.1,-0.04 4.31,-0.09 6.59,-0.14 1.73,-4.55 4.96,-8.55 8.97,-10.81 1.52,-0.86 3.61,-2.13 5.87,-2.77 11.1,-3.17 26.41,2.3 29.88,11.51 -3.35,-0.71 -5.57,-1.98 -9.56,-2.43 -1.93,-0.22 -9.1,-0.36 -11.56,0.63l-3.37 1.09c0.18,0.88 0.4,1.57 0.63,2.14 14.61,-0.58 28.59,-1.47 34.97,-2.84 -4.29,-7 -9.57,-11.19 -16.02,-14.58 -5.22,-2.75 -16.71,-4.74 -24.67,-2.47l-0.53 0.15c-4.03,1.15 -6.99,2.65 -9.52,4.41 -2.33,1.63 -6.78,5.52 -8.33,8.18 -1.35,2.33 -2.77,6.01 -3.14,7.13 -0.08,0.24 -0.15,0.51 -0.22,0.81zm18.66 -0.46c2.29,-0.07 4.6,-0.15 6.9,-0.24 -0.62,-4.44 -0.59,-9.18 0.48,-12.86 -1.18,0.22 -2.35,0.45 -3.52,0.67 -0.97,0.28 -1.94,0.55 -2.91,0.83 -2.25,0.64 -1.91,6.09 -0.95,11.6zm46.57 -4.02c1.79,-0.92 4.26,-5.01 7.06,-10.98 -2.53,1.52 -3.78,3.73 -5.08,6.06 -0.79,1.42 -1.33,2.11 -1.74,3.71 -0.1,0.4 -0.17,0.81 -0.24,1.21zm-42.14 -17.45c3.01,-0.86 5.23,-0.35 7.18,-0.9 0.06,-0.02 6.02,-8.01 11.3,-9.52l1.59 -0.45c2.85,-0.81 5.91,0.67 6.72,3.52l0.15 0.53c0.57,2 -0.74,3.65 -3.06,4.31 0.3,-0.82 1.49,-1.8 1.1,-3.17 -0.37,-1.29 -2.25,-2.22 -3.66,-1.82l-0.53 0.15c-1.59,0.45 -2.72,2.49 -2.27,4.08l0.45 1.59c0.7,2.47 3.76,3.5 6.5,2.73l0.53 -0.15c4.09,-1.17 6.26,-5.12 5.1,-9.19l-0.08 -0.26c-0.78,-2.75 -1.9,-3.37 -2.9,-5.18 5.16,-0.25 12.5,2.71 14.09,8.29l0.3 1.06c2.12,7.43 -3.42,10.37 -5.45,6.99l0.79 -0.23c1.09,-0.31 2.28,-2.05 2.04,-2.87l-0.3 -1.06c-0.3,-1.05 -2.63,-1.83 -3.85,-1.48 -2.16,0.61 -3.48,2.83 -2.84,5.1l0.23 0.79c1.07,3.76 5.95,5.46 9.82,4.35 4.82,-1.38 7.09,-6.26 5.71,-11.07l-0.68 -2.38c-1.53,-5.36 -6.62,-9.34 -10.17,-11.34 -3.12,-1.75 -10.57,-3.64 -15.18,-2.32l-3.97 1.13c-7.75,2.21 -19.82,13.61 -19.73,19.08l1.06 -0.3z"/>
  <path id="_122253160" class="fil11" d="M214.48 146.71c3.08,6.74 5.8,11.37 7.72,12.27 0.52,0.24 1.27,0.48 2.2,0.7 -0.17,-0.61 -0.24,-1.29 -0.41,-1.95 -0.41,-1.59 -0.95,-2.29 -1.74,-3.71 -1.37,-2.46 -2.67,-4.78 -5.49,-6.3 -0.74,-0.4 -1.51,-0.74 -2.29,-1.01zm12.34 13.44c7.37,1.24 21.12,2.04 35.16,2.57 0.25,-0.59 0.47,-1.3 0.66,-2.22l-3.38 -1.09c-2.46,-1 -9.63,-0.85 -11.56,-0.63 -3.99,0.45 -6.21,1.72 -9.56,2.43 3.47,-9.21 18.79,-14.68 29.88,-11.51 2.26,0.64 4.35,1.92 5.87,2.77 4.02,2.27 7.26,6.29 8.98,10.86 2.3,0.05 4.5,0.09 6.58,0.13 -0.07,-0.31 -0.15,-0.59 -0.23,-0.84 -0.36,-1.12 -1.79,-4.79 -3.14,-7.13 -1.55,-2.66 -6,-6.55 -8.33,-8.18 -2.52,-1.76 -5.49,-3.26 -9.52,-4.41l-0.53 -0.15c-7.96,-2.27 -19.44,-0.28 -24.67,2.47 -6.56,3.46 -11.92,7.73 -16.24,14.94zm37.07 2.63c2.31,0.08 4.62,0.16 6.9,0.22 0.97,-5.53 1.32,-11.02 -0.94,-11.66 -0.97,-0.28 -1.94,-0.55 -2.91,-0.83 -1.17,-0.22 -2.35,-0.45 -3.52,-0.67 1.08,3.7 1.1,8.48 0.47,12.94zm2.48 -21.3c-3.01,-0.86 -5.23,-0.35 -7.18,-0.9 -0.06,-0.02 -6.02,-8.01 -11.3,-9.52l-1.59 -0.45c-2.85,-0.81 -5.91,0.67 -6.72,3.52l-0.15 0.53c-0.57,2 0.74,3.64 3.06,4.3 -0.3,-0.82 -1.49,-1.8 -1.1,-3.17 0.37,-1.29 2.25,-2.22 3.66,-1.82l0.53 0.15c1.59,0.45 2.72,2.49 2.27,4.08l-0.45 1.59c-0.7,2.47 -3.77,3.5 -6.5,2.73l-0.53 -0.15c-4.09,-1.17 -6.26,-5.12 -5.1,-9.18l0.08 -0.26c0.78,-2.75 1.9,-3.37 2.91,-5.18 -5.16,-0.25 -12.5,2.72 -14.09,8.29l-0.3 1.06c-2.12,7.44 3.42,10.37 5.44,6.99l-0.79 -0.23c-1.09,-0.31 -2.28,-2.05 -2.04,-2.87l0.3 -1.06c0.3,-1.05 2.63,-1.83 3.85,-1.48 2.16,0.61 3.48,2.83 2.84,5.1l-0.23 0.79c-1.07,3.76 -5.95,5.46 -9.82,4.35 -4.82,-1.37 -7.08,-6.26 -5.71,-11.07l0.68 -2.38c1.53,-5.36 6.62,-9.34 10.17,-11.34 3.12,-1.75 10.57,-3.64 15.18,-2.32l3.97 1.13c7.75,2.21 19.82,13.61 19.73,19.08l-1.06 -0.3z"/>
  <path id="_122252896" class="fil12" d="M346.2 139.63c4.92,-1.61 9.57,-3.48 13.96,-5.54 1.63,-1.36 3.42,-2.53 5.13,-3.02l1.59 -0.45c0.09,-0.02 0.17,-0.05 0.25,-0.07 4.71,-2.59 9.09,-5.39 13.14,-8.33 -3.46,-0.97 -7.77,-1.51 -10.83,-0.64l-3.97 1.13c-6.84,1.95 -17.03,11.04 -19.28,16.91z"/>
  <path id="_122252824" class="fil12" d="M228.9 123.73c2.01,1.44 4.11,2.85 6.31,4.21 1.06,-0.17 2.09,-0.24 3.05,-0.19 -0.31,0.57 -0.64,1.02 -0.96,1.45 1.33,0.79 2.69,1.56 4.09,2.31 1.34,-1.02 3.17,-1.39 4.92,-0.89l1.59 0.45c3.63,1.04 7.59,5.14 9.72,7.61 3.14,1.11 6.41,2.13 9.82,3.02 -0.04,-5.5 -12.02,-16.79 -19.73,-18.99l-3.97 -1.13c-4.45,-1.27 -11.53,0.45 -14.83,2.14z"/>
  <path id="_122252560" class="fil12" d="M323.71 163.42l0.29 -0 0.01 0 0.1 -0 0.1 -0 0.1 -0c1.92,-0.04 3.93,-0.08 6,-0.13 1.44,-3.8 3.93,-7.21 7.04,-9.55 -3.16,0.09 -6.25,0.16 -9.19,0.22 -0.43,0.54 -0.8,1.05 -1.08,1.53 -1.35,2.33 -2.77,6.01 -3.14,7.13 -0.08,0.24 -0.15,0.51 -0.22,0.81zm42.93 -10.91c3.94,2.16 7.04,5.15 8.38,8.7 -3.35,-0.71 -5.57,-1.98 -9.56,-2.43 -1.93,-0.22 -9.1,-0.36 -11.56,0.63l-3.37 1.09c0.18,0.88 0.4,1.57 0.63,2.14 8.45,-0.33 16.68,-0.77 23.36,-1.35l0.54 -0.05c4.27,-0.38 7.87,-0.81 10.44,-1.32l0.07 -0.01c0.2,-0.04 0.38,-0.08 0.57,-0.12 -2.05,-3.35 -4.33,-6.06 -6.86,-8.34 -3.59,0.4 -7.91,0.75 -12.63,1.04zm22.31 6.43c0.07,-0.04 0.14,-0.07 0.2,-0.12 0.06,-0.04 0.13,-0.08 0.19,-0.13 0.07,-0.05 0.14,-0.11 0.22,-0.17 0.06,-0.05 0.13,-0.11 0.19,-0.17 0.07,-0.07 0.14,-0.13 0.22,-0.21 0.08,-0.08 0.15,-0.16 0.23,-0.24 0.07,-0.08 0.14,-0.15 0.21,-0.24 0.08,-0.09 0.16,-0.19 0.24,-0.29 0.07,-0.08 0.14,-0.17 0.21,-0.26 0.08,-0.1 0.15,-0.2 0.23,-0.3 0.09,-0.12 0.17,-0.23 0.26,-0.36l0.23 -0.33c0.09,-0.13 0.18,-0.27 0.27,-0.41l0.2 -0.32c0.1,-0.15 0.2,-0.31 0.3,-0.48l0.23 -0.37c0.11,-0.18 0.22,-0.37 0.33,-0.56l0.17 -0.29c0.12,-0.21 0.24,-0.43 0.37,-0.65l0.18 -0.32c0.13,-0.25 0.27,-0.5 0.4,-0.76l0.11 -0.2c0.14,-0.27 0.28,-0.54 0.42,-0.82l0.18 -0.36c0.14,-0.28 0.28,-0.56 0.42,-0.85l0.11 -0.22c0.16,-0.32 0.32,-0.66 0.48,-1l0.11 -0.22 0.16 -0.34c-2.53,1.52 -3.78,3.73 -5.08,6.06 -0.79,1.42 -1.33,2.11 -1.74,3.71 -0.1,0.4 -0.17,0.81 -0.24,1.21l0.01 -0zm6.83 -19.87c-2.13,4.49 -4.05,7.85 -5.63,9.52 4.09,-1.36 6.21,-5.34 5.63,-9.52zm-46.71 14.29c-2.42,0.09 -4.84,0.17 -7.24,0.25 -0.44,2.23 -0.08,5.78 0.55,9.35l2.04 -0.06 0.11 -0 0.11 -0 0.29 -0.01 0.04 -0 0.11 -0 0.11 -0 0.11 -0 0.04 -0 0.18 -0.01 0.11 -0 0.11 -0 0.01 -0 0.32 -0.01 0.11 -0 0.04 -0 0.18 -0.01 0.11 -0 0.19 -0.01 0.03 -0 0.11 -0 0.5 -0.02 0.04 -0 0.11 -0 0.04 -0 0.17 -0.01 0 0 0.11 -0 0.03 -0 0.16 -0.01 0.05 -0 0.17 -0.01 0.05 -0 0.17 -0.01 0.03 -0 0.18 -0.01 0.03 -0 0.19 -0.01 0.02 -0 0.2 -0.01 0.01 -0 0.11 -0 0.01 0 0.1 -0c-0.43,-3.13 -0.55,-6.41 -0.21,-9.36z"/>
  <path id="_122252488" class="fil12" d="M214.51 146.77l0.25 0.55 0.39 0.83 0.21 0.44c0.14,0.29 0.28,0.58 0.42,0.87l0.12 0.25c0.14,0.29 0.28,0.57 0.42,0.85l0.2 0.4 0.34 0.66 0.24 0.46c0.11,0.21 0.22,0.42 0.34,0.63l0.18 0.33c0.13,0.23 0.25,0.45 0.37,0.67l0.14 0.25c0.15,0.25 0.29,0.5 0.43,0.74l0.07 0.11c0.15,0.25 0.31,0.5 0.46,0.73l0.03 0.05c0.16,0.24 0.31,0.48 0.46,0.7l0.03 0.04c0.15,0.22 0.31,0.43 0.46,0.63l0.02 0.03c0.15,0.2 0.3,0.38 0.44,0.55l0.02 0.03c0.15,0.17 0.29,0.33 0.43,0.48l0.01 0.01c0.14,0.15 0.28,0.28 0.42,0.4l0.01 0.01c0.28,0.24 0.54,0.42 0.79,0.54 0.13,0.06 0.27,0.12 0.42,0.18l0 0 0.01 0 0.03 0.01c0.13,0.05 0.27,0.1 0.42,0.14l0.03 0.01 0.03 0.01 0 0 0.03 0.01c0.11,0.04 0.24,0.07 0.36,0.11l0.04 0.01 0.01 0 0.18 0.05 0.04 0.01 0.04 0.01 0 0 0.33 0.08 0.04 0.01 0.04 0.01 0.13 0.03c-0.17,-0.61 -0.24,-1.29 -0.41,-1.95 -0.41,-1.59 -0.95,-2.29 -1.74,-3.71 -1.37,-2.46 -2.67,-4.78 -5.49,-6.3 -0.74,-0.4 -1.51,-0.74 -2.29,-1.01l0.03 0.06zm70.55 7.23c-2.9,-0.06 -5.97,-0.13 -9.14,-0.21 3.09,2.35 5.55,5.75 6.98,9.54l0.02 0c2.28,0.05 4.47,0.09 6.53,0.13l0.03 0c-0.07,-0.31 -0.15,-0.59 -0.23,-0.84 -0.36,-1.12 -1.79,-4.79 -3.14,-7.13 -0.27,-0.46 -0.63,-0.97 -1.05,-1.49zm-13.69 -0.34c-2.39,-0.07 -4.82,-0.15 -7.25,-0.23 0.34,2.96 0.22,6.24 -0.22,9.36l0.11 0c2.24,0.08 4.47,0.15 6.69,0.22l0.11 0c0.63,-3.57 0.99,-7.11 0.57,-9.36zm-25.03 -1.04c-4.65,-0.27 -8.96,-0.59 -12.65,-0.96 -2.53,2.32 -4.81,5.08 -6.86,8.5l0.35 0.06 0.08 0.01c0.81,0.13 1.68,0.25 2.62,0.37l0 0 0.42 0.05c0.95,0.12 1.97,0.23 3.03,0.34l0.44 0.04 0.65 0.06 0.49 0.05c1.66,0.16 3.43,0.3 5.29,0.44l0.56 0.04 0.99 0.07 0.2 0.01 1.09 0.07 0.01 0 0.58 0.04 0.56 0.04 0.03 0 0.59 0.04 0.6 0.04 0.8 0.05 0.59 0.04c1.16,0.07 2.33,0.13 3.52,0.19l0.63 0.03 0.63 0.03 0.06 0 0.94 0.05 0.54 0.03c1.19,0.06 2.38,0.11 3.59,0.16l0.02 0 0.1 0 0.55 0.02 0.65 0.03 0 0 1.02 0.04 0.87 0.03 0.07 0 0.19 0.01 0.47 0.02 0.66 0.02 0.56 0.02 0.1 0c0.25,-0.59 0.47,-1.3 0.66,-2.22l-3.38 -1.09c-2.46,-1 -9.63,-0.85 -11.56,-0.63 -3.99,0.45 -6.21,1.72 -9.56,2.43 1.32,-3.49 4.33,-6.44 8.17,-8.59z"/>
 </g>
</svg>
