<?xml version="1.0" encoding="UTF-8"?>
<!DOCTYPE svg PUBLIC "-//W3C//DTD SVG 1.1//EN" "http://www.w3.org/Graphics/SVG/1.1/DTD/svg11.dtd">
<!-- Creator: CorelDRAW -->
<svg xmlns="http://www.w3.org/2000/svg" xml:space="preserve" width="161.908mm" height="176.792mm" style="shape-rendering:geometricPrecision; text-rendering:geometricPrecision; image-rendering:optimizeQuality; fill-rule:evenodd; clip-rule:evenodd"
viewBox="0 0 34.304 37.4576"
 xmlns:xlink="http://www.w3.org/1999/xlink">
 <defs>
  <style type="text/css">
   <![CDATA[
    .fil0 {fill:none}
    .fil3 {fill:#359199}
    .fil2 {fill:#47BAB6}
    .fil1 {fill:#501D33}
    .fil9 {fill:#525B75}
    .fil7 {fill:#65798E}
    .fil4 {fill:#79E4C5}
    .fil10 {fill:#C8B99F}
    .fil6 {fill:#D77D75}
    .fil5 {fill:#FFCFA5}
    .fil8 {fill:white}
   ]]>
  </style>
 </defs>
 <g id="Слой_x0020_1">
  <metadata id="CorelCorpID_0Corel-Layer"/>
  <g id="_88564648">
   <rect id="_135244968" class="fil0" width="34.304" height="37.4576"/>
   <path id="_123309408" class="fil1" d="M24.9745 3.88566c3.53749,1.58732 6.43711,7.72327 6.69557,10.9554 0.296073,3.70269 0.250202,5.95601 -1.90947,10.4796 0,0 -0.493497,0.946546 -2.0985,0.556021 -0.7059,0.049409 -1.39987,-0.160876 -1.74351,-0.653694 -0.00834783,-0.0119709 -0.920804,-0.151617 -1.35129,-0.570661 -0.195263,-0.190093 -0.319315,-0.359105 -0.249121,-0.704968 0.0918897,-0.452817 0.227553,-1.00729 0.227553,-1.00729 0,0 -0.798235,-0.795756 -0.66753,-1.13429 0.130705,-0.338532 1.763,-1.75315 1.76571,-1.76671 1.12007,-5.13597 0.0217171,-9.51714 -2.91257,-13.056l-2.35748 -3.12156c1.18431,-0.349677 3.34462,-0.539388 4.60056,0.0241748l0 -2.11874e-005 2.11874e-005 4.23748e-005 4.23748e-005 0z"/>
   <path id="_123309336" class="fil1" d="M9.37468 3.88566c-3.53749,1.58732 -6.43711,7.72327 -6.69557,10.9554 -0.296073,3.70269 -0.250202,5.95601 1.90947,10.4796 0,0 0.475614,0.958538 2.08062,0.568013 0.717807,0.0672699 1.42369,-0.226451 1.76735,-0.719269 0.00834783,-0.0119921 0.91485,-0.0980128 1.34534,-0.517078 0.195284,-0.190093 0.319315,-0.359105 0.249121,-0.704968 -0.0918897,-0.452817 -0.227553,-1.00729 -0.227553,-1.00729 0,0 0.798235,-0.795756 0.66753,-1.13429 -0.130705,-0.338532 -1.763,-1.75315 -1.76571,-1.76671 -1.12007,-5.13597 -0.0217171,-9.51714 2.91257,-13.056l2.35748 -3.12156c-1.18431,-0.349677 -3.34462,-0.539388 -4.60056,0.0241748l0 -2.11874e-005 -2.11874e-005 4.23748e-005 -4.23748e-005 0z"/>
   <path id="_123309264" class="fil1" d="M10.7103 19.4551c-0.62685,-3.81034 -0.919003,-10.3329 -1.29985,-13.3182 0.67236,-2.76847 5.96088,-1.91956 7.76242,-1.54509 1.80154,-0.374466 7.09004,-1.2234 7.76242,1.54509 -0.380843,2.98532 -0.744694,9.49589 -1.37154,13.3063 -3.35441,1.30438 -9.49907,1.31635 -12.8535,0.0119285l-2.11874e-005 0 4.23748e-005 -4.23748e-005z"/>
   <path id="_123309192" class="fil2" d="M11.2576 19.1827c-0.619858,-4.04251 -1.07566,-8.57292 -1.33294,-12.6054 0.520489,-2.14315 3.82301,-3.23502 7.15263,-3.2604l0.191322 0c3.32958,0.0253825 6.6321,1.11727 7.15259,3.2604 -0.257278,4.03251 -0.713083,8.5629 -1.33294,12.6054 -3.25805,1.04666 -8.57254,1.04668 -11.8306,2.11874e-005l-4.23748e-005 -2.11874e-005z"/>
   <path id="_123309120" class="fil3" d="M11.2576 19.1827c-0.501866,-3.27298 -0.896099,-6.86567 -1.16456,-10.2552 0.0324379,-0.151087 0.0614434,-0.239672 0.0859996,-0.249058l1.62372 9.86165c0,0 4.00204,1.79641 10.7864,0.0286453l1.62439 -10.0811c0,0 0.0177974,0.117187 0.0485403,0.322112 -0.268614,3.4239 -0.666237,7.06197 -1.17389,10.3729 -3.25805,1.04664 -8.57254,1.04666 -11.8306,0l0 4.23748e-005 2.11874e-005 4.23748e-005z"/>
   <polygon id="_123309024" class="fil3" points="10.6263,13.6342 15.1814,15.9832 11.2319,15.5324 "/>
   <polygon id="_123308952" class="fil3" points="22.9465,16.2652 17.5256,17.9246 23.1137,17.2681 23.1121,16.6836 "/>
   <polygon id="_123308880" class="fil4" points="14.1419,16.2895 17.3148,17.6259 22.5871,16.1109 17.3183,16.6562 "/>
   <path id="_123308808" class="fil5" d="M24.6188 8.70874l-3.44589 -4.7679c2.34691,-0.103564 3.69572,-0.00186449 5.40393,1.75006 2.42949,2.4917 4.17633,6.25038 4.61114,9.72944 0.437519,3.50185 -0.230667,6.5725 -1.85144,9.74743 0,0 -0.196788,0.579475 -1.43689,0.436121 0,0 0.360652,-0.638079 0.336223,-0.693145 -0.0244502,-0.0551296 -0.62846,0.641109 -0.62846,0.641109 0,0 -0.763042,0.00277555 -1.3861,-0.534812 0,0 -0.00254249,-0.861966 -0.0566127,-0.859996 -0.0540702,0.00197043 -0.227447,0.638206 -0.227447,0.638206l-0.814761 -0.215158c-0.37222,-0.175008 -0.48856,-0.202806 -0.387475,-0.663822 0.0771645,-0.352177 0.206132,-0.946165 0.489704,-1.94333 -0.078245,-0.0922287 -0.267639,0.340863 -0.40631,0.578839 0,0 -0.446058,-0.492543 -0.426947,-0.66039 0.0190051,-0.16791 1.58109,-1.38229 1.58109,-1.38229 1.2623,-3.96064 0.408535,-8.6917 -1.35379,-11.8003l0 -2.11874e-005 4.23748e-005 0z"/>
   <path id="_123308736" class="fil6" d="M24.6188 8.70874l-0.0860843 -0.119115c0.0226493,-0.0127336 0.0450444,-0.0268232 0.0679056,-0.0380102 0,0 3.75324,4.25879 2.51704,10.4501 0.455529,-0.00601722 1.04918,0.0627358 1.44284,0.0834571 0.486928,0.0256367 1.62831,0.583437 2.51314,1.12151 -0.124412,0.682975 -0.295416,1.35803 -0.511697,2.03032 -1.2441,-0.957437 -2.859,-1.39127 -3.88473,-1.58128 -0.400992,1.20391 -0.997121,2.46664 -1.84676,3.77426 -0.134116,-0.0937754 -0.162211,-0.209183 -0.095428,-0.513773 0.0771645,-0.352177 0.206132,-0.946165 0.489704,-1.94333 -0.078245,-0.0922287 -0.267639,0.340863 -0.40631,0.578839 0,0 -0.446058,-0.492543 -0.426947,-0.66039 0.0171406,-0.151447 1.28953,-1.15418 1.5388,-1.34932l0.00364423 -0.0028603 0.0386458 -0.0301073c0.0189839,-0.0595789 0.0374169,-0.11937 0.0554474,-0.179309l0.0040256 -0.0134328c0.0166957,-0.0557016 0.0329464,-0.111552 0.0488157,-0.167529l0.00762746 -0.0270775c0.0142167,-0.0506167 0.0280521,-0.10136 0.041612,-0.152189l0.0119285 -0.0450656c0.0113353,-0.0431799 0.0224163,-0.0864445 0.0332854,-0.129773 0.00646215,-0.025785 0.0128396,-0.0516125 0.0191322,-0.0774399 0.00769102,-0.0315268 0.0152125,-0.0631384 0.0226493,-0.0947288 0.0104454,-0.0443664 0.0206153,-0.0888175 0.0305946,-0.133332l0.0065469 -0.0293869 0.00444935 -0.0200645c0.0105301,-0.0478835 0.0207636,-0.0958517 0.0307429,-0.143884l0.00766983 -0.0371203 0.00413154 -0.0201068 2.11874e-005 0c0.744037,-3.66599 -0.105132,-7.74763 -1.68247,-10.5299l2.11874e-005 0z"/>
   <path id="_123308664" class="fil7" d="M30.6231 22.0432l-0.0356796 0.0386246 -0.0123734 -0.0113564 0.00555109 0.0304039c0.00800883,0.000656809 0.0159541,0.00141955 0.0237722,0.00237299 0.00625028,-0.0200221 0.0125641,-0.040023 0.0187296,-0.060045zm-0.358342 -10.343c0.20609,0.559855 0.384043,1.12653 0.531252,1.69372 -0.565068,0.337621 -0.943962,1.17071 -0.830884,1.79944l0.0491124 0.273169c0.017416,0.0969535 0.0512311,0.109984 0.0685836,0.206937 0.0689014,0.0713167 0.11223,0.201471 0.216662,0.299717 0.0704904,0.0664224 0.199098,0.137803 0.299907,0.160791 0.239778,0.0545151 0.6281,-0.0213357 0.578585,-0.297111l-0.0109963 -0.060723c-0.00730965,-0.0409764 -0.0147252,-0.0404679 -0.0287937,-0.0731177 -0.0611468,0.0286665 -0.0917414,0.110471 -0.196089,0.129201 -0.0846012,0.0152761 -0.184076,-0.0644944 -0.202594,-0.167232 -0.0255732,-0.142528 0.065575,-0.246706 0.202022,-0.271283 0.0923982,-0.0166109 0.176766,0.00154668 0.248507,0.0441121 0.036294,0.292788 0.0647698,0.582568 0.0856606,0.869679 -0.102399,0.115175 -0.247193,0.198462 -0.41095,0.227934l-0.0454681 0.00817833c-0.154562,0.027819 -0.311285,0.0288996 -0.423621,-0.00207636 0.094072,0.200369 0.58795,0.332366 0.909913,0.289843 0.0097462,0.239587 0.0141532,0.477373 0.0131786,0.71357 -0.298276,-0.0545575 -0.628079,-0.0852157 -0.829762,-0.048964 0.0661046,0.367538 0.494238,0.831012 0.503179,0.880717 0.00319929,0.0179457 -0.129328,0.307217 -0.105746,0.45769 -0.125726,0.0119921 -0.347473,-0.313404 -0.475381,-0.2905l-0.0303615 0.00550872c-0.0993265,0.0178186 -0.0788171,0.258804 -0.0587314,0.370864 0.0784357,0.435973 0.415421,0.784145 0.824655,0.850334 -0.0181788,0.119349 -0.03765,0.238443 -0.0586467,0.357262 -0.175474,-0.0331371 -0.344083,-0.0928855 -0.406755,-0.0816138 -0.0355312,0.00635622 -0.0561678,0.0359974 -0.0498115,0.0716134 0.0335184,0.186216 0.182381,0.337134 0.375589,0.43324 -0.0947076,0.460105 -0.210624,0.916905 -0.347346,1.37216 -0.193102,0.213802 -0.475127,0.421184 -0.853619,0.489238l-0.0152549 0.00277555c-0.918579,0.165113 -1.17433,-0.744419 -1.60872,-0.666216l-0.106276 0.0190686c-0.0843046,0.0151066 -0.196407,0.12759 -0.179796,0.220306l0.0163778 0.0910422c0.0155304,0.0864657 0.161024,0.174648 0.247977,0.158969l0.0152337 -0.00266961c0.0554898,-0.00993688 0.113946,-0.063774 0.105047,-0.112802l-0.0109115 -0.0607442c-0.0699819,0.0327557 -0.0398323,0.0698548 -0.0953432,0.0797917l-0.015149 0.00273317c-0.036527,0.00661046 -0.100873,-0.0380737 -0.107484,-0.0746643l-0.0163355 -0.0911058c-0.0087292,-0.0483496 0.0581806,-0.120069 0.117548,-0.13079l0.0910422 -0.0163355c0.0858725,-0.0154668 0.208738,0.114624 0.228569,0.225243l0.00277555 0.0151278c0.0323108,0.179839 -0.067164,0.30976 -0.251812,0.342939l-0.0304463 0.00544516c-0.232193,0.0418027 -0.480233,-0.143905 -0.5221,-0.376055l-0.00540278 -0.0303615c-0.0399382,-0.222171 0.103691,-0.410294 0.326498,-0.450317l0.151723 -0.0273529c0.128205,-0.0230095 0.324273,0.0485403 0.411989,0.0953644 0.101212,0.0539643 0.273444,0.228548 0.307556,0.24518 0.0558711,-0.174838 0.113458,-0.334803 0.370483,-0.36116 0.196958,-0.0200856 0.388619,0.050426 0.427222,0.264758 0.0230519,0.12884 -0.0242172,0.239311 -0.156426,0.263084l-0.0608078 0.0108691c-0.0470784,0.00860208 -0.137485,-0.0674394 -0.148651,-0.129815 -0.0147888,-0.0818892 0.0358279,-0.140896 0.112124,-0.161215 -0.0277978,-0.0642401 -0.0769314,-0.111488 -0.158545,-0.0968687 -0.120556,0.0218018 -0.172147,0.176173 -0.151024,0.293551 0.0411035,0.228336 0.291051,0.248041 0.505319,0.247575 0.201725,-0.00040256 0.479788,-0.156299 0.603671,-0.234036 0.278445,-0.174563 0.55619,-0.602294 0.48375,-1.0049l-0.00828427 -0.0456164c-0.0346837,-0.19325 -0.293594,-0.479704 -0.472267,-0.447668 -0.146214,0.0263147 -0.303615,0.403048 -0.279716,0.53602l0.0191746 0.106255c0.0553626,0.308298 0.280351,0.446227 0.438854,0.610303l-0.195835 0.197488c-0.127845,-0.0586679 -0.266283,-0.202806 -0.366054,-0.306348 -0.0760415,-0.0790289 -0.235095,-0.347791 -0.343723,-0.307916l-0.410357 0.147824 -0.0949195 0.00567822c-0.401882,0.0722702 -0.90201,-0.0637952 -1.14247,-0.228993 -0.155643,-0.106996 -0.28692,-0.1895 -0.42182,-0.329316 -0.162168,-0.16808 -0.198505,-0.284991 -0.327938,-0.464258l0.139477 -0.00591128 0.227595 -0.0444511c0.188547,0.437435 0.867306,0.862327 1.43742,0.759758l0.0759144 -0.0136235c0.226536,-0.0406798 0.410696,-0.173376 0.53388,-0.293085 0.0808934,-0.0786052 0.240392,-0.368999 0.216832,-0.500022l-0.0136235 -0.0758296c-0.0062079,-0.034938 -0.0187085,-0.0436036 -0.0537312,-0.037311 -0.0948135,0.017077 -0.40345,0.29192 -0.644965,0.335333l-0.0455317 0.00819952c0.00502141,-0.061401 0.116891,-0.270711 0.143417,-0.365143 0.0334337,-0.119115 0.174415,-0.20342 0.257024,-0.286114 0.13687,-0.136998 0.285436,-0.502247 0.238422,-0.76389l-0.0355312 -0.197276c-0.0138354,-0.0773128 -0.0899404,-0.250138 -0.167762,-0.236155 -0.132294,0.023857 -0.407349,0.575132 -0.52318,0.698802 -0.1142,0.121743 -0.496632,0.549855 -0.672848,0.581594 -0.075533,0.0135387 -0.23643,-0.224862 -0.260118,-0.313573 0.451863,-0.212086 1.10931,-1.32631 1.00267,-1.9192 -0.467711,0.0841563 -1.00002,0.469851 -1.27862,0.705116 -0.321391,0.271432 -0.531825,0.731071 -0.43057,1.29432 -0.100852,0.0572059 -0.140282,0.11634 -0.333595,0.137231l-0.0419934 -0.194458c-0.0418027,-0.142549 0.0062079,-0.541677 0.0292174,-0.648207 0.0475869,-0.219904 0.130451,-0.336922 0.188737,-0.519557 -0.532905,0.142273 -0.923431,0.965827 -0.808913,1.60234 0.0233485,0.129879 0.0826732,0.253465 0.121933,0.343045 0.191237,0.436545 0.728952,0.757195 1.21986,0.668865l0.352325 0.219289c-0.0719735,0.0186237 -0.0892836,0.0467606 -0.176258,0.0624816l-0.258147 0.046358c-0.202424,0.0363787 -0.521125,-0.0251282 -0.657974,-0.0852368 -0.0602781,-0.0265478 -0.257342,-0.126277 -0.379932,-0.214861 -0.139688,-0.101127 -0.331943,-0.371161 -0.409595,-0.510129 -0.0348744,-0.062418 -0.0668038,-0.128777 -0.0952585,-0.201598 0.217149,-0.687785 0.370716,-1.39852 0.466991,-2.1198 0.185813,-0.193865 0.409806,-0.355291 0.707701,-0.483644 -0.0212086,-0.104284 -0.113543,-0.105619 -0.197424,-0.136235 -0.0865081,-0.0316751 -0.12223,-0.0658504 -0.197064,-0.117823 -0.0801307,-0.055744 -0.157422,-0.109857 -0.221112,-0.182275 0.0209543,-0.311899 0.0317387,-0.624752 0.0331371,-0.937584 0.0504472,-0.035277 0.110662,-0.060723 0.181046,-0.0733719l0.060723 -0.0109963c0.201492,-0.0361881 0.442901,0.109348 0.478178,0.305692l0.00817833 0.0455317c0.0242807,0.135218 -0.0648334,0.293594 -0.193822,0.316815l-0.0607019 0.0109327c-0.0794103,0.0142379 -0.179182,-0.0377771 -0.194182,-0.1217l-0.00828427 -0.0455529c-0.0131997,-0.0733931 0.0263147,-0.130027 0.0996019,-0.143248l0.0607654 -0.0110174c0.0871649,-0.0155515 0.0735202,0.0301285 0.147549,0.0362516 -0.0708506,-0.0981823 -0.0950466,-0.186597 -0.278466,-0.153566l-0.0151066 0.00262724c-0.144265,0.0259122 -0.215666,0.195136 -0.19111,0.332112l0.0109963 0.0607019c0.057778,0.321434 0.638503,0.51176 0.989663,0.4486l0.167063 -0.0301285c0.410972,-0.0738592 0.737724,-0.346541 0.859297,-0.624413 -0.119497,0.051443 -0.186534,0.111827 -0.365885,0.144117l-0.0607019 0.0109115c-0.359147,0.064452 -0.723528,-0.101466 -0.784166,-0.438706l-0.0163355 -0.0909574c-0.0405527,-0.225158 0.0792832,-0.468601 0.300437,-0.508285l0.0454681 -0.00824189c0.112908,-0.0202763 0.235159,0.0875039 0.256261,0.204649 0.0155727,0.0867623 -0.0737109,0.201174 -0.16469,0.217531 -0.0667403,0.0119921 -0.152147,-0.0380949 -0.198483,-0.0582653 -0.0543245,0.196534 0.135769,0.36722 0.326243,0.332917l0.13668 -0.0245562c0.189542,-0.0340481 0.357601,-0.252808 0.416014,-0.388153 0.0810841,-0.187466 0.110429,-0.344719 0.0605324,-0.621871 -0.162105,-0.90146 -0.983667,-1.73431 -1.85114,-1.57825 -0.123861,0.0222679 -0.261219,0.0545363 -0.385081,0.109878 -0.0159753,-0.112187 -0.0330311,-0.224035 -0.0511675,-0.335523 0.0732872,-0.0346837 0.19503,-0.103479 0.381775,-0.157528 0.0601086,-0.017416 0.0954915,-0.0314633 0.18094,-0.0468241l0.106297 -0.019111c-0.0290691,-0.161342 -0.161278,-0.286623 -0.185453,-0.420993l-0.024535 -0.136616c-0.0135811,-0.0752788 0.218124,-0.117548 0.305162,-0.133184l0.0759356 -0.0136659c0.0498751,0.277491 0.337896,0.5032 0.614392,0.453495l0.0455105 -0.00817833c0.0978222,-0.0176491 0.151977,-0.113861 0.134328,-0.212213 -0.0433706,-0.240837 -0.447647,-0.358109 -0.714121,-0.310183l-0.166957 0.0300225c-0.338447,0.0608502 -0.700518,0.276093 -0.828363,0.547842 -0.0244714,-0.129434 -0.0503836,-0.258253 -0.0777153,-0.386394 0.235413,-0.236006 0.529939,-0.407094 0.851457,-0.464936l0.303679 -0.0546211c0.137909,-0.0247469 0.263974,-0.01142 0.37811,-0.00894108 0.0966145,0.00216111 0.293191,0.045002 0.347452,0.0351287 0.0950466,-0.0171618 0.220095,-0.195305 0.250308,-0.264376l0.365334 0.102547c-0.0656809,0.151405 -0.219713,0.271516 -0.174775,0.52121l0.0162931 0.0909363c0.0268656,0.149244 0.227955,0.319315 0.396819,0.288996 0.142167,-0.0255308 0.239417,-0.237744 0.213251,-0.382941l-0.019111 -0.106191c-0.0456588,-0.253592 -0.28889,-0.395314 -0.467627,-0.473644 -0.119412,-0.05246 -0.538223,-0.160198 -0.691471,-0.132569l-0.212552 0.0382644c-0.10475,0.0187932 -0.298382,0.130281 -0.364465,0.184966 -0.0659351,0.0545787 -0.322896,0.0953432 -0.443282,0.116848 0.128247,-0.293 0.499154,-0.544092 0.93805,-0.622951l0.0911058 -0.016399c0.705837,-0.126976 1.30548,0.438897 1.48371,0.406861 0.121319,-0.0219289 0.407349,-0.214247 0.64344,-0.256791 0.0847707,0.0371203 0.188547,0.144922 0.218802,0.258338 -0.273296,0.0490912 -0.621002,0.293805 -0.57636,0.542291 0.0176703,0.0983942 0.10189,0.169605 0.199755,0.151998l0.0455741 -0.00817833c0.228019,-0.0409976 0.45252,-0.359253 0.416396,-0.560533l-0.0191534 -0.106212c-0.051443,-0.286326 -0.458008,-0.481526 -0.751093,-0.428875l-0.121404 0.021823c-0.178906,0.0321836 -0.258338,0.111424 -0.411459,0.152358l-0.364868 -0.15827c0.182148,-0.0882666 0.283614,-0.203123 0.54227,-0.24963l0.197403 -0.0354889c0.252109,-0.045341 0.535638,0.00180093 0.776708,0.118141zm1.03983 6.44751c-0.0223951,0.518032 -0.0708506,1.02903 -0.144816,1.535 -0.0880336,-0.0890718 -0.153609,-0.269461 -0.173546,-0.380653l-0.0382644 -0.212509c-0.0624392,-0.347282 0.0818892,-0.747745 0.356626,-0.941843zm-4.77301 -2.8743c-0.00650453,-0.0890082 -0.0139413,-0.177889 -0.0219078,-0.266664 0.0684352,-0.0292386 0.100661,-0.0792408 0.0829274,-0.177995 -0.0419934,0.0197043 -0.0589009,0.0502777 -0.0927796,0.0705116 -0.0130514,-0.135726 -0.0276707,-0.271177 -0.0440486,-0.406162l0.0285394 -0.00510616c0.162613,-0.0293445 0.35099,0.121679 0.381542,0.291538 0.0347049,0.192975 -0.129413,0.42343 -0.334273,0.493878zm2.05492 4.97728c-0.321201,-0.016399 -0.684247,-0.318679 -0.754695,-0.710307l-0.00817833 -0.0454469c-0.03765,-0.209331 0.021823,-0.458198 0.224502,-0.494747 0.136383,-0.0245138 0.291644,0.0686895 0.394446,0.101445 0.0324167,-0.0313785 0.186979,-0.2673 0.181322,-0.29889 -0.0206365,-0.114306 -0.442244,-0.171152 -0.620578,-0.139095 -0.549346,0.0988603 -0.648567,0.720117 -0.451651,1.2269 0.153036,0.394107 0.501336,0.722426 0.853449,0.659034 0.0445359,-0.00796646 0.16541,-0.248931 0.181385,-0.29889zm-0.875187 0.0163355c-0.068859,-0.115556 -0.13776,-0.231197 -0.206556,-0.346837 -0.326773,0.0958093 -0.862666,0.112844 -1.20537,-0.0254672 0.00591128,0.0666767 0.0119285,0.133438 0.017861,0.200051 0.0100852,0.055744 0.0200221,0.111382 0.0300437,0.167041 0.0444299,0.247108 1.12291,0.0642825 1.30648,0.0312726 0.0238994,-0.00430104 0.0403832,-0.0154668 0.0575449,-0.0260605zm1.38962 -0.641469l-0.0464427 -0.257999c-0.0103394,-0.0580534 0.00377135,-0.00646215 -0.0233273,-0.0428409 -0.0203823,0.0197678 -0.286008,0.344316 -0.289398,0.356605 -0.0405103,0.146744 0.0152337,0.318213 -0.0614858,0.515023 -0.0964873,0.247511 -0.332388,0.587378 -0.58759,0.707087 0.0395568,0.0843258 0.254227,0.14418 0.344464,0.173059 0.335608,-0.262851 0.763191,-0.898324 0.66378,-1.45093z"/>
   <path id="_123308592" class="fil8" d="M25.1856 4.56942c0.455423,0.264058 0.908981,0.626956 1.39114,1.12145 2.42949,2.4917 4.17633,6.25038 4.61114,9.72944 0.209225,1.67461 0.165389,3.25046 -0.114348,4.7864 -0.168927,-0.102738 -0.347304,-0.206196 -0.528604,-0.306539 1.06,-5.99141 -1.34673,-11.7882 -5.35933,-15.3307l0 -4.23748e-005 0 2.11874e-005zm5.88755 15.6395c-0.0616341,0.338129 -0.134731,0.674288 -0.219056,1.0092 0.0843258,-0.334888 0.157422,-0.671068 0.219056,-1.0092zm-0.227319 1.04185c-0.0489005,0.192445 -0.101551,0.384466 -0.157846,0.576191 0.0563161,-0.191725 0.108967,-0.383725 0.157846,-0.576191zm-0.167147 0.60776c-0.00985213,0.0333066 -0.0198314,0.0666131 -0.0298954,0.0999197 0.0100852,-0.0333066 0.0200433,-0.0665919 0.0298954,-0.0999197zm-0.0440062 0.146257c-0.00997926,0.0326498 -0.0200433,0.0652571 -0.0302556,0.0978857 0.0101699,-0.0326498 0.0202763,-0.065236 0.0302556,-0.0978857zm-0.043307 0.139392c-0.00968263,0.0307217 -0.0194076,0.0614222 -0.029281,0.0921227 0.00989451,-0.0306793 0.0196195,-0.061401 0.029281,-0.0921227zm-0.029514 0.0928855c-0.314378,0.977501 -0.724312,1.94911 -1.22539,2.9307 0,0 -0.0167804,0.0489429 -0.0708718,0.11492 -0.358194,-0.0500022 -0.720519,-0.131298 -1.07583,-0.232171 0.0326286,-0.0716981 0.0523964,-0.12545 0.0460402,-0.139773 -0.00724609,-0.0163567 -0.065575,0.0333489 -0.143926,0.111446 -0.690963,-0.20378 -1.35093,-0.477839 -1.89591,-0.734503 -0.00779696,-0.078923 -0.0179881,-0.131129 -0.0313361,-0.130641 -0.0120556,0.000444935 -0.0283063,0.0371203 -0.0462097,0.0938601 -0.359889,-0.171787 -0.665559,-0.333659 -0.891353,-0.458792 0.0190898,-0.0320989 0.0380525,-0.0641978 0.0568246,-0.0962331 1.59522,0.448982 3.80148,0.673759 3.80148,0.673759 0.399382,-0.821562 0.723973,-1.64918 0.978688,-2.47742 0.170707,0.106636 0.337367,0.221387 0.497798,0.344846zm-5.74629 1.31716l-8.47495e-005 -4.23748e-005 0.000720371 -0.00315692 8.47495e-005 2.11874e-005 -0.000720371 0.00317811z"/>
   <path id="_123308520" class="fil9" d="M26.7577 12.6251c0.030637,0.0958517 0.0605324,0.193165 0.0895591,0.291899 -0.246261,0.0996019 -0.468644,0.269588 -0.563118,0.470423l-0.0104878 -0.0546423 -0.00114412 -0.0060384 -0.000148312 -0.000699184 -0.0112081 -0.0574814c-0.00686471,-0.0350651 -0.0138989,-0.0700667 -0.0209755,-0.105026l-0.00120768 -0.0060384 -0.00120768 -0.0060384 -0.00120768 -0.00601722 -0.000127124 -0.000593247 -0.00665284 -0.0322896c-0.00764865,-0.0372474 -0.0154244,-0.0743889 -0.0233485,-0.11153 0.15988,-0.160283 0.346922,-0.29067 0.551275,-0.375928zm0.106297 0.348045c0.0515701,0.178334 0.0999621,0.361647 0.145367,0.548965 -0.0467606,-0.129434 -0.14596,-0.237383 -0.166575,-0.352007l-0.024535 -0.136616c-0.00417391,-0.0231578 0.0148312,-0.0432435 0.0457436,-0.0603417zm0.162274 0.618311c0.0337091,0.142528 0.0654266,0.28764 0.0949619,0.435146 -0.107039,-0.010064 -0.216005,-0.00614434 -0.325756,0.0136023 -0.123861,0.0222679 -0.261219,0.0545363 -0.385081,0.109878 -0.00661046,-0.046358 -0.0134328,-0.0927372 -0.0204035,-0.138968l-0.00762746 -0.0500446 -0.000826308 -0.00527566 -0.000805121 -0.0052121 -0.000826308 -0.00527566c-0.00485191,-0.0314421 -0.00983095,-0.062863 -0.0148312,-0.0942203l-0.000826308 -0.0052121 -0.000826308 -0.0052121 -0.000826308 -0.0052121 -0.00328404 -0.0209331c0.0732872,-0.0346837 0.195009,-0.103458 0.381691,-0.157486 0.0601086,-0.017416 0.0954915,-0.0314633 0.18094,-0.0468241l0.104327 -0.0187508zm0.300649 3.9049c-0.0387729,0.487564 -0.106403,0.98962 -0.209374,1.50538 0.0567186,-0.000741558 0.115556,-0.000381373 0.175898,0.000953432 -0.0843046,0.222468 -0.113988,0.483327 -0.0622273,0.771221 -0.100852,0.0572059 -0.140282,0.11634 -0.333595,0.137231l-0.0419934 -0.194458c-0.0418027,-0.142549 0.0062079,-0.541677 0.0292174,-0.648207 0.0475869,-0.219904 0.130451,-0.336922 0.188737,-0.519557 -0.532905,0.142273 -0.923431,0.965827 -0.808913,1.60234 0.0233485,0.129879 0.0826732,0.253465 0.121933,0.343045 0.053371,0.121827 0.133671,0.234566 0.232468,0.331985 -0.0420358,0.121171 -0.0860843,0.242913 -0.132146,0.365228l-0.000444935 -0.000317811c-0.139688,-0.101127 -0.331943,-0.371161 -0.409595,-0.510129 -0.0348532,-0.0623545 -0.0667403,-0.12865 -0.0951737,-0.201407 0.0156999,-0.0498327 0.0311243,-0.0998138 0.0461885,-0.149901l0.0040256 -0.0134328c0.012776,-0.0426502 0.025213,-0.0854699 0.0375017,-0.128268l2.11874e-005 -0.000127124 0.0112929 -0.0391331 0.00762746 -0.0270775 0.00682234 -0.0248316 0.000741558 -0.00262724 0.000317811 -0.00108056 0.000635622 -0.00241536 0.000169499 -0.000529685 0.000148312 -0.000550872 0.00347473 -0.0126065 0.000233061 -0.000868683 0.00451291 -0.0162931 0.000635622 -0.0023518 0 -6.35622e-005 0.000233061 -0.000762746 0.00502141 -0.0182423 0.000635622 -0.0023518 0.000635622 -0.00241536 0.00197043 -0.00711896 0.000466122 -0.00169499 0.00209755 -0.00775458 2.11874e-005 -8.47495e-005 0.000635622 -0.00241536 0.000635622 -0.0023518 0.000635622 -0.0023518 0.000148312 -0.000529685 0.00245774 -0.00900464 0.000635622 -0.0023518 0.000635622 -0.00241536 0.000635622 -0.0023518 0.000296623 -0.00110174 0.000338998 -0.00131362 0.000656809 -0.0023518 0.000635622 -0.00241536 0.000635622 -0.0023518 0.000635622 -0.00241536 0.000635622 -0.0023518 0.000635622 -0.00241536 0.000635622 -0.0023518 0.000635622 -0.0023518 8.47495e-005 -0.000317811 0.000593247 -0.00203399 0.0119285 -0.0450656 0.000995807 -0.00394085 0.000911058 -0.00349592 0.000190686 -0.000699184 0.000508497 -0.00203399 0.00582653 -0.0222468 0.000508497 -0.00203399 0.00366542 -0.0141744 0.000508497 -0.00203399 0.00156787 -0.00605959 2.11874e-005 -4.23748e-005 0.000508497 -0.00203399 0.00139837 -0.0053816 0.000699184 -0.0026908 0.000508497 -0.00203399 0.000508497 -0.00203399m1.38008 -0.841224c0.136065,0.0072249 0.275055,0.0172889 0.410378,0.027819 -0.123883,0.0865293 -0.157867,0.283847 -0.127124,0.454787l0.00817833 0.0454469c0.0704481,0.391628 0.433494,0.693908 0.754695,0.710307 -0.0159753,0.0499599 -0.136849,0.290924 -0.181385,0.29889 -0.352113,0.0633927 -0.700413,-0.264927 -0.853449,-0.659034 -0.115005,-0.295988 -0.128989,-0.631003 -0.0112929,-0.878217zm0.826477 0.0603629c0.0322896,0.0023518 0.063774,0.0045341 0.0943898,0.0065469 -0.00794527,0.010403 -0.014365,0.0182423 -0.0186661,0.0223951 -0.0228824,-0.00728846 -0.0484132,-0.0176279 -0.0757237,-0.028942zm0.158757 0.0105513l0.0348109 0.00194924c0.12062,0.00635622 0.281432,0.0453622 0.468538,0.108649 -0.0630537,0.101233 -0.119497,0.190475 -0.158227,0.231811 -0.1142,0.121743 -0.496632,0.549855 -0.672848,0.581594 -0.075533,0.0135387 -0.23643,-0.224862 -0.260118,-0.313573 0.183716,-0.0862327 0.401331,-0.321646 0.587844,-0.61043zm1.06585 0.335862c0.400611,0.179944 0.845525,0.413493 1.25489,0.652296 -0.0738168,-0.0182 -0.133226,-0.0308912 -0.165156,-0.0251494 -0.0355312,0.00635622 -0.0561678,0.0359974 -0.0498115,0.0716134 0.0334973,0.186131 0.182254,0.336985 0.375313,0.433112 -0.0947712,0.460232 -0.210687,0.917265 -0.347431,1.37269 -0.0665496,0.0736473 -0.143714,0.146468 -0.231684,0.213145 -0.0751305,-0.0544728 -0.151426,-0.107229 -0.228697,-0.158164l0.00779696 -0.00483072c0.278445,-0.174563 0.55619,-0.602294 0.48375,-1.0049l-0.00828427 -0.0456164c-0.0346837,-0.19325 -0.293594,-0.479704 -0.472267,-0.447668 -0.146214,0.0263147 -0.303615,0.403048 -0.279716,0.53602l0.0191746 0.106255c0.0553626,0.308298 0.280351,0.446227 0.438854,0.610303l-0.195835 0.197488c-0.127845,-0.0586679 -0.266283,-0.202806 -0.366054,-0.306348 -0.0760415,-0.0790289 -0.235095,-0.347791 -0.343723,-0.307916l-0.303276 0.109242c-0.22215,-0.100852 -0.445274,-0.190665 -0.665475,-0.27069 0.126298,0.0214204 0.253528,0.0237722 0.375737,0.00177974l0.0759144 -0.0136235c0.226536,-0.0406798 0.410696,-0.173376 0.53388,-0.293085 0.0808934,-0.0786052 0.240392,-0.368999 0.216832,-0.500022l-0.0136235 -0.0758296c-0.0062079,-0.034938 -0.0187085,-0.0436036 -0.0537312,-0.037311 -0.0948135,0.017077 -0.40345,0.29192 -0.644965,0.335333l-0.0455317 0.00819952c0.00502141,-0.061401 0.116891,-0.270711 0.143417,-0.365143 0.0334337,-0.119115 0.174415,-0.20342 0.257024,-0.286114 0.0951314,-0.0952161 0.195835,-0.300755 0.23268,-0.505065zm1.03125 2.62459l-0.0184754 0.0596001c-0.00777577,-0.000932245 -0.0156787,-0.00169499 -0.0236451,-0.0023518l-0.00555109 -0.0304039 0.0123734 0.0113564 0.0352982 -0.0382009zm-1.04233 -0.427731c-0.062418,-0.032565 -0.125154,-0.0641978 -0.188038,-0.0949195 0.0732448,0.0135811 0.139053,0.0440909 0.188038,0.0949195zm-1.49695 -0.611828c-0.26783,-0.0843893 -0.527015,-0.154689 -0.769844,-0.213082 -0.0860208,-0.11331 -0.130641,-0.213145 -0.228506,-0.348681l0.139477 -0.00591128 0.227595 -0.0444511c0.10081,0.233888 0.341731,0.46411 0.631278,0.612125zm-1.90839 -1.20874l0.000190686 -0.000699184 6.35622e-005 -0.000317811c0.118098,-0.471038 0.208696,-0.950381 0.27336,-1.4347 0.185813,-0.193865 0.409806,-0.355291 0.707701,-0.483644 -0.0212086,-0.104284 -0.113543,-0.105619 -0.197424,-0.136235 -0.0865081,-0.0316751 -0.12223,-0.0658504 -0.197064,-0.117823 -0.0801307,-0.055744 -0.157422,-0.109857 -0.221112,-0.182275 0.0209543,-0.311899 0.0317387,-0.624752 0.0331371,-0.937584 0.0504472,-0.035277 0.110662,-0.060723 0.181046,-0.0733719l0.060723 -0.0109963c0.201492,-0.0361881 0.442901,0.109348 0.478178,0.305692l0.00817833 0.0455317c0.0242807,0.135218 -0.0648334,0.293594 -0.193822,0.316815l-0.0607019 0.0109327c-0.0794103,0.0142379 -0.179182,-0.0377771 -0.194182,-0.1217l-0.00828427 -0.0455529c-0.0131997,-0.0733931 0.0263147,-0.130027 0.0996019,-0.143248l0.0607654 -0.0110174c0.0871649,-0.0155515 0.0735202,0.0301285 0.147549,0.0362516 -0.0708506,-0.0981823 -0.0950466,-0.186597 -0.278466,-0.153566l-0.0151066 0.00262724c-0.144265,0.0259122 -0.215666,0.195136 -0.19111,0.332112l0.0109963 0.0607019c0.0411671,0.229014 0.347749,0.391395 0.647698,0.443028m-0.814952 -2.46303l-0.000741558 -0.00836902 -0.00158905 -0.0182212c0.0684352,-0.0292386 0.100661,-0.0792408 0.0829274,-0.177995 -0.0419934,0.0197043 -0.0589009,0.0502777 -0.0927796,0.0705116 -0.0130514,-0.135726 -0.0276707,-0.271177 -0.0440486,-0.406162l0.0285394 -0.00510616c0.162613,-0.0293445 0.35099,0.121679 0.381542,0.291538 0.0347049,0.192975 -0.129413,0.42343 -0.334273,0.493878 -0.00584772,-0.0801095 -0.0125006,-0.160155 -0.0195771,-0.240074zm1.19933 5.23371c-0.068859,-0.115556 -0.13776,-0.231197 -0.206556,-0.346837 -0.326773,0.0958093 -0.862666,0.112844 -1.20537,-0.0254672 0.00591128,0.0666767 0.0119285,0.133438 0.017861,0.200051 0.0100852,0.055744 0.0200221,0.111382 0.0300437,0.167041 0.0444299,0.247108 1.12291,0.0642825 1.30648,0.0312726 0.0238994,-0.00430104 0.0403832,-0.0154668 0.0575449,-0.0260605zm1.38962 -0.641469l-0.0464427 -0.257999c-0.0103394,-0.0580534 0.00377135,-0.00646215 -0.0233273,-0.0428409 -0.0203823,0.0197678 -0.286008,0.344316 -0.289398,0.356605 -0.0405103,0.146744 0.0152337,0.318213 -0.0614858,0.515023 -0.0964873,0.247511 -0.332388,0.587378 -0.58759,0.707087 0.0395568,0.0843258 0.254227,0.14418 0.344464,0.173059 0.335608,-0.262851 0.763191,-0.898324 0.66378,-1.45093z"/>
   <path id="_123308448" class="fil5" d="M24.6841 21.8986c0,0 0.256007,-0.529875 0.910909,-0.86328 0.654902,-0.333405 -0.452478,0.875187 -0.910909,0.86328z"/>
   <path id="_123308376" class="fil6" d="M29.4063 25.0289c-0.0230731,0.0462944 -0.0463156,0.0926312 -0.0698972,0.138777 0,0 -0.196788,0.579454 -1.4368,0.4361 0,0 0.360567,-0.638037 0.336138,-0.693188 -0.0244291,-0.0551508 -0.628503,0.641279 -0.628503,0.641279 0,0 -0.763,0.00266961 -1.38602,-0.534981 0,0 -0.00254249,-0.862009 -0.0566551,-0.860038 -0.0540914,0.00197043 -0.185813,0.703887 -0.185813,0.703887 -0.420231,-0.0559135 -0.902752,-0.209119 -1.18594,-0.460042 -0.101339,-0.0897709 -0.117993,-0.210899 -0.0579475,-0.484598 0.0257639,-0.11742 0.0572059,-0.261813 0.0982671,-0.438939 2.35218,1.05668 3.85568,1.42472 4.57317,1.55174z"/>
   <path id="_123308304" class="fil6" d="M29.2763 13.9322c0,0 0,0.787281 1.06164,1.21671 0,0 -0.703781,-0.023857 -1.00199,-0.310141 -0.298212,-0.286284 -0.0596425,-0.906566 -0.0596425,-0.906566z"/>
   <path id="_123308232" class="fil2" d="M31.1319 17.052c0,0 0.0477352,1.94498 -0.650177,4.62874 -1.43034,-1.12734 -3.39166,-1.49479 -4.40068,-1.61289 0.411162,-1.50255 1.33207,-6.26452 -1.62378,-11.4785l-3.44589 -4.7679c2.34691,-0.103564 3.69572,-0.00186449 5.40393,1.75006 2.84453,2.91742 4.75398,7.57178 4.71659,11.4805l0 -2.11874e-005 0 -2.11874e-005 2.11874e-005 -2.11874e-005z"/>
   <path id="_123308160" class="fil4" d="M30.6573 14.641c0,0 -1.91708,-0.0535829 -1.88135,-0.0535829 0.0357219,0 1.81586,-0.345312 1.81586,-0.345312l0.0654902 0.398895z"/>
   <polygon id="_123308088" class="fil4" points="26.8457,12.5324 29.7323,11.3276 29.6249,10.9817 26.8815,12.3535 "/>
   <path id="_123308016" class="fil4" d="M31.2988 17.0997c0,0 0.14293,2.0046 -0.554961,4.68817 -0.132781,-0.104644 -0.532545,-0.310056 -0.673314,-0.402009 0.553414,-2.17546 0.769738,-4.7482 0.220031,-7.44328 -0.563839,-2.76438 -2.04407,-5.9369 -4.80269,-9.18865 0.302513,0.221345 0.60865,0.490679 0.927351,0.817536 3.08332,2.77415 4.92098,7.61945 4.88359,11.5282l0 -2.11874e-005 0 2.11874e-005z"/>
   <path id="_123307944" class="fil3" d="M30.9102 21.1003c-0.0469936,0.206196 -0.0983942,0.417752 -0.154689,0.634181 -1.43038,-1.12744 -3.66569,-1.54842 -4.67468,-1.66651 0.0490064,-0.179224 0.105238,-0.404785 0.1613,-0.671788 2.36119,0.221938 4.04859,1.19268 4.66805,1.70412l2.11874e-005 0z"/>
   <path id="_123307872" class="fil3" d="M26.0808 20.0678c0.411162,-1.50259 1.33216,-6.26462 -1.62367,-11.4785l-0.0717617 -0.0992841c3.46554,3.53863 3.45941,8.18767 2.56126,11.7121 -0.32957,-0.0636045 -0.624774,-0.106064 -0.865822,-0.134264l0 2.11874e-005 0 -4.23748e-005z"/>
   <path id="_123307800" class="fil1" d="M30.8036 21.9075l0.111615 -0.273974c0.0448961,-0.110238 -2.09897,-1.51725 -4.8902,-1.83667l-0.0602145 0.258084c0.981039,0.104411 3.34761,0.641829 4.8388,1.85256z"/>
   <path id="_123307728" class="fil4" d="M30.6389 19.7253c0,0 -0.572568,-0.620282 -2.52884,-1.13321 0,0 1.44335,-0.0596425 2.57656,0.333998 0,0 0.0119285,0.166999 0.0119285,0.262427 0,0.095428 -0.0834995,0.512925 -0.0596425,0.536782z"/>
   <path id="_123307656" class="fil1" d="M26.0941 18.6755c0,0 1.47913,-0.15507 3.18489,0.226641 0,0 -0.882709,-0.548711 -3.0537,-0.620282l-0.131213 0.39364 2.11874e-005 0z"/>
   <path id="_123307584" class="fil1" d="M30.9681 21.2791c0,0 -1.38451,-0.971272 -3.01992,-1.58825 0,0 1.61264,0.325777 3.18546,1.22597l-0.165516 0.362283 -2.11874e-005 0z"/>
   <polygon id="_123307512" class="fil1" points="25.6686,12.8028 30.0383,10.606 30.0961,10.8145 25.8437,13.0334 "/>
   <path id="_123307440" class="fil1" d="M29.4369 11.6342c0,0 -0.43699,-0.469618 -1.16153,-0.582823 0.319485,0.347007 0.678081,0.563563 1.16153,0.582823z"/>
   <path id="_123307368" class="fil1" d="M27.496 12.6954c0,0 0.24946,-0.559432 0.0783298,-1.23844 -0.185623,0.410378 -0.242002,0.806392 -0.0783298,1.23844z"/>
   <polygon id="_123307272" class="fil1" points="31.0922,14.0115 28.7183,14.596 31.128,14.3456 "/>
   <path id="_123307176" class="fil5" d="M9.7305 8.70874l3.44589 -4.7679c-2.34691,-0.103564 -3.69572,-0.00186449 -5.40393,1.75006 -2.42949,2.4917 -4.17633,6.25038 -4.61114,9.72944 -0.437519,3.50185 0.230667,6.5725 1.85144,9.74743 0,0 0.196788,0.579475 1.43689,0.436121 0,0 -0.360652,-0.638079 -0.336223,-0.693145 0.0244502,-0.0551296 0.62846,0.641109 0.62846,0.641109 0,0 0.763042,0.00277555 1.3861,-0.534812 0,0 0.00254249,-0.861966 0.0566127,-0.859996 0.0540702,0.00197043 0.227447,0.638206 0.227447,0.638206l0.814761 -0.215158c0.37222,-0.175008 0.48856,-0.202806 0.387475,-0.663822 -0.0771645,-0.352177 -0.206132,-0.946165 -0.489704,-1.94333 0.078245,-0.0922287 0.267639,0.340863 0.40631,0.578839 0,0 0.446058,-0.492543 0.426947,-0.66039 -0.0190051,-0.16791 -1.58109,-1.38229 -1.58109,-1.38229 -1.2623,-3.96064 -0.408535,-8.6917 1.35379,-11.8003l0 -2.11874e-005 -4.23748e-005 0z"/>
   <path id="_123307104" class="fil8" d="M9.16359 4.56942c-0.455423,0.264058 -0.908981,0.626956 -1.39114,1.12145 -2.42949,2.4917 -4.17633,6.25038 -4.61114,9.72944 -0.437519,3.50185 0.230667,6.5725 1.85144,9.74743 0,0 0.0167804,0.0489429 0.0708718,0.11492 0.358194,-0.0500022 0.720519,-0.131298 1.07583,-0.232171 -0.0326286,-0.0716981 -0.0523964,-0.12545 -0.0460402,-0.139773 0.00724609,-0.0163567 0.065575,0.0333489 0.143926,0.111446 0.690963,-0.20378 1.35093,-0.477839 1.89591,-0.734503 0.00779696,-0.078923 0.0179881,-0.131129 0.0313361,-0.130641 0.0120556,0.000444935 0.0283063,0.0371203 0.0462097,0.0938601 0.71804,-0.342748 1.22027,-0.646067 1.30294,-0.696726l-0.000720371 -0.00315692c-1.58804,0.545575 -4.26915,0.818617 -4.26915,0.818617 -3.61751,-7.44173 -1.1096,-15.3776 3.89977,-19.8002l0 2.11874e-005 -4.23748e-005 0z"/>
   <path id="_123307032" class="fil7" d="M4.15413 19.404l-0.2052 0.311878c0.098034,0.162656 0.19361,0.390928 0.101403,0.606616l-0.0424171 0.0992417c-0.0579263,0.135578 -0.255816,0.259461 -0.388598,0.202594 -0.0693887,-0.0296835 -0.122739,-0.0952797 -0.155558,-0.171194l-0.107611 0.163545c0.116467,0.553605 0.263719,1.10266 0.440846,1.64993l0.0106573 0.00701302c0.457859,-0.410315 1.14715,-0.64219 1.65387,-0.425464l0.14185 0.06049c0.613947,0.262575 0.692933,0.554495 0.591361,0.754228 -0.160961,0.316794 -0.803256,0.427011 -0.683802,0.0112929 0.399022,0.292619 0.529261,-0.159414 0.224459,-0.289737l-0.0140896 -0.00597484c-0.150091,-0.0642825 -0.366457,-0.00644096 -0.427307,0.135917l-0.0423324 0.0990722c-0.0577568,0.134794 0.123671,0.455465 0.223209,0.498052l0.127696 0.0545575c0.235265,0.100534 0.512608,-0.0110174 0.681068,-0.215116 0.102971,-0.124539 0.175686,-0.294166 0.229142,-0.443388 0.252765,-0.705201 -0.114539,-1.7226 -0.722532,-2.04638l-0.0341753 0.305437c0.13079,0.161681 0.228125,0.199585 0.309378,0.404743 0.0545999,0.137909 0.115429,0.328341 0.0358491,0.514324 -0.0122251,0.0286453 -0.0698124,0.0707659 -0.093055,0.0608502 -0.109666,-0.0469089 -0.197975,-0.153142 -0.297662,-0.209776 -0.0613587,-0.0347473 -0.356118,-0.144413 -0.32868,-0.209014l0.00612315 -0.0141744c0.0396204,-0.0924829 0.197869,-0.187974 0.269037,-0.354528l0.0241536 -0.0565703c0.211768,-0.495001 -0.182021,-1.15117 -0.689734,-1.36824l-0.184457 -0.0789018c-0.241642,-0.103373 -0.389572,-0.0631384 -0.590259,-0.0895591l0.217785 0.332727c0.150388,0.0500446 0.260351,0.0274588 0.427455,0.0989875l0.113458 0.0485615c0.27372,0.11706 0.506061,0.503582 0.391606,0.771051l-0.0423748 0.0993476c-0.0804273,0.187953 -0.442901,0.330375 -0.655877,0.239248l-0.0426502 -0.0182847c-0.0913812,-0.0390483 -0.122633,-0.144795 -0.0833088,-0.236705 0.0993265,-0.232023 0.524324,-0.245435 0.779611,-0.136193 0.0370144,-0.111319 0.00959788,-0.258465 -0.0408069,-0.336138 -0.220603,-0.0941991 -0.565195,-0.0906608 -0.678611,-0.139095 -0.104157,-0.0445359 -0.217404,-0.374974 -0.448918,-0.685264z"/>
   <path id="_123306960" class="fil6" d="M9.7305 8.70874l0.0860843 -0.119115c-0.0226493,-0.0127336 -0.0450444,-0.0268232 -0.0679056,-0.0380102 0,0 -3.75324,4.25879 -2.51704,10.4501 -0.455529,-0.00601722 -1.04918,0.0627358 -1.44284,0.0834571 -0.486928,0.0256367 -1.62831,0.583437 -2.51314,1.12151 0.124412,0.682975 0.295416,1.35803 0.511697,2.03032 1.2441,-0.957437 2.859,-1.39127 3.88473,-1.58128 0.400992,1.20391 0.997121,2.46664 1.84676,3.77426 0.134116,-0.0937754 0.162211,-0.209183 0.095428,-0.513773 -0.0771645,-0.352177 -0.206132,-0.946165 -0.489704,-1.94333 0.078245,-0.0922287 0.267639,0.340863 0.40631,0.578839 0,0 0.446058,-0.492543 0.426947,-0.66039 -0.0171406,-0.151447 -1.28953,-1.15418 -1.5388,-1.34932l-0.00364423 -0.0028603 -0.0386458 -0.0301073c-0.0189839,-0.0595789 -0.0374169,-0.11937 -0.0554474,-0.179309l-0.0040256 -0.0134328c-0.0166957,-0.0557016 -0.0329464,-0.111552 -0.0488157,-0.167529l-0.00762746 -0.0270775c-0.0142167,-0.0506167 -0.0280521,-0.10136 -0.041612,-0.152189l-0.0119285 -0.0450656c-0.0113353,-0.0431799 -0.0224163,-0.0864445 -0.0332854,-0.129773 -0.00646215,-0.025785 -0.0128396,-0.0516125 -0.0191322,-0.0774399 -0.00769102,-0.0315268 -0.0152125,-0.0631384 -0.0226493,-0.0947288 -0.0104454,-0.0443664 -0.0206153,-0.0888175 -0.0305946,-0.133332l-0.0065469 -0.0293869 -0.00444935 -0.0200645c-0.0105301,-0.0478835 -0.0207636,-0.0958517 -0.0307429,-0.143884l-0.00766983 -0.0371203 -0.00413154 -0.0201068 -2.11874e-005 0c-0.744037,-3.66599 0.105132,-7.74763 1.68247,-10.5299l-2.11874e-005 0z"/>
   <path id="_123306888" class="fil9" d="M4.7371 19.4284c-0.11884,0.05371 -0.241409,0.112018 -0.365673,0.173715l0.0631172 0.096445c0.150388,0.0500446 0.260351,0.0274588 0.427455,0.0989875l0.113458 0.0485615c0.27372,0.11706 0.506061,0.503582 0.391606,0.771051l-0.0423748 0.0993476c-0.0804273,0.187953 -0.442901,0.330375 -0.655877,0.239248l-0.0426502 -0.0182847c-0.0913812,-0.0390483 -0.122633,-0.144795 -0.0833088,-0.236705 0.0993265,-0.232023 0.524324,-0.245435 0.779611,-0.136193 0.0370144,-0.111319 0.00959788,-0.258465 -0.0408069,-0.336138 -0.220603,-0.0941991 -0.565195,-0.0906608 -0.678611,-0.139095 -0.0782662,-0.0334549 -0.161617,-0.228336 -0.296454,-0.454787 -0.103627,0.0521633 -0.208187,0.106488 -0.312472,0.162274 0.0782026,0.152909 0.133989,0.343829 0.0562101,0.525744l-0.0424171 0.0992417c-0.0579263,0.135578 -0.255816,0.259461 -0.388598,0.202594 -0.0693887,-0.0296835 -0.122739,-0.0952797 -0.155558,-0.171194l-0.107547 0.163461c0.00546635,0.0259545 0.0109751,0.0519303 0.0165685,0.0778848l0.00493666 0.0229247 0.000656809 0.00300861 0.000508497 0.0023518 0.0108903 0.0494514 0.00194924 0.00883514 0.00381373 0.0170558 0.00328404 0.0147252 0.00540278 0.0241112 0.00173737 0.0077334 0.00120768 0.00523328 0.00586891 0.025891 0.000169499 0.000656809 0.00578416 0.025213 0.0015043 0.00658928 0.00444935 0.0193229 0.00290267 0.0124582 0.0149159 0.0635198 0.00040256 0.00161024 0.00612315 0.0258698 0.00103818 0.00430104 0.00519091 0.0215052 0.00245774 0.0102123 0.00379254 0.0156575 0.0116531 0.0478411 0.000953432 0.00383492c0.0249164,0.101318 0.0508921,0.202509 0.0778848,0.303594l0.00158905 0.00601722 0.000932245 0.00345354c0.0364635,0.136277 0.0748127,0.272364 0.115005,0.408302l0.000762746 0.00262724c0.0373534,0.126298 0.0763593,0.252384 0.116891,0.37847 0.493136,-0.379487 1.04458,-0.676704 1.59444,-0.909087l2.11874e-005 -4.23748e-005 0.00612315 -0.0141744c0.0396204,-0.0924829 0.197869,-0.187974 0.269037,-0.354528l0.0241536 -0.0565703c0.211768,-0.495001 -0.182021,-1.15117 -0.689734,-1.36824l-0.184457 -0.0789018c-0.0242172,-0.0103606 -0.0474386,-0.0193017 -0.0699184,-0.0269927zm1.28739 1.6549c0.0962755,-0.0328828 0.191746,-0.0639223 0.286093,-0.0932033 -0.135981,-0.22982 -0.314336,-0.41915 -0.520341,-0.528858l-0.0341753 0.305437c0.109518,0.135387 0.195623,0.183949 0.268423,0.316624z"/>
   <path id="_123306816" class="fil5" d="M9.66507 21.8986c0,0 -0.256007,-0.529875 -0.910909,-0.86328 -0.654902,-0.333405 0.452478,0.875187 0.910909,0.86328z"/>
   <path id="_123306744" class="fil6" d="M4.94287 25.0289c0.0230731,0.0462944 0.0463156,0.0926312 0.0698972,0.138777 0,0 0.196788,0.579454 1.4368,0.4361 0,0 -0.360567,-0.638037 -0.336138,-0.693188 0.0244291,-0.0551508 0.628503,0.641279 0.628503,0.641279 0,0 0.763,0.00266961 1.38602,-0.534981 0,0 0.00254249,-0.862009 0.0566551,-0.860038 0.0540914,0.00197043 0.185813,0.703887 0.185813,0.703887 0.420231,-0.0559135 0.902752,-0.209119 1.18594,-0.460042 0.101339,-0.0897709 0.117993,-0.210899 0.0579475,-0.484598 -0.0257639,-0.11742 -0.0572059,-0.261813 -0.0982671,-0.438939 -2.35218,1.05668 -3.85568,1.42472 -4.57317,1.55174z"/>
   <path id="_123306672" class="fil6" d="M5.073 13.9322c0,0 0,0.787281 -1.06164,1.21671 0,0 0.703781,-0.023857 1.00199,-0.310141 0.298212,-0.286284 0.0596425,-0.906566 0.0596425,-0.906566z"/>
   <path id="_123306600" class="fil2" d="M3.21752 17.052c0,0 -0.0477352,1.94498 0.650177,4.62874 1.43034,-1.12734 3.39166,-1.49479 4.40068,-1.61289 -0.411162,-1.50255 -1.33207,-6.26452 1.62378,-11.4785l3.44589 -4.7679c-2.34691,-0.103564 -3.69572,-0.00186449 -5.40393,1.75006 -2.84453,2.91742 -4.75398,7.57178 -4.71659,11.4805l0 -2.11874e-005 0 -2.11874e-005 -2.11874e-005 -2.11874e-005z"/>
   <path id="_123306528" class="fil4" d="M3.0505 17.0997c0,0 -0.14293,2.0046 0.554961,4.68817 0.132781,-0.104644 0.532545,-0.310056 0.673314,-0.402009 -0.553414,-2.17546 -0.769738,-4.7482 -0.220031,-7.44328 0.563839,-2.76438 2.04407,-5.9369 4.80269,-9.18865 -0.302513,0.221345 -0.60865,0.490679 -0.927351,0.817536 -3.08332,2.77415 -4.92098,7.61945 -4.88359,11.5282l0 -2.11874e-005 0 2.11874e-005z"/>
   <path id="_123306456" class="fil3" d="M3.43901 21.1003c0.0469936,0.206196 0.0983942,0.417752 0.154689,0.634181 1.43038,-1.12744 3.66569,-1.54842 4.67468,-1.66651 -0.0490064,-0.179224 -0.105238,-0.404785 -0.1613,-0.671788 -2.36119,0.221938 -4.04859,1.19268 -4.66805,1.70412l-2.11874e-005 0z"/>
   <path id="_123306384" class="fil3" d="M8.26842 20.0678c-0.411162,-1.50259 -1.33216,-6.26462 1.62367,-11.4785l0.0717617 -0.0992841c-3.46554,3.53863 -3.45941,8.18767 -2.56126,11.7121 0.32957,-0.0636045 0.624774,-0.106064 0.865822,-0.134264l0 2.11874e-005 0 -4.23748e-005z"/>
   <path id="_123306312" class="fil1" d="M3.54558 21.9075l-0.111615 -0.273974c-0.0448961,-0.110238 2.09897,-1.51725 4.8902,-1.83667l0.0602145 0.258084c-0.981039,0.104411 -3.34761,0.641829 -4.8388,1.85256z"/>
   <path id="_123306240" class="fil4" d="M3.71038 19.7253c0,0 0.572568,-0.620282 2.52884,-1.13321 0,0 -1.44335,-0.0596425 -2.57656,0.333998 0,0 -0.0119285,0.166999 -0.0119285,0.262427 0,0.095428 0.0834995,0.512925 0.0596425,0.536782z"/>
   <path id="_123306168" class="fil1" d="M8.25511 18.6755c0,0 -1.47913,-0.15507 -3.18489,0.226641 0,0 0.882709,-0.548711 3.0537,-0.620282l0.131213 0.39364 -2.11874e-005 0z"/>
   <path id="_123306096" class="fil1" d="M3.38134 21.2791c0,0 1.38451,-0.971272 3.01992,-1.58825 0,0 -1.61264,0.325777 -3.18546,1.22597l0.165516 0.362283 2.11874e-005 0z"/>
   <polygon id="_123306024" class="fil4" points="3.60904,15.4787 6.88933,15.0374 3.74025,14.942 "/>
   <polygon id="_123305952" class="fil1" points="5.08071,8.56112 9.31209,10.6781 9.18378,10.8435 5.00319,8.83035 "/>
   <path id="_123305880" class="fil1" d="M8.16693 10.8066c0,0 0.111255,-0.610514 -0.220137,-1.23777 -0.0842199,0.448473 -0.0446418,0.851796 0.220137,1.23777z"/>
   <path id="_121761480" class="fil1" d="M6.22136 9.91591c0,0 0.578077,-0.13026 1.00551,-0.655813 -0.42557,0.0935211 -0.765225,0.278932 -1.00551,0.655813z"/>
   <polygon id="_121761384" class="fil1" points="3.09321,14.8629 8.01059,14.7939 7.97148,14.9999 3.15052,15.1377 "/>
   <path id="_121761312" class="fil1" d="M5.99154 15.5497c0,0 -0.073266,-0.618396 -0.59134,-1.13045 0.0513794,0.454936 0.212107,0.832177 0.59134,1.13045z"/>
   <path id="_121761240" class="fil1" d="M6.7596 15.5099c0,0 0.41237,-0.46661 0.44913,-1.19412 -0.305077,0.341392 -0.479343,0.712574 -0.44913,1.19412z"/>
   <path id="_121761168" class="fil1" d="M4.05016 15.5524c0,0 0.471059,-0.381775 0.613968,-1.04511 -0.347939,0.278974 -0.57261,0.599942 -0.613968,1.04511z"/>
   <polygon id="_121761096" class="fil3" points="18.0425,10.5165 17.613,12.6994 17.458,10.6 "/>
   <path id="_121761024" class="fil3" d="M9.49224 3.98694c1.12386,-1.05875 14.2915,-1.02888 15.4152,0.0295988 -0.293827,4.58321 -4.11853,6.77808 -7.68193,6.75659 -3.63071,-0.0218654 -6.88139,-2.34464 -7.73323,-6.78617l-2.11874e-005 0 2.11874e-005 -2.11874e-005 -2.11874e-005 0z"/>
   <path id="_121760952" class="fil1" d="M9.43264 3.95265c1.12386,-1.01216 14.4167,-0.983624 15.5402,0.0283063 -0.293827,4.38164 -4.18396,6.47999 -7.74736,6.45944 -3.63073,-0.0209119 -6.94105,-2.24154 -7.79291,-6.48777l2.11874e-005 2.11874e-005 2.11874e-005 0 2.11874e-005 0z"/>
   <path id="_121760880" class="fil2" d="M24.7589 4.32587c-0.613417,3.92744 -4.22074,5.81151 -7.53991,5.79206 -3.42492,-0.0200645 -6.5597,-2.06713 -7.54601,-5.98681 0.213823,-0.0901099 0.487077,-0.198505 1.18374,-0.169414 3.7664,-0.386882 14.0722,-0.727448 13.9022,0.364126l0 2.11874e-005 -2.11874e-005 0 2.11874e-005 2.11874e-005z"/>
   <path id="_121760808" class="fil3" d="M24.7231 4.19466c-0.574411,3.67775 -3.77413,5.5636 -6.90421,5.77255l0.00559347 -0.184881c6.10175,-0.953411 6.38403,-5.35553 6.30382,-5.51586l0.481187 -0.114836c0.0754906,0.018878 0.115069,0.0336244 0.113607,0.0430104l-2.11874e-005 0 2.11874e-005 2.11874e-005z"/>
   <path id="_121760736" class="fil3" d="M9.80851 4.09342c0.884489,3.86863 3.97655,5.68862 7.10665,5.89759l0.054049 -0.184881c-6.04211,-0.702913 -6.66394,-5.61156 -6.74445,-5.78971 -0.0712532,-0.0169923 -0.307493,0.0199585 -0.416184,0.0770161l-2.11874e-005 -2.11874e-005 -4.23748e-005 0z"/>
   <path id="_121760664" class="fil4" d="M10.7184 3.80557c0.138565,-0.130557 0.499895,-0.241176 1.01782,-0.332049 2.97121,-0.521252 11.0965,-0.392136 11.8913,0.356626 -0.244079,3.80737 -3.47558,5.63065 -6.43571,5.61281 -3.016,-0.0181788 -5.76583,-1.94774 -6.47344,-5.63735l2.11874e-005 -2.11874e-005 0 -2.11874e-005z"/>
   <path id="_121760520" class="fil10" d="M11.0405 4.95603c1.35502,-1.07301 3.68904,-1.62132 6.03673,-1.63923l0.191322 0c2.41494,0.0184118 4.81524,0.59812 6.15053,1.73281 -0.799866,2.86167 -3.61868,4.23758 -6.22733,4.22226 -2.66972,-0.0156575 -5.13057,-1.48846 -6.15129,-4.31583l4.23748e-005 0 0 -2.11874e-005z"/>
   <path id="_121760448" class="fil1" d="M10.7184 3.78794c0.138565,-0.126997 0.499895,-0.234608 1.01782,-0.323002 2.97121,-0.507056 11.0965,-0.381458 11.8913,0.346922 -0.244079,3.70372 -3.47558,5.47736 -6.43571,5.46001 -3.016,-0.0176915 -5.76583,-1.89472 -6.47344,-5.48391l2.11874e-005 -2.11874e-005z"/>
   <path id="_121760376" class="fil6" d="M23.299 3.52721c-0.267809,3.6534 -3.31496,5.40376 -6.10824,5.38649 -2.84347,-0.0175643 -5.43753,-1.86674 -6.13368,-5.40302 3.09385,-0.850419 9.30368,-0.853915 12.2419,0.0165262l-4.23748e-005 0 2.11874e-005 0z"/>
   <path id="_121760304" class="fil3" d="M23.5147 8.278c0,0 -1.06164,2.07556 -4.89068,2.76741 0,0 2.52884,-0.047714 3.48312,-0.656067 0.95428,-0.608353 1.40756,-2.11134 1.40756,-2.11134z"/>
   <path id="_121760232" class="fil3" d="M10.8345 8.278c0,0 1.06164,2.07556 4.89068,2.76741 0,0 -2.52884,-0.047714 -3.48312,-0.656067 -0.95428,-0.608353 -1.40756,-2.11134 -1.40756,-2.11134z"/>
   <g>
    <path id="_167008504" class="fil8" d="M19.8367 17.349c0.409022,0 0.740647,0.331625 0.740647,0.740669 0,0.409022 -0.331625,0.740647 -0.740647,0.740647 -0.409044,0 -0.740647,-0.331625 -0.740647,-0.740647 0,-0.409044 0.331604,-0.740669 0.740647,-0.740669zm-5.08965 -4.88808c0.409022,0 0.740626,0.331625 0.740626,0.740647 0,0.409044 -0.331604,0.740647 -0.740626,0.740647 -0.409044,0 -0.740669,-0.331604 -0.740669,-0.740647 0,-0.409022 0.331625,-0.740647 0.740669,-0.740647zm2.52954 -0.595768c1.74273,0 3.2137,1.16476 3.67745,2.758l-0.528498 0c-0.446143,-1.31076 -1.68745,-2.25406 -3.14895,-2.25406 -0.607802,0 -1.1774,0.163164 -1.66776,0.448007 -0.0689649,-0.158439 -0.176088,-0.29639 -0.309844,-0.402264 0.577293,-0.348893 1.25398,-0.549685 1.97761,-0.549685zm1.99034 7.10218c-0.580068,0.353681 -1.26143,0.557525 -1.99034,0.557525 -1.53401,0 -2.85731,-0.90254 -3.46865,-2.20529l0.566275 0c0.569496,1.01511 1.65584,1.70137 2.90237,1.70137 0.625473,0 1.21063,-0.17291 1.71039,-0.473326 0.0580322,0.162232 0.15507,0.305967 0.279949,0.419722zm-5.66794 -4.34418c0.0704481,-0.241833 0.164075,-0.473813 0.278317,-0.693315 0.113734,0.126446 0.257956,0.224883 0.421036,0.283847 -0.0656809,0.131764 -0.122887,0.268487 -0.170897,0.409467l-0.528456 0zm3.6776 -1.29663c0.341986,0 0.666979,0.0726304 0.960572,0.203123 -0.109624,0.097017 -0.190708,0.225519 -0.22912,0.371372 -0.225688,-0.0921863 -0.472627,-0.143057 -0.731452,-0.143057 -0.673208,0 -1.2662,0.343744 -1.61336,0.865187l-0.498963 0c0.391204,-0.769356 1.19024,-1.29663 2.11232,-1.29663zm-1.05507 3.99304c0.303573,0.197615 0.665919,0.312493 1.05507,0.312493 0.389149,0 0.751495,-0.114878 1.05507,-0.312493l0.668165 0c-0.431905,0.457965 -1.04422,0.74391 -1.72323,0.74391 -0.679034,0 -1.29135,-0.285945 -1.72325,-0.74391l0.668187 0zm2.5139 -3.6968c0.259694,0 0.470254,0.21056 0.470254,0.470254 0,0.259715 -0.21056,0.470275 -0.470254,0.470275 -0.259736,0 -0.470296,-0.21056 -0.470296,-0.470275 0,-0.259694 0.21056,-0.470254 0.470296,-0.470254z"/>
    <path id="_167010544" class="fil8" d="M13.4849 16.8494c-0.00887751,0 -0.0133057,-0.00444935 -0.0133057,-0.0133057l0.00531803 -1.82627c0,-0.00707659 0.00355948,-0.0106149 0.0106361,-0.0106149l0.510404 0c0.163016,0 0.291962,0.049642 0.386776,0.148863 0.0948135,0.0992417 0.14221,0.23393 0.14221,0.404065 0,0.125832 -0.0247892,0.23482 -0.0744313,0.326964 -0.0496209,0.0921651 -0.114306,0.163058 -0.194034,0.212679 -0.0797705,0.0496209 -0.166596,0.0744313 -0.26052,0.0744313l-0.202043 0 0 0.669882c0,0.00885633 -0.00442816,0.0133057 -0.0133057,0.0133057l-0.297704 0zm0.31101 -1.00483l0.202043 0c0.0566974,0 0.105873,-0.0270351 0.147528,-0.0810841 0.0416332,-0.054049 0.0624604,-0.124497 0.0624604,-0.211344 0,-0.0691344 -0.0186025,-0.125811 -0.0558288,-0.170135 -0.037205,-0.0443028 -0.0886056,-0.0664436 -0.154159,-0.0664436l-0.202043 0.00264842 0 0.526358zm0.925105 1.00483c-0.00885633,0 -0.0133057,-0.00444935 -0.0133057,-0.0133057l0.00266961 -1.82627c0,-0.00707659 0.00353829,-0.0106149 0.0106361,-0.0106149l0.297725 0c0.00707659,0 0.0106149,0.00353829 0.0106149,0.0106149l0.0026908 1.82627c0,0.00885633 -0.00355948,0.0133057 -0.0106361,0.0133057l-0.300395 0zm1.03672 0.026569c-0.0956822,0 -0.182974,-0.0243655 -0.261855,-0.0730965 -0.0788594,-0.048731 -0.142189,-0.113416 -0.190051,-0.194076 -0.0478623,-0.080618 -0.0717829,-0.169669 -0.0717829,-0.267131l0.00264842 -0.842707c0,-0.097462 0.0234968,-0.186046 0.0704692,-0.265817 0.0469512,-0.0797493 0.110323,-0.143545 0.190051,-0.191407 0.0797493,-0.0478411 0.166596,-0.0717617 0.26052,-0.0717617 0.0957034,0 0.182529,0.0239206 0.26052,0.0717617 0.0779908,0.0478623 0.14043,0.111658 0.187402,0.191407 0.0469512,0.0797705 0.0704481,0.168355 0.0704481,0.265817l0.00264842 0.842707c0,0.097462 -0.0234544,0.186513 -0.0704269,0.267131 -0.0469512,0.0806604 -0.109899,0.145345 -0.188758,0.194076 -0.0788594,0.048731 -0.16613,0.0730965 -0.261834,0.0730965zm0 -0.321646c0.0531803,0 0.0997078,-0.0216959 0.139561,-0.06513 0.0398747,-0.0434129 0.059812,-0.0925889 0.059812,-0.147528l-0.00266961 -0.842707c0,-0.0584772 -0.0186025,-0.108077 -0.0558076,-0.148863 -0.0372262,-0.0407645 -0.0841775,-0.0611256 -0.140896,-0.0611256 -0.0549389,0 -0.101911,0.0199373 -0.140896,0.059812 -0.0389848,0.0398747 -0.0584772,0.0899404 -0.0584772,0.150176l0 0.842707c0,0.0584772 0.0194924,0.108543 0.0584772,0.150176 0.0389848,0.0416756 0.0859572,0.0624816 0.140896,0.0624816zm0.746982 0.295077c-0.0141532,0 -0.0212721,-0.0062079 -0.0212721,-0.0186025l-0.00264842 -1.81031c0,-0.0141955 0.00707659,-0.0212721 0.0212721,-0.0212721l0.239248 0 0.449257 1.04738 -0.0133057 -1.0261c0,-0.0141955 0.00796646,-0.0212721 0.0239206,-0.0212721l0.26319 0c0.0106361,0 0.0159541,0.00707659 0.0159541,0.0212721l0.00264842 1.81296c0,0.0106149 -0.00442816,0.0159541 -0.0133057,0.0159541l-0.233909 0 -0.459893 -0.978264 0.0186237 0.956992c0,0.0141744 -0.00798764,0.0212721 -0.0239417,0.0212721l-0.265838 0zm1.22016 0c-0.00709777,0 -0.0106361,-0.00444935 -0.0106361,-0.0133057l0.00264842 -1.82627c0,-0.00707659 0.00353829,-0.0106149 0.0106573,-0.0106149l0.853301 0c0.00709777,0 0.0106573,0.00442816 0.0106573,0.0133057l0 0.297704c0,0.00709777 -0.00355948,0.0106573 -0.0106573,0.0106573l-0.544961 0 0 0.414679 0.544961 0c0.00709777,0 0.0106573,0.00355948 0.0106573,0.0106361l0.00264842 0.300395c0,0.00709777 -0.00353829,0.0106361 -0.0106361,0.0106361l-0.54763 0 0 0.46519 0.54763 0c0.00709777,0 0.0106361,0.00444935 0.0106361,0.0133057l0 0.303043c0,0.00709777 -0.00353829,0.0106361 -0.0106361,0.0106361l-0.85864 0zm1.11649 0c-0.00709777,0 -0.0106361,-0.00444935 -0.0106361,-0.0133057l0.00264842 -1.82627c0,-0.00707659 0.00353829,-0.0106149 0.0106573,-0.0106149l0.853301 0c0.00709777,0 0.0106573,0.00442816 0.0106573,0.0133057l0 0.297704c0,0.00709777 -0.00355948,0.0106573 -0.0106573,0.0106573l-0.544961 0 0 0.414679 0.544961 0c0.00709777,0 0.0106573,0.00355948 0.0106573,0.0106361l0.00264842 0.300395c0,0.00709777 -0.00353829,0.0106361 -0.0106361,0.0106361l-0.54763 0 0 0.46519 0.54763 0c0.00709777,0 0.0106361,0.00444935 0.0106361,0.0133057l0 0.303043c0,0.00709777 -0.00353829,0.0106361 -0.0106361,0.0106361l-0.85864 0zm1.11649 0c-0.00709777,0 -0.0106361,-0.00444935 -0.0106361,-0.0133057l0.00533922 -1.82627c0,-0.00707659 0.00353829,-0.0106149 0.0106149,-0.0106149l0.536973 0c0.0957246,0 0.183885,0.0234968 0.264503,0.0704481 0.0806392,0.0469724 0.144879,0.109878 0.192742,0.188737 0.0478411,0.0788594 0.0717617,0.167931 0.0717617,0.267173 0,0.0655538 -0.0097462,0.124497 -0.0292386,0.176766 -0.0194924,0.0522693 -0.0425231,0.0965933 -0.0691132,0.13293 -0.0265902,0.036294 -0.0505319,0.0633291 -0.0717829,0.0810629 0.0957034,0.106339 0.143545,0.231281 0.143545,0.374826l0.00266961 0.54494c0,0.00885633 -0.00442816,0.0133057 -0.0133057,0.0133057l-0.300395 0c-0.00707659,0 -0.0106149,-0.00264842 -0.0106149,-0.00798764l0 -0.550258c0,-0.0637952 -0.0226069,-0.1192 -0.0677784,-0.166151 -0.0452139,-0.0469724 -0.100577,-0.0704269 -0.166151,-0.0704269l-0.175453 0 -0.00266961 0.781518c0,0.00885633 -0.00353829,0.0133057 -0.0106149,0.0133057l-0.300395 0zm0.313679 -1.11384l0.228612 0c0.0549389,0 0.103691,-0.0203611 0.146214,-0.0611256 0.0425231,-0.0407857 0.0638164,-0.0903854 0.0638164,-0.148863 0,-0.0567186 -0.0208484,-0.105471 -0.0624816,-0.146214 -0.0416756,-0.0407645 -0.0908515,-0.0611468 -0.147549,-0.0611468l-0.228612 0 0 0.417349z"/>
   </g>
   <path id="_121760592" class="fil1" d="M17.1479 9.12089c0.09939,1.85705 0.174965,5.32161 0.298191,5.57118 0.162846,-0.0650453 0.135197,-3.73801 0.202806,-5.60699 -0.166999,0.0119285 -0.333998,0.023857 -0.500997,0.0357855l0 2.11874e-005z"/>
  </g>
 </g>
</svg>
