<?xml version="1.0" encoding="UTF-8"?>
<!DOCTYPE svg PUBLIC "-//W3C//DTD SVG 1.1//EN" "http://www.w3.org/Graphics/SVG/1.1/DTD/svg11.dtd">
<!-- Creator: CorelDRAW -->
<svg xmlns="http://www.w3.org/2000/svg" xml:space="preserve" width="161.909mm" height="176.792mm" style="shape-rendering:geometricPrecision; text-rendering:geometricPrecision; image-rendering:optimizeQuality; fill-rule:evenodd; clip-rule:evenodd"
viewBox="0 0 62.0327 67.7351"
 xmlns:xlink="http://www.w3.org/1999/xlink">
 <defs>
  <style type="text/css">
   <![CDATA[
    .fil0 {fill:none}
    .fil6 {fill:#359199}
    .fil5 {fill:#47BAB6}
    .fil1 {fill:#501D33}
    .fil7 {fill:#79E4C5}
    .fil9 {fill:#C8B99F}
    .fil8 {fill:#C9C7D2}
    .fil4 {fill:#D77D75}
    .fil2 {fill:#FFCFA5}
    .fil3 {fill:white}
   ]]>
  </style>
 </defs>
 <g id="Слой_x0020_1">
  <metadata id="CorelCorpID_0Corel-Layer"/>
  <g id="_88564144">
   <rect id="_119545328" class="fil0" width="62.0328" height="67.7351"/>
   <path id="_119679368" class="fil1" d="M14.337 29.3998l1.83065 -0.311756 -0.0793088 -0.356545 -1.81974 0.157353c0,0 -0.0673933,0.248118 0.0683895,0.510948zm-6.78397 4.95998c0.0279688,0.11153 -0.039731,0.224747 -0.151261,0.25283 -0.111454,0.0280071 -0.224747,-0.0396927 -0.252754,-0.151223 -0.0280837,-0.111454 0.0396927,-0.224747 0.151185,-0.252754 0.111492,-0.0280837 0.224785,0.0396927 0.25283,0.151147zm-1.30059 -6.13161l-1.83065 -0.311795 0.0793088 -0.356545 1.81974 0.157353c0,0 0.067355,0.248118 -0.0683895,0.510986zm-0.608034 2.95634l-1.23867 0.0829869 -0.00409954 -0.244172 1.20752 -0.181682c0,0 0.0825271,0.150802 0.0352484,0.342867zm0.342369 3.18829l-1.40503 0.420911 -0.0688492 -0.280186 1.34319 -0.526388c0,0 0.134633,0.151989 0.130687,0.385663zm0.393134 -3.96908l-2.08142 -0.210264 0.0618379 -0.40685 2.05735 0.0375855c0,0 0.0947491,0.273673 -0.037777,0.579529zm7.82958 1.17174l2.08142 -0.210264 -0.0618379 -0.40685 -2.05735 0.0375089c0,0 -0.0947491,0.27375 0.037777,0.579606zm0.492098 0.933469l1.46629 0.0354016 -0.00750943 -0.288424 -1.43446 -0.153407c0,0 -0.0898067,0.182142 -0.024329,0.406429z"/>
   <path id="_119679440" class="fil1" d="M17.1546 7.05212c-6.36562,2.85631 -11.5835,13.8979 -12.0484,19.7138 -0.532787,6.66286 -0.450221,10.7176 3.43603,18.8576 0,0 0.845156,1.73545 3.73334,1.0327 1.30235,0.110343 2.59401,-0.343059 3.21235,-1.22986 0.0150189,-0.0215705 1.62483,-0.251413 2.39946,-1.00546 0.351373,-0.342062 0.574587,-0.646194 0.448306,-1.26856 -0.165361,-0.81485 -0.409494,-1.81261 -0.409494,-1.81261 0,0 1.43641,-1.43193 1.2012,-2.04111 -0.235206,-0.609184 -3.17247,-3.15473 -3.17733,-3.17913 -2.01552,-9.24197 -0.0390797,-17.1257 5.24105,-23.4938l4.24222 -5.61713c-2.13115,-0.629222 -6.01854,-0.970594 -8.27861,0.0435241l-3.83134e-005 3.83134e-005 -3.83134e-005 3.83134e-005z"/>
   <path id="_119679512" class="fil2" d="M17.795 15.7312l6.20076 -8.57968c-4.22321,-0.186357 -6.65033,-0.00333327 -9.72418,3.14917 -4.37175,4.48374 -7.51514,11.2473 -8.29758,17.5078 -0.787303,6.30149 0.415049,11.8269 3.33158,17.5402 0,0 0.354093,1.04274 2.58562,0.784774 0,0 -0.648991,-1.14822 -0.605007,-1.24729 0.0439838,-0.0991935 1.13086,1.15366 1.13086,1.15366 0,0 1.37308,0.00498075 2.49424,-0.962395 0,0 0.00459761,-1.55104 0.101875,-1.54752 0.0973161,0.00356315 0.409302,1.14845 0.409302,1.14845l1.4661 -0.387196c0.669796,-0.314898 0.879178,-0.364935 0.697266,-1.1945 -0.138848,-0.633743 -0.370912,-1.70261 -0.881209,-3.49694 0.140802,-0.165974 0.4816,0.61336 0.731135,1.04159 0,0 0.802667,-0.886305 0.768299,-1.18837 -0.0342139,-0.30214 -2.84512,-2.48735 -2.84512,-2.48735 -2.27149,-7.12707 -0.735158,-15.6403 2.43608,-21.2343l0 -7.66269e-005 0 7.66269e-005 -3.83134e-005 -3.83134e-005z"/>
   <path id="_119679584" class="fil3" d="M16.7749 8.2826c-0.819524,0.475163 -1.63568,1.12818 -2.50332,2.01801 -4.37175,4.48374 -7.51514,11.2473 -8.29758,17.5078 -0.787303,6.30149 0.415049,11.8269 3.33158,17.5402 0,0 0.030191,0.0880443 0.127545,0.206778 0.644547,-0.0899599 1.29653,-0.236279 1.9359,-0.41777 -0.0586962,-0.12904 -0.0942894,-0.225743 -0.0828337,-0.251528 0.0130266,-0.0294247 0.118005,0.0599988 0.258961,0.200533 1.24339,-0.366698 2.43095,-0.85983 3.41162,-1.3217 0.014061,-0.142028 0.0323749,-0.235972 0.0563974,-0.235091 0.0216854,0.000804582 0.0509569,0.0668186 0.0831785,0.168886 1.29208,-0.616731 2.19582,-1.16254 2.34459,-1.25373l-0.00130266 -0.00567039c-2.85761,0.981744 -7.68223,1.47308 -7.68223,1.47308 -6.50957,-13.3912 -1.9967,-27.6716 7.01749,-35.6297l0 -3.83134e-005 0 -3.83134e-005z"/>
   <path id="_119542160" class="fil4" d="M9.60591 16.7481c-0.887952,1.64307 -1.64414,3.37522 -2.24356,5.13599 1.38101,0.149001 4.7093,0.69037 7.3794,2.57313 0.445279,-2.49405 1.19074,-4.86945 2.15046,-6.95726 -0.210379,-0.100918 -0.42934,-0.172181 -0.655121,-0.204824 -1.26607,-0.183062 -4.52355,-0.496006 -6.63117,-0.547039z"/>
   <path id="_88446104" class="fil4" d="M17.795 15.7312l0.154901 -0.214364c-0.0407655,-0.0229114 -0.0810329,-0.0482749 -0.122182,-0.0683895 0,0 -10.9264,12.393 -0.413632,28.5726 0.241336,-0.168732 0.29191,-0.37643 0.171721,-0.924503 -0.138848,-0.633743 -0.370912,-1.70261 -0.881209,-3.49694 0.140802,-0.165974 0.4816,0.61336 0.731135,1.04159 0,0 0.802667,-0.886305 0.768299,-1.18837 -0.0342139,-0.30214 -2.84512,-2.48735 -2.84512,-2.48735 -2.27149,-7.12707 -0.735158,-15.6403 2.43608,-21.2343l0 7.66269e-005 0 3.83134e-005z"/>
   <path id="_119679704" class="fil1" d="M7.63633 23.7371c-2.84642,-0.321258 -3.58066,2.81749 -1.06933,3.86793l1.06933 -3.86793z"/>
   <path id="_119679776" class="fil2" d="M6.56754 27.6214c-0.928258,-1.44664 -0.951974,-3.04557 1.06822,-3.9069 0,0 0.574855,2.83715 -1.06822,3.9069z"/>
   <path id="_119679680" class="fil3" d="M6.66397 27.7408c-1.12392,-1.43231 -1.13664,-3.20124 1.04508,-4.06847 -0.867071,0.579836 -1.5825,2.4188 -1.00634,3.95023l-0.0387349 0.118235z"/>
   <path id="_119679872" class="fil3" d="M7.52323 24.2726c0.248309,0.154403 0.245627,0.607728 -0.00593858,1.01224 -0.251604,0.404552 -0.656999,0.607383 -0.905308,0.45298 -0.248271,-0.154403 -0.245627,-0.607728 0.0059769,-1.01228 0.251604,-0.404513 0.656999,-0.607345 0.90527,-0.452941z"/>
   <path id="_119679944" class="fil2" d="M17.6773 39.4658c0,0 -0.460681,-0.953507 -1.63913,-1.55346 -1.17848,-0.59995 0.814199,1.57487 1.63913,1.55346z"/>
   <path id="_119680016" class="fil4" d="M9.17978 45.0987c0.0415318,0.0832934 0.0833317,0.166663 0.125783,0.249727 0,0 0.354093,1.0427 2.58547,0.784736 0,0 -0.648838,-1.14814 -0.604854,-1.24737 0.0439455,-0.0992318 1.13094,1.15396 1.13094,1.15396 0,0 1.373,0.00478918 2.49409,-0.962702 0,0 0.00459761,-1.55112 0.101952,-1.54759 0.0973544,0.00356315 0.334361,1.26664 0.334361,1.26664 0.756192,-0.100649 1.62449,-0.376315 2.13406,-0.827838 0.182372,-0.161529 0.212333,-0.379495 0.104289,-0.872014 -0.0463593,-0.211299 -0.102948,-0.47114 -0.176817,-0.78987 -4.23268,1.90146 -6.93822,2.56374 -8.22923,2.79232l-3.83134e-005 0z"/>
   <path id="_119680088" class="fil4" d="M9.41399 25.1304c0,0 0,1.41668 -1.91038,2.18942 0,0 1.26645,-0.042911 1.80307,-0.558074 0.536618,-0.515162 0.107316,-1.63135 0.107316,-1.63135z"/>
   <path id="_119684744" class="fil1" d="M19.7015 34.8811c-1.11894,-6.86113 -1.79353,-18.4266 -2.47624,-23.7776 1.2099,-4.98182 10.7264,-3.45419 13.9682,-2.78033 3.24181,-0.673857 12.7583,-2.20149 13.9682,2.78033 -0.682669,5.35108 -1.3789,16.8951 -2.49784,23.7562 -6.08889,2.31555 -16.8734,2.33697 -22.9625,0.0214555l3.83134e-005 0 0.00011494 0 0 -3.83134e-005z"/>
   <path id="_119684648" class="fil1" d="M48.2122 29.808l-1.83065 -0.311756 0.0793088 -0.356583 1.81977 0.157353c0,0 0.067355,0.248118 -0.0684278,0.510986zm6.78397 4.95994c-0.0279688,0.11153 0.039731,0.224747 0.151261,0.252792 0.111492,0.0280454 0.224747,-0.0396544 0.252792,-0.151185 0.0280454,-0.111492 -0.0396927,-0.224747 -0.151223,-0.252792 -0.111492,-0.0280454 -0.224747,0.0396927 -0.25283,0.151185zm1.30059 -6.13161l1.83065 -0.311795 -0.0792705 -0.356545 -1.81977 0.157353c0,0 -0.067355,0.248118 0.0683895,0.510986zm0.608034 2.95634l1.23867 0.0829869 0.00409954 -0.24421 -1.20752 -0.181644c0,0 -0.0825271,0.150763 -0.0352484,0.342867zm-0.342369 3.18829l1.40503 0.420911 0.0688492 -0.280186 -1.34315 -0.52635c0,0 -0.134672,0.151951 -0.130725,0.385625zm-0.393134 -3.96904l2.08142 -0.210264 -0.0618379 -0.40685 -2.05735 0.0375472c0,0 -0.0947491,0.273711 0.037777,0.579567zm-7.82958 1.17166l-2.08142 -0.210264 0.0618379 -0.406812 2.05735 0.0375089c0,0 0.0947491,0.27375 -0.037777,0.579567zm-0.492098 0.933507l-1.46629 0.0354016 0.00750943 -0.288424 1.43446 -0.153445c0,0 0.089845,0.182142 0.024329,0.406467z"/>
   <path id="_119684816" class="fil1" d="M45.2442 7.03094c6.36562,2.85631 11.5835,13.8979 12.0485,19.7138 0.532748,6.66282 0.385816,10.7821 -3.50043,18.922 0,0 -0.877301,1.63897 -3.76548,0.936265 -1.34522,0.126358 -2.54045,-0.402023 -3.15879,-1.20844 -0.0159767,-0.0208808 -1.58185,-0.2408 -2.35651,-0.994885 -0.351373,-0.342062 -0.574587,-0.646194 -0.448267,-1.26856 0.165361,-0.814812 0.409456,-1.81257 0.409456,-1.81257 0,0 -1.43637,-1.43193 -1.20116,-2.04111 0.235168,-0.609184 3.17243,-3.15473 3.17733,-3.17913 2.01552,-9.24197 0.0390797,-17.1257 -5.24109,-23.4938l-4.24218 -5.61713c2.13111,-0.629222 6.0185,-0.970594 8.27858,0.0435241l3.83134e-005 3.83134e-005z"/>
   <path id="_119684888" class="fil2" d="M44.6039 15.71l-6.20076 -8.57968c4.22318,-0.186357 6.65033,-0.00337158 9.72418,3.14917 4.37179,4.48374 7.51514,11.2473 8.29762,17.5078 0.787303,6.30149 -0.415088,11.8269 -3.33158,17.5402 0,0 -0.354131,1.04274 -2.58562,0.784812 0,0 0.648953,-1.14822 0.605007,-1.24729 -0.0439838,-0.0992318 -1.1309,1.15366 -1.1309,1.15366 0,0 -1.37308,0.00498075 -2.49424,-0.962395 0,0 -0.0045593,-1.55108 -0.101875,-1.54752 -0.0972778,0.00352484 -0.409264,1.14841 -0.409264,1.14841l-1.46614 -0.387157c-0.669796,-0.314898 -0.87914,-0.364935 -0.697228,-1.19454 0.138848,-0.633704 0.370912,-1.70257 0.881209,-3.49694 -0.140802,-0.165935 -0.481638,0.613398 -0.731174,1.04163 0,0 -0.802667,-0.886343 -0.768261,-1.18837 0.0342139,-0.30214 2.84512,-2.48735 2.84512,-2.48735 2.27145,-7.12707 0.73512,-15.6404 -2.43608,-21.2343l0 -7.66269e-005z"/>
   <path id="_119544248" class="fil4" d="M52.2672 15.7911c1.10331,1.89035 2.03069,3.92015 2.74159,5.99088 -3.74483,0.580947 -7.00393,2.26226 -7.00393,2.26226 0,0 -0.197161,-0.169269 -0.511025,-0.453861 -0.563131,-2.70899 -1.47668,-5.25166 -2.62757,-7.40315 0.197276,-0.0762054 0.418306,-0.174479 0.666807,-0.310645 1.40181,-0.768108 3.95303,-0.301067 6.73412,-0.0854773z"/>
   <path id="_119684432" class="fil4" d="M44.6039 15.71l-0.15494 -0.214325c0.0407655,-0.0229114 0.0810712,-0.0482749 0.12222,-0.0683895 0,0 10.9264,12.393 0.413632,28.5726 -0.241336,-0.168771 -0.29191,-0.37643 -0.171721,-0.924542 0.138848,-0.633704 0.370912,-1.70257 0.881209,-3.49694 -0.140802,-0.165935 -0.481638,0.613398 -0.731174,1.04163 0,0 -0.802667,-0.886343 -0.768261,-1.18837 0.0342139,-0.30214 2.84512,-2.48735 2.84512,-2.48735 2.27145,-7.12707 0.73512,-15.6404 -2.43608,-21.2343l0 3.83134e-005 0 3.83134e-005z"/>
   <path id="_119684504" class="fil5" d="M47.2363 22.7857c-0.57497,-2.30616 -1.49982,-4.76887 -2.92937,-7.29051l-6.20076 -8.57968c4.22321,-0.186357 6.65033,-0.00333327 9.72418,3.14917 2.73956,2.80972 4.99684,6.51497 6.49328,10.4304 -2.45482,0.576004 -5.14806,1.53694 -7.08733,2.29065l0 -3.83134e-005z"/>
   <path id="_119684576" class="fil6" d="M47.236 22.7857c-0.57497,-2.3062 -1.49963,-4.76887 -2.92918,-7.29051l-0.129155 -0.178656c2.10513,2.14954 3.4974,4.527 4.35739,6.97722 -0.459761,0.16946 -0.895615,0.335128 -1.29906,0.491945z"/>
   <path id="_135238464" class="fil5" d="M20.536 34.4925c-1.10864,-7.25258 -1.92429,-15.3691 -2.38543,-22.5969 0.945154,-3.89173 6.98833,-5.85747 13.0351,-5.86816l0 -0.00011494 0.00793088 3.83134e-005 0.00793088 -3.83134e-005 0 0.00011494c6.0467,0.0106894 12.0898,1.97644 13.0351,5.86816 -0.461141,7.22779 -1.27676,15.3443 -2.38543,22.5969 -5.90008,1.86062 -15.415,1.86069 -21.3151,3.83134e-005l0 -3.83134e-005 -7.66269e-005 0z"/>
   <polygon id="_119683208" class="fil7" points="26.1595,29.8437 21.0465,27.5046 36.3642,29.588 "/>
   <polygon id="_124547344" class="fil7" points="35.1184,24.217 40.0598,24.5176 42.2509,22.756 "/>
   <path id="_135244848" class="fil6" d="M20.5358 34.4925c-0.896803,-5.86644 -1.60162,-12.2982 -2.08234,-18.3675 0.0583514,-0.271872 0.110534,-0.431256 0.154748,-0.448152l2.70696 18.2613c0.129384,-0.308461 7.66196,2.47543 19.6248,-0.120304l3.05159 -18.688c0,0 -0.000459761,0.425088 -0.0412253,0.783165 -0.481025,6.13141 -1.19189,12.6447 -2.09908,18.5794 -5.90015,1.86065 -15.4151,1.86073 -21.3153,3.83134e-005l-7.66269e-005 3.83134e-005 -7.66269e-005 0z"/>
   <polygon id="_119545832" class="fil6" points="19.5563,23.2701 40.3598,29.2012 20.0292,26.8804 "/>
   <path id="_119545904" class="fil1" d="M42.176 32.851c0,0 -1.89383,1.09469 -3.4648,1.41668 0,0 1.46338,-0.042911 3.65847,-0.622478l0.279765 -0.601023 -0.473439 -0.193176z"/>
   <path id="_119545976" class="fil1" d="M20.3068 33.0441c0,0 1.89383,1.09473 3.46484,1.41668 0,0 -1.46342,-0.042911 -3.65851,-0.622478l-0.279803 -0.601023 0.473477 -0.193176z"/>
   <path id="_119546048" class="fil5" d="M15.1627 22.8069c0.574931,-2.30616 1.49978,-4.76884 2.92937,-7.29051l6.20076 -8.57968c-4.22321,-0.186357 -6.65033,-0.00337158 -9.72418,3.14913 -2.73953,2.80975 -4.9968,6.51497 -6.49325,10.4304 2.45482,0.576043 5.14806,1.53694 7.08733,2.29065l-3.83134e-005 0z"/>
   <path id="_119546120" class="fil7" d="M9.12105 20.0982c1.4576,-3.59778 3.80809,-7.58384 7.11634,-11.4835 -3.48449,2.54957 -6.49325,7.36108 -8.21835,11.2609 0.185897,0.615314 1.12346,0.130496 1.12346,0.130496 0.0138312,-0.0194249 -0.0360529,0.111262 -0.0214555,0.0921821z"/>
   <path id="_119546192" class="fil6" d="M15.163 22.8069c0.574931,-2.3062 1.49959,-4.76884 2.92918,-7.29051l0.129116 -0.178656c-2.10509,2.14954 -3.4974,4.527 -4.35735,6.97726 0.459761,0.169422 0.895615,0.335128 1.29906,0.491906z"/>
   <path id="_119546288" class="fil6" d="M43.5155 19.0994c0,0 -6.56834,3.71296 -6.33221,3.79882 0.236126,0.0858604 6.0531,-1.30936 6.0531,-1.30936l0.279113 -2.48945z"/>
   <path id="_130621488" class="fil3" d="M45.624 8.26133c0.819448,0.475125 1.63568,1.12814 2.50332,2.01797 2.62619,2.69347 4.80868,6.20957 6.30279,9.94513 -0.611329,-1.52832 -1.33794,-3.01987 -2.16299,-4.43344 -0.19172,-0.0148656 -0.382368,-0.0310339 -0.57156,-0.0477769 -1.63104,-2.84539 -3.69472,-5.38354 -6.07157,-7.48192l0 0 0 3.83134e-005zm8.8183 11.9936c0.109921,0.275627 0.216088,0.55248 0.318423,0.830214 -0.102335,-0.277772 -0.208463,-0.554549 -0.318423,-0.830214zm0.335051 0.8755c0.0288883,0.0788107 0.0575468,0.157698 0.0858221,0.236624 -0.0282753,-0.078964 -0.0569338,-0.157813 -0.0858221,-0.236624zm0.117086 0.324323c0.0246739,0.0694623 0.0490795,0.138925 0.0732553,0.208502 -0.0241758,-0.0695389 -0.0485814,-0.139039 -0.0732553,-0.208502zm0.105745 0.302331c0.688991,2.00123 1.17611,4.04099 1.42465,6.02992 0.787379,6.30156 -0.415011,11.8268 -3.33158,17.5403 0,0 -0.0301527,0.0880826 -0.127545,0.206778 -0.644509,-0.0899216 -1.29645,-0.236317 -1.93586,-0.417846 0.0586962,-0.128963 0.094366,-0.225704 0.082872,-0.251489 -0.0129499,-0.0295397 -0.118044,0.0599988 -0.258999,0.200571 -1.24331,-0.366698 -2.43095,-0.859907 -3.41154,-1.3217 -0.0140227,-0.14199 -0.0324515,-0.235972 -0.0564357,-0.235168 -0.0218003,0.000881209 -0.0509952,0.0668569 -0.0831785,0.168886 -1.29208,-0.616655 -2.19578,-1.16251 -2.34459,-1.25365l0.00122603 -0.00563208c2.85768,0.981782 7.68227,1.47308 7.68227,1.47308 3.6333,-7.47426 3.83165,-15.2251 1.73131,-21.9995 0.210073,-0.0398077 0.422214,-0.0766269 0.635965,-0.109768l-0.0085439 -0.0247888 0 3.83134e-005z"/>
   <path id="_119546432" class="fil1" d="M54.7627 23.7159c2.84646,-0.321258 3.5807,2.81749 1.06933,3.86793l-1.06933 -3.86793z"/>
   <path id="_119546504" class="fil2" d="M55.8315 27.6002c0.928296,-1.44664 0.952012,-3.04557 -1.06822,-3.9069 0,0 -0.574816,2.83711 1.06822,3.9069z"/>
   <path id="_119546576" class="fil3" d="M55.7349 27.7195c1.12389,-1.43231 1.13664,-3.20124 -1.04508,-4.06847 0.867033,0.579836 1.5825,2.4188 1.00634,3.95023l0.0387349 0.118235z"/>
   <path id="_119546648" class="fil3" d="M54.8756 24.2513c-0.248309,0.154403 -0.245666,0.607728 0.00590027,1.01224 0.251643,0.404552 0.657037,0.607383 0.905347,0.45298 0.248271,-0.154403 0.245589,-0.607728 -0.0059769,-1.01228 -0.251604,-0.404513 -0.656999,-0.607345 -0.90527,-0.452941z"/>
   <path id="_119546720" class="fil2" d="M44.7215 39.4447c0,0 0.460681,-0.953507 1.63916,-1.55346 1.17848,-0.59995 -0.814237,1.57487 -1.63916,1.55346z"/>
   <path id="_119546792" class="fil4" d="M53.2192 45.0777c-0.0415318,0.0833317 -0.08337,0.166702 -0.125783,0.249727 0,0 -0.354131,1.0427 -2.58547,0.784774 0,0 0.6488,-1.14814 0.604854,-1.24737 -0.0439455,-0.0992701 -1.13097,1.15396 -1.13097,1.15396 0,0 -1.373,0.00478918 -2.49409,-0.962702 0,0 -0.0045593,-1.55116 -0.101952,-1.54759 -0.0973161,0.00352484 -0.334361,1.2666 -0.334361,1.2666 -0.756192,-0.100611 -1.62445,-0.376276 -2.13406,-0.8278 -0.182334,-0.161568 -0.212295,-0.379533 -0.104251,-0.872052 0.0463593,-0.21126 0.10291,-0.471102 0.176817,-0.789832 4.23268,1.90146 6.93818,2.56374 8.22923,2.79228l3.83134e-005 0z"/>
   <path id="_119546864" class="fil4" d="M52.9851 25.1093c0,0 0,1.41668 1.91035,2.18942 0,0 -1.26641,-0.0429494 -1.80303,-0.558112 -0.536618,-0.515124 -0.107316,-1.63131 -0.107316,-1.63131z"/>
   <path id="_119546936" class="fil1" d="M54.3313 29.3465c0.140036,0.102259 0.17061,0.298577 0.0684278,0.438536 -0.102297,0.139959 -0.298577,0.170533 -0.438612,0.0683129 -0.139921,-0.102182 -0.170495,-0.298538 -0.0682745,-0.438497 0.10222,-0.139959 0.298577,-0.170533 0.438459,-0.0683512zm-2.50804 3.52572c-0.0381602,0.108465 0.0188119,0.227467 0.127239,0.265665 0.108427,0.0381602 0.227467,-0.0187736 0.265627,-0.127277 0.0382368,-0.108427 -0.0187736,-0.227429 -0.127239,-0.265627 -0.108427,-0.0382368 -0.227467,0.0188119 -0.265627,0.127239zm1.99965 -0.522519c-0.0254784,0.0723741 0.0124902,0.151645 0.0848259,0.177123 0.0723358,0.0254401 0.151645,-0.0125285 0.177085,-0.0848643 0.0255167,-0.0722975 -0.0124902,-0.151606 -0.0848259,-0.177123 -0.0722975,-0.0254401 -0.151606,0.0126051 -0.177085,0.0848643zm-0.381219 3.00121c-0.0254784,0.0723358 0.0124519,0.151645 0.0847876,0.177046 0.0723358,0.0255551 0.151645,-0.0124902 0.177085,-0.0847876 0.0255167,-0.0723741 -0.0124902,-0.151606 -0.0848259,-0.177085 -0.0722975,-0.0254784 -0.151606,0.0124902 -0.177046,0.0848259zm0.944158 -0.96297c-0.0318385,0.0903431 0.0156702,0.189537 0.105975,0.221375 0.0903814,0.0318385 0.189652,-0.0157468 0.221452,-0.10609 0.0318385,-0.0903431 -0.0157851,-0.189498 -0.106128,-0.221337 -0.0903048,-0.0318002 -0.189498,0.0157085 -0.221298,0.106052zm-3.23599 1.30189c-0.0445968,0.126588 0.021877,0.265321 0.148426,0.309917 0.126626,0.0445968 0.265359,-0.021877 0.309956,-0.148503 0.0446352,-0.126549 -0.0219536,-0.265282 -0.148541,-0.309879 -0.126511,-0.0446352 -0.265282,0.021877 -0.309841,0.148465zm0.890404 -8.43643c0.119921,0.0875462 0.146127,0.255934 0.0585429,0.375817 -0.0875079,0.119959 -0.255972,0.146204 -0.375817,0.0585812 -0.119921,-0.0875462 -0.146166,-0.255934 -0.0586196,-0.375817 0.0876228,-0.119959 0.255972,-0.146166 0.375893,-0.0585812zm-2.51118 0.904542c0.0799218,0.058428 0.0974311,0.170648 0.0390414,0.25057 -0.0583897,0.0799601 -0.17061,0.0974694 -0.250608,0.0390797 -0.0799601,-0.0583897 -0.0974311,-0.170648 -0.0390797,-0.250608 0.0584663,-0.0799218 0.170648,-0.0974311 0.250647,-0.0390414zm2.7819 2.5857c0.0799601,0.0583897 0.0974311,0.170648 0.0390031,0.250532 -0.0583514,0.0799985 -0.170571,0.0975077 -0.25057,0.0390414 -0.0799601,-0.0583897 -0.0974694,-0.170571 -0.0390414,-0.25057 0.058428,-0.0799218 0.170648,-0.0974311 0.250608,-0.0390031zm-2.85903 2.387c0.119883,0.0875845 0.146089,0.255972 0.0585429,0.375893 -0.0875845,0.119844 -0.25601,0.146089 -0.375855,0.0585429 -0.119921,-0.0875845 -0.146127,-0.255972 -0.0586196,-0.375855 0.0875845,-0.119883 0.25601,-0.146127 0.375931,-0.0585812zm0.966763 -2.39095c0.0998831,0.0729488 0.121798,0.213291 0.0488496,0.313212 -0.0729488,0.0998831 -0.213406,0.12176 -0.313289,0.0488113 -0.0998448,-0.0729871 -0.121645,-0.213406 -0.0487347,-0.313251 0.0729871,-0.0998448 0.213253,-0.121798 0.313174,-0.048773zm5.00684 -2.79385c0.0710714,0.0518381 0.0865884,0.151491 0.034712,0.222524 -0.0518764,0.0710331 -0.15153,0.0865501 -0.222563,0.0346737 -0.0710331,-0.0518764 -0.0865501,-0.151491 -0.0346353,-0.222563 0.0518381,-0.0710331 0.151491,-0.0865501 0.222486,-0.0346353z"/>
   <path id="_119547008" class="fil7" d="M53.2564 20.1835c-1.45763,-3.59778 -3.78663,-7.69031 -7.09488,-11.59 3.23944,2.3703 5.67958,5.88226 7.39285,9.49805 0.129576,0.273405 0.639336,1.43357 0.749947,1.84652 -0.117699,0.389609 -0.802322,0.566924 -1.04791,0.245436z"/>
   <path id="_119547224" class="fil1" d="M8.76182 28.5656c-0.148848,0.0889638 -0.197391,0.281604 -0.108542,0.430375 0.0889255,0.148809 0.281604,0.197353 0.430413,0.108465 0.148733,-0.0888872 0.197314,-0.281565 0.108389,-0.430375 -0.0888489,-0.148771 -0.281527,-0.197276 -0.43026,-0.108465zm2.17256 3.74184c0.0280071,0.111492 -0.039731,0.224747 -0.151223,0.252792 -0.111454,0.0280454 -0.224747,-0.0396927 -0.252754,-0.151185 -0.0280837,-0.111492 0.0396927,-0.224747 0.151185,-0.252792 0.111492,-0.0280071 0.224747,0.0396927 0.252792,0.151185zm-1.94307 -0.704507c0.018697,0.0744047 -0.026398,0.149844 -0.100803,0.168541 -0.0743281,0.018697 -0.149844,-0.0264363 -0.168502,-0.100803 -0.0187353,-0.0743664 0.026398,-0.149806 0.100803,-0.168541 0.0743281,-0.0186586 0.149806,0.0264746 0.168502,0.100803zm0.103101 3.0235c0.018697,0.0744047 -0.0264363,0.149844 -0.100764,0.168502 -0.0743664,0.0187736 -0.149844,-0.026398 -0.168502,-0.100764 -0.0187736,-0.0743664 0.026398,-0.149806 0.100764,-0.168502 0.0743664,-0.018697 0.149806,0.0264363 0.168502,0.100764zm-0.85144 -1.04588c0.0233712,0.0929101 -0.0330262,0.187314 -0.125898,0.210686 -0.0929484,0.0233712 -0.187391,-0.0331028 -0.210724,-0.126051 -0.0233712,-0.0928718 0.0331411,-0.187238 0.126013,-0.210609 0.0928718,-0.0233329 0.187276,0.0331028 0.210609,0.125975zm3.10228 1.59449c0.032758,0.130189 -0.0462443,0.262217 -0.176357,0.294937 -0.130189,0.032758 -0.262217,-0.0462443 -0.294937,-0.176472 -0.032758,-0.130074 0.0462826,-0.262102 0.176433,-0.29486 0.130112,-0.032758 0.262141,0.0462443 0.29486,0.176395zm-0.109308 -8.48252c-0.127507,0.0761288 -0.169077,0.241375 -0.0929484,0.368805 0.0761288,0.127507 0.241413,0.169154 0.368882,0.0929484 0.12743,-0.0761288 0.169077,-0.241375 0.0929484,-0.368805 -0.0761671,-0.127507 -0.241413,-0.169154 -0.368882,-0.0929484zm2.41716 1.13205c-0.0849792,0.0508419 -0.112756,0.160955 -0.0619528,0.245934 0.0507653,0.0849792 0.160878,0.112718 0.245896,0.0619911 0.0850175,-0.0508036 0.112795,-0.160955 0.0619911,-0.245934 -0.0508036,-0.0850175 -0.160916,-0.112756 -0.245934,-0.0619911zm-3.00826 2.31838c-0.0850175,0.0507653 -0.112756,0.160916 -0.0619528,0.245896 0.0507653,0.0850175 0.160878,0.112795 0.245896,0.0619528 0.0850175,-0.0507653 0.112795,-0.160878 0.0619528,-0.245896 -0.0507653,-0.0849792 -0.160916,-0.112756 -0.245896,-0.0619528zm2.62688 2.64026c-0.12743,0.0761288 -0.169077,0.241413 -0.0929101,0.368843 0.0761671,0.127469 0.241413,0.169116 0.368843,0.0929484 0.127469,-0.0761671 0.169116,-0.241413 0.0929484,-0.368843 -0.0761288,-0.127469 -0.241413,-0.169116 -0.368882,-0.0929484zm-0.742361 -2.46991c-0.106167,0.0634471 -0.140955,0.201146 -0.0775081,0.30735 0.0634471,0.106205 0.20126,0.140917 0.307504,0.0774698 0.106128,-0.0634854 0.140764,-0.20126 0.0773548,-0.307389 -0.0634471,-0.106205 -0.201146,-0.140917 -0.30735,-0.0774315zm-4.72815 -3.24331c-0.0755158,0.0450949 -0.100151,0.142909 -0.0550564,0.218387 0.0450949,0.0755158 0.142909,0.100151 0.218425,0.0550181 0.0754775,-0.0450566 0.100113,-0.142871 0.0550181,-0.218387 -0.0450949,-0.0754775 -0.142909,-0.100113 -0.218387,-0.0550181z"/>
   <path id="_121761024" class="fil6" d="M17.3188 7.26036c2.02237,-1.90517 25.7172,-1.85142 27.7391,0.0532557 -0.528725,8.24739 -7.41112,12.1969 -13.8234,12.1583 -6.53328,-0.0393479 -12.3827,-4.21915 -13.9157,-12.2116l-3.83134e-005 0 3.83134e-005 0z"/>
   <path id="_121760952" class="fil1" d="M17.2115 7.19867c2.02237,-1.82134 25.9424,-1.77 27.9641,0.0509569 -0.528725,7.88464 -7.5289,11.6605 -13.9411,11.6235 -6.53336,-0.0376238 -12.4901,-4.0336 -14.0231,-11.6745l3.83134e-005 3.83134e-005z"/>
   <path id="_121760880" class="fil3" d="M44.7909 7.87023c-1.10381,7.0673 -7.5951,10.4576 -13.5678,10.4226 -6.16302,-0.0360913 -11.804,-3.7197 -13.5788,-10.773 0.384744,-0.162142 0.876458,-0.357196 2.13007,-0.30486 6.77753,-0.696193 25.3223,-1.30902 25.0165,0.655236l0 3.83134e-005 3.83134e-005 0 3.83134e-005 3.83134e-005z"/>
   <path id="_121760808" class="fil8" d="M44.7262 7.63411c-1.01852,6.52141 -6.62424,9.91153 -12.177,10.3689l0.00402291 0.0229497 -1.87728 0.0384667c-5.6325,-0.376008 -11.1966,-3.65104 -12.7881,-10.6124l3.83134e-005 3.83134e-005c0.19559,-0.10268 0.620716,-0.169192 0.748913,-0.138618 0.126856,0.280493 0.999444,7.07825 8.49934,9.6207 3.29151,1.11569 6.58225,0.848145 9.7577,-0.52068 6.54696,-2.82209 6.88286,-8.40861 6.76221,-8.65002l0.865884 -0.206663c0.135821,0.033984 0.207046,0.0604969 0.204402,0.0773931l-7.66269e-005 0 -3.83134e-005 -3.83134e-005z"/>
   <path id="_121760664" class="fil3" d="M19.5251 6.934c0.249344,-0.234938 0.899561,-0.433976 1.83154,-0.597498 5.3466,-0.93799 19.9678,-0.705657 21.3981,0.641712 -0.439225,6.85125 -6.25421,10.1322 -11.5808,10.1 -5.42717,-0.0327197 -10.3754,-3.50487 -11.6488,-10.1442l3.83134e-005 -3.83134e-005 -3.83134e-005 0 0 3.83134e-005z"/>
   <path id="_121760520" class="fil9" d="M20.1048 9.00419c2.43831,-1.93084 6.63834,-2.91749 10.8629,-2.94971l0.344246 0c4.34562,0.0331411 8.66485,1.0763 11.0677,3.11814 -1.43936,5.14948 -6.51171,7.62537 -11.2058,7.59782 -4.80405,-0.0281987 -9.23224,-2.67845 -11.0691,-7.76625l7.66269e-005 0z"/>
   <path id="_121760448" class="fil1" d="M19.5251 6.90228c0.249344,-0.228501 0.899561,-0.422176 1.83154,-0.581215 5.3466,-0.912435 19.9678,-0.686424 21.3981,0.624279 -0.439225,6.6647 -6.25421,9.85636 -11.5808,9.82514 -5.42717,-0.0318385 -10.3754,-3.40951 -11.6488,-9.86816l3.83134e-005 -3.83134e-005 -3.83134e-005 0z"/>
   <path id="_121760376" class="fil4" d="M42.1637 6.43309c-0.481906,6.57424 -5.96517,9.72387 -10.9916,9.69284 -5.11672,-0.0316086 -9.78464,-3.35913 -11.0374,-9.72257 5.56721,-1.53028 16.7417,-1.53656 22.029,0.0297312l-7.66269e-005 0 -3.83134e-005 0z"/>
   <path id="_121760304" class="fil6" d="M42.5518 14.9819c0,0 -1.91038,3.73491 -8.80063,4.97987 0,0 4.55056,-0.0858604 6.26777,-1.18059 1.71717,-1.09469 2.53286,-3.79928 2.53286,-3.79928z"/>
   <path id="_121760232" class="fil6" d="M19.7342 14.9819c0,0 1.91038,3.73491 8.80063,4.97987 0,0 -4.55056,-0.0858604 -6.26777,-1.18059 -1.71717,-1.09469 -2.53286,-3.79928 -2.53286,-3.79928z"/>
   <path id="_119684072" class="fil1" d="M46.8933 23.1248c0,0 4.21356,-1.75387 8.38436,-2.67359l-0.224555 -0.801862c0,0 -3.56123,0.716308 -8.54474,2.59853l0.213866 0.470527 0.171108 0.406391 -3.83134e-005 0z"/>
   <path id="_119683568" class="fil1" d="M15.5253 23.1248c0,0 -4.21356,-1.75387 -8.38436,-2.67359l0.224555 -0.801862c0,0 3.56123,0.716308 8.54474,2.59853l-0.213866 0.470527 -0.171108 0.406391 3.83134e-005 0z"/>
   <path id="_119683712" class="fil3" d="M50.3811 12.6783c0.0813394,0.1095 0.162104,0.219728 0.242179,0.330683 -0.550066,0.316086 -0.920749,0.909369 -0.920749,1.58905 0,1.01136 0.820176,1.8315 1.8315,1.8315 0.390222,0 0.75194,-0.122067 1.0491,-0.330147 0.0663589,0.119308 0.132105,0.239076 0.197084,0.35938 -0.356277,0.239038 -0.785004,0.37869 -1.24618,0.37869 -1.2366,0 -2.23938,-1.00278 -2.23938,-2.23942 0,-0.81485 0.435585,-1.52798 1.08645,-1.91973zm3.03013 5.00941l0.00272025 0.00559376c-0.547997,0.333633 -1.19155,0.525967 -1.87993,0.525967 -1.99958,0 -3.62116,-1.62158 -3.62116,-3.62119 0,-0.601866 0.147162,-1.16944 0.407157,-1.6689 0.107508,0.1195 0.243903,0.212563 0.398077,0.268309 -0.210264,0.421831 -0.328729,0.897416 -0.328729,1.40059 0,1.73656 1.40817,3.14469 3.14465,3.14469 0.591406,0 1.14469,-0.163445 1.61717,-0.447501 0.0541752,0.151338 0.144288,0.28555 0.260033,0.392445zm-4.26888 -6.14751c0.386774,0 0.700293,0.313595 0.700293,0.700293 0,0.386736 -0.313519,0.700331 -0.700293,0.700331 -0.386736,0 -0.700255,-0.313595 -0.700255,-0.700331 0,-0.386698 0.313519,-0.700293 0.700255,-0.700293z"/>
   <g>
    <path id="_167011168" class="fil3" d="M35.8703 30.5546c0.739641,0 1.33932,0.599682 1.33932,1.33936 0,0.739641 -0.599682,1.33932 -1.33932,1.33932 -0.739679,0 -1.33932,-0.599682 -1.33932,-1.33932 0,-0.739679 0.599644,-1.33936 1.33932,-1.33936zm-9.20369 -8.83918c0.739641,0 1.33928,0.599682 1.33928,1.33932 0,0.739679 -0.599644,1.33932 -1.33928,1.33932 -0.739679,0 -1.33936,-0.599644 -1.33936,-1.33932 0,-0.739641 0.599682,-1.33932 1.33936,-1.33932zm4.5742 -1.07734c3.1514,0 5.81138,2.10624 6.64999,4.98734l-0.95569 0c-0.806766,-2.37026 -3.05144,-4.07605 -5.6943,-4.07605 -1.0991,0 -2.12912,0.295052 -3.01584,0.810138 -0.12471,-0.286508 -0.318423,-0.535967 -0.560296,-0.727419 1.04393,-0.630907 2.26758,-0.994004 3.57614,-0.994004zm3.59916 12.843c-1.04895,0.639566 -2.28107,1.00818 -3.59916,1.00818 -2.77397,0 -5.16691,-1.63208 -6.27241,-3.98785l1.024 0c1.02983,1.83564 2.99427,3.07661 5.2484,3.07661 1.13105,0 2.18919,-0.312676 3.09293,-0.855922 0.104941,0.293366 0.280416,0.553284 0.506235,0.758989zm-10.2494 -7.85563c0.127392,-0.43731 0.296699,-0.856803 0.503285,-1.25373 0.205667,0.228655 0.466466,0.406659 0.761365,0.513285 -0.118772,0.238271 -0.222218,0.485508 -0.309036,0.740445l-0.955614 0zm6.65025 -2.34471c0.618417,0 1.20611,0.131338 1.73702,0.367311 -0.198234,0.175437 -0.344859,0.407808 -0.414322,0.671558 -0.408115,-0.166702 -0.854658,-0.258692 -1.32269,-0.258692 -1.21737,0 -2.28969,0.621597 -2.91745,1.56453l-0.902281 0c0.707419,-1.39124 2.15233,-2.34471 3.81973,-2.34471zm-1.90789 7.22067c0.548955,0.357349 1.20419,0.565085 1.90789,0.565085 0.703703,0 1.35894,-0.207735 1.90789,-0.565085l1.20825 0c-0.781019,0.828145 -1.88828,1.34522 -3.11615,1.34522 -1.22791,0 -2.33517,-0.517078 -3.11619,-1.34522l1.20829 0zm4.54593 -6.68497c0.469608,0 0.850367,0.380759 0.850367,0.850367 0,0.469646 -0.380759,0.850405 -0.850367,0.850405 -0.469684,0 -0.850443,-0.380759 -0.850443,-0.850405 0,-0.469608 0.380759,-0.850367 0.850443,-0.850367z"/>
    <path id="_167008840" class="fil3" d="M24.3843 29.6511c-0.0160533,0 -0.0240608,-0.00804582 -0.0240608,-0.0240608l0.00961667 -3.30247c0,-0.0127967 0.00643666,-0.019195 0.0192333,-0.019195l0.922971 0c0.294784,0 0.527959,0.0897684 0.699412,0.26919 0.171453,0.17946 0.25716,0.423019 0.25716,0.730676 0,0.227544 -0.0448267,0.424628 -0.134595,0.591253 -0.0897301,0.166663 -0.206701,0.29486 -0.350874,0.38459 -0.14425,0.0897301 -0.301259,0.134595 -0.471102,0.134595l-0.365357 0 0 1.21136c0,0.016015 -0.00800751,0.0240608 -0.0240608,0.0240608l-0.538342 0zm0.562403 -1.81705l0.365357 0c0.102527,0 0.191452,-0.0488879 0.266776,-0.146626 0.0752859,-0.0977376 0.112948,-0.22513 0.112948,-0.382177 0,-0.125017 -0.0336392,-0.227505 -0.100956,-0.307657 -0.0672784,-0.0801134 -0.160227,-0.120151 -0.278769,-0.120151l-0.365357 0.00478918 0 0.951821zm1.67288 1.81705c-0.016015,0 -0.0240608,-0.00804582 -0.0240608,-0.0240608l0.00482749 -3.30247c0,-0.0127967 0.00639834,-0.019195 0.0192333,-0.019195l0.53838 0c0.0127967,0 0.019195,0.00639834 0.019195,0.019195l0.00486581 3.30247c0,0.016015 -0.00643666,0.0240608 -0.0192333,0.0240608l-0.543208 0zm1.87471 0.048045c-0.173023,0 -0.330875,-0.0440605 -0.473516,-0.132181 -0.142603,-0.0881209 -0.257121,-0.205092 -0.343672,-0.350951 -0.0865501,-0.145783 -0.129806,-0.306814 -0.129806,-0.483056l0.00478918 -1.52388c0,-0.176242 0.0424896,-0.33643 0.12743,-0.48068 0.0849026,-0.144212 0.199498,-0.259574 0.343672,-0.346124 0.144212,-0.0865117 0.301259,-0.129768 0.471102,-0.129768 0.173062,0 0.33007,0.0432559 0.471102,0.129768 0.141032,0.0865501 0.253941,0.201912 0.338882,0.346124 0.0849026,0.14425 0.127392,0.304439 0.127392,0.48068l0.00478918 1.52388c0,0.176242 -0.042413,0.337273 -0.127354,0.483056 -0.0849026,0.145859 -0.198732,0.26283 -0.341334,0.350951 -0.142603,0.0881209 -0.300416,0.132181 -0.473477,0.132181zm0 -0.581636c0.0961667,0 0.180303,-0.039233 0.252371,-0.117776 0.0721059,-0.0785042 0.108159,-0.16743 0.108159,-0.266776l-0.00482749 -1.52388c0,-0.105745 -0.0336392,-0.195437 -0.100918,-0.26919 -0.0673167,-0.0737151 -0.152219,-0.110534 -0.254784,-0.110534 -0.0993467,0 -0.184288,0.0360529 -0.254784,0.108159 -0.0704967,0.0721059 -0.105745,0.162641 -0.105745,0.271566l0 1.52388c0,0.105745 0.0352484,0.19628 0.105745,0.271566 0.0704967,0.0753625 0.155438,0.112986 0.254784,0.112986zm1.35078 0.533591c-0.0255934,0 -0.0384667,-0.0112258 -0.0384667,-0.0336392l-0.00478918 -3.27361c0,-0.02567 0.0127967,-0.0384667 0.0384667,-0.0384667l0.432635 0 0.812398 1.89399 -0.0240608 -1.85552c0,-0.02567 0.0144059,-0.0384667 0.0432559,-0.0384667l0.47593 0c0.0192333,0 0.02885,0.0127967 0.02885,0.0384667l0.00478918 3.2784c0,0.019195 -0.00800751,0.02885 -0.0240608,0.02885l-0.42298 0 -0.831631 -1.76901 0.0336775 1.73054c0,0.0256317 -0.0144442,0.0384667 -0.0432942,0.0384667l-0.480719 0zm2.20643 0c-0.012835,0 -0.0192333,-0.00804582 -0.0192333,-0.0240608l0.00478918 -3.30247c0,-0.0127967 0.00639834,-0.019195 0.0192717,-0.019195l1.54304 0c0.012835,0 0.0192717,0.00800751 0.0192717,0.0240608l0 0.538342c0,0.012835 -0.00643666,0.0192717 -0.0192717,0.0192717l-0.98546 0 0 0.749871 0.98546 0c0.012835,0 0.0192717,0.00643666 0.0192717,0.0192333l0.00478918 0.543208c0,0.012835 -0.00639834,0.0192333 -0.0192333,0.0192333l-0.990287 0 0 0.84121 0.990287 0c0.012835,0 0.0192333,0.00804582 0.0192333,0.0240608l0 0.547997c0,0.012835 -0.00639834,0.0192333 -0.0192333,0.0192333l-1.55269 0zm2.01896 0c-0.012835,0 -0.0192333,-0.00804582 -0.0192333,-0.0240608l0.00478918 -3.30247c0,-0.0127967 0.00639834,-0.019195 0.0192717,-0.019195l1.54304 0c0.012835,0 0.0192717,0.00800751 0.0192717,0.0240608l0 0.538342c0,0.012835 -0.00643666,0.0192717 -0.0192717,0.0192717l-0.98546 0 0 0.749871 0.98546 0c0.012835,0 0.0192717,0.00643666 0.0192717,0.0192333l0.00478918 0.543208c0,0.012835 -0.00639834,0.0192333 -0.0192333,0.0192333l-0.990287 0 0 0.84121 0.990287 0c0.012835,0 0.0192333,0.00804582 0.0192333,0.0240608l0 0.547997c0,0.012835 -0.00639834,0.0192333 -0.0192333,0.0192333l-1.55269 0zm2.01896 0c-0.012835,0 -0.0192333,-0.00804582 -0.0192333,-0.0240608l0.00965499 -3.30247c0,-0.0127967 0.00639834,-0.019195 0.019195,-0.019195l0.971016 0c0.1731,0 0.332522,0.0424896 0.478305,0.127392 0.145821,0.0849409 0.261987,0.198693 0.348537,0.341296 0.0865117,0.142603 0.129768,0.303672 0.129768,0.483132 0,0.118542 -0.0176242,0.22513 -0.0528725,0.319649 -0.0352484,0.0945192 -0.0768951,0.174671 -0.124978,0.240379 -0.0480834,0.0656309 -0.0913775,0.114519 -0.129806,0.146587 0.173062,0.192295 0.259574,0.418229 0.259574,0.677803l0.00482749 0.985422c0,0.016015 -0.00800751,0.0240608 -0.0240608,0.0240608l-0.543208 0c-0.0127967,0 -0.019195,-0.00478918 -0.019195,-0.0144442l0 -0.995038c0,-0.115362 -0.0408804,-0.215551 -0.122565,-0.300454 -0.0817609,-0.0849409 -0.181874,-0.127354 -0.300454,-0.127354l-0.317274 0 -0.00482749 1.41323c0,0.016015 -0.00639834,0.0240608 -0.019195,0.0240608l-0.543208 0zm0.56723 -2.01418l0.413402 0c0.0993467,0 0.187506,-0.0368192 0.264401,-0.110534 0.0768951,-0.0737534 0.1154,-0.163445 0.1154,-0.26919 0,-0.102565 -0.0377004,-0.190724 -0.112986,-0.264401 -0.0753625,-0.0737151 -0.164288,-0.110573 -0.266815,-0.110573l-0.413402 0 0 0.754698z"/>
   </g>
   <path id="_119683424" class="fil1" d="M8.26287 18.7355c0,0 3.80441,0.55884 7.6733,2.70822l0.171951 -0.537346c0,0 -3.54648,-2.04191 -7.58732,-2.72972l-0.408383 0.193445 0.150457 0.365395z"/>
   <path id="_119542952" class="fil1" d="M54.3907 19.0821c0,0 -3.82131,0.428153 -7.76157,2.44375l-0.153445 -0.54294c0,0 3.61437,-1.9192 7.6764,-2.46815l0.401487 0.207314 -0.16287 0.360031z"/>
  </g>
 </g>
</svg>
