<?xml version="1.0" encoding="UTF-8"?>
<!DOCTYPE svg PUBLIC "-//W3C//DTD SVG 1.1//EN" "http://www.w3.org/Graphics/SVG/1.1/DTD/svg11.dtd">
<!-- Creator: CorelDRAW -->
<svg xmlns="http://www.w3.org/2000/svg" xml:space="preserve" width="161.908mm" height="176.791mm" style="shape-rendering:geometricPrecision; text-rendering:geometricPrecision; image-rendering:optimizeQuality; fill-rule:evenodd; clip-rule:evenodd"
viewBox="0 0 606.066 661.779"
 xmlns:xlink="http://www.w3.org/1999/xlink">
 <defs>
  <style type="text/css">
   <![CDATA[
    .fil0 {fill:none}
    .fil3 {fill:#359199}
    .fil2 {fill:#47BAB6}
    .fil1 {fill:#501D33}
    .fil4 {fill:#79E4C5}
    .fil9 {fill:#B1C884}
    .fil10 {fill:#C9C7D2}
    .fil8 {fill:#D49293}
    .fil7 {fill:#D77D75}
    .fil5 {fill:#FFCFA5}
    .fil6 {fill:white}
    .fil11 {fill:#501D33;fill-rule:nonzero}
   ]]>
  </style>
 </defs>
 <g id="Слой_x0020_1">
  <metadata id="CorelCorpID_0Corel-Layer"/>
  <g id="_167002624">
   <rect id="_133936424" class="fil0" width="606.066" height="661.779"/>
   <path id="_205121040" class="fil1" d="M165.595 69.1127c-62.4987,28.0439 -113.729,136.452 -118.294,193.554 -5.23087,65.4177 -4.42045,105.228 33.7356,185.148 0,0 8.61368,16.092 36.9702,9.19239 13.2078,2.13517 24.9423,-3.15746 31.0139,-11.8647 0.14786,-0.21187 16.1631,-1.73164 23.7687,-9.13549 3.45019,-3.35848 5.64151,-6.3445 4.40136,-12.455 -1.62346,-8.00015 -4.02029,-17.7963 -4.02029,-17.7963 0,0 14.1028,-14.059 11.7936,-20.0401 -2.30923,-5.98102 -31.1479,-30.9738 -31.1958,-31.2134 -19.7889,-90.7399 -0.383687,-168.144 51.4578,-230.667l41.6508 -55.1502c-20.9238,-6.17792 -59.0908,-9.52966 -81.281,0.427109l0.000374329 -0.000374329 -0.000748657 0.000374329 -0.000374329 -0.000374329z"/>
   <path id="_201721816" class="fil1" d="M441.269 69.1127c62.4987,28.0439 113.729,136.452 118.294,193.554 5.23087,65.4177 4.42045,105.228 -33.7356,185.148 0,0 -8.61368,16.092 -36.9702,9.19239 -13.2078,2.13517 -24.9423,-3.15746 -31.0139,-11.8647 -0.14786,-0.21187 -16.1631,-1.73164 -23.7687,-9.13549 -3.45019,-3.35848 -5.64151,-6.3445 -4.40136,-12.455 1.62346,-8.00015 4.02029,-17.7963 4.02029,-17.7963 0,0 -14.1028,-14.059 -11.7936,-20.0401 2.30923,-5.98102 31.1479,-30.9738 31.1958,-31.2134 19.7889,-90.7399 0.383687,-168.144 -51.4578,-230.667l-41.6508 -55.1502c20.9238,-6.17792 59.0908,-9.52966 81.281,0.427109l-0.000374329 -0.000374329 0.000748657 0.000374329 0.000374329 -0.000374329z"/>
   <path id="_201723160" class="fil1" d="M190.587 342.57c-11.3021,-67.1845 -17.1326,-180.421 -23.9275,-233.684 11.8789,-48.9124 105.314,-33.9138 137.143,-27.2979 31.8292,-6.61588 125.264,-21.6145 137.143,27.2979 -6.70497,52.5561 -11.6431,164.478 -22.6371,231.837 -41.2967,13.1157 -80.764,17.5998 -114.993,17.5328 -25.969,-0.0509087 -86.2442,-5.21739 -112.729,-15.6874l0.000748657 -0.000374329 -0.000748657 0.000748657 0.000748657 0.000748657z"/>
   <path id="_208906640" class="fil2" d="M199.453 340.405c-11.0322,-71.6828 -19.1409,-152.151 -23.7085,-223.738 9.27961,-38.21 68.6129,-57.51 127.981,-57.6148l0 -0.00112299 0.0778603 0.000374329 0.0778603 -0.000374329 0 0.00112299c59.3674,0.104812 118.701,19.4048 127.981,57.6148 -4.52526,70.93 -12.5277,150.577 -23.4053,221.76 -87.3305,26.9999 -177.969,9.51843 -209.003,1.97945l-0.000748657 0 0.000748657 -0.000748657 -0.00112299 -0.000374329z"/>
   <path id="_208908320" class="fil3" d="M195.194 151.549c0,0 22.7809,51.4679 64.5455,84.7952 0,0 -27.8433,-16.031 -37.1244,-26.1558 -9.2811,-10.1248 -27.4214,-58.6393 -27.4214,-58.6393l0.000374329 0z"/>
   <path id="_208911776" class="fil3" d="M420.893 210.609c0,0 -21.9372,40.9212 -77.2012,69.186 0,0 41.3427,-8.85923 72.9828,-29.9527l1.2656 -16.031 2.95308 -23.2028 -0.000374329 0 0 0.000374329z"/>
   <path id="_208912112" class="fil4" d="M407.786 153.932c0,0 -22.0801,51.1584 -81.6849,96.7216 -10.4483,7.98667 -29.2646,22.1355 -0.62176,8.1978 16.2155,-7.89085 35.1824,-18.5409 49.1288,-30.6721 29.7539,-25.8807 33.1779,-74.2477 33.1779,-74.2477l0 0.000374329z"/>
   <path id="_208911440" class="fil3" d="M198.786 308.078c3.93607,12.2858 62.6068,1.7848 69.5353,1.78704 3.43297,0.00112299 -18.7239,14.3836 -62.5716,22.6712l-6.96289 -24.4583 -0.000374329 0 -0.000374329 0z"/>
   <path id="_208910096" class="fil3" d="M199.453 340.405c-8.94234,-58.1022 -15.9629,-121.975 -20.7341,-182.215 0.573097,-2.66934 0.138876,-4.23441 0.572723,-4.40023 7.64117,51.5492 16.5461,110.488 26.7645,159.18 7.03289,33.5118 37.1102,34.8863 99.3711,32.9484 57.9734,-1.80426 95.2857,-5.16424 100.363,-53.8262l23.1402 -143.251c0,0 0.314436,-1.40074 0.857587,2.21977 -4.72028,60.1651 -12.4307,129.123 -21.3304,187.365 -87.3309,27.0007 -177.969,9.5188 -209.005,1.97982l0 0.000374329 0.000374329 0 -0.000374329 0z"/>
   <path id="_208908704" class="fil5" d="M378.672 76.4106l-4.57018 -6.32353c3.16383,-0.139625 6.22471,-0.257164 9.19388,-0.342885 -1.51603,2.06405 -3.07324,4.29804 -4.62371,6.66642zm129.766 75.66c23.3072,37.8693 37.3629,78.8744 42.6068,120.829 7.72989,61.8702 -4.07532,116.119 -32.7103,172.212 0,0 -3.47676,10.2379 -25.3862,7.70518 0,0 6.37182,-11.2733 5.94022,-12.2462 -0.431975,-0.974003 -11.1033,11.3268 -11.1033,11.3268 0,0 -13.4811,0.049037 -24.489,-9.4488 0,0 -0.0449194,-15.2288 -1.00021,-15.194 -0.955287,0.0348126 -4.01842,11.2755 -4.01842,11.2755l-14.3948 -3.80131c-6.5762,-3.09195 -8.63164,-3.58307 -6.84572,-11.7281 1.3633,-6.22209 3.64184,-16.7164 8.65186,-34.3338 -1.3824,-1.62945 -4.72852,6.0222 -7.1785,10.2267 0,0 -7.88074,-8.70202 -7.5431,-11.6674 0.335773,-2.96655 27.9339,-24.4216 27.9339,-24.4216 18.0404,-56.6037 11.6139,-122.112 -7.97994,-174.151 11.6734,4.0813 18.3631,9.91147 18.3631,9.91147 3.16121,-10.3266 4.42232,-20.2343 4.42232,-20.2343 11.1696,5.69017 15.8094,9.48624 15.8094,9.48624 3.36746,-14.0164 2.10073,-20.9736 2.10073,-20.9736 9.16768,3.79232 14.2312,8.95956 14.2312,8.95956 1.87763,-10.431 3.2065,-17.1618 2.58998,-23.7336l0 0.000748657 0 0.000374329z"/>
   <path id="_208906856" class="fil6" d="M508.488 151.912c23.3072,37.8693 37.3105,79.0324 42.5544,120.988 7.72989,61.8702 -4.07532,116.119 -32.7103,172.212 0,0 -0.296468,0.864699 -1.25213,2.03036 -6.3284,-0.883415 -12.7298,-2.31971 -19.0073,-4.10189 0.576466,-1.26673 0.925715,-2.2164 0.813416,-2.46945 -0.12802,-0.288982 -1.15855,0.589193 -2.54281,1.96897 -12.2076,-3.60029 -23.8676,-8.44223 -33.496,-12.9768 -0.137753,-1.39437 -0.317805,-2.31672 -0.553632,-2.30811 -0.212993,0.0078609 -0.500103,0.655824 -0.816411,1.65828 -12.686,-6.05551 -21.5591,-11.4144 -23.0197,-12.3094l0.0127272 -0.055775c28.0567,9.63896 75.4253,14.4629 75.4253,14.4629 46.2618,-95.1674 38.0658,-190.869 -4.79215,-268.332 0.0351869,-3.68377 -0.349997,-7.93464 -0.615771,-10.7672l0 -0.000374329 0.000374329 0.000374329z"/>
   <path id="_208907888" class="fil7" d="M513.194 160.331c-0.148983,6.55711 -0.988227,15.5545 -3.8728,24.3186l-11.8018 -6.7439c0,0 0,8.85137 -5.90092,20.4425l-5.69017 -3.79345c0,0 -2.08426,4.7944 -5.34504,9.21223l-1.78817 -6.73193c0,0 -7.57342,11.0446 -14.4105,13.9898l-12.6152 -20.0779c-0.280746,-0.766625 -0.563365,-1.53026 -0.849726,-2.29089 11.6734,4.0813 18.3631,9.91147 18.3631,9.91147 3.16121,-10.3266 4.42232,-20.2343 4.42232,-20.2343 11.1696,5.69017 15.8094,9.48624 15.8094,9.48624 3.36746,-14.0164 2.10073,-20.9736 2.10073,-20.9736 9.16768,3.79232 14.2312,8.95956 14.2312,8.95956 1.87763,-10.431 2.58436,-17.7817 2.49191,-24.4583 2.32383,3.77548 2.68019,5.09012 4.85579,8.98389z"/>
   <path id="_208907696" class="fil7" d="M460.562 192.873c23.4689,48.6777 45.1504,136.104 -21.8413,239.207 -2.3695,-1.65678 -2.86586,-3.69575 -1.68598,-9.07709 1.3633,-6.22209 3.64184,-16.7164 8.65186,-34.3338 -1.3824,-1.62945 -4.72852,6.0222 -7.1785,10.2267 0,0 -7.88074,-8.70202 -7.5431,-11.6674 0.335773,-2.96655 27.9339,-24.4216 27.9339,-24.4216 18.0404,-56.6037 11.6139,-122.112 -7.97994,-174.151 3.74591,1.3094 6.97973,2.79885 9.64308,4.21868l0 -0.000748657 0 -0.000374329z"/>
   <path id="_208906352" class="fil2" d="M434.982 154.324l-60.8801 -84.237c41.4644,-1.82972 65.2945,-0.0329409 95.4744,30.9192 12.1788,12.4906 23.3836,26.7851 33.3665,42.2553 0.297217,6.05514 0.0920848,13.6083 -1.41833,21.9989 0,0 -8.21913,-7.37615 -17.492,-10.5374 0,0 2.52896,8.42988 1.68598,23.3929 0,0 -6.53316,-5.26868 -17.7027,-10.9588 0,0 0.632241,11.3803 -2.52896,21.7069 0,0 -6.72144,-5.85899 -18.448,-9.94142 -3.66692,-8.68255 -7.70368,-16.9204 -12.0564,-24.5983l-0.000748657 0 0.000374329 -0.000374329z"/>
   <path id="_208908416" class="fil4" d="M444.998 81.193c8.04619,4.66526 16.0594,11.0768 24.578,19.8132 12.1788,12.4906 23.3836,26.784 33.3665,42.2542 0.12802,2.60645 -1.10202,19.4003 -1.22443,22.5091 -14.4899,-30.8084 -30.3715,-56.655 -56.7198,-84.5762l-0.000374329 -0.000374329z"/>
   <path id="_208907912" class="fil3" d="M434.982 154.324c-1.27946,-1.7702 -5.15338,-6.91198 -5.03771,-6.9685 1.16229,-1.16117 27.6314,13.1932 35.2097,41.6141 -2.34704,-1.17127 -15.0577,-8.98276 -18.1156,-10.0474 -3.66692,-8.68255 -7.70368,-16.9204 -12.0564,-24.5983z"/>
   <path id="_208907216" class="fil1" d="M534.72 232.929c27.947,-3.15409 35.1558,27.6629 10.4988,37.9764l-10.4988 -37.9764z"/>
   <path id="_208906712" class="fil5" d="M545.215 271.066c9.11415,-14.2035 9.34699,-29.9021 -10.4879,-38.3589 0,0 -5.64375,27.8557 10.4879,38.3589z"/>
   <path id="_208907576" class="fil6" d="M544.268 272.237c11.0348,-14.0628 11.1599,-31.4305 -10.2607,-39.945 8.51298,5.69279 15.5373,23.7482 9.8804,38.7842l0.380318 1.16079z"/>
   <path id="_208907096" class="fil6" d="M535.832 238.186c-2.438,1.51603 -2.4118,5.9668 0.0580209,9.93842 2.47057,3.972 6.4508,5.96343 8.88881,4.4474 2.43763,-1.51603 2.41142,-5.9668 -0.0587696,-9.9388 -2.47019,-3.97163 -6.45043,-5.96305 -8.88806,-4.44702z"/>
   <path id="_208910360" class="fil5" d="M436.138 387.358c0,0 4.52301,-9.36158 16.0935,-15.252 11.5705,-5.89043 -7.99416,15.4624 -16.0935,15.252z"/>
   <path id="_208910024" class="fil7" d="M519.567 442.66c-0.407644,0.817908 -0.818282,1.63656 -1.23491,2.45185 0,0 -3.47676,10.2375 -25.3847,7.70481 0,0 6.37032,-11.2725 5.93872,-12.2469 -0.431601,-0.974377 -11.1041,11.3298 -11.1041,11.3298 0,0 -13.4803,0.0471654 -24.4875,-9.4518 0,0 -0.0449194,-15.2296 -1.00095,-15.1947 -0.955661,0.0348126 -3.28286,12.4359 -3.28286,12.4359 -7.42443,-0.987853 -15.9494,-3.69462 -20.9527,-8.1278 -1.79041,-1.58603 -2.08464,-3.72607 -1.02379,-8.56164 0.455184,-2.07453 1.01069,-4.62558 1.73614,-7.75497 41.5572,18.6689 68.1207,25.1714 80.7966,27.4155l-0.000374329 0 0.000374329 0z"/>
   <path id="_208909208" class="fil7" d="M517.268 246.609c0,0 0,13.9093 18.7565,21.4962 0,0 -12.4341,-0.421494 -17.7027,-5.47942 -5.26868,-5.05793 -1.05374,-16.0168 -1.05374,-16.0168z"/>
   <path id="_208906880" class="fil1" d="M470.401 176.804c0,0 4.01205,8.71549 4.62221,18.5802 0,0 4.2767,-12.287 3.70885,-17.7129 -0.567856,-5.42589 -7.88111,-6.48749 -8.33106,-0.867319z"/>
   <path id="_208907600" class="fil5" d="M228.194 76.4106l4.57018 -6.32353c-3.16383,-0.139625 -6.22471,-0.257164 -9.19388,-0.342885 1.51603,2.06405 3.07324,4.29804 4.62371,6.66642zm-130.237 76.813c-23.3072,37.8693 -36.8912,77.7215 -42.1352,119.677 -7.72989,61.8702 4.07532,116.119 32.7103,172.212 0,0 3.47676,10.2379 25.3862,7.70518 0,0 -6.37182,-11.2733 -5.94022,-12.2462 0.431975,-0.974003 11.1033,11.3268 11.1033,11.3268 0,0 13.4811,0.049037 24.489,-9.4488 0,0 0.0449194,-15.2288 1.00021,-15.194 0.955287,0.0348126 4.01842,11.2755 4.01842,11.2755l14.3948 -3.80131c6.5762,-3.09195 8.63164,-3.58307 6.84572,-11.7281 -1.3633,-6.22209 -3.64184,-16.7164 -8.65186,-34.3338 1.3824,-1.62945 4.72852,6.0222 7.1785,10.2267 0,0 7.88074,-8.70202 7.5431,-11.6674 -0.335773,-2.96655 -27.9339,-24.4216 -27.9339,-24.4216 -18.0404,-56.6037 -11.6139,-122.112 7.97994,-174.151 -11.6734,4.0813 -18.3631,9.91147 -18.3631,9.91147 -3.16121,-10.3266 -4.42232,-20.2343 -4.42232,-20.2343 -11.1696,5.69017 -15.8094,9.48624 -15.8094,9.48624 -3.36746,-14.0164 -2.10073,-20.9736 -2.10073,-20.9736 -9.16768,3.79232 -14.2312,8.95956 -14.2312,8.95956 -2.088,-8.53769 -3.67815,-16.0089 -3.06163,-22.5806l0 0.000748657z"/>
   <path id="_208910240" class="fil6" d="M97.8521 153.118c-23.3072,37.8693 -36.7864,77.8274 -42.0304,119.783 -7.72989,61.8702 4.07532,116.119 32.7103,172.212 0,0 0.296468,0.864699 1.25213,2.03036 6.3284,-0.883415 12.7298,-2.31971 19.0073,-4.10189 -0.576466,-1.26673 -0.925715,-2.2164 -0.813416,-2.46945 0.12802,-0.288982 1.15855,0.589193 2.54281,1.96897 12.2076,-3.60029 23.8676,-8.44223 33.496,-12.9768 0.137753,-1.39437 0.317805,-2.31672 0.553632,-2.30811 0.212993,0.0078609 0.500103,0.655824 0.816411,1.65828 12.686,-6.05551 21.5591,-11.4144 23.0197,-12.3094l-0.0127272 -0.055775c-28.0567,9.63896 -75.4253,14.4629 -75.4253,14.4629 -46.2618,-95.1674 -37.6466,-191.497 5.2114,-268.962 -0.0351869,-3.68377 -0.593311,-6.10043 -0.327538,-8.93298l-0.000374329 0.000748657 0 0.000374329z"/>
   <path id="_208906784" class="fil7" d="M93.456 160.774c-0.117914,7.32299 0.603792,18.4705 5.12119,27.2474 0,0 4.00419,-5.47942 9.27287,-7.79764 0,0 -0.210747,12.2233 6.53316,19.5995l7.79764 -6.32241c0,0 0.842988,9.27287 4.21494,14.12l8.64063 -5.47942 6.95465 10.9588 7.37465 -4.77194c1.98282,-6.73193 4.182,-13.3033 6.57995,-19.6725 -11.6734,4.0813 -18.3631,9.91147 -18.3631,9.91147 -3.16121,-10.3266 -4.42232,-20.2343 -4.42232,-20.2343 -11.1696,5.69017 -15.8094,9.48624 -15.8094,9.48624 -3.36746,-14.0164 -2.10073,-20.9736 -2.10073,-20.9736 -9.16768,3.79232 -14.2312,8.95956 -14.2312,8.95956 -2.088,-8.53769 -3.67815,-16.0089 -3.06163,-22.5806 -1.54373,2.508 -3.04254,5.02424 -4.5013,7.54946z"/>
   <path id="_208905848" class="fil7" d="M146.302 192.873c-23.4689,48.6777 -45.1504,136.104 21.8413,239.207 2.3695,-1.65678 2.86586,-3.69575 1.68598,-9.07709 -1.3633,-6.22209 -3.64184,-16.7164 -8.65186,-34.3338 1.3824,-1.62945 4.72852,6.0222 7.1785,10.2267 0,0 7.88074,-8.70202 7.5431,-11.6674 -0.335773,-2.96655 -27.9339,-24.4216 -27.9339,-24.4216 -18.0404,-56.6037 -11.6139,-122.112 7.97994,-174.151 -3.74591,1.3094 -6.97973,2.79885 -9.64308,4.21868l0 -0.000748657 0 -0.000374329z"/>
   <path id="_208908536" class="fil2" d="M171.884 154.324l60.8801 -84.237c-41.4644,-1.82972 -65.2945,-0.0329409 -95.4744,30.9192 -12.1788,12.4906 -23.3836,26.7851 -33.3665,42.2553 -0.297217,6.05514 -0.0920848,13.6083 1.41833,21.9989 0,0 8.21913,-7.37615 17.492,-10.5374 0,0 -2.52896,8.42988 -1.68598,23.3929 0,0 6.53316,-5.26868 17.7027,-10.9588 0,0 -0.632241,11.3803 2.52896,21.7069 0,0 6.72144,-5.85899 18.448,-9.94142 3.66692,-8.68255 7.70368,-16.9204 12.0564,-24.5983l0.000748657 0 -0.000374329 -0.000374329z"/>
   <path id="_208909184" class="fil4" d="M176.313 148.196l1.88063 -2.60233c3.81403,-29.2553 -8.25507,-59.9641 -11.2886,-67.0924 -2.70228,1.32437 -5.38809,2.83105 -8.07839,4.54098 4.34858,10.5748 14.9634,38.5397 17.4864,65.1538l0 0.000374329 0 -0.000374329z"/>
   <path id="_208907864" class="fil4" d="M429.933 151.046c-8.07165,-22.9512 -1.03165,-51.6712 8.25095,-73.4811 2.70228,1.32437 5.38809,2.83105 8.07839,4.54098 -4.34858,10.5748 -13.8064,42.3265 -16.3293,68.9405l0 -0.000374329z"/>
   <path id="_208909952" class="fil8" d="M191.952 69.2972c1.5909,-0.402778 3.23757,-1.0193 4.93066,-2.04571 21.9327,76.9384 84.5571,139.314 97.5841,151.67l-0.975126 3.92259c-76.2676,-54.0227 -99.129,-143.3 -101.539,-153.547l0 -0.000374329 -0.000374329 0.000374329z"/>
   <path id="_208910000" class="fil4" d="M161.868 81.193c-8.04619,4.66526 -16.0594,11.0768 -24.578,19.8132 -12.1788,12.4906 -23.3836,26.784 -33.3665,42.2542 -0.12802,2.60645 0.0479141,17.6926 1.53774,22.1689 7.40871,-25.7718 27.2361,-58.4829 56.4065,-84.2359l0.000374329 -0.000374329z"/>
   <path id="_208908392" class="fil3" d="M171.884 154.324l1.5209 -2.10448c-0.400157,-0.224971 -0.795823,-0.4739 -1.19972,-0.671546 0,0 -22.1363,8.51785 -29.1258,31.3208 2.34704,-1.17127 13.6903,-2.88196 16.7482,-3.94655 3.66692,-8.68255 7.70368,-16.9204 12.0564,-24.5983z"/>
   <path id="_208906736" class="fil1" d="M72.144 232.929c-27.947,-3.15409 -35.1558,27.6629 -10.4988,37.9764l10.4988 -37.9764z"/>
   <path id="_208907720" class="fil5" d="M61.6497 271.066c-9.11415,-14.2035 -9.34699,-29.9021 10.4879,-38.3589 0,0 5.64375,27.8557 -10.4879,38.3589z"/>
   <path id="_208909976" class="fil6" d="M62.5967 272.237c-11.0348,-14.0628 -11.1599,-31.4305 10.2607,-39.945 -8.51298,5.69279 -15.5373,23.7482 -9.8804,38.7842l-0.380318 1.16079z"/>
   <path id="_208907288" class="fil6" d="M71.0333 238.186c2.438,1.51603 2.4118,5.9668 -0.0580209,9.93842 -2.47057,3.972 -6.4508,5.96343 -8.88881,4.4474 -2.43763,-1.51603 -2.41142,-5.9668 0.0587696,-9.9388 2.47019,-3.97163 6.45043,-5.96305 8.88806,-4.44702z"/>
   <path id="_208906592" class="fil5" d="M170.727 387.358c0,0 -4.52301,-9.36158 -16.0935,-15.252 -11.5705,-5.89043 7.99416,15.4624 16.0935,15.252z"/>
   <path id="_208907480" class="fil7" d="M87.2972 442.66c0.407644,0.817908 0.818282,1.63656 1.23491,2.45185 0,0 3.47676,10.2375 25.3847,7.70481 0,0 -6.37032,-11.2725 -5.93872,-12.2469 0.431601,-0.974377 11.1041,11.3298 11.1041,11.3298 0,0 13.4803,0.0471654 24.4875,-9.4518 0,0 0.0449194,-15.2296 1.00095,-15.1947 0.955661,0.0348126 3.28286,12.4359 3.28286,12.4359 7.42443,-0.987853 15.9494,-3.69462 20.9527,-8.1278 1.79041,-1.58603 2.08464,-3.72607 1.02379,-8.56164 -0.455184,-2.07453 -1.01069,-4.62558 -1.73614,-7.75497 -41.5572,18.6689 -68.1207,25.1714 -80.7966,27.4155l0.000374329 0 -0.000374329 0z"/>
   <path id="_208908752" class="fil7" d="M89.5967 246.609c0,0 0,13.9093 -18.7565,21.4962 0,0 12.4341,-0.421494 17.7027,-5.47942 5.26868,-5.05793 1.05374,-16.0168 1.05374,-16.0168z"/>
   <path id="_208905896" class="fil1" d="M136.465 176.804c0,0 -4.01205,8.71549 -4.62221,18.5802 0,0 -4.2767,-12.287 -3.70885,-17.7129 0.567856,-5.42589 7.88111,-6.48749 8.33106,-0.867319z"/>
   <path id="_208908152" class="fil3" d="M272.802 236.261c-11.3882,-10.1057 -21.8432,-21.3689 -31.4444,-33.1756 -30.5463,-37.5635 -52.7152,-81.7084 -64.9224,-128.542 114.911,-32.4629 223.693,-7.55096 261.336,3.2503l-5.64338 12.1369c-8.58897,18.4712 -19.3719,36.3511 -30.4763,53.4141 -23.808,36.5835 -52.4378,71.5297 -86.0638,99.519 -4.06596,3.38356 -10.1915,8.75068 -15.5949,9.04303 -9.45404,0.510959 -20.5308,-9.73442 -27.1924,-15.6458l0.000374329 0 0 0.000374329 0.00112299 0z"/>
   <g>
    <path id="_88511592" class="fil6" d="M348.686 309.854c7.22641,0 13.0854,5.85899 13.0854,13.0858 0,7.22641 -5.85899,13.0854 -13.0854,13.0854 -7.22679,0 -13.0854,-5.85899 -13.0854,-13.0854 0,-7.22679 5.85862,-13.0858 13.0854,-13.0858zm-89.9216 -86.3602c7.22641,0 13.085,5.85899 13.085,13.0854 0,7.22679 -5.85862,13.0854 -13.085,13.0854 -7.22679,0 -13.0858,-5.85862 -13.0858,-13.0854 0,-7.22641 5.85899,-13.0854 13.0858,-13.0854zm44.6907 -10.5257c30.7897,0 56.7782,20.5783 64.9715,48.7271l-9.33725 0c-7.88224,-23.1578 -29.813,-39.8237 -55.6342,-39.8237 -10.7384,0 -20.8018,2.8827 -29.4653,7.91518 -1.21844,-2.79923 -3.11104,-5.23648 -5.47418,-7.107 10.1993,-6.16407 22.1546,-9.71158 34.9395,-9.71158zm35.1644 125.478c-10.2484,6.24867 -22.2864,9.85008 -35.1644,9.85008 -27.1021,0 -50.4816,-15.9456 -61.2825,-38.962l10.0047 0c10.0616,17.9345 29.2545,30.059 51.2778,30.059 11.0506,0 21.3888,-3.0549 30.2184,-8.3625 1.02529,2.86623 2.73971,5.40568 4.946,7.41545zm-100.139 -76.7508c1.24464,-4.27259 2.8988,-8.37111 4.91718,-12.2492 2.0094,2.23399 4.55745,3.97312 7.43866,5.01488 -1.16042,2.32795 -2.17111,4.74349 -3.01933,7.23427l-9.3365 0zm64.9741 -22.9082c6.04204,0 11.7839,1.2832 16.9709,3.58869 -1.93678,1.71405 -3.36933,3.98435 -4.04799,6.56123 -3.98735,-1.6287 -8.35015,-2.52747 -12.9229,-2.52747 -11.8939,0 -22.3706,6.07311 -28.504,15.2857l-8.81544 0c6.9116,-13.5926 21.0287,-22.9082 37.3194,-22.9082zm-18.6404 70.5471c5.36338,3.49136 11.7651,5.52097 18.6404,5.52097 6.87529,0 13.2771,-2.02961 18.6404,-5.52097l11.8048 0c-7.63069,8.09111 -18.4488,13.1431 -30.4453,13.1431 -11.9969,0 -22.815,-5.05194 -30.4456,-13.1431l11.8052 0zm44.4145 -65.3132c4.58815,0 8.30822,3.72008 8.30822,8.30822 0,4.58852 -3.72008,8.3086 -8.30822,8.3086 -4.58889,0 -8.30897,-3.72008 -8.30897,-8.3086 0,-4.58815 3.72008,-8.30822 8.30897,-8.30822z"/>
    <path id="_166999840" class="fil6" d="M236.466 301.027c-0.156844,0 -0.235078,-0.078609 -0.235078,-0.235078l0.0939565 -32.2656c0,-0.125026 0.0628872,-0.187539 0.187913,-0.187539l9.01758 0c2.88008,0 5.15825,0.877052 6.83337,2.63003 1.67512,1.75336 2.51249,4.13296 2.51249,7.13882 0,2.22314 -0.437964,4.14868 -1.31502,5.77664 -0.876678,1.62833 -2.0195,2.88083 -3.4281,3.75751 -1.40935,0.876678 -2.94335,1.31502 -4.60274,1.31502l-3.5696 0 0 11.8351c0,0.156469 -0.0782347,0.235078 -0.235078,0.235078l-5.25969 0zm5.49477 -17.7529l3.5696 0c1.0017,0 1.87052,-0.477643 2.60645,-1.43256 0.735556,-0.954912 1.10352,-2.19955 1.10352,-3.73393 0,-1.22143 -0.328661,-2.22276 -0.986356,-3.00586 -0.657321,-0.782721 -1.56544,-1.17389 -2.72361,-1.17389l-3.5696 0.0467911 0 9.29945zm16.3443 17.7529c-0.156469,0 -0.235078,-0.078609 -0.235078,-0.235078l0.0471654 -32.2656c0,-0.125026 0.0625129,-0.187539 0.187913,-0.187539l5.26007 0c0.125026,0 0.187539,0.0625129 0.187539,0.187539l0.0475397 32.2656c0,0.156469 -0.0628872,0.235078 -0.187913,0.235078l-5.30723 0zm18.3163 0.469408c-1.69047,0 -3.2327,-0.430478 -4.62633,-1.29143 -1.39325,-0.860956 -2.51212,-2.00378 -3.35773,-3.42885 -0.845608,-1.42432 -1.26823,-2.99762 -1.26823,-4.71953l0.0467911 -14.8885c0,-1.72191 0.41513,-3.28698 1.24502,-4.69633 0.829512,-1.40897 1.94913,-2.53608 3.35773,-3.38168 1.40897,-0.845234 2.94335,-1.26785 4.60274,-1.26785 1.69084,0 3.22484,0.422617 4.60274,1.26785 1.3779,0.845608 2.48105,1.97271 3.31094,3.38168 0.829512,1.40935 1.24464,2.97442 1.24464,4.69633l0.0467911 14.8885c0,1.72191 -0.414382,3.29521 -1.24427,4.71953 -0.829512,1.42507 -1.94164,2.56789 -3.33489,3.42885 -1.39325,0.860956 -2.93511,1.29143 -4.62595,1.29143zm0 -5.68268c0.939565,0 1.76159,-0.383312 2.4657,-1.15069 0.704486,-0.766999 1.05673,-1.63582 1.05673,-2.60645l-0.0471654 -14.8885c0,-1.03315 -0.328661,-1.90945 -0.985982,-2.63003 -0.657695,-0.720208 -1.48721,-1.07994 -2.48929,-1.07994 -0.970634,0 -1.80052,0.352243 -2.48929,1.05673 -0.688765,0.704486 -1.03315,1.58902 -1.03315,2.65324l0 14.8885c0,1.03315 0.344382,1.91769 1.03315,2.65324 0.688765,0.736304 1.51865,1.1039 2.48929,1.1039zm13.1973 5.21327c-0.250052,0 -0.375826,-0.109678 -0.375826,-0.328661l-0.0467911 -31.9838c0,-0.2508 0.125026,-0.375826 0.375826,-0.375826l4.22692 0 7.93726 18.5046 -0.235078 -18.1287c0,-0.2508 0.140748,-0.375826 0.422617,-0.375826l4.64991 0c0.187913,0 0.281869,0.125026 0.281869,0.375826l0.0467911 32.0305c0,0.187539 -0.0782347,0.281869 -0.235078,0.281869l-4.13259 0 -8.12518 -17.2835 0.329035 16.9077c0,0.250426 -0.141122,0.375826 -0.422991,0.375826l-4.6967 0zm21.5572 0c-0.1254,0 -0.187913,-0.078609 -0.187913,-0.235078l0.0467911 -32.2656c0,-0.125026 0.0625129,-0.187539 0.188287,-0.187539l15.0757 0c0.1254,0 0.188287,0.0782347 0.188287,0.235078l0 5.25969c0,0.1254 -0.0628872,0.188287 -0.188287,0.188287l-9.62811 0 0 7.32636 9.62811 0c0.1254,0 0.188287,0.0628872 0.188287,0.187913l0.0467911 5.30723c0,0.1254 -0.0625129,0.187913 -0.187913,0.187913l-9.67527 0 0 8.21876 9.67527 0c0.1254,0 0.187913,0.078609 0.187913,0.235078l0 5.35402c0,0.1254 -0.0625129,0.187913 -0.187913,0.187913l-15.17 0zm19.7256 0c-0.1254,0 -0.187913,-0.078609 -0.187913,-0.235078l0.0467911 -32.2656c0,-0.125026 0.0625129,-0.187539 0.188287,-0.187539l15.0757 0c0.1254,0 0.188287,0.0782347 0.188287,0.235078l0 5.25969c0,0.1254 -0.0628872,0.188287 -0.188287,0.188287l-9.62811 0 0 7.32636 9.62811 0c0.1254,0 0.188287,0.0628872 0.188287,0.187913l0.0467911 5.30723c0,0.1254 -0.0625129,0.187913 -0.187913,0.187913l-9.67527 0 0 8.21876 9.67527 0c0.1254,0 0.187913,0.078609 0.187913,0.235078l0 5.35402c0,0.1254 -0.0625129,0.187913 -0.187913,0.187913l-15.17 0zm19.7256 0c-0.1254,0 -0.187913,-0.078609 -0.187913,-0.235078l0.0943308 -32.2656c0,-0.125026 0.0625129,-0.187539 0.187539,-0.187539l9.48698 0c1.69122,0 3.2488,0.41513 4.67312,1.24464 1.42469,0.829887 2.55966,1.94127 3.40527,3.33452 0.845234,1.39325 1.26785,2.96693 1.26785,4.72028 0,1.15817 -0.172191,2.19955 -0.516573,3.12302 -0.344382,0.923469 -0.751277,1.70656 -1.22106,2.34854 -0.469782,0.641225 -0.892774,1.11887 -1.26823,1.43218 1.69084,1.87876 2.53608,4.08617 2.53608,6.62225l0.0471654 9.62773c0,0.156469 -0.0782347,0.235078 -0.235078,0.235078l-5.30723 0c-0.125026,0 -0.187539,-0.0467911 -0.187539,-0.141122l0 -9.72169c0,-1.1271 -0.399409,-2.10597 -1.19748,-2.93548 -0.798817,-0.829887 -1.77694,-1.24427 -2.93548,-1.24427l-3.09982 0 -0.0471654 13.8075c0,0.156469 -0.0625129,0.235078 -0.187539,0.235078l-5.30723 0zm5.54193 -19.6788l4.03901 0c0.970634,0 1.83196,-0.35973 2.58324,-1.07994 0.751277,-0.720583 1.12748,-1.59689 1.12748,-2.63003 0,-1.00208 -0.368339,-1.86341 -1.1039,-2.58324 -0.736304,-0.720208 -1.60512,-1.08031 -2.60682,-1.08031l-4.03901 0 0 7.37352z"/>
   </g>
   <path id="_208908968" class="fil1" d="M272.802 228.884c-11.3882,-10.1057 -21.8432,-21.3689 -31.4444,-33.1756 -30.5463,-37.5635 -52.7152,-81.7084 -64.9224,-128.542 114.911,-32.4629 223.693,-7.55096 261.336,3.2503l-5.64338 12.1369c-8.58897,18.4712 -19.3719,36.3511 -30.4763,53.4141 -23.808,36.5835 -52.4378,71.5297 -86.0638,99.519 -4.06596,3.38356 -10.1915,8.75068 -15.5949,9.04303 -9.45404,0.510959 -20.5308,-9.73442 -27.1924,-15.6458l0.000374329 0 0 0.000374329 0.00112299 0z"/>
   <path id="_208909544" class="fil2" d="M276.278 224.964c-11.131,-9.87741 -21.4752,-21.0257 -30.8567,-32.5621 -30.0915,-37.0046 -49.8235,-75.036 -61.8383,-121.178 99.3438,-21.0249 181.982,-10.2686 229.192,-0.0269517l17.5395 2.82468 -2.93998 6.32278c-8.27603,17.799 -19.4531,36.3799 -30.1166,52.765 -23.4618,36.0512 -51.901,70.7788 -85.0239,98.3488 -2.78875,2.32084 -8.87645,7.6408 -12.5254,7.83807 -6.51481,0.352243 -15.2501,-7.07294 -23.4311,-14.3327l0.000748657 0 -0.000748657 0.000374329 0.000374329 0.000374329z"/>
   <polygon id="_208910456" class="fil9" points="379.617,159.179 367.825,154.882 370.551,149.642 "/>
   <path id="_208912136" class="fil4" d="M195.63 69.4413c29.3481,106.885 99.9532,161.571 102.832,161.571 1.77207,-1.45502 3.89377,-2.82169 5.6299,-4.31264 25.8627,-22.2168 49.1812,-47.7007 66.5055,-71.9269 30.2454,-42.2954 45.2372,-79.4677 45.2372,-79.4677 -56.1418,-8.71811 -222.852,-15.5077 -220.205,-5.86461l0 0.000374329 0.000748657 0 -0.000748657 0.000374329z"/>
   <path id="_208911176" class="fil1" d="M195.63 69.2953c29.3481,103.571 99.9532,156.56 102.832,156.56 1.77207,-1.40972 3.89377,-2.73372 5.6299,-4.179 71.0165,-59.1121 113.629,-150.681 113.629,-150.681 -56.1418,-8.44785 -224.739,-11.0438 -222.091,-1.69983l0.000374329 0 0.000748657 0 -0.000374329 0z"/>
   <path id="_208909424" class="fil5" d="M202.742 66.1188c8.62528,33.7173 22.2681,60.858 36.6146,83.3873 20.3339,6.56909 69.1583,18.0396 122.503,-0.593311 27.9451,-38.0584 43.0032,-70.2899 43.0032,-70.2899 0,0 -80.9021,-15.5728 -103.918,-17.8746 -23.016,-2.30175 -98.2017,5.37049 -98.2017,5.37049l-0.000374329 0 -0.000374329 0 -0.000374329 0z"/>
   <path id="_208908728" class="fil7" d="M219.807 113.975c6.04616,13.03 12.7178,24.8041 19.5486,35.5313 2.30212,0.743791 4.97221,1.54935 7.96946,2.368 -9.95415,-14.2945 -16.1927,-25.3918 -16.1927,-25.3918 -4.33772,-5.87172 -8.08101,-9.86655 -11.3253,-12.5074zm136.462 36.7834c1.85704,-0.580209 3.72045,-1.19224 5.58947,-1.84507 12.0661,-16.433 21.7264,-31.7775 28.8128,-43.9121 -3.60104,2.04159 -8.20753,7.22042 -14.0748,16.5955 -6.83561,10.9222 -13.6836,20.6072 -20.3275,29.1617z"/>
   <path id="_208912376" class="fil7" d="M202.742 66.1188c5.80359,22.6873 13.8782,42.3953 22.9112,59.726 44.9426,27.1478 106.846,27.2515 151.93,0.342511 17.8244,-27.3324 31.6955,-56.4005 31.6955,-56.4005 -72.1964,-13.8969 -131.015,-14.5318 -206.537,-3.66842l0 0.000374329 0.000374329 0z"/>
   <path id="_208911320" class="fil6" d="M243.162 156.381c26.6683,39.769 54.4416,60.149 56.1313,60.149 22.7727,-18.1164 42.191,-39.7103 57.9341,-60.3717 -48.458,15.4478 -92.564,6.63348 -114.065,0.223474l0 -0.000748657z"/>
   <path id="_208906520" class="fil6" d="M349.611 158.395c-41.1338,11.1239 -78.356,5.42889 -100.146,-0.256041 14.6325,7.19385 54.7538,22.3343 100.146,0.256041z"/>
   <path id="_208913168" class="fil10" d="M243.162 156.381c26.6683,39.769 54.4416,60.149 56.1313,60.149 22.7727,-18.1164 42.191,-39.7103 57.9341,-60.3717 -2.31747,0.738925 -4.62558,1.42058 -6.92134,2.05132 -28.4441,34.4626 -51.7303,47.7254 -51.7303,47.7254 -17.2232,-10.6867 -33.8318,-30.1069 -46.2588,-47.0726 -3.38543,-0.829887 -6.44968,-1.674 -9.15533,-2.48068l0 -0.000748657 0.000374329 0z"/>
   <path id="_208912832" class="fil1" d="M354.634 163.996c0,0 -14.1197,11.1696 -56.6906,14.963 0,0 27.3971,2.31822 52.4756,-5.90092l1.05374 -2.73971 3.16121 -6.32241z"/>
   <path id="_208912448" class="fil1" d="M244.624 163.785c0,0 10.8656,11.1696 43.625,14.963 0,0 -21.0826,2.31822 -40.3814,-5.90092l-0.810796 -2.73971 -2.43276 -6.32241z"/>
   <path id="_208909688" class="fil1" d="M449.115 79.2416c0,0 -14.4184,24.6596 -15.1468,72.1627 -0.0404275,2.62142 -4.08168,-1.19673 -4.59189,1.36929 0,0 -1.95212,-44.9003 15.0892,-78.347l5.31322 2.06667 -0.663685 2.74795 0 0.000374329z"/>
   <path id="_208908944" class="fil1" d="M449.785 111.092c0,0 -8.991,-11.3171 -25.101,-13.0004 6.56685,8.36849 14.2496,13.3224 25.101,13.0004z"/>
   <path id="_208913096" class="fil1" d="M445.953 126.12c0,0 -14.3626,-1.62159 -26.9281,8.59945 10.5628,1.257 19.4954,-0.686893 26.9281,-8.59945z"/>
   <path id="_208912424" class="fil1" d="M155.042 84.5152c0,0 17.1577,24.4485 17.8865,71.9519 0.0400532,2.62142 4.08168,-1.19673 4.59189,1.36929 0,0 2.79549,-44.2685 -16.7748,-78.1362l-3.62762 1.85592 -2.07603 2.95869 0 0.000374329z"/>
   <path id="_208911680" class="fil1" d="M155.694 113.316c0,0 4.26473,-13.8105 18.6622,-21.2323 -3.07736,10.1825 -8.43512,17.5893 -18.6622,21.2323z"/>
   <path id="_208911152" class="fil1" d="M161.153 133.71c0,0 14.3626,-1.62159 26.9281,8.59945 -10.5628,1.257 -19.4954,-0.686893 -26.9281,-8.59945z"/>
   <path id="_208908584" class="fil1" d="M371.914 135.967c0,0 -10.9588,8.42988 -42.7813,14.3308 0,0 25.2893,-1.05374 40.6738,-6.32241l2.52896 -2.73971 -0.421494 -5.26868z"/>
   <path id="_208910672" class="fil1" d="M230.504 135.967c0,0 10.9588,8.42988 42.7816,14.3308 0,0 -25.2896,-1.05374 -40.6742,-6.32241l-2.52896 -2.73971 0.421494 -5.26868z"/>
   <path id="_208910216" class="fil11" d="M83.8586 294.351c-0.719834,0.426735 -1.65004,0.188662 -2.07678,-0.531547 -0.426735,-0.719834 -0.188662,-1.65041 0.531547,-2.07715 2.16512,-1.28432 4.88012,-1.34234 7.32524,-0.484756 1.49881,0.525932 2.90966,1.39999 4.03264,2.54581 1.15406,1.17689 2.01052,2.63902 2.36501,4.3074 0.492616,2.31747 0.0269517,4.98905 -1.94426,7.78192 -2.2149,3.13837 -4.75959,3.98959 -7.05235,3.53142 -1.48683,-0.297217 -2.8157,-1.16341 -3.84323,-2.31859 -0.985607,-1.10839 -1.70956,-2.50725 -2.02924,-3.92409 -0.554006,-2.45597 0.0531547,-4.97707 2.44848,-6.39466 2.33806,-1.38352 4.24227,-1.31577 5.65161,-0.511707 0.0378072,0.0213367 0.0737427,0.0437964 0.10893,0.0681278 0.643845,0.392671 1.15705,0.935073 1.53924,1.55983 0.377323,0.616145 0.628498,1.31427 0.754646,2.0195 0.330906,1.84619 -0.201014,3.86045 -1.56245,4.84756 -0.679406,0.49037 -1.62796,0.338019 -2.11833,-0.341388 -0.490745,-0.679032 -0.338393,-1.62796 0.341013,-2.11833 0.381441,-0.276255 0.492242,-1.05486 0.350372,-1.84544 -0.0636359,-0.357109 -0.183795,-0.698123 -0.358981,-0.984484 -0.136256,-0.2231 -0.306949,-0.411387 -0.504595,-0.538659l-0.051283 -0.0277003c-0.528178,-0.30096 -1.37753,-0.246308 -2.61543,0.486627 -1.06496,0.629621 -1.30865,1.86753 -1.02791,3.10992 0.207752,0.92272 0.686893,1.84245 1.34272,2.57912 0.613525,0.690636 1.36855,1.20047 2.16923,1.36031 1.18213,0.236201 2.58811,-0.336147 3.97799,-2.30512 1.42432,-2.01801 1.78068,-3.85783 1.45352,-5.39595 -0.230212,-1.08331 -0.795448,-2.04196 -1.55908,-2.82094 -0.794325,-0.810421 -1.79865,-1.43068 -2.86998,-1.80651 -1.64929,-0.578712 -3.42735,-0.571974 -4.7783,0.229463zm8.59533 123.746c0.00336896,-0.715716 19.6923,3.00062 41.1054,-13.06 1.77357,-1.33186 2.22351,-0.576092 0.8224,1.00208 -21.0047,23.6654 -42.7042,13.1124 -41.9278,12.0579zm-2.38859 -10.9368c0.00187164,-0.717214 19.6908,3.00099 41.1035,-13.0607 1.77469,-1.33074 2.22501,-0.57684 0.82502,1.0017 -21.0054,23.6677 -42.706,13.1127 -41.9285,12.059zm-0.944431 -124.492c0.74716,0.538285 0.917479,1.58528 0.377698,2.33394 -0.540156,0.748657 -1.58566,0.915233 -2.33356,0.378446 -3.43971,-2.48517 -4.15767,-5.82642 -3.34313,-8.82629 0.394168,-1.4509 1.16117,-2.80821 2.15389,-3.92858 1.00807,-1.13571 2.25271,-2.03597 3.5827,-2.55142 2.56265,-0.994965 5.40793,-0.661439 7.60898,1.90833 0.205132,0.23957 0.411387,0.508338 0.610904,0.802186 0.939939,1.37117 1.53437,3.01147 1.64255,4.53611 0.121657,1.74437 -0.365719,3.38243 -1.6463,4.47959 -0.0258287,0.0213367 -0.0505344,0.0430478 -0.0778603,0.0621385 -0.0943308,0.076363 -0.19802,0.154598 -0.30957,0.230212 -2.22651,1.52464 -4.40323,1.31651 -6.02295,0.349249 -0.600423,-0.355986 -1.11887,-0.821651 -1.52951,-1.34272 -0.417751,-0.530424 -0.731812,-1.12935 -0.915982,-1.74587 -0.440959,-1.48983 -0.140748,-3.0388 1.18999,-4.06409 0.730315,-0.565985 1.78106,-0.430478 2.34592,0.297217 0.566359,0.730689 0.431975,1.7818 -0.296094,2.34891 -0.0947051,0.0711224 -0.0943308,0.256415 -0.0291976,0.470905 0.0591439,0.20326 0.174063,0.414756 0.335398,0.618391 0.166576,0.210373 0.376949,0.399034 0.616145,0.544274 0.612027,0.361227 1.47074,0.410264 2.41704,-0.235078 0.0202137,-0.0142245 0.0408018,-0.0314436 0.0632615,-0.0509087l0.0314436 -0.0277003c0.39604,-0.339142 0.539782,-0.969511 0.487376,-1.69945 -0.0673791,-0.949672 -0.449569,-1.9933 -1.0601,-2.88008 -0.112673,-0.16171 -0.244437,-0.33465 -0.395665,-0.514702 -1.11512,-1.29892 -2.55479,-1.46924 -3.85259,-0.965019 -0.841116,0.327538 -1.63731,0.904004 -2.28939,1.63806 -0.665182,0.749406 -1.17614,1.64817 -1.43368,2.59934 -0.473151,1.74849 -0.0205881,3.72382 2.07228,5.23461zm34.9136 66.0922c0.536413,0.385184 0.658444,1.13496 0.271014,1.67213 -0.387804,0.537536 -1.13721,0.656947 -1.67325,0.271388 -2.46645,-1.7818 -2.98078,-4.17601 -2.39645,-6.3269 0.281495,-1.03988 0.831758,-2.01276 1.54336,-2.81682 0.723952,-0.813416 1.61598,-1.45988 2.56902,-1.8286 1.83833,-0.713845 3.87655,-0.474274 5.45509,1.36817 0.146737,0.171068 0.293848,0.363847 0.437964,0.574969 0.673791,0.982987 1.10053,2.15875 1.17689,3.25104 0.0883415,1.25026 -0.26203,2.42602 -1.17951,3.21249 -0.0198394,0.0142245 -0.0366842,0.0306949 -0.0561493,0.0437964 -0.0673791,0.055775 -0.142619,0.112299 -0.222726,0.165453 -1.59651,1.09267 -3.15484,0.943682 -4.31713,0.2508 -0.429355,-0.256041 -0.802935,-0.588819 -1.09641,-0.962773 -0.299089,-0.379944 -0.524434,-0.810421 -0.656198,-1.25101 -0.316682,-1.06871 -0.101069,-2.17897 0.853844,-2.9149 0.522563,-0.406147 1.27571,-0.308447 1.68111,0.212619 0.406147,0.524809 0.308821,1.27833 -0.212244,1.68485 -0.0685021,0.0505344 -0.0685021,0.18417 -0.0209624,0.338019 0.0422991,0.145614 0.124277,0.297591 0.239945,0.442456 0.119785,0.150854 0.269517,0.287484 0.442456,0.39005 0.43759,0.25941 1.05336,0.294222 1.73239,-0.168074 0.0131015,-0.0108555 0.029572,-0.0220854 0.0449194,-0.0359355l0.022834 -0.0194651c0.283741,-0.243314 0.38743,-0.696251 0.348126,-1.21881 -0.0475397,-0.681278 -0.321174,-1.42881 -0.759887,-2.06555 -0.078609,-0.115668 -0.174063,-0.23957 -0.282244,-0.368714 -0.800315,-0.930207 -1.83309,-1.05336 -2.76217,-0.692508 -0.602669,0.235453 -1.17389,0.648711 -1.64181,1.17539 -0.47652,0.537162 -0.842988,1.18176 -1.02865,1.86303 -0.338019,1.254 -0.0134758,2.66934 1.48683,3.75339zm-45.7276 -3.05677c0.701866,-0.191282 1.42207,0.223849 1.61336,0.923843 0.190908,0.69962 -0.2231,1.42207 -0.923094,1.61223 -4.91194,1.33673 -8.56052,-0.500477 -10.7346,-3.50035 -1.0732,-1.48047 -1.7717,-3.24431 -2.06966,-5.03921 -0.29834,-1.79902 -0.198394,-3.65045 0.328286,-5.299 0.98149,-3.07436 3.38019,-5.42252 7.35032,-5.53782 0.392671,-0.0119785 0.802561,0.000748657 1.22518,0.0359355 2.00341,0.156844 3.99371,0.840742 5.50001,1.89186 1.64967,1.15143 2.76142,2.75431 2.81533,4.64467 0.00112299,0.028449 0.00149731,0.0576466 0.00112299,0.0860956 0.00112299,0.14786 -0.00374329,0.300212 -0.0164705,0.456681 -0.247431,3.09457 -1.98694,4.88723 -4.00569,5.63215 -0.756144,0.281495 -1.54635,0.409141 -2.30474,0.401655 -0.765876,-0.00973254 -1.51828,-0.160213 -2.1857,-0.435718 -1.55758,-0.639353 -2.65998,-1.93191 -2.61581,-3.71708 0.0168448,-0.729192 0.621011,-1.30379 1.3502,-1.28507 0.7247,0.0153475 1.30042,0.622508 1.28357,1.34796 -0.0131015,0.552883 0.397163,0.980367 0.976623,1.21919 0.357109,0.146737 0.776732,0.22834 1.22368,0.233207 0.454435,0.00561493 0.920848,-0.0699994 1.35694,-0.230961 1.15069,-0.425237 2.14902,-1.4917 2.2995,-3.37832 0.00336896,-0.0643845 0.00711224,-0.127646 0.00711224,-0.193528l-0.00299463 -0.0561493c-0.0280746,-0.9755 -0.697374,-1.8679 -1.69159,-2.56303 -1.13758,-0.792828 -2.6596,-1.3109 -4.20596,-1.43368 -0.296468,-0.0220854 -0.608658,-0.0318179 -0.933201,-0.0220854 -2.65474,0.0771117 -4.26098,1.64929 -4.92018,3.70398 -0.393419,1.23978 -0.46529,2.66185 -0.231335,4.06671 0.234704,1.41122 0.77486,2.78201 1.60025,3.92334 1.57967,2.17972 4.26285,3.50559 7.90956,2.51249zm62.0854 -37.1925c-0.201763,-0.780101 0.268768,-1.57255 1.047,-1.7717 0.779726,-0.201389 1.57181,0.267271 1.77207,1.04513 1.40411,5.4622 -0.685396,9.478 -4.0405,11.8351 -1.65528,1.16641 -3.62051,1.91469 -5.60969,2.21528 -2.00041,0.302458 -4.04911,0.163956 -5.86461,-0.445077 -3.3888,-1.13272 -5.9537,-3.82377 -6.02108,-8.22362 -0.00860956,-0.433098 0.0138502,-0.88903 0.0572723,-1.35582 0.205506,-2.21603 0.992345,-4.40772 2.18084,-6.06075 1.30117,-1.8095 3.09195,-3.01784 5.18632,-3.04554 0.0318179,-0.00411761 0.0636359,-0.0026203 0.0954538,-0.00149731 0.166576,0.000748657 0.334275,0.00748657 0.504969,0.026203 3.42398,0.320425 5.38322,2.2733 6.17605,4.52002 0.299089,0.844111 0.428232,1.71779 0.409141,2.55629 -0.0220854,0.8501 -0.199143,1.67961 -0.515076,2.41629 -0.733684,1.7148 -2.18046,2.91565 -4.1543,2.83928 -0.809673,-0.0318179 -1.4378,-0.708978 -1.4056,-1.51641 0.028449,-0.801063 0.708604,-1.42769 1.51266,-1.39812 0.612776,0.0209624 1.09416,-0.424489 1.3678,-1.06309 0.165453,-0.394168 0.263153,-0.856464 0.275132,-1.35095 0.0138502,-0.503098 -0.0621385,-1.02341 -0.232832,-1.50817 -0.454435,-1.27871 -1.62271,-2.40469 -3.70997,-2.59709 -0.0718711,-0.00411761 -0.141871,-0.00935821 -0.212993,-0.00898389l-0.0610156 -0.000748657c-1.08069,0.0164705 -2.0794,0.743791 -2.86249,1.83496 -0.898763,1.24764 -1.49282,2.92837 -1.65453,4.63606 -0.0254543,0.328286 -0.0445451,0.674166 -0.0370585,1.0339 0.0445451,2.9396 1.75934,4.74461 4.02291,5.50525 1.37079,0.454435 2.94409,0.553258 4.5043,0.315185 1.56507,-0.236201 3.08933,-0.812293 4.36729,-1.71143 2.43875,-1.71742 3.94617,-4.66526 2.90254,-8.71998zm-37.8356 11.8048c0.643471,0.338019 0.889405,1.13272 0.553258,1.77581 -0.336896,0.641225 -1.13272,0.888656 -1.77394,0.55176 -4.50804,-2.36463 -5.93011,-6.19402 -5.48017,-9.87217 0.222726,-1.81475 0.911864,-3.58195 1.91769,-5.09985 1.00432,-1.5209 2.33881,-2.81008 3.84698,-3.65869 2.81046,-1.58229 6.16706,-1.66913 9.15383,0.948549 0.294222,0.259035 0.586947,0.548391 0.872934,0.86133 1.35994,1.47897 2.35228,3.33452 2.73896,5.13017 0.424489,1.96785 0.14786,3.89788 -1.09903,5.31958 -0.0194651,0.0209624 -0.0385558,0.0434221 -0.0583953,0.0625129 -0.0999457,0.110427 -0.207378,0.218234 -0.322671,0.32342 -2.2879,2.10036 -4.78429,2.22613 -6.76861,1.39812 -0.745288,-0.309195 -1.41159,-0.753149 -1.96111,-1.27496 -0.555129,-0.528926 -1.0032,-1.15069 -1.30528,-1.80688 -0.704861,-1.52951 -0.631492,-3.22559 0.614648,-4.50504 0.509836,-0.521814 1.34384,-0.531172 1.86453,-0.0213367 0.520691,0.506467 0.530049,1.34197 0.0220854,1.86191 -0.385933,0.396414 -0.376575,0.988976 -0.114919,1.55721 0.16171,0.35112 0.414756,0.697 0.738925,1.0047 0.329035,0.312564 0.720957,0.576092 1.15069,0.755769 1.13197,0.470531 2.58998,0.369462 3.9851,-0.910741 0.0445451,-0.0437964 0.0902132,-0.0883415 0.135507,-0.136256l0.0366842 -0.0445451c0.642722,-0.732561 0.760261,-1.8402 0.504969,-3.0257 -0.293099,-1.35619 -1.05561,-2.7719 -2.10373,-3.91398 -0.201763,-0.219357 -0.425612,-0.438339 -0.668925,-0.652829 -1.99704,-1.75148 -4.24376,-1.69346 -6.12476,-0.63561 -1.13234,0.63823 -2.15276,1.63207 -2.93811,2.81982 -0.788336,1.19111 -1.32737,2.56602 -1.49919,3.96302 -0.327163,2.67271 0.734807,5.46969 4.08205,7.22492zm14.9657 -28.8809c0.643471,0.338019 0.889405,1.13272 0.553258,1.77581 -0.336896,0.641225 -1.13272,0.888656 -1.77394,0.55176 -4.50804,-2.36463 -5.93011,-6.19402 -5.48017,-9.87217 0.222726,-1.81475 0.911864,-3.58195 1.91769,-5.09985 1.00432,-1.5209 2.33881,-2.81008 3.84698,-3.65869 2.81046,-1.58229 6.16706,-1.66913 9.15383,0.948549 0.294222,0.259035 0.586947,0.548391 0.872934,0.86133 1.35994,1.47897 2.35228,3.33452 2.73896,5.13017 0.424489,1.96785 0.14786,3.89788 -1.09903,5.31958 -0.0194651,0.0209624 -0.0385558,0.0434221 -0.0583953,0.0625129 -0.0999457,0.110427 -0.207378,0.218234 -0.322671,0.32342 -2.2879,2.10036 -4.78429,2.22613 -6.76861,1.39812 -0.745288,-0.309195 -1.41159,-0.753149 -1.96111,-1.27496 -0.555129,-0.528926 -1.0032,-1.15069 -1.30528,-1.80688 -0.704861,-1.52951 -0.631492,-3.22559 0.614648,-4.50504 0.509836,-0.521814 1.34384,-0.531172 1.86453,-0.0213367 0.520691,0.506467 0.530049,1.34197 0.0220854,1.86191 -0.385933,0.396414 -0.376575,0.988976 -0.114919,1.55721 0.16171,0.35112 0.414756,0.697 0.738925,1.0047 0.329035,0.312564 0.720957,0.576092 1.15069,0.755769 1.13197,0.470531 2.58998,0.369462 3.9851,-0.910741 0.0445451,-0.0437964 0.0902132,-0.0883415 0.135507,-0.136256l0.0366842 -0.0445451c0.642722,-0.732561 0.760261,-1.8402 0.504969,-3.0257 -0.293099,-1.35619 -1.05561,-2.7719 -2.10373,-3.91398 -0.201763,-0.219357 -0.425612,-0.438339 -0.668925,-0.652829 -1.99704,-1.75148 -4.24376,-1.69346 -6.12476,-0.63561 -1.13234,0.63823 -2.15276,1.63207 -2.93811,2.81982 -0.788336,1.19111 -1.32737,2.56602 -1.49919,3.96302 -0.327163,2.67271 0.734807,5.46969 4.08205,7.22492zm-46.6777 -1.25812c-0.258661,-0.798069 0.180052,-1.65528 0.976623,-1.91244 0.798443,-0.257538 1.65416,0.179678 1.91282,0.977746 0.77748,2.39832 0.234704,5.06242 -1.1417,7.2631 -0.84486,1.34833 -2.0094,2.53346 -3.3757,3.37682 -1.40411,0.868442 -3.02083,1.38314 -4.72927,1.36068 -2.37249,-0.0291976 -4.87975,-1.07395 -7.17288,-3.61414 -2.57725,-2.855 -2.84827,-5.52921 -1.89523,-7.66775 0.619514,-1.38614 1.75747,-2.49378 3.11367,-3.24169 1.29892,-0.71946 2.82393,-1.11924 4.27932,-1.11887 2.5211,0.000748657 4.85018,1.14956 5.70664,3.80168 0.83625,2.58998 0.350372,4.43355 -0.745663,5.63402 -0.0299463,0.0321923 -0.0591439,0.0617642 -0.0913362,0.0913362 -0.525932,0.540905 -1.16791,0.925715 -1.86303,1.16042 -0.684647,0.230586 -1.42245,0.323794 -2.13966,0.291228 -1.87613,-0.0834753 -3.72569,-1.04737 -4.389,-2.59559 -0.329035,-0.771117 0.0288233,-1.66426 0.800315,-1.99442 0.770743,-0.329035 1.66389,0.0299463 1.99367,0.801438 0.184918,0.43235 0.921971,0.711973 1.72453,0.748657 0.363473,0.0153475 0.723577,-0.0258287 1.04176,-0.134384 0.247431,-0.0827266 0.469034,-0.208501 0.637107,-0.374329l0.0385558 -0.0434221c0.411013,-0.449194 0.543899,-1.29106 0.101817,-2.66185 -0.379195,-1.17839 -1.53662,-1.68897 -2.81158,-1.68934 -0.9478,-0.000748657 -1.95137,0.265025 -2.8157,0.742294 -0.811544,0.448071 -1.47411,1.07245 -1.80726,1.81999 -0.490745,1.10202 -0.242939,2.60271 1.37491,4.39349 1.65715,1.83533 3.37644,2.58998 4.95087,2.60944 1.10914,0.0134758 2.17036,-0.327163 3.09982,-0.902506 0.965768,-0.595931 1.79303,-1.44117 2.39608,-2.40394 0.929084,-1.48234 1.31464,-3.2211 0.829512,-4.71766zm41.3064 41.7279c-0.258661,-0.798069 0.180052,-1.65528 0.976623,-1.91244 0.798443,-0.257538 1.65416,0.179678 1.91282,0.977746 0.77748,2.39832 0.234704,5.06242 -1.1417,7.2631 -0.84486,1.34833 -2.0094,2.53346 -3.3757,3.37682 -1.40411,0.868442 -3.02083,1.38314 -4.72927,1.36068 -2.37249,-0.0291976 -4.87975,-1.07395 -7.17288,-3.61414 -2.57725,-2.855 -2.84827,-5.52921 -1.89523,-7.66775 0.619514,-1.38614 1.75747,-2.49378 3.11367,-3.24169 1.29892,-0.71946 2.82393,-1.11924 4.27932,-1.11887 2.5211,0.000748657 4.85018,1.14956 5.70664,3.80168 0.83625,2.58998 0.350372,4.43355 -0.745663,5.63402 -0.0299463,0.0321923 -0.0591439,0.0617642 -0.0913362,0.0913362 -0.525932,0.540905 -1.16791,0.925715 -1.86303,1.16042 -0.684647,0.230586 -1.42245,0.323794 -2.13966,0.291228 -1.87613,-0.0834753 -3.72569,-1.04737 -4.389,-2.59559 -0.329035,-0.771117 0.0288233,-1.66426 0.800315,-1.99442 0.770743,-0.329035 1.66389,0.0299463 1.99367,0.801438 0.184918,0.43235 0.921971,0.711973 1.72453,0.748657 0.363473,0.0153475 0.723577,-0.0258287 1.04176,-0.134384 0.247431,-0.0827266 0.469034,-0.208501 0.637107,-0.374329l0.0385558 -0.0434221c0.411013,-0.449194 0.543899,-1.29106 0.101817,-2.66185 -0.379195,-1.17839 -1.53662,-1.68897 -2.81158,-1.68934 -0.9478,-0.000748657 -1.95137,0.265025 -2.8157,0.742294 -0.811544,0.448071 -1.47411,1.07245 -1.80726,1.81999 -0.490745,1.10202 -0.242939,2.60271 1.37491,4.39349 1.65715,1.83533 3.37644,2.58998 4.95087,2.60944 1.10914,0.0134758 2.17036,-0.327163 3.09982,-0.902506 0.965768,-0.595931 1.79303,-1.44117 2.39608,-2.40394 0.929084,-1.48234 1.31464,-3.2211 0.829512,-4.71766zm-43.7201 37.6107c-0.237699,0.802935 -1.08031,1.26186 -1.88325,1.02529 -0.801812,-0.238073 -1.26298,-1.08106 -1.02566,-1.88437 0.711224,-2.41405 2.66035,-4.30553 5.03547,-5.34167 1.45614,-0.635236 3.08484,-0.956035 4.68659,-0.881544 1.64705,0.076363 3.27013,0.564488 4.66526,1.54523 1.93865,1.36143 3.41725,3.63436 3.87468,7.02315 0.514327,3.80655 -0.769245,6.16257 -2.76105,7.38737 -1.29143,0.795448 -2.85388,1.06459 -4.39387,0.919725 -1.4756,-0.142245 -2.95869,-0.673043 -4.15767,-1.49245 -2.07678,-1.4217 -3.34987,-3.68227 -2.56041,-6.35086 0.770368,-2.6072 2.21078,-3.85259 3.79157,-4.22318 0.0411761,-0.0104812 0.0834753,-0.0168448 0.1254,-0.0247057 0.739299,-0.15048 1.48496,-0.102566 2.18907,0.0947051 0.696251,0.194651 1.35582,0.534541 1.92817,0.965393 1.49919,1.12635 2.48105,2.96468 2.15538,4.61435 -0.163207,0.822026 -0.96165,1.35657 -1.7833,1.19186 -0.821277,-0.163207 -1.35582,-0.96165 -1.19261,-1.78293 0.0913362,-0.461547 -0.356735,-1.10726 -0.999083,-1.59015 -0.291228,-0.218234 -0.609781,-0.386681 -0.934699,-0.478018 -0.251549,-0.0692508 -0.504221,-0.0909618 -0.735556,-0.0497857l-0.0565236 0.0149731c-0.591439,0.138502 -1.17614,0.757267 -1.58378,2.13592 -0.351869,1.18737 0.31219,2.25907 1.36443,2.97816 0.780101,0.534167 1.75785,0.881544 2.73971,0.9755 0.918977,0.0879672 1.81961,-0.0527803 2.51399,-0.481387 1.02641,-0.631492 1.66726,-2.00827 1.34459,-4.39724 -0.330906,-2.44699 -1.32325,-4.03713 -2.60832,-4.94076 -0.906998,-0.636733 -1.97383,-0.953789 -3.06388,-1.0047 -1.13272,-0.0527803 -2.29014,0.177432 -3.33152,0.630744 -1.60213,0.69962 -2.90067,1.91469 -3.34313,3.42136zm24.6574 -14.7527c-0.237699,0.802935 -1.08031,1.26186 -1.88325,1.02529 -0.801812,-0.238073 -1.26298,-1.08106 -1.02566,-1.88437 0.711224,-2.41405 2.66035,-4.30553 5.03547,-5.34129 1.45614,-0.635236 3.08484,-0.956035 4.68659,-0.881544 1.64705,0.076363 3.27013,0.564488 4.66526,1.54485 1.93865,1.36143 3.41725,3.63436 3.87468,7.02315 0.514327,3.80655 -0.769245,6.16257 -2.76105,7.38737 -1.29143,0.795448 -2.85388,1.06459 -4.39387,0.919725 -1.4756,-0.142245 -2.95869,-0.673043 -4.15767,-1.49245 -2.07678,-1.4217 -3.34987,-3.68227 -2.56041,-6.35086 0.770368,-2.6072 2.21078,-3.85259 3.79157,-4.22318 0.0411761,-0.0104812 0.0834753,-0.0168448 0.1254,-0.0247057 0.739299,-0.15048 1.48496,-0.102566 2.18907,0.0947051 0.696251,0.194651 1.35582,0.534541 1.92817,0.965393 1.49919,1.12635 2.48105,2.96468 2.15538,4.61435 -0.163207,0.822026 -0.96165,1.35657 -1.7833,1.19186 -0.821277,-0.163207 -1.35582,-0.96165 -1.19261,-1.78293 0.0913362,-0.461547 -0.356735,-1.10726 -0.999083,-1.59015 -0.291228,-0.218234 -0.609781,-0.386681 -0.934699,-0.478018 -0.251549,-0.0692508 -0.504221,-0.0909618 -0.735556,-0.0497857l-0.0565236 0.0149731c-0.591439,0.138502 -1.17614,0.757267 -1.58378,2.13592 -0.351869,1.18737 0.31219,2.25907 1.36443,2.97816 0.780101,0.534167 1.75785,0.881544 2.73971,0.9755 0.918977,0.0879672 1.81961,-0.0527803 2.51399,-0.481387 1.02641,-0.631492 1.66726,-2.00827 1.34459,-4.39724 -0.330906,-2.44699 -1.32325,-4.03713 -2.60832,-4.94076 -0.906998,-0.636733 -1.97383,-0.953789 -3.06388,-1.0047 -1.13272,-0.0527803 -2.29014,0.177432 -3.33152,0.630744 -1.60213,0.69962 -2.90067,1.91469 -3.34313,3.42136zm-24.8318 -45.4648c-0.719834,0.426735 -1.65004,0.188662 -2.07678,-0.531547 -0.426735,-0.719834 -0.188662,-1.65041 0.531547,-2.07715 2.16512,-1.28432 4.88012,-1.34234 7.32524,-0.484756 1.49881,0.525932 2.90966,1.39999 4.03264,2.54581 1.15406,1.17689 2.01052,2.63902 2.36501,4.3074 0.492616,2.31747 0.0269517,4.98905 -1.94426,7.78192 -2.2149,3.13837 -4.75959,3.98959 -7.05235,3.53142 -1.48683,-0.297217 -2.8157,-1.16341 -3.84323,-2.31859 -0.985607,-1.10839 -1.70956,-2.50725 -2.02924,-3.92409 -0.554006,-2.45597 0.0531547,-4.97707 2.44848,-6.39466 2.33806,-1.38352 4.24227,-1.31577 5.65161,-0.511707 0.0378072,0.0213367 0.0737427,0.0437964 0.10893,0.0681278 0.643845,0.392671 1.15705,0.935073 1.53924,1.55983 0.377323,0.616145 0.628498,1.31427 0.754646,2.0195 0.330906,1.84619 -0.201014,3.86045 -1.56245,4.84756 -0.679406,0.49037 -1.62796,0.338019 -2.11833,-0.341388 -0.490745,-0.679032 -0.338393,-1.62796 0.341013,-2.11833 0.381441,-0.276255 0.492242,-1.05486 0.350372,-1.84544 -0.0636359,-0.357109 -0.183795,-0.698123 -0.358981,-0.984484 -0.136256,-0.2231 -0.306949,-0.411387 -0.504595,-0.538659l-0.051283 -0.0277003c-0.528178,-0.30096 -1.37753,-0.246308 -2.61543,0.486627 -1.06496,0.629621 -1.30865,1.86753 -1.02791,3.10992 0.207752,0.92272 0.686893,1.84245 1.34272,2.57912 0.613525,0.690636 1.36855,1.20047 2.16923,1.36031 1.18213,0.236201 2.58811,-0.336147 3.97799,-2.30512 1.42432,-2.01801 1.78068,-3.85783 1.45352,-5.39595 -0.230212,-1.08331 -0.795448,-2.04196 -1.55908,-2.82094 -0.794325,-0.810421 -1.79865,-1.43068 -2.86998,-1.80651 -1.64929,-0.578712 -3.42735,-0.571974 -4.7783,0.229463z"/>
   <path id="_208912664" class="fil11" d="M523.258 294.351c0.719834,0.426735 1.65004,0.188662 2.07678,-0.531547 0.426735,-0.719834 0.188662,-1.65041 -0.531547,-2.07715 -2.16512,-1.28432 -4.88012,-1.34234 -7.32524,-0.484756 -1.49881,0.525932 -2.90966,1.39999 -4.03264,2.54581 -1.15406,1.17689 -2.01052,2.63902 -2.36501,4.3074 -0.492616,2.31747 -0.0269517,4.98905 1.94426,7.78192 2.2149,3.13837 4.75959,3.98959 7.05235,3.53142 1.48683,-0.297217 2.8157,-1.16341 3.84323,-2.31859 0.985607,-1.10839 1.70956,-2.50725 2.02924,-3.92409 0.554006,-2.45597 -0.0531547,-4.97707 -2.44848,-6.39466 -2.33806,-1.38352 -4.24227,-1.31577 -5.65161,-0.511707 -0.0378072,0.0213367 -0.0737427,0.0437964 -0.10893,0.0681278 -0.643845,0.392671 -1.15705,0.935073 -1.53924,1.55983 -0.377323,0.616145 -0.628498,1.31427 -0.754646,2.0195 -0.330906,1.84619 0.201014,3.86045 1.56245,4.84756 0.679406,0.49037 1.62796,0.338019 2.11833,-0.341388 0.490745,-0.679032 0.338393,-1.62796 -0.341013,-2.11833 -0.381441,-0.276255 -0.492242,-1.05486 -0.350372,-1.84544 0.0636359,-0.357109 0.183795,-0.698123 0.358981,-0.984484 0.136256,-0.2231 0.306949,-0.411387 0.504595,-0.538659l0.051283 -0.0277003c0.528178,-0.30096 1.37753,-0.246308 2.61543,0.486627 1.06496,0.629621 1.30865,1.86753 1.02791,3.10992 -0.207752,0.92272 -0.686893,1.84245 -1.34272,2.57912 -0.613525,0.690636 -1.36855,1.20047 -2.16923,1.36031 -1.18213,0.236201 -2.58811,-0.336147 -3.97799,-2.30512 -1.42432,-2.01801 -1.78068,-3.85783 -1.45352,-5.39595 0.230212,-1.08331 0.795448,-2.04196 1.55908,-2.82094 0.794325,-0.810421 1.79865,-1.43068 2.86998,-1.80651 1.64929,-0.578712 3.42735,-0.571974 4.7783,0.229463zm-8.59533 123.746c-0.00336896,-0.715716 -19.6923,3.00062 -41.1054,-13.06 -1.77357,-1.33186 -2.22351,-0.576092 -0.8224,1.00208 21.0047,23.6654 42.7042,13.1124 41.9278,12.0579zm2.38859 -10.9368c-0.00187164,-0.717214 -19.6908,3.00099 -41.1035,-13.0607 -1.77469,-1.33074 -2.22501,-0.57684 -0.82502,1.0017 21.0054,23.6677 42.706,13.1127 41.9285,12.059zm0.944431 -124.492c-0.74716,0.538285 -0.917479,1.58528 -0.377698,2.33394 0.540156,0.748657 1.58566,0.915233 2.33356,0.378446 3.43971,-2.48517 4.15767,-5.82642 3.34313,-8.82629 -0.394168,-1.4509 -1.16117,-2.80821 -2.15389,-3.92858 -1.00807,-1.13571 -2.25271,-2.03597 -3.5827,-2.55142 -2.56265,-0.994965 -5.40793,-0.661439 -7.60898,1.90833 -0.205132,0.23957 -0.411387,0.508338 -0.610904,0.802186 -0.939939,1.37117 -1.53437,3.01147 -1.64255,4.53611 -0.121657,1.74437 0.365719,3.38243 1.6463,4.47959 0.0258287,0.0213367 0.0505344,0.0430478 0.0778603,0.0621385 0.0943308,0.076363 0.19802,0.154598 0.30957,0.230212 2.22651,1.52464 4.40323,1.31651 6.02295,0.349249 0.600423,-0.355986 1.11887,-0.821651 1.52951,-1.34272 0.417751,-0.530424 0.731812,-1.12935 0.915982,-1.74587 0.440959,-1.48983 0.140748,-3.0388 -1.18999,-4.06409 -0.730315,-0.565985 -1.78106,-0.430478 -2.34592,0.297217 -0.566359,0.730689 -0.431975,1.7818 0.296094,2.34891 0.0947051,0.0711224 0.0943308,0.256415 0.0291976,0.470905 -0.0591439,0.20326 -0.174063,0.414756 -0.335398,0.618391 -0.166576,0.210373 -0.376949,0.399034 -0.616145,0.544274 -0.612027,0.361227 -1.47074,0.410264 -2.41704,-0.235078 -0.0202137,-0.0142245 -0.0408018,-0.0314436 -0.0632615,-0.0509087l-0.0314436 -0.0277003c-0.39604,-0.339142 -0.539782,-0.969511 -0.487376,-1.69945 0.0673791,-0.949672 0.449569,-1.9933 1.0601,-2.88008 0.112673,-0.16171 0.244437,-0.33465 0.395665,-0.514702 1.11512,-1.29892 2.55479,-1.46924 3.85259,-0.965019 0.841116,0.327538 1.63731,0.904004 2.28939,1.63806 0.665182,0.749406 1.17614,1.64817 1.43368,2.59934 0.473151,1.74849 0.0205881,3.72382 -2.07228,5.23461zm-34.9133 66.0922c-0.536413,0.385184 -0.658444,1.13496 -0.271014,1.67213 0.387804,0.537536 1.13721,0.656947 1.67325,0.271388 2.46645,-1.7818 2.98078,-4.17601 2.39645,-6.3269 -0.281495,-1.03988 -0.831758,-2.01276 -1.54336,-2.81682 -0.723952,-0.813416 -1.61598,-1.45988 -2.56902,-1.8286 -1.83833,-0.713845 -3.87655,-0.474274 -5.45509,1.36817 -0.146737,0.171068 -0.293848,0.363847 -0.437964,0.574969 -0.673791,0.982987 -1.10053,2.15875 -1.17689,3.25104 -0.0883415,1.25026 0.26203,2.42602 1.17951,3.21249 0.0198394,0.0142245 0.0366842,0.0306949 0.0561493,0.0437964 0.0673791,0.055775 0.142619,0.112299 0.222726,0.165453 1.59651,1.09267 3.15484,0.943682 4.31713,0.2508 0.429355,-0.256041 0.802935,-0.588819 1.09641,-0.962773 0.299089,-0.379944 0.524434,-0.810421 0.656198,-1.25101 0.316682,-1.06871 0.101069,-2.17897 -0.853844,-2.9149 -0.522563,-0.406147 -1.27571,-0.308447 -1.68111,0.212619 -0.406147,0.524809 -0.308821,1.27833 0.212244,1.68485 0.0685021,0.0505344 0.0685021,0.18417 0.0209624,0.338019 -0.0422991,0.145614 -0.124277,0.297591 -0.239945,0.442456 -0.119785,0.150854 -0.269517,0.287484 -0.442456,0.39005 -0.43759,0.25941 -1.05336,0.294222 -1.73239,-0.168074 -0.0131015,-0.0108555 -0.029572,-0.0220854 -0.0449194,-0.0359355l-0.022834 -0.0194651c-0.283741,-0.243314 -0.38743,-0.696251 -0.348126,-1.21881 0.0475397,-0.681278 0.321174,-1.42881 0.759887,-2.06555 0.078609,-0.115668 0.174063,-0.23957 0.282244,-0.368714 0.800315,-0.930207 1.83309,-1.05336 2.76217,-0.692508 0.602669,0.235453 1.17389,0.648711 1.64181,1.17539 0.47652,0.537162 0.842988,1.18176 1.02865,1.86303 0.338019,1.254 0.0134758,2.66934 -1.48683,3.75339zm45.7272 -3.05677c-0.701866,-0.191282 -1.42207,0.223849 -1.61336,0.923843 -0.190908,0.69962 0.2231,1.42207 0.923094,1.61223 4.91194,1.33673 8.56052,-0.500477 10.7346,-3.50035 1.0732,-1.48047 1.7717,-3.24431 2.06966,-5.03921 0.29834,-1.79902 0.198394,-3.65045 -0.328286,-5.299 -0.98149,-3.07436 -3.38019,-5.42252 -7.35032,-5.53782 -0.392671,-0.0119785 -0.802561,0.000748657 -1.22518,0.0359355 -2.00341,0.156844 -3.99371,0.840742 -5.50001,1.89186 -1.64967,1.15143 -2.76142,2.75431 -2.81533,4.64467 -0.00112299,0.028449 -0.00149731,0.0576466 -0.00112299,0.0860956 -0.00112299,0.14786 0.00374329,0.300212 0.0164705,0.456681 0.247431,3.09457 1.98694,4.88723 4.00569,5.63215 0.756144,0.281495 1.54635,0.409141 2.30474,0.401655 0.765876,-0.00973254 1.51828,-0.160213 2.1857,-0.435718 1.55758,-0.639353 2.65998,-1.93191 2.61581,-3.71708 -0.0168448,-0.729192 -0.621011,-1.30379 -1.3502,-1.28507 -0.7247,0.0153475 -1.30042,0.622508 -1.28357,1.34796 0.0131015,0.552883 -0.397163,0.980367 -0.976623,1.21919 -0.357109,0.146737 -0.776732,0.22834 -1.22368,0.233207 -0.454435,0.00561493 -0.920848,-0.0699994 -1.35694,-0.230961 -1.15069,-0.425237 -2.14902,-1.4917 -2.2995,-3.37832 -0.00336896,-0.0643845 -0.00711224,-0.127646 -0.00711224,-0.193528l0.00299463 -0.0561493c0.0280746,-0.9755 0.697374,-1.8679 1.69159,-2.56303 1.13758,-0.792828 2.6596,-1.3109 4.20596,-1.43368 0.296468,-0.0220854 0.608658,-0.0318179 0.933201,-0.0220854 2.65474,0.0771117 4.26098,1.64929 4.92018,3.70398 0.393419,1.23978 0.46529,2.66185 0.231335,4.06671 -0.234704,1.41122 -0.77486,2.78201 -1.60025,3.92334 -1.57967,2.17972 -4.26285,3.50559 -7.90956,2.51249zm-62.0854 -37.1925c0.201763,-0.780101 -0.268768,-1.57255 -1.047,-1.7717 -0.779726,-0.201389 -1.57181,0.267271 -1.77207,1.04513 -1.40411,5.4622 0.685396,9.478 4.0405,11.8351 1.65528,1.16641 3.62051,1.91469 5.60969,2.21528 2.00041,0.302458 4.04911,0.163956 5.86461,-0.445077 3.3888,-1.13272 5.9537,-3.82377 6.02108,-8.22362 0.00860956,-0.433098 -0.0138502,-0.88903 -0.0572723,-1.35582 -0.205506,-2.21603 -0.992345,-4.40772 -2.18084,-6.06075 -1.30117,-1.8095 -3.09195,-3.01784 -5.18632,-3.04554 -0.0318179,-0.00411761 -0.0636359,-0.0026203 -0.0954538,-0.00149731 -0.166576,0.000748657 -0.334275,0.00748657 -0.504969,0.026203 -3.42398,0.320425 -5.38322,2.2733 -6.17605,4.52002 -0.299089,0.844111 -0.428232,1.71779 -0.409141,2.55629 0.0220854,0.8501 0.199143,1.67961 0.515076,2.41629 0.733684,1.7148 2.18046,2.91565 4.1543,2.83928 0.809673,-0.0318179 1.4378,-0.708978 1.4056,-1.51641 -0.028449,-0.801063 -0.708604,-1.42769 -1.51266,-1.39812 -0.612776,0.0209624 -1.09416,-0.424489 -1.3678,-1.06309 -0.165453,-0.394168 -0.263153,-0.856464 -0.275132,-1.35095 -0.0138502,-0.503098 0.0621385,-1.02341 0.232832,-1.50817 0.454435,-1.27871 1.62271,-2.40469 3.70997,-2.59709 0.0718711,-0.00411761 0.141871,-0.00935821 0.212993,-0.00898389l0.0610156 -0.000748657c1.08069,0.0164705 2.0794,0.743791 2.86249,1.83496 0.898763,1.24764 1.49282,2.92837 1.65453,4.63606 0.0254543,0.328286 0.0445451,0.674166 0.0370585,1.0339 -0.0445451,2.9396 -1.75934,4.74461 -4.02291,5.50525 -1.37079,0.454435 -2.94409,0.553258 -4.5043,0.315185 -1.56507,-0.236201 -3.08933,-0.812293 -4.36729,-1.71143 -2.43875,-1.71742 -3.94617,-4.66526 -2.90254,-8.71998zm37.8356 11.8048c-0.643471,0.338019 -0.889405,1.13272 -0.553258,1.77581 0.336896,0.641225 1.13272,0.888656 1.77394,0.55176 4.50804,-2.36463 5.93011,-6.19402 5.48017,-9.87217 -0.222726,-1.81475 -0.911864,-3.58195 -1.91769,-5.09985 -1.00432,-1.5209 -2.33881,-2.81008 -3.84698,-3.65869 -2.81046,-1.58229 -6.16706,-1.66913 -9.15383,0.948549 -0.294222,0.259035 -0.586947,0.548391 -0.872934,0.86133 -1.35994,1.47897 -2.35228,3.33452 -2.73896,5.13017 -0.424489,1.96785 -0.14786,3.89788 1.09903,5.31958 0.0194651,0.0209624 0.0385558,0.0434221 0.0583953,0.0625129 0.0999457,0.110427 0.207378,0.218234 0.322671,0.32342 2.2879,2.10036 4.78429,2.22613 6.76861,1.39812 0.745288,-0.309195 1.41159,-0.753149 1.96111,-1.27496 0.555129,-0.528926 1.0032,-1.15069 1.30528,-1.80688 0.704861,-1.52951 0.631492,-3.22559 -0.614648,-4.50504 -0.509836,-0.521814 -1.34384,-0.531172 -1.86453,-0.0213367 -0.520691,0.506467 -0.530049,1.34197 -0.0220854,1.86191 0.385933,0.396414 0.376575,0.988976 0.114919,1.55721 -0.16171,0.35112 -0.414756,0.697 -0.738925,1.0047 -0.329035,0.312564 -0.720957,0.576092 -1.15069,0.755769 -1.13197,0.470531 -2.58998,0.369462 -3.9851,-0.910741 -0.0445451,-0.0437964 -0.0902132,-0.0883415 -0.135507,-0.136256l-0.0366842 -0.0445451c-0.642722,-0.732561 -0.760261,-1.8402 -0.504969,-3.0257 0.293099,-1.35619 1.05561,-2.7719 2.10373,-3.91398 0.201763,-0.219357 0.425612,-0.438339 0.668925,-0.652829 1.99704,-1.75148 4.24376,-1.69346 6.12476,-0.63561 1.13234,0.63823 2.15276,1.63207 2.93811,2.81982 0.788336,1.19111 1.32737,2.56602 1.49919,3.96302 0.327163,2.67271 -0.734807,5.46969 -4.08205,7.22492zm-14.9657 -28.8809c-0.643471,0.338019 -0.889405,1.13272 -0.553258,1.77581 0.336896,0.641225 1.13272,0.888656 1.77394,0.55176 4.50804,-2.36463 5.93011,-6.19402 5.48017,-9.87217 -0.222726,-1.81475 -0.911864,-3.58195 -1.91769,-5.09985 -1.00432,-1.5209 -2.33881,-2.81008 -3.84698,-3.65869 -2.81046,-1.58229 -6.16706,-1.66913 -9.15383,0.948549 -0.294222,0.259035 -0.586947,0.548391 -0.872934,0.86133 -1.35994,1.47897 -2.35228,3.33452 -2.73896,5.13017 -0.424489,1.96785 -0.14786,3.89788 1.09903,5.31958 0.0194651,0.0209624 0.0385558,0.0434221 0.0583953,0.0625129 0.0999457,0.110427 0.207378,0.218234 0.322671,0.32342 2.2879,2.10036 4.78429,2.22613 6.76861,1.39812 0.745288,-0.309195 1.41159,-0.753149 1.96111,-1.27496 0.555129,-0.528926 1.0032,-1.15069 1.30528,-1.80688 0.704861,-1.52951 0.631492,-3.22559 -0.614648,-4.50504 -0.509836,-0.521814 -1.34384,-0.531172 -1.86453,-0.0213367 -0.520691,0.506467 -0.530049,1.34197 -0.0220854,1.86191 0.385933,0.396414 0.376575,0.988976 0.114919,1.55721 -0.16171,0.35112 -0.414756,0.697 -0.738925,1.0047 -0.329035,0.312564 -0.720957,0.576092 -1.15069,0.755769 -1.13197,0.470531 -2.58998,0.369462 -3.9851,-0.910741 -0.0445451,-0.0437964 -0.0902132,-0.0883415 -0.135507,-0.136256l-0.0366842 -0.0445451c-0.642722,-0.732561 -0.760261,-1.8402 -0.504969,-3.0257 0.293099,-1.35619 1.05561,-2.7719 2.10373,-3.91398 0.201763,-0.219357 0.425612,-0.438339 0.668925,-0.652829 1.99704,-1.75148 4.24376,-1.69346 6.12476,-0.63561 1.13234,0.63823 2.15276,1.63207 2.93811,2.81982 0.788336,1.19111 1.32737,2.56602 1.49919,3.96302 0.327163,2.67271 -0.734807,5.46969 -4.08205,7.22492zm46.6777 -1.25812c0.258661,-0.798069 -0.180052,-1.65528 -0.976623,-1.91244 -0.798443,-0.257538 -1.65416,0.179678 -1.91282,0.977746 -0.77748,2.39832 -0.234704,5.06242 1.1417,7.2631 0.84486,1.34833 2.0094,2.53346 3.3757,3.37682 1.40411,0.868442 3.02083,1.38314 4.72927,1.36068 2.37249,-0.0291976 4.87975,-1.07395 7.17288,-3.61414 2.57725,-2.855 2.84827,-5.52921 1.89523,-7.66775 -0.619514,-1.38614 -1.75747,-2.49378 -3.11367,-3.24169 -1.29892,-0.71946 -2.82393,-1.11924 -4.27932,-1.11887 -2.5211,0.000748657 -4.85018,1.14956 -5.70664,3.80168 -0.83625,2.58998 -0.350372,4.43355 0.745663,5.63402 0.0299463,0.0321923 0.0591439,0.0617642 0.0913362,0.0913362 0.525932,0.540905 1.16791,0.925715 1.86303,1.16042 0.684647,0.230586 1.42245,0.323794 2.13966,0.291228 1.87613,-0.0834753 3.72569,-1.04737 4.389,-2.59559 0.329035,-0.771117 -0.0288233,-1.66426 -0.800315,-1.99442 -0.770743,-0.329035 -1.66389,0.0299463 -1.99367,0.801438 -0.184918,0.43235 -0.921971,0.711973 -1.72453,0.748657 -0.363473,0.0153475 -0.723577,-0.0258287 -1.04176,-0.134384 -0.247431,-0.0827266 -0.469034,-0.208501 -0.637107,-0.374329l-0.0385558 -0.0434221c-0.411013,-0.449194 -0.543899,-1.29106 -0.101817,-2.66185 0.379195,-1.17839 1.53662,-1.68897 2.81158,-1.68934 0.9478,-0.000748657 1.95137,0.265025 2.8157,0.742294 0.811544,0.448071 1.47411,1.07245 1.80726,1.81999 0.490745,1.10202 0.242939,2.60271 -1.37491,4.39349 -1.65715,1.83533 -3.37644,2.58998 -4.95087,2.60944 -1.10914,0.0134758 -2.17036,-0.327163 -3.09982,-0.902506 -0.965768,-0.595931 -1.79303,-1.44117 -2.39608,-2.40394 -0.929084,-1.48234 -1.31464,-3.2211 -0.829512,-4.71766zm-41.3064 41.7279c0.258661,-0.798069 -0.180052,-1.65528 -0.976623,-1.91244 -0.798443,-0.257538 -1.65416,0.179678 -1.91282,0.977746 -0.77748,2.39832 -0.234704,5.06242 1.1417,7.2631 0.84486,1.34833 2.0094,2.53346 3.3757,3.37682 1.40411,0.868442 3.02083,1.38314 4.72927,1.36068 2.37249,-0.0291976 4.87975,-1.07395 7.17288,-3.61414 2.57725,-2.855 2.84827,-5.52921 1.89523,-7.66775 -0.619514,-1.38614 -1.75747,-2.49378 -3.11367,-3.24169 -1.29892,-0.71946 -2.82393,-1.11924 -4.27932,-1.11887 -2.5211,0.000748657 -4.85018,1.14956 -5.70664,3.80168 -0.83625,2.58998 -0.350372,4.43355 0.745663,5.63402 0.0299463,0.0321923 0.0591439,0.0617642 0.0913362,0.0913362 0.525932,0.540905 1.16791,0.925715 1.86303,1.16042 0.684647,0.230586 1.42245,0.323794 2.13966,0.291228 1.87613,-0.0834753 3.72569,-1.04737 4.389,-2.59559 0.329035,-0.771117 -0.0288233,-1.66426 -0.800315,-1.99442 -0.770743,-0.329035 -1.66389,0.0299463 -1.99367,0.801438 -0.184918,0.43235 -0.921971,0.711973 -1.72453,0.748657 -0.363473,0.0153475 -0.723577,-0.0258287 -1.04176,-0.134384 -0.247431,-0.0827266 -0.469034,-0.208501 -0.637107,-0.374329l-0.0385558 -0.0434221c-0.411013,-0.449194 -0.543899,-1.29106 -0.101817,-2.66185 0.379195,-1.17839 1.53662,-1.68897 2.81158,-1.68934 0.9478,-0.000748657 1.95137,0.265025 2.8157,0.742294 0.811544,0.448071 1.47411,1.07245 1.80726,1.81999 0.490745,1.10202 0.242939,2.60271 -1.37491,4.39349 -1.65715,1.83533 -3.37644,2.58998 -4.95087,2.60944 -1.10914,0.0134758 -2.17036,-0.327163 -3.09982,-0.902506 -0.965768,-0.595931 -1.79303,-1.44117 -2.39608,-2.40394 -0.929084,-1.48234 -1.31464,-3.2211 -0.829512,-4.71766zm43.7205 37.6107c0.237699,0.802935 1.08031,1.26186 1.88325,1.02529 0.801812,-0.238073 1.26298,-1.08106 1.02566,-1.88437 -0.711224,-2.41405 -2.66035,-4.30553 -5.03547,-5.34167 -1.45614,-0.635236 -3.08484,-0.956035 -4.68659,-0.881544 -1.64705,0.076363 -3.27013,0.564488 -4.66526,1.54523 -1.93865,1.36143 -3.41725,3.63436 -3.87468,7.02315 -0.514327,3.80655 0.769245,6.16257 2.76105,7.38737 1.29143,0.795448 2.85388,1.06459 4.39387,0.919725 1.4756,-0.142245 2.95869,-0.673043 4.15767,-1.49245 2.07678,-1.4217 3.34987,-3.68227 2.56041,-6.35086 -0.770368,-2.6072 -2.21078,-3.85259 -3.79157,-4.22318 -0.0411761,-0.0104812 -0.0834753,-0.0168448 -0.1254,-0.0247057 -0.739299,-0.15048 -1.48496,-0.102566 -2.18907,0.0947051 -0.696251,0.194651 -1.35582,0.534541 -1.92817,0.965393 -1.49919,1.12635 -2.48105,2.96468 -2.15538,4.61435 0.163207,0.822026 0.96165,1.35657 1.7833,1.19186 0.821277,-0.163207 1.35582,-0.96165 1.19261,-1.78293 -0.0913362,-0.461547 0.356735,-1.10726 0.999083,-1.59015 0.291228,-0.218234 0.609781,-0.386681 0.934699,-0.478018 0.251549,-0.0692508 0.504221,-0.0909618 0.735556,-0.0497857l0.0565236 0.0149731c0.591439,0.138502 1.17614,0.757267 1.58378,2.13592 0.351869,1.18737 -0.31219,2.25907 -1.36443,2.97816 -0.780101,0.534167 -1.75785,0.881544 -2.73971,0.9755 -0.918977,0.0879672 -1.81961,-0.0527803 -2.51399,-0.481387 -1.02641,-0.631492 -1.66726,-2.00827 -1.34459,-4.39724 0.330906,-2.44699 1.32325,-4.03713 2.60832,-4.94076 0.906998,-0.636733 1.97383,-0.953789 3.06388,-1.0047 1.13272,-0.0527803 2.29014,0.177432 3.33152,0.630744 1.60213,0.69962 2.90067,1.91469 3.34313,3.42136zm-24.6574 -14.7527c0.237699,0.802935 1.08031,1.26186 1.88325,1.02529 0.801812,-0.238073 1.26298,-1.08106 1.02566,-1.88437 -0.711224,-2.41405 -2.66035,-4.30553 -5.03547,-5.34129 -1.45614,-0.635236 -3.08484,-0.956035 -4.68659,-0.881544 -1.64705,0.076363 -3.27013,0.564488 -4.66526,1.54485 -1.93865,1.36143 -3.41725,3.63436 -3.87468,7.02315 -0.514327,3.80655 0.769245,6.16257 2.76105,7.38737 1.29143,0.795448 2.85388,1.06459 4.39387,0.919725 1.4756,-0.142245 2.95869,-0.673043 4.15767,-1.49245 2.07678,-1.4217 3.34987,-3.68227 2.56041,-6.35086 -0.770368,-2.6072 -2.21078,-3.85259 -3.79157,-4.22318 -0.0411761,-0.0104812 -0.0834753,-0.0168448 -0.1254,-0.0247057 -0.739299,-0.15048 -1.48496,-0.102566 -2.18907,0.0947051 -0.696251,0.194651 -1.35582,0.534541 -1.92817,0.965393 -1.49919,1.12635 -2.48105,2.96468 -2.15538,4.61435 0.163207,0.822026 0.96165,1.35657 1.7833,1.19186 0.821277,-0.163207 1.35582,-0.96165 1.19261,-1.78293 -0.0913362,-0.461547 0.356735,-1.10726 0.999083,-1.59015 0.291228,-0.218234 0.609781,-0.386681 0.934699,-0.478018 0.251549,-0.0692508 0.504221,-0.0909618 0.735556,-0.0497857l0.0565236 0.0149731c0.591439,0.138502 1.17614,0.757267 1.58378,2.13592 0.351869,1.18737 -0.31219,2.25907 -1.36443,2.97816 -0.780101,0.534167 -1.75785,0.881544 -2.73971,0.9755 -0.918977,0.0879672 -1.81961,-0.0527803 -2.51399,-0.481387 -1.02641,-0.631492 -1.66726,-2.00827 -1.34459,-4.39724 0.330906,-2.44699 1.32325,-4.03713 2.60832,-4.94076 0.906998,-0.636733 1.97383,-0.953789 3.06388,-1.0047 1.13272,-0.0527803 2.29014,0.177432 3.33152,0.630744 1.60213,0.69962 2.90067,1.91469 3.34313,3.42136zm24.8318 -45.4648c0.719834,0.426735 1.65004,0.188662 2.07678,-0.531547 0.426735,-0.719834 0.188662,-1.65041 -0.531547,-2.07715 -2.16512,-1.28432 -4.88012,-1.34234 -7.32524,-0.484756 -1.49881,0.525932 -2.90966,1.39999 -4.03264,2.54581 -1.15406,1.17689 -2.01052,2.63902 -2.36501,4.3074 -0.492616,2.31747 -0.0269517,4.98905 1.94426,7.78192 2.2149,3.13837 4.75959,3.98959 7.05235,3.53142 1.48683,-0.297217 2.8157,-1.16341 3.84323,-2.31859 0.985607,-1.10839 1.70956,-2.50725 2.02924,-3.92409 0.554006,-2.45597 -0.0531547,-4.97707 -2.44848,-6.39466 -2.33806,-1.38352 -4.24227,-1.31577 -5.65161,-0.511707 -0.0378072,0.0213367 -0.0737427,0.0437964 -0.10893,0.0681278 -0.643845,0.392671 -1.15705,0.935073 -1.53924,1.55983 -0.377323,0.616145 -0.628498,1.31427 -0.754646,2.0195 -0.330906,1.84619 0.201014,3.86045 1.56245,4.84756 0.679406,0.49037 1.62796,0.338019 2.11833,-0.341388 0.490745,-0.679032 0.338393,-1.62796 -0.341013,-2.11833 -0.381441,-0.276255 -0.492242,-1.05486 -0.350372,-1.84544 0.0636359,-0.357109 0.183795,-0.698123 0.358981,-0.984484 0.136256,-0.2231 0.306949,-0.411387 0.504595,-0.538659l0.051283 -0.0277003c0.528178,-0.30096 1.37753,-0.246308 2.61543,0.486627 1.06496,0.629621 1.30865,1.86753 1.02791,3.10992 -0.207752,0.92272 -0.686893,1.84245 -1.34272,2.57912 -0.613525,0.690636 -1.36855,1.20047 -2.16923,1.36031 -1.18213,0.236201 -2.58811,-0.336147 -3.97799,-2.30512 -1.42432,-2.01801 -1.78068,-3.85783 -1.45352,-5.39595 0.230212,-1.08331 0.795448,-2.04196 1.55908,-2.82094 0.794325,-0.810421 1.79865,-1.43068 2.86998,-1.80651 1.64929,-0.578712 3.42735,-0.571974 4.7783,0.229463z"/>
   <polygon id="_208911728" class="fil1" points="183.804,260.812 230.716,271.576 185.069,270.936 "/>
   <polygon id="_208914848" class="fil1" points="367.067,149.664 379.833,159.491 384.77,172.425 384.568,155.862 372.335,143.132 "/>
   <path id="_208914944" class="fil1" d="M377.922 133.818l14.9365 12.2016 -10.5186 -17.1454c0,0 -4.52301,4.83857 -4.41783,4.94376z"/>
  </g>
 </g>
</svg>
