<?xml version="1.0" encoding="UTF-8"?>
<!DOCTYPE svg PUBLIC "-//W3C//DTD SVG 1.1//EN" "http://www.w3.org/Graphics/SVG/1.1/DTD/svg11.dtd">
<!-- Creator: CorelDRAW -->
<svg xmlns="http://www.w3.org/2000/svg" xml:space="preserve" width="161.908mm" height="176.792mm" style="shape-rendering:geometricPrecision; text-rendering:geometricPrecision; image-rendering:optimizeQuality; fill-rule:evenodd; clip-rule:evenodd"
viewBox="0 0 68.476 74.7707"
 xmlns:xlink="http://www.w3.org/1999/xlink">
 <defs>
  <style type="text/css">
   <![CDATA[
    .fil0 {fill:none}
    .fil6 {fill:#359199}
    .fil5 {fill:#47BAB6}
    .fil1 {fill:#501D33}
    .fil11 {fill:#525B75}
    .fil10 {fill:#65798E}
    .fil7 {fill:#79E4C5}
    .fil8 {fill:#C9C7D2}
    .fil4 {fill:#D77D75}
    .fil2 {fill:#FFCFA5}
    .fil3 {fill:white}
    .fil9 {fill:#501D33;fill-rule:nonzero}
   ]]>
  </style>
 </defs>
 <g id="Слой_x0020_1">
  <metadata id="CorelCorpID_0Corel-Layer"/>
  <g id="_167006128">
   <rect id="_119805880" class="fil0" width="68.476" height="74.7707"/>
   <path id="_119805808" class="fil1" d="M15.5808 32.5466l2.03074 -0.34583 -0.0879696 -0.395525 -2.01865 0.174543c0,0 -0.0747318,0.275243 0.0758737,0.566812zm-7.52546 5.50207c0.0310431,0.123707 -0.0440694,0.249318 -0.167777,0.280445 -0.123665,0.0310854 -0.249318,-0.0440271 -0.280403,-0.167734 -0.0311277,-0.123665 0.0440271,-0.249318 0.167734,-0.280403 0.123665,-0.0311277 0.249318,0.0440271 0.280445,0.167692zm-1.44274 -6.80178l-2.03074 -0.345873 0.0879696 -0.395525 2.01865 0.174543c0,0 0.0747318,0.275243 -0.0758737,0.566854zm-0.67449 3.27949l-1.37406 0.092072 -0.00452536 -0.270887 1.33951 -0.201526c0,0 0.0915222,0.167269 0.0390788,0.380341zm0.379792 3.53667l-1.55858 0.466915 -0.0763813 -0.310812 1.48998 -0.583898c0,0 0.149379,0.16858 0.144981,0.427794zm0.436084 -4.40279l-2.3089 -0.233246 0.0685993 -0.451309 2.28222 0.0416587c0,0 0.105098,0.303622 -0.0419124,0.642897zm8.68539 1.29975l2.3089 -0.233246 -0.0685993 -0.451309 -2.28222 0.0416164c0,0 -0.105098,0.303664 0.0419124,0.642939zm0.545877 1.03546l1.62655 0.0392903 -0.00833173 -0.319947 -1.59123 -0.17023c0,0 -0.0996424,0.202076 -0.026983,0.450886z"/>
   <path id="_119543888" class="fil1" d="M18.7064 7.75634c-7.06138,3.16851 -12.8496,15.4169 -13.3654,21.8686 -0.591003,7.39105 -0.499439,11.889 3.81158,20.9186 0,0 0.937553,1.9251 4.14138,1.14555 1.44473,0.122396 2.87754,-0.380553 3.56349,-1.36429 0.0166635,-0.0238956 1.8024,-0.27888 2.66171,-1.11535 0.389773,-0.379453 0.637399,-0.716825 0.497282,-1.40722 -0.183425,-0.903887 -0.454227,-2.0107 -0.454227,-2.0107 0,0 1.59339,-1.58844 1.33249,-2.2642 -0.260906,-0.675758 -3.51921,-3.49954 -3.52462,-3.52661 -2.23582,-10.252 -0.0433504,-18.9975 5.8139,-26.0616l4.70586 -6.23108c-2.36406,-0.698005 -6.67634,-1.0767 -9.18339,0.0482564l-4.22931e-005 4.22931e-005 -4.22931e-005 0z"/>
   <path id="_119543816" class="fil2" d="M19.4169 17.384l6.8785 -9.51742c-4.6848,-0.206728 -7.37722,-0.00372179 -10.7871,3.49336 -4.84962,4.97383 -8.33655,12.4767 -9.20458,19.4215 -0.873352,6.9902 0.460445,13.1195 3.69574,19.4573 0,0 0.392818,1.15672 2.86823,0.87056 0,0 -0.719912,-1.2737 -0.671149,-1.38362 0.0488062,-0.110047 1.2545,1.27975 1.2545,1.27975 0,0 1.52314,0.00554039 2.76685,-1.06756 0,0 0.00507517,-1.72061 0.113007,-1.71668 0.107932,0.00393325 0.454016,1.27395 0.454016,1.27395l1.62638 -0.429486c0.743004,-0.349341 0.975236,-0.404829 0.773455,-1.32508 -0.154031,-0.702995 -0.411469,-1.88868 -0.977519,-3.87916 0.156188,-0.184102 0.534246,0.680411 0.811054,1.15545 0,0 0.890396,-0.983187 0.852247,-1.31823 -0.0379369,-0.335172 -3.15608,-2.75924 -3.15608,-2.75924 -2.51974,-7.90601 -0.815495,-17.3499 2.70236,-23.5552l0 -8.45861e-005 4.22931e-005 -8.45861e-005z"/>
   <path id="_119543744" class="fil3" d="M18.2851 9.12126c-0.909089,0.527098 -1.81446,1.25149 -2.77692,2.23857 -4.84962,4.97383 -8.33655,12.4767 -9.20458,19.4215 -0.873352,6.9902 0.460445,13.1195 3.69574,19.4573 0,0 0.0334961,0.097697 0.14147,0.229398 0.715006,-0.0998116 1.43826,-0.26209 2.14751,-0.463447 -0.0651313,-0.14312 -0.104591,-0.250417 -0.0919028,-0.279007 0.0144642,-0.0326502 0.130897,0.0665693 0.287297,0.222461 1.37926,-0.406775 2.69665,-0.953835 3.78451,-1.46617 0.0155638,-0.157542 0.0359068,-0.261752 0.0625514,-0.260779 0.0240648,0.000888154 0.0565035,0.0740974 0.0922412,0.187358 1.43331,-0.684175 2.43583,-1.28964 2.60085,-1.39076l-0.00143796 -0.00630167c-3.16995,1.08905 -8.52184,1.63408 -8.52184,1.63408 -7.22107,-14.8549 -2.21493,-30.6961 7.7845,-39.524l0 -4.22931e-005 0 -4.22931e-005 0 -0.000126879z"/>
   <path id="_119544464" class="fil4" d="M19.4169 17.384l0.171837 -0.237772c-0.0452113,-0.0254181 -0.089915,-0.053543 -0.135549,-0.0758737 0,0 -12.1206,13.7476 -0.458837,31.6956 0.267715,-0.187189 0.323796,-0.417559 0.190488,-1.02556 -0.154031,-0.702995 -0.411469,-1.88868 -0.977519,-3.87916 0.156188,-0.184102 0.534246,0.680411 0.811054,1.15545 0,0 0.890396,-0.983187 0.852247,-1.31823 -0.0379369,-0.335172 -3.15608,-2.75924 -3.15608,-2.75924 -2.51974,-7.90601 -0.815495,-17.3499 2.70236,-23.5552l0 -8.45861e-005 0 8.45861e-005z"/>
   <path id="_119543312" class="fil1" d="M8.14772 26.265c-3.15756,-0.356361 -3.97204,3.12546 -1.18619,4.29072l1.18619 -4.29072z"/>
   <path id="_119543600" class="fil2" d="M6.96211 30.5737c-1.02975,-1.60477 -1.05606,-3.37845 1.18497,-4.33394 0,0 0.637652,3.14724 -1.18497,4.33394z"/>
   <path id="_119543528" class="fil3" d="M7.06912 30.7063c-1.24676,-1.58887 -1.26088,-3.55114 1.1593,-4.51313 -0.961829,0.643193 -1.75546,2.68316 -1.11633,4.38198l-0.0429697 0.131151z"/>
   <path id="_119543456" class="fil3" d="M8.02223 26.8591c0.275455,0.171287 0.272494,0.674151 -0.00655542,1.12288 -0.279134,0.448772 -0.728836,0.673771 -1.00429,0.502484 -0.275412,-0.171287 -0.272452,-0.674151 0.00664001,-1.12292 0.279092,-0.448729 0.728794,-0.673728 1.00421,-0.502442z"/>
   <path id="_119543096" class="fil2" d="M19.2861 43.7129c0,0 -0.511027,-1.05771 -1.81831,-1.72323 -1.30728,-0.665524 0.903211,1.747 1.81831,1.72323z"/>
   <path id="_119543024" class="fil4" d="M9.85991 49.9615c0.0460571,0.0924103 0.0924526,0.184905 0.139525,0.27702 0,0 0.392818,1.15667 2.86806,0.870518 0,0 -0.719743,-1.27361 -0.670979,-1.3837 0.0487639,-0.110089 1.25458,1.28008 1.25458,1.28008 0,0 1.52306,0.00532893 2.76668,-1.0679 0,0 0.00507517,-1.72069 0.113092,-1.71676 0.107974,0.00393325 0.37091,1.40506 0.37091,1.40506 0.838841,-0.111611 1.80202,-0.417432 2.36731,-0.918309 0.202288,-0.179196 0.23553,-0.420985 0.115672,-0.967327 -0.0514284,-0.234388 -0.114191,-0.522615 -0.196155,-0.876185 -4.69529,2.10928 -7.69653,2.84395 -9.12875,3.0975l4.22931e-005 0z"/>
   <path id="_88446128" class="fil4" d="M10.1197 27.8107c0,0 0,1.57153 -2.11918,2.42872 0,0 1.40485,-0.047622 2.00012,-0.619086 0.595275,-0.571464 0.119055,-1.80964 0.119055,-1.80964z"/>
   <path id="_119541680" class="fil1" d="M21.5317 38.627c-1.24126,-7.61106 -1.98959,-20.4407 -2.74689,-26.3764 1.34213,-5.52631 11.8988,-3.83171 15.495,-3.08422 3.59609,-0.747488 14.1528,-2.44209 15.4949,3.08422 -0.757299,5.93596 -1.52961,18.7418 -2.77087,26.3527 -6.75437,2.56863 -18.7175,2.5924 -25.4723,0.023811l4.22931e-005 0 8.45861e-005 -8.45861e-005 4.22931e-005 0z"/>
   <path id="_119542880" class="fil1" d="M53.1587 32.9993l-2.03074 -0.34583 0.0879696 -0.395525 2.01865 0.174543c0,0 0.0747318,0.275243 -0.0758737,0.566812zm7.52546 5.50207c-0.0310431,0.123707 0.0440694,0.249318 0.167777,0.280445 0.123665,0.0310854 0.249318,-0.0440271 0.280403,-0.167734 0.0311277,-0.123665 -0.0440271,-0.249318 -0.167734,-0.280403 -0.123665,-0.0311277 -0.249318,0.0440271 -0.280445,0.167692zm1.44274 -6.80174l2.03074 -0.345873 -0.0879696 -0.395525 -2.01865 0.174543c0,0 -0.0747318,0.275243 0.0758737,0.566854zm0.67449 3.27945l1.37406 0.092072 0.00452536 -0.270887 -1.33951 -0.201526c0,0 -0.0915222,0.167269 -0.0390788,0.380341zm-0.379792 3.53676l1.55858 0.466915 0.0763813 -0.310812 -1.48998 -0.583898c0,0 -0.149379,0.16858 -0.144981,0.427794zm-0.436126 -4.40283l2.3089 -0.233246 -0.0685993 -0.451309 -2.28222 0.0416587c0,0 -0.105098,0.303622 0.0419124,0.642897zm-8.68539 1.29975l-2.3089 -0.233246 0.0685993 -0.451309 2.28222 0.0416164c0,0 0.105098,0.303664 -0.0419124,0.642939zm-0.545877 1.03546l-1.62655 0.0392903 0.00833173 -0.319947 1.59123 -0.17023c0,0 0.0996424,0.202076 0.026983,0.450886z"/>
   <path id="_119542808" class="fil1" d="M49.8662 7.73278c7.06138,3.16851 12.8496,15.4169 13.3654,21.8686 0.591003,7.39101 0.428006,11.9605 -3.88301,20.99 0,0 -0.973206,1.81814 -4.17703,1.03859 -1.49227,0.140201 -2.81811,-0.445938 -3.50406,-1.34052 -0.0177208,-0.0231343 -1.75474,-0.267123 -2.61405,-1.1036 -0.389773,-0.379453 -0.637399,-0.716825 -0.497282,-1.40722 0.183425,-0.903887 0.454227,-2.0107 0.454227,-2.0107 0,0 -1.59339,-1.58844 -1.33249,-2.2642 0.260906,-0.675758 3.51921,-3.49954 3.52462,-3.52661 2.23582,-10.252 0.0433504,-18.9975 -5.8139,-26.0616l-4.70586 -6.23108c2.36406,-0.698005 6.67634,-1.0767 9.18339,0.0482564l4.22931e-005 4.22931e-005 4.22931e-005 0 0 4.22931e-005z"/>
   <path id="_119542736" class="fil2" d="M49.1559 17.3605l-6.8785 -9.51742c4.6848,-0.206728 7.37722,-0.00372179 10.7871,3.49336 4.84962,4.97383 8.33655,12.4767 9.20458,19.4215 0.873352,6.9902 -0.460445,13.1195 -3.69574,19.4573 0,0 -0.392818,1.15672 -2.86823,0.87056 0,0 0.719912,-1.2737 0.671149,-1.38362 -0.0488062,-0.110047 -1.2545,1.27975 -1.2545,1.27975 0,0 -1.52314,0.00554039 -2.76685,-1.06756 0,0 -0.00507517,-1.72061 -0.113007,-1.71668 -0.107932,0.00393325 -0.454016,1.27395 -0.454016,1.27395l-1.62638 -0.429486c-0.743004,-0.349341 -0.975236,-0.404829 -0.773455,-1.32508 0.154031,-0.702995 0.411469,-1.88868 0.977519,-3.87916 -0.156188,-0.184102 -0.534246,0.680411 -0.811054,1.15545 0,0 -0.890396,-0.983187 -0.852247,-1.31823 0.0379369,-0.335172 3.15608,-2.75924 3.15608,-2.75924 2.51974,-7.90601 0.815495,-17.3499 -2.70236,-23.5552l0 -8.45861e-005 -4.22931e-005 -8.45861e-005z"/>
   <path id="_119543168" class="fil4" d="M49.1559 17.3605l-0.171837 -0.237772c0.0452113,-0.0254181 0.089915,-0.053543 0.135549,-0.0758737 0,0 12.1206,13.7476 0.458837,31.6956 -0.267715,-0.187189 -0.323796,-0.417559 -0.190488,-1.02556 0.154031,-0.702995 0.411469,-1.88868 0.977519,-3.87916 -0.156188,-0.184102 -0.534246,0.680411 -0.811054,1.15545 0,0 -0.890396,-0.983187 -0.852247,-1.31823 0.0379369,-0.335172 3.15608,-2.75924 3.15608,-2.75924 2.51974,-7.90601 0.815495,-17.3499 -2.70236,-23.5552l0 -8.45861e-005 0 8.45861e-005z"/>
   <path id="_119542664" class="fil5" d="M52.0758 25.2095c-0.637779,-2.55822 -1.66372,-5.2901 -3.24954,-8.08732l-6.8785 -9.51742c4.6848,-0.206728 7.37722,-0.00372179 10.7871,3.49336 3.03897,3.11683 5.54297,7.22704 7.20297,11.5704 -2.72312,0.638964 -5.71075,1.70492 -7.86198,2.54101l0 -4.22931e-005z"/>
   <path id="_119542592" class="fil6" d="M52.0756 25.2095c-0.637779,-2.55826 -1.66351,-5.2901 -3.24933,-8.08732l-0.143247 -0.198185c2.33521,2.38448 3.87967,5.02179 4.83363,7.73984 -0.510012,0.18795 -0.993506,0.371756 -1.44105,0.545707l0 -4.22931e-005z"/>
   <path id="_119542520" class="fil5" d="M22.4573 38.1957c-1.22984,-8.04528 -2.13462,-17.0489 -2.64615,-25.0666 1.04844,-4.31711 7.75215,-6.49769 14.4598,-6.50954l0 -0.000126879 0.00879696 4.22931e-005 0.00879696 -4.22931e-005 0 0.000126879c6.70755,0.0118421 13.4112,2.19243 14.4597,6.50954 -0.511535,8.01779 -1.41631,17.0213 -2.64615,25.0666 -6.54494,2.06399 -17.0998,2.06407 -23.6447,4.22931e-005l0 -4.22931e-005 8.45861e-005 0 -0.000126879 0 -4.22931e-005 0z"/>
   <polygon id="_119541704" class="fil7" points="28.5045,33.0392 22.8327,30.4442 39.8249,32.7553 "/>
   <path id="_119541992" class="fil6" d="M30.5278 20.8244l0 7.80996 0.95244 0.976293 2.73826 0.357165 2.64294 -0.261921c0,0 0.904818,-0.166677 1.02387,-0.95244l0 -8.07188c0,0 -6.9051,-0.119055 -7.35751,0.142866l0 -4.22931e-005z"/>
   <polygon id="_121124376" class="fil7" points="38.6335,26.7971 44.115,27.1308 46.546,25.1766 "/>
   <path id="_119542376" class="fil6" d="M22.4571 38.1957c-0.994817,-6.50759 -1.77669,-13.6422 -2.30996,-20.375 0.0647507,-0.301592 0.12265,-0.478419 0.171668,-0.497155l3.00285 20.2573c0.1435,-0.342193 8.49934,2.74596 21.7698,-0.133477l3.38514 -20.7306c0,0 -0.000507517,0.471568 -0.0457188,0.868784 -0.533612,6.80161 -1.32217,14.0267 -2.32853,20.6101 -6.54502,2.06403 -17.1,2.06411 -23.6449,4.22931e-005l-8.45861e-005 4.22931e-005 -8.45861e-005 8.45861e-005 -4.22931e-005 -4.22931e-005 -8.45861e-005 0z"/>
   <polygon id="_119542304" class="fil6" points="21.3706,25.7468 44.4481,32.3263 21.8951,29.7519 "/>
   <path id="_119542232" class="fil1" d="M46.4628 36.3749c0,0 -2.10082,1.21436 -3.84351,1.57153 0,0 1.62333,-0.047622 4.05836,-0.690519l0.310346 -0.666708 -0.525195 -0.214299z"/>
   <path id="_119544176" class="fil1" d="M22.2031 36.5891c0,0 2.10082,1.21436 3.84355,1.57153 0,0 -1.62338,-0.047622 -4.0584,-0.690519l-0.310346 -0.666708 0.525195 -0.214299z"/>
   <path id="_119681384" class="fil4" d="M15.6614 28.2019c0.142443,-1.0081 0.340924,-2.05519 0.609358,-3.13366 -1.91431,-0.708197 -4.94896,-1.70492 -8.03547,-2.21057 -0.419928,1.12994 -0.770368,2.2741 -1.06955,3.41918 3.38848,-0.000380638 6.71766,1.33646 8.49562,1.92505l4.22931e-005 0z"/>
   <path id="_122988168" class="fil5" d="M16.4968 25.2331c0.637779,-2.55822 1.66372,-5.2901 3.24954,-8.08732l6.8785 -9.51742c-4.6848,-0.206728 -7.37722,-0.00372179 -10.7871,3.49336 -3.03897,3.11683 -5.54297,7.22704 -7.20297,11.5704 2.72312,0.638964 5.71075,1.70492 7.86198,2.54101l0 -4.22931e-005z"/>
   <path id="_119682560" class="fil7" d="M9.86587 22.0622c1.61695,-3.99103 4.15314,-8.24672 7.82299,-12.5726 -3.86533,2.82822 -6.70472,7.12169 -8.61839,11.4476 0.206221,0.682568 0.747995,1.18873 0.747995,1.18873 0.0153524,-0.0215272 0.0312123,-0.0426737 0.0473682,-0.0638202l4.22931e-005 8.45861e-005z"/>
   <path id="_119544032" class="fil6" d="M16.5255 25.1187c0.148322,-0.585547 0.317071,-1.18006 0.508236,-1.78227 -1.43788,-1.13722 -4.268,-2.75878 -7.56496,-3.26875 -0.406605,0.860748 -0.780814,1.73757 -1.11967,2.6242 2.66023,0.624203 5.85852,1.65594 7.99719,2.48273 0.0600561,-0.0186089 0.119732,-0.0372179 0.179196,-0.0559114z"/>
   <path id="_119680376" class="fil6" d="M16.497 25.2331c0.637779,-2.55826 1.66351,-5.2901 3.24933,-8.08732l0.143247 -0.198185c-2.33521,2.38448 -3.87967,5.02179 -4.83363,7.73984 0.510012,0.18795 0.993506,0.371756 1.44105,0.545707l0 -4.22931e-005z"/>
   <path id="_123967888" class="fil1" d="M16.8686 28.3827c0,0 -4.79777,-3.06134 -10.8011,-3.06625 0,0 -0.0904226,-2.56672 1.5245,-4.62889 0,0 5.52846,0.276131 10.3077,4.65482 0,0 -0.307217,1.52813 -1.03106,3.04032l-4.22931e-005 0z"/>
   <path id="_123967816" class="fil5" d="M16.2799 27.2254c-0.0795955,-0.0431389 -0.159149,-0.0854743 -0.237687,-0.126964 -0.719955,-0.380215 -1.46448,-0.716952 -2.21827,-1.013 -2.14591,-0.842943 -4.43574,-1.3771 -6.72764,-1.4641 0.0267292,-0.244242 0.0674574,-0.488612 0.110766,-0.700162 0.16968,-0.828352 0.480957,-1.62257 0.951086,-2.3062 0.182241,0.0205121 0.365835,0.0487216 0.540674,0.0769734 0.73831,0.119393 1.47362,0.299393 2.18972,0.52418 2.1627,0.67893 4.2022,1.79103 5.94776,3.31485 -0.138341,0.559241 -0.335891,1.15295 -0.556407,1.69443z"/>
   <path id="_123967744" class="fil7" d="M7.14892 24.6237l-0.0526549 -0.00219924c0.0268138,-0.244242 0.0674574,-0.488569 0.110766,-0.700077 0.169722,-0.828394 0.480999,-1.62266 0.951086,-2.30624 0.182241,0.0205544 0.365835,0.0487216 0.540674,0.0769734 0.73831,0.119393 1.47362,0.299308 2.18972,0.52418 1.89925,0.596248 3.70348,1.52669 5.29708,2.77654 -0.039248,0.0554885 -0.0806106,0.110681 -0.126287,0.16545 0,0 -4.01962,-2.50015 -7.41397,-2.5954 0,0 -0.786862,0.743935 -1.49641,2.06077z"/>
   <path id="_123967672" class="fil6" d="M16.2799 27.2254c-0.0795955,-0.0431389 -0.159149,-0.085432 -0.237687,-0.126921 -0.719997,-0.380257 -1.46452,-0.716994 -2.21823,-1.01305 -0.105056,-0.041278 -0.210366,-0.0816679 -0.316098,-0.121423 0.426229,-0.80581 0.728286,-1.61094 0.914757,-2.17585 0.850302,0.502991 1.65937,1.08439 2.41366,1.74285 -0.138341,0.559157 -0.335807,1.15291 -0.556407,1.69439z"/>
   <path id="_123967600" class="fil1" d="M17.2235 26.25c0,0 -2.24568,-1.52018 -4.87144,-1.87743 0,0 1.96494,0.666158 4.66721,2.76208l0.204233 -0.884644z"/>
   <path id="_120416080" class="fil6" d="M29.3733 21.0528c-1.02747,-0.0364566 -2.05498,-0.0812873 -3.07995,-0.165535 -0.77464,-0.0636088 -1.73664,-0.12578 -2.44682,-0.457526 -1.04041,-0.485947 -1.62245,-1.78405 -2.06652,-2.80323 -0.505656,-1.16078 -0.940175,-2.35251 -1.36108,-3.54826 -0.600857,-1.70724 -1.16775,-3.42722 -1.70073,-5.1584l-0.0920297 -0.299054c1.43082,-0.721435 6.23514,-2.6116 17.1906,-2.53437 7.79537,0.0549387 11.895,1.32881 13.9702,2.39844l-0.153947 0.49927c-0.527183,1.7094 -1.08748,3.40802 -1.6809,5.0942 -0.420943,1.19571 -0.855419,2.3874 -1.36103,3.54818 -0.444077,1.01914 -1.02611,2.31728 -2.06652,2.80318 -0.710185,0.331747 -1.67214,0.393918 -2.44682,0.457569 -1.02501,0.0842478 -2.05257,0.129121 -3.08008,0.165535 -3.20894,0.113853 -6.41539,0.113853 -9.62434,0l4.22931e-005 0z"/>
   <g>
    <path id="_88250736" class="fil3" d="M39.0787 35.5026c0.761275,0 1.37854,0.617225 1.37854,1.37858 0,0.761275 -0.617267,1.37854 -1.37854,1.37854 -0.76136,0 -1.37858,-0.617267 -1.37858,-1.37854 0,-0.76136 0.617225,-1.37858 1.37858,-1.37858zm-9.47326 -9.09808c0.761317,0 1.3785,0.617267 1.3785,1.37854 0,0.76136 -0.617183,1.37854 -1.3785,1.37854 -0.76136,0 -1.37858,-0.617183 -1.37858,-1.37854 0,-0.761275 0.617225,-1.37854 1.37858,-1.37854zm4.70815 -1.10888c3.24371,0 5.98159,2.16794 6.84479,5.1334l-0.983694 0c-0.830382,-2.43968 -3.14081,-4.19543 -5.8611,-4.19543 -1.13125,0 -2.19146,0.303706 -3.10414,0.83385 -0.128359,-0.294909 -0.327771,-0.551671 -0.576708,-0.748714 1.0745,-0.649368 2.33398,-1.02311 3.68085,-1.02311zm3.70462 13.2191c-1.0797,0.658291 -2.3479,1.0377 -3.70462,1.0377 -2.8552,0 -5.31823,-1.67988 -6.45608,-4.10463l1.05399 0c1.05999,1.88936 3.08198,3.16669 5.40209,3.16669 1.1642,0 2.25333,-0.32185 3.18353,-0.881007 0.108016,0.301972 0.28865,0.569518 0.521093,0.781237zm-10.5496 -8.08571c0.131108,-0.450125 0.305398,-0.881895 0.518005,-1.29045 0.211719,0.235361 0.480153,0.418574 0.78369,0.528325 -0.122269,0.245257 -0.228721,0.499735 -0.318086,0.762121l-0.98361 0zm6.845 -2.41337c0.636553,0 1.24147,0.135169 1.7879,0.378058 -0.204022,0.180591 -0.354923,0.419759 -0.426441,0.691238 -0.420055,-0.171583 -0.879696,-0.266277 -1.36146,-0.266277 -1.25302,0 -2.35674,0.639809 -3.00289,1.61035l-0.928713 0c0.72816,-1.432 2.21539,-2.41337 3.9316,-2.41337zm-1.96375 7.43216c0.565035,0.36778 1.23944,0.581614 1.96375,0.581614 0.724353,0 1.39876,-0.213834 1.96379,-0.581614l1.24363 0c-0.803864,0.852374 -1.94358,1.38459 -3.20742,1.38459 -1.26384,0 -2.40356,-0.532216 -3.20742,-1.38459l1.24367 0zm4.67905 -6.88078c0.483367,0 0.875297,0.39193 0.875297,0.875255 0,0.48341 -0.39193,0.875339 -0.875297,0.875339 -0.48341,0 -0.875339,-0.39193 -0.875339,-0.875339 0,-0.483325 0.39193,-0.875255 0.875339,-0.875255z"/>
    <path id="_165113744" class="fil3" d="M27.2562 34.5726c-0.0164943,0 -0.0247414,-0.00824715 -0.0247414,-0.0247837l0.00989658 -3.39914c0,-0.0131954 0.00659772,-0.0197932 0.0197932,-0.0197932l0.949987 0c0.303453,0 0.543424,0.092368 0.719912,0.277062 0.176489,0.184736 0.26467,0.435407 0.26467,0.752097 0,0.234177 -0.0461417,0.437014 -0.13851,0.608555 -0.092368,0.171583 -0.212776,0.303495 -0.361183,0.395863 -0.148449,0.092368 -0.31005,0.13851 -0.48489,0.13851l-0.376028 0 0 1.24684c0,0.0165366 -0.00824715,0.0247837 -0.0247414,0.0247837l-0.554166 0zm0.578907 -1.87028l0.376028 0c0.105521,0 0.197086,-0.0503287 0.274609,-0.150902 0.0775232,-0.100615 0.116264,-0.231724 0.116264,-0.393368 0,-0.128655 -0.034638,-0.234219 -0.103914,-0.31669 -0.0692337,-0.0824715 -0.164901,-0.123665 -0.286958,-0.123665l-0.376028 0.00490599 0 0.979719zm1.72188 1.87028c-0.0164943,0 -0.0247414,-0.00824715 -0.0247414,-0.0247837l0.00490599 -3.39914c0,-0.0131954 0.00659772,-0.0197932 0.0198354,-0.0197932l0.554124 0c0.0131954,0 0.0197932,0.00659772 0.0197932,0.0197932l0.00494829 3.39914c0,0.0165366 -0.00655542,0.0247837 -0.0197509,0.0247837l-0.559114 0zm1.92962 0.0494406c-0.178096,0 -0.340586,-0.0453382 -0.487385,-0.136057 -0.146757,-0.0906763 -0.26467,-0.211085 -0.353739,-0.361183 -0.0890692,-0.150056 -0.133604,-0.315845 -0.133604,-0.497239l0.00494829 -1.56848c0,-0.181437 0.0436887,-0.346338 0.131108,-0.494786 0.0874198,-0.148449 0.205375,-0.267208 0.353781,-0.356277 0.148406,-0.0890269 0.31005,-0.133519 0.48489,-0.133519 0.178096,0 0.33974,0.0444923 0.48489,0.133519 0.14515,0.0890692 0.261413,0.207828 0.348791,0.356277 0.0874198,0.148449 0.131151,0.313349 0.131151,0.494786l0.00494829 1.56848c0,0.181395 -0.0436887,0.347184 -0.131108,0.497239 -0.0874198,0.150098 -0.204529,0.270506 -0.351328,0.361183 -0.146799,0.0907186 -0.309247,0.136057 -0.487343,0.136057zm0 -0.598658c0.0989658,0 0.185582,-0.0403899 0.259722,-0.121212 0.0742243,-0.080822 0.111358,-0.172344 0.111358,-0.274609l-0.00494829 -1.56848c0,-0.108862 -0.034638,-0.201188 -0.103872,-0.277104 -0.0693183,-0.0758737 -0.156696,-0.113768 -0.262259,-0.113768 -0.102265,0 -0.189684,0.037091 -0.262259,0.111315 -0.0725326,0.0742243 -0.10882,0.167438 -0.10882,0.279557l0 1.56848c0,0.108862 0.0362874,0.202034 0.10882,0.279515 0.0725749,0.0775655 0.159995,0.116306 0.262259,0.116306zm1.39034 0.549218c-0.0263486,0 -0.0395863,-0.011546 -0.0395863,-0.034638l-0.00494829 -3.36949c0,-0.0263909 0.0131954,-0.0395863 0.0395863,-0.0395863l0.445304 0 0.836176 1.94946 -0.0247414 -1.90987c0,-0.0263909 0.0148449,-0.0395863 0.0445346,-0.0395863l0.48988 0c0.0197509,0 0.0296897,0.0131954 0.0296897,0.0395863l0.00490599 3.37444c0,0.0197509 -0.00824715,0.0296897 -0.0247414,0.0296897l-0.435365 0 -0.856011 -1.8208 0.034638 1.78117c0,0.0264332 -0.0148449,0.0396286 -0.0445346,0.0396286l-0.494786 0zm2.27105 0c-0.0131954,0 -0.0197932,-0.00824715 -0.0197932,-0.0247837l0.00494829 -3.39914c0,-0.0131954 0.00655542,-0.0197932 0.0197932,-0.0197932l1.58823 0c0.0132377,0 0.0198354,0.00824715 0.0198354,0.0247414l0 0.554124c0,0.0131954 -0.00659772,0.0198354 -0.0198354,0.0198354l-1.01431 0 0 0.771848 1.01431 0c0.0132377,0 0.0198354,0.00664001 0.0198354,0.0197932l0.00494829 0.559114c0,0.0131954 -0.00659772,0.0197932 -0.0197932,0.0197932l-1.0193 0 0 0.865866 1.0193 0c0.0131954,0 0.0197932,0.00824715 0.0197932,0.0247414l0 0.564063c0,0.0131954 -0.00659772,0.0197932 -0.0197932,0.0197932l-1.59817 0zm2.07807 0c-0.0131954,0 -0.0197509,-0.00824715 -0.0197509,-0.0247837l0.00490599 -3.39914c0,-0.0131954 0.00659772,-0.0197932 0.0198354,-0.0197932l1.58823 0c0.0132377,0 0.0198354,0.00824715 0.0198354,0.0247414l0 0.554124c0,0.0131954 -0.00659772,0.0198354 -0.0198354,0.0198354l-1.01431 0 0 0.771848 1.01431 0c0.0132377,0 0.0198354,0.00664001 0.0198354,0.0197932l0.00490599 0.559114c0,0.0131954 -0.00659772,0.0197932 -0.0197509,0.0197932l-1.0193 0 0 0.865866 1.0193 0c0.0131531,0 0.0197509,0.00824715 0.0197509,0.0247414l0 0.564063c0,0.0131954 -0.00659772,0.0197932 -0.0197509,0.0197932l-1.59821 0zm2.07811 0c-0.0131954,0 -0.0197932,-0.00824715 -0.0197932,-0.0247837l0.00993887 -3.39914c0,-0.0131954 0.00659772,-0.0197932 0.0197509,-0.0197932l0.99947 0c0.178138,0 0.342235,0.043731 0.492291,0.131108 0.150098,0.0874198 0.269661,0.204529 0.35873,0.351328 0.0890692,0.146757 0.133604,0.312503 0.133604,0.497239 0,0.122058 -0.0181437,0.231724 -0.0544312,0.328998 -0.0362874,0.0973163 -0.0791726,0.179788 -0.128613,0.247457 -0.0495252,0.0675843 -0.0940598,0.117871 -0.133604,0.150902 0.178138,0.197889 0.267165,0.430459 0.267165,0.697624l0.00494829 1.01427c0,0.0165366 -0.00824715,0.0247837 -0.0247414,0.0247837l-0.559114 0c-0.0131954,0 -0.0197932,-0.00494829 -0.0197932,-0.0148449l0 -1.02421c0,-0.118759 -0.0420393,-0.221827 -0.126118,-0.309247 -0.0841632,-0.0874198 -0.187231,-0.131108 -0.309289,-0.131108l-0.326545 0 -0.00494829 1.45463c0,0.0165366 -0.00659772,0.0247837 -0.0197932,0.0247837l-0.559114 0zm0.583856 -2.07316l0.42551 0c0.102265,0 0.192983,-0.0378946 0.272156,-0.113811 0.0791303,-0.0758737 0.118759,-0.168199 0.118759,-0.277062 0,-0.105563 -0.0387827,-0.196282 -0.116306,-0.272114 -0.0775232,-0.0758737 -0.169088,-0.113853 -0.274609,-0.113853l-0.42551 0 0 0.776839z"/>
   </g>
   <path id="_119804728" class="fil1" d="M32.2715 18.2028l3.87024 0c0.805091,0 1.46376,0.658672 1.46376,1.46376l0 8.30314c0,0.805091 -0.658672,1.46376 -1.46376,1.46376l-3.87024 0c-0.805091,0 -1.46376,-0.658672 -1.46376,-1.46376l0 -8.30314c0,-0.805091 0.658672,-1.46376 1.46376,-1.46376z"/>
   <path id="_119804656" class="fil1" d="M20.9121 7.14186c2.33724,-0.599927 14.0763,-3.27674 26.6792,-0.147603 0.253547,0.0823446 0.492207,0.16562 0.717375,0.249487l-5.98261 1.96532 -21.7855 -1.94967c0.118632,-0.038825 0.242847,-0.0780307 0.371418,-0.117532l4.22931e-005 0 8.45861e-005 0z"/>
   <path id="_122970936" class="fil1" d="M29.3733 20.4575c-1.02747,-0.0364566 -2.05498,-0.0812873 -3.07995,-0.165535 -0.77464,-0.0636088 -1.73664,-0.12578 -2.44682,-0.457526 -1.04041,-0.485947 -1.62245,-1.78405 -2.06652,-2.80323 -0.505656,-1.16078 -0.940175,-2.35251 -1.36108,-3.54826 -0.600857,-1.70724 -1.16775,-3.42722 -1.70073,-5.1584l-0.0920297 -0.299054c1.43082,-0.721435 6.23514,-2.6116 17.1906,-2.53437 7.79537,0.0549387 11.895,1.32881 13.9702,2.39844l-0.153947 0.49927c-0.527183,1.7094 -1.08748,3.40802 -1.6809,5.0942 -0.420943,1.19571 -0.855419,2.3874 -1.36103,3.54818 -0.444077,1.01914 -1.02611,2.31728 -2.06652,2.80318 -0.710185,0.331747 -1.67214,0.393918 -2.44682,0.457569 -1.02501,0.0842478 -2.05257,0.129121 -3.08008,0.165535 -3.20894,0.113853 -6.41539,0.113853 -9.62434,0l4.22931e-005 0z"/>
   <path id="_129326824" class="fil8" d="M29.4665 19.9054c-1.00429,-0.035653 -2.00871,-0.0793418 -3.01055,-0.161686 -0.693395,-0.0569687 -1.64258,-0.120662 -2.26995,-0.413711 -0.899531,-0.420139 -1.44033,-1.65611 -1.82761,-2.54498 -0.49301,-1.13176 -0.916744,-2.29461 -1.32711,-3.4605 -0.589015,-1.67349 -1.14483,-3.35976 -1.66719,-5.05668 4.78457,-1.62748 23.7451,-2.2247 29.6224,0.0629744 -0.516737,1.67569 -1.066,3.34094 -1.64774,4.99375 -0.41037,1.16585 -0.834104,2.3287 -1.32711,3.46046 -0.387278,0.888873 -0.928079,2.12485 -1.82757,2.54494 -0.627418,0.293091 -1.5766,0.356784 -2.26995,0.413753 -1.00192,0.0823446 -2.00634,0.126076 -3.01067,0.161686 -0.647549,0.0229651 -1.29125,0.0411511 -1.93241,0.0547695l0 8.02439c0,0.44801 -0.373194,0.814564 -0.829367,0.814564l-3.87024 0c-0.456173,0 -0.829367,-0.366554 -0.829367,-0.814564l0 -8.02342c-0.655542,-0.013703 -1.31337,-0.032185 -1.97555,-0.0557l-4.22931e-005 0 4.22931e-005 0 0 -4.22931e-005 -4.22931e-005 0z"/>
   <path id="_119804944" class="fil3" d="M26.3846 19.4343c-0.693395,-0.0569687 -1.57127,-0.049356 -2.19865,-0.342405 -0.899531,-0.420139 -1.44033,-1.65611 -1.82761,-2.54498 -0.49301,-1.13176 -0.916744,-2.0565 -1.32711,-3.22239 -0.589015,-1.67349 -1.14483,-3.35976 -1.66719,-5.05668 4.78457,-1.62748 23.7451,-2.2247 29.6224,0.0629744 -0.516737,1.67569 -1.066,3.34094 -1.64774,4.99375 -0.41037,1.16585 -0.834104,2.3287 -1.32711,3.46046 -0.387278,0.888873 -1.09476,1.83911 -1.99424,2.25921 -0.627418,0.293091 -1.5766,0.356784 -2.26995,0.413753 -1.68136,0.138171 -3.33417,0.121381 -5.01439,0.157034l-0.0472413 8.03678c-0.00257988,0.44763 -0.373532,0.809701 -0.829367,0.814564l-3.32356 0.035653c-0.455792,0.0048637 -0.827464,-0.366554 -0.829367,-0.814564l-0.035357 -8.09527c-1.72818,-0.0361183 -3.5527,-0.0156061 -5.2835,-0.157838l-4.22931e-005 0 4.22931e-005 0 0 -4.22931e-005 -4.22931e-005 0z"/>
   <path id="_119804872" class="fil1" d="M48.0107 8.00997c-0.511704,1.65941 -1.05915,3.31886 -1.63446,4.95336 -0.399796,1.13586 -0.818371,2.2856 -1.29852,3.38789 -0.245004,0.562371 -0.745796,1.74916 -1.31574,2.01535 -0.456046,0.21303 -1.42358,0.281545 -1.92907,0.323077 -0.984836,0.0809489 -1.97729,0.123961 -2.96462,0.15898 -3.16665,0.112373 -6.19991,0.112373 -9.36652,0 -0.987247,-0.0350609 -1.97974,-0.0780307 -2.96453,-0.15898 -0.505487,-0.0415318 -1.47302,-0.110047 -1.92907,-0.323077 -0.569941,-0.266193 -1.07069,-1.45298 -1.31574,-2.01535 -0.480153,-1.10228 -0.898727,-2.25202 -1.29852,-3.38789 -0.582545,-1.65501 -1.13654,-3.33561 -1.65374,-5.01583 3.25991,-0.706675 16.8688,-3.29755 27.6705,0.0624668l-4.22931e-005 0 4.22931e-005 0z"/>
   <path id="_119804800" class="fil2" d="M20.9462 7.8199c0.560806,1.8035 3.01389,9.54774 3.91515,9.96877 0.919959,0.429697 7.85196,0.510689 9.20821,0.522488l0 0.0018186 0.115418 -0.000845861 0.115502 0.000845861 0 -0.0018186c1.35651,-0.0117998 8.28821,-0.092791 9.20813,-0.522488 0.899066,-0.41997 3.3425,-8.12822 3.91097,-9.9557 -10.1213,-2.92199 -22.4576,-0.835246 -26.4734,-0.012984l4.22931e-005 0 0 -8.45861e-005z"/>
   <path id="_129341680" class="fil4" d="M20.9854 7.84756c0,0 2.71699,8.41251 12.8217,8.50784 10.1047,0.0953286 13.5604,-8.57949 13.5604,-8.57949 0,0 -11.2798,-3.50288 -26.3824,0.0716444l0.000126879 0 4.22931e-005 0 4.22931e-005 0z"/>
   <path id="_119805160" class="fil4" d="M20.9462 7.8199c0.560806,1.8035 3.01389,9.54774 3.91515,9.96877 0.919959,0.429697 7.85196,0.510689 9.20821,0.522488l0 0.0018186 0.115418 -0.000845861 0.115502 0.000845861 0 -0.0018186c1.35651,-0.0117998 8.28821,-0.092791 9.20813,-0.522488 0.899066,-0.41997 3.3425,-8.12822 3.91097,-9.9557 -0.100827,-0.0290976 -0.202245,-0.0568419 -0.303495,-0.0849668 -0.865401,2.71822 -2.82348,8.62584 -3.60747,8.99214 -0.919959,0.429697 -7.85162,0.510689 -9.20813,0.522488l0 0.0018186 -0.115502 -0.000845861 -0.115418 0.000845861 0 -0.0018186c-1.35625,-0.0117998 -8.28826,-0.092791 -9.20821,-0.522488 -0.783141,-0.365793 -2.73788,-6.26043 -3.60476,-8.98266 -0.10789,0.0214849 -0.212311,0.0424622 -0.310389,0.0625514l0 -0.000126879z"/>
   <path id="_119805088" class="fil1" d="M34.2033 18.5035l0.0066823 0c0.181691,0 0.330309,0.148618 0.330309,0.330309l0 8.2526c0,0.181691 -0.148618,0.330309 -0.330309,0.330309l-0.0066823 0c-0.181691,0 -0.330309,-0.148618 -0.330309,-0.330309l0 -8.2526c0,-0.181691 0.148618,-0.330309 0.330309,-0.330309z"/>
   <path id="_123965536" class="fil9" d="M35.9632 22.4176c-0.0054558,-0.126668 0.0929178,-0.233881 0.219628,-0.239336 0.12671,-0.0054558 0.233881,0.0929601 0.239336,0.219628 0.00828944,0.190065 -0.0617902,0.366216 -0.181649,0.496986 -0.119605,0.130347 -0.288566,0.215187 -0.478504,0.223477l-0.000803568 4.22931e-005 0 0.000296051c-0.190107,0.00820485 -0.366131,-0.0618747 -0.496859,-0.181733 -0.130601,-0.119732 -0.215525,-0.288988 -0.223815,-0.479265 -0.0218232,-0.50333 0.2881,-0.606144 0.597855,-0.708916 0.145742,-0.048341 0.291611,-0.0967242 0.284759,-0.253928l-0.000211465 -0.00706294c-0.00469453,-0.0614518 -0.0326079,-0.115841 -0.074605,-0.15437 -0.043435,-0.0397978 -0.102603,-0.0630589 -0.167142,-0.0602676l-0.000507517 0c-0.0642854,0.00291822 -0.12117,0.0313392 -0.161052,0.0748164 -0.0398401,0.043435 -0.0629744,0.10273 -0.060183,0.167227 0.0054558,0.12671 -0.0929178,0.233881 -0.219628,0.239379 -0.12671,0.0054558 -0.233881,-0.0929601 -0.239336,-0.21967 -0.00828944,-0.190065 0.0618325,-0.366131 0.181691,-0.496901 0.119689,-0.130559 0.289031,-0.215525 0.47918,-0.223815l0.000126879 0c0.190107,-0.00824715 0.366046,0.0618325 0.496817,0.181691 0.127344,0.116813 0.211085,0.280699 0.222758,0.465224 0.000465224,0.00469453 0.000845861,0.00934677 0.00105733,0.0140413 0.0219078,0.503457 -0.288058,0.606229 -0.597897,0.709001 -0.145742,0.048341 -0.291653,0.0967665 -0.284759,0.253843 0.00279134,0.0644123 0.0312123,0.121466 0.0747741,0.16139 0.043435,0.0398401 0.10273,0.0631435 0.167269,0.0603522l0 0.000296051c0.0644546,-0.00308739 0.121466,-0.0315506 0.161433,-0.0751125 0.0397978,-0.043435 0.0631012,-0.10273 0.0602676,-0.167311z"/>
   <path id="_123965464" class="fil9" d="M35.9632 25.9565c-0.0054558,-0.126668 0.0929178,-0.233838 0.219628,-0.239336 0.12671,-0.0054558 0.233881,0.0929601 0.239336,0.219628 0.00828944,0.190065 -0.0617902,0.366216 -0.181649,0.496986 -0.119605,0.130347 -0.288566,0.215187 -0.478504,0.223477l-0.000803568 4.22931e-005 0 0.000296051c-0.190107,0.00824715 -0.366131,-0.0618747 -0.496859,-0.181733 -0.130601,-0.119732 -0.215525,-0.288988 -0.223815,-0.479265 -0.0218232,-0.50333 0.2881,-0.606144 0.597855,-0.708916 0.145742,-0.048341 0.291611,-0.0967242 0.284759,-0.253928l-0.000211465 -0.00702065c-0.00469453,-0.0614941 -0.0326079,-0.115883 -0.074605,-0.154412 -0.0433927,-0.0397978 -0.102603,-0.0630589 -0.167142,-0.0602676l-0.000507517 0c-0.0642854,0.00291822 -0.12117,0.0313392 -0.161052,0.0748164 -0.0398401,0.043435 -0.0629744,0.10273 -0.060183,0.167269 0.0054558,0.126668 -0.0929178,0.233838 -0.219628,0.239336 -0.12671,0.0054558 -0.233881,-0.0929601 -0.239336,-0.21967 -0.00828944,-0.190065 0.0618325,-0.366131 0.181691,-0.496901 0.119689,-0.130559 0.289031,-0.215525 0.479223,-0.223815l8.45861e-005 0c0.190107,-0.00824715 0.366046,0.0618325 0.496817,0.181691 0.127387,0.116813 0.211127,0.280699 0.222758,0.465224 0.000465224,0.00469453 0.000845861,0.00934677 0.00105733,0.0140413 0.0219078,0.503457 -0.288058,0.606229 -0.597897,0.709001 -0.145742,0.048341 -0.291653,0.0967665 -0.284759,0.253885 0.00279134,0.06437 0.0312123,0.121423 0.0747741,0.16139 0.043435,0.0398401 0.10273,0.0631012 0.167269,0.0603099l0 0.000296051c0.0644546,-0.00308739 0.121466,-0.0315506 0.161433,-0.0751125 0.0397978,-0.043435 0.0631012,-0.10273 0.0602676,-0.167311z"/>
   <path id="_123965392" class="fil1" d="M35.501 20.0502c0.104422,-0.116179 0.283321,-0.125695 0.3995,-0.0212734 0.116179,0.104422 0.125695,0.283321 0.0213157,0.3995 -0.104422,0.116137 -0.283363,0.125695 -0.3995,0.0212734 -0.116094,-0.104422 -0.125653,-0.283321 -0.0213157,-0.3995z"/>
   <path id="_123965320" class="fil1" d="M35.501 23.5105c0.104422,-0.116179 0.283321,-0.125737 0.3995,-0.0213157 0.116137,0.104422 0.125695,0.283321 0.0212734,0.3995 -0.104422,0.116179 -0.283321,0.125695 -0.3995,0.0213157 -0.116094,-0.104422 -0.12561,-0.283321 -0.0212734,-0.3995z"/>
   <path id="_123965248" class="fil1" d="M35.501 27.3441c0.104422,-0.116179 0.283321,-0.125737 0.3995,-0.0213157 0.116137,0.104422 0.125695,0.283321 0.0212734,0.3995 -0.104422,0.116179 -0.283321,0.125695 -0.3995,0.0213157 -0.116094,-0.104422 -0.12561,-0.283321 -0.0212734,-0.3995z"/>
   <path id="_123964768" class="fil9" d="M32.4472 22.4178c0.0054558,-0.126668 -0.0929178,-0.233881 -0.219628,-0.239336 -0.12671,-0.0054558 -0.233881,0.0929601 -0.239336,0.219628 -0.00828944,0.190065 0.0617902,0.366216 0.181649,0.496986 0.119605,0.130347 0.288566,0.215187 0.478504,0.223477l0.000803568 4.22931e-005 0 0.000296051c0.190107,0.00820485 0.366216,-0.0618747 0.496943,-0.181733 0.130601,-0.119732 0.215525,-0.288988 0.223815,-0.479265 0.0218232,-0.50333 -0.2881,-0.606144 -0.597939,-0.708916 -0.145742,-0.048341 -0.291611,-0.0967242 -0.284759,-0.253928l0.000211465 -0.00706294c0.00469453,-0.0614518 0.0326079,-0.115841 0.074605,-0.15437 0.043435,-0.0397978 0.102603,-0.0630589 0.167142,-0.0602676l0.000507517 0c0.0642854,0.00291822 0.12117,0.0313392 0.161052,0.0748164 0.0398401,0.043435 0.0630589,0.10273 0.0602676,0.167227 -0.0054558,0.12671 0.0929178,0.233881 0.219628,0.239379 0.12671,0.0054558 0.233881,-0.0929601 0.239336,-0.21967 0.00828944,-0.190065 -0.0618325,-0.366131 -0.181691,-0.496901 -0.119689,-0.130559 -0.289031,-0.215525 -0.479265,-0.223815l-0.000126879 0c-0.190107,-0.00824715 -0.366046,0.0618325 -0.496817,0.181691 -0.127344,0.116813 -0.211085,0.280699 -0.222758,0.465224 -0.000465224,0.00469453 -0.000845861,0.00934677 -0.00105733,0.0140413 -0.0219078,0.503457 0.288058,0.606229 0.597897,0.709001 0.145742,0.048341 0.291653,0.0967665 0.284759,0.253843 -0.00279134,0.0644123 -0.0312123,0.121466 -0.0747741,0.16139 -0.043435,0.0398401 -0.10273,0.0631435 -0.167269,0.0603522l0 0.000296051c-0.0644546,-0.00308739 -0.121466,-0.0315506 -0.161433,-0.0751125 -0.0397978,-0.043435 -0.0631012,-0.10273 -0.0602676,-0.167311z"/>
   <path id="_123964696" class="fil9" d="M32.4472 25.9565c0.0054558,-0.126668 -0.0929178,-0.233838 -0.219628,-0.239336 -0.12671,-0.0054558 -0.233881,0.0929601 -0.239336,0.219628 -0.00828944,0.190065 0.0617902,0.366216 0.181649,0.496986 0.119605,0.130347 0.288566,0.215187 0.478504,0.223477l0.000803568 4.22931e-005 0 0.000296051c0.190107,0.00824715 0.366216,-0.0618747 0.496943,-0.181733 0.130601,-0.119732 0.215525,-0.288988 0.223815,-0.479265 0.0218232,-0.50333 -0.2881,-0.606144 -0.597939,-0.708916 -0.145742,-0.048341 -0.291611,-0.0967242 -0.284759,-0.253928l0.000211465 -0.00702065c0.00469453,-0.0614941 0.0326079,-0.115883 0.074605,-0.154412 0.0433927,-0.0397978 0.102603,-0.0630589 0.167142,-0.0602676l0.000507517 0c0.0642854,0.00291822 0.12117,0.0313392 0.161052,0.0748164 0.0398401,0.043435 0.0630589,0.10273 0.0602676,0.167269 -0.0054558,0.126668 0.0929178,0.233838 0.219628,0.239336 0.12671,0.0054558 0.233881,-0.0929601 0.239336,-0.21967 0.00828944,-0.190065 -0.0618325,-0.366131 -0.181691,-0.496901 -0.119689,-0.130559 -0.289031,-0.215525 -0.479307,-0.223815l-8.45861e-005 0c-0.190107,-0.00824715 -0.366046,0.0618325 -0.496817,0.181691 -0.127387,0.116813 -0.211127,0.280699 -0.222758,0.465224 -0.000465224,0.00469453 -0.000845861,0.00934677 -0.00105733,0.0140413 -0.0219078,0.503457 0.288058,0.606229 0.597897,0.709001 0.145742,0.048341 0.291653,0.0967665 0.284759,0.253885 -0.00279134,0.06437 -0.0312123,0.121423 -0.0747741,0.16139 -0.043435,0.0398401 -0.10273,0.0631012 -0.167269,0.0603099l0 0.000296051c-0.0644546,-0.00308739 -0.121466,-0.0315506 -0.161433,-0.0751125 -0.0397978,-0.043435 -0.0631012,-0.10273 -0.0602676,-0.167311z"/>
   <path id="_123964624" class="fil1" d="M32.9096 20.0502c-0.104422,-0.116179 -0.283321,-0.125695 -0.3995,-0.0212734 -0.116179,0.104422 -0.125695,0.283321 -0.0213157,0.3995 0.104422,0.116137 0.283363,0.125695 0.3995,0.0212734 0.116179,-0.104422 0.125737,-0.283321 0.0213157,-0.3995z"/>
   <path id="_123964552" class="fil1" d="M32.9096 23.5105c-0.104422,-0.116179 -0.283321,-0.125737 -0.3995,-0.0213157 -0.116137,0.104422 -0.125695,0.283321 -0.0212734,0.3995 0.104422,0.116179 0.283321,0.125695 0.3995,0.0213157 0.116179,-0.104422 0.125695,-0.283321 0.0212734,-0.3995z"/>
   <path id="_123964480" class="fil1" d="M32.9096 27.3441c-0.104422,-0.116179 -0.283321,-0.125737 -0.3995,-0.0213157 -0.116137,0.104422 -0.125695,0.283321 -0.0212734,0.3995 0.104422,0.116179 0.283321,0.125695 0.3995,0.0213157 0.116179,-0.104422 0.125695,-0.283321 0.0212734,-0.3995z"/>
   <path id="_129335416" class="fil6" d="M47.9486 21.1203c0,0 -7.28625,4.11875 -7.02433,4.214 0.261921,0.095244 6.7147,-1.45247 6.7147,-1.45247l0.309627 -2.76153z"/>
   <path id="_129334696" class="fil1" d="M17.2561 23.8579c-0.119055,0.047622 -1.54771,-1.61915 -5.07174,-3.19067 0,0 3.21448,0.761952 5.47653,2.11918l0.023811 0.619086 -0.428598 0.452409z"/>
   <path id="_129333232" class="fil3" d="M50.2874 9.0977c0.909089,0.527098 1.81446,1.25149 2.77692,2.23857 4.84962,4.97383 8.33655,12.4767 9.20458,19.4215 0.873352,6.9902 -0.460445,13.1195 -3.69574,19.4573 0,0 -0.0334961,0.097697 -0.14147,0.229398 -0.715006,-0.0998116 -1.43826,-0.26209 -2.14751,-0.463447 0.0651313,-0.14312 0.104591,-0.250417 0.0919028,-0.279007 -0.0144642,-0.0326502 -0.130897,0.0665693 -0.287297,0.222461 -1.37926,-0.406775 -2.69665,-0.953835 -3.78451,-1.46617 -0.0155638,-0.157542 -0.0359068,-0.261752 -0.0625514,-0.260779 -0.0240648,0.000888154 -0.0565035,0.0740974 -0.0922412,0.187358 -1.43331,-0.684175 -2.43583,-1.28964 -2.60085,-1.39076l0.00143796 -0.00630167c3.16995,1.08905 8.52184,1.63408 8.52184,1.63408 7.22107,-14.8549 2.21493,-30.6961 -7.7845,-39.524l0 -4.22931e-005 0 -4.22931e-005 0 -0.000126879z"/>
   <path id="_129327424" class="fil1" d="M60.425 26.2415c3.15756,-0.356361 3.97204,3.12546 1.18619,4.29072l-1.18619 -4.29072z"/>
   <path id="_129891224" class="fil2" d="M61.6106 30.5504c1.02975,-1.60477 1.05606,-3.37845 -1.18497,-4.33394 0,0 -0.637652,3.14724 1.18497,4.33394z"/>
   <path id="_129886616" class="fil3" d="M61.5035 30.6828c1.24676,-1.58887 1.26088,-3.55114 -1.1593,-4.51313 0.961829,0.643193 1.75546,2.68316 1.11633,4.38198l0.0429697 0.131151z"/>
   <path id="_129886112" class="fil3" d="M60.5505 26.8353c-0.275455,0.171287 -0.272494,0.674151 0.00655542,1.12288 0.279134,0.448772 0.728836,0.673771 1.00429,0.502484 0.275412,-0.171287 0.272452,-0.674151 -0.00664001,-1.12292 -0.279092,-0.448729 -0.728794,-0.673728 -1.00421,-0.502442z"/>
   <path id="_129330544" class="fil2" d="M49.2865 43.6892c0,0 0.511027,-1.05771 1.81831,-1.72323 1.30728,-0.665524 -0.903211,1.747 -1.81831,1.72323z"/>
   <path id="_129330424" class="fil4" d="M58.7128 49.938c-0.0460571,0.0924103 -0.0924526,0.184905 -0.139525,0.27702 0,0 -0.392818,1.15667 -2.86806,0.870518 0,0 0.719743,-1.27361 0.670979,-1.3837 -0.0487639,-0.110089 -1.25458,1.28008 -1.25458,1.28008 0,0 -1.52306,0.00532893 -2.76668,-1.0679 0,0 -0.00507517,-1.72069 -0.113092,-1.71676 -0.107974,0.00393325 -0.37091,1.40506 -0.37091,1.40506 -0.838841,-0.111611 -1.80202,-0.417432 -2.36731,-0.918309 -0.202288,-0.179196 -0.23553,-0.420985 -0.115672,-0.967327 0.0514284,-0.234388 0.114191,-0.522615 0.196155,-0.876185 4.69529,2.10928 7.69653,2.84395 9.12875,3.0975l-4.22931e-005 0z"/>
   <path id="_129331048" class="fil4" d="M58.4531 27.7872c0,0 0,1.57153 2.11918,2.42872 0,0 -1.40485,-0.047622 -2.00012,-0.619086 -0.595275,-0.571464 -0.119055,-1.80964 -0.119055,-1.80964z"/>
   <path id="_119546360" class="fil1" d="M59.9464 32.4876c0.155342,0.11343 0.189261,0.331197 0.075916,0.486455 -0.113472,0.155258 -0.331197,0.189177 -0.486539,0.0757892 -0.155216,-0.113345 -0.189135,-0.331155 -0.0757469,-0.486412 0.113388,-0.155258 0.331197,-0.189177 0.48637,-0.0758315zm-2.78216 3.91105c-0.0423354,0.120324 0.0208928,0.25232 0.141174,0.294698 0.120281,0.0423354 0.25232,-0.0208505 0.294656,-0.141174 0.0424199,-0.120281 -0.0208505,-0.25232 -0.141174,-0.294698 -0.120281,-0.0423776 -0.25232,0.0208928 -0.294656,0.141174zm2.21827 -0.579626c-0.0282518,0.0802722 0.0138721,0.168199 0.0941021,0.196451 0.0802299,0.0282518 0.168199,-0.0138721 0.196451,-0.0941021 0.0282941,-0.0802299 -0.0138721,-0.168199 -0.0941021,-0.196494 -0.0802299,-0.0282095 -0.168199,0.0139567 -0.196451,0.0941443zm-0.422888 3.32918c-0.0282518,0.0802299 0.0138298,0.168199 0.0940598,0.196409 0.0802299,0.0283363 0.168199,-0.0138721 0.196451,-0.0940598 0.0282941,-0.0802722 -0.0138721,-0.168199 -0.0941021,-0.196451 -0.0802299,-0.0282518 -0.168199,0.0138721 -0.196409,0.0941021zm1.04735 -1.0682c-0.0353147,0.100235 0.0173824,0.210281 0.117575,0.245596 0.100235,0.0353147 0.210366,-0.017467 0.245638,-0.117702 0.0353147,-0.100192 -0.0175093,-0.210196 -0.117702,-0.245511 -0.100192,-0.0352724 -0.210239,0.0174247 -0.245511,0.117617zm-3.58962 1.44414c-0.0494829,0.140455 0.0242762,0.29436 0.164647,0.3438 0.140455,0.0494829 0.29436,-0.0242762 0.343843,-0.164731 0.0494829,-0.140371 -0.0243608,-0.294275 -0.164774,-0.343758 -0.140371,-0.0494829 -0.294275,0.0242762 -0.343716,0.164689zm0.98767 -9.35844c0.133054,0.0971472 0.162109,0.283913 0.0649621,0.416925 -0.0971049,0.133054 -0.283956,0.162152 -0.416925,0.0649621 -0.133012,-0.0971049 -0.162109,-0.283913 -0.0650044,-0.416883 0.0971894,-0.133054 0.283956,-0.162152 0.416967,-0.0650044zm-2.78563 1.00345c0.0886462,0.064793 0.108059,0.189261 0.0433081,0.27795 -0.064793,0.0886885 -0.189261,0.108101 -0.277992,0.0433504 -0.0887308,-0.064793 -0.108101,-0.189304 -0.0433504,-0.277992 0.0648353,-0.0886885 0.189304,-0.108101 0.278035,-0.0433081zm3.086 2.86827c0.0886885,0.064793 0.108059,0.189304 0.0432658,0.27795 -0.0647507,0.0887308 -0.189219,0.108143 -0.27795,0.0433081 -0.0887308,-0.064793 -0.108143,-0.189219 -0.0433081,-0.27795 0.064793,-0.0886885 0.189304,-0.108101 0.277992,-0.0433081zm-3.17147 2.64784c0.132969,0.0971472 0.162067,0.283956 0.0649198,0.416967 -0.0971472,0.132969 -0.283956,0.162067 -0.416925,0.0649621 -0.133012,-0.0971894 -0.162109,-0.283956 -0.0650044,-0.416967 0.0971472,-0.132969 0.283956,-0.162067 0.41701,-0.0649621zm1.07243 -2.65224c0.110808,0.0809066 0.135126,0.236587 0.0541774,0.347437 -0.0809066,0.110808 -0.236714,0.135084 -0.347522,0.0541351 -0.110766,-0.0809489 -0.134957,-0.236714 -0.0540505,-0.34748 0.0809489,-0.110766 0.236545,-0.135084 0.347395,-0.0540928zm5.55409 -3.09924c0.0788343,0.0575186 0.0960475,0.168073 0.0384867,0.246865 -0.0575186,0.078792 -0.168073,0.0960052 -0.246865,0.0384444 -0.078792,-0.0575186 -0.0960052,-0.16803 -0.0384444,-0.246865 0.0575186,-0.078792 0.168073,-0.0960052 0.246822,-0.0384444z"/>
   <path id="_119682776" class="fil4" d="M52.9112 28.1783c-0.142443,-1.0081 -0.340924,-2.05519 -0.609358,-3.13366 1.91431,-0.708197 4.94896,-1.70492 8.03547,-2.21057 0.419928,1.12994 0.770368,2.2741 1.06955,3.41918 -3.38848,-0.000380638 -6.71766,1.33646 -8.49562,1.92505l-4.22931e-005 0z"/>
   <path id="_130621128" class="fil7" d="M58.7067 22.0386c-1.61695,-3.99103 -4.15314,-8.24672 -7.82299,-12.5726 3.86533,2.82822 6.70472,7.12169 8.61839,11.4476 -0.206221,0.682568 -0.747995,1.18873 -0.747995,1.18873 -0.0153524,-0.0215272 -0.0312123,-0.0426737 -0.0473682,-0.0638202l-4.22931e-005 8.45861e-005z"/>
   <path id="_7125608" class="fil6" d="M52.0473 25.0953c-0.148322,-0.585547 -0.317071,-1.18006 -0.508236,-1.78227 1.43788,-1.13722 4.268,-2.75878 7.56496,-3.26875 0.406605,0.860748 0.780814,1.73757 1.11967,2.6242 -2.66023,0.624203 -5.85852,1.65594 -7.99719,2.48273 -0.0600561,-0.0186089 -0.119732,-0.0372179 -0.179196,-0.0559114z"/>
   <path id="_123310440" class="fil1" d="M51.7041 28.3591c0,0 4.79777,-3.06134 10.8011,-3.06625 0,0 0.0904226,-2.56672 -1.5245,-4.62889 0,0 -5.52846,0.276131 -10.3077,4.65482 0,0 0.307217,1.52813 1.03106,3.04032l4.22931e-005 0z"/>
   <path id="_123310368" class="fil6" d="M52.2927 27.2018c0.0795955,-0.0431389 0.159149,-0.0854743 0.237687,-0.126964 0.719955,-0.380215 1.46448,-0.716952 2.21827,-1.013 2.14591,-0.842943 4.43574,-1.3771 6.72764,-1.4641 -0.0267292,-0.244242 -0.0674574,-0.488612 -0.110766,-0.700162 -0.16968,-0.828352 -0.480957,-1.62257 -0.951086,-2.3062 -0.182241,0.0205121 -0.365835,0.0487216 -0.540674,0.0769734 -0.73831,0.119393 -1.47362,0.299393 -2.18972,0.52418 -2.1627,0.67893 -4.2022,1.79103 -5.94776,3.31485 0.138341,0.559241 0.335891,1.15295 0.556407,1.69443z"/>
   <path id="_123310296" class="fil5" d="M61.4237 24.5999l0.0526549 -0.00219924c-0.0268138,-0.244242 -0.0674574,-0.488569 -0.110766,-0.700077 -0.169722,-0.828394 -0.480999,-1.62266 -0.951086,-2.30624 -0.182241,0.0205544 -0.365835,0.0487216 -0.540674,0.0769734 -0.73831,0.119393 -1.47362,0.299308 -2.18972,0.52418 -1.89925,0.596248 -3.70348,1.52669 -5.29708,2.77654 0.039248,0.0554885 0.0806106,0.110681 0.126287,0.16545 0,0 4.01962,-2.50015 7.41397,-2.5954 0,0 0.786862,0.743935 1.49641,2.06077z"/>
   <path id="_123310224" class="fil6" d="M52.2927 27.2018c0.0795955,-0.0431389 0.159149,-0.085432 0.237687,-0.126921 0.719997,-0.380257 1.46452,-0.716994 2.21823,-1.01305 0.105056,-0.041278 0.210366,-0.0816679 0.316098,-0.121423 -0.426229,-0.80581 -0.728286,-1.61094 -0.914757,-2.17585 -0.850302,0.502991 -1.65937,1.08439 -2.41366,1.74285 0.138341,0.559157 0.335807,1.15291 0.556407,1.69439z"/>
   <path id="_123310152" class="fil1" d="M51.3492 26.2265c0,0 2.24568,-1.52018 4.87144,-1.87743 0,0 -1.96494,0.666158 -4.66721,2.76208l-0.204233 -0.884644z"/>
   <path id="_119547512" class="fil1" d="M51.3166 23.8344c0.119055,0.047622 1.54771,-1.61915 5.07174,-3.19067 0,0 -3.21448,0.761952 -5.47653,2.11918l-0.023811 0.619086 0.428598 0.452409z"/>
   <path id="_119541920" class="fil5" d="M61.0681 23.8579c0,0 -1.16674,-0.452409 -4.07168,0.261921 0,0 2.11918,-1.09531 3.54784,-1.14293l0.23811 0.47622 0.285732 0.404787z"/>
   <path id="_119542448" class="fil1" d="M52.4486 28.8347c0,0 1.85726,-0.928629 5.16699,-2.09537 0,0 -2.83351,0.404787 -5.11936,1.23817l-0.23811 0.261921 0.190488 0.595275z"/>
   <path id="_125772112" class="fil1" d="M15.9932 28.7158c0,0 -1.85726,-0.928629 -5.16699,-2.09537 0,0 2.83351,0.404787 5.11936,1.23817l0.23811 0.261921 -0.190488 0.595275z"/>
   <path id="_119547824" class="fil1" d="M9.39625 31.6213c-0.165112,0.0986697 -0.218951,0.312377 -0.120408,0.477404 0.0986697,0.16507 0.312377,0.218909 0.477489,0.120324 0.164985,-0.0985851 0.218867,-0.312334 0.120239,-0.477404 -0.0985851,-0.165028 -0.312334,-0.218867 -0.477319,-0.120324zm2.41003 4.15077c0.0310854,0.123707 -0.0440694,0.249318 -0.167734,0.280445 -0.123665,0.0310854 -0.249318,-0.0440271 -0.280403,-0.167734 -0.0311277,-0.123665 0.0440271,-0.249318 0.167734,-0.280403 0.123665,-0.0311277 0.249318,0.0440271 0.280403,0.167692zm-2.15542 -0.781449c0.0207236,0.0825138 -0.0293091,0.166212 -0.111823,0.186935 -0.0824715,0.0207659 -0.166212,-0.0293091 -0.186935,-0.111781 -0.0207659,-0.0825138 0.0293091,-0.166212 0.111823,-0.186978 0.0824715,-0.0207236 0.166169,0.0293514 0.186935,0.111823zm0.11436 3.35392c0.0207236,0.0825138 -0.0293091,0.166212 -0.111781,0.186935 -0.0825138,0.0208082 -0.166212,-0.0293091 -0.186935,-0.111781 -0.0208082,-0.0825138 0.0293091,-0.166212 0.111781,-0.186935 0.0825138,-0.0207236 0.166212,0.0293091 0.186935,0.111781zm-0.944489 -1.16018c0.0259256,0.103068 -0.0366681,0.207786 -0.139694,0.233711 -0.103068,0.0259256 -0.20787,-0.0367527 -0.233754,-0.139821 -0.0259256,-0.103026 0.036795,-0.207701 0.139821,-0.233627 0.103026,-0.0258834 0.207744,0.0367104 0.233627,0.139736zm3.44134 1.76874c0.0363297,0.144431 -0.0513015,0.290892 -0.195648,0.327179 -0.144389,0.0363297 -0.290849,-0.0513015 -0.327179,-0.195732 -0.0363297,-0.144304 0.0513438,-0.290765 0.195732,-0.327095 0.144346,-0.0363297 0.290807,0.0513015 0.327095,0.195648zm-0.121254 -9.40957c-0.141428,0.0844592 -0.18757,0.267757 -0.10311,0.409143 0.0844592,0.141428 0.2678,0.187612 0.409185,0.10311 0.141386,-0.0844592 0.18757,-0.267757 0.10311,-0.409143 -0.0845015,-0.141428 -0.2678,-0.187612 -0.409185,-0.10311zm2.68134 1.25577c-0.0942712,0.0563766 -0.125061,0.178519 -0.0687262,0.27279 0.0563344,0.0942712 0.178477,0.125061 0.27279,0.0687685 0.0943135,-0.0563344 0.125103,-0.178519 0.0687685,-0.27279 -0.0563766,-0.0943135 -0.178519,-0.125103 -0.272833,-0.0687685zm-3.33705 2.57176c-0.0943135,0.0563344 -0.125061,0.178519 -0.0687262,0.27279 0.0563344,0.0943135 0.178477,0.125103 0.27279,0.0687262 0.0943135,-0.0563344 0.125103,-0.178477 0.0687262,-0.27279 -0.0563344,-0.0942712 -0.178519,-0.125061 -0.27279,-0.0687262zm2.91399 2.92879c-0.141343,0.0844592 -0.187527,0.2678 -0.103068,0.409185 0.0845015,0.141386 0.2678,0.18757 0.409185,0.10311 0.141386,-0.0845015 0.18757,-0.2678 0.10311,-0.409185 -0.0844592,-0.141386 -0.2678,-0.18757 -0.409228,-0.10311zm-0.823488 -2.73979c-0.117786,0.0703756 -0.156357,0.223138 -0.0859818,0.340967 0.0703756,0.117786 0.223265,0.156315 0.341094,0.0859395 0.117744,-0.0704179 0.156188,-0.223265 0.0858126,-0.341009 -0.0703756,-0.117786 -0.223096,-0.156315 -0.340924,-0.0858972zm-5.24493 -3.59779c-0.0837825,0.0500327 -0.111104,0.158514 -0.0610712,0.242255 0.0500327,0.0837825 0.158514,0.111104 0.242297,0.0610289 0.0837403,-0.0499904 0.111062,-0.158472 0.0610289,-0.242255 -0.0500327,-0.0837403 -0.158514,-0.111062 -0.242255,-0.0610289z"/>
   <path id="_122253232" class="fil10" d="M36.2194 18.2841c0.234853,-0.00444077 0.481929,-0.00955823 0.737633,-0.0153947 0.193533,-0.509166 0.554462,-0.956584 1.00319,-1.20924 0.17006,-0.0960052 0.40373,-0.238237 0.657107,-0.310262 1.24151,-0.354204 2.95476,0.257607 3.34356,1.28791 -0.374378,-0.0795109 -0.623315,-0.221024 -1.06968,-0.271521 -0.215906,-0.0244031 -1.01846,-0.0406436 -1.29332,0.0707986l-0.377635 0.122269c0.020639,0.0982045 0.0444077,0.175347 0.0705025,0.23921 1.63526,-0.0644969 3.19875,-0.164351 3.91329,-0.318298 -0.479646,-0.783014 -1.07061,-1.25154 -1.79276,-1.63179 -0.58449,-0.307936 -1.8694,-0.530609 -2.75975,-0.276766l-0.0592526 0.0169595c-0.450844,0.128486 -0.782379,0.296517 -1.06473,0.493518 -0.260737,0.181987 -0.758737,0.617521 -0.931589,0.915095 -0.151494,0.261033 -0.310431,0.672333 -0.351413,0.797309 -0.00875466,0.026983 -0.0171287,0.0572225 -0.0251644,0.0902111zm2.0883 -0.0515975c0.256296,-0.00799339 0.514707,-0.0167481 0.772229,-0.0264332 -0.0688954,-0.496394 -0.0662732,-1.02743 0.0540082,-1.43911 -0.131616,0.0248683 -0.262809,0.0502019 -0.394002,0.0751125 -0.108778,0.0312969 -0.217217,0.0619593 -0.325868,0.0929601 -0.251897,0.071729 -0.214172,0.680961 -0.106367,1.29747zm5.21038 -0.449321c0.200807,-0.103491 0.476431,-0.560045 0.789907,-1.22815 -0.283406,0.169891 -0.422719,0.41701 -0.568165,0.678592 -0.0883502,0.158768 -0.149083,0.236503 -0.194633,0.414683 -0.0114614,0.0450421 -0.0188204,0.0906763 -0.0271099,0.134873zm-4.71445 -1.95191c0.337203,-0.0959629 0.585717,-0.0387404 0.803314,-0.100869 0.00651313,-0.00186089 0.673771,-0.896148 1.26452,-1.06477l0.177673 -0.0508785c0.318551,-0.0907609 0.661802,0.0754508 0.752351,0.393706l0.0168749 0.0596332c0.0639471,0.224322 -0.0831482,0.407832 -0.342574,0.481718 0.033919,-0.0916068 0.166212,-0.201526 0.122565,-0.355093 -0.0408974,-0.144346 -0.251517,-0.24826 -0.409947,-0.203514l-0.0590411 0.0170441c-0.177715,0.0506671 -0.304552,0.27888 -0.253928,0.456596l0.050794 0.177631c0.0788343,0.276893 0.421197,0.392057 0.726806,0.305102l0.0592949 -0.0168749c0.457442,-0.130432 0.700415,-0.573282 0.571083,-1.02772l-0.0085009 -0.0291822c-0.0877158,-0.307893 -0.212819,-0.376873 -0.325022,-0.579838 0.577723,-0.0281672 1.39838,0.303622 1.57639,0.92736l0.0338344 0.118463c0.236883,0.831735 -0.383133,1.16027 -0.609232,0.781999l0.0887308 -0.0253758c0.121889,-0.0345111 0.254604,-0.229144 0.228425,-0.321173l-0.0337499 -0.118336c-0.0337076,-0.11804 -0.294148,-0.204572 -0.430882,-0.165366 -0.241409,0.0686416 -0.389857,0.316817 -0.317494,0.570618l0.0252912 0.0889c0.119943,0.420478 0.665862,0.610796 1.09915,0.487258 0.539236,-0.153904 0.792783,-0.700458 0.638921,-1.23872l-0.0758737 -0.266827c-0.171287,-0.599758 -0.74089,-1.04548 -1.13789,-1.26837 -0.34896,-0.195479 -1.18243,-0.407367 -1.6987,-0.259975l-0.443823 0.126329c-0.8676,0.247414 -2.21802,1.52289 -2.20782,2.13445l0.118463 -0.033919z"/>
   <path id="_122253160" class="fil10" d="M23.9976 16.4155c0.345111,0.754508 0.648733,1.27268 0.863836,1.37317 0.0586182,0.0273636 0.141724,0.053247 0.24623,0.0778615 -0.0189896,-0.0677535 -0.0268138,-0.143796 -0.0457611,-0.218021 -0.0455496,-0.178223 -0.106282,-0.256042 -0.194633,-0.41481 -0.153143,-0.275116 -0.299223,-0.534542 -0.613757,-0.704729 -0.0828944,-0.0448306 -0.168792,-0.0826829 -0.255915,-0.113472zm1.38104 1.50436c0.824376,0.138256 2.36325,0.228467 3.93397,0.287085 0.0276174,-0.0655542 0.0526549,-0.145361 0.0743089,-0.248303l-0.377719 -0.122185c-0.27482,-0.111358 -1.07725,-0.095244 -1.29324,-0.0708409 -0.446403,0.0506671 -0.695256,0.192053 -1.06963,0.271521 0.388631,-1.03017 2.10201,-1.64207 3.34352,-1.28791 0.253251,0.0720674 0.487005,0.214384 0.657065,0.31022 0.45021,0.253589 0.812069,0.703249 1.00518,1.21461 0.257311,0.00554039 0.504049,0.0102772 0.736618,0.0144219 -0.00837403,-0.0346803 -0.0170441,-0.0663578 -0.0262217,-0.094525 -0.0407705,-0.124934 -0.19975,-0.536276 -0.351244,-0.797309 -0.172936,-0.297574 -0.671106,-0.733108 -0.931716,-0.915095 -0.282264,-0.197043 -0.613841,-0.365031 -1.06469,-0.493518l-0.0592526 -0.0170864c-0.890353,-0.253716 -2.17522,-0.0310008 -2.75983,0.276808 -0.734334,0.386685 -1.33325,0.864893 -1.81712,1.6721zm4.14734 0.294783c0.258411,0.0091353 0.516821,0.017467 0.772187,0.0250375 0.108735,-0.618959 0.147645,-1.23246 -0.105141,-1.30449 -0.108609,-0.0310431 -0.217133,-0.0618325 -0.325826,-0.0930024 -0.13132,-0.0249106 -0.262471,-0.0502864 -0.39396,-0.0750702 0.120831,0.414049 0.122819,0.94876 0.0527394,1.44752zm0.277442 -2.38321c-0.33716,-0.0960052 -0.585632,-0.0388673 -0.803272,-0.100869 -0.00647084,-0.00186089 -0.673855,-0.896274 -1.26456,-1.06481l-0.177673 -0.0508785c-0.318551,-0.0907609 -0.66159,0.0753239 -0.752309,0.393664l-0.0167481 0.0597178c-0.0641163,0.224153 0.0829367,0.407705 0.342489,0.481633 -0.0340036,-0.0916914 -0.166296,-0.201442 -0.12265,-0.355093 0.040982,-0.144219 0.251559,-0.24826 0.409947,-0.203345l0.0590834 0.0170018c0.177758,0.0505402 0.304595,0.278711 0.253885,0.456511l-0.0507517 0.177589c-0.0788766,0.276893 -0.421281,0.392141 -0.726933,0.305229l-0.0591257 -0.0170018c-0.457526,-0.130389 -0.700542,-0.573325 -0.571083,-1.02759l0.00841632 -0.0292668c0.0877581,-0.307893 0.212819,-0.376831 0.325191,-0.579922 -0.577808,-0.0280826 -1.3985,0.303791 -1.57647,0.927444l-0.0338767 0.118378c-0.236926,0.831904 0.383091,1.16044 0.609189,0.78221l-0.0887731 -0.025545c-0.121804,-0.0344688 -0.254562,-0.229186 -0.22834,-0.321131l0.0337499 -0.118336c0.033623,-0.117998 0.294148,-0.204445 0.430966,-0.165366 0.241366,0.0686839 0.389815,0.316775 0.317367,0.570703l-0.0252067 0.0888154c-0.119985,0.420478 -0.665904,0.610712 -1.0992,0.487216 -0.539194,-0.153778 -0.792656,-0.700373 -0.638879,-1.23868l0.0758737 -0.266827c0.171202,-0.599716 0.740848,-1.04553 1.13785,-1.26837 0.349002,-0.195563 1.18243,-0.407282 1.69862,-0.259933l0.443866 0.126287c0.867642,0.247457 2.21802,1.52289 2.20782,2.13445l-0.118463 -0.0338767z"/>
   <path id="_122252896" class="fil11" d="M38.7357 15.6231c0.550782,-0.180676 1.07103,-0.389223 1.56201,-0.619551 0.182495,-0.152086 0.382202,-0.283194 0.573748,-0.337879l0.177673 -0.0508785c0.00951594,-0.00270676 0.0189473,-0.00515975 0.0285055,-0.00740129 0.52731,-0.289623 1.01719,-0.603184 1.47036,-0.931758 -0.387447,-0.108609 -0.868953,-0.168876 -1.21119,-0.0711792l-0.443823 0.126329c-0.764955,0.218148 -1.90522,1.23546 -2.15728,1.89232z"/>
   <path id="_122252824" class="fil11" d="M25.6107 13.8436c0.225337,0.161644 0.46036,0.319186 0.705744,0.471525 0.118167,-0.0191165 0.233754,-0.0263486 0.340882,-0.0211465 -0.0350187,0.0633127 -0.0713907,0.113641 -0.107382,0.162194 0.148872,0.0880541 0.301211,0.174163 0.457315,0.25803 0.149971,-0.113811 0.355008,-0.155089 0.550656,-0.0993464l0.177673 0.0508785c0.406436,0.115968 0.849075,0.575566 1.08786,0.851655 0.35154,0.124638 0.717502,0.237898 1.09827,0.338006 -0.00422931,-0.615279 -1.34462,-1.8784 -2.20766,-2.12455l-0.443866 -0.126287c-0.497789,-0.142105 -1.29061,0.0498212 -1.6595,0.23904z"/>
   <path id="_122252560" class="fil11" d="M36.2194 18.2841l0.0322696 -0.000507517 0.000803568 0 0.0110808 -0.000253758 0.0110385 -0.000126879 0.0111231 -0.000253758c0.214849,-0.00414472 0.439552,-0.00892384 0.671318,-0.0142528 0.161475,-0.424834 0.439425,-0.806571 0.787751,-1.06815 -0.353993,0.0097274 -0.699273,0.0180591 -1.02785,0.0251221 -0.048637,0.0599293 -0.0899996,0.117575 -0.120958,0.170906 -0.151494,0.261033 -0.310431,0.672333 -0.351413,0.797309 -0.00875466,0.026983 -0.0171287,0.0572225 -0.0251644,0.0902111zm4.80335 -1.22079c0.440947,0.241493 0.788173,0.576412 0.938145,0.973798 -0.374378,-0.0795109 -0.623315,-0.221024 -1.06968,-0.271521 -0.215906,-0.0244031 -1.01846,-0.0406436 -1.29332,0.0707986l-0.377635 0.122269c0.020639,0.0982045 0.0444077,0.175347 0.0705025,0.23921 0.945377,-0.0373025 1.8666,-0.0862778 2.61384,-0.150817l0.0602676 -0.00528663c0.477446,-0.0422931 0.880161,-0.0911415 1.16763,-0.147476l0.00807797 -0.00160714c0.0218232,-0.00431389 0.0430543,-0.00871237 0.0634819,-0.0131108 -0.229609,-0.374843 -0.48489,-0.677492 -0.767704,-0.933027 -0.401826,0.0449152 -0.885025,0.0835288 -1.4136,0.116771zm2.49609 0.71949c0.00752816,-0.00393325 0.0151409,-0.00828944 0.0228805,-0.0131954 0.00702065,-0.00444077 0.0141682,-0.00930447 0.021358,-0.0145488 0.00803568,-0.00583644 0.0161559,-0.0120958 0.0244031,-0.0189473 0.00702065,-0.00583644 0.0140413,-0.0119689 0.0212311,-0.0185244 0.00795109,-0.00727441 0.0159868,-0.0149294 0.0241493,-0.0230497 0.0085432,-0.0085009 0.017171,-0.017467 0.0259256,-0.0268984 0.00782422,-0.00845861 0.015733,-0.0172133 0.0236841,-0.0263909 0.00896613,-0.0103195 0.0179323,-0.0210619 0.0270676,-0.0322696 0.00761275,-0.00934677 0.0152678,-0.018905 0.0230074,-0.0288862 0.00845861,-0.0109116 0.0170018,-0.0221193 0.0256296,-0.0337499 0.00955823,-0.0128994 0.0192856,-0.026264 0.029013,-0.0400515l0.0254604 -0.0367527c0.0100657,-0.0148026 0.0202161,-0.0299435 0.030451,-0.0455919l0.0228805 -0.0354839c0.0109539,-0.0172133 0.0220347,-0.0349764 0.0331578,-0.0531624l0.0253335 -0.0418701c0.0121381,-0.020343 0.0243185,-0.040982 0.0366681,-0.0623823l0.0188204 -0.032904c0.0135338,-0.023811 0.0271944,-0.0481718 0.0409397,-0.0732093l0.0197509 -0.0362452c0.0149717,-0.0276174 0.0299858,-0.0556577 0.0452113,-0.0846284l0.0117575 -0.0223307c0.0155216,-0.029732 0.0312969,-0.0603945 0.0470722,-0.0914799l0.0203853 -0.0403899c0.0156907,-0.0312546 0.0314237,-0.0629744 0.0473259,-0.0954554l0.0120112 -0.02453c0.0176785,-0.0363297 0.0355685,-0.0735476 0.053543,-0.111358l0.0119266 -0.0250798 0.0178477 -0.0381906c-0.283237,0.169891 -0.422508,0.416925 -0.567911,0.678423 -0.0883502,0.158768 -0.149083,0.236503 -0.194633,0.414683 -0.0114614,0.0450421 -0.0188204,0.0906763 -0.0271099,0.134873l0.000761275 -0.000422931zm0.764109 -2.22322c-0.238237,0.502526 -0.453593,0.878342 -0.629828,1.06553 0.45778,-0.15272 0.694833,-0.597093 0.629828,-1.06553zm-5.22603 1.5988c-0.270422,0.0100657 -0.541689,0.0192856 -0.810504,0.0275751 -0.0492291,0.249022 -0.00871237,0.646153 0.0612826,1.04654l0.228721 -0.00723211 0.0120535 -0.000380638 0.0120535 -0.000380638 0.0320581 -0.00109962 0.00414472 -0.000169172 0.0120535 -0.000380638 0.0120535 -0.000380638 0.0120535 -0.000380638 0.0042716 -0.000169172 0.0198777 -0.000718982 0.0120535 -0.000380638 0.0120535 -0.000380638 0.000634396 -4.22931e-005 0.035653 -0.0012265 0.0120535 -0.000380638 0.00414472 -0.000169172 0.0200046 -0.000718982 0.0120535 -0.000380638 0.0212311 -0.000761275 0.00300281 -0.000126879 0.0120535 -0.000380638 0.0559114 -0.00198777 0.00448306 -0.000169172 0.0120535 -0.000380638 0.00465224 -0.000169172 0.0190742 -0.000718982 0.000507517 0 0.0120535 -0.000465224 0.00346803 -0.000126879 0.0177208 -0.000634396 0.00583644 -0.000211465 0.0184821 -0.000676689 0.00554039 -0.000211465 0.0194971 -0.000718982 0.00380638 -0.000126879 0.0205121 -0.000761275 0.00351032 -0.000126879 0.0216118 -0.000803568 0.00169172 -8.45861e-005 0.0225422 -0.000803568 0.000761275 -4.22931e-005 0.0120535 -0.000465224 0.000676689 0 0.0115037 -0.000507517c-0.0485947,-0.35006 -0.0617479,-0.717163 -0.0230074,-1.04768z"/>
   <path id="_122252488" class="fil11" d="M24.0005 16.4219l0.0282518 0.0614095 0.0432658 0.0927064 0.0234726 0.0495675c0.0156484,0.032904 0.0312546,0.0653851 0.0466915,0.0971472l0.0137875 0.0282518c0.0158176,0.0323119 0.0315506,0.0639048 0.0471145,0.0950325l0.022373 0.0443231 0.03781 0.0736745 0.0268138 0.0512169c0.0126033,0.0238533 0.0250798,0.0473259 0.0375139,0.0702488l0.0200469 0.0367104c0.013999,0.0254604 0.0278711,0.0502864 0.0416164,0.0745204l0.0156484 0.0274905c0.0163251,0.0283786 0.0325234,0.0559537 0.0485101,0.0825138l0.00761275 0.012561c0.0172979,0.0285055 0.034342,0.0558691 0.0511746,0.0821331l0.00376408 0.00592103c0.0175939,0.0273213 0.0349341,0.0533315 0.0520205,0.0780307l0.0030451 0.00444077c0.0173402,0.0249529 0.034342,0.0485101 0.05109,0.070714l0.00253758 0.00329886c0.0166635,0.0219924 0.0330309,0.0425891 0.0491445,0.0617479l0.00257988 0.00300281c0.0163251,0.0193279 0.0322696,0.0371756 0.0480026,0.0535007l0.000676689 0.000718982c0.0159445,0.0165366 0.0315083,0.0314237 0.0467761,0.0447461l0.00101503 0.000888154c0.0309162,0.0268984 0.0605214,0.0471568 0.0885617,0.0602676 0.0143373,0.0066823 0.0300704,0.0132377 0.0472836,0.0197509l0.000126879 4.22931e-005 0.00101503 0.000380638 0.00329886 0.00114191c0.0145065,0.00541351 0.0300281,0.0107847 0.0464378,0.0160714l0.00380638 0.00126879 0.00359491 0.00118421 0.000296051 8.45861e-005 0.00380638 0.00114191c0.0128571,0.00401784 0.0266446,0.00795109 0.0406013,0.0119266l0.0042716 0.00126879 0.00131108 0.000338344 0.020343 0.00562498 0.00444077 0.00114191 0.00444077 0.00114191 0.000380638 0.000126879 0.0365412 0.00930447 0.00482141 0.0012265 0.00477912 0.00114191 0.0146334 0.00355262c-0.0189896,-0.0677535 -0.0268138,-0.143796 -0.0457611,-0.218021 -0.0455496,-0.178223 -0.106282,-0.256042 -0.194633,-0.41481 -0.153143,-0.275116 -0.299223,-0.534542 -0.613757,-0.704729 -0.0828944,-0.0448306 -0.168792,-0.0826829 -0.255873,-0.113472l0.00287593 0.00638625zm7.89349 0.808601c-0.324472,-0.00655542 -0.668399,-0.0142528 -1.02315,-0.0234726 0.345619,0.262513 0.621327,0.643658 0.781195,1.06705l0.00249529 4.22931e-005c0.255365,0.0054981 0.5002,0.0101503 0.731162,0.0142951l0.00296051 8.45861e-005c-0.00837403,-0.0346803 -0.0170441,-0.0663578 -0.0262217,-0.094525 -0.0407705,-0.124934 -0.19975,-0.536276 -0.351244,-0.797309 -0.0301127,-0.0518513 -0.0702911,-0.108016 -0.117194,-0.166169zm-1.53219 -0.0375139c-0.267842,-0.00782422 -0.539321,-0.016452 -0.810885,-0.0260525 0.03781,0.330943 0.0241493,0.698216 -0.0249529,1.04773l0.0120535 0.000380638c0.250375,0.00883925 0.500581,0.0169172 0.74808,0.0242762l0.0120535 0.000380638c0.0700796,-0.399035 0.111062,-0.795828 0.0636511,-1.04671zm-2.80094 -0.116856c-0.520247,-0.0306625 -1.00218,-0.0662309 -1.41487,-0.107424 -0.28311,0.260018 -0.538137,0.568672 -0.767408,0.951171l0.0390788 0.00638625 0.0085009 0.00135338c0.0902957,0.0144642 0.188416,0.0284209 0.293641,0.0418278l4.22931e-005 0 0.046903 0.00583644c0.106536,0.0131954 0.220093,0.0258834 0.339571,0.0380638l0.0497366 0.00499058 0.0723634 0.00710523 0.0553193 0.00520205c0.185709,0.0173824 0.383894,0.033623 0.591976,0.0489754l0.0627206 0.00460994 0.111188 0.00786651 0.0229228 0.00160714 0.121508 0.00820485 0.000888154 4.22931e-005 0.0654274 0.00422931 0.0622554 0.00401784 0.00372179 0.000253758 0.0663578 0.00410243 0.0669499 0.00414472 0.0894075 0.00532893 0.0664424 0.00393325c0.129417,0.00752816 0.260948,0.0146757 0.394383,0.0216118l0.0704179 0.00359491 0.0707986 0.0036372 0.00655542 0.000296051 0.105056 0.00511746 0.0602676 0.00291822c0.132631,0.00634396 0.266658,0.0123496 0.401573,0.018186l0.00173402 8.45861e-005 0.0107001 0.000465224 0.0620862 0.00257988 0.0729978 0.00308739 0.000465224 0 0.114234 0.00469453 0.0976124 0.00389096 0.00744358 0.000296051 0.0210196 0.000845861 0.0524857 0.00207236 0.0735476 0.00279134 0.0629744 0.002453 0.0107001 0.000380638c0.0276174,-0.0655542 0.0526549,-0.145361 0.0743089,-0.248303l-0.377719 -0.122185c-0.27482,-0.111358 -1.07725,-0.095244 -1.29324,-0.0708409 -0.446403,0.0506671 -0.695256,0.192053 -1.06963,0.271521 0.147264,-0.390323 0.484678,-0.720589 0.914587,-0.961025z"/>
  </g>
 </g>
</svg>
