<?xml version="1.0" encoding="UTF-8"?>
<!DOCTYPE svg PUBLIC "-//W3C//DTD SVG 1.1//EN" "http://www.w3.org/Graphics/SVG/1.1/DTD/svg11.dtd">
<!-- Creator: CorelDRAW -->
<svg xmlns="http://www.w3.org/2000/svg" xml:space="preserve" width="161.908mm" height="176.792mm" style="shape-rendering:geometricPrecision; text-rendering:geometricPrecision; image-rendering:optimizeQuality; fill-rule:evenodd; clip-rule:evenodd"
viewBox="0 0 8.99079 9.81728"
 xmlns:xlink="http://www.w3.org/1999/xlink">
 <defs>
  <style type="text/css">
   <![CDATA[
    .fil0 {fill:none}
    .fil1 {fill:#501D33}
    .fil12 {fill:#50404B}
    .fil6 {fill:#62545D}
    .fil5 {fill:#6F6F80}
    .fil7 {fill:#7C7078}
    .fil4 {fill:#9893A0}
    .fil10 {fill:#9C5E58}
    .fil8 {fill:#BA9475}
    .fil2 {fill:#C7C0C9}
    .fil9 {fill:#D8C196}
    .fil3 {fill:white}
    .fil11 {fill:#501D33;fill-rule:nonzero}
   ]]>
  </style>
 </defs>
 <g id="Layer_x0020_1">
  <metadata id="CorelCorpID_0Corel-Layer"/>
  <rect class="fil0" width="8.99079" height="9.81728"/>
  <g id="_85780872">
   <path id="_85017680" class="fil1" d="M2.68593 5.64586c-0.0843336,0.216134 -0.0340622,0.350945 0.176192,0.452298 0,0 0.102314,-0.0737662 0.100276,-0.0846501 -0.0020324,-0.0108839 -0.104663,-0.340516 -0.115936,-0.339728 -0.0112726,0.000788528 -0.160532,-0.0279205 -0.160532,-0.0279205z"/>
   <path id="_85017608" class="fil1" d="M2.65091 5.52901c0,0 1.04519,-0.350217 2.35515,-0.998137 1.30995,-0.647925 2.97523,-0.539275 2.97523,-0.539275 0,0 -1.20584,1.15364 -2.6258,1.49933 -1.41996,0.345681 -2.44574,0.749235 -2.44574,0.749235 -0.102958,-0.0631933 -0.0117446,-0.398401 -0.0117446,-0.398401 0,0 -0.285342,-0.198159 -0.247098,-0.312751z"/>
   <path id="_85017536" class="fil2" d="M7.76721 4.06954c-0.256799,0.000621937 -0.51653,0.0168367 -0.770081,0.0433357 -0.657649,0.0687407 -1.34949,0.221338 -1.9469,0.513009 -0.54841,0.267738 -1.10906,0.514825 -1.67688,0.739106 -0.167423,0.0661308 -0.335707,0.130385 -0.504941,0.191762 -0.0389821,0.0141435 -0.0781031,0.028287 -0.117313,0.0420641 0.0169034,0.0244444 0.0434967,0.0522872 0.0544029,0.0629267 0.0409535,0.0399539 0.0917968,0.0806631 0.139964,0.112582l0.0489442 0.0323463 -0.0167035 0.0562409c-0.0163814,0.055408 -0.0291589,0.119279 -0.0348507,0.176208 -0.00151597,0.0151653 -0.00398706,0.0535866 -0.00122722,0.083173 0.0388933,-0.0146488 0.0779532,-0.028959 0.116908,-0.0431858 0.169089,-0.0617606 0.339306,-0.120711 0.510066,-0.177669 0.57914,-0.193178 1.16745,-0.364278 1.75966,-0.511688 0.645127,-0.160582 1.27319,-0.488382 1.82115,-0.858457 0.194972,-0.131662 0.384968,-0.272086 0.567162,-0.420396 0.0165868,-0.0134994 0.0335513,-0.0273153 0.0506435,-0.0413588z"/>
   <path id="_85017464" class="fil3" d="M7.32145 4.13356c-0.0216345,0.00454792 -1.12889,0.490731 -1.12889,0.490731l1.49027 -0.512476c0,0 -0.307431,0.0054364 -0.361379,0.0217456z"/>
   <path id="_85017392" class="fil3" d="M7.76721 4.06954c-0.256799,0.000616384 -0.51653,0.0168312 -0.770081,0.0433357 -0.657649,0.0687352 -1.34949,0.221338 -1.9469,0.513009 -0.54841,0.267738 -1.10906,0.51482 -1.67688,0.739106 -0.167423,0.0661308 -0.335707,0.130379 -0.504941,0.191757 -0.0389821,0.0141435 -0.0780976,0.0282926 -0.117313,0.0420641 0.0169034,0.0244444 0.0434967,0.0522872 0.0544029,0.0629267 0.00435911,0.00425916 0.00885705,0.00852387 0.0134272,0.012783 0.0193856,-0.00696903 0.0387378,-0.013988 0.0580678,-0.0209959 0.169234,-0.0613774 0.337518,-0.125631 0.504941,-0.191762 0.567818,-0.224286 1.12847,-0.471367 1.67688,-0.739106 0.597415,-0.291672 1.28925,-0.444274 1.9469,-0.513009 0.210787,-0.0220344 0.425844,-0.036972 0.639935,-0.0417364 0.0237669,-0.0188747 0.0474061,-0.0378715 0.0709231,-0.0570128 0.0165868,-0.0134994 0.0335513,-0.0273208 0.0506435,-0.0413588zm-4.79519 1.81344c-0.0136326,0.0504102 -0.0241612,0.105968 -0.0291755,0.156134 -0.00151597,0.0151653 -0.00398706,0.0535866 -0.00122722,0.0831786l0.0118335 -0.00445352c0.00639152,-0.0521317 0.0181583,-0.108534 0.0328294,-0.158161l0.0166979 -0.0562354 -0.030958 -0.0204629z"/>
   <path id="_85017320" class="fil4" d="M2.99417 5.80744l-0.0164758 0.055469c-0.0163814,0.055408 -0.0291589,0.119279 -0.0348507,0.176208 -0.00151597,0.0151653 -0.00398706,0.0535866 -0.00122722,0.0831786 0.0388933,-0.01466 0.0779532,-0.0289645 0.116908,-0.0431913 0.169089,-0.0617606 0.339306,-0.120711 0.510066,-0.177669 0.57914,-0.193173 1.16745,-0.364283 1.75966,-0.511693 0.645127,-0.160576 1.27319,-0.488382 1.82115,-0.858451 0.194972,-0.131656 0.384968,-0.272086 0.567162,-0.420391 0.0161148,-0.0131162 0.0326017,-0.026549 0.0491997,-0.0401816l-4.77159 1.73672z"/>
   <polygon id="_85947840" class="fil2" points="3.07002,5.96611 6.83102,4.42406 3.06621,5.75438 "/>
   <path id="_85947768" class="fil5" d="M6.80072 4.42929l-3.86027 1.47363 0.0134272 -0.081496 -0.0626713 -0.0537976 3.90585 -1.35296c0.340316,-0.11789 0.349123,-0.117241 0.00365944,0.0146322z"/>
   <g>
    <path id="_85947696" class="fil1" d="M2.3273 5.85319l-0.152863 -1.04479c0.0608943,-0.0268099 0.110322,-0.0448017 0.174198,-0.0634043l0.554485 0.898616 -0.242689 0.154463 0.00390932 0.0106007 -0.0259492 0.00342621 -0.0220788 0.0140547 -0.00381492 -0.010634 -0.285197 0.0376716z"/>
    <path id="_85947624" class="fil6" d="M2.39782 5.75986l0.211403 -0.0279317 0.179873 -0.114481 -0.47727 -0.773462c-0.0153097,0.0052476 -0.0304638,0.0107617 -0.0455625,0.0165813l0.131556 0.899294z"/>
    <path id="_85947552" class="fil7" d="M2.78738 5.61466l-0.475554 -0.77068c-0.00680244,0.00233227 -0.0135938,0.00473672 -0.0203462,0.00717449l0.226063 0.621099c0,0 0.129085,0.135671 0.134288,0.145406 0.00235448,0.00440354 0.0629045,0.0025766 0.135549,-0.00299863z"/>
    <polygon id="_85947480" class="fil1" points="2.49904,5.57198 2.39533,5.13647 2.59569,5.55009 "/>
   </g>
   <g>
    <path id="_85947384" class="fil1" d="M2.46382 6.22829l0.554485 0.898616c0.0638763,-0.0186026 0.113304,-0.0365944 0.174198,-0.0634043l-0.152863 -1.04479 -0.285197 0.0376661 -0.00381492 -0.0106285 -0.0220843 0.0140547 -0.0259492 0.00342621 0.00390932 0.0105951 -0.242683 0.154468z"/>
    <path id="_85947312" class="fil6" d="M2.57784 6.25445l0.179901 -0.114486 0.211375 -0.0279261 0.131562 0.899294c-0.0150986,0.00581956 -0.0302528,0.0113337 -0.0455625,0.0165813l-0.477276 -0.773462z"/>
    <path id="_85947240" class="fil7" d="M2.96959 6.11527l0.131084 0.896062c-0.00671359,0.00258215 -0.0134549,0.00510877 -0.0201963,0.00757986l-0.226063 -0.621099c0,0 0.011678,-0.186909 0.0094068,-0.197704 -0.00102731,-0.00488665 0.0465287,-0.0424139 0.105768,-0.0848389z"/>
    <polygon id="_85947168" class="fil1" points="2.76835,6.32105 2.96884,6.72133 2.85646,6.2757 "/>
   </g>
   <g>
    <path id="_85947072" class="fil1" d="M3.08534 5.80514c-0.0114003,0.178579 -0.112287,0.38875 -0.230572,0.517302l-0.0208293 0.0226396 -0.0306193 -0.002671c-0.174659,-0.0152319 -0.381953,-0.122738 -0.509872,-0.246437l-0.0225286 -0.0217845 0.00200464 -0.0313023c0.0114003,-0.178585 0.112282,-0.38875 0.230567,-0.517302l0.0208349 -0.0226396 0.0306138 0.002671c0.174659,0.0152264 0.381953,0.122733 0.509872,0.246437l0.0225286 0.0217845 -0.00199908 0.0313023z"/>
    <path id="_85947000" class="fil8" d="M3.00501 5.8054c-0.00975109,0.15268 -0.098205,0.34025 -0.20354,0.454731 -0.149332,-0.0130218 -0.334302,-0.107345 -0.448217,-0.217511 0.00974554,-0.15268 0.098205,-0.340244 0.20354,-0.454725 0.149332,0.0130218 0.334297,0.107345 0.448217,0.217506z"/>
    <path id="_85946928" class="fil9" d="M2.58888 5.6864c0,0 0.176458,0.0563964 0.272109,0.168589 0,0 -0.0171699,0.146649 -0.100182,0.323457 -0.00583622,0.0124276 0.0148654,0.0133994 0.0271431,0.00468674 0,0 0.159271,-0.245188 0.142562,-0.344653 -0.016709,-0.09946 -0.300085,-0.168462 -0.345136,-0.168401 -0.0450516,6.66361e-005 0.00216012,0.0193189 0.00350395,0.0163203z"/>
    <path id="_85912792" class="fil9" d="M3.00501 5.8054c-0.00899033,0.14083 -0.0849389,0.311324 -0.17934,0.426782 0.13265,-0.237236 0.141952,-0.412228 0.141952,-0.412228 -0.100915,-0.130135 -0.378216,-0.218028 -0.413722,-0.228873 0.000966224,-0.00106618 0.00192134,-0.00213791 0.00289312,-0.00318743 0.149332,0.0130218 0.334297,0.107345 0.448217,0.217506z"/>
    <path id="_85912720" class="fil10" d="M2.55536 5.61441c0,0 -0.155806,0.171049 -0.182078,0.416831 0,0 0.133733,0.159905 0.417503,0.209909 -0.00951231,-0.0168478 -0.0187858,-0.0338067 -0.0278373,-0.0508434 -0.259154,-0.0885539 -0.338612,-0.18295 -0.338612,-0.18295 0.0338623,-0.174242 0.145861,-0.32569 0.145861,-0.32569 -0.00011106,9.44012e-005 -1.1106e-005,0.000377605 0.000255439,0.000805187 -0.00538642,-0.0225452 -0.010423,-0.0452182 -0.0150931,-0.0680633z"/>
    <path id="_85912648" class="fil10" d="M2.74819 6.15363c-0.0673858,-0.134316 -0.125754,-0.286424 -0.165369,-0.432263 -0.032474,0.0472395 -0.089298,0.15614 -0.111338,0.270182 0,0 0.0655367,0.0853054 0.276707,0.162081z"/>
    <path id="_85912576" class="fil11" d="M2.95398 5.83314c-0.00389266,0.061072 -0.0230339,0.128574 -0.051532,0.192256 -0.029492,0.0658865 -0.0693238,0.128258 -0.112859,0.17557l-0.00661364 0.0071856 -0.00962337 -0.000838505c-0.0597282,-0.00519762 -0.126048,-0.0261436 -0.188814,-0.0566019 -0.0649425,-0.0315133 -0.126659,-0.0735496 -0.173743,-0.119079l-0.00714673 -0.00691905 0.00062749 -0.00983994c0.00389266,-0.0610665 0.0230283,-0.128569 0.051532,-0.192251 0.029492,-0.0658865 0.0693183,-0.128263 0.112859,-0.175575l0.00661364 -0.0071856 0.00962337 0.000838505c0.0597282,0.00520317 0.126042,0.0261491 0.188814,0.0566074 0.0649425,0.0315133 0.126659,0.0735441 0.173737,0.119079l0.00715228 0.0069135 -0.00062749 0.00983994zm-0.0887593 0.174192c0.0250663,-0.0560077 0.0423473,-0.114653 0.0472561,-0.167862 -0.0427027,-0.0395819 -0.0976164,-0.0762262 -0.155662,-0.104397 -0.055208,-0.0267877 -0.112826,-0.0456624 -0.164891,-0.051743 -0.037816,0.042947 -0.0725279,0.0984605 -0.098888,0.157356 -0.0250663,0.0560077 -0.0423417,0.114631 -0.047245,0.167845 0.0427027,0.0395819 0.0975997,0.0762429 0.155651,0.104413 0.0552025,0.0267877 0.112826,0.0456402 0.164902,0.0517208 0.0378049,-0.042947 0.0725168,-0.0984438 0.0988769,-0.157333z"/>
   </g>
   <path id="_85912480" class="fil1" d="M0.783574 6.22084l0.0822068 0.225874 0.0919968 0.252745 0.0822068 0.225874 0.351856 -0.160066c-0.0534811,-0.0207072 -0.127753,-0.0563242 -0.157756,-0.10674 -0.0928575,-0.156062 -0.209071,-0.454447 -0.227485,-0.502298l-0.223026 0.0646093z"/>
   <g>
    <path id="_85912408" class="fil8" d="M0.898611 6.27433l0.118607 -0.0349396c0.0441964,0.110227 0.128735,0.312429 0.199653,0.431613 0.0078353,0.0131717 0.0186914,0.0253162 0.0314078,0.0364611l-0.165069 0.0740439 -0.184599 -0.507179z"/>
    <path id="_85912336" class="fil9" d="M0.996821 6.30849l0.066253 0.0422695c-0.00838505,-0.0198243 -0.0163203,-0.0388711 -0.0236725,-0.0567573 -0.0230894,0.00770203 -0.0425805,0.0144878 -0.0425805,0.0144878z"/>
    <path id="_85912264" class="fil9" d="M0.901115 6.27364l0.116119 -0.0342177c0.00924577,0.0230617 0.0202574,0.0501381 0.0325407,0.0796469l-0.126598 0.0431025 -0.0220621 -0.0885317z"/>
    <path id="_85912192" class="fil10" d="M1.25354 6.71193l-0.168939 0.0766482c-0.0379493,-0.0925187 -0.0742271,-0.193983 -0.0742271,-0.193983 0.00245443,-0.000894035 0.0318576,-0.0122888 0.0811073,-0.0314134 0.0225341,0.00838505 0.0471895,0.0126942 0.07285,0.0103064 0.0178085,0.035667 0.0355504,0.0689684 0.052537,0.0975164 0.00889037,0.0149432 0.0216901,0.0285814 0.0366721,0.0409257z"/>
   </g>
   <path id="_85912096" class="fil1" d="M0.992062 6.53108l0.216978 0.218394 0.0573737 -0.0261658 -0.322541 -0.324629 0.048189 0.1324zm0.0188802 -0.31309l0.0178585 -0.00515875c0.00466453,0.0117113 0.00990657,0.0247664 0.0156206,0.0388544l-0.0334791 -0.0336957z"/>
   <path id="_85912024" class="fil1" d="M0.847584 6.61464c-0.00696903,0.126187 -0.0759041,0.27423 -0.15735,0.364483l-0.0143434 0.0158927 -0.0212736 -0.00204906c-0.12135,-0.0116891 -0.26585,-0.0887871 -0.355326,-0.176919l-0.0157539 -0.0155207 0.00122166 -0.0221176c0.00696903,-0.126187 0.0759041,-0.27423 0.157356,-0.364483l0.0143434 -0.0158927 0.021268 0.00204906c0.121356,0.0116891 0.26585,0.0887871 0.355326,0.176913l0.0157594 0.0155207 -0.00122722 0.0221232z"/>
   <path id="_85911952" class="fil10" d="M0.784391 6.6171c-0.00576403,0.104336 -0.0641984,0.232121 -0.13435,0.309853 -0.100337,-0.00966224 -0.22503,-0.0751045 -0.302089,-0.151003 0.00576403,-0.104341 0.0642039,-0.232127 0.13435,-0.309858 0.100343,0.00966779 0.22503,0.0751045 0.302089,0.151009z"/>
   <path id="_85911880" class="fil9" d="M0.504352 6.53361c0,0 0.118779,0.0394597 0.183583,0.116658 0,0 -0.0107784,0.100176 -0.0656144,0.220638 -0.00385379,0.00846279 0.010051,0.00923466 0.0182472,0.00333736 0,0 0.105696,-0.166818 0.0939681,-0.234909 -0.011728,-0.0680855 -0.202368,-0.116713 -0.232621,-0.116902 -0.0302528,-0.000183249 0.00154929,0.0132217 0.00243777,0.0111782z"/>
   <path id="_85781184" class="fil9" d="M0.784391 6.6171c-0.00531423,0.0962393 -0.0554413,0.212414 -0.11824,0.290872 0.0878653,-0.16152 0.0932073,-0.281116 0.0932073,-0.281116 -0.0684298,-0.0894923 -0.255083,-0.151003 -0.278983,-0.1586 0.000644149,-0.000721892 0.00128275,-0.00144934 0.0019269,-0.00216567 0.100343,0.00966779 0.22503,0.0751045 0.302089,0.151009z"/>
   <path id="_85781112" class="fil1" d="M0.88942 6.2032l-0.20921 -0.0440687 -0.2784 0.250013 0.0986159 0.270943 0.0274541 0.0754432 0.0986159 0.270943 0.373973 0.0125665 0.13194 -0.168234c-0.0777755,-0.238841 -0.149043,-0.434651 -0.242989,-0.667605z"/>
   <path id="_85781040" class="fil6" d="M0.851388 6.29034l-0.158899 -0.039071 -0.205784 0.194755 0.0794969 0.218406 0.0221343 0.0608166 0.0794914 0.218406 0.282826 0.0169145 0.0966058 -0.132067c-0.0631544,-0.192362 -0.120606,-0.350206 -0.195871,-0.538159z"/>
   <path id="_85780968" class="fil7" d="M0.851371 6.29033l-0.158883 -0.0390543 -0.00212125 0.00200464 0.257371 0.707115 0.00290978 0.000172143 0.0966058 -0.132051c-0.0631489,-0.192384 -0.1206,-0.350223 -0.195883,-0.538187z"/>
   <path id="_85780896" class="fil12" d="M0.639213 6.33444l-0.130196 0.116863 0.164736 0.461083 0.191035 -0.00479225c0,0 -0.150992,-0.194516 -0.225574,-0.573154z"/>
  </g>
 </g>
</svg>
