<?xml version="1.0" encoding="UTF-8"?>
<!DOCTYPE svg PUBLIC "-//W3C//DTD SVG 1.1//EN" "http://www.w3.org/Graphics/SVG/1.1/DTD/svg11.dtd">
<!-- Creator: CorelDRAW -->
<svg xmlns="http://www.w3.org/2000/svg" xml:space="preserve" width="161.908mm" height="176.792mm" style="shape-rendering:geometricPrecision; text-rendering:geometricPrecision; image-rendering:optimizeQuality; fill-rule:evenodd; clip-rule:evenodd"
viewBox="0 0 10.4204 11.3783"
 xmlns:xlink="http://www.w3.org/1999/xlink">
 <defs>
  <style type="text/css">
   <![CDATA[
    .fil0 {fill:none}
    .fil1 {fill:#501D33}
    .fil2 {fill:#62545D}
    .fil8 {fill:#656575}
    .fil12 {fill:#6F6F80}
    .fil6 {fill:#81454F}
    .fil7 {fill:#9893A0}
    .fil3 {fill:#9A8D8E}
    .fil4 {fill:#9D6E5B}
    .fil9 {fill:#B57366}
    .fil10 {fill:#C7C0C9}
    .fil5 {fill:#D7AC80}
    .fil11 {fill:white}
    .fil13 {fill:#501D33;fill-rule:nonzero}
   ]]>
  </style>
 </defs>
 <g id="Layer_x0020_1">
  <metadata id="CorelCorpID_0Corel-Layer"/>
  <rect class="fil0" width="10.4204" height="11.3783"/>
  <g id="_85034024">
   <path id="_85133264" class="fil1" d="M1.04632 7.15145c-0.0797608,-0.0792266 -0.217458,-0.166775 -0.412023,-0.117656 0,0 -0.188065,0.0684464 -0.0788726,0.298236 -0.189185,0.162469 -0.0569775,0.525528 0.192326,0.528411 0.0640571,0.246214 0.258976,0.178147 0.258976,0.178147 0.161607,-0.078229 0.211164,-0.211395 0.228534,-0.318683 0.0262458,-0.162147 -0.0712718,-0.451566 -0.18894,-0.568456z"/>
   <path id="_85133192" class="fil2" d="M1.13131 7.71505c0.022159,-0.136867 -0.0684979,-0.400355 -0.165938,-0.497177 -0.0776434,-0.0771092 -0.177478,-0.123918 -0.301885,-0.0960631 -0.094557,0.049441 -0.0481924,0.189288 0.0175508,0.226346l-0.0566493 0.0486687c-0.119715,0.10284 -0.0232467,0.367783 0.134524,0.369604l0.0836738 0.00434427c-0.0338274,0.0534249 0.000643595,0.124684 0.0451611,0.159644 0.0637996,0.0501103 0.135573,0.0172805 0.177819,-0.0355908 0.0449809,-0.0562889 0.0586315,-0.135831 0.0657433,-0.179776z"/>
   <path id="_85133120" class="fil3" d="M1.13131 7.71506c0.0221526,-0.136867 -0.0685043,-0.400368 -0.165945,-0.497184 -0.0481023,-0.0477741 -0.1047,-0.0839055 -0.170411,-0.0978651 -0.00559928,0.0141848 -0.0115847,0.0364339 -0.0122219,0.0676676 0,0 0.165977,0.107023 -0.016476,0.19268 0,0 0.0114946,0.190195 0.123551,0.313 0,0 0.119419,-0.0473171 0.142782,0.0538818 0.0233625,0.101199 -0.0440026,0.10647 -0.0440026,0.10647 0,0 0.0114174,0.0336407 0.049544,0.0689677 0.0100594,-0.00825089 0.019295,-0.0176667 0.02743,-0.0278484 0.0449809,-0.0562889 0.0586315,-0.135831 0.0657497,-0.179769z"/>
   <path id="_85133048" class="fil3" d="M0.646762 7.37759l-0.0223778 0.0192306c-0.119715,0.10284 -0.0232467,0.367776 0.134518,0.369604l0.0333576 0.00173127c-0.246883,-0.148857 -0.143406,-0.387992 -0.143406,-0.387992 -0.000675775,-0.000894598 -0.00137086,-0.00175058 -0.00209169,-0.00257438z"/>
   <path id="_85132976" class="fil1" d="M0.972936 7.17618c-0.0746185,0.242082 -0.0165275,0.398392 0.202565,0.524813 0,0 0.100253,-0.0788276 0.0976206,-0.0913391 -0.00262587,-0.0125179 -0.12404,-0.393662 -0.135464,-0.393346 -0.0114238,0.000315362 -0.164722,-0.0401282 -0.164722,-0.0401282z"/>
   <polygon id="_85132904" class="fil1" points="1.38662,7.68267 1.21318,7.72896 1.17453,7.62278 1.05,7.28064 1.00367,7.15334 1.13206,7.09521 "/>
   <path id="_85132832" class="fil4" d="M1.16917 7.18088l-0.15483 0.0691479c-0.0215733,0.14562 0.0139338,0.270484 0.132851,0.365002l0.187859 -0.051346 -0.16588 -0.382804z"/>
   <path id="_85132760" class="fil5" d="M1.16918 7.18089l-0.154836 0.069135c-0.00157681,0.0106258 -0.00282538,0.0211357 -0.00377791,0.0315362l0.172767 -0.0680152 -0.0141527 -0.032656z"/>
   <path id="_85132688" class="fil6" d="M1.04733 7.49661c0.0225258,0.0433848 0.0553492,0.0830367 0.0998667,0.118422l0.187859 -0.051346 -0.0616757 -0.142338 -0.22605 0.075262z"/>
   <polygon id="_85132616" class="fil1" points="1.26529,7.40268 0.999896,7.49894 0.981766,7.44913 1.24417,7.35395 "/>
   <polygon id="_85132544" class="fil1" points="6.6592,5.3135 6.57679,5.51487 6.42962,5.622 6.46612,5.74515 6.2119,5.94314 6.13133,6.14949 3.34698,7.26574 3.16124,6.68665 2.92759,6.13462 7.13337,4.73222 6.79476,5.24249 "/>
   <polygon id="_85132472" class="fil7" points="3.06895,6.20765 6.89685,4.91405 6.72802,5.16847 6.5832,5.24434 6.49782,5.45295 6.31769,5.58407 6.35485,5.70945 6.13164,5.88329 6.0568,6.07496 3.39843,7.11289 3.25204,6.65361 "/>
   <polygon id="_85132400" class="fil8" points="5.35807,6.30415 3.50232,6.86383 3.43459,7.06972 "/>
   <path id="_85132328" class="fil9" d="M5.60806 6.25016l-0.730159 0.285087c0.0310535,-0.153813 0.1391,-0.288266 0.297309,-0.345849 0.150936,-0.0549373 0.311867,-0.0269152 0.43285,0.0607618z"/>
   <polygon id="_85132256" class="fil10" points="6.37078,5.70798 4.0256,6.46583 6.32316,5.56784 "/>
   <polygon id="_85952712" class="fil10" points="3.06896,6.20766 6.89685,4.91408 6.72804,5.16848 6.58318,5.24434 6.4978,5.45292 6.44718,5.48977 3.59815,6.52673 3.23879,6.62137 "/>
   <polygon id="_85952640" class="fil11" points="5.58109,5.37346 5.7359,5.60727 5.71019,5.38969 "/>
   <polygon id="_85952568" class="fil11" points="4.13989,5.90141 4.30574,6.10856 4.24433,5.8711 "/>
   <polygon id="_85952496" class="fil11" points="6.55252,5.24161 5.81624,5.6193 6.53047,5.35549 "/>
   <path id="_85952424" class="fil11" d="M3.06896 6.20766l3.82789 -1.29359 -0.168802 0.254407 -0.144867 0.0758606 -0.0853794 0.208576 -0.000205951 0.000148027c-0.00234912,-0.00127432 -0.0045116,-0.00268379 -0.00634585,-0.00440219l0.0150344 -0.16933 0.00421555 -0.0474523 0.179512 -0.109598 0.0750625 -0.100459 -3.65866 1.27707 -0.0374508 -0.0912361z"/>
   <path id="_85952352" class="fil12" d="M6.53863 5.35319l-0.0408297 0.0997315 -0.180117 0.131145 0.0155106 0.052305 -2.28812 0.832806c-0.0501039,0.0182331 -0.106007,-0.00783256 -0.124246,-0.0579365l-0.000669339 -0.00184712c-0.0182395,-0.0501039 0.00783256,-0.106007 0.0579365,-0.124246l2.56054 -0.931958z"/>
   <path id="_85952280" class="fil1" d="M2.4642 5.7292c-0.106676,-0.025776 -0.21964,-0.0817173 -0.233619,-0.201471 -0.00897172,-0.0769097 0.0298306,-0.146598 0.0819619,-0.200486 0.0078583,-0.0925683 0.0686652,-0.174884 0.159084,-0.207798 0.0883335,-0.0321476 0.185504,-0.0100401 0.251112,0.0527105 0.0786023,0.00570869 0.158569,0.0334283 0.203325,0.101559 0.062152,0.0946214 0.0208074,0.202906 -0.0381652,0.288356 0.00397742,0.0113466 0.0080192,0.0226674 0.0121189,0.033969 0.0636966,0.175566 0.142466,0.357826 0.226867,0.525476 0.119831,0.130759 0.479137,0.299014 0.68875,0.325614 -0.0834615,0.103381 -0.296929,0.414057 -0.317453,0.694517 0.043108,0.182685 0.0999246,0.372931 0.163982,0.548363 0.00412545,0.0112887 0.00830238,0.0225645 0.0125437,0.0338145 0.100111,0.0275523 0.201387,0.0839248 0.214594,0.196361 0.00951234,0.0809579 -0.0339304,0.153594 -0.0904766,0.208493 -0.00992424,0.090245 -0.0701455,0.169639 -0.158479,0.201793 -0.0904252,0.032907 -0.189912,0.0089331 -0.255437,-0.056926 -0.074567,-0.0077682 -0.149089,-0.0362151 -0.191656,-0.100903 -0.0662646,-0.100716 -0.0156909,-0.216184 0.0494603,-0.304504 -0.0192692,-0.0785251 -0.0474265,-0.161066 -0.0748759,-0.233805 -0.073814,-0.195614 -0.174614,-0.387586 -0.30518,-0.551349l-0.00357839 -0.00448586 -0.0030249 -0.00487202c-0.125018,-0.201896 -0.143342,-0.252231 -0.177343,-0.487253l-0.000817366 -0.00567651 -0.000141591 -0.00573444c-0.0052453,-0.209374 -0.0514233,-0.421227 -0.120616,-0.618521 -0.0257309,-0.0733699 -0.0572156,-0.154701 -0.0929352,-0.227241z"/>
   <path id="_85952208" class="fil2" d="M2.52881 5.6439c0,0 0.232924,0.428068 0.245454,0.928644 0.038088,0.263185 0.023871,0.224158 0.163879,0.450253 0.312163,0.391518 0.408889,0.869156 0.408889,0.869156 -0.172844,0.202996 -0.0624288,0.288376 0.0856819,0.28734 0.0357517,0.0577756 0.108259,0.0846071 0.174614,0.0604529 0.0652606,-0.0237487 0.103368,-0.0890929 0.0953422,-0.155209 0.119619,-0.0934114 0.154373,-0.230948 -0.0995385,-0.278136 -0.11949,-0.301627 -0.201877,-0.655245 -0.201877,-0.655245 0.00772958,-0.295037 0.152242,-0.515913 0.235839,-0.615297 0.0241799,-0.028743 0.0289489,-0.0210327 -0.00692509,-0.0271855 -0.126421,-0.0217149 -0.38644,-0.10925 -0.583645,-0.33214 0,0 -0.164194,-0.323851 -0.266539,-0.631708 0.164175,-0.199367 0.0491385,-0.282384 -0.102538,-0.277049 -0.0363438,-0.0558126 -0.107538,-0.0813698 -0.172799,-0.0576147 -0.0663547,0.0241477 -0.104655,0.0913133 -0.0949046,0.15855 -0.114122,0.094409 -0.143824,0.230793 0.119065,0.275189z"/>
   <path id="_85952136" class="fil3" d="M3.60213 7.80393c-0.118949,-0.3011 -0.200879,-0.652767 -0.200879,-0.652767 0.00771671,-0.29505 0.152242,-0.515932 0.235858,-0.61529 0.0241348,-0.0287816 0.0289361,-0.0210391 -0.00695727,-0.0272048 -0.00429278,-0.000733699 -0.00875933,-0.00157037 -0.013361,-0.00246497 -0.0177954,0.00632011 -0.0394009,0.0170102 -0.0643338,0.0371161 0,0 -0.170373,0.171711 -0.190337,0.592758 0,0 0.22455,0.680403 0.237995,0.669732 0.000366849,-0.000289618 0.0010748,-0.000965393 0.00201445,-0.0018793z"/>
   <path id="_85952064" class="fil3" d="M3.45223 8.20423c0.0389761,0.0399995 0.0991974,0.0558641 0.155119,0.0355265 0.0530709,-0.0193207 0.088179,-0.0661745 0.0951105,-0.11857 -0.0213802,0.0218629 -0.107622,0.0987597 -0.25023,0.0830431zm0.274011 -0.139718c0.0865121,-0.0800633 0.108124,-0.182923 -0.0433011,-0.237223 0.0491514,0.0505158 0.107339,0.139293 0.0433011,0.237223z"/>
   <path id="_85951992" class="fil2" d="M2.52883 5.64391c0,0 0.232904,0.428049 0.245435,0.928631 0.0207946,0.143612 0.0260206,0.197211 0.0492093,0.25303l0.817527 -0.3048c0.0163151,-0.0175251 0.0203827,-0.00673844 -0.010851,-0.0120996 -0.126409,-0.0217213 -0.38644,-0.109244 -0.583638,-0.332121 0,0 -0.164201,-0.323851 -0.266539,-0.631728 0.164188,-0.199347 0.0491321,-0.28239 -0.102525,-0.277061 -0.0363503,-0.0558062 -0.107551,-0.0813376 -0.172812,-0.0576018 -0.0663676,0.0241606 -0.104623,0.0913069 -0.0948917,0.158556 -0.114129,0.0944219 -0.143831,0.230793 0.119084,0.275195z"/>
   <path id="_85951920" class="fil3" d="M2.85897 5.39528c0.0123055,-0.0918732 -0.0756611,-0.131242 -0.181513,-0.127522 -0.0363503,-0.0558062 -0.107551,-0.0813376 -0.172812,-0.0576018 -0.0550081,0.0200287 -0.0906826,0.0695984 -0.0957477,0.124272 0.0281316,-0.0359126 0.118917,-0.132433 0.226282,-0.0445561l0.0130907 0.00961532c0,0 0.146096,-0.0262651 0.2107,0.0957927z"/>
   <path id="_85951848" class="fil3" d="M2.73797 6.25216c0.0197133,0.100549 0.0335056,0.208654 0.0362988,0.320375 0.0207946,0.143612 0.0260206,0.197211 0.0492093,0.25303l0.364121 -0.132529 0.462552 -0.171608c0.0111664,-0.0115847 0.00784543,-0.00798058 -0.0199965,-0.0127625 -0.126409,-0.0217213 -0.38644,-0.109244 -0.583638,-0.332121 0,0 -0.00467894,-0.00919698 -0.0128783,-0.0258725l-0.295668 0.101489z"/>
   <path id="_85951776" class="fil11" d="M3.63996 6.51018c-0.00285113,-0.000392593 -0.00610128,-0.00087529 -0.00980839,-0.00151245 -0.126409,-0.0217213 -0.38644,-0.109244 -0.583638,-0.332121 0,0 -0.164201,-0.323851 -0.266539,-0.631728l0.00161542 -0.00199515 -0.00546413 0.00781325 0.166916 0.645307c0,0 0.22083,0.344723 0.696917,0.314235z"/>
   <polygon id="_85951704" class="fil1" points="6.51118,5.45478 5.46925,5.93801 6.36615,5.64432 "/>
   <g>
    <path id="_85951632" class="fil13" d="M2.71564 5.22957c0.0119966,-0.00312787 0.0242571,0.00406752 0.027385,0.0160641 0.00312787,0.0119966 0.0252289,0.0237358 0.0132323,0.0268637 -0.00994999,-0.00303133 -0.0365691,0.00251646 -0.0400445,0.00362344 -0.0410678,0.01311 -0.0675646,0.0366013 -0.0818525,0.0635293 -0.0140947,0.0265483 -0.0165597,0.0566621 -0.00962175,0.0833649 0.000514876,0.00196297 0.0010748,0.00394524 0.00169909,0.00588246l3.21798e-005 8.36674e-005c0.00106193,0.00332739 0.00234269,0.00673844 0.00381008,0.0101688 0.00722758,0.0168365 0.0184326,0.0316713 0.0321025,0.0406559 0.0119966,0.00788404 0.0262394,0.0110248 0.0413703,0.00619139 0.00166048,-0.000534184 0.00348185,-0.0012164 0.00541264,-0.0020402 0.018085,-0.00776176 0.032611,-0.0263295 0.0392464,-0.0458819 0.00287687,-0.00850833 0.00413188,-0.0169394 0.00333382,-0.0243472 -0.000637159,-0.00588246 -0.002613,-0.0110184 -0.00618495,-0.014674 -0.00532897,-0.00546413 -0.0150022,-0.00877221 -0.030146,-0.00837961 -0.0123892,0.000328234 -0.022706,-0.00946729 -0.0230343,-0.0218565 -0.000328234,-0.0123956 0.00946729,-0.0227125 0.0218565,-0.0230407 0.0290712,-0.000759443 0.04984,0.00784543 0.0635422,0.0218822 0.0110441,0.011308 0.0169845,0.0256408 0.0186514,0.0412287 0.00151889,0.0140561 -0.000547056,0.029142 -0.005477,0.0436744 -0.0103233,0.0304292 -0.0339947,0.0597836 -0.0641343,0.0727134 -0.00301846,0.00130006 -0.00615921,0.00246497 -0.00937719,0.00349472 -0.0295539,0.00942867 -0.0569518,0.00353334 -0.0798187,-0.0114882 -0.0212,-0.0139338 -0.0381395,-0.0359448 -0.0486687,-0.0604787 -0.00184712,-0.00430565 -0.00353334,-0.00885587 -0.00503935,-0.0135155l-0.000102975 -0.000308926 -8.36674e-005 -0.000225258 -3.21798e-005 -8.36674e-005 1.28719e-005 0c-0.000785186,-0.00244566 -0.00150601,-0.00495568 -0.00216892,-0.00747214l-0.000251002 -0.000862418c-0.00964106,-0.0371161 -0.00622357,-0.0789305 0.0133546,-0.115821 0.0193851,-0.0365176 0.0544031,-0.0680924 0.107879,-0.0851605 0.00424773,-0.00135799 0.00863061,-0.00261943 0.0131165,-0.00378434z"/>
    <path id="_85951560" class="fil13" d="M2.34276 5.36529c-0.0111986,0.0053161 -0.0159676,0.0187093 -0.0106515,0.0299143 0.0053161,0.0111986 -0.00406752,0.0343937 0.00713104,0.0290776 0.00567651,-0.00871428 0.0296311,-0.0215798 0.0330036,-0.022957 0.03989,-0.0163602 0.0752878,-0.0153948 0.103542,-0.00395168 0.0278612,0.0112822 0.0491063,0.032759 0.0609549,0.057679 0.000868854,0.00183425 0.00171196,0.00371355 0.00248428,0.00559928l2.57438e-005 8.36674e-005c0.00131937,0.00323085 0.00253577,0.00666121 0.00361701,0.0102396 0.00528392,0.0175444 0.00623644,0.0361121 0.00153819,0.0517773 -0.00411257,0.0137536 -0.0130071,0.0253126 -0.0277068,0.0313367 -0.00161542,0.000656467 -0.00344967,0.0013065 -0.00545769,0.00191148 -0.0188445,0.00568295 -0.0419109,0.000798058 -0.0595583,-0.00991781 -0.00767166,-0.00466607 -0.0140561,-0.0103233 -0.0182009,-0.0165082 -0.00329521,-0.00491063 -0.0050844,-0.0101173 -0.00469825,-0.0152146 0.0005728,-0.00761373 0.00585028,-0.0163602 0.0177053,-0.0257953 0.00970542,-0.00771671 0.0113144,-0.0218501 0.0035977,-0.0315555 -0.00771671,-0.00969898 -0.0218501,-0.011308 -0.0315555,-0.00359126 -0.0227575,0.0181043 -0.0331323,0.0380429 -0.0346061,0.0575954 -0.00119709,0.0157681 0.00346898,0.0305708 0.012209,0.0435778 0.00787761,0.0117392 0.0191534,0.0219723 0.0322699,0.0299336 0.0274687,0.0166756 0.064469,0.0239482 0.09587,0.0144809 0.00314718,-0.000946085 0.00630724,-0.00207238 0.00942867,-0.00335313 0.0286979,-0.0117778 0.0459012,-0.0338982 0.0537595,-0.0601054 0.0072855,-0.0243022 0.00611416,-0.052054 -0.00158324,-0.0776112 -0.00135799,-0.00448586 -0.00299272,-0.00905539 -0.0048334,-0.0135927l-0.000115847 -0.00030249 -8.36674e-005 -0.000225258 -3.21798e-005 -8.36674e-005 -1.28719e-005 0c-0.000965393,-0.00236843 -0.00202733,-0.00475617 -0.00313431,-0.00711173l-0.000360413 -0.000823802c-0.016476,-0.0346319 -0.045972,-0.0644625 -0.0846843,-0.0801405 -0.0383197,-0.0155171 -0.0854437,-0.0171904 -0.137382,0.00410614 -0.00412545,0.00168622 -0.00828951,0.00353977 -0.0124793,0.00552848z"/>
   </g>
   <g>
    <path id="_85951464" class="fil13" d="M3.76897 8.10256c0.0111986,-0.0053161 0.0159676,-0.0187093 0.0106515,-0.0299079 -0.0053161,-0.011205 0.00406752,-0.0344002 -0.00713104,-0.0290841 -0.00567651,0.00872072 -0.0296311,0.0215798 -0.0330036,0.022957 -0.03989,0.0163602 -0.0752878,0.0153948 -0.103535,0.00395811 -0.0278677,-0.0112822 -0.0491128,-0.0327654 -0.0609614,-0.0576855 -0.000868854,-0.00183425 -0.00171196,-0.00370711 -0.00248428,-0.00559284l-2.57438e-005 -8.36674e-005c-0.00131937,-0.00323085 -0.00253577,-0.00666765 -0.00361701,-0.0102396 -0.00528392,-0.0175508 -0.00623644,-0.0361121 -0.00153819,-0.0517773 0.00411257,-0.0137536 0.0130071,-0.0253126 0.0277068,-0.0313431 0.00161542,-0.000656467 0.00344967,-0.00130006 0.00545769,-0.00191148 0.0188445,-0.00567651 0.0419109,-0.000791622 0.0595583,0.00992424 0.00767166,0.00465963 0.0140561,0.0103168 0.0182073,0.0165082 0.00328877,0.00491063 0.00507797,0.0101173 0.00469181,0.0152146 -0.0005728,0.0076073 -0.00585028,0.0163602 -0.0177053,0.0257889 -0.00970542,0.00771671 -0.0113144,0.0218501 -0.0035977,0.0315555 0.00771671,0.00970542 0.0218501,0.0113144 0.0315555,0.0035977 0.0227575,-0.0181043 0.0331387,-0.0380429 0.0346061,-0.0576018 0.00119709,-0.0157617 -0.00346898,-0.0305643 -0.012209,-0.0435714 -0.00787761,-0.0117456 -0.0191534,-0.0219723 -0.0322699,-0.0299401 -0.0274687,-0.0166756 -0.064469,-0.0239417 -0.09587,-0.0144809 -0.00314718,0.000946085 -0.00630724,0.00207881 -0.00942867,0.00335957 -0.0286979,0.0117714 -0.0459012,0.0338917 -0.0537595,0.0601054 -0.0072855,0.0242957 -0.00611416,0.0520476 0.00158968,0.0776112 0.00135155,0.00448586 0.00298628,0.00905539 0.00482697,0.0135863l0.000115847 0.000308926 8.36674e-005 0.000225258 3.21798e-005 8.36674e-005 1.28719e-005 -6.43595e-006c0.000965393,0.00237487 0.00202733,0.00476261 0.00313431,0.00711817l0.000360413 0.000823802c0.016476,0.0346319 0.045972,0.0644625 0.0846843,0.0801341 0.0383197,0.0155171 0.0854437,0.0171969 0.137382,-0.00410614 0.00412545,-0.00168622 0.00828951,-0.00353977 0.0124793,-0.00552848z"/>
    <path id="_85951392" class="fil13" d="M3.39608 8.23829c-0.0119966,0.00312787 -0.0242571,-0.00406752 -0.027385,-0.0160641 -0.00312787,-0.0120031 -0.0252289,-0.0237358 -0.0132323,-0.0268637 0.00995642,0.00303133 0.0365691,-0.00251646 0.0400445,-0.00362988 0.0410678,-0.0131036 0.0675646,-0.0365948 0.0818525,-0.0635229 0.0140947,-0.0265547 0.0165597,-0.0566621 0.00962175,-0.0833649 -0.000514876,-0.00196297 -0.0010748,-0.00394524 -0.00169909,-0.00588246l-3.21798e-005 -9.01034e-005c-0.00106193,-0.00332095 -0.00233625,-0.00673201 -0.00381008,-0.0101624 -0.00722758,-0.0168429 -0.0184326,-0.0316713 -0.0321025,-0.0406559 -0.0119902,-0.00789048 -0.0262394,-0.0110248 -0.0413703,-0.00619782 -0.00166048,0.000534184 -0.00348185,0.00122283 -0.00541264,0.00204663 -0.018085,0.00776176 -0.032611,0.0263295 -0.03924,0.0458755 -0.00288331,0.00850833 -0.00413832,0.0169459 -0.00334026,0.0243537 0.000637159,0.00587603 0.002613,0.0110119 0.00618495,0.014674 0.00532897,0.00546413 0.0150022,0.00877221 0.030146,0.00837318 0.0123892,-0.000321798 0.022706,0.00946729 0.0230343,0.0218629 0.000328234,0.0123956 -0.00946729,0.0227125 -0.0218565,0.0230343 -0.0290712,0.000759443 -0.04984,-0.00783899 -0.0635357,-0.0218758 -0.0110505,-0.011308 -0.0169909,-0.0256408 -0.0186578,-0.0412287 -0.00151245,-0.0140561 0.000547056,-0.029142 0.005477,-0.0436744 0.0103233,-0.0304292 0.0339947,-0.0597836 0.0641343,-0.0727198 0.00301846,-0.00130006 0.00616564,-0.00246497 0.00937719,-0.00348829 0.0295539,-0.00942867 0.0569518,-0.00353977 0.0798187,0.0114882 0.0212,0.0139338 0.0381395,0.0359448 0.0486687,0.0604722 0.00184712,0.00430565 0.00353334,0.00885587 0.00503935,0.0135155l0.000102975 0.000308926 8.36674e-005 0.000225258 3.21798e-005 8.36674e-005 -1.28719e-005 6.43595e-006c0.000785186,0.00243923 0.00150601,0.00494925 0.00216892,0.00747214l0.000251002 0.000855982c0.00964106,0.0371226 0.00622357,0.0789305 -0.0133546,0.115821 -0.0193851,0.036524 -0.0544031,0.0680988 -0.107879,0.0851605 -0.00424773,0.00136442 -0.00863061,0.00261943 -0.0131165,0.00379078z"/>
   </g>
   <path id="_85951296" class="fil13" d="M0.807082 7.93332c0.00624288,0.0120545 0.0210713,0.0167657 0.0331259,0.0105228 0.0120545,-0.00623644 0.0377919,0.00315362 0.031549,-0.00890092 -0.00975047,-0.00588246 -0.0247269,-0.0316005 -0.0263617,-0.0352433 -0.0194044,-0.0430244 -0.0196876,-0.0817881 -0.00823802,-0.113131 0.0112951,-0.0309183 0.0339947,-0.0549695 0.0608069,-0.0688776 0.00197584,-0.00101688 0.00399673,-0.00201445 0.00603049,-0.00292836l9.65393e-005 -3.21798e-005c0.00348185,-0.00157037 0.0071954,-0.00303133 0.0110634,-0.00434427 0.0189989,-0.00644883 0.0392786,-0.00818653 0.0565978,-0.00364275 0.0152017,0.00399029 0.028183,0.0132838 0.0353334,0.0291356 0.00077875,0.00174414 0.0015575,0.00372642 0.00229764,0.00590177 0.00692509,0.020402 0.0024521,0.045824 -0.00860487,0.0655373 -0.00481409,0.00857269 -0.0107609,0.0157681 -0.0173771,0.0205436 -0.0052453,0.00379078 -0.0108768,0.00594039 -0.0164696,0.00570869 -0.00834743,-0.00033467 -0.0181236,-0.00578592 -0.028891,-0.0184004 -0.00881082,-0.0103233 -0.0243343,-0.0115525 -0.0346576,-0.00274172 -0.0103297,0.00881082 -0.0115525,0.0243343 -0.00274172,0.0346576 0.0206658,0.0242185 0.0428763,0.0348249 0.0643274,0.0356938 0.0172934,0.000707955 0.0333125,-0.00494925 0.0472142,-0.0150022 0.0125501,-0.00906182 0.0233175,-0.0217921 0.0315362,-0.0364404 0.0172097,-0.0306802 0.023768,-0.0714391 0.0122283,-0.10544 -0.00115847,-0.00341106 -0.00251002,-0.00682211 -0.00402891,-0.0101946 -0.013966,-0.0309569 -0.0388217,-0.048939 -0.0677963,-0.0565463 -0.0268637,-0.00705381 -0.0571835,-0.00472399 -0.0848581,0.00466607 -0.00485915,0.0016476 -0.00979552,0.00361057 -0.0146868,0.00579879l-0.000328234 0.000141591 -0.000244566 9.65393e-005 -9.01034e-005 3.86157e-005 6.43595e-006 1.28719e-005c-0.00256151,0.0011456 -0.00513589,0.00239417 -0.00767166,0.00370067l-0.000881726 0.000424773c-0.0372706,0.0193336 -0.0688004,0.0527298 -0.0844912,0.0956769 -0.0155235,0.0425159 -0.0155814,0.0941387 0.00968611,0.150164 0.00200158,0.00444724 0.00418337,0.00893954 0.00651962,0.0134447z"/>
   <path id="_85951224" class="fil13" d="M0.553209 7.2488c-0.00297341,-0.0132452 0.00536115,-0.0263874 0.0186063,-0.0293544 0.0132516,-0.00297341 0.0269216,-0.0267092 0.029895,-0.013464 -0.00369424,0.0107738 0.00137086,0.0401089 0.00245853,0.0439511 0.0127882,0.0454314 0.0374894,0.0753071 0.0664126,0.0919569 0.0285177,0.0164246 0.0613668,0.0202604 0.0908499,0.0136764 0.00216892,-0.000495568 0.00435714,-0.00102975 0.00650031,-0.00163473l9.65393e-005 -3.21798e-005c0.00367493,-0.00104262 0.00745927,-0.00231051 0.0112694,-0.00378434 0.0186964,-0.00727906 0.0353463,-0.0189796 0.0456953,-0.0335892 0.00908113,-0.0128269 0.0130521,-0.0282925 0.00833456,-0.0450324 -0.000521312,-0.00184068 -0.00119709,-0.00385514 -0.00203376,-0.00599831 -0.00780681,-0.0200802 -0.0275716,-0.0366785 -0.0487137,-0.044672 -0.00919698,-0.00347542 -0.0183811,-0.00516164 -0.0265161,-0.00456953 -0.00645526,0.000469825 -0.0121511,0.00243923 -0.0162894,0.0062107 -0.00617852,0.00562502 -0.0101624,0.0160834 -0.010304,0.0326625 -0.000109411,0.0135734 -0.0112114,0.0244952 -0.0247849,0.0243858 -0.0135734,-0.000115847 -0.0244952,-0.0112179 -0.0243794,-0.0247913 0.000263874,-0.0318387 0.0104649,-0.0542358 0.0263359,-0.0686909 0.0127882,-0.0116619 0.0286979,-0.0176216 0.0458111,-0.0188573 0.0154399,-0.00112629 0.0318708,0.00170553 0.0475874,0.00764591 0.0329006,0.0124407 0.0641214,0.0394524 0.0771349,0.0729129 0.0013065,0.00335313 0.00246497,0.00684142 0.00346898,0.0104005 0.00919698,0.0326882 0.0017184,0.0624416 -0.0155879,0.0868918 -0.0160448,0.0226674 -0.0407653,0.0403792 -0.0680023,0.0509728 -0.00478191,0.00185999 -0.0098277,0.0035269 -0.0149765,0.00500074l-0.000347542 0.000102975 -0.000244566 7.72315e-005 -9.65393e-005 3.21798e-005 -6.43595e-006 -1.28719e-005c-0.00269666,0.000765879 -0.00547056,0.00146096 -0.00825089,0.00209169l-0.000952521 0.000244566c-0.0409777,0.00914549 -0.0865958,0.00382939 -0.126222,-0.0189861 -0.0392271,-0.0225902 -0.0724495,-0.0620941 -0.0890994,-0.121253 -0.00133224,-0.00469181 -0.0025422,-0.00953808 -0.00364919,-0.0144938z"/>
   <path id="_85951152" class="fil3" d="M3.66138 7.94201c0.00624931,0.017184 -0.00731124,0.0379013 -0.0302876,0.0462616 -0.0229828,0.00836674 -0.0466864,0.0012164 -0.0529357,-0.0159676 -0.00625575,-0.017184 0.00730481,-0.0379013 0.0302876,-0.0462616 0.0229764,-0.00836674 0.04668,-0.00120996 0.0529357,0.0159676z"/>
   <path id="_85951080" class="fil3" d="M3.46341 8.04685c-0.00682855,0.0164117 -0.0301653,0.022307 -0.0521119,0.013168 -0.0219466,-0.00913906 -0.0342007,-0.0298564 -0.0273657,-0.0462616 0.00683498,-0.0164117 0.0301718,-0.022307 0.0521184,-0.013168 0.0219402,0.00913906 0.0341942,0.0298564 0.0273592,0.0462616z"/>
   <path id="_85951008" class="fil1" d="M3.53639 6.5603l-0.770866 0.228521 0.0384226 0.10555c0,0 0.718214,-0.309608 0.732444,-0.334071z"/>
   <path id="_85950936" class="fil3" d="M2.52886 5.52528c-0.0138566,0.00751719 -0.03552,-0.00985345 -0.0483791,-0.0387959 -0.012859,-0.0289361 -0.0120481,-0.0584964 0.00181494,-0.0660071 0.0138566,-0.00751719 0.03552,0.00985345 0.0483791,0.0387959 0.012859,0.0289361 0.0120417,0.0584964 -0.00181494,0.0660071z"/>
   <path id="_85950864" class="fil1" d="M2.80039 5.5207c0,0 -0.0289489,0.0407975 -0.118924,0.0965586 0,0 0.0760665,0.0298435 0.170501,-0.0294574l-0.00147383 -0.0330229 -0.0501039 -0.0340784z"/>
   <path id="_85950792" class="fil1" d="M3.63277 7.80764c0,0 -0.0484048,-0.0126467 -0.153169,0.00247141 0,0 0.0390856,-0.0717545 0.149546,-0.087027l0.0200995 0.0262394 -0.016476 0.0583162z"/>
   <path id="_85034912" class="fil9" d="M5.7731 6.04697c0.0153948,0.04231 -0.00642308,0.0891058 -0.0487202,0.104501 -0.04231,0.0153948 -0.0891058,-0.00642308 -0.104501,-0.048733 -0.0153948,-0.0422971 0.00642308,-0.0890929 0.048733,-0.104488 0.0422971,-0.0153948 0.0890929,0.00642308 0.104488,0.0487202z"/>
   <path id="_85034840" class="fil11" d="M5.25072 5.59701c0.0222427,0.0611094 -0.00927421,0.1287 -0.0703772,0.150942 -0.0611094,0.0222427 -0.1287,-0.00928065 -0.150942,-0.0703836 -0.0222362,-0.0611029 0.00928065,-0.128693 0.07039,-0.150936 0.0610965,-0.0222427 0.128693,0.00928065 0.15093,0.0703772z"/>
   <path id="_85034768" class="fil11" d="M4.90778 5.79896c0.00992424,0.0272627 -0.00413832,0.0574216 -0.0313946,0.0673394 -0.0272627,0.00992424 -0.0574216,-0.00413832 -0.0673458,-0.031401 -0.00992424,-0.0272563 0.00413832,-0.0574151 0.0314075,-0.0673394 0.0272563,-0.00992424 0.0574151,0.00413832 0.067333,0.031401z"/>
   <path id="_85034696" class="fil9" d="M5.12267 6.24125c0.0146868,0.0403534 -0.00612703,0.0849868 -0.046474,0.0996736 -0.0403534,0.0146868 -0.0849868,-0.00612703 -0.0996736,-0.046474 -0.0146868,-0.0403534 0.00612703,-0.0849868 0.046474,-0.0996736 0.0403534,-0.0146868 0.0849868,0.00612703 0.0996736,0.046474z"/>
   <path id="_85034624" class="fil9" d="M5.4406 6.07837c0.00461458,0.0126724 -0.00192435,0.0266899 -0.0145903,0.031298 -0.012666,0.00460814 -0.0266835,-0.00192435 -0.0312916,-0.0145967 -0.00461458,-0.0126595 0.00192435,-0.026677 0.0145903,-0.0312916 0.012666,-0.00460814 0.0266835,0.00193079 0.0312916,0.0145903z"/>
   <path id="_85034552" class="fil9" d="M3.9722 6.6716c0.0181365,0.0498272 -0.00756225,0.104938 -0.0573894,0.123075 -0.0498272,0.0181365 -0.104938,-0.00756225 -0.123075,-0.0573894 -0.0181301,-0.0498207 0.00756868,-0.104938 0.0573958,-0.123068 0.0498207,-0.0181365 0.104932,0.00756225 0.123068,0.057383z"/>
   <path id="_85034480" class="fil1" d="M3.04074 6.09446c-0.0101946,0.00370711 -0.321946,0.172992 -0.321946,0.172992l0.364307 -0.0883335 -0.0423615 -0.0846585z"/>
   <path id="_85034408" class="fil1" d="M3.44714 7.21101c-0.0101946,0.00370711 -0.357826,0.0744254 -0.357826,0.0744254l0.33586 -0.166511 0.0219659 0.0920856z"/>
   <path id="_85034336" class="fil11" d="M0.815081 7.25962c0.0134511,0.0215733 0.0103361,0.0441828 -0.0069637,0.0504772 -0.0172998,0.00629436 -0.0422392,-0.00609485 -0.0556903,-0.0276746 -0.0134511,-0.0215733 -0.0103297,-0.0441828 0.00697014,-0.0504772 0.0172934,-0.00629436 0.0422327,0.00610128 0.0556839,0.0276746z"/>
   <path id="_85034264" class="fil11" d="M0.998867 7.7552c-0.00355908,-0.0251775 -0.0204856,-0.0404886 -0.0377791,-0.0341942 -0.0172998,0.0063008 -0.0284405,0.0318258 -0.024875,0.0569968 0.00356552,0.0251775 0.0204856,0.0404886 0.0377855,0.0341942 0.0172934,-0.00629436 0.028434,-0.0318258 0.0248685,-0.0569968z"/>
   <polygon id="_85034192" class="fil1" points="4.15159,5.74319 4.30404,6.10918 4.27921,5.72369 "/>
   <polygon id="_85034120" class="fil1" points="5.59478,5.26796 5.73931,5.60269 5.71018,5.2777 "/>
   <polygon id="_85034048" class="fil1" points="4.11012,6.88013 4.10137,6.57177 4.24393,6.87256 "/>
  </g>
 </g>
</svg>
