<?xml version="1.0" encoding="UTF-8"?>
<!DOCTYPE svg PUBLIC "-//W3C//DTD SVG 1.1//EN" "http://www.w3.org/Graphics/SVG/1.1/DTD/svg11.dtd">
<!-- Creator: CorelDRAW -->
<svg xmlns="http://www.w3.org/2000/svg" xml:space="preserve" width="129.436mm" height="197.988mm" style="shape-rendering:geometricPrecision; text-rendering:geometricPrecision; image-rendering:optimizeQuality; fill-rule:evenodd; clip-rule:evenodd"
viewBox="0 0 31.8655 48.7421"
 xmlns:xlink="http://www.w3.org/1999/xlink">
 <defs>
  <style type="text/css">
   <![CDATA[
    .fil5 {fill:none}
    .fil0 {fill:#501D33}
    .fil1 {fill:#D2696F}
    .fil4 {fill:#EC9788}
    .fil2 {fill:#FBC2AB}
    .fil3 {fill:white}
   ]]>
  </style>
 </defs>
 <g id="Layer_x0020_1">
  <metadata id="CorelCorpID_0Corel-Layer"/>
  <g id="_224426920">
   <g>
    <path id="_224424496" class="fil0" d="M14.3304 16.4252c-0.0419257,-0.16822 -0.8088,-0.128534 -0.807052,-0.0454216 0.0164699,0.778494 0.968083,4.45373 0.968083,4.45373l2.95102 -0.0493606 0.857422 -4.41281c-0.0109553,-0.0795924 -3.63144,-0.161302 -3.96948,0.0538658z"/>
    <path id="_224424568" class="fil1" d="M14.2115 17.649c0.139391,0.979407 0.585434,3.04167 0.585434,3.04167l1.30117 -0.111055 1.05587 -0.244636 0.259703 -1.55662c-0.194267,-1.02367 -0.434718,-1.50004 -1.0494,-1.62727 -0.815791,-0.168885 -2.33908,-0.811409 -2.15279,0.497914z"/>
    <path id="_224424808" class="fil2" d="M13.9204 16.3777l0.500622 2.47827c0.473246,-0.179544 2.01746,-0.435703 2.99209,-0.0732654l0.497816 -2.42913c-1.03463,-0.563769 -3.75785,-0.29961 -3.99053,0.0241264z"/>
    <path id="_224424880" class="fil3" d="M13.9446 16.6935l0.501065 2.13789c0.387425,-0.155197 1.79377,-0.367607 2.96333,-0.0536689 -0.88497,-0.633834 -2.75833,-0.355569 -2.75833,-0.355569l-0.485408 -1.6238c-0.0718621,-0.393481 -0.270757,-0.67901 -0.220658,-0.104851z"/>
    <path id="_224425288" class="fil0" d="M18.6588 22.0499c0,0 0.561997,0.484029 0.540111,0.655302 -0.0219107,0.171273 -0.824777,0.841469 -1.16053,0.930835 -0.33575,0.0893414 -1.48897,0.0372235 -1.48897,0.0372235 0,0 2.09478,-1.60103 2.10938,-1.62336z"/>
    <path id="_224425096" class="fil1" d="M18.4416 22.2809c0,0 0.393358,0.338779 0.378021,0.458647 -0.0153129,0.119893 -0.57726,0.588979 -0.812271,0.65151 -0.234986,0.0625562 -1.04214,0.0260712 -1.04214,0.0260712 0,0 1.46614,-1.1206 1.47639,-1.13623z"/>
    <path id="_224425168" class="fil0" d="M13.2238 22.0504c0,0 -0.562021,0.484029 -0.540111,0.655302 0.0218861,0.171273 0.824753,0.841469 1.1605,0.930835 0.33575,0.0893414 1.48897,0.0372235 1.48897,0.0372235 0,0 -2.09476,-1.60103 -2.10936,-1.62336z"/>
    <path id="_224425384" class="fil1" d="M13.441 22.2814c0,0 -0.393358,0.338779 -0.378045,0.458647 0.0153375,0.119893 0.577285,0.588954 0.812271,0.65151 0.234986,0.0625316 1.04214,0.0260712 1.04214,0.0260712 0,0 -1.46614,-1.1206 -1.47636,-1.13623z"/>
    <path id="_224425456" class="fil0" d="M13.0054 22.1504c-0.0931819,-0.221815 1.22385,1.78496 2.69258,2.05222 1.46873,0.267261 3.15041,-2.02913 3.15041,-2.02913l-1.3853 -2.05456 -0.345598 0.513621 -1.69143 -0.0828913 -0.787578 -0.40163c-0.221372,0.0849593 -1.53114,1.68929 -1.63308,2.00237z"/>
    <path id="_224426824" class="fil4" d="M13.5573 22.1549c0,0 1.09972,1.49172 2.18693,1.70847 1.08721,0.216743 2.58681,-1.68296 2.58681,-1.68296l-1.18291 -1.6224 -1.16006 0.00873965 -1.18111 -0.00556384c0,0 -1.23717,1.31321 -1.24967,1.59372z"/>
    <path id="_224429080" class="fil3" d="M13.5573 22.1549c1.15004,0.553676 2.6911,0.415047 2.65597,0.410911 -0.777854,-0.0912617 -2.17221,-0.434545 -2.1296,-0.651806 0.0416795,-0.212681 0.73615,-1.30639 0.765569,-1.3526l-0.0422704 -0.000221569c0,0 -1.23717,1.31324 -1.24967,1.59372z"/>
    <path id="_224428816" class="fil1" d="M13.5573 22.1548c0,0 1.09979,1.25243 2.18701,1.46912 1.08721,0.216694 2.58674,-1.44354 2.58674,-1.44354l-0.00359434 -0.00519455c-2.05594,0.74324 -4.24755,0.177747 -4.76518,-0.0506408 -0.00285577,0.0111277 -0.00457909,0.0212214 -0.00497299,0.0302564z"/>
   </g>
   <rect id="_224428864" class="fil5" width="31.8655" height="48.7421"/>
  </g>
 </g>
</svg>
