<?xml version="1.0" encoding="UTF-8"?>
<!DOCTYPE svg PUBLIC "-//W3C//DTD SVG 1.1//EN" "http://www.w3.org/Graphics/SVG/1.1/DTD/svg11.dtd">
<!-- Creator: CorelDRAW -->
<svg xmlns="http://www.w3.org/2000/svg" xml:space="preserve" width="129.436mm" height="197.989mm" style="shape-rendering:geometricPrecision; text-rendering:geometricPrecision; image-rendering:optimizeQuality; fill-rule:evenodd; clip-rule:evenodd"
viewBox="0 0 13.4281 20.54"
 xmlns:xlink="http://www.w3.org/1999/xlink">
 <defs>
  <style type="text/css">
   <![CDATA[
    .fil0 {fill:none}
    .fil1 {fill:#501D33}
    .fil5 {fill:#B24954}
    .fil2 {fill:#E6827B}
    .fil3 {fill:#FF9E91}
    .fil4 {fill:#FFCDB8}
   ]]>
  </style>
 </defs>
 <g id="Layer_x0020_1">
  <metadata id="CorelCorpID_0Corel-Layer"/>
  <g id="_102416712">
   <rect id="_102329712" class="fil0" width="13.4281" height="20.54"/>
   <g id="_162632720">
    <path id="_162519752" class="fil1" d="M7.67429 9.91119c-0.131017,0.379742 -0.70311,0.453244 -0.975602,0.452238 -0.293874,-0.00109968 -0.731317,-0.0775896 -0.916416,-0.418303l-0.0191821 -0.0352935 -0.00646321 -0.0425762c-0.00887005,-0.0585008 -0.00151465,-0.149484 0.00224085,-0.209561 0.00691968,-0.110653 0.0157794,-0.221336 0.0248361,-0.331719 0.0258528,-0.315016 0.0547764,-0.629825 0.0841047,-0.944302 0.0442569,-0.474729 0.0899765,-0.722198 0.137128,-1.19647l0.00937839 -0.0944064 0.0612812 -0.0504711c0.289693,-0.238589 1.0008,-0.238578 1.29048,0l0.0612812 0.0504711 0.00937839 0.0944064c0.0471513,0.474262 0.092871,0.721742 0.137128,1.19647 0.0293282,0.314477 0.0582518,0.629286 0.0841047,0.944302 0.00905679,0.110383 0.0179165,0.221067 0.0248361,0.331719 0.00375551,0.0600777 0.0111109,0.151061 0.00224085,0.209561l-0.00346503 0.022782 -0.00730353 0.0211533 1.03743e-005 0z"/>
    <path id="_162519680" class="fil2" d="M6.19328 6.98425c0,0 -0.252262,2.71338 -0.233806,2.84341 0.253964,0.499825 1.39781,0.387326 1.52277,0 0.0184559,-0.130032 -0.233806,-2.84341 -0.233806,-2.84341 -0.223764,-0.19706 -0.831409,-0.19706 -1.05518,0l1.03743e-005 0 1.03743e-005 0z"/>
    <path id="_162519608" class="fil3" d="M6.19328 6.98425c0,0 -0.0253134,0.272513 -0.0593204,0.648852 0.187713,-0.0440805 0.553439,-0.0900284 1.17174,-0.0231244 -0.0329592,-0.364346 -0.0572352,-0.625728 -0.0572352,-0.625728 -0.223795,-0.19706 -0.831388,-0.19706 -1.05518,0z"/>
    <path id="_162519536" class="fil4" d="M6.19328 6.98425c0,0 -0.0253134,0.272513 -0.0593204,0.648852 0.187132,-0.0439457 0.551219,-0.0897379 1.16607,-0.0237365 -0.401352,-0.192247 -1.0409,-0.181343 -1.0409,-0.181343l-0.0617065 -0.447268c-0.00137979,0.00116192 -0.00280107,0.0023031 -0.00414973,0.00349615z"/>
    <g>
     <path id="_162519248" class="fil0" d="M5.91043 9.04641c0,0 -0.248413,0.162898 -0.484429,0.538822 0,0 -0.0804633,0.130426 0.695827,0.675514 0.187205,0.0946035 0.762679,0.0945827 0.949873,0 0.776301,-0.545088 0.691968,-0.675514 0.691968,-0.675514 -0.236016,-0.375924 -0.484429,-0.538822 -0.484429,-0.538822 -0.341181,-0.0764795 -1.02762,-0.0764795 -1.3688,0l-1.03743e-005 0z"/>
     <path id="_162519176" class="fil1" d="M7.53358 8.92249c0,0 0.311147,0.195079 0.595756,0.645304 0,0 -0.320556,0.55569 -0.887835,0.851618 -0.225745,0.113319 -0.856141,0.124513 -1.0819,0.0112458 -0.558678,-0.338234 -0.860851,-0.862864 -0.860851,-0.862864 0.284609,-0.450225 0.584178,-0.645304 0.584178,-0.645304 0.411435,-0.0915949 1.2392,-0.0915949 1.65063,0l1.03743e-005 0 1.03743e-005 0z"/>
     <path id="_162519104" class="fil2" d="M7.3974 9.07635c0,0 0.250146,0.132937 0.48779,0.508861 0,0 -0.0114014,0.160387 -0.700651,0.675514 -0.188491,0.0946035 -0.767949,0.0945827 -0.95643,0 -0.673844,-0.507637 -0.696771,-0.675514 -0.696771,-0.675514 0.237645,-0.375924 0.48779,-0.508861 0.48779,-0.508861 0.343535,-0.0764692 1.03471,-0.0764692 1.37827,0z"/>
     <path id="_102301864" class="fil4" d="M7.88397 9.59084c-0.00883893,0.032316 -0.0908687,0.11973 -0.707114,0.580309 -0.188491,0.0946242 -0.729564,0.111389 -0.918055,0.0168064 -0.471254,-0.35503 -0.654776,-0.471119 -0.704126,-0.552578 0.262699,0.0500976 1.30445,0.217965 2.32929,-0.044537l1.03743e-005 0z"/>
     <path id="_102330360" class="fil4" d="M7.3974 9.07635c0,0 0.00337166,0.00179476 0.0096585,0.00551914 -0.30956,-0.0124699 -1.33221,-0.0106959 -1.87355,0.511081 -0.00179476,-0.00524941 -0.00216823,-0.00773925 -0.00216823,-0.00773925 0.237655,-0.375924 0.48779,-0.508861 0.48779,-0.508861 0.343556,-0.0764692 1.03473,-0.0764692 1.37828,0l-1.03743e-005 0z"/>
     <path id="_102330288" class="fil5" d="M7.87954 9.60349c-0.0225953,0.0545275 -0.135302,0.238942 -0.695007,0.657245 -0.188481,0.0946035 -0.767939,0.0945827 -0.95642,0 -0.478723,-0.360643 -0.62884,-0.549798 -0.67569,-0.62911 0.28323,0.126826 1.11446,0.402036 2.32712,-0.0281352z"/>
     <path id="_102301888" class="fil1" d="M5.90358 10.0346c0,0 0.396714,-0.0149702 0.373611,0.220973 -0.023114,0.235943 -0.273467,0.00749026 -0.373611,-0.220973z"/>
     <path id="_102329184" class="fil1" d="M7.56006 10.0619c0,0 -0.379451,-0.113506 -0.419403,0.12029 -0.0399619,0.233817 0.262315,0.0755044 0.419403,-0.12029z"/>
    </g>
   </g>
  </g>
 </g>
</svg>
