<?xml version="1.0" encoding="UTF-8"?>
<!DOCTYPE svg PUBLIC "-//W3C//DTD SVG 1.1//EN" "http://www.w3.org/Graphics/SVG/1.1/DTD/svg11.dtd">
<!-- Creator: CorelDRAW -->
<svg xmlns="http://www.w3.org/2000/svg" xml:space="preserve" width="129.436mm" height="197.989mm" style="shape-rendering:geometricPrecision; text-rendering:geometricPrecision; image-rendering:optimizeQuality; fill-rule:evenodd; clip-rule:evenodd"
viewBox="0 0 8.19624 12.5371"
 xmlns:xlink="http://www.w3.org/1999/xlink">
 <defs>
  <style type="text/css">
   <![CDATA[
    .fil0 {fill:none}
    .fil1 {fill:#501D33}
    .fil6 {fill:#B24954}
    .fil2 {fill:#E6827B}
    .fil3 {fill:#FF9E91}
    .fil5 {fill:#FFB9A2}
    .fil4 {fill:#FFCDB8}
   ]]>
  </style>
 </defs>
 <g id="Layer_x0020_1">
  <metadata id="CorelCorpID_0Corel-Layer"/>
  <g id="_253784856">
   <rect id="_252097392" class="fil0" width="8.19624" height="12.5371"/>
   <g id="_161809152">
    <path id="_102487768" class="fil1" d="M4.88682 6.11657c-0.108383,0.238371 -0.581623,0.284514 -0.80702,0.283881 -0.243101,-0.000690215 -0.604958,-0.0487077 -0.758065,-0.262579l-0.0158686 -0.0221565 -0.00534442 -0.0267284c-0.00733908,-0.0367207 -0.00125379,-0.0938313 0.00185535,-0.131546 0.00571802,-0.0694584 0.0130508,-0.138936 0.0205418,-0.20823 0.021384,-0.197743 0.0453136,-0.395354 0.0695724,-0.592762 0.0366131,-0.298002 0.0744293,-0.453345 0.11343,-0.751055l0.00776334 -0.0592635 0.0506897 -0.0316802c0.239638,-0.14977 0.827866,-0.149764 1.06751,0l0.0506897 0.0316802 0.00776334 0.0592635c0.0390003,0.297704 0.0768165,0.453053 0.11343,0.751055 0.0242588,0.197408 0.0481884,0.395018 0.0695724,0.592762 0.00749105,0.0692938 0.0148238,0.138771 0.0205418,0.20823 0.00310913,0.0377149 0.00919443,0.0948254 0.00185535,0.131546l-0.00286218 0.0143046 -0.00604097 0.0132787 -1.26645e-005 0z"/>
    <path id="_102487696" class="fil2" d="M3.63148 4.27925c0,0 -0.22311,1.70328 -0.206786,1.7849 0.224618,0.31375 1.23628,0.243133 1.34684,0 0.0163245,-0.0816227 -0.206786,-1.7849 -0.206786,-1.7849 -0.197908,-0.1237 -0.735351,-0.1237 -0.93326,0l-6.33225e-006 0z"/>
    <path id="_102487360" class="fil3" d="M3.63148 4.27925c0,0 -0.038766,0.29609 -0.0828068,0.647263l1.10605 0.0572499c-0.0469156,-0.375648 -0.0899813,-0.704513 -0.0899813,-0.704513 -0.197908,-0.1237 -0.735351,-0.1237 -0.93326,0l-6.33225e-006 0z"/>
    <polygon id="_102487600" class="fil4" points="3.63249,4.27332 3.65208,4.82946 4.45234,4.95243 3.54693,4.92928 "/>
    <path id="_102487528" class="fil5" d="M3.50074 5.31502c-0.0452123,0.373843 -0.0831171,0.713758 -0.076044,0.74913 0.224618,0.31375 1.23628,0.243133 1.34684,0 0.000829525,-0.00415396 0.0010005,-0.0127342 0.000652222,-0.0248477 -0.893835,0.060264 -1.21195,-0.126227 -1.21195,-0.126227l-0.0463457 -0.595364c0,0 -0.00471753,-0.000987831 -0.0131394,-0.00269121l-6.33225e-006 0z"/>
    <path id="_102487456" class="fil6" d="M3.49926 5.32695c0.234901,-0.0298249 0.693318,-0.0694838 1.19607,-0.0131647 -0.0156976,-0.129798 -0.0322691,-0.263548 -0.0481504,-0.390143 -0.300345,0.0144312 -0.73765,0.0248287 -1.09704,-0.00918176 -0.0167678,0.13356 -0.0343398,0.275453 -0.050886,0.412489z"/>
    <path id="_102487384" class="fil6" d="M3.42397 6.04154c-0.000265954,0.0109865 -5.0658e-005,0.0186991 0.000728209,0.0226061 0.227144,0.33654 1.23849,0.263035 1.34684,0 0.00103216,-0.00516712 0.00108915,-0.0168944 0.000322945,-0.0342068 -0.605566,0.169761 -1.14804,0.0633731 -1.34788,0.0116007l-6.33225e-006 0z"/>
    <polygon id="_102487264" class="fil2" points="3.62797,5.22494 4.28281,5.12704 4.64931,4.93135 4.21872,5.0221 "/>
    <polygon id="_102487192" class="fil1" points="4.65077,4.74007 3.62654,5.22231 4.65752,4.92567 "/>
   </g>
  </g>
 </g>
</svg>
