<?xml version="1.0" encoding="UTF-8"?>
<!DOCTYPE svg PUBLIC "-//W3C//DTD SVG 1.1//EN" "http://www.w3.org/Graphics/SVG/1.1/DTD/svg11.dtd">
<!-- Creator: CorelDRAW -->
<svg xmlns="http://www.w3.org/2000/svg" xml:space="preserve" width="129.436mm" height="197.988mm" style="shape-rendering:geometricPrecision; text-rendering:geometricPrecision; image-rendering:optimizeQuality; fill-rule:evenodd; clip-rule:evenodd"
viewBox="0 0 68.5336 104.831"
 xmlns:xlink="http://www.w3.org/1999/xlink">
 <defs>
  <style type="text/css">
   <![CDATA[
    .fil0 {fill:none}
    .fil1 {fill:#501D33}
    .fil5 {fill:#C45563}
    .fil2 {fill:#F7888D}
    .fil3 {fill:#FEB5AA}
    .fil4 {fill:white}
   ]]>
  </style>
 </defs>
 <g id="Layer_x0020_1">
  <metadata id="CorelCorpID_0Corel-Layer"/>
  <g id="_284270400">
   <rect id="_284247024" class="fil0" y="1.03719e-005" width="68.5336" height="104.831"/>
   <g>
    <path id="_233889528" class="fil1" d="M29.7752 36.2519l1.11249 9.45667c-0.795438,0.531915 -3.37798,2.37186 -3.57161,3.20399 -0.0576074,0.247638 0.00137665,0.583963 0.296032,0.956082 0.628651,0.793955 2.62913,2.1571 5.39164,2.17209l1.30019 -0.155826 1.30024 0.155826c2.76251,-0.0149843 4.78184,-1.38893 5.48689,-2.14212 0.837955,-0.895297 -2.14397,-3.40381 -3.29458,-4.34491l0.801315 -9.4303c0.0159373,-0.713209 -0.283695,-0.865911 -0.709927,-0.409764 -1.92233,-0.834884 -5.59406,-0.807986 -7.47806,0.0323512 -0.4149,-0.662591 -0.78543,-0.521591 -0.634635,0.505918z"/>
    <path id="_284244480" class="fil2" d="M30.8632 36.382l0.623145 4.95969 0.552195 5.94203 -0.766422 -0.721363c0,0 -1.44437,0.879572 -2.79703,2.37752 0,0 -0.586346,0.965612 2.33908,2.79756 0.685729,0.429673 2.77596,0.463454 3.43362,0.409606 2.14058,0.175364 3.2958,-0.301062 3.2958,-0.301062 3.12451,-1.90242 2.51487,-2.9061 2.51487,-2.9061 -1.35272,-1.49795 -2.79703,-2.37752 -2.79703,-2.37752l-0.766422 0.721363 0.554736 -5.971 0.481456 -4.93073c-0.970431,-0.733118 -3.32805,-0.778812 -3.33392,-0.778918l-5.2948e-005 0 -0.000105896 0c-0.00545364,0.000105896 -2.36344,0.0457471 -3.33392,0.778918z"/>
    <path id="_254789904" class="fil3" d="M30.3946 35.725l1.06484 5.32593c0.50523,0.485004 0.874277,0.824718 0.874277,0.824718l4.66779 -0.0425172 0.895139 -6.13657c-1.41726,-1.07066 -6.11311,-1.02078 -7.50204,0.0284331z"/>
    <polygon id="_284240496" class="fil4" points="30.4665,35.8633 32.4153,41.8995 32.0338,47.3319 31.5218,41.7241 "/>
    <polygon id="_284248584" class="fil5" points="37.8991,35.6816 36.099,41.8995 36.4805,47.3319 37.0123,41.7835 "/>
    <path id="_284248032" class="fil3" d="M32.0381 47.2796l0.000423584 0.00407699 -0.766422 -0.721363c0,0 -1.44437,0.879572 -2.79703,2.37752 0,0 -0.00322983,0.00550659 -0.00810104,0.0163609 0.973396,0.566067 3.81363,2.113 5.86711,2.16192 1.96744,0.046859 4.40098,-1.62074 5.45857,-2.46372 -1.26943,-1.32365 -2.53123,-2.09208 -2.53123,-2.09208l-0.766422 0.721363 0.0140842 -0.151855c-0.498982,0.461653 -1.15866,0.81487 -2.21312,0.795596 -1.38898,-0.0253621 -2.0798,-0.503006 -2.25786,-0.647819z"/>
    <path id="_284268216" class="fil4" d="M31.2417 46.5815c-0.214175,0.134859 -1.52871,0.987586 -2.76664,2.35841 0,0 -0.00322983,0.00550659 -0.00810104,0.0163609 0.926484,0.538746 3.54423,1.96606 5.56499,2.14455 -2.17299,-0.51762 -4.33951,-1.94557 -4.21318,-2.49925 0.109496,-0.47955 1.07913,-1.62503 1.42292,-2.02007z"/>
    <path id="_284254080" class="fil5" d="M28.467 48.9562c-0.0601489,0.133905 -0.357981,1.08713 2.34718,2.7812 0.685729,0.429673 2.77596,0.463454 3.43362,0.409606 2.14058,0.175364 3.2958,-0.301062 3.2958,-0.301062 3.12451,-1.90242 2.51487,-2.9061 2.51487,-2.9061 -0.0883702,-0.0977949 -0.177111,-0.192942 -0.265799,-0.285443 -1.05758,0.842985 -3.49113,2.51058 -5.45857,2.46372 -2.05348,-0.0489239 -4.89372,-1.59585 -5.86711,-2.16192z"/>
    <path id="_284244888" class="fil1" d="M29.7809 49.8017c0,0 1.36129,1.74993 3.16772,2.41808 0.83123,0.307469 2.68812,0.253568 3.42319,-0.120774 0.617321,-0.314352 1.54539,-1.06171 2.38091,-2.58984 0,0 -1.21881,1.30697 -2.91219,1.84661 -1.07919,0.343897 -1.69836,0.311387 -2.76542,0.0280095 -1.62053,-0.430467 -3.03816,-1.39703 -3.29421,-1.58209z"/>
   </g>
  </g>
 </g>
</svg>
