<?xml version="1.0" encoding="UTF-8"?>
<!DOCTYPE svg PUBLIC "-//W3C//DTD SVG 1.1//EN" "http://www.w3.org/Graphics/SVG/1.1/DTD/svg11.dtd">
<!-- Creator: CorelDRAW -->
<svg xmlns="http://www.w3.org/2000/svg" xml:space="preserve" width="129.436mm" height="197.989mm" style="shape-rendering:geometricPrecision; text-rendering:geometricPrecision; image-rendering:optimizeQuality; fill-rule:evenodd; clip-rule:evenodd"
viewBox="0 0 187.502 286.809"
 xmlns:xlink="http://www.w3.org/1999/xlink">
 <defs>
  <style type="text/css">
   <![CDATA[
    .fil0 {fill:none}
    .fil1 {fill:#501D33}
    .fil3 {fill:#D2696F}
    .fil2 {fill:#EC9788}
    .fil5 {fill:#FBC2AB}
    .fil4 {fill:#FFDDCF}
   ]]>
  </style>
 </defs>
 <g id="Layer_x0020_1">
  <metadata id="CorelCorpID_0Corel-Layer"/>
  <g id="_222563504">
   <rect id="_102329712" class="fil0" x="-2.68317e-005" width="187.502" height="286.809"/>
   <g>
    <path id="_167463376" class="fil1" d="M85.4412 119.675c0,0 -10.1553,10.4979 -10.7552,11.5263 -0.59987,1.02851 -1.0288,3.55504 1.45643,6.12604 2.48538,2.571 5.42737,4.10797 7.0953,5.04899 1.22538,0.691278 18.0946,0.659263 19.2632,0 1.66793,-0.941018 4.60992,-2.478 7.0953,-5.04899 2.48524,-2.571 1.75688,-4.66989 1.15701,-5.69826 -0.59987,-1.02837 -10.6269,-12.0823 -10.6269,-12.0823 -4.9008,0.661581 -7.77876,-0.305802 -14.6852,0.128202z"/>
    <path id="_167463448" class="fil2" d="M86.9367 122.181c0,0 -8.76512,8.98994 -9.28951,9.88895 -0.524542,0.899009 -1.57247,2.32241 0.600015,4.56979 2.17263,2.24752 4.74435,3.59111 6.20252,4.41363 1.45817,0.822667 7.32867,0.374032 7.32867,0.374032 0,0 1.05604,-3.90155 1.09052,-8.22029 0.034477,4.31875 1.09109,8.22029 1.09109,8.22029 0,0 5.87064,0.448635 7.32882,-0.374032 1.45817,-0.822522 4.02989,-2.16611 6.20238,-4.41363 2.17263,-2.24738 1.12456,-3.67078 0.60016,-4.56979 -0.524398,-0.899009 -9.28951,-9.88895 -9.28951,-9.88895 -4.6822,1.27362 -5.89266,6.08518 -5.93265,10.5783l-0.000144861 0c-0.0399817,-4.49316 -1.25015,-9.30472 -5.93236,-10.5783zm5.93221 11.0261c0.00115889,-0.148917 0.00159347,-0.297979 0.000289722,-0.447766"/>
    <path id="_167463520" class="fil3" d="M105.508 138.398c0.669693,-0.514402 1.34388,-1.09703 1.98286,-1.75833 2.17248,-2.24723 1.12485,-3.67078 0.599725,-4.56965 -0.429658,-0.737344 -6.40258,-6.9164 -8.53711,-9.11525 1.70661,2.20986 6.50485,8.50292 7.31086,10.4306 0.603347,1.44296 -0.450953,3.57735 -1.35634,5.01263z"/>
    <path id="_167463592" class="fil4" d="M85.9567 123.189c-2.30184,2.37312 -7.89421,8.16814 -8.30938,8.88072 -0.524542,0.898864 -1.57276,2.32241 0.59987,4.56965 0.551921,0.571333 1.13006,1.08385 1.70893,1.54451 -0.576403,-0.929574 -1.78426,-3.15363 -1.25551,-4.73986 0.596249,-1.78889 5.9002,-8.54493 7.2561,-10.255z"/>
    <path id="_167463664" class="fil1" d="M80.4125 100.324c0,0 4.22227,21.1031 4.47925,22.3028 -0.247278,0.481663 7.156,1.80439 6.75864,2.48089 -0.487893,0.830779 -4.00744,1.64852 -5.02683,2.65183 -1.94578,1.91608 -5.30453,4.21691 -6.79269,6.17326 -0.979262,1.28709 -0.929719,2.9866 0.0044907,4.07697 8.57868,10.0125 17.4713,10.247 25.7082,0.213815 0.911032,-1.10964 0.743283,-3.00819 -0.294937,-4.24805 -2.35356,-2.81002 -10.0573,-6.3216 -11.4775,-8.73948 -0.397354,-0.676067 6.5667,-2.77931 6.91958,-3.9776 1.95012,-6.62074 4.21981,-21.3678 4.21981,-21.3678 0.0175282,-1.10775 -0.238731,-0.979841 -0.442841,-0.614211 -15.819,-4.8388 -7.3475,-4.18069 -22.8395,0.583356 -0.782975,-1.7379 -1.53611,-0.638258 -1.21568,0.464135z"/>
    <path id="_167463736" class="fil2" d="M79.877 98.7161l8.09962 24.895 -6.24873 10.8917c-0.76733,1.29144 -0.539753,1.97214 0.832372,3.27401 7.90305,7.49773 12.715,7.49773 20.6181,0 1.37213,-1.30187 1.5997,-1.98257 0.832372,-3.27401l-3.34311 -5.62409 -3.20505 -5.31032 8.39905 -24.8522c-7.12384,-3.91415 -18.8589,-3.91516 -25.9846,0z"/>
    <path id="_167463808" class="fil5" d="M79.877 98.7161l3.42988 10.5424c8.86145,-1.477 15.0945,-0.699245 18.905,0.256984l3.64978 -10.7994c-6.66434,-3.66166 -11.6754,-3.88156 -12.9926,-3.86823 -1.31722,-0.0133272 -6.32768,0.206572 -12.992,3.86823z"/>
    <path id="_167463208" class="fil3" d="M83.1973 108.921l4.69785 14.439c5.85877,1.5393 9.2391,-0.140371 9.78929,-0.448056l4.67192 -13.824c-7.53075,-2.45322 -15.7045,-0.996645 -19.1591,-0.167025z"/>
    <path id="_222563048" class="fil5" d="M81.402 135.173c-0.0493977,0.140226 -0.082426,0.274367 -0.0983608,0.404887 0.824695,1.6546 4.77825,5.30554 13.309,4.58181 5.68812,-0.482533 8.27042,-2.096 9.43003,-3.32717 0.332312,-0.459355 0.456023,-0.864387 0.383158,-1.31577 -11.0981,3.82723 -21.2821,0.318405 -23.0238,-0.343756z"/>
    <path id="_222563192" class="fil3" d="M81.339 135.386c-0.190058,0.79268 0.196432,1.41863 1.22132,2.39108 7.90305,7.49773 12.715,7.49773 20.6181,0 0.629856,-0.597697 1.01794,-1.06458 1.18004,-1.51959 -6.63942,3.56547 -16.7927,3.62428 -23.0195,-0.871485z"/>
    <path id="_222563336" class="fil5" d="M95.6019 126.197c3.27126,2.19885 -10.0648,11.5948 -11.3449,6.91828 -1.26203,-4.6089 8.13193,-9.07802 11.3449,-6.91828z"/>
    <path id="_222563360" class="fil1" d="M102.713 110.795c0,0 -3.11741,-1.8338 -9.94805,-2.97979 0,0 5.50125,-0.504262 10.819,0.733432l0.0421546 0.808905 -0.91306 1.43746z"/>
    <polygon id="_222563384" class="fil4" points="79.8039,98.5678 85.2791,108.448 87.7601,123.775 "/>
   </g>
  </g>
 </g>
</svg>
