<?xml version="1.0" encoding="UTF-8"?>
<!DOCTYPE svg PUBLIC "-//W3C//DTD SVG 1.1//EN" "http://www.w3.org/Graphics/SVG/1.1/DTD/svg11.dtd">
<!-- Creator: CorelDRAW -->
<svg xmlns="http://www.w3.org/2000/svg" xml:space="preserve" width="129.436mm" height="197.989mm" style="shape-rendering:geometricPrecision; text-rendering:geometricPrecision; image-rendering:optimizeQuality; fill-rule:evenodd; clip-rule:evenodd"
viewBox="0 0 33.7657 51.6488"
 xmlns:xlink="http://www.w3.org/1999/xlink">
 <defs>
  <style type="text/css">
   <![CDATA[
    .fil0 {fill:none}
    .fil1 {fill:#501D33}
    .fil3 {fill:#C45563}
    .fil2 {fill:#F7888D}
    .fil4 {fill:#FEB5AA}
    .fil5 {fill:#FFD0C9}
   ]]>
  </style>
 </defs>
 <g id="Layer_x0020_1">
  <metadata id="CorelCorpID_0Corel-Layer"/>
  <g id="_260315136">
   <rect id="_253785264" class="fil0" width="33.7657" height="51.6488"/>
   <g id="_162521288">
    <g>
     <g>
      <path id="_162521360" class="fil1" d="M18.239 25.6263c0,0 1.17795,-0.311241 1.84055,-0.575812 0,0 -0.0147129,-0.653629 -0.0883557,-1.16717 0,0 -1.47979,-0.894852 -1.58286,-0.902626 -0.103069,-0.00777384 -0.169329,2.41219 -0.169329,2.64561z"/>
      <path id="_162521120" class="fil2" d="M18.6368 25.0922c0,0 0.68282,-0.180416 1.06692,-0.333779 0,0 -0.00853035,-0.378883 -0.0512082,-0.676585 0,0 -0.857809,-0.518734 -0.917574,-0.523221 -0.0597386,-0.004513 -0.0981382,1.39827 -0.0981382,1.53359z"/>
      <path id="_161952552" class="fil3" d="M18.6368 25.0922c0,0 0.580273,-0.283197 0.913243,-0.447491 0,0 0.0501908,-0.257867 0.102469,-0.562873 0,0 -0.857809,-0.518734 -0.917574,-0.523221 -0.0597386,-0.004513 -0.0981382,1.39827 -0.0981382,1.53359z"/>
     </g>
     <g>
      <path id="_162521648" class="fil1" d="M15.5063 25.597c0,0 -1.15183,-0.304354 -1.79975,-0.563055 0,0 0.0143999,-0.639124 0.0863992,-1.14129 0,0 1.44698,-0.875 1.54778,-0.882618 0.100773,-0.00761732 0.165572,2.35871 0.165572,2.58697z"/>
      <path id="_162117776" class="fil2" d="M15.1289 25.0922c0,0 -0.68282,-0.180416 -1.06692,-0.333779 0,0 0.00853035,-0.378883 0.0512082,-0.676585 0,0 0.857809,-0.518734 0.917574,-0.523221 0.0597386,-0.004513 0.0981382,1.39827 0.0981382,1.53359z"/>
      <path id="_162939952" class="fil3" d="M15.1289 25.0922l-0.810984 -0.480387 -0.204728 -0.529978c0,0 0.857809,-0.518734 0.917574,-0.523221 0.0597386,-0.004513 0.0981382,1.39827 0.0981382,1.53359z"/>
     </g>
    </g>
    <path id="_162521576" class="fil1" d="M14.1459 19.0171l0.992051 6.2695c0,0 0.603177,0.656889 1.1498,0.986573 0.171729,0.10359 1.0886,0.059269 1.24272,-0.0480517 0.529456,-0.368657 1.06794,-0.938521 1.06794,-0.938521l1.02135 -6.23287c-0.577403,-0.761471 -1.80165,-1.08401 -1.80165,-1.08401l-1.95116 -0.00733036c0,0 -1.20228,0.28591 -1.72104,1.05471z"/>
    <path id="_162521720" class="fil2" d="M14.6651 19.0948l0.843775 6.01904c0.253693,0.268171 0.621777,0.651855 0.937426,0.80514 0.162964,0.035791 0.767262,0.0066782 0.924669,-0.040904 0.286641,-0.151094 0.621438,-0.516073 0.856557,-0.764314l0.843775 -6.01899c-0.308371,-0.412848 -0.775401,-0.840592 -1.18856,-1.14432 -0.622924,-0.181746 -1.30846,-0.150572 -2.02908,0 -0.413161,0.303728 -0.880192,0.731471 -1.18856,1.14432l0 2.60867e-005z"/>
    <path id="_162939880" class="fil4" d="M14.6651 19.0948l0.00015652 0.00104347c0.718089,-0.0780514 2.78676,-0.263502 4.39185,-0.0198259 -0.308371,-0.406979 -0.767497,-0.826427 -1.17437,-1.12554 -0.622924,-0.181746 -1.30846,-0.150572 -2.02908,0 -0.413161,0.303728 -0.880192,0.731471 -1.18856,1.14432z"/>
    <path id="_162939808" class="fil5" d="M14.6651 19.0948l0.475222 3.38989c0.825096,-0.0867122 2.53988,-0.273519 3.51547,-0.4261l0.032791 -0.233972c-2.26928,-0.0577821 -3.29579,-0.46883 -3.29579,-0.46883l-0.711645 -2.28235 -0.0160694 0.0213389 2.60867e-005 2.60867e-005z"/>
    <path id="_162119408" class="fil5" d="M15.5078 25.1065l0.00104347 0.00738254c0.253693,0.268171 0.621777,0.651855 0.937426,0.80514 0.162964,0.035791 0.767262,0.0066782 0.924669,-0.040904 0.286641,-0.151094 0.621438,-0.516073 0.856557,-0.764314l0.000626081 -0.00443474 -1.03786 0.532586 -0.711019 0.0293215 -0.971443 -0.564777z"/>
    <path id="_162940168" class="fil3" d="M15.0377 21.7529l0.304719 2.17373c0.567934,0.233633 1.76766,0.569603 3.05585,-0.0310954l0.294519 -2.10097c-1.71664,0.229902 -2.9268,0.108182 -3.65509,-0.0416605z"/>
    <path id="_162940096" class="fil1" d="M19.1975 19.3985c0,0 -0.857653,-0.227241 -2.30173,-0.425161 0,0 1.31947,-0.0659733 2.25775,0.0513126l0.212581 0.190589 -0.168598 0.183259z"/>
   </g>
  </g>
 </g>
</svg>
