<?xml version="1.0" encoding="UTF-8"?>
<!DOCTYPE svg PUBLIC "-//W3C//DTD SVG 1.1//EN" "http://www.w3.org/Graphics/SVG/1.1/DTD/svg11.dtd">
<!-- Creator: CorelDRAW -->
<svg xmlns="http://www.w3.org/2000/svg" xml:space="preserve" width="129.436mm" height="197.989mm" style="shape-rendering:geometricPrecision; text-rendering:geometricPrecision; image-rendering:optimizeQuality; fill-rule:evenodd; clip-rule:evenodd"
viewBox="0 0 6.82219 10.4354"
 xmlns:xlink="http://www.w3.org/1999/xlink">
 <defs>
  <style type="text/css">
   <![CDATA[
    .fil0 {fill:none}
    .fil1 {fill:#501D33}
    .fil4 {fill:#D26F6F}
    .fil2 {fill:#F5A797}
    .fil3 {fill:#FBC2AB}
    .fil5 {fill:white}
   ]]>
  </style>
 </defs>
 <g id="Layer_x0020_1">
  <metadata id="CorelCorpID_0Corel-Layer"/>
  <g id="_253785456">
   <rect id="_260317152" class="fil0" width="6.82219" height="10.4354"/>
   <g id="_102352056">
    <g>
     <path id="_102416736" class="fil1" d="M3.25545 3.88388c0,0 -0.147168,0.0502929 -0.196259,0.171561l-0.186303 0.560764 -0.120593 0.104444c-0.0688931,0.0706325 -0.0520428,0.120994 -0.00746329,0.199532 0.07078,0.124689 0.269422,0.374809 0.585605,0.403002 0.0556532,0.00496499 0.120794,0.0048016 0.17729,-0.00116482 0.329666,-0.0348234 0.516042,-0.314465 0.582558,-0.420701 0.0388819,-0.062094 0.0354559,-0.126481 -0.0197967,-0.178434l-0.113462 -0.106679 -0.186303 -0.560764c-0.0490964,-0.121268 -0.196259,-0.171561 -0.196259,-0.171561 -0.109224,-0.011216 -0.214701,-0.01071 -0.319014,0z"/>
     <path id="_102416400" class="fil2" d="M3.13466 4.08268l-0.144622 0.499371c0,0 0.112919,-0.0545938 0.122565,-0.0401363 -0.00477524,0.0120593 -0.240053,0.198151 -0.268879,0.226977 -0.0188111,0.0188058 -0.0407266,0.0526331 -0.0225533,0.0883314 0.127219,0.249852 0.401336,0.376063 0.59378,0.370176 0.192449,0.00588736 0.466577,-0.120325 0.593796,-0.370176 0.0181786,-0.0356984 -0.00374219,-0.0695256 -0.022548,-0.0883314 -0.0288254,-0.0288254 -0.264104,-0.214918 -0.268879,-0.226977 0.00964536,-0.0144575 0.122565,0.0401363 0.122565,0.0401363l-0.144622 -0.499371c-0.147353,-0.2912 -0.413248,-0.2912 -0.560601,0z"/>
     <path id="_102416640" class="fil3" d="M3.11258 4.54196c-0.00517054,0.0123545 -0.240053,0.198141 -0.268852,0.226929 -0.0188111,0.0188111 -0.0407266,0.0526383 -0.0225533,0.0883367 0.127219,0.249852 0.401336,0.331394 0.59378,0.325507 0.192443,0.00588736 0.466582,-0.0756554 0.593796,-0.325507 0.0181839,-0.0356931 -0.00374219,-0.0695256 -0.022548,-0.0883367 -0.027571,-0.0275604 -0.244043,-0.199026 -0.266976,-0.224426 -0.281138,-0.09288 -0.507862,-0.0375273 -0.606645,-0.00250358z"/>
     <path id="_102416568" class="fil4" d="M3.72657 4.53954c0.0292629,0.00187636 0.113309,0.0425134 0.113309,0.0425134l-0.144622 -0.499371c-0.0656675,-0.129764 -0.119202,-0.165974 -0.188669,-0.189002 0.0237919,0.0265221 0.0914517,0.177527 0.219983,0.645859z"/>
     <path id="_102416496" class="fil5" d="M3.13466 4.08268l-0.144622 0.499371c0,0 0.0725615,-0.0350922 0.106315,-0.0415646l0.108655 -0.468775c0,0 0.0790287,-0.201535 0.328095,-0.174702 -0.137117,-0.0780958 -0.296271,-0.016239 -0.398443,0.18567z"/>
     <path id="_102416424" class="fil5" d="M3.10916 4.53986l0.000542881 0.000137038 0.000511257 -0.000643024 -0.00105414 0.000505986zm-0.0162759 0.0211776c-0.0580197,0.0508094 -0.225158,0.183842 -0.249161,0.20785 -0.0188111,0.0188058 -0.0407213,0.0526331 -0.0225533,0.0883314 0.127219,0.249846 0.401336,0.319187 0.59378,0.313305 0.192449,0.00588209 0.466588,-0.0634538 0.593796,-0.313305 0.0042798,-0.00839093 0.00632482,-0.0167081 0.0067254,-0.0247353 -0.55844,0.318102 -1.101,-0.00604548 -1.08852,-0.0435042 0.0101566,-0.030454 0.122211,-0.172994 0.165937,-0.227941z"/>
     <path id="_102416304" class="fil4" d="M2.81589 4.81595c-0.00283036,0.0128868 -0.0020134,0.0269332 0.00528123,0.0412747 0.127219,0.249852 0.401336,0.376063 0.59378,0.370176 0.192449,0.00588736 0.466577,-0.120325 0.593796,-0.370176 0.00946615,-0.0185844 0.00805361,-0.0366682 0.00187636,-0.0523854 -0.301214,0.196027 -0.604384,0.200276 -0.604384,0.200276 -0.337856,-0.00540245 -0.535892,-0.144928 -0.590349,-0.189165z"/>
     <path id="_102416232" class="fil4" d="M3.76945 4.47485c0,0 -0.184295,-0.0743167 -0.536545,0.0297267 0,0 0.25118,-0.035672 0.491961,0.0386394l0.0401257 -0.0282403 0.004459 -0.0401257z"/>
     <path id="_102416136" class="fil1" d="M4.01252 4.76568c0,0 -0.0705692,0.0905135 -0.328306,0.190235 0,0 0.204698,-0.013767 0.380449,-0.14194l-0.0168557 -0.0252782 -0.0352872 -0.0230171z"/>
    </g>
    <g>
     <path id="_162632696" class="fil1" d="M3.60443 4.21936c0.0318718,-0.0754604 0.118912,-0.110816 0.194372,-0.0789391 0.0754604,0.0318718 0.110816,0.118912 0.0789391,0.194383 -0.0318718,0.0754604 -0.118912,0.110806 -0.194383,0.0789338 -0.0754604,-0.0318718 -0.110806,-0.118917 -0.0789285,-0.194378z"/>
     <path id="_162633152" class="fil3" d="M3.58687 4.24323c0.0253625,-0.0600595 0.0946352,-0.0881891 0.154684,-0.0628266 0.0600595,0.0253678 0.0881839,0.0946352 0.062816,0.154689 -0.0253625,0.0600489 -0.0946299,0.0881786 -0.154684,0.062816 -0.0600542,-0.0253625 -0.0881839,-0.0946352 -0.062816,-0.154679z"/>
     <path id="_162633080" class="fil4" d="M3.68875 4.19044c0.015032,-0.00104887 0.0305489,0.00128605 0.0453701,0.00756344 0.0503298,0.0212461 0.0739266,0.0793449 0.0526489,0.129643 -0.0212409,0.0503456 -0.0793238,0.0738687 -0.129643,0.0526489 -0.00256155,-0.00108049 -0.00505459,-0.00229275 -0.00746856,-0.00355771 0.0360093,-0.00250885 0.0693306,-0.024651 0.0843204,-0.060186 0.0202078,-0.0477524 -5.79776e-005,-0.102499 -0.0452278,-0.126112z"/>
     <path id="_162633008" class="fil5" d="M3.60513 4.24369c0.0181733,-0.0326993 0.0478842,-0.0438837 0.0663527,-0.0249725 0.0184685,0.0189165 0.0187004,0.0607657 0.000532339,0.0934651 -0.0181733,0.0326993 -0.0478789,0.0438785 -0.0663474,0.0249672 -0.0184632,-0.0189112 -0.0187109,-0.0607605 -0.00053761,-0.0934598z"/>
    </g>
    <circle id="_102416040" class="fil4" cx="3.59473" cy="4.09259" r="0.0547993"/>
    <circle id="_162632936" class="fil4" cx="3.52586" cy="4.1896" r="0.0229538"/>
    <ellipse id="_162632864" class="fil5" transform="matrix(1.12383 0.226623 -0.226623 1.12383 3.08971 4.85477)" rx="0.108855" ry="0.0399887"/>
    <ellipse id="_162632792" class="fil5" transform="matrix(0.552326 -0.0348193 0.207601 0.820245 3.04529 4.74813)" rx="0.108855" ry="0.0399887"/>
   </g>
  </g>
 </g>
</svg>
