<?xml version="1.0" encoding="UTF-8"?>
<!DOCTYPE svg PUBLIC "-//W3C//DTD SVG 1.1//EN" "http://www.w3.org/Graphics/SVG/1.1/DTD/svg11.dtd">
<!-- Creator: CorelDRAW -->
<svg xmlns="http://www.w3.org/2000/svg" xml:space="preserve" width="129.436mm" height="197.989mm" style="shape-rendering:geometricPrecision; text-rendering:geometricPrecision; image-rendering:optimizeQuality; fill-rule:evenodd; clip-rule:evenodd"
viewBox="0 0 9.60735 14.6956"
 xmlns:xlink="http://www.w3.org/1999/xlink">
 <defs>
  <style type="text/css">
   <![CDATA[
    .fil0 {fill:none}
    .fil1 {fill:#501D33}
    .fil4 {fill:#CF6067}
    .fil2 {fill:#FF9E91}
    .fil3 {fill:#FFCDB7}
    .fil5 {fill:white}
   ]]>
  </style>
 </defs>
 <g id="Layer_x0020_1">
  <metadata id="CorelCorpID_0Corel-Layer"/>
  <g id="_284245152">
   <rect id="_252119208" class="fil0" width="9.60735" height="14.6956"/>
   <g id="_162519392">
    <path id="_102329640" class="fil1" d="M4.62665 4.89325c-0.215177,0.112918 -0.631821,0.47232 -0.626893,1.56165l0.0112895 0.16322 0.793994 0 2.22674e-005 0 0.794002 0 0.0112895 -0.16322c0.00461676,-1.02052 -0.360783,-1.40041 -0.58388,-1.53717 -0.15579,-0.0955121 -0.24267,-0.106928 -0.399825,-0.0244718l0 -7.42245e-006z"/>
    <path id="_102329568" class="fil2" d="M4.54213 5.00867c-0.174249,0.214665 -0.403774,0.643601 -0.361651,1.38775l-0.00950816 0.30202 0.632526 0.0653547 0 0.0021154 0.010243 -0.00106141 0.010243 0.00106141 0 -0.0021154 0.632534 -0.0653547 -0.00951558 -0.30202c0.0405563,-0.716586 -0.170768,-1.14088 -0.342078,-1.36301 -0.199367,-0.258539 -0.35679,-0.278542 -0.562792,-0.024739z"/>
    <path id="_102329496" class="fil3" d="M4.54213 5.00867c-0.173166,0.213321 -0.400857,0.638294 -0.362349,1.3739l0.172624 -0.117371c-0.0579174,-0.853908 0.224618,-1.26974 0.322921,-1.38696 -0.0426197,0.0298011 -0.0866645,0.0730963 -0.133196,0.130442l0 -7.42245e-006z"/>
    <path id="_102329424" class="fil4" d="M4.26787 6.40223c0.000608641,0.0344476 -0.0457074,0.0471845 -0.0438815,0.0831166 0.204258,-0.0871321 0.687208,-0.36229 1.2233,-0.0795538l-0.000296898 -0.00938198c0.00493593,-0.0871544 0.00610868,-0.169959 0.00411204,-0.248622 -0.206314,-0.0936713 -0.754722,-0.113393 -1.18324,0.254442z"/>
    <path id="_102329352" class="fil4" d="M5.44892 6.35758c0.0309145,-0.693123 -0.175823,-1.10609 -0.344008,-1.32417 -0.0686206,-0.0889878 -0.132313,-0.149681 -0.194683,-0.180714 0.0895444,0.0850464 0.344713,0.414611 0.286878,1.37387 0,0 0.133812,0.0614134 0.251814,0.131014l0 7.42245e-006z"/>
    <path id="_102329280" class="fil1" d="M4.41494 6.21013c0,0 -0.536999,0.180581 -0.633536,0.630552 -0.0840221,0.391957 0.297136,0.486749 0.63986,0.403611l0.358341 -0.025845 0 -1.01478c0,0 -0.262302,-0.0227053 -0.364665,0.00647238l0 -7.42245e-006z"/>
    <path id="_102329208" class="fil1" d="M5.18745 6.21028c0,0 0.524552,0.176402 0.634152,0.614534 0.101539,0.406238 -0.286766,0.523661 -0.650288,0.435468l-0.35178 -0.0327033 0 -1.02383c0,0 0.26464,-0.0229057 0.367916,0.00653176z"/>
    <path id="_102301912" class="fil2" d="M4.46354 6.21123c-0.14666,0.089396 -0.432989,0.295696 -0.510071,0.582135 -0.0888542,0.330188 0.154357,0.386094 0.440753,0.380994 0.280502,0.37306 0.651535,0.139653 0.818667,-0.0125885 0.282669,0.0347816 0.521724,-0.0502648 0.444256,-0.361035 -0.072265,-0.289965 -0.355825,-0.502723 -0.508824,-0.587249 -0.179623,-0.0935006 -0.530913,-0.0959946 -0.68478,-0.00225642z"/>
    <path id="_102329112" class="fil5" d="M4.40372 6.24945c-0.154127,0.103128 -0.38265,0.292704 -0.450253,0.54391 -0.047088,0.174962 -0.000890694,0.272872 0.0955121,0.325534 -0.0584073,-0.476455 0.235455,-0.771066 0.354741,-0.869444z"/>
    <path id="_102329040" class="fil4" d="M3.96883 7.04677c0.069682,0.10819 0.23832,0.13091 0.425388,0.127584 0.280502,0.37306 0.651535,0.139653 0.818667,-0.0125885 0.282669,0.0347816 0.521724,-0.0502648 0.444256,-0.361035l-0.00198179 -0.00754121c-0.0565888,0.129566 -0.171229,0.14761 -0.268618,0.140307 0.0318126,-0.124289 -0.0373127,-0.402208 -0.221063,-0.492717 0.203063,0.589216 -0.500273,0.832658 -0.918528,0.437457 -0.0335049,0.10286 -0.0919196,0.19832 -0.278112,0.168534l-7.42245e-006 0z"/>
    <path id="_102328968" class="fil2" d="M4.25253 6.90344c0.282068,0.421499 0.759688,0.42685 1.10632,0.0803258 0,0 -0.168007,0.340579 -0.523045,0.372703 -0.355038,0.0321318 -0.583278,-0.453029 -0.583278,-0.453029z"/>
    <path id="_102328896" class="fil1" d="M5.11687 7.36455c0.105184,-0.0764809 0.2101,-0.208192 0.268195,-0.434785 0,0 -0.0865161,0.195151 -0.311661,0.310385 -0.174272,0.0891733 -0.355877,0.10744 -0.52689,0.000430502 -0.139616,-0.0873919 -0.2302,-0.233711 -0.303111,-0.366335 0.0248652,0.222176 0.107032,0.403484 0.265716,0.505966 0.188664,0.121817 0.424839,0.117319 0.60775,-0.0156614z"/>
    <path id="_102328824" class="fil3" d="M4.52511 6.23314c0.264202,-0.0926841 0.0766665,0.303845 -0.160087,0.478228 -0.346005,0.254857 -0.0852246,-0.392165 0.160087,-0.478228z"/>
    <circle id="_102328752" class="fil4" transform="matrix(1.51987 0.37863 0 1.54047 5.1782 5.84269)" r="0.064657"/>
    <circle id="_102328680" class="fil4" transform="matrix(1.54796 0.417605 0 1.56895 5.07579 5.58766)" r="0.0396285"/>
    <ellipse id="_102302440" class="fil3" cx="4.35506" cy="5.91737" rx="0.0963359" ry="0.0976423"/>
    <ellipse id="_102302368" class="fil3" cx="4.43263" cy="5.75154" rx="0.0405488" ry="0.0410981"/>
    <path id="_102302296" class="fil4" d="M5.50784 7.05125c0,0 0.129967,-0.289164 -0.123628,-0.604039 0,0 0.212386,0.141375 0.272619,0.369497l-0.0126775 0.12852 -0.136313 0.106022z"/>
   </g>
  </g>
 </g>
</svg>
