<?xml version="1.0" encoding="UTF-8"?>
<!DOCTYPE svg PUBLIC "-//W3C//DTD SVG 1.1//EN" "http://www.w3.org/Graphics/SVG/1.1/DTD/svg11.dtd">
<!-- Creator: CorelDRAW -->
<svg xmlns="http://www.w3.org/2000/svg" xml:space="preserve" width="129.436mm" height="197.989mm" style="shape-rendering:geometricPrecision; text-rendering:geometricPrecision; image-rendering:optimizeQuality; fill-rule:evenodd; clip-rule:evenodd"
viewBox="0 0 17.65 26.9978"
 xmlns:xlink="http://www.w3.org/1999/xlink">
 <defs>
  <style type="text/css">
   <![CDATA[
    .fil0 {fill:none}
    .fil1 {fill:#501D33}
    .fil3 {fill:#B24954}
    .fil2 {fill:#E6827B}
    .fil4 {fill:#FFD2C4}
   ]]>
  </style>
 </defs>
 <g id="Layer_x0020_1">
  <metadata id="CorelCorpID_0Corel-Layer"/>
  <g id="_260330616">
   <rect id="_171472352" class="fil0" width="17.65" height="26.9978"/>
   <g id="_164954632">
    <g>
     <path id="_162520568" class="fil1" d="M8.08815 11.912c0,0 -0.805808,0.521838 -0.883261,0.694825 -0.0774391,0.173001 0.379478,0.957141 0.379478,0.957141l0.953405 0c0,0 -0.289561,-1.5292 -0.449621,-1.65195l0 -1.3636e-005z"/>
     <path id="_162519848" class="fil2" d="M8.08393 12.2324c0,0 -0.627626,0.366428 -0.635344,0.436353 -0.007718,0.0699256 0.300961,0.72166 0.300961,0.72166l0.643049 -0.0251858c0,0 -0.226345,-1.05449 -0.308666,-1.13283z"/>
     <path id="_162520496" class="fil3" d="M8.19709 12.2161c0,0 -0.547474,0.458348 -0.555192,0.531969 -0.007718,0.0736346 0.107657,0.642285 0.107657,0.642285l0.643049 -0.0265221c0,0 -0.11322,-1.06528 -0.195514,-1.14773z"/>
     <path id="_162520424" class="fil1" d="M9.58111 11.928c0,0 0.786895,0.543806 0.864348,0.715811 0.0774118,0.172019 -0.407881,0.926665 -0.407881,0.926665l-0.915538 0c0,0 0.299038,-1.52043 0.459071,-1.64246l0 -1.3636e-005z"/>
     <path id="_162520352" class="fil3" d="M9.57584 12.2321c0,0 0.627626,0.366496 0.635344,0.436435 0.007718,0.0699393 -0.300948,0.72181 -0.300948,0.72181l-0.643062 -0.0251994c0,0 0.226345,-1.05471 0.308666,-1.13305z"/>
     <path id="_162520280" class="fil1" d="M8.06119 8.88545l-0.73111 1.60791 0.894865 3.072c0.172687,0.149942 1.11653,0.150433 1.17761,0l0.882143 -3.00301 -0.718361 -1.68559c-0.482061,-0.122711 -1.04207,-0.118375 -1.50515,0.00871343l0 -1.3636e-005z"/>
     <path id="_162519944" class="fil2" d="M8.24892 8.82749c-0.231349,0.573805 -0.426849,1.0621 -0.591982,1.63095 0.659494,-0.101193 1.65413,-0.101193 2.31366,0l-0.594286 -1.61598c-0.374405,-0.0796072 -0.790072,-0.0927797 -1.1274,-0.0149724l1.3636e-005 0z"/>
     <path id="_162520040" class="fil4" d="M8.24726 8.82848c-0.208427,0.513424 -0.463107,1.13478 -0.628254,1.62996 0.659494,-0.0880889 1.69042,-0.0899979 2.34995,-0.00190905l-0.000872707 -0.00205904 -0.00072271 -0.000286357c-0.736565,-0.283902 -2.06725,-0.211154 -2.06725,-0.211154l0.37056 -1.41834c-0.00657257,0.00122724 -0.0169087,0.00246812 -0.0234131,0.00377718l0 1.3636e-005z"/>
     <path id="_162520208" class="fil3" d="M7.64178 10.6761l0.720201 2.68541c0.128383,0.007868 0.793659,0.00790891 0.922042,4.09081e-005l0.682498 -2.6593c-0.500825,-0.150365 -1.82393,-0.137301 -2.32473,-0.0261403l-1.3636e-005 -1.3636e-005z"/>
     <path id="_162520136" class="fil2" d="M9.60839 12.0976c-0.698656,-0.312975 -1.32061,-0.137056 -1.59258,-0.0268357l0.346165 1.29067c0.128383,0.007868 0.793659,0.00790891 0.922042,4.09081e-005l0.324374 -1.26387z"/>
     <path id="_162520064" class="fil4" d="M8.04945 12.1963c0.104152,0.388395 0.208332,0.776805 0.312511,1.16521 0.133524,0.12537 0.798786,0.125397 0.922042,4.09081e-005 0.00289084,-0.0112634 0.00576805,-0.0225131 0.00867253,-0.0337765 -0.151019,-0.0219268 -0.700661,-0.102598 -0.765855,-0.125097 -0.0710302,-0.0245312 -0.421095,-0.904193 -0.464007,-1.01268l-0.0133633 0.00629985z"/>
    </g>
    <polygon id="_162519824" class="fil4" points="9.74154,10.3887 8.74912,9.54572 9.33536,10.3351 "/>
    <polygon id="_162519968" class="fil1" points="8.72726,9.52482 9.32599,10.542 9.28766,11.137 9.70222,10.5152 "/>
   </g>
  </g>
 </g>
</svg>
