<?xml version="1.0" encoding="UTF-8"?>
<!DOCTYPE svg PUBLIC "-//W3C//DTD SVG 1.1//EN" "http://www.w3.org/Graphics/SVG/1.1/DTD/svg11.dtd">
<!-- Creator: CorelDRAW -->
<svg xmlns="http://www.w3.org/2000/svg" xml:space="preserve" width="129.436mm" height="197.989mm" style="shape-rendering:geometricPrecision; text-rendering:geometricPrecision; image-rendering:optimizeQuality; fill-rule:evenodd; clip-rule:evenodd"
viewBox="0 0 54.1832 82.8799"
 xmlns:xlink="http://www.w3.org/1999/xlink">
 <defs>
  <style type="text/css">
   <![CDATA[
    .fil0 {fill:none}
    .fil1 {fill:#501D33}
    .fil4 {fill:#C75B62}
    .fil2 {fill:#F39388}
    .fil3 {fill:#F7B19F}
    .fil5 {fill:#F9C0AF}
   ]]>
  </style>
 </defs>
 <g id="Layer_x0020_1">
  <metadata id="CorelCorpID_0Corel-Layer"/>
  <g id="_284073056">
   <rect id="_249422128" class="fil0" width="54.1832" height="82.8799"/>
   <g id="_161956584">
    <path id="_162118400" class="fil1" d="M23.7625 29.4853c0,0 0.890088,4.30665 -0.311864,7.41754 2.68261,0.710965 4.57385,0.572071 7.25265,-0.170583 -1.10768,-3.22877 -0.282645,-7.29409 -0.282645,-7.29409 -1.71228,-1.33641 -4.94591,-1.28932 -6.65814,0.0471354z"/>
    <path id="_162939736" class="fil2" d="M24.2723 29.4617c0,0 0.99562,3.7944 0.0957359,7.04674 2.09267,0.797241 3.35461,0.797157 5.44727,0 -0.899842,-3.25234 0.0957359,-7.04674 0.0957359,-7.04674 -1.4234,-1.61131 -4.27818,-1.59461 -5.6387,0l-4.18609e-005 0z"/>
    <path id="_161956800" class="fil3" d="M24.2723 29.4617l0.00657216 0.0260375c0.621509,-0.156141 3.20181,-0.717203 5.61727,0.0329027 0.00937684,-0.0383864 0.0148606,-0.0589401 0.0148606,-0.0589401 -1.4234,-1.61131 -4.27818,-1.59461 -5.6387,0z"/>
    <path id="_163472592" class="fil4" d="M29.4845 32.2399c-0.27038,0.226677 -1.275,0.934461 -3.29931,0.954219 0,0 2.50362,-0.0206374 3.25849,0.622765 -0.0139397,-0.551601 0.00443725,-1.08441 0.0408144,-1.57698z"/>
    <path id="_161957232" class="fil4" d="M24.6049 31.3027c0.0262049,0.207714 0.0504842,0.428404 0.0712054,0.65956 2.02661,-0.281138 4.26755,-0.201853 4.84741,-0.17456 0.0252421,-0.253886 0.0544192,-0.493666 0.0852706,-0.715863 -1.99329,0.710589 -4.33897,0.354939 -5.00388,0.230863z"/>
    <path id="_161956656" class="fil4" d="M24.595 35.4513c-0.0564285,0.355022 -0.130732,0.709249 -0.227012,1.05716 2.09267,0.797241 3.35461,0.797157 5.44727,0 -0.112145,-0.405339 -0.194904,-0.819176 -0.253761,-1.23293 -2.05416,0.734156 -4.27153,0.33338 -4.96646,0.175774l-4.18609e-005 0z"/>
    <path id="_163714704" class="fil1" d="M25.316 41.3376c-0.872214,0.188039 -1.61855,0.253007 -2.39746,-0.400651 -0.59229,-0.49714 -1.35052,-1.27169 -1.35052,-1.60034 0,-0.494921 1.29622,-2.02682 2.75742,-3.41731 0,0 1.37153,0.0759357 2.63372,0.927596l0.147643 -0.0117211c1.47903,-0.875102 2.75093,-0.915875 2.75093,-0.915875 1.4612,1.39049 2.75742,2.92239 2.75742,3.41731 0,0.20876 -0.258951,0.646542 -0.610541,1.05142 -1.01253,1.16616 -1.60541,1.04836 -3.13743,0.949573 -1.16524,0.598443 -2.38595,0.59836 -3.55119,0z"/>
    <path id="_161811288" class="fil2" d="M23.4381 40.5974c-0.379385,-0.326264 -0.90386,-0.883935 -1.07503,-1.40498 0,0 0.834916,-1.15561 1.67423,-2.04495 0.820683,-0.869744 1.96353,-0.609327 3.05425,-0.32011 1.18257,-0.313538 2.14483,-0.629755 2.99402,0.256565 0.859195,0.896828 1.73467,2.10849 1.73467,2.10849 -0.187579,0.570899 -0.50501,1.06967 -0.975233,1.37676 -0.345729,0.225798 -0.793055,0.383069 -1.23619,0.21123 0.776352,-0.446991 1.35273,-1.54094 0.893981,-1.57623 -0.458754,-0.0352887 -0.811641,0.64696 -1.64681,1.34097 -0.982015,0.815953 -2.54665,0.815994 -3.52866,0 -0.835167,-0.694012 -1.18805,-1.37626 -1.64681,-1.34097 -0.458754,0.0352887 0.117629,1.12924 0.893981,1.57623 -0.397344,0.116541 -0.718249,0.176527 -1.1364,-0.183016z"/>
    <path id="_161956536" class="fil4" d="M23.4381 40.5974c-0.378632,-0.325636 -0.901767,-0.881716 -1.07398,-1.40188 1.52265,-0.992731 2.11092,0.518698 4.83414,0.574122 1.85469,0.0377167 2.59609,-1.2133 4.60612,-0.598946l0.0158653 0.0217258c-0.187579,0.570899 -0.50501,1.06967 -0.975233,1.37676 -0.345729,0.225798 -0.793055,0.383069 -1.23619,0.21123 0.776352,-0.446991 1.35273,-1.54094 0.893981,-1.57623 -0.458754,-0.0352887 -0.811641,0.64696 -1.64681,1.34097 -0.982015,0.815953 -2.54665,0.815994 -3.52866,0 -0.835167,-0.694012 -1.18805,-1.37626 -1.64681,-1.34097 -0.458754,0.0352887 0.117629,1.12924 0.893981,1.57623 -0.397344,0.116541 -0.718249,0.176527 -1.1364,-0.183016z"/>
    <path id="_162261728" class="fil5" d="M25.9796 39.2389c0.624313,0.140987 1.47346,0.174058 2.55322,-0.123573 1.86298,-0.513508 -0.0981219,-0.61255 -1.95089,-0.578392 -1.36529,0.0252003 -2.8033,0.205077 -0.602336,0.701965z"/>
    <circle id="_161957544" class="fil1" cx="29.467" cy="32.3598" r="0.376413"/>
    <circle id="_161956560" class="fil1" cx="28.6084" cy="33.0538" r="0.164681"/>
    <circle id="_161957448" class="fil1" cx="24.7969" cy="32.7482" r="0.340831"/>
    <circle id="_163472688" class="fil1" cx="25.1913" cy="33.4478" r="0.141155"/>
    <circle id="_161958120" class="fil1" cx="28.9436" cy="34.036" r="0.158778"/>
    <circle id="_161812224" class="fil1" cx="25.1853" cy="34.3013" r="0.270589"/>
    <circle id="_162261800" class="fil1" cx="26.1205" cy="33.5772" r="0.217593"/>
    <circle id="_161958408" class="fil1" cx="27.2262" cy="32.8515" r="0.117838"/>
    <circle id="_163711872" class="fil1" cx="28.0173" cy="33.8038" r="0.214495"/>
    <path id="_162801936" class="fil5" d="M24.0796 37.3752c0,0 0.774594,-0.908507 2.18037,-0.602462 1.40573,0.306003 -1.85523,0.717203 -2.18037,0.602462z"/>
    <path id="_161957616" class="fil5" d="M30.0552 37.329c0,0 -0.684133,-0.908507 -1.92564,-0.602462 -1.24151,0.306003 1.63848,0.717203 1.92564,0.602462z"/>
   </g>
  </g>
 </g>
</svg>
