<?xml version="1.0" encoding="UTF-8"?>
<!DOCTYPE svg PUBLIC "-//W3C//DTD SVG 1.1//EN" "http://www.w3.org/Graphics/SVG/1.1/DTD/svg11.dtd">
<!-- Creator: CorelDRAW -->
<svg xmlns="http://www.w3.org/2000/svg" xml:space="preserve" width="129.436mm" height="197.988mm" style="shape-rendering:geometricPrecision; text-rendering:geometricPrecision; image-rendering:optimizeQuality; fill-rule:evenodd; clip-rule:evenodd"
viewBox="0 0 45.2629 69.2352"
 xmlns:xlink="http://www.w3.org/1999/xlink">
 <defs>
  <style type="text/css">
   <![CDATA[
    .fil0 {fill:none}
    .fil3 {fill:#501D33}
    .fil2 {fill:#D2696F}
    .fil1 {fill:#EC9788}
    .fil4 {fill:#FBC2AB}
   ]]>
  </style>
 </defs>
 <g id="Layer_x0020_1">
  <metadata id="CorelCorpID_0Corel-Layer"/>
  <g id="_167461240">
   <rect id="_167459992" class="fil0" width="45.2629" height="69.2352"/>
   <g>
    <g>
     <path id="_167460064" class="fil1" d="M20.0208 34.2332l1.52075 -0.241813 0.981451 0.507791 1.02481 -0.589339 1.84813 0.107041 1.77099 -1.76414 -1.45106 -1.67696 -1.36034 -6.02949c0,0 -1.60971,-0.395679 -3.55954,0.113056l-1.38304 5.99183 -1.22431 1.18704 -0.128198 0.295142c0,0 1.43983,1.71427 1.96035,2.09984z"/>
     <path id="_167460136" class="fil2" d="M20.0208 34.2332l1.45168 -0.213418 1.03425 0.486634 1.0061 -0.481039 1.6181 0.118267 2.03599 -1.8909 -0.229154 -0.264823 -2.1288 1.09388 -1.10314 0.840629 -1.27743 0.497195 -1.32475 -0.822026 -0.772579 -0.78884 -2.00626 -0.763347c-0.0878431,0.0300737 -0.166,0.0713376 -0.235904,0.121659 0.203592,0.240974 1.45441,1.71245 1.93188,2.06613z"/>
     <g>
      <path id="_167460208" class="fil3" d="M20.8248 24.3039l-1.6515 6.30114 0.667461 1.29908c0,0 1.17693,-7.32703 0.984039,-7.60021z"/>
      <g>
       <g>
        <path id="_167459824" class="fil3" d="M19.6054 29.9701c-0.0856051,0.0889272 -1.90454,1.79173 -1.90454,2.09407 0,0.30231 0.995684,1.49956 2.36523,2.21094 0,0 -1.17557,-1.24421 -1.62496,-2.18674l1.29264 -1.26907 -0.128373 -0.849197z"/>
        <g>
         <path id="_222575816" class="fil3" d="M24.3363 24.3039l1.64031 6.30114 -0.656271 1.29908c0,0 -1.17697,-7.32703 -0.984039,-7.60021z"/>
         <path id="_167460280" class="fil3" d="M25.6349 30.036c0.0856051,0.0888922 1.92716,1.68825 1.92716,1.9906 0,0.30231 -1.15039,1.51369 -2.51993,2.22507 0,0 1.14937,-1.17375 1.59877,-2.11631l-1.21358 -1.316 0.207578 -0.783349z"/>
        </g>
       </g>
       <path id="_167460496" class="fil3" d="M20.3504 32.8021c0.085675,-0.0214712 1.41542,1.36744 2.1945,1.42392 0.672636,0.0487823 2.18013,-1.44539 2.26581,-1.42392 0.17163,0.0428375 0.723027,0.541221 0.676343,0.578813 -0.0600774,0.0483976 -0.612384,-0.0583639 -0.631233,0.0098264 -1.13409,0.977779 -1.81023,1.42165 -2.29959,1.41371 -0.489362,-0.00793805 -1.16487,-0.456036 -2.29752,-1.34377 -0.0188835,-0.0681903 -0.524611,-0.0313676 -0.584653,-0.0797652 -0.0466841,-0.0375571 0.504678,-0.535941 0.676343,-0.578813z"/>
      </g>
     </g>
     <path id="_222576464" class="fil2" d="M19.9756 32.1548c0,0 1.9351,1.67399 2.64795,1.71158 0.712886,0.0376271 2.53479,-1.72098 2.53479,-1.72098 0,0 -2.53479,1.37304 -5.18274,0.00940677z"/>
    </g>
    <polygon id="_167461096" class="fil4" points="19.9778,31.8582 24.5304,30.5887 21.3564,30.2151 21.0669,24.814 "/>
   </g>
  </g>
 </g>
</svg>
