<?xml version="1.0" encoding="UTF-8"?>
<!DOCTYPE svg PUBLIC "-//W3C//DTD SVG 1.1//EN" "http://www.w3.org/Graphics/SVG/1.1/DTD/svg11.dtd">
<!-- Creator: CorelDRAW -->
<svg xmlns="http://www.w3.org/2000/svg" xml:space="preserve" width="129.436mm" height="197.989mm" style="shape-rendering:geometricPrecision; text-rendering:geometricPrecision; image-rendering:optimizeQuality; fill-rule:evenodd; clip-rule:evenodd"
viewBox="0 0 157.975 241.642"
 xmlns:xlink="http://www.w3.org/1999/xlink">
 <defs>
  <style type="text/css">
   <![CDATA[
    .fil0 {fill:none}
    .fil1 {fill:#501D33}
    .fil3 {fill:#C45563}
    .fil2 {fill:#F7888D}
    .fil4 {fill:#FEB5AA}
   ]]>
  </style>
 </defs>
 <g id="Layer_x0020_1">
  <metadata id="CorelCorpID_0Corel-Layer"/>
  <g id="_260327304">
   <rect id="_253783536" class="fil0" width="157.975" height="241.643"/>
   <g id="_163715568">
    <path id="_162524312" class="fil1" d="M91.9539 106.731c0,0 6.70413,1.20462 5.42982,8.21338 -1.27443,7.00876 -12.7435,5.25663 -12.7435,5.25663 0,0 4.65408,-13.1963 7.31364,-13.47z"/>
    <path id="_161956872" class="fil2" d="M91.5757 108.413c0,0 4.93625,0.908163 3.99794,6.19226 -0.938309,5.28397 -9.38285,3.96304 -9.38285,3.96304 0,0 3.42676,-9.94891 5.3849,-10.1553z"/>
    <path id="_163714104" class="fil3" d="M95.6142 114.354c-0.0120828,0.0826269 -0.0252641,0.166352 -0.0403981,0.251298 -0.938431,5.28434 -9.38297,3.96316 -9.38297,3.96316 0,0 0.501742,-1.45567 1.23013,-3.26431 0.627085,0.040276 0.984078,0.0622448 0.984078,0.0622448 0,0 5.24723,-3.55857 7.20916,-1.01239z"/>
    <path id="_162120704" class="fil1" d="M86.2262 118.627c0,0 4.58256,-4.27573 6.97886,-3.6678 2.39642,0.608046 -0.816139,4.98373 -6.97886,3.6678z"/>
    <path id="_161951832" class="fil1" d="M66.0213 106.731c0,0 -6.70413,1.20462 -5.42982,8.21338 1.27443,7.00876 12.7435,5.25663 12.7435,5.25663 0,0 -4.65408,-13.1963 -7.31364,-13.47z"/>
    <path id="_161955360" class="fil2" d="M66.3995 108.413c0,0 -4.93625,0.908163 -3.99794,6.19226 0.938309,5.28397 9.38285,3.96304 9.38285,3.96304 0,0 -3.42676,-9.94891 -5.3849,-10.1553z"/>
    <path id="_162261656" class="fil3" d="M62.426 114.723c1.04339,5.14447 9.35856,3.84477 9.35856,3.84477 0,0 -0.79478,-2.30647 -1.83707,-4.7212 -0.921833,-0.105938 -1.78594,-0.214317 -2.56314,-0.324771 -3.38917,-0.481848 -4.60514,0.283641 -4.95834,1.2012z"/>
    <path id="_163471680" class="fil1" d="M71.7491 118.627c0,0 -4.58244,-4.27573 -6.97886,-3.6678 -2.39642,0.608046 0.816139,4.98373 6.97886,3.6678z"/>
    <ellipse id="_161956464" class="fil4" transform="matrix(0.560833 0.443074 -0.472753 0.760598 63.8983 111.512)" rx="1.38891" ry="2.14342"/>
    <ellipse id="_161958336" class="fil4" transform="matrix(-0.509574 0.501182 0.552311 0.704952 93.5117 111.031)" rx="1.38891" ry="2.14342"/>
    <path id="_163472400" class="fil1" d="M72.5917 84.686c-0.480139,0.685791 -16.4108,26.3026 0.593278,36.1924 2.90219,1.64936 8.3447,1.70502 11.6132,0 17.0039,-9.88984 1.039,-36.0552 0.593156,-36.1924 -0.316228,-0.421434 -1.66645,-1.73272 -1.82536,-1.13481 -2.36127,-0.837741 -6.50104,-0.625499 -9.13887,0.142065 -0.434737,-0.431564 -1.37085,0.301704 -1.83537,0.992743z"/>
    <path id="_161955000" class="fil2" d="M86.1414 117.37c1.66389,-1.48204 2.87888,-3.32289 3.5842,-5.5847 0.892297,-2.86131 0.850434,-6.00259 0.402028,-8.93981 -0.796977,-5.22026 -3.64083,-14.7667 -6.47699,-19.3875 -1.2632,-0.878628 -7.9799,-1.32264 -9.25787,0.313909 -2.92404,4.71864 -5.72212,13.7349 -6.53704,19.0737 -0.863738,5.65793 -0.0817725,10.9373 4.05519,14.5819 4.0619,3.57846 10.1919,3.53904 14.2305,-0.0574849z"/>
    <path id="_163471872" class="fil3" d="M68.341 109.388c0,0 1.3058,9.75754 10.7535,9.79244 9.44778,0.0349059 10.685,-11.6477 10.685,-11.6477 0,0 -9.34501,12.1623 -21.4383,1.85526l-0.000122049 0z"/>
    <circle id="_161954736" class="fil3" cx="86.1032" cy="111.346" r="2.02698"/>
    <circle id="_163714392" class="fil3" cx="82.6457" cy="109.921" r="0.960277"/>
    <circle id="_162261416" class="fil3" cx="83.5718" cy="106.8" r="0.54873"/>
    <path id="_162119480" class="fil4" d="M70.0095 97.3906c1.19839,-4.49297 3.97695,-13.2911 7.40151,-13.4955 3.9562,-0.236042 0.554345,10.8949 -5.10322,14.815 -1.6219,1.1237 -2.93905,1.08294 -2.2983,-1.31959l0 0.000122049z"/>
    <path id="_161957088" class="fil3" d="M88.3558 95.4138l0.0563864 0.000610243c0.762071,2.64479 1.35364,5.18572 1.67255,7.16144 -0.518462,0.266554 -1.106,0.417284 -1.72894,0.417284 -2.09252,0 -3.78961,-1.69709 -3.78961,-3.78973 0,-2.09252 1.69709,-3.78961 3.78961,-3.78961z"/>
    <circle id="_162260768" class="fil3" cx="85.115" cy="93.9048" r="1.09746"/>
    <circle id="_161953344" class="fil4" transform="matrix(0.750606 0.348484 -0.421099 0.907014 74.7459 96.6655)" r="2.55496"/>
    <circle id="_161955144" class="fil4" cx="72.6486" cy="100.575" r="0.977364"/>
    <circle id="_161957520" class="fil4" cx="70.7624" cy="102.839" r="0.634408"/>
   </g>
  </g>
 </g>
</svg>
