<?xml version="1.0" encoding="UTF-8"?>
<!DOCTYPE svg PUBLIC "-//W3C//DTD SVG 1.1//EN" "http://www.w3.org/Graphics/SVG/1.1/DTD/svg11.dtd">
<!-- Creator: CorelDRAW -->
<svg xmlns="http://www.w3.org/2000/svg" xml:space="preserve" width="129.436mm" height="197.989mm" style="shape-rendering:geometricPrecision; text-rendering:geometricPrecision; image-rendering:optimizeQuality; fill-rule:evenodd; clip-rule:evenodd"
viewBox="0 0 24.1432 36.9299"
 xmlns:xlink="http://www.w3.org/1999/xlink">
 <defs>
  <style type="text/css">
   <![CDATA[
    .fil0 {fill:none}
    .fil1 {fill:#501D33}
    .fil4 {fill:#C45563}
    .fil2 {fill:#F7888D}
    .fil3 {fill:#FEB5AA}
    .fil5 {fill:#FFCAC2}
   ]]>
  </style>
 </defs>
 <g id="Layer_x0020_1">
  <metadata id="CorelCorpID_0Corel-Layer"/>
  <g id="_249452584">
   <rect id="_253787928" class="fil0" width="24.1432" height="36.9299"/>
   <g id="_161953200">
    <path id="_163472856" class="fil1" d="M10.4944 16.0185c-1.12926,-3.82772 4.29971,-3.77523 3.17048,0 -0.190312,0.407819 -1.26169,0.261266 -1.5748,0.210923 -0.313083,0.0503432 -1.40537,0.196896 -1.59569,-0.210923z"/>
    <path id="_163472784" class="fil2" d="M10.8581 15.7309c-1.09908,-3.60182 3.5631,-3.60182 2.46404,0 -0.156196,0.389073 -0.975117,0.269305 -1.23207,0.221275 -0.25692,0.0480303 -1.07577,0.167798 -1.23196,-0.221275z"/>
    <path id="_163711800" class="fil3" d="M10.7342 15.209c-0.140565,-0.838842 0.0664963,-1.43572 0.420708,-1.79014 0.0047937,0.00248079 0.00956875,0.00464448 0.0143624,0.00733044 0,0 -0.178206,0.42455 -0.157241,1.01682 0,0 1.20781,-0.397411 2.47769,0.315172 -0.00304036,0.143643 -0.0175893,0.296221 -0.0447661,0.457584 -0.658229,0.0407371 -1.9025,-0.128423 -1.95072,-0.112344 -0.0541669,0.0180556 -0.449246,0.0709915 -0.760035,0.105573z"/>
    <path id="_163473000" class="fil4" d="M10.8581 15.7309c-0.0995672,-0.326307 -0.151272,-0.622584 -0.164832,-0.889782 0.31284,-0.175502 1.37115,-0.654443 2.79633,-0.0754308 -0.00686413,0.286466 -0.0583824,0.607793 -0.167444,0.965212 -0.156252,0.389129 -0.97508,0.269343 -1.23209,0.221331 -0.256883,0.0480116 -1.07571,0.167798 -1.23198,-0.221331l1.86525e-005 0z"/>
    <polygon id="_163472928" class="fil3" points="12.1936,14.4689 13.3025,15.7167 13.3287,15.5385 12.4899,14.5029 "/>
    <path id="_163472472" class="fil1" d="M9.72189 16.6346c-0.360721,0.942382 0.810751,1.62833 1.6426,1.89696 0.501007,0.161792 0.940461,0.156812 1.44093,-0.00871073 0.829926,-0.274547 1.97282,-0.955924 1.61594,-1.88825 -0.124338,-0.324834 -0.358035,-0.631593 -0.6578,-0.83416 -0.449657,-0.30385 -1.15332,0.0465008 -1.7552,0.0393009 -0.601936,-0.00721853 -1.10231,-0.372099 -1.56539,-0.0904648 -0.330112,0.200776 -0.588114,0.537958 -0.72107,0.885324z"/>
    <path id="_163711944" class="fil4" d="M9.99638 16.7368c-0.295904,0.772998 0.896739,1.3388 1.45807,1.52007 0.441431,0.142543 0.819051,0.13745 1.25897,-0.00805789 0.56381,-0.186507 1.72586,-0.748153 1.43345,-1.51201 -0.534563,-1.39651 -3.6159,-1.39655 -4.15049,0z"/>
    <path id="_163472496" class="fil2" d="M14.1734 16.8216c-0.00697605,-0.0280161 -0.0156122,-0.056256 -0.0265426,-0.0848317 -0.25886,-0.676247 -1.11227,-1.04068 -1.98707,-1.06189 -0.88635,-0.0214877 -1.79469,0.308886 -2.11807,0.959747 0.75899,0.129523 1.08741,1.02132 2.02085,1.0365 0.933466,0.0151832 1.01563,-0.777437 2.11083,-0.84953z"/>
    <path id="_163715064" class="fil5" d="M14.1734 16.8216l-0.00175334 -0.00701335c-0.936096,-0.13954 -1.27811,0.717824 -2.19759,0.686898 -0.655301,-0.0220286 -1.05969,-0.833395 -1.9247,-0.881183 -0.00246213,0.00481235 -0.00524136,0.00947549 -0.00764754,0.0143251 0.75899,0.129523 1.08741,1.02132 2.02085,1.0365 0.933466,0.0151832 1.01563,-0.777437 2.11083,-0.84953z"/>
    <path id="_163714992" class="fil1" d="M12.5172 18.3402c0,0 0.46415,-0.788312 0.88247,-0.716294 0.418302,0.0720174 0.00143624,0.517906 0.00143624,0.517906 0,0 -0.580187,0.208852 -0.883906,0.198388z"/>
    <path id="_163472712" class="fil1" d="M11.5793 18.3537c0,0 -0.3959,-0.824703 -0.818809,-0.788275 -0.422909,0.0364284 -0.0451764,0.515929 -0.0451764,0.515929 0,0 0.560471,0.257106 0.863985,0.272346z"/>
    <path id="_163472616" class="fil3" d="M10.3719 16.4425c0,0 0.594699,-0.777102 2.0814,-0.53557 1.48674,0.241532 -1.40562,0.829609 -2.0814,0.53557z"/>
    <polygon id="_163472520" class="fil1" points="11.8367,13.695 13.4544,15.9272 13.6019,15.4489 "/>
    <path id="_163714608" class="fil1" d="M12.6089 13.9226c0,0 -0.689528,0.641386 -0.68576,0.557282 0.00374916,-0.0841229 0.221312,-0.494665 0.68576,-0.557282z"/>
    <path id="_162520808" class="fil1" d="M13.2453 14.8134c0,0 -1.01936,0.265743 -0.954786,0.175651 0.0645751,-0.0900917 0.521506,-0.396124 0.954786,-0.175651z"/>
    <circle id="_162520736" class="fil3" cx="11.0723" cy="16.5317" r="0.306591"/>
    <circle id="_162520976" class="fil3" cx="11.6069" cy="16.7152" r="0.165093"/>
   </g>
  </g>
 </g>
</svg>
