<?xml version="1.0" encoding="UTF-8"?>
<!DOCTYPE svg PUBLIC "-//W3C//DTD SVG 1.1//EN" "http://www.w3.org/Graphics/SVG/1.1/DTD/svg11.dtd">
<!-- Creator: CorelDRAW -->
<svg xmlns="http://www.w3.org/2000/svg" xml:space="preserve" width="129.436mm" height="197.989mm" style="shape-rendering:geometricPrecision; text-rendering:geometricPrecision; image-rendering:optimizeQuality; fill-rule:evenodd; clip-rule:evenodd"
viewBox="0 0 11.2823 17.2576"
 xmlns:xlink="http://www.w3.org/1999/xlink">
 <defs>
  <style type="text/css">
   <![CDATA[
    .fil0 {fill:none}
    .fil1 {fill:#501D33}
    .fil3 {fill:#CD6474}
    .fil2 {fill:#F5A797}
    .fil4 {fill:white}
   ]]>
  </style>
 </defs>
 <g id="Layer_x0020_1">
  <metadata id="CorelCorpID_0Corel-Layer"/>
  <g id="_253784016">
   <rect id="_235014328" class="fil0" width="11.2823" height="17.2576"/>
   <g id="_162519872">
    <path id="_102330216" class="fil1" d="M5.04573 6.08282l-0.18064 1.36376 0.0803308 0.158474c0,0 -0.373944,0.255645 -0.380621,0.302653 -0.0136325,0.0959507 0.0325385,0.389381 0.0674566,0.426034 0.0532401,0.0558986 0.17527,0.068337 0.44229,0.145129 0,0 0.12984,0.256325 0.156757,0.281995 0.0916971,0.0874609 0.231178,0.118727 0.374956,0.123434 0.160226,0.00525602 0.325516,-0.0259314 0.427708,-0.123434 0.0269164,-0.0256699 0.149853,-0.252507 0.149853,-0.252507 0.293457,-0.0969269 0.411539,-0.144292 0.464796,-0.200243 0.034953,-0.0366701 0.11103,-0.332376 0.0456568,-0.383315l-0.378285 -0.294721 0.064031 -0.143516 -0.178208 -1.39813 -0.0827714 -0.0885156 -0.066123 0.0878008 -0.867043 -0.00420133 -0.0587837 -0.0836169 -0.0813594 0.0829196z"/>
    <path id="_102330144" class="fil2" d="M5.19214 6.07637l-0.140422 1.36093c0.0730613,0.14329 0.158796,0.356965 0.231849,0.500246 -0.0927779,-0.0645802 -0.185547,-0.129187 -0.278342,-0.193793 -0.0992368,0.0699059 -0.1985,0.139829 -0.297754,0.209753 0.00592719,0.0898405 0.0135192,0.175898 0.0377945,0.265782 0.0885417,0.0351273 0.21867,0.07307 0.303986,0.0866677 -0.0213379,-0.0882541 -0.041839,-0.204139 -0.042423,-0.273025 0.0997511,0.204593 0.165874,0.37968 0.273496,0.566116 0.0408714,0.0708124 0.197192,0.131261 0.346706,0.132133l0 2.61494e-005 0.00159511 -8.71645e-006 0.00162126 8.71645e-006 0 -2.61494e-005c0.149539,-0.000871645 0.30905,-0.0613202 0.349913,-0.132133 0.107613,-0.186436 0.173754,-0.361524 0.273496,-0.566116 -0.000584002,0.0688861 -0.0210851,0.184771 -0.042423,0.273025 0.0853253,-0.0135977 0.215436,-0.0515404 0.303978,-0.0866677 0.0242753,-0.089884 0.0318935,-0.175942 0.0378032,-0.265782 -0.0992629,-0.0699234 -0.198517,-0.139847 -0.297763,-0.209753 -0.0927866,0.0646063 -0.185556,0.129213 -0.278334,0.193793l0.227098 -0.465101 -0.147796 -1.3938 -0.864079 -0.00226628z"/>
    <path id="_102330072" class="fil3" d="M6.24061 8.05981c0.00428849,-0.00892565 0.00862057,-0.0178687 0.0130311,-0.0268903 -0.000584002,0.0688861 -0.0210851,0.184771 -0.042423,0.273025 0.0853253,-0.0135977 0.215436,-0.0515404 0.303978,-0.0866677 0.0242753,-0.089884 0.0318935,-0.175942 0.0378032,-0.265782l-0.281768 -0.198482c0.000723465,0.0616602 -0.0034953,0.16828 -0.0306209,0.304797z"/>
    <path id="_102330000" class="fil4" d="M5.0117 7.74822l-0.00648504 -0.00448026c-0.0992368,0.0699059 -0.1985,0.139829 -0.297754,0.209753 0.00592719,0.0898405 0.0135192,0.175898 0.0377945,0.265782l0.00691215 0.00268467 0.0124471 -0.227726 0.247085 -0.246013z"/>
    <path id="_102329928" class="fil4" d="M5.00694 8.03909l-2.61494e-005 -0.00117672 -0.000557853 -0.000906511c-0.00014818,-0.000278926 8.71645e-005,0.000461972 0.000584002,0.00208323zm0.0099106 0.0144693c0.0942684,0.19578 0.159485,0.365341 0.263472,0.545484 0.0408714,0.0708124 0.197192,0.131261 0.346706,0.132133l0 2.61494e-005 0.00159511 -8.71645e-006 0.00162126 8.71645e-006 0 -2.61494e-005c0.149539,-0.000871645 0.30905,-0.0613202 0.349913,-0.132133 0.103787,-0.179794 0.16896,-0.349076 0.26294,-0.544421l-0.316268 0.493508c-0.329761,0.136447 -0.5923,0.00611023 -0.5923,0.00611023l-0.31768 -0.500682z"/>
    <path id="_102329856" class="fil4" d="M5.18978 6.05543l-0.146541 1.39183 0.0716231 0.143935 1.02444 -0.0463367 0.066123 -0.0775938c-0.272511,-0.181895 -0.943992,-0.1695 -1.02144,-0.146218l0.00578772 -1.26562z"/>
    <path id="_102329784" class="fil3" d="M5.0401 7.44767l0.239345 0.481732c0.251504,0.226453 0.541257,0.126057 0.701082,-0.000566569l0.227403 -0.461266c-0.426234,-0.110246 -1.02419,-0.0447503 -1.16783,-0.0198997z"/>
   </g>
  </g>
 </g>
</svg>
