<?xml version="1.0" encoding="UTF-8"?>
<!DOCTYPE svg PUBLIC "-//W3C//DTD SVG 1.1//EN" "http://www.w3.org/Graphics/SVG/1.1/DTD/svg11.dtd">
<!-- Creator: CorelDRAW 2020 (64-Bit) -->
<svg xmlns="http://www.w3.org/2000/svg" xml:space="preserve" width="129.436mm" height="197.988mm" version="1.1" style="shape-rendering:geometricPrecision; text-rendering:geometricPrecision; image-rendering:optimizeQuality; fill-rule:evenodd; clip-rule:evenodd"
viewBox="0 0 540.97 827.48"
 xmlns:xlink="http://www.w3.org/1999/xlink"
 xmlns:xodm="http://www.corel.com/coreldraw/odm/2003">
 <defs>
  <style type="text/css">
   <![CDATA[
    .fil0 {fill:none}
    .fil8 {fill:#4B3446}
    .fil1 {fill:#501D33}
    .fil7 {fill:#634C54}
    .fil12 {fill:#856969}
    .fil9 {fill:#896E6B}
    .fil3 {fill:#8E7A5D}
    .fil10 {fill:#AE9F90}
    .fil6 {fill:#BFCAB7}
    .fil2 {fill:#C3C077}
    .fil11 {fill:#D2C8AD}
    .fil4 {fill:#E0E28A}
    .fil5 {fill:white}
   ]]>
  </style>
 </defs>
 <g id="Слой_x0020_1">
  <metadata id="CorelCorpID_0Corel-Layer"/>
  <g id="_2674702364528">
   <rect id="_273923616" class="fil0" width="540.97" height="827.48"/>
   <path id="_273442056" class="fil1" d="M110.62 442.04c-0.07,-1.7 -0,-3.49 0.03,-5.15 0.06,-3.42 0.17,-6.85 0.27,-10.27 0.3,-9.54 0.66,-19.07 1.03,-28.61 0.58,-14.72 1.18,-29.44 1.82,-44.15l0 -99.47c0,-71.82 64.36,-100.35 128.9,-112.25 20.13,-3.71 35.48,-3.71 55.61,0 65.71,12.12 122.53,41.83 125.18,112.39l3.72 99.19c0.64,14.77 1.25,29.54 1.83,44.31 0.37,9.53 0.73,19.07 1.03,28.61 0.11,3.42 0.21,6.85 0.27,10.27 0.03,1.66 0.1,3.46 0.03,5.15 0.36,4.93 -2.49,9.62 -5.48,13.47 -3.75,4.82 -8.47,9.34 -13.07,13.43 -13.03,11.59 -28.09,22.21 -42.92,31.61 -64.37,40.83 -128.99,42.31 -194,1.75 -15.49,-9.66 -31.2,-20.62 -44.81,-32.58 -4.81,-4.22 -9.76,-8.9 -13.7,-13.88 -3.09,-3.92 -6.11,-8.74 -5.74,-13.8z"/>
   <path id="_273441984" class="fil2" d="M120.54 441.71c-0.44,-6.14 3.11,-87.77 3.11,-87.77l0 -99.12c0,-67.43 62.45,-92.47 120.9,-103.24 19.27,-3.55 32.6,-3.55 51.87,0 58.46,10.78 114.68,36.3 117.2,103.68l3.7 98.68c0,0 3.56,81.62 3.11,87.77 1.4,7.33 -23.89,29.77 -57.1,50.84 -60.95,38.66 -121.28,40.2 -182.98,1.7 -34.54,-21.55 -61.25,-45.02 -59.81,-52.54z"/>
   <path id="_273441912" class="fil3" d="M141.87 233.66c6.95,0 12.59,5.64 12.59,12.59 0,6.95 -5.64,12.59 -12.59,12.59 -1.61,0 -3.16,-0.31 -4.58,-0.86l0 -10.69c0,-4.55 0.29,-8.9 0.84,-13.07 1.18,-0.37 2.43,-0.56 3.73,-0.56zm18.72 44.49c0.94,0 1.7,0.76 1.7,1.7 0,0.94 -0.76,1.7 -1.7,1.7 -0.94,0 -1.7,-0.76 -1.7,-1.7 0,-0.94 0.76,-1.7 1.7,-1.7zm5.98 -24.25c2.79,0 5.06,2.27 5.06,5.06 0,2.79 -2.27,5.06 -5.06,5.06 -2.79,0 -5.06,-2.27 -5.06,-5.06 0,-2.79 2.27,-5.06 5.06,-5.06zm-17.6 8.74c3.86,0 6.98,3.13 6.98,6.98 0,3.86 -3.13,6.98 -6.98,6.98 -3.86,0 -6.98,-3.13 -6.98,-6.98 0,-3.86 3.13,-6.98 6.98,-6.98z"/>
   <path id="_273441840" class="fil4" d="M123.69 251.84c1.82,-65.19 63.27,-89.65 120.86,-100.26 19.27,-3.55 32.6,-3.55 51.87,0 58.46,10.78 114.68,36.3 117.2,103.68l0.01 0.3c-8.55,-58.81 -61.79,-82.04 -117.01,-92.23 -19.42,-3.58 -32.85,-3.58 -52.27,0 -54.19,9.99 -111.77,32.14 -120.66,88.5z"/>
   <path id="_273441984_0" class="fil5" d="M171.42 176.08c21.48,-12.42 47.68,-19.81 73.13,-24.51 19.27,-3.55 32.6,-3.55 51.87,0 25.88,4.77 51.33,12.44 71.87,25.35 -22.42,14.56 -57.88,23.96 -97.8,23.96 -40.68,0 -76.73,-9.76 -99.07,-24.8z"/>
   <g>
    <path id="_273441768" class="fil3" d="M390.52 195.33c13.52,14.97 22.15,34.46 23.11,59.93l2.24 59.7c-28.08,-31.98 -27.94,-88.61 -25.34,-119.62z"/>
    <path id="_273441696" class="fil3" d="M123.65 316.56l0 -61.74c0,-27.41 10.31,-47.81 26.48,-63.09 2.91,30.53 4.22,91.94 -26.48,124.84z"/>
   </g>
   <path id="_273441600" class="fil3" d="M365.29 487.43c-0.8,0.52 -1.61,1.03 -2.42,1.55 -59.79,37.92 -118.97,39.43 -179.5,1.67 -5.38,-3.35 -10.56,-6.76 -15.47,-10.13l-0 -0.13c0,0 89.87,56.17 197.39,7.05z"/>
   <path id="_273441528" class="fil3" d="M120.54 441.71c-0.44,-6.14 3.11,-87.77 3.11,-87.77l0 -7.53c13.61,9.5 40.99,38.68 44.28,50.52 3.28,11.84 -1.2,51.57 -2.6,87.51 -26.93,-18.45 -46.01,-36.33 -44.79,-42.72zm296.51 -95.14l0.28 7.37c0,0 3.56,81.62 3.11,87.77 1.22,6.39 -17.86,24.28 -44.79,42.73 -2.81,-33.58 -6.34,-76.18 -3.07,-87.98 3.27,-11.8 31.16,-37.44 44.47,-49.89z"/>
   <path id="_273441456" class="fil3" d="M207.41 256.62c0,0 58.64,18.65 134.59,-9.69 -42.46,24.8 -89.56,30.99 -134.59,9.69z"/>
   <path id="_273441384" class="fil3" d="M235.67 239.38c0,0 38.98,9.96 80.41,-5.24 0,0 -19.8,12.36 -41.67,12.99 -21.87,0.63 -38.74,-7.75 -38.74,-7.75z"/>
   <ellipse id="_273441312" class="fil5" transform="matrix(0.318033 -0.12274 0.0872372 0.447462 177.162 201.181)" rx="31.65" ry="11.77"/>
   <path id="_273441240" class="fil3" d="M382.5 254.43c4.41,-1.19 9.14,2.11 10.57,7.39 1.43,5.27 -0.99,10.52 -5.4,11.71 -4.41,1.19 -9.14,-2.11 -10.57,-7.39 -1.43,-5.27 0.99,-10.52 5.4,-11.71zm10.6 -12.77c2.04,-0.55 4.23,0.98 4.89,3.42 0.66,2.44 -0.46,4.87 -2.5,5.42 -2.04,0.55 -4.23,-0.98 -4.89,-3.42 -0.66,-2.44 0.46,-4.87 2.5,-5.42zm7.44 27.67c1.33,-0.36 2.77,0.64 3.2,2.24 0.43,1.6 -0.3,3.18 -1.63,3.55 -1.33,0.36 -2.77,-0.64 -3.2,-2.24 -0.43,-1.6 0.3,-3.18 1.63,-3.54z"/>
   <polygon id="_273441168" class="fil1" points="373.72,490.66 372.07,434.65 380.31,485.71 "/>
   <polygon id="_273441096" class="fil1" points="166.14,490.66 167.79,434.65 159.55,485.71 "/>
   <path id="_273441024" class="fil6" d="M323.67 161.43c0,0 -7.06,28.94 -60.24,29.88 0,0 20.71,-2.12 33.65,-18.59l7.53 -8.94 19.06 -2.35z"/>
   <path id="_273440952" class="fil6" d="M322.88 156.88c0.36,0.99 0.55,2 0.55,3.02 0,11.93 -25.18,21.6 -56.24,21.6 -31.05,0 -56.24,-9.67 -56.24,-21.6 0,-0.34 0.02,-0.67 0.06,-1 11.09,-3.34 22.5,-5.95 33.77,-8.02 19.27,-3.55 32.6,-3.55 51.87,0 8.85,1.63 17.65,3.61 26.23,6.01z"/>
   <path id="_273438192" class="fil5" d="M339 163.07c-4.04,15.14 -15.5,59.26 -12.77,62.77 2.7,3.47 26.23,-37.88 34.67,-52.99 -6.9,-3.74 -14.25,-6.97 -21.91,-9.78z"/>
   <path id="_273438120" class="fil5" d="M372.9 179.91c-9.74,14.75 -32.01,49.1 -30.62,53.07 1.39,4 34.34,-25.18 48.25,-37.74 -5.22,-5.91 -11.14,-10.99 -17.63,-15.33z"/>
   <path id="_273438048" class="fil5" d="M201.87 162.71c3.95,14.78 15.62,59.6 12.87,63.13 -2.75,3.54 -27.2,-39.59 -35.17,-53.89 7.09,-3.53 14.58,-6.58 22.31,-9.25z"/>
   <path id="_273437976" class="fil5" d="M166.49 179.21c8.76,13.51 32.82,51.17 31.33,55.31 -1.54,4.26 -38.79,-29.81 -50.47,-40.62 5.65,-5.73 12.09,-10.58 19.14,-14.68z"/>
   <circle id="_273437904" class="fil5" cx="332.35" cy="195.55" r="6.59"/>
   <circle id="_273437832" class="fil5" cx="322.25" cy="204.01" r="2.83"/>
   <circle id="_273437760" class="fil5" cx="168.73" cy="231.86" r="2.64"/>
   <circle id="_273437688" class="fil5" cx="164.62" cy="222.23" r="5.23"/>
   <circle id="_273437616" class="fil5" cx="211.76" cy="232.73" r="3.17"/>
   <circle id="_273437544" class="fil5" cx="373.09" cy="209.68" r="6.35"/>
   <circle id="_273437472" class="fil5" cx="369.33" cy="223.45" r="2.12"/>
   <path id="_273437400" class="fil1" d="M390.19 188.05c0,0 -4.24,25.41 0,55.53 0,0 2.35,-37.18 9.18,-51.53l-4.71 -3.76 -4.47 -0.24z"/>
   <path id="_273437328" class="fil1" d="M150.67 188.05c0,0 4.24,25.41 0,55.53 0,0 -2.35,-37.18 -9.18,-51.53l4.71 -3.76 4.47 -0.24z"/>
   <g>
    <path id="_273440880" class="fil1" d="M225.9 130.88c0,0 -34.39,-13.12 -56.31,-36.65 0,0 20.84,16.09 57.19,27.84l2.32 4.7c0,0 -3.09,3.88 -3.2,4.11z"/>
    <path id="_273440808" class="fil1" d="M178 75.17c0,0 20.59,-33.41 23.91,-60.47 0,0 0.89,26.82 -9.52,51.06 -10.4,24.24 -13.67,13.09 -14.39,9.41z"/>
    <path id="_273440736" class="fil1" d="M464.21 69.04c0,0 12.6,16.62 30.94,30.71 0,0 -14.92,-7.05 -25.85,-16.68 -10.94,-9.63 -5.09,-14.04 -5.09,-14.04z"/>
    <path id="_273440664" class="fil1" d="M508.68 111.15c0,0 13.79,11.41 32.24,29.23 -8.62,-11.2 -18.98,-23.94 -22.51,-27.6 -3.53,-3.65 -9.73,-1.64 -9.73,-1.64z"/>
    <path id="_273440592" class="fil1" d="M225.71 131.32c0,0 -42.76,-33.2 -49.4,-44.51 -6.65,-11.3 38.11,-65.94 54.95,-77.72 0,0 40.77,12.48 77.54,9.66 0,0 42.98,81.37 148,47.46 0,0 4.11,-1.56 7.43,2.67 3.32,4.24 17.96,28.99 38.05,43.81 0,0 13.74,-6.01 18.63,-7.94 1.34,0.76 20.07,22.18 20.07,22.18l-19 -7.07c0,0 -19.04,13.95 -25.07,16.42 -5.7,-0.64 -37.83,-18.7 -47.12,-19.88 -9.3,-1.18 -44.11,12.07 -48.32,12.89 -4.2,0.82 -37.96,11.76 -72.05,-20.94l-20.7 17.99c0,0 -13.83,7.65 -83.01,4.98z"/>
    <path id="_273440520" class="fil7" d="M228.55 123.95c0,0 -32.92,-23.84 -45.63,-41.22 0,0 11.9,-28.03 49.98,-64.03 0,0 37.3,10.47 73.32,7.54 0,0 47.54,85.05 148.93,47.4 3.79,-1.16 5.75,1.26 7.65,4.01 6.23,9.02 12.95,35.61 34.21,44.92l1.75 0.57c0,0 9.74,-5.44 21.58,-12.7l8.64 7.26 -7.87 -3.28c0,0 -16.35,11.59 -23.61,15.86 0,0 -26.51,-13.76 -40.14,-20.2 -4.22,-2 -7.57,-2.47 -12.13,-1.41 -20.03,4.65 -39.45,15.09 -59.56,15.61 -16.18,0.42 -34.9,-4.42 -52.03,-22.52l-2.54 -3.71 -29.83 25.78c0,0 -12.88,8.11 -36.69,7.96 -10.05,-0.06 -22.75,-1.18 -36,-7.84l0 0z"/>
    <path id="_273440376" class="fil8" d="M223.51 100.9l-8.59 -22.7c0,0 9.77,16.75 19.6,26.26l-4.42 2.58 -6.59 -6.14z"/>
    <path id="_273440304" class="fil9" d="M350.63 68.97c24.38,13.75 59.03,21.56 104.52,4.67 0.23,-0.07 0.45,-0.12 0.66,-0.17 -10.93,6.38 -58.67,30.49 -105.18,-4.5z"/>
    <path id="_273440232" class="fil8" d="M198.81 92.11c0,0 16.47,22.35 27.66,30.35 0,0 26.39,14.35 72.01,4.71l37.8 -38.12c0,0 -60.81,31.06 -137.46,3.06z"/>
    <path id="_273440160" class="fil8" d="M311.28 64.53c0,0 -18.84,40.9 -23.33,49.9l8.25 4.05c0,0 7.85,-26.85 15.08,-53.95z"/>
    <path id="_273440088" class="fil9" d="M183.26 83.18c-0.11,-0.15 -0.23,-0.3 -0.34,-0.45 0,0 11.9,-28.03 49.98,-64.03 0,0 37.3,10.47 73.32,7.54 0,0 9.87,17.65 30.2,33.32 -18.47,-9.38 -35.13,-24.85 -35.13,-24.85 -37.27,5.88 -66.41,-0.24 -66.41,-0.24 -26.64,20.44 -47.85,44.35 -51.64,48.71z"/>
    <path id="_273440016" class="fil8" d="M497.73 122.86l0.96 0.32c0,0 9.74,-5.44 21.58,-12.7l8.64 7.26 -7.87 -3.28c0,0 -16.35,11.59 -23.61,15.86 0,0 -26.46,-13.79 -40.08,-20.23 -4.22,-2 -7.57,-2.47 -12.13,-1.41 -20.03,4.65 -39.45,15.09 -59.56,15.61 -16.18,0.42 -34.9,-4.42 -52.03,-22.52l-0.7 -1.02c6.62,-7.37 13.5,-14.87 14.96,-15.9 0,0 29.8,27.04 100.41,10.8 0,0 15.64,18.34 49.45,27.21z"/>
    <path id="_273439944" class="fil1" d="M319.32 108.01c0,0 30.6,-26.16 31.6,-26.87 0.99,-0.7 -22.1,27.48 -22.1,27.48l-9.5 -0.62z"/>
    <path id="_273439872" class="fil1" d="M309.05 19.41c0,0 21.91,25.64 59.77,31.76 0,0 -34.09,3.29 -54.9,-16l-4.82 -7.29 -0.04 -8.47z"/>
    <path id="_273439800" class="fil1" d="M399.81 129.53c0,0 36.08,-6.59 52.02,-3.06 0,0 -14.9,-7.33 -37.33,-6.39l-12.82 5.17 -1.87 4.29z"/>
    <path id="_273439152" class="fil1" d="M331.29 102.7c0,0 26.07,20.44 58.56,14.92 0,0 -26.85,0.59 -55.24,-19.85l-2.25 1.4 -1.06 3.53z"/>
    <path id="_273439080" class="fil1" d="M214.76 77.88c0,0 10.4,38.59 19.7,51.53l10.18 0.47c0,0 -15.72,-19.29 -29.88,-52z"/>
    <path id="_273439008" class="fil1" d="M323.61 86.4c0,0 -19.46,34.4 -31.6,44.34l-9.95 -2.35c0,0 19.89,-14.3 41.55,-41.99z"/>
    <path id="_273438936" class="fil1" d="M289.79 61.05c0,0 -8.63,48.24 -19.26,68.47l9.3 0.24c0,0 7.08,-16.24 9.96,-68.71z"/>
    <path id="_273438864" class="fil9" d="M227.68 31.95c0,0 7.66,30.71 20.78,51.9 0,0 -6.25,-21.18 -9.96,-58.46l-1.45 -0.23 -9.38 6.79z"/>
    <path id="_273438792" class="fil9" d="M218.79 41.56c0,0 -0.5,15.79 3.92,36.57 0,0 -5.23,-10.46 -10.17,-33.2l1.56 -2.63 4.69 -0.74z"/>
    <path id="_273438720" class="fil9" d="M283.79 35.4c0,0 -0.77,23.25 -2.76,33.94 0,0 6.74,-18.32 9.94,-34.53l-5.52 -2.82 -1.66 3.41z"/>
    <path id="_273438648" class="fil8" d="M273.19 45.85c0,0.82 -2.65,35.12 -7.84,54.49 0,0 8.29,-14.21 9.72,-24.78 1.44,-10.57 -1.88,-29.71 -1.88,-29.71z"/>
    <path id="_273438576" class="fil7" d="M451.16 94c0,0 -20.81,18.35 -75.48,10.12 0,0 34.31,1.41 52.02,-9.65l6.69 -1.64 16.78 1.17z"/>
    <path id="_273438504" class="fil9" d="M451.95 75.8c0,0 -37.01,24.55 -83.75,12.8 0,0 25.08,2.47 44.19,-3.76l7.95 -0.94 31.6 -8.1z"/>
    <polygon id="_273438432" class="fil7" points="226.4,94.88 243.86,118.25 235.79,96.41 "/>
    <path id="_273438360" class="fil8" d="M432.89 102.52c0,0 14.13,-2.52 25.35,-22.37 0,0 -1.83,9.76 -7.25,17.34 0,0 5.15,-2.36 9.68,-7.71 0,0 -3.09,12.68 -15.36,17.26 -12.26,4.58 -12.43,-4.52 -12.43,-4.52z"/>
    <polygon id="_273438288" class="fil1" points="260.65,130.53 264.28,107.51 266.12,131.23 "/>
   </g>
   <g>
    <path id="_273439728" class="fil1" d="M222.55 121.76l-9.41 37.16c6.99,23.69 100.31,20.16 106.36,0l-9.41 -37.16c-23.06,8.81 -64.48,8.81 -87.54,0z"/>
    <path id="_273439656" class="fil10" d="M228.81 130.96l-6.99 27.61c2.29,3.77 9.83,6.27 13.32,7.23 9.81,2.69 21.2,3.41 31.34,3.23 10.24,-0.18 21.53,-1.3 31.39,-4.14 2.69,-0.77 10.6,-3.42 12.92,-6.45l-6.96 -27.47c-21.58,6.23 -53.45,6.23 -75.03,0z"/>
    <path id="_273439584" class="fil11" d="M234.63 165.65l0.51 0.14c2.2,0.6 4.48,1.11 6.81,1.52 43.44,-1.95 60.75,-16.75 65.53,-21.95l-1.08 -4.27c-19.77,18.17 -58.88,23.32 -71.77,24.56z"/>
    <path id="_273439512" class="fil11" d="M228.5 132.17l-6.69 26.4c0.58,0.95 1.49,1.82 2.58,2.6l6 -21.36c23.37,13.98 54.96,12.33 54.96,12.33l2 0 0 -1.76c-31.05,-2.29 -52.9,-14.53 -58.85,-18.21z"/>
    <path id="_273439440" class="fil12" d="M228.81 130.96l-0.11 0.43c26.3,20.1 62.65,19.21 62.65,19.21l5.28 -2.7c-24.45,-2.46 -42.61,-9.3 -52.23,-13.73 -5.55,-0.77 -10.82,-1.84 -15.59,-3.22z"/>
    <path id="_273439368" class="fil12" d="M227.35 162.91c2.08,1.03 4.33,1.84 6.13,2.4 16.14,-1.55 54.44,-6.97 72.89,-24.33l-1.59 -6.29c-3.91,3.62 -25.64,21.63 -77.43,28.22z"/>
    <path id="_273439296" class="fil1" d="M229.8 130.88c9.19,6.5 27.96,15.57 63.18,18.45 -1.47,0.93 -3,1.85 -4.57,2.75 -19.15,-1.52 -42.81,-6.16 -61.21,-18.6l0.79 -3.11c0.6,0.17 1.21,0.34 1.82,0.5z"/>
    <path id="_273439224" class="fil1" d="M306.85 138.18c-4.43,4.96 -23.91,22.52 -79.81,25.43 2.64,1.22 5.41,2.09 7.18,2.57l0.29 0.08c22.3,-1.21 52.41,-6.34 73.52,-23.44l-1.18 -4.65z"/>
   </g>
  </g>
 </g>
</svg>
