<?xml version="1.0" encoding="UTF-8"?>
<!DOCTYPE svg PUBLIC "-//W3C//DTD SVG 1.1//EN" "http://www.w3.org/Graphics/SVG/1.1/DTD/svg11.dtd">
<!-- Creator: CorelDRAW 2020 (64-Bit) -->
<svg xmlns="http://www.w3.org/2000/svg" xml:space="preserve" width="129.436mm" height="197.989mm" version="1.1" style="shape-rendering:geometricPrecision; text-rendering:geometricPrecision; image-rendering:optimizeQuality; fill-rule:evenodd; clip-rule:evenodd"
viewBox="0 0 787.1 1203.97"
 xmlns:xlink="http://www.w3.org/1999/xlink"
 xmlns:xodm="http://www.corel.com/coreldraw/odm/2003">
 <defs>
  <style type="text/css">
   <![CDATA[
    .fil0 {fill:none}
    .fil6 {fill:#4B3446}
    .fil1 {fill:#501D33}
    .fil5 {fill:#634C54}
    .fil7 {fill:#896E6B}
    .fil3 {fill:#8E7A5D}
    .fil2 {fill:#C3C077}
    .fil4 {fill:#E4F6A3}
   ]]>
  </style>
 </defs>
 <g id="Слой_x0020_1">
  <metadata id="CorelCorpID_0Corel-Layer"/>
  <g id="_1746377768016">
   <g id="_269920056">
    <rect id="_273435216" class="fil0" y="0" width="787.1" height="1203.97"/>
    <path id="_273429240" class="fil1" d="M160.95 643.16c-0.1,-2.47 -0.01,-5.07 0.04,-7.5 0.09,-4.98 0.24,-9.96 0.4,-14.94 0.43,-13.88 0.96,-27.75 1.5,-41.62 0.84,-21.41 1.72,-42.83 2.65,-64.24l0 -144.73c0,-104.5 93.64,-146.01 187.55,-163.33 29.28,-5.4 51.63,-5.4 80.91,0 65.28,12.03 123.75,35.08 155.92,81.66 4.3,6.23 4.59,8.52 0.68,15.06 -1.4,2.35 -2.54,4.3 -2.3,4.48 0.28,0.22 3.34,0.29 6.67,0.54 6.69,0.52 7.6,1.47 10.07,7.46 6.66,16.15 10.32,33.59 11.09,54.31l5.41 144.31c0.94,21.49 1.82,42.97 2.66,64.46 0.54,13.87 1.07,27.75 1.5,41.62 0.16,4.98 0.3,9.96 0.4,14.94 0.04,2.42 0.14,5.03 0.04,7.49 0.53,7.17 -3.62,14 -7.97,19.59 -5.45,7.01 -12.33,13.59 -19.02,19.54 -18.95,16.86 -40.87,32.31 -62.45,46 -93.66,59.4 -187.67,61.56 -282.27,2.55 -22.53,-14.06 -45.39,-30 -65.2,-47.4 -7,-6.15 -14.2,-12.95 -19.93,-20.19 -4.5,-5.7 -8.9,-12.72 -8.36,-20.08l-0 -0z"/>
    <path id="_273429168" class="fil2" d="M175.38 642.67c-0.65,-8.94 4.53,-127.7 4.53,-127.7l0 -144.22c0,-98.11 90.86,-134.54 175.91,-150.22 28.03,-5.17 47.43,-5.17 75.46,0 85.06,15.68 166.85,52.81 170.53,150.86l5.39 143.58c0,0 5.18,118.76 4.53,127.7 2.03,10.66 -34.75,43.32 -83.09,73.97 -88.68,56.25 -176.46,58.48 -266.23,2.48 -50.26,-31.35 -89.12,-65.5 -87.03,-76.45l-0 0z"/>
    <g>
     <path id="_273429096" class="fil3" d="M568.19 284.2c19.67,21.78 32.23,50.13 33.62,87.19l3.26 86.86c-40.85,-46.52 -40.65,-128.92 -36.88,-174.05z"/>
     <path id="_273429024" class="fil3" d="M179.9 460.59l0 -89.84c0,-39.87 15,-69.56 38.53,-91.8 4.23,44.42 6.15,133.77 -38.53,181.64z"/>
    </g>
    <polygon id="_273428928" class="fil4" points="590.75,317.42 554.35,343.57 499.33,362.53 574.86,316.57 "/>
    <path id="_273428856" class="fil3" d="M531.49 709.2c-1.17,0.75 -2.34,1.5 -3.52,2.25 -87,55.18 -173.1,57.37 -261.17,2.43 -7.82,-4.88 -15.36,-9.83 -22.5,-14.74l-0.01 -0.19c0,0 130.75,81.73 287.2,10.25z"/>
    <path id="_273428784" class="fil3" d="M175.38 642.67c-0.65,-8.94 4.53,-127.7 4.53,-127.7l0 -10.96c19.8,13.82 59.64,56.27 64.42,73.5 4.78,17.23 -1.75,75.04 -3.78,127.32 -39.19,-26.84 -66.95,-52.86 -65.17,-62.16zm431.42 -138.42l0.4 10.72c0,0 5.18,118.76 4.53,127.7 1.77,9.3 -25.99,35.33 -65.18,62.16 -4.09,-48.85 -9.22,-110.84 -4.46,-128.01 4.76,-17.17 45.33,-54.48 64.71,-72.58l0 0z"/>
    <path id="_273428712" class="fil3" d="M273.1 349.98c-2.84,-6.01 -10.97,-8.12 -18.15,-4.73 -7.19,3.39 -10.71,11.02 -7.87,17.02 2.84,6.01 10.97,8.13 18.15,4.73 7.19,-3.39 10.71,-11.02 7.87,-17.02zm4.14 -23.79c-1.31,-2.78 -5.08,-3.76 -8.4,-2.19 -3.33,1.57 -4.96,5.1 -3.65,7.88 1.31,2.78 5.08,3.76 8.41,2.19 3.33,-1.57 4.96,-5.1 3.65,-7.88zm-37.67 17.87c-0.86,-1.82 -3.32,-2.46 -5.5,-1.43 -2.18,1.03 -3.24,3.34 -2.38,5.15 0.86,1.82 3.32,2.46 5.5,1.43 2.18,-1.03 3.24,-3.34 2.38,-5.15z"/>
    <polygon id="_273428640" class="fil1" points="543.75,713.89 541.36,632.41 553.34,706.7 "/>
    <polygon id="_273428568" class="fil1" points="241.73,713.89 244.12,632.41 232.14,706.7 "/>
    <path id="_273428496" class="fil1" d="M219.9 270.88c0,0 6.16,30.53 0,66.71 0,0 -3.42,-44.66 -13.35,-61.9l6.85 -4.52 6.5 -0.28z"/>
    <path id="_273428424" class="fil3" d="M553.44 270.1c3.94,3.14 4.68,4.13 4.68,4.13 -21.91,16.09 -43.45,45.07 -43.45,45.07 -5.98,-16.95 -2.62,-25.17 -2.62,-25.17 -27.77,26.04 -36.24,75.66 -36.24,75.66 -16.94,-10.1 -26.87,-26.36 -26.87,-26.36 -11.3,32.87 -45.02,49.31 -45.02,49.31 -4.79,-36.12 -14.12,-52.57 -14.12,-52.57 -8.56,27.58 -24.4,39.05 -24.4,39.05 -7.87,-33.89 -39.2,-68.64 -39.2,-68.64 -7.19,16.78 -33.13,32.41 -33.13,32.41 -5.45,-41.36 -31.54,-72.47 -51.3,-83.27 30.58,-16.89 78.38,-32.59 114.05,-39.17 28.03,-5.17 47.43,-5.17 75.46,0 45.46,8.38 89.99,22.9 122.16,49.56l-0 0z"/>
    <path id="_273422112" class="fil1" d="M512.15 264.79c0,0 -16.51,20.08 -13.77,63.22 0,0 4.11,-30.13 20.88,-56.49l-0.62 -7.58 -6.49 0.85z"/>
    <path id="_273422040" class="fil1" d="M318.03 296.4c0,0 14.35,15.38 16.92,42.04 0,0 7.66,-23.11 -3.29,-50.84 -10.96,-27.73 -15.16,1.63 -13.62,8.81z"/>
    <path id="_273421968" class="fil1" d="M497.03 191.59c34.58,3.47 62.73,33.27 57.52,70.35 -21.91,16.09 -39.37,39.54 -39.37,39.54 -5.98,-16.95 -2.62,-25.17 -2.62,-25.17 -27.77,26.04 -36.24,75.66 -36.24,75.66 -16.94,-10.1 -26.87,-26.36 -26.87,-26.36 -11.3,32.87 -45.02,49.31 -45.02,49.31 -4.79,-36.12 -14.12,-52.57 -14.12,-52.57 -8.56,27.58 -24.4,39.05 -24.4,39.05 -7.87,-33.89 -39.2,-68.64 -39.2,-68.64 -7.19,16.78 -33.13,32.41 -33.13,32.41 -3.99,-30.24 -20.81,-61.23 -57.25,-65.28 -3.04,-48.65 31.54,-91.04 85.59,-84.56 0,0 33.74,-35.95 88.16,-13.52 0,0 58.88,-7.19 86.95,29.78l-0 0z"/>
    <path id="_273421896" class="fil5" d="M250.2 250.61c-0.38,-7.01 0.91,-14.01 4.61,-21.02 0,0 13.95,7.28 26.49,22.76 -11.42,-20.25 -24.42,-31.82 -24.42,-31.82 0,0 15.23,-33.56 54.77,-32.87 39.54,0.69 62.65,43.48 62.65,43.48 -13.35,-39.03 -38.61,-51.54 -38.61,-51.54 29.2,-20.52 57.11,-15.94 82.8,7.03 26.48,23.68 39,58.54 39,58.54 -8.56,-45.19 -39.03,-72.07 -39.03,-72.07 80.81,-3.42 84.22,62.48 84.22,62.48 0.68,-25.33 -3,-33.3 -3,-33.3 45.72,10.81 46.52,56.25 46.52,56.25 -10.94,6.84 -25.46,24.95 -25.46,24.95 0.51,-9.91 3.93,-24.95 3.93,-24.95l-1.79 0.33c-40.06,17.8 -51.52,76.91 -51.52,76.91 -11.28,-11.62 -15.72,-25.8 -15.72,-25.8 3.59,-12.13 3.22,-30.22 3.22,-30.22 -17.12,56.15 -46.22,76.69 -46.22,76.69 -0.34,-25.68 -18,-50.23 -18,-50.23 2.05,-11.28 -3.93,-29.22 -3.93,-29.22 -3.93,37.76 -18.46,60.96 -18.46,60.96 -29.1,-55.12 -67.1,-75.32 -67.1,-75.32 12.32,9.59 15.75,18.15 15.75,18.15 -5.14,15.06 -19.51,25.5 -19.51,25.5 -6.45,-26.6 -24.27,-47.1 -51.18,-55.68l-0 0z"/>
    <path id="_273421824" class="fil6" d="M471.67 334.36c-0.21,0.92 -0.3,1.42 -0.3,1.42 -11.28,-11.62 -15.72,-25.8 -15.72,-25.8 3.13,-10.58 3.25,-25.7 3.23,-29.39 0.39,2.48 4.81,30.14 12.8,53.77z"/>
    <path id="_273421752" class="fil6" d="M412.64 356.44c-0.34,-25.67 -18,-50.22 -18,-50.22 1.77,-9.74 -2.45,-24.46 -3.63,-28.28 2.82,2.45 38.93,35.04 21.64,78.51z"/>
    <path id="_273421680" class="fil7" d="M260.94 224.57c-2.51,-2.65 -4.07,-4.05 -4.07,-4.05 0,0 15.23,-33.56 54.77,-32.87 31.84,0.55 53.02,28.4 60.07,39.23l1.71 3.19c-59.12,-57.64 -101.89,-17.54 -112.48,-5.51zm82.47 -39.74c-4.62,-3.69 -7.73,-5.24 -7.73,-5.24 29.2,-20.52 57.11,-15.94 82.8,7.03 18.1,16.19 29.68,37.6 35.19,49.53 -36.65,-62.5 -94.29,-54.87 -110.27,-51.33zm82.74 -3.68c-4.55,-5.26 -7.7,-8.04 -7.7,-8.04 70.92,-3 82.23,47.39 83.93,59.77 -15.95,-46.41 -63.1,-51.28 -76.23,-51.73l-0 0zm75.8 32.06c-0.91,-7.98 -2.27,-10.92 -2.27,-10.92 45.72,10.81 46.52,56.25 46.52,56.25l-0.18 0.11 -0.05 -0.16c-10.21,-33.94 -37.48,-43.46 -44.02,-45.29z"/>
    <path id="_273421608" class="fil6" d="M250.2 250.61c-0.38,-7.01 0.91,-14.01 4.61,-21.02 0,0 13.95,7.28 26.49,22.76 -0.28,-0.49 -0.55,-0.97 -0.83,-1.45 10.21,14.13 19.88,33.06 21.22,55.15l-0.31 0.24c-6.45,-26.6 -24.27,-47.1 -51.18,-55.68z"/>
    <path id="_273421536" class="fil1" d="M550.08 260.01c0,0 -13.18,10.82 -19,42.66 0,0 11.98,-21.91 29.1,-37.66l-5.15 -4.32 -4.96 -0.68z"/>
    <path id="_273421464" class="fil1" d="M240.93 259.18c0,0 27.73,18.15 28.07,57.86 0,0 11.3,-27.05 -7.87,-59.23 0,0 -7.52,-1.39 -8.54,-1.39 -1.03,0 -11.66,2.76 -11.66,2.76z"/>
    <path id="_273421392" class="fil6" d="M426.49 216.39c0,0 55.46,58.89 -9.93,131.47 17.94,-39.72 20.71,-87.94 9.93,-131.47z"/>
    <path id="_273421320" class="fil6" d="M471.99 316.91c0,0 13.73,-49.17 51.39,-61.49 0,0 -27.8,-3.28 -41.13,12.27 -13.33,15.55 -10.26,49.22 -10.26,49.22l-0 0z"/>
    <path id="_273421248" class="fil6" d="M312.14 260.89c0,0 38,21.91 58.54,65.39 0,0 24.31,-41.43 2.74,-91.07 0,0 1.17,29.4 -9.6,50.76 0,0 -14.09,-15.69 -51.69,-25.09l0 0z"/>
    <path id="_273421176" class="fil6" d="M359.44 291.45c0,0 -5.15,-23.98 -36.34,-39.46 0,0 31.19,5.63 44.32,29.08l-0.14 9.44 -7.84 0.94z"/>
    <path id="_273421104" class="fil7" d="M260.96 224.81c0,0 41.01,-25.46 88.34,-0.34 0,0 -23.24,-25.63 -68.86,-19.31l-11.28 7.52c0,0 -7.18,7.01 -8.2,12.13l-0 0z"/>
    <path id="_273421032" class="fil7" d="M368.63 182.49c0,0 29.44,3.42 47.93,46.22 0,0 -1.03,-31.15 -25.33,-51.7l-13.9 -0.4 -8.7 5.87z"/>
    <path id="_273420960" class="fil7" d="M342.98 184.73c0,0 37.79,15.94 57.89,68.36 0,0 3.82,-38.78 -30.11,-72.6l-15.87 -0.3 -11.91 4.53z"/>
    <path id="_273420888" class="fil7" d="M447.72 184.2c0,0 23.97,16.43 28.07,63.34 0,0 7.53,-30.47 -3.42,-57.17l-15.58 -7.6 -9.07 1.43z"/>
    <path id="_273420816" class="fil1" d="M596.33 314.88l-100.06 49.34c0,0 85.67,-67.16 89.09,-67.16 1.74,0 -0.74,7.15 1.6,11.67 2.26,4.38 9.37,6.15 9.37,6.15z"/>
    <path id="_273420744" class="fil1" d="M508.65 334.18c-0.71,0.94 16.05,11.31 22.37,13.32 6.32,2.01 23.99,2.58 23.32,1.41 0,0 -6.85,-8.3 -19.39,-13.19 -3.55,-1.38 -24.42,-3.93 -26.3,-1.54z"/>
    <path id="_273420672" class="fil1" d="M558.51 295.48c-1.17,-0.13 -1.57,19.57 -0.08,26.04 1.49,6.47 9.99,21.96 10.66,20.79 0,0 3.66,-10.12 1.48,-23.4 -0.62,-3.76 -9.04,-23.03 -12.06,-23.43z"/>
    <path id="_273420600" class="fil1" d="M588.43 345.46c3.4,0 6.16,2.76 6.16,6.16 0,3.4 -2.76,6.16 -6.16,6.16 -3.4,0 -6.16,-2.76 -6.16,-6.16 0,-3.4 2.76,-6.16 6.16,-6.16zm-24.14 -0.68c2.55,0 4.62,2.07 4.62,4.62 0,2.55 -2.07,4.62 -4.62,4.62 -2.55,0 -4.62,-2.07 -4.62,-4.62 0,-2.55 2.07,-4.62 4.62,-4.62zm19 65.73c3.21,0 5.82,2.61 5.82,5.82 0,3.21 -2.61,5.82 -5.82,5.82 -3.21,0 -5.82,-2.61 -5.82,-5.82 0,-3.21 2.61,-5.82 5.82,-5.82zm11.56 -16.03c2.26,0 4.1,1.84 4.1,4.1 0,2.26 -1.84,4.1 -4.1,4.1 -2.26,0 -4.1,-1.84 -4.1,-4.1 0,-2.26 1.84,-4.1 4.1,-4.1zm-15.12 -20.16c2.22,0 4.02,1.8 4.02,4.02 0,2.22 -1.8,4.02 -4.02,4.02 -2.22,0 -4.02,-1.8 -4.02,-4.02 0,-2.22 1.8,-4.02 4.02,-4.02z"/>
    <path id="_273420528" class="fil1" d="M251.65 283.42c1.46,0 2.65,1.19 2.65,2.65 0,1.46 -1.19,2.65 -2.65,2.65 -1.46,0 -2.65,-1.19 -2.65,-2.65 0,-1.46 1.19,-2.65 2.65,-2.65zm-47.52 144.89c1.61,0 2.91,1.3 2.91,2.91 0,1.61 -1.3,2.91 -2.91,2.91 -1.61,0 -2.91,-1.3 -2.91,-2.91 0,-1.61 1.3,-2.91 2.91,-2.91zm-0.79 -109.49c-3.39,-0.27 -6.36,2.26 -6.63,5.65 -0.27,3.39 2.26,6.36 5.65,6.63 3.39,0.27 6.36,-2.26 6.64,-5.65 0.27,-3.39 -2.26,-6.36 -5.65,-6.63zm24.11 1.24c-2.54,-0.2 -4.77,1.69 -4.98,4.24 -0.2,2.54 1.69,4.77 4.24,4.98 2.54,0.2 4.77,-1.7 4.98,-4.24 0.2,-2.54 -1.69,-4.77 -4.24,-4.98zm-24.19 64.01c-3.2,-0.26 -6.01,2.13 -6.27,5.34 -0.26,3.2 2.13,6.01 5.34,6.27 3.2,0.26 6.01,-2.13 6.27,-5.34 0.26,-3.2 -2.13,-6.01 -5.34,-6.27zm-10.25 -16.9c-2.26,-0.18 -4.23,1.5 -4.42,3.76 -0.18,2.26 1.5,4.23 3.76,4.42 2.26,0.18 4.23,-1.5 4.41,-3.76 0.18,-2.26 -1.5,-4.23 -3.76,-4.42zm16.68 -18.89c-2.21,-0.18 -4.15,1.47 -4.32,3.68 -0.18,2.21 1.47,4.15 3.68,4.32 2.21,0.18 4.15,-1.47 4.32,-3.68 0.18,-2.21 -1.47,-4.15 -3.68,-4.32zm-21.32 60.17c2.93,0 5.31,2.38 5.31,5.31 0,2.93 -2.38,5.31 -5.31,5.31 -2.93,0 -5.31,-2.38 -5.31,-5.31 0,-2.93 2.38,-5.31 5.31,-5.31zm47.38 -112.73c2.22,0 4.02,1.8 4.02,4.02 0,2.22 -1.8,4.02 -4.02,4.02 -2.22,0 -4.02,-1.8 -4.02,-4.02 0,-2.22 1.8,-4.02 4.02,-4.02zm-0.68 -21.02c2.41,0 4.36,1.95 4.36,4.36 0,2.41 -1.95,4.36 -4.36,4.36 -2.41,0 -4.36,-1.95 -4.36,-4.36 0,-2.41 1.95,-4.36 4.36,-4.36z"/>
   </g>
  </g>
 </g>
</svg>
