<?xml version="1.0" encoding="UTF-8"?>
<!DOCTYPE svg PUBLIC "-//W3C//DTD SVG 1.1//EN" "http://www.w3.org/Graphics/SVG/1.1/DTD/svg11.dtd">
<!-- Creator: CorelDRAW 2020 (64-Bit) -->
<svg xmlns="http://www.w3.org/2000/svg" xml:space="preserve" width="129.436mm" height="197.988mm" version="1.1" style="shape-rendering:geometricPrecision; text-rendering:geometricPrecision; image-rendering:optimizeQuality; fill-rule:evenodd; clip-rule:evenodd"
viewBox="0 0 879.56 1345.4"
 xmlns:xlink="http://www.w3.org/1999/xlink"
 xmlns:xodm="http://www.corel.com/coreldraw/odm/2003">
 <defs>
  <style type="text/css">
   <![CDATA[
    .fil0 {fill:none}
    .fil9 {fill:#4B3446}
    .fil1 {fill:#501D33}
    .fil8 {fill:#634C54}
    .fil7 {fill:#707074}
    .fil10 {fill:#896E6B}
    .fil4 {fill:#8E7A5D}
    .fil5 {fill:#8F8F7E}
    .fil6 {fill:#B7B7A3}
    .fil2 {fill:#C3C077}
    .fil3 {fill:#E0E28A}
   ]]>
  </style>
 </defs>
 <g id="Слой_x0020_1">
  <metadata id="CorelCorpID_0Corel-Layer"/>
  <g id="_2810198908624">
   <rect id="_273923616" class="fil0" width="879.56" height="1345.4"/>
   <g>
    <path id="_273442056" class="fil1" d="M179.86 718.71c-0.11,-2.76 -0.01,-5.67 0.04,-8.38 0.1,-5.57 0.27,-11.13 0.44,-16.7 0.48,-15.51 1.07,-31.01 1.68,-46.51 0.94,-23.93 1.92,-47.86 2.97,-71.79l0 -161.74c0,-116.78 104.64,-163.16 209.58,-182.51 32.72,-6.03 57.69,-6.03 90.42,0 106.84,19.7 199.22,68.01 203.52,182.73l6.05 161.27c1.05,24.01 2.04,48.02 2.98,72.04 0.61,15.5 1.19,31.01 1.68,46.51 0.17,5.56 0.34,11.13 0.44,16.7 0.05,2.71 0.16,5.62 0.04,8.38 0.59,8.01 -4.05,15.64 -8.91,21.89 -6.09,7.83 -13.78,15.19 -21.25,21.84 -21.18,18.84 -45.67,36.11 -69.78,51.4 -104.66,66.38 -209.72,68.79 -315.43,2.85 -25.18,-15.71 -50.73,-33.52 -72.86,-52.97 -7.82,-6.87 -15.87,-14.47 -22.27,-22.57 -5.03,-6.37 -9.94,-14.22 -9.34,-22.44z"/>
    <path id="_273441984" class="fil2" d="M195.98 718.17c-0.72,-9.99 5.06,-142.7 5.06,-142.7l0 -161.16c0,-109.64 101.53,-150.34 196.58,-167.86 31.33,-5.78 53,-5.78 84.33,0 95.05,17.52 186.45,59.02 190.56,168.58l6.02 160.44c0,0 5.78,132.71 5.06,142.7 2.27,11.92 -38.84,48.41 -92.85,82.66 -99.1,62.85 -197.19,65.35 -297.51,2.77 -56.16,-35.03 -99.59,-73.19 -97.25,-85.43z"/>
    <path id="_273441840" class="fil3" d="M201.11 409.46c2.95,-105.99 102.87,-145.75 196.51,-163.02 31.33,-5.78 53,-5.78 84.33,0 95.05,17.52 186.45,59.02 190.56,168.58l0.02 0.49c-13.9,-95.61 -100.46,-133.39 -190.25,-149.95 -31.57,-5.82 -53.41,-5.82 -84.99,0 -88.1,16.24 -181.72,52.25 -196.18,143.89z"/>
    <path class="fil4" d="M431.88 322.72c-0.07,-0 -8.17,8.06 -18.5,3.82 -12.39,-5.08 -55.51,-0.19 -89.8,28.7 0,0 18.27,-35.9 65.72,-46.85 47.45,-10.95 42.59,14.32 42.59,14.32z"/>
    <g>
     <path id="_273441768" class="fil4" d="M634.94 317.59c21.98,24.34 36.01,56.02 37.57,97.44l3.64 97.06c-45.65,-51.99 -45.43,-144.06 -41.21,-194.5z"/>
     <path id="_273441696" class="fil4" d="M201.04 514.7l0 -100.39c0,-44.56 16.77,-77.73 43.06,-102.58 4.73,49.64 6.87,149.48 -43.06,202.97z"/>
    </g>
    <path id="_273441984_0" class="fil5" d="M239.54 315.78c38.23,-38.99 99.6,-58.55 158.08,-69.33 31.33,-5.78 53,-5.78 84.33,0 48.71,8.98 96.47,24.26 132,51.77 -33.05,-12.23 -72.98,15.6 -135.61,42.29 -18.23,7.77 -32.81,16.25 -47.35,16.47 -15.86,0.24 -32.22,-6.93 -52.21,-14.83 -46.84,-18.51 -93.12,-37 -139.23,-26.37z"/>
    <path id="_273441984_1" class="fil6" d="M393.04 247.31l0.42 -0.08c1.39,-0.27 2.77,-0.53 4.16,-0.78 15.66,-2.89 28.91,-4.33 42.16,-4.33l1.24 0 0 0 1.24 0.01 0 0 1.24 0.02 0 0 1.24 0.03 0 0 1.25 0.04 0 0 1.25 0.05 0 0 1.25 0.05 0 0 1.25 0.06 0 0 1.26 0.07 0 0 1.26 0.08 0 0 1.27 0.09 0 0 1.27 0.1 0 0 1.28 0.11 0 0 1.28 0.11 0 0 1.29 0.12 0 0 1.29 0.13 0 0 1.3 0.14 0 0 1.31 0.15 0 0 1.32 0.16 0 0 1.33 0.16 0 0c0.44,0.06 0.89,0.11 1.33,0.17l0 0 1.34 0.18 0 0 1.35 0.19 0 0 1.36 0.2 0 0 1.37 0.21 0 0 1.38 0.21 0 0 1.4 0.22 0 0 1.41 0.23 0 0 1.42 0.24 0 0 1.43 0.25 0 0 1.45 0.26 0 0 1.46 0.27 0 0c2.97,0.55 5.93,1.12 8.89,1.71l0.01 0c1.48,0.3 2.95,0.6 4.42,0.91l0.02 0c1.39,0.29 2.78,0.59 4.17,0.89l0.39 0.08c1.35,0.3 2.69,0.6 4.04,0.91l0.38 0.09c1.3,0.3 2.6,0.6 3.89,0.91l0.6 0.14c1.25,0.3 2.49,0.6 3.73,0.91l0.7 0.17c1.23,0.31 2.46,0.62 3.68,0.94l0.7 0.18c1.18,0.31 2.37,0.62 3.55,0.94l0.89 0.24c1.16,0.32 2.33,0.64 3.49,0.97l0.88 0.25c1.12,0.32 2.23,0.64 3.34,0.97l1.04 0.31c1.08,0.32 2.15,0.65 3.22,0.98l1.15 0.36c1.05,0.33 2.09,0.66 3.13,0.99l1.12 0.36c1.03,0.33 2.05,0.67 3.08,1.01l1.18 0.4c1.01,0.34 2.02,0.69 3.02,1.04l1.23 0.44c0.96,0.34 1.92,0.68 2.87,1.03l1.32 0.49c0.86,0.32 1.73,0.64 2.59,0.97l1.55 0.59c0.82,0.32 1.65,0.64 2.47,0.96 0.56,0.22 1.12,0.45 1.67,0.67 0.73,0.29 1.46,0.59 2.18,0.89 0.65,0.27 1.29,0.54 1.94,0.81 0.63,0.27 1.27,0.54 1.9,0.81 0.72,0.31 1.44,0.62 2.16,0.94 0.6,0.26 1.2,0.53 1.79,0.8 0.7,0.31 1.4,0.63 2.09,0.95 0.62,0.29 1.24,0.57 1.86,0.86 0.71,0.33 1.41,0.67 2.11,1 0.58,0.28 1.16,0.56 1.73,0.84 0.7,0.34 1.39,0.68 2.08,1.03 0.57,0.29 1.14,0.58 1.71,0.87 0.73,0.37 1.45,0.75 2.17,1.12 0.53,0.28 1.05,0.55 1.57,0.83 0.74,0.4 1.49,0.8 2.22,1.21 0.52,0.29 1.04,0.57 1.55,0.86 0.67,0.37 1.33,0.75 2,1.13 0.56,0.32 1.12,0.64 1.68,0.97 0.6,0.35 1.2,0.7 1.79,1.06 0.62,0.37 1.23,0.74 1.85,1.12 0.51,0.31 1.02,0.63 1.53,0.94 0.68,0.42 1.35,0.85 2.02,1.28 0.53,0.34 1.06,0.68 1.58,1.02 0.66,0.43 1.32,0.87 1.98,1.31 0.49,0.33 0.98,0.66 1.47,0.99 0.67,0.46 1.33,0.92 1.99,1.38 0.49,0.35 0.98,0.69 1.47,1.04 0.63,0.45 1.26,0.91 1.89,1.37 0.49,0.36 0.98,0.73 1.47,1.1 0.62,0.47 1.23,0.94 1.85,1.41 -9.9,-3.67 -20.42,-3.73 -31.99,-1.31 -29.97,-15.15 -64.58,-24.87 -99.69,-31.34 -31.57,-5.82 -53.41,-5.82 -84.99,0 -46.24,8.53 -93.99,22.5 -131.03,47.1 -8.73,0.09 -17.45,1.02 -26.16,2.98 37.24,-37.89 95.94,-57.4 152.94,-68.35z"/>
    <path id="_273441984_2" class="fil7" d="M358.97 334.34c-4.32,-1.11 -9.03,-3.78 -13.33,-4.77 10.52,-9.36 14.47,-13.16 48.71,-21.06 34.24,-7.9 37.53,14.21 37.53,14.21 -0.07,-0 -8.17,8.06 -18.5,3.82 -8.72,-3.57 -29.05,-3.39 -54.41,7.79z"/>
    <path id="_273441600" class="fil4" d="M593.93 792.51c-1.3,0.84 -2.61,1.68 -3.93,2.51 -97.21,61.66 -193.44,64.11 -291.85,2.72 -8.74,-5.45 -17.17,-10.98 -25.15,-16.48l-0.01 -0.22c0,0 146.11,91.33 320.93,11.46z"/>
    <path id="_273441528" class="fil4" d="M195.98 718.17c-0.72,-9.99 5.06,-142.7 5.06,-142.7l0 -12.25c22.13,15.45 66.65,62.88 71.99,82.14 5.34,19.25 -1.95,83.86 -4.22,142.28 -43.79,-29.99 -74.81,-59.07 -72.83,-69.47zm482.09 -154.69l0.45 11.98c0,0 5.78,132.71 5.06,142.7 1.98,10.39 -29.04,39.48 -72.83,69.47 -4.57,-54.59 -10.31,-123.86 -4.99,-143.04 5.32,-19.19 50.66,-60.87 72.31,-81.11z"/>
    <path id="_273441456" class="fil4" d="M337.23 417.23c0,0 95.34,30.33 218.83,-15.76 -69.04,40.33 -145.62,50.38 -218.83,15.76z"/>
    <path id="_273441384" class="fil4" d="M383.18 389.2c0,0 63.38,16.2 130.75,-8.53 0,0 -32.2,20.1 -67.75,21.12 -35.55,1.03 -62.99,-12.6 -62.99,-12.6z"/>
    <polygon id="_273441168" class="fil1" points="607.63,797.75 604.95,706.7 618.34,789.72 "/>
    <polygon id="_273441096" class="fil1" points="270.12,797.75 272.8,706.7 259.41,789.72 "/>
    <path class="fil1" d="M524.65 238.92c0,0 18.14,-30.1 6.01,-63.3 0,0 25.04,28.65 12.07,69.49l-11.81 2.24 -6.26 -8.42z"/>
    <path class="fil8" d="M338.73 242.86c0,0 4.61,40.39 -7.75,46.65 -6.75,3.42 -39.8,-1.15 -49.12,-24.72 0,0 17.14,-25.55 56.87,-21.92z"/>
    <path id="_273441984_3" class="fil7" d="M246.29 309.7c38.42,-34.97 95.96,-53.05 151.32,-63.25 31.33,-5.78 53,-5.78 84.33,0 26.7,4.92 53.11,11.74 77.38,21.42 -31.17,51.64 -140.97,60.42 -140.97,60.42 -87.37,-41.54 -164.94,-20.65 -172.07,-18.59z"/>
    <path class="fil1" d="M400.44 308.89c-29.46,-9.99 -88.66,-25.6 -162.2,-12.83 -3.41,-24.24 9.43,-43.33 29.11,-50.68 10.06,-26.61 25.55,-34.55 47.53,-38.99 0,0 15.51,-25.4 54.84,-27.2 0,0 11.91,-15.28 43.15,-11.69 9.08,-11.77 34.31,-14.34 51.58,-6.67 21.34,-1.71 51.53,15.18 64.66,43.61 11.7,25.34 15.81,57.14 -14.99,64.87 0,0 -7.87,20.23 -31.02,20.23 -6.41,15.06 -19.55,18.88 -36.86,18.65 -10.03,20.93 -30.33,5.95 -45.8,0.7z"/>
    <path class="fil1" d="M421.25 316.47c0,0 -53.83,-19.22 -111.13,17.19 0,0 23.37,-32.81 71.92,-36.63 48.54,-3.82 39.22,19.44 39.22,19.44z"/>
    <path class="fil8" d="M249.04 285.28c0,0 2.02,-22.47 28.54,-30.56 26.52,-8.09 73.04,-3.37 73.04,-3.37 0,0 -25.62,-12.14 -71.02,-7.64 18.43,-40.83 97.08,-24.82 122.26,-10.34 0,0 -22.02,-24.27 -69.45,-26.07 0,0 14.83,-18.88 42.7,-14.61 27.87,4.27 43.83,16.18 43.83,16.18 0,0 -10.56,-17.53 -35.51,-22.7 0,0 33.49,-13.49 65.85,14.83 0,0 -8.09,-18.65 -26.29,-26.07 0,0 18.88,-15.28 41.35,2.7 0,0 13.26,9.21 18.88,34.16 0,0 -0.22,-21.13 -8.99,-35.51 0,0 39.78,6.74 49.89,53.49 0,0 7.87,24.27 -17.53,33.94 0,0 -11.01,21.13 -31.91,18.2 0,0 -5.84,18.2 -33.71,17.53 0,0 -2.7,12.59 -20.68,8.54 -17.98,-4.05 -59.11,-34.61 -171.26,-22.7z"/>
    <path class="fil9" d="M440.33 301.19c-1.53,3.31 -6.36,9.86 -20.04,6.78 -9.78,-2.2 -26.43,-12.25 -57.63,-19.04 67.12,6.42 64.37,-31.25 64.37,-31.25 9.49,16.14 13.36,30.72 13.3,43.52z"/>
    <path class="fil10" d="M249.04 285.28c0,0 2.02,-22.47 28.54,-30.56 21.2,-6.47 55.17,-4.75 67.96,-3.8 2.29,0.36 3.62,0.58 3.62,0.58 -66.45,-1.63 -82.59,22.98 -86.34,32.5 -4.47,0.36 -9.06,0.78 -13.78,1.28zm46.5 -42.54c-5,0.1 -10.32,0.4 -15.94,0.96 17.56,-38.91 89.81,-26.2 118.36,-12.39 0.56,0.4 0.85,0.63 0.85,0.63 -64.61,-20.85 -94.82,2.26 -103.28,10.8zm50.54 -34.25c-4.3,-0.6 -8.85,-1.02 -13.67,-1.2 0,0 14.83,-18.88 42.7,-14.61 20.52,3.14 34.58,10.43 40.57,14.06 -37.76,-14.79 -60.65,-4.29 -69.6,1.75zm50.22 -18.16c-3.77,-1.7 -8.05,-3.16 -12.87,-4.16 0,0 30.56,-12.3 61.51,11.29 -18.09,-11.99 -39.53,-9.14 -48.64,-7.12zm37.13 -9.29c-3.02,-2.36 -6.49,-4.5 -10.44,-6.11 0,0 16.43,-13.29 36.88,-0.49 -12.25,-3.27 -22.18,3.13 -26.44,6.6z"/>
    <path class="fil9" d="M471.53 185.17c4.05,5.41 8.84,14 11.68,26.62 0,0 -0.22,-21.13 -8.99,-35.51 0,0 39.78,6.74 49.89,53.49 0,0 7.87,24.27 -17.53,33.94 0,0 -11.01,21.13 -31.91,18.2 0,0 -5.84,18.2 -33.71,17.53 0,0 -1.18,5.5 -7.17,8.06 12.64,-22.61 -6.78,-49.93 -6.78,-49.93 24.72,2.25 12.59,-24.83 12.59,-24.83 23.37,13.37 18.99,-19.55 18.99,-19.55l3.82 3.82c16.32,0.3 13.09,-18.95 9.12,-31.83z"/>
    <path class="fil1" d="M425.69 255.61c0,0 21.13,41.35 2.02,54.28l12.81 -0.56c0,0 12.14,-25.85 -14.83,-53.71z"/>
    <path class="fil1" d="M484.57 231.11c0,0 2.58,40.23 -18.09,62.25l15.17 -6.29c0,0 12.14,-16.18 2.92,-55.96z"/>
    <path class="fil1" d="M458.05 212.35c0,0 18.77,38.54 -1.24,72.93 21.71,-19.13 19.88,-56.46 1.24,-72.93z"/>
    <path class="fil1" d="M510.17 235.42c0,0 1.24,21.57 -8.88,36.07l10.11 -3.71c0,0 6.63,-17.42 -1.24,-32.36z"/>
    <path class="fil9" d="M417.81 295.21c0,0 -17.08,-33.04 -56.41,-40.45 0,0 40.68,2.47 64.28,25.17l2.02 10.79 -9.89 4.5z"/>
    <path class="fil9" d="M423.43 214.3c0,0 22.25,17.08 22.92,51.02l8.54 -12.59c0,0 0.22,-20.68 -31.46,-38.43z"/>
    <path id="_273437400" class="fil1" d="M634.5 305.27c0,0 -6.89,41.32 0,90.29 0,0 3.83,-60.45 14.92,-83.78l-7.65 -6.12 -7.27 -0.38z"/>
    <path id="_273437328" class="fil1" d="M245.07 305.27c0,0 6.89,41.32 0,90.29 0,0 -3.83,-60.45 -14.92,-83.78l7.65 -6.12 7.27 -0.38z"/>
   </g>
  </g>
 </g>
</svg>
