<?xml version="1.0" encoding="UTF-8"?>
<!DOCTYPE svg PUBLIC "-//W3C//DTD SVG 1.1//EN" "http://www.w3.org/Graphics/SVG/1.1/DTD/svg11.dtd">
<!-- Creator: CorelDRAW 2020 (64-Bit) -->
<svg xmlns="http://www.w3.org/2000/svg" xml:space="preserve" width="129.436mm" height="197.988mm" version="1.1" style="shape-rendering:geometricPrecision; text-rendering:geometricPrecision; image-rendering:optimizeQuality; fill-rule:evenodd; clip-rule:evenodd"
viewBox="0 0 4579.1 7004.29"
 xmlns:xlink="http://www.w3.org/1999/xlink"
 xmlns:xodm="http://www.corel.com/coreldraw/odm/2003">
 <defs>
  <style type="text/css">
   <![CDATA[
    .fil0 {fill:none}
    .fil1 {fill:#501D33}
    .fil4 {fill:#8E7A5D}
    .fil2 {fill:#C3C077}
    .fil3 {fill:#E0E28A}
   ]]>
  </style>
 </defs>
 <g id="Слой_x0020_1">
  <metadata id="CorelCorpID_0Corel-Layer"/>
  <g id="_1746340704672">
   <rect id="_273923616" class="fil0" width="4579.1" height="7004.29"/>
   <path id="_273442056" class="fil1" d="M936.38 3741.69c-0.59,-14.35 -0.04,-29.52 0.23,-43.61 0.54,-28.98 1.4,-57.96 2.3,-86.93 2.52,-80.72 5.59,-161.44 8.74,-242.15 4.87,-124.58 10.01,-249.17 15.44,-373.73l0 -842.01c0,-607.95 544.77,-849.45 1091.1,-950.19 170.36,-31.41 300.36,-31.41 470.72,0 556.21,102.55 1037.16,354.07 1059.55,951.33l31.49 839.57c5.44,125 10.61,250.01 15.49,375.03 3.15,80.71 6.22,161.42 8.74,242.15 0.91,28.97 1.77,57.95 2.3,86.93 0.26,14.09 0.82,29.25 0.22,43.6 3.06,41.7 -21.08,81.44 -46.38,113.99 -31.71,40.78 -71.72,79.08 -110.64,113.69 -110.26,98.07 -237.77,187.98 -363.3,267.59 -544.89,345.59 -1091.82,358.13 -1642.15,14.82 -131.09,-81.78 -264.09,-174.51 -379.32,-275.75 -40.71,-35.76 -82.6,-75.32 -115.93,-117.48 -26.19,-33.14 -51.75,-74.02 -48.62,-116.84z"/>
   <path id="_273441984" class="fil2" d="M1020.29 3738.85c-3.76,-52 26.34,-742.92 26.34,-742.92l0 -838.99c0,-570.79 528.57,-782.68 1023.4,-873.92 163.09,-30.07 275.94,-30.07 439.03,0 494.83,91.23 970.68,307.24 992.08,877.63l31.33 835.28c0,0 30.11,690.92 26.35,742.92 11.83,62.04 -202.19,252 -483.37,430.33 -515.92,327.22 -1026.59,340.24 -1548.85,14.43 -292.38,-182.39 -518.45,-381.05 -506.3,-444.76z"/>
   <ellipse class="fil3" transform="matrix(0.975447 -0.220234 0.220234 0.975447 1936.05 1544.77)" rx="517.15" ry="216.46"/>
   <path class="fil3" d="M2523.43 1495.5c145.3,-69.33 180.98,70.62 61.14,128.37 -138.14,66.57 -169.23,-76.79 -61.14,-128.37z"/>
   <path id="_273441840" class="fil3" d="M1047 2131.7c15.38,-551.82 535.57,-758.81 1023.04,-848.69 163.09,-30.07 275.94,-30.07 439.03,0 494.83,91.23 970.68,307.24 992.08,877.63l0.1 2.58c-72.36,-497.77 -523,-694.46 -990.46,-780.65 -164.36,-30.31 -278.08,-30.31 -442.44,0 -458.66,84.57 -946.05,272.04 -1021.33,749.13z"/>
   <g>
    <path id="_273441768" class="fil4" d="M3305.55 1653.38c114.43,126.74 187.49,291.67 195.58,507.27l18.95 505.3c-237.65,-270.66 -236.51,-750 -214.53,-1012.57z"/>
    <path id="_273441696" class="fil4" d="M1046.63 2679.57l0 -522.64c0,-231.98 87.29,-404.66 224.16,-534.07 24.6,258.42 35.75,778.21 -224.16,1056.71z"/>
   </g>
   <path id="_273441600" class="fil4" d="M3092.04 4125.91c-6.78,4.37 -13.59,8.73 -20.46,13.09 -506.11,321 -1007.07,333.77 -1519.4,14.16 -45.5,-28.39 -89.37,-57.18 -130.92,-85.78l-0.03 -1.12c0,0 760.68,475.46 1670.81,59.66z"/>
   <path id="_273441528" class="fil4" d="M1020.28 3738.85c-3.76,-52 26.35,-742.92 26.35,-742.92l0 -63.75c115.2,80.42 346.99,327.38 374.79,427.61 27.8,100.24 -10.15,436.56 -21.99,740.71 -227.99,-156.13 -389.47,-307.55 -379.15,-361.65zm2509.83 -805.31l2.34 62.38c0,0 30.11,690.92 26.35,742.92 10.31,54.11 -151.18,205.52 -379.17,361.65 -23.79,-284.22 -53.66,-644.82 -25.95,-744.7 27.71,-99.89 263.73,-316.92 376.44,-422.26z"/>
   <path id="_273441456" class="fil4" d="M1755.63 2172.16c0,0 496.37,157.89 1139.24,-82.05 -359.41,209.95 -758.11,262.31 -1139.24,82.05z"/>
   <path id="_273441384" class="fil4" d="M1994.87 2026.22c0,0 329.98,84.34 680.67,-44.39 0,0 -167.62,104.62 -352.73,109.96 -185.1,5.34 -327.95,-65.57 -327.95,-65.57z"/>
   <polygon id="_273441168" class="fil1" points="3163.36,4153.19 3149.43,3679.14 3219.12,4111.36 "/>
   <polygon id="_273441096" class="fil1" points="1406.29,4153.19 1420.23,3679.14 1350.52,4111.36 "/>
   <path id="_273437400" class="fil1" d="M3302.78 1591.8c0,0 -35.85,215.11 0,470.05 0,0 19.92,-314.7 77.68,-436.19l-39.83 -31.87 -37.84 -1.99z"/>
   <path id="_273437328" class="fil1" d="M1275.36 1591.8c0,0 35.85,215.11 0,470.05 0,0 -19.92,-314.7 -77.68,-436.19l39.83 -31.87 37.84 -1.99z"/>
  </g>
 </g>
</svg>
