<?xml version="1.0" encoding="UTF-8"?>
<!DOCTYPE svg PUBLIC "-//W3C//DTD SVG 1.1//EN" "http://www.w3.org/Graphics/SVG/1.1/DTD/svg11.dtd">
<!-- Creator: CorelDRAW 2020 (64-Bit) -->
<svg xmlns="http://www.w3.org/2000/svg" xml:space="preserve" width="129.436mm" height="197.988mm" version="1.1" style="shape-rendering:geometricPrecision; text-rendering:geometricPrecision; image-rendering:optimizeQuality; fill-rule:evenodd; clip-rule:evenodd"
viewBox="0 0 473.21 723.83"
 xmlns:xlink="http://www.w3.org/1999/xlink"
 xmlns:xodm="http://www.corel.com/coreldraw/odm/2003">
 <defs>
  <style type="text/css">
   <![CDATA[
    .fil0 {fill:none}
    .fil1 {fill:#501D33}
    .fil6 {fill:#8E7A5D}
    .fil7 {fill:#9F5655}
    .fil4 {fill:#BB765A}
    .fil2 {fill:#C3C077}
    .fil5 {fill:#D79A6E}
    .fil3 {fill:#E0E28A}
   ]]>
  </style>
 </defs>
 <g id="Слой_x0020_1">
  <metadata id="CorelCorpID_0Corel-Layer"/>
  <g id="_2674593389888">
   <rect id="_269469464" class="fil0" width="473.21" height="723.83"/>
   <g>
    <path id="_268912208" class="fil1" d="M96.77 386.67c-0.06,-1.48 -0,-3.05 0.02,-4.51 0.06,-2.99 0.14,-5.99 0.24,-8.98 0.26,-8.34 0.58,-16.68 0.9,-25.02 0.5,-12.87 1.03,-25.75 1.6,-38.62l0 -87.01c0,-62.83 56.3,-87.78 112.76,-98.19 17.6,-3.25 31.04,-3.25 48.64,0 57.48,10.6 107.18,36.59 109.5,98.31l3.25 86.76c0.56,12.92 1.1,25.84 1.6,38.76 0.33,8.34 0.64,16.68 0.9,25.02 0.09,2.99 0.18,5.99 0.24,8.98 0.03,1.46 0.08,3.02 0.02,4.51 0.32,4.31 -2.18,8.42 -4.79,11.78 -3.28,4.21 -7.41,8.17 -11.43,11.75 -11.39,10.13 -24.57,19.43 -37.54,27.65 -56.31,35.71 -112.83,37.01 -169.7,1.53 -13.55,-8.45 -27.29,-18.03 -39.2,-28.5 -4.21,-3.7 -8.54,-7.78 -11.98,-12.14 -2.71,-3.42 -5.35,-7.65 -5.02,-12.07z"/>
    <path id="_268912136" class="fil2" d="M105.44 386.38c-0.39,-5.37 2.72,-76.77 2.72,-76.77l0 -86.7c0,-58.99 54.62,-80.88 105.76,-90.31 16.85,-3.11 28.52,-3.11 45.37,0 51.14,9.43 100.31,31.75 102.52,90.7l3.24 86.32c0,0 3.11,71.4 2.72,76.77 1.22,6.41 -20.89,26.04 -49.95,44.47 -53.32,33.82 -106.09,35.16 -160.06,1.49 -30.21,-18.85 -53.58,-39.38 -52.32,-45.96z"/>
    <path id="_268911776" class="fil3" d="M108.2 220.29c1.59,-57.03 55.35,-78.42 105.72,-87.7 16.85,-3.11 28.52,-3.11 45.37,0 51.14,9.43 100.31,31.75 102.52,90.7l0.01 0.27c-7.48,-51.44 -54.05,-71.77 -102.36,-80.67 -16.99,-3.13 -28.74,-3.13 -45.72,0 -47.4,8.74 -97.77,28.11 -105.55,77.42z"/>
    <path class="fil4" d="M140.6 160.06c6.48,5.97 10.88,14.18 11.96,23.39 0.27,-0.02 0.53,-0.02 0.8,-0.02 7.51,0 13.6,6.09 13.6,13.6 0,7.51 -6.09,13.6 -13.6,13.6 -2.49,0 -4.82,-0.67 -6.83,-1.84 -6.78,10.22 -18.38,16.95 -31.56,16.95 -2.33,0 -4.6,-0.21 -6.81,-0.61l0 -2.24c0,-28.87 13.09,-48.85 32.44,-62.84z"/>
    <path id="_268911776_0" class="fil5" d="M108.2 220.29c0.25,-8.91 1.77,-16.95 4.35,-24.2l0.01 -0.02c0.25,-0.71 0.52,-1.42 0.79,-2.12l0.03 -0.07c0.27,-0.68 0.55,-1.36 0.84,-2.03l0.04 -0.1c0.29,-0.66 0.58,-1.31 0.88,-1.96l0.06 -0.12c0.3,-0.63 0.6,-1.26 0.92,-1.88l0.1 -0.19c0.31,-0.6 0.62,-1.19 0.94,-1.77l0.13 -0.24c0.31,-0.56 0.63,-1.12 0.96,-1.68l0.17 -0.28c0.32,-0.54 0.65,-1.07 0.99,-1.6l0.2 -0.3c0.33,-0.51 0.67,-1.02 1.01,-1.53l0.23 -0.33c0.34,-0.49 0.68,-0.97 1.02,-1.45l0.29 -0.39c0.34,-0.46 0.68,-0.92 1.03,-1.37l0.3 -0.38c0.35,-0.44 0.7,-0.88 1.05,-1.32 0.12,-0.14 0.24,-0.29 0.36,-0.43 0.35,-0.41 0.69,-0.83 1.05,-1.23 0.13,-0.15 0.27,-0.31 0.4,-0.46 0.34,-0.39 0.69,-0.77 1.04,-1.15 0.16,-0.17 0.31,-0.34 0.47,-0.5 0.34,-0.36 0.68,-0.72 1.03,-1.08 0.17,-0.18 0.35,-0.36 0.52,-0.53 0.33,-0.33 0.66,-0.67 1,-1 0.19,-0.19 0.39,-0.38 0.59,-0.57 0.31,-0.3 0.62,-0.59 0.94,-0.89 0.23,-0.22 0.47,-0.43 0.7,-0.64 0.3,-0.27 0.6,-0.54 0.9,-0.81 0.25,-0.22 0.51,-0.44 0.76,-0.67 0.31,-0.27 0.63,-0.54 0.95,-0.81 0.25,-0.21 0.51,-0.42 0.77,-0.64 0.28,-0.23 0.56,-0.46 0.85,-0.68 0.3,-0.24 0.61,-0.49 0.92,-0.72 0.26,-0.2 0.52,-0.41 0.79,-0.61 0.33,-0.25 0.67,-0.51 1,-0.76 0.25,-0.19 0.51,-0.37 0.76,-0.56l0.27 -0.2c2.06,1.89 3.9,4.01 5.5,6.32 -19.48,12.1 -34.01,29.26 -37.9,53.91z"/>
    <g>
     <path id="_268911488" class="fil6" d="M341.6 170.86c11.83,13.1 19.38,30.14 20.21,52.42l1.96 52.22c-24.56,-27.97 -24.44,-77.51 -22.17,-104.64z"/>
     <path id="_268911416" class="fil6" d="M108.16 276.91l0 -54.01c0,-23.97 9.02,-41.82 23.16,-55.19 2.54,26.71 3.69,80.42 -23.17,109.2z"/>
    </g>
    <path id="_268911416_1" class="fil7" d="M108.16 225.14l0 -2.24 0 -0c0,-0.42 0,-0.83 0.01,-1.24l0.01 -0.41c0,-0.27 0.01,-0.54 0.02,-0.81l0.01 -0.5 0.03 -0.74 0.02 -0.49c0.01,-0.27 0.03,-0.55 0.04,-0.82l0.02 -0.38c0.05,-0.8 0.1,-1.59 0.17,-2.38l0.04 -0.42c0.02,-0.26 0.05,-0.53 0.08,-0.79l0.04 -0.39c0.03,-0.28 0.06,-0.57 0.09,-0.85l0.04 -0.32c0.04,-0.31 0.08,-0.63 0.12,-0.94l0.03 -0.23c0.11,-0.79 0.22,-1.57 0.35,-2.34l0.04 -0.22c0.05,-0.32 0.11,-0.63 0.17,-0.95l0.04 -0.22c0.06,-0.32 0.12,-0.65 0.18,-0.97l0.03 -0.18c0.23,-1.15 0.48,-2.29 0.76,-3.41l0.03 -0.11c0.09,-0.34 0.17,-0.68 0.26,-1.02l0.03 -0.09c0.1,-0.36 0.2,-0.73 0.3,-1.09l0 -0c3.75,-13.23 10.86,-24.03 20.21,-32.87 1.29,13.53 2.22,34 -0.67,54.65 -4.78,2.18 -10.08,3.39 -15.68,3.39 -2.33,0 -4.6,-0.21 -6.81,-0.61z"/>
    <path id="_268911320" class="fil6" d="M319.53 426.37c-0.7,0.45 -1.4,0.9 -2.11,1.35 -52.3,33.17 -104.07,34.49 -157.02,1.46 -4.7,-2.93 -9.24,-5.91 -13.53,-8.86l-0 -0.12c0,0 78.61,49.13 172.66,6.16z"/>
    <path id="_268911248" class="fil6" d="M105.44 386.38c-0.39,-5.37 2.72,-76.77 2.72,-76.77l0 -6.59c11.9,8.31 35.86,33.83 38.73,44.19 2.87,10.36 -1.05,45.11 -2.27,76.55 -23.56,-16.14 -40.25,-31.78 -39.18,-37.37zm259.37 -83.22l0.24 6.45c0,0 3.11,71.4 2.72,76.77 1.07,5.59 -15.62,21.24 -39.18,37.37 -2.46,-29.37 -5.55,-66.64 -2.68,-76.96 2.86,-10.32 27.25,-32.75 38.9,-43.64z"/>
    <polygon id="_268911176" class="fil1" points="326.9,429.19 325.46,380.21 332.67,424.87 "/>
    <polygon id="_268911104" class="fil1" points="145.33,429.19 146.77,380.21 139.56,424.87 "/>
    <path id="_268910960" class="fil1" d="M131.8 164.5c0,0 3.7,22.23 0,48.58 0,0 -2.06,-32.52 -8.03,-45.08l4.12 -3.29 3.91 -0.21z"/>
    <path id="_268910960_2" class="fil4" d="M359.5 205.44c-8.3,7.75 -19.43,12.49 -31.68,12.49 -4.86,0 -9.55,-0.75 -13.96,-2.13 0.11,0.69 0.17,1.41 0.17,2.13 0,7.35 -5.95,13.3 -13.3,13.3 -7.35,0 -13.3,-5.95 -13.3,-13.3 0,-1.12 0.14,-2.21 0.4,-3.25 -4.65,2.97 -10.19,4.7 -16.12,4.7 -13.63,0 -25.13,-9.1 -28.78,-21.55 -29.44,-2.8 -52.47,-27.59 -52.47,-57.77 0,-0.74 0.02,-1.48 0.05,-2.21 7.75,-2.1 15.61,-3.83 23.4,-5.27 16.85,-3.11 28.52,-3.11 45.37,0 45.62,8.41 89.67,27.08 100.22,72.86zm-155.49 -17.98c3.74,0 6.77,3.03 6.77,6.77 0,3.74 -3.03,6.77 -6.77,6.77 -3.74,0 -6.77,-3.03 -6.77,-6.77 0,-3.74 3.03,-6.77 6.77,-6.77zm-25.15 -27.08c5.88,0 10.64,4.76 10.64,10.64 0,5.88 -4.76,10.64 -10.64,10.64 -5.88,0 -10.64,-4.76 -10.64,-10.64 0,-5.88 4.76,-10.64 10.64,-10.64z"/>
    <path id="_268910960_3" class="fil5" d="M359.5 205.44c-0.58,0.54 -1.16,1.06 -1.77,1.57 -14.14,-39.42 -55.52,-56.25 -98.27,-64.13 -16.99,-3.13 -28.74,-3.13 -45.72,0 -7.57,1.4 -15.21,3.06 -22.74,5.08 -0.35,-2.58 -0.54,-5.21 -0.54,-7.89 0,-0.74 0.02,-1.48 0.05,-2.21l0.22 -0.06c0.48,-0.13 0.96,-0.26 1.44,-0.38l0.88 -0.23c0.51,-0.13 1.02,-0.26 1.53,-0.39l0.74 -0.19c0.55,-0.14 1.11,-0.27 1.66,-0.41l0.67 -0.16c0.57,-0.14 1.14,-0.27 1.72,-0.41l0.66 -0.15c0.62,-0.14 1.23,-0.28 1.85,-0.42l0.44 -0.1c0.68,-0.15 1.35,-0.3 2.03,-0.45l0.23 -0.05c3.12,-0.67 6.24,-1.29 9.34,-1.86l0 -0 0.79 -0.14 0 -0 0.78 -0.14 0 -0 0.77 -0.13 0 -0 0.76 -0.13 0 -0 0.76 -0.13 0 -0 0.75 -0.12 0 -0 0.75 -0.12 0 -0 0.74 -0.11 0 -0 0.73 -0.11 0 -0 0.73 -0.1 0 -0 0.72 -0.1 0 -0 0.72 -0.09 0 -0 0.71 -0.09 0 -0 0.71 -0.08 0 -0 0.7 -0.08 0 -0 0.7 -0.07 0 -0 0.7 -0.07 0 -0 0.69 -0.07 0 -0 0.69 -0.06 0 -0 0.69 -0.06 0 -0 0.68 -0.05 0 -0 0.68 -0.05 0 -0 0.68 -0.04 0 -0 0.68 -0.04 0 -0 0.68 -0.03 0 -0 0.67 -0.03 0 -0 0.67 -0.02 0 -0 0.67 -0.02 0 -0 0.67 -0.02 0 -0 0.67 -0.01 0 -0 0.67 -0.01 0 -0 0.67 -0 0.67 0 0 0 0.67 0.01 0 0 0.67 0.01 0 0 0.67 0.02 0 0 0.67 0.02 0 0 0.67 0.02 0 0 0.67 0.03 0 0c0.22,0.01 0.45,0.02 0.67,0.03l0 0 0.68 0.04 0 0 0.68 0.04 0 0 0.68 0.05 0 0 0.68 0.05 0 0 0.69 0.06 0 0 0.69 0.06 0 0 0.69 0.07 0 0 0.7 0.07 0 0 0.7 0.07 0 0 0.7 0.08 0 0 0.71 0.08 0 0 0.71 0.09 0 0c0.24,0.03 0.48,0.06 0.72,0.09l0 0 0.72 0.1 0 0 0.73 0.1 0 0 0.73 0.11 0 0 0.74 0.11 0 0 0.75 0.12 0 0 0.75 0.12 0 0 0.76 0.13 0 0 0.76 0.13 0 0 0.77 0.13 0 0 0.78 0.14 0 0 0.79 0.14 0 0c0.78,0.14 1.56,0.29 2.33,0.44l0.38 0.07c0.63,0.12 1.27,0.25 1.9,0.37l0.66 0.13c0.54,0.11 1.09,0.22 1.63,0.34l0.7 0.15c0.52,0.11 1.03,0.22 1.54,0.33l0.86 0.19c0.47,0.1 0.93,0.21 1.4,0.31l0.86 0.2c0.49,0.11 0.97,0.23 1.46,0.34l0.82 0.19c0.51,0.12 1.03,0.25 1.54,0.38l0.7 0.17c1.5,0.37 2.99,0.76 4.47,1.17l0.63 0.17c0.53,0.15 1.06,0.29 1.59,0.44l0.78 0.22c0.47,0.13 0.94,0.27 1.4,0.41l0.92 0.27c0.41,0.12 0.83,0.25 1.24,0.38l0.98 0.3c0.41,0.13 0.82,0.26 1.23,0.39 0.3,0.1 0.61,0.2 0.91,0.29 0.43,0.14 0.86,0.28 1.3,0.43 0.29,0.1 0.58,0.19 0.87,0.29 0.43,0.14 0.85,0.29 1.27,0.44 0.29,0.1 0.58,0.2 0.88,0.3 0.48,0.17 0.96,0.34 1.44,0.52 0.22,0.08 0.44,0.16 0.66,0.24 0.69,0.25 1.38,0.51 2.06,0.77 0.25,0.1 0.5,0.19 0.75,0.29 0.44,0.17 0.88,0.34 1.32,0.51 0.3,0.12 0.6,0.24 0.9,0.36 0.39,0.16 0.78,0.32 1.17,0.48 0.31,0.13 0.61,0.26 0.92,0.38 0.37,0.16 0.74,0.31 1.11,0.47 0.32,0.14 0.64,0.28 0.97,0.42 0.35,0.15 0.69,0.31 1.04,0.46 0.32,0.14 0.64,0.29 0.96,0.44 0.35,0.16 0.69,0.32 1.04,0.48 0.32,0.15 0.64,0.3 0.96,0.45 0.34,0.16 0.68,0.33 1.02,0.49 0.31,0.15 0.62,0.3 0.93,0.45 0.38,0.19 0.75,0.38 1.12,0.57 0.27,0.14 0.55,0.28 0.81,0.42 0.4,0.21 0.81,0.42 1.21,0.64 0.55,0.29 1.09,0.59 1.63,0.88 0.29,0.16 0.58,0.32 0.87,0.48 0.33,0.19 0.66,0.38 0.99,0.57 0.29,0.17 0.58,0.33 0.87,0.5 0.32,0.19 0.64,0.38 0.95,0.57 0.3,0.18 0.59,0.36 0.89,0.54 0.32,0.19 0.63,0.39 0.94,0.59 0.28,0.17 0.55,0.35 0.83,0.52 0.33,0.21 0.65,0.42 0.97,0.63 0.27,0.18 0.54,0.36 0.81,0.54 0.32,0.21 0.63,0.42 0.94,0.64 0.26,0.18 0.52,0.36 0.78,0.54 0.31,0.22 0.63,0.44 0.94,0.66 0.25,0.18 0.49,0.36 0.73,0.53 0.33,0.24 0.65,0.47 0.98,0.72 0.16,0.12 0.31,0.24 0.47,0.36 0.79,0.6 1.57,1.21 2.34,1.83 0.12,0.09 0.23,0.19 0.35,0.28 0.32,0.27 0.64,0.54 0.96,0.81 0.21,0.18 0.43,0.36 0.64,0.54 0.3,0.26 0.6,0.52 0.89,0.78 0.22,0.2 0.44,0.39 0.66,0.59 0.29,0.26 0.58,0.53 0.87,0.79 0.22,0.2 0.43,0.4 0.65,0.6 0.29,0.27 0.58,0.55 0.86,0.82 0.2,0.2 0.41,0.4 0.61,0.6 0.29,0.29 0.58,0.57 0.86,0.86 0.19,0.19 0.38,0.39 0.56,0.58 0.29,0.3 0.58,0.6 0.86,0.9 0.18,0.19 0.35,0.38 0.53,0.57 0.29,0.32 0.58,0.63 0.87,0.96 0.12,0.13 0.24,0.27 0.35,0.41 1.07,1.22 2.1,2.47 3.09,3.76 0.12,0.16 0.24,0.31 0.36,0.47 0.27,0.36 0.53,0.72 0.8,1.08 0.14,0.2 0.29,0.39 0.43,0.59 0.25,0.35 0.49,0.7 0.74,1.05 0.15,0.22 0.3,0.44 0.45,0.66 0.24,0.35 0.47,0.7 0.7,1.06 0.14,0.22 0.28,0.44 0.43,0.66 0.23,0.37 0.47,0.74 0.69,1.11 0.13,0.21 0.26,0.43 0.39,0.64 0.23,0.38 0.46,0.76 0.68,1.15 0.12,0.21 0.24,0.42 0.36,0.64 0.22,0.4 0.45,0.8 0.67,1.2 0.09,0.17 0.18,0.34 0.27,0.51 0.8,1.52 1.56,3.08 2.27,4.68 0.06,0.13 0.12,0.26 0.17,0.38 0.2,0.45 0.38,0.9 0.57,1.36 0.09,0.22 0.18,0.43 0.27,0.65 0.17,0.43 0.34,0.86 0.5,1.29 0.1,0.25 0.19,0.5 0.29,0.75 0.16,0.43 0.31,0.86 0.46,1.29 0.09,0.26 0.18,0.52 0.27,0.78 0.15,0.43 0.29,0.87 0.43,1.31 0.09,0.27 0.17,0.55 0.26,0.82 0.14,0.44 0.27,0.88 0.4,1.33 0.08,0.26 0.15,0.53 0.22,0.8 0.13,0.47 0.26,0.94 0.38,1.41 0.06,0.22 0.11,0.45 0.17,0.67 0.13,0.52 0.26,1.03 0.38,1.56z"/>
    <path id="_123939920" class="fil7" d="M251.59 131.34c-0.01,0.09 -0.02,0.18 -0.03,0.27 -0.46,5.38 3.52,10.11 8.9,10.57 4.81,0.41 9.1,-2.73 10.29,-7.25 -3.8,-0.86 -7.62,-1.65 -11.46,-2.35 -2.68,-0.5 -5.24,-0.91 -7.7,-1.25z"/>
    <g>
     <circle id="_123939848" class="fil1" transform="matrix(1.12188 0.0963775 -0.0963775 1.12188 260.173 130.571)" r="7.95"/>
     <circle id="_123939776" class="fil4" transform="matrix(1.12188 0.0963775 -0.0963775 1.12188 261.79 132.037)" r="6.51"/>
     <path id="_123939704" class="fil7" d="M266.15 127.13c1.49,1.33 2.36,3.32 2.18,5.46 -0.31,3.61 -3.49,6.28 -7.1,5.97 -2.52,-0.22 -4.58,-1.83 -5.49,-4.01 1.02,0.91 2.33,1.51 3.8,1.63 3.61,0.31 6.79,-2.37 7.1,-5.97 0.09,-1.09 -0.09,-2.14 -0.48,-3.09z"/>
     <circle id="_123939632" class="fil5" transform="matrix(0.413287 -0.233397 0.161539 0.286045 260.463 129.671)" r="11.13"/>
    </g>
    <g>
     <circle id="_123939848_4" class="fil1" transform="matrix(1.6809 -0.532298 0.251595 1.77121 112.743 196.459)" r="7.95"/>
     <circle id="_123939776_5" class="fil4" transform="matrix(1.6809 -0.532298 0.251595 1.77121 115.631 197.718)" r="6.51"/>
     <path id="_123939704_6" class="fil7" d="M120.31 187.59c2.66,1.12 4.63,3.64 5.11,7.02 0.81,5.7 -2.92,11.71 -8.33,13.42 -3.77,1.19 -7.37,-0.02 -9.47,-2.8 1.82,0.77 3.95,0.89 6.14,0.19 5.41,-1.71 9.14,-7.72 8.33,-13.42 -0.24,-1.72 -0.88,-3.22 -1.79,-4.42z"/>
     <circle id="_123939632_7" class="fil5" transform="matrix(0.525001 -0.606638 0.337395 0.33889 112.854 194.909)" r="11.13"/>
    </g>
    <path id="_123939536" class="fil7" d="M310.44 152c0.52,-1.02 0.92,-2.06 1.2,-3.11 -10.97,-5.44 -23.07,-9.55 -35.6,-12.69 -0.24,0.38 -0.46,0.77 -0.67,1.18 -4.36,8.46 -0.05,18.6 9.63,22.64 9.68,4.04 21.07,0.45 25.44,-8.02z"/>
    <path id="_123939536_8" class="fil7" d="M318.34 175.28c-5.31,-5.38 -16.96,-5.24 -18.71,-3.7 -13.14,11.55 2.35,30.89 16.87,22.55 6.27,-3.6 8.97,-11.61 1.84,-18.85z"/>
    <g>
     <path id="_123939464" class="fil1" d="M306.98 151.56c5.89,-6.57 4.52,-16.39 -3.05,-21.93 -7.57,-5.54 -18.48,-4.69 -24.36,1.88 -5.89,6.57 -3.62,15.55 3.95,21.08 7.57,5.54 17.57,5.54 23.45,-1.03z"/>
     <circle id="_123939392" class="fil4" transform="matrix(1.04021 0.747977 -0.753166 0.886107 293.435 144.427)" r="11.13"/>
     <path id="_123939320" class="fil7" d="M305.63 141.81c1.16,3.42 0.61,7.17 -1.85,10.06 -4.14,4.87 -12.13,5.49 -17.85,1.37 -3.99,-2.87 -5.81,-7.28 -5.15,-11.34 0.79,2.34 2.38,4.53 4.7,6.2 5.72,4.11 13.71,3.5 17.85,-1.37 1.25,-1.47 2.01,-3.16 2.29,-4.92z"/>
     <circle id="_123939248" class="fil5" transform="matrix(0.924459 0.0844331 -0.0172221 0.574981 293.594 139.681)" r="11.13"/>
    </g>
    <g>
     <path id="_123939464_9" class="fil1" d="M317.1 190.89c6.11,-3.08 7.91,-10.55 4.01,-16.69 -3.9,-6.14 -12.01,-8.62 -18.12,-5.54 -6.11,3.08 -7.01,10.2 -3.12,16.34 3.9,6.14 11.11,8.98 17.22,5.9z"/>
     <circle id="_123939392_10" class="fil4" transform="matrix(0.539034 0.834564 -0.794663 0.426324 309.345 181.901)" r="11.13"/>
     <path id="_123939320_11" class="fil7" d="M318.89 183.46c-0.13,2.8 -1.59,5.35 -4.18,6.74 -4.37,2.34 -10.31,0.52 -13.27,-4.06 -2.07,-3.2 -2.13,-6.9 -0.5,-9.64 -0.09,1.91 0.43,3.95 1.64,5.81 2.96,4.59 8.91,6.41 13.27,4.06 1.32,-0.71 2.34,-1.72 3.05,-2.9z"/>
     <circle id="_123939248_12" class="fil5" transform="matrix(0.643419 0.322791 -0.175288 0.41018 310.804 178.519)" r="11.13"/>
    </g>
    <circle id="_123939152" class="fil7" transform="matrix(1.12188 0.0963775 -0.0963775 1.12188 253.849 148.688)" r="3.95"/>
    <circle id="_123939080" class="fil7" transform="matrix(1.12188 0.0963775 -0.0963775 1.12188 268.157 153.11)" r="1.75"/>
    <circle id="_123939008" class="fil5" transform="matrix(3.3284 -0.88666 0.472554 2.36447 286.362 170.423)" r="2.47"/>
    <circle id="_123939008_13" class="fil5" transform="matrix(1.52438 -0.406084 0.216427 1.08291 277.525 184.268)" r="2.47"/>
    <circle class="fil1" cx="224.93" cy="141.32" r="12.88"/>
    <ellipse class="fil4" cx="225.42" cy="145.19" rx="11.91" ry="11.18"/>
    <ellipse class="fil5" transform="matrix(0.449174 0.893444 -0.893444 0.449174 222.637 141.195)" rx="5.26" ry="7.68"/>
    <circle class="fil4" transform="matrix(1 -0 -0.360743 1 325.966 230)" r="9.07"/>
    <circle class="fil4" transform="matrix(1 -0 0.208856 1 235.074 209.083)" r="9.07"/>
    <path class="fil7" d="M234.01 172.81c15.46,0 27.99,12.53 27.99,27.99 0,5.55 -1.61,10.71 -4.39,15.06 -7.03,-3.76 -12.38,-10.23 -14.66,-18.02 -12.02,-1.14 -22.97,-5.95 -31.72,-13.3 5.08,-7.1 13.39,-11.73 22.79,-11.73z"/>
    <circle class="fil7" cx="257.58" cy="187.13" r="11.79"/>
    <circle class="fil7" cx="223.79" cy="163.38" r="6.89"/>
    <circle class="fil7" transform="matrix(0.751013 -0.313133 0.0482645 0.861449 269.232 204.198)" r="6.89"/>
    <ellipse class="fil5" transform="matrix(1 -0.187486 -0 1 202.513 146.597)" rx="8.22" ry="4.96"/>
    <ellipse class="fil5" cx="235.28" cy="155.09" rx="3.87" ry="3.57"/>
    <path id="_268910960_14" class="fil7" d="M359.5 205.44c-5.01,4.68 -11.05,8.26 -17.75,10.36 -1.74,-16.82 -1.15,-33.04 -0.16,-44.94l0.13 0.14c0.24,0.26 0.47,0.53 0.71,0.8 0.21,0.24 0.41,0.47 0.62,0.71 0.2,0.23 0.39,0.46 0.58,0.69 0.24,0.29 0.48,0.58 0.72,0.87 0.15,0.19 0.3,0.38 0.45,0.56 0.25,0.31 0.49,0.62 0.73,0.93 0.18,0.23 0.36,0.47 0.53,0.7 0.25,0.33 0.49,0.66 0.73,0.99l0.38 0.53c0.24,0.34 0.48,0.68 0.72,1.03 0.11,0.16 0.23,0.33 0.34,0.49 0.26,0.39 0.52,0.78 0.78,1.18l0.34 0.53c0.26,0.4 0.51,0.81 0.76,1.22l0.25 0.41c0.25,0.42 0.5,0.84 0.74,1.26l0.22 0.39c0.28,0.49 0.55,0.99 0.82,1.49l0.16 0.3c0.25,0.47 0.5,0.95 0.74,1.43l0.17 0.34c0.25,0.5 0.49,1 0.73,1.51l0.11 0.22c0.27,0.57 0.53,1.15 0.78,1.73l0.06 0.15c0.25,0.57 0.49,1.14 0.72,1.72l0.06 0.15c0.25,0.61 0.49,1.22 0.72,1.84l0.01 0.03c0.24,0.64 0.47,1.29 0.7,1.94l0.01 0.04c0.22,0.65 0.44,1.3 0.64,1.95l0.02 0.05c0.64,2.02 1.2,4.1 1.69,6.24z"/>
    <path id="_268910960_15" class="fil1" d="M341.61 164.5c0,0 -3.7,22.23 0,48.58 0,0 2.06,-32.52 8.03,-45.08l-4.12 -3.29 -3.91 -0.21z"/>
    <path class="fil7" d="M332.01 204.12c7.46,0 14.28,2.77 19.48,7.34 -6.93,4.11 -15.02,6.48 -23.66,6.48 -4.86,0 -9.55,-0.75 -13.96,-2.13 0.11,0.69 0.17,1.41 0.17,2.13 0,6.71 -4.97,12.26 -11.43,13.17 1.28,-15.12 13.95,-26.99 29.39,-26.99zm-2.84 -10.16c1.5,0 2.72,1.22 2.72,2.72 0,1.5 -1.22,2.72 -2.72,2.72 -1.5,0 -2.72,-1.22 -2.72,-2.72 0,-1.5 1.22,-2.72 2.72,-2.72zm-29.38 6.89c3.17,0 5.74,2.57 5.74,5.74 0,3.17 -2.57,5.74 -5.74,5.74 -3.17,0 -5.74,-2.57 -5.74,-5.74 0,-3.17 2.57,-5.74 5.74,-5.74z"/>
    <circle class="fil4" transform="matrix(1.27206 -0 -0.272611 1.27206 145.068 224.726)" r="5.86"/>
    <circle id="_123939008_16" class="fil5" transform="matrix(3.43712 0.224935 -0.308844 2.39137 152.754 191.099)" r="2.47"/>
    <circle id="_123939008_17" class="fil5" transform="matrix(1.59017 -0.666026 0.395128 1.14034 140.886 176.162)" r="2.47"/>
    <path class="fil7" d="M150.8 201.74c4.55,0 8.49,2.61 10.4,6.41 -2.22,1.56 -4.92,2.48 -7.84,2.48 -2.49,0 -4.82,-0.67 -6.83,-1.84 -1.94,2.92 -4.27,5.55 -6.91,7.83 -0.3,-1.03 -0.46,-2.12 -0.46,-3.24 0,-6.43 5.21,-11.64 11.64,-11.64z"/>
    <circle class="fil7" transform="matrix(1 -0 -0.218517 1 139.213 200.927)" r="2.87"/>
   </g>
  </g>
 </g>
</svg>
