<?xml version="1.0" encoding="UTF-8"?>
<!DOCTYPE svg PUBLIC "-//W3C//DTD SVG 1.1//EN" "http://www.w3.org/Graphics/SVG/1.1/DTD/svg11.dtd">
<!-- Creator: CorelDRAW 2020 (64-Bit) -->
<svg xmlns="http://www.w3.org/2000/svg" xml:space="preserve" width="129.436mm" height="197.988mm" version="1.1" style="shape-rendering:geometricPrecision; text-rendering:geometricPrecision; image-rendering:optimizeQuality; fill-rule:evenodd; clip-rule:evenodd"
viewBox="0 0 733.92 1122.61"
 xmlns:xlink="http://www.w3.org/1999/xlink"
 xmlns:xodm="http://www.corel.com/coreldraw/odm/2003">
 <defs>
  <style type="text/css">
   <![CDATA[
    .fil0 {fill:none}
    .fil8 {fill:#4B3446}
    .fil1 {fill:#501D33}
    .fil7 {fill:#634C54}
    .fil6 {fill:#707074}
    .fil10 {fill:#856969}
    .fil12 {fill:#896E6B}
    .fil4 {fill:#8E7A5D}
    .fil5 {fill:#8F8F7E}
    .fil9 {fill:#AE9F90}
    .fil2 {fill:#C3C077}
    .fil11 {fill:#D2C8AD}
    .fil3 {fill:#E0E28A}
   ]]>
  </style>
 </defs>
 <g id="Слой_x0020_1">
  <metadata id="CorelCorpID_0Corel-Layer"/>
  <g id="_2810096406000">
   <rect id="_273923616" class="fil0" x="-0" width="733.92" height="1122.61"/>
   <path id="_273442056" class="fil1" d="M150.08 599.7c-0.09,-2.3 -0.01,-4.73 0.04,-6.99 0.09,-4.64 0.22,-9.29 0.37,-13.93 0.4,-12.94 0.9,-25.87 1.4,-38.81 0.78,-19.97 1.6,-39.94 2.47,-59.9l0 -134.95c0,-97.44 87.31,-136.15 174.88,-152.29 27.3,-5.03 48.14,-5.03 75.44,0 89.15,16.44 166.23,56.75 169.82,152.47l5.05 134.56c0.87,20.03 1.7,40.07 2.48,60.11 0.5,12.94 1,25.87 1.4,38.81 0.15,4.64 0.28,9.29 0.37,13.93 0.04,2.26 0.13,4.69 0.04,6.99 0.49,6.68 -3.38,13.05 -7.43,18.27 -5.08,6.54 -11.5,12.67 -17.73,18.22 -17.67,15.72 -38.11,30.13 -58.23,42.89 -87.33,55.39 -174.99,57.4 -263.2,2.38 -21.01,-13.11 -42.33,-27.97 -60.8,-44.2 -6.52,-5.73 -13.24,-12.07 -18.58,-18.83 -4.2,-5.31 -8.29,-11.86 -7.79,-18.73l0 -0z"/>
   <path id="_273441984" class="fil2" d="M163.53 599.24c-0.6,-8.33 4.22,-119.07 4.22,-119.07l0 -134.47c0,-91.48 84.72,-125.44 164.03,-140.07 26.14,-4.82 44.23,-4.82 70.36,0 79.31,14.62 155.58,49.24 159.01,140.66l5.02 133.87c0,0 4.83,110.74 4.22,119.07 1.9,9.94 -32.41,40.39 -77.47,68.97 -82.69,52.45 -164.54,54.53 -248.24,2.31 -46.86,-29.23 -83.09,-61.07 -81.15,-71.28l-0 0z"/>
   <ellipse class="fil3" transform="matrix(0.975446 -0.220234 0.220234 0.975446 310.3 247.588)" rx="82.89" ry="34.69"/>
   <path class="fil3" d="M404.44 239.69c23.29,-11.11 29.01,11.32 9.8,20.57 -22.14,10.67 -27.12,-12.31 -9.8,-20.57z"/>
   <path id="_273441840" class="fil3" d="M167.81 341.66c2.46,-88.44 85.84,-121.62 163.97,-136.02 26.14,-4.82 44.23,-4.82 70.36,0 79.31,14.62 155.58,49.24 159.01,140.66l0.02 0.41c-11.6,-79.78 -83.82,-111.3 -158.75,-125.12 -26.34,-4.86 -44.57,-4.86 -70.91,0 -73.51,13.55 -151.63,43.6 -163.69,120.07l-0 0z"/>
   <g>
    <path id="_273441768" class="fil4" d="M529.8 265c18.34,20.31 30.05,46.75 31.35,81.3l3.04 80.99c-38.09,-43.38 -37.91,-120.21 -34.38,-162.29z"/>
    <path id="_273441696" class="fil4" d="M167.75 429.47l0 -83.77c0,-37.18 13.99,-64.86 35.93,-85.6 3.94,41.42 5.73,124.73 -35.93,169.36z"/>
   </g>
   <path id="_273441600" class="fil4" d="M495.58 661.28c-1.09,0.7 -2.18,1.4 -3.28,2.1 -81.12,51.45 -161.41,53.5 -243.52,2.27 -7.29,-4.55 -14.32,-9.16 -20.98,-13.75l-0 -0.18c0,0 121.92,76.2 267.79,9.56l0 -0z"/>
   <path id="_273441528" class="fil4" d="M163.53 599.24c-0.6,-8.33 4.22,-119.07 4.22,-119.07l0 -10.22c18.46,12.89 55.61,52.47 60.07,68.54 4.46,16.07 -1.63,69.97 -3.52,118.72 -36.54,-25.02 -62.42,-49.29 -60.77,-57.96zm402.26 -129.07l0.37 10c0,0 4.83,110.74 4.22,119.07 1.65,8.67 -24.23,32.94 -60.77,57.96 -3.81,-45.55 -8.6,-103.35 -4.16,-119.36 4.44,-16.01 42.27,-50.79 60.33,-67.68l-0 0z"/>
   <path id="_273441456" class="fil4" d="M281.38 348.14c0,0 79.56,25.31 182.59,-13.15 -57.6,33.65 -121.51,42.04 -182.59,13.15z"/>
   <path id="_273441384" class="fil4" d="M319.73 324.75c0,0 52.89,13.52 109.09,-7.11 0,0 -26.87,16.77 -56.53,17.62 -29.67,0.86 -52.56,-10.51 -52.56,-10.51l0 0z"/>
   <polygon id="_273441168" class="fil1" points="507.01,665.65 504.77,589.67 515.94,658.95 "/>
   <polygon id="_273441096" class="fil1" points="225.39,665.65 227.63,589.67 216.45,658.95 "/>
   <path id="_273437400" class="fil1" d="M529.35 255.13c0,0 -5.75,34.48 0,75.34 0,0 3.19,-50.44 12.45,-69.91l-6.38 -5.11 -6.06 -0.32 -0 0z"/>
   <path id="_273437328" class="fil1" d="M204.41 255.13c0,0 5.75,34.48 0,75.34 0,0 -3.19,-50.44 -12.45,-69.91l6.38 -5.11 6.06 -0.32 0 0z"/>
   <g>
    <path id="_273441984_0" class="fil4" d="M167.75 390.57l0 -44.87c0,-91.48 84.72,-125.44 164.03,-140.07 26.14,-4.82 44.23,-4.82 70.36,0 79.31,14.62 155.58,49.24 159.01,140.66l1.53 40.92c-26.24,-26.15 -29.15,-49.73 -29.15,-49.73 -32.63,2.93 -54.38,-25.93 -54.38,-25.93 -44.34,-1.67 -56.89,-17.99 -56.89,-17.99 -33.45,12.39 -72.56,15.73 -110.61,0 0,0 -12.55,16.31 -56.89,17.99 0,0 -21.75,28.86 -54.38,25.93 0,0 -3.16,25.63 -32.63,53.08z"/>
    <path class="fil3" d="M404.44 239.69c23.29,-11.11 29.01,11.32 9.8,20.57 -22.14,10.67 -27.12,-12.31 -9.8,-20.57z"/>
    <path id="_273441840_1" class="fil3" d="M167.81 341.66c2.47,-88.44 85.84,-121.62 163.97,-136.02 26.14,-4.82 44.23,-4.82 70.36,0 79.31,14.62 155.58,49.24 159.01,140.66l0.02 0.41c-11.6,-79.78 -83.82,-111.31 -158.75,-125.12 -26.34,-4.86 -44.57,-4.86 -70.91,0 -73.51,13.55 -151.63,43.6 -163.69,120.07z"/>
    <g>
     <path id="_273441768_2" class="fil5" d="M529.8 265c18.34,20.31 30.05,46.75 31.35,81.3l3.04 80.99c-38.09,-43.38 -37.91,-120.21 -34.38,-162.29z"/>
     <path id="_273441696_3" class="fil5" d="M167.75 429.47l0 -83.77c0,-37.18 13.99,-64.86 35.93,-85.6 3.94,41.42 5.73,124.73 -35.93,169.36z"/>
    </g>
    <g>
     <path id="_273441768_4" class="fil6" d="M529.8 265c0.5,0.55 0.99,1.11 1.48,1.67l0.33 0.38c0.52,0.6 1.03,1.21 1.54,1.82l0.01 0.01c0.27,0.33 0.55,0.66 0.82,0.99 0.48,0.59 0.96,1.19 1.43,1.8l0.44 0.57c0.57,0.74 1.13,1.48 1.68,2.23l0.52 0.71c0.42,0.58 0.84,1.17 1.25,1.77 0.29,0.42 0.58,0.83 0.86,1.25 0.37,0.54 0.73,1.09 1.09,1.64 0.23,0.35 0.46,0.71 0.68,1.06 0.34,0.53 0.68,1.07 1.01,1.61 0.3,0.48 0.59,0.97 0.88,1.46 0.31,0.53 0.63,1.06 0.93,1.6 0.31,0.53 0.61,1.07 0.91,1.61 0.24,0.43 0.47,0.86 0.7,1.3 0.31,0.57 0.61,1.15 0.91,1.73 0.23,0.44 0.45,0.88 0.67,1.33 0.31,0.62 0.61,1.24 0.91,1.87 0.21,0.44 0.42,0.88 0.62,1.33 0.31,0.68 0.62,1.35 0.92,2.04 0.15,0.34 0.29,0.67 0.44,1.01 0.33,0.78 0.66,1.58 0.98,2.37 0.14,0.34 0.27,0.68 0.4,1.02 0.3,0.76 0.59,1.52 0.87,2.3l0.38 1.04c0.3,0.84 0.59,1.68 0.87,2.54l0.27 0.82c0.3,0.93 0.6,1.87 0.88,2.82l0.22 0.76c0.26,0.91 0.52,1.82 0.77,2.74l0.18 0.69c0.27,1.02 0.53,2.06 0.77,3.1l0.15 0.64c0.25,1.08 0.49,2.16 0.71,3.26l0.1 0.49c0.21,1.07 0.42,2.14 0.61,3.23l0.09 0.49c0.2,1.15 0.38,2.31 0.56,3.48l0.08 0.53c0.17,1.19 0.33,2.4 0.47,3.61l0.03 0.29c0.14,1.2 0.26,2.41 0.38,3.64l0.04 0.44c0.11,1.24 0.21,2.49 0.29,3.76l0.03 0.49c0.08,1.26 0.14,2.54 0.19,3.82l0.01 0.15 1.53 40.91c-26.24,-26.15 -29.15,-49.72 -29.15,-49.72 -1.07,0.1 -2.12,0.16 -3.17,0.19 -3.08,-27.14 -2.17,-53.51 -0.57,-72.68z"/>
     <path id="_273441696_5" class="fil6" d="M167.75 390.57l0 -44.87 0 -0c0,-1.37 0.02,-2.73 0.06,-4.08l0.01 -0.35c0.04,-1.31 0.1,-2.61 0.17,-3.9l0.01 -0.12c0.08,-1.32 0.18,-2.62 0.29,-3.91l0.03 -0.29c0.11,-1.25 0.24,-2.49 0.39,-3.72l0.02 -0.19c0.15,-1.26 0.32,-2.51 0.51,-3.75l0.04 -0.24c0.19,-1.21 0.39,-2.41 0.61,-3.6l0.03 -0.17c0.23,-1.22 0.47,-2.43 0.74,-3.63l0.04 -0.18c0.26,-1.16 0.53,-2.3 0.81,-3.44l0.06 -0.24c0.3,-1.17 0.61,-2.33 0.95,-3.47l0.02 -0.08c0.33,-1.14 0.68,-2.26 1.04,-3.38l0.06 -0.19c0.74,-2.27 1.55,-4.48 2.42,-6.65l0.07 -0.17c0.87,-2.17 1.81,-4.29 2.8,-6.37l0.08 -0.17c1,-2.07 2.06,-4.1 3.17,-6.08l0.09 -0.16c0.55,-0.98 1.12,-1.95 1.7,-2.9l0.02 -0.04c0.59,-0.98 1.2,-1.94 1.82,-2.89l0.06 -0.09c0.61,-0.93 1.23,-1.85 1.86,-2.76l0.08 -0.11c0.64,-0.92 1.3,-1.82 1.96,-2.72l0.09 -0.12c0.65,-0.87 1.31,-1.72 1.98,-2.57l0.14 -0.18c0.69,-0.87 1.39,-1.73 2.11,-2.58l0.05 -0.05c0.71,-0.84 1.43,-1.67 2.17,-2.49l0.14 -0.16c1.49,-1.66 3.03,-3.28 4.61,-4.87l0.19 -0.19c0.79,-0.79 1.59,-1.56 2.4,-2.33l0.01 -0.01 0.02 -0.02c1.85,19.42 3.22,48.04 -0.13,77.57 -1.04,-0.03 -2.1,-0.09 -3.16,-0.19 0,0 -3.16,25.63 -32.63,53.08z"/>
    </g>
    <path id="_273441456_6" class="fil4" d="M281.38 348.14c0,0 79.56,25.31 182.59,-13.15 -57.6,33.65 -121.51,42.04 -182.59,13.15z"/>
    <path id="_273441384_7" class="fil4" d="M319.73 324.75c0,0 52.89,13.52 109.1,-7.11 0,0 -26.87,16.77 -56.53,17.62 -29.67,0.86 -52.56,-10.51 -52.56,-10.51z"/>
    <path id="_273437400_8" class="fil1" d="M524.72 309.55c0,0 1.44,34.92 15.44,73.74 0,0 -7.21,-50.02 -2.14,-70.98l-7.3 -3.69 -6 0.93z"/>
    <path id="_273437328_9" class="fil1" d="M209.27 312.91c0,0 -1.69,34.91 -15.96,73.63 0,0 7.57,-49.97 2.64,-70.96l7.32 -3.64 6 0.97z"/>
    <path class="fil1" d="M270.56 144.78c0,0 -33.06,-21.63 -20.04,-33.65 13.02,-12.02 46.26,0.23 59.29,17.77 13.02,17.53 -25.23,25.4 -39.25,15.88z"/>
    <path class="fil1" d="M297.82 131.7c0,0 -29.79,-30.49 -13.27,-40.12 16.52,-9.63 48.69,11.03 58.32,32.54 9.63,21.51 -32.5,20.88 -45.05,7.58z"/>
    <path class="fil1" d="M403.68 117.63c0,0 17.81,-38.73 -0.98,-42.25 -18.8,-3.52 -42.15,26.75 -44,50.24 -1.85,23.49 37.62,8.75 44.98,-7.99z"/>
    <path class="fil1" d="M438.97 121.33c0,0 25.57,-34.11 7.93,-41.51 -17.64,-7.4 -46.84,17.27 -53.59,39.85 -6.75,22.58 34.94,16.47 45.66,1.66z"/>
    <path class="fil1" d="M466.52 149.58c0,0 43.61,-26.95 27.11,-42.98 -16.49,-16.03 -60.02,-1.24 -77.5,21.07 -17.48,22.31 31.88,33.79 50.39,21.91z"/>
    <path class="fil1" d="M326.69 108.12c0,0 -7.24,-43.7 15.77,-39.23 23.01,4.47 39.6,42.52 33.61,65.32 -5.99,22.81 -46.64,-7.34 -49.38,-26.09z"/>
    <path class="fil7" d="M461.87 138.9c0,0 29.56,-15.3 19.94,-24.66 -9.63,-9.35 -41.08,3.7 -53.4,17.93 -12.32,14.23 -14.12,34.85 33.47,6.72zm-187.53 -2.25c0,0 -22.47,-12.37 -14.87,-19.39 7.6,-7.02 31.57,3.67 40.78,14.87 9.21,11.2 10.18,27.13 -25.91,4.52zm29.37 -12.64c0,0 -20.79,-18.27 -11.15,-23.89 9.64,-5.62 32.41,11.22 39.5,25.17 7.1,13.95 4.41,30.95 -28.35,-1.28zm34.23 -17.46c0,0 -7.2,-28.26 6.22,-25.65 13.43,2.61 23.58,31.19 20.52,46.58 -3.06,15.39 -17.85,26.16 -26.74,-20.93zm57.61 5.82c0,0 13.44,-24.2 2.47,-26.25 -10.97,-2.05 -26.75,21.46 -28.75,36.98 -1.99,15.52 6.25,30.64 26.28,-10.73zm36.58 2.11c0,0 18.23,-20.83 7.94,-25.14 -10.29,-4.32 -30.67,15.34 -35.89,30.1 -5.22,14.76 -0.34,31.26 27.95,-4.96z"/>
    <path class="fil8" d="M461.87 138.9c0,0 3.04,-1.58 6.86,-4.03 -11.63,-3.11 -20.71,-9.62 -25.97,-14.15 -5.71,3.39 -10.82,7.37 -14.36,11.45 -12.32,14.23 -14.12,34.85 33.47,6.73zm-192.92 -5.61c6.61,0.21 17.31,-0.76 23.71,-8.08 3,2.17 5.63,4.53 7.6,6.92 9.21,11.2 10.18,27.13 -25.91,4.52 0,0 -2.41,-1.33 -5.39,-3.36zm32.46 -11.43c6.18,-0.42 15.48,-2.15 21.63,-8.42 3.82,3.81 7.04,7.94 9.03,11.86 7.1,13.95 4.41,30.95 -28.35,-1.28 0,0 -0.93,-0.82 -2.3,-2.16zm37.49 -10.58c7.66,1.68 17.53,2.47 24.9,-1.74 1.47,6.48 1.88,12.91 0.88,17.94 -2.96,14.85 -16.83,25.39 -25.79,-16.2zm35 -2.59c5.84,1.75 14.92,3.57 22.89,1.29 -0.73,1.48 -1.24,2.39 -1.24,2.39 -20.03,41.37 -28.27,26.26 -26.28,10.73 0.57,-4.41 2.25,-9.47 4.62,-14.41zm35.17 1.34c4.59,3.28 12.14,7.39 20.88,7.19 -26.35,32.61 -30.84,16.59 -25.76,2.22 1.07,-3.01 2.76,-6.23 4.88,-9.41z"/>
    <g>
     <path class="fil1" d="M295.08 158.36c0,0 -46.81,7.24 -84.65,-32.89 0,0 -16.36,14.68 -12.84,43.3 0,0 27.28,20.97 55.27,18.62 27.99,-2.35 32.71,-8.72 59.54,-2.52l0.22 -11.24 -17.53 -15.27z"/>
     <path class="fil9" d="M212.27 139.69c0,0 31.59,33.73 83.86,26.07l0.14 5.87c-37.04,14.48 -54.97,12.79 -89.48,-8.36 0,0 -1.9,-11.89 5.48,-23.58z"/>
     <path class="fil10" d="M252.14 162.7c12.24,3.67 27.02,5.54 43.99,3.06l0.14 5.87c-26.58,10.39 -43.32,12.46 -63.4,4.98 8.23,-3.96 14.51,-8.86 19.28,-13.91z"/>
    </g>
    <path class="fil1" d="M285.24 180.21l-15.85 -34.79c48.38,-40.93 156.39,-40.93 204.77,0l-15.85 34.79 -86.53 -7.75 -86.53 7.75z"/>
    <path class="fil9" d="M297.1 180.69l-13.89 -30.48c42.38,-33.94 137.01,-34.13 179.4,0l-13.89 30.48 -75.81 -6.79 -75.81 6.79z"/>
    <path class="fil11" d="M283.33 150.48l-0.12 -0.26c42.38,-33.94 137.01,-34.13 179.4,0l-1.56 3.42c-83.1,-40.24 -164.6,-8.74 -177.72,-3.16z"/>
    <path id="_273439224" class="fil1" d="M415.46 167.2c-5.7,-7 -31,-32 -106.58,-39.43 3.66,-1.49 7.47,-2.49 9.89,-3.04l0.4 -0.09c30.15,3.03 70.64,11.85 98.18,36.33l-1.88 6.22z"/>
    <path class="fil1" d="M158.51 376.02c0,0 -44.76,-88.68 25.52,-143.9 0,0 8.73,-43.92 60.59,-48.94 0,0 23.47,-29.37 70.26,-22.91 36.74,-29.73 72.67,-21.67 103.03,-0.19 45.85,-6.65 69.14,23.09 69.14,23.09 51.87,5.02 61.91,48.94 61.91,48.94 70.27,55.22 25.52,143.9 25.52,143.9 -37.65,-30.12 -41.41,-60.65 -41.41,-60.65 -32.63,2.93 -54.38,-25.93 -54.38,-25.93 -44.34,-1.67 -56.89,-17.99 -56.89,-17.99 -33.45,12.39 -72.56,15.73 -110.61,0 0,0 -12.55,16.31 -56.89,17.99 0,0 -21.75,28.86 -54.38,25.93 0,0 -3.76,30.54 -41.41,60.65z"/>
    <path class="fil7" d="M162.44 352.59c0,0 -22.53,-55.23 19.63,-100.89 1.64,8.36 5.68,13.67 5.68,13.67 -0.15,-14.38 3.24,-25.53 5.32,-31 5.49,-12.43 18.72,-32.71 47.59,-37.1 -3.57,18.43 0,35.69 0,35.69 3.05,-37.54 24.1,-65.26 67.84,-60.74 -5.14,19.35 -1.96,42.96 -1.96,42.96 11.02,-81.65 108.86,-81.72 119.9,0 0,0 3.94,-22.11 -1.21,-41.46 23.66,-5.66 41.04,4.26 50.93,12.76l-0 0c0,0 13.44,13.02 16.16,46.48 0,0 3.57,-17.26 0,-35.69 28.88,4.39 42.1,24.67 47.59,37.1 2.08,5.47 5.47,16.62 5.32,31 0,0 4.04,-5.32 5.68,-13.67 42.16,45.65 19.63,100.89 19.63,100.89 -26.98,-29.91 -26.98,-51.24 -26.98,-51.24 -44.97,3.14 -61.28,-25.1 -61.28,-25.1 -45.39,2.72 -56.47,-21.96 -56.47,-21.96 -27.28,21.73 -91.35,21.73 -118.63,0 0,0 -11.09,24.68 -56.47,21.96 0,0 -16.31,28.24 -61.28,25.1 0,0 0,21.33 -26.98,51.24z"/>
    <path class="fil8" d="M278.04 224.94c0.02,-0.13 -1.34,10.33 3.68,26.5l-12.38 1.41c0.08,-10 3.02,-22.36 8.7,-27.9z"/>
    <path class="fil12" d="M463.45 212.98c-0.01,0.13 3.29,-15.9 -5.48,-31.77l10.27 2.88c1.71,10.84 0.72,23.19 -4.79,28.89z"/>
    <path class="fil12" d="M218.14 237.61c-0.05,0.12 3.93,-23.44 20.92,-28.99l-7.45 -6.05c-11.24,7.56 -16.25,21.35 -13.47,35.04z"/>
    <path class="fil12" d="M514.92 239.95c0.05,0.12 -3.93,-23.44 -20.92,-28.99l7.45 -6.05c11.24,7.56 16.25,21.35 13.47,35.04z"/>
    <path class="fil8" d="M568.5 342.03c-23.64,-27.69 -23.64,-47.05 -23.64,-47.05 -45.58,3.14 -62.12,-25.1 -62.12,-25.1 -46,2.72 -57.24,-21.96 -57.24,-21.96 -27.65,21.73 -92.6,21.73 -120.25,0 0,0 -11.24,24.68 -57.24,21.96 0,0 -16.54,28.24 -62.12,25.1 0,0 -0,19.9 -24.64,48.21 8.16,-19.97 16.96,-45.75 13.89,-58.94 0,0 47.14,0.75 71.09,-34.5 0,0 40.3,4.13 58.16,-22.88 0,0 64.25,43.51 121.27,-2.25 0,0 34.22,35.25 64.25,19.13 0,0 31.17,39.76 56.26,30.38 0,0 7.38,41.7 22.31,67.9z"/>
    <path class="fil12" d="M158.63 339.03c-3.91,-19.22 -5.87,-55.58 23.44,-87.32 0.72,3.68 1.91,6.78 3.01,9.08 -30.38,30.67 -26.42,78.22 -26.42,78.22l-0.03 0.02zm29.62 -84.06c1,-9.33 3.27,-16.52 4.82,-20.59 5.49,-12.43 18.72,-32.71 47.59,-37.1 -0.73,3.78 -1.16,7.51 -1.39,11.05 -34.74,10.91 -47.36,36.73 -51.02,46.63zm52.95 -27.19c4.52,-34.87 25.59,-59.86 67.29,-55.56 -0.84,3.16 -1.46,6.44 -1.9,9.71 -45.84,1.83 -61.9,36.56 -65.39,45.85zm66.1 -17.29c12.84,-70.14 92.34,-75.06 114.44,-14.61 -6.38,-12.33 -21.19,-30.52 -53.05,-30.52 -41.51,0 -57.7,35.33 -61.39,45.13zm119.33 -30.2c-0.37,-2.2 -0.83,-4.4 -1.4,-6.56 23.66,-5.66 41.04,4.26 50.93,12.76l-0 0c0,0 9.67,9.37 14.26,32.64 -13.21,-38.48 -55.33,-39.11 -63.79,-38.83zm67.21 30.6c-0.16,-4.28 -0.6,-8.9 -1.52,-13.6 28.88,4.39 42.1,24.67 47.59,37.1 1.48,3.88 3.61,10.62 4.67,19.34 -11.38,-35.6 -44.1,-41.91 -50.75,-42.84zm52.35 53.06c1.3,-2.11 3.59,-6.44 4.72,-12.24 42.16,45.65 19.63,100.89 19.63,100.89 -0.67,-0.75 -1.33,-1.49 -1.97,-2.22 6.81,-59.8 -17.98,-82.84 -22.38,-86.43z"/>
    <path class="fil8" d="M426.57 214.39c0.64,-4.13 3.23,-23.48 -1.34,-40.66 0.35,-0.08 0.71,-0.17 1.06,-0.24 2.37,4.78 17.2,36.62 9.25,68.77l-12.56 -1.5c0,0 3.17,-12.23 3.59,-26.36z"/>
    <path class="fil8" d="M337.46 186.83c0,0 -9.75,39.94 2.44,66.95l13.5 0.75c0,0 -9.94,-13.31 -15.94,-67.7z"/>
    <path class="fil8" d="M404.4 193.46c0,0 8.45,34.6 -2.11,57.99l-11.69 0.65c0,0 8.61,-11.53 13.81,-58.64z"/>
    <path class="fil12" d="M342.9 163.96c0,0 -2.44,21.94 4.13,48.19 0,0 -0.38,-18.75 10.31,-49.13l-3.19 -1.88 -11.25 2.81z"/>
    <ellipse class="fil12" transform="matrix(0.834808 0.120527 0.0704596 0.818364 271.663 121.315)" rx="10.5" ry="5.81"/>
    <ellipse class="fil12" transform="matrix(0.280932 1.09874 -0.979814 0.509598 344.004 95.4776)" rx="10.5" ry="5.81"/>
    <ellipse class="fil12" transform="matrix(-1.01753 0.500798 -0.700132 -0.854132 464.96 119.857)" rx="10.5" ry="5.81"/>
   </g>
  </g>
 </g>
</svg>
