<?xml version="1.0" encoding="UTF-8"?>
<!DOCTYPE svg PUBLIC "-//W3C//DTD SVG 1.1//EN" "http://www.w3.org/Graphics/SVG/1.1/DTD/svg11.dtd">
<!-- Creator: CorelDRAW 2020 (64-Bit) -->
<svg xmlns="http://www.w3.org/2000/svg" xml:space="preserve" width="129.436mm" height="197.988mm" version="1.1" style="shape-rendering:geometricPrecision; text-rendering:geometricPrecision; image-rendering:optimizeQuality; fill-rule:evenodd; clip-rule:evenodd"
viewBox="0 0 2057.99 3147.96"
 xmlns:xlink="http://www.w3.org/1999/xlink"
 xmlns:xodm="http://www.corel.com/coreldraw/odm/2003">
 <defs>
  <style type="text/css">
   <![CDATA[
    .fil0 {fill:none}
    .fil5 {fill:#4B3446}
    .fil1 {fill:#501D33}
    .fil4 {fill:#634C54}
    .fil6 {fill:#896E6B}
    .fil3 {fill:#8E7A5D}
    .fil2 {fill:#C3C077}
    .fil7 {fill:#E0E28A}
   ]]>
  </style>
 </defs>
 <g id="Слой_x0020_1">
  <metadata id="CorelCorpID_0Corel-Layer"/>
  <g id="_1746297867376">
   <g id="_269443448">
    <rect id="_269454152" class="fil0" y="0" width="2057.99" height="3147.96"/>
    <path id="_124533160" class="fil1" d="M420.84 1681.63c-0.27,-6.45 -0.02,-13.27 0.1,-19.6 0.24,-13.03 0.63,-26.05 1.03,-39.07 1.13,-36.28 2.51,-72.56 3.93,-108.83 2.19,-55.99 4.5,-111.98 6.94,-167.97l0 -378.43c0,-273.23 244.84,-381.77 490.38,-427.05 76.56,-14.12 134.99,-14.12 211.56,0 249.98,46.09 466.13,159.13 476.2,427.56l14.15 377.33c2.45,56.18 4.77,112.36 6.96,168.55 1.42,36.27 2.79,72.55 3.93,108.83 0.41,13.02 0.79,26.05 1.04,39.07 0.12,6.33 0.37,13.15 0.1,19.59 1.38,18.74 -9.47,36.6 -20.84,51.23 -14.25,18.33 -32.24,35.54 -49.72,51.1 -49.55,44.08 -106.86,84.48 -163.28,120.26 -244.89,155.32 -490.7,160.96 -738.04,6.66 -58.92,-36.76 -118.69,-78.43 -170.48,-123.93 -18.29,-16.07 -37.12,-33.85 -52.1,-52.8 -11.77,-14.89 -23.26,-33.27 -21.85,-52.51l0 0z"/>
    <path id="_124533088" class="fil2" d="M458.55 1680.36c-1.69,-23.37 11.84,-333.89 11.84,-333.89l0 -377.07c0,-256.53 237.56,-351.76 459.95,-392.77 73.3,-13.51 124.01,-13.51 197.31,0 222.39,41 436.26,138.08 445.87,394.44l14.08 375.4c0,0 13.53,310.52 11.84,333.89 5.32,27.88 -90.87,113.26 -217.24,193.4 -231.87,147.06 -461.38,152.92 -696.11,6.49 -131.4,-81.97 -233.01,-171.26 -227.55,-199.89l0 0z"/>
    <path id="_124533016" class="fil3" d="M470.39 1037.41l0 -68.02c0,-256.53 237.56,-351.76 459.95,-392.77 73.3,-13.51 124.01,-13.51 197.31,0 222.39,41 436.26,138.08 445.87,394.44l2.54 67.75c-34.95,8.94 -64.59,12.73 -64.59,12.73 -16.13,-231.15 -141.59,-306.21 -141.59,-306.21 -251.54,75.19 -344.64,201.27 -344.64,201.27 -116.1,-122.46 -342.84,-205.75 -342.84,-205.75 -162.92,120.85 -154.86,291.82 -154.86,291.82 -4.99,24.12 -30.76,18.51 -57.16,4.73l0 -0z"/>
    <g>
     <path id="_124532944" class="fil3" d="M1485.62 743.08c51.43,56.96 84.26,131.09 87.9,227.98l8.52 227.1c-106.81,-121.65 -106.3,-337.08 -96.42,-455.08l0 -0z"/>
     <path id="_124532872" class="fil3" d="M470.39 1204.29l0 -234.89c0,-104.26 39.23,-181.87 100.74,-240.03 11.06,116.14 16.07,349.75 -100.75,474.92z"/>
    </g>
    <path id="_124532776" class="fil3" d="M1389.67 1854.32c-3.05,1.96 -6.11,3.93 -9.19,5.88 -227.46,144.27 -452.61,150.01 -682.87,6.36 -20.45,-12.76 -40.17,-25.7 -58.84,-38.55l-0.01 -0.51c0,0 341.87,213.69 750.92,26.81z"/>
    <path id="_124532704" class="fil3" d="M458.55 1680.36c-1.69,-23.37 11.84,-333.89 11.84,-333.89l0 -28.65c51.77,36.14 155.95,147.13 168.44,192.18 12.5,45.05 -4.56,196.2 -9.88,332.9 -102.46,-70.17 -175.04,-138.22 -170.4,-162.54zm1128 -361.93l1.05 28.04c0,0 13.53,310.52 11.84,333.89 4.63,24.32 -67.95,92.37 -170.41,162.54 -10.69,-127.74 -24.12,-289.8 -11.66,-334.69 12.45,-44.89 118.53,-142.43 169.18,-189.78z"/>
    <path id="_124532632" class="fil3" d="M1327.97 869.46c16.76,-4.54 34.77,8.04 40.2,28.1 5.43,20.06 -3.76,40 -20.52,44.54 -16.77,4.54 -34.77,-8.04 -40.2,-28.1 -5.43,-20.06 3.76,-40 20.52,-44.54zm40.33 -48.58c7.76,-2.1 16.1,3.73 18.61,13.01 2.51,9.29 -1.74,18.52 -9.5,20.63 -7.76,2.1 -16.1,-3.73 -18.61,-13.01 -2.52,-9.29 1.74,-18.52 9.5,-20.63zm28.32 105.27c5.08,-1.38 10.53,2.44 12.17,8.51 1.65,6.07 -1.14,12.11 -6.21,13.49 -5.08,1.37 -10.53,-2.44 -12.17,-8.51 -1.65,-6.07 1.14,-12.11 6.21,-13.48z"/>
    <polygon id="_124532560" class="fil1" points="1421.72,1866.57 1415.45,1653.53 1446.78,1847.78 "/>
    <polygon id="_124532488" class="fil1" points="632.03,1866.57 638.3,1653.53 606.97,1847.78 "/>
    <path id="_124532416" class="fil1" d="M1484.38 715.41c0,0 -16.11,96.68 0,211.26 0,0 8.95,-141.43 34.91,-196.04l-17.9 -14.32 -17.01 -0.9z"/>
    <path id="_124532344" class="fil1" d="M573.19 715.41c0,0 16.11,96.68 0,211.26 0,0 -8.95,-141.43 -34.91,-196.04l17.9 -14.32 17.01 -0.9z"/>
    <path id="_124526056" class="fil1" d="M1216.41 761.44c0,0 -50.1,38.86 -57.7,104.09 40.28,-51.39 97.83,-102.55 155.28,-134.27l-97.59 30.19z"/>
    <path id="_124525984" class="fil1" d="M670.84 696.2c0,0 60.87,35.81 145.01,119.06 0,0 -8.76,-49.81 -39.14,-85.1 -30.38,-35.3 -105.87,-33.95 -105.87,-33.95z"/>
    <path id="_124525912" class="fil1" d="M1023.53 935.21c-55.83,-118.6 -246.89,-166.92 -351.11,-236.18 -176.3,107.51 -159.77,356.59 -159.77,356.59l-56.2 225.01 -22.76 -198.13c-5.82,-119.93 -30.85,-236.25 -9.76,-287.02 147.09,-354.15 1057.35,-350.2 1201.19,1.79 20.8,50.89 -6.63,165.3 -12.44,285.23l-23.35 219.52 -55.62 -246.4c0,0 16.53,-249.07 -159.77,-356.59 -82.66,54.93 -309.55,123.16 -350.4,236.18l-0 0z"/>
    <path id="_124525840" class="fil4" d="M461.3 1041.18l20.51 -6.98c0.11,-40.78 6.51,-86.73 15.22,-123.53 22.95,-97.02 72.73,-184.41 159.66,-237.44l16.43 -10.02 16.02 10.65c93.94,62.39 270.34,113.31 327.05,198.81 45.06,-70 208.49,-118.84 279.52,-160.73 20.64,-12.18 41.53,-24.81 61.5,-38.08l16.02 -10.65 16.43 10.02c86.94,53.02 136.72,140.41 159.67,237.44 8.71,36.8 15.11,82.76 15.22,123.53l20.51 6.98c3.35,-42.83 8.26,-85.39 11.79,-128.28 2.13,-25.91 6.39,-77.41 -3.35,-101.71 -38.74,-96.58 -150.51,-160.19 -242.8,-195.84 -193.49,-74.74 -461.42,-74.78 -655.06,0.01 -92.28,35.64 -204.04,99.25 -242.78,195.83 -9.75,24.3 -5.48,75.8 -3.35,101.71 3.52,42.88 8.44,85.45 11.79,128.28l0 0z"/>
    <path id="_124525768" class="fil5" d="M448.05 893.96c16.47,3.17 33.61,5.59 51.34,7.11 -0.82,3.19 -1.61,6.39 -2.36,9.6 -8.71,36.8 -8.86,99.29 -8.96,140.06l-23.64 124.93c-3.35,-42.83 -11.39,-219.88 -14.92,-262.76 -0.44,-5.37 -0.98,-11.85 -1.46,-18.95z"/>
    <path id="_124525696" class="fil5" d="M1545.75 896.46c1.26,4.71 2.45,9.45 3.58,14.22 8.71,36.8 8.63,105.58 8.74,146.35l30.57 140.34c-1.13,-45.52 4.68,-241.57 8.21,-284.46 0.83,-10.12 1.98,-24.15 2.5,-38.94 -16.5,7.99 -34.41,15.63 -53.61,22.49z"/>
    <path id="_124525624" class="fil6" d="M1599.53 868.13c0.48,-21.33 -0.59,-43.37 -6.03,-56.93 -38.74,-96.58 -150.51,-160.19 -242.8,-195.84 -193.49,-74.74 -461.42,-74.78 -655.06,0.01 -92.28,35.64 -204.04,99.25 -242.78,195.83 -5.44,13.56 -6.51,35.6 -6.03,56.93 0.4,-15.45 2.04,-29.97 6.03,-39.92 38.74,-96.58 150.5,-160.19 242.78,-195.83 193.64,-74.79 461.57,-74.75 655.06,-0.01 92.28,35.65 204.05,99.25 242.8,195.84 3.99,9.95 5.63,24.47 6.03,39.92z"/>
    <g>
     <g>
      <circle id="_123939920" class="fil3" cx="661.74" cy="864.25" r="37.75"/>
      <circle id="_123939848" class="fil1" cx="656.78" cy="857.39" r="34.59"/>
      <circle id="_123939776" class="fil2" cx="663.49" cy="862.5" r="28.33"/>
      <path id="_123939704" class="fil3" d="M678.64 842.18c6.18,4.62 10.19,12 10.19,20.31 0,13.99 -11.34,25.34 -25.33,25.34 -9.76,0 -18.23,-5.53 -22.46,-13.62 4.22,3.16 9.47,5.03 15.14,5.03 13.99,0 25.33,-11.34 25.33,-25.33 0,-4.23 -1.04,-8.21 -2.87,-11.72z"/>
      <circle id="_123939632" class="fil7" transform="matrix(0.347947 -0.237931 0.164677 0.240822 657.604 853.828)" r="48.4"/>
     </g>
     <g>
      <circle id="_123939536" class="fil3" transform="matrix(1.44396 0.461354 -0.523534 1.27246 787.404 900.891)" r="48.4"/>
      <circle id="_123939464" class="fil1" transform="matrix(1.28717 0.422845 -0.515322 1.16625 787.79 888.653)" r="48.4"/>
      <circle id="_123939392" class="fil2" transform="matrix(1.08385 0.346295 -0.392968 0.955117 791.821 899.071)" r="48.4"/>
      <path id="_123939320" class="fil3" d="M833.5 874.89c8.35,11.2 10.81,25.61 5.23,39.17 -9.39,22.83 -38.01,34.63 -63.92,26.35 -18.07,-5.77 -30.05,-19.81 -32.45,-35.51 5.7,7.65 14.15,13.81 24.66,17.17 25.91,8.28 54.53,-3.52 63.92,-26.35 2.84,-6.9 3.59,-14.02 2.55,-20.82z"/>
      <circle id="_123939248" class="fil7" transform="matrix(0.80399 -0.182384 0.143245 0.490368 786.742 881.445)" r="48.4"/>
     </g>
     <circle id="_123939152" class="fil7" cx="638.44" cy="929.19" r="17.2"/>
     <circle id="_123939080" class="fil7" cx="694.96" cy="941.48" r="7.6"/>
     <circle id="_123939008" class="fil7" cx="903.6" cy="884.74" r="10.72"/>
    </g>
    <path id="_123937280" class="fil1" d="M1365.13 689.94c0,0 -38.42,61.66 -89.36,105.89 0,0 81.76,-50.04 122.42,-100.08l-11.62 -12.51 -21.45 6.7z"/>
    <path id="_123937208" class="fil1" d="M799.95 699.32c0,0 73.62,38.48 119.75,105.19l99.18 73.52c0,0 -33.51,-108.12 -218.92,-178.71z"/>
    <path id="_123937136" class="fil1" d="M1010.54 887.06c0,0 44.7,-128.1 177.63,-163.25 0,0 -87.96,44.26 -123.62,139.03l-26.07 27.88 -27.94 -3.66z"/>
    <path id="_123937064" class="fil6" d="M1345.46 625.41c0,0 -58.3,21.81 -122.39,60.97 0,0 49.85,-52.07 96.58,-74.32l13.35 5.34 12.46 8.01z"/>
    <path id="_123936992" class="fil1" d="M985.04 735.59c0,8.95 22.38,151.28 22.38,151.28l33.12 -2.69 -55.5 -148.6z"/>
    <path id="_123936920" class="fil6" d="M706.13 622.48c0,0 100.78,27.17 187.61,75.51 0,0 -37.6,-46.55 -149.49,-94.89l-20.7 8.65 -17.42 10.72z"/>
    <path id="_123936848" class="fil6" d="M1246.12 625.6c0,0 -90.25,46.74 -164.1,116.13 0,0 35.4,-71.14 61.51,-85.5 26.11,-14.36 102.6,-30.63 102.6,-30.63z"/>
    <path id="_123936776" class="fil6" d="M1022.52 563.63c0.11,4.56 5.52,186.36 5.52,186.36l28.72 -179.45c0,0 -33.04,-8.52 -34.23,-6.91z"/>
    <path id="_123936704" class="fil1" d="M908.34 812.67c0,0 39.5,39.46 42.18,104.69 0,0 24.57,-31.72 13.4,-76.85 -11.17,-45.12 -55.58,-27.84 -55.58,-27.84z"/>
   </g>
  </g>
 </g>
</svg>
