<?xml version="1.0" encoding="UTF-8"?>
<!DOCTYPE svg PUBLIC "-//W3C//DTD SVG 1.1//EN" "http://www.w3.org/Graphics/SVG/1.1/DTD/svg11.dtd">
<!-- Creator: CorelDRAW 2020 (64-Bit) -->
<svg xmlns="http://www.w3.org/2000/svg" xml:space="preserve" width="129.436mm" height="197.988mm" version="1.1" style="shape-rendering:geometricPrecision; text-rendering:geometricPrecision; image-rendering:optimizeQuality; fill-rule:evenodd; clip-rule:evenodd"
viewBox="0 0 1311.31 2005.81"
 xmlns:xlink="http://www.w3.org/1999/xlink"
 xmlns:xodm="http://www.corel.com/coreldraw/odm/2003">
 <defs>
  <style type="text/css">
   <![CDATA[
    .fil0 {fill:none}
    .fil6 {fill:#4B3446}
    .fil1 {fill:#501D33}
    .fil5 {fill:#634C54}
    .fil7 {fill:#896E6B}
    .fil3 {fill:#8E7A5D}
    .fil2 {fill:#C3C077}
    .fil4 {fill:#E0E28A}
   ]]>
  </style>
 </defs>
 <g id="Слой_x0020_1">
  <metadata id="CorelCorpID_0Corel-Layer"/>
  <g id="_1782064159552">
   <g id="_268910576">
    <rect id="_273431088" class="fil0" y="0" width="1311.31" height="2005.81"/>
    <path id="_269919408" class="fil1" d="M268.15 1071.5c-0.17,-4.11 -0.01,-8.45 0.06,-12.49 0.15,-8.3 0.4,-16.6 0.66,-24.89 0.72,-23.12 1.6,-46.23 2.5,-69.34 1.39,-35.68 2.87,-71.35 4.42,-107.03l0 -241.13c0,-174.1 156,-243.26 312.46,-272.1 48.78,-8.99 86.01,-8.99 134.8,0 159.28,29.37 297.01,101.39 303.42,272.43l9.02 240.43c1.56,35.79 3.04,71.6 4.44,107.4 0.9,23.11 1.78,46.23 2.5,69.34 0.26,8.3 0.51,16.6 0.66,24.89 0.07,4.03 0.24,8.38 0.06,12.49 0.88,11.94 -6.04,23.32 -13.28,32.64 -9.08,11.68 -20.54,22.64 -31.68,32.56 -31.58,28.08 -68.09,53.83 -104.04,76.63 -156.04,98.97 -312.66,102.56 -470.26,4.24 -37.54,-23.42 -75.63,-49.98 -108.62,-78.97 -11.66,-10.24 -23.65,-21.57 -33.2,-33.64 -7.5,-9.49 -14.82,-21.2 -13.92,-33.46l0 0z"/>
    <path id="_269919336" class="fil2" d="M292.18 1070.69c-1.08,-14.89 7.54,-212.75 7.54,-212.75l0 -240.26c0,-163.46 151.37,-224.14 293.07,-250.26 46.7,-8.61 79.02,-8.61 125.72,0 141.7,26.13 277.97,87.98 284.1,251.33l8.97 239.2c0,0 8.62,197.86 7.54,212.75 3.39,17.77 -57.9,72.17 -138.42,123.23 -147.74,93.71 -293.98,97.43 -443.54,4.13 -83.73,-52.23 -148.47,-109.12 -144.99,-127.37l0 0z"/>
    <path id="_269919264" class="fil3" d="M312.66 541.27c39.51,-107.13 163.11,-152.28 280.14,-173.86 46.7,-8.61 79.02,-8.61 125.72,0 53.53,9.87 106.28,24.84 151.53,48.46l52.69 34.72c23.22,19.4 42.54,42.63 56.38,70.53l-4.62 66.27c-62.8,-99.33 -148.43,-113.03 -148.43,-113.03 -94.77,86.77 -177.36,105.74 -177.36,105.74 -88.41,-16.54 -175.67,-99.82 -175.67,-99.82 -69.02,10.27 -136.32,81.56 -136.32,81.56 -10.12,-5.84 -18,-12.81 -24.06,-20.57z"/>
    <path id="_269919192" class="fil4" d="M299.83 610.45c4.4,-158.02 153.37,-217.3 292.97,-243.04 46.7,-8.61 79.02,-8.61 125.72,0 141.7,26.13 277.97,87.98 284.1,251.33l0.03 0.74c-20.72,-142.55 -149.77,-198.87 -283.64,-223.55 -47.07,-8.68 -79.63,-8.68 -126.7,0 -131.35,24.22 -270.92,77.9 -292.48,214.53z"/>
    <g>
     <path id="_269919120" class="fil3" d="M946.61 473.48c32.77,36.29 53.69,83.52 56.01,145.27l5.43 144.7c-68.06,-77.51 -67.73,-214.78 -61.43,-289.97z"/>
     <path id="_269919048" class="fil3" d="M299.72 767.35l0 -149.67c0,-66.43 25,-115.88 64.19,-152.94 7.05,74 10.24,222.85 -64.19,302.61z"/>
    </g>
    <path id="_269918952" class="fil3" d="M885.47 1181.53c-1.94,1.25 -3.89,2.5 -5.86,3.75 -144.93,91.92 -288.39,95.58 -435.11,4.05 -13.03,-8.13 -25.59,-16.38 -37.49,-24.56l-0.01 -0.32c0,0 217.83,136.16 478.47,17.08l-0 0z"/>
    <path id="_269918880" class="fil3" d="M292.18 1070.69c-1.08,-14.89 7.54,-212.75 7.54,-212.75l0 -18.26c32.99,23.03 99.37,93.75 107.33,122.45 7.96,28.71 -2.91,125.02 -6.3,212.12 -65.29,-44.71 -111.53,-88.07 -108.58,-103.56zm718.74 -230.61l0.67 17.86c0,0 8.62,197.86 7.54,212.75 2.95,15.49 -43.29,58.85 -108.58,103.57 -6.81,-81.39 -15.37,-184.65 -7.43,-213.26 7.94,-28.6 75.53,-90.76 107.8,-120.92z"/>
    <polygon id="_269918808" class="fil1" points="905.89,1189.34 901.89,1053.6 921.86,1177.37 "/>
    <polygon id="_269918736" class="fil1" points="402.72,1189.34 406.71,1053.6 386.75,1177.37 "/>
    <path id="_269473952" class="fil1" d="M896.85 372.35c0,0 -9.98,-28.98 2.32,-67.32 -10.39,2.79 -28.87,31.14 -29.27,55.1 -0.41,23.95 22.23,25.36 26.95,12.22z"/>
    <path id="_269473880" class="fil1" d="M455.33 347.39c0,0 20.53,-53.62 19.39,-112.93 0,0 21.38,54.76 7.13,101.53 -14.26,46.76 -26.52,11.41 -26.52,11.41z"/>
    <path id="_269473808" class="fil1" d="M793.99 330.72c0,0 -7.89,-38.93 17.33,-67.27 0,0 -12.59,32.88 7.44,59.43 20.03,26.55 -24.77,7.84 -24.77,7.84z"/>
    <path id="_269473736" class="fil1" d="M955.19 435.59c0,0 -23.83,-36 -4.46,-72.65 0,0 2.24,35.67 21.72,60.97l-7.43 13.66 -9.83 -1.97z"/>
    <path id="_269473664" class="fil1" d="M279.21 789.57l49.09 -59.94c0,0 -13.13,-78.78 -12.56,-148.42 21.71,-57.39 87.41,-127.85 168.61,-144.89 41.2,49.99 63.13,88.28 151.12,138.21 12.53,7.11 16.17,6.7 28.58,-0.38 87.58,-49.96 126.7,-107.26 141.07,-136.97 80.56,11.71 165.98,102.66 179.71,148.02 -0.57,68.51 -12.56,141.58 -12.56,141.58l58.79 66.22c-1.01,-127.28 4.36,-252.01 12.26,-378.93 -26.24,4.58 -38.56,19.38 -38.56,19.38 -2.28,-33.59 -22.49,-41.56 -22.49,-41.56 -6.26,18.22 -20.51,27.04 -20.51,27.04 -29.66,-23.96 -45.21,-75 -45.21,-75 -14.24,7.99 -29.07,26.97 -29.07,26.97 -27.95,-41.64 -22.12,-90.87 -22.12,-90.87 -46.19,12.84 -59.89,47.08 -59.89,47.08 -23.67,-65.88 -61.6,-69.32 -61.6,-69.32 -2.85,20.26 -13.13,33.95 -13.13,33.95 -26.21,-67.32 -80.98,-80.73 -80.98,-80.73 4.56,23.96 -1.75,43.65 -1.75,43.65 -44.53,-77.08 -115.89,-84.5 -115.89,-84.5 -22.83,113.61 -76.29,174.33 -76.29,174.33 -27.95,-10.84 -45.06,-26.25 -45.06,-26.25 -23.65,24.25 -23.93,55.37 -23.93,55.37 -12.84,-18.57 -38.8,-21.71 -38.8,-21.71 2.86,31.09 -2.85,59.04 -2.85,59.04 -16.54,-17.11 -46.21,-15.12 -46.21,-15.12 3.42,27.38 -4.56,51.33 -4.56,51.33 -11.41,-7.99 -41.64,-9.13 -41.64,-9.13 16.65,109.16 21.38,242.36 26.43,351.55z"/>
    <path id="_269473592" class="fil5" d="M851.67 302.28c0,0 1.71,73.58 52.47,106.09 0,0 -6.72,-13.92 -9.56,-22.18 0,0 10.82,-17.93 17.37,-23.63 0,0 12.16,46.95 52.09,76.04 0,0 15.1,-10.85 19.08,-23.09 12.13,17.49 11.06,47.33 8.55,59.07 0,0 13.37,-22.91 29.31,-35.44l-10.18 310.88 -21.67 -27.38c0,0 9.7,-77 11.98,-140.31 -37.3,-84.6 -100.82,-143.86 -191.23,-162.45 7.62,-26.03 6.44,-47.52 2.19,-69.97 3.12,-15.69 14.01,-31.27 39.6,-47.63z"/>
    <path id="_269473520" class="fil6" d="M846.53 318.25c0,0 -3.12,63.02 57.61,90.12 0,0 -6.72,-13.92 -9.56,-22.18 0,0 10.82,-17.93 17.37,-23.63 0,0 -6.06,56.34 52.09,76.04 0,0 15.1,-10.85 19.08,-23.09 12.13,17.49 11.06,47.33 8.55,59.07 0,0 7.95,-7.79 21.9,-15.47l-2.76 290.92 -21.67 -27.38c0,0 9.7,-77 11.98,-140.31 -37.3,-84.6 -100.82,-143.86 -191.23,-162.45 7.62,-26.03 6.44,-47.52 2.19,-69.97 4.26,-13.7 18.56,-24.98 34.47,-31.66z"/>
    <path id="_269473448" class="fil5" d="M457.88 371.67c0,0 65.82,-60.27 88.07,-179.47 0,0 75.29,21.1 111.22,122.06 0,0 13.69,-46.77 10.84,-75.29 0,0 82.75,53.94 55.35,216.07 0,0 26.22,-35.26 15.95,-144.77 0,0 12.08,-17.45 14.36,-27.98 119.47,112.38 -16.46,234.28 -98.2,280.66 0,0 -82.13,-28.52 -157.42,-135.18l-6.85 -11.11c0,0 -124.34,8.83 -191.07,162.83 0,0 -0.52,80.57 13.15,145.48l-20.2 31.03c0,0 -11.2,-266.62 -14.05,-283.73l-1.05 -7.77c0,0 17.65,-0.28 26.48,9.39 0,0 12.24,-31.88 10.25,-57.51 0,0 24.77,2.85 40.99,26.48 0,0 11.96,-39.57 5.69,-72.59 0,0 27.61,17.65 35.59,52.38 -1.35,-36.79 4.65,-57.55 13.95,-79.71 0,0 17.36,13.29 36.37,21.38 0,0 -2.69,10.07 -16.03,26.66 0,0 14.72,-8.51 26.63,-19.29z"/>
    <path id="_269473376" class="fil7" d="M278.24 466.55l-0.28 -2.08c0,0 17.65,-0.28 26.48,9.39 0,0 12.24,-31.88 10.25,-57.51 0,0 24.77,2.85 40.99,26.48 0,0 11.96,-39.57 5.69,-72.59 0,0 0.54,0.34 1.48,1.02 3.11,8.9 20.55,40.39 -3.94,93.22 0,0 -16.23,-22.77 -32.45,-28.47 0,0 -3.13,36.44 -23.91,68.32 0,0 -4.47,-21.91 -24.3,-37.79z"/>
    <path id="_269473304" class="fil7" d="M396.04 419.02c0.27,0.96 0.51,1.94 0.75,2.92l-0.3 0.13 -0.45 -3.05zm0.89 2.87c-1.22,-35.65 4.52,-56.18 13.46,-77.73 -1.18,9.63 -2.83,35.54 7.45,68.81l-20.91 8.92z"/>
    <path id="_269473232" class="fil7" d="M457.88 371.67c0,0 65.82,-60.27 88.07,-179.47 0,0 0.63,0.18 1.8,0.58 2.63,25 8.97,147.29 -111.11,194.86 5.36,-3.45 13.84,-9.26 21.25,-15.96z"/>
    <path id="_269473160" class="fil6" d="M657.88 311.72c2.77,-10.11 15.43,-36.22 12.98,-60.77 0,0 66.21,42.53 52.49,204.09 0,0 26.22,-35.26 15.95,-144.77 0,0 12.08,-17.45 14.36,-27.98 86.96,114.67 -16.46,234.28 -98.2,280.66 0,0 -1.42,-0.5 -4.05,-1.59 23.11,-85.63 14.8,-189.1 6.47,-249.63z"/>
    <path id="_269473088" class="fil1" d="M663.44 359.89c0,0 10.84,139.74 -26.81,198.49l18.82 14.26c0,0 39.36,-81.56 7.99,-212.75z"/>
    <path id="_269473016" class="fil1" d="M310.09 610.32c0,0 31.22,-62.45 108.95,-116.93 0,0 -55.14,12.62 -108.95,72.42l-1.33 9.96 1.33 34.55z"/>
    <path id="_269472944" class="fil1" d="M988.81 610.32c0,0 -31.22,-62.45 -108.95,-116.93 0,0 55.14,12.62 108.95,72.42l1.33 9.96 -1.33 34.55z"/>
    <ellipse id="_269472872" class="fil3" transform="matrix(0.471521 -0.109386 -0.0891839 0.782476 828.64 505.213)" rx="50.24" ry="21.69"/>
    <ellipse id="_269472800" class="fil3" transform="matrix(0.255006 -0.0591579 -0.0482321 0.423176 813.808 543.428)" rx="50.24" ry="21.69"/>
    <ellipse id="_269472728" class="fil4" transform="matrix(0.897587 -0.440837 0.440837 0.897587 435.391 529.318)" rx="55.9" ry="23.39"/>
    <ellipse id="_269472656" class="fil4" transform="matrix(0.439643 -0.215925 0.215925 0.439643 493.571 549.279)" rx="55.9" ry="23.39"/>
    <polygon id="_269472584" class="fil4" points="986.92,603.41 949.34,612.81 797.89,591.17 978.94,594.02 "/>
    <path id="_269472512" class="fil1" d="M1032.88 578.38c-62.18,2 -216.09,8.28 -236.99,12.55 8.31,3.43 176.67,9.41 235.65,15.4 0.64,-9.7 0.7,-18.25 1.34,-27.95z"/>
    <polygon id="_269472440" class="fil4" points="863.74,643.4 958.38,663.09 982.95,659.37 982.38,650.25 "/>
    <path id="_269472368" class="fil1" d="M1032.88 635.63c-50.41,2 -153.91,2.57 -170.86,6.85 6.74,3.43 121.95,15.11 169.77,21.1 0.52,-9.7 0.57,-18.25 1.09,-27.95z"/>
    <path id="_269472296" class="fil1" d="M652.13 578.95c0,0 89.55,-14.26 135.75,-77 0,0 -58.18,45.62 -134.89,60.46l-0.86 16.54z"/>
    <path id="_269472224" class="fil5" d="M671.52 250.42c0,0 24.53,54.19 22.24,128.9 0,0 12.55,-53.04 -1.71,-113.5l-16.01 -14.56 -4.52 -0.84z"/>
    <path id="_269472152" class="fil5" d="M747.95 480.85c0,0 25.67,-49.05 11.98,-126.62 0,0 17.11,27.95 17.68,81.56l-13.6 26.71 -16.06 18.35z"/>
    <path id="_269472080" class="fil6" d="M594.52 233.88c0,0 105.95,104.61 37.45,300.99 0,0 -61.66,-31.97 -95.91,-86.77 0,0 71.58,-74.38 58.46,-214.22z"/>
    <path id="_269472008" class="fil5" d="M593.38 233.88c0,0 28.52,70.16 5.7,161.42 0,0 -4.56,-66.73 -19.96,-110.08l1.14 -22.81 13.12 -28.52z"/>
    <path id="_269471936" class="fil7" d="M547.75 193.95c0,0 17.68,77.57 -14.26,154 0,0 4.56,-46.77 -2.28,-79.28l8.56 -29.66 7.99 -45.06z"/>
    <path id="_269471864" class="fil5" d="M633.89 538.79c0,0 13.89,-56.58 -1.24,-125.77 0,0 -0.18,70.96 -19.73,113.67l12.52 13.08c0,0 8.73,-1.54 8.44,-0.99z"/>
    <path id="_269471792" class="fil6" d="M496.13 410.68c0,0 38.43,-30.46 54.94,-76.29 0,0 -4.55,40.71 -17.93,54.94 -13.38,14.23 -37.01,21.35 -37.01,21.35z"/>
    <path id="_269471720" class="fil5" d="M839.79 314.3c0,0 -15.97,49.05 19.96,95.82 0,0 -13.12,-25.67 -10.27,-74.15l-3.77 -23.22 -5.93 1.55z"/>
    <path id="_269471648" class="fil1" d="M659.54 560.7c0,0 50.19,-34.22 60.46,-84.99 0,0 6.84,34.79 -9.13,63.31l-34.79 22.81 -16.54 -1.14z"/>
    <path id="_269471576" class="fil1" d="M984.35 551.03c0,0 -21.07,-42.7 -19.36,-85.4 0,0 -11.96,28.47 -6.55,59.78 5.41,31.31 25.91,25.62 25.91,25.62z"/>
    <g>
     <polygon id="_269471504" class="fil1" points="287.74,789.32 331.01,746.39 332.72,756.59 289.16,804.98 "/>
     <polygon id="_269471432" class="fil1" points="290.59,814.1 333.86,771.17 335.57,781.37 292.01,829.76 "/>
    </g>
    <g>
     <polygon id="_269471336" class="fil1" points="1020.06,789.32 976.78,746.39 975.07,756.59 1018.63,804.98 "/>
     <polygon id="_269471264" class="fil1" points="1017.21,814.1 973.93,771.17 972.23,781.37 1015.78,829.76 "/>
    </g>
   </g>
  </g>
 </g>
</svg>
