<?xml version="1.0" encoding="UTF-8"?>
<!DOCTYPE svg PUBLIC "-//W3C//DTD SVG 1.1//EN" "http://www.w3.org/Graphics/SVG/1.1/DTD/svg11.dtd">
<!-- Creator: CorelDRAW 2020 (64-Bit) -->
<svg xmlns="http://www.w3.org/2000/svg" xml:space="preserve" width="129.436mm" height="197.988mm" version="1.1" style="shape-rendering:geometricPrecision; text-rendering:geometricPrecision; image-rendering:optimizeQuality; fill-rule:evenodd; clip-rule:evenodd"
viewBox="0 0 628.11 960.77"
 xmlns:xlink="http://www.w3.org/1999/xlink"
 xmlns:xodm="http://www.corel.com/coreldraw/odm/2003">
 <defs>
  <style type="text/css">
   <![CDATA[
    .fil0 {fill:none}
    .fil1 {fill:#501D33}
    .fil6 {fill:#88958A}
    .fil3 {fill:#8E7A5D}
    .fil5 {fill:#AFC0A6}
    .fil8 {fill:#B48174}
    .fil9 {fill:#B78F6F}
    .fil2 {fill:#C3C077}
    .fil7 {fill:#D6E6C6}
    .fil4 {fill:#E0E28A}
    .fil10 {fill:white}
   ]]>
  </style>
 </defs>
 <g id="Слой_x0020_1">
  <metadata id="CorelCorpID_0Corel-Layer"/>
  <g id="_2674797093984">
   <g id="_268925768">
    <rect id="_269469464" class="fil0" width="628.11" height="960.77"/>
    <path id="_268912208" class="fil1" d="M128.44 513.24c-0.08,-1.97 -0,-4.05 0.03,-5.98 0.07,-3.98 0.19,-7.95 0.32,-11.92 0.35,-11.07 0.77,-22.14 1.2,-33.22 0.67,-17.09 1.37,-34.18 2.12,-51.26l0 -115.5c0,-83.39 74.73,-116.52 149.67,-130.34 23.37,-4.31 41.2,-4.31 64.57,0 76.29,14.07 142.27,48.57 145.34,130.49l4.32 115.16c0.75,17.15 1.46,34.29 2.12,51.44 0.43,11.07 0.85,22.14 1.2,33.22 0.12,3.97 0.24,7.95 0.32,11.92 0.04,1.93 0.11,4.01 0.03,5.98 0.42,5.72 -2.89,11.17 -6.36,15.64 -4.35,5.59 -9.84,10.85 -15.18,15.59 -15.12,13.45 -32.62,25.79 -49.83,36.71 -74.74,47.4 -149.76,49.12 -225.25,2.03 -17.98,-11.22 -36.22,-23.94 -52.03,-37.82 -5.58,-4.9 -11.33,-10.33 -15.9,-16.12 -3.59,-4.55 -7.1,-10.15 -6.67,-16.03z"/>
    <path id="_268912136" class="fil2" d="M139.95 512.85c-0.52,-7.13 3.61,-101.91 3.61,-101.91l0 -115.08c0,-78.29 72.5,-107.36 140.38,-119.87 22.37,-4.12 37.85,-4.12 60.22,0 67.88,12.51 133.15,42.14 136.08,120.38l4.3 114.57c0,0 4.13,94.77 3.61,101.91 1.62,8.51 -27.73,34.57 -66.3,59.03 -70.77,44.88 -140.82,46.67 -212.45,1.98 -40.1,-25.02 -71.12,-52.27 -69.45,-61.01z"/>
    <circle id="_268912064" class="fil3" cx="363.18" cy="285.04" r="9.7"/>
    <circle id="_268911992" class="fil3" cx="320.3" cy="229.64" r="9.89"/>
    <path id="_268911920" class="fil3" d="M292.28 285.18l34.15 -34.15 6.83 6.56c0,0 -37.7,27.05 -40.98,27.59z"/>
    <polygon id="_268911848" class="fil4" points="346.42,261.21 328.28,278.25 289.28,286.98 333.46,259.71 "/>
    <path id="_268911776" class="fil4" d="M143.61 292.4c2.11,-75.69 73.46,-104.08 140.33,-116.41 22.37,-4.12 37.85,-4.12 60.22,0 67.88,12.51 133.15,42.14 136.08,120.38l0.01 0.35c-9.93,-68.28 -71.74,-95.26 -135.86,-107.08 -22.54,-4.16 -38.14,-4.16 -60.69,0 -62.91,11.6 -129.77,37.32 -140.09,102.76z"/>
    <path id="_268911704" class="fil3" d="M168.52 254.31c0,0 42.89,19.67 76.5,22.13 0,0 2.73,0 3.28,-5.74 0.55,-5.74 -8.2,-45.9 -25.95,-77.86 0,0 -35.79,33.6 -36.88,35.24 -1.09,1.64 -11.75,-2.19 -16.94,26.23z"/>
    <path id="_268911632" class="fil1" d="M218.79 249.84l0.06 0c1.76,0 3.2,1.44 3.2,3.2l0 36.62c0,1.76 -1.44,3.2 -3.2,3.2l-0.06 0c-1.76,0 -3.2,-1.44 -3.2,-3.2l0 -36.62c0,-1.76 1.44,-3.2 3.2,-3.2z"/>
    <path class="fil1" d="M207.83 251.33l0 0c2.28,0 4.13,2.24 4.13,5l-0 15.86c0,2.76 -1.85,5 -4.13,5l-0 -0c-2.28,0 -4.13,-2.24 -4.13,-5l-0 -15.87c0,-2.76 1.85,-5 4.13,-5z"/>
    <g>
     <path id="_268911488" class="fil3" d="M453.42 226.79c15.7,17.38 25.72,40.01 26.83,69.58l2.6 69.31c-32.6,-37.13 -32.44,-102.88 -29.43,-138.89z"/>
     <path id="_268911416" class="fil3" d="M143.56 367.55l0 -71.69c0,-31.82 11.97,-55.51 30.75,-73.26 3.38,35.45 4.9,106.75 -30.75,144.95z"/>
    </g>
    <path id="_268911320" class="fil3" d="M424.13 565.94c-0.93,0.6 -1.86,1.2 -2.81,1.8 -69.42,44.03 -138.14,45.78 -208.41,1.94 -6.24,-3.89 -12.26,-7.84 -17.96,-11.77l-0 -0.15c0,0 104.34,65.22 229.18,8.18z"/>
    <path id="_268911248" class="fil3" d="M139.95 512.85c-0.52,-7.13 3.61,-101.91 3.61,-101.91l0 -8.74c15.8,11.03 47.6,44.91 51.41,58.66 3.81,13.75 -1.39,59.88 -3.02,101.6 -31.27,-21.42 -53.42,-42.19 -52.01,-49.61zm344.27 -110.46l0.32 8.56c0,0 4.13,94.77 3.61,101.91 1.41,7.42 -20.74,28.19 -52.01,49.61 -3.26,-38.99 -7.36,-88.45 -3.56,-102.15 3.8,-13.7 36.18,-43.47 51.64,-57.92z"/>
    <polygon id="_268911176" class="fil1" points="433.91,569.69 432,504.66 441.56,563.95 "/>
    <polygon id="_268911104" class="fil1" points="192.9,569.69 194.81,504.66 185.25,563.95 "/>
    <path id="_268911032" class="fil1" d="M453.04 218.34c0,0 -4.92,29.51 0,64.48 0,0 2.73,-43.17 10.65,-59.83l-5.46 -4.37 -5.19 -0.27z"/>
    <path id="_268910960" class="fil1" d="M174.94 218.34c0,0 4.92,29.51 0,64.48 0,0 -2.73,-43.17 -10.65,-59.83l5.46 -4.37 5.19 -0.27z"/>
    <path id="_268910888" class="fil3" d="M318.1 172.95c0,0 -1.09,53.48 5.05,82.31 0,0 33.85,43.24 151.44,81.52l-8.75 -63.99c0,0 -79.58,-80.86 -143.2,-99.95 -0.74,-0.22 -3.32,0.01 -4.54,0.11z"/>
    <path id="_268910816" class="fil1" d="M353.11 239.7l-60.66 45.11c-5.5,4.09 -4.46,3.25 0.64,1.1 15.42,-6.5 73.19,-34.19 73.19,-34.19 0,0 -6.76,-12.17 -13.18,-12.02z"/>
    <path id="_268904528" class="fil1" d="M318.2 159.71c0.7,13.7 2.87,57.8 10.67,87.67 0,0 48.72,54.45 150.7,87.99 5.58,1.83 12.19,2.83 13.12,-3.24 14.21,-93.4 -14.52,-158.43 -164.02,-177.66 -6.89,-0.89 -10.82,-1.66 -10.46,5.24z"/>
    <path id="_268904456" class="fil5" d="M338.33 244.56c2.4,2.56 5.14,5.09 7.72,7.43 8.22,7.48 17.12,14.49 26.3,21.03 31.86,22.68 68.55,40.53 106.89,53.14 0.72,0.24 2.2,0.68 3.37,0.87 4.76,-31.89 5.53,-68 -12.03,-97.15 -26.52,-44.02 -87.98,-59.15 -139.93,-65.84 -0.48,-0.06 -1.22,-0.18 -2,-0.28 0.93,17.9 2.21,35.78 4.65,53.58 1.25,9.08 2.78,18.27 5.03,27.21z"/>
    <path id="_268904384" class="fil6" d="M409.21 284.36c0,0 27.59,24.32 70.21,36.88 0,0 6.83,-15.85 -0.55,-59.56 0,0 -25.68,16.39 -45.08,19.94 -19.4,3.55 -23.5,3.28 -24.59,2.73z"/>
    <polygon id="_268904312" class="fil7" points="451.82,207.35 436.69,223.3 414.19,231.89 444.87,206.8 "/>
    <path id="_268904240" class="fil7" d="M346.15 178.91c0.8,16.92 3.06,57.17 6.51,58.46 4.37,1.64 54.91,-13.11 75.4,-38.8 0,0 -11.4,-13.58 -74.13,-25.77 -6.36,-1.24 -8.1,-0.6 -7.79,6.1z"/>
    <path id="_268904168" class="fil7" d="M338.33 244.55c2.4,2.56 5.14,5.09 7.72,7.44 8.22,7.48 17.12,14.49 26.3,21.03 26.91,19.16 57.28,34.87 89.17,46.89 -29.97,-13.21 -58.3,-29.74 -83.29,-49.33 -8.88,-6.95 -17.99,-14.09 -25.86,-21.94 -2.47,-2.46 -5.08,-5.11 -7.37,-7.78 -5.08,-24.93 -6.38,-50.77 -8.6,-76.05 -1.93,-0.27 -3.84,-0.53 -5.75,-0.77 -0.48,-0.06 -1.22,-0.18 -2,-0.28 0.93,17.9 2.21,35.78 4.65,53.58 1.25,9.08 2.78,18.27 5.03,27.21z"/>
    <circle id="_268904096" class="fil5" cx="399.71" cy="222.93" r="9.82"/>
    <circle id="_268904024" class="fil5" cx="383.57" cy="217.36" r="4.17"/>
    <circle id="_268903952" class="fil8" cx="441.53" cy="253.34" r="6.39"/>
    <circle id="_268903880" class="fil8" cx="429.31" cy="253" r="2.29"/>
    <path id="_268903808" class="fil9" d="M479.37 249.15c-2.46,0.87 -5.11,1.34 -7.87,1.34 -6.52,0 -12.42,-2.63 -16.71,-6.87 -1.93,1.56 -4.38,2.5 -7.05,2.5 -6.19,0 -11.2,-5.02 -11.2,-11.2 0,-6.19 5.02,-11.2 11.2,-11.2l0.19 0c0.66,-5.27 3.06,-10 6.59,-13.62 6.2,5.85 11.63,12.41 16.07,19.79 3.7,6.15 6.59,12.6 8.79,19.26zm-52.77 8.63c6.03,0 10.93,4.89 10.93,10.93 0,6.03 -4.89,10.93 -10.93,10.93 -6.03,0 -10.93,-4.89 -10.93,-10.93 0,-6.03 4.89,-10.93 10.93,-10.93zm-20.67 -15.22c1.21,0 2.19,0.98 2.19,2.19 0,1.21 -0.98,2.19 -2.19,2.19 -1.21,0 -2.19,-0.98 -2.19,-2.19 0,-1.21 0.98,-2.19 2.19,-2.19zm53.68 10.11c3.55,0 6.42,2.88 6.42,6.42 0,3.55 -2.88,6.42 -6.42,6.42 -3.54,0 -6.42,-2.88 -6.42,-6.42 0,-3.54 2.88,-6.42 6.42,-6.42zm-32.1 -48.36c3.32,0 6.01,2.69 6.01,6.01 0,3.32 -2.69,6.01 -6.01,6.01 -3.32,0 -6.01,-2.69 -6.01,-6.01 0,-3.32 2.69,-6.01 6.01,-6.01z"/>
    <polygon id="_268903736" class="fil1" points="334.14,161.66 343.42,237.24 340.96,162.62 "/>
    <path id="_268903664" class="fil1" d="M447.19 197.21c-0.82,2.46 -33.33,34.7 -33.33,34.7l39.89 -25.41 -6.56 -9.29z"/>
    <polygon id="_268903592" class="fil1" points="413.82,305.3 438.55,281.42 423.84,310.64 "/>
    <g>
     <circle id="_268903520" class="fil6" cx="360.37" cy="193.48" r="12.64"/>
     <circle id="_268903448" class="fil1" cx="359.96" cy="190.48" r="13.73"/>
     <circle id="_268903376" class="fil5" cx="359.96" cy="190.48" r="9.01"/>
     <path id="_268903304" class="fil6" d="M365.13 184.74c1.57,1.41 2.55,3.46 2.55,5.74 0,4.27 -3.46,7.73 -7.73,7.73 -3.85,0 -7.03,-2.81 -7.63,-6.49 1.37,1.23 3.18,1.99 5.17,1.99 4.27,0 7.73,-3.46 7.73,-7.73 0,-0.42 -0.03,-0.84 -0.1,-1.24z"/>
     <circle id="_268903232" class="fil10" transform="matrix(0.631296 -0.245572 0.156773 0.403019 358.383 186.344)" r="7.78"/>
    </g>
    <g>
     <circle id="_268903136" class="fil6" cx="366.12" cy="238.01" r="12.64"/>
     <circle id="_268903064" class="fil1" cx="365.71" cy="235.02" r="13.81"/>
     <circle id="_268902992" class="fil5" cx="365.71" cy="235.02" r="9.01"/>
     <path id="_268902920" class="fil6" d="M370.88 229.27c1.57,1.41 2.55,3.46 2.55,5.74 0,4.27 -3.46,7.73 -7.73,7.73 -3.85,0 -7.03,-2.81 -7.63,-6.49 1.37,1.23 3.18,1.99 5.17,1.99 4.27,0 7.73,-3.46 7.73,-7.73 0,-0.42 -0.03,-0.84 -0.1,-1.24z"/>
     <circle id="_268902848" class="fil10" transform="matrix(0.631296 -0.245572 0.156773 0.403019 364.127 230.876)" r="7.78"/>
    </g>
    <g>
     <circle id="_268902752" class="fil6" cx="403.8" cy="270.79" r="12.64"/>
     <circle id="_268902680" class="fil1" cx="403.4" cy="267.79" r="13.86"/>
     <circle id="_268902608" class="fil5" cx="403.4" cy="267.79" r="9.01"/>
     <path id="_268902536" class="fil6" d="M408.57 262.05c1.57,1.41 2.55,3.46 2.55,5.74 0,4.27 -3.46,7.73 -7.73,7.73 -3.85,0 -7.03,-2.81 -7.63,-6.49 1.37,1.23 3.18,1.99 5.17,1.99 4.27,0 7.73,-3.46 7.73,-7.73 0,-0.42 -0.03,-0.84 -0.1,-1.24z"/>
     <circle id="_268902464" class="fil10" transform="matrix(0.631296 -0.245572 0.156773 0.403019 401.816 263.653)" r="7.78"/>
    </g>
    <g>
     <circle id="_268902368" class="fil6" cx="452.89" cy="299.56" r="12.64"/>
     <circle id="_268902296" class="fil1" cx="452.48" cy="296.56" r="13.68"/>
     <circle id="_268902224" class="fil5" cx="452.48" cy="296.56" r="9.01"/>
     <path id="_268902152" class="fil6" d="M457.66 290.82c1.57,1.41 2.55,3.46 2.55,5.74 0,4.27 -3.46,7.73 -7.73,7.73 -3.85,0 -7.03,-2.81 -7.63,-6.49 1.37,1.23 3.18,1.99 5.17,1.99 4.27,0 7.73,-3.46 7.73,-7.73 0,-0.42 -0.03,-0.84 -0.1,-1.24z"/>
     <circle id="_268902080" class="fil10" transform="matrix(0.631296 -0.245572 0.156773 0.403019 450.903 292.425)" r="7.78"/>
    </g>
    <path id="_268901984" class="fil1" d="M217.97 181.64c0,0 21.58,53.17 24.73,83.39 0.84,8.09 -1.48,6.55 -7.9,5.24 -15.62,-3.19 -53.74,-13.11 -85.89,-38.49 7.56,-18.1 34.71,-47.87 69.06,-50.14z"/>
    <path id="_268901912" class="fil5" d="M212.31 190.06c-12.42,2.39 -23.81,8.75 -33.42,16.97 -6.74,5.77 -13.95,13.76 -18.89,22.02 22.1,15.68 48.14,26.42 74.49,32.57 -5.36,-24.23 -12.82,-49.22 -22.19,-71.57z"/>
    <path id="_268901840" class="fil9" d="M216 235.5c7.26,4.37 9.6,13.8 5.23,21.06 -0.27,0.45 -0.57,0.89 -0.88,1.3 -12.08,-3.61 -23.96,-8.22 -35.27,-13.86 0.15,-0.85 0.45,-1.69 0.93,-2.47 2.06,-3.42 6.5,-4.53 9.93,-2.46l0.1 0.06c4.71,-5.98 13.25,-7.66 19.95,-3.63zm-24.79 -13.89c1.84,1.11 2.43,3.49 1.33,5.33 -1.11,1.84 -3.49,2.43 -5.33,1.32 -1.84,-1.1 -2.43,-3.49 -1.32,-5.33 1.11,-1.83 3.49,-2.42 5.32,-1.32z"/>
    <path id="_268901768" class="fil7" d="M212.31 190.06c-12.42,2.39 -23.81,8.75 -33.42,16.97 -6.74,5.77 -13.95,13.76 -18.89,22.02 2.26,1.6 4.56,3.15 6.89,4.65 5.28,-7.8 17.49,-22.07 40.69,-31.58l26.74 59.46 0.17 0.04c-5.36,-24.23 -12.82,-49.22 -22.19,-71.57z"/>
    <path id="_268901696" class="fil1" d="M210.83 224.65c0,0 9.71,-11.29 14.24,-12.27 4.53,-0.97 19.65,1.21 19.65,1.21 0,0 -12.31,10.88 -14.1,10.98 -1.79,0.11 -19.79,0.07 -19.79,0.07z"/>
    <path id="_268901624" class="fil1" d="M301.15 263.2c0,0 15.1,3.14 19.12,6 4.02,2.86 13.87,12.67 13.87,12.67 0,0 -19.25,-4.18 -20.62,-5.51 -1.37,-1.33 -12.37,-13.17 -12.37,-13.17z"/>
    <path id="_268901552" class="fil1" d="M198.78 235.1c0,0 0.49,14.88 -2.19,18.67 -2.68,3.78 -15.29,12.4 -15.29,12.4 0,0 1.71,-16.33 2.96,-17.62 1.25,-1.29 14.53,-13.44 14.53,-13.44z"/>
    <path id="_268901480" class="fil1" d="M162.6 234.48c0,0 8.59,-13.91 30.14,-25.36 0,0 -14.05,11.45 -23.73,29.18l-3.68 -0.82c0,0 -2.59,-2.86 -2.73,-3z"/>
    <circle id="_268901408" class="fil5" cx="478.14" cy="281.88" r="7.1"/>
    <circle id="_268901336" class="fil5" cx="476.88" cy="296.73" r="2.72"/>
    <circle id="_268898528" class="fil3" cx="312.33" cy="214.44" r="3"/>
    <circle id="_268898456" class="fil3" cx="345.1" cy="284.67" r="3.46"/>
   </g>
  </g>
 </g>
</svg>
