<?xml version="1.0" encoding="UTF-8"?>
<!DOCTYPE svg PUBLIC "-//W3C//DTD SVG 1.1//EN" "http://www.w3.org/Graphics/SVG/1.1/DTD/svg11.dtd">
<!-- Creator: CorelDRAW 2020 (64-Bit) -->
<svg xmlns="http://www.w3.org/2000/svg" xml:space="preserve" width="129.436mm" height="197.988mm" version="1.1" style="shape-rendering:geometricPrecision; text-rendering:geometricPrecision; image-rendering:optimizeQuality; fill-rule:evenodd; clip-rule:evenodd"
viewBox="0 0 392.29 600.05"
 xmlns:xlink="http://www.w3.org/1999/xlink"
 xmlns:xodm="http://www.corel.com/coreldraw/odm/2003">
 <defs>
  <style type="text/css">
   <![CDATA[
    .fil0 {fill:none}
    .fil1 {fill:#501D33}
    .fil6 {fill:#8E7A5D}
    .fil4 {fill:#8F8F7E}
    .fil5 {fill:#B7B7A3}
    .fil2 {fill:#C3C077}
    .fil3 {fill:#E0E28A}
   ]]>
  </style>
 </defs>
 <g id="Слой_x0020_1">
  <metadata id="CorelCorpID_0Corel-Layer"/>
  <g id="_2674793762288">
   <rect id="_273426120" class="fil0" width="392.29" height="600.05"/>
   <g>
    <path id="_269452256" class="fil1" d="M80.22 320.55c-0.05,-1.23 -0,-2.53 0.02,-3.74 0.05,-2.48 0.12,-4.97 0.2,-7.45 0.22,-6.92 0.48,-13.83 0.75,-20.74 0.42,-10.67 0.86,-21.35 1.32,-32.02l0 -72.13c0,-52.08 46.67,-72.77 93.47,-81.4 9.99,-1.84 15.08,-2.11 24.05,-1.53 3.27,0.21 3.27,4.98 3.85,5.16 0.63,0.19 3.03,-5.02 6.49,-4.45 10.13,1.66 19.86,3.92 29.8,6.58 1.06,0.28 2.74,0.99 2.77,2.02 0.07,1.92 -0.44,4.28 -0.07,4.28 1.53,0.02 3.47,-1.95 5.81,-2.7 0.99,-0.32 2.15,0.09 3.32,0.55 30.93,12.28 53.66,33.9 55.08,71.6l2.7 71.92c0.47,10.71 0.91,21.42 1.33,32.13 0.27,6.91 0.53,13.83 0.75,20.74 0.08,2.48 0.15,4.96 0.2,7.45 0.02,1.21 0.07,2.51 0.02,3.74 0.26,3.57 -1.81,6.98 -3.97,9.77 -2.72,3.49 -6.14,6.77 -9.48,9.74 -9.45,8.4 -20.37,16.1 -31.12,22.92 -46.68,29.61 -93.54,30.68 -140.68,1.27 -11.23,-7.01 -22.62,-14.95 -32.5,-23.62 -3.49,-3.06 -7.08,-6.45 -9.93,-10.06 -2.24,-2.84 -4.43,-6.34 -4.17,-10.01z"/>
    <path id="_269452040" class="fil2" d="M87.41 320.3c-0.32,-4.46 2.26,-63.65 2.26,-63.65l0 -71.88c0,-48.9 45.28,-67.05 87.67,-74.87 13.97,-2.58 23.64,-2.58 37.61,0 42.39,7.82 83.16,26.32 84.99,75.19l2.68 71.56c0,0 2.58,59.19 2.26,63.65 1.01,5.31 -17.32,21.59 -41.41,36.87 -44.2,28.03 -87.95,29.15 -132.69,1.24 -25.05,-15.63 -44.42,-32.64 -43.37,-38.1z"/>
    <path class="fil3" d="M165.66 199.52l53.43 -46.41 3.11 -12.13c0,0 -47.71,47.51 -56.53,58.54z"/>
    <path id="_269451464" class="fil4" d="M89.7 182.59l0 -0.17c0.02,-0.72 0.05,-1.42 0.09,-2.13l0 -0.02c0.04,-0.71 0.09,-1.41 0.16,-2.11l0.01 -0.15c0.06,-0.68 0.13,-1.35 0.21,-2.01l0.01 -0.07c0.08,-0.68 0.17,-1.35 0.28,-2.02l0.02 -0.12c0.1,-0.65 0.21,-1.3 0.33,-1.93l0.02 -0.09c0.12,-0.65 0.25,-1.3 0.39,-1.94l0.02 -0.1c0.14,-0.63 0.28,-1.24 0.44,-1.86l0.02 -0.09c0.16,-0.62 0.33,-1.24 0.5,-1.85l0.03 -0.09c0.17,-0.59 0.35,-1.18 0.54,-1.76l0.04 -0.12c0.4,-1.21 0.83,-2.4 1.29,-3.56l0.03 -0.08c0.47,-1.16 0.97,-2.3 1.5,-3.41l0.04 -0.08c0.54,-1.12 1.11,-2.21 1.71,-3.28l0.02 -0.04c0.61,-1.08 1.25,-2.13 1.92,-3.16l0.02 -0.03c0.33,-0.5 0.66,-1 1,-1.49l0.04 -0.06c0.35,-0.5 0.7,-0.99 1.06,-1.47l0.01 -0.02c0.36,-0.48 0.72,-0.96 1.1,-1.43l0.05 -0.06c0.38,-0.47 0.76,-0.94 1.15,-1.4l0.01 -0.01c0.39,-0.46 0.78,-0.91 1.18,-1.35l0.06 -0.07c0.79,-0.89 1.61,-1.75 2.46,-2.6l0.12 -0.12c0.41,-0.41 0.83,-0.82 1.25,-1.22l0.02 -0.02 0.01 -0.01c17.13,-16.19 43.31,-24.48 68.47,-29.11 13.97,-2.58 23.64,-2.58 37.61,0 26.68,4.92 52.71,14.08 68.8,32.37 0.18,0.2 0.35,0.4 0.53,0.61 0.2,0.24 0.41,0.48 0.61,0.72 0.2,0.23 0.39,0.47 0.58,0.71 0.21,0.26 0.41,0.51 0.61,0.77 0.19,0.24 0.38,0.48 0.56,0.73 0.17,0.22 0.33,0.44 0.49,0.66 0.17,0.23 0.33,0.45 0.5,0.68 0.19,0.26 0.38,0.53 0.56,0.8 0.19,0.27 0.37,0.53 0.55,0.8 0.15,0.23 0.3,0.46 0.45,0.68 0.21,0.32 0.42,0.64 0.62,0.97 0.11,0.18 0.22,0.36 0.34,0.54 0.18,0.3 0.36,0.6 0.54,0.9 0.14,0.24 0.28,0.48 0.42,0.73 0.17,0.3 0.34,0.61 0.51,0.91 0.13,0.23 0.25,0.46 0.38,0.7 0.2,0.37 0.39,0.73 0.58,1.1 0.08,0.16 0.16,0.32 0.24,0.49 0.18,0.37 0.36,0.74 0.54,1.11 0.09,0.19 0.18,0.39 0.27,0.58 0.18,0.4 0.36,0.8 0.54,1.2l0.2 0.46c0.2,0.47 0.4,0.95 0.59,1.43l0.14 0.35c0.18,0.46 0.35,0.92 0.52,1.38l0.14 0.38c0.18,0.49 0.35,0.99 0.52,1.5l0.12 0.36c0.17,0.54 0.34,1.08 0.51,1.62l0.08 0.27c0.15,0.52 0.3,1.04 0.44,1.56l0.08 0.32c0.15,0.57 0.29,1.14 0.43,1.71l0.06 0.28c0.14,0.6 0.27,1.2 0.4,1.82l0.03 0.17c0.12,0.59 0.23,1.19 0.34,1.79l0.04 0.24c0.11,0.61 0.2,1.23 0.3,1.86l0.04 0.28c0.09,0.65 0.18,1.31 0.26,1.98l0 0.04c0.08,0.67 0.15,1.34 0.21,2.02l0.02 0.23c0.06,0.67 0.11,1.35 0.16,2.04l0.01 0.2c0.04,0.71 0.08,1.43 0.11,2.16l1.62 43.29c-12.6,-14.35 -17.36,-35.54 -18.72,-54.94 -7.99,-23.15 -21.72,-31.38 -21.72,-31.38 -59.53,20.41 -85.18,14.44 -131.04,-0.85 -9.42,6.99 -15.84,14.86 -20.22,22.43 -0.38,22.22 -4.57,49.15 -20.2,65.9l0 -44.77c0,-0.74 0.01,-1.47 0.03,-2.19l-0 0z"/>
    <path id="_269451392" class="fil5" d="M162.85 152.48c0,0 48.33,-39.19 47.91,-39.19 -0.43,0 -10.25,-0.6 -10.25,-0.6l-37.66 39.79z"/>
    <path id="_269451320" class="fil5" d="M246.88 118.04c-0.17,0.85 -27.84,35.28 -27.84,35.28l-7.99 1.53 27.82 -35.79 8.02 -1.02z"/>
    <path id="_269451176" class="fil5" d="M89.69 182.62c1.32,-47.27 45.88,-65.01 87.64,-72.71 13.97,-2.58 23.64,-2.58 37.61,0 42.39,7.82 83.16,26.32 84.99,75.19l0.01 0.22c-6.2,-42.64 -44.8,-59.49 -84.85,-66.88 -14.08,-2.6 -23.82,-2.6 -37.9,0 -39.29,7.24 -81.05,23.31 -87.5,64.18z"/>
    <path id="_269450864" class="fil6" d="M264.89 353.46c-0.58,0.37 -1.16,0.75 -1.75,1.12 -43.36,27.5 -86.27,28.59 -130.16,1.21 -3.9,-2.43 -7.66,-4.9 -11.22,-7.35l-0 -0.1c0,0 65.17,40.73 143.14,5.11l-0 0z"/>
    <path id="_269450648" class="fil6" d="M87.41 320.3c-0.32,-4.46 2.26,-63.65 2.26,-63.65l0 -5.46c9.87,6.89 29.73,28.05 32.11,36.63 2.38,8.59 -0.87,37.4 -1.88,63.46 -19.53,-13.38 -33.37,-26.35 -32.48,-30.98zm215.02 -68.99l0.2 5.34c0,0 2.58,59.19 2.26,63.65 0.88,4.64 -12.95,17.61 -32.48,30.98 -2.04,-24.35 -4.6,-55.24 -2.22,-63.8 2.37,-8.56 22.59,-27.15 32.25,-36.17z"/>
    <polygon id="_269450432" class="fil1" points="271,355.8 269.81,315.19 275.78,352.22 "/>
    <polygon id="_269450216" class="fil1" points="120.47,355.8 121.67,315.19 115.7,352.22 "/>
    <path id="_269450000" class="fil1" d="M282.95 136.37c0,0 -3.07,18.43 0,40.27 0,0 1.71,-26.96 6.65,-37.37l-3.41 -2.73 -3.24 -0.17z"/>
    <path id="_269449784" class="fil1" d="M109.26 136.37c0,0 3.07,18.43 0,40.27 0,0 -1.71,-26.96 -6.65,-37.37l3.41 -2.73 3.24 -0.17z"/>
    <path id="_124536784" class="fil1" d="M240.4 111.21c0,0 -73.05,83.77 -76.29,89.23 -3.24,5.46 81.09,-79.15 84.06,-83.43 3.97,-5.73 -3.26,-0.22 -4.91,-0.58 -0.36,-0.08 -2.11,-2.99 -1.71,-4.56 -1.89,-0.22 -1.14,-0.65 -1.14,-0.65z"/>
    <path id="_124536568" class="fil2" d="M146.76 155.51c0,0 17.21,-24.87 16.79,-24.87 -0.43,0 -30.19,24.31 -30.19,24.31l13.4 0.57z"/>
    <path id="_124536496" class="fil1" d="M200.7 103.65c0,0 -47.99,59.41 -47.06,58.74 0.93,-0.67 53.19,-54.23 53.19,-54.23 0,0 -2.3,-0.22 -3.87,-1.44 -1.48,-1.14 -2.24,-3.3 -2.25,-3.07z"/>
    <path id="_124536640" class="fil1" d="M183.57 160.75c0,0 9.89,5.09 12.65,6.83 2.76,1.74 16.53,1.26 16.53,1.26l-14.61 -7.06 -14.57 -1.03z"/>
    <path id="_124536640_0" class="fil1" d="M213.27 126.3c0,0 6.62,9.2 8.31,12.06 1.69,2.86 14.42,8.8 14.42,8.8l-9.98 -13.17 -12.75 -7.69z"/>
   </g>
  </g>
 </g>
</svg>
