<?xml version="1.0" encoding="UTF-8"?>
<!DOCTYPE svg PUBLIC "-//W3C//DTD SVG 1.1//EN" "http://www.w3.org/Graphics/SVG/1.1/DTD/svg11.dtd">
<!-- Creator: CorelDRAW 2020 (64-Bit) -->
<svg xmlns="http://www.w3.org/2000/svg" xml:space="preserve" width="129.436mm" height="197.989mm" version="1.1" style="shape-rendering:geometricPrecision; text-rendering:geometricPrecision; image-rendering:optimizeQuality; fill-rule:evenodd; clip-rule:evenodd"
viewBox="0 0 2790.91 4269.06"
 xmlns:xlink="http://www.w3.org/1999/xlink"
 xmlns:xodm="http://www.corel.com/coreldraw/odm/2003">
 <defs>
  <style type="text/css">
   <![CDATA[
    .fil0 {fill:none}
    .fil7 {fill:#4B3446}
    .fil1 {fill:#501D33}
    .fil6 {fill:#634C54}
    .fil8 {fill:#896E6B}
    .fil3 {fill:#8E7A5D}
    .fil4 {fill:#8F8F7E}
    .fil5 {fill:#B7B7A3}
    .fil2 {fill:#C3C077}
    .fil9 {fill:#D4D281}
   ]]>
  </style>
 </defs>
 <g id="Слой_x0020_1">
  <metadata id="CorelCorpID_0Corel-Layer"/>
  <g id="_1746026434032">
   <g id="_268923968">
    <rect id="_272316712" class="fil0" y="0" width="2790.91" height="4269.06"/>
    <path id="_269452328" class="fil1" d="M570.71 2280.52c-0.36,-8.75 -0.02,-17.99 0.14,-26.58 0.33,-17.66 0.85,-35.33 1.4,-52.98 1.54,-49.2 3.4,-98.4 5.33,-147.59 2.97,-75.93 6.1,-151.87 9.41,-227.79l0 -513.2c0,-370.54 332.03,-517.73 665.02,-579.13 103.83,-19.14 183.07,-19.14 286.9,0 339.01,62.5 632.14,215.8 645.79,579.83l19.19 511.71c3.32,76.18 6.47,152.38 9.44,228.58 1.92,49.19 3.79,98.39 5.33,147.59 0.55,17.66 1.08,35.32 1.4,52.98 0.16,8.59 0.5,17.83 0.14,26.57 1.87,25.41 -12.85,49.64 -28.27,69.47 -19.33,24.86 -43.72,48.2 -67.43,69.29 -67.2,59.77 -144.92,114.57 -221.43,163.09 -332.1,210.63 -665.46,218.28 -1000.88,9.03 -79.9,-49.85 -160.96,-106.36 -231.19,-168.07 -24.81,-21.79 -50.35,-45.91 -70.66,-71.61 -15.96,-20.2 -31.54,-45.11 -29.63,-71.21l-0 -0z"/>
    <path id="_269452112" class="fil2" d="M621.85 2278.8c-2.29,-31.69 16.06,-452.8 16.06,-452.8l0 -511.36c0,-347.89 322.16,-477.04 623.76,-532.65 99.4,-18.33 168.18,-18.33 267.58,0 301.59,55.6 591.62,187.26 604.66,534.91l19.1 509.1c0,0 18.35,421.11 16.06,452.8 7.21,37.81 -123.23,153.59 -294.61,262.28 -314.45,199.44 -625.7,207.37 -944.01,8.8 -178.2,-111.17 -315.99,-232.25 -308.59,-271.08l-0 0z"/>
    <path id="_269451968" class="fil3" d="M1052.71 1318.58c0,9.24 312.28,-34.55 644.17,27.06 0,0 -147.71,-60.12 -322.88,-63.38 -175.18,-3.25 -321.29,36.32 -321.29,36.32z"/>
    <path id="_269451536" class="fil4" d="M638.13 1299.07l0.03 -1.18c0.16,-5.09 0.37,-10.13 0.67,-15.13l0.01 -0.15c0.3,-5.06 0.67,-10.06 1.11,-15.02l0.1 -1.04c0.44,-4.81 0.94,-9.58 1.51,-14.31l0.06 -0.49c0.59,-4.83 1.24,-9.62 1.97,-14.36l0.13 -0.83c0.72,-4.63 1.49,-9.22 2.34,-13.76l0.11 -0.61c0.87,-4.64 1.8,-9.24 2.8,-13.78l0.15 -0.68c0.98,-4.45 2.03,-8.85 3.13,-13.21l0.17 -0.66c1.13,-4.44 2.33,-8.84 3.59,-13.19l0.18 -0.62c1.23,-4.23 2.52,-8.41 3.86,-12.55l0.27 -0.82c2.82,-8.62 5.89,-17.06 9.2,-25.32l0.23 -0.58c3.33,-8.28 6.9,-16.37 10.7,-24.29l0.27 -0.56c3.83,-7.96 7.9,-15.74 12.18,-23.35l0.15 -0.26c4.32,-7.66 8.87,-15.14 13.64,-22.45l0.13 -0.2c2.33,-3.56 4.7,-7.09 7.13,-10.57l0.3 -0.43c2.47,-3.53 4.99,-7.03 7.56,-10.48l0.08 -0.11c2.55,-3.42 5.15,-6.8 7.8,-10.14l0.32 -0.41c2.68,-3.37 5.4,-6.7 8.17,-9.99l0.04 -0.04c2.74,-3.25 5.53,-6.46 8.36,-9.63l0.45 -0.51c5.65,-6.31 11.48,-12.46 17.49,-18.47l0.86 -0.87c2.93,-2.92 5.91,-5.82 8.92,-8.67l0.13 -0.13 0.1 -0.09c121.84,-115.2 308.11,-174.13 487.13,-207.14 99.4,-18.33 168.18,-18.33 267.58,0 189.82,35 375.03,100.15 489.51,230.29 1.26,1.43 2.51,2.87 3.75,4.32 1.46,1.7 2.9,3.41 4.34,5.13 1.39,1.67 2.77,3.35 4.14,5.04 1.47,1.82 2.93,3.65 4.37,5.49 1.35,1.72 2.69,3.44 4.01,5.18 1.18,1.55 2.34,3.1 3.5,4.66 1.19,1.61 2.37,3.22 3.54,4.85 1.35,1.88 2.69,3.76 4.02,5.66 1.32,1.89 2.63,3.8 3.92,5.71 1.09,1.62 2.17,3.24 3.24,4.87 1.49,2.28 2.98,4.57 4.43,6.88 0.8,1.28 1.6,2.57 2.39,3.86 1.31,2.12 2.6,4.26 3.87,6.42 1.01,1.71 2.02,3.43 3.01,5.16 1.23,2.15 2.45,4.31 3.65,6.49 0.91,1.64 1.8,3.29 2.69,4.95 1.39,2.6 2.76,5.21 4.11,7.85 0.58,1.15 1.16,2.3 1.74,3.46 1.3,2.62 2.59,5.25 3.84,7.9 0.65,1.37 1.29,2.75 1.93,4.13 1.3,2.82 2.59,5.67 3.84,8.54l1.4 3.24c1.44,3.36 2.84,6.74 4.2,10.15l0.98 2.5c1.27,3.25 2.52,6.53 3.73,9.84l0.98 2.7c1.26,3.52 2.49,7.07 3.67,10.65l0.83 2.53c1.24,3.81 2.44,7.65 3.6,11.53l0.55 1.89c1.08,3.67 2.11,7.37 3.11,11.1l0.6 2.26c1.05,4.02 2.06,8.08 3.03,12.17l0.46 1.97c0.99,4.27 1.93,8.57 2.82,12.92l0.24 1.22c0.85,4.21 1.65,8.47 2.4,12.76l0.31 1.73c0.75,4.36 1.45,8.76 2.11,13.2l0.29 2.02c0.67,4.66 1.29,9.35 1.85,14.09l0.03 0.31c0.56,4.74 1.05,9.54 1.49,14.36l0.15 1.62c0.43,4.79 0.79,9.62 1.11,14.5l0.09 1.4c0.32,5.08 0.58,10.21 0.78,15.38l11.55 307.98c-89.62,-102.07 -123.52,-252.83 -133.17,-390.86 -56.85,-164.73 -154.53,-223.23 -154.53,-223.23 -273.12,146.89 -479.5,205.7 -479.5,205.7 -207.74,-41.26 -452.82,-211.77 -452.82,-211.77 -67.05,49.74 -112.72,105.73 -143.85,159.61 -2.7,158.11 -32.48,349.7 -143.68,468.85l0 -318.55c0,-5.24 0.08,-10.42 0.22,-15.56l0 -0z"/>
    <path id="_269451248" class="fil5" d="M638.13 1299.26c9.38,-336.33 326.43,-462.49 623.53,-517.27 99.4,-18.33 168.18,-18.33 267.58,0 301.59,55.6 591.62,187.26 604.66,534.91l0.06 1.57c-44.1,-303.39 -318.76,-423.27 -603.68,-475.8 -100.18,-18.47 -169.49,-18.47 -269.67,0 -279.55,51.54 -576.61,165.8 -622.49,456.58l0 0z"/>
    <path id="_269450936" class="fil3" d="M1884.58 2514.7c-4.13,2.66 -8.28,5.32 -12.47,7.98 -308.47,195.65 -613.8,203.43 -926.06,8.63 -27.73,-17.3 -54.47,-34.85 -79.8,-52.28l-0.02 -0.69c0,0 463.62,289.79 1018.34,36.36z"/>
    <path id="_269450720" class="fil3" d="M621.85 2278.8c-2.29,-31.69 16.06,-452.8 16.06,-452.8l0 -38.86c70.21,49.01 211.49,199.53 228.43,260.63 16.95,61.09 -6.19,266.08 -13.4,451.45 -138.95,-95.16 -237.38,-187.45 -231.09,-220.42zm1529.73 -490.83l1.43 38.02c0,0 18.35,421.11 16.06,452.8 6.29,32.98 -92.14,125.26 -231.1,220.42 -14.5,-173.23 -32.71,-393.01 -15.82,-453.89 16.89,-60.88 160.74,-193.16 229.43,-257.36l0 0z"/>
    <polygon id="_269450504" class="fil1" points="1928.04,2531.33 1919.55,2242.4 1962.04,2505.83 "/>
    <polygon id="_269450288" class="fil1" points="857.12,2531.33 865.62,2242.4 823.13,2505.83 "/>
    <path id="_269450072" class="fil1" d="M2013.01 970.19c0,0 -21.85,131.11 0,286.49 0,0 12.14,-191.81 47.34,-265.86l-24.28 -19.42 -23.06 -1.21z"/>
    <path id="_269449856" class="fil1" d="M777.32 970.19c0,0 21.85,131.11 0,286.49 0,0 -12.14,-191.81 -47.34,-265.86l24.28 -19.42 23.06 -1.21z"/>
    <path id="_268901264" class="fil1" d="M1014.02 603.4c0,0 116.03,212.18 150.05,482.17 0,0 81.9,65.43 183.38,119.12 14.17,7.5 22.01,10.92 29.99,10.61 7.98,-0.31 16.09,-4.36 30.8,-11.81 101.18,-51.23 176.87,-125.8 176.87,-125.8 34.02,-269.99 151.87,-473.09 151.87,-473.09 -141.49,-109.39 -239.82,-137.68 -239.82,-137.68 -93.46,-4.51 -157.14,-3.29 -250.6,1.21 0,0 -91.05,25.87 -232.53,135.25l-0 0z"/>
    <path id="_268901192" class="fil6" d="M1550.6 1064.08c15.92,-114.51 46.99,-228.25 88.4,-335.99 14.02,-36.48 30.05,-75.57 47.83,-112.08 -59.48,-43.38 -126.7,-87.29 -196.65,-112.36 -77.96,-3.58 -152.61,-3.58 -230.57,0 -69.95,25.07 -137.17,68.98 -196.65,112.36 17.78,36.52 33.81,75.6 47.83,112.08 41.4,107.74 72.47,221.48 88.4,335.99 48.5,40.29 108.95,79.85 163.14,107.73 2.7,1.39 9.26,4.78 12.64,5.51 4.03,-0.94 12.48,-5.5 15.76,-7.21 53.12,-27.67 112.22,-66.46 159.86,-106.03l0 0z"/>
    <path id="_268901120" class="fil7" d="M1550.6 1064.08c15.92,-114.51 46.99,-228.25 88.4,-335.99 14.02,-36.48 30.05,-75.57 47.83,-112.08 -36.44,-26.58 -75.8,-53.35 -116.9,-75.87 -33.1,6.87 -69.22,15.3 -108.77,25.58 -61.72,143.8 -89.58,441.27 -90.61,610.03 1.67,0.71 3.24,1.3 4.43,1.56 4.03,-0.94 12.48,-5.5 15.76,-7.21 53.12,-27.67 112.22,-66.46 159.86,-106.03l0 0z"/>
    <path id="_268901048" class="fil8" d="M1685.82 615.28c-59.23,-43.14 -126.09,-86.7 -195.65,-111.63 -77.96,-3.58 -152.61,-3.58 -230.57,0 -69.95,25.07 -137.17,68.98 -196.65,112.36l0.07 0.15c61.44,-12.14 346.18,-61.81 622.8,-0.88z"/>
    <path id="_268900976" class="fil1" d="M1391.05 843.54c0,0 -37.63,183.31 -31.56,362.97l41.27 -3.64c0,0 -19.42,-135.96 -9.71,-359.33z"/>
    <path id="_268900904" class="fil7" d="M1259.54 520.34l-115.73 83.01c0,0 25.08,109.09 54.21,249.9l-12.14 -253.71 73.65 -79.2z"/>
    <path id="_268900832" class="fil7" d="M1278.15 651.73c0,12.14 23.08,484.33 23.08,484.33l42.47 23.69 -65.54 -508.02 0 0z"/>
    <polygon id="_268900760" class="fil6" points="1450.53,586.18 1440.82,938.23 1405.62,594.68 "/>
    <path id="_268900688" class="fil1" d="M1565.86 777.98c-4.86,17 -54.63,197.87 -47.34,338.69l36.42 -24.28c0,0 -14.57,-138.39 10.93,-314.41l0 0z"/>
    <polygon id="_268900616" class="fil1" points="1300.07,487.01 1255.91,554.87 1328.32,494.89 "/>
    <polygon id="_268900544" class="fil7" points="1253.13,564.38 1226.57,593.66 1238.64,704.75 1245.89,591.25 "/>
    <path id="_268900472" class="fil7" d="M1357.09 512.46c0,3.03 -3.03,73.92 -3.03,73.92l18.18 184.8 5.45 -186.01 -20.6 -72.71 0 -0z"/>
    <polygon id="_268900400" class="fil7" points="1481.91,513.67 1601.27,605.16 1594,756.64 1634.59,603.34 "/>
    <path id="_268900328" class="fil7" d="M1468.67 530.87c1.51,1.51 70.03,62.79 70.03,62.79l-29.58 2.41 -40.45 -65.2z"/>
    <polygon id="_268900256" class="fil6" points="1611.45,604.53 1599.45,731.79 1633.99,603.95 "/>
    <path id="_268900184" class="fil1" d="M1001.37 660.23c0,10.93 115.32,214.87 161.45,424.88l31.56 -12.14c0,0 -41.27,-236.72 -193.02,-412.74l0 0z"/>
    <path id="_268900112" class="fil1" d="M1655.79 840.91c0,0 -73.95,135.58 -88.45,212.43l22.48 19.58c0,0 51.48,-173.28 65.98,-232.01z"/>
    <path id="_268900040" class="fil1" d="M1744.91 911.48c10.39,0 18.82,8.43 18.82,18.82 0,10.39 -8.43,18.82 -18.82,18.82 -10.39,0 -18.82,-8.43 -18.82,-18.82 0,-10.39 8.43,-18.82 18.82,-18.82zm228.22 173.59c2.35,0 4.25,1.9 4.25,4.25 0,2.35 -1.9,4.25 -4.25,4.25 -2.35,0 -4.25,-1.9 -4.25,-4.25 0,-2.35 1.9,-4.25 4.25,-4.25zm131.11 422.45c5.03,0 9.11,4.08 9.11,9.1 0,5.03 -4.08,9.11 -9.11,9.11 -5.03,0 -9.1,-4.08 -9.1,-9.11 0,-5.03 4.08,-9.1 9.1,-9.1zm-59.48 -178.45c3.02,0 5.46,2.45 5.46,5.46 0,3.02 -2.45,5.46 -5.46,5.46 -3.01,0 -5.46,-2.45 -5.46,-5.46 0,-3.01 2.45,-5.46 5.46,-5.46zm54.63 -65.55c2.35,0 4.25,1.9 4.25,4.25 0,2.35 -1.9,4.25 -4.25,4.25 -2.35,0 -4.25,-1.9 -4.25,-4.25 0,-2.35 1.9,-4.25 4.25,-4.25zm3.04 169.95c5.36,0 9.71,4.35 9.71,9.71 0,5.36 -4.35,9.71 -9.71,9.71 -5.36,0 -9.71,-4.35 -9.71,-9.71 0,-5.36 4.35,-9.71 9.71,-9.71zm-6.07 -95.9c8.71,0 15.78,7.07 15.78,15.78 0,8.71 -7.07,15.78 -15.78,15.78 -8.71,0 -15.78,-7.07 -15.78,-15.78 0,-8.71 7.07,-15.78 15.78,-15.78zm-49.77 -86.19c6.03,0 10.93,4.89 10.93,10.93 0,6.03 -4.89,10.93 -10.93,10.93 -6.03,0 -10.93,-4.89 -10.93,-10.93 0,-6.03 4.89,-10.93 10.93,-10.93zm17.6 -94.69c5.03,0 9.11,4.08 9.11,9.1 0,5.03 -4.08,9.11 -9.11,9.11 -5.03,0 -9.1,-4.08 -9.1,-9.11 0,-5.03 4.08,-9.1 9.1,-9.1zm-364.18 -299.85c6.37,0 11.53,5.16 11.53,11.53 0,6.37 -5.16,11.53 -11.53,11.53 -6.37,0 -11.53,-5.16 -11.53,-11.53 0,-6.37 5.16,-11.53 11.53,-11.53zm230.65 148.1c5.7,0 10.32,4.62 10.32,10.32 0,5.7 -4.62,10.32 -10.32,10.32 -5.7,0 -10.32,-4.62 -10.32,-10.32 0,-5.7 4.62,-10.32 10.32,-10.32zm-56.45 -76.48c7.37,0 13.35,5.98 13.35,13.35 0,7.37 -5.98,13.35 -13.35,13.35 -7.37,0 -13.35,-5.98 -13.35,-13.35 0,-7.37 5.98,-13.35 13.35,-13.35zm-206.37 112.9c4.69,0 8.5,3.81 8.5,8.5 0,4.69 -3.81,8.5 -8.5,8.5 -4.69,0 -8.5,-3.81 -8.5,-8.5 0,-4.69 3.81,-8.5 8.5,-8.5zm124.43 -35.2c4.36,0 7.89,3.53 7.89,7.89 0,4.36 -3.53,7.89 -7.89,7.89 -4.36,0 -7.89,-3.53 -7.89,-7.89 0,-4.36 3.53,-7.89 7.89,-7.89z"/>
    <path id="_268899968" class="fil1" d="M1017.76 930.9c9.05,0 16.39,7.34 16.39,16.39 0,9.05 -7.34,16.39 -16.39,16.39 -9.05,0 -16.39,-7.34 -16.39,-16.39 0,-9.05 7.34,-16.39 16.39,-16.39zm78.3 117.75c8.04,0 14.57,6.52 14.57,14.57 0,8.04 -6.52,14.57 -14.57,14.57 -8.04,0 -14.57,-6.52 -14.57,-14.57 0,-8.04 6.52,-14.57 14.57,-14.57zm-416.38 205.16c5.36,0 9.71,4.35 9.71,9.71 0,5.36 -4.35,9.71 -9.71,9.71 -5.36,0 -9.71,-4.35 -9.71,-9.71 0,-5.36 4.35,-9.71 9.71,-9.71zm4.25 157.81c7.71,0 13.96,6.25 13.96,13.96 0,7.71 -6.25,13.96 -13.96,13.96 -7.71,0 -13.96,-6.25 -13.96,-13.96 0,-7.71 6.25,-13.96 13.96,-13.96zm44.92 -108.04c8.38,0 15.18,6.79 15.18,15.17 0,8.38 -6.79,15.18 -15.18,15.18 -8.38,0 -15.17,-6.79 -15.17,-15.18 0,-8.38 6.79,-15.17 15.17,-15.17zm-41.88 -112.9c6.7,0 12.14,5.44 12.14,12.14 0,6.7 -5.44,12.14 -12.14,12.14 -6.7,0 -12.14,-5.44 -12.14,-12.14 0,-6.7 5.44,-12.14 12.14,-12.14zm352.04 -331.41c5.36,0 9.71,4.35 9.71,9.71 0,5.36 -4.35,9.71 -9.71,9.71 -5.36,0 -9.71,-4.35 -9.71,-9.71 0,-5.36 4.35,-9.71 9.71,-9.71zm-182.09 112.9c6.03,0 10.93,4.89 10.93,10.93 0,6.03 -4.89,10.93 -10.93,10.93 -6.03,0 -10.93,-4.89 -10.93,-10.93 0,-6.03 4.89,-10.93 10.93,-10.93zm196.05 17c3.69,0 6.68,2.99 6.68,6.68 0,3.69 -2.99,6.68 -6.68,6.68 -3.68,0 -6.68,-2.99 -6.68,-6.68 0,-3.68 2.99,-6.68 6.68,-6.68z"/>
    <path id="_268898384" class="fil9" d="M1120.34 1326.65c0,0 377.54,-15.78 505,18.21 127.46,33.99 -376.32,1.21 -505,-18.21z"/>
    <polygon id="_124536424" class="fil1" points="1753.95,810.44 1796.36,737.73 1807.87,747.42 1787.27,826.8 "/>
    <polygon id="_124536352" class="fil1" points="1819.31,835.84 1862.33,790.15 1869.07,799.12 1840.78,853.32 "/>
    <polygon id="_124536280" class="fil1" points="2105.46,1084.55 2173.89,1051.73 2180.28,1063.56 2122.9,1114.65 "/>
    <polygon id="_124536208" class="fil1" points="2161.65,1290.43 2255.02,1296.9 2254.68,1313.49 2162.01,1333.33 "/>
    <polygon id="_124536136" class="fil1" points="2175.01,1363.04 2237.16,1367.35 2236.95,1378.39 2175.24,1391.6 "/>
    <polygon id="_124536064" class="fil1" points="950.27,841.48 922.89,756.54 939.49,752.51 988.76,822.24 "/>
    <polygon id="_124535920" class="fil1" points="912.18,884.18 872.69,810.8 886.1,803.16 946.29,861.48 "/>
    <polygon id="_124535704" class="fil1" points="773.12,949.01 740.28,888 751.43,881.64 801.48,930.14 "/>
    <polygon id="_124535560" class="fil1" points="632.81,1149.52 564.67,1109.22 571.82,1096.42 649.4,1114.32 "/>
    <polygon id="_124535416" class="fil1" points="618.43,1189.2 562.7,1174.79 565.11,1164.4 622.92,1161.26 "/>
    <polygon id="_124535128" class="fil1" points="604.17,1346.82 522.45,1338.15 524.39,1327.57 606.51,1318.57 "/>
   </g>
  </g>
 </g>
</svg>
