<?xml version="1.0" encoding="UTF-8"?>
<!DOCTYPE svg PUBLIC "-//W3C//DTD SVG 1.1//EN" "http://www.w3.org/Graphics/SVG/1.1/DTD/svg11.dtd">
<!-- Creator: CorelDRAW 2020 (64-Bit) -->
<svg xmlns="http://www.w3.org/2000/svg" xml:space="preserve" width="129.436mm" height="197.988mm" version="1.1" style="shape-rendering:geometricPrecision; text-rendering:geometricPrecision; image-rendering:optimizeQuality; fill-rule:evenodd; clip-rule:evenodd"
viewBox="0 0 463.52 709.01"
 xmlns:xlink="http://www.w3.org/1999/xlink"
 xmlns:xodm="http://www.corel.com/coreldraw/odm/2003">
 <defs>
  <style type="text/css">
   <![CDATA[
    .fil0 {fill:none}
    .fil5 {fill:#4B3446}
    .fil1 {fill:#501D33}
    .fil4 {fill:#634C54}
    .fil6 {fill:#896E6B}
    .fil3 {fill:#8E7A5D}
    .fil8 {fill:#8F9499}
    .fil2 {fill:#C3C077}
    .fil7 {fill:white}
   ]]>
  </style>
 </defs>
 <g id="Слой_x0020_1">
  <metadata id="CorelCorpID_0Corel-Layer"/>
  <g id="_2810249624624">
   <rect id="_123937376" class="fil0" y="0" width="463.52" height="709.01"/>
   <path id="_269469392" class="fil1" d="M94.79 378.75c-0.06,-1.45 -0,-2.99 0.02,-4.41 0.05,-2.93 0.14,-5.87 0.23,-8.8 0.26,-8.17 0.57,-16.34 0.88,-24.51 0.49,-12.61 1.01,-25.22 1.56,-37.83l0 -85.23c0,-61.54 55.14,-85.99 110.45,-96.18 17.24,-3.18 30.4,-3.18 47.65,0 56.3,10.38 104.99,35.84 107.25,96.3l3.19 84.99c0.55,12.65 1.07,25.31 1.57,37.96 0.32,8.17 0.63,16.34 0.88,24.51 0.09,2.93 0.18,5.87 0.23,8.8 0.03,1.43 0.08,2.96 0.02,4.41 0.31,4.22 -2.13,8.24 -4.69,11.54 -3.21,4.13 -7.26,8 -11.2,11.51 -11.16,9.93 -24.07,19.03 -36.78,27.09 -55.16,34.98 -110.52,36.25 -166.23,1.5 -13.27,-8.28 -26.73,-17.67 -38.4,-27.91 -4.12,-3.62 -8.36,-7.62 -11.73,-11.89 -2.65,-3.35 -5.24,-7.49 -4.92,-11.83l0 0z"/>
   <path id="_269469320" class="fil2" d="M103.28 378.47c-0.38,-5.26 2.67,-75.2 2.67,-75.2l0 -84.93c0,-57.78 53.51,-79.23 103.59,-88.46 16.51,-3.04 27.93,-3.04 44.44,0 50.09,9.23 98.26,31.1 100.42,88.84l3.17 84.55c0,0 3.05,69.94 2.67,75.2 1.2,6.28 -20.47,25.51 -48.93,43.56 -52.22,33.12 -103.92,34.44 -156.78,1.46 -29.6,-18.46 -52.48,-38.57 -51.25,-45.02l0 0z"/>
   <path id="_269469248" class="fil3" d="M105.95 233.66l0 -15.32c0,-57.78 53.51,-79.23 103.59,-88.46 16.51,-3.04 27.93,-3.04 44.44,0 50.09,9.23 98.26,31.1 100.42,88.84l0.57 15.26c-7.87,2.01 -14.55,2.87 -14.55,2.87 -3.63,-52.06 -31.89,-68.97 -31.89,-68.97 -43.55,24.4 -78.43,28.23 -78.43,28.23 -48.99,-5.85 -76.41,-29.23 -76.41,-29.23 -36.69,27.22 -34.88,65.73 -34.88,65.73 -1.12,5.43 -6.93,4.17 -12.87,1.06l0 -0z"/>
   <g>
    <path id="_269469176" class="fil3" d="M334.61 167.36c11.58,12.83 18.98,29.52 19.8,51.35l1.92 51.15c-24.06,-27.4 -23.94,-75.92 -21.72,-102.5l0 -0z"/>
    <path id="_269469104" class="fil3" d="M105.94 271.24l0 -52.9c0,-23.48 8.84,-40.96 22.69,-54.06 2.49,26.16 3.62,78.77 -22.69,106.97z"/>
   </g>
   <path id="_269469008" class="fil3" d="M312.99 417.65c-0.69,0.44 -1.38,0.88 -2.07,1.33 -51.23,32.49 -101.94,33.79 -153.8,1.43 -4.61,-2.87 -9.05,-5.79 -13.25,-8.68l-0 -0.11c0,0 77,48.13 169.13,6.04z"/>
   <path id="_269468936" class="fil3" d="M103.28 378.47c-0.38,-5.26 2.67,-75.2 2.67,-75.2l0 -6.45c11.66,8.14 35.12,33.14 37.94,43.29 2.81,10.15 -1.03,44.19 -2.23,74.98 -23.08,-15.8 -39.42,-31.13 -38.38,-36.61zm254.06 -81.52l0.24 6.31c0,0 3.05,69.94 2.67,75.2 1.04,5.48 -15.3,20.8 -38.38,36.61 -2.41,-28.77 -5.43,-65.27 -2.63,-75.38 2.81,-10.11 26.7,-32.08 38.1,-42.74z"/>
   <path id="_269468864" class="fil3" d="M177.71 219.88c0,0 50.25,15.98 115.32,-8.31 -36.38,21.25 -76.74,26.55 -115.32,8.31z"/>
   <path id="_269468792" class="fil3" d="M201.93 205.11c0,0 33.4,8.54 68.9,-4.49 0,0 -16.97,10.59 -35.7,11.13 -18.74,0.54 -33.2,-6.64 -33.2,-6.64z"/>
   <polygon id="_269468720" class="fil1" points="320.21,420.41 318.8,372.42 325.86,416.17 "/>
   <polygon id="_269468648" class="fil1" points="142.35,420.41 143.76,372.42 136.71,416.17 "/>
   <path id="_269468576" class="fil1" d="M334.33 161.13c0,0 -3.63,21.77 0,47.58 0,0 2.02,-31.86 7.86,-44.15l-4.03 -3.23 -3.83 -0.2z"/>
   <path id="_269468504" class="fil1" d="M129.1 161.13c0,0 3.63,21.77 0,47.58 0,0 -2.02,-31.86 -7.86,-44.15l4.03 -3.23 3.83 -0.2z"/>
   <path id="_269462216" class="fil1" d="M120.76 149.07c0,0 8.34,-5.09 11.84,-15.71 0,0 4.54,6.69 0.34,13.2 -4.2,6.51 -11.82,3.4 -12.18,2.52z"/>
   <path id="_269462144" class="fil1" d="M97.68 243.81l17.79 -6.05c0,0 -3.72,-56.1 35.98,-80.31 0,0 38.47,25.56 68.78,34.1 4.13,1.16 7.42,2.21 10.55,2.19 3.55,-0.03 6.92,-1.28 11.62,-2.69 30.03,-8.99 67.05,-33.59 67.05,-33.59 39.71,24.22 35.98,80.31 35.98,80.31l17.79 6.05c1.31,-27.01 7.41,-52.75 2.8,-64.24 -17.62,-43.93 -95.67,-63.81 -131.44,-60.87l-9.23 -0.07c-36.17,-2.52 -112.41,16.99 -129.88,60.53 -4.61,11.49 0.89,37.63 2.2,64.65l-0 0z"/>
   <path id="_269462072" class="fil4" d="M103.9 234.51l4.62 -1.57c0.02,-9.18 1.47,-19.53 3.43,-27.82 5.17,-21.85 16.38,-41.54 35.96,-53.48l3.7 -2.26 3.61 2.4c4.5,2.99 9.21,5.84 13.86,8.58 10.13,5.97 20.6,11.61 31.31,16.46 9.17,4.15 20.01,8.46 30.06,10.07 10.05,-1.61 20.89,-5.92 30.06,-10.07 10.72,-4.85 21.19,-10.49 31.33,-16.47 4.65,-2.74 9.35,-5.59 13.85,-8.58l3.61 -2.4 3.7 2.26c19.58,11.94 30.79,31.63 35.96,53.48 1.96,8.29 3.4,18.64 3.43,27.82l4.62 1.57c0.75,-9.65 1.86,-19.23 2.66,-28.89 0.48,-5.84 1.44,-17.44 -0.76,-22.91 -8.73,-21.75 -33.9,-36.08 -54.68,-44.11 -19.76,-7.63 -47.77,-14.06 -69.08,-12.31l-0.3 0.03 -9.74 -0.07 -0.21 -0.01c-21.22,-1.48 -48.52,4.77 -68.21,12.37 -20.79,8.03 -45.96,22.35 -54.68,44.11 -2.2,5.47 -1.24,17.07 -0.76,22.91 0.79,9.66 1.9,19.25 2.66,28.89z"/>
   <path id="_269462000" class="fil5" d="M100.92 201.35c3.71,0.71 7.57,1.26 11.56,1.6 -0.18,0.72 -0.36,1.44 -0.53,2.16 -1.96,8.29 -3.4,18.64 -3.43,27.82l-4.62 1.57c-0.75,-9.65 -1.86,-19.23 -2.66,-28.89 -0.1,-1.21 -0.22,-2.67 -0.33,-4.27z"/>
   <path id="_269461928" class="fil5" d="M348.15 201.91c0.28,1.06 0.55,2.13 0.81,3.2 1.96,8.29 3.4,18.64 3.43,27.82l4.62 1.57c0.75,-9.65 1.86,-19.23 2.66,-28.89 0.19,-2.28 0.45,-5.44 0.56,-8.77 -3.72,1.8 -7.75,3.52 -12.07,5.06z"/>
   <path id="_269461856" class="fil6" d="M305.69 142.11c0,0 -25.76,17.41 -32.6,21.53l26.36 -24.96 6.24 3.42z"/>
   <path id="_269461784" class="fil6" d="M155.93 141.32c0,0 25.76,17.41 32.6,21.53l-26.36 -24.96 -6.24 3.42z"/>
   <path id="_269461712" class="fil6" d="M360.26 195.53c0.11,-4.8 -0.13,-9.77 -1.36,-12.82 -8.73,-21.75 -33.9,-36.08 -54.68,-44.11 -19.76,-7.63 -47.77,-14.06 -69.08,-12.31l-0.3 0.03 -9.74 -0.07 -0.21 -0.01c-21.22,-1.48 -48.52,4.77 -68.21,12.37 -20.79,8.03 -45.96,22.35 -54.68,44.11 -1.23,3.05 -1.47,8.02 -1.36,12.82 0.09,-3.48 0.46,-6.75 1.36,-8.99 8.73,-21.75 33.9,-36.08 54.68,-44.11 19.68,-7.6 46.98,-13.85 68.21,-12.37l0.21 0.01 9.74 0.07 0.3 -0.03c21.31,-1.75 49.31,4.68 69.08,12.31 20.79,8.03 45.96,22.35 54.68,44.11 0.9,2.24 1.27,5.51 1.36,8.99z"/>
   <path id="_269461640" class="fil5" d="M296.05 135.67c-18.83,-6.25 -42.39,-10.91 -60.9,-9.39l-0.3 0.03 -9.74 -0.07 -0.21 -0.01c-18.31,-1.27 -41.14,3.2 -59.7,9.34 9.93,9.88 33.11,28.54 66.74,28.68 28.57,0.13 51.17,-16.25 64.12,-28.57z"/>
   <path id="_269459768" class="fil5" d="M137.05 159.77c-3.61,-1.76 -7.22,-3.51 -10.83,-5.27 -1.33,0.94 -2.64,1.91 -3.91,2.91 3.81,1.86 7.63,3.71 11.44,5.57 1.06,-1.1 2.16,-2.17 3.3,-3.2zm-27.91 62.11c0.11,-1.07 0.23,-2.14 0.37,-3.21l-7.07 -0.12 0.31 3.22c2.13,0.04 4.26,0.07 6.39,0.11zm1.78 -11.99c0.21,-1.09 0.44,-2.16 0.67,-3.21l-10.27 -0.14c0.09,1.07 0.18,2.15 0.28,3.22 3.11,0.04 6.21,0.09 9.32,0.13zm3.31 -13.03c0.42,-1.33 0.87,-2.64 1.34,-3.94l-14.94 -0.49c-0.02,1.32 -0,2.67 0.04,3.99 4.52,0.15 9.04,0.3 13.56,0.45zm4.47 -11.57c0.58,-1.25 1.18,-2.49 1.81,-3.71l-16.49 -3.24c-0.64,1.21 -1.22,2.45 -1.75,3.72 5.48,1.08 10.95,2.15 16.43,3.23zm6.08 -11.02c0.76,-1.16 1.54,-2.3 2.36,-3.42 -4.78,-1.58 -9.56,-3.17 -14.34,-4.75 -0.98,1.06 -1.92,2.15 -2.82,3.26 4.94,1.64 9.87,3.27 14.81,4.91zm22.55 -22.27c0.19,-0.12 0.39,-0.24 0.58,-0.36 1.16,-0.71 2.32,-1.42 3.49,-2.13 -2.6,-1.73 -5.2,-3.47 -7.8,-5.2 -1.47,0.72 -2.95,1.47 -4.41,2.26 2.72,1.81 5.43,3.62 8.15,5.43zm70.61 31.77c4.19,1.36 8.42,2.46 12.51,3.12 6.27,-1 12.85,-3.06 19.15,-5.47 12.52,-8.75 31.98,-23.28 54.04,-43.03 -1.52,-0.58 -3.09,-1.16 -4.71,-1.72 -25.08,25.45 -48.83,41.48 -60.33,47.76 15.44,-14.88 35.96,-40.36 45.38,-52.34 -1.49,-0.39 -2.98,-0.78 -4.5,-1.14 -8.31,13.13 -27.39,38.31 -43.71,51.98 5.53,-15.63 11.06,-31.27 16.59,-46.9 -1.12,-0.4 -2.25,-0.79 -3.37,-1.19 -4.62,16.72 -10.4,32.95 -17.23,48.73 -6.46,-16.24 -12.03,-32.49 -17.23,-48.73 -1.12,0.4 -2.25,0.79 -3.37,1.19 5.53,15.63 11.06,31.27 16.59,46.9 -16.09,-14.21 -35.44,-39.84 -44.11,-52.51 -1.24,0.29 -2.48,0.58 -3.71,0.89 8.79,11.54 28.45,36.75 43.88,52.02 -11.77,-6.43 -35.41,-21.85 -62.08,-46.57 -1.31,0.46 -2.59,0.93 -3.85,1.4 25.47,21.97 47.52,37.38 60.07,45.62zm91.39 -34.37c1.22,0.75 2.45,1.49 3.67,2.24 0.13,0.08 0.27,0.17 0.4,0.25 2.71,-1.81 5.42,-3.61 8.14,-5.42 -1.47,-0.78 -2.95,-1.53 -4.42,-2.25 -2.59,1.73 -5.19,3.46 -7.78,5.19zm14.4 10.26c1.14,1.03 2.24,2.1 3.31,3.2 3.81,-1.85 7.61,-3.7 11.42,-5.56 -1.28,-1 -2.59,-1.96 -3.92,-2.9 -3.6,1.75 -7.21,3.51 -10.81,5.26zm9.97 11.1c0.82,1.12 1.61,2.26 2.37,3.41 4.93,-1.63 9.86,-3.27 14.79,-4.9 -0.9,-1.11 -1.85,-2.2 -2.83,-3.26 -4.78,1.58 -9.55,3.16 -14.33,4.75zm6.66 10.76c0.63,1.22 1.24,2.45 1.82,3.7 5.48,-1.08 10.96,-2.15 16.44,-3.23 -0.53,-1.26 -1.12,-2.5 -1.76,-3.72 -5.5,1.08 -11,2.16 -16.49,3.24zm4.97 11.39c0.47,1.3 0.92,2.62 1.34,3.94 4.52,-0.15 9.05,-0.3 13.57,-0.45 0.04,-1.32 0.06,-2.67 0.04,-3.99 -4.98,0.16 -9.96,0.33 -14.95,0.49zm3.98 13.77c0.23,1.04 0.45,2.11 0.67,3.21 3.11,-0.04 6.21,-0.09 9.32,-0.13 0.1,-1.07 0.19,-2.15 0.28,-3.22 -3.42,0.05 -6.85,0.09 -10.27,0.14zm2.08 11.99c0.14,1.07 0.26,2.14 0.37,3.21 2.13,-0.04 4.26,-0.07 6.39,-0.11 0.1,-1.07 0.21,-2.15 0.31,-3.22 -2.36,0.04 -4.71,0.08 -7.07,0.12z"/>
   <path id="_269461112" class="fil1" d="M159.46 124.41c51.95,40.18 90.04,40.18 141.99,0 5.72,-4.01 7.48,-7.54 6.56,-10.91 -1.26,-4.58 -6.31,-9.9 -6.31,-9.9 -48.37,-51.15 -94.1,-51.15 -142.48,0 0,0 -5.06,5.33 -6.31,9.9 -0.92,3.37 0.83,6.9 6.56,10.91l0 0z"/>
   <path id="_269461040" class="fil4" d="M296.75 108.28c-45.66,-48.28 -86.92,-48.29 -132.6,0 -4.27,4.53 -6.3,6.7 -0.79,10.56l0.13 0.09 0.13 0.1c49.47,38.27 84.19,38.27 133.66,0l0.13 -0.1 0.13 -0.09c5.52,-3.86 3.48,-6.02 -0.79,-10.56z"/>
   <path id="_269460968" class="fil6" d="M209.75 79.57c0,0 -1.58,31.44 0.84,45.35l-1.85 -4.82c0,0 -3.83,-20.97 -3.43,-38.31l2.02 -5.24 2.42 3.02z"/>
   <path id="_269460896" class="fil6" d="M253.66 80.78c0,0 0.81,27.82 -1.61,41.73l2.62 -1.21c0,0 3.83,-20.97 3.43,-38.31l-2.02 -5.24 -2.42 3.02z"/>
   <polygon id="_269460824" class="fil6" points="239.59,76.54 233.14,121.91 232.33,74.53 "/>
   <path id="_269460752" class="fil6" d="M296.75 108.28c-45.66,-48.28 -86.92,-48.29 -132.6,0 -2.88,3.05 -4.74,5.03 -3.96,7.18 0.5,-1.48 1.99,-3.07 3.96,-5.16 46.75,-42.65 88.01,-42.64 132.6,-0 1.97,2.09 3.47,3.68 3.96,5.16 0.78,-2.15 -1.08,-4.12 -3.96,-7.18z"/>
   <path id="_269459840" class="fil1" d="M105.54 162.62c0,0 9.08,-7.92 7.79,-22.63 0,0 8,6.03 5.67,15.34 -2.33,9.31 -12.69,8.18 -13.46,7.29z"/>
   <path id="_269459240" class="fil5" d="M203.46 78.24c-0.69,11.22 -1.21,43.92 13.53,68.18 1.58,0.3 3.15,0.55 4.72,0.75 -17.01,-23.09 -16.06,-58.18 -14.61,-70.47 -1.21,0.48 -2.43,0.99 -3.64,1.54zm90.74 27.39c-0.43,-0.44 -0.86,-0.87 -1.29,-1.3l-0.01 -0.01 -0.04 -0.04 -0.86 -0.86 -0 -0 -0.04 -0.04 -0.07 -0.07c-5.68,11.17 -17.22,27.6 -33.61,36.19 12.86,-17.33 17.53,-40.03 18.95,-49.11 -0.94,-0.72 -1.87,-1.42 -2.81,-2.1 -1.2,10.91 -6.98,40.23 -25.27,56.92 2.26,-0.6 4.53,-1.3 6.81,-2.1 0.25,-0.09 0.5,-0.18 0.75,-0.27 0.46,-0.17 0.92,-0.34 1.38,-0.51l0.53 -0.2c0.53,-0.21 1.06,-0.42 1.59,-0.63l0.4 -0.16c0.55,-0.23 1.11,-0.46 1.67,-0.7l0.33 -0.14c14.86,-9.79 25.68,-25.05 31.58,-34.86zm-34.08 -26.11c-1.22,-0.61 -2.44,-1.18 -3.65,-1.71 0.63,13.61 0.34,46.71 -15.05,69.05 1.62,-0.25 3.24,-0.56 4.87,-0.92 12.73,-22.94 13.59,-53.58 13.84,-66.42zm-26.08 -7.34c-1.26,-0.08 -1.61,-0.06 -2.87,-0.05l-0.33 76.07c1.26,0 1.93,-0.5 3.19,-0.57l0 -75.45zm-45.35 14.55c-0.94,0.65 -1.87,1.32 -2.81,2.01 0.91,6.95 5.61,35.9 22.31,55.34 -17.74,-8.5 -31.75,-29.63 -38.14,-41.77 -0.77,0.75 -1.54,1.52 -2.32,2.3 5.24,8.67 14.76,23.93 26.59,34.06 6.74,3.26 13.3,5.64 19.76,7.14 -19.41,-17.49 -24.72,-50.47 -25.39,-59.08z"/>
   <g>
    <path id="_269458928" class="fil1" d="M286.76 103.96l23.89 -15.32c0,0 -4.44,-14.21 3.32,-17.14 7.76,-2.93 14.31,2.12 12.3,13.81 7.11,-0.31 14.92,4.81 12.06,13.23 -3.29,9.7 -15.56,8.42 -21.79,2.18l-23.95 12.51 -5.85 -9.27z"/>
    <path id="_269458856" class="fil7" d="M289.99 104.87l26.77 -14.99c0,0 -6.74,-12.48 -0.6,-13.99 6.14,-1.51 7.25,7.38 5.23,16.94 0.92,-0.08 3.14,-2.06 4.06,-3.41 12.63,0.06 11.62,9.1 4.99,10.69 -5.06,1.21 -9.38,-1.31 -13.07,-4.49l-24.96 14.09 -2.42 -4.83z"/>
    <path id="_269458784" class="fil8" d="M318.5 95.01c0,0 3.96,4.41 9.73,4.21 5.77,-0.2 5.97,-5.36 5.97,-5.36 0,0 -4.41,3.46 -15.69,1.15z"/>
    <polygon id="_269458712" class="fil8" points="316.6,94.66 292.88,108.8 291.48,106.19 "/>
   </g>
   <g>
    <path id="_269458616" class="fil1" d="M178.33 115.47l-27.05 -8.59c0,0 -8.1,12.5 -15.31,8.39 -7.21,-4.1 -7.51,-12.37 2.77,-18.29 -4.78,-5.27 -5.83,-14.55 2.47,-17.74 9.56,-3.67 16.42,6.59 15.6,15.37l24.92 10.43 -3.4 10.42z"/>
    <path id="_269458544" class="fil7" d="M176.98 112.41l-28.64 -11.01c0,0 -5.29,13.16 -10.37,9.4 -5.08,-3.76 1.05,-10.29 9.69,-14.85 -0.65,-0.66 -3.6,-1.1 -5.22,-0.94 -8.03,-9.75 -0.42,-14.75 5.03,-10.67 4.17,3.12 4.98,8.05 4.89,12.93l26.78 10.2 -2.17 4.94z"/>
    <path id="_269458472" class="fil8" d="M151.17 96.77c0,0 0.86,-5.87 -2.97,-10.17 -3.84,-4.31 -7.94,-1.16 -7.94,-1.16 0,0 5.48,1.18 10.91,11.34z"/>
    <polygon id="_269458400" class="fil8" points="152.12,98.46 178.15,107.67 177.04,110.42 "/>
   </g>
   <path class="fil1" d="M253.35 127.13c0,0 -5.33,15.99 -12.32,22.86l6.63 0.24c0,0 5.33,-7.34 5.68,-23.1z"/>
   <path class="fil1" d="M202.04 130.38c0,0 9.41,13.98 17.98,18.73l-6.33 2c0,0 -7.1,-5.65 -11.66,-20.73z"/>
   <polygon class="fil1" points="234.05,90.79 231.58,68.27 236.44,68.65 "/>
   <polygon class="fil1" points="274.38,104.52 277.13,89.17 280.26,90.37 "/>
  </g>
 </g>
</svg>
