<?xml version="1.0" encoding="UTF-8"?>
<!DOCTYPE svg PUBLIC "-//W3C//DTD SVG 1.1//EN" "http://www.w3.org/Graphics/SVG/1.1/DTD/svg11.dtd">
<!-- Creator: CorelDRAW 2020 (64-Bit) -->
<svg xmlns="http://www.w3.org/2000/svg" xml:space="preserve" width="129.436mm" height="197.988mm" version="1.1" style="shape-rendering:geometricPrecision; text-rendering:geometricPrecision; image-rendering:optimizeQuality; fill-rule:evenodd; clip-rule:evenodd"
viewBox="0 0 909.15 1390.66"
 xmlns:xlink="http://www.w3.org/1999/xlink"
 xmlns:xodm="http://www.corel.com/coreldraw/odm/2003">
 <defs>
  <style type="text/css">
   <![CDATA[
    .fil0 {fill:none}
    .fil6 {fill:#4B3446}
    .fil1 {fill:#501D33}
    .fil5 {fill:#634C54}
    .fil10 {fill:#856969}
    .fil7 {fill:#896E6B}
    .fil3 {fill:#8E7A5D}
    .fil8 {fill:#AE9F90}
    .fil2 {fill:#C3C077}
    .fil9 {fill:#D2C8AD}
    .fil4 {fill:#E0E28A}
   ]]>
  </style>
 </defs>
 <g id="Слой_x0020_1">
  <metadata id="CorelCorpID_0Corel-Layer"/>
  <g id="_1782064147504">
   <g id="_268908728">
    <rect id="_273923616" class="fil0" width="909.15" height="1390.66"/>
    <g>
     <path id="_273442056" class="fil1" d="M185.91 742.89c-0.12,-2.85 -0.01,-5.86 0.04,-8.66 0.11,-5.75 0.28,-11.51 0.46,-17.26 0.5,-16.03 1.11,-32.05 1.73,-48.08 0.97,-24.74 1.99,-49.47 3.07,-74.2l0 -167.18c0,-120.71 108.16,-168.65 216.63,-188.65 33.82,-6.24 59.63,-6.24 93.46,0 110.43,20.36 205.92,70.3 210.37,188.88l6.25 166.69c1.08,24.82 2.11,49.64 3.08,74.46 0.63,16.02 1.23,32.05 1.73,48.08 0.18,5.75 0.35,11.51 0.46,17.26 0.05,2.8 0.16,5.81 0.04,8.66 0.61,8.28 -4.18,16.17 -9.21,22.63 -6.3,8.1 -14.24,15.7 -21.97,22.57 -21.89,19.47 -47.21,37.32 -72.13,53.13 -108.18,68.61 -216.77,71.1 -326.04,2.94 -26.03,-16.24 -52.43,-34.65 -75.31,-54.75 -8.08,-7.1 -16.4,-14.95 -23.02,-23.33 -5.2,-6.58 -10.28,-14.7 -9.65,-23.2z"/>
     <path id="_273441984" class="fil2" d="M202.57 742.33c-0.75,-10.33 5.23,-147.5 5.23,-147.5l0 -166.58c0,-113.33 104.95,-155.4 203.19,-173.51 32.38,-5.97 54.79,-5.97 87.17,0 98.25,18.11 192.72,61 196.97,174.25l6.22 165.84c0,0 5.98,137.18 5.23,147.5 2.35,12.32 -40.14,50.03 -95.97,85.44 -102.43,64.97 -203.82,67.55 -307.52,2.87 -58.05,-36.21 -102.94,-75.66 -100.52,-88.3z"/>
     <path id="_273441912" class="fil3" d="M238.43 392.68c11.68,0 21.16,9.47 21.16,21.16 0,11.68 -9.47,21.16 -21.16,21.16 -2.71,0 -5.31,-0.51 -7.69,-1.44l0 -17.96c0,-7.64 0.49,-14.95 1.42,-21.97 1.98,-0.62 4.09,-0.95 6.28,-0.95zm31.47 74.77c1.58,0 2.86,1.28 2.86,2.86 0,1.58 -1.28,2.86 -2.86,2.86 -1.58,0 -2.86,-1.28 -2.86,-2.86 0,-1.58 1.28,-2.86 2.86,-2.86zm10.06 -40.76c4.7,0 8.5,3.81 8.5,8.5 0,4.7 -3.81,8.5 -8.5,8.5 -4.69,0 -8.5,-3.81 -8.5,-8.5 0,-4.69 3.81,-8.5 8.5,-8.5zm-29.59 14.69c6.48,0 11.73,5.25 11.73,11.73 0,6.48 -5.25,11.73 -11.73,11.73 -6.48,0 -11.73,-5.25 -11.73,-11.73 0,-6.48 5.25,-11.73 11.73,-11.73z"/>
     <path id="_273441840" class="fil4" d="M207.87 423.24c3.05,-109.56 106.34,-150.66 203.12,-168.5 32.38,-5.97 54.79,-5.97 87.17,0 98.25,18.11 192.72,61 196.97,174.25l0.02 0.51c-14.37,-98.83 -103.84,-137.88 -196.65,-154.99 -32.63,-6.02 -55.21,-6.02 -87.84,0 -91.06,16.79 -187.83,54.01 -202.78,148.73z"/>
     <g>
      <path id="_273441768" class="fil3" d="M656.3 328.27c22.72,25.16 37.22,57.91 38.83,100.72l3.76 100.32c-47.18,-53.74 -46.96,-148.91 -42.59,-201.04z"/>
      <path id="_273441696" class="fil3" d="M207.8 532.01l0 -103.77c0,-46.06 17.33,-80.34 44.51,-106.04 4.89,51.31 7.1,154.51 -44.51,209.8z"/>
     </g>
     <path id="_273441600" class="fil3" d="M613.91 819.17c-1.35,0.87 -2.7,1.73 -4.06,2.6 -100.48,63.73 -199.95,66.27 -301.67,2.81 -9.03,-5.64 -17.74,-11.35 -25.99,-17.03l-0.01 -0.22c0,0 151.03,94.4 331.73,11.84z"/>
     <path id="_273441528" class="fil3" d="M202.57 742.33c-0.75,-10.33 5.23,-147.5 5.23,-147.5l0 -12.66c22.87,15.97 68.89,65 74.41,84.9 5.52,19.9 -2.02,86.68 -4.37,147.06 -45.27,-31 -77.33,-61.06 -75.28,-71.8zm498.31 -159.89l0.46 12.39c0,0 5.98,137.18 5.23,147.5 2.05,10.74 -30.02,40.8 -75.28,71.8 -4.72,-56.43 -10.65,-128.02 -5.15,-147.86 5.5,-19.83 52.36,-62.92 74.74,-83.84z"/>
     <path id="_273441456" class="fil3" d="M348.57 431.27c0,0 98.55,31.35 226.19,-16.29 -71.36,41.68 -150.52,52.08 -226.19,16.29z"/>
     <path id="_273441384" class="fil3" d="M396.07 402.29c0,0 65.52,16.75 135.14,-8.81 0,0 -33.28,20.77 -70.03,21.83 -36.75,1.06 -65.11,-13.02 -65.11,-13.02z"/>
     <path id="_273441240" class="fil3" d="M642.82 427.59c7.41,-2.01 15.36,3.55 17.76,12.41 2.4,8.86 -1.66,17.67 -9.07,19.68 -7.41,2.01 -15.36,-3.55 -17.76,-12.41 -2.4,-8.86 1.66,-17.67 9.07,-19.68zm17.82 -21.46c3.43,-0.93 7.11,1.65 8.22,5.75 1.11,4.1 -0.77,8.18 -4.2,9.11 -3.43,0.93 -7.11,-1.65 -8.22,-5.75 -1.11,-4.1 0.77,-8.18 4.2,-9.11zm12.51 46.51c2.24,-0.61 4.65,1.08 5.38,3.76 0.73,2.68 -0.5,5.35 -2.74,5.96 -2.24,0.61 -4.65,-1.08 -5.38,-3.76 -0.73,-2.68 0.5,-5.35 2.74,-5.96z"/>
     <polygon id="_273441168" class="fil1" points="628.07,824.59 625.3,730.47 639.14,816.29 "/>
     <polygon id="_273441096" class="fil1" points="279.21,824.59 281.98,730.47 268.14,816.29 "/>
     <path id="_273441024" class="fil3" d="M543.95 271.29c0,0 -11.86,48.64 -101.23,50.22 0,0 34.8,-3.56 56.55,-31.24l12.65 -15.03 32.03 -3.95z"/>
     <path id="_273440952" class="fil3" d="M542.63 263.65c0.6,1.66 0.93,3.35 0.93,5.08 0,20.05 -42.32,36.3 -94.51,36.3 -52.19,0 -94.51,-16.26 -94.51,-36.3 0,-0.57 0.04,-1.13 0.11,-1.69 18.63,-5.61 37.81,-9.99 56.75,-13.49 32.38,-5.97 54.79,-5.97 87.17,0 14.88,2.74 29.67,6.06 44.08,10.1z"/>
     <path id="_273437400" class="fil1" d="M655.75 316.04c0,0 -7.12,42.71 0,93.33 0,0 3.95,-62.48 15.42,-86.6l-7.91 -6.33 -7.51 -0.4z"/>
     <path id="_273437328" class="fil1" d="M253.21 316.04c0,0 7.12,42.71 0,93.33 0,0 -3.95,-62.48 -15.42,-86.6l7.91 -6.33 7.51 -0.4z"/>
    </g>
    <g>
     <path id="_273440880" class="fil1" d="M379.65 219.95c0,0 -57.8,-22.04 -94.63,-61.59 0,0 35.03,27.05 96.12,46.79l3.9 7.89c0,0 -5.2,6.51 -5.38,6.91z"/>
     <path id="_273440808" class="fil1" d="M299.15 126.33c0,0 34.6,-56.15 40.18,-101.63 0,0 1.49,45.08 -16,85.81 -17.48,40.73 -22.97,22 -24.18,15.82z"/>
     <path id="_273440736" class="fil1" d="M780.15 116.04c0,0 21.17,27.94 51.99,51.62 0,0 -25.07,-11.84 -43.45,-28.03 -18.38,-16.18 -8.55,-23.59 -8.55,-23.59z"/>
     <path id="_273440664" class="fil1" d="M854.89 186.8c0,0 23.18,19.18 54.18,49.13 -14.49,-18.82 -31.89,-40.24 -37.83,-46.38 -5.94,-6.14 -16.36,-2.75 -16.36,-2.75z"/>
     <path id="_273440592" class="fil1" d="M379.32 220.7c0,0 -71.86,-55.8 -83.03,-74.8 -11.17,-19 64.04,-110.82 92.34,-130.61 0,0 68.51,20.98 130.32,16.23 0,0 72.23,136.76 248.73,79.76 0,0 6.91,-2.63 12.49,4.49 5.58,7.12 30.19,48.72 63.95,73.63 0,0 23.08,-10.1 31.31,-13.34 2.25,1.28 33.72,37.27 33.72,37.27l-31.93 -11.88c0,0 -31.99,23.45 -42.13,27.59 -9.58,-1.08 -63.57,-31.43 -79.2,-33.41 -15.62,-1.98 -74.13,20.28 -81.2,21.66 -7.07,1.38 -63.8,19.77 -121.09,-35.2l-34.79 30.24c0,0 -23.25,12.86 -139.5,8.37z"/>
     <path id="_273440520" class="fil5" d="M384.1 208.31c0,0 -55.33,-40.07 -76.69,-69.28 0,0 20.01,-47.1 83.99,-107.61 0,0 62.69,17.6 123.22,12.67 0,0 79.9,142.94 250.28,79.67 6.36,-1.94 9.67,2.12 12.85,6.74 10.47,15.16 21.77,59.84 57.49,75.49l2.95 0.96c0,0 16.37,-9.15 36.26,-21.34l14.52 12.19 -13.23 -5.51c0,0 -27.47,19.47 -39.69,26.65 0,0 -44.56,-23.12 -67.46,-33.95 -7.1,-3.36 -12.73,-4.15 -20.39,-2.37 -33.66,7.81 -66.31,25.35 -100.1,26.23 -27.19,0.71 -58.66,-7.42 -87.44,-37.84l-4.27 -6.23 -50.14 43.32c0,0 -21.65,13.63 -61.67,13.37 -16.9,-0.11 -38.24,-1.98 -60.5,-13.18l0 0z"/>
     <path id="_273440376" class="fil6" d="M375.62 169.57l-14.43 -38.15c0,0 16.41,28.15 32.94,44.13l-7.43 4.34 -11.08 -10.32z"/>
     <path id="_273440304" class="fil7" d="M589.26 115.92c40.97,23.1 99.2,36.24 175.65,7.85 0.38,-0.12 0.75,-0.21 1.11,-0.28 -18.36,10.73 -98.61,51.25 -176.76,-7.56z"/>
     <path id="_273440232" class="fil6" d="M334.12 154.81c0,0 27.68,37.57 46.49,51.01 0,0 44.36,24.12 121.01,7.91l63.52 -64.06c0,0 -102.2,52.2 -231.02,5.14z"/>
     <path id="_273440160" class="fil6" d="M523.14 108.45c0,0 -31.67,68.73 -39.2,83.86l13.86 6.81c0,0 13.19,-45.12 25.35,-90.66z"/>
     <path id="_273440088" class="fil7" d="M307.98 139.79c-0.19,-0.25 -0.38,-0.51 -0.56,-0.76 0,0 20.01,-47.1 83.99,-107.61 0,0 62.69,17.6 123.22,12.67 0,0 16.59,29.67 50.76,55.99 -31.04,-15.76 -59.03,-41.77 -59.03,-41.77 -62.63,9.89 -111.6,-0.4 -111.6,-0.4 -44.78,34.36 -80.41,74.54 -86.78,81.87z"/>
     <path id="_273440016" class="fil6" d="M836.48 206.47l1.62 0.53c0,0 16.37,-9.15 36.26,-21.34l14.52 12.19 -13.23 -5.51c0,0 -27.47,19.47 -39.69,26.65 0,0 -44.46,-23.17 -67.36,-34 -7.1,-3.36 -12.73,-4.15 -20.39,-2.37 -33.66,7.81 -66.31,25.35 -100.1,26.23 -27.19,0.71 -58.66,-7.42 -87.44,-37.84l-1.18 -1.72c11.13,-12.38 22.69,-24.99 25.13,-26.72 0,0 50.07,45.44 168.75,18.15 0,0 26.28,30.82 83.1,45.73z"/>
     <path id="_273439944" class="fil1" d="M536.64 181.52c0,0 51.43,-43.97 53.1,-45.15 1.67,-1.18 -37.13,46.19 -37.13,46.19l-15.97 -1.03z"/>
     <path id="_273439872" class="fil1" d="M519.38 32.63c0,0 36.83,43.09 100.44,53.37 0,0 -57.29,5.54 -92.26,-26.89l-8.11 -12.25 -0.08 -14.23z"/>
     <path id="_273439800" class="fil1" d="M671.91 217.68c0,0 60.64,-11.07 87.42,-5.14 0,0 -25.04,-12.32 -62.74,-10.75l-21.54 8.68 -3.15 7.2z"/>
     <path id="_273439152" class="fil1" d="M556.77 172.6c0,0 43.82,34.34 98.41,25.07 0,0 -45.12,0.99 -92.84,-33.36l-3.78 2.36 -1.79 5.93z"/>
     <path id="_273439080" class="fil1" d="M360.92 130.88c0,0 17.48,64.85 33.11,86.6l17.11 0.79c0,0 -26.41,-32.43 -50.22,-87.39z"/>
     <path id="_273439008" class="fil1" d="M543.86 145.21c0,0 -32.71,57.82 -53.1,74.51l-16.72 -3.95c0,0 33.42,-24.04 69.82,-70.56z"/>
     <path id="_273438936" class="fil1" d="M487.02 102.61c0,0 -14.51,81.07 -32.37,115.08l15.62 0.4c0,0 11.9,-27.29 16.74,-115.47z"/>
     <path id="_273438864" class="fil7" d="M382.64 53.69c0,0 12.87,51.61 34.93,87.22 0,0 -10.5,-35.6 -16.73,-98.25l-2.44 -0.39 -15.76 11.42z"/>
     <path id="_273438792" class="fil7" d="M367.7 69.84c0,0 -0.83,26.53 6.6,61.46 0,0 -8.79,-17.57 -17.09,-55.8l2.62 -4.43 7.87 -1.24z"/>
     <path id="_273438720" class="fil7" d="M476.94 59.49c0,0 -1.3,39.08 -4.64,57.04 0,0 11.33,-30.79 16.71,-58.03l-9.28 -4.74 -2.79 5.72z"/>
     <path id="_273438648" class="fil6" d="M459.12 77.06c0,1.38 -4.46,59.01 -13.18,91.58 0,0 13.93,-23.88 16.34,-41.65 2.41,-17.76 -3.16,-49.94 -3.16,-49.94z"/>
     <path id="_273438576" class="fil5" d="M758.21 157.97c0,0 -34.97,30.85 -126.86,17 0,0 57.66,2.37 87.42,-16.21l11.24 -2.76 28.19 1.97z"/>
     <path id="_273438504" class="fil7" d="M759.54 127.39c0,0 -62.2,41.25 -140.74,21.51 0,0 42.15,4.14 74.27,-6.32l13.37 -1.58 53.1 -13.62z"/>
     <polygon id="_273438432" class="fil5" points="380.49,159.46 409.82,198.74 396.27,162.02 "/>
     <path id="_273438360" class="fil6" d="M727.52 172.29c0,0 23.75,-4.24 42.61,-37.6 0,0 -3.07,16.4 -12.18,29.14 0,0 8.66,-3.97 16.27,-12.95 0,0 -5.2,21.32 -25.81,29.01 -20.61,7.7 -20.89,-7.6 -20.89,-7.6z"/>
     <polygon id="_273438288" class="fil1" points="438.05,219.36 444.15,180.68 447.23,220.55 "/>
    </g>
    <g>
     <path id="_273439728" class="fil1" d="M374.02 204.63l-15.82 62.45c11.76,39.82 168.57,33.88 178.75,0l-15.82 -62.45c-38.76,14.81 -108.36,14.81 -147.11,0z"/>
     <path id="_273439656" class="fil8" d="M384.53 220.1l-11.75 46.39c3.85,6.34 16.52,10.54 22.39,12.14 16.49,4.52 35.63,5.73 52.67,5.44 17.2,-0.3 36.18,-2.19 52.76,-6.96 4.51,-1.3 17.82,-5.74 21.71,-10.84l-11.69 -46.17c-36.26,10.47 -89.83,10.47 -126.09,0z"/>
     <path id="_273439584" class="fil9" d="M394.31 278.39l0.86 0.24c3.7,1.01 7.53,1.86 11.45,2.56 73,-3.27 102.09,-28.15 110.13,-36.89l-1.82 -7.18c-33.22,30.54 -98.95,39.2 -120.61,41.27z"/>
     <path id="_273439512" class="fil9" d="M384.02 222.12l-11.24 44.37c0.97,1.59 2.5,3.05 4.33,4.37l10.09 -35.9c39.28,23.49 92.37,20.72 92.37,20.72l3.36 0 0 -2.96c-52.18,-3.85 -88.91,-24.42 -98.91,-30.6z"/>
     <path id="_273439440" class="fil10" d="M384.53 220.1l-0.18 0.73c44.2,33.77 105.29,32.29 105.29,32.29l8.88 -4.54c-41.09,-4.14 -71.61,-15.63 -87.78,-23.08 -9.33,-1.29 -18.19,-3.09 -26.2,-5.4z"/>
     <path id="_273439368" class="fil10" d="M382.08 273.78c3.5,1.74 7.28,3.09 10.3,4.03 27.13,-2.61 91.49,-11.71 122.5,-40.88l-2.68 -10.56c-6.56,6.08 -43.08,36.36 -130.13,47.42z"/>
     <path id="_273439296" class="fil1" d="M386.21 219.95c15.45,10.92 46.99,26.16 106.17,31.01 -2.47,1.56 -5.04,3.12 -7.69,4.62 -32.19,-2.56 -71.95,-10.35 -102.86,-31.26l1.32 -5.22c1.01,0.29 2.03,0.57 3.06,0.84z"/>
     <path id="_273439224" class="fil1" d="M515.68 232.22c-7.45,8.34 -40.18,37.85 -134.13,42.75 4.44,2.05 9.1,3.5 12.07,4.32l0.49 0.13c37.48,-2.04 88.08,-10.65 123.55,-39.38l-1.98 -7.81z"/>
    </g>
   </g>
  </g>
 </g>
</svg>
