<?xml version="1.0" encoding="UTF-8"?>
<!DOCTYPE svg PUBLIC "-//W3C//DTD SVG 1.1//EN" "http://www.w3.org/Graphics/SVG/1.1/DTD/svg11.dtd">
<!-- Creator: CorelDRAW 2020 (64-Bit) -->
<svg xmlns="http://www.w3.org/2000/svg" xml:space="preserve" width="129.436mm" height="197.988mm" version="1.1" style="shape-rendering:geometricPrecision; text-rendering:geometricPrecision; image-rendering:optimizeQuality; fill-rule:evenodd; clip-rule:evenodd"
viewBox="0 0 1616.64 2472.85"
 xmlns:xlink="http://www.w3.org/1999/xlink"
 xmlns:xodm="http://www.corel.com/coreldraw/odm/2003">
 <defs>
  <style type="text/css">
   <![CDATA[
    .fil0 {fill:none}
    .fil7 {fill:#4B3446}
    .fil1 {fill:#501D33}
    .fil6 {fill:#634C54}
    .fil9 {fill:#856969}
    .fil11 {fill:#896E6B}
    .fil5 {fill:#8E7A5D}
    .fil2 {fill:#8F9499}
    .fil8 {fill:#AE9F90}
    .fil4 {fill:#C3C077}
    .fil10 {fill:#D2C8AD}
    .fil12 {fill:#E0E28A}
    .fil3 {fill:white}
   ]]>
  </style>
 </defs>
 <g id="Слой_x0020_1">
  <metadata id="CorelCorpID_0Corel-Layer"/>
  <g id="_1746313782208">
   <rect class="fil0" width="1616.64" height="2472.85"/>
   <g id="_135740056">
    <path id="_135738256" class="fil1" d="M799.02 440.04l-41.83 -206.19c69.19,-34.21 12.42,-105.64 -32.96,-48.81 -15.65,-19.27 -47.08,-27.77 -62.45,-0.81 -17.68,31.03 13.19,62.25 43.87,64.04l41.36 195.52 52.01 -3.75z"/>
    <path id="_135738352" class="fil2" d="M782.96 440.94l-48.57 -220.5c0,0 48.15,-11.32 37.87,-30.82 -10.28,-19.5 -36.04,-1.79 -56.31,25.6 -1.94,-2.58 -1.9,-12.98 -0.49,-18.48 -29.4,-32.81 -50.63,-9.23 -39.42,11.74 8.56,16.02 25.13,21.42 41.99,23.68l46.73 213.68 18.19 -4.89z"/>
    <ellipse id="_135739048" class="fil3" transform="matrix(0.944185 -0.526723 0.526723 0.944185 692.515 203.389)" rx="11.8" ry="19.32"/>
    <ellipse id="_135739576" class="fil3" transform="matrix(0.472246 0.789581 -0.789581 0.472246 751.609 196.805)" rx="11.8" ry="19.32"/>
   </g>
   <path class="fil1" d="M330.58 1320.99c-0.21,-5.07 -0.01,-10.42 0.08,-15.4 0.19,-10.23 0.49,-20.46 0.81,-30.69 0.89,-28.5 1.97,-57 3.09,-85.49 1.72,-43.98 3.53,-87.97 5.45,-131.95l0 -297.27c0,-214.64 192.33,-299.9 385.21,-335.46 60.14,-11.09 106.04,-11.09 166.19,0 134.07,24.72 254.17,72.06 320.24,167.73 8.84,12.8 9.43,17.5 1.4,30.94 -2.88,4.82 -5.21,8.83 -4.72,9.21 0.57,0.44 6.87,0.59 13.7,1.12 13.74,1.06 15.6,3.02 20.67,15.32 13.68,33.18 21.19,69 22.78,111.55l11.12 296.41c1.92,44.13 3.75,88.27 5.47,132.4 1.11,28.49 2.19,56.99 3.09,85.49 0.32,10.23 0.62,20.46 0.81,30.69 0.09,4.97 0.29,10.33 0.08,15.39 1.08,14.72 -7.44,28.75 -16.37,40.24 -11.19,14.4 -25.32,27.92 -39.06,40.14 -38.93,34.62 -83.95,66.37 -128.26,94.47 -192.37,122.01 -385.47,126.44 -579.76,5.23 -46.28,-28.87 -93.24,-61.61 -133.92,-97.35 -14.37,-12.62 -29.16,-26.59 -40.93,-41.48 -9.25,-11.7 -18.27,-26.13 -17.17,-41.25z"/>
   <path class="fil4" d="M360.21 1319.99c-1.33,-18.36 9.3,-262.29 9.3,-262.29l0 -296.21c0,-201.52 186.61,-276.32 361.31,-308.54 57.58,-10.62 97.42,-10.62 155,0 174.7,32.21 342.7,108.47 350.25,309.85l11.06 294.89c0,0 10.63,243.93 9.3,262.29 4.18,21.9 -71.38,88.97 -170.65,151.93 -182.14,115.53 -362.44,120.12 -546.82,5.09 -103.22,-64.39 -183.04,-134.53 -178.75,-157.02z"/>
   <path class="fil5" d="M431.63 778.26c0,0 47.11,1.41 65.4,-33.75 0,0 35.86,-29.53 33.05,-64.69 0,0 46.41,-14.77 49.93,-40.08 0,0 66.1,26.72 90.71,-20.39 0,0 49.22,43.6 95.63,-14.77 0,0 41.49,39.38 89.3,3.52 0,0 43.6,44.3 99.85,13.36 0,0 29.53,30.24 89.3,9.84 0,0 6.33,28.83 43.6,34.46 0,0 2.81,43.6 44.3,57.66 0,0 -6.33,50.63 59.77,68.21l20.39 -130.09 -52.74 -94.93c0,0 -118.84,-46.41 -123.06,-46.41 -4.22,0 -143.45,-17.58 -161.73,-17.58 -18.28,0 -280.57,21.1 -292.52,25.31 -11.95,4.22 -91.41,40.78 -101.96,45.71 -10.55,4.92 -57.66,62.58 -57.66,62.58l8.44 142.04z"/>
   <g id="_135729208">
    <path id="_135744040" class="fil5" d="M1167.02 583.72c40.4,44.74 66.19,102.97 69.05,179.09l6.69 178.4c-83.9,-95.56 -83.5,-264.79 -75.74,-357.49z"/>
    <path id="_135744568" class="fil5" d="M369.51 946.02l0 -184.52c0,-81.9 30.82,-142.86 79.14,-188.55 8.69,91.23 12.62,274.74 -79.14,373.07z"/>
   </g>
   <path class="fil5" d="M1091.64 1456.65c-2.39,1.54 -4.8,3.08 -7.22,4.62 -178.68,113.33 -355.54,117.84 -536.42,5 -16.06,-10.02 -31.55,-20.19 -46.22,-30.28l-0.01 -0.4c0,0 268.55,167.86 589.88,21.06l-0 0z"/>
   <path class="fil5" d="M360.21 1319.99c-1.33,-18.36 9.3,-262.29 9.3,-262.29l0 -22.51c40.67,28.39 122.5,115.58 132.32,150.97 9.82,35.39 -3.58,154.13 -7.76,261.51 -80.49,-55.12 -137.5,-108.58 -133.86,-127.68zm886.09 -284.31l0.83 22.02c0,0 10.63,243.93 9.3,262.29 3.64,19.1 -53.37,72.56 -133.86,127.68 -8.4,-100.34 -18.95,-227.65 -9.16,-262.92 9.78,-35.27 93.11,-111.89 132.9,-149.08z"/>
   <polygon class="fil1" points="1116.82,1466.27 1111.89,1298.91 1136.51,1451.5 "/>
   <polygon class="fil1" points="496.49,1466.27 501.41,1298.91 476.8,1451.5 "/>
   <path class="fil1" d="M451.67 556.36c0,0 12.66,62.7 0,137.01 0,0 -7.03,-91.73 -27.42,-127.14l14.06 -9.29 13.36 -0.58z"/>
   <path class="fil1" d="M1208.58 709.54c6.99,0 12.66,5.67 12.66,12.66 0,6.99 -5.67,12.66 -12.66,12.66 -6.99,0 -12.66,-5.67 -12.66,-12.66 0,-6.99 5.67,-12.66 12.66,-12.66zm-49.57 -1.41c5.24,0 9.49,4.25 9.49,9.49 0,5.24 -4.25,9.49 -9.49,9.49 -5.24,0 -9.49,-4.25 -9.49,-9.49 0,-5.24 4.25,-9.49 9.49,-9.49zm39.03 135.01c6.6,0 11.95,5.35 11.95,11.95 0,6.6 -5.35,11.95 -11.95,11.95 -6.6,0 -11.95,-5.35 -11.95,-11.95 0,-6.6 5.35,-11.95 11.95,-11.95zm23.75 -32.92c4.65,0 8.42,3.77 8.42,8.42 0,4.65 -3.77,8.42 -8.42,8.42 -4.65,0 -8.42,-3.77 -8.42,-8.42 0,-4.65 3.77,-8.42 8.42,-8.42zm-31.06 -41.41c4.56,0 8.25,3.69 8.25,8.25 0,4.56 -3.69,8.25 -8.25,8.25 -4.55,0 -8.25,-3.69 -8.25,-8.25 0,-4.55 3.69,-8.25 8.25,-8.25z"/>
   <path class="fil1" d="M516.86 582.11c3.01,0 5.44,2.44 5.44,5.44 0,3.01 -2.44,5.44 -5.44,5.44 -3,0 -5.44,-2.44 -5.44,-5.44 0,-3 2.44,-5.44 5.44,-5.44zm-97.6 297.59c3.3,0 5.98,2.68 5.98,5.98 0,3.3 -2.68,5.98 -5.98,5.98 -3.3,0 -5.98,-2.68 -5.98,-5.98 0,-3.3 2.68,-5.98 5.98,-5.98zm-1.62 -224.88c-6.97,-0.56 -13.07,4.64 -13.63,11.61 -0.56,6.97 4.64,13.07 11.61,13.63 6.97,0.56 13.07,-4.64 13.63,-11.61 0.56,-6.97 -4.64,-13.07 -11.61,-13.63zm49.53 2.55c-5.23,-0.42 -9.8,3.48 -10.22,8.71 -0.42,5.22 3.48,9.8 8.71,10.22 5.22,0.42 9.8,-3.48 10.22,-8.71 0.42,-5.22 -3.48,-9.8 -8.7,-10.22zm-49.68 131.47c-6.58,-0.53 -12.34,4.38 -12.87,10.96 -0.53,6.58 4.38,12.34 10.96,12.87 6.58,0.53 12.34,-4.38 12.87,-10.96 0.53,-6.58 -4.38,-12.34 -10.96,-12.87zm-21.05 -34.71c-4.64,-0.37 -8.7,3.09 -9.07,7.72 -0.37,4.64 3.09,8.7 7.72,9.07 4.64,0.37 8.7,-3.09 9.07,-7.72 0.37,-4.64 -3.09,-8.7 -7.72,-9.07zm34.27 -38.8c-4.54,-0.36 -8.52,3.02 -8.88,7.56 -0.36,4.54 3.02,8.52 7.56,8.88 4.54,0.36 8.52,-3.02 8.88,-7.56 0.36,-4.54 -3.02,-8.52 -7.56,-8.88zm-43.79 123.58c6.02,0 10.9,4.88 10.9,10.9 0,6.02 -4.88,10.9 -10.9,10.9 -6.02,0 -10.9,-4.88 -10.9,-10.9 0,-6.02 4.88,-10.9 10.9,-10.9zm97.31 -231.54c4.56,0 8.25,3.69 8.25,8.25 0,4.56 -3.69,8.25 -8.25,8.25 -4.55,0 -8.25,-3.69 -8.25,-8.25 0,-4.55 3.69,-8.25 8.25,-8.25zm-1.4 -43.17c4.94,0 8.95,4.01 8.95,8.95 0,4.94 -4.01,8.95 -8.95,8.95 -4.94,0 -8.95,-4.01 -8.95,-8.95 0,-4.94 4.01,-8.95 8.95,-8.95z"/>
   <g id="_135469368">
    <path id="_135469008" class="fil1" d="M1082.86 510l182.95 -103.9c-19.65,-74.64 71.49,-78.76 58.45,-7.21 24.8,-0.86 51.87,17.26 41.63,46.56 -11.78,33.72 -55.6,30.95 -77.11,8.99l-174.59 97.24 -31.33 -41.68z"/>
    <path id="_135469128" class="fil3" d="M1092.73 522.71l198.16 -108.21c0,0 -23.1,-43.74 -1.64,-48.8 21.46,-5.06 25.02,26 17.68,59.27 3.22,-0.23 11.03,-7.09 14.26,-11.77 44.05,0.62 40.21,32.11 17.04,37.44 -17.7,4.07 -32.66,-4.88 -45.43,-16.11l-191.81 105.12 -8.26 -16.93z"/>
    <path id="_135469224" class="fil2" d="M1092.73 522.71l106.78 -58.31c-0.53,6.24 -0.58,13.3 0.13,21.18l-98.65 54.06 -8.26 -16.93z"/>
    <path id="_135469344" class="fil2" d="M1296.81 432.45c0,0 13.67,15.52 33.78,15.01 20.11,-0.51 20.99,-18.51 20.99,-18.51 0,0 -15.5,11.92 -54.77,3.5z"/>
   </g>
   <g id="_135461952">
    <path id="_135461592" class="fil1" d="M517.3 494.55l-187.77 -94.91c16.01,-75.5 -75.23,-75.2 -58.73,-4.37 -24.82,0.35 -50.97,19.75 -39.32,48.52 13.4,33.1 57.04,28.22 77.45,5.24l179.1 88.67 29.28 -43.15z"/>
    <path id="_135461688" class="fil3" d="M508.06 507.72l-203.17 -98.48c0,0 20.95,-44.81 -0.73,-48.82 -21.68,-4.01 -23.73,27.18 -14.79,60.06 -3.23,-0.07 -11.36,-6.55 -14.81,-11.06 -43.97,2.75 -38.6,34.02 -15.21,38.22 17.88,3.2 32.38,-6.46 44.6,-18.29l196.68 95.7 7.43 -17.31z"/>
    <path id="_135461808" class="fil2" d="M508.06 507.72l-109.48 -53.07c0.83,6.21 1.23,13.26 0.9,21.16l101.15 49.22 7.43 -17.31z"/>
    <path id="_135461904" class="fil2" d="M299.84 427.45c0,0 -12.9,16.16 -33.01,16.63 -20.11,0.47 -21.86,-17.47 -21.86,-17.47 0,0 16.06,11.15 54.87,0.84z"/>
   </g>
   <path class="fil2" d="M782.96 440.94l-26.17 -118.81c-4.36,4.5 -9.65,9.18 -16.05,13.81l24.04 109.89 18.19 -4.89z"/>
   <path class="fil1" d="M861.02 516.44c7.59,-84.06 43.1,-229.48 162.93,-277.31 62.56,-24.98 112.86,-6.62 131.06,11.58 24.16,24.15 -0.61,59.86 -54,109.3 -16.11,14.92 -34.48,36 -54.4,68.06 -25.89,41.67 -35.53,70.53 -57.07,111.58 -47.16,89.87 -138.82,90.83 -128.51,-23.21z"/>
   <path class="fil6" d="M887.17 518.8c-1.25,13.84 -2,52.32 15.48,58.74 8.16,3 18.99,-1.74 25.81,-5.99 16.18,-10.06 29.08,-27.48 37.81,-44.12 8.78,-16.73 16.61,-33.79 24.66,-50.87 10.16,-21.56 20.76,-42.1 33.36,-62.37 16.58,-26.67 35.77,-52.08 58.87,-73.47 38.93,-36.05 55.26,-58.49 42.79,-73.83 -10.33,-12.72 -40.65,-23.98 -92.27,-3.38 -98.07,39.15 -137.78,158.6 -146.51,255.28z"/>
   <path class="fil7" d="M887.17 518.8c-1.25,13.84 -2,52.32 15.48,58.74 8.16,3 18.99,-1.74 25.81,-5.99 16.18,-10.06 29.08,-27.48 37.81,-44.12 6.11,-11.64 11.76,-23.44 17.34,-35.3 -21.72,-3.43 -59.87,-12.29 -87.07,-34.17 -4.56,20.64 -7.6,41.21 -9.37,60.83z"/>
   <path class="fil1" d="M995.4 482.17c9.95,-20.25 20.47,-39.84 32.51,-59.23 19.83,-31.92 42.8,-62.32 70.44,-87.92 2.58,-2.39 5.06,-4.72 7.48,-7.01 -24.22,-20.8 -65.49,-48.78 -125,-50.67 -43.19,36.97 -75.54,94.84 -94.11,151.09 25.47,2.41 74.64,9.58 108.68,53.73z"/>
   <path class="fil8" d="M998.88 461.6c23.79,-48.43 51.26,-88.06 90.53,-125.31 -20.24,-17.38 -53.5,-43.1 -105.35,-42.58 -36.09,30.89 -60.49,75.16 -76.01,122.16 21.28,2.02 61.32,9.18 90.82,45.73z"/>
   <path class="fil9" d="M958.3 330.35c0,0 -20.29,20.9 -37.27,69.91 42.5,-14.81 89.22,-3.78 103.05,0.12l6.17 -11.06c0,0 -15.79,-30.53 -71.95,-58.96zm-40.38 79.32l-0.33 1.05c0,0 43.87,1.05 78.97,38.96l20.79 -37.25c-48.16,-11.28 -90.49,-4.45 -99.43,-2.76z"/>
   <path class="fil1" d="M656.78 543.18c-19.57,-74.1 -70.46,-209.3 -185.01,-233.93 -46.03,-9.9 -96.51,2.58 -113.47,27.4 -12,17.57 -11.03,50.12 13.01,72.76 67.27,63.34 112.19,82.46 164.18,163.45 48.26,75.17 147.83,70.84 121.28,-29.69z"/>
   <path class="fil6" d="M632.2 549.67c-22.01,-83.34 -71.27,-195.24 -165.76,-215.56 -18.09,-3.89 -38.28,-3.85 -56.28,0.53 -9.47,2.31 -25.04,7.86 -30.84,16.36 -3.05,4.46 -3.49,11.61 -2.8,16.79 1.19,8.97 5.7,16.95 12.25,23.12 28.07,26.43 58.14,49.18 87.03,74.39 32.51,28.37 57.75,57.43 81.12,93.83 9.88,15.39 24.4,29.5 41.62,36.3 8.16,3.23 20.92,5.95 28.93,0.82 12.79,-8.18 7.76,-35.14 4.74,-46.58z"/>
   <path class="fil7" d="M632.2 549.67c-7.54,-28.56 -18.29,-60.48 -32.96,-90.92 -8.78,22.5 -28.92,52.18 -79.38,50.55 13.26,15.33 25.39,31.66 37.04,49.82 9.88,15.39 24.4,29.5 41.62,36.3 8.16,3.23 20.92,5.95 28.93,0.82 12.79,-8.18 7.76,-35.14 4.74,-46.58z"/>
   <path class="fil8" d="M560.68 396.51c-24.71,-30.59 -55.72,-54.11 -94.25,-62.4 -18.09,-3.89 -38.28,-3.85 -56.28,0.53 -9.47,2.31 -25.04,7.86 -30.84,16.36 -3.05,4.46 -3.49,11.61 -2.8,16.79 1.19,8.97 5.7,16.95 12.25,23.12 26.51,24.96 54.81,46.64 82.21,70.22 6.56,-13.6 31.08,-55.12 89.71,-64.62z"/>
   <path class="fil10" d="M490.34 341.53c-7.63,-3.12 -15.59,-5.63 -23.91,-7.41 -18.09,-3.89 -38.28,-3.85 -56.28,0.53 -9.47,2.31 -25.04,7.86 -30.84,16.36 -3.05,4.46 -3.49,11.61 -2.8,16.79 1.19,8.97 5.7,16.95 12.25,23.12 17.89,16.85 36.6,32.2 55.3,47.64 -13.5,-13.04 -26.86,-26.26 -39.71,-40.27 -6.65,-7.26 -10.94,-16.34 -11.53,-26.23 -0.34,-5.71 0.72,-13.48 4.41,-18.11 7.02,-8.82 24.46,-13.64 35,-15.4 18.86,-3.15 39.53,-1.93 58.13,2.99z"/>
   <path class="fil1" d="M979.42 519.13c0,0 26.88,-111.36 123,-144.17 28.79,-9.83 71.19,-13.26 98.55,-1.92 27.36,11.34 39.69,37.45 -8.54,75.46 -31.13,24.54 -73.57,65.1 -113.96,125.16 -48.36,71.92 -139.2,54.77 -99.05,-54.53z"/>
   <path class="fil6" d="M1200.09 401.83c-1.11,-2.12 -6.72,-4.9 -8.68,-5.71 -21.93,-9.09 -58.88,-5.04 -80.91,2.48 -36.57,12.48 -63.91,39.5 -83.35,72.17 -9.19,15.43 -19.08,36.6 -23.44,54.25l-0.33 1.37 -0.5 1.35c-4.49,12.23 -16.52,53.24 0.04,62.47 6.19,3.45 15.27,1.41 21.4,-1.09 13.71,-5.59 25.31,-17.3 33.44,-29.4 32.69,-48.6 73.12,-94.5 119.23,-130.84 4.65,-3.67 23.34,-19.89 23.12,-27.06z"/>
   <path class="fil7" d="M1010.95 503.32c-3.01,7.4 -5.56,14.82 -7.26,21.7l-0.33 1.37 -0.5 1.35c-4.49,12.23 -16.52,53.24 0.04,62.47 6.19,3.45 15.27,1.41 21.4,-1.09 13.71,-5.59 25.31,-17.3 33.44,-29.4 7.87,-11.7 16.18,-23.24 24.92,-34.53 -19.26,1.15 -46.21,-2.09 -71.71,-21.88z"/>
   <path class="fil1" d="M1039.37 444.41c0,0 51.59,7.37 64.23,69.84l24.92 -25.97c0,0 -25.62,-71.6 -62.82,-73 -37.2,-1.4 -26.32,29.13 -26.32,29.13z"/>
   <path class="fil8" d="M1200.09 401.83c-1.11,-2.12 -6.72,-4.9 -8.68,-5.71 -21.93,-9.09 -58.88,-5.04 -80.91,2.48 -22.81,7.78 -42.02,21.22 -57.97,38.15 17.07,4.59 47.58,17.77 58.56,54.33 20.3,-22.62 42.35,-43.65 65.88,-62.2 4.65,-3.67 23.34,-19.89 23.12,-27.06z"/>
   <path class="fil1" d="M1101.21 535.65c56.16,-63.49 177.89,-97.31 249.37,-39.95 34.29,27.52 45.59,72.51 -27.48,85.62 -39.01,7 -95.56,22.82 -159.46,56.8 -76.52,40.69 -149.3,-24.92 -62.43,-102.47z"/>
   <path class="fil6" d="M1117.85 554.29c-12.13,10.83 -40.69,41.19 -28.17,59.99 4.45,6.68 13.1,9.86 20.72,10.87 14.16,1.89 29.11,-2.48 41.52,-9.09 51.71,-27.5 109,-48.97 166.78,-59.34 6.16,-1.1 32.4,-7.08 33.61,-15.82 1.14,-8.32 -11.64,-21.14 -17.35,-25.72 -7.22,-5.8 -15.2,-10.5 -23.72,-14.12 -61,-25.98 -148.73,3.01 -191.31,51.14l-0.98 1.1 -1.1 0.98z"/>
   <path class="fil11" d="M1331.91 553.48c9.25,-2.79 19.65,-7.15 20.39,-12.58 1.14,-8.32 -11.64,-21.14 -17.35,-25.72 -7.22,-5.8 -15.2,-10.5 -23.72,-14.12 -54.24,-23.1 -129.61,-2.74 -175.59,35.9 45.81,-28.62 108.38,-41.07 155.19,-21.13 8.52,3.63 16.49,8.33 23.72,14.12 5.24,4.2 16.39,15.31 17.35,23.54z"/>
   <path class="fil7" d="M1117.85 554.29c-12.13,10.83 -40.69,41.19 -28.17,59.99 4.45,6.68 13.1,9.86 20.72,10.87 14.16,1.89 29.11,-2.48 41.52,-9.09 12.99,-6.91 26.33,-13.44 39.94,-19.5 -26.68,-10.6 -51.85,-26.6 -65.89,-50.76 -2.1,2.09 -4.12,4.22 -6.04,6.4l-0.98 1.1 -1.1 0.98z"/>
   <path class="fil1" d="M1199.11 611.13c81.09,-24.69 202.51,10.22 233.38,96.5 14.81,41.39 0.88,85.64 -68.23,58.56 -36.9,-14.46 -93.36,-30.58 -165.6,-35.08 -86.5,-5.39 -114.16,-99.39 0.45,-119.99z"/>
   <path class="fil6" d="M1203.52 635.71c-16.01,2.88 -56.23,13.8 -55.41,36.37 0.29,8.02 6,15.26 11.96,20.11 11.07,9.02 26.1,13.12 40.13,13.99 58.47,3.63 118.5,15.33 173.17,36.74 5.82,2.28 31.31,10.93 36.91,4.11 5.33,-6.49 1.15,-24.11 -1.32,-31.01 -26.18,-73.15 -134.24,-101.83 -202.58,-81.02l-1.41 0.43 -1.45 0.26z"/>
   <path class="fil11" d="M1412.05 743.52c2.36,-7.93 -0.98,-21.59 -3.09,-27.47 -18.3,-51.15 -76.65,-80.55 -133.45,-86.49 -1.54,4.8 -15.37,10.8 -15.39,16.66 0,0 124.08,6.86 151.93,97.3z"/>
   <path class="fil7" d="M1203.52 635.71c-16.01,2.88 -56.23,13.8 -55.41,36.37 0.29,8.02 6,15.26 11.96,20.11 11.07,9.02 26.1,13.12 40.13,13.99 31.41,1.95 63.27,6.23 94.5,13.09 -37.35,-26.38 -46.75,-59.35 -9.52,-88.5 -27.67,-4.19 -55.54,-2.85 -78.8,4.24l-1.41 0.43 -1.45 0.26z"/>
   <path class="fil1" d="M1192.75 774.09c24.91,9.3 63.6,31.25 98.36,82.59 13.56,20.03 25.14,32.15 41.05,33.54 17.08,1.49 34.84,-9.39 38.17,-36.13 7.9,-63.37 -39.06,-104.83 -95.58,-127.52 -85.71,-34.41 -157.37,19.38 -82,47.52z"/>
   <path class="fil6" d="M1225.36 761.56c35.05,18.93 64.19,48.26 86.43,81.11 3.84,5.66 14.66,21.97 22.54,22.66 7.97,0.7 10.42,-7.94 11.22,-14.33 4.89,-39.22 -16.92,-75.3 -47.98,-92.44 -48.8,-26.93 -115.9,-24.58 -109.67,-11.91 1.86,3.79 20.89,5.96 37.47,14.91z"/>
   <path class="fil7" d="M1225.36 761.56c20.13,10.87 38.3,25.17 54.34,41.59 7.12,-13.7 17.39,-26.62 32.19,-34.8 -4.48,-3.72 -9.28,-7 -14.33,-9.79 -48.8,-26.93 -115.9,-24.58 -109.67,-11.91 1.86,3.79 20.89,5.96 37.47,14.91z"/>
   <path class="fil1" d="M522.85 535.65c-56.16,-63.49 -177.89,-97.31 -249.37,-39.95 -34.29,27.52 -45.59,72.51 27.48,85.62 39.01,7 95.56,22.82 159.46,56.8 76.52,40.69 149.3,-24.92 62.43,-102.47z"/>
   <path class="fil1" d="M437.36 613.09c-73.21,-36.1 -192.69,-19.01 -233.7,61.94 -19.67,38.83 -12.59,84.63 56.41,67.77 36.85,-9 92.39,-16.84 161.24,-10.9 82.45,7.11 121.48,-81.94 16.05,-118.81z"/>
   <path class="fil1" d="M428.5 766.36c-24.91,9.3 -63.6,31.25 -98.36,82.59 -13.56,20.03 -25.14,32.15 -41.05,33.54 -17.08,1.49 -34.84,-9.39 -38.17,-36.13 -7.9,-63.37 39.06,-104.83 95.58,-127.52 85.71,-34.41 157.37,19.38 82,47.52z"/>
   <path class="fil7" d="M356.86 734.99c-43.46,17.45 -87.67,55.98 -81.15,108.27 0.8,6.39 3.24,15.03 11.22,14.33 7.88,-0.69 18.7,-16.99 22.54,-22.66 21.05,-31.09 45.82,-56.93 78.4,-75.88 26.27,-15.28 34.43,-18.51 30.76,-21.88 -5.74,-5.27 -35.3,-12.8 -61.75,-2.18z"/>
   <path class="fil7" d="M369.02 771.38c5.98,-4.38 12.25,-8.49 18.84,-12.33 26.27,-15.28 34.43,-18.51 30.76,-21.88 -5.42,-4.97 -32.1,-11.97 -57.33,-3.78 3.61,8.41 7.37,21.11 7.74,37.98z"/>
   <path class="fil6" d="M427.21 635.69c-61.7,-30.43 -167.72,-17.58 -202.48,51.05 -15.59,30.78 3.53,38.18 29.93,31.73 54.57,-13.33 112.9,-16.27 168.61,-11.47 13.38,1.15 28.13,-0.74 39.83,-8.08 6.3,-3.95 12.68,-10.29 14.06,-18.18 3.87,-22.21 -32.62,-38.81 -47.35,-43.96l-1.33 -0.47 -1.27 -0.63z"/>
   <path class="fil7" d="M264.09 710.44c0,0 60.72,-18.6 150.56,-6.32l16.14 -35.8c0,0 -61.77,-17.9 -166.71,42.12z"/>
   <path class="fil11" d="M417.82 631.54c-62.55,-24.87 -160.04,-10.06 -193.1,55.21 -12.37,24.43 -2.87,34.13 14.77,33.87 -4.57,-5.25 -4.61,-14.37 2.42,-28.25 30.16,-59.54 113.94,-77.08 175.9,-60.82z"/>
   <path class="fil1" d="M394.65 611.58c-25.37,-3.28 -56.47,-3.11 -82.78,0.03 6.73,20.91 16.4,58.65 4.96,106.07 17.86,-1.23 37.88,-1.91 55.76,-2.08 8.92,-16.73 22.02,-50.42 22.06,-104.01z"/>
   <path class="fil8" d="M382.46 622.21c-17.5,-2.61 -36.04,-2.75 -54.2,-0.26 4.64,16.62 9.86,46.89 1.97,84.57 12.32,-0.98 24.68,-1.52 37.01,-1.65 6.15,-13.3 15.19,-40.07 15.22,-82.66z"/>
   <path class="fil7" d="M427.21 635.69c-1.94,-0.96 -3.93,-1.87 -5.96,-2.75 -1.82,21.28 -9.33,51.62 -35.22,72.03 12.5,0.28 24.93,0.96 37.24,2.02 13.38,1.15 28.14,-0.74 39.83,-8.08 6.3,-3.95 12.68,-10.29 14.06,-18.18 3.87,-22.21 -32.62,-38.81 -47.35,-43.95l-1.34 -0.47 -1.27 -0.63z"/>
   <path class="fil6" d="M504.14 552.2c-21.87,-24.73 -54.06,-42.8 -85.4,-52.38 -42.22,-12.9 -93.58,-13.58 -129.63,15.36 -5.72,4.59 -18.5,17.4 -17.35,25.72 1.2,8.74 27.45,14.72 33.61,15.82 57.78,10.37 115.07,31.84 166.78,59.34 12.41,6.6 27.37,10.97 41.52,9.09 7.62,-1.02 16.27,-4.2 20.72,-10.87 12.51,-18.8 -16.04,-49.16 -28.17,-59.99l-1.1 -0.98 -0.98 -1.1z"/>
   <path class="fil11" d="M492.38 540.4c-20.83,-18.71 -47.53,-32.59 -73.64,-40.57 -42.22,-12.9 -93.58,-13.58 -129.63,15.36 -5.72,4.59 -18.5,17.4 -17.35,25.72 0.61,4.46 7.73,8.19 15.38,10.93 0.25,-8.3 12,-20.03 17.42,-24.37 36.05,-28.93 87.41,-28.26 129.63,-15.36 20.03,6.12 40.4,15.71 58.2,28.29z"/>
   <path class="fil7" d="M504.14 552.2c-3.88,-4.39 -8.08,-8.56 -12.54,-12.51 -3.21,21.2 -14.73,47.06 -49.05,61.59 10.04,4.69 19.92,9.63 29.6,14.78 12.41,6.6 27.37,10.97 41.52,9.09 7.62,-1.02 16.27,-4.2 20.72,-10.87 12.51,-18.8 -16.04,-49.16 -28.17,-59.99l-1.1 -0.98 -0.98 -1.1z"/>
   <path class="fil1" d="M751.6 536.56c-1.02,-8.91 -34.49,-156.3 -2.59,-251.83 28.19,-84.43 118.19,-111.69 160.33,-89.59 39.59,20.76 33.27,85.34 4.43,179.55 -12.21,39.88 -26.01,108.61 -43.28,161.1 -23.35,70.97 -108.76,89.07 -118.89,0.78z"/>
   <path class="fil1" d="M746.92 331.81c-29.36,-74.66 -112.22,-117.21 -164.35,-107.9 -41.85,7.48 -64.53,49.38 -19.14,127.4 39.01,67.05 73.98,126.62 94.35,207.05 9.44,37.27 33,53.33 58.11,49.6 91.61,-13.63 49.88,-228.22 31.03,-276.14z"/>
   <path class="fil6" d="M722.72 353.84c-15.37,-39.08 -52.9,-84.6 -86.36,-98.71 -34.77,-14.66 -68.71,-4.98 -69.3,29.13 -0.29,16.66 10.27,41.57 29.92,71.89 33.92,52.33 61.6,99 77.97,163.67 9.03,35.65 19.43,59.67 35.8,58.34 22.36,-1.83 36.73,-28.01 39.57,-63.13 4.58,-56.46 -17.79,-136.21 -27.61,-161.19z"/>
   <path class="fil11" d="M685.11 293.72c-15.19,-17.39 -32.45,-31.71 -48.74,-38.58 -34.77,-14.66 -68.71,-4.98 -69.3,29.13 -0.21,11.96 5.18,28.19 15.52,47.62 -4.52,-11.57 -6.8,-21.59 -6.66,-29.76 0.64,-36.83 37.28,-47.27 74.82,-31.45 11.31,4.77 23.06,12.87 34.37,23.04z"/>
   <path class="fil7" d="M738.8 408.47c-16.16,9.81 -54.8,30.8 -92.35,32.84 11.48,23.96 21.14,49.42 28.51,78.51 9.03,35.65 19.43,59.67 35.8,58.34 22.36,-1.83 36.73,-28.01 39.57,-63.13 2.66,-32.77 -3.76,-73.37 -11.54,-106.56z"/>
   <path class="fil1" d="M731.61 345.25c-4.97,-12.63 -11.74,-25.2 -19.79,-37.17 -31.46,-7.91 -80.9,-8.57 -132.28,36.94 0.72,1.28 1.45,2.57 2.21,3.87 26.01,44.72 52.27,88.95 71.99,134.76 16.57,-9.3 53.68,-35.59 109.08,-15.86 -7.65,-51.67 -23.24,-102.26 -31.22,-122.54z"/>
   <path class="fil8" d="M721.32 353.14c-4.12,-10.48 -9.74,-20.91 -16.42,-30.84 -26.11,-6.57 -70.98,-6.76 -109.75,30.65 0.6,1.06 1.2,2.13 1.83,3.21 21.59,37.1 42.64,70.03 59.01,108.04 13.75,-7.71 51.26,-22.51 89.12,-15 -6.35,-42.87 -17.18,-79.23 -23.79,-96.06z"/>
   <path class="fil9" d="M645.37 441.36c3.72,7.45 7.27,15.04 10.63,22.84 13.75,-7.71 51.26,-22.51 89.12,-15 -2.1,-14.21 -4.71,-27.72 -7.48,-40.03 -16.96,10.17 -55.25,30.54 -92.27,32.19z"/>
   <path class="fil1" d="M952.06 309.05c0,0 68.83,18.48 111.52,73.61l-6.96 9.5c0,0 -38.66,-53.97 -107.62,-71.98l-1 -4.82 4.06 -6.3z"/>
   <path class="fil1" d="M606.99 379.31c0,0 67.31,-23.43 133.61,-1.85l-0.42 11.77c0,0 -62.32,-22.88 -129.46,1.01l-3.54 -3.42 -0.19 -7.5z"/>
   <path class="fil1" d="M410.72 428.65c3.24,-41.64 23.55,-91.83 92.41,-96.52l8.09 8.55c0,0 -82.48,-0.07 -90.1,92.97l-4.92 0.12 -5.47 -5.12z"/>
   <path class="fil1" d="M901.85 398.93c0,0 67.72,-22.2 133.62,0.58l-0.63 11.76c0,0 -61.89,-24.01 -129.46,-1.35l-3.48 -3.49 -0.05 -7.5z"/>
   <path class="fil6" d="M779.15 533.81c1.28,11.52 5.91,33.86 19.91,36.94 7.88,1.73 16.79,-2.58 22.91,-7.19 11.43,-8.6 19.33,-21.88 23.62,-35.35 5.95,-18.68 10.98,-37.73 15.74,-56.75 8.62,-34.42 15.94,-69.91 25.99,-103.87 7.25,-24.48 39.98,-133.03 7.76,-150.49 -16.83,-9.12 -43.82,-2.37 -59.89,5.39 -29.04,14.01 -49.74,39.41 -59.61,69.93 -7.84,24.27 -10.86,51.21 -11.79,76.62 -1.3,35.79 1.46,72.31 6.17,107.79 1.67,12.6 3.63,25.17 5.82,37.69 1.09,6.21 2.67,13.08 3.36,19.29z"/>
   <path class="fil11" d="M908.96 260.13c0.58,-20.34 -2.83,-37.04 -13.88,-43.03 -16.83,-9.12 -43.82,-2.37 -59.89,5.39 -29.04,14.01 -49.74,39.41 -59.61,69.93 -6.11,18.89 -9.29,39.41 -10.83,59.56 1.84,-10.73 4.3,-21.29 7.57,-31.41 10.28,-31.8 31.86,-58.27 62.12,-72.87 16.75,-8.08 44.88,-15.12 62.42,-5.61 6.05,3.28 9.9,9.66 12.1,18.05z"/>
   <path class="fil7" d="M779.15 533.81c1.28,11.52 5.91,33.86 19.91,36.94 7.88,1.73 16.79,-2.58 22.91,-7.19 11.43,-8.6 19.33,-21.88 23.62,-35.35 5.95,-18.68 10.98,-37.73 15.74,-56.75 1.27,-5.06 2.5,-10.14 3.73,-15.23 -34.3,15.62 -73.99,14.37 -98.99,-14.35 1.05,11.72 2.37,23.38 3.91,34.94 1.67,12.6 3.63,25.17 5.82,37.69 1.09,6.21 2.67,13.08 3.36,19.29z"/>
   <path class="fil1" d="M1119.6 386.33c0,0 34.86,46.24 26.4,97.17l-9.61 -2.91c0,0 9.56,-43 -31.86,-102.74l6.53 -0.05c0,0 8.82,8.31 8.53,8.52z"/>
   <path class="fil1" d="M468.9 482.93c0,0 28.13,-85.08 118.13,-80.87l-11.95 -12.66c0,0 -81.57,-9.84 -114.62,78.76l1.92 7.13 6.51 7.63z"/>
   <path class="fil9" d="M495.73 348.24c0,0 22.81,11.23 47.38,37.55 0,0 -51.94,9.48 -79.32,61.77l-20.71 -16.5c0,0 9.48,-48.78 52.64,-82.83z"/>
   <path class="fil7" d="M462.03 604.1c0,0 -39.31,-25.62 -108.8,-44.57 0,0 65.98,-16.85 135.82,20.36 69.84,37.2 -23.51,23.51 -27.02,24.22z"/>
   <path class="fil7" d="M890.91 308.59l-38.96 172.32 -28.78 3.86c0,0 11.23,-102.13 67.74,-176.18z"/>
   <path class="fil7" d="M1255.22 686.57c0,0 35.09,5.54 68.87,16.31 32.15,10.25 63.08,25.61 62.74,31.42 -0.37,6.24 -34.14,-5.25 -66.57,-14.28 -29.53,-8.22 -58.02,-13.8 -58.02,-13.8l-7.02 -19.65z"/>
   <path class="fil9" d="M336.86 656.77c0,0 3.67,24.81 -3.67,47.37l32.17 -0.7c0,0 10.84,-22.91 11.54,-49.48l-40.04 2.81z"/>
   <path class="fil6" d="M329.02 753.96c0,0 -55.1,37.9 -49.14,90.2 1.5,13.12 13.7,-16.45 28.92,-44.3 13.43,-24.58 31.01,-47.28 20.21,-45.89z"/>
   <path class="fil12" d="M639.4 742.83c-174.44,35.56 -80.14,-49.95 31.38,-91.23 162.24,-60.06 232.25,37.5 -31.38,91.23z"/>
   <path class="fil12" d="M817.98 692.14c3.33,12.3 71.05,9.16 54.91,-14.41 -15.25,-22.28 -58.45,1.36 -54.91,14.41z"/>
   <circle class="fil5" transform="matrix(1 -0 0.209677 1 1143.47 804.676)" r="24.39"/>
   <circle class="fil5" transform="matrix(1.12281 -0 0.235427 1.12281 1109.28 739.923)" r="10"/>
  </g>
 </g>
</svg>
