<?xml version="1.0" encoding="UTF-8"?>
<!DOCTYPE svg PUBLIC "-//W3C//DTD SVG 1.1//EN" "http://www.w3.org/Graphics/SVG/1.1/DTD/svg11.dtd">
<!-- Creator: CorelDRAW 2020 (64-Bit) -->
<svg xmlns="http://www.w3.org/2000/svg" xml:space="preserve" width="129.436mm" height="197.989mm" version="1.1" style="shape-rendering:geometricPrecision; text-rendering:geometricPrecision; image-rendering:optimizeQuality; fill-rule:evenodd; clip-rule:evenodd"
viewBox="0 0 432.58 661.69"
 xmlns:xlink="http://www.w3.org/1999/xlink"
 xmlns:xodm="http://www.corel.com/coreldraw/odm/2003">
 <defs>
  <style type="text/css">
   <![CDATA[
    .fil0 {fill:none}
    .fil5 {fill:#343546}
    .fil7 {fill:#4B3446}
    .fil1 {fill:#501D33}
    .fil3 {fill:#51645C}
    .fil6 {fill:#634C54}
    .fil8 {fill:#896E6B}
    .fil4 {fill:#8E7A5D}
    .fil2 {fill:#C3C077}
   ]]>
  </style>
 </defs>
 <g id="Слой_x0020_1">
  <metadata id="CorelCorpID_0Corel-Layer"/>
  <g id="_2674303407792">
   <g>
    <rect id="_135982320" class="fil0" y="0" width="432.58" height="661.69"/>
   </g>
   <g>
    <path id="_273429240" class="fil1" d="M88.46 353.47c-0.06,-1.36 -0,-2.79 0.02,-4.12 0.05,-2.74 0.13,-5.48 0.22,-8.21 0.24,-7.63 0.53,-15.25 0.83,-22.88 0.46,-11.77 0.95,-23.54 1.46,-35.31l0 -79.54c0,-57.43 51.46,-80.25 103.08,-89.76 16.09,-2.97 28.37,-2.97 44.47,0 35.87,6.61 68.01,19.28 85.69,44.88 1.55,2.24 7.36,12.83 8.31,15.14 3.66,8.88 5.67,18.46 6.1,29.85l2.98 79.31c0.51,11.81 1,23.62 1.46,35.43 0.3,7.62 0.59,15.25 0.83,22.88 0.09,2.74 0.17,5.47 0.22,8.21 0.02,1.33 0.08,2.76 0.02,4.12 0.29,3.94 -1.99,7.69 -4.38,10.77 -3,3.85 -6.78,7.47 -10.45,10.74 -10.42,9.26 -22.46,17.76 -34.32,25.28 -51.47,32.65 -103.14,33.83 -155.13,1.4 -12.38,-7.73 -24.95,-16.49 -35.83,-26.05 -3.85,-3.38 -7.8,-7.12 -10.95,-11.1 -2.47,-3.13 -4.89,-6.99 -4.59,-11.04l-0 -0z"/>
    <path id="_273429168" class="fil2" d="M96.38 353.21c-0.36,-4.91 2.49,-70.18 2.49,-70.18l0 -79.26c0,-53.92 49.93,-73.94 96.68,-82.56 15.41,-2.84 26.07,-2.84 41.47,0 46.75,8.62 91.7,29.02 93.72,82.91l2.96 78.91c0,0 2.84,65.27 2.49,70.18 1.12,5.86 -19.1,23.81 -45.66,40.65 -48.74,30.91 -96.98,32.14 -146.32,1.36 -27.62,-17.23 -48.98,-36 -47.83,-42.02l-0 0z"/>
    <g>
     <path class="fil3" d="M110.17 216.49c-1.43,-1.42 -5.02,-7.2 -1.47,-12.38 2.75,-4.02 6.05,-2.84 8.05,-1.2 2.08,1.7 2.83,3.97 4.01,6.25 1.27,2.46 6.21,7.18 9.91,7.25 0.42,-2.32 -0.86,-3.34 -0.57,-6.25 1.54,-15.11 19.92,-27.61 34.65,-15.54 3.03,2.48 5.46,6.13 3.6,11.8 -2.93,8.93 -13.97,7.8 -16.35,3.53 -3.51,-6.31 1.37,-9.88 5.34,-8.43 2.02,0.73 3.34,1.88 4.77,3.25 1.25,-4.72 -7.33,-11.75 -15.15,-7.26 -2.27,1.31 -5.19,4.61 -5.96,7.71 -1.77,7.18 2.25,6.71 1.59,11.31 -5.27,-0.58 -7.21,-5.52 -7.94,-7.02 -3.16,10.54 14.87,21.61 25.53,16.36 3.24,-1.59 4.11,-2.41 6.75,-4.31 4.73,-3.41 9.6,-3.52 12.41,-1.05 0.99,0.88 1.73,2.08 2.1,3.57 0.82,4.52 -2.19,6.51 -3.98,7.58 3.23,2.46 14.71,-4.01 11.06,-15.19 -2.11,-6.46 -8.27,-12.19 -6.14,-16.81 6.62,-2.01 8.8,4.26 9.33,6.26 1.8,-2.54 0.76,-7.25 -0.2,-10.1 -3.28,-9.68 -12.52,-11.32 -15.32,-12.84 -8.83,-4.81 -4.89,-10.99 -0.94,-8.64 1.91,1.13 -0.04,1.09 3.11,1.61 -0.02,-3.81 -2.82,-5.17 -4.91,-7.59 -3.18,-3.69 -0.35,-9.38 -7.17,-17.29 -1.39,-1.61 -5.53,-5.4 -7.32,-5.17 0.24,0.88 1.62,2.66 2.27,3.72 7.78,12.8 -0.9,32.8 -6.61,26.46 -2.66,-2.95 2.5,-8.01 -1.86,-18.33 -0.92,-2.17 -3.2,-7.21 -5.45,-7.77 -0.24,4.09 1.18,7.75 -1.86,15.29 -2.47,6.12 -3.42,7.32 -7.3,11.26 -6.52,6.61 -26.48,14.12 -34.86,1.61 -2.85,7.56 -4.42,16.05 -4.42,25.62l0 5.02c2.32,4.01 6.06,7.16 11.29,7.71zm0.93 -52.94c0.86,0.03 1.77,0.15 2.72,0.39 6.97,1.73 7.97,7.6 5.72,10.02 -1.66,1.79 -3.23,1.18 -3.94,2.25 -3.34,4.97 23.16,-1.02 21.49,-18.08 -0.15,-1.52 -1.23,-3.65 -1.84,-5.07 -0.96,-2.21 -0.81,-3.44 -3.45,-3.71 -1.65,3.03 -0.13,4.07 -3.73,5.78 -4.15,1.98 -7.55,1.55 -9.94,0.07 -2.56,2.6 -4.91,5.37 -7.03,8.34z"/>
     <path class="fil3" d="M322.42 216.49c1.43,-1.42 5.02,-7.2 1.47,-12.38 -2.75,-4.02 -6.05,-2.84 -8.05,-1.2 -2.08,1.7 -2.83,3.97 -4.01,6.25 -1.27,2.46 -6.21,7.18 -9.91,7.25 -0.42,-2.32 0.86,-3.34 0.57,-6.25 -1.54,-15.11 -19.92,-27.61 -34.65,-15.54 -3.03,2.48 -5.46,6.13 -3.6,11.8 2.93,8.93 13.97,7.8 16.35,3.53 3.51,-6.31 -1.37,-9.88 -5.34,-8.43 -2.02,0.73 -3.34,1.88 -4.77,3.25 -1.25,-4.72 7.33,-11.75 15.15,-7.26 2.27,1.31 5.19,4.61 5.96,7.71 1.77,7.18 -2.25,6.71 -1.59,11.31 5.27,-0.58 7.21,-5.52 7.94,-7.02 3.16,10.54 -14.87,21.61 -25.53,16.36 -3.24,-1.59 -4.11,-2.41 -6.75,-4.31 -4.73,-3.41 -9.6,-3.52 -12.41,-1.05 -0.99,0.88 -1.73,2.08 -2.1,3.57 -0.82,4.52 2.19,6.51 3.98,7.58 -3.23,2.46 -14.71,-4.01 -11.06,-15.19 2.11,-6.46 8.27,-12.19 6.14,-16.81 -6.62,-2.01 -8.8,4.26 -9.33,6.26 -1.8,-2.54 -0.76,-7.25 0.2,-10.1 3.28,-9.68 12.52,-11.32 15.32,-12.84 8.83,-4.81 4.89,-10.99 0.94,-8.64 -1.91,1.13 0.04,1.09 -3.11,1.61 0.02,-3.81 2.82,-5.17 4.91,-7.59 3.18,-3.69 0.35,-9.38 7.17,-17.29 1.39,-1.61 5.53,-5.4 7.32,-5.17 -0.24,0.88 -1.62,2.66 -2.27,3.72 -7.78,12.8 0.9,32.8 6.61,26.46 2.66,-2.95 -2.5,-8.01 1.86,-18.33 0.92,-2.17 3.2,-7.21 5.45,-7.77 0.24,4.09 -1.18,7.75 1.86,15.29 2.47,6.12 3.42,7.32 7.3,11.26 5.93,6.02 22.99,12.77 32.33,4.52 2.29,6.91 3.68,14.57 3.99,23.06l0.31 8.18c-2.2,2.24 -5.07,3.82 -8.64,4.19zm-4 -52.46c-6.65,1.83 -7.58,7.55 -5.37,9.93 1.66,1.79 3.23,1.18 3.94,2.25 3.34,4.97 -23.16,-1.02 -21.49,-18.08 0.15,-1.52 1.23,-3.65 1.84,-5.07 0.96,-2.21 0.81,-3.44 3.45,-3.71 1.65,3.03 0.13,4.07 3.73,5.78 3,1.43 5.61,1.6 7.72,1.03 2.23,2.47 4.29,5.08 6.17,7.87z"/>
    </g>
    <path id="_273428424" class="fil4" d="M304.16 148.44c2.17,1.73 2.57,2.27 2.57,2.27 -12.04,8.84 -23.88,24.77 -23.88,24.77 -3.29,-9.32 -1.44,-13.83 -1.44,-13.83 -15.26,14.31 -19.92,41.58 -19.92,41.58 -9.31,-5.55 -14.77,-14.49 -14.77,-14.49 -6.21,18.06 -24.74,27.1 -24.74,27.1 -2.63,-19.85 -7.76,-28.89 -7.76,-28.89 -4.7,15.16 -13.41,21.46 -13.41,21.46 -4.33,-18.63 -21.55,-37.73 -21.55,-37.73 -3.95,9.22 -18.21,17.81 -18.21,17.81 -3,-22.73 -17.33,-39.83 -28.2,-45.76 16.81,-9.28 43.08,-17.91 62.68,-21.53 15.41,-2.84 26.07,-2.84 41.47,0 24.99,4.61 49.46,12.58 67.14,27.24l-0 0zm8.11 7.75c10.81,11.97 17.71,27.55 18.48,47.92l1.79 47.74c-22.45,-25.57 -22.34,-70.85 -20.27,-95.66zm-213.4 96.94l0 -49.37c0,-21.91 8.25,-38.23 21.18,-50.45 2.32,24.41 3.38,73.52 -21.18,99.83z"/>
    <g>
     <path class="fil5" d="M110.17 216.49c-1.43,-1.42 -5.02,-7.2 -1.47,-12.38 2.75,-4.02 6.05,-2.84 8.05,-1.2 1.02,0.84 1.72,1.81 2.31,2.86 1.12,-7.16 1.72,-14.34 1.97,-21.2 -6.73,1.03 -13.63,-0.29 -17.74,-6.42 -2.08,5.51 -3.48,11.52 -4.08,18.08l-0.02 0.23 -0.05 0.59 -0.04 0.49 -0.03 0.42 -0.04 0.61 -0.02 0.29c-0.01,0.25 -0.03,0.49 -0.04,0.74l-0.01 0.19c-0.01,0.29 -0.03,0.58 -0.04,0.87l-0 0.05 -0 0.04c-0.01,0.3 -0.02,0.6 -0.03,0.91l-0 0.12c-0.01,0.29 -0.01,0.59 -0.02,0.89l-0 0.11c-0,0.32 -0.01,0.65 -0.01,0.98l0 0 0 0 0 5.02c2.32,4.01 6.06,7.16 11.29,7.71zm62.08 -36.56c-3.26,-3.93 -0.13,-7.45 3.01,-5.58 1.03,0.61 0.94,0.88 1.13,1.08 0.52,-0.67 1.01,-1.35 1.45,-2.04 -0.92,-2.03 -2.83,-3.24 -4.37,-5.02 -3.18,-3.69 -0.35,-9.38 -7.17,-17.29 -1.39,-1.61 -5.53,-5.4 -7.32,-5.17 0.24,0.88 1.62,2.66 2.27,3.72 6.14,10.1 2.03,24.68 -2.78,27.27 1.17,3.67 2.07,7.55 2.61,11.61 0,0 5.91,-3.56 11.18,-8.57zm-17.67 -12.61c0.13,-2.56 -0.17,-5.69 -1.81,-9.57 -0.92,-2.17 -3.2,-7.21 -5.45,-7.77 -0.11,1.92 0.14,3.74 0.13,5.92 2.59,3.35 5.03,7.18 7.13,11.42zm-34.28 -11.16c0.5,6.01 0.89,13.22 0.87,21.07 -3.98,1.16 -6.81,0.82 -5.58,-1.02 0.72,-1.07 2.28,-0.46 3.94,-2.25 2.25,-2.43 1.25,-8.29 -5.72,-10.02 -0.96,-0.24 -1.87,-0.36 -2.72,-0.39 2.12,-2.96 4.47,-5.74 7.03,-8.34 0.65,0.4 1.38,0.73 2.18,0.95z"/>
     <path class="fil5" d="M322.42 216.49c1.43,-1.42 5.02,-7.2 1.47,-12.38 -2.75,-4.02 -6.05,-2.84 -8.05,-1.2 -1.03,0.84 -1.73,1.81 -2.32,2.86 -1.12,-7.16 -1.72,-14.34 -1.97,-21.2 5.49,0.84 11.1,0.12 15.21,-3.52l0.11 0.32 0.17 0.54 0.05 0.17c0.06,0.19 0.12,0.38 0.18,0.58l0.02 0.06 0.19 0.62 0.1 0.33 0.16 0.57 0.05 0.2 0.16 0.57 0.09 0.34c0.26,0.99 0.51,2 0.74,3.03l0.02 0.11 0.14 0.65 0.07 0.35 0.12 0.59 0.04 0.2 0.12 0.61 0 0.02 0.07 0.36 0.07 0.36 0.06 0.36 0.01 0.03 0.11 0.65 0.02 0.1 0.1 0.61 0.01 0.06 0.06 0.37 0 0 0.05 0.36 0.05 0.37 0.01 0.1 0.08 0.58 0.01 0.06 0.05 0.37 0.05 0.39 0.06 0.47 0.05 0.42 0.06 0.5 0.04 0.36 0.06 0.59 0.02 0.24 0.06 0.65 0.03 0.31 0.05 0.63 0.02 0.27 0.05 0.66 0.02 0.25 0.04 0.69 0.02 0.27 0.04 0.7 0.01 0.19c0.01,0.25 0.02,0.49 0.03,0.74l0 0.12 0.31 8.18c-2.2,2.24 -5.07,3.82 -8.64,4.19zm-82.48 -15.49c0.16,-1.85 0.66,-3.74 1.14,-5.16 3.28,-9.68 12.52,-11.32 15.32,-12.84 8.83,-4.81 4.89,-10.99 0.94,-8.64 -1.91,1.13 0.04,1.09 -3.11,1.61 0.02,-3.81 2.82,-5.17 4.91,-7.59 3.18,-3.69 0.35,-9.38 7.17,-17.29 1.39,-1.61 5.53,-5.4 7.32,-5.17 -0.24,0.88 -1.62,2.66 -2.27,3.72 -5.06,8.32 -3.16,19.68 0.36,24.87 -7.61,13.63 -10.2,28.74 -10.2,28.74 -9.31,-5.55 -14.77,-14.49 -14.77,-14.49 -1.61,4.7 -4.06,8.78 -6.8,12.26zm38.07 -35.74c0.11,-2.13 0.59,-4.61 1.81,-7.5 0.92,-2.17 3.2,-7.21 5.45,-7.77 0.24,4.09 -1.18,7.75 1.86,15.29 0.51,1.26 0.95,2.31 1.37,3.22 -3.45,4.05 -5.63,6.99 -5.63,6.99 -3.29,-9.32 -1.44,-13.83 -1.44,-13.83 -1.2,1.13 -2.34,2.34 -3.41,3.61zm49.79 19.19c0.05,0.19 0.11,0.38 0.16,0.57zm-25.27 -31.07c-2.5,2.15 -4.94,4.49 -7.2,6.82 -0.06,-0.85 -0.06,-1.73 0.03,-2.64 0.15,-1.52 1.23,-3.65 1.84,-5.07 0.96,-2.21 0.81,-3.44 3.45,-3.71 1.25,2.28 0.69,3.43 1.88,4.59zm9.6 2.24c0.17,0.18 0.33,0.37 0.49,0.55l0.01 0.01zm1.51 1.76l0.4 0.48 0.05 0.06 0.01 0.01c0.15,0.18 0.29,0.36 0.43,0.54l0.04 0.04 0.01 0.01c0.15,0.18 0.29,0.37 0.43,0.55l0.01 0.01 0.02 0.03 0.07 0.1 0.37 0.48 0.01 0.02 0.01 0.01 0.02 0.02c0.14,0.18 0.27,0.36 0.41,0.54l0.03 0.04 0.01 0.01 0.09 0.13 0.27 0.37 0.15 0.21 0.22 0.31 0.09 0.13 0.09 0.13 0.09 0.13 0.09 0.13 0.09 0.13 0.09 0.13 0.15 0.22 0.03 0.04 0.09 0.13 0.09 0.13 0.18 0.26c-6.65,1.83 -7.58,7.55 -5.37,9.93 1.66,1.79 3.23,1.18 3.94,2.25 1.23,1.84 -1.6,2.18 -5.58,1.02 -0.02,-7.83 0.37,-15.03 0.87,-21.04zm1.98 2.29l0.03 0.04z"/>
    </g>
    <path id="_273428856" class="fil4" d="M292.1 389.77c-0.64,0.41 -1.28,0.83 -1.93,1.24 -47.81,30.32 -95.14,31.53 -143.54,1.34 -4.3,-2.68 -8.44,-5.4 -12.37,-8.1l-0 -0.11c0,0 71.86,44.92 157.84,5.64z"/>
    <path id="_273428784" class="fil4" d="M96.38 353.21c-0.36,-4.91 2.49,-70.18 2.49,-70.18l0 -6.02c10.88,7.6 32.78,30.93 35.41,40.4 2.63,9.47 -0.96,41.24 -2.08,69.97 -21.54,-14.75 -36.79,-29.05 -35.82,-34.16zm237.1 -76.08l0.22 5.89c0,0 2.84,65.27 2.49,70.18 0.97,5.11 -14.28,19.41 -35.82,34.16 -2.25,-26.85 -5.07,-60.91 -2.45,-70.35 2.62,-9.44 24.91,-29.94 35.56,-39.89l0 0z"/>
    <path id="_273428496" class="fil1" d="M120.86 148.87c0,0 3.39,16.78 0,36.66 0,0 -1.88,-24.54 -7.34,-34.02l3.76 -2.49 3.57 -0.16z"/>
    <path id="_273428496_0" class="fil1" d="M311.33 148.87c0,0 -3.39,16.78 0,36.66 0,0 1.88,-24.54 7.34,-34.02l-3.76 -2.49 -3.57 -0.16z"/>
    <path id="_273422112" class="fil1" d="M281.47 145.53c0,0 -9.07,11.04 -7.57,34.74 0,0 2.26,-16.56 11.48,-31.05l-0.34 -4.17 -3.57 0.47z"/>
    <path id="_273422040" class="fil1" d="M174.79 162.9c0,0 7.89,8.45 9.3,23.1 0,0 4.21,-12.7 -1.81,-27.94 -6.02,-15.24 -8.33,0.9 -7.49,4.84z"/>
    <path id="_273421968" class="fil1" d="M273.16 105.3c19,1.91 34.48,18.28 31.61,38.66 -12.04,8.84 -21.64,21.73 -21.64,21.73 -3.29,-9.32 -1.44,-13.83 -1.44,-13.83 -15.26,14.31 -19.92,41.58 -19.92,41.58 -9.31,-5.55 -14.77,-14.49 -14.77,-14.49 -6.21,18.06 -24.74,27.1 -24.74,27.1 -2.63,-19.85 -7.76,-28.89 -7.76,-28.89 -4.7,15.16 -13.41,21.46 -13.41,21.46 -4.33,-18.63 -21.55,-37.73 -21.55,-37.73 -3.95,9.22 -18.21,17.81 -18.21,17.81 -2.19,-16.62 -11.44,-33.65 -31.47,-35.87 -1.67,-26.74 17.33,-50.03 47.04,-46.47 0,0 18.54,-19.76 48.45,-7.43 0,0 32.36,-3.95 47.79,16.37l-0 0z"/>
    <path id="_273421896" class="fil6" d="M137.5 137.73c-0.21,-3.85 0.5,-7.7 2.54,-11.55 0,0 7.67,4 14.56,12.51 -6.28,-11.13 -13.42,-17.49 -13.42,-17.49 0,0 8.37,-18.44 30.1,-18.06 21.73,0.38 34.43,23.9 34.43,23.9 -7.34,-21.45 -21.22,-28.33 -21.22,-28.33 16.05,-11.28 31.39,-8.76 45.51,3.87 14.55,13.01 21.44,32.18 21.44,32.18 -4.7,-24.84 -21.45,-39.61 -21.45,-39.61 44.41,-1.88 46.29,34.34 46.29,34.34 0.38,-13.92 -1.65,-18.3 -1.65,-18.3 25.13,5.94 25.57,30.92 25.57,30.92 -6.01,3.76 -13.99,13.71 -13.99,13.71 0.28,-5.45 2.16,-13.71 2.16,-13.71l-0.99 0.18c-22.01,9.78 -28.31,42.27 -28.31,42.27 -6.2,-6.39 -8.64,-14.18 -8.64,-14.18 1.97,-6.67 1.77,-16.61 1.77,-16.61 -9.41,30.86 -25.4,42.15 -25.4,42.15 -0.19,-14.11 -9.89,-27.6 -9.89,-27.6 1.13,-6.2 -2.16,-16.06 -2.16,-16.06 -2.16,20.75 -10.15,33.5 -10.15,33.5 -15.99,-30.29 -36.88,-41.39 -36.88,-41.39 6.77,5.27 8.66,9.97 8.66,9.97 -2.82,8.28 -10.72,14.02 -10.72,14.02 -3.54,-14.62 -13.34,-25.88 -28.13,-30.6l-0 0z"/>
    <path id="_273421824" class="fil7" d="M259.22 183.76c-0.11,0.5 -0.17,0.78 -0.17,0.78 -6.2,-6.39 -8.64,-14.18 -8.64,-14.18 1.72,-5.82 1.78,-14.13 1.77,-16.15 0.21,1.36 2.64,16.57 7.03,29.55z"/>
    <path id="_273421752" class="fil7" d="M226.78 195.89c-0.19,-14.11 -9.89,-27.6 -9.89,-27.6 0.97,-5.35 -1.35,-13.44 -2,-15.54 1.55,1.35 21.39,19.26 11.89,43.15z"/>
    <path id="_273421680" class="fil8" d="M143.41 123.42c-1.38,-1.46 -2.24,-2.22 -2.24,-2.22 0,0 8.37,-18.44 30.1,-18.06 17.5,0.3 29.14,15.61 33.01,21.56l0.94 1.75c-32.49,-31.68 -56,-9.64 -61.82,-3.03zm45.33 -21.84c-2.54,-2.03 -4.25,-2.88 -4.25,-2.88 16.05,-11.28 31.39,-8.76 45.51,3.87 9.95,8.9 16.31,20.67 19.34,27.22 -20.14,-34.35 -51.82,-30.16 -60.6,-28.21zm45.47 -2.02c-2.5,-2.89 -4.23,-4.42 -4.23,-4.42 38.98,-1.65 45.19,26.05 46.13,32.85 -8.77,-25.51 -34.68,-28.18 -41.9,-28.43l-0 0zm41.66 17.62c-0.5,-4.39 -1.25,-6 -1.25,-6 25.13,5.94 25.57,30.92 25.57,30.92l-0.1 0.06 -0.03 -0.09c-5.61,-18.65 -20.6,-23.89 -24.19,-24.89z"/>
    <path id="_273421608" class="fil7" d="M137.5 137.73c-0.21,-3.85 0.5,-7.7 2.54,-11.55 0,0 7.67,4 14.56,12.51 -0.15,-0.27 -0.3,-0.53 -0.46,-0.8 5.61,7.77 10.92,18.17 11.66,30.31l-0.17 0.13c-3.54,-14.62 -13.34,-25.88 -28.13,-30.6z"/>
    <path id="_273421536" class="fil1" d="M302.32 142.9c0,0 -7.24,5.95 -10.44,23.45 0,0 6.59,-12.04 15.99,-20.7l-2.83 -2.37 -2.72 -0.38z"/>
    <path id="_273421464" class="fil1" d="M132.41 142.44c0,0 15.24,9.97 15.43,31.8 0,0 6.21,-14.86 -4.33,-32.55 0,0 -4.13,-0.77 -4.7,-0.77 -0.56,0 -6.41,1.52 -6.41,1.52z"/>
    <path id="_273421392" class="fil7" d="M234.39 118.92c0,0 30.48,32.36 -5.46,72.25 9.86,-21.83 11.38,-48.33 5.46,-72.25z"/>
    <path id="_273421320" class="fil7" d="M259.4 174.17c0,0 7.54,-27.02 28.24,-33.8 0,0 -15.28,-1.8 -22.6,6.74 -7.33,8.55 -5.64,27.05 -5.64,27.05l-0 0z"/>
    <path id="_273421248" class="fil7" d="M171.55 143.38c0,0 20.89,12.04 32.17,35.94 0,0 13.36,-22.77 1.51,-50.05 0,0 0.64,16.16 -5.27,27.9 0,0 -7.75,-8.62 -28.41,-13.79l0 0z"/>
    <path id="_273421176" class="fil7" d="M197.54 160.18c0,0 -2.83,-13.18 -19.97,-21.69 0,0 17.14,3.09 24.36,15.98l-0.08 5.19 -4.31 0.51z"/>
    <path id="_273421104" class="fil8" d="M143.42 123.55c0,0 22.54,-13.99 48.55,-0.19 0,0 -12.77,-14.09 -37.85,-10.61l-6.2 4.13c0,0 -3.94,3.85 -4.51,6.67l-0 0z"/>
    <path id="_273421032" class="fil8" d="M202.6 100.3c0,0 16.18,1.88 26.34,25.4 0,0 -0.56,-17.12 -13.92,-28.41l-7.64 -0.22 -4.78 3.23z"/>
    <path id="_273420960" class="fil8" d="M188.5 101.52c0,0 20.77,8.76 31.82,37.57 0,0 2.1,-21.31 -16.55,-39.9l-8.72 -0.16 -6.54 2.49z"/>
    <path id="_273420888" class="fil8" d="M246.06 101.24c0,0 13.17,9.03 15.43,34.81 0,0 4.14,-16.75 -1.88,-31.42l-8.56 -4.17 -4.98 0.79z"/>
    <polygon id="_273428640" class="fil1" points="298.84,392.35 297.52,347.56 304.11,388.39 "/>
    <polygon id="_273428568" class="fil1" points="132.85,392.35 134.17,347.56 127.58,388.39 "/>
   </g>
  </g>
 </g>
</svg>
