<?xml version="1.0" encoding="UTF-8"?>
<!DOCTYPE svg PUBLIC "-//W3C//DTD SVG 1.1//EN" "http://www.w3.org/Graphics/SVG/1.1/DTD/svg11.dtd">
<!-- Creator: CorelDRAW 2020 (64-Bit) -->
<svg xmlns="http://www.w3.org/2000/svg" xml:space="preserve" width="129.436mm" height="197.988mm" version="1.1" style="shape-rendering:geometricPrecision; text-rendering:geometricPrecision; image-rendering:optimizeQuality; fill-rule:evenodd; clip-rule:evenodd"
viewBox="0 0 4544.68 6951.64"
 xmlns:xlink="http://www.w3.org/1999/xlink"
 xmlns:xodm="http://www.corel.com/coreldraw/odm/2003">
 <defs>
  <style type="text/css">
   <![CDATA[
    .fil0 {fill:none}
    .fil2 {fill:#501D33}
    .fil5 {fill:#623448}
    .fil3 {fill:#ADA5B7}
    .fil1 {fill:#D77D75}
    .fil6 {fill:#F9F9F9}
    .fil7 {fill:#FDFDFD}
    .fil4 {fill:white}
   ]]>
  </style>
 </defs>
 <g id="Слой_x0020_1">
  <metadata id="CorelCorpID_0Corel-Layer"/>
  <rect id="_166536576" class="fil0" width="4544.68" height="6951.64"/>
  <path class="fil1" d="M2518.98 2931.33c0,0 143.06,193.23 421.76,150.5 278.7,-42.73 193.23,-367.88 193.23,-367.88 0,0 -319.57,-50.16 -614.99,217.39z"/>
  <path class="fil1" d="M1389.33 2596.89c-46.59,538.35 460.42,601.48 640.77,341.41 -26.01,-40.88 -354.64,-250.37 -640.77,-341.41z"/>
  <path class="fil2" d="M2515.26 2938.09c0,0 135.63,143.07 351.16,112.41 0,0 -194.16,-6.51 -292.63,-144l-16.72 -9.29 -41.8 40.87z"/>
  <path class="fil2" d="M2514.34 2937.86c-12.93,-392.01 263.1,-542.93 559.06,-402.36 28.44,13.51 57.08,29.71 85.65,48.65 25.94,379.77 -317.73,530.01 -644.72,353.71z"/>
  <path class="fil3" d="M2562.64 2920.44c11.1,-361.14 301.35,-412.37 539.74,-305.63 -2.81,375.31 -351.68,395.85 -539.74,305.63z"/>
  <path class="fil4" d="M2579.5 2907.21c-2,-151.71 75.53,-262.62 215.53,-314 0,0 153.28,47.38 117.05,324.22 0,0 -157,65.96 -332.58,-10.22z"/>
  <g id="_801529472">
   <g>
    <ellipse class="fil2" cx="2754.94" cy="2774.23" rx="142.07" ry="140.15"/>
    <path class="fil5" d="M2832.77 2693.29c21.71,20.33 35.27,49.09 35.27,80.94 0,61.61 -50.64,111.58 -113.1,111.58 -49.11,0 -90.89,-30.9 -106.52,-74.06 20.28,18.99 47.67,30.65 77.83,30.65 62.46,0 113.1,-49.97 113.1,-111.58 0,-13.16 -2.33,-25.8 -6.57,-37.53z"/>
    <circle class="fil6" transform="matrix(1.46092 -1.10937 1.0264 0.996717 2718.51 2723.27)" r="38.49"/>
   </g>
   <ellipse class="fil7" transform="matrix(1.0066 -0.498018 0.498018 1.0066 2810.75 2858.26)" rx="30.72" ry="17.45"/>
  </g>
  <path class="fil2" d="M2029.42 2938.09c0,0 -135.63,143.07 -351.16,112.41 0,0 194.16,-6.51 292.63,-144l16.72 -9.29 41.8 40.87z"/>
  <path class="fil2" d="M2030.34 2937.86c12.93,-392.01 -263.1,-542.93 -559.06,-402.36 -28.44,13.51 -57.08,29.71 -85.65,48.65 -25.94,379.77 317.73,530.01 644.72,353.71z"/>
  <path class="fil3" d="M1982.04 2920.44c-11.1,-361.14 -301.35,-412.37 -539.74,-305.63 2.81,375.31 351.68,395.85 539.74,305.63z"/>
  <path class="fil4" d="M1787.34 2650.71c118.59,47.52 186.72,218.22 174.77,249.83 -11.94,31.61 -188.11,71.39 -314.13,23.88 -126.02,-47.52 -197.86,-197.78 -174.77,-255.4 23.09,-57.62 195.54,-65.82 314.13,-18.3z"/>
  <g id="_801494864">
   <g>
    <ellipse class="fil2" cx="1789.74" cy="2774.23" rx="142.07" ry="140.15"/>
    <path class="fil5" d="M1711.91 2693.29c-21.71,20.33 -35.27,49.09 -35.27,80.94 0,61.61 50.64,111.58 113.1,111.58 49.11,0 90.89,-30.9 106.52,-74.06 -20.28,18.99 -47.67,30.65 -77.83,30.65 -62.46,0 -113.1,-49.97 -113.1,-111.58 0,-13.16 2.33,-25.8 6.57,-37.53z"/>
    <circle class="fil6" transform="matrix(-1.46092 -1.10937 -1.0264 0.996717 1826.17 2723.27)" r="38.49"/>
   </g>
   <ellipse class="fil7" transform="matrix(-1.0066 -0.498018 -0.498018 1.0066 1733.93 2858.26)" rx="30.72" ry="17.45"/>
  </g>
  <ellipse class="fil2" transform="matrix(0.955603 0.362566 -0.362566 0.955603 3000.95 3086.89)" rx="28.8" ry="39.02"/>
  <path class="fil1" d="M1675.49 2417.78c0,0 289.85,-16.73 375.31,274.98 -25.75,-242.52 -106.72,-321.85 -375.31,-274.98z"/>
  <path class="fil1" d="M2768.43 2434.5c0,0 -161.65,22.3 -245.25,169.08 0,0 40.88,-213.67 226.68,-245.25 185.8,-31.59 18.58,76.18 18.58,76.18z"/>
 </g>
</svg>
