<?xml version="1.0" encoding="UTF-8"?>
<!DOCTYPE svg PUBLIC "-//W3C//DTD SVG 1.1//EN" "http://www.w3.org/Graphics/SVG/1.1/DTD/svg11.dtd">
<!-- Creator: CorelDRAW 2020 (64-Bit) -->
<svg xmlns="http://www.w3.org/2000/svg" xml:space="preserve" width="129.436mm" height="197.988mm" version="1.1" style="shape-rendering:geometricPrecision; text-rendering:geometricPrecision; image-rendering:optimizeQuality; fill-rule:evenodd; clip-rule:evenodd"
viewBox="0 0 2946.25 4506.65"
 xmlns:xlink="http://www.w3.org/1999/xlink"
 xmlns:xodm="http://www.corel.com/coreldraw/odm/2003">
 <defs>
  <style type="text/css">
   <![CDATA[
    .fil0 {fill:none}
    .fil2 {fill:#501D33}
    .fil5 {fill:#656FA2}
    .fil6 {fill:#A4C4DA}
    .fil4 {fill:#ADA5B7}
    .fil1 {fill:#D77D75}
    .fil3 {fill:white}
   ]]>
  </style>
 </defs>
 <g id="Слой_x0020_1">
  <metadata id="CorelCorpID_0Corel-Layer"/>
  <rect id="_166536576" class="fil0" width="2946.25" height="4506.65"/>
  <g id="_846269056">
   <g>
    <path class="fil1" d="M991.75 1826.73c0,0 33.13,81.91 146.35,93.96 113.22,12.05 178.87,-90.34 178.87,-90.34 0,0 -214.4,-49.38 -325.22,-3.61z"/>
    <path class="fil2" d="M1323.47 1825.26c-50.59,101.18 -163.81,97.57 -163.81,97.57 100.58,-23.49 132.8,-102.99 132.8,-102.99l13.55 1.51 17.46 3.92z"/>
    <path class="fil2" d="M935.59 1728.85c0,0 25.25,52.22 87.23,56.81l22.38 -46.48c0,0 -66.57,19.51 -109.61,-10.33z"/>
    <path class="fil2" d="M1032.34 1735.36c48.37,-40.25 91.42,-56.72 130.29,-54.12 63.29,4.23 117.28,36.74 161.44,144.02 -52.21,47.41 -121.3,54.42 -175.27,51.42 -117.63,-6.54 -216.29,-71.34 -244.5,-113.45 56.92,22.27 88.11,5.37 128.04,-27.87z"/>
    <path class="fil3" d="M1025.95 1790.93c0,0 60.23,-75.28 133.7,-72.87 31.89,1.04 63.23,20.25 88.47,41.65 32.91,27.9 41.62,61.03 41.62,61.03 0,0 -131.29,82.21 -263.78,-29.81z"/>
    <path class="fil4" d="M1026.77 1789.95c7.36,-8.8 64.36,-74.13 132.89,-71.89 31.89,1.04 63.23,20.25 88.47,41.65 28.9,24.5 39.14,53.04 41.2,59.63 -116.88,-92.95 -262.2,-27.99 -262.2,-27.99l-0.36 -1.4z"/>
    <path class="fil2" d="M1266.98 1774.67c-5.42,38.8 -38.73,68.67 -79.02,68.67 -44.07,0 -79.8,-35.73 -79.8,-79.8 0,-14.82 4.05,-28.7 11.09,-40.59 13.02,-4.34 26.91,-6.86 41.31,-6.39 39.99,1.31 79.09,31.17 106.42,58.11z"/>
    <path class="fil5" d="M1243.39 1753.56c0.58,3.24 0.88,6.58 0.88,9.98 0,31.1 -25.21,56.31 -56.31,56.31 -31.1,0 -56.31,-25.21 -56.31,-56.31 0,-19.66 10.08,-36.97 25.35,-47.04 1.18,0 2.37,0.02 3.56,0.05 29.56,0.97 58.64,17.54 82.83,37z"/>
    <ellipse class="fil6" cx="1188.86" cy="1790.57" rx="38.52" ry="24.76"/>
    <path class="fil2" d="M1187.96 1724.26c21.69,0 39.28,17.59 39.28,39.28 0,21.69 -17.59,39.28 -39.28,39.28 -21.69,0 -39.28,-17.59 -39.28,-39.28 0,-21.69 17.59,-39.28 39.28,-39.28z"/>
    <ellipse class="fil3" cx="1156.09" cy="1763.94" rx="25.38" ry="31.02"/>
    <circle class="fil3" cx="1216.91" cy="1790.22" r="14.53"/>
   </g>
   <g>
    <path class="fil1" d="M1954.5 1826.73c0,0 -33.13,81.91 -146.35,93.96 -113.22,12.05 -178.87,-90.34 -178.87,-90.34 0,0 214.4,-49.38 325.22,-3.61z"/>
    <path class="fil2" d="M1622.79 1825.26c50.59,101.18 163.81,97.57 163.81,97.57 -100.58,-23.49 -132.8,-102.99 -132.8,-102.99l-13.55 1.51 -17.46 3.92z"/>
    <path class="fil2" d="M2010.66 1728.85c0,0 -25.25,52.22 -87.23,56.81l-22.38 -46.48c0,0 66.57,19.51 109.61,-10.33z"/>
    <path class="fil2" d="M1913.91 1735.36c-48.37,-40.25 -91.42,-56.72 -130.29,-54.12 -63.29,4.23 -117.28,36.74 -161.44,144.02 52.21,47.41 121.3,54.42 175.27,51.42 117.63,-6.54 216.29,-71.34 244.5,-113.45 -56.92,22.27 -88.11,5.37 -128.04,-27.87z"/>
    <path class="fil3" d="M1920.3 1790.93c0,0 -60.23,-75.28 -133.7,-72.87 -31.89,1.04 -63.23,20.25 -88.47,41.65 -32.91,27.9 -41.62,61.03 -41.62,61.03 0,0 131.29,82.21 263.78,-29.81z"/>
    <path class="fil4" d="M1919.49 1789.95c-7.36,-8.8 -64.36,-74.13 -132.89,-71.89 -31.89,1.04 -63.23,20.25 -88.47,41.65 -28.9,24.5 -39.14,53.04 -41.2,59.63 116.88,-92.95 262.2,-27.99 262.2,-27.99l0.36 -1.4z"/>
    <path class="fil2" d="M1679.27 1774.67c5.42,38.8 38.73,68.67 79.02,68.67 44.07,0 79.8,-35.73 79.8,-79.8 0,-14.82 -4.05,-28.7 -11.09,-40.59 -13.02,-4.34 -26.91,-6.86 -41.31,-6.39 -39.99,1.31 -79.09,31.17 -106.42,58.11z"/>
    <path class="fil5" d="M1702.86 1753.56c-0.58,3.24 -0.88,6.58 -0.88,9.98 0,31.1 25.21,56.31 56.31,56.31 31.1,0 56.31,-25.21 56.31,-56.31 0,-19.66 -10.08,-36.97 -25.35,-47.04 -1.18,0 -2.37,0.02 -3.56,0.05 -29.56,0.97 -58.64,17.54 -82.83,37z"/>
    <ellipse class="fil6" cx="1757.39" cy="1790.57" rx="38.52" ry="24.76"/>
    <path class="fil2" d="M1758.29 1722.45c-22.69,0 -41.09,18.4 -41.09,41.09 0,22.69 18.4,41.09 41.09,41.09 22.69,0 41.09,-18.4 41.09,-41.09 0,-22.69 -18.4,-41.09 -41.09,-41.09z"/>
    <ellipse class="fil3" cx="1790.17" cy="1763.94" rx="25.38" ry="31.02"/>
    <circle class="fil3" cx="1729.34" cy="1790.22" r="14.53"/>
   </g>
  </g>
 </g>
</svg>
