<?xml version="1.0" encoding="UTF-8"?>
<!DOCTYPE svg PUBLIC "-//W3C//DTD SVG 1.1//EN" "http://www.w3.org/Graphics/SVG/1.1/DTD/svg11.dtd">
<!-- Creator: CorelDRAW 2020 (64-Bit) -->
<svg xmlns="http://www.w3.org/2000/svg" xml:space="preserve" width="129.436mm" height="197.988mm" version="1.1" style="shape-rendering:geometricPrecision; text-rendering:geometricPrecision; image-rendering:optimizeQuality; fill-rule:evenodd; clip-rule:evenodd"
viewBox="0 0 2179.64 3334.03"
 xmlns:xlink="http://www.w3.org/1999/xlink"
 xmlns:xodm="http://www.corel.com/coreldraw/odm/2003">
 <defs>
  <style type="text/css">
   <![CDATA[
    .fil0 {fill:none}
    .fil5 {fill:#3E974D}
    .fil4 {fill:#501D33}
    .fil6 {fill:#93D364}
    .fil3 {fill:#ADA5B7}
    .fil1 {fill:#D77D75}
    .fil7 {fill:#FFE0B3}
    .fil2 {fill:white}
   ]]>
  </style>
 </defs>
 <g id="Слой_x0020_1">
  <metadata id="CorelCorpID_0Corel-Layer"/>
  <rect id="_166536576" class="fil0" width="2179.64" height="3334.03"/>
  <g id="_788839888">
   <g>
    <g>
     <path class="fil1" d="M726.35 1275.93c-0.25,189.82 163.78,195.67 253.07,110.94 0,0 -167.52,-157.28 -253.07,-110.94z"/>
     <path class="fil2" d="M776.05 1358.78c0,0 81.65,81.53 202.84,28.07 -2,-17.04 -16.15,-88.22 -74.07,-122.97 -57.92,-34.75 -151.93,-8.47 -151.93,-8.47 0,0 -18.71,41.88 23.17,103.37z"/>
     <path class="fil3" d="M975.67 1369.42c-7.93,-28.6 -20,-75.03 -70.86,-105.54 -50.86,-30.51 -151.93,-8.47 -151.93,-8.47 0,0 -6.4,14.33 -3.33,38.53 4.52,3.66 7.56,6.05 7.56,6.05 80.01,-9.5 162.76,9.93 218.56,69.43z"/>
     <g>
      <circle class="fil4" cx="887.9" cy="1308.43" r="69.71"/>
      <circle class="fil5" cx="887.9" cy="1308.43" r="49.89"/>
      <ellipse class="fil6" cx="887.44" cy="1331.06" rx="33.86" ry="23.28"/>
      <circle class="fil4" cx="887.9" cy="1308.43" r="34.3"/>
      <ellipse class="fil2" cx="853.35" cy="1303.32" rx="21.16" ry="23.17"/>
      <ellipse class="fil2" transform="matrix(0.527926 0.327145 -0.404771 0.653194 915.725 1329.16)" rx="21.16" ry="23.17"/>
     </g>
     <path class="fil4" d="M725.28 1267.88c0,0 3.12,213.64 236.14,125.87 0,0 -203.17,48.79 -203.17,-140.13l-27.62 -7.13 -5.35 21.39z"/>
     <path class="fil7" d="M735.08 1230.45c65.5,-43.66 139.91,-48.45 184.53,-26 47.16,23.74 55.63,81.81 56.1,165.01 0,0 -46.36,-135.45 -240.62,-139.01z"/>
     <path class="fil7" d="M912.48 1209.08c28.82,14.44 43.34,39.35 36.84,52.32 -6.51,12.98 -35.14,11.79 -63.96,-2.65 -28.82,-14.44 -46.91,-36.67 -40.4,-49.65 6.51,-12.98 38.7,-14.46 67.52,-0.02z"/>
     <path class="fil4" d="M679.83 1213.52c0,0 1.78,58.81 60.6,65.05 0,0 135.45,-49.9 235.25,90.89 0,0 -26.29,-132.77 -121.19,-145.69 -94.9,-12.92 -130.99,29.85 -174.65,-10.25z"/>
    </g>
    <g>
     <path class="fil1" d="M1456.86 1275.93c0.25,189.82 -163.78,195.67 -253.07,110.94 0,0 167.52,-157.28 253.07,-110.94z"/>
     <path class="fil2" d="M1407.15 1358.78c0,0 -81.65,81.53 -202.84,28.07 2,-17.04 16.15,-88.22 74.07,-122.97 57.92,-34.75 151.93,-8.47 151.93,-8.47 0,0 18.71,41.88 -23.17,103.37z"/>
     <path class="fil3" d="M1207.54 1369.42c7.93,-28.6 20,-75.03 70.86,-105.54 50.86,-30.51 151.93,-8.47 151.93,-8.47 0,0 6.4,14.33 3.33,38.53 -4.52,3.66 -7.56,6.05 -7.56,6.05 -80.01,-9.5 -162.76,9.93 -218.56,69.43z"/>
     <g>
      <circle class="fil4" cx="1295.31" cy="1308.43" r="69.71"/>
      <circle class="fil5" cx="1295.31" cy="1308.43" r="49.89"/>
      <ellipse class="fil6" cx="1295.77" cy="1331.06" rx="33.86" ry="23.28"/>
      <circle class="fil4" cx="1295.31" cy="1308.43" r="34.3"/>
      <ellipse class="fil2" cx="1329.86" cy="1303.32" rx="21.16" ry="23.17"/>
      <ellipse class="fil2" transform="matrix(-0.527926 0.327145 0.404771 0.653194 1267.48 1329.16)" rx="21.16" ry="23.17"/>
     </g>
     <path class="fil4" d="M1457.93 1267.88c0,0 -3.12,213.64 -236.14,125.87 0,0 203.17,48.79 203.17,-140.13l27.62 -7.13 5.35 21.39z"/>
     <path class="fil7" d="M1448.13 1230.45c-65.5,-43.66 -139.91,-48.45 -184.53,-26 -47.16,23.74 -55.63,81.81 -56.1,165.01 0,0 46.36,-135.45 240.62,-139.01z"/>
     <path class="fil7" d="M1270.73 1209.08c-28.82,14.44 -43.34,39.35 -36.84,52.32 6.51,12.98 35.14,11.79 63.96,-2.65 28.82,-14.44 46.91,-36.67 40.4,-49.65 -6.51,-12.98 -38.7,-14.46 -67.52,-0.02z"/>
     <path class="fil4" d="M1503.38 1213.52c0,0 -1.78,58.81 -60.6,65.05 0,0 -135.45,-49.9 -235.25,90.89 0,0 26.29,-132.77 121.19,-145.69 94.9,-12.92 130.99,29.85 174.65,-10.25z"/>
    </g>
   </g>
   <g>
    <circle class="fil4" transform="matrix(0.983966 -0.178357 0.239656 1.32214 701.525 1349.23)" r="14.26"/>
    <circle class="fil4" transform="matrix(0.627463 -0.113736 0.152826 0.843114 690.043 1395.67)" r="14.26"/>
   </g>
  </g>
 </g>
</svg>
