<?xml version="1.0" encoding="UTF-8"?>
<!DOCTYPE svg PUBLIC "-//W3C//DTD SVG 1.1//EN" "http://www.w3.org/Graphics/SVG/1.1/DTD/svg11.dtd">
<!-- Creator: CorelDRAW 2020 (64-Bit) -->
<svg xmlns="http://www.w3.org/2000/svg" xml:space="preserve" width="129.436mm" height="197.988mm" version="1.1" style="shape-rendering:geometricPrecision; text-rendering:geometricPrecision; image-rendering:optimizeQuality; fill-rule:evenodd; clip-rule:evenodd"
viewBox="0 0 1729.6 2645.64"
 xmlns:xlink="http://www.w3.org/1999/xlink"
 xmlns:xodm="http://www.corel.com/coreldraw/odm/2003">
 <defs>
  <style type="text/css">
   <![CDATA[
    .fil0 {fill:none}
    .fil3 {fill:#501D33}
    .fil6 {fill:#623448}
    .fil4 {fill:#ADA5B7}
    .fil2 {fill:#D77D75}
    .fil1 {fill:#FFE0B3}
    .fil5 {fill:white}
   ]]>
  </style>
 </defs>
 <g id="Слой_x0020_1">
  <metadata id="CorelCorpID_0Corel-Layer"/>
  <rect id="_166536576" class="fil0" width="1729.6" height="2645.64"/>
  <g id="_846226864">
   <ellipse class="fil1" cx="1038.83" cy="949.98" rx="66.11" ry="19.09"/>
   <ellipse class="fil1" cx="679.26" cy="953.51" rx="66.11" ry="19.09"/>
   <path class="fil2" d="M565.43 1000.17c0,0 13.44,86.97 104.65,94.75 91.22,7.78 121.62,-42.78 132.23,-91.22 0,0 -84.15,-18.03 -89.1,-17.32 -4.95,0.71 -147.79,13.79 -147.79,13.79z"/>
   <path class="fil2" d="M1163.64 998.76c0,0 -13.79,89.8 -105.01,97.58 -91.22,7.78 -123.39,-44.19 -131.87,-94.04 0,0 84.15,-18.03 89.1,-17.32 4.95,0.71 147.79,13.79 147.79,13.79z"/>
   <path class="fil3" d="M795.82 1017.1c0,0 -9.64,73.35 -122.03,76.79 65.09,9.79 118.75,2.32 122.03,-76.79z"/>
   <path class="fil3" d="M929.74 1017.5c3.42,2.96 14.01,77.92 121.19,78.1 -62.74,10.84 -115.23,3.58 -121.19,-78.1z"/>
   <path class="fil3" d="M1156.48 1001.01c-14.17,54.18 -66.51,81.8 -117.49,78.18 -44.13,-3.12 -86.91,-30.53 -107.37,-73.59 0,0 139.3,-35 224.86,-4.6z"/>
   <path class="fil4" d="M1131.94 999.68c-20.58,79.46 -140.74,76.5 -175.08,3.83 0,0 108.46,-29.17 175.08,-3.83z"/>
   <path class="fil5" d="M1040.24 1011.92c34.09,0 60.74,6.19 60.74,17.32 0,11.13 -23.35,21.92 -57.44,21.92 -34.09,0 -62.06,-18.21 -62.06,-29.34 0,-11.13 24.67,-9.9 58.76,-9.9z"/>
   <g>
    <path class="fil3" d="M1087.01 1052.28c-26,-4.53 -45.76,-27.2 -45.76,-54.49 0,-2.61 0.19,-5.18 0.54,-7.7 31.1,-2.2 65.58,-1 92.99,9.42 -6.95,26.83 -25.25,44.24 -47.77,52.77z"/>
    <path class="fil6" d="M1118.61 1030.68c-6.3,4.23 -13.89,6.71 -22.05,6.71 -21.87,0 -39.59,-17.73 -39.59,-39.59 0,-2.92 0.32,-5.76 0.92,-8.5 26.52,-0.73 54.14,1.57 76.88,10.22 -3.21,12.37 -8.83,22.75 -16.16,31.17z"/>
    <path class="fil3" d="M1123.71 995.9c0.04,0.63 0.07,1.26 0.07,1.89 0,15.03 -12.19,27.22 -27.22,27.22 -15.03,0 -27.22,-12.19 -27.22,-27.22 0,-3.01 0.49,-5.9 1.39,-8.6 18.23,0.23 36.52,2.11 52.98,6.71z"/>
    <path class="fil5" d="M1080.4 1011.62c6.42,7.86 7.36,17.72 2.1,22.02 -5.26,4.3 -14.73,1.4 -21.16,-6.46 -12.67,-15.52 3.85,-34.19 19.06,-15.56z"/>
    <path class="fil5" d="M1126.09 1002.24c3.23,2 4.61,6.1 3.99,10.56 -1.87,4.11 -4.06,7.94 -6.51,11.48 -3.95,3.24 -8.79,4.18 -12.36,1.97 -4.9,-3.03 -5.53,-10.87 -1.42,-17.5 4.11,-6.63 11.41,-9.55 16.31,-6.51z"/>
   </g>
   <path class="fil3" d="M571 1001.01c13.66,49.27 62.17,79.56 111.27,78.12 45.92,-1.34 93.52,-29.08 113.59,-73.52 0,0 -139.3,-35 -224.86,-4.6z"/>
   <path class="fil4" d="M593.49 999.68c21.06,79.46 144.03,76.5 179.18,3.83 0,0 -111,-29.17 -179.18,-3.83z"/>
   <path class="fil5" d="M674.31 1012.63c34.09,0 60.74,6.19 60.74,17.32 0,11.13 -23.35,21.92 -57.44,21.92 -34.09,0 -62.06,-18.21 -62.06,-29.34 0,-11.13 24.67,-9.9 58.76,-9.9z"/>
   <g>
    <path class="fil3" d="M712.69 1053.64c-19.13,-8.71 -32.43,-27.98 -32.43,-50.37 0,-4.65 0.58,-9.16 1.65,-13.47 48.86,2.44 91.8,13.72 91.8,13.72 -12.3,25.43 -35.35,42.31 -61.03,50.12z"/>
    <path class="fil6" d="M737.21 1042.82c-0.54,0.02 -1.08,0.04 -1.62,0.04 -21.87,0 -39.59,-17.73 -39.59,-39.59 0,-4.31 0.69,-8.47 1.97,-12.36 41.85,3.69 75.76,12.6 75.76,12.6 -8.2,16.95 -21.17,30.1 -36.52,39.31z"/>
    <path class="fil3" d="M762.7 1000.92c0.07,0.78 0.1,1.56 0.1,2.35 0,15.03 -12.19,27.22 -27.22,27.22 -15.03,0 -27.22,-12.19 -27.22,-27.22 0,-3.94 0.84,-7.68 2.34,-11.05 22.02,2.55 40.81,6.24 52,8.7z"/>
    <path class="fil5" d="M722.69 1014.22c8.93,22.48 -14.62,29.18 -24.25,10.78 -14.39,-27.5 14.51,-35.31 24.25,-10.78z"/>
    <path class="fil5" d="M765.11 1007.72c1.74,1.08 2.95,2.77 3.59,4.8 -4.79,7.53 -10.58,14.17 -17.12,19.88 -0.47,-0.18 -0.92,-0.4 -1.35,-0.67 -4.9,-3.03 -5.53,-10.87 -1.42,-17.5 4.11,-6.63 11.41,-9.55 16.31,-6.51z"/>
   </g>
   <path class="fil3" d="M1184.41 1004.55c0,0 -160.16,-6.36 -269.76,2.12 0,0 22.98,-26.87 117.03,-30.76 94.04,-3.89 152.73,28.64 152.73,28.64z"/>
   <path class="fil3" d="M545.19 1004.55c0,0 152.73,-6.36 262.34,2.12 0,0 -21.92,-28.99 -119.15,-29.7 -97.23,-0.71 -143.19,27.58 -143.19,27.58z"/>
   <path class="fil2" d="M580.27 955.63c0,0 102.53,-63.64 212.13,12.02 0,0 -27.58,-57.98 -99,-60.1 -71.42,-2.12 -113.14,48.08 -113.14,48.08z"/>
   <path class="fil2" d="M1140.3 952.1c0,0 -102.53,-63.64 -212.13,12.02 0,0 27.58,-57.98 99,-60.1 71.42,-2.12 113.14,48.08 113.14,48.08z"/>
  </g>
 </g>
</svg>
