<?xml version="1.0" encoding="UTF-8"?>
<!DOCTYPE svg PUBLIC "-//W3C//DTD SVG 1.1//EN" "http://www.w3.org/Graphics/SVG/1.1/DTD/svg11.dtd">
<!-- Creator: CorelDRAW 2020 (64-Bit) -->
<svg xmlns="http://www.w3.org/2000/svg" xml:space="preserve" width="129.436mm" height="197.988mm" version="1.1" style="shape-rendering:geometricPrecision; text-rendering:geometricPrecision; image-rendering:optimizeQuality; fill-rule:evenodd; clip-rule:evenodd"
viewBox="0 0 1068.04 1633.69"
 xmlns:xlink="http://www.w3.org/1999/xlink"
 xmlns:xodm="http://www.corel.com/coreldraw/odm/2003">
 <defs>
  <style type="text/css">
   <![CDATA[
    .fil0 {fill:none}
    .fil3 {fill:#501D33}
    .fil4 {fill:#623448}
    .fil1 {fill:#ADA5B7}
    .fil2 {fill:#F9F9F9}
    .fil5 {fill:#FDFDFD}
   ]]>
  </style>
 </defs>
 <g id="Слой_x0020_1">
  <metadata id="CorelCorpID_0Corel-Layer"/>
  <rect id="_166536576" class="fil0" width="1068.04" height="1633.69"/>
  <g id="_830376496">
   <g>
    <path class="fil1" d="M586.29 658.62c0,0 26.85,15.39 66.04,10.48 39.19,-4.91 71.17,-46.72 71.17,-46.72 0,0 -37.11,-17.9 -69.86,-15.72 -32.75,2.18 -62.88,37.55 -67.35,51.96z"/>
    <path class="fil2" d="M592.83 657.53c0,0 21.07,12.55 63.75,7.1 42.68,-5.46 46.07,-30.35 46.07,-30.35 0,0 -68.34,-31.33 -109.82,23.25z"/>
    <g>
     <g>
      <ellipse class="fil3" cx="643.49" cy="640.07" rx="33.39" ry="32.94"/>
      <path class="fil4" d="M661.78 621.05c5.1,4.78 8.29,11.54 8.29,19.02 0,14.48 -11.9,26.22 -26.58,26.22 -11.54,0 -21.36,-7.26 -25.03,-17.4 4.77,4.46 11.2,7.2 18.29,7.2 14.68,0 26.58,-11.74 26.58,-26.22 0,-3.09 -0.55,-6.06 -1.54,-8.82z"/>
      <circle class="fil2" transform="matrix(1.46092 -1.10937 1.0264 0.996717 634.929 628.098)" r="9.04"/>
     </g>
     <ellipse class="fil5" transform="matrix(1.0066 -0.498018 0.498018 1.0066 656.606 659.822)" rx="7.22" ry="4.1"/>
    </g>
    <path class="fil3" d="M580.97 671.61c0,0 16.82,-39.94 59.56,-50.88 28.05,-7.19 47.23,-0.89 73.5,15.95 0,0 26.42,6.33 51.31,-29.47 0,0 -28.67,8.32 -52.4,0 -112.35,-39.38 -134.04,54.39 -131.97,64.41z"/>
    <path class="fil3" d="M710.76 630.67c0,0 -27.94,40.61 -108.29,34.5 16.43,8.5 39.23,10.66 61.16,7.92 33.27,-4.16 56.13,-27.26 84.46,-27.13 -14.34,-16 -37.33,-15.28 -37.33,-15.28z"/>
   </g>
   <g>
    <path class="fil1" d="M482.18 658.62c0,0 -26.85,15.39 -66.04,10.48 -39.19,-4.91 -71.17,-46.72 -71.17,-46.72 0,0 37.11,-17.9 69.86,-15.72 32.75,2.18 62.88,37.55 67.35,51.96z"/>
    <path class="fil2" d="M475.64 657.53c0,0 -21.07,12.55 -63.75,7.1 -42.68,-5.46 -46.07,-30.35 -46.07,-30.35 0,0 68.34,-31.33 109.82,23.25z"/>
    <g>
     <g>
      <ellipse class="fil3" cx="424.98" cy="640.07" rx="33.39" ry="32.94"/>
      <path class="fil4" d="M406.69 621.05c-5.1,4.78 -8.29,11.54 -8.29,19.02 0,14.48 11.9,26.22 26.58,26.22 11.54,0 21.36,-7.26 25.03,-17.4 -4.77,4.46 -11.2,7.2 -18.29,7.2 -14.68,0 -26.58,-11.74 -26.58,-26.22 0,-3.09 0.55,-6.06 1.54,-8.82z"/>
      <circle class="fil2" transform="matrix(-1.46092 -1.10937 -1.0264 0.996717 433.542 628.098)" r="9.04"/>
     </g>
     <ellipse class="fil5" transform="matrix(-1.0066 -0.498018 -0.498018 1.0066 411.865 659.822)" rx="7.22" ry="4.1"/>
    </g>
    <path class="fil3" d="M487.5 671.61c0,0 -16.82,-39.94 -59.56,-50.88 -28.05,-7.19 -47.23,-0.89 -73.5,15.95 0,0 -26.42,6.33 -51.31,-29.47 0,0 28.67,8.32 52.4,0 112.35,-39.38 134.04,54.39 131.97,64.41z"/>
    <path class="fil3" d="M357.71 630.67c0,0 27.94,40.61 108.29,34.5 -16.43,8.5 -39.23,10.66 -61.16,7.92 -33.27,-4.16 -56.13,-27.26 -84.46,-27.13 14.34,-16 37.33,-15.28 37.33,-15.28z"/>
   </g>
  </g>
 </g>
</svg>
