<?xml version="1.0" encoding="UTF-8"?>
<!DOCTYPE svg PUBLIC "-//W3C//DTD SVG 1.1//EN" "http://www.w3.org/Graphics/SVG/1.1/DTD/svg11.dtd">
<!-- Creator: CorelDRAW 2020 (64-Bit) -->
<svg xmlns="http://www.w3.org/2000/svg" xml:space="preserve" width="129.436mm" height="197.988mm" version="1.1" style="shape-rendering:geometricPrecision; text-rendering:geometricPrecision; image-rendering:optimizeQuality; fill-rule:evenodd; clip-rule:evenodd"
viewBox="0 0 947.26 1448.95"
 xmlns:xlink="http://www.w3.org/1999/xlink"
 xmlns:xodm="http://www.corel.com/coreldraw/odm/2003">
 <defs>
  <style type="text/css">
   <![CDATA[
    .fil0 {fill:none}
    .fil5 {fill:#298B45}
    .fil2 {fill:#501D33}
    .fil6 {fill:#87CE58}
    .fil3 {fill:#ADA5B7}
    .fil1 {fill:#D77D75}
    .fil4 {fill:white}
   ]]>
  </style>
 </defs>
 <g id="Слой_x0020_1">
  <metadata id="CorelCorpID_0Corel-Layer"/>
  <rect id="_166536576" class="fil0" width="947.26" height="1448.95"/>
  <g id="_846083616">
   <g>
    <path class="fil1" d="M311.14 567.02c-4.13,59.06 80.72,81.17 109.79,21.49 0,0 -57.51,-43.57 -109.79,-21.49z"/>
    <path class="fil2" d="M312.35 565.74c-5.78,35.37 64.87,71.94 107.85,19.66 -10.08,-71.67 -102.07,-55.03 -107.85,-19.66z"/>
    <path class="fil3" d="M321.22 562.24c-4.96,30.39 58.2,61.08 94.92,16.73 -10.21,-65.06 -89.95,-47.12 -94.92,-16.73z"/>
    <ellipse class="fil4" transform="matrix(1.06265 0.170654 -0 1.06265 363.015 576.856)" rx="32.77" ry="20.53"/>
    <g>
     <path class="fil2" d="M412.99 568.28c-3.53,16.4 -18.11,28.69 -35.56,28.69 -20.09,0 -36.37,-16.28 -36.37,-36.37 0,-8.48 2.9,-16.28 7.77,-22.47 22.85,-6.55 53.16,-0.63 64.16,30.16z"/>
     <path class="fil5" d="M400.63 548.76c1.82,3.55 2.84,7.58 2.84,11.84 0,14.38 -11.66,26.03 -26.03,26.03 -14.38,0 -26.03,-11.66 -26.03,-26.03 0,-11.56 7.53,-21.36 17.96,-24.76 11.27,0.66 22.51,4.59 31.27,12.92z"/>
     <path class="fil6" d="M377.2 560.26c9.76,0 17.67,5.44 17.67,12.15 0,6.71 -7.91,12.15 -17.67,12.15 -9.76,0 -17.67,-5.44 -17.67,-12.15 0,-6.71 7.91,-12.15 17.67,-12.15z"/>
     <path class="fil2" d="M377.44 542.7c9.88,0 17.9,8.01 17.9,17.9 0,9.88 -8.01,17.9 -17.9,17.9 -9.88,0 -17.9,-8.01 -17.9,-17.9 0,-9.88 8.01,-17.9 17.9,-17.9z"/>
     <path class="fil4" d="M359.41 545.84c6.1,0 11.04,5.41 11.04,12.09 0,6.68 -4.94,12.09 -11.04,12.09 -6.1,0 -11.04,-5.41 -11.04,-12.09 0,-6.68 4.94,-12.09 11.04,-12.09z"/>
     <path class="fil4" d="M396.85 563.52c3.22,1.99 3.64,7.15 0.94,11.51 -2.7,4.36 -7.5,6.28 -10.72,4.28 -3.22,-1.99 -3.64,-7.15 -0.94,-11.51 2.7,-4.36 7.5,-6.28 10.72,-4.28z"/>
    </g>
    <path class="fil2" d="M421.34 571.37c-3.22,-17.35 -13.2,-37.64 -40.24,-45.32 -36.36,-10.33 -65.04,8.02 -75.89,23.83 -9.36,13.65 -4.32,22.36 6.89,18.21 11.09,-22.85 43.29,-30.93 61.43,-27.58 26.69,4.93 36.79,21.47 42.8,42.93 1.48,5.29 3.83,8.58 4.73,8.08 1.99,-1.1 1.34,-14.5 0.29,-20.15z"/>
    <path class="fil2" d="M324.53 520.36c0,0 35.96,-23.43 84.38,5.34 0,0 -12.84,-21.68 -42.21,-23.69 -29.37,-2.01 -42.16,18.35 -42.16,18.35z"/>
   </g>
   <g>
    <path class="fil1" d="M636.89 567.02c4.13,59.06 -80.72,81.17 -109.79,21.49 0,0 57.51,-43.57 109.79,-21.49z"/>
    <path class="fil2" d="M635.68 565.74c5.78,35.37 -64.87,71.94 -107.85,19.66 10.08,-71.67 102.07,-55.03 107.85,-19.66z"/>
    <path class="fil3" d="M626.81 562.24c4.96,30.39 -58.2,61.08 -94.92,16.73 10.21,-65.06 89.95,-47.12 94.92,-16.73z"/>
    <ellipse class="fil4" transform="matrix(-1.06265 0.170654 -0 1.06265 585.016 576.856)" rx="32.77" ry="20.53"/>
    <g>
     <path class="fil2" d="M535.04 568.28c3.53,16.4 18.11,28.69 35.56,28.69 20.09,0 36.37,-16.28 36.37,-36.37 0,-8.48 -2.9,-16.28 -7.77,-22.47 -22.85,-6.55 -53.16,-0.63 -64.16,30.16z"/>
     <path class="fil5" d="M547.4 548.76c-1.82,3.55 -2.84,7.58 -2.84,11.84 0,14.38 11.66,26.03 26.03,26.03 14.38,0 26.03,-11.66 26.03,-26.03 0,-11.56 -7.53,-21.36 -17.96,-24.76 -11.27,0.66 -22.51,4.59 -31.27,12.92z"/>
     <path class="fil6" d="M570.83 560.26c-9.76,0 -17.67,5.44 -17.67,12.15 0,6.71 7.91,12.15 17.67,12.15 9.76,0 17.67,-5.44 17.67,-12.15 0,-6.71 -7.91,-12.15 -17.67,-12.15z"/>
     <path class="fil2" d="M570.6 542.7c-9.88,0 -17.9,8.01 -17.9,17.9 0,9.88 8.01,17.9 17.9,17.9 9.88,0 17.9,-8.01 17.9,-17.9 0,-9.88 -8.01,-17.9 -17.9,-17.9z"/>
     <path class="fil4" d="M588.62 545.84c-6.1,0 -11.04,5.41 -11.04,12.09 0,6.68 4.94,12.09 11.04,12.09 6.1,0 11.04,-5.41 11.04,-12.09 0,-6.68 -4.94,-12.09 -11.04,-12.09z"/>
     <path class="fil4" d="M551.18 563.52c-3.22,1.99 -3.64,7.15 -0.94,11.51 2.7,4.36 7.5,6.28 10.72,4.28 3.22,-1.99 3.64,-7.15 0.94,-11.51 -2.7,-4.36 -7.5,-6.28 -10.72,-4.28z"/>
    </g>
    <path class="fil2" d="M526.7 571.37c3.22,-17.35 13.2,-37.64 40.24,-45.32 36.36,-10.33 65.04,8.02 75.89,23.83 9.36,13.65 4.32,22.36 -6.89,18.21 -11.09,-22.85 -43.29,-30.93 -61.43,-27.58 -26.69,4.93 -36.79,21.47 -42.8,42.93 -1.48,5.29 -3.83,8.58 -4.73,8.08 -1.99,-1.1 -1.34,-14.5 -0.29,-20.15z"/>
    <path class="fil2" d="M623.5 520.36c0,0 -35.96,-23.43 -84.38,5.34 0,0 12.84,-21.68 42.21,-23.69 29.37,-2.01 42.16,18.35 42.16,18.35z"/>
   </g>
  </g>
 </g>
</svg>
