<?xml version="1.0" encoding="UTF-8"?>
<!DOCTYPE svg PUBLIC "-//W3C//DTD SVG 1.1//EN" "http://www.w3.org/Graphics/SVG/1.1/DTD/svg11.dtd">
<!-- Creator: CorelDRAW 2020 (64-Bit) -->
<svg xmlns="http://www.w3.org/2000/svg" xml:space="preserve" width="129.436mm" height="197.988mm" version="1.1" style="shape-rendering:geometricPrecision; text-rendering:geometricPrecision; image-rendering:optimizeQuality; fill-rule:evenodd; clip-rule:evenodd"
viewBox="0 0 851.03 1301.75"
 xmlns:xlink="http://www.w3.org/1999/xlink"
 xmlns:xodm="http://www.corel.com/coreldraw/odm/2003">
 <defs>
  <style type="text/css">
   <![CDATA[
    .fil0 {fill:none}
    .fil1 {fill:#501D33}
    .fil4 {fill:#623448}
    .fil2 {fill:#ADA5B7}
    .fil5 {fill:#FDFDFD}
    .fil3 {fill:white}
   ]]>
  </style>
 </defs>
 <g id="Слой_x0020_1">
  <metadata id="CorelCorpID_0Corel-Layer"/>
  <rect id="_166536576" class="fil0" width="851.03" height="1301.75"/>
  <g id="_846075360">
   <g>
    <path class="fil1" d="M387.8 528.03c0,0 -8.87,36.18 -49.75,41.32 0,0 30.62,-12.26 38.27,-40.01l3.39 -5.57 8.09 4.26z"/>
    <path class="fil2" d="M387.35 520.98c0,0 -33.05,-29.22 -94.63,-8.18l-6.26 3.13c0,0 15.83,29.75 52.36,27.31 36.53,-2.44 52.71,-18.44 52.71,-18.44l-4.18 -3.83z"/>
    <path class="fil3" d="M384.93 525.24c-17.8,13.78 -63.54,19.65 -82.81,-5.92 0,0 38.79,-10.61 82.81,5.92z"/>
    <g>
     <g>
      <path class="fil1" d="M323.72 507.25c-0.08,0.82 -0.12,1.66 -0.12,2.5 0,14.49 11.91,26.24 26.6,26.24 14.2,0 25.8,-10.97 26.56,-24.79 -12.06,-4.45 -29.86,-7.87 -53.05,-3.96z"/>
      <path class="fil4" d="M329.29 506.43c-0.17,1.08 -0.27,2.19 -0.27,3.32 0,11.54 9.48,20.89 21.18,20.89 9.2,0 17.02,-5.79 19.95,-13.87 -3.8,3.56 -8.93,5.74 -14.57,5.74 -10.22,0 -18.75,-7.14 -20.74,-16.65 -1.81,0.14 -3.66,0.33 -5.54,0.56z"/>
     </g>
     <path class="fil5" d="M341.38 522.2c-3.2,-1.58 -6.52,-1.39 -7.42,0.42 -0.9,1.82 0.97,4.57 4.16,6.15 3.2,1.58 6.52,1.39 7.42,-0.42 0.9,-1.82 -0.97,-4.57 -4.16,-6.15z"/>
    </g>
    <path class="fil1" d="M392.91 526.29c0,0 -21.92,-22.61 -70.63,-16 0,0 -19.83,4.52 -36.18,11.13 0,0 -18.44,-1.74 -17.74,-31.66 0,0 8,14.61 35.14,11.83 11.93,-1.22 27.03,-6.51 40.54,-6.82 20.04,-0.46 38.05,7.13 48.87,31.52z"/>
    <path class="fil1" d="M282.28 486.45c0,0 3.96,14.94 27.16,15.79l-18.11 7.75c0,0 -12.62,-4.49 -9.05,-23.54z"/>
    <path class="fil1" d="M290.37 513.76c0,0 28.53,46.27 98.46,13.22 0,0 -16.7,22.96 -53.93,22.61 -37.23,-0.35 -60.54,-35.84 -60.54,-35.84l16 0z"/>
    <path class="fil1" d="M389.63 508.2c0,0 -23.66,-40.18 -83.68,-22.09 16.4,-10.64 33.44,-15.38 50.15,-10.79 14.33,3.94 29.3,14.93 33.53,32.88z"/>
   </g>
   <g>
    <path class="fil1" d="M466.89 528.03c0,0 8.87,36.18 49.75,41.32 0,0 -30.62,-12.26 -38.27,-40.01l-3.39 -5.57 -8.09 4.26z"/>
    <path class="fil2" d="M467.34 520.98c0,0 33.05,-29.22 94.63,-8.18l6.26 3.13c0,0 -15.83,29.75 -52.36,27.31 -36.53,-2.44 -52.71,-18.44 -52.71,-18.44l4.18 -3.83z"/>
    <path class="fil3" d="M469.76 525.24c17.8,13.78 63.54,19.65 82.81,-5.92 0,0 -38.79,-10.61 -82.81,5.92z"/>
    <g>
     <g>
      <path class="fil1" d="M530.97 507.25c0.08,0.82 0.12,1.66 0.12,2.5 0,14.49 -11.91,26.24 -26.6,26.24 -14.2,0 -25.8,-10.97 -26.56,-24.79 12.06,-4.45 29.86,-7.87 53.05,-3.96z"/>
      <path class="fil4" d="M525.4 506.43c0.17,1.08 0.27,2.19 0.27,3.32 0,11.54 -9.48,20.89 -21.18,20.89 -9.2,0 -17.02,-5.79 -19.95,-13.87 3.8,3.56 8.93,5.74 14.57,5.74 10.22,0 18.75,-7.14 20.74,-16.65 1.81,0.14 3.66,0.33 5.54,0.56z"/>
     </g>
     <path class="fil5" d="M513.31 522.2c3.2,-1.58 6.52,-1.39 7.42,0.42 0.9,1.82 -0.97,4.57 -4.16,6.15 -3.2,1.58 -6.52,1.39 -7.42,-0.42 -0.9,-1.82 0.97,-4.57 4.16,-6.15z"/>
    </g>
    <path class="fil1" d="M461.78 526.29c0,0 21.92,-22.61 70.63,-16 0,0 19.83,4.52 36.18,11.13 0,0 18.44,-1.74 17.74,-31.66 0,0 -8,14.61 -35.14,11.83 -11.93,-1.22 -27.03,-6.51 -40.54,-6.82 -20.04,-0.46 -38.05,7.13 -48.87,31.52z"/>
    <path class="fil1" d="M572.41 486.45c0,0 -3.96,14.94 -27.16,15.79l18.11 7.75c0,0 12.62,-4.49 9.05,-23.54z"/>
    <path class="fil1" d="M564.32 513.76c0,0 -28.53,46.27 -98.46,13.22 0,0 16.7,22.96 53.93,22.61 37.23,-0.35 60.54,-35.84 60.54,-35.84l-16 0z"/>
    <path class="fil1" d="M465.06 508.2c0,0 23.66,-40.18 83.68,-22.09 -16.4,-10.64 -33.44,-15.38 -50.15,-10.79 -14.33,3.94 -29.3,14.93 -33.53,32.88z"/>
   </g>
  </g>
 </g>
</svg>
