<?xml version="1.0" encoding="UTF-8"?>
<!DOCTYPE svg PUBLIC "-//W3C//DTD SVG 1.1//EN" "http://www.w3.org/Graphics/SVG/1.1/DTD/svg11.dtd">
<!-- Creator: CorelDRAW 2020 (64-Bit) -->
<svg xmlns="http://www.w3.org/2000/svg" xml:space="preserve" width="129.436mm" height="197.989mm" version="1.1" style="shape-rendering:geometricPrecision; text-rendering:geometricPrecision; image-rendering:optimizeQuality; fill-rule:evenodd; clip-rule:evenodd"
viewBox="0 0 3813.37 5833.04"
 xmlns:xlink="http://www.w3.org/1999/xlink"
 xmlns:xodm="http://www.corel.com/coreldraw/odm/2003">
 <defs>
  <style type="text/css">
   <![CDATA[
    .fil0 {fill:none}
    .fil1 {fill:#501D33}
    .fil2 {fill:#88958A}
    .fil4 {fill:#AD8D60}
    .fil6 {fill:#AFC0A6}
    .fil7 {fill:#D6E6C6}
    .fil3 {fill:#DEDA81}
    .fil5 {fill:white}
   ]]>
  </style>
 </defs>
 <g id="Слой_x0020_1">
  <metadata id="CorelCorpID_0Corel-Layer"/>
  <g id="_2674587669648">
   <g id="_285110640">
    <rect id="_285111552" class="fil0" y="0" width="3813.37" height="5833.04"/>
    <g>
     <path id="_283867600" class="fil1" d="M3065.2 1822.64c0,0 -9.11,112.13 70.17,188.07l59.99 -18.82c0,0 8.13,-179.6 -2.45,-181.32 -10.58,-1.72 -127.78,11.67 -127.71,12.07z"/>
     <path id="_283857184" class="fil1" d="M3243.35 1760.26c0,0 -7.97,98.15 61.43,164.62l52.51 -16.47c0,0 7.11,-157.21 -2.14,-158.71 -9.26,-1.51 -111.85,10.21 -111.79,10.56z"/>
     <path id="_283857280" class="fil2" d="M3106.64 1851.69c0,0 -6.84,84.26 52.73,141.32l45.08 -14.14c0,0 6.11,-134.95 -1.84,-136.25 -7.95,-1.29 -96.02,8.76 -95.97,9.07z"/>
     <path id="_283857400" class="fil2" d="M3279.63 1785.68c0,0 -5.99,73.75 46.16,123.7l39.46 -12.38c0,0 5.35,-118.13 -1.61,-119.26 -6.96,-1.13 -84.05,7.67 -84,7.94z"/>
     <path id="_283857496" class="fil1" d="M3650.97 1843.83c0,0 -158.01,80.18 -221.48,373.66 -63.47,293.48 -103.56,537.49 -525.74,593.86 0,0 -91.57,-160.28 -48.46,-317.44 43.11,-157.16 490.25,-619.52 795.67,-650.08l0 0.01z"/>
     <path id="_283857616" class="fil3" d="M3510.95 1916.1c0,0 -74.56,35.75 -152.43,359.8 -77.88,324.06 -193.82,447.47 -497.61,486.8 0,0 -68.54,-88.53 -54.05,-237.86 14.49,-149.33 347.79,-600.52 704.09,-608.75l-0 0z"/>
     <path id="_283857712" class="fil4" d="M3529.99 1928.52c-0.53,0 -29.26,4.47 -81.25,77.91 -217.53,307.26 -107.03,668.07 -596.12,731.4 0,0 -60.25,-63.65 -45.75,-212.98 14.49,-149.33 366.83,-588.1 723.13,-596.33l0 -0z"/>
     <path id="_283857832" class="fil3" d="M3141.61 2288.43c0,0 15.73,188.75 -59.6,287.27 0,0 102.65,-91.89 117.55,-192.89 14.9,-101 -9.11,-143.22 -9.11,-143.22l-48.84 48.84z"/>
     <path id="_283857928" class="fil1" d="M2774.51 2183.91c0,0 307.61,-440.73 819.1,-412.27 13.18,0.74 187.5,15.23 109.01,71.6 -12.41,8.91 -507.24,253.1 -763.23,825.08 0,0 -122.4,-92.4 -158.64,-224.76 -36.24,-132.36 -6.23,-259.64 -6.23,-259.64l-0 -0z"/>
     <path id="_283858048" class="fil3" d="M3641.39 1824.73c0,0 -508.73,235.61 -719.66,751.74 0,0 -134.11,-90.95 -107.65,-308.92 0,0 312.13,-487.93 827.31,-442.81l0 -0z"/>
     <path id="_283858144" class="fil5" d="M3641.39 1824.73c0,0 -241.81,112 -461.13,350.71 49.04,-64.47 200.89,-253.29 345.47,-320.81 0,0 -83.16,-16.06 -325.18,63.48 122.07,-64.84 270.32,-108.32 440.83,-93.38l0 0z"/>
     <path id="_283858264" class="fil4" d="M3161.26 2196.54c-91.79,103.7 -178.24,229.95 -239.53,379.93 0,0 -134.11,-90.95 -107.65,-308.92 0,0 78.16,-122.18 220.82,-238.61 -0.75,50.71 20.78,120.47 126.37,167.61z"/>
     <path id="_283858360" class="fil1" d="M3163.14 2232.17c0,0 72.43,206.65 -105.08,366.22 181.9,-100.64 220.55,-262.28 163.28,-414.3l-58.2 48.08 0 0z"/>
     <path id="_283858480" class="fil1" d="M3064.83 1823.01c37.68,19.35 58.61,39.34 75.42,81.58 17.53,44.06 12.54,72.05 -6.35,106.11 31.4,27.61 58.27,43.6 100.95,27.86 7.25,-2.89 3.82,-1.21 10.45,-5.14 58.38,-34.65 48.82,-123.93 27.53,-177.44 -21.29,-53.53 -75.7,-124.99 -141.93,-110.03 -41.3,9.32 -61,39.06 -66.06,77.07z"/>
     <path id="_283858576" class="fil1" d="M3243.03 1760.58c32.98,16.93 51.31,34.44 66.02,71.41 15.34,38.57 10.98,63.07 -5.57,92.87 27.48,24.17 51.01,38.16 88.36,24.39 6.35,-2.52 3.35,-1.06 9.15,-4.5 51.11,-30.33 42.73,-108.47 24.1,-155.32 -18.64,-46.86 -66.26,-109.4 -124.24,-96.31 -36.15,8.16 -53.4,34.19 -57.83,67.46z"/>
     <path id="_283858696" class="fil6" d="M3133.63 1784.24c-10.52,4.19 -18.48,12.97 -23.72,24.94 24.73,12.69 49.65,42.5 65.18,81.55 16.54,41.56 18.15,82.79 6.73,108.92 13.65,7.01 27.23,8.82 39.14,4.07 33.5,-13.33 41.11,-73.28 17,-133.88 -24.11,-60.6 -70.84,-98.93 -104.34,-85.59z"/>
     <path id="_283858792" class="fil6" d="M3303.26 1726.64c-9.22,3.67 -16.18,11.36 -20.76,21.83 21.65,11.11 43.46,37.2 57.06,71.38 14.48,36.38 15.89,72.47 5.89,95.34 11.94,6.13 23.83,7.72 34.26,3.57 29.33,-11.67 35.99,-64.15 14.88,-117.19 -21.11,-53.04 -62,-86.59 -91.33,-74.92z"/>
     <path id="_283861744" class="fil7" d="M3133.63 1784.24c-10.54,4.19 -18.5,12.98 -23.72,24.94 17.66,9.07 35.43,26.86 49.8,50.53 30.5,-5.09 42.02,-27.61 46.38,-43.8 -23.15,-27.09 -50.61,-40.37 -72.45,-31.67z"/>
     <path id="_283861840" class="fil7" d="M3303.26 1726.64c-9.22,3.67 -16.2,11.36 -20.76,21.83 15.46,7.94 31.01,23.51 43.59,44.23 26.7,-4.46 36.78,-24.17 40.59,-38.34 -20.27,-23.71 -44.3,-35.33 -63.42,-27.73z"/>
     <path id="_283861984" class="fil2" d="M3187.59 1937.21c3.38,24.26 1.31,46.25 -5.77,62.43 13.65,7.02 27.23,8.83 39.14,4.07 27.73,-11.03 37.71,-54.02 26.66,-102.88 -22.99,18.63 -43.09,29.82 -60.03,36.38z"/>
     <path id="_283862080" class="fil2" d="M3350.48 1860.54c2.95,21.24 1.14,40.48 -5.05,54.65 11.95,6.14 23.83,7.73 34.25,3.56 24.27,-9.66 33.01,-47.29 23.34,-90.05 -20.12,16.3 -37.72,26.09 -52.54,31.84z"/>
    </g>
    <path id="_283862224" class="fil1" d="M180.43 1843.82c0,0 158.01,80.18 221.48,373.66 63.47,293.48 103.56,537.49 525.74,593.86 0,0 91.57,-160.28 48.46,-317.44 -43.11,-157.16 -490.25,-619.52 -795.67,-650.08l-0 0.01z"/>
    <path id="_283862368" class="fil3" d="M320.46 1916.1c0,0 74.56,35.75 152.43,359.8 77.88,324.06 193.82,447.47 497.61,486.8 0,0 68.54,-88.53 54.05,-237.86 -14.49,-149.33 -347.8,-600.52 -704.09,-608.75l0 0z"/>
    <path id="_283862488" class="fil4" d="M301.42 1928.52c0.53,0 29.26,4.47 81.25,77.91 217.53,307.26 107.03,668.07 596.12,731.4 0,0 60.25,-63.65 45.75,-212.98 -14.49,-149.33 -366.83,-588.1 -723.13,-596.33l0 -0z"/>
    <path id="_283862608" class="fil3" d="M689.8 2288.43c0,0 -15.73,188.75 59.61,287.27 0,0 -102.66,-91.89 -117.56,-192.89 -14.9,-101 9.11,-143.22 9.11,-143.22l48.84 48.84z"/>
    <path id="_283862704" class="fil1" d="M1056.88 2183.91c0,0 -292.7,-440.73 -830.73,-418.9 -33.33,1.36 -178.47,29.01 -107.34,84.86 12.01,9.43 517.2,246.46 773.19,818.44 0,0 122.4,-92.4 158.64,-224.76 36.24,-132.36 6.23,-259.64 6.23,-259.64l0 -0z"/>
    <path id="_283862848" class="fil3" d="M190.01 1824.73c0,0 508.73,235.61 719.66,751.74 0,0 134.11,-90.95 107.65,-308.92 0,0 -312.13,-487.93 -827.31,-442.81l0 -0z"/>
    <path id="_283862944" class="fil5" d="M190.01 1824.73c0,0 241.81,112 461.13,350.71 -49.04,-64.47 -200.89,-253.29 -345.47,-320.81 0,0 83.16,-16.06 325.18,63.48 -122.07,-64.84 -270.32,-108.32 -440.83,-93.38l-0 0z"/>
    <path id="_283863088" class="fil4" d="M670.14 2196.54c91.79,103.7 178.24,229.95 239.53,379.93 0,0 134.11,-90.95 107.65,-308.92 0,0 -78.16,-122.18 -220.82,-238.61 0.75,50.71 -20.78,120.47 -126.37,167.61z"/>
    <path id="_283863184" class="fil1" d="M668.27 2232.17c0,0 -72.43,206.65 105.08,366.22 -181.9,-100.64 -220.55,-262.28 -163.28,-414.3l58.2 48.08 0 0z"/>
   </g>
  </g>
 </g>
</svg>
