<?xml version="1.0" encoding="UTF-8"?>
<!DOCTYPE svg PUBLIC "-//W3C//DTD SVG 1.1//EN" "http://www.w3.org/Graphics/SVG/1.1/DTD/svg11.dtd">
<!-- Creator: CorelDRAW 2020 (64-Bit) -->
<svg xmlns="http://www.w3.org/2000/svg" xml:space="preserve" width="129.436mm" height="197.988mm" version="1.1" style="shape-rendering:geometricPrecision; text-rendering:geometricPrecision; image-rendering:optimizeQuality; fill-rule:evenodd; clip-rule:evenodd"
viewBox="0 0 1576.52 2411.48"
 xmlns:xlink="http://www.w3.org/1999/xlink"
 xmlns:xodm="http://www.corel.com/coreldraw/odm/2003">
 <defs>
  <style type="text/css">
   <![CDATA[
    .fil0 {fill:none}
    .fil1 {fill:#501D33}
    .fil4 {fill:#AD8D60}
    .fil5 {fill:#AEA478}
    .fil6 {fill:#D6D6A2}
    .fil2 {fill:#DEDA81}
    .fil3 {fill:white}
   ]]>
  </style>
 </defs>
 <g id="Слой_x0020_1">
  <metadata id="CorelCorpID_0Corel-Layer"/>
  <g id="_2674594390416">
   <g id="_285111432">
    <rect id="_119094200" class="fil0" width="1576.52" height="2411.48"/>
    <g>
     <path id="_124031416" class="fil1" d="M1231.48 806.33c0,0 286.29,-16.45 328.12,-4.45 41.82,12 -178.87,208.96 -178.87,208.96 0,0 -5.93,67.73 -9.35,78.02 -3.43,10.29 -74.74,68.57 -124.12,98.06 -49.37,29.49 -95.32,-250.98 -15.77,-380.58z"/>
     <path id="_124031512" class="fil2" d="M1241.09 838.56c0,0 255.78,-20.57 290.06,-15.77 0,0 -51.43,71.32 -176.92,172.8 0,0 -4.93,73.94 -6.3,76.34 -1.37,2.4 -50.32,54.76 -109.88,82.49 -56.35,26.24 -50.52,-243.79 3.03,-315.86z"/>
     <path id="_124031704" class="fil3" d="M1241.13 838.55c2.32,-0.19 255.88,-20.55 290.01,-15.77 0,0 -2.28,4.33 -18.01,12.63 -76.16,25.41 -192.47,74.04 -191.33,72.33 1.14,-1.71 131.08,-74.27 131.08,-74.27 0,0 -210.49,5.82 -212.2,5.82 0.13,-0.25 0.3,-0.49 0.44,-0.74z"/>
     <path id="_124031800" class="fil4" d="M1241.09 838.56l4.21 -0.33c9.78,18.66 36.01,56.23 94.53,73.38 79.54,23.31 -32.92,78.86 -63.77,88.46 -27.3,8.49 -33.14,37.36 -77.32,19.23 2.66,-69.82 17.27,-146.99 42.35,-180.74z"/>
     <path id="_124031920" class="fil4" d="M1530.19 822.68c0.32,0.04 0.67,0.07 0.96,0.11 0,0 -60.34,62.4 -185.83,163.89 0,0 -7.67,71.89 -9.04,74.28 -1.37,2.4 -38.66,65.73 -98.22,93.46 -23.89,11.13 -36.6,-31.03 -39.24,-88.76l18.26 -101.94 76.12 -37.03 236.99 -104.01z"/>
     <path id="_124032016" class="fil2" d="M1291.71 942.92l5.46 43.48 -15.74 69.55 39.36 -66.4c0,0 -15.06,-38.33 -29.08,-46.63z"/>
     <polygon id="_124032136" class="fil1" points="1535.6,814.57 1207.48,953.08 1236.28,973.65 1540.05,827.58 "/>
     <path id="_124032232" class="fil1" d="M1290.46 941.42c2.74,4.11 18.51,33.6 20.57,41.83 2.06,8.23 -34.29,82.29 -34.29,82.29 0,0 55,-65.15 56.57,-78.53 1.57,-13.38 -18.17,-59.31 -18.17,-59.31l-24.69 13.71z"/>
    </g>
    <path id="_124032400" class="fil1" d="M345.03 806.33c0,0 -287.32,-13.03 -325.72,-2.74 -38.4,10.29 178.19,205.19 178.19,205.19 0,0 4.21,69.79 7.64,80.07 3.43,10.29 74.74,68.57 124.12,98.06 49.37,29.49 95.32,-250.98 15.77,-380.58z"/>
    <path id="_124017616" class="fil2" d="M335.43 838.56c0,0 -255.78,-20.57 -290.06,-15.77 0,0 51.43,71.32 176.92,172.8 0,0 4.93,73.94 6.3,76.34 1.37,2.4 50.32,54.76 109.88,82.49 56.35,26.24 50.52,-243.79 -3.03,-315.86z"/>
    <path id="_124017856" class="fil3" d="M335.38 838.55c-2.32,-0.19 -255.88,-20.55 -290.01,-15.77 0,0 2.28,4.33 18.01,12.63 76.16,25.41 192.47,74.04 191.33,72.33 -1.14,-1.71 -131.08,-74.27 -131.08,-74.27 0,0 210.49,5.82 212.2,5.82 -0.13,-0.25 -0.3,-0.49 -0.44,-0.74z"/>
    <path id="_124525168" class="fil4" d="M335.43 838.56l-4.21 -0.33c-9.78,18.66 -36.01,56.23 -94.53,73.38 -79.54,23.31 32.92,78.86 63.77,88.46 27.3,8.49 33.14,37.36 77.32,19.23 -2.66,-69.82 -17.27,-146.99 -42.35,-180.74z"/>
    <path id="_124525384" class="fil4" d="M46.33 822.68c-0.32,0.04 -0.67,0.07 -0.96,0.11 0,0 60.34,62.4 185.83,163.89 0,0 7.67,71.89 9.04,74.28 1.37,2.4 38.66,65.73 98.22,93.46 23.89,11.13 36.6,-31.03 39.24,-88.76l-18.26 -101.94 -76.12 -37.03 -236.99 -104.01z"/>
    <path id="_124511296" class="fil2" d="M259.25 1093.93l3.08 -53.39 -25.67 32.86c0,0 22.93,20.19 22.59,20.54z"/>
    <path id="_124511536" class="fil2" d="M284.81 942.92l-5.46 43.48 15.74 69.55 -39.36 -66.4c0,0 15.06,-38.33 29.08,-46.63z"/>
    <polygon id="_124511824" class="fil1" points="40.91,814.57 369.03,953.08 340.23,973.65 36.46,827.58 "/>
    <path id="_124512064" class="fil1" d="M286.05 941.42c-2.74,4.11 -18.51,33.6 -20.57,41.83 -2.06,8.23 34.29,82.29 34.29,82.29 0,0 -55,-65.15 -56.57,-78.53 -1.57,-13.38 18.17,-59.31 18.17,-59.31l24.69 13.71z"/>
    <path id="_285640456" class="fil1" d="M213.05 1078.19c1.71,-1.03 50.31,-38.67 50.31,-38.67l-28.07 63.32 -22.25 -24.64z"/>
    <polygon id="_285642640" class="fil1" points="268.49,820.13 255.49,869.07 301.01,825.6 "/>
    <g>
     <path id="_124529368" class="fil1" d="M153.97 979.63l-12.24 -107.38 70.99 35.93c-11.14,22.16 -28.65,55.05 -40.61,73.88 -11.81,18.59 -16.17,14.79 -18.13,-2.43z"/>
     <path id="_124529608" class="fil5" d="M164.62 956.67l-3.13 -72.64 35.82 16.9c-7.19,17.26 -20.78,45.18 -27.35,55.54 -5.85,9.21 -4.98,8.74 -5.34,0.2z"/>
    </g>
    <g>
     <path id="_124530208" class="fil1" d="M227.38 739.21l2.46 121.14c0.07,3.53 -57.05,12.71 -81.96,-16.86 3.12,-8.52 36.57,-77.58 58.66,-109.99 14.48,-21.25 20.43,-14.43 20.84,5.71z"/>
     <path id="_124528504" class="fil6" d="M213.3 759.07l0.81 89.74c0.01,1.75 -32.64,4.29 -47.02,-8.68 1.55,-4.22 29.02,-64.95 39.97,-81.02 7.17,-10.53 6.15,-10.01 6.24,-0.04z"/>
     <path id="_124528720" class="fil5" d="M213.91 826.15l0.21 22.66c0.01,1.75 -32.64,4.29 -47.02,-8.68 0.52,-1.43 4.04,-9.38 8.87,-19.87 8.45,4.98 20.61,8.15 37.94,5.89z"/>
     <polygon id="_124530472" class="fil1" points="183.79,853.97 199.2,794.92 199.56,858.5 "/>
    </g>
   </g>
  </g>
 </g>
</svg>
