<?xml version="1.0" encoding="UTF-8"?>
<!DOCTYPE svg PUBLIC "-//W3C//DTD SVG 1.1//EN" "http://www.w3.org/Graphics/SVG/1.1/DTD/svg11.dtd">
<!-- Creator: CorelDRAW 2020 (64-Bit) -->
<svg xmlns="http://www.w3.org/2000/svg" xml:space="preserve" width="129.436mm" height="197.989mm" version="1.1" style="shape-rendering:geometricPrecision; text-rendering:geometricPrecision; image-rendering:optimizeQuality; fill-rule:evenodd; clip-rule:evenodd"
viewBox="0 0 1711.6 2618.12"
 xmlns:xlink="http://www.w3.org/1999/xlink"
 xmlns:xodm="http://www.corel.com/coreldraw/odm/2003">
 <defs>
  <style type="text/css">
   <![CDATA[
    .fil0 {fill:none}
    .fil1 {fill:#501D33}
    .fil3 {fill:#7E5E4F}
    .fil2 {fill:#AD8D60}
    .fil4 {fill:#DEDA81}
    .fil5 {fill:white}
   ]]>
  </style>
 </defs>
 <g id="Слой_x0020_1">
  <metadata id="CorelCorpID_0Corel-Layer"/>
  <g id="_2674532119632">
   <g id="_122216136">
    <rect id="_285110304" class="fil0" y="0" width="1711.6" height="2618.12"/>
    <g>
     <g>
      <g>
       <path id="_283860376" class="fil1" d="M1544.34 951.08c-16.96,35.63 -29.11,69.71 -29.8,107.97 -0.78,43.82 5.52,45.99 -36.84,44.19 18.97,18.36 37.86,25.23 17.99,46.9 -8.29,9.04 -15.72,17.15 -21.99,20.59 -23.7,13 -45.18,29.48 -42.96,58.68 2.97,39.14 -14.24,75.75 -59.85,76.12 -17.01,0.14 -31.67,-6.44 -43.26,-18.1 -25.74,-25.89 -39.2,-74.85 -44.71,-102.3 -6.11,-30.41 -10.09,-69.4 -4.37,-100.07 5.9,-31.65 33.55,-59.25 57.99,-78.76 18.32,-14.63 38.41,-27.64 58.83,-39.23 7.07,-4.02 14.24,-7.89 21.5,-11.57 3.47,-1.76 7.29,-3.77 10.9,-5.22 4.97,-2 12.82,-3.45 18.13,-4.65 9.9,-2.25 19.82,-4.41 29.74,-6.55 15.21,-3.29 30.44,-6.53 45.67,-9.72l29.48 -6.18 -6.44 27.91z"/>
       <path id="_283860472" class="fil2" d="M1509.85 950.97c0,0 -17.86,67.53 -18.58,108.34 -0.19,10.63 0.31,20.55 0.46,29.8l-44.2 0.61 36.1 42.21c-4.62,7.5 -11.74,14.28 -22.68,20.36 -38.98,21.7 -51.98,41.84 -49.81,70.77 3.27,43.65 -46,80.06 -78.31,30.81 -26.8,-40.85 -40.04,-123.7 -32.14,-166.67 10.83,-58.89 125.62,-114.68 130.67,-116.75 5.05,-2.07 78.5,-19.48 78.5,-19.48l0 0z"/>
       <path id="_283860592" class="fil3" d="M1491.87 1025.38c0,0 -4.42,31.19 -22.04,64.03l-22.3 0.31 12.98 15.18c-18.75,27.83 -48.09,53.5 -93.49,58.71 0,0 34.18,-16.72 47.19,-56.48 0,0 -15.61,-13.01 -75.43,3.34 -59.82,16.35 -1.11,-79.52 7.8,-84.35 8.92,-4.83 28.61,-22.29 50.53,-28.61 21.92,-6.32 98.47,2.97 94.75,27.87z"/>
       <path id="_283860688" class="fil4" d="M1509.85 950.97c0,0 -17.86,67.53 -18.58,108.34 -0.19,10.63 0.31,20.55 0.46,29.8l-7.02 0.1c1.07,-10.82 0.78,-22.34 0.99,-34.37 0.64,-36.55 22.86,-67.93 24.15,-103.86zm-26.22 180.96c-4.62,7.5 -11.74,14.28 -22.68,20.36 -38.98,21.7 -51.98,41.84 -49.81,70.77 3.06,40.91 -40.01,75.46 -72.04,39.09 26.64,9.55 59.89,-10.59 60.89,-49.86 0.74,-29 10.83,-47.96 49.81,-69.66 11.52,-6.41 19.31,-13.62 24.59,-21.51l9.24 10.8z"/>
       <path id="_283860808" class="fil1" d="M1393.57 1048.66c0,0 46.8,61.74 -28.52,115.12 70.99,-23.67 78.64,-88.77 55.37,-140.55l-26.85 25.44 0 -0z"/>
       <path id="_283860904" class="fil1" d="M1392.89 883.04c57.76,-24.77 154.24,-65.59 203.23,-74.88 9.84,-1.87 18.14,3.4 22.7,7.57 28.14,25.69 -1.37,72.16 -25.63,88.55 -7.03,13.58 -18.05,25.67 -26.23,38.42 -9.05,14.12 -25.16,38.51 -42.41,42.46 -5.4,1.24 -11.01,1.47 -16.51,0.78 0.04,9.99 -0.53,22.92 -6.26,30.52 -2.11,2.8 -3.9,5.77 -6.11,8.6 -4.47,5.72 -9.6,10.78 -15.28,15.29 -41.9,33.26 -110.01,29.89 -143.56,76.3 -5.07,7.02 -12.3,3.75 -21.22,3.8 -25.52,0.14 -35.51,-37.92 -39.42,-57.37 -6.41,-31.91 -6.75,-67.88 -1.21,-99.91 2.86,-16.51 7.43,-32.88 14.26,-48.21l1.33 -10.51c41.67,-1.66 64.07,-4.99 102.31,-21.4l0 0z"/>
       <path id="_283844248" class="fil4" d="M1308.49 925.49c53.71,1.66 69.02,-6 117.99,-27.25 59.63,-25.88 139.43,-60 157.27,-65.11 29.27,-8.38 27.81,36.66 -13.17,61.8 0,0 -35.14,69.5 -53.42,73.68 -18.28,4.19 -54.52,-48.21 -54.52,-48.21 0,0 28.92,76.99 23.81,83.8 -5.12,6.8 -16.09,30.87 -76.05,45 0,0 -58.5,12.03 -80.44,42.38 -21.94,30.35 -56.38,-87.73 -21.46,-166.08z"/>
       <path id="_283844632" class="fil2" d="M1364.41 1016.09c0,0 59.82,10.03 108.5,-17.09 0,0 -11.89,37.53 -79.15,47.93 -67.26,10.4 -29.35,-30.84 -29.35,-30.84z"/>
       <path id="_283845328" class="fil2" d="M1308.49 925.49c26.38,0.81 43.49,-0.62 59.88,-4.8 -0.86,32.58 2.9,93.53 38.62,129.28 -12.78,3.09 -58.28,15.65 -77.04,41.61 -21.94,30.35 -56.38,-87.73 -21.46,-166.08l0 -0z"/>
       <path id="_283845712" class="fil5" d="M1330.23 925.59c37.3,-1.04 54.6,-9.27 96.25,-27.35 59.63,-25.88 139.43,-60 157.27,-65.11 21.53,-6.16 26.43,16.57 11.22,39.02 -23.68,-29.02 -133.43,21.56 -181.85,43.17 -48.42,21.62 -80.47,11.56 -80.47,11.56 -0.85,-0.43 -1.62,-0.87 -2.42,-1.3z"/>
       <path id="_283846408" class="fil4" d="M1394.88 1109.56c0,0 -1.94,32.11 -30.01,40.18 -28.08,8.07 18.72,-39.53 30.01,-40.18z"/>
      </g>
      <g>
       <path id="_283847536" class="fil1" d="M167.26 951.08c16.96,35.63 29.11,69.71 29.8,107.97 0.42,23.44 -3.53,50.1 4.69,72.42 6.58,17.88 19.56,30.15 36.16,39.26 23.7,13 45.18,29.48 42.96,58.68 -2.97,39.14 14.24,75.75 59.85,76.12 17.01,0.14 31.67,-6.44 43.26,-18.1 25.74,-25.89 39.2,-74.85 44.71,-102.3 6.11,-30.41 10.09,-69.4 4.37,-100.07 -5.9,-31.65 -33.55,-59.25 -57.99,-78.76 -18.32,-14.63 -38.41,-27.64 -58.83,-39.23 -7.07,-4.02 -14.24,-7.89 -21.5,-11.57 -3.47,-1.76 -7.29,-3.77 -10.9,-5.22 -4.97,-2 -12.82,-3.45 -18.13,-4.65 -9.9,-2.25 -19.82,-4.41 -29.74,-6.55 -15.21,-3.29 -30.44,-6.53 -45.67,-9.72l-29.48 -6.18 6.44 27.91z"/>
       <path id="_283847632" class="fil2" d="M201.76 950.97c0,0 17.86,67.53 18.58,108.34 0.72,40.81 -8.66,71.29 30.32,92.99 38.98,21.7 51.98,41.84 49.81,70.77 -3.27,43.65 46,80.06 78.32,30.81 26.8,-40.85 40.04,-123.7 32.14,-166.67 -10.83,-58.89 -125.62,-114.68 -130.67,-116.75 -5.05,-2.07 -78.5,-19.48 -78.5,-19.48l0 0z"/>
       <path id="_283848328" class="fil3" d="M219.74 1025.38c0,0 17.84,125.97 124.85,138.23 0,0 -34.19,-16.72 -47.19,-56.48 0,0 15.61,-13.01 75.43,3.34 59.82,16.35 1.11,-79.52 -7.8,-84.35 -8.92,-4.83 -28.61,-22.29 -50.54,-28.61 -21.92,-6.32 -98.47,2.97 -94.75,27.87z"/>
       <path id="_283855456" class="fil4" d="M201.76 950.97c0,0 17.86,67.53 18.58,108.34 0.72,40.81 -8.66,71.29 30.32,92.99 38.98,21.7 51.98,41.84 49.81,70.77 -3.06,40.91 40.02,75.46 72.04,39.09 -26.64,9.55 -59.9,-10.59 -60.89,-49.86 -0.74,-29 -10.83,-47.96 -49.81,-69.66 -38.98,-21.7 -35.28,-52.54 -35.9,-87.8 -0.64,-36.55 -22.86,-67.93 -24.15,-103.86z"/>
       <path id="_283855624" class="fil1" d="M318.03 1048.66c0,0 -46.8,61.74 28.52,115.12 -70.99,-23.67 -78.64,-88.77 -55.37,-140.55l26.85 25.44 0 -0z"/>
       <path id="_283855720" class="fil1" d="M318.71 883.04c-57.76,-24.77 -154.24,-65.59 -203.23,-74.88 -9.84,-1.87 -18.14,3.4 -22.7,7.57 -28.14,25.69 1.37,72.16 25.63,88.55 7.03,13.58 18.05,25.67 26.23,38.42 11.91,18.57 66.24,81.51 86.57,97.64 41.9,33.26 110.01,29.89 143.56,76.3 5.07,7.02 12.3,3.75 21.22,3.8 25.52,0.14 35.51,-37.92 39.42,-57.37 6.41,-31.91 6.75,-67.88 1.21,-99.91 -2.86,-16.51 -7.43,-32.88 -14.26,-48.21l-1.33 -10.51c-41.67,-1.66 -64.07,-4.99 -102.32,-21.4l-0 0z"/>
       <path id="_283855840" class="fil4" d="M403.12 925.49c-53.71,1.66 -69.02,-6 -117.99,-27.25 -59.63,-25.88 -139.43,-60 -157.27,-65.11 -29.27,-8.38 -27.81,36.66 13.17,61.8 24.25,47.95 55.64,88.1 89.75,117.18 9.95,8.48 25.47,26.49 70.44,37.09 0,0 58.5,12.03 80.44,42.38 21.94,30.35 56.38,-87.73 21.46,-166.08l0 -0z"/>
       <path id="_283855936" class="fil2" d="M347.2 1016.09c0,0 -59.82,10.03 -108.5,-17.09 0,0 11.89,37.53 79.15,47.93 67.26,10.4 29.35,-30.84 29.35,-30.84z"/>
       <path id="_283856056" class="fil2" d="M403.12 925.49c-26.38,0.81 -43.49,-0.62 -59.88,-4.8 0.86,32.58 -2.9,93.53 -38.62,129.28 12.78,3.09 58.28,15.65 77.04,41.61 21.94,30.35 56.38,-87.73 21.46,-166.08l0 -0z"/>
       <path id="_283856152" class="fil5" d="M381.38 925.59c-37.3,-1.04 -54.6,-9.27 -96.25,-27.35 -59.63,-25.88 -139.43,-60 -157.27,-65.11 -21.53,-6.16 -26.43,16.57 -11.22,39.02 23.68,-29.02 133.43,21.56 181.85,43.17 48.42,21.62 80.47,11.56 80.47,11.56 0.85,-0.43 1.62,-0.87 2.42,-1.3z"/>
       <path id="_283856272" class="fil4" d="M316.73 1109.56c0,0 1.94,32.11 30.01,40.18 28.08,8.07 -18.72,-39.53 -30.01,-40.18z"/>
      </g>
     </g>
     <polygon id="_283856464" class="fil1" points="1478.23,1159.02 1433.08,1126.05 1460.38,1174.13 "/>
    </g>
   </g>
  </g>
 </g>
</svg>
