<?xml version="1.0" encoding="UTF-8"?>
<!DOCTYPE svg PUBLIC "-//W3C//DTD SVG 1.1//EN" "http://www.w3.org/Graphics/SVG/1.1/DTD/svg11.dtd">
<!-- Creator: CorelDRAW 2020 (64-Bit) -->
<svg xmlns="http://www.w3.org/2000/svg" xml:space="preserve" width="129.436mm" height="197.988mm" version="1.1" style="shape-rendering:geometricPrecision; text-rendering:geometricPrecision; image-rendering:optimizeQuality; fill-rule:evenodd; clip-rule:evenodd"
viewBox="0 0 851.6 1302.62"
 xmlns:xlink="http://www.w3.org/1999/xlink"
 xmlns:xodm="http://www.corel.com/coreldraw/odm/2003">
 <defs>
  <style type="text/css">
   <![CDATA[
    .fil0 {fill:none}
    .fil1 {fill:#501D33}
    .fil3 {fill:#88958A}
    .fil7 {fill:#9B6858}
    .fil2 {fill:#AFC0A6}
    .fil5 {fill:#B78F6F}
    .fil6 {fill:#D5BC86}
    .fil4 {fill:#D6E6C6}
   ]]>
  </style>
 </defs>
 <g id="Слой_x0020_1">
  <metadata id="CorelCorpID_0Corel-Layer"/>
  <g id="_2674682294768">
   <rect id="_119094200" class="fil0" width="851.6" height="1302.62"/>
   <path id="_124031416" class="fil1" d="M665.22 435.56c0,0 154.65,-8.89 177.24,-2.41 22.59,6.48 -96.62,112.87 -96.62,112.87 0,0 -3.2,36.59 -5.05,42.14 -1.85,5.56 -40.38,37.04 -67.05,52.97 -26.67,15.93 -51.49,-135.57 -8.52,-205.58z"/>
   <path id="_124031512" class="fil2" d="M670.4 452.97c0,0 138.16,-11.11 156.69,-8.52 0,0 -27.78,38.52 -95.57,93.34 0,0 -2.66,39.94 -3.4,41.24 -0.74,1.29 -27.18,29.58 -59.35,44.56 -30.44,14.17 -27.29,-131.69 1.63,-170.62z"/>
   <path id="_124031920" class="fil3" d="M826.57 444.39c0.17,0.02 0.36,0.04 0.52,0.06 0,0 -32.6,33.71 -100.38,88.53 0,0 -4.14,38.83 -4.88,40.13 -0.74,1.29 -20.88,35.51 -53.05,50.48 -12.91,6.01 -19.77,-16.76 -21.2,-47.94l9.86 -55.06 41.12 -20 128.02 -56.19z"/>
   <path id="_124031704" class="fil4" d="M670.43 452.97c1.25,-0.1 138.22,-11.1 156.66,-8.52 0,0 -1.23,2.34 -9.73,6.82 -41.14,13.73 -103.97,39.99 -103.35,39.07 0.62,-0.92 60.36,-37.51 60.36,-37.51 0,0 -103.26,0.53 -104.18,0.53 0.07,-0.14 0.16,-0.26 0.24,-0.4z"/>
   <path class="fil5" d="M777.87 493.78c1.22,0 2.42,0.08 3.6,0.23 -8.95,8.56 -19.33,18.02 -31.23,28.2 -0.01,-0.27 -0.01,-0.53 -0.01,-0.8 0,-15.26 12.37,-27.63 27.63,-27.63zm-75.65 -43.25c24.76,-1.83 59.3,-4.24 86.11,-5.54 -6.17,18.49 -23.62,31.82 -44.18,31.82 -18.45,0 -34.38,-10.72 -41.92,-26.28zm34.74 48.91c3.97,0 7.18,3.21 7.18,7.18 0,3.97 -3.21,7.18 -7.18,7.18 -3.97,0 -7.18,-3.21 -7.18,-7.18 0,-3.97 3.21,-7.18 7.18,-7.18z"/>
   <path id="_124031704_0" class="fil6" d="M771.42 467.98c-7.62,2.92 -15.05,5.82 -21.9,8.51 -1.76,0.2 -3.56,0.31 -5.38,0.31 -2.63,0 -5.2,-0.22 -7.71,-0.64 17.17,-10.63 37.93,-23.34 37.93,-23.34l-70.75 0.36c-0.49,-0.87 -0.96,-1.76 -1.4,-2.67 24.76,-1.83 59.3,-4.24 86.11,-5.54 -3.11,9.33 -9.1,17.35 -16.9,23z"/>
   <path id="_124031800" class="fil3" d="M670.4 452.97l2.27 -0.18c5.28,10.08 19.45,30.37 51.06,39.64 42.97,12.59 -17.78,42.6 -34.45,47.78 -14.75,4.59 -17.9,20.18 -41.76,10.39 1.44,-37.72 9.33,-79.4 22.87,-97.63z"/>
   <path id="_124031920_1" class="fil7" d="M773.1 494.19c-6.51,5.64 -13.63,11.71 -21.34,18.17 3.24,-9.36 11.37,-16.44 21.34,-18.17zm-16.63 -19.04l12.36 -5.43c-3.79,2.37 -7.95,4.22 -12.36,5.43zm-19.5 24.28c3.97,0 7.18,3.21 7.18,7.18 0,3.97 -3.21,7.18 -7.18,7.18 -3.97,0 -7.18,-3.21 -7.18,-7.18 0,-3.97 3.21,-7.18 7.18,-7.18z"/>
   <path id="_124032016" class="fil2" d="M697.75 509.34l2.95 23.49 -8.5 37.57 21.26 -35.87c0,0 -8.13,-20.71 -15.71,-25.19z"/>
   <polygon id="_124032136" class="fil1" points="829.5,440.01 652.25,514.83 667.81,525.94 831.9,447.04 "/>
   <path id="_124032232" class="fil1" d="M697.07 508.53c1.48,2.22 10,18.15 11.11,22.6 1.11,4.44 -18.52,44.45 -18.52,44.45 0,0 29.71,-35.19 30.56,-42.42 0.85,-7.23 -9.82,-32.04 -9.82,-32.04l-13.33 7.41z"/>
   <path id="_124032400" class="fil1" d="M186.38 435.56c0,0 -155.2,-7.04 -175.95,-1.48 -20.74,5.56 96.25,110.84 96.25,110.84 0,0 2.28,37.7 4.13,43.25 1.85,5.56 40.38,37.04 67.05,52.97 26.67,15.93 51.49,-135.57 8.52,-205.58z"/>
   <path id="_124017616" class="fil2" d="M181.19 452.97c0,0 -138.16,-11.11 -156.69,-8.52 0,0 27.78,38.52 95.57,93.34 0,0 2.66,39.94 3.4,41.24 0.74,1.29 27.18,29.58 59.35,44.56 30.44,14.17 27.29,-131.69 -1.63,-170.62z"/>
   <path id="_124525384" class="fil3" d="M25.02 444.39c-0.17,0.02 -0.36,0.04 -0.52,0.06 0,0 32.6,33.71 100.38,88.53 0,0 4.14,38.83 4.88,40.13 0.74,1.29 20.88,35.51 53.05,50.48 12.91,6.01 19.77,-16.76 21.2,-47.94l-9.86 -55.06 -41.12 -20 -128.02 -56.19z"/>
   <path id="_124017616_2" class="fil5" d="M82.88 446.04c-27.27,-1.6 -51.37,-2.58 -58.37,-1.59 0,0 15.33,21.25 50.98,54.65 6.45,-9.88 10.21,-21.68 10.21,-34.36 0,-6.51 -0.99,-12.79 -2.83,-18.69zm-1.67 58.35c9.24,8.47 19.73,17.65 31.51,27.38 0.69,-2.17 1.06,-4.48 1.06,-6.87 0,-12.56 -10.18,-22.74 -22.74,-22.74 -3.52,0 -6.85,0.8 -9.83,2.23zm22.77 -30.3c6.61,0 11.97,5.36 11.97,11.97 0,6.61 -5.36,11.97 -11.97,11.97 -6.61,0 -11.97,-5.36 -11.97,-11.97 0,-6.61 5.36,-11.97 11.97,-11.97z"/>
   <path id="_124017856" class="fil4" d="M181.16 452.97c-1.25,-0.1 -138.22,-11.1 -156.66,-8.52 0,0 1.23,2.34 9.73,6.82 41.14,13.73 103.97,39.99 103.35,39.07 -0.62,-0.92 -64.72,-38.81 -64.72,-38.81 0,0 107.61,1.84 108.53,1.84 -0.07,-0.14 -0.16,-0.26 -0.24,-0.4z"/>
   <path id="_124017856_3" class="fil6" d="M35.71 444.06l-0.05 -0 -0.76 -0c-1,-0 -1.94,-0 -2.83,0.01l-0.66 0.01 -0.06 0 -1.09 0.02 -0.1 0 -0.6 0.01 -0.65 0.02 -0.74 0.03 -0.57 0.03c-0.28,0.01 -0.54,0.03 -0.8,0.05l-0.35 0.02c-0.29,0.02 -0.57,0.04 -0.83,0.07l-0.32 0.03c-0.24,0.02 -0.45,0.05 -0.66,0.08l-0.14 0.02 0 0 0 0 0.27 0.36c0.69,0.82 2.92,3 9.46,6.45 15.52,5.18 34.13,12.14 51.25,18.76 0.15,-1.74 0.22,-3.51 0.22,-5.29 0,-1.94 -0.09,-3.87 -0.26,-5.77 -7.41,-4.39 -12.57,-7.44 -12.57,-7.44l11.49 0.2c-0.41,-1.93 -0.9,-3.82 -1.48,-5.68 -18.72,-1.1 -35.95,-1.9 -47.17,-1.98zm63.16 31.18c5.85,2.29 11.34,4.47 16.24,6.41 -1.76,-4.43 -6.08,-7.55 -11.13,-7.55 -1.83,0 -3.56,0.41 -5.11,1.14z"/>
   <path id="_124525168" class="fil3" d="M181.19 452.97l-2.27 -0.18c-5.28,10.08 -19.45,30.37 -51.06,39.64 -42.97,12.59 17.78,42.6 34.45,47.78 14.75,4.59 17.9,20.18 41.76,10.39 -1.44,-37.72 -9.33,-79.4 -22.87,-97.63z"/>
   <path id="_124525384_4" class="fil7" d="M25.02 444.39l-0.38 0.04 -0.01 0 -0.01 0 -0.01 0 -0.01 0 -0.01 0 -0.01 0 -0.01 0 -0.01 0 -0.01 0 -0.01 0 -0.01 0 -0.01 0 -0.01 0 -0.01 0 -0.01 0 -0.01 0 -0.01 0 -0.01 0c0,0 17.63,18.23 53.91,49.68 3.74,-7.06 6.17,-14.91 6.98,-23.24l-60.38 -26.5zm62.98 57.98c7.84,6.69 16.42,13.88 25.74,21.53 -0.53,-12.09 -10.49,-21.73 -22.72,-21.73 -1.03,0 -2.04,0.07 -3.03,0.2zm27.8 -18.13l-18.49 -8.11c-3.2,2.15 -5.31,5.8 -5.31,9.94 0,6.61 5.36,11.97 11.97,11.97 6.61,0 11.97,-5.36 11.97,-11.97 0,-0.62 -0.05,-1.23 -0.14,-1.83z"/>
   <path id="_124511296" class="fil2" d="M140.04 590.91l1.66 -28.84 -13.87 17.75c0,0 12.39,10.91 12.2,11.09z"/>
   <path id="_124511536" class="fil2" d="M153.85 509.34l-2.95 23.49 8.5 37.57 -21.26 -35.87c0,0 8.13,-20.71 15.71,-25.19z"/>
   <polygon id="_124511824" class="fil1" points="22.1,440.01 199.34,514.83 183.79,525.94 19.69,447.04 "/>
   <path id="_124512064" class="fil1" d="M154.52 508.53c-1.48,2.22 -10,18.15 -11.11,22.6 -1.11,4.44 18.52,44.45 18.52,44.45 0,0 -29.71,-35.19 -30.56,-42.42 -0.85,-7.23 9.82,-32.04 9.82,-32.04l13.33 7.41z"/>
   <path id="_285640456" class="fil1" d="M115.08 582.41c0.92,-0.55 27.18,-20.89 27.18,-20.89l-15.16 34.2 -12.02 -13.31z"/>
   <polygon id="_285642640" class="fil1" points="145.03,443.01 138.01,469.45 162.6,445.97 "/>
  </g>
 </g>
</svg>
