<?xml version="1.0" encoding="UTF-8"?>
<!DOCTYPE svg PUBLIC "-//W3C//DTD SVG 1.1//EN" "http://www.w3.org/Graphics/SVG/1.1/DTD/svg11.dtd">
<!-- Creator: CorelDRAW 2020 (64-Bit) -->
<svg xmlns="http://www.w3.org/2000/svg" xml:space="preserve" width="129.436mm" height="197.988mm" version="1.1" style="shape-rendering:geometricPrecision; text-rendering:geometricPrecision; image-rendering:optimizeQuality; fill-rule:evenodd; clip-rule:evenodd"
viewBox="0 0 540.97 827.48"
 xmlns:xlink="http://www.w3.org/1999/xlink"
 xmlns:xodm="http://www.corel.com/coreldraw/odm/2003">
 <defs>
  <style type="text/css">
   <![CDATA[
    .fil0 {fill:none}
    .fil1 {fill:#501D33}
    .fil5 {fill:#AD8D60}
    .fil4 {fill:#BFCAB7}
    .fil3 {fill:#DEDA81}
    .fil2 {fill:white}
   ]]>
  </style>
 </defs>
 <g id="Слой_x0020_1">
  <metadata id="CorelCorpID_0Corel-Layer"/>
  <g id="_2674793762720">
   <rect id="_281932552" class="fil0" width="540.97" height="827.48"/>
   <path id="_124527280" class="fil1" d="M391.09 294.7c0,0 17.17,-15.87 36.86,-18.98 19.69,-3.11 53.81,28.62 91.64,-1.74 0,0 20.89,23.54 -21.67,54.72 -15.72,11.52 -19.36,30.38 -27.23,45.87 -7.07,13.91 -17.34,25.02 -42.01,28.89 0,0 -24.9,-9.96 -31.74,-51.21 -6.84,-41.25 -5.86,-57.54 -5.86,-57.54z"/>
   <path id="_124527136" class="fil2" d="M402.9 305.67c0,0 9.34,-20.17 27.61,-20.57 18.27,-0.4 48.57,25.79 87.04,-1.3 0,0 4.92,14.96 -22.42,36.06 -9.19,7.09 -14.34,13.79 -19.94,24.41 -7.64,14.48 -13.31,51.14 -56.9,52.07 0,0 -22.15,-7.47 -25.45,-55.5l-0.87 -6.81c0,0 0.86,-15.65 10.93,-28.36z"/>
   <path id="_124527136_0" class="fil3" d="M461.53 293.28c15.69,4.17 34.59,5.62 56.02,-9.48 0,0 4.92,14.96 -22.42,36.06 -2.54,1.96 -4.78,3.9 -6.8,5.89 -4.95,-4.8 -8.03,-11.52 -8.03,-18.96 0,-2.18 0.27,-4.29 0.76,-6.31 -1.52,0.42 -3.12,0.65 -4.77,0.65 -6.15,0 -11.57,-3.11 -14.77,-7.84zm22.91 36.7c-3.41,4.08 -6.26,8.63 -9.24,14.29 -0.3,0.57 -0.59,1.17 -0.89,1.8 -2.31,-1.74 -3.81,-4.51 -3.81,-7.63 0,-5.27 4.27,-9.54 9.54,-9.54 1.59,0 3.09,0.39 4.41,1.08zm-34.75 -38.12c2.56,0 4.63,2.07 4.63,4.63 0,2.56 -1.8,4.49 -4.35,4.49 -2.56,0 -6.29,-1.93 -6.29,-4.49 0,-2.56 3.46,-4.63 6.01,-4.63z"/>
   <path id="_124526944" class="fil0" d="M422.6 286.59c2.42,-0.88 5.05,-1.42 7.91,-1.48 18.12,-0.4 48.06,25.34 86.07,-0.64l-0.49 0.46c-19.65,18.16 -41.97,16.71 -58.2,10.87 -13.76,-4.95 -20.51,-10.54 -35.64,-8.71l0.35 -0.49z"/>
   <path id="_124526776" class="fil4" d="M402.9 305.67c0,0 6.59,-14.22 19.52,-19.02 3.58,14.02 11.64,17.05 11.64,17.05 13.3,-3.86 25.45,1.71 39.16,1.48 11.5,-0.19 17.64,-4.21 18.73,-3.22 1.23,1.12 -4.66,5.37 -18.47,7.95 -14.86,2.78 -28.55,0.7 -46.65,12.19 0,0 -20.39,0.4 -30.07,-6.24 1.52,-3.38 3.52,-6.89 6.14,-10.2zm114.68 -21.78c0.35,1.27 1.5,12.67 -24.61,32.82 -9.19,7.09 -14.34,13.79 -19.94,24.41 -7.64,14.48 -11.14,54.29 -54.74,55.21 0,0 -4.15,-1.4 -9.12,-6.88 -1.76,-25.73 -4.56,-50.37 6.35,-58.49 10.91,-8.12 33.02,-12.36 33.02,-12.36 31.21,-2.97 52.72,-5.86 69.04,-34.72z"/>
   <path id="_124526776_1" class="fil5" d="M480.4 304.54c6.91,-1.15 10.71,-3.33 11.55,-2.57 1,0.92 -2.72,3.9 -11.6,6.37 -0.03,-0.51 -0.05,-1.03 -0.05,-1.55 0,-0.76 0.03,-1.51 0.1,-2.25zm5.42 18.41c-2.13,-2.75 -3.73,-5.94 -4.65,-9.4 14.71,-4.21 26.51,-12.16 36.4,-29.65 0.35,1.27 1.5,12.67 -24.61,32.82 -2.69,2.08 -5.03,4.12 -7.14,6.23zm-13.91 20.51c-0.9,-1.46 -1.42,-3.17 -1.42,-5.01 0,-5.27 4.27,-9.54 9.54,-9.54 0.19,0 0.39,0.01 0.58,0.02 -2.7,3.55 -5.1,7.49 -7.58,12.2 -0.38,0.72 -0.75,1.5 -1.11,2.33z"/>
   <path id="_283867912" class="fil2" d="M428.56 328.27c0,0 6.18,11.48 5.96,15.18 -0.21,3.7 -2.52,18.83 -2.52,18.83 0,0 9.93,-12.02 10.76,-15.45 0.82,-3.43 -6.92,-19.91 -14.2,-18.55z"/>
   <path id="_283868032" class="fil1" d="M516 283.75c-25.31,37.49 -54.49,26.74 -82.78,35.75 -17.16,5.46 -26.93,15.22 -39.34,25.65l3.96 5.95c0,0 25.89,-26.69 52.64,-28.57 26.76,-1.88 51.78,-4.1 69.07,-39.63l-3.56 0.85z"/>
   <path id="_283868128" class="fil1" d="M424.82 324.35c0,0 12.16,11.43 14.36,17.42 2.2,5.98 -11.16,26.27 -11.16,26.27 0,0 16.07,-12.37 19.3,-20.8 3.23,-8.42 -14.12,-27.45 -14.12,-27.45l-8.38 4.57z"/>
   <path id="_283868248" class="fil1" d="M467.64 319.17c0,0 -10.93,14.72 -8.79,41.23 0,0 4.3,-25.42 19.4,-43.23l-2.98 -1.25 -7.63 3.25z"/>
   <path id="_283868392" class="fil1" d="M149.88 294.7c0,0 -17.17,-15.87 -36.86,-18.98 -19.69,-3.11 -53.81,28.62 -91.64,-1.74 0,0 -20.89,23.54 21.67,54.72 15.72,11.52 19.36,30.38 27.23,45.87 7.07,13.91 17.34,25.02 42.01,28.89 0,0 24.9,-9.96 31.74,-51.21 6.84,-41.25 5.86,-57.54 5.86,-57.54z"/>
   <path id="_283868488" class="fil2" d="M138.07 305.67c0,0 -9.34,-20.17 -27.61,-20.57 -18.27,-0.4 -48.57,25.79 -87.04,-1.3 0,0 -4.92,14.96 22.42,36.06 9.19,7.09 14.34,13.79 19.94,24.41 7.64,14.48 13.31,51.14 56.9,52.07 0,0 22.15,-7.47 25.45,-55.5l0.87 -6.81c0,0 -0.86,-15.65 -10.93,-28.36z"/>
   <path class="fil3" d="M50.5 322.34c12.14,0 21.98,9.84 21.98,21.98 0,3.59 -0.86,6.98 -2.39,9.97 -1.54,-3.86 -2.9,-7.32 -4.32,-10.01 -4.93,-9.35 -9.51,-15.66 -16.81,-21.88 0.51,-0.04 1.02,-0.05 1.53,-0.05zm61.75 -37.13c-0.59,-0.06 -1.18,-0.09 -1.79,-0.1 -5.02,-0.11 -10.95,1.79 -17.71,4.04 2.1,2.39 5.18,3.89 8.61,3.89 5.06,0 9.36,-3.28 10.88,-7.83zm-30.43 7.41c-16.15,4.64 -35.87,7.04 -58.4,-8.82 0,0 -3.92,11.94 14.72,29.52 2.3,-1.8 4.39,-3.88 6.19,-6.18 3.86,2.44 8.44,3.86 13.36,3.86 11.52,0 21.22,-7.79 24.13,-18.38zm9.53 3.45c3.47,0 6.29,2.82 6.29,6.29 0,3.47 -2.82,6.29 -6.29,6.29 -3.47,0 -6.29,-2.82 -6.29,-6.29 0,-3.47 2.82,-6.29 6.29,-6.29z"/>
   <path id="_283868824" class="fil4" d="M23.39 283.9c-0.35,1.27 -1.5,12.67 24.61,32.82 9.19,7.09 14.34,13.79 19.94,24.41 7.64,14.48 11.14,54.29 54.74,55.21 0,0 4.15,-1.4 9.12,-6.88 1.76,-25.73 4.56,-50.37 -6.35,-58.49 -10.91,-8.12 -33.02,-12.36 -33.02,-12.36 -31.21,-2.97 -52.72,-5.86 -69.04,-34.72zm114.68 21.78c0,0 -6.59,-14.22 -19.52,-19.02 -3.58,14.02 -11.64,17.05 -11.64,17.05 -13.3,-3.86 -25.45,1.71 -39.16,1.48 -11.5,-0.19 -17.64,-4.21 -18.73,-3.22 -1.23,1.12 4.66,5.37 18.47,7.95 14.86,2.78 28.55,0.7 46.65,12.19 0,0 20.39,0.4 30.07,-6.24 -1.52,-3.38 -3.52,-6.89 -6.14,-10.2z"/>
   <path id="_283868824_2" class="fil5" d="M23.39 283.9c-0.32,1.14 -1.27,10.48 17.54,27.01 1.22,-1.17 2.36,-2.43 3.4,-3.76 1.47,0.93 3.05,1.71 4.71,2.33 -9.88,-4.84 -18.29,-12.57 -25.65,-25.58zm31.61 38.91c5.17,5.16 8.94,10.74 12.94,18.32 1.28,2.44 2.45,5.59 3.71,9.16 0.53,-1.9 0.82,-3.9 0.82,-5.96 0,-10.6 -7.5,-19.44 -17.48,-21.52zm10.94 -13.19c3,-1.05 5.74,-2.65 8.1,-4.69 -2.06,0.19 -4.16,0.29 -6.29,0.26 -11.5,-0.19 -17.64,-4.21 -18.73,-3.22 -1.18,1.08 4.22,5.05 16.92,7.65zm31.7 -7.27l0 0.02c0,3.47 -2.82,6.29 -6.29,6.29 -3.12,0 -5.7,-2.26 -6.2,-5.24 4.17,-0.62 8.3,-1.16 12.49,-1.07z"/>
   <path id="_283868920" class="fil2" d="M112.41 328.27c0,0 -6.18,11.48 -5.96,15.18 0.21,3.7 2.52,18.83 2.52,18.83 0,0 -9.93,-12.02 -10.76,-15.45 -0.82,-3.43 6.92,-19.91 14.2,-18.55z"/>
   <path id="_283869040" class="fil1" d="M24.98 283.75c25.31,37.49 54.49,26.74 82.78,35.75 17.16,5.46 26.93,15.22 39.34,25.65l-3.96 5.95c0,0 -25.89,-26.69 -52.64,-28.57 -26.76,-1.88 -51.78,-4.1 -69.07,-39.63l3.56 0.85z"/>
   <path id="_283869136" class="fil1" d="M116.15 324.35c0,0 -12.16,11.43 -14.36,17.42 -2.2,5.98 11.16,26.27 11.16,26.27 0,0 -16.07,-12.37 -19.3,-20.8 -3.23,-8.42 14.12,-27.45 14.12,-27.45l8.38 4.57z"/>
   <path id="_283869256" class="fil1" d="M73.33 319.17c0,0 10.93,14.72 8.79,41.23 0,0 -4.3,-25.42 -19.4,-43.23l2.98 -1.25 7.63 3.25z"/>
   <circle class="fil5" transform="matrix(1 -0.357164 -0 1 451.29 370.852)" r="7.19"/>
   <ellipse class="fil3" cx="439.09" cy="291.66" rx="3.44" ry="2.76"/>
  </g>
 </g>
</svg>
