<?xml version="1.0" encoding="UTF-8"?>
<!DOCTYPE svg PUBLIC "-//W3C//DTD SVG 1.1//EN" "http://www.w3.org/Graphics/SVG/1.1/DTD/svg11.dtd">
<!-- Creator: CorelDRAW 2020 (64-Bit) -->
<svg xmlns="http://www.w3.org/2000/svg" xml:space="preserve" width="129.436mm" height="197.988mm" version="1.1" style="shape-rendering:geometricPrecision; text-rendering:geometricPrecision; image-rendering:optimizeQuality; fill-rule:evenodd; clip-rule:evenodd"
viewBox="0 0 901.43 1378.85"
 xmlns:xlink="http://www.w3.org/1999/xlink"
 xmlns:xodm="http://www.corel.com/coreldraw/odm/2003">
 <defs>
  <style type="text/css">
   <![CDATA[
    .fil0 {fill:none}
    .fil1 {fill:#501D33}
    .fil6 {fill:#88958A}
    .fil3 {fill:#AD8D60}
    .fil5 {fill:#AFC0A6}
    .fil2 {fill:#DEDA81}
    .fil4 {fill:white}
   ]]>
  </style>
 </defs>
 <g id="Слой_x0020_1">
  <metadata id="CorelCorpID_0Corel-Layer"/>
  <g id="_2674294371232">
   <g id="_281768128">
    <rect id="_281244528" class="fil0" y="0" width="901.43" height="1378.85"/>
    <path id="_124527424" class="fil1" d="M672.9 496.68c0,0 83.26,-90.69 198.23,-95.82 0,0 3.8,0.72 2.88,6.25 -0.92,5.53 -39.63,78.01 -39.63,78.01 -35.58,37.53 -57.78,104.12 -53.73,148.63 -16.37,13.46 -81.39,50.63 -116.32,46.89 -1.68,-2.62 -15.74,-67.88 8.56,-183.95l0 -0z"/>
    <path id="_124520584" class="fil2" d="M676.48 514.05c0,0 78.03,-87.28 179.98,-98.7 0,0 -11.85,16.38 -33.37,64.03 -27.05,28.06 -63.54,108.24 -58.23,149.01 -10.17,12.27 -78.89,43.63 -90.06,39.13 -4.47,-1.8 -49.16,-103.11 1.68,-153.47z"/>
    <path id="_124520896" class="fil3" d="M701.54 508.66c1.17,0 53.03,-37.57 110.96,-44.23 0,0 -60.28,16.81 -105.37,69.35l-4.61 -13.58 -0.98 -11.55z"/>
    <path id="_124521160" class="fil4" d="M711.51 481.75c32.34,-26.12 84.43,-59.62 144.95,-66.41 0,0 -9.91,13.69 -28.04,52.42 0.74,-16.33 8.73,-39.34 8.73,-39.34 -38.28,0.68 -110.04,43.47 -125.64,53.33z"/>
    <path id="_124521472" class="fil3" d="M714.85 656.57c-0.84,0.36 -1.68,0.71 -2.52,1.06l-22.81 -99.67c0,0 48.66,-69.85 130.52,-75.53 0,0 -58.31,49.63 -65.38,124.19l-0.1 9.12 -39.72 40.83z"/>
    <path id="_124521784" class="fil2" d="M714.06 533.13l12.52 40.12 -9.98 29.35 20.55 -24.66c0,0 -4.89,-31.12 -23.09,-44.81z"/>
    <path id="_124522120" class="fil1" d="M830.85 468.32c0,0 -72.94,4.8 -154.91,95.47 0,0 77.55,-69.27 152.02,-81.79l3.78 -7.45 -0.89 -6.23z"/>
    <path id="_124522360" class="fil1" d="M712.3 530.51c0,0 15.23,22.74 20.31,43.43 0,0 -6.3,18.4 -20.89,33.76 0,0 22.87,-17.04 32.13,-27.72 0,0 1.82,-21.44 -17.03,-58.13l-5.11 1.66 -9.41 7.02z"/>
    <polygon id="_124522672" class="fil1" points="744.37,512.22 763.98,549.08 756.53,503.6 "/>
    <path id="_124523056" class="fil2" d="M745.37 524.32c0.59,1.17 11.74,42.86 9,88.85l8.81 -14.87c0,0 3.72,-32.88 -17.81,-73.97z"/>
    <path id="_124523344" class="fil1" d="M230.18 520.23c0,0 -69.25,-78.07 -185.2,-96.62 -7.82,-1.25 -17.98,-5.39 -15.92,7.05 0.92,5.53 39.63,78.01 39.63,78.01 29.5,-1.21 75.88,24.03 38.49,52.76 24.5,8.55 34.34,26.68 0.98,37.67 0,0 17.68,20.51 14.25,58.2 16.37,13.46 81.39,50.63 116.32,46.89 1.68,-2.62 15.74,-67.88 -8.56,-183.95l0 -0z"/>
    <path id="_124535512" class="fil2" d="M226.61 537.61c0,0 -85.08,-87.08 -181.74,-101.05 0,0 13.62,18.72 35.13,66.38 27.22,-1.21 82.67,25.8 50.79,55.16 21.18,12.61 18.5,40.2 -1.31,47.81 0,0 12.82,14.76 8.75,46.04 10.17,12.27 78.89,43.63 90.06,39.13 4.47,-1.8 49.16,-103.11 -1.68,-153.47l0 0z"/>
    <path id="_124523752" class="fil4" d="M172.69 492.82c-33.42,-23.66 -79.15,-49.23 -127.83,-56.27 0,0 11.9,16.36 31.02,57.41l-7.08 -42.13c44.81,10.08 83.52,29.47 103.89,40.98z"/>
    <path id="_124523872" class="fil3" d="M226.61 537.61c0,0 -18.88,-19.32 -48.94,-41.22 -13.78,2.17 -37.98,0.88 -80.26,-9.05 0,0 62.94,21.56 103.92,60.96 16.11,15.48 24.15,6.08 25.79,-10.16 -0.17,-0.18 -0.34,-0.36 -0.51,-0.53z"/>
    <path id="_124507864" class="fil3" d="M114.82 511.31c20.93,10.07 43.67,28.14 23.21,46.98 21.18,12.61 18.5,40 -1.31,47.62 0,0 11.06,10.65 6.99,41.93 8.95,10.79 57.71,40.46 78.24,43.4 0.63,-22.85 1.72,-99.93 -11.6,-118.24 -15.68,-21.56 -92.93,-63.52 -92.93,-63.52 -0.89,0.6 -1.75,1.21 -2.6,1.84z"/>
    <path id="_124508008" class="fil2" d="M188.81 556.22c0,0 -12.92,30.72 -12.92,38.36 0,7.63 9.39,31.9 9.39,31.9l-26.81 -25.44c0,0 9.78,-38.36 30.33,-44.81z"/>
    <path id="_124524304" class="fil1" d="M72.24 491.88c0,0 72.94,4.8 154.91,95.47 0,0 -77.55,-69.27 -152.02,-81.79l-3.78 -7.45 0.89 -6.23z"/>
    <path id="_124508368" class="fil1" d="M190.79 554.07c0,0 -19.73,23.91 -24.81,44.6 0,0 10.8,17.23 25.4,32.58 0,0 -29.13,-17.82 -38.39,-28.51 0,0 2.09,-22.03 23.29,-57.35l5.11 1.66 9.41 7.02z"/>
    <g>
     <polygon id="_285640024" class="fil1" points="811.71,546.86 831.23,516.87 788.24,484.9 767.1,517.18 "/>
     <polygon id="_285641272" class="fil5" points="810.14,533.87 818.88,520.19 789.65,497.19 778.56,514.31 "/>
     <polygon id="_285640408" class="fil4" points="810.14,533.87 818.88,520.19 789.65,497.19 810.57,520.95 "/>
     <polygon id="_285631144" class="fil6" points="798.16,503.89 789.65,497.19 778.56,514.31 788.11,520.22 "/>
    </g>
   </g>
  </g>
 </g>
</svg>
