<?xml version="1.0" encoding="UTF-8"?>
<!DOCTYPE svg PUBLIC "-//W3C//DTD SVG 1.1//EN" "http://www.w3.org/Graphics/SVG/1.1/DTD/svg11.dtd">
<!-- Creator: CorelDRAW 2020 (64-Bit) -->
<svg xmlns="http://www.w3.org/2000/svg" xml:space="preserve" width="129.436mm" height="197.988mm" version="1.1" style="shape-rendering:geometricPrecision; text-rendering:geometricPrecision; image-rendering:optimizeQuality; fill-rule:evenodd; clip-rule:evenodd"
viewBox="0 0 741.42 1134.09"
 xmlns:xlink="http://www.w3.org/1999/xlink"
 xmlns:xodm="http://www.corel.com/coreldraw/odm/2003">
 <defs>
  <style type="text/css">
   <![CDATA[
    .fil0 {fill:none}
    .fil1 {fill:#501D33}
    .fil4 {fill:#AD8D60}
    .fil2 {fill:#DEDA81}
    .fil3 {fill:white}
   ]]>
  </style>
 </defs>
 <g id="Слой_x0020_1">
  <metadata id="CorelCorpID_0Corel-Layer"/>
  <g id="_2674459515200">
   <g id="_118479688">
    <rect id="_119695768" class="fil0" width="741.42" height="1134.09"/>
    <g>
     <path id="_124508728" class="fil1" d="M568.3 399.39c0,0 108.13,-11.62 143.96,76.82 0,0 3.48,6.33 -3.6,9.71 -5.03,2.4 -26.82,2.85 -44.97,11.76 -26.53,13.02 -16.7,32.02 -30.93,43.58 -5.16,4.19 -40.25,22.74 -54.83,26.94 0,0 -18.38,-46.12 -18.38,-88.69 0,-42.57 8.76,-80.11 8.76,-80.11z"/>
     <path id="_124508944" class="fil2" d="M568.55 411.16c0,0 97.67,-5.34 128.76,61.55 0,0 1.08,3.43 0.3,5 -0.78,1.57 -44.89,1.59 -59.97,29.86 0,0 -6.02,17.32 -7.44,20.14 -1.41,2.82 -21.79,15.67 -56.12,29.31 0,0 -15.59,-33.44 -16.53,-81.49 -0.94,-48.05 6.97,-58.64 10.99,-64.38z"/>
     <path id="_124509232" class="fil3" d="M598.42 412.65c31.38,3.91 78.9,17.05 98.89,60.07 0,0 1.08,3.43 0.29,5 -0.77,1.55 -43.79,1.6 -59.38,28.81 13.09,-28.64 46.56,-36.54 46.56,-36.54 -21.93,-41.92 -88.69,-57.08 -88.69,-57.08 0.78,-0.1 1.55,-0.18 2.32,-0.26zm38.49 97.01l-0.59 1.69c0.11,-0.35 0.22,-0.7 0.36,-1.07 0.08,-0.21 0.16,-0.41 0.24,-0.62z"/>
     <path id="_124509448" class="fil4" d="M568.55 411.16c0,0 11.14,-0.61 27.09,1.16 3.26,12.86 11.43,32.05 31.75,40.26 31.93,12.9 -48.05,24.51 -50.63,24.51 -2.58,0 -5.48,8.06 -15.16,-4.19 -1.18,-1.49 -2.58,-3.08 -4.11,-4.74 -0.03,-41.78 7.26,-51.57 11.07,-57z"/>
     <path id="_124509736" class="fil4" d="M661.46 470.84c-31.1,14.25 -25.97,40.18 -43.91,51.39 -7.74,4.84 -34.35,14.84 -34.35,14.84l-7.42 -87.07c0,0 62.87,1.77 85.68,20.84z"/>
     <path id="_124509952" class="fil2" d="M583.88 460.38l7.89 25.43 0.16 26.4 9.82 -25.11c0,0 -8.85,-24.14 -17.87,-26.72z"/>
     <path id="_124510240" class="fil1" d="M556.96 444.68c0,0 66.76,-8.71 106.1,27.09 0,0 -36.44,-21.61 -111.26,-16.45l-1.1 -7.19 6.26 -3.45z"/>
     <path id="_124526200" class="fil1" d="M628.02 457.02c0,0 -1.45,13.87 2.9,30.06 0,0 -7.4,16.33 -29.29,31.94 0,0 17.06,-23.99 20.92,-31.94 0,0 -5.15,-15.61 -4.35,-32.08l4.51 -1.59 5.31 3.61z"/>
     <path id="_124519192" class="fil1" d="M591.48 451.15c0,0 14.33,27.36 14.65,33.64 0.32,6.28 -14.81,29.62 -14.81,29.62 0,0 7.4,-28.97 6.76,-30.74 -0.64,-1.77 -20.6,-31.39 -20.6,-31.39 0,0 14,-4.83 14,-1.13z"/>
    </g>
    <g>
     <path id="_124519528" class="fil1" d="M172.39 399.07c0,0 -106.52,-10.97 -143.96,75.53 0,0 -3.48,7.94 3.6,11.32 5.03,2.4 26.82,2.85 44.97,11.76 26.53,13.02 16.7,32.02 30.93,43.58 5.16,4.19 40.25,22.74 54.83,26.94 0,0 18.38,-46.12 18.38,-88.69 0,-42.57 -8.76,-80.44 -8.76,-80.44z"/>
     <path id="_124519744" class="fil2" d="M172.15 411.16c0,0 -97.67,-5.34 -128.76,61.55 0,0 -1.08,3.43 -0.3,5 0.78,1.57 44.89,1.59 59.97,29.86 0,0 6.02,17.32 7.44,20.14 1.41,2.82 21.79,15.67 56.12,29.31 0,0 15.59,-33.44 16.53,-81.49 0.94,-48.05 -6.97,-58.64 -10.99,-64.38z"/>
     <path id="_124520056" class="fil3" d="M142.28 412.65c-31.38,3.91 -78.9,17.05 -98.89,60.07 0,0 -1.08,3.43 -0.29,5 0.77,1.55 43.79,1.6 59.38,28.81 -13.09,-28.64 -46.56,-36.54 -46.56,-36.54 21.93,-41.92 88.69,-57.08 88.69,-57.08 -0.78,-0.1 -1.55,-0.18 -2.32,-0.26zm-38.49 97.01l0.59 1.69c-0.11,-0.35 -0.22,-0.7 -0.36,-1.07 -0.08,-0.21 -0.16,-0.41 -0.24,-0.62z"/>
     <path id="_124520272" class="fil4" d="M172.15 411.16c0,0 -11.14,-0.61 -27.09,1.16 -3.26,12.86 -11.43,32.05 -31.75,40.26 -31.93,12.9 48.05,24.51 50.63,24.51 2.58,0 5.48,8.06 15.16,-4.19 1.18,-1.49 2.58,-3.08 4.11,-4.74 0.03,-41.78 -7.26,-51.57 -11.07,-57z"/>
     <path id="_124510600" class="fil4" d="M79.24 470.84c31.1,14.25 25.97,40.18 43.91,51.39 7.74,4.84 38.05,15.48 38.05,15.48l3.72 -87.72c0,0 -62.87,1.77 -85.68,20.84z"/>
     <path id="_124510840" class="fil2" d="M156.82 460.38l-7.89 25.43 -0.16 26.4 -9.82 -25.11c0,0 8.85,-24.14 17.87,-26.72z"/>
     <path id="_124511128" class="fil1" d="M183.73 444.68c0,0 -66.76,-8.71 -106.1,27.09 0,0 36.44,-21.61 111.26,-16.45l1.1 -7.19 -6.26 -3.45z"/>
     <path id="_124524496" class="fil1" d="M112.68 457.02c0,0 1.45,13.87 -2.9,30.06 0,0 7.4,16.33 29.29,31.94 0,0 -17.06,-23.99 -20.92,-31.94 0,0 5.15,-15.61 4.35,-32.08l-4.51 -1.59 -5.31 3.61z"/>
     <path id="_124524760" class="fil1" d="M149.21 451.15c0,0 -14.33,27.36 -14.65,33.64 -0.32,6.28 14.81,29.62 14.81,29.62 0,0 -7.4,-28.97 -6.76,-30.74 0.64,-1.77 20.6,-31.39 20.6,-31.39 0,0 -14,-4.83 -14,-1.13z"/>
    </g>
   </g>
  </g>
 </g>
</svg>
