<?xml version="1.0" encoding="UTF-8"?>
<!DOCTYPE svg PUBLIC "-//W3C//DTD SVG 1.1//EN" "http://www.w3.org/Graphics/SVG/1.1/DTD/svg11.dtd">
<!-- Creator: CorelDRAW 2020 (64-Bit) -->
<svg xmlns="http://www.w3.org/2000/svg" xml:space="preserve" width="129.436mm" height="197.988mm" version="1.1" style="shape-rendering:geometricPrecision; text-rendering:geometricPrecision; image-rendering:optimizeQuality; fill-rule:evenodd; clip-rule:evenodd"
viewBox="0 0 392.29 600.05"
 xmlns:xlink="http://www.w3.org/1999/xlink"
 xmlns:xodm="http://www.corel.com/coreldraw/odm/2003">
 <defs>
  <style type="text/css">
   <![CDATA[
    .fil0 {fill:none}
    .fil1 {fill:#501D33}
    .fil3 {fill:#AD8D60}
    .fil2 {fill:#DEDA81}
    .fil4 {fill:white}
   ]]>
  </style>
 </defs>
 <g id="Слой_x0020_1">
  <metadata id="CorelCorpID_0Corel-Layer"/>
  <g id="_2674696144192">
   <rect id="_288365376" class="fil0" y="0" width="392.29" height="600.05"/>
   <g>
    <path id="_124523560" class="fil1" d="M88.38 203.29l-26.86 -15.32c-0.44,3.94 -1.85,9.06 -8.02,11.22 1.93,9.51 -4.72,14.82 -12.72,16.26 -4.06,0.73 -2.85,2.05 -0.98,4.99l11.65 17.71 -4.14 7.75c3.26,4.95 15.27,20.51 15.27,20.51 0,0 -2.66,17.3 -2.15,20.11 0.51,2.81 19.73,11.79 22.12,11.96 2.39,0.17 23.59,-46.35 5.83,-95.19z"/>
    <path id="_124520416" class="fil2" d="M84.94 208.22c0,0 -8.62,-4.31 -19.79,-10.07 -1.35,1.73 -3.38,3.24 -6.36,4.28 0,0 3.63,12.71 -10.66,15.48 10.31,9.38 24.75,18.89 44.97,26.9 0,0 0.93,4.15 -4.8,2.7 -9.09,-2.3 -24.15,-9.93 -31.96,-15.58 0,0 1.99,1.25 1.13,4.58l4.28 8.7 -7.9 0.79 15.7 20.33c0,0 -2.64,13.37 -2.9,16.1 -0.26,2.73 19.25,10.73 19.25,10.73 14.24,-17.87 18.23,-73.42 5.01,-81.35l-5.97 -3.58z"/>
    <path id="_124528168" class="fil3" d="M84.94 208.22c0,0 -3.15,-1.57 -8.1,-4.09 2.69,6.9 6.6,21 0.08,33.36 4.94,2.54 10.31,4.99 16.18,7.32 0,0 0.33,1.45 -0.6,2.34l5.65 2.38c0,0 0.19,-0.19 0.54,-0.53 1.16,-17.21 -1.13,-33.21 -7.77,-37.19l-5.97 -3.58z"/>
    <path id="_124527976" class="fil4" d="M48.14 217.91c8.89,8.09 20.84,16.26 36.91,23.49l0.11 -0.99c-13.79,-7.91 -24.21,-16.23 -32.08,-24.16 -1.35,0.7 -2.98,1.27 -4.95,1.66z"/>
    <path id="_124527832" class="fil3" d="M50.89 227.66c3.36,5.46 4.04,5.52 7.38,10.82l-4.25 7.49 19.8 20.53c0,0 -1.62,12.69 -1.87,15.41 -0.26,2.73 13.96,11.24 13.96,11.24 6.89,-8.65 11.38,-26.12 12.68,-42.74 -1.82,-3.2 1.21,0.25 -3.51,-0.9 -18.75,-4.57 -34.49,-14.05 -44.18,-21.86z"/>
    <path id="_124527664" class="fil1" d="M73.75 240.23c0,0 -2.14,12.2 -0.94,15.79 1.19,3.58 18.69,16.72 17.83,16.72 -0.85,0 -21.33,-12.28 -22.95,-15.01 -1.62,-2.73 0.94,-20.65 0.94,-20.65l5.12 3.15z"/>
   </g>
   <path id="_285641632" class="fil1" d="M50.71 245.4c0.3,0.04 15.49,-0.64 15.49,-0.64l-12.35 4.2 -3.14 -3.56z"/>
  </g>
 </g>
</svg>
