<?xml version="1.0" encoding="UTF-8"?>
<!DOCTYPE svg PUBLIC "-//W3C//DTD SVG 1.1//EN" "http://www.w3.org/Graphics/SVG/1.1/DTD/svg11.dtd">
<!-- Creator: CorelDRAW 2020 (64-Bit) -->
<svg xmlns="http://www.w3.org/2000/svg" xml:space="preserve" width="129.436mm" height="197.988mm" version="1.1" style="shape-rendering:geometricPrecision; text-rendering:geometricPrecision; image-rendering:optimizeQuality; fill-rule:evenodd; clip-rule:evenodd"
viewBox="0 0 1132.25 1731.91"
 xmlns:xlink="http://www.w3.org/1999/xlink"
 xmlns:xodm="http://www.corel.com/coreldraw/odm/2003">
 <defs>
  <style type="text/css">
   <![CDATA[
    .fil0 {fill:none}
    .fil1 {fill:#501D33}
    .fil3 {fill:#AD8D60}
    .fil2 {fill:#DEDA81}
    .fil4 {fill:white}
   ]]>
  </style>
 </defs>
 <g id="Слой_x0020_1">
  <metadata id="CorelCorpID_0Corel-Layer"/>
  <g id="_2674549592688">
   <rect id="_288365376" class="fil0" y="0" width="1132.25" height="1731.91"/>
   <g>
    <g>
     <path id="_124530928" class="fil1" d="M879.17 584.8l199.14 -103.51c0,0 8.04,2.99 5.58,20.22 -2.46,17.24 0.83,70.97 -82.49,144.92 0,0 -3.7,56.75 -4.94,61.93 -1.24,5.18 -45.05,60.57 -45.05,60.57 0,0 7.69,49.95 6.21,58.06 -1.47,8.11 -56.94,34.04 -63.83,34.53 -6.89,0.49 -65.88,-135.74 -14.62,-276.72z"/>
     <path id="_124531144" class="fil2" d="M886.89 600.99c0,0 129.03,-64.52 180.25,-96.03 0,0 -9.77,124.82 -203.81,201.65 0,0 -2.68,11.97 13.85,7.78 26.22,-6.64 69.69,-28.66 92.23,-44.97 0,0 4.92,12.04 9.34,37.85l-47.44 61.45c0,0 7.62,38.59 8.36,46.46 0.74,7.87 -55.55,30.97 -55.55,30.97 -41.1,-51.58 -52.61,-211.92 -14.46,-234.81l17.24 -10.34z"/>
     <path id="_124535680" class="fil3" d="M886.89 600.99c0,0 9.08,-4.54 23.38,-11.8 -7.76,19.92 -19.05,60.61 -0.24,96.29 -14.25,7.33 -29.76,14.41 -46.7,21.12 0,0 -0.94,4.2 1.73,6.75l-16.3 6.86c0,0 -0.56,-0.54 -1.55,-1.53 -3.36,-49.66 3.27,-95.85 22.44,-107.35l17.24 -10.34z"/>
     <path id="_124506616" class="fil4" d="M1045.55 517.64c8.08,-4.59 15.41,-8.88 21.59,-12.69 0,0 -9,114.64 -180.57,191.81l-0.33 -2.85c120.46,-69.07 151.82,-149.01 159.31,-176.28z"/>
     <path id="_124506904" class="fil3" d="M985.17 657.1c0,0 -1.49,25.34 -6.42,50.17l-59.75 61.94c0,0 4.67,36.62 5.4,44.49 0.74,7.87 -40.28,32.45 -40.28,32.45 -19.88,-24.96 -32.84,-75.38 -36.6,-123.37 5.27,-9.22 -3.48,0.73 10.14,-2.59 54.11,-13.19 99.55,-40.54 127.51,-63.09z"/>
     <path id="_124507120" class="fil1" d="M919.19 693.36c0,0 6.17,35.22 2.72,45.56 -3.45,10.34 -53.93,48.27 -51.47,48.27 2.46,0 61.55,-35.45 66.23,-43.33 4.68,-7.88 -2.7,-59.6 -2.7,-59.6l-14.78 9.1z"/>
    </g>
    <g>
     <path id="_124530928_0" class="fil1" d="M253.08 584.8l-199.14 -103.51c0,0 -8.04,2.99 -5.58,20.22 2.46,17.24 -0.83,70.97 82.49,144.92 0,0 3.7,56.75 4.94,61.93 1.24,5.18 45.05,60.57 45.05,60.57 0,0 -7.69,49.95 -6.21,58.06 1.47,8.11 56.94,34.04 63.83,34.53 6.89,0.49 65.88,-135.74 14.62,-276.72z"/>
     <path id="_124531144_1" class="fil2" d="M245.35 600.99c0,0 -129.03,-64.52 -180.25,-96.03 0,0 9.77,124.82 203.81,201.65 0,0 2.68,11.97 -13.85,7.78 -26.22,-6.64 -69.69,-28.66 -92.23,-44.97 0,0 -4.92,12.04 -9.34,37.85l47.44 61.45c0,0 -7.62,38.59 -8.36,46.46 -0.74,7.87 55.55,30.97 55.55,30.97 41.1,-51.58 52.61,-211.92 14.46,-234.81l-17.24 -10.34z"/>
     <path id="_124535680_2" class="fil3" d="M245.35 600.99c0,0 -9.08,-4.54 -23.38,-11.8 7.76,19.92 19.05,60.61 0.24,96.29 14.25,7.33 29.76,14.41 46.7,21.12 0,0 0.94,4.2 -1.73,6.75l16.3 6.86c0,0 0.56,-0.54 1.55,-1.53 3.36,-49.66 -3.27,-95.85 -22.44,-107.35l-17.24 -10.34z"/>
     <path id="_124506616_3" class="fil4" d="M86.69 517.64c-8.08,-4.59 -15.41,-8.88 -21.59,-12.69 0,0 9,114.64 180.57,191.81l0.33 -2.85c-120.46,-69.07 -151.82,-149.01 -159.31,-176.28z"/>
     <path id="_124506904_4" class="fil3" d="M147.08 657.1c0,0 1.49,25.34 6.42,50.17l59.75 61.94c0,0 -4.67,36.62 -5.4,44.49 -0.74,7.87 40.28,32.45 40.28,32.45 19.88,-24.96 32.84,-75.38 36.6,-123.37 -5.27,-9.22 3.48,0.73 -10.14,-2.59 -54.11,-13.19 -99.55,-40.54 -127.51,-63.09z"/>
     <path id="_124507120_5" class="fil1" d="M213.06 693.36c0,0 -6.17,35.22 -2.72,45.56 3.45,10.34 53.93,48.27 51.47,48.27 -2.46,0 -61.55,-35.45 -66.23,-43.33 -4.68,-7.88 2.7,-59.6 2.7,-59.6l14.78 9.1z"/>
    </g>
   </g>
  </g>
 </g>
</svg>
