<?xml version="1.0" encoding="UTF-8"?>
<!DOCTYPE svg PUBLIC "-//W3C//DTD SVG 1.1//EN" "http://www.w3.org/Graphics/SVG/1.1/DTD/svg11.dtd">
<!-- Creator: CorelDRAW 2020 (64-Bit) -->
<svg xmlns="http://www.w3.org/2000/svg" xml:space="preserve" width="129.436mm" height="197.988mm" version="1.1" style="shape-rendering:geometricPrecision; text-rendering:geometricPrecision; image-rendering:optimizeQuality; fill-rule:evenodd; clip-rule:evenodd"
viewBox="0 0 15203.25 23255.23"
 xmlns:xlink="http://www.w3.org/1999/xlink"
 xmlns:xodm="http://www.corel.com/coreldraw/odm/2003">
 <defs>
  <style type="text/css">
   <![CDATA[
    .fil0 {fill:none}
    .fil1 {fill:#501D33}
    .fil4 {fill:#AD8D60}
    .fil2 {fill:#DEDA81}
    .fil3 {fill:white}
   ]]>
  </style>
 </defs>
 <g id="Слой_x0020_1">
  <metadata id="CorelCorpID_0Corel-Layer"/>
  <g id="_2674594392384">
   <g id="_284318552">
    <rect id="_281932552" class="fil0" width="15203.25" height="23255.23"/>
    <g>
     <g>
      <path id="_124527280" class="fil1" d="M10991.14 8282.12c0,0 482.6,-445.98 1036.01,-533.45 553.43,-87.47 1512.24,804.23 2575.47,-48.99 0,0 587.01,661.44 -608.97,1537.74 -441.71,323.65 -544.19,853.74 -765.33,1289.09 -198.64,391.02 -487.43,703.08 -1180.52,811.94 0,0 -699.84,-279.78 -892.04,-1439.15 -192.2,-1159.37 -164.62,-1617.18 -164.62,-1617.18z"/>
      <path id="_124527136" class="fil2" d="M11322.86 8590.54c0,0 262.35,-566.74 775.9,-577.99 513.55,-11.24 1364.88,724.83 2446.2,-36.66 0,0 138.31,420.36 -629.95,1013.31 -258.31,199.37 -402.96,387.56 -560.44,686.14 -214.6,406.86 -373.99,1437.34 -1599.22,1463.3 0,0 -622.6,-209.8 -715.18,-1559.76l-24.55 -191.3c0,0 24.22,-439.81 307.23,-797.04z"/>
      <path id="_124526944" class="fil3" d="M11876.47 8054.26c67.94,-24.61 142.05,-39.96 222.3,-41.72 509.23,-11.13 1350.59,712.24 2418.93,-17.96l-13.86 12.92c-552.3,510.29 -1179.5,469.69 -1635.76,305.37 -386.56,-139.21 -576.48,-296.33 -1001.55,-244.86l9.94 -13.74z"/>
      <path id="_124526776" class="fil4" d="M11322.9 8590.54c0,0 185.09,-399.77 548.64,-534.43 100.5,394.04 327,479.07 327,479.07 373.73,-108.39 715.11,47.92 1100.63,41.66 323.16,-5.25 495.86,-118.39 526.4,-90.51 34.6,31.6 -130.84,150.87 -519.03,223.53 -417.53,78.13 -802.37,19.71 -1311.04,342.6 0,0 -573.12,11.19 -845.15,-175.25 42.74,-95.01 98.84,-193.64 172.56,-286.68z"/>
      <path id="_283867816" class="fil4" d="M14545.7 7978.48c9.88,35.68 42.06,356.1 -691.58,922.35 -258.32,199.37 -402.96,387.58 -560.45,686.14 -214.6,406.87 -313.08,1525.73 -1538.32,1551.69 0,0 -116.55,-39.41 -256.29,-193.3 -49.37,-723.01 -128.09,-1415.64 178.43,-1643.75 306.52,-228.13 927.85,-347.46 927.85,-347.46 877.06,-83.37 1481.74,-164.78 1940.37,-975.66z"/>
      <path id="_283867912" class="fil2" d="M12044.14 9225.64c0,0 173.63,322.52 167.62,426.55 -6,104.03 -70.8,529.06 -70.8,529.06 0,0 279.2,-337.82 302.31,-434.19 23.1,-96.39 -194.36,-559.4 -399.13,-521.42z"/>
      <path id="_283868032" class="fil1" d="M14501.3 7974.52c-711.32,1053.51 -1531.24,751.58 -2326.37,1004.62 -482.14,153.45 -756.73,427.78 -1105.51,720.99l111.29 167.32c0,0 727.54,-750.11 1479.5,-802.89 751.95,-52.79 1455.07,-115.36 1941.22,-1113.83l-100.13 23.8z"/>
      <path id="_283868128" class="fil1" d="M11938.87 9115.5c0,0 341.64,321.31 403.48,489.49 61.84,168.19 -313.69,738.21 -313.69,738.21 0,0 451.71,-347.77 542.49,-584.49 90.79,-236.72 -396.87,-771.52 -396.87,-771.52l-235.41 128.31z"/>
      <path id="_283868248" class="fil1" d="M13142.44 8969.83c0,0 -307.3,413.58 -247.11,1158.59 0,0 120.78,-714.47 545.26,-1214.78l-83.65 -35.21 -214.5 91.41z"/>
     </g>
     <g>
      <path id="_283868392" class="fil1" d="M4212.03 8282.12c0,0 -482.6,-445.98 -1036.01,-533.45 -553.43,-87.47 -1512.24,804.23 -2575.47,-48.99 0,0 -587.01,661.44 608.97,1537.74 441.72,323.65 544.19,853.74 765.33,1289.09 198.64,391.02 487.43,703.08 1180.52,811.94 0,0 699.84,-279.78 892.04,-1439.15 192.2,-1159.37 164.62,-1617.18 164.62,-1617.18z"/>
      <path id="_283868488" class="fil2" d="M3880.3 8590.54c0,0 -262.35,-566.74 -775.9,-577.99 -513.55,-11.24 -1364.88,724.83 -2446.2,-36.66 0,0 -138.31,420.36 629.95,1013.31 258.31,199.37 402.96,387.56 560.44,686.14 214.6,406.86 373.99,1437.34 1599.22,1463.3 0,0 622.6,-209.8 715.18,-1559.76l24.55 -191.3c0,0 -24.22,-439.81 -307.23,-797.04z"/>
      <path id="_283868608" class="fil3" d="M3326.71 8054.26c-67.94,-24.61 -142.05,-39.96 -222.3,-41.72 -509.23,-11.13 -1350.59,712.24 -2418.93,-17.96l13.86 12.92c552.3,510.29 1179.5,469.69 1635.76,305.37 386.56,-139.21 576.48,-296.33 1001.55,-244.86l-9.94 -13.74z"/>
      <path id="_283868704" class="fil4" d="M3880.3 8590.54c0,0 -185.09,-399.77 -548.63,-534.43 -100.51,394.04 -327.01,479.07 -327.01,479.07 -373.73,-108.39 -715.11,47.92 -1100.63,41.66 -323.16,-5.25 -495.86,-118.39 -526.4,-90.51 -34.6,31.6 130.84,150.87 519.03,223.53 417.53,78.13 802.37,19.71 1311.04,342.6 0,0 573.12,11.19 845.15,-175.25 -42.74,-95.01 -98.84,-193.64 -172.56,-286.68z"/>
      <path id="_283868824" class="fil4" d="M657.47 7978.48c-9.88,35.68 -42.06,356.1 691.58,922.35 258.32,199.37 402.96,387.58 560.45,686.14 214.6,406.87 313.08,1525.73 1538.32,1551.69 0,0 116.55,-39.41 256.29,-193.3 49.37,-723.01 128.09,-1415.64 -178.43,-1643.75 -306.52,-228.13 -927.85,-347.46 -927.85,-347.46 -877.06,-83.37 -1481.74,-164.78 -1940.37,-975.66z"/>
      <path id="_283868920" class="fil2" d="M3159.05 9225.64c0,0 -173.63,322.52 -167.62,426.55 6,104.03 70.8,529.06 70.8,529.06 0,0 -279.2,-337.82 -302.31,-434.19 -23.1,-96.39 194.36,-559.4 399.13,-521.42z"/>
      <path id="_283869040" class="fil1" d="M701.89 7974.52c711.32,1053.51 1531.24,751.58 2326.37,1004.62 482.14,153.45 756.73,427.78 1105.51,720.99l-111.29 167.32c0,0 -727.54,-750.11 -1479.5,-802.89 -751.95,-52.79 -1455.07,-115.36 -1941.22,-1113.83l100.13 23.8z"/>
      <path id="_283869136" class="fil1" d="M3264.3 9115.5c0,0 -341.64,321.31 -403.48,489.49 -61.84,168.19 313.69,738.21 313.69,738.21 0,0 -451.71,-347.77 -542.49,-584.49 -90.79,-236.72 396.87,-771.52 396.87,-771.52l235.41 128.31z"/>
      <path id="_283869256" class="fil1" d="M2060.72 8969.83c0,0 307.3,413.58 247.11,1158.59 0,0 -120.78,-714.47 -545.26,-1214.78l83.65 -35.21 214.5 91.41z"/>
     </g>
    </g>
   </g>
  </g>
 </g>
</svg>
