<?xml version="1.0" encoding="UTF-8"?>
<!DOCTYPE svg PUBLIC "-//W3C//DTD SVG 1.1//EN" "http://www.w3.org/Graphics/SVG/1.1/DTD/svg11.dtd">
<!-- Creator: CorelDRAW 2020 (64-Bit) -->
<svg xmlns="http://www.w3.org/2000/svg" xml:space="preserve" width="129.436mm" height="197.989mm" version="1.1" style="shape-rendering:geometricPrecision; text-rendering:geometricPrecision; image-rendering:optimizeQuality; fill-rule:evenodd; clip-rule:evenodd"
viewBox="0 0 473.21 723.83"
 xmlns:xlink="http://www.w3.org/1999/xlink"
 xmlns:xodm="http://www.corel.com/coreldraw/odm/2003">
 <defs>
  <style type="text/css">
   <![CDATA[
    .fil0 {fill:none}
    .fil1 {fill:#501D33}
    .fil3 {fill:#823848}
    .fil2 {fill:#9F5655}
    .fil6 {fill:#B76E60}
    .fil4 {fill:#BB765A}
    .fil5 {fill:#D3956E}
    .fil8 {fill:#D79A6E}
    .fil7 {fill:#E8C391}
   ]]>
  </style>
 </defs>
 <g id="Слой_x0020_1">
  <metadata id="CorelCorpID_0Corel-Layer"/>
  <g id="_2674795470576">
   <rect id="_285110304" class="fil0" y="0" width="473.21" height="723.83"/>
   <g>
    <path id="_283847536" class="fil1" d="M46.24 262.94c4.69,9.85 8.05,19.27 8.24,29.85 0.12,6.48 -0.98,13.85 1.3,20.02 1.82,4.94 5.41,8.33 10,10.85 6.55,3.59 12.49,8.15 11.88,16.22 -0.82,10.82 3.94,20.94 16.55,21.05 4.7,0.04 8.75,-1.78 11.96,-5 7.12,-7.16 10.84,-20.69 12.36,-28.28 1.69,-8.41 2.79,-19.19 1.21,-27.67 -1.63,-8.75 -9.28,-16.38 -16.03,-21.77 -5.06,-4.04 -10.62,-7.64 -16.26,-10.85 -1.96,-1.11 -3.94,-2.18 -5.94,-3.2 -0.96,-0.49 -2.02,-1.04 -3.01,-1.44 -1.37,-0.55 -3.54,-0.95 -5.01,-1.29 -2.74,-0.62 -5.48,-1.22 -8.22,-1.81 -4.21,-0.91 -8.42,-1.8 -12.63,-2.69l-8.15 -1.71 1.78 7.72z"/>
    <path id="_283847632" class="fil2" d="M55.78 262.91c0,0 4.94,18.67 5.14,29.95 0.2,11.28 -2.4,19.71 8.38,25.71 10.78,6 14.37,11.57 13.77,19.57 -0.9,12.07 12.72,22.13 21.65,8.52 7.41,-11.29 11.07,-34.2 8.89,-46.08 -2.99,-16.28 -34.73,-31.71 -36.13,-32.28 -1.4,-0.57 -21.7,-5.39 -21.7,-5.39l0 0z"/>
    <path id="_283848328" class="fil3" d="M60.75 283.49c0,0 4.93,34.83 34.52,38.22 0,0 -9.45,-4.62 -13.05,-15.62 0,0 4.31,-3.6 20.85,0.92 16.54,4.52 0.31,-21.98 -2.16,-23.32 -2.47,-1.34 -7.91,-6.16 -13.97,-7.91 -6.06,-1.75 -27.22,0.82 -26.2,7.7z"/>
    <path id="_283855456" class="fil4" d="M55.78 262.91c0,0 4.94,18.67 5.14,29.95 0.2,11.28 -2.4,19.71 8.38,25.71 10.78,6 14.37,11.57 13.77,19.57 -0.85,11.31 11.06,20.86 19.92,10.81 -7.37,2.64 -16.56,-2.93 -16.84,-13.79 -0.2,-8.02 -2.99,-13.26 -13.77,-19.26 -10.78,-6 -9.75,-14.53 -9.92,-24.27 -0.18,-10.1 -6.32,-18.78 -6.68,-28.71z"/>
    <path id="_283855624" class="fil1" d="M87.93 289.92c0,0 -12.94,17.07 7.88,31.83 -19.63,-6.54 -21.74,-24.54 -15.31,-38.86l7.42 7.03 0 -0z"/>
    <path id="_283855720" class="fil1" d="M88.11 244.13c-15.97,-6.85 -42.64,-18.13 -56.19,-20.7 -2.72,-0.52 -5.01,0.94 -6.28,2.09 -7.78,7.1 0.38,19.95 7.08,24.48 1.94,3.75 4.99,7.1 7.25,10.62 3.29,5.13 18.31,22.53 23.93,27 11.58,9.19 30.41,8.26 39.69,21.09 1.4,1.94 3.4,1.04 5.87,1.05 7.05,0.04 9.82,-10.48 10.9,-15.86 1.77,-8.82 1.87,-18.77 0.34,-27.62 -0.79,-4.57 -2.05,-9.09 -3.94,-13.33l-0.37 -2.91c-11.52,-0.46 -17.71,-1.38 -28.29,-5.92l-0 0z"/>
    <path id="_283855840" class="fil5" d="M111.45 255.87c-14.85,0.46 -19.08,-1.66 -32.62,-7.53 -16.48,-7.15 -38.55,-16.59 -43.48,-18 -8.09,-2.32 -7.69,10.14 3.64,17.08 6.7,13.26 15.38,24.36 24.81,32.4 2.75,2.35 7.04,7.32 19.47,10.25 0,0 16.17,3.33 22.24,11.72 6.06,8.39 15.59,-24.25 5.93,-45.92l0 -0z"/>
    <path id="_283855936" class="fil6" d="M95.99 280.92c0,0 -16.54,2.77 -30,-4.73 0,0 3.29,10.38 21.88,13.25 18.59,2.88 8.12,-8.53 8.12,-8.53z"/>
    <path id="_283856056" class="fil6" d="M111.45 255.87c-7.29,0.23 -12.02,-0.17 -16.56,-1.33 0.24,9.01 -0.8,25.86 -10.68,35.74 3.53,0.85 16.11,4.33 21.3,11.5 6.06,8.39 15.59,-24.25 5.93,-45.92l0 -0z"/>
    <path id="_283856152" class="fil7" d="M105.44 255.9c-10.31,-0.29 -15.09,-2.56 -26.61,-7.56 -16.48,-7.15 -38.55,-16.59 -43.48,-18 -5.95,-1.7 -7.31,4.58 -3.1,10.79 6.55,-8.02 36.89,5.96 50.28,11.94 13.39,5.98 22.25,3.2 22.25,3.2 0.24,-0.12 0.45,-0.24 0.67,-0.36z"/>
    <path id="_283856272" class="fil4" d="M87.57 306.76c0,0 0.54,8.88 8.3,11.11 7.76,2.23 -5.17,-10.93 -8.3,-11.11z"/>
   </g>
   <g>
    <path id="_123939464" class="fil1" d="M80.68 257.37c6.72,-5.72 6.7,-15.63 -0.04,-22.14 -6.75,-6.51 -17.67,-7.16 -24.39,-1.44 -6.72,5.72 -5.69,14.91 1.06,21.42 6.75,6.51 16.66,7.87 23.38,2.16z"/>
    <circle id="_123939392" class="fil5" transform="matrix(0.929194 0.8821 -0.866349 0.775813 68.2233 248.465)" r="11.13"/>
    <path id="_123939320" class="fil6" d="M80.66 247.52c0.68,3.55 -0.36,7.19 -3.19,9.72 -4.76,4.26 -12.76,3.79 -17.87,-1.06 -3.56,-3.38 -4.77,-8 -3.56,-11.93 0.47,2.43 1.74,4.81 3.82,6.78 5.11,4.85 13.11,5.32 17.87,1.06 1.44,-1.29 2.42,-2.86 2.94,-4.57z"/>
    <circle id="_123939248" class="fil7" transform="matrix(0.904476 0.20899 -0.0950181 0.567337 69.0248 243.783)" r="11.13"/>
   </g>
   <circle id="_123939008" class="fil6" transform="matrix(2.72454 -0.725797 0.386821 1.9355 82.8672 271.282)" r="2.47"/>
   <g>
    <circle id="_123939848" class="fil1" transform="matrix(0.731727 -1.226 1.226 0.731727 77.9044 334.931)" r="7.95"/>
    <circle id="_123939776" class="fil4" transform="matrix(0.731727 -1.226 1.226 0.731727 80.4732 333.9)" r="6.51"/>
    <path id="_123939704" class="fil2" d="M77.3 326.21c2.34,-0.97 5.1,-0.85 7.44,0.54 3.94,2.35 5.23,7.46 2.88,11.4 -1.64,2.75 -4.63,4.21 -7.62,4.04 1.6,-0.66 3.01,-1.82 3.97,-3.42 2.35,-3.94 1.06,-9.05 -2.88,-11.4 -1.19,-0.71 -2.49,-1.09 -3.79,-1.16z"/>
    <circle id="_123939632" class="fil8" transform="matrix(-0.0371017 -0.600685 0.415747 -0.0256784 77.0389 334.101)" r="11.13"/>
   </g>
   <ellipse class="fil7" transform="matrix(0.781062 -0.539992 0.790536 0.437289 44.3584 243.882)" rx="4.05" ry="4.72"/>
   <g>
    <path id="_283860376" class="fil1" d="M426.96 262.94c-4.69,9.85 -8.05,19.27 -8.24,29.85 -0.22,12.11 1.52,12.71 -10.19,12.22 5.25,5.07 10.47,6.98 4.97,12.97 -2.29,2.5 -4.35,4.74 -6.08,5.69 -6.55,3.59 -12.49,8.15 -11.88,16.22 0.82,10.82 -3.94,20.94 -16.55,21.05 -4.7,0.04 -8.75,-1.78 -11.96,-5 -7.12,-7.16 -10.84,-20.69 -12.36,-28.28 -1.69,-8.41 -2.79,-19.19 -1.21,-27.67 1.63,-8.75 9.28,-16.38 16.03,-21.77 5.06,-4.04 10.62,-7.64 16.26,-10.85 1.96,-1.11 3.94,-2.18 5.94,-3.2 0.96,-0.49 2.02,-1.04 3.01,-1.44 1.37,-0.55 3.54,-0.95 5.01,-1.29 2.74,-0.62 5.48,-1.22 8.22,-1.81 4.21,-0.91 8.42,-1.8 12.63,-2.69l8.15 -1.71 -1.78 7.72z"/>
    <path id="_283860472" class="fil2" d="M417.43 262.91c0,0 -4.94,18.67 -5.14,29.95 -0.05,2.94 0.09,5.68 0.13,8.24l-12.22 0.17 9.98 11.67c-1.28,2.07 -3.25,3.95 -6.27,5.63 -10.78,6 -14.37,11.57 -13.77,19.57 0.9,12.07 -12.72,22.13 -21.65,8.52 -7.41,-11.29 -11.07,-34.2 -8.89,-46.08 2.99,-16.28 34.73,-31.71 36.13,-32.28 1.4,-0.57 21.7,-5.39 21.7,-5.39l0 0z"/>
    <path id="_283860592" class="fil3" d="M412.46 283.49c0,0 -1.22,8.62 -6.09,17.7l-6.16 0.09 3.59 4.2c-5.18,7.69 -13.3,14.79 -25.85,16.23 0,0 9.45,-4.62 13.05,-15.62 0,0 -4.31,-3.6 -20.85,0.92 -16.54,4.52 -0.31,-21.98 2.16,-23.32 2.47,-1.34 7.91,-6.16 13.97,-7.91 6.06,-1.75 27.22,0.82 26.2,7.7z"/>
    <path id="_283860688" class="fil4" d="M417.43 262.91c0,0 -4.94,18.67 -5.14,29.95 -0.05,2.94 0.09,5.68 0.13,8.24l-1.94 0.03c0.3,-2.99 0.22,-6.18 0.27,-9.5 0.18,-10.1 6.32,-18.78 6.68,-28.71zm-7.25 50.03c-1.28,2.07 -3.25,3.95 -6.27,5.63 -10.78,6 -14.37,11.57 -13.77,19.57 0.85,11.31 -11.06,20.86 -19.92,10.81 7.37,2.64 16.56,-2.93 16.84,-13.79 0.2,-8.02 2.99,-13.26 13.77,-19.26 3.18,-1.77 5.34,-3.77 6.8,-5.95l2.55 2.99z"/>
    <path id="_283860808" class="fil1" d="M385.28 289.92c0,0 12.94,17.07 -7.88,31.83 19.63,-6.54 21.74,-24.54 15.31,-38.86l-7.42 7.03 0 -0z"/>
    <path id="_283860904" class="fil1" d="M385.09 244.13c15.97,-6.85 42.64,-18.13 56.19,-20.7 2.72,-0.52 5.01,0.94 6.28,2.09 7.78,7.1 -0.38,19.95 -7.08,24.48 -1.94,3.75 -4.99,7.1 -7.25,10.62 -2.5,3.9 -6.96,10.65 -11.72,11.74 -1.49,0.34 -3.05,0.41 -4.57,0.21 0.01,2.76 -0.15,6.34 -1.73,8.44 -0.58,0.77 -1.08,1.6 -1.69,2.38 -1.24,1.58 -2.65,2.98 -4.23,4.23 -11.58,9.19 -30.41,8.26 -39.69,21.09 -1.4,1.94 -3.4,1.04 -5.87,1.05 -7.05,0.04 -9.82,-10.48 -10.9,-15.86 -1.77,-8.82 -1.87,-18.77 -0.34,-27.62 0.79,-4.57 2.05,-9.09 3.94,-13.33l0.37 -2.91c11.52,-0.46 17.71,-1.38 28.29,-5.92l0 0z"/>
    <path id="_283844248" class="fil5" d="M361.76 255.87c14.85,0.46 19.08,-1.66 32.62,-7.53 16.48,-7.15 38.55,-16.59 43.48,-18 8.09,-2.32 7.69,10.14 -3.64,17.08 0,0 -9.72,19.21 -14.77,20.37 -5.05,1.16 -15.07,-13.33 -15.07,-13.33 0,0 8,21.29 6.58,23.17 -1.41,1.88 -4.45,8.53 -21.03,12.44 0,0 -16.17,3.33 -22.24,11.72 -6.06,8.39 -15.59,-24.25 -5.93,-45.92z"/>
    <path id="_283844632" class="fil6" d="M377.22 280.92c0,0 16.54,2.77 30,-4.73 0,0 -3.29,10.38 -21.88,13.25 -18.59,2.88 -8.12,-8.53 -8.12,-8.53z"/>
    <path id="_283845328" class="fil6" d="M361.76 255.87c7.29,0.23 12.02,-0.17 16.56,-1.33 -0.24,9.01 0.8,25.86 10.68,35.74 -3.53,0.85 -16.11,4.33 -21.3,11.5 -6.06,8.39 -15.59,-24.25 -5.93,-45.92l0 -0z"/>
    <path id="_283845712" class="fil7" d="M367.77 255.9c10.31,-0.29 15.09,-2.56 26.61,-7.56 16.48,-7.15 38.55,-16.59 43.48,-18 5.95,-1.7 7.31,4.58 3.1,10.79 -6.55,-8.02 -36.89,5.96 -50.28,11.94 -13.39,5.98 -22.25,3.2 -22.25,3.2 -0.24,-0.12 -0.45,-0.24 -0.67,-0.36z"/>
    <path id="_283846408" class="fil4" d="M385.64 306.76c0,0 -0.54,8.88 -8.3,11.11 -7.76,2.23 5.17,-10.93 8.3,-11.11z"/>
    <g>
     <circle id="_123939848_0" class="fil1" transform="matrix(-0.232161 1.53105 -1.49341 -0.488393 380.275 272.816)" r="7.95"/>
     <circle id="_123939776_1" class="fil5" transform="matrix(-0.232161 1.53105 -1.49341 -0.488393 378.163 274.604)" r="6.51"/>
     <path id="_123939704_2" class="fil6" d="M384.33 282.22c-1.92,1.66 -4.66,2.24 -7.52,1.31 -4.8,-1.57 -8.09,-6.84 -7.35,-11.76 0.52,-3.44 2.87,-5.8 5.88,-6.38 -1.31,1.13 -2.23,2.77 -2.54,4.77 -0.75,4.93 2.54,10.19 7.35,11.76 1.45,0.47 2.88,0.56 4.18,0.31z"/>
     <circle id="_123939632_3" class="fil7" transform="matrix(0.274548 0.64893 -0.397877 0.134514 381.453 273.505)" r="11.13"/>
    </g>
    <g>
     <circle id="_123939848_4" class="fil1" transform="matrix(-0.853747 -1.43045 -1.43045 0.853747 410.726 306.275)" r="7.95"/>
     <circle id="_123939776_5" class="fil4" transform="matrix(-0.853747 -1.43045 -1.43045 0.853747 407.729 305.072)" r="6.51"/>
     <path id="_123939704_6" class="fil2" d="M411.44 296.1c-2.73,-1.13 -5.95,-1 -8.68,0.64 -4.6,2.75 -6.11,8.7 -3.36,13.31 1.92,3.21 5.4,4.91 8.89,4.71 -1.87,-0.77 -3.51,-2.13 -4.63,-3.99 -2.75,-4.6 -1.24,-10.56 3.36,-13.31 1.39,-0.83 2.91,-1.27 4.42,-1.36z"/>
     <circle id="_123939632_7" class="fil8" transform="matrix(0.0432886 -0.700852 -0.485075 -0.0299604 411.736 305.307)" r="11.13"/>
    </g>
    <g>
     <circle id="_123939848_8" class="fil1" transform="matrix(-0.0782177 -1.23254 -1.23254 0.0782177 396.115 331.284)" r="7.95"/>
     <circle id="_123939776_9" class="fil4" transform="matrix(-0.0782177 -1.23254 -1.23254 0.0782177 394.546 329.475)" r="6.51"/>
     <path id="_123939704_10" class="fil2" d="M400.03 324.82c-1.42,-1.67 -3.58,-2.67 -5.94,-2.52 -3.97,0.25 -6.98,3.67 -6.73,7.64 0.18,2.77 1.9,5.07 4.26,6.12 -0.97,-1.14 -1.6,-2.59 -1.7,-4.2 -0.25,-3.96 2.76,-7.38 6.72,-7.64 1.2,-0.08 2.35,0.15 3.37,0.6z"/>
     <circle id="_123939632_11" class="fil8" transform="matrix(0.266044 -0.447469 -0.309703 -0.184134 397.109 330.988)" r="11.13"/>
    </g>
    <circle class="fil6" transform="matrix(1 -0 -0.169353 1 396.187 260.568)" r="6.53"/>
    <path class="fil6" d="M430.51 252.47c0.33,0 0.65,0.01 0.97,0.04 -3.26,5.78 -8.67,14.52 -12.03,15.28 -0.03,0.01 -0.07,0.01 -0.1,0.02 -0.37,-1.14 -0.57,-2.35 -0.57,-3.61 0,-6.48 5.25,-11.73 11.73,-11.73z"/>
    <circle class="fil6" cx="416.79" cy="251.44" r="4.29"/>
   </g>
  </g>
 </g>
</svg>
