<?xml version="1.0" encoding="UTF-8"?>
<!DOCTYPE svg PUBLIC "-//W3C//DTD SVG 1.1//EN" "http://www.w3.org/Graphics/SVG/1.1/DTD/svg11.dtd">
<!-- Creator: CorelDRAW 2020 (64-Bit) -->
<svg xmlns="http://www.w3.org/2000/svg" xml:space="preserve" width="129.436mm" height="197.988mm" version="1.1" style="shape-rendering:geometricPrecision; text-rendering:geometricPrecision; image-rendering:optimizeQuality; fill-rule:evenodd; clip-rule:evenodd"
viewBox="0 0 432.58 661.69"
 xmlns:xlink="http://www.w3.org/1999/xlink"
 xmlns:xodm="http://www.corel.com/coreldraw/odm/2003">
 <defs>
  <style type="text/css">
   <![CDATA[
    .fil0 {fill:none}
    .fil6 {fill:#343546}
    .fil1 {fill:#501D33}
    .fil5 {fill:#51645C}
    .fil4 {fill:#AD8D60}
    .fil2 {fill:#DEDA81}
    .fil3 {fill:white}
   ]]>
  </style>
 </defs>
 <g id="Слой_x0020_1">
  <metadata id="CorelCorpID_0Corel-Layer"/>
  <g id="_2674696147120">
   <rect id="_119695768" class="fil0" width="432.58" height="661.69"/>
   <g>
    <path id="_124508728" class="fil1" d="M331.58 233.03c0,0 63.09,-6.78 83.99,44.82 0,0 2.03,3.69 -2.1,5.66 -2.94,1.4 -15.65,1.66 -26.24,6.86 -15.48,7.6 -9.75,18.68 -18.05,25.43 -3.01,2.45 -23.48,13.27 -31.99,15.72 0,0 -10.72,-26.91 -10.72,-51.74 0,-24.84 5.11,-46.74 5.11,-46.74z"/>
    <path id="_124508944" class="fil2" d="M331.72 239.89c0,0 56.99,-3.12 75.13,35.91 0,0 0.63,2 0.17,2.92 -0.46,0.91 -26.19,0.93 -34.99,17.42 0,0 -3.52,10.11 -4.34,11.75 -0.82,1.65 -12.71,9.15 -32.74,17.1 0,0 -9.1,-19.51 -9.65,-47.54 -0.55,-28.04 4.07,-34.22 6.41,-37.56z"/>
    <path id="_124509232" class="fil3" d="M349.15 240.76c18.31,2.28 46.03,9.95 57.7,35.05 0,0 0.63,2 0.17,2.92 -0.45,0.9 -25.55,0.93 -34.65,16.81 7.64,-16.71 27.17,-21.32 27.17,-21.32 -12.79,-24.46 -51.74,-33.3 -51.74,-33.3 0.45,-0.06 0.9,-0.1 1.35,-0.15zm22.46 56.6l-0.35 0.99c0.06,-0.21 0.13,-0.41 0.21,-0.62 0.05,-0.12 0.09,-0.24 0.14,-0.36z"/>
    <path id="_124509448" class="fil4" d="M331.72 239.89c0,0 6.5,-0.35 15.8,0.68 1.9,7.5 6.67,18.7 18.52,23.49 2.9,1.17 4.22,2.33 4.37,3.44 6.13,1.74 11.76,4.07 15.51,7.22 -18.15,8.31 -15.15,23.44 -25.62,29.99 -4.52,2.82 -20.04,8.66 -20.04,8.66l-2.99 -35.07c-0.41,0.05 -0.68,0.08 -0.77,0.08 -1.51,0 -3.2,4.7 -8.84,-2.45 -0.69,-0.87 -1.5,-1.8 -2.4,-2.76 -0.02,-24.38 4.24,-30.09 6.46,-33.25z"/>
    <path class="fil5" d="M334.16 323.14l0.21 -0c3.14,-0.04 10.33,-1.55 12.28,-5.27 -10.15,-3.67 -17.36,-11.56 -19.44,-20.19 2.13,12.63 5.45,21.74 6.96,25.46zm-7.53 -29.18c-0.56,-8.42 3.89,-17.07 15.28,-22.84 4.05,-1.82 8.98,-2.44 13.8,2.33 7.57,7.5 0.84,18.13 -4.71,18.38 -8.18,0.36 -9.33,-6.4 -5.85,-9.69 1.77,-1.68 3.6,-2.44 5.72,-3.19 -4.15,-3.66 -15.64,1.48 -15.04,11.69 0.17,2.97 2.04,7.6 4.8,9.95 6.39,5.44 7.95,1.12 12.29,4.12 -3.26,5.05 -9.26,4.52 -11.15,4.51 9.09,8.54 29.46,-4.13 29.54,-17.61 0.02,-4.09 -0.36,-5.39 -0.96,-9.04 -1.07,-6.53 1.54,-11.03 5.23,-13.12 4.55,-2.58 13.9,-1.07 14.45,6.34 4.13,-2.03 0.96,-15.3 -13.89,-17.71 -7.6,-1.23 -16.56,2.22 -20.17,-2.29 1.31,-7.73 8.78,-6.76 11.08,-6.3 -1.67,-3.12 -6.97,-4.45 -10.35,-4.92 -11.49,-1.58 -17.84,6.97 -20.8,9.04 -5.23,3.65 -8.38,3.75 -9.7,2.37 -0.69,5.19 -1.08,12.11 -0.9,21.46 0.12,5.92 0.61,11.45 1.33,16.51zm0.85 -44.76c1.09,-1.3 2.68,-2.62 5,-4.07 -1.05,-0.51 -2.14,-0.85 -3.26,-1 -0.59,1.32 -1.19,2.96 -1.73,5.07z"/>
    <path class="fil6" d="M348.91 245.08c2.53,6.94 7.49,15.08 17.14,18.98 2.9,1.17 4.22,2.33 4.37,3.44 1.92,0.54 3.78,1.14 5.56,1.81 -0.13,0.04 -0.26,0.09 -0.39,0.14 -3.93,1.59 -6.3,6.59 -5.23,13.12 0.41,2.53 0.72,3.93 0.87,5.91 -3.44,6.3 -5.1,12.58 -10.92,16.22 -2.83,1.77 -9.98,4.72 -14.92,6.68 -1.32,-0.45 -2.54,-1.16 -3.61,-2.16 1.89,0.02 7.89,0.55 11.15,-4.51 -4.34,-3 -5.9,1.32 -12.29,-4.12 -0.57,-0.49 -1.11,-1.07 -1.6,-1.73l-1.32 -15.49c3.34,-5.13 10.16,-7.07 13.15,-4.43 -2.12,0.75 -3.95,1.51 -5.72,3.19 -3.47,3.3 -2.33,10.06 5.85,9.69 5.54,-0.25 12.28,-10.88 4.71,-18.38 -4.81,-4.77 -9.74,-4.15 -13.8,-2.33 -4.63,2.35 -8.11,5.17 -10.58,8.25 -1,-0.55 -2.2,-1.6 -3.67,-3.46 -0.69,-0.87 -1.5,-1.8 -2.4,-2.76 -0.01,-7.21 0.36,-12.79 0.94,-17.16 1.33,1.38 4.47,1.28 9.7,-2.37 2.21,-1.54 6.3,-6.68 13,-8.55zm36.65 29.34c0.12,0.1 0.25,0.2 0.37,0.3 -0.09,0.04 -0.18,0.08 -0.27,0.13 -0.03,-0.14 -0.06,-0.28 -0.1,-0.43zm-58.08 -25.21c0.47,-1.81 0.97,-3.28 1.48,-4.49l0 0c0.08,-0.2 0.17,-0.39 0.25,-0.57 1.13,0.15 2.22,0.48 3.26,1 -2.31,1.44 -3.91,2.76 -5,4.06z"/>
    <path id="_124510240" class="fil1" d="M324.96 259.45c0,0 38.95,-5.08 61.9,15.81 0,0 -21.26,-12.61 -64.91,-9.6l-0.64 -4.2 3.65 -2.01z"/>
    <path id="_124519192" class="fil1" d="M345.1 263.22c0,0 8.36,15.96 8.55,19.63 0.19,3.66 -8.64,17.28 -8.64,17.28 0,0 4.32,-16.9 3.94,-17.94 -0.38,-1.03 -12.02,-18.31 -12.02,-18.31 0,0 8.17,-2.82 8.17,-0.66z"/>
   </g>
   <g>
    <path id="_124508728_0" class="fil1" d="M100.58 232.95c0,0 -63.09,-6.78 -83.99,44.82 0,0 -2.03,3.69 2.1,5.66 2.94,1.4 15.65,1.66 26.24,6.86 15.48,7.6 9.75,18.68 18.05,25.43 3.01,2.45 23.48,13.27 31.99,15.72 0,0 10.72,-26.91 10.72,-51.74 0,-24.84 -5.11,-46.74 -5.11,-46.74z"/>
    <path id="_124508944_1" class="fil2" d="M100.44 239.81c0,0 -56.99,-3.12 -75.13,35.91 0,0 -0.63,2 -0.17,2.92 0.46,0.91 26.19,0.93 34.99,17.42 0,0 3.52,10.11 4.34,11.75 0.82,1.65 12.71,9.15 32.74,17.1 0,0 9.1,-19.51 9.65,-47.54 0.55,-28.04 -4.07,-34.22 -6.41,-37.56z"/>
    <path id="_124509232_2" class="fil3" d="M83.01 240.68c-18.31,2.28 -46.03,9.95 -57.7,35.05 0,0 -0.63,2 -0.17,2.92 0.45,0.9 25.55,0.93 34.65,16.81 -7.64,-16.71 -27.17,-21.32 -27.17,-21.32 12.79,-24.46 51.74,-33.3 51.74,-33.3 -0.45,-0.06 -0.9,-0.1 -1.35,-0.15zm-22.46 56.6l0.35 0.99c-0.06,-0.21 -0.13,-0.41 -0.21,-0.62 -0.05,-0.12 -0.09,-0.24 -0.14,-0.36z"/>
    <path id="_124509448_3" class="fil4" d="M100.44 239.81c0,0 -6.5,-0.35 -15.8,0.68 -1.9,7.5 -6.67,18.7 -18.52,23.49 -2.9,1.17 -4.22,2.33 -4.37,3.44 -6.13,1.74 -11.76,4.07 -15.51,7.22 18.15,8.31 15.15,23.44 25.62,29.99 4.52,2.82 20.04,8.66 20.04,8.66l2.99 -35.07c0.41,0.05 0.68,0.08 0.77,0.08 1.51,0 3.2,4.7 8.84,-2.45 0.69,-0.87 1.5,-1.8 2.4,-2.76 0.02,-24.38 -4.24,-30.09 -6.46,-33.25z"/>
    <path class="fil5" d="M98 323.06l-0.21 -0c-3.14,-0.04 -10.33,-1.55 -12.28,-5.27 10.15,-3.67 17.36,-11.56 19.44,-20.19 -2.13,12.63 -5.45,21.74 -6.96,25.46zm7.53 -29.18c0.56,-8.42 -3.89,-17.07 -15.28,-22.84 -4.05,-1.82 -8.98,-2.44 -13.8,2.33 -7.57,7.5 -0.84,18.13 4.71,18.38 8.18,0.36 9.33,-6.4 5.85,-9.69 -1.77,-1.68 -3.6,-2.44 -5.72,-3.19 4.15,-3.66 15.64,1.48 15.04,11.69 -0.17,2.97 -2.04,7.6 -4.8,9.95 -6.39,5.44 -7.95,1.12 -12.29,4.12 3.26,5.05 9.26,4.52 11.15,4.51 -9.09,8.54 -29.46,-4.13 -29.54,-17.61 -0.02,-4.09 0.36,-5.39 0.96,-9.04 1.07,-6.53 -1.54,-11.03 -5.23,-13.12 -4.55,-2.58 -13.9,-1.07 -14.45,6.34 -4.13,-2.03 -0.96,-15.3 13.89,-17.71 7.6,-1.23 16.56,2.22 20.17,-2.29 -1.31,-7.73 -8.78,-6.76 -11.08,-6.3 1.67,-3.12 6.97,-4.45 10.35,-4.92 11.49,-1.58 17.84,6.97 20.8,9.04 5.23,3.65 8.38,3.75 9.7,2.37 0.69,5.19 1.08,12.11 0.9,21.46 -0.12,5.92 -0.61,11.45 -1.33,16.51zm-0.85 -44.76c-1.09,-1.3 -2.68,-2.62 -5,-4.07 1.05,-0.51 2.14,-0.85 3.26,-1 0.59,1.32 1.19,2.96 1.73,5.07z"/>
    <path class="fil6" d="M83.25 245c-2.53,6.94 -7.49,15.08 -17.14,18.98 -2.9,1.17 -4.22,2.33 -4.37,3.44 -1.92,0.54 -3.78,1.14 -5.56,1.81 0.13,0.04 0.26,0.09 0.39,0.14 3.93,1.59 6.3,6.59 5.23,13.12 -0.41,2.53 -0.72,3.93 -0.87,5.91 3.44,6.3 5.1,12.58 10.92,16.22 2.83,1.77 9.98,4.72 14.92,6.68 1.32,-0.45 2.54,-1.16 3.61,-2.16 -1.89,0.02 -7.89,0.55 -11.15,-4.51 4.34,-3 5.9,1.32 12.29,-4.12 0.57,-0.49 1.11,-1.07 1.6,-1.73l1.32 -15.49c-3.34,-5.13 -10.16,-7.07 -13.15,-4.43 2.12,0.75 3.95,1.51 5.72,3.19 3.47,3.3 2.33,10.06 -5.85,9.69 -5.54,-0.25 -12.28,-10.88 -4.71,-18.38 4.81,-4.77 9.74,-4.15 13.8,-2.33 4.63,2.35 8.11,5.17 10.58,8.25 1,-0.55 2.2,-1.6 3.67,-3.46 0.69,-0.87 1.5,-1.8 2.4,-2.76 0.01,-7.21 -0.36,-12.79 -0.94,-17.16 -1.33,1.38 -4.47,1.28 -9.7,-2.37 -2.21,-1.54 -6.3,-6.68 -13,-8.55zm-36.65 29.34c-0.12,0.1 -0.25,0.2 -0.37,0.3 0.09,0.04 0.18,0.08 0.27,0.13 0.03,-0.14 0.06,-0.28 0.1,-0.43zm58.08 -25.21c-0.47,-1.81 -0.97,-3.28 -1.48,-4.49l-0 0c-0.08,-0.2 -0.17,-0.39 -0.25,-0.57 -1.13,0.15 -2.22,0.48 -3.26,1 2.31,1.44 3.91,2.76 5,4.06z"/>
    <path id="_124510240_4" class="fil1" d="M107.2 259.37c0,0 -38.95,-5.08 -61.9,15.81 0,0 21.26,-12.61 64.91,-9.6l0.64 -4.2 -3.65 -2.01z"/>
    <path id="_124519192_5" class="fil1" d="M87.06 263.14c0,0 -8.36,15.96 -8.55,19.63 -0.19,3.66 8.64,17.28 8.64,17.28 0,0 -4.32,-16.9 -3.94,-17.94 0.38,-1.03 12.02,-18.31 12.02,-18.31 0,0 -8.17,-2.82 -8.17,-0.66z"/>
   </g>
  </g>
 </g>
</svg>
