<?xml version="1.0" encoding="UTF-8"?>
<!DOCTYPE svg PUBLIC "-//W3C//DTD SVG 1.1//EN" "http://www.w3.org/Graphics/SVG/1.1/DTD/svg11.dtd">
<!-- Creator: CorelDRAW 2020 (64-Bit) -->
<svg xmlns="http://www.w3.org/2000/svg" xml:space="preserve" width="129.436mm" height="197.988mm" version="1.1" style="shape-rendering:geometricPrecision; text-rendering:geometricPrecision; image-rendering:optimizeQuality; fill-rule:evenodd; clip-rule:evenodd"
viewBox="0 0 2777.84 4249.05"
 xmlns:xlink="http://www.w3.org/1999/xlink"
 xmlns:xodm="http://www.corel.com/coreldraw/odm/2003">
 <defs>
  <style type="text/css">
   <![CDATA[
    .fil2 {fill:none}
    .fil0 {fill:#501D33}
    .fil1 {fill:#88958A}
    .fil5 {fill:#AD8D60}
    .fil6 {fill:#AFC0A6}
    .fil7 {fill:#D6E6C6}
    .fil3 {fill:#DEDA81}
    .fil4 {fill:white}
   ]]>
  </style>
 </defs>
 <g id="Слой_x0020_1">
  <metadata id="CorelCorpID_0Corel-Layer"/>
  <g id="_2674591120320">
   <g id="_285110448">
    <path id="_283865536" class="fil0" d="M293.75 1529.96c0,0 -65.7,-19.23 -120.72,18.66l3.83 38.07c0,0 106.03,26.96 108.35,20.86 2.33,-6.09 8.78,-77.58 8.53,-77.59z"/>
    <path id="_283865776" class="fil1" d="M271.34 1551.09c0,0 -49.37,-14.45 -90.71,14.02l2.88 28.6c0,0 79.67,20.26 81.42,15.68 1.75,-4.58 6.6,-58.3 6.41,-58.31z"/>
    <rect id="_281930968" class="fil2" y="0" width="2777.84" height="4249.05"/>
    <path id="_283872544" class="fil0" d="M2346.26 1755.9c0,0 54.46,54.78 46.53,129.75l-39.81 16.71c0,0 -83.85,-90.6 -79.06,-96.2 4.79,-5.59 72.2,-50.51 72.34,-50.26z"/>
    <path id="_283872640" class="fil0" d="M2441.63 1621.31c0,0 76.3,12.05 114.16,77.24l-22.26 36.99c0,0 -121.17,-23.61 -120.61,-30.95 0.56,-7.34 28.44,-83.39 28.7,-83.28z"/>
    <path id="_283872760" class="fil0" d="M2497.94 1520.5c0,0 68.35,3.78 107.58,57.86l-16.31 34.61c0,0 -108.95,-9.95 -109.11,-16.47 -0.16,-6.52 17.6,-76.07 17.84,-76z"/>
    <path id="_283872880" class="fil1" d="M2337.4 1789.5c0,0 40.93,41.16 34.96,97.5l-29.91 12.56c0,0 -63.01,-68.08 -59.41,-72.28 3.6,-4.2 54.25,-37.95 54.36,-37.77z"/>
    <path id="_283873024" class="fil1" d="M2454.31 1653.65c0,0 57.34,9.06 85.79,58.04l-16.73 27.8c0,0 -91.05,-17.74 -90.63,-23.26 0.42,-5.52 21.37,-62.66 21.57,-62.58z"/>
    <path id="_283873120" class="fil1" d="M2512.02 1547.88c0,0 51.36,2.84 80.84,43.48l-12.25 26.01c0,0 -81.87,-7.47 -81.99,-12.38 -0.12,-4.9 13.22,-57.16 13.4,-57.11z"/>
    <path id="_283873240" class="fil0" d="M2059.65 1509.47c0,0 208.54,-225.87 528.11,-271.24 43.2,-6.13 53.74,1.64 50.5,49.86 -8.69,129.3 -67.04,498.84 -453.77,687.73 0,0 -35.87,-3.44 -53.31,-3.44 -17.45,0 -141.85,-271.97 -71.53,-462.9z"/>
    <path id="_283873360" class="fil3" d="M2090.84 1539.54c0,0 272.56,-239.85 503.69,-256.21 0,0 -28.46,447.05 -423.48,650.02l-31.15 4.13c0,0 -125.38,-184.25 -49.06,-397.94z"/>
    <path id="_283873480" class="fil4" d="M2213.47 1445.81c100.63,-69.23 247.74,-153.04 381.07,-162.47 0,0 -5.31,82.91 -42.85,193.49 18.44,-115.33 1.49,-150.82 1.49,-150.82 -71.29,-2.58 -245.12,74.82 -339.7,119.8z"/>
    <path id="_283873600" class="fil5" d="M2167.74 1543.49c0,0 269.44,-161.91 311.73,-159.49 42.29,2.42 32.62,67.66 32.62,67.66 0,0 -25.37,262.19 -332.27,389.06 0,0 -45.91,-204.2 -41.08,-213.86 4.83,-9.67 29,-83.37 29,-83.37z"/>
    <path id="_283873720" class="fil3" d="M2233.88 1603.88c0,0 39.8,62.72 36.18,66.34 -1.92,1.92 -14.4,26.14 -25.67,48.42 -51.88,102.54 -50.38,-168.64 -10.51,-114.76z"/>
    <path id="_283873816" class="fil0" d="M2150.81 1554.8c0,0 294.36,-204.97 369.59,-191.88 0,0 41.43,11.99 -27.26,164.63 0,0 13.97,-111.32 -10.52,-122.75 -24.49,-11.43 -331.81,150.01 -331.81,150.01z"/>
    <path id="_283873936" class="fil0" d="M2206.03 1562.88c0,0 66.85,57.94 81.26,96.66 14.41,38.72 -75.54,133.2 -75.54,133.2 0,0 40.28,-102.67 38.93,-120.3 -1.35,-17.63 -44.65,-109.56 -44.65,-109.56z"/>
    <path id="_283874104" class="fil3" d="M2420.25 1491.54c0,0 -17.52,196.92 -120.2,283.31l73.08 -12.66c0,0 68.87,-64.04 47.12,-270.65z"/>
    <path id="_283874248" class="fil0" d="M2346.62 1755.93c-11.19,26.85 -13.31,46.61 -3.41,76.21 10.33,30.88 25.35,43.35 50.35,52.84 -4.23,28.4 -11.25,48.69 -40.6,59.35 -5.08,1.7 -2.54,1.06 -7.76,1.94 -45.98,7.7 -80.52,-43.37 -93.07,-80.88 -12.55,-37.51 -15.67,-99.11 25.69,-120.61 25.79,-13.41 49.31,-6.54 68.8,11.15z"/>
    <path id="_283874344" class="fil0" d="M2441.94 1621.12c6.82,28.27 16.78,45.48 42.25,63.52 26.57,18.82 46.06,20.02 71.84,12.91 13.35,25.42 19.67,45.94 2.27,71.87 -3.1,4.37 -1.43,2.35 -5.12,6.14 -32.56,33.36 -90.6,12.54 -122.87,-10.32 -32.28,-22.86 -71.17,-70.73 -50.48,-112.51 12.9,-26.05 35.93,-34.4 62.11,-31.63z"/>
    <path id="_283874464" class="fil0" d="M2498.19 1520.31c8.55,24.32 18.87,38.59 42.94,52.21 25.11,14.21 42.4,13.52 64.49,4.94 14.05,21.21 21.47,38.74 8.45,63.16 -2.34,4.13 -1.05,2.2 -3.96,5.88 -25.71,32.33 -78.75,19.18 -109.25,1.93 -30.51,-17.26 -69.09,-55.97 -54.6,-94.66 9.04,-24.13 28.59,-33.55 51.93,-33.46z"/>
    <path id="_283874560" class="fil6" d="M2293.34 1766.09c7.38,-2.47 15.45,-1.39 23.49,2.57 -7.35,17.62 -7.21,44.29 1.94,71.66 9.74,29.13 27.17,51.47 44.73,60.11 -4.05,9.72 -10.37,16.69 -18.72,19.48 -23.48,7.85 -54.04,-20.22 -68.24,-62.69 -14.21,-42.47 -6.68,-83.28 16.8,-91.13z"/>
    <path id="_283874728" class="fil6" d="M2404.94 1660.77c4.5,-6.35 11.65,-10.24 20.48,-11.8 4.47,18.56 20.33,40 43.88,56.69 25.06,17.75 52.32,25.5 71.6,22.1 2.47,10.24 1.48,19.59 -3.61,26.78 -14.31,20.2 -55.55,15.59 -92.1,-10.3 -36.54,-25.89 -54.57,-63.27 -40.25,-83.47z"/>
    <path id="_283874848" class="fil6" d="M2469.12 1558.59c3.4,-6 9.35,-10.07 17,-12.24 5.61,15.96 21.52,33.44 43.77,46.04 23.69,13.41 48.41,17.79 65.11,13.06 3.09,8.81 3.06,17.14 -0.78,23.93 -10.81,19.1 -47.58,18.73 -82.12,-0.82 -34.54,-19.54 -53.78,-50.88 -42.98,-69.98z"/>
    <path id="_283874968" class="fil7" d="M2293.34 1766.09c7.38,-2.47 15.46,-1.39 23.5,2.57 -5.25,12.58 -6.68,29.79 -3.73,48.58 -18.26,10.84 -34.27,4.14 -43.73,-2.43 0.14,-24.47 8.66,-43.6 23.97,-48.72z"/>
    <path id="_283875064" class="fil7" d="M2404.94 1660.77c4.5,-6.35 11.66,-10.25 20.48,-11.8 3.2,13.25 12.2,27.99 25.67,41.4 -8.33,19.53 -25.22,23.58 -36.73,23.87 -14.33,-19.83 -18.75,-40.3 -9.42,-53.47z"/>
    <path id="_283875184" class="fil7" d="M2469.12 1558.59c3.4,-6 9.36,-10.08 17,-12.24 4,11.4 13.27,23.58 26.35,34.2 -5.59,17.97 -20.12,23.05 -30.24,24.34 -14.42,-16.2 -20.15,-33.85 -13.11,-46.3z"/>
    <path id="_283865104" class="fil1" d="M2332.83 1870.24c8.98,14.22 19.81,24.84 30.69,30.19 -4.05,9.73 -10.37,16.69 -18.72,19.48 -19.44,6.5 -43.72,-11.63 -59.57,-42.15 20.31,-0.42 35.81,-3.46 47.61,-7.52z"/>
    <path id="_283865224" class="fil1" d="M2498.3 1721.51c15.64,6.18 30.65,8.35 42.59,6.25 2.47,10.24 1.49,19.6 -3.61,26.78 -11.85,16.72 -42.15,16.43 -72.97,1.16 16.15,-12.33 26.86,-23.93 33.98,-34.18z"/>
    <path id="_283865320" class="fil1" d="M2556.88 1603.77c14.35,4.04 27.77,4.61 38.11,1.69 3.1,8.81 3.07,17.14 -0.78,23.93 -8.94,15.81 -35.69,18.27 -64.22,7.57 13.13,-12.32 21.53,-23.51 26.89,-33.18z"/>
    <path id="_283865440" class="fil0" d="M413.39 1732.72c0,0 -60.76,47.71 -62.05,123.08l37.46 21.45c0,0 94.3,-79.67 90.24,-85.8 -4.07,-6.13 -65.48,-58.96 -65.65,-58.73z"/>
    <path id="_283865680" class="fil1" d="M418.08 1767.16c0,0 -45.65,35.85 -46.63,92.49l28.15 16.12c0,0 70.86,-59.87 67.8,-64.48 -3.06,-4.61 -49.2,-44.3 -49.33,-44.13z"/>
    <path id="_283865896" class="fil0" d="M716.97 1503.42c0,0 -192.71,-197.17 -489.26,-260.49 -78.56,-16.77 -98.55,-14.92 -88.28,70.33 18.8,156.06 104.01,491.63 453.91,662.54 0,0 35.87,-3.44 53.31,-3.44 17.45,0 140.64,-278.01 70.32,-468.94z"/>
    <path id="_283866016" class="fil3" d="M686.99 1539.54c0,0 -272.56,-239.85 -503.69,-256.21 0,0 28.46,447.05 423.48,650.02l31.15 4.13c0,0 125.38,-184.25 49.06,-397.94z"/>
    <path id="_283866184" class="fil4" d="M564.36 1445.81c-100.63,-69.23 -247.74,-153.04 -381.07,-162.47 0,0 5.31,82.91 42.85,193.49 -18.44,-115.33 -1.49,-150.82 -1.49,-150.82 71.29,-2.58 245.12,74.82 339.7,119.8z"/>
    <path id="_283866280" class="fil5" d="M610.1 1543.49c0,0 -269.44,-161.91 -311.73,-159.49 -42.29,2.42 -32.62,67.66 -32.62,67.66 0,0 25.37,262.19 332.27,389.06 0,0 45.91,-204.2 41.08,-213.86 -4.83,-9.67 -29,-83.37 -29,-83.37z"/>
    <path id="_283866400" class="fil3" d="M543.95 1603.88c0,0 -39.8,62.72 -36.18,66.34 1.92,1.92 14.4,26.14 25.67,48.42 51.88,102.54 50.38,-168.64 10.51,-114.76z"/>
    <path id="_283866496" class="fil0" d="M627.02 1554.8c0,0 -294.36,-204.97 -369.59,-191.88 0,0 -41.43,11.99 27.26,164.63 0,0 -13.97,-111.32 10.52,-122.75 24.49,-11.43 331.82,150.01 331.82,150.01z"/>
    <path id="_283866616" class="fil0" d="M571.8 1562.88c0,0 -66.85,57.94 -81.26,96.66 -14.41,38.72 75.54,133.2 75.54,133.2 0,0 -40.28,-102.67 -38.93,-120.3 1.35,-17.63 44.65,-109.56 44.65,-109.56z"/>
    <path id="_283866712" class="fil3" d="M364.08 1470.99c0,0 19.46,218.75 133.53,314.73l-81.18 -14.07c0,0 -76.51,-71.14 -52.35,-300.66z"/>
    <path id="_283866832" class="fil0" d="M413.03 1732.71c7.82,28.01 7.51,47.89 -5.93,76.06 -14.03,29.38 -30.46,39.93 -56.44,46.28 0.73,28.7 5.21,49.7 33.04,63.87 4.84,2.31 2.39,1.36 7.46,2.87 44.69,13.26 85.22,-33.2 102.26,-68.89 17.04,-35.7 27.68,-96.44 -10.75,-122.84 -23.96,-16.46 -48.14,-12.52 -69.65,2.65z"/>
    <path id="_283867072" class="fil6" d="M464.66 1749.3c-7.02,-3.35 -15.16,-3.26 -23.63,-0.32 5.14,18.38 1.74,44.84 -10.69,70.88 -13.23,27.71 -33.26,47.76 -51.75,54.19 2.83,10.14 8.25,17.83 16.2,21.62 22.34,10.66 56.11,-13.46 75.4,-53.88 19.29,-40.41 16.82,-81.84 -5.53,-92.5z"/>
    <path id="_283867288" class="fil7" d="M464.66 1749.3c-7.02,-3.35 -15.17,-3.27 -23.63,-0.32 3.67,13.13 2.99,30.38 -2.24,48.67 16.79,12.99 33.51,8.3 43.7,2.94 2.85,-24.3 -3.26,-44.33 -17.83,-51.29z"/>
    <path id="_283867504" class="fil1" d="M412.74 1847.85c-10.65,13.02 -22.7,22.23 -34.15,26.21 2.83,10.15 8.25,17.84 16.2,21.62 18.49,8.83 44.82,-6.19 64.28,-34.55 -20.11,-2.9 -35.12,-7.81 -46.33,-13.29z"/>
    <path id="_283866952" class="fil0" d="M293.57 1529.7c-16.17,20.07 -30.66,30.09 -57.9,34.9 -28.41,5.02 -44.48,-1.4 -62.45,-16.85 -20.32,15.31 -33.16,29.36 -29.03,56.73 0.83,4.68 0.25,2.43 1.78,6.86 13.46,39.06 67.84,44.35 102.35,38.25 34.52,-6.1 83.8,-29.72 83.05,-71.03 -0.47,-25.76 -15.77,-41.16 -37.8,-48.86z"/>
    <path id="_283867168" class="fil6" d="M308.21 1575.48c-1.2,-6.79 -5.46,-12.61 -11.94,-17.21 -10.61,13.17 -31.44,24.35 -56.62,28.8 -26.8,4.74 -51.57,0.62 -65.74,-9.4 -5.85,7.27 -8.61,15.14 -7.25,22.82 3.82,21.6 38.61,33.52 77.69,26.62 39.08,-6.91 67.68,-30.03 63.86,-51.64z"/>
    <path id="_283867384" class="fil7" d="M308.21 1575.48c-1.2,-6.79 -5.46,-12.63 -11.94,-17.21 -7.58,9.41 -20.37,17.8 -36.25,23.45 -0.72,18.8 11.28,28.44 20.39,33.03 18.99,-10.46 30.29,-25.19 27.8,-39.28z"/>
    <path id="_283863304" class="fil1" d="M210.4 1588.8c-14.87,-0.98 -27.72,-4.92 -36.49,-11.12 -5.86,7.27 -8.61,15.14 -7.25,22.82 3.16,17.89 27.55,29.13 58.02,28.56 -8.27,-15.99 -12.46,-29.35 -14.29,-40.25z"/>
   </g>
  </g>
 </g>
</svg>
