<?xml version="1.0" encoding="UTF-8"?>
<!DOCTYPE svg PUBLIC "-//W3C//DTD SVG 1.1//EN" "http://www.w3.org/Graphics/SVG/1.1/DTD/svg11.dtd">
<!-- Creator: CorelDRAW 2020 (64-Bit) -->
<svg xmlns="http://www.w3.org/2000/svg" xml:space="preserve" width="129.436mm" height="197.988mm" version="1.1" style="shape-rendering:geometricPrecision; text-rendering:geometricPrecision; image-rendering:optimizeQuality; fill-rule:evenodd; clip-rule:evenodd"
viewBox="0 0 2254.62 3448.72"
 xmlns:xlink="http://www.w3.org/1999/xlink"
 xmlns:xodm="http://www.corel.com/coreldraw/odm/2003">
 <defs>
  <style type="text/css">
   <![CDATA[
    .fil0 {fill:none}
    .fil1 {fill:#501D33}
    .fil3 {fill:#AD8D60}
    .fil2 {fill:#DEDA81}
    .fil4 {fill:white}
   ]]>
  </style>
 </defs>
 <g id="Слой_x0020_1">
  <metadata id="CorelCorpID_0Corel-Layer"/>
  <g id="_2674573627312">
   <g id="_288373488">
    <rect id="_288373560" class="fil0" width="2254.62" height="3448.72"/>
    <g>
     <g>
      <path id="_283863400" class="fil1" d="M1740.76 1177.27c0,0 140.19,-40.62 161.55,-128.68 21.37,-88.06 9.42,-151.22 33.41,-157.55 23.99,-6.32 160.05,35.55 78.1,332.96 0,0 21.62,30.55 2.82,78.48 -18.79,47.93 -67.57,57.58 -87.48,153.59 -19.91,96.01 1.8,245.38 -160.5,247.75 -120.71,-278.06 -30.72,-528.71 -27.91,-526.56z"/>
      <path id="_283863616" class="fil2" d="M1986.82 981.3c21.78,56.64 37.37,166.28 -67,295.91 0,0 35.6,-14.95 53.82,-31.44 0,0 22.85,10.78 4.32,47.36 -18.53,36.58 -63.39,50.56 -84.93,172.02 -21.54,121.46 -10.61,211.58 -138.4,212.24 0,0 -66.06,-119.21 -53.76,-280.56 12.3,-161.36 27.32,-187.71 27.32,-187.71 126.65,-13.2 210.76,-90.95 219.69,-219.91 1.68,-24.33 0.82,-43.68 6.47,-48.66 6.03,-5.3 18.94,5.59 32.46,40.75z"/>
      <path id="_283863712" class="fil3" d="M1936.41 1255.39c-5.16,7.21 -10.67,14.48 -16.58,21.83 0,0 35.6,-14.95 53.82,-31.44 0,0 22.85,10.78 4.32,47.36 -17.22,34 -57.18,48.49 -80.03,147.88 -28.62,12.57 -53.49,46.67 -74.96,85.11l7.22 -173.43 17.13 -15.17c33.39,-21.76 67.5,-57.51 89.07,-82.13z"/>
      <path id="_283863832" class="fil4" d="M1986.82 981.3c21.13,54.94 36.42,159.75 -57.94,284.3 89.23,-156.08 37.95,-304.62 29.66,-326.25 6.82,0.97 17.35,13.52 28.28,41.95z"/>
      <path id="_283863928" class="fil3" d="M1840.16 1651.3c-18.09,16.54 -44.73,25.88 -85.52,26.09 0,0 -66.06,-119.21 -53.76,-280.56 12.3,-161.36 27.32,-187.71 27.32,-187.71 27.66,-2.88 53.35,-8.87 76.72,-17.79 -4.41,36.12 -8.44,114.38 32.31,150.68l5.88 39.23 10.79 53.94 -18.63 31.38c0,0 -32.96,105.84 4.89,184.74z"/>
      <path id="_283864048" class="fil2" d="M1821.39 1369.82l5.87 53.84 -24.96 82.23 49.44 -62.65c0,0 -3.92,-76.85 -30.35,-73.42z"/>
      <path id="_283864192" class="fil1" d="M1899.6 1291.55c0,0 -67.75,68.54 -211.76,104.35l8.71 33.21c0,0 159.01,-39.84 203.04,-137.57z"/>
      <path id="_283864336" class="fil1" d="M1843.78 1351.24c0,0 18.36,50.22 21.65,75.45 3.29,25.22 -71.1,91.58 -71.1,91.58 0,0 46.26,-78.95 46.95,-89.69 0.69,-10.75 -21,-62.65 -21,-62.65l23.5 -14.68z"/>
      <circle id="_283864432" class="fil3" cx="1805.48" cy="1259.93" r="26.68"/>
      <circle id="_283864552" class="fil3" cx="1837.79" cy="1300.06" r="11.99"/>
      <circle id="_283864648" class="fil3" transform="matrix(1.24901 0.179003 -0.201296 1.40456 1826.21 1530.72)" r="17.13"/>
      <ellipse id="_283864768" class="fil4" cx="1974.31" cy="1004.18" rx="15.95" ry="18.11"/>
      <ellipse id="_283864888" class="fil4" cx="1962.66" cy="1045.79" rx="8.62" ry="9.79"/>
     </g>
     <g>
      <path id="_283865032" class="fil1" d="M513.85 1177.27c0,0 -140.19,-40.62 -161.55,-128.68 -21.37,-88.06 -9.42,-151.22 -33.41,-157.55 -23.99,-6.32 -160.05,35.55 -78.1,332.96 0,0 -21.62,30.55 -2.82,78.48 18.79,47.93 67.57,57.58 87.48,153.59 19.91,96.01 -1.8,245.38 160.5,247.75 120.71,-278.06 30.72,-528.71 27.91,-526.56z"/>
      <path id="_283858960" class="fil2" d="M267.79 981.3c-21.78,56.64 -37.37,166.28 67,295.91 0,0 -35.6,-14.95 -53.82,-31.44 0,0 -22.85,10.78 -4.32,47.36 18.53,36.58 63.39,50.56 84.93,172.02 21.54,121.46 10.61,211.58 138.4,212.24 0,0 66.06,-119.21 53.76,-280.56 -12.3,-161.36 -27.32,-187.71 -27.32,-187.71 -126.65,-13.2 -210.76,-90.95 -219.69,-219.91 -1.68,-24.33 -0.82,-43.68 -6.47,-48.66 -6.03,-5.3 -18.94,5.59 -32.46,40.75z"/>
      <path id="_283859056" class="fil3" d="M318.21 1255.39c5.16,7.21 10.67,14.48 16.58,21.83 0,0 -35.6,-14.95 -53.82,-31.44 0,0 -22.85,10.78 -4.32,47.36 17.22,34 57.18,48.49 80.03,147.88 28.62,12.57 53.49,46.67 74.96,85.11l-7.22 -173.43 -17.13 -15.17c-33.39,-21.76 -67.5,-57.51 -89.07,-82.13z"/>
      <path id="_283859176" class="fil4" d="M267.79 981.3c-21.13,54.94 -36.42,159.75 57.94,284.3 -89.23,-156.08 -37.95,-304.62 -29.66,-326.25 -6.82,0.97 -17.35,13.52 -28.28,41.95z"/>
      <path id="_283859272" class="fil3" d="M414.45 1651.3c18.09,16.54 44.73,25.88 85.52,26.09 0,0 66.06,-119.21 53.76,-280.56 -12.3,-161.36 -27.32,-187.71 -27.32,-187.71 -27.66,-2.88 -53.35,-8.87 -76.72,-17.79 4.41,36.12 8.44,114.38 -32.31,150.68l-5.88 39.23 -10.79 53.94 18.63 31.38c0,0 32.96,105.84 -4.89,184.74z"/>
      <path id="_283859392" class="fil2" d="M433.22 1369.82l-5.87 53.84 24.96 82.23 -49.44 -62.65c0,0 3.92,-76.85 30.35,-73.42z"/>
      <path id="_283859488" class="fil1" d="M355.01 1291.55c0,0 67.75,68.54 211.76,104.35l-8.71 33.21c0,0 -159.01,-39.84 -203.04,-137.57z"/>
      <path id="_283859632" class="fil1" d="M410.83 1351.24c0,0 -18.36,50.22 -21.65,75.45 -3.29,25.22 71.1,91.58 71.1,91.58 0,0 -46.26,-78.95 -46.95,-89.69 -0.69,-10.75 21,-62.65 21,-62.65l-23.5 -14.68z"/>
      <circle id="_283859728" class="fil3" cx="449.13" cy="1259.93" r="26.68"/>
      <circle id="_283859848" class="fil3" cx="416.82" cy="1300.06" r="11.99"/>
      <circle id="_283859944" class="fil3" transform="matrix(-1.24901 0.179003 0.201296 1.40456 428.404 1530.72)" r="17.13"/>
      <ellipse id="_283860064" class="fil4" cx="284.07" cy="1124.6" rx="20.7" ry="23.49"/>
      <ellipse id="_283860160" class="fil4" cx="293.91" cy="1072.71" rx="8.62" ry="9.79"/>
     </g>
    </g>
   </g>
  </g>
 </g>
</svg>
