<?xml version="1.0" encoding="UTF-8"?>
<!DOCTYPE svg PUBLIC "-//W3C//DTD SVG 1.1//EN" "http://www.w3.org/Graphics/SVG/1.1/DTD/svg11.dtd">
<!-- Creator: CorelDRAW 2020 (64-Bit) -->
<svg xmlns="http://www.w3.org/2000/svg" xml:space="preserve" width="129.436mm" height="197.988mm" version="1.1" style="shape-rendering:geometricPrecision; text-rendering:geometricPrecision; image-rendering:optimizeQuality; fill-rule:evenodd; clip-rule:evenodd"
viewBox="0 0 7401.59 11321.65"
 xmlns:xlink="http://www.w3.org/1999/xlink"
 xmlns:xodm="http://www.corel.com/coreldraw/odm/2003">
 <defs>
  <style type="text/css">
   <![CDATA[
    .fil0 {fill:none}
    .fil1 {fill:#501D33}
    .fil2 {fill:#AD8D60}
    .fil7 {fill:#AEA478}
    .fil6 {fill:#D6D6A2}
    .fil3 {fill:#DEDA81}
    .fil4 {fill:#E4F6A3}
    .fil5 {fill:white}
   ]]>
  </style>
 </defs>
 <g id="Слой_x0020_1">
  <metadata id="CorelCorpID_0Corel-Layer"/>
  <g id="_2674587631728">
   <g id="_122538176">
    <rect id="_285110520" class="fil0" y="0" width="7401.59" height="11321.65"/>
    <g>
     <g>
      <path id="_283869472" class="fil1" d="M5657.4 3888.63c0,0 645.58,-493.2 1613.35,-302.28 0,0 31.37,20 0,49.87 -30.44,29 -533.78,376.64 -840.93,1238.86 -38.52,108.15 -78.22,149.6 -189.64,213.89 -123.3,71.14 -472.79,162.15 -560.04,165.1 -87.26,2.94 -536.95,-700.09 -22.74,-1365.44z"/>
      <path id="_283869592" class="fil2" d="M5637.35 4007.61c0,0 755.87,-464.84 1464.52,-358.57 0,0 -480.14,307.44 -748.64,1107.63 0,0 -47.85,177.47 -178.73,241.65 -130.88,64.18 -565.71,175.98 -565.71,175.98 0,0 -381.15,-668.71 28.56,-1166.69l-0.01 0z"/>
      <path id="_283869688" class="fil3" d="M7036.8 3697.87c-140.27,114.44 -475.46,438.56 -683.58,1058.8 0,0 -21.49,79.61 -75.01,151.48 1.5,-29.44 6.43,-61.13 15.31,-95.36 183.96,-709.75 589.48,-1083.64 589.48,-1083.64 40.27,-2.89 93.78,-14.91 153.81,-31.28z"/>
      <path id="_283869808" class="fil1" d="M5984.62 4492.08c0,0 44.01,113.41 6.51,246.26 0,0 -187.44,151.74 -194.11,160.94 -6.68,9.2 173.22,-56.75 231.08,-91.96 57.86,-35.21 98.66,-116.52 84.55,-369.71 -14.11,-253.18 -128.02,54.47 -128.02,54.47z"/>
      <path id="_283869904" class="fil1" d="M5637.35 4007.61c0,0 760.51,-472.58 1469.14,-366.31 0,0 30.04,35.5 -1.43,60.33 -691.22,226.21 -788.34,756.04 -871.95,802.36 -184.16,102.04 -554.14,196.95 -793.4,240.92 -14.06,-199.95 33.92,-538.32 197.63,-737.31l0.01 0z"/>
      <path id="_283870024" class="fil3" d="M5637.35 4007.61c0,0 677.91,-416.41 1351.35,-370.81 97.37,6.59 96.69,11.76 3.9,39.38 -43.61,12.98 -87.4,27.8 -113.42,38.42 -585.35,238.85 -625.05,660.02 -696.2,712.85 -76.73,56.99 -503.24,161.41 -503.24,161.41 0,0 -91.54,18.56 -229.4,43.9 -14.07,-199.96 23.3,-426.17 187.01,-625.15l-0.01 0z"/>
      <path id="_283870144" class="fil4" d="M6932.66 3654.83c0,0 -437.81,-42.77 -982.05,231.73 0,0 232.59,40.53 430.87,23.51 198.28,-17.01 551.19,-255.24 551.19,-255.24z"/>
      <path id="_283870264" class="fil5" d="M7061.67 3647.78c2.97,5.58 -20.33,13.88 -69.08,28.39 -43.61,12.98 -87.4,27.8 -113.42,38.42 -585.35,238.85 -625.05,660.02 -696.2,712.85 -66.97,49.73 -400.29,135.58 -484.07,156.63 52.83,-32.45 133.52,-67.41 239.86,-98.5 209.39,-61.22 237,-147.73 237,-147.73 79.65,-259.78 213.88,-391.25 213.88,-391.25 246.2,-246.8 595.88,-291.78 672.04,-298.81z"/>
      <path id="_283870360" class="fil2" d="M5637.35 4007.61c0,0 91.17,-55.97 239.76,-124.62 -13.26,153.98 -2.34,403.17 175.32,600.42 -152.42,51.5 -372.7,105.45 -372.7,105.45 0,0 -91.54,18.56 -229.4,43.9 -14.07,-199.96 23.3,-426.17 187.01,-625.15z"/>
      <path id="_283870480" class="fil1" d="M6067.43 5032.15c43.79,43.74 132.15,159.55 116.49,458.2 -3.07,58.48 25.38,73.67 72.86,36.84 106.38,-82.54 176.88,-218.39 207.63,-355.9 33.53,-149.91 -51.06,-409.27 -218.05,-435.38 -95.1,-14.87 -263,212.24 -178.93,296.24z"/>
      <path id="_283870576" class="fil6" d="M6248.37 5444.32c107.99,-104.89 237.6,-386.61 84.41,-573.85 -48.09,-58.77 -108.71,-88.25 -162.46,-21.94 -32.45,40.02 -59.16,94.28 -48.35,118.86 0.54,1.25 1.24,2.22 2.2,3.19 113.29,113.18 131.56,305.37 124.2,473.74z"/>
      <path id="_283870696" class="fil1" d="M6353.48 4700.42c49.56,1.52 194.39,37.35 320.52,197.95 31.42,39.99 51.43,27.31 63.17,-15.41 53.92,-196.23 -3.05,-447.54 -242.91,-512.35 -119.16,-15.05 -266.21,231.67 -140.79,329.81z"/>
      <path id="_283870792" class="fil6" d="M6382.17 4645.93c32.5,0.99 212.95,53.82 310.32,173.27 29.42,-121.36 -26.94,-329.41 -197.33,-384.7 -70.83,-8.95 -170.71,101.4 -112.99,211.42z"/>
      <path id="_283870936" class="fil5" d="M6149.3 4953.06c0,0 159.95,141.25 121.83,426.79 153.11,-247.7 5.37,-472.12 -121.83,-426.79z"/>
      <path id="_283871032" class="fil1" d="M6322.56 5088.9c0,0 -15.81,205.07 -96.3,350.36l27.51 45.23c0,0 132.6,-136.03 68.79,-395.58z"/>
      <path id="_283871152" class="fil7" d="M6500.95 4449.7c0,0 186.98,65.02 188.17,342.32 0,0 -36.96,-106 -175.84,-165.04 0,0 29.41,-83.32 -12.33,-177.27z"/>
      <path id="_283871248" class="fil5" d="M6474.53 4443.21c-4.24,2.89 -128.39,51.13 -84.08,184.62 0,0 54.89,6.64 84.37,-52.92 29.48,-59.56 -0.29,-131.7 -0.29,-131.7z"/>
     </g>
     <g>
      <path id="_283871392" class="fil1" d="M1781.1 3891.63c0,0 -658.47,-496.42 -1626.23,-305.5 0,0 -60.33,39.32 -28.97,69.19 30.44,28.99 549.88,373.42 857.03,1235.64 38.52,108.14 78.22,149.6 189.64,213.89 123.3,71.14 472.79,162.15 560.04,165.1 87.26,2.94 562.71,-712.97 48.49,-1378.31z"/>
      <path id="_283871512" class="fil2" d="M1775.4 4023.49c0,0 -755.88,-464.84 -1464.53,-358.57 0,0 480.14,307.44 748.64,1107.63 0,0 47.85,177.47 178.73,241.65 130.88,64.18 565.72,175.98 565.72,175.98 0,0 381.15,-668.71 -28.56,-1166.69l0.01 0z"/>
      <path id="_283871632" class="fil3" d="M375.93 3713.76c140.27,114.44 475.46,438.56 683.58,1058.8 0,0 21.49,79.61 75.01,151.48 -1.5,-29.44 -6.43,-61.13 -15.31,-95.36 -183.96,-709.75 -589.48,-1083.64 -589.48,-1083.64 -40.27,-2.89 -93.78,-14.91 -153.81,-31.28z"/>
      <path id="_283871752" class="fil1" d="M1428.13 4507.96c0,0 -44.01,113.41 -6.51,246.26 0,0 187.44,151.74 194.11,160.94 6.68,9.2 -173.22,-56.75 -231.08,-91.96 -57.86,-35.21 -98.66,-116.52 -84.55,-369.71 14.11,-253.18 128.02,54.47 128.02,54.47z"/>
      <path id="_283871848" class="fil1" d="M1775.4 4023.49c0,0 -760.52,-472.58 -1469.15,-366.31 0,0 -34.85,49.96 -3.38,74.79 691.22,197.29 793.16,741.55 876.76,787.87 184.16,102.04 554.15,196.95 793.41,240.92 14.07,-199.95 -33.92,-538.29 -197.64,-737.28l-0.01 0z"/>
      <path id="_283871968" class="fil3" d="M1775.4 4023.49c0,0 -677.92,-416.41 -1351.36,-370.81 -97.37,6.59 -96.69,11.76 -3.9,39.38 43.61,12.98 87.4,27.8 113.42,38.42 585.35,238.85 625.05,660.02 696.2,712.85 76.73,56.99 503.24,161.41 503.24,161.41 0,0 91.54,18.56 229.4,43.9 14.07,-199.96 -23.3,-426.17 -187.01,-625.15l0.01 0z"/>
      <path id="_283872064" class="fil4" d="M480.07 3670.72c0,0 437.81,-42.77 982.06,231.73 0,0 -232.59,40.53 -430.87,23.51 -198.28,-17.01 -551.19,-255.24 -551.19,-255.24z"/>
      <path id="_283872232" class="fil5" d="M351.07 3663.67c-2.97,5.58 20.33,13.88 69.08,28.39 43.61,12.98 87.4,27.8 113.42,38.42 585.35,238.85 625.05,660.02 696.2,712.85 66.97,49.73 400.3,135.58 484.08,156.63 -52.83,-32.45 -133.52,-67.41 -239.86,-98.5 -209.39,-61.22 -237.01,-147.73 -237.01,-147.73 -79.65,-259.78 -213.88,-391.25 -213.88,-391.25 -246.2,-246.8 -595.88,-291.78 -672.04,-298.81z"/>
      <path id="_283872328" class="fil2" d="M1775.4 4023.49c0,0 -91.17,-55.97 -239.76,-124.62 13.26,153.98 2.34,403.17 -175.33,600.42 152.43,51.5 372.7,105.45 372.7,105.45 0,0 91.54,18.56 229.4,43.9 14.07,-199.96 -23.3,-426.17 -187.01,-625.15z"/>
     </g>
    </g>
   </g>
  </g>
 </g>
</svg>
