<?xml version="1.0" encoding="UTF-8"?>
<!DOCTYPE svg PUBLIC "-//W3C//DTD SVG 1.1//EN" "http://www.w3.org/Graphics/SVG/1.1/DTD/svg11.dtd">
<!-- Creator: CorelDRAW 2020 (64-Bit) -->
<svg xmlns="http://www.w3.org/2000/svg" xml:space="preserve" width="156.003mm" height="224.002mm" version="1.1" style="shape-rendering:geometricPrecision; text-rendering:geometricPrecision; image-rendering:optimizeQuality; fill-rule:evenodd; clip-rule:evenodd"
viewBox="0 0 853.73 1225.86"
 xmlns:xlink="http://www.w3.org/1999/xlink"
 xmlns:xodm="http://www.corel.com/coreldraw/odm/2003">
 <defs>
  <style type="text/css">
   <![CDATA[
    .fil0 {fill:#684351}
    .fil1 {fill:#815A5C}
    .fil2 {fill:#A47D6E}
    .fil3 {fill:#BC9C83}
    .fil4 {fill:#D3BE9C}
   ]]>
  </style>
 </defs>
 <g id="Layer_x0020_1">
  <metadata id="CorelCorpID_0Corel-Layer"/>
  <g id="_2845751907456">
   <g id="_2444065433920">
    <g id="_166592776">
     <polygon id="_123021328" class="fil0" points="-0,0 853.71,0 853.71,1225.84 -0,1225.84 "/>
     <path id="_88452848" class="fil1" d="M853.71 218.91c-119.17,-90.8 -267.9,-144.77 -429.25,-144.77 -159.18,0 -306.11,52.49 -424.46,141.09l0 1010.58 853.71 0 0 -1006.92 0 0 0 0.02z"/>
     <path id="_123036688" class="fil2" d="M853.71 435.59c-108.97,-109.6 -259.86,-177.47 -426.59,-177.47 -166.99,0 -318.12,68.11 -427.12,178.04l0 789.68 853.71 0 0 -790.23 0 0 0 -0.02z"/>
     <path id="_119801488" class="fil3" d="M853.71 654.98c-95.13,-130.62 -249.2,-215.54 -423.1,-215.54 -178.54,0 -336.21,89.52 -430.59,226.11l0 560.31 853.71 0 0 -570.86 0 0 -0.02 -0.02z"/>
     <path id="_123037312" class="fil4" d="M787.97 1225.84c28.64,-55.5 44.82,-118.46 44.82,-185.2 0,-223.34 -181.12,-404.46 -404.46,-404.46 -223.33,0 -404.46,181.12 -404.46,404.46 0,66.74 16.18,129.7 44.82,185.2l719.28 0 0 0z"/>
     <path id="_123011392" class="fil0" d="M836.94 180.4c0,-24.08 -19.53,-43.63 -43.63,-43.63 -24.08,0 -43.63,19.53 -43.63,43.63 0,24.08 19.53,43.63 43.63,43.63 24.08,0 43.63,-19.53 43.63,-43.63z"/>
     <path id="_123037168" class="fil1" d="M817.26 180.4c0,-13.23 -10.72,-23.95 -23.95,-23.95 -13.23,0 -23.95,10.72 -23.95,23.95 0,13.23 10.72,23.95 23.95,23.95 13.23,0 23.95,-10.72 23.95,-23.95z"/>
     <path id="_123023224" class="fil2" d="M112.93 595.36c0,-26.48 -21.46,-47.94 -47.94,-47.94 -26.48,0 -47.94,21.46 -47.94,47.94 0,26.48 21.46,47.94 47.94,47.94 26.48,0 47.94,-21.46 47.94,-47.94z"/>
     <path id="_123036016" class="fil3" d="M92.03 595.36c0,-14.93 -12.1,-27.03 -27.03,-27.03 -14.93,0 -27.03,12.1 -27.03,27.03 0,14.93 12.1,27.03 27.03,27.03 14.93,0 27.03,-12.1 27.03,-27.03z"/>
    </g>
   </g>
  </g>
 </g>
</svg>
