<?xml version="1.0" encoding="UTF-8"?>
<!DOCTYPE svg PUBLIC "-//W3C//DTD SVG 1.1//EN" "http://www.w3.org/Graphics/SVG/1.1/DTD/svg11.dtd">
<!-- Creator: CorelDRAW 2020 (64-Bit) -->
<svg xmlns="http://www.w3.org/2000/svg" xml:space="preserve" width="161.909mm" height="176.792mm" version="1.1" style="shape-rendering:geometricPrecision; text-rendering:geometricPrecision; image-rendering:optimizeQuality; fill-rule:evenodd; clip-rule:evenodd"
viewBox="0 0 2355.28 2571.78"
 xmlns:xlink="http://www.w3.org/1999/xlink"
 xmlns:xodm="http://www.corel.com/coreldraw/odm/2003">
 <defs>
  <style type="text/css">
   <![CDATA[
    .fil0 {fill:none}
    .fil1 {fill:#501D33}
    .fil7 {fill:#7F7A8A}
    .fil4 {fill:#81454F}
    .fil2 {fill:#9D6E5B}
    .fil8 {fill:#A6ABB0}
    .fil5 {fill:#B1B1B4}
    .fil3 {fill:#D7AC80}
    .fil6 {fill:white}
   ]]>
  </style>
 </defs>
 <g id="Слой_x0020_1">
  <metadata id="CorelCorpID_0Corel-Layer"/>
  <g id="_2810254271280">
   <rect class="fil0" width="2355.28" height="2571.78"/>
   <g id="_134096192">
    <g>
     <path id="_134097344" class="fil1" d="M733.5 1286.26c0,0 473.33,125.53 888.1,-17.25 0,0 2.86,76.83 -16.39,131.93 0,0 -450.84,127.99 -860.7,-6.09 -11.88,-39.76 -11.78,-67.07 -11.02,-108.58z"/>
     <path id="_134097392" class="fil2" d="M753.63 1313.42c0.18,21.86 1.7,41.65 7.34,64.11 180.54,56.99 378.16,66.44 564.87,49.19 66.24,-6.12 132.52,-15.69 197.85,-28.94 21.18,-4.3 43.04,-8.91 64.21,-14.45 1.61,-9.13 2.88,-18.36 3.98,-27.52 2.24,-18.76 3.91,-38.18 4.96,-57.48 -184.85,58.22 -386.9,69.37 -577.94,54.23 -69.92,-5.55 -139.92,-14.69 -208.98,-27.66 -18.56,-3.49 -37.57,-7.19 -56.29,-11.47z"/>
     <path id="_134097536" class="fil3" d="M753.63 1313.42c0.04,5.36 0.17,10.59 0.41,15.77 18.13,4.1 36.51,7.68 54.47,11.06 69.4,13.04 139.75,22.23 210.02,27.8 190.77,15.13 392.46,4.15 577.27,-53.39 0.39,-5.44 0.74,-10.88 1.04,-16.32 -184.85,58.22 -386.9,69.37 -577.94,54.23 -69.92,-5.55 -139.92,-14.69 -208.98,-27.66 -18.56,-3.49 -37.57,-7.19 -56.29,-11.47z"/>
     <path id="_134097584" class="fil4" d="M762.98 1346.4l7.37 27.03c0,0 388.94,112.14 805.35,0.66l2.17 -28.5c0,0 -308.75,102.28 -814.9,0.82l0 0z"/>
     <path class="fil1" d="M1061.92 1307.2l208.02 0c22.1,-0 40.02,17.92 40.02,40.02l0 91.73c0,22.1 -17.92,40.02 -40.02,40.02l-208.02 0c-22.1,-0 -40.02,-17.92 -40.02,-40.02l-0 -91.73c0,-22.1 17.92,-40.02 40.02,-40.02z"/>
     <path class="fil5" d="M1061.91 1327.56l208.02 0c10.85,-0 19.66,8.8 19.66,19.65l0 91.73c0,10.85 -8.8,19.65 -19.66,19.65l-208.02 0c-10.85,-0 -19.65,-8.8 -19.65,-19.66l-0 -91.73c0,-10.85 8.8,-19.66 19.66,-19.66z"/>
     <path id="_134090768" class="fil6" d="M1061.91 1327.56l208.02 0c10.81,0 19.66,8.84 19.66,19.66l0 8.58c0,-10.81 -8.84,-19.66 -19.66,-19.66l-208.02 0c-10.81,0 -19.66,8.84 -19.66,19.66l0 -8.58c0,-10.81 8.84,-19.66 19.66,-19.66z"/>
     <path id="_134085032" class="fil7" d="M1285 1386.95l0 47.61c0,10.3 -8.57,18.73 -19.06,18.73l-201.67 0c-10.48,0 -19.06,-8.43 -19.06,-18.73l0 -47.61 239.78 0z"/>
     <rect id="_134085248" class="fil1" x="1069.9" y="1355.21" width="192.06" height="75.76"/>
     <rect id="_134090024" class="fil4" x="1084.06" y="1367.23" width="163.75" height="52.32"/>
     <path class="fil1" d="M1025.16 1363.42l103.31 0c16.92,-0 30.64,13.28 30.64,29.67l0 0c0,16.38 -13.72,29.67 -30.63,29.67l-103.31 0c-16.92,0 -30.63,-13.29 -30.63,-29.67l-0 0c0,-16.38 13.72,-29.67 30.64,-29.67z"/>
     <path class="fil8" d="M1024.53 1380.28l104.56 0c7.26,0 13.15,5.74 13.15,12.81l-0 0c0,7.07 -5.89,12.81 -13.15,12.81l-104.56 0c-7.26,-0 -13.15,-5.74 -13.15,-12.81l-0 0c0,-7.08 5.89,-12.81 13.15,-12.81z"/>
     <path class="fil6" d="M1024.16 1384.12l93.99 0c2.9,-0 5.24,2.35 5.24,5.24l-0 0.11c0,2.89 -2.35,5.24 -5.24,5.24l-93.99 0c-2.89,-0 -5.24,-2.35 -5.24,-5.24l-0 -0.1c0,-2.9 2.35,-5.24 5.24,-5.24z"/>
     <g>
      <path id="_134090936" class="fil2" d="M1356.64 1314.83l63.3 -9.76c0,0 22.9,54.88 11.78,129.97l-1.68 5.72 -59.26 15.15c0,0 15.15,-87.88 -14.14,-141.08z"/>
      <path id="_134085200" class="fil1" d="M1414.62 1298.28c0,0 16.96,50.89 13.88,151.11 0,0 19.97,-36.79 17.27,-80.28 -2.69,-43.48 -31.15,-70.84 -31.15,-70.84z"/>
      <path id="_134089952" class="fil1" d="M1354.69 1312.09c0,0 16.96,50.89 13.88,151.11 0,0 17.27,-36.12 14.57,-79.6 -2.69,-43.48 -28.45,-71.51 -28.45,-71.51z"/>
      <path id="_134090432" class="fil4" d="M1388.49 1378.13c0,0 3.51,44.11 -19.05,80.47l50.84 -7.07c0,0 13.47,-39.39 0.67,-77.78l-32.46 4.38z"/>
      <path id="_134085920" class="fil3" d="M1368.09 1319.2c0,0 13.81,13.13 20.54,42.76l27.95 -2.02c0,0 3.7,-25.93 -4.04,-47.81l-37.71 7.07 -6.74 0z"/>
     </g>
     <g>
      <path id="_134085464" class="fil2" d="M986.26 1314.83l-63.3 -9.76c0,0 -22.9,54.88 -11.78,129.97l1.68 5.72 59.26 15.15c0,0 -15.15,-87.88 14.14,-141.08z"/>
      <path id="_134079536" class="fil1" d="M928.27 1298.28c0,0 -16.96,50.89 -13.88,151.11 0,0 -19.97,-36.79 -17.27,-80.28 2.69,-43.48 31.15,-70.84 31.15,-70.84z"/>
      <path id="_134084408" class="fil1" d="M988.21 1312.09c0,0 -16.96,50.89 -13.88,151.11 0,0 -17.27,-36.12 -14.57,-79.6 2.69,-43.48 28.45,-71.51 28.45,-71.51z"/>
      <path id="_134074040" class="fil4" d="M954.42 1378.13c0,0 -3.51,44.11 19.05,80.47l-50.84 -7.07c0,0 -13.47,-39.39 -0.67,-77.78l32.46 4.38z"/>
      <path id="_134090816" class="fil3" d="M974.82 1319.2c0,0 -13.81,13.13 -20.54,42.76l-27.95 -2.02c0,0 -3.7,-25.93 4.04,-47.81l37.71 7.07 6.74 0z"/>
     </g>
    </g>
    <path id="_134081360" class="fil1" d="M1522.99 1309.96c0,0 16.38,21.29 10.65,99.92l13.8 -1.36c6.03,-23.02 8.26,-69.77 -10.63,-102.19l-13.81 3.63z"/>
    <path id="_134090696" class="fil1" d="M820.22 1310.87c0,0 -15.69,21.81 -7.45,100.21l-13.84 -0.92c-6.77,-22.82 -10.49,-69.47 7.36,-102.48l13.92 3.19z"/>
    <path id="_134101040" class="fil1" d="M1466.58 1317.32c0,0 16.38,21.29 10.65,99.92l13.8 -1.36c6.03,-23.02 8.26,-69.77 -10.63,-102.19l-13.81 3.63z"/>
    <path id="_134096240" class="fil1" d="M876.84 1316.42c0,0 -15.69,21.81 -7.45,100.21l-13.84 -0.92c-6.77,-22.82 -10.49,-69.47 7.36,-102.48l13.92 3.19z"/>
   </g>
  </g>
 </g>
</svg>
