<?xml version="1.0" encoding="UTF-8"?>
<!DOCTYPE svg PUBLIC "-//W3C//DTD SVG 1.1//EN" "http://www.w3.org/Graphics/SVG/1.1/DTD/svg11.dtd">
<!-- Creator: CorelDRAW 2020 (64-Bit) -->
<svg xmlns="http://www.w3.org/2000/svg" xml:space="preserve" width="161.908mm" height="176.791mm" version="1.1" style="shape-rendering:geometricPrecision; text-rendering:geometricPrecision; image-rendering:optimizeQuality; fill-rule:evenodd; clip-rule:evenodd"
viewBox="0 0 13175.01 14386.14"
 xmlns:xlink="http://www.w3.org/1999/xlink"
 xmlns:xodm="http://www.corel.com/coreldraw/odm/2003">
 <defs>
  <style type="text/css">
   <![CDATA[
    .fil0 {fill:none}
    .fil2 {fill:#501D33}
    .fil7 {fill:#A46358}
    .fil1 {fill:#C7A989}
    .fil6 {fill:#501D33;fill-rule:nonzero}
    .fil5 {fill:#A46358;fill-rule:nonzero}
    .fil3 {fill:#CC966F;fill-rule:nonzero}
    .fil4 {fill:#E3C397;fill-rule:nonzero}
   ]]>
  </style>
 </defs>
 <g id="Слой_x0020_1">
  <metadata id="CorelCorpID_0Corel-Layer"/>
  <g id="_2810278989872">
   <rect class="fil0" y="0" width="13175.02" height="14386.14"/>
   <g id="_103539144">
    <path id="_103541328" class="fil1" d="M4348.89 7608.63l-13.22 -105.18c1370.69,421.1 3223.35,421.09 4594.03,0l-7.2 57.31c-2293.29,678.48 -4347.7,114.15 -4573.62,47.87l0.01 0z"/>
    <path id="_103541256" class="fil2" d="M4329.01 7712.36c0,0 628.34,302.36 1695.77,375.59 0,0 -781.48,55.05 -1678.74,-213.08l-10.35 -101.75 -6.68 -60.75z"/>
    <path id="_103541184" class="fil2" d="M4276.92 7304.62c145.89,36.33 296.03,65.86 443.93,92.81 373.47,68.04 752.39,116.86 1131.07,146.5 1024.51,80.19 2145.37,25.48 3114.65,-329.79l21.63 -7.93 23.09 0.71c48.54,1.49 93.93,18.19 128.98,51.5 75.77,72.03 70.52,186.3 48.01,278.9 -19.15,78.8 -64.71,210.12 -151.09,239.31 -927.85,313.55 -1960.36,386.73 -2935.99,336.35 -388.58,-20.06 -776.95,-60.14 -1161.45,-118.5 -231.98,-35.22 -464.55,-76.88 -693.44,-128.16 -106.11,-23.77 -162.68,-155.89 -179.29,-249.99 -21.15,-119.76 9.94,-249.08 131.66,-304.56l37.81 -17.24 40.45 10.07 -0.01 0z"/>
    <path id="_103541112" class="fil3" d="M4248.07 7414.98c7.67,1.91 2657.85,676.13 4759.54,-94.21 159.86,4.91 33.51,333.96 -8.63,348.19 -1924.01,650.19 -4211.49,201.69 -4726.57,86.32 -68.36,-15.31 -161.62,-277.72 -24.35,-340.3z"/>
    <path id="_103541040" class="fil4" d="M4285.32 7424.03c324.35,76.95 2723.73,606.1 4674.88,-86.43 -241.26,116.61 -959.56,406.41 -2175.86,428.33 -1272.45,22.92 -2219.66,-250.51 -2499,-341.89l-0.02 0z"/>
    <path id="_103540968" class="fil5" d="M9048.55 7338.42c33.76,93.66 -46.32,287.52 -78.05,298.37 -1900.86,650.19 -4160.82,201.69 -4669.7,86.32 -51.33,-11.64 -116.82,-165.98 -85.79,-266.87 16.14,70.84 53.72,133.84 85.79,141.11 508.88,115.37 2768.84,563.87 4669.7,-86.31 20.4,-6.97 60.77,-89.61 78.05,-172.62z"/>
    <path id="_103540896" class="fil4" d="M8851.42 7374.8c-15.07,66.46 -62.72,226.52 -196.84,398.07 -45.94,12.32 -91.99,24.06 -138.16,35.28 151.36,-157.16 216.45,-315.05 243.14,-404.03 30.72,-9.49 61.33,-19.26 91.86,-29.32zm-3967.45 166.51c26.91,4.42 54.63,8.85 82.94,13.29 -38.03,72.15 -113.29,182.42 -253.08,287.59 -35.32,-6.14 -69.14,-12.21 -101.47,-18.15 149.96,-100.39 230.57,-209.54 271.62,-282.73zm776.29 100.34c27.29,2.58 54.88,5.1 82.71,7.53 -30.69,75.48 -92.97,189.28 -215.75,305.07 -33.28,-3.42 -66.21,-6.92 -98.59,-10.52 132.23,-112.78 198.89,-226.11 231.64,-302.07zm811.86 46.5c28.54,0.52 57.24,0.9 86.04,1.18 -29.34,78.06 -90.35,196.35 -215.03,319.43 -32.74,-0.98 -65.27,-2.12 -97.6,-3.38 128.02,-118.2 193.7,-236.59 226.59,-317.23zm824.03 -21.12c29.2,-2.12 58.43,-4.32 87.73,-6.77 -26.27,77.26 -85.38,206.23 -212.9,339.08 -38.71,2.13 -77.31,4.04 -115.77,5.66 141.01,-127.08 209.06,-255.47 240.94,-337.97zm752.88 -92.55c29.9,-5.31 59.79,-10.81 89.66,-16.54 -20.27,72.45 -73.29,214.34 -202.8,363.72 -41.73,6.32 -83.45,12.35 -125.14,17.94 144.63,-140.44 209.94,-281.27 238.29,-365.12z"/>
    <path id="_103540824" class="fil6" d="M8809.64 7331.02c-0.13,0.94 -43.47,326.55 -372.89,606.93l-53.01 -61.66c305.72,-260.2 344.98,-555.86 345.11,-556.71l80.79 11.44zm-3856.16 131.4c-0.21,0.75 -72.4,262.69 -424.94,456.82l-47.19 -56.19c327.18,-180.16 392.65,-418.02 392.85,-418.69l79.28 18.06zm769.45 85.42c-0.14,0.77 -43.47,268.94 -372.89,499.85l-53.01 -50.79c305.7,-214.3 344.98,-457.79 345.11,-458.49l80.79 9.42zm813.17 37.28c-0.13,0.82 -34.32,270.11 -363.74,517.73l-62.14 -36.17c305.7,-229.8 344.97,-490.91 345.1,-491.66l80.79 10.1zm819.28 -9.15c-0.13,0.82 -43.46,288.4 -372.88,536.02l-53.01 -54.46c305.7,-229.8 344.98,-490.91 345.11,-491.66l80.78 10.11zm746.75 -79.49c-0.13,0.87 -43.47,303.96 -372.89,564.95l-53.01 -57.4c305.71,-242.2 344.98,-517.41 345.11,-518.2l80.79 10.65z"/>
    <path id="_103540752" class="fil2" d="M8228.28 7939.91c-42.43,-81.95 -10.37,-182.96 71.59,-225.42 81.97,-42.41 182.92,-10.44 225.32,71.45 14.77,28.19 28.4,57.46 41.59,86.39 34.2,75.03 65.41,151.65 94.09,228.93 91.69,247.07 159.58,507.01 194.58,768.2 12.44,91.42 -51.82,175.9 -143.24,188.37 -91.42,12.43 -175.95,-51.85 -188.4,-143.34 -31.69,-236.47 -92.93,-471.96 -175.82,-695.62 -34.42,-92.86 -74.04,-190.76 -119.71,-278.96z"/>
    <path id="_103540680" class="fil3" d="M8291.17 7922.23c-25.72,-49.68 -6.31,-110.81 43.36,-136.54 49.68,-25.72 110.81,-6.31 136.54,43.36 0.68,1.31 237.11,450.47 315.62,1036.37 7.56,55.49 -31.3,106.61 -86.79,114.17 -55.5,7.55 -106.62,-31.3 -114.17,-86.8 -73.89,-551.35 -293.94,-969.35 -294.56,-970.57z"/>
    <path id="_103540608" class="fil4" d="M8291.17 7922.25c-22.94,-44.29 -10.01,-97.66 28.24,-126.96 -18.02,29.28 -20.68,67 -3.71,99.76 0.62,1.2 220.67,419.2 294.56,970.55 7.57,55.49 58.67,94.36 114.17,86.81 18.16,-2.48 34.53,-9.63 48.08,-20.07 -15.37,24.9 -41.35,43 -72.6,47.26 -55.5,7.54 -106.6,-31.33 -114.18,-86.81 -73.88,-551.35 -293.94,-969.35 -294.56,-970.55z"/>
    <path id="_103540536" class="fil7" d="M8471.53 7994.95c0,0 205.34,556.98 214.4,893.48 0,0 15.3,39.75 49.26,26.06 33.97,-13.7 -28.24,-523.92 -201.23,-911.55l-29.95 -26.67 -32.48 18.68z"/>
    <path id="_103540464" class="fil5" d="M8291.17 7922.25c-25.73,-49.69 -6.31,-110.83 43.36,-136.56 49.7,-25.71 110.82,-6.3 136.54,43.39 0.27,0.5 36.52,69.41 85.31,188.18 -64.33,47.69 -119.98,97.56 -162.49,138.91 -56.72,-146.48 -102.43,-233.38 -102.72,-233.92z"/>
    <path id="_103540392" class="fil6" d="M8354.57 8094.29c0.45,-0.03 155.66,-11.3 327.9,141.82l-21.3 36.25c-159.85,-142.09 -300.77,-131.82 -301.18,-131.79l-5.42 -46.28z"/>
    <path id="_103540320" class="fil6" d="M8455.22 8500.83c0.46,-0.02 155.67,-11.3 327.91,141.82l-21.3 36.25c-159.85,-142.09 -300.78,-131.82 -301.18,-131.79l-5.43 -46.28z"/>
    <path id="_103540248" class="fil2" d="M7995.64 7963.59c-22.88,-119.37 55.43,-234.92 174.84,-257.84 119.38,-22.86 234.88,55.32 257.77,174.61 8.1,41.13 14.34,83.19 20.16,124.67 15.09,107.54 25.8,215.98 33.09,324.31 23.25,346.33 11.63,700 -42,1042.94 -18.52,120.09 -131.31,202.71 -251.43,184.23 -120.09,-18.54 -202.76,-131.38 -184.23,-251.57 48.55,-310.47 59.41,-630.77 38.5,-944.26 -8.68,-130.16 -22.06,-268.62 -46.69,-397.09z"/>
    <path id="_103540176" class="fil3" d="M8081.68 7964.81c-13.87,-72.37 33.53,-142.3 105.9,-156.17 72.37,-13.88 142.3,33.53 156.17,105.89 0.37,1.9 130.71,657.64 10.42,1426.9 -11.25,72.9 -79.46,122.91 -152.36,111.66 -72.9,-11.24 -122.9,-79.45 -111.66,-152.36 113.2,-723.92 -8.13,-1334.15 -8.47,-1335.93z"/>
    <path id="_103540104" class="fil4" d="M8081.68 7964.81c-12.38,-64.52 23.94,-127.07 83.21,-149.74 -33.72,30.23 -51.21,76.87 -42.05,124.59 0.33,1.74 121.66,612 8.47,1335.9 -11.22,72.9 38.75,141.13 111.66,152.38 23.86,3.67 47.2,0.76 68.22,-7.33 -28.74,25.68 -68.31,38.81 -109.38,32.48 -72.91,-11.25 -122.88,-79.48 -111.66,-152.38 113.19,-723.9 -8.14,-1334.16 -8.47,-1335.9z"/>
    <path id="_103540032" class="fil7" d="M8282.18 8124.18c0,0 50.7,780.23 -63.88,1208.56 0,0 4.43,55.93 52.45,51.35 48.02,-4.57 160.55,-672.17 87.29,-1226.45l-27.84 -44.89 -48.02 11.43z"/>
    <path id="_103539960" class="fil5" d="M8081.68 7964.81c-13.88,-72.39 33.53,-142.31 105.89,-156.2 72.39,-13.86 142.3,33.55 156.18,105.92 0.15,0.73 20.12,101.33 37.25,269.57 -99.1,36.14 -188.05,78.27 -257.22,114.57 -16.76,-206.22 -41.95,-333.07 -42.1,-333.86z"/>
    <path id="_103539888" class="fil6" d="M8097.29 8205.82c0.58,0.14 200.81,44.02 360.96,301.89l-40.48 37.81c-148.63,-239.3 -330.44,-279.1 -330.96,-279.23l10.49 -60.47z"/>
    <path id="_103539816" class="fil6" d="M8072.14 8756.89c0.58,0.14 200.81,44.02 360.96,301.89l-40.48 37.81c-148.63,-239.3 -330.44,-279.1 -330.96,-279.23l10.49 -60.47z"/>
    <path id="_103539744" class="fil2" d="M8176.62 7990.38c-3.1,98.17 -76.12,183.05 -176.65,197.77 -112.89,16.51 -217.86,-61.4 -234.39,-174.35 -16.36,-106.93 -1.69,-241.87 33.7,-342.74 88.35,-251.89 302.42,-365.04 559.97,-379.94 54.81,-3 106.03,15.92 145.06,49.05 33.83,-41.04 83.35,-69.12 140.36,-74.39 113.16,-10.43 213.77,72.94 224.66,186.17 8.89,88.57 -12.87,197.36 -49.91,277.03 -95.1,204.54 -293.76,288.01 -509.31,300.67 -49.47,2.91 -96.07,-12.07 -133.49,-39.26z"/>
    <path id="_103539672" class="fil3" d="M8543.14 7511.22c-6.01,-65.05 41.86,-122.64 106.91,-128.64 65.03,-6 122.64,41.87 128.64,106.9 0.11,1.23 46.3,431.76 -456.17,461.26 -65.41,3.84 -121.56,-46.07 -125.4,-111.48 -3.85,-65.41 46.06,-121.55 111.47,-125.39 255.11,-14.98 234.61,-202.12 234.56,-202.64z"/>
    <path id="_103539600" class="fil5" d="M8621.7 7854.99c-67.41,50.3 -163.15,87.73 -299.19,95.72 -65.39,3.84 -121.54,-46.07 -125.39,-111.48 -3.86,-65.4 46.06,-121.54 111.47,-125.39 46.77,-2.74 84.27,-11.3 114.34,-23.42 31.33,59.32 89.75,124.7 198.78,164.57z"/>
    <path id="_103539528" class="fil3" d="M8103.45 7949.31c9.46,64.67 -35.28,124.76 -99.95,134.23 -64.65,9.46 -124.76,-35.28 -134.22,-99.94 -0.24,-1.6 -88.71,-561.05 488.93,-594.44 65.35,-3.6 121.25,46.48 124.85,111.83 3.59,65.36 -46.48,121.26 -111.84,124.85 -316.05,18.28 -267.9,322.61 -267.78,323.48z"/>
    <path id="_103539456" class="fil5" d="M8103.47 7949.31c9.46,64.68 -35.29,124.77 -99.97,134.23 -41.4,6.06 -80.91,-10.15 -106.47,-39.54 159.68,-104.94 78.41,-362.1 220.28,-453.99 135.52,-87.77 285.27,-36.01 341.69,-10.71 -20.3,26.65 -51.7,44.55 -87.77,46.53 -316.05,18.28 -267.9,322.61 -267.76,323.48z"/>
    <path id="_103539384" class="fil4" d="M7885.3 7736.85c41.27,-155.19 158.21,-329.53 472.91,-347.72 38.77,-2.13 74.16,14.63 97.33,42.24 -370.53,-8.85 -543.14,259.05 -570.24,305.48z"/>
    <path id="_103539312" class="fil2" d="M8216.23 7675.7c0,0 -119.51,111.78 -375.87,53.1l-12.69 33.64c0,0 223.2,84.53 402.22,-31.98l0.76 -26.8 -14.41 -27.96z"/>
    <path id="_103539240" class="fil2" d="M8460.53 7671.68c0,0 92.67,-126.32 344.3,-116.49l6 -33.9c0,0 -224.99,-40.04 -372.83,101.27l4.03 25.36 18.5 23.76z"/>
    <path id="_103539168" class="fil2" d="M8293.16 7711.92c0,0 155.19,-21.56 323.47,165.78l28.49 -19.33c0,0 -128.06,-189.27 -332.44,-196.83l-15.38 20.55 -4.14 29.83z"/>
   </g>
  </g>
 </g>
</svg>
