<?xml version="1.0" encoding="UTF-8"?>
<!DOCTYPE svg PUBLIC "-//W3C//DTD SVG 1.1//EN" "http://www.w3.org/Graphics/SVG/1.1/DTD/svg11.dtd">
<!-- Creator: CorelDRAW 2020 (64-Bit) -->
<svg xmlns="http://www.w3.org/2000/svg" xml:space="preserve" width="161.908mm" height="176.791mm" version="1.1" style="shape-rendering:geometricPrecision; text-rendering:geometricPrecision; image-rendering:optimizeQuality; fill-rule:evenodd; clip-rule:evenodd"
viewBox="0 0 4796.22 5237.11"
 xmlns:xlink="http://www.w3.org/1999/xlink"
 xmlns:xodm="http://www.corel.com/coreldraw/odm/2003">
 <defs>
  <style type="text/css">
   <![CDATA[
    .fil0 {fill:none}
    .fil1 {fill:#501D33}
    .fil6 {fill:#794046}
    .fil4 {fill:#88958A}
    .fil5 {fill:#926357}
    .fil2 {fill:#AFC0A6}
    .fil7 {fill:#B08E73}
    .fil3 {fill:#D6E6C6}
   ]]>
  </style>
 </defs>
 <g id="Слой_x0020_1">
  <metadata id="CorelCorpID_0Corel-Layer"/>
  <g id="_2810145545440">
   <rect class="fil0" width="4796.22" height="5237.11"/>
   <g id="_128807232">
    <path id="_128809272" class="fil1" d="M1518.4 2687.48c0,0 775.37,161.57 1772.76,-43.23 34.92,132.73 27.67,208.12 -37.93,330.02 -447.48,81.56 -1006.59,137.25 -1728.72,-24.94 -9.14,-27.47 -42.83,-127.74 -6.11,-261.85l-0.01 0zm713.56 321.98l20.67 -249.48 248.4 19.7 14.47 242.15 -283.53 -12.37 -0 0z"/>
    <path id="_128809200" class="fil1" d="M2176.92 3014.86l3.84 -244.72c0.64,-41.68 36.61,-74.66 78.27,-73.28l256.76 5.61c41.66,0.92 74.66,36.62 73.29,78.3l-10.79 249.31c-1.8,41.63 -36.62,74.64 -78.27,73.26l-249.83 -10.19c-41.65,-1.72 -74.64,-36.61 -73.28,-78.3l0 0zm130.23 -57.39l140.41 6.65 4.4 -128.05 -140.28 -4.65 -4.53 126.04z"/>
    <path id="_128809128" class="fil2" d="M2212.22 3006.6l7.56 -228.43c0.86,-26.94 23.64,-48.22 50.55,-47.33l228.44 7.55c26.93,0.87 48.22,23.64 47.33,50.58l-7.55 228.41c-0.89,26.94 -23.65,48.24 -50.58,47.35l-228.41 -7.57c-26.94,-0.88 -48.23,-23.64 -47.34,-50.57zm69.46 -17.56l188.71 6.24 6.26 -188.75 -188.73 -6.22 -6.24 188.73z"/>
    <path id="_128809056" class="fil3" d="M2242.76 2738.35c7.99,-5.05 17.49,-7.84 27.59,-7.51l228.44 7.55c7.17,0.23 13.96,2.03 20.04,5.04 -35.45,14.81 -147.12,51.76 -276.07,-5.09z"/>
    <path id="_128808984" class="fil4" d="M2529.46 2750.62c10.61,9.35 17.17,23.19 16.66,38.36l-7.55 228.41c-0.89,26.94 -23.65,48.24 -50.58,47.35l-228.41 -7.57c-5.81,-0.18 -11.38,-1.42 -16.51,-3.46 20.98,-17.12 45.44,-38.23 72.51,-63.55l154.82 5.12 5.88 -177.16c17.46,-21.22 35.24,-43.7 53.18,-67.49z"/>
    <path id="_128808912" class="fil1" d="M2439.46 2814.11l172.67 -70.46 -6.07 41.45 -33.35 9.58 3.66 193.52 28 4.88 -1.4 45.71 -170.58 -67.36c-31.24,-49.78 -32.03,-114.55 7.08,-157.32z"/>
    <path id="_128808840" class="fil1" d="M2313.12 2973.85l-128.18 60.01 -5.59 -48.67 22.75 -96.75 -25.14 -92.78 9.38 -43.77 133.86 64.64c31.23,49.79 32.03,114.54 -7.08,157.32z"/>
    <path id="_128808768" class="fil5" d="M1558.65 2739.45c201.38,33.8 391.53,53.02 596.83,58.64 22.61,0.62 24.39,0.81 46.7,10.3l88.53 37.72c29.4,46.84 0.01,95.41 0.01,95.41l-84.94 35.84c-27.92,10.6 -29.22,7.59 -60.48,5.42 -217.23,-15.02 -358.81,-27.87 -571.86,-72.84 -18.67,-48.46 -22.51,-109.67 -14.8,-170.5zm903.21 202.41l102.68 40.47c12.67,5.02 16.77,6.73 30.47,9.13 218.65,-6.84 417.54,-25.66 632.86,-66.25 30.65,-69.57 38.61,-145.71 31.27,-221.59 -227.22,44.43 -440.54,72.75 -672.1,86.94 -34.15,17.07 -84.3,37.66 -125.19,55.87 0,0 -29.38,48.59 0.02,95.43z"/>
    <path id="_128808696" class="fil6" d="M2302.53 2906.99c-3.26,20.37 -11.8,34.52 -11.8,34.52l-84.94 35.84c-27.91,10.6 -29.22,7.59 -60.48,5.43 -217.23,-15.01 -358.81,-27.87 -571.86,-72.84 -7.92,-20.57 -13.17,-43.45 -16,-67.61 277.16,41.7 526.65,60.27 745.09,64.67zm953.95 -81.41c-127.16,28.64 -404.97,79 -806.94,82.33 1.45,10.92 5.12,22.49 12.31,33.94l102.68 40.47c12.67,5.02 16.77,6.73 30.47,9.13 218.65,-6.84 417.54,-25.66 632.86,-66.25 14.11,-32.03 23.4,-65.47 28.62,-99.61z"/>
    <path id="_128808624" class="fil7" d="M2599.98 2991.01l-114.48 -59.68c0,0 -19.63,-37.31 -4.13,-64.69l107.74 -76.19 -2.09 0.12c-34.15,17.07 -84.3,37.66 -125.19,55.87 0,0 -29.38,48.59 0.02,95.43l102.68 40.47c12.67,5.02 16.77,6.73 30.47,9.13l5.04 -0.17 -0.06 -0.28z"/>
    <path id="_128808552" class="fil6" d="M1793.43 2773.8c40.12,4.35 80.28,8.11 120.55,11.36l-14.78 173.96c-42.31,-5.2 -84.5,-10.98 -126.63,-17.33 -2.53,-24.76 -4.5,-47.79 -5.61,-62.47 -2.49,-33.14 15.61,-80.47 26.46,-105.52z"/>
    <path id="_128808480" class="fil6" d="M3168.9 2721.72l47.63 204.74c-60,10.85 -120.23,20.36 -180.63,28.54 -9.75,-67.82 -20.87,-148.01 -29.04,-207.52 54.17,-7.76 108.21,-16.35 162.04,-25.76l0 -0z"/>
    <polygon id="_128808408" class="fil1" points="1999.3,2756.6 1986.39,2991.84 2021.41,2991.92 2038.23,2752.38 "/>
    <polygon id="_128808336" class="fil1" points="1725.42,2702.73 1875.73,2711.85 1863.47,3017.6 1699.17,3008.97 "/>
    <polygon id="_128808264" class="fil2" points="1759.5,2745.51 1841.51,2749.17 1831.7,2978.74 1737.84,2975.66 "/>
    <polygon id="_128808192" class="fil3" points="1759.5,2745.51 1841.51,2749.17 1779.3,2775.71 1737.83,2975.69 "/>
    <path id="_128808120" class="fil2" d="M1972.82 2811.4l85 5.89c31.81,2.22 29.12,45.13 -2.72,42.92l-84.96 -5.91c-31.86,-2.21 -29.15,-45.13 2.68,-42.91z"/>
    <path id="_128808048" class="fil2" d="M1963.48 2896.04l84.99 5.91c31.82,2.21 29.11,45.14 -2.7,42.91l-84.96 -5.9c-31.85,-2.22 -29.14,-45.12 2.68,-42.92z"/>
    <polygon id="_128807976" class="fil4" points="1743.72,2967.48 1826.65,2972.36 1829.61,2866.01 1770.95,2861.69 "/>
    <polygon id="_128807904" class="fil1" points="2756.26,2762.03 2775.84,2996.84 2810.55,2992.07 2794.23,2752.51 "/>
    <polygon id="_128807832" class="fil1" points="2936.08,2685 3106.94,2665.2 3154.29,3011.45 2967.81,3034.6 "/>
    <polygon id="_128807760" class="fil2" points="2982.96,2726.28 3075.93,2713.99 3110.8,2974.09 3004.66,2989.41 "/>
    <polygon id="_128807688" class="fil3" points="2982.96,2726.28 3075.93,2713.99 3003.68,2746.01 3004.66,2989.42 "/>
    <path id="_128807616" class="fil2" d="M2737.58 2819.96l84.97 -5.85c31.84,-2.18 35.08,40.7 3.23,42.89l-84.97 5.84c-31.84,2.19 -35.08,-40.68 -3.23,-42.88z"/>
    <path id="_128807544" class="fil2" d="M2739.97 2905.09l84.97 -5.85c31.83,-2.18 35.07,40.69 3.22,42.88l-84.98 5.85c-31.82,2.19 -35.05,-40.68 -3.22,-42.88z"/>
    <polygon id="_128807472" class="fil4" points="3014.68,2975.16 3094.65,2963.45 3080.64,2831.86 3019.16,2856.97 "/>
    <path id="_128807400" class="fil6" d="M2180.89 2811.21c22.56,48.47 19.68,101.79 -0.56,158.42 32.33,-7.83 65.3,-19.09 99.63,-37.83 11.54,-23.18 14.66,-45 5.5,-64.83 6.12,-5.79 -57.55,-36.96 -104.56,-55.76z"/>
    <path class="fil1" d="M2267.49 2871.62l227.12 0c14.13,-0.01 25.59,11.46 25.59,25.59l0 0.79c-0,14.13 -11.46,25.59 -25.59,25.59l-227.12 0c-14.13,-0 -25.59,-11.46 -25.59,-25.59l-0 -0.79c0,-14.13 11.46,-25.59 25.59,-25.59z"/>
    <circle id="_128807256" class="fil1" cx="2613.51" cy="2894.46" r="42.68"/>
   </g>
  </g>
 </g>
</svg>
