<?xml version="1.0" encoding="UTF-8"?>
<!DOCTYPE svg PUBLIC "-//W3C//DTD SVG 1.1//EN" "http://www.w3.org/Graphics/SVG/1.1/DTD/svg11.dtd">
<!-- Creator: CorelDRAW 2020 (64-Bit) -->
<svg xmlns="http://www.w3.org/2000/svg" xml:space="preserve" width="161.909mm" height="176.792mm" version="1.1" style="shape-rendering:geometricPrecision; text-rendering:geometricPrecision; image-rendering:optimizeQuality; fill-rule:evenodd; clip-rule:evenodd"
viewBox="0 0 25735.67 28101.38"
 xmlns:xlink="http://www.w3.org/1999/xlink"
 xmlns:xodm="http://www.corel.com/coreldraw/odm/2003">
 <defs>
  <style type="text/css">
   <![CDATA[
    .fil0 {fill:none}
    .fil1 {fill:#501D33}
    .fil9 {fill:#7F7A8A}
    .fil4 {fill:#81454F}
    .fil2 {fill:#9D6E5B}
    .fil8 {fill:#B1B1B4}
    .fil3 {fill:#D7AC80}
    .fil10 {fill:white}
    .fil7 {fill:#7F7A8A;fill-rule:nonzero}
    .fil5 {fill:#B1B1B4;fill-rule:nonzero}
    .fil6 {fill:white;fill-rule:nonzero}
   ]]>
  </style>
 </defs>
 <g id="Слой_x0020_1">
  <metadata id="CorelCorpID_0Corel-Layer"/>
  <g id="_2810198778176">
   <rect class="fil0" width="25735.67" height="28101.38"/>
   <g id="_121756488">
    <path id="_121758384" class="fil1" d="M8141.97 15318.14c0,0 2548.04,1214.95 6528.46,751.24l-14.72 -1133.91c0,0 -3544.75,419.2 -6610.1,-788.5 -95.24,316.9 -115.29,917.52 96.34,1171.17l0.02 0z"/>
    <path id="_121758312" class="fil2" d="M8266.22 15165.5c132.03,59.67 276.73,112.08 411.08,159.48 420.3,148.21 855.35,265.59 1290.8,359.37 1472.42,317.14 3012.23,372.38 4509.36,214.54l-9.79 -753.99c-144.61,12.22 -289.47,21.52 -434.4,29.01 -523.6,27.05 -1050.21,29.31 -1574.08,9.28 -1432.42,-54.71 -2919.83,-280.07 -4272.1,-778.2 -33.95,252.32 -29.01,591.62 79.11,760.5l0.02 0z"/>
    <path id="_121758240" class="fil3" d="M14469.27 15268.86l-1.61 -123.97c-144.61,12.22 -289.47,21.52 -434.38,29.01 -523.63,27.05 -1050.24,29.31 -1574.07,9.28 -1432.47,-54.71 -2919.86,-280.09 -4272.13,-778.18 -2.59,19.22 -4.91,38.96 -7.03,59.07 486.26,220.74 2732.44,1124.76 6289.19,804.79l0.02 0z"/>
    <path id="_121758168" class="fil4" d="M8321.74 15127.92c0,0 2281.99,984.39 5664.7,760.66l357.96 -116.34 -62.69 -259.82c0,0 -2926,398.52 -6031.31,-711.15 6.01,93.1 17.39,246.65 71.32,326.65l0.02 0z"/>
    <path id="_121758096" class="fil1" d="M17897.53 13954.89c-1069.24,539.53 -2549.33,929.44 -3790.52,918.2 -107.04,-0.99 -201.6,-21.17 -199.71,106.04 4.2,284.14 75.87,969.72 424.73,1135.11 0,0 1924.83,141.39 3365.55,-905.21 154.21,-398.73 210.56,-819.05 199.96,-1254.13l-0.02 0z"/>
    <path id="_121758024" class="fil2" d="M17702.41 14259.62c-1081.46,490.49 -2442.72,814.66 -3597.16,804.2 -1.22,0 -2.5,-0.02 -3.78,-0.05 15.8,261.89 87.26,732.21 285.08,862.74 90.79,4.74 184.99,4.12 274.62,2.61 265.67,-4.45 532.73,-26.78 795.6,-65.15 733.93,-107.1 1471.72,-346.93 2082.55,-776.3 96.99,-268.02 147.25,-545.81 163.08,-828.04z"/>
    <path id="_121757952" class="fil3" d="M15688.39 14901.46c-540.15,108.13 -1081.19,166.9 -1583.13,162.35 -1.22,0 -2.5,-0.02 -3.78,-0.05 2.46,40.83 6.33,86.72 11.76,135.62 356.8,4.15 940.45,-23.19 1395.9,-210.55 72.61,-29.87 131.64,-59.07 179.25,-87.38z"/>
    <path id="_121757880" class="fil4" d="M14184.48 15575.69c44.47,153.91 109.39,289.67 202.06,350.82 90.79,4.74 184.99,4.12 274.62,2.61 265.67,-4.45 532.73,-26.78 795.6,-65.15 733.93,-107.1 1471.72,-346.93 2082.55,-776.3 94.02,-259.82 144.15,-528.83 161.54,-802.17 -110.12,252.21 -674.19,1005 -3516.38,1290.19z"/>
    <path id="_121757808" class="fil1" d="M15620.67 14616.99c0,0 710.63,336.45 1064.13,3102.69 0,0 393.69,1150.59 885.63,1489.17 0,0 356.35,-276.11 245.18,-1607.96 0,0 -305.68,-2825.89 -924.19,-3230.95 -111.93,-9.71 -1281.98,114.25 -1270.75,247.04z"/>
    <path id="_121757736" class="fil2" d="M17528.2 18914.99c18.93,-48.7 33.95,-97.15 42.41,-128.51 96.1,-356.58 85.42,-803.17 55.12,-1167.39 -19.09,-175.9 -43.54,-352.67 -69.08,-527.69 -56.13,-384.47 -122.93,-769.41 -207.57,-1148.63 -64.55,-289.16 -271.16,-1146.49 -522.65,-1381.81 -175.15,7.93 -602.89,62.25 -867.07,117.39 96.66,124.03 179.58,266.69 230.45,365.24 157.31,304.92 272.22,643.52 363.47,973.47 149.46,540.37 246.61,1103.08 318.21,1658.87 115.53,331.14 376.76,926.64 656.71,1239.08z"/>
    <path id="_121757664" class="fil3" d="M16964.56 14754.89c-43.97,-81.69 -90.25,-149.11 -138.13,-193.92 -175.16,7.93 -602.9,62.23 -867.07,117.39 40.07,51.39 77.81,106.04 111.84,159.36 205.38,-36.42 599.2,-96.64 893.36,-82.83z"/>
    <path id="_121757592" class="fil4" d="M16581.61 15893.15c0,0 232.67,510.09 375.86,1709.25 0,0 181.94,588.95 503.53,999.87 0,0 212.39,-964.07 -252.96,-2843.36l-474.3 80.54 -152.13 53.69z"/>
    <g>
     <path id="_121757520" class="fil1" d="M15188.75 14926.31c44.87,41.57 89.95,163.64 104.18,207.88 27.83,86.57 44.86,177.39 53.87,266.96 9.01,89.59 10.41,181.65 0.32,271.2 -5.17,45.76 -30.98,155.52 -66.81,203.46l-923.89 85.42 61.66 612.41 984.85 -77.81c434.81,-34.35 603.03,-427.88 640.7,-761.97 14.19,-126 13.8,-254.61 1.11,-380.69 -12.7,-126.08 -38.01,-252.72 -77.14,-374.52 -103.83,-322.88 -348.01,-683.86 -782.81,-649.51l-984.86 77.81 58.8 584.07 930.03 -64.71z"/>
     <path id="_121757448" class="fil5" d="M14551.55 16084.49l18.45 143.06 15.29 151.91 171.49 -13.54 622.36 -49.16c291.42,-23.03 442.78,-286.27 479.38,-610.77 12.3,-109.18 12.32,-224.9 0.91,-338.19 -11.4,-113.28 -34.54,-227.17 -68.44,-332.7 -100.85,-313.64 -302.44,-549.02 -593.84,-526l-622.34 49.18 -171.49 13.54 15.29 151.91 13.78 136.92 795.36 -47.72c92.37,-7.3 175.72,127.75 232.56,304.52 27.39,85.18 46.37,180.22 56.16,277.45 9.78,97.23 10.09,193.75 0.16,281.87 -20.63,182.87 -75.68,328.86 -168.08,336.15l-797 71.58z"/>
     <path id="_121757376" class="fil6" d="M15851.71 15303.95c-12.81,-91.92 -33.22,-183.16 -60.75,-268.85 -100.85,-313.64 -302.44,-549.02 -593.84,-526l-622.34 49.18 -171.49 13.54 8.84 87.88c724.87,-57.27 1226.44,-148.72 1439.59,644.25z"/>
     <path id="_121757304" class="fil7" d="M14551.55 16084.49l18.45 143.06 10.47 104.07 171.49 -13.56 622.36 -49.16c291.41,-23.02 386.28,-244.32 422.89,-568.82 12.24,-108.63 12.3,-223.72 1.06,-336.45 -86.02,19.73 -136.46,46.35 -278.88,64.55 6.74,85.91 6.02,170.52 -2.78,248.6 -20.63,182.87 -75.68,328.86 -168.08,336.15l-797 71.58z"/>
     <path class="fil1" d="M16123.95 15239.95l-1083.86 103c-59.34,5.64 -103.14,61.47 -97.87,124.67l0.22 2.32c5.26,63.18 57.67,109.87 116.97,104.24l1083.89 -103c59.29,-5.64 103.1,-61.47 97.82,-124.67l-0.17 -2.3c-5.31,-63.2 -57.72,-109.9 -117.02,-104.26z"/>
    </g>
    <path id="_121757136" class="fil1" d="M10510.12 14989.59l-337.69 289.42 -428.52 -348.42 77.7 -66.58c-64.11,-13.35 -128.1,-27.18 -191.97,-41.44l-355.34 304.55 -475.44 -386.55 115.84 -99.28c-59.83,-17.07 -119.45,-34.6 -178.9,-52.6l-580.01 497.11c11.02,27.91 23.62,53.5 38.07,76.07 24.69,11.16 49.88,22.03 75.28,32.71l409.22 -350.73 475.44 386.51 -230.54 197.59c58.91,18.53 118.04,36.53 177.33,53.98l522.79 -448.05 428.55 348.41 -311.93 267.36c63.44,14.73 126.89,29.01 190.41,42.74l244.83 -209.85 9.41 7.66 30.96 -42.25 333.59 -285.91 465.98 390.85 -271.09 288.97c62.83,9.55 125.7,18.69 188.71,27.37l587.1 -625.76 514.57 332.67 -341.83 364.32 14.5 13.59c58.21,4.77 116.43,9.2 174.72,13.29l598.09 -637.48 463.82 299.85 -347.21 370.1c70.5,1.53 141.02,2.56 211.52,3.08 255.4,-272.24 499.54,-532.42 762.55,-812.78 -72.39,1.43 -144.79,2.43 -217.21,3l-301.05 320.86 -463.81 -299.88 28.25 -30.11c-37.75,-1.21 -75.44,-2.51 -113.14,-3.94 -31.27,-1.19 -62.6,-2.53 -93.91,-3.88l-266.69 284.25 -514.57 -332.73 1.89 -2c-65.71,-5.72 -131.47,-11.81 -197.23,-18.3l-343.78 366.45 -448.85 -390.08 73.88 -63.31c-68.16,-9.82 -136.25,-20.12 -204.3,-30.85z"/>
    <path id="_121757064" class="fil1" d="M17240.41 15447.19l-462.01 -177.12 206.73 -526.51c-51.02,-100.98 -105.34,-184.3 -161.78,-237.12 -69.89,3.16 -178.73,13.56 -301.74,28.31l293.22 112.43 -217.3 553.57 -409.78 -157.08c36.29,72.59 70.34,146.95 102.33,222.47l244.93 93.89 -4.78 12.16 65.36 11.08 500.76 191.95 -250.73 607.08 -276.97 -76.81c16.77,63.52 32.89,127.3 48.37,191.3l709.29 210.37 -263.75 581.92 -299.34 -83c10.63,60.85 20.84,121.77 30.65,182.73l774.44 214.76 -142.33 566.01 -515.8 -143.02c23.05,60.81 49.4,126.83 78.6,195.97l679.57 188.45c0.89,-58.35 0.57,-116.65 -0.72,-174.39l-51.39 -14.24 43.92 -174.61c-3.61,-65.23 -8.17,-128.94 -13.27,-190.42 -15.23,-140.21 -33.81,-281.01 -53.6,-421.03l-340.49 -94.43 242.34 -534.55c-13.07,-75.23 -26.61,-150.38 -40.72,-225.43l-5.31 -14.88 -473.52 -148.64 257.85 -590.58 61.71 23.67c-16.31,-63.93 -34.59,-132.82 -54.74,-204.25z"/>
    <g>
     <polygon id="_121756992" class="fil1" points="14108.65,15332.38 13601.89,16042.94 13765.02,16047.39 14139.91,15555.73 "/>
     <polygon id="_121756920" class="fil1" points="13293.62,15382.8 13876.67,15805.6 13952.32,15709.91 13364.81,15296.01 "/>
    </g>
    <circle id="_121756824" class="fil1" cx="14522.01" cy="15524.81" r="160.8"/>
    <g>
     <path class="fil1" d="M11330.79 14805.92l5.56 0c151.69,-0.03 274.67,122.95 274.67,274.6l-0.03 882.6c0.03,151.62 -122.95,274.6 -274.6,274.6l-5.6 0.03c-151.62,-0.03 -274.6,-123.01 -274.6,-274.67l-0.03 -882.53c0.03,-151.69 123.01,-274.67 274.67,-274.67z"/>
     <path id="_121756680" class="fil8" d="M11332.14 14970.96l2.89 0c79.16,0 143.9,68.22 143.9,151.61l0 798.54c0,83.39 -64.76,151.61 -143.9,151.61l-2.89 0c-79.14,0 -143.9,-68.22 -143.9,-151.61l0 -798.54c0,-83.39 64.74,-151.61 143.9,-151.61z"/>
     <path id="_121756608" class="fil9" d="M11444.57 15587.34l0 310.85c0.02,63.71 -49.43,115.8 -109.88,115.8l-2.23 0c-60.45,0 -109.88,-52.06 -109.88,-115.8l0 -310.85 221.99 0z"/>
     <ellipse id="_121756536" class="fil10" cx="11333.59" cy="15150.26" rx="101.25" ry="116.83"/>
    </g>
   </g>
  </g>
 </g>
</svg>
