<?xml version="1.0" encoding="UTF-8"?>
<!DOCTYPE svg PUBLIC "-//W3C//DTD SVG 1.1//EN" "http://www.w3.org/Graphics/SVG/1.1/DTD/svg11.dtd">
<!-- Creator: CorelDRAW 2020 (64-Bit) -->
<svg xmlns="http://www.w3.org/2000/svg" xml:space="preserve" width="161.909mm" height="176.792mm" version="1.1" style="shape-rendering:geometricPrecision; text-rendering:geometricPrecision; image-rendering:optimizeQuality; fill-rule:evenodd; clip-rule:evenodd"
viewBox="0 0 3058.49 3339.64"
 xmlns:xlink="http://www.w3.org/1999/xlink"
 xmlns:xodm="http://www.corel.com/coreldraw/odm/2003">
 <defs>
  <style type="text/css">
   <![CDATA[
    .fil9 {fill:none}
    .fil2 {fill:#501D33}
    .fil4 {fill:#75414C}
    .fil3 {fill:#955B58}
    .fil1 {fill:#9E7A65}
    .fil5 {fill:#BB8778}
    .fil0 {fill:#C7A989}
    .fil8 {fill:#7F7A8A;fill-rule:nonzero}
    .fil6 {fill:#B1B1B4;fill-rule:nonzero}
    .fil7 {fill:white;fill-rule:nonzero}
   ]]>
  </style>
 </defs>
 <g id="Слой_x0020_1">
  <metadata id="CorelCorpID_0Corel-Layer"/>
  <g id="_2810250258256">
   <g id="_120729656">
    <path id="_120731864" class="fil0" d="M998.25 1760.38l-3.06 -24.42c317.37,97.76 746.34,97.75 1063.71,0l-1.67 13.3c-531,157.5 -1006.67,26.5 -1058.98,11.11l0 0z"/>
    <path id="_120731792" class="fil1" d="M2064.9 1795.07c0,0 -162.62,69.13 -438.76,76.57 0,0 189.21,27.64 444.89,-51.06l7.27 -22.03 -13.4 -3.49z"/>
    <path id="_120731720" class="fil2" d="M993.65 1784.46c0,0 145.49,70.19 392.64,87.19 0,0 -180.94,12.78 -388.7,-49.47l-2.4 -23.62 -1.55 -14.1z"/>
    <path id="_120731648" class="fil2" d="M1504.95 1801.14c0,0 17.29,175.55 21.38,175.55 4.1,0 10.47,-175.55 10.47,-175.55l-31.85 0z"/>
    <path id="_120731576" class="fil2" d="M2114.13 1684.35c0,0 -438.67,187.05 -1169.04,17.81 -9.06,11.19 7.17,154.48 28.95,207.09 0,0 632.4,164.78 1115.6,-26.72 21.23,-60.09 34,-123.97 24.49,-198.18l0 0z"/>
    <path id="_120731504" class="fil3" d="M979.66 1738.95c-2.28,47.79 2.32,96.66 20.53,147.59 23.45,5.55 47.41,10.33 70.83,14.85 76.53,14.77 154.05,25.91 231.6,33.6 216.1,21.42 449.24,17.48 659.6,-39.99 34.26,-9.36 68.12,-20.21 101.35,-32.76 19.83,-41.95 22.15,-87.79 16.51,-135.4 -12.92,4.11 -25.89,7.88 -38.21,11.37 -76.55,21.7 -155.95,36.58 -234.82,46.63 -273.84,34.89 -557.8,12.6 -827.38,-45.89z"/>
    <path id="_120731432" class="fil4" d="M1008.81 1876.71c0,8.35 617.66,149.29 1049.83,-28.44 6.15,-13.73 6.45,-25.52 4.11,-36.43 0,0 -265.44,102.41 -608.19,83.25 -342.76,-19.16 -454.77,-45.5 -454.77,-45.5 -1.26,9.58 -1.09,18.97 9.02,27.12l0 0z"/>
    <path id="_120731360" class="fil5" d="M1823.27 1848.37c10.99,0 19.91,8.91 19.91,19.9 0,10.99 -8.91,19.91 -19.91,19.91 -10.99,0 -19.9,-8.91 -19.9,-19.91 0,-10.99 8.91,-19.9 19.9,-19.9z"/>
    <path id="_120731288" class="fil5" d="M979.66 1738.95c1.16,7.46 2.3,14.92 3.43,22.38 270.53,57.38 554.82,78.75 829.16,43.8 80.35,-10.24 161.24,-25.4 239.23,-47.51 8.36,-2.37 17.01,-4.88 25.76,-7.51l2.84 -23.27c-12.92,4.11 -25.89,7.88 -38.21,11.37 -76.55,21.7 -155.95,36.58 -234.82,46.63 -273.84,34.89 -557.8,12.6 -827.38,-45.89z"/>
    <path id="_120731216" class="fil4" d="M1408.7 1943.26c31.58,1.78 63.38,2.96 95.27,3.44 -1.53,-4.62 -2.66,-8.97 -3.19,-11.74 -2.51,-13.14 -3.54,-26.79 -3.54,-40.15 0,-13.37 1.03,-27.01 3.54,-40.15 1.28,-6.71 5.58,-25.31 10.92,-31.99l122.82 -1.3 0 -21.97c-70.53,3.04 -141.39,2.66 -212.17,-0.8 -5.57,13.31 -9.52,27.39 -12.1,40.93 -3.52,18.49 -5.17,37.53 -5.17,56.35 0,15.8 1.15,31.74 3.61,47.4z"/>
    <path id="_120731144" class="fil2" d="M1478.74 1801.38c-5.33,6.68 -9.64,25.28 -10.92,31.99 -2.51,13.14 -3.54,26.79 -3.54,40.15 0,13.36 1.03,27.01 3.54,40.15 1.28,6.71 6.11,22.66 11.45,29.34l122.29 1.84 0 91.38 -130.18 0c-57.47,0 -84.73,-56.29 -94.08,-105.31 -3.52,-18.49 -5.17,-37.53 -5.17,-56.34 0,-18.81 1.65,-37.86 5.17,-56.35 9.35,-49.01 36.61,-105.31 94.08,-105.31l130.18 0 0 87.15 -122.82 1.3z"/>
    <path id="_120731072" class="fil6" d="M1577.59 1965.39l-0.53 21.4 0 22.67 -22.67 0 -82.26 0c-38.52,0 -61.85,-37.2 -70.93,-84.81 -3.05,-16.02 -4.58,-33.15 -4.58,-50.05 0,-16.9 1.53,-34.03 4.58,-50.05 9.08,-47.61 32.41,-84.82 70.93,-84.82l82.26 0 22.67 0 0 22.67 0 20.43 -104.93 2.24c-12.21,0 -21.36,20.97 -26.48,47.8 -2.47,12.93 -3.7,27.22 -3.7,41.73 0,14.51 1.23,28.8 3.7,41.73 5.12,26.83 14.27,47.8 26.48,47.8l105.46 1.27z"/>
    <path id="_120731000" class="fil7" d="M1396.78 1865.04c0.47,-13.76 1.94,-27.5 4.42,-40.51 9.08,-47.61 32.41,-84.82 70.93,-84.82l82.26 0 22.67 0 0 13.11c-95.81,0 -162.8,-7.67 -180.28,112.21z"/>
    <path id="_120730928" class="fil8" d="M1577.59 1965.39l-0.53 21.4 0 15.53 -22.67 0 -82.26 0c-38.52,0 -53.88,-31.65 -62.97,-79.26 -3.04,-15.94 -4.57,-32.97 -4.58,-49.8 11.54,1.92 18.51,5.27 37.43,6.3 0.25,12.8 1.46,25.31 3.65,36.77 5.12,26.83 14.27,47.8 26.48,47.8l105.46 1.27z"/>
    <path id="_120730856" class="fil2" d="M1822.2 1838.82c10.99,0 19.91,8.91 19.91,19.9 0,10.99 -8.91,19.91 -19.91,19.91 -10.99,0 -19.9,-8.91 -19.9,-19.91 0,-10.99 8.91,-19.9 19.9,-19.9z"/>
    <g>
     <path id="_120730784" class="fil5" d="M1662.96 1862.71c10.99,0 19.91,8.91 19.91,19.9 0,10.99 -8.91,19.91 -19.91,19.91 -10.99,0 -19.9,-8.91 -19.9,-19.91 0,-10.99 8.91,-19.9 19.9,-19.9z"/>
     <path id="_120730712" class="fil2" d="M1661.89 1853.15c10.99,0 19.91,8.91 19.91,19.9 0,10.99 -8.91,19.91 -19.91,19.91 -10.99,0 -19.9,-8.91 -19.9,-19.91 0,-10.99 8.91,-19.9 19.9,-19.9z"/>
    </g>
    <g>
     <path id="_120730616" class="fil5" d="M1080.66 1823.83c10.99,0 19.91,8.91 19.91,19.9 0,10.99 -8.91,19.91 -19.91,19.91 -10.99,0 -19.9,-8.91 -19.9,-19.91 0,-10.99 8.91,-19.9 19.9,-19.9z"/>
     <path id="_120730544" class="fil2" d="M1079.6 1814.27c10.99,0 19.91,8.91 19.91,19.9 0,10.99 -8.91,19.91 -19.91,19.91 -10.99,0 -19.9,-8.91 -19.9,-19.91 0,-10.99 8.91,-19.9 19.9,-19.9z"/>
    </g>
    <path class="fil2" d="M1363.36 1858.47l172.33 0c9.43,-0 17.08,7.65 17.08,17.08l0 0.35c0,9.43 -7.65,17.08 -17.08,17.08l-172.33 0c-9.43,-0 -17.08,-7.65 -17.08,-17.08l-0 -0.34c0,-9.43 7.65,-17.08 17.08,-17.08z"/>
    <g>
     <path id="_120730376" class="fil3" d="M1867.58 1728.42l99.79 -15.39c0,0 36.1,86.52 18.58,204.89l-2.65 9.02 -93.42 23.89c0,0 23.89,-138.54 -22.29,-222.41z"/>
     <path id="_120730304" class="fil2" d="M1959 1702.34c0,0 26.74,80.22 21.88,238.23 0,0 31.48,-58 27.23,-126.55 -4.25,-68.55 -49.11,-111.67 -49.11,-111.67z"/>
     <path id="_120730232" class="fil2" d="M1864.52 1724.1c0,0 26.74,80.22 21.88,238.23 0,0 27.22,-56.94 22.98,-125.49 -4.24,-68.55 -44.85,-112.73 -44.85,-112.73z"/>
     <path id="_120730160" class="fil4" d="M1917.79 1828.21c0,0 5.53,69.53 -30.04,126.86l80.15 -11.15c0,0 21.23,-62.11 1.06,-122.62l-51.18 6.9z"/>
     <path id="_120730088" class="fil5" d="M1885.63 1735.32c0,0 21.76,20.7 32.38,67.41l44.06 -3.18c0,0 5.84,-40.87 -6.37,-75.38l-59.45 11.15 -10.62 0z"/>
    </g>
    <g>
     <path id="_120729992" class="fil3" d="M1279.43 1748.62l-99.79 -15.39c0,0 -36.1,86.52 -18.58,204.89l2.65 9.02 93.42 23.89c0,0 -23.89,-138.54 22.29,-222.41z"/>
     <path id="_120729920" class="fil2" d="M1188.02 1722.54c0,0 -26.74,80.22 -21.88,238.23 0,0 -29.35,-58.54 -25.11,-127.09 4.24,-68.55 46.98,-111.14 46.98,-111.14z"/>
     <path id="_120729848" class="fil2" d="M1282.51 1744.31c0,0 -26.74,80.22 -21.88,238.23 0,0 -27.22,-56.94 -22.98,-125.49 4.24,-68.55 44.85,-112.73 44.85,-112.73z"/>
     <path id="_120729776" class="fil4" d="M1229.22 1848.42c0,0 -11.37,69.53 24.2,126.86l-78.03 -11.68c0,0 -11.15,-57.86 3.18,-119.43l50.65 4.25z"/>
     <path id="_120729704" class="fil5" d="M1261.38 1755.52c0,0 -21.76,20.7 -32.38,67.41l-44.06 -3.18c0,0 -5.84,-40.87 6.37,-75.38l59.45 11.15 10.62 0z"/>
    </g>
   </g>
   <rect class="fil9" width="3058.49" height="3339.64"/>
  </g>
 </g>
</svg>
