<?xml version="1.0" encoding="UTF-8"?>
<!DOCTYPE svg PUBLIC "-//W3C//DTD SVG 1.1//EN" "http://www.w3.org/Graphics/SVG/1.1/DTD/svg11.dtd">
<!-- Creator: CorelDRAW -->
<svg xmlns="http://www.w3.org/2000/svg" xml:space="preserve" width="161.908mm" height="176.792mm" style="shape-rendering:geometricPrecision; text-rendering:geometricPrecision; image-rendering:optimizeQuality; fill-rule:evenodd; clip-rule:evenodd"
viewBox="0 0 44.2913 48.363"
 xmlns:xlink="http://www.w3.org/1999/xlink">
 <defs>
  <style type="text/css">
   <![CDATA[
    .fil0 {fill:none}
    .fil1 {fill:#501D33}
    .fil7 {fill:#525B75}
    .fil6 {fill:#65798E}
    .fil8 {fill:#C8B99F}
    .fil3 {fill:#C9C7D2}
    .fil5 {fill:#D77D75}
    .fil4 {fill:#FFCFA5}
    .fil2 {fill:white}
   ]]>
  </style>
 </defs>
 <g id="Слой_x0020_1">
  <metadata id="CorelCorpID_0Corel-Layer"/>
  <g id="_88249680">
   <rect id="_135244968" class="fil0" width="44.2913" height="48.363"/>
   <path id="_123309408" class="fil1" d="M32.2455 5.01693c4.56739,2.04945 8.31121,9.97182 8.64493,14.1449 0.382271,4.78069 0.323046,7.69004 -2.46539,13.5306 0,0 -0.637173,1.22212 -2.70946,0.717901 -0.911416,0.0637939 -1.80743,-0.207713 -2.25112,-0.844011 -0.0107782,-0.0154561 -1.18889,-0.195759 -1.7447,-0.736804 -0.252112,-0.245437 -0.412281,-0.463655 -0.321651,-0.910213 0.118642,-0.58465 0.293802,-1.30055 0.293802,-1.30055 0,0 -1.03063,-1.02743 -0.861875,-1.46452 0.168758,-0.437092 2.27628,-2.26356 2.27979,-2.28107 1.44617,-6.63126 0.0280398,-12.288 -3.76053,-16.8571l-3.04384 -4.03037c1.52911,-0.451482 4.31837,-0.696426 5.93998,0.0312131l0 -2.73559e-005 2.73559e-005 5.47118e-005 5.47118e-005 0z"/>
   <path id="_123309336" class="fil1" d="M12.104 5.01693c-4.56739,2.04945 -8.31121,9.97182 -8.64493,14.1449 -0.382271,4.78069 -0.323046,7.69004 2.46539,13.5306 0,0 0.614085,1.23761 2.68638,0.733384 0.92679,0.0868549 1.83818,-0.29238 2.28189,-0.928678 0.0107782,-0.0154834 1.1812,-0.126548 1.73702,-0.66762 0.252139,-0.245437 0.412281,-0.463655 0.321651,-0.910213 -0.118642,-0.58465 -0.293802,-1.30055 -0.293802,-1.30055 0,0 1.03063,-1.02743 0.861875,-1.46452 -0.168758,-0.437092 -2.27628,-2.26356 -2.27979,-2.28107 -1.44617,-6.63126 -0.0280398,-12.288 3.76053,-16.8571l3.04384 -4.03037c-1.52911,-0.451482 -4.31837,-0.696426 -5.93998,0.0312131l0 -2.73559e-005 -2.73559e-005 5.47118e-005 -5.47118e-005 0z"/>
   <path id="_123309264" class="fil1" d="M13.8285 25.1193c-0.809351,-4.91968 -1.18656,-13.3412 -1.67828,-17.1956 0.868112,-3.57448 7.69633,-2.47842 10.0224,-1.99493 2.32604,-0.483488 9.15424,-1.57958 10.0224,1.99493 -0.491722,3.85447 -0.961505,12.2605 -1.77086,17.1803 -4.33101,1.68414 -12.2646,1.69959 -16.5956,0.0154014l-2.73559e-005 0 5.47118e-005 -5.47118e-005z"/>
   <path id="_123309192" class="fil2" d="M14.5351 24.7676c-0.800324,-5.21945 -1.38883,-11.0688 -1.72101,-16.2754 0.672025,-2.7671 4.93604,-4.17686 9.23505,-4.20963l0.247024 0c4.29895,0.0327724 8.56297,1.44256 9.23499,4.20963 -0.332183,5.20654 -0.92069,11.0559 -1.72101,16.2754 -4.2066,1.35138 -11.0684,1.35141 -15.275,2.73559e-005l-5.47118e-005 -2.73559e-005z"/>
   <path id="_123309120" class="fil3" d="M14.5351 24.7676c-0.647979,-4.22588 -1.15699,-8.86454 -1.50362,-13.2409 0.0418819,-0.195075 0.0793321,-0.30945 0.111038,-0.321568l2.09645 12.7328c0,0 5.1672,2.31942 13.9267,0.0369852l2.09732 -13.0162c0,0 0.0229789,0.151305 0.0626723,0.415892 -0.346818,4.42074 -0.860206,9.11799 -1.51565,13.3928 -4.2066,1.35135 -11.0684,1.35138 -15.275,0l0 5.47118e-005 2.73559e-005 5.47118e-005z"/>
   <polygon id="_123309024" class="fil3" points="13.72,17.6037 19.6014,20.6365 14.5019,20.0546 "/>
   <polygon id="_123308952" class="fil3" points="29.6271,21.0006 22.6281,23.1432 29.843,22.2955 29.8409,21.5408 "/>
   <polygon id="_123308880" class="fil2" points="18.2592,21.032 22.3558,22.7576 29.1631,20.8015 22.3604,21.5056 "/>
   <path id="_123308808" class="fil4" d="M31.7863 11.2442l-4.44913 -6.15603c3.03018,-0.133716 4.77169,-0.00240732 6.97723,2.25957 3.13682,3.21713 5.39223,8.07012 5.95363,12.5621 0.564899,4.52138 -0.297824,8.48602 -2.39047,12.5853 0,0 -0.254081,0.748184 -1.85522,0.563094 0,0 0.465652,-0.82385 0.434111,-0.894948 -0.0315687,-0.07118 -0.81143,0.827762 -0.81143,0.827762 0,0 -0.985195,0.00358362 -1.78965,-0.690517 0,0 -0.00328271,-1.11292 -0.0730949,-1.11038 -0.0698122,0.0025441 -0.293665,0.824014 -0.293665,0.824014l-1.05197 -0.277799c-0.480588,-0.22596 -0.630799,-0.261851 -0.500285,-0.857087 0.0996301,-0.45471 0.266145,-1.22163 0.632277,-2.50911 -0.101025,-0.11908 -0.34556,0.440102 -0.524604,0.747363 0,0 -0.575924,-0.635942 -0.551249,-0.852656 0.0245382,-0.216795 2.04141,-1.78473 2.04141,-1.78473 1.62981,-5.11375 0.527476,-11.2222 -1.74793,-15.2359l0 -2.73559e-005 5.47118e-005 0z"/>
   <path id="_123308736" class="fil5" d="M31.7863 11.2442l-0.111147 -0.153795c0.0292434,-0.0164409 0.0581586,-0.0346326 0.0876756,-0.0490765 0,0 4.84596,5.4987 3.24985,13.4926 0.588152,-0.00776907 1.35464,0.0810008 1.86291,0.107755 0.628693,0.0331006 2.10238,0.753299 3.24482,1.44803 -0.160634,0.881817 -0.381423,1.7534 -0.660672,2.62143 -1.60631,-1.23619 -3.69138,-1.79632 -5.01573,-2.04165 -0.517738,1.55442 -1.28742,3.18477 -2.38442,4.8731 -0.173163,-0.121077 -0.209437,-0.270085 -0.123211,-0.663353 0.0996301,-0.45471 0.266145,-1.22163 0.632277,-2.50911 -0.101025,-0.11908 -0.34556,0.440102 -0.524604,0.747363 0,0 -0.575924,-0.635942 -0.551249,-0.852656 0.0221309,-0.19554 1.66496,-1.49021 1.9868,-1.74216l0.00470521 -0.00369305 0.0498971 -0.0388727c0.0245109,-0.0769248 0.0483105,-0.154123 0.0715904,-0.231513l0.00519762 -0.0173436c0.0215564,-0.0719186 0.0425384,-0.144029 0.063028,-0.216303l0.00984812 -0.0349608c0.0183558,-0.0653532 0.0362192,-0.130871 0.053727,-0.196497l0.0154014 -0.058186c0.0146354,-0.0557513 0.0289425,-0.111612 0.0429761,-0.167555 0.00834355,-0.0332921 0.0165777,-0.0666389 0.0247024,-0.0999858 0.00993019,-0.0407056 0.0196415,-0.0815205 0.0292434,-0.122308 0.0134865,-0.0572832 0.0266173,-0.114676 0.0395019,-0.172151l0.00845297 -0.0379426 0.00574474 -0.025906c0.0135959,-0.0618243 0.0268088,-0.123758 0.0396934,-0.185774l0.00990283 -0.0479275 0.0053344 -0.0259607 2.73559e-005 0c0.960657,-4.73331 -0.13574,-10.0033 -2.1723,-13.5955l2.73559e-005 0z"/>
   <path id="_123308664" class="fil6" d="M39.5387 28.4609l-0.0460673 0.0498698 -0.0159758 -0.0146628 0.00716724 0.0392557c0.0103405,0.000848033 0.020599,0.00183284 0.0306933,0.00306386 0.00806999,-0.0258513 0.016222,-0.0516753 0.0241826,-0.0775266zm-0.46267 -13.3543c0.266091,0.722852 0.495853,1.45451 0.685922,2.18683 -0.729582,0.435916 -1.21879,1.51155 -1.07279,2.32334l0.063411 0.352699c0.0224865,0.125181 0.0661465,0.142004 0.088551,0.267185 0.0889614,0.0920799 0.144904,0.260127 0.279741,0.386976 0.091013,0.0857607 0.257063,0.177923 0.387223,0.207604 0.309587,0.0703867 0.810965,-0.0275474 0.747035,-0.383612l-0.0141977 -0.078402c-0.00943778,-0.0529063 -0.0190123,-0.0522497 -0.0371767,-0.0944052 -0.0789491,0.0370125 -0.118451,0.142634 -0.253179,0.166816 -0.109232,0.0197236 -0.237668,-0.0832713 -0.261577,-0.21592 -0.0330186,-0.184023 0.0846665,-0.318532 0.260838,-0.350265 0.119299,-0.021447 0.22823,0.00199698 0.320857,0.056955 0.0468606,0.378031 0.083627,0.752178 0.1106,1.12288 -0.132211,0.148707 -0.319161,0.256243 -0.530595,0.294295l-0.0587057 0.0105594c-0.199561,0.0359183 -0.401913,0.0373134 -0.546954,-0.00268088 0.12146,0.258705 0.759126,0.429132 1.17483,0.374229 0.0125837,0.30934 0.0182737,0.616356 0.0170154,0.921319 -0.385116,-0.0704414 -0.810938,-0.110025 -1.07134,-0.0632195 0.0853504,0.474543 0.638131,1.07295 0.649675,1.13713 0.00413074,0.0231704 -0.16698,0.39666 -0.136533,0.590942 -0.16233,0.0154834 -0.448637,-0.404648 -0.613784,-0.375077l-0.039201 0.00711253c-0.128244,0.0230063 -0.101764,0.334152 -0.0758305,0.478837 0.101272,0.562902 0.536367,1.01244 1.06475,1.0979 -0.0234714,0.154096 -0.0486114,0.307863 -0.0757211,0.461275 -0.226561,-0.0427846 -0.44426,-0.119928 -0.525178,-0.105375 -0.0458758,0.00820677 -0.0725205,0.0464777 -0.0643137,0.0924629 0.043277,0.240431 0.235479,0.435287 0.484938,0.559373 -0.122281,0.59406 -0.271945,1.18385 -0.448472,1.77165 -0.249322,0.276048 -0.613456,0.543808 -1.10214,0.631675l-0.0196962 0.00358362c-1.18601,0.213184 -1.51623,-0.961149 -2.07708,-0.860179l-0.137217 0.0246203c-0.108849,0.0195047 -0.253589,0.164737 -0.232142,0.284447l0.0211461 0.117548c0.0200519,0.111639 0.207905,0.225495 0.320173,0.205251l0.0196689 -0.00344684c0.0716451,-0.0128299 0.14712,-0.0823412 0.13563,-0.145643l-0.0140883 -0.0784293c-0.0903565,0.0422922 -0.0514291,0.0901924 -0.123102,0.103022l-0.0195595 0.00352891c-0.0471616,0.00853504 -0.130241,-0.0491585 -0.138776,-0.0964022l-0.0210914 -0.11763c-0.0112706,-0.0624261 0.0751193,-0.155026 0.15177,-0.168868l0.117548 -0.0210914c0.110873,-0.0199698 0.26951,0.147995 0.295115,0.29082l0.00358362 0.0195321c0.0417177,0.232197 -0.0867182,0.399943 -0.325125,0.442782l-0.0393104 0.00703046c-0.299793,0.0539732 -0.620049,-0.185801 -0.674104,-0.48554l-0.00697575 -0.039201c-0.0515659,-0.286854 0.13388,-0.529747 0.421554,-0.581422l0.195896 -0.0353165c0.16553,-0.0297085 0.418682,0.0626723 0.531935,0.123129 0.130679,0.0696754 0.353055,0.295088 0.397098,0.316562 0.0721375,-0.225741 0.146491,-0.432278 0.478345,-0.466308 0.2543,-0.0259334 0.501762,0.065107 0.551604,0.341839 0.0297632,0.166351 -0.0312678,0.308985 -0.201969,0.339678l-0.0785114 0.0140336c-0.0607848,0.0111065 -0.177512,-0.0870738 -0.191929,-0.16761 -0.0190944,-0.105731 0.0462588,-0.181917 0.144767,-0.208151 -0.0358909,-0.0829431 -0.0993292,-0.143947 -0.204704,-0.125071 -0.155655,0.0281492 -0.222267,0.227464 -0.194993,0.379016 0.0530704,0.294814 0.375788,0.320255 0.652438,0.319654 0.260455,-0.000519762 0.619474,-0.201804 0.779424,-0.302173 0.359511,-0.225385 0.718119,-0.777646 0.62459,-1.29746l-0.0106962 -0.0588972c-0.0447816,-0.249513 -0.379071,-0.619365 -0.609763,-0.578003 -0.188783,0.033976 -0.39201,0.520391 -0.361152,0.692077l0.0247571 0.13719c0.0714809,0.398056 0.361973,0.576142 0.566623,0.787986l-0.25285 0.254984c-0.165065,-0.0757485 -0.343809,-0.261851 -0.472628,-0.395539 -0.0981803,-0.102037 -0.303541,-0.449047 -0.443795,-0.397563l-0.529829 0.190862 -0.122554 0.00733138c-0.518887,0.0933109 -1.16462,-0.0823686 -1.47508,-0.295662 -0.200956,-0.138147 -0.370453,-0.244671 -0.544628,-0.425193 -0.209382,-0.217014 -0.256297,-0.367964 -0.423414,-0.599422l0.180084 -0.00763229 0.293857 -0.0573927c0.24344,0.56479 1.11981,1.11338 1.85591,0.980955l0.0980162 -0.0175898c0.292489,-0.0525233 0.530267,-0.223853 0.689314,-0.378414 0.104445,-0.10149 0.31038,-0.47643 0.27996,-0.645599l-0.0175898 -0.0979067c-0.00801528,-0.0451099 -0.0241553,-0.0562984 -0.0693745,-0.0481737 -0.122418,0.0220488 -0.520911,0.376909 -0.832741,0.432962l-0.0587878 0.0105867c0.00648335,-0.0792774 0.150922,-0.349526 0.185172,-0.471451 0.0431676,-0.153795 0.225194,-0.262644 0.331854,-0.369414 0.176719,-0.176883 0.368539,-0.648471 0.307836,-0.986289l-0.0458758 -0.254711c-0.0178634,-0.0998216 -0.116126,-0.322964 -0.216604,-0.304909 -0.17081,0.0308027 -0.525944,0.742576 -0.675499,0.902252 -0.147448,0.157187 -0.641222,0.70994 -0.868741,0.750919 -0.0975237,0.0174804 -0.305264,-0.290328 -0.335848,-0.404867 0.583419,-0.273832 1.43227,-1.71245 1.29459,-2.47795 -0.603881,0.108658 -1.29117,0.606644 -1.65087,0.910404 -0.414961,0.350456 -0.68666,0.943915 -0.555926,1.67114 -0.130214,0.0738609 -0.181123,0.150211 -0.430718,0.177184l-0.0542194 -0.251072c-0.0539732,-0.18405 0.00801528,-0.699381 0.0377238,-0.836926 0.0614413,-0.283927 0.16843,-0.435013 0.243686,-0.670821 -0.688055,0.183695 -1.19228,1.24702 -1.04442,2.06884 0.0301462,0.167692 0.106743,0.327259 0.157433,0.442919 0.246914,0.563641 0.941179,0.977645 1.57502,0.863598l0.454901 0.283133c-0.092928,0.0240458 -0.115278,0.0603744 -0.227574,0.0806725l-0.333304 0.0598547c-0.261358,0.0469701 -0.672845,-0.0324441 -0.849537,-0.110053 -0.0778275,-0.0342769 -0.332265,-0.163041 -0.490546,-0.277416 -0.180357,-0.13057 -0.428585,-0.47922 -0.528844,-0.658648 -0.0450278,-0.0805904 -0.0862531,-0.166269 -0.122992,-0.260291 0.280371,-0.888027 0.478646,-1.80568 0.602951,-2.73696 0.239911,-0.250306 0.529118,-0.458731 0.913741,-0.624453 -0.0273832,-0.134646 -0.1466,-0.136369 -0.254902,-0.175898 -0.111694,-0.0408971 -0.157816,-0.0850221 -0.254437,-0.152126 -0.10346,-0.0719733 -0.203254,-0.14184 -0.285486,-0.235343 0.027055,-0.402706 0.0409791,-0.806643 0.0427846,-1.21055 0.0651344,-0.0455476 0.14288,-0.078402 0.233756,-0.0947334l0.078402 -0.0141977c0.260155,-0.0467239 0.571848,0.141184 0.617395,0.394691l0.0105594 0.0587878c0.0313498,0.174585 -0.083709,0.379071 -0.250252,0.409053l-0.0783746 0.0141156c-0.10253,0.0183832 -0.231349,-0.0487756 -0.250717,-0.157132l-0.0106962 -0.0588152c-0.0170427,-0.0947608 0.033976,-0.167883 0.1286,-0.184953l0.0784567 -0.0142251c0.112542,-0.0200792 0.0949249,0.0389001 0.190506,0.0468059 -0.0914781,-0.126767 -0.122719,-0.240923 -0.359538,-0.198275l-0.0195047 0.00339213c-0.186266,0.0334563 -0.278456,0.251948 -0.24675,0.428804l0.0141977 0.0783746c0.0745995,0.415016 0.824397,0.660754 1.27779,0.579206l0.215701 -0.0389001c0.530622,-0.0953626 0.952505,-0.447433 1.10947,-0.806205 -0.154287,0.0664201 -0.240841,0.144384 -0.472409,0.186075l-0.0783746 0.0140883c-0.46371,0.0832166 -0.934176,-0.131007 -1.01247,-0.566431l-0.0210914 -0.117439c-0.0523592,-0.290711 0.102366,-0.60503 0.387907,-0.656268l0.0587057 -0.0106414c0.14578,-0.0261796 0.303623,0.11298 0.330869,0.264231 0.0201066,0.112022 -0.0951711,0.259744 -0.212637,0.280863 -0.0861711,0.0154834 -0.196443,-0.0491859 -0.25627,-0.0752287 -0.0701405,0.253753 0.175297,0.474132 0.421226,0.429843l0.176473 -0.0317055c0.244726,-0.0439609 0.461713,-0.32641 0.537133,-0.50116 0.104691,-0.242045 0.142579,-0.44508 0.0781558,-0.802923 -0.2093,-1.16391 -1.27005,-2.23924 -2.39008,-2.03774 -0.159923,0.028751 -0.337271,0.0704141 -0.497193,0.141868 -0.0206263,-0.144849 -0.0426478,-0.289261 -0.0660645,-0.433208 0.094624,-0.0447816 0.251811,-0.133606 0.492926,-0.203391 0.0776087,-0.0224865 0.123293,-0.0406235 0.233619,-0.0604565l0.137244 -0.024675c-0.0375323,-0.208315 -0.208233,-0.37007 -0.239446,-0.543562l-0.0316781 -0.176391c-0.0175351,-0.0971955 0.281629,-0.15177 0.394007,-0.171959l0.0980435 -0.0176445c0.0643958,0.35828 0.436272,0.649702 0.793266,0.585525l0.0587605 -0.0105594c0.126302,-0.0227875 0.196224,-0.147011 0.173436,-0.273997 -0.0559975,-0.310954 -0.577975,-0.462369 -0.92203,-0.40049l-0.215564 0.0387633c-0.436983,0.0785661 -0.904468,0.356475 -1.06953,0.707341 -0.0315961,-0.167117 -0.0650523,-0.333441 -0.100341,-0.498889 0.303951,-0.304717 0.684226,-0.525616 1.09935,-0.600298l0.392092 -0.0705235c0.178059,-0.0319517 0.340827,-0.0147448 0.488193,-0.0115442 0.124743,0.0027903 0.378551,0.0581039 0.448609,0.0453561 0.122719,-0.0221583 0.284173,-0.252167 0.323182,-0.341347l0.471698 0.132403c-0.0848033,0.195485 -0.283681,0.350566 -0.225659,0.672955l0.0210367 0.117411c0.0346873,0.192695 0.294322,0.412281 0.512348,0.373134 0.183558,-0.0329638 0.309122,-0.30696 0.275337,-0.49443l-0.024675 -0.137108c-0.0589519,-0.327423 -0.372998,-0.510406 -0.603772,-0.611541 -0.154178,-0.0677332 -0.694922,-0.206838 -0.892787,-0.171166l-0.274434 0.0494047c-0.135248,0.0242647 -0.385253,0.168211 -0.470576,0.238817 -0.0851315,0.0704688 -0.416904,0.123102 -0.57234,0.150868 0.165585,-0.378305 0.644477,-0.702499 1.21115,-0.804318l0.11763 -0.0211735c0.911334,-0.163944 1.68556,0.566677 1.91568,0.525315 0.15664,-0.0283133 0.525944,-0.276623 0.830771,-0.331553 0.109451,0.0479275 0.24344,0.187114 0.282504,0.33355 -0.352864,0.0633836 -0.801801,0.379344 -0.744162,0.700174 0.0228148,0.127041 0.131554,0.218984 0.257911,0.196251l0.0588425 -0.0105594c0.294404,-0.0529336 0.584267,-0.463846 0.537625,-0.723727l-0.0247297 -0.137135c-0.0664201,-0.369687 -0.591352,-0.621717 -0.969766,-0.553738l-0.156749 0.0281766c-0.230993,0.0415536 -0.33355,0.143865 -0.531251,0.196716l-0.471096 -0.204348c0.235179,-0.113965 0.366186,-0.262261 0.700147,-0.322307l0.254875 -0.0458211c0.325508,-0.0585416 0.691584,0.00232525 1.00284,0.152536zm1.34257 8.32464c-0.0289152,0.668851 -0.0914781,1.32862 -0.186978,1.98191 -0.113664,-0.115004 -0.19833,-0.347912 -0.224072,-0.491476l-0.0494047 -0.27438c-0.0806178,-0.44839 0.105731,-0.965444 0.460454,-1.21605zm-6.16263 -3.71113c-0.00839826,-0.114922 -0.0180002,-0.22968 -0.028286,-0.344301 0.0883595,-0.0377511 0.129968,-0.102311 0.107071,-0.229817 -0.0542194,0.025441 -0.0760494,0.0649155 -0.119791,0.0910404 -0.0168512,-0.175242 -0.0357268,-0.350128 -0.0568729,-0.524412l0.0368484 -0.00659277c0.209956,-0.0378879 0.453178,0.157105 0.492625,0.376417 0.0448089,0.249157 -0.16709,0.546707 -0.431594,0.637666zm2.65319 6.42636c-0.414715,-0.0211735 -0.883458,-0.41146 -0.974417,-0.917106l-0.0105594 -0.0586784c-0.0486114,-0.270276 0.0281766,-0.591598 0.289863,-0.638787 0.17609,-0.0316508 0.376554,0.0886878 0.509285,0.13098 0.0418545,-0.0405141 0.241416,-0.345122 0.234112,-0.38591 -0.0266446,-0.147585 -0.570999,-0.220981 -0.801254,-0.179591 -0.709283,0.127643 -0.837391,0.929772 -0.583145,1.5841 0.197592,0.508847 0.647295,0.932754 1.10192,0.850905 0.0575021,-0.0102858 0.213567,-0.321404 0.234194,-0.38591zm-1.12999 0.0210914c-0.0889066,-0.149199 -0.177868,-0.298507 -0.266693,-0.447816 -0.42191,0.123703 -1.11382,0.145697 -1.5563,-0.0328818 0.00763229,0.086089 0.0154014,0.172287 0.023061,0.258294 0.0130214,0.0719733 0.0258513,0.14381 0.0387907,0.215674 0.0573653,0.319052 1.44983,0.0829978 1.68685,0.0403773 0.0308574,-0.00555325 0.0521403,-0.0199698 0.0742986,-0.0336477zm1.79419 -0.828227l-0.0599641 -0.333113c-0.0133497,-0.0749551 0.00486935,-0.00834355 -0.0301188,-0.0553136 -0.0263164,0.025523 -0.369277,0.444561 -0.373654,0.460427 -0.0523045,0.189467 0.0196689,0.410858 -0.0793868,0.664967 -0.124579,0.319571 -0.429159,0.758387 -0.758661,0.912948 0.0510734,0.108876 0.328243,0.186157 0.444752,0.223443 0.433317,-0.339377 0.985386,-1.15986 0.857033,-1.87336z"/>
   <path id="_123308592" class="fil2" d="M32.5182 5.89976c0.588015,0.340936 1.17362,0.809488 1.79616,1.44795 3.13682,3.21713 5.39223,8.07012 5.95363,12.5621 0.270139,2.16215 0.21354,4.1968 -0.14764,6.17991 -0.218109,-0.132649 -0.448418,-0.266228 -0.682502,-0.395785 1.36862,-7.73575 -1.73882,-15.2202 -6.91964,-19.7941l0 -5.47118e-005 0 2.73559e-005zm7.60165 20.1927c-0.0795783,0.436573 -0.173956,0.870601 -0.282833,1.30302 0.108876,-0.432387 0.203254,-0.866443 0.282833,-1.30302zm-0.293501 1.34517c-0.0631374,0.248474 -0.131117,0.4964 -0.203801,0.743943 0.072712,-0.247543 0.140691,-0.495443 0.203801,-0.743943zm-0.215811 0.784704c-0.0127205,0.0430035 -0.0256051,0.0860069 -0.0385992,0.12901 0.0130214,-0.0430035 0.0258787,-0.0859796 0.0385992,-0.12901zm-0.0568182 0.188838c-0.0128846,0.0421554 -0.0258787,0.0842561 -0.0390642,0.126384 0.0131308,-0.0421554 0.0261796,-0.0842288 0.0390642,-0.126384zm-0.0559154 0.179974c-0.0125016,0.039666 -0.025058,0.0793047 -0.0378058,0.118943 0.0127752,-0.0396113 0.0253316,-0.0792774 0.0378058,-0.118943zm-0.0381068 0.119928c-0.405907,1.26209 -0.935188,2.51658 -1.58216,3.78395 0,0 -0.0216659,0.0631921 -0.0915054,0.148378 -0.462479,-0.0645599 -0.930292,-0.169524 -1.38905,-0.299766 0.0421281,-0.0925723 0.0676511,-0.161974 0.0594443,-0.180467 -0.00935571,-0.0211187 -0.0846665,0.0430582 -0.185829,0.143892 -0.89213,-0.263109 -1.74424,-0.616957 -2.44789,-0.948347 -0.010067,-0.101901 -0.0232251,-0.169306 -0.0404594,-0.168676 -0.0155655,0.000574474 -0.0365475,0.0479275 -0.0596632,0.121187 -0.464667,-0.221802 -0.859331,-0.430801 -1.15086,-0.592364 0.0246477,-0.0414442 0.0491312,-0.0828883 0.0733685,-0.12425 2.05965,0.579699 4.90825,0.869917 4.90825,0.869917 0.515659,-1.06075 0.934751,-2.12933 1.26362,-3.1987 0.220406,0.137682 0.435588,0.285842 0.642727,0.445244zm-7.41927 1.70063l-0.000109424 -5.47118e-005 0.0009301 -0.00407603 0.000109424 2.73559e-005 -0.0009301 0.00410338z"/>
   <path id="_123308520" class="fil7" d="M34.5479 16.3008c0.0395566,0.123758 0.0781558,0.249404 0.115633,0.376882 -0.317958,0.1286 -0.605085,0.348076 -0.727065,0.607383l-0.0135412 -0.0705508 -0.00147722 -0.00779643 -0.000191491 -0.000902744 -0.0144713 -0.0742165c-0.00886331,-0.045274 -0.0179455,-0.0904659 -0.0270823,-0.135603l-0.00155929 -0.00779643 -0.00155929 -0.00779643 -0.00155929 -0.00776907 -0.000164135 -0.000765965 -0.00858975 -0.0416904c-0.00987548,-0.0480917 -0.0199151,-0.0960465 -0.0301462,-0.144001 0.206428,-0.206947 0.447925,-0.375295 0.711773,-0.485376zm0.137244 0.449375c0.0665842,0.230255 0.129065,0.466938 0.187689,0.708791 -0.0603744,-0.167117 -0.188455,-0.306495 -0.215072,-0.454491l-0.0316781 -0.176391c-0.00538911,-0.0299 0.0191491,-0.0558334 0.0590614,-0.0779096zm0.209519 0.798327c0.0435232,0.184023 0.084475,0.371384 0.122609,0.561835 -0.138202,-0.012994 -0.278893,-0.00793321 -0.420597,0.0175625 -0.159923,0.028751 -0.337271,0.0704141 -0.497193,0.141868 -0.00853504,-0.0598547 -0.0173436,-0.119737 -0.0263437,-0.179427l-0.00984812 -0.0646146 -0.00106688 -0.00681162 -0.00103952 -0.00672955 -0.00106688 -0.00681162c-0.0062645,-0.0405961 -0.0126931,-0.0811649 -0.0191491,-0.121652l-0.00106688 -0.00672955 -0.00106688 -0.00672955 -0.00106688 -0.00672955 -0.00424016 -0.0270276c0.094624,-0.0447816 0.251784,-0.133579 0.492816,-0.203336 0.0776087,-0.0224865 0.123293,-0.0406235 0.233619,-0.0604565l0.1347 -0.02421zm0.38818 5.04177c-0.0500613,0.629514 -0.137381,1.27774 -0.270331,1.94366 0.0732317,-0.000957456 0.149199,-0.000492406 0.227109,0.00123102 -0.108849,0.287237 -0.147175,0.624043 -0.0803442,0.995754 -0.130214,0.0738609 -0.181123,0.150211 -0.430718,0.177184l-0.0542194 -0.251072c-0.0539732,-0.18405 0.00801528,-0.699381 0.0377238,-0.836926 0.0614413,-0.283927 0.16843,-0.435013 0.243686,-0.670821 -0.688055,0.183695 -1.19228,1.24702 -1.04442,2.06884 0.0301462,0.167692 0.106743,0.327259 0.157433,0.442919 0.0689095,0.157296 0.172588,0.302857 0.300149,0.428639 -0.0542741,0.156448 -0.111147,0.313635 -0.170619,0.471561l-0.000574474 -0.000410338c-0.180357,-0.13057 -0.428585,-0.47922 -0.528844,-0.658648 -0.0450004,-0.0805084 -0.0861711,-0.166105 -0.122883,-0.260045 0.0202707,-0.0643411 0.0401858,-0.128874 0.0596358,-0.193543l0.00519762 -0.0173436c0.0164956,-0.0550674 0.0325535,-0.110354 0.0484199,-0.165613l2.73559e-005 -0.000164135 0.0145807 -0.0505263 0.00984812 -0.0349608 0.0088086 -0.0320611 0.000957456 -0.00339213 0.000410338 -0.00139515 0.000820677 -0.00311857 0.000218847 -0.000683897 0.000191491 -0.000711253 0.00448637 -0.0162768 0.000300915 -0.00112159 0.0058268 -0.0210367 0.000820677 -0.0030365 0 -8.20677e-005 0.000300915 -0.000984812 0.00648335 -0.0235534 0.000820677 -0.0030365 0.000820677 -0.00311857 0.0025441 -0.00919158 0.00060183 -0.00218847 0.00270823 -0.0100123 2.73559e-005 -0.000109424 0.000820677 -0.00311857 0.000820677 -0.0030365 0.000820677 -0.0030365 0.000191491 -0.000683897 0.00317328 -0.0116263 0.000820677 -0.0030365 0.000820677 -0.00311857 0.000820677 -0.0030365 0.000382982 -0.00142251 0.000437694 -0.00169607 0.000848033 -0.0030365 0.000820677 -0.00311857 0.000820677 -0.0030365 0.000820677 -0.00311857 0.000820677 -0.0030365 0.000820677 -0.00311857 0.000820677 -0.0030365 0.000820677 -0.0030365 0.000109424 -0.000410338 0.000765965 -0.00262617 0.0154014 -0.058186 0.00128573 -0.0050882 0.0011763 -0.00451372 0.000246203 -0.000902744 0.000656541 -0.00262617 0.00752287 -0.0287237 0.000656541 -0.00262617 0.00473257 -0.0183011 0.000656541 -0.00262617 0.00202434 -0.00782378 2.73559e-005 -5.47118e-005 0.000656541 -0.00262617 0.00180549 -0.0069484 0.000902744 -0.0034742 0.000656541 -0.00262617 0.000656541 -0.00262617m1.78188 -1.08614c0.17568,0.00932836 0.355134,0.0223224 0.529856,0.0359183 -0.15995,0.111721 -0.203829,0.366487 -0.164135,0.587194l0.0105594 0.0586784c0.0909583,0.505646 0.559701,0.895933 0.974417,0.917106 -0.0206263,0.0645052 -0.176692,0.375624 -0.234194,0.38591 -0.454628,0.0818488 -0.904331,-0.342058 -1.10192,-0.850905 -0.148488,-0.382162 -0.166543,-0.814713 -0.0145807,-1.1339zm1.0671 0.0779369c0.0416904,0.0030365 0.0823412,0.00585416 0.12187,0.00845297 -0.0102585,0.0134317 -0.0185473,0.0235534 -0.0241005,0.0289152 -0.0295444,-0.00941043 -0.0625082,-0.0227601 -0.0977699,-0.0373681zm0.204978 0.0136232l0.0449457 0.00251674c0.155737,0.00820677 0.363368,0.058569 0.604948,0.140281 -0.0814111,0.130706 -0.154287,0.245929 -0.204294,0.299301 -0.147448,0.157187 -0.641222,0.70994 -0.868741,0.750919 -0.0975237,0.0174804 -0.305264,-0.290328 -0.335848,-0.404867 0.237203,-0.111338 0.518175,-0.41529 0.758989,-0.788151zm1.37617 0.433646c0.517245,0.232334 1.09169,0.533878 1.62023,0.842206 -0.0953079,-0.0234987 -0.172014,-0.0398849 -0.213239,-0.0324714 -0.0458758,0.00820677 -0.0725205,0.0464777 -0.0643137,0.0924629 0.0432497,0.240321 0.235315,0.435095 0.484582,0.559209 -0.122363,0.594225 -0.272027,1.18432 -0.448582,1.77233 -0.0859248,0.0950891 -0.185555,0.189111 -0.299137,0.2752 -0.097004,-0.070332 -0.195513,-0.138448 -0.295279,-0.204212l0.010067 -0.00623714c0.359511,-0.225385 0.718119,-0.777646 0.62459,-1.29746l-0.0106962 -0.0588972c-0.0447816,-0.249513 -0.379071,-0.619365 -0.609763,-0.578003 -0.188783,0.033976 -0.39201,0.520391 -0.361152,0.692077l0.0247571 0.13719c0.0714809,0.398056 0.361973,0.576142 0.566623,0.787986l-0.25285 0.254984c-0.165065,-0.0757485 -0.343809,-0.261851 -0.472628,-0.395539 -0.0981803,-0.102037 -0.303541,-0.449047 -0.443795,-0.397563l-0.391572 0.141047c-0.286826,-0.130214 -0.574911,-0.246176 -0.859221,-0.349499 0.163068,0.0276568 0.327341,0.0306933 0.485129,0.00229789l0.0980162 -0.0175898c0.292489,-0.0525233 0.530267,-0.223853 0.689314,-0.378414 0.104445,-0.10149 0.31038,-0.47643 0.27996,-0.645599l-0.0175898 -0.0979067c-0.00801528,-0.0451099 -0.0241553,-0.0562984 -0.0693745,-0.0481737 -0.122418,0.0220488 -0.520911,0.376909 -0.832741,0.432962l-0.0587878 0.0105867c0.00648335,-0.0792774 0.150922,-0.349526 0.185172,-0.471451 0.0431676,-0.153795 0.225194,-0.262644 0.331854,-0.369414 0.122828,-0.122937 0.25285,-0.388317 0.300422,-0.65211zm1.33149 3.38871l-0.0238543 0.0769521c-0.0100396,-0.00120366 -0.0202434,-0.00218847 -0.0305292,-0.0030365l-0.00716724 -0.0392557 0.0159758 0.0146628 0.0455749 -0.0493227zm-1.3458 -0.552261c-0.0805904,-0.042046 -0.161591,-0.0828883 -0.242784,-0.122554 0.0945693,0.0175351 0.179537,0.0569276 0.242784,0.122554zm-1.93278 -0.789956c-0.345806,-0.108959 -0.68045,-0.199725 -0.993976,-0.275118 -0.111065,-0.146299 -0.168676,-0.2752 -0.295033,-0.450196l0.180084 -0.00763229 0.293857 -0.0573927c0.130159,0.301982 0.441223,0.599231 0.815069,0.790339zm-2.464 -1.56065l0.000246203 -0.000902744 8.20677e-005 -0.000410338c0.152482,-0.608176 0.269456,-1.22708 0.352946,-1.8524 0.239911,-0.250306 0.529118,-0.458731 0.913741,-0.624453 -0.0273832,-0.134646 -0.1466,-0.136369 -0.254902,-0.175898 -0.111694,-0.0408971 -0.157816,-0.0850221 -0.254437,-0.152126 -0.10346,-0.0719733 -0.203254,-0.14184 -0.285486,-0.235343 0.027055,-0.402706 0.0409791,-0.806643 0.0427846,-1.21055 0.0651344,-0.0455476 0.14288,-0.078402 0.233756,-0.0947334l0.078402 -0.0141977c0.260155,-0.0467239 0.571848,0.141184 0.617395,0.394691l0.0105594 0.0587878c0.0313498,0.174585 -0.083709,0.379071 -0.250252,0.409053l-0.0783746 0.0141156c-0.10253,0.0183832 -0.231349,-0.0487756 -0.250717,-0.157132l-0.0106962 -0.0588152c-0.0170427,-0.0947608 0.033976,-0.167883 0.1286,-0.184953l0.0784567 -0.0142251c0.112542,-0.0200792 0.0949249,0.0389001 0.190506,0.0468059 -0.0914781,-0.126767 -0.122719,-0.240923 -0.359538,-0.198275l-0.0195047 0.00339213c-0.186266,0.0334563 -0.278456,0.251948 -0.24675,0.428804l0.0141977 0.0783746c0.0531525,0.29569 0.448992,0.505345 0.83627,0.572012m-1.05222 -3.18012l-0.000957456 -0.0108056 -0.00205169 -0.0235261c0.0883595,-0.0377511 0.129968,-0.102311 0.107071,-0.229817 -0.0542194,0.025441 -0.0760494,0.0649155 -0.119791,0.0910404 -0.0168512,-0.175242 -0.0357268,-0.350128 -0.0568729,-0.524412l0.0368484 -0.00659277c0.209956,-0.0378879 0.453178,0.157105 0.492625,0.376417 0.0448089,0.249157 -0.16709,0.546707 -0.431594,0.637666 -0.00755023,-0.103433 -0.01614,-0.206783 -0.0252768,-0.30997zm1.54851 6.75745c-0.0889066,-0.149199 -0.177868,-0.298507 -0.266693,-0.447816 -0.42191,0.123703 -1.11382,0.145697 -1.5563,-0.0328818 0.00763229,0.086089 0.0154014,0.172287 0.023061,0.258294 0.0130214,0.0719733 0.0258513,0.14381 0.0387907,0.215674 0.0573653,0.319052 1.44983,0.0829978 1.68685,0.0403773 0.0308574,-0.00555325 0.0521403,-0.0199698 0.0742986,-0.0336477zm1.79419 -0.828227l-0.0599641 -0.333113c-0.0133497,-0.0749551 0.00486935,-0.00834355 -0.0301188,-0.0553136 -0.0263164,0.025523 -0.369277,0.444561 -0.373654,0.460427 -0.0523045,0.189467 0.0196689,0.410858 -0.0793868,0.664967 -0.124579,0.319571 -0.429159,0.758387 -0.758661,0.912948 0.0510734,0.108876 0.328243,0.186157 0.444752,0.223443 0.433317,-0.339377 0.985386,-1.15986 0.857033,-1.87336z"/>
   <path id="_123308448" class="fil4" d="M31.8706 28.2741c0,0 0.330541,-0.684143 1.17611,-1.11462 0.845571,-0.430472 -0.584212,1.12999 -1.17611,1.11462z"/>
   <path id="_123308376" class="fil5" d="M37.9676 32.3158c-0.0297906,0.0597726 -0.0598,0.1196 -0.0902471,0.179181 0,0 -0.254081,0.748156 -1.85511,0.563066 0,0 0.465543,-0.823795 0.434001,-0.895003 -0.0315413,-0.0712074 -0.811485,0.827981 -0.811485,0.827981 0,0 -0.98514,0.00344684 -1.78954,-0.690736 0,0 -0.00328271,-1.11297 -0.0731496,-1.11043 -0.0698396,0.0025441 -0.239911,0.908817 -0.239911,0.908817 -0.542577,-0.0721922 -1.16558,-0.270003 -1.53122,-0.593978 -0.130843,-0.115907 -0.152345,-0.272301 -0.0748184,-0.625684 0.0332648,-0.151606 0.0738609,-0.338037 0.126877,-0.566732 3.037,1.36432 4.97822,1.83952 5.9046,2.00352z"/>
   <path id="_123308304" class="fil5" d="M37.7998 17.9884c0,0 0,1.01649 1.37072,1.57094 0,0 -0.908681,-0.0308027 -1.29371,-0.400436 -0.385034,-0.369633 -0.0770068,-1.1705 -0.0770068,-1.1705z"/>
   <path id="_123308232" class="fil2" d="M40.1956 22.0165c0,0 0.0616328,2.51124 -0.83947,5.97636 -1.84677,-1.45555 -4.3791,-1.92999 -5.6819,-2.08247 0.530868,-1.94 1.71989,-8.08837 -2.09653,-14.8203l-4.44913 -6.15603c3.03018,-0.133716 4.77169,-0.00240732 6.97723,2.25957 3.67269,3.7668 6.13806,9.77623 6.08978,14.823l0 -2.73559e-005 0 -2.73559e-005 2.73559e-005 -2.73559e-005z"/>
   <path id="_123308160" class="fil2" d="M39.5829 18.9035c0,0 -2.47522,-0.069183 -2.42909,-0.069183 0.046122,0 2.34454,-0.445846 2.34454,-0.445846l0.0845571 0.515029z"/>
   <polygon id="_123308088" class="fil2" points="34.6615,16.1811 38.3885,14.6256 38.25,14.1789 34.7078,15.95 "/>
   <path id="_123308016" class="fil2" d="M40.4112 22.0782c0,0 0.184543,2.58822 -0.716533,6.05309 -0.171439,-0.135111 -0.68759,-0.400326 -0.869343,-0.519051 0.714536,-2.80882 0.993839,-6.13059 0.284091,-9.61032 -0.727995,-3.5692 -2.63919,-7.66537 -6.20095,-11.8638 0.390587,0.285787 0.785853,0.633535 1.19734,1.05555 3.98099,3.58182 6.35368,9.83778 6.3054,14.8846l0 -2.73559e-005 0 2.73559e-005z"/>
   <path id="_123307944" class="fil3" d="M39.9095 27.2435c-0.0606754,0.266228 -0.127041,0.539376 -0.199725,0.818816 -1.84682,-1.45569 -4.73292,-1.99922 -6.03567,-2.1517 0.0632742,-0.231403 0.135877,-0.522634 0.20826,-0.867373 3.04862,0.286553 5.2273,1.53992 6.0271,2.20026l2.73559e-005 0z"/>
   <path id="_123307872" class="fil3" d="M33.6739 25.9104c0.530868,-1.94005 1.72,-8.08851 -2.09639,-14.8204l-0.0926544 -0.12819c4.47449,4.56887 4.46659,10.5714 3.30694,15.122 -0.425521,-0.0821224 -0.80667,-0.136944 -1.1179,-0.173354l0 2.73559e-005 0 -5.47118e-005z"/>
   <path id="_123307800" class="fil1" d="M39.7718 28.2857l0.144111 -0.353739c0.0579671,-0.142333 -2.71007,-1.95898 -6.31393,-2.3714l-0.0777454 0.333222c1.26666,0.13481 4.32223,0.828692 6.24757,2.39192z"/>
   <path id="_123307728" class="fil2" d="M39.5592 25.4682c0,0 -0.739266,-0.800871 -3.26509,-1.46313 0,0 1.86357,-0.0770068 3.32669,0.431238 0,0 0.0154014,0.215619 0.0154014,0.33883 0,0.123211 -0.10781,0.662259 -0.0770068,0.693061z"/>
   <path id="_123307656" class="fil1" d="M33.6912 24.1127c0,0 1.90977,-0.200218 4.11214,0.292626 0,0 -1.1397,-0.708463 -3.94275,-0.800871l-0.169415 0.508245 2.73559e-005 0z"/>
   <path id="_123307584" class="fil1" d="M39.9842 27.4743c0,0 -1.7876,-1.25405 -3.89914,-2.05065 0,0 2.08214,0.420624 4.11288,1.58289l-0.213704 0.467758 -2.73559e-005 0z"/>
   <polygon id="_123307512" class="fil1" points="33.1417,16.5302 38.7836,13.6938 38.8583,13.9631 33.3679,16.8279 "/>
   <path id="_123307440" class="fil1" d="M38.0072 15.0214c0,0 -0.564215,-0.606343 -1.4997,-0.752506 0.412499,0.448035 0.875498,0.727639 1.4997,0.752506z"/>
   <path id="_123307368" class="fil1" d="M35.5012 16.3915c0,0 0.322088,-0.722305 0.101135,-1.59901 -0.239665,0.529856 -0.312459,1.04117 -0.101135,1.59901z"/>
   <polygon id="_123307272" class="fil1" points="40.1444,18.0909 37.0793,18.8455 40.1906,18.5222 "/>
   <path id="_123307176" class="fil4" d="M12.5634 11.2442l4.44913 -6.15603c-3.03018,-0.133716 -4.77169,-0.00240732 -6.97723,2.25957 -3.13682,3.21713 -5.39223,8.07012 -5.95363,12.5621 -0.564899,4.52138 0.297824,8.48602 2.39047,12.5853 0,0 0.254081,0.748184 1.85522,0.563094 0,0 -0.465652,-0.82385 -0.434111,-0.894948 0.0315687,-0.07118 0.81143,0.827762 0.81143,0.827762 0,0 0.985195,0.00358362 1.78965,-0.690517 0,0 0.00328271,-1.11292 0.0730949,-1.11038 0.0698122,0.0025441 0.293665,0.824014 0.293665,0.824014l1.05197 -0.277799c0.480588,-0.22596 0.630799,-0.261851 0.500285,-0.857087 -0.0996301,-0.45471 -0.266145,-1.22163 -0.632277,-2.50911 0.101025,-0.11908 0.34556,0.440102 0.524604,0.747363 0,0 0.575924,-0.635942 0.551249,-0.852656 -0.0245382,-0.216795 -2.04141,-1.78473 -2.04141,-1.78473 -1.62981,-5.11375 -0.527476,-11.2222 1.74793,-15.2359l0 -2.73559e-005 -5.47118e-005 0z"/>
   <path id="_123307104" class="fil2" d="M11.8315 5.89976c-0.588015,0.340936 -1.17362,0.809488 -1.79616,1.44795 -3.13682,3.21713 -5.39223,8.07012 -5.95363,12.5621 -0.564899,4.52138 0.297824,8.48602 2.39047,12.5853 0,0 0.0216659,0.0631921 0.0915054,0.148378 0.462479,-0.0645599 0.930292,-0.169524 1.38905,-0.299766 -0.0421281,-0.0925723 -0.0676511,-0.161974 -0.0594443,-0.180467 0.00935571,-0.0211187 0.0846665,0.0430582 0.185829,0.143892 0.89213,-0.263109 1.74424,-0.616957 2.44789,-0.948347 0.010067,-0.101901 0.0232251,-0.169306 0.0404594,-0.168676 0.0155655,0.000574474 0.0365475,0.0479275 0.0596632,0.121187 0.927091,-0.442536 1.57554,-0.834163 1.68228,-0.899571l-0.0009301 -0.00407603c-2.05038,0.704414 -5.51207,1.05695 -5.51207,1.05695 -4.67072,-9.60832 -1.43266,-19.8547 5.03515,-25.5648l0 2.73559e-005 -5.47118e-005 0z"/>
   <path id="_123307032" class="fil6" d="M5.36356 25.0533l-0.264942 0.402679c0.126576,0.210011 0.249978,0.504744 0.130925,0.783226l-0.0547665 0.128135c-0.074791,0.17505 -0.330295,0.335 -0.501734,0.261577 -0.0895905,-0.0383256 -0.158473,-0.123019 -0.200847,-0.221036l-0.138941 0.21116c0.150375,0.714782 0.340499,1.42368 0.569194,2.13029l0.01376 0.0090548c0.591161,-0.529774 1.48113,-0.829157 2.13537,-0.549334l0.183148 0.0781011c0.792692,0.339022 0.894674,0.715931 0.76353,0.973815 -0.207823,0.409025 -1.03712,0.551331 -0.882884,0.0145807 0.515193,0.377812 0.68335,-0.205826 0.289808,-0.374092l-0.0181917 -0.00771436c-0.193789,-0.0829978 -0.473147,-0.00831619 -0.551714,0.175488l-0.0546571 0.127916c-0.0745722,0.174038 0.159676,0.58807 0.288194,0.643055l0.164874 0.0704414c0.30376,0.129804 0.661848,-0.0142251 0.879355,-0.277744 0.13295,-0.160798 0.226835,-0.379809 0.295854,-0.572477 0.326356,-0.910513 -0.147886,-2.22412 -0.932891,-2.64217l-0.044125 0.394362c0.168868,0.208753 0.294541,0.257692 0.399451,0.52258 0.0704961,0.178059 0.149035,0.423934 0.0462862,0.664064 -0.0157843,0.0369852 -0.0901377,0.0913687 -0.120147,0.0785661 -0.141594,-0.0605659 -0.255613,-0.197728 -0.384323,-0.270851 -0.0792227,-0.0448637 -0.459798,-0.186458 -0.424372,-0.269866l0.00790585 -0.0183011c0.0511555,-0.119408 0.255477,-0.242701 0.347365,-0.457746l0.0311857 -0.0730402c0.273422,-0.639116 -0.235014,-1.48633 -0.890544,-1.76659l-0.23816 -0.101873c-0.311994,-0.133469 -0.502993,-0.0815205 -0.762108,-0.115633l0.281191 0.429597c0.194172,0.0646146 0.336149,0.0354532 0.551905,0.127807l0.146491 0.0626997c0.353411,0.151141 0.653395,0.650195 0.505619,0.995536l-0.0547118 0.128272c-0.103843,0.242674 -0.571848,0.42656 -0.846829,0.308903l-0.0550674 -0.0236081c-0.117986,-0.0504169 -0.158336,-0.18695 -0.107563,-0.30562 0.128244,-0.299574 0.676976,-0.316891 1.00659,-0.175844 0.0477907,-0.143728 0.0123922,-0.333714 -0.0526874,-0.434001 -0.28483,-0.121624 -0.729746,-0.117056 -0.876182,-0.179591 -0.134482,-0.0575021 -0.280699,-0.484145 -0.579617,-0.884772z"/>
   <path id="_123306960" class="fil5" d="M12.5634 11.2442l0.111147 -0.153795c-0.0292434,-0.0164409 -0.0581586,-0.0346326 -0.0876756,-0.0490765 0,0 -4.84596,5.4987 -3.24985,13.4926 -0.588152,-0.00776907 -1.35464,0.0810008 -1.86291,0.107755 -0.628693,0.0331006 -2.10238,0.753299 -3.24482,1.44803 0.160634,0.881817 0.381423,1.7534 0.660672,2.62143 1.60631,-1.23619 3.69138,-1.79632 5.01573,-2.04165 0.517738,1.55442 1.28742,3.18477 2.38442,4.8731 0.173163,-0.121077 0.209437,-0.270085 0.123211,-0.663353 -0.0996301,-0.45471 -0.266145,-1.22163 -0.632277,-2.50911 0.101025,-0.11908 0.34556,0.440102 0.524604,0.747363 0,0 0.575924,-0.635942 0.551249,-0.852656 -0.0221309,-0.19554 -1.66496,-1.49021 -1.9868,-1.74216l-0.00470521 -0.00369305 -0.0498971 -0.0388727c-0.0245109,-0.0769248 -0.0483105,-0.154123 -0.0715904,-0.231513l-0.00519762 -0.0173436c-0.0215564,-0.0719186 -0.0425384,-0.144029 -0.063028,-0.216303l-0.00984812 -0.0349608c-0.0183558,-0.0653532 -0.0362192,-0.130871 -0.053727,-0.196497l-0.0154014 -0.058186c-0.0146354,-0.0557513 -0.0289425,-0.111612 -0.0429761,-0.167555 -0.00834355,-0.0332921 -0.0165777,-0.0666389 -0.0247024,-0.0999858 -0.00993019,-0.0407056 -0.0196415,-0.0815205 -0.0292434,-0.122308 -0.0134865,-0.0572832 -0.0266173,-0.114676 -0.0395019,-0.172151l-0.00845297 -0.0379426 -0.00574474 -0.025906c-0.0135959,-0.0618243 -0.0268088,-0.123758 -0.0396934,-0.185774l-0.00990283 -0.0479275 -0.0053344 -0.0259607 -2.73559e-005 0c-0.960657,-4.73331 0.13574,-10.0033 2.1723,-13.5955l-2.73559e-005 0z"/>
   <path id="_123306888" class="fil7" d="M6.11626 25.0848c-0.153439,0.0693472 -0.311693,0.144631 -0.472135,0.224291l0.0814932 0.124524c0.194172,0.0646146 0.336149,0.0354532 0.551905,0.127807l0.146491 0.0626997c0.353411,0.151141 0.653395,0.650195 0.505619,0.995536l-0.0547118 0.128272c-0.103843,0.242674 -0.571848,0.42656 -0.846829,0.308903l-0.0550674 -0.0236081c-0.117986,-0.0504169 -0.158336,-0.18695 -0.107563,-0.30562 0.128244,-0.299574 0.676976,-0.316891 1.00659,-0.175844 0.0477907,-0.143728 0.0123922,-0.333714 -0.0526874,-0.434001 -0.28483,-0.121624 -0.729746,-0.117056 -0.876182,-0.179591 -0.101053,-0.0431949 -0.208671,-0.294814 -0.382764,-0.587194 -0.133798,0.0673502 -0.268799,0.137491 -0.403445,0.209519 0.100971,0.197427 0.172999,0.443931 0.0725752,0.678809l-0.0547665 0.128135c-0.074791,0.17505 -0.330295,0.335 -0.501734,0.261577 -0.0895905,-0.0383256 -0.158473,-0.123019 -0.200847,-0.221036l-0.138858 0.211051c0.00705782,0.033511 0.0141704,0.0670493 0.0213923,0.10056l0.00637392 0.0295991 0.000848033 0.00388454 0.000656541 0.0030365 0.0140609 0.0638486 0.00251674 0.0114074 0.00492406 0.0220215 0.00424016 0.0190123 0.00697575 0.031131 0.00224318 0.0099849 0.00155929 0.0067569 0.00757758 0.0334289 0.000218847 0.000848033 0.00746816 0.0325535 0.00194227 0.00850768 0.00574474 0.0249486 0.00374776 0.0160853 0.0192585 0.082013 0.000519762 0.00207905 0.00790585 0.0334015 0.00134044 0.00555325 0.00670219 0.0277662 0.00317328 0.0131855 0.0048967 0.020216 0.0150457 0.0617696 0.00123102 0.00495142c0.0321705,0.130816 0.0657088,0.261468 0.10056,0.391983l0.00205169 0.00776907 0.00120366 0.00445901c0.0470795,0.175953 0.0965936,0.35166 0.148488,0.527175l0.000984812 0.00339213c0.0482284,0.163068 0.0985906,0.325863 0.150922,0.488658 0.636708,-0.489971 1.3487,-0.87372 2.05864,-1.17376l2.73559e-005 -5.47118e-005 0.00790585 -0.0183011c0.0511555,-0.119408 0.255477,-0.242701 0.347365,-0.457746l0.0311857 -0.0730402c0.273422,-0.639116 -0.235014,-1.48633 -0.890544,-1.76659l-0.23816 -0.101873c-0.0312678,-0.013377 -0.0612498,-0.0249212 -0.0902744,-0.0348514zm1.6622 2.13671c0.124305,-0.0424563 0.247571,-0.0825327 0.369387,-0.120339 -0.17557,-0.296729 -0.405852,-0.541182 -0.671833,-0.68283l-0.044125 0.394362c0.141403,0.174804 0.252577,0.237504 0.346572,0.408806z"/>
   <path id="_123306816" class="fil4" d="M12.479 28.2741c0,0 -0.330541,-0.684143 -1.17611,-1.11462 -0.845571,-0.430472 0.584212,1.12999 1.17611,1.11462z"/>
   <path id="_123306744" class="fil5" d="M6.38194 32.3158c0.0297906,0.0597726 0.0598,0.1196 0.0902471,0.179181 0,0 0.254081,0.748156 1.85511,0.563066 0,0 -0.465543,-0.823795 -0.434001,-0.895003 0.0315413,-0.0712074 0.811485,0.827981 0.811485,0.827981 0,0 0.98514,0.00344684 1.78954,-0.690736 0,0 0.00328271,-1.11297 0.0731496,-1.11043 0.0698396,0.0025441 0.239911,0.908817 0.239911,0.908817 0.542577,-0.0721922 1.16558,-0.270003 1.53122,-0.593978 0.130843,-0.115907 0.152345,-0.272301 0.0748184,-0.625684 -0.0332648,-0.151606 -0.0738609,-0.338037 -0.126877,-0.566732 -3.037,1.36432 -4.97822,1.83952 -5.9046,2.00352z"/>
   <path id="_123306672" class="fil5" d="M6.54996 17.9884c0,0 0,1.01649 -1.37072,1.57094 0,0 0.908681,-0.0308027 1.29371,-0.400436 0.385034,-0.369633 0.0770068,-1.1705 0.0770068,-1.1705z"/>
   <path id="_123306600" class="fil2" d="M4.15427 22.0165c0,0 -0.0616328,2.51124 0.83947,5.97636 1.84677,-1.45555 4.3791,-1.92999 5.6819,-2.08247 -0.530868,-1.94 -1.71989,-8.08837 2.09653,-14.8203l4.44913 -6.15603c-3.03018,-0.133716 -4.77169,-0.00240732 -6.97723,2.25957 -3.67269,3.7668 -6.13806,9.77623 -6.08978,14.823l0 -2.73559e-005 0 -2.73559e-005 -2.73559e-005 -2.73559e-005z"/>
   <path id="_123306528" class="fil2" d="M3.93862 22.0782c0,0 -0.184543,2.58822 0.716533,6.05309 0.171439,-0.135111 0.68759,-0.400326 0.869343,-0.519051 -0.714536,-2.80882 -0.993839,-6.13059 -0.284091,-9.61032 0.727995,-3.5692 2.63919,-7.66537 6.20095,-11.8638 -0.390587,0.285787 -0.785853,0.633535 -1.19734,1.05555 -3.98099,3.58182 -6.35368,9.83778 -6.3054,14.8846l0 -2.73559e-005 0 2.73559e-005z"/>
   <path id="_123306456" class="fil3" d="M4.44024 27.2435c0.0606754,0.266228 0.127041,0.539376 0.199725,0.818816 1.84682,-1.45569 4.73292,-1.99922 6.03567,-2.1517 -0.0632742,-0.231403 -0.135877,-0.522634 -0.20826,-0.867373 -3.04862,0.286553 -5.2273,1.53992 -6.0271,2.20026l-2.73559e-005 0z"/>
   <path id="_123306384" class="fil3" d="M10.6757 25.9104c-0.530868,-1.94005 -1.72,-8.08851 2.09639,-14.8204l0.0926544 -0.12819c-4.47449,4.56887 -4.46659,10.5714 -3.30694,15.122 0.425521,-0.0821224 0.80667,-0.136944 1.1179,-0.173354l0 2.73559e-005 0 -5.47118e-005z"/>
   <path id="_123306312" class="fil1" d="M4.57784 28.2857l-0.144111 -0.353739c-0.0579671,-0.142333 2.71007,-1.95898 6.31393,-2.3714l0.0777454 0.333222c-1.26666,0.13481 -4.32223,0.828692 -6.24757,2.39192z"/>
   <path id="_123306240" class="fil2" d="M4.79062 25.4682c0,0 0.739266,-0.800871 3.26509,-1.46313 0,0 -1.86357,-0.0770068 -3.32669,0.431238 0,0 -0.0154014,0.215619 -0.0154014,0.33883 0,0.123211 0.10781,0.662259 0.0770068,0.693061z"/>
   <path id="_123306168" class="fil1" d="M10.6585 24.1127c0,0 -1.90977,-0.200218 -4.11214,0.292626 0,0 1.1397,-0.708463 3.94275,-0.800871l0.169415 0.508245 -2.73559e-005 0z"/>
   <path id="_123306096" class="fil1" d="M4.36578 27.4743c0,0 1.7876,-1.25405 3.89914,-2.05065 0,0 -2.08214,0.420624 -4.11288,1.58289l0.213704 0.467758 2.73559e-005 0z"/>
   <polygon id="_123306024" class="fil2" points="4.65977,19.9851 8.8951,19.4153 4.82919,19.2922 "/>
   <polygon id="_123305952" class="fil1" points="6.55991,11.0536 12.0232,13.7869 11.8575,14.0005 6.45982,11.4012 "/>
   <path id="_123305880" class="fil1" d="M10.5447 13.9529c0,0 0.143646,-0.78826 -0.284228,-1.59813 -0.10874,0.579042 -0.0576389,1.09979 0.284228,1.59813z"/>
   <path id="_121761480" class="fil1" d="M8.03265 12.8028c0,0 0.746378,-0.168184 1.29826,-0.846747 -0.54947,0.120749 -0.988013,0.36014 -1.29826,0.846747z"/>
   <polygon id="_121761384" class="fil1" points="3.99377,19.1902 10.3428,19.101 10.2923,19.367 4.06777,19.5449 "/>
   <path id="_121761312" class="fil1" d="M7.73592 20.0768c0,0 -0.0945967,-0.798436 -0.763503,-1.45957 0.066338,0.587386 0.27386,1.07446 0.763503,1.45957z"/>
   <path id="_121761240" class="fil1" d="M8.7276 20.0255c0,0 0.532428,-0.602459 0.57989,-1.54178 -0.393897,0.440785 -0.6189,0.920033 -0.57989,1.54178z"/>
   <path id="_121761168" class="fil1" d="M5.22932 20.0803c0,0 0.608203,-0.492926 0.792719,-1.34938 -0.449238,0.360195 -0.73932,0.774609 -0.792719,1.34938z"/>
   <polygon id="_121761096" class="fil3" points="23.2954,13.5783 22.4493,16.6116 22.464,13.6094 "/>
   <path id="_121761024" class="fil3" d="M12.2558 5.14769c1.45107,-1.367 18.4524,-1.32843 19.9032,0.0382162 -0.379371,5.91757 -5.3176,8.75145 -9.91845,8.72371 -4.68776,-0.0282313 -8.88484,-3.02726 -9.98468,-8.7619l-2.73559e-005 0 2.73559e-005 -2.73559e-005 -2.73559e-005 0z"/>
   <path id="_121760952" class="fil1" d="M12.1789 5.10343c1.45107,-1.30685 18.614,-1.27 20.0646,0.0365475 -0.379371,5.65731 -5.40208,8.36658 -10.0029,8.34004 -4.68779,-0.0270003 -8.96187,-2.89414 -10.0617,-8.37662l2.73559e-005 2.73559e-005 2.73559e-005 0 2.73559e-005 0z"/>
   <path id="_121760880" class="fil2" d="M31.9673 5.58531c-0.792008,5.07088 -5.44957,7.50347 -9.73509,7.47836 -4.42205,-0.025906 -8.46949,-2.66895 -9.74296,-7.72982 0.276076,-0.116345 0.628885,-0.256297 1.52837,-0.218738 4.86295,-0.499519 18.1691,-0.939237 17.9497,0.470138l0 2.73559e-005 -2.73559e-005 0 2.73559e-005 2.73559e-005z"/>
   <path id="_121760808" class="fil3" d="M31.921 5.41589c-0.741646,4.74849 -4.87293,7.18338 -8.9143,7.45317l0.00722195 -0.238707c7.87822,-1.23099 8.24269,-6.91475 8.13912,-7.12175l0.62128 -0.148269c0.097469,0.0243741 0.14857,0.0434138 0.146682,0.0555325l-2.73559e-005 0 2.73559e-005 2.73559e-005z"/>
   <path id="_121760736" class="fil3" d="M12.6642 5.28519c1.142,4.99494 5.13429,7.34481 9.17569,7.61462l0.0697849 -0.238707c-7.80122,-0.907559 -8.60408,-7.24532 -8.70804,-7.47533 -0.0919979,-0.0219394 -0.397016,0.0257692 -0.537352,0.0994387l-2.73559e-005 -2.73559e-005 -5.47118e-005 0z"/>
   <path id="_121760664" class="fil2" d="M13.839 4.91353c0.178908,-0.168567 0.645435,-0.311392 1.31415,-0.428721 3.83625,-0.67301 14.3272,-0.506303 15.3534,0.460454 -0.31514,4.91585 -4.48746,7.26996 -8.30941,7.24693 -3.89408,-0.0234714 -7.44449,-2.5148 -8.35813,-7.27861l2.73559e-005 -2.73559e-005 0 -2.73559e-005z"/>
   <path id="_121760520" class="fil8" d="M14.2549 6.39893c1.74952,-1.38541 4.76307,-2.09335 7.79427,-2.11647l0.247024 0c3.11802,0.0237723 6.21715,0.772257 7.9412,2.2373 -1.03274,3.69482 -4.67222,5.47131 -8.04036,5.45154 -3.44698,-0.020216 -6.62428,-1.92181 -7.94218,-5.57234l5.47118e-005 0 0 -2.73559e-005z"/>
   <path id="_121760448" class="fil1" d="M13.7316 4.62996c2.51816,-0.757485 14.0166,-1.05213 16.8669,0.000109424 -0.31514,5.15068 -4.57954,7.36363 -8.40149,7.34123 -3.89408,-0.0228422 -7.44449,-2.44636 -8.35813,-7.0805l-0.10729 -0.260838z"/>
   <path id="_121760376" class="fil5" d="M22.1957 11.5088c-3.67132,-0.022678 -6.96692,-2.11882 -7.86575,-6.68466 3.88716,-0.376718 11.7591,-0.718667 15.737,0.067569 0.0198877,3.11471 -2.97181,6.64734 -7.87127,6.61709z"/>
   <path id="_121760304" class="fil3" d="M30.3608 10.6881c0,0 -1.37072,2.67984 -6.31456,3.57312 0,0 3.26509,-0.0616055 4.4972,-0.847075 1.23211,-0.78547 1.81736,-2.72604 1.81736,-2.72604z"/>
   <path id="_121760232" class="fil3" d="M13.9889 10.6881c0,0 1.37072,2.67984 6.31456,3.57312 0,0 -3.26509,-0.0616055 -4.4972,-0.847075 -1.23211,-0.78547 -1.81736,-2.72604 -1.81736,-2.72604z"/>
   <path id="_121760592" class="fil1" d="M22.1403 11.7764l0.2929 3.13824c0.210257,-0.0839826 0.174585,-1.06294 0.353958,-3.18447 -0.215619,0.0154014 -0.431238,0.0308027 -0.646857,0.0462041l0 2.73559e-005z"/>
   <path id="_165111488" class="fil1" d="M18.721 16.6677c0.920936,-0.810199 2.12897,-1.30181 3.45163,-1.30181 1.32268,0 2.53075,0.491613 3.45163,1.30181l-0.875033 0c-0.739813,-0.486497 -1.62516,-0.769658 -2.5766,-0.769658 -0.95141,0 -1.83676,0.283161 -2.57657,0.769658l-0.87506 0zm-1.80735 3.08812c-0.0123922,0 -0.018602,-0.00620979 -0.018602,-0.018602l0.0074408 -2.55786c0,-0.00987548 0.00495142,-0.0148542 0.014909,-0.0148542l0.714837 0c0.228367,0 0.408916,0.069484 0.541729,0.208479 0.132785,0.138995 0.199151,0.327641 0.199151,0.565939 0,0.176227 -0.034742,0.328845 -0.104226,0.457965 -0.0695113,0.129065 -0.160114,0.228312 -0.271808,0.297824 -0.111694,0.069484 -0.233318,0.104281 -0.364845,0.104281l-0.282969 0 0 0.938225c0,0.0123922 -0.00620979,0.018602 -0.018602,0.018602l-0.417013 0zm0.435615 -1.40735l0.282969 0c0.0794141,0 0.148269,-0.0378606 0.206646,-0.113554 0.0582954,-0.0757211 0.0874568,-0.174394 0.0874568,-0.295991 0,-0.0968125 -0.0260428,-0.176227 -0.0781831,-0.238297 -0.052113,-0.0620432 -0.124114,-0.0930921 -0.21592,-0.0930921l-0.282969 0.00374776 0 0.737187zm1.26589 1.40735c-0.0124196,0 -0.018602,-0.00620979 -0.018602,-0.018602l0.00369305 -2.55786c0,-0.00987548 0.00495142,-0.0148542 0.014909,-0.0148542l0.416986 0c0.00990283,0 0.0148816,0.00497877 0.0148816,0.0148542l0.0037204 2.55786c0,0.0123922 -0.00495142,0.018602 -0.014909,0.018602l-0.420679 0zm1.45202 0.0372587c-0.134044,0 -0.256297,-0.0341401 -0.36676,-0.10242 -0.110408,-0.0682529 -0.199151,-0.158828 -0.266173,-0.271753 -0.0669946,-0.11298 -0.100506,-0.237695 -0.100506,-0.374201l0.00369305 -1.18027c0,-0.136479 0.0328818,-0.26062 0.0986727,-0.372314 0.0657909,-0.111694 0.154533,-0.201066 0.266228,-0.268088 0.111694,-0.0669946 0.233318,-0.100506 0.364845,-0.100506 0.134044,0 0.255668,0.033511 0.364845,0.100506 0.109232,0.0670219 0.196744,0.156394 0.26248,0.268088 0.0657909,0.111694 0.0987,0.235835 0.0987,0.372314l0.0037204 1.18027c0,0.136506 -0.0328818,0.261221 -0.0986727,0.374201 -0.0657909,0.112925 -0.153877,0.2035 -0.26434,0.271753 -0.110463,0.0682803 -0.232689,0.10242 -0.366733,0.10242zm0 -0.450524c0.0744354,0 0.139624,-0.0303924 0.195458,-0.0912045 0.0558607,-0.0608121 0.0837911,-0.129722 0.0837911,-0.206646l-0.00374776 -1.18027c0,-0.0819035 -0.0260428,-0.151387 -0.0781831,-0.208479 -0.052113,-0.0570644 -0.117904,-0.0856513 -0.197318,-0.0856513 -0.0769521,0 -0.142688,0.0279304 -0.197318,0.0837637 -0.0546024,0.0558607 -0.0819309,0.126001 -0.0819309,0.210367l0 1.18027c0,0.0819035 0.0273285,0.152044 0.0819309,0.210339 0.0546297,0.0583501 0.120366,0.0875115 0.197318,0.0875115zm1.04623 0.413265c-0.0198604,0 -0.0298179,-0.00869917 -0.0298179,-0.0260702l-0.00369305 -2.53548c0,-0.019833 0.00990283,-0.0297632 0.0297906,-0.0297632l0.335082 0 0.629213 1.46693 -0.0186294 -1.43717c0,-0.019833 0.0111612,-0.0297632 0.033511,-0.0297632l0.368593 0c0.014909,0 0.0223224,0.00993019 0.0223224,0.0297632l0.00374776 2.53923c0,0.0148816 -0.00620979,0.0223224 -0.018602,0.0223224l-0.327641 0 -0.644094 -1.37009 0.0260155 1.34033c0,0.019833 -0.0111612,0.0297632 -0.033511,0.0297632l-0.372286 0zm1.7089 0c-0.00990283,0 -0.0148542,-0.00620979 -0.0148542,-0.018602l0.00369305 -2.55786c0,-0.00987548 0.00495142,-0.0148542 0.014909,-0.0148542l1.19512 0c0.00993019,0 0.014909,0.00620979 0.014909,0.018602l0 0.417013c0,0.00993019 -0.00497877,0.0148542 -0.014909,0.0148542l-0.763257 0 0 0.580848 0.763257 0c0.00993019,0 0.014909,0.00492406 0.014909,0.0148816l0.00369305 0.420734c0,0.00990283 -0.00492406,0.0148816 -0.0148542,0.0148816l-0.767004 0 0 0.651563 0.767004 0c0.00993019,0 0.0148542,0.00618243 0.0148542,0.018602l0 0.424427c0,0.00993019 -0.00492406,0.014909 -0.0148542,0.014909l-1.20262 0zm1.56372 0c-0.00987548,0 -0.0148542,-0.00620979 -0.0148542,-0.018602l0.00369305 -2.55786c0,-0.00987548 0.00497877,-0.0148542 0.014909,-0.0148542l1.19512 0c0.00995754,0 0.014909,0.00620979 0.014909,0.018602l0 0.417013c0,0.00993019 -0.00495142,0.0148542 -0.014909,0.0148542l-0.763257 0 0 0.580848 0.763257 0c0.00995754,0 0.014909,0.00492406 0.014909,0.0148816l0.00369305 0.420734c0,0.00990283 -0.00492406,0.0148816 -0.0148542,0.0148816l-0.767004 0 0 0.651563 0.767004 0c0.00993019,0 0.0148542,0.00618243 0.0148542,0.018602l0 0.424427c0,0.00993019 -0.00492406,0.014909 -0.0148542,0.014909l-1.20262 0zm1.56374 0c-0.00990283,0 -0.0148816,-0.00620979 -0.0148816,-0.018602l0.0074408 -2.55786c0,-0.00987548 0.00497877,-0.0148542 0.014909,-0.0148542l0.752041 0c0.134044,0 0.257556,0.0328818 0.370481,0.0986453 0.112952,0.0657636 0.202899,0.153904 0.269921,0.264367 0.0670219,0.110463 0.100533,0.235179 0.100533,0.374174 0,0.0918064 -0.0136232,0.174366 -0.0409518,0.247571 -0.0273012,0.0732317 -0.0595811,0.135275 -0.0968125,0.186184 -0.037204,0.050882 -0.070715,0.0886878 -0.100533,0.113554 0.134044,0.148925 0.201038,0.323921 0.201038,0.52496l0.00374776 0.763257c0,0.0123922 -0.00620979,0.018602 -0.018602,0.018602l-0.420734 0c-0.00990283,0 -0.0148816,-0.0037204 -0.0148816,-0.0111612l0 -0.770697c0,-0.0893443 -0.0316508,-0.166926 -0.0949249,-0.232717 -0.0633289,-0.0657909 -0.140855,-0.098618 -0.232717,-0.098618l-0.245738 0 -0.0037204 1.09459c0,0.0123922 -0.00497877,0.018602 -0.0148816,0.018602l-0.420734 0zm0.439336 -1.56l0.320173 0c0.0769521,0 0.145205,-0.0285595 0.204786,-0.0856513 0.0596085,-0.0570917 0.0893717,-0.126548 0.0893717,-0.208479 0,-0.0794141 -0.0291614,-0.147722 -0.0875115,-0.204786 -0.0583228,-0.0570917 -0.127178,-0.0856239 -0.206646,-0.0856239l-0.320173 0 0 0.584541zm-4.21647 6.41055c-1.44346,0 -2.75058,-0.585361 -3.69674,-1.53152 -0.0304197,-0.0304197 -0.0603471,-0.0611951 -0.0900282,-0.0922988l0.776716 0c0.815151,0.681463 1.86471,1.09166 3.01005,1.09166 1.14534,0 2.19493,-0.410202 3.01008,-1.09166l0.776661 0c-0.0296538,0.0311036 -0.0596085,0.061879 -0.0900009,0.0922988 -0.946158,0.946185 -2.2533,1.53152 -3.69674,1.53152zm-3.94951 -2.17605c-0.0074408,0 -0.0111886,-0.0046505 -0.0111886,-0.0139789l0.00560796 -1.92298c0,-0.0074408 0.0037204,-0.0111886 0.0111886,-0.0111886l0.537434 0c0.10636,0 0.201531,0.0256598 0.285513,0.0769795 0.0839552,0.0512923 0.150211,0.118943 0.198713,0.202926 0.0485293,0.0839552 0.0727667,0.175406 0.0727667,0.274325 0,0.0802348 -0.0181917,0.154889 -0.054575,0.223908 -0.0363833,0.0690736 -0.0797971,0.125044 -0.130159,0.167938 0.0541099,0.0541373 0.0961012,0.116646 0.125947,0.187552 0.0299,0.0709065 0.0448089,0.145561 0.0448089,0.223908 0,0.108247 -0.0261249,0.207166 -0.078402,0.296729 -0.0522224,0.0895632 -0.122691,0.160935 -0.211324,0.214115 -0.0886331,0.0532072 -0.187032,0.0797698 -0.295279,0.0797698l-0.50105 0zm0.330295 -1.17559l0.212747 0c0.0652985,0 0.118013,-0.0228969 0.158117,-0.0685812 0.0401311,-0.0457117 0.0602103,-0.0956362 0.0602103,-0.149746 0,-0.0597179 -0.021447,-0.11153 -0.0643958,-0.155354 -0.0429214,-0.0438788 -0.094241,-0.0657909 -0.153932,-0.0657909l-0.212747 0 0 0.439472zm-0.00281766 0.834136l0.173573 0c0.0671861,0 0.125044,-0.0247297 0.173518,-0.0741892 0.0485567,-0.0494594 0.0727667,-0.107782 0.0727667,-0.174968 0,-0.0671587 -0.02421,-0.125016 -0.0727667,-0.173518 -0.0484746,-0.0485293 -0.106332,-0.0727667 -0.173518,-0.0727667l-0.170755 0 -0.00281766 0.495443zm1.47511 0.369469c-0.0988915,0 -0.190342,-0.0256598 -0.274298,-0.0770068 -0.0839826,-0.0512923 -0.150704,-0.119874 -0.200136,-0.205716 -0.0494321,-0.0858428 -0.0741618,-0.180084 -0.0741618,-0.282696l0.0055806 -1.39955c0,-0.0074408 0.00374776,-0.0111886 0.0112159,-0.0111886l0.313471 0c0.00746816,0 0.0112159,0.00374776 0.0112159,0.0111886l0 1.39955c0,0.0634383 0.0200519,0.117083 0.0601556,0.160935 0.0401311,0.0438788 0.0891255,0.0657909 0.146956,0.0657909 0.0597453,0 0.109642,-0.0219121 0.149746,-0.0657909 0.0401584,-0.0438515 0.060183,-0.0974964 0.060183,-0.160935l0 -1.39955c0,-0.0074408 0.0037204,-0.0111886 0.0112159,-0.0111886l0.313498 0c0.00746816,0 0.0111612,0.00374776 0.0111612,0.0111886l0.00563531 1.39955c0,0.104499 -0.0247297,0.199671 -0.0741892,0.285513 -0.0494594,0.0858154 -0.115688,0.153959 -0.198713,0.204321 -0.0830525,0.0503895 -0.175898,0.0755843 -0.278538,0.0755843zm0.786564 -0.0280124c-0.00932836,0 -0.0140062,-0.0046505 -0.0140062,-0.0139789l0.0027903 -1.92298c0,-0.0074408 0.00374776,-0.0111886 0.0112159,-0.0111886l0.313498 0c0.0074408,0 0.0111612,0.00374776 0.0111612,0.0111886l0.00281766 1.92298c0,0.00932836 -0.0037204,0.0139789 -0.0111886,0.0139789l-0.316289 0zm0.584978 0c-0.0074408,0 -0.0111612,-0.0046505 -0.0111612,-0.0139789l0.00276294 -1.92019c0,-0.009301 0.00467786,-0.0139789 0.0140336,-0.0139789l0.310681 0c0.00932836,0 0.0139789,0.00467786 0.0139789,0.0139789l-0.0027903 1.5899 0.576635 0c0.009301,0 0.0139789,0.0046505 0.0139789,0.0139789l0 0.316316c0,0.00932836 -0.00467786,0.0139789 -0.0139789,0.0139789l-0.904139 0zm1.11407 0c-0.00932836,0 -0.0140062,-0.0046505 -0.0140062,-0.0139789l0.00560796 -1.92298c0,-0.0074408 0.0037204,-0.0111886 0.0111886,-0.0111886l0.5234 -0.0027903c0.102667,-0.0018602 0.196415,0.0223771 0.281328,0.0727393 0.0849127,0.0503895 0.152564,0.118068 0.202953,0.202981 0.0503895,0.0848853 0.075557,0.178634 0.075557,0.281301l0 0.803306c0,0.108247 -0.0260975,0.206701 -0.0783746,0.295334 -0.0522224,0.0886331 -0.122226,0.159074 -0.209929,0.211324 -0.087703,0.0522224 -0.186595,0.0793047 -0.296702,0.0811649l-0.501023 0.0027903zm0.327477 -0.344274l0.173546 0c0.0690463,0 0.127369,-0.0242647 0.174941,-0.0727667 0.0475719,-0.0485293 0.0713715,-0.106387 0.0713715,-0.173573l0 -0.806123c0,-0.0597179 -0.0219121,-0.111475 -0.0657909,-0.155354 -0.0438241,-0.0438241 -0.0956088,-0.0648335 -0.155354,-0.0629733l-0.195896 0.00281766 -0.00281766 1.26797zm0.990885 0.344274c-0.0074408,0 -0.0111886,-0.0046505 -0.0111886,-0.0139789l0.0027903 -1.92298c0,-0.0074408 0.0037204,-0.0111886 0.0111886,-0.0111886l0.898504 0c0.00746816,0 0.0112159,0.00467786 0.0112159,0.0139789l0 0.313526c0,0.00746816 -0.00374776,0.0111612 -0.0112159,0.0111612l-0.573817 0 0 0.436682 0.573817 0c0.00746816,0 0.0112159,0.0037204 0.0112159,0.0111886l0.00276294 0.316316c0,0.0074408 -0.00369305,0.0111612 -0.0111612,0.0111612l-0.576635 0 0 0.489862 0.576635 0c0.00746816,0 0.0111612,0.0046505 0.0111612,0.0139789l0 0.319106c0,0.00746816 -0.00369305,0.0111886 -0.0111612,0.0111886l-0.904112 0zm1.17559 0c-0.0074408,0 -0.0111612,-0.0046505 -0.0111612,-0.0139789l0.0055806 -1.92298c0,-0.0074408 0.00374776,-0.0111886 0.0112159,-0.0111886l0.565392 0c0.100752,0 0.193625,0.0247297 0.27851,0.0741618 0.0849127,0.0494594 0.152536,0.115715 0.202926,0.198768 0.0503895,0.0830251 0.0755843,0.176801 0.0755843,0.281301 0,0.0690189 -0.0102585,0.131062 -0.0307754,0.186129 -0.0205443,0.05504 -0.0448089,0.101682 -0.0728214,0.139953 -0.0279577,0.0382709 -0.0531525,0.0666937 -0.075557,0.0853777 0.100752,0.111968 0.151141,0.243522 0.151141,0.394663l0.00281766 0.573817c0,0.00932836 -0.00467786,0.0139789 -0.0139789,0.0139789l-0.316316 0c-0.0074408,0 -0.0111886,-0.0027903 -0.0111886,-0.00839826l0 -0.579398c0,-0.0671861 -0.0237996,-0.125481 -0.0713715,-0.174941 -0.0475992,-0.0494594 -0.105895,-0.0741618 -0.174941,-0.0741618l-0.184762 0 -0.0027903 0.82292c0,0.00932836 -0.00374776,0.0139789 -0.0111886,0.0139789l-0.316316 0zm0.330295 -1.1728l0.240732 0c0.0578303,0 0.10915,-0.0214744 0.153959,-0.0643958 0.0447816,-0.042894 0.0671587,-0.0951438 0.0671587,-0.156722 0,-0.0597179 -0.0219121,-0.111065 -0.0657909,-0.153959 -0.0438241,-0.0429214 -0.0956088,-0.0643684 -0.155327,-0.0643684l-0.240732 0 0 0.439445z"/>
  </g>
 </g>
</svg>
