<?xml version="1.0" encoding="UTF-8"?>
<!DOCTYPE svg PUBLIC "-//W3C//DTD SVG 1.1//EN" "http://www.w3.org/Graphics/SVG/1.1/DTD/svg11.dtd">
<!-- Creator: CorelDRAW -->
<svg xmlns="http://www.w3.org/2000/svg" xml:space="preserve" width="161.909mm" height="176.792mm" style="shape-rendering:geometricPrecision; text-rendering:geometricPrecision; image-rendering:optimizeQuality; fill-rule:evenodd; clip-rule:evenodd"
viewBox="0 0 115.995 126.657"
 xmlns:xlink="http://www.w3.org/1999/xlink">
 <defs>
  <style type="text/css">
   <![CDATA[
    .fil0 {fill:none}
    .fil1 {fill:#501D33}
    .fil6 {fill:#C8B99F}
    .fil5 {fill:#C9C7D2}
    .fil4 {fill:#D77D75}
    .fil2 {fill:#FFCFA5}
    .fil3 {fill:white}
   ]]>
  </style>
 </defs>
 <g id="Слой_x0020_1">
  <metadata id="CorelCorpID_0Corel-Layer"/>
  <g id="_165113264">
   <rect id="_119545328" class="fil0" width="115.995" height="126.657"/>
   <path id="_119679368" class="fil1" d="M26.8086 54.9745l3.42313 -0.582952 -0.148299 -0.666702 -3.40271 0.294234c0,0 -0.126018,0.463954 0.127881,0.955419zm-12.6853 9.27464c0.0522987,0.20855 -0.0742929,0.420253 -0.282843,0.472766 -0.208407,0.0523704 -0.420253,-0.0742212 -0.472623,-0.282771 -0.0525137,-0.208407 0.0742212,-0.420253 0.2827,-0.472623 0.208479,-0.0525137 0.420324,0.0742212 0.472766,0.282628zm-2.43196 -11.4655l-3.42313 -0.583024 0.148299 -0.666702 3.40271 0.294234c0,0 0.125947,0.463954 -0.127881,0.955491zm-1.13696 5.52805l-2.31619 0.155177 -0.00766571 -0.456575 2.25794 -0.339727c0,0 0.154317,0.281983 0.0659107,0.641125zm0.640194 5.96177l-2.62726 0.78706 -0.128741 -0.523919 2.51163 -0.984291c0,0 0.25175,0.284204 0.244371,0.72115zm0.73512 -7.42176l-3.89203 -0.393172 0.11563 -0.760768 3.84704 0.0702809c0,0 0.177171,0.51174 -0.0706391,1.08366zm14.6405 2.19103l3.89203 -0.393172 -0.11563 -0.760768 -3.84704 0.0701376c0,0 -0.177171,0.511883 0.0706391,1.0838zm0.920171 1.74549l2.74182 0.0661973 -0.0140419 -0.539322 -2.68228 -0.286855c0,0 -0.167929,0.340587 -0.0454927,0.75998z"/>
   <path id="_119679440" class="fil1" d="M32.0774 13.1867c-11.9031,5.34099 -21.6598,25.9875 -22.5293,36.8627 -0.996255,12.4589 -0.841866,20.0408 6.42501,35.2617 0,0 1.58035,3.2451 6.98095,1.93104 2.43526,0.206329 4.85053,-0.641483 6.00676,-2.29971 0.0280837,-0.0403345 3.03827,-0.470116 4.48673,-1.8801 0.65703,-0.639621 1.07442,-1.20832 0.838284,-2.37207 -0.309207,-1.52368 -0.765711,-3.38939 -0.765711,-3.38939 0,0 2.68593,-2.67755 2.24612,-3.81666 -0.439811,-1.13911 -5.93218,-5.89901 -5.94128,-5.94465 -3.76881,-17.2815 -0.073075,-32.0233 9.80021,-43.9309l7.9325 -10.5035c-3.98502,-1.17658 -11.254,-1.81491 -15.4801,0.0813854l-7.16421e-005 7.16421e-005 -7.16421e-005 7.16421e-005z"/>
   <path id="_119679512" class="fil2" d="M33.2748 29.4156l11.5948 -16.0431c-7.89697,-0.348467 -12.4354,-0.00623286 -18.1832,5.88862 -8.17472,8.38413 -14.0525,21.0313 -15.5156,32.7377 -1.47217,11.7831 0.776099,22.1151 6.22971,32.7983 0,0 0.662116,1.94981 4.83484,1.46745 0,0 -1.21355,-2.14704 -1.1313,-2.33231 0.0822451,-0.185481 2.11459,2.15722 2.11459,2.15722 0,0 2.56751,0.00931347 4.66397,-1.79958 0,0 0.00859705,-2.90029 0.190496,-2.8937 0.181971,0.00666272 0.765353,2.14747 0.765353,2.14747l2.74146 -0.724015c1.25245,-0.588827 1.64397,-0.682391 1.30381,-2.23359 -0.259631,-1.18503 -0.693567,-3.1837 -1.64777,-6.53892 0.263285,-0.310354 0.900541,1.14692 1.36715,1.94766 0,0 1.5009,-1.6573 1.43664,-2.22212 -0.0639764,-0.56497 -5.32007,-4.65108 -5.32007,-4.65108 -4.24745,-13.3269 -1.37467,-29.2457 4.55522,-39.706l0 -0.000143284 0 0.000143284 -7.16421e-005 -7.16421e-005z"/>
   <path id="_119679584" class="fil3" d="M31.3673 15.4876c-1.53242,0.888506 -3.05855,2.10957 -4.68095,3.77346 -8.17472,8.38413 -14.0525,21.0313 -15.5156,32.7377 -1.47217,11.7831 0.776099,22.1151 6.22971,32.7983 0,0 0.056454,0.164634 0.238497,0.386652 1.20524,-0.168216 2.42437,-0.441817 3.61993,-0.781186 -0.109756,-0.241291 -0.176311,-0.422115 -0.15489,-0.47033 0.0243583,-0.0550211 0.220658,0.112192 0.484229,0.374975 2.325,-0.685687 4.54562,-1.60779 6.37937,-2.47144 0.0262927,-0.265577 0.0605376,-0.441244 0.105457,-0.439596 0.0405494,0.00150448 0.095284,0.124944 0.155535,0.315798 2.41606,-1.15322 4.10595,-2.17384 4.38414,-2.34434l-0.00243583 -0.010603c-5.34343,1.83576 -14.365,2.7545 -14.365,2.7545 -12.1722,-25.0402 -3.73363,-51.7431 13.122,-66.6238l0 -7.16421e-005 0 -7.16421e-005z"/>
   <path id="_119542160" class="fil4" d="M17.962 31.3172c-1.66038,3.07237 -3.07438,6.31131 -4.19522,9.60377 2.58234,0.278616 8.80589,1.29092 13.7987,4.81148 0.832625,-4.66362 2.22657,-9.10535 4.02113,-13.0093 -0.393387,-0.188705 -0.802822,-0.32196 -1.22501,-0.382999 -2.36741,-0.342306 -8.45857,-0.927479 -12.3996,-1.02291z"/>
   <path id="_88446104" class="fil4" d="M33.2748 29.4156l0.289649 -0.400838c-0.0762272,-0.042842 -0.151523,-0.0902691 -0.228467,-0.127881 0,0 -20.4312,23.1736 -0.773448,53.4277 0.451274,-0.315512 0.545841,-0.703884 0.3211,-1.72872 -0.259631,-1.18503 -0.693567,-3.1837 -1.64777,-6.53892 0.263285,-0.310354 0.900541,1.14692 1.36715,1.94766 0,0 1.5009,-1.6573 1.43664,-2.22212 -0.0639764,-0.56497 -5.32007,-4.65108 -5.32007,-4.65108 -4.24745,-13.3269 -1.37467,-29.2457 4.55522,-39.706l0 0.000143284 0 7.16421e-005z"/>
   <path id="_119679704" class="fil1" d="M14.2791 44.3859c-5.32251,-0.600719 -6.69546,5.26842 -1.99953,7.23263l1.99953 -7.23263z"/>
   <path id="_119679776" class="fil2" d="M12.2806 51.6491c-1.73575,-2.70506 -1.78009,-5.6949 1.99745,-7.30549 0,0 1.07492,5.30517 -1.99745,7.30549z"/>
   <path id="_119679680" class="fil3" d="M12.4609 51.8725c-2.10162,-2.67827 -2.12541,-5.98599 1.95418,-7.6076 -1.62133,1.08423 -2.95911,4.52291 -1.88175,7.38652l-0.0724302 0.221088z"/>
   <path id="_119679872" class="fil3" d="M14.0676 45.3872c0.464313,0.288718 0.459298,1.13639 -0.0111045,1.89278 -0.470474,0.756469 -1.22852,1.13574 -1.69283,0.847025 -0.464241,-0.288718 -0.459298,-1.13639 0.0111762,-1.89286 0.470474,-0.756397 1.22852,-1.13567 1.69276,-0.846953z"/>
   <path id="_119679944" class="fil2" d="M33.0547 73.7969c0,0 -0.861425,-1.78296 -3.06499,-2.9048 -2.20364,-1.12184 1.52247,2.94485 3.06499,2.9048z"/>
   <path id="_119680016" class="fil4" d="M17.1652 84.3299c0.0776601,0.15575 0.155822,0.311643 0.235201,0.466963 0,0 0.662116,1.94974 4.83455,1.46737 0,0 -1.21326,-2.1469 -1.13101,-2.33245 0.0821735,-0.185553 2.11473,2.15779 2.11473,2.15779 0,0 2.56737,0.00895526 4.66369,-1.80015 0,0 0.00859705,-2.90043 0.19064,-2.89384 0.182043,0.00666272 0.625221,2.36849 0.625221,2.36849 1.414,-0.188204 3.03763,-0.703669 3.99047,-1.54797 0.341016,-0.302043 0.397041,-0.709615 0.19501,-1.63057 -0.086687,-0.395106 -0.192502,-0.880983 -0.330628,-1.47697 -7.91466,3.55553 -12.9737,4.79393 -15.3878,5.22135l-7.16421e-005 0z"/>
   <path id="_119680088" class="fil4" d="M17.6032 46.9913c0,0 0,2.64904 -3.57222,4.09399 0,0 2.36813,-0.0802392 3.37155,-1.04354 1.00342,-0.9633 0.20067,-3.05045 0.20067,-3.05045z"/>
   <path id="_119684744" class="fil1" d="M36.8397 65.224c-2.09231,-12.8296 -3.35371,-34.4558 -4.6303,-44.4617 2.26239,-9.31548 20.0573,-6.45897 26.1191,-5.19892 6.06185,-1.26004 23.8567,-4.11656 26.1191,5.19892 -1.27652,10.006 -2.5784,31.5921 -4.67071,44.4216 -11.3856,4.32983 -31.5515,4.36988 -42.9375,0.0401196l7.16421e-005 0 0.000214926 0 0 -7.16421e-005z"/>
   <path id="_119684648" class="fil1" d="M90.1519 55.7379l-3.42313 -0.582952 0.148299 -0.666773 3.40279 0.294234c0,0 0.125947,0.463954 -0.127953,0.955491zm12.6853 9.27457c-0.0522987,0.20855 0.0742929,0.420253 0.282843,0.472695 0.208479,0.052442 0.420253,-0.0741496 0.472695,-0.2827 0.052442,-0.208479 -0.0742212,-0.420253 -0.282771,-0.472695 -0.208479,-0.052442 -0.420253,0.0742212 -0.472766,0.2827zm2.43196 -11.4655l3.42313 -0.583024 -0.148228 -0.666702 -3.40279 0.294234c0,0 -0.125947,0.463954 0.127881,0.955491zm1.13696 5.52805l2.31619 0.155177 0.00766571 -0.456647 -2.25794 -0.339655c0,0 -0.154317,0.281912 -0.0659107,0.641125zm-0.640194 5.96177l2.62726 0.78706 0.128741 -0.523919 -2.51156 -0.984219c0,0 -0.251822,0.284133 -0.244443,0.721078zm-0.73512 -7.42169l3.89203 -0.393172 -0.11563 -0.760768 -3.84704 0.0702093c0,0 -0.177171,0.511811 0.0706391,1.08373zm-14.6405 2.19089l-3.89203 -0.393172 0.11563 -0.760696 3.84704 0.0701376c0,0 0.177171,0.511883 -0.0706391,1.08373zm-0.920171 1.74556l-2.74182 0.0661973 0.0140419 -0.539322 2.68228 -0.286927c0,0 0.168001,0.340587 0.0454927,0.760051z"/>
   <path id="_119684816" class="fil1" d="M84.6019 13.1471c11.9031,5.34099 21.6598,25.9875 22.5294,36.8627 0.996184,12.4588 0.721436,20.1613 -6.54544,35.3822 0,0 -1.64046,3.06471 -7.04106,1.75072 -2.51543,0.236276 -4.75037,-0.751741 -5.90661,-2.25966 -0.0298748,-0.039045 -2.95789,-0.450271 -4.40642,-1.86033 -0.65703,-0.639621 -1.07442,-1.20832 -0.838213,-2.37207 0.309207,-1.52361 0.765639,-3.38932 0.765639,-3.38932 0,0 -2.68586,-2.67755 -2.24605,-3.81666 0.439739,-1.13911 5.93211,-5.89901 5.94128,-5.94465 3.76881,-17.2815 0.073075,-32.0233 -9.80028,-43.9309l-7.93243 -10.5035c3.98495,-1.17658 11.254,-1.81491 15.4801,0.0813854l7.16421e-005 7.16421e-005z"/>
   <path id="_119684888" class="fil2" d="M83.4045 29.376l-11.5948 -16.0431c7.8969,-0.348467 12.4354,-0.00630451 18.1832,5.88862 8.1748,8.38413 14.0525,21.0313 15.5157,32.7377 1.47217,11.7831 -0.776171,22.1151 -6.22971,32.7983 0,0 -0.662188,1.94981 -4.83484,1.46752 0,0 1.21347,-2.14704 1.1313,-2.33231 -0.0822451,-0.185553 -2.11466,2.15722 -2.11466,2.15722 0,0 -2.56751,0.00931347 -4.66397,-1.79958 0,0 -0.00852541,-2.90036 -0.190496,-2.8937 -0.181899,0.00659107 -0.765281,2.1474 -0.765281,2.1474l-2.74153 -0.723944c-1.25245,-0.588827 -1.6439,-0.682391 -1.30374,-2.23366 0.259631,-1.18496 0.693567,-3.18363 1.64777,-6.53892 -0.263285,-0.310282 -0.900613,1.14699 -1.36722,1.94773 0,0 -1.5009,-1.65737 -1.43657,-2.22212 0.0639764,-0.56497 5.32007,-4.65108 5.32007,-4.65108 4.24737,-13.3269 1.3746,-29.2459 -4.55522,-39.706l0 -0.000143284z"/>
   <path id="_119544248" class="fil4" d="M97.7342 29.5277c2.06308,3.53475 3.79718,7.33028 5.12649,11.2023 -7.00244,1.08631 -13.0966,4.23018 -13.0966,4.23018 0,0 -0.36867,-0.316515 -0.955563,-0.848672 -1.053,-5.06553 -2.76123,-9.82006 -4.91329,-13.8431 0.368885,-0.142496 0.782189,-0.326258 1.24686,-0.580874 2.62124,-1.43628 7.39175,-0.562964 12.5921,-0.159834z"/>
   <path id="_119684432" class="fil4" d="M83.4045 29.376l-0.289721 -0.400766c0.0762272,-0.042842 0.151595,-0.0902691 0.228538,-0.127881 0,0 20.4312,23.1736 0.773448,53.4277 -0.451274,-0.315584 -0.545841,-0.703884 -0.3211,-1.7288 0.259631,-1.18496 0.693567,-3.18363 1.64777,-6.53892 -0.263285,-0.310282 -0.900613,1.14699 -1.36722,1.94773 0,0 -1.5009,-1.65737 -1.43657,-2.22212 0.0639764,-0.56497 5.32007,-4.65108 5.32007,-4.65108 4.24737,-13.3269 1.3746,-29.2459 -4.55522,-39.706l0 7.16421e-005 0 7.16421e-005z"/>
   <path id="_119684504" class="fil3" d="M88.3268 42.6069c-1.07513,-4.31228 -2.8045,-8.91729 -5.47761,-13.6325l-11.5948 -16.0431c7.89697,-0.348467 12.4354,-0.00623286 18.1832,5.88862 5.1227,5.25387 9.34356,12.1823 12.1418,19.5038 -4.59025,1.07707 -9.62634,2.87392 -13.2526,4.28327l0 -7.16421e-005z"/>
   <path id="_119684576" class="fil5" d="M88.3263 42.6069c-1.07513,-4.31235 -2.80414,-8.91729 -5.47725,-13.6325l-0.241506 -0.334067c3.93638,4.01941 6.53978,8.46502 8.14786,13.0467 -0.859705,0.316873 -1.67471,0.626654 -2.4291,0.919885z"/>
   <path id="_135238464" class="fil3" d="M38.4001 64.4973c-2.07304,-13.5616 -3.59823,-28.7386 -4.46051,-42.2539 1.76734,-7.27712 13.0675,-10.9529 24.3743,-10.9728l0 -0.000214926 0.0148299 7.16421e-005 0.0148299 -7.16421e-005 0 0.000214926c11.3067,0.0199881 22.6067,3.69573 24.3742,10.9728 -0.862284,13.5152 -2.3874,28.6922 -4.46051,42.2539 -11.0325,3.47916 -28.8244,3.4793 -39.857,7.16421e-005l0 -7.16421e-005 -0.000143284 0z"/>
   <polygon id="_119683208" class="fil3" points="48.9156,55.8046 39.3547,51.4307 67.9973,55.3264 "/>
   <polygon id="_124547344" class="fil3" points="65.6678,45.2832 74.9077,45.8454 79.0048,42.5513 "/>
   <path id="_135244848" class="fil5" d="M38.3999 64.4973c-1.67693,-10.9696 -2.99486,-22.9963 -3.89375,-34.3453 0.109111,-0.508372 0.206688,-0.806404 0.289363,-0.837998l5.06173 34.1467c0.241935,-0.576791 14.3271,4.6288 36.6962,-0.224956l5.70615 -34.9445c0,0 -0.000859705,0.794869 -0.0770869,1.46444 -0.899467,11.4651 -2.22871,23.6442 -3.92506,34.7415 -11.0327,3.47923 -28.8246,3.47937 -39.8573,7.16421e-005l-0.000143284 7.16421e-005 -0.000143284 0z"/>
   <polygon id="_119545832" class="fil5" points="36.5681,43.5126 75.4687,54.6032 37.4524,50.2635 "/>
   <path id="_119545904" class="fil1" d="M78.8647 61.4279c0,0 -3.54127,2.04696 -6.47881,2.64904 0,0 2.73637,-0.0802392 6.84096,-1.16397l0.523131 -1.12385 -0.885282 -0.36122z"/>
   <path id="_119545976" class="fil1" d="M37.9717 61.789c0,0 3.54127,2.04703 6.47888,2.64904 0,0 -2.73644,-0.0802392 -6.84103,-1.16397l-0.523202 -1.12385 0.885353 -0.36122z"/>
   <path id="_119546048" class="fil3" d="M28.3527 42.6465c1.07506,-4.31228 2.80443,-8.91722 5.47761,-13.6325l11.5948 -16.0431c-7.89697,-0.348467 -12.4354,-0.00630451 -18.1832,5.88855 -5.12263,5.25395 -9.34349,12.1823 -12.1417,19.5038 4.59025,1.07714 9.62634,2.87392 13.2526,4.28327l-7.16421e-005 0z"/>
   <path id="_119546120" class="fil3" d="M17.0554 37.5815c2.72555,-6.72748 7.12072,-14.181 13.3068,-21.473 -6.51564,4.76742 -12.1417,13.7645 -15.3674,21.0566 0.347608,1.15057 2.10076,0.244013 2.10076,0.244013 0.0258628,-0.0363226 -0.0674152,0.208049 -0.0401196,0.172371z"/>
   <path id="_119546192" class="fil5" d="M28.3532 42.6465c1.07506,-4.31235 2.80407,-8.91722 5.47725,-13.6325l0.241434 -0.334067c-3.9363,4.01941 -6.53978,8.46502 -8.14779,13.0467 0.859705,0.316801 1.67471,0.626654 2.4291,0.919813z"/>
   <path id="_119546288" class="fil5" d="M81.3694 35.7138c0,0 -12.2821,6.94284 -11.8406,7.10339 0.44153,0.16055 11.3187,-2.44837 11.3187,-2.44837l0.521913 -4.65502z"/>
   <path id="_130621488" class="fil3" d="M85.3121 15.4478c1.53228,0.888434 3.05855,2.1095 4.68095,3.77339 4.91071,5.03651 8.99173,11.6113 11.7856,18.5964 -1.14312,-2.8578 -2.50181,-5.64683 -4.04456,-8.29007 -0.358497,-0.0277971 -0.714988,-0.0580301 -1.06876,-0.0893377 -3.04988,-5.32057 -6.90874,-10.0666 -11.3532,-13.9904l0 0 0 7.16421e-005zm16.4893 22.4268c0.205541,0.515393 0.404062,1.03308 0.595418,1.55241 -0.191356,-0.519405 -0.389805,-1.03695 -0.595418,-1.55241zm0.62651 1.63709c0.0540182,0.147368 0.107606,0.294879 0.160478,0.442462 -0.0528719,-0.147654 -0.10646,-0.295094 -0.160478,-0.442462zm0.218938 0.606451c0.0461375,0.129887 0.0917735,0.259774 0.13698,0.389876 -0.0452062,-0.13003 -0.0908422,-0.259989 -0.13698,-0.389876zm0.197732 0.565328c1.28834,3.74208 2.1992,7.55624 2.66394,11.2753 1.47232,11.7833 -0.776027,22.1149 -6.22971,32.7985 0,0 -0.0563823,0.164705 -0.238497,0.386652 -1.20516,-0.168144 -2.42423,-0.441889 -3.61986,-0.781329 0.109756,-0.241147 0.176455,-0.422044 0.154962,-0.470259 -0.024215,-0.0552361 -0.220729,0.112192 -0.484301,0.375046 -2.32486,-0.685687 -4.54562,-1.60794 -6.37923,-2.47144 -0.026221,-0.265506 -0.0606809,-0.441244 -0.105529,-0.439739 -0.0407644,0.00164777 -0.0953557,0.125015 -0.155535,0.315798 -2.41606,-1.15308 -4.10588,-2.17377 -4.38414,-2.3442l0.00229255 -0.0105314c5.34357,1.83583 14.365,2.7545 14.365,2.7545 6.79389,-13.9761 7.16478,-28.4694 3.23736,-41.1368 0.392814,-0.0744362 0.789496,-0.143284 1.18919,-0.205255l-0.0159762 -0.0463524 0 7.16421e-005z"/>
   <path id="_119546432" class="fil1" d="M102.4 44.3463c5.32258,-0.600719 6.69553,5.26842 1.99953,7.23263l-1.99953 -7.23263z"/>
   <path id="_119546504" class="fil2" d="M104.399 51.6095c1.73582,-2.70506 1.78016,-5.6949 -1.99745,-7.30549 0,0 -1.07485,5.3051 1.99745,7.30549z"/>
   <path id="_119546576" class="fil3" d="M104.218 51.8326c2.10155,-2.67827 2.12541,-5.98599 -1.95418,-7.6076 1.62126,1.08423 2.95911,4.52291 1.88175,7.38652l0.0724302 0.221088z"/>
   <path id="_119546648" class="fil3" d="M102.612 45.3474c-0.464313,0.288718 -0.459369,1.13639 0.0110329,1.89278 0.470545,0.756469 1.22859,1.13574 1.6929,0.847025 0.464241,-0.288718 0.459226,-1.13639 -0.0111762,-1.89286 -0.470474,-0.756397 -1.22852,-1.13567 -1.69276,-0.846953z"/>
   <path id="_119546720" class="fil2" d="M83.6245 73.7575c0,0 0.861425,-1.78296 3.06506,-2.9048 2.20364,-1.12184 -1.52254,2.94485 -3.06506,2.9048z"/>
   <path id="_119546792" class="fil4" d="M99.5144 84.2905c-0.0776601,0.155822 -0.155893,0.311715 -0.235201,0.466963 0,0 -0.662188,1.94974 -4.83455,1.46745 0,0 1.21319,-2.1469 1.13101,-2.33245 -0.0821735,-0.185625 -2.1148,2.15779 -2.1148,2.15779 0,0 -2.56737,0.00895526 -4.66369,-1.80015 0,0 -0.00852541,-2.9005 -0.19064,-2.89384 -0.181971,0.00659107 -0.625221,2.36842 -0.625221,2.36842 -1.414,-0.188132 -3.03755,-0.703597 -3.99047,-1.5479 -0.340945,-0.302115 -0.396969,-0.709687 -0.194938,-1.63065 0.086687,-0.395035 0.192431,-0.880911 0.330628,-1.4769 7.91466,3.55553 12.9737,4.79393 15.3878,5.22128l7.16421e-005 0z"/>
   <path id="_119546864" class="fil4" d="M99.0766 46.9517c0,0 0,2.64904 3.57215,4.09399 0,0 -2.36806,-0.0803108 -3.37148,-1.04361 -1.00342,-0.963228 -0.20067,-3.05038 -0.20067,-3.05038z"/>
   <path id="_119546936" class="fil1" d="M101.594 54.8749c0.261852,0.191213 0.319022,0.558307 0.127953,0.820016 -0.191284,0.261709 -0.558307,0.318879 -0.820159,0.127738 -0.261637,-0.19107 -0.318807,-0.558235 -0.127666,-0.819944 0.191141,-0.261709 0.558307,-0.318879 0.819872,-0.12781zm-4.68976 6.59272c-0.0713555,0.202819 0.0351763,0.425339 0.237923,0.496766 0.202747,0.0713555 0.425339,-0.0351046 0.496695,-0.237995 0.0714988,-0.202747 -0.0351046,-0.425268 -0.237923,-0.496695 -0.202747,-0.0714988 -0.425339,0.0351763 -0.496695,0.237923zm3.73915 -0.977055c-0.047642,0.135332 0.0233553,0.283559 0.158616,0.331201 0.13526,0.0475704 0.283559,-0.023427 0.33113,-0.158687 0.0477136,-0.135189 -0.0233553,-0.283488 -0.158616,-0.331201 -0.135189,-0.0475704 -0.283488,0.0235703 -0.33113,0.158687zm-0.712839 5.61194c-0.047642,0.13526 0.0232837,0.283559 0.158544,0.331058 0.13526,0.0477853 0.283559,-0.0233553 0.33113,-0.158544 0.0477136,-0.135332 -0.0233553,-0.283488 -0.158616,-0.33113 -0.135189,-0.047642 -0.283488,0.0233553 -0.331058,0.158616zm1.76548 -1.80065c-0.0595346,0.168932 0.0293016,0.354414 0.198162,0.413948 0.169004,0.0595346 0.354628,-0.0294449 0.414091,-0.198377 0.0595346,-0.168932 -0.0295166,-0.354342 -0.198449,-0.413876 -0.16886,-0.059463 -0.354342,0.0293733 -0.413805,0.198305zm-6.05096 2.4344c-0.0833914,0.236706 0.0409076,0.496122 0.277542,0.579513 0.236777,0.0833914 0.496193,-0.0409076 0.579585,-0.277685 0.0834631,-0.236634 -0.0410509,-0.49605 -0.277756,-0.579441 -0.236562,-0.0834631 -0.49605,0.0409076 -0.57937,0.277613zm1.66496 -15.7752c0.22424,0.163702 0.273243,0.478569 0.109469,0.702738 -0.163631,0.224311 -0.478641,0.273386 -0.702738,0.109541 -0.22424,-0.163702 -0.273315,-0.478569 -0.109612,-0.702738 0.163846,-0.224311 0.478641,-0.273315 0.702881,-0.109541zm-4.69564 1.6914c0.149445,0.109254 0.182186,0.319094 0.0730033,0.468539 -0.109183,0.149517 -0.319022,0.182258 -0.468611,0.073075 -0.149517,-0.109183 -0.182186,-0.319094 -0.073075,-0.468611 0.109326,-0.149445 0.319094,-0.182186 0.468683,-0.0730033zm5.20186 4.83498c0.149517,0.109183 0.182186,0.319094 0.0729317,0.468468 -0.109111,0.149589 -0.318951,0.182329 -0.468539,0.0730033 -0.149517,-0.109183 -0.182258,-0.318951 -0.0730033,-0.468539 0.109254,-0.149445 0.319094,-0.182186 0.468611,-0.0729317zm-5.34608 4.46345c0.224168,0.163774 0.273171,0.478641 0.109469,0.702881 -0.163774,0.224097 -0.478713,0.273171 -0.702809,0.109469 -0.22424,-0.163774 -0.273243,-0.478641 -0.109612,-0.702809 0.163774,-0.224168 0.478713,-0.273243 0.702952,-0.109541zm1.80775 -4.47083c0.186771,0.136407 0.22775,0.398832 0.0913437,0.585674 -0.136407,0.186771 -0.399047,0.227679 -0.585818,0.0912721 -0.186699,-0.136478 -0.227464,-0.399047 -0.0911288,-0.585746 0.136478,-0.186699 0.39876,-0.22775 0.585603,-0.0912004zm9.36226 -5.22421c0.132896,0.0969318 0.161911,0.283273 0.0649078,0.416097 -0.0970034,0.132824 -0.283345,0.16184 -0.416169,0.0648361 -0.132824,-0.0970034 -0.16184,-0.283273 -0.0647645,-0.416169 0.0969318,-0.132824 0.283273,-0.16184 0.416026,-0.0647645z"/>
   <path id="_119547008" class="fil3" d="M99.5839 37.7411c-2.72562,-6.72748 -7.08061,-14.3801 -13.2667,-21.6721 6.05741,4.43221 10.6202,10.9992 13.8238,17.7604 0.242294,0.511238 1.19549,2.68063 1.40232,3.45279 -0.220085,0.728529 -1.50026,1.06009 -1.95948,0.458939z"/>
   <path id="_119547224" class="fil1" d="M16.3837 53.4147c-0.27833,0.166353 -0.3691,0.52657 -0.202962,0.804756 0.166281,0.278258 0.52657,0.369029 0.804828,0.202819 0.278115,-0.16621 0.368957,-0.526498 0.202676,-0.804756 -0.166138,-0.278186 -0.526426,-0.368885 -0.804541,-0.202819zm4.06247 6.99686c0.0523704,0.208479 -0.0742929,0.420253 -0.282771,0.472695 -0.208407,0.052442 -0.420253,-0.0742212 -0.472623,-0.2827 -0.0525137,-0.208479 0.0742212,-0.420253 0.2827,-0.472695 0.208479,-0.0523704 0.420253,0.0742212 0.472695,0.2827zm-3.63333 -1.31736c0.0349614,0.139129 -0.0493614,0.280192 -0.18849,0.315154 -0.138986,0.0349614 -0.280192,-0.0494331 -0.315082,-0.18849 -0.035033,-0.139057 0.0493614,-0.280121 0.18849,-0.315154 0.138986,-0.0348897 0.280121,0.0495047 0.315082,0.18849zm0.192789 5.65364c0.0349614,0.139129 -0.0494331,0.280192 -0.188419,0.315082 -0.139057,0.0351046 -0.280192,-0.0493614 -0.315082,-0.188419 -0.0351046,-0.139057 0.0493614,-0.280121 0.188419,-0.315082 0.139057,-0.0349614 0.280121,0.0494331 0.315082,0.188419zm-1.5921 -1.95569c0.0437017,0.173732 -0.0617555,0.350258 -0.235416,0.39396 -0.173804,0.0437017 -0.350402,-0.0618988 -0.394032,-0.235703 -0.0437017,-0.17366 0.0619704,-0.350115 0.235631,-0.393817 0.17366,-0.04363 0.350187,0.0618988 0.393817,0.235559zm5.80093 2.98153c0.061254,0.24344 -0.086472,0.490319 -0.329769,0.551501 -0.24344,0.061254 -0.490319,-0.086472 -0.551501,-0.329984 -0.061254,-0.243225 0.0865437,-0.490104 0.329912,-0.551358 0.243297,-0.061254 0.490175,0.086472 0.551358,0.32984zm-0.204395 -15.8614c-0.238425,0.142353 -0.316157,0.451345 -0.173804,0.689627 0.142353,0.238425 0.451417,0.3163 0.68977,0.173804 0.238282,-0.142353 0.316157,-0.451345 0.173804,-0.689627 -0.142425,-0.238425 -0.451417,-0.3163 -0.68977,-0.173804zm4.51983 2.11681c-0.158902,0.0950691 -0.210843,0.300969 -0.115845,0.459871 0.0949258,0.158902 0.300825,0.210771 0.459799,0.115917 0.158974,-0.0949974 0.210914,-0.300969 0.115917,-0.459871 -0.0949974,-0.158974 -0.300897,-0.210843 -0.459871,-0.115917zm-5.62512 4.33514c-0.158974,0.0949258 -0.210843,0.300897 -0.115845,0.459799 0.0949258,0.158974 0.300825,0.210914 0.459799,0.115845 0.158974,-0.0949258 0.210914,-0.300825 0.115845,-0.459799 -0.0949258,-0.158902 -0.300897,-0.210843 -0.459799,-0.115845zm4.912 4.937c-0.238282,0.142353 -0.316157,0.451417 -0.173732,0.689699 0.142425,0.238353 0.451417,0.316228 0.689699,0.173804 0.238353,-0.142425 0.316228,-0.451417 0.173804,-0.689699 -0.142353,-0.238353 -0.451417,-0.316228 -0.68977,-0.173804zm-1.38814 -4.61848c-0.19852,0.118639 -0.263571,0.376121 -0.144932,0.574713 0.118639,0.198592 0.376336,0.2635 0.575,0.14486 0.198449,-0.118711 0.263213,-0.376336 0.144645,-0.574785 -0.118639,-0.198592 -0.376121,-0.2635 -0.574713,-0.144789zm-8.84114 -6.06465c-0.141207,0.0843228 -0.187272,0.267225 -0.10295,0.40836 0.0843228,0.141207 0.267225,0.187272 0.408432,0.102878 0.141135,-0.0842511 0.187201,-0.267153 0.102878,-0.40836 -0.0843228,-0.141135 -0.267225,-0.187201 -0.40836,-0.102878z"/>
   <path id="_121761024" class="fil5" d="M32.3843 13.5761c3.78163,-3.56248 48.0885,-3.46196 51.8692,0.0995825 -0.988661,15.4218 -13.858,22.807 -25.8483,22.7348 -12.2166,-0.0735765 -23.1544,-7.88937 -26.0209,-22.8343l-7.16421e-005 0 7.16421e-005 0z"/>
   <path id="_121760952" class="fil1" d="M32.1535 13.1985c3.89232,-3.37549 48.0181,-3.569 52.3001,0.116848 -0.707323,15.1052 -14.0582,22.0446 -26.0484,21.9754 -12.2167,-0.0703526 -23.3551,-7.54241 -26.2217,-21.8301l-0.0300897 -0.26221z"/>
   <path id="_121760880" class="fil3" d="M83.7542 14.7165c-2.06401,13.2151 -14.202,19.5546 -25.3704,19.4892 -11.5242,-0.0674869 -22.0722,-6.95545 -25.3909,-20.1445 0.71943,-0.303189 1.63889,-0.667919 3.98302,-0.570056 12.6733,-1.30181 47.3501,-2.44772 46.7781,1.22522l0 7.16421e-005 7.16421e-005 0 7.16421e-005 7.16421e-005z"/>
   <path id="_121760808" class="fil5" d="M83.6333 14.275c-1.90453,12.1943 -12.3866,18.5335 -22.7698,19.3888l0.00752242 0.0429136 -3.51032 0.0719287c-10.5322,-0.703096 -20.9364,-6.82706 -23.9123,-19.8441l7.16421e-005 7.16421e-005c0.365733,-0.192001 1.16067,-0.316372 1.40039,-0.259201 0.237207,0.524492 1.86886,13.2356 15.8929,17.9897 6.15477,2.08622 12.3081,1.58594 18.2459,-0.973616 12.2421,-5.27701 12.8702,-15.7232 12.6446,-16.1746l1.61911 -0.386438c0.253971,0.0635466 0.387154,0.113123 0.382211,0.144717l-0.000143284 0 -7.16421e-005 -7.16421e-005z"/>
   <path id="_121760664" class="fil3" d="M36.51 12.9659c0.466247,-0.439309 1.68209,-0.81149 3.42478,-1.11726 9.99759,-1.75394 37.3376,-1.3195 40.0121,1.19993 -0.821305,12.8111 -11.6947,18.9462 -21.6549,18.886 -10.1482,-0.0611824 -19.4009,-6.55375 -21.782,-18.9687l7.16421e-005 -7.16421e-005 -7.16421e-005 0 0 7.16421e-005z"/>
   <path id="_121760520" class="fil6" d="M37.5938 16.8369c4.55938,-3.61048 12.413,-5.4554 20.3125,-5.51565l0.643704 0c8.12586,0.0619704 16.2024,2.01257 20.6954,5.83059 -2.69145,9.62899 -12.1762,14.2586 -20.9537,14.2071 -8.98306,-0.0527286 -17.2633,-5.00843 -20.698,-14.5221l0.000143284 0z"/>
   <path id="_121760448" class="fil1" d="M36.1889 11.9831c10.3301,-2.78709 31.6182,-4.12343 43.5598,-0.181828 0.332849,0.109899 0.241577,0.569698 0.19809,1.18582 -0.821305,12.4623 -11.6947,18.4304 -21.6549,18.372 -10.1482,-0.0595346 -19.5167,-6.34018 -21.8978,-18.4172l-0.205255 -0.958786z"/>
   <path id="_121760376" class="fil4" d="M78.7862 12.6576c-1.05192,12.0782 -11.1795,17.5538 -20.4975,17.4962 -9.56773,-0.0591047 -18.2159,-5.62699 -20.5583,-17.526 10.3074,-2.83323 30.7845,-3.20699 40.7859,-0.371608 0.382139,0.108323 0.304837,0.000501495 0.269947,0.401339z"/>
   <path id="_121760304" class="fil5" d="M79.5674 28.0146c0,0 -3.57222,6.98389 -16.4563,9.31183 0,0 8.50908,-0.16055 11.7201,-2.20758 3.21093,-2.04696 4.73619,-7.10425 4.73619,-7.10425z"/>
   <path id="_121760232" class="fil5" d="M36.9008 28.0146c0,0 3.57222,6.98389 16.4563,9.31183 0,0 -8.50908,-0.16055 -11.7201,-2.20758 -3.21093,-2.04696 -4.73619,-7.10425 -4.73619,-7.10425z"/>
   <path id="_119684072" class="fil1" d="M87.6855 43.241c0,0 7.87891,-3.27956 15.6779,-4.99933l-0.419894 -1.4994c0,0 -6.65913,1.33942 -15.9778,4.85898l0.399906 0.879837 0.319954 0.759908 -7.16421e-005 0z"/>
   <path id="_119683568" class="fil1" d="M29.0306 43.241c0,0 -7.87891,-3.27956 -15.6779,-4.99933l0.419894 -1.4994c0,0 6.65913,1.33942 15.9778,4.85898l-0.399906 0.879837 -0.319954 0.759908 7.16421e-005 0z"/>
   <path id="_119683712" class="fil1" d="M94.2074 23.7071c0.152096,0.204753 0.303118,0.410868 0.45285,0.618343 -1.02857,0.591047 -1.7217,1.70043 -1.7217,2.97136 0,1.89114 1.53364,3.42471 3.42471,3.42471 0.729675,0 1.40605,-0.228252 1.9617,-0.61734 0.124084,0.223094 0.247022,0.447047 0.368527,0.672003 -0.6662,0.446975 -1.46788,0.708111 -2.33023,0.708111 -2.31232,0 -4.18741,-1.87509 -4.18741,-4.18748 0,-1.52368 0.814499,-2.85716 2.03156,-3.5897zm5.66603 9.36706l0.00508659 0.0104597c-1.0247,0.62386 -2.22807,0.983503 -3.51526,0.983503 -3.739,0 -6.77118,-3.03218 -6.77118,-6.77125 0,-1.12543 0.275177,-2.18673 0.761341,-3.12066 0.201028,0.223452 0.456074,0.39747 0.744362,0.50171 -0.393172,0.78878 -0.614689,1.67807 -0.614689,2.61895 0,3.24718 2.63313,5.88024 5.88017,5.88024 1.10587,0 2.14045,-0.305625 3.02394,-0.83678 0.101302,0.282986 0.269804,0.533949 0.486235,0.73383zm-7.98236 -11.4952c0.723227,0 1.30947,0.586391 1.30947,1.30947 0,0.723156 -0.586247,1.30955 -1.30947,1.30955 -0.723156,0 -1.3094,-0.586391 -1.3094,-1.30955 0,-0.723084 0.586247,-1.30947 1.3094,-1.30947z"/>
   <path id="_119683424" class="fil1" d="M15.4507 35.0334c0,0 7.11385,1.04497 14.3483,5.06409l0.32153 -1.00478c0,0 -6.63155,-3.81817 -14.1875,-5.10429l-0.763633 0.361721 0.281339 0.683251z"/>
   <path id="_119542952" class="fil1" d="M101.705 35.6816c0,0 -7.14544,0.800601 -14.5133,4.56955l-0.286927 -1.01524c0,0 6.7585,-3.5887 14.3541,-4.61519l0.750738 0.387655 -0.304551 0.673221z"/>
   <path id="_88250856" class="fil1" d="M49.2893 45.1898c2.41183,-2.12182 5.57555,-3.4093 9.03944,-3.4093 3.46397,0 6.62776,1.28748 9.03944,3.4093l-2.29162 0c-1.93749,-1.27408 -4.25611,-2.01565 -6.74783,-2.01565 -2.49164,0 -4.81027,0.741568 -6.74776,2.01565l-2.29169 0zm-4.73325 8.08746c-0.0324539,0 -0.0487166,-0.0162628 -0.0487166,-0.0487166l0.0194867 -6.69875c0,-0.0258628 0.0129672,-0.0389017 0.039045,-0.0389017l1.87208 0c0.598068,0 1.07091,0.181971 1.41873,0.545985 0.347751,0.364014 0.521555,0.858058 0.521555,1.48213 0,0.461519 -0.0909855,0.86121 -0.272956,1.19936 -0.182043,0.338007 -0.419321,0.597925 -0.711836,0.779968 -0.292515,0.181971 -0.611036,0.2731 -0.955491,0.2731l-0.741066 0 0 2.45711c0,0.0324539 -0.0162628,0.0487166 -0.0487166,0.0487166l-1.09211 0zm1.14083 -3.6857l0.741066 0c0.207977,0 0.3883,-0.0991527 0.541185,-0.297386 0.152669,-0.198305 0.22904,-0.456718 0.22904,-0.775168 0,-0.253541 -0.0682033,-0.461519 -0.204753,-0.624074 -0.136478,-0.162484 -0.32504,-0.243798 -0.565471,-0.243798l-0.741066 0.00981497 0 1.93061zm3.31524 3.6857c-0.0325255,0 -0.0487166,-0.0162628 -0.0487166,-0.0487166l0.00967169 -6.69875c0,-0.0258628 0.0129672,-0.0389017 0.039045,-0.0389017l1.09204 0c0.0259344,0 0.0389733,0.0130389 0.0389733,0.0389017l0.00974333 6.69875c0,0.0324539 -0.0129672,0.0487166 -0.039045,0.0487166l-1.10171 0zm3.80269 0.0975766c-0.351046,0 -0.671215,-0.0894094 -0.960506,-0.268228 -0.289148,-0.178747 -0.521555,-0.415954 -0.697078,-0.711693 -0.175452,-0.295882 -0.263213,-0.622498 -0.263213,-0.979992l0.00967169 -3.091c0,-0.357423 0.0861138,-0.682534 0.258413,-0.975049 0.172299,-0.292515 0.404706,-0.52657 0.697221,-0.702093 0.292515,-0.175452 0.611036,-0.263213 0.955491,-0.263213 0.351046,0 0.669567,0.0877616 0.955491,0.263213 0.286067,0.175523 0.51525,0.409578 0.687406,0.702093 0.172299,0.292515 0.258485,0.617627 0.258485,0.975049l0.00974333 3.091c0,0.357494 -0.0861138,0.684111 -0.258413,0.979992 -0.172299,0.295739 -0.402987,0.532946 -0.692278,0.711693 -0.289291,0.178819 -0.609388,0.268228 -0.960434,0.268228zm0 -1.17987c0.194938,0 0.365661,-0.0795944 0.511883,-0.238855 0.146293,-0.15926 0.21944,-0.339727 0.21944,-0.541185l-0.00981497 -3.091c0,-0.214496 -0.0682033,-0.396467 -0.204753,-0.545985 -0.136478,-0.149445 -0.308778,-0.224311 -0.516755,-0.224311 -0.201529,0 -0.373685,0.0731466 -0.516755,0.219368 -0.142998,0.146293 -0.214568,0.329984 -0.214568,0.550928l0 3.091c0,0.214496 0.0715705,0.398187 0.214568,0.550856 0.143069,0.152813 0.315225,0.229183 0.516755,0.229183zm2.73995 1.0823c-0.0520122,0 -0.0780899,-0.0227822 -0.0780899,-0.0682749l-0.00967169 -6.64015c0,-0.0519405 0.0259344,-0.0779466 0.0780183,-0.0779466l0.877544 0 1.64784 3.84174 -0.0487883 -3.76379c0,-0.0519405 0.02923,-0.0779466 0.0877616,-0.0779466l0.965306 0c0.039045,0 0.05846,0.0260061 0.05846,0.0779466l0.00981497 6.64996c0,0.0389733 -0.0162628,0.05846 -0.0487166,0.05846l-0.858058 0 -1.68681 -3.58812 0.0681317 3.51018c0,0.0519405 -0.02923,0.0779466 -0.0877616,0.0779466l-0.974978 0zm4.47541 0c-0.0259344,0 -0.0389017,-0.0162628 -0.0389017,-0.0487166l0.00967169 -6.69875c0,-0.0258628 0.0129672,-0.0389017 0.039045,-0.0389017l3.1299 0c0.0260061,0 0.039045,0.0162628 0.039045,0.0487166l0 1.09211c0,0.0260061 -0.0130389,0.0389017 -0.039045,0.0389017l-1.99889 0 0 1.52118 1.99889 0c0.0260061,0 0.039045,0.0128956 0.039045,0.0389733l0.00967169 1.10186c0,0.0259344 -0.0128956,0.0389733 -0.0389017,0.0389733l-2.0087 0 0 1.70637 2.0087 0c0.0260061,0 0.0389017,0.0161911 0.0389017,0.0487166l0 1.11153c0,0.0260061 -0.0128956,0.039045 -0.0389017,0.039045l-3.14953 0zm4.09521 0c-0.0258628,0 -0.0389017,-0.0162628 -0.0389017,-0.0487166l0.00967169 -6.69875c0,-0.0258628 0.0130389,-0.0389017 0.039045,-0.0389017l3.1299 0c0.0260777,0 0.039045,0.0162628 0.039045,0.0487166l0 1.09211c0,0.0260061 -0.0129672,0.0389017 -0.039045,0.0389017l-1.99889 0 0 1.52118 1.99889 0c0.0260777,0 0.039045,0.0128956 0.039045,0.0389733l0.00967169 1.10186c0,0.0259344 -0.0128956,0.0389733 -0.0389017,0.0389733l-2.0087 0 0 1.70637 2.0087 0c0.0260061,0 0.0389017,0.0161911 0.0389017,0.0487166l0 1.11153c0,0.0260061 -0.0128956,0.039045 -0.0389017,0.039045l-3.14953 0zm4.09528 0c-0.0259344,0 -0.0389733,-0.0162628 -0.0389733,-0.0487166l0.0194867 -6.69875c0,-0.0258628 0.0130389,-0.0389017 0.039045,-0.0389017l1.96951 0c0.351046,0 0.674511,0.0861138 0.970249,0.258341 0.29581,0.172228 0.53137,0.403059 0.706893,0.692349 0.175523,0.289291 0.263285,0.615907 0.263285,0.979921 0,0.240431 -0.0356778,0.456647 -0.107248,0.648361 -0.0714988,0.191786 -0.156037,0.35427 -0.253541,0.487596 -0.0974333,0.133254 -0.185195,0.232264 -0.263285,0.297386 0.351046,0.39002 0.526498,0.848314 0.526498,1.37481l0.00981497 1.99889c0,0.0324539 -0.0162628,0.0487166 -0.0487166,0.0487166l-1.10186 0c-0.0259344,0 -0.0389733,-0.00974333 -0.0389733,-0.02923l0 -2.01837c0,-0.233983 -0.0828899,-0.43716 -0.248598,-0.609459 -0.165851,-0.172299 -0.368885,-0.25827 -0.609459,-0.25827l-0.643561 0 -0.00974333 2.86662c0,0.0324539 -0.0130389,0.0487166 -0.0389733,0.0487166l-1.10186 0zm1.15057 -4.08546l0.838499 0c0.201529,0 0.380276,-0.0747944 0.536313,-0.224311 0.156108,-0.149517 0.234055,-0.331416 0.234055,-0.545985 0,-0.207977 -0.0763705,-0.386867 -0.229183,-0.536313 -0.152741,-0.149517 -0.333064,-0.22424 -0.541185,-0.22424l-0.838499 0 0 1.53085zm-11.0425 16.7885c-3.78027,0 -7.20347,-1.533 -9.68136,-4.01088 -0.079666,-0.079666 -0.158043,-0.160263 -0.235774,-0.24172l2.03413 0c2.13479,1.78468 4.88348,2.85895 7.883,2.85895 2.99951,0 5.74828,-1.07427 7.88307,-2.85895l2.03399 0c-0.0776601,0.0814571 -0.156108,0.162054 -0.235703,0.24172 -2.47789,2.47796 -5.90116,4.01088 -9.68136,4.01088zm-10.3433 -5.69884c-0.0194867,0 -0.0293016,-0.0121792 -0.0293016,-0.0366091l0.0146866 -5.03608c0,-0.0194867 0.00974333,-0.0293016 0.0293016,-0.0293016l1.40748 0c0.278545,0 0.527787,0.0672003 0.747729,0.201601 0.21987,0.134329 0.393387,0.3115 0.520408,0.531441 0.127093,0.21987 0.190568,0.459369 0.190568,0.718427 0,0.210126 -0.047642,0.405638 -0.142926,0.586391 -0.095284,0.180896 -0.20898,0.327476 -0.340873,0.439811 0.141708,0.14178 0.251679,0.305482 0.32984,0.491178 0.0783048,0.185696 0.11735,0.381208 0.11735,0.586391 0,0.283488 -0.0684182,0.542546 -0.205326,0.777102 -0.136765,0.234556 -0.321315,0.421471 -0.553435,0.560743 -0.23212,0.139344 -0.489817,0.208908 -0.773305,0.208908l-1.3122 0zm0.865007 -3.07875l0.557161 0c0.17101,0 0.309064,-0.0599644 0.414091,-0.179607 0.105099,-0.119714 0.157684,-0.250461 0.157684,-0.392169 0,-0.156395 -0.0561674,-0.292085 -0.168646,-0.406856 -0.112406,-0.114914 -0.246807,-0.172299 -0.40313,-0.172299l-0.557161 0 0 1.15093zm-0.00737914 2.18451l0.454569 0c0.175953,0 0.327476,-0.0647645 0.454426,-0.194293 0.127165,-0.129529 0.190568,-0.28227 0.190568,-0.458223 0,-0.175881 -0.0634033,-0.327404 -0.190568,-0.454426 -0.12695,-0.127093 -0.278473,-0.190568 -0.454426,-0.190568l-0.44719 0 -0.00737914 1.29751zm3.86316 0.967598c-0.258986,0 -0.498486,-0.0672003 -0.718355,-0.201673 -0.219941,-0.134329 -0.394676,-0.313936 -0.524134,-0.538749 -0.129457,-0.224813 -0.194222,-0.47162 -0.194222,-0.74035l0.014615 -3.66528c0,-0.0194867 0.00981497,-0.0293016 0.0293733,-0.0293016l0.820947 0c0.0195583,0 0.0293733,0.00981497 0.0293733,0.0293016l0 3.66528c0,0.166138 0.0525137,0.306628 0.157541,0.421471 0.105099,0.114914 0.23341,0.172299 0.384861,0.172299 0.156466,0 0.287142,-0.0573853 0.392169,-0.172299 0.105171,-0.114842 0.157613,-0.255332 0.157613,-0.421471l0 -3.66528c0,-0.0194867 0.00974333,-0.0293016 0.0293733,-0.0293016l0.821019 0c0.0195583,0 0.02923,0.00981497 0.02923,0.0293016l0.0147583 3.66528c0,0.273673 -0.0647645,0.522916 -0.194293,0.747729 -0.129529,0.224741 -0.302975,0.403202 -0.520408,0.535095 -0.217505,0.131965 -0.460659,0.197947 -0.72946,0.197947zm2.05993 -0.0733615c-0.02443,0 -0.0366808,-0.0121792 -0.0366808,-0.0366091l0.0073075 -5.03608c0,-0.0194867 0.00981497,-0.0293016 0.0293733,-0.0293016l0.821019 0c0.0194867,0 0.02923,0.00981497 0.02923,0.0293016l0.00737914 5.03608c0,0.02443 -0.00974333,0.0366091 -0.0293016,0.0366091l-0.828326 0zm1.53199 0c-0.0194867,0 -0.02923,-0.0121792 -0.02923,-0.0366091l0.00723585 -5.02877c0,-0.0243583 0.0122508,-0.0366091 0.0367524,-0.0366091l0.813639 0c0.02443,0 0.0366091,0.0122508 0.0366091,0.0366091l-0.0073075 4.16377 1.51014 0c0.0243583,0 0.0366091,0.0121792 0.0366091,0.0366091l0 0.828398c0,0.02443 -0.0122508,0.0366091 -0.0366091,0.0366091l-2.36784 0zm2.91763 0c-0.02443,0 -0.0366808,-0.0121792 -0.0366808,-0.0366091l0.0146866 -5.03608c0,-0.0194867 0.00974333,-0.0293016 0.0293016,-0.0293016l1.37073 -0.0073075c0.268873,-0.00487166 0.51439,0.0586032 0.736768,0.190496 0.222377,0.131965 0.399548,0.309207 0.531513,0.531584 0.131965,0.222305 0.197876,0.467823 0.197876,0.736696l0 2.10377c0,0.283488 -0.0683466,0.541328 -0.205255,0.773448 -0.136765,0.23212 -0.320097,0.416599 -0.549782,0.553435 -0.229685,0.136765 -0.488671,0.20769 -0.77703,0.212562l-1.31213 0.0073075zm0.857628 -0.901616l0.454498 0c0.180825,0 0.333566,-0.0635466 0.458151,-0.190568 0.124586,-0.127093 0.186914,-0.278616 0.186914,-0.454569l0 -2.11115c0,-0.156395 -0.0573853,-0.291942 -0.172299,-0.406856 -0.114771,-0.114771 -0.250389,-0.169792 -0.406856,-0.16492l-0.513029 0.00737914 -0.00737914 3.32068zm2.59502 0.901616c-0.0194867,0 -0.0293016,-0.0121792 -0.0293016,-0.0366091l0.0073075 -5.03608c0,-0.0194867 0.00974333,-0.0293016 0.0293016,-0.0293016l2.35309 0c0.0195583,0 0.0293733,0.0122508 0.0293733,0.0366091l0 0.82109c0,0.0195583 -0.00981497,0.02923 -0.0293733,0.02923l-1.50276 0 0 1.14362 1.50276 0c0.0195583,0 0.0293733,0.00974333 0.0293733,0.0293016l0.00723585 0.828398c0,0.0194867 -0.00967169,0.02923 -0.02923,0.02923l-1.51014 0 0 1.2829 1.51014 0c0.0195583,0 0.02923,0.0121792 0.02923,0.0366091l0 0.835705c0,0.0195583 -0.00967169,0.0293016 -0.02923,0.0293016l-2.36777 0zm3.07875 0c-0.0194867,0 -0.02923,-0.0121792 -0.02923,-0.0366091l0.014615 -5.03608c0,-0.0194867 0.00981497,-0.0293016 0.0293733,-0.0293016l1.4807 0c0.263858,0 0.507083,0.0647645 0.729388,0.194222 0.222377,0.129529 0.399476,0.303046 0.531441,0.520552 0.131965,0.217434 0.197947,0.463023 0.197947,0.736696 0,0.180753 -0.0268658,0.343237 -0.0805974,0.487453 -0.0538032,0.144144 -0.11735,0.266294 -0.190711,0.366521 -0.0732182,0.100227 -0.139201,0.174663 -0.197876,0.223595 0.263858,0.293231 0.395823,0.637758 0.395823,1.03358l0.00737914 1.50276c0,0.02443 -0.0122508,0.0366091 -0.0366091,0.0366091l-0.828398 0c-0.0194867,0 -0.0293016,-0.0073075 -0.0293016,-0.0219941l0 -1.51738c0,-0.175953 -0.0623286,-0.328622 -0.186914,-0.458151 -0.124657,-0.129529 -0.277327,-0.194222 -0.458151,-0.194222l-0.483871 0 -0.0073075 2.15514c0,0.02443 -0.00981497,0.0366091 -0.0293016,0.0366091l-0.828398 0zm0.865007 -3.07144l0.630451 0c0.151451,0 0.285852,-0.0562391 0.403202,-0.168646 0.117278,-0.112335 0.175881,-0.249171 0.175881,-0.410438 0,-0.156395 -0.0573853,-0.290867 -0.172299,-0.403202 -0.114771,-0.112406 -0.250389,-0.168574 -0.406784,-0.168574l-0.630451 0 0 1.15086z"/>
  </g>
 </g>
</svg>
