<?xml version="1.0" encoding="UTF-8"?>
<!DOCTYPE svg PUBLIC "-//W3C//DTD SVG 1.1//EN" "http://www.w3.org/Graphics/SVG/1.1/DTD/svg11.dtd">
<!-- Creator: CorelDRAW -->
<svg xmlns="http://www.w3.org/2000/svg" xml:space="preserve" width="161.908mm" height="176.791mm" style="shape-rendering:geometricPrecision; text-rendering:geometricPrecision; image-rendering:optimizeQuality; fill-rule:evenodd; clip-rule:evenodd"
viewBox="0 0 148.741 162.414"
 xmlns:xlink="http://www.w3.org/1999/xlink">
 <defs>
  <style type="text/css">
   <![CDATA[
    .fil0 {fill:none}
    .fil1 {fill:#501D33}
    .fil3 {fill:#C9C7D2}
    .fil6 {fill:#D49293}
    .fil5 {fill:#D77D75}
    .fil4 {fill:#FFCFA5}
    .fil2 {fill:white}
    .fil7 {fill:#501D33;fill-rule:nonzero}
   ]]>
  </style>
 </defs>
 <g id="Слой_x0020_1">
  <metadata id="CorelCorpID_0Corel-Layer"/>
  <g id="_88250256">
   <rect id="_133936424" class="fil0" width="148.741" height="162.414"/>
   <g>
    <path id="_205121040" class="fil1" d="M40.6405 16.9617c-15.3384,6.88256 -27.9113,33.4881 -29.0318,47.5022 -1.28376,16.0548 -1.08487,25.8251 8.27941,45.4391 0,0 2.11397,3.94931 9.07324,2.256 3.24147,0.524014 6.12134,-0.774906 7.61144,-2.91184 0.0362878,-0.0519972 3.96676,-0.424981 5.83334,-2.24204 0.846746,-0.824239 1.38454,-1.55707 1.08018,-3.05672 -0.398431,-1.9634 -0.986661,-4.36758 -0.986661,-4.36758 0,0 3.46112,-3.45037 2.89439,-4.91824 -0.566733,-1.46787 -7.64433,-7.60161 -7.65609,-7.6604 -4.8566,-22.2694 -0.0941646,-41.266 12.6288,-56.6103l10.222 -13.535c-5.13514,-1.51619 -14.5021,-2.33877 -19.948,0.104821l9.18679e-005 -9.18679e-005 -0.000183736 9.18679e-005 -9.18679e-005 -9.18679e-005z"/>
    <path id="_201721816" class="fil1" d="M108.296 16.9617c15.3384,6.88256 27.9113,33.4881 29.0318,47.5022 1.28376,16.0548 1.08487,25.8251 -8.27941,45.4391 0,0 -2.11397,3.94931 -9.07324,2.256 -3.24147,0.524014 -6.12134,-0.774906 -7.61144,-2.91184 -0.0362878,-0.0519972 -3.96676,-0.424981 -5.83334,-2.24204 -0.846746,-0.824239 -1.38454,-1.55707 -1.08018,-3.05672 0.398431,-1.9634 0.986661,-4.36758 0.986661,-4.36758 0,0 -3.46112,-3.45037 -2.89439,-4.91824 0.566733,-1.46787 7.64433,-7.60161 7.65609,-7.6604 4.8566,-22.2694 0.0941646,-41.266 -12.6288,-56.6103l-10.222 -13.535c5.13514,-1.51619 14.5021,-2.33877 19.948,0.104821l-9.18679e-005 -9.18679e-005 0.000183736 9.18679e-005 9.18679e-005 -9.18679e-005z"/>
    <path id="_201723160" class="fil1" d="M46.774 84.0737c-2.77377,-16.4884 -4.2047,-44.2789 -5.87229,-57.3507 2.91534,-12.0041 25.8462,-8.32314 33.6577,-6.69947 7.81153,-1.62367 30.7423,-5.30464 33.6576,6.69947 -1.64554,12.8983 -2.85746,40.3662 -5.55562,56.8976 -10.135,3.21887 -19.8211,4.31935 -28.2216,4.30291 -6.37333,-0.012494 -21.1661,-1.28045 -27.666,-3.85l0.000183736 -9.18679e-005 -0.000183736 0.000183736 0.000183736 0.000183736z"/>
    <path id="_208906640" class="fil2" d="M48.9499 83.5424c-2.70753,-17.5924 -4.69757,-37.3409 -5.81854,-54.91 2.2774,-9.37751 16.839,-14.1141 31.4092,-14.1398l0 -0.000275604 0.0191085 9.18679e-005 0.0191085 -9.18679e-005 0 0.000275604c14.57,0.025723 29.1316,4.76234 31.4091,14.1398 -1.11059,17.4077 -3.07454,36.9548 -5.74413,54.4245 -21.4327,6.62634 -43.6773,2.33602 -51.2935,0.485797l-0.000183736 0 0.000183736 -0.000183736 -0.000275604 -9.18679e-005z"/>
    <path id="_208910096" class="fil3" d="M48.9499 83.5424c-2.19463,-14.2595 -3.91761,-29.9352 -5.08856,-44.7194 0.14065,-0.65511 0.034083,-1.03921 0.140558,-1.07991 1.8753,12.6512 4.06074,27.1159 6.56855,39.0661 1.72601,8.22447 9.1076,8.56181 24.3877,8.08621 14.2279,-0.442803 23.3851,-1.26741 24.6311,-13.2101l5.67909 -35.1568c0,0 0.077169,-0.34377 0.210469,0.544777 -1.15845,14.7657 -3.05075,31.6894 -5.23491,45.9831 -21.4328,6.62652 -43.6773,2.33611 -51.294,0.485889l0 9.18679e-005 9.18679e-005 0 -9.18679e-005 0z"/>
    <path id="_208911440" class="fil3" d="M48.7863 75.6086c0.965991,3.0152 15.365,0.438026 17.0654,0.438577 0.84252,0.000275604 -4.59523,3.53002 -15.3564,5.56398l-1.70883 -6.00256 -9.18679e-005 0 -9.18679e-005 0z"/>
    <path id="_208908320" class="fil3" d="M47.9046 37.1932c0,0 5.5909,12.6313 15.8408,20.8105 0,0 -6.83332,-3.93433 -9.11109,-6.41918 -2.27777,-2.48484 -6.72978,-14.3913 -6.72978,-14.3913l9.18679e-005 0z"/>
    <path id="_208911776" class="fil3" d="M103.296 51.6877c0,0 -5.38383,10.0429 -18.9467,16.9797 0,0 10.1463,-2.17424 17.9115,-7.35099l0.310605 -3.93433 0.724746 -5.69443 -9.18679e-005 0 0 9.18679e-005z"/>
    <path id="_208912112" class="fil2" d="M100.079 37.778c0,0 -5.41892,12.5553 -20.0471,23.7375 -2.56422,1.96009 -7.18214,5.43252 -0.152593,2.01191 3.97963,-1.93658 8.63448,-4.55031 12.0572,-7.52756 7.30221,-6.35165 8.14253,-18.2219 8.14253,-18.2219l0 9.18679e-005z"/>
    <path id="_208908152" class="fil3" d="M66.9511 57.9832c-2.7949,-2.48016 -5.36077,-5.24437 -7.71709,-8.14198 -7.4967,-9.21885 -12.9374,-20.0529 -15.9333,-31.5469 28.2016,-7.96706 54.8988,-1.85316 64.1372,0.797689l-1.385 2.97863c-2.10791,4.53322 -4.75426,8.92129 -7.47952,13.1089 -5.84298,8.97834 -12.8693,17.5549 -21.1218,24.424 -0.997869,0.830394 -2.5012,2.1476 -3.82731,2.21934 -2.32022,0.1254 -5.03868,-2.38902 -6.67356,-3.8398l9.18679e-005 0 0 9.18679e-005 0.000275604 0z"/>
    <path id="_88356448" class="fil1" d="M56.5291 71.6343c-0.0416162,0 -0.0624702,-0.020854 -0.0624702,-0.0624702l0.0249881 -8.58992c0,-0.0331643 0.0166281,-0.0498843 0.050068,-0.0498843l2.4006 0c0.766913,0 1.37324,0.233344 1.81926,0.700125 0.445927,0.466781 0.668798,1.1003 0.668798,1.90056 0,0.591813 -0.116672,1.10434 -0.350017,1.53796 -0.233436,0.433433 -0.537703,0.766729 -0.912799,1.00017 -0.375097,0.233344 -0.783541,0.3502 -1.22524,0.3502l-0.950281 0 0 3.15079c0,0.0416162 -0.020854,0.0624702 -0.0624702,0.0624702l-1.40043 0zm1.4629 -4.72624l0.950281 0c0.266692,0 0.497924,-0.127145 0.69397,-0.381344 0.19577,-0.25429 0.293702,-0.585658 0.293702,-0.994011 0,-0.32512 -0.0874582,-0.591813 -0.262558,-0.800261 -0.175008,-0.208356 -0.416805,-0.312626 -0.725113,-0.312626l-0.950281 0.0125859 0 2.47566zm4.25119 4.72624c-0.041708,0 -0.0624702,-0.020854 -0.0624702,-0.0624702l0.0124022 -8.58992c0,-0.0331643 0.0166281,-0.0498843 0.050068,-0.0498843l1.40034 0c0.0332562,0 0.0499761,0.01672 0.0499761,0.0498843l0.012494 8.58992c0,0.0416162 -0.0166281,0.0624702 -0.050068,0.0624702l-1.41274 0zm4.87626 0.125124c-0.450153,0 -0.86071,-0.114651 -1.23167,-0.343953 -0.370779,-0.22921 -0.668798,-0.533385 -0.893875,-0.912616 -0.224984,-0.379414 -0.337523,-0.79824 -0.337523,-1.25666l0.0124022 -3.96364c0,-0.458329 0.110425,-0.875225 0.331367,-1.25032 0.220942,-0.375097 0.518962,-0.675229 0.894058,-0.900305 0.375097,-0.224984 0.783541,-0.337523 1.22524,-0.337523 0.450153,0 0.858597,0.112538 1.22524,0.337523 0.366828,0.225076 0.660714,0.525209 0.881472,0.900305 0.220942,0.375097 0.331459,0.791993 0.331459,1.25032l0.012494 3.96364c0,0.458421 -0.110425,0.877246 -0.331367,1.25666 -0.220942,0.379231 -0.516757,0.683405 -0.887719,0.912616 -0.370963,0.229302 -0.781428,0.343953 -1.23158,0.343953zm0 -1.51297c0.249973,0 0.468894,-0.102065 0.656396,-0.306288 0.187594,-0.204222 0.281391,-0.435638 0.281391,-0.69397l-0.0125859 -3.96364c0,-0.275052 -0.0874582,-0.508397 -0.262558,-0.700125 -0.175008,-0.191636 -0.395951,-0.287638 -0.662643,-0.287638 -0.258424,0 -0.479183,0.0937971 -0.662643,0.281299 -0.183368,0.187594 -0.275144,0.423143 -0.275144,0.706464l0 3.96364c0,0.275052 0.091776,0.510602 0.275144,0.706372 0.18346,0.195954 0.404219,0.293885 0.662643,0.293885zm3.51349 1.38785c-0.0666961,0 -0.100136,-0.029214 -0.100136,-0.0875501l-0.0124022 -8.51478c0,-0.0666042 0.0332562,-0.0999523 0.100044,-0.0999523l1.12529 0 2.11305 4.92632 -0.062562 -4.82637c0,-0.0666042 0.0374821,-0.0999523 0.112538,-0.0999523l1.23783 0c0.050068,0 0.0749642,0.033348 0.0749642,0.0999523l0.0125859 8.52736c0,0.0499761 -0.020854,0.0749642 -0.0624702,0.0749642l-1.1003 0 -2.16303 -4.60111 0.0873664 4.50116c0,0.0666042 -0.0374821,0.0999523 -0.112538,0.0999523l-1.25023 0zm5.7389 0c-0.0332562,0 -0.0498843,-0.020854 -0.0498843,-0.0624702l0.0124022 -8.58992c0,-0.0331643 0.0166281,-0.0498843 0.050068,-0.0498843l4.01352 0c0.033348,0 0.050068,0.020854 0.050068,0.0624702l0 1.40043c0,0.033348 -0.01672,0.0498843 -0.050068,0.0498843l-2.56321 0 0 1.95063 2.56321 0c0.033348,0 0.050068,0.0165362 0.050068,0.0499761l0.0124022 1.41293c0,0.0332562 -0.0165362,0.0499761 -0.0498843,0.0499761l-2.57579 0 0 2.18811 2.57579 0c0.033348,0 0.0498843,0.0207621 0.0498843,0.0624702l0 1.42533c0,0.033348 -0.0165362,0.050068 -0.0498843,0.050068l-4.0387 0zm5.25135 0c-0.0331643,0 -0.0498843,-0.020854 -0.0498843,-0.0624702l0.0124022 -8.58992c0,-0.0331643 0.01672,-0.0498843 0.050068,-0.0498843l4.01352 0c0.0334399,0 0.050068,0.020854 0.050068,0.0624702l0 1.40043c0,0.033348 -0.0166281,0.0498843 -0.050068,0.0498843l-2.56321 0 0 1.95063 2.56321 0c0.0334399,0 0.050068,0.0165362 0.050068,0.0499761l0.0124022 1.41293c0,0.0332562 -0.0165362,0.0499761 -0.0498843,0.0499761l-2.57579 0 0 2.18811 2.57579 0c0.033348,0 0.0498843,0.0207621 0.0498843,0.0624702l0 1.42533c0,0.033348 -0.0165362,0.050068 -0.0498843,0.050068l-4.0387 0zm5.25144 0c-0.0332562,0 -0.0499761,-0.020854 -0.0499761,-0.0624702l0.0249881 -8.58992c0,-0.0331643 0.01672,-0.0498843 0.050068,-0.0498843l2.52554 0c0.450153,0 0.864936,0.110425 1.24417,0.331276 0.379323,0.22085 0.681384,0.516849 0.90646,0.887811 0.225076,0.370963 0.337614,0.789788 0.337614,1.25657 0,0.308309 -0.0457502,0.585566 -0.137526,0.831404 -0.0916842,0.24593 -0.200088,0.454287 -0.32512,0.625253 -0.12494,0.170874 -0.237478,0.297836 -0.337614,0.381344 0.450153,0.500129 0.675137,1.08781 0.675137,1.76294l0.0125859 2.56321c0,0.0416162 -0.020854,0.0624702 -0.0624702,0.0624702l-1.41293 0c-0.0332562,0 -0.0499761,-0.012494 -0.0499761,-0.0374821l0 -2.58819c0,-0.300041 -0.106291,-0.560578 -0.318782,-0.78152 -0.212674,-0.220942 -0.473028,-0.331184 -0.78152,-0.331184l-0.825249 0 -0.012494 3.67591c0,0.0416162 -0.01672,0.0624702 -0.0499761,0.0624702l-1.41293 0zm1.4754 -5.23886l1.07522 0c0.258424,0 0.487635,-0.0959101 0.687723,-0.287638 0.20018,-0.191728 0.300132,-0.424981 0.300132,-0.700125 0,-0.266692 -0.0979312,-0.496087 -0.293885,-0.687723 -0.195862,-0.191728 -0.427094,-0.287546 -0.69397,-0.287546l-1.07522 0 0 1.96303zm-27.4234 14.2205c-0.0249881,0 -0.037574,-0.0156175 -0.037574,-0.0469445l0.0188329 -6.45785c0,-0.0249881 0.012494,-0.037574 0.037574,-0.037574l1.80484 0c0.357182,0 0.676791,0.0861721 0.958825,0.258516 0.281943,0.172252 0.504447,0.399442 0.667328,0.681476 0.162974,0.281943 0.244369,0.589057 0.244369,0.921251 0,0.269449 -0.0610921,0.520156 -0.183276,0.751939 -0.122184,0.231966 -0.267979,0.419928 -0.437107,0.563977 0.181715,0.181807 0.322732,0.391725 0.42296,0.629846 0.100412,0.238122 0.15048,0.488829 0.15048,0.751939 0,0.363521 -0.0877338,0.695716 -0.263293,0.996491 -0.175376,0.300775 -0.412027,0.540459 -0.709679,0.71905 -0.297652,0.178683 -0.628101,0.267887 -0.991622,0.267887l-1.68265 0zm1.10921 -3.94793l0.714457 0c0.219289,0 0.396318,-0.0768934 0.530996,-0.230313 0.13477,-0.153511 0.202201,-0.32117 0.202201,-0.502885 0,-0.200548 -0.0720244,-0.374545 -0.216257,-0.521718 -0.144141,-0.147356 -0.316485,-0.220942 -0.516941,-0.220942l-0.714457 0 0 1.47586zm-0.00946239 2.80124l0.582902 0c0.225628,0 0.419928,-0.0830486 0.582718,-0.249146 0.163066,-0.166097 0.244369,-0.361959 0.244369,-0.587587 0,-0.225536 -0.0813031,-0.419836 -0.244369,-0.582718 -0.16279,-0.162974 -0.35709,-0.244369 -0.582718,-0.244369l-0.573439 0 -0.00946239 1.66382zm4.95379 1.24077c-0.332102,0 -0.639217,-0.0861721 -0.921159,-0.258608 -0.282034,-0.172252 -0.5061,-0.402565 -0.672105,-0.690847 -0.166005,-0.288281 -0.249054,-0.604766 -0.249054,-0.949363l0.018741 -4.70005c0,-0.0249881 0.0125859,-0.037574 0.0376658,-0.037574l1.05271 0c0.0250799,0 0.0376658,0.0125859 0.0376658,0.037574l0 4.70005c0,0.213042 0.0673392,0.393195 0.202017,0.540459 0.13477,0.147356 0.299306,0.220942 0.493514,0.220942 0.200639,0 0.368206,-0.0735862 0.502885,-0.220942 0.134862,-0.147264 0.202109,-0.327417 0.202109,-0.540459l0 -4.70005c0,-0.0249881 0.012494,-0.037574 0.0376658,-0.037574l1.05281 0c0.0250799,0 0.0374821,0.0125859 0.0374821,0.037574l0.0189248 4.70005c0,0.350935 -0.0830486,0.670544 -0.249146,0.958825 -0.166097,0.28819 -0.388509,0.517032 -0.667328,0.686161 -0.278911,0.169221 -0.590711,0.253831 -0.935399,0.253831zm2.64148 -0.0940727c-0.031327,0 -0.0470364,-0.0156175 -0.0470364,-0.0469445l0.00937052 -6.45785c0,-0.0249881 0.0125859,-0.037574 0.0376658,-0.037574l1.05281 0c0.0249881,0 0.0374821,0.0125859 0.0374821,0.037574l0.00946239 6.45785c0,0.031327 -0.012494,0.0469445 -0.037574,0.0469445l-1.06218 0zm1.9645 0c-0.0249881,0 -0.0374821,-0.0156175 -0.0374821,-0.0469445l0.00927866 -6.44848c0,-0.0312351 0.0157094,-0.0469445 0.0471282,-0.0469445l1.04334 0c0.031327,0 0.0469445,0.0157094 0.0469445,0.0469445l-0.00937052 5.33927 1.93648 0c0.0312351,0 0.0469445,0.0156175 0.0469445,0.0469445l0 1.06227c0,0.031327 -0.0157094,0.0469445 -0.0469445,0.0469445l-3.03633 0zm3.74132 0c-0.031327,0 -0.0470364,-0.0156175 -0.0470364,-0.0469445l0.0188329 -6.45785c0,-0.0249881 0.012494,-0.037574 0.037574,-0.037574l1.75771 -0.00937052c0.34478,-0.00624702 0.659611,0.0751479 0.944769,0.244277 0.285158,0.169221 0.512347,0.396502 0.681568,0.68166 0.169221,0.285066 0.253739,0.599897 0.253739,0.944678l0 2.6977c0,0.363521 -0.087642,0.694154 -0.263202,0.991806 -0.175376,0.297652 -0.410466,0.534212 -0.704994,0.709679 -0.294528,0.175376 -0.626631,0.266325 -0.996399,0.272572l-1.68256 0.00937052zm1.09975 -1.15616l0.58281 0c0.231875,0 0.427737,-0.0814868 0.587495,-0.244369 0.159758,-0.162974 0.239683,-0.357274 0.239683,-0.582902l0 -2.70716c0,-0.200548 -0.0735862,-0.374362 -0.220942,-0.521718 -0.147172,-0.147172 -0.321078,-0.217727 -0.521718,-0.21148l-0.657866 0.00946239 -0.00946239 4.25817zm3.32764 1.15616c-0.0249881,0 -0.037574,-0.0156175 -0.037574,-0.0469445l0.00937052 -6.45785c0,-0.0249881 0.012494,-0.037574 0.037574,-0.037574l3.0174 0c0.0250799,0 0.0376658,0.0157094 0.0376658,0.0469445l0 1.0529c0,0.0250799 -0.0125859,0.0374821 -0.0376658,0.0374821l-1.92702 0 0 1.46649 1.92702 0c0.0250799,0 0.0376658,0.012494 0.0376658,0.037574l0.00927866 1.06227c0,0.0249881 -0.0124022,0.0374821 -0.0374821,0.0374821l-1.93648 0 0 1.64508 1.93648 0c0.0250799,0 0.0374821,0.0156175 0.0374821,0.0469445l0 1.07164c0,0.0250799 -0.0124022,0.037574 -0.0374821,0.037574l-3.03623 0zm3.94793 0c-0.0249881,0 -0.0374821,-0.0156175 -0.0374821,-0.0469445l0.018741 -6.45785c0,-0.0249881 0.0125859,-0.037574 0.0376658,-0.037574l1.89873 0c0.338349,0 0.650241,0.0830486 0.935307,0.249054 0.285158,0.166097 0.512255,0.388601 0.681476,0.667512 0.169221,0.278819 0.253831,0.593742 0.253831,0.944678 0,0.231783 -0.0344505,0.440139 -0.103351,0.625069 -0.0689928,0.184838 -0.15048,0.341473 -0.244552,0.469996 -0.093889,0.128523 -0.178499,0.223974 -0.253739,0.28672 0.338349,0.376015 0.50757,0.817808 0.50757,1.32538l0.00946239 1.92702c0,0.031327 -0.0157094,0.0469445 -0.0469445,0.0469445l-1.06227 0c-0.0249881,0 -0.037574,-0.00937052 -0.037574,-0.0282034l0 -1.94576c0,-0.225628 -0.0799251,-0.421398 -0.239683,-0.587495 -0.15985,-0.166097 -0.355621,-0.249054 -0.587495,-0.249054l-0.620476 0 -0.00937052 2.76357c0,0.031327 -0.0125859,0.0469445 -0.037574,0.0469445l-1.06227 0zm1.10921 -3.93856l0.808437 0c0.194209,0 0.366553,-0.0721163 0.517032,-0.216257 0.150388,-0.144049 0.225536,-0.319517 0.225536,-0.526311 0,-0.200548 -0.0735862,-0.372984 -0.220942,-0.517032 -0.147172,-0.144141 -0.321078,-0.216165 -0.521626,-0.216165l-0.808437 0 0 1.47577z"/>
    <path id="_208908704" class="fil4" d="M92.9337 18.7527l-1.12162 -1.55192c0.776467,-0.0342667 1.52767,-0.0631132 2.25637,-0.084151 -0.372065,0.50656 -0.754235,1.05483 -1.13475,1.63608zm31.8472 18.5685c5.72006,9.29391 9.16961,19.3574 10.4566,29.6539 1.89707,15.1842 -1.00017,28.498 -8.02778,42.2644 0,0 -0.853269,2.51259 -6.2303,1.89101 0,0 1.56378,-2.76669 1.45785,-3.00546 -0.106016,-0.23904 -2.72499,2.77983 -2.72499,2.77983 0,0 -3.30853,0.0120347 -6.01009,-2.31893 0,0 -0.0110241,-3.73746 -0.245471,-3.72892 -0.234447,0.00854371 -0.986202,2.76724 -0.986202,2.76724l-3.53278 -0.932918c-1.61394,-0.758829 -2.11838,-0.879359 -1.68008,-2.87831 0.334583,-1.52703 0.893783,-4.10254 2.12334,-8.42621 -0.339268,-0.399901 -1.16048,1.47797 -1.76175,2.50983 0,0 -1.93409,-2.13565 -1.85123,-2.86343 0.0824055,-0.728053 6.85555,-5.99355 6.85555,-5.99355 4.42748,-13.8917 2.85029,-29.9688 -1.95844,-42.7402 2.8649,1.00164 4.50667,2.43248 4.50667,2.43248 0.775824,-2.53436 1.08533,-4.96592 1.08533,-4.96592 2.74125,1.39648 3.87995,2.32812 3.87995,2.32812 0.826444,-3.4399 0.515563,-5.14736 0.515563,-5.14736 2.24994,0.930714 3.49263,2.19886 3.49263,2.19886 0.460809,-2.55999 0.78694,-4.21187 0.635634,-5.8247l0 0.000183736 0 9.18679e-005z"/>
    <path id="_208906856" class="fil2" d="M124.793 37.2824c5.72006,9.29391 9.15675,19.3962 10.4437,29.6929 1.89707,15.1842 -1.00017,28.498 -8.02778,42.2644 0,0 -0.0727594,0.212215 -0.307298,0.498291 -1.55312,-0.216808 -3.12415,-0.569305 -4.66478,-1.00669 0.141477,-0.310881 0.227189,-0.54395 0.199629,-0.606052 -0.0314188,-0.070922 -0.284331,0.1446 -0.624059,0.483225 -2.996,-0.883585 -5.85759,-2.0719 -8.22061,-3.18478 -0.0338074,-0.342208 -0.0779958,-0.56857 -0.135873,-0.566457 -0.0522728,0.00192923 -0.122735,0.160953 -0.200364,0.406975 -3.1134,-1.48615 -5.29104,-2.80133 -5.64951,-3.02098l0.00312351 -0.0136883c6.88568,2.3656 18.5109,3.5495 18.5109,3.5495 11.3536,-23.356 9.34214,-46.8432 -1.17609,-65.8541 0.00863558,-0.904072 -0.0858965,-1.94732 -0.151123,-2.64249l0 -9.18679e-005 9.18679e-005 9.18679e-005z"/>
    <path id="_208907888" class="fil5" d="M125.948 39.3484c-0.0365634,1.60925 -0.242531,3.81739 -0.950465,5.96829l-2.89641 -1.65509c0,0 0,2.17231 -1.44821,5.017l-1.39648 -0.930989c0,0 -0.51152,1.17664 -1.31178,2.26087l-0.438853 -1.65215c0,0 -1.85867,2.71056 -3.53664,3.43338l-3.09604 -4.92752c-0.0689009,-0.188145 -0.138261,-0.375556 -0.20854,-0.562231 2.8649,1.00164 4.50667,2.43248 4.50667,2.43248 0.775824,-2.53436 1.08533,-4.96592 1.08533,-4.96592 2.74125,1.39648 3.87995,2.32812 3.87995,2.32812 0.826444,-3.4399 0.515563,-5.14736 0.515563,-5.14736 2.24994,0.930714 3.49263,2.19886 3.49263,2.19886 0.460809,-2.55999 0.634256,-4.364 0.611565,-6.00256 0.570316,0.92658 0.657774,1.24922 1.19171,2.20483z"/>
    <path id="_208907696" class="fil5" d="M113.031 47.3349c5.75975,11.9465 11.0808,33.4027 -5.36031,58.7062 -0.581524,-0.406607 -0.703341,-0.907012 -0.413773,-2.2277 0.334583,-1.52703 0.893783,-4.10254 2.12334,-8.42621 -0.339268,-0.399901 -1.16048,1.47797 -1.76175,2.50983 0,0 -1.93409,-2.13565 -1.85123,-2.86343 0.0824055,-0.728053 6.85555,-5.99355 6.85555,-5.99355 4.42748,-13.8917 2.85029,-29.9688 -1.95844,-42.7402 0.919322,0.321354 1.71297,0.686896 2.36661,1.03535l0 -0.000183736 0 -9.18679e-005z"/>
    <path id="_208906352" class="fil2" d="M106.753 37.8743l-14.9412 -20.6735c10.1762,-0.44905 16.0246,-0.00808437 23.4314,7.5882 2.98892,3.06545 5.7388,6.57361 8.18883,10.3703 0.0729431,1.48605 0.0225995,3.33977 -0.348087,5.39898 0,0 -2.01714,-1.81026 -4.29289,-2.58608 0,0 0.620659,2.06886 0.413773,5.7411 0,0 -1.60337,-1.29304 -4.34462,-2.68952 0,0 0.155165,2.79297 -0.620659,5.32733 0,0 -1.64958,-1.43792 -4.52753,-2.43983 -0.899938,-2.13088 -1.89064,-4.15261 -2.95888,-6.03691l-0.000183736 0 9.18679e-005 -9.18679e-005z"/>
    <path id="_208908416" class="fil2" d="M109.212 19.9264c1.9747,1.14495 3.94132,2.71846 6.03195,4.86257 2.98892,3.06545 5.7388,6.57333 8.18883,10.37 0.0314188,0.639676 -0.270459,4.76124 -0.3005,5.5242 -3.55611,-7.561 -7.45379,-13.9043 -13.9202,-20.7567l-9.18679e-005 -9.18679e-005z"/>
    <path id="_208907912" class="fil3" d="M106.753 37.8743c-0.314004,-0.434443 -1.26475,-1.69634 -1.23636,-1.71021 0.28525,-0.284974 6.78132,3.23788 8.64119,10.213 -0.576012,-0.287455 -3.69548,-2.20455 -4.44595,-2.46583 -0.899938,-2.13088 -1.89064,-4.15261 -2.95888,-6.03691z"/>
    <path id="_208907216" class="fil1" d="M131.231 57.1654c6.85876,-0.774079 8.62796,6.78904 2.57662,9.32018l-2.57662 -9.32018z"/>
    <path id="_208906712" class="fil4" d="M133.807 66.5252c2.2368,-3.48584 2.29394,-7.33859 -2.57395,-9.41407 0,0 -1.38509,6.83635 2.57395,9.41407z"/>
    <path id="_208907576" class="fil2" d="M133.574 66.8126c2.70817,-3.45129 2.73886,-7.71369 -2.51819,-9.80331 2.08926,1.39713 3.81316,5.82828 2.42485,9.51843l0.0933378 0.284882z"/>
    <path id="_208907096" class="fil2" d="M131.504 58.4557c-0.598336,0.372065 -0.591905,1.46437 0.0142395,2.43909 0.606328,0.97481 1.58316,1.46355 2.18149,1.09148 0.598244,-0.372065 0.591813,-1.46437 -0.0144233,-2.43918 -0.606236,-0.974718 -1.58307,-1.46346 -2.18131,-1.09139z"/>
    <path id="_208910360" class="fil4" d="M107.037 95.0655c0,0 1.11004,-2.29752 3.94968,-3.74316 2.83964,-1.44563 -1.96193,3.79479 -3.94968,3.74316z"/>
    <path id="_208910024" class="fil5" d="M127.512 108.638c-0.100044,0.200731 -0.200823,0.401646 -0.303072,0.601735 0,0 -0.853269,2.51249 -6.22993,1.89092 0,0 1.56341,-2.76651 1.45748,-3.00564 -0.105924,-0.239132 -2.72517,2.78057 -2.72517,2.78057 0,0 -3.30835,0.0115754 -6.00972,-2.31966 0,0 -0.0110241,-3.73765 -0.245655,-3.7291 -0.234539,0.00854371 -0.805681,3.05204 -0.805681,3.05204 -1.82211,-0.242439 -3.91431,-0.906736 -5.14221,-1.99473 -0.439404,-0.389244 -0.511612,-0.914453 -0.251259,-2.1012 0.111711,-0.509132 0.248043,-1.13521 0.426083,-1.90323 10.199,4.58173 16.7182,6.17756 19.8291,6.72831l-9.18679e-005 0 9.18679e-005 0z"/>
    <path id="_208909208" class="fil5" d="M126.948 60.5229c0,0 0,3.41363 4.60322,5.27561 0,0 -3.05158,-0.103443 -4.34462,-1.34476 -1.29304,-1.24132 -0.258608,-3.93084 -0.258608,-3.93084z"/>
    <path id="_208906880" class="fil1" d="M115.446 43.3913c0,0 0.98464,2.13896 1.13438,4.55995 0,0 1.04959,-3.01547 0.910227,-4.3471 -0.139364,-1.33163 -1.93419,-1.59216 -2.04461,-0.212858z"/>
    <path id="_208907600" class="fil4" d="M56.0034 18.7527l1.12162 -1.55192c-0.776467,-0.0342667 -1.52767,-0.0631132 -2.25637,-0.084151 0.372065,0.50656 0.754235,1.05483 1.13475,1.63608zm-31.9628 18.8515c-5.72006,9.29391 -9.05386,19.0744 -10.3408,29.3711 -1.89707,15.1842 1.00017,28.498 8.02778,42.2644 0,0 0.853269,2.51259 6.2303,1.89101 0,0 -1.56378,-2.76669 -1.45785,-3.00546 0.106016,-0.23904 2.72499,2.77983 2.72499,2.77983 0,0 3.30853,0.0120347 6.01009,-2.31893 0,0 0.0110241,-3.73746 0.245471,-3.72892 0.234447,0.00854371 0.986202,2.76724 0.986202,2.76724l3.53278 -0.932918c1.61394,-0.758829 2.11838,-0.879359 1.68008,-2.87831 -0.334583,-1.52703 -0.893783,-4.10254 -2.12334,-8.42621 0.339268,-0.399901 1.16048,1.47797 1.76175,2.50983 0,0 1.93409,-2.13565 1.85123,-2.86343 -0.0824055,-0.728053 -6.85555,-5.99355 -6.85555,-5.99355 -4.42748,-13.8917 -2.85029,-29.9688 1.95844,-42.7402 -2.8649,1.00164 -4.50667,2.43248 -4.50667,2.43248 -0.775824,-2.53436 -1.08533,-4.96592 -1.08533,-4.96592 -2.74125,1.39648 -3.87995,2.32812 -3.87995,2.32812 -0.826444,-3.4399 -0.515563,-5.14736 -0.515563,-5.14736 -2.24994,0.930714 -3.49263,2.19886 -3.49263,2.19886 -0.512439,-2.09532 -0.902694,-3.92891 -0.751387,-5.54175l0 0.000183736z"/>
    <path id="_208910240" class="fil2" d="M24.0149 37.5783c-5.72006,9.29391 -9.02813,19.1004 -10.3151,29.3971 -1.89707,15.1842 1.00017,28.498 8.02778,42.2644 0,0 0.0727594,0.212215 0.307298,0.498291 1.55312,-0.216808 3.12415,-0.569305 4.66478,-1.00669 -0.141477,-0.310881 -0.227189,-0.54395 -0.199629,-0.606052 0.0314188,-0.070922 0.284331,0.1446 0.624059,0.483225 2.996,-0.883585 5.85759,-2.0719 8.22061,-3.18478 0.0338074,-0.342208 0.0779958,-0.56857 0.135873,-0.566457 0.0522728,0.00192923 0.122735,0.160953 0.200364,0.406975 3.1134,-1.48615 5.29104,-2.80133 5.64951,-3.02098l-0.00312351 -0.0136883c-6.88568,2.3656 -18.5109,3.5495 -18.5109,3.5495 -11.3536,-23.356 -9.23925,-46.9973 1.27898,-66.0087 -0.00863558,-0.904072 -0.145611,-1.49717 -0.0803844,-2.19234l-9.18679e-005 0.000183736 0 9.18679e-005z"/>
    <path id="_208906784" class="fil5" d="M22.936 39.4572c-0.0289384,1.79721 0.148183,4.53304 1.25684,6.68706 0,0 0.982711,-1.34476 2.27575,-1.9137 0,0 -0.0517216,2.99985 1.60337,4.81011l1.9137 -1.55165c0,0 0.206886,2.27575 1.03443,3.46535l2.12059 -1.34476 1.70681 2.68952 1.80989 -1.17113c0.486624,-1.65215 1.02635,-3.26489 1.61485,-4.82803 -2.8649,1.00164 -4.50667,2.43248 -4.50667,2.43248 -0.775824,-2.53436 -1.08533,-4.96592 -1.08533,-4.96592 -2.74125,1.39648 -3.87995,2.32812 -3.87995,2.32812 -0.826444,-3.4399 -0.515563,-5.14736 -0.515563,-5.14736 -2.24994,0.930714 -3.49263,2.19886 -3.49263,2.19886 -0.512439,-2.09532 -0.902694,-3.92891 -0.751387,-5.54175 -0.378863,0.615515 -0.746702,1.23305 -1.10471,1.85279z"/>
    <path id="_208905848" class="fil5" d="M35.9056 47.3349c-5.75975,11.9465 -11.0808,33.4027 5.36031,58.7062 0.581524,-0.406607 0.703341,-0.907012 0.413773,-2.2277 -0.334583,-1.52703 -0.893783,-4.10254 -2.12334,-8.42621 0.339268,-0.399901 1.16048,1.47797 1.76175,2.50983 0,0 1.93409,-2.13565 1.85123,-2.86343 -0.0824055,-0.728053 -6.85555,-5.99355 -6.85555,-5.99355 -4.42748,-13.8917 -2.85029,-29.9688 1.95844,-42.7402 -0.919322,0.321354 -1.71297,0.686896 -2.36661,1.03535l0 -0.000183736 0 -9.18679e-005z"/>
    <path id="_208908536" class="fil2" d="M42.1838 37.8743l14.9412 -20.6735c-10.1762,-0.44905 -16.0246,-0.00808437 -23.4314,7.5882 -2.98892,3.06545 -5.7388,6.57361 -8.18883,10.3703 -0.0729431,1.48605 -0.0225995,3.33977 0.348087,5.39898 0,0 2.01714,-1.81026 4.29289,-2.58608 0,0 -0.620659,2.06886 -0.413773,5.7411 0,0 1.60337,-1.29304 4.34462,-2.68952 0,0 -0.155165,2.79297 0.620659,5.32733 0,0 1.64958,-1.43792 4.52753,-2.43983 0.899938,-2.13088 1.89064,-4.15261 2.95888,-6.03691l0.000183736 0 -9.18679e-005 -9.18679e-005z"/>
    <path id="_208909184" class="fil2" d="M43.2707 36.3704l0.461544 -0.638666c0.936042,-7.17984 -2.02596,-14.7164 -2.77046,-16.4658 -0.663194,0.325029 -1.32235,0.694797 -1.9826,1.11445 1.06723,2.59527 3.67233,9.45844 4.29152,15.9901l0 9.18679e-005 0 -9.18679e-005z"/>
    <path id="_208907864" class="fil2" d="M105.514 37.0698c-1.98095,-5.6327 -0.253188,-12.6812 2.02495,-18.0338 0.663194,0.325029 1.32235,0.694797 1.9826,1.11445 -1.06723,2.59527 -3.38836,10.3878 -4.00755,16.9194l0 -9.18679e-005z"/>
    <path id="_208909952" class="fil6" d="M47.1088 17.007c0.390439,-0.0988498 0.794565,-0.250156 1.21008,-0.502058 5.38272,18.8823 20.752,34.1905 23.9491,37.223l-0.239316 0.962684c-18.7176,-13.2583 -24.3283,-35.1687 -24.9198,-37.6837l0 -9.18679e-005 -9.18679e-005 9.18679e-005z"/>
    <path id="_208910000" class="fil2" d="M39.7258 19.9264c-1.9747,1.14495 -3.94132,2.71846 -6.03195,4.86257 -2.98892,3.06545 -5.7388,6.57333 -8.18883,10.37 -0.0314188,0.639676 0.0117591,4.34214 0.377393,5.44069 1.81825,-6.32492 6.68431,-14.3529 13.8433,-20.6732l9.18679e-005 -9.18679e-005z"/>
    <path id="_208908392" class="fil3" d="M42.1838 37.8743l0.373259 -0.516481c-0.0982068,-0.0552126 -0.195311,-0.116305 -0.294437,-0.164811 0,0 -5.4327,2.09045 -7.14806,7.68677 0.576012,-0.287455 3.35988,-0.707291 4.11035,-0.968563 0.899938,-2.13088 1.89064,-4.15261 2.95888,-6.03691z"/>
    <path id="_208906736" class="fil1" d="M17.7056 57.1654c-6.85876,-0.774079 -8.62796,6.78904 -2.57662,9.32018l2.57662 -9.32018z"/>
    <path id="_208907720" class="fil4" d="M15.1301 66.5252c-2.2368,-3.48584 -2.29394,-7.33859 2.57395,-9.41407 0,0 1.38509,6.83635 -2.57395,9.41407z"/>
    <path id="_208909976" class="fil2" d="M15.3625 66.8126c-2.70817,-3.45129 -2.73886,-7.71369 2.51819,-9.80331 -2.08926,1.39713 -3.81316,5.82828 -2.42485,9.51843l-0.0933378 0.284882z"/>
    <path id="_208907288" class="fil2" d="M17.433 58.4557c0.598336,0.372065 0.591905,1.46437 -0.0142395,2.43909 -0.606328,0.97481 -1.58316,1.46355 -2.18149,1.09148 -0.598244,-0.372065 -0.591813,-1.46437 0.0144233,-2.43918 0.606236,-0.974718 1.58307,-1.46346 2.18131,-1.09139z"/>
    <path id="_208906592" class="fil4" d="M41.8998 95.0655c0,0 -1.11004,-2.29752 -3.94968,-3.74316 -2.83964,-1.44563 1.96193,3.79479 3.94968,3.74316z"/>
    <path id="_208907480" class="fil5" d="M21.4245 108.638c0.100044,0.200731 0.200823,0.401646 0.303072,0.601735 0,0 0.853269,2.51249 6.22993,1.89092 0,0 -1.56341,-2.76651 -1.45748,-3.00564 0.105924,-0.239132 2.72517,2.78057 2.72517,2.78057 0,0 3.30835,0.0115754 6.00972,-2.31966 0,0 0.0110241,-3.73765 0.245655,-3.7291 0.234539,0.00854371 0.805681,3.05204 0.805681,3.05204 1.82211,-0.242439 3.91431,-0.906736 5.14221,-1.99473 0.439404,-0.389244 0.511612,-0.914453 0.251259,-2.1012 -0.111711,-0.509132 -0.248043,-1.13521 -0.426083,-1.90323 -10.199,4.58173 -16.7182,6.17756 -19.8291,6.72831l9.18679e-005 0 -9.18679e-005 0z"/>
    <path id="_208908752" class="fil5" d="M21.9889 60.5229c0,0 0,3.41363 -4.60322,5.27561 0,0 3.05158,-0.103443 4.34462,-1.34476 1.29304,-1.24132 0.258608,-3.93084 0.258608,-3.93084z"/>
    <path id="_208905896" class="fil1" d="M33.4913 43.3913c0,0 -0.98464,2.13896 -1.13438,4.55995 0,0 -1.04959,-3.01547 -0.910227,-4.3471 0.139364,-1.33163 1.93419,-1.59216 2.04461,-0.212858z"/>
    <path id="_208908968" class="fil1" d="M66.9511 56.1728c-2.7949,-2.48016 -5.36077,-5.24437 -7.71709,-8.14198 -7.4967,-9.21885 -12.9374,-20.0529 -15.9333,-31.5469 28.2016,-7.96706 54.8988,-1.85316 64.1372,0.797689l-1.385 2.97863c-2.10791,4.53322 -4.75426,8.92129 -7.47952,13.1089 -5.84298,8.97834 -12.8693,17.5549 -21.1218,24.424 -0.997869,0.830394 -2.5012,2.1476 -3.82731,2.21934 -2.32022,0.1254 -5.03868,-2.38902 -6.67356,-3.8398l9.18679e-005 0 0 9.18679e-005 0.000275604 0z"/>
    <path id="_208909544" class="fil2" d="M67.8044 55.2107c-2.73178,-2.42412 -5.27046,-5.16013 -7.57285,-7.9914 -7.38508,-9.08169 -12.2277,-18.4154 -15.1764,-29.7397 24.381,-5.15994 44.6621,-2.52012 56.2484,-0.00661449l4.30456 0.693235 -0.72153 1.55174c-2.03111,4.36823 -4.77419,8.92836 -7.39123,12.9496 -5.758,8.8477 -12.7376,17.3706 -20.8666,24.1368 -0.684416,0.569581 -2.17846,1.87521 -3.07399,1.92362 -1.59887,0.0864477 -3.7427,-1.73584 -5.75047,-3.51753l0.000183736 0 -0.000183736 9.18679e-005 9.18679e-005 9.18679e-005z"/>
    <polygon id="_208910456" class="fil2" points="93.1657,39.0657 90.2718,38.0112 90.9408,36.7252 "/>
    <path id="_208912136" class="fil2" d="M48.0116 17.0423c7.20263,26.2318 24.5306,39.6528 25.2371,39.6528 0.434903,-0.35709 0.95561,-0.6925 1.38169,-1.05841 6.34724,-5.45245 12.0701,-11.7067 16.3218,-17.6523 7.42283,-10.3802 11.1021,-19.503 11.1021,-19.503 -13.7783,-2.1396 -54.6924,-3.8059 -54.0428,-1.43929l0 9.18679e-005 0.000183736 0 -0.000183736 9.18679e-005z"/>
    <path id="_208911176" class="fil1" d="M48.0116 17.0065c7.20263,25.4184 24.5306,38.423 25.2371,38.423 0.434903,-0.345974 0.95561,-0.670911 1.38169,-1.02561 17.4289,-14.5073 27.8868,-36.9802 27.8868,-36.9802 -13.7783,-2.07327 -55.1555,-2.71038 -54.5058,-0.417172l9.18679e-005 0 0.000183736 0 -9.18679e-005 0z"/>
    <path id="_208909424" class="fil4" d="M49.7569 16.2269c2.11682,8.27491 5.46504,14.9358 8.98597,20.465 4.99036,1.61219 16.9729,4.4273 30.0648,-0.145611 6.85831,-9.3403 10.5539,-17.2506 10.5539,-17.2506 0,0 -19.855,-3.82189 -25.5036,-4.38678 -5.64859,-0.564896 -24.1007,1.31803 -24.1007,1.31803l-9.18679e-005 0 -9.18679e-005 0 -9.18679e-005 0z"/>
    <path id="_208908728" class="fil5" d="M53.9452 27.9718c1.48385,3.19783 3.12121,6.08744 4.79762,8.7201 0.564988,0.182541 1.22028,0.380241 1.95587,0.581156 -2.44295,-3.50816 -3.97402,-6.23167 -3.97402,-6.23167 -1.06457,-1.44104 -1.98324,-2.42145 -2.77946,-3.06958zm33.4905 9.0274c0.455757,-0.142395 0.913075,-0.292599 1.37177,-0.452817 2.96127,-4.033 5.3321,-7.79885 7.07126,-10.7769 -0.883769,0.501047 -2.0143,1.77204 -3.45423,4.07287 -1.6776,2.68052 -3.35823,5.05742 -4.98879,7.15688z"/>
    <path id="_208912376" class="fil5" d="M49.7569 16.2269c1.42432,5.56793 3.406,10.4047 5.62287,14.658 11.0298,6.66263 26.2222,6.68807 37.2867,0.0840591 4.37447,-6.70792 7.77873,-13.8418 7.77873,-13.8418 -17.7185,-3.4106 -32.1537,-3.5664 -50.6884,-0.900305l0 9.18679e-005 9.18679e-005 0z"/>
    <path id="_208911320" class="fil2" d="M59.6769 38.379c6.54494,9.76014 13.3611,14.7618 13.7758,14.7618 5.58887,-4.44613 10.3545,-9.74571 14.2182,-14.8165 -11.8926,3.7912 -22.7171,1.62799 -27.994,0.0548451l0 -0.000183736z"/>
    <path id="_208906520" class="fil2" d="M85.8016 38.8734c-10.0951,2.73004 -19.2302,1.33236 -24.578,-0.0628376 3.59112,1.76552 13.4377,5.4813 24.578,0.0628376z"/>
    <path id="_208913168" class="fil3" d="M59.6769 38.379c6.54494,9.76014 13.3611,14.7618 13.7758,14.7618 5.58887,-4.44613 10.3545,-9.74571 14.2182,-14.8165 -0.568754,0.181347 -1.13521,0.348639 -1.69864,0.503436 -6.98077,8.45782 -12.6957,11.7128 -12.6957,11.7128 -4.22693,-2.62274 -8.30302,-7.38884 -11.3528,-11.5526 -0.830853,-0.203671 -1.58288,-0.410833 -2.2469,-0.608809l0 -0.000183736 9.18679e-005 0z"/>
    <path id="_208912832" class="fil1" d="M87.0344 40.2481c0,0 -3.46526,2.74125 -13.913,3.67224 0,0 6.72381,0.568938 12.8786,-1.44821l0.258608 -0.672381 0.775824 -1.55165z"/>
    <path id="_208912448" class="fil1" d="M60.0357 40.1962c0,0 2.66665,2.74125 10.7065,3.67224 0,0 -5.17409,0.568938 -9.91043,-1.44821l-0.198986 -0.672381 -0.597049 -1.55165z"/>
    <path id="_208909688" class="fil1" d="M110.222 19.4475c0,0 -3.53857,6.05198 -3.71734,17.7102 -0.00992173,0.643351 -1.00173,-0.293702 -1.12694,0.336053 0,0 -0.479091,-11.0195 3.70319,-19.2279l1.30397 0.507203 -0.162882 0.674402 0 9.18679e-005z"/>
    <path id="_208908944" class="fil1" d="M110.386 27.2643c0,0 -2.20657,-2.77744 -6.16029,-3.19057 1.61164,2.0538 3.49713,3.26958 6.16029,3.19057z"/>
    <path id="_208913096" class="fil1" d="M109.446 30.9523c0,0 -3.52488,-0.397972 -6.6087,2.11048 2.59233,0.308492 4.78457,-0.168578 6.6087,-2.11048z"/>
    <path id="_208912424" class="fil1" d="M38.0506 20.7417c0,0 4.21086,6.00017 4.38972,17.6585 0.00982986,0.643351 1.00173,-0.293702 1.12694,0.336053 0,0 0.686069,-10.8644 -4.11688,-19.1762l-0.890292 0.455481 -0.509499 0.726124 0 9.18679e-005z"/>
    <path id="_208911680" class="fil1" d="M38.2104 27.8101c0,0 1.04665,-3.38937 4.58007,-5.21084 -0.755246,2.49899 -2.07015,4.31678 -4.58007,5.21084z"/>
    <path id="_208911152" class="fil1" d="M39.5502 32.8151c0,0 3.52488,-0.397972 6.6087,2.11048 -2.59233,0.308492 -4.78457,-0.168578 -6.6087,-2.11048z"/>
    <path id="_208908584" class="fil1" d="M91.2752 33.3691c0,0 -2.68952,2.06886 -10.4994,3.51707 0,0 6.2065,-0.258608 9.98218,-1.55165l0.620659 -0.672381 -0.103443 -1.29304z"/>
    <path id="_208910672" class="fil1" d="M56.5703 33.3691c0,0 2.68952,2.06886 10.4995,3.51707 0,0 -6.20659,-0.258608 -9.98227,-1.55165l-0.620659 -0.672381 0.103443 -1.29304z"/>
    <path id="_208910216" class="fil7" d="M20.5806 72.2399c-0.176662,0.104729 -0.404954,0.0463014 -0.509683,-0.130452 -0.104729,-0.176662 -0.0463014,-0.405046 0.130452,-0.509775 0.531364,-0.315199 1.19768,-0.329438 1.79776,-0.118969 0.367839,0.129074 0.714089,0.343586 0.989693,0.624794 0.283229,0.288833 0.493422,0.647669 0.580421,1.05712 0.120898,0.568754 0.00661449,1.22442 -0.477162,1.90984 -0.543582,0.77022 -1.1681,0.979128 -1.73079,0.866682 -0.364899,-0.0729431 -0.69103,-0.285525 -0.943208,-0.56903 -0.241888,-0.272021 -0.419561,-0.615331 -0.498016,-0.963051 -0.135964,-0.602745 0.0130452,-1.22148 0.600908,-1.56938 0.573807,-0.339544 1.04114,-0.322916 1.38702,-0.125583 0.00927866,0.00523647 0.018098,0.0107485 0.0267336,0.01672 0.158013,0.0963694 0.283964,0.229486 0.377761,0.382813 0.0926028,0.151215 0.154246,0.322548 0.185206,0.495627 0.0812112,0.453092 -0.0493331,0.947434 -0.383457,1.18969 -0.16674,0.120347 -0.399533,0.0829567 -0.51988,-0.0837835 -0.120439,-0.166648 -0.0830486,-0.399533 0.0836916,-0.51988 0.0936134,-0.0677985 0.120806,-0.258884 0.0859883,-0.452909 -0.0156175,-0.087642 -0.0451071,-0.171334 -0.0881013,-0.241613 -0.0334399,-0.0547533 -0.0753317,-0.100963 -0.123838,-0.132198l-0.0125859 -0.00679822c-0.129626,-0.0738618 -0.338074,-0.0604491 -0.641881,0.119428 -0.261364,0.154522 -0.32117,0.458329 -0.252269,0.763238 0.0509867,0.226454 0.168578,0.452174 0.32953,0.63297 0.150571,0.169496 0.335869,0.29462 0.532374,0.333848 0.290119,0.0579686 0.635175,-0.0824974 0.97628,-0.565722 0.349557,-0.49526 0.437016,-0.94679 0.356723,-1.32428 -0.0564988,-0.265866 -0.195219,-0.501139 -0.38263,-0.692316 -0.194944,-0.198894 -0.441425,-0.351119 -0.704351,-0.443354 -0.40477,-0.142028 -0.841142,-0.140374 -1.17269,0.056315zm2.10947 30.3699c0.000826811,-0.175651 4.83289,0.736413 10.0881,-3.20518 0.43527,-0.326866 0.545695,-0.141385 0.201834,0.24593 -5.15498,5.80798 -10.4805,3.21804 -10.2899,2.95925zm-0.586209 -2.6841c0.000459339,-0.176019 4.83253,0.736505 10.0876,-3.20536 0.435546,-0.32659 0.546063,-0.141568 0.202477,0.245838 -5.15517,5.80853 -10.4809,3.21813 -10.2901,2.95952zm-0.231783 -30.5528c0.183368,0.132106 0.225168,0.389061 0.0926947,0.572796 -0.132565,0.183736 -0.389152,0.224617 -0.572704,0.0928784 -0.844174,-0.609911 -1.02038,-1.42992 -0.820472,-2.16615 0.0967369,-0.35608 0.284974,-0.689193 0.528608,-0.964153 0.2474,-0.278727 0.552861,-0.499669 0.879268,-0.626172 0.628928,-0.244185 1.32722,-0.162331 1.8674,0.468342 0.0503436,0.0587954 0.100963,0.124757 0.149928,0.196873 0.23068,0.336512 0.376566,0.739077 0.403116,1.11326 0.0298571,0.428104 -0.0897549,0.830118 -0.404035,1.09938 -0.00633888,0.00523647 -0.0124022,0.0105648 -0.0191085,0.0152501 -0.0231507,0.018741 -0.0485981,0.0379414 -0.0759747,0.0564988 -0.54643,0.374178 -1.08064,0.323099 -1.47815,0.0857127 -0.147356,-0.0873664 -0.274593,-0.20165 -0.375372,-0.32953 -0.102525,-0.130177 -0.179602,-0.277165 -0.224801,-0.428472 -0.10822,-0.365634 -0.0345423,-0.745784 0.292048,-0.99741 0.179234,-0.138904 0.437107,-0.105648 0.575736,0.0729431 0.138996,0.179326 0.106016,0.437291 -0.0726675,0.576471 -0.0232426,0.0174549 -0.0231507,0.0629295 -0.0071657,0.11557 0.0145151,0.0498843 0.0427186,0.10179 0.0823136,0.151766 0.0408812,0.0516298 0.092511,0.0979312 0.151215,0.133576 0.150204,0.0886525 0.360949,0.100687 0.593191,-0.057693 0.00496087,-0.00349098 0.0100136,-0.0077169 0.0155257,-0.012494l0.0077169 -0.00679822c0.0971962,-0.0832323 0.132473,-0.237938 0.119612,-0.41708 -0.0165362,-0.233069 -0.110333,-0.489197 -0.26017,-0.706832 -0.0276522,-0.0396869 -0.0599897,-0.0821299 -0.0971044,-0.126318 -0.273674,-0.318782 -0.626998,-0.360581 -0.945504,-0.236835 -0.206427,0.0803844 -0.40183,0.221861 -0.561864,0.402014 -0.163249,0.18392 -0.288649,0.404494 -0.351854,0.637931 -0.116121,0.429115 -0.00505273,0.913902 0.508581,1.28468zm8.56852 16.2204c0.131647,0.0945321 0.161596,0.278543 0.0665124,0.410374 -0.0951751,0.131922 -0.279095,0.161228 -0.410649,0.0666042 -0.605318,-0.437291 -0.731544,-1.02488 -0.588138,-1.55275 0.0690847,-0.255209 0.20413,-0.493974 0.378771,-0.691306 0.177672,-0.199629 0.396594,-0.358285 0.630489,-0.448775 0.451163,-0.175192 0.951384,-0.116397 1.33879,0.335777 0.0360122,0.0419836 0.0721163,0.0892956 0.107485,0.141109 0.165362,0.241245 0.270092,0.529802 0.288833,0.797873 0.0216808,0.306839 -0.0643075,0.595396 -0.289476,0.78841 -0.004869,0.00349098 -0.00900305,0.00753317 -0.0137802,0.0107485 -0.0165362,0.0136883 -0.0350017,0.0275604 -0.0546614,0.0406056 -0.391817,0.268162 -0.774263,0.231599 -1.05951,0.0615515 -0.105372,-0.0628376 -0.197057,-0.144508 -0.269081,-0.236284 -0.0734024,-0.0932459 -0.128707,-0.198894 -0.161044,-0.307022 -0.0777202,-0.262283 -0.0248043,-0.534763 0.209551,-0.715375 0.128248,-0.0996767 0.313086,-0.0756991 0.412579,0.052181 0.0996767,0.128799 0.075791,0.313729 -0.0520891,0.413497 -0.0168118,0.0124022 -0.0168118,0.045199 -0.0051446,0.0829567 0.0103811,0.0357366 0.0305001,0.073035 0.0588873,0.108588 0.0293977,0.0370228 0.0661449,0.0705545 0.108588,0.0957263 0.107394,0.0636644 0.258516,0.0722082 0.425165,-0.0412487 0.00321538,-0.00266417 0.00725756,-0.00542021 0.0110241,-0.00881932l0.00560394 -0.00477713c0.0696359,-0.0597141 0.0950833,-0.170874 0.0854371,-0.299122 -0.0116672,-0.1672 -0.0788226,-0.35066 -0.186492,-0.506927 -0.0192923,-0.0283872 -0.0427186,-0.0587954 -0.0692684,-0.0904899 -0.196414,-0.228292 -0.449877,-0.258516 -0.677893,-0.169956 -0.147907,0.0577849 -0.288098,0.159207 -0.402933,0.288465 -0.116948,0.13183 -0.206886,0.290027 -0.252453,0.457226 -0.0829567,0.307757 -0.00330724,0.65511 0.364899,0.921159zm-11.2225 -0.750193c0.172252,-0.0469445 0.349006,0.054937 0.395951,0.22673 0.0468526,0.171701 -0.0547533,0.349006 -0.226546,0.395675 -1.20549,0.32806 -2.10093,-0.122827 -2.6345,-0.859057 -0.263385,-0.363338 -0.434811,-0.796219 -0.507938,-1.23673 -0.0732187,-0.441517 -0.04869,-0.895896 0.0805681,-1.30048 0.240878,-0.754511 0.829567,-1.3308 1.80392,-1.35909 0.0963694,-0.00293977 0.196965,0.000183736 0.300684,0.00881932 0.491677,0.0384926 0.980139,0.206335 1.34981,0.4643 0.404862,0.282586 0.677709,0.675964 0.690938,1.1399 0.000275604,0.00698196 0.000367472,0.0141477 0.000275604,0.0211296 0.000275604,0.0362878 -0.000918679,0.073678 -0.00404219,0.112079 -0.0607247,0.759472 -0.487635,1.19943 -0.983078,1.38224 -0.185573,0.0690847 -0.379506,0.100412 -0.565631,0.0985742 -0.187962,-0.00238857 -0.372616,-0.0393195 -0.536417,-0.106934 -0.382262,-0.15691 -0.652813,-0.47413 -0.641973,-0.912248 0.00413406,-0.178959 0.152409,-0.319976 0.331367,-0.315382 0.177856,0.00376658 0.319149,0.152776 0.315015,0.330816 -0.00321538,0.135689 0.0974718,0.240602 0.239683,0.299214 0.087642,0.0360122 0.190626,0.0560394 0.300316,0.0572337 0.111528,0.00137802 0.225995,-0.0171793 0.333021,-0.0566825 0.282402,-0.104362 0.527414,-0.366094 0.564344,-0.829108 0.000826811,-0.0158013 0.00174549,-0.031327 0.00174549,-0.0474957l-0.000734943 -0.0137802c-0.00689009,-0.239408 -0.17115,-0.458421 -0.415151,-0.629019 -0.279187,-0.194576 -0.652721,-0.321721 -1.03223,-0.351854 -0.0727594,-0.00542021 -0.149377,-0.00780877 -0.229027,-0.00542021 -0.651527,0.0189248 -1.04573,0.40477 -1.20751,0.909033 -0.0965532,0.304266 -0.114192,0.653273 -0.0567744,0.998053 0.0576012,0.346342 0.190167,0.682762 0.392735,0.962867 0.387682,0.534947 1.04619,0.860343 1.94117,0.616617zm15.237 -9.12781c-0.0495168,-0.191453 0.0659611,-0.385937 0.256954,-0.434811 0.191361,-0.0494249 0.385753,0.0655937 0.434903,0.256495 0.344596,1.34054 -0.16821,2.32609 -0.991622,2.90459 -0.40624,0.28626 -0.888546,0.469904 -1.37673,0.543674 -0.490942,0.0742293 -0.993735,0.0402381 -1.43929,-0.109231 -0.83168,-0.277992 -1.46116,-0.93843 -1.47769,-2.01825 -0.00211296,-0.106291 0.00339911,-0.218186 0.0140558,-0.332745 0.0504355,-0.543858 0.243542,-1.08174 0.535222,-1.48743 0.319333,-0.444089 0.758829,-0.740639 1.27283,-0.747437 0.00780877,-0.00101055 0.0156175,-0.000643075 0.0234263,-0.000367472 0.0408812,0.000183736 0.082038,0.00183736 0.12393,0.00643075 0.840316,0.0786389 1.32115,0.557914 1.51573,1.1093 0.0734024,0.207162 0.105097,0.421582 0.100412,0.627366 -0.00542021,0.208632 -0.0488737,0.412211 -0.12641,0.593007 -0.180061,0.420847 -0.53513,0.715559 -1.01955,0.696818 -0.19871,-0.00780877 -0.352865,-0.173998 -0.344964,-0.372157 0.00698196,-0.196597 0.173906,-0.350384 0.371238,-0.343127 0.150388,0.0051446 0.26853,-0.104178 0.335685,-0.260905 0.0406056,-0.0967369 0.0645831,-0.210194 0.0675229,-0.331551 0.00339911,-0.12347 -0.0152501,-0.251167 -0.0571418,-0.370136 -0.111528,-0.313821 -0.398247,-0.590159 -0.910503,-0.637379 -0.0176386,-0.00101055 -0.0348179,-0.0022967 -0.0522728,-0.00220483l-0.0149745 -0.000183736c-0.265223,0.00404219 -0.510326,0.182541 -0.702514,0.450336 -0.220575,0.306196 -0.366369,0.718682 -0.406056,1.13778 -0.00624702,0.0805681 -0.0109323,0.165454 -0.00909492,0.253739 0.0109323,0.721439 0.431779,1.16443 0.987304,1.3511 0.33642,0.111528 0.722541,0.135781 1.10545,0.0773528 0.3841,-0.0579686 0.758186,-0.199353 1.07182,-0.42002 0.598519,-0.42149 0.968471,-1.14495 0.712344,-2.14006zm-9.28564 2.89715c0.157921,0.0829567 0.218278,0.277992 0.135781,0.435821 -0.0826811,0.15737 -0.277992,0.218094 -0.435362,0.135413 -1.10636,-0.580329 -1.45537,-1.52014 -1.34495,-2.42283 0.0546614,-0.445376 0.22379,-0.879084 0.470639,-1.25161 0.246482,-0.373259 0.573991,-0.689652 0.944126,-0.897917 0.689744,-0.388326 1.51352,-0.409639 2.24654,0.232793 0.0722082,0.0635726 0.144049,0.134586 0.214236,0.211388 0.333756,0.36297 0.577298,0.818359 0.672197,1.25905 0.104178,0.482949 0.0362878,0.95662 -0.269724,1.30553 -0.00477713,0.0051446 -0.00946239,0.0106567 -0.0143314,0.0153419 -0.0245287,0.027101 -0.0508948,0.053559 -0.0791901,0.0793739 -0.561497,0.515471 -1.17416,0.546338 -1.66116,0.343127 -0.182909,-0.0758829 -0.346434,-0.184838 -0.481296,-0.312902 -0.13624,-0.129809 -0.246206,-0.282402 -0.320343,-0.443446 -0.172987,-0.375372 -0.154981,-0.791626 0.150847,-1.10563 0.125124,-0.128064 0.329806,-0.130361 0.457594,-0.00523647 0.127788,0.124297 0.130085,0.329346 0.00542021,0.456951 -0.0947158,0.0972881 -0.0924191,0.242715 -0.0282034,0.38217 0.0396869,0.0861721 0.10179,0.171058 0.181347,0.246573 0.0807519,0.0767097 0.176938,0.141385 0.282402,0.185481 0.277808,0.115478 0.635634,0.0906736 0.978026,-0.223515 0.0109323,-0.0107485 0.0221402,-0.0216808 0.0332562,-0.0334399l0.00900305 -0.0109323c0.157737,-0.179785 0.186584,-0.451623 0.12393,-0.742568 -0.0719326,-0.332837 -0.259067,-0.680282 -0.516298,-0.960571 -0.0495168,-0.0538346 -0.104454,-0.107577 -0.164168,-0.160218 -0.490115,-0.42985 -1.04151,-0.41561 -1.50314,-0.155992 -0.2779,0.156635 -0.528332,0.400544 -0.721071,0.692041 -0.193474,0.292324 -0.325764,0.629754 -0.367931,0.972605 -0.0802925,0.655937 0.180337,1.34237 1.00182,1.77314zm3.67288 -7.08798c0.157921,0.0829567 0.218278,0.277992 0.135781,0.435821 -0.0826811,0.15737 -0.277992,0.218094 -0.435362,0.135413 -1.10636,-0.580329 -1.45537,-1.52014 -1.34495,-2.42283 0.0546614,-0.445376 0.22379,-0.879084 0.470639,-1.25161 0.246482,-0.373259 0.573991,-0.689652 0.944126,-0.897917 0.689744,-0.388326 1.51352,-0.409639 2.24654,0.232793 0.0722082,0.0635726 0.144049,0.134586 0.214236,0.211388 0.333756,0.36297 0.577298,0.818359 0.672197,1.25905 0.104178,0.482949 0.0362878,0.95662 -0.269724,1.30553 -0.00477713,0.0051446 -0.00946239,0.0106567 -0.0143314,0.0153419 -0.0245287,0.027101 -0.0508948,0.053559 -0.0791901,0.0793739 -0.561497,0.515471 -1.17416,0.546338 -1.66116,0.343127 -0.182909,-0.0758829 -0.346434,-0.184838 -0.481296,-0.312902 -0.13624,-0.129809 -0.246206,-0.282402 -0.320343,-0.443446 -0.172987,-0.375372 -0.154981,-0.791626 0.150847,-1.10563 0.125124,-0.128064 0.329806,-0.130361 0.457594,-0.00523647 0.127788,0.124297 0.130085,0.329346 0.00542021,0.456951 -0.0947158,0.0972881 -0.0924191,0.242715 -0.0282034,0.38217 0.0396869,0.0861721 0.10179,0.171058 0.181347,0.246573 0.0807519,0.0767097 0.176938,0.141385 0.282402,0.185481 0.277808,0.115478 0.635634,0.0906736 0.978026,-0.223515 0.0109323,-0.0107485 0.0221402,-0.0216808 0.0332562,-0.0334399l0.00900305 -0.0109323c0.157737,-0.179785 0.186584,-0.451623 0.12393,-0.742568 -0.0719326,-0.332837 -0.259067,-0.680282 -0.516298,-0.960571 -0.0495168,-0.0538346 -0.104454,-0.107577 -0.164168,-0.160218 -0.490115,-0.42985 -1.04151,-0.41561 -1.50314,-0.155992 -0.2779,0.156635 -0.528332,0.400544 -0.721071,0.692041 -0.193474,0.292324 -0.325764,0.629754 -0.367931,0.972605 -0.0802925,0.655937 0.180337,1.34237 1.00182,1.77314zm-11.4557 -0.308768c-0.0634807,-0.195862 0.0441885,-0.40624 0.239683,-0.469353 0.195954,-0.0632051 0.405964,0.0440966 0.469445,0.239959 0.19081,0.588598 0.0576012,1.24242 -0.280197,1.78251 -0.207346,0.330908 -0.493147,0.621762 -0.828465,0.82874 -0.344596,0.213134 -0.741374,0.339452 -1.16066,0.33394 -0.582259,-0.0071657 -1.19759,-0.263569 -1.76037,-0.886984 -0.63251,-0.700676 -0.699023,-1.35698 -0.465127,-1.88182 0.152041,-0.340187 0.43132,-0.612024 0.764157,-0.795576 0.318782,-0.17657 0.693051,-0.274685 1.05023,-0.274593 0.61873,0.000183736 1.19033,0.282126 1.40053,0.93301 0.205233,0.635634 0.0859883,1.08808 -0.183001,1.3827 -0.00734943,0.00790064 -0.0145151,0.0151582 -0.0224158,0.0224158 -0.129074,0.132749 -0.286628,0.227189 -0.457226,0.28479 -0.168026,0.0565906 -0.349098,0.0794657 -0.525117,0.0714732 -0.460442,-0.0204865 -0.914361,-0.257046 -1.07715,-0.637012 -0.0807519,-0.189248 0.00707383,-0.408445 0.196414,-0.489472 0.189156,-0.0807519 0.408353,0.00734943 0.489288,0.196689 0.0453827,0.106107 0.226271,0.174733 0.423235,0.183736 0.0892037,0.00376658 0.177581,-0.00633888 0.255668,-0.0329806 0.0607247,-0.0203028 0.11511,-0.0511704 0.156359,-0.0918679l0.00946239 -0.0106567c0.100871,-0.110241 0.133484,-0.316852 0.0249881,-0.653273 -0.0930622,-0.2892 -0.377118,-0.414508 -0.69002,-0.4146 -0.232609,-0.000183736 -0.478907,0.0650425 -0.69103,0.182174 -0.19917,0.109966 -0.361776,0.263202 -0.443538,0.446662 -0.120439,0.270459 -0.0596223,0.638757 0.337431,1.07825 0.406699,0.450428 0.828648,0.635634 1.21504,0.640411 0.272205,0.00330724 0.53265,-0.0802925 0.760758,-0.221493 0.237019,-0.146254 0.440047,-0.353691 0.588046,-0.589976 0.228016,-0.363797 0.32264,-0.790523 0.203579,-1.15781zm10.1374 10.2409c-0.0634807,-0.195862 0.0441885,-0.40624 0.239683,-0.469353 0.195954,-0.0632051 0.405964,0.0440966 0.469445,0.239959 0.19081,0.588598 0.0576012,1.24242 -0.280197,1.78251 -0.207346,0.330908 -0.493147,0.621762 -0.828465,0.82874 -0.344596,0.213134 -0.741374,0.339452 -1.16066,0.33394 -0.582259,-0.0071657 -1.19759,-0.263569 -1.76037,-0.886984 -0.63251,-0.700676 -0.699023,-1.35698 -0.465127,-1.88182 0.152041,-0.340187 0.43132,-0.612024 0.764157,-0.795576 0.318782,-0.17657 0.693051,-0.274685 1.05023,-0.274593 0.61873,0.000183736 1.19033,0.282126 1.40053,0.93301 0.205233,0.635634 0.0859883,1.08808 -0.183001,1.3827 -0.00734943,0.00790064 -0.0145151,0.0151582 -0.0224158,0.0224158 -0.129074,0.132749 -0.286628,0.227189 -0.457226,0.28479 -0.168026,0.0565906 -0.349098,0.0794657 -0.525117,0.0714732 -0.460442,-0.0204865 -0.914361,-0.257046 -1.07715,-0.637012 -0.0807519,-0.189248 0.00707383,-0.408445 0.196414,-0.489472 0.189156,-0.0807519 0.408353,0.00734943 0.489288,0.196689 0.0453827,0.106107 0.226271,0.174733 0.423235,0.183736 0.0892037,0.00376658 0.177581,-0.00633888 0.255668,-0.0329806 0.0607247,-0.0203028 0.11511,-0.0511704 0.156359,-0.0918679l0.00946239 -0.0106567c0.100871,-0.110241 0.133484,-0.316852 0.0249881,-0.653273 -0.0930622,-0.2892 -0.377118,-0.414508 -0.69002,-0.4146 -0.232609,-0.000183736 -0.478907,0.0650425 -0.69103,0.182174 -0.19917,0.109966 -0.361776,0.263202 -0.443538,0.446662 -0.120439,0.270459 -0.0596223,0.638757 0.337431,1.07825 0.406699,0.450428 0.828648,0.635634 1.21504,0.640411 0.272205,0.00330724 0.53265,-0.0802925 0.760758,-0.221493 0.237019,-0.146254 0.440047,-0.353691 0.588046,-0.589976 0.228016,-0.363797 0.32264,-0.790523 0.203579,-1.15781zm-10.7298 9.23043c-0.0583361,0.197057 -0.265131,0.309687 -0.462187,0.251626 -0.196781,-0.058428 -0.309962,-0.265314 -0.251718,-0.462463 0.174549,-0.592456 0.652905,-1.05666 1.23581,-1.31095 0.357366,-0.1559 0.757083,-0.234631 1.15019,-0.216349 0.404219,0.018741 0.802558,0.138537 1.14495,0.379231 0.475784,0.334124 0.838662,0.891945 0.950925,1.72363 0.126226,0.934205 -0.188789,1.51242 -0.677618,1.81301 -0.316944,0.195219 -0.700401,0.261272 -1.07835,0.225719 -0.362143,-0.0349098 -0.726124,-0.165178 -1.02038,-0.366277 -0.509683,-0.348914 -0.822126,-0.903704 -0.628376,-1.55863 0.189064,-0.63986 0.542572,-0.945504 0.93053,-1.03645 0.0101055,-0.0025723 0.0204865,-0.00413406 0.0307757,-0.00606328 0.181439,-0.0369309 0.36444,-0.0251718 0.537243,0.0232426 0.170874,0.0477713 0.332745,0.131187 0.473211,0.236927 0.367931,0.27643 0.6089,0.727594 0.528975,1.13246 -0.0400544,0.201742 -0.236009,0.332929 -0.437659,0.292507 -0.201558,-0.0400544 -0.332745,-0.236009 -0.292691,-0.437567 0.0224158,-0.113273 -0.0875501,-0.271745 -0.245195,-0.390255 -0.0714732,-0.053559 -0.149653,-0.0948995 -0.229394,-0.117315 -0.0617352,-0.0169956 -0.123746,-0.0223239 -0.18052,-0.0122184l-0.0138721 0.00367472c-0.145151,0.0339911 -0.288649,0.185849 -0.388693,0.524198 -0.0863558,0.291405 0.0766178,0.554423 0.334858,0.730901 0.191453,0.131095 0.431412,0.216349 0.672381,0.239408 0.225536,0.021589 0.44657,-0.0129534 0.616985,-0.118142 0.251902,-0.154981 0.40918,-0.492871 0.329989,-1.07917 -0.0812112,-0.60054 -0.324753,-0.990795 -0.640135,-1.21256 -0.222596,-0.156267 -0.484419,-0.234079 -0.751939,-0.246573 -0.277992,-0.0129534 -0.562048,0.0435454 -0.817624,0.154797 -0.393195,0.171701 -0.711884,0.469904 -0.820472,0.839673zm6.05143 -3.62061c-0.0583361,0.197057 -0.265131,0.309687 -0.462187,0.251626 -0.196781,-0.058428 -0.309962,-0.265314 -0.251718,-0.462463 0.174549,-0.592456 0.652905,-1.05666 1.23581,-1.31086 0.357366,-0.1559 0.757083,-0.234631 1.15019,-0.216349 0.404219,0.018741 0.802558,0.138537 1.14495,0.379139 0.475784,0.334124 0.838662,0.891945 0.950925,1.72363 0.126226,0.934205 -0.188789,1.51242 -0.677618,1.81301 -0.316944,0.195219 -0.700401,0.261272 -1.07835,0.225719 -0.362143,-0.0349098 -0.726124,-0.165178 -1.02038,-0.366277 -0.509683,-0.348914 -0.822126,-0.903704 -0.628376,-1.55863 0.189064,-0.63986 0.542572,-0.945504 0.93053,-1.03645 0.0101055,-0.0025723 0.0204865,-0.00413406 0.0307757,-0.00606328 0.181439,-0.0369309 0.36444,-0.0251718 0.537243,0.0232426 0.170874,0.0477713 0.332745,0.131187 0.473211,0.236927 0.367931,0.27643 0.6089,0.727594 0.528975,1.13246 -0.0400544,0.201742 -0.236009,0.332929 -0.437659,0.292507 -0.201558,-0.0400544 -0.332745,-0.236009 -0.292691,-0.437567 0.0224158,-0.113273 -0.0875501,-0.271745 -0.245195,-0.390255 -0.0714732,-0.053559 -0.149653,-0.0948995 -0.229394,-0.117315 -0.0617352,-0.0169956 -0.123746,-0.0223239 -0.18052,-0.0122184l-0.0138721 0.00367472c-0.145151,0.0339911 -0.288649,0.185849 -0.388693,0.524198 -0.0863558,0.291405 0.0766178,0.554423 0.334858,0.730901 0.191453,0.131095 0.431412,0.216349 0.672381,0.239408 0.225536,0.021589 0.44657,-0.0129534 0.616985,-0.118142 0.251902,-0.154981 0.40918,-0.492871 0.329989,-1.07917 -0.0812112,-0.60054 -0.324753,-0.990795 -0.640135,-1.21256 -0.222596,-0.156267 -0.484419,-0.234079 -0.751939,-0.246573 -0.277992,-0.0129534 -0.562048,0.0435454 -0.817624,0.154797 -0.393195,0.171701 -0.711884,0.469904 -0.820472,0.839673zm-6.09424 -11.158c-0.176662,0.104729 -0.404954,0.0463014 -0.509683,-0.130452 -0.104729,-0.176662 -0.0463014,-0.405046 0.130452,-0.509775 0.531364,-0.315199 1.19768,-0.329438 1.79776,-0.118969 0.367839,0.129074 0.714089,0.343586 0.989693,0.624794 0.283229,0.288833 0.493422,0.647669 0.580421,1.05712 0.120898,0.568754 0.00661449,1.22442 -0.477162,1.90984 -0.543582,0.77022 -1.1681,0.979128 -1.73079,0.866682 -0.364899,-0.0729431 -0.69103,-0.285525 -0.943208,-0.56903 -0.241888,-0.272021 -0.419561,-0.615331 -0.498016,-0.963051 -0.135964,-0.602745 0.0130452,-1.22148 0.600908,-1.56938 0.573807,-0.339544 1.04114,-0.322916 1.38702,-0.125583 0.00927866,0.00523647 0.018098,0.0107485 0.0267336,0.01672 0.158013,0.0963694 0.283964,0.229486 0.377761,0.382813 0.0926028,0.151215 0.154246,0.322548 0.185206,0.495627 0.0812112,0.453092 -0.0493331,0.947434 -0.383457,1.18969 -0.16674,0.120347 -0.399533,0.0829567 -0.51988,-0.0837835 -0.120439,-0.166648 -0.0830486,-0.399533 0.0836916,-0.51988 0.0936134,-0.0677985 0.120806,-0.258884 0.0859883,-0.452909 -0.0156175,-0.087642 -0.0451071,-0.171334 -0.0881013,-0.241613 -0.0334399,-0.0547533 -0.0753317,-0.100963 -0.123838,-0.132198l-0.0125859 -0.00679822c-0.129626,-0.0738618 -0.338074,-0.0604491 -0.641881,0.119428 -0.261364,0.154522 -0.32117,0.458329 -0.252269,0.763238 0.0509867,0.226454 0.168578,0.452174 0.32953,0.63297 0.150571,0.169496 0.335869,0.29462 0.532374,0.333848 0.290119,0.0579686 0.635175,-0.0824974 0.97628,-0.565722 0.349557,-0.49526 0.437016,-0.94679 0.356723,-1.32428 -0.0564988,-0.265866 -0.195219,-0.501139 -0.38263,-0.692316 -0.194944,-0.198894 -0.441425,-0.351119 -0.704351,-0.443354 -0.40477,-0.142028 -0.841142,-0.140374 -1.17269,0.056315z"/>
    <path id="_208912664" class="fil7" d="M128.418 72.2399c0.176662,0.104729 0.404954,0.0463014 0.509683,-0.130452 0.104729,-0.176662 0.0463014,-0.405046 -0.130452,-0.509775 -0.531364,-0.315199 -1.19768,-0.329438 -1.79776,-0.118969 -0.367839,0.129074 -0.714089,0.343586 -0.989693,0.624794 -0.283229,0.288833 -0.493422,0.647669 -0.580421,1.05712 -0.120898,0.568754 -0.00661449,1.22442 0.477162,1.90984 0.543582,0.77022 1.1681,0.979128 1.73079,0.866682 0.364899,-0.0729431 0.69103,-0.285525 0.943208,-0.56903 0.241888,-0.272021 0.419561,-0.615331 0.498016,-0.963051 0.135964,-0.602745 -0.0130452,-1.22148 -0.600908,-1.56938 -0.573807,-0.339544 -1.04114,-0.322916 -1.38702,-0.125583 -0.00927866,0.00523647 -0.018098,0.0107485 -0.0267336,0.01672 -0.158013,0.0963694 -0.283964,0.229486 -0.377761,0.382813 -0.0926028,0.151215 -0.154246,0.322548 -0.185206,0.495627 -0.0812112,0.453092 0.0493331,0.947434 0.383457,1.18969 0.16674,0.120347 0.399533,0.0829567 0.51988,-0.0837835 0.120439,-0.166648 0.0830486,-0.399533 -0.0836916,-0.51988 -0.0936134,-0.0677985 -0.120806,-0.258884 -0.0859883,-0.452909 0.0156175,-0.087642 0.0451071,-0.171334 0.0881013,-0.241613 0.0334399,-0.0547533 0.0753317,-0.100963 0.123838,-0.132198l0.0125859 -0.00679822c0.129626,-0.0738618 0.338074,-0.0604491 0.641881,0.119428 0.261364,0.154522 0.32117,0.458329 0.252269,0.763238 -0.0509867,0.226454 -0.168578,0.452174 -0.32953,0.63297 -0.150571,0.169496 -0.335869,0.29462 -0.532374,0.333848 -0.290119,0.0579686 -0.635175,-0.0824974 -0.97628,-0.565722 -0.349557,-0.49526 -0.437016,-0.94679 -0.356723,-1.32428 0.0564988,-0.265866 0.195219,-0.501139 0.38263,-0.692316 0.194944,-0.198894 0.441425,-0.351119 0.704351,-0.443354 0.40477,-0.142028 0.841142,-0.140374 1.17269,0.056315zm-2.10947 30.3699c-0.000826811,-0.175651 -4.83289,0.736413 -10.0881,-3.20518 -0.43527,-0.326866 -0.545695,-0.141385 -0.201834,0.24593 5.15498,5.80798 10.4805,3.21804 10.2899,2.95925zm0.586209 -2.6841c-0.000459339,-0.176019 -4.83253,0.736505 -10.0876,-3.20536 -0.435546,-0.32659 -0.546063,-0.141568 -0.202477,0.245838 5.15517,5.80853 10.4809,3.21813 10.2901,2.95952zm0.231783 -30.5528c-0.183368,0.132106 -0.225168,0.389061 -0.0926947,0.572796 0.132565,0.183736 0.389152,0.224617 0.572704,0.0928784 0.844174,-0.609911 1.02038,-1.42992 0.820472,-2.16615 -0.0967369,-0.35608 -0.284974,-0.689193 -0.528608,-0.964153 -0.2474,-0.278727 -0.552861,-0.499669 -0.879268,-0.626172 -0.628928,-0.244185 -1.32722,-0.162331 -1.8674,0.468342 -0.0503436,0.0587954 -0.100963,0.124757 -0.149928,0.196873 -0.23068,0.336512 -0.376566,0.739077 -0.403116,1.11326 -0.0298571,0.428104 0.0897549,0.830118 0.404035,1.09938 0.00633888,0.00523647 0.0124022,0.0105648 0.0191085,0.0152501 0.0231507,0.018741 0.0485981,0.0379414 0.0759747,0.0564988 0.54643,0.374178 1.08064,0.323099 1.47815,0.0857127 0.147356,-0.0873664 0.274593,-0.20165 0.375372,-0.32953 0.102525,-0.130177 0.179602,-0.277165 0.224801,-0.428472 0.10822,-0.365634 0.0345423,-0.745784 -0.292048,-0.99741 -0.179234,-0.138904 -0.437107,-0.105648 -0.575736,0.0729431 -0.138996,0.179326 -0.106016,0.437291 0.0726675,0.576471 0.0232426,0.0174549 0.0231507,0.0629295 0.0071657,0.11557 -0.0145151,0.0498843 -0.0427186,0.10179 -0.0823136,0.151766 -0.0408812,0.0516298 -0.092511,0.0979312 -0.151215,0.133576 -0.150204,0.0886525 -0.360949,0.100687 -0.593191,-0.057693 -0.00496087,-0.00349098 -0.0100136,-0.0077169 -0.0155257,-0.012494l-0.0077169 -0.00679822c-0.0971962,-0.0832323 -0.132473,-0.237938 -0.119612,-0.41708 0.0165362,-0.233069 0.110333,-0.489197 0.26017,-0.706832 0.0276522,-0.0396869 0.0599897,-0.0821299 0.0971044,-0.126318 0.273674,-0.318782 0.626998,-0.360581 0.945504,-0.236835 0.206427,0.0803844 0.40183,0.221861 0.561864,0.402014 0.163249,0.18392 0.288649,0.404494 0.351854,0.637931 0.116121,0.429115 0.00505273,0.913902 -0.508581,1.28468zm-8.56843 16.2204c-0.131647,0.0945321 -0.161596,0.278543 -0.0665124,0.410374 0.0951751,0.131922 0.279095,0.161228 0.410649,0.0666042 0.605318,-0.437291 0.731544,-1.02488 0.588138,-1.55275 -0.0690847,-0.255209 -0.20413,-0.493974 -0.378771,-0.691306 -0.177672,-0.199629 -0.396594,-0.358285 -0.630489,-0.448775 -0.451163,-0.175192 -0.951384,-0.116397 -1.33879,0.335777 -0.0360122,0.0419836 -0.0721163,0.0892956 -0.107485,0.141109 -0.165362,0.241245 -0.270092,0.529802 -0.288833,0.797873 -0.0216808,0.306839 0.0643075,0.595396 0.289476,0.78841 0.004869,0.00349098 0.00900305,0.00753317 0.0137802,0.0107485 0.0165362,0.0136883 0.0350017,0.0275604 0.0546614,0.0406056 0.391817,0.268162 0.774263,0.231599 1.05951,0.0615515 0.105372,-0.0628376 0.197057,-0.144508 0.269081,-0.236284 0.0734024,-0.0932459 0.128707,-0.198894 0.161044,-0.307022 0.0777202,-0.262283 0.0248043,-0.534763 -0.209551,-0.715375 -0.128248,-0.0996767 -0.313086,-0.0756991 -0.412579,0.052181 -0.0996767,0.128799 -0.075791,0.313729 0.0520891,0.413497 0.0168118,0.0124022 0.0168118,0.045199 0.0051446,0.0829567 -0.0103811,0.0357366 -0.0305001,0.073035 -0.0588873,0.108588 -0.0293977,0.0370228 -0.0661449,0.0705545 -0.108588,0.0957263 -0.107394,0.0636644 -0.258516,0.0722082 -0.425165,-0.0412487 -0.00321538,-0.00266417 -0.00725756,-0.00542021 -0.0110241,-0.00881932l-0.00560394 -0.00477713c-0.0696359,-0.0597141 -0.0950833,-0.170874 -0.0854371,-0.299122 0.0116672,-0.1672 0.0788226,-0.35066 0.186492,-0.506927 0.0192923,-0.0283872 0.0427186,-0.0587954 0.0692684,-0.0904899 0.196414,-0.228292 0.449877,-0.258516 0.677893,-0.169956 0.147907,0.0577849 0.288098,0.159207 0.402933,0.288465 0.116948,0.13183 0.206886,0.290027 0.252453,0.457226 0.0829567,0.307757 0.00330724,0.65511 -0.364899,0.921159zm11.2224 -0.750193c-0.172252,-0.0469445 -0.349006,0.054937 -0.395951,0.22673 -0.0468526,0.171701 0.0547533,0.349006 0.226546,0.395675 1.20549,0.32806 2.10093,-0.122827 2.6345,-0.859057 0.263385,-0.363338 0.434811,-0.796219 0.507938,-1.23673 0.0732187,-0.441517 0.04869,-0.895896 -0.0805681,-1.30048 -0.240878,-0.754511 -0.829567,-1.3308 -1.80392,-1.35909 -0.0963694,-0.00293977 -0.196965,0.000183736 -0.300684,0.00881932 -0.491677,0.0384926 -0.980139,0.206335 -1.34981,0.4643 -0.404862,0.282586 -0.677709,0.675964 -0.690938,1.1399 -0.000275604,0.00698196 -0.000367472,0.0141477 -0.000275604,0.0211296 -0.000275604,0.0362878 0.000918679,0.073678 0.00404219,0.112079 0.0607247,0.759472 0.487635,1.19943 0.983078,1.38224 0.185573,0.0690847 0.379506,0.100412 0.565631,0.0985742 0.187962,-0.00238857 0.372616,-0.0393195 0.536417,-0.106934 0.382262,-0.15691 0.652813,-0.47413 0.641973,-0.912248 -0.00413406,-0.178959 -0.152409,-0.319976 -0.331367,-0.315382 -0.177856,0.00376658 -0.319149,0.152776 -0.315015,0.330816 0.00321538,0.135689 -0.0974718,0.240602 -0.239683,0.299214 -0.087642,0.0360122 -0.190626,0.0560394 -0.300316,0.0572337 -0.111528,0.00137802 -0.225995,-0.0171793 -0.333021,-0.0566825 -0.282402,-0.104362 -0.527414,-0.366094 -0.564344,-0.829108 -0.000826811,-0.0158013 -0.00174549,-0.031327 -0.00174549,-0.0474957l0.000734943 -0.0137802c0.00689009,-0.239408 0.17115,-0.458421 0.415151,-0.629019 0.279187,-0.194576 0.652721,-0.321721 1.03223,-0.351854 0.0727594,-0.00542021 0.149377,-0.00780877 0.229027,-0.00542021 0.651527,0.0189248 1.04573,0.40477 1.20751,0.909033 0.0965532,0.304266 0.114192,0.653273 0.0567744,0.998053 -0.0576012,0.346342 -0.190167,0.682762 -0.392735,0.962867 -0.387682,0.534947 -1.04619,0.860343 -1.94117,0.616617zm-15.237 -9.12781c0.0495168,-0.191453 -0.0659611,-0.385937 -0.256954,-0.434811 -0.191361,-0.0494249 -0.385753,0.0655937 -0.434903,0.256495 -0.344596,1.34054 0.16821,2.32609 0.991622,2.90459 0.40624,0.28626 0.888546,0.469904 1.37673,0.543674 0.490942,0.0742293 0.993735,0.0402381 1.43929,-0.109231 0.83168,-0.277992 1.46116,-0.93843 1.47769,-2.01825 0.00211296,-0.106291 -0.00339911,-0.218186 -0.0140558,-0.332745 -0.0504355,-0.543858 -0.243542,-1.08174 -0.535222,-1.48743 -0.319333,-0.444089 -0.758829,-0.740639 -1.27283,-0.747437 -0.00780877,-0.00101055 -0.0156175,-0.000643075 -0.0234263,-0.000367472 -0.0408812,0.000183736 -0.082038,0.00183736 -0.12393,0.00643075 -0.840316,0.0786389 -1.32115,0.557914 -1.51573,1.1093 -0.0734024,0.207162 -0.105097,0.421582 -0.100412,0.627366 0.00542021,0.208632 0.0488737,0.412211 0.12641,0.593007 0.180061,0.420847 0.53513,0.715559 1.01955,0.696818 0.19871,-0.00780877 0.352865,-0.173998 0.344964,-0.372157 -0.00698196,-0.196597 -0.173906,-0.350384 -0.371238,-0.343127 -0.150388,0.0051446 -0.26853,-0.104178 -0.335685,-0.260905 -0.0406056,-0.0967369 -0.0645831,-0.210194 -0.0675229,-0.331551 -0.00339911,-0.12347 0.0152501,-0.251167 0.0571418,-0.370136 0.111528,-0.313821 0.398247,-0.590159 0.910503,-0.637379 0.0176386,-0.00101055 0.0348179,-0.0022967 0.0522728,-0.00220483l0.0149745 -0.000183736c0.265223,0.00404219 0.510326,0.182541 0.702514,0.450336 0.220575,0.306196 0.366369,0.718682 0.406056,1.13778 0.00624702,0.0805681 0.0109323,0.165454 0.00909492,0.253739 -0.0109323,0.721439 -0.431779,1.16443 -0.987304,1.3511 -0.33642,0.111528 -0.722541,0.135781 -1.10545,0.0773528 -0.3841,-0.0579686 -0.758186,-0.199353 -1.07182,-0.42002 -0.598519,-0.42149 -0.968471,-1.14495 -0.712344,-2.14006zm9.28564 2.89715c-0.157921,0.0829567 -0.218278,0.277992 -0.135781,0.435821 0.0826811,0.15737 0.277992,0.218094 0.435362,0.135413 1.10636,-0.580329 1.45537,-1.52014 1.34495,-2.42283 -0.0546614,-0.445376 -0.22379,-0.879084 -0.470639,-1.25161 -0.246482,-0.373259 -0.573991,-0.689652 -0.944126,-0.897917 -0.689744,-0.388326 -1.51352,-0.409639 -2.24654,0.232793 -0.0722082,0.0635726 -0.144049,0.134586 -0.214236,0.211388 -0.333756,0.36297 -0.577298,0.818359 -0.672197,1.25905 -0.104178,0.482949 -0.0362878,0.95662 0.269724,1.30553 0.00477713,0.0051446 0.00946239,0.0106567 0.0143314,0.0153419 0.0245287,0.027101 0.0508948,0.053559 0.0791901,0.0793739 0.561497,0.515471 1.17416,0.546338 1.66116,0.343127 0.182909,-0.0758829 0.346434,-0.184838 0.481296,-0.312902 0.13624,-0.129809 0.246206,-0.282402 0.320343,-0.443446 0.172987,-0.375372 0.154981,-0.791626 -0.150847,-1.10563 -0.125124,-0.128064 -0.329806,-0.130361 -0.457594,-0.00523647 -0.127788,0.124297 -0.130085,0.329346 -0.00542021,0.456951 0.0947158,0.0972881 0.0924191,0.242715 0.0282034,0.38217 -0.0396869,0.0861721 -0.10179,0.171058 -0.181347,0.246573 -0.0807519,0.0767097 -0.176938,0.141385 -0.282402,0.185481 -0.277808,0.115478 -0.635634,0.0906736 -0.978026,-0.223515 -0.0109323,-0.0107485 -0.0221402,-0.0216808 -0.0332562,-0.0334399l-0.00900305 -0.0109323c-0.157737,-0.179785 -0.186584,-0.451623 -0.12393,-0.742568 0.0719326,-0.332837 0.259067,-0.680282 0.516298,-0.960571 0.0495168,-0.0538346 0.104454,-0.107577 0.164168,-0.160218 0.490115,-0.42985 1.04151,-0.41561 1.50314,-0.155992 0.2779,0.156635 0.528332,0.400544 0.721071,0.692041 0.193474,0.292324 0.325764,0.629754 0.367931,0.972605 0.0802925,0.655937 -0.180337,1.34237 -1.00182,1.77314zm-3.67288 -7.08798c-0.157921,0.0829567 -0.218278,0.277992 -0.135781,0.435821 0.0826811,0.15737 0.277992,0.218094 0.435362,0.135413 1.10636,-0.580329 1.45537,-1.52014 1.34495,-2.42283 -0.0546614,-0.445376 -0.22379,-0.879084 -0.470639,-1.25161 -0.246482,-0.373259 -0.573991,-0.689652 -0.944126,-0.897917 -0.689744,-0.388326 -1.51352,-0.409639 -2.24654,0.232793 -0.0722082,0.0635726 -0.144049,0.134586 -0.214236,0.211388 -0.333756,0.36297 -0.577298,0.818359 -0.672197,1.25905 -0.104178,0.482949 -0.0362878,0.95662 0.269724,1.30553 0.00477713,0.0051446 0.00946239,0.0106567 0.0143314,0.0153419 0.0245287,0.027101 0.0508948,0.053559 0.0791901,0.0793739 0.561497,0.515471 1.17416,0.546338 1.66116,0.343127 0.182909,-0.0758829 0.346434,-0.184838 0.481296,-0.312902 0.13624,-0.129809 0.246206,-0.282402 0.320343,-0.443446 0.172987,-0.375372 0.154981,-0.791626 -0.150847,-1.10563 -0.125124,-0.128064 -0.329806,-0.130361 -0.457594,-0.00523647 -0.127788,0.124297 -0.130085,0.329346 -0.00542021,0.456951 0.0947158,0.0972881 0.0924191,0.242715 0.0282034,0.38217 -0.0396869,0.0861721 -0.10179,0.171058 -0.181347,0.246573 -0.0807519,0.0767097 -0.176938,0.141385 -0.282402,0.185481 -0.277808,0.115478 -0.635634,0.0906736 -0.978026,-0.223515 -0.0109323,-0.0107485 -0.0221402,-0.0216808 -0.0332562,-0.0334399l-0.00900305 -0.0109323c-0.157737,-0.179785 -0.186584,-0.451623 -0.12393,-0.742568 0.0719326,-0.332837 0.259067,-0.680282 0.516298,-0.960571 0.0495168,-0.0538346 0.104454,-0.107577 0.164168,-0.160218 0.490115,-0.42985 1.04151,-0.41561 1.50314,-0.155992 0.2779,0.156635 0.528332,0.400544 0.721071,0.692041 0.193474,0.292324 0.325764,0.629754 0.367931,0.972605 0.0802925,0.655937 -0.180337,1.34237 -1.00182,1.77314zm11.4557 -0.308768c0.0634807,-0.195862 -0.0441885,-0.40624 -0.239683,-0.469353 -0.195954,-0.0632051 -0.405964,0.0440966 -0.469445,0.239959 -0.19081,0.588598 -0.0576012,1.24242 0.280197,1.78251 0.207346,0.330908 0.493147,0.621762 0.828465,0.82874 0.344596,0.213134 0.741374,0.339452 1.16066,0.33394 0.582259,-0.0071657 1.19759,-0.263569 1.76037,-0.886984 0.63251,-0.700676 0.699023,-1.35698 0.465127,-1.88182 -0.152041,-0.340187 -0.43132,-0.612024 -0.764157,-0.795576 -0.318782,-0.17657 -0.693051,-0.274685 -1.05023,-0.274593 -0.61873,0.000183736 -1.19033,0.282126 -1.40053,0.93301 -0.205233,0.635634 -0.0859883,1.08808 0.183001,1.3827 0.00734943,0.00790064 0.0145151,0.0151582 0.0224158,0.0224158 0.129074,0.132749 0.286628,0.227189 0.457226,0.28479 0.168026,0.0565906 0.349098,0.0794657 0.525117,0.0714732 0.460442,-0.0204865 0.914361,-0.257046 1.07715,-0.637012 0.0807519,-0.189248 -0.00707383,-0.408445 -0.196414,-0.489472 -0.189156,-0.0807519 -0.408353,0.00734943 -0.489288,0.196689 -0.0453827,0.106107 -0.226271,0.174733 -0.423235,0.183736 -0.0892037,0.00376658 -0.177581,-0.00633888 -0.255668,-0.0329806 -0.0607247,-0.0203028 -0.11511,-0.0511704 -0.156359,-0.0918679l-0.00946239 -0.0106567c-0.100871,-0.110241 -0.133484,-0.316852 -0.0249881,-0.653273 0.0930622,-0.2892 0.377118,-0.414508 0.69002,-0.4146 0.232609,-0.000183736 0.478907,0.0650425 0.69103,0.182174 0.19917,0.109966 0.361776,0.263202 0.443538,0.446662 0.120439,0.270459 0.0596223,0.638757 -0.337431,1.07825 -0.406699,0.450428 -0.828648,0.635634 -1.21504,0.640411 -0.272205,0.00330724 -0.53265,-0.0802925 -0.760758,-0.221493 -0.237019,-0.146254 -0.440047,-0.353691 -0.588046,-0.589976 -0.228016,-0.363797 -0.32264,-0.790523 -0.203579,-1.15781zm-10.1374 10.2409c0.0634807,-0.195862 -0.0441885,-0.40624 -0.239683,-0.469353 -0.195954,-0.0632051 -0.405964,0.0440966 -0.469445,0.239959 -0.19081,0.588598 -0.0576012,1.24242 0.280197,1.78251 0.207346,0.330908 0.493147,0.621762 0.828465,0.82874 0.344596,0.213134 0.741374,0.339452 1.16066,0.33394 0.582259,-0.0071657 1.19759,-0.263569 1.76037,-0.886984 0.63251,-0.700676 0.699023,-1.35698 0.465127,-1.88182 -0.152041,-0.340187 -0.43132,-0.612024 -0.764157,-0.795576 -0.318782,-0.17657 -0.693051,-0.274685 -1.05023,-0.274593 -0.61873,0.000183736 -1.19033,0.282126 -1.40053,0.93301 -0.205233,0.635634 -0.0859883,1.08808 0.183001,1.3827 0.00734943,0.00790064 0.0145151,0.0151582 0.0224158,0.0224158 0.129074,0.132749 0.286628,0.227189 0.457226,0.28479 0.168026,0.0565906 0.349098,0.0794657 0.525117,0.0714732 0.460442,-0.0204865 0.914361,-0.257046 1.07715,-0.637012 0.0807519,-0.189248 -0.00707383,-0.408445 -0.196414,-0.489472 -0.189156,-0.0807519 -0.408353,0.00734943 -0.489288,0.196689 -0.0453827,0.106107 -0.226271,0.174733 -0.423235,0.183736 -0.0892037,0.00376658 -0.177581,-0.00633888 -0.255668,-0.0329806 -0.0607247,-0.0203028 -0.11511,-0.0511704 -0.156359,-0.0918679l-0.00946239 -0.0106567c-0.100871,-0.110241 -0.133484,-0.316852 -0.0249881,-0.653273 0.0930622,-0.2892 0.377118,-0.414508 0.69002,-0.4146 0.232609,-0.000183736 0.478907,0.0650425 0.69103,0.182174 0.19917,0.109966 0.361776,0.263202 0.443538,0.446662 0.120439,0.270459 0.0596223,0.638757 -0.337431,1.07825 -0.406699,0.450428 -0.828648,0.635634 -1.21504,0.640411 -0.272205,0.00330724 -0.53265,-0.0802925 -0.760758,-0.221493 -0.237019,-0.146254 -0.440047,-0.353691 -0.588046,-0.589976 -0.228016,-0.363797 -0.32264,-0.790523 -0.203579,-1.15781zm10.7299 9.23043c0.0583361,0.197057 0.265131,0.309687 0.462187,0.251626 0.196781,-0.058428 0.309962,-0.265314 0.251718,-0.462463 -0.174549,-0.592456 -0.652905,-1.05666 -1.23581,-1.31095 -0.357366,-0.1559 -0.757083,-0.234631 -1.15019,-0.216349 -0.404219,0.018741 -0.802558,0.138537 -1.14495,0.379231 -0.475784,0.334124 -0.838662,0.891945 -0.950925,1.72363 -0.126226,0.934205 0.188789,1.51242 0.677618,1.81301 0.316944,0.195219 0.700401,0.261272 1.07835,0.225719 0.362143,-0.0349098 0.726124,-0.165178 1.02038,-0.366277 0.509683,-0.348914 0.822126,-0.903704 0.628376,-1.55863 -0.189064,-0.63986 -0.542572,-0.945504 -0.93053,-1.03645 -0.0101055,-0.0025723 -0.0204865,-0.00413406 -0.0307757,-0.00606328 -0.181439,-0.0369309 -0.36444,-0.0251718 -0.537243,0.0232426 -0.170874,0.0477713 -0.332745,0.131187 -0.473211,0.236927 -0.367931,0.27643 -0.6089,0.727594 -0.528975,1.13246 0.0400544,0.201742 0.236009,0.332929 0.437659,0.292507 0.201558,-0.0400544 0.332745,-0.236009 0.292691,-0.437567 -0.0224158,-0.113273 0.0875501,-0.271745 0.245195,-0.390255 0.0714732,-0.053559 0.149653,-0.0948995 0.229394,-0.117315 0.0617352,-0.0169956 0.123746,-0.0223239 0.18052,-0.0122184l0.0138721 0.00367472c0.145151,0.0339911 0.288649,0.185849 0.388693,0.524198 0.0863558,0.291405 -0.0766178,0.554423 -0.334858,0.730901 -0.191453,0.131095 -0.431412,0.216349 -0.672381,0.239408 -0.225536,0.021589 -0.44657,-0.0129534 -0.616985,-0.118142 -0.251902,-0.154981 -0.40918,-0.492871 -0.329989,-1.07917 0.0812112,-0.60054 0.324753,-0.990795 0.640135,-1.21256 0.222596,-0.156267 0.484419,-0.234079 0.751939,-0.246573 0.277992,-0.0129534 0.562048,0.0435454 0.817624,0.154797 0.393195,0.171701 0.711884,0.469904 0.820472,0.839673zm-6.05143 -3.62061c0.0583361,0.197057 0.265131,0.309687 0.462187,0.251626 0.196781,-0.058428 0.309962,-0.265314 0.251718,-0.462463 -0.174549,-0.592456 -0.652905,-1.05666 -1.23581,-1.31086 -0.357366,-0.1559 -0.757083,-0.234631 -1.15019,-0.216349 -0.404219,0.018741 -0.802558,0.138537 -1.14495,0.379139 -0.475784,0.334124 -0.838662,0.891945 -0.950925,1.72363 -0.126226,0.934205 0.188789,1.51242 0.677618,1.81301 0.316944,0.195219 0.700401,0.261272 1.07835,0.225719 0.362143,-0.0349098 0.726124,-0.165178 1.02038,-0.366277 0.509683,-0.348914 0.822126,-0.903704 0.628376,-1.55863 -0.189064,-0.63986 -0.542572,-0.945504 -0.93053,-1.03645 -0.0101055,-0.0025723 -0.0204865,-0.00413406 -0.0307757,-0.00606328 -0.181439,-0.0369309 -0.36444,-0.0251718 -0.537243,0.0232426 -0.170874,0.0477713 -0.332745,0.131187 -0.473211,0.236927 -0.367931,0.27643 -0.6089,0.727594 -0.528975,1.13246 0.0400544,0.201742 0.236009,0.332929 0.437659,0.292507 0.201558,-0.0400544 0.332745,-0.236009 0.292691,-0.437567 -0.0224158,-0.113273 0.0875501,-0.271745 0.245195,-0.390255 0.0714732,-0.053559 0.149653,-0.0948995 0.229394,-0.117315 0.0617352,-0.0169956 0.123746,-0.0223239 0.18052,-0.0122184l0.0138721 0.00367472c0.145151,0.0339911 0.288649,0.185849 0.388693,0.524198 0.0863558,0.291405 -0.0766178,0.554423 -0.334858,0.730901 -0.191453,0.131095 -0.431412,0.216349 -0.672381,0.239408 -0.225536,0.021589 -0.44657,-0.0129534 -0.616985,-0.118142 -0.251902,-0.154981 -0.40918,-0.492871 -0.329989,-1.07917 0.0812112,-0.60054 0.324753,-0.990795 0.640135,-1.21256 0.222596,-0.156267 0.484419,-0.234079 0.751939,-0.246573 0.277992,-0.0129534 0.562048,0.0435454 0.817624,0.154797 0.393195,0.171701 0.711884,0.469904 0.820472,0.839673zm6.09424 -11.158c0.176662,0.104729 0.404954,0.0463014 0.509683,-0.130452 0.104729,-0.176662 0.0463014,-0.405046 -0.130452,-0.509775 -0.531364,-0.315199 -1.19768,-0.329438 -1.79776,-0.118969 -0.367839,0.129074 -0.714089,0.343586 -0.989693,0.624794 -0.283229,0.288833 -0.493422,0.647669 -0.580421,1.05712 -0.120898,0.568754 -0.00661449,1.22442 0.477162,1.90984 0.543582,0.77022 1.1681,0.979128 1.73079,0.866682 0.364899,-0.0729431 0.69103,-0.285525 0.943208,-0.56903 0.241888,-0.272021 0.419561,-0.615331 0.498016,-0.963051 0.135964,-0.602745 -0.0130452,-1.22148 -0.600908,-1.56938 -0.573807,-0.339544 -1.04114,-0.322916 -1.38702,-0.125583 -0.00927866,0.00523647 -0.018098,0.0107485 -0.0267336,0.01672 -0.158013,0.0963694 -0.283964,0.229486 -0.377761,0.382813 -0.0926028,0.151215 -0.154246,0.322548 -0.185206,0.495627 -0.0812112,0.453092 0.0493331,0.947434 0.383457,1.18969 0.16674,0.120347 0.399533,0.0829567 0.51988,-0.0837835 0.120439,-0.166648 0.0830486,-0.399533 -0.0836916,-0.51988 -0.0936134,-0.0677985 -0.120806,-0.258884 -0.0859883,-0.452909 0.0156175,-0.087642 0.0451071,-0.171334 0.0881013,-0.241613 0.0334399,-0.0547533 0.0753317,-0.100963 0.123838,-0.132198l0.0125859 -0.00679822c0.129626,-0.0738618 0.338074,-0.0604491 0.641881,0.119428 0.261364,0.154522 0.32117,0.458329 0.252269,0.763238 -0.0509867,0.226454 -0.168578,0.452174 -0.32953,0.63297 -0.150571,0.169496 -0.335869,0.29462 -0.532374,0.333848 -0.290119,0.0579686 -0.635175,-0.0824974 -0.97628,-0.565722 -0.349557,-0.49526 -0.437016,-0.94679 -0.356723,-1.32428 0.0564988,-0.265866 0.195219,-0.501139 0.38263,-0.692316 0.194944,-0.198894 0.441425,-0.351119 0.704351,-0.443354 0.40477,-0.142028 0.841142,-0.140374 1.17269,0.056315z"/>
    <polygon id="_208911728" class="fil1" points="45.1092,64.0085 56.6225,66.6502 45.4198,66.4933 "/>
    <polygon id="_208914848" class="fil1" points="90.0857,36.7307 93.2188,39.1423 94.4304,42.3166 94.3809,38.2518 91.3786,35.1275 "/>
    <path id="_208914944" class="fil1" d="M92.7498 32.8417l3.66571 2.99453 -2.58149 -4.20782c0,0 -1.11004,1.18748 -1.08422,1.2133z"/>
   </g>
  </g>
 </g>
</svg>
