<?xml version="1.0" encoding="UTF-8"?>
<!DOCTYPE svg PUBLIC "-//W3C//DTD SVG 1.1//EN" "http://www.w3.org/Graphics/SVG/1.1/DTD/svg11.dtd">
<!-- Creator: CorelDRAW -->
<svg xmlns="http://www.w3.org/2000/svg" xml:space="preserve" width="161.908mm" height="176.792mm" style="shape-rendering:geometricPrecision; text-rendering:geometricPrecision; image-rendering:optimizeQuality; fill-rule:evenodd; clip-rule:evenodd"
viewBox="0 0 49.0557 53.5652"
 xmlns:xlink="http://www.w3.org/1999/xlink">
 <defs>
  <style type="text/css">
   <![CDATA[
    .fil0 {fill:none}
    .fil1 {fill:#501D33}
    .fil8 {fill:#525B75}
    .fil7 {fill:#65798E}
    .fil5 {fill:#C9C7D2}
    .fil4 {fill:#D77D75}
    .fil2 {fill:#FFCFA5}
    .fil3 {fill:white}
    .fil6 {fill:#501D33;fill-rule:nonzero}
   ]]>
  </style>
 </defs>
 <g id="Слой_x0020_1">
  <metadata id="CorelCorpID_0Corel-Layer"/>
  <g id="_88250064">
   <rect id="_119805880" class="fil0" width="49.0557" height="53.5652"/>
   <path id="_119805808" class="fil1" d="M11.162 23.3161l1.45481 -0.24775 -0.0630207 -0.283351 -1.44614 0.125042c0,0 -0.0535373,0.197182 0.0543554,0.40606zm-5.39118 3.94164c0.022239,0.0886229 -0.031571,0.178609 -0.120194,0.200909 -0.0885926,0.0222693 -0.178609,-0.0315407 -0.200879,-0.120164 -0.0222996,-0.0885926 0.0315407,-0.178609 0.120164,-0.200879 0.0885926,-0.0222996 0.178609,0.0315407 0.200909,0.120133zm-1.03357 -4.87275l-1.45481 -0.247781 0.0630207 -0.283351 1.44614 0.125042c0,0 0.0535373,0.197182 -0.0543554,0.40609zm-0.483199 2.3494l-0.984366 0.0659597 -0.00324193 -0.194061 0.959612 -0.144372c0,0 0.0655658,0.11983 0.0279958,0.272474zm0.27208 2.53365l-1.11656 0.334495 -0.054719 -0.222663 1.06741 -0.4183c0,0 0.107014,0.12077 0.103863,0.306469zm0.312407 -3.15413l-1.65408 -0.167096 0.0491441 -0.323315 1.63496 0.029844c0,0 0.0752916,0.217512 -0.0300257,0.460566zm6.22215 0.931131l1.65408 -0.167096 -0.0491441 -0.323315 -1.63496 0.0298137c0,0 -0.0752916,0.217543 0.0300257,0.460597zm0.391062 0.741797l1.16525 0.0281472 -0.00596879 -0.229208 -1.13995 -0.121951c0,0 -0.0713831,0.144766 -0.0193304,0.323012z"/>
   <path id="_119543888" class="fil1" d="M13.4011 5.55658c-5.05872,2.2699 -9.20536,11.0446 -9.57485,15.6665 -0.42339,5.29489 -0.357794,8.51722 2.73059,14.9859 0,0 0.671656,1.37912 2.96685,0.820663 1.03499,0.0876837 2.06144,-0.272625 2.55286,-0.977367 0.0119376,-0.0171186 1.29123,-0.199788 1.90683,-0.79903 0.27923,-0.271838 0.456628,-0.513528 0.356249,-1.00812 -0.131404,-0.647538 -0.325405,-1.44045 -0.325405,-1.44045 0,0 1.14149,-1.13795 0.954582,-1.62206 -0.186911,-0.484108 -2.52113,-2.50704 -2.52501,-2.52643 -1.60173,-7.34449 -0.0310559,-13.6097 4.16503,-18.6703l3.37125 -4.4639c-1.69359,-0.500045 -4.78288,-0.771337 -6.57891,0.0345705l-3.02984e-005 3.02984e-005 -3.02984e-005 0z"/>
   <path id="_119543816" class="fil2" d="M13.9101 12.4537l4.92771 -6.81821c-3.35616,-0.148099 -5.28499,-0.00266626 -7.72777,2.50262 -3.47423,3.56322 -5.97225,8.93819 -6.59409,13.9134 -0.625663,5.00772 0.329859,9.39873 2.6476,13.9391 0,0 0.281412,0.828662 2.05478,0.623663 0,0 -0.51574,-0.912468 -0.480806,-0.991213 0.0349644,-0.0788365 0.898712,0.9168 0.898712,0.9168 0,0 1.09117,0.00396909 1.98215,-0.764793 0,0 0.00363581,-1.23263 0.0809574,-1.22981 0.0773216,0.00281775 0.325254,0.912649 0.325254,0.912649l1.16513 -0.307681c0.532283,-0.250265 0.698652,-0.290017 0.554098,-0.94928 -0.110347,-0.503621 -0.294773,-1.35304 -0.700288,-2.779 0.111892,-0.131889 0.38273,0.487441 0.581033,0.827753 0,0 0.637873,-0.704348 0.610544,-0.944372 -0.0271777,-0.240115 -2.26099,-1.9767 -2.26099,-1.9767 -1.80512,-5.66381 -0.584214,-12.4293 1.93595,-16.8748l0 -6.05969e-005 3.02984e-005 -6.05969e-005z"/>
   <path id="_119543744" class="fil3" d="M13.0993 6.5344c-0.651265,0.377609 -1.29986,0.896561 -1.98936,1.6037 -3.47423,3.56322 -5.97225,8.93819 -6.59409,13.9134 -0.625663,5.00772 0.329859,9.39873 2.6476,13.9391 0,0 0.0239964,0.0699894 0.101348,0.164339 0.512225,-0.0715043 1.03036,-0.187759 1.53846,-0.33201 -0.0466596,-0.10253 -0.074928,-0.179397 -0.0658385,-0.199879 0.0103621,-0.0233904 0.0937736,0.0476897 0.205817,0.15937 0.988092,-0.29141 1.93186,-0.683321 2.71119,-1.05036 0.0111498,-0.112862 0.0257234,-0.187517 0.0448114,-0.18682 0.0172398,0.000636267 0.0404787,0.0530829 0.0660809,0.134222 1.02681,-0.490138 1.74501,-0.92389 1.86323,-0.996334l-0.00103015 -0.00451447c-2.27093,0.780185 -6.10498,1.17064 -6.10498,1.17064 -5.17312,-10.642 -1.58676,-21.9905 5.57676,-28.3147l0 -3.02984e-005 0 -3.02984e-005 0 -9.08953e-005z"/>
   <path id="_119544464" class="fil4" d="M13.9101 12.4537l0.123103 -0.170338c-0.032389,-0.0182094 -0.0644145,-0.0383578 -0.0971065,-0.0543554 0,0 -8.68314,9.84869 -0.328708,22.7065 0.191789,-0.134101 0.231965,-0.299136 0.136464,-0.734707 -0.110347,-0.503621 -0.294773,-1.35304 -0.700288,-2.779 0.111892,-0.131889 0.38273,0.487441 0.581033,0.827753 0,0 0.637873,-0.704348 0.610544,-0.944372 -0.0271777,-0.240115 -2.26099,-1.9767 -2.26099,-1.9767 -1.80512,-5.66381 -0.584214,-12.4293 1.93595,-16.8748l0 -6.05969e-005 0 6.05969e-005z"/>
   <path id="_119543312" class="fil1" d="M5.83696 18.8161c-2.26205,-0.255295 -2.84554,2.23905 -0.84978,3.07384l0.84978 -3.07384z"/>
   <path id="_119543600" class="fil2" d="M4.98761 21.9028c-0.737706,-1.14964 -0.756552,-2.4203 0.848901,-3.1048 0,0 0.456809,2.25466 -0.848901,3.1048z"/>
   <path id="_119543528" class="fil3" d="M5.06426 21.9978c-0.893167,-1.13825 -0.903287,-2.54401 0.83051,-3.23318 -0.689047,0.460779 -1.2576,1.92219 -0.799727,3.13922l-0.0307832 0.0939554z"/>
   <path id="_119543456" class="fil3" d="M5.74707 19.2416c0.197334,0.122709 0.195213,0.482957 -0.00469626,0.804423 -0.19997,0.321497 -0.522133,0.482684 -0.719467,0.359976 -0.197303,-0.122709 -0.195183,-0.482957 0.00475685,-0.804454 0.199939,-0.321466 0.522103,-0.482654 0.719406,-0.359945z"/>
   <path id="_119543096" class="fil2" d="M13.8164 31.3156c0,0 -0.366096,-0.757733 -1.30262,-1.23451 -0.936525,-0.476776 0.647053,1.25154 1.30262,1.23451z"/>
   <path id="_119543024" class="fil4" d="M7.06356 35.7921c0.032995,0.0662021 0.0662324,0.132465 0.0999545,0.198455 0,0 0.281412,0.828632 2.05466,0.623633 0,0 -0.515619,-0.912407 -0.480685,-0.991274 0.0349341,-0.0788668 0.898773,0.917043 0.898773,0.917043 0,0 1.09111,0.0038176 1.98203,-0.765035 0,0 0.00363581,-1.23269 0.081018,-1.22987 0.0773519,0.00281775 0.265717,1.00657 0.265717,1.00657 0.600939,-0.0799576 1.29096,-0.299046 1.69592,-0.65787 0.144917,-0.128374 0.168732,-0.301591 0.0828662,-0.692986 -0.0368429,-0.167914 -0.0818058,-0.374398 -0.140524,-0.627693 -3.36367,1.51107 -5.51374,2.03739 -6.53977,2.21903l3.02984e-005 0z"/>
   <path id="_88446128" class="fil4" d="M7.24966 19.9234c0,0 0,1.12583 -1.51816,1.73992 0,0 1.00642,-0.034116 1.43287,-0.443508 0.42645,-0.409392 0.0852901,-1.29641 0.0852901,-1.29641z"/>
   <path id="_119541680" class="fil1" d="M15.4252 27.6721c-0.889229,-5.45251 -1.42533,-14.6435 -1.96785,-18.8959 0.96149,-3.95901 8.52422,-2.74501 11.1005,-2.20951 2.57622,-0.535494 10.139,-1.74949 11.1004,2.20951 -0.542524,4.25248 -1.0958,13.4265 -1.98503,18.8789 -4.83878,1.84014 -13.4091,1.85717 -18.2481,0.017058l3.02984e-005 0 6.05969e-005 -6.05969e-005 3.02984e-005 0z"/>
   <path id="_119542880" class="fil1" d="M38.0825 23.6405l-1.45481 -0.24775 0.0630207 -0.283351 1.44614 0.125042c0,0 0.0535373,0.197182 -0.0543554,0.40606zm5.39118 3.94164c-0.022239,0.0886229 0.031571,0.178609 0.120194,0.200909 0.0885926,0.0222693 0.178609,-0.0315407 0.200879,-0.120164 0.0222996,-0.0885926 -0.0315407,-0.178609 -0.120164,-0.200879 -0.0885926,-0.0222996 -0.178609,0.0315407 -0.200909,0.120133zm1.03357 -4.87272l1.45481 -0.247781 -0.0630207 -0.283351 -1.44614 0.125042c0,0 -0.0535373,0.197182 0.0543554,0.40609zm0.483199 2.34937l0.984366 0.0659597 0.00324193 -0.194061 -0.959612 -0.144372c0,0 -0.0655658,0.11983 -0.0279958,0.272474zm-0.27208 2.53371l1.11656 0.334495 0.054719 -0.222663 -1.06741 -0.4183c0,0 -0.107014,0.12077 -0.103863,0.306469zm-0.312437 -3.15416l1.65408 -0.167096 -0.0491441 -0.323315 -1.63496 0.029844c0,0 -0.0752916,0.217512 0.0300257,0.460566zm-6.22215 0.931131l-1.65408 -0.167096 0.0491441 -0.323315 1.63496 0.0298137c0,0 0.0752916,0.217543 -0.0300257,0.460597zm-0.391062 0.741797l-1.16525 0.0281472 0.00596879 -0.229208 1.13995 -0.121951c0,0 0.0713831,0.144766 0.0193304,0.323012z"/>
   <path id="_119542808" class="fil1" d="M35.7238 5.5397c5.05872,2.2699 9.20536,11.0446 9.57485,15.6665 0.42339,5.29486 0.30662,8.56843 -2.78176,15.0371 0,0 -0.697197,1.3025 -2.99239,0.744039 -1.06905,0.100439 -2.01888,-0.319467 -2.51029,-0.960339 -0.012695,-0.0165732 -1.25708,-0.191365 -1.87269,-0.790607 -0.27923,-0.271838 -0.456628,-0.513528 -0.356249,-1.00812 0.131404,-0.647538 0.325405,-1.44045 0.325405,-1.44045 0,0 -1.14149,-1.13795 -0.954582,-1.62206 0.186911,-0.484108 2.52113,-2.50704 2.52501,-2.52643 1.60173,-7.34449 0.0310559,-13.6097 -4.16503,-18.6703l-3.37125 -4.4639c1.69359,-0.500045 4.78288,-0.771337 6.57891,0.0345705l3.02984e-005 3.02984e-005 3.02984e-005 0 0 3.02984e-005z"/>
   <path id="_119542736" class="fil2" d="M35.2149 12.4369l-4.92771 -6.81821c3.35616,-0.148099 5.28499,-0.00266626 7.72777,2.50262 3.47423,3.56322 5.97225,8.93819 6.59409,13.9134 0.625663,5.00772 -0.329859,9.39873 -2.6476,13.9391 0,0 -0.281412,0.828662 -2.05478,0.623663 0,0 0.51574,-0.912468 0.480806,-0.991213 -0.0349644,-0.0788365 -0.898712,0.9168 -0.898712,0.9168 0,0 -1.09117,0.00396909 -1.98215,-0.764793 0,0 -0.00363581,-1.23263 -0.0809574,-1.22981 -0.0773216,0.00281775 -0.325254,0.912649 -0.325254,0.912649l-1.16513 -0.307681c-0.532283,-0.250265 -0.698652,-0.290017 -0.554098,-0.94928 0.110347,-0.503621 0.294773,-1.35304 0.700288,-2.779 -0.111892,-0.131889 -0.38273,0.487441 -0.581033,0.827753 0,0 -0.637873,-0.704348 -0.610544,-0.944372 0.0271777,-0.240115 2.26099,-1.9767 2.26099,-1.9767 1.80512,-5.66381 0.584214,-12.4293 -1.93595,-16.8748l0 -6.05969e-005 -3.02984e-005 -6.05969e-005z"/>
   <path id="_119543168" class="fil4" d="M35.2149 12.4369l-0.123103 -0.170338c0.032389,-0.0182094 0.0644145,-0.0383578 0.0971065,-0.0543554 0,0 8.68314,9.84869 0.328708,22.7065 -0.191789,-0.134101 -0.231965,-0.299136 -0.136464,-0.734707 0.110347,-0.503621 0.294773,-1.35304 0.700288,-2.779 -0.111892,-0.131889 -0.38273,0.487441 -0.581033,0.827753 0,0 -0.637873,-0.704348 -0.610544,-0.944372 0.0271777,-0.240115 2.26099,-1.9767 2.26099,-1.9767 1.80512,-5.66381 0.584214,-12.4293 -1.93595,-16.8748l0 -6.05969e-005 0 6.05969e-005z"/>
   <path id="_119542664" class="fil3" d="M37.3067 18.0599c-0.4569,-1.83269 -1.19188,-3.78979 -2.32795,-5.7937l-4.92771 -6.81821c3.35616,-0.148099 5.28499,-0.00266626 7.72777,2.50262 2.17709,2.23287 3.97094,5.1774 5.16016,8.28895 -1.95083,0.457749 -4.09114,1.22139 -5.63227,1.82036l0 -3.02984e-005z"/>
   <path id="_119542592" class="fil5" d="M37.3066 18.0599c-0.4569,-1.83272 -1.19173,-3.78979 -2.3278,-5.7937l-0.102621 -0.141978c1.67293,1.70823 2.77937,3.59758 3.46278,5.54476 -0.365369,0.134646 -0.71174,0.266323 -1.03236,0.390941l0 -3.02984e-005z"/>
   <path id="_119542520" class="fil3" d="M16.0882 27.3632c-0.881048,-5.76358 -1.52922,-12.2137 -1.89568,-17.9575 0.751098,-3.09274 5.55358,-4.6549 10.3589,-4.66338l0 -9.08953e-005 0.00630207 3.02984e-005 0.00630207 -3.02984e-005 0 9.08953e-005c4.80524,0.00848356 9.60769,1.57064 10.3589,4.66338 -0.36646,5.74389 -1.01463,12.1939 -1.89568,17.9575 -4.68874,1.47862 -12.2501,1.47868 -16.9389,3.02984e-005l0 -3.02984e-005 6.05969e-005 0 -9.08953e-005 0 -3.02984e-005 0z"/>
   <polygon id="_119541704" class="fil3" points="20.4204,23.669 16.3572,21.81 28.5302,23.4657 "/>
   <path id="_119541992" class="fil5" d="M21.8699 14.9185l0 5.595 0.682321 0.699409 1.96167 0.25587 1.89338 -0.187638c0,0 0.648205,-0.119406 0.733495,-0.682321l0 -5.78264c0,0 -4.94676,-0.0852901 -5.27087,0.102348l0 -3.02984e-005z"/>
   <polygon id="_121124376" class="fil3" points="27.6767,19.1973 31.6037,19.4363 33.3452,18.0363 "/>
   <path id="_119542376" class="fil5" d="M16.0881 27.3632c-0.71268,-4.66199 -1.27281,-9.77318 -1.65484,-14.5965 0.0463869,-0.216058 0.0878655,-0.342736 0.122981,-0.356158l2.15122 14.5122c0.102803,-0.245145 6.08886,1.96719 15.5957,-0.0956219l2.42509 -14.8513c0,0 -0.000363581,0.337828 -0.0327526,0.62239 -0.382275,4.87262 -0.94719,10.0487 -1.66814,14.7649 -4.6888,1.47865 -12.2503,1.47871 -16.9391,3.02984e-005l-6.05969e-005 3.02984e-005 -6.05969e-005 6.05969e-005 -3.02984e-005 -3.02984e-005 -6.05969e-005 0z"/>
   <polygon id="_119542304" class="fil5" points="15.3098,18.4448 31.8423,23.1583 15.6855,21.314 "/>
   <path id="_119542232" class="fil1" d="M33.2856 26.0587c0,0 -1.50501,0.869959 -2.75346,1.12583 0,0 1.16294,-0.034116 2.90738,-0.494683l0.22233 -0.477624 -0.376246 -0.153522z"/>
   <path id="_119544176" class="fil1" d="M15.9061 26.2121c0,0 1.50501,0.869959 2.75349,1.12583 0,0 -1.16298,-0.034116 -2.90741,-0.494683l-0.22233 -0.477624 0.376246 -0.153522z"/>
   <path id="_119681384" class="fil4" d="M11.2197 20.2036c0.102045,-0.722193 0.244236,-1.47232 0.43654,-2.24493 -1.3714,-0.507347 -3.5454,-1.22139 -5.75655,-1.58364 -0.300833,0.809483 -0.551886,1.62915 -0.766217,2.44948 2.42748,-0.000272686 4.81248,0.95743 6.0862,1.37909l3.02984e-005 0z"/>
   <path id="_122988168" class="fil3" d="M11.8182 18.0768c0.4569,-1.83269 1.19188,-3.78979 2.32795,-5.7937l4.92771 -6.81821c-3.35616,-0.148099 -5.28499,-0.00266626 -7.72777,2.50262 -2.17709,2.23287 -3.97094,5.1774 -5.16016,8.28895 1.95083,0.457749 4.09114,1.22139 5.63227,1.82036l0 -3.02984e-005z"/>
   <path id="_119682560" class="fil3" d="M7.06784 15.8052c1.15837,-2.85914 2.97528,-5.90789 5.60433,-9.00694 -2.76909,2.02612 -4.80321,5.10192 -6.17415,8.201 0.147735,0.488986 0.535858,0.851598 0.535858,0.851598 0.0109983,-0.0154219 0.0223602,-0.0305711 0.0339342,-0.0457203l3.02984e-005 6.05969e-005z"/>
   <path id="_119544032" class="fil5" d="M11.8387 17.9948c0.106257,-0.419482 0.227147,-0.845387 0.364096,-1.27681 -1.03009,-0.814695 -3.05757,-1.97637 -5.41948,-2.34171 -0.291289,0.616634 -0.55937,1.24478 -0.802121,1.87996 1.90577,0.447175 4.197,1.1863 5.72913,1.77861 0.0430238,-0.0133313 0.0857749,-0.0266626 0.128374,-0.0400545z"/>
   <path id="_119680376" class="fil5" d="M11.8183 18.0768c0.4569,-1.83272 1.19173,-3.78979 2.3278,-5.7937l0.102621 -0.141978c-1.67293,1.70823 -2.77937,3.59758 -3.46278,5.54476 0.365369,0.134646 0.71174,0.266323 1.03236,0.390941l0 -3.02984e-005z"/>
   <path id="_123967888" class="fil1" d="M12.0845 20.3331c0,0 -3.43708,-2.19312 -7.7378,-2.19664 0,0 -0.064778,-1.83878 1.09214,-3.3161 0,0 3.96055,0.197818 7.38433,3.33468 0,0 -0.220088,1.09474 -0.738645,2.17806l-3.02984e-005 0z"/>
   <path id="_123967816" class="fil3" d="M11.6628 19.5041c-0.0570216,-0.0309044 -0.114013,-0.0612331 -0.170277,-0.0909559 -0.51577,-0.272383 -1.04914,-0.513619 -1.58915,-0.725708 -1.53731,-0.603878 -3.17773,-0.986547 -4.81963,-1.04887 0.0191486,-0.174973 0.048326,-0.350038 0.0793516,-0.501591 0.121557,-0.593425 0.344554,-1.1624 0.681351,-1.65214 0.130556,0.0146947 0.262081,0.0349038 0.387335,0.0551431 0.52892,0.0855325 1.05569,0.214483 1.5687,0.375519 1.54934,0.486381 3.01042,1.28308 4.26093,2.37473 -0.0991062,0.400636 -0.24063,0.825966 -0.398606,1.21388z"/>
   <path id="_123967744" class="fil3" d="M5.12143 17.6402l-0.0377215 -0.00157552c0.0192092,-0.174973 0.048326,-0.350007 0.0793516,-0.50153 0.121588,-0.593455 0.344584,-1.16246 0.681351,-1.65217 0.130556,0.014725 0.262081,0.0349038 0.387335,0.0551431 0.52892,0.0855325 1.05569,0.214422 1.5687,0.375519 1.36061,0.427147 2.65314,1.09371 3.79479,1.98909 -0.0281169,0.0397515 -0.0577488,0.079291 -0.0904711,0.118527 0,0 -2.87962,-1.79109 -5.31132,-1.85932 0,0 -0.563702,0.532949 -1.07202,1.47632z"/>
   <path id="_123967672" class="fil5" d="M11.6628 19.5041c-0.0570216,-0.0309044 -0.114013,-0.0612028 -0.170277,-0.0909256 -0.515801,-0.272413 -1.04917,-0.513649 -1.58912,-0.725738 -0.0752613,-0.0295713 -0.150704,-0.0585063 -0.22645,-0.0869868 0.305348,-0.577276 0.521739,-1.15407 0.655325,-1.55876 0.60915,0.360339 1.18876,0.776852 1.72913,1.24857 -0.0991062,0.400576 -0.24057,0.825935 -0.398606,1.21385z"/>
   <path id="_123967600" class="fil1" d="M12.3388 18.8053c0,0 -1.60879,-1.08905 -3.48986,-1.34498 0,0 1.40767,0.477231 3.34355,1.97873l0.146311 -0.633752z"/>
   <path id="_120416080" class="fil5" d="M21.0428 15.0821c-0.73607,-0.0261172 -1.47217,-0.0582336 -2.20645,-0.118588 -0.554946,-0.0455688 -1.24411,-0.0901075 -1.75289,-0.327768 -0.745341,-0.348129 -1.16231,-1.27808 -1.48044,-2.00821 -0.362248,-0.831571 -0.673534,-1.68532 -0.975064,-2.54195 -0.43045,-1.22306 -0.83657,-2.45523 -1.21839,-3.69544l-0.0659294 -0.21424c1.02503,-0.516831 4.46681,-1.87093 12.3152,-1.8156 5.58455,0.0393577 8.52153,0.951946 10.0081,1.71822l-0.110286 0.357673c-0.37767,1.2246 -0.779064,2.44148 -1.20418,3.64945 -0.30156,0.856597 -0.612816,1.71032 -0.975034,2.54189 -0.318134,0.730101 -0.735101,1.66008 -1.48044,2.00818 -0.508771,0.237661 -1.19791,0.2822 -1.75289,0.327799 -0.734313,0.0603545 -1.47044,0.0925011 -2.20654,0.118588 -2.29886,0.0815634 -4.59594,0.0815634 -6.8948,0l3.02984e-005 0z"/>
   <path id="_119804728" class="fil1" d="M23.119 13.0404l2.77261 0c0.576761,0 1.04863,0.471868 1.04863,1.04863l0 5.94831c0,0.576761 -0.471868,1.04863 -1.04863,1.04863l-2.77261 0c-0.576761,0 -1.04863,-0.471868 -1.04863,-1.04863l0 -5.94831c0,-0.576761 0.471868,-1.04863 1.04863,-1.04863z"/>
   <path id="_119804656" class="fil1" d="M14.9813 5.11638c1.67438,-0.429783 10.0842,-2.34743 19.1128,-0.105742 0.181639,0.058991 0.352613,0.118649 0.513922,0.17873l-4.2859 1.40794 -15.607 -1.39673c0.0849871,-0.027814 0.173974,-0.0559006 0.266081,-0.0841993l3.02984e-005 0 6.05969e-005 0z"/>
   <path id="_122970936" class="fil1" d="M21.0428 14.6556c-0.73607,-0.0261172 -1.47217,-0.0582336 -2.20645,-0.118588 -0.554946,-0.0455688 -1.24411,-0.0901075 -1.75289,-0.327768 -0.745341,-0.348129 -1.16231,-1.27808 -1.48044,-2.00821 -0.362248,-0.831571 -0.673534,-1.68532 -0.975064,-2.54195 -0.43045,-1.22306 -0.83657,-2.45523 -1.21839,-3.69544l-0.0659294 -0.21424c1.02503,-0.516831 4.46681,-1.87093 12.3152,-1.8156 5.58455,0.0393577 8.52153,0.951946 10.0081,1.71822l-0.110286 0.357673c-0.37767,1.2246 -0.779064,2.44148 -1.20418,3.64945 -0.30156,0.856597 -0.612816,1.71032 -0.975034,2.54189 -0.318134,0.730101 -0.735101,1.66008 -1.48044,2.00818 -0.508771,0.237661 -1.19791,0.2822 -1.75289,0.327799 -0.734313,0.0603545 -1.47044,0.0925011 -2.20654,0.118588 -2.29886,0.0815634 -4.59594,0.0815634 -6.8948,0l3.02984e-005 0z"/>
   <path id="_129326824" class="fil5" d="M21.1096 14.2601c-0.719467,-0.0255416 -1.43902,-0.0568399 -2.15673,-0.115831 -0.496743,-0.040812 -1.17673,-0.0864414 -1.62618,-0.296379 -0.644417,-0.300985 -1.03184,-1.18643 -1.30929,-1.82321 -0.353189,-0.810786 -0.656749,-1.64384 -0.950735,-2.47908 -0.421966,-1.19888 -0.820148,-2.40691 -1.19436,-3.62257 3.42763,-1.16591 17.0108,-1.59376 21.2213,0.0451144 -0.370186,1.20045 -0.763672,2.39342 -1.18043,3.57749 -0.293986,0.835207 -0.597546,1.66826 -0.950735,2.47905 -0.277443,0.636782 -0.664869,1.52222 -1.30926,1.82318 -0.449477,0.209968 -1.12946,0.255598 -1.62618,0.29641 -0.71777,0.058991 -1.43733,0.0903196 -2.15682,0.115831 -0.463899,0.016452 -0.925041,0.0294804 -1.38437,0.0392365l0 5.74861c0,0.320951 -0.267353,0.583548 -0.594152,0.583548l-2.77261 0c-0.326799,0 -0.594152,-0.262597 -0.594152,-0.583548l0 -5.74792c-0.469626,-0.00981669 -0.940888,-0.0230571 -1.41527,-0.039903l-3.02984e-005 0 3.02984e-005 0 0 -3.02984e-005 -3.02984e-005 0z"/>
   <path id="_119804944" class="fil3" d="M18.9017 13.9226c-0.496743,-0.040812 -1.12565,-0.0353583 -1.57509,-0.245296 -0.644417,-0.300985 -1.03184,-1.18643 -1.30929,-1.82321 -0.353189,-0.810786 -0.656749,-1.47326 -0.950735,-2.3085 -0.421966,-1.19888 -0.820148,-2.40691 -1.19436,-3.62257 3.42763,-1.16591 17.0108,-1.59376 21.2213,0.0451144 -0.370186,1.20045 -0.763672,2.39342 -1.18043,3.57749 -0.293986,0.835207 -0.597546,1.66826 -0.950735,2.47905 -0.277443,0.636782 -0.784275,1.31753 -1.42866,1.61848 -0.449477,0.209968 -1.12946,0.255598 -1.62618,0.29641 -1.20451,0.098985 -2.38858,0.0869565 -3.59227,0.112498l-0.0338433 5.75749c-0.0018482,0.320679 -0.267596,0.580063 -0.594152,0.583548l-2.38097 0.0255416c-0.326526,0.00348432 -0.592789,-0.262597 -0.594152,-0.583548l-0.0253295 -5.79939c-1.23805,-0.0258749 -2.54513,-0.0111801 -3.78506,-0.113074l-3.02984e-005 0 3.02984e-005 0 0 -3.02984e-005 -3.02984e-005 0z"/>
   <path id="_119804872" class="fil1" d="M34.3945 5.73828c-0.366581,1.18879 -0.758764,2.37761 -1.17091,3.54855 -0.286411,0.813725 -0.586275,1.63739 -0.930253,2.42706 -0.175519,0.402878 -0.534283,1.25308 -0.942584,1.44378 -0.326708,0.152613 -1.01985,0.201697 -1.38197,0.23145 -0.705529,0.0579912 -1.41651,0.0888047 -2.12383,0.113892 -2.26856,0.0805029 -4.44157,0.0805029 -6.7101,0 -0.707256,-0.0251174 -1.41827,-0.0559006 -2.12377,-0.113892 -0.362127,-0.0297531 -1.05526,-0.0788365 -1.38197,-0.23145 -0.408302,-0.190698 -0.767035,-1.0409 -0.942584,-1.44378 -0.343978,-0.789668 -0.643842,-1.61333 -0.930253,-2.42706 -0.417331,-1.18564 -0.81421,-2.38961 -1.18473,-3.5933 2.33537,-0.506257 12.0847,-2.36234 19.823,0.0447508l-3.02984e-005 0 3.02984e-005 0z"/>
   <path id="_119804800" class="fil2" d="M15.0057 5.60212c0.401757,1.29202 2.15913,6.83993 2.80479,7.14155 0.659052,0.307832 5.62509,0.365854 6.5967,0.374307l0 0.00130283 0.0826844 -0.000605969 0.082745 0.000605969 0 -0.00130283c0.971792,-0.00845326 5.93761,-0.0664748 6.59664,-0.374307 0.644084,-0.300863 2.39455,-5.823 2.80179,-7.13219 -7.25081,-2.09329 -16.0885,-0.598364 -18.9654,-0.00930162l3.02984e-005 0 0 -6.05969e-005z"/>
   <path id="_129341680" class="fil4" d="M15.0337 5.62193c0,0 1.94643,6.02666 9.18539,6.09495 7.23893,0.0682927 9.71459,-6.14628 9.71459,-6.14628 0,0 -8.08077,-2.50944 -18.9001,0.0513255l9.08953e-005 0 3.02984e-005 0 3.02984e-005 0z"/>
   <path id="_119805160" class="fil4" d="M15.0057 5.60212c0.401757,1.29202 2.15913,6.83993 2.80479,7.14155 0.659052,0.307832 5.62509,0.365854 6.5967,0.374307l0 0.00130283 0.0826844 -0.000605969 0.082745 0.000605969 0 -0.00130283c0.971792,-0.00845326 5.93761,-0.0664748 6.59664,-0.374307 0.644084,-0.300863 2.39455,-5.823 2.80179,-7.13219 -0.0722315,-0.0208453 -0.144887,-0.0407211 -0.217422,-0.0608696 -0.619967,1.94731 -2.02272,6.17949 -2.58437,6.4419 -0.659052,0.307832 -5.62484,0.365854 -6.59664,0.374307l0 0.00130283 -0.082745 -0.000605969 -0.0826844 0.000605969 0 -0.00130283c-0.97161,-0.00845326 -5.93764,-0.0664748 -6.5967,-0.374307 -0.561036,-0.262051 -1.9614,-4.48493 -2.58243,-6.43511 -0.0772913,0.0153916 -0.152098,0.0304196 -0.22236,0.0448114l0 -9.08953e-005z"/>
   <path id="_119805088" class="fil1" d="M24.503 13.2558l0.00478715 0c0.130162,0 0.236631,0.106469 0.236631,0.236631l0 5.9121c0,0.130162 -0.106469,0.236631 -0.236631,0.236631l-0.00478715 0c-0.130162,0 -0.236631,-0.106469 -0.236631,-0.236631l0 -5.9121c0,-0.130162 0.106469,-0.236631 0.236631,-0.236631z"/>
   <path id="_123965536" class="fil6" d="M25.7638 16.0598c-0.0039085,-0.0907438 0.0665657,-0.16755 0.15734,-0.171459 0.0907741,-0.0039085 0.16755,0.066596 0.171459,0.15734 0.00593849,0.136161 -0.044266,0.262354 -0.130132,0.356037 -0.085684,0.0933798 -0.206726,0.154158 -0.342796,0.160097l-0.00057567 3.02984e-005 0 0.000212089c-0.136191,0.0058779 -0.262294,-0.0443266 -0.355946,-0.130192 -0.0935616,-0.0857749 -0.154401,-0.207029 -0.160339,-0.343342 -0.015634,-0.360582 0.206393,-0.434237 0.428299,-0.507862 0.104408,-0.0346311 0.208908,-0.0692925 0.203999,-0.181912l-0.000151492 -0.00505984c-0.00336313,-0.0440236 -0.0233601,-0.0829874 -0.0534464,-0.110589 -0.0311165,-0.0285108 -0.073504,-0.045175 -0.119739,-0.0431753l-0.000363581 0c-0.0460536,0.00209059 -0.086805,0.0224511 -0.115376,0.0535979 -0.0285411,0.0311165 -0.0451144,0.0735949 -0.0431147,0.1198 0.0039085,0.0907741 -0.0665657,0.16755 -0.15734,0.171489 -0.0907741,0.0039085 -0.16755,-0.066596 -0.171459,-0.15737 -0.00593849,-0.136161 0.0442963,-0.262294 0.130162,-0.355976 0.0857446,-0.0935313 0.207059,-0.154401 0.343281,-0.160339l9.08953e-005 0c0.136191,-0.00590819 0.262233,0.0442963 0.355916,0.130162 0.0912286,0.0836843 0.151219,0.201091 0.159582,0.333283 0.000333283,0.00336313 0.000605969,0.00669595 0.000757461,0.0100591 0.0156946,0.360673 -0.206363,0.434298 -0.428329,0.507923 -0.104408,0.0346311 -0.208938,0.0693228 -0.203999,0.181851 0.0019997,0.0461445 0.0223602,0.0870171 0.0535676,0.115619 0.0311165,0.0285411 0.0735949,0.0452356 0.11983,0.0432359l0 0.000212089c0.0461748,-0.00221179 0.0870171,-0.0226026 0.115649,-0.05381 0.0285108,-0.0311165 0.0452053,-0.0735949 0.0431753,-0.119861z"/>
   <path id="_123965464" class="fil6" d="M25.7638 18.5951c-0.0039085,-0.0907438 0.0665657,-0.16752 0.15734,-0.171459 0.0907741,-0.0039085 0.16755,0.066596 0.171459,0.15734 0.00593849,0.136161 -0.044266,0.262354 -0.130132,0.356037 -0.085684,0.0933798 -0.206726,0.154158 -0.342796,0.160097l-0.00057567 3.02984e-005 0 0.000212089c-0.136191,0.00590819 -0.262294,-0.0443266 -0.355946,-0.130192 -0.0935616,-0.0857749 -0.154401,-0.207029 -0.160339,-0.343342 -0.015634,-0.360582 0.206393,-0.434237 0.428299,-0.507862 0.104408,-0.0346311 0.208908,-0.0692925 0.203999,-0.181912l-0.000151492 -0.00502954c-0.00336313,-0.0440539 -0.0233601,-0.0830177 -0.0534464,-0.11062 -0.0310862,-0.0285108 -0.073504,-0.045175 -0.119739,-0.0431753l-0.000363581 0c-0.0460536,0.00209059 -0.086805,0.0224511 -0.115376,0.0535979 -0.0285411,0.0311165 -0.0451144,0.0735949 -0.0431147,0.11983 0.0039085,0.0907438 -0.0665657,0.16752 -0.15734,0.171459 -0.0907741,0.0039085 -0.16755,-0.066596 -0.171459,-0.15737 -0.00593849,-0.136161 0.0442963,-0.262294 0.130162,-0.355976 0.0857446,-0.0935313 0.207059,-0.154401 0.343312,-0.160339l6.05969e-005 0c0.136191,-0.00590819 0.262233,0.0442963 0.355916,0.130162 0.0912589,0.0836843 0.15125,0.201091 0.159582,0.333283 0.000333283,0.00336313 0.000605969,0.00669595 0.000757461,0.0100591 0.0156946,0.360673 -0.206363,0.434298 -0.428329,0.507923 -0.104408,0.0346311 -0.208938,0.0693228 -0.203999,0.181881 0.0019997,0.0461142 0.0223602,0.0869868 0.0535676,0.115619 0.0311165,0.0285411 0.0735949,0.0452053 0.11983,0.0432056l0 0.000212089c0.0461748,-0.00221179 0.0870171,-0.0226026 0.115649,-0.05381 0.0285108,-0.0311165 0.0452053,-0.0735949 0.0431753,-0.119861z"/>
   <path id="_123965392" class="fil1" d="M25.4326 14.3638c0.0748068,-0.0832298 0.202969,-0.0900469 0.286199,-0.0152401 0.0832298,0.0748068 0.0900469,0.202969 0.0152704,0.286199 -0.0748068,0.0831995 -0.202999,0.0900469 -0.286199,0.0152401 -0.0831692,-0.0748068 -0.0900166,-0.202969 -0.0152704,-0.286199z"/>
   <path id="_123965320" class="fil1" d="M25.4326 16.8427c0.0748068,-0.0832298 0.202969,-0.0900772 0.286199,-0.0152704 0.0831995,0.0748068 0.0900469,0.202969 0.0152401,0.286199 -0.0748068,0.0832298 -0.202969,0.0900469 -0.286199,0.0152704 -0.0831692,-0.0748068 -0.0899863,-0.202969 -0.0152401,-0.286199z"/>
   <path id="_123965248" class="fil1" d="M25.4326 19.5891c0.0748068,-0.0832298 0.202969,-0.0900772 0.286199,-0.0152704 0.0831995,0.0748068 0.0900469,0.202969 0.0152401,0.286199 -0.0748068,0.0832298 -0.202969,0.0900469 -0.286199,0.0152704 -0.0831692,-0.0748068 -0.0899863,-0.202969 -0.0152401,-0.286199z"/>
   <path id="_123964768" class="fil6" d="M23.245 16.0599c0.0039085,-0.0907438 -0.0665657,-0.16755 -0.15734,-0.171459 -0.0907741,-0.0039085 -0.16755,0.066596 -0.171459,0.15734 -0.00593849,0.136161 0.044266,0.262354 0.130132,0.356037 0.085684,0.0933798 0.206726,0.154158 0.342796,0.160097l0.00057567 3.02984e-005 0 0.000212089c0.136191,0.0058779 0.262354,-0.0443266 0.356007,-0.130192 0.0935616,-0.0857749 0.154401,-0.207029 0.160339,-0.343342 0.015634,-0.360582 -0.206393,-0.434237 -0.428359,-0.507862 -0.104408,-0.0346311 -0.208908,-0.0692925 -0.203999,-0.181912l0.000151492 -0.00505984c0.00336313,-0.0440236 0.0233601,-0.0829874 0.0534464,-0.110589 0.0311165,-0.0285108 0.073504,-0.045175 0.119739,-0.0431753l0.000363581 0c0.0460536,0.00209059 0.086805,0.0224511 0.115376,0.0535979 0.0285411,0.0311165 0.045175,0.0735949 0.0431753,0.1198 -0.0039085,0.0907741 0.0665657,0.16755 0.15734,0.171489 0.0907741,0.0039085 0.16755,-0.066596 0.171459,-0.15737 0.00593849,-0.136161 -0.0442963,-0.262294 -0.130162,-0.355976 -0.0857446,-0.0935313 -0.207059,-0.154401 -0.343342,-0.160339l-9.08953e-005 0c-0.136191,-0.00590819 -0.262233,0.0442963 -0.355916,0.130162 -0.0912286,0.0836843 -0.151219,0.201091 -0.159582,0.333283 -0.000333283,0.00336313 -0.000605969,0.00669595 -0.000757461,0.0100591 -0.0156946,0.360673 0.206363,0.434298 0.428329,0.507923 0.104408,0.0346311 0.208938,0.0693228 0.203999,0.181851 -0.0019997,0.0461445 -0.0223602,0.0870171 -0.0535676,0.115619 -0.0311165,0.0285411 -0.0735949,0.0452356 -0.11983,0.0432359l0 0.000212089c-0.0461748,-0.00221179 -0.0870171,-0.0226026 -0.115649,-0.05381 -0.0285108,-0.0311165 -0.0452053,-0.0735949 -0.0431753,-0.119861z"/>
   <path id="_123964696" class="fil6" d="M23.245 18.5951c0.0039085,-0.0907438 -0.0665657,-0.16752 -0.15734,-0.171459 -0.0907741,-0.0039085 -0.16755,0.066596 -0.171459,0.15734 -0.00593849,0.136161 0.044266,0.262354 0.130132,0.356037 0.085684,0.0933798 0.206726,0.154158 0.342796,0.160097l0.00057567 3.02984e-005 0 0.000212089c0.136191,0.00590819 0.262354,-0.0443266 0.356007,-0.130192 0.0935616,-0.0857749 0.154401,-0.207029 0.160339,-0.343342 0.015634,-0.360582 -0.206393,-0.434237 -0.428359,-0.507862 -0.104408,-0.0346311 -0.208908,-0.0692925 -0.203999,-0.181912l0.000151492 -0.00502954c0.00336313,-0.0440539 0.0233601,-0.0830177 0.0534464,-0.11062 0.0310862,-0.0285108 0.073504,-0.045175 0.119739,-0.0431753l0.000363581 0c0.0460536,0.00209059 0.086805,0.0224511 0.115376,0.0535979 0.0285411,0.0311165 0.045175,0.0735949 0.0431753,0.11983 -0.0039085,0.0907438 0.0665657,0.16752 0.15734,0.171459 0.0907741,0.0039085 0.16755,-0.066596 0.171459,-0.15737 0.00593849,-0.136161 -0.0442963,-0.262294 -0.130162,-0.355976 -0.0857446,-0.0935313 -0.207059,-0.154401 -0.343372,-0.160339l-6.05969e-005 0c-0.136191,-0.00590819 -0.262233,0.0442963 -0.355916,0.130162 -0.0912589,0.0836843 -0.15125,0.201091 -0.159582,0.333283 -0.000333283,0.00336313 -0.000605969,0.00669595 -0.000757461,0.0100591 -0.0156946,0.360673 0.206363,0.434298 0.428329,0.507923 0.104408,0.0346311 0.208938,0.0693228 0.203999,0.181881 -0.0019997,0.0461142 -0.0223602,0.0869868 -0.0535676,0.115619 -0.0311165,0.0285411 -0.0735949,0.0452053 -0.11983,0.0432056l0 0.000212089c-0.0461748,-0.00221179 -0.0870171,-0.0226026 -0.115649,-0.05381 -0.0285108,-0.0311165 -0.0452053,-0.0735949 -0.0431753,-0.119861z"/>
   <path id="_123964624" class="fil1" d="M23.5762 14.3638c-0.0748068,-0.0832298 -0.202969,-0.0900469 -0.286199,-0.0152401 -0.0832298,0.0748068 -0.0900469,0.202969 -0.0152704,0.286199 0.0748068,0.0831995 0.202999,0.0900469 0.286199,0.0152401 0.0832298,-0.0748068 0.0900772,-0.202969 0.0152704,-0.286199z"/>
   <path id="_123964552" class="fil1" d="M23.5762 16.8427c-0.0748068,-0.0832298 -0.202969,-0.0900772 -0.286199,-0.0152704 -0.0831995,0.0748068 -0.0900469,0.202969 -0.0152401,0.286199 0.0748068,0.0832298 0.202969,0.0900469 0.286199,0.0152704 0.0832298,-0.0748068 0.0900469,-0.202969 0.0152401,-0.286199z"/>
   <path id="_123964480" class="fil1" d="M23.5762 19.5891c-0.0748068,-0.0832298 -0.202969,-0.0900772 -0.286199,-0.0152704 -0.0831995,0.0748068 -0.0900469,0.202969 -0.0152401,0.286199 0.0748068,0.0832298 0.202969,0.0900469 0.286199,0.0152704 0.0832298,-0.0748068 0.0900469,-0.202969 0.0152401,-0.286199z"/>
   <path id="_129335416" class="fil5" d="M34.35 15.1304c0,0 -5.21981,2.95064 -5.03218,3.01888 0.187638,0.0682321 4.81036,-1.04054 4.81036,-1.04054l0.221815 -1.97834z"/>
   <path id="_129334696" class="fil1" d="M12.3621 17.0916c-0.0852901,0.034116 -1.10877,-1.15995 -3.63336,-2.28577 0,0 2.30283,0.545857 3.92334,1.51816l0.017058 0.443508 -0.307044 0.324102z"/>
   <path id="_129333232" class="fil3" d="M36.0255 6.51753c0.651265,0.377609 1.29986,0.896561 1.98936,1.6037 3.47423,3.56322 5.97225,8.93819 6.59409,13.9134 0.625663,5.00772 -0.329859,9.39873 -2.6476,13.9391 0,0 -0.0239964,0.0699894 -0.101348,0.164339 -0.512225,-0.0715043 -1.03036,-0.187759 -1.53846,-0.33201 0.0466596,-0.10253 0.074928,-0.179397 0.0658385,-0.199879 -0.0103621,-0.0233904 -0.0937736,0.0476897 -0.205817,0.15937 -0.988092,-0.29141 -1.93186,-0.683321 -2.71119,-1.05036 -0.0111498,-0.112862 -0.0257234,-0.187517 -0.0448114,-0.18682 -0.0172398,0.000636267 -0.0404787,0.0530829 -0.0660809,0.134222 -1.02681,-0.490138 -1.74501,-0.92389 -1.86323,-0.996334l0.00103015 -0.00451447c2.27093,0.780185 6.10498,1.17064 6.10498,1.17064 5.17312,-10.642 1.58676,-21.9905 -5.57676,-28.3147l0 -3.02984e-005 0 -3.02984e-005 0 -9.08953e-005z"/>
   <path id="_129327424" class="fil1" d="M43.288 18.7992c2.26205,-0.255295 2.84554,2.23905 0.84978,3.07384l-0.84978 -3.07384z"/>
   <path id="_129891224" class="fil2" d="M44.1374 21.8861c0.737706,-1.14964 0.756552,-2.4203 -0.848901,-3.1048 0,0 -0.456809,2.25466 0.848901,3.1048z"/>
   <path id="_129886616" class="fil3" d="M44.0606 21.9809c0.893167,-1.13825 0.903287,-2.54401 -0.83051,-3.23318 0.689047,0.460779 1.2576,1.92219 0.799727,3.13922l0.0307832 0.0939554z"/>
   <path id="_129886112" class="fil3" d="M43.3779 19.2246c-0.197334,0.122709 -0.195213,0.482957 0.00469626,0.804423 0.19997,0.321497 0.522133,0.482684 0.719467,0.359976 0.197303,-0.122709 0.195183,-0.482957 -0.00475685,-0.804454 -0.199939,-0.321466 -0.522103,-0.482654 -0.719406,-0.359945z"/>
   <path id="_129330544" class="fil2" d="M35.3085 31.2986c0,0 0.366096,-0.757733 1.30262,-1.23451 0.936525,-0.476776 -0.647053,1.25154 -1.30262,1.23451z"/>
   <path id="_129330424" class="fil4" d="M42.0614 35.7752c-0.032995,0.0662021 -0.0662324,0.132465 -0.0999545,0.198455 0,0 -0.281412,0.828632 -2.05466,0.623633 0,0 0.515619,-0.912407 0.480685,-0.991274 -0.0349341,-0.0788668 -0.898773,0.917043 -0.898773,0.917043 0,0 -1.09111,0.0038176 -1.98203,-0.765035 0,0 -0.00363581,-1.23269 -0.081018,-1.22987 -0.0773519,0.00281775 -0.265717,1.00657 -0.265717,1.00657 -0.600939,-0.0799576 -1.29096,-0.299046 -1.69592,-0.65787 -0.144917,-0.128374 -0.168732,-0.301591 -0.0828662,-0.692986 0.0368429,-0.167914 0.0818058,-0.374398 0.140524,-0.627693 3.36367,1.51107 5.51374,2.03739 6.53977,2.21903l-3.02984e-005 0z"/>
   <path id="_129331048" class="fil4" d="M41.8753 19.9065c0,0 0,1.12583 1.51816,1.73992 0,0 -1.00642,-0.034116 -1.43287,-0.443508 -0.42645,-0.409392 -0.0852901,-1.29641 -0.0852901,-1.29641z"/>
   <path id="_119546360" class="fil1" d="M42.9452 23.2739c0.111286,0.0812604 0.135585,0.237267 0.0543857,0.348493 -0.0812907,0.111226 -0.237267,0.135525 -0.348553,0.0542948 -0.111195,-0.0811998 -0.135495,-0.237237 -0.0542645,-0.348462 0.0812301,-0.111226 0.237267,-0.135525 0.348432,-0.0543251zm-1.99312 2.80185c-0.0303287,0.086199 0.0149674,0.18076 0.101136,0.211119 0.0861687,0.0303287 0.18076,-0.0149371 0.211089,-0.101136 0.0303893,-0.0861687 -0.0149371,-0.18076 -0.101136,-0.211119 -0.0861687,-0.030359 -0.18076,0.0149674 -0.211089,0.101136zm1.58915 -0.41524c-0.0202394,0.0575064 0.00993789,0.120497 0.067414,0.140736 0.0574761,0.0202394 0.120497,-0.00993789 0.140736,-0.067414 0.0202697,-0.0574761 -0.00993789,-0.120497 -0.067414,-0.140767 -0.0574761,-0.0202091 -0.120497,0.00999848 -0.140736,0.0674443zm-0.302954 2.385c-0.0202394,0.0574761 0.00990759,0.120497 0.0673837,0.140706 0.0574761,0.0202999 0.120497,-0.00993789 0.140736,-0.0673837 0.0202697,-0.0575064 -0.00993789,-0.120497 -0.067414,-0.140736 -0.0574761,-0.0202394 -0.120497,0.00993789 -0.140706,0.067414zm0.75031 -0.765248c-0.0252992,0.0718073 0.0124527,0.150644 0.0842296,0.175943 0.0718073,0.0252992 0.150704,-0.0125133 0.175973,-0.0843205 0.0252992,-0.071777 -0.0125436,-0.150583 -0.0843205,-0.175882 -0.071777,-0.0252689 -0.150614,0.012483 -0.175882,0.0842599zm-2.57158 1.03457c-0.0354492,0.100621 0.0173913,0.210877 0.117952,0.246296 0.100621,0.0354492 0.210877,-0.0173913 0.246326,-0.118012 0.0354492,-0.10056 -0.0174519,-0.210816 -0.118043,-0.246266 -0.10056,-0.0354492 -0.210816,0.0173913 -0.246235,0.117982zm0.707559 -6.70432c0.0953189,0.0695955 0.116134,0.203393 0.0465384,0.298682 -0.0695652,0.0953189 -0.203424,0.116164 -0.298682,0.0465384 -0.0952886,-0.0695652 -0.116134,-0.203393 -0.0465687,-0.298652 0.0696258,-0.0953189 0.203424,-0.116164 0.298712,-0.0465687zm-1.99561 0.718861c0.0635055,0.0464172 0.0774125,0.135585 0.0310256,0.199121 -0.0464172,0.0635358 -0.135585,0.0774428 -0.199152,0.0310559 -0.0635661,-0.0464172 -0.0774428,-0.135616 -0.0310559,-0.199152 0.0464475,-0.0635358 0.135616,-0.0774428 0.199182,-0.0310256zm2.21079 2.05481c0.0635358,0.0464172 0.0774125,0.135616 0.0309953,0.199121 -0.0463869,0.0635661 -0.135555,0.0774731 -0.199121,0.0310256 -0.0635661,-0.0464172 -0.0774731,-0.135555 -0.0310256,-0.199121 0.0464172,-0.0635358 0.135616,-0.0774428 0.199152,-0.0310256zm-2.27202 1.89689c0.0952583,0.0695955 0.116104,0.203424 0.0465081,0.298712 -0.0695955,0.0952583 -0.203424,0.116104 -0.298682,0.0465384 -0.0952886,-0.0696258 -0.116134,-0.203424 -0.0465687,-0.298712 0.0695955,-0.0952583 0.203424,-0.116104 0.298743,-0.0465384zm0.768277 -1.90005c0.0793819,0.0579609 0.0968035,0.169489 0.0388123,0.248902 -0.0579609,0.0793819 -0.16958,0.0967732 -0.248962,0.038782 -0.0793516,-0.0579912 -0.0966823,-0.16958 -0.0387214,-0.248932 0.0579912,-0.0793516 0.169459,-0.0967732 0.248871,-0.0387517zm3.97891 -2.22027c0.0564763,0.0412059 0.0688077,0.120406 0.0275716,0.176852 -0.0412059,0.056446 -0.120406,0.0687774 -0.176852,0.0275413 -0.056446,-0.0412059 -0.0687774,-0.120376 -0.0275413,-0.176852 0.0412059,-0.056446 0.120406,-0.0687774 0.176822,-0.0275413z"/>
   <path id="_119682776" class="fil4" d="M37.9052 20.1868c-0.102045,-0.722193 -0.244236,-1.47232 -0.43654,-2.24493 1.3714,-0.507347 3.5454,-1.22139 5.75655,-1.58364 0.300833,0.809483 0.551886,1.62915 0.766217,2.44948 -2.42748,-0.000272686 -4.81248,0.95743 -6.0862,1.37909l-3.02984e-005 0z"/>
   <path id="_130621128" class="fil3" d="M42.057 15.7883c-1.15837,-2.85914 -2.97528,-5.90789 -5.60433,-9.00694 2.76909,2.02612 4.80321,5.10192 6.17415,8.201 -0.147735,0.488986 -0.535858,0.851598 -0.535858,0.851598 -0.0109983,-0.0154219 -0.0223602,-0.0305711 -0.0339342,-0.0457203l-3.02984e-005 6.05969e-005z"/>
   <path id="_7125608" class="fil5" d="M37.2863 17.9781c-0.106257,-0.419482 -0.227147,-0.845387 -0.364096,-1.27681 1.03009,-0.814695 3.05757,-1.97637 5.41948,-2.34171 0.291289,0.616634 0.55937,1.24478 0.802121,1.87996 -1.90577,0.447175 -4.197,1.1863 -5.72913,1.77861 -0.0430238,-0.0133313 -0.0857749,-0.0266626 -0.128374,-0.0400545z"/>
   <path id="_123310440" class="fil1" d="M37.0404 20.3163c0,0 3.43708,-2.19312 7.7378,-2.19664 0,0 0.064778,-1.83878 -1.09214,-3.3161 0,0 -3.96055,0.197818 -7.38433,3.33468 0,0 0.220088,1.09474 0.738645,2.17806l3.02984e-005 0z"/>
   <path id="_123310368" class="fil5" d="M37.4621 19.4872c0.0570216,-0.0309044 0.114013,-0.0612331 0.170277,-0.0909559 0.51577,-0.272383 1.04914,-0.513619 1.58915,-0.725708 1.53731,-0.603878 3.17773,-0.986547 4.81963,-1.04887 -0.0191486,-0.174973 -0.048326,-0.350038 -0.0793516,-0.501591 -0.121557,-0.593425 -0.344554,-1.1624 -0.681351,-1.65214 -0.130556,0.0146947 -0.262081,0.0349038 -0.387335,0.0551431 -0.52892,0.0855325 -1.05569,0.214483 -1.5687,0.375519 -1.54934,0.486381 -3.01042,1.28308 -4.26093,2.37473 0.0991062,0.400636 0.24063,0.825966 0.398606,1.21388z"/>
   <path id="_123310296" class="fil3" d="M44.0035 17.6232l0.0377215 -0.00157552c-0.0192092,-0.174973 -0.048326,-0.350007 -0.0793516,-0.50153 -0.121588,-0.593455 -0.344584,-1.16246 -0.681351,-1.65217 -0.130556,0.014725 -0.262081,0.0349038 -0.387335,0.0551431 -0.52892,0.0855325 -1.05569,0.214422 -1.5687,0.375519 -1.36061,0.427147 -2.65314,1.09371 -3.79479,1.98909 0.0281169,0.0397515 0.0577488,0.079291 0.0904711,0.118527 0,0 2.87962,-1.79109 5.31132,-1.85932 0,0 0.563702,0.532949 1.07202,1.47632z"/>
   <path id="_123310224" class="fil5" d="M37.4621 19.4872c0.0570216,-0.0309044 0.114013,-0.0612028 0.170277,-0.0909256 0.515801,-0.272413 1.04917,-0.513649 1.58912,-0.725738 0.0752613,-0.0295713 0.150704,-0.0585063 0.22645,-0.0869868 -0.305348,-0.577276 -0.521739,-1.15407 -0.655325,-1.55876 -0.60915,0.360339 -1.18876,0.776852 -1.72913,1.24857 0.0991062,0.400576 0.24057,0.825935 0.398606,1.21385z"/>
   <path id="_123310152" class="fil1" d="M36.7862 18.7885c0,0 1.60879,-1.08905 3.48986,-1.34498 0,0 -1.40767,0.477231 -3.34355,1.97873l-0.146311 -0.633752z"/>
   <path id="_119547512" class="fil1" d="M36.7628 17.0748c0.0852901,0.034116 1.10877,-1.15995 3.63336,-2.28577 0,0 -2.30283,0.545857 -3.92334,1.51816l-0.017058 0.443508 0.307044 0.324102z"/>
   <path id="_119541920" class="fil3" d="M43.7488 17.0916c0,0 -0.835843,-0.324102 -2.91692,0.187638 0,0 1.51816,-0.784669 2.54164,-0.818785l0.17058 0.34116 0.204696 0.289986z"/>
   <path id="_119542448" class="fil1" d="M37.5738 20.657c0,0 1.33053,-0.665263 3.70159,-1.50111 0,0 -2.0299,0.289986 -3.66747,0.887017l-0.17058 0.187638 0.136464 0.42645z"/>
   <path id="_125772112" class="fil1" d="M11.4574 20.5718c0,0 -1.33053,-0.665263 -3.70159,-1.50111 0,0 2.0299,0.289986 3.66747,0.887017l0.17058 0.187638 -0.136464 0.42645z"/>
   <path id="_119547824" class="fil1" d="M6.7314 22.6532c-0.118285,0.0706862 -0.156855,0.223784 -0.0862596,0.342009 0.0706862,0.118255 0.223784,0.156825 0.342069,0.086199 0.118194,-0.0706256 0.156794,-0.223754 0.0861384,-0.342009 -0.0706256,-0.118224 -0.223754,-0.156794 -0.341948,-0.086199zm1.72653 2.97358c0.0222693,0.0886229 -0.031571,0.178609 -0.120164,0.200909 -0.0885926,0.0222693 -0.178609,-0.0315407 -0.200879,-0.120164 -0.0222996,-0.0885926 0.0315407,-0.178609 0.120164,-0.200879 0.0885926,-0.0222996 0.178609,0.0315407 0.200879,0.120133zm-1.54413 -0.559824c0.0148462,0.0591122 -0.0209968,0.119073 -0.0801091,0.133919 -0.0590819,0.0148765 -0.119073,-0.0209968 -0.133919,-0.0800788 -0.0148765,-0.0591122 0.0209968,-0.119073 0.0801091,-0.133949 0.0590819,-0.0148462 0.119043,0.0210271 0.133919,0.0801091zm0.081927 2.40273c0.0148462,0.0591122 -0.0209968,0.119073 -0.0800788,0.133919 -0.0591122,0.0149068 -0.119073,-0.0209968 -0.133919,-0.0800788 -0.0149068,-0.0591122 0.0209968,-0.119073 0.0800788,-0.133919 0.0591122,-0.0148462 0.119073,0.0209968 0.133919,0.0800788zm-0.676625 -0.831147c0.0185729,0.0738373 -0.0262687,0.148856 -0.100076,0.167429 -0.0738373,0.0185729 -0.148917,-0.0263293 -0.167459,-0.100167 -0.0185729,-0.073807 0.0263596,-0.148796 0.100167,-0.167369 0.073807,-0.0185426 0.148826,0.026299 0.167369,0.100106zm2.46535 1.26711c0.0260264,0.103469 -0.036752,0.208393 -0.140161,0.234389 -0.103439,0.0260264 -0.208362,-0.036752 -0.234389,-0.140221 -0.0260264,-0.103378 0.0367823,-0.208302 0.140221,-0.234328 0.103409,-0.0260264 0.208332,0.036752 0.234328,0.140161zm-0.0868656 -6.74095c-0.101318,0.060506 -0.134374,0.191819 -0.0738676,0.293107 0.060506,0.101318 0.19185,0.134404 0.293137,0.0738676 0.101288,-0.060506 0.134374,-0.191819 0.0738676,-0.293107 -0.0605363,-0.101318 -0.19185,-0.134404 -0.293137,-0.0738676zm1.92089 0.899621c-0.0675352,0.0403878 -0.0895925,0.12789 -0.049235,0.195425 0.0403575,0.0675352 0.127859,0.0895925 0.195425,0.0492653 0.0675655,-0.0403575 0.0896228,-0.12789 0.0492653,-0.195425 -0.0403878,-0.0675655 -0.12789,-0.0896228 -0.195455,-0.0492653zm-2.39064 1.84239c-0.0675655,0.0403575 -0.0895925,0.12789 -0.049235,0.195425 0.0403575,0.0675655 0.127859,0.0896228 0.195425,0.049235 0.0675655,-0.0403575 0.0896228,-0.127859 0.049235,-0.195425 -0.0403575,-0.0675352 -0.12789,-0.0895925 -0.195425,-0.049235zm2.08756 2.09817c-0.101257,0.060506 -0.134343,0.19185 -0.0738373,0.293137 0.0605363,0.101288 0.19185,0.134374 0.293137,0.0738676 0.101288,-0.0605363 0.134374,-0.19185 0.0738676,-0.293137 -0.060506,-0.101288 -0.19185,-0.134374 -0.293168,-0.0738676zm-0.589941 -1.96276c-0.0843811,0.0504166 -0.112013,0.159855 -0.0615967,0.244266 0.0504166,0.0843811 0.159945,0.111983 0.244357,0.0615664 0.0843508,-0.0504469 0.111892,-0.159945 0.0614755,-0.244296 -0.0504166,-0.0843811 -0.159824,-0.111983 -0.244236,-0.0615361zm-3.75743 -2.57743c-0.0600212,0.035843 -0.079594,0.113559 -0.0437509,0.173549 0.035843,0.0600212 0.113559,0.079594 0.17358,0.0437206 0.0599909,-0.0358127 0.0795637,-0.113528 0.0437206,-0.173549 -0.035843,-0.0599909 -0.113559,-0.0795637 -0.173549,-0.0437206z"/>
   <path id="_122253232" class="fil7" d="M25.9473 13.0986c0.168247,-0.00318134 0.345251,-0.00684745 0.528435,-0.0110286 0.138646,-0.364763 0.397212,-0.68529 0.718679,-0.866293 0.12183,-0.0687774 0.289229,-0.170671 0.470747,-0.222269 0.88941,-0.253749 2.11677,0.184548 2.3953,0.922648 -0.268202,-0.0569611 -0.446538,-0.15834 -0.766308,-0.194516 -0.154673,-0.0174822 -0.729617,-0.0291168 -0.926526,0.0507196l-0.270535 0.0875928c0.0147856,0.070353 0.0318134,0.125617 0.0505075,0.171368 1.17149,-0.0462051 2.29156,-0.11774 2.80345,-0.228026 -0.343615,-0.560945 -0.766975,-0.896591 -1.28432,-1.169 -0.418724,-0.220603 -1.33922,-0.380124 -1.97706,-0.198273l-0.0424481 0.0121497c-0.322981,0.0920466 -0.560491,0.212422 -0.762763,0.353552 -0.18679,0.130374 -0.543554,0.442387 -0.667384,0.655567 -0.108529,0.187002 -0.22239,0.481654 -0.25175,0.571186 -0.00627178,0.0193304 -0.0122709,0.0409938 -0.0180276,0.0646266zm1.49605 -0.0369641c0.183609,-0.0057264 0.368732,-0.0119982 0.553219,-0.0189365 -0.0493561,-0.355613 -0.0474776,-0.73604 0.0386911,-1.03096 -0.0942887,0.0178155 -0.188274,0.0359642 -0.28226,0.05381 -0.0779276,0.0224208 -0.155613,0.0443872 -0.233449,0.066596 -0.180457,0.0513861 -0.153431,0.487835 -0.0762006,0.929495zm3.73268 -0.321891c0.143857,-0.0741403 0.341312,-0.401212 0.565884,-0.879836 -0.20303,0.121709 -0.302833,0.298743 -0.407029,0.486138 -0.0632934,0.11374 -0.106802,0.169429 -0.139433,0.297076 -0.00821088,0.0322678 -0.0134828,0.0649598 -0.0194213,0.0966217zm-3.3774 -1.39833c0.241569,-0.0687471 0.419603,-0.0277534 0.575488,-0.0722618 0.00466596,-0.00133313 0.482684,-0.641993 0.905893,-0.762793l0.127284 -0.036449c0.228208,-0.0650204 0.47411,0.0540524 0.538979,0.282048l0.0120891 0.0427208c0.0458112,0.160703 -0.0595667,0.292168 -0.245417,0.345099 0.0242993,-0.0656264 0.119073,-0.144372 0.0878049,-0.254386 -0.0292986,-0.103409 -0.180185,-0.177852 -0.293683,-0.145796l-0.0422966 0.0122103c-0.127314,0.0362975 -0.218179,0.199788 -0.181912,0.327102l0.0363884 0.127253c0.0564763,0.198364 0.301742,0.280866 0.520679,0.218573l0.0424784 -0.0120891c0.327708,-0.0934404 0.501772,-0.410695 0.40912,-0.736252l-0.00608998 -0.0209059c-0.0628389,-0.220573 -0.152462,-0.269989 -0.232843,-0.415392 0.413877,-0.0201788 1.00179,0.217512 1.12931,0.664354l0.0242387 0.0848659c0.169702,0.595849 -0.274473,0.831207 -0.436449,0.560218l0.0635661 -0.0181791c0.0873201,-0.0247235 0.182397,-0.164157 0.163642,-0.230086l-0.0241781 -0.084775c-0.0241479,-0.0845629 -0.210726,-0.146554 -0.30868,-0.118467 -0.172943,0.0491744 -0.279291,0.226966 -0.22745,0.408786l0.0181185 0.0636873c0.0859264,0.301227 0.477019,0.43757 0.787426,0.349068 0.386305,-0.110256 0.567944,-0.501803 0.457718,-0.887411l-0.0543554 -0.191153c-0.122709,-0.429662 -0.530768,-0.748977 -0.815179,-0.90865 -0.249992,-0.140039 -0.847084,-0.291835 -1.21694,-0.186244l-0.317952 0.0905014c-0.621542,0.177246 -1.58897,1.09099 -1.58167,1.5291l0.0848659 -0.0242993z"/>
   <path id="_122253160" class="fil7" d="M17.1917 11.7599c0.247235,0.540524 0.464748,0.91174 0.618845,0.98373 0.0419936,0.0196031 0.10153,0.0381457 0.176397,0.0557794 -0.013604,-0.0485381 -0.0192092,-0.103015 -0.0327829,-0.156188 -0.0326314,-0.127678 -0.07614,-0.183427 -0.139433,-0.297167 -0.109711,-0.197091 -0.214361,-0.382942 -0.439691,-0.504863 -0.0593849,-0.0321163 -0.120921,-0.0592334 -0.183336,-0.0812907zm0.989365 1.07772c0.590577,0.0990456 1.69302,0.163672 2.81827,0.205666 0.0197849,-0.0469626 0.0377215,-0.104136 0.0532343,-0.177882l-0.270595 -0.0875322c-0.196879,-0.0797758 -0.771731,-0.0682321 -0.926465,-0.0507499 -0.3198,0.0362975 -0.498076,0.137585 -0.766278,0.194516 0.278412,-0.738009 1.50586,-1.17637 2.39527,-0.922648 0.181427,0.0516285 0.348886,0.153583 0.470716,0.222239 0.322527,0.181669 0.58176,0.503802 0.720103,0.870141 0.184336,0.00396909 0.361097,0.00736252 0.527708,0.0103318 -0.00599909,-0.0248447 -0.0122103,-0.0475382 -0.018785,-0.067717 -0.0292077,-0.0895016 -0.143099,-0.384184 -0.251628,-0.571186 -0.12389,-0.21318 -0.480776,-0.525193 -0.667474,-0.655567 -0.202212,-0.14116 -0.439751,-0.261506 -0.762733,-0.353552l-0.0424481 -0.0122406c-0.637843,-0.18176 -1.55831,-0.0222088 -1.97712,0.198303 -0.526072,0.277019 -0.955128,0.619603 -1.30177,1.19788zm2.97112 0.21118c0.185123,0.00654446 0.370247,0.0125133 0.553189,0.0179367 0.0778973,-0.443418 0.105772,-0.882927 -0.0753219,-0.934525 -0.0778064,-0.022239 -0.155552,-0.0442963 -0.233419,-0.0666263 -0.0940766,-0.0178458 -0.188032,-0.0360248 -0.28223,-0.0537797 0.0865626,0.296622 0.0879866,0.679685 0.0377821,1.03699zm0.198758 -1.70732c-0.241539,-0.0687774 -0.419542,-0.0278443 -0.575458,-0.0722618 -0.00463566,-0.00133313 -0.482745,-0.642084 -0.905923,-0.762824l-0.127284 -0.036449c-0.228208,-0.0650204 -0.473958,0.0539615 -0.538949,0.282018l-0.0119982 0.0427814c-0.0459324,0.160582 0.0594152,0.292077 0.245357,0.345039 -0.0243599,-0.065687 -0.119133,-0.144311 -0.0878655,-0.254386 0.0293592,-0.103318 0.180215,-0.177852 0.293683,-0.145675l0.0423269 0.01218c0.127344,0.0362066 0.218209,0.199667 0.181881,0.327041l-0.0363581 0.127223c-0.0565066,0.198364 -0.301803,0.280927 -0.520769,0.218664l-0.0423572 -0.01218c-0.327768,-0.0934101 -0.501863,-0.410726 -0.40912,-0.736161l0.00602939 -0.0209665c0.0628692,-0.220573 0.152462,-0.269959 0.232965,-0.415452 -0.413937,-0.0201182 -1.00188,0.217634 -1.12937,0.664414l-0.024269 0.0848053c-0.169732,0.59597 0.274443,0.831328 0.436419,0.56037l-0.0635964 -0.0183003c-0.0872595,-0.0246932 -0.182366,-0.164187 -0.163581,-0.230056l0.0241781 -0.084775c0.0240873,-0.0845326 0.210726,-0.146463 0.308741,-0.118467 0.172913,0.0492047 0.279261,0.226935 0.227359,0.408847l-0.0180579 0.0636267c-0.0859567,0.301227 -0.477049,0.437509 -0.787456,0.349038 -0.386275,-0.110165 -0.567853,-0.501742 -0.457688,-0.88738l0.0543554 -0.191153c0.122648,-0.429632 0.530738,-0.749008 0.815149,-0.90865 0.250023,-0.1401 0.847084,-0.291774 1.21688,-0.186214l0.317982 0.0904711c0.621572,0.177276 1.58897,1.09099 1.58167,1.5291l-0.0848659 -0.024269z"/>
   <path id="_122252896" class="fil8" d="M27.7499 11.1923c0.394576,-0.129435 0.767278,-0.278836 1.11901,-0.443842 0.130738,-0.108953 0.273807,-0.202878 0.411029,-0.242054l0.127284 -0.036449c0.00681715,-0.0019391 0.0135737,-0.00369641 0.0204211,-0.00530223 0.377761,-0.207484 0.728708,-0.432116 1.05336,-0.667505 -0.277564,-0.0778064 -0.622512,-0.120982 -0.867687,-0.0509923l-0.317952 0.0905014c-0.548008,0.156279 -1.36488,0.885078 -1.54546,1.35564z"/>
   <path id="_122252824" class="fil8" d="M18.3473 9.91743c0.16143,0.115801 0.329798,0.228662 0.50559,0.337797 0.0846538,-0.0136949 0.167459,-0.0188759 0.244205,-0.0151492 -0.0250871,0.0453568 -0.0511438,0.0814119 -0.0769277,0.116194 0.10665,0.0630813 0.215785,0.124769 0.327617,0.184851 0.107438,-0.0815331 0.254325,-0.111104 0.394486,-0.071171l0.127284 0.036449c0.291168,0.0830783 0.608271,0.412331 0.779336,0.61012 0.251841,0.0892895 0.514013,0.170429 0.78679,0.242145 -0.00302984,-0.440782 -0.963278,-1.34567 -1.58155,-1.52201l-0.317982 -0.0904711c-0.356613,-0.101803 -0.924587,0.0356916 -1.18885,0.171247z"/>
   <path id="_122252560" class="fil8" d="M25.9473 13.0986l0.0231177 -0.000363581 0.00057567 0 0.00793819 -0.000181791 0.00790789 -9.08953e-005 0.00796849 -0.000181791c0.153916,-0.00296925 0.314892,-0.00639297 0.480927,-0.0102106 0.115679,-0.304348 0.314801,-0.577821 0.564339,-0.765217 -0.253598,0.00696864 -0.500954,0.0129374 -0.736343,0.0179973 -0.0348432,0.0429329 -0.0644751,0.0842296 -0.0866535,0.122436 -0.108529,0.187002 -0.22239,0.481654 -0.25175,0.571186 -0.00627178,0.0193304 -0.0122709,0.0409938 -0.0180276,0.0646266zm3.44108 -0.874564c0.315891,0.173004 0.564642,0.412937 0.67208,0.697621 -0.268202,-0.0569611 -0.446538,-0.15834 -0.766308,-0.194516 -0.154673,-0.0174822 -0.729617,-0.0291168 -0.926526,0.0507196l-0.270535 0.0875928c0.0147856,0.070353 0.0318134,0.125617 0.0505075,0.171368 0.677261,-0.0267232 1.33722,-0.0618088 1.87253,-0.108044l0.0431753 -0.0037873c0.342039,-0.0302984 0.630541,-0.0652931 0.836479,-0.105651l0.005787 -0.00115134c0.015634,-0.00309044 0.0308438,-0.00624148 0.0454779,-0.00939251 -0.16449,-0.268535 -0.347372,-0.485351 -0.549977,-0.668414 -0.287865,0.0321769 -0.634025,0.0598394 -1.01269,0.083654zm1.78818 0.515437c0.00539312,-0.00281775 0.0108468,-0.00593849 0.0163915,-0.00945311 0.00502954,-0.00318134 0.01015,-0.00666566 0.0153007,-0.0104227 0.0057567,-0.00418118 0.011574,-0.00866535 0.0174822,-0.0135737 0.00502954,-0.00418118 0.0100591,-0.00857446 0.0152098,-0.0132707 0.00569611,-0.00521133 0.0114528,-0.0106953 0.0173004,-0.0165126 0.00612028,-0.00608998 0.0123012,-0.0125133 0.0185729,-0.0192698 0.00560521,-0.00605969 0.011271,-0.0123315 0.0169671,-0.0189062 0.00642327,-0.00739282 0.0128465,-0.0150886 0.019391,-0.0231177 0.00545372,-0.00669595 0.0109377,-0.0135434 0.0164823,-0.0206938 0.00605969,-0.007817 0.01218,-0.0158461 0.0183609,-0.0241781 0.00684745,-0.00924102 0.0138161,-0.0188153 0.0207847,-0.0286926l0.0182397 -0.0263293c0.00721103,-0.0106045 0.0144827,-0.0214513 0.0218149,-0.0326617l0.0163915 -0.0254204c0.00784729,-0.0123315 0.0157855,-0.0250568 0.023754,-0.0380851l0.0181488 -0.0299954c0.00869565,-0.0145735 0.0174216,-0.0293592 0.0262687,-0.0446902l0.0134828 -0.0235722c0.0096955,-0.017058 0.0194819,-0.0345099 0.0293289,-0.0524466l0.0141494 -0.0259658c0.0107256,-0.0197849 0.0214816,-0.0398727 0.032389,-0.0606272l0.00842296 -0.0159976c0.0111195,-0.0212998 0.0224208,-0.0432662 0.0337222,-0.0655355l0.0146038 -0.028935c0.0112407,-0.0223905 0.0225117,-0.0451144 0.0339039,-0.0683836l0.00860475 -0.0175731c0.0126647,-0.0260264 0.025481,-0.052689 0.0383578,-0.0797758l0.00854416 -0.017967 0.0127859 -0.0273595c-0.202909,0.121709 -0.302681,0.298682 -0.406847,0.486017 -0.0632934,0.11374 -0.106802,0.169429 -0.139433,0.297076 -0.00821088,0.0322678 -0.0134828,0.0649598 -0.0194213,0.0966217l0.000545372 -0.000302984zm0.547402 -1.5927c-0.170671,0.360006 -0.324951,0.629238 -0.451204,0.763339 0.32795,-0.109408 0.497773,-0.427753 0.451204,-0.763339zm-3.74389 1.14537c-0.193728,0.00721103 -0.388062,0.0138161 -0.580639,0.0197546 -0.0352674,0.178397 -0.00624148,0.462899 0.0439024,0.749735l0.163854 -0.00518103 0.00863505 -0.000272686 0.00863505 -0.000272686 0.0229662 -0.000787759 0.00296925 -0.000121194 0.00863505 -0.000272686 0.00863505 -0.000272686 0.00863505 -0.000272686 0.00306014 -0.000121194 0.0142403 -0.000515073 0.00863505 -0.000272686 0.00863505 -0.000272686 0.000454476 -3.02984e-005 0.0255416 -0.000878655 0.00863505 -0.000272686 0.00296925 -0.000121194 0.0143312 -0.000515073 0.00863505 -0.000272686 0.0152098 -0.000545372 0.00215119 -9.08953e-005 0.00863505 -0.000272686 0.0400545 -0.00142403 0.00321163 -0.000121194 0.00863505 -0.000272686 0.00333283 -0.000121194 0.0136646 -0.000515073 0.000363581 0 0.00863505 -0.000333283 0.00248447 -9.08953e-005 0.012695 -0.000454476 0.00418118 -0.000151492 0.0132404 -0.000484775 0.00396909 -0.000151492 0.0139676 -0.000515073 0.00272686 -9.08953e-005 0.0146947 -0.000545372 0.00251477 -9.08953e-005 0.0154825 -0.00057567 0.00121194 -6.05969e-005 0.0161491 -0.00057567 0.000545372 -3.02984e-005 0.00863505 -0.000333283 0.000484775 0 0.00824117 -0.000363581c-0.0348129,-0.25078 -0.0442357,-0.513771 -0.0164823,-0.750553z"/>
   <path id="_122252488" class="fil8" d="M17.1938 11.7645l0.0202394 0.0439933 0.0309953 0.0664142 0.0168156 0.0355098c0.0112104,0.0235722 0.0223905,0.0468414 0.0334495,0.0695955l0.00987729 0.0202394c0.0113316,0.023148 0.0226026,0.0457809 0.0337525,0.0680806l0.0160279 0.0317528 0.0270868 0.0527799 0.0192092 0.0366914c0.00902893,0.0170883 0.017967,0.0339039 0.0268747,0.0503257l0.0143615 0.026299c0.0100288,0.0182397 0.0199667,0.0360248 0.0298137,0.0533858l0.0112104 0.019694c0.0116952,0.0203302 0.0232995,0.0400848 0.0347523,0.0591122l0.00545372 0.00899863c0.0123921,0.0204211 0.0246023,0.0400242 0.0366611,0.0588396l0.00269656 0.00424178c0.0126041,0.0195728 0.0250265,0.0382063 0.0372671,0.0559006l0.00218149 0.00318134c0.0124224,0.0178761 0.0246023,0.0347523 0.0366005,0.050659l0.00181791 0.00236328c0.0119376,0.0157552 0.0236631,0.0305105 0.0352068,0.0442357l0.0018482 0.00215119c0.0116952,0.0138464 0.0231177,0.0266323 0.0343887,0.0383275l0.000484775 0.000515073c0.0114225,0.0118467 0.0225723,0.0225117 0.0335101,0.0320557l0.000727162 0.000636267c0.0221482,0.0192698 0.0433571,0.0337828 0.0634449,0.0431753 0.0102712,0.00478715 0.0215422,0.00948341 0.0338736,0.0141494l9.08953e-005 3.02984e-005 0.000727162 0.000272686 0.00236328 0.000818058c0.0103924,0.0038782 0.0215119,0.0077261 0.0332677,0.0115134l0.00272686 0.000908953 0.00257537 0.000848356 0.000212089 6.05969e-005 0.00272686 0.000818058c0.00921072,0.00287835 0.019088,0.00569611 0.0290865,0.00854416l0.00306014 0.000908953 0.000939251 0.000242387 0.0145735 0.00402969 0.00318134 0.000818058 0.00318134 0.000818058 0.000272686 9.08953e-005 0.0261778 0.00666566 0.00345402 0.000878655 0.00342372 0.000818058 0.0104833 0.00254507c-0.013604,-0.0485381 -0.0192092,-0.103015 -0.0327829,-0.156188 -0.0326314,-0.127678 -0.07614,-0.183427 -0.139433,-0.297167 -0.109711,-0.197091 -0.214361,-0.382942 -0.439691,-0.504863 -0.0593849,-0.0321163 -0.120921,-0.0592334 -0.183306,-0.0812907l0.00206029 0.00457506zm5.65484 0.579276c-0.23245,-0.00469626 -0.478836,-0.0102106 -0.73298,-0.0168156 0.247599,0.188062 0.445114,0.461112 0.559642,0.764429l0.00178761 3.02984e-005c0.182942,0.0039388 0.35834,0.00727162 0.523799,0.0102409l0.00212089 6.05969e-005c-0.00599909,-0.0248447 -0.0122103,-0.0475382 -0.018785,-0.067717 -0.0292077,-0.0895016 -0.143099,-0.384184 -0.251628,-0.571186 -0.0215725,-0.0371459 -0.050356,-0.0773822 -0.083957,-0.119043zm-1.09765 -0.0268747c-0.19188,-0.00560521 -0.386366,-0.0117861 -0.580912,-0.0186638 0.0270868,0.237085 0.0173004,0.500197 -0.0178761,0.750583l0.00863505 0.000272686c0.179367,0.00633237 0.358612,0.0121194 0.535919,0.0173913l0.00863505 0.000272686c0.0502045,-0.285866 0.0795637,-0.570126 0.0455991,-0.749856zm-2.00657 -0.0837146c-0.372701,-0.0219664 -0.717952,-0.0474473 -1.0136,-0.076958 -0.202818,0.186275 -0.385517,0.407393 -0.549765,0.681412l0.0279958 0.00457506 0.00608998 0.00096955c0.0646872,0.0103621 0.13498,0.0203605 0.210362,0.0299651l3.02984e-005 0 0.033601 0.00418118c0.0763218,0.00945311 0.157673,0.0185426 0.243266,0.0272686l0.035631 0.00357522 0.0518406 0.00509014 0.0396303 0.00372671c0.13304,0.0124527 0.275019,0.0240873 0.424087,0.0350856l0.0449326 0.00330253 0.0796546 0.00563551 0.0164218 0.00115134 0.0870474 0.0058779 0.000636267 3.02984e-005 0.0468717 0.00302984 0.0445993 0.00287835 0.00266626 0.000181791 0.0475382 0.00293895 0.0479624 0.00296925 0.0640509 0.0038176 0.0475988 0.00281775c0.0927132,0.00539312 0.186941,0.0105136 0.282533,0.0154825l0.0504469 0.00257537 0.0507196 0.00260567 0.00469626 0.000212089 0.0752613 0.00366611 0.0431753 0.00209059c0.0950159,0.00454476 0.191032,0.00884714 0.287684,0.0130283l0.00124224 6.05969e-005 0.0076655 0.000333283 0.0444781 0.0018482 0.0522951 0.00221179 0.000333283 0 0.0818361 0.00336313 0.0699288 0.00278746 0.00533252 0.000212089 0.0150583 0.000605969 0.0376004 0.00148462 0.052689 0.0019997 0.0451144 0.00175731 0.0076655 0.000272686c0.0197849,-0.0469626 0.0377215,-0.104136 0.0532343,-0.177882l-0.270595 -0.0875322c-0.196879,-0.0797758 -0.771731,-0.0682321 -0.926465,-0.0507499 -0.3198,0.0362975 -0.498076,0.137585 -0.766278,0.194516 0.105499,-0.279624 0.34722,-0.516225 0.655204,-0.688471z"/>
   <path id="_165111944" class="fil1" d="M18.733 24.6625c-0.0137252,0 -0.0206029,-0.00687774 -0.0206029,-0.0206029l0.00824117 -2.83299c0,-0.0109377 0.00548402,-0.016452 0.0165126,-0.016452l0.791728 0c0.252931,0 0.452901,0.076958 0.6,0.230904 0.147069,0.153946 0.220573,0.362884 0.220573,0.626814 0,0.195183 -0.038479,0.364217 -0.115437,0.507226 -0.0769883,0.142948 -0.177337,0.252871 -0.301045,0.329859 -0.123708,0.076958 -0.258415,0.115498 -0.40409,0.115498l-0.313407 0 0 1.03915c0,0.0137252 -0.00687774,0.0206029 -0.0206029,0.0206029l-0.461869 0zm0.482472 -1.55873l0.313407 0c0.0879563,0 0.164218,-0.041933 0.228874,-0.125769 0.064566,-0.0838661 0.0968641,-0.193153 0.0968641,-0.327829 0,-0.107226 -0.0288441,-0.195183 -0.0865929,-0.26393 -0.0577185,-0.0687168 -0.137464,-0.103106 -0.239146,-0.103106l-0.313407 0.00415089 0 0.816482zm1.40206 1.55873c-0.0137555,0 -0.0206029,-0.00687774 -0.0206029,-0.0206029l0.00409029 -2.83299c0,-0.0109377 0.00548402,-0.016452 0.0165126,-0.016452l0.461839 0c0.010968,0 0.0164823,0.00551431 0.0164823,0.016452l0.00412059 2.83299c0,0.0137252 -0.00548402,0.0206029 -0.0165126,0.0206029l-0.465929 0zm1.60821 0.0412665c-0.148462,0 -0.283866,-0.0378124 -0.406211,-0.113437 -0.122284,-0.0755946 -0.220573,-0.175913 -0.294804,-0.300985 -0.0742009,-0.125133 -0.111316,-0.263263 -0.111316,-0.414452l0.00409029 -1.30723c0,-0.151159 0.0364187,-0.288653 0.109286,-0.412362 0.0728677,-0.123708 0.171156,-0.222693 0.294864,-0.296925 0.123708,-0.0742009 0.258415,-0.111316 0.40409,-0.111316 0.148462,0 0.283169,0.0371156 0.40409,0.111316 0.120982,0.0742312 0.217906,0.173216 0.290713,0.296925 0.0728677,0.123708 0.109317,0.261203 0.109317,0.412362l0.00412059 1.30723c0,0.151189 -0.0364187,0.28932 -0.109286,0.414452 -0.0728677,0.125072 -0.170429,0.22539 -0.292774,0.300985 -0.122345,0.0756249 -0.257718,0.113437 -0.406181,0.113437zm0 -0.498985c0.082442,0 0.154643,-0.0336616 0.216482,-0.101015 0.0618694,-0.0673534 0.0928041,-0.143675 0.0928041,-0.228874l-0.00415089 -1.30723c0,-0.0907135 -0.0288441,-0.167672 -0.0865929,-0.230904 -0.0577185,-0.0632025 -0.130586,-0.0948644 -0.218543,-0.0948644 -0.0852295,0 -0.158037,0.0309347 -0.218543,0.0927738 -0.0604757,0.0618694 -0.0907438,0.139555 -0.0907438,0.232995l0 1.30723c0,0.0907135 0.0302681,0.168399 0.0907438,0.232965 0.060506,0.0646266 0.133313,0.0969247 0.218543,0.0969247zm1.15876 0.457718c-0.0219967,0 -0.0330253,-0.0096349 -0.0330253,-0.0288744l-0.00409029 -2.80821c0,-0.0219664 0.010968,-0.0329647 0.032995,-0.0329647l0.371125 0 0.696894 1.62472 -0.0206332 -1.59176c0,-0.0219664 0.0123618,-0.0329647 0.0371156,-0.0329647l0.408241 0c0.0165126,0 0.0247235,0.0109983 0.0247235,0.0329647l0.00415089 2.81236c0,0.0164823 -0.00687774,0.0247235 -0.0206029,0.0247235l-0.362884 0 -0.713377 -1.51747 0.0288138 1.4845c0,0.0219664 -0.0123618,0.0329647 -0.0371156,0.0329647l-0.412331 0zm1.89271 0c-0.010968,0 -0.016452,-0.00687774 -0.016452,-0.0206029l0.00409029 -2.83299c0,-0.0109377 0.00548402,-0.016452 0.0165126,-0.016452l1.32368 0c0.0109983,0 0.0165126,0.00687774 0.0165126,0.0206029l0 0.461869c0,0.0109983 -0.00551431,0.016452 -0.0165126,0.016452l-0.845357 0 0 0.643327 0.845357 0c0.0109983,0 0.0165126,0.00545372 0.0165126,0.0164823l0.00409029 0.46599c0,0.010968 -0.00545372,0.0164823 -0.016452,0.0164823l-0.849507 0 0 0.721648 0.849507 0c0.0109983,0 0.016452,0.00684745 0.016452,0.0206029l0 0.47008c0,0.0109983 -0.00545372,0.0165126 -0.016452,0.0165126l-1.33198 0zm1.73192 0c-0.0109377,0 -0.016452,-0.00687774 -0.016452,-0.0206029l0.00409029 -2.83299c0,-0.0109377 0.00551431,-0.016452 0.0165126,-0.016452l1.32368 0c0.0110286,0 0.0165126,0.00687774 0.0165126,0.0206029l0 0.461869c0,0.0109983 -0.00548402,0.016452 -0.0165126,0.016452l-0.845357 0 0 0.643327 0.845357 0c0.0110286,0 0.0165126,0.00545372 0.0165126,0.0164823l0.00409029 0.46599c0,0.010968 -0.00545372,0.0164823 -0.016452,0.0164823l-0.849507 0 0 0.721648 0.849507 0c0.0109983,0 0.016452,0.00684745 0.016452,0.0206029l0 0.47008c0,0.0109983 -0.00545372,0.0165126 -0.016452,0.0165126l-1.33198 0zm1.73195 0c-0.010968,0 -0.0164823,-0.00687774 -0.0164823,-0.0206029l0.00824117 -2.83299c0,-0.0109377 0.00551431,-0.016452 0.0165126,-0.016452l0.832934 0c0.148462,0 0.28526,0.0364187 0.410332,0.109256 0.125102,0.0728374 0.224723,0.170459 0.298955,0.292804 0.0742312,0.122345 0.111347,0.260476 0.111347,0.414422 0,0.101682 -0.0150886,0.193122 -0.0453568,0.274201 -0.0302378,0.0811089 -0.06599,0.149826 -0.107226,0.206211 -0.0412059,0.0563551 -0.0783214,0.0982275 -0.111347,0.125769 0.148462,0.164945 0.222663,0.358764 0.222663,0.581427l0.00415089 0.845357c0,0.0137252 -0.00687774,0.0206029 -0.0206029,0.0206029l-0.46599 0c-0.010968,0 -0.0164823,-0.00412059 -0.0164823,-0.0123618l0 -0.853598c0,-0.0989547 -0.0350553,-0.184881 -0.105136,-0.257749 -0.0701409,-0.0728677 -0.156007,-0.109226 -0.257749,-0.109226l-0.272171 0 -0.00412059 1.21233c0,0.0137252 -0.00551431,0.0206029 -0.0164823,0.0206029l-0.46599 0zm0.486593 -1.7278l0.354613 0c0.0852295,0 0.160824,-0.0316316 0.226814,-0.0948644 0.0660203,-0.0632328 0.098985,-0.140161 0.098985,-0.230904 0,-0.0879563 -0.0322981,-0.163612 -0.0969247,-0.226814 -0.0645963,-0.0632328 -0.140857,-0.0948341 -0.228874,-0.0948341l-0.354613 0 0 0.647417zm-9.04435 4.68999c-0.00824117,0 -0.0123921,-0.00515073 -0.0123921,-0.0154825l0.00621118 -2.12983c0,-0.00824117 0.00412059,-0.0123921 0.0123921,-0.0123921l0.595243 0c0.1178,0 0.223209,0.0284199 0.316225,0.0852598 0.0929859,0.0568096 0.166369,0.131738 0.220088,0.224754 0.0537494,0.0929859 0.0805938,0.194274 0.0805938,0.303833 0,0.0888653 -0.0201485,0.17155 -0.0604454,0.247993 -0.0402969,0.0765035 -0.0883805,0.138494 -0.14416,0.186002 0.0599303,0.0599606 0.106438,0.129193 0.139494,0.207726 0.0331162,0.0785335 0.0496288,0.161218 0.0496288,0.247993 0,0.119891 -0.028935,0.22945 -0.0868353,0.328647 -0.0578397,0.0991971 -0.135888,0.178246 -0.234055,0.237146 -0.0981669,0.0589305 -0.20715,0.0883502 -0.327041,0.0883502l-0.554946 0zm0.365823 -1.30204l0.235631 0c0.0723224,0 0.130707,-0.0253598 0.175125,-0.0759582 0.0444478,-0.0506287 0.0666868,-0.105923 0.0666868,-0.165854 0,-0.0661415 -0.023754,-0.123527 -0.0713225,-0.172065 -0.0475382,-0.0485987 -0.104378,-0.0728677 -0.170489,-0.0728677l-0.235631 0 0 0.486744zm-0.00312074 0.92386l0.192244 0c0.074413,0 0.138494,-0.0273898 0.192183,-0.0821693 0.0537797,-0.0547796 0.0805938,-0.119376 0.0805938,-0.193789 0,-0.0743827 -0.0268141,-0.138464 -0.0805938,-0.192183 -0.0536888,-0.0537494 -0.11777,-0.0805938 -0.192183,-0.0805938l-0.189123 0 -0.00312074 0.548735zm1.63378 0.409211c-0.109529,0 -0.210816,-0.0284199 -0.303802,-0.0852901 -0.0930162,-0.0568096 -0.166914,-0.132768 -0.221663,-0.227844 -0.0547493,-0.0950765 -0.0821391,-0.199455 -0.0821391,-0.313104l0.00618088 -1.5501c0,-0.00824117 0.00415089,-0.0123921 0.0124224,-0.0123921l0.34719 0c0.00827147,0 0.0124224,0.00415089 0.0124224,0.0123921l0 1.5501c0,0.0702621 0.0222088,0.129677 0.0666263,0.178246 0.0444478,0.0485987 0.0987123,0.0728677 0.162763,0.0728677 0.0661718,0 0.121436,-0.024269 0.165854,-0.0728677 0.0444781,-0.0485684 0.0666566,-0.107984 0.0666566,-0.178246l0 -1.5501c0,-0.00824117 0.00412059,-0.0123921 0.0124224,-0.0123921l0.34722 0c0.00827147,0 0.0123618,0.00415089 0.0123618,0.0123921l0.00624148 1.5501c0,0.11574 -0.0273898,0.221148 -0.0821693,0.316225 -0.0547796,0.0950462 -0.128132,0.17052 -0.220088,0.226299 -0.091986,0.0558097 -0.194819,0.0837146 -0.308499,0.0837146zm0.871171 -0.0310256c-0.0103318,0 -0.0155128,-0.00515073 -0.0155128,-0.0154825l0.00309044 -2.12983c0,-0.00824117 0.00415089,-0.0123921 0.0124224,-0.0123921l0.34722 0c0.00824117,0 0.0123618,0.00415089 0.0123618,0.0123921l0.00312074 2.12983c0,0.0103318 -0.00412059,0.0154825 -0.0123921,0.0154825l-0.35031 0zm0.647902 0c-0.00824117,0 -0.0123618,-0.00515073 -0.0123618,-0.0154825l0.00306014 -2.12674c0,-0.0103015 0.00518103,-0.0154825 0.0155431,-0.0154825l0.344099 0c0.0103318,0 0.0154825,0.00518103 0.0154825,0.0154825l-0.00309044 1.76091 0.638661 0c0.0103015,0 0.0154825,0.00515073 0.0154825,0.0154825l0 0.350341c0,0.0103318 -0.00518103,0.0154825 -0.0154825,0.0154825l-1.00139 0zm1.2339 0c-0.0103318,0 -0.0155128,-0.00515073 -0.0155128,-0.0154825l0.00621118 -2.12983c0,-0.00824117 0.00412059,-0.0123921 0.0123921,-0.0123921l0.5797 -0.00309044c0.11371,-0.00206029 0.217543,0.0247841 0.311589,0.0805635 0.0940463,0.0558097 0.168974,0.130768 0.224784,0.224814 0.0558097,0.094016 0.0836843,0.197849 0.0836843,0.311559l0 0.889713c0,0.119891 -0.0289047,0.228935 -0.086805,0.327102 -0.0578397,0.0981669 -0.135373,0.176185 -0.23251,0.234055 -0.0971368,0.0578397 -0.206666,0.0878352 -0.328617,0.0898954l-0.554916 0.00309044zm0.362703 -0.381306l0.192213 0c0.0764732,0 0.14107,-0.0268747 0.193758,-0.0805938 0.052689,-0.0537494 0.0790486,-0.117831 0.0790486,-0.192244l0 -0.892834c0,-0.0661415 -0.024269,-0.123466 -0.0728677,-0.172065 -0.0485381,-0.0485381 -0.105893,-0.0718073 -0.172065,-0.069747l-0.216967 0.00312074 -0.00312074 1.40436zm1.09747 0.381306c-0.00824117,0 -0.0123921,-0.00515073 -0.0123921,-0.0154825l0.00309044 -2.12983c0,-0.00824117 0.00412059,-0.0123921 0.0123921,-0.0123921l0.995152 0c0.00827147,0 0.0124224,0.00518103 0.0124224,0.0154825l0 0.34725c0,0.00827147 -0.00415089,0.0123618 -0.0124224,0.0123618l-0.63554 0 0 0.483654 0.63554 0c0.00827147,0 0.0124224,0.00412059 0.0124224,0.0123921l0.00306014 0.350341c0,0.00824117 -0.00409029,0.0123618 -0.0123618,0.0123618l-0.638661 0 0 0.542554 0.638661 0c0.00827147,0 0.0123618,0.00515073 0.0123618,0.0154825l0 0.353431c0,0.00827147 -0.00409029,0.0123921 -0.0123618,0.0123921l-1.00136 0zm1.30204 0c-0.00824117,0 -0.0123618,-0.00515073 -0.0123618,-0.0154825l0.00618088 -2.12983c0,-0.00824117 0.00415089,-0.0123921 0.0124224,-0.0123921l0.626208 0c0.111589,0 0.214452,0.0273898 0.308468,0.0821391 0.0940463,0.0547796 0.168944,0.128162 0.224754,0.220148 0.0558097,0.0919557 0.0837146,0.195819 0.0837146,0.311559 0,0.0764429 -0.0113619,0.14516 -0.0340857,0.206151 -0.0227541,0.0609604 -0.0496288,0.112619 -0.0806544,0.155007 -0.030965,0.0423875 -0.0588699,0.0738676 -0.0836843,0.0945614 0.111589,0.124011 0.167399,0.269717 0.167399,0.437115l0.00312074 0.63554c0,0.0103318 -0.00518103,0.0154825 -0.0154825,0.0154825l-0.350341 0c-0.00824117,0 -0.0123921,-0.00309044 -0.0123921,-0.00930162l0 -0.641721c0,-0.074413 -0.0263596,-0.138979 -0.0790486,-0.193758 -0.0527193,-0.0547796 -0.117285,-0.0821391 -0.193758,-0.0821391l-0.204636 0 -0.00309044 0.911437c0,0.0103318 -0.00415089,0.0154825 -0.0123921,0.0154825l-0.350341 0zm0.365823 -1.29895l0.266626 0c0.0640509,0 0.120891,-0.0237843 0.17052,-0.0713225 0.0495985,-0.0475079 0.0743827,-0.105378 0.0743827,-0.17358 0,-0.0661415 -0.024269,-0.123012 -0.0728677,-0.17052 -0.0485381,-0.0475382 -0.105893,-0.0712922 -0.172034,-0.0712922l-0.266626 0 0 0.486714z"/>
  </g>
 </g>
</svg>
