<?xml version="1.0" encoding="UTF-8"?>
<!DOCTYPE svg PUBLIC "-//W3C//DTD SVG 1.1//EN" "http://www.w3.org/Graphics/SVG/1.1/DTD/svg11.dtd">
<!-- Creator: CorelDRAW 2020 (64-Bit) -->
<svg xmlns="http://www.w3.org/2000/svg" xml:space="preserve" width="129.436mm" height="197.988mm" version="1.1" style="shape-rendering:geometricPrecision; text-rendering:geometricPrecision; image-rendering:optimizeQuality; fill-rule:evenodd; clip-rule:evenodd"
viewBox="0 0 4544.68 6951.64"
 xmlns:xlink="http://www.w3.org/1999/xlink"
 xmlns:xodm="http://www.corel.com/coreldraw/odm/2003">
 <defs>
  <style type="text/css">
   <![CDATA[
    .fil0 {fill:none}
    .fil3 {fill:#4B3446}
    .fil1 {fill:#501D33}
    .fil2 {fill:#634C54}
    .fil8 {fill:#896E6B}
    .fil7 {fill:#D77D75}
    .fil6 {fill:#F9F9F9}
    .fil4 {fill:#FFCFA5}
    .fil5 {fill:#FFE0B3}
   ]]>
  </style>
 </defs>
 <g id="Слой_x0020_1">
  <metadata id="CorelCorpID_0Corel-Layer"/>
  <rect id="_166536576" class="fil0" width="4544.68" height="6951.64"/>
  <g id="_612434208">
   <g>
    <path class="fil1" d="M1909.03 1255.36c-703.31,-36.9 -1035.16,589.17 -1043.61,1235.62 -5.14,393.05 102.41,920.1 411.89,1194.62 0,0 70.6,70.61 107.76,-59.45 33.32,64.11 78.56,121.6 133.04,172.32 193.14,-189.7 455.77,-364.62 716.93,-368.42 287.04,-4.18 599.53,212.85 812.85,433.25 154.4,-100.05 281.5,-238.2 358.64,-417.37 345.58,-802.65 -274.99,-2188.7 -1497.5,-2190.56z"/>
    <path class="fil2" d="M1881.11 1298.08c-561.07,-35.91 -883.62,505.02 -928.33,1082.78 -35.72,461.5 74.67,949.32 337.5,1202.53 0,0 65.03,26.01 44.59,-172.79 0,0 49.38,179.75 230.77,342.81 187.52,-171.48 429.09,-319.89 669.42,-323.39 271.25,-3.95 565.22,189.64 776.75,396.93 152.69,-97.45 293.92,-245.88 374.27,-472.1 0,0 304.71,-1562.56 -1504.96,-2056.79z"/>
    <path class="fil3" d="M1053.11 3198.67c56.43,153.33 135.35,286.64 237.16,384.73 0,0 65.03,26.01 44.59,-172.79 0,0 49.38,179.75 230.77,342.81 187.52,-171.48 429.09,-319.89 669.42,-323.39 271.25,-3.95 565.22,189.64 776.75,396.93 152.69,-97.45 293.92,-245.88 374.27,-472.1 0,0 222.53,-1142.35 -844.25,-1782.49 -361.59,-96.03 -675.14,-164.07 -843.08,-186.1 -549.7,97.34 -870.14,989.92 -645.63,1812.39z"/>
   </g>
   <path class="fil1" d="M1203.88 2052.78c-21.21,514 48.85,971.71 48.85,971.71 0,0 19.2,397.8 335.76,611.15 98.85,66.63 286.32,156.44 491.2,201.25 171.84,37.57 215.01,37.47 386.99,-0.37 204.23,-44.93 390.93,-134.43 489.51,-200.88 316.56,-213.35 335.76,-611.15 335.76,-611.15 0,0 70.05,-457.72 48.85,-971.71 -8.12,-197.45 -44.82,-278.84 -178.49,-431.63 -424.42,-485.14 -1352.3,-477.99 -1779.94,0 -135.36,151.3 -170.37,234.19 -178.49,431.63z"/>
   <path class="fil4" d="M1274.04 2055.68c-9.16,222.26 -2.32,446.8 16.07,668.46 7.96,95.85 17.45,194.56 32.03,289.73l0.55 3.59 0.18 3.62c3.15,64.58 24.08,146.52 45.31,206.71 49.76,141.09 134.3,265.21 259.56,349.63 129.65,87.38 315.23,157.7 466.96,190.88 57.07,12.48 119.59,26.52 178.25,26.47 58.78,-0.05 121.47,-14.25 178.65,-26.83 151.24,-33.27 336.09,-103.41 465.36,-190.52 125.26,-84.42 209.8,-208.54 259.56,-349.63 21.23,-60.19 42.16,-142.13 45.31,-206.71l0.18 -3.62 0.55 -3.59c14.58,-95.17 24.07,-193.87 32.03,-289.73 18.39,-221.66 25.24,-446.2 16.07,-668.46 -7.58,-183.81 -40.44,-250.28 -161.18,-388.29 -396.86,-453.65 -1275.51,-445.67 -1674.75,0.58 -122.37,136.78 -153.1,204.29 -160.66,387.71z"/>
   <path class="fil5" d="M1766.51 1441.24c0,0 406.9,219.24 393.89,338.15 -13.01,118.91 -832.38,128.2 -832.38,128.2 0,0 115.2,-306.57 438.49,-466.36z"/>
   <path class="fil6" d="M1274.04 2055.68c-9.16,222.26 -2.32,446.8 16.07,668.46 7.96,95.85 17.45,194.56 32.03,289.73l0.55 3.59 0.18 3.62c3.15,64.58 24.08,146.52 45.31,206.71 7.76,21.99 16.36,43.57 25.83,64.65 -99.96,-474.58 -84.63,-1029.96 -68.52,-1262.19 18.36,-264.58 318.49,-543.38 552.52,-633.58 2.97,-2.74 5.56,-5.3 7.78,-7.69 -175.44,54.88 -333.92,148.04 -451.08,279 -122.37,136.78 -153.1,204.29 -160.66,387.71z"/>
   <path class="fil7" d="M1414.32 3248.5c48.82,124.97 127.26,234.41 240.01,310.41 124.67,84.03 303.14,151.65 449.04,183.55 54.88,12 115,25.5 171.41,25.46 56.52,-0.05 116.81,-13.7 171.79,-25.8 145.43,-31.99 323.2,-99.44 447.5,-183.21 100.28,-67.59 173.41,-161.63 222.71,-269.52 -48.06,73.61 -110.24,137.9 -187.94,187.77 -130.53,83.77 -317.2,151.22 -469.92,183.21 -57.73,12.1 -121.04,25.75 -180.4,25.8 -59.23,0.05 -122.36,-13.46 -179.99,-25.46 -153.21,-31.91 -340.62,-99.53 -471.54,-183.55 -91.78,-58.91 -161.9,-137.91 -212.68,-228.66z"/>
   <path class="fil7" d="M2803.31 3643.14c40.71,-20.45 79.15,-42.48 113.64,-65.72 125.26,-84.42 209.8,-208.54 259.56,-349.63 21.23,-60.19 42.16,-142.13 45.31,-206.71l0.18 -3.62 0.55 -3.59c14.58,-95.17 24.07,-193.87 32.03,-289.73 18.39,-221.66 25.24,-446.2 16.07,-668.46 -7.58,-183.81 -40.44,-250.28 -161.18,-388.29 -302.84,-346.17 -886.19,-423.49 -1323.02,-242.43 197.92,80.88 1306.33,609.99 1016.87,2218.18z"/>
   <path class="fil1" d="M1788 1300.26c0,0 -10.09,-62.83 -146.98,-78.51 -54.84,-6.28 -50.97,-23.02 -5.57,-34.7 66.05,-16.99 200,-15.82 249.91,60.44 53.51,81.75 -97.37,52.77 -97.37,52.77z"/>
   <path class="fil1" d="M1913.22 1273.71c0,0 -35.37,-94.61 44.64,-176.85 38.49,-39.55 17.8,-44.79 -24.5,-24.61 -61.55,29.37 -150.5,116.26 -139.82,206.77 11.45,97.03 119.68,-5.32 119.68,-5.32z"/>
   <path class="fil1" d="M1583.03 1400.32c1365.55,57.03 1950.48,1401.97 1330.83,2517.63 -78.92,142.09 -107.19,206.2 -85.55,239.75 43.4,67.26 248.18,-27.49 373.01,-137.63 0,0 356.72,-37.16 542.52,-564.83 269.53,-300.24 177.22,-958.76 106.24,-1230.29 -52.88,-202.28 -140.6,-390.75 -264.11,-547.85 -235.23,-299.19 -586.42,-467.61 -960.45,-519.39 -362.01,-50.11 -747.77,13.44 -1042.5,242.61z"/>
   <path class="fil2" d="M1529.11 1420.74c312.74,-123.2 813.64,26.86 1112.99,260.93 312.51,244.37 509.93,598.62 570.77,998.73 67.36,442.95 0.39,898.04 -279.16,1339.02 -28.68,45.24 -79.01,98.29 20.47,80.53 52.02,-9.28 312.14,-107.76 449.63,-635.43 0,0 -39.02,278.69 -144.92,470.07 0,0 427.33,-204.38 453.34,-772.92 0,0 18.58,52.02 26.01,157.93 0,0 118.91,-172.79 111.48,-633.57 -5.26,-326.31 -131.66,-822.22 -537.56,-1165.68 -413.08,-349.54 -1297.99,-440.16 -1783.05,-99.6z"/>
   <path class="fil8" d="M2625.02 1668.6c5.75,4.33 11.46,8.68 17.07,13.06 312.51,244.37 509.93,598.62 570.77,998.73 5.79,38.07 10.56,76.24 14.31,114.47 87.72,-785 -495.3,-1079.24 -602.16,-1126.27z"/>
   <path class="fil8" d="M2227.28 1458.9c135.72,48.18 265.47,114.71 373.7,192.06l-0.04 -0.48c-237.55,-310.14 121.99,-161.7 282.41,-101.26 -330.94,-300.64 19.35,-197.48 253.61,-149.57 -143.64,-87.44 -480.02,-167 -588.59,-178.02 50.18,31.11 89.21,61.8 87.86,81.41 -3.71,53.88 -505.37,-26.01 -505.37,-26.01 0,0 293.57,70.61 301,141.21 3.42,32.46 -96.09,40.96 -204.58,40.67z"/>
   <path class="fil3" d="M3235.79 2923.1c13.02,365.3 -73.37,735.53 -302.08,1096.31 -28.68,45.24 -79.01,98.29 20.47,80.53 52.02,-9.28 312.14,-107.76 449.63,-635.43 0,0 -39.02,278.69 -144.92,470.07 -13.88,-10.41 401.22,-223.97 453.34,-772.92 0,0 18.58,52.02 26.01,157.93 138.03,-267.45 98.66,-937.08 -72.08,-1227.14 59.52,261.4 12.24,481.05 -99.04,258.49 0,0 -9.29,468.21 -187.66,308.43 0,0 -52.39,215.84 -143.67,263.74z"/>
   <path class="fil3" d="M3097.06 1570.6c0,0 391.2,350.85 487.71,981.18 18.15,118.52 62.25,229.21 62.25,367.71 83.77,-496.67 -106.02,-1069.14 -549.96,-1348.9z"/>
   <path class="fil3" d="M3266.1 2220.88c0,0 167.22,436.62 31.59,659.58l126.34 -48.31c0,0 87.33,-250.83 -157.93,-611.28z"/>
   <ellipse class="fil5" cx="2119.55" cy="1903.12" rx="85.46" ry="42.73"/>
  </g>
 </g>
</svg>
