<?xml version="1.0" encoding="UTF-8"?>
<!DOCTYPE svg PUBLIC "-//W3C//DTD SVG 1.1//EN" "http://www.w3.org/Graphics/SVG/1.1/DTD/svg11.dtd">
<!-- Creator: CorelDRAW 2020 (64-Bit) -->
<svg xmlns="http://www.w3.org/2000/svg" xml:space="preserve" width="129.436mm" height="197.988mm" version="1.1" style="shape-rendering:geometricPrecision; text-rendering:geometricPrecision; image-rendering:optimizeQuality; fill-rule:evenodd; clip-rule:evenodd"
viewBox="0 0 772.54 1181.7"
 xmlns:xlink="http://www.w3.org/1999/xlink"
 xmlns:xodm="http://www.corel.com/coreldraw/odm/2003">
 <defs>
  <style type="text/css">
   <![CDATA[
    .fil0 {fill:none}
    .fil2 {fill:#4B3446}
    .fil1 {fill:#501D33}
    .fil6 {fill:#634C54}
    .fil7 {fill:#896E6B}
    .fil5 {fill:#D77D75}
    .fil3 {fill:#FFCFA5}
    .fil4 {fill:#FFE0B3}
   ]]>
  </style>
 </defs>
 <g id="Слой_x0020_1">
  <metadata id="CorelCorpID_0Corel-Layer"/>
  <rect id="_166536576" class="fil0" width="772.54" height="1181.7"/>
  <g id="_616624256">
   <path class="fil1" d="M197 357.33c0,0 7.58,93.49 -25.27,194.55 -32.85,101.07 15.79,152.23 15.79,152.23 0,0 0.47,-8.37 11.37,-19.58 0,0 1.41,11.26 8.13,26.07 9.24,-15.16 19.43,-29.45 30.41,-42.58 32.92,-39.36 87.9,-84.16 142.5,-84.95 54.73,-0.8 114.9,45.71 150.62,87.28 13.7,15.94 26.21,33.68 37.25,52.67 10.93,-14.64 22.51,-36.78 30.3,-69.75 1.58,0.32 8.37,14.53 9.79,22.27 25.6,-37.63 19.37,-61.98 2.75,-108.57 -19.61,-54.98 -52.15,-142.23 -49.5,-227 4.27,-136.81 -375.61,-147.73 -364.15,17.37z"/>
   <path class="fil2" d="M185.2 549.47c-9.62,34.08 -19.03,85.26 0.74,128.99 0,0 3.79,-9.16 21.48,-19.27 0,0 0.27,17.64 7.77,38.62 6.98,-10.45 14.41,-20.42 22.25,-29.79 32.92,-39.36 87.9,-84.16 142.5,-84.95 54.73,-0.8 114.9,45.71 150.62,87.28 11.62,13.52 22.4,28.34 32.14,44.12 12.73,-18.17 27.04,-46.93 29.25,-86.22 0,0 11.05,6.95 16.74,24 0,0 7.26,-14.84 4.74,-39.48 -2.53,-24.64 -54.01,-124.76 -59.69,-210.03 -5.69,-85.28 -168.02,-106.12 -168.02,-106.12l-164.87 48.01c-7.16,76.74 -15.16,132.32 -35.64,204.85z"/>
  </g>
  <path class="fil1" d="M204.8 348.99c-3.6,87.37 8.3,165.18 8.3,165.18 0,0 3.26,67.62 57.08,103.89 16.8,11.33 48.67,26.59 83.5,34.21 29.21,6.39 36.55,6.37 65.78,-0.06 34.72,-7.64 66.45,-22.85 83.21,-34.15 53.81,-36.27 57.08,-103.89 57.08,-103.89 0,0 11.91,-77.81 8.3,-165.18 -1.38,-33.56 -7.62,-47.4 -30.34,-73.37 -72.15,-82.47 -229.87,-81.25 -302.57,0 -23.01,25.72 -28.96,39.81 -30.34,73.37z"/>
  <path class="fil3" d="M216.73 349.48c-1.56,37.78 -0.39,75.95 2.73,113.63 1.35,16.29 2.97,33.07 5.44,49.25l0.09 0.61 0.03 0.62c0.54,10.98 4.09,24.91 7.7,35.14 8.46,23.98 22.83,45.08 44.12,59.43 22.04,14.85 53.59,26.81 79.38,32.45 9.7,2.12 20.33,4.51 30.3,4.5 9.99,-0.01 20.65,-2.42 30.37,-4.56 25.71,-5.66 57.13,-17.58 79.11,-32.39 21.29,-14.35 35.66,-35.45 44.12,-59.43 3.61,-10.23 7.17,-24.16 7.7,-35.14l0.03 -0.62 0.09 -0.61c2.48,-16.18 4.09,-32.96 5.44,-49.25 3.13,-37.68 4.29,-75.85 2.73,-113.63 -1.29,-31.25 -6.88,-42.54 -27.4,-66 -67.46,-77.11 -216.82,-75.76 -284.69,0.1 -20.8,23.25 -26.03,34.73 -27.31,65.91z"/>
  <path class="fil4" d="M300.44 245.03c0,0 69.17,37.27 66.96,57.48 -2.21,20.21 -141.49,21.79 -141.49,21.79 0,0 19.58,-52.11 74.54,-79.28z"/>
  <path class="fil5" d="M240.57 552.25c8.3,21.24 21.63,39.85 40.8,52.77 21.19,14.28 51.53,25.78 76.33,31.2 9.33,2.04 19.55,4.34 29.14,4.33 9.61,-0.01 19.86,-2.33 29.2,-4.39 24.72,-5.44 54.94,-16.9 76.07,-31.14 17.05,-11.49 29.48,-27.47 37.86,-45.81 -8.17,12.51 -18.74,23.44 -31.95,31.92 -22.19,14.24 -53.92,25.71 -79.88,31.14 -9.81,2.06 -20.58,4.38 -30.67,4.39 -10.07,0.01 -20.8,-2.29 -30.6,-4.33 -26.04,-5.42 -57.9,-16.92 -80.16,-31.2 -15.6,-10.01 -27.52,-23.44 -36.15,-38.87z"/>
  <path class="fil5" d="M251.42 559.85c0,0 -44.85,-227.09 146.55,-273.2 0,0 39.06,-9.03 75.53,9.36 37.54,18.93 59.29,65.07 62.18,138.45 0.49,12.46 15.18,24.22 17.35,33.02 0.13,-1.46 0.25,-2.92 0.37,-4.37 3.13,-37.68 4.29,-75.85 2.73,-113.63 -1.29,-31.25 -6.88,-42.54 -27.4,-66 -67.46,-77.11 -216.82,-75.76 -284.69,0.1 -20.8,23.25 -26.03,34.73 -27.31,65.91 -1.56,37.78 -0.39,75.95 2.73,113.63 1.35,16.29 2.97,33.07 5.44,49.25l0.09 0.61 0.03 0.62c0.54,10.98 4.09,24.91 7.7,35.14 0.14,0.4 0.28,0.79 0.42,1.18 8.91,4.68 18.27,9.94 18.27,9.94z"/>
  <ellipse class="fil4" cx="360.46" cy="323.55" rx="14.53" ry="7.26"/>
  <path class="fil5" d="M432.14 281.98c0,0 -87.21,-2.43 -124.99,89.59 16.35,-73.45 68.09,-98.35 110.39,-95.73 6.26,0.39 12.95,1.93 14.6,6.14z"/>
  <g id="_616651712">
   <path class="fil1" d="M472.58 183.56c96.94,-17.1 152.03,67.15 151.74,146.07 -0.13,34.79 -15.43,63.97 -29.82,91.23 -16.38,31.04 -31.84,64.34 -27.33,95.91 0,0 -37.27,-29.37 -36.64,-114.65 0.63,-85.28 -17.69,-150.34 -125.07,-125.07l2.05 -11.05 65.06 -82.43z"/>
   <path class="fil6" d="M471.31 191.93c0,0 72.64,-12.32 111.17,44.22 28.2,41.38 33.54,78.01 29.2,107.23 -7.71,51.94 -47.37,88.67 -53.2,145.44 0,0 -19.27,-37.58 -17.69,-90.33 1.58,-52.74 -0,-159.81 -128.86,-129.49l9.16 -14.53 50.22 -62.53z"/>
   <path class="fil2" d="M602.92 274.21c10.18,25.93 11.72,49.27 8.76,69.17 -7.71,51.94 -47.37,88.67 -53.2,145.44 0,0 -19.27,-37.58 -17.69,-90.33 0.15,-4.94 0.27,-10.36 0.26,-16.09 59.47,-24.65 64.97,-76.15 61.87,-108.19z"/>
   <path class="fil6" d="M572.58 351.63c0,0 0.47,24.16 -3.79,48.8 0,0 9.95,-14.37 13.58,-51.8l-8.05 -5.37 -1.74 8.37z"/>
   <path class="fil7" d="M545.2 381.71c-2.07,-28.94 -11.4,-80.09 -11.16,-81.79 0.63,-4.42 -18.32,-42.32 -58.43,-46.11 0,0 -12.95,-1.9 -12.32,-4.42 0.63,-2.53 4.74,-12.32 4.74,-12.32 54.55,-8.76 78.82,14.44 85.94,46.1 8.65,38.5 -6.85,88.69 -8.77,98.54z"/>
   <path class="fil2" d="M471.31 191.93c0,0 3.76,-0.64 10.01,-0.95 -14.01,4.93 0.6,14.67 0.6,14.67 -21.79,4.9 6.95,17.21 6.95,17.21 -33.79,6 -13.42,16.74 -13.42,16.74 -1.56,18.13 -46.04,16.7 -55.2,16.21l0.84 -1.34 50.22 -62.53z"/>
   <path class="fil1" d="M426.15 248.78c0,0 32.06,-36.64 104.07,-22.74 0,0 -25.9,-17.05 -82.43,-4.74l-17.61 13.58 -4.03 13.9z"/>
   <path class="fil1" d="M467.54 184.22c0,0 11.48,-21.16 4.5,-48.87 0,0 16.09,18.96 7.96,49l-6.12 4.12 -6.35 -4.24z"/>
   <path class="fil1" d="M477.17 186.09c-0.9,-64.97 -60.29,-81.83 -110.54,-54.96 0,0 -164.23,-9.48 -195.82,160.44 0,0 -43.42,61.28 -36.34,135 5.5,57.35 47.59,117.54 112.14,144.2 0,0 4.74,1.58 6.16,-2.21 0,0 -65.86,-115.91 9.94,-219.51 75.8,-103.59 142.76,-72.01 142.76,-72.01l71.7 -90.96z"/>
   <path class="fil6" d="M467.06 187.04c0.82,-56.83 -55.78,-73.9 -95.7,-46.11 0,0 -151.29,-1.26 -183.5,132.02 0,0 28.11,-42.32 88.75,-60.64 -73.09,38.92 -142.15,132.99 -128.58,219.48 7.37,46.93 37.07,89.83 86.1,117.99 0,0 -66.8,-114.81 34.9,-227.24 0,0 54.01,-76.43 133.6,-55.59l64.43 -79.91z"/>
   <path class="fil2" d="M208.05 250.78c25.53,-31.87 75.33,-64.06 136.03,-56.76 -20.62,-0.35 -60.21,12.85 -67.47,18.28 -31.34,9.47 -53.99,25.34 -68.56,38.48z"/>
   <path class="fil2" d="M467.06 187.04c0.46,-32.22 -17.53,-51.65 -40.47,-57.38 23.19,26.75 8.15,35.89 -20.93,20.56 0,0 30.16,42.8 -16.58,21.63 0,0 39.95,38.06 -17.84,20.06 0,0 35.22,15 36.32,47.06l0.29 21.51 59.22 -73.44z"/>
   <path class="fil7" d="M379.86 135.81c-2.9,1.5 -5.74,3.19 -8.5,5.12 0,0 -151.29,-1.26 -183.5,132.02 0,0 5.91,-8.89 18.13,-20.28 8.83,-21.33 20.17,-42.55 42.24,-61.41 38.43,-32.84 118.58,-60.32 159.95,-33.62 0,0 -17.37,-17.37 -28.32,-21.83z"/>
   <path class="fil7" d="M176.68 320.61c0,0 -9.48,42.95 3.47,38.85 12.95,-4.11 35.22,-43.27 35.22,-43.27 0,0 -15.32,58.11 -4.26,57.8 11.05,-0.32 33.32,-38.69 33.32,-38.69l-10.55 37.57c-2.46,4.81 -4.66,9.58 -6.63,14.32 -2.33,-1.7 -6.56,-0.14 -14.24,12.07 -19.88,31.58 -6.32,-39.21 -20.54,-35.26 -10.01,2.78 -25.67,33.34 -30.21,30.37 -7.16,-4.68 0.96,-52.44 14.43,-73.75z"/>
   <path class="fil7" d="M270.02 215.97c-70.58,40.92 -135.16,131.93 -121.99,215.81 7.34,46.72 36.82,89.46 85.47,117.62 -45.08,-35.46 -74.04,-87.47 -74.79,-138.47 -1.07,-72.43 42.73,-148.37 111.32,-194.97z"/>
   <path class="fil2" d="M218.12 415.44c8.65,-29.61 24.25,-61.48 50.91,-92.9 0,0 54.01,-76.43 133.6,-55.59l1.46 -1.8c-0.42,-10.71 -5.26,-37.22 -29.88,-37.99 -28.35,-0.89 -118.98,30.37 -156.08,188.29z"/>
   <path class="fil1" d="M348.3 142.51c0,0 46.43,-7.9 70.12,28.11 0,0 -10.74,-32.53 -43.59,-40.11l-7.26 5.05 -19.27 6.95z"/>
   <path class="fil1" d="M401.36 268.52c0,0 16.74,-51.48 -31.9,-77.06 0,0 49.27,8.84 44.22,69.48l-5.37 9.48 -6.95 -1.9z"/>
   <path class="fil1" d="M425.68 182.62c0,0 11.21,36.48 -14.21,75.64l18.63 -17.85c0,0 12.63,-24 -4.42,-57.8z"/>
   <path class="fil1" d="M444 161.46c0,0 12,37.9 -12.16,69.64l19.74 -16.9c0,0 9.63,-24.48 -7.58,-52.75z"/>
   <path class="fil1" d="M339.46 165.88c0,0 59.38,-7.58 77.7,45.16 -10.24,-45.21 -37.27,-54.01 -77.7,-45.16z"/>
   <path class="fil2" d="M543.68 439.86c-2.06,-12.17 -3.34,-26.13 -2.89,-41.37 1.58,-52.74 -0,-159.81 -128.86,-129.49l2.49 -3.95c13.84,-11.77 56.3,-42.36 101.1,-18.79 51.87,27.29 26.04,119.48 28.15,193.61z"/>
   <path class="fil1" d="M214.98 427.22c0,0 9.79,-88.12 68.54,-149.39 0,0 -28.74,33.79 -51.8,122.54l-5.68 13.9 -11.05 12.95z"/>
   <path class="fil1" d="M548.26 326.43c-1.11,2.41 -6.19,27.62 -9.67,55.63 -2.55,20.51 -2.96,42.27 -1.62,73.11l11.05 4.42c0,0 -3.87,-51.68 0.24,-133.16z"/>
   <path class="fil1" d="M411.71 270.73c0,0 37.58,-33.79 79.91,-31.27 0,0 -43.27,-9.16 -78.96,16.27l-4.03 10.11c0,0 -0.08,7.19 0.47,7.03 0.55,-0.16 2.61,-2.13 2.61,-2.13z"/>
   <path class="fil1" d="M449.05 222.95c0,0 14.08,-15.5 45.28,-16.95 0,0 -14.77,-5.52 -40.4,2.96l-2.83 4.82 -2.05 9.17z"/>
   <path class="fil1" d="M405.61 277c0,0 -87.21,-2.43 -124.99,89.59 16.35,-73.45 68.09,-98.35 110.39,-95.73 6.26,0.39 12.95,1.93 14.6,6.14z"/>
   <path class="fil2" d="M566.12 239.27c0,0 27,58.11 13.42,129.81l11.84 -12c0,0 10.42,-68.54 -25.27,-117.81z"/>
   <path class="fil7" d="M239.56 199.04c0,0 36.32,-24.16 83.06,-32.06 0,0 -30,-0 -61.75,10.11l-9.32 4.9 -12 17.06z"/>
   <path class="fil2" d="M336.99 213.72c0,0 -67.27,14.84 -107.7,77.38 15.95,-39.42 54.9,-74.28 107.7,-77.38z"/>
   <path class="fil1" d="M178.12 483.13c0,0 23.06,50.85 57.17,76.12l6 -8.21c0,0 -35.69,-28.43 -63.17,-67.9z"/>
  </g>
 </g>
</svg>
