<?xml version="1.0" encoding="UTF-8"?>
<!DOCTYPE svg PUBLIC "-//W3C//DTD SVG 1.1//EN" "http://www.w3.org/Graphics/SVG/1.1/DTD/svg11.dtd">
<!-- Creator: CorelDRAW 2020 (64-Bit) -->
<svg xmlns="http://www.w3.org/2000/svg" xml:space="preserve" width="129.436mm" height="197.988mm" version="1.1" style="shape-rendering:geometricPrecision; text-rendering:geometricPrecision; image-rendering:optimizeQuality; fill-rule:evenodd; clip-rule:evenodd"
viewBox="0 0 2946.25 4506.65"
 xmlns:xlink="http://www.w3.org/1999/xlink"
 xmlns:xodm="http://www.corel.com/coreldraw/odm/2003">
 <defs>
  <style type="text/css">
   <![CDATA[
    .fil0 {fill:none}
    .fil3 {fill:#4B3446}
    .fil1 {fill:#501D33}
    .fil2 {fill:#634C54}
    .fil6 {fill:#896E6B}
    .fil7 {fill:#A78689}
    .fil5 {fill:#D77D75}
    .fil4 {fill:#FFCFA5}
   ]]>
  </style>
 </defs>
 <g id="Слой_x0020_1">
  <metadata id="CorelCorpID_0Corel-Layer"/>
  <rect id="_166536576" class="fil0" width="2946.25" height="4506.65"/>
  <g id="_612454128">
   <path class="fil1" d="M2639.96 678.5c0,0 4.82,98.77 -101.18,219.22 0,0 34.94,-3.61 74.68,-13.25 0,0 -43.36,218.02 -389.06,263.79l-78.29 -142.13 57.82 -244.51c139.49,6.58 290.31,16.57 436.03,-83.11z"/>
   <path class="fil2" d="M2237.66 802.56c0,0 191.52,33.72 355.33,-50.59 0,0 -81.91,166.22 -245.72,190.31 0,0 103.59,2.41 193.93,-10.84 0,0 -54.2,132.5 -297.51,162.61 0,0 -45.77,-97.57 -40.95,-113.22 4.82,-15.66 34.93,-178.27 34.93,-178.27z"/>
   <path class="fil3" d="M2237.66 802.56c0,0 117.44,53 266.2,12.05 0,0 -69.26,100.58 -156.59,127.68 0,0 59.02,20.47 149.36,7.22 0,0 -45.77,104.8 -252.95,144.54 0,0 -45.77,-97.57 -40.95,-113.22 4.82,-15.66 34.93,-178.27 34.93,-178.27z"/>
   <path class="fil1" d="M780.46 1330.79c-13.75,333.22 31.67,629.95 31.67,629.95 0,0 12.45,257.89 217.67,396.2 64.08,43.19 185.62,101.42 318.44,130.47 111.4,24.36 139.39,24.29 250.88,-0.24 132.4,-29.13 253.43,-87.15 317.34,-130.22 205.22,-138.31 217.67,-396.2 217.67,-396.2 0,0 45.42,-296.73 31.67,-629.95 -5.27,-128 -29.05,-180.77 -115.71,-279.82 -275.14,-314.51 -876.68,-309.87 -1153.91,0 -87.76,98.09 -110.45,151.82 -115.71,279.82z"/>
   <path class="fil4" d="M825.94 1332.67c-5.94,144.08 -1.5,289.65 10.42,433.35 5.16,62.14 11.31,126.13 20.76,187.83l0.36 2.33 0.11 2.35c2.04,41.86 15.61,94.98 29.37,134.01 32.26,91.47 87.07,171.93 168.27,226.66 84.05,56.65 204.36,102.23 302.72,123.74 37,8.09 77.53,17.19 115.56,17.16 38.1,-0.03 78.75,-9.24 115.81,-17.39 98.04,-21.57 217.88,-67.04 301.68,-123.51 81.2,-54.73 136.01,-135.19 168.27,-226.66 13.76,-39.02 27.33,-92.14 29.37,-134.01l0.11 -2.35 0.36 -2.33c9.45,-61.7 15.6,-125.69 20.76,-187.83 11.93,-143.7 16.36,-289.27 10.42,-433.35 -4.91,-119.16 -26.22,-162.25 -104.49,-251.72 -257.28,-294.09 -826.89,-288.92 -1085.72,0.38 -79.33,88.67 -99.25,132.44 -104.16,251.35z"/>
   <path class="fil5" d="M916.88 2105.95c31.65,81.02 82.5,151.97 155.6,201.23 80.82,54.47 196.52,98.31 291.11,118.99 35.58,7.78 74.55,16.53 111.12,16.5 36.64,-0.03 75.73,-8.88 111.37,-16.73 94.28,-20.74 209.52,-64.46 290.11,-118.77 65.01,-43.82 112.42,-104.78 144.38,-174.72 -31.16,47.72 -71.46,89.4 -121.84,121.73 -84.62,54.31 -205.63,98.03 -304.64,118.77 -37.43,7.84 -78.47,16.7 -116.95,16.73 -38.4,0.03 -79.33,-8.72 -116.69,-16.5 -99.33,-20.68 -220.82,-64.52 -305.69,-118.99 -59.5,-38.19 -104.96,-89.41 -137.88,-148.24z"/>
   <path class="fil5" d="M827.2 1308.95c13.09,-26.05 35.08,-61.02 70.65,-96.58 0,0 39.75,21.68 120.45,12.04 0,0 -10.84,-28.91 -15.66,-57.82 0,0 119.24,72.27 319.19,46.98l20.48 -10.84 140.93 39.75c0,0 215.61,-59.02 478.19,2.41 0,0 169.83,142.13 131.29,455.3 0,0 8.99,-7.88 23.48,-21.72 7,-115.08 8.85,-230.92 4.12,-345.81 -4.91,-119.16 -26.22,-162.25 -104.49,-251.72 -257.28,-294.09 -826.89,-288.92 -1085.72,0.38 -73.82,82.51 -96.2,126.15 -102.9,227.63z"/>
   <path class="fil1" d="M1373.37 392.36c-6.02,-3.01 92.14,-6.63 167.43,-69.86 0,0 -7.23,40.95 -60.22,91.54l-31.32 18.07 -75.88 -39.75z"/>
   <path class="fil1" d="M2083.93 610.36c-6.33,-2.29 90.75,-17.3 158.16,-88.87 0,0 -2.41,41.52 -49.16,97.93l-29 21.59 -80 -30.65z"/>
   <path class="fil1" d="M819.44 1389.48c0,0 -154.16,-185.49 -187.28,-331.84 0,0 -4.82,-79.5 187.9,-296.31 0,0 -6.03,-75.88 -0.91,-87.33 13.55,-33.73 173.14,-184.89 357.43,-288.48 0,0 89.13,-20.47 284.26,20.48 0,0 148.15,-51.8 379.42,-73.48 0,0 354.12,250.53 561.29,860.01 0,0 -24.09,248.13 -119.24,397.49 0,0 -119.24,107.2 -264.99,157.79 0,0 86.73,-190.92 113.22,-404.11 0,0 -53.6,-131.9 -110.82,-225.24 0,0 -224.64,-11.44 -573.95,46.37 0,0 -57.82,-5.42 -146.95,-43.97l-4.22 25.3c0,0 -149.36,-0.6 -234.28,-63.84l7.83 24.69c0,0 -85.21,10.54 -146.64,-18.97 0,0 -4.52,44.27 11.14,94.25 0,0 -37.94,0.9 -66.25,-20.78 0,0 -51.8,53.3 -46.97,227.96z"/>
   <path class="fil2" d="M785.38 1273.53c0,0 -77.09,-110.81 -107.8,-219.82 0,0 34.03,-100.28 161.7,-252.04l38.86 39.44c-18.61,-40.69 -28.21,-101.14 -22.3,-148.75 0,0 171.04,-187.9 349.31,-272.22 0,0 95.15,-8.43 205.97,15.66 0,0 -149.36,38.55 -328.83,181.88 0,0 322.81,-195.13 740.77,-234.88 0,0 297.51,185.5 533.6,821.47 0,0 -20.48,186.7 -107.2,354.12 0,0 -121.66,91.54 -166.22,112.02 0,0 62.63,-128.88 93.95,-327.62 0,0 -93.95,-238.49 -214.4,-367.37l33.73 106c0,0 -249.03,-7.53 -551.36,47.88 -70.8,-15.12 -103.12,-36.04 -134.64,-79.72 -44.34,-61.45 -72.94,-157.64 -81.28,-256.04 0,0 -12.04,160.2 38.55,293.9 0,0 -116.84,-99.97 -214.4,-319.19 0,0 61.43,204.17 131.29,318.59 0,0 -172.85,-20.48 -278.24,-208.98 23.69,81.79 66.88,145.82 118.34,188.21 0,0 -71.97,3.01 -138.82,-46.98 0,0 -6.33,75.28 6.62,119.55 0,0 -24.08,-4.51 -40.05,-35.23 0,0 -55.09,63.54 -67.14,170.14z"/>
   <path class="fil3" d="M1825.15 384.16c16.06,10.68 123.5,86.14 255.41,275.69 -134.17,0.71 -645.06,-37.11 -454.21,-88.01 171.55,-45.75 196.04,-147.28 198.8,-187.68z"/>
   <path class="fil3" d="M2356.18 1208.22c-3.49,27.67 -27.37,196.97 -106.73,350.17 0,0 -121.66,91.54 -166.22,112.02 0,0 60.85,-125.22 92.58,-319.13 92.28,-22.45 156.04,-106.03 180.36,-143.07z"/>
   <path class="fil6" d="M779.89 1265.36c-18.15,-27.5 -76.54,-120.2 -102.31,-211.65 0,0 34.03,-100.28 161.7,-252.04l1.9 1.93c-12.79,19.71 -76.82,121.28 -125.39,251.86 0,0 25.75,109.42 64.09,209.9z"/>
   <path class="fil3" d="M785.38 1273.53c0,0 -35.64,-51.25 -68.12,-118.32 93.94,3.06 158.46,-111.33 168.24,-129.77 -1.18,19.07 -3.62,76.67 7.07,113.18 0,0 -24.08,-4.51 -40.05,-35.23 0,0 -55.09,63.54 -67.14,170.14z"/>
   <path class="fil6" d="M1099.24 607.95c71.48,-39.88 361.96,-190.74 723.82,-225.15 -13.58,-3.01 -691.61,210.08 -726.63,227.01 0.92,-0.62 1.88,-1.24 2.81,-1.85z"/>
   <path class="fil6" d="M876.41 837.22c-17.47,-40.59 -26.3,-98.74 -20.57,-144.86 0,0 171.04,-187.9 349.31,-272.22 0,0 95.15,-8.43 205.97,15.66 0,0 -3.32,0.86 -9.52,2.78l-184.7 3.8c-121.66,51.79 -331.24,249.33 -331.24,249.33 -10.09,54.85 -8.49,105.45 -0.9,153.88 -4.23,-3.43 -2.15,-1.59 -8.34,-8.37z"/>
   <path class="fil3" d="M1447.32 1128.9l-2.17 0.39c-70.8,-15.12 -103.12,-36.04 -134.64,-79.72 -22.06,-30.58 -40.23,-69.76 -53.94,-113.53 36.01,76.65 105.41,153.5 146.43,104.98l44.31 87.88zm-215.95 -213.37c4.55,52.36 14.72,114.57 36.41,171.91 0,0 -85.04,-72.79 -170.6,-230.29 18.2,25.61 72.5,97.44 102.27,87.52 17.7,-5.9 27.02,-18.16 31.92,-29.14zm-138.35 -30.39c24.07,65.25 56.81,144.63 91.65,201.7 0,0 -160.72,-19.07 -266.7,-189.46 17.65,19.96 99.96,107.96 141.76,62.95 23.56,-25.38 31.36,-53.48 33.29,-75.19zm-125.54 119.59c17.28,23.77 36.62,44.3 57.29,61.33 0,0 -59.57,2.49 -120.65,-34.7 20.61,6.76 56.18,12.28 63.36,-26.63z"/>
   <path class="fil6" d="M2090.83 1666.63c-2.72,1.43 -5.27,2.71 -7.6,3.78 0,0 62.63,-128.88 93.95,-327.62 0,0 -89.46,-227.06 -205.71,-357.81l-1.43 -2.99c0,0 189.11,173.45 258.97,349.31 0,0 -26.68,182.34 -138.19,335.33z"/>
   <path class="fil3" d="M2056.61 626.28c57.54,78.6 120.77,179.38 183.75,306.83 -193.21,-75.9 -381.1,-78.19 -381.1,-78.19l-384.24 224.04c-20.48,-20.48 196.33,-420.37 226.45,-446.87 30.11,-26.5 150.56,-6.02 205.97,-25.3 21.62,-7.52 79.71,2.74 149.17,19.49z"/>
   <path class="fil3" d="M1963.87 978.83l32.64 102.58c0,0 -246.53,-7.45 -546.8,47.05 53.5,-22.18 302.5,-122 514.08,-149.78l0.08 0.14z"/>
   <path class="fil1" d="M1290.93 665.24c0,0 332.44,-163.82 445.67,-195.13 0,0 144.54,24.09 445.67,142.13 0,0 81.91,-28.91 180.68,-168.63 0,0 77.09,226.45 -122.86,399.89l-464.94 -71.07 -331.24 341.48c0,0 -32.52,-263.18 -152.97,-448.68z"/>
   <path class="fil2" d="M1292.13 672.47l443.26 -158.99c0,0 283.06,72.27 439.64,136.11 0,0 80.7,-16.86 163.81,-107.2 0,0 24.09,125.27 -114.43,257.76l-486.62 -75.88 -75.88 -9.64 69.86 37.34 -290.28 369.78c0,0 -138.52,-275.83 -149.36,-449.28z"/>
   <path class="fil3" d="M2339.77 549.62c2.64,28.47 3.51,136.83 -115.35,250.53l-486.62 -75.88 -60 -7.62 -8.86 -2.65 539.62 36.14c104.18,-96.47 126.47,-173.6 131.22,-200.51z"/>
   <path class="fil6" d="M1299.58 669.8l435.82 -156.33c0,0 283.06,72.27 439.64,136.11 0,0 80.7,-16.86 163.81,-107.2 0,0 0.1,0.54 0.26,1.58 -54.34,99.27 -163.05,138.72 -163.05,138.72 -144.54,-57.82 -426.4,-123.46 -426.4,-123.46l-450.09 110.58z"/>
   <path class="fil7" d="M833.66 1731.66l54.85 -206.71c0,0 -49.22,-135.66 -45.06,-311.52 -39.67,116.72 -21.27,401.06 -9.79,518.23z"/>
   <path class="fil1" d="M1374.41 975.98c0,0 19.87,112.02 64.44,175.86l42.16 -9.64c0,0 -59.62,-53 -106.6,-166.22z"/>
   <polygon class="fil3" points="1713.15,761.57 1466.23,1054.27 1472.25,929 "/>
   <path class="fil1" d="M2207.54 1427.64c0,0 -54.2,154.18 -142.73,252.95l28.91 12.65 22.89 -9.03c0,0 55.41,-65.04 90.94,-256.56z"/>
   <path class="fil1" d="M1441.42 1121.68l193.32 -60.23 -139.12 79.5c0,0 -58.42,-4.82 -54.2,-19.27z"/>
  </g>
 </g>
</svg>
