<?xml version="1.0" encoding="UTF-8"?>
<!DOCTYPE svg PUBLIC "-//W3C//DTD SVG 1.1//EN" "http://www.w3.org/Graphics/SVG/1.1/DTD/svg11.dtd">
<!-- Creator: CorelDRAW 2020 (64-Bit) -->
<svg xmlns="http://www.w3.org/2000/svg" xml:space="preserve" width="129.436mm" height="197.988mm" version="1.1" style="shape-rendering:geometricPrecision; text-rendering:geometricPrecision; image-rendering:optimizeQuality; fill-rule:evenodd; clip-rule:evenodd"
viewBox="0 0 2179.64 3334.03"
 xmlns:xlink="http://www.w3.org/1999/xlink"
 xmlns:xodm="http://www.corel.com/coreldraw/odm/2003">
 <defs>
  <style type="text/css">
   <![CDATA[
    .fil0 {fill:none}
    .fil8 {fill:#4B3446}
    .fil1 {fill:#501D33}
    .fil6 {fill:#634C54}
    .fil7 {fill:#896E6B}
    .fil5 {fill:#D77D75}
    .fil4 {fill:#F9F9F9}
    .fil2 {fill:#FFCFA5}
    .fil3 {fill:#FFE0B3}
   ]]>
  </style>
 </defs>
 <g id="Слой_x0020_1">
  <metadata id="CorelCorpID_0Corel-Layer"/>
  <rect id="_166536576" class="fil0" width="2179.64" height="3334.03"/>
  <g id="_637853136">
   <path class="fil1" d="M577.38 984.52c-10.17,246.51 23.43,466.04 23.43,466.04 0,0 9.21,190.79 161.03,293.11 47.41,31.95 137.32,75.03 235.58,96.52 82.41,18.02 103.12,17.97 185.6,-0.18 97.95,-21.55 187.49,-64.48 234.77,-96.34 151.82,-102.32 161.03,-293.11 161.03,-293.11 0,0 33.6,-219.52 23.43,-466.04 -3.9,-94.7 -21.49,-133.73 -85.61,-207.01 -203.55,-232.68 -648.57,-229.24 -853.66,0 -64.92,72.56 -81.71,112.32 -85.61,207.01z"/>
   <path class="fil2" d="M611.03 985.91c-4.4,106.59 -1.11,214.28 7.71,320.59 3.82,45.97 8.37,93.31 15.36,138.95l0.26 1.72 0.08 1.74c1.51,30.97 11.55,70.27 21.73,99.14 23.86,67.67 64.41,127.19 124.49,167.68 62.18,41.91 151.19,75.63 223.95,91.55 27.37,5.98 57.36,12.72 85.49,12.7 28.19,-0.02 58.26,-6.83 85.68,-12.87 72.53,-15.96 161.19,-49.59 223.19,-91.38 60.08,-40.49 100.62,-100.02 124.49,-167.68 10.18,-28.87 20.22,-68.17 21.73,-99.14l0.08 -1.74 0.26 -1.72c6.99,-45.65 11.54,-92.98 15.36,-138.95 8.82,-106.31 12.1,-214 7.71,-320.59 -3.63,-88.16 -19.4,-120.03 -77.3,-186.22 -190.34,-217.57 -611.74,-213.74 -803.22,0.28 -58.69,65.6 -73.43,97.98 -77.05,185.95z"/>
   <path class="fil3" d="M847.22 691.22c0,0 195.15,105.15 188.91,162.18 -6.24,57.03 -399.21,61.49 -399.21,61.49 0,0 55.25,-147.03 210.3,-223.67z"/>
   <path class="fil4" d="M611.03 985.91c-4.4,106.59 -1.11,214.28 7.71,320.59 3.82,45.97 8.37,93.31 15.36,138.95l0.26 1.72 0.08 1.74c1.51,30.97 11.55,70.27 21.73,99.14 3.72,10.55 7.85,20.9 12.39,31.01 -47.94,-227.61 -40.59,-493.97 -32.86,-605.35 8.8,-126.89 152.75,-260.61 264.99,-303.87 1.43,-1.31 2.67,-2.54 3.73,-3.69 -84.14,26.32 -160.15,71 -216.34,133.81 -58.69,65.6 -73.43,97.98 -77.05,185.95z"/>
   <path class="fil5" d="M678.31 1557.99c23.41,59.94 61.03,112.43 115.11,148.87 59.79,40.3 145.39,72.73 215.36,88.03 26.32,5.76 55.15,12.23 82.21,12.21 27.11,-0.02 56.02,-6.57 82.39,-12.37 69.75,-15.34 155.01,-47.69 214.62,-87.87 48.09,-32.41 83.17,-77.52 106.81,-129.26 -23.05,35.31 -52.87,66.14 -90.14,90.05 -62.6,40.18 -152.13,72.52 -225.37,87.87 -27.69,5.8 -58.05,12.35 -86.52,12.37 -28.41,0.02 -58.69,-6.45 -86.32,-12.21 -73.48,-15.3 -163.36,-47.73 -226.15,-88.03 -44.02,-28.25 -77.65,-66.14 -102,-109.67z"/>
   <ellipse class="fil3" cx="1016.54" cy="912.74" rx="40.99" ry="20.5"/>
   <g>
    <path class="fil1" d="M786.67 574.96c0,0 -117.63,-24.95 -92.67,-172.87 30.47,-180.66 369.76,-308.3 545.35,-231.68 98.02,42.77 128.32,204.06 -10.69,335.94 -139.01,131.88 -340.4,106.93 -441.98,68.62z"/>
    <path class="fil6" d="M821.2 555.77c0,0 -108.21,-16.1 -86.77,-143.21 25.99,-154.09 334.19,-272.54 486.46,-210.68 90.47,36.75 87.99,185.16 -31.47,298.49 -119.46,113.33 -280.93,88.33 -368.23,55.4z"/>
    <path class="fil7" d="M1080.48 198.67c0,0 1.78,41.43 -11.59,119.85 0,0 33.42,-36.09 47.23,-116.29l-16.04 -10.69 -19.6 7.13z"/>
    <path class="fil7" d="M865.85 288.89c0,0 14.12,38.99 56.32,106.42 0,0 -44.64,-20.66 -87.93,-89.57l10.76 -15.99 20.84 -0.87z"/>
    <path class="fil7" d="M732 455.12c-0.9,-12.58 -0.24,-26.7 2.43,-42.56 25.99,-154.09 334.19,-272.54 486.46,-210.68 49.05,19.93 70.76,72.69 61.33,134.88 -89.17,-233.03 -468.54,-95.51 -550.23,118.36z"/>
    <path class="fil8" d="M821.2 555.77c0,0 -62.88,-9.37 -83.27,-70.13 73.01,1.89 344.33,0.43 535.95,-113.85 -13.87,42.87 -41.65,87.97 -84.45,128.58 -119.46,113.33 -280.93,88.33 -368.23,55.4z"/>
    <path class="fil8" d="M794.24 378.92c0,0 36.54,133.66 153.27,158.61l30.3 -13.37c0,0 -117.62,-20.49 -183.57,-145.25z"/>
    <path class="fil1" d="M1188.55 310.75c0,0 -3.56,124.75 -116.73,193.37l44.55 2.67c0,0 81.09,-54.36 72.18,-196.04z"/>
    <path class="fil1" d="M1066.47 313.87l-31.19 199.61 27.18 -15.6c0,0 6.69,-150.15 4.01,-184.01z"/>
    <path class="fil1" d="M988.06 500.11l-72.18 -124.75 104.26 117.62c0,0 -17.82,10.69 -32.08,7.13z"/>
    <g>
     <path class="fil1" d="M1597.81 1253.86c0,0 -16.48,127.04 25.51,353.8 41.99,226.76 -94.32,309.71 -94.32,309.71 114.44,-218.2 -91.61,-362.17 68.8,-663.51z"/>
     <path class="fil6" d="M1579.99 1352.77c-11.42,102.82 14.6,211.71 24.5,308.69 6.45,63.12 -5.99,125.25 -23.8,155.43 21.57,-163.36 -60.58,-294.97 -0.7,-464.13z"/>
    </g>
    <g>
     <path class="fil1" d="M577.9 1255.64c0,0 16.48,127.04 -25.51,353.8 -41.99,226.76 94.32,309.71 94.32,309.71 -114.44,-218.2 91.61,-362.17 -68.8,-663.51z"/>
     <path class="fil6" d="M595.72 1354.55c11.42,102.82 -14.6,211.71 -24.5,308.69 -6.45,63.12 5.99,125.25 23.8,155.43 -21.57,-163.36 60.58,-294.97 0.7,-464.13z"/>
    </g>
    <path class="fil1" d="M619.65 1122.55c0,0 7.28,162.18 -47.33,247.72 0,0 -5.46,-64.16 -49.15,-196.04 -43.69,-131.88 -72.82,-319.01 136.52,-520.4 173.01,-166.44 365.91,-174.63 427.65,-172.46 61.74,-2.17 254.63,6.02 427.64,172.46 209.34,201.39 180.21,388.52 136.52,520.4 -43.69,131.88 -49.15,196.04 -49.15,196.04 -54.61,-85.54 -47.33,-247.72 -47.33,-247.72 -45.2,-268.03 -489.69,-353.8 -750.63,-230.59 -96.59,45.6 -168.03,131.38 -184.76,230.59z"/>
    <path class="fil6" d="M579.99 1283.84c-11.41,-66.76 -33.89,-132.19 -46.49,-196.99 -11.16,-57.35 -14.38,-130.12 16.64,-212.02 80.83,-213.39 292.68,-357.19 506.49,-364.1 220.45,-7.12 478.58,113.96 573.04,364.1 30.94,81.93 27.8,154.67 16.64,212.02 -12.61,64.8 -35.08,130.23 -46.49,196.99 -20.5,-46.34 -20.04,-166.64 -20.04,-166.64 -61.49,-307.43 -487.43,-294.95 -487.43,-294.95l-4.89 -11.64 0 11.64c0,0 -425.94,-12.48 -487.43,294.95 0,0 0.45,120.3 -20.04,166.64z"/>
    <path class="fil8" d="M1146.51 529.8c196.89,23.26 378.03,132.42 459.99,349.48 44.54,117.95 14.59,280.1 -6.68,404.56 -20.5,-46.34 -20.04,-166.64 -20.04,-166.64 -38,-190 -215.19,-257.79 -345.02,-281.87 4.59,-159.21 -63.73,-267.12 -88.25,-305.53z"/>
    <path class="fil1" d="M764.64 871.67c0,0 32.97,127.42 139.9,149.7 0,0 -68.62,-34.75 -86.44,-136.34l-21.39 -24.95 -32.08 11.58z"/>
    <path class="fil1" d="M586.66 912.24c0,0 -17.82,147.03 49.9,231.68 0,0 164.85,-124.75 173.76,-320.79l-107.82 61.49 -115.84 27.62z"/>
    <path class="fil1" d="M1374.78 917.81c0,0 82.39,123.08 188.94,143.08 0,0 43.59,-202.09 -77.51,-356.5l-41.63 116.93 -69.79 96.5z"/>
    <path class="fil6" d="M586.66 904.23c0,0 0.89,106.04 51.68,191.58 0,0 129.21,-79.31 171.09,-278.91l-66.83 0.89 -155.94 86.44z"/>
    <path class="fil8" d="M634.87 1089.76c1.13,2.03 2.29,4.04 3.48,6.05 0,0 104.99,-64.46 156.36,-223.38 -10.83,-14.39 -23.7,-33.03 -36.19,-54.85l-7.21 0.1c-3.78,38.28 -23.01,165.02 -116.44,272.09z"/>
    <path class="fil6" d="M1369.55 911.73c0,0 69.84,79.8 164.13,111.51 0,0 46.22,-144.39 -52.22,-323.01l-50.08 44.27 -61.83 167.23z"/>
    <path class="fil8" d="M1369.55 911.73c0,0 51.12,52.17 143.64,74.09 0,0 48.89,-106.96 -31.73,-285.58l-50.08 44.27 -61.83 167.23z"/>
    <path class="fil1" d="M733.69 762.54c0,0 51.68,258.42 327.92,267.33 276.24,8.91 402.77,-172.87 424.16,-235.25 0,0 -155.05,34.31 -263.76,-79.75l-260.2 60.15 -228.12 -12.47z"/>
    <path class="fil6" d="M730.12 750.07c0,0 66.83,234.36 327.92,249.51 261.09,15.15 377.38,-171.09 377.38,-171.09 0,0 -159.95,-0.89 -215.2,-121.19 -55.25,-120.3 -454.46,3.56 -490.1,42.77z"/>
    <path class="fil8" d="M833.54 720.67c0,0 62.53,53.16 170.78,97.85 76.67,31.66 181.28,57.66 280.67,63.81 0,0 -143.07,19.92 -266.83,-22.63 -123.76,-42.55 -184.62,-139.03 -184.62,-139.03z"/>
    <path class="fil7" d="M737.72 771.07c23.59,57.85 107.28,216.15 320.33,228.51 120.34,6.98 209.89,-28.82 271.5,-69.45 -57.29,24.35 -151.64,51.34 -277.94,43.13 -219.21,-14.26 -314.56,-205.84 -314.56,-205.84 0.22,1.23 0.45,2.43 0.67,3.66z"/>
    <path class="fil1" d="M1438.98 826.25c0,0 -105.15,110.5 -312.77,112.28 0,0 146.14,22.28 277.13,-44.56l19.16 -23.17 16.49 -44.55z"/>
    <path class="fil7" d="M580.98 1281.5c-22.47,-179.53 -58.13,-318.62 42.96,-483.41 89.09,-145.2 273.07,-296.81 572.79,-275.25 -47.13,-9.54 -94.42,-13.59 -140.1,-12.11 -213.81,6.91 -425.66,150.71 -506.49,364.1 -31.03,81.9 -27.8,154.67 -16.64,212.02 12.61,64.8 35.08,130.23 46.49,196.99 0.34,-0.76 0.66,-1.54 0.99,-2.34z"/>
    <path class="fil1" d="M1111.18 502.8c0,0 54.47,48.8 97.28,137.12 0,0 -10.15,-73.35 -66.61,-144.33l-27.58 -8.26 -3.09 15.48z"/>
    <path class="fil1" d="M888.6 543.64c0,0 -67.38,30.91 -119.73,133.86 0,0 10.69,-67.73 80.69,-137.7l39.04 3.84z"/>
    <path class="fil1" d="M1270.53 542.23c0,0 69.02,27.05 127.12,126.87 0,0 -14.5,-67.02 -88.36,-132.91l-38.76 6.05z"/>
    <path class="fil1" d="M996.73 500.77c0,0 -39.21,65.05 -45.44,147.03 0,0 19.61,-73.96 77.53,-141.68l-6.02 -11.36 -26.06 6.01z"/>
    <path class="fil6" d="M1216.02 541.25c0,0 48.2,25.7 66.41,87.93 0,0 2.1,-37.81 -26.16,-83.83l-13.78 -3.57 -26.47 -0.53z"/>
    <path class="fil1" d="M708.08 975.92c0,0 -39.21,73.96 -88.22,115.4l17.38 19.16c0,0 40.1,-34.31 70.84,-134.55z"/>
    <path class="fil8" d="M1013.13 685.6c3.05,-2.03 94.93,96.59 212.66,115.21 -49.05,1.11 -95.56,-7.61 -134.23,-29.76 -32.55,-18.64 -59.47,-46.95 -78.43,-85.46z"/>
    <path class="fil7" d="M645.76 758.91c0,0 -44.77,126.58 -27.33,217.05 0,0 -47.16,-74.98 -20.75,-184.86l48.08 -32.19z"/>
    <path class="fil6" d="M1581.28 815.97c0,0 40.1,98.02 10.69,236.14 0,0 39.21,-50.79 40.1,-106.93 0.89,-56.14 -50.79,-129.21 -50.79,-129.21z"/>
   </g>
  </g>
 </g>
</svg>
