<?xml version="1.0" encoding="UTF-8"?>
<!DOCTYPE svg PUBLIC "-//W3C//DTD SVG 1.1//EN" "http://www.w3.org/Graphics/SVG/1.1/DTD/svg11.dtd">
<!-- Creator: CorelDRAW 2020 (64-Bit) -->
<svg xmlns="http://www.w3.org/2000/svg" xml:space="preserve" width="129.436mm" height="197.988mm" version="1.1" style="shape-rendering:geometricPrecision; text-rendering:geometricPrecision; image-rendering:optimizeQuality; fill-rule:evenodd; clip-rule:evenodd"
viewBox="0 0 1729.6 2645.64"
 xmlns:xlink="http://www.w3.org/1999/xlink"
 xmlns:xodm="http://www.corel.com/coreldraw/odm/2003">
 <defs>
  <style type="text/css">
   <![CDATA[
    .fil0 {fill:none}
    .fil8 {fill:#4B3446}
    .fil1 {fill:#501D33}
    .fil6 {fill:#634C54}
    .fil7 {fill:#896E6B}
    .fil5 {fill:#D77D75}
    .fil4 {fill:#F9F9F9}
    .fil2 {fill:#FFCFA5}
    .fil3 {fill:#FFE0B3}
   ]]>
  </style>
 </defs>
 <g id="Слой_x0020_1">
  <metadata id="CorelCorpID_0Corel-Layer"/>
  <rect id="_166536576" class="fil0" width="1729.6" height="2645.64"/>
  <g id="_644996336">
   <path class="fil1" d="M458.17 781.24c-8.07,195.62 18.59,369.81 18.59,369.81 0,0 7.31,151.39 127.78,232.59 37.62,25.36 108.97,59.54 186.94,76.59 65.4,14.3 81.83,14.26 147.28,-0.14 77.72,-17.1 148.78,-51.16 186.3,-76.45 120.47,-81.2 127.78,-232.59 127.78,-232.59 0,0 26.66,-174.2 18.59,-369.81 -3.09,-75.14 -17.06,-106.12 -67.93,-164.27 -161.52,-184.63 -514.65,-181.91 -677.4,0 -51.52,57.58 -64.84,89.13 -67.93,164.27z"/>
   <path class="fil2" d="M484.87 782.34c-3.49,84.59 -0.88,170.04 6.12,254.4 3.03,36.48 6.64,74.04 12.19,110.26l0.21 1.37 0.07 1.38c1.2,24.58 9.16,55.76 17.24,78.67 18.94,53.7 51.11,100.93 98.78,133.06 49.34,33.25 119.97,60.02 177.71,72.64 21.72,4.75 45.51,10.09 67.84,10.08 22.37,-0.02 46.23,-5.42 67.99,-10.21 57.56,-12.66 127.91,-39.35 177.1,-72.51 47.67,-32.13 79.85,-79.36 98.78,-133.06 8.08,-22.91 16.05,-54.09 17.24,-78.67l0.07 -1.38 0.21 -1.37c5.55,-36.22 9.16,-73.78 12.19,-110.26 7,-84.36 9.61,-169.81 6.12,-254.4 -2.88,-69.95 -15.39,-95.25 -61.34,-147.77 -151.04,-172.65 -485.43,-169.61 -637.37,0.22 -46.57,52.05 -58.27,77.75 -61.14,147.55z"/>
   <path class="fil3" d="M672.29 548.5c0,0 154.86,83.44 149.91,128.69 -4.95,45.26 -316.78,48.79 -316.78,48.79 0,0 43.84,-116.67 166.88,-177.48z"/>
   <path class="fil4" d="M484.87 782.34c-3.49,84.59 -0.88,170.04 6.12,254.4 3.03,36.48 6.64,74.04 12.19,110.26l0.21 1.37 0.07 1.38c1.2,24.58 9.16,55.76 17.24,78.67 2.95,8.37 6.23,16.58 9.83,24.6 -38.04,-180.61 -32.21,-391.98 -26.08,-480.36 6.99,-100.69 121.21,-206.8 210.28,-241.13 1.13,-1.04 2.12,-2.02 2.96,-2.93 -66.77,20.89 -127.08,56.34 -171.67,106.18 -46.57,52.05 -58.27,77.75 -61.14,147.55z"/>
   <path class="fil5" d="M538.26 1236.3c18.58,47.56 48.43,89.21 91.34,118.13 47.45,31.98 115.37,57.71 170.89,69.86 20.89,4.57 43.77,9.71 65.23,9.69 21.51,-0.02 44.46,-5.21 65.38,-9.82 55.35,-12.18 123,-37.84 170.31,-69.73 38.16,-25.72 66,-61.51 84.76,-102.57 -18.29,28.02 -41.95,52.48 -71.53,71.46 -49.68,31.88 -120.72,57.55 -178.84,69.73 -21.97,4.6 -46.07,9.8 -68.66,9.82 -22.54,0.02 -46.57,-5.12 -68.5,-9.69 -58.31,-12.14 -129.63,-37.88 -179.46,-69.86 -34.93,-22.42 -61.62,-52.49 -80.94,-87.02z"/>
   <ellipse class="fil3" cx="806.65" cy="724.28" rx="32.53" ry="16.26"/>
   <g>
    <path class="fil5" d="M484.87 782.34c-2.9,70.42 -1.58,141.44 2.98,211.94l42.65 -94.89c0,0 -14.14,-123.74 -11.31,-185.26 0,0 96.87,-169.71 352.14,-67.18l28.99 10.61c0,0 174.65,-114.55 313.95,44.55l-23.34 200.82 50.59 94.85c4.75,-71.64 6.16,-143.85 3.21,-215.43 -2.88,-69.95 -15.39,-95.25 -61.34,-147.77 -151.04,-172.65 -485.43,-169.61 -637.37,0.22 -46.57,52.05 -58.27,77.75 -61.14,147.55z"/>
    <path class="fil1" d="M610.67 456.92c0,0 -178.19,120.21 -199.4,207.89 -21.21,87.68 56.57,410.12 56.57,410.12 0,0 12.02,-77.78 54.45,-172.53 0,0 -24.75,-90.51 -22.63,-197.99 0,0 109.6,-157.68 320.32,-192.33l-96.17 -76.37 -113.14 21.21z"/>
    <path class="fil6" d="M429.65 678.95c0,0 0,114.55 36.77,296.98 0,0 16.97,-46.67 33.94,-78.49 0,0 -21.92,-77.78 -26.87,-196.58 0,0 75.66,-132.94 304.76,-200.82l-57.98 -52.33c0,0 -171.83,20.5 -284.96,209.3 0,0 -4.95,7.43 -5.65,21.92z"/>
    <path class="fil7" d="M429.7 682.82c0.37,21.36 3.88,130.15 36.72,293.12 0,0 0.54,-1.48 1.52,-4.08 12.75,-108.31 -29.41,-259.1 -38.24,-289.03z"/>
    <path class="fil8" d="M429.65 678.95c0,0 0,1 0.03,2.97 13.6,4.05 28.93,10.86 43.95,22.19l-0.14 -3.24c0,0 75.66,-132.94 304.76,-200.82l-57.98 -52.33c0,0 -171.83,20.5 -284.96,209.3 0,0 -4.95,7.43 -5.65,21.92z"/>
    <path class="fil1" d="M1086.42 439.95c0,0 212.13,130.11 230.52,224.86 18.39,94.75 -56.57,410.12 -56.57,410.12 0,0 -17.68,-79.19 -60.1,-173.95 0,0 19.09,-86.27 28.28,-195.87 0,0 -109.6,-158.39 -320.32,-193.04l96.17 -76.37 82.02 4.24z"/>
    <path class="fil6" d="M1298.55 678.95c0,0 0,114.55 -36.77,296.98 0,0 -16.97,-46.67 -33.94,-78.49 0,0 19.09,-80.61 24.04,-199.4 0,0 -72.83,-130.11 -301.93,-197.99l41.01 -69.3c0,0 173.95,51.26 300.52,226.63 0,0 6.36,7.07 7.07,21.57z"/>
    <path class="fil7" d="M1298.55 678.95c0,0 0,114.55 -36.77,296.98l-0.07 -0.2c6.71,-63.43 27.06,-266.42 16.35,-298.56 -12.73,-38.18 -85.56,-126.57 -85.56,-126.57 0.25,-0.26 0.51,-0.49 0.76,-0.75 33.42,29.12 67.24,64.6 98.23,107.53 0,0 6.36,7.07 7.07,21.57z"/>
    <path class="fil8" d="M1182.15 620.46c-47.14,-40.19 -121.39,-87.58 -232.2,-120.42l41.01 -69.3c0,0 101.17,29.83 205.34,121.77 -28.51,6.59 -23.85,39.49 -14.15,67.95z"/>
    <path class="fil1" d="M1070.88 375.47c0,0 36.62,51.26 54.52,139.13 0,0 -80.86,73.78 -230.57,133.18 0,0 -3.76,-75.41 6.81,-94.13 10.58,-18.71 145.64,-163.54 169.24,-178.19z"/>
    <path class="fil8" d="M1060.71 399.07c0,0 30.51,46.38 37.83,111.06 0,0 -92.76,70.79 -181.85,105.78 0,0 23.19,-82.18 32.55,-91.54 9.36,-9.36 111.47,-125.3 111.47,-125.3z"/>
    <path class="fil1" d="M888.22 324.62c0,0 119.2,-8.55 193.24,29.7 0,0 -9.94,73.08 -63,158.29 -27.68,44.46 -65.05,92.78 -123.63,135.18 0,0 -41.19,-64.84 -37.13,-75.41 4.07,-10.58 30.51,-247.75 30.51,-247.75z"/>
    <path class="fil6" d="M908.15 348.62c0,0 62.65,-8.95 139.95,17.9 0,0 2.1,93.38 -22.22,138.28 -23.33,43.05 -83.37,79.24 -142.95,114.77 0,0 2.44,-59.4 5.7,-66.72 3.26,-7.32 19.53,-204.22 19.53,-204.22z"/>
    <path class="fil8" d="M907.59 605.23c0,0 64.61,-85.47 87.24,-174.21 0,0 -28.64,56.92 -71.06,95.81l-4.6 18.74 -11.58 59.66z"/>
    <path class="fil7" d="M956.31 347.9c24.57,1.62 56.67,6.42 91.79,18.62 0,0 2.1,93.38 -22.22,138.27 -1.39,2.57 -2.91,5.11 -4.56,7.62 20.76,-59.67 9.92,-137.62 9.92,-137.62l-74.95 -26.87 0.02 -0.04z"/>
    <path class="fil8" d="M908.15 348.62c0,0 18.92,-2.7 48.79,-0.68 0.26,45.26 -3.96,185.81 -62.71,264.87 -3.77,2.26 -7.54,4.51 -11.31,6.76 0,0 2.44,-59.4 5.7,-66.72 3.26,-7.32 19.53,-204.22 19.53,-204.22z"/>
    <path class="fil1" d="M677.89 319.33c0,0 74.85,-38.24 222.94,-33.36 0,0 20.2,69.29 17.66,177.96 -1.23,53.01 4.21,111.37 -24.07,183.4l-97.74 -92.86 -118.79 -235.14z"/>
    <path class="fil6" d="M703.93 334.79c0,0 98.45,-26.04 175.75,-22.78 0,0 40.09,61.88 39.53,156.01 -0.26,44.63 -17.23,95.58 -37.91,152.37l-55.33 -45.57 -122.05 -240.03z"/>
    <path class="fil7" d="M762.47 322.24c34.32,-6.13 78.43,-11.87 117.2,-10.23 0,0 40.09,61.88 39.53,156.01l-0.02 1.89c-13.25,-90.52 -58.35,-139.65 -58.35,-139.65l-98.29 -6.36c-0.04,-0.55 -0.05,-1.1 -0.07,-1.66z"/>
    <path class="fil8" d="M703.93 334.79c0,0 23.8,-6.29 57.18,-12.31 20.15,26.33 86.19,123.08 117.8,295.92l-52.93 -43.59 -122.05 -240.02z"/>
    <path class="fil1" d="M894.83 647.79l-300.94 -102.47c0,0 -155.31,127.64 -228.53,153.67 0,0 -83.84,-10.47 -157.14,-153.67 0,0 79.74,9.77 148.08,-3.25 76.99,-93.55 189.03,-203.24 292.1,-266.06 56.29,33.46 102.71,104.98 144.7,174.57 44.45,73.65 83.25,149.04 101.72,197.22z"/>
    <path class="fil6" d="M252.36 574.82c0,0 82.99,4.07 157.85,-14.65l-21.16 -13.83c0,0 156.22,-178.19 258.74,-232.7 0,0 80.05,36.77 143.56,131.68 28.52,42.63 48.22,100.07 62.3,166.93 0,0 -163.54,-64.28 -264.43,-91.94 0,0 -158.66,122.05 -227.82,151.34 0,0 -44.75,-10.58 -109.03,-96.82z"/>
    <path class="fil7" d="M389.86 546.87l-0.81 -0.53c0,0 156.22,-178.19 258.74,-232.7 0,0 70.87,32.56 132.15,115.47l-0.04 0.51c-53.03,-62.22 -135.06,-84.85 -135.06,-84.85 -65.46,31.4 -236.27,185.18 -254.98,202.1z"/>
    <path class="fil8" d="M845.41 609.04c-32.39,-12.56 -153.82,-59.04 -240.87,-84.39l43.53 -47.42c0,0 127.66,76.21 197.34,131.81z"/>
    <path class="fil8" d="M361.35 635.62l283.37 -176.6c67.22,-41.89 -213.65,173.98 -280.68,202.37 0,0 -41.03,-6.77 -103.08,-81.11 2.88,-0.02 54.22,47.96 100.39,55.34z"/>
    <polygon class="fil1" points="569.24,535.21 648.61,477.05 601.76,538.04 "/>
    <path class="fil8" d="M828.91 354.92c0,0 47.38,94.05 50.91,210.01 15.73,-67.55 11.64,-167.07 -50.91,-210.01z"/>
    <path class="fil8" d="M783.63 580.65c0,0 -45.96,-86.44 -81.67,-135.59 0,0 105.71,98.46 141.77,162.81l-60.1 -27.22z"/>
    <path class="fil7" d="M406.2 532.92c0,0 133.29,-91.57 220.26,-124.1 0,0 -101.82,21.57 -156.98,56.21l-63.29 67.88z"/>
   </g>
  </g>
 </g>
</svg>
