<?xml version="1.0" encoding="UTF-8"?>
<!DOCTYPE svg PUBLIC "-//W3C//DTD SVG 1.1//EN" "http://www.w3.org/Graphics/SVG/1.1/DTD/svg11.dtd">
<!-- Creator: CorelDRAW 2020 (64-Bit) -->
<svg xmlns="http://www.w3.org/2000/svg" xml:space="preserve" width="129.436mm" height="197.988mm" version="1.1" style="shape-rendering:geometricPrecision; text-rendering:geometricPrecision; image-rendering:optimizeQuality; fill-rule:evenodd; clip-rule:evenodd"
viewBox="0 0 1433.6 2192.87"
 xmlns:xlink="http://www.w3.org/1999/xlink"
 xmlns:xodm="http://www.corel.com/coreldraw/odm/2003">
 <defs>
  <style type="text/css">
   <![CDATA[
    .fil0 {fill:none}
    .fil2 {fill:#4B3446}
    .fil1 {fill:#501D33}
    .fil7 {fill:#634C54}
    .fil8 {fill:#896E6B}
    .fil6 {fill:#D77D75}
    .fil4 {fill:#F9F9F9}
    .fil3 {fill:#FFCFA5}
    .fil5 {fill:#FFE0B3}
   ]]>
  </style>
 </defs>
 <g id="Слой_x0020_1">
  <metadata id="CorelCorpID_0Corel-Layer"/>
  <rect id="_166536576" class="fil0" width="1433.6" height="2192.87"/>
  <g id="_645003392">
   <g>
    <g>
     <path class="fil1" d="M730.83 1083.43c-4.65,-36.34 -9.23,-68.35 -10.99,-68.86 -4.1,-1.17 -316.49,1.76 -316.49,1.76 0,0 2.3,113.87 63.83,193.71 61.76,-64.2 150.07,-126.78 237.86,-128.05 8.54,-0.12 17.14,0.39 25.79,1.44z"/>
     <path class="fil2" d="M638.03 1094c-6.01,-27.03 -13.11,-51.97 -19.31,-54.81 -14.07,-6.45 -220.96,-45.13 -225.65,-41.61 -4.69,3.52 -56.27,-1.17 -32.82,69.16 16.49,49.47 58.64,115.32 97.9,152.89 46.88,-50.98 111.36,-102.81 179.88,-125.62z"/>
    </g>
    <g>
     <path class="fil1" d="M716.11 1082.18c4.59,-35.82 9.09,-67.11 10.83,-67.6 4.1,-1.17 316.49,1.76 316.49,1.76 0,0 -2.59,128.7 -76.19,208.38 -64.68,-68.72 -161.04,-138.35 -251.12,-142.54z"/>
     <path class="fil2" d="M806.28 1105.45c6.46,-31.04 14.7,-63.02 21.77,-66.25 14.07,-6.45 220.96,-45.13 225.65,-41.61 4.69,3.52 56.27,-1.17 32.82,69.16 -18.54,55.61 -69.5,131.92 -112.34,165.48 -43.96,-48.36 -104.36,-98.38 -167.9,-126.78z"/>
    </g>
   </g>
   <path class="fil1" d="M379.76 647.54c-6.69,162.14 15.41,306.52 15.41,306.52 0,0 6.06,125.48 105.92,192.79 31.18,21.02 90.32,49.35 154.95,63.48 54.2,11.85 67.82,11.82 122.07,-0.12 64.42,-14.17 123.32,-42.41 154.41,-63.37 99.86,-67.3 105.92,-192.79 105.92,-192.79 0,0 22.1,-144.38 15.41,-306.52 -2.56,-62.28 -14.14,-87.96 -56.3,-136.16 -133.88,-153.04 -426.58,-150.78 -561.47,0 -42.7,47.73 -53.74,73.87 -56.3,136.16z"/>
   <path class="fil3" d="M401.89 648.45c-2.89,70.11 -0.73,140.94 5.07,210.86 2.51,30.24 5.5,61.37 10.1,91.39l0.17 1.13 0.06 1.14c0.99,20.37 7.6,46.22 14.29,65.21 15.7,44.51 42.36,83.66 81.88,110.29 40.9,27.56 99.44,49.75 147.3,60.21 18,3.94 37.73,8.37 56.23,8.35 18.54,-0.02 38.32,-4.49 56.35,-8.46 47.71,-10.5 106.02,-32.62 146.79,-60.1 39.51,-26.63 66.18,-65.78 81.88,-110.29 6.7,-18.99 13.3,-44.84 14.29,-65.21l0.06 -1.14 0.17 -1.13c4.6,-30.02 7.59,-61.16 10.1,-91.39 5.8,-69.92 7.96,-140.75 5.07,-210.86 -2.39,-57.98 -12.76,-78.95 -50.84,-122.48 -125.19,-143.1 -402.35,-140.58 -528.29,0.18 -38.6,43.15 -48.29,64.44 -50.68,122.3z"/>
   <path class="fil4" d="M401.89 648.45c-2.89,70.11 -0.73,140.94 5.07,210.86 2.51,30.24 5.5,61.37 10.1,91.39l0.17 1.13 0.06 1.14c0.99,20.37 7.6,46.22 14.29,65.21 2.45,6.94 5.16,13.74 8.15,20.39 -31.53,-149.7 -26.7,-324.9 -21.62,-398.15 5.79,-83.46 100.47,-171.41 174.29,-199.86 0.94,-0.86 1.75,-1.67 2.46,-2.43 -55.34,17.31 -105.33,46.7 -142.29,88.01 -38.6,43.15 -48.29,64.44 -50.68,122.3z"/>
   <path class="fil5" d="M557.24 454.63c0,0 128.36,69.16 124.25,106.67 -4.1,37.51 -262.57,40.44 -262.57,40.44 0,0 36.34,-96.71 138.32,-147.11z"/>
   <ellipse class="fil5" cx="668.6" cy="600.33" rx="26.96" ry="13.48"/>
   <path class="fil6" d="M401.89 648.45c-2.89,70.11 -0.73,140.94 5.07,210.86 2.51,30.24 5.5,61.37 10.1,91.39l0.17 1.13 0.06 1.14c0.99,20.37 7.6,46.22 14.29,65.21 5.89,16.69 13.32,32.63 22.39,47.44 -12.86,-96.3 -32.99,-274.97 50.12,-403 0,0 42.78,11.72 99.05,-9.38 0,0 55.68,22.86 120.15,5.27 0,0 72.68,18.76 152.97,-2.34 0,0 42.2,18.17 83.23,0.59 0,0 60.38,173.82 21.54,406.53 8.44,-14.15 15.4,-29.29 20.98,-45.11 6.7,-18.99 13.3,-44.84 14.29,-65.21l0.06 -1.14 0.17 -1.13c4.6,-30.02 7.59,-61.16 10.1,-91.39 5.8,-69.92 7.96,-140.75 5.07,-210.86 -2.39,-57.98 -12.76,-78.95 -50.84,-122.48 -125.19,-143.1 -402.35,-140.58 -528.29,0.18 -38.6,43.15 -48.29,64.44 -50.68,122.3z"/>
   <path class="fil6" d="M446.14 1024.72c15.4,39.42 40.14,73.94 75.71,97.92 39.33,26.51 95.62,47.84 141.65,57.9 17.31,3.79 36.28,8.05 54.07,8.03 17.83,-0.01 36.85,-4.32 54.19,-8.14 45.88,-10.09 101.95,-31.37 141.16,-57.79 31.63,-21.32 54.7,-50.98 70.25,-85.02 -15.16,23.22 -34.77,43.5 -59.29,59.23 -41.17,26.43 -100.06,47.7 -148.23,57.79 -18.21,3.82 -38.18,8.12 -56.91,8.14 -18.68,0.01 -38.6,-4.25 -56.78,-8.03 -48.33,-10.06 -107.45,-31.4 -148.74,-57.9 -28.95,-18.58 -51.07,-43.5 -67.09,-72.13z"/>
   <g>
    <path class="fil1" d="M720.74 336.01c-213.06,-1.83 -340.41,130.67 -402.3,287.73 -80.92,205.34 -49.33,458.5 57.04,523.51 0,0 53.32,105.43 151.56,116.21 0,0 -224.04,-353.44 -22.77,-712.86l432.92 0c201.28,359.43 -22.77,712.86 -22.77,712.86 98.24,-10.78 151.56,-116.21 151.56,-116.21 106.37,-65 137.96,-318.17 57.04,-523.51 -61.89,-157.06 -189.24,-289.56 -402.3,-287.73z"/>
    <path class="fil7" d="M299.99 786.02c0,0 -22.77,225.24 64.7,322.29 0,0 -14.38,-59.31 -3,-116.22 0,0 5.39,196.49 129.99,243.81 0,0 -99.44,-149.77 -89.86,-402.56 9.58,-252.8 110.22,-318.69 110.22,-318.69 253.98,-86.23 163.41,-86.23 417.39,0 0,0 100.64,65.9 110.22,318.69 9.58,252.8 -89.86,402.56 -89.86,402.56 124.6,-47.32 129.99,-243.81 129.99,-243.81 11.38,56.91 -3,116.22 -3,116.22 87.46,-97.05 64.7,-322.29 64.7,-322.29 -36.43,-290.65 -232.4,-430.61 -425.37,-429.5 -191.49,1.11 -379.98,141.08 -416.13,429.5z"/>
    <path class="fil8" d="M299.99 786.02c0,0 -9.3,92.09 6.85,183.88 -4.19,-141.69 16.79,-538.69 374.49,-611.62 -179.01,16.91 -347.38,156.83 -381.34,427.75z"/>
    <path class="fil2" d="M477.54 1229.61c4.54,2.3 9.24,4.42 14.15,6.29 0,0 -99.44,-149.77 -89.86,-402.56 8.41,-221.81 86.91,-299.72 106.03,-315.49l-20.61 -21.79c0,0 -260.73,345.86 -9.71,733.56z"/>
    <path class="fil2" d="M956.39 505.06c0,0 -6.77,20.67 17.85,50.81 35.93,44 81.3,128.63 86.99,278.67 9.58,252.8 -111.43,401.36 -111.43,401.36 124.6,-47.32 129.99,-243.81 129.99,-243.81 11.38,56.91 -3,116.22 -3,116.22 87.46,-97.05 64.7,-322.29 64.7,-322.29 -26.57,-212.03 -138.06,-343.85 -271.35,-399.23 71.42,40.37 85.19,117.91 86.25,118.27z"/>
    <path class="fil1" d="M517.86 457.74c0,0 -74.41,50.92 -84.14,151.56 0,0 40.64,31.15 134.52,14.98 0,0 65.83,27.56 152.26,0 0,0 96.17,30.55 170.58,-0.6 0,0 56.67,23.36 115.63,-1.2 0,0 -11.45,-105.43 -78.42,-155.15 0,0 -103.04,-53.32 -219.81,-48.52 -116.77,4.79 -190.62,38.94 -190.62,38.94z"/>
    <path class="fil7" d="M512.93 462.18c-17.93,21.78 -48.22,67.55 -55.75,135.13 0,0 46.37,17.97 110.48,4.79 0,0 87.58,23.37 155.12,-2.39 0,0 92.16,29.95 166,5.39 0,0 57.24,16.77 96.74,0 0,0 -5.73,-76.08 -49.8,-134.19 0,0 -72.18,-96.45 -213.57,-103.04 -93.7,-4.37 -151.48,24.19 -209.22,94.3z"/>
    <path class="fil8" d="M460.24 576.9c10.02,-23.42 28.66,-54.25 62.09,-76.21 61.1,-40.14 41.04,98.54 41.04,98.54 0,0 32.95,-104.23 72.48,-114.42 39.54,-10.18 83.87,109.63 83.87,109.63 0,0 24.56,-119.81 68.89,-111.42 44.33,8.39 94.05,110.83 94.05,110.83 0,0 -1.2,-83.87 32.35,-94.65 24.37,-7.83 52.53,46.93 66.12,77.47 -5.68,-27.45 -18.28,-70 -45.4,-105.75 0,0 -15.56,-20.78 -46.37,-43.71 0.38,16.05 0.23,81.83 -27.67,74.98 -31.75,-7.79 -80.87,-65.9 -83.87,-117.41 0,0 -18.57,129.39 -63.5,121.01 -44.93,-8.39 -66.5,-117.41 -66.5,-117.41 0,0 -19.17,116.22 -64.1,106.03 -44.93,-10.18 -30.55,-71.59 -30.55,-71.59 0,0 -18.83,43.01 -32.26,55.06 -5.22,4.68 -11.37,4.09 -15.1,-6.58 -15.8,21.37 -36.39,56.91 -45.58,105.6z"/>
    <path class="fil1" d="M604.29 481.1c0,0 -40.07,64.7 -46.94,137.78l20.03 -0.6c0,0 2.86,-66.49 26.9,-137.18z"/>
    <path class="fil1" d="M851.58 481.1c0,0 40.07,64.7 46.94,137.78l-20.03 -0.6c0,0 -2.86,-66.49 -26.9,-137.18z"/>
    <path class="fil1" d="M714.2 476.9l-2.29 141.38 18.32 -4.19c0,0 -9.73,-119.21 -16.03,-137.18z"/>
   </g>
  </g>
 </g>
</svg>
