<?xml version="1.0" encoding="UTF-8"?>
<!DOCTYPE svg PUBLIC "-//W3C//DTD SVG 1.1//EN" "http://www.w3.org/Graphics/SVG/1.1/DTD/svg11.dtd">
<!-- Creator: CorelDRAW 2020 (64-Bit) -->
<svg xmlns="http://www.w3.org/2000/svg" xml:space="preserve" width="129.436mm" height="197.988mm" version="1.1" style="shape-rendering:geometricPrecision; text-rendering:geometricPrecision; image-rendering:optimizeQuality; fill-rule:evenodd; clip-rule:evenodd"
viewBox="0 0 1224.11 1872.42"
 xmlns:xlink="http://www.w3.org/1999/xlink"
 xmlns:xodm="http://www.corel.com/coreldraw/odm/2003">
 <defs>
  <style type="text/css">
   <![CDATA[
    .fil0 {fill:none}
    .fil8 {fill:#4B3446}
    .fil1 {fill:#501D33}
    .fil6 {fill:#634C54}
    .fil7 {fill:#896E6B}
    .fil5 {fill:#D77D75}
    .fil4 {fill:#F9F9F9}
    .fil2 {fill:#FFCFA5}
    .fil3 {fill:#FFE0B3}
   ]]>
  </style>
 </defs>
 <g id="Слой_x0020_1">
  <metadata id="CorelCorpID_0Corel-Layer"/>
  <rect id="_166536576" class="fil0" width="1224.11" height="1872.42"/>
  <g id="_538857936">
   <path class="fil1" d="M189.3 549.52c-0.28,-1.88 -1.37,-50.67 -47.29,-54 0,0 33.9,-15.12 55.76,18.73l6.45 12.78 -14.91 22.49z"/>
   <g>
    <path class="fil1" d="M324.51 552.98c-5.71,138.44 13.16,261.73 13.16,261.73 0,0 5.17,107.15 90.44,164.61 26.63,17.95 77.12,42.14 132.3,54.21 46.28,10.12 57.91,10.09 104.24,-0.1 55.01,-12.1 105.3,-36.21 131.85,-54.11 85.26,-57.47 90.44,-164.61 90.44,-164.61 0,0 18.87,-123.29 13.16,-261.73 -2.19,-53.18 -12.07,-75.1 -48.08,-116.26 -114.32,-130.67 -364.24,-128.75 -479.43,0 -36.46,40.75 -45.89,63.08 -48.08,116.26z"/>
    <path class="fil2" d="M343.41 553.76c-2.47,59.86 -0.63,120.34 4.33,180.05 2.14,25.82 4.7,52.4 8.63,78.04l0.15 0.97 0.05 0.98c0.85,17.39 6.49,39.46 12.2,55.68 13.4,38 36.17,71.43 69.91,94.17 34.92,23.54 84.91,42.48 125.77,51.41 15.37,3.36 32.21,7.14 48.01,7.13 15.83,-0.01 32.72,-3.84 48.12,-7.23 40.74,-8.96 90.53,-27.85 125.34,-51.32 33.74,-22.74 56.51,-56.17 69.91,-94.17 5.72,-16.21 11.36,-38.28 12.2,-55.68l0.05 -0.98 0.15 -0.97c3.93,-25.63 6.48,-52.22 8.63,-78.04 4.95,-59.7 6.8,-120.18 4.33,-180.05 -2.04,-49.51 -10.89,-67.41 -43.41,-104.59 -106.9,-122.19 -343.56,-120.04 -451.09,0.16 -32.96,36.84 -41.24,55.02 -43.27,104.43z"/>
    <path class="fil3" d="M476.06 388.26c0,0 109.6,59.05 106.1,91.08 -3.5,32.03 -224.2,34.53 -224.2,34.53 0,0 31.03,-82.57 118.11,-125.61z"/>
    <path class="fil4" d="M343.41 553.76c-2.47,59.86 -0.63,120.34 4.33,180.05 2.14,25.82 4.7,52.4 8.63,78.04l0.15 0.97 0.05 0.98c0.85,17.39 6.49,39.46 12.2,55.68 2.09,5.92 4.41,11.74 6.96,17.41 -26.92,-127.83 -22.8,-277.42 -18.46,-339.97 4.94,-71.27 85.78,-146.36 148.82,-170.66 0.8,-0.74 1.5,-1.43 2.1,-2.07 -47.26,14.78 -89.94,39.87 -121.5,75.15 -32.96,36.84 -41.24,55.02 -43.27,104.43z"/>
    <path class="fil5" d="M381.19 875.04c13.15,33.66 34.28,63.14 64.65,83.61 33.58,22.63 81.65,40.85 120.95,49.44 14.78,3.23 30.98,6.87 46.17,6.86 15.22,-0.01 31.46,-3.69 46.27,-6.95 39.17,-8.62 87.05,-26.78 120.53,-49.35 27.01,-18.2 46.71,-43.53 59.99,-72.59 -12.95,19.83 -29.69,37.14 -50.62,50.58 -35.16,22.56 -85.44,40.73 -126.57,49.35 -15.55,3.26 -32.6,6.94 -48.59,6.95 -15.95,0.01 -32.96,-3.62 -48.48,-6.86 -41.27,-8.59 -91.75,-26.81 -127.01,-49.44 -24.72,-15.87 -43.61,-37.15 -57.28,-61.59z"/>
    <ellipse class="fil3" cx="571.15" cy="512.67" rx="23.02" ry="11.51"/>
    <path class="fil5" d="M662.13 423.87c0.1,2.35 10.34,61.71 -44.51,76.62 0,0 44.65,10.29 63.12,-35.9l4.79 -17.01 -23.39 -23.71z"/>
    <path class="fil5" d="M352.14 779.73c11.11,-17.66 29.19,-54.51 10.55,-85.23 0,0 29.78,-43.49 1.42,-102.59 0,0 30.96,-30.02 26.24,-82.97 0,0 35.46,-4.73 47.75,-35.93 0,0 45.62,15.84 79.66,-24.82 43.5,48.69 104.98,32.31 139,-8.51 0,0 21.75,19.86 52.95,6.62 0,0 33.57,33.09 78.01,5.2 0,0 0.47,48.7 56.26,57.21 0,0 -12.29,39.24 20.8,62.88 0,0 -28.37,52.95 9.45,94.55 0,0 -13.08,32.74 1.02,86.36 0.58,-6.26 1.11,-12.49 1.63,-18.69 4.95,-59.7 6.8,-120.18 4.33,-180.05 -2.04,-49.51 -10.89,-67.41 -43.41,-104.59 -106.9,-122.19 -343.56,-120.04 -451.09,0.16 -32.96,36.84 -41.24,55.02 -43.27,104.43 -2.47,59.86 -0.63,120.34 4.33,180.05 1.26,15.16 2.66,30.59 4.4,45.93z"/>
    <path class="fil1" d="M732.85 116.85c1.71,0.84 42.33,27.88 71.35,-7.88 0,0 -7,36.45 -47.27,35.01l-14.17 -2.03 -9.9 -25.1z"/>
    <path class="fil1" d="M649.62 397.35c0.1,2.35 10.34,61.71 -44.51,76.62 0,0 44.65,10.29 63.12,-35.9l4.79 -17.01 -23.39 -23.71z"/>
    <path class="fil1" d="M347.62 792.94c0,0 25.52,-61.56 -1.5,-106.1 0,0 31.53,-46.04 1.5,-108.6 0,0 32.78,-31.78 27.77,-87.83 0,0 37.53,-5.01 50.55,-38.04 0,0 48.29,16.77 84.32,-26.27 46.04,51.54 111.12,34.2 147.13,-9.01 0,0 23.02,21.02 56.05,7.01 0,0 35.53,35.03 82.57,5.51 0,0 0.5,51.55 59.55,60.55 0,0 -13.01,41.54 22.02,66.56 0,0 -28.03,56.3 8.26,100.34 0,0 -29.53,41.54 1.25,109.85 0,0 63.06,-21.02 88.08,-101.09 0,0 32.03,-17.02 40.04,-38.03 8.01,-21.02 -13.01,-35.03 12.01,-89.08 0,0 11.01,-15.76 11.51,-32.53 0.5,-16.76 -26.52,-39.28 -9.01,-108.35 12.85,-50.66 -18.2,-84.9 -55.02,-103.69 -45.33,-23.14 -54.5,-2.56 -71.09,-74.47 -18.56,-80.42 -98.94,-49.98 -148.63,-87.08 -41.97,-31.33 -68.12,-51.05 -131.24,-21.65 -43.22,20.13 -50.27,-1.74 -93.47,-4.12 -47.87,-2.64 -64.06,48.79 -83.07,46.79 -56.13,-5.91 -86.89,7.11 -101.85,23.13 -19.99,21.4 -22.6,38.74 -25.61,61.92 -4.15,31.92 -17.43,44.24 -33.58,50.75 -69.49,28.02 -35.67,64.44 -58.15,96.91 -9.01,13.01 -38.03,24.52 -46.04,57.05 -8.01,32.53 13.51,47.04 7.51,100.09 -6.01,53.05 10.01,63.06 31.03,83.07 21.02,20.02 -7.01,48.04 47.04,75.07 54.05,27.02 17.02,69.06 80.08,91.34z"/>
    <path class="fil6" d="M897.39 738.89c34.81,-20.79 49.12,-48.89 60.78,-86.19l5.38 -2.84c10.24,-5.46 28.34,-18.5 32.61,-29.72 0.61,-1.59 0.88,-3.12 0.93,-4.82 0.1,-3.34 -0.52,-7.04 -1,-10.35 -0.84,-5.88 -1.53,-11.58 -1.61,-17.54 -0.28,-19.7 5.74,-38.49 13.94,-56.2l0.56 -1.21 0.72 -1.03c4.34,-6.3 8.49,-16.47 8.71,-24.08 0.05,-1.68 -1.96,-6.63 -2.58,-8.21 -2.84,-7.19 -5.58,-14.03 -7.64,-21.52 -7.35,-26.71 -4.97,-53.85 1.78,-80.44 10.1,-39.84 -12.74,-68.17 -46.68,-85.49 -8.21,-4.19 -16.26,-7.26 -24.99,-10.12 -7.42,-2.43 -14.79,-4.69 -21.43,-8.94 -19.99,-12.8 -26.52,-42.81 -31.49,-64.36 -3.73,-16.17 -10.67,-29.53 -25.22,-38.22 -16.67,-9.95 -41.43,-12.86 -60.36,-16.87 -19.95,-4.22 -39.01,-9.96 -55.57,-22.32 -14.42,-10.77 -31.87,-24.58 -49.2,-29.95 -22.26,-6.9 -44.92,0.68 -65.21,10.14 -17.33,8.07 -33.52,12.19 -52.5,8.08 -7.49,-1.62 -14.67,-4.28 -22.01,-6.42 -8.28,-2.41 -16.23,-3.89 -24.85,-4.36 -40.8,-2.25 -51.9,49.38 -82.75,46.14 -26.1,-2.75 -68.38,-2.96 -88.15,18.2 -16.17,17.3 -18.47,30.3 -21.41,52.9 -3.69,28.37 -14.82,50.87 -42.33,61.97 -10.68,4.31 -23.89,10.86 -30.98,20.34 -4.6,6.15 -6.03,12.78 -6.85,20.27 -2.05,18.81 -1.38,33.09 -12.92,49.75 -6.19,8.94 -17.19,16.05 -25.29,23.45 -8.66,7.91 -15.1,16.38 -17.95,27.97 -1.55,6.31 -1.72,12 -0.73,18.4 1.51,9.86 4.84,19.83 6.78,29.74 3.21,16.4 3.58,32.19 1.7,48.8 -1.95,17.24 -3.15,37.26 8.21,51.68 5.07,6.44 11.97,12.24 17.91,17.91 5.84,5.57 9.69,12.13 11.85,19.89 2.56,9.19 1.9,19.72 4.97,28.23 4.02,11.13 16.01,18.46 26.02,23.46 13.74,6.87 25.21,16.02 33.1,29.36 9.55,16.15 11.39,42.68 26.2,52.28 3.33,-25 4.36,-53.25 -8.97,-75.22l-4.97 -8.18 5.4 -7.9c4.43,-6.48 8.09,-17.78 9.69,-25.29 4.87,-22.94 0.74,-46.13 -9.33,-67.11l-4.48 -9.33 7.21 -7.43c4.9,-5.06 10.06,-13.81 13.12,-20.02 8.71,-17.75 12.18,-37.57 10.42,-57.25l-1.22 -13.62 13.42 -2.33c5.77,-1.05 12.81,-3.82 17.95,-6.49 10.18,-5.28 18.91,-12.98 23.19,-23.86l5.16 -13.11 13.32 4.45c7.48,2.43 18.11,3.13 25.83,2.6 18.36,-1.27 33.72,-9.08 45.57,-23.23l12.08 -14.43c22.23,29.89 47.78,41.81 71.38,40.79 25.83,-1.11 53.19,-16.06 72.8,-45.81 16.92,17.39 36.79,25.03 61.54,9.23 27.93,30.35 60.31,25.34 90.15,-3.62 -2.65,53.4 24.66,69.92 71.13,77.01 -11.92,30.06 -10.01,58.84 21.64,73.29 -21.65,40.37 -22.97,66.29 9.71,102.23 -20.29,28.12 -21.71,57.33 -12.18,86.88z"/>
    <ellipse class="fil7" transform="matrix(0.813178 0.582015 -0.582015 0.813178 895.11 300.014)" rx="42.79" ry="21.02"/>
    <path class="fil8" d="M515.74 404.66c21.13,25.66 44.84,35.97 66.86,35.02 23.32,-1 47.88,-13.29 66.87,-37.55 -15.02,-2.3 -34.36,-14.22 -34.36,-14.22 -9.86,16.48 -49.88,25.84 -49.29,-15.26 -10.54,23.7 -38.78,30.35 -50.08,32.02z"/>
    <path class="fil8" d="M664.28 401.81c14.93,11.37 32.11,14.42 52.66,1.3 23.81,25.87 50.85,26.04 76.8,7.59 -6.86,-6.79 -18.98,-21.81 -21.98,-45.32 0,0 -28.78,38.78 -83.32,13.76 0,0 -9.45,15.35 -24.15,22.67z"/>
    <path class="fil7" d="M1008.71 355.07c-7.14,-19.7 -24.08,-34.93 -45.41,-45.82 -8.21,-4.19 -16.26,-7.26 -24.99,-10.12 -7.42,-2.43 -14.79,-4.69 -21.43,-8.94 -19.99,-12.8 -26.52,-42.81 -31.49,-64.36 -3.73,-16.17 -10.67,-29.53 -25.22,-38.22 -16.67,-9.95 -41.43,-12.86 -60.36,-16.87 -19.95,-4.22 -39.01,-9.96 -55.57,-22.32 -14.42,-10.77 -31.87,-24.58 -49.2,-29.95 -22.26,-6.9 -44.92,0.68 -65.21,10.14 -17.33,8.07 -33.52,12.19 -52.5,8.08 -7.49,-1.62 -14.67,-4.28 -22.01,-6.42 -8.28,-2.41 -16.23,-3.89 -24.85,-4.36 -40.8,-2.25 -51.9,49.38 -82.75,46.14 -26.1,-2.75 -68.38,-2.96 -88.15,18.2 -16.17,17.3 -18.47,30.3 -21.41,52.9 -3.69,28.37 -14.82,50.87 -42.33,61.97 -10.68,4.31 -23.89,10.86 -30.98,20.34 -4.6,6.15 -6.03,12.78 -6.85,20.27 -1.06,9.73 -1.39,18.25 -3.07,26.51 1.97,-1.12 4.05,-2.32 6.17,-3.56 0.26,-2.91 0.52,-5.91 0.87,-9.04 0.81,-7.4 2.22,-13.95 6.76,-20.02 7.01,-9.37 20.06,-15.84 30.61,-20.1 27.18,-10.96 42.18,-34.19 45.82,-62.22 2.91,-22.34 5.18,-42.18 21.16,-59.28 19.53,-20.91 57.3,-12.69 83.09,-9.98 30.48,3.21 41.44,-47.81 81.76,-45.58 8.52,0.47 16.38,1.93 24.56,4.31 7.26,2.11 14.34,4.74 21.75,6.35 18.75,4.06 34.75,-0.01 51.87,-7.98 20.05,-9.34 42.44,-16.83 64.43,-10.01 17.12,5.31 34.36,18.95 48.61,29.59 16.36,12.21 35.19,17.88 54.9,22.05 18.7,3.96 43.17,6.83 59.64,16.66 14.38,8.58 21.23,21.78 24.92,37.76 8.87,38.42 10.04,55.78 47.03,67.11 24.93,7.64 45.03,4.9 79.86,46.77z"/>
    <path class="fil8" d="M414.19 430.1l0.24 -0.6 13.32 4.45c7.48,2.43 18.11,3.13 25.83,2.6 18.36,-1.27 33.72,-9.08 45.57,-23.23l8.54 -10.2c-10.93,-2.02 -32.69,-7.2 -44.9,-17.95 0,0 -27.52,42.54 -84.32,8.26 0,0 10.95,22.83 35.73,36.67z"/>
    <path class="fil8" d="M897.39 738.89c34.81,-20.79 49.12,-48.89 60.78,-86.19l5.38 -2.84c10.24,-5.46 28.34,-18.5 32.61,-29.72 0.61,-1.59 0.88,-3.12 0.93,-4.82 0.1,-3.34 -0.52,-7.04 -1,-10.35 -0.84,-5.88 -1.53,-11.58 -1.61,-17.54 -0.28,-19.7 5.74,-38.49 13.94,-56.2l0.56 -1.21 0.72 -1.03c4.34,-6.3 8.49,-16.47 8.71,-24.08 0.05,-1.68 -1.96,-6.63 -2.58,-8.21 -2.84,-7.19 -5.58,-14.03 -7.64,-21.52 -7.35,-26.71 -4.97,-53.85 1.78,-80.44 3.43,-13.52 3.06,-25.71 -0.24,-36.59 -0.49,19.44 -8.43,61.05 -65.75,72.44 0,0 -14.31,49.17 -65.92,46.34 -11.74,29.9 -9.69,58.48 21.8,72.86 -21.65,40.37 -22.97,66.29 9.71,102.23 -20.29,28.12 -21.71,57.33 -12.18,86.88zm-652.47 -343.19c-6.21,8.84 -17.11,15.89 -25.14,23.23 -8.66,7.91 -15.1,16.38 -17.95,27.97 -1.55,6.31 -1.72,12 -0.73,18.4 1.51,9.86 4.84,19.83 6.78,29.74 3.21,16.4 3.58,32.19 1.7,48.8 -1.95,17.24 -3.15,37.26 8.21,51.68 5.07,6.44 11.97,12.24 17.91,17.91 5.84,5.57 9.69,12.13 11.85,19.89 2.56,9.19 1.9,19.72 4.97,28.23 4.02,11.13 16.01,18.46 26.02,23.46 13.74,6.87 25.21,16.02 33.1,29.36 9.55,16.15 11.39,42.68 26.2,52.28 3.33,-25 4.36,-53.25 -8.97,-75.22l-4.97 -8.18 5.4 -7.9c4.43,-6.48 8.09,-17.78 9.69,-25.29 4.87,-22.94 0.74,-46.13 -9.33,-67.11l-4.48 -9.33 7.21 -7.43c4.9,-5.06 10.06,-13.81 13.12,-20.02 8.71,-17.75 12.18,-37.57 10.42,-57.25l-1.07 -12.02c-22.96,0.6 -79.91,-4.84 -104.98,-69.56 -1.62,-4.17 -3.27,-8.03 -4.95,-11.62z"/>
    <path class="fil1" d="M447.16 365.29c0,0 15.01,43.29 60.54,47.29 45.53,4 60.55,-42.67 58.07,-39.28 -2.48,3.39 -54.56,54.28 -118.61,-8.01z"/>
    <path class="fil7" d="M519.61 177.41c5.54,14.55 -12.39,34.89 -40.05,45.43 -27.66,10.54 -54.58,7.28 -60.13,-7.27 -5.54,-14.55 12.39,-34.89 40.05,-45.43 27.66,-10.54 54.58,-7.28 60.13,7.27z"/>
    <path class="fil7" d="M436.32 247.25c0.1,11.64 -13.3,24.68 -29.93,29.12 -16.63,4.44 -30.19,-1.4 -30.29,-13.04 -0.1,-11.64 13.3,-24.68 29.93,-29.12 16.63,-4.44 30.19,1.4 30.29,13.04z"/>
    <path class="fil1" d="M530.95 181.8c0,0 -27.83,-36.39 -72.32,-25.91 -44.49,10.48 -44.11,59.51 -42.81,55.52 1.29,-4 34.78,-68.66 115.13,-29.6z"/>
    <path class="fil1" d="M307.94 350.21c0,0 -47.95,-4.29 -69.27,33.21 -21.32,37.5 13.31,76.21 11.38,72.48 -1.93,-3.73 -21.37,-82.26 57.89,-105.69z"/>
    <path class="fil6" d="M771.94 361.79c0,0 -1,41.79 31.03,51.05 32.03,9.26 58.05,-5.25 58.05,-5.25 0,0 -17.52,-67.31 -89.08,-45.79z"/>
    <path class="fil1" d="M771.19 363.29c0.75,1.5 -7.26,43.54 28.02,58.3 35.28,14.76 61.05,-14.26 61.05,-14.26 0,0 -71.81,24.27 -89.08,-44.04z"/>
    <path class="fil1" d="M399.61 458.37c0,0 -34.53,27.02 -90.58,10.26 0,0 24.52,22.27 60.05,23.02l8.26 -7.26 22.27 -26.02z"/>
    <path class="fil1" d="M347.31 544.2c0,0 -13.51,35.28 -59.3,38.53 0,0 20.27,8.76 51.3,-0.75l7.76 -9.76 0.25 -28.03z"/>
    <path class="fil1" d="M880.03 534.94c0,0 13.76,18.02 45.04,16.01 0,0 -9.76,13.01 -42.79,6.76l-4.5 -8.26 2.25 -14.51z"/>
    <path class="fil1" d="M898.04 637.28c0,0 9.26,19.52 28.78,23.52 0,0 -21.77,6.26 -37.78,-6.76l2 -8.51 7.01 -8.26z"/>
    <path class="fil6" d="M615.03 387.18c0,0 17.77,18.64 44.16,16.01 26.4,-2.63 29.84,-25.4 29.84,-25.4 0,0 -8.7,-13.51 -34.97,-14.01 -26.27,-0.5 -38.79,16.01 -39.03,23.4z"/>
    <path class="fil1" d="M614.03 386.31c0,0 12.68,25.14 42.41,24.27 23.76,-0.7 32.65,-32.53 32.65,-32.53 0,0 -28.9,36.16 -75.07,8.26z"/>
    <path class="fil1" d="M866.48 268.95c0,0 60.55,4.5 65.06,65.06 0,0 10.01,-38.54 -7.51,-58.8 -17.52,-20.27 -57.55,-6.26 -57.55,-6.26z"/>
    <path class="fil1" d="M220.03 598.49c0,0 20.39,23.52 54.42,30.28 0,0 -15.51,7.01 -48.04,-2.5l-10.76 -12.26 4.38 -15.51z"/>
    <path class="fil1" d="M1019.74 502.63c0,0 -13.09,28.25 -43.92,44.15 0,0 16.85,2.44 45.48,-15.7l6.95 -14.76 -8.5 -13.7z"/>
    <path class="fil1" d="M294.58 292.1c0.75,-1.75 25.52,-43.79 -11.76,-70.81 0,0 36.78,5 37.53,45.29l-1.25 14.26 -24.52 11.26z"/>
    <path class="fil1" d="M1038.17 504.05c-0.13,-1.9 -11,-50.51 33.11,-63.7 0,0 -38.87,-10.43 -52.64,24.35l-1.28 19.88 20.8 19.48z"/>
    <path class="fil1" d="M899.95 260.48c1.77,0.7 44.5,24.25 70.45,-13.79 0,0 -3.94,36.91 -44.19,38.82l-14.29 -0.84 -11.96 -24.19z"/>
    <path class="fil8" d="M961.74 380.79c13.29,27.65 11.15,46.09 0.05,57.5 -14.12,14.51 -41.98,16.59 -62.61,0.06 39.89,4.89 62.4,-19.12 62.56,-57.55z"/>
    <ellipse class="fil6" cx="239.33" cy="552.31" rx="19.52" ry="39.54"/>
    <ellipse class="fil6" transform="matrix(0.289525 0.957171 -0.957171 0.289525 944.958 624.877)" rx="19.52" ry="39.54"/>
    <ellipse class="fil7" transform="matrix(0.321274 0.946945 -0.809549 0.27951 646.425 154.199)" rx="21.52" ry="50.54"/>
    <ellipse class="fil7" transform="matrix(0.605915 0.79553 -0.79553 0.605915 297.365 387.16)" rx="22.77" ry="43.29"/>
    <path class="fil8" d="M448.97 345.31c0,0 15.01,39.03 64.06,41.04 49.04,2 67.56,-41.04 67.56,-41.04 0,0 -56.55,34.53 -131.62,0z"/>
    <path class="fil8" d="M778.26 341.3c10.25,58.19 54.47,73.89 105.09,50.04 0,0 -64.06,6.51 -105.09,-50.04z"/>
    <path class="fil7" d="M704.69 179.91c0,0 69.06,-18.52 104.09,37.03 0,0 -11.51,-42.54 -37.53,-53.05 -26.02,-10.51 -66.56,16.01 -66.56,16.01z"/>
    <ellipse class="fil7" cx="726.46" cy="205.18" rx="42.79" ry="21.02"/>
    <ellipse class="fil7" transform="matrix(0.332947 -0.170758 0.226803 0.442225 299.828 431.884)" rx="42.79" ry="21.02"/>
   </g>
  </g>
 </g>
</svg>
