<?xml version="1.0" encoding="UTF-8"?>
<!DOCTYPE svg PUBLIC "-//W3C//DTD SVG 1.1//EN" "http://www.w3.org/Graphics/SVG/1.1/DTD/svg11.dtd">
<!-- Creator: CorelDRAW 2020 (64-Bit) -->
<svg xmlns="http://www.w3.org/2000/svg" xml:space="preserve" width="129.436mm" height="197.988mm" version="1.1" style="shape-rendering:geometricPrecision; text-rendering:geometricPrecision; image-rendering:optimizeQuality; fill-rule:evenodd; clip-rule:evenodd"
viewBox="0 0 1068.04 1633.69"
 xmlns:xlink="http://www.w3.org/1999/xlink"
 xmlns:xodm="http://www.corel.com/coreldraw/odm/2003">
 <defs>
  <style type="text/css">
   <![CDATA[
    .fil0 {fill:none}
    .fil4 {fill:#4B3446}
    .fil1 {fill:#501D33}
    .fil2 {fill:#634C54}
    .fil3 {fill:#896E6B}
    .fil7 {fill:#D77D75}
    .fil8 {fill:#F9F9F9}
    .fil5 {fill:#FFCFA5}
    .fil6 {fill:#FFE0B3}
   ]]>
  </style>
 </defs>
 <g id="Слой_x0020_1">
  <metadata id="CorelCorpID_0Corel-Layer"/>
  <rect id="_166536576" class="fil0" width="1068.04" height="1633.69"/>
  <g id="_645010304">
   <g>
    <path class="fil1" d="M234.21 433.79c0,0 -70.51,42.4 -67.83,102.2 2.68,59.8 74.97,109.78 50.88,241.88 -10.64,58.33 16.13,116.6 107.07,150.44 1.3,-1.6 2.6,-3.2 3.92,-4.77 45.51,-54.41 121.52,-116.35 197.01,-117.45 75.66,-1.1 158.85,63.2 208.23,120.66 2.73,3.18 5.42,6.43 8.09,9.71 77.36,-21.13 126.56,-58.19 145.92,-112.94 15.38,-43.48 -1.06,-88.89 -8.68,-171.03 -7.12,-76.74 -198.32,-351.23 -198.32,-351.23l-126.74 -51.77c0,0 -265.98,65.6 -319.53,184.31z"/>
    <path class="fil2" d="M672.11 315.29l-118.46 -48.39c-19.08,4.89 -38.37,10.93 -56.96,17.1 -43.31,14.36 -86.72,31.58 -127.14,52.78 -43,22.55 -99.25,58.61 -119.93,104.46l-1.9 4.2 -3.95 2.37c-11.12,6.7 -23.34,17.21 -32.2,26.53 -15.84,16.66 -29.36,38.22 -28.3,62.06 0.06,1.39 0.17,2.79 0.33,4.18 1.42,12.86 6.63,25.61 11.97,37.29 7.2,15.75 15.18,31.01 21.93,47 21.93,51.97 26.42,100.34 16.27,155.98 -5.5,30.16 -2.46,59.88 25.56,77.25 3.82,2.37 7.86,4.37 12.02,6.07 22.65,9.26 56.65,11.55 81.05,8l0.29 -0.04 30.32 -3.19c41.55,-34.46 92.01,-62.13 142.23,-62.86 57.12,-0.83 118.52,35.61 166.44,78.25 4.08,1.24 8.28,2.27 12.64,3 61.49,5.67 101.72,-15.15 127.9,-48.94 37.91,-48.93 18.4,-130.29 19.25,-192.53 4.07,-17.09 15.18,-47.92 7.7,-62.88 -18.2,-36.4 -41.34,-72.01 -64.37,-105.53 -26.73,-38.91 -55.09,-76.89 -84.18,-114.07 -12.63,-16.14 -25.42,-32.3 -38.51,-48.09z"/>
    <path class="fil3" d="M236.04 452.94c-8.79,6.31 -17.63,14.21 -24.46,21.4 -15.84,16.66 -29.36,38.22 -28.3,62.06 0.06,1.39 0.17,2.79 0.33,4.18 1.42,12.86 6.63,25.61 11.97,37.29 7.2,15.75 15.18,31.01 21.93,47 19.98,47.34 25.48,91.7 18.63,141.29 30.03,-93.44 -28.13,-179.36 -36.17,-224.37 -8.04,-45.01 36.68,-88.12 36.68,-88.12 -0.2,-0.25 -0.41,-0.48 -0.61,-0.73z"/>
    <path class="fil4" d="M672.11 315.29l-118.46 -48.39c-19.08,4.89 -38.37,10.93 -56.96,17.1 -43.31,14.36 -86.72,31.58 -127.14,52.78 -43,22.55 -99.24,58.61 -119.93,104.46l-1.9 4.2 -3.95 2.37c-7.06,4.26 -14.57,10.05 -21.38,16.1 16.8,25.68 68.35,89.1 20.15,138.59 0,0 18.13,2.95 30.78,-1.27 0,0 74.32,170.31 -34.1,236.16 17.58,31.79 53.45,56.37 99.62,73.95 46.16,-51.07 116.5,-104.24 186.41,-105.26 73.43,-1.07 153.96,59.47 203.78,115.57 56.1,-15.73 102.43,-39.46 128.52,-71.03 39.43,-47.71 9.24,-136.4 10.08,-198.64 4.07,-17.09 -0.98,-54.03 -8.46,-68.99 -18.2,-36.4 -41.34,-72.01 -64.37,-105.53 -26.73,-38.91 -55.09,-76.89 -84.18,-114.07 -12.63,-16.14 -25.42,-32.3 -38.51,-48.09z"/>
   </g>
   <path class="fil1" d="M283.14 482.48c-4.98,120.79 11.48,228.36 11.48,228.36 0,0 4.51,93.49 78.91,143.63 23.23,15.66 67.29,36.76 115.44,47.29 40.38,8.83 50.53,8.81 90.95,-0.09 47.99,-10.56 91.87,-31.59 115.04,-47.21 74.39,-50.14 78.91,-143.63 78.91,-143.63 0,0 16.46,-107.57 11.48,-228.36 -1.91,-46.4 -10.53,-65.53 -41.95,-101.44 -99.74,-114.01 -317.8,-112.33 -418.3,0 -31.81,35.56 -40.04,55.04 -41.95,101.44z"/>
   <path class="fil5" d="M299.63 483.16c-2.15,52.23 -0.55,105 3.78,157.09 1.87,22.53 4.1,45.72 7.53,68.09l0.13 0.84 0.04 0.85c0.74,15.18 5.66,34.43 10.65,48.58 11.69,33.16 31.56,62.33 61,82.17 30.47,20.53 74.08,37.06 109.74,44.86 13.41,2.93 28.11,6.23 41.89,6.22 13.81,-0.01 28.55,-3.35 41.98,-6.3 35.54,-7.82 78.98,-24.3 109.36,-44.77 29.44,-19.84 49.3,-49.01 61,-82.17 4.99,-14.15 9.91,-33.4 10.65,-48.58l0.04 -0.85 0.13 -0.84c3.43,-22.37 5.66,-45.56 7.53,-68.09 4.32,-52.09 5.93,-104.86 3.78,-157.09 -1.78,-43.2 -9.5,-58.82 -37.88,-91.25 -93.27,-106.61 -299.75,-104.73 -393.58,0.14 -28.76,32.14 -35.98,48.01 -37.76,91.11z"/>
   <g>
    <path class="fil6" d="M415.36 338.76c0,0 95.63,51.52 92.57,79.47 -3.06,27.95 -195.62,30.13 -195.62,30.13 0,0 27.07,-72.05 103.05,-109.6z"/>
    <ellipse class="fil6" cx="498.33" cy="447.3" rx="20.08" ry="10.04"/>
   </g>
   <path class="fil7" d="M300.78 602.63c8.29,-26.71 27.64,-86.88 73.3,-129.43 56.1,-52.28 94.18,-29.39 130.29,-82.69 0,0 19.82,35.41 -4.22,76.73 0,0 30.36,-2.53 48.48,-39.21 0,0 31.62,33.31 24.03,76.73 0,0 18.13,-21.5 14.34,-62.4 -0.17,-1.87 20.41,25.23 30.92,72.02 14.64,65.2 63.63,119.66 143.63,163.09 1.37,-12.45 2.5,-24.94 3.52,-37.24 4.32,-52.09 5.93,-104.86 3.78,-157.09 -1.78,-43.2 -9.5,-58.82 -37.88,-91.25 -93.27,-106.61 -299.75,-104.73 -393.58,0.14 -28.76,32.14 -35.98,48.01 -37.76,91.11 -1.64,39.69 -1.1,79.7 1.15,119.48z"/>
   <path class="fil8" d="M302.09 623.21c0.4,5.69 0.84,11.36 1.31,17.04 1.87,22.53 4.1,45.72 7.53,68.09l0.13 0.84 0.04 0.85c0.74,15.18 5.66,34.43 10.65,48.58 1.82,5.17 3.84,10.24 6.07,15.19 -11.61,-55.12 -16.6,-116.57 -18.22,-171.23l-7.51 20.64z"/>
   <path class="fil7" d="M332.59 763.48c11.47,29.37 29.91,55.09 56.41,72.95 29.3,19.75 71.24,35.64 105.53,43.14 12.9,2.82 27.03,5.99 40.28,5.98 13.28,-0.01 27.45,-3.22 40.37,-6.06 34.18,-7.52 75.95,-23.37 105.17,-43.06 23.57,-15.88 40.75,-37.98 52.34,-63.34 -11.29,17.3 -25.91,32.41 -44.17,44.13 -30.67,19.69 -74.54,35.54 -110.43,43.06 -13.57,2.84 -28.45,6.05 -42.4,6.06 -13.92,0.01 -28.76,-3.16 -42.3,-5.98 -36.01,-7.5 -80.05,-23.39 -110.81,-43.14 -21.57,-13.84 -38.05,-32.41 -49.98,-53.74z"/>
   <path class="fil1" d="M296.25 300.8c0,0 55.34,-78.1 151.29,-33.03l12.5 90.6 -69.17 16.51 -94.61 -74.08z"/>
   <path class="fil2" d="M310.97 307.49c0,0 40.17,-57.57 129.42,-29.01l16.07 76.76 -66.94 2.68 -78.55 -50.43z"/>
   <path class="fil4" d="M310.97 307.49c0,0 1.74,-2.49 5.29,-6.17 80.12,22.35 106.13,-13.58 112.55,-26.13 3.77,0.94 7.62,2.03 11.58,3.3l16.07 76.76 -66.94 2.68 -78.55 -50.43z"/>
   <path class="fil1" d="M409.6 270.01c0,0 -15.17,-40.17 -62.93,-49.98 0,0 60.25,-7.14 87.92,42.84l-1.78 11.6 -23.21 -4.46z"/>
   <path class="fil1" d="M483.76 372.78c0,0 92.23,-32.39 172.1,96.21 1.81,2.91 10.78,-0.42 12.57,2.66l-26.98 -138.71c0,0 -86.85,-35.42 -90.22,-33.73 -3.37,1.69 -43.43,26.98 -46.38,32.46 -2.95,5.48 -21.08,41.11 -21.08,41.11z"/>
   <path class="fil4" d="M489.24 362.03c85.94,-21.59 138.73,41.1 173.7,97.81 0,0 23.61,2.95 26.14,-16.02 2.53,-18.97 -23.61,-112.99 -35.42,-128.59 -11.81,-15.6 -32.89,-40.9 -48.91,-44.69 -16.02,-3.79 -56.5,-13.07 -68.72,-12.23 -12.23,0.84 -18.55,-0.84 -25.3,5.48 -6.74,6.32 -32.89,76.31 -21.5,98.24z"/>
   <path class="fil1" d="M473.95 373.98c-18.54,-14.6 -65.43,-62.38 -32.62,-138.11 28.72,-66.3 116.61,-88.21 181.5,-74.02 67.39,14.74 94.85,80.09 134.62,129.58 33.7,41.93 73.78,86.57 122.14,123.36 23.89,18.17 36.53,21.76 49.95,52.45 10.07,23.03 14.81,56.86 -8.02,98.88 0,0 43.73,115.14 -38.38,151.73 -56.98,-151.82 -172.53,-104.2 -232.66,-248.75 -35.79,-86.03 -52.72,-182.76 -118.11,-170.75 -43.73,8.03 -43.07,77.43 -43.07,77.43 -1.77,4.82 -7.95,4.03 -15.35,-1.8z"/>
   <path class="fil1" d="M320.52 518.24c0,0 -5.48,-102.03 88.54,-106.25 0,0 -45.96,-47.64 -83.06,-43.85 -37.1,3.79 -65.77,21.92 -65.77,25.72 0,3.79 34.99,135.34 60.29,124.38z"/>
   <path class="fil4" d="M390.09 406.09c0,0 -80.95,3.37 -78,98.66 0,0 -10.96,7.17 -15.6,5.48 -4.64,-1.69 -39.21,-94.44 -39.21,-94.44 0,0 25.72,-39.63 28.25,-40.48 2.53,-0.84 44.69,-5.48 44.69,-5.48 0,0 89.38,5.48 59.87,36.26z"/>
   <path class="fil1" d="M452.24 342.53c0,0 -38.83,-2.23 -85.24,-18.74 -28.19,-10.03 -58.18,-27.46 -84.07,-36.51 -16.74,-5.85 -30.66,-9.42 -44.99,-1.1 -36.51,21.2 -7.05,78.22 -7.05,78.22 -24.31,12.3 -25.58,42.91 -12.66,63.36 26.06,41.24 81.83,114.58 21.58,163.35 67.35,-2.59 102.58,-48.97 67.62,-108.34 -18.7,-31.75 -31.22,-61.05 -13.48,-76.53 42.81,-37.37 142.17,57.89 195.78,-32.47l-15.17 -23.65 -22.31 -7.59z"/>
   <path class="fil2" d="M469.19 355.02c0,0 -39.32,6.84 -119.77,-20.49 -27.05,-9.19 -88.04,-47.16 -105.6,-30.83 -19.19,17.85 0.22,54.22 0.22,54.22 0,0 21.42,-12.72 53.78,-16.29 0,0 -74.08,25.44 -68.73,61.59 5.36,36.15 76.31,97.74 42.4,169.14 0,0 36.15,-12.05 36.15,-44.63 0,-32.58 -55.34,-92.38 -27.67,-125.85 15.52,-18.77 44.94,-18.17 67.79,-14.02 42.2,7.66 97.66,32.83 130.36,-17.22l-0.89 -10.71 -8.03 -4.91z"/>
   <path class="fil3" d="M333.54 327.97c-30.18,-13.72 -75.08,-37.9 -89.73,-24.28 -19.19,17.85 0.22,54.22 0.22,54.22 0,0 0.56,-0.33 1.63,-0.9 -12.34,-69.07 34.8,-45.39 87.87,-29.04zm-41.98 16.02c-17.74,7.09 -66.87,29.54 -62.48,59.22 5.36,36.15 76.31,97.74 42.4,169.14 0,0 0.82,-0.27 2.19,-0.84 40.9,-54.95 -26.32,-139.36 -28.8,-170.54 -2.21,-27.84 36.85,-51.48 46.68,-56.98z"/>
   <path class="fil4" d="M469.19 355.02c0,0 -31.32,5.44 -95.22,-12.8 -5.03,10.29 -19.29,28.99 -59.08,43.63 11.04,-0.99 22.61,0.15 32.86,2.01 42.21,7.66 97.66,32.83 130.36,-17.22l-0.89 -10.71 -8.03 -4.91z"/>
   <path class="fil2" d="M479.25 365.29c0,0 -48.64,-38.38 -33.47,-105.32 8.76,-38.64 41.61,-65.98 80.24,-79.27 50.43,-17.34 95.77,-11.27 125.68,8.01 39.85,25.69 59.23,74.13 93.75,115.18 32.9,39.14 81.59,91.46 131.44,125.08 25.51,17.2 39.99,33.42 43.2,67.53 1.43,15.23 -0.74,30.72 -8.85,53.1l-7.14 9.82c0,0 34.36,87.47 -12.94,131.21 0,0 -33.47,-77.21 -123.62,-119.6 -54.17,-25.48 -86.43,-74.65 -106.26,-118.55 -19.19,-42.5 -27.82,-96.26 -54.17,-133.2 -15.38,-21.57 -36.89,-37.94 -67.17,-36.99 -57.12,1.78 -66.94,66.94 -60.69,83.01z"/>
   <path class="fil3" d="M449.96 323.37c-6.5,-16.65 -9.95,-37.96 -4.18,-63.41 8.76,-38.64 41.61,-65.98 80.24,-79.27 50.43,-17.34 95.77,-11.27 125.68,8.01 32.21,20.76 51.05,56.4 75.32,90.98 -57.23,-70.97 -126.63,-119.17 -206.18,-85.71 -79.56,33.46 -73.54,102.33 -70.88,129.39z"/>
   <path class="fil3" d="M477.84 360.52c0,0 -27.4,-108.35 51.02,-125.22 78.42,-16.87 148.41,84.32 148.41,84.32 0,0 -39.63,-84.74 -88.12,-100.34 -48.48,-15.6 -100.34,0 -120.16,36.26 -19.82,36.26 -5.9,84.74 8.85,104.98z"/>
   <path class="fil4" d="M866.17 421.44c3.56,2.6 7.14,5.11 10.72,7.53 25.51,17.2 39.99,33.42 43.2,67.53 1.43,15.23 -0.74,30.72 -8.85,53.1l-7.14 9.82c0,0 34.36,87.47 -12.94,131.21 0,0 -33.47,-77.21 -123.62,-119.6 -9.39,-4.42 -18.12,-9.55 -26.25,-15.24 114.26,7.63 37.06,-130.33 37.06,-130.33l-3.79 -6.43 -13.49 -18.45c74.76,72.19 100.21,58.93 105.11,20.86z"/>
   <path class="fil1" d="M907.67 569.24c0,0 -16.06,-35.7 -70.51,-80.78 -54.45,-45.07 -79.88,-93.72 -79.88,-93.72 54.07,72.15 122.22,95.39 162,160.44l-11.6 14.06z"/>
   <path class="fil1" d="M479.69 364.4c0,0 -33.02,-65.16 -1.78,-109.78 31.24,-44.63 94.61,-46.41 140.13,-8.93 45.52,37.49 59.8,103.09 116.03,129.87 0,0 -31.24,-18.3 -80.33,-108 -33.86,-61.87 -99.13,-74.03 -145.45,-54.29 -38.83,16.54 -66.54,55.8 -56.4,110.69 4.21,22.82 10.23,34.78 23.24,53.25 6.67,-2.07 10.48,-3.96 4.57,-12.81z"/>
   <path class="fil1" d="M482.01 379.94c0,0 43.43,10.54 45.11,64.51 0,0 14.76,-45.96 -8.43,-64.93 -23.19,-18.97 -36.68,0.42 -36.68,0.42z"/>
   <path class="fil1" d="M472.93 381.41c0,0 106.74,-10.39 121.01,98.29 31.49,-44.8 18.13,-99.55 -10.85,-124.99 -29.95,-26.29 -83.2,-27.01 -110.16,26.7z"/>
   <path class="fil2" d="M493.61 370.88c0,0 25.09,-36.05 68.51,-14.55 21.09,10.44 31.95,33.37 35.58,54.85 3.85,22.75 -0.38,43.17 -0.38,43.17 0,0 -19.39,-84.32 -103.72,-83.48z"/>
   <path class="fil4" d="M653.22 378.21c0,0 56.5,129.86 117.21,158.53 -77.5,-23.14 -94.55,-88.65 -117.21,-158.53z"/>
   <path class="fil3" d="M684.55 299.29c0,0 29.14,37.48 66.15,61.25 -19.02,-19.94 -29.84,-44.07 -45.21,-79.29 21.21,35.29 67.72,99.52 100.34,116.79 -43.66,-16.9 -73.18,-25.71 -121.29,-98.74z"/>
  </g>
 </g>
</svg>
