<?xml version="1.0" encoding="UTF-8"?>
<!DOCTYPE svg PUBLIC "-//W3C//DTD SVG 1.1//EN" "http://www.w3.org/Graphics/SVG/1.1/DTD/svg11.dtd">
<!-- Creator: CorelDRAW 2020 (64-Bit) -->
<svg xmlns="http://www.w3.org/2000/svg" xml:space="preserve" width="129.436mm" height="197.988mm" version="1.1" style="shape-rendering:geometricPrecision; text-rendering:geometricPrecision; image-rendering:optimizeQuality; fill-rule:evenodd; clip-rule:evenodd"
viewBox="0 0 947.26 1448.95"
 xmlns:xlink="http://www.w3.org/1999/xlink"
 xmlns:xodm="http://www.corel.com/coreldraw/odm/2003">
 <defs>
  <style type="text/css">
   <![CDATA[
    .fil0 {fill:none}
    .fil2 {fill:#4B3446}
    .fil1 {fill:#501D33}
    .fil6 {fill:#634C54}
    .fil7 {fill:#896E6B}
    .fil10 {fill:#D7734D}
    .fil5 {fill:#D77D75}
    .fil8 {fill:#F6D476}
    .fil3 {fill:#FFCFA5}
    .fil4 {fill:#FFE0B3}
    .fil9 {fill:#FFFF99}
   ]]>
  </style>
 </defs>
 <g id="Слой_x0020_1">
  <metadata id="CorelCorpID_0Corel-Layer"/>
  <rect id="_166536576" class="fil0" width="947.26" height="1448.95"/>
  <g id="_631872928">
   <path class="fil1" d="M244.56 397.74c0,0 -12.39,112.69 14.72,164.2l-12.39 0.78c0,0 -27.5,-59.25 -2.32,-164.98z"/>
   <g>
    <path class="fil1" d="M250.05 672.27c-8.19,60.74 12.23,106.48 48.91,137.77 40.91,-45.82 104.1,-94.19 166.9,-95.1 65.21,-0.95 136.72,52.87 180.9,102.68 41.97,-30.59 64.98,-81.26 50.97,-163.93 -32.25,-190.28 -395.5,-203.66 -447.68,18.59z"/>
    <path class="fil2" d="M261.43 670.97c-7.72,57.27 11.35,100.5 45.72,130.18 40.87,-42.97 99.96,-85.36 158.7,-86.21 61.3,-0.89 128.17,46.62 172.67,93.7 39.56,-29.08 61.18,-77.12 47.93,-155.31 -30.62,-180.66 -375.49,-193.36 -425.03,17.65z"/>
   </g>
   <path class="fil1" d="M251.31 427.96c-4.42,107.13 10.18,202.54 10.18,202.54 0,0 4,82.92 69.98,127.38 20.6,13.89 59.68,32.61 102.38,41.95 35.82,7.83 44.82,7.81 80.66,-0.08 42.57,-9.37 81.48,-28.02 102.03,-41.87 65.98,-44.47 69.98,-127.38 69.98,-127.38 0,0 14.6,-95.4 10.18,-202.54 -1.69,-41.15 -9.34,-58.12 -37.2,-89.97 -88.46,-101.12 -281.86,-99.63 -371,0 -28.21,31.54 -35.51,48.81 -37.2,89.97z"/>
   <path class="fil3" d="M265.94 428.57c-1.91,46.33 -0.48,93.13 3.35,139.33 1.66,19.98 3.64,40.55 6.68,60.39l0.11 0.75 0.04 0.76c0.66,13.46 5.02,30.54 9.44,43.09 10.37,29.41 27.99,55.28 54.1,72.87 27.02,18.21 65.71,32.87 97.33,39.79 11.9,2.6 24.93,5.53 37.15,5.52 12.25,-0.01 25.32,-2.97 37.24,-5.59 31.52,-6.93 70.05,-21.55 97,-39.71 26.11,-17.6 43.73,-43.47 54.1,-72.87 4.42,-12.55 8.79,-29.63 9.44,-43.09l0.04 -0.76 0.11 -0.75c3.04,-19.84 5.02,-40.41 6.68,-60.39 3.83,-46.2 5.26,-93 3.35,-139.33 -1.58,-38.31 -8.43,-52.17 -33.6,-80.93 -82.72,-94.55 -265.86,-92.89 -349.07,0.12 -25.51,28.51 -31.91,42.58 -33.49,80.81z"/>
   <path class="fil4" d="M368.58 300.5c0,0 84.81,45.7 82.1,70.48 -2.71,24.79 -173.5,26.72 -173.5,26.72 0,0 24.01,-63.9 91.39,-97.2z"/>
   <path class="fil5" d="M265.94 428.57c-1.91,46.33 -0.48,93.13 3.35,139.33 1.6,19.3 3.5,39.16 6.37,58.37 12.92,-34.62 100.47,-241.44 353.75,-259.18l8.52 18.59c0,0 -34.26,118.54 38.44,208.2 0.89,-8.7 1.66,-17.39 2.37,-25.98 3.83,-46.2 5.26,-93 3.35,-139.33 -1.58,-38.31 -8.43,-52.17 -33.6,-80.93 -82.72,-94.55 -265.86,-92.89 -349.07,0.12 -25.51,28.51 -31.91,42.58 -33.49,80.81z"/>
   <path class="fil5" d="M295.17 677.19c10.17,26.05 26.52,48.86 50.03,64.7 25.99,17.51 63.18,31.61 93.59,38.26 11.44,2.5 23.97,5.32 35.73,5.31 11.78,-0.01 24.35,-2.86 35.81,-5.38 30.31,-6.67 67.36,-20.73 93.27,-38.19 20.9,-14.09 36.14,-33.69 46.42,-56.18 -10.02,15.34 -22.98,28.74 -39.17,39.14 -27.21,17.46 -66.11,31.52 -97.95,38.19 -12.03,2.52 -25.23,5.37 -37.6,5.38 -12.35,0.01 -25.5,-2.81 -37.52,-5.31 -31.93,-6.65 -71,-20.74 -98.28,-38.26 -19.13,-12.28 -33.75,-28.75 -44.33,-47.66z"/>
   <path class="fil1" d="M659.7 359.01c-169.8,-10.32 -335.01,91.01 -398.49,246.69 0,0 -49.69,-68.03 -73.17,-169.63 -4.09,-17.69 -4.21,-20.88 2.42,-39.84 14.72,-42.14 105.73,-154.9 265.44,-207.11 14.22,-4.65 21.61,-7.89 37.75,-3.5 36.62,9.95 126.65,57.55 183.48,128.48l0 13.55 -17.43 31.37z"/>
   <path class="fil1" d="M670.54 310.6c0,0 63.51,25.56 94.49,100.69 -0,81.65 -53.28,166.21 -82.87,204.67 -28.52,-82.58 -45.37,-168.96 -28.27,-270.12l16.65 -35.24z"/>
   <path class="fil6" d="M662.22 321.25c0,0 -69.9,-84.62 -178.72,-121.79 -96.79,15.98 -249.41,115.15 -283.86,216.09 0,0 6.97,86.36 58.09,146.77l8.91 0c0,0 94.11,-219.19 391.53,-220.74l4.06 -20.33z"/>
   <path class="fil2" d="M662.22 321.25c0,0 -16.36,-19.81 -45.58,-44.46 9.39,15.19 20.04,47.46 -60.99,45.38l82.87 18.59c0,0 12.54,-6.2 22.06,-11.34l1.63 -8.17z"/>
   <path class="fil7" d="M484.9 199.95c-0.47,-0.16 -0.93,-0.33 -1.4,-0.49 -96.79,15.98 -249.41,115.15 -283.86,216.09 0,0 5.05,62.42 37.97,118.25 -7.41,-21 -21.43,-66.37 -23.69,-114.42 0,0 63.47,-149.88 270.99,-219.43z"/>
   <path class="fil2" d="M265.98 562.33l0.65 0c0,0 88.55,-206.22 365.29,-220.01 -159.95,-36.4 -325.18,54.01 -365.94,220.01z"/>
   <path class="fil1" d="M664.1 354.34c0,0 -66.3,-25.27 -151.37,-29.86 0,0 67.45,-10.98 150.2,11.67l1.18 18.19z"/>
   <path class="fil6" d="M671.9 328.42c0,0 51.7,18.59 76.48,84.04 0,44.05 -32.39,149.43 -62.74,165.75 -23.66,-59.73 -31.66,-189.34 -13.75,-249.78z"/>
   <path class="fil7" d="M717.77 361.83c11.25,12.42 22.41,28.95 30.62,50.62 0,41.63 -28.94,138.03 -57.73,162.26 33.41,-54.73 46.43,-159.22 46.43,-159.22 -6.97,-29.04 -19.36,-53.44 -19.36,-53.44l0.04 -0.22z"/>
   <path class="fil2" d="M677.27 330.77c8.44,4.1 25.59,13.98 42.22,32.99 -55.3,65.45 -44.55,165.43 -38.25,201.95 -18.93,-59.86 -25.3,-166.55 -12.18,-226.17l8.2 -8.76z"/>
   <path class="fil1" d="M320.08 389.22c0,0 -58.09,79.78 -52.67,185.89l-12.01 1.55c0,0 -19.36,-84.04 64.67,-187.44z"/>
   <path class="fil1" d="M692.88 494.09c0,0 -4.14,40.93 2.58,94.35l-12.14 -0.12c0,0 -4.33,-37.63 9.56,-94.23z"/>
   <path class="fil1" d="M621.81 355.49l43.37 -56.93c0,0 39.89,6.2 40.66,35.63l-46.86 57.32c0,0 -37.57,-2.71 -37.18,-36.02z"/>
   <path class="fil8" d="M633.76 357.98c0.7,7.86 4.7,13.45 12.1,17.29 2.61,1.36 6.11,2.64 9.47,3.43l38.31 -46.86c-1.43,-7.28 -7,-12.17 -13.63,-15.68 -3.17,-1.68 -7.16,-3.27 -11.04,-4.39l-35.21 46.22z"/>
   <path class="fil9" d="M683.5 344.25l10.15 -12.42c-1.43,-7.28 -7,-12.17 -13.63,-15.68 -3.17,-1.68 -7.16,-3.27 -11.04,-4.39l-10.77 14.14c5.61,0.36 19.89,2.83 25.3,18.34z"/>
   <path class="fil10" d="M651.43 338.64l-15.3 19.75c0,0 1.16,15.3 18.59,17.43 6,-7.55 12.01,-15.1 18.01,-22.65 -8.81,-0.33 -16.11,-4.64 -21.3,-14.52z"/>
   <rect class="fil1" transform="matrix(0.686853 -0.842807 0.842807 0.686853 650.755 330.441)" width="6.78" height="33.3"/>
   <path class="fil1" d="M725.09 360.12c0,0 -29.43,35.24 -41.82,76.68 0,0 5.23,-47.05 33.11,-83.84l6.39 3.1 2.32 4.07z"/>
   <path class="fil2" d="M283.02 415.11c0,0 72.03,-113.08 259.47,-109.98 0,0 -62.74,-18.59 -146.39,11.23 -83.65,29.82 -113.08,98.75 -113.08,98.75z"/>
   <path class="fil2" d="M628.07 303.97c0,0 -58.48,-40.47 -170.79,-42.41 52.19,-4.09 131.66,-5.22 170.79,42.41z"/>
   <path class="fil7" d="M260.36 347.34c0,0 56.35,-59.83 161.68,-82.1 0,0 -58.48,3.1 -127.02,36.02l-17.43 13.17 -17.23 32.92z"/>
   <path class="fil7" d="M333.05 269.93c0,0 69.67,-38.78 180.12,-40.56 0,0 -52.41,-8.62 -118.46,3.56l-61.66 37z"/>
  </g>
 </g>
</svg>
