<?xml version="1.0" encoding="UTF-8"?>
<!DOCTYPE svg PUBLIC "-//W3C//DTD SVG 1.1//EN" "http://www.w3.org/Graphics/SVG/1.1/DTD/svg11.dtd">
<!-- Creator: CorelDRAW 2020 (64-Bit) -->
<svg xmlns="http://www.w3.org/2000/svg" xml:space="preserve" width="129.436mm" height="197.988mm" version="1.1" style="shape-rendering:geometricPrecision; text-rendering:geometricPrecision; image-rendering:optimizeQuality; fill-rule:evenodd; clip-rule:evenodd"
viewBox="0 0 851.03 1301.75"
 xmlns:xlink="http://www.w3.org/1999/xlink"
 xmlns:xodm="http://www.corel.com/coreldraw/odm/2003">
 <defs>
  <style type="text/css">
   <![CDATA[
    .fil0 {fill:none}
    .fil7 {fill:#4B3446}
    .fil1 {fill:#501D33}
    .fil6 {fill:#634C54}
    .fil8 {fill:#896E6B}
    .fil5 {fill:#D77D75}
    .fil3 {fill:#F9F9F9}
    .fil2 {fill:#FFCFA5}
    .fil4 {fill:#FFE0B3}
   ]]>
  </style>
 </defs>
 <g id="Слой_x0020_1">
  <metadata id="CorelCorpID_0Corel-Layer"/>
  <rect id="_166536576" class="fil0" width="851.03" height="1301.75"/>
  <g id="_631870816">
   <path class="fil1" d="M225.61 384.44c-3.97,96.25 9.15,181.96 9.15,181.96 0,0 3.6,74.49 62.87,114.44 18.51,12.48 53.62,29.29 91.98,37.69 32.18,7.04 40.26,7.02 72.47,-0.07 38.24,-8.41 73.2,-25.17 91.67,-37.62 59.28,-39.95 62.87,-114.44 62.87,-114.44 0,0 13.12,-85.71 9.15,-181.96 -1.52,-36.97 -8.39,-52.21 -33.42,-80.83 -79.48,-90.85 -253.23,-89.51 -333.31,0 -25.35,28.33 -31.9,43.85 -33.42,80.83z"/>
   <path class="fil2" d="M238.75 384.98c-1.72,41.62 -0.43,83.67 3.01,125.17 1.49,17.95 3.27,36.43 6,54.25l0.1 0.67 0.03 0.68c0.59,12.09 4.51,27.44 8.48,38.71 9.32,26.42 25.15,49.66 48.6,65.47 24.28,16.36 59.03,29.53 87.44,35.74 10.69,2.34 22.39,4.97 33.38,4.96 11.01,-0.01 22.75,-2.67 33.45,-5.02 28.32,-6.23 62.94,-19.36 87.14,-35.68 23.46,-15.81 39.29,-39.05 48.6,-65.47 3.98,-11.27 7.9,-26.62 8.48,-38.71l0.03 -0.68 0.1 -0.67c2.73,-17.82 4.51,-36.3 6,-54.25 3.44,-41.51 4.73,-83.55 3.01,-125.17 -1.42,-34.42 -7.57,-46.87 -30.18,-72.71 -74.32,-84.95 -238.85,-83.45 -313.61,0.11 -22.91,25.61 -28.67,38.25 -30.09,72.6z"/>
   <path class="fil3" d="M240.71 496.59c0.32,4.53 0.67,9.05 1.05,13.57 1.49,17.95 3.27,36.43 6,54.25l0.1 0.67 0.03 0.68c0.59,12.09 4.51,27.44 8.48,38.71 1.45,4.12 3.06,8.16 4.84,12.11 -9.25,-43.92 -13.23,-92.89 -14.52,-136.44l-5.98 16.45z"/>
   <path class="fil4" d="M330.97 269.93c0,0 76.2,41.05 73.76,63.32 -2.44,22.27 -155.87,24.01 -155.87,24.01 0,0 21.57,-57.41 82.11,-87.33z"/>
   <path class="fil5" d="M265.01 608.35c9.14,23.4 23.83,43.9 44.94,58.13 23.35,15.73 56.76,28.4 84.09,34.37 10.28,2.25 21.53,4.78 32.1,4.77 10.58,-0.01 21.87,-2.57 32.17,-4.83 27.23,-5.99 60.52,-18.62 83.8,-34.31 18.78,-12.66 32.47,-30.27 41.7,-50.47 -9,13.78 -20.64,25.82 -35.19,35.16 -24.44,15.69 -59.4,28.32 -88,34.31 -10.81,2.27 -22.67,4.82 -33.78,4.83 -11.09,0.01 -22.91,-2.52 -33.7,-4.77 -28.69,-5.97 -63.78,-18.64 -88.3,-34.37 -17.19,-11.03 -30.32,-25.82 -39.83,-42.82z"/>
   <ellipse class="fil4" cx="397.08" cy="356.42" rx="16" ry="8"/>
   <g>
    <path class="fil1" d="M232.4 384.72c1.48,-35.8 7.92,-49.99 31.7,-76.57 77.32,-86.42 246.3,-87.87 323.12,-0.06 23.42,26.77 30.27,40.76 31.75,76.63 1.54,37.42 0.69,74.96 -1.97,112.31l-2.12 29.71 -27.51 -69.92 1.05 -82.55c0.02,-1.53 -0.17,-3.05 -0.52,-4.54 -4.49,-18.97 -35.77,-30.46 -51.93,-34.98 -62.13,-17.38 -159.2,-17.65 -221.44,-0.65 -16.12,4.4 -46.84,13.43 -51.39,32.32 -0.38,1.58 -0.54,3.2 -0.53,4.82l0.89 85.54 -27 69.95 -2.12 -29.71c-2.66,-37.35 -3.52,-74.89 -1.97,-112.31z"/>
    <path class="fil6" d="M238.75 384.98c-1.53,37.09 -0.68,74.52 1.96,111.6l14.86 -40.86 -1.39 -84.2c-1.28,-77.76 342.3,-77.07 341.98,0.7l-0.35 83.5 14.86 40.86c2.64,-37.08 3.49,-74.51 1.96,-111.6 -1.42,-34.42 -7.57,-46.87 -30.18,-72.71 -74.32,-84.95 -238.85,-83.45 -313.61,0.11 -22.91,25.61 -28.67,38.25 -30.09,72.6z"/>
    <path class="fil7" d="M465.14 315.1c70.36,5.32 131.15,24.39 131.01,57.13l-0.35 83.5 14.86 40.86c2.64,-37.08 3.49,-74.51 1.96,-111.6 -1.42,-34.42 -7.57,-46.87 -30.18,-72.71 -16.19,-18.51 -36.68,-32.92 -59.58,-43.26 -5.59,16.26 -20.66,34.74 -57.73,46.09z"/>
    <path class="fil8" d="M238.75 384.98l-0.07 1.74 -0.01 0.21 -0.06 1.53 -0.02 0.42 -0.05 1.31 -0.02 0.64 -0.01 0.4 -0.04 1.31 -0.01 0.25 -0.03 0.89 -0.01 0.37 -0.04 1.28 -0.01 0.26 -0.04 1.48 -0 0.08 -0.04 1.49 -0.01 0.25 -0.04 1.7 -0 0.04 -0.04 1.74 -0 0.17 -0.03 1.57 -0.01 0.39 -0.02 1.36 -0.01 0.6 -0.02 1.14 -0.01 0.81 -0.01 0.93 -0.01 1.03 -0.01 0.72 -0.01 1.24 -0.01 0.5 -0.01 1.45 -0 0.29 -0.01 1.67 0 0.08 -0.01 1.74 -0 0.13 -0.01 1.61 -0 1.1 -0 0.64 0 0.56 0 1.69 0 0.27 0 0.97 0 1.42 0 0.32 0.01 1.2 0 0.55 0.01 1.41 0 0.33 0.01 1.63 0 0.12 0.02 1.75 0 0.09 0.02 1.65 0 0.31 0.01 0.58 0.02 1.33 0 0.05 0.02 1.23 0.01 0.73 0.02 1.01 0.02 0.95 0.02 0.8 0.02 1.16 0.01 0.59 0.03 1.37 0.01 0.37 0.04 1.59 0 0.16 0.05 1.75 0 0.05 0.05 1.69 0.01 0.27 0.04 1.48 0.02 0.48 0.04 1.27 0.12 3.38 0 0.11 0.04 1.12 0.02 0.62 0.05 1.33 0.02 0.41 0.06 1.55 0.01 0.2 0.07 1.74 0 0.01 0.08 1.73 0.01 0.23 0.07 1.52 0.15 3.23 0.02 0.44 0.07 1.48 0 0.07 0.06 1.08 0.03 0.66 0.03 0.54 0.16 2.95 0.1 1.72 0 0.02 0.1 1.74c0.1,1.72 0.21,3.44 0.31,5.15l0 0.07 0.05 0.83 0.06 0.91 0.07 1.04 0.05 0.7 0.08 1.25 0.03 0.49 0.1 1.46 0.02 0.28 0.12 1.67 0 0.06 5.98 -16.45c-1.32,-44.58 0.16,-83.49 1.69,-105.48 3.44,-49.55 59.64,-96.19 103.46,-113.08 0.56,-0.51 1.04,-0.99 1.46,-1.44 -0.96,0.3 -1.91,0.61 -2.87,0.92 -0.85,0.28 -1.69,0.56 -2.53,0.85 -0.88,0.3 -1.76,0.6 -2.63,0.92 -0.79,0.28 -1.58,0.57 -2.37,0.86 -0.96,0.35 -1.92,0.71 -2.88,1.08 -0.72,0.28 -1.45,0.56 -2.17,0.85 -0.99,0.39 -1.98,0.79 -2.97,1.2 -0.68,0.28 -1.36,0.56 -2.03,0.85 -0.99,0.42 -1.99,0.85 -2.97,1.29 -0.61,0.27 -1.22,0.54 -1.82,0.82 -1.1,0.5 -2.2,1.02 -3.3,1.54 -0.5,0.24 -1.01,0.48 -1.51,0.73 -1.12,0.54 -2.23,1.1 -3.33,1.66 -0.49,0.25 -0.97,0.5 -1.46,0.75 -1.17,0.61 -2.33,1.23 -3.49,1.86l-1.05 0.58c-1.22,0.67 -2.42,1.36 -3.62,2.06l-1 0.59c-1.26,0.74 -2.51,1.5 -3.75,2.27l-0.75 0.47c-1.24,0.78 -2.48,1.58 -3.7,2.39l-0.65 0.43c-1.31,0.88 -2.62,1.78 -3.91,2.69l-0.49 0.35c-1.26,0.9 -2.51,1.82 -3.75,2.75l-0.45 0.34c-1.29,0.98 -2.56,1.97 -3.81,2.98l-0.24 0.2c-1.29,1.04 -2.57,2.11 -3.83,3.19l-0.26 0.22c-1.25,1.08 -2.48,2.17 -3.7,3.28l-0.18 0.16c-1.26,1.15 -2.49,2.32 -3.71,3.51l-0.09 0.09c-1.21,1.18 -2.39,2.38 -3.56,3.6l-0.15 0.16c-1.19,1.24 -2.36,2.5 -3.5,3.78 -22.91,25.61 -28.67,38.25 -30.09,72.6z"/>
   </g>
  </g>
 </g>
</svg>
