<?xml version="1.0" encoding="UTF-8"?>
<!DOCTYPE svg PUBLIC "-//W3C//DTD SVG 1.1//EN" "http://www.w3.org/Graphics/SVG/1.1/DTD/svg11.dtd">
<!-- Creator: CorelDRAW 2020 (64-Bit) -->
<svg xmlns="http://www.w3.org/2000/svg" xml:space="preserve" width="129.436mm" height="197.988mm" version="1.1" style="shape-rendering:geometricPrecision; text-rendering:geometricPrecision; image-rendering:optimizeQuality; fill-rule:evenodd; clip-rule:evenodd"
viewBox="0 0 392.29 600.05"
 xmlns:xlink="http://www.w3.org/1999/xlink"
 xmlns:xodm="http://www.corel.com/coreldraw/odm/2003">
 <defs>
  <style type="text/css">
   <![CDATA[
    .fil0 {fill:none}
    .fil1 {fill:#501D33}
    .fil3 {fill:#AD8D60}
    .fil2 {fill:#DEDA81}
    .fil4 {fill:#E4F6A3}
   ]]>
  </style>
 </defs>
 <g id="Слой_x0020_1">
  <metadata id="CorelCorpID_0Corel-Layer"/>
  <g id="_135737344">
   <rect id="_136889472" class="fil0" x="-0" y="0" width="392.29" height="600.05"/>
   <g>
    <path id="_134650632" class="fil1" d="M173.6 209.44c6.5,5.64 16.88,20.82 12.19,30.92 -2.24,4.81 -9.13,5.17 -13.71,-0.15 0,0 -10.17,4.79 -18.18,-6.39 0,0 -9.58,2.93 -17.62,-7.39 -14.21,7.19 -21.6,-10.64 -24.28,-19.03 -0.31,-0.96 0.33,-1.71 1.06,-0.93 7.66,0.32 16.95,0.28 25.33,-0.68 4.54,-0.52 7.89,-2.37 12.68,-2.16 8.18,0.37 14.6,7.58 21.51,6.12 -0.44,-1.01 -0.23,-1.5 1.02,-0.32z"/>
    <path id="_134650560" class="fil2" d="M176.02 208.57c3.18,3.81 6.07,11.47 6.91,18.07 1.1,8.65 -1.87,16.41 -9.96,8.2 0.19,-2.69 -9.66,-19.29 -10.31,-16.9 -0.29,1.09 1.7,3.24 6.72,17.42 0,0 -5.11,3.62 -13.97,-5.1 -2.87,-7.02 -6.92,-12.38 -7.7,-12.22 -0.61,0.12 1.22,3.63 4.14,11.99 0,0 -5.74,1.75 -13.79,-6.77 -3.4,-3.6 -7.36,-8.4 -7.83,-7.66 -0.28,0.44 0.78,4.08 3.72,7.81 0,0 -10.92,4.24 -20.91,-16.93 1.69,-5.41 12.48,-3.94 15.93,-1.45 -0.42,-0.83 4.15,-6.05 13.65,-0.43 0,0 4.49,-6.09 13.56,-0.96 7.5,-3.25 14.33,-1.7 19.85,4.93z"/>
    <path id="_134650488" class="fil3" d="M183.02 232.34c-0.65,5.7 -3.85,8.81 -10.06,2.51 0,0 -0.92,-2.61 -2.74,-6.41 3.13,2.17 8.75,5.38 12.8,3.9zm-16.58 -4.32c1.03,2.3 2.02,4.74 2.94,7.34 0,0 -5.11,3.62 -13.97,-5.1 0,0 -1.18,-2.99 -3.25,-6.94 3.41,2.7 10.18,7.26 14.29,4.69zm-17.27 -5.31c0.98,2.2 1.73,4.65 2.67,7.33 0,0 -5.74,1.75 -13.79,-6.77 -1.74,-1.84 -3.4,-3.44 -4.63,-4.95 3.24,3.03 12.22,6.72 15.76,4.39zm-18.67 -5.47c0.95,2.23 1.75,4.03 3.45,6.17 0,0 -10.59,4.11 -20.46,-15.98 2.45,3.42 8.26,9.96 17.01,9.81z"/>
   </g>
   <g>
    <path id="_115430088" class="fil1" d="M217.11 208.57c-6.63,5.49 -16.44,21.22 -11.98,31.42 2.13,4.86 9.01,5.38 13.71,0.16 13.47,3.21 18.41,-3.29 21.9,-10.16 3.75,3.57 8.68,3.25 14.21,-2.8 14.04,7.51 21.84,-10.14 24.71,-18.47 0.33,-0.96 -0.29,-1.72 -1.03,-0.95 -7.67,0.15 -16.95,-0.11 -25.31,-1.26 -4.53,-0.62 -7.83,-2.55 -12.63,-2.45 -8.19,0.18 -15.68,6.46 -22.56,4.85 0.47,-1 0.26,-1.49 -1.01,-0.34z"/>
    <path id="_115430016" class="fil2" d="M215.62 208.43c-3.26,3.74 -6.33,11.33 -7.32,17.91 -1.3,8.63 1.5,16.45 9.78,8.42 -0.05,-1.03 14.68,-28.67 3.57,0.6 15.05,2.99 20.78,-19.35 22.48,-17.63 0.2,0.21 -0.36,1.6 0.01,3.77 1.1,6.46 4.43,7.2 9.11,2.47 3.32,-3.36 6.4,-6.3 6.87,-5.55 0.28,0.44 -0.57,2.45 -2.77,5.8 0,0 10.82,4.49 21.29,-16.45 -1.57,-5.45 -12.39,-4.22 -15.89,-1.81 0.43,-0.82 -4.01,-6.14 -13.63,-0.74 0,0 -4.36,-6.19 -13.53,-1.27 -7.42,-3.42 -14.29,-2.03 -19.96,4.48z"/>
    <polygon id="_115429944" class="fil4" points="256.86,197.63 253.67,214.22 244.54,225.18 "/>
    <path id="_115429872" class="fil3" d="M208.08 232.03c0.52,5.71 3.64,8.9 10,2.73 0,0 1.4,-2.84 3.31,-6.6 -3.18,2.09 -9.3,5.43 -13.31,3.86zm16.32 -4.32c-0.8,2.3 -1.77,5.07 -2.75,7.65 11.03,1.84 15.75,-7.37 17.49,-11.64 -3.47,2.63 -10.69,6.65 -14.74,3.99zm28.84 -3.73c1.78,-1.8 3.48,-3.36 4.74,-4.84 -6.66,5.95 -11.69,3.83 -13.9,2.8 1.34,6.12 4.52,6.74 9.16,2.04zm7.2 -5.66c-1,2.21 -1.55,3.77 -3.29,5.88 0,0 10.69,4.38 21.01,-15.49 -2.53,3.36 -8.97,9.96 -17.72,9.61z"/>
    <path id="_134729024" class="fil1" d="M257.87 195.02l-23.21 36.31c4.27,-0.07 7.01,-8.04 7.32,-7.94 0.08,-0.19 3.01,3.01 3.3,2.33 1.97,-4.73 13.71,-30.94 12.59,-30.7z"/>
   </g>
  </g>
 </g>
</svg>
