<?xml version="1.0" encoding="UTF-8"?>
<!DOCTYPE svg PUBLIC "-//W3C//DTD SVG 1.1//EN" "http://www.w3.org/Graphics/SVG/1.1/DTD/svg11.dtd">
<!-- Creator: CorelDRAW 2020 (64-Bit) -->
<svg xmlns="http://www.w3.org/2000/svg" xml:space="preserve" width="129.436mm" height="197.989mm" version="1.1" style="shape-rendering:geometricPrecision; text-rendering:geometricPrecision; image-rendering:optimizeQuality; fill-rule:evenodd; clip-rule:evenodd"
viewBox="0 0 835.52 1278.03"
 xmlns:xlink="http://www.w3.org/1999/xlink"
 xmlns:xodm="http://www.corel.com/coreldraw/odm/2003">
 <defs>
  <style type="text/css">
   <![CDATA[
    .fil0 {fill:none}
    .fil4 {fill:#501D33}
    .fil3 {fill:#BF9D68}
    .fil1 {fill:#DEDA81}
    .fil2 {fill:#EEF698}
   ]]>
  </style>
 </defs>
 <g id="Слой_x0020_1">
  <metadata id="CorelCorpID_0Corel-Layer"/>
  <g id="_2809938687632">
   <g>
    <rect id="_135982752" class="fil0" width="835.52" height="1278.03"/>
   </g>
   <g>
    <path class="fil1" d="M384.2 508.12l-130.38 -29.23c10.32,-69.82 168.03,-61 130.38,29.23z"/>
    <path class="fil2" d="M359.82 467.84c-15.09,-7.67 -32.83,-11.46 -58.32,-13.26 -7,-0.49 -24.87,-2.17 -9.73,-9.97 23.38,-12.05 76.89,-10.26 86.79,19.5 5.11,15.35 -13.68,6.3 -18.75,3.73z"/>
    <path class="fil3" d="M380.33 502.81c0,0 -23.06,-25.41 -55.93,-32.24 -32.88,-6.83 -67.04,3.84 -67.04,3.84 0,0 67.04,8.97 122.97,28.39z"/>
    <path class="fil4" d="M385.23 508.17c-17.94,1.53 -41.03,-1.73 -63.15,-6.8 -29.42,-6.74 -57.14,-16.67 -68.75,-22.76 0,0 76.12,7.34 131.9,29.55z"/>
    <circle id="_271078680" class="fil3" transform="matrix(-0.988503 0.00848899 -0 0.796844 290.69 467.614)" r="9.43"/>
    <circle id="_271078800" class="fil3" transform="matrix(-1 -0 -0.438109 1 274.138 462.054)" r="5.35"/>
   </g>
   <path class="fil1" d="M455.08 508.01l130.38 -29.13c-10.32,-69.82 -167.6,-60.46 -130.38,29.13z"/>
   <path class="fil2" d="M479.46 467.84c15.09,-7.67 32.83,-11.46 58.32,-13.26 7,-0.49 24.87,-2.17 9.73,-9.97 -23.38,-12.05 -76.89,-10.26 -86.79,19.5 -5.11,15.35 13.68,6.3 18.75,3.73z"/>
   <path class="fil3" d="M458.95 502.81c0,0 23.06,-25.41 55.93,-32.24 32.88,-6.83 67.04,3.84 67.04,3.84 0,0 -67.04,8.97 -122.97,28.39z"/>
   <path class="fil4" d="M454.04 508.17c17.94,1.53 41.03,-1.73 63.15,-6.8 29.42,-6.74 57.14,-16.67 68.75,-22.76 0,0 -76.12,7.34 -131.9,29.55z"/>
   <circle id="_271078680_0" class="fil3" transform="matrix(0.880594 -0.449181 0.36816 0.706696 490.518 476.367)" r="9.43"/>
   <path id="_271078800_1" class="fil1" d="M522.43 460.84c6.65,3.92 19.66,-1.55 20.06,-5.14 0.73,-6.45 -7.01,-9.41 -13.97,-7.71 -7.25,1.77 -13.6,8.42 -6.09,12.85z"/>
   <circle class="fil3" transform="matrix(1.30502 -0 -0.40791 1.30502 472.932 482.446)" r="3.84"/>
   <ellipse class="fil1" cx="513.15" cy="450.74" rx="5.07" ry="3.2"/>
  </g>
 </g>
</svg>
