<?xml version="1.0" encoding="UTF-8"?>
<!DOCTYPE svg PUBLIC "-//W3C//DTD SVG 1.1//EN" "http://www.w3.org/Graphics/SVG/1.1/DTD/svg11.dtd">
<!-- Creator: CorelDRAW 2020 (64-Bit) -->
<svg xmlns="http://www.w3.org/2000/svg" xml:space="preserve" width="129.436mm" height="197.988mm" version="1.1" style="shape-rendering:geometricPrecision; text-rendering:geometricPrecision; image-rendering:optimizeQuality; fill-rule:evenodd; clip-rule:evenodd"
viewBox="0 0 1824.3 2790.49"
 xmlns:xlink="http://www.w3.org/1999/xlink"
 xmlns:xodm="http://www.corel.com/coreldraw/odm/2003">
 <defs>
  <style type="text/css">
   <![CDATA[
    .fil0 {fill:none}
    .fil4 {fill:#4B3446}
    .fil1 {fill:#501D33}
    .fil2 {fill:#634C54}
    .fil3 {fill:#896E6B}
   ]]>
  </style>
 </defs>
 <g id="Слой_x0020_1">
  <metadata id="CorelCorpID_0Corel-Layer"/>
  <g id="_2674458107072">
   <rect id="_135982248" class="fil0" y="0" width="1824.3" height="2790.49"/>
   <g>
    <path id="_134585216" class="fil1" d="M907.05 1010.75c0,0 -1.53,88.13 -109.13,98.17l-21.04 -24.78c0,0 101.71,-12.53 130.17,-73.39z"/>
    <path id="_134585144" class="fil1" d="M873.5 964.69c0,0 25.29,72.75 -35.88,125.77 -17.11,14.83 -35.56,22.9 -59.83,16.54 0,0 -74.75,7.4 -111.21,-29.16 0,0 -30.03,3.84 -45.3,-14.66 0,0 -24.72,2.26 -34.7,-11.86 0,0 -61.96,5.37 -75.07,-14.7 -15.17,-23.24 26.42,-72.87 41.6,-93.28 0,0 12.28,2.34 27.51,20.79l9.29 -19.4c0,0 10.37,4.05 25.92,19.44 0,0 11.75,-7.05 18.17,-23.28 0,0 14.62,-1.5 36.05,14.64 0,0 14.12,-4.97 23.55,-25.17 0,0 14.75,-0.11 31.1,11.84 0,0 23.98,-8.59 33.84,-37.61 0,0 23.45,6.8 36.2,46.63 0,0 15.35,-5.64 22.73,-32.03 0,0 28.88,12.28 37.73,63.43 0,0 9,-3.43 18.29,-17.93z"/>
    <path id="_134585072" class="fil2" d="M852.68 1001.83c0,0 0.91,74.88 -68.11,89.06 0,0 17.47,-21.07 21.55,-45.52 0,0 -17.72,36.88 -47.06,41.42 -29.33,4.54 -68.66,-8.48 -81.62,-22.39 0,0 -39.3,1.22 -52.64,-21.67 0,0 -17.64,6.54 -36.4,-12.18 0,0 -46.22,8.9 -56.59,-8.28 -9.49,-15.73 14.82,-38.09 24.71,-56.78 0,0 11.29,7.26 20.81,26.68 0,0 12.07,-17.24 14.06,-26.39 0,0 11.36,4.76 24.97,27.52 0,0 3.05,-9.37 1.16,-13.86 0,0 7.9,-2.36 19.96,-18.56 0,0 15.47,2.95 32.29,22.47 0,0 1.51,-4.62 0.56,-10.8 0,0 19.88,-5.58 29.31,-21.03 0,0 14.35,3.01 30.68,20.41 0,0 0.9,-3.25 -0.18,-9.17 0,0 20.56,-12.38 29.83,-31.74 0,0 16.87,16.61 20.78,52 0,0 23.86,-8.32 36.72,-38.16 0,0 34.34,28.23 6.05,83.13 0,0 13.3,-2.29 29.15,-26.16z"/>
    <path id="_134585000" class="fil3" d="M617.61 979.66l-0.09 -0.22c0,0 7.9,-2.36 19.96,-18.56 0,0 15.06,2.88 31.62,21.7 -3.1,-1.96 -20.44,-9.66 -28.85,-10.99 0,0 -11.06,6.13 -22.64,8.07zm52.75 -6.89l-0.04 -0.22c0,0 19.88,-5.58 29.31,-21.03 0,0 14.19,2.98 30.4,20.12 -2.11,-1.18 -15,-3.94 -27.22,-4.86 0,0 -16.65,4.35 -32.46,6zm59.79 -10.03c0.65,-0.4 20.69,-12.69 29.81,-31.73 0,0 16.87,16.61 20.78,52 0,0 23.86,-8.32 36.72,-38.16 0,0 33.98,27.94 6.47,82.29l-0.29 0.4c0,0 4.03,-28.83 -10.33,-51.15 0,0 -10.68,24.76 -42.96,32.42 0,0 0.95,-32.13 -11.48,-49.23 0,0 -14.13,2.4 -28.73,3.17z"/>
    <path id="_134584928" class="fil4" d="M852.24 1009.52c-1.92,19.47 -12.26,69.97 -67.67,81.36 0,0 17.47,-21.07 21.55,-45.52 0,0 -17.72,36.88 -47.06,41.42 -29.33,4.54 -68.66,-8.48 -81.62,-22.39 0,0 -39.3,1.22 -52.64,-21.67 0,0 -17.64,6.54 -36.4,-12.18 0,0 -46.22,8.9 -56.59,-8.28 -8.9,-14.75 11.93,-35.33 22.71,-53.25 -2.8,10.17 -6.69,35.39 19.6,44.96l7.2 -4.89c0,0 18.69,17.96 34.99,3.99 0,0 11.69,11.13 35.74,7.29 -4.35,-6.93 -5.54,-17.08 -5.87,-26.3 0,0 74.17,74.18 158.26,40.47 0,0 30.44,17.1 47.79,-25.01z"/>
    <path id="_134584856" class="fil1" d="M653.56 1025c0,0 15.47,37.94 47.38,53.74l-15.7 9.24c0,0 -25.89,-13.07 -31.68,-62.98z"/>
    <path id="_134584784" class="fil1" d="M614.8 1024.3c0,0 10.23,25.09 31.33,35.53l-10.38 6.11c0,0 -17.12,-8.64 -20.95,-41.64z"/>
    <path id="_134652552" class="fil1" d="M574.42 1007.72c0,0 10.86,26.64 33.27,37.73l-11.02 6.49c0,0 -18.18,-9.17 -22.24,-44.22z"/>
    <path id="_134652408" class="fil4" d="M691.5 992.66c0,0 7.79,40.19 61.68,49.75l-12.41 17.73c0,0 -53.9,-8.51 -49.27,-67.48z"/>
   </g>
   <g>
    <path id="_134585216_0" class="fil1" d="M913.1 989.35c0,0 10.89,85.55 117.9,91.54l10.83 -39.8c0,0 -100.75,-1.22 -128.73,-51.74z"/>
    <path id="_134585144_1" class="fil1" d="M944.67 941.91c-19.38,64.4 32.91,149.72 101.65,138.14 0,0 74.99,4.23 109.88,-33.84 0,0 30.16,2.57 44.64,-16.56 0,0 24.8,1.21 34.16,-13.32 0,0 62.14,2.74 74.38,-17.87 14.17,-23.86 -29.48,-71.68 -45.51,-91.44 0,0 -12.17,2.85 -26.61,21.93l-10.11 -18.99c0,0 -10.19,4.48 -25.07,20.52 0,0 -12.04,-6.55 -19.14,-22.49 0,0 -14.67,-0.88 -35.4,16.15 0,0 -14.32,-4.37 -24.59,-24.15 0,0 -14.74,0.52 -30.57,13.14 0,0 -24.33,-7.57 -35.4,-36.14 0,0 -23.14,7.79 -34.2,48.12 0,0 -15.58,-4.99 -24.07,-31.04 0,0 -28.34,13.5 -35.01,64.97 0,0 -9.14,-3.05 -19.03,-17.14z"/>
    <path id="_134585072_2" class="fil2" d="M967.04 978.13c0,0 2.26,74.85 71.82,86.1 0,0 -18.35,-20.31 -23.46,-44.57 0,0 19.27,36.1 48.76,39.39 29.5,3.3 68.24,-11.37 80.6,-25.82 0,0 39.31,-0.45 51.68,-23.87 0,0 17.9,5.79 35.85,-13.71 0,0 46.55,6.94 56.18,-10.67 8.82,-16.11 -16.41,-37.42 -27.09,-55.68 0,0 -10.97,7.73 -19.66,27.54 0,0 -12.79,-16.72 -15.16,-25.77 0,0 -11.15,5.24 -23.79,28.55 0,0 -3.44,-9.24 -1.74,-13.8 0,0 -8,-2.03 -20.73,-17.7 0,0 -15.33,3.61 -31.31,23.81 0,0 -1.7,-4.55 -1.01,-10.77 0,0 -20.1,-4.74 -30.17,-19.77 0,0 -14.21,3.62 -29.79,21.69 0,0 -1.04,-3.21 -0.21,-9.17 0,0 -21.07,-11.5 -31.15,-30.45 0,0 -16.15,17.31 -18.57,52.83 0,0 -24.19,-7.3 -38.3,-36.57 0,0 -33.12,29.65 -2.53,83.31 0,0 -13.38,-1.73 -30.23,-24.9z"/>
    <path id="_134585000_3" class="fil3" d="M1200.96 946.05l0.08 -0.23c0,0 -8,-2.03 -20.73,-17.7 0,0 -14.92,3.51 -30.67,23.01 3.02,-2.09 20.01,-10.52 28.36,-12.2 0,0 11.31,5.66 22.96,7.1zm-53 -4.65l0.03 -0.22c0,0 -20.1,-4.74 -30.17,-19.77 0,0 -14.05,3.58 -29.52,21.38 2.05,-1.27 14.82,-4.57 26.99,-6.01 0,0 16.82,3.64 32.68,4.62zm-60.16 -7.49c-0.67,-0.37 -21.21,-11.8 -31.13,-30.44 0,0 -16.15,17.31 -18.57,52.83 0,0 -24.19,-7.3 -38.3,-36.57 0,0 -32.77,29.35 -2.99,82.49l0.31 0.39c0,0 -5.25,-28.64 8.16,-51.54 0,0 11.71,24.29 44.29,30.57 0,0 -2.3,-32.06 9.38,-49.67 0,0 14.22,1.8 28.84,1.95z"/>
    <path id="_134584928_4" class="fil4" d="M967.81 985.8c2.74,19.38 15.21,69.39 71.05,78.43 0,0 -18.35,-20.31 -23.46,-44.57 0,0 19.27,36.1 48.76,39.39 29.5,3.3 68.24,-11.37 80.6,-25.82 0,0 39.31,-0.45 51.68,-23.87 0,0 17.9,5.79 35.85,-13.71 0,0 46.55,6.94 56.18,-10.67 8.27,-15.11 -13.41,-34.79 -24.94,-52.24 3.22,10.05 8.18,35.07 -17.68,45.75l-7.4 -4.58c0,0 -17.92,18.73 -34.79,5.46 0,0 -11.21,11.61 -35.4,8.8 4.05,-7.11 4.81,-17.3 4.76,-26.53 0,0 -70.96,77.25 -156.41,47.12 0,0 -29.69,18.38 -48.81,-22.96z"/>
    <path id="_134584856_5" class="fil1" d="M1166.97 992.87c0,0 -13.85,38.56 -45.06,55.7l16.08 8.57c0,0 25.31,-14.15 28.99,-64.26z"/>
    <path id="_134584784_6" class="fil1" d="M1205.65 990.52c0,0 -9.16,25.5 -29.8,36.83l10.63 5.66c0,0 16.74,-9.36 19.17,-42.49z"/>
    <path id="_134652552_7" class="fil1" d="M1245.3 972.26c0,0 -9.73,27.08 -31.64,39.1l11.29 6.01c0,0 17.77,-9.94 20.35,-45.12z"/>
    <path id="_134652408_8" class="fil4" d="M1127.68 962.16c0,0 -6.09,40.48 -59.52,52.32l13.15 17.19c0,0 53.49,-10.78 46.37,-69.5z"/>
   </g>
  </g>
 </g>
</svg>
