<?xml version="1.0" encoding="UTF-8"?>
<!DOCTYPE svg PUBLIC "-//W3C//DTD SVG 1.1//EN" "http://www.w3.org/Graphics/SVG/1.1/DTD/svg11.dtd">
<!-- Creator: CorelDRAW 2020 (64-Bit) -->
<svg xmlns="http://www.w3.org/2000/svg" xml:space="preserve" width="129.436mm" height="197.989mm" version="1.1" style="shape-rendering:geometricPrecision; text-rendering:geometricPrecision; image-rendering:optimizeQuality; fill-rule:evenodd; clip-rule:evenodd"
viewBox="0 0 804.91 1231.21"
 xmlns:xlink="http://www.w3.org/1999/xlink"
 xmlns:xodm="http://www.corel.com/coreldraw/odm/2003">
 <defs>
  <style type="text/css">
   <![CDATA[
    .fil0 {fill:none}
    .fil4 {fill:#4B3446}
    .fil1 {fill:#501D33}
    .fil2 {fill:#634C54}
    .fil3 {fill:#896E6B}
   ]]>
  </style>
 </defs>
 <g id="Слой_x0020_1">
  <metadata id="CorelCorpID_0Corel-Layer"/>
  <g id="_2674299279360">
   <g id="_135738736">
    <rect id="_136890120" class="fil0" width="804.91" height="1231.21"/>
    <g>
     <path id="_134728784" class="fil1" d="M373.81 440.83c0,0 -27.55,-9.71 -42.92,-33.44 0,0 -2.1,9.63 11.14,32.24 13.24,22.61 31.77,1.21 31.77,1.21z"/>
     <path id="_134728712" class="fil1" d="M279.38 415.29c0,0 -8.61,-7.09 -11.09,-17.72 0,0 -3.76,10.59 2.17,22.53 5.94,11.93 12.35,-2.09 8.92,-4.81z"/>
     <path id="_134728640" class="fil1" d="M258.39 425.21c0,0 -12.95,-3.2 -23.96,-14.17 0,0 -1.19,17.73 15.48,24.54 16.67,6.8 8.48,-10.37 8.48,-10.37z"/>
     <path id="_134728568" class="fil1" d="M380.31 438.83c0,0 -7.24,19.09 -20,33.87l2.96 9.01c0,0 16.23,-10.64 17.04,-42.88z"/>
     <path id="_134728496" class="fil1" d="M369.58 476.68c4.42,-14.38 5.88,-37.34 5.85,-38.36 0,0 -60.53,-22.8 -96.3,-49.21 0,0 -10.63,8.03 -5.69,24.99 0,0 -7.68,-0.3 -22.6,-9.41 0,0 -6.6,9.38 -2.78,19.07 0,0 -19.96,11.9 -47.55,21.99 0,0 3.1,20.06 26.17,41.47l126.88 -0.01c7.22,-0.06 13.57,-2.52 16.03,-10.52z"/>
     <path id="_134728424" class="fil2" d="M282.84 402.85c20.5,14.1 42.09,25.04 64.65,35.43 6.08,2.8 12.26,5.58 18.47,8.17 -0.13,2.24 -0.38,4.54 -0.61,6.6 -0.72,6.44 -1.9,13.01 -3.8,19.21 -0.4,1.31 -1.12,3.34 -2.41,4.07 -1.51,0.86 -4.87,0.84 -6.56,0.85l-123.38 0.97c-8.88,-8.51 -15.73,-16.75 -20.62,-28 11.28,-4.03 41.06,-16.78 50.11,-22.41 -2.05,-3.15 -3.45,-8.82 -2.59,-12.77 10.03,5.37 18.17,8.4 29.04,11.42 -2.6,-8.63 -3.28,-15.04 -2.31,-23.54l-0 0z"/>
     <path id="_134728352" class="fil3" d="M282.84 402.85l0.1 0.07c0.5,3.08 5.98,17.75 15.64,27.53 0,0 -17.85,2.42 -32.53,-3.67 0,0 -0.29,5.26 5.1,10.28 0,0 -5.93,-0.49 -9.49,-4.37 0,0 -23.16,14.06 -52.85,17.96l-0.22 -0.5c11.28,-4.03 41.06,-16.78 50.11,-22.41 -2.05,-3.15 -3.45,-8.82 -2.59,-12.77 10.03,5.37 18.17,8.4 29.04,11.42 -2.6,-8.63 -3.28,-15.04 -2.31,-23.54z"/>
     <path id="_134728280" class="fil4" d="M330.25 434.18c11.33,5.61 19.88,8.41 31.55,13.27 -0.47,8.06 -1.72,14.27 -4.08,21.98 -0.37,1.22 -1.05,3.11 -2.24,3.78 -1.41,0.8 -4.52,0.78 -6.1,0.79l-116.46 0.8c-6.25,-3.2 -15.68,-10.71 -18.65,-14.47 7.85,2.27 19.83,2.01 27.32,2.28 16.11,0.59 30.01,-3.51 35.74,-9.48 9.63,-3.12 19.54,-5.5 26.3,-7.83 13.4,-4.62 22.64,-7.98 26.63,-11.15l0 0z"/>
     <path id="_134728208" class="fil4" d="M286.91 434.67c0,0 14.92,6.94 43.55,-0.52l-6.95 12.04c0,0 -20.3,7.05 -36.6,-11.52z"/>
     <path id="_134728136" class="fil4" d="M261.99 441.88c0,0 14.4,7.95 43.48,2.51l-7.77 11.53c0,0 -8.51,2.31 -18.57,-1.2 -5.64,-1.97 -11.77,-5.77 -17.15,-12.83z"/>
     <path id="_134728064" class="fil1" d="M206.69 448.46c0,0 11.24,11.59 35.79,14.42 0,0 -16.42,4.53 -32.01,-3.05l-3.43 -4.82 -0.35 -6.55z"/>
     <path id="_134727992" class="fil2" d="M362.3 446.36c0,0 -16.52,1.64 -34.06,-0.62 0,0 17.26,8.22 35.17,7.54l0.33 -4 -1.44 -2.92z"/>
     <path id="_134727920" class="fil1" d="M363.8 465.66c0,0 -27.04,3.2 -55.98,1.49 0,0 28.84,9.31 58.22,7.25l0.3 -5.11 -2.54 -3.62z"/>
    </g>
    <g>
     <path id="_134727824" class="fil1" d="M421.46 440.83c0,0 27.55,-9.71 42.92,-33.44 0,0 2.1,9.63 -11.14,32.24 -13.24,22.61 -31.77,1.21 -31.77,1.21z"/>
     <path id="_134727752" class="fil1" d="M515.89 415.29c0,0 8.61,-7.09 11.09,-17.72 0,0 3.76,10.59 -2.17,22.53 -5.94,11.93 -12.35,-2.09 -8.92,-4.81z"/>
     <path id="_134727680" class="fil1" d="M536.87 425.21c0,0 12.95,-3.2 23.96,-14.17 0,0 1.19,17.73 -15.48,24.54 -16.67,6.8 -8.48,-10.37 -8.48,-10.37z"/>
     <path id="_134727608" class="fil1" d="M414.95 438.83c0,0 7.24,19.09 20,33.87l-2.96 9.01c0,0 -16.23,-10.64 -17.04,-42.88z"/>
     <path id="_134727536" class="fil1" d="M425.69 476.68c-4.42,-14.38 -5.88,-37.34 -5.85,-38.36 0,0 60.53,-22.8 96.3,-49.21 0,0 10.63,8.03 5.69,24.99 0,0 7.68,-0.3 22.6,-9.41 0,0 6.6,9.38 2.78,19.07 0,0 19.96,11.9 47.55,21.99 0,0 -3.1,20.06 -26.17,41.47l-126.88 -0.01c-7.22,-0.06 -13.57,-2.52 -16.03,-10.52z"/>
     <path id="_134727464" class="fil2" d="M512.43 402.85c-20.5,14.1 -42.09,25.04 -64.65,35.43 -6.08,2.8 -12.26,5.58 -18.47,8.17 0.13,2.24 0.38,4.54 0.61,6.6 0.72,6.44 1.9,13.01 3.8,19.21 0.4,1.31 1.12,3.34 2.41,4.07 1.51,0.86 4.87,0.84 6.56,0.85l123.38 0.97c8.88,-8.51 15.73,-16.75 20.62,-28 -11.28,-4.03 -41.06,-16.78 -50.11,-22.41 2.05,-3.15 3.45,-8.82 2.59,-12.77 -10.03,5.37 -18.17,8.4 -29.04,11.42 2.6,-8.63 3.28,-15.04 2.31,-23.54l0 0z"/>
     <path id="_134727392" class="fil3" d="M512.43 402.85l-0.1 0.07c-0.5,3.08 -5.98,17.75 -15.64,27.53 0,0 17.85,2.42 32.53,-3.67 0,0 0.29,5.26 -5.1,10.28 0,0 5.93,-0.49 9.49,-4.37 0,0 23.16,14.06 52.85,17.96l0.22 -0.5c-11.28,-4.03 -41.06,-16.78 -50.11,-22.41 2.05,-3.15 3.45,-8.82 2.59,-12.77 -10.03,5.37 -18.17,8.4 -29.04,11.42 2.6,-8.63 3.28,-15.04 2.31,-23.54z"/>
     <path id="_134726864" class="fil4" d="M465.01 434.18c-11.33,5.61 -19.88,8.41 -31.55,13.27 0.47,8.06 1.72,14.27 4.08,21.98 0.37,1.22 1.05,3.11 2.24,3.78 1.41,0.8 4.52,0.78 6.1,0.79l116.46 0.8c6.25,-3.2 15.68,-10.71 18.65,-14.47 -7.85,2.27 -19.83,2.01 -27.32,2.28 -16.11,0.59 -30.01,-3.51 -35.74,-9.48 -9.63,-3.12 -19.54,-5.5 -26.3,-7.83 -13.4,-4.62 -22.64,-7.98 -26.63,-11.15l-0 0z"/>
     <path id="_134727368" class="fil4" d="M508.36 434.67c0,0 -14.92,6.94 -43.55,-0.52l6.95 12.04c0,0 20.3,7.05 36.6,-11.52z"/>
     <path id="_134726792" class="fil4" d="M533.28 441.88c0,0 -14.4,7.95 -43.48,2.51l7.77 11.53c0,0 8.51,2.31 18.57,-1.2 5.64,-1.97 11.77,-5.77 17.15,-12.83z"/>
     <path id="_134727056" class="fil1" d="M588.58 448.46c0,0 -11.24,11.59 -35.79,14.42 0,0 16.42,4.53 32.01,-3.05l3.43 -4.82 0.35 -6.55z"/>
     <path id="_134726648" class="fil2" d="M432.97 446.36c0,0 16.52,1.64 34.06,-0.62 0,0 -17.26,8.22 -35.17,7.54l-0.33 -4 1.44 -2.92z"/>
     <path id="_134727200" class="fil1" d="M431.47 465.66c0,0 27.04,3.2 55.98,1.49 0,0 -28.84,9.31 -58.22,7.25l-0.3 -5.11 2.54 -3.62z"/>
    </g>
   </g>
  </g>
 </g>
</svg>
