<?xml version="1.0" encoding="UTF-8"?>
<!DOCTYPE svg PUBLIC "-//W3C//DTD SVG 1.1//EN" "http://www.w3.org/Graphics/SVG/1.1/DTD/svg11.dtd">
<!-- Creator: CorelDRAW 2020 (64-Bit) -->
<svg xmlns="http://www.w3.org/2000/svg" xml:space="preserve" width="129.436mm" height="197.989mm" version="1.1" style="shape-rendering:geometricPrecision; text-rendering:geometricPrecision; image-rendering:optimizeQuality; fill-rule:evenodd; clip-rule:evenodd"
viewBox="0 0 1458.73 2231.31"
 xmlns:xlink="http://www.w3.org/1999/xlink"
 xmlns:xodm="http://www.corel.com/coreldraw/odm/2003">
 <defs>
  <style type="text/css">
   <![CDATA[
    .fil0 {fill:none}
    .fil1 {fill:#501D33}
    .fil3 {fill:#AD8D60}
    .fil2 {fill:#DEDA81}
    .fil4 {fill:#EFFABB}
   ]]>
  </style>
 </defs>
 <g id="Слой_x0020_1">
  <metadata id="CorelCorpID_0Corel-Layer"/>
  <g id="_2674523925328">
   <g id="_135207336">
    <rect id="_134726456" class="fil0" width="1458.73" height="2231.31"/>
    <g>
     <g>
      <path id="_134650392" class="fil1" d="M944.12 852.42c-14.78,12.94 -33.74,20.14 -53.63,20.14 -9.64,0 -19.13,-1.69 -28.08,-4.98 -9.69,14.91 -26.46,24.39 -44.94,24.39 -29.58,0 -47.56,-30.65 -39.65,-59.6 9.72,-4.77 187.77,-118.32 213.73,-47.46 13.18,0.92 28.96,10.55 37.37,24.04 27.86,44.66 -31.33,79.64 -63.92,44.74 -6.39,0.62 -14.62,0.19 -20.87,-1.27z"/>
      <path id="_134650320" class="fil2" d="M1001.82 785.98c16,2.73 28.18,16.67 28.18,33.44 0,18.74 -15.19,33.93 -33.93,33.93 -11.39,0 -21.47,-5.62 -27.62,-14.24 -3.49,0.87 -7.15,1.33 -10.91,1.33 -6.04,0 -11.8,-1.19 -17.06,-3.34 -12.42,13.48 -30.22,21.93 -49.99,21.93 -12.62,0 -24.43,-3.45 -34.56,-9.45 -4.85,16.67 -20.24,28.85 -38.47,28.85 -22.12,0 -40.06,-17.94 -40.06,-40.06 0,-22.12 17.94,-40.06 40.06,-40.06 1.87,0 3.71,0.13 5.51,0.38 -0.28,-2.5 -0.43,-5.04 -0.43,-7.62 0,-37.52 30.43,-67.95 67.95,-67.95 22.77,0 42.93,11.21 55.26,28.41 3.76,-1.01 7.71,-1.56 11.79,-1.56 21.81,0 40.02,15.45 44.28,36z"/>
      <path id="_134650248" class="fil3" d="M993.62 787.04c14.63,3.06 28.15,11.27 28.15,27.95 0,30.37 -33.62,41.19 -51.13,16.67 -11.16,3.13 -26.4,1.83 -34.81,-1.59 -11.81,12.82 -31.35,22.59 -46.75,22.59 -15.4,0 -23.24,-3.28 -32.87,-8.98 -4.61,15.85 -19.25,27.44 -36.58,27.44 -13.11,0 -24.67,-6.63 -31.53,-16.72 49.72,10.53 63.2,-37.19 63.2,-37.19 34.63,21.08 64.81,-12.68 64.81,-12.68 36.34,26.06 77.19,1.3 77.5,-17.5z"/>
      <ellipse id="_134650176" class="fil4" transform="matrix(0.63966 -0.427218 0.496932 0.744041 866.426 756.034)" rx="47.34" ry="21.69"/>
      <ellipse id="_134650104" class="fil4" transform="matrix(0.507365 -0.33886 0.394157 0.590158 945.281 775.036)" rx="47.34" ry="21.69"/>
      <ellipse id="_134650032" class="fil4" transform="matrix(0.380115 -0.253872 0.2953 0.442143 804.879 817.418)" rx="47.34" ry="21.69"/>
      <path id="_134649960" class="fil2" d="M997.57 815.56c0,0 -19.3,17.49 -42,17.66l3.72 7c0,0 22.64,1.19 38.29,-24.65z"/>
     </g>
     <g>
      <circle id="_134649864" class="fil1" cx="678.27" cy="857.76" r="28.4"/>
      <path id="_134649792" class="fil1" d="M580.84 871.35c-13.29,5.84 -27.94,8.03 -42.5,6.27 -9.52,-1.15 -18.71,-3.95 -27.2,-8.27 -3.45,1.55 -7.05,2.76 -10.74,3.59 -7.01,18.78 -26.21,31.1 -46.97,28.59 -33.29,-4.02 -48.98,-46.48 -15.44,-65.64 11.03,-6.3 24.38,8.62 29.36,4.7 -10.41,-117.11 139.64,-69.78 143.54,-44.77 10.52,3.45 22.46,5.26 30.67,13.43 36.41,36.21 5.94,78.07 -34.8,73.15 -9.62,-1.16 -18.57,-5.02 -25.92,-11.03z"/>
      <path id="_134649720" class="fil2" d="M617.28 795.36c20.32,2.46 34.81,20.93 32.35,41.25 -2.46,20.32 -20.93,34.81 -41.25,32.35 -10.28,-1.24 -19.06,-6.59 -24.92,-14.2 -12.58,7.67 -27.74,11.33 -43.5,9.43 -10.55,-1.28 -20.24,-4.91 -28.61,-10.31 -6.4,4.13 -13.91,6.6 -21.87,6.89l-0.04 0.35c-2.05,16.94 -17.45,29.02 -34.39,26.97 -16.94,-2.05 -29.02,-17.45 -26.97,-34.39 1.35,-11.17 8.51,-20.23 18.08,-24.51 -1.5,-5.34 -2,-11.06 -1.29,-16.92 2.5,-20.66 19.17,-36.16 39.1,-37.95 10.28,-29.51 40.02,-48.95 72.31,-45.05 34,4.11 59.09,32.68 59.79,65.97 0.41,0.04 0.81,0.07 1.22,0.12z"/>
      <circle id="_134649648" class="fil2" cx="676.63" cy="850.89" r="24.37"/>
      <path id="_134649576" class="fil3" d="M694.95 839.06c2.21,3.41 3.49,7.47 3.49,11.83 0,12.04 -9.77,21.81 -21.81,21.81 -11.89,0 -21.57,-9.54 -21.8,-21.38 3.88,6 10.64,9.98 18.31,9.98 12.04,0 21.81,-9.77 21.81,-21.81l-0.01 -0.43z"/>
      <circle id="_134649504" class="fil4" transform="matrix(0.526044 -0.176667 0.117874 0.350982 674.072 840.935)" r="27.31"/>
      <path id="_134649432" class="fil3" d="M433.17 852.77c0,0 -2.84,27.61 24.61,29.82 27.45,2.21 29.35,-41.5 29.35,-41.5 0,0 -17.51,36.92 -53.96,11.68z"/>
      <path id="_134649360" class="fil3" d="M492.48 826.7c0,0 15.94,31.28 54.92,31.59 38.98,0.31 50.8,-39.16 50.8,-39.16 0,0 -9.54,-7.83 -14.33,-1.33 -9.39,12.75 -49.02,23.06 -91.4,8.9z"/>
      <circle id="_134649288" class="fil3" cx="611.66" cy="831.72" r="31.35"/>
      <circle id="_134649216" class="fil2" cx="607.89" cy="820.21" r="23.94"/>
      <path id="_134649144" class="fil4" d="M536.21 738.18c22.26,-4.62 42.67,6.14 45.16,18.13 2.49,11.98 -13.89,20.67 -36.15,25.29 -22.26,4.62 -41.98,3.42 -44.47,-8.57 -2.49,-11.99 13.2,-30.23 35.47,-34.85z"/>
      <path id="_134649072" class="fil4" d="M603.92 801.86c9.87,-2.05 18.91,2.72 20.01,8.03 1.1,5.31 -6.16,9.16 -16.02,11.21 -9.87,2.05 -18.61,1.52 -19.71,-3.8 -1.1,-5.31 5.85,-13.4 15.72,-15.44z"/>
      <path id="_134649000" class="fil4" d="M459.14 794.25c7.53,-9.78 19.74,-12.58 25.01,-8.53 5.27,4.05 1.6,13.43 -5.93,23.21 -7.53,9.78 -16.07,16.27 -21.34,12.22 -5.27,-4.05 -5.27,-17.12 2.26,-26.9z"/>
     </g>
    </g>
   </g>
  </g>
 </g>
</svg>
