<?xml version="1.0" encoding="UTF-8"?>
<!DOCTYPE svg PUBLIC "-//W3C//DTD SVG 1.1//EN" "http://www.w3.org/Graphics/SVG/1.1/DTD/svg11.dtd">
<!-- Creator: CorelDRAW 2020 (64-Bit) -->
<svg xmlns="http://www.w3.org/2000/svg" xml:space="preserve" width="129.436mm" height="197.989mm" version="1.1" style="shape-rendering:geometricPrecision; text-rendering:geometricPrecision; image-rendering:optimizeQuality; fill-rule:evenodd; clip-rule:evenodd"
viewBox="0 0 540.97 827.49"
 xmlns:xlink="http://www.w3.org/1999/xlink"
 xmlns:xodm="http://www.corel.com/coreldraw/odm/2003">
 <defs>
  <style type="text/css">
   <![CDATA[
    .fil0 {fill:none}
    .fil1 {fill:#501D33}
    .fil3 {fill:#BFCAB7}
    .fil4 {fill:#C3C077}
    .fil2 {fill:white}
   ]]>
  </style>
 </defs>
 <g id="Слой_x0020_1">
  <metadata id="CorelCorpID_0Corel-Layer"/>
  <g id="_2674677680032">
   <g id="_134589392">
    <rect id="_135982320" class="fil0" y="0" width="540.97" height="827.49"/>
    <g>
     <g>
      <path id="_134589176" class="fil1" d="M241.4 333.14c0,0 19.73,-2.82 25.37,-19.5 0,0 -7.16,9.87 -23.61,13.04l-2.23 2.7 0.47 3.76z"/>
      <g>
       <path id="_134589104" class="fil1" d="M216.53 331.75c7.16,1.92 14.37,3.08 21.46,2.95 24.44,-0.45 33.06,-36.31 24.96,-50.06 -0.67,-1.19 -88.05,-8.54 -111.58,6.67 15.03,21.22 39.7,33.62 65.16,40.43l0 0z"/>
       <path id="_134589032" class="fil2" d="M262.4 306.68c-4.14,9.6 -11.55,20.07 -24.27,20.3 -23.59,0.44 -56.62,-15.35 -56.62,-15.35 -16.82,-8.94 -62.44,-26.49 -4.04,-41 8.33,-2.07 20.38,2.53 33.89,6.03 13.51,3.5 27.58,4.02 39.92,3.19 20.36,-1.36 16.45,14.43 11.11,26.82z"/>
      </g>
      <path id="_134588936" class="fil3" d="M263.48 296.56c0,0 -7.53,27.88 -28.47,27.88 -20.94,0 -71.29,-23.65 -71.29,-23.65 0,0 78.35,20 99.76,-4.23z"/>
      <path id="_134588720" class="fil1" d="M265.78 295.5c0,0 -4.98,23.42 -38.42,28.58 0,0 22.75,2.54 31.84,-7.91 9.09,-10.44 6.58,-20.67 6.58,-20.67z"/>
     </g>
     <g>
      <g>
       <path id="_134588624" class="fil1" d="M323.51 331.75c-7.16,1.92 -14.37,3.08 -21.46,2.95 -24.44,-0.45 -33.06,-36.31 -24.96,-50.06 0.67,-1.19 88.05,-8.54 111.58,6.67 -15.03,21.22 -39.7,33.62 -65.16,40.43l-0 0z"/>
       <path id="_134588552" class="fil2" d="M277.64 306.68c4.14,9.6 11.55,20.07 24.27,20.3 23.59,0.44 56.62,-15.35 56.62,-15.35 16.82,-8.94 62.44,-26.49 4.04,-41 -8.33,-2.07 -20.38,2.53 -33.89,6.03 -13.51,3.5 -27.58,4.02 -39.92,3.19 -20.36,-1.36 -16.45,14.43 -11.11,26.82z"/>
      </g>
      <path id="_134588456" class="fil3" d="M277.84 296.56c0,0 7.53,27.88 28.47,27.88 20.94,0 71.29,-23.65 71.29,-23.65 0,0 -78.35,20 -99.76,-4.23z"/>
      <path id="_134588312" class="fil1" d="M298.12 333.14c0,0 -19.73,-2.82 -25.37,-19.5 0,0 7.16,9.87 23.61,13.04l2.23 2.7 -0.47 3.76z"/>
      <path id="_134587928" class="fil1" d="M274.42 295.5c0,0 4.98,23.42 38.42,28.58 0,0 -22.75,2.54 -31.84,-7.91 -9.09,-10.44 -6.58,-20.67 -6.58,-20.67z"/>
     </g>
    </g>
   </g>
   <circle class="fil2" cx="311.2" cy="281.41" r="12.09"/>
   <circle class="fil2" transform="matrix(1.20071 0.40417 -0.932612 1.02283 329.798 266.938)" r="5.18"/>
   <circle class="fil2" cx="226.89" cy="286.39" r="13.34"/>
   <circle class="fil2" transform="matrix(1.71058 0.153313 0.228509 1.35539 210.024 268.667)" r="3.87"/>
   <ellipse class="fil4" cx="193.93" cy="295.65" rx="10.51" ry="6.98"/>
   <ellipse class="fil4" cx="351.51" cy="272.85" rx="10.09" ry="7.9"/>
   <ellipse class="fil4" cx="336.03" cy="284.32" rx="5.94" ry="4.65"/>
   <ellipse class="fil4" cx="212.73" cy="301.04" rx="5.67" ry="3.8"/>
  </g>
 </g>
</svg>
