<?xml version="1.0" encoding="UTF-8"?>
<!DOCTYPE svg PUBLIC "-//W3C//DTD SVG 1.1//EN" "http://www.w3.org/Graphics/SVG/1.1/DTD/svg11.dtd">
<!-- Creator: CorelDRAW 2020 (64-Bit) -->
<svg xmlns="http://www.w3.org/2000/svg" xml:space="preserve" width="129.436mm" height="197.989mm" version="1.1" style="shape-rendering:geometricPrecision; text-rendering:geometricPrecision; image-rendering:optimizeQuality; fill-rule:evenodd; clip-rule:evenodd"
viewBox="0 0 1181.18 1806.76"
 xmlns:xlink="http://www.w3.org/1999/xlink"
 xmlns:xodm="http://www.corel.com/coreldraw/odm/2003">
 <defs>
  <style type="text/css">
   <![CDATA[
    .fil0 {fill:none}
    .fil4 {fill:#4B3446}
    .fil1 {fill:#501D33}
    .fil2 {fill:#634C54}
    .fil3 {fill:#896E6B}
   ]]>
  </style>
 </defs>
 <g id="Слой_x0020_1">
  <metadata id="CorelCorpID_0Corel-Layer"/>
  <g id="_2674539694752">
   <g id="_135738448">
    <rect id="_135980472" class="fil0" y="0" width="1181.18" height="1806.76"/>
    <g>
     <g>
      <path id="_134648904" class="fil1" d="M662.46 723.38c0,0 -56.9,-20.05 -45.83,-99.2 0,0 -0.23,40.09 37.79,63.92l9.06 17.9c0,0 -0.55,16.82 -1.02,17.39z"/>
      <path id="_134648832" class="fil1" d="M662.42 724.38c0,0 89.63,-64.18 214.63,-40.93 -14.56,-30.79 -49.6,-45.53 -80.42,-41.64 0,0 8.03,-7.09 23.35,-12.11l-0.13 -0.06c-11.93,-2.85 -32.88,-9.8 -64.36,-1.44 0,0 7.4,-8.11 21.75,-13.15 -44.03,-19.37 -88.51,17.67 -122.64,-19.49 0,0 -5.15,14.45 -0.91,24.83 -9.09,-2.4 -13.76,-8.53 -16.56,-18.98 -17.95,42.09 -17.22,93.81 25.28,122.96z"/>
      <path id="_134648760" class="fil2" d="M641.5 628.38c0,0 -17.55,45.69 22.14,82.35 0,0 93.43,-58.83 194.14,-38.07 -17.24,-25.93 -62.6,-23.99 -89.16,-21.97 0,0 9.08,-9.54 23,-15.04 0,0 -32.53,-5.42 -66.02,9.81 0,0 12.75,-19.58 29.66,-27.54 0,0 -17.85,0.21 -60.04,7.32 0,0 -17.95,2.77 -31.29,-9.94 0,0 -0.39,21.7 19.51,31.08 0,0 -13.69,0.79 -25.06,-14.73 0,0 -12.6,0.01 -16.88,-3.27z"/>
      <path id="_134648688" class="fil3" d="M754.55 618.26c0.24,-0.12 0.47,-0.23 0.71,-0.34 0,0 -17.85,0.21 -60.04,7.32 0,0 -17.95,2.77 -31.29,-9.94 0,0 -0,0.11 0,0.31 1.48,2.94 9.26,16.56 27.27,17.94 18.62,1.42 45.44,-13.53 63.35,-15.28z"/>
      <path id="_134648616" class="fil4" d="M642.74 651.91c0,0 -4.03,30.5 22.79,52.49 0,0 88.71,-53.7 177.82,-38.49 0,0 -21.66,-19.31 -84.53,-9.52 -62.87,9.79 -86.48,22.22 -86.48,22.22 0,0 -13.26,4.81 -29.6,-26.7z"/>
      <path id="_134648544" class="fil4" d="M655.43 654.7c0,0 3.66,26.99 31.72,30.65l26.57 -20.36c0,0 -42.87,10.52 -58.29,-10.29z"/>
     </g>
     <g>
      <path id="_115189760" class="fil1" d="M517.12 710.64c0,0 57.42,-18.51 48.48,-97.93 0,0 -0.85,40.08 -39.5,62.88l-9.53 17.65c0,0 0.1,16.83 0.55,17.41z"/>
      <path id="_115431696" class="fil1" d="M517.13 711.64c0,0 -87.87,-66.57 -213.45,-46.7 15.38,-30.39 50.81,-44.18 81.51,-39.46 0,0 -7.84,-7.3 -23.01,-12.74l0.13 -0.05c12.01,-2.53 33.14,-8.91 64.37,0.3 0,0 -7.18,-8.31 -21.39,-13.73 44.54,-18.18 88,20.04 123.12,-16.18 0,0 4.75,14.58 0.24,24.85 9.15,-2.16 13.98,-8.16 17.06,-18.52 16.81,42.55 14.69,94.24 -28.58,122.24z"/>
      <path id="_115431768" class="fil2" d="M540.63 616.24c0,0 16.32,46.15 -24.35,81.73 0,0 -91.81,-61.33 -193.04,-43.29 17.93,-25.46 63.22,-22.3 89.72,-19.56 0,0 -8.81,-9.78 -22.59,-15.66 0,0 32.67,-4.54 65.73,11.59 0,0 -12.22,-19.91 -28.91,-28.33 0,0 17.84,0.69 59.82,8.93 0,0 17.87,3.25 31.55,-9.09 0,0 -0.2,21.71 -20.33,30.54 0,0 13.66,1.16 25.45,-14.04 0,0 12.6,0.35 16.96,-2.82z"/>
      <path id="_115431600" class="fil3" d="M427.89 603.08c-0.23,-0.12 -0.47,-0.24 -0.7,-0.36 0,0 17.84,0.69 59.82,8.93 0,0 17.87,3.25 31.55,-9.09 0,0 0,0.11 -0.01,0.31 -1.56,2.9 -9.7,16.31 -27.74,17.2 -18.66,0.92 -45.06,-14.75 -62.92,-16.99z"/>
      <path id="_115430256" class="fil4" d="M538.75 639.73c0,0 3.21,30.6 -24.2,51.86 0,0 -87.23,-56.07 -176.72,-43.27 0,0 22.17,-18.72 84.75,-7.24 62.59,11.48 85.86,24.54 85.86,24.54 0,0 13.13,5.16 30.31,-25.89z"/>
      <path id="_115430184" class="fil4" d="M525.99 642.18c0,0 -4.38,26.88 -32.53,29.78l-26.01 -21.07c0,0 42.57,11.67 58.55,-8.71z"/>
     </g>
    </g>
   </g>
  </g>
 </g>
</svg>
