<?xml version="1.0" encoding="UTF-8"?>
<!DOCTYPE svg PUBLIC "-//W3C//DTD SVG 1.1//EN" "http://www.w3.org/Graphics/SVG/1.1/DTD/svg11.dtd">
<!-- Creator: CorelDRAW 2020 (64-Bit) -->
<svg xmlns="http://www.w3.org/2000/svg" xml:space="preserve" width="129.436mm" height="197.989mm" version="1.1" style="shape-rendering:geometricPrecision; text-rendering:geometricPrecision; image-rendering:optimizeQuality; fill-rule:evenodd; clip-rule:evenodd"
viewBox="0 0 432.58 661.69"
 xmlns:xlink="http://www.w3.org/1999/xlink"
 xmlns:xodm="http://www.corel.com/coreldraw/odm/2003">
 <defs>
  <style type="text/css">
   <![CDATA[
    .fil0 {fill:none}
    .fil5 {fill:#343546}
    .fil1 {fill:#501D33}
    .fil4 {fill:#51645C}
    .fil3 {fill:#AD8D60}
    .fil2 {fill:#DEDA81}
   ]]>
  </style>
 </defs>
 <g id="Слой_x0020_1">
  <metadata id="CorelCorpID_0Corel-Layer"/>
  <g id="_2674687292976">
   <rect id="_135982320" class="fil0" y="0" width="432.58" height="661.69"/>
   <g>
    <path id="_134589104" class="fil1" d="M173.14 265.28c5.72,1.53 11.49,2.47 17.16,2.36 19.55,-0.36 26.44,-29.04 19.96,-40.03 -0.54,-0.95 -70.41,-6.83 -89.22,5.34 12.02,16.97 31.74,26.88 52.1,32.33l0 0z"/>
    <path id="_134589032" class="fil2" d="M209.83 245.23c-3.31,7.68 -9.24,16.04 -19.41,16.23 -18.86,0.35 -45.27,-12.27 -45.27,-12.27 -13.45,-7.15 -49.93,-21.19 -3.23,-32.78 6.66,-1.65 16.3,2.03 27.1,4.82 10.81,2.8 22.05,3.21 31.92,2.55 16.28,-1.09 13.16,11.54 8.89,21.45z"/>
    <path id="_134588936" class="fil3" d="M210.69 237.14c0,0 -6.02,22.3 -22.76,22.3 -16.75,0 -57.01,-18.91 -57.01,-18.91 0,0 62.65,15.99 79.77,-3.39z"/>
    <path class="fil4" d="M144.36 216.05c0.8,1.95 1.56,3.65 1.48,4.22 -0.33,2.36 -2.7,2.65 -4.93,2 -2.04,-0.59 -4.33,-1.9 -5.65,-3.11 -0.25,-0.23 -0.48,-0.45 -0.71,-0.68 -2.14,0.68 -4.02,1.37 -5.68,2.06 0.02,0.08 0.04,0.16 0.06,0.24 0.5,1.62 1.32,1.62 0.26,3.4 -0.12,0.2 -0.36,0.21 -0.5,0.26 -2.03,0.81 -5.61,-0.12 -9.69,6.34l-0.01 0.02c1.46,6.76 15.77,13.12 24.3,17.44 2.21,0.18 3.99,0.92 6.67,1.59 -0.08,-1.02 -0.52,-1.18 -1.1,-1.86 -1.61,-1.88 -3.17,-2.84 -5.16,-4.73 -1.94,-1.84 -5.23,-4.71 -8.52,-5.37 -1.05,1.29 -0.78,2.7 -3,2.75 -1.98,0.04 -3.33,-1.07 -4.16,-2.03 -2.17,-2.52 0.78,-6.11 2.87,-7.29 2.85,-1.61 7.29,0.01 9.45,1.35 2.8,1.73 3.95,3.42 6.03,5.92 0.8,0.97 1.55,2.06 2.48,3.11 0.84,0.95 2.03,1.91 2.87,2.93 4.71,5.77 13.75,8.13 21.18,7.99 2.35,-0.04 2.46,-0.88 4.71,-0.38 -0.49,2.28 -0.66,3.86 -0.65,5.81 0.01,0.74 0.12,1.47 0.4,2.08 0.8,0.16 1.59,0.3 2.39,0.44 0.53,-1.76 0.65,-2.26 2.32,-3.6 1.43,-1.15 2.46,-2.03 4.17,-2.4 2.85,0.75 0.22,1.63 4.96,1.36 3.1,-0.18 6.06,0.86 8.28,2.82 0.85,-0.54 1.64,-1.15 2.4,-1.81 -2.83,-4.62 -7.62,-8.58 -7.79,-9.55 -0.21,-1.19 0.23,-1.69 1.79,-3.03 5.88,-5.07 -4.08,-1.39 -4.65,-7.87 -0.14,-1.55 0.63,-3.72 1.19,-5.34 1.75,-5.11 9.74,-5.56 9.97,-1.49 0.33,5.93 -6.11,4.73 -6.12,4.73 -0.06,3.89 12.39,3.16 10.74,-5.43 -0.43,-2.23 -1.26,-3.9 -2.35,-5.11 -1.11,-0.09 -2.35,-0.1 -3.73,-0.01 -3.52,0.24 -7.21,0.34 -11,0.24 -0.48,0.39 -0.89,0.8 -1.23,1.22l-4.94 6.67c-2.57,4.14 -7.67,8.66 -12.01,9.92 -12.75,3.68 -23.99,-11 -15.41,-21.02 0.48,-0.56 1.83,-1.44 3.2,-2.2 -5.76,-1.6 -10.94,-2.86 -15.19,-2.58zm27.65 5.91c0.93,1.98 0.88,4.33 -0.97,6.63 -2.66,3.3 -6.58,2.35 -7.38,2.49 0.33,1.69 4.15,2.51 5.94,2.37 2.39,-0.2 3.51,-1.22 5.52,-2.18 3.48,-1.66 3.19,-2.69 6.39,-6.69 0.2,-0.25 0.5,-0.6 0.87,-1.01 -3.44,-0.34 -6.92,-0.86 -10.36,-1.61z"/>
    <path class="fil5" d="M149.33 248.48c-0.14,-0.15 -0.31,-0.31 -0.48,-0.51 -1.61,-1.88 -3.17,-2.84 -5.16,-4.73l-0 -0c-7.68,-1.41 -12.78,-2.71 -12.78,-2.71 0,0 8.04,3.77 18.42,7.95zm2.35 -3.91l0.03 0.03c4.71,5.77 13.75,8.13 21.18,7.99 2.35,-0.04 2.46,-0.88 4.71,-0.38 -0.47,2.2 -0.65,3.74 -0.65,5.6 1.21,0.29 2.39,0.55 3.52,0.77 0.31,-0.51 0.75,-0.97 1.59,-1.64 1.43,-1.15 2.46,-2.03 4.17,-2.4 2.85,0.75 0.22,1.63 4.96,1.36 2.01,-0.12 3.96,0.28 5.7,1.11 1.21,-0.7 2.34,-1.53 3.37,-2.44 -2.74,-3.57 -6.04,-6.42 -6.18,-7.22 -0.16,-0.92 0.07,-1.43 0.91,-2.24 -13.06,2.85 -30.09,1.44 -43.31,-0.54z"/>
   </g>
   <g>
    <path id="_134589104_0" class="fil1" d="M258.66 265.28c-5.72,1.53 -11.49,2.47 -17.16,2.36 -19.55,-0.36 -26.44,-29.04 -19.96,-40.03 0.54,-0.95 70.41,-6.83 89.22,5.34 -12.02,16.97 -31.74,26.88 -52.1,32.33l-0 0z"/>
    <path id="_134589032_1" class="fil2" d="M221.98 245.23c3.31,7.68 9.24,16.04 19.41,16.23 18.86,0.35 45.27,-12.27 45.27,-12.27 13.45,-7.15 49.93,-21.19 3.23,-32.78 -6.66,-1.65 -16.3,2.03 -27.1,4.82 -10.81,2.8 -22.05,3.21 -31.92,2.55 -16.28,-1.09 -13.16,11.54 -8.89,21.45z"/>
    <path id="_134588936_2" class="fil3" d="M221.12 237.14c0,0 6.02,22.3 22.76,22.3 16.75,0 57.01,-18.91 57.01,-18.91 0,0 -62.65,15.99 -79.77,-3.39z"/>
    <path class="fil4" d="M287.45 216.05c-0.8,1.95 -1.56,3.65 -1.48,4.22 0.33,2.36 2.7,2.65 4.93,2 2.04,-0.59 4.33,-1.9 5.65,-3.11 0.25,-0.23 0.48,-0.45 0.71,-0.68 2.14,0.68 4.02,1.37 5.68,2.06 -0.02,0.08 -0.04,0.16 -0.06,0.24 -0.5,1.62 -1.32,1.62 -0.26,3.4 0.12,0.2 0.36,0.21 0.5,0.26 2.03,0.81 5.61,-0.12 9.69,6.34l0.01 0.02c-1.46,6.76 -15.77,13.12 -24.3,17.44 -2.21,0.18 -3.99,0.92 -6.67,1.59 0.08,-1.02 0.52,-1.18 1.1,-1.86 1.61,-1.88 3.17,-2.84 5.16,-4.73 1.94,-1.84 5.23,-4.71 8.52,-5.37 1.05,1.29 0.78,2.7 3,2.75 1.98,0.04 3.33,-1.07 4.16,-2.03 2.17,-2.52 -0.78,-6.11 -2.87,-7.29 -2.85,-1.61 -7.29,0.01 -9.45,1.35 -2.8,1.73 -3.95,3.42 -6.03,5.92 -0.8,0.97 -1.55,2.06 -2.48,3.11 -0.84,0.95 -2.03,1.91 -2.87,2.93 -4.71,5.77 -13.75,8.13 -21.18,7.99 -2.35,-0.04 -2.46,-0.88 -4.71,-0.38 0.49,2.28 0.66,3.86 0.65,5.81 -0.01,0.74 -0.12,1.47 -0.4,2.08 -0.8,0.16 -1.59,0.3 -2.39,0.44 -0.53,-1.76 -0.65,-2.26 -2.32,-3.6 -1.43,-1.15 -2.46,-2.03 -4.17,-2.4 -2.85,0.75 -0.22,1.63 -4.96,1.36 -3.1,-0.18 -6.06,0.86 -8.28,2.82 -0.85,-0.54 -1.64,-1.15 -2.4,-1.81 2.83,-4.62 7.62,-8.58 7.79,-9.55 0.21,-1.19 -0.23,-1.69 -1.79,-3.03 -5.88,-5.07 4.08,-1.39 4.65,-7.87 0.14,-1.55 -0.63,-3.72 -1.19,-5.34 -1.75,-5.11 -9.74,-5.56 -9.97,-1.49 -0.33,5.93 6.11,4.73 6.12,4.73 0.06,3.89 -12.39,3.16 -10.74,-5.43 0.43,-2.23 1.26,-3.9 2.35,-5.11 1.11,-0.09 2.35,-0.1 3.73,-0.01 3.52,0.24 7.21,0.34 11,0.24 0.48,0.39 0.89,0.8 1.23,1.22l4.94 6.67c2.57,4.14 7.67,8.66 12.01,9.92 12.75,3.68 23.99,-11 15.41,-21.02 -0.48,-0.56 -1.83,-1.44 -3.2,-2.2 5.76,-1.6 10.94,-2.86 15.19,-2.58zm-27.65 5.91c-0.93,1.98 -0.88,4.33 0.97,6.63 2.66,3.3 6.58,2.35 7.38,2.49 -0.33,1.69 -4.15,2.51 -5.94,2.37 -2.39,-0.2 -3.51,-1.22 -5.52,-2.18 -3.48,-1.66 -3.19,-2.69 -6.39,-6.69 -0.2,-0.25 -0.5,-0.6 -0.87,-1.01 3.44,-0.34 6.92,-0.86 10.36,-1.61z"/>
    <path class="fil5" d="M282.47 248.48c0.14,-0.15 0.31,-0.31 0.48,-0.51 1.61,-1.88 3.17,-2.84 5.16,-4.73l0 -0c7.68,-1.41 12.78,-2.71 12.78,-2.71 0,0 -8.04,3.77 -18.42,7.95zm-2.35 -3.91l-0.03 0.03c-4.71,5.77 -13.75,8.13 -21.18,7.99 -2.35,-0.04 -2.46,-0.88 -4.71,-0.38 0.47,2.2 0.65,3.74 0.65,5.6 -1.21,0.29 -2.39,0.55 -3.52,0.77 -0.31,-0.51 -0.75,-0.97 -1.59,-1.64 -1.43,-1.15 -2.46,-2.03 -4.17,-2.4 -2.85,0.75 -0.22,1.63 -4.96,1.36 -2.01,-0.12 -3.96,0.28 -5.7,1.11 -1.21,-0.7 -2.34,-1.53 -3.37,-2.44 2.74,-3.57 6.04,-6.42 6.18,-7.22 0.16,-0.92 -0.07,-1.43 -0.91,-2.24 13.06,2.85 30.09,1.44 43.31,-0.54z"/>
   </g>
  </g>
 </g>
</svg>
