<?xml version="1.0" encoding="UTF-8"?>
<!DOCTYPE svg PUBLIC "-//W3C//DTD SVG 1.1//EN" "http://www.w3.org/Graphics/SVG/1.1/DTD/svg11.dtd">
<!-- Creator: CorelDRAW 2020 (64-Bit) -->
<svg xmlns="http://www.w3.org/2000/svg" xml:space="preserve" width="129.436mm" height="197.989mm" version="1.1" style="shape-rendering:geometricPrecision; text-rendering:geometricPrecision; image-rendering:optimizeQuality; fill-rule:evenodd; clip-rule:evenodd"
viewBox="0 0 3906.71 5975.82"
 xmlns:xlink="http://www.w3.org/1999/xlink"
 xmlns:xodm="http://www.corel.com/coreldraw/odm/2003">
 <defs>
  <style type="text/css">
   <![CDATA[
    .fil3 {fill:none}
    .fil0 {fill:#501D33}
    .fil4 {fill:#88958A}
    .fil2 {fill:#AD8D60}
    .fil5 {fill:#AFC0A6}
    .fil6 {fill:#D6E6C6}
    .fil1 {fill:#DEDA81}
   ]]>
  </style>
 </defs>
 <g id="Слой_x0020_1">
  <metadata id="CorelCorpID_0Corel-Layer"/>
  <g id="_2674542645776">
   <g>
    <path id="_134586704" class="fil0" d="M1885.69 2125.65c-23.95,56.93 -85.9,177.87 -198.4,234.55 0,0 -54.23,28.3 -199.12,-7.42 -112.07,-27.63 -245.76,-90.47 -300.59,-117.52 -28.94,-14.28 -62.16,-29.99 -88.39,-48.39 -22.22,-15.58 -8.82,-31.49 13.96,-22.47 26.02,10.29 15.6,-78.92 37.39,-119.72 45.99,-86.14 498.81,-74.77 515.28,-70.08 14.99,4.26 197.21,27.52 228.95,99.07 16.35,-2.86 -8.8,51.33 -9.08,52z"/>
    <path id="_134586632" class="fil1" d="M1894 2076.95c-17.03,34.54 -105.49,163.24 -206.58,220.38 -75.58,42.73 -259.27,-5.59 -401.47,-58.41 -34.81,-12.94 -146.01,-55.03 -174.36,-75.33 -25.36,-30.09 15.81,-147.68 51.67,-166.53 63.41,-33.32 189.47,-39.22 292.99,-40.58 112.23,-1.47 215.33,3.12 282.15,16.18 34.3,6.72 182.09,50.55 155.59,104.28z"/>
    <path id="_134586560" class="fil2" d="M1856.51 2109.04c-48.55,56.06 -145.7,162.1 -197.33,176.24 -67.01,18.34 -207.74,3.49 -494.5,-109.35 -58.73,-23.11 -62.97,-50.34 9.2,-34.88 100.35,21.49 334.47,75.31 435.94,44.9 92.34,-27.68 177.4,-83.01 222.6,-110.49 55.77,-33.92 49.74,3.97 24.09,33.59z"/>
    <path id="_134586416" class="fil0" d="M1583.93 2316.89c0,0 93.3,-36.34 178.48,-155.7 0,0 -23.46,89.81 -105.1,169.32l-43.14 3.98c0,0 -29.39,-19.06 -30.24,-17.6z"/>
    <path id="_134586344" class="fil2" d="M1383.54 2183.03c0,0 124.21,6.29 267.8,-75.32 0,0 -79.21,94.41 -194.13,125.09l-47.5 -19.18c0,0 -24.74,-31.5 -26.17,-30.6z"/>
   </g>
   <rect id="_135982752" class="fil3" width="3906.71" height="5975.82"/>
   <g>
    <g>
     <path id="_134587808" class="fil0" d="M2534.18 1891.42c0,0 -39.1,83.78 0.24,164.98l51.61 2.67c0,0 57.66,-136.05 50,-140.4 -7.66,-4.35 -101.78,-27.58 -101.85,-27.25z"/>
     <path id="_134587736" class="fil4" d="M2557.8 1925.66c0,0 -29.38,62.96 0.18,123.97l38.78 2c0,0 43.33,-102.23 37.57,-105.5 -5.76,-3.27 -76.49,-20.72 -76.53,-20.48z"/>
    </g>
    <g>
     <path id="_134587640" class="fil0" d="M2340.29 1863.82c0,0 -48.89,97.02 -5.54,193.78l60.52 4.95c0,0 72.52,-157.75 63.68,-163.13 -8.84,-5.38 -118.58,-35.99 -118.66,-35.6z"/>
     <path id="_134587568" class="fil4" d="M2366.82 1904.86c0,0 -36.73,72.91 -4.16,145.61l45.47 3.72c0,0 54.5,-118.54 47.85,-122.58 -6.65,-4.05 -89.1,-27.04 -89.17,-26.75z"/>
    </g>
    <path id="_134587472" class="fil0" d="M1999.85 2127.41c23.74,57.01 85.25,178.19 197.54,235.28 0,0 54.12,28.49 199.14,-6.69 112.16,-27.22 246.08,-89.57 301.01,-116.42 28.99,-14.18 62.28,-29.77 88.57,-48.06 22.27,-15.5 8.93,-31.45 -13.87,-22.53 -26.06,10.2 -15.31,-78.98 -36.95,-119.86 -45.68,-86.31 -498.53,-76.59 -515.02,-71.97 -15,4.2 -197.32,26.8 -229.31,98.23 -16.34,-2.92 8.61,51.36 8.89,52.03z"/>
    <path id="_134587400" class="fil1" d="M1991.73 2078.68c16.91,34.61 104.89,163.62 205.77,221.14 75.42,43.01 259.29,-4.64 401.68,-56.94 34.85,-12.81 146.21,-54.49 174.63,-74.69 25.47,-30 -15.27,-147.74 -51.06,-166.72 -63.29,-33.55 -189.34,-39.91 -292.85,-41.65 -112.22,-1.88 -215.34,2.33 -282.2,15.15 -34.32,6.59 -182.28,49.89 -155.97,103.71z"/>
    <g>
     <path id="_134587328" class="fil0" d="M2339.83 1864.02c26.69,31 38.16,56.5 37.85,100.39 -0.32,45.79 -14.95,69.03 -44.23,92.63 18.06,36.12 36.3,60.18 80.2,61.6 7.54,0.05 3.86,0.31 11.22,-0.8 64.83,-9.79 88.7,-93.15 89.1,-148.77 0.4,-55.63 -22.33,-139.33 -87.02,-150.01 -40.34,-6.66 -68.77,12.79 -87.11,44.96z"/>
     <path id="_134587256" class="fil5" d="M2415.48 1854.32c-10.94,-0.08 -21.26,4.9 -30.29,13.7 17.51,20.34 28.99,56.06 28.7,96.64 -0.3,43.19 -13.84,80.68 -33.54,99.9 9.67,11.23 21.16,17.78 33.54,17.87 34.82,0.24 63.41,-50.64 63.85,-113.62 0.44,-62.98 -27.45,-114.25 -62.26,-114.49z"/>
     <path id="_134587184" class="fil6" d="M2415.48 1854.32c-10.95,-0.08 -21.27,4.89 -30.29,13.7 12.51,14.53 21.95,36.91 26.2,63.3 29.14,6.52 47.63,-9.44 57.41,-22.34 -10.88,-32.65 -30.62,-54.5 -53.33,-54.66z"/>
     <path id="_134587112" class="fil4" d="M2408.19 2010.8c-5.79,22.93 -15.63,41.85 -27.84,53.76 9.66,11.24 21.15,17.79 33.54,17.86 28.82,0.21 53.37,-34.64 61.23,-82.37 -27.34,8.32 -49.38,11.02 -66.93,10.74z"/>
    </g>
    <g>
     <path id="_134587016" class="fil0" d="M2533.79 1891.61c23.49,25.69 33.9,47.08 34.76,84.43 0.89,38.96 -10.96,59.1 -35.26,79.93 16.29,30.26 32.42,50.27 69.8,50.35 6.41,-0.14 3.29,0.17 9.52,-0.97 54.9,-9.98 73.08,-81.51 71.99,-128.83 -1.09,-47.33 -22.56,-117.96 -77.86,-125.38 -34.49,-4.63 -58.18,12.63 -72.95,40.47z"/>
     <path id="_134586944" class="fil5" d="M2597.9 1881.42c-9.31,0.21 -17.95,4.71 -25.41,12.43 15.42,16.85 26.09,46.95 26.89,81.48 0.85,36.75 -9.71,68.98 -25.99,85.84 8.51,9.3 18.45,14.58 28.99,14.34 29.62,-0.69 52.65,-44.69 51.42,-98.28 -1.24,-53.59 -26.26,-96.49 -55.89,-95.81z"/>
     <path id="_134586872" class="fil6" d="M2597.9 1881.42c-9.31,0.21 -17.97,4.7 -25.41,12.43 11.01,12.04 19.61,30.83 23.9,53.18 24.96,4.81 40.27,-9.25 48.26,-20.47 -10.09,-27.5 -27.44,-45.58 -46.76,-45.14z"/>
     <path id="_134586800" class="fil4" d="M2595.69 2014.72c-4.34,19.66 -12.23,36 -22.3,46.44 8.51,9.31 18.45,14.59 28.99,14.34 24.52,-0.56 44.51,-30.83 49.98,-71.63 -23.04,7.78 -41.73,10.64 -56.66,10.85z"/>
    </g>
    <path id="_134586488" class="fil2" d="M2044 2116.9c46.54,54.2 139.66,156.72 189.32,170.54 64.46,17.94 200.06,4.22 476.7,-103.28 56.66,-22.02 60.85,-48.22 -8.72,-33.63 -96.73,20.29 -322.44,71.16 -420.03,41.44 -88.82,-27.04 -170.51,-80.67 -213.93,-107.33 -53.57,-32.9 -47.92,3.62 -23.34,32.25z"/>
    <path id="_134586272" class="fil2" d="M2447.18 2196.31c0,0 -123.96,-10.02 -255.64,-109.72 0,0 66.18,103.96 176.09,149.42l49.6 -12.8c0,0 28.66,-27.99 29.95,-26.91z"/>
    <path id="_134586200" class="fil0" d="M2294.04 2315.69c0,0 -92.66,-37.94 -175.77,-158.75 0,0 21.91,90.19 102.16,171.11l43.07 4.72c0,0 29.71,-18.56 30.54,-17.08z"/>
   </g>
  </g>
 </g>
</svg>
