<?xml version="1.0" encoding="UTF-8"?>
<!DOCTYPE svg PUBLIC "-//W3C//DTD SVG 1.1//EN" "http://www.w3.org/Graphics/SVG/1.1/DTD/svg11.dtd">
<!-- Creator: CorelDRAW 2020 (64-Bit) -->
<svg xmlns="http://www.w3.org/2000/svg" xml:space="preserve" width="129.436mm" height="197.989mm" version="1.1" style="shape-rendering:geometricPrecision; text-rendering:geometricPrecision; image-rendering:optimizeQuality; fill-rule:evenodd; clip-rule:evenodd"
viewBox="0 0 473.21 723.83"
 xmlns:xlink="http://www.w3.org/1999/xlink"
 xmlns:xodm="http://www.corel.com/coreldraw/odm/2003">
 <defs>
  <style type="text/css">
   <![CDATA[
    .fil0 {fill:none}
    .fil1 {fill:#501D33}
    .fil3 {fill:#9F5655}
    .fil6 {fill:#B76E60}
    .fil2 {fill:#BB765A}
    .fil5 {fill:#D3956E}
    .fil4 {fill:#D79A6E}
    .fil7 {fill:#E8C391}
   ]]>
  </style>
 </defs>
 <g id="Слой_x0020_1">
  <metadata id="CorelCorpID_0Corel-Layer"/>
  <g id="_2674608453216">
   <g>
    <rect id="_134726456" class="fil0" width="473.21" height="723.83"/>
    <g>
     <g>
      <path id="_134650392" class="fil1" d="M306.27 276.52c-4.79,4.2 -10.95,6.53 -17.4,6.53 -3.13,0 -6.21,-0.55 -9.11,-1.62 -3.14,4.84 -8.58,7.91 -14.58,7.91 -9.6,0 -15.43,-9.94 -12.86,-19.33 3.15,-1.55 60.91,-38.38 69.33,-15.4 4.27,0.3 9.39,3.42 12.12,7.8 9.04,14.49 -10.16,25.84 -20.74,14.52 -2.07,0.2 -4.74,0.06 -6.77,-0.41z"/>
      <path id="_134650320" class="fil2" d="M324.99 254.97c5.19,0.89 9.14,5.41 9.14,10.85 0,6.08 -4.93,11.01 -11.01,11.01 -3.7,0 -6.97,-1.82 -8.96,-4.62 -1.13,0.28 -2.32,0.43 -3.54,0.43 -1.96,0 -3.83,-0.39 -5.54,-1.08 -4.03,4.37 -9.8,7.11 -16.22,7.11 -4.09,0 -7.93,-1.12 -11.21,-3.06 -1.57,5.41 -6.56,9.36 -12.48,9.36 -7.18,0 -12.99,-5.82 -12.99,-12.99 0,-7.18 5.82,-12.99 12.99,-12.99 0.61,0 1.2,0.04 1.79,0.12 -0.09,-0.81 -0.14,-1.64 -0.14,-2.47 0,-12.17 9.87,-22.04 22.04,-22.04 7.39,0 13.93,3.64 17.93,9.22 1.22,-0.33 2.5,-0.51 3.82,-0.51 7.08,0 12.98,5.01 14.37,11.68z"/>
      <path id="_134650248" class="fil3" d="M322.33 255.31c4.75,0.99 9.13,3.66 9.13,9.07 0,9.85 -10.9,13.36 -16.59,5.41 -3.62,1.01 -8.57,0.59 -11.29,-0.52 -3.83,4.16 -10.17,7.33 -15.17,7.33 -5,0 -7.54,-1.06 -10.66,-2.91 -1.5,5.14 -6.24,8.9 -11.87,8.9 -4.25,0 -8,-2.15 -10.23,-5.42 16.13,3.42 20.5,-12.06 20.5,-12.06 11.24,6.84 21.02,-4.11 21.02,-4.11 11.79,8.45 25.04,0.42 25.14,-5.68z"/>
      <ellipse id="_134650176" class="fil4" transform="matrix(0.63966 -0.427218 0.496932 0.744041 281.066 245.255)" rx="15.36" ry="7.04"/>
      <ellipse id="_134650104" class="fil3" transform="matrix(0.507365 -0.33886 0.394157 0.590158 306.646 251.419)" rx="15.36" ry="7.04"/>
      <ellipse id="_134650032" class="fil4" transform="matrix(0.380115 -0.253872 0.2953 0.442143 261.1 265.168)" rx="15.36" ry="7.04"/>
      <path id="_134649960" class="fil2" d="M323.61 264.57c0,0 -6.26,5.67 -13.63,5.73l1.21 2.27c0,0 7.34,0.39 12.42,-8z"/>
     </g>
     <g>
      <circle id="_134649864" class="fil1" cx="220.03" cy="278.25" r="9.21"/>
      <path id="_134649792" class="fil1" d="M188.42 282.66c-4.31,1.89 -9.06,2.6 -13.79,2.03 -3.09,-0.37 -6.07,-1.28 -8.82,-2.68 -1.12,0.5 -2.29,0.89 -3.49,1.16 -2.27,6.09 -8.5,10.09 -15.24,9.27 -10.8,-1.31 -15.89,-15.08 -5.01,-21.29 3.58,-2.04 7.91,2.8 9.52,1.52 -3.38,-37.99 45.3,-22.64 46.57,-14.52 3.41,1.12 7.29,1.71 9.95,4.36 11.81,11.75 1.93,25.33 -11.29,23.73 -3.12,-0.38 -6.02,-1.63 -8.41,-3.58z"/>
      <path id="_134649720" class="fil2" d="M200.24 258.01c6.59,0.8 11.29,6.79 10.49,13.38 -0.8,6.59 -6.79,11.29 -13.38,10.49 -3.33,-0.4 -6.18,-2.14 -8.08,-4.61 -4.08,2.49 -9,3.68 -14.11,3.06 -3.42,-0.41 -6.57,-1.59 -9.28,-3.34 -2.08,1.34 -4.51,2.14 -7.09,2.23l-0.01 0.11c-0.66,5.5 -5.66,9.41 -11.16,8.75 -5.5,-0.66 -9.41,-5.66 -8.75,-11.16 0.44,-3.62 2.76,-6.56 5.86,-7.95 -0.49,-1.73 -0.65,-3.59 -0.42,-5.49 0.81,-6.7 6.22,-11.73 12.68,-12.31 3.33,-9.57 12.98,-15.88 23.46,-14.61 11.03,1.33 19.17,10.6 19.39,21.4 0.13,0.01 0.26,0.02 0.4,0.04z"/>
      <circle id="_134649648" class="fil5" cx="219.5" cy="276.03" r="7.91"/>
      <path id="_134649576" class="fil6" d="M225.44 272.19c0.72,1.11 1.13,2.42 1.13,3.84 0,3.9 -3.17,7.07 -7.07,7.07 -3.86,0 -7,-3.09 -7.07,-6.94 1.26,1.95 3.45,3.24 5.94,3.24 3.9,0 7.07,-3.17 7.07,-7.07l-0 -0.14z"/>
      <circle id="_134649504" class="fil4" transform="matrix(0.526044 -0.176667 0.117874 0.350982 218.667 272.797)" r="8.86"/>
      <path id="_134649432" class="fil3" d="M140.52 277.36c0,0 -0.92,8.23 7.98,8.95 8.91,0.72 9.52,-11.41 9.52,-11.41 0,0 -8.16,12.58 -17.5,2.46z"/>
      <path id="_134649360" class="fil3" d="M159.76 268.18c0,0 5.17,10.15 17.82,10.25 12.65,0.1 16.48,-12.7 16.48,-12.7 0,0 -3.09,-2.54 -4.65,-0.43 -3.05,4.14 -15.9,7.48 -29.65,2.89z"/>
      <circle id="_134649288" class="fil3" cx="198.42" cy="269.81" r="10.17"/>
      <circle id="_134649216" class="fil5" cx="197.2" cy="266.07" r="7.77"/>
      <path id="_134649144" class="fil4" d="M173.95 239.46c7.22,-1.5 13.84,1.99 14.65,5.88 0.81,3.89 -4.51,6.71 -11.73,8.2 -7.22,1.5 -13.62,1.11 -14.43,-2.78 -0.81,-3.89 4.28,-9.81 11.5,-11.3z"/>
      <path id="_134649072" class="fil7" d="M195.91 260.12c3.2,-0.66 6.14,0.88 6.49,2.61 0.36,1.72 -2,2.97 -5.2,3.64 -3.2,0.66 -6.04,0.49 -6.39,-1.23 -0.36,-1.72 1.9,-4.35 5.1,-5.01z"/>
     </g>
    </g>
    <g>
     <path id="_123939464" class="fil1" d="M167.2 253.08c-0.51,-6.09 -6.64,-10.48 -13.03,-9.3 -6.38,1.18 -10.87,7.06 -10.36,13.15 0.51,6.09 6.38,9.62 12.76,8.44 6.38,-1.18 11.14,-6.2 10.63,-12.29z"/>
     <circle id="_123939392" class="fil5" transform="matrix(0.870672 -0.167813 0.0878221 0.800043 157.17 256.506)" r="11.13"/>
     <path id="_123939320" class="fil6" d="M161.65 249.12c2.27,1.04 3.9,3.1 4.19,5.71 0.48,4.4 -3.01,8.71 -7.79,9.63 -3.34,0.64 -6.43,-0.54 -8.15,-2.8 1.55,0.71 3.41,0.96 5.35,0.58 4.78,-0.92 8.27,-5.24 7.79,-9.63 -0.15,-1.33 -0.64,-2.51 -1.39,-3.49z"/>
     <circle id="_123939248" class="fil7" transform="matrix(0.481846 -0.424946 0.281075 0.281936 154.857 254.17)" r="11.13"/>
    </g>
    <g>
     <circle id="_123939848" class="fil1" transform="matrix(0.829803 1.16187 -1.16187 0.829803 301.381 247.351)" r="7.95"/>
     <circle id="_123939776" class="fil5" transform="matrix(0.829803 1.16187 -1.16187 0.829803 301.296 250.118)" r="6.51"/>
     <path id="_123939704" class="fil3" d="M309.61 250.29c-0.05,2.53 -1.26,5.01 -3.48,6.6 -3.74,2.67 -8.93,1.8 -11.6,-1.93 -1.86,-2.61 -2,-5.93 -0.65,-8.6 -0.04,1.73 0.46,3.49 1.55,5.01 2.67,3.74 7.86,4.6 11.6,1.93 1.13,-0.81 2,-1.84 2.58,-3z"/>
     <circle id="_123939632" class="fil7" transform="matrix(0.565172 0.206832 -0.143154 0.391168 302.488 246.891)" r="11.13"/>
    </g>
    <g>
     <circle id="_123939776_0" class="fil2" transform="matrix(0.916148 0.215833 -0.215833 0.916148 257.207 252.731)" r="6.51"/>
     <path id="_123939704_1" class="fil3" d="M261.41 249.2c1.07,1.28 1.55,3.03 1.14,4.78 -0.69,2.95 -3.65,4.77 -6.59,4.08 -2.06,-0.48 -3.57,-2.07 -4.06,-3.98 0.73,0.87 1.74,1.53 2.94,1.81 2.95,0.69 5.9,-1.13 6.59,-4.08 0.21,-0.89 0.19,-1.78 -0.02,-2.61z"/>
     <circle id="_123939632_2" class="fil4" transform="matrix(0.370124 -0.142882 0.0988911 0.256171 256.396 250.613)" r="11.13"/>
    </g>
    <g>
     <circle id="_123939848_3" class="fil1" transform="matrix(0.730663 0.986892 -0.986892 0.730663 197.18 265.767)" r="7.95"/>
     <circle id="_123939776_4" class="fil5" transform="matrix(0.730663 0.986892 -0.986892 0.730663 197.148 268.147)" r="6.51"/>
     <path id="_123939704_5" class="fil6" d="M204.3 268.17c-0.01,2.18 -1.01,4.33 -2.9,5.72 -3.17,2.35 -7.66,1.68 -10.01,-1.49 -1.64,-2.22 -1.81,-5.07 -0.68,-7.39 -0.01,1.49 0.45,2.99 1.4,4.28 2.35,3.17 6.83,3.84 10.01,1.49 0.96,-0.71 1.69,-1.62 2.18,-2.62z"/>
     <circle id="_123939632_6" class="fil7" transform="matrix(0.489044 0.169539 -0.117342 0.338478 198.126 265.355)" r="11.13"/>
    </g>
   </g>
   <circle class="fil4" transform="matrix(1 -0 -0.177984 1 171.397 258.755)" r="3.33"/>
   <circle class="fil4" transform="matrix(1.36355 0.307594 -0.68348 0.896771 147.659 273.265)" r="3.33"/>
   <circle class="fil3" transform="matrix(-0.0423802 0.999102 -1.00776 0.161644 288.655 259.239)" r="4.05"/>
   <circle class="fil3" cx="314.36" cy="257.94" r="2.39"/>
  </g>
 </g>
</svg>
