<?xml version="1.0" encoding="UTF-8"?>
<!DOCTYPE svg PUBLIC "-//W3C//DTD SVG 1.1//EN" "http://www.w3.org/Graphics/SVG/1.1/DTD/svg11.dtd">
<!-- Creator: CorelDRAW 2020 (64-Bit) -->
<svg xmlns="http://www.w3.org/2000/svg" xml:space="preserve" width="129.436mm" height="197.989mm" version="1.1" style="shape-rendering:geometricPrecision; text-rendering:geometricPrecision; image-rendering:optimizeQuality; fill-rule:evenodd; clip-rule:evenodd"
viewBox="0 0 2445.93 3741.36"
 xmlns:xlink="http://www.w3.org/1999/xlink"
 xmlns:xodm="http://www.corel.com/coreldraw/odm/2003">
 <defs>
  <style type="text/css">
   <![CDATA[
    .fil0 {fill:none}
    .fil1 {fill:#501D33}
    .fil3 {fill:#AD8D60}
    .fil2 {fill:#DEDA81}
    .fil5 {fill:#E4F6A3}
    .fil4 {fill:#EFFABB}
   ]]>
  </style>
 </defs>
 <g id="Слой_x0020_1">
  <metadata id="CorelCorpID_0Corel-Layer"/>
  <g id="_2674293054576">
   <g id="_134589392">
    <rect id="_135982320" class="fil0" y="0" width="2445.93" height="3741.36"/>
    <g>
     <g>
      <path id="_134589176" class="fil1" d="M1091.45 1506.23c0,0 89.21,-12.74 114.7,-88.15 0,0 -32.39,44.6 -106.73,58.94l-10.09 12.21 2.12 16.99z"/>
      <g>
       <path id="_134589104" class="fil1" d="M979.01 1499.96c32.36,8.66 64.99,13.94 97.04,13.35 110.52,-2.05 149.47,-164.19 112.84,-226.33 -3.03,-5.38 -398.12,-38.61 -504.49,30.17 67.96,95.96 179.49,151.99 294.6,182.81l0 0z"/>
       <path id="_134589032" class="fil2" d="M1186.41 1386.62c-18.7,43.4 -52.24,90.72 -109.73,91.79 -106.66,1.98 -255.98,-69.38 -255.98,-69.38 -76.05,-40.41 -282.29,-119.79 -18.28,-185.36 37.65,-9.35 92.14,11.46 153.24,27.28 61.1,15.82 124.69,18.15 180.51,14.41 92.04,-6.17 74.38,65.24 50.24,121.26z"/>
      </g>
      <path id="_134588936" class="fil3" d="M1191.27 1340.86c0,0 -34.03,126.08 -128.72,126.08 -94.69,0 -322.35,-106.93 -322.35,-106.93 0,0 354.25,90.43 451.07,-19.15z"/>
      <path id="_134588864" class="fil4" d="M823.25 1232.26c40.9,2.89 98.82,31.94 -34.55,48.83 -86.34,10.93 -0.26,-51.28 34.55,-48.83z"/>
      <path id="_134588792" class="fil4" d="M892.59 1262.7c25.31,1.79 61.16,19.77 -21.38,30.22 -53.44,6.77 -0.16,-31.74 21.38,-30.22z"/>
      <path id="_134588720" class="fil1" d="M1201.71 1336.04c0,0 -22.49,105.91 -173.72,129.2 0,0 102.86,11.48 143.94,-35.74 41.09,-47.22 29.77,-93.46 29.77,-93.46z"/>
     </g>
     <g>
      <g>
       <path id="_134588624" class="fil1" d="M1462.71 1499.96c-32.36,8.66 -64.99,13.94 -97.04,13.35 -110.52,-2.05 -149.47,-164.19 -112.84,-226.33 3.03,-5.38 398.12,-38.61 504.49,30.17 -67.96,95.96 -179.49,151.99 -294.6,182.81l-0 0z"/>
       <path id="_134588552" class="fil2" d="M1255.31 1386.62c18.7,43.4 52.24,90.72 109.73,91.79 106.66,1.98 255.98,-69.38 255.98,-69.38 76.05,-40.41 282.29,-119.79 18.28,-185.36 -37.65,-9.35 -92.14,11.46 -153.24,27.28 -61.1,15.82 -124.69,18.15 -180.51,14.41 -92.04,-6.17 -74.38,65.24 -50.24,121.26z"/>
      </g>
      <path id="_134588456" class="fil3" d="M1256.2 1340.86c0,0 34.03,126.08 128.72,126.08 94.69,0 322.35,-106.93 322.35,-106.93 0,0 -354.25,90.43 -451.07,-19.15z"/>
      <path id="_134588384" class="fil5" d="M1488.6 1285.62l61.07 103.55 57.35 30.27c0,0 -22.3,-61.6 -118.41,-133.81z"/>
      <path id="_134588312" class="fil1" d="M1347.92 1506.23c0,0 -89.21,-12.74 -114.7,-88.15 0,0 32.39,44.6 106.73,58.94l10.09 12.21 -2.12 16.99z"/>
      <g>
       <path id="_134588240" class="fil5" d="M1611.03 1232.26c-40.9,2.89 -98.82,31.94 34.55,48.83 86.34,10.93 0.26,-51.28 -34.55,-48.83z"/>
       <path id="_134588168" class="fil5" d="M1541.69 1262.7c-25.31,1.79 -61.16,19.77 21.38,30.22 53.44,6.77 0.16,-31.74 -21.38,-30.22z"/>
      </g>
      <path id="_134588072" class="fil1" d="M1495.56 1365.14c0,0 48.06,-6.59 57.23,-12.32 9.17,-5.73 41.86,-32.93 41.86,-32.93 0,0 -20.56,-1.02 -51.78,10.79 -8.84,3.34 -31.41,25.08 -47.3,34.46z"/>
      <polygon id="_134588000" class="fil1" points="1485.43,1283.35 1649.61,1404.56 1612.48,1427.64 "/>
      <path id="_134587928" class="fil1" d="M1240.75 1336.04c0,0 22.49,105.91 173.72,129.2 0,0 -102.86,11.48 -143.94,-35.74 -41.09,-47.22 -29.77,-93.46 -29.77,-93.46z"/>
     </g>
    </g>
   </g>
  </g>
 </g>
</svg>
