<?xml version="1.0" encoding="UTF-8"?>
<!DOCTYPE svg PUBLIC "-//W3C//DTD SVG 1.1//EN" "http://www.w3.org/Graphics/SVG/1.1/DTD/svg11.dtd">
<!-- Creator: CorelDRAW 2020 (64-Bit) -->
<svg xmlns="http://www.w3.org/2000/svg" xml:space="preserve" width="129.436mm" height="197.989mm" version="1.1" style="shape-rendering:geometricPrecision; text-rendering:geometricPrecision; image-rendering:optimizeQuality; fill-rule:evenodd; clip-rule:evenodd"
viewBox="0 0 1012.03 1548.03"
 xmlns:xlink="http://www.w3.org/1999/xlink"
 xmlns:xodm="http://www.corel.com/coreldraw/odm/2003">
 <defs>
  <style type="text/css">
   <![CDATA[
    .fil0 {fill:none}
    .fil4 {fill:#4B3446}
    .fil1 {fill:#501D33}
    .fil2 {fill:#634C54}
    .fil3 {fill:#896E6B}
   ]]>
  </style>
 </defs>
 <g id="Слой_x0020_1">
  <metadata id="CorelCorpID_0Corel-Layer"/>
  <g id="_2674524859664">
   <g id="_135736384">
    <rect id="_136891536" class="fil0" width="1012.03" height="1548.03"/>
    <g>
     <g>
      <path id="_134652144" class="fil1" d="M730.57 555.11c0,0 38.7,-9.68 84.44,-2.35 0,0 -20.23,-16.42 -61.57,-15.54 -41.34,0.88 -29.03,15.25 -22.87,17.89z"/>
      <path id="_134652072" class="fil1" d="M613.4 521.75c-2.32,7.06 -2.91,10.99 -1.33,16.48 0,0 37.82,-42.18 98.23,-50.97 -2.49,4.85 -3.61,9.31 -3.36,13.38 0,0 54.11,-29.93 120.91,-20.54 0,0 -26.5,7.93 -50.05,20.13 0,0 34.09,-5.9 100.97,23.03 0,0 -68.78,3.25 -137.11,24.96 0,0 8.17,4.3 20.84,15.46 0,0 -38.27,-0.81 -64.36,7.02 0,0 10.36,4.47 17.74,16.99 0,0 -17.71,-6.52 -58.81,-7.71 0,0 8.59,3.56 16.29,16.4 0,0 -52.69,-4 -113.92,9.24 -28.84,-5.3 2.75,-63.15 53.96,-83.9z"/>
      <path id="_134652000" class="fil2" d="M561.1 587.36c0,0 6.16,-26.1 37.82,-41.63 0,0 1.17,7.04 8.8,14.37 0,0 30.2,-39.29 80.92,-53.66 0,0 -1.99,10.95 2.11,23.82 0,0 6.73,-12.57 13.16,-18.13 0,0 33.7,-19.76 72.4,-22.11 0,0 -23.16,7.33 -44.27,27.85 0,0 37.53,-14.95 92.65,-1.47 0,0 -46.91,5.57 -99.4,24.34l-9.98 3.41c0,0 12.28,4.39 18.86,10.97 0,0 -21.35,-1.61 -53.81,9.36 0,0 5.21,2.57 9.87,7.15 0,0 -21.42,-3.21 -50.08,2.2l-3.36 1.32c0,0 7.16,3.07 15.64,9.8 0,0 -38.16,-6.14 -83.49,9.21 0,0 -2.7,1.4 -5.9,-1 -3.2,-2.4 -1.96,-5.79 -1.96,-5.79z"/>
      <path id="_134651928" class="fil3" d="M691.86 528.27c2.17,-3.77 7.19,-11.95 12.05,-16.15 0,0 33.7,-19.76 72.4,-22.11 0,0 -0.62,0.2 -1.74,0.61 -35.56,7.34 -62.02,17.46 -82.71,37.64z"/>
      <path id="_134651856" class="fil3" d="M608.42 559.22c4.79,-5.86 33.97,-39.68 80.22,-52.78 0,0 -1.82,10 1.59,22.11l-0.07 0.25c-5.85,-4.39 -10.23,-11.99 -10.23,-11.99 -27.49,5.7 -71.94,43.13 -71.94,43.13 0.14,-0.24 0.29,-0.48 0.43,-0.72z"/>
      <path id="_134651784" class="fil4" d="M822.16 515.81c0.84,0.19 1.68,0.39 2.52,0.6 0,0 -46.91,5.57 -99.4,24.34l-9.98 3.41c0,0 12.28,4.39 18.86,10.97 0,0 -21.35,-1.61 -53.81,9.36 0,0 5.21,2.57 9.87,7.15 0,0 -21.42,-3.21 -50.08,2.2l-3.36 1.32c0,0 7.16,3.07 15.64,9.8 0,0 -38.16,-6.14 -83.49,9.21 0,0 -0.99,0.51 -2.48,0.38 62,-43.85 201.94,-86.11 255.69,-78.72z"/>
      <path id="_134651712" class="fil4" d="M633.87 559.06c0,0 23.98,-11.7 31.87,-28.36 0,0 6.14,11.99 -2.34,25.73 -8.48,13.74 -29.53,2.63 -29.53,2.63z"/>
      <path id="_134651640" class="fil4" d="M690.09 538.32c0,0 18.96,-9.25 25.2,-22.43 0,0 4.86,9.48 -1.85,20.35 -6.71,10.87 -23.35,2.08 -23.35,2.08z"/>
      <path id="_134651568" class="fil2" d="M566.76 593.86c0,0 29.1,-16.23 58.05,-16.08 0,0 -14.62,-8.33 -34.51,-5.7 -19.88,2.63 -23.54,21.93 -23.54,21.79z"/>
      <path id="_134651496" class="fil3" d="M561.1 587.36c0,0 5.81,-24.61 35.15,-40.26 -6.79,6.33 -22.04,22.92 -24.48,46.13 -0.94,0.3 -1.87,0.61 -2.81,0.93 0,0 -2.7,1.4 -5.9,-1 -3.2,-2.4 -1.96,-5.79 -1.96,-5.79z"/>
     </g>
     <g>
      <path id="_134651400" class="fil1" d="M286.08 566.86c0,0 -38.7,-9.68 -84.44,-2.35 0,0 20.23,-16.42 61.57,-15.54 41.34,0.88 29.03,15.25 22.87,17.89z"/>
      <path id="_134651328" class="fil1" d="M403.24 533.5c2.32,7.06 2.91,10.99 1.33,16.48 0,0 -37.82,-42.18 -98.23,-50.97 2.49,4.85 3.61,9.31 3.36,13.38 0,0 -54.11,-29.93 -120.91,-20.54 0,0 26.5,7.93 50.05,20.13 0,0 -34.09,-5.9 -100.97,23.03 0,0 68.78,3.25 137.11,24.96 0,0 -8.17,4.3 -20.84,15.46 0,0 38.27,-0.81 64.36,7.02 0,0 -10.36,4.47 -17.74,16.99 0,0 17.71,-6.52 58.81,-7.71 0,0 -8.59,3.56 -16.29,16.4 0,0 52.69,-4 113.92,9.24 28.84,-5.3 -2.75,-63.15 -53.96,-83.9z"/>
      <path id="_134651256" class="fil2" d="M455.55 599.11c0,0 -6.16,-26.1 -37.82,-41.63 0,0 -1.17,7.04 -8.8,14.37 0,0 -30.2,-39.29 -80.92,-53.66 0,0 1.99,10.95 -2.11,23.82 0,0 -6.73,-12.57 -13.16,-18.13 0,0 -33.7,-19.76 -72.4,-22.11 0,0 23.16,7.33 44.27,27.85 0,0 -37.53,-14.95 -92.65,-1.47 0,0 46.91,5.57 99.4,24.34l9.98 3.41c0,0 -12.28,4.39 -18.86,10.97 0,0 21.35,-1.61 53.81,9.36 0,0 -5.21,2.57 -9.87,7.15 0,0 21.42,-3.21 50.08,2.2l3.36 1.32c0,0 -7.16,3.07 -15.64,9.8 0,0 38.16,-6.14 83.49,9.21 0,0 2.7,1.4 5.9,-1 3.2,-2.4 1.96,-5.79 1.96,-5.79z"/>
      <path id="_134651184" class="fil3" d="M324.79 540.03c-2.17,-3.77 -7.19,-11.95 -12.05,-16.15 0,0 -33.7,-19.76 -72.4,-22.11 0,0 0.62,0.2 1.74,0.61 35.56,7.34 62.02,17.46 82.71,37.64z"/>
      <path id="_134651112" class="fil3" d="M408.23 570.97c-4.79,-5.86 -33.97,-39.68 -80.22,-52.78 0,0 1.82,10 -1.59,22.11l0.07 0.25c5.85,-4.39 10.23,-11.99 10.23,-11.99 27.49,5.7 71.94,43.13 71.94,43.13 -0.14,-0.24 -0.29,-0.48 -0.43,-0.72z"/>
      <path id="_134651040" class="fil4" d="M194.48 527.56c-0.84,0.19 -1.68,0.39 -2.52,0.6 0,0 46.91,5.57 99.4,24.34l9.98 3.41c0,0 -12.28,4.39 -18.86,10.97 0,0 21.35,-1.61 53.81,9.36 0,0 -5.21,2.57 -9.87,7.15 0,0 21.42,-3.21 50.08,2.2l3.36 1.32c0,0 -7.16,3.07 -15.64,9.8 0,0 38.16,-6.14 83.49,9.21 0,0 0.99,0.51 2.48,0.38 -62,-43.85 -201.94,-86.11 -255.69,-78.72z"/>
      <path id="_134650968" class="fil4" d="M382.78 570.81c0,0 -23.98,-11.7 -31.87,-28.36 0,0 -6.14,11.99 2.34,25.73 8.48,13.74 29.53,2.63 29.53,2.63z"/>
      <path id="_134650896" class="fil4" d="M326.55 550.07c0,0 -18.96,-9.25 -25.2,-22.43 0,0 -4.86,9.48 1.85,20.35 6.71,10.87 23.35,2.08 23.35,2.08z"/>
      <path id="_134650824" class="fil2" d="M449.89 605.61c0,0 -29.1,-16.23 -58.05,-16.08 0,0 14.62,-8.33 34.51,-5.7 19.88,2.63 23.54,21.93 23.54,21.79z"/>
      <path id="_134650752" class="fil3" d="M455.55 599.11c0,0 -5.81,-24.61 -35.15,-40.26 6.79,6.33 22.04,22.92 24.48,46.13 0.94,0.3 1.87,0.61 2.81,0.93 0,0 2.7,1.4 5.9,-1 3.2,-2.4 1.96,-5.79 1.96,-5.79z"/>
     </g>
    </g>
   </g>
  </g>
 </g>
</svg>
