<?xml version="1.0" encoding="UTF-8"?>
<!DOCTYPE svg PUBLIC "-//W3C//DTD SVG 1.1//EN" "http://www.w3.org/Graphics/SVG/1.1/DTD/svg11.dtd">
<!-- Creator: CorelDRAW 2020 (64-Bit) -->
<svg xmlns="http://www.w3.org/2000/svg" xml:space="preserve" width="129.436mm" height="197.988mm" version="1.1" style="shape-rendering:geometricPrecision; text-rendering:geometricPrecision; image-rendering:optimizeQuality; fill-rule:evenodd; clip-rule:evenodd"
viewBox="0 0 1808.4 2766.17"
 xmlns:xlink="http://www.w3.org/1999/xlink"
 xmlns:xodm="http://www.corel.com/coreldraw/odm/2003">
 <defs>
  <style type="text/css">
   <![CDATA[
    .fil0 {fill:none}
    .fil3 {fill:#4B3446}
    .fil1 {fill:#501D33}
    .fil2 {fill:#634C54}
   ]]>
  </style>
 </defs>
 <g id="Слой_x0020_1">
  <metadata id="CorelCorpID_0Corel-Layer"/>
  <g id="_2809938742784">
   <g>
    <g id="_124017664">
     <rect id="_285633832" class="fil0" y="0" width="1808.4" height="2766.17"/>
    </g>
   </g>
   <g>
    <g>
     <path class="fil1" d="M959.69 1026.8c0,0 14.38,43.43 64.73,69.03l-0.67 33.37c0,0 -60.71,-9.32 -64.05,-102.39z"/>
     <path class="fil1" d="M1035.9 1034.56c0,0 -19.8,-14.74 -28.6,-52.74 0,0 28.5,34.9 65.23,31.02l-4.16 17.84 -32.47 3.88z"/>
     <path class="fil1" d="M973.96 967.94c0,0 -18.31,115.9 49.69,162.82l180 -138.16c0,0 45.07,-2.94 80.33,9.86 0,0 -35.33,-99.66 -121.2,-119.82 0,0 -56.28,54.29 -127.53,141.93 0,0 -34.32,-6.98 -61.29,-56.62z"/>
     <path class="fil2" d="M991.86 1024.45c0,0 0.69,38.78 33.14,76.39l172.59 -124.87c0,0 28.17,-5.04 54.77,3.49 0,0 -29.4,-53.51 -84.94,-70.58l-125.65 139.6c0,0 -24.1,-1.94 -49.91,-24.04z"/>
     <path class="fil3" d="M1119.9 1032.18l77.69 -56.21c0,0 28.17,-5.04 54.77,3.49 0,0 -29.4,-53.51 -84.94,-70.58l-1.19 1.32c-4.28,21.7 -16.9,73.8 -46.34,121.97z"/>
    </g>
    <g>
     <path class="fil1" d="M848.7 1026.8c0,0 -14.38,43.43 -64.73,69.03l0.67 33.37c0,0 60.71,-9.32 64.05,-102.39z"/>
     <path class="fil1" d="M772.5 1034.56c0,0 19.8,-14.74 28.6,-52.74 0,0 -28.5,34.9 -65.23,31.02l4.16 17.84 32.47 3.88z"/>
     <path class="fil1" d="M834.44 967.94c0,0 18.31,115.9 -49.69,162.82l-180 -138.16c0,0 -45.07,-2.94 -80.33,9.86 0,0 35.33,-99.66 121.2,-119.82 0,0 56.28,54.29 127.53,141.93 0,0 34.32,-6.98 61.29,-56.62z"/>
     <path class="fil2" d="M816.54 1024.45c0,0 -0.69,38.78 -33.14,76.39l-172.59 -124.87c0,0 -28.17,-5.04 -54.77,3.49 0,0 29.4,-53.51 84.94,-70.58l125.65 139.6c0,0 24.1,-1.94 49.91,-24.04z"/>
     <path class="fil3" d="M688.5 1032.18l-77.69 -56.21c0,0 -28.17,-5.04 -54.77,3.49 0,0 29.4,-53.51 84.94,-70.58l1.19 1.32c4.28,21.7 16.9,73.8 46.34,121.97z"/>
    </g>
   </g>
  </g>
 </g>
</svg>
