<?xml version="1.0" encoding="UTF-8"?>
<!DOCTYPE svg PUBLIC "-//W3C//DTD SVG 1.1//EN" "http://www.w3.org/Graphics/SVG/1.1/DTD/svg11.dtd">
<!-- Creator: CorelDRAW 2020 (64-Bit) -->
<svg xmlns="http://www.w3.org/2000/svg" xml:space="preserve" width="129.436mm" height="197.989mm" version="1.1" style="shape-rendering:geometricPrecision; text-rendering:geometricPrecision; image-rendering:optimizeQuality; fill-rule:evenodd; clip-rule:evenodd"
viewBox="0 0 628.11 960.77"
 xmlns:xlink="http://www.w3.org/1999/xlink"
 xmlns:xodm="http://www.corel.com/coreldraw/odm/2003">
 <defs>
  <style type="text/css">
   <![CDATA[
    .fil0 {fill:none}
    .fil1 {fill:#501D33}
    .fil5 {fill:#88958A}
    .fil8 {fill:#9B6858}
    .fil2 {fill:#AFC0A6}
    .fil4 {fill:#B78F6F}
    .fil7 {fill:#CBAD88}
    .fil6 {fill:#D0B585}
    .fil3 {fill:#D6E6C6}
   ]]>
  </style>
 </defs>
 <g id="Слой_x0020_1">
  <metadata id="CorelCorpID_0Corel-Layer"/>
  <g id="_2674686340896">
   <rect id="_135982752" class="fil0" width="628.11" height="960.77"/>
   <path id="_134586704" class="fil1" d="M303.02 336.99c-2.55,9.57 -9.67,30.13 -25.83,41.49 0,0 -7.77,5.63 -30.75,2.92 -17.54,-2.07 -46.24,-10.26 -62.6,-19.17 -3.72,-2.03 -2.44,-4.12 1.24,-3.15 4.2,1.11 0.83,-12.9 3.37,-19.86 5.36,-14.68 75.17,-22.19 77.79,-21.79 2.39,0.37 30.85,0.33 37.15,11.08 2.46,-0.79 -0.33,8.37 -0.36,8.48z"/>
   <path class="fil1" d="M184.35 324.61c2.12,-1.79 5.37,-2.83 7.77,-3.55 4.45,-1.34 9.1,-2.32 13.65,-3.2 12.61,-2.45 24.86,-4.22 37.6,-5.69 11.8,-1.36 23.73,-2.49 35.59,-3.04 4.57,-0.21 9.19,-0.35 13.77,-0.22 2.99,0.08 6.66,0.25 9.54,1.11l0.84 0.25 0.71 0.53c2,1.51 3.94,5.82 5.02,8.17 0.92,1.99 2.77,5.88 3.13,8.01l0.22 1.32 -0.41 1.27c-1.49,4.55 -4.18,9.73 -6.47,13.89 -3.72,6.76 -8.01,13.36 -12.84,19.3 -3.44,4.22 -8.09,10.47 -12.33,13.81 -14.98,11.75 -50.66,3.42 -68.39,-0.88 -7.9,-1.91 -25.29,-7.11 -32.37,-11.1l-2.16 -2.41c-1.71,-3.89 -0.25,-14.44 0.39,-18.69 0.55,-3.66 1.23,-7.45 2.24,-11.01 0.81,-2.85 1.98,-6.29 4.51,-7.87z"/>
   <path id="_134586632" class="fil2" d="M303.33 329.06c-1.93,5.86 -12.97,28.2 -27.37,39.39 -10.77,8.37 -39.95,4.45 -62.86,-1.05 -5.61,-1.35 -23.53,-5.77 -28.29,-8.42 -1.4,-3.15 1.97,-28.21 5.1,-28.9 5.18,-6.51 94,-17.03 107.62,-13 1.24,0.93 5.58,10.72 5.79,11.97z"/>
   <path class="fil3" d="M277.13 322.23c1.12,5.75 -14.38,10.99 -33.25,12.77 -18.87,1.78 -34.92,-0.62 -35.85,-5.35 -1.18,-6.02 68.15,-12.29 69.1,-7.42z"/>
   <path class="fil4" d="M234.24 320.42c-0.21,1.96 -0.59,3.85 -1.13,5.67 3.52,1.34 6.03,4.85 6.03,8.97 0,5.27 -4.12,9.55 -9.2,9.55 -2.86,0 -5.42,-1.36 -7.11,-3.48 -4.06,3.01 -8.93,4.77 -14.16,4.77 -8.6,0 -16.22,-4.74 -20.89,-12.03 0.68,-2.17 1.42,-3.62 2.13,-3.78 2.37,-2.97 22.19,-6.78 44.33,-9.66z"/>
   <path id="_134586632_0" class="fil3" d="M302.42 331.44c-3.39,8.08 -13.58,27 -26.46,37.02 -10.77,8.37 -39.95,4.45 -62.85,-1.05 -5.05,-1.21 -20.09,-4.92 -26.5,-7.58 9.61,1.1 58.88,6.52 70.52,4.06 11.88,-2.74 35.06,-39.55 39.65,-46.99 0.28,0.06 0.54,0.12 0.77,0.19 0.29,0.21 0.74,0.9 1.26,1.84 1.04,2.98 2.53,7.62 3.62,12.51z"/>
   <path id="_134586632_1" class="fil5" d="M303.33 329.06c-1.93,5.86 -12.97,28.2 -27.37,39.39 -2.95,2.29 -7.29,3.66 -12.5,4.33 20.25,-17.03 30.96,-47.77 33.5,-55.85 0.2,0.05 0.4,0.1 0.58,0.15 1.24,0.93 5.58,10.72 5.79,11.97z"/>
   <path id="_134586416" class="fil1" d="M260.44 373.7c0,0 13.62,-7.72 24.34,-28.5 0,0 -1.82,14.8 -12.79,29.16l-6.55 1.52c0,0 -4.89,-2.43 -5,-2.18z"/>
   <ellipse class="fil4" cx="222.44" cy="353.92" rx="6.26" ry="6.5"/>
   <path class="fil6" d="M239.14 335.36c-16.75,0.99 -30.27,-1.38 -31.11,-5.71 -0.5,-2.55 11.64,-5.14 25.88,-6.92 -0.21,1.15 -0.48,2.27 -0.8,3.36 3.52,1.34 6.03,4.85 6.03,8.97 0,0.1 -0,0.2 -0,0.3z"/>
   <path class="fil1" d="M444.32 324.57c-2.15,-1.78 -5.45,-2.82 -7.89,-3.54 -4.52,-1.33 -9.24,-2.31 -13.86,-3.19 -12.8,-2.45 -25.25,-4.21 -38.19,-5.67 -11.98,-1.36 -24.09,-2.48 -36.14,-3.03 -4.64,-0.21 -9.33,-0.35 -13.98,-0.22 -3.04,0.08 -6.76,0.25 -9.69,1.11l-0.85 0.25 -0.72 0.53c-2.49,1.84 -7.72,12.84 -8.27,16.13l-0.22 1.31 0.42 1.26c1.51,4.54 4.25,9.7 6.57,13.85 3.77,6.74 8.13,13.32 13.04,19.24 3.49,4.21 7.38,8.21 11.69,11.53 15.21,11.72 51.54,5.89 69.54,1.61 8.67,-2.06 26.26,-7.26 33.61,-11.32l1.49 -0.82 0.71 -1.58c1.74,-3.88 0.25,-14.39 -0.39,-18.63 -0.55,-3.65 -1.25,-7.43 -2.27,-10.98 -0.82,-2.84 -2.01,-6.27 -4.58,-7.85z"/>
   <path id="_134586704_2" class="fil1" d="M324.19 336.88c2.57,9.57 9.76,30.13 26.06,41.49 0,0 7.84,6.43 31.02,3.72 20.18,-2.36 45.22,-9.68 63.55,-19.57 3.41,-2.27 2.08,-4.52 -1.64,-3.55 -4.24,1.11 -0.84,-12.9 -3.4,-19.86 -5.41,-14.68 -75.83,-22.19 -78.48,-21.79 -2.41,0.37 -31.13,0.33 -37.48,11.08 -2.48,-0.79 0.34,8.37 0.37,8.48z"/>
   <path id="_134586632_3" class="fil2" d="M323.87 328.95c1.95,5.86 13.09,28.2 27.61,39.39 10.86,8.37 40.31,4.45 63.41,-1.05 5.66,-1.35 23.74,-5.77 28.54,-8.42 1.41,-3.15 -1.99,-28.21 -5.14,-28.9 -5.23,-6.51 -94.83,-17.03 -108.58,-13 -1.25,0.93 -5.63,10.72 -5.84,11.97z"/>
   <path id="_134586632_4" class="fil3" d="M324.79 331.33c3.42,8.08 13.7,27 26.69,37.02 10.86,8.37 40.31,4.45 63.41,-1.05 5.09,-1.21 20.26,-4.92 26.74,-7.58 -9.7,1.1 -59.4,6.52 -71.14,4.06 -11.99,-2.74 -35.37,-39.55 -40,-46.99 -0.28,0.06 -0.54,0.12 -0.78,0.19 -0.29,0.21 -0.74,0.9 -1.27,1.84 -1.05,2.98 -2.56,7.62 -3.65,12.51z"/>
   <path class="fil4" d="M418.45 347.3c9.74,0 18.41,4.73 23.95,12.09 -5.96,2.68 -22.19,6.64 -27.5,7.91 -8.27,1.97 -17.35,3.73 -26.09,4.8 2.85,-14.16 15.04,-24.8 29.64,-24.8zm-94.57 -18.35c0.95,2.85 4.07,9.6 8.7,17.07 8.75,-4.76 14.72,-14.33 14.72,-25.36 0,-1.52 -0.11,-3.01 -0.33,-4.47 -8.1,-0.27 -14.35,-0.06 -17.24,0.78 -1.25,0.93 -5.63,10.72 -5.84,11.97zm59.78 20.6c3.36,0 6.09,2.8 6.09,6.26 0,3.46 -2.72,6.26 -6.09,6.26 -3.36,0 -6.09,-2.8 -6.09,-6.26 0,-3.46 2.72,-6.26 6.09,-6.26z"/>
   <path id="_134586632_5" class="fil7" d="M324.79 331.33c0.26,0.62 0.57,1.31 0.91,2.06l0.01 0.03c0.34,0.73 0.71,1.51 1.12,2.34l0.04 0.08c0.17,0.34 0.35,0.69 0.53,1.05l0 0.01 0.28 0.54 0.03 0.05 0.16 0.3 0.1 0.2c0.28,0.54 0.58,1.09 0.88,1.66l0.03 0.05 0.14 0.26 0.18 0.32 0 0 0.18 0.32 0.15 0.28 0.03 0.05 0.18 0.33 0.13 0.23 0.06 0.1c0.31,0.55 0.63,1.11 0.96,1.67l0.04 0.07 0.36 0.61 0.01 0.01 0.36 0.6 0.02 0.03 0.03 0.04 0.21 0.35 0.15 0.25 0.06 0.1 0.21 0.35 0.12 0.19 0.02 0.03 0.08 0.13c4.34,-2.36 7.99,-5.91 10.58,-10.22 -5.94,-8.33 -10.8,-16.03 -12.65,-19.01 -0.2,0.04 -0.38,0.09 -0.56,0.13l-0.01 0 -0.01 0 -0.01 0 -0.01 0 -0.01 0 -0.01 0 -0.01 0 -0 0 -0.01 0 -0.01 0 -0.01 0 -0.01 0 -0.01 0 -0.01 0 -0.01 0 -0.01 0 -0.01 0 -0.01 0 -0.01 0 -0.01 0 -0.06 0.05 -0 0 -0.07 0.06 -0 0 -0.05 0.05 -0.02 0.02 -0 0 -0.07 0.08 -0.01 0.01 -0.01 0.01 -0.05 0.07 -0.01 0.02 -0.01 0.01 -0.04 0.05 -0.02 0.03 -0.02 0.03 -0 0 -0.02 0.02 -0.02 0.03 -0.02 0.03 -0.02 0.03 -0.01 0.01 -0.01 0.02 -0.02 0.03 -0.02 0.03 -0.02 0.03 -0.02 0.02 -0 0.01 -0.04 0.06 -0.02 0.03 -0.02 0.03 -0 0 -0.02 0.03 -0.02 0.03 -0.02 0.03 -0.02 0.03 -0.01 0.02 -0.01 0.02 -0.02 0.04 -0.02 0.04 -0.02 0.04 -0.02 0.03 -0 0.01 -0.02 0.04 -0.02 0.04 -0.02 0.04 -0.02 0.04 -0 0.01 -0.02 0.03 -0.02 0.04 -0.02 0.04 -0.02 0.04 -0.01 0.02 -0.01 0.02 -0.02 0.04 -0.02 0.04 -0.02 0.04 -0.02 0.04 -0 0.01 -0.02 0.04 -0.02 0.04 -0.03 0.04 -0 0c-1.05,2.98 -2.55,7.62 -3.65,12.51zm64.01 40.77l1 -0.13 0.04 -0 0.2 -0.03c0.69,-0.09 1.37,-0.18 2.06,-0.28l0.04 -0.01 1.16 -0.17 0.04 -0.01 1.06 -0.16 0.05 -0.01 0.13 -0.02c1.1,-0.17 2.21,-0.35 3.32,-0.53l0.03 -0.01 1.1 -0.19 0.06 -0.01 0.05 -0.01c1.52,-0.26 3.03,-0.54 4.54,-0.84l0.02 -0 1.15 -0.22 0.06 -0.01 1.08 -0.22 0.15 -0.03c0.68,-0.14 1.35,-0.28 2.03,-0.42l0.09 -0.02 0.31 -0.07 0.8 -0.17 0.01 -0 0.39 -0.08 0.66 -0.15 0.07 -0.01 0.07 -0.02 0.4 -0.09 0.4 -0.09 0.24 -0.05 0.15 -0.03 0.4 -0.09c0.53,-0.12 1.05,-0.24 1.57,-0.36l0.08 -0.02 1.09 -0.26 0.25 -0.06 0.01 -0 0.25 -0.06 0.02 -0.01 0.25 -0.06 0.03 -0.01 0.25 -0.06 0.05 -0.01 0.25 -0.06 0.06 -0.02 0.25 -0.06 0.08 -0.02 0.25 -0.06 0.1 -0.02 0.24 -0.06 0.11 -0.03 0.23 -0.06 0.13 -0.03 0.23 -0.06 0.15 -0.04 0.22 -0.05 0.17 -0.04 0.21 -0.05 0.19 -0.05 0.2 -0.05 0.21 -0.05 0.19 -0.05 0.23 -0.06 0.17 -0.04 0.26 -0.06 0.16 -0.04 0.28 -0.07 0.14 -0.04 0.3 -0.08 0.13 -0.03 0.33 -0.08 0.11 -0.03 0.35 -0.09 0.1 -0.02 0.37 -0.09 0.08 -0.02 0.4 -0.1 0.06 -0.02 0.42 -0.11 0.04 -0.01 0.44 -0.11 0.02 -0.01 0.47 -0.12 0 -0 0.48 -0.12 0.02 -0 0.46 -0.12 0.04 -0.01 0.45 -0.12 0.06 -0.02 0.43 -0.11 0.08 -0.02 0.41 -0.11 0.1 -0.03 0.39 -0.1 0.12 -0.03 0.37 -0.1 0.14 -0.04 0.35 -0.1 0.16 -0.04 0.33 -0.09 0.18 -0.05 0.31 -0.09 0.2 -0.06 0.29 -0.08 0.22 -0.06 0.27 -0.07 0.24 -0.07 0.25 -0.07 0.26 -0.07 0.23 -0.06 0.28 -0.08 0.21 -0.06 0.3 -0.08 0.19 -0.05 0.32 -0.09 0.16 -0.05 0.33 -0.1 0.14 -0.04 0.35 -0.1 0.12 -0.04 0.37 -0.11 0.1 -0.03 0.38 -0.11 0.08 -0.02 0.4 -0.12 0.06 -0.02 0.41 -0.13 0.04 -0.01 0.43 -0.13 0.02 -0.01 0.44 -0.14 0.01 -0 0.44 -0.14 0.01 -0 0.42 -0.13 0.03 -0.01 0.39 -0.13 0.05 -0.02 0.01 -0 0.42 -0.14 0.34 -0.11 0.08 -0.03 0.32 -0.11 0.09 -0.03 0.29 -0.1 0.11 -0.04 0.03 -0.01c0.23,-0.08 0.46,-0.16 0.69,-0.25l0.05 -0.02 0.23 -0.08 0.14 -0.05 0.2 -0.08 0.15 -0.06 0.18 -0.07 0.16 -0.06 0.07 -0.03 0.2 -0.08 0.06 -0.02 0.14 -0.06c-6.52,0.74 -31.07,3.43 -50.05,4.37 -1.26,2.49 -2.21,5.18 -2.78,8.02z"/>
   <path id="_134586632_6" class="fil5" d="M323.87 328.95c1.95,5.86 13.09,28.2 27.61,39.39 2.98,2.29 7.35,3.66 12.61,4.33 -20.43,-17.03 -31.23,-47.77 -33.8,-55.85 -0.2,0.05 -0.4,0.1 -0.58,0.15 -1.25,0.93 -5.63,10.72 -5.84,11.97z"/>
   <path id="_134586632_7" class="fil8" d="M323.87 328.95l0.05 0.14 0.05 0.14 0 0.01 0.05 0.14 0.06 0.15 0.01 0.02 0.05 0.14 0.06 0.16 0.01 0.03 0.12 0.32 0.02 0.04 0.01 0.02 0.12 0.3 0.02 0.05 0.01 0.02 0.13 0.32 0.03 0.07 0.06 0.13 0.09 0.2 0.03 0.08 0.05 0.13 0.09 0.21 0.04 0.1 0.05 0.12 0.15 0.34 0.05 0.11 0.1 0.23 0.06 0.13 0.05 0.1 0.11 0.24 0.07 0.15 0.04 0.09 0.11 0.25 0.08 0.17 0.04 0.08 0.12 0.26 0.09 0.19 0.03 0.07 0.13 0.26 0.03 0.06 0.1 0.21 0.13 0.27 0.11 0.23 0.02 0.04 0.14 0.28 0.12 0.25 0.02 0.03 0.25 0.49 0.03 0.07 0.01 0.01 0.15 0.29 0.15 0.29 0 0 0.15 0.3 0.16 0.3 0.01 0.02 0.15 0.28 0.16 0.31 0.02 0.04 0.14 0.27 0.17 0.31 0.03 0.05 0.31 0.57 0.04 0.07 0.13 0.25 0.18 0.32 0.05 0.09 0.13 0.23 0.18 0.33 0.06 0.11 0.12 0.22 0.19 0.33 0.07 0.13 0.05 0.08 0.26 0.45 0.09 0.15 0.02 0.03 0.36 0.62 0.02 0.04 0.1 0.17 0.2 0.34 0.03 0.05 0.15 0.25 0.31 0.52 0.04 0.07 0.08 0.13c0.21,0.35 0.42,0.69 0.63,1.04l0.16 0.26 0.06 0.09c2.75,-1.5 5.22,-3.47 7.33,-5.81 -5.21,-10.34 -8.36,-19.49 -9.6,-23.38 -0.15,0.03 -0.29,0.07 -0.43,0.11l-0.01 0 -0.01 0 0 0 -0.01 0 -0.01 0 -0.01 0 -0.01 0 -0.01 0 -0.01 0 -0.01 0 -0.01 0 -0.01 0 -0.01 0 -0.01 0 -0.01 0 -0.01 0 -0.01 0 -0.01 0 -0.01 0c-1.25,0.93 -5.63,10.72 -5.84,11.97z"/>
   <path id="_134586416_8" class="fil1" d="M367.14 373.59c0,0 -13.74,-7.72 -24.55,-28.5 0,0 1.84,14.8 12.9,29.16l6.61 1.52c0,0 4.94,-2.43 5.04,-2.18z"/>
   <path class="fil3" d="M424.02 329.13c0,5.87 -16.34,7.81 -35.34,5.66 -19,-2.15 -34.41,-7.8 -34.41,-12.63 0,-6.14 69.75,2.01 69.75,6.97z"/>
   <ellipse class="fil3" transform="matrix(0.972289 0.166661 -0 1 355.589 331.49)" rx="6.42" ry="3.21"/>
   <g>
    <circle class="fil3" cx="430.82" cy="345.63" r="8.86"/>
    <circle class="fil1" cx="430.02" cy="343.5" r="8.86"/>
    <circle class="fil2" cx="430.02" cy="343.5" r="4.25"/>
   </g>
   <g>
    <circle class="fil3" cx="198.91" cy="345.63" r="8.86"/>
    <circle class="fil1" cx="199.71" cy="343.5" r="8.86"/>
    <circle class="fil2" cx="199.71" cy="343.5" r="4.25"/>
   </g>
  </g>
 </g>
</svg>
