<?xml version="1.0" encoding="UTF-8"?>
<!DOCTYPE svg PUBLIC "-//W3C//DTD SVG 1.1//EN" "http://www.w3.org/Graphics/SVG/1.1/DTD/svg11.dtd">
<!-- Creator: CorelDRAW 2020 (64-Bit) -->
<svg xmlns="http://www.w3.org/2000/svg" xml:space="preserve" width="129.436mm" height="197.988mm" version="1.1" style="shape-rendering:geometricPrecision; text-rendering:geometricPrecision; image-rendering:optimizeQuality; fill-rule:evenodd; clip-rule:evenodd"
viewBox="0 0 886.74 1356.38"
 xmlns:xlink="http://www.w3.org/1999/xlink"
 xmlns:xodm="http://www.corel.com/coreldraw/odm/2003">
 <defs>
  <style type="text/css">
   <![CDATA[
    .fil0 {fill:none}
    .fil1 {fill:#501D33}
    .fil3 {fill:#AD8D60}
    .fil2 {fill:#DEDA81}
   ]]>
  </style>
 </defs>
 <g id="Слой_x0020_1">
  <metadata id="CorelCorpID_0Corel-Layer"/>
  <g id="_2674455370240">
   <rect id="_136889472" class="fil0" y="0" width="886.74" height="1356.38"/>
   <g>
    <g>
     <path id="_134650632" class="fil1" d="M493.68 473.43c-14.7,12.74 -38.16,47.07 -27.56,69.89 5.05,10.88 20.63,11.69 30.99,-0.33 0,0 22.99,10.82 41.09,-14.44 0,0 21.66,6.61 39.84,-16.71 32.12,16.25 48.83,-24.04 54.89,-43.02 0.69,-2.18 -0.74,-3.86 -2.38,-2.1 -17.32,0.73 -38.32,0.63 -57.25,-1.54 -10.27,-1.18 -17.83,-5.36 -28.66,-4.88 -18.49,0.83 -33,17.13 -48.63,13.84 1,-2.28 0.51,-3.38 -2.31,-0.72z"/>
     <path id="_134650560" class="fil2" d="M488.21 471.46c-7.18,8.62 -13.72,25.92 -15.61,40.85 -2.49,19.56 4.23,37.1 22.52,18.54 -0.42,-6.09 21.83,-43.6 23.29,-38.2 0.66,2.45 -3.85,7.31 -15.19,39.37 0,0 11.56,8.19 31.59,-11.52 6.5,-15.86 15.64,-27.97 17.41,-27.62 1.38,0.28 -2.75,8.2 -9.36,27.1 0,0 12.98,3.95 31.17,-15.31 7.68,-8.13 16.64,-18.99 17.7,-17.32 0.64,1 -1.77,9.21 -8.42,17.65 0,0 24.68,9.59 47.27,-38.27 -3.83,-12.24 -28.21,-8.9 -36.01,-3.28 0.94,-1.88 -9.37,-13.68 -30.85,-0.96 0,0 -10.16,-13.76 -30.65,-2.18 -16.95,-7.35 -32.39,-3.85 -44.87,11.14z"/>
     <path id="_134650488" class="fil3" d="M472.38 525.18c1.47,12.89 8.69,19.92 22.74,5.66 0,0 2.07,-5.91 6.19,-14.49 -7.08,4.9 -19.79,12.16 -28.92,8.82zm37.48 -9.77c-2.32,5.19 -4.56,10.72 -6.64,16.6 0,0 11.56,8.19 31.59,-11.52 0,0 2.66,-6.77 7.35,-15.68 -7.72,6.11 -23,16.41 -32.3,10.6zm39.03 -12.01c-2.21,4.97 -3.9,10.51 -6.03,16.57 0,0 12.98,3.95 31.17,-15.31 3.93,-4.17 7.68,-7.77 10.47,-11.19 -7.33,6.84 -27.63,15.2 -35.61,9.93zm42.21 -12.36c-2.15,5.05 -3.96,9.1 -7.79,13.96 0,0 23.93,9.3 46.24,-36.13 -5.54,7.73 -18.67,22.51 -38.45,22.18z"/>
    </g>
    <g>
     <path id="_134650632_0" class="fil1" d="M393.06 473.43c14.7,12.74 38.16,47.07 27.56,69.89 -5.05,10.88 -20.63,11.69 -30.99,-0.33 0,0 -22.99,10.82 -41.09,-14.44 0,0 -21.66,6.61 -39.84,-16.71 -32.12,16.25 -48.83,-24.04 -54.89,-43.02 -0.69,-2.18 0.74,-3.86 2.38,-2.1 17.32,0.73 38.32,0.63 57.25,-1.54 10.27,-1.18 17.83,-5.36 28.66,-4.88 18.49,0.83 33,17.13 48.63,13.84 -1,-2.28 -0.51,-3.38 2.31,-0.72z"/>
     <path id="_134650560_1" class="fil2" d="M398.54 471.46c7.18,8.62 13.72,25.92 15.61,40.85 2.49,19.56 -4.23,37.1 -22.52,18.54 0.42,-6.09 -21.83,-43.6 -23.29,-38.2 -0.66,2.45 3.85,7.31 15.19,39.37 0,0 -11.56,8.19 -31.59,-11.52 -6.5,-15.86 -15.64,-27.97 -17.41,-27.62 -1.38,0.28 2.75,8.2 9.36,27.1 0,0 -12.98,3.95 -31.17,-15.31 -7.68,-8.13 -16.64,-18.99 -17.7,-17.32 -0.64,1 1.77,9.21 8.42,17.65 0,0 -24.68,9.59 -47.27,-38.27 3.83,-12.24 28.21,-8.9 36.01,-3.28 -0.94,-1.88 9.37,-13.68 30.85,-0.96 0,0 10.16,-13.76 30.65,-2.18 16.95,-7.35 32.39,-3.85 44.87,11.14z"/>
     <path id="_134650488_2" class="fil3" d="M414.37 525.18c-1.47,12.89 -8.69,19.92 -22.74,5.66 0,0 -2.07,-5.91 -6.19,-14.49 7.08,4.9 19.79,12.16 28.92,8.82zm-37.48 -9.77c2.32,5.19 4.56,10.72 6.64,16.6 0,0 -11.56,8.19 -31.59,-11.52 0,0 -2.66,-6.77 -7.35,-15.68 7.72,6.11 23,16.41 32.3,10.6zm-39.03 -12.01c2.21,4.97 3.9,10.51 6.03,16.57 0,0 -12.98,3.95 -31.17,-15.31 -3.93,-4.17 -7.68,-7.77 -10.47,-11.19 7.33,6.84 27.63,15.2 35.61,9.93zm-42.21 -12.36c2.15,5.05 3.96,9.1 7.79,13.96 0,0 -23.93,9.3 -46.24,-36.13 5.54,7.73 18.67,22.51 38.45,22.18z"/>
    </g>
   </g>
  </g>
 </g>
</svg>
