<?xml version="1.0" encoding="UTF-8"?>
<!DOCTYPE svg PUBLIC "-//W3C//DTD SVG 1.1//EN" "http://www.w3.org/Graphics/SVG/1.1/DTD/svg11.dtd">
<!-- Creator: CorelDRAW 2020 (64-Bit) -->
<svg xmlns="http://www.w3.org/2000/svg" xml:space="preserve" width="161.909mm" height="176.791mm" version="1.1" style="shape-rendering:geometricPrecision; text-rendering:geometricPrecision; image-rendering:optimizeQuality; fill-rule:evenodd; clip-rule:evenodd"
viewBox="0 0 685.66 748.68"
 xmlns:xlink="http://www.w3.org/1999/xlink"
 xmlns:xodm="http://www.corel.com/coreldraw/odm/2003">
 <defs>
  <style type="text/css">
   <![CDATA[
    .fil0 {fill:none}
    .fil1 {fill:#501D33}
    .fil9 {fill:#525B75}
    .fil7 {fill:#65798E}
    .fil3 {fill:#8C8891}
    .fil10 {fill:#C8B99F}
    .fil2 {fill:#C9CDC7}
    .fil6 {fill:#D77D75}
    .fil4 {fill:#DFE2DF}
    .fil5 {fill:#FFCFA5}
    .fil8 {fill:white}
   ]]>
  </style>
 </defs>
 <g id="Слой_x0020_1">
  <metadata id="CorelCorpID_0Corel-Layer"/>
  <g id="_705913600">
   <g id="_209642856">
    <rect id="_135244968" class="fil0" width="685.66" height="748.68"/>
    <path id="_123309408" class="fil1" d="M499.18 77.66c70.71,31.73 128.66,154.37 133.83,218.97 5.92,74.01 5,119.05 -38.17,209.46 0,0 -9.86,18.92 -41.94,11.11 -14.11,0.99 -27.98,-3.22 -34.85,-13.07 -0.17,-0.24 -18.4,-3.03 -27.01,-11.41 -3.9,-3.8 -6.38,-7.18 -4.98,-14.09 1.84,-9.05 4.55,-20.13 4.55,-20.13 0,0 -15.95,-15.91 -13.34,-22.67 2.61,-6.77 35.24,-35.04 35.29,-35.31 22.39,-102.66 0.43,-190.22 -58.21,-260.96l-47.12 -62.39c23.67,-6.99 66.85,-10.78 91.95,0.48l0 -0 0 0 -0 -0z"/>
    <path id="_123309336" class="fil1" d="M187.38 77.66c-70.71,31.73 -128.66,154.37 -133.83,218.97 -5.92,74.01 -5,119.05 38.17,209.46 0,0 9.51,19.16 41.59,11.35 14.35,1.34 28.46,-4.53 35.32,-14.38 0.17,-0.24 18.29,-1.96 26.89,-10.34 3.9,-3.8 6.38,-7.18 4.98,-14.09 -1.84,-9.05 -4.55,-20.13 -4.55,-20.13 0,0 15.95,-15.91 13.34,-22.67 -2.61,-6.77 -35.24,-35.04 -35.29,-35.31 -22.39,-102.66 -0.43,-190.22 58.21,-260.96l47.12 -62.39c-23.67,-6.99 -66.85,-10.78 -91.95,0.48l0 -0 -0 0 0 -0z"/>
    <path id="_123309264" class="fil1" d="M214.07 388.86c-12.53,-76.16 -18.37,-206.53 -25.98,-266.2 13.44,-55.34 119.14,-38.37 155.15,-30.88 36.01,-7.48 141.71,-24.45 155.15,30.88 -7.61,59.67 -14.88,189.8 -27.41,265.96 -67.05,26.07 -189.86,26.31 -256.91,0.24l-0 0 0 -0 0 0z"/>
    <path id="_123309192" class="fil2" d="M225.01 383.42c-12.39,-80.8 -21.5,-171.35 -26.64,-251.95 10.4,-42.84 76.41,-64.66 142.96,-65.17l3.82 0c66.55,0.51 132.56,22.33 142.96,65.17 -5.14,80.6 -14.25,171.15 -26.64,251.95 -65.12,20.92 -171.34,20.92 -236.46,0l-0 -0 0 0z"/>
    <path id="_123309120" class="fil3" d="M225.01 383.42c-10.03,-65.42 -17.91,-137.23 -23.28,-204.98 0.65,-3.02 1.23,-4.79 1.72,-4.98l32.45 197.11c0,0 79.99,35.91 215.59,0.57l32.47 -201.5c0,0 0.36,2.34 0.97,6.44 -5.37,68.44 -13.32,141.15 -23.46,207.33 -65.12,20.92 -171.34,20.92 -236.46,0l0 0 0 0 0 -0z"/>
    <polygon id="_123309024" class="fil3" points="212.39,272.51 303.44,319.46 224.5,310.46 "/>
    <polygon id="_123308952" class="fil3" points="458.64,325.1 350.29,358.27 461.98,345.15 461.95,333.46 "/>
    <polygon id="_123308880" class="fil4" points="282.66,325.59 346.08,352.3 451.46,322.02 346.15,332.92 "/>
    <path id="_123308808" class="fil5" d="M492.07 174.07l-68.87 -95.3c46.91,-2.07 73.87,-0.04 108.01,34.98 48.56,49.8 83.47,124.93 92.17,194.47 8.74,69.99 -4.61,131.37 -37.01,194.83 0,0 -3.93,11.58 -28.72,8.72 0,0 7.21,-12.75 6.72,-13.85 -0.49,-1.1 -12.56,12.81 -12.56,12.81 0,0 -15.25,0.06 -27.7,-10.69 0,0 -0.05,-17.23 -1.13,-17.19 -1.08,0.04 -4.55,12.76 -4.55,12.76l-16.29 -4.3c-7.44,-3.5 -9.77,-4.05 -7.74,-13.27 1.54,-7.04 4.12,-18.91 9.79,-38.84 -1.56,-1.84 -5.35,6.81 -8.12,11.57 0,0 -8.92,-9.84 -8.53,-13.2 0.38,-3.36 31.6,-27.63 31.6,-27.63 25.23,-79.16 8.17,-173.73 -27.06,-235.86l0 -0 -0 0z"/>
    <path id="_123308736" class="fil6" d="M492.07 174.07l-1.72 -2.38c0.45,-0.25 0.9,-0.54 1.36,-0.76 0,0 75.02,85.12 50.31,208.87 9.1,-0.12 20.97,1.25 28.84,1.67 9.73,0.51 32.55,11.66 50.23,22.42 -2.49,13.65 -5.9,27.14 -10.23,40.58 -24.87,-19.14 -57.14,-27.81 -77.65,-31.61 -8.01,24.06 -19.93,49.3 -36.91,75.44 -2.68,-1.87 -3.24,-4.18 -1.91,-10.27 1.54,-7.04 4.12,-18.91 9.79,-38.84 -1.56,-1.84 -5.35,6.81 -8.12,11.57 0,0 -8.92,-9.84 -8.53,-13.2 0.34,-3.03 25.77,-23.07 30.76,-26.97l0.07 -0.06 0.77 -0.6c0.38,-1.19 0.75,-2.39 1.11,-3.58l0.08 -0.27c0.33,-1.11 0.66,-2.23 0.98,-3.35l0.15 -0.54c0.28,-1.01 0.56,-2.03 0.83,-3.04l0.24 -0.9c0.23,-0.86 0.45,-1.73 0.67,-2.59 0.13,-0.52 0.26,-1.03 0.38,-1.55 0.15,-0.63 0.3,-1.26 0.45,-1.89 0.21,-0.89 0.41,-1.78 0.61,-2.66l0.13 -0.59 0.09 -0.4c0.21,-0.96 0.42,-1.92 0.61,-2.88l0.15 -0.74 0.08 -0.4 0 0c14.87,-73.27 -2.1,-154.86 -33.63,-210.47l0 -0z"/>
    <path id="_123308664" class="fil7" d="M612.08 440.59l-0.71 0.77 -0.25 -0.23 0.11 0.61c0.16,0.01 0.32,0.03 0.48,0.05 0.12,-0.4 0.25,-0.8 0.37,-1.2zm-7.16 -206.73c4.12,11.19 7.68,22.52 10.62,33.85 -11.29,6.75 -18.87,23.4 -16.61,35.97l0.98 5.46c0.35,1.94 1.02,2.2 1.37,4.14 1.38,1.43 2.24,4.03 4.33,5.99 1.41,1.33 3.98,2.75 5.99,3.21 4.79,1.09 12.55,-0.43 11.56,-5.94l-0.22 -1.21c-0.15,-0.82 -0.29,-0.81 -0.58,-1.46 -1.22,0.57 -1.83,2.21 -3.92,2.58 -1.69,0.31 -3.68,-1.29 -4.05,-3.34 -0.51,-2.85 1.31,-4.93 4.04,-5.42 1.85,-0.33 3.53,0.03 4.97,0.88 0.73,5.85 1.29,11.64 1.71,17.38 -2.05,2.3 -4.94,3.97 -8.21,4.56l-0.91 0.16c-3.09,0.56 -6.22,0.58 -8.47,-0.04 1.88,4 11.75,6.64 18.19,5.79 0.19,4.79 0.28,9.54 0.26,14.26 -5.96,-1.09 -12.55,-1.7 -16.58,-0.98 1.32,7.35 9.88,16.61 10.06,17.6 0.06,0.36 -2.58,6.14 -2.11,9.15 -2.51,0.24 -6.95,-6.26 -9.5,-5.81l-0.61 0.11c-1.99,0.36 -1.58,5.17 -1.17,7.41 1.57,8.71 8.3,15.67 16.48,17 -0.36,2.39 -0.75,4.77 -1.17,7.14 -3.51,-0.66 -6.88,-1.86 -8.13,-1.63 -0.71,0.13 -1.12,0.72 -1,1.43 0.67,3.72 3.65,6.74 7.51,8.66 -1.89,9.2 -4.21,18.33 -6.94,27.43 -3.86,4.27 -9.5,8.42 -17.06,9.78l-0.3 0.06c-18.36,3.3 -23.47,-14.88 -32.15,-13.32l-2.12 0.38c-1.69,0.3 -3.93,2.55 -3.59,4.4l0.33 1.82c0.31,1.73 3.22,3.49 4.96,3.18l0.3 -0.05c1.11,-0.2 2.28,-1.27 2.1,-2.25l-0.22 -1.21c-1.4,0.65 -0.8,1.4 -1.91,1.59l-0.3 0.05c-0.73,0.13 -2.02,-0.76 -2.15,-1.49l-0.33 -1.82c-0.17,-0.97 1.16,-2.4 2.35,-2.61l1.82 -0.33c1.72,-0.31 4.17,2.29 4.57,4.5l0.06 0.3c0.65,3.59 -1.34,6.19 -5.03,6.85l-0.61 0.11c-4.64,0.84 -9.6,-2.88 -10.44,-7.52l-0.11 -0.61c-0.8,-4.44 2.07,-8.2 6.53,-9l3.03 -0.55c2.56,-0.46 6.48,0.97 8.23,1.91 2.02,1.08 5.47,4.57 6.15,4.9 1.12,-3.49 2.27,-6.69 7.41,-7.22 3.94,-0.4 7.77,1.01 8.54,5.29 0.46,2.58 -0.48,4.78 -3.13,5.26l-1.22 0.22c-0.94,0.17 -2.75,-1.35 -2.97,-2.59 -0.3,-1.64 0.72,-2.82 2.24,-3.22 -0.56,-1.28 -1.54,-2.23 -3.17,-1.94 -2.41,0.44 -3.44,3.52 -3.02,5.87 0.82,4.56 5.82,4.96 10.1,4.95 4.03,-0.01 9.59,-3.12 12.07,-4.68 5.57,-3.49 11.12,-12.04 9.67,-20.09l-0.17 -0.91c-0.69,-3.86 -5.87,-9.59 -9.44,-8.95 -2.92,0.53 -6.07,8.06 -5.59,10.71l0.38 2.12c1.11,6.16 5.6,8.92 8.77,12.2l-3.91 3.95c-2.56,-1.17 -5.32,-4.05 -7.32,-6.12 -1.52,-1.58 -4.7,-6.95 -6.87,-6.15l-8.2 2.95 -1.9 0.11c-8.03,1.44 -18.03,-1.28 -22.84,-4.58 -3.11,-2.14 -5.73,-3.79 -8.43,-6.58 -3.24,-3.36 -3.97,-5.7 -6.55,-9.28l2.79 -0.12 4.55 -0.89c3.77,8.74 17.34,17.24 28.73,15.19l1.52 -0.27c4.53,-0.81 8.21,-3.47 10.67,-5.86 1.62,-1.57 4.8,-7.38 4.33,-9.99l-0.27 -1.52c-0.12,-0.7 -0.37,-0.87 -1.07,-0.75 -1.9,0.34 -8.06,5.83 -12.89,6.7l-0.91 0.16c0.1,-1.23 2.34,-5.41 2.87,-7.3 0.67,-2.38 3.49,-4.07 5.14,-5.72 2.74,-2.74 5.71,-10.04 4.77,-15.27l-0.71 -3.94c-0.28,-1.55 -1.8,-5 -3.35,-4.72 -2.64,0.48 -8.14,11.5 -10.46,13.97 -2.28,2.43 -9.93,10.99 -13.45,11.62 -1.51,0.27 -4.73,-4.49 -5.2,-6.27 9.03,-4.24 22.17,-26.51 20.04,-38.36 -9.35,1.68 -19.99,9.39 -25.56,14.09 -6.42,5.43 -10.63,14.61 -8.61,25.87 -2.02,1.14 -2.8,2.33 -6.67,2.74l-0.84 -3.89c-0.84,-2.85 0.12,-10.83 0.58,-12.96 0.95,-4.4 2.61,-6.73 3.77,-10.38 -10.65,2.84 -18.46,19.3 -16.17,32.03 0.47,2.6 1.65,5.07 2.44,6.86 3.82,8.73 14.57,15.13 24.38,13.37l7.04 4.38c-1.44,0.37 -1.78,0.93 -3.52,1.25l-5.16 0.93c-4.05,0.73 -10.42,-0.5 -13.15,-1.7 -1.2,-0.53 -5.14,-2.52 -7.59,-4.29 -2.79,-2.02 -6.63,-7.42 -8.19,-10.2 -0.7,-1.25 -1.34,-2.57 -1.9,-4.03 4.34,-13.75 7.41,-27.95 9.33,-42.37 3.71,-3.87 8.19,-7.1 14.15,-9.67 -0.42,-2.08 -2.27,-2.11 -3.95,-2.72 -1.73,-0.63 -2.44,-1.32 -3.94,-2.35 -1.6,-1.11 -3.15,-2.2 -4.42,-3.64 0.42,-6.23 0.63,-12.49 0.66,-18.74 1.01,-0.71 2.21,-1.21 3.62,-1.47l1.21 -0.22c4.03,-0.72 8.85,2.19 9.56,6.11l0.16 0.91c0.49,2.7 -1.3,5.87 -3.87,6.33l-1.21 0.22c-1.59,0.28 -3.58,-0.76 -3.88,-2.43l-0.17 -0.91c-0.26,-1.47 0.53,-2.6 1.99,-2.86l1.21 -0.22c1.74,-0.31 1.47,0.6 2.95,0.72 -1.42,-1.96 -1.9,-3.73 -5.57,-3.07l-0.3 0.05c-2.88,0.52 -4.31,3.9 -3.82,6.64l0.22 1.21c1.15,6.42 12.76,10.23 19.78,8.97l3.34 -0.6c8.21,-1.48 14.75,-6.93 17.18,-12.48 -2.39,1.03 -3.73,2.24 -7.31,2.88l-1.21 0.22c-7.18,1.29 -14.46,-2.03 -15.67,-8.77l-0.33 -1.82c-0.81,-4.5 1.58,-9.37 6,-10.16l0.91 -0.16c2.26,-0.41 4.7,1.75 5.12,4.09 0.31,1.73 -1.47,4.02 -3.29,4.35 -1.33,0.24 -3.04,-0.76 -3.97,-1.16 -1.09,3.93 2.71,7.34 6.52,6.65l2.73 -0.49c3.79,-0.68 7.15,-5.05 8.32,-7.76 1.62,-3.75 2.21,-6.89 1.21,-12.43 -3.24,-18.02 -19.66,-34.66 -37,-31.55 -2.48,0.45 -5.22,1.09 -7.7,2.2 -0.32,-2.24 -0.66,-4.48 -1.02,-6.71 1.46,-0.69 3.9,-2.07 7.63,-3.15 1.2,-0.35 1.91,-0.63 3.62,-0.94l2.12 -0.38c-0.58,-3.22 -3.22,-5.73 -3.71,-8.41l-0.49 -2.73c-0.27,-1.5 4.36,-2.35 6.1,-2.66l1.52 -0.27c1,5.55 6.75,10.06 12.28,9.06l0.91 -0.16c1.96,-0.35 3.04,-2.28 2.68,-4.24 -0.87,-4.81 -8.95,-7.16 -14.27,-6.2l-3.34 0.6c-6.76,1.22 -14,5.52 -16.56,10.95 -0.49,-2.59 -1.01,-5.16 -1.55,-7.72 4.71,-4.72 10.59,-8.14 17.02,-9.29l6.07 -1.09c2.76,-0.49 5.28,-0.23 7.56,-0.18 1.93,0.04 5.86,0.9 6.94,0.7 1.9,-0.34 4.4,-3.9 5,-5.28l7.3 2.05c-1.31,3.03 -4.39,5.43 -3.49,10.42l0.33 1.82c0.54,2.98 4.56,6.38 7.93,5.78 2.84,-0.51 4.79,-4.75 4.26,-7.65l-0.38 -2.12c-0.91,-5.07 -5.77,-7.9 -9.35,-9.47 -2.39,-1.05 -10.76,-3.2 -13.82,-2.65l-4.25 0.76c-2.09,0.38 -5.96,2.6 -7.28,3.7 -1.32,1.09 -6.45,1.91 -8.86,2.34 2.56,-5.86 9.98,-10.88 18.75,-12.45l1.82 -0.33c14.11,-2.54 26.09,8.77 29.66,8.13 2.42,-0.44 8.14,-4.28 12.86,-5.13 1.69,0.74 3.77,2.9 4.37,5.16 -5.46,0.98 -12.41,5.87 -11.52,10.84 0.35,1.97 2.04,3.39 3.99,3.04l0.91 -0.16c4.56,-0.82 9.04,-7.18 8.32,-11.2l-0.38 -2.12c-1.03,-5.72 -9.15,-9.62 -15.01,-8.57l-2.43 0.44c-3.58,0.64 -5.16,2.23 -8.22,3.05l-7.29 -3.16c3.64,-1.76 5.67,-4.06 10.84,-4.99l3.95 -0.71c5.04,-0.91 10.71,0.04 15.52,2.36zm20.78 128.87c-0.45,10.35 -1.42,20.57 -2.89,30.68 -1.76,-1.78 -3.07,-5.39 -3.47,-7.61l-0.76 -4.25c-1.25,-6.94 1.64,-14.95 7.13,-18.83zm-95.4 -57.45c-0.13,-1.78 -0.28,-3.56 -0.44,-5.33 1.37,-0.58 2.01,-1.58 1.66,-3.56 -0.84,0.39 -1.18,1 -1.85,1.41 -0.26,-2.71 -0.55,-5.42 -0.88,-8.12l0.57 -0.1c3.25,-0.59 7.02,2.43 7.63,5.83 0.69,3.86 -2.59,8.46 -6.68,9.87zm41.07 99.48c-6.42,-0.33 -13.68,-6.37 -15.08,-14.2l-0.16 -0.91c-0.75,-4.18 0.44,-9.16 4.49,-9.89 2.73,-0.49 5.83,1.37 7.88,2.03 0.65,-0.63 3.74,-5.34 3.62,-5.97 -0.41,-2.28 -8.84,-3.42 -12.4,-2.78 -10.98,1.98 -12.96,14.39 -9.03,24.52 3.06,7.88 10.02,14.44 17.06,13.17 0.89,-0.16 3.31,-4.98 3.63,-5.97zm-17.49 0.33c-1.38,-2.31 -2.75,-4.62 -4.13,-6.93 -6.53,1.91 -17.24,2.26 -24.09,-0.51 0.12,1.33 0.24,2.67 0.36,4 0.2,1.11 0.4,2.23 0.6,3.34 0.89,4.94 22.44,1.28 26.11,0.63 0.48,-0.09 0.81,-0.31 1.15,-0.52zm27.77 -12.82l-0.93 -5.16c-0.21,-1.16 0.08,-0.13 -0.47,-0.86 -0.41,0.4 -5.72,6.88 -5.78,7.13 -0.81,2.93 0.3,6.36 -1.23,10.29 -1.93,4.95 -6.64,11.74 -11.74,14.13 0.79,1.69 5.08,2.88 6.88,3.46 6.71,-5.25 15.25,-17.96 13.27,-29z"/>
    <path id="_123308592" class="fil8" d="M503.4 91.33c7.47,4.33 14.91,9.99 22.66,17.34 1.7,1.61 3.41,3.3 5.14,5.08 48.56,49.8 83.47,124.93 92.17,194.47 4.18,33.47 3.31,64.97 -2.29,95.67 -3.38,-2.05 -6.94,-4.12 -10.57,-6.13 21.19,-119.75 -26.92,-235.62 -107.12,-306.42l0 -0zm117.68 312.59c-1.23,6.76 -2.69,13.48 -4.38,20.17 1.69,-6.69 3.15,-13.41 4.38,-20.17zm-4.54 20.82c-0.98,3.85 -2.03,7.68 -3.15,11.52 1.13,-3.83 2.18,-7.67 3.15,-11.52zm-3.34 12.15c-0.2,0.67 -0.4,1.33 -0.6,2 0.2,-0.67 0.4,-1.33 0.6,-2zm-0.88 2.92c-0.2,0.65 -0.4,1.3 -0.6,1.96 0.2,-0.65 0.41,-1.3 0.6,-1.96zm-0.87 2.79c-0.19,0.61 -0.39,1.23 -0.59,1.84 0.2,-0.61 0.39,-1.23 0.59,-1.84zm-0.59 1.86c-6.28,19.54 -14.48,38.96 -24.49,58.58 0,0 -0.34,0.98 -1.42,2.3 -7.16,-1 -14.4,-2.62 -21.5,-4.64 0.65,-1.43 1.05,-2.51 0.92,-2.79 -0.14,-0.33 -1.31,0.67 -2.88,2.23 -13.81,-4.07 -27,-9.55 -37.89,-14.68 -0.16,-1.58 -0.36,-2.62 -0.63,-2.61 -0.24,0.01 -0.57,0.74 -0.92,1.88 -7.19,-3.43 -13.3,-6.67 -17.82,-9.17 0.38,-0.64 0.76,-1.28 1.14,-1.92 31.88,8.97 75.98,13.47 75.98,13.47 7.98,-16.42 14.47,-32.96 19.56,-49.52 3.41,2.13 6.74,4.42 9.95,6.89l-0 0zm-114.85 26.33l-0 -0 0.01 -0.06 0 0 -0.01 0.06z"/>
    <g>
     <path id="_123308520" class="fil9" d="M534.82 252.35c0.61,1.92 1.21,3.86 1.79,5.83 -4.92,1.99 -9.37,5.39 -11.26,9.4l-0.21 -1.09 -0.02 -0.12 -0 -0.01 -0.22 -1.15c-0.14,-0.7 -0.28,-1.4 -0.42,-2.1l-0.02 -0.12 -0.02 -0.12 -0.02 -0.12 -0 -0.01 -0.13 -0.65c-0.15,-0.74 -0.31,-1.49 -0.47,-2.23 3.2,-3.2 6.93,-5.81 11.02,-7.51zm2.12 6.96c1.03,3.56 2,7.23 2.91,10.97 -0.93,-2.59 -2.92,-4.74 -3.33,-7.04l-0.49 -2.73c-0.08,-0.46 0.3,-0.86 0.91,-1.21zm3.24 12.36c0.67,2.85 1.31,5.75 1.9,8.7 -2.14,-0.2 -4.32,-0.12 -6.51,0.27 -2.48,0.45 -5.22,1.09 -7.7,2.2 -0.13,-0.93 -0.27,-1.85 -0.41,-2.78l-0.15 -1 -0.02 -0.11 -0.02 -0.1 -0.02 -0.11c-0.1,-0.63 -0.2,-1.26 -0.3,-1.88l-0.02 -0.1 -0.02 -0.1 -0.02 -0.1 -0.07 -0.42c1.46,-0.69 3.9,-2.07 7.63,-3.15 1.2,-0.35 1.91,-0.63 3.62,-0.94l2.09 -0.37zm6.01 78.05c-0.77,9.75 -2.13,19.78 -4.18,30.09 1.13,-0.01 2.31,-0.01 3.52,0.02 -1.69,4.45 -2.28,9.66 -1.24,15.41 -2.02,1.14 -2.8,2.33 -6.67,2.74l-0.84 -3.89c-0.84,-2.85 0.12,-10.83 0.58,-12.96 0.95,-4.4 2.61,-6.73 3.77,-10.38 -10.65,2.84 -18.46,19.3 -16.17,32.03 0.47,2.6 1.65,5.07 2.44,6.86 1.07,2.44 2.67,4.69 4.65,6.64 -0.84,2.42 -1.72,4.86 -2.64,7.3l-0.01 -0.01c-2.79,-2.02 -6.63,-7.42 -8.19,-10.2 -0.7,-1.25 -1.33,-2.57 -1.9,-4.03 0.31,-1 0.62,-2 0.92,-3l0.08 -0.27c0.26,-0.85 0.5,-1.71 0.75,-2.56l0 -0 0.23 -0.78 0.15 -0.54 0.14 -0.5 0.01 -0.05 0.01 -0.02 0.01 -0.05 0 -0.01 0 -0.01 0.07 -0.25 0 -0.02 0.09 -0.33 0.01 -0.05 0 -0 0 -0.02 0.1 -0.36 0.01 -0.05 0.01 -0.05 0.04 -0.14 0.01 -0.03 0.04 -0.15 0 -0 0.01 -0.05 0.01 -0.05 0.01 -0.05 0 -0.01 0.05 -0.18 0.01 -0.05 0.01 -0.05 0.01 -0.05 0.01 -0.02 0.01 -0.03 0.01 -0.05 0.01 -0.05 0.01 -0.05 0.01 -0.05 0.01 -0.05 0.01 -0.05 0.01 -0.05 0.01 -0.05 0 -0.01 0.01 -0.04 0.24 -0.9 0.02 -0.08 0.02 -0.07 0 -0.01 0.01 -0.04 0.12 -0.44 0.01 -0.04 0.07 -0.28 0.01 -0.04 0.03 -0.12 0 -0 0.01 -0.04 0.03 -0.11 0.01 -0.05 0.01 -0.04 0.01 -0.04 23.32 -47.11zm4.27 30.3c2.72,0.14 5.5,0.35 8.2,0.56 -2.48,1.73 -3.16,5.67 -2.54,9.09l0.16 0.91c1.41,7.83 8.66,13.87 15.08,14.2 -0.32,1 -2.74,5.81 -3.63,5.97 -7.04,1.27 -14,-5.3 -17.06,-13.17 -2.3,-5.92 -2.58,-12.61 -0.23,-17.55zm16.52 1.21c0.65,0.05 1.27,0.09 1.89,0.13 -0.16,0.21 -0.29,0.36 -0.37,0.45 -0.46,-0.15 -0.97,-0.35 -1.51,-0.58zm3.17 0.21l0.7 0.04c2.41,0.13 5.63,0.91 9.36,2.17 -1.26,2.02 -2.39,3.81 -3.16,4.63 -2.28,2.43 -9.93,10.99 -13.45,11.62 -1.51,0.27 -4.73,-4.49 -5.2,-6.27 3.67,-1.72 8.02,-6.43 11.75,-12.2zm21.3 6.71c8.01,3.6 16.9,8.26 25.08,13.04 -1.48,-0.36 -2.66,-0.62 -3.3,-0.5 -0.71,0.13 -1.12,0.72 -1,1.43 0.67,3.72 3.64,6.74 7.5,8.66 -1.89,9.2 -4.21,18.33 -6.94,27.44 -1.33,1.47 -2.87,2.93 -4.63,4.26 -1.5,-1.09 -3.03,-2.14 -4.57,-3.16l0.16 -0.1c5.57,-3.49 11.12,-12.04 9.67,-20.09l-0.17 -0.91c-0.69,-3.86 -5.87,-9.59 -9.44,-8.95 -2.92,0.53 -6.07,8.06 -5.59,10.71l0.38 2.12c1.11,6.16 5.6,8.92 8.77,12.2l-3.91 3.95c-2.56,-1.17 -5.32,-4.05 -7.32,-6.12 -1.52,-1.58 -4.7,-6.95 -6.87,-6.15l-6.06 2.18c-4.44,-2.02 -8.9,-3.81 -13.3,-5.41 2.52,0.43 5.07,0.48 7.51,0.04l1.52 -0.27c4.53,-0.81 8.21,-3.47 10.67,-5.86 1.62,-1.57 4.8,-7.38 4.33,-9.99l-0.27 -1.52c-0.12,-0.7 -0.37,-0.87 -1.07,-0.75 -1.9,0.34 -8.06,5.83 -12.89,6.7l-0.91 0.16c0.1,-1.23 2.34,-5.41 2.87,-7.3 0.67,-2.38 3.49,-4.07 5.14,-5.72 1.9,-1.9 3.91,-6.01 4.65,-10.09zm20.61 52.46l-0.37 1.19c-0.16,-0.02 -0.31,-0.03 -0.47,-0.05l-0.11 -0.61 0.25 0.23 0.71 -0.76zm-20.83 -8.55c-1.25,-0.65 -2.5,-1.28 -3.76,-1.9 1.46,0.27 2.78,0.88 3.76,1.9zm-29.92 -12.23c-5.35,-1.69 -10.53,-3.09 -15.39,-4.26 -1.72,-2.26 -2.61,-4.26 -4.57,-6.97l2.79 -0.12 4.55 -0.89c2.01,4.67 6.83,9.28 12.62,12.23zm-38.14 -24.16l0 -0.01 0 -0.01c2.36,-9.41 4.17,-19 5.46,-28.68 3.71,-3.87 8.19,-7.1 14.15,-9.67 -0.42,-2.08 -2.27,-2.11 -3.95,-2.72 -1.73,-0.63 -2.44,-1.32 -3.94,-2.35 -1.6,-1.11 -3.15,-2.2 -4.42,-3.64 0.42,-6.23 0.63,-12.49 0.66,-18.74 1.01,-0.71 2.21,-1.21 3.62,-1.47l1.21 -0.22c4.03,-0.72 8.85,2.19 9.56,6.11l0.16 0.91c0.49,2.7 -1.3,5.87 -3.87,6.33l-1.21 0.22c-1.59,0.28 -3.58,-0.76 -3.88,-2.43l-0.17 -0.91c-0.26,-1.47 0.53,-2.6 1.99,-2.86l1.21 -0.22c1.74,-0.31 1.47,0.6 2.95,0.72 -1.42,-1.96 -1.9,-3.73 -5.57,-3.07l-0.3 0.05c-2.88,0.52 -4.31,3.9 -3.82,6.64l0.22 1.21c0.82,4.58 6.95,7.82 12.95,8.86l-23.02 45.95zm6.74 -95.18l-0.01 -0.17 -0.03 -0.36c1.37,-0.58 2.01,-1.58 1.66,-3.56 -0.84,0.39 -1.18,1 -1.85,1.41 -0.26,-2.71 -0.55,-5.42 -0.88,-8.12l0.57 -0.1c3.25,-0.59 7.02,2.43 7.63,5.83 0.69,3.86 -2.59,8.46 -6.68,9.87 -0.12,-1.6 -0.25,-3.2 -0.39,-4.8zm23.97 104.61c-1.38,-2.31 -2.75,-4.62 -4.13,-6.93 -6.53,1.91 -17.24,2.26 -24.09,-0.51 0.12,1.33 0.24,2.67 0.36,4 0.2,1.11 0.4,2.23 0.6,3.34 0.89,4.94 22.44,1.28 26.11,0.63 0.48,-0.09 0.81,-0.31 1.15,-0.52zm27.77 -12.82l-0.93 -5.16c-0.21,-1.16 0.08,-0.13 -0.47,-0.86 -0.41,0.4 -5.72,6.88 -5.78,7.13 -0.81,2.93 0.3,6.36 -1.23,10.29 -1.93,4.95 -6.64,11.74 -11.74,14.13 0.79,1.69 5.08,2.88 6.88,3.46 6.71,-5.25 15.25,-17.96 13.27,-29z"/>
    </g>
    <path id="_123308448" class="fil5" d="M493.38 437.7c0,0 5.12,-10.59 18.21,-17.25 13.09,-6.66 -9.04,17.49 -18.21,17.25z"/>
    <path id="_123308376" class="fil6" d="M587.76 500.27c-0.46,0.93 -0.93,1.85 -1.4,2.77 0,0 -3.93,11.58 -28.72,8.72 0,0 7.21,-12.75 6.72,-13.86 -0.49,-1.1 -12.56,12.82 -12.56,12.82 0,0 -15.25,0.05 -27.7,-10.69 0,0 -0.05,-17.23 -1.13,-17.19 -1.08,0.04 -3.71,14.07 -3.71,14.07 -8.4,-1.12 -18.04,-4.18 -23.7,-9.2 -2.03,-1.79 -2.36,-4.22 -1.16,-9.69 0.51,-2.35 1.14,-5.23 1.96,-8.77 47.01,21.12 77.07,28.48 91.41,31.02z"/>
    <path id="_123308304" class="fil6" d="M585.16 278.47c0,0 0,15.74 21.22,24.32 0,0 -14.07,-0.48 -20.03,-6.2 -5.96,-5.72 -1.19,-18.12 -1.19,-18.12z"/>
    <path id="_123308232" class="fil2" d="M622.25 340.83c0,0 0.95,38.88 -13,92.52 -28.59,-22.53 -67.79,-29.88 -87.96,-32.24 8.22,-30.03 26.62,-125.21 -32.46,-229.43l-68.87 -95.3c46.91,-2.07 73.87,-0.04 108.01,34.98 56.86,58.31 95.02,151.34 94.27,229.47l0 -0 0 -0 -0 0z"/>
    <path id="_123308160" class="fil4" d="M612.77 292.64c0,0 -38.32,-1.07 -37.6,-1.07 0.71,0 36.29,-6.9 36.29,-6.9l1.31 7.97z"/>
    <polygon id="_123308088" class="fil4" points="536.58,250.49 594.28,226.41 592.13,219.5 537.3,246.92 "/>
    <path id="_123308016" class="fil4" d="M626.77 341.78c0,0 1.67,40.07 -12.28,93.71 -2.65,-2.09 -10.64,-6.2 -13.46,-8.04 11.06,-43.48 15.39,-94.9 4.4,-148.77 -11.27,-55.25 -40.86,-118.66 -95.99,-183.66 6.05,4.42 12.76,9.15 19.13,15.68 61.63,55.45 98.95,152.95 98.2,231.08l0 -0 -0 0z"/>
    <path id="_123307944" class="fil3" d="M617.82 421.74c-0.94,4.12 -1.97,8.35 -3.09,12.68 -28.59,-22.53 -73.27,-30.95 -93.44,-33.31 0.98,-3.58 2.1,-8.09 3.22,-13.43 47.19,4.44 80.92,23.84 93.3,34.06l0 0 0 0z"/>
    <path id="_123307872" class="fil3" d="M521.29 401.11c8.22,-30.03 26.63,-125.21 -32.45,-229.43l-1.43 -1.98c69.27,70.73 69.15,163.65 51.19,234.1 -6.59,-1.27 -12.49,-2.12 -17.31,-2.68l0 0 0 -0z"/>
    <path id="_123307800" class="fil1" d="M615.69 437.88l2.23 -5.48c0.9,-2.2 -41.95,-30.33 -97.74,-36.71l-1.2 5.16c19.61,2.09 66.91,12.83 96.72,37.03l0 0z"/>
    <path id="_123307728" class="fil4" d="M612.4 394.26c0,0 -11.44,-12.4 -50.55,-22.65 0,0 28.85,-1.19 51.5,6.68 0,0 0.24,3.34 0.24,5.25 0,1.91 -1.67,10.25 -1.19,10.73z"/>
    <path id="_123307656" class="fil1" d="M521.56 373.28c0,0 29.56,-3.1 63.66,4.53 0,0 -17.64,-10.97 -61.04,-12.4l-2.62 7.87z"/>
    <path id="_123307584" class="fil1" d="M618.97 425.32c0,0 -27.67,-19.41 -60.36,-31.75 0,0 32.23,6.51 63.67,24.5l-3.31 7.24z"/>
    <polygon id="_123307512" class="fil1" points="513.05,255.9 600.39,211.99 601.55,216.16 516.55,260.51 "/>
    <path id="_123307440" class="fil1" d="M588.37 232.54c0,0 -8.73,-9.39 -23.22,-11.65 6.39,6.94 13.55,11.26 23.22,11.65z"/>
    <path id="_123307368" class="fil1" d="M549.58 253.75c0,0 4.99,-11.18 1.57,-24.75 -3.71,8.2 -4.84,16.12 -1.57,24.75z"/>
    <polygon id="_123307272" class="fil1" points="621.46,280.06 574.01,291.74 622.17,286.73 "/>
    <path id="_123307176" class="fil5" d="M194.49 174.07l68.87 -95.3c-46.91,-2.07 -73.87,-0.04 -108.01,34.98 -48.56,49.8 -83.47,124.93 -92.17,194.47 -8.74,69.99 4.61,131.37 37.01,194.83 0,0 3.93,11.58 28.72,8.72 0,0 -7.21,-12.75 -6.72,-13.85 0.49,-1.1 12.56,12.81 12.56,12.81 0,0 15.25,0.06 27.7,-10.69 0,0 0.05,-17.23 1.13,-17.19 1.08,0.04 4.55,12.76 4.55,12.76l16.29 -4.3c7.44,-3.5 9.77,-4.05 7.74,-13.27 -1.54,-7.04 -4.12,-18.91 -9.79,-38.84 1.56,-1.84 5.35,6.81 8.12,11.57 0,0 8.92,-9.84 8.53,-13.2 -0.38,-3.36 -31.6,-27.63 -31.6,-27.63 -25.23,-79.16 -8.17,-173.73 27.06,-235.86l0 -0 0 0z"/>
    <path id="_123307104" class="fil8" d="M183.16 91.33c-9.1,5.28 -18.17,12.53 -27.81,22.41 -48.56,49.8 -83.47,124.93 -92.17,194.47 -2.25,18.05 -3.04,35.52 -2.41,52.6 1.82,49.18 15.37,95.13 39.41,142.23 0,0 0.34,0.98 1.42,2.3 7.16,-1 14.4,-2.62 21.5,-4.64 -0.65,-1.43 -1.05,-2.51 -0.92,-2.79 0.14,-0.33 1.31,0.67 2.88,2.23 13.81,-4.07 27,-9.55 37.89,-14.68 0.16,-1.58 0.36,-2.62 0.63,-2.61 0.24,0.01 0.57,0.74 0.92,1.88 14.35,-6.85 24.39,-12.91 26.04,-13.93l-0.01 -0.06c-31.74,10.9 -85.33,16.36 -85.33,16.36 -72.31,-148.74 -22.18,-307.36 77.95,-395.76l0 0 0 0z"/>
    <path id="_123307032" class="fil7" d="M83.03 387.84l-4.1 6.23c1.96,3.25 3.87,7.81 2.03,12.12l-0.85 1.98c-1.16,2.71 -5.11,5.19 -7.77,4.05 -1.39,-0.59 -2.45,-1.9 -3.11,-3.42l-2.15 3.27c2.33,11.07 5.27,22.04 8.81,32.98l0.21 0.14c9.15,-8.2 22.93,-12.84 33.06,-8.5l2.84 1.21c12.27,5.25 13.85,11.08 11.82,15.08 -3.22,6.33 -16.06,8.53 -13.67,0.23 7.98,5.85 10.58,-3.19 4.49,-5.79l-0.28 -0.12c-3,-1.28 -7.32,-0.13 -8.54,2.72l-0.85 1.98c-1.15,2.69 2.47,9.1 4.46,9.95l2.55 1.09c4.7,2.01 10.25,-0.22 13.61,-4.3 2.06,-2.49 3.51,-5.88 4.58,-8.86 5.05,-14.1 -2.29,-34.43 -14.44,-40.9l-0.68 6.1c2.61,3.23 4.56,3.99 6.18,8.09 1.09,2.76 2.31,6.56 0.72,10.28 -0.24,0.57 -1.4,1.41 -1.86,1.22 -2.19,-0.94 -3.96,-3.06 -5.95,-4.19 -1.23,-0.69 -7.12,-2.89 -6.57,-4.18l0.12 -0.28c0.79,-1.85 3.95,-3.76 5.38,-7.09l0.48 -1.13c4.23,-9.89 -3.64,-23.01 -13.79,-27.35l-3.69 -1.58c-4.83,-2.07 -7.79,-1.26 -11.8,-1.79l4.35 6.65c3.01,1 5.2,0.55 8.54,1.98l2.27 0.97c5.47,2.34 10.11,10.07 7.83,15.41l-0.85 1.99c-1.61,3.76 -8.85,6.6 -13.11,4.78l-0.85 -0.37c-1.83,-0.78 -2.45,-2.89 -1.67,-4.73 1.99,-4.64 10.48,-4.91 15.58,-2.72 0.74,-2.22 0.19,-5.17 -0.82,-6.72 -4.41,-1.88 -11.3,-1.81 -13.56,-2.78 -2.08,-0.89 -4.35,-7.49 -8.97,-13.7z"/>
    <path id="_123306960" class="fil6" d="M194.49 174.07l1.72 -2.38c-0.45,-0.25 -0.9,-0.54 -1.36,-0.76 0,0 -75.02,85.12 -50.31,208.87 -9.1,-0.12 -20.97,1.25 -28.84,1.67 -9.73,0.51 -32.55,11.66 -50.23,22.42 2.49,13.65 5.9,27.14 10.23,40.58 24.87,-19.14 57.14,-27.81 77.65,-31.61 8.01,24.06 19.93,49.3 36.91,75.44 2.68,-1.87 3.24,-4.18 1.91,-10.27 -1.54,-7.04 -4.12,-18.91 -9.79,-38.84 1.56,-1.84 5.35,6.81 8.12,11.57 0,0 8.92,-9.84 8.53,-13.2 -0.34,-3.03 -25.77,-23.07 -30.76,-26.97l-0.07 -0.06 -0.77 -0.6c-0.38,-1.19 -0.75,-2.39 -1.11,-3.58l-0.08 -0.27c-0.33,-1.11 -0.66,-2.23 -0.98,-3.35l-0.15 -0.54c-0.28,-1.01 -0.56,-2.03 -0.83,-3.04l-0.24 -0.9c-0.23,-0.86 -0.45,-1.73 -0.67,-2.59 -0.13,-0.52 -0.26,-1.03 -0.38,-1.55 -0.15,-0.63 -0.3,-1.26 -0.45,-1.89 -0.21,-0.89 -0.41,-1.78 -0.61,-2.66l-0.13 -0.59 -0.09 -0.4c-0.21,-0.96 -0.42,-1.92 -0.61,-2.88l-0.15 -0.74 -0.08 -0.4 -0 0c-14.87,-73.27 2.1,-154.86 33.63,-210.47l-0 -0z"/>
    <path id="_123306888" class="fil9" d="M94.68 388.33c-2.38,1.07 -4.83,2.24 -7.31,3.47l1.26 1.93c3.01,1 5.2,0.55 8.54,1.98l2.27 0.97c5.47,2.34 10.11,10.07 7.83,15.41l-0.85 1.99c-1.61,3.76 -8.85,6.6 -13.11,4.78l-0.85 -0.37c-1.83,-0.78 -2.45,-2.89 -1.67,-4.73 1.99,-4.64 10.48,-4.91 15.58,-2.72 0.74,-2.22 0.19,-5.17 -0.82,-6.72 -4.41,-1.88 -11.3,-1.81 -13.56,-2.78 -1.56,-0.67 -3.23,-4.56 -5.93,-9.09 -2.07,1.04 -4.16,2.13 -6.25,3.24 1.56,3.06 2.68,6.87 1.12,10.51l-0.85 1.98c-1.16,2.71 -5.11,5.19 -7.77,4.05 -1.39,-0.59 -2.45,-1.9 -3.11,-3.42l-2.15 3.27c0.11,0.52 0.22,1.04 0.33,1.56l0.1 0.46 0.01 0.06 0.01 0.05 0.22 0.99 0.04 0.18 0.08 0.34 0.07 0.29 0.11 0.48 0.03 0.15 0.02 0.1 0.12 0.52 0 0.01 0.12 0.5 0.03 0.13 0.09 0.39 0.06 0.25 0.3 1.27 0.01 0.03 0.12 0.52 0.02 0.09 0.1 0.43 0.05 0.2 0.08 0.31 0.23 0.96 0.02 0.08c0.5,2.03 1.02,4.05 1.56,6.07l0.03 0.12 0.02 0.07c0.73,2.72 1.5,5.44 2.3,8.16l0.02 0.05c0.75,2.52 1.53,5.04 2.34,7.56 9.86,-7.58 20.88,-13.53 31.87,-18.17l0 -0 0.12 -0.28c0.79,-1.85 3.95,-3.76 5.38,-7.09l0.48 -1.13c4.23,-9.89 -3.64,-23.01 -13.79,-27.35l-3.69 -1.58c-0.48,-0.21 -0.95,-0.39 -1.4,-0.54zm25.73 33.08c1.92,-0.66 3.83,-1.28 5.72,-1.86 -2.72,-4.59 -6.28,-8.38 -10.4,-10.57l-0.68 6.1c2.19,2.71 3.91,3.68 5.37,6.33z"/>
    <path id="_123306816" class="fil5" d="M193.18 437.7c0,0 -5.12,-10.59 -18.21,-17.25 -13.09,-6.66 9.04,17.49 18.21,17.25z"/>
    <path id="_123306744" class="fil6" d="M98.8 500.27c0.46,0.93 0.93,1.85 1.4,2.77 0,0 3.93,11.58 28.72,8.72 0,0 -7.21,-12.75 -6.72,-13.86 0.49,-1.1 12.56,12.82 12.56,12.82 0,0 15.25,0.05 27.7,-10.69 0,0 0.05,-17.23 1.13,-17.19 1.08,0.04 3.71,14.07 3.71,14.07 8.4,-1.12 18.04,-4.18 23.7,-9.2 2.03,-1.79 2.36,-4.22 1.16,-9.69 -0.51,-2.35 -1.14,-5.23 -1.96,-8.77 -47.01,21.12 -77.07,28.48 -91.41,31.02z"/>
    <path id="_123306672" class="fil6" d="M101.4 278.47c0,0 0,15.74 -21.22,24.32 0,0 14.07,-0.48 20.03,-6.2 5.96,-5.72 1.19,-18.12 1.19,-18.12z"/>
    <path id="_123306600" class="fil2" d="M64.31 340.83c0,0 -0.95,38.88 13,92.52 28.59,-22.53 67.79,-29.88 87.96,-32.24 -8.22,-30.03 -26.62,-125.21 32.46,-229.43l68.87 -95.3c-46.91,-2.07 -73.87,-0.04 -108.01,34.98 -56.86,58.31 -95.02,151.34 -94.27,229.47l0 -0 0 -0 0 0z"/>
    <path id="_123306528" class="fil4" d="M72.06 435.49c2.65,-2.09 10.64,-6.2 13.46,-8.04 -11.06,-43.48 -15.39,-94.9 -4.4,-148.77 11.27,-55.25 40.86,-118.66 95.99,-183.66 -6.05,4.42 -12.4,7.67 -18.77,14.2 -50.55,45.48 -84.12,120.96 -94.22,188.98 -6.7,45.12 -4.65,93.65 7.94,137.28z"/>
    <path id="_123306456" class="fil3" d="M68.74 421.74c0.94,4.12 1.97,8.35 3.09,12.68 28.59,-22.53 73.27,-30.95 93.44,-33.31 -0.98,-3.58 -2.1,-8.09 -3.22,-13.43 -47.19,4.44 -80.92,23.84 -93.3,34.06l-0 0 -0 0z"/>
    <path id="_123306384" class="fil3" d="M165.27 401.11c-8.22,-30.03 -26.63,-125.21 32.45,-229.43l1.43 -1.98c-69.27,70.73 -69.15,163.65 -51.19,234.1 6.59,-1.27 12.49,-2.12 17.31,-2.68l0 0 0 -0z"/>
    <path id="_123306312" class="fil1" d="M70.87 437.88l-2.23 -5.48c-0.9,-2.2 41.95,-30.33 97.74,-36.71l1.2 5.16c-19.61,2.09 -66.91,12.83 -96.72,37.03l-0 0z"/>
    <path id="_123306240" class="fil4" d="M74.16 394.26c0,0 11.44,-12.4 50.55,-22.65 0,0 -28.85,-1.19 -51.5,6.68 0,0 -0.24,3.34 -0.24,5.25 0,1.91 1.67,10.25 1.19,10.73z"/>
    <path id="_123306168" class="fil1" d="M165 373.28c0,0 -29.56,-3.1 -63.66,4.53 0,0 17.64,-10.97 61.04,-12.4l2.62 7.87z"/>
    <path id="_123306096" class="fil1" d="M67.58 425.32c0,0 27.67,-19.41 60.36,-31.75 0,0 -32.23,6.51 -63.67,24.5l3.31 7.24z"/>
    <polygon id="_123306024" class="fil4" points="72.14,309.38 137.7,300.56 74.76,298.65 "/>
    <polygon id="_123305952" class="fil1" points="101.55,171.12 186.13,213.43 183.56,216.74 100,176.5 "/>
    <path id="_123305880" class="fil1" d="M163.24 216c0,0 2.22,-12.2 -4.4,-24.74 -1.68,8.96 -0.89,17.03 4.4,24.74z"/>
    <path id="_121761480" class="fil1" d="M124.35 198.19c0,0 11.55,-2.6 20.1,-13.11 -8.51,1.87 -15.29,5.58 -20.1,13.11z"/>
    <polygon id="_121761384" class="fil1" points="61.83,297.07 160.11,295.69 159.33,299.81 62.97,302.57 "/>
    <path id="_121761312" class="fil1" d="M119.76 310.8c0,0 -1.46,-12.36 -11.82,-22.59 1.03,9.09 4.24,16.63 11.82,22.59z"/>
    <path id="_121761240" class="fil1" d="M135.11 310c0,0 8.24,-9.33 8.98,-23.87 -6.1,6.82 -9.58,14.24 -8.98,23.87z"/>
    <path id="_121761168" class="fil1" d="M80.95 310.85c0,0 9.42,-7.63 12.27,-20.89 -6.95,5.58 -11.45,11.99 -12.27,20.89z"/>
    <polygon id="_121761096" class="fil3" points="360.63,210.2 348.01,230 348.94,211.87 "/>
    <path id="_121761024" class="fil3" d="M189.73 79.69c22.46,-21.16 285.65,-20.56 308.11,0.59 -5.87,91.61 -82.32,135.48 -153.54,135.05 -72.57,-0.44 -137.54,-46.86 -154.57,-135.64l-0 0 0 -0z"/>
    <path id="_121760952" class="fil1" d="M188.54 79c22.46,-20.23 288.16,-19.66 310.61,0.57 -5.87,87.58 -83.63,129.52 -154.85,129.11 -72.57,-0.42 -138.73,-44.8 -155.76,-129.67l0 0 0 0 0 -0z"/>
    <path id="_121760880" class="fil2" d="M494.87 86.46c-12.26,78.5 -84.36,116.16 -150.7,115.77 -68.46,-0.4 -131.11,-41.32 -150.83,-119.66 4.27,-1.8 9.74,-3.97 23.66,-3.39 75.28,-7.73 281.27,-14.54 277.87,7.28l0 0 -0 0 -0 0z"/>
    <path id="_121760808" class="fil3" d="M494.16 83.84c-11.48,73.51 -75.44,111.2 -138,115.38l0.11 -3.7c121.96,-19.06 127.6,-107.04 126,-110.25l9.62 -2.3c1.51,0.38 2.3,0.67 2.27,0.86l-0 0 0 0z"/>
    <path id="_121760736" class="fil3" d="M196.05 81.82c17.68,77.32 79.48,113.7 142.04,117.88l1.08 -3.7c-120.77,-14.05 -133.2,-112.16 -134.81,-115.72 -1.42,-0.34 -6.15,0.4 -8.32,1.54l-0 -0 -0 0 0 0z"/>
    <path id="_121760664" class="fil4" d="M214.23 76.06c2.77,-2.61 9.99,-4.82 20.34,-6.64 59.39,-10.42 221.79,-7.84 237.68,7.13 -4.88,76.1 -69.47,112.54 -128.63,112.19 -60.28,-0.36 -115.25,-38.93 -129.39,-112.68l0 -0 0 0z"/>
    <path id="_121760520" class="fil10" d="M220.67 99.06c27.08,-21.45 73.74,-32.41 120.66,-32.76l3.82 0c48.27,0.37 96.24,11.95 122.93,34.63 -15.99,57.2 -72.33,84.7 -124.47,84.39 -53.36,-0.31 -102.55,-29.75 -122.95,-86.26l0 0z"/>
    <path id="_121760448" class="fil1" d="M214.23 75.71c2.77,-2.54 9.99,-4.69 20.34,-6.46 59.39,-10.13 221.79,-7.62 237.68,6.93 -4.88,74.03 -69.47,109.48 -128.63,109.13 -60.28,-0.35 -115.25,-37.87 -129.39,-109.61l0 -0z"/>
    <path id="_121760376" class="fil6" d="M465.69 70.5c-5.35,73.02 -66.26,108.01 -122.09,107.66 -56.83,-0.35 -108.68,-37.31 -122.6,-107.99 61.84,-17 185.96,-17.07 244.69,0.33l-0 0 0 0 -0 0z"/>
    <path id="_121760304" class="fil3" d="M470 165.46c0,0 -21.22,41.49 -97.75,55.31 0,0 50.55,-0.95 69.62,-13.11 19.07,-12.16 28.13,-42.2 28.13,-42.2l-0 0z"/>
    <path id="_121760232" class="fil3" d="M216.56 165.46c0,0 21.22,41.49 97.75,55.31 0,0 -50.55,-0.95 -69.62,-13.11 -19.07,-12.16 -28.13,-42.2 -28.13,-42.2l0 0z"/>
    <path id="_121760592" class="fil1" d="M342.74 182.3c1.99,37.12 4.21,43.81 5.01,47.14 3.25,-1.3 1.99,-9.79 5,-47.86 -3.34,0.24 -6.68,0.48 -10.01,0.72z"/>
   </g>
  </g>
  <path id="_119548472" class="fil1" d="M340.63 231.68c19.56,0 37.28,7.93 50.11,20.76 0.41,0.41 0.82,0.83 1.22,1.25l-10.53 0c-11.05,-9.24 -25.27,-14.8 -40.8,-14.8 -15.52,0 -29.75,5.56 -40.8,14.8l-10.53 0c0.4,-0.42 0.81,-0.84 1.22,-1.25 12.82,-12.82 30.54,-20.76 50.11,-20.76zm-71.93 70.69l0 -17.29c1.59,0.24 3.53,0.35 5,0.29 2.94,-0.12 4.88,-1.06 5.94,-2.18 1.94,-2 2,-4.88 2,-6.82l0 -6.17c0,-2 -0.06,-4.53 -2,-6.53 -1.35,-1.41 -3.88,-2.47 -6.41,-2.47l-11.23 0 0 41.16 6.7 0zm0 -23.05l0 -12.35 3.06 0c0.65,0 1.88,0.06 2.59,1 0.59,0.76 0.59,1.76 0.59,2.7l0 4.41c0,2.12 -0.18,2.76 -0.29,3 -0.53,1.24 -1.41,1.24 -2.35,1.24l-3.59 0zm15.88 23.05l6.7 0 0 -41.16 -6.7 0 0 41.16zm31.11 -32.11c0,-2.35 -0.12,-4.88 -2.76,-7.23 -2.35,-2.06 -5.29,-2.41 -7.47,-2.41 -2.18,0 -5.12,0.35 -7.47,2.41 -2.65,2.35 -2.76,4.88 -2.76,7.23l0 23.05c0,2.35 0.12,4.88 2.76,7.23 2.35,2.06 5.29,2.41 7.47,2.41 2.18,0 5.12,-0.35 7.47,-2.41 2.65,-2.35 2.76,-4.88 2.76,-7.23l0 -23.05zm-13.76 0.24c0,-0.94 0.06,-2.06 0.65,-2.88 0.82,-1.12 2.12,-1.23 2.88,-1.23 0.76,0 2.06,0.12 2.88,1.23 0.59,0.82 0.65,1.94 0.65,2.88l0 22.58c0,0.94 -0.06,2.06 -0.65,2.88 -0.82,1.12 -2.12,1.23 -2.88,1.23 -0.76,0 -2.06,-0.12 -2.88,-1.23 -0.59,-0.82 -0.65,-1.94 -0.65,-2.88l0 -22.58zm38.22 31.87l0 -41.16 -6.7 0 0 18.88 0.35 4.35 -0.18 0 -6.88 -23.23 -7.41 0 0 41.16 6.7 0 0 -19.58 -0.29 -4.65 0.24 -0.06 7 24.29 7.17 0zm3.82 0l18.05 0 0 -5.76 -11.35 0 0 -14 8.12 0 0 -5.76 -8.12 0 0 -9.88 10.47 0 0 -5.76 -17.17 0 0 41.16zm20.7 0l18.05 0 0 -5.76 -11.35 0 0 -14 8.11 0 0 -5.76 -8.11 0 0 -9.88 10.47 0 0 -5.76 -17.17 0 0 41.16zm42.05 0l0 -0.29c-1.65,-0.71 -1.88,-1.82 -1.88,-5.53l0 -8.82c0,-1.71 -0.18,-3.65 -2.06,-5.29 -1,-0.88 -2.18,-1.23 -2.53,-1.35l0 -0.18c1.47,-0.18 2.53,-0.88 3.23,-1.59 1.53,-1.59 1.76,-3.53 1.76,-5l0 -4.7c0,-1.88 -0.53,-4.41 -1.76,-5.88 -1.12,-1.35 -3.41,-2.53 -7.06,-2.53l-11.06 0 0 41.16 6.7 0 0 -17.99 2.65 0c0.71,0 1.7,0.06 2.41,0.65 0.94,0.82 1,2.12 1,3.23l0 9.23c0,1.47 0,3.12 1,4.88l7.59 0zm-14.64 -24.17l0 -11.23 3.76 0c0.71,0 1.59,0.06 2.18,0.94 0.24,0.35 0.53,1 0.53,2.76l0 4.23c0,0.76 -0.06,2 -1,2.71 -0.71,0.53 -1.65,0.59 -2.47,0.59l-3 0zm-121.58 72.21l0 -19.17 8 0 0 -5.76 -8 0 0 -10.47 10.41 0 0 -5.76 -17.11 0 0 41.16 6.7 0zm32.99 0l-7.59 -41.16 -8.23 0 -7.59 41.16 6.94 0 1.18 -7.59 7.17 0 1.18 7.59 6.94 0zm-14.53 -13.35l2.76 -16.41 0.12 0 2.76 16.41 -5.65 0zm38.16 13.35l0 -0.29c-1.65,-0.71 -1.88,-1.82 -1.88,-5.53l0 -8.82c0,-1.71 -0.18,-3.65 -2.06,-5.29 -1,-0.88 -2.18,-1.24 -2.53,-1.35l0 -0.18c1.47,-0.18 2.53,-0.88 3.23,-1.59 1.53,-1.59 1.76,-3.53 1.76,-5l0 -4.7c0,-1.88 -0.53,-4.41 -1.76,-5.88 -1.12,-1.35 -3.41,-2.53 -7.06,-2.53l-11.06 0 0 41.16 6.7 0 0 -17.99 2.65 0c0.71,0 1.71,0.06 2.41,0.65 0.94,0.82 1,2.12 1,3.23l0 9.23c0,1.47 0,3.12 1,4.88l7.59 0zm-14.64 -24.17l0 -11.23 3.76 0c0.71,0 1.59,0.06 2.18,0.94 0.24,0.35 0.53,1 0.53,2.76l0 4.23c0,0.76 -0.06,2 -1,2.71 -0.71,0.53 -1.65,0.59 -2.47,0.59l-3 0zm34.81 24.17l4.82 -30.99 0.29 0 -0.35 5.47 0 25.52 6.7 0 0 -41.16 -10.58 0 -3.94 26.58 -0.24 0 -3.94 -26.58 -10.58 0 0 41.16 6.7 0 0 -25.52 -0.35 -5.47 0.29 0 4.82 30.99 6.35 0zm15.58 0l18.05 0 0 -5.76 -11.35 0 0 -14 8.11 0 0 -5.76 -8.11 0 0 -9.88 10.47 0 0 -5.76 -17.17 0 0 41.16zm42.05 0l0 -0.29c-1.65,-0.71 -1.88,-1.82 -1.88,-5.53l0 -8.82c0,-1.71 -0.18,-3.65 -2.06,-5.29 -1,-0.88 -2.18,-1.24 -2.53,-1.35l0 -0.18c1.47,-0.18 2.53,-0.88 3.23,-1.59 1.53,-1.59 1.76,-3.53 1.76,-5l0 -4.7c0,-1.88 -0.53,-4.41 -1.76,-5.88 -1.12,-1.35 -3.41,-2.53 -7.06,-2.53l-11.06 0 0 41.16 6.7 0 0 -17.99 2.65 0c0.71,0 1.71,0.06 2.41,0.65 0.94,0.82 1,2.12 1,3.23l0 9.23c0,1.47 0,3.12 1,4.88l7.59 0zm-14.64 -24.17l0 -11.23 3.76 0c0.71,0 1.59,0.06 2.18,0.94 0.24,0.35 0.53,1 0.53,2.76l0 4.23c0,0.76 -0.06,2 -1,2.71 -0.71,0.53 -1.65,0.59 -2.47,0.59l-3 0zm-2.86 29.52c-12.48,10.98 -28.86,17.65 -46.78,17.65 -17.93,0 -34.3,-6.66 -46.78,-17.65l11.86 0c10.03,6.59 22.03,10.43 34.92,10.43 12.9,0 24.9,-3.84 34.92,-10.43l11.86 0z"/>
 </g>
</svg>
