<?xml version="1.0" encoding="UTF-8"?>
<!DOCTYPE svg PUBLIC "-//W3C//DTD SVG 1.1//EN" "http://www.w3.org/Graphics/SVG/1.1/DTD/svg11.dtd">
<!-- Creator: CorelDRAW 2020 (64-Bit) -->
<svg xmlns="http://www.w3.org/2000/svg" xml:space="preserve" width="161.908mm" height="176.792mm" version="1.1" style="shape-rendering:geometricPrecision; text-rendering:geometricPrecision; image-rendering:optimizeQuality; fill-rule:evenodd; clip-rule:evenodd"
viewBox="0 0 632.11 690.22"
 xmlns:xlink="http://www.w3.org/1999/xlink"
 xmlns:xodm="http://www.corel.com/coreldraw/odm/2003">
 <defs>
  <style type="text/css">
   <![CDATA[
    .fil0 {fill:none}
    .fil1 {fill:#501D33}
    .fil6 {fill:#8C8891}
    .fil10 {fill:#C8B99F}
    .fil9 {fill:#C9C7D2}
    .fil5 {fill:#C9CDC7}
    .fil4 {fill:#D77D75}
    .fil7 {fill:#DFE2DF}
    .fil2 {fill:#FFCFA5}
    .fil3 {fill:white}
    .fil8 {fill:white}
   ]]>
  </style>
 </defs>
 <g id="Слой_x0020_1">
  <metadata id="CorelCorpID_0Corel-Layer"/>
  <g id="_167147624">
   <g>
    <rect id="_119545328" class="fil0" width="632.11" height="690.22"/>
    <path id="_119679368" class="fil1" d="M146.09 299.58l18.65 -3.18 -0.81 -3.63 -18.54 1.6c0,0 -0.69,2.53 0.7,5.21zm-69.13 50.54c0.29,1.14 -0.4,2.29 -1.54,2.58 -1.14,0.29 -2.29,-0.4 -2.58,-1.54 -0.29,-1.14 0.4,-2.29 1.54,-2.58 1.14,-0.29 2.29,0.4 2.58,1.54zm-13.25 -62.48l-18.65 -3.18 0.81 -3.63 18.54 1.6c0,0 0.69,2.53 -0.7,5.21zm-6.2 30.12l-12.62 0.85 -0.04 -2.49 12.3 -1.85c0,0 0.84,1.54 0.36,3.49zm3.49 32.49l-14.32 4.29 -0.7 -2.86 13.69 -5.36c0,0 1.37,1.55 1.33,3.93zm4.01 -40.45l-21.21 -2.14 0.63 -4.15 20.96 0.38c0,0 0.97,2.79 -0.38,5.91zm79.78 11.94l21.21 -2.14 -0.63 -4.15 -20.96 0.38c0,0 -0.97,2.79 0.38,5.91zm5.01 9.51l14.94 0.36 -0.08 -2.94 -14.62 -1.56c0,0 -0.92,1.86 -0.25,4.14z"/>
    <path id="_119679440" class="fil1" d="M174.81 71.86c-64.87,29.11 -118.03,141.62 -122.77,200.88 -5.43,67.89 -4.59,109.21 35.01,192.16 0,0 8.61,17.68 38.04,10.52 13.27,1.12 26.43,-3.5 32.73,-12.53 0.15,-0.22 16.56,-2.56 24.45,-10.25 3.58,-3.49 5.86,-6.58 4.57,-12.93 -1.69,-8.3 -4.17,-18.47 -4.17,-18.47 0,0 14.64,-14.59 12.24,-20.8 -2.4,-6.21 -32.33,-32.15 -32.38,-32.4 -20.54,-94.18 -0.4,-174.51 53.41,-239.4l43.23 -57.24c-21.72,-6.41 -61.33,-9.89 -84.36,0.44l-0 0z"/>
    <path id="_119679512" class="fil2" d="M181.33 160.3l63.19 -87.43c-43.03,-1.9 -67.77,-0.03 -99.09,32.09 -44.55,45.69 -76.58,114.61 -84.55,178.4 -8.02,64.21 4.23,120.52 33.95,178.73 0,0 3.61,10.63 26.35,8 0,0 -6.61,-11.7 -6.16,-12.71 0.45,-1.01 11.52,11.76 11.52,11.76 0,0 13.99,0.05 25.42,-9.81 0,0 0.05,-15.81 1.04,-15.77 0.99,0.04 4.17,11.7 4.17,11.7l14.94 -3.95c6.83,-3.21 8.96,-3.72 7.11,-12.17 -1.41,-6.46 -3.78,-17.35 -8.98,-35.63 1.43,-1.69 4.91,6.25 7.45,10.61 0,0 8.18,-9.03 7.83,-12.11 -0.35,-3.08 -28.99,-25.35 -28.99,-25.35 -23.15,-72.62 -7.49,-159.37 24.82,-216.38l0 -0 0 0z"/>
    <path id="_119679584" class="fil3" d="M84.19 199.07c-11.73,27.5 -19.82,56.39 -23.31,84.3 -8.02,64.21 4.23,120.52 33.95,178.73 0,0 0.31,0.9 1.3,2.11 6.57,-0.92 13.21,-2.41 19.73,-4.26 -0.6,-1.31 -0.96,-2.3 -0.84,-2.56 0.13,-0.3 1.2,0.61 2.64,2.04 12.67,-3.74 24.77,-8.76 34.76,-13.47 0.14,-1.45 0.33,-2.4 0.57,-2.4 0.22,0.01 0.52,0.68 0.85,1.72 13.17,-6.28 22.38,-11.85 23.89,-12.78l-0.01 -0.06c-29.12,10 -78.28,15.01 -78.28,15.01 -41.31,-84.99 -39.06,-173.49 -9.29,-247.75 11.5,-28.69 31.01,-56.04 26.52,-49.25 -2.43,3.68 -15.79,9.5 -32.47,48.6l0 0z"/>
    <path id="_119542160" class="fil4" d="M97.88 170.66c-9.05,16.74 -16.75,34.39 -22.86,52.34 14.07,1.52 47.99,7.03 75.2,26.22 4.54,-25.41 12.13,-49.62 21.91,-70.89 -2.14,-1.03 -4.37,-1.75 -6.68,-2.09 -12.9,-1.87 -46.09,-5.05 -67.57,-5.57z"/>
    <path id="_88446104" class="fil4" d="M181.33 160.3l1.58 -2.18c-0.42,-0.23 -0.83,-0.49 -1.25,-0.7 0,0 -111.34,126.28 -4.21,291.15 2.46,-1.72 2.97,-3.84 1.75,-9.42 -1.41,-6.46 -3.78,-17.35 -8.98,-35.63 1.43,-1.69 4.91,6.25 7.45,10.61 0,0 8.18,-9.03 7.83,-12.11 -0.35,-3.08 -28.99,-25.35 -28.99,-25.35 -23.15,-72.62 -7.49,-159.37 24.82,-216.38l0 0z"/>
    <path id="_119679704" class="fil1" d="M77.81 241.88c-29,-3.27 -36.49,28.71 -10.9,39.41l10.9 -39.41z"/>
    <path id="_119679776" class="fil2" d="M66.92 281.46c-9.46,-14.74 -9.7,-31.03 10.89,-39.81 0,0 5.86,28.91 -10.89,39.81z"/>
    <path id="_119679680" class="fil3" d="M67.91 282.68c-11.45,-14.6 -11.58,-32.62 10.65,-41.46 -8.84,5.91 -16.13,24.65 -10.25,40.25l-0.39 1.2z"/>
    <path id="_119679872" class="fil3" d="M76.66 247.34c2.53,1.57 2.5,6.19 -0.06,10.31 -2.56,4.12 -6.69,6.19 -9.23,4.62 -2.53,-1.57 -2.5,-6.19 0.06,-10.32 2.56,-4.12 6.69,-6.19 9.22,-4.62z"/>
    <path id="_119679944" class="fil2" d="M180.13 402.15c0,0 -4.69,-9.72 -16.7,-15.83 -12.01,-6.11 8.3,16.05 16.7,15.83z"/>
    <path id="_119680016" class="fil4" d="M93.54 459.56c0.42,0.85 0.85,1.7 1.28,2.54 0,0 3.61,10.63 26.35,8 0,0 -6.61,-11.7 -6.16,-12.71 0.45,-1.01 11.52,11.76 11.52,11.76 0,0 13.99,0.05 25.41,-9.81 0,0 0.05,-15.81 1.04,-15.77 0.99,0.04 3.41,12.91 3.41,12.91 7.71,-1.03 16.55,-3.83 21.75,-8.44 1.86,-1.65 2.16,-3.87 1.06,-8.89 -0.47,-2.15 -1.05,-4.8 -1.8,-8.05 -43.13,19.38 -70.7,26.12 -83.86,28.45l-0 0z"/>
    <path id="_119680088" class="fil4" d="M95.93 256.08c0,0 0,14.44 -19.47,22.31 0,0 12.91,-0.44 18.37,-5.69 5.47,-5.25 1.09,-16.62 1.09,-16.62z"/>
    <path id="_119684744" class="fil1" d="M200.76 355.44c-11.4,-69.92 -18.28,-187.77 -25.23,-242.29 12.33,-50.76 109.3,-35.2 142.34,-28.33 33.03,-6.87 130.01,-22.43 142.34,28.33 -6.96,54.53 -14.05,172.16 -25.45,242.07 -62.05,23.6 -171.94,23.81 -233.99,0.22l0 0 0 0 -0 0z"/>
    <path id="_119684648" class="fil1" d="M491.28 303.74l-18.65 -3.18 0.81 -3.63 18.54 1.6c0,0 0.69,2.53 -0.7,5.21zm69.13 50.54c-0.29,1.14 0.4,2.29 1.54,2.58 1.14,0.29 2.29,-0.4 2.58,-1.54 0.29,-1.14 -0.4,-2.29 -1.54,-2.58 -1.14,-0.29 -2.29,0.4 -2.58,1.54zm13.25 -62.48l18.65 -3.18 -0.81 -3.63 -18.54 1.6c0,0 -0.69,2.53 0.7,5.21zm6.2 30.13l12.62 0.85 0.04 -2.49 -12.3 -1.85c0,0 -0.84,1.54 -0.36,3.49zm-3.49 32.49l14.32 4.29 0.7 -2.86 -13.69 -5.36c0,0 -1.37,1.55 -1.33,3.93zm-4.01 -40.44l21.21 -2.14 -0.63 -4.15 -20.96 0.38c0,0 -0.97,2.79 0.38,5.91zm-79.78 11.94l-21.21 -2.14 0.63 -4.15 20.96 0.38c0,0 0.97,2.79 -0.38,5.91zm-5.01 9.51l-14.94 0.36 0.08 -2.94 14.62 -1.56c0,0 0.92,1.86 0.25,4.14z"/>
    <path id="_119684816" class="fil1" d="M461.04 71.64c64.87,29.11 118.03,141.62 122.77,200.88 5.43,67.89 3.93,109.87 -35.67,192.81 0,0 -8.94,16.7 -38.37,9.54 -13.71,1.29 -25.89,-4.1 -32.19,-12.31 -0.16,-0.21 -16.12,-2.45 -24.01,-10.14 -3.58,-3.49 -5.86,-6.58 -4.57,-12.93 1.69,-8.3 4.17,-18.47 4.17,-18.47 0,0 -14.64,-14.59 -12.24,-20.8 2.4,-6.21 32.33,-32.15 32.38,-32.4 20.54,-94.18 0.4,-174.51 -53.41,-239.4l-43.23 -57.24c21.72,-6.41 61.33,-9.89 84.36,0.44l0 0 0 0z"/>
    <path id="_119684888" class="fil2" d="M454.51 160.08l-63.19 -87.43c43.03,-1.9 67.77,-0.03 99.09,32.09 44.55,45.69 76.58,114.61 84.55,178.4 8.02,64.21 -4.23,120.52 -33.95,178.73 0,0 -3.61,10.63 -26.35,8 0,0 6.61,-11.7 6.16,-12.71 -0.45,-1.01 -11.52,11.76 -11.52,11.76 0,0 -13.99,0.05 -25.42,-9.81 0,0 -0.05,-15.81 -1.04,-15.77 -0.99,0.04 -4.17,11.7 -4.17,11.7l-14.94 -3.95c-6.83,-3.21 -8.96,-3.72 -7.1,-12.17 1.41,-6.46 3.78,-17.35 8.98,-35.63 -1.43,-1.69 -4.91,6.25 -7.45,10.61 0,0 -8.18,-9.03 -7.83,-12.11 0.35,-3.08 28.99,-25.35 28.99,-25.35 23.15,-72.63 7.49,-159.38 -24.82,-216.38l0 -0z"/>
    <path id="_119544248" class="fil4" d="M532.6 160.91c11.24,19.26 20.69,39.95 27.94,61.05 -38.16,5.92 -71.37,23.05 -71.37,23.05 0,0 -2.01,-1.72 -5.21,-4.62 -5.74,-27.6 -15.05,-53.51 -26.77,-75.44 2.01,-0.78 4.26,-1.78 6.79,-3.17 14.28,-7.83 40.28,-3.07 68.62,-0.87l-0 -0z"/>
    <path id="_119684432" class="fil4" d="M454.51 160.08l-1.58 -2.18c0.42,-0.23 0.83,-0.49 1.25,-0.7 0,0 111.34,126.28 4.21,291.15 -2.46,-1.72 -2.97,-3.84 -1.75,-9.42 1.41,-6.46 3.78,-17.35 8.98,-35.63 -1.43,-1.69 -4.91,6.25 -7.45,10.61 0,0 -8.18,-9.03 -7.83,-12.11 0.35,-3.08 28.99,-25.35 28.99,-25.35 23.15,-72.63 7.49,-159.38 -24.82,-216.38l0 0z"/>
    <path id="_119684504" class="fil5" d="M481.33 232.18c-5.86,-23.5 -15.28,-48.59 -29.85,-74.29l-63.19 -87.43c43.03,-1.9 67.77,-0.03 99.09,32.09 27.92,28.63 50.92,66.39 66.17,106.29 -25.01,5.87 -52.46,15.66 -72.22,23.34l0 0z"/>
    <path id="_119684576" class="fil6" d="M481.33 232.18c-5.86,-23.5 -15.28,-48.59 -29.85,-74.29l-1.32 -1.82c21.45,21.9 35.64,46.13 44.4,71.1 -4.68,1.73 -9.13,3.41 -13.24,5.01z"/>
    <path id="_135238464" class="fil5" d="M209.26 351.48c-11.3,-73.9 -19.61,-156.61 -24.31,-230.26 9.63,-39.66 71.21,-59.69 132.83,-59.8l0 -0 0.08 0 0.08 -0 0 0c61.62,0.11 123.19,20.14 132.83,59.8 -4.7,73.65 -13.01,156.36 -24.31,230.26 -60.12,18.96 -157.08,18.96 -217.2,0l0 -0 -0 0 0 0z"/>
    <polygon id="_119683208" class="fil7" points="266.56,304.11 214.46,280.27 370.55,301.5 "/>
    <polygon id="_124547344" class="fil7" points="357.85,246.77 408.21,249.83 430.54,231.88 "/>
    <path id="_135244848" class="fil6" d="M209.26 351.48c-9.14,-59.78 -16.32,-125.32 -21.22,-187.16 0.59,-2.77 1.13,-4.39 1.58,-4.57l27.58 186.08c1.32,-3.14 78.08,25.22 199.98,-1.23l31.1 -190.43c0,0 -0,4.33 -0.42,7.98 -4.9,62.48 -12.15,128.85 -21.39,189.32 -60.12,18.96 -157.08,18.96 -217.2,0l-0 0 -0 0 0 -0z"/>
    <polygon id="_119545832" class="fil6" points="199.28,237.12 411.27,297.56 204.1,273.91 "/>
    <path id="_119545904" class="fil1" d="M429.77 334.75c0,0 -19.3,11.15 -35.31,14.44 0,0 14.91,-0.44 37.28,-6.34l2.85 -6.12 -4.82 -1.97z"/>
    <path id="_119545976" class="fil1" d="M206.93 336.72c0,0 19.3,11.16 35.31,14.44 0,0 -14.91,-0.44 -37.28,-6.34l-2.85 -6.12 4.82 -1.97z"/>
    <path id="_119546048" class="fil5" d="M154.51 232.4c5.86,-23.5 15.28,-48.59 29.85,-74.29l63.19 -87.43c-43.03,-1.9 -67.77,-0.03 -99.09,32.09 -27.92,28.63 -50.92,66.39 -66.17,106.29 25.01,5.87 52.46,15.66 72.22,23.34l0 0z"/>
    <path id="_119546120" class="fil7" d="M92.94 204.8c14.85,-36.66 38.8,-77.28 72.51,-117.02 -17.7,11.73 -31.38,26.88 -44.49,44.62 -16.49,22.31 -29.46,47.99 -39.25,70.12 1.89,6.27 11.45,1.33 11.45,1.33 0.14,-0.2 -0.37,1.13 -0.22,0.94l0 0z"/>
    <path id="_119546192" class="fil6" d="M154.51 232.4c5.86,-23.5 15.28,-48.59 29.85,-74.29l1.32 -1.82c-21.45,21.9 -35.64,46.13 -44.4,71.1 4.68,1.73 9.13,3.41 13.24,5.01z"/>
    <path id="_119546288" class="fil6" d="M443.42 194.62c0,0 -66.93,37.83 -64.52,38.71 2.41,0.87 61.68,-13.34 61.68,-13.34l2.84 -25.37z"/>
    <path id="_130621488" class="fil3" d="M558.01 214.86c-3.61,-9.79 -3.61,-9.79 0,0zm0.17 0.46c0.29,0.8 0.59,1.61 0.87,2.41 -0.29,-0.8 -0.58,-1.61 -0.87,-2.41zm1.19 3.3c0.25,0.71 0.5,1.42 0.75,2.12 -0.25,-0.71 -0.5,-1.42 -0.75,-2.12zm1.08 3.08c7.02,20.39 11.98,41.18 14.52,61.45 8.02,64.21 -4.23,120.52 -33.95,178.73 0,0 -0.31,0.9 -1.3,2.11 -6.57,-0.92 -13.21,-2.41 -19.73,-4.26 0.6,-1.31 0.96,-2.3 0.84,-2.56 -0.13,-0.3 -1.2,0.61 -2.64,2.04 -12.67,-3.74 -24.77,-8.76 -34.76,-13.47 -0.14,-1.45 -0.33,-2.4 -0.58,-2.4 -0.22,0.01 -0.52,0.68 -0.85,1.72 -13.17,-6.28 -22.37,-11.85 -23.89,-12.77l0.01 -0.06c29.12,10 78.28,15.01 78.28,15.01 37.02,-76.16 39.04,-155.14 17.64,-224.17 2.14,-0.41 4.3,-0.78 6.48,-1.12l-0.09 -0.25 0 0z"/>
    <path id="_119546432" class="fil1" d="M558.03 241.66c29.01,-3.27 36.49,28.71 10.9,39.41l-10.9 -39.41z"/>
    <path id="_119546504" class="fil2" d="M568.92 281.24c9.46,-14.74 9.7,-31.03 -10.89,-39.81 0,0 -5.86,28.91 10.89,39.81z"/>
    <path id="_119546576" class="fil3" d="M567.94 282.46c11.45,-14.6 11.58,-32.62 -10.65,-41.46 8.84,5.91 16.13,24.65 10.25,40.25l0.39 1.2z"/>
    <path id="_119546648" class="fil3" d="M559.18 247.12c-2.53,1.57 -2.5,6.19 0.06,10.31 2.56,4.12 6.7,6.19 9.23,4.62 2.53,-1.57 2.5,-6.19 -0.06,-10.32 -2.56,-4.12 -6.69,-6.19 -9.22,-4.62z"/>
    <path id="_119546720" class="fil2" d="M455.71 401.94c0,0 4.69,-9.72 16.7,-15.83 12.01,-6.11 -8.3,16.05 -16.7,15.83z"/>
    <path id="_119546792" class="fil4" d="M542.3 459.34c-0.42,0.85 -0.85,1.7 -1.28,2.54 0,0 -3.61,10.63 -26.35,8 0,0 6.61,-11.7 6.16,-12.71 -0.45,-1.01 -11.52,11.76 -11.52,11.76 0,0 -13.99,0.05 -25.41,-9.81 0,0 -0.05,-15.81 -1.04,-15.77 -0.99,0.04 -3.41,12.91 -3.41,12.91 -7.71,-1.03 -16.55,-3.83 -21.75,-8.44 -1.86,-1.65 -2.16,-3.87 -1.06,-8.89 0.47,-2.15 1.05,-4.8 1.8,-8.05 43.13,19.38 70.7,26.12 83.86,28.45l0 0z"/>
    <path id="_119546864" class="fil4" d="M539.92 255.86c0,0 0,14.44 19.47,22.31 0,0 -12.9,-0.44 -18.37,-5.69 -5.47,-5.25 -1.09,-16.62 -1.09,-16.62z"/>
    <path id="_119546936" class="fil1" d="M553.64 299.04c1.43,1.04 1.74,3.04 0.7,4.47 -1.04,1.43 -3.04,1.74 -4.47,0.7 -1.43,-1.04 -1.74,-3.04 -0.7,-4.47 1.04,-1.43 3.04,-1.74 4.47,-0.7zm-25.56 35.93c-0.39,1.11 0.19,2.32 1.3,2.71 1.1,0.39 2.32,-0.19 2.71,-1.3 0.39,-1.1 -0.19,-2.32 -1.3,-2.71 -1.1,-0.39 -2.32,0.19 -2.71,1.3zm20.38 -5.32c-0.26,0.74 0.13,1.55 0.86,1.8 0.74,0.26 1.55,-0.13 1.8,-0.86 0.26,-0.74 -0.13,-1.54 -0.86,-1.8 -0.74,-0.26 -1.54,0.13 -1.8,0.86zm-3.88 30.58c-0.26,0.74 0.13,1.55 0.86,1.8 0.74,0.26 1.55,-0.13 1.8,-0.86 0.26,-0.74 -0.13,-1.54 -0.86,-1.8 -0.74,-0.26 -1.54,0.13 -1.8,0.86zm9.62 -9.81c-0.32,0.92 0.16,1.93 1.08,2.26 0.92,0.32 1.93,-0.16 2.26,-1.08 0.32,-0.92 -0.16,-1.93 -1.08,-2.26 -0.92,-0.32 -1.93,0.16 -2.26,1.08zm-32.97 13.27c-0.45,1.29 0.22,2.7 1.51,3.16 1.29,0.45 2.7,-0.22 3.16,-1.51 0.45,-1.29 -0.22,-2.7 -1.51,-3.16 -1.29,-0.45 -2.7,0.22 -3.16,1.51zm9.07 -85.97c1.22,0.89 1.49,2.61 0.6,3.83 -0.89,1.22 -2.61,1.49 -3.83,0.6 -1.22,-0.89 -1.49,-2.61 -0.6,-3.83 0.89,-1.22 2.61,-1.49 3.83,-0.6zm-25.59 9.22c0.81,0.6 0.99,1.74 0.4,2.55 -0.59,0.81 -1.74,0.99 -2.55,0.4 -0.81,-0.59 -0.99,-1.74 -0.4,-2.55 0.6,-0.81 1.74,-0.99 2.55,-0.4zm28.35 26.35c0.81,0.59 0.99,1.74 0.4,2.55 -0.59,0.82 -1.74,0.99 -2.55,0.4 -0.81,-0.59 -0.99,-1.74 -0.4,-2.55 0.6,-0.81 1.74,-0.99 2.55,-0.4zm-29.13 24.32c1.22,0.89 1.49,2.61 0.6,3.83 -0.89,1.22 -2.61,1.49 -3.83,0.6 -1.22,-0.89 -1.49,-2.61 -0.6,-3.83 0.89,-1.22 2.61,-1.49 3.83,-0.6zm9.85 -24.36c1.02,0.74 1.24,2.17 0.5,3.19 -0.74,1.02 -2.17,1.24 -3.19,0.5 -1.02,-0.74 -1.24,-2.17 -0.5,-3.19 0.74,-1.02 2.17,-1.24 3.19,-0.5zm51.02 -28.47c0.72,0.53 0.88,1.54 0.35,2.27 -0.53,0.72 -1.54,0.88 -2.27,0.35 -0.72,-0.53 -0.88,-1.54 -0.35,-2.27 0.53,-0.72 1.54,-0.88 2.27,-0.35z"/>
    <path id="_119547008" class="fil7" d="M542.68 205.67c-14.85,-36.66 -38.59,-78.36 -72.3,-118.1 33.01,24.15 57.87,59.94 75.33,96.78 1.32,2.79 6.51,14.61 7.64,18.82 -1.2,3.97 -8.18,5.78 -10.68,2.5l0 0z"/>
    <path id="_119547224" class="fil1" d="M89.28 291.08c-1.52,0.91 -2.01,2.87 -1.11,4.39 0.91,1.52 2.87,2.01 4.39,1.11 1.52,-0.91 2.01,-2.87 1.1,-4.39 -0.91,-1.52 -2.87,-2.01 -4.38,-1.11zm22.14 38.13c0.29,1.14 -0.4,2.29 -1.54,2.58 -1.14,0.29 -2.29,-0.4 -2.58,-1.54 -0.29,-1.14 0.4,-2.29 1.54,-2.58 1.14,-0.29 2.29,0.4 2.58,1.54zm-19.8 -7.18c0.19,0.76 -0.27,1.53 -1.03,1.72 -0.76,0.19 -1.53,-0.27 -1.72,-1.03 -0.19,-0.76 0.27,-1.53 1.03,-1.72 0.76,-0.19 1.53,0.27 1.72,1.03zm1.05 30.81c0.19,0.76 -0.27,1.53 -1.03,1.72 -0.76,0.19 -1.53,-0.27 -1.72,-1.03 -0.19,-0.76 0.27,-1.53 1.03,-1.72 0.76,-0.19 1.53,0.27 1.72,1.03zm-8.68 -10.66c0.24,0.95 -0.34,1.91 -1.28,2.15 -0.95,0.24 -1.91,-0.34 -2.15,-1.28 -0.24,-0.95 0.34,-1.91 1.28,-2.15 0.95,-0.24 1.91,0.34 2.15,1.28zm31.61 16.25c0.33,1.33 -0.47,2.67 -1.8,3.01 -1.33,0.33 -2.67,-0.47 -3.01,-1.8 -0.33,-1.33 0.47,-2.67 1.8,-3 1.33,-0.33 2.67,0.47 3,1.8zm-1.11 -86.44c-1.3,0.78 -1.72,2.46 -0.95,3.76 0.78,1.3 2.46,1.72 3.76,0.95 1.3,-0.78 1.72,-2.46 0.95,-3.76 -0.78,-1.3 -2.46,-1.72 -3.76,-0.95zm24.63 11.54c-0.87,0.52 -1.15,1.64 -0.63,2.51 0.52,0.87 1.64,1.15 2.51,0.63 0.87,-0.52 1.15,-1.64 0.63,-2.51 -0.52,-0.87 -1.64,-1.15 -2.51,-0.63zm-30.65 23.62c-0.87,0.52 -1.15,1.64 -0.63,2.51 0.52,0.87 1.64,1.15 2.51,0.63 0.87,-0.52 1.15,-1.64 0.63,-2.51 -0.52,-0.87 -1.64,-1.15 -2.51,-0.63zm26.77 26.9c-1.3,0.78 -1.72,2.46 -0.95,3.76 0.78,1.3 2.46,1.72 3.76,0.95 1.3,-0.78 1.72,-2.46 0.95,-3.76 -0.78,-1.3 -2.46,-1.72 -3.76,-0.95zm-7.56 -25.17c-1.08,0.65 -1.44,2.05 -0.79,3.13 0.65,1.08 2.05,1.44 3.13,0.79 1.08,-0.65 1.43,-2.05 0.79,-3.13 -0.65,-1.08 -2.05,-1.44 -3.13,-0.79zm-48.18 -33.05c-0.77,0.46 -1.02,1.46 -0.56,2.23 0.46,0.77 1.46,1.02 2.23,0.56 0.77,-0.46 1.02,-1.46 0.56,-2.23 -0.46,-0.77 -1.46,-1.02 -2.23,-0.56z"/>
    <path id="_121761024" class="fil6" d="M176.48 73.98c20.61,-19.41 262.06,-18.87 282.66,0.54 -5.39,84.04 -75.52,124.29 -140.86,123.89 -66.57,-0.4 -126.18,-42.99 -141.8,-124.44l-0 0 -0 0z"/>
    <path id="_121760952" class="fil1" d="M175.38 73.35c20.61,-18.56 264.35,-18.04 284.95,0.52 -5.39,80.34 -76.72,118.82 -142.06,118.44 -66.57,-0.38 -127.27,-41.1 -142.89,-118.96l0 0z"/>
    <path id="_121760880" class="fil8" d="M456.42 80.2c-11.25,72.02 -77.39,106.56 -138.26,106.21 -62.8,-0.37 -120.28,-37.9 -138.37,-109.78 3.92,-1.65 8.93,-3.64 21.71,-3.11 69.06,-7.09 258.03,-13.34 254.92,6.68l0 0 0 0 0 -0z"/>
    <path id="_121760808" class="fil9" d="M455.76 77.79c-10.38,66.45 -67.5,101 -124.08,105.66l0.04 0.23 -19.13 0.39c-57.39,-3.83 -114.09,-37.2 -130.31,-108.14l0 0c1.99,-1.05 6.33,-1.72 7.63,-1.41 1.29,2.86 10.18,72.13 86.61,98.03 33.54,11.37 67.07,8.64 99.43,-5.31 66.71,-28.76 70.14,-85.68 68.91,-88.14l8.82 -2.11c1.38,0.35 2.11,0.62 2.08,0.79l-0 0 0 -0z"/>
    <path id="_121760664" class="fil8" d="M198.96 70.66c2.54,-2.39 9.17,-4.42 18.66,-6.09 54.48,-9.56 203.47,-7.19 218.05,6.54 -4.48,69.81 -63.73,103.25 -118.01,102.92 -55.3,-0.33 -105.73,-35.71 -118.7,-103.37l0 -0 -0 0 0 -0z"/>
    <path id="_121760520" class="fil10" d="M204.87 91.75c24.85,-19.68 67.64,-29.73 110.69,-30.06l3.51 0c44.28,0.34 88.29,10.97 112.78,31.77 -14.67,52.47 -66.35,77.7 -114.19,77.42 -48.95,-0.29 -94.08,-27.29 -112.79,-79.14l0 0z"/>
    <path id="_121760448" class="fil1" d="M198.96 70.33c2.54,-2.33 9.17,-4.3 18.66,-5.92 54.48,-9.3 203.47,-6.99 218.05,6.36 -4.48,67.91 -63.73,100.44 -118.01,100.12 -55.3,-0.32 -105.73,-34.74 -118.7,-100.56l0 -0 -0 0 0 -0z"/>
    <path id="_121760376" class="fil4" d="M429.65 65.55c-4.91,66.99 -60.78,99.09 -112,98.77 -52.14,-0.32 -99.71,-34.23 -112.47,-99.07 56.73,-15.59 170.6,-15.66 224.47,0.3l-0 0 -0 0 -0 0z"/>
    <path id="_121760304" class="fil6" d="M433.6 152.67c0,0 -19.47,38.06 -89.68,50.74 0,0 46.37,-0.87 63.87,-12.03 17.5,-11.15 25.81,-38.71 25.81,-38.71l-0 0z"/>
    <path id="_121760232" class="fil6" d="M201.09 152.67c0,0 19.47,38.06 89.68,50.74 0,0 -46.37,-0.87 -63.87,-12.03 -17.5,-11.15 -25.81,-38.71 -25.81,-38.71l0 0z"/>
    <path id="_119684072" class="fil1" d="M477.84 235.64c0,0 42.94,-17.87 85.44,-27.24l-2.29 -8.17c0,0 -36.29,7.3 -87.07,26.48l2.18 4.79 1.74 4.14 -0 0z"/>
    <path id="_119683568" class="fil1" d="M158.2 235.64c0,0 -42.94,-17.87 -85.44,-27.24l2.29 -8.17c0,0 36.29,7.3 87.07,26.48l-2.18 4.79 -1.74 4.14 0 0z"/>
    <path id="_119683424" class="fil1" d="M84.2 190.91c0,0 38.77,5.69 78.19,27.6l1.75 -5.48c0,0 -36.14,-20.81 -77.31,-27.82l-4.16 1.97 1.53 3.72 -0 0z"/>
    <path id="_119542952" class="fil1" d="M554.24 194.45c0,0 -38.94,4.36 -79.09,24.9l-1.56 -5.53c0,0 36.83,-19.56 78.22,-25.15l4.09 2.11 -1.66 3.67 -0 0z"/>
   </g>
  </g>
  <path class="fil8" d="M335.5 477.93c-0.34,-1.51 -0.91,-0.35 -0.2,-2.96l1.49 0.12c0.21,1.12 0.02,4.3 -2.16,4.38 0.11,-1.44 -0.24,-0.55 0.87,-1.53zm27.06 -2.4c-0.11,-1.46 -0.13,-3.27 1.17,-3.27 0.68,0 0.71,1.36 0.5,2.17 -0.27,1.02 -0.57,1.08 -1.66,1.09zm22.92 -2.28c0.48,-1.18 0,-0.6 1.12,-1.18 0.93,0.54 0.44,-0.24 0.93,1.16l-2.04 0.01zm-69.67 0c0.47,-1.17 -0,-0.61 1.12,-1.17 0.93,0.52 0.44,-0.22 0.92,1.16l-2.04 0.01zm15.29 0c0.45,-1.16 0.1,-0.72 1.23,-1.23 0.73,0.61 0.42,0.08 0.81,1.22l-2.04 0.01zm-9.69 2.61c0.09,-1.1 -0.24,-0.76 0.65,-1.23 0.49,-0.25 0.9,-0.24 1.28,-0.27 -0.57,1.14 -0.45,1.37 -1.93,1.49zm52.61 -0.32c-0.53,-1.27 -0.47,-2.85 1.18,-3.28 0.27,0.62 0.48,1.12 0.21,2.18 -0.23,0.91 -0.46,1.05 -1.39,1.1zm-32.34 0l0.24 -2.07c0.85,0.04 2.11,-0.08 2.11,0.76 0,1.48 -1.03,1.31 -2.35,1.31zm0.59 -5.57c0.83,-0 1.65,-0.26 1.95,0.44 0.25,0.59 -0.24,1.2 -1.07,1.2l-0.88 0 0 -1.63zm-47.93 -29.48c-0.04,1.44 -0.69,2.31 -2.02,2.9 0.4,-1.9 0.63,0.04 0.36,-2.13l1.66 -0.78zm-18.8 1.95c0.04,-1.07 0.27,-1.95 0.42,-3.13 0.17,-1.3 -0.06,-2.44 1.05,-2.44 1.38,0 3.53,-0.13 3.53,1.97 0,3.56 -1.65,3.61 -5,3.6zm35.3 3.74c0.62,-1.34 1.35,-1.85 2.64,-2.73 4.03,-2.74 0.76,-0.48 2.63,-2.59 0.28,0.52 0.86,4.06 0.88,4.86 -0.39,0 -2.08,0.06 -2.33,-0.01 -0.2,-0.06 -0.49,0.35 -0.56,-1.08 -0.01,-0.1 -0.01,-0.15 -0.04,-0.22 -0.54,0.74 -2.05,1.27 -3.21,1.78zm97.59 2.48c0.46,-0.77 1.99,-2.76 2.63,-3.25 0.31,0.41 0.4,0.58 0.66,1.1 -1.22,0.77 -1.65,2.07 -2.78,3.05l-0.51 -0.9zm-5.89 -2.95c0.43,-2.02 1.42,-3.25 1.76,-4.92 0.87,0.71 1.09,3.72 1.18,4.92l-2.94 0zm20 -3.94c0.51,-1.55 0.18,-4.91 1.46,-4.91 2.08,0 2.72,-0.26 4.4,0.67 0.04,4.43 -1.39,4.27 -5.86,4.23zm-38.81 32.12c0,-1.02 0.69,-2.42 1.27,-2.85 0.79,-0.59 1.94,-0.45 3.14,-0.43 1,1.69 0.88,1.16 0.88,3.93 -0.66,0.01 -1.43,-0.01 -2.07,0.02l-1.51 0.3c0.47,1.43 0.47,1.09 1.42,0.6 1.36,-0.71 -0.39,-0.32 1.95,-0.27 -0.46,2.31 -5.08,4.07 -5.08,-1.31zm-17.64 0c0,3.66 -5.51,5.34 -5.33,0.34 0.17,-4.77 5.33,-4.77 5.33,-1.32l0 0.98zm-31.67 1.31c-0.58,2.91 -4.8,2.92 -5.09,-0.01 -0.48,-4.77 2.51,-4.6 4.42,-4.58 1.01,1.71 0.88,1.15 0.88,3.93 -0.66,0.01 -1.43,-0.03 -2.07,0 -1.12,0.05 -0.73,-0.13 -1.51,0.33 0.47,1.43 0.47,1.09 1.42,0.6 1.26,-0.64 -0.2,-0.31 1.95,-0.27zm-15.29 0c-0.58,2.92 -4.83,2.88 -5.11,0 -0.14,-1.5 0.38,-3.19 0.97,-3.86 0.81,-0.91 1.92,-0.78 3.44,-0.71 1.06,1.61 0.9,1.23 0.9,3.91 -1.46,0.01 -2.73,-0.2 -3.58,0.32 0.47,1.43 0.47,1.09 1.42,0.6 1.23,-0.63 -0.14,-0.31 1.95,-0.28zm53.69 1.97c-1.66,-2.64 -0.67,-4.38 0.61,-6.55l4.12 0c0,2.34 -0.34,2.87 -0.67,5.49 -0.51,4.08 -0.15,3.4 -1.68,3.46l-0.3 -1.39c-0.02,-0.64 0.08,-0.67 0.15,-1.06l-2.23 0.07zm-5.86 -6.55c5.89,0 5.05,-0.17 4.11,6.59l-1.62 -0.2c0.17,-1.44 0.65,-3.57 0.17,-4.75 -1.66,0.48 -1.2,1.54 -1.78,4.95l-1.6 -0.19 0.71 -6.39zm-42.21 6.55c-1.1,0 -1.24,-0.29 -2.34,-0.14 -1.15,0.15 -0.88,0.28 -2.19,0.14 -1.92,-3.84 2.06,-3.83 3.17,-4.59 -0.06,-0.05 -0.15,-0.1 -0.19,-0.12 -1.55,-0.54 -0.74,0.04 -1.62,0.28 -1.52,0.4 0.28,0.32 -1.36,-0.16 0.4,-1.11 0.75,-1.74 1.79,-1.97 4.93,-1.07 2.47,4.19 2.74,6.55zm65.14 -4.26c0,-1.48 0.37,-1.43 0.88,-2.3l2.95 0.01c0.4,0.65 1.59,1.97 -0.01,1.97 -2.45,0 -0.38,-1.05 -2.06,-0.33 0.37,1.05 -0.1,0.42 1.18,0.98 0.54,0.23 0.82,0.18 1.17,0.68 0.73,1.05 0.05,2.37 -0.58,2.99 -0.06,0.04 -3.51,1.68 -4.12,-1.38 2.36,-1.74 1.3,0.93 2.77,0.14 0.81,-0.44 0.24,0.14 0.46,-0.8 -1.24,-0.21 -2.65,-0.47 -2.65,-1.97zm-7.34 4.26c-0.83,-0 -2.32,0.1 -2.97,0.06 -2.78,-0.16 -1.16,-3.64 -1.15,-6.62l1.76 0c0,2.6 -0.8,3.61 -0.29,4.92 1.52,-0.14 1.7,-1.67 1.76,-4.92l1.8 0.01 -0.92 6.55zm-72.91 0c0.62,-7.65 0.22,-6.68 4.41,-6.55 -0.18,2.47 -0.64,1.54 -2.06,2.29 -0.26,1.31 -0.59,2.63 -0.59,4.26l-1.76 0zm29.98 0c0.35,-1.45 0.45,-3.26 0.65,-4.84 0.22,-1.75 0.15,-4.08 1.11,-4.34 1.41,0 3.62,-0.15 4.35,0.73 1,1.22 0.28,2.83 -0.82,3.53 0.49,0.68 0.95,0.9 0.91,2.27 -0.1,3.54 -3.81,2.64 -6.2,2.64zm6.17 2.62c-0.02,-3.23 -0.15,-0.89 1.21,-1.95 1.39,-1.1 -0.19,-3.63 -0.53,-7.19l1.83 0.1 0.58 3.34 1.15 -3.42 1.83 0.08c-0.71,1.54 -2.72,6.94 -3.46,8.02 -0.76,1.11 -1.02,1.03 -2.6,1.03zm52.11 -11.79l-0.37 2.61 1.18 0c-0.12,1.98 -0.63,1.38 -1.46,1.97 -0.01,0.73 -0.26,2.07 -0.14,2.49l0.46 0.74c0.17,0.33 0.25,-0.12 0.32,1.03 -3.64,2.58 -2.37,-3.42 -2.43,-3.85 -0.17,-1.2 -0.47,-0.67 -0.58,-1.74 1.03,-1.17 0.95,-0.6 1.3,-2.78l1.72 -0.46zm-43.87 4.9c0,-4.63 6.15,-7.41 6.47,-1.97 -2.45,0.83 -1.07,0.19 -2.65,-0.98 -1.78,0.53 -2.95,4.03 -0.88,5.57 0.86,-0.31 0.74,-0.23 1.42,-1.38l0.37 -0.66 1.44 0.7c-1.18,4.19 -6.17,4.86 -6.17,-1.29zm-25.5 -4.9l-0.37 2.61 1.18 0c-0.12,1.75 -1.24,1.9 -1.25,1.88l-0.51 3.04c1.32,0.16 0.5,-0.32 0.96,0.62 0.16,0.33 0.03,0.69 -0.24,0.89 -0.7,0.52 -1.88,0.4 -2.31,-0.4 -0.46,-0.87 0.05,-1.77 0.12,-2.77 0.23,-3.34 -0.32,-0.04 -0.59,-2.62 1.09,-1.23 0.94,-0.52 1.3,-2.77l1.72 -0.46zm-19.18 6.14c-0.49,1.51 -1.08,2.86 -2.65,3.12 -1.9,0.31 -3.02,-0.66 -3.41,-2.21 -1.54,-6.2 5.96,-10.14 6.35,-4.12 -2.45,0.83 -1.07,0.19 -2.65,-0.98 -1.16,0.35 -1.53,1.07 -1.83,2.59 -0.3,1.5 -0.16,2.02 0.79,2.83 0.99,0.33 1.81,-1.65 1.92,-1.82 0.68,0.17 0.91,0.3 1.47,0.58zm118.16 -16.64c0.06,-1.79 0.25,-1.5 0.83,-2.67 1.48,0.16 2.35,1.33 2.78,2.67l-3.61 0zm-35.26 0c-2.17,0 -1.08,-1.9 -0.59,-2.95l4.7 -10.5c1.13,-2.42 5.47,-13.43 6.77,-13.43 6.41,0 6.26,-0.68 6.73,2.65l1.75 10.49c2.64,15.7 3.53,13.73 -3.78,13.73 -1.62,0 -1.75,-4.23 -1.77,-5.57l-6.17 -0c-0.26,1.24 -0.77,2.01 -1.26,3.19 -1.22,2.92 -0.2,2.38 -6.38,2.38zm-122.66 -20.07c0.31,-2.17 0.58,-5.26 1.25,-6.8l3.53 0c0.25,1.16 0.19,1.55 0.88,2.29 1.7,-0.84 0.62,-2.29 2.06,-2.29 2.69,0 5.77,-0.11 7.96,1.62 3.6,2.85 3.19,15.11 -5.35,16.35 -4.95,0.72 -5.2,-1.65 -5.66,2.53 -0.37,3.37 -0.24,6.38 -1.94,6.38 -6.18,0 -5.69,0.85 -4.93,-4.84 0.22,-1.64 0.67,-4.02 0.81,-5.7 2.14,1.37 2.73,2.49 3.8,3.32 -0.48,-1.54 -3.51,-4.61 -3.51,-5.55l1.1 -7.29zm54.46 20.07c-5.43,0 -5.7,0.64 -6.1,-2.37 -0.15,-1.14 -0.35,-2.22 -0.36,-3.2l-6.17 0c-0.08,0.4 -1.63,5.57 -2.94,5.57 -6.58,0 -5.78,0.51 -4.82,-2.75 1.11,-3.76 0.54,-4.1 3.1,-5.71 1.61,-1.02 1.15,-0.64 2.01,-2.36 -1.13,0.31 -1.24,0.7 -2.36,0.99 1.12,-2.97 2.35,-5.7 3.53,-8.19 5.42,0 2.04,-0.64 2.02,-3.6 -0.01,-1.55 0.56,-1.95 1.09,-3.09 0.43,-0.93 0.64,-2.16 1.6,-2.16 6.68,0 6.19,-0.64 6.75,2.64l1.8 10.77c0.41,2.29 0.81,4.72 1.21,7.17 0.29,1.79 1.73,6.3 -0.35,6.3zm-15.27 -11.13c-0.03,0.03 0.07,0.08 0.08,0.09l-0.08 -0.09zm17.62 -1c0,-1.16 0.81,-4.59 1.22,-5.85 2.27,-6.96 9.22,-11.12 15.6,-8.31 1.13,0.5 1.59,1.06 2.37,1.94 1.27,1.43 2.31,3.76 1.85,6.5 -9.87,3.57 -4.1,-0.66 -8.24,-2.32 -2.97,-1.19 -1.71,-2.47 -3.08,-3.42 -0.02,1.04 0.05,2.29 0,3.28 -0.08,1.57 -0.07,1.1 -0.82,2.04 -1.74,2.2 -2.41,7.45 -1.87,9.41 0.43,1.55 1.42,2.62 2.96,2.62 3.47,0 3.24,-5.01 4.88,-5.31l0.57 -0.07c0.02,0 0.63,0.16 0.66,0.17l3.9 1.6c0.01,5.46 -5.1,10.16 -9.7,10.16 -8.56,0 -10.29,-4.32 -10.29,-12.45zm-40.27 11.8c0,-2.36 0.58,-4.85 0.88,-7.2l1.88 -13.64c0.27,-1.84 0.14,-5.7 1.94,-5.7 3.49,0 5.29,-0.56 5.29,0.98 0,2.04 -2.14,16.04 -2.63,19.34l3.23 -0c0.36,0.85 0.24,1.42 0.58,2.29 2.63,-1.96 0.28,-2.29 5,-2.29 1.89,0 -0.28,4.42 -0.29,6.55 -4.17,0 -12.48,0.51 -15.87,-0.33zm64.97 0.33c-4.59,0 -4.97,0.85 -4.26,-3.76l2.23 -16.19c0.46,-2.92 0.46,-6.91 2.03,-6.91l14.7 0c1.12,0 0.95,0.21 1.73,0.19 5.25,-0.14 6.4,-1.42 6.28,2.41 -0.04,1.37 -0.32,9.21 0.22,10.15l3.35 -10.01c0.35,-1.08 0.64,-2.75 1.65,-2.75 1.3,0 4.59,-0.24 5.63,0.25 0.63,1.84 0.78,9.68 0.87,12.5 0.92,-0.77 0.29,0.05 0.74,-1.41 0.92,-3.02 2.37,-11.34 3.94,-11.34 6.8,0 5.88,-0.52 4.51,4.38 -0.55,1.94 -0.93,3.22 -1.46,4.93 -1.37,4.39 -5,4.19 -5.69,6.74 1.11,-0.46 1.29,-1.62 4.27,-2.47l-3.47 10.58c-0.35,1.2 -0.52,2.71 -1.68,2.71 -5.97,0 -6.05,0.56 -6.11,-2.95l-0.66 -9.83c-0.3,0.39 0.03,-0.18 -0.37,0.57 -0.19,0.36 -0.1,0.15 -0.3,0.65l-1.25 3.52c-0.63,1.71 -1.1,3.04 -1.69,4.67 -1.32,3.62 -0.72,3.22 -2.83,3.43 -1.17,0.11 -4.72,0.78 -5.32,-1.06 -0.38,-1.14 -0.8,-20.45 -0.79,-20.92l-0.43 0.88c-0.07,0.17 -0.13,0.46 -0.24,0.72l-10.87 0 -0.59 3.25c1.45,0.03 2.1,0.29 2.94,-0.64 -0.01,2.04 0.57,3.98 1.43,5.06 0.02,-1.83 -0.2,-1.97 -0.36,-3.39 -0.12,-1.07 0.14,-1.02 1.56,-1.02 3.98,0 5.01,-0.54 4.46,2.64 -0.14,0.83 -0.19,1.27 -0.29,2 -0.11,0.85 0.12,1.79 -1.28,2.18l-9.33 0.07 -0.42 3.6c12.05,0 11.48,-1.21 10.55,4.78 -0.19,1.26 -0.11,1.77 -1.34,1.77 -10.14,0 -8.64,1.13 -11.12,-3.26l-0.74 1.52c-0.2,0.84 -0.17,0.87 -0.19,1.74zm65.84 -10.81c-0.45,-1.78 -1.14,-3.49 -0.98,-5.04 0.23,-2.27 1.23,-9.29 1.97,-10.94l10.19 -0.08c1.01,0 1.14,0.24 2.06,0.33 -1.62,3.66 -1.84,1.87 -2.05,4.05l4.71 -3.01c2.68,2.04 2.64,3.93 2.64,6.82 0,3.8 -2.75,7.93 -5.59,8.19 0.19,0.86 0.17,0.66 0.52,1.39 0.66,1.37 3.23,6.4 3.29,7.5 0.22,4.55 -4.59,-1.77 -5.28,-2.32 -0.98,0.28 -1.86,1.37 -2.65,1.98 -1.02,-2.25 -2.4,-7.43 -3.53,-7.88 -0.92,0.51 -0.22,-0.33 -0.59,0.97 -1.73,6.04 2.18,10.44 -7.64,8.53 -0,-3.65 1.17,-7.44 1.18,-11.14 1.1,0.87 2.26,4.29 3.13,5.78l-1.38 -5.12zm-83.18 -43.91c-0.81,0.48 -1.36,0.87 -2.22,1.45 -2.99,2 -3.68,1.64 -2.48,7.4 -0.7,0.41 -1,0.76 -1.76,0.98 -0.55,-0.41 -1.78,-1.97 -2.04,-2.55 -0.77,-1.75 0.38,-0.61 -1.85,-2.62 -4.87,-4.38 -5.13,-6.32 -8.33,-1.57 -0.78,1.16 -1.51,2.01 -2.19,3.13 0.79,1.31 6.83,6.43 8.14,6.71l0.54 0.1c0.04,0.02 0.12,0.06 0.17,0.08 1.04,0.49 -0.06,0.6 1.74,0.65 -0.89,4.24 -3.7,0.66 -5.59,0.66 -0.98,0 -2.01,1.16 -2.65,1.64 -0.32,-0.31 0.11,0.01 -0.51,-0.42 -0.26,-0.18 -0.48,-0.31 -0.76,-0.46 -0.57,-0.32 -0.9,-0.42 -1.34,-0.8l-1.06 -1.11c-1.05,-0.99 -0.42,-0.03 -1.07,-1.43 -0.63,-1.35 -1.19,-1.38 -2.52,-2.11 -2.58,-1.42 -6.51,-5.55 -8.15,-2.32 -0.65,1.29 -2.42,5.51 -2.53,7.01 1.45,1.09 8.46,5.38 9.96,5.43l3.86 0.79c-0.26,1.1 -0.16,0.58 -0.77,1.44 -0.09,0.12 -0.47,0.64 -0.54,0.71 -0.66,0.63 -1.39,0.62 -2.14,1.55 -0.9,1.13 0.08,0.43 -1.26,1.22 -0.95,-0.71 -1.62,-2.29 -2.35,-2.29l-54.09 0c-1.07,0 -2.65,3.79 -2.65,4.92 0,6.01 1.28,6.13 3.72,11.58l6.17 12.78c0.74,1.65 1.31,2.71 2.06,4.26 1.4,2.9 2.66,5.83 4.21,8.41l30.57 0c0.39,1.62 2.77,6.37 3.63,8.41 1.27,3.03 2.09,6.14 3.43,8.96 31.07,0 65.85,0 99.36,0 1.12,-1.87 3.84,-9.77 5.12,-12.97 0.62,-1.55 1.57,-2.64 1.94,-4.4 3.53,0 7.06,0 10.58,0 6.02,0 5.46,1 7.64,-3.6 1.14,0.34 2.45,1.63 3.26,2.59 0.5,0.59 0.22,1.01 1.15,1.01l9.11 0c1.37,0 4.16,-7.37 4.7,-8.52l4.4 -8.86c1.51,-2.89 2.67,-6.07 4.25,-9.02 2.34,-4.35 5.08,-9.56 1.9,-14.52 -0.97,-1.51 -3.05,-1.03 -4.67,-1.02 -3.82,0.01 -7.64,0 -11.46,0 -0.29,1.23 -0.66,1.13 -1.38,2.07 -0.76,1 -0.52,1.09 -1.56,1.87 -0.79,-1.32 -1.59,-3.11 -2.96,-3.91 -1.34,-0.79 -0.14,-0.02 -1.74,-0.02l-36.16 0c-1.26,0 -1.12,-0.63 -2.23,-0.27 -1.18,0.38 -0.93,0.37 -1.83,-0.75 -0.65,-0.8 -0.68,-0.53 -0.93,-1.6 0.59,-0.15 1.23,-0.28 1.92,-0.51 1.63,-0.53 0.64,-0.24 1.94,-0.29 1.24,-0.05 2.2,-1.03 3.4,-1.6 1.05,-0.5 6.55,-3.38 6.55,-4.17 0,-0.91 -2.04,-5.65 -2.52,-6.69 -0.99,-2.16 -2.35,-1.3 -3.77,-0.33l-5.58 3.29c-1.68,0.94 -0.83,1.57 -2.03,2.65l-2.56 2.07c-0.19,0.1 -0.54,0.28 -0.78,0.44 -0.59,0.39 -0.3,0.17 -0.69,0.54 -4.48,-3.35 -2.41,-0.33 -6.76,-0.33 -0.84,0 -1.29,-1.2 -1.47,-1.97 1.8,-0.04 0.62,-0.04 1.57,-0.55l1.46 -0.37c0.63,-0.23 1.96,-1.6 2.51,-2.09 1.7,-1.49 3.6,-2.51 5.04,-4.21 -0.27,-1.12 -3.75,-6.23 -4.7,-6.23 -1.64,0 -4.47,3.14 -5.81,4.33 -0.79,0.7 -1.19,1.01 -1.54,1.89 -0.53,1.33 -1.46,3.15 -2.93,3.28 -1.28,-2.12 0.97,-4.72 -0.02,-6.28 -0.38,-0.6 -4.12,-3.04 -4.98,-3.55l-1.68 1.4c-0.68,0.56 -1.21,1 -1.9,1.51 -1.45,1.07 -2.82,0.05 -4.54,-0.42 -1.93,-0.53 -3.11,-0.42 -3.77,-2.68l-1.93 -4.73c-1.47,0 -1.38,0.36 -2.6,0.28 -1.64,-0.11 -3.95,-1.06 -4.79,1.3 -0.35,0.97 -0.45,1.5 -0.93,2.57 -1.14,2.58 -0.81,2.43 -3.61,3.19 -1.44,0.39 -3.32,1.49 -4.59,0.62l-3.27 -2.61c-0.53,-0.45 -0.2,-0.17 -0.48,-0.44z"/>
  <path id="_119548472" class="fil1" d="M321.84 213.59c18.04,0 34.37,7.31 46.19,19.14 0.38,0.38 0.75,0.76 1.13,1.15l-9.71 0c-10.19,-8.52 -23.3,-13.64 -37.61,-13.64 -14.31,0 -27.43,5.13 -37.61,13.64l-9.7 0c0.37,-0.39 0.74,-0.77 1.12,-1.15 11.82,-11.82 28.16,-19.14 46.19,-19.14zm-66.32 65.17l0 -15.94c1.46,0.22 3.25,0.33 4.61,0.27 2.71,-0.11 4.5,-0.98 5.48,-2.01 1.79,-1.84 1.84,-4.5 1.84,-6.29l0 -5.69c0,-1.84 -0.05,-4.17 -1.84,-6.02 -1.25,-1.3 -3.58,-2.28 -5.91,-2.28l-10.35 0 0 37.95 6.18 0zm0 -21.25l0 -11.39 2.82 0c0.6,0 1.73,0.05 2.39,0.92 0.54,0.7 0.54,1.63 0.54,2.49l0 4.07c0,1.95 -0.16,2.55 -0.27,2.76 -0.49,1.14 -1.3,1.14 -2.17,1.14l-3.31 0zm14.64 21.25l6.18 0 0 -37.95 -6.18 0 0 37.95zm28.68 -29.6c0,-2.17 -0.11,-4.5 -2.55,-6.67 -2.17,-1.9 -4.88,-2.22 -6.88,-2.22 -2.01,0 -4.72,0.33 -6.88,2.22 -2.44,2.17 -2.55,4.5 -2.55,6.67l0 21.25c0,2.17 0.11,4.5 2.55,6.67 2.17,1.9 4.88,2.22 6.88,2.22 2.01,0 4.72,-0.33 6.88,-2.22 2.44,-2.17 2.55,-4.5 2.55,-6.67l0 -21.25zm-12.69 0.22c0,-0.87 0.05,-1.9 0.6,-2.66 0.76,-1.03 1.95,-1.14 2.66,-1.14 0.7,0 1.9,0.11 2.66,1.14 0.54,0.76 0.6,1.79 0.6,2.66l0 20.82c0,0.87 -0.05,1.9 -0.6,2.66 -0.76,1.03 -1.95,1.14 -2.66,1.14 -0.7,0 -1.9,-0.11 -2.66,-1.14 -0.54,-0.76 -0.6,-1.79 -0.6,-2.66l0 -20.82zm35.24 29.38l0 -37.95 -6.18 0 0 17.4 0.32 4.01 -0.16 0 -6.34 -21.41 -6.83 0 0 37.95 6.18 0 0 -18.05 -0.27 -4.28 0.22 -0.05 6.45 22.39 6.61 0zm3.52 0l16.64 0 0 -5.31 -10.46 0 0 -12.9 7.48 0 0 -5.31 -7.48 0 0 -9.11 9.65 0 0 -5.31 -15.83 0 0 37.95zm19.08 0l16.64 0 0 -5.31 -10.46 0 0 -12.9 7.48 0 0 -5.31 -7.48 0 0 -9.11 9.65 0 0 -5.31 -15.83 0 0 37.95zm38.76 0l0 -0.27c-1.52,-0.65 -1.73,-1.68 -1.73,-5.1l0 -8.13c0,-1.57 -0.16,-3.36 -1.9,-4.88 -0.92,-0.81 -2.01,-1.14 -2.33,-1.25l0 -0.16c1.36,-0.16 2.33,-0.81 2.98,-1.46 1.41,-1.46 1.63,-3.25 1.63,-4.61l0 -4.34c0,-1.74 -0.49,-4.07 -1.63,-5.42 -1.03,-1.25 -3.14,-2.33 -6.51,-2.33l-10.19 0 0 37.95 6.18 0 0 -16.59 2.44 0c0.65,0 1.57,0.05 2.22,0.6 0.87,0.76 0.92,1.95 0.92,2.98l0 8.51c0,1.36 0,2.87 0.92,4.5l6.99 0zm-13.5 -22.28l0 -10.35 3.47 0c0.65,0 1.46,0.05 2.01,0.87 0.22,0.33 0.49,0.92 0.49,2.55l0 3.9c0,0.71 -0.05,1.84 -0.92,2.49 -0.65,0.49 -1.52,0.54 -2.28,0.54l-2.76 0zm-112.09 66.57l0 -17.67 7.37 0 0 -5.31 -7.37 0 0 -9.65 9.6 0 0 -5.31 -15.78 0 0 37.95 6.18 0zm30.41 0l-6.99 -37.95 -7.59 0 -6.99 37.95 6.4 0 1.08 -6.99 6.61 0 1.08 6.99 6.4 0zm-13.39 -12.31l2.55 -15.13 0.11 0 2.55 15.13 -5.2 0zm35.18 12.31l0 -0.27c-1.52,-0.65 -1.73,-1.68 -1.73,-5.1l0 -8.13c0,-1.57 -0.16,-3.36 -1.9,-4.88 -0.92,-0.81 -2.01,-1.14 -2.33,-1.25l0 -0.16c1.36,-0.16 2.33,-0.81 2.98,-1.46 1.41,-1.46 1.63,-3.25 1.63,-4.61l0 -4.34c0,-1.73 -0.49,-4.07 -1.63,-5.42 -1.03,-1.25 -3.14,-2.33 -6.51,-2.33l-10.19 0 0 37.95 6.18 0 0 -16.59 2.44 0c0.65,0 1.57,0.05 2.22,0.6 0.87,0.76 0.92,1.95 0.92,2.98l0 8.51c0,1.36 0,2.87 0.92,4.5l6.99 0zm-13.5 -22.28l0 -10.35 3.47 0c0.65,0 1.46,0.05 2.01,0.87 0.22,0.33 0.49,0.92 0.49,2.55l0 3.9c0,0.71 -0.05,1.84 -0.92,2.49 -0.65,0.49 -1.52,0.54 -2.28,0.54l-2.77 0zm32.1 22.28l4.45 -28.57 0.27 0 -0.33 5.04 0 23.53 6.18 0 0 -37.95 -9.76 0 -3.63 24.5 -0.22 0 -3.63 -24.5 -9.76 0 0 37.95 6.18 0 0 -23.53 -0.33 -5.04 0.27 0 4.45 28.57 5.86 0zm14.37 0l16.64 0 0 -5.31 -10.46 0 0 -12.9 7.48 0 0 -5.31 -7.48 0 0 -9.11 9.65 0 0 -5.31 -15.83 0 0 37.95zm38.76 0l0 -0.27c-1.52,-0.65 -1.73,-1.68 -1.73,-5.1l0 -8.13c0,-1.57 -0.16,-3.36 -1.9,-4.88 -0.92,-0.81 -2.01,-1.14 -2.33,-1.25l0 -0.16c1.36,-0.16 2.33,-0.81 2.98,-1.46 1.41,-1.46 1.63,-3.25 1.63,-4.61l0 -4.34c0,-1.73 -0.49,-4.07 -1.63,-5.42 -1.03,-1.25 -3.14,-2.33 -6.51,-2.33l-10.19 0 0 37.95 6.18 0 0 -16.59 2.44 0c0.65,0 1.57,0.05 2.22,0.6 0.87,0.76 0.92,1.95 0.92,2.98l0 8.51c0,1.36 0,2.87 0.92,4.5l6.99 0zm-13.5 -22.28l0 -10.35 3.47 0c0.65,0 1.46,0.05 2.01,0.87 0.22,0.33 0.49,0.92 0.49,2.55l0 3.9c0,0.71 -0.05,1.84 -0.92,2.49 -0.65,0.49 -1.52,0.54 -2.28,0.54l-2.77 0zm-2.64 27.21c-11.51,10.12 -26.6,16.27 -43.13,16.27 -16.53,0 -31.62,-6.14 -43.13,-16.27l10.93 0c9.24,6.08 20.31,9.62 32.2,9.62 11.89,0 22.95,-3.54 32.2,-9.62l10.93 0z"/>
 </g>
</svg>
