<?xml version="1.0" encoding="UTF-8"?>
<!DOCTYPE svg PUBLIC "-//W3C//DTD SVG 1.1//EN" "http://www.w3.org/Graphics/SVG/1.1/DTD/svg11.dtd">
<!-- Creator: CorelDRAW 2020 (64-Bit) -->
<svg xmlns="http://www.w3.org/2000/svg" xml:space="preserve" width="161.907mm" height="176.791mm" version="1.1" style="shape-rendering:geometricPrecision; text-rendering:geometricPrecision; image-rendering:optimizeQuality; fill-rule:evenodd; clip-rule:evenodd"
viewBox="0 0 586.32 640.22"
 xmlns:xlink="http://www.w3.org/1999/xlink"
 xmlns:xodm="http://www.corel.com/coreldraw/odm/2003">
 <defs>
  <style type="text/css">
   <![CDATA[
    .fil0 {fill:none}
    .fil1 {fill:#501D33}
    .fil3 {fill:#8C8891}
    .fil10 {fill:#C9C7D2}
    .fil2 {fill:#C9CDC7}
    .fil8 {fill:#D49293}
    .fil7 {fill:#D77D75}
    .fil4 {fill:#DFE2DF}
    .fil5 {fill:#FFCFA5}
    .fil6 {fill:white}
    .fil9 {fill:white}
    .fil11 {fill:#501D33;fill-rule:nonzero}
   ]]>
  </style>
 </defs>
 <g id="Слой_x0020_1">
  <metadata id="CorelCorpID_0Corel-Layer"/>
  <rect id="_133936424" class="fil0" width="586.32" height="640.22"/>
  <path id="_205121040" class="fil1" d="M160.2 66.86c-60.46,27.13 -110.02,132.01 -114.44,187.25 -5.06,63.29 -4.28,101.8 32.64,179.12 0,0 8.33,15.57 35.77,8.89 12.78,2.07 24.13,-3.05 30,-11.48 0.14,-0.2 15.64,-1.68 22.99,-8.84 3.34,-3.25 5.46,-6.14 4.26,-12.05 -1.57,-7.74 -3.89,-17.22 -3.89,-17.22 0,0 13.64,-13.6 11.41,-19.39 -2.23,-5.79 -30.13,-29.96 -30.18,-30.2 -19.14,-87.78 -0.37,-162.67 49.78,-223.15l40.29 -53.35c-20.24,-5.98 -57.17,-9.22 -78.63,0.41l0 -0 -0 0 -0 0z"/>
  <path id="_201721816" class="fil1" d="M426.89 66.86c60.46,27.13 110.02,132.01 114.44,187.25 5.06,63.29 4.28,101.8 -32.64,179.12 0,0 -8.33,15.57 -35.77,8.89 -12.78,2.07 -24.13,-3.05 -30,-11.48 -0.14,-0.2 -15.64,-1.68 -22.99,-8.84 -3.34,-3.25 -5.46,-6.14 -4.26,-12.05 1.57,-7.74 3.89,-17.22 3.89,-17.22 0,0 -13.64,-13.6 -11.41,-19.39 2.23,-5.79 30.13,-29.96 30.18,-30.2 19.14,-87.78 0.37,-162.67 -49.78,-223.15l-40.29 -53.35c20.24,-5.98 57.17,-9.22 78.63,0.41l-0 -0 0 0 0 0z"/>
  <path id="_201723160" class="fil1" d="M184.38 331.41c-10.93,-65 -16.57,-174.54 -23.15,-226.07 11.49,-47.32 101.88,-32.81 132.68,-26.41 30.79,-6.4 121.18,-20.91 132.68,26.41 -6.49,50.84 -11.26,159.12 -21.9,224.29 -39.95,12.69 -78.13,17.03 -111.25,16.96 -25.12,-0.05 -83.43,-5.05 -109.06,-15.18l0 -0 -0 0z"/>
  <path id="_208906640" class="fil2" d="M192.95 329.32c-10.67,-69.35 -18.52,-147.19 -22.94,-216.45 8.98,-36.97 66.38,-55.64 123.81,-55.74l0 -0 0.08 0 0.08 -0 0 0c57.43,0.1 114.83,18.77 123.81,55.74 -4.38,68.62 -12.12,145.67 -22.64,214.54 -84.49,26.12 -172.17,9.21 -202.19,1.91l-0 0 0 -0 0 0z"/>
  <path id="_208908320" class="fil3" d="M188.84 146.61c0,0 22.04,49.79 62.44,82.03 0,0 -26.94,-15.51 -35.92,-25.3 -8.98,-9.8 -26.53,-56.73 -26.53,-56.73l0 0 0 -0z"/>
  <path id="_208911776" class="fil3" d="M407.18 203.75c0,0 -21.22,39.59 -74.69,66.93 0,0 40,-8.57 70.61,-28.98l1.22 -15.51 2.86 -22.45 -0 0 0 0z"/>
  <path id="_208912112" class="fil4" d="M394.5 148.92c0,0 -21.36,49.49 -79.02,93.57 -10.11,7.73 -28.31,21.41 -0.6,7.93 15.69,-7.63 34.04,-17.94 47.53,-29.67 28.78,-25.04 32.1,-71.83 32.1,-71.83l0 0z"/>
  <path id="_208911440" class="fil3" d="M192.31 298.04c3.81,11.89 60.57,1.73 67.27,1.73 3.32,0 -18.11,13.92 -60.53,21.93l-6.74 -23.66 -0 0 -0 0z"/>
  <path id="_208910096" class="fil3" d="M192.95 329.32c-8.65,-56.21 -15.44,-118 -20.06,-176.28 0.55,-2.58 0.13,-4.1 0.55,-4.26 7.39,49.87 16.01,106.89 25.89,153.99 6.8,32.42 35.9,33.75 96.13,31.88 56.08,-1.75 92.18,-5 97.09,-52.07l22.39 -138.58c0,0 0.3,-1.36 0.83,2.15 -4.57,58.2 -12.03,124.92 -20.64,181.26 -84.49,26.12 -172.17,9.21 -202.2,1.92l0 0 0 0 -0 0z"/>
  <path id="_208908704" class="fil5" d="M366.34 73.92l-4.42 -6.12c3.06,-0.14 6.02,-0.25 8.89,-0.33 -1.47,2 -2.97,4.16 -4.47,6.45zm125.54 73.2c22.55,36.64 36.15,76.31 41.22,116.89 7.48,59.85 -3.94,112.34 -31.64,166.6 0,0 -3.36,9.9 -24.56,7.45 0,0 6.16,-10.91 5.75,-11.85 -0.42,-0.94 -10.74,10.96 -10.74,10.96 0,0 -13.04,0.05 -23.69,-9.14 0,0 -0.04,-14.73 -0.97,-14.7 -0.92,0.03 -3.89,10.91 -3.89,10.91l-13.93 -3.68c-6.36,-2.99 -8.35,-3.47 -6.62,-11.35 1.32,-6.02 3.52,-16.17 8.37,-33.22 -1.34,-1.58 -4.57,5.83 -6.94,9.89 0,0 -7.62,-8.42 -7.3,-11.29 0.32,-2.87 27.02,-23.63 27.02,-23.63 17.45,-54.76 11.24,-118.13 -7.72,-168.48 11.29,3.95 17.76,9.59 17.76,9.59 3.06,-9.99 4.28,-19.58 4.28,-19.58 10.81,5.5 15.29,9.18 15.29,9.18 3.26,-13.56 2.03,-20.29 2.03,-20.29 8.87,3.67 13.77,8.67 13.77,8.67 1.82,-10.09 3.1,-16.6 2.51,-22.96l0 0z"/>
  <path id="_208906856" class="fil6" d="M491.92 146.96c22.55,36.64 36.1,76.46 41.17,117.05 7.48,59.85 -3.94,112.34 -31.64,166.6 0,0 -0.29,0.84 -1.21,1.96 -6.12,-0.85 -12.32,-2.24 -18.39,-3.97 0.56,-1.23 0.9,-2.14 0.79,-2.39 -0.12,-0.28 -1.12,0.57 -2.46,1.9 -11.81,-3.48 -23.09,-8.17 -32.4,-12.55 -0.13,-1.35 -0.31,-2.24 -0.54,-2.23 -0.21,0.01 -0.48,0.63 -0.79,1.6 -12.27,-5.86 -20.86,-11.04 -22.27,-11.91l0.01 -0.05c27.14,9.32 72.97,13.99 72.97,13.99 44.75,-92.07 36.83,-184.65 -4.64,-259.59 0.03,-3.56 -0.34,-7.68 -0.6,-10.42l0 -0 0 0 0 0z"/>
  <path id="_208907888" class="fil7" d="M496.47 155.11c-0.14,6.34 -0.96,15.05 -3.75,23.53l-11.42 -6.52c0,0 0,8.56 -5.71,19.78l-5.5 -3.67c0,0 -2.02,4.64 -5.17,8.91l-1.73 -6.51c0,0 -7.33,10.68 -13.94,13.53l-12.2 -19.42c-0.27,-0.74 -0.55,-1.48 -0.82,-2.22 11.29,3.95 17.76,9.59 17.76,9.59 3.06,-9.99 4.28,-19.58 4.28,-19.58 10.81,5.5 15.29,9.18 15.29,9.18 3.26,-13.56 2.03,-20.29 2.03,-20.29 8.87,3.67 13.77,8.67 13.77,8.67 1.82,-10.09 2.5,-17.2 2.41,-23.66 2.25,3.65 2.59,4.92 4.7,8.69z"/>
  <path id="_208907696" class="fil7" d="M445.56 186.59c22.7,47.09 43.68,131.67 -21.13,231.41 -2.29,-1.6 -2.77,-3.58 -1.63,-8.78 1.32,-6.02 3.52,-16.17 8.37,-33.22 -1.34,-1.58 -4.57,5.83 -6.94,9.89 0,0 -7.62,-8.42 -7.3,-11.29 0.32,-2.87 27.02,-23.63 27.02,-23.63 17.45,-54.76 11.24,-118.13 -7.72,-168.48 3.62,1.27 6.75,2.71 9.33,4.08l0 -0 0 0z"/>
  <path id="_208906352" class="fil2" d="M420.81 149.3l-58.9 -81.49c40.11,-1.77 63.17,-0.03 92.36,29.91 11.78,12.08 22.62,25.91 32.28,40.88 0.29,5.86 0.09,13.17 -1.37,21.28 0,0 -7.95,-7.14 -16.92,-10.19 0,0 2.45,8.16 1.63,22.63 0,0 -6.32,-5.1 -17.13,-10.6 0,0 0.61,11.01 -2.45,21 0,0 -6.5,-5.67 -17.85,-9.62 -3.55,-8.4 -7.45,-16.37 -11.66,-23.8l-0 0 0 -0 0 0z"/>
  <path id="_208908416" class="fil4" d="M430.5 78.55c7.78,4.51 15.54,10.72 23.78,19.17 11.78,12.08 22.62,25.91 32.28,40.88 0.12,2.52 -1.07,18.77 -1.18,21.78 -14.02,-29.8 -29.38,-54.81 -54.87,-81.82l-0 -0 -0 -0z"/>
  <path id="_208907912" class="fil3" d="M420.81 149.3c-1.24,-1.71 -4.99,-6.69 -4.87,-6.74 1.12,-1.12 26.73,12.76 34.06,40.26 -2.27,-1.13 -14.57,-8.69 -17.53,-9.72 -3.55,-8.4 -7.45,-16.37 -11.66,-23.8l0 0z"/>
  <path id="_208907216" class="fil1" d="M517.3 225.34c27.04,-3.05 34.01,26.76 10.16,36.74l-10.16 -36.74z"/>
  <path id="_208906712" class="fil5" d="M527.45 262.24c8.82,-13.74 9.04,-28.93 -10.15,-37.11 0,0 -5.46,26.95 10.15,37.11z"/>
  <path id="_208907576" class="fil6" d="M526.54 263.37c10.68,-13.6 10.8,-30.41 -9.93,-38.64 8.24,5.51 15.03,22.97 9.56,37.52l0.37 1.12z"/>
  <path id="_208907096" class="fil6" d="M518.37 230.43c-2.36,1.47 -2.33,5.77 0.06,9.61 2.39,3.84 6.24,5.77 8.6,4.3 2.36,-1.47 2.33,-5.77 -0.06,-9.62 -2.39,-3.84 -6.24,-5.77 -8.6,-4.3z"/>
  <path id="_208910360" class="fil5" d="M421.93 374.74c0,0 4.38,-9.06 15.57,-14.76 11.19,-5.7 -7.73,14.96 -15.57,14.76z"/>
  <path id="_208910024" class="fil7" d="M502.64 428.24c-0.39,0.79 -0.79,1.58 -1.19,2.37 0,0 -3.36,9.9 -24.56,7.45 0,0 6.16,-10.91 5.75,-11.85 -0.42,-0.94 -10.74,10.96 -10.74,10.96 0,0 -13.04,0.05 -23.69,-9.14 0,0 -0.04,-14.73 -0.97,-14.7 -0.92,0.03 -3.18,12.03 -3.18,12.03 -7.18,-0.96 -15.43,-3.57 -20.27,-7.86 -1.73,-1.53 -2.02,-3.6 -0.99,-8.28 0.44,-2.01 0.98,-4.47 1.68,-7.5 40.2,18.06 65.9,24.35 78.16,26.52l-0 0 0 0 0 0z"/>
  <path id="_208909208" class="fil7" d="M500.42 238.58c0,0 0,13.46 18.15,20.8 0,0 -12.03,-0.41 -17.13,-5.3 -5.1,-4.89 -1.02,-15.5 -1.02,-15.5z"/>
  <path id="_208906880" class="fil1" d="M455.08 171.04c0,0 3.88,8.43 4.47,17.97 0,0 4.14,-11.89 3.59,-17.14 -0.55,-5.25 -7.62,-6.28 -8.06,-0.84z"/>
  <path id="_208907600" class="fil5" d="M220.76 73.92l4.42 -6.12c-3.06,-0.14 -6.02,-0.25 -8.89,-0.33 1.47,2 2.97,4.16 4.47,6.45zm-125.99 74.31c-22.55,36.64 -35.69,75.19 -40.76,115.78 -7.48,59.85 3.94,112.34 31.64,166.6 0,0 3.36,9.9 24.56,7.45 0,0 -6.16,-10.91 -5.75,-11.85 0.42,-0.94 10.74,10.96 10.74,10.96 0,0 13.04,0.05 23.69,-9.14 0,0 0.04,-14.73 0.97,-14.7 0.92,0.03 3.89,10.91 3.89,10.91l13.93 -3.68c6.36,-2.99 8.35,-3.47 6.62,-11.35 -1.32,-6.02 -3.52,-16.17 -8.37,-33.22 1.34,-1.58 4.57,5.83 6.94,9.89 0,0 7.62,-8.42 7.3,-11.29 -0.32,-2.87 -27.02,-23.63 -27.02,-23.63 -17.45,-54.76 -11.24,-118.13 7.72,-168.48 -11.29,3.95 -17.76,9.59 -17.76,9.59 -3.06,-9.99 -4.28,-19.58 -4.28,-19.58 -10.81,5.5 -15.29,9.18 -15.29,9.18 -3.26,-13.56 -2.03,-20.29 -2.03,-20.29 -8.87,3.67 -13.77,8.67 -13.77,8.67 -2.02,-8.26 -3.56,-15.49 -2.96,-21.85l0 0z"/>
  <path id="_208910240" class="fil6" d="M94.66 148.13c-22.55,36.64 -35.59,75.29 -40.66,115.88 -7.48,59.85 3.94,112.34 31.64,166.6 0,0 0.29,0.84 1.21,1.96 6.12,-0.85 12.32,-2.24 18.39,-3.97 -0.56,-1.23 -0.9,-2.14 -0.79,-2.39 0.12,-0.28 1.12,0.57 2.46,1.9 11.81,-3.48 23.09,-8.17 32.4,-12.55 0.13,-1.35 0.31,-2.24 0.54,-2.23 0.21,0.01 0.48,0.63 0.79,1.6 12.27,-5.86 20.86,-11.04 22.27,-11.91l-0.01 -0.05c-27.14,9.32 -72.97,13.99 -72.97,13.99 -44.75,-92.07 -36.42,-185.26 5.04,-260.2 -0.03,-3.56 -0.57,-5.9 -0.32,-8.64l-0 0 0 -0z"/>
  <path id="_208906784" class="fil7" d="M90.41 155.54c-0.11,7.08 0.58,17.87 4.95,26.36 0,0 3.87,-5.3 8.97,-7.54 0,0 -0.2,11.83 6.32,18.96l7.54 -6.12c0,0 0.82,8.97 4.08,13.66l8.36 -5.3 6.73 10.6 7.13 -4.62c1.92,-6.51 4.05,-12.87 6.37,-19.03 -11.29,3.95 -17.76,9.59 -17.76,9.59 -3.06,-9.99 -4.28,-19.58 -4.28,-19.58 -10.81,5.5 -15.29,9.18 -15.29,9.18 -3.26,-13.56 -2.03,-20.29 -2.03,-20.29 -8.87,3.67 -13.77,8.67 -13.77,8.67 -2.02,-8.26 -3.56,-15.49 -2.96,-21.85 -1.49,2.43 -2.94,4.86 -4.35,7.3z"/>
  <path id="_208905848" class="fil7" d="M141.54 186.59c-22.7,47.09 -43.68,131.67 21.13,231.41 2.29,-1.6 2.77,-3.58 1.63,-8.78 -1.32,-6.02 -3.52,-16.17 -8.37,-33.22 1.34,-1.58 4.57,5.83 6.94,9.89 0,0 7.62,-8.42 7.3,-11.29 -0.32,-2.87 -27.02,-23.63 -27.02,-23.63 -17.45,-54.76 -11.24,-118.13 7.72,-168.48 -3.62,1.27 -6.75,2.71 -9.33,4.08l0 -0 0 0z"/>
  <path id="_208908536" class="fil2" d="M166.28 149.3l58.9 -81.49c-40.11,-1.77 -63.17,-0.03 -92.36,29.91 -11.78,12.08 -22.62,25.91 -32.28,40.88 -0.29,5.86 -0.09,13.17 1.37,21.28 0,0 7.95,-7.14 16.92,-10.19 0,0 -2.45,8.16 -1.63,22.63 0,0 6.32,-5.1 17.13,-10.6 0,0 -0.61,11.01 2.45,21 0,0 6.5,-5.67 17.85,-9.62 3.55,-8.4 7.45,-16.37 11.66,-23.8l0 0 -0 -0 -0 0z"/>
  <path id="_208909184" class="fil4" d="M170.57 143.37l1.82 -2.52c3.69,-28.3 -7.99,-58.01 -10.92,-64.91 -2.61,1.28 -5.21,2.74 -7.82,4.39 4.21,10.23 14.48,37.28 16.92,63.03l0 0 0 -0z"/>
  <path id="_208907864" class="fil4" d="M415.93 146.13c-7.81,-22.2 -1,-49.99 7.98,-71.09 2.61,1.28 5.21,2.74 7.82,4.39 -4.21,10.23 -13.36,40.95 -15.8,66.69l0 -0z"/>
  <path id="_208909952" class="fil8" d="M185.7 67.04c1.54,-0.39 3.13,-0.99 4.77,-1.98 21.22,74.43 81.8,134.78 94.4,146.73l-0.94 3.79c-73.78,-52.26 -95.9,-138.63 -98.23,-148.55l0 -0 0 0z"/>
  <path id="_208910000" class="fil4" d="M156.59 78.55c-7.78,4.51 -15.54,10.72 -23.78,19.17 -11.78,12.08 -22.62,25.91 -32.28,40.88 -0.12,2.52 0.05,17.12 1.49,21.45 7.17,-24.93 26.35,-56.58 54.57,-81.49l0 -0z"/>
  <path id="_208908392" class="fil3" d="M166.28 149.3l1.47 -2.04c-0.39,-0.22 -0.77,-0.46 -1.16,-0.65 0,0 -21.42,8.24 -28.18,30.3 2.27,-1.13 13.24,-2.79 16.2,-3.82 3.55,-8.4 7.45,-16.37 11.66,-23.8z"/>
  <path id="_208906736" class="fil1" d="M69.79 225.34c-27.04,-3.05 -34.01,26.76 -10.16,36.74l10.16 -36.74z"/>
  <path id="_208907720" class="fil5" d="M59.64 262.24c-8.82,-13.74 -9.04,-28.93 10.15,-37.11 0,0 5.46,26.95 -10.15,37.11z"/>
  <path id="_208909976" class="fil6" d="M60.56 263.37c-10.68,-13.6 -10.8,-30.41 9.93,-38.64 -8.24,5.51 -15.03,22.97 -9.56,37.52l-0.37 1.12z"/>
  <path id="_208907288" class="fil6" d="M68.72 230.43c2.36,1.47 2.33,5.77 -0.06,9.61 -2.39,3.84 -6.24,5.77 -8.6,4.3 -2.36,-1.47 -2.33,-5.77 0.06,-9.62 2.39,-3.84 6.24,-5.77 8.6,-4.3z"/>
  <path id="_208906592" class="fil5" d="M165.17 374.74c0,0 -4.38,-9.06 -15.57,-14.76 -11.19,-5.7 7.73,14.96 15.57,14.76z"/>
  <path id="_208907480" class="fil7" d="M84.45 428.24c0.39,0.79 0.79,1.58 1.19,2.37 0,0 3.36,9.9 24.56,7.45 0,0 -6.16,-10.91 -5.75,-11.85 0.42,-0.94 10.74,10.96 10.74,10.96 0,0 13.04,0.05 23.69,-9.14 0,0 0.04,-14.73 0.97,-14.7 0.92,0.03 3.18,12.03 3.18,12.03 7.18,-0.96 15.43,-3.57 20.27,-7.86 1.73,-1.53 2.02,-3.6 0.99,-8.28 -0.44,-2.01 -0.98,-4.47 -1.68,-7.5 -40.2,18.06 -65.9,24.35 -78.16,26.52l0 0 -0 0 -0 0z"/>
  <path id="_208908752" class="fil7" d="M86.68 238.58c0,0 0,13.46 -18.15,20.8 0,0 12.03,-0.41 17.13,-5.3 5.1,-4.89 1.02,-15.5 1.02,-15.5z"/>
  <path id="_208905896" class="fil1" d="M132.02 171.04c0,0 -3.88,8.43 -4.47,17.97 0,0 -4.14,-11.89 -3.59,-17.14 0.55,-5.25 7.62,-6.28 8.06,-0.84z"/>
  <path id="_208908152" class="fil3" d="M263.91 228.56c-11.02,-9.78 -21.13,-20.67 -30.42,-32.09 -29.55,-36.34 -51,-79.05 -62.81,-124.35 111.17,-31.41 216.4,-7.3 252.82,3.14l-5.46 11.74c-8.31,17.87 -18.74,35.17 -29.48,51.67 -23.03,35.39 -50.73,69.2 -83.26,96.28 -3.93,3.27 -9.86,8.47 -15.09,8.75 -9.15,0.49 -19.86,-9.42 -26.31,-15.14l0 0 0 0 0 0z"/>
  <path id="_119548472" class="fil1" d="M296.78 220.13c16.05,0 30.58,6.51 41.1,17.03 0.34,0.34 0.67,0.68 1,1.03l-8.64 0c-9.06,-7.58 -20.73,-12.14 -33.47,-12.14 -12.73,0 -24.4,4.56 -33.47,12.14l-8.64 0c0.33,-0.35 0.66,-0.69 1,-1.03 10.52,-10.52 25.05,-17.03 41.1,-17.03zm-59.01 57.99l0 -14.18c1.3,0.19 2.89,0.29 4.1,0.24 2.41,-0.1 4,-0.87 4.87,-1.78 1.59,-1.64 1.64,-4 1.64,-5.6l0 -5.06c0,-1.64 -0.05,-3.71 -1.64,-5.35 -1.11,-1.16 -3.18,-2.03 -5.26,-2.03l-9.21 0 0 33.77 5.5 0zm0 -18.91l0 -10.13 2.51 0c0.53,0 1.54,0.05 2.12,0.82 0.48,0.63 0.48,1.45 0.48,2.22l0 3.62c0,1.74 -0.14,2.27 -0.24,2.46 -0.43,1.01 -1.16,1.01 -1.93,1.01l-2.94 0zm13.02 18.91l5.5 0 0 -33.77 -5.5 0 0 33.77zm25.52 -26.34c0,-1.93 -0.1,-4 -2.27,-5.93 -1.93,-1.69 -4.34,-1.98 -6.13,-1.98 -1.78,0 -4.2,0.29 -6.13,1.98 -2.17,1.93 -2.27,4 -2.27,5.93l0 18.91c0,1.93 0.1,4 2.27,5.93 1.93,1.69 4.34,1.98 6.13,1.98 1.78,0 4.2,-0.29 6.13,-1.98 2.17,-1.93 2.27,-4 2.27,-5.93l0 -18.91zm-11.29 0.19c0,-0.77 0.05,-1.69 0.53,-2.36 0.68,-0.92 1.74,-1.01 2.36,-1.01 0.63,0 1.69,0.1 2.36,1.01 0.48,0.68 0.53,1.59 0.53,2.36l0 18.52c0,0.77 -0.05,1.69 -0.53,2.36 -0.68,0.92 -1.74,1.01 -2.36,1.01 -0.63,0 -1.69,-0.1 -2.36,-1.01 -0.48,-0.68 -0.53,-1.59 -0.53,-2.36l0 -18.52zm31.36 26.15l0 -33.77 -5.5 0 0 15.48 0.29 3.57 -0.14 0 -5.64 -19.05 -6.08 0 0 33.77 5.5 0 0 -16.06 -0.24 -3.81 0.19 -0.05 5.74 19.92 5.89 0zm3.14 0l14.81 0 0 -4.73 -9.31 0 0 -11.48 6.66 0 0 -4.73 -6.66 0 0 -8.1 8.59 0 0 -4.73 -14.09 0 0 33.77zm16.98 0l14.81 0 0 -4.73 -9.31 0 0 -11.48 6.66 0 0 -4.73 -6.66 0 0 -8.1 8.59 0 0 -4.73 -14.09 0 0 33.77zm34.49 0l0 -0.24c-1.35,-0.58 -1.54,-1.5 -1.54,-4.53l0 -7.24c0,-1.4 -0.14,-2.99 -1.69,-4.34 -0.82,-0.72 -1.78,-1.01 -2.07,-1.11l0 -0.14c1.21,-0.14 2.07,-0.72 2.65,-1.3 1.25,-1.3 1.45,-2.89 1.45,-4.1l0 -3.86c0,-1.54 -0.43,-3.62 -1.45,-4.82 -0.92,-1.11 -2.8,-2.07 -5.79,-2.07l-9.07 0 0 33.77 5.5 0 0 -14.76 2.17 0c0.58,0 1.4,0.05 1.98,0.53 0.77,0.68 0.82,1.74 0.82,2.65l0 7.57c0,1.21 0,2.56 0.82,4l6.22 0zm-12.01 -19.83l0 -9.21 3.09 0c0.58,0 1.3,0.05 1.78,0.77 0.19,0.29 0.43,0.82 0.43,2.27l0 3.47c0,0.63 -0.05,1.64 -0.82,2.22 -0.58,0.43 -1.35,0.48 -2.03,0.48l-2.46 0zm-99.73 59.23l0 -15.73 6.56 0 0 -4.73 -6.56 0 0 -8.59 8.54 0 0 -4.73 -14.04 0 0 33.77 5.5 0zm27.06 0l-6.22 -33.77 -6.75 0 -6.22 33.77 5.69 0 0.96 -6.22 5.89 0 0.97 6.22 5.69 0zm-11.91 -10.95l2.27 -13.46 0.1 0 2.27 13.46 -4.63 0zm31.31 10.95l0 -0.24c-1.35,-0.58 -1.54,-1.5 -1.54,-4.53l0 -7.24c0,-1.4 -0.14,-2.99 -1.69,-4.34 -0.82,-0.72 -1.78,-1.01 -2.07,-1.11l0 -0.14c1.21,-0.14 2.07,-0.72 2.65,-1.3 1.25,-1.3 1.45,-2.89 1.45,-4.1l0 -3.86c0,-1.54 -0.43,-3.62 -1.45,-4.82 -0.92,-1.11 -2.8,-2.07 -5.79,-2.07l-9.07 0 0 33.77 5.5 0 0 -14.76 2.17 0c0.58,0 1.4,0.05 1.98,0.53 0.77,0.68 0.82,1.74 0.82,2.65l0 7.57c0,1.21 0,2.56 0.82,4l6.22 0zm-12.01 -19.83l0 -9.21 3.09 0c0.58,0 1.3,0.05 1.78,0.77 0.19,0.29 0.43,0.82 0.43,2.27l0 3.47c0,0.63 -0.05,1.64 -0.82,2.22 -0.58,0.43 -1.35,0.48 -2.03,0.48l-2.46 0zm28.56 19.83l3.96 -25.42 0.24 0 -0.29 4.49 0 20.94 5.5 0 0 -33.77 -8.68 0 -3.23 21.8 -0.19 0 -3.23 -21.8 -8.68 0 0 33.77 5.5 0 0 -20.94 -0.29 -4.49 0.24 0 3.96 25.42 5.21 0zm12.78 0l14.81 0 0 -4.73 -9.31 0 0 -11.48 6.66 0 0 -4.73 -6.66 0 0 -8.1 8.59 0 0 -4.73 -14.09 0 0 33.77zm34.49 0l0 -0.24c-1.35,-0.58 -1.54,-1.5 -1.54,-4.53l0 -7.24c0,-1.4 -0.14,-2.99 -1.69,-4.34 -0.82,-0.72 -1.78,-1.01 -2.07,-1.11l0 -0.14c1.21,-0.14 2.07,-0.72 2.65,-1.3 1.25,-1.3 1.45,-2.89 1.45,-4.1l0 -3.86c0,-1.54 -0.43,-3.62 -1.45,-4.82 -0.92,-1.11 -2.8,-2.07 -5.79,-2.07l-9.07 0 0 33.77 5.5 0 0 -14.76 2.17 0c0.58,0 1.4,0.05 1.98,0.53 0.77,0.68 0.82,1.74 0.82,2.65l0 7.57c0,1.21 0,2.56 0.82,4l6.22 0zm-12.01 -19.83l0 -9.21 3.09 0c0.58,0 1.3,0.05 1.78,0.77 0.19,0.29 0.43,0.82 0.43,2.27l0 3.47c0,0.63 -0.05,1.64 -0.82,2.22 -0.58,0.43 -1.35,0.48 -2.03,0.48l-2.46 0zm-2.35 24.21c-10.24,9.01 -23.67,14.47 -38.38,14.47 -14.71,0 -28.14,-5.47 -38.38,-14.47l9.73 0c8.23,5.41 18.07,8.56 28.65,8.56 10.58,0 20.42,-3.15 28.65,-8.56l9.73 0z"/>
  <path id="_208908968" class="fil1" d="M263.91 221.43c-11.02,-9.78 -21.13,-20.67 -30.42,-32.09 -29.55,-36.34 -51,-79.05 -62.81,-124.35 111.17,-31.41 216.4,-7.3 252.82,3.14l-5.46 11.74c-8.31,17.87 -18.74,35.17 -29.48,51.67 -23.03,35.39 -50.73,69.2 -83.26,96.28 -3.93,3.27 -9.86,8.47 -15.09,8.75 -9.15,0.49 -19.86,-9.42 -26.31,-15.14l0 0 0 0 0 0z"/>
  <path id="_208909544" class="fil2" d="M267.28 217.64c-10.77,-9.56 -20.78,-20.34 -29.85,-31.5 -29.11,-35.8 -48.2,-72.59 -59.82,-117.23 96.11,-20.34 176.05,-9.93 221.73,-0.03l16.97 2.73 -2.84 6.12c-8.01,17.22 -18.82,35.19 -29.14,51.05 -22.7,34.88 -50.21,68.47 -82.25,95.15 -2.7,2.25 -8.59,7.39 -12.12,7.58 -6.3,0.34 -14.75,-6.84 -22.67,-13.87l0 0 -0 0 0 0z"/>
  <polygon id="_208910456" class="fil4" points="367.25,153.99 355.84,149.84 358.48,144.77 "/>
  <path id="_208912136" class="fil4" d="M189.26 67.18c28.39,103.4 96.7,156.31 99.48,156.31 1.71,-1.41 3.77,-2.73 5.45,-4.17 25.02,-21.49 47.58,-46.15 64.34,-69.58 29.26,-40.92 43.76,-76.88 43.76,-76.88 -54.31,-8.43 -215.59,-15 -213.03,-5.67l0 0 0 0z"/>
  <path id="_208911176" class="fil1" d="M189.26 67.04c28.39,100.2 96.7,151.46 99.48,151.46 1.71,-1.36 3.77,-2.64 5.45,-4.04 68.7,-57.19 109.93,-145.77 109.93,-145.77 -54.31,-8.17 -217.42,-10.68 -214.86,-1.64l0 0 0 0z"/>
  <path id="_208909424" class="fil5" d="M196.14 63.97c8.34,32.62 21.54,58.88 35.42,80.67 19.67,6.36 66.91,17.45 118.51,-0.57 27.03,-36.82 41.6,-68 41.6,-68 0,0 -78.27,-15.07 -100.53,-17.29 -22.27,-2.23 -95,5.2 -95,5.2l-0 0 -0 0 -0 0z"/>
  <path id="_208908728" class="fil7" d="M212.65 110.26c5.85,12.61 12.3,24 18.91,34.37 2.23,0.72 4.81,1.5 7.71,2.29 -9.63,-13.83 -15.67,-24.56 -15.67,-24.56 -4.2,-5.68 -7.82,-9.55 -10.96,-12.1zm132.02 35.59c1.8,-0.56 3.6,-1.15 5.41,-1.78 11.67,-15.9 21.02,-30.74 27.87,-42.48 -3.48,1.98 -7.94,6.99 -13.62,16.05 -6.61,10.57 -13.24,19.94 -19.67,28.21l0 -0z"/>
  <path id="_208912376" class="fil7" d="M196.14 63.97c5.61,21.95 13.43,41.01 22.16,57.78 43.48,26.26 103.37,26.36 146.98,0.33 17.24,-26.44 30.66,-54.56 30.66,-54.56 -69.84,-13.44 -126.75,-14.06 -199.81,-3.55l0 0 -0 -0z"/>
  <path id="_208911320" class="fil9" d="M235.24 151.29c25.8,38.47 52.67,58.19 54.3,58.19 22.03,-17.53 40.82,-38.42 56.05,-58.41 -46.88,14.94 -89.55,6.42 -110.35,0.22l0 -0z"/>
  <path id="_208906520" class="fil9" d="M338.22 153.24c-39.79,10.76 -75.8,5.25 -96.88,-0.25 14.16,6.96 52.97,21.61 96.88,0.25z"/>
  <path id="_208913168" class="fil10" d="M235.24 151.29c25.8,38.47 52.67,58.19 54.3,58.19 22.03,-17.53 40.82,-38.42 56.05,-58.41 -2.24,0.71 -4.47,1.37 -6.7,1.98 -27.52,33.34 -50.04,46.17 -50.04,46.17 -16.66,-10.34 -32.73,-29.13 -44.75,-45.54 -3.28,-0.8 -6.24,-1.62 -8.86,-2.4l0 -0 0 0 -0 0z"/>
  <path id="_208912832" class="fil1" d="M343.08 158.65c0,0 -13.66,10.81 -54.84,14.48 0,0 26.5,2.24 50.77,-5.71l1.02 -2.65 3.06 -6.12 -0 0z"/>
  <path id="_208912448" class="fil1" d="M236.65 158.45c0,0 10.51,10.81 42.2,14.48 0,0 -20.4,2.24 -39.07,-5.71l-0.78 -2.65 -2.35 -6.12 -0 0z"/>
  <path id="_208909688" class="fil1" d="M434.48 76.66c0,0 -13.95,23.86 -14.65,69.81 -0.04,2.54 -3.95,-1.16 -4.44,1.32 0,0 -1.89,-43.44 14.6,-75.79l5.14 2 -0.64 2.66 0 0z"/>
  <path id="_208908944" class="fil1" d="M435.13 107.47c0,0 -8.7,-10.95 -24.28,-12.58 6.35,8.1 13.79,12.89 24.28,12.58z"/>
  <path id="_208913096" class="fil1" d="M431.43 122.01c0,0 -13.89,-1.57 -26.05,8.32 10.22,1.22 18.86,-0.66 26.05,-8.32z"/>
  <path id="_208912424" class="fil1" d="M149.99 81.76c0,0 16.6,23.65 17.3,69.61 0.04,2.54 3.95,-1.16 4.44,1.32 0,0 2.7,-42.83 -16.23,-75.59l-3.51 1.8 -2.01 2.86 0 0z"/>
  <path id="_208911680" class="fil1" d="M150.62 109.62c0,0 4.13,-13.36 18.05,-20.54 -2.98,9.85 -8.16,17.02 -18.05,20.54z"/>
  <path id="_208911152" class="fil1" d="M155.9 129.35c0,0 13.89,-1.57 26.05,8.32 -10.22,1.22 -18.86,-0.66 -26.05,-8.32z"/>
  <path id="_208908584" class="fil1" d="M359.8 131.54c0,0 -10.6,8.16 -41.39,13.86 0,0 24.47,-1.02 39.35,-6.12l2.45 -2.65 -0.41 -5.1z"/>
  <path id="_208910672" class="fil1" d="M222.99 131.54c0,0 10.6,8.16 41.39,13.86 0,0 -24.47,-1.02 -39.35,-6.12l-2.45 -2.65 0.41 -5.1z"/>
  <path id="_208910216" class="fil11" d="M81.13 284.76c-0.7,0.41 -1.6,0.18 -2.01,-0.51 -0.41,-0.7 -0.18,-1.6 0.51,-2.01 2.09,-1.24 4.72,-1.3 7.09,-0.47 1.45,0.51 2.81,1.35 3.9,2.46 1.12,1.14 1.95,2.55 2.29,4.17 0.48,2.24 0.03,4.83 -1.88,7.53 -2.14,3.04 -4.6,3.86 -6.82,3.42 -1.44,-0.29 -2.72,-1.13 -3.72,-2.24 -0.95,-1.07 -1.65,-2.43 -1.96,-3.8 -0.54,-2.38 0.05,-4.81 2.37,-6.19 2.26,-1.34 4.1,-1.27 5.47,-0.5 0.04,0.02 0.07,0.04 0.11,0.07 0.62,0.38 1.12,0.9 1.49,1.51 0.37,0.6 0.61,1.27 0.73,1.95 0.32,1.79 -0.19,3.73 -1.51,4.69 -0.66,0.47 -1.57,0.33 -2.05,-0.33 -0.47,-0.66 -0.33,-1.57 0.33,-2.05 0.37,-0.27 0.48,-1.02 0.34,-1.79 -0.06,-0.35 -0.18,-0.68 -0.35,-0.95 -0.13,-0.22 -0.3,-0.4 -0.49,-0.52l-0.05 -0.03c-0.51,-0.29 -1.33,-0.24 -2.53,0.47 -1.03,0.61 -1.27,1.81 -0.99,3.01 0.2,0.89 0.66,1.78 1.3,2.5 0.59,0.67 1.32,1.16 2.1,1.32 1.14,0.23 2.5,-0.33 3.85,-2.23 1.38,-1.95 1.72,-3.73 1.41,-5.22 -0.22,-1.05 -0.77,-1.98 -1.51,-2.73 -0.77,-0.78 -1.74,-1.38 -2.78,-1.75 -1.6,-0.56 -3.32,-0.55 -4.62,0.22zm8.32 119.71c0,-0.69 19.05,2.9 39.77,-12.63 1.72,-1.29 2.15,-0.56 0.8,0.97 -20.32,22.89 -41.31,12.69 -40.56,11.67zm-2.31 -10.58c0,-0.69 19.05,2.9 39.76,-12.64 1.72,-1.29 2.15,-0.56 0.8,0.97 -20.32,22.9 -41.31,12.69 -40.56,11.67zm-0.91 -120.44c0.72,0.52 0.89,1.53 0.37,2.26 -0.52,0.72 -1.53,0.89 -2.26,0.37 -3.33,-2.4 -4.02,-5.64 -3.23,-8.54 0.38,-1.4 1.12,-2.72 2.08,-3.8 0.98,-1.1 2.18,-1.97 3.47,-2.47 2.48,-0.96 5.23,-0.64 7.36,1.85 0.2,0.23 0.4,0.49 0.59,0.78 0.91,1.33 1.48,2.91 1.59,4.39 0.12,1.69 -0.35,3.27 -1.59,4.33 -0.02,0.02 -0.05,0.04 -0.08,0.06 -0.09,0.07 -0.19,0.15 -0.3,0.22 -2.15,1.47 -4.26,1.27 -5.83,0.34 -0.58,-0.34 -1.08,-0.79 -1.48,-1.3 -0.4,-0.51 -0.71,-1.09 -0.89,-1.69 -0.43,-1.44 -0.14,-2.94 1.15,-3.93 0.71,-0.55 1.72,-0.42 2.27,0.29 0.55,0.71 0.42,1.72 -0.29,2.27 -0.09,0.07 -0.09,0.25 -0.03,0.46 0.06,0.2 0.17,0.4 0.32,0.6 0.16,0.2 0.36,0.39 0.6,0.53 0.59,0.35 1.42,0.4 2.34,-0.23 0.02,-0.01 0.04,-0.03 0.06,-0.05l0.03 -0.03c0.38,-0.33 0.52,-0.94 0.47,-1.64 -0.07,-0.92 -0.43,-1.93 -1.03,-2.79 -0.11,-0.16 -0.24,-0.32 -0.38,-0.5 -1.08,-1.26 -2.47,-1.42 -3.73,-0.93 -0.81,0.32 -1.58,0.87 -2.21,1.58 -0.64,0.72 -1.14,1.59 -1.39,2.51 -0.46,1.69 -0.02,3.6 2,5.06zm33.78 63.94c0.52,0.37 0.64,1.1 0.26,1.62 -0.38,0.52 -1.1,0.64 -1.62,0.26 -2.39,-1.72 -2.88,-4.04 -2.32,-6.12 0.27,-1.01 0.8,-1.95 1.49,-2.73 0.7,-0.79 1.56,-1.41 2.49,-1.77 1.78,-0.69 3.75,-0.46 5.28,1.32 0.14,0.17 0.28,0.35 0.42,0.56 0.65,0.95 1.06,2.09 1.14,3.15 0.09,1.21 -0.25,2.35 -1.14,3.11 -0.02,0.01 -0.04,0.03 -0.05,0.04 -0.07,0.05 -0.14,0.11 -0.22,0.16 -1.54,1.06 -3.05,0.91 -4.18,0.24 -0.42,-0.25 -0.78,-0.57 -1.06,-0.93 -0.29,-0.37 -0.51,-0.78 -0.63,-1.21 -0.31,-1.03 -0.1,-2.11 0.83,-2.82 0.51,-0.39 1.23,-0.3 1.63,0.21 0.39,0.51 0.3,1.24 -0.21,1.63 -0.07,0.05 -0.07,0.18 -0.02,0.33 0.04,0.14 0.12,0.29 0.23,0.43 0.12,0.15 0.26,0.28 0.43,0.38 0.42,0.25 1.02,0.28 1.68,-0.16 0.01,-0.01 0.03,-0.02 0.04,-0.03l0.02 -0.02c0.27,-0.24 0.37,-0.67 0.34,-1.18 -0.05,-0.66 -0.31,-1.38 -0.74,-2 -0.08,-0.11 -0.17,-0.23 -0.27,-0.36 -0.77,-0.9 -1.77,-1.02 -2.67,-0.67 -0.58,0.23 -1.14,0.63 -1.59,1.14 -0.46,0.52 -0.82,1.14 -1,1.8 -0.33,1.21 -0.01,2.58 1.44,3.63zm-44.24 -2.96c0.68,-0.19 1.38,0.22 1.56,0.89 0.18,0.68 -0.22,1.38 -0.89,1.56 -4.75,1.29 -8.28,-0.48 -10.38,-3.39 -1.04,-1.43 -1.71,-3.14 -2,-4.88 -0.29,-1.74 -0.19,-3.53 0.32,-5.13 0.95,-2.97 3.27,-5.25 7.11,-5.36 0.38,-0.01 0.78,0 1.19,0.03 1.94,0.15 3.86,0.81 5.32,1.83 1.6,1.11 2.67,2.66 2.72,4.49 0,0.03 0,0.06 0,0.08 0,0.14 -0,0.29 -0.02,0.44 -0.24,2.99 -1.92,4.73 -3.88,5.45 -0.73,0.27 -1.5,0.4 -2.23,0.39 -0.74,-0.01 -1.47,-0.15 -2.11,-0.42 -1.51,-0.62 -2.57,-1.87 -2.53,-3.6 0.02,-0.71 0.6,-1.26 1.31,-1.24 0.7,0.01 1.26,0.6 1.24,1.3 -0.01,0.53 0.38,0.95 0.94,1.18 0.35,0.14 0.75,0.22 1.18,0.23 0.44,0.01 0.89,-0.07 1.31,-0.22 1.11,-0.41 2.08,-1.44 2.22,-3.27 0,-0.06 0.01,-0.12 0.01,-0.19l-0 -0.05c-0.03,-0.94 -0.67,-1.81 -1.64,-2.48 -1.1,-0.77 -2.57,-1.27 -4.07,-1.39 -0.29,-0.02 -0.59,-0.03 -0.9,-0.02 -2.57,0.07 -4.12,1.6 -4.76,3.58 -0.38,1.2 -0.45,2.58 -0.22,3.93 0.23,1.37 0.75,2.69 1.55,3.8 1.53,2.11 4.12,3.39 7.65,2.43zm60.06 -35.98c-0.2,-0.75 0.26,-1.52 1.01,-1.71 0.75,-0.19 1.52,0.26 1.71,1.01 1.36,5.28 -0.66,9.17 -3.91,11.45 -1.6,1.13 -3.5,1.85 -5.43,2.14 -1.94,0.29 -3.92,0.16 -5.67,-0.43 -3.28,-1.1 -5.76,-3.7 -5.82,-7.96 -0.01,-0.42 0.01,-0.86 0.06,-1.31 0.2,-2.14 0.96,-4.26 2.11,-5.86 1.26,-1.75 2.99,-2.92 5.02,-2.95 0.03,-0 0.06,-0 0.09,-0 0.16,0 0.32,0.01 0.49,0.03 3.31,0.31 5.21,2.2 5.97,4.37 0.29,0.82 0.41,1.66 0.4,2.47 -0.02,0.82 -0.19,1.62 -0.5,2.34 -0.71,1.66 -2.11,2.82 -4.02,2.75 -0.78,-0.03 -1.39,-0.69 -1.36,-1.47 0.03,-0.77 0.69,-1.38 1.46,-1.35 0.59,0.02 1.06,-0.41 1.32,-1.03 0.16,-0.38 0.25,-0.83 0.27,-1.31 0.01,-0.49 -0.06,-0.99 -0.23,-1.46 -0.44,-1.24 -1.57,-2.33 -3.59,-2.51 -0.07,-0 -0.14,-0.01 -0.21,-0.01l-0.06 -0c-1.05,0.02 -2.01,0.72 -2.77,1.78 -0.87,1.21 -1.44,2.83 -1.6,4.49 -0.02,0.32 -0.04,0.65 -0.04,1 0.04,2.84 1.7,4.59 3.89,5.33 1.33,0.44 2.85,0.54 4.36,0.3 1.51,-0.23 2.99,-0.79 4.23,-1.66 2.36,-1.66 3.82,-4.51 2.81,-8.44zm-36.6 11.42c0.62,0.33 0.86,1.1 0.54,1.72 -0.33,0.62 -1.1,0.86 -1.72,0.53 -4.36,-2.29 -5.74,-5.99 -5.3,-9.55 0.22,-1.76 0.88,-3.47 1.86,-4.93 0.97,-1.47 2.26,-2.72 3.72,-3.54 2.72,-1.53 5.97,-1.61 8.86,0.92 0.28,0.25 0.57,0.53 0.84,0.83 1.32,1.43 2.28,3.23 2.65,4.96 0.41,1.9 0.14,3.77 -1.06,5.15 -0.02,0.02 -0.04,0.04 -0.06,0.06 -0.1,0.11 -0.2,0.21 -0.31,0.31 -2.21,2.03 -4.63,2.15 -6.55,1.35 -0.72,-0.3 -1.37,-0.73 -1.9,-1.23 -0.54,-0.51 -0.97,-1.11 -1.26,-1.75 -0.68,-1.48 -0.61,-3.12 0.59,-4.36 0.49,-0.5 1.3,-0.51 1.8,-0.02 0.5,0.49 0.51,1.3 0.02,1.8 -0.37,0.38 -0.36,0.96 -0.11,1.51 0.16,0.34 0.4,0.67 0.71,0.97 0.32,0.3 0.7,0.56 1.11,0.73 1.1,0.46 2.51,0.36 3.86,-0.88 0.04,-0.04 0.09,-0.09 0.13,-0.13l0.04 -0.04c0.62,-0.71 0.74,-1.78 0.49,-2.93 -0.28,-1.31 -1.02,-2.68 -2.04,-3.79 -0.2,-0.21 -0.41,-0.42 -0.65,-0.63 -1.93,-1.69 -4.11,-1.64 -5.93,-0.61 -1.1,0.62 -2.08,1.58 -2.84,2.73 -0.76,1.15 -1.28,2.48 -1.45,3.83 -0.32,2.59 0.71,5.29 3.95,6.99zm14.48 -27.94c0.62,0.33 0.86,1.1 0.54,1.72 -0.33,0.62 -1.1,0.86 -1.72,0.53 -4.36,-2.29 -5.74,-5.99 -5.3,-9.55 0.22,-1.76 0.88,-3.47 1.86,-4.93 0.97,-1.47 2.26,-2.72 3.72,-3.54 2.72,-1.53 5.97,-1.61 8.86,0.92 0.28,0.25 0.57,0.53 0.84,0.83 1.32,1.43 2.28,3.23 2.65,4.96 0.41,1.9 0.14,3.77 -1.06,5.15 -0.02,0.02 -0.04,0.04 -0.06,0.06 -0.1,0.11 -0.2,0.21 -0.31,0.31 -2.21,2.03 -4.63,2.15 -6.55,1.35 -0.72,-0.3 -1.37,-0.73 -1.9,-1.23 -0.54,-0.51 -0.97,-1.11 -1.26,-1.75 -0.68,-1.48 -0.61,-3.12 0.59,-4.36 0.49,-0.5 1.3,-0.51 1.8,-0.02 0.5,0.49 0.51,1.3 0.02,1.8 -0.37,0.38 -0.36,0.96 -0.11,1.51 0.16,0.34 0.4,0.67 0.71,0.97 0.32,0.3 0.7,0.56 1.11,0.73 1.1,0.46 2.51,0.36 3.86,-0.88 0.04,-0.04 0.09,-0.09 0.13,-0.13l0.04 -0.04c0.62,-0.71 0.74,-1.78 0.49,-2.93 -0.28,-1.31 -1.02,-2.68 -2.04,-3.79 -0.2,-0.21 -0.41,-0.42 -0.65,-0.63 -1.93,-1.69 -4.11,-1.64 -5.93,-0.61 -1.1,0.62 -2.08,1.58 -2.84,2.73 -0.76,1.15 -1.28,2.48 -1.45,3.83 -0.32,2.59 0.71,5.29 3.95,6.99zm-45.16 -1.22c-0.25,-0.77 0.17,-1.6 0.94,-1.85 0.77,-0.25 1.6,0.17 1.85,0.95 0.75,2.32 0.23,4.9 -1.1,7.03 -0.82,1.3 -1.94,2.45 -3.27,3.27 -1.36,0.84 -2.92,1.34 -4.58,1.32 -2.3,-0.03 -4.72,-1.04 -6.94,-3.5 -2.49,-2.76 -2.76,-5.35 -1.83,-7.42 0.6,-1.34 1.7,-2.41 3.01,-3.14 1.26,-0.7 2.73,-1.08 4.14,-1.08 2.44,0 4.69,1.11 5.52,3.68 0.81,2.51 0.34,4.29 -0.72,5.45 -0.03,0.03 -0.06,0.06 -0.09,0.09 -0.51,0.52 -1.13,0.9 -1.8,1.12 -0.66,0.22 -1.38,0.31 -2.07,0.28 -1.82,-0.08 -3.6,-1.01 -4.25,-2.51 -0.32,-0.75 0.03,-1.61 0.77,-1.93 0.75,-0.32 1.61,0.03 1.93,0.78 0.18,0.42 0.89,0.69 1.67,0.72 0.35,0.01 0.7,-0.02 1.01,-0.13 0.24,-0.08 0.45,-0.2 0.62,-0.36l0.04 -0.04c0.4,-0.43 0.53,-1.25 0.1,-2.58 -0.37,-1.14 -1.49,-1.63 -2.72,-1.63 -0.92,-0 -1.89,0.26 -2.72,0.72 -0.79,0.43 -1.43,1.04 -1.75,1.76 -0.47,1.07 -0.24,2.52 1.33,4.25 1.6,1.78 3.27,2.51 4.79,2.52 1.07,0.01 2.1,-0.32 3,-0.87 0.93,-0.58 1.73,-1.39 2.32,-2.33 0.9,-1.43 1.27,-3.12 0.8,-4.56zm39.96 40.37c-0.25,-0.77 0.17,-1.6 0.94,-1.85 0.77,-0.25 1.6,0.17 1.85,0.95 0.75,2.32 0.23,4.9 -1.1,7.03 -0.82,1.3 -1.94,2.45 -3.27,3.27 -1.36,0.84 -2.92,1.34 -4.58,1.32 -2.3,-0.03 -4.72,-1.04 -6.94,-3.5 -2.49,-2.76 -2.76,-5.35 -1.83,-7.42 0.6,-1.34 1.7,-2.41 3.01,-3.14 1.26,-0.7 2.73,-1.08 4.14,-1.08 2.44,0 4.69,1.11 5.52,3.68 0.81,2.51 0.34,4.29 -0.72,5.45 -0.03,0.03 -0.06,0.06 -0.09,0.09 -0.51,0.52 -1.13,0.9 -1.8,1.12 -0.66,0.22 -1.38,0.31 -2.07,0.28 -1.82,-0.08 -3.6,-1.01 -4.25,-2.51 -0.32,-0.75 0.03,-1.61 0.77,-1.93 0.75,-0.32 1.61,0.03 1.93,0.78 0.18,0.42 0.89,0.69 1.67,0.72 0.35,0.01 0.7,-0.02 1.01,-0.13 0.24,-0.08 0.45,-0.2 0.62,-0.36l0.04 -0.04c0.4,-0.43 0.53,-1.25 0.1,-2.58 -0.37,-1.14 -1.49,-1.63 -2.72,-1.63 -0.92,-0 -1.89,0.26 -2.72,0.72 -0.79,0.43 -1.43,1.04 -1.75,1.76 -0.47,1.07 -0.24,2.52 1.33,4.25 1.6,1.78 3.27,2.51 4.79,2.52 1.07,0.01 2.1,-0.32 3,-0.87 0.93,-0.58 1.73,-1.39 2.32,-2.33 0.9,-1.43 1.27,-3.12 0.8,-4.56zm-42.3 36.39c-0.23,0.78 -1.05,1.22 -1.82,0.99 -0.78,-0.23 -1.22,-1.05 -0.99,-1.82 0.69,-2.34 2.57,-4.17 4.87,-5.17 1.41,-0.61 2.98,-0.92 4.53,-0.85 1.59,0.07 3.16,0.55 4.51,1.49 1.88,1.32 3.31,3.52 3.75,6.79 0.5,3.68 -0.74,5.96 -2.67,7.15 -1.25,0.77 -2.76,1.03 -4.25,0.89 -1.43,-0.14 -2.86,-0.65 -4.02,-1.44 -2.01,-1.38 -3.24,-3.56 -2.48,-6.14 0.75,-2.52 2.14,-3.73 3.67,-4.09 0.04,-0.01 0.08,-0.02 0.12,-0.02 0.72,-0.15 1.44,-0.1 2.12,0.09 0.67,0.19 1.31,0.52 1.87,0.93 1.45,1.09 2.4,2.87 2.09,4.46 -0.16,0.8 -0.93,1.31 -1.73,1.15 -0.79,-0.16 -1.31,-0.93 -1.15,-1.72 0.09,-0.45 -0.35,-1.07 -0.97,-1.54 -0.28,-0.21 -0.59,-0.37 -0.9,-0.46 -0.24,-0.07 -0.49,-0.09 -0.71,-0.05l-0.05 0.01c-0.57,0.13 -1.14,0.73 -1.53,2.07 -0.34,1.15 0.3,2.19 1.32,2.88 0.75,0.52 1.7,0.85 2.65,0.94 0.89,0.09 1.76,-0.05 2.43,-0.47 0.99,-0.61 1.61,-1.94 1.3,-4.25 -0.32,-2.37 -1.28,-3.91 -2.52,-4.78 -0.88,-0.62 -1.91,-0.92 -2.96,-0.97 -1.1,-0.05 -2.22,0.17 -3.22,0.61 -1.55,0.68 -2.81,1.85 -3.23,3.31zm23.85 -14.27c-0.23,0.78 -1.05,1.22 -1.82,0.99 -0.78,-0.23 -1.22,-1.05 -0.99,-1.82 0.69,-2.34 2.57,-4.17 4.87,-5.17 1.41,-0.61 2.98,-0.92 4.53,-0.85 1.59,0.07 3.16,0.55 4.51,1.49 1.88,1.32 3.31,3.52 3.75,6.79 0.5,3.68 -0.74,5.96 -2.67,7.15 -1.25,0.77 -2.76,1.03 -4.25,0.89 -1.43,-0.14 -2.86,-0.65 -4.02,-1.44 -2.01,-1.38 -3.24,-3.56 -2.48,-6.14 0.75,-2.52 2.14,-3.73 3.67,-4.09 0.04,-0.01 0.08,-0.02 0.12,-0.02 0.72,-0.15 1.44,-0.1 2.12,0.09 0.67,0.19 1.31,0.52 1.87,0.93 1.45,1.09 2.4,2.87 2.09,4.46 -0.16,0.8 -0.93,1.31 -1.73,1.15 -0.79,-0.16 -1.31,-0.93 -1.15,-1.72 0.09,-0.45 -0.35,-1.07 -0.97,-1.54 -0.28,-0.21 -0.59,-0.37 -0.9,-0.46 -0.24,-0.07 -0.49,-0.09 -0.71,-0.05l-0.05 0.01c-0.57,0.13 -1.14,0.73 -1.53,2.07 -0.34,1.15 0.3,2.19 1.32,2.88 0.75,0.52 1.7,0.85 2.65,0.94 0.89,0.09 1.76,-0.05 2.43,-0.47 0.99,-0.61 1.61,-1.94 1.3,-4.25 -0.32,-2.37 -1.28,-3.91 -2.52,-4.78 -0.88,-0.62 -1.91,-0.92 -2.96,-0.97 -1.1,-0.05 -2.22,0.17 -3.22,0.61 -1.55,0.68 -2.81,1.85 -3.23,3.31zm-24.02 -43.98c-0.7,0.41 -1.6,0.18 -2.01,-0.51 -0.41,-0.7 -0.18,-1.6 0.51,-2.01 2.09,-1.24 4.72,-1.3 7.09,-0.47 1.45,0.51 2.81,1.35 3.9,2.46 1.12,1.14 1.95,2.55 2.29,4.17 0.48,2.24 0.03,4.83 -1.88,7.53 -2.14,3.04 -4.6,3.86 -6.82,3.42 -1.44,-0.29 -2.72,-1.13 -3.72,-2.24 -0.95,-1.07 -1.65,-2.43 -1.96,-3.8 -0.54,-2.38 0.05,-4.81 2.37,-6.19 2.26,-1.34 4.1,-1.27 5.47,-0.5 0.04,0.02 0.07,0.04 0.11,0.07 0.62,0.38 1.12,0.9 1.49,1.51 0.37,0.6 0.61,1.27 0.73,1.95 0.32,1.79 -0.19,3.73 -1.51,4.69 -0.66,0.47 -1.57,0.33 -2.05,-0.33 -0.47,-0.66 -0.33,-1.57 0.33,-2.05 0.37,-0.27 0.48,-1.02 0.34,-1.79 -0.06,-0.35 -0.18,-0.68 -0.35,-0.95 -0.13,-0.22 -0.3,-0.4 -0.49,-0.52l-0.05 -0.03c-0.51,-0.29 -1.33,-0.24 -2.53,0.47 -1.03,0.61 -1.27,1.81 -0.99,3.01 0.2,0.89 0.66,1.78 1.3,2.5 0.59,0.67 1.32,1.16 2.1,1.32 1.14,0.23 2.5,-0.33 3.85,-2.23 1.38,-1.95 1.72,-3.73 1.41,-5.22 -0.22,-1.05 -0.77,-1.98 -1.51,-2.73 -0.77,-0.78 -1.74,-1.38 -2.78,-1.75 -1.6,-0.56 -3.32,-0.55 -4.62,0.22z"/>
  <path id="_208912664" class="fil11" d="M506.21 284.76c0.7,0.41 1.6,0.18 2.01,-0.51 0.41,-0.7 0.18,-1.6 -0.51,-2.01 -2.09,-1.24 -4.72,-1.3 -7.09,-0.47 -1.45,0.51 -2.81,1.35 -3.9,2.46 -1.12,1.14 -1.95,2.55 -2.29,4.17 -0.48,2.24 -0.03,4.83 1.88,7.53 2.14,3.04 4.6,3.86 6.82,3.42 1.44,-0.29 2.72,-1.13 3.72,-2.24 0.95,-1.07 1.65,-2.43 1.96,-3.8 0.54,-2.38 -0.05,-4.81 -2.37,-6.19 -2.26,-1.34 -4.1,-1.27 -5.47,-0.5 -0.04,0.02 -0.07,0.04 -0.11,0.07 -0.62,0.38 -1.12,0.9 -1.49,1.51 -0.37,0.6 -0.61,1.27 -0.73,1.95 -0.32,1.79 0.19,3.73 1.51,4.69 0.66,0.47 1.57,0.33 2.05,-0.33 0.47,-0.66 0.33,-1.57 -0.33,-2.05 -0.37,-0.27 -0.48,-1.02 -0.34,-1.79 0.06,-0.35 0.18,-0.68 0.35,-0.95 0.13,-0.22 0.3,-0.4 0.49,-0.52l0.05 -0.03c0.51,-0.29 1.33,-0.24 2.53,0.47 1.03,0.61 1.27,1.81 0.99,3.01 -0.2,0.89 -0.66,1.78 -1.3,2.5 -0.59,0.67 -1.32,1.16 -2.1,1.32 -1.14,0.23 -2.5,-0.33 -3.85,-2.23 -1.38,-1.95 -1.72,-3.73 -1.41,-5.22 0.22,-1.05 0.77,-1.98 1.51,-2.73 0.77,-0.78 1.74,-1.38 2.78,-1.75 1.6,-0.56 3.32,-0.55 4.62,0.22zm-8.32 119.71c-0,-0.69 -19.05,2.9 -39.77,-12.63 -1.72,-1.29 -2.15,-0.56 -0.8,0.97 20.32,22.89 41.31,12.69 40.56,11.67zm2.31 -10.58c-0,-0.69 -19.05,2.9 -39.76,-12.64 -1.72,-1.29 -2.15,-0.56 -0.8,0.97 20.32,22.9 41.31,12.69 40.56,11.67zm0.91 -120.44c-0.72,0.52 -0.89,1.53 -0.37,2.26 0.52,0.72 1.53,0.89 2.26,0.37 3.33,-2.4 4.02,-5.64 3.23,-8.54 -0.38,-1.4 -1.12,-2.72 -2.08,-3.8 -0.98,-1.1 -2.18,-1.97 -3.47,-2.47 -2.48,-0.96 -5.23,-0.64 -7.36,1.85 -0.2,0.23 -0.4,0.49 -0.59,0.78 -0.91,1.33 -1.48,2.91 -1.59,4.39 -0.12,1.69 0.35,3.27 1.59,4.33 0.02,0.02 0.05,0.04 0.08,0.06 0.09,0.07 0.19,0.15 0.3,0.22 2.15,1.47 4.26,1.27 5.83,0.34 0.58,-0.34 1.08,-0.79 1.48,-1.3 0.4,-0.51 0.71,-1.09 0.89,-1.69 0.43,-1.44 0.14,-2.94 -1.15,-3.93 -0.71,-0.55 -1.72,-0.42 -2.27,0.29 -0.55,0.71 -0.42,1.72 0.29,2.27 0.09,0.07 0.09,0.25 0.03,0.46 -0.06,0.2 -0.17,0.4 -0.32,0.6 -0.16,0.2 -0.36,0.39 -0.6,0.53 -0.59,0.35 -1.42,0.4 -2.34,-0.23 -0.02,-0.01 -0.04,-0.03 -0.06,-0.05l-0.03 -0.03c-0.38,-0.33 -0.52,-0.94 -0.47,-1.64 0.07,-0.92 0.43,-1.93 1.03,-2.79 0.11,-0.16 0.24,-0.32 0.38,-0.5 1.08,-1.26 2.47,-1.42 3.73,-0.93 0.81,0.32 1.58,0.87 2.21,1.58 0.64,0.72 1.14,1.59 1.39,2.51 0.46,1.69 0.02,3.6 -2,5.06zm-33.78 63.94c-0.52,0.37 -0.64,1.1 -0.26,1.62 0.38,0.52 1.1,0.64 1.62,0.26 2.39,-1.72 2.88,-4.04 2.32,-6.12 -0.27,-1.01 -0.8,-1.95 -1.49,-2.73 -0.7,-0.79 -1.56,-1.41 -2.49,-1.77 -1.78,-0.69 -3.75,-0.46 -5.28,1.32 -0.14,0.17 -0.28,0.35 -0.42,0.56 -0.65,0.95 -1.06,2.09 -1.14,3.15 -0.09,1.21 0.25,2.35 1.14,3.11 0.02,0.01 0.04,0.03 0.05,0.04 0.07,0.05 0.14,0.11 0.22,0.16 1.54,1.06 3.05,0.91 4.18,0.24 0.42,-0.25 0.78,-0.57 1.06,-0.93 0.29,-0.37 0.51,-0.78 0.63,-1.21 0.31,-1.03 0.1,-2.11 -0.83,-2.82 -0.51,-0.39 -1.23,-0.3 -1.63,0.21 -0.39,0.51 -0.3,1.24 0.21,1.63 0.07,0.05 0.07,0.18 0.02,0.33 -0.04,0.14 -0.12,0.29 -0.23,0.43 -0.12,0.15 -0.26,0.28 -0.43,0.38 -0.42,0.25 -1.02,0.28 -1.68,-0.16 -0.01,-0.01 -0.03,-0.02 -0.04,-0.03l-0.02 -0.02c-0.27,-0.24 -0.37,-0.67 -0.34,-1.18 0.05,-0.66 0.31,-1.38 0.74,-2 0.08,-0.11 0.17,-0.23 0.27,-0.36 0.77,-0.9 1.77,-1.02 2.67,-0.67 0.58,0.23 1.14,0.63 1.59,1.14 0.46,0.52 0.82,1.14 1,1.8 0.33,1.21 0.01,2.58 -1.44,3.63zm44.24 -2.96c-0.68,-0.19 -1.38,0.22 -1.56,0.89 -0.18,0.68 0.22,1.38 0.89,1.56 4.75,1.29 8.28,-0.48 10.38,-3.39 1.04,-1.43 1.71,-3.14 2,-4.88 0.29,-1.74 0.19,-3.53 -0.32,-5.13 -0.95,-2.97 -3.27,-5.25 -7.11,-5.36 -0.38,-0.01 -0.78,0 -1.19,0.03 -1.94,0.15 -3.86,0.81 -5.32,1.83 -1.6,1.11 -2.67,2.66 -2.72,4.49 -0,0.03 -0,0.06 -0,0.08 -0,0.14 0,0.29 0.02,0.44 0.24,2.99 1.92,4.73 3.88,5.45 0.73,0.27 1.5,0.4 2.23,0.39 0.74,-0.01 1.47,-0.15 2.11,-0.42 1.51,-0.62 2.57,-1.87 2.53,-3.6 -0.02,-0.71 -0.6,-1.26 -1.31,-1.24 -0.7,0.01 -1.26,0.6 -1.24,1.3 0.01,0.53 -0.38,0.95 -0.94,1.18 -0.35,0.14 -0.75,0.22 -1.18,0.23 -0.44,0.01 -0.89,-0.07 -1.31,-0.22 -1.11,-0.41 -2.08,-1.44 -2.22,-3.27 -0,-0.06 -0.01,-0.12 -0.01,-0.19l0 -0.05c0.03,-0.94 0.67,-1.81 1.64,-2.48 1.1,-0.77 2.57,-1.27 4.07,-1.39 0.29,-0.02 0.59,-0.03 0.9,-0.02 2.57,0.07 4.12,1.6 4.76,3.58 0.38,1.2 0.45,2.58 0.22,3.93 -0.23,1.37 -0.75,2.69 -1.55,3.8 -1.53,2.11 -4.12,3.39 -7.65,2.43zm-60.06 -35.98c0.2,-0.75 -0.26,-1.52 -1.01,-1.71 -0.75,-0.19 -1.52,0.26 -1.71,1.01 -1.36,5.28 0.66,9.17 3.91,11.45 1.6,1.13 3.5,1.85 5.43,2.14 1.94,0.29 3.92,0.16 5.67,-0.43 3.28,-1.1 5.76,-3.7 5.82,-7.96 0.01,-0.42 -0.01,-0.86 -0.06,-1.31 -0.2,-2.14 -0.96,-4.26 -2.11,-5.86 -1.26,-1.75 -2.99,-2.92 -5.02,-2.95 -0.03,-0 -0.06,-0 -0.09,-0 -0.16,0 -0.32,0.01 -0.49,0.03 -3.31,0.31 -5.21,2.2 -5.97,4.37 -0.29,0.82 -0.41,1.66 -0.4,2.47 0.02,0.82 0.19,1.62 0.5,2.34 0.71,1.66 2.11,2.82 4.02,2.75 0.78,-0.03 1.39,-0.69 1.36,-1.47 -0.03,-0.77 -0.69,-1.38 -1.46,-1.35 -0.59,0.02 -1.06,-0.41 -1.32,-1.03 -0.16,-0.38 -0.25,-0.83 -0.27,-1.31 -0.01,-0.49 0.06,-0.99 0.23,-1.46 0.44,-1.24 1.57,-2.33 3.59,-2.51 0.07,-0 0.14,-0.01 0.21,-0.01l0.06 -0c1.05,0.02 2.01,0.72 2.77,1.78 0.87,1.21 1.44,2.83 1.6,4.49 0.02,0.32 0.04,0.65 0.04,1 -0.04,2.84 -1.7,4.59 -3.89,5.33 -1.33,0.44 -2.85,0.54 -4.36,0.3 -1.51,-0.23 -2.99,-0.79 -4.23,-1.66 -2.36,-1.66 -3.82,-4.51 -2.81,-8.44zm36.6 11.42c-0.62,0.33 -0.86,1.1 -0.54,1.72 0.33,0.62 1.1,0.86 1.72,0.53 4.36,-2.29 5.74,-5.99 5.3,-9.55 -0.22,-1.76 -0.88,-3.47 -1.86,-4.93 -0.97,-1.47 -2.26,-2.72 -3.72,-3.54 -2.72,-1.53 -5.97,-1.61 -8.86,0.92 -0.28,0.25 -0.57,0.53 -0.84,0.83 -1.32,1.43 -2.28,3.23 -2.65,4.96 -0.41,1.9 -0.14,3.77 1.06,5.15 0.02,0.02 0.04,0.04 0.06,0.06 0.1,0.11 0.2,0.21 0.31,0.31 2.21,2.03 4.63,2.15 6.55,1.35 0.72,-0.3 1.37,-0.73 1.9,-1.23 0.54,-0.51 0.97,-1.11 1.26,-1.75 0.68,-1.48 0.61,-3.12 -0.59,-4.36 -0.49,-0.5 -1.3,-0.51 -1.8,-0.02 -0.5,0.49 -0.51,1.3 -0.02,1.8 0.37,0.38 0.36,0.96 0.11,1.51 -0.16,0.34 -0.4,0.67 -0.71,0.97 -0.32,0.3 -0.7,0.56 -1.11,0.73 -1.1,0.46 -2.51,0.36 -3.86,-0.88 -0.04,-0.04 -0.09,-0.09 -0.13,-0.13l-0.04 -0.04c-0.62,-0.71 -0.74,-1.78 -0.49,-2.93 0.28,-1.31 1.02,-2.68 2.04,-3.79 0.2,-0.21 0.41,-0.42 0.65,-0.63 1.93,-1.69 4.11,-1.64 5.93,-0.61 1.1,0.62 2.08,1.58 2.84,2.73 0.76,1.15 1.28,2.48 1.45,3.83 0.32,2.59 -0.71,5.29 -3.95,6.99zm-14.48 -27.94c-0.62,0.33 -0.86,1.1 -0.54,1.72 0.33,0.62 1.1,0.86 1.72,0.53 4.36,-2.29 5.74,-5.99 5.3,-9.55 -0.22,-1.76 -0.88,-3.47 -1.86,-4.93 -0.97,-1.47 -2.26,-2.72 -3.72,-3.54 -2.72,-1.53 -5.97,-1.61 -8.86,0.92 -0.28,0.25 -0.57,0.53 -0.84,0.83 -1.32,1.43 -2.28,3.23 -2.65,4.96 -0.41,1.9 -0.14,3.77 1.06,5.15 0.02,0.02 0.04,0.04 0.06,0.06 0.1,0.11 0.2,0.21 0.31,0.31 2.21,2.03 4.63,2.15 6.55,1.35 0.72,-0.3 1.37,-0.73 1.9,-1.23 0.54,-0.51 0.97,-1.11 1.26,-1.75 0.68,-1.48 0.61,-3.12 -0.59,-4.36 -0.49,-0.5 -1.3,-0.51 -1.8,-0.02 -0.5,0.49 -0.51,1.3 -0.02,1.8 0.37,0.38 0.36,0.96 0.11,1.51 -0.16,0.34 -0.4,0.67 -0.71,0.97 -0.32,0.3 -0.7,0.56 -1.11,0.73 -1.1,0.46 -2.51,0.36 -3.86,-0.88 -0.04,-0.04 -0.09,-0.09 -0.13,-0.13l-0.04 -0.04c-0.62,-0.71 -0.74,-1.78 -0.49,-2.93 0.28,-1.31 1.02,-2.68 2.04,-3.79 0.2,-0.21 0.41,-0.42 0.65,-0.63 1.93,-1.69 4.11,-1.64 5.93,-0.61 1.1,0.62 2.08,1.58 2.84,2.73 0.76,1.15 1.28,2.48 1.45,3.83 0.32,2.59 -0.71,5.29 -3.95,6.99zm45.16 -1.22c0.25,-0.77 -0.17,-1.6 -0.94,-1.85 -0.77,-0.25 -1.6,0.17 -1.85,0.95 -0.75,2.32 -0.23,4.9 1.1,7.03 0.82,1.3 1.94,2.45 3.27,3.27 1.36,0.84 2.92,1.34 4.58,1.32 2.3,-0.03 4.72,-1.04 6.94,-3.5 2.49,-2.76 2.76,-5.35 1.83,-7.42 -0.6,-1.34 -1.7,-2.41 -3.01,-3.14 -1.26,-0.7 -2.73,-1.08 -4.14,-1.08 -2.44,0 -4.69,1.11 -5.52,3.68 -0.81,2.51 -0.34,4.29 0.72,5.45 0.03,0.03 0.06,0.06 0.09,0.09 0.51,0.52 1.13,0.9 1.8,1.12 0.66,0.22 1.38,0.31 2.07,0.28 1.82,-0.08 3.6,-1.01 4.25,-2.51 0.32,-0.75 -0.03,-1.61 -0.77,-1.93 -0.75,-0.32 -1.61,0.03 -1.93,0.78 -0.18,0.42 -0.89,0.69 -1.67,0.72 -0.35,0.01 -0.7,-0.02 -1.01,-0.13 -0.24,-0.08 -0.45,-0.2 -0.62,-0.36l-0.04 -0.04c-0.4,-0.43 -0.53,-1.25 -0.1,-2.58 0.37,-1.14 1.49,-1.63 2.72,-1.63 0.92,-0 1.89,0.26 2.72,0.72 0.79,0.43 1.43,1.04 1.75,1.76 0.47,1.07 0.24,2.52 -1.33,4.25 -1.6,1.78 -3.27,2.51 -4.79,2.52 -1.07,0.01 -2.1,-0.32 -3,-0.87 -0.93,-0.58 -1.73,-1.39 -2.32,-2.33 -0.9,-1.43 -1.27,-3.12 -0.8,-4.56zm-39.96 40.37c0.25,-0.77 -0.17,-1.6 -0.94,-1.85 -0.77,-0.25 -1.6,0.17 -1.85,0.95 -0.75,2.32 -0.23,4.9 1.1,7.03 0.82,1.3 1.94,2.45 3.27,3.27 1.36,0.84 2.92,1.34 4.58,1.32 2.3,-0.03 4.72,-1.04 6.94,-3.5 2.49,-2.76 2.76,-5.35 1.83,-7.42 -0.6,-1.34 -1.7,-2.41 -3.01,-3.14 -1.26,-0.7 -2.73,-1.08 -4.14,-1.08 -2.44,0 -4.69,1.11 -5.52,3.68 -0.81,2.51 -0.34,4.29 0.72,5.45 0.03,0.03 0.06,0.06 0.09,0.09 0.51,0.52 1.13,0.9 1.8,1.12 0.66,0.22 1.38,0.31 2.07,0.28 1.82,-0.08 3.6,-1.01 4.25,-2.51 0.32,-0.75 -0.03,-1.61 -0.77,-1.93 -0.75,-0.32 -1.61,0.03 -1.93,0.78 -0.18,0.42 -0.89,0.69 -1.67,0.72 -0.35,0.01 -0.7,-0.02 -1.01,-0.13 -0.24,-0.08 -0.45,-0.2 -0.62,-0.36l-0.04 -0.04c-0.4,-0.43 -0.53,-1.25 -0.1,-2.58 0.37,-1.14 1.49,-1.63 2.72,-1.63 0.92,-0 1.89,0.26 2.72,0.72 0.79,0.43 1.43,1.04 1.75,1.76 0.47,1.07 0.24,2.52 -1.33,4.25 -1.6,1.78 -3.27,2.51 -4.79,2.52 -1.07,0.01 -2.1,-0.32 -3,-0.87 -0.93,-0.58 -1.73,-1.39 -2.32,-2.33 -0.9,-1.43 -1.27,-3.12 -0.8,-4.56zm42.3 36.39c0.23,0.78 1.05,1.22 1.82,0.99 0.78,-0.23 1.22,-1.05 0.99,-1.82 -0.69,-2.34 -2.57,-4.17 -4.87,-5.17 -1.41,-0.61 -2.98,-0.92 -4.53,-0.85 -1.59,0.07 -3.16,0.55 -4.51,1.49 -1.88,1.32 -3.31,3.52 -3.75,6.79 -0.5,3.68 0.74,5.96 2.67,7.15 1.25,0.77 2.76,1.03 4.25,0.89 1.43,-0.14 2.86,-0.65 4.02,-1.44 2.01,-1.38 3.24,-3.56 2.48,-6.14 -0.75,-2.52 -2.14,-3.73 -3.67,-4.09 -0.04,-0.01 -0.08,-0.02 -0.12,-0.02 -0.72,-0.15 -1.44,-0.1 -2.12,0.09 -0.67,0.19 -1.31,0.52 -1.87,0.93 -1.45,1.09 -2.4,2.87 -2.09,4.46 0.16,0.8 0.93,1.31 1.73,1.15 0.79,-0.16 1.31,-0.93 1.15,-1.72 -0.09,-0.45 0.35,-1.07 0.97,-1.54 0.28,-0.21 0.59,-0.37 0.9,-0.46 0.24,-0.07 0.49,-0.09 0.71,-0.05l0.05 0.01c0.57,0.13 1.14,0.73 1.53,2.07 0.34,1.15 -0.3,2.19 -1.32,2.88 -0.75,0.52 -1.7,0.85 -2.65,0.94 -0.89,0.09 -1.76,-0.05 -2.43,-0.47 -0.99,-0.61 -1.61,-1.94 -1.3,-4.25 0.32,-2.37 1.28,-3.91 2.52,-4.78 0.88,-0.62 1.91,-0.92 2.96,-0.97 1.1,-0.05 2.22,0.17 3.22,0.61 1.55,0.68 2.81,1.85 3.23,3.31zm-23.85 -14.27c0.23,0.78 1.05,1.22 1.82,0.99 0.78,-0.23 1.22,-1.05 0.99,-1.82 -0.69,-2.34 -2.57,-4.17 -4.87,-5.17 -1.41,-0.61 -2.98,-0.92 -4.53,-0.85 -1.59,0.07 -3.16,0.55 -4.51,1.49 -1.88,1.32 -3.31,3.52 -3.75,6.79 -0.5,3.68 0.74,5.96 2.67,7.15 1.25,0.77 2.76,1.03 4.25,0.89 1.43,-0.14 2.86,-0.65 4.02,-1.44 2.01,-1.38 3.24,-3.56 2.48,-6.14 -0.75,-2.52 -2.14,-3.73 -3.67,-4.09 -0.04,-0.01 -0.08,-0.02 -0.12,-0.02 -0.72,-0.15 -1.44,-0.1 -2.12,0.09 -0.67,0.19 -1.31,0.52 -1.87,0.93 -1.45,1.09 -2.4,2.87 -2.09,4.46 0.16,0.8 0.93,1.31 1.73,1.15 0.79,-0.16 1.31,-0.93 1.15,-1.72 -0.09,-0.45 0.35,-1.07 0.97,-1.54 0.28,-0.21 0.59,-0.37 0.9,-0.46 0.24,-0.07 0.49,-0.09 0.71,-0.05l0.05 0.01c0.57,0.13 1.14,0.73 1.53,2.07 0.34,1.15 -0.3,2.19 -1.32,2.88 -0.75,0.52 -1.7,0.85 -2.65,0.94 -0.89,0.09 -1.76,-0.05 -2.43,-0.47 -0.99,-0.61 -1.61,-1.94 -1.3,-4.25 0.32,-2.37 1.28,-3.91 2.52,-4.78 0.88,-0.62 1.91,-0.92 2.96,-0.97 1.1,-0.05 2.22,0.17 3.22,0.61 1.55,0.68 2.81,1.85 3.23,3.31zm24.02 -43.98c0.7,0.41 1.6,0.18 2.01,-0.51 0.41,-0.7 0.18,-1.6 -0.51,-2.01 -2.09,-1.24 -4.72,-1.3 -7.09,-0.47 -1.45,0.51 -2.81,1.35 -3.9,2.46 -1.12,1.14 -1.95,2.55 -2.29,4.17 -0.48,2.24 -0.03,4.83 1.88,7.53 2.14,3.04 4.6,3.86 6.82,3.42 1.44,-0.29 2.72,-1.13 3.72,-2.24 0.95,-1.07 1.65,-2.43 1.96,-3.8 0.54,-2.38 -0.05,-4.81 -2.37,-6.19 -2.26,-1.34 -4.1,-1.27 -5.47,-0.5 -0.04,0.02 -0.07,0.04 -0.11,0.07 -0.62,0.38 -1.12,0.9 -1.49,1.51 -0.37,0.6 -0.61,1.27 -0.73,1.95 -0.32,1.79 0.19,3.73 1.51,4.69 0.66,0.47 1.57,0.33 2.05,-0.33 0.47,-0.66 0.33,-1.57 -0.33,-2.05 -0.37,-0.27 -0.48,-1.02 -0.34,-1.79 0.06,-0.35 0.18,-0.68 0.35,-0.95 0.13,-0.22 0.3,-0.4 0.49,-0.52l0.05 -0.03c0.51,-0.29 1.33,-0.24 2.53,0.47 1.03,0.61 1.27,1.81 0.99,3.01 -0.2,0.89 -0.66,1.78 -1.3,2.5 -0.59,0.67 -1.32,1.16 -2.1,1.32 -1.14,0.23 -2.5,-0.33 -3.85,-2.23 -1.38,-1.95 -1.72,-3.73 -1.41,-5.22 0.22,-1.05 0.77,-1.98 1.51,-2.73 0.77,-0.78 1.74,-1.38 2.78,-1.75 1.6,-0.56 3.32,-0.55 4.62,0.22z"/>
  <polygon id="_208911728" class="fil1" points="177.82,252.32 223.2,262.73 179.04,262.11 "/>
  <polygon id="_208914848" class="fil1" points="355.11,144.79 367.46,154.3 372.24,166.81 372.04,150.79 360.21,138.47 "/>
  <path id="_208914944" class="fil1" d="M365.61 129.46l14.45 11.8 -10.18 -16.59c0,0 -4.38,4.68 -4.27,4.78z"/>
 </g>
</svg>
