<?xml version="1.0" encoding="UTF-8"?>
<!DOCTYPE svg PUBLIC "-//W3C//DTD SVG 1.1//EN" "http://www.w3.org/Graphics/SVG/1.1/DTD/svg11.dtd">
<!-- Creator: CorelDRAW 2020 (64-Bit) -->
<svg xmlns="http://www.w3.org/2000/svg" xml:space="preserve" width="161.909mm" height="176.792mm" version="1.1" style="shape-rendering:geometricPrecision; text-rendering:geometricPrecision; image-rendering:optimizeQuality; fill-rule:evenodd; clip-rule:evenodd"
viewBox="0 0 546.74 596.99"
 xmlns:xlink="http://www.w3.org/1999/xlink"
 xmlns:xodm="http://www.corel.com/coreldraw/odm/2003">
 <defs>
  <style type="text/css">
   <![CDATA[
    .fil0 {fill:none}
    .fil1 {fill:#501D33}
    .fil12 {fill:#525B75}
    .fil11 {fill:#65798E}
    .fil6 {fill:#8C8891}
    .fil8 {fill:#C9C7D2}
    .fil5 {fill:#C9CDC7}
    .fil4 {fill:#D77D75}
    .fil7 {fill:#DFE2DF}
    .fil2 {fill:#FFCFA5}
    .fil3 {fill:white}
    .fil9 {fill:white}
    .fil10 {fill:#501D33;fill-rule:nonzero}
   ]]>
  </style>
 </defs>
 <g id="Слой_x0020_1">
  <metadata id="CorelCorpID_0Corel-Layer"/>
  <rect id="_119805880" class="fil0" width="546.74" height="596.99"/>
  <path id="_119805808" class="fil1" d="M124.4 259.86l16.21 -2.76 -0.7 -3.16 -16.12 1.39c0,0 -0.6,2.2 0.61,4.53zm-60.09 43.93c0.25,0.99 -0.35,1.99 -1.34,2.24 -0.99,0.25 -1.99,-0.35 -2.24,-1.34 -0.25,-0.99 0.35,-1.99 1.34,-2.24 0.99,-0.25 1.99,0.35 2.24,1.34zm-11.52 -54.31l-16.21 -2.76 0.7 -3.16 16.12 1.39c0,0 0.6,2.2 -0.61,4.53zm-5.39 26.18l-10.97 0.74 -0.04 -2.16 10.7 -1.61c0,0 0.73,1.34 0.31,3.04zm3.03 28.24l-12.44 3.73 -0.61 -2.48 11.9 -4.66c0,0 1.19,1.35 1.16,3.42zm3.48 -35.15l-18.44 -1.86 0.55 -3.6 18.22 0.33c0,0 0.84,2.42 -0.33,5.13zm69.35 10.38l18.44 -1.86 -0.55 -3.6 -18.22 0.33c0,0 -0.84,2.42 0.33,5.13zm4.36 8.27l12.99 0.31 -0.07 -2.55 -12.7 -1.36c0,0 -0.8,1.61 -0.22,3.6z"/>
  <path id="_119543888" class="fil1" d="M149.36 61.93c-56.38,25.3 -102.59,123.09 -106.71,174.61 -4.72,59.01 -3.99,94.93 30.43,167.02 0,0 7.49,15.37 33.07,9.15 11.54,0.98 22.98,-3.04 28.45,-10.89 0.13,-0.19 14.39,-2.23 21.25,-8.91 3.11,-3.03 5.09,-5.72 3.97,-11.24 -1.46,-7.22 -3.63,-16.05 -3.63,-16.05 0,0 12.72,-12.68 10.64,-18.08 -2.08,-5.4 -28.1,-27.94 -28.14,-28.16 -17.85,-81.86 -0.35,-151.68 46.42,-208.08l37.57 -49.75c-18.88,-5.57 -53.31,-8.6 -73.32,0.39l-0 0z"/>
  <path id="_119543816" class="fil2" d="M155.03 138.8l54.92 -75.99c-37.4,-1.65 -58.9,-0.03 -86.13,27.89 -38.72,39.71 -66.56,99.62 -73.49,155.07 -6.97,55.81 3.68,104.75 29.51,155.35 0,0 3.14,9.24 22.9,6.95 0,0 -5.75,-10.17 -5.36,-11.05 0.39,-0.88 10.02,10.22 10.02,10.22 0,0 12.16,0.04 22.09,-8.52 0,0 0.04,-13.74 0.9,-13.71 0.86,0.03 3.63,10.17 3.63,10.17l12.99 -3.43c5.93,-2.79 7.79,-3.23 6.18,-10.58 -1.23,-5.61 -3.29,-15.08 -7.8,-30.97 1.25,-1.47 4.27,5.43 6.48,9.23 0,0 7.11,-7.85 6.8,-10.53 -0.3,-2.68 -25.2,-22.03 -25.2,-22.03 -20.12,-63.12 -6.51,-138.53 21.58,-188.07l0 -0z"/>
  <path id="_119543744" class="fil3" d="M143.72 80.03c-7.26,4.21 -14.49,9.99 -22.17,17.87 -38.72,39.71 -64.29,92.41 -71.22,147.86 -6.97,55.81 3.68,104.75 29.51,155.35 0,0 0.27,0.78 1.13,1.83 5.71,-0.8 11.48,-2.09 17.15,-3.7 -0.52,-1.14 -0.84,-2 -0.73,-2.23 0.12,-0.26 1.05,0.53 2.29,1.78 11.01,-3.25 21.53,-7.62 30.22,-11.71 0.12,-1.26 0.29,-2.09 0.5,-2.08 0.19,0.01 0.45,0.59 0.74,1.5 11.44,-5.46 19.45,-10.3 20.77,-11.1l-0.01 -0.05c-25.31,8.7 -68.04,13.05 -68.04,13.05 -57.66,-118.61 -19.96,-237.88 59.88,-308.37l0 -0 0 -0 0 0z"/>
  <path id="_119544464" class="fil4" d="M155.03 138.8l1.37 -1.9c-0.36,-0.2 -0.72,-0.43 -1.08,-0.61 0,0 -96.78,109.77 -3.66,253.07 2.14,-1.49 2.59,-3.33 1.52,-8.19 -1.23,-5.61 -3.29,-15.08 -7.8,-30.97 1.25,-1.47 4.27,5.43 6.48,9.23 0,0 7.11,-7.85 6.8,-10.53 -0.3,-2.68 -25.2,-22.03 -25.2,-22.03 -20.12,-63.12 -6.51,-138.53 21.58,-188.07l0 -0z"/>
  <path id="_119543312" class="fil1" d="M65.05 209.71c-25.21,-2.85 -31.71,24.95 -9.47,34.26l9.47 -34.26z"/>
  <path id="_119543600" class="fil2" d="M55.59 244.11c-8.22,-12.81 -8.43,-26.97 9.46,-34.6 0,0 5.09,25.13 -9.46,34.6z"/>
  <path id="_119543528" class="fil3" d="M56.44 245.17c-9.95,-12.69 -10.07,-28.35 9.26,-36.03 -7.68,5.14 -14.02,21.42 -8.91,34.99l-0.34 1.05z"/>
  <path id="_119543456" class="fil3" d="M64.05 214.45c2.2,1.37 2.18,5.38 -0.05,8.97 -2.23,3.58 -5.82,5.38 -8.02,4.01 -2.2,-1.37 -2.18,-5.38 0.05,-8.97 2.23,-3.58 5.82,-5.38 8.02,-4.01z"/>
  <path id="_119543096" class="fil2" d="M153.99 349.02c0,0 -4.08,-8.45 -14.52,-13.76 -10.44,-5.31 7.21,13.95 14.52,13.76z"/>
  <path id="_119543024" class="fil4" d="M78.72 398.91c0.37,0.74 0.74,1.48 1.11,2.21 0,0 3.14,9.24 22.9,6.95 0,0 -5.75,-10.17 -5.36,-11.05 0.39,-0.88 10.02,10.22 10.02,10.22 0,0 12.16,0.04 22.09,-8.53 0,0 0.04,-13.74 0.9,-13.71 0.86,0.03 2.96,11.22 2.96,11.22 6.7,-0.89 14.39,-3.33 18.9,-7.33 1.62,-1.43 1.88,-3.36 0.92,-7.72 -0.41,-1.87 -0.91,-4.17 -1.57,-7 -37.49,16.84 -61.45,22.71 -72.89,24.73z"/>
  <path id="_88446128" class="fil4" d="M80.8 222.05c0,0 0,12.55 -16.92,19.39 0,0 11.22,-0.38 15.97,-4.94 4.75,-4.56 0.95,-14.45 0.95,-14.45z"/>
  <path id="_119541680" class="fil1" d="M171.92 308.41c-9.91,-60.77 -15.89,-163.21 -21.93,-210.6 10.72,-44.12 95,-30.59 123.72,-24.63 28.71,-5.97 113,-19.5 123.72,24.63 -6.05,47.39 -12.21,149.64 -22.12,210.41 -53.93,20.51 -149.45,20.7 -203.38,0.19l0 0 0 -0z"/>
  <path id="_119542880" class="fil1" d="M424.44 263.48l-16.21 -2.76 0.7 -3.16 16.12 1.39c0,0 0.6,2.2 -0.61,4.53zm60.09 43.93c-0.25,0.99 0.35,1.99 1.34,2.24 0.99,0.25 1.99,-0.35 2.24,-1.34 0.25,-0.99 -0.35,-1.99 -1.34,-2.24 -0.99,-0.25 -1.99,0.35 -2.24,1.34zm11.52 -54.31l16.21 -2.76 -0.7 -3.16 -16.12 1.39c0,0 -0.6,2.2 0.61,4.53zm5.39 26.18l10.97 0.74 0.04 -2.16 -10.7 -1.61c0,0 -0.73,1.34 -0.31,3.04zm-3.03 28.24l12.44 3.73 0.61 -2.48 -11.9 -4.66c0,0 -1.19,1.35 -1.16,3.42zm-3.48 -35.15l18.44 -1.86 -0.55 -3.6 -18.22 0.33c0,0 -0.84,2.42 0.33,5.13zm-69.35 10.38l-18.44 -1.86 0.55 -3.6 18.22 0.33c0,0 0.84,2.42 -0.33,5.13zm-4.36 8.27l-12.99 0.31 0.07 -2.55 12.7 -1.36c0,0 0.8,1.61 0.22,3.6z"/>
  <path id="_119542808" class="fil1" d="M398.15 61.74c56.38,25.3 102.59,123.09 106.71,174.61 4.72,59.01 3.42,95.5 -31,167.59 0,0 -7.77,14.52 -33.35,8.29 -11.91,1.12 -22.5,-3.56 -27.98,-10.7 -0.14,-0.18 -14.01,-2.13 -20.87,-8.81 -3.11,-3.03 -5.09,-5.72 -3.97,-11.24 1.46,-7.22 3.63,-16.05 3.63,-16.05 0,0 -12.72,-12.68 -10.64,-18.08 2.08,-5.4 28.1,-27.94 28.14,-28.16 17.85,-81.86 0.35,-151.68 -46.42,-208.08l-37.57 -49.75c18.88,-5.57 53.31,-8.6 73.32,0.39l0 0z"/>
  <path id="_119542736" class="fil2" d="M392.48 138.61l-54.92 -75.99c37.4,-1.65 58.9,-0.03 86.13,27.89 38.72,39.71 66.56,99.62 73.49,155.07 6.97,55.81 -3.68,104.75 -29.51,155.35 0,0 -3.14,9.24 -22.9,6.95 0,0 5.75,-10.17 5.36,-11.05 -0.39,-0.88 -10.02,10.22 -10.02,10.22 0,0 -12.16,0.04 -22.09,-8.52 0,0 -0.04,-13.74 -0.9,-13.71 -0.86,0.03 -3.63,10.17 -3.63,10.17l-12.99 -3.43c-5.93,-2.79 -7.79,-3.23 -6.18,-10.58 1.23,-5.61 3.29,-15.08 7.8,-30.97 -1.25,-1.47 -4.27,5.43 -6.48,9.23 0,0 -7.11,-7.85 -6.8,-10.53 0.3,-2.68 25.2,-22.03 25.2,-22.03 20.12,-63.12 6.51,-138.53 -21.58,-188.07l0 -0z"/>
  <path id="_119543168" class="fil4" d="M392.48 138.61l-1.37 -1.9c0.36,-0.2 0.72,-0.43 1.08,-0.61 0,0 96.78,109.77 3.66,253.07 -2.14,-1.49 -2.59,-3.33 -1.52,-8.19 1.23,-5.61 3.29,-15.08 7.8,-30.97 -1.25,-1.47 -4.27,5.43 -6.48,9.23 0,0 -7.11,-7.85 -6.8,-10.53 0.3,-2.68 25.2,-22.03 25.2,-22.03 20.12,-63.12 6.51,-138.53 -21.58,-188.07l0 -0z"/>
  <path id="_119542664" class="fil5" d="M415.79 201.28c-5.09,-20.43 -13.28,-42.24 -25.95,-64.57l-54.92 -75.99c37.4,-1.65 58.9,-0.03 86.13,27.89 24.26,24.89 44.26,57.7 57.51,92.38 -21.74,5.1 -45.6,13.61 -62.77,20.29z"/>
  <path id="_119542592" class="fil6" d="M415.79 201.28c-5.09,-20.43 -13.28,-42.24 -25.94,-64.57l-1.14 -1.58c18.65,19.04 30.98,40.1 38.59,61.8 -4.07,1.5 -7.93,2.97 -11.51,4.36z"/>
  <path id="_119542520" class="fil5" d="M179.31 304.97c-9.82,-64.24 -17.04,-136.12 -21.13,-200.14 8.37,-34.47 61.9,-51.88 115.45,-51.97l0 -0 0.07 0 0.07 -0 0 0c53.56,0.09 107.08,17.51 115.45,51.97 -4.08,64.02 -11.31,135.9 -21.13,200.14 -52.26,16.48 -136.53,16.48 -188.79,0l0 -0 0 0z"/>
  <polygon id="_119541704" class="fil7" points="229.11,263.8 183.83,243.08 319.5,261.53 "/>
  <path id="_119541992" class="fil6" d="M243.74 166.27l0 39.48 7.6 7.8 21.86 2.85 21.1 -2.09c0,0 7.22,-1.33 8.17,-7.6l0 -41.58c0,0 -55.13,-0.95 -58.75,1.14z"/>
  <polygon id="_121124376" class="fil7" points="308.46,213.96 352.23,216.62 371.64,201.02 "/>
  <path id="_119542376" class="fil6" d="M179.31 304.97c-7.94,-51.96 -14.19,-108.92 -18.44,-162.68 0.52,-2.41 0.98,-3.82 1.37,-3.97l23.98 161.74c1.15,-2.73 67.86,21.92 173.82,-1.07l27.03 -165.52c0,0 -0,3.77 -0.37,6.94 -4.26,54.31 -10.56,111.99 -18.59,164.56 -52.26,16.48 -136.53,16.48 -188.79,0l-0 0 -0 0z"/>
  <polygon id="_119542304" class="fil6" points="170.63,205.57 354.89,258.1 174.82,237.55 "/>
  <path id="_119542232" class="fil1" d="M370.97 290.43c0,0 -16.77,9.7 -30.69,12.55 0,0 12.96,-0.38 32.4,-5.51l2.48 -5.32 -4.19 -1.71z"/>
  <path id="_119544176" class="fil1" d="M177.28 292.14c0,0 16.77,9.7 30.69,12.55 0,0 -12.96,-0.38 -32.4,-5.51l-2.48 -5.32 4.19 -1.71z"/>
  <path id="_119681384" class="fil4" d="M125.05 225.17c1.14,-8.05 2.72,-16.41 4.87,-25.02 -15.28,-5.65 -39.51,-13.61 -64.16,-17.65 -3.35,9.02 -6.15,18.16 -8.54,27.3 27.05,-0 53.64,10.67 67.83,15.37z"/>
  <path id="_122988168" class="fil5" d="M131.72 201.47c5.09,-20.43 13.28,-42.24 25.95,-64.57l54.92 -75.99c-37.4,-1.65 -58.9,-0.03 -86.13,27.89 -24.26,24.89 -44.26,57.7 -57.51,92.38 21.74,5.1 45.6,13.61 62.77,20.29z"/>
  <path id="_119682560" class="fil7" d="M78.77 176.15c12.91,-31.87 33.16,-65.84 62.46,-100.38 -30.86,19.65 -53.53,56.86 -68.81,91.4 1.65,5.45 5.97,9.49 5.97,9.49 0.12,-0.17 0.25,-0.34 0.38,-0.51z"/>
  <path id="_119544032" class="fil6" d="M131.94 200.56c1.18,-4.68 2.53,-9.42 4.06,-14.23 -11.48,-9.08 -34.08,-22.03 -60.4,-26.1 -3.25,6.87 -6.23,13.87 -8.94,20.95 21.24,4.98 46.78,13.22 63.85,19.82 0.48,-0.15 0.96,-0.3 1.43,-0.45z"/>
  <path id="_119680376" class="fil6" d="M131.72 201.47c5.09,-20.43 13.28,-42.24 25.94,-64.57l1.14 -1.58c-18.65,19.04 -30.98,40.1 -38.59,61.8 4.07,1.5 7.93,2.97 11.51,4.36z"/>
  <path id="_123967888" class="fil1" d="M134.68 226.62c0,0 -38.31,-24.44 -86.24,-24.48 0,0 -0.72,-20.49 12.17,-36.96 0,0 44.14,2.2 82.3,37.17 0,0 -2.45,12.2 -8.23,24.27z"/>
  <path id="_123967816" class="fil5" d="M129.98 217.38c-0.64,-0.34 -1.27,-0.68 -1.9,-1.01 -5.75,-3.04 -11.69,-5.72 -17.71,-8.09 -17.13,-6.73 -35.42,-11 -53.72,-11.69 0.21,-1.95 0.54,-3.9 0.88,-5.59 1.35,-6.61 3.84,-12.96 7.59,-18.41 1.46,0.16 2.92,0.39 4.32,0.61 5.89,0.95 11.77,2.39 17.48,4.19 17.27,5.42 33.55,14.3 47.49,26.47 -1.1,4.47 -2.68,9.21 -4.44,13.53z"/>
  <path id="_123967744" class="fil7" d="M57.08 196.6l-0.42 -0.02c0.21,-1.95 0.54,-3.9 0.88,-5.59 1.36,-6.61 3.84,-12.96 7.59,-18.41 1.46,0.16 2.92,0.39 4.32,0.61 5.89,0.95 11.77,2.39 17.48,4.19 15.16,4.76 29.57,12.19 42.29,22.17 -0.31,0.44 -0.64,0.88 -1.01,1.32 0,0 -32.09,-19.96 -59.2,-20.72 0,0 -6.28,5.94 -11.95,16.45z"/>
  <path id="_123967672" class="fil6" d="M129.98 217.38c-0.64,-0.34 -1.27,-0.68 -1.9,-1.01 -5.75,-3.04 -11.69,-5.72 -17.71,-8.09 -0.84,-0.33 -1.68,-0.65 -2.52,-0.97 3.4,-6.43 5.81,-12.86 7.3,-17.37 6.79,4.02 13.25,8.66 19.27,13.92 -1.1,4.46 -2.68,9.21 -4.44,13.53z"/>
  <path id="_123967600" class="fil1" d="M137.52 209.59c0,0 -17.93,-12.14 -38.9,-14.99 0,0 15.69,5.32 37.26,22.05l1.63 -7.06z"/>
  <path id="_120416080" class="fil6" d="M234.53 168.09c-8.2,-0.29 -16.41,-0.65 -24.59,-1.32 -6.18,-0.51 -13.87,-1 -19.54,-3.65 -8.31,-3.88 -12.95,-14.24 -16.5,-22.38 -4.04,-9.27 -7.51,-18.78 -10.87,-28.33 -4.8,-13.63 -9.32,-27.36 -13.58,-41.19l-0.73 -2.39c11.42,-5.76 49.78,-20.85 137.26,-20.24 62.24,0.44 94.97,10.61 111.54,19.15l-1.23 3.99c-4.21,13.65 -8.68,27.21 -13.42,40.67 -3.36,9.55 -6.83,19.06 -10.87,28.33 -3.55,8.14 -8.19,18.5 -16.5,22.38 -5.67,2.65 -13.35,3.15 -19.54,3.65 -8.18,0.67 -16.39,1.03 -24.59,1.32 -25.62,0.91 -51.22,0.91 -76.84,0z"/>
  <path id="_119548472" class="fil1" d="M273.69 194.48c16.41,0 31.28,6.66 42.04,17.42 0.35,0.35 0.69,0.7 1.02,1.05l-8.83 0c-9.27,-7.75 -21.2,-12.41 -34.23,-12.41 -13.02,0 -24.96,4.66 -34.23,12.41l-8.83 0c0.34,-0.35 0.68,-0.7 1.02,-1.05 10.76,-10.76 25.62,-17.42 42.04,-17.42zm-60.35 59.31l0 -14.51c1.33,0.2 2.96,0.3 4.19,0.25 2.47,-0.1 4.1,-0.89 4.98,-1.83 1.63,-1.68 1.68,-4.1 1.68,-5.72l0 -5.18c0,-1.68 -0.05,-3.8 -1.68,-5.48 -1.13,-1.18 -3.26,-2.07 -5.38,-2.07l-9.42 0 0 34.54 5.62 0zm0 -19.34l0 -10.36 2.57 0c0.54,0 1.58,0.05 2.17,0.84 0.49,0.64 0.49,1.48 0.49,2.27l0 3.7c0,1.78 -0.15,2.32 -0.25,2.52 -0.44,1.04 -1.18,1.04 -1.97,1.04l-3.01 0zm13.32 19.34l5.62 0 0 -34.54 -5.62 0 0 34.54zm26.1 -26.94c0,-1.97 -0.1,-4.09 -2.32,-6.07 -1.97,-1.73 -4.44,-2.02 -6.27,-2.02 -1.83,0 -4.29,0.3 -6.27,2.02 -2.22,1.97 -2.32,4.09 -2.32,6.07l0 19.34c0,1.97 0.1,4.09 2.32,6.07 1.97,1.73 4.44,2.02 6.27,2.02 1.83,0 4.29,-0.3 6.27,-2.02 2.22,-1.97 2.32,-4.1 2.32,-6.07l0 -19.34zm-11.54 0.2c0,-0.79 0.05,-1.73 0.54,-2.42 0.69,-0.94 1.78,-1.04 2.42,-1.04 0.64,0 1.73,0.1 2.42,1.04 0.49,0.69 0.54,1.63 0.54,2.42l0 18.94c0,0.79 -0.05,1.73 -0.54,2.42 -0.69,0.94 -1.78,1.04 -2.42,1.04 -0.64,0 -1.73,-0.1 -2.42,-1.04 -0.49,-0.69 -0.54,-1.63 -0.54,-2.42l0 -18.94zm32.07 26.74l0 -34.54 -5.62 0 0 15.84 0.3 3.65 -0.15 0 -5.77 -19.49 -6.22 0 0 34.54 5.62 0 0 -16.43 -0.25 -3.9 0.2 -0.05 5.87 20.38 6.02 0zm3.21 0l15.15 0 0 -4.83 -9.52 0 0 -11.74 6.81 0 0 -4.83 -6.81 0 0 -8.29 8.78 0 0 -4.83 -14.41 0 0 34.54zm17.37 0l15.15 0 0 -4.83 -9.52 0 0 -11.74 6.81 0 0 -4.83 -6.81 0 0 -8.29 8.78 0 0 -4.83 -14.41 0 0 34.54zm35.28 0l0 -0.25c-1.38,-0.59 -1.58,-1.53 -1.58,-4.64l0 -7.4c0,-1.43 -0.15,-3.06 -1.73,-4.44 -0.84,-0.74 -1.83,-1.04 -2.12,-1.13l0 -0.15c1.23,-0.15 2.12,-0.74 2.71,-1.33 1.28,-1.33 1.48,-2.96 1.48,-4.19l0 -3.95c0,-1.58 -0.44,-3.7 -1.48,-4.93 -0.94,-1.14 -2.86,-2.12 -5.92,-2.12l-9.28 0 0 34.54 5.62 0 0 -15.1 2.22 0c0.59,0 1.43,0.05 2.02,0.54 0.79,0.69 0.84,1.78 0.84,2.71l0 7.75c0,1.23 0,2.62 0.84,4.1l6.36 0zm-12.28 -20.28l0 -9.42 3.16 0c0.59,0 1.33,0.05 1.83,0.79 0.2,0.3 0.44,0.84 0.44,2.32l0 3.55c0,0.64 -0.05,1.68 -0.84,2.27 -0.59,0.44 -1.38,0.49 -2.07,0.49l-2.52 0zm-102 60.58l0 -16.08 6.71 0 0 -4.84 -6.71 0 0 -8.78 8.73 0 0 -4.83 -14.36 0 0 34.54 5.62 0zm27.68 0l-6.36 -34.54 -6.91 0 -6.36 34.54 5.82 0 0.99 -6.36 6.02 0 0.99 6.36 5.82 0zm-12.19 -11.2l2.32 -13.77 0.1 0 2.32 13.77 -4.74 0zm32.02 11.2l0 -0.25c-1.38,-0.59 -1.58,-1.53 -1.58,-4.64l0 -7.4c0,-1.43 -0.15,-3.06 -1.73,-4.44 -0.84,-0.74 -1.83,-1.04 -2.12,-1.13l0 -0.15c1.23,-0.15 2.12,-0.74 2.71,-1.33 1.28,-1.33 1.48,-2.96 1.48,-4.19l0 -3.95c0,-1.58 -0.44,-3.7 -1.48,-4.93 -0.94,-1.13 -2.86,-2.12 -5.92,-2.12l-9.28 0 0 34.54 5.62 0 0 -15.1 2.22 0c0.59,0 1.43,0.05 2.02,0.54 0.79,0.69 0.84,1.78 0.84,2.71l0 7.75c0,1.23 0,2.62 0.84,4.1l6.36 0zm-12.28 -20.28l0 -9.42 3.16 0c0.59,0 1.33,0.05 1.83,0.79 0.2,0.3 0.44,0.84 0.44,2.32l0 3.55c0,0.64 -0.05,1.68 -0.84,2.27 -0.59,0.44 -1.38,0.49 -2.07,0.49l-2.52 0zm29.21 20.28l4.05 -26 0.25 0 -0.3 4.59 0 21.41 5.62 0 0 -34.54 -8.88 0 -3.31 22.3 -0.2 0 -3.31 -22.3 -8.88 0 0 34.54 5.62 0 0 -21.41 -0.3 -4.59 0.25 0 4.05 26 5.33 0zm13.07 0l15.15 0 0 -4.83 -9.52 0 0 -11.74 6.81 0 0 -4.84 -6.81 0 0 -8.29 8.78 0 0 -4.83 -14.41 0 0 34.54zm35.28 0l0 -0.25c-1.38,-0.59 -1.58,-1.53 -1.58,-4.64l0 -7.4c0,-1.43 -0.15,-3.06 -1.73,-4.44 -0.84,-0.74 -1.83,-1.04 -2.12,-1.13l0 -0.15c1.23,-0.15 2.12,-0.74 2.71,-1.33 1.28,-1.33 1.48,-2.96 1.48,-4.19l0 -3.95c0,-1.58 -0.44,-3.7 -1.48,-4.93 -0.94,-1.13 -2.86,-2.12 -5.92,-2.12l-9.28 0 0 34.54 5.62 0 0 -15.1 2.22 0c0.59,0 1.43,0.05 2.02,0.54 0.79,0.69 0.84,1.78 0.84,2.71l0 7.75c0,1.23 0,2.62 0.84,4.1l6.36 0zm-12.29 -20.28l0 -9.42 3.16 0c0.59,0 1.33,0.05 1.83,0.79 0.2,0.3 0.44,0.84 0.44,2.32l0 3.55c0,0.64 -0.05,1.68 -0.84,2.27 -0.59,0.44 -1.38,0.49 -2.07,0.49l-2.52 0zm-2.4 24.77c-10.47,9.21 -24.21,14.8 -39.25,14.8 -15.04,0 -28.78,-5.59 -39.25,-14.8l9.95 0c8.41,5.53 18.48,8.75 29.3,8.75 10.82,0 20.89,-3.22 29.3,-8.75l9.95 0z"/>
  <path id="_119804728" class="fil1" d="M257.67 145.34l30.9 0c6.43,0 11.69,5.26 11.69,11.69l0 42.17c0,6.43 -5.26,11.69 -11.69,11.69l-30.9 0c-6.43,0 -11.69,-5.26 -11.69,-11.69l0 -42.17c0,-6.43 5.26,-11.69 11.69,-11.69z"/>
  <path id="_119804656" class="fil1" d="M166.97 57.02c18.66,-4.79 112.39,-26.16 213.02,-1.18 2.02,0.66 3.93,1.32 5.73,1.99l-47.77 15.69 -173.94 -15.57c0.95,-0.31 1.94,-0.62 2.97,-0.94l0 0z"/>
  <path id="_122970936" class="fil1" d="M234.53 163.34c-8.2,-0.29 -16.41,-0.65 -24.59,-1.32 -6.18,-0.51 -13.87,-1 -19.54,-3.65 -8.31,-3.88 -12.95,-14.24 -16.5,-22.38 -4.04,-9.27 -7.51,-18.78 -10.87,-28.33 -4.8,-13.63 -9.32,-27.36 -13.58,-41.19l-0.73 -2.39c11.42,-5.76 49.78,-20.85 137.26,-20.24 62.24,0.44 94.97,10.61 111.54,19.15l-1.23 3.99c-4.21,13.65 -8.68,27.21 -13.42,40.67 -3.36,9.55 -6.83,19.06 -10.87,28.33 -3.55,8.14 -8.19,18.5 -16.5,22.38 -5.67,2.65 -13.35,3.15 -19.54,3.65 -8.18,0.67 -16.39,1.03 -24.59,1.32 -25.62,0.91 -51.22,0.91 -76.84,0z"/>
  <path id="_129326824" class="fil8" d="M235.27 158.93c-8.02,-0.28 -16.04,-0.63 -24.04,-1.29 -5.54,-0.45 -13.11,-0.96 -18.12,-3.3 -7.18,-3.35 -11.5,-13.22 -14.59,-20.32 -3.94,-9.04 -7.32,-18.32 -10.6,-27.63 -4.7,-13.36 -9.14,-26.83 -13.31,-40.37 38.2,-12.99 189.59,-17.76 236.51,0.5 -4.13,13.38 -8.51,26.68 -13.16,39.87 -3.28,9.31 -6.66,18.59 -10.6,27.63 -3.09,7.1 -7.41,16.97 -14.59,20.32 -5.01,2.34 -12.59,2.85 -18.12,3.3 -8,0.66 -16.02,1.01 -24.04,1.29 -5.17,0.18 -10.31,0.33 -15.43,0.44l0 40.21c0,3.58 -2.98,6.5 -6.62,6.5l-30.9 0c-3.64,0 -6.62,-2.93 -6.62,-6.5l0 -40.21c-5.23,-0.11 -10.49,-0.26 -15.77,-0.44l-0 0 0 0 0 0z"/>
  <path id="_119804944" class="fil9" d="M210.66 155.17c-5.54,-0.45 -12.55,-0.39 -17.55,-2.73 -7.18,-3.35 -11.5,-13.22 -14.59,-20.32 -3.94,-9.04 -7.32,-16.42 -10.6,-25.73 -4.7,-13.36 -9.14,-26.83 -13.31,-40.37 38.2,-12.99 189.59,-17.76 236.51,0.5 -4.13,13.38 -8.51,26.68 -13.16,39.87 -3.28,9.31 -6.66,18.59 -10.6,27.63 -3.09,7.1 -8.74,14.68 -15.92,18.04 -5.01,2.34 -12.59,2.85 -18.12,3.3 -13.42,1.1 -26.62,0.97 -40.04,1.25l-0.38 40.4c-0.02,3.57 -2.98,6.46 -6.62,6.5l-26.54 0.28c-3.64,0.04 -6.61,-2.93 -6.62,-6.5l-0.28 -40.87c-13.8,-0.29 -28.37,-0.12 -42.19,-1.26l-0 0 0 0 0 0z"/>
  <path id="_119804872" class="fil1" d="M383.33 63.95c-4.09,13.25 -8.46,26.5 -13.05,39.55 -3.19,9.07 -6.53,18.25 -10.37,27.05 -1.96,4.49 -5.95,13.97 -10.51,16.09 -3.64,1.7 -11.37,2.25 -15.4,2.58 -7.86,0.65 -15.79,0.99 -23.67,1.27 -25.28,0.9 -49.5,0.9 -74.79,0 -7.88,-0.28 -15.81,-0.62 -23.67,-1.27 -4.04,-0.33 -11.76,-0.88 -15.4,-2.58 -4.55,-2.13 -8.55,-11.6 -10.51,-16.09 -3.83,-8.8 -7.18,-17.98 -10.37,-27.05 -4.65,-13.21 -9.07,-26.63 -13.2,-40.05 26.03,-5.64 134.69,-26.33 220.93,0.5z"/>
  <path id="_119804800" class="fil2" d="M167.24 62.44c4.48,14.4 24.06,76.23 31.26,79.59 7.35,3.43 62.69,4.08 73.52,4.17l0 0.01 0.92 -0.01 0.92 0.01 0 -0.01c10.83,-0.09 66.18,-0.74 73.52,-4.17 7.18,-3.35 26.69,-64.9 31.23,-79.49 -80.81,-23.33 -179.31,-6.67 -211.37,-0.1l0 0z"/>
  <path id="_129341680" class="fil4" d="M167.55 62.66c0,0 21.69,67.17 102.37,67.93 80.68,0.76 108.27,-68.5 108.27,-68.5 0,0 -90.06,-27.97 -210.65,0.57l0 0z"/>
  <path id="_119805160" class="fil4" d="M167.24 62.44c4.48,14.4 24.06,76.23 31.26,79.59 7.35,3.43 62.69,4.08 73.52,4.17l0 0.01 0.92 -0.01 0.92 0.01 0 -0.01c10.83,-0.09 66.18,-0.74 73.52,-4.17 7.18,-3.35 26.69,-64.9 31.23,-79.49 -0.81,-0.23 -1.61,-0.45 -2.42,-0.68 -6.91,21.7 -22.54,68.87 -28.8,71.8 -7.35,3.43 -62.69,4.08 -73.52,4.17l0 0.01 -0.92 -0.01 -0.92 0.01 0 -0.01c-10.83,-0.09 -66.18,-0.74 -73.52,-4.17 -6.25,-2.92 -21.86,-49.99 -28.78,-71.72 -0.86,0.17 -1.7,0.34 -2.48,0.5z"/>
  <path id="_119805088" class="fil1" d="M273.09 147.74l0.05 0c1.45,0 2.64,1.07 2.64,2.38l0 57.78c0,1.31 -1.19,2.38 -2.64,2.38l-0.05 0c-1.45,0 -2.64,-1.07 -2.64,-2.38l0 -57.78c0,-1.31 1.19,-2.38 2.64,-2.38z"/>
  <path id="_123965536" class="fil10" d="M287.14 178.99c-0.04,-1.01 0.74,-1.87 1.75,-1.91 1.01,-0.04 1.87,0.74 1.91,1.75 0.07,1.52 -0.49,2.92 -1.45,3.97 -0.95,1.04 -2.3,1.72 -3.82,1.78l-0.01 0 0 0c-1.52,0.07 -2.92,-0.49 -3.97,-1.45 -1.04,-0.96 -1.72,-2.31 -1.79,-3.83 -0.17,-4.02 2.3,-4.84 4.77,-5.66 1.16,-0.39 2.33,-0.77 2.27,-2.03l-0 -0.06c-0.04,-0.49 -0.26,-0.92 -0.6,-1.23 -0.35,-0.32 -0.82,-0.5 -1.33,-0.48l-0 0c-0.51,0.02 -0.97,0.25 -1.29,0.6 -0.32,0.35 -0.5,0.82 -0.48,1.34 0.04,1.01 -0.74,1.87 -1.75,1.91 -1.01,0.04 -1.87,-0.74 -1.91,-1.75 -0.07,-1.52 0.49,-2.92 1.45,-3.97 0.96,-1.04 2.31,-1.72 3.83,-1.79l0 0c1.52,-0.07 2.92,0.49 3.97,1.45 1.02,0.93 1.69,2.24 1.78,3.71 0,0.04 0.01,0.07 0.01,0.11 0.17,4.02 -2.3,4.84 -4.77,5.66 -1.16,0.39 -2.33,0.77 -2.27,2.03 0.02,0.51 0.25,0.97 0.6,1.29 0.35,0.32 0.82,0.5 1.34,0.48l0 0c0.51,-0.02 0.97,-0.25 1.29,-0.6 0.32,-0.35 0.5,-0.82 0.48,-1.34z"/>
  <path id="_123965392" class="fil1" d="M283.45 160.09c0.83,-0.93 2.26,-1 3.19,-0.17 0.93,0.83 1,2.26 0.17,3.19 -0.83,0.93 -2.26,1 -3.19,0.17 -0.93,-0.83 -1,-2.26 -0.17,-3.19z"/>
  <path id="_123965320" class="fil1" d="M283.45 187.71c0.83,-0.93 2.26,-1 3.19,-0.17 0.93,0.83 1,2.26 0.17,3.19 -0.83,0.93 -2.26,1 -3.19,0.17 -0.93,-0.83 -1,-2.26 -0.17,-3.19z"/>
  <path id="_123964768" class="fil10" d="M259.07 178.99c0.04,-1.01 -0.74,-1.87 -1.75,-1.91 -1.01,-0.04 -1.87,0.74 -1.91,1.75 -0.07,1.52 0.49,2.92 1.45,3.97 0.95,1.04 2.3,1.72 3.82,1.78l0.01 0 0 0c1.52,0.07 2.92,-0.49 3.97,-1.45 1.04,-0.96 1.72,-2.31 1.79,-3.83 0.17,-4.02 -2.3,-4.84 -4.77,-5.66 -1.16,-0.39 -2.33,-0.77 -2.27,-2.03l0 -0.06c0.04,-0.49 0.26,-0.92 0.6,-1.23 0.35,-0.32 0.82,-0.5 1.33,-0.48l0 0c0.51,0.02 0.97,0.25 1.29,0.6 0.32,0.35 0.5,0.82 0.48,1.34 -0.04,1.01 0.74,1.87 1.75,1.91 1.01,0.04 1.87,-0.74 1.91,-1.75 0.07,-1.52 -0.49,-2.92 -1.45,-3.97 -0.96,-1.04 -2.31,-1.72 -3.83,-1.79l-0 0c-1.52,-0.07 -2.92,0.49 -3.97,1.45 -1.02,0.93 -1.69,2.24 -1.78,3.71 -0,0.04 -0.01,0.07 -0.01,0.11 -0.17,4.02 2.3,4.84 4.77,5.66 1.16,0.39 2.33,0.77 2.27,2.03 -0.02,0.51 -0.25,0.97 -0.6,1.29 -0.35,0.32 -0.82,0.5 -1.34,0.48l0 0c-0.51,-0.02 -0.97,-0.25 -1.29,-0.6 -0.32,-0.35 -0.5,-0.82 -0.48,-1.34z"/>
  <path id="_123964624" class="fil1" d="M262.76 160.09c-0.83,-0.93 -2.26,-1 -3.19,-0.17 -0.93,0.83 -1,2.26 -0.17,3.19 0.83,0.93 2.26,1 3.19,0.17 0.93,-0.83 1,-2.26 0.17,-3.19z"/>
  <path id="_123964552" class="fil1" d="M262.76 187.71c-0.83,-0.93 -2.26,-1 -3.19,-0.17 -0.93,0.83 -1,2.26 -0.17,3.19 0.83,0.93 2.26,1 3.19,0.17 0.93,-0.83 1,-2.26 0.17,-3.19z"/>
  <path id="_129335416" class="fil6" d="M382.84 168.63c0,0 -58.18,32.89 -56.08,33.65 2.09,0.76 53.61,-11.6 53.61,-11.6l2.47 -22.05z"/>
  <path id="_129334696" class="fil1" d="M137.78 190.49c-0.95,0.38 -12.36,-12.93 -40.49,-25.48 0,0 25.67,6.08 43.73,16.92l0.19 4.94 -3.42 3.61z"/>
  <path id="_129333232" class="fil3" d="M477.99 174.87c9.61,23.13 16.26,47.31 19.18,70.71 6.97,55.81 -3.68,104.75 -29.51,155.35 0,0 -0.27,0.78 -1.13,1.83 -5.71,-0.8 -11.48,-2.09 -17.15,-3.7 0.52,-1.14 0.84,-2 0.73,-2.23 -0.12,-0.26 -1.05,0.53 -2.29,1.78 -11.01,-3.25 -21.53,-7.62 -30.22,-11.71 -0.12,-1.26 -0.29,-2.09 -0.5,-2.08 -0.19,0.01 -0.45,0.59 -0.74,1.5 -11.44,-5.46 -19.45,-10.3 -20.77,-11.1l0.01 -0.05c25.31,8.7 68.04,13.05 68.04,13.05 35.43,-72.89 33.99,-148.76 9.09,-212.78 -21.86,-56.17 -1.98,-17.94 5.24,-0.56z"/>
  <path id="_129327424" class="fil1" d="M482.45 209.52c25.21,-2.85 31.71,24.95 9.47,34.26l-9.47 -34.26z"/>
  <path id="_129891224" class="fil2" d="M491.92 243.92c8.22,-12.81 8.43,-26.97 -9.46,-34.6 0,0 -5.09,25.13 9.46,34.6z"/>
  <path id="_129886616" class="fil3" d="M491.06 244.98c9.95,-12.69 10.07,-28.35 -9.26,-36.03 7.68,5.14 14.02,21.42 8.91,34.99l0.34 1.05z"/>
  <path id="_129886112" class="fil3" d="M483.45 214.26c-2.2,1.37 -2.18,5.38 0.05,8.97 2.23,3.58 5.82,5.38 8.02,4.01 2.2,-1.37 2.18,-5.38 -0.05,-8.97 -2.23,-3.58 -5.82,-5.38 -8.02,-4.01z"/>
  <path id="_129330544" class="fil2" d="M393.52 348.83c0,0 4.08,-8.45 14.52,-13.76 10.44,-5.31 -7.21,13.95 -14.52,13.76z"/>
  <path id="_129330424" class="fil4" d="M468.78 398.72c-0.37,0.74 -0.74,1.48 -1.11,2.21 0,0 -3.14,9.24 -22.9,6.95 0,0 5.75,-10.17 5.36,-11.05 -0.39,-0.88 -10.02,10.22 -10.02,10.22 0,0 -12.16,0.04 -22.09,-8.53 0,0 -0.04,-13.74 -0.9,-13.71 -0.86,0.03 -2.96,11.22 -2.96,11.22 -6.7,-0.89 -14.39,-3.33 -18.9,-7.33 -1.62,-1.43 -1.88,-3.36 -0.92,-7.72 0.41,-1.87 0.91,-4.17 1.57,-7 37.49,16.84 61.45,22.71 72.89,24.73z"/>
  <path id="_129331048" class="fil4" d="M466.71 221.86c0,0 0,12.55 16.92,19.39 0,0 -11.22,-0.38 -15.97,-4.94 -4.75,-4.56 -0.95,-14.45 -0.95,-14.45z"/>
  <path id="_119546360" class="fil1" d="M478.63 259.39c1.24,0.91 1.51,2.64 0.61,3.88 -0.91,1.24 -2.64,1.51 -3.88,0.61 -1.24,-0.9 -1.51,-2.64 -0.6,-3.88 0.91,-1.24 2.64,-1.51 3.88,-0.61zm-22.21 31.23c-0.34,0.96 0.17,2.01 1.13,2.35 0.96,0.34 2.01,-0.17 2.35,-1.13 0.34,-0.96 -0.17,-2.01 -1.13,-2.35 -0.96,-0.34 -2.01,0.17 -2.35,1.13zm17.71 -4.63c-0.23,0.64 0.11,1.34 0.75,1.57 0.64,0.23 1.34,-0.11 1.57,-0.75 0.23,-0.64 -0.11,-1.34 -0.75,-1.57 -0.64,-0.23 -1.34,0.11 -1.57,0.75zm-3.38 26.58c-0.23,0.64 0.11,1.34 0.75,1.57 0.64,0.23 1.34,-0.11 1.57,-0.75 0.23,-0.64 -0.11,-1.34 -0.75,-1.57 -0.64,-0.23 -1.34,0.11 -1.57,0.75zm8.36 -8.53c-0.28,0.8 0.14,1.68 0.94,1.96 0.8,0.28 1.68,-0.14 1.96,-0.94 0.28,-0.8 -0.14,-1.68 -0.94,-1.96 -0.8,-0.28 -1.68,0.14 -1.96,0.94zm-28.66 11.53c-0.4,1.12 0.19,2.35 1.31,2.75 1.12,0.4 2.35,-0.19 2.75,-1.32 0.4,-1.12 -0.19,-2.35 -1.32,-2.74 -1.12,-0.4 -2.35,0.19 -2.74,1.31zm7.89 -74.72c1.06,0.78 1.29,2.27 0.52,3.33 -0.78,1.06 -2.27,1.29 -3.33,0.52 -1.06,-0.78 -1.29,-2.27 -0.52,-3.33 0.78,-1.06 2.27,-1.29 3.33,-0.52zm-22.24 8.01c0.71,0.52 0.86,1.51 0.35,2.22 -0.52,0.71 -1.51,0.86 -2.22,0.35 -0.71,-0.52 -0.86,-1.51 -0.35,-2.22 0.52,-0.71 1.51,-0.86 2.22,-0.35zm24.64 22.9c0.71,0.52 0.86,1.51 0.35,2.22 -0.52,0.71 -1.51,0.86 -2.22,0.35 -0.71,-0.52 -0.86,-1.51 -0.35,-2.22 0.52,-0.71 1.51,-0.86 2.22,-0.35zm-25.32 21.14c1.06,0.78 1.29,2.27 0.52,3.33 -0.78,1.06 -2.27,1.29 -3.33,0.52 -1.06,-0.78 -1.29,-2.27 -0.52,-3.33 0.78,-1.06 2.27,-1.29 3.33,-0.52zm8.56 -21.18c0.88,0.65 1.08,1.89 0.43,2.77 -0.65,0.88 -1.89,1.08 -2.77,0.43 -0.88,-0.65 -1.08,-1.89 -0.43,-2.77 0.65,-0.88 1.89,-1.08 2.77,-0.43zm44.35 -24.75c0.63,0.46 0.77,1.34 0.31,1.97 -0.46,0.63 -1.34,0.77 -1.97,0.31 -0.63,-0.46 -0.77,-1.34 -0.31,-1.97 0.46,-0.63 1.34,-0.77 1.97,-0.31z"/>
  <path id="_119682776" class="fil4" d="M422.46 224.99c-1.14,-8.05 -2.72,-16.41 -4.87,-25.02 15.28,-5.65 39.51,-13.61 64.16,-17.65 3.35,9.02 6.15,18.16 8.54,27.3 -27.05,-0 -53.64,10.67 -67.83,15.37z"/>
  <path id="_130621128" class="fil7" d="M468.73 175.96c-12.91,-31.87 -33.16,-65.84 -62.46,-100.38 30.86,22.58 53.53,56.86 68.81,91.4 -1.65,5.45 -5.97,9.49 -5.97,9.49 -0.12,-0.17 -0.25,-0.34 -0.38,-0.51z"/>
  <path id="_7125608" class="fil6" d="M415.56 200.37c-1.18,-4.68 -2.53,-9.42 -4.06,-14.23 11.48,-9.08 34.08,-22.03 60.4,-26.1 3.25,6.87 6.23,13.87 8.94,20.95 -21.24,4.98 -46.78,13.22 -63.85,19.82 -0.48,-0.15 -0.96,-0.3 -1.43,-0.45z"/>
  <path id="_123310440" class="fil1" d="M412.82 226.43c0,0 38.31,-24.44 86.24,-24.48 0,0 0.72,-20.49 -12.17,-36.96 0,0 -44.14,2.2 -82.3,37.17 0,0 2.45,12.2 8.23,24.27z"/>
  <path id="_123310368" class="fil6" d="M417.52 217.19c0.64,-0.34 1.27,-0.68 1.9,-1.01 5.75,-3.04 11.69,-5.72 17.71,-8.09 17.13,-6.73 35.42,-11 53.72,-11.69 -0.21,-1.95 -0.54,-3.9 -0.88,-5.59 -1.35,-6.61 -3.84,-12.96 -7.59,-18.41 -1.46,0.16 -2.92,0.39 -4.32,0.61 -5.89,0.95 -11.77,2.39 -17.48,4.19 -17.27,5.42 -33.55,14.3 -47.49,26.47 1.1,4.47 2.68,9.21 4.44,13.53z"/>
  <path id="_123310296" class="fil5" d="M490.43 196.41l0.42 -0.02c-0.21,-1.95 -0.54,-3.9 -0.88,-5.59 -1.36,-6.61 -3.84,-12.96 -7.59,-18.41 -1.46,0.16 -2.92,0.39 -4.32,0.61 -5.89,0.95 -11.77,2.39 -17.48,4.19 -15.16,4.76 -29.57,12.19 -42.29,22.17 0.31,0.44 0.64,0.88 1.01,1.32 0,0 32.09,-19.96 59.2,-20.72 0,0 6.28,5.94 11.95,16.45z"/>
  <path id="_123310224" class="fil6" d="M417.52 217.19c0.64,-0.34 1.27,-0.68 1.9,-1.01 5.75,-3.04 11.69,-5.72 17.71,-8.09 0.84,-0.33 1.68,-0.65 2.52,-0.97 -3.4,-6.43 -5.81,-12.86 -7.3,-17.37 -6.79,4.02 -13.25,8.66 -19.27,13.92 1.1,4.46 2.68,9.21 4.44,13.53z"/>
  <path id="_123310152" class="fil1" d="M409.99 209.4c0,0 17.93,-12.14 38.9,-14.99 0,0 -15.69,5.32 -37.26,22.05l-1.63 -7.06z"/>
  <path id="_119547512" class="fil1" d="M409.73 190.3c0.95,0.38 12.36,-12.93 40.49,-25.48 0,0 -25.67,6.08 -43.73,16.92l-0.19 4.94 3.42 3.61z"/>
  <path id="_119541920" class="fil5" d="M487.59 190.49c0,0 -9.32,-3.61 -32.51,2.09 0,0 16.92,-8.75 28.33,-9.13l1.9 3.8 2.28 3.23z"/>
  <path id="_119542448" class="fil1" d="M418.77 230.22c0,0 14.83,-7.41 41.25,-16.73 0,0 -22.62,3.23 -40.87,9.89l-1.9 2.09 1.52 4.75z"/>
  <path id="_125772112" class="fil1" d="M127.69 229.28c0,0 -14.83,-7.41 -41.25,-16.73 0,0 22.62,3.23 40.87,9.89l1.9 2.09 -1.52 4.75z"/>
  <path id="_119547824" class="fil1" d="M75.02 252.47c-1.32,0.79 -1.75,2.49 -0.96,3.81 0.79,1.32 2.49,1.75 3.81,0.96 1.32,-0.79 1.75,-2.49 0.96,-3.81 -0.79,-1.32 -2.49,-1.75 -3.81,-0.96zm19.24 33.14c0.25,0.99 -0.35,1.99 -1.34,2.24 -0.99,0.25 -1.99,-0.35 -2.24,-1.34 -0.25,-0.99 0.35,-1.99 1.34,-2.24 0.99,-0.25 1.99,0.35 2.24,1.34zm-17.21 -6.24c0.17,0.66 -0.23,1.33 -0.89,1.49 -0.66,0.17 -1.33,-0.23 -1.49,-0.89 -0.17,-0.66 0.23,-1.33 0.89,-1.49 0.66,-0.17 1.33,0.23 1.49,0.89zm0.91 26.78c0.17,0.66 -0.23,1.33 -0.89,1.49 -0.66,0.17 -1.33,-0.23 -1.49,-0.89 -0.17,-0.66 0.23,-1.33 0.89,-1.49 0.66,-0.17 1.33,0.23 1.49,0.89zm-7.54 -9.26c0.21,0.82 -0.29,1.66 -1.12,1.87 -0.82,0.21 -1.66,-0.29 -1.87,-1.12 -0.21,-0.82 0.29,-1.66 1.12,-1.87 0.82,-0.21 1.66,0.29 1.87,1.12zm27.48 14.12c0.29,1.15 -0.41,2.32 -1.56,2.61 -1.15,0.29 -2.32,-0.41 -2.61,-1.56 -0.29,-1.15 0.41,-2.32 1.56,-2.61 1.15,-0.29 2.32,0.41 2.61,1.56zm-0.97 -75.13c-1.13,0.67 -1.5,2.14 -0.82,3.27 0.67,1.13 2.14,1.5 3.27,0.82 1.13,-0.67 1.5,-2.14 0.82,-3.27 -0.67,-1.13 -2.14,-1.5 -3.27,-0.82zm21.41 10.03c-0.75,0.45 -1,1.43 -0.55,2.18 0.45,0.75 1.43,1 2.18,0.55 0.75,-0.45 1,-1.43 0.55,-2.18 -0.45,-0.75 -1.43,-1 -2.18,-0.55zm-26.64 20.53c-0.75,0.45 -1,1.43 -0.55,2.18 0.45,0.75 1.43,1 2.18,0.55 0.75,-0.45 1,-1.43 0.55,-2.18 -0.45,-0.75 -1.43,-1 -2.18,-0.55zm23.27 23.38c-1.13,0.67 -1.5,2.14 -0.82,3.27 0.67,1.13 2.14,1.5 3.27,0.82 1.13,-0.67 1.5,-2.14 0.82,-3.27 -0.67,-1.13 -2.14,-1.5 -3.27,-0.82zm-6.57 -21.88c-0.94,0.56 -1.25,1.78 -0.69,2.72 0.56,0.94 1.78,1.25 2.72,0.69 0.94,-0.56 1.25,-1.78 0.69,-2.72 -0.56,-0.94 -1.78,-1.25 -2.72,-0.69zm-41.88 -28.73c-0.67,0.4 -0.89,1.27 -0.49,1.93 0.4,0.67 1.27,0.89 1.93,0.49 0.67,-0.4 0.89,-1.27 0.49,-1.93 -0.4,-0.67 -1.27,-0.89 -1.93,-0.49z"/>
  <path id="_122253232" class="fil11" d="M289.19 145.99c1.88,-0.04 3.85,-0.08 5.89,-0.12 1.55,-4.07 4.43,-7.64 8.01,-9.65 1.36,-0.77 3.22,-1.9 5.25,-2.48 9.91,-2.83 23.59,2.06 26.7,10.28 -2.99,-0.63 -4.98,-1.76 -8.54,-2.17 -1.72,-0.19 -8.13,-0.32 -10.33,0.57l-3.02 0.98c0.16,0.78 0.35,1.4 0.56,1.91 13.06,-0.51 25.54,-1.31 31.24,-2.54 -3.83,-6.25 -8.55,-9.99 -14.31,-13.03 -4.67,-2.46 -14.93,-4.24 -22.03,-2.21l-0.47 0.14c-3.6,1.03 -6.25,2.37 -8.5,3.94 -2.08,1.45 -6.06,4.93 -7.44,7.31 -1.21,2.08 -2.48,5.37 -2.81,6.37 -0.07,0.22 -0.14,0.46 -0.2,0.72zm16.67 -0.41c2.05,-0.06 4.11,-0.13 6.17,-0.21 -0.55,-3.96 -0.53,-8.2 0.43,-11.49 -1.05,0.2 -2.1,0.4 -3.15,0.6 -0.87,0.25 -1.73,0.49 -2.6,0.74 -2.01,0.57 -1.71,5.44 -0.85,10.36zm41.6 -3.59c1.6,-0.83 3.8,-4.47 6.31,-9.81 -2.26,1.36 -3.38,3.33 -4.54,5.42 -0.71,1.27 -1.19,1.89 -1.55,3.31 -0.09,0.36 -0.15,0.72 -0.22,1.08zm-37.64 -15.58c2.69,-0.77 4.68,-0.31 6.41,-0.81 0.05,-0.01 5.38,-7.16 10.1,-8.5l1.42 -0.41c2.54,-0.72 5.28,0.6 6.01,3.14l0.13 0.48c0.51,1.79 -0.66,3.26 -2.74,3.85 0.27,-0.73 1.33,-1.61 0.98,-2.84 -0.33,-1.15 -2.01,-1.98 -3.27,-1.62l-0.47 0.14c-1.42,0.4 -2.43,2.23 -2.03,3.65l0.41 1.42c0.63,2.21 3.36,3.13 5.8,2.44l0.47 -0.13c3.65,-1.04 5.59,-4.58 4.56,-8.21l-0.07 -0.23c-0.7,-2.46 -1.7,-3.01 -2.6,-4.63 4.61,-0.22 11.17,2.42 12.59,7.4l0.27 0.95c1.89,6.64 -3.06,9.26 -4.86,6.24l0.71 -0.2c0.97,-0.28 2.03,-1.83 1.82,-2.56l-0.27 -0.94c-0.27,-0.94 -2.35,-1.63 -3.44,-1.32 -1.93,0.55 -3.11,2.53 -2.53,4.56l0.2 0.71c0.96,3.36 5.32,4.88 8.78,3.89 4.31,-1.23 6.33,-5.59 5.1,-9.89l-0.61 -2.13c-1.37,-4.79 -5.92,-8.35 -9.09,-10.13 -2.79,-1.56 -9.44,-3.25 -13.56,-2.08l-3.54 1.01c-6.93,1.98 -17.71,12.16 -17.63,17.04l0.95 -0.27z"/>
  <path id="_122253160" class="fil11" d="M191.6 131.07c2.76,6.02 5.18,10.16 6.9,10.96 0.47,0.22 1.13,0.43 1.97,0.62 -0.15,-0.54 -0.21,-1.15 -0.37,-1.74 -0.36,-1.42 -0.85,-2.04 -1.55,-3.31 -1.22,-2.2 -2.39,-4.27 -4.9,-5.63 -0.66,-0.36 -1.35,-0.66 -2.04,-0.91zm11.03 12.01c6.58,1.1 18.87,1.82 31.41,2.29 0.22,-0.52 0.42,-1.16 0.59,-1.98l-3.02 -0.98c-2.19,-0.89 -8.6,-0.76 -10.33,-0.57 -3.56,0.4 -5.55,1.53 -8.54,2.17 3.1,-8.23 16.78,-13.11 26.7,-10.28 2.02,0.58 3.89,1.71 5.25,2.48 3.59,2.02 6.48,5.61 8.03,9.7 2.05,0.04 4.02,0.08 5.88,0.12 -0.07,-0.28 -0.14,-0.53 -0.21,-0.75 -0.33,-1 -1.59,-4.28 -2.8,-6.37 -1.38,-2.38 -5.36,-5.85 -7.44,-7.31 -2.25,-1.57 -4.9,-2.91 -8.5,-3.94l-0.47 -0.14c-7.11,-2.03 -17.37,-0.25 -22.04,2.21 -5.86,3.09 -10.65,6.91 -14.51,13.35zm33.11 2.35c2.06,0.07 4.13,0.14 6.17,0.2 0.87,-4.94 1.18,-9.84 -0.84,-10.42 -0.87,-0.25 -1.73,-0.49 -2.6,-0.74 -1.05,-0.2 -2.1,-0.4 -3.15,-0.6 0.96,3.31 0.98,7.58 0.42,11.56zm2.22 -19.03c-2.69,-0.77 -4.68,-0.31 -6.41,-0.81 -0.05,-0.01 -5.38,-7.16 -10.1,-8.5l-1.42 -0.41c-2.54,-0.72 -5.28,0.6 -6.01,3.14l-0.13 0.48c-0.51,1.79 0.66,3.26 2.73,3.85 -0.27,-0.73 -1.33,-1.61 -0.98,-2.84 0.33,-1.15 2.01,-1.98 3.27,-1.62l0.47 0.14c1.42,0.4 2.43,2.23 2.03,3.64l-0.41 1.42c-0.63,2.21 -3.36,3.13 -5.8,2.44l-0.47 -0.14c-3.65,-1.04 -5.59,-4.58 -4.56,-8.2l0.07 -0.23c0.7,-2.46 1.7,-3.01 2.6,-4.63 -4.61,-0.22 -11.17,2.43 -12.59,7.41l-0.27 0.95c-1.89,6.64 3.06,9.27 4.86,6.25l-0.71 -0.2c-0.97,-0.28 -2.03,-1.83 -1.82,-2.56l0.27 -0.94c0.27,-0.94 2.35,-1.63 3.44,-1.32 1.93,0.55 3.11,2.53 2.53,4.56l-0.2 0.71c-0.96,3.36 -5.32,4.88 -8.78,3.89 -4.31,-1.23 -6.33,-5.59 -5.1,-9.89l0.61 -2.13c1.37,-4.79 5.92,-8.35 9.08,-10.13 2.79,-1.56 9.44,-3.25 13.56,-2.08l3.54 1.01c6.93,1.98 17.71,12.16 17.63,17.04l-0.95 -0.27z"/>
  <path id="_122252896" class="fil12" d="M309.28 124.74c4.4,-1.44 8.55,-3.11 12.47,-4.95 1.46,-1.21 3.05,-2.26 4.58,-2.7l1.42 -0.41c0.08,-0.02 0.15,-0.04 0.23,-0.06 4.21,-2.31 8.12,-4.82 11.74,-7.44 -3.09,-0.87 -6.94,-1.35 -9.67,-0.57l-3.54 1.01c-6.11,1.74 -15.21,9.86 -17.22,15.11z"/>
  <path id="_122252824" class="fil12" d="M204.48 110.53c1.8,1.29 3.68,2.55 5.63,3.76 0.94,-0.15 1.87,-0.21 2.72,-0.17 -0.28,0.51 -0.57,0.91 -0.86,1.3 1.19,0.7 2.4,1.39 3.65,2.06 1.2,-0.91 2.83,-1.24 4.4,-0.79l1.42 0.41c3.25,0.93 6.78,4.6 8.69,6.8 2.81,1 5.73,1.9 8.77,2.7 -0.03,-4.91 -10.74,-15 -17.63,-16.96l-3.54 -1.01c-3.97,-1.13 -10.3,0.4 -13.25,1.91z"/>
  <path id="_122252560" class="fil12" d="M289.19 145.99l0.26 -0 0.01 0 0.09 -0 0.09 -0 0.09 -0c1.72,-0.03 3.51,-0.07 5.36,-0.11 1.29,-3.39 3.51,-6.44 6.29,-8.53 -2.83,0.08 -5.58,0.14 -8.21,0.2 -0.39,0.48 -0.72,0.94 -0.97,1.36 -1.21,2.08 -2.48,5.37 -2.81,6.37 -0.07,0.22 -0.14,0.46 -0.2,0.72zm38.35 -9.75c3.52,1.93 6.29,4.6 7.49,7.78 -2.99,-0.63 -4.98,-1.76 -8.54,-2.17 -1.72,-0.19 -8.13,-0.32 -10.33,0.57l-3.02 0.98c0.16,0.78 0.35,1.4 0.56,1.91 7.55,-0.3 14.9,-0.69 20.87,-1.2l0.48 -0.04c3.81,-0.34 7.03,-0.73 9.32,-1.18l0.06 -0.01c0.17,-0.03 0.34,-0.07 0.51,-0.1 -1.83,-2.99 -3.87,-5.41 -6.13,-7.45 -3.21,0.36 -7.07,0.67 -11.29,0.93zm19.93 5.74c0.06,-0.03 0.12,-0.07 0.18,-0.11 0.06,-0.04 0.11,-0.07 0.17,-0.12 0.06,-0.05 0.13,-0.1 0.19,-0.15 0.06,-0.05 0.11,-0.1 0.17,-0.15 0.06,-0.06 0.13,-0.12 0.19,-0.18 0.07,-0.07 0.14,-0.14 0.21,-0.21 0.06,-0.07 0.13,-0.14 0.19,-0.21 0.07,-0.08 0.14,-0.17 0.22,-0.26 0.06,-0.07 0.12,-0.15 0.18,-0.23 0.07,-0.09 0.14,-0.18 0.2,-0.27 0.08,-0.1 0.15,-0.21 0.23,-0.32l0.2 -0.29c0.08,-0.12 0.16,-0.24 0.24,-0.36l0.18 -0.28c0.09,-0.14 0.18,-0.28 0.26,-0.42l0.2 -0.33c0.1,-0.16 0.19,-0.33 0.29,-0.5l0.15 -0.26c0.11,-0.19 0.22,-0.38 0.33,-0.58l0.16 -0.29c0.12,-0.22 0.24,-0.44 0.36,-0.68l0.09 -0.18c0.12,-0.24 0.25,-0.48 0.38,-0.73l0.16 -0.32c0.13,-0.25 0.25,-0.5 0.38,-0.76l0.1 -0.2c0.14,-0.29 0.28,-0.59 0.43,-0.89l0.1 -0.2 0.14 -0.3c-2.26,1.36 -3.37,3.33 -4.53,5.42 -0.71,1.27 -1.19,1.89 -1.55,3.31 -0.09,0.36 -0.15,0.72 -0.22,1.08l0.01 -0zm6.1 -17.75c-1.9,4.01 -3.62,7.01 -5.03,8.51 3.66,-1.22 5.55,-4.77 5.03,-8.51zm-41.73 12.77c-2.16,0.08 -4.33,0.15 -6.47,0.22 -0.39,1.99 -0.07,5.16 0.49,8.36l1.83 -0.06 0.1 -0 0.1 -0 0.26 -0.01 0.03 -0 0.1 -0 0.1 -0 0.1 -0 0.03 -0 0.16 -0.01 0.1 -0 0.1 -0 0.01 -0 0.28 -0.01 0.1 -0 0.03 -0 0.16 -0.01 0.1 -0 0.17 -0.01 0.02 -0 0.1 -0 0.45 -0.02 0.04 -0 0.1 -0 0.04 -0 0.15 -0.01 0 0 0.1 -0 0.03 -0 0.14 -0.01 0.05 -0 0.15 -0.01 0.04 -0 0.16 -0.01 0.03 -0 0.16 -0.01 0.03 -0 0.17 -0.01 0.01 -0 0.18 -0.01 0.01 -0 0.1 -0 0.01 0 0.09 -0c-0.39,-2.79 -0.49,-5.73 -0.18,-8.37z"/>
  <path id="_122252488" class="fil12" d="M191.63 131.12l0.23 0.49 0.35 0.74 0.19 0.4c0.12,0.26 0.25,0.52 0.37,0.78l0.11 0.23c0.13,0.26 0.25,0.51 0.38,0.76l0.18 0.35 0.3 0.59 0.21 0.41c0.1,0.19 0.2,0.38 0.3,0.56l0.16 0.29c0.11,0.2 0.22,0.4 0.33,0.59l0.12 0.22c0.13,0.23 0.26,0.45 0.39,0.66l0.06 0.1c0.14,0.23 0.27,0.45 0.41,0.66l0.03 0.05c0.14,0.22 0.28,0.43 0.42,0.62l0.02 0.04c0.14,0.2 0.27,0.39 0.41,0.56l0.02 0.03c0.13,0.18 0.26,0.34 0.39,0.49l0.02 0.02c0.13,0.15 0.26,0.3 0.38,0.43l0.01 0.01c0.13,0.13 0.25,0.25 0.37,0.36l0.01 0.01c0.25,0.21 0.48,0.38 0.71,0.48 0.11,0.05 0.24,0.11 0.38,0.16l0 0 0.01 0 0.03 0.01c0.12,0.04 0.24,0.09 0.37,0.13l0.03 0.01 0.03 0.01 0 0 0.03 0.01c0.1,0.03 0.21,0.06 0.32,0.1l0.03 0.01 0.01 0 0.16 0.04 0.04 0.01 0.04 0.01 0 0 0.29 0.07 0.04 0.01 0.04 0.01 0.12 0.03c-0.15,-0.54 -0.21,-1.15 -0.37,-1.74 -0.36,-1.42 -0.85,-2.04 -1.55,-3.31 -1.22,-2.2 -2.39,-4.27 -4.9,-5.63 -0.66,-0.36 -1.35,-0.66 -2.04,-0.91l0.02 0.05zm63.02 6.46c-2.59,-0.05 -5.34,-0.11 -8.17,-0.19 2.76,2.1 4.96,5.14 6.24,8.52l0.02 0c2.04,0.04 3.99,0.08 5.84,0.11l0.02 0c-0.07,-0.28 -0.14,-0.53 -0.21,-0.75 -0.33,-1 -1.59,-4.28 -2.8,-6.37 -0.24,-0.41 -0.56,-0.86 -0.94,-1.33zm-12.23 -0.3c-2.14,-0.06 -4.31,-0.13 -6.47,-0.21 0.3,2.64 0.19,5.57 -0.2,8.37l0.1 0c2,0.07 4,0.14 5.97,0.19l0.1 0c0.56,-3.19 0.89,-6.35 0.51,-8.36zm-22.36 -0.93c-4.15,-0.24 -8,-0.53 -11.3,-0.86 -2.26,2.08 -4.3,4.54 -6.13,7.59l0.31 0.05 0.07 0.01c0.72,0.12 1.5,0.23 2.34,0.33l0 0 0.37 0.05c0.85,0.11 1.76,0.21 2.71,0.3l0.4 0.04 0.58 0.06 0.44 0.04c1.48,0.14 3.07,0.27 4.73,0.39l0.5 0.04 0.89 0.06 0.18 0.01 0.97 0.07 0.01 0 0.52 0.03 0.5 0.03 0.03 0 0.53 0.03 0.53 0.03 0.71 0.04 0.53 0.03c1.03,0.06 2.08,0.12 3.15,0.17l0.56 0.03 0.57 0.03 0.05 0 0.84 0.04 0.48 0.02c1.06,0.05 2.13,0.1 3.21,0.15l0.01 0 0.09 0 0.5 0.02 0.58 0.02 0 0 0.91 0.04 0.78 0.03 0.06 0 0.17 0.01 0.42 0.02 0.59 0.02 0.5 0.02 0.09 0c0.22,-0.52 0.42,-1.16 0.59,-1.98l-3.02 -0.98c-2.19,-0.89 -8.6,-0.76 -10.33,-0.57 -3.56,0.4 -5.55,1.53 -8.54,2.17 1.18,-3.12 3.87,-5.75 7.3,-7.67z"/>
 </g>
</svg>
