<?xml version="1.0" encoding="UTF-8"?>
<!DOCTYPE svg PUBLIC "-//W3C//DTD SVG 1.1//EN" "http://www.w3.org/Graphics/SVG/1.1/DTD/svg11.dtd">
<!-- Creator: CorelDRAW -->
<svg xmlns="http://www.w3.org/2000/svg" xml:space="preserve" width="161.908mm" height="176.792mm" style="shape-rendering:geometricPrecision; text-rendering:geometricPrecision; image-rendering:optimizeQuality; fill-rule:evenodd; clip-rule:evenodd"
viewBox="0 0 7.90616 8.63294"
 xmlns:xlink="http://www.w3.org/1999/xlink">
 <defs>
  <style type="text/css">
   <![CDATA[
    .fil0 {fill:none}
    .fil1 {fill:#501D33}
    .fil3 {fill:#878087}
    .fil2 {fill:#BCB4AB}
    .fil4 {fill:#D9D4CA}
   ]]>
  </style>
 </defs>
 <g id="Layer_x0020_1">
  <metadata id="CorelCorpID_0Corel-Layer"/>
  <rect class="fil0" width="7.90616" height="8.63294"/>
  <g id="_111322584">
   <g>
    <g>
     <path id="_111325656" class="fil1" d="M1.16173 1.28025c0,0 -0.213992,0.142943 -0.4359,0.148637 0,0 0.107609,0.129939 0.399301,0.0547494 0.291692,-0.0751949 0.0365989,-0.203386 0.0365989,-0.203386z"/>
     <path id="_111325584" class="fil1" d="M2.65053 1.76394c0,0 0.127415,0.127937 0.153657,0.315746 0,0 0.0726606,-0.139818 -0.0245327,-0.356447 -0.0971933,-0.216634 -0.182159,-0.067963 -0.129124,0.0407007z"/>
     <path id="_111325512" class="fil1" d="M2.04079 2.26912c0,0 0.101837,0.0254214 0.170142,0.119953 0,0 -0.00620154,-0.13598 -0.0867776,-0.22747 -0.0805761,-0.0914898 -0.0833644,0.107516 -0.0833644,0.107516z"/>
     <path id="_111325440" class="fil1" d="M1.28048 2.29108c0,0 -0.132054,0.0862844 -0.207005,0.245273 0,0 -0.0260807,-0.24541 0.186539,-0.403774l0.0295623 0.0433375 -0.00909722 0.115163z"/>
     <path id="_111325368" class="fil1" d="M0.926799 0.95868c0,0 0.173013,0.168877 0.446008,0.0206262 0.27299,-0.148251 0.140824,-0.250938 0.140824,-0.250938 0,0 -0.299188,0.192209 -0.586832,0.230312z"/>
     <path id="_111325296" class="fil1" d="M0.964008 1.26674c0,0 0.100987,-0.0125154 0.21512,0.0280193 0,0 -0.472948,0.117282 -0.611457,0.645805 0,0 0.173736,-0.0649453 0.321762,-0.0359494 0,0 -0.182384,0.301717 -0.12803,0.619842 0,0 0.2782,-0.125252 0.489722,-0.334087 0,0 -0.0602233,0.176402 0.107775,0.385028 0,0 0.0819629,-0.13577 0.219998,-0.21348 0,0 0.051839,0.194294 0.259303,0.377283 0,0 -0.0216468,-0.171534 0.0603405,-0.405747 0,0 0.0512238,0.103058 0.19572,0.204768 0,0 -0.0280193,-0.196755 0.00906792,-0.330967 0,0 0.223016,0.0702923 0.373577,0.270514 0,0 0.133553,-0.202693 -0.00290056,-0.506427 0,0 0.13387,-0.00342306 0.203176,0.068549 0,0 0.0791551,-0.0803564 0.00574741,-0.277819 0,0 0.174102,0.0242495 0.279821,0.207727 0.166367,-0.197844 0.165977,-0.50711 0.0778318,-0.755758 -0.0968173,-0.273097 -0.30097,-0.480908 -0.540125,-0.571841 -0.533943,-0.203015 -1.26019,0.079785 -1.53645,0.624539z"/>
     <path id="_111325224" class="fil1" d="M0.864949 1.84624c0,0 -0.0465213,0.141449 -0.263517,0.344786 0,0 0.205178,0.0110846 0.324238,-0.124168 0.119055,-0.135257 -0.0607214,-0.220619 -0.0607214,-0.220619z"/>
     <path id="_111325152" class="fil2" d="M1.12753 1.20444c0,0 0.229369,0.0339571 0.354543,0.148217 0,0 -0.0947078,-0.0256509 -0.202121,-0.0201819 0,0 -0.431515,0.113659 -0.569106,0.498863 0,0 0.1627,-0.0174473 0.236977,0.00795458 0,0 0.0877201,-0.115402 0.269245,-0.187584 0,0 -0.33106,0.239126 -0.359802,0.709344 0,0 0.186378,-0.0741744 0.367004,-0.229223l0.0231459 -0.0163096c0,0 0.0453201,-0.159018 0.218001,-0.28051 0,0 -0.213484,0.213328 -0.0916803,0.582672 0,0 0.0752779,-0.104376 0.195222,-0.150717 0,0 -0.0111774,-0.0999571 0.0527033,-0.207942 0,0 -0.0566098,0.204377 0.150136,0.496065 0.0123591,-0.131526 0.0441335,-0.266637 0.136815,-0.352843 0,0 0.0302118,0.0636952 0.101896,0.139588 0,0 -0.00973203,-0.112399 0.0184923,-0.175289 0,0 -0.0400708,-0.0580503 -0.0986631,-0.0994249 0,0 0.284914,-0.00328145 0.509645,0.207376 0,0 0.0131648,-0.166709 -0.0563413,-0.325034 0,0 -0.0677921,-0.0579527 -0.191872,-0.0770505 0,0 0.250469,-0.0499932 0.444455,0.0439333 0,0 0.00352072,-0.156469 -0.108791,-0.365813 0,0 0.0722895,0.0427516 0.123318,0.13283 0,0 0.184869,-0.0165049 0.293372,0.140907 0.165811,-0.393847 -0.0441286,-0.851442 -0.42066,-1.03639 -0.454427,-0.223197 -1.0724,-0.0727436 -1.39593,0.416558z"/>
     <path id="_111325080" class="fil3" d="M0.858865 2.36039c0.018297,-0.00750533 0.194416,-0.0817676 0.365412,-0.228559l0.023141 -0.0163145c0,0 0.0340548,-0.11946 0.155566,-0.230404 -0.294471,0.174454 -0.51776,0.442907 -0.544119,0.475277z"/>
     <path id="_111325008" class="fil4" d="M1.2135 1.65439c-0.0357053,0.02736 -0.329238,0.265128 -0.356232,0.706663l0.00400903 -0.00166514c0.0231459,-0.0813134 0.177071,-0.567495 0.592076,-0.742652 0,0 -0.112883,-0.0105573 -0.239853,0.0376536z"/>
     <path id="_111324936" class="fil4" d="M1.12753 1.20444c0,0 0.229374,0.0339522 0.354548,0.148222 0,0 -0.0947078,-0.0256558 -0.202121,-0.0201868 0,0 -0.427897,0.112756 -0.567339,0.494121 0.0552328,-0.0815674 0.31081,-0.421031 0.770705,-0.473798 0,0 -0.0564389,-0.119011 -0.17629,-0.193791 0,0 0.281472,-0.391684 0.865003,-0.46787 -0.384334,-0.0339376 -0.799105,0.142172 -1.04451,0.513302z"/>
     <path id="_111324864" class="fil3" d="M1.37727 2.41302c0.0161582,-0.0207434 0.0868607,-0.105558 0.191686,-0.146049 0,0 -0.0111823,-0.099962 0.0527033,-0.207947 0,0 -0.0123494,0.127913 0.118489,0.342906 0.0323408,-0.104982 0.0893657,-0.150785 0.168462,-0.199685 0,0 0.0302069,0.0636952 0.101891,0.139588 0,0 -0.00973203,-0.112399 0.0184972,-0.175289 0,0 -0.0400708,-0.0580455 -0.0986631,-0.0994102 0,0 0.28491,-0.0032961 0.509645,0.207356 0,0 0.0131697,-0.166704 -0.0563413,-0.325029 0,0 -0.0677921,-0.0579478 -0.191872,-0.0770505 0,0 0.188014,-0.0880717 0.362932,-0.0556723 0.00374534,-0.138631 -0.0264615,-0.262545 -0.0264615,-0.262545 0.00158213,0.00220716 0.00311542,0.00446316 0.00466825,0.00670939 -0.00179698,-0.00344259 -0.0036135,-0.00689983 -0.00547396,-0.0103668 0,0 0.0722895,0.0427565 0.123318,0.132825 0,0 0.184869,-0.0165049 0.293377,0.140907 0.133768,-0.317744 0.0229164,-0.676954 -0.222611,-0.901035 -0.043611,0.167964 -0.201921,0.511915 -0.775129,0.682057 0,0 0.171348,0.0398559 0.389105,-0.0141122 0,0 -0.173218,0.144247 -0.510109,0.139085 0,0 0.0240835,0.107516 -0.0325947,0.172129 0,0 -0.0161191,-0.122424 -0.0462137,-0.141835 0,0 -0.38245,0.258062 -0.369304,0.652461z"/>
     <path id="_111324792" class="fil1" d="M1.56017 2.33322c0,0 0.0450369,0.140834 -0.038015,0.2613 0,0 0.111525,-0.0464627 0.127053,-0.141507 0.0155283,-0.0950399 -0.0890385,-0.119792 -0.0890385,-0.119792z"/>
     <path id="_111324720" class="fil1" d="M1.35459 2.43609c0,0 -0.0208167,-0.192375 0.0854543,-0.311947 0,0 -0.04449,0.107419 -0.011026,0.299823l-0.056312 0.0661026 -0.0181163 -0.0539778z"/>
     <path id="_111324648" class="fil3" d="M2.62182 1.1751c0,0 -0.171817,0.188224 -0.741304,0.202717 0,0 0.23371,0.163711 0.655098,0.0371116 0.421387,-0.126599 0.0862063,-0.239829 0.0862063,-0.239829z"/>
     <path id="_111324576" class="fil4" d="M0.715214 1.82654c0,0 0.256119,-0.26733 0.668751,-0.298485 0,0 -0.164316,-0.0572544 -0.520641,0.0926911l-0.076401 0.067924 -0.0717084 0.13787z"/>
     <path id="_111324504" class="fil4" d="M1.25999 1.19916c0,0 0.282214,-0.228251 0.756295,-0.244429 0,0 -0.22117,-0.100328 -0.622415,0.0181114l-0.141171 0.145805 0.00729047 0.0805126z"/>
     <path id="_111324432" class="fil1" d="M2.68539 0.863299c0,0 0.0181456,0.23934 -0.259307,0.428512 0,0 0.287468,-0.079287 0.354279,-0.358591 -0.0677677,-0.140077 -0.0949715,-0.0699212 -0.0949715,-0.0699212z"/>
     <path id="_111324360" class="fil1" d="M2.44379 2.28467c0,0 -0.0987998,-0.233583 -0.326699,-0.322744 0,0 0.137406,0.107331 0.1951,0.276345l0.0753902 0.061908 0.0562094 -0.0155087z"/>
     <path id="_111324288" class="fil1" d="M2.94244 1.84819c0,0 -0.0331758,-0.331533 -0.192428,-0.502242 0,0 0.165015,0.0792039 0.265294,0.343541 0,0 -0.0165684,0.0989219 -0.0206799,0.107843 -0.00411157,0.00891655 -0.0521857,0.0508575 -0.0521857,0.0508575z"/>
    </g>
    <path id="_111324192" class="fil4" d="M2.03943 1.00794c-0.39474,0.0121296 -0.620789,0.152236 -0.620789,0.152236 0,0 0.143261,0.00138192 0.330435,0.147616 0,0 -0.0300213,-0.088477 -0.112277,-0.166358 0,0 0.190895,-0.100773 0.402631,-0.133494z"/>
   </g>
   <g>
    <g>
     <path id="_111324096" class="fil1" d="M6.74443 1.28025c0,0 0.213992,0.142943 0.4359,0.148637 0,0 -0.107609,0.129939 -0.399301,0.0547494 -0.291692,-0.0751949 -0.0365989,-0.203386 -0.0365989,-0.203386z"/>
     <path id="_111324024" class="fil1" d="M5.25563 1.76394c0,0 -0.127415,0.127937 -0.153657,0.315746 0,0 -0.0726606,-0.139818 0.0245327,-0.356447 0.0971933,-0.216634 0.182159,-0.067963 0.129124,0.0407007z"/>
     <path id="_111323952" class="fil1" d="M5.86537 2.26912c0,0 -0.101837,0.0254214 -0.170142,0.119953 0,0 0.00620154,-0.13598 0.0867776,-0.22747 0.0805761,-0.0914898 0.0833644,0.107516 0.0833644,0.107516z"/>
     <path id="_111323880" class="fil1" d="M6.62568 2.29108c0,0 0.132054,0.0862844 0.207005,0.245273 0,0 0.0260807,-0.24541 -0.186539,-0.403774l-0.0295623 0.0433375 0.00909722 0.115163z"/>
     <path id="_111323808" class="fil1" d="M6.97936 0.95868c0,0 -0.173013,0.168877 -0.446008,0.0206262 -0.27299,-0.148251 -0.140824,-0.250938 -0.140824,-0.250938 0,0 0.299188,0.192209 0.586832,0.230312z"/>
     <path id="_111323736" class="fil1" d="M6.94215 1.26674c0,0 -0.100987,-0.0125154 -0.21512,0.0280193 0,0 0.472948,0.117282 0.611457,0.645805 0,0 -0.173736,-0.0649453 -0.321762,-0.0359494 0,0 0.182384,0.301717 0.12803,0.619842 0,0 -0.2782,-0.125252 -0.489722,-0.334087 0,0 0.0602233,0.176402 -0.107775,0.385028 0,0 -0.0819629,-0.13577 -0.219998,-0.21348 0,0 -0.051839,0.194294 -0.259303,0.377283 0,0 0.0216468,-0.171534 -0.0603405,-0.405747 0,0 -0.0512238,0.103058 -0.19572,0.204768 0,0 0.0280193,-0.196755 -0.00906792,-0.330967 0,0 -0.223016,0.0702923 -0.373577,0.270514 0,0 -0.133553,-0.202693 0.00290056,-0.506427 0,0 -0.13387,-0.00342306 -0.203176,0.068549 0,0 -0.0791551,-0.0803564 -0.00574741,-0.277819 0,0 -0.174102,0.0242495 -0.279821,0.207727 -0.166367,-0.197844 -0.165977,-0.50711 -0.0778318,-0.755758 0.0968173,-0.273097 0.30097,-0.480908 0.540125,-0.571841 0.533943,-0.203015 1.26019,0.079785 1.53645,0.624539z"/>
     <path id="_111323664" class="fil1" d="M7.04121 1.84624c0,0 0.0465213,0.141449 0.263517,0.344786 0,0 -0.205178,0.0110846 -0.324238,-0.124168 -0.119055,-0.135257 0.0607214,-0.220619 0.0607214,-0.220619z"/>
     <path id="_111323592" class="fil2" d="M6.77863 1.20444c0,0 -0.229369,0.0339571 -0.354543,0.148217 0,0 0.0947078,-0.0256509 0.202121,-0.0201819 0,0 0.431515,0.113659 0.569106,0.498863 0,0 -0.1627,-0.0174473 -0.236977,0.00795458 0,0 -0.0877201,-0.115402 -0.269245,-0.187584 0,0 0.33106,0.239126 0.359802,0.709344 0,0 -0.186378,-0.0741744 -0.367004,-0.229223l-0.0231459 -0.0163096c0,0 -0.0453201,-0.159018 -0.218001,-0.28051 0,0 0.213484,0.213328 0.0916803,0.582672 0,0 -0.0752779,-0.104376 -0.195222,-0.150717 0,0 0.0111774,-0.0999571 -0.0527033,-0.207942 0,0 0.0566098,0.204377 -0.150136,0.496065 -0.0123591,-0.131526 -0.0441335,-0.266637 -0.136815,-0.352843 0,0 -0.0302118,0.0636952 -0.101896,0.139588 0,0 0.00973203,-0.112399 -0.0184923,-0.175289 0,0 0.0400708,-0.0580503 0.0986631,-0.0994249 0,0 -0.284914,-0.00328145 -0.509645,0.207376 0,0 -0.0131648,-0.166709 0.0563413,-0.325034 0,0 0.0677921,-0.0579527 0.191872,-0.0770505 0,0 -0.250469,-0.0499932 -0.444455,0.0439333 0,0 -0.00352072,-0.156469 0.108791,-0.365813 0,0 -0.0722895,0.0427516 -0.123318,0.13283 0,0 -0.184869,-0.0165049 -0.293372,0.140907 -0.165811,-0.393847 0.0441286,-0.851442 0.42066,-1.03639 0.454427,-0.223197 1.0724,-0.0727436 1.39593,0.416558z"/>
     <path id="_111323520" class="fil3" d="M7.0473 2.36039c-0.018297,-0.00750533 -0.194416,-0.0817676 -0.365412,-0.228559l-0.023141 -0.0163145c0,0 -0.0340548,-0.11946 -0.155566,-0.230404 0.294471,0.174454 0.51776,0.442907 0.544119,0.475277z"/>
     <path id="_111323448" class="fil4" d="M6.69266 1.65439c0.0357053,0.02736 0.329238,0.265128 0.356232,0.706663l-0.00400903 -0.00166514c-0.0231459,-0.0813134 -0.177071,-0.567495 -0.592076,-0.742652 0,0 0.112883,-0.0105573 0.239853,0.0376536z"/>
     <path id="_111323376" class="fil4" d="M6.77863 1.20444c0,0 -0.229374,0.0339522 -0.354548,0.148222 0,0 0.0947078,-0.0256558 0.202121,-0.0201868 0,0 0.427897,0.112756 0.567339,0.494121 -0.0552328,-0.0815674 -0.31081,-0.421031 -0.770705,-0.473798 0,0 0.0564389,-0.119011 0.17629,-0.193791 0,0 -0.281472,-0.391684 -0.865003,-0.46787 0.384334,-0.0339376 0.799105,0.142172 1.04451,0.513302z"/>
     <path id="_111323304" class="fil3" d="M6.52889 2.41302c-0.0161582,-0.0207434 -0.0868607,-0.105558 -0.191686,-0.146049 0,0 0.0111823,-0.099962 -0.0527033,-0.207947 0,0 0.0123494,0.127913 -0.118489,0.342906 -0.0323408,-0.104982 -0.0893657,-0.150785 -0.168462,-0.199685 0,0 -0.0302069,0.0636952 -0.101891,0.139588 0,0 0.00973203,-0.112399 -0.0184972,-0.175289 0,0 0.0400708,-0.0580455 0.0986631,-0.0994102 0,0 -0.28491,-0.0032961 -0.509645,0.207356 0,0 -0.0131697,-0.166704 0.0563413,-0.325029 0,0 0.0677921,-0.0579478 0.191872,-0.0770505 0,0 -0.188014,-0.0880717 -0.362932,-0.0556723 -0.00374534,-0.138631 0.0264615,-0.262545 0.0264615,-0.262545 -0.00158213,0.00220716 -0.00311542,0.00446316 -0.00466825,0.00670939 0.00179698,-0.00344259 0.0036135,-0.00689983 0.00547396,-0.0103668 0,0 -0.0722895,0.0427565 -0.123318,0.132825 0,0 -0.184869,-0.0165049 -0.293377,0.140907 -0.133768,-0.317744 -0.0229164,-0.676954 0.222611,-0.901035 0.043611,0.167964 0.201921,0.511915 0.775129,0.682057 0,0 -0.171348,0.0398559 -0.389105,-0.0141122 0,0 0.173218,0.144247 0.510109,0.139085 0,0 -0.0240835,0.107516 0.0325947,0.172129 0,0 0.0161191,-0.122424 0.0462137,-0.141835 0,0 0.38245,0.258062 0.369304,0.652461z"/>
     <path id="_111323232" class="fil1" d="M6.34599 2.33322c0,0 -0.0450369,0.140834 0.038015,0.2613 0,0 -0.111525,-0.0464627 -0.127053,-0.141507 -0.0155283,-0.0950399 0.0890385,-0.119792 0.0890385,-0.119792z"/>
     <path id="_111323160" class="fil1" d="M6.55157 2.43609c0,0 0.0208167,-0.192375 -0.0854543,-0.311947 0,0 0.04449,0.107419 0.011026,0.299823l0.056312 0.0661026 0.0181163 -0.0539778z"/>
     <path id="_111323088" class="fil3" d="M5.28434 1.1751c0,0 0.171817,0.188224 0.741304,0.202717 0,0 -0.23371,0.163711 -0.655098,0.0371116 -0.421387,-0.126599 -0.0862063,-0.239829 -0.0862063,-0.239829z"/>
     <path id="_111323016" class="fil4" d="M7.19095 1.82654c0,0 -0.256119,-0.26733 -0.668751,-0.298485 0,0 0.164316,-0.0572544 0.520641,0.0926911l0.076401 0.067924 0.0717084 0.13787z"/>
     <path id="_111322944" class="fil4" d="M6.64617 1.19916c0,0 -0.282214,-0.228251 -0.756295,-0.244429 0,0 0.22117,-0.100328 0.622415,0.0181114l0.141171 0.145805 -0.00729047 0.0805126z"/>
     <path id="_111322872" class="fil1" d="M5.22077 0.863299c0,0 -0.0181456,0.23934 0.259307,0.428512 0,0 -0.287468,-0.079287 -0.354279,-0.358591 0.0677677,-0.140077 0.0949715,-0.0699212 0.0949715,-0.0699212z"/>
     <path id="_111322800" class="fil1" d="M5.46237 2.28467c0,0 0.0987998,-0.233583 0.326699,-0.322744 0,0 -0.137406,0.107331 -0.1951,0.276345l-0.0753902 0.061908 -0.0562094 -0.0155087z"/>
     <path id="_111322728" class="fil1" d="M4.96372 1.84819c0,0 0.0331758,-0.331533 0.192428,-0.502242 0,0 -0.165015,0.0792039 -0.265294,0.343541 0,0 0.0165684,0.0989219 0.0206799,0.107843 0.00411157,0.00891655 0.0521857,0.0508575 0.0521857,0.0508575z"/>
    </g>
    <path id="_111322632" class="fil4" d="M5.86673 1.00794c0.39474,0.0121296 0.620789,0.152236 0.620789,0.152236 0,0 -0.143261,0.00138192 -0.330435,0.147616 0,0 0.0300213,-0.088477 0.112277,-0.166358 0,0 -0.190895,-0.100773 -0.402631,-0.133494z"/>
   </g>
  </g>
 </g>
</svg>
