<?xml version="1.0" encoding="UTF-8"?>
<!DOCTYPE svg PUBLIC "-//W3C//DTD SVG 1.1//EN" "http://www.w3.org/Graphics/SVG/1.1/DTD/svg11.dtd">
<!-- Creator: CorelDRAW -->
<svg xmlns="http://www.w3.org/2000/svg" xml:space="preserve" width="161.908mm" height="176.792mm" style="shape-rendering:geometricPrecision; text-rendering:geometricPrecision; image-rendering:optimizeQuality; fill-rule:evenodd; clip-rule:evenodd"
viewBox="0 0 12.3917 13.5308"
 xmlns:xlink="http://www.w3.org/1999/xlink">
 <defs>
  <style type="text/css">
   <![CDATA[
    .fil13 {fill:none}
    .fil5 {fill:#4D3A47}
    .fil0 {fill:#501D33}
    .fil4 {fill:#62545D}
    .fil3 {fill:#703D43}
    .fil1 {fill:#845451}
    .fil9 {fill:#965F54}
    .fil12 {fill:#9893A0}
    .fil6 {fill:#9A8D8E}
    .fil2 {fill:#AF8777}
    .fil7 {fill:#BE986E}
    .fil10 {fill:#C7C0C9}
    .fil8 {fill:#DBC593}
    .fil11 {fill:white}
   ]]>
  </style>
 </defs>
 <g id="Layer_x0020_1">
  <metadata id="CorelCorpID_0Corel-Layer"/>
  <g id="_112692296">
   <g>
    <g>
     <path id="_112972296" class="fil0" d="M8.7964 1.43083c0,0 1.22564,0.347845 2.2439,1.55596 0,0 -0.0073627,0.594764 -0.0185139,0.617678 -0.0111512,0.0229147 -0.515297,0.00136998 -0.515297,0.00136998 0,0 -0.718154,-0.829421 -1.75322,-1.53671 0,0 -0.103506,-0.138008 -0.0690042,-0.491655l0.0340123 -0.1261 0.0781196 -0.0205344z"/>
     <path id="_112972224" class="fil1" d="M8.80928 1.55478l-0.011641 0.0431812c-0.00925312,0.101226 -0.00914597,0.212064 0.0146412,0.311024 0.00521971,0.0217207 -0.0367905,0.0684532 -0.0249429,0.0926766 0.636047,0.437338 1.25584,0.914314 1.77281,1.49145 0.0686751,0.00262516 0.137457,0.00459977 0.206117,0.00593149 0.0478652,0.000918424 0.0958605,0.00155367 0.143733,0.000964345 0.00148479,-2.29606e-005 0.00301549,-3.82677e-005 0.00458447,-4.59212e-005 0.000176031,-0.0068346 0.000352062,-0.0134779 0.000581668,-0.019792 0.00223483,-0.0621773 0.00373492,-0.124408 0.00508195,-0.186601 0.00192104,-0.0883906 0.00348236,-0.17682 0.00469162,-0.265233 -0.405209,-0.472697 -0.932284,-0.863793 -1.47804,-1.16328 -0.167528,-0.0919342 -0.307136,-0.184129 -0.48502,-0.254143 -0.0489061,-0.0192486 -0.101134,-0.039408 -0.152596,-0.0561387z"/>
     <path id="_112972152" class="fil2" d="M10.5563 3.48882l0.00387269 0.00429363c0.0686751,0.00262516 0.137457,0.00459977 0.206117,0.00593149 0.0478652,0.000918424 0.0958605,0.00155367 0.143733,0.000964345 0.00148479,-2.29606e-005 0.00301549,-3.82677e-005 0.00458447,-4.59212e-005 0.000176031,-0.0068346 0.000352062,-0.0134779 0.000581668,-0.019792 0.00223483,-0.0621773 0.00373492,-0.124408 0.00508195,-0.186601 0.00177562,-0.081755 0.00322214,-0.163564 0.00439313,-0.245342 -0.0283946,-0.00370431 -0.0585495,-0.00333694 -0.090679,0.00175266l-0.0129268 0.357642 -0.264759 0.0811963z"/>
     <path id="_112972080" class="fil2" d="M10.9208 3.26843c0.00167612,-0.0800253 0.00307672,-0.160066 0.00417117,-0.240099 -0.405209,-0.472697 -0.932284,-0.863793 -1.47804,-1.16328 -0.167528,-0.0919342 -0.307136,-0.184129 -0.48502,-0.254143 -0.0152076,-0.00598506 -0.0307442,-0.0120696 -0.0464646,-0.0181006 0.158979,0.0783339 1.46938,0.744543 2.00536,1.67562z"/>
     <path id="_112972008" class="fil3" d="M8.80928 1.55478l-0.011641 0.0431812c-0.00925312,0.101226 -0.00914597,0.212064 0.0146412,0.311024 0.00521971,0.0217207 -0.0367905,0.0684532 -0.0249429,0.0926766 0.309402,0.212745 0.614946,0.434851 0.906691,0.673319 0.127209,-0.13807 0.267445,-0.270537 0.419812,-0.387154 -0.214039,-0.156438 -0.438846,-0.2976 -0.666944,-0.422766 -0.167528,-0.0919342 -0.307136,-0.184129 -0.48502,-0.254143 -0.0489061,-0.0192486 -0.101134,-0.039408 -0.152596,-0.0561387z"/>
     <path id="_112971936" class="fil0" d="M8.77481 2.06482c0,0 0.884136,0.539084 1.75531,1.51377 0,0 0.0539191,0.25562 0.0237566,0.777002 0,0 -0.249918,-0.0215447 -0.534308,-0.0560162 0,0 -0.774652,-1.01425 -1.31806,-1.55766 0,0 -0.0909622,-0.0840434 -0.0737265,-0.385669 0.0172358,-0.301626 0.147024,-0.291424 0.147024,-0.291424z"/>
     <path id="_112971864" class="fil1" d="M10.445 4.23042c0.00554116,-0.147552 0.00505898,-0.296505 -0.00558708,-0.443025 -0.00358951,-0.0494112 -0.00792906,-0.105182 -0.0162714,-0.156186 -0.35442,-0.393307 -0.730223,-0.785237 -1.15231,-1.10452 -0.130409,-0.098654 -0.285523,-0.16377 -0.422261,-0.253485 -0.027767,-0.0182154 -0.0559397,-0.0366068 -0.0843725,-0.0545161 -0.0138146,0.0468396 -0.0202819,0.118385 -0.0217513,0.144101 -0.00377319,0.0659275 -0.00299253,0.240979 0.0420179,0.299674 0.174776,0.174914 0.340743,0.361997 0.501804,0.549547 0.272542,0.317384 0.540033,0.646892 0.79508,0.979338 0.120895,0.0143351 0.242318,0.0275144 0.36365,0.0390713z"/>
     <path id="_112971792" class="fil2" d="M10.445 4.23042c0.00554116,-0.147552 0.00505898,-0.296505 -0.00558708,-0.443025 -0.00358951,-0.0494112 -0.00792906,-0.105182 -0.0162714,-0.156186 -0.00478346,0.135697 -0.0204579,0.354075 -0.038436,0.482831 -0.121331,-0.0115568 -0.150277,-0.013983 -0.271172,-0.0283181 -0.255046,-0.332446 -0.591358,-0.696364 -0.911214,-1.00945 -0.0332469,-0.0387116 -0.677001,-0.75173 -0.417852,-0.413811 0.174776,0.174914 0.340743,0.361997 0.501804,0.549547 0.272542,0.317384 0.540033,0.646892 0.79508,0.979338 0.120895,0.0143351 0.242318,0.0275144 0.36365,0.0390713z"/>
     <polygon id="_112971720" class="fil2" points="10.0493,3.23247 9.72172,3.40079 9.982,3.15208 "/>
     <path id="_112971648" class="fil3" d="M9.592 2.79006c-0.10421,-0.0918806 -0.211146,-0.180111 -0.321211,-0.263366 -0.130409,-0.098654 -0.285523,-0.16377 -0.422261,-0.253485 -0.027767,-0.0182154 -0.0559397,-0.0366068 -0.0843725,-0.0545161 -0.0138146,0.0468396 -0.0202819,0.118385 -0.0217513,0.144101 -0.00377319,0.0659275 -0.00299253,0.240979 0.0420179,0.299674 0.171692,0.171822 0.33488,0.355415 0.49327,0.539628 0.0913832,-0.133524 0.196413,-0.274096 0.314308,-0.412036z"/>
     <path id="_112696976" class="fil0" d="M8.70535 2.75697c0,0 0.818698,0.758373 1.32715,1.5426 0,0 -0.00861788,0.409349 -0.180975,0.745446 0,0 -0.327479,-0.116341 -0.551544,-0.159431 0,0 -0.262072,-0.936103 -0.874485,-1.63477 0,0 -0.0648637,-0.209454 -0.000229606,-0.34734 0.0646341,-0.137886 0.280081,-0.146504 0.280081,-0.146504z"/>
     <path id="_112696904" class="fil1" d="M8.66599 2.87736c-0.0532992,0.0103476 -0.117872,0.0345174 -0.136769,0.0748439 -0.0285247,0.0608379 -0.0181159,0.170299 -3.06141e-005,0.242908 0.276683,0.320851 0.49738,0.702242 0.668184,1.0886 0.0589322,0.133302 0.112913,0.269328 0.160563,0.407084 0.0109981,0.0317851 0.0220192,0.0641136 0.0323668,0.0965723 0.0419184,0.00960518 0.0836301,0.0204196 0.124982,0.0317469 0.0917276,0.0251342 0.184358,0.0532533 0.275481,0.0835995 0.0488755,-0.118477 0.0812652,-0.246597 0.101953,-0.37112 0.0105619,-0.0635932 0.0199757,-0.133569 0.0236341,-0.199887 -0.0599578,-0.0909775 -0.123,-0.179988 -0.188101,-0.267338 -0.223782,-0.300271 -0.473983,-0.585954 -0.732787,-0.856537 -0.106637,-0.111489 -0.216794,-0.224034 -0.329477,-0.330472z"/>
     <path id="_112696832" class="fil2" d="M8.87604 3.67089c0.122288,0.196987 0.229101,0.404191 0.321334,0.612826 0.0589322,0.133302 0.112913,0.269328 0.160563,0.407084 0.0109981,0.0317851 0.0220192,0.0641136 0.0323668,0.0965723 0.0419184,0.00960518 0.0836301,0.0204196 0.124982,0.0317469 0.0917276,0.0251342 0.184358,0.0532533 0.275481,0.0835995 0.0488755,-0.118477 0.0812652,-0.246597 0.101953,-0.37112 0.00714075,-0.0429899 0.0137304,-0.0889187 0.0183991,-0.134641 -0.0759843,0.230685 -0.191093,0.38733 -0.191093,0.38733l-0.279951 -0.06468c-0.107723,-0.413658 -0.562366,-1.04914 -0.562366,-1.04914l-0.00166847 0.000420944z"/>
     <path id="_112696760" class="fil3" d="M9.88777 4.56007c0.00171439,-0.00951334 0.00336755,-0.0189961 0.00494418,-0.0284788 0.0105619,-0.0635932 0.0199757,-0.133569 0.0236341,-0.199887 -0.0599578,-0.0909775 -0.123,-0.179988 -0.188101,-0.267338 -0.195318,-0.26208 -0.410773,-0.513055 -0.634501,-0.752564 -0.0116563,0.0153606 -0.0233586,0.0328183 -0.0350685,0.0527252 0,0 0.475988,0.554889 0.829092,1.19554z"/>
     <path id="_112696688" class="fil3" d="M8.66599 2.87736c-0.0532992,0.0103476 -0.117872,0.0345174 -0.136769,0.0748439 -0.0285247,0.0608379 -0.0181159,0.170299 -3.06141e-005,0.242908 0.15229,0.176605 0.287597,0.371525 0.406984,0.575553 0.0522277,-0.100101 0.127125,-0.235377 0.223116,-0.388095 -0.0541105,-0.0589322 -0.108764,-0.117168 -0.163824,-0.174738 -0.106637,-0.111489 -0.216794,-0.224034 -0.329477,-0.330472z"/>
     <path id="_112696616" class="fil0" d="M10.011 2.00722c0,0 -0.52569,-0.452439 -1.17203,-0.586016 0,0 -0.422054,0.3719 -0.516935,1.5536l-0.000137764 0.225993 0.495528 0.547235c0,0 0.249918,-0.926422 1.19358,-1.74081z"/>
     <path id="_112696544" class="fil4" d="M9.886 2.09264c0,0 -0.447908,-0.385493 -0.998618,-0.499309 0,0 -0.359609,0.316879 -0.440453,1.32373l-0.000114803 0.192555 0.422207 0.466268c0,0 0.212944,-0.789355 1.01698,-1.48325z"/>
     <path id="_112696472" class="fil5" d="M8.56315 2.70957c0,0 0.374878,-0.754064 0.840243,-0.887641l-0.00430894 0.32317 -0.577398 0.73252 -0.258536 -0.168049z"/>
     <path id="_112696400" class="fil5" d="M8.54567 2.30181c-0.0432118,0.168194 -0.0791605,0.371434 -0.0987382,0.615244l-0.000122457 0.192563 0.421702 0.465725 0.000880156 -0.000773007c0.00724024,-0.0259914 0.136325,-0.475231 0.541587,-0.986846 -0.000566361,-0.0974677 -0.0687517,-0.169702 -0.27043,-0.175465 -0.294347,-0.00841123 -0.480925,-0.0599118 -0.594878,-0.110448z"/>
     <path id="_112696328" class="fil6" d="M9.886 2.09265c0,0 -0.419613,-0.361147 -0.945915,-0.48753 0.119204,0.0600113 0.485089,0.25213 0.885705,0.540745 0.0197308,-0.0177868 0.0397218,-0.0355353 0.0602103,-0.053215z"/>
     <path id="_112696256" class="fil0" d="M8.83031 3.81697c0,0 0.423141,-1.23015 1.2599,-1.70909 0,0 -0.0727162,-0.303019 -0.497219,-0.385057 0,0 -0.774759,0.208199 -1.0683,1.69616l0.305621 0.397984z"/>
     <path id="_112696184" class="fil7" d="M9.92619 2.06461c-0.0897606,-0.110387 -0.219656,-0.194736 -0.374036,-0.212439 -0.500625,0.259585 -0.80385,1.02374 -0.901265,1.54268l0.142425 0.18546c0.229981,-0.580222 0.612719,-1.15148 1.13288,-1.5157z"/>
     <path id="_112696112" class="fil8" d="M9.92619 2.06461c-0.0897606,-0.110387 -0.219656,-0.194736 -0.374036,-0.212439 -0.0296957,0.0153989 -0.0586643,0.0326347 -0.0869747,0.0514317 0.11103,0.0696318 0.231734,0.149596 0.355905,0.238874 0.034395,-0.0268792 0.0694099,-0.0528706 0.105106,-0.077867z"/>
     <path id="_112696040" class="fil9" d="M8.68494 3.3914l0.10108 0.137641c0.141942,-0.365617 0.250791,-0.570854 0.372061,-0.73767l-0.215064 -0.13549c-0.128549,0.199681 -0.206263,0.484782 -0.258077,0.73552z"/>
     <polygon id="_112695968" class="fil0" points="10.084,3.13161 9.71596,3.40715 9.97541,3.08151 "/>
     <path id="_112695896" class="fil0" d="M8.45547 3.20942c0,0 0.02156,-0.562343 0.301587,-1.09448 0,0 -0.198211,0.667885 -0.193902,1.14618l-0.0459595 0.00769945 -0.0617257 -0.0593991z"/>
    </g>
    <g>
     <rect id="_112695800" class="fil0" transform="matrix(0.495439 0.412945 -0.412945 0.495439 9.24638 1.80589)" width="1.21617" height="0.875763" rx="0.179345" ry="0.179345"/>
     <rect id="_112695728" class="fil10" transform="matrix(0.454616 0.378919 -0.378919 0.454616 9.26499 1.94007)" width="0.986747" height="0.646341" rx="0.0646341" ry="0.0646341"/>
     <path id="_112695656" class="fil11" d="M9.48726 2.58409c-0.0138682,0.0107762 -0.0339664,0.0108986 -0.0479876,-0.00078066l-0.38981 -0.324908c-0.0161719,-0.0134702 -0.0183761,-0.037709 -0.00489826,-0.0538732l0.19593 -0.235071c0.00997255,-0.0119625 0.0258613,-0.0162791 0.0399897,-0.0122457 -0.00212768,0.00165316 -0.0041176,0.00354359 -0.00590853,0.00569423l-0.195923 0.235071c-0.0134855,0.0161643 -0.0112813,0.040403 0.00489061,0.0538732l0.38981 0.324908c0.00420179,0.00349766 0.00895463,0.00591618 0.0139065,0.00733208z"/>
     <path id="_112695584" class="fil12" d="M9.52324 2.15531l0.160969 0.134166c0.016149,0.0134932 0.0183149,0.037686 0.00492122,0.0539115l-0.195976 0.235032c-0.0134626,0.016126 -0.0377013,0.0183455 -0.0538656,0.0048753l-0.192195 -0.160181c0.105825,-0.0883065 0.202122,-0.186241 0.276147,-0.267805z"/>
     <polygon id="_112695512" class="fil0" points="9.28285,2.03596 9.61602,2.31366 9.4508,2.51194 9.11758,2.23419 "/>
     <rect id="_112695440" class="fil0" transform="matrix(0.38428 0.320295 -0.320295 0.38428 9.30049 2.12084)" width="0.595621" height="0.300371"/>
     <g>
      <path id="_112695368" class="fil0" d="M9.16035 2.38646l0.136577 -0.155374c0.0181924,0.00101792 0.0945977,0.0117405 0.138743,0.118538l-0.138284 0.157303c-0.0330173,0.0375712 -0.0905719,0.0412525 -0.128181,0.00818928l-0.000635243 -0.000558708c-0.0375635,-0.0330173 -0.0412372,-0.0905336 -0.00821989,-0.128097z"/>
      <path id="_112695296" class="fil10" d="M9.19455 2.41653l0.151035 -0.171822c0.0213304,0.0105083 0.0459442,0.0290452 0.0674506,0.0617028l-0.149849 0.170459c-0.0164245,0.0186976 -0.0451558,0.0205421 -0.0638458,0.00410995l-0.000681164 -0.000604629c-0.0186976,-0.0164245 -0.0205421,-0.0451558 -0.00410995,-0.0638458z"/>
     </g>
     <path id="_112695200" class="fil12" d="M9.24763 2.46959l0.150667 -0.162462 -0.0292365 -0.0292441c0,0 -0.0850307,0.108481 -0.121431,0.191706z"/>
    </g>
    <circle id="_112695104" class="fil0" cx="9.07113" cy="2.65169" r="0.0668613"/>
   </g>
   <g>
    <g>
     <path id="_112695008" class="fil0" d="M3.61163 1.43083c0,0 -1.22564,0.347845 -2.2439,1.55596 0,0 0.0073627,0.594764 0.0185139,0.617678 0.0111512,0.0229147 0.515297,0.00136998 0.515297,0.00136998 0,0 0.718154,-0.829421 1.75322,-1.53671 0,0 0.103506,-0.138008 0.0690042,-0.491655l-0.0340123 -0.1261 -0.0781196 -0.0205344z"/>
     <path id="_112694936" class="fil1" d="M3.59874 1.55478l0.011641 0.0431812c0.00925312,0.101226 0.00914597,0.212064 -0.0146412,0.311024 -0.00521971,0.0217207 0.0367905,0.0684532 0.0249429,0.0926766 -0.636047,0.437338 -1.25584,0.914314 -1.77281,1.49145 -0.0686751,0.00262516 -0.137457,0.00459977 -0.206117,0.00593149 -0.0478652,0.000918424 -0.0958605,0.00155367 -0.143733,0.000964345 -0.00148479,-2.29606e-005 -0.00301549,-3.82677e-005 -0.00458447,-4.59212e-005 -0.000176031,-0.0068346 -0.000352062,-0.0134779 -0.000581668,-0.019792 -0.00223483,-0.0621773 -0.00373492,-0.124408 -0.00508195,-0.186601 -0.00192104,-0.0883906 -0.00348236,-0.17682 -0.00469162,-0.265233 0.405209,-0.472697 0.932284,-0.863793 1.47804,-1.16328 0.167528,-0.0919342 0.307136,-0.184129 0.48502,-0.254143 0.0489061,-0.0192486 0.101134,-0.039408 0.152596,-0.0561387z"/>
     <path id="_112694864" class="fil2" d="M1.85174 3.48882l-0.00387269 0.00429363c-0.0686751,0.00262516 -0.137457,0.00459977 -0.206117,0.00593149 -0.0478652,0.000918424 -0.0958605,0.00155367 -0.143733,0.000964345 -0.00148479,-2.29606e-005 -0.00301549,-3.82677e-005 -0.00458447,-4.59212e-005 -0.000176031,-0.0068346 -0.000352062,-0.0134779 -0.000581668,-0.019792 -0.00223483,-0.0621773 -0.00373492,-0.124408 -0.00508195,-0.186601 -0.00177562,-0.081755 -0.00322214,-0.163564 -0.00439313,-0.245342 0.0283946,-0.00370431 0.0585495,-0.00333694 0.090679,0.00175266l0.0129268 0.357642 0.264759 0.0811963z"/>
     <path id="_112694792" class="fil2" d="M1.48725 3.26843c-0.00167612,-0.0800253 -0.00307672,-0.160066 -0.00417117,-0.240099 0.405209,-0.472697 0.932284,-0.863793 1.47804,-1.16328 0.167528,-0.0919342 0.307136,-0.184129 0.48502,-0.254143 0.0152076,-0.00598506 0.0307442,-0.0120696 0.0464646,-0.0181006 -0.158979,0.0783339 -1.46938,0.744543 -2.00536,1.67562z"/>
     <path id="_112694720" class="fil3" d="M3.59874 1.55478l0.011641 0.0431812c0.00925312,0.101226 0.00914597,0.212064 -0.0146412,0.311024 -0.00521971,0.0217207 0.0367905,0.0684532 0.0249429,0.0926766 -0.309402,0.212745 -0.614946,0.434851 -0.906691,0.673319 -0.127209,-0.13807 -0.267445,-0.270537 -0.419812,-0.387154 0.214039,-0.156438 0.438846,-0.2976 0.666944,-0.422766 0.167528,-0.0919342 0.307136,-0.184129 0.48502,-0.254143 0.0489061,-0.0192486 0.101134,-0.039408 0.152596,-0.0561387z"/>
     <path id="_112694648" class="fil0" d="M3.63321 2.06482c0,0 -0.884136,0.539084 -1.75531,1.51377 0,0 -0.0539191,0.25562 -0.0237566,0.777002 0,0 0.249918,-0.0215447 0.534308,-0.0560162 0,0 0.774652,-1.01425 1.31806,-1.55766 0,0 0.0909622,-0.0840434 0.0737265,-0.385669 -0.0172358,-0.301626 -0.147024,-0.291424 -0.147024,-0.291424z"/>
     <path id="_112694576" class="fil1" d="M1.96306 4.23042c-0.00554116,-0.147552 -0.00505898,-0.296505 0.00558708,-0.443025 0.00358951,-0.0494112 0.00792906,-0.105182 0.0162714,-0.156186 0.35442,-0.393307 0.730223,-0.785237 1.15231,-1.10452 0.130409,-0.098654 0.285523,-0.16377 0.422261,-0.253485 0.027767,-0.0182154 0.0559397,-0.0366068 0.0843725,-0.0545161 0.0138146,0.0468396 0.0202819,0.118385 0.0217513,0.144101 0.00377319,0.0659275 0.00299253,0.240979 -0.0420179,0.299674 -0.174776,0.174914 -0.340743,0.361997 -0.501804,0.549547 -0.272542,0.317384 -0.540033,0.646892 -0.79508,0.979338 -0.120895,0.0143351 -0.242318,0.0275144 -0.36365,0.0390713z"/>
     <path id="_112694504" class="fil2" d="M1.96306 4.23042c-0.00554116,-0.147552 -0.00505898,-0.296505 0.00558708,-0.443025 0.00358951,-0.0494112 0.00792906,-0.105182 0.0162714,-0.156186 0.00478346,0.135697 0.0204579,0.354075 0.038436,0.482831 0.121331,-0.0115568 0.150277,-0.013983 0.271172,-0.0283181 0.255046,-0.332446 0.591358,-0.696364 0.911214,-1.00945 0.0332469,-0.0387116 0.677001,-0.75173 0.417852,-0.413811 -0.174776,0.174914 -0.340743,0.361997 -0.501804,0.549547 -0.272542,0.317384 -0.540033,0.646892 -0.79508,0.979338 -0.120895,0.0143351 -0.242318,0.0275144 -0.36365,0.0390713z"/>
     <polygon id="_112694432" class="fil2" points="2.35874,3.23247 2.6863,3.40079 2.42602,3.15208 "/>
     <path id="_112694360" class="fil3" d="M2.81602 2.79006c0.10421,-0.0918806 0.211146,-0.180111 0.321211,-0.263366 0.130409,-0.098654 0.285523,-0.16377 0.422261,-0.253485 0.027767,-0.0182154 0.0559397,-0.0366068 0.0843725,-0.0545161 0.0138146,0.0468396 0.0202819,0.118385 0.0217513,0.144101 0.00377319,0.0659275 0.00299253,0.240979 -0.0420179,0.299674 -0.171692,0.171822 -0.33488,0.355415 -0.49327,0.539628 -0.0913832,-0.133524 -0.196413,-0.274096 -0.314308,-0.412036z"/>
     <path id="_112694288" class="fil0" d="M3.70267 2.75697c0,0 -0.818698,0.758373 -1.32715,1.5426 0,0 0.00861788,0.409349 0.180975,0.745446 0,0 0.327479,-0.116341 0.551544,-0.159431 0,0 0.262072,-0.936103 0.874485,-1.63477 0,0 0.0648637,-0.209454 0.000229606,-0.34734 -0.0646341,-0.137886 -0.280081,-0.146504 -0.280081,-0.146504z"/>
     <path id="_112694216" class="fil1" d="M3.74203 2.87736c0.0532992,0.0103476 0.117872,0.0345174 0.136769,0.0748439 0.0285247,0.0608379 0.0181159,0.170299 3.06141e-005,0.242908 -0.276683,0.320851 -0.49738,0.702242 -0.668184,1.0886 -0.0589322,0.133302 -0.112913,0.269328 -0.160563,0.407084 -0.0109981,0.0317851 -0.0220192,0.0641136 -0.0323668,0.0965723 -0.0419184,0.00960518 -0.0836301,0.0204196 -0.124982,0.0317469 -0.0917276,0.0251342 -0.184358,0.0532533 -0.275481,0.0835995 -0.0488755,-0.118477 -0.0812652,-0.246597 -0.101953,-0.37112 -0.0105619,-0.0635932 -0.0199757,-0.133569 -0.0236341,-0.199887 0.0599578,-0.0909775 0.123,-0.179988 0.188101,-0.267338 0.223782,-0.300271 0.473983,-0.585954 0.732787,-0.856537 0.106637,-0.111489 0.216794,-0.224034 0.329477,-0.330472z"/>
     <path id="_112694144" class="fil2" d="M3.53198 3.67089c-0.122288,0.196987 -0.229101,0.404191 -0.321334,0.612826 -0.0589322,0.133302 -0.112913,0.269328 -0.160563,0.407084 -0.0109981,0.0317851 -0.0220192,0.0641136 -0.0323668,0.0965723 -0.0419184,0.00960518 -0.0836301,0.0204196 -0.124982,0.0317469 -0.0917276,0.0251342 -0.184358,0.0532533 -0.275481,0.0835995 -0.0488755,-0.118477 -0.0812652,-0.246597 -0.101953,-0.37112 -0.00714075,-0.0429899 -0.0137304,-0.0889187 -0.0183991,-0.134641 0.0759843,0.230685 0.191093,0.38733 0.191093,0.38733l0.279951 -0.06468c0.107723,-0.413658 0.562366,-1.04914 0.562366,-1.04914l0.00166847 0.000420944z"/>
     <path id="_112694072" class="fil3" d="M2.52025 4.56007c-0.00171439,-0.00951334 -0.00336755,-0.0189961 -0.00494418,-0.0284788 -0.0105619,-0.0635932 -0.0199757,-0.133569 -0.0236341,-0.199887 0.0599578,-0.0909775 0.123,-0.179988 0.188101,-0.267338 0.195318,-0.26208 0.410773,-0.513055 0.634501,-0.752564 0.0116563,0.0153606 0.0233586,0.0328183 0.0350685,0.0527252 0,0 -0.475988,0.554889 -0.829092,1.19554z"/>
     <path id="_112694000" class="fil3" d="M3.74203 2.87736c0.0532992,0.0103476 0.117872,0.0345174 0.136769,0.0748439 0.0285247,0.0608379 0.0181159,0.170299 3.06141e-005,0.242908 -0.15229,0.176605 -0.287597,0.371525 -0.406984,0.575553 -0.0522277,-0.100101 -0.127125,-0.235377 -0.223116,-0.388095 0.0541105,-0.0589322 0.108764,-0.117168 0.163824,-0.174738 0.106637,-0.111489 0.216794,-0.224034 0.329477,-0.330472z"/>
     <path id="_112693928" class="fil0" d="M2.39706 2.00722c0,0 0.52569,-0.452439 1.17203,-0.586016 0,0 0.422054,0.3719 0.516935,1.5536l0.000137764 0.225993 -0.495528 0.547235c0,0 -0.249918,-0.926422 -1.19358,-1.74081z"/>
     <path id="_112693856" class="fil4" d="M2.52202 2.09264c0,0 0.447908,-0.385493 0.998618,-0.499309 0,0 0.359609,0.316879 0.440453,1.32373l0.000114803 0.192555 -0.422207 0.466268c0,0 -0.212944,-0.789355 -1.01698,-1.48325z"/>
     <path id="_112693784" class="fil5" d="M3.84487 2.70957c0,0 -0.374878,-0.754064 -0.840243,-0.887641l0.00430894 0.32317 0.577398 0.73252 0.258536 -0.168049z"/>
     <path id="_112693712" class="fil5" d="M3.86235 2.30181c0.0432118,0.168194 0.0791605,0.371434 0.0987382,0.615244l0.000122457 0.192563 -0.421702 0.465725 -0.000880156 -0.000773007c-0.00724024,-0.0259914 -0.136325,-0.475231 -0.541587,-0.986846 0.000566361,-0.0974677 0.0687517,-0.169702 0.27043,-0.175465 0.294347,-0.00841123 0.480925,-0.0599118 0.594878,-0.110448z"/>
     <path id="_112693640" class="fil6" d="M2.52202 2.09265c0,0 0.419613,-0.361147 0.945915,-0.48753 -0.119204,0.0600113 -0.485089,0.25213 -0.885705,0.540745 -0.0197308,-0.0177868 -0.0397218,-0.0355353 -0.0602103,-0.053215z"/>
     <path id="_112693568" class="fil0" d="M3.57771 3.81697c0,0 -0.423141,-1.23015 -1.2599,-1.70909 0,0 0.0727162,-0.303019 0.497219,-0.385057 0,0 0.774759,0.208199 1.0683,1.69616l-0.305621 0.397984z"/>
     <path id="_112693496" class="fil7" d="M2.48183 2.06461c0.0897606,-0.110387 0.219656,-0.194736 0.374036,-0.212439 0.500625,0.259585 0.80385,1.02374 0.901265,1.54268l-0.142425 0.18546c-0.229981,-0.580222 -0.612719,-1.15148 -1.13288,-1.5157z"/>
     <path id="_112693424" class="fil8" d="M2.48183 2.06461c0.0897606,-0.110387 0.219656,-0.194736 0.374036,-0.212439 0.0296957,0.0153989 0.0586643,0.0326347 0.0869747,0.0514317 -0.11103,0.0696318 -0.231734,0.149596 -0.355905,0.238874 -0.034395,-0.0268792 -0.0694099,-0.0528706 -0.105106,-0.077867z"/>
     <path id="_112693352" class="fil9" d="M3.72308 3.3914l-0.10108 0.137641c-0.141942,-0.365617 -0.250791,-0.570854 -0.372061,-0.73767l0.215064 -0.13549c0.128549,0.199681 0.206263,0.484782 0.258077,0.73552z"/>
     <polygon id="_112693280" class="fil0" points="2.32402,3.13161 2.69206,3.40715 2.43261,3.08151 "/>
     <path id="_112693208" class="fil0" d="M3.95255 3.20942c0,0 -0.02156,-0.562343 -0.301587,-1.09448 0,0 0.198211,0.667885 0.193902,1.14618l0.0459595 0.00769945 0.0617257 -0.0593991z"/>
    </g>
    <circle id="_112693112" class="fil8" cx="2.95214" cy="2.20938" r="0.0832015"/>
    <g>
     <rect id="_112693040" class="fil0" transform="matrix(0.516123 -0.347828 0.347828 0.516123 2.82518 2.59323)" width="1.21617" height="0.875763" rx="0.179345" ry="0.179345"/>
     <rect id="_112692968" class="fil10" transform="matrix(0.479401 -0.323081 0.323081 0.479401 2.9504 2.61219)" width="0.986747" height="0.646341" rx="0.0646341" ry="0.0646341"/>
     <path id="_112692896" class="fil11" d="M3.61509 2.57933c0.00632947,0.01595 0.000956691,0.0348389 -0.0138223,0.0448038l-0.411064 0.277027c-0.0170444,0.011488 -0.04038,0.00694941 -0.0518603,-0.0101027l-0.167061 -0.247883c-0.00850307,-0.0126207 -0.00821989,-0.0287007 -0.000581668,-0.0408546 0.000964345,0.00244913 0.00220422,0.00483703 0.00372727,0.00710248l0.167061 0.247875c0.0114803,0.0170597 0.0348236,0.0215983 0.051868,0.0101103l0.411064 -0.277035c0.00442374,-0.00298488 0.00799794,-0.00678103 0.010669,-0.011044z"/>
     <path id="_112692824" class="fil12" d="M3.22272 2.42865l0.16974 -0.11439c0.0170674,-0.0114726 0.0403494,-0.00690349 0.0519139,0.0100874l0.167008 0.247913c0.0114497,0.0170291 0.00692645,0.0403724 -0.010118,0.0518603l-0.202658 0.136585c-0.0539727,-0.123337 -0.119571,-0.240374 -0.175886,-0.332056z"/>
     <polygon id="_112692752" class="fil0" points="3.04521,2.62159 3.39655,2.38482 3.53746,2.59386 3.18607,2.83066 "/>
     <rect id="_112692680" class="fil0" transform="matrix(0.432683 -0.291596 0.291596 0.432683 3.11868 2.62958)" width="0.595621" height="0.300371"/>
     <g>
      <path id="_112692608" class="fil0" d="M3.34056 2.83207l-0.108489 -0.170475c0.00592383,-0.0167918 0.0368135,-0.0855359 0.14903,-0.0978121l0.109828 0.172602c0.0262363,0.0412219 0.0139907,0.0962049 -0.0272772,0.122464l-0.000696471 0.000443905c-0.0412143,0.0262287 -0.096159,0.0139983 -0.122395,-0.0272236z"/>
      <path id="_112692536" class="fil10" d="M3.37809 2.8082l-0.119969 -0.188529c0.0156744,-0.0171363 0.0397754,-0.0351756 0.0762674,-0.0464416l0.119028 0.187045c0.0130493,0.0205038 0.00694941,0.047957 -0.0135621,0.0610063l-0.000750046 0.000474519c-0.0205115,0.0130569 -0.047957,0.00694941 -0.061014,-0.0135544z"/>
     </g>
     <path id="_112692440" class="fil12" d="M3.44234 2.77288l-0.111298 -0.185629 -0.0353976 0.0194476c0,0 0.0785635,0.109338 0.146695,0.166181z"/>
    </g>
    <circle id="_112692344" class="fil0" cx="2.92857" cy="2.17723" r="0.0832015"/>
   </g>
  </g>
  <rect class="fil13" width="12.3917" height="13.5308"/>
 </g>
</svg>
