<?xml version="1.0" encoding="UTF-8"?>
<!DOCTYPE svg PUBLIC "-//W3C//DTD SVG 1.1//EN" "http://www.w3.org/Graphics/SVG/1.1/DTD/svg11.dtd">
<!-- Creator: CorelDRAW -->
<svg xmlns="http://www.w3.org/2000/svg" xml:space="preserve" width="161.908mm" height="176.792mm" style="shape-rendering:geometricPrecision; text-rendering:geometricPrecision; image-rendering:optimizeQuality; fill-rule:evenodd; clip-rule:evenodd"
viewBox="0 0 10.4204 11.3783"
 xmlns:xlink="http://www.w3.org/1999/xlink">
 <defs>
  <style type="text/css">
   <![CDATA[
    .fil0 {fill:none}
    .fil1 {fill:#501D33}
    .fil3 {fill:#50404B}
    .fil2 {fill:#62545D}
    .fil5 {fill:#9893A0}
    .fil4 {fill:#9A8D8E}
    .fil9 {fill:#B57366}
    .fil6 {fill:#C7C0C9}
    .fil8 {fill:#E4A686}
    .fil7 {fill:white}
   ]]>
  </style>
 </defs>
 <g id="Layer_x0020_1">
  <metadata id="CorelCorpID_0Corel-Layer"/>
  <rect class="fil0" width="10.4204" height="11.3783"/>
  <g id="_114559712">
   <g>
    <path id="_115082120" class="fil1" d="M8.07226 0.846225l0.0247334 -0.0314396 -0.0347735 -0.277686c0,0 0.0468216,-0.0578013 0.0424129,-0.0702806 -0.00964106,-0.027282 -0.0335313,-0.137523 -0.0335313,-0.137523 0,0 -0.609163,0.145813 -1.11224,0.913223 0,0 -0.0714777,0.409681 0.0211035,0.724985 0.0925812,0.315304 -0.0888548,0.536533 -0.0888548,0.536533l-0.136899 0.248325c0,0 -0.0428248,0.0682597 0.0219659,0.161542 0.0404886,0.0582904 0.130869,0.175611 0.19452,0.251015 0.0991716,0.117488 0.155139,0.119001 0.32945,0.128011 0.297785,0.0153884 0.335159,0.281264 0.416702,0.512939 0,0 0.0677899,0.1577 0.274185,0.15797 0.238246,0.00030249 1.29758,0.129813 1.29758,0.129813 0,0 0.36479,-0.0193529 0.643756,-0.267343 0,0 -0.000965393,-0.0645912 -0.0920341,-0.119014l-0.0369488 0.0035977 -0.107223 -0.11615 -0.0247656 0.0022912c0,0 -0.150608,-0.215855 -0.192197,-0.332037 -0.0415827,-0.116182 -0.166646,-1.07624 -0.283317,-1.20529 -0.343023,-0.379432 -0.965123,-0.678208 -1.12363,-1.21348z"/>
    <path id="_115082048" class="fil2" d="M7.09296 1.29968c0.168249,-0.253699 0.381182,-0.499237 0.635242,-0.669532 0.0478964,-0.032109 0.114187,-0.073003 0.180625,-0.104179 0.0121125,0.0839506 0.0346447,0.207836 0.0457661,0.298352 -0.197217,0.137002 -0.464727,0.344549 -0.627679,0.605514 0,0 -0.0670755,0.271256 0.0475167,0.712216 0,0 0.0229699,0.124072 -0.0418788,0.24243 -0.0648487,0.118357 -0.226623,0.388847 -0.226623,0.388847l0.180728 0.206967c0,0 0.366927,-0.0305515 0.525985,0.301737 0.0388088,0.090998 0.0831847,0.269377 0.151097,0.342612 0.024418,0.0263231 0.0608133,0.047787 0.114734,0.049087 0.120835,0.00291549 0.547925,0.0331773 0.952985,0.0738976 0.107236,0.0107802 0.21238,0.0315104 0.319893,0.0171132 0.0854952,-0.0114367 0.168834,-0.0362988 0.246446,-0.0746056l0.123088 0.133945 0.00216248 -0.000553492c-0.0796385,0.0503163 -0.167129,0.0881533 -0.257773,0.114148 -0.0548536,0.0157423 -0.124568,0.0313753 -0.183161,0.0350245 -0.218655,-0.0259112 -0.437619,-0.0504708 -0.656577,-0.0736531 -0.123146,-0.0130264 -0.246401,-0.0256408 -0.369739,-0.0366914 -0.0849932,-0.00761373 -0.173732,-0.0162894 -0.259009,-0.0177504 -0.177027,-0.00306351 -0.193902,-0.148432 -0.241805,-0.286908 -0.131596,-0.380384 -0.272447,-0.364384 -0.484248,-0.386917 -0.15723,-0.0167335 -0.171241,-0.0738654 -0.266255,-0.189584 -0.0241477,-0.0293994 -0.0493316,-0.0597643 -0.0731189,-0.0905989 -0.0555358,-0.0720055 -0.0515584,-0.104533 -0.00736917,-0.182556 0.0385256,-0.0680087 0.0776691,-0.135786 0.114895,-0.204232 0.0219659,-0.0403856 0.0401861,-0.0861839 0.0522471,-0.125044 0.0444531,-0.14329 0.0424065,-0.293274 0.000218822,-0.436963 -0.0111471,-0.0379657 -0.0190247,-0.076974 -0.0245403,-0.11615 -0.0221976,-0.157591 -0.00955096,-0.365935 0.0261493,-0.525972z"/>
    <path id="_115081976" class="fil3" d="M7.85751 0.857507c0,0 -0.428158,0.28537 -0.553331,0.57688 0,0 -0.028743,0.167933 -0.0154463,0.373877 0,0 -0.055021,-0.141514 -0.0496083,-0.419367 0,0 0.148774,-0.267562 0.618386,-0.531391z"/>
    <path id="_115081904" class="fil4" d="M7.60859 1.101l-0.224042 -0.136468 0.070596 -0.0597192c0,0 0.152416,0.164439 0.153446,0.196187z"/>
    <path id="_115081832" class="fil4" d="M7.09295 1.29968c0.168255,-0.253699 0.381189,-0.499237 0.635248,-0.669532 0.0478964,-0.032109 0.114193,-0.073003 0.180625,-0.104179 0.0121189,0.0839506 0.0346512,0.207836 0.0457596,0.298358 -0.00641021,0.00445368 -0.0129105,0.00899746 -0.0194623,0.0135992l-0.0666379 -0.185355c0,0 -0.466928,0.276772 -0.779259,0.664474 0.0012164,-0.00584385 0.0024521,-0.0116362 0.00372642,-0.0173642z"/>
    <path id="_115081760" class="fil3" d="M7.33836 2.20302c-0.00081093,0.047034 0.00745927,0.089331 -0.0429922,0.181404 -0.050445,0.0920792 -0.189436,0.388893 -0.189436,0.388893l0.166421 0.185214c0,0 0.335268,0.00119709 0.494333,0.333485 0.0388024,0.090998 0.0930446,0.284591 0.160944,0.3578 0.0243858,0.0263102 0.0866859,0.0577756 0.140593,0.0590885 0.120816,0.00294123 0.542191,0.0386479 0.947244,0.0793424 0.120661,0.0121125 0.241213,0.0310342 0.356719,0.0198163 0.0802113,-0.00778107 0.156651,-0.0335313 0.234655,-0.0720183l0.114039 0.088031 0.00216248 -0.000547056c-0.0796385,0.0503163 -0.167135,0.0881468 -0.257773,0.114148 -0.0548536,0.0157423 -0.124568,0.0313688 -0.183161,0.0350116 -0.218655,-0.0258983 -0.437619,-0.0504579 -0.65657,-0.0736402 -0.123152,-0.0130328 -0.246401,-0.0256408 -0.369746,-0.0366978 -0.0849996,-0.00761373 -0.173732,-0.0162894 -0.259015,-0.0177504 -0.177014,-0.00306995 -0.19389,-0.148432 -0.241799,-0.286908 -0.131596,-0.380391 -0.27244,-0.364384 -0.484248,-0.386923 -0.15723,-0.016727 -0.171235,-0.073859 -0.266255,-0.189571 -0.0241477,-0.0294059 -0.0493316,-0.0597771 -0.0731189,-0.0906054 -0.0555294,-0.0720119 -0.0515584,-0.104533 -0.00736917,-0.182549 0.0385192,-0.0680152 0.0776691,-0.135786 0.114895,-0.204232 0.0219659,-0.040392 0.0401861,-0.0861967 0.0522406,-0.125051 0.0212644,-0.0685236 0.0318644,-0.138585 0.0325531,-0.208744l0.214684 0.0330036z"/>
    <path id="_115081688" class="fil5" d="M7.94566 0.931469l0.0158324 0.0470661c0.0425674,0.111329 0.171119,0.38272 0.477677,0.613668 0.396584,0.29877 0.592545,0.475018 0.650733,0.562876 0.0581939,0.0878572 0.262709,1.11944 0.262709,1.11944 0,0 0.0847486,0.224859 0.206401,0.363413 -0.00447942,0.00357839 -0.00868854,0.0064617 -0.0126016,0.0085019 -0.185812,0.0967581 -0.389871,0.0508891 -0.586515,0.0318773 -0.179589,-0.0173706 -0.3595,-0.0327268 -0.539442,-0.0460235 -0.112346,-0.00830882 -0.227897,-0.0177761 -0.340494,-0.0204985 -0.0357002,-0.000862418 -0.0627506,-0.0140175 -0.0822708,-0.0441056 -0.0553042,-0.0852506 -0.0888677,-0.218089 -0.128584,-0.311198l-0.000579236 -0.00120996c-0.0735308,-0.153613 -0.198266,-0.258738 -0.360497,-0.308012 -0.0563468,-0.0171132 -0.130264,-0.0301331 -0.194173,-0.0300237l-0.131641 -0.150743c0.0695855,-0.116278 0.139802,-0.233844 0.204676,-0.352246 0.0433075,-0.0790464 0.065119,-0.193587 0.0484692,-0.283491l-0.000411901 -0.00216892 -0.000553492 -0.0021303c-0.0419689,-0.16151 -0.0675646,-0.332275 -0.0648487,-0.499494 0.000849546,-0.0520476 0.00406752,-0.119953 0.0154141,-0.172998 0.0311114,-0.0486108 0.0668889,-0.0945442 0.10481,-0.137955 0.08908,-0.102003 0.193529,-0.19472 0.300591,-0.277512 0.0395747,-0.030603 0.11308,-0.0785573 0.1553,-0.10703z"/>
    <path id="_115081616" class="fil6" d="M8.86526 1.93009c0.12162,0.10432 0.193233,0.177555 0.224653,0.224995 0.050844,0.0767616 0.213378,0.873951 0.253615,1.07403 -0.00446012,-0.000740135 -0.00894598,-0.00166691 -0.0135412,-0.00299272 0,0 -0.196001,-0.651827 -0.429323,-1.02053 -0.0794068,-0.125488 -0.0757641,-0.213725 -0.0354042,-0.275504z"/>
    <polygon id="_115081544" class="fil6" points="9.12525,2.55108 8.35828,2.65879 9.18887,2.46724 "/>
    <path id="_115081472" class="fil6" d="M7.94566 0.931469l0.0158324 0.0470661c0.0425674,0.111323 0.171119,0.382714 0.477689,0.613668 0.384954,0.290011 0.580851,0.46456 0.64523,0.554902 -0.196715,0.111361 -0.757261,0.379567 -1.88063,0.583342 0.0624609,-0.104513 0.124935,-0.210012 0.183116,-0.316198 0.0433011,-0.0790464 0.0651125,-0.193581 0.0484627,-0.283491l-0.000405465 -0.00216892 -0.000547056 -0.0021303c-0.0419753,-0.16151 -0.0675711,-0.332275 -0.0648487,-0.499494 0.00084311,-0.0520411 0.00406109,-0.119953 0.0154141,-0.173005 0.031105,-0.0486043 0.0668889,-0.0945313 0.104803,-0.137948 0.0890736,-0.102003 0.193529,-0.19472 0.300585,-0.277512 0.0395747,-0.0306094 0.113086,-0.0785573 0.1553,-0.10703z"/>
    <circle id="_115081400" class="fil5" transform="matrix(-1.30284 -0.0341205 -0.0341205 1.30284 7.58735 2.59333)" r="0.0822837"/>
    <path id="_115081328" class="fil7" d="M7.94566 0.931469l0.0158324 0.0470661c0.0425738,0.111329 0.171126,0.382714 0.477689,0.613675 0.384954,0.289998 0.580851,0.464554 0.64523,0.554895 -0.168455,0.0953615 -0.603738,0.305727 -1.43071,0.492157 0.708888,-0.194224 1.20085,-0.524575 1.20085,-0.524575 -0.301615,-0.394363 -0.861871,-0.569395 -0.918462,-1.17679l0.00957026 -0.00642308z"/>
    <path id="_115081256" class="fil5" d="M7.94566 0.931469l0.0158324 0.0470661c0.00443437,0.011604 0.00980839,0.0249586 0.0162186,0.0398128 -0.119908,0.0909272 -0.358328,0.285396 -0.494165,0.488495 0,0 -0.033409,0.133694 0.00574087,0.351525 0.0391563,0.217838 0.0442794,0.307684 0.0442794,0.307684 0,0 0.0242056,0.217445 -0.216705,0.424207 -0.0159354,0.0136764 -0.0324887,0.0246175 -0.0495182,0.0332481 0.0409005,-0.0693989 0.0811509,-0.139171 0.119561,-0.209259 0.0433011,-0.07904 0.0651125,-0.193581 0.0484563,-0.283491l-0.000399029 -0.00216892 -0.000559928 -0.0021303c-0.0419689,-0.161517 -0.0675646,-0.332275 -0.0648422,-0.499494 0.00084311,-0.0520411 0.00406109,-0.119953 0.0154077,-0.172998 0.0311114,-0.0486108 0.0668953,-0.0945377 0.10481,-0.137955 0.08908,-0.102003 0.193529,-0.19472 0.300585,-0.277512 0.0395747,-0.0306094 0.113086,-0.0785573 0.1553,-0.10703z"/>
    <polygon id="_115081184" class="fil1" points="7.35429,1.43034 7.07238,1.281 7.06042,1.30927 7.33616,1.47496 "/>
    <polygon id="_115081112" class="fil1" points="7.31292,2.47004 7.03369,2.41516 7.04738,2.45953 7.30241,2.51193 "/>
    <polygon id="_114563792" class="fil1" points="7.52017,2.99779 7.37319,3.22162 7.34142,3.19587 7.46828,2.95364 "/>
    <polygon id="_114563720" class="fil1" points="8.5176,3.66613 8.48427,3.92871 8.44397,3.92654 8.46916,3.66575 "/>
    <polygon id="_114563648" class="fil1" points="7.96245,3.52912 7.76198,3.70196 7.73349,3.67339 7.92671,3.49643 "/>
    <polygon id="_114563576" class="fil1" points="9.13517,3.724 9.14131,3.98887 9.09751,3.99357 9.08289,3.73185 "/>
    <polygon id="_114563504" class="fil1" points="9.23162,2.46881 8.34167,2.66118 9.15894,2.3568 "/>
    <polygon id="_114563432" class="fil1" points="7.65756,1.08362 7.4176,0.842254 7.39435,0.875232 7.63239,1.11841 "/>
    <polygon id="_114563360" class="fil1" points="7.37504,1.92539 7.03829,1.87606 7.03945,1.91639 7.37575,1.96831 "/>
    <circle id="_114563288" class="fil8" transform="matrix(-1.03093 -0.0269995 -0.0269995 1.03093 8.3171 2.1684)" r="0.0985602"/>
    <circle id="_114563216" class="fil5" transform="matrix(-1.03093 -0.0269995 -0.0269995 1.03093 7.56339 1.75841)" r="0.0379786"/>
    <circle id="_114563144" class="fil8" transform="matrix(-1.03093 -0.0269995 -0.0269995 1.03093 8.00288 2.2886)" r="0.0307446"/>
    <path id="_114563072" class="fil7" d="M8.84825 2.02365l-0.319886 0.146856 0.249258 -0.218417c0,0 0.0734149,0.0716386 0.0706282,0.0715614z"/>
    <circle id="_114563000" class="fil7" transform="matrix(-2.28682 -0.0598903 -0.0598903 2.28682 8.14291 1.51949)" r="0.0551561"/>
    <circle id="_114562928" class="fil8" transform="matrix(-1.30531 -0.0341851 -0.0341851 1.30531 8.39227 1.9353)" r="0.0779008"/>
    <circle id="_114562856" class="fil8" transform="matrix(-1.03093 -0.0269995 -0.0269995 1.03093 8.16155 2.03131)" r="0.0489133"/>
    <g>
     <circle id="_114562784" class="fil1" transform="matrix(1.60633 0.25657 -0.25657 1.60633 7.35247 2.73722)" r="0.208345"/>
     <circle id="_114562712" class="fil6" transform="matrix(1.23401 0.197101 -0.197101 1.23401 7.35247 2.73722)" r="0.208345"/>
     <path id="_114562640" class="fil5" d="M7.54396 2.58667c0.040495,0.0515391 0.0602405,0.119187 0.0490935,0.18896 -0.0212258,0.132845 -0.146141,0.223392 -0.278999,0.202179 -0.0899489,-0.014365 -0.160493,-0.0763626 -0.190079,-0.156143 0.0365627,0.0465255 0.090039,0.0799667 0.153041,0.0900261 0.132857,0.0212129 0.257773,-0.0693345 0.278999,-0.202179 0.00684142,-0.0428248 0.00202089,-0.0848581 -0.0120545,-0.122843z"/>
     <path id="_114562568" class="fil7" d="M7.39353 2.4801c0.0833649,0.013316 0.151084,0.0648422 0.188245,0.133842 -0.0390019,-0.0481796 -0.0951942,-0.0826763 -0.161214,-0.0932248 -0.141945,-0.022661 -0.275491,0.0741293 -0.298165,0.216029 -0.00935788,0.0586509 0.00167978,0.115821 0.0278291,0.164355 -0.0448908,-0.0554393 -0.0669918,-0.128977 -0.0548601,-0.204972 0.0226739,-0.141906 0.15622,-0.23869 0.298165,-0.216029z"/>
     <circle id="_114562496" class="fil1" transform="matrix(0.756513 0.120834 -0.120834 0.756513 7.35247 2.73722)" r="0.208345"/>
    </g>
   </g>
   <g>
    <path id="_114562376" class="fil1" d="M2.34809 0.846225l-0.0247334 -0.0314396 0.0347735 -0.277686c0,0 -0.0468216,-0.0578013 -0.0424129,-0.0702806 0.00964106,-0.027282 0.0335313,-0.137523 0.0335313,-0.137523 0,0 0.609163,0.145813 1.11224,0.913223 0,0 0.0714777,0.409681 -0.0211035,0.724985 -0.0925812,0.315304 0.0888548,0.536533 0.0888548,0.536533l0.136899 0.248325c0,0 0.0428248,0.0682597 -0.0219659,0.161542 -0.0404886,0.0582904 -0.130869,0.175611 -0.19452,0.251015 -0.0991716,0.117488 -0.155139,0.119001 -0.32945,0.128011 -0.297785,0.0153884 -0.335159,0.281264 -0.416702,0.512939 0,0 -0.0677899,0.1577 -0.274185,0.15797 -0.238246,0.00030249 -1.29758,0.129813 -1.29758,0.129813 0,0 -0.36479,-0.0193529 -0.643756,-0.267343 0,0 0.000965393,-0.0645912 0.0920341,-0.119014l0.0369488 0.0035977 0.107223 -0.11615 0.0247656 0.0022912c0,0 0.150608,-0.215855 0.192197,-0.332037 0.0415827,-0.116182 0.166646,-1.07624 0.283317,-1.20529 0.343023,-0.379432 0.965123,-0.678208 1.12363,-1.21348z"/>
    <path id="_114562304" class="fil2" d="M3.32739 1.29968c-0.168249,-0.253699 -0.381182,-0.499237 -0.635242,-0.669532 -0.0478964,-0.032109 -0.114187,-0.073003 -0.180625,-0.104179 -0.0121125,0.0839506 -0.0346447,0.207836 -0.0457661,0.298352 0.197217,0.137002 0.464727,0.344549 0.627679,0.605514 0,0 0.0670755,0.271256 -0.0475167,0.712216 0,0 -0.0229699,0.124072 0.0418788,0.24243 0.0648487,0.118357 0.226623,0.388847 0.226623,0.388847l-0.180728 0.206967c0,0 -0.366927,-0.0305515 -0.525985,0.301737 -0.0388088,0.090998 -0.0831847,0.269377 -0.151097,0.342612 -0.024418,0.0263231 -0.0608133,0.047787 -0.114734,0.049087 -0.120835,0.00291549 -0.547925,0.0331773 -0.952985,0.0738976 -0.107236,0.0107802 -0.21238,0.0315104 -0.319893,0.0171132 -0.0854952,-0.0114367 -0.168834,-0.0362988 -0.246446,-0.0746056l-0.123088 0.133945 -0.00216248 -0.000553492c0.0796385,0.0503163 0.167129,0.0881533 0.257773,0.114148 0.0548536,0.0157423 0.124568,0.0313753 0.183161,0.0350245 0.218655,-0.0259112 0.437619,-0.0504708 0.656577,-0.0736531 0.123146,-0.0130264 0.246401,-0.0256408 0.369739,-0.0366914 0.0849932,-0.00761373 0.173732,-0.0162894 0.259009,-0.0177504 0.177027,-0.00306351 0.193902,-0.148432 0.241805,-0.286908 0.131596,-0.380384 0.272447,-0.364384 0.484248,-0.386917 0.15723,-0.0167335 0.171241,-0.0738654 0.266255,-0.189584 0.0241477,-0.0293994 0.0493316,-0.0597643 0.0731189,-0.0905989 0.0555358,-0.0720055 0.0515584,-0.104533 0.00736917,-0.182556 -0.0385256,-0.0680087 -0.0776691,-0.135786 -0.114895,-0.204232 -0.0219659,-0.0403856 -0.0401861,-0.0861839 -0.0522471,-0.125044 -0.0444531,-0.14329 -0.0424065,-0.293274 -0.000218822,-0.436963 0.0111471,-0.0379657 0.0190247,-0.076974 0.0245403,-0.11615 0.0221976,-0.157591 0.00955096,-0.365935 -0.0261493,-0.525972z"/>
    <path id="_114562232" class="fil3" d="M2.56284 0.857507c0,0 0.428158,0.28537 0.553331,0.57688 0,0 0.028743,0.167933 0.0154463,0.373877 0,0 0.055021,-0.141514 0.0496083,-0.419367 0,0 -0.148774,-0.267562 -0.618386,-0.531391z"/>
    <path id="_114562160" class="fil4" d="M2.81176 1.101l0.224042 -0.136468 -0.070596 -0.0597192c0,0 -0.152416,0.164439 -0.153446,0.196187z"/>
    <path id="_114562088" class="fil4" d="M3.3274 1.29968c-0.168255,-0.253699 -0.381189,-0.499237 -0.635248,-0.669532 -0.0478964,-0.032109 -0.114193,-0.073003 -0.180625,-0.104179 -0.0121189,0.0839506 -0.0346512,0.207836 -0.0457596,0.298358 0.00641021,0.00445368 0.0129105,0.00899746 0.0194623,0.0135992l0.0666379 -0.185355c0,0 0.466928,0.276772 0.779259,0.664474 -0.0012164,-0.00584385 -0.0024521,-0.0116362 -0.00372642,-0.0173642z"/>
    <path id="_114562016" class="fil3" d="M3.08199 2.20302c0.00081093,0.047034 -0.00745927,0.089331 0.0429922,0.181404 0.050445,0.0920792 0.189436,0.388893 0.189436,0.388893l-0.166421 0.185214c0,0 -0.335268,0.00119709 -0.494333,0.333485 -0.0388024,0.090998 -0.0930446,0.284591 -0.160944,0.3578 -0.0243858,0.0263102 -0.0866859,0.0577756 -0.140593,0.0590885 -0.120816,0.00294123 -0.542191,0.0386479 -0.947244,0.0793424 -0.120661,0.0121125 -0.241213,0.0310342 -0.356719,0.0198163 -0.0802113,-0.00778107 -0.156651,-0.0335313 -0.234655,-0.0720183l-0.114039 0.088031 -0.00216248 -0.000547056c0.0796385,0.0503163 0.167135,0.0881468 0.257773,0.114148 0.0548536,0.0157423 0.124568,0.0313688 0.183161,0.0350116 0.218655,-0.0258983 0.437619,-0.0504579 0.65657,-0.0736402 0.123152,-0.0130328 0.246401,-0.0256408 0.369746,-0.0366978 0.0849996,-0.00761373 0.173732,-0.0162894 0.259015,-0.0177504 0.177014,-0.00306995 0.19389,-0.148432 0.241799,-0.286908 0.131596,-0.380391 0.27244,-0.364384 0.484248,-0.386923 0.15723,-0.016727 0.171235,-0.073859 0.266255,-0.189571 0.0241477,-0.0294059 0.0493316,-0.0597771 0.0731189,-0.0906054 0.0555294,-0.0720119 0.0515584,-0.104533 0.00736917,-0.182549 -0.0385192,-0.0680152 -0.0776691,-0.135786 -0.114895,-0.204232 -0.0219659,-0.040392 -0.0401861,-0.0861967 -0.0522406,-0.125051 -0.0212644,-0.0685236 -0.0318644,-0.138585 -0.0325531,-0.208744l-0.214684 0.0330036z"/>
    <path id="_114561944" class="fil5" d="M2.47469 0.931469l-0.0158324 0.0470661c-0.0425674,0.111329 -0.171119,0.38272 -0.477677,0.613668 -0.396584,0.29877 -0.592545,0.475018 -0.650733,0.562876 -0.0581939,0.0878572 -0.262709,1.11944 -0.262709,1.11944 0,0 -0.0847486,0.224859 -0.206401,0.363413 0.00447942,0.00357839 0.00868854,0.0064617 0.0126016,0.0085019 0.185812,0.0967581 0.389871,0.0508891 0.586515,0.0318773 0.179589,-0.0173706 0.3595,-0.0327268 0.539442,-0.0460235 0.112346,-0.00830882 0.227897,-0.0177761 0.340494,-0.0204985 0.0357002,-0.000862418 0.0627506,-0.0140175 0.0822708,-0.0441056 0.0553042,-0.0852506 0.0888677,-0.218089 0.128584,-0.311198l0.000579236 -0.00120996c0.0735308,-0.153613 0.198266,-0.258738 0.360497,-0.308012 0.0563468,-0.0171132 0.130264,-0.0301331 0.194173,-0.0300237l0.131641 -0.150743c-0.0695855,-0.116278 -0.139802,-0.233844 -0.204676,-0.352246 -0.0433075,-0.0790464 -0.065119,-0.193587 -0.0484692,-0.283491l0.000411901 -0.00216892 0.000553492 -0.0021303c0.0419689,-0.16151 0.0675646,-0.332275 0.0648487,-0.499494 -0.000849546,-0.0520476 -0.00406752,-0.119953 -0.0154141,-0.172998 -0.0311114,-0.0486108 -0.0668889,-0.0945442 -0.10481,-0.137955 -0.08908,-0.102003 -0.193529,-0.19472 -0.300591,-0.277512 -0.0395747,-0.030603 -0.11308,-0.0785573 -0.1553,-0.10703z"/>
    <path id="_114561872" class="fil6" d="M1.55509 1.93009c-0.12162,0.10432 -0.193233,0.177555 -0.224653,0.224995 -0.050844,0.0767616 -0.213378,0.873951 -0.253615,1.07403 0.00446012,-0.000740135 0.00894598,-0.00166691 0.0135412,-0.00299272 0,0 0.196001,-0.651827 0.429323,-1.02053 0.0794068,-0.125488 0.0757641,-0.213725 0.0354042,-0.275504z"/>
    <polygon id="_114561800" class="fil6" points="1.10304,3.40984 1.87719,3.38673 1.0262,3.33793 "/>
    <path id="_114561728" class="fil6" d="M2.4747 0.931469l-0.0158324 0.0470661c-0.0425674,0.111323 -0.171119,0.382714 -0.477689,0.613668 -0.384954,0.290011 -0.580851,0.46456 -0.64523,0.554902 0.196715,0.111361 0.757261,0.379567 1.88063,0.583342 -0.0624609,-0.104513 -0.124935,-0.210012 -0.183116,-0.316198 -0.0433011,-0.0790464 -0.0651125,-0.193581 -0.0484627,-0.283491l0.000405465 -0.00216892 0.000547056 -0.0021303c0.0419753,-0.16151 0.0675711,-0.332275 0.0648487,-0.499494 -0.00084311,-0.0520411 -0.00406109,-0.119953 -0.0154141,-0.173005 -0.031105,-0.0486043 -0.0668889,-0.0945313 -0.104803,-0.137948 -0.0890736,-0.102003 -0.193529,-0.19472 -0.300585,-0.277512 -0.0395747,-0.0306094 -0.113086,-0.0785573 -0.1553,-0.10703z"/>
    <circle id="_114561656" class="fil5" transform="matrix(1.30284 -0.0341205 0.0341205 1.30284 2.93446 2.47375)" r="0.0822837"/>
    <polygon id="_114561584" class="fil7" points="1.81968,1.83223 2.23888,1.88095 1.92342,1.73249 "/>
    <path id="_114561512" class="fil7" d="M2.4747 0.931469l-0.0158324 0.0470661c-0.0425738,0.111329 -0.171126,0.382714 -0.477689,0.613675 -0.384954,0.289998 -0.580851,0.464554 -0.64523,0.554895 0.168455,0.0953615 0.603738,0.305727 1.43071,0.492157 -0.708888,-0.194224 -1.20085,-0.524575 -1.20085,-0.524575 0.301615,-0.394363 0.861871,-0.569395 0.918462,-1.17679l-0.00957026 -0.00642308z"/>
    <path id="_114561440" class="fil5" d="M2.4747 0.931469l-0.0158324 0.0470661c-0.00443437,0.011604 -0.00980839,0.0249586 -0.0162186,0.0398128 0.119908,0.0909272 0.358328,0.285396 0.494165,0.488495 0,0 0.033409,0.133694 -0.00574087,0.351525 -0.0391563,0.217838 -0.0442794,0.307684 -0.0442794,0.307684 0,0 -0.0242056,0.217445 0.216705,0.424207 0.0159354,0.0136764 0.0324887,0.0246175 0.0495182,0.0332481 -0.0409005,-0.0693989 -0.0811509,-0.139171 -0.119561,-0.209259 -0.0433011,-0.07904 -0.0651125,-0.193581 -0.0484563,-0.283491l0.000399029 -0.00216892 0.000559928 -0.0021303c0.0419689,-0.161517 0.0675646,-0.332275 0.0648422,-0.499494 -0.00084311,-0.0520411 -0.00406109,-0.119953 -0.0154077,-0.172998 -0.0311114,-0.0486108 -0.0668953,-0.0945377 -0.10481,-0.137955 -0.08908,-0.102003 -0.193529,-0.19472 -0.300585,-0.277512 -0.0395747,-0.0306094 -0.113086,-0.0785573 -0.1553,-0.10703z"/>
    <polygon id="_114561368" class="fil1" points="3.06606,1.43034 3.34797,1.281 3.35993,1.30927 3.08419,1.47496 "/>
    <polygon id="_114561296" class="fil1" points="3.10743,2.47004 3.38666,2.41516 3.37297,2.45953 3.11794,2.51193 "/>
    <polygon id="_114561224" class="fil1" points="2.90018,2.99779 3.04716,3.22162 3.07893,3.19587 2.95207,2.95364 "/>
    <polygon id="_114561152" class="fil1" points="1.90275,3.66613 1.93608,3.92871 1.97638,3.92654 1.95119,3.66575 "/>
    <polygon id="_114561080" class="fil1" points="2.4579,3.52912 2.65837,3.70196 2.68686,3.67339 2.49364,3.49643 "/>
    <polygon id="_114561008" class="fil1" points="1.28518,3.724 1.27904,3.98887 1.32284,3.99357 1.33746,3.73185 "/>
    <g>
     <circle id="_114560936" class="fil1" transform="matrix(1.60633 0.25657 -0.25657 1.60633 3.03888 2.73722)" r="0.208345"/>
     <circle id="_114560864" class="fil6" transform="matrix(1.23401 0.197101 -0.197101 1.23401 3.03888 2.73722)" r="0.208345"/>
     <path id="_114560792" class="fil5" d="M3.23037 2.58667c0.040495,0.0515391 0.0602405,0.119187 0.0490935,0.18896 -0.0212258,0.132845 -0.146141,0.223392 -0.278999,0.202179 -0.0899489,-0.014365 -0.160493,-0.0763626 -0.190079,-0.156143 0.0365627,0.0465255 0.090039,0.0799667 0.153041,0.0900261 0.132857,0.0212129 0.257773,-0.0693345 0.278999,-0.202179 0.00684142,-0.0428248 0.00202089,-0.0848581 -0.0120545,-0.122843z"/>
     <path id="_114560720" class="fil7" d="M3.07995 2.4801c0.0833649,0.013316 0.151084,0.0648422 0.188245,0.133842 -0.0390019,-0.0481796 -0.0951942,-0.0826763 -0.161214,-0.0932248 -0.141945,-0.022661 -0.275491,0.0741293 -0.298165,0.216029 -0.00935788,0.0586509 0.00167978,0.115821 0.0278291,0.164355 -0.0448908,-0.0554393 -0.0669918,-0.128977 -0.0548601,-0.204972 0.0226739,-0.141906 0.15622,-0.23869 0.298165,-0.216029z"/>
     <circle id="_114560648" class="fil1" transform="matrix(0.756513 0.120834 -0.120834 0.756513 3.03888 2.73722)" r="0.208345"/>
    </g>
    <polygon id="_114560552" class="fil1" points="0.984321,3.34668 1.89397,3.38629 1.03708,3.22403 "/>
    <polygon id="_114560480" class="fil1" points="2.76279,1.08362 3.00275,0.842254 3.026,0.875232 2.78796,1.11841 "/>
    <polygon id="_114560408" class="fil1" points="3.04531,1.92539 3.38206,1.87606 3.3809,1.91639 3.0446,1.96831 "/>
    <polygon id="_114560336" class="fil1" points="1.67707,1.65871 2.2615,1.88969 1.88728,1.56365 "/>
    <circle id="_114560264" class="fil5" transform="matrix(1.03093 -0.0269995 0.0269995 1.03093 2.89316 1.96549)" r="0.0985602"/>
    <circle id="_114560192" class="fil5" transform="matrix(1.03093 -0.0269995 0.0269995 1.03093 2.85696 1.75841)" r="0.0379786"/>
    <circle id="_114560120" class="fil5" transform="matrix(1.03093 -0.0269995 0.0269995 1.03093 2.41747 2.2886)" r="0.0307446"/>
    <path id="_114560048" class="fil1" d="M1.57934 1.86993l0.319886 0.146856 -0.249258 -0.218417c0,0 -0.0734149,0.0716386 -0.0706282,0.0715614z"/>
    <circle id="_114559976" class="fil7" transform="matrix(2.28682 -0.0598903 0.0598903 2.28682 2.27744 1.51949)" r="0.0551561"/>
    <path id="_114559904" class="fil9" d="M2.35484 3.61072c-0.0154334,-0.018645 -0.0290262,-0.0393366 -0.0403213,-0.0619268 -0.0398386,-0.0797029 -0.0438868,-0.167946 -0.0181944,-0.24651 -0.0309119,-0.0139853 -0.057428,-0.0382939 -0.0738204,-0.070995 -0.0378177,-0.0756353 -0.00715035,-0.167682 0.0685365,-0.205532 0.0756418,-0.0378563 0.167715,-0.00720827 0.205552,0.0684721l0.00112629 0.00231051c0.0577498,-0.0203312 0.11837,-0.0233046 0.17538,-0.0110827 -0.0490742,0.0473751 -0.0898395,0.104153 -0.121273,0.169819l-0.000585672 0.00120996c-0.0397163,0.093109 -0.0732798,0.225947 -0.128577,0.311198 -0.0167978,0.0258918 -0.0391628,0.0392658 -0.0678221,0.0430372zm-0.404281 -0.566506c0.0369102,0.0738011 0.00698301,0.163596 -0.0668245,0.200519 -0.073814,0.0369424 -0.163621,0.00702806 -0.200531,-0.0668116 -0.0369359,-0.0738075 -0.00701519,-0.163608 0.066773,-0.200512 0.0738526,-0.0369295 0.163621,-0.0070345 0.200583,0.0668052zm0.0596098 -0.345971c0.00746571,0.014777 0.00143522,0.0327526 -0.0133224,0.040096 -0.0147448,0.00740135 -0.0327268,0.00145453 -0.0401217,-0.0133289 -0.00736273,-0.0147834 -0.00138373,-0.0327268 0.0133546,-0.0401024 0.0148027,-0.00740778 0.0327333,-0.00142878 0.0400896,0.0133353zm0.204889 0.718561c0.0216892,0.043359 0.00411901,0.0961532 -0.03924,0.117849 -0.0433976,0.0216634 -0.0961403,0.00410614 -0.117842,-0.0392658 -0.0216312,-0.0433719 -0.00413188,-0.0961403 0.0392529,-0.117817 0.0433912,-0.0217149 0.0961467,-0.00413832 0.117829,0.0392336zm0.395116 -0.688596c0.0202926,0.0406044 0.00381652,0.0900068 -0.036775,0.110344 -0.0406109,0.0202539 -0.0900261,0.00379078 -0.11028,-0.036775 -0.0203376,-0.040598 -0.0038487,-0.0900004 0.0367236,-0.110299 0.0406302,-0.0203376 0.0899939,-0.00386801 0.110332,0.03673z"/>
    <circle id="_114559832" class="fil8" transform="matrix(1.30531 -0.0341851 0.0341851 1.30531 2.56797 1.37729)" r="0.0779008"/>
    <circle id="_114559760" class="fil8" transform="matrix(1.03093 -0.0269995 0.0269995 1.03093 2.66462 1.54214)" r="0.0489133"/>
   </g>
  </g>
 </g>
</svg>
