<?xml version="1.0" encoding="UTF-8"?>
<!DOCTYPE svg PUBLIC "-//W3C//DTD SVG 1.1//EN" "http://www.w3.org/Graphics/SVG/1.1/DTD/svg11.dtd">
<!-- Creator: CorelDRAW -->
<svg xmlns="http://www.w3.org/2000/svg" xml:space="preserve" width="161.908mm" height="176.792mm" style="shape-rendering:geometricPrecision; text-rendering:geometricPrecision; image-rendering:optimizeQuality; fill-rule:evenodd; clip-rule:evenodd"
viewBox="0 0 8.99079 9.81728"
 xmlns:xlink="http://www.w3.org/1999/xlink">
 <defs>
  <style type="text/css">
   <![CDATA[
    .fil0 {fill:none}
    .fil4 {fill:#4D3A47}
    .fil1 {fill:#501D33}
    .fil2 {fill:#62545D}
    .fil5 {fill:#6D6069}
    .fil3 {fill:#9A8D8E}
    .fil7 {fill:#9C5E58}
    .fil6 {fill:#BA9475}
    .fil8 {fill:#D8C196}
   ]]>
  </style>
 </defs>
 <g id="Layer_x0020_1">
  <metadata id="CorelCorpID_0Corel-Layer"/>
  <rect class="fil0" width="8.99079" height="9.81728"/>
  <g id="_111635256">
   <g>
    <path id="_111639576" class="fil1" d="M3.07058 1.55605l-0.515353 -0.985687c-0.0783752,-0.149904 -0.131201,-0.185115 -0.18913,-0.0748046l-0.269338 0.493591c-0.700585,0.356181 -1.09271,0.739767 -1.41353,1.81027l-0.0710119 -0.0105452 -0.172088 0.555412c0,0 1.67999,0.31841 1.82538,0.328316 0.145389,0.00991213 0.169095,-0.0530979 0.180967,-0.103786 0.0118723,-0.0506879 0.1466,-0.783924 0.593495,-1.44077 0,0 0.145794,-0.156256 0.169572,-0.227823 0.023778,-0.0715672 -0.138959,-0.344165 -0.138959,-0.344165z"/>
    <path id="_111639504" class="fil2" d="M2.41285 0.602835l-0.215862 0.446384 0.531118 0.849983c0,0 -0.343887,0.422151 -0.611264,1.34653l-1.43122 -0.341394 -0.109939 0.360807 1.67033 0.324002c0,0 0.0598726,0.00494218 0.102931,-0.0873489 0.0430525,-0.0922911 0.166674,-0.93315 0.768181,-1.59255l-0.627279 -1.28121c-0.0348951,-0.0712896 -0.0573959,-0.0702289 -0.0770036,-0.0252051z"/>
    <path id="_111639432" class="fil3" d="M2.72757 1.89835l0.000533089 0.000849611c0,0 -0.343887,0.422151 -0.611264,1.34653l-1.43122 -0.341394 -6.66361e-005 0.000216567 1.54208 0.428404c0,0 -0.0162426,-0.0227229 -0.0536088,-0.0703178 0.0751711,-0.22734 0.294982,-0.952325 0.564658,-1.36639l-0.0111116 0.00210459z"/>
    <path id="_111639360" class="fil4" d="M2.26405 3.58675c0.021057,-0.00567518 0.0566185,-0.0243111 0.0849056,-0.08495 0.0430525,-0.0922911 0.166674,-0.93315 0.768181,-1.59255l-0.0410867 -0.0839171c-0.163631,0.152369 -0.649708,0.685192 -0.812,1.76142z"/>
    <path id="_111639288" class="fil3" d="M2.41285 0.602835l-0.215862 0.446384 0.00338178 0.00540863 0.232244 -0.318499 0.623792 1.13685 0.0133828 -0.0604334 -0.579934 -1.1845c-0.0348951,-0.0712896 -0.0573959,-0.0702289 -0.0770036,-0.0252051z"/>
    <path id="_111639216" class="fil2" d="M2.11744 1.09468l0.49625 0.804437c0,0 -0.328044,0.434662 -0.566235,1.23415l-1.27182 -0.297947c0.2314,-0.751495 0.595044,-1.38829 1.34181,-1.74064z"/>
    <path id="_111639144" class="fil3" d="M2.14473 2.83475l-0.840837 -0.241101 0.0964392 -0.0482224c0,0 0.723302,0.256172 0.744398,0.289323z"/>
    <path id="_111639072" class="fil3" d="M1.9369 1.83895l0.49338 0.33995 -0.021057 -0.0571627 -0.37605 -0.317388c0,0 -0.0977719,0.0346008 -0.0962726,0.0346008z"/>
    <path id="_111639000" class="fil5" d="M0.797229 2.76676c0.231749,-0.71957 0.594267,-1.32707 1.31419,-1.66919 0.0286924,0.182094 0.0690795,0.995905 -1.31419,1.66919z"/>
    <path id="_111638928" class="fil4" d="M2.58256 1.94342c-0.0873156,0.12923 -0.341027,0.538415 -0.53511,1.18984l-1.27182 -0.297947 0.00394264 -0.0127997 0.00136049 -0.0024933c0,0 1.18024,0.188169 1.21274,0.170067 0.0325073,-0.0180973 0.212608,-0.709875 0.588886,-1.04667z"/>
    <path id="_111638856" class="fil1" d="M2.26214 3.62199c0,0 0.0575014,-0.434551 0.125903,-0.595594 0,0 -0.084589,0.374201 -0.0411811,0.557489l-0.0420641 0.046562c0,0 -0.037816,-0.00885705 -0.0426582,-0.00845724z"/>
    <path id="_111638784" class="fil4" d="M0.662252 3.07636l-0.037133 0.160415 1.61016 0.309364 0.0081074 -0.0766316c0,0 -0.517302,-0.126026 -1.58114,-0.393148z"/>
    <path id="_111638712" class="fil5" d="M2.22835 1.0525l0.520817 0.820036c0,0 0.0359835,-0.473922 -0.520817,-0.820036z"/>
    <polygon id="_111638640" class="fil3" points="2.50685,1.37962 2.80816,1.35173 2.78657,1.24596 "/>
    <polygon id="_111638568" class="fil1" points="2.80352,1.1717 2.50393,1.37955 2.84527,1.26986 "/>
    <circle id="_111638496" class="fil3" transform="matrix(2.35697 0.78306 -0.78306 2.35697 2.65073 2.00569)" r="0.0335457"/>
    <circle id="_111638424" class="fil3" transform="matrix(2.11563 0.702879 -0.702879 2.11563 2.57374 2.17372)" r="0.0215235"/>
    <path id="_111638352" class="fil4" d="M1.32464 1.72239c0,0 0.358053,0.14364 0.720564,0.112049 0,0 -0.0872434,-0.1083 -0.115825,-0.112815 -0.0285814,-0.0045146 -0.509922,-0.115825 -0.509922,-0.115825 0,0 -0.0647315,0.0684575 -0.0948177,0.116591z"/>
    <path id="_111638280" class="fil1" d="M1.32365 1.65947c0,0 0.655,0.197193 0.697258,0.147904 0.0422584,-0.0492885 -0.140858,-0.669088 -0.140858,-0.669088 0,0 -0.591612,-0.0281704 -0.556401,0.521184z"/>
    <path id="_111638208" class="fil6" d="M1.43302 1.59518c0,0 0.486183,0.129618 0.496028,0.11171 0.00984549,-0.017914 -0.121194,-0.465476 -0.121194,-0.465476 0,0 -0.37133,-0.0270487 -0.374834,0.353766z"/>
    <path id="_111638136" class="fil7" d="M1.7211 1.66837c0.10689,0.025666 0.203612,0.0463954 0.207944,0.0385101 0.00454236,-0.00825733 -0.0208904,-0.107889 -0.0496051,-0.212864 -0.0287257,0.0647537 -0.0770703,0.130768 -0.158339,0.174353z"/>
    <path id="_111638064" class="fil8" d="M1.43301 1.59518c0,0 0.0181695,0.00483112 0.047506,0.0125054 0.0575736,-0.126781 0.160421,-0.263196 0.342515,-0.313851 -0.00925132,-0.0320853 -0.0151819,-0.0524149 -0.0151819,-0.0524149 0,0 -0.37133,-0.0270487 -0.374839,0.35376z"/>
    <path id="_111637992" class="fil3" d="M1.11561 2.12776c0.00751878,-0.00752433 0.132367,-0.165463 0.132367,-0.165463l1.03188 0.556556 -1.04993 -0.687424 -0.144406 0.233154c0,0 0.0120334,0.0571572 0.0300862,0.0631766z"/>
    <polygon id="_111637920" class="fil1" points="1.1743,1.84021 2.31652,2.5394 2.3346,2.46707 1.20142,1.77993 "/>
    <polygon id="_111637848" class="fil1" points="1.9745,1.79984 2.46788,2.20748 2.49045,2.16386 2.01061,1.7502 "/>
    <polygon id="_111637776" class="fil1" points="1.39368,2.56334 2.18432,2.85094 2.19387,2.80277 1.42508,2.49058 "/>
    <path id="_111637704" class="fil1" d="M0.782514 2.7188c0,0 0.673847,-0.117629 0.689501,-0.180639 0.0156539,-0.0630045 -0.426072,-0.534772 -0.426072,-0.534772 0,0 -0.541369,0.240246 -0.263429,0.715411z"/>
    <path id="_111637632" class="fil6" d="M0.851404 2.61229c0,0 0.492663,-0.102281 0.493424,-0.122705 0.000760763,-0.020424 -0.317144,-0.361623 -0.317144,-0.361623 0,0 -0.343998,0.142418 -0.17628,0.484328z"/>
    <path id="_111637560" class="fil7" d="M1.02402 2.57518c0.142102,-0.0314467 0.320359,-0.073322 0.320825,-0.0855997 0.000455347,-0.0126164 -0.120623,-0.147544 -0.213291,-0.248914 0.00524204,0.0673081 0.00327628,0.223026 -0.107534,0.334513z"/>
    <path id="_111637488" class="fil8" d="M0.851404 2.61229l0.00282093 -0.000583066c-0.00200464,-0.0462566 0.00201574,-0.260381 0.230261,-0.422329 -0.0337123,-0.0365944 -0.0568018,-0.0614108 -0.0568018,-0.0614108 0,0 -0.343998,0.142401 -0.17628,0.484323z"/>
   </g>
   <g>
    <path id="_111637392" class="fil1" d="M5.92022 1.55605l0.515353 -0.985687c0.0783752,-0.149904 0.131201,-0.185115 0.18913,-0.0748046l0.269338 0.493591c0.700585,0.356181 1.09271,0.739767 1.41353,1.81027l0.0710119 -0.0105452 0.172088 0.555412c0,0 -1.67999,0.31841 -1.82538,0.328316 -0.145389,0.00991213 -0.169095,-0.0530979 -0.180967,-0.103786 -0.0118723,-0.0506879 -0.1466,-0.783924 -0.593495,-1.44077 0,0 -0.145794,-0.156256 -0.169572,-0.227823 -0.023778,-0.0715672 0.138959,-0.344165 0.138959,-0.344165z"/>
    <path id="_111637320" class="fil2" d="M6.57794 0.602835l0.215862 0.446384 -0.531118 0.849983c0,0 0.343887,0.422151 0.611264,1.34653l1.43122 -0.341394 0.109939 0.360807 -1.67033 0.324002c0,0 -0.0598726,0.00494218 -0.102931,-0.0873489 -0.0430525,-0.0922911 -0.166674,-0.93315 -0.768181,-1.59255l0.627279 -1.28121c0.0348951,-0.0712896 0.0573959,-0.0702289 0.0770036,-0.0252051z"/>
    <path id="_111637248" class="fil3" d="M6.26322 1.89835l-0.000533089 0.000849611c0,0 0.343887,0.422151 0.611264,1.34653l1.43122 -0.341394 6.66361e-005 0.000216567 -1.54208 0.428404c0,0 0.0162426,-0.0227229 0.0536088,-0.0703178 -0.0751711,-0.22734 -0.294982,-0.952325 -0.564658,-1.36639l0.0111116 0.00210459z"/>
    <path id="_111637176" class="fil4" d="M6.72675 3.58675c-0.021057,-0.00567518 -0.0566185,-0.0243111 -0.0849056,-0.08495 -0.0430525,-0.0922911 -0.166674,-0.93315 -0.768181,-1.59255l0.0410867 -0.0839171c0.163631,0.152369 0.649708,0.685192 0.812,1.76142z"/>
    <path id="_111637104" class="fil3" d="M6.57794 0.602835l0.215862 0.446384 -0.00338178 0.00540863 -0.232244 -0.318499 -0.623792 1.13685 -0.0133828 -0.0604334 0.579934 -1.1845c0.0348951,-0.0712896 0.0573959,-0.0702289 0.0770036,-0.0252051z"/>
    <path id="_111637032" class="fil2" d="M6.87336 1.09468l-0.49625 0.804437c0,0 0.328044,0.434662 0.566235,1.23415l1.27182 -0.297947c-0.2314,-0.751495 -0.595044,-1.38829 -1.34181,-1.74064z"/>
    <path id="_111636960" class="fil3" d="M6.84606 2.83475l0.840837 -0.241101 -0.0964392 -0.0482224c0,0 -0.723302,0.256172 -0.744398,0.289323z"/>
    <path id="_111636888" class="fil3" d="M7.0539 1.83895l-0.49338 0.33995 0.021057 -0.0571627 0.37605 -0.317388c0,0 0.0977719,0.0346008 0.0962726,0.0346008z"/>
    <path id="_111636816" class="fil5" d="M8.19356 2.76676c-0.231749,-0.71957 -0.594267,-1.32707 -1.31419,-1.66919 -0.0286924,0.182094 -0.0690795,0.995905 1.31419,1.66919z"/>
    <path id="_111636744" class="fil4" d="M6.40823 1.94342c0.0873156,0.12923 0.341027,0.538415 0.53511,1.18984l1.27182 -0.297947 -0.00394264 -0.0127997 -0.00136049 -0.0024933c0,0 -1.18024,0.188169 -1.21274,0.170067 -0.0325073,-0.0180973 -0.212608,-0.709875 -0.588886,-1.04667z"/>
    <path id="_111636672" class="fil1" d="M6.72865 3.62199c0,0 -0.0575014,-0.434551 -0.125903,-0.595594 0,0 0.084589,0.374201 0.0411811,0.557489l0.0420641 0.046562c0,0 0.037816,-0.00885705 0.0426582,-0.00845724z"/>
    <path id="_111636600" class="fil4" d="M8.32854 3.07636l0.037133 0.160415 -1.61016 0.309364 -0.0081074 -0.0766316c0,0 0.517302,-0.126026 1.58114,-0.393148z"/>
    <path id="_111636528" class="fil5" d="M6.76245 1.0525l-0.520817 0.820036c0,0 -0.0359835,-0.473922 0.520817,-0.820036z"/>
    <polygon id="_111636456" class="fil3" points="6.48395,1.37962 6.18263,1.35173 6.20422,1.24596 "/>
    <polygon id="_111636384" class="fil1" points="6.18727,1.1717 6.48687,1.37955 6.14552,1.26986 "/>
    <circle id="_111636312" class="fil3" transform="matrix(-1.43074 0.475336 0.475336 1.43074 6.34783 2.05415)" r="0.0335457"/>
    <circle id="_111636240" class="fil3" transform="matrix(-1.43074 0.475336 0.475336 1.43074 6.41706 2.155)" r="0.0215235"/>
    <path id="_111636168" class="fil4" d="M7.66616 1.72239c0,0 -0.358053,0.14364 -0.720564,0.112049 0,0 0.0872434,-0.1083 0.115825,-0.112815 0.0285814,-0.0045146 0.509922,-0.115825 0.509922,-0.115825 0,0 0.0647315,0.0684575 0.0948177,0.116591z"/>
    <path id="_111636096" class="fil1" d="M7.66714 1.65947c0,0 -0.655,0.197193 -0.697258,0.147904 -0.0422584,-0.0492885 0.140858,-0.669088 0.140858,-0.669088 0,0 0.591612,-0.0281704 0.556401,0.521184z"/>
    <path id="_111636024" class="fil6" d="M7.55778 1.59518c0,0 -0.486183,0.129618 -0.496028,0.11171 -0.00984549,-0.017914 0.121194,-0.465476 0.121194,-0.465476 0,0 0.37133,-0.0270487 0.374834,0.353766z"/>
    <path id="_111635952" class="fil7" d="M7.2697 1.66837c-0.10689,0.025666 -0.203612,0.0463954 -0.207944,0.0385101 -0.00454236,-0.00825733 0.0208904,-0.107889 0.0496051,-0.212864 0.0287257,0.0647537 0.0770703,0.130768 0.158339,0.174353z"/>
    <path id="_111635880" class="fil8" d="M7.55778 1.59518c0,0 -0.0181695,0.00483112 -0.047506,0.0125054 -0.0575736,-0.126781 -0.160421,-0.263196 -0.342515,-0.313851 0.00925132,-0.0320853 0.0151819,-0.0524149 0.0151819,-0.0524149 0,0 0.37133,-0.0270487 0.374839,0.35376z"/>
    <path id="_111635808" class="fil3" d="M7.87519 2.12776c-0.00751878,-0.00752433 -0.132367,-0.165463 -0.132367,-0.165463l-1.03188 0.556556 1.04993 -0.687424 0.144406 0.233154c0,0 -0.0120334,0.0571572 -0.0300862,0.0631766z"/>
    <polygon id="_111635736" class="fil1" points="7.81649,1.84021 6.67428,2.5394 6.6562,2.46707 7.78937,1.77993 "/>
    <polygon id="_111635664" class="fil1" points="7.01629,1.79984 6.52291,2.20748 6.50035,2.16386 6.98019,1.7502 "/>
    <polygon id="_111635592" class="fil1" points="7.59711,2.56334 6.80648,2.85094 6.79693,2.80277 7.56571,2.49058 "/>
    <path id="_111635520" class="fil1" d="M8.20828 2.7188c0,0 -0.673847,-0.117629 -0.689501,-0.180639 -0.0156539,-0.0630045 0.426072,-0.534772 0.426072,-0.534772 0,0 0.541369,0.240246 0.263429,0.715411z"/>
    <path id="_111635448" class="fil6" d="M8.13939 2.61229c0,0 -0.492663,-0.102281 -0.493424,-0.122705 -0.000760763,-0.020424 0.317144,-0.361623 0.317144,-0.361623 0,0 0.343998,0.142418 0.17628,0.484328z"/>
    <path id="_111635376" class="fil7" d="M7.96677 2.57518c-0.142102,-0.0314467 -0.320359,-0.073322 -0.320825,-0.0855997 -0.000455347,-0.0126164 0.120623,-0.147544 0.213291,-0.248914 -0.00524204,0.0673081 -0.00327628,0.223026 0.107534,0.334513z"/>
    <path id="_111635304" class="fil8" d="M8.13939 2.61229l-0.00282093 -0.000583066c0.00200464,-0.0462566 -0.00201574,-0.260381 -0.230261,-0.422329 0.0337123,-0.0365944 0.0568018,-0.0614108 0.0568018,-0.0614108 0,0 0.343998,0.142401 0.17628,0.484323z"/>
   </g>
  </g>
 </g>
</svg>
